<?xml version="1.0" encoding="UTF-8"?>
<svg xmlns="http://www.w3.org/2000/svg" xmlns:xlink="http://www.w3.org/1999/xlink" width="258.46" height="187.17" viewBox="0 0 258.46 187.17">
<defs>
<clipPath id="clip-0">
<path clip-rule="nonzero" d="M 0.300781 147 L 39 147 L 39 186.34375 L 0.300781 186.34375 Z M 0.300781 147 "/>
</clipPath>
<clipPath id="clip-1">
<path clip-rule="nonzero" d="M 130 164 L 149 164 L 149 186.34375 L 130 186.34375 Z M 130 164 "/>
</clipPath>
<clipPath id="clip-2">
<path clip-rule="nonzero" d="M 185 164 L 204 164 L 204 186.34375 L 185 186.34375 Z M 185 164 "/>
</clipPath>
<clipPath id="clip-3">
<path clip-rule="nonzero" d="M 252 164 L 257.621094 164 L 257.621094 170 L 252 170 Z M 252 164 "/>
</clipPath>
<clipPath id="clip-4">
<path clip-rule="nonzero" d="M 0.300781 93 L 39 93 L 39 132 L 0.300781 132 Z M 0.300781 93 "/>
</clipPath>
</defs>
<path fill="none" stroke-width="1.83335" stroke-linecap="round" stroke-linejoin="round" stroke="rgb(13.729858%, 12.159729%, 12.548828%)" stroke-opacity="1" stroke-miterlimit="10" d="M 194.168069 360.850071 L 194.168069 194.176726 M 27.494724 194.176726 L 194.168069 194.176726 M 194.168069 27.503381 L 194.168069 194.176726 M 360.841414 194.176726 L 194.168069 194.176726 " transform="matrix(0.0995585, 0, 0, -0.0995585, 0.301729, 186.343664)"/>
<g clip-path="url(#clip-0)">
<path fill="none" stroke-width="55.0004" stroke-linecap="round" stroke-linejoin="round" stroke="rgb(92.321777%, 13.478088%, 17.372131%)" stroke-opacity="1" stroke-miterlimit="10" d="M 194.168069 360.850071 L 194.168069 360.850071 M 27.494724 194.176726 L 27.494724 194.176726 M 194.168069 27.503381 L 194.168069 27.503381 M 360.841414 194.176726 L 360.841414 194.176726 " transform="matrix(0.0995585, 0, 0, -0.0995585, 0.301729, 186.343664)"/>
</g>
<path fill="none" stroke-width="55.0004" stroke-linecap="round" stroke-linejoin="round" stroke="rgb(20.050049%, 21.966553%, 59.739685%)" stroke-opacity="1" stroke-miterlimit="10" d="M 194.168069 194.176726 L 194.168069 194.176726 " transform="matrix(0.0995585, 0, 0, -0.0995585, 0.301729, 186.343664)"/>
<path fill="none" stroke-width="1.83335" stroke-linecap="round" stroke-linejoin="round" stroke="rgb(13.729858%, 12.159729%, 12.548828%)" stroke-opacity="1" stroke-miterlimit="10" d="M 711.216408 345.351961 L 579.50209 194.176726 M 711.216408 345.351961 L 842.96996 194.176726 M 777.093184 42.962255 L 842.96996 194.176726 M 908.846737 42.962255 L 842.96996 194.176726 " transform="matrix(0.0995585, 0, 0, -0.0995585, 0.301729, 186.343664)"/>
<path fill="none" stroke-width="55.0004" stroke-linecap="round" stroke-linejoin="round" stroke="rgb(92.321777%, 13.478088%, 17.372131%)" stroke-opacity="1" stroke-miterlimit="10" d="M 711.216408 345.351961 L 711.216408 345.351961 M 777.093184 42.962255 L 777.093184 42.962255 M 908.846737 42.962255 L 908.846737 42.962255 " transform="matrix(0.0995585, 0, 0, -0.0995585, 0.301729, 186.343664)"/>
<path fill="none" stroke-width="55.0004" stroke-linecap="round" stroke-linejoin="round" stroke="rgb(20.050049%, 21.966553%, 59.739685%)" stroke-opacity="1" stroke-miterlimit="10" d="M 579.50209 194.176726 L 579.50209 194.176726 M 842.96996 194.176726 L 842.96996 194.176726 " transform="matrix(0.0995585, 0, 0, -0.0995585, 0.301729, 186.343664)"/>
<path fill="none" stroke-width="1.83334" stroke-linecap="round" stroke-linejoin="round" stroke="rgb(13.729858%, 12.159729%, 12.548828%)" stroke-opacity="1" stroke-miterlimit="10" d="M 1333.259537 360.457714 L 1333.259537 27.895738 M 1333.259537 360.457714 L 1459.677032 194.176726 M 1128.684485 296.93508 L 1333.259537 27.895738 M 1128.684485 296.93508 L 1459.677032 194.176726 M 1128.684485 91.379135 L 1459.677032 194.176726 " transform="matrix(0.0995585, 0, 0, -0.0995585, 0.301729, 186.343664)"/>
<path fill="none" stroke-width="55.0002" stroke-linecap="round" stroke-linejoin="round" stroke="rgb(92.321777%, 13.478088%, 17.372131%)" stroke-opacity="1" stroke-miterlimit="10" d="M 1333.259537 360.457714 L 1333.259537 360.457714 M 1128.684485 296.93508 L 1128.684485 296.93508 M 1128.684485 91.379135 L 1128.684485 91.379135 " transform="matrix(0.0995585, 0, 0, -0.0995585, 0.301729, 186.343664)"/>
<g clip-path="url(#clip-1)">
<path fill="none" stroke-width="55.0002" stroke-linecap="round" stroke-linejoin="round" stroke="rgb(20.050049%, 21.966553%, 59.739685%)" stroke-opacity="1" stroke-miterlimit="10" d="M 1333.259537 27.895738 L 1333.259537 27.895738 M 1459.677032 194.176726 L 1459.677032 194.176726 " transform="matrix(0.0995585, 0, 0, -0.0995585, 0.301729, 186.343664)"/>
</g>
<path fill="none" stroke-width="1.83335" stroke-linecap="round" stroke-linejoin="round" stroke="rgb(13.729858%, 12.159729%, 12.548828%)" stroke-opacity="1" stroke-miterlimit="10" d="M 1883.226646 360.457714 L 1883.226646 27.895738 M 1883.226646 360.457714 L 2009.683376 194.176726 M 1678.690829 296.93508 L 1883.226646 27.895738 M 1678.690829 296.93508 L 2009.683376 194.176726 M 1678.690829 91.379135 L 1883.226646 27.895738 M 1678.690829 91.379135 L 2009.683376 194.176726 " transform="matrix(0.0995585, 0, 0, -0.0995585, 0.301729, 186.343664)"/>
<path fill="none" stroke-width="55.0004" stroke-linecap="round" stroke-linejoin="round" stroke="rgb(92.321777%, 13.478088%, 17.372131%)" stroke-opacity="1" stroke-miterlimit="10" d="M 1883.226646 360.457714 L 1883.226646 360.457714 M 1678.690829 296.93508 L 1678.690829 296.93508 M 1678.690829 91.379135 L 1678.690829 91.379135 " transform="matrix(0.0995585, 0, 0, -0.0995585, 0.301729, 186.343664)"/>
<g clip-path="url(#clip-2)">
<path fill="none" stroke-width="55.0004" stroke-linecap="round" stroke-linejoin="round" stroke="rgb(20.050049%, 21.966553%, 59.739685%)" stroke-opacity="1" stroke-miterlimit="10" d="M 1883.226646 27.895738 L 1883.226646 27.895738 M 2009.683376 194.176726 L 2009.683376 194.176726 " transform="matrix(0.0995585, 0, 0, -0.0995585, 0.301729, 186.343664)"/>
</g>
<path fill="none" stroke-width="1.83334" stroke-linecap="round" stroke-linejoin="round" stroke="rgb(13.729858%, 12.159729%, 12.548828%)" stroke-opacity="1" stroke-miterlimit="10" d="M 2231.20826 194.176726 L 2312.700854 194.176726 M 2312.700854 194.176726 L 2394.193447 194.176726 M 2394.193447 194.176726 L 2475.646805 194.176726 M 2475.646805 194.176726 L 2557.139399 194.176726 " transform="matrix(0.0995585, 0, 0, -0.0995585, 0.301729, 186.343664)"/>
<path fill="none" stroke-width="55.0002" stroke-linecap="round" stroke-linejoin="round" stroke="rgb(92.321777%, 13.478088%, 17.372131%)" stroke-opacity="1" stroke-miterlimit="10" d="M 2231.20826 194.176726 L 2231.20826 194.176726 " transform="matrix(0.0995585, 0, 0, -0.0995585, 0.301729, 186.343664)"/>
<path fill="none" stroke-width="55.0002" stroke-linecap="round" stroke-linejoin="round" stroke="rgb(20.050049%, 21.966553%, 59.739685%)" stroke-opacity="1" stroke-miterlimit="10" d="M 2312.700854 194.176726 L 2312.700854 194.176726 " transform="matrix(0.0995585, 0, 0, -0.0995585, 0.301729, 186.343664)"/>
<path fill="none" stroke-width="55.0002" stroke-linecap="round" stroke-linejoin="round" stroke="rgb(92.321777%, 13.478088%, 17.372131%)" stroke-opacity="1" stroke-miterlimit="10" d="M 2394.193447 194.176726 L 2394.193447 194.176726 " transform="matrix(0.0995585, 0, 0, -0.0995585, 0.301729, 186.343664)"/>
<path fill="none" stroke-width="55.0002" stroke-linecap="round" stroke-linejoin="round" stroke="rgb(20.050049%, 21.966553%, 59.739685%)" stroke-opacity="1" stroke-miterlimit="10" d="M 2475.646805 194.176726 L 2475.646805 194.176726 " transform="matrix(0.0995585, 0, 0, -0.0995585, 0.301729, 186.343664)"/>
<g clip-path="url(#clip-3)">
<path fill="none" stroke-width="55.0002" stroke-linecap="round" stroke-linejoin="round" stroke="rgb(92.321777%, 13.478088%, 17.372131%)" stroke-opacity="1" stroke-miterlimit="10" d="M 2557.139399 194.176726 L 2557.139399 194.176726 " transform="matrix(0.0995585, 0, 0, -0.0995585, 0.301729, 186.343664)"/>
</g>
<path fill="none" stroke-width="1.83335" stroke-linecap="round" stroke-linejoin="round" stroke="rgb(13.729858%, 12.159729%, 12.548828%)" stroke-opacity="1" stroke-miterlimit="10" d="M 31.10441 909.679344 L 139.826595 744.18307 M 31.10441 578.686797 L 139.826595 744.18307 M 357.231728 744.18307 L 139.826595 744.18307 " transform="matrix(0.0995585, 0, 0, -0.0995585, 0.301729, 186.343664)"/>
<g clip-path="url(#clip-4)">
<path fill="none" stroke-width="55.0004" stroke-linecap="round" stroke-linejoin="round" stroke="rgb(92.321777%, 13.478088%, 17.372131%)" stroke-opacity="1" stroke-miterlimit="10" d="M 31.10441 909.679344 L 31.10441 909.679344 M 31.10441 578.686797 L 31.10441 578.686797 M 357.231728 744.18307 L 357.231728 744.18307 " transform="matrix(0.0995585, 0, 0, -0.0995585, 0.301729, 186.343664)"/>
</g>
<path fill="none" stroke-width="55.0004" stroke-linecap="round" stroke-linejoin="round" stroke="rgb(20.050049%, 21.966553%, 59.739685%)" stroke-opacity="1" stroke-miterlimit="10" d="M 139.826595 744.18307 L 139.826595 744.18307 " transform="matrix(0.0995585, 0, 0, -0.0995585, 0.301729, 186.343664)"/>
<path fill="none" stroke-width="1.83336" stroke-linecap="round" stroke-linejoin="round" stroke="rgb(13.729858%, 12.159729%, 12.548828%)" stroke-opacity="1" stroke-miterlimit="10" d="M 582.405534 744.18307 L 690.264532 744.18307 M 690.264532 744.18307 L 798.084295 744.18307 M 798.084295 744.18307 L 905.943294 744.18307 " transform="matrix(0.0995585, 0, 0, -0.0995585, 0.301729, 186.343664)"/>
<path fill="none" stroke-width="55.0006" stroke-linecap="round" stroke-linejoin="round" stroke="rgb(92.321777%, 13.478088%, 17.372131%)" stroke-opacity="1" stroke-miterlimit="10" d="M 582.405534 744.18307 L 582.405534 744.18307 " transform="matrix(0.0995585, 0, 0, -0.0995585, 0.301729, 186.343664)"/>
<path fill="none" stroke-width="55.0006" stroke-linecap="round" stroke-linejoin="round" stroke="rgb(20.050049%, 21.966553%, 59.739685%)" stroke-opacity="1" stroke-miterlimit="10" d="M 690.264532 744.18307 L 690.264532 744.18307 " transform="matrix(0.0995585, 0, 0, -0.0995585, 0.301729, 186.343664)"/>
<path fill="none" stroke-width="55.0006" stroke-linecap="round" stroke-linejoin="round" stroke="rgb(92.321777%, 13.478088%, 17.372131%)" stroke-opacity="1" stroke-miterlimit="10" d="M 798.084295 744.18307 L 798.084295 744.18307 " transform="matrix(0.0995585, 0, 0, -0.0995585, 0.301729, 186.343664)"/>
<path fill="none" stroke-width="55.0006" stroke-linecap="round" stroke-linejoin="round" stroke="rgb(20.050049%, 21.966553%, 59.739685%)" stroke-opacity="1" stroke-miterlimit="10" d="M 905.943294 744.18307 L 905.943294 744.18307 " transform="matrix(0.0995585, 0, 0, -0.0995585, 0.301729, 186.343664)"/>
<path fill="none" stroke-width="1.83334" stroke-linecap="round" stroke-linejoin="round" stroke="rgb(13.729858%, 12.159729%, 12.548828%)" stroke-opacity="1" stroke-miterlimit="10" d="M 1294.180758 910.856415 L 1127.507413 744.18307 M 1294.180758 910.856415 L 1460.854103 744.18307 M 1127.507413 744.18307 L 1294.180758 577.509725 M 1294.180758 577.509725 L 1460.854103 744.18307 " transform="matrix(0.0995585, 0, 0, -0.0995585, 0.301729, 186.343664)"/>
<path fill="none" stroke-width="55.0002" stroke-linecap="round" stroke-linejoin="round" stroke="rgb(92.321777%, 13.478088%, 17.372131%)" stroke-opacity="1" stroke-miterlimit="10" d="M 1294.180758 910.856415 L 1294.180758 910.856415 " transform="matrix(0.0995585, 0, 0, -0.0995585, 0.301729, 186.343664)"/>
<path fill="none" stroke-width="55.0002" stroke-linecap="round" stroke-linejoin="round" stroke="rgb(20.050049%, 21.966553%, 59.739685%)" stroke-opacity="1" stroke-miterlimit="10" d="M 1127.507413 744.18307 L 1127.507413 744.18307 " transform="matrix(0.0995585, 0, 0, -0.0995585, 0.301729, 186.343664)"/>
<path fill="none" stroke-width="55.0002" stroke-linecap="round" stroke-linejoin="round" stroke="rgb(92.321777%, 13.478088%, 17.372131%)" stroke-opacity="1" stroke-miterlimit="10" d="M 1294.180758 577.509725 L 1294.180758 577.509725 " transform="matrix(0.0995585, 0, 0, -0.0995585, 0.301729, 186.343664)"/>
<path fill="none" stroke-width="55.0002" stroke-linecap="round" stroke-linejoin="round" stroke="rgb(20.050049%, 21.966553%, 59.739685%)" stroke-opacity="1" stroke-miterlimit="10" d="M 1460.854103 744.18307 L 1460.854103 744.18307 " transform="matrix(0.0995585, 0, 0, -0.0995585, 0.301729, 186.343664)"/>
<path fill="none" stroke-width="1.83334" stroke-linecap="round" stroke-linejoin="round" stroke="rgb(13.729858%, 12.159729%, 12.548828%)" stroke-opacity="1" stroke-miterlimit="10" d="M 34.753333 1294.189415 L 194.168069 1294.189415 M 194.168069 1294.189415 L 353.582806 1294.189415 " transform="matrix(0.0995585, 0, 0, -0.0995585, 0.301729, 186.343664)"/>
<path fill="none" stroke-width="55.0002" stroke-linecap="round" stroke-linejoin="round" stroke="rgb(92.321777%, 13.478088%, 17.372131%)" stroke-opacity="1" stroke-miterlimit="10" d="M 34.753333 1294.189415 L 34.753333 1294.189415 " transform="matrix(0.0995585, 0, 0, -0.0995585, 0.301729, 186.343664)"/>
<path fill="none" stroke-width="55.0002" stroke-linecap="round" stroke-linejoin="round" stroke="rgb(20.050049%, 21.966553%, 59.739685%)" stroke-opacity="1" stroke-miterlimit="10" d="M 194.168069 1294.189415 L 194.168069 1294.189415 " transform="matrix(0.0995585, 0, 0, -0.0995585, 0.301729, 186.343664)"/>
<path fill="none" stroke-width="55.0002" stroke-linecap="round" stroke-linejoin="round" stroke="rgb(92.321777%, 13.478088%, 17.372131%)" stroke-opacity="1" stroke-miterlimit="10" d="M 353.582806 1294.189415 L 353.582806 1294.189415 " transform="matrix(0.0995585, 0, 0, -0.0995585, 0.301729, 186.343664)"/>
<path fill="none" stroke-width="1.83335" stroke-linecap="round" stroke-linejoin="round" stroke="rgb(13.729858%, 12.159729%, 12.548828%)" stroke-opacity="1" stroke-miterlimit="10" d="M 41.384169 1844.195759 L 346.951969 1844.195759 " transform="matrix(0.0995585, 0, 0, -0.0995585, 0.301729, 186.343664)"/>
<path fill="none" stroke-width="55.0004" stroke-linecap="round" stroke-linejoin="round" stroke="rgb(92.321777%, 13.478088%, 17.372131%)" stroke-opacity="1" stroke-miterlimit="10" d="M 41.384169 1844.195759 L 41.384169 1844.195759 " transform="matrix(0.0995585, 0, 0, -0.0995585, 0.301729, 186.343664)"/>
<path fill="none" stroke-width="55.0004" stroke-linecap="round" stroke-linejoin="round" stroke="rgb(20.050049%, 21.966553%, 59.739685%)" stroke-opacity="1" stroke-miterlimit="10" d="M 346.951969 1844.195759 L 346.951969 1844.195759 " transform="matrix(0.0995585, 0, 0, -0.0995585, 0.301729, 186.343664)"/>
</svg>
