<?xml version="1.0" encoding="UTF-8"?>
<svg xmlns="http://www.w3.org/2000/svg" xmlns:xlink="http://www.w3.org/1999/xlink" width="382.44" height="183.88" viewBox="0 0 382.44 183.88">
<defs>
<clipPath id="clip-0">
<path clip-rule="nonzero" d="M 0 172 L 24 172 L 24 183.6875 L 0 183.6875 Z M 0 172 "/>
</clipPath>
<clipPath id="clip-1">
<path clip-rule="nonzero" d="M 49 172 L 74 172 L 74 183.6875 L 49 183.6875 Z M 49 172 "/>
</clipPath>
<clipPath id="clip-2">
<path clip-rule="nonzero" d="M 99 172 L 123 172 L 123 183.6875 L 99 183.6875 Z M 99 172 "/>
</clipPath>
<clipPath id="clip-3">
<path clip-rule="nonzero" d="M 163 178 L 169 178 L 169 183.6875 L 163 183.6875 Z M 163 178 "/>
</clipPath>
<clipPath id="clip-4">
<path clip-rule="nonzero" d="M 376 114 L 381.878906 114 L 381.878906 120 L 376 120 Z M 376 114 "/>
</clipPath>
<clipPath id="clip-5">
<path clip-rule="nonzero" d="M 0 0.0742188 L 6 0.0742188 L 6 6 L 0 6 Z M 0 0.0742188 "/>
</clipPath>
</defs>
<path fill="none" stroke-width="1.65476" stroke-linecap="round" stroke-linejoin="round" stroke="rgb(13.729858%, 12.159729%, 12.548828%)" stroke-opacity="1" stroke-miterlimit="10" d="M 210.503098 325.34009 L 25.89724 82.524122 M 210.503098 325.34009 L 210.503098 25.174644 M 210.503098 325.34009 L 324.615258 175.276927 M 25.89724 268.029732 L 210.503098 25.174644 M 25.89724 268.029732 L 324.615258 175.276927 M 25.89724 82.524122 L 324.615258 175.276927 " transform="matrix(0.0998538, 0, 0, -0.0998538, 0.000000000000003664, 183.685658)"/>
<path fill="none" stroke-width="49.6428" stroke-linecap="round" stroke-linejoin="round" stroke="rgb(92.321777%, 13.478088%, 17.372131%)" stroke-opacity="1" stroke-miterlimit="10" d="M 210.503098 325.34009 L 210.503098 325.34009 M 25.89724 268.029732 L 25.89724 268.029732 " transform="matrix(0.0998538, 0, 0, -0.0998538, 0.000000000000003664, 183.685658)"/>
<g clip-path="url(#clip-0)">
<path fill="none" stroke-width="49.6428" stroke-linecap="round" stroke-linejoin="round" stroke="rgb(7.423401%, 67.311096%, 29.040527%)" stroke-opacity="1" stroke-miterlimit="10" d="M 25.89724 82.524122 L 25.89724 82.524122 M 210.503098 25.174644 L 210.503098 25.174644 " transform="matrix(0.0998538, 0, 0, -0.0998538, 0.000000000000003664, 183.685658)"/>
</g>
<path fill="none" stroke-width="49.6428" stroke-linecap="round" stroke-linejoin="round" stroke="rgb(20.050049%, 21.966553%, 59.739685%)" stroke-opacity="1" stroke-miterlimit="10" d="M 324.615258 175.276927 L 324.615258 175.276927 " transform="matrix(0.0998538, 0, 0, -0.0998538, 0.000000000000003664, 183.685658)"/>
<path fill="none" stroke-width="1.65477" stroke-linecap="round" stroke-linejoin="round" stroke="rgb(13.729858%, 12.159729%, 12.548828%)" stroke-opacity="1" stroke-miterlimit="10" d="M 706.932072 325.34009 L 522.326215 82.524122 M 706.932072 325.34009 L 706.932072 25.174644 M 706.932072 325.34009 L 821.044232 175.276927 M 522.326215 268.029732 L 706.932072 25.174644 M 522.326215 268.029732 L 821.044232 175.276927 M 522.326215 82.524122 L 821.044232 175.276927 M 706.932072 25.174644 L 821.044232 175.276927 " transform="matrix(0.0998538, 0, 0, -0.0998538, 0.000000000000003664, 183.685658)"/>
<path fill="none" stroke-width="49.643" stroke-linecap="round" stroke-linejoin="round" stroke="rgb(92.321777%, 13.478088%, 17.372131%)" stroke-opacity="1" stroke-miterlimit="10" d="M 706.932072 325.34009 L 706.932072 325.34009 M 522.326215 268.029732 L 522.326215 268.029732 " transform="matrix(0.0998538, 0, 0, -0.0998538, 0.000000000000003664, 183.685658)"/>
<g clip-path="url(#clip-1)">
<path fill="none" stroke-width="49.643" stroke-linecap="round" stroke-linejoin="round" stroke="rgb(7.423401%, 67.311096%, 29.040527%)" stroke-opacity="1" stroke-miterlimit="10" d="M 522.326215 82.524122 L 522.326215 82.524122 M 706.932072 25.174644 L 706.932072 25.174644 " transform="matrix(0.0998538, 0, 0, -0.0998538, 0.000000000000003664, 183.685658)"/>
</g>
<path fill="none" stroke-width="49.643" stroke-linecap="round" stroke-linejoin="round" stroke="rgb(20.050049%, 21.966553%, 59.739685%)" stroke-opacity="1" stroke-miterlimit="10" d="M 821.044232 175.276927 L 821.044232 175.276927 " transform="matrix(0.0998538, 0, 0, -0.0998538, 0.000000000000003664, 183.685658)"/>
<path fill="none" stroke-width="1.65476" stroke-linecap="round" stroke-linejoin="round" stroke="rgb(13.729858%, 12.159729%, 12.548828%)" stroke-opacity="1" stroke-miterlimit="10" d="M 1203.361046 325.34009 L 1018.755189 82.524122 M 1203.361046 325.34009 L 1203.361046 25.174644 M 1203.361046 325.34009 L 1317.473207 175.276927 M 1018.755189 268.029732 L 1018.755189 82.524122 M 1018.755189 268.029732 L 1203.361046 25.174644 M 1018.755189 268.029732 L 1317.473207 175.276927 M 1018.755189 82.524122 L 1317.473207 175.276927 " transform="matrix(0.0998538, 0, 0, -0.0998538, 0.000000000000003664, 183.685658)"/>
<path fill="none" stroke-width="49.6426" stroke-linecap="round" stroke-linejoin="round" stroke="rgb(92.321777%, 13.478088%, 17.372131%)" stroke-opacity="1" stroke-miterlimit="10" d="M 1203.361046 325.34009 L 1203.361046 325.34009 M 1018.755189 268.029732 L 1018.755189 268.029732 " transform="matrix(0.0998538, 0, 0, -0.0998538, 0.000000000000003664, 183.685658)"/>
<g clip-path="url(#clip-2)">
<path fill="none" stroke-width="49.6426" stroke-linecap="round" stroke-linejoin="round" stroke="rgb(7.423401%, 67.311096%, 29.040527%)" stroke-opacity="1" stroke-miterlimit="10" d="M 1018.755189 82.524122 L 1018.755189 82.524122 M 1203.361046 25.174644 L 1203.361046 25.174644 " transform="matrix(0.0998538, 0, 0, -0.0998538, 0.000000000000003664, 183.685658)"/>
</g>
<path fill="none" stroke-width="49.6426" stroke-linecap="round" stroke-linejoin="round" stroke="rgb(20.050049%, 21.966553%, 59.739685%)" stroke-opacity="1" stroke-miterlimit="10" d="M 1317.473207 175.276927 L 1317.473207 175.276927 " transform="matrix(0.0998538, 0, 0, -0.0998538, 0.000000000000003664, 183.685658)"/>
<path fill="none" stroke-width="1.65477" stroke-linecap="round" stroke-linejoin="round" stroke="rgb(13.729858%, 12.159729%, 12.548828%)" stroke-opacity="1" stroke-miterlimit="10" d="M 1664.543172 325.692168 L 1514.127931 175.276927 M 1664.543172 325.692168 L 1814.997532 175.276927 M 1664.543172 325.692168 L 1664.543172 175.276927 M 1514.127931 175.276927 L 1664.543172 24.822566 M 1514.127931 175.276927 L 1664.543172 175.276927 M 1664.543172 24.822566 L 1814.997532 175.276927 M 1664.543172 24.822566 L 1664.543172 175.276927 M 1814.997532 175.276927 L 1664.543172 175.276927 " transform="matrix(0.0998538, 0, 0, -0.0998538, 0.000000000000003664, 183.685658)"/>
<path fill="none" stroke-width="49.643" stroke-linecap="round" stroke-linejoin="round" stroke="rgb(92.321777%, 13.478088%, 17.372131%)" stroke-opacity="1" stroke-miterlimit="10" d="M 1664.543172 325.692168 L 1664.543172 325.692168 " transform="matrix(0.0998538, 0, 0, -0.0998538, 0.000000000000003664, 183.685658)"/>
<path fill="none" stroke-width="49.643" stroke-linecap="round" stroke-linejoin="round" stroke="rgb(7.423401%, 67.311096%, 29.040527%)" stroke-opacity="1" stroke-miterlimit="10" d="M 1514.127931 175.276927 L 1514.127931 175.276927 " transform="matrix(0.0998538, 0, 0, -0.0998538, 0.000000000000003664, 183.685658)"/>
<g clip-path="url(#clip-3)">
<path fill="none" stroke-width="49.643" stroke-linecap="round" stroke-linejoin="round" stroke="rgb(92.321777%, 13.478088%, 17.372131%)" stroke-opacity="1" stroke-miterlimit="10" d="M 1664.543172 24.822566 L 1664.543172 24.822566 " transform="matrix(0.0998538, 0, 0, -0.0998538, 0.000000000000003664, 183.685658)"/>
</g>
<path fill="none" stroke-width="49.643" stroke-linecap="round" stroke-linejoin="round" stroke="rgb(7.423401%, 67.311096%, 29.040527%)" stroke-opacity="1" stroke-miterlimit="10" d="M 1814.997532 175.276927 L 1814.997532 175.276927 " transform="matrix(0.0998538, 0, 0, -0.0998538, 0.000000000000003664, 183.685658)"/>
<path fill="none" stroke-width="49.643" stroke-linecap="round" stroke-linejoin="round" stroke="rgb(20.050049%, 21.966553%, 59.739685%)" stroke-opacity="1" stroke-miterlimit="10" d="M 1664.543172 175.276927 L 1664.543172 175.276927 " transform="matrix(0.0998538, 0, 0, -0.0998538, 0.000000000000003664, 183.685658)"/>
<path fill="none" stroke-width="1.65476" stroke-linecap="round" stroke-linejoin="round" stroke="rgb(13.729858%, 12.159729%, 12.548828%)" stroke-opacity="1" stroke-miterlimit="10" d="M 210.503098 821.769065 L 210.503098 521.603618 M 210.503098 821.769065 L 324.615258 671.705901 M 25.89724 764.458706 L 324.615258 671.705901 M 25.89724 578.953096 L 324.615258 671.705901 M 210.503098 521.603618 L 324.615258 671.705901 " transform="matrix(0.0998538, 0, 0, -0.0998538, 0.000000000000003664, 183.685658)"/>
<path fill="none" stroke-width="49.6428" stroke-linecap="round" stroke-linejoin="round" stroke="rgb(92.321777%, 13.478088%, 17.372131%)" stroke-opacity="1" stroke-miterlimit="10" d="M 210.503098 821.769065 L 210.503098 821.769065 M 25.89724 764.458706 L 25.89724 764.458706 M 25.89724 578.953096 L 25.89724 578.953096 " transform="matrix(0.0998538, 0, 0, -0.0998538, 0.000000000000003664, 183.685658)"/>
<path fill="none" stroke-width="49.6428" stroke-linecap="round" stroke-linejoin="round" stroke="rgb(7.423401%, 67.311096%, 29.040527%)" stroke-opacity="1" stroke-miterlimit="10" d="M 210.503098 521.603618 L 210.503098 521.603618 " transform="matrix(0.0998538, 0, 0, -0.0998538, 0.000000000000003664, 183.685658)"/>
<path fill="none" stroke-width="49.6428" stroke-linecap="round" stroke-linejoin="round" stroke="rgb(20.050049%, 21.966553%, 59.739685%)" stroke-opacity="1" stroke-miterlimit="10" d="M 324.615258 671.705901 L 324.615258 671.705901 " transform="matrix(0.0998538, 0, 0, -0.0998538, 0.000000000000003664, 183.685658)"/>
<path fill="none" stroke-width="1.65478" stroke-linecap="round" stroke-linejoin="round" stroke="rgb(13.729858%, 12.159729%, 12.548828%)" stroke-opacity="1" stroke-miterlimit="10" d="M 706.932072 821.769065 L 706.932072 521.603618 M 706.932072 821.769065 L 821.044232 671.705901 M 522.326215 764.458706 L 706.932072 521.603618 M 522.326215 578.953096 L 821.044232 671.705901 M 706.932072 521.603618 L 821.044232 671.705901 " transform="matrix(0.0998538, 0, 0, -0.0998538, 0.000000000000003664, 183.685658)"/>
<path fill="none" stroke-width="49.6431" stroke-linecap="round" stroke-linejoin="round" stroke="rgb(92.321777%, 13.478088%, 17.372131%)" stroke-opacity="1" stroke-miterlimit="10" d="M 706.932072 821.769065 L 706.932072 821.769065 M 522.326215 764.458706 L 522.326215 764.458706 M 522.326215 578.953096 L 522.326215 578.953096 " transform="matrix(0.0998538, 0, 0, -0.0998538, 0.000000000000003664, 183.685658)"/>
<path fill="none" stroke-width="49.6431" stroke-linecap="round" stroke-linejoin="round" stroke="rgb(7.423401%, 67.311096%, 29.040527%)" stroke-opacity="1" stroke-miterlimit="10" d="M 706.932072 521.603618 L 706.932072 521.603618 " transform="matrix(0.0998538, 0, 0, -0.0998538, 0.000000000000003664, 183.685658)"/>
<path fill="none" stroke-width="49.6431" stroke-linecap="round" stroke-linejoin="round" stroke="rgb(20.050049%, 21.966553%, 59.739685%)" stroke-opacity="1" stroke-miterlimit="10" d="M 821.044232 671.705901 L 821.044232 671.705901 " transform="matrix(0.0998538, 0, 0, -0.0998538, 0.000000000000003664, 183.685658)"/>
<path fill="none" stroke-width="1.65476" stroke-linecap="round" stroke-linejoin="round" stroke="rgb(13.729858%, 12.159729%, 12.548828%)" stroke-opacity="1" stroke-miterlimit="10" d="M 1203.361046 821.769065 L 1203.361046 521.603618 M 1203.361046 821.769065 L 1317.473207 671.705901 M 1018.755189 764.458706 L 1203.361046 521.603618 M 1018.755189 764.458706 L 1317.473207 671.705901 M 1018.755189 578.953096 L 1317.473207 671.705901 M 1203.361046 521.603618 L 1317.473207 671.705901 " transform="matrix(0.0998538, 0, 0, -0.0998538, 0.000000000000003664, 183.685658)"/>
<path fill="none" stroke-width="49.6426" stroke-linecap="round" stroke-linejoin="round" stroke="rgb(92.321777%, 13.478088%, 17.372131%)" stroke-opacity="1" stroke-miterlimit="10" d="M 1203.361046 821.769065 L 1203.361046 821.769065 M 1018.755189 764.458706 L 1018.755189 764.458706 M 1018.755189 578.953096 L 1018.755189 578.953096 " transform="matrix(0.0998538, 0, 0, -0.0998538, 0.000000000000003664, 183.685658)"/>
<path fill="none" stroke-width="49.6426" stroke-linecap="round" stroke-linejoin="round" stroke="rgb(7.423401%, 67.311096%, 29.040527%)" stroke-opacity="1" stroke-miterlimit="10" d="M 1203.361046 521.603618 L 1203.361046 521.603618 " transform="matrix(0.0998538, 0, 0, -0.0998538, 0.000000000000003664, 183.685658)"/>
<path fill="none" stroke-width="49.6426" stroke-linecap="round" stroke-linejoin="round" stroke="rgb(20.050049%, 21.966553%, 59.739685%)" stroke-opacity="1" stroke-miterlimit="10" d="M 1317.473207 671.705901 L 1317.473207 671.705901 " transform="matrix(0.0998538, 0, 0, -0.0998538, 0.000000000000003664, 183.685658)"/>
<path fill="none" stroke-width="1.65478" stroke-linecap="round" stroke-linejoin="round" stroke="rgb(13.729858%, 12.159729%, 12.548828%)" stroke-opacity="1" stroke-miterlimit="10" d="M 1699.79002 821.769065 L 1699.79002 521.603618 M 1699.79002 821.769065 L 1813.902181 671.705901 M 1515.184163 764.458706 L 1699.79002 521.603618 M 1515.184163 764.458706 L 1813.902181 671.705901 M 1515.184163 578.953096 L 1699.79002 521.603618 M 1515.184163 578.953096 L 1813.902181 671.705901 M 1699.79002 521.603618 L 1813.902181 671.705901 " transform="matrix(0.0998538, 0, 0, -0.0998538, 0.000000000000003664, 183.685658)"/>
<path fill="none" stroke-width="49.6431" stroke-linecap="round" stroke-linejoin="round" stroke="rgb(92.321777%, 13.478088%, 17.372131%)" stroke-opacity="1" stroke-miterlimit="10" d="M 1699.79002 821.769065 L 1699.79002 821.769065 M 1515.184163 764.458706 L 1515.184163 764.458706 M 1515.184163 578.953096 L 1515.184163 578.953096 " transform="matrix(0.0998538, 0, 0, -0.0998538, 0.000000000000003664, 183.685658)"/>
<path fill="none" stroke-width="49.6431" stroke-linecap="round" stroke-linejoin="round" stroke="rgb(7.423401%, 67.311096%, 29.040527%)" stroke-opacity="1" stroke-miterlimit="10" d="M 1699.79002 521.603618 L 1699.79002 521.603618 " transform="matrix(0.0998538, 0, 0, -0.0998538, 0.000000000000003664, 183.685658)"/>
<path fill="none" stroke-width="49.6431" stroke-linecap="round" stroke-linejoin="round" stroke="rgb(20.050049%, 21.966553%, 59.739685%)" stroke-opacity="1" stroke-miterlimit="10" d="M 1813.902181 671.705901 L 1813.902181 671.705901 " transform="matrix(0.0998538, 0, 0, -0.0998538, 0.000000000000003664, 183.685658)"/>
<path fill="none" stroke-width="1.65478" stroke-linecap="round" stroke-linejoin="round" stroke="rgb(13.729858%, 12.159729%, 12.548828%)" stroke-opacity="1" stroke-miterlimit="10" d="M 2196.258114 821.769065 L 2011.613137 578.953096 M 2196.258114 821.769065 L 2310.331155 671.705901 M 2011.613137 764.458706 L 2196.258114 521.603618 M 2011.613137 764.458706 L 2310.331155 671.705901 M 2011.613137 578.953096 L 2310.331155 671.705901 " transform="matrix(0.0998538, 0, 0, -0.0998538, 0.000000000000003664, 183.685658)"/>
<path fill="none" stroke-width="49.6431" stroke-linecap="round" stroke-linejoin="round" stroke="rgb(92.321777%, 13.478088%, 17.372131%)" stroke-opacity="1" stroke-miterlimit="10" d="M 2196.258114 821.769065 L 2196.258114 821.769065 M 2011.613137 764.458706 L 2011.613137 764.458706 " transform="matrix(0.0998538, 0, 0, -0.0998538, 0.000000000000003664, 183.685658)"/>
<path fill="none" stroke-width="49.6431" stroke-linecap="round" stroke-linejoin="round" stroke="rgb(7.423401%, 67.311096%, 29.040527%)" stroke-opacity="1" stroke-miterlimit="10" d="M 2011.613137 578.953096 L 2011.613137 578.953096 M 2196.258114 521.603618 L 2196.258114 521.603618 " transform="matrix(0.0998538, 0, 0, -0.0998538, 0.000000000000003664, 183.685658)"/>
<path fill="none" stroke-width="49.6431" stroke-linecap="round" stroke-linejoin="round" stroke="rgb(20.050049%, 21.966553%, 59.739685%)" stroke-opacity="1" stroke-miterlimit="10" d="M 2310.331155 671.705901 L 2310.331155 671.705901 " transform="matrix(0.0998538, 0, 0, -0.0998538, 0.000000000000003664, 183.685658)"/>
<path fill="none" stroke-width="1.65476" stroke-linecap="round" stroke-linejoin="round" stroke="rgb(13.729858%, 12.159729%, 12.548828%)" stroke-opacity="1" stroke-miterlimit="10" d="M 2692.647968 821.769065 L 2508.042111 578.953096 M 2692.647968 821.769065 L 2806.760129 671.705901 M 2508.042111 764.458706 L 2692.647968 521.603618 M 2508.042111 764.458706 L 2806.760129 671.705901 M 2508.042111 578.953096 L 2806.760129 671.705901 M 2692.647968 521.603618 L 2806.760129 671.705901 " transform="matrix(0.0998538, 0, 0, -0.0998538, 0.000000000000003664, 183.685658)"/>
<path fill="none" stroke-width="49.6426" stroke-linecap="round" stroke-linejoin="round" stroke="rgb(92.321777%, 13.478088%, 17.372131%)" stroke-opacity="1" stroke-miterlimit="10" d="M 2692.647968 821.769065 L 2692.647968 821.769065 M 2508.042111 764.458706 L 2508.042111 764.458706 " transform="matrix(0.0998538, 0, 0, -0.0998538, 0.000000000000003664, 183.685658)"/>
<path fill="none" stroke-width="49.6426" stroke-linecap="round" stroke-linejoin="round" stroke="rgb(7.423401%, 67.311096%, 29.040527%)" stroke-opacity="1" stroke-miterlimit="10" d="M 2508.042111 578.953096 L 2508.042111 578.953096 M 2692.647968 521.603618 L 2692.647968 521.603618 " transform="matrix(0.0998538, 0, 0, -0.0998538, 0.000000000000003664, 183.685658)"/>
<path fill="none" stroke-width="49.6426" stroke-linecap="round" stroke-linejoin="round" stroke="rgb(20.050049%, 21.966553%, 59.739685%)" stroke-opacity="1" stroke-miterlimit="10" d="M 2806.760129 671.705901 L 2806.760129 671.705901 " transform="matrix(0.0998538, 0, 0, -0.0998538, 0.000000000000003664, 183.685658)"/>
<path fill="none" stroke-width="1.65478" stroke-linecap="round" stroke-linejoin="round" stroke="rgb(13.729858%, 12.159729%, 12.548828%)" stroke-opacity="1" stroke-miterlimit="10" d="M 3189.116062 821.769065 L 3004.471085 578.953096 M 3189.116062 821.769065 L 3189.116062 521.603618 M 3189.116062 821.769065 L 3303.189103 671.705901 M 3004.471085 764.458706 L 3303.189103 671.705901 M 3004.471085 578.953096 L 3189.116062 521.603618 M 3004.471085 578.953096 L 3303.189103 671.705901 " transform="matrix(0.0998538, 0, 0, -0.0998538, 0.000000000000003664, 183.685658)"/>
<path fill="none" stroke-width="49.6431" stroke-linecap="round" stroke-linejoin="round" stroke="rgb(92.321777%, 13.478088%, 17.372131%)" stroke-opacity="1" stroke-miterlimit="10" d="M 3189.116062 821.769065 L 3189.116062 821.769065 M 3004.471085 764.458706 L 3004.471085 764.458706 " transform="matrix(0.0998538, 0, 0, -0.0998538, 0.000000000000003664, 183.685658)"/>
<path fill="none" stroke-width="49.6431" stroke-linecap="round" stroke-linejoin="round" stroke="rgb(7.423401%, 67.311096%, 29.040527%)" stroke-opacity="1" stroke-miterlimit="10" d="M 3004.471085 578.953096 L 3004.471085 578.953096 " transform="matrix(0.0998538, 0, 0, -0.0998538, 0.000000000000003664, 183.685658)"/>
<path fill="none" stroke-width="49.6431" stroke-linecap="round" stroke-linejoin="round" stroke="rgb(20.050049%, 21.966553%, 59.739685%)" stroke-opacity="1" stroke-miterlimit="10" d="M 3189.116062 521.603618 L 3189.116062 521.603618 M 3303.189103 671.705901 L 3303.189103 671.705901 " transform="matrix(0.0998538, 0, 0, -0.0998538, 0.000000000000003664, 183.685658)"/>
<path fill="none" stroke-width="1.65476" stroke-linecap="round" stroke-linejoin="round" stroke="rgb(13.729858%, 12.159729%, 12.548828%)" stroke-opacity="1" stroke-miterlimit="10" d="M 3685.505917 821.769065 L 3500.900059 764.458706 M 3685.505917 821.769065 L 3799.618077 671.705901 M 3500.900059 764.458706 L 3500.900059 578.953096 M 3500.900059 578.953096 L 3685.505917 521.603618 M 3685.505917 521.603618 L 3799.618077 671.705901 " transform="matrix(0.0998538, 0, 0, -0.0998538, 0.000000000000003664, 183.685658)"/>
<path fill="none" stroke-width="49.6426" stroke-linecap="round" stroke-linejoin="round" stroke="rgb(92.321777%, 13.478088%, 17.372131%)" stroke-opacity="1" stroke-miterlimit="10" d="M 3685.505917 821.769065 L 3685.505917 821.769065 " transform="matrix(0.0998538, 0, 0, -0.0998538, 0.000000000000003664, 183.685658)"/>
<path fill="none" stroke-width="49.6426" stroke-linecap="round" stroke-linejoin="round" stroke="rgb(7.423401%, 67.311096%, 29.040527%)" stroke-opacity="1" stroke-miterlimit="10" d="M 3500.900059 764.458706 L 3500.900059 764.458706 " transform="matrix(0.0998538, 0, 0, -0.0998538, 0.000000000000003664, 183.685658)"/>
<path fill="none" stroke-width="49.6426" stroke-linecap="round" stroke-linejoin="round" stroke="rgb(92.321777%, 13.478088%, 17.372131%)" stroke-opacity="1" stroke-miterlimit="10" d="M 3500.900059 578.953096 L 3500.900059 578.953096 " transform="matrix(0.0998538, 0, 0, -0.0998538, 0.000000000000003664, 183.685658)"/>
<path fill="none" stroke-width="49.6426" stroke-linecap="round" stroke-linejoin="round" stroke="rgb(7.423401%, 67.311096%, 29.040527%)" stroke-opacity="1" stroke-miterlimit="10" d="M 3685.505917 521.603618 L 3685.505917 521.603618 " transform="matrix(0.0998538, 0, 0, -0.0998538, 0.000000000000003664, 183.685658)"/>
<g clip-path="url(#clip-4)">
<path fill="none" stroke-width="49.6426" stroke-linecap="round" stroke-linejoin="round" stroke="rgb(20.050049%, 21.966553%, 59.739685%)" stroke-opacity="1" stroke-miterlimit="10" d="M 3799.618077 671.705901 L 3799.618077 671.705901 " transform="matrix(0.0998538, 0, 0, -0.0998538, 0.000000000000003664, 183.685658)"/>
</g>
<path fill="none" stroke-width="1.65476" stroke-linecap="round" stroke-linejoin="round" stroke="rgb(13.729858%, 12.159729%, 12.548828%)" stroke-opacity="1" stroke-miterlimit="10" d="M 175.256249 1318.550116 L 175.256249 1017.680515 M 175.256249 1318.550116 L 325.67149 1168.134875 M 24.801889 1168.134875 L 325.67149 1168.134875 M 175.256249 1017.680515 L 325.67149 1168.134875 " transform="matrix(0.0998538, 0, 0, -0.0998538, 0.000000000000003664, 183.685658)"/>
<path fill="none" stroke-width="49.6428" stroke-linecap="round" stroke-linejoin="round" stroke="rgb(92.321777%, 13.478088%, 17.372131%)" stroke-opacity="1" stroke-miterlimit="10" d="M 175.256249 1318.550116 L 175.256249 1318.550116 M 24.801889 1168.134875 L 24.801889 1168.134875 " transform="matrix(0.0998538, 0, 0, -0.0998538, 0.000000000000003664, 183.685658)"/>
<path fill="none" stroke-width="49.6428" stroke-linecap="round" stroke-linejoin="round" stroke="rgb(7.423401%, 67.311096%, 29.040527%)" stroke-opacity="1" stroke-miterlimit="10" d="M 175.256249 1017.680515 L 175.256249 1017.680515 " transform="matrix(0.0998538, 0, 0, -0.0998538, 0.000000000000003664, 183.685658)"/>
<path fill="none" stroke-width="49.6428" stroke-linecap="round" stroke-linejoin="round" stroke="rgb(20.050049%, 21.966553%, 59.739685%)" stroke-opacity="1" stroke-miterlimit="10" d="M 325.67149 1168.134875 L 325.67149 1168.134875 " transform="matrix(0.0998538, 0, 0, -0.0998538, 0.000000000000003664, 183.685658)"/>
<path fill="none" stroke-width="1.65478" stroke-linecap="round" stroke-linejoin="round" stroke="rgb(13.729858%, 12.159729%, 12.548828%)" stroke-opacity="1" stroke-miterlimit="10" d="M 671.685223 1318.550116 L 671.685223 1017.680515 M 671.685223 1318.550116 L 822.139584 1168.134875 M 521.230863 1168.134875 L 671.685223 1017.680515 M 521.230863 1168.134875 L 822.139584 1168.134875 M 671.685223 1017.680515 L 822.139584 1168.134875 " transform="matrix(0.0998538, 0, 0, -0.0998538, 0.000000000000003664, 183.685658)"/>
<path fill="none" stroke-width="49.6431" stroke-linecap="round" stroke-linejoin="round" stroke="rgb(92.321777%, 13.478088%, 17.372131%)" stroke-opacity="1" stroke-miterlimit="10" d="M 671.685223 1318.550116 L 671.685223 1318.550116 M 521.230863 1168.134875 L 521.230863 1168.134875 " transform="matrix(0.0998538, 0, 0, -0.0998538, 0.000000000000003664, 183.685658)"/>
<path fill="none" stroke-width="49.6431" stroke-linecap="round" stroke-linejoin="round" stroke="rgb(7.423401%, 67.311096%, 29.040527%)" stroke-opacity="1" stroke-miterlimit="10" d="M 671.685223 1017.680515 L 671.685223 1017.680515 " transform="matrix(0.0998538, 0, 0, -0.0998538, 0.000000000000003664, 183.685658)"/>
<path fill="none" stroke-width="49.6431" stroke-linecap="round" stroke-linejoin="round" stroke="rgb(20.050049%, 21.966553%, 59.739685%)" stroke-opacity="1" stroke-miterlimit="10" d="M 822.139584 1168.134875 L 822.139584 1168.134875 " transform="matrix(0.0998538, 0, 0, -0.0998538, 0.000000000000003664, 183.685658)"/>
<path fill="none" stroke-width="1.65476" stroke-linecap="round" stroke-linejoin="round" stroke="rgb(13.729858%, 12.159729%, 12.548828%)" stroke-opacity="1" stroke-miterlimit="10" d="M 28.087944 1813.922858 L 28.087944 1515.165721 M 28.087944 1813.922858 L 322.424555 1664.563849 M 28.087944 1515.165721 L 322.424555 1664.563849 " transform="matrix(0.0998538, 0, 0, -0.0998538, 0.000000000000003664, 183.685658)"/>
<g clip-path="url(#clip-5)">
<path fill="none" stroke-width="49.6428" stroke-linecap="round" stroke-linejoin="round" stroke="rgb(92.321777%, 13.478088%, 17.372131%)" stroke-opacity="1" stroke-miterlimit="10" d="M 28.087944 1813.922858 L 28.087944 1813.922858 " transform="matrix(0.0998538, 0, 0, -0.0998538, 0.000000000000003664, 183.685658)"/>
</g>
<path fill="none" stroke-width="49.6428" stroke-linecap="round" stroke-linejoin="round" stroke="rgb(7.423401%, 67.311096%, 29.040527%)" stroke-opacity="1" stroke-miterlimit="10" d="M 28.087944 1515.165721 L 28.087944 1515.165721 " transform="matrix(0.0998538, 0, 0, -0.0998538, 0.000000000000003664, 183.685658)"/>
<path fill="none" stroke-width="49.6428" stroke-linecap="round" stroke-linejoin="round" stroke="rgb(20.050049%, 21.966553%, 59.739685%)" stroke-opacity="1" stroke-miterlimit="10" d="M 322.424555 1664.563849 L 322.424555 1664.563849 " transform="matrix(0.0998538, 0, 0, -0.0998538, 0.000000000000003664, 183.685658)"/>
</svg>
