<?xml version="1.0" encoding="UTF-8"?>
<svg xmlns="http://www.w3.org/2000/svg" xmlns:xlink="http://www.w3.org/1999/xlink" width="247.54" height="132.63" viewBox="0 0 247.54 132.63">
<defs>
<clipPath id="clip-0">
<path clip-rule="nonzero" d="M 0.113281 0 L 64 0 L 64 116 L 0.113281 116 Z M 0.113281 0 "/>
</clipPath>
<clipPath id="clip-1">
<path clip-rule="nonzero" d="M 144 43 L 246.964844 43 L 246.964844 132.261719 L 144 132.261719 Z M 144 43 "/>
</clipPath>
</defs>
<path fill-rule="nonzero" fill="rgb(88.993835%, 72.860718%, 48.747253%)" fill-opacity="1" d="M 13.273438 57.582031 C 17.859375 53.761719 22.824219 48.03125 23.972656 46.886719 C 25.117188 45.742188 26.261719 40.773438 28.171875 40.011719 C 30.082031 39.246094 39.011719 27.78125 40.117188 24.847656 C 41.714844 20.625 43.710938 14.824219 42.082031 14.390625 C 38.558594 13.464844 33.140625 21.675781 31.230469 22.820312 C 29.320312 23.96875 26.644531 31.226562 23.589844 37.71875 C 20.53125 44.214844 11.042969 51.246094 11.363281 53.378906 C 11.6875 55.515625 13.273438 57.582031 13.273438 57.582031 "/>
<path fill-rule="nonzero" fill="rgb(60.874939%, 41.86554%, 32.574463%)" fill-opacity="1" d="M 32.570312 11.636719 L 197.867188 11.636719 L 197.867188 80.839844 L 32.570312 80.839844 Z M 37.976562 76.648438 L 192.460938 76.648438 L 192.460938 15.828125 L 37.976562 15.828125 L 37.976562 76.648438 "/>
<path fill="none" stroke-width="1.062" stroke-linecap="butt" stroke-linejoin="miter" stroke="rgb(69.334412%, 53.341675%, 44.200134%)" stroke-opacity="1" stroke-miterlimit="4" d="M 325.458913 1209.608181 L 1983.038976 1209.608181 L 1983.038976 515.646361 L 325.458913 515.646361 Z M 379.672232 557.677351 L 1928.825657 557.677351 L 1928.825657 1167.57719 L 379.672232 1167.57719 Z M 379.672232 557.677351 " transform="matrix(0.0997218, 0, 0, -0.0997218, 0.114962, 132.261029)"/>
<path fill="none" stroke-width="19.125" stroke-linecap="butt" stroke-linejoin="miter" stroke="rgb(95.445251%, 85.206604%, 28.048706%)" stroke-opacity="1" stroke-miterlimit="4" d="M 465.731959 1167.57719 L 465.731959 557.677351 " transform="matrix(0.0997218, 0, 0, -0.0997218, 0.114962, 132.261029)"/>
<path fill="none" stroke-width="19.125" stroke-linecap="butt" stroke-linejoin="miter" stroke="rgb(95.445251%, 85.206604%, 28.048706%)" stroke-opacity="1" stroke-miterlimit="4" d="M 637.890584 1167.57719 L 637.890584 557.677351 " transform="matrix(0.0997218, 0, 0, -0.0997218, 0.114962, 132.261029)"/>
<path fill="none" stroke-width="19.125" stroke-linecap="butt" stroke-linejoin="miter" stroke="rgb(95.445251%, 85.206604%, 28.048706%)" stroke-opacity="1" stroke-miterlimit="4" d="M 810.010037 1167.57719 L 810.010037 557.677351 " transform="matrix(0.0997218, 0, 0, -0.0997218, 0.114962, 132.261029)"/>
<path fill="none" stroke-width="19.125" stroke-linecap="butt" stroke-linejoin="miter" stroke="rgb(95.445251%, 85.206604%, 28.048706%)" stroke-opacity="1" stroke-miterlimit="4" d="M 982.129491 1167.57719 L 982.129491 557.677351 " transform="matrix(0.0997218, 0, 0, -0.0997218, 0.114962, 132.261029)"/>
<path fill="none" stroke-width="19.125" stroke-linecap="butt" stroke-linejoin="miter" stroke="rgb(95.445251%, 85.206604%, 28.048706%)" stroke-opacity="1" stroke-miterlimit="4" d="M 1154.248944 1167.57719 L 1154.248944 557.677351 " transform="matrix(0.0997218, 0, 0, -0.0997218, 0.114962, 132.261029)"/>
<path fill="none" stroke-width="19.125" stroke-linecap="butt" stroke-linejoin="miter" stroke="rgb(95.445251%, 85.206604%, 28.048706%)" stroke-opacity="1" stroke-miterlimit="4" d="M 1326.368398 1167.57719 L 1326.368398 557.677351 " transform="matrix(0.0997218, 0, 0, -0.0997218, 0.114962, 132.261029)"/>
<path fill="none" stroke-width="19.125" stroke-linecap="butt" stroke-linejoin="miter" stroke="rgb(95.445251%, 85.206604%, 28.048706%)" stroke-opacity="1" stroke-miterlimit="4" d="M 1498.487852 1167.57719 L 1498.487852 557.677351 " transform="matrix(0.0997218, 0, 0, -0.0997218, 0.114962, 132.261029)"/>
<path fill="none" stroke-width="19.125" stroke-linecap="butt" stroke-linejoin="miter" stroke="rgb(95.445251%, 85.206604%, 28.048706%)" stroke-opacity="1" stroke-miterlimit="4" d="M 1670.646477 1167.57719 L 1670.646477 557.677351 " transform="matrix(0.0997218, 0, 0, -0.0997218, 0.114962, 132.261029)"/>
<path fill="none" stroke-width="19.125" stroke-linecap="butt" stroke-linejoin="miter" stroke="rgb(95.445251%, 85.206604%, 28.048706%)" stroke-opacity="1" stroke-miterlimit="4" d="M 1842.76593 1167.57719 L 1842.76593 557.677351 " transform="matrix(0.0997218, 0, 0, -0.0997218, 0.114962, 132.261029)"/>
<path fill-rule="nonzero" fill="rgb(60.874939%, 41.86554%, 32.574463%)" fill-opacity="1" d="M 192.09375 33.628906 L 38.246094 33.628906 L 38.246094 29.179688 L 192.09375 29.179688 L 192.09375 33.628906 "/>
<path fill-rule="nonzero" fill="rgb(84.376526%, 72.117615%, 51.99585%)" fill-opacity="1" d="M 40.160156 72.039062 L 52.875 72.039062 L 48.105469 67.746094 L 44.925781 67.746094 L 40.160156 72.039062 "/>
<path fill="none" stroke-width="1.06" stroke-linecap="butt" stroke-linejoin="miter" stroke="rgb(80.819702%, 66.22467%, 42.581177%)" stroke-opacity="1" stroke-miterlimit="1" d="M 401.569086 603.89969 L 529.072231 603.89969 L 481.243862 646.949139 L 449.358283 646.949139 Z M 401.569086 603.89969 " transform="matrix(0.0997218, 0, 0, -0.0997218, 0.114962, 132.261029)"/>
<path fill-rule="nonzero" fill="rgb(84.376526%, 72.117615%, 51.99585%)" fill-opacity="1" d="M 40.160156 72.039062 L 52.875 72.039062 L 48.105469 76.332031 L 44.925781 76.332031 L 40.160156 72.039062 "/>
<path fill="none" stroke-width="1.06" stroke-linecap="butt" stroke-linejoin="miter" stroke="rgb(80.819702%, 66.22467%, 42.581177%)" stroke-opacity="1" stroke-miterlimit="1" d="M 401.569086 603.89969 L 529.072231 603.89969 L 481.243862 560.850241 L 449.358283 560.850241 Z M 401.569086 603.89969 " transform="matrix(0.0997218, 0, 0, -0.0997218, 0.114962, 132.261029)"/>
<path fill-rule="nonzero" fill="rgb(84.376526%, 72.117615%, 51.99585%)" fill-opacity="1" d="M 40.160156 63.296875 L 52.875 63.296875 L 48.105469 59.003906 L 44.925781 59.003906 L 40.160156 63.296875 "/>
<path fill="none" stroke-width="1.062" stroke-linecap="butt" stroke-linejoin="miter" stroke="rgb(80.819702%, 66.22467%, 42.581177%)" stroke-opacity="1" stroke-miterlimit="1" d="M 401.569086 691.565447 L 529.072231 691.565447 L 481.243862 734.614896 L 449.358283 734.614896 Z M 401.569086 691.565447 " transform="matrix(0.0997218, 0, 0, -0.0997218, 0.114962, 132.261029)"/>
<path fill-rule="nonzero" fill="rgb(84.376526%, 72.117615%, 51.99585%)" fill-opacity="1" d="M 40.160156 63.296875 L 52.875 63.296875 L 48.105469 67.59375 L 44.925781 67.59375 L 40.160156 63.296875 "/>
<path fill="none" stroke-width="1.062" stroke-linecap="butt" stroke-linejoin="miter" stroke="rgb(80.819702%, 66.22467%, 42.581177%)" stroke-opacity="1" stroke-miterlimit="1" d="M 401.569086 691.565447 L 529.072231 691.565447 L 481.243862 648.476827 L 449.358283 648.476827 Z M 401.569086 691.565447 " transform="matrix(0.0997218, 0, 0, -0.0997218, 0.114962, 132.261029)"/>
<path fill-rule="nonzero" fill="rgb(84.376526%, 72.117615%, 51.99585%)" fill-opacity="1" d="M 40.160156 54.558594 L 52.875 54.558594 L 48.105469 50.261719 L 44.925781 50.261719 L 40.160156 54.558594 "/>
<path fill="none" stroke-width="1.062" stroke-linecap="butt" stroke-linejoin="miter" stroke="rgb(80.819702%, 66.22467%, 42.581177%)" stroke-opacity="1" stroke-miterlimit="1" d="M 401.569086 779.192033 L 529.072231 779.192033 L 481.243862 822.280653 L 449.358283 822.280653 Z M 401.569086 779.192033 " transform="matrix(0.0997218, 0, 0, -0.0997218, 0.114962, 132.261029)"/>
<path fill-rule="nonzero" fill="rgb(84.376526%, 72.117615%, 51.99585%)" fill-opacity="1" d="M 40.160156 54.558594 L 52.875 54.558594 L 48.105469 58.851562 L 44.925781 58.851562 L 40.160156 54.558594 "/>
<path fill="none" stroke-width="1.062" stroke-linecap="butt" stroke-linejoin="miter" stroke="rgb(80.819702%, 66.22467%, 42.581177%)" stroke-opacity="1" stroke-miterlimit="1" d="M 401.569086 779.192033 L 529.072231 779.192033 L 481.243862 736.142584 L 449.358283 736.142584 Z M 401.569086 779.192033 " transform="matrix(0.0997218, 0, 0, -0.0997218, 0.114962, 132.261029)"/>
<path fill-rule="nonzero" fill="rgb(84.376526%, 72.117615%, 51.99585%)" fill-opacity="1" d="M 40.160156 45.816406 L 52.875 45.816406 L 48.105469 41.519531 L 44.925781 41.519531 L 40.160156 45.816406 "/>
<path fill="none" stroke-width="1.062" stroke-linecap="butt" stroke-linejoin="miter" stroke="rgb(80.819702%, 66.22467%, 42.581177%)" stroke-opacity="1" stroke-miterlimit="1" d="M 401.569086 866.85779 L 529.072231 866.85779 L 481.243862 909.946411 L 449.358283 909.946411 Z M 401.569086 866.85779 " transform="matrix(0.0997218, 0, 0, -0.0997218, 0.114962, 132.261029)"/>
<path fill-rule="nonzero" fill="rgb(84.376526%, 72.117615%, 51.99585%)" fill-opacity="1" d="M 40.160156 45.816406 L 52.875 45.816406 L 48.105469 50.109375 L 44.925781 50.109375 L 40.160156 45.816406 "/>
<path fill="none" stroke-width="1.062" stroke-linecap="butt" stroke-linejoin="miter" stroke="rgb(80.819702%, 66.22467%, 42.581177%)" stroke-opacity="1" stroke-miterlimit="1" d="M 401.569086 866.85779 L 529.072231 866.85779 L 481.243862 823.808341 L 449.358283 823.808341 Z M 401.569086 866.85779 " transform="matrix(0.0997218, 0, 0, -0.0997218, 0.114962, 132.261029)"/>
<path fill-rule="nonzero" fill="rgb(84.376526%, 72.117615%, 51.99585%)" fill-opacity="1" d="M 40.160156 20.425781 L 52.875 20.425781 L 48.105469 16.132812 L 44.925781 16.132812 L 40.160156 20.425781 "/>
<path fill="none" stroke-width="1.06" stroke-linecap="butt" stroke-linejoin="miter" stroke="rgb(80.819702%, 66.22467%, 42.581177%)" stroke-opacity="1" stroke-miterlimit="1" d="M 401.569086 1121.472366 L 529.072231 1121.472366 L 481.243862 1164.521815 L 449.358283 1164.521815 Z M 401.569086 1121.472366 " transform="matrix(0.0997218, 0, 0, -0.0997218, 0.114962, 132.261029)"/>
<path fill-rule="nonzero" fill="rgb(84.376526%, 72.117615%, 51.99585%)" fill-opacity="1" d="M 40.160156 20.425781 L 52.875 20.425781 L 48.105469 24.71875 L 44.925781 24.71875 L 40.160156 20.425781 "/>
<path fill="none" stroke-width="1.06" stroke-linecap="butt" stroke-linejoin="miter" stroke="rgb(80.819702%, 66.22467%, 42.581177%)" stroke-opacity="1" stroke-miterlimit="1" d="M 401.569086 1121.472366 L 529.072231 1121.472366 L 481.243862 1078.422917 L 449.358283 1078.422917 Z M 401.569086 1121.472366 " transform="matrix(0.0997218, 0, 0, -0.0997218, 0.114962, 132.261029)"/>
<path fill-rule="nonzero" fill="rgb(84.376526%, 72.117615%, 51.99585%)" fill-opacity="1" d="M 57.324219 72.039062 L 70.039062 72.039062 L 65.269531 67.746094 L 62.089844 67.746094 L 57.324219 72.039062 "/>
<path fill="none" stroke-width="1.062" stroke-linecap="butt" stroke-linejoin="miter" stroke="rgb(80.819702%, 66.22467%, 42.581177%)" stroke-opacity="1" stroke-miterlimit="1" d="M 573.688539 603.89969 L 701.191685 603.89969 L 653.363316 646.949139 L 621.477736 646.949139 Z M 573.688539 603.89969 " transform="matrix(0.0997218, 0, 0, -0.0997218, 0.114962, 132.261029)"/>
<path fill-rule="nonzero" fill="rgb(84.376526%, 72.117615%, 51.99585%)" fill-opacity="1" d="M 57.324219 72.039062 L 70.039062 72.039062 L 65.269531 76.332031 L 62.089844 76.332031 L 57.324219 72.039062 "/>
<path fill="none" stroke-width="1.062" stroke-linecap="butt" stroke-linejoin="miter" stroke="rgb(80.819702%, 66.22467%, 42.581177%)" stroke-opacity="1" stroke-miterlimit="1" d="M 573.688539 603.89969 L 701.191685 603.89969 L 653.363316 560.850241 L 621.477736 560.850241 Z M 573.688539 603.89969 " transform="matrix(0.0997218, 0, 0, -0.0997218, 0.114962, 132.261029)"/>
<path fill-rule="nonzero" fill="rgb(84.376526%, 72.117615%, 51.99585%)" fill-opacity="1" d="M 57.324219 63.296875 L 70.039062 63.296875 L 65.269531 59.003906 L 62.089844 59.003906 L 57.324219 63.296875 "/>
<path fill="none" stroke-width="1.062" stroke-linecap="butt" stroke-linejoin="miter" stroke="rgb(80.819702%, 66.22467%, 42.581177%)" stroke-opacity="1" stroke-miterlimit="1" d="M 573.688539 691.565447 L 701.191685 691.565447 L 653.363316 734.614896 L 621.477736 734.614896 Z M 573.688539 691.565447 " transform="matrix(0.0997218, 0, 0, -0.0997218, 0.114962, 132.261029)"/>
<path fill-rule="nonzero" fill="rgb(84.376526%, 72.117615%, 51.99585%)" fill-opacity="1" d="M 57.324219 63.296875 L 70.039062 63.296875 L 65.269531 67.59375 L 62.089844 67.59375 L 57.324219 63.296875 "/>
<path fill="none" stroke-width="1.062" stroke-linecap="butt" stroke-linejoin="miter" stroke="rgb(80.819702%, 66.22467%, 42.581177%)" stroke-opacity="1" stroke-miterlimit="1" d="M 573.688539 691.565447 L 701.191685 691.565447 L 653.363316 648.476827 L 621.477736 648.476827 Z M 573.688539 691.565447 " transform="matrix(0.0997218, 0, 0, -0.0997218, 0.114962, 132.261029)"/>
<path fill-rule="nonzero" fill="rgb(84.376526%, 72.117615%, 51.99585%)" fill-opacity="1" d="M 57.324219 54.558594 L 70.039062 54.558594 L 65.269531 50.261719 L 62.089844 50.261719 L 57.324219 54.558594 "/>
<path fill="none" stroke-width="1.062" stroke-linecap="butt" stroke-linejoin="miter" stroke="rgb(80.819702%, 66.22467%, 42.581177%)" stroke-opacity="1" stroke-miterlimit="1" d="M 573.688539 779.192033 L 701.191685 779.192033 L 653.363316 822.280653 L 621.477736 822.280653 Z M 573.688539 779.192033 " transform="matrix(0.0997218, 0, 0, -0.0997218, 0.114962, 132.261029)"/>
<path fill-rule="nonzero" fill="rgb(84.376526%, 72.117615%, 51.99585%)" fill-opacity="1" d="M 57.324219 54.558594 L 70.039062 54.558594 L 65.269531 58.851562 L 62.089844 58.851562 L 57.324219 54.558594 "/>
<path fill="none" stroke-width="1.062" stroke-linecap="butt" stroke-linejoin="miter" stroke="rgb(80.819702%, 66.22467%, 42.581177%)" stroke-opacity="1" stroke-miterlimit="1" d="M 573.688539 779.192033 L 701.191685 779.192033 L 653.363316 736.142584 L 621.477736 736.142584 Z M 573.688539 779.192033 " transform="matrix(0.0997218, 0, 0, -0.0997218, 0.114962, 132.261029)"/>
<path fill-rule="nonzero" fill="rgb(84.376526%, 72.117615%, 51.99585%)" fill-opacity="1" d="M 57.324219 45.816406 L 70.039062 45.816406 L 65.269531 41.519531 L 62.089844 41.519531 L 57.324219 45.816406 "/>
<path fill="none" stroke-width="1.062" stroke-linecap="butt" stroke-linejoin="miter" stroke="rgb(80.819702%, 66.22467%, 42.581177%)" stroke-opacity="1" stroke-miterlimit="1" d="M 573.688539 866.85779 L 701.191685 866.85779 L 653.363316 909.946411 L 621.477736 909.946411 Z M 573.688539 866.85779 " transform="matrix(0.0997218, 0, 0, -0.0997218, 0.114962, 132.261029)"/>
<path fill-rule="nonzero" fill="rgb(84.376526%, 72.117615%, 51.99585%)" fill-opacity="1" d="M 57.324219 45.816406 L 70.039062 45.816406 L 65.269531 50.109375 L 62.089844 50.109375 L 57.324219 45.816406 "/>
<path fill="none" stroke-width="1.062" stroke-linecap="butt" stroke-linejoin="miter" stroke="rgb(80.819702%, 66.22467%, 42.581177%)" stroke-opacity="1" stroke-miterlimit="1" d="M 573.688539 866.85779 L 701.191685 866.85779 L 653.363316 823.808341 L 621.477736 823.808341 Z M 573.688539 866.85779 " transform="matrix(0.0997218, 0, 0, -0.0997218, 0.114962, 132.261029)"/>
<path fill-rule="nonzero" fill="rgb(84.376526%, 72.117615%, 51.99585%)" fill-opacity="1" d="M 57.324219 20.425781 L 70.039062 20.425781 L 65.269531 16.132812 L 62.089844 16.132812 L 57.324219 20.425781 "/>
<path fill="none" stroke-width="1.062" stroke-linecap="butt" stroke-linejoin="miter" stroke="rgb(80.819702%, 66.22467%, 42.581177%)" stroke-opacity="1" stroke-miterlimit="1" d="M 573.688539 1121.472366 L 701.191685 1121.472366 L 653.363316 1164.521815 L 621.477736 1164.521815 Z M 573.688539 1121.472366 " transform="matrix(0.0997218, 0, 0, -0.0997218, 0.114962, 132.261029)"/>
<path fill-rule="nonzero" fill="rgb(84.376526%, 72.117615%, 51.99585%)" fill-opacity="1" d="M 57.324219 20.425781 L 70.039062 20.425781 L 65.269531 24.71875 L 62.089844 24.71875 L 57.324219 20.425781 "/>
<path fill="none" stroke-width="1.062" stroke-linecap="butt" stroke-linejoin="miter" stroke="rgb(80.819702%, 66.22467%, 42.581177%)" stroke-opacity="1" stroke-miterlimit="1" d="M 573.688539 1121.472366 L 701.191685 1121.472366 L 653.363316 1078.422917 L 621.477736 1078.422917 Z M 573.688539 1121.472366 " transform="matrix(0.0997218, 0, 0, -0.0997218, 0.114962, 132.261029)"/>
<path fill-rule="nonzero" fill="rgb(84.376526%, 72.117615%, 51.99585%)" fill-opacity="1" d="M 74.488281 72.039062 L 87.203125 72.039062 L 82.433594 67.746094 L 79.257812 67.746094 L 74.488281 72.039062 "/>
<path fill="none" stroke-width="1.062" stroke-linecap="butt" stroke-linejoin="miter" stroke="rgb(80.819702%, 66.22467%, 42.581177%)" stroke-opacity="1" stroke-miterlimit="1" d="M 745.807993 603.89969 L 873.311138 603.89969 L 825.482769 646.949139 L 793.636361 646.949139 Z M 745.807993 603.89969 " transform="matrix(0.0997218, 0, 0, -0.0997218, 0.114962, 132.261029)"/>
<path fill-rule="nonzero" fill="rgb(84.376526%, 72.117615%, 51.99585%)" fill-opacity="1" d="M 74.488281 72.039062 L 87.203125 72.039062 L 82.433594 76.332031 L 79.257812 76.332031 L 74.488281 72.039062 "/>
<path fill="none" stroke-width="1.062" stroke-linecap="butt" stroke-linejoin="miter" stroke="rgb(80.819702%, 66.22467%, 42.581177%)" stroke-opacity="1" stroke-miterlimit="1" d="M 745.807993 603.89969 L 873.311138 603.89969 L 825.482769 560.850241 L 793.636361 560.850241 Z M 745.807993 603.89969 " transform="matrix(0.0997218, 0, 0, -0.0997218, 0.114962, 132.261029)"/>
<path fill-rule="nonzero" fill="rgb(84.376526%, 72.117615%, 51.99585%)" fill-opacity="1" d="M 74.488281 63.296875 L 87.203125 63.296875 L 82.433594 59.003906 L 79.257812 59.003906 L 74.488281 63.296875 "/>
<path fill="none" stroke-width="1.062" stroke-linecap="butt" stroke-linejoin="miter" stroke="rgb(80.819702%, 66.22467%, 42.581177%)" stroke-opacity="1" stroke-miterlimit="1" d="M 745.807993 691.565447 L 873.311138 691.565447 L 825.482769 734.614896 L 793.636361 734.614896 Z M 745.807993 691.565447 " transform="matrix(0.0997218, 0, 0, -0.0997218, 0.114962, 132.261029)"/>
<path fill-rule="nonzero" fill="rgb(84.376526%, 72.117615%, 51.99585%)" fill-opacity="1" d="M 74.488281 63.296875 L 87.203125 63.296875 L 82.433594 67.59375 L 79.257812 67.59375 L 74.488281 63.296875 "/>
<path fill="none" stroke-width="1.062" stroke-linecap="butt" stroke-linejoin="miter" stroke="rgb(80.819702%, 66.22467%, 42.581177%)" stroke-opacity="1" stroke-miterlimit="1" d="M 745.807993 691.565447 L 873.311138 691.565447 L 825.482769 648.476827 L 793.636361 648.476827 Z M 745.807993 691.565447 " transform="matrix(0.0997218, 0, 0, -0.0997218, 0.114962, 132.261029)"/>
<path fill-rule="nonzero" fill="rgb(84.376526%, 72.117615%, 51.99585%)" fill-opacity="1" d="M 74.488281 54.558594 L 87.203125 54.558594 L 82.433594 50.261719 L 79.257812 50.261719 L 74.488281 54.558594 "/>
<path fill="none" stroke-width="1.062" stroke-linecap="butt" stroke-linejoin="miter" stroke="rgb(80.819702%, 66.22467%, 42.581177%)" stroke-opacity="1" stroke-miterlimit="1" d="M 745.807993 779.192033 L 873.311138 779.192033 L 825.482769 822.280653 L 793.636361 822.280653 Z M 745.807993 779.192033 " transform="matrix(0.0997218, 0, 0, -0.0997218, 0.114962, 132.261029)"/>
<path fill-rule="nonzero" fill="rgb(84.376526%, 72.117615%, 51.99585%)" fill-opacity="1" d="M 74.488281 54.558594 L 87.203125 54.558594 L 82.433594 58.851562 L 79.257812 58.851562 L 74.488281 54.558594 "/>
<path fill="none" stroke-width="1.062" stroke-linecap="butt" stroke-linejoin="miter" stroke="rgb(80.819702%, 66.22467%, 42.581177%)" stroke-opacity="1" stroke-miterlimit="1" d="M 745.807993 779.192033 L 873.311138 779.192033 L 825.482769 736.142584 L 793.636361 736.142584 Z M 745.807993 779.192033 " transform="matrix(0.0997218, 0, 0, -0.0997218, 0.114962, 132.261029)"/>
<path fill-rule="nonzero" fill="rgb(84.376526%, 72.117615%, 51.99585%)" fill-opacity="1" d="M 74.488281 45.816406 L 87.203125 45.816406 L 82.433594 41.519531 L 79.257812 41.519531 L 74.488281 45.816406 "/>
<path fill="none" stroke-width="1.062" stroke-linecap="butt" stroke-linejoin="miter" stroke="rgb(80.819702%, 66.22467%, 42.581177%)" stroke-opacity="1" stroke-miterlimit="1" d="M 745.807993 866.85779 L 873.311138 866.85779 L 825.482769 909.946411 L 793.636361 909.946411 Z M 745.807993 866.85779 " transform="matrix(0.0997218, 0, 0, -0.0997218, 0.114962, 132.261029)"/>
<path fill-rule="nonzero" fill="rgb(84.376526%, 72.117615%, 51.99585%)" fill-opacity="1" d="M 74.488281 45.816406 L 87.203125 45.816406 L 82.433594 50.109375 L 79.257812 50.109375 L 74.488281 45.816406 "/>
<path fill="none" stroke-width="1.062" stroke-linecap="butt" stroke-linejoin="miter" stroke="rgb(80.819702%, 66.22467%, 42.581177%)" stroke-opacity="1" stroke-miterlimit="1" d="M 745.807993 866.85779 L 873.311138 866.85779 L 825.482769 823.808341 L 793.636361 823.808341 Z M 745.807993 866.85779 " transform="matrix(0.0997218, 0, 0, -0.0997218, 0.114962, 132.261029)"/>
<path fill-rule="nonzero" fill="rgb(84.376526%, 72.117615%, 51.99585%)" fill-opacity="1" d="M 74.054688 20.425781 L 86.769531 20.425781 L 82.003906 16.132812 L 78.824219 16.132812 L 74.054688 20.425781 "/>
<path fill="none" stroke-width="1.06" stroke-linecap="butt" stroke-linejoin="miter" stroke="rgb(80.819702%, 66.22467%, 42.581177%)" stroke-opacity="1" stroke-miterlimit="1" d="M 741.459959 1121.472366 L 868.963105 1121.472366 L 821.173907 1164.521815 L 789.288328 1164.521815 Z M 741.459959 1121.472366 " transform="matrix(0.0997218, 0, 0, -0.0997218, 0.114962, 132.261029)"/>
<path fill-rule="nonzero" fill="rgb(84.376526%, 72.117615%, 51.99585%)" fill-opacity="1" d="M 74.054688 20.425781 L 86.769531 20.425781 L 82.003906 24.71875 L 78.824219 24.71875 L 74.054688 20.425781 "/>
<path fill="none" stroke-width="1.06" stroke-linecap="butt" stroke-linejoin="miter" stroke="rgb(80.819702%, 66.22467%, 42.581177%)" stroke-opacity="1" stroke-miterlimit="1" d="M 741.459959 1121.472366 L 868.963105 1121.472366 L 821.173907 1078.422917 L 789.288328 1078.422917 Z M 741.459959 1121.472366 " transform="matrix(0.0997218, 0, 0, -0.0997218, 0.114962, 132.261029)"/>
<path fill-rule="nonzero" fill="rgb(84.376526%, 72.117615%, 51.99585%)" fill-opacity="1" d="M 91.652344 72.039062 L 104.367188 72.039062 L 99.597656 67.746094 L 96.421875 67.746094 L 91.652344 72.039062 "/>
<path fill="none" stroke-width="1.062" stroke-linecap="butt" stroke-linejoin="miter" stroke="rgb(80.819702%, 66.22467%, 42.581177%)" stroke-opacity="1" stroke-miterlimit="1" d="M 917.927446 603.89969 L 1045.430592 603.89969 L 997.602223 646.949139 L 965.755815 646.949139 Z M 917.927446 603.89969 " transform="matrix(0.0997218, 0, 0, -0.0997218, 0.114962, 132.261029)"/>
<path fill-rule="nonzero" fill="rgb(84.376526%, 72.117615%, 51.99585%)" fill-opacity="1" d="M 91.652344 72.039062 L 104.367188 72.039062 L 99.597656 76.332031 L 96.421875 76.332031 L 91.652344 72.039062 "/>
<path fill="none" stroke-width="1.062" stroke-linecap="butt" stroke-linejoin="miter" stroke="rgb(80.819702%, 66.22467%, 42.581177%)" stroke-opacity="1" stroke-miterlimit="1" d="M 917.927446 603.89969 L 1045.430592 603.89969 L 997.602223 560.850241 L 965.755815 560.850241 Z M 917.927446 603.89969 " transform="matrix(0.0997218, 0, 0, -0.0997218, 0.114962, 132.261029)"/>
<path fill-rule="nonzero" fill="rgb(84.376526%, 72.117615%, 51.99585%)" fill-opacity="1" d="M 91.652344 63.296875 L 104.367188 63.296875 L 99.597656 59.003906 L 96.421875 59.003906 L 91.652344 63.296875 "/>
<path fill="none" stroke-width="1.062" stroke-linecap="butt" stroke-linejoin="miter" stroke="rgb(80.819702%, 66.22467%, 42.581177%)" stroke-opacity="1" stroke-miterlimit="1" d="M 917.927446 691.565447 L 1045.430592 691.565447 L 997.602223 734.614896 L 965.755815 734.614896 Z M 917.927446 691.565447 " transform="matrix(0.0997218, 0, 0, -0.0997218, 0.114962, 132.261029)"/>
<path fill-rule="nonzero" fill="rgb(84.376526%, 72.117615%, 51.99585%)" fill-opacity="1" d="M 91.652344 63.296875 L 104.367188 63.296875 L 99.597656 67.59375 L 96.421875 67.59375 L 91.652344 63.296875 "/>
<path fill="none" stroke-width="1.062" stroke-linecap="butt" stroke-linejoin="miter" stroke="rgb(80.819702%, 66.22467%, 42.581177%)" stroke-opacity="1" stroke-miterlimit="1" d="M 917.927446 691.565447 L 1045.430592 691.565447 L 997.602223 648.476827 L 965.755815 648.476827 Z M 917.927446 691.565447 " transform="matrix(0.0997218, 0, 0, -0.0997218, 0.114962, 132.261029)"/>
<path fill-rule="nonzero" fill="rgb(84.376526%, 72.117615%, 51.99585%)" fill-opacity="1" d="M 91.652344 54.558594 L 104.367188 54.558594 L 99.597656 50.261719 L 96.421875 50.261719 L 91.652344 54.558594 "/>
<path fill="none" stroke-width="1.062" stroke-linecap="butt" stroke-linejoin="miter" stroke="rgb(80.819702%, 66.22467%, 42.581177%)" stroke-opacity="1" stroke-miterlimit="1" d="M 917.927446 779.192033 L 1045.430592 779.192033 L 997.602223 822.280653 L 965.755815 822.280653 Z M 917.927446 779.192033 " transform="matrix(0.0997218, 0, 0, -0.0997218, 0.114962, 132.261029)"/>
<path fill-rule="nonzero" fill="rgb(84.376526%, 72.117615%, 51.99585%)" fill-opacity="1" d="M 91.652344 54.558594 L 104.367188 54.558594 L 99.597656 58.851562 L 96.421875 58.851562 L 91.652344 54.558594 "/>
<path fill="none" stroke-width="1.062" stroke-linecap="butt" stroke-linejoin="miter" stroke="rgb(80.819702%, 66.22467%, 42.581177%)" stroke-opacity="1" stroke-miterlimit="1" d="M 917.927446 779.192033 L 1045.430592 779.192033 L 997.602223 736.142584 L 965.755815 736.142584 Z M 917.927446 779.192033 " transform="matrix(0.0997218, 0, 0, -0.0997218, 0.114962, 132.261029)"/>
<path fill-rule="nonzero" fill="rgb(84.376526%, 72.117615%, 51.99585%)" fill-opacity="1" d="M 91.652344 45.816406 L 104.367188 45.816406 L 99.597656 41.519531 L 96.421875 41.519531 L 91.652344 45.816406 "/>
<path fill="none" stroke-width="1.062" stroke-linecap="butt" stroke-linejoin="miter" stroke="rgb(80.819702%, 66.22467%, 42.581177%)" stroke-opacity="1" stroke-miterlimit="1" d="M 917.927446 866.85779 L 1045.430592 866.85779 L 997.602223 909.946411 L 965.755815 909.946411 Z M 917.927446 866.85779 " transform="matrix(0.0997218, 0, 0, -0.0997218, 0.114962, 132.261029)"/>
<path fill-rule="nonzero" fill="rgb(84.376526%, 72.117615%, 51.99585%)" fill-opacity="1" d="M 91.652344 45.816406 L 104.367188 45.816406 L 99.597656 50.109375 L 96.421875 50.109375 L 91.652344 45.816406 "/>
<path fill="none" stroke-width="1.062" stroke-linecap="butt" stroke-linejoin="miter" stroke="rgb(80.819702%, 66.22467%, 42.581177%)" stroke-opacity="1" stroke-miterlimit="1" d="M 917.927446 866.85779 L 1045.430592 866.85779 L 997.602223 823.808341 L 965.755815 823.808341 Z M 917.927446 866.85779 " transform="matrix(0.0997218, 0, 0, -0.0997218, 0.114962, 132.261029)"/>
<path fill-rule="nonzero" fill="rgb(84.376526%, 72.117615%, 51.99585%)" fill-opacity="1" d="M 91.601562 20.300781 L 104.316406 20.300781 L 99.546875 16.003906 L 96.367188 16.003906 L 91.601562 20.300781 "/>
<path fill="none" stroke-width="1.062" stroke-linecap="butt" stroke-linejoin="miter" stroke="rgb(80.819702%, 66.22467%, 42.581177%)" stroke-opacity="1" stroke-miterlimit="1" d="M 917.418217 1122.725853 L 1044.921363 1122.725853 L 997.092994 1165.814474 L 965.207414 1165.814474 Z M 917.418217 1122.725853 " transform="matrix(0.0997218, 0, 0, -0.0997218, 0.114962, 132.261029)"/>
<path fill-rule="nonzero" fill="rgb(84.376526%, 72.117615%, 51.99585%)" fill-opacity="1" d="M 91.601562 20.300781 L 104.316406 20.300781 L 99.546875 24.59375 L 96.367188 24.59375 L 91.601562 20.300781 "/>
<path fill="none" stroke-width="1.062" stroke-linecap="butt" stroke-linejoin="miter" stroke="rgb(80.819702%, 66.22467%, 42.581177%)" stroke-opacity="1" stroke-miterlimit="1" d="M 917.418217 1122.725853 L 1044.921363 1122.725853 L 997.092994 1079.676404 L 965.207414 1079.676404 Z M 917.418217 1122.725853 " transform="matrix(0.0997218, 0, 0, -0.0997218, 0.114962, 132.261029)"/>
<path fill-rule="nonzero" fill="rgb(84.376526%, 72.117615%, 51.99585%)" fill-opacity="1" d="M 108.816406 72.039062 L 121.53125 72.039062 L 116.765625 67.746094 L 113.585938 67.746094 L 108.816406 72.039062 "/>
<path fill="none" stroke-width="1.062" stroke-linecap="butt" stroke-linejoin="miter" stroke="rgb(80.819702%, 66.22467%, 42.581177%)" stroke-opacity="1" stroke-miterlimit="1" d="M 1090.0469 603.89969 L 1217.550045 603.89969 L 1169.760848 646.949139 L 1137.875269 646.949139 Z M 1090.0469 603.89969 " transform="matrix(0.0997218, 0, 0, -0.0997218, 0.114962, 132.261029)"/>
<path fill-rule="nonzero" fill="rgb(84.376526%, 72.117615%, 51.99585%)" fill-opacity="1" d="M 108.816406 72.039062 L 121.53125 72.039062 L 116.765625 76.332031 L 113.585938 76.332031 L 108.816406 72.039062 "/>
<path fill="none" stroke-width="1.062" stroke-linecap="butt" stroke-linejoin="miter" stroke="rgb(80.819702%, 66.22467%, 42.581177%)" stroke-opacity="1" stroke-miterlimit="1" d="M 1090.0469 603.89969 L 1217.550045 603.89969 L 1169.760848 560.850241 L 1137.875269 560.850241 Z M 1090.0469 603.89969 " transform="matrix(0.0997218, 0, 0, -0.0997218, 0.114962, 132.261029)"/>
<path fill-rule="nonzero" fill="rgb(84.376526%, 72.117615%, 51.99585%)" fill-opacity="1" d="M 108.816406 63.296875 L 121.53125 63.296875 L 116.765625 59.003906 L 113.585938 59.003906 L 108.816406 63.296875 "/>
<path fill="none" stroke-width="1.06" stroke-linecap="butt" stroke-linejoin="miter" stroke="rgb(80.819702%, 66.22467%, 42.581177%)" stroke-opacity="1" stroke-miterlimit="1" d="M 1090.0469 691.565447 L 1217.550045 691.565447 L 1169.760848 734.614896 L 1137.875269 734.614896 Z M 1090.0469 691.565447 " transform="matrix(0.0997218, 0, 0, -0.0997218, 0.114962, 132.261029)"/>
<path fill-rule="nonzero" fill="rgb(84.376526%, 72.117615%, 51.99585%)" fill-opacity="1" d="M 108.816406 63.296875 L 121.53125 63.296875 L 116.765625 67.59375 L 113.585938 67.59375 L 108.816406 63.296875 "/>
<path fill="none" stroke-width="1.06" stroke-linecap="butt" stroke-linejoin="miter" stroke="rgb(80.819702%, 66.22467%, 42.581177%)" stroke-opacity="1" stroke-miterlimit="1" d="M 1090.0469 691.565447 L 1217.550045 691.565447 L 1169.760848 648.476827 L 1137.875269 648.476827 Z M 1090.0469 691.565447 " transform="matrix(0.0997218, 0, 0, -0.0997218, 0.114962, 132.261029)"/>
<path fill-rule="nonzero" fill="rgb(84.376526%, 72.117615%, 51.99585%)" fill-opacity="1" d="M 108.816406 54.558594 L 121.53125 54.558594 L 116.765625 50.261719 L 113.585938 50.261719 L 108.816406 54.558594 "/>
<path fill="none" stroke-width="1.062" stroke-linecap="butt" stroke-linejoin="miter" stroke="rgb(80.819702%, 66.22467%, 42.581177%)" stroke-opacity="1" stroke-miterlimit="1" d="M 1090.0469 779.192033 L 1217.550045 779.192033 L 1169.760848 822.280653 L 1137.875269 822.280653 Z M 1090.0469 779.192033 " transform="matrix(0.0997218, 0, 0, -0.0997218, 0.114962, 132.261029)"/>
<path fill-rule="nonzero" fill="rgb(84.376526%, 72.117615%, 51.99585%)" fill-opacity="1" d="M 108.816406 54.558594 L 121.53125 54.558594 L 116.765625 58.851562 L 113.585938 58.851562 L 108.816406 54.558594 "/>
<path fill="none" stroke-width="1.062" stroke-linecap="butt" stroke-linejoin="miter" stroke="rgb(80.819702%, 66.22467%, 42.581177%)" stroke-opacity="1" stroke-miterlimit="1" d="M 1090.0469 779.192033 L 1217.550045 779.192033 L 1169.760848 736.142584 L 1137.875269 736.142584 Z M 1090.0469 779.192033 " transform="matrix(0.0997218, 0, 0, -0.0997218, 0.114962, 132.261029)"/>
<path fill-rule="nonzero" fill="rgb(84.376526%, 72.117615%, 51.99585%)" fill-opacity="1" d="M 108.816406 45.816406 L 121.53125 45.816406 L 116.765625 41.519531 L 113.585938 41.519531 L 108.816406 45.816406 "/>
<path fill="none" stroke-width="1.062" stroke-linecap="butt" stroke-linejoin="miter" stroke="rgb(80.819702%, 66.22467%, 42.581177%)" stroke-opacity="1" stroke-miterlimit="1" d="M 1090.0469 866.85779 L 1217.550045 866.85779 L 1169.760848 909.946411 L 1137.875269 909.946411 Z M 1090.0469 866.85779 " transform="matrix(0.0997218, 0, 0, -0.0997218, 0.114962, 132.261029)"/>
<path fill-rule="nonzero" fill="rgb(84.376526%, 72.117615%, 51.99585%)" fill-opacity="1" d="M 108.816406 45.816406 L 121.53125 45.816406 L 116.765625 50.109375 L 113.585938 50.109375 L 108.816406 45.816406 "/>
<path fill="none" stroke-width="1.062" stroke-linecap="butt" stroke-linejoin="miter" stroke="rgb(80.819702%, 66.22467%, 42.581177%)" stroke-opacity="1" stroke-miterlimit="1" d="M 1090.0469 866.85779 L 1217.550045 866.85779 L 1169.760848 823.808341 L 1137.875269 823.808341 Z M 1090.0469 866.85779 " transform="matrix(0.0997218, 0, 0, -0.0997218, 0.114962, 132.261029)"/>
<path fill-rule="nonzero" fill="rgb(84.376526%, 72.117615%, 51.99585%)" fill-opacity="1" d="M 108.816406 20.246094 L 121.53125 20.246094 L 116.765625 15.953125 L 113.585938 15.953125 L 108.816406 20.246094 "/>
<path fill="none" stroke-width="1.062" stroke-linecap="butt" stroke-linejoin="miter" stroke="rgb(80.819702%, 66.22467%, 42.581177%)" stroke-opacity="1" stroke-miterlimit="1" d="M 1090.0469 1123.274254 L 1217.550045 1123.274254 L 1169.760848 1166.323703 L 1137.875269 1166.323703 Z M 1090.0469 1123.274254 " transform="matrix(0.0997218, 0, 0, -0.0997218, 0.114962, 132.261029)"/>
<path fill-rule="nonzero" fill="rgb(84.376526%, 72.117615%, 51.99585%)" fill-opacity="1" d="M 108.816406 20.246094 L 121.53125 20.246094 L 116.765625 24.542969 L 113.585938 24.542969 L 108.816406 20.246094 "/>
<path fill="none" stroke-width="1.062" stroke-linecap="butt" stroke-linejoin="miter" stroke="rgb(80.819702%, 66.22467%, 42.581177%)" stroke-opacity="1" stroke-miterlimit="1" d="M 1090.0469 1123.274254 L 1217.550045 1123.274254 L 1169.760848 1080.185633 L 1137.875269 1080.185633 Z M 1090.0469 1123.274254 " transform="matrix(0.0997218, 0, 0, -0.0997218, 0.114962, 132.261029)"/>
<path fill-rule="nonzero" fill="rgb(84.376526%, 72.117615%, 51.99585%)" fill-opacity="1" d="M 125.980469 72.039062 L 138.695312 72.039062 L 133.929688 67.746094 L 130.75 67.746094 L 125.980469 72.039062 "/>
<path fill="none" stroke-width="1.062" stroke-linecap="butt" stroke-linejoin="miter" stroke="rgb(80.819702%, 66.22467%, 42.581177%)" stroke-opacity="1" stroke-miterlimit="1" d="M 1262.166353 603.89969 L 1389.669499 603.89969 L 1341.880301 646.949139 L 1309.994722 646.949139 Z M 1262.166353 603.89969 " transform="matrix(0.0997218, 0, 0, -0.0997218, 0.114962, 132.261029)"/>
<path fill-rule="nonzero" fill="rgb(84.376526%, 72.117615%, 51.99585%)" fill-opacity="1" d="M 125.980469 72.039062 L 138.695312 72.039062 L 133.929688 76.332031 L 130.75 76.332031 L 125.980469 72.039062 "/>
<path fill="none" stroke-width="1.062" stroke-linecap="butt" stroke-linejoin="miter" stroke="rgb(80.819702%, 66.22467%, 42.581177%)" stroke-opacity="1" stroke-miterlimit="1" d="M 1262.166353 603.89969 L 1389.669499 603.89969 L 1341.880301 560.850241 L 1309.994722 560.850241 Z M 1262.166353 603.89969 " transform="matrix(0.0997218, 0, 0, -0.0997218, 0.114962, 132.261029)"/>
<path fill-rule="nonzero" fill="rgb(84.376526%, 72.117615%, 51.99585%)" fill-opacity="1" d="M 125.980469 63.296875 L 138.695312 63.296875 L 133.929688 59.003906 L 130.75 59.003906 L 125.980469 63.296875 "/>
<path fill="none" stroke-width="1.062" stroke-linecap="butt" stroke-linejoin="miter" stroke="rgb(80.819702%, 66.22467%, 42.581177%)" stroke-opacity="1" stroke-miterlimit="1" d="M 1262.166353 691.565447 L 1389.669499 691.565447 L 1341.880301 734.614896 L 1309.994722 734.614896 Z M 1262.166353 691.565447 " transform="matrix(0.0997218, 0, 0, -0.0997218, 0.114962, 132.261029)"/>
<path fill-rule="nonzero" fill="rgb(84.376526%, 72.117615%, 51.99585%)" fill-opacity="1" d="M 125.980469 63.296875 L 138.695312 63.296875 L 133.929688 67.59375 L 130.75 67.59375 L 125.980469 63.296875 "/>
<path fill="none" stroke-width="1.062" stroke-linecap="butt" stroke-linejoin="miter" stroke="rgb(80.819702%, 66.22467%, 42.581177%)" stroke-opacity="1" stroke-miterlimit="1" d="M 1262.166353 691.565447 L 1389.669499 691.565447 L 1341.880301 648.476827 L 1309.994722 648.476827 Z M 1262.166353 691.565447 " transform="matrix(0.0997218, 0, 0, -0.0997218, 0.114962, 132.261029)"/>
<path fill-rule="nonzero" fill="rgb(84.376526%, 72.117615%, 51.99585%)" fill-opacity="1" d="M 125.765625 46.785156 L 138.480469 46.785156 L 133.714844 42.488281 L 130.535156 42.488281 L 125.765625 46.785156 "/>
<path fill="none" stroke-width="1.062" stroke-linecap="butt" stroke-linejoin="miter" stroke="rgb(80.819702%, 66.22467%, 42.581177%)" stroke-opacity="1" stroke-miterlimit="1" d="M 1260.011922 857.143265 L 1387.515068 857.143265 L 1339.72587 900.231885 L 1307.840291 900.231885 Z M 1260.011922 857.143265 " transform="matrix(0.0997218, 0, 0, -0.0997218, 0.114962, 132.261029)"/>
<path fill-rule="nonzero" fill="rgb(84.376526%, 72.117615%, 51.99585%)" fill-opacity="1" d="M 125.765625 46.785156 L 138.480469 46.785156 L 133.714844 51.078125 L 130.535156 51.078125 L 125.765625 46.785156 "/>
<path fill="none" stroke-width="1.062" stroke-linecap="butt" stroke-linejoin="miter" stroke="rgb(80.819702%, 66.22467%, 42.581177%)" stroke-opacity="1" stroke-miterlimit="1" d="M 1260.011922 857.143265 L 1387.515068 857.143265 L 1339.72587 814.093816 L 1307.840291 814.093816 Z M 1260.011922 857.143265 " transform="matrix(0.0997218, 0, 0, -0.0997218, 0.114962, 132.261029)"/>
<path fill-rule="nonzero" fill="rgb(84.376526%, 72.117615%, 51.99585%)" fill-opacity="1" d="M 125.765625 38.042969 L 138.480469 38.042969 L 133.714844 33.75 L 130.535156 33.75 L 125.765625 38.042969 "/>
<path fill="none" stroke-width="1.062" stroke-linecap="butt" stroke-linejoin="miter" stroke="rgb(80.819702%, 66.22467%, 42.581177%)" stroke-opacity="1" stroke-miterlimit="1" d="M 1260.011922 944.809022 L 1387.515068 944.809022 L 1339.72587 987.858471 L 1307.840291 987.858471 Z M 1260.011922 944.809022 " transform="matrix(0.0997218, 0, 0, -0.0997218, 0.114962, 132.261029)"/>
<path fill-rule="nonzero" fill="rgb(84.376526%, 72.117615%, 51.99585%)" fill-opacity="1" d="M 125.765625 38.042969 L 138.480469 38.042969 L 133.714844 42.335938 L 130.535156 42.335938 L 125.765625 38.042969 "/>
<path fill="none" stroke-width="1.062" stroke-linecap="butt" stroke-linejoin="miter" stroke="rgb(80.819702%, 66.22467%, 42.581177%)" stroke-opacity="1" stroke-miterlimit="1" d="M 1260.011922 944.809022 L 1387.515068 944.809022 L 1339.72587 901.759573 L 1307.840291 901.759573 Z M 1260.011922 944.809022 " transform="matrix(0.0997218, 0, 0, -0.0997218, 0.114962, 132.261029)"/>
<path fill-rule="nonzero" fill="rgb(84.376526%, 72.117615%, 51.99585%)" fill-opacity="1" d="M 125.980469 24.675781 L 138.695312 24.675781 L 133.929688 20.382812 L 130.75 20.382812 L 125.980469 24.675781 "/>
<path fill="none" stroke-width="1.062" stroke-linecap="butt" stroke-linejoin="miter" stroke="rgb(80.819702%, 66.22467%, 42.581177%)" stroke-opacity="1" stroke-miterlimit="1" d="M 1262.166353 1078.853803 L 1389.669499 1078.853803 L 1341.880301 1121.903252 L 1309.994722 1121.903252 Z M 1262.166353 1078.853803 " transform="matrix(0.0997218, 0, 0, -0.0997218, 0.114962, 132.261029)"/>
<path fill-rule="nonzero" fill="rgb(84.376526%, 72.117615%, 51.99585%)" fill-opacity="1" d="M 125.980469 24.675781 L 138.695312 24.675781 L 133.929688 28.972656 L 130.75 28.972656 L 125.980469 24.675781 "/>
<path fill="none" stroke-width="1.062" stroke-linecap="butt" stroke-linejoin="miter" stroke="rgb(80.819702%, 66.22467%, 42.581177%)" stroke-opacity="1" stroke-miterlimit="1" d="M 1262.166353 1078.853803 L 1389.669499 1078.853803 L 1341.880301 1035.765183 L 1309.994722 1035.765183 Z M 1262.166353 1078.853803 " transform="matrix(0.0997218, 0, 0, -0.0997218, 0.114962, 132.261029)"/>
<path fill-rule="nonzero" fill="rgb(84.376526%, 72.117615%, 51.99585%)" fill-opacity="1" d="M 143.148438 72.039062 L 155.863281 72.039062 L 151.09375 67.746094 L 147.914062 67.746094 L 143.148438 72.039062 "/>
<path fill="none" stroke-width="1.06" stroke-linecap="butt" stroke-linejoin="miter" stroke="rgb(80.819702%, 66.22467%, 42.581177%)" stroke-opacity="1" stroke-miterlimit="1" d="M 1434.324978 603.89969 L 1561.828124 603.89969 L 1513.999755 646.949139 L 1482.114176 646.949139 Z M 1434.324978 603.89969 " transform="matrix(0.0997218, 0, 0, -0.0997218, 0.114962, 132.261029)"/>
<path fill-rule="nonzero" fill="rgb(84.376526%, 72.117615%, 51.99585%)" fill-opacity="1" d="M 143.148438 72.039062 L 155.863281 72.039062 L 151.09375 76.332031 L 147.914062 76.332031 L 143.148438 72.039062 "/>
<path fill="none" stroke-width="1.06" stroke-linecap="butt" stroke-linejoin="miter" stroke="rgb(80.819702%, 66.22467%, 42.581177%)" stroke-opacity="1" stroke-miterlimit="1" d="M 1434.324978 603.89969 L 1561.828124 603.89969 L 1513.999755 560.850241 L 1482.114176 560.850241 Z M 1434.324978 603.89969 " transform="matrix(0.0997218, 0, 0, -0.0997218, 0.114962, 132.261029)"/>
<path fill-rule="nonzero" fill="rgb(84.376526%, 72.117615%, 51.99585%)" fill-opacity="1" d="M 143.148438 55.527344 L 155.863281 55.527344 L 151.09375 51.230469 L 147.914062 51.230469 L 143.148438 55.527344 "/>
<path fill="none" stroke-width="1.062" stroke-linecap="butt" stroke-linejoin="miter" stroke="rgb(80.819702%, 66.22467%, 42.581177%)" stroke-opacity="1" stroke-miterlimit="1" d="M 1434.324978 769.477507 L 1561.828124 769.477507 L 1513.999755 812.566128 L 1482.114176 812.566128 Z M 1434.324978 769.477507 " transform="matrix(0.0997218, 0, 0, -0.0997218, 0.114962, 132.261029)"/>
<path fill-rule="nonzero" fill="rgb(84.376526%, 72.117615%, 51.99585%)" fill-opacity="1" d="M 143.148438 55.527344 L 155.863281 55.527344 L 151.09375 59.820312 L 147.914062 59.820312 L 143.148438 55.527344 "/>
<path fill="none" stroke-width="1.062" stroke-linecap="butt" stroke-linejoin="miter" stroke="rgb(80.819702%, 66.22467%, 42.581177%)" stroke-opacity="1" stroke-miterlimit="1" d="M 1434.324978 769.477507 L 1561.828124 769.477507 L 1513.999755 726.428058 L 1482.114176 726.428058 Z M 1434.324978 769.477507 " transform="matrix(0.0997218, 0, 0, -0.0997218, 0.114962, 132.261029)"/>
<path fill-rule="nonzero" fill="rgb(84.376526%, 72.117615%, 51.99585%)" fill-opacity="1" d="M 143.148438 46.785156 L 155.863281 46.785156 L 151.09375 42.488281 L 147.914062 42.488281 L 143.148438 46.785156 "/>
<path fill="none" stroke-width="1.062" stroke-linecap="butt" stroke-linejoin="miter" stroke="rgb(80.819702%, 66.22467%, 42.581177%)" stroke-opacity="1" stroke-miterlimit="1" d="M 1434.324978 857.143265 L 1561.828124 857.143265 L 1513.999755 900.231885 L 1482.114176 900.231885 Z M 1434.324978 857.143265 " transform="matrix(0.0997218, 0, 0, -0.0997218, 0.114962, 132.261029)"/>
<path fill-rule="nonzero" fill="rgb(84.376526%, 72.117615%, 51.99585%)" fill-opacity="1" d="M 143.148438 46.785156 L 155.863281 46.785156 L 151.09375 51.078125 L 147.914062 51.078125 L 143.148438 46.785156 "/>
<path fill="none" stroke-width="1.062" stroke-linecap="butt" stroke-linejoin="miter" stroke="rgb(80.819702%, 66.22467%, 42.581177%)" stroke-opacity="1" stroke-miterlimit="1" d="M 1434.324978 857.143265 L 1561.828124 857.143265 L 1513.999755 814.093816 L 1482.114176 814.093816 Z M 1434.324978 857.143265 " transform="matrix(0.0997218, 0, 0, -0.0997218, 0.114962, 132.261029)"/>
<path fill-rule="nonzero" fill="rgb(84.376526%, 72.117615%, 51.99585%)" fill-opacity="1" d="M 143.148438 38.042969 L 155.863281 38.042969 L 151.09375 33.75 L 147.914062 33.75 L 143.148438 38.042969 "/>
<path fill="none" stroke-width="1.062" stroke-linecap="butt" stroke-linejoin="miter" stroke="rgb(80.819702%, 66.22467%, 42.581177%)" stroke-opacity="1" stroke-miterlimit="1" d="M 1434.324978 944.809022 L 1561.828124 944.809022 L 1513.999755 987.858471 L 1482.114176 987.858471 Z M 1434.324978 944.809022 " transform="matrix(0.0997218, 0, 0, -0.0997218, 0.114962, 132.261029)"/>
<path fill-rule="nonzero" fill="rgb(84.376526%, 72.117615%, 51.99585%)" fill-opacity="1" d="M 143.148438 38.042969 L 155.863281 38.042969 L 151.09375 42.335938 L 147.914062 42.335938 L 143.148438 38.042969 "/>
<path fill="none" stroke-width="1.062" stroke-linecap="butt" stroke-linejoin="miter" stroke="rgb(80.819702%, 66.22467%, 42.581177%)" stroke-opacity="1" stroke-miterlimit="1" d="M 1434.324978 944.809022 L 1561.828124 944.809022 L 1513.999755 901.759573 L 1482.114176 901.759573 Z M 1434.324978 944.809022 " transform="matrix(0.0997218, 0, 0, -0.0997218, 0.114962, 132.261029)"/>
<path fill-rule="nonzero" fill="rgb(84.376526%, 72.117615%, 51.99585%)" fill-opacity="1" d="M 142.96875 20.425781 L 155.683594 20.425781 L 150.914062 16.132812 L 147.734375 16.132812 L 142.96875 20.425781 "/>
<path fill="none" stroke-width="1.062" stroke-linecap="butt" stroke-linejoin="miter" stroke="rgb(80.819702%, 66.22467%, 42.581177%)" stroke-opacity="1" stroke-miterlimit="1" d="M 1432.523091 1121.472366 L 1560.026236 1121.472366 L 1512.197867 1164.521815 L 1480.312288 1164.521815 Z M 1432.523091 1121.472366 " transform="matrix(0.0997218, 0, 0, -0.0997218, 0.114962, 132.261029)"/>
<path fill-rule="nonzero" fill="rgb(84.376526%, 72.117615%, 51.99585%)" fill-opacity="1" d="M 142.96875 20.425781 L 155.683594 20.425781 L 150.914062 24.71875 L 147.734375 24.71875 L 142.96875 20.425781 "/>
<path fill="none" stroke-width="1.062" stroke-linecap="butt" stroke-linejoin="miter" stroke="rgb(80.819702%, 66.22467%, 42.581177%)" stroke-opacity="1" stroke-miterlimit="1" d="M 1432.523091 1121.472366 L 1560.026236 1121.472366 L 1512.197867 1078.422917 L 1480.312288 1078.422917 Z M 1432.523091 1121.472366 " transform="matrix(0.0997218, 0, 0, -0.0997218, 0.114962, 132.261029)"/>
<path fill-rule="nonzero" fill="rgb(84.376526%, 72.117615%, 51.99585%)" fill-opacity="1" d="M 160.3125 72.039062 L 173.027344 72.039062 L 168.257812 67.746094 L 165.078125 67.746094 L 160.3125 72.039062 "/>
<path fill="none" stroke-width="1.062" stroke-linecap="butt" stroke-linejoin="miter" stroke="rgb(80.819702%, 66.22467%, 42.581177%)" stroke-opacity="1" stroke-miterlimit="1" d="M 1606.444432 603.89969 L 1733.947577 603.89969 L 1686.119209 646.949139 L 1654.233629 646.949139 Z M 1606.444432 603.89969 " transform="matrix(0.0997218, 0, 0, -0.0997218, 0.114962, 132.261029)"/>
<path fill-rule="nonzero" fill="rgb(84.376526%, 72.117615%, 51.99585%)" fill-opacity="1" d="M 160.3125 72.039062 L 173.027344 72.039062 L 168.257812 76.332031 L 165.078125 76.332031 L 160.3125 72.039062 "/>
<path fill="none" stroke-width="1.062" stroke-linecap="butt" stroke-linejoin="miter" stroke="rgb(80.819702%, 66.22467%, 42.581177%)" stroke-opacity="1" stroke-miterlimit="1" d="M 1606.444432 603.89969 L 1733.947577 603.89969 L 1686.119209 560.850241 L 1654.233629 560.850241 Z M 1606.444432 603.89969 " transform="matrix(0.0997218, 0, 0, -0.0997218, 0.114962, 132.261029)"/>
<path fill-rule="nonzero" fill="rgb(84.376526%, 72.117615%, 51.99585%)" fill-opacity="1" d="M 160.3125 63.296875 L 173.027344 63.296875 L 168.257812 59.003906 L 165.078125 59.003906 L 160.3125 63.296875 "/>
<path fill="none" stroke-width="1.062" stroke-linecap="butt" stroke-linejoin="miter" stroke="rgb(80.819702%, 66.22467%, 42.581177%)" stroke-opacity="1" stroke-miterlimit="1" d="M 1606.444432 691.565447 L 1733.947577 691.565447 L 1686.119209 734.614896 L 1654.233629 734.614896 Z M 1606.444432 691.565447 " transform="matrix(0.0997218, 0, 0, -0.0997218, 0.114962, 132.261029)"/>
<path fill-rule="nonzero" fill="rgb(84.376526%, 72.117615%, 51.99585%)" fill-opacity="1" d="M 160.3125 63.296875 L 173.027344 63.296875 L 168.257812 67.59375 L 165.078125 67.59375 L 160.3125 63.296875 "/>
<path fill="none" stroke-width="1.062" stroke-linecap="butt" stroke-linejoin="miter" stroke="rgb(80.819702%, 66.22467%, 42.581177%)" stroke-opacity="1" stroke-miterlimit="1" d="M 1606.444432 691.565447 L 1733.947577 691.565447 L 1686.119209 648.476827 L 1654.233629 648.476827 Z M 1606.444432 691.565447 " transform="matrix(0.0997218, 0, 0, -0.0997218, 0.114962, 132.261029)"/>
<path fill-rule="nonzero" fill="rgb(84.376526%, 72.117615%, 51.99585%)" fill-opacity="1" d="M 160.3125 54.558594 L 173.027344 54.558594 L 168.257812 50.261719 L 165.078125 50.261719 L 160.3125 54.558594 "/>
<path fill="none" stroke-width="1.062" stroke-linecap="butt" stroke-linejoin="miter" stroke="rgb(80.819702%, 66.22467%, 42.581177%)" stroke-opacity="1" stroke-miterlimit="1" d="M 1606.444432 779.192033 L 1733.947577 779.192033 L 1686.119209 822.280653 L 1654.233629 822.280653 Z M 1606.444432 779.192033 " transform="matrix(0.0997218, 0, 0, -0.0997218, 0.114962, 132.261029)"/>
<path fill-rule="nonzero" fill="rgb(84.376526%, 72.117615%, 51.99585%)" fill-opacity="1" d="M 160.3125 54.558594 L 173.027344 54.558594 L 168.257812 58.851562 L 165.078125 58.851562 L 160.3125 54.558594 "/>
<path fill="none" stroke-width="1.062" stroke-linecap="butt" stroke-linejoin="miter" stroke="rgb(80.819702%, 66.22467%, 42.581177%)" stroke-opacity="1" stroke-miterlimit="1" d="M 1606.444432 779.192033 L 1733.947577 779.192033 L 1686.119209 736.142584 L 1654.233629 736.142584 Z M 1606.444432 779.192033 " transform="matrix(0.0997218, 0, 0, -0.0997218, 0.114962, 132.261029)"/>
<path fill-rule="nonzero" fill="rgb(84.376526%, 72.117615%, 51.99585%)" fill-opacity="1" d="M 160.3125 45.816406 L 173.027344 45.816406 L 168.257812 41.519531 L 165.078125 41.519531 L 160.3125 45.816406 "/>
<path fill="none" stroke-width="1.062" stroke-linecap="butt" stroke-linejoin="miter" stroke="rgb(80.819702%, 66.22467%, 42.581177%)" stroke-opacity="1" stroke-miterlimit="1" d="M 1606.444432 866.85779 L 1733.947577 866.85779 L 1686.119209 909.946411 L 1654.233629 909.946411 Z M 1606.444432 866.85779 " transform="matrix(0.0997218, 0, 0, -0.0997218, 0.114962, 132.261029)"/>
<path fill-rule="nonzero" fill="rgb(84.376526%, 72.117615%, 51.99585%)" fill-opacity="1" d="M 160.3125 45.816406 L 173.027344 45.816406 L 168.257812 50.109375 L 165.078125 50.109375 L 160.3125 45.816406 "/>
<path fill="none" stroke-width="1.062" stroke-linecap="butt" stroke-linejoin="miter" stroke="rgb(80.819702%, 66.22467%, 42.581177%)" stroke-opacity="1" stroke-miterlimit="1" d="M 1606.444432 866.85779 L 1733.947577 866.85779 L 1686.119209 823.808341 L 1654.233629 823.808341 Z M 1606.444432 866.85779 " transform="matrix(0.0997218, 0, 0, -0.0997218, 0.114962, 132.261029)"/>
<path fill-rule="nonzero" fill="rgb(84.376526%, 72.117615%, 51.99585%)" fill-opacity="1" d="M 159.878906 20.425781 L 172.59375 20.425781 L 167.824219 16.132812 L 164.648438 16.132812 L 159.878906 20.425781 "/>
<path fill="none" stroke-width="1.062" stroke-linecap="butt" stroke-linejoin="miter" stroke="rgb(80.819702%, 66.22467%, 42.581177%)" stroke-opacity="1" stroke-miterlimit="1" d="M 1602.096398 1121.472366 L 1729.599544 1121.472366 L 1681.771175 1164.521815 L 1649.924767 1164.521815 Z M 1602.096398 1121.472366 " transform="matrix(0.0997218, 0, 0, -0.0997218, 0.114962, 132.261029)"/>
<path fill-rule="nonzero" fill="rgb(84.376526%, 72.117615%, 51.99585%)" fill-opacity="1" d="M 159.878906 20.425781 L 172.59375 20.425781 L 167.824219 24.71875 L 164.648438 24.71875 L 159.878906 20.425781 "/>
<path fill="none" stroke-width="1.062" stroke-linecap="butt" stroke-linejoin="miter" stroke="rgb(80.819702%, 66.22467%, 42.581177%)" stroke-opacity="1" stroke-miterlimit="1" d="M 1602.096398 1121.472366 L 1729.599544 1121.472366 L 1681.771175 1078.422917 L 1649.924767 1078.422917 Z M 1602.096398 1121.472366 " transform="matrix(0.0997218, 0, 0, -0.0997218, 0.114962, 132.261029)"/>
<path fill-rule="nonzero" fill="rgb(84.376526%, 72.117615%, 51.99585%)" fill-opacity="1" d="M 177.476562 72.039062 L 190.191406 72.039062 L 185.421875 67.746094 L 182.246094 67.746094 L 177.476562 72.039062 "/>
<path fill="none" stroke-width="1.062" stroke-linecap="butt" stroke-linejoin="miter" stroke="rgb(80.819702%, 66.22467%, 42.581177%)" stroke-opacity="1" stroke-miterlimit="1" d="M 1778.563885 603.89969 L 1906.067031 603.89969 L 1858.238662 646.949139 L 1826.392254 646.949139 Z M 1778.563885 603.89969 " transform="matrix(0.0997218, 0, 0, -0.0997218, 0.114962, 132.261029)"/>
<path fill-rule="nonzero" fill="rgb(84.376526%, 72.117615%, 51.99585%)" fill-opacity="1" d="M 177.476562 72.039062 L 190.191406 72.039062 L 185.421875 76.332031 L 182.246094 76.332031 L 177.476562 72.039062 "/>
<path fill="none" stroke-width="1.062" stroke-linecap="butt" stroke-linejoin="miter" stroke="rgb(80.819702%, 66.22467%, 42.581177%)" stroke-opacity="1" stroke-miterlimit="1" d="M 1778.563885 603.89969 L 1906.067031 603.89969 L 1858.238662 560.850241 L 1826.392254 560.850241 Z M 1778.563885 603.89969 " transform="matrix(0.0997218, 0, 0, -0.0997218, 0.114962, 132.261029)"/>
<path fill-rule="nonzero" fill="rgb(84.376526%, 72.117615%, 51.99585%)" fill-opacity="1" d="M 177.476562 63.296875 L 190.191406 63.296875 L 185.421875 59.003906 L 182.246094 59.003906 L 177.476562 63.296875 "/>
<path fill="none" stroke-width="1.062" stroke-linecap="butt" stroke-linejoin="miter" stroke="rgb(80.819702%, 66.22467%, 42.581177%)" stroke-opacity="1" stroke-miterlimit="1" d="M 1778.563885 691.565447 L 1906.067031 691.565447 L 1858.238662 734.614896 L 1826.392254 734.614896 Z M 1778.563885 691.565447 " transform="matrix(0.0997218, 0, 0, -0.0997218, 0.114962, 132.261029)"/>
<path fill-rule="nonzero" fill="rgb(84.376526%, 72.117615%, 51.99585%)" fill-opacity="1" d="M 177.476562 63.296875 L 190.191406 63.296875 L 185.421875 67.59375 L 182.246094 67.59375 L 177.476562 63.296875 "/>
<path fill="none" stroke-width="1.062" stroke-linecap="butt" stroke-linejoin="miter" stroke="rgb(80.819702%, 66.22467%, 42.581177%)" stroke-opacity="1" stroke-miterlimit="1" d="M 1778.563885 691.565447 L 1906.067031 691.565447 L 1858.238662 648.476827 L 1826.392254 648.476827 Z M 1778.563885 691.565447 " transform="matrix(0.0997218, 0, 0, -0.0997218, 0.114962, 132.261029)"/>
<path fill-rule="nonzero" fill="rgb(84.376526%, 72.117615%, 51.99585%)" fill-opacity="1" d="M 177.476562 54.558594 L 190.191406 54.558594 L 185.421875 50.261719 L 182.246094 50.261719 L 177.476562 54.558594 "/>
<path fill="none" stroke-width="1.062" stroke-linecap="butt" stroke-linejoin="miter" stroke="rgb(80.819702%, 66.22467%, 42.581177%)" stroke-opacity="1" stroke-miterlimit="1" d="M 1778.563885 779.192033 L 1906.067031 779.192033 L 1858.238662 822.280653 L 1826.392254 822.280653 Z M 1778.563885 779.192033 " transform="matrix(0.0997218, 0, 0, -0.0997218, 0.114962, 132.261029)"/>
<path fill-rule="nonzero" fill="rgb(84.376526%, 72.117615%, 51.99585%)" fill-opacity="1" d="M 177.476562 54.558594 L 190.191406 54.558594 L 185.421875 58.851562 L 182.246094 58.851562 L 177.476562 54.558594 "/>
<path fill="none" stroke-width="1.062" stroke-linecap="butt" stroke-linejoin="miter" stroke="rgb(80.819702%, 66.22467%, 42.581177%)" stroke-opacity="1" stroke-miterlimit="1" d="M 1778.563885 779.192033 L 1906.067031 779.192033 L 1858.238662 736.142584 L 1826.392254 736.142584 Z M 1778.563885 779.192033 " transform="matrix(0.0997218, 0, 0, -0.0997218, 0.114962, 132.261029)"/>
<path fill-rule="nonzero" fill="rgb(84.376526%, 72.117615%, 51.99585%)" fill-opacity="1" d="M 177.476562 45.816406 L 190.191406 45.816406 L 185.421875 41.519531 L 182.246094 41.519531 L 177.476562 45.816406 "/>
<path fill="none" stroke-width="1.062" stroke-linecap="butt" stroke-linejoin="miter" stroke="rgb(80.819702%, 66.22467%, 42.581177%)" stroke-opacity="1" stroke-miterlimit="1" d="M 1778.563885 866.85779 L 1906.067031 866.85779 L 1858.238662 909.946411 L 1826.392254 909.946411 Z M 1778.563885 866.85779 " transform="matrix(0.0997218, 0, 0, -0.0997218, 0.114962, 132.261029)"/>
<path fill-rule="nonzero" fill="rgb(84.376526%, 72.117615%, 51.99585%)" fill-opacity="1" d="M 177.476562 45.816406 L 190.191406 45.816406 L 185.421875 50.109375 L 182.246094 50.109375 L 177.476562 45.816406 "/>
<path fill="none" stroke-width="1.062" stroke-linecap="butt" stroke-linejoin="miter" stroke="rgb(80.819702%, 66.22467%, 42.581177%)" stroke-opacity="1" stroke-miterlimit="1" d="M 1778.563885 866.85779 L 1906.067031 866.85779 L 1858.238662 823.808341 L 1826.392254 823.808341 Z M 1778.563885 866.85779 " transform="matrix(0.0997218, 0, 0, -0.0997218, 0.114962, 132.261029)"/>
<path fill-rule="nonzero" fill="rgb(84.376526%, 72.117615%, 51.99585%)" fill-opacity="1" d="M 177.90625 20.425781 L 190.621094 20.425781 L 185.855469 16.132812 L 182.675781 16.132812 L 177.90625 20.425781 "/>
<path fill="none" stroke-width="1.062" stroke-linecap="butt" stroke-linejoin="miter" stroke="rgb(80.819702%, 66.22467%, 42.581177%)" stroke-opacity="1" stroke-miterlimit="1" d="M 1782.872747 1121.472366 L 1910.375893 1121.472366 L 1862.586696 1164.521815 L 1830.701116 1164.521815 Z M 1782.872747 1121.472366 " transform="matrix(0.0997218, 0, 0, -0.0997218, 0.114962, 132.261029)"/>
<path fill-rule="nonzero" fill="rgb(84.376526%, 72.117615%, 51.99585%)" fill-opacity="1" d="M 177.90625 20.425781 L 190.621094 20.425781 L 185.855469 24.71875 L 182.675781 24.71875 L 177.90625 20.425781 "/>
<path fill="none" stroke-width="1.062" stroke-linecap="butt" stroke-linejoin="miter" stroke="rgb(80.819702%, 66.22467%, 42.581177%)" stroke-opacity="1" stroke-miterlimit="1" d="M 1782.872747 1121.472366 L 1910.375893 1121.472366 L 1862.586696 1078.422917 L 1830.701116 1078.422917 Z M 1782.872747 1121.472366 " transform="matrix(0.0997218, 0, 0, -0.0997218, 0.114962, 132.261029)"/>
<path fill="none" stroke-width="1.594" stroke-linecap="butt" stroke-linejoin="miter" stroke="rgb(0%, 0%, 0%)" stroke-opacity="1" stroke-miterlimit="4" d="M 379.672232 557.677351 L 325.458913 515.646361 " transform="matrix(0.0997218, 0, 0, -0.0997218, 0.114962, 132.261029)"/>
<path fill="none" stroke-width="1.594" stroke-linecap="butt" stroke-linejoin="miter" stroke="rgb(0%, 0%, 0%)" stroke-opacity="1" stroke-miterlimit="4" d="M 379.672232 1167.57719 L 325.458913 1209.608181 " transform="matrix(0.0997218, 0, 0, -0.0997218, 0.114962, 132.261029)"/>
<path fill="none" stroke-width="1.594" stroke-linecap="butt" stroke-linejoin="miter" stroke="rgb(0%, 0%, 0%)" stroke-opacity="1" stroke-miterlimit="4" d="M 1928.825657 1167.57719 L 1983.038976 1209.608181 " transform="matrix(0.0997218, 0, 0, -0.0997218, 0.114962, 132.261029)"/>
<path fill="none" stroke-width="1.594" stroke-linecap="butt" stroke-linejoin="miter" stroke="rgb(0%, 0%, 0%)" stroke-opacity="1" stroke-miterlimit="4" d="M 1928.825657 557.677351 L 1983.038976 515.646361 " transform="matrix(0.0997218, 0, 0, -0.0997218, 0.114962, 132.261029)"/>
<path fill-rule="nonzero" fill="rgb(100%, 100%, 100%)" fill-opacity="1" d="M 115.257812 32.167969 C 115.671875 32.167969 116.007812 31.835938 116.007812 31.417969 C 116.007812 31.003906 115.671875 30.667969 115.257812 30.667969 C 114.84375 30.667969 114.507812 31.003906 114.507812 31.417969 C 114.507812 31.835938 114.84375 32.167969 115.257812 32.167969 "/>
<path fill="none" stroke-width="1.75" stroke-linecap="butt" stroke-linejoin="miter" stroke="rgb(0%, 0%, 0%)" stroke-opacity="1" stroke-miterlimit="4" d="M 1154.640659 1003.722918 C 1158.792835 1003.722918 1162.161582 1007.052493 1162.161582 1011.24384 C 1162.161582 1015.396017 1158.792835 1018.764763 1154.640659 1018.764763 C 1150.488483 1018.764763 1147.119736 1015.396017 1147.119736 1011.24384 C 1147.119736 1007.052493 1150.488483 1003.722918 1154.640659 1003.722918 Z M 1154.640659 1003.722918 " transform="matrix(0.0997218, 0, 0, -0.0997218, 0.114962, 132.261029)"/>
<path fill-rule="nonzero" fill="rgb(90.235901%, 75.645447%, 53.703308%)" fill-opacity="1" d="M 34.328125 20.132812 C 32.988281 23.257812 29.097656 29.625 27.757812 29.625 C 26.417969 29.625 25.972656 39 22.847656 43.910156 C 19.722656 48.820312 11.6875 55.515625 11.6875 55.515625 C 11.6875 55.515625 8.117188 53.28125 9.902344 48.820312 C 11.6875 44.355469 18.828125 24.265625 20.167969 22.929688 C 21.507812 21.589844 32.855469 9.558594 32.855469 9.558594 L 34.328125 20.132812 "/>
<path fill-rule="nonzero" fill="rgb(98.654175%, 80.500793%, 49.806213%)" fill-opacity="1" d="M 33.113281 0.164062 C 36.683594 -0.285156 52.957031 1.910156 54.988281 2.839844 C 60.625 5.425781 57.679688 11.707031 55.1875 11.769531 C 48.921875 11.925781 36.238281 10.875 34.898438 10.875 C 33.5625 10.875 33.113281 0.164062 33.113281 0.164062 "/>
<g clip-path="url(#clip-0)">
<path fill-rule="nonzero" fill="rgb(98.852539%, 83.255005%, 56.697083%)" fill-opacity="1" d="M 20.238281 110.535156 C 21.816406 109.484375 26.945312 108.488281 32.800781 105.507812 C 36.882812 103.429688 41.710938 99.207031 44.277344 98.289062 C 50.527344 96.058594 60.601562 97.078125 62.386719 92.617188 C 64.171875 88.152344 62.554688 85.1875 58.179688 82.859375 C 54.242188 80.761719 41.605469 79.1875 36.851562 81.164062 C 35.992188 81.519531 29.648438 85.796875 28.3125 85.738281 C 23.585938 85.535156 18.835938 87.023438 16.207031 87.839844 C 14.929688 88.234375 8.691406 94.636719 9.007812 75.421875 C 9.03125 73.832031 12.867188 65.367188 13.285156 63.617188 C 15.515625 54.246094 12.660156 50.21875 14.367188 47.925781 C 21.679688 38.101562 19.214844 30.898438 20.554688 27.328125 C 20.554688 27.328125 22.148438 24.972656 25.71875 21.847656 C 29.289062 18.722656 30.085938 14.988281 31.425781 11.417969 C 31.425781 11.417969 36.664062 11.71875 41.148438 11.769531 C 47.671875 11.84375 51.191406 11.089844 51.140625 7.054688 C 51.101562 4.152344 47.921875 2.539062 39.808594 1.054688 C 32.867188 -0.214844 25.335938 -0.5625 22.339844 1.242188 C 18.6875 3.449219 7.226562 16.167969 6.78125 17.953125 C 6.335938 19.738281 2.792969 36.167969 0.113281 40.628906 C 0.113281 40.628906 3.949219 74.511719 2.785156 86.070312 C 2.253906 91.382812 -0.148438 104.101562 7.703125 114.640625 C 9.214844 116.664062 20.238281 110.535156 20.238281 110.535156 "/>
</g>
<path fill="none" stroke-width="1.062" stroke-linecap="butt" stroke-linejoin="miter" stroke="rgb(77.207947%, 64.549255%, 56.486511%)" stroke-opacity="1" stroke-miterlimit="4" d="M 313.981671 1211.801784 C 312.023098 1227.705402 308.184293 1258.337494 296.66788 1265.975931 " transform="matrix(0.0997218, 0, 0, -0.0997218, 0.114962, 132.261029)"/>
<path fill="none" stroke-width="1.062" stroke-linecap="butt" stroke-linejoin="miter" stroke="rgb(77.207947%, 64.549255%, 56.486511%)" stroke-opacity="1" stroke-miterlimit="4" d="M 197.093995 1055.311748 C 197.093995 1055.311748 174.10034 1059.150552 151.106685 1078.305403 " transform="matrix(0.0997218, 0, 0, -0.0997218, 0.114962, 132.261029)"/>
<path fill-rule="nonzero" fill="rgb(78.181458%, 65.971375%, 58.102417%)" fill-opacity="1" d="M 8.175781 15.609375 C 8.175781 15.609375 9.457031 17.472656 9.835938 19.003906 C 10.21875 20.53125 9.992188 16.285156 8.464844 15.136719 "/>
<path fill-rule="nonzero" fill="rgb(78.181458%, 65.971375%, 58.102417%)" fill-opacity="1" d="M 6.976562 17.570312 C 6.976562 17.570312 8.257812 18.582031 8.660156 18.851562 C 9.066406 19.125 6.78125 17.953125 6.78125 17.953125 "/>
<path fill-rule="nonzero" fill="rgb(78.181458%, 65.971375%, 58.102417%)" fill-opacity="1" d="M 6.234375 19.664062 C 6.503906 19.867188 8.933594 20.675781 9.605469 20.808594 C 10.28125 20.945312 8.730469 20.808594 8.191406 20.609375 C 7.648438 20.40625 6.097656 19.933594 6.097656 19.933594 "/>
<path fill-rule="nonzero" fill="rgb(78.181458%, 65.971375%, 58.102417%)" fill-opacity="1" d="M 6.5 65.199219 C 6.5 67.898438 7.582031 75.996094 8.660156 79.773438 C 9.738281 83.550781 8.921875 77.691406 8.574219 75.566406 C 8.230469 73.441406 6.5 65.199219 6.5 65.199219 "/>
<path fill-rule="nonzero" fill="rgb(78.181458%, 65.971375%, 58.102417%)" fill-opacity="1" d="M 2.875 80.390625 C 5.273438 82.1875 7.46875 87.617188 9.734375 87.828125 C 11.714844 88.007812 8.074219 85.949219 5.839844 83.671875 "/>
<path fill-rule="nonzero" fill="rgb(78.181458%, 65.971375%, 58.102417%)" fill-opacity="1" d="M 37.796875 91.9375 C 37.222656 93.375 37.796875 100.558594 38.660156 100.84375 C 39.523438 101.132812 40.113281 101.511719 39.25 100.363281 C 38.390625 99.214844 37.796875 91.9375 37.796875 91.9375 "/>
<path fill-rule="nonzero" fill="rgb(78.181458%, 65.971375%, 58.102417%)" fill-opacity="1" d="M 38.976562 94.21875 C 39.347656 94.960938 40.460938 99.792969 40.460938 100.257812 C 40.460938 100.722656 40.835938 99.886719 40.835938 99.886719 C 40.835938 99.886719 40.371094 97.933594 39.996094 96.914062 C 39.625 95.890625 38.976562 94.21875 38.976562 94.21875 "/>
<path fill-rule="nonzero" fill="rgb(78.181458%, 65.971375%, 58.102417%)" fill-opacity="1" d="M 42.414062 98.769531 C 42.414062 98.121094 41.207031 93.847656 40.742188 93.382812 C 40.277344 92.917969 42.414062 96.355469 42.972656 98.304688 "/>
<path fill-rule="nonzero" fill="rgb(99.01123%, 85.974121%, 74.914551%)" fill-opacity="1" d="M 55.328125 85.296875 C 53.46875 86.414062 49.867188 88.074219 49.753906 89.109375 C 49.566406 90.78125 50.496094 96.167969 51.613281 96.542969 C 52.148438 96.71875 58.671875 95.613281 59.230469 95.238281 C 59.789062 94.867188 61.554688 93.847656 61.367188 91.988281 C 61.183594 90.128906 60.902344 87.25 59.417969 86.507812 C 57.929688 85.761719 57.1875 84.183594 55.328125 85.296875 "/>
<path fill-rule="nonzero" fill="rgb(98.654175%, 80.500793%, 49.806213%)" fill-opacity="1" d="M 55.214844 85.019531 C 52.449219 86.273438 49.609375 87.214844 49.683594 88.160156 C 49.753906 89.109375 48.800781 92.9375 50.6875 96.710938 C 51.496094 98.328125 51.191406 94.410156 51.191406 96.710938 C 51.191406 96.207031 49.933594 91.679688 50.058594 90.046875 C 50.183594 88.414062 50.183594 87.910156 50.183594 87.910156 L 55.214844 85.019531 "/>
<path fill-rule="nonzero" fill="rgb(99.211121%, 88.766479%, 79.771423%)" fill-opacity="1" d="M 50.8125 88.789062 C 51.441406 89.042969 53.832031 91.304688 54.335938 96.332031 L 51.191406 96.710938 C 51.191406 96.710938 50.6875 93.691406 50.4375 92.183594 C 50.183594 90.675781 50.4375 88.664062 50.4375 88.664062 L 50.8125 88.789062 "/>
<path fill-rule="nonzero" fill="rgb(98.765564%, 82.582092%, 69.113159%)" fill-opacity="1" d="M 57.101562 86.023438 C 58.105469 86.527344 59.238281 87.40625 60.117188 88.789062 C 61.058594 90.265625 60.871094 92.058594 60.242188 93.441406 C 59.613281 94.824219 59.363281 95.074219 59.363281 94.699219 C 59.363281 94.320312 59.867188 92.9375 59.738281 91.179688 C 59.613281 89.417969 59.363281 89.042969 58.484375 88.160156 C 57.601562 87.28125 57.730469 86.777344 57.730469 86.777344 L 57.101562 86.023438 "/>
<path fill-rule="nonzero" fill="rgb(99.456787%, 92.23938%, 85.910034%)" fill-opacity="1" d="M 50.9375 89.417969 C 51.441406 88.914062 58.355469 86.652344 58.859375 86.652344 C 59.363281 86.652344 59.738281 87.910156 59.113281 88.160156 C 58.484375 88.414062 51.695312 90.550781 51.191406 90.425781 C 50.6875 90.296875 50.9375 89.417969 50.9375 89.417969 "/>
<path fill-rule="nonzero" fill="rgb(99.032593%, 86.282349%, 75.448608%)" fill-opacity="1" d="M 38.617188 1.03125 C 37.332031 1.457031 44.902344 4.300781 47.671875 4.300781 C 50.4375 4.300781 50.4375 3.796875 49.429688 3.292969 C 48.425781 2.792969 39.371094 0.78125 38.617188 1.03125 "/>
<path fill-rule="nonzero" fill="rgb(99.032593%, 86.282349%, 75.448608%)" fill-opacity="1" d="M 43.859375 0.835938 C 43.859375 0.835938 45.023438 1.585938 46.28125 1.980469 C 49.25 2.914062 54.125 3.988281 55.464844 3.796875 C 55.519531 3.789062 58.429688 3.21875 55.71875 2.539062 C 53.46875 1.976562 43.859375 0.835938 43.859375 0.835938 "/>
<path fill-rule="nonzero" fill="rgb(98.985291%, 85.113525%, 61.38916%)" fill-opacity="1" d="M 47.347656 6.523438 C 44.929688 6.492188 32.835938 6.058594 32.835938 6.058594 C 32.835938 6.058594 31.410156 7.273438 32.917969 7.777344 C 34.425781 8.277344 45.609375 7.8125 47.117188 7.8125 C 48.625 7.8125 48.035156 6.53125 47.347656 6.523438 "/>
<path fill-rule="nonzero" fill="rgb(98.985291%, 85.113525%, 61.38916%)" fill-opacity="1" d="M 26.773438 8.183594 C 26.15625 8.335938 16.769531 19.726562 16.464844 20.648438 C 16.15625 21.570312 17.203125 23.191406 19.328125 21.5 C 20.078125 20.902344 22.402344 16.605469 23.859375 14.957031 C 25.140625 13.5 26.417969 10.488281 26.949219 10.113281 C 27.816406 9.507812 28.003906 8.183594 28.003906 7.722656 C 28.003906 7.261719 26.773438 8.183594 26.773438 8.183594 "/>
<path fill-rule="nonzero" fill="rgb(98.985291%, 85.113525%, 61.38916%)" fill-opacity="1" d="M 14 28.957031 C 12.285156 27.8125 8.769531 43.730469 7.230469 44.960938 C 5.691406 46.191406 6.308594 54.195312 6 56.65625 C 5.691406 59.117188 7.230469 61.886719 7.539062 57.269531 C 7.847656 52.65625 6.617188 48.960938 7.847656 47.421875 C 9.078125 45.882812 11.230469 40.652344 12.460938 37.574219 C 13.695312 34.496094 14.925781 29.574219 14 28.957031 "/>
<path fill-rule="nonzero" fill="rgb(89.888%, 74.858093%, 52.29187%)" fill-opacity="1" d="M 49.550781 4.417969 C 50.0625 4.710938 51.375 5.589844 51.011719 7.78125 C 50.644531 9.972656 49.421875 10.640625 48.867188 11.050781 C 48.144531 11.578125 46.441406 11.605469 46.441406 11.605469 C 46.441406 11.605469 49.550781 10.191406 49.988281 9.460938 C 50.425781 8.730469 50.679688 8.074219 50.71875 7.125 C 50.792969 5.296875 49.550781 4.417969 49.550781 4.417969 "/>
<path fill-rule="nonzero" fill="rgb(89.888%, 74.858093%, 52.29187%)" fill-opacity="1" d="M 31.765625 0.226562 C 31.511719 0.289062 34.796875 0.574219 35.230469 0.746094 C 35.664062 0.921875 38.351562 1.179688 38.351562 1.179688 L 38.617188 1.03125 C 38.617188 1.03125 36.703125 0.746094 36.097656 0.574219 C 35.492188 0.398438 32.109375 0.140625 31.765625 0.226562 "/>
<g clip-path="url(#clip-1)">
<path fill-rule="nonzero" fill="rgb(98.852539%, 83.255005%, 56.697083%)" fill-opacity="1" d="M 241.703125 98.824219 C 233.902344 91.152344 233.976562 71.332031 228.800781 61.625 C 223.625 51.917969 221.722656 57.519531 215.851562 50.078125 C 214.398438 48.238281 209.960938 46 208.125 45.234375 C 206.238281 44.445312 201.953125 44.941406 202.460938 49.480469 C 202.675781 51.359375 205.992188 54.089844 200.898438 49.179688 C 197.972656 46.359375 194.535156 43.128906 190.699219 43.5 C 188.710938 43.695312 186.113281 45.109375 185.476562 47.148438 C 184.6875 49.667969 189.511719 55.730469 189.511719 55.730469 C 189.511719 55.730469 188.429688 49.992188 181.582031 47.101562 C 179.777344 46.339844 177.058594 46.691406 175.53125 47.597656 C 174.007812 48.503906 173.613281 49.882812 173.34375 50.125 C 167.992188 54.996094 182.320312 65.808594 178.199219 61.042969 C 177.621094 60.375 173.351562 56.421875 172.210938 55.007812 C 171.453125 54.0625 169.625 50.664062 165.863281 49.109375 C 163.90625 48.300781 159.339844 47.914062 157.117188 48.09375 C 153.898438 48.351562 148.496094 51.027344 147.261719 53.09375 C 146.589844 54.21875 146.148438 55.859375 145.316406 56.992188 C 143.792969 59.070312 145.339844 62.125 147.292969 62.613281 C 153.761719 64.222656 155.28125 59.6875 155.921875 60.753906 C 156.179688 61.183594 158.195312 63.78125 158.878906 64.964844 C 160.164062 67.195312 162.046875 67.222656 165.035156 71.046875 C 167.214844 73.84375 168.523438 78.171875 170.035156 79.699219 C 174.605469 84.316406 186.429688 103.355469 183.84375 102.894531 C 179.835938 102.179688 168.484375 93.832031 166.769531 83.667969 C 166.28125 80.785156 160.773438 76.355469 157.433594 74.976562 C 152.859375 73.089844 146.097656 73.855469 148.089844 79.042969 C 149.574219 82.914062 154.410156 88.660156 155.152344 94.882812 C 155.6875 99.351562 162.902344 107.105469 163.84375 111.695312 C 164.605469 115.417969 168.707031 117.746094 172.644531 119.375 C 175.304688 120.476562 177.894531 122.449219 179.328125 123.125 C 189.054688 127.699219 191.109375 128.648438 199.648438 132.261719 C 199.648438 132.261719 210.503906 125.125 216.398438 125.46875 C 225.207031 125.988281 232.457031 121.324219 239.195312 117.179688 C 245.929688 113.039062 246.964844 105.785156 246.964844 105.785156 L 241.703125 98.824219 "/>
</g>
<path fill-rule="nonzero" fill="rgb(76.243591%, 63.15155%, 54.908752%)" fill-opacity="1" d="M 172.210938 55.007812 C 173.507812 56.300781 177.765625 61.15625 179.863281 62.402344 C 181.9375 63.632812 186.148438 66.289062 187.011719 67.585938 C 187.515625 68.34375 190.515625 67.769531 189.78125 66.941406 C 189.539062 66.664062 188.777344 67.710938 187.242188 66.742188 C 186.636719 66.359375 185.449219 65.15625 184.421875 64.511719 C 180.480469 62.042969 172.210938 55.007812 172.210938 55.007812 "/>
<path fill-rule="nonzero" fill="rgb(78.669739%, 66.688538%, 58.92334%)" fill-opacity="1" d="M 159.117188 52.523438 C 159.242188 51.886719 163.058594 49 164.847656 48.941406 C 166.445312 48.886719 166.886719 49.445312 166.886719 49.445312 C 166.886719 49.445312 163.953125 48.816406 161.917969 50.734375 C 160.292969 52.261719 159.117188 52.523438 159.117188 52.523438 "/>
<path fill-rule="nonzero" fill="rgb(78.669739%, 66.688538%, 58.92334%)" fill-opacity="1" d="M 161.285156 52.648438 C 161.667969 52.136719 163.703125 51.109375 164.722656 50.597656 C 165.742188 50.085938 166.378906 49.574219 165.867188 49.574219 C 165.359375 49.578125 160.902344 52.394531 160.648438 52.648438 C 160.394531 52.90625 161.285156 52.648438 161.285156 52.648438 "/>
<path fill-rule="nonzero" fill="rgb(78.669739%, 66.688538%, 58.92334%)" fill-opacity="1" d="M 161.03125 53.667969 C 162.050781 53.285156 164.851562 51.875 165.617188 51.105469 C 166.378906 50.339844 166.636719 50.464844 166.382812 50.851562 C 166.125 51.234375 163.324219 53.023438 162.5625 53.28125 C 161.796875 53.539062 161.03125 53.667969 161.03125 53.667969 "/>
<path fill-rule="nonzero" fill="rgb(90.104675%, 75.349426%, 53.172302%)" fill-opacity="1" d="M 150.929688 58.898438 C 152.5 59.644531 155.214844 60.21875 155.296875 60.632812 C 155.378906 61.042969 153.542969 62.34375 152.003906 62.675781 C 149.738281 63.167969 146.148438 62.625 145.539062 61.191406 C 144.851562 59.574219 145.855469 58.757812 146.445312 58.246094 C 147.027344 57.75 147.789062 55.933594 148.136719 56.753906 C 148.65625 57.984375 150.929688 58.898438 150.929688 58.898438 "/>
<path fill-rule="nonzero" fill="rgb(99.01123%, 85.974121%, 74.914551%)" fill-opacity="1" d="M 150.21875 83.183594 C 149.796875 82.140625 148.96875 80.429688 148.152344 79.242188 C 146.734375 77.183594 148.230469 75.238281 151.203125 75.046875 C 153.238281 74.914062 155.804688 75.359375 157.710938 78.632812 C 158.28125 79.609375 159.144531 82.609375 157.457031 83.359375 C 154.871094 84.507812 153.019531 87.246094 152.4375 86.878906 C 151.527344 86.304688 150.21875 83.183594 150.21875 83.183594 "/>
<path fill-rule="nonzero" fill="rgb(99.211121%, 88.766479%, 79.771423%)" fill-opacity="1" d="M 152.4375 86.878906 C 151.1875 85.792969 152.386719 84.925781 152.460938 84.867188 C 153.886719 83.710938 157.6875 82.0625 158.160156 82.332031 C 158.632812 82.601562 156.019531 83.71875 154.570312 85.121094 C 152.652344 86.976562 152.4375 86.878906 152.4375 86.878906 "/>
<path fill-rule="nonzero" fill="rgb(98.765564%, 82.582092%, 69.113159%)" fill-opacity="1" d="M 147.875 79 C 147.902344 78.425781 148.164062 77.621094 148.984375 76.921875 C 149.804688 76.226562 151.511719 75.824219 152.292969 75.871094 C 153.070312 75.917969 153.078125 76.152344 152.152344 76.578125 C 151.222656 77.003906 150.09375 76.8125 149.375 77.546875 C 148.652344 78.277344 148.914062 77.992188 148.738281 78.394531 C 148.5625 78.796875 147.875 79 147.875 79 "/>
<path fill-rule="nonzero" fill="rgb(99.456787%, 92.23938%, 85.910034%)" fill-opacity="1" d="M 152.917969 75.800781 C 153.242188 76.066406 155.800781 77.460938 156.566406 79.230469 C 157.332031 81 157.714844 80.746094 157.859375 80.367188 C 158.003906 79.988281 157.472656 78.199219 156.582031 77.394531 C 155.691406 76.589844 154.171875 75.769531 153.9375 75.789062 C 153.703125 75.808594 152.917969 75.800781 152.917969 75.800781 "/>
<path fill-rule="nonzero" fill="rgb(76.243591%, 63.15155%, 54.908752%)" fill-opacity="1" d="M 185.386719 49.488281 C 186.683594 50.785156 190.195312 54.289062 192.296875 55.535156 C 194.367188 56.765625 198.054688 60.734375 198.917969 62.03125 C 199.421875 62.789062 202.421875 62.214844 201.6875 61.386719 C 201.441406 61.109375 200.679688 62.15625 199.148438 61.1875 C 198.542969 60.804688 197.355469 59.601562 196.328125 58.957031 C 192.386719 56.488281 185.386719 49.488281 185.386719 49.488281 "/>
<path fill-rule="nonzero" fill="rgb(76.243591%, 63.15155%, 54.908752%)" fill-opacity="1" d="M 204.238281 52.707031 C 205.535156 54.003906 206.734375 56.046875 208.835938 57.292969 C 210.90625 58.523438 209.445312 58.007812 210.585938 59.066406 C 211.347656 59.777344 214.089844 59.746094 213.355469 58.917969 C 213.109375 58.640625 212.894531 59.429688 211.363281 58.460938 C 210.757812 58.078125 211.785156 58.679688 210.757812 58.035156 C 206.71875 55.507812 204.238281 52.707031 204.238281 52.707031 "/>
<path fill-rule="nonzero" fill="rgb(74.816895%, 61.091614%, 52.606201%)" fill-opacity="1" d="M 155.113281 94.386719 C 155.675781 93.824219 158.792969 91.585938 160.230469 91.746094 C 161.671875 91.90625 161.992188 91.988281 161.03125 91.988281 C 160.070312 91.988281 158.3125 92.308594 157.035156 93.265625 C 155.753906 94.226562 155.152344 94.882812 155.152344 94.882812 L 155.113281 94.386719 "/>
<path fill-rule="nonzero" fill="rgb(74.816895%, 61.091614%, 52.606201%)" fill-opacity="1" d="M 155.195312 95.664062 C 155.753906 95.1875 158.074219 93.667969 159.511719 93.347656 C 160.953125 93.027344 159.03125 93.746094 157.832031 94.386719 C 156.632812 95.027344 155.195312 95.664062 155.195312 95.664062 "/>
<path fill-rule="nonzero" fill="rgb(74.816895%, 61.091614%, 52.606201%)" fill-opacity="1" d="M 155.992188 97.265625 C 157.113281 97.105469 160.550781 95.425781 161.03125 94.867188 C 161.511719 94.304688 161.910156 94.707031 161.351562 95.027344 C 160.792969 95.34375 158.792969 96.785156 157.511719 97.105469 C 156.234375 97.425781 155.992188 97.265625 155.992188 97.265625 "/>
<path fill-rule="nonzero" fill="rgb(74.816895%, 61.091614%, 52.606201%)" fill-opacity="1" d="M 154.847656 60.339844 C 154.167969 60.167969 149.058594 58.464844 148.378906 57.273438 C 147.695312 56.082031 147.867188 54.550781 147.867188 54.550781 C 147.867188 54.550781 147.890625 56.652344 149.398438 57.613281 C 151.058594 58.667969 154.847656 60.339844 154.847656 60.339844 "/>
<path fill-rule="nonzero" fill="rgb(74.816895%, 61.091614%, 52.606201%)" fill-opacity="1" d="M 155.921875 60.753906 C 155.820312 60.117188 155.667969 57.21875 156.125 56.761719 C 156.582031 56.304688 156.886719 56 156.886719 56 C 156.886719 56 156.101562 56.941406 156.070312 57.703125 C 156.019531 58.929688 156.15625 61.042969 156.15625 61.042969 "/>
<path fill-rule="nonzero" fill="rgb(74.816895%, 61.091614%, 52.606201%)" fill-opacity="1" d="M 174.589844 50.886719 C 176.800781 50.613281 179.007812 48.125 179.835938 47.574219 C 180.664062 47.023438 180.941406 47.851562 180.941406 47.851562 C 180.941406 47.851562 178.457031 48.957031 177.351562 49.785156 C 176.246094 50.613281 174.589844 50.886719 174.589844 50.886719 "/>
<path fill-rule="nonzero" fill="rgb(98.654175%, 80.500793%, 49.806213%)" fill-opacity="1" d="M 162.554688 67.359375 C 167.167969 72.632812 180.519531 75.796875 184.472656 76.457031 C 188.429688 77.117188 188.757812 74.273438 190.074219 80.207031 C 191.394531 86.140625 192.710938 86.574219 193.519531 93.078125 C 194.757812 103.027344 205.761719 106.0625 207.148438 115.535156 C 208.203125 122.742188 198.015625 126.585938 199.199219 128.21875 C 200.066406 129.421875 188.417969 119.636719 179.769531 112.160156 C 176.242188 109.109375 174.332031 105.75 171.96875 102.796875 C 167.46875 97.171875 163.550781 84.667969 166.125 82.753906 C 166.613281 82.390625 168.222656 87.195312 169.476562 89.941406 C 170.351562 91.859375 171.285156 93.800781 172.085938 94.761719 C 173.148438 96.035156 174.261719 97.054688 175.464844 98.089844 C 178.464844 100.671875 179.769531 101.121094 181.632812 101.78125 C 186.503906 103.507812 182.84375 99.65625 182.289062 98.179688 C 180.3125 92.902344 173.101562 82.660156 170.464844 78.703125 C 167.828125 74.746094 162.554688 67.359375 162.554688 67.359375 "/>
<path fill-rule="nonzero" fill="rgb(98.654175%, 80.500793%, 49.806213%)" fill-opacity="1" d="M 195.886719 68.3125 C 196.484375 69.703125 195.886719 73.078125 197.476562 74.464844 C 199.0625 75.855469 200.054688 75.261719 202.238281 78.238281 C 204.421875 81.214844 203.828125 79.628906 203.03125 76.253906 C 202.238281 72.878906 202.636719 71.289062 200.054688 69.109375 C 197.476562 66.925781 195.09375 66.328125 195.09375 66.328125 L 195.886719 68.3125 "/>
<path fill-rule="nonzero" fill="rgb(98.654175%, 80.500793%, 49.806213%)" fill-opacity="1" d="M 209.382812 69.503906 C 208.988281 68.3125 209.382812 67.917969 210.574219 66.328125 C 211.765625 64.742188 213.75 63.949219 214.148438 65.535156 C 214.546875 67.121094 216.925781 77.046875 217.722656 78.238281 C 218.515625 79.429688 215.339844 75.0625 213.75 73.871094 C 212.164062 72.679688 209.382812 69.503906 209.382812 69.503906 "/>
<path fill-rule="nonzero" fill="rgb(98.654175%, 80.500793%, 49.806213%)" fill-opacity="1" d="M 228.042969 73.472656 C 226.058594 70.695312 222.484375 66.328125 222.085938 64.34375 C 221.691406 62.359375 221.691406 61.167969 222.882812 61.167969 C 224.070312 61.167969 226.453125 67.121094 226.453125 67.121094 L 228.042969 73.472656 "/>
<path fill-rule="nonzero" fill="rgb(74.816895%, 61.091614%, 52.606201%)" fill-opacity="1" d="M 168.023438 87.503906 C 167.542969 88.140625 166.789062 88.070312 165.667969 88.230469 C 164.550781 88.390625 167.949219 87.417969 167.949219 87.417969 "/>
</svg>
