<?xml version="1.0" encoding="UTF-8"?>
<svg xmlns="http://www.w3.org/2000/svg" xmlns:xlink="http://www.w3.org/1999/xlink" width="181.5" height="157.5" viewBox="0 0 181.5 157.5">
<path fill="none" stroke-width="5" stroke-linecap="round" stroke-linejoin="round" stroke="rgb(0%, 0%, 100%)" stroke-opacity="1" stroke-miterlimit="10" d="M 900.830357 1537.498512 L 43.664683 37.478175 L 1771.319444 37.478175 " transform="matrix(0.0996835, 0, 0, -0.0996835, 0.0379747, 157.001582)"/>
<path fill="none" stroke-width="5" stroke-linecap="round" stroke-linejoin="round" stroke="rgb(100%, 0%, 0%)" stroke-opacity="1" stroke-miterlimit="10" d="M 43.664683 37.478175 L 1336.074901 787.507937 " transform="matrix(0.0996835, 0, 0, -0.0996835, 0.0379747, 157.001582)"/>
<path fill="none" stroke-width="5" stroke-linecap="round" stroke-linejoin="round" stroke="rgb(100%, 0%, 0%)" stroke-opacity="1" stroke-miterlimit="10" d="M 262.834821 258.098214 L 311.543651 307.159722 " transform="matrix(0.0996835, 0, 0, -0.0996835, 0.0379747, 157.001582)"/>
<path fill="none" stroke-width="5" stroke-linecap="round" stroke-linejoin="round" stroke="rgb(100%, 0%, 0%)" stroke-opacity="1" stroke-miterlimit="10" d="M 342.540179 210.917659 C 311.974702 263.623512 268.00744 307.277282 215.105655 337.490079 " transform="matrix(0.0996835, 0, 0, -0.0996835, 0.0379747, 157.001582)"/>
<path fill="none" stroke-width="5" stroke-linecap="round" stroke-linejoin="round" stroke="rgb(100%, 0%, 0%)" stroke-opacity="1" stroke-miterlimit="10" d="M 343.990079 118.31994 L 410.685516 136.267361 " transform="matrix(0.0996835, 0, 0, -0.0996835, 0.0379747, 157.001582)"/>
<path fill="none" stroke-width="5" stroke-linecap="round" stroke-linejoin="round" stroke="rgb(100%, 0%, 0%)" stroke-opacity="1" stroke-miterlimit="10" d="M 389.21131 37.478175 C 389.21131 98.413194 373.105655 158.250992 342.540179 210.917659 " transform="matrix(0.0996835, 0, 0, -0.0996835, 0.0379747, 157.001582)"/>
<path fill="none" stroke-width="5" stroke-linecap="round" stroke-linejoin="round" stroke="rgb(100%, 0%, 0%)" stroke-opacity="1" stroke-miterlimit="10" d="M 389.21131 37.478175 C 389.21131 161.503472 322.790179 275.967262 215.105655 337.490079 " transform="matrix(0.0996835, 0, 0, -0.0996835, 0.0379747, 157.001582)"/>
</svg>
