<?xml version="1.0" encoding="UTF-8"?>
<svg xmlns="http://www.w3.org/2000/svg" xmlns:xlink="http://www.w3.org/1999/xlink" width="261.13" height="288" viewBox="0 0 261.13 288">
<path fill-rule="nonzero" fill="rgb(0%, 0%, 0%)" fill-opacity="1" d="M 109.964844 181.785156 L 145.933594 181.785156 C 145.933594 161.921875 129.828125 145.816406 109.964844 145.816406 C 90.101562 145.816406 73.996094 161.921875 73.996094 181.785156 C 73.996094 201.648438 90.101562 217.753906 109.964844 217.753906 C 129.828125 217.753906 145.933594 201.648438 145.933594 181.785156 C 145.933594 180.585938 145.871094 179.386719 145.753906 178.195312 "/>
<path fill-rule="nonzero" fill="rgb(0%, 0%, 0%)" fill-opacity="1" d="M 199.882812 136.824219 L 213.371094 136.824219 C 213.371094 129.375 207.332031 123.335938 199.882812 123.335938 C 192.433594 123.335938 186.394531 129.375 186.394531 136.824219 C 186.394531 144.277344 192.433594 150.316406 199.882812 150.316406 C 207.332031 150.316406 213.371094 144.277344 213.371094 136.824219 C 213.371094 136.375 213.351562 135.925781 213.304688 135.480469 "/>
<path fill-rule="nonzero" fill="rgb(0%, 0%, 0%)" fill-opacity="1" d="M 195.386719 208.761719 L 217.871094 208.761719 C 217.871094 196.34375 207.804688 186.28125 195.386719 186.28125 C 182.972656 186.28125 172.90625 196.34375 172.90625 208.761719 C 172.90625 221.175781 182.972656 231.242188 195.386719 231.242188 C 207.804688 231.242188 217.871094 221.175781 217.871094 208.761719 C 217.871094 208.011719 217.832031 207.261719 217.757812 206.515625 "/>
<path fill="none" stroke-width="5" stroke-linecap="round" stroke-linejoin="round" stroke="rgb(0%, 0%, 0%)" stroke-opacity="1" stroke-miterlimit="10" d="M 2176.132338 1382.03408 C 2176.132338 1598.49505 2000.666873 1773.999708 1784.205903 1773.999708 C 1567.70574 1773.999708 1392.240275 1598.49505 1392.240275 1382.03408 C 1392.240275 1165.57311 1567.70574 990.107645 1784.205903 990.107645 C 2000.666873 990.107645 2176.132338 1165.57311 2176.132338 1382.03408 C 2176.132338 1395.124423 2175.466063 1408.175573 2174.172706 1421.187531 " transform="matrix(0.0996679, 0, 0, -0.0996679, 0.000000000000002887, 287.521832)"/>
<path fill="none" stroke-width="5" stroke-linecap="round" stroke-linejoin="round" stroke="rgb(0%, 0%, 0%)" stroke-opacity="1" stroke-miterlimit="10" d="M 2187.302242 828.437991 C 2187.302242 1248.073625 1847.149289 1588.26577 1427.513655 1588.26577 C 1007.917213 1588.26577 667.725067 1248.073625 667.725067 828.437991 C 667.725067 408.841549 1007.917213 68.649404 1427.513655 68.649404 C 1847.149289 68.649404 2187.302242 408.841549 2187.302242 828.437991 C 2187.302242 853.795631 2186.048077 879.114079 2183.500555 904.314948 " transform="matrix(0.0996679, 0, 0, -0.0996679, 0.000000000000002887, 287.521832)"/>
<path fill="none" stroke-width="5" stroke-linecap="round" stroke-linejoin="round" stroke="rgb(0%, 0%, 0%)" stroke-opacity="1" stroke-miterlimit="10" d="M 1899.667431 1299.611951 C 1899.667431 1655.324383 1611.28796 1943.664662 1255.575528 1943.664662 C 899.902288 1943.664662 611.522817 1655.324383 611.522817 1299.611951 C 611.522817 943.899518 899.902288 655.55924 1255.575528 655.55924 C 1611.28796 655.55924 1899.667431 943.899518 1899.667431 1299.611951 C 1899.667431 1321.08952 1898.570037 1342.567088 1896.453634 1363.927079 " transform="matrix(0.0996679, 0, 0, -0.0996679, 0.000000000000002887, 287.521832)"/>
<path fill="none" stroke-width="5" stroke-linecap="round" stroke-linejoin="round" stroke="rgb(0%, 0%, 0%)" stroke-opacity="1" stroke-miterlimit="10" d="M 2549.089534 1104.354201 C 2549.089534 1404.217116 2306.016759 1647.329084 2006.114651 1647.329084 C 1706.251735 1647.329084 1463.139768 1404.217116 1463.139768 1104.354201 C 1463.139768 804.452093 1706.251735 561.340125 2006.114651 561.340125 C 2306.016759 561.340125 2549.089534 804.452093 2549.089534 1104.354201 C 2549.089534 1122.42201 2548.188103 1140.529011 2546.385242 1158.557627 " transform="matrix(0.0996679, 0, 0, -0.0996679, 0.000000000000002887, 287.521832)"/>
<path fill="none" stroke-width="5" stroke-linecap="round" stroke-linejoin="round" stroke="rgb(0%, 0%, 0%)" stroke-opacity="1" stroke-miterlimit="10" d="M 2286.381244 1106.353026 C 2286.381244 1533.396069 1940.192624 1879.58469 1513.149581 1879.58469 C 1086.106537 1879.58469 739.878724 1533.396069 739.878724 1106.353026 C 739.878724 679.309982 1086.106537 333.121362 1513.149581 333.121362 C 1940.192624 333.121362 2286.381244 679.309982 2286.381244 1106.353026 C 2286.381244 1132.141785 2285.087887 1157.891352 2282.501173 1183.562534 " transform="matrix(0.0996679, 0, 0, -0.0996679, 0.000000000000002887, 287.521832)"/>
<path fill="none" stroke-width="5" stroke-linecap="round" stroke-linejoin="round" stroke="rgb(0%, 0%, 0%)" stroke-opacity="1" stroke-miterlimit="10" d="M 1988.556346 1224.479653 C 1988.556346 1375.21456 1866.392877 1497.417223 1715.65797 1497.417223 C 1564.923063 1497.417223 1442.7204 1375.21456 1442.7204 1224.479653 C 1442.7204 1073.744746 1564.923063 951.542084 1715.65797 951.542084 C 1866.392877 951.542084 1988.556346 1073.744746 1988.556346 1224.479653 C 1988.556346 1233.572347 1988.125227 1242.66504 1987.223797 1251.718541 " transform="matrix(0.0996679, 0, 0, -0.0996679, 0.000000000000002887, 287.521832)"/>
<path fill="none" stroke-width="5" stroke-linecap="round" stroke-linejoin="round" stroke="rgb(0%, 0%, 0%)" stroke-opacity="1" stroke-miterlimit="10" d="M 2173.624009 1755.579166 C 2173.624009 2338.648123 1700.960728 2811.311404 1117.891771 2811.311404 C 534.822813 2811.311404 62.159533 2338.648123 62.159533 1755.579166 C 62.159533 1172.510208 534.822813 699.846927 1117.891771 699.846927 C 1700.960728 699.846927 2173.624009 1172.510208 2173.624009 1755.579166 C 2173.624009 1790.774159 2171.86034 1825.969153 2168.372195 1861.007377 " transform="matrix(0.0996679, 0, 0, -0.0996679, 0.000000000000002887, 287.521832)"/>
<path fill="none" stroke-width="5" stroke-linecap="round" stroke-linejoin="round" stroke="rgb(0%, 0%, 0%)" stroke-opacity="1" stroke-miterlimit="10" d="M 2302.019109 969.257159 C 2302.019109 1202.100654 2113.267338 1390.852425 1880.423843 1390.852425 C 1647.580348 1390.852425 1458.789384 1202.100654 1458.789384 969.257159 C 1458.789384 736.413664 1647.580348 547.661893 1880.423843 547.661893 C 2113.267338 547.661893 2302.019109 736.413664 2302.019109 969.257159 C 2302.019109 983.327318 2301.313642 997.358284 2299.902707 1011.350058 " transform="matrix(0.0996679, 0, 0, -0.0996679, 0.000000000000002887, 287.521832)"/>
</svg>
