<?xml version="1.0" encoding="UTF-8"?>
<svg xmlns="http://www.w3.org/2000/svg" xmlns:xlink="http://www.w3.org/1999/xlink" width="187.13" height="190.94" viewBox="0 0 187.13 190.94">
<path fill-rule="nonzero" fill="rgb(75.976562%, 65.625%, 74.804688%)" fill-opacity="1" stroke-width="5" stroke-linecap="round" stroke-linejoin="round" stroke="rgb(0%, 0%, 0%)" stroke-opacity="1" stroke-miterlimit="10" d="M 539.998931 684.727045 L 642.936227 936.752709 L 911.444417 952.33262 " transform="matrix(0.0995372, 0, 0, -0.0995372, -0.000000000000001776, 190.468336)"/>
<path fill-rule="nonzero" fill="rgb(75.976562%, 65.625%, 74.804688%)" fill-opacity="1" stroke-width="5" stroke-linecap="round" stroke-linejoin="round" stroke="rgb(0%, 0%, 0%)" stroke-opacity="1" stroke-miterlimit="10" d="M 911.444417 952.33262 L 941.701625 530.301479 L 539.998931 684.727045 " transform="matrix(0.0995372, 0, 0, -0.0995372, -0.000000000000001776, 190.468336)"/>
<path fill-rule="nonzero" fill="rgb(67.576599%, 58.201599%, 74.414062%)" fill-opacity="1" stroke-width="5" stroke-linecap="round" stroke-linejoin="round" stroke="rgb(0%, 0%, 0%)" stroke-opacity="1" stroke-miterlimit="10" d="M 941.701625 530.301479 L 911.444417 952.33262 L 1186.781081 967.363114 " transform="matrix(0.0995372, 0, 0, -0.0995372, -0.000000000000001776, 190.468336)"/>
<path fill-rule="nonzero" fill="rgb(76.367188%, 58.984375%, 66.014099%)" fill-opacity="1" stroke-width="5" stroke-linecap="round" stroke-linejoin="round" stroke="rgb(0%, 0%, 0%)" stroke-opacity="1" stroke-miterlimit="10" d="M 512.449567 1174.532762 L 894.608694 1374.128297 L 911.444417 952.33262 " transform="matrix(0.0995372, 0, 0, -0.0995372, -0.000000000000001776, 190.468336)"/>
<path fill-rule="nonzero" fill="rgb(76.367188%, 58.984375%, 66.014099%)" fill-opacity="1" stroke-width="5" stroke-linecap="round" stroke-linejoin="round" stroke="rgb(0%, 0%, 0%)" stroke-opacity="1" stroke-miterlimit="10" d="M 911.444417 952.33262 L 642.936227 936.752709 L 512.449567 1174.532762 " transform="matrix(0.0995372, 0, 0, -0.0995372, -0.000000000000001776, 190.468336)"/>
<path fill-rule="nonzero" fill="rgb(67.96875%, 51.756287%, 66.014099%)" fill-opacity="1" stroke-width="5" stroke-linecap="round" stroke-linejoin="round" stroke="rgb(0%, 0%, 0%)" stroke-opacity="1" stroke-miterlimit="10" d="M 1186.781081 967.363114 L 911.444417 952.33262 L 894.608694 1374.128297 " transform="matrix(0.0995372, 0, 0, -0.0995372, -0.000000000000001776, 190.468336)"/>
<path fill-rule="nonzero" fill="rgb(67.576599%, 58.201599%, 74.414062%)" fill-opacity="1" stroke-width="5" stroke-linecap="round" stroke-linejoin="round" stroke="rgb(0%, 0%, 0%)" stroke-opacity="1" stroke-miterlimit="10" d="M 1186.781081 967.363114 L 1326.490107 731.427534 L 941.701625 530.301479 " transform="matrix(0.0995372, 0, 0, -0.0995372, -0.000000000000001776, 190.468336)"/>
<path fill-rule="nonzero" fill="rgb(58.984375%, 47.605896%, 69.139099%)" fill-opacity="1" stroke-width="5" stroke-linecap="round" stroke-linejoin="round" stroke="rgb(0%, 0%, 0%)" stroke-opacity="1" stroke-miterlimit="10" d="M 1326.490107 731.427534 L 1186.781081 967.363114 L 1299.686381 1216.484714 " transform="matrix(0.0995372, 0, 0, -0.0995372, -0.000000000000001776, 190.468336)"/>
<path fill-rule="nonzero" fill="rgb(67.96875%, 51.756287%, 66.014099%)" fill-opacity="1" stroke-width="5" stroke-linecap="round" stroke-linejoin="round" stroke="rgb(0%, 0%, 0%)" stroke-opacity="1" stroke-miterlimit="10" d="M 894.608694 1374.128297 L 1299.686381 1216.484714 L 1186.781081 967.363114 " transform="matrix(0.0995372, 0, 0, -0.0995372, -0.000000000000001776, 190.468336)"/>
<path fill-rule="nonzero" fill="rgb(83.789062%, 68.943787%, 69.726562%)" fill-opacity="1" stroke-width="5" stroke-linecap="round" stroke-linejoin="round" stroke="rgb(0%, 0%, 0%)" stroke-opacity="1" stroke-miterlimit="10" d="M 219.099857 910.616133 L 512.449567 1174.532762 L 642.936227 936.752709 " transform="matrix(0.0995372, 0, 0, -0.0995372, -0.000000000000001776, 190.468336)"/>
<path fill-rule="nonzero" fill="rgb(83.789062%, 68.943787%, 69.726562%)" fill-opacity="1" stroke-width="5" stroke-linecap="round" stroke-linejoin="round" stroke="rgb(0%, 0%, 0%)" stroke-opacity="1" stroke-miterlimit="10" d="M 642.936227 936.752709 L 539.998931 684.727045 L 219.099857 910.616133 " transform="matrix(0.0995372, 0, 0, -0.0995372, -0.000000000000001776, 190.468336)"/>
<path fill-rule="nonzero" fill="rgb(67.1875%, 72.851562%, 89.256287%)" fill-opacity="1" stroke-width="5" stroke-linecap="round" stroke-linejoin="round" stroke="rgb(0%, 0%, 0%)" stroke-opacity="1" stroke-miterlimit="10" d="M 722.484035 270.623214 L 941.701625 530.301479 L 1228.183616 303.313556 " transform="matrix(0.0995372, 0, 0, -0.0995372, -0.000000000000001776, 190.468336)"/>
<path fill-rule="nonzero" fill="rgb(77.929688%, 75.584412%, 83.201599%)" fill-opacity="1" stroke-width="5" stroke-linecap="round" stroke-linejoin="round" stroke="rgb(0%, 0%, 0%)" stroke-opacity="1" stroke-miterlimit="10" d="M 539.998931 684.727045 L 941.701625 530.301479 L 722.484035 270.623214 " transform="matrix(0.0995372, 0, 0, -0.0995372, -0.000000000000001776, 190.468336)"/>
<path fill-rule="nonzero" fill="rgb(61.326599%, 60.546875%, 82.03125%)" fill-opacity="1" stroke-width="5" stroke-linecap="round" stroke-linejoin="round" stroke="rgb(0%, 0%, 0%)" stroke-opacity="1" stroke-miterlimit="10" d="M 1228.183616 303.313556 L 941.701625 530.301479 L 1326.490107 731.427534 " transform="matrix(0.0995372, 0, 0, -0.0995372, -0.000000000000001776, 190.468336)"/>
<path fill-rule="nonzero" fill="rgb(79.492188%, 53.514099%, 54.6875%)" fill-opacity="1" stroke-width="5" stroke-linecap="round" stroke-linejoin="round" stroke="rgb(0%, 0%, 0%)" stroke-opacity="1" stroke-miterlimit="10" d="M 445.930803 1389.551232 L 647.684765 1603.902552 L 894.608694 1374.128297 " transform="matrix(0.0995372, 0, 0, -0.0995372, -0.000000000000001776, 190.468336)"/>
<path fill-rule="nonzero" fill="rgb(79.492188%, 53.514099%, 54.6875%)" fill-opacity="1" stroke-width="5" stroke-linecap="round" stroke-linejoin="round" stroke="rgb(0%, 0%, 0%)" stroke-opacity="1" stroke-miterlimit="10" d="M 894.608694 1374.128297 L 512.449567 1174.532762 L 445.930803 1389.551232 " transform="matrix(0.0995372, 0, 0, -0.0995372, -0.000000000000001776, 190.468336)"/>
<path fill-rule="nonzero" fill="rgb(62.693787%, 39.697266%, 55.076599%)" fill-opacity="1" stroke-width="5" stroke-linecap="round" stroke-linejoin="round" stroke="rgb(0%, 0%, 0%)" stroke-opacity="1" stroke-miterlimit="10" d="M 894.608694 1374.128297 L 1154.718645 1628.194655 L 1367.578689 1436.094744 " transform="matrix(0.0995372, 0, 0, -0.0995372, -0.000000000000001776, 190.468336)"/>
<path fill-rule="nonzero" fill="rgb(62.693787%, 39.697266%, 55.076599%)" fill-opacity="1" stroke-width="5" stroke-linecap="round" stroke-linejoin="round" stroke="rgb(0%, 0%, 0%)" stroke-opacity="1" stroke-miterlimit="10" d="M 1367.578689 1436.094744 L 1299.686381 1216.484714 L 894.608694 1374.128297 " transform="matrix(0.0995372, 0, 0, -0.0995372, -0.000000000000001776, 190.468336)"/>
<path fill-rule="nonzero" fill="rgb(69.53125%, 38.401794%, 44.50531%)" fill-opacity="1" stroke-width="5" stroke-linecap="round" stroke-linejoin="round" stroke="rgb(0%, 0%, 0%)" stroke-opacity="1" stroke-miterlimit="10" d="M 905.204604 1720.222089 L 1154.718645 1628.194655 L 894.608694 1374.128297 " transform="matrix(0.0995372, 0, 0, -0.0995372, -0.000000000000001776, 190.468336)"/>
<path fill-rule="nonzero" fill="rgb(69.53125%, 38.401794%, 44.50531%)" fill-opacity="1" stroke-width="5" stroke-linecap="round" stroke-linejoin="round" stroke="rgb(0%, 0%, 0%)" stroke-opacity="1" stroke-miterlimit="10" d="M 894.608694 1374.128297 L 647.684765 1603.902552 L 905.204604 1720.222089 " transform="matrix(0.0995372, 0, 0, -0.0995372, -0.000000000000001776, 190.468336)"/>
<path fill-rule="nonzero" fill="rgb(61.326599%, 60.546875%, 82.03125%)" fill-opacity="1" stroke-width="5" stroke-linecap="round" stroke-linejoin="round" stroke="rgb(0%, 0%, 0%)" stroke-opacity="1" stroke-miterlimit="10" d="M 1326.490107 731.427534 L 1418.203588 518.332026 L 1228.183616 303.313556 " transform="matrix(0.0995372, 0, 0, -0.0995372, -0.000000000000001776, 190.468336)"/>
<path fill-rule="nonzero" fill="rgb(50%, 47.509766%, 76.171875%)" fill-opacity="1" stroke-width="5" stroke-linecap="round" stroke-linejoin="round" stroke="rgb(0%, 0%, 0%)" stroke-opacity="1" stroke-miterlimit="10" d="M 1326.490107 731.427534 L 1641.73803 990.791847 L 1648.017087 570.644422 " transform="matrix(0.0995372, 0, 0, -0.0995372, -0.000000000000001776, 190.468336)"/>
<path fill-rule="nonzero" fill="rgb(50%, 47.509766%, 76.171875%)" fill-opacity="1" stroke-width="5" stroke-linecap="round" stroke-linejoin="round" stroke="rgb(0%, 0%, 0%)" stroke-opacity="1" stroke-miterlimit="10" d="M 1648.017087 570.644422 L 1418.203588 518.332026 L 1326.490107 731.427534 " transform="matrix(0.0995372, 0, 0, -0.0995372, -0.000000000000001776, 190.468336)"/>
<path fill-rule="nonzero" fill="rgb(58.984375%, 47.605896%, 69.139099%)" fill-opacity="1" stroke-width="5" stroke-linecap="round" stroke-linejoin="round" stroke="rgb(0%, 0%, 0%)" stroke-opacity="1" stroke-miterlimit="10" d="M 1299.686381 1216.484714 L 1641.73803 990.791847 L 1326.490107 731.427534 " transform="matrix(0.0995372, 0, 0, -0.0995372, -0.000000000000001776, 190.468336)"/>
<path fill-rule="nonzero" fill="rgb(50.78125%, 33.006287%, 57.421875%)" fill-opacity="1" stroke-width="5" stroke-linecap="round" stroke-linejoin="round" stroke="rgb(0%, 0%, 0%)" stroke-opacity="1" stroke-miterlimit="10" d="M 1299.686381 1216.484714 L 1367.578689 1436.094744 L 1602.140724 1406.583175 " transform="matrix(0.0995372, 0, 0, -0.0995372, -0.000000000000001776, 190.468336)"/>
<path fill-rule="nonzero" fill="rgb(50.78125%, 33.006287%, 57.421875%)" fill-opacity="1" stroke-width="5" stroke-linecap="round" stroke-linejoin="round" stroke="rgb(0%, 0%, 0%)" stroke-opacity="1" stroke-miterlimit="10" d="M 1602.140724 1406.583175 L 1641.73803 990.791847 L 1299.686381 1216.484714 " transform="matrix(0.0995372, 0, 0, -0.0995372, -0.000000000000001776, 190.468336)"/>
<path fill-rule="nonzero" fill="rgb(77.929688%, 75.584412%, 83.201599%)" fill-opacity="1" stroke-width="5" stroke-linecap="round" stroke-linejoin="round" stroke="rgb(0%, 0%, 0%)" stroke-opacity="1" stroke-miterlimit="10" d="M 722.484035 270.623214 L 498.321688 461.15336 L 539.998931 684.727045 " transform="matrix(0.0995372, 0, 0, -0.0995372, -0.000000000000001776, 190.468336)"/>
<path fill-rule="nonzero" fill="rgb(88.084412%, 81.443787%, 77.929688%)" fill-opacity="1" stroke-width="5" stroke-linecap="round" stroke-linejoin="round" stroke="rgb(0%, 0%, 0%)" stroke-opacity="1" stroke-miterlimit="10" d="M 219.099857 910.616133 L 539.998931 684.727045 L 498.321688 461.15336 " transform="matrix(0.0995372, 0, 0, -0.0995372, -0.000000000000001776, 190.468336)"/>
<path fill-rule="nonzero" fill="rgb(89.256287%, 65.039062%, 56.639099%)" fill-opacity="1" stroke-width="5" stroke-linecap="round" stroke-linejoin="round" stroke="rgb(0%, 0%, 0%)" stroke-opacity="1" stroke-miterlimit="10" d="M 445.930803 1389.551232 L 512.449567 1174.532762 L 219.099857 910.616133 " transform="matrix(0.0995372, 0, 0, -0.0995372, -0.000000000000001776, 190.468336)"/>
<path fill-rule="nonzero" fill="rgb(43.089294%, 54.492188%, 86.914062%)" fill-opacity="1" stroke-width="5" stroke-linecap="round" stroke-linejoin="round" stroke="rgb(0%, 0%, 0%)" stroke-opacity="1" stroke-miterlimit="10" d="M 1418.203588 518.332026 L 1648.017087 570.644422 L 1483.545029 212.816642 " transform="matrix(0.0995372, 0, 0, -0.0995372, -0.000000000000001776, 190.468336)"/>
<path fill-rule="nonzero" fill="rgb(43.089294%, 54.492188%, 86.914062%)" fill-opacity="1" stroke-width="5" stroke-linecap="round" stroke-linejoin="round" stroke="rgb(0%, 0%, 0%)" stroke-opacity="1" stroke-miterlimit="10" d="M 1483.545029 212.816642 L 1228.183616 303.313556 L 1418.203588 518.332026 " transform="matrix(0.0995372, 0, 0, -0.0995372, -0.000000000000001776, 190.468336)"/>
<path fill-rule="nonzero" fill="rgb(21.409607%, 23.094177%, 66.014099%)" fill-opacity="1" stroke-width="5" stroke-linecap="round" stroke-linejoin="round" stroke="rgb(0%, 0%, 0%)" stroke-opacity="1" stroke-miterlimit="10" d="M 1641.73803 990.791847 L 1839.135895 998.365959 L 1784.704317 689.043897 " transform="matrix(0.0995372, 0, 0, -0.0995372, -0.000000000000001776, 190.468336)"/>
<path fill-rule="nonzero" fill="rgb(21.409607%, 23.094177%, 66.014099%)" fill-opacity="1" stroke-width="5" stroke-linecap="round" stroke-linejoin="round" stroke="rgb(0%, 0%, 0%)" stroke-opacity="1" stroke-miterlimit="10" d="M 1784.704317 689.043897 L 1648.017087 570.644422 L 1641.73803 990.791847 " transform="matrix(0.0995372, 0, 0, -0.0995372, -0.000000000000001776, 190.468336)"/>
<path fill-rule="nonzero" fill="rgb(22.093201%, 8.787537%, 47.900391%)" fill-opacity="1" stroke-width="5" stroke-linecap="round" stroke-linejoin="round" stroke="rgb(0%, 0%, 0%)" stroke-opacity="1" stroke-miterlimit="10" d="M 1641.73803 990.791847 L 1602.140724 1406.583175 L 1751.30758 1299.917688 " transform="matrix(0.0995372, 0, 0, -0.0995372, -0.000000000000001776, 190.468336)"/>
<path fill-rule="nonzero" fill="rgb(22.093201%, 8.787537%, 47.900391%)" fill-opacity="1" stroke-width="5" stroke-linecap="round" stroke-linejoin="round" stroke="rgb(0%, 0%, 0%)" stroke-opacity="1" stroke-miterlimit="10" d="M 1751.30758 1299.917688 L 1839.135895 998.365959 L 1641.73803 990.791847 " transform="matrix(0.0995372, 0, 0, -0.0995372, -0.000000000000001776, 190.468336)"/>
<path fill-rule="nonzero" fill="rgb(45.188904%, 15.405273%, 36.791992%)" fill-opacity="1" stroke-width="5" stroke-linecap="round" stroke-linejoin="round" stroke="rgb(0%, 0%, 0%)" stroke-opacity="1" stroke-miterlimit="10" d="M 1602.140724 1406.583175 L 1367.578689 1436.094744 L 1154.718645 1628.194655 " transform="matrix(0.0995372, 0, 0, -0.0995372, -0.000000000000001776, 190.468336)"/>
<path fill-rule="nonzero" fill="rgb(67.1875%, 72.851562%, 89.256287%)" fill-opacity="1" stroke-width="5" stroke-linecap="round" stroke-linejoin="round" stroke="rgb(0%, 0%, 0%)" stroke-opacity="1" stroke-miterlimit="10" d="M 1228.183616 303.313556 L 990.992225 182.363214 L 722.484035 270.623214 " transform="matrix(0.0995372, 0, 0, -0.0995372, -0.000000000000001776, 190.468336)"/>
<path fill-rule="nonzero" fill="rgb(45.506287%, 70.3125%, 97.459412%)" fill-opacity="1" stroke-width="5" stroke-linecap="round" stroke-linejoin="round" stroke="rgb(0%, 0%, 0%)" stroke-opacity="1" stroke-miterlimit="10" d="M 990.992225 182.363214 L 1228.183616 303.313556 L 1483.545029 212.816642 " transform="matrix(0.0995372, 0, 0, -0.0995372, -0.000000000000001776, 190.468336)"/>
<path fill-rule="nonzero" fill="rgb(82.617188%, 91.40625%, 89.646912%)" fill-opacity="1" stroke-width="5" stroke-linecap="round" stroke-linejoin="round" stroke="rgb(0%, 0%, 0%)" stroke-opacity="1" stroke-miterlimit="10" d="M 288.718905 486.858251 L 498.321688 461.15336 L 722.484035 270.623214 " transform="matrix(0.0995372, 0, 0, -0.0995372, -0.000000000000001776, 190.468336)"/>
<path fill-rule="nonzero" fill="rgb(88.084412%, 81.443787%, 77.929688%)" fill-opacity="1" stroke-width="5" stroke-linecap="round" stroke-linejoin="round" stroke="rgb(0%, 0%, 0%)" stroke-opacity="1" stroke-miterlimit="10" d="M 498.321688 461.15336 L 288.718905 486.858251 L 219.099857 910.616133 " transform="matrix(0.0995372, 0, 0, -0.0995372, -0.000000000000001776, 190.468336)"/>
<path fill-rule="nonzero" fill="rgb(89.256287%, 65.039062%, 56.639099%)" fill-opacity="1" stroke-width="5" stroke-linecap="round" stroke-linejoin="round" stroke="rgb(0%, 0%, 0%)" stroke-opacity="1" stroke-miterlimit="10" d="M 219.099857 910.616133 L 240.487896 1337.081859 L 445.930803 1389.551232 " transform="matrix(0.0995372, 0, 0, -0.0995372, -0.000000000000001776, 190.468336)"/>
<path fill-rule="nonzero" fill="rgb(85.742188%, 47.605896%, 32.493591%)" fill-opacity="1" stroke-width="5" stroke-linecap="round" stroke-linejoin="round" stroke="rgb(0%, 0%, 0%)" stroke-opacity="1" stroke-miterlimit="10" d="M 450.797073 1696.322427 L 647.684765 1603.902552 L 445.930803 1389.551232 " transform="matrix(0.0995372, 0, 0, -0.0995372, -0.000000000000001776, 190.468336)"/>
<path fill-rule="nonzero" fill="rgb(85.742188%, 47.605896%, 32.493591%)" fill-opacity="1" stroke-width="5" stroke-linecap="round" stroke-linejoin="round" stroke="rgb(0%, 0%, 0%)" stroke-opacity="1" stroke-miterlimit="10" d="M 445.930803 1389.551232 L 240.487896 1337.081859 L 450.797073 1696.322427 " transform="matrix(0.0995372, 0, 0, -0.0995372, -0.000000000000001776, 190.468336)"/>
<path fill-rule="nonzero" fill="rgb(45.188904%, 15.405273%, 36.791992%)" fill-opacity="1" stroke-width="5" stroke-linecap="round" stroke-linejoin="round" stroke="rgb(0%, 0%, 0%)" stroke-opacity="1" stroke-miterlimit="10" d="M 1154.718645 1628.194655 L 1399.327172 1740.589781 L 1602.140724 1406.583175 " transform="matrix(0.0995372, 0, 0, -0.0995372, -0.000000000000001776, 190.468336)"/>
<path fill-rule="nonzero" fill="rgb(48.997498%, 4.998779%, 12.988281%)" fill-opacity="1" stroke-width="5" stroke-linecap="round" stroke-linejoin="round" stroke="rgb(0%, 0%, 0%)" stroke-opacity="1" stroke-miterlimit="10" d="M 1399.327172 1740.589781 L 1154.718645 1628.194655 L 905.204604 1720.222089 " transform="matrix(0.0995372, 0, 0, -0.0995372, -0.000000000000001776, 190.468336)"/>
<path fill-rule="nonzero" fill="rgb(63.28125%, 87.693787%, 98.631287%)" fill-opacity="1" stroke-width="5" stroke-linecap="round" stroke-linejoin="round" stroke="rgb(0%, 0%, 0%)" stroke-opacity="1" stroke-miterlimit="10" d="M 1019.7974 69.889599 L 537.958238 150.300778 L 722.484035 270.623214 " transform="matrix(0.0995372, 0, 0, -0.0995372, -0.000000000000001776, 190.468336)"/>
<path fill-rule="nonzero" fill="rgb(63.28125%, 87.693787%, 98.631287%)" fill-opacity="1" stroke-width="5" stroke-linecap="round" stroke-linejoin="round" stroke="rgb(0%, 0%, 0%)" stroke-opacity="1" stroke-miterlimit="10" d="M 722.484035 270.623214 L 990.992225 182.363214 L 1019.7974 69.889599 " transform="matrix(0.0995372, 0, 0, -0.0995372, -0.000000000000001776, 190.468336)"/>
<path fill-rule="nonzero" fill="rgb(82.617188%, 91.40625%, 89.646912%)" fill-opacity="1" stroke-width="5" stroke-linecap="round" stroke-linejoin="round" stroke="rgb(0%, 0%, 0%)" stroke-opacity="1" stroke-miterlimit="10" d="M 722.484035 270.623214 L 537.958238 150.300778 L 288.718905 486.858251 " transform="matrix(0.0995372, 0, 0, -0.0995372, -0.000000000000001776, 190.468336)"/>
<path fill-rule="nonzero" fill="rgb(98.046875%, 91.40625%, 63.867188%)" fill-opacity="1" stroke-width="5" stroke-linecap="round" stroke-linejoin="round" stroke="rgb(0%, 0%, 0%)" stroke-opacity="1" stroke-miterlimit="10" d="M 83.001289 899.353074 L 219.099857 910.616133 L 288.718905 486.858251 " transform="matrix(0.0995372, 0, 0, -0.0995372, -0.000000000000001776, 190.468336)"/>
<path fill-rule="nonzero" fill="rgb(99.21875%, 73.826599%, 40.696716%)" fill-opacity="1" stroke-width="5" stroke-linecap="round" stroke-linejoin="round" stroke="rgb(0%, 0%, 0%)" stroke-opacity="1" stroke-miterlimit="10" d="M 240.487896 1337.081859 L 219.099857 910.616133 L 83.001289 899.353074 " transform="matrix(0.0995372, 0, 0, -0.0995372, -0.000000000000001776, 190.468336)"/>
<path fill-rule="nonzero" fill="rgb(67.381287%, 18.992615%, 9.397888%)" fill-opacity="1" stroke-width="5" stroke-linecap="round" stroke-linejoin="round" stroke="rgb(0%, 0%, 0%)" stroke-opacity="1" stroke-miterlimit="10" d="M 647.684765 1603.902552 L 450.797073 1696.322427 L 921.608641 1830.968963 " transform="matrix(0.0995372, 0, 0, -0.0995372, -0.000000000000001776, 190.468336)"/>
<path fill-rule="nonzero" fill="rgb(67.381287%, 18.992615%, 9.397888%)" fill-opacity="1" stroke-width="5" stroke-linecap="round" stroke-linejoin="round" stroke="rgb(0%, 0%, 0%)" stroke-opacity="1" stroke-miterlimit="10" d="M 921.608641 1830.968963 L 905.204604 1720.222089 L 647.684765 1603.902552 " transform="matrix(0.0995372, 0, 0, -0.0995372, -0.000000000000001776, 190.468336)"/>
<path fill-rule="nonzero" fill="rgb(0%, 18.60199%, 71.679688%)" fill-opacity="1" stroke-width="5" stroke-linecap="round" stroke-linejoin="round" stroke="rgb(0%, 0%, 0%)" stroke-opacity="1" stroke-miterlimit="10" d="M 1483.545029 212.816642 L 1648.017087 570.644422 L 1784.704317 689.043897 " transform="matrix(0.0995372, 0, 0, -0.0995372, -0.000000000000001776, 190.468336)"/>
<path fill-rule="nonzero" fill="rgb(0%, 0%, 1.597595%)" fill-opacity="1" stroke-width="5" stroke-linecap="round" stroke-linejoin="round" stroke="rgb(0%, 0%, 0%)" stroke-opacity="1" stroke-miterlimit="10" d="M 1751.30758 1299.917688 L 1602.140724 1406.583175 L 1399.327172 1740.589781 " transform="matrix(0.0995372, 0, 0, -0.0995372, -0.000000000000001776, 190.468336)"/>
<path fill-rule="nonzero" fill="rgb(45.506287%, 70.3125%, 97.459412%)" fill-opacity="1" stroke-width="5" stroke-linecap="round" stroke-linejoin="round" stroke="rgb(0%, 0%, 0%)" stroke-opacity="1" stroke-miterlimit="10" d="M 1483.545029 212.816642 L 1019.7974 69.889599 L 990.992225 182.363214 " transform="matrix(0.0995372, 0, 0, -0.0995372, -0.000000000000001776, 190.468336)"/>
<path fill-rule="nonzero" fill="rgb(48.997498%, 4.998779%, 12.988281%)" fill-opacity="1" stroke-width="5" stroke-linecap="round" stroke-linejoin="round" stroke="rgb(0%, 0%, 0%)" stroke-opacity="1" stroke-miterlimit="10" d="M 905.204604 1720.222089 L 921.608641 1830.968963 L 1399.327172 1740.589781 " transform="matrix(0.0995372, 0, 0, -0.0995372, -0.000000000000001776, 190.468336)"/>
<path fill-rule="nonzero" fill="rgb(71.289062%, 93.554688%, 61.521912%)" fill-opacity="1" stroke-width="5" stroke-linecap="round" stroke-linejoin="round" stroke="rgb(0%, 0%, 0%)" stroke-opacity="1" stroke-miterlimit="10" d="M 268.900631 441.217353 L 174.871747 591.993217 L 288.718905 486.858251 " transform="matrix(0.0995372, 0, 0, -0.0995372, -0.000000000000001776, 190.468336)"/>
<path fill-rule="nonzero" fill="rgb(71.289062%, 93.554688%, 61.521912%)" fill-opacity="1" stroke-width="5" stroke-linecap="round" stroke-linejoin="round" stroke="rgb(0%, 0%, 0%)" stroke-opacity="1" stroke-miterlimit="10" d="M 288.718905 486.858251 L 537.958238 150.300778 L 268.900631 441.217353 " transform="matrix(0.0995372, 0, 0, -0.0995372, -0.000000000000001776, 190.468336)"/>
<path fill-rule="nonzero" fill="rgb(98.046875%, 91.40625%, 63.867188%)" fill-opacity="1" stroke-width="5" stroke-linecap="round" stroke-linejoin="round" stroke="rgb(0%, 0%, 0%)" stroke-opacity="1" stroke-miterlimit="10" d="M 288.718905 486.858251 L 174.871747 591.993217 L 83.001289 899.353074 " transform="matrix(0.0995372, 0, 0, -0.0995372, -0.000000000000001776, 190.468336)"/>
<path fill-rule="nonzero" fill="rgb(99.21875%, 73.826599%, 40.696716%)" fill-opacity="1" stroke-width="5" stroke-linecap="round" stroke-linejoin="round" stroke="rgb(0%, 0%, 0%)" stroke-opacity="1" stroke-miterlimit="10" d="M 83.001289 899.353074 L 139.473561 1215.307391 L 240.487896 1337.081859 " transform="matrix(0.0995372, 0, 0, -0.0995372, -0.000000000000001776, 190.468336)"/>
<path fill-rule="nonzero" fill="rgb(74.21875%, 30.200195%, 0%)" fill-opacity="1" stroke-width="5" stroke-linecap="round" stroke-linejoin="round" stroke="rgb(0%, 0%, 0%)" stroke-opacity="1" stroke-miterlimit="10" d="M 216.156549 1371.38121 L 450.797073 1696.322427 L 240.487896 1337.081859 " transform="matrix(0.0995372, 0, 0, -0.0995372, -0.000000000000001776, 190.468336)"/>
<path fill-rule="nonzero" fill="rgb(74.21875%, 30.200195%, 0%)" fill-opacity="1" stroke-width="5" stroke-linecap="round" stroke-linejoin="round" stroke="rgb(0%, 0%, 0%)" stroke-opacity="1" stroke-miterlimit="10" d="M 240.487896 1337.081859 L 139.473561 1215.307391 L 216.156549 1371.38121 " transform="matrix(0.0995372, 0, 0, -0.0995372, -0.000000000000001776, 190.468336)"/>
<path fill-rule="nonzero" fill="rgb(72.459412%, 49.19281%, 0%)" fill-opacity="1" stroke-width="5" stroke-linecap="round" stroke-linejoin="round" stroke="rgb(0%, 0%, 0%)" stroke-opacity="1" stroke-miterlimit="10" d="M 1784.704317 689.043897 L 1839.135895 998.365959 L 1832.071955 993.813643 " transform="matrix(0.0995372, 0, 0, -0.0995372, -0.000000000000001776, 190.468336)"/>
<path fill-rule="nonzero" fill="rgb(0%, 0%, 1.597595%)" fill-opacity="1" stroke-width="5" stroke-linecap="round" stroke-linejoin="round" stroke="rgb(0%, 0%, 0%)" stroke-opacity="1" stroke-miterlimit="10" d="M 1399.327172 1740.589781 L 1703.939941 1446.612165 L 1751.30758 1299.917688 " transform="matrix(0.0995372, 0, 0, -0.0995372, -0.000000000000001776, 190.468336)"/>
<path fill-rule="nonzero" fill="rgb(71.484375%, 74.414062%, 23.509216%)" fill-opacity="1" stroke-width="5" stroke-linecap="round" stroke-linejoin="round" stroke="rgb(0%, 0%, 0%)" stroke-opacity="1" stroke-miterlimit="10" d="M 1703.939941 1446.612165 L 1832.071955 993.813643 L 1839.135895 998.365959 " transform="matrix(0.0995372, 0, 0, -0.0995372, -0.000000000000001776, 190.468336)"/>
<path fill-rule="nonzero" fill="rgb(71.484375%, 74.414062%, 23.509216%)" fill-opacity="1" stroke-width="5" stroke-linecap="round" stroke-linejoin="round" stroke="rgb(0%, 0%, 0%)" stroke-opacity="1" stroke-miterlimit="10" d="M 1839.135895 998.365959 L 1751.30758 1299.917688 L 1703.939941 1446.612165 " transform="matrix(0.0995372, 0, 0, -0.0995372, -0.000000000000001776, 190.468336)"/>
<path fill-rule="nonzero" fill="rgb(0%, 18.60199%, 71.679688%)" fill-opacity="1" stroke-width="5" stroke-linecap="round" stroke-linejoin="round" stroke="rgb(0%, 0%, 0%)" stroke-opacity="1" stroke-miterlimit="10" d="M 1784.704317 689.043897 L 1753.897691 533.597984 L 1483.545029 212.816642 " transform="matrix(0.0995372, 0, 0, -0.0995372, -0.000000000000001776, 190.468336)"/>
<path fill-rule="nonzero" fill="rgb(72.459412%, 49.19281%, 0%)" fill-opacity="1" stroke-width="5" stroke-linecap="round" stroke-linejoin="round" stroke="rgb(0%, 0%, 0%)" stroke-opacity="1" stroke-miterlimit="10" d="M 1832.071955 993.813643 L 1753.897691 533.597984 L 1784.704317 689.043897 " transform="matrix(0.0995372, 0, 0, -0.0995372, -0.000000000000001776, 190.468336)"/>
<path fill-rule="nonzero" fill="rgb(35.301208%, 0%, 0%)" fill-opacity="1" stroke-width="5" stroke-linecap="round" stroke-linejoin="round" stroke="rgb(0%, 0%, 0%)" stroke-opacity="1" stroke-miterlimit="10" d="M 1019.7974 69.889599 L 1483.545029 212.816642 L 1340.696474 199.944575 " transform="matrix(0.0995372, 0, 0, -0.0995372, -0.000000000000001776, 190.468336)"/>
<path fill-rule="nonzero" fill="rgb(78.318787%, 28.295898%, 0%)" fill-opacity="1" stroke-width="5" stroke-linecap="round" stroke-linejoin="round" stroke="rgb(0%, 0%, 0%)" stroke-opacity="1" stroke-miterlimit="10" d="M 1340.696474 199.944575 L 1483.545029 212.816642 L 1753.897691 533.597984 " transform="matrix(0.0995372, 0, 0, -0.0995372, -0.000000000000001776, 190.468336)"/>
<path fill-rule="nonzero" fill="rgb(74.609375%, 99.21875%, 86.131287%)" fill-opacity="1" stroke-width="5" stroke-linecap="round" stroke-linejoin="round" stroke="rgb(0%, 0%, 0%)" stroke-opacity="1" stroke-miterlimit="10" d="M 1399.327172 1740.589781 L 1256.086177 1729.601431 L 1520.944664 1517.957954 " transform="matrix(0.0995372, 0, 0, -0.0995372, -0.000000000000001776, 190.468336)"/>
<path fill-rule="nonzero" fill="rgb(74.609375%, 99.21875%, 86.131287%)" fill-opacity="1" stroke-width="5" stroke-linecap="round" stroke-linejoin="round" stroke="rgb(0%, 0%, 0%)" stroke-opacity="1" stroke-miterlimit="10" d="M 1520.944664 1517.957954 L 1703.939941 1446.612165 L 1399.327172 1740.589781 " transform="matrix(0.0995372, 0, 0, -0.0995372, -0.000000000000001776, 190.468336)"/>
<path fill-rule="nonzero" fill="rgb(31.297302%, 80.271912%, 85.15625%)" fill-opacity="1" stroke-width="5" stroke-linecap="round" stroke-linejoin="round" stroke="rgb(0%, 0%, 0%)" stroke-opacity="1" stroke-miterlimit="10" d="M 948.373123 1799.730652 L 1256.086177 1729.601431 L 1399.327172 1740.589781 " transform="matrix(0.0995372, 0, 0, -0.0995372, -0.000000000000001776, 190.468336)"/>
<path fill-rule="nonzero" fill="rgb(31.297302%, 80.271912%, 85.15625%)" fill-opacity="1" stroke-width="5" stroke-linecap="round" stroke-linejoin="round" stroke="rgb(0%, 0%, 0%)" stroke-opacity="1" stroke-miterlimit="10" d="M 1399.327172 1740.589781 L 921.608641 1830.968963 L 948.373123 1799.730652 " transform="matrix(0.0995372, 0, 0, -0.0995372, -0.000000000000001776, 190.468336)"/>
<path fill-rule="nonzero" fill="rgb(11.791992%, 0%, 0%)" fill-opacity="1" stroke-width="5" stroke-linecap="round" stroke-linejoin="round" stroke="rgb(0%, 0%, 0%)" stroke-opacity="1" stroke-miterlimit="10" d="M 1019.7974 69.889599 L 1043.147645 98.498554 L 757.215071 161.40686 " transform="matrix(0.0995372, 0, 0, -0.0995372, -0.000000000000001776, 190.468336)"/>
<path fill-rule="nonzero" fill="rgb(11.791992%, 0%, 0%)" fill-opacity="1" stroke-width="5" stroke-linecap="round" stroke-linejoin="round" stroke="rgb(0%, 0%, 0%)" stroke-opacity="1" stroke-miterlimit="10" d="M 757.215071 161.40686 L 537.958238 150.300778 L 1019.7974 69.889599 " transform="matrix(0.0995372, 0, 0, -0.0995372, -0.000000000000001776, 190.468336)"/>
<path fill-rule="nonzero" fill="rgb(35.301208%, 0%, 0%)" fill-opacity="1" stroke-width="5" stroke-linecap="round" stroke-linejoin="round" stroke="rgb(0%, 0%, 0%)" stroke-opacity="1" stroke-miterlimit="10" d="M 1340.696474 199.944575 L 1043.147645 98.498554 L 1019.7974 69.889599 " transform="matrix(0.0995372, 0, 0, -0.0995372, -0.000000000000001776, 190.468336)"/>
<path fill-rule="nonzero" fill="rgb(8.006287%, 58.396912%, 89.0625%)" fill-opacity="1" stroke-width="5" stroke-linecap="round" stroke-linejoin="round" stroke="rgb(0%, 0%, 0%)" stroke-opacity="1" stroke-miterlimit="10" d="M 670.7603 1702.287531 L 948.373123 1799.730652 L 921.608641 1830.968963 " transform="matrix(0.0995372, 0, 0, -0.0995372, -0.000000000000001776, 190.468336)"/>
<path fill-rule="nonzero" fill="rgb(8.006287%, 58.396912%, 89.0625%)" fill-opacity="1" stroke-width="5" stroke-linecap="round" stroke-linejoin="round" stroke="rgb(0%, 0%, 0%)" stroke-opacity="1" stroke-miterlimit="10" d="M 921.608641 1830.968963 L 450.797073 1696.322427 L 670.7603 1702.287531 " transform="matrix(0.0995372, 0, 0, -0.0995372, -0.000000000000001776, 190.468336)"/>
<path fill-rule="nonzero" fill="rgb(20.800781%, 0%, 7.395935%)" fill-opacity="1" stroke-width="5" stroke-linecap="round" stroke-linejoin="round" stroke="rgb(0%, 0%, 0%)" stroke-opacity="1" stroke-miterlimit="10" d="M 498.125468 369.675343 L 268.900631 441.217353 L 537.958238 150.300778 " transform="matrix(0.0995372, 0, 0, -0.0995372, -0.000000000000001776, 190.468336)"/>
<path fill-rule="nonzero" fill="rgb(20.800781%, 0%, 7.395935%)" fill-opacity="1" stroke-width="5" stroke-linecap="round" stroke-linejoin="round" stroke="rgb(0%, 0%, 0%)" stroke-opacity="1" stroke-miterlimit="10" d="M 537.958238 150.300778 L 757.215071 161.40686 L 498.125468 369.675343 " transform="matrix(0.0995372, 0, 0, -0.0995372, -0.000000000000001776, 190.468336)"/>
<path fill-rule="nonzero" fill="rgb(18.188477%, 45.410156%, 87.889099%)" fill-opacity="1" stroke-width="5" stroke-linecap="round" stroke-linejoin="round" stroke="rgb(0%, 0%, 0%)" stroke-opacity="1" stroke-miterlimit="10" d="M 436.355241 1464.193526 L 670.7603 1702.287531 L 450.797073 1696.322427 " transform="matrix(0.0995372, 0, 0, -0.0995372, -0.000000000000001776, 190.468336)"/>
<path fill-rule="nonzero" fill="rgb(18.188477%, 45.410156%, 87.889099%)" fill-opacity="1" stroke-width="5" stroke-linecap="round" stroke-linejoin="round" stroke="rgb(0%, 0%, 0%)" stroke-opacity="1" stroke-miterlimit="10" d="M 450.797073 1696.322427 L 216.156549 1371.38121 L 436.355241 1464.193526 " transform="matrix(0.0995372, 0, 0, -0.0995372, -0.000000000000001776, 190.468336)"/>
<path fill-rule="nonzero" fill="rgb(0%, 0%, 16.40625%)" fill-opacity="1" stroke-width="5" stroke-linecap="round" stroke-linejoin="round" stroke="rgb(0%, 0%, 0%)" stroke-opacity="1" stroke-miterlimit="10" d="M 83.001289 899.353074 L 174.871747 591.993217 L 268.900631 441.217353 " transform="matrix(0.0995372, 0, 0, -0.0995372, -0.000000000000001776, 190.468336)"/>
<path fill-rule="nonzero" fill="rgb(0%, 0%, 45.896912%)" fill-opacity="1" stroke-width="5" stroke-linecap="round" stroke-linejoin="round" stroke="rgb(0%, 0%, 0%)" stroke-opacity="1" stroke-miterlimit="10" d="M 171.418265 900.059468 L 216.156549 1371.38121 L 139.473561 1215.307391 " transform="matrix(0.0995372, 0, 0, -0.0995372, -0.000000000000001776, 190.468336)"/>
<path fill-rule="nonzero" fill="rgb(0%, 0%, 45.896912%)" fill-opacity="1" stroke-width="5" stroke-linecap="round" stroke-linejoin="round" stroke="rgb(0%, 0%, 0%)" stroke-opacity="1" stroke-miterlimit="10" d="M 139.473561 1215.307391 L 83.001289 899.353074 L 171.418265 900.059468 " transform="matrix(0.0995372, 0, 0, -0.0995372, -0.000000000000001776, 190.468336)"/>
<path fill-rule="nonzero" fill="rgb(0%, 0%, 16.40625%)" fill-opacity="1" stroke-width="5" stroke-linecap="round" stroke-linejoin="round" stroke="rgb(0%, 0%, 0%)" stroke-opacity="1" stroke-miterlimit="10" d="M 268.900631 441.217353 L 171.418265 900.059468 L 83.001289 899.353074 " transform="matrix(0.0995372, 0, 0, -0.0995372, -0.000000000000001776, 190.468336)"/>
<path fill-rule="nonzero" fill="rgb(78.318787%, 28.295898%, 0%)" fill-opacity="1" stroke-width="5" stroke-linecap="round" stroke-linejoin="round" stroke="rgb(0%, 0%, 0%)" stroke-opacity="1" stroke-miterlimit="10" d="M 1753.897691 533.597984 L 1580.281756 438.156312 L 1340.696474 199.944575 " transform="matrix(0.0995372, 0, 0, -0.0995372, -0.000000000000001776, 190.468336)"/>
<path fill-rule="nonzero" fill="rgb(94.921875%, 65.625%, 44.798279%)" fill-opacity="1" stroke-width="5" stroke-linecap="round" stroke-linejoin="round" stroke="rgb(0%, 0%, 0%)" stroke-opacity="1" stroke-miterlimit="10" d="M 1753.897691 533.597984 L 1832.071955 993.813643 L 1543.078341 668.24452 " transform="matrix(0.0995372, 0, 0, -0.0995372, -0.000000000000001776, 190.468336)"/>
<path fill-rule="nonzero" fill="rgb(94.921875%, 65.625%, 44.798279%)" fill-opacity="1" stroke-width="5" stroke-linecap="round" stroke-linejoin="round" stroke="rgb(0%, 0%, 0%)" stroke-opacity="1" stroke-miterlimit="10" d="M 1543.078341 668.24452 L 1580.281756 438.156312 L 1753.897691 533.597984 " transform="matrix(0.0995372, 0, 0, -0.0995372, -0.000000000000001776, 190.468336)"/>
<path fill-rule="nonzero" fill="rgb(93.164062%, 90.625%, 77.539062%)" fill-opacity="1" stroke-width="5" stroke-linecap="round" stroke-linejoin="round" stroke="rgb(0%, 0%, 0%)" stroke-opacity="1" stroke-miterlimit="10" d="M 1703.939941 1446.612165 L 1520.944664 1517.957954 L 1509.406896 1280.374122 " transform="matrix(0.0995372, 0, 0, -0.0995372, -0.000000000000001776, 190.468336)"/>
<path fill-rule="nonzero" fill="rgb(93.164062%, 90.625%, 77.539062%)" fill-opacity="1" stroke-width="5" stroke-linecap="round" stroke-linejoin="round" stroke="rgb(0%, 0%, 0%)" stroke-opacity="1" stroke-miterlimit="10" d="M 1509.406896 1280.374122 L 1832.071955 993.813643 L 1703.939941 1446.612165 " transform="matrix(0.0995372, 0, 0, -0.0995372, -0.000000000000001776, 190.468336)"/>
<path fill-rule="nonzero" fill="rgb(65.818787%, 26.196289%, 28.295898%)" fill-opacity="1" stroke-width="5" stroke-linecap="round" stroke-linejoin="round" stroke="rgb(0%, 0%, 0%)" stroke-opacity="1" stroke-miterlimit="10" d="M 757.215071 161.40686 L 1043.147645 98.498554 L 1340.696474 199.944575 " transform="matrix(0.0995372, 0, 0, -0.0995372, -0.000000000000001776, 190.468336)"/>
<path fill-rule="nonzero" fill="rgb(62.693787%, 77.929688%, 95.506287%)" fill-opacity="1" stroke-width="5" stroke-linecap="round" stroke-linejoin="round" stroke="rgb(0%, 0%, 0%)" stroke-opacity="1" stroke-miterlimit="10" d="M 1256.086177 1729.601431 L 948.373123 1799.730652 L 670.7603 1702.287531 " transform="matrix(0.0995372, 0, 0, -0.0995372, -0.000000000000001776, 190.468336)"/>
<path fill-rule="nonzero" fill="rgb(39.404297%, 19.604492%, 48.997498%)" fill-opacity="1" stroke-width="5" stroke-linecap="round" stroke-linejoin="round" stroke="rgb(0%, 0%, 0%)" stroke-opacity="1" stroke-miterlimit="10" d="M 171.418265 900.059468 L 268.900631 441.217353 L 498.125468 369.675343 " transform="matrix(0.0995372, 0, 0, -0.0995372, -0.000000000000001776, 190.468336)"/>
<path fill-rule="nonzero" fill="rgb(38.305664%, 41.088867%, 76.5625%)" fill-opacity="1" stroke-width="5" stroke-linecap="round" stroke-linejoin="round" stroke="rgb(0%, 0%, 0%)" stroke-opacity="1" stroke-miterlimit="10" d="M 436.355241 1464.193526 L 216.156549 1371.38121 L 171.418265 900.059468 " transform="matrix(0.0995372, 0, 0, -0.0995372, -0.000000000000001776, 190.468336)"/>
<path fill-rule="nonzero" fill="rgb(65.818787%, 26.196289%, 28.295898%)" fill-opacity="1" stroke-width="5" stroke-linecap="round" stroke-linejoin="round" stroke="rgb(0%, 0%, 0%)" stroke-opacity="1" stroke-miterlimit="10" d="M 1340.696474 199.944575 L 1068.656315 403.2683 L 757.215071 161.40686 " transform="matrix(0.0995372, 0, 0, -0.0995372, -0.000000000000001776, 190.468336)"/>
<path fill-rule="nonzero" fill="rgb(81.834412%, 50.389099%, 45.896912%)" fill-opacity="1" stroke-width="5" stroke-linecap="round" stroke-linejoin="round" stroke="rgb(0%, 0%, 0%)" stroke-opacity="1" stroke-miterlimit="10" d="M 1068.656315 403.2683 L 1340.696474 199.944575 L 1580.281756 438.156312 " transform="matrix(0.0995372, 0, 0, -0.0995372, -0.000000000000001776, 190.468336)"/>
<path fill-rule="nonzero" fill="rgb(88.28125%, 72.851562%, 68.554688%)" fill-opacity="1" stroke-width="5" stroke-linecap="round" stroke-linejoin="round" stroke="rgb(0%, 0%, 0%)" stroke-opacity="1" stroke-miterlimit="10" d="M 1832.071955 993.813643 L 1509.406896 1280.374122 L 1394.971076 965.754105 " transform="matrix(0.0995372, 0, 0, -0.0995372, -0.000000000000001776, 190.468336)"/>
<path fill-rule="nonzero" fill="rgb(88.28125%, 72.851562%, 68.554688%)" fill-opacity="1" stroke-width="5" stroke-linecap="round" stroke-linejoin="round" stroke="rgb(0%, 0%, 0%)" stroke-opacity="1" stroke-miterlimit="10" d="M 1394.971076 965.754105 L 1543.078341 668.24452 L 1832.071955 993.813643 " transform="matrix(0.0995372, 0, 0, -0.0995372, -0.000000000000001776, 190.468336)"/>
<path fill-rule="nonzero" fill="rgb(79.492188%, 82.03125%, 87.109375%)" fill-opacity="1" stroke-width="5" stroke-linecap="round" stroke-linejoin="round" stroke="rgb(0%, 0%, 0%)" stroke-opacity="1" stroke-miterlimit="10" d="M 1256.086177 1729.601431 L 1008.220388 1489.584464 L 1509.406896 1280.374122 " transform="matrix(0.0995372, 0, 0, -0.0995372, -0.000000000000001776, 190.468336)"/>
<path fill-rule="nonzero" fill="rgb(79.492188%, 82.03125%, 87.109375%)" fill-opacity="1" stroke-width="5" stroke-linecap="round" stroke-linejoin="round" stroke="rgb(0%, 0%, 0%)" stroke-opacity="1" stroke-miterlimit="10" d="M 1509.406896 1280.374122 L 1520.944664 1517.957954 L 1256.086177 1729.601431 " transform="matrix(0.0995372, 0, 0, -0.0995372, -0.000000000000001776, 190.468336)"/>
<path fill-rule="nonzero" fill="rgb(62.693787%, 77.929688%, 95.506287%)" fill-opacity="1" stroke-width="5" stroke-linecap="round" stroke-linejoin="round" stroke="rgb(0%, 0%, 0%)" stroke-opacity="1" stroke-miterlimit="10" d="M 670.7603 1702.287531 L 1008.220388 1489.584464 L 1256.086177 1729.601431 " transform="matrix(0.0995372, 0, 0, -0.0995372, -0.000000000000001776, 190.468336)"/>
<path fill-rule="nonzero" fill="rgb(58.396912%, 31.396484%, 47.410583%)" fill-opacity="1" stroke-width="5" stroke-linecap="round" stroke-linejoin="round" stroke="rgb(0%, 0%, 0%)" stroke-opacity="1" stroke-miterlimit="10" d="M 757.215071 161.40686 L 1068.656315 403.2683 L 550.751817 608.318766 " transform="matrix(0.0995372, 0, 0, -0.0995372, -0.000000000000001776, 190.468336)"/>
<path fill-rule="nonzero" fill="rgb(58.396912%, 31.396484%, 47.410583%)" fill-opacity="1" stroke-width="5" stroke-linecap="round" stroke-linejoin="round" stroke="rgb(0%, 0%, 0%)" stroke-opacity="1" stroke-miterlimit="10" d="M 550.751817 608.318766 L 498.125468 369.675343 L 757.215071 161.40686 " transform="matrix(0.0995372, 0, 0, -0.0995372, -0.000000000000001776, 190.468336)"/>
<path fill-rule="nonzero" fill="rgb(81.834412%, 50.389099%, 45.896912%)" fill-opacity="1" stroke-width="5" stroke-linecap="round" stroke-linejoin="round" stroke="rgb(0%, 0%, 0%)" stroke-opacity="1" stroke-miterlimit="10" d="M 1580.281756 438.156312 L 1543.078341 668.24452 L 1068.656315 403.2683 " transform="matrix(0.0995372, 0, 0, -0.0995372, -0.000000000000001776, 190.468336)"/>
<path fill-rule="nonzero" fill="rgb(56.639099%, 60.9375%, 85.546875%)" fill-opacity="1" stroke-width="5" stroke-linecap="round" stroke-linejoin="round" stroke="rgb(0%, 0%, 0%)" stroke-opacity="1" stroke-miterlimit="10" d="M 1008.220388 1489.584464 L 670.7603 1702.287531 L 436.355241 1464.193526 " transform="matrix(0.0995372, 0, 0, -0.0995372, -0.000000000000001776, 190.468336)"/>
<path fill-rule="nonzero" fill="rgb(39.404297%, 19.604492%, 48.997498%)" fill-opacity="1" stroke-width="5" stroke-linecap="round" stroke-linejoin="round" stroke="rgb(0%, 0%, 0%)" stroke-opacity="1" stroke-miterlimit="10" d="M 498.125468 369.675343 L 550.751817 608.318766 L 171.418265 900.059468 " transform="matrix(0.0995372, 0, 0, -0.0995372, -0.000000000000001776, 190.468336)"/>
<path fill-rule="nonzero" fill="rgb(54.296875%, 43.505859%, 68.164062%)" fill-opacity="1" stroke-width="5" stroke-linecap="round" stroke-linejoin="round" stroke="rgb(0%, 0%, 0%)" stroke-opacity="1" stroke-miterlimit="10" d="M 686.771897 925.764359 L 515.82456 1228.140214 L 171.418265 900.059468 " transform="matrix(0.0995372, 0, 0, -0.0995372, -0.000000000000001776, 190.468336)"/>
<path fill-rule="nonzero" fill="rgb(54.296875%, 43.505859%, 68.164062%)" fill-opacity="1" stroke-width="5" stroke-linecap="round" stroke-linejoin="round" stroke="rgb(0%, 0%, 0%)" stroke-opacity="1" stroke-miterlimit="10" d="M 171.418265 900.059468 L 550.751817 608.318766 L 686.771897 925.764359 " transform="matrix(0.0995372, 0, 0, -0.0995372, -0.000000000000001776, 190.468336)"/>
<path fill-rule="nonzero" fill="rgb(38.305664%, 41.088867%, 76.5625%)" fill-opacity="1" stroke-width="5" stroke-linecap="round" stroke-linejoin="round" stroke="rgb(0%, 0%, 0%)" stroke-opacity="1" stroke-miterlimit="10" d="M 171.418265 900.059468 L 515.82456 1228.140214 L 436.355241 1464.193526 " transform="matrix(0.0995372, 0, 0, -0.0995372, -0.000000000000001776, 190.468336)"/>
<path fill-rule="nonzero" fill="rgb(56.639099%, 60.9375%, 85.546875%)" fill-opacity="1" stroke-width="5" stroke-linecap="round" stroke-linejoin="round" stroke="rgb(0%, 0%, 0%)" stroke-opacity="1" stroke-miterlimit="10" d="M 436.355241 1464.193526 L 515.82456 1228.140214 L 1008.220388 1489.584464 " transform="matrix(0.0995372, 0, 0, -0.0995372, -0.000000000000001776, 190.468336)"/>
<path fill-rule="nonzero" fill="rgb(78.125%, 59.179688%, 64.451599%)" fill-opacity="1" stroke-width="5" stroke-linecap="round" stroke-linejoin="round" stroke="rgb(0%, 0%, 0%)" stroke-opacity="1" stroke-miterlimit="10" d="M 1068.656315 403.2683 L 1543.078341 668.24452 L 1394.971076 965.754105 " transform="matrix(0.0995372, 0, 0, -0.0995372, -0.000000000000001776, 190.468336)"/>
<path fill-rule="nonzero" fill="rgb(77.539062%, 68.164062%, 76.171875%)" fill-opacity="1" stroke-width="5" stroke-linecap="round" stroke-linejoin="round" stroke="rgb(0%, 0%, 0%)" stroke-opacity="1" stroke-miterlimit="10" d="M 1394.971076 965.754105 L 1509.406896 1280.374122 L 1008.220388 1489.584464 " transform="matrix(0.0995372, 0, 0, -0.0995372, -0.000000000000001776, 190.468336)"/>
<path fill-rule="nonzero" fill="rgb(66.992188%, 49.705505%, 64.256287%)" fill-opacity="1" stroke-width="5" stroke-linecap="round" stroke-linejoin="round" stroke="rgb(0%, 0%, 0%)" stroke-opacity="1" stroke-miterlimit="10" d="M 1050.015364 945.464901 L 686.771897 925.764359 L 550.751817 608.318766 " transform="matrix(0.0995372, 0, 0, -0.0995372, -0.000000000000001776, 190.468336)"/>
<path fill-rule="nonzero" fill="rgb(66.992188%, 49.705505%, 64.256287%)" fill-opacity="1" stroke-width="5" stroke-linecap="round" stroke-linejoin="round" stroke="rgb(0%, 0%, 0%)" stroke-opacity="1" stroke-miterlimit="10" d="M 550.751817 608.318766 L 1068.656315 403.2683 L 1050.015364 945.464901 " transform="matrix(0.0995372, 0, 0, -0.0995372, -0.000000000000001776, 190.468336)"/>
<path fill-rule="nonzero" fill="rgb(66.209412%, 58.396912%, 75.584412%)" fill-opacity="1" stroke-width="5" stroke-linecap="round" stroke-linejoin="round" stroke="rgb(0%, 0%, 0%)" stroke-opacity="1" stroke-miterlimit="10" d="M 1050.015364 945.464901 L 1008.220388 1489.584464 L 515.82456 1228.140214 " transform="matrix(0.0995372, 0, 0, -0.0995372, -0.000000000000001776, 190.468336)"/>
<path fill-rule="nonzero" fill="rgb(66.209412%, 58.396912%, 75.584412%)" fill-opacity="1" stroke-width="5" stroke-linecap="round" stroke-linejoin="round" stroke="rgb(0%, 0%, 0%)" stroke-opacity="1" stroke-miterlimit="10" d="M 515.82456 1228.140214 L 686.771897 925.764359 L 1050.015364 945.464901 " transform="matrix(0.0995372, 0, 0, -0.0995372, -0.000000000000001776, 190.468336)"/>
<path fill-rule="nonzero" fill="rgb(78.125%, 59.179688%, 64.451599%)" fill-opacity="1" stroke-width="5" stroke-linecap="round" stroke-linejoin="round" stroke="rgb(0%, 0%, 0%)" stroke-opacity="1" stroke-miterlimit="10" d="M 1394.971076 965.754105 L 1050.015364 945.464901 L 1068.656315 403.2683 " transform="matrix(0.0995372, 0, 0, -0.0995372, -0.000000000000001776, 190.468336)"/>
<path fill-rule="nonzero" fill="rgb(77.539062%, 68.164062%, 76.171875%)" fill-opacity="1" stroke-width="5" stroke-linecap="round" stroke-linejoin="round" stroke="rgb(0%, 0%, 0%)" stroke-opacity="1" stroke-miterlimit="10" d="M 1008.220388 1489.584464 L 1050.015364 945.464901 L 1394.971076 965.754105 " transform="matrix(0.0995372, 0, 0, -0.0995372, -0.000000000000001776, 190.468336)"/>
</svg>
