<?xml version="1.0" encoding="UTF-8"?>
<svg xmlns="http://www.w3.org/2000/svg" xmlns:xlink="http://www.w3.org/1999/xlink" width="214.88" height="229.25" viewBox="0 0 214.88 229.25">
<path fill-rule="nonzero" fill="rgb(80.271912%, 79.881287%, 84.764099%)" fill-opacity="1" stroke-width="5" stroke-linecap="round" stroke-linejoin="round" stroke="rgb(0%, 0%, 0%)" stroke-opacity="1" stroke-miterlimit="10" d="M 623.541917 359.164395 L 963.478531 382.247478 L 962.10687 802.249864 " transform="matrix(0.0996739, 0, 0, -0.0996739, 0.290543, 228.502446)"/>
<path fill-rule="nonzero" fill="rgb(80.271912%, 79.881287%, 84.764099%)" fill-opacity="1" d="M 34.734375 162.429688 L 62.441406 192.703125 L 96.1875 148.539062 "/>
<path fill="none" stroke-width="5" stroke-linecap="round" stroke-linejoin="round" stroke="rgb(0%, 0%, 0%)" stroke-opacity="1" stroke-miterlimit="10" d="M 345.565158 662.889177 L 623.541917 359.164395 " transform="matrix(0.0996739, 0, 0, -0.0996739, 0.290543, 228.502446)"/>
<path fill-rule="nonzero" fill="rgb(80.271912%, 79.881287%, 84.764099%)" fill-opacity="1" stroke-width="5" stroke-linecap="round" stroke-linejoin="round" stroke="rgb(0%, 0%, 0%)" stroke-opacity="1" stroke-miterlimit="10" d="M 962.10687 802.249864 L 468.465921 913.824632 L 345.565158 662.889177 " transform="matrix(0.0996739, 0, 0, -0.0996739, 0.290543, 228.502446)"/>
<path fill-rule="nonzero" fill="rgb(61.326599%, 64.646912%, 85.742188%)" fill-opacity="1" stroke-width="5" stroke-linecap="round" stroke-linejoin="round" stroke="rgb(0%, 0%, 0%)" stroke-opacity="1" stroke-miterlimit="10" d="M 962.10687 802.249864 L 963.478531 382.247478 L 1330.025354 315.428026 " transform="matrix(0.0996739, 0, 0, -0.0996739, 0.290543, 228.502446)"/>
<path fill-rule="nonzero" fill="rgb(61.326599%, 64.646912%, 85.742188%)" fill-opacity="1" d="M 148.925781 144.46875 L 96.1875 148.539062 L 132.859375 197.0625 "/>
<path fill="none" stroke-width="5" stroke-linecap="round" stroke-linejoin="round" stroke="rgb(0%, 0%, 0%)" stroke-opacity="1" stroke-miterlimit="10" d="M 1491.215035 843.08615 L 962.10687 802.249864 " transform="matrix(0.0996739, 0, 0, -0.0996739, 0.290543, 228.502446)"/>
<path fill-rule="nonzero" fill="rgb(79.296875%, 64.0625%, 69.139099%)" fill-opacity="1" stroke-width="5" stroke-linecap="round" stroke-linejoin="round" stroke="rgb(0%, 0%, 0%)" stroke-opacity="1" stroke-miterlimit="10" d="M 468.465921 913.824632 L 962.10687 802.249864 L 1002.00259 1345.153013 " transform="matrix(0.0996739, 0, 0, -0.0996739, 0.290543, 228.502446)"/>
<path fill-rule="nonzero" fill="rgb(64.84375%, 53.125%, 70.701599%)" fill-opacity="1" stroke-width="5" stroke-linecap="round" stroke-linejoin="round" stroke="rgb(0%, 0%, 0%)" stroke-opacity="1" stroke-miterlimit="10" d="M 962.10687 802.249864 L 1491.215035 843.08615 L 1622.502522 1212.924959 " transform="matrix(0.0996739, 0, 0, -0.0996739, 0.290543, 228.502446)"/>
<path fill-rule="nonzero" fill="rgb(64.84375%, 53.125%, 70.701599%)" fill-opacity="1" d="M 100.164062 94.425781 L 96.1875 148.539062 L 162.011719 107.605469 "/>
<path fill="none" stroke-width="5" stroke-linecap="round" stroke-linejoin="round" stroke="rgb(0%, 0%, 0%)" stroke-opacity="1" stroke-miterlimit="10" d="M 1002.00259 1345.153013 L 962.10687 802.249864 " transform="matrix(0.0996739, 0, 0, -0.0996739, 0.290543, 228.502446)"/>
<path fill-rule="nonzero" fill="rgb(79.296875%, 64.0625%, 69.139099%)" fill-opacity="1" d="M 39.78125 98.527344 L 46.984375 137.417969 L 100.164062 94.425781 "/>
<path fill="none" stroke-width="5" stroke-linecap="round" stroke-linejoin="round" stroke="rgb(0%, 0%, 0%)" stroke-opacity="1" stroke-miterlimit="10" d="M 396.199019 1304.003203 L 468.465921 913.824632 " transform="matrix(0.0996739, 0, 0, -0.0996739, 0.290543, 228.502446)"/>
<path fill-rule="nonzero" fill="rgb(79.296875%, 64.0625%, 69.139099%)" fill-opacity="1" stroke-width="5" stroke-linecap="round" stroke-linejoin="round" stroke="rgb(0%, 0%, 0%)" stroke-opacity="1" stroke-miterlimit="10" d="M 1002.00259 1345.153013 L 694.907443 1536.51922 L 396.199019 1304.003203 " transform="matrix(0.0996739, 0, 0, -0.0996739, 0.290543, 228.502446)"/>
<path fill-rule="nonzero" fill="rgb(64.84375%, 53.125%, 70.701599%)" fill-opacity="1" stroke-width="5" stroke-linecap="round" stroke-linejoin="round" stroke="rgb(0%, 0%, 0%)" stroke-opacity="1" stroke-miterlimit="10" d="M 1622.502522 1212.924959 L 1350.67864 1485.571838 L 1002.00259 1345.153013 " transform="matrix(0.0996739, 0, 0, -0.0996739, 0.290543, 228.502446)"/>
<path fill-rule="nonzero" fill="rgb(69.726562%, 44.897461%, 54.492188%)" fill-opacity="1" stroke-width="5" stroke-linecap="round" stroke-linejoin="round" stroke="rgb(0%, 0%, 0%)" stroke-opacity="1" stroke-miterlimit="10" d="M 1002.00259 1345.153013 L 1350.67864 1485.571838 L 1352.794915 1955.071565 " transform="matrix(0.0996739, 0, 0, -0.0996739, 0.290543, 228.502446)"/>
<path fill-rule="nonzero" fill="rgb(69.726562%, 44.897461%, 54.492188%)" fill-opacity="1" d="M 69.554688 75.351562 L 100.164062 94.425781 L 135.128906 33.632812 "/>
<path fill="none" stroke-width="5" stroke-linecap="round" stroke-linejoin="round" stroke="rgb(0%, 0%, 0%)" stroke-opacity="1" stroke-miterlimit="10" d="M 694.907443 1536.51922 L 1002.00259 1345.153013 " transform="matrix(0.0996739, 0, 0, -0.0996739, 0.290543, 228.502446)"/>
<path fill-rule="nonzero" fill="rgb(46.99707%, 27.001953%, 52.539062%)" fill-opacity="1" stroke-width="5" stroke-linecap="round" stroke-linejoin="round" stroke="rgb(0%, 0%, 0%)" stroke-opacity="1" stroke-miterlimit="10" d="M 1350.67864 1485.571838 L 1352.794915 1955.071565 L 1808.303708 1661.065976 " transform="matrix(0.0996739, 0, 0, -0.0996739, 0.290543, 228.502446)"/>
<path fill-rule="nonzero" fill="rgb(46.99707%, 27.001953%, 52.539062%)" fill-opacity="1" d="M 162.011719 107.605469 L 134.917969 80.429688 L 180.53125 62.9375 "/>
<path fill="none" stroke-width="5" stroke-linecap="round" stroke-linejoin="round" stroke="rgb(0%, 0%, 0%)" stroke-opacity="1" stroke-miterlimit="10" d="M 1622.502522 1212.924959 L 1350.67864 1485.571838 " transform="matrix(0.0996739, 0, 0, -0.0996739, 0.290543, 228.502446)"/>
<path fill-rule="nonzero" fill="rgb(61.326599%, 64.646912%, 85.742188%)" fill-opacity="1" stroke-width="5" stroke-linecap="round" stroke-linejoin="round" stroke="rgb(0%, 0%, 0%)" stroke-opacity="1" stroke-miterlimit="10" d="M 1330.025354 315.428026 L 1622.541712 578.943566 L 1491.215035 843.08615 " transform="matrix(0.0996739, 0, 0, -0.0996739, 0.290543, 228.502446)"/>
<path fill-rule="nonzero" fill="rgb(39.793396%, 38.500977%, 72.851562%)" fill-opacity="1" stroke-width="5" stroke-linecap="round" stroke-linejoin="round" stroke="rgb(0%, 0%, 0%)" stroke-opacity="1" stroke-miterlimit="10" d="M 1491.215035 843.08615 L 1622.541712 578.943566 L 2005.470079 808.40274 " transform="matrix(0.0996739, 0, 0, -0.0996739, 0.290543, 228.502446)"/>
<path fill-rule="nonzero" fill="rgb(39.793396%, 38.500977%, 72.851562%)" fill-opacity="1" d="M 162.011719 107.605469 L 148.925781 144.46875 L 200.183594 147.925781 "/>
<path fill="none" stroke-width="5" stroke-linecap="round" stroke-linejoin="round" stroke="rgb(0%, 0%, 0%)" stroke-opacity="1" stroke-miterlimit="10" d="M 1622.502522 1212.924959 L 1491.215035 843.08615 " transform="matrix(0.0996739, 0, 0, -0.0996739, 0.290543, 228.502446)"/>
<path fill-rule="nonzero" fill="rgb(86.914062%, 55.076599%, 44.40918%)" fill-opacity="1" stroke-width="5" stroke-linecap="round" stroke-linejoin="round" stroke="rgb(0%, 0%, 0%)" stroke-opacity="1" stroke-miterlimit="10" d="M 396.199019 1304.003203 L 694.907443 1536.51922 L 780.734188 1857.683683 " transform="matrix(0.0996739, 0, 0, -0.0996739, 0.290543, 228.502446)"/>
<path fill-rule="nonzero" fill="rgb(69.726562%, 44.897461%, 54.492188%)" fill-opacity="1" stroke-width="5" stroke-linecap="round" stroke-linejoin="round" stroke="rgb(0%, 0%, 0%)" stroke-opacity="1" stroke-miterlimit="10" d="M 1352.794915 1955.071565 L 780.734188 1857.683683 L 694.907443 1536.51922 " transform="matrix(0.0996739, 0, 0, -0.0996739, 0.290543, 228.502446)"/>
<path fill-rule="nonzero" fill="rgb(39.793396%, 38.500977%, 72.851562%)" fill-opacity="1" stroke-width="5" stroke-linecap="round" stroke-linejoin="round" stroke="rgb(0%, 0%, 0%)" stroke-opacity="1" stroke-miterlimit="10" d="M 2005.470079 808.40274 L 1877.86648 1291.423119 L 1622.502522 1212.924959 " transform="matrix(0.0996739, 0, 0, -0.0996739, 0.290543, 228.502446)"/>
<path fill-rule="nonzero" fill="rgb(46.99707%, 27.001953%, 52.539062%)" fill-opacity="1" stroke-width="5" stroke-linecap="round" stroke-linejoin="round" stroke="rgb(0%, 0%, 0%)" stroke-opacity="1" stroke-miterlimit="10" d="M 1808.303708 1661.065976 L 1877.86648 1291.423119 L 1622.502522 1212.924959 " transform="matrix(0.0996739, 0, 0, -0.0996739, 0.290543, 228.502446)"/>
<path fill-rule="nonzero" fill="rgb(96.484375%, 82.226562%, 65.234375%)" fill-opacity="1" d="M 46.984375 137.417969 L 34.734375 162.429688 L 11.753906 81.984375 "/>
<path fill="none" stroke-width="5" stroke-linecap="round" stroke-linejoin="round" stroke="rgb(0%, 0%, 0%)" stroke-opacity="1" stroke-miterlimit="10" d="M 468.465921 913.824632 L 345.565158 662.889177 " transform="matrix(0.0996739, 0, 0, -0.0996739, 0.290543, 228.502446)"/>
<path fill-rule="nonzero" fill="rgb(96.484375%, 82.226562%, 65.234375%)" fill-opacity="1" stroke-width="5" stroke-linecap="round" stroke-linejoin="round" stroke="rgb(0%, 0%, 0%)" stroke-opacity="1" stroke-miterlimit="10" d="M 115.008656 1469.9741 L 396.199019 1304.003203 L 468.465921 913.824632 " transform="matrix(0.0996739, 0, 0, -0.0996739, 0.290543, 228.502446)"/>
<path fill-rule="nonzero" fill="rgb(86.914062%, 55.076599%, 44.40918%)" fill-opacity="1" d="M 11.753906 81.984375 L 39.78125 98.527344 L 78.109375 43.339844 "/>
<path fill="none" stroke-width="5" stroke-linecap="round" stroke-linejoin="round" stroke="rgb(0%, 0%, 0%)" stroke-opacity="1" stroke-miterlimit="10" d="M 115.008656 1469.9741 L 396.199019 1304.003203 " transform="matrix(0.0996739, 0, 0, -0.0996739, 0.290543, 228.502446)"/>
<path fill-rule="nonzero" fill="rgb(45.092773%, 83.984375%, 98.242188%)" fill-opacity="1" stroke-width="5" stroke-linecap="round" stroke-linejoin="round" stroke="rgb(0%, 0%, 0%)" stroke-opacity="1" stroke-miterlimit="10" d="M 963.478531 382.247478 L 623.541917 359.164395 L 722.45822 221.684842 " transform="matrix(0.0996739, 0, 0, -0.0996739, 0.290543, 228.502446)"/>
<path fill-rule="nonzero" fill="rgb(45.092773%, 83.984375%, 98.242188%)" fill-opacity="1" d="M 132.859375 197.0625 L 96.324219 190.402344 L 72.300781 206.40625 "/>
<path fill="none" stroke-width="5" stroke-linecap="round" stroke-linejoin="round" stroke="rgb(0%, 0%, 0%)" stroke-opacity="1" stroke-miterlimit="10" d="M 1330.025354 315.428026 L 963.478531 382.247478 " transform="matrix(0.0996739, 0, 0, -0.0996739, 0.290543, 228.502446)"/>
<path fill-rule="nonzero" fill="rgb(86.914062%, 55.076599%, 44.40918%)" fill-opacity="1" stroke-width="5" stroke-linecap="round" stroke-linejoin="round" stroke="rgb(0%, 0%, 0%)" stroke-opacity="1" stroke-miterlimit="10" d="M 780.734188 1857.683683 L 540.693634 1910.43382 L 115.008656 1469.9741 " transform="matrix(0.0996739, 0, 0, -0.0996739, 0.290543, 228.502446)"/>
<path fill-rule="nonzero" fill="rgb(53.514099%, 0.0991821%, 0%)" fill-opacity="1" stroke-width="5" stroke-linecap="round" stroke-linejoin="round" stroke="rgb(0%, 0%, 0%)" stroke-opacity="1" stroke-miterlimit="10" d="M 780.734188 1857.683683 L 1352.794915 1955.071565 L 1203.715035 2080.598078 " transform="matrix(0.0996739, 0, 0, -0.0996739, 0.290543, 228.502446)"/>
<path fill-rule="nonzero" fill="rgb(53.514099%, 0.0991821%, 0%)" fill-opacity="1" d="M 54.183594 38.082031 L 78.109375 43.339844 L 120.269531 21.121094 "/>
<path fill="none" stroke-width="5" stroke-linecap="round" stroke-linejoin="round" stroke="rgb(0%, 0%, 0%)" stroke-opacity="1" stroke-miterlimit="10" d="M 540.693634 1910.43382 L 780.734188 1857.683683 " transform="matrix(0.0996739, 0, 0, -0.0996739, 0.290543, 228.502446)"/>
<path fill-rule="nonzero" fill="rgb(0%, 33.68988%, 81.054688%)" fill-opacity="1" stroke-width="5" stroke-linecap="round" stroke-linejoin="round" stroke="rgb(0%, 0%, 0%)" stroke-opacity="1" stroke-miterlimit="10" d="M 1622.541712 578.943566 L 2005.470079 808.40274 L 1648.172165 443.77624 " transform="matrix(0.0996739, 0, 0, -0.0996739, 0.290543, 228.502446)"/>
<path fill-rule="nonzero" fill="rgb(0%, 33.68988%, 81.054688%)" fill-opacity="1" d="M 132.859375 197.0625 L 162.015625 170.796875 L 164.570312 184.269531 "/>
<path fill="none" stroke-width="5" stroke-linecap="round" stroke-linejoin="round" stroke="rgb(0%, 0%, 0%)" stroke-opacity="1" stroke-miterlimit="10" d="M 1330.025354 315.428026 L 1622.541712 578.943566 " transform="matrix(0.0996739, 0, 0, -0.0996739, 0.290543, 228.502446)"/>
<path fill-rule="nonzero" fill="rgb(0%, 0%, 0%)" fill-opacity="1" d="M 135.128906 33.632812 L 180.53125 62.9375 L 148.984375 38.933594 "/>
<path fill="none" stroke-width="5" stroke-linecap="round" stroke-linejoin="round" stroke="rgb(0%, 0%, 0%)" stroke-opacity="1" stroke-miterlimit="10" d="M 1352.794915 1955.071565 L 1808.303708 1661.065976 " transform="matrix(0.0996739, 0, 0, -0.0996739, 0.290543, 228.502446)"/>
<path fill-rule="nonzero" fill="rgb(0%, 0%, 0%)" fill-opacity="1" stroke-width="5" stroke-linecap="round" stroke-linejoin="round" stroke="rgb(0%, 0%, 0%)" stroke-opacity="1" stroke-miterlimit="10" d="M 1491.80289 1901.890335 L 1203.715035 2080.598078 L 1352.794915 1955.071565 " transform="matrix(0.0996739, 0, 0, -0.0996739, 0.290543, 228.502446)"/>
<path fill-rule="nonzero" fill="rgb(0%, 0%, 0%)" fill-opacity="1" stroke-width="5" stroke-linecap="round" stroke-linejoin="round" stroke="rgb(0%, 0%, 0%)" stroke-opacity="1" stroke-miterlimit="10" d="M 1877.86648 1291.423119 L 2005.470079 808.40274 L 1937.004635 1247.412418 " transform="matrix(0.0996739, 0, 0, -0.0996739, 0.290543, 228.502446)"/>
<path fill-rule="nonzero" fill="rgb(0%, 0%, 0%)" fill-opacity="1" d="M 180.53125 62.9375 L 187.464844 99.78125 L 193.359375 104.167969 "/>
<path fill="none" stroke-width="5" stroke-linecap="round" stroke-linejoin="round" stroke="rgb(0%, 0%, 0%)" stroke-opacity="1" stroke-miterlimit="10" d="M 1808.303708 1661.065976 L 1877.86648 1291.423119 " transform="matrix(0.0996739, 0, 0, -0.0996739, 0.290543, 228.502446)"/>
<path fill-rule="nonzero" fill="rgb(59.568787%, 87.693787%, 55.859375%)" fill-opacity="1" stroke-width="5" stroke-linecap="round" stroke-linejoin="round" stroke="rgb(0%, 0%, 0%)" stroke-opacity="1" stroke-miterlimit="10" d="M 623.541917 359.164395 L 345.565158 662.889177 L 151.181298 855.627045 " transform="matrix(0.0996739, 0, 0, -0.0996739, 0.290543, 228.502446)"/>
<path fill-rule="nonzero" fill="rgb(96.484375%, 82.226562%, 65.234375%)" fill-opacity="1" stroke-width="5" stroke-linecap="round" stroke-linejoin="round" stroke="rgb(0%, 0%, 0%)" stroke-opacity="1" stroke-miterlimit="10" d="M 345.565158 662.889177 L 151.181298 855.627045 L 115.008656 1469.9741 " transform="matrix(0.0996739, 0, 0, -0.0996739, 0.290543, 228.502446)"/>
<path fill-rule="nonzero" fill="rgb(45.092773%, 83.984375%, 98.242188%)" fill-opacity="1" stroke-width="5" stroke-linecap="round" stroke-linejoin="round" stroke="rgb(0%, 0%, 0%)" stroke-opacity="1" stroke-miterlimit="10" d="M 722.45822 221.684842 L 1323.715717 226.622819 L 1330.025354 315.428026 " transform="matrix(0.0996739, 0, 0, -0.0996739, 0.290543, 228.502446)"/>
<path fill-rule="nonzero" fill="rgb(0%, 33.68988%, 81.054688%)" fill-opacity="1" stroke-width="5" stroke-linecap="round" stroke-linejoin="round" stroke="rgb(0%, 0%, 0%)" stroke-opacity="1" stroke-miterlimit="10" d="M 1648.172165 443.77624 L 1323.715717 226.622819 L 1330.025354 315.428026 " transform="matrix(0.0996739, 0, 0, -0.0996739, 0.290543, 228.502446)"/>
<path fill-rule="nonzero" fill="rgb(59.568787%, 87.693787%, 55.859375%)" fill-opacity="1" d="M 72.300781 206.40625 L 62.441406 192.703125 L 15.359375 143.21875 "/>
<path fill="none" stroke-width="5" stroke-linecap="round" stroke-linejoin="round" stroke="rgb(0%, 0%, 0%)" stroke-opacity="1" stroke-miterlimit="10" d="M 722.45822 221.684842 L 623.541917 359.164395 " transform="matrix(0.0996739, 0, 0, -0.0996739, 0.290543, 228.502446)"/>
<path fill-rule="nonzero" fill="rgb(0%, 0%, 0%)" fill-opacity="1" stroke-width="5" stroke-linecap="round" stroke-linejoin="round" stroke="rgb(0%, 0%, 0%)" stroke-opacity="1" stroke-miterlimit="10" d="M 1937.004635 1247.412418 L 1834.874727 1663.260632 L 1808.303708 1661.065976 " transform="matrix(0.0996739, 0, 0, -0.0996739, 0.290543, 228.502446)"/>
<path fill-rule="nonzero" fill="rgb(0%, 0%, 0%)" fill-opacity="1" stroke-width="5" stroke-linecap="round" stroke-linejoin="round" stroke="rgb(0%, 0%, 0%)" stroke-opacity="1" stroke-miterlimit="10" d="M 1808.303708 1661.065976 L 1834.874727 1663.260632 L 1491.80289 1901.890335 " transform="matrix(0.0996739, 0, 0, -0.0996739, 0.290543, 228.502446)"/>
<path fill-rule="nonzero" fill="rgb(53.514099%, 0.0991821%, 0%)" fill-opacity="1" stroke-width="5" stroke-linecap="round" stroke-linejoin="round" stroke="rgb(0%, 0%, 0%)" stroke-opacity="1" stroke-miterlimit="10" d="M 1203.715035 2080.598078 L 759.76738 2035.999523 L 540.693634 1910.43382 " transform="matrix(0.0996739, 0, 0, -0.0996739, 0.290543, 228.502446)"/>
<path fill-rule="nonzero" fill="rgb(0%, 29.905701%, 79.492188%)" fill-opacity="1" stroke-width="5" stroke-linecap="round" stroke-linejoin="round" stroke="rgb(0%, 0%, 0%)" stroke-opacity="1" stroke-miterlimit="10" d="M 115.008656 1469.9741 L 540.693634 1910.43382 L 759.76738 2035.999523 " transform="matrix(0.0996739, 0, 0, -0.0996739, 0.290543, 228.502446)"/>
<path fill-rule="nonzero" fill="rgb(59.568787%, 87.693787%, 55.859375%)" fill-opacity="1" stroke-width="5" stroke-linecap="round" stroke-linejoin="round" stroke="rgb(0%, 0%, 0%)" stroke-opacity="1" stroke-miterlimit="10" d="M 151.181298 855.627045 L 272.514449 704.352508 L 722.45822 221.684842 " transform="matrix(0.0996739, 0, 0, -0.0996739, 0.290543, 228.502446)"/>
<path fill-rule="nonzero" fill="rgb(0%, 0%, 47.705078%)" fill-opacity="1" stroke-width="5" stroke-linecap="round" stroke-linejoin="round" stroke="rgb(0%, 0%, 0%)" stroke-opacity="1" stroke-miterlimit="10" d="M 272.514449 704.352508 L 151.181298 855.627045 L 115.008656 1469.9741 " transform="matrix(0.0996739, 0, 0, -0.0996739, 0.290543, 228.502446)"/>
<path fill-rule="nonzero" fill="rgb(0%, 0%, 47.705078%)" fill-opacity="1" d="M 35.769531 123.773438 L 27.453125 158.296875 L 11.753906 81.984375 "/>
<path fill="none" stroke-width="5" stroke-linecap="round" stroke-linejoin="round" stroke="rgb(0%, 0%, 0%)" stroke-opacity="1" stroke-miterlimit="10" d="M 355.950586 1050.71633 L 272.514449 704.352508 " transform="matrix(0.0996739, 0, 0, -0.0996739, 0.290543, 228.502446)"/>
<path fill-rule="nonzero" fill="rgb(0%, 0%, 47.705078%)" fill-opacity="1" stroke-width="5" stroke-linecap="round" stroke-linejoin="round" stroke="rgb(0%, 0%, 0%)" stroke-opacity="1" stroke-miterlimit="10" d="M 115.008656 1469.9741 L 290.698746 1488.62868 L 355.950586 1050.71633 " transform="matrix(0.0996739, 0, 0, -0.0996739, 0.290543, 228.502446)"/>
<path fill-rule="nonzero" fill="rgb(0%, 29.905701%, 79.492188%)" fill-opacity="1" d="M 29.265625 80.125 L 11.753906 81.984375 L 76.019531 25.566406 "/>
<path fill="none" stroke-width="5" stroke-linecap="round" stroke-linejoin="round" stroke="rgb(0%, 0%, 0%)" stroke-opacity="1" stroke-miterlimit="10" d="M 290.698746 1488.62868 L 115.008656 1469.9741 " transform="matrix(0.0996739, 0, 0, -0.0996739, 0.290543, 228.502446)"/>
<path fill-rule="nonzero" fill="rgb(94.139099%, 65.625%, 46.897888%)" fill-opacity="1" d="M 200.183594 147.925781 L 164.570312 184.269531 L 167.019531 118.089844 "/>
<path fill="none" stroke-width="5" stroke-linecap="round" stroke-linejoin="round" stroke="rgb(0%, 0%, 0%)" stroke-opacity="1" stroke-miterlimit="10" d="M 2005.470079 808.40274 L 1648.172165 443.77624 " transform="matrix(0.0996739, 0, 0, -0.0996739, 0.290543, 228.502446)"/>
<path fill-rule="nonzero" fill="rgb(94.139099%, 65.625%, 46.897888%)" fill-opacity="1" stroke-width="5" stroke-linecap="round" stroke-linejoin="round" stroke="rgb(0%, 0%, 0%)" stroke-opacity="1" stroke-miterlimit="10" d="M 1672.744479 1107.738209 L 1937.004635 1247.412418 L 2005.470079 808.40274 " transform="matrix(0.0996739, 0, 0, -0.0996739, 0.290543, 228.502446)"/>
<path fill-rule="nonzero" fill="rgb(70.3125%, 31.10199%, 30.004883%)" fill-opacity="1" stroke-width="5" stroke-linecap="round" stroke-linejoin="round" stroke="rgb(0%, 0%, 0%)" stroke-opacity="1" stroke-miterlimit="10" d="M 1323.715717 226.622819 L 722.45822 221.684842 L 1027.31952 579.217898 " transform="matrix(0.0996739, 0, 0, -0.0996739, 0.290543, 228.502446)"/>
<path fill-rule="nonzero" fill="rgb(70.3125%, 31.10199%, 30.004883%)" fill-opacity="1" d="M 164.570312 184.269531 L 132.230469 205.914062 L 102.6875 170.769531 "/>
<path fill="none" stroke-width="5" stroke-linecap="round" stroke-linejoin="round" stroke="rgb(0%, 0%, 0%)" stroke-opacity="1" stroke-miterlimit="10" d="M 1648.172165 443.77624 L 1323.715717 226.622819 " transform="matrix(0.0996739, 0, 0, -0.0996739, 0.290543, 228.502446)"/>
<path fill-rule="nonzero" fill="rgb(62.693787%, 77.929688%, 95.3125%)" fill-opacity="1" stroke-width="5" stroke-linecap="round" stroke-linejoin="round" stroke="rgb(0%, 0%, 0%)" stroke-opacity="1" stroke-miterlimit="10" d="M 1491.80289 1901.890335 L 1203.715035 2080.598078 L 759.76738 2035.999523 " transform="matrix(0.0996739, 0, 0, -0.0996739, 0.290543, 228.502446)"/>
<path fill-rule="nonzero" fill="rgb(0%, 29.905701%, 79.492188%)" fill-opacity="1" stroke-width="5" stroke-linecap="round" stroke-linejoin="round" stroke="rgb(0%, 0%, 0%)" stroke-opacity="1" stroke-miterlimit="10" d="M 759.76738 2035.999523 L 634.828721 1811.203994 L 290.698746 1488.62868 " transform="matrix(0.0996739, 0, 0, -0.0996739, 0.290543, 228.502446)"/>
<path fill-rule="nonzero" fill="rgb(62.693787%, 77.929688%, 95.3125%)" fill-opacity="1" d="M 76.019531 25.566406 L 63.566406 47.972656 L 148.984375 38.933594 "/>
<path fill="none" stroke-width="5" stroke-linecap="round" stroke-linejoin="round" stroke="rgb(0%, 0%, 0%)" stroke-opacity="1" stroke-miterlimit="10" d="M 759.76738 2035.999523 L 634.828721 1811.203994 " transform="matrix(0.0996739, 0, 0, -0.0996739, 0.290543, 228.502446)"/>
<path fill-rule="nonzero" fill="rgb(87.304688%, 82.226562%, 79.6875%)" fill-opacity="1" stroke-width="5" stroke-linecap="round" stroke-linejoin="round" stroke="rgb(0%, 0%, 0%)" stroke-opacity="1" stroke-miterlimit="10" d="M 1491.80289 1901.890335 L 1834.874727 1663.260632 L 1937.004635 1247.412418 " transform="matrix(0.0996739, 0, 0, -0.0996739, 0.290543, 228.502446)"/>
<path fill-rule="nonzero" fill="rgb(70.3125%, 31.10199%, 30.004883%)" fill-opacity="1" stroke-width="5" stroke-linecap="round" stroke-linejoin="round" stroke="rgb(0%, 0%, 0%)" stroke-opacity="1" stroke-miterlimit="10" d="M 1027.31952 579.217898 L 1508.184433 645.919779 L 1648.172165 443.77624 " transform="matrix(0.0996739, 0, 0, -0.0996739, 0.290543, 228.502446)"/>
<path fill-rule="nonzero" fill="rgb(94.139099%, 65.625%, 46.897888%)" fill-opacity="1" stroke-width="5" stroke-linecap="round" stroke-linejoin="round" stroke="rgb(0%, 0%, 0%)" stroke-opacity="1" stroke-miterlimit="10" d="M 1648.172165 443.77624 L 1508.184433 645.919779 L 1672.744479 1107.738209 " transform="matrix(0.0996739, 0, 0, -0.0996739, 0.290543, 228.502446)"/>
<path fill-rule="nonzero" fill="rgb(52.929688%, 30.906677%, 52.34375%)" fill-opacity="1" stroke-width="5" stroke-linecap="round" stroke-linejoin="round" stroke="rgb(0%, 0%, 0%)" stroke-opacity="1" stroke-miterlimit="10" d="M 722.45822 221.684842 L 272.514449 704.352508 L 355.950586 1050.71633 " transform="matrix(0.0996739, 0, 0, -0.0996739, 0.290543, 228.502446)"/>
<path fill-rule="nonzero" fill="rgb(52.929688%, 30.906677%, 52.34375%)" fill-opacity="1" d="M 102.6875 170.769531 L 72.300781 206.40625 L 35.769531 123.773438 "/>
<path fill="none" stroke-width="5" stroke-linecap="round" stroke-linejoin="round" stroke="rgb(0%, 0%, 0%)" stroke-opacity="1" stroke-miterlimit="10" d="M 1027.31952 579.217898 L 722.45822 221.684842 " transform="matrix(0.0996739, 0, 0, -0.0996739, 0.290543, 228.502446)"/>
<path fill-rule="nonzero" fill="rgb(87.304688%, 82.226562%, 79.6875%)" fill-opacity="1" d="M 193.359375 104.167969 L 167.019531 118.089844 L 148.984375 38.933594 "/>
<path fill="none" stroke-width="5" stroke-linecap="round" stroke-linejoin="round" stroke="rgb(0%, 0%, 0%)" stroke-opacity="1" stroke-miterlimit="10" d="M 1937.004635 1247.412418 L 1672.744479 1107.738209 " transform="matrix(0.0996739, 0, 0, -0.0996739, 0.290543, 228.502446)"/>
<path fill-rule="nonzero" fill="rgb(87.304688%, 82.226562%, 79.6875%)" fill-opacity="1" stroke-width="5" stroke-linecap="round" stroke-linejoin="round" stroke="rgb(0%, 0%, 0%)" stroke-opacity="1" stroke-miterlimit="10" d="M 1672.744479 1107.738209 L 1181.611709 1588.172028 L 1491.80289 1901.890335 " transform="matrix(0.0996739, 0, 0, -0.0996739, 0.290543, 228.502446)"/>
<path fill-rule="nonzero" fill="rgb(62.693787%, 77.929688%, 95.3125%)" fill-opacity="1" stroke-width="5" stroke-linecap="round" stroke-linejoin="round" stroke="rgb(0%, 0%, 0%)" stroke-opacity="1" stroke-miterlimit="10" d="M 634.828721 1811.203994 L 1181.611709 1588.172028 L 1491.80289 1901.890335 " transform="matrix(0.0996739, 0, 0, -0.0996739, 0.290543, 228.502446)"/>
<path fill-rule="nonzero" fill="rgb(57.421875%, 52.929688%, 76.5625%)" fill-opacity="1" stroke-width="5" stroke-linecap="round" stroke-linejoin="round" stroke="rgb(0%, 0%, 0%)" stroke-opacity="1" stroke-miterlimit="10" d="M 634.828721 1811.203994 L 290.698746 1488.62868 L 355.950586 1050.71633 " transform="matrix(0.0996739, 0, 0, -0.0996739, 0.290543, 228.502446)"/>
<path fill-rule="nonzero" fill="rgb(57.421875%, 52.929688%, 76.5625%)" fill-opacity="1" stroke-width="5" stroke-linecap="round" stroke-linejoin="round" stroke="rgb(0%, 0%, 0%)" stroke-opacity="1" stroke-miterlimit="10" d="M 776.540826 993.772833 L 1181.611709 1588.172028 L 634.828721 1811.203994 " transform="matrix(0.0996739, 0, 0, -0.0996739, 0.290543, 228.502446)"/>
<path fill-rule="nonzero" fill="rgb(57.421875%, 52.929688%, 76.5625%)" fill-opacity="1" d="M 35.769531 123.773438 L 77.691406 129.449219 L 63.566406 47.972656 "/>
<path fill="none" stroke-width="5" stroke-linecap="round" stroke-linejoin="round" stroke="rgb(0%, 0%, 0%)" stroke-opacity="1" stroke-miterlimit="10" d="M 355.950586 1050.71633 L 776.540826 993.772833 " transform="matrix(0.0996739, 0, 0, -0.0996739, 0.290543, 228.502446)"/>
<path fill-rule="nonzero" fill="rgb(52.929688%, 30.906677%, 52.34375%)" fill-opacity="1" stroke-width="5" stroke-linecap="round" stroke-linejoin="round" stroke="rgb(0%, 0%, 0%)" stroke-opacity="1" stroke-miterlimit="10" d="M 355.950586 1050.71633 L 776.540826 993.772833 L 1027.31952 579.217898 " transform="matrix(0.0996739, 0, 0, -0.0996739, 0.290543, 228.502446)"/>
<path fill-rule="nonzero" fill="rgb(75.193787%, 58.006287%, 66.40625%)" fill-opacity="1" d="M 150.617188 164.121094 L 102.6875 170.769531 L 118.066406 70.203125 "/>
<path fill="none" stroke-width="5" stroke-linecap="round" stroke-linejoin="round" stroke="rgb(0%, 0%, 0%)" stroke-opacity="1" stroke-miterlimit="10" d="M 1508.184433 645.919779 L 1027.31952 579.217898 " transform="matrix(0.0996739, 0, 0, -0.0996739, 0.290543, 228.502446)"/>
<path fill-rule="nonzero" fill="rgb(75.193787%, 58.006287%, 66.40625%)" fill-opacity="1" stroke-width="5" stroke-linecap="round" stroke-linejoin="round" stroke="rgb(0%, 0%, 0%)" stroke-opacity="1" stroke-miterlimit="10" d="M 1181.611709 1588.172028 L 1672.744479 1107.738209 L 1508.184433 645.919779 " transform="matrix(0.0996739, 0, 0, -0.0996739, 0.290543, 228.502446)"/>
<path fill-rule="nonzero" fill="rgb(75.193787%, 58.006287%, 66.40625%)" fill-opacity="1" stroke-width="5" stroke-linecap="round" stroke-linejoin="round" stroke="rgb(0%, 0%, 0%)" stroke-opacity="1" stroke-miterlimit="10" d="M 1027.31952 579.217898 L 776.540826 993.772833 L 1181.611709 1588.172028 " transform="matrix(0.0996739, 0, 0, -0.0996739, 0.290543, 228.502446)"/>
</svg>
