<?xml version="1.0" encoding="UTF-8"?>
<svg xmlns="http://www.w3.org/2000/svg" xmlns:xlink="http://www.w3.org/1999/xlink" width="200.31" height="217.44" viewBox="0 0 200.31 217.44">
<path fill-rule="nonzero" fill="rgb(75.78125%, 51.171875%, 55.859375%)" fill-opacity="1" stroke-width="5" stroke-linecap="round" stroke-linejoin="round" stroke="rgb(0%, 0%, 0%)" stroke-opacity="1" stroke-miterlimit="10" d="M 96.581549 1356.126543 L 776.964065 1075.789191 L 1414.856972 1569.868095 " transform="matrix(0.0996567, 0, 0, -0.0996567, -0.000000000000002554, 216.787743)"/>
<path fill-rule="nonzero" fill="rgb(84.179688%, 76.367188%, 77.734375%)" fill-opacity="1" stroke-width="5" stroke-linecap="round" stroke-linejoin="round" stroke="rgb(0%, 0%, 0%)" stroke-opacity="1" stroke-miterlimit="10" d="M 776.964065 1075.789191 L 96.581549 1356.126543 L 272.262758 544.786658 " transform="matrix(0.0996567, 0, 0, -0.0996567, -0.000000000000002554, 216.787743)"/>
<path fill-rule="nonzero" fill="rgb(84.179688%, 76.367188%, 77.734375%)" fill-opacity="1" stroke-width="5" stroke-linecap="round" stroke-linejoin="round" stroke="rgb(0%, 0%, 0%)" stroke-opacity="1" stroke-miterlimit="10" d="M 272.262758 544.786658 L 964.404392 303.607166 L 776.964065 1075.789191 " transform="matrix(0.0996567, 0, 0, -0.0996567, -0.000000000000002554, 216.787743)"/>
<path fill-rule="nonzero" fill="rgb(63.476562%, 55.076599%, 74.414062%)" fill-opacity="1" stroke-width="5" stroke-linecap="round" stroke-linejoin="round" stroke="rgb(0%, 0%, 0%)" stroke-opacity="1" stroke-miterlimit="10" d="M 1626.756262 800.508259 L 1414.856972 1569.868095 L 776.964065 1075.789191 " transform="matrix(0.0996567, 0, 0, -0.0996567, -0.000000000000002554, 216.787743)"/>
<path fill-rule="nonzero" fill="rgb(63.476562%, 55.076599%, 74.414062%)" fill-opacity="1" stroke-width="5" stroke-linecap="round" stroke-linejoin="round" stroke="rgb(0%, 0%, 0%)" stroke-opacity="1" stroke-miterlimit="10" d="M 776.964065 1075.789191 L 964.404392 303.607166 L 1626.756262 800.508259 " transform="matrix(0.0996567, 0, 0, -0.0996567, -0.000000000000002554, 216.787743)"/>
<path fill-rule="nonzero" fill="rgb(75.78125%, 51.171875%, 55.859375%)" fill-opacity="1" stroke-width="5" stroke-linecap="round" stroke-linejoin="round" stroke="rgb(0%, 0%, 0%)" stroke-opacity="1" stroke-miterlimit="10" d="M 1414.856972 1569.868095 L 761.912395 1886.031557 L 96.581549 1356.126543 " transform="matrix(0.0996567, 0, 0, -0.0996567, -0.000000000000002554, 216.787743)"/>
<path fill-rule="nonzero" fill="rgb(7.495117%, 0%, 45.188904%)" fill-opacity="1" stroke-width="5" stroke-linecap="round" stroke-linejoin="round" stroke="rgb(0%, 0%, 0%)" stroke-opacity="1" stroke-miterlimit="10" d="M 1414.856972 1569.868095 L 1626.756262 800.508259 L 1931.356593 768.680248 " transform="matrix(0.0996567, 0, 0, -0.0996567, -0.000000000000002554, 216.787743)"/>
<path fill-rule="nonzero" fill="rgb(7.495117%, 0%, 45.188904%)" fill-opacity="1" stroke-width="5" stroke-linecap="round" stroke-linejoin="round" stroke="rgb(0%, 0%, 0%)" stroke-opacity="1" stroke-miterlimit="10" d="M 1931.356593 768.680248 L 1682.925645 1632.113021 L 1414.856972 1569.868095 " transform="matrix(0.0996567, 0, 0, -0.0996567, -0.000000000000002554, 216.787743)"/>
<path fill-rule="nonzero" fill="rgb(16.992188%, 0%, 0%)" fill-opacity="1" stroke-width="5" stroke-linecap="round" stroke-linejoin="round" stroke="rgb(0%, 0%, 0%)" stroke-opacity="1" stroke-miterlimit="10" d="M 964.404392 1993.549085 L 761.912395 1886.031557 L 1414.856972 1569.868095 " transform="matrix(0.0996567, 0, 0, -0.0996567, -0.000000000000002554, 216.787743)"/>
<path fill-rule="nonzero" fill="rgb(16.992188%, 0%, 0%)" fill-opacity="1" stroke-width="5" stroke-linecap="round" stroke-linejoin="round" stroke="rgb(0%, 0%, 0%)" stroke-opacity="1" stroke-miterlimit="10" d="M 1414.856972 1569.868095 L 1682.925645 1632.113021 L 964.404392 1993.549085 " transform="matrix(0.0996567, 0, 0, -0.0996567, -0.000000000000002554, 216.787743)"/>
<path fill-rule="nonzero" fill="rgb(27.709961%, 76.951599%, 70.3125%)" fill-opacity="1" stroke-width="5" stroke-linecap="round" stroke-linejoin="round" stroke="rgb(0%, 0%, 0%)" stroke-opacity="1" stroke-miterlimit="10" d="M 1181.673679 211.337294 L 964.404392 303.607166 L 272.262758 544.786658 " transform="matrix(0.0996567, 0, 0, -0.0996567, -0.000000000000002554, 216.787743)"/>
<path fill-rule="nonzero" fill="rgb(11.497498%, 43.797302%, 87.693787%)" fill-opacity="1" stroke-width="5" stroke-linecap="round" stroke-linejoin="round" stroke="rgb(0%, 0%, 0%)" stroke-opacity="1" stroke-miterlimit="10" d="M 1626.756262 800.508259 L 964.404392 303.607166 L 1181.673679 211.337294 " transform="matrix(0.0996567, 0, 0, -0.0996567, -0.000000000000002554, 216.787743)"/>
<path fill-rule="nonzero" fill="rgb(11.497498%, 43.797302%, 87.693787%)" fill-opacity="1" stroke-width="5" stroke-linecap="round" stroke-linejoin="round" stroke="rgb(0%, 0%, 0%)" stroke-opacity="1" stroke-miterlimit="10" d="M 1181.673679 211.337294 L 1931.356593 768.680248 L 1626.756262 800.508259 " transform="matrix(0.0996567, 0, 0, -0.0996567, -0.000000000000002554, 216.787743)"/>
<path fill-rule="nonzero" fill="rgb(27.709961%, 76.951599%, 70.3125%)" fill-opacity="1" stroke-width="5" stroke-linecap="round" stroke-linejoin="round" stroke="rgb(0%, 0%, 0%)" stroke-opacity="1" stroke-miterlimit="10" d="M 272.262758 544.786658 L 413.999317 477.720494 L 1181.673679 211.337294 " transform="matrix(0.0996567, 0, 0, -0.0996567, -0.000000000000002554, 216.787743)"/>
<path fill-rule="nonzero" fill="rgb(0%, 0%, 17.993164%)" fill-opacity="1" stroke-width="5" stroke-linecap="round" stroke-linejoin="round" stroke="rgb(0%, 0%, 0%)" stroke-opacity="1" stroke-miterlimit="10" d="M 413.999317 477.720494 L 272.262758 544.786658 L 96.581549 1356.126543 " transform="matrix(0.0996567, 0, 0, -0.0996567, -0.000000000000002554, 216.787743)"/>
<path fill-rule="nonzero" fill="rgb(0%, 0%, 17.993164%)" fill-opacity="1" stroke-width="5" stroke-linecap="round" stroke-linejoin="round" stroke="rgb(0%, 0%, 0%)" stroke-opacity="1" stroke-miterlimit="10" d="M 96.581549 1356.126543 L 210.723379 1394.304476 L 413.999317 477.720494 " transform="matrix(0.0996567, 0, 0, -0.0996567, -0.000000000000002554, 216.787743)"/>
<path fill-rule="nonzero" fill="rgb(0%, 17.601013%, 65.429688%)" fill-opacity="1" stroke-width="5" stroke-linecap="round" stroke-linejoin="round" stroke="rgb(0%, 0%, 0%)" stroke-opacity="1" stroke-miterlimit="10" d="M 964.404392 1993.549085 L 210.723379 1394.304476 L 96.581549 1356.126543 " transform="matrix(0.0996567, 0, 0, -0.0996567, -0.000000000000002554, 216.787743)"/>
<path fill-rule="nonzero" fill="rgb(0%, 17.601013%, 65.429688%)" fill-opacity="1" stroke-width="5" stroke-linecap="round" stroke-linejoin="round" stroke="rgb(0%, 0%, 0%)" stroke-opacity="1" stroke-miterlimit="10" d="M 96.581549 1356.126543 L 761.912395 1886.031557 L 964.404392 1993.549085 " transform="matrix(0.0996567, 0, 0, -0.0996567, -0.000000000000002554, 216.787743)"/>
<path fill-rule="nonzero" fill="rgb(87.109375%, 81.25%, 78.709412%)" fill-opacity="1" stroke-width="5" stroke-linecap="round" stroke-linejoin="round" stroke="rgb(0%, 0%, 0%)" stroke-opacity="1" stroke-miterlimit="10" d="M 964.404392 1993.549085 L 1682.925645 1632.113021 L 1931.356593 768.680248 " transform="matrix(0.0996567, 0, 0, -0.0996567, -0.000000000000002554, 216.787743)"/>
<path fill-rule="nonzero" fill="rgb(76.5625%, 48.802185%, 51.171875%)" fill-opacity="1" stroke-width="5" stroke-linecap="round" stroke-linejoin="round" stroke="rgb(0%, 0%, 0%)" stroke-opacity="1" stroke-miterlimit="10" d="M 1931.356593 768.680248 L 1181.673679 211.337294 L 413.999317 477.720494 " transform="matrix(0.0996567, 0, 0, -0.0996567, -0.000000000000002554, 216.787743)"/>
<path fill-rule="nonzero" fill="rgb(76.5625%, 48.802185%, 51.171875%)" fill-opacity="1" stroke-width="5" stroke-linecap="round" stroke-linejoin="round" stroke="rgb(0%, 0%, 0%)" stroke-opacity="1" stroke-miterlimit="10" d="M 413.999317 477.720494 L 1202.17374 1081.472764 L 1931.356593 768.680248 " transform="matrix(0.0996567, 0, 0, -0.0996567, -0.000000000000002554, 216.787743)"/>
<path fill-rule="nonzero" fill="rgb(87.109375%, 81.25%, 78.709412%)" fill-opacity="1" stroke-width="5" stroke-linecap="round" stroke-linejoin="round" stroke="rgb(0%, 0%, 0%)" stroke-opacity="1" stroke-miterlimit="10" d="M 1931.356593 768.680248 L 1202.17374 1081.472764 L 964.404392 1993.549085 " transform="matrix(0.0996567, 0, 0, -0.0996567, -0.000000000000002554, 216.787743)"/>
<path fill-rule="nonzero" fill="rgb(61.521912%, 54.492188%, 75.193787%)" fill-opacity="1" stroke-width="5" stroke-linecap="round" stroke-linejoin="round" stroke="rgb(0%, 0%, 0%)" stroke-opacity="1" stroke-miterlimit="10" d="M 413.999317 477.720494 L 210.723379 1394.304476 L 964.404392 1993.549085 " transform="matrix(0.0996567, 0, 0, -0.0996567, -0.000000000000002554, 216.787743)"/>
<path fill-rule="nonzero" fill="rgb(61.521912%, 54.492188%, 75.193787%)" fill-opacity="1" stroke-width="5" stroke-linecap="round" stroke-linejoin="round" stroke="rgb(0%, 0%, 0%)" stroke-opacity="1" stroke-miterlimit="10" d="M 964.404392 1993.549085 L 1202.17374 1081.472764 L 413.999317 477.720494 " transform="matrix(0.0996567, 0, 0, -0.0996567, -0.000000000000002554, 216.787743)"/>
</svg>
