<?xml version="1.0" encoding="UTF-8"?>
<svg xmlns="http://www.w3.org/2000/svg" xmlns:xlink="http://www.w3.org/1999/xlink" width="212.5" height="196.94" viewBox="0 0 212.5 196.94">
<path fill-rule="nonzero" fill="rgb(79.6875%, 64.84375%, 69.921875%)" fill-opacity="1" d="M 106.40625 71.992188 L 8.519531 27.441406 L 108.15625 183.191406 "/>
<path fill="none" stroke-width="5" stroke-linecap="round" stroke-linejoin="round" stroke="rgb(0%, 0%, 0%)" stroke-opacity="1" stroke-miterlimit="10" d="M 1066.566176 1249.801132 L 85.395772 1696.357199 L 1084.107353 135.192493 Z M 1066.566176 1249.801132 " transform="matrix(0.0997653, 0, 0, -0.0997653, 0.000000000000003608, 196.67892)"/>
<path fill-rule="nonzero" fill="rgb(61.71875%, 50%, 69.726562%)" fill-opacity="1" d="M 106.40625 71.992188 L 108.15625 183.191406 L 204.234375 24.621094 "/>
<path fill="none" stroke-width="5" stroke-linecap="round" stroke-linejoin="round" stroke="rgb(0%, 0%, 0%)" stroke-opacity="1" stroke-miterlimit="10" d="M 1066.566176 1249.801132 L 1084.107353 135.192493 L 2047.149265 1724.626684 Z M 1066.566176 1249.801132 " transform="matrix(0.0997653, 0, 0, -0.0997653, 0.000000000000003608, 196.67892)"/>
<path fill-rule="nonzero" fill="rgb(94.53125%, 93.164062%, 75.584412%)" fill-opacity="1" d="M 47.824219 133.746094 L 8.519531 27.441406 L 108.15625 183.191406 "/>
<path fill="none" stroke-width="5" stroke-linecap="round" stroke-linejoin="round" stroke="rgb(0%, 0%, 0%)" stroke-opacity="1" stroke-miterlimit="10" d="M 479.367463 630.809037 L 85.395772 1696.357199 L 1084.107353 135.192493 Z M 479.367463 630.809037 " transform="matrix(0.0997653, 0, 0, -0.0997653, 0.000000000000003608, 196.67892)"/>
<path fill-rule="nonzero" fill="rgb(20.092773%, 0%, 0%)" fill-opacity="1" d="M 47.824219 133.746094 L 108.15625 183.191406 L 111.804688 132.683594 "/>
<path fill="none" stroke-width="5" stroke-linecap="round" stroke-linejoin="round" stroke="rgb(0%, 0%, 0%)" stroke-opacity="1" stroke-miterlimit="10" d="M 479.367463 630.809037 L 1084.107353 135.192493 L 1120.677574 641.459037 Z M 479.367463 630.809037 " transform="matrix(0.0997653, 0, 0, -0.0997653, 0.000000000000003608, 196.67892)"/>
<path fill-rule="nonzero" fill="rgb(21.604919%, 31.90918%, 75.584412%)" fill-opacity="1" d="M 170.210938 131.652344 L 204.234375 24.621094 L 108.15625 183.191406 "/>
<path fill="none" stroke-width="5" stroke-linecap="round" stroke-linejoin="round" stroke="rgb(0%, 0%, 0%)" stroke-opacity="1" stroke-miterlimit="10" d="M 1706.114338 651.795801 L 2047.149265 1724.626684 L 1084.107353 135.192493 Z M 1706.114338 651.795801 " transform="matrix(0.0997653, 0, 0, -0.0997653, 0.000000000000003608, 196.67892)"/>
<path fill-rule="nonzero" fill="rgb(67.96875%, 13.890076%, 0%)" fill-opacity="1" d="M 170.210938 131.652344 L 111.804688 132.683594 L 108.15625 183.191406 "/>
<path fill="none" stroke-width="5" stroke-linecap="round" stroke-linejoin="round" stroke="rgb(0%, 0%, 0%)" stroke-opacity="1" stroke-miterlimit="10" d="M 1706.114338 651.795801 L 1120.677574 641.459037 L 1084.107353 135.192493 Z M 1706.114338 651.795801 " transform="matrix(0.0997653, 0, 0, -0.0997653, 0.000000000000003608, 196.67892)"/>
<path fill-rule="nonzero" fill="rgb(68.75%, 40.696716%, 49.09668%)" fill-opacity="1" d="M 106.40625 71.992188 L 8.519531 27.441406 L 204.234375 24.621094 "/>
<path fill="none" stroke-width="5" stroke-linecap="round" stroke-linejoin="round" stroke="rgb(0%, 0%, 0%)" stroke-opacity="1" stroke-miterlimit="10" d="M 1066.566176 1249.801132 L 85.395772 1696.357199 L 2047.149265 1724.626684 Z M 1066.566176 1249.801132 " transform="matrix(0.0997653, 0, 0, -0.0997653, 0.000000000000003608, 196.67892)"/>
<path fill-rule="nonzero" fill="rgb(9.397888%, 64.84375%, 80.271912%)" fill-opacity="1" d="M 108.15625 28.964844 L 8.519531 27.441406 L 204.234375 24.621094 "/>
<path fill="none" stroke-width="5" stroke-linecap="round" stroke-linejoin="round" stroke="rgb(0%, 0%, 0%)" stroke-opacity="1" stroke-miterlimit="10" d="M 1084.107353 1681.086978 L 85.395772 1696.357199 L 2047.149265 1724.626684 Z M 1084.107353 1681.086978 " transform="matrix(0.0997653, 0, 0, -0.0997653, 0.000000000000003608, 196.67892)"/>
<path fill-rule="nonzero" fill="rgb(80.664062%, 80.46875%, 84.764099%)" fill-opacity="1" d="M 108.15625 28.964844 L 111.804688 132.683594 L 204.234375 24.621094 "/>
<path fill="none" stroke-width="5" stroke-linecap="round" stroke-linejoin="round" stroke="rgb(0%, 0%, 0%)" stroke-opacity="1" stroke-miterlimit="10" d="M 1084.107353 1681.086978 L 1120.677574 641.459037 L 2047.149265 1724.626684 Z M 1084.107353 1681.086978 " transform="matrix(0.0997653, 0, 0, -0.0997653, 0.000000000000003608, 196.67892)"/>
<path fill-rule="nonzero" fill="rgb(97.264099%, 74.414062%, 53.709412%)" fill-opacity="1" d="M 170.210938 131.652344 L 111.804688 132.683594 L 204.234375 24.621094 "/>
<path fill="none" stroke-width="5" stroke-linecap="round" stroke-linejoin="round" stroke="rgb(0%, 0%, 0%)" stroke-opacity="1" stroke-miterlimit="10" d="M 1706.114338 651.795801 L 1120.677574 641.459037 L 2047.149265 1724.626684 Z M 1706.114338 651.795801 " transform="matrix(0.0997653, 0, 0, -0.0997653, 0.000000000000003608, 196.67892)"/>
<path fill-rule="nonzero" fill="rgb(54.492188%, 58.201599%, 84.375%)" fill-opacity="1" d="M 108.15625 28.964844 L 8.519531 27.441406 L 111.804688 132.683594 "/>
<path fill="none" stroke-width="5" stroke-linecap="round" stroke-linejoin="round" stroke="rgb(0%, 0%, 0%)" stroke-opacity="1" stroke-miterlimit="10" d="M 1084.107353 1681.086978 L 85.395772 1696.357199 L 1120.677574 641.459037 Z M 1084.107353 1681.086978 " transform="matrix(0.0997653, 0, 0, -0.0997653, 0.000000000000003608, 196.67892)"/>
<path fill-rule="nonzero" fill="rgb(27.197266%, 16.697693%, 54.881287%)" fill-opacity="1" d="M 47.824219 133.746094 L 8.519531 27.441406 L 111.804688 132.683594 "/>
<path fill="none" stroke-width="5" stroke-linecap="round" stroke-linejoin="round" stroke="rgb(0%, 0%, 0%)" stroke-opacity="1" stroke-miterlimit="10" d="M 479.367463 630.809037 L 85.395772 1696.357199 L 1120.677574 641.459037 Z M 479.367463 630.809037 " transform="matrix(0.0997653, 0, 0, -0.0997653, 0.000000000000003608, 196.67892)"/>
</svg>
