<?xml version="1.0" encoding="UTF-8"?>
<svg xmlns="http://www.w3.org/2000/svg" xmlns:xlink="http://www.w3.org/1999/xlink" width="198.19" height="210.44" viewBox="0 0 198.19 210.44">
<path fill-rule="nonzero" fill="rgb(75.389099%, 66.40625%, 76.367188%)" fill-opacity="1" d="M 90.625 99.1875 L 94.832031 149.820312 L 44.871094 131.601562 "/>
<path fill="none" stroke-width="5" stroke-linecap="round" stroke-linejoin="round" stroke="rgb(0%, 0%, 0%)" stroke-opacity="1" stroke-miterlimit="10" d="M 909.953832 1109.971548 L 952.196086 601.574066 L 450.544813 784.506164 Z M 909.953832 1109.971548 " transform="matrix(0.099593, 0, 0, -0.099593, 0.000000000000001832, 209.732857)"/>
<path fill-rule="nonzero" fill="rgb(67.771912%, 59.764099%, 75.78125%)" fill-opacity="1" d="M 90.625 99.1875 L 94.832031 149.820312 L 142.167969 125.394531 "/>
<path fill="none" stroke-width="5" stroke-linecap="round" stroke-linejoin="round" stroke="rgb(0%, 0%, 0%)" stroke-opacity="1" stroke-miterlimit="10" d="M 909.953832 1109.971548 L 952.196086 601.574066 L 1427.490074 846.830157 Z M 909.953832 1109.971548 " transform="matrix(0.099593, 0, 0, -0.099593, 0.000000000000001832, 209.732857)"/>
<path fill-rule="nonzero" fill="rgb(64.256287%, 51.171875%, 68.943787%)" fill-opacity="1" d="M 133.679688 72.773438 L 90.625 99.1875 L 142.167969 125.394531 "/>
<path fill="none" stroke-width="5" stroke-linecap="round" stroke-linejoin="round" stroke="rgb(0%, 0%, 0%)" stroke-opacity="1" stroke-miterlimit="10" d="M 1342.260347 1375.191712 L 909.953832 1109.971548 L 1427.490074 846.830157 Z M 1342.260347 1375.191712 " transform="matrix(0.099593, 0, 0, -0.099593, 0.000000000000001832, 209.732857)"/>
<path fill-rule="nonzero" fill="rgb(79.881287%, 64.646912%, 69.334412%)" fill-opacity="1" d="M 47.1875 77.703125 L 90.625 99.1875 L 44.871094 131.601562 "/>
<path fill="none" stroke-width="5" stroke-linecap="round" stroke-linejoin="round" stroke="rgb(0%, 0%, 0%)" stroke-opacity="1" stroke-miterlimit="10" d="M 473.803547 1325.693361 L 909.953832 1109.971548 L 450.544813 784.506164 Z M 473.803547 1325.693361 " transform="matrix(0.099593, 0, 0, -0.099593, 0.000000000000001832, 209.732857)"/>
<path fill-rule="nonzero" fill="rgb(76.171875%, 55.664062%, 61.914062%)" fill-opacity="1" d="M 89.09375 43.609375 L 47.1875 77.703125 L 90.625 99.1875 "/>
<path fill="none" stroke-width="5" stroke-linecap="round" stroke-linejoin="round" stroke="rgb(0%, 0%, 0%)" stroke-opacity="1" stroke-miterlimit="10" d="M 894.57875 1668.024268 L 473.803547 1325.693361 L 909.953832 1109.971548 Z M 894.57875 1668.024268 " transform="matrix(0.099593, 0, 0, -0.099593, 0.000000000000001832, 209.732857)"/>
<path fill-rule="nonzero" fill="rgb(68.164062%, 48.802185%, 61.71875%)" fill-opacity="1" d="M 89.09375 43.609375 L 133.679688 72.773438 L 90.625 99.1875 "/>
<path fill="none" stroke-width="5" stroke-linecap="round" stroke-linejoin="round" stroke="rgb(0%, 0%, 0%)" stroke-opacity="1" stroke-miterlimit="10" d="M 894.57875 1668.024268 L 1342.260347 1375.191712 L 909.953832 1109.971548 Z M 894.57875 1668.024268 " transform="matrix(0.099593, 0, 0, -0.099593, 0.000000000000001832, 209.732857)"/>
<path fill-rule="nonzero" fill="rgb(61.914062%, 61.71875%, 82.617188%)" fill-opacity="1" d="M 142.167969 125.394531 L 94.832031 149.820312 L 130.882812 177.597656 "/>
<path fill="none" stroke-width="5" stroke-linecap="round" stroke-linejoin="round" stroke="rgb(0%, 0%, 0%)" stroke-opacity="1" stroke-miterlimit="10" d="M 1427.490074 846.830157 L 952.196086 601.574066 L 1314.177289 322.665372 Z M 1427.490074 846.830157 " transform="matrix(0.099593, 0, 0, -0.099593, 0.000000000000001832, 209.732857)"/>
<path fill-rule="nonzero" fill="rgb(47.605896%, 51.756287%, 82.03125%)" fill-opacity="1" d="M 173.136719 141.78125 L 142.167969 125.394531 L 130.882812 177.597656 "/>
<path fill="none" stroke-width="5" stroke-linecap="round" stroke-linejoin="round" stroke="rgb(0%, 0%, 0%)" stroke-opacity="1" stroke-miterlimit="10" d="M 1738.443263 682.293246 L 1427.490074 846.830157 L 1314.177289 322.665372 Z M 1738.443263 682.293246 " transform="matrix(0.099593, 0, 0, -0.099593, 0.000000000000001832, 209.732857)"/>
<path fill-rule="nonzero" fill="rgb(53.318787%, 40.989685%, 65.818787%)" fill-opacity="1" d="M 177.132812 86.136719 L 133.679688 72.773438 L 142.167969 125.394531 "/>
<path fill="none" stroke-width="5" stroke-linecap="round" stroke-linejoin="round" stroke="rgb(0%, 0%, 0%)" stroke-opacity="1" stroke-miterlimit="10" d="M 1778.56752 1241.012744 L 1342.260347 1375.191712 L 1427.490074 846.830157 Z M 1778.56752 1241.012744 " transform="matrix(0.099593, 0, 0, -0.099593, 0.000000000000001832, 209.732857)"/>
<path fill-rule="nonzero" fill="rgb(41.992188%, 38.597107%, 71.484375%)" fill-opacity="1" d="M 177.132812 86.136719 L 173.136719 141.78125 L 142.167969 125.394531 "/>
<path fill="none" stroke-width="5" stroke-linecap="round" stroke-linejoin="round" stroke="rgb(0%, 0%, 0%)" stroke-opacity="1" stroke-miterlimit="10" d="M 1778.56752 1241.012744 L 1738.443263 682.293246 L 1427.490074 846.830157 Z M 1778.56752 1241.012744 " transform="matrix(0.099593, 0, 0, -0.099593, 0.000000000000001832, 209.732857)"/>
<path fill-rule="nonzero" fill="rgb(67.1875%, 72.851562%, 89.256287%)" fill-opacity="1" d="M 130.882812 177.597656 L 94.832031 149.820312 L 67.707031 182.046875 "/>
<path fill="none" stroke-width="5" stroke-linecap="round" stroke-linejoin="round" stroke="rgb(0%, 0%, 0%)" stroke-opacity="1" stroke-miterlimit="10" d="M 1314.177289 322.665372 L 952.196086 601.574066 L 679.83749 277.991345 Z M 1314.177289 322.665372 " transform="matrix(0.099593, 0, 0, -0.099593, 0.000000000000001832, 209.732857)"/>
<path fill-rule="nonzero" fill="rgb(76.951599%, 75.389099%, 83.984375%)" fill-opacity="1" d="M 44.871094 131.601562 L 94.832031 149.820312 L 67.707031 182.046875 "/>
<path fill="none" stroke-width="5" stroke-linecap="round" stroke-linejoin="round" stroke="rgb(0%, 0%, 0%)" stroke-opacity="1" stroke-miterlimit="10" d="M 450.544813 784.506164 L 952.196086 601.574066 L 679.83749 277.991345 Z M 450.544813 784.506164 " transform="matrix(0.099593, 0, 0, -0.099593, 0.000000000000001832, 209.732857)"/>
<path fill-rule="nonzero" fill="rgb(60.546875%, 35.594177%, 51.367188%)" fill-opacity="1" d="M 143 32.632812 L 133.679688 72.773438 L 89.09375 43.609375 "/>
<path fill="none" stroke-width="5" stroke-linecap="round" stroke-linejoin="round" stroke="rgb(0%, 0%, 0%)" stroke-opacity="1" stroke-miterlimit="10" d="M 1435.844392 1778.238504 L 1342.260347 1375.191712 L 894.57875 1668.024268 Z M 1435.844392 1778.238504 " transform="matrix(0.099593, 0, 0, -0.099593, 0.000000000000001832, 209.732857)"/>
<path fill-rule="nonzero" fill="rgb(48.28949%, 28.001404%, 52.734375%)" fill-opacity="1" d="M 143 32.632812 L 133.679688 72.773438 L 177.132812 86.136719 "/>
<path fill="none" stroke-width="5" stroke-linecap="round" stroke-linejoin="round" stroke="rgb(0%, 0%, 0%)" stroke-opacity="1" stroke-miterlimit="10" d="M 1435.844392 1778.238504 L 1342.260347 1375.191712 L 1778.56752 1241.012744 Z M 1435.844392 1778.238504 " transform="matrix(0.099593, 0, 0, -0.099593, 0.000000000000001832, 209.732857)"/>
<path fill-rule="nonzero" fill="rgb(85.742188%, 86.914062%, 84.764099%)" fill-opacity="1" d="M 22.753906 151.730469 L 44.871094 131.601562 L 67.707031 182.046875 "/>
<path fill="none" stroke-width="5" stroke-linecap="round" stroke-linejoin="round" stroke="rgb(0%, 0%, 0%)" stroke-opacity="1" stroke-miterlimit="10" d="M 228.469012 582.394436 L 450.544813 784.506164 L 679.83749 277.991345 Z M 228.469012 582.394436 " transform="matrix(0.099593, 0, 0, -0.099593, 0.000000000000001832, 209.732857)"/>
<path fill-rule="nonzero" fill="rgb(93.75%, 84.764099%, 72.851562%)" fill-opacity="1" d="M 10.082031 95.996094 L 22.753906 151.730469 L 44.871094 131.601562 "/>
<path fill="none" stroke-width="5" stroke-linecap="round" stroke-linejoin="round" stroke="rgb(0%, 0%, 0%)" stroke-opacity="1" stroke-miterlimit="10" d="M 101.232364 1142.016042 L 228.469012 582.394436 L 450.544813 784.506164 Z M 101.232364 1142.016042 " transform="matrix(0.099593, 0, 0, -0.099593, 0.000000000000001832, 209.732857)"/>
<path fill-rule="nonzero" fill="rgb(88.476562%, 71.484375%, 66.40625%)" fill-opacity="1" d="M 47.1875 77.703125 L 10.082031 95.996094 L 44.871094 131.601562 "/>
<path fill="none" stroke-width="5" stroke-linecap="round" stroke-linejoin="round" stroke="rgb(0%, 0%, 0%)" stroke-opacity="1" stroke-miterlimit="10" d="M 473.803547 1325.693361 L 101.232364 1142.016042 L 450.544813 784.506164 Z M 473.803547 1325.693361 " transform="matrix(0.099593, 0, 0, -0.099593, 0.000000000000001832, 209.732857)"/>
<path fill-rule="nonzero" fill="rgb(90.429688%, 62.889099%, 50.976562%)" fill-opacity="1" d="M 39.132812 38.019531 L 47.1875 77.703125 L 10.082031 95.996094 "/>
<path fill="none" stroke-width="5" stroke-linecap="round" stroke-linejoin="round" stroke="rgb(0%, 0%, 0%)" stroke-opacity="1" stroke-miterlimit="10" d="M 392.927478 1724.151162 L 473.803547 1325.693361 L 101.232364 1142.016042 Z M 392.927478 1724.151162 " transform="matrix(0.099593, 0, 0, -0.099593, 0.000000000000001832, 209.732857)"/>
<path fill-rule="nonzero" fill="rgb(80.664062%, 52.146912%, 50.584412%)" fill-opacity="1" d="M 39.132812 38.019531 L 47.1875 77.703125 L 89.09375 43.609375 "/>
<path fill="none" stroke-width="5" stroke-linecap="round" stroke-linejoin="round" stroke="rgb(0%, 0%, 0%)" stroke-opacity="1" stroke-miterlimit="10" d="M 392.927478 1724.151162 L 473.803547 1325.693361 L 894.57875 1668.024268 Z M 392.927478 1724.151162 " transform="matrix(0.099593, 0, 0, -0.099593, 0.000000000000001832, 209.732857)"/>
<path fill-rule="nonzero" fill="rgb(72.65625%, 33.006287%, 30.004883%)" fill-opacity="1" d="M 91.386719 15.070312 L 39.132812 38.019531 L 89.09375 43.609375 "/>
<path fill="none" stroke-width="5" stroke-linecap="round" stroke-linejoin="round" stroke="rgb(0%, 0%, 0%)" stroke-opacity="1" stroke-miterlimit="10" d="M 917.602151 1954.581281 L 392.927478 1724.151162 L 894.57875 1668.024268 Z M 917.602151 1954.581281 " transform="matrix(0.099593, 0, 0, -0.099593, 0.000000000000001832, 209.732857)"/>
<path fill-rule="nonzero" fill="rgb(59.179688%, 22.705078%, 31.689453%)" fill-opacity="1" d="M 91.386719 15.070312 L 143 32.632812 L 89.09375 43.609375 "/>
<path fill="none" stroke-width="5" stroke-linecap="round" stroke-linejoin="round" stroke="rgb(0%, 0%, 0%)" stroke-opacity="1" stroke-miterlimit="10" d="M 917.602151 1954.581281 L 1435.844392 1778.238504 L 894.57875 1668.024268 Z M 917.602151 1954.581281 " transform="matrix(0.099593, 0, 0, -0.099593, 0.000000000000001832, 209.732857)"/>
<path fill-rule="nonzero" fill="rgb(53.318787%, 79.6875%, 99.414062%)" fill-opacity="1" d="M 104.25 196.554688 L 130.882812 177.597656 L 67.707031 182.046875 "/>
<path fill="none" stroke-width="5" stroke-linecap="round" stroke-linejoin="round" stroke="rgb(0%, 0%, 0%)" stroke-opacity="1" stroke-miterlimit="10" d="M 1046.760684 132.320288 L 1314.177289 322.665372 L 679.83749 277.991345 Z M 1046.760684 132.320288 " transform="matrix(0.099593, 0, 0, -0.099593, 0.000000000000001832, 209.732857)"/>
<path fill-rule="nonzero" fill="rgb(8.105469%, 54.101562%, 90.234375%)" fill-opacity="1" d="M 160.414062 175.160156 L 104.25 196.554688 L 130.882812 177.597656 "/>
<path fill="none" stroke-width="5" stroke-linecap="round" stroke-linejoin="round" stroke="rgb(0%, 0%, 0%)" stroke-opacity="1" stroke-miterlimit="10" d="M 1610.696727 347.139992 L 1046.760684 132.320288 L 1314.177289 322.665372 Z M 1610.696727 347.139992 " transform="matrix(0.099593, 0, 0, -0.099593, 0.000000000000001832, 209.732857)"/>
<path fill-rule="nonzero" fill="rgb(17.700195%, 42.893982%, 86.326599%)" fill-opacity="1" d="M 173.136719 141.78125 L 160.414062 175.160156 L 130.882812 177.597656 "/>
<path fill="none" stroke-width="5" stroke-linecap="round" stroke-linejoin="round" stroke="rgb(0%, 0%, 0%)" stroke-opacity="1" stroke-miterlimit="10" d="M 1738.443263 682.293246 L 1610.696727 347.139992 L 1314.177289 322.665372 Z M 1738.443263 682.293246 " transform="matrix(0.099593, 0, 0, -0.099593, 0.000000000000001832, 209.732857)"/>
<path fill-rule="nonzero" fill="rgb(1.499939%, 6.298828%, 56.834412%)" fill-opacity="1" d="M 191.828125 113.132812 L 173.136719 141.78125 L 177.132812 86.136719 "/>
<path fill="none" stroke-width="5" stroke-linecap="round" stroke-linejoin="round" stroke="rgb(0%, 0%, 0%)" stroke-opacity="1" stroke-miterlimit="10" d="M 1926.121241 969.948479 L 1738.443263 682.293246 L 1778.56752 1241.012744 Z M 1926.121241 969.948479 " transform="matrix(0.099593, 0, 0, -0.099593, 0.000000000000001832, 209.732857)"/>
<path fill-rule="nonzero" fill="rgb(14.697266%, 0%, 26.904297%)" fill-opacity="1" d="M 175.890625 54.738281 L 143 32.632812 L 177.132812 86.136719 "/>
<path fill="none" stroke-width="5" stroke-linecap="round" stroke-linejoin="round" stroke="rgb(0%, 0%, 0%)" stroke-opacity="1" stroke-miterlimit="10" d="M 1766.094877 1556.280369 L 1435.844392 1778.238504 L 1778.56752 1241.012744 Z M 1766.094877 1556.280369 " transform="matrix(0.099593, 0, 0, -0.099593, 0.000000000000001832, 209.732857)"/>
<path fill-rule="nonzero" fill="rgb(0%, 0%, 12.693787%)" fill-opacity="1" d="M 175.890625 54.738281 L 191.828125 113.132812 L 177.132812 86.136719 "/>
<path fill="none" stroke-width="5" stroke-linecap="round" stroke-linejoin="round" stroke="rgb(0%, 0%, 0%)" stroke-opacity="1" stroke-miterlimit="10" d="M 1766.094877 1556.280369 L 1926.121241 969.948479 L 1778.56752 1241.012744 Z M 1766.094877 1556.280369 " transform="matrix(0.099593, 0, 0, -0.099593, 0.000000000000001832, 209.732857)"/>
<path fill-rule="nonzero" fill="rgb(39.988708%, 85.546875%, 86.71875%)" fill-opacity="1" d="M 47.863281 183.082031 L 104.25 196.554688 L 67.707031 182.046875 "/>
<path fill="none" stroke-width="5" stroke-linecap="round" stroke-linejoin="round" stroke="rgb(0%, 0%, 0%)" stroke-opacity="1" stroke-miterlimit="10" d="M 480.588979 267.597476 L 1046.760684 132.320288 L 679.83749 277.991345 Z M 480.588979 267.597476 " transform="matrix(0.099593, 0, 0, -0.099593, 0.000000000000001832, 209.732857)"/>
<path fill-rule="nonzero" fill="rgb(75.78125%, 99.414062%, 85.9375%)" fill-opacity="1" d="M 47.863281 183.082031 L 22.753906 151.730469 L 67.707031 182.046875 "/>
<path fill="none" stroke-width="5" stroke-linecap="round" stroke-linejoin="round" stroke="rgb(0%, 0%, 0%)" stroke-opacity="1" stroke-miterlimit="10" d="M 480.588979 267.597476 L 228.469012 582.394436 L 679.83749 277.991345 Z M 480.588979 267.597476 " transform="matrix(0.099593, 0, 0, -0.099593, 0.000000000000001832, 209.732857)"/>
<path fill-rule="nonzero" fill="rgb(18.701172%, 0%, 0%)" fill-opacity="1" d="M 131.023438 17.878906 L 91.386719 15.070312 L 143 32.632812 "/>
<path fill="none" stroke-width="5" stroke-linecap="round" stroke-linejoin="round" stroke="rgb(0%, 0%, 0%)" stroke-opacity="1" stroke-miterlimit="10" d="M 1315.589286 1926.380557 L 917.602151 1954.581281 L 1435.844392 1778.238504 Z M 1315.589286 1926.380557 " transform="matrix(0.099593, 0, 0, -0.099593, 0.000000000000001832, 209.732857)"/>
<path fill-rule="nonzero" fill="rgb(0%, 0%, 0%)" fill-opacity="1" d="M 131.023438 17.878906 L 175.890625 54.738281 L 143 32.632812 "/>
<path fill="none" stroke-width="5" stroke-linecap="round" stroke-linejoin="round" stroke="rgb(0%, 0%, 0%)" stroke-opacity="1" stroke-miterlimit="10" d="M 1315.589286 1926.380557 L 1766.094877 1556.280369 L 1435.844392 1778.238504 Z M 1315.589286 1926.380557 " transform="matrix(0.099593, 0, 0, -0.099593, 0.000000000000001832, 209.732857)"/>
<path fill-rule="nonzero" fill="rgb(0%, 0%, 48.509216%)" fill-opacity="1" d="M 191.828125 113.132812 L 173.136719 141.78125 L 160.414062 175.160156 "/>
<path fill="none" stroke-width="5" stroke-linecap="round" stroke-linejoin="round" stroke="rgb(0%, 0%, 0%)" stroke-opacity="1" stroke-miterlimit="10" d="M 1926.121241 969.948479 L 1738.443263 682.293246 L 1610.696727 347.139992 Z M 1926.121241 969.948479 " transform="matrix(0.099593, 0, 0, -0.099593, 0.000000000000001832, 209.732857)"/>
<path fill-rule="nonzero" fill="rgb(91.992188%, 87.889099%, 45.188904%)" fill-opacity="1" d="M 8.484375 124.609375 L 22.753906 151.730469 L 10.082031 95.996094 "/>
<path fill="none" stroke-width="5" stroke-linecap="round" stroke-linejoin="round" stroke="rgb(0%, 0%, 0%)" stroke-opacity="1" stroke-miterlimit="10" d="M 85.190505 854.713809 L 228.469012 582.394436 L 101.232364 1142.016042 Z M 85.190505 854.713809 " transform="matrix(0.099593, 0, 0, -0.099593, 0.000000000000001832, 209.732857)"/>
<path fill-rule="nonzero" fill="rgb(91.209412%, 52.734375%, 11.401367%)" fill-opacity="1" d="M 39.132812 38.019531 L 15.832031 63.527344 L 10.082031 95.996094 "/>
<path fill="none" stroke-width="5" stroke-linecap="round" stroke-linejoin="round" stroke="rgb(0%, 0%, 0%)" stroke-opacity="1" stroke-miterlimit="10" d="M 392.927478 1724.151162 L 158.967366 1468.030536 L 101.232364 1142.016042 Z M 392.927478 1724.151162 " transform="matrix(0.099593, 0, 0, -0.099593, 0.000000000000001832, 209.732857)"/>
<path fill-rule="nonzero" fill="rgb(0%, 0%, 16.601562%)" fill-opacity="1" d="M 15.832031 63.527344 L 8.484375 124.609375 L 10.082031 95.996094 "/>
<path fill="none" stroke-width="5" stroke-linecap="round" stroke-linejoin="round" stroke="rgb(0%, 0%, 0%)" stroke-opacity="1" stroke-miterlimit="10" d="M 158.967366 1468.030536 L 85.190505 854.713809 L 101.232364 1142.016042 Z M 158.967366 1468.030536 " transform="matrix(0.099593, 0, 0, -0.099593, 0.000000000000001832, 209.732857)"/>
<path fill-rule="nonzero" fill="rgb(50.976562%, 0%, 0%)" fill-opacity="1" d="M 60.230469 21.40625 L 91.386719 15.070312 L 39.132812 38.019531 "/>
<path fill="none" stroke-width="5" stroke-linecap="round" stroke-linejoin="round" stroke="rgb(0%, 0%, 0%)" stroke-opacity="1" stroke-miterlimit="10" d="M 604.766299 1890.962957 L 917.602151 1954.581281 L 392.927478 1724.151162 Z M 604.766299 1890.962957 " transform="matrix(0.099593, 0, 0, -0.099593, 0.000000000000001832, 209.732857)"/>
<path fill-rule="nonzero" fill="rgb(0%, 9.690857%, 60.546875%)" fill-opacity="1" d="M 60.230469 21.40625 L 15.832031 63.527344 L 39.132812 38.019531 "/>
<path fill="none" stroke-width="5" stroke-linecap="round" stroke-linejoin="round" stroke="rgb(0%, 0%, 0%)" stroke-opacity="1" stroke-miterlimit="10" d="M 604.766299 1890.962957 L 158.967366 1468.030536 L 392.927478 1724.151162 Z M 604.766299 1890.962957 " transform="matrix(0.099593, 0, 0, -0.099593, 0.000000000000001832, 209.732857)"/>
<path fill-rule="nonzero" fill="rgb(0%, 0%, 0%)" fill-opacity="1" d="M 8.484375 124.609375 L 22.753906 151.730469 L 47.863281 183.082031 "/>
<path fill="none" stroke-width="5" stroke-linecap="round" stroke-linejoin="round" stroke="rgb(0%, 0%, 0%)" stroke-opacity="1" stroke-miterlimit="10" d="M 85.190505 854.713809 L 228.469012 582.394436 L 480.588979 267.597476 Z M 85.190505 854.713809 " transform="matrix(0.099593, 0, 0, -0.099593, 0.000000000000001832, 209.732857)"/>
<path fill-rule="nonzero" fill="rgb(18.896484%, 70.3125%, 88.867188%)" fill-opacity="1" d="M 131.023438 17.878906 L 91.386719 15.070312 L 60.230469 21.40625 "/>
<path fill="none" stroke-width="5" stroke-linecap="round" stroke-linejoin="round" stroke="rgb(0%, 0%, 0%)" stroke-opacity="1" stroke-miterlimit="10" d="M 1315.589286 1926.380557 L 917.602151 1954.581281 L 604.766299 1890.962957 Z M 1315.589286 1926.380557 " transform="matrix(0.099593, 0, 0, -0.099593, 0.000000000000001832, 209.732857)"/>
<path fill-rule="nonzero" fill="rgb(62.889099%, 10.009766%, 0%)" fill-opacity="1" d="M 108.261719 178.566406 L 104.25 196.554688 L 160.414062 175.160156 "/>
<path fill="none" stroke-width="5" stroke-linecap="round" stroke-linejoin="round" stroke="rgb(0%, 0%, 0%)" stroke-opacity="1" stroke-miterlimit="10" d="M 1087.04183 312.938279 L 1046.760684 132.320288 L 1610.696727 347.139992 Z M 1087.04183 312.938279 " transform="matrix(0.099593, 0, 0, -0.099593, 0.000000000000001832, 209.732857)"/>
<path fill-rule="nonzero" fill="rgb(43.992615%, 0%, 0.799561%)" fill-opacity="1" d="M 108.261719 178.566406 L 104.25 196.554688 L 47.863281 183.082031 "/>
<path fill="none" stroke-width="5" stroke-linecap="round" stroke-linejoin="round" stroke="rgb(0%, 0%, 0%)" stroke-opacity="1" stroke-miterlimit="10" d="M 1087.04183 312.938279 L 1046.760684 132.320288 L 480.588979 267.597476 Z M 1087.04183 312.938279 " transform="matrix(0.099593, 0, 0, -0.099593, 0.000000000000001832, 209.732857)"/>
<path fill-rule="nonzero" fill="rgb(97.459412%, 92.576599%, 64.646912%)" fill-opacity="1" d="M 162.808594 70.5625 L 175.890625 54.738281 L 191.828125 113.132812 "/>
<path fill="none" stroke-width="5" stroke-linecap="round" stroke-linejoin="round" stroke="rgb(0%, 0%, 0%)" stroke-opacity="1" stroke-miterlimit="10" d="M 1634.739904 1397.391448 L 1766.094877 1556.280369 L 1926.121241 969.948479 Z M 1634.739904 1397.391448 " transform="matrix(0.099593, 0, 0, -0.099593, 0.000000000000001832, 209.732857)"/>
<path fill-rule="nonzero" fill="rgb(86.914062%, 97.459412%, 85.15625%)" fill-opacity="1" d="M 131.023438 17.878906 L 175.890625 54.738281 L 162.808594 70.5625 "/>
<path fill="none" stroke-width="5" stroke-linecap="round" stroke-linejoin="round" stroke="rgb(0%, 0%, 0%)" stroke-opacity="1" stroke-miterlimit="10" d="M 1315.589286 1926.380557 L 1766.094877 1556.280369 L 1634.739904 1397.391448 Z M 1315.589286 1926.380557 " transform="matrix(0.099593, 0, 0, -0.099593, 0.000000000000001832, 209.732857)"/>
<path fill-rule="nonzero" fill="rgb(82.8125%, 47.410583%, 38.500977%)" fill-opacity="1" d="M 159.8125 136.898438 L 108.261719 178.566406 L 160.414062 175.160156 "/>
<path fill="none" stroke-width="5" stroke-linecap="round" stroke-linejoin="round" stroke="rgb(0%, 0%, 0%)" stroke-opacity="1" stroke-miterlimit="10" d="M 1604.656516 731.320931 L 1087.04183 312.938279 L 1610.696727 347.139992 Z M 1604.656516 731.320931 " transform="matrix(0.099593, 0, 0, -0.099593, 0.000000000000001832, 209.732857)"/>
<path fill-rule="nonzero" fill="rgb(94.53125%, 60.15625%, 33.201599%)" fill-opacity="1" d="M 191.828125 113.132812 L 159.8125 136.898438 L 160.414062 175.160156 "/>
<path fill="none" stroke-width="5" stroke-linecap="round" stroke-linejoin="round" stroke="rgb(0%, 0%, 0%)" stroke-opacity="1" stroke-miterlimit="10" d="M 1926.121241 969.948479 L 1604.656516 731.320931 L 1610.696727 347.139992 Z M 1926.121241 969.948479 " transform="matrix(0.099593, 0, 0, -0.099593, 0.000000000000001832, 209.732857)"/>
<path fill-rule="nonzero" fill="rgb(94.334412%, 75.78125%, 61.914062%)" fill-opacity="1" d="M 162.808594 70.5625 L 159.8125 136.898438 L 191.828125 113.132812 "/>
<path fill="none" stroke-width="5" stroke-linecap="round" stroke-linejoin="round" stroke="rgb(0%, 0%, 0%)" stroke-opacity="1" stroke-miterlimit="10" d="M 1634.739904 1397.391448 L 1604.656516 731.320931 L 1926.121241 969.948479 Z M 1634.739904 1397.391448 " transform="matrix(0.099593, 0, 0, -0.099593, 0.000000000000001832, 209.732857)"/>
<path fill-rule="nonzero" fill="rgb(23.509216%, 25.706482%, 67.96875%)" fill-opacity="1" d="M 41.371094 77.472656 L 15.832031 63.527344 L 8.484375 124.609375 "/>
<path fill="none" stroke-width="5" stroke-linecap="round" stroke-linejoin="round" stroke="rgb(0%, 0%, 0%)" stroke-opacity="1" stroke-miterlimit="10" d="M 415.401769 1328.007468 L 158.967366 1468.030536 L 85.190505 854.713809 Z M 415.401769 1328.007468 " transform="matrix(0.099593, 0, 0, -0.099593, 0.000000000000001832, 209.732857)"/>
<path fill-rule="nonzero" fill="rgb(32.200623%, 45.605469%, 83.984375%)" fill-opacity="1" d="M 60.230469 21.40625 L 15.832031 63.527344 L 41.371094 77.472656 "/>
<path fill="none" stroke-width="5" stroke-linecap="round" stroke-linejoin="round" stroke="rgb(0%, 0%, 0%)" stroke-opacity="1" stroke-miterlimit="10" d="M 604.766299 1890.962957 L 158.967366 1468.030536 L 415.401769 1328.007468 Z M 604.766299 1890.962957 " transform="matrix(0.099593, 0, 0, -0.099593, 0.000000000000001832, 209.732857)"/>
<path fill-rule="nonzero" fill="rgb(54.492188%, 24.609375%, 41.209412%)" fill-opacity="1" d="M 52.375 143.929688 L 108.261719 178.566406 L 47.863281 183.082031 "/>
<path fill="none" stroke-width="5" stroke-linecap="round" stroke-linejoin="round" stroke="rgb(0%, 0%, 0%)" stroke-opacity="1" stroke-miterlimit="10" d="M 525.89056 660.721065 L 1087.04183 312.938279 L 480.588979 267.597476 Z M 525.89056 660.721065 " transform="matrix(0.099593, 0, 0, -0.099593, 0.000000000000001832, 209.732857)"/>
<path fill-rule="nonzero" fill="rgb(34.104919%, 10.78949%, 40.795898%)" fill-opacity="1" d="M 52.375 143.929688 L 8.484375 124.609375 L 47.863281 183.082031 "/>
<path fill="none" stroke-width="5" stroke-linecap="round" stroke-linejoin="round" stroke="rgb(0%, 0%, 0%)" stroke-opacity="1" stroke-miterlimit="10" d="M 525.89056 660.721065 L 85.190505 854.713809 L 480.588979 267.597476 Z M 525.89056 660.721065 " transform="matrix(0.099593, 0, 0, -0.099593, 0.000000000000001832, 209.732857)"/>
<path fill-rule="nonzero" fill="rgb(78.125%, 81.834412%, 88.084412%)" fill-opacity="1" d="M 131.023438 17.878906 L 101.351562 46.554688 L 162.808594 70.5625 "/>
<path fill="none" stroke-width="5" stroke-linecap="round" stroke-linejoin="round" stroke="rgb(0%, 0%, 0%)" stroke-opacity="1" stroke-miterlimit="10" d="M 1315.589286 1926.380557 L 1017.65785 1638.450769 L 1634.739904 1397.391448 Z M 1315.589286 1926.380557 " transform="matrix(0.099593, 0, 0, -0.099593, 0.000000000000001832, 209.732857)"/>
<path fill-rule="nonzero" fill="rgb(62.693787%, 77.929688%, 95.3125%)" fill-opacity="1" d="M 131.023438 17.878906 L 101.351562 46.554688 L 60.230469 21.40625 "/>
<path fill="none" stroke-width="5" stroke-linecap="round" stroke-linejoin="round" stroke="rgb(0%, 0%, 0%)" stroke-opacity="1" stroke-miterlimit="10" d="M 1315.589286 1926.380557 L 1017.65785 1638.450769 L 604.766299 1890.962957 Z M 1315.589286 1926.380557 " transform="matrix(0.099593, 0, 0, -0.099593, 0.000000000000001832, 209.732857)"/>
<path fill-rule="nonzero" fill="rgb(45.188904%, 33.396912%, 62.889099%)" fill-opacity="1" d="M 41.371094 77.472656 L 52.375 143.929688 L 8.484375 124.609375 "/>
<path fill="none" stroke-width="5" stroke-linecap="round" stroke-linejoin="round" stroke="rgb(0%, 0%, 0%)" stroke-opacity="1" stroke-miterlimit="10" d="M 415.401769 1328.007468 L 525.89056 660.721065 L 85.190505 854.713809 Z M 415.401769 1328.007468 " transform="matrix(0.099593, 0, 0, -0.099593, 0.000000000000001832, 209.732857)"/>
<path fill-rule="nonzero" fill="rgb(57.617188%, 62.693787%, 86.521912%)" fill-opacity="1" d="M 60.230469 21.40625 L 101.351562 46.554688 L 41.371094 77.472656 "/>
<path fill="none" stroke-width="5" stroke-linecap="round" stroke-linejoin="round" stroke="rgb(0%, 0%, 0%)" stroke-opacity="1" stroke-miterlimit="10" d="M 604.766299 1890.962957 L 1017.65785 1638.450769 L 415.401769 1328.007468 Z M 604.766299 1890.962957 " transform="matrix(0.099593, 0, 0, -0.099593, 0.000000000000001832, 209.732857)"/>
<path fill-rule="nonzero" fill="rgb(77.734375%, 54.492188%, 58.59375%)" fill-opacity="1" d="M 107.179688 111.039062 L 159.8125 136.898438 L 108.261719 178.566406 "/>
<path fill="none" stroke-width="5" stroke-linecap="round" stroke-linejoin="round" stroke="rgb(0%, 0%, 0%)" stroke-opacity="1" stroke-miterlimit="10" d="M 1076.177295 990.971551 L 1604.656516 731.320931 L 1087.04183 312.938279 Z M 1076.177295 990.971551 " transform="matrix(0.099593, 0, 0, -0.099593, 0.000000000000001832, 209.732857)"/>
<path fill-rule="nonzero" fill="rgb(66.992188%, 45.605469%, 58.59375%)" fill-opacity="1" d="M 107.179688 111.039062 L 52.375 143.929688 L 108.261719 178.566406 "/>
<path fill="none" stroke-width="5" stroke-linecap="round" stroke-linejoin="round" stroke="rgb(0%, 0%, 0%)" stroke-opacity="1" stroke-miterlimit="10" d="M 1076.177295 990.971551 L 525.89056 660.721065 L 1087.04183 312.938279 Z M 1076.177295 990.971551 " transform="matrix(0.099593, 0, 0, -0.099593, 0.000000000000001832, 209.732857)"/>
<path fill-rule="nonzero" fill="rgb(82.617188%, 66.796875%, 68.554688%)" fill-opacity="1" d="M 162.808594 70.5625 L 159.8125 136.898438 L 107.179688 111.039062 "/>
<path fill="none" stroke-width="5" stroke-linecap="round" stroke-linejoin="round" stroke="rgb(0%, 0%, 0%)" stroke-opacity="1" stroke-miterlimit="10" d="M 1634.739904 1397.391448 L 1604.656516 731.320931 L 1076.177295 990.971551 Z M 1634.739904 1397.391448 " transform="matrix(0.099593, 0, 0, -0.099593, 0.000000000000001832, 209.732857)"/>
<path fill-rule="nonzero" fill="rgb(76.756287%, 69.139099%, 77.929688%)" fill-opacity="1" d="M 101.351562 46.554688 L 162.808594 70.5625 L 107.179688 111.039062 "/>
<path fill="none" stroke-width="5" stroke-linecap="round" stroke-linejoin="round" stroke="rgb(0%, 0%, 0%)" stroke-opacity="1" stroke-miterlimit="10" d="M 1017.65785 1638.450769 L 1634.739904 1397.391448 L 1076.177295 990.971551 Z M 1017.65785 1638.450769 " transform="matrix(0.099593, 0, 0, -0.099593, 0.000000000000001832, 209.732857)"/>
<path fill-rule="nonzero" fill="rgb(61.914062%, 48.901367%, 68.164062%)" fill-opacity="1" d="M 41.371094 77.472656 L 52.375 143.929688 L 107.179688 111.039062 "/>
<path fill="none" stroke-width="5" stroke-linecap="round" stroke-linejoin="round" stroke="rgb(0%, 0%, 0%)" stroke-opacity="1" stroke-miterlimit="10" d="M 415.401769 1328.007468 L 525.89056 660.721065 L 1076.177295 990.971551 Z M 415.401769 1328.007468 " transform="matrix(0.099593, 0, 0, -0.099593, 0.000000000000001832, 209.732857)"/>
<path fill-rule="nonzero" fill="rgb(66.796875%, 60.15625%, 77.34375%)" fill-opacity="1" d="M 101.351562 46.554688 L 41.371094 77.472656 L 107.179688 111.039062 "/>
<path fill="none" stroke-width="5" stroke-linecap="round" stroke-linejoin="round" stroke="rgb(0%, 0%, 0%)" stroke-opacity="1" stroke-miterlimit="10" d="M 1017.65785 1638.450769 L 415.401769 1328.007468 L 1076.177295 990.971551 Z M 1017.65785 1638.450769 " transform="matrix(0.099593, 0, 0, -0.099593, 0.000000000000001832, 209.732857)"/>
</svg>
