<?xml version="1.0" encoding="UTF-8"?>
<svg xmlns="http://www.w3.org/2000/svg" xmlns:xlink="http://www.w3.org/1999/xlink" width="240" height="83" viewBox="0 0 240 83">
<path fill="none" stroke-width="4" stroke-linecap="square" stroke-linejoin="miter" stroke="rgb(0%, 0%, 0%)" stroke-opacity="1" stroke-miterlimit="3.25" d="M 533.320312 410.585938 L 533.320312 715.351562 " transform="matrix(0.1, 0, 0, -0.1, 0, 83)"/>
<path fill="none" stroke-width="4" stroke-linecap="square" stroke-linejoin="miter" stroke="rgb(0%, 0%, 0%)" stroke-opacity="1" stroke-miterlimit="3.25" d="M 533.320312 410.585938 L 228.554688 410.585938 " transform="matrix(0.1, 0, 0, -0.1, 0, 83)"/>
<path fill="none" stroke-width="4" stroke-linecap="square" stroke-linejoin="miter" stroke="rgb(0%, 0%, 0%)" stroke-opacity="1" stroke-miterlimit="3.25" d="M 533.320312 715.351562 L 228.554688 715.351562 " transform="matrix(0.1, 0, 0, -0.1, 0, 83)"/>
<path fill="none" stroke-width="4" stroke-linecap="square" stroke-linejoin="miter" stroke="rgb(0%, 0%, 0%)" stroke-opacity="1" stroke-miterlimit="3.25" d="M 228.554688 715.351562 L 228.554688 410.585938 " transform="matrix(0.1, 0, 0, -0.1, 0, 83)"/>
<path fill="none" stroke-width="4" stroke-linecap="square" stroke-linejoin="miter" stroke="rgb(0%, 0%, 0%)" stroke-opacity="1" stroke-miterlimit="3.25" d="M 228.554688 410.585938 L 228.554688 105.820312 " transform="matrix(0.1, 0, 0, -0.1, 0, 83)"/>
<path fill="none" stroke-width="40" stroke-linecap="round" stroke-linejoin="miter" stroke="rgb(100%, 0%, 0%)" stroke-opacity="1" stroke-miterlimit="3.25" d="M 533.320312 410.585938 L 533.320312 410.585938 " transform="matrix(0.1, 0, 0, -0.1, 0, 83)"/>
<path fill="none" stroke-width="40" stroke-linecap="round" stroke-linejoin="miter" stroke="rgb(100%, 0%, 0%)" stroke-opacity="1" stroke-miterlimit="3.25" d="M 533.320312 715.351562 L 533.320312 715.351562 " transform="matrix(0.1, 0, 0, -0.1, 0, 83)"/>
<path fill="none" stroke-width="40" stroke-linecap="round" stroke-linejoin="miter" stroke="rgb(100%, 0%, 0%)" stroke-opacity="1" stroke-miterlimit="3.25" d="M 228.554688 715.351562 L 228.554688 715.351562 " transform="matrix(0.1, 0, 0, -0.1, 0, 83)"/>
<path fill="none" stroke-width="40" stroke-linecap="round" stroke-linejoin="miter" stroke="rgb(100%, 0%, 0%)" stroke-opacity="1" stroke-miterlimit="3.25" d="M 228.554688 410.585938 L 228.554688 410.585938 " transform="matrix(0.1, 0, 0, -0.1, 0, 83)"/>
<path fill="none" stroke-width="40" stroke-linecap="round" stroke-linejoin="miter" stroke="rgb(100%, 0%, 0%)" stroke-opacity="1" stroke-miterlimit="3.25" d="M 228.554688 105.820312 L 228.554688 105.820312 " transform="matrix(0.1, 0, 0, -0.1, 0, 83)"/>
<path fill="none" stroke-width="4" stroke-linecap="square" stroke-linejoin="miter" stroke="rgb(0%, 0%, 0%)" stroke-opacity="1" stroke-miterlimit="3.25" d="M 1098.398438 613.75 L 895.234375 410.585938 " transform="matrix(0.1, 0, 0, -0.1, 0, 83)"/>
<path fill="none" stroke-width="4" stroke-linecap="square" stroke-linejoin="miter" stroke="rgb(0%, 0%, 0%)" stroke-opacity="1" stroke-miterlimit="3.25" d="M 1098.398438 613.75 L 1301.601562 410.585938 " transform="matrix(0.1, 0, 0, -0.1, 0, 83)"/>
<path fill="none" stroke-width="4" stroke-linecap="square" stroke-linejoin="miter" stroke="rgb(0%, 0%, 0%)" stroke-opacity="1" stroke-miterlimit="3.25" d="M 895.234375 410.585938 L 1098.398438 207.382812 " transform="matrix(0.1, 0, 0, -0.1, 0, 83)"/>
<path fill="none" stroke-width="4" stroke-linecap="square" stroke-linejoin="miter" stroke="rgb(0%, 0%, 0%)" stroke-opacity="1" stroke-miterlimit="3.25" d="M 1098.398438 207.382812 L 1301.601562 410.585938 " transform="matrix(0.1, 0, 0, -0.1, 0, 83)"/>
<path fill="none" stroke-width="4" stroke-linecap="square" stroke-linejoin="miter" stroke="rgb(0%, 0%, 0%)" stroke-opacity="1" stroke-miterlimit="3.25" d="M 1301.601562 410.585938 L 1504.765625 410.585938 " transform="matrix(0.1, 0, 0, -0.1, 0, 83)"/>
<path fill="none" stroke-width="40" stroke-linecap="round" stroke-linejoin="miter" stroke="rgb(100%, 0%, 0%)" stroke-opacity="1" stroke-miterlimit="3.25" d="M 1098.398438 613.75 L 1098.398438 613.75 " transform="matrix(0.1, 0, 0, -0.1, 0, 83)"/>
<path fill="none" stroke-width="40" stroke-linecap="round" stroke-linejoin="miter" stroke="rgb(100%, 0%, 0%)" stroke-opacity="1" stroke-miterlimit="3.25" d="M 895.234375 410.585938 L 895.234375 410.585938 " transform="matrix(0.1, 0, 0, -0.1, 0, 83)"/>
<path fill="none" stroke-width="40" stroke-linecap="round" stroke-linejoin="miter" stroke="rgb(100%, 0%, 0%)" stroke-opacity="1" stroke-miterlimit="3.25" d="M 1098.398438 207.382812 L 1098.398438 207.382812 " transform="matrix(0.1, 0, 0, -0.1, 0, 83)"/>
<path fill="none" stroke-width="40" stroke-linecap="round" stroke-linejoin="miter" stroke="rgb(100%, 0%, 0%)" stroke-opacity="1" stroke-miterlimit="3.25" d="M 1301.601562 410.585938 L 1301.601562 410.585938 " transform="matrix(0.1, 0, 0, -0.1, 0, 83)"/>
<path fill="none" stroke-width="40" stroke-linecap="round" stroke-linejoin="miter" stroke="rgb(100%, 0%, 0%)" stroke-opacity="1" stroke-miterlimit="3.25" d="M 1504.765625 410.585938 L 1504.765625 410.585938 " transform="matrix(0.1, 0, 0, -0.1, 0, 83)"/>
<path fill="none" stroke-width="4" stroke-linecap="square" stroke-linejoin="miter" stroke="rgb(0%, 0%, 0%)" stroke-opacity="1" stroke-miterlimit="3.25" d="M 1892.8125 589.101562 L 1714.296875 410.585938 " transform="matrix(0.1, 0, 0, -0.1, 0, 83)"/>
<path fill="none" stroke-width="4" stroke-linecap="square" stroke-linejoin="miter" stroke="rgb(0%, 0%, 0%)" stroke-opacity="1" stroke-miterlimit="3.25" d="M 1892.8125 589.101562 L 2071.328125 410.585938 " transform="matrix(0.1, 0, 0, -0.1, 0, 83)"/>
<path fill="none" stroke-width="4" stroke-linecap="square" stroke-linejoin="miter" stroke="rgb(0%, 0%, 0%)" stroke-opacity="1" stroke-miterlimit="3.25" d="M 1714.296875 410.585938 L 1892.8125 232.070312 " transform="matrix(0.1, 0, 0, -0.1, 0, 83)"/>
<path fill="none" stroke-width="4" stroke-linecap="square" stroke-linejoin="miter" stroke="rgb(0%, 0%, 0%)" stroke-opacity="1" stroke-miterlimit="3.25" d="M 1892.8125 232.070312 L 2071.328125 410.585938 " transform="matrix(0.1, 0, 0, -0.1, 0, 83)"/>
<path fill="none" stroke-width="4" stroke-linecap="square" stroke-linejoin="miter" stroke="rgb(0%, 0%, 0%)" stroke-opacity="1" stroke-miterlimit="3.25" d="M 2071.328125 410.585938 L 2323.828125 410.585938 " transform="matrix(0.1, 0, 0, -0.1, 0, 83)"/>
<path fill="none" stroke-width="40" stroke-linecap="round" stroke-linejoin="miter" stroke="rgb(100%, 0%, 0%)" stroke-opacity="1" stroke-miterlimit="3.25" d="M 1892.8125 589.101562 L 1892.8125 589.101562 " transform="matrix(0.1, 0, 0, -0.1, 0, 83)"/>
<path fill="none" stroke-width="40" stroke-linecap="round" stroke-linejoin="miter" stroke="rgb(100%, 0%, 0%)" stroke-opacity="1" stroke-miterlimit="3.25" d="M 1714.296875 410.585938 L 1714.296875 410.585938 " transform="matrix(0.1, 0, 0, -0.1, 0, 83)"/>
<path fill="none" stroke-width="40" stroke-linecap="round" stroke-linejoin="miter" stroke="rgb(100%, 0%, 0%)" stroke-opacity="1" stroke-miterlimit="3.25" d="M 1892.8125 232.070312 L 1892.8125 232.070312 " transform="matrix(0.1, 0, 0, -0.1, 0, 83)"/>
<path fill="none" stroke-width="40" stroke-linecap="round" stroke-linejoin="miter" stroke="rgb(100%, 0%, 0%)" stroke-opacity="1" stroke-miterlimit="3.25" d="M 2071.328125 410.585938 L 2071.328125 410.585938 " transform="matrix(0.1, 0, 0, -0.1, 0, 83)"/>
<path fill="none" stroke-width="40" stroke-linecap="round" stroke-linejoin="miter" stroke="rgb(100%, 0%, 0%)" stroke-opacity="1" stroke-miterlimit="3.25" d="M 2323.828125 410.585938 L 2323.828125 410.585938 " transform="matrix(0.1, 0, 0, -0.1, 0, 83)"/>
</svg>
