<?xml version="1.0" encoding="UTF-8"?>
<svg xmlns="http://www.w3.org/2000/svg" xmlns:xlink="http://www.w3.org/1999/xlink" width="105.5" height="160" viewBox="0 0 105.5 160">
<defs>
<clipPath id="clip-0">
<path clip-rule="nonzero" d="M 0 79 L 105.003906 79 L 105.003906 81 L 0 81 Z M 0 79 "/>
</clipPath>
<clipPath id="clip-1">
<path clip-rule="nonzero" d="M 52 0.378906 L 53 0.378906 L 53 159.621094 L 52 159.621094 Z M 52 0.378906 "/>
</clipPath>
</defs>
<g clip-path="url(#clip-0)">
<path fill="none" stroke-width="2.5" stroke-linecap="round" stroke-linejoin="round" stroke="rgb(0%, 0%, 0%)" stroke-opacity="1" stroke-miterlimit="10" d="M -0.000000000000029003 800 L 1055.015551 800 " transform="matrix(0.0995283, 0, 0, -0.0995283, 0.000000000000002887, 159.622642)"/>
</g>
<g clip-path="url(#clip-1)">
<path fill="none" stroke-width="2.5" stroke-linecap="round" stroke-linejoin="round" stroke="rgb(0%, 0%, 0%)" stroke-opacity="1" stroke-miterlimit="10" d="M 527.488152 0.211789 L 527.488152 1599.788211 " transform="matrix(0.0995283, 0, 0, -0.0995283, 0.000000000000002887, 159.622642)"/>
</g>
<path fill="none" stroke-width="5" stroke-linecap="round" stroke-linejoin="round" stroke="rgb(100%, 0%, 0%)" stroke-opacity="1" stroke-miterlimit="10" d="M 25.118483 297.434094 L 25.275474 285.973786 L 25.66795 274.63122 L 26.374408 263.602636 L 27.316351 252.888033 L 28.533027 242.487411 L 29.98519 232.440018 L 31.672838 222.706605 L 33.635219 213.365669 L 35.793839 204.377962 L 38.148697 195.743483 L 40.699793 187.501481 L 43.407879 179.612707 L 46.272956 172.077162 L 49.255776 164.934094 L 52.395586 158.183501 L 55.574645 151.74689 L 58.832198 145.702755 L 62.128999 140.011848 L 65.465047 134.674171 L 68.801096 129.650474 L 72.137145 125.019254 L 75.394698 120.662767 L 78.613004 116.659508 L 81.713566 112.970231 L 84.696386 109.555687 L 87.561463 106.455124 L 90.26955 103.668543 L 92.820646 101.117447 L 95.175504 98.880332 L 97.334123 96.878703 L 99.296505 95.112559 L 100.984153 93.621149 L 102.475563 92.365225 L 103.692239 91.344787 L 104.634182 90.520586 L 105.301392 89.97112 L 105.733116 89.617891 L 105.850859 89.539396 " transform="matrix(0.0995283, 0, 0, -0.0995283, 0.000000000000002887, 159.622642)"/>
<path fill="none" stroke-width="5" stroke-linecap="round" stroke-linejoin="round" stroke="rgb(100%, 0%, 0%)" stroke-opacity="1" stroke-miterlimit="10" d="M 25.118483 297.787322 L 25.275474 309.522364 L 25.66795 321.689129 L 26.374408 334.09138 L 27.316351 346.729117 L 28.533027 359.60234 L 29.98519 372.632553 L 31.672838 385.819757 L 33.635219 399.203199 L 35.793839 412.665136 L 38.148697 426.284064 L 40.699793 439.981487 L 43.407879 453.757405 L 46.272956 467.572571 L 49.255776 481.466232 L 52.395586 495.359893 L 55.574645 509.253555 L 58.832198 523.107968 L 62.128999 536.962382 L 65.465047 550.816795 L 72.137145 578.290136 L 75.394698 591.948312 L 78.613004 605.488744 L 81.713566 618.989929 L 84.696386 632.412618 L 87.561463 645.717565 L 90.26955 658.983264 L 92.820646 672.13122 L 95.175504 685.200681 L 97.334123 698.152399 L 99.296505 711.06487 L 100.984153 723.898845 L 102.475563 736.693572 L 103.692239 749.409805 L 104.634182 762.126037 L 105.301392 774.763774 L 105.733116 787.362263 L 105.850859 799.803762 " transform="matrix(0.0995283, 0, 0, -0.0995283, 0.000000000000002887, 159.622642)"/>
<path fill="none" stroke-width="5" stroke-linecap="round" stroke-linejoin="round" stroke="rgb(100%, 0%, 0%)" stroke-opacity="1" stroke-miterlimit="10" d="M 25.118483 1302.212678 L 25.275474 1290.477636 L 25.66795 1278.310871 L 26.374408 1265.869372 L 27.316351 1253.231635 L 28.533027 1240.39766 L 29.98519 1227.367447 L 31.672838 1214.140995 L 33.635219 1200.796801 L 35.793839 1187.295616 L 38.148697 1173.715936 L 40.699793 1160.018513 L 43.407879 1146.242595 L 46.272956 1132.427429 L 49.255776 1118.533768 L 52.395586 1104.679354 L 55.574645 1090.746445 L 58.832198 1076.892032 L 62.128999 1063.037618 L 65.465047 1049.183205 L 68.801096 1035.407287 L 72.137145 1021.709864 L 75.394698 1008.051688 L 78.613004 994.472008 L 81.713566 981.010071 L 84.696386 967.587382 L 87.561463 954.243187 L 90.26955 941.016736 L 92.820646 927.86878 L 95.175504 914.799319 L 97.334123 901.808353 L 99.296505 888.93513 L 100.984153 876.101155 L 102.475563 863.306428 L 103.692239 850.550948 L 104.634182 837.873963 L 105.301392 825.236226 L 105.733116 812.598489 L 105.850859 800.196238 " transform="matrix(0.0995283, 0, 0, -0.0995283, 0.000000000000002887, 159.622642)"/>
<path fill="none" stroke-width="5" stroke-linecap="round" stroke-linejoin="round" stroke="rgb(100%, 0%, 0%)" stroke-opacity="1" stroke-miterlimit="10" d="M 25.118483 1302.565906 L 25.275474 1314.026214 L 25.66795 1325.36878 L 26.374408 1336.397364 L 27.316351 1347.111967 L 28.533027 1357.512589 L 29.98519 1367.559982 L 31.672838 1377.254147 L 33.635219 1386.634331 L 35.793839 1395.622038 L 38.148697 1404.256517 L 40.699793 1412.498519 L 43.407879 1420.387293 L 46.272956 1427.922838 L 49.255776 1435.065906 L 52.395586 1441.855746 L 55.574645 1448.25311 L 58.832198 1454.297245 L 62.128999 1459.988152 L 65.465047 1465.325829 L 68.801096 1470.349526 L 72.137145 1474.980746 L 75.394698 1479.337233 L 78.613004 1483.340492 L 81.713566 1487.029769 L 84.696386 1490.444313 L 87.561463 1493.505628 L 90.26955 1496.331457 L 92.820646 1498.882553 L 95.175504 1501.158916 L 97.334123 1503.121297 L 99.296505 1504.887441 L 100.984153 1506.378851 L 102.475563 1507.634775 L 103.692239 1508.655213 L 104.634182 1509.479414 L 105.301392 1510.02888 L 105.733116 1510.342861 L 105.850859 1510.460604 " transform="matrix(0.0995283, 0, 0, -0.0995283, 0.000000000000002887, 159.622642)"/>
<path fill="none" stroke-width="5" stroke-linecap="round" stroke-linejoin="round" stroke="rgb(100%, 0%, 0%)" stroke-opacity="1" stroke-miterlimit="10" d="M 105.850859 89.539396 L 106.557316 88.950681 L 108.755184 87.223786 L 112.28747 84.515699 L 117.271919 80.944165 L 123.630036 76.705421 L 131.244076 72.034953 L 140.192536 67.168246 L 150.318424 62.262293 L 161.582494 57.513329 L 173.90625 53.078347 L 187.171949 49.114336 L 201.379591 45.660545 L 216.332938 42.834716 L 231.992743 40.676096 L 248.241262 39.184686 L 264.921505 38.399733 L 281.994224 38.281991 L 299.263181 38.831457 L 316.689129 40.008886 L 334.075829 41.696534 L 351.384034 43.933649 L 368.456754 46.602488 L 385.136996 49.663803 L 401.346268 52.999852 L 417.006072 56.532139 L 431.998667 60.221416 L 446.167062 63.949941 L 459.472008 67.678466 L 471.795764 71.289248 L 483.059834 74.703791 L 493.185723 77.922097 L 502.094935 80.826422 L 509.748223 83.377518 L 516.067091 85.536137 L 521.05154 87.263033 L 524.623075 88.518957 L 526.781694 89.264662 L 527.488152 89.539396 " transform="matrix(0.0995283, 0, 0, -0.0995283, 0.000000000000002887, 159.622642)"/>
<path fill="none" stroke-width="5" stroke-linecap="round" stroke-linejoin="round" stroke="rgb(100%, 0%, 0%)" stroke-opacity="1" stroke-miterlimit="10" d="M 105.850859 1510.460604 L 106.557316 1511.049319 L 108.755184 1512.776214 L 112.28747 1515.484301 L 117.271919 1519.055835 L 123.630036 1523.294579 L 131.244076 1527.965047 L 140.192536 1532.831754 L 150.318424 1537.737707 L 161.582494 1542.486671 L 173.90625 1546.882405 L 187.171949 1550.885664 L 201.379591 1554.300207 L 216.332938 1557.126037 L 231.992743 1559.323904 L 248.241262 1560.815314 L 264.921505 1561.600267 L 281.994224 1561.718009 L 299.263181 1561.168543 L 316.689129 1559.991114 L 334.075829 1558.303466 L 351.384034 1556.066351 L 368.456754 1553.397512 L 385.136996 1550.336197 L 401.346268 1547.000148 L 417.006072 1543.467861 L 431.998667 1539.778584 L 446.167062 1536.050059 L 459.472008 1532.321534 L 471.795764 1528.710752 L 483.059834 1525.296209 L 493.185723 1522.077903 L 502.094935 1519.173578 L 509.748223 1516.583235 L 516.067091 1514.463863 L 521.05154 1512.736967 L 524.623075 1511.481043 L 526.781694 1510.735338 L 527.488152 1510.460604 " transform="matrix(0.0995283, 0, 0, -0.0995283, 0.000000000000002887, 159.622642)"/>
<path fill="none" stroke-width="5" stroke-linecap="round" stroke-linejoin="round" stroke="rgb(100%, 0%, 0%)" stroke-opacity="1" stroke-miterlimit="10" d="M 527.488152 89.539396 L 528.3516 89.814129 L 530.941943 90.756072 L 535.180687 92.28673 L 541.107079 94.406102 L 548.642624 97.192684 L 557.787322 100.607227 L 568.384182 104.688981 L 580.472453 109.398697 L 593.895142 114.775622 L 608.573756 120.819757 L 624.390551 127.491854 L 641.30628 134.791914 L 659.124704 142.64144 L 677.767328 151.040432 L 697.11641 159.910397 L 717.014959 169.172838 L 737.345231 178.788507 L 757.950237 188.639662 L 778.712233 198.60856 L 799.434982 208.616706 L 820.039988 218.546357 L 840.370261 228.240521 L 860.229562 237.659953 L 879.578643 246.608412 L 898.260515 255.007405 L 916.07894 262.739188 L 932.994668 269.803762 L 948.811463 276.004887 L 963.490077 281.381813 L 976.912767 285.89529 L 988.961789 289.584568 L 999.597897 292.449645 L 1008.742595 294.569017 L 1016.27814 296.060427 L 1022.204532 296.963122 L 1026.443276 297.394846 L 1029.03362 297.591084 L 1029.897068 297.630332 " transform="matrix(0.0995283, 0, 0, -0.0995283, 0.000000000000002887, 159.622642)"/>
<path fill="none" stroke-width="5" stroke-linecap="round" stroke-linejoin="round" stroke="rgb(100%, 0%, 0%)" stroke-opacity="1" stroke-miterlimit="10" d="M 527.488152 799.882257 L 528.3516 779.238004 L 530.941943 758.436759 L 535.180687 737.635515 L 541.107079 716.755776 L 548.642624 695.876037 L 557.787322 674.917802 L 568.384182 653.998815 L 580.472453 633.079828 L 593.895142 612.200089 L 608.573756 591.438092 L 624.390551 570.833086 L 641.30628 550.502814 L 659.124704 530.486523 L 677.767328 510.862707 L 697.11641 491.709864 L 717.014959 473.145735 L 737.345231 455.248815 L 757.950237 438.058353 L 778.712233 421.731339 L 799.434982 406.228525 L 820.039988 391.746149 L 840.370261 378.244964 L 860.229562 365.803466 L 879.578643 354.421653 L 898.260515 344.178021 L 916.07894 335.072571 L 932.994668 327.105302 L 948.811463 320.197719 L 963.490077 314.38907 L 976.912767 309.600859 L 988.961789 305.754591 L 999.597897 302.811019 L 1008.742595 300.652399 L 1016.27814 299.200237 L 1022.204532 298.297541 L 1026.443276 297.82657 L 1029.03362 297.630332 L 1029.897068 297.630332 " transform="matrix(0.0995283, 0, 0, -0.0995283, 0.000000000000002887, 159.622642)"/>
<path fill="none" stroke-width="5" stroke-linecap="round" stroke-linejoin="round" stroke="rgb(100%, 0%, 0%)" stroke-opacity="1" stroke-miterlimit="10" d="M 527.488152 800.117743 L 528.3516 820.761996 L 530.941943 841.563241 L 535.180687 862.364485 L 541.107079 883.244224 L 548.642624 904.123963 L 557.787322 925.082198 L 568.384182 946.001185 L 580.472453 966.920172 L 593.895142 987.799911 L 608.573756 1008.561908 L 624.390551 1029.166914 L 641.30628 1049.497186 L 659.124704 1069.513477 L 677.767328 1089.137293 L 697.11641 1108.290136 L 717.014959 1126.854265 L 737.345231 1144.751185 L 757.950237 1161.902399 L 778.712233 1178.307909 L 799.434982 1193.732227 L 820.039988 1208.253851 L 840.370261 1221.755036 L 860.229562 1234.196534 L 879.578643 1245.578347 L 898.260515 1255.821979 L 916.07894 1264.927429 L 932.994668 1272.894698 L 948.811463 1279.802281 L 963.490077 1285.61093 L 976.912767 1290.399141 L 988.961789 1294.245409 L 999.597897 1297.188981 L 1008.742595 1299.347601 L 1016.27814 1300.799763 L 1022.204532 1301.702459 L 1026.443276 1302.17343 L 1029.03362 1302.369668 L 1029.897068 1302.369668 " transform="matrix(0.0995283, 0, 0, -0.0995283, 0.000000000000002887, 159.622642)"/>
<path fill="none" stroke-width="5" stroke-linecap="round" stroke-linejoin="round" stroke="rgb(100%, 0%, 0%)" stroke-opacity="1" stroke-miterlimit="10" d="M 527.488152 1510.460604 L 528.3516 1510.185871 L 530.941943 1509.243928 L 535.180687 1507.71327 L 541.107079 1505.593898 L 548.642624 1502.807316 L 557.787322 1499.392773 L 568.384182 1495.311019 L 580.472453 1490.562056 L 593.895142 1485.18513 L 608.573756 1479.180243 L 624.390551 1472.508146 L 641.30628 1465.247334 L 659.124704 1457.35856 L 677.767328 1448.998815 L 697.11641 1440.128851 L 717.014959 1430.827162 L 737.345231 1421.211493 L 757.950237 1411.399585 L 778.712233 1401.39144 L 799.434982 1391.383294 L 820.039988 1381.453643 L 840.370261 1371.759479 L 860.229562 1362.340047 L 879.578643 1353.391588 L 898.260515 1344.992595 L 916.07894 1337.221564 L 932.994668 1330.196238 L 948.811463 1323.995113 L 963.490077 1318.618187 L 976.912767 1314.065462 L 988.961789 1310.376185 L 999.597897 1307.511108 L 1008.742595 1305.391736 L 1016.27814 1303.939573 L 1022.204532 1303.036878 L 1026.443276 1302.565906 L 1029.03362 1302.408916 L 1029.897068 1302.369668 " transform="matrix(0.0995283, 0, 0, -0.0995283, 0.000000000000002887, 159.622642)"/>
<path fill="none" stroke-width="5" stroke-linecap="round" stroke-linejoin="round" stroke="rgb(100%, 0%, 0%)" stroke-opacity="1" stroke-miterlimit="10" d="M 1029.897068 297.630332 L 1029.897068 297.630332 " transform="matrix(0.0995283, 0, 0, -0.0995283, 0.000000000000002887, 159.622642)"/>
<path fill="none" stroke-width="5" stroke-linecap="round" stroke-linejoin="round" stroke="rgb(100%, 0%, 0%)" stroke-opacity="1" stroke-miterlimit="10" d="M 1029.897068 297.630332 L 1029.897068 297.630332 " transform="matrix(0.0995283, 0, 0, -0.0995283, 0.000000000000002887, 159.622642)"/>
<path fill="none" stroke-width="5" stroke-linecap="round" stroke-linejoin="round" stroke="rgb(100%, 0%, 0%)" stroke-opacity="1" stroke-miterlimit="10" d="M 1029.897068 1302.369668 L 1029.897068 1302.369668 " transform="matrix(0.0995283, 0, 0, -0.0995283, 0.000000000000002887, 159.622642)"/>
<path fill="none" stroke-width="5" stroke-linecap="round" stroke-linejoin="round" stroke="rgb(100%, 0%, 0%)" stroke-opacity="1" stroke-miterlimit="10" d="M 1029.897068 1302.369668 L 1029.897068 1302.369668 " transform="matrix(0.0995283, 0, 0, -0.0995283, 0.000000000000002887, 159.622642)"/>
</svg>
