<?xml version="1.0" encoding="UTF-8"?>
<svg xmlns="http://www.w3.org/2000/svg" xmlns:xlink="http://www.w3.org/1999/xlink" width="120" height="138" viewBox="0 0 120 138">
<path fill="none" stroke-width="48" stroke-linecap="round" stroke-linejoin="miter" stroke="rgb(0%, 0%, 0%)" stroke-opacity="1" stroke-miterlimit="3.25" d="M 408.007812 689.101562 L 408.007812 689.101562 " transform="matrix(0.1, 0, 0, -0.1, 0, 138)"/>
<path fill="none" stroke-width="48" stroke-linecap="round" stroke-linejoin="miter" stroke="rgb(0%, 0%, 0%)" stroke-opacity="1" stroke-miterlimit="3.25" d="M 408.007812 689.101562 L 408.007812 689.101562 " transform="matrix(0.1, 0, 0, -0.1, 0, 138)"/>
<path fill="none" stroke-width="48" stroke-linecap="round" stroke-linejoin="miter" stroke="rgb(0%, 0%, 0%)" stroke-opacity="1" stroke-miterlimit="3.25" d="M 408.007812 689.101562 L 408.007812 689.101562 " transform="matrix(0.1, 0, 0, -0.1, 0, 138)"/>
<path fill="none" stroke-width="48" stroke-linecap="round" stroke-linejoin="miter" stroke="rgb(0%, 0%, 0%)" stroke-opacity="1" stroke-miterlimit="3.25" d="M 536.015625 689.101562 L 536.015625 689.101562 " transform="matrix(0.1, 0, 0, -0.1, 0, 138)"/>
<path fill="none" stroke-width="48" stroke-linecap="round" stroke-linejoin="miter" stroke="rgb(0%, 0%, 0%)" stroke-opacity="1" stroke-miterlimit="3.25" d="M 343.984375 799.960938 L 343.984375 799.960938 " transform="matrix(0.1, 0, 0, -0.1, 0, 138)"/>
<path fill="none" stroke-width="48" stroke-linecap="round" stroke-linejoin="miter" stroke="rgb(0%, 0%, 0%)" stroke-opacity="1" stroke-miterlimit="3.25" d="M 343.984375 578.28125 L 343.984375 578.28125 " transform="matrix(0.1, 0, 0, -0.1, 0, 138)"/>
<path fill="none" stroke-width="48" stroke-linecap="round" stroke-linejoin="miter" stroke="rgb(0%, 0%, 0%)" stroke-opacity="1" stroke-miterlimit="3.25" d="M 663.984375 689.101562 L 663.984375 689.101562 " transform="matrix(0.1, 0, 0, -0.1, 0, 138)"/>
<path fill="none" stroke-width="48" stroke-linecap="round" stroke-linejoin="miter" stroke="rgb(0%, 0%, 0%)" stroke-opacity="1" stroke-miterlimit="3.25" d="M 280 910.820312 L 280 910.820312 " transform="matrix(0.1, 0, 0, -0.1, 0, 138)"/>
<path fill="none" stroke-width="48" stroke-linecap="round" stroke-linejoin="miter" stroke="rgb(0%, 0%, 0%)" stroke-opacity="1" stroke-miterlimit="3.25" d="M 280 467.421875 L 280 467.421875 " transform="matrix(0.1, 0, 0, -0.1, 0, 138)"/>
<path fill="none" stroke-width="48" stroke-linecap="round" stroke-linejoin="miter" stroke="rgb(0%, 0%, 0%)" stroke-opacity="1" stroke-miterlimit="3.25" d="M 791.992188 689.101562 L 791.992188 689.101562 " transform="matrix(0.1, 0, 0, -0.1, 0, 138)"/>
<path fill="none" stroke-width="48" stroke-linecap="round" stroke-linejoin="miter" stroke="rgb(0%, 0%, 0%)" stroke-opacity="1" stroke-miterlimit="3.25" d="M 216.015625 1021.679688 L 216.015625 1021.679688 " transform="matrix(0.1, 0, 0, -0.1, 0, 138)"/>
<path fill="none" stroke-width="48" stroke-linecap="round" stroke-linejoin="miter" stroke="rgb(0%, 0%, 0%)" stroke-opacity="1" stroke-miterlimit="3.25" d="M 216.015625 356.5625 L 216.015625 356.5625 " transform="matrix(0.1, 0, 0, -0.1, 0, 138)"/>
<path fill="none" stroke-width="48" stroke-linecap="round" stroke-linejoin="miter" stroke="rgb(0%, 0%, 0%)" stroke-opacity="1" stroke-miterlimit="3.25" d="M 920 689.101562 L 920 689.101562 " transform="matrix(0.1, 0, 0, -0.1, 0, 138)"/>
<path fill="none" stroke-width="48" stroke-linecap="round" stroke-linejoin="miter" stroke="rgb(0%, 0%, 0%)" stroke-opacity="1" stroke-miterlimit="3.25" d="M 151.992188 1132.539062 L 151.992188 1132.539062 " transform="matrix(0.1, 0, 0, -0.1, 0, 138)"/>
<path fill="none" stroke-width="48" stroke-linecap="round" stroke-linejoin="miter" stroke="rgb(0%, 0%, 0%)" stroke-opacity="1" stroke-miterlimit="3.25" d="M 151.992188 245.703125 L 151.992188 245.703125 " transform="matrix(0.1, 0, 0, -0.1, 0, 138)"/>
<path fill="none" stroke-width="48" stroke-linecap="round" stroke-linejoin="miter" stroke="rgb(0%, 0%, 0%)" stroke-opacity="1" stroke-miterlimit="3.25" d="M 1048.007812 689.101562 L 1048.007812 689.101562 " transform="matrix(0.1, 0, 0, -0.1, 0, 138)"/>
<path fill="none" stroke-width="48" stroke-linecap="round" stroke-linejoin="miter" stroke="rgb(0%, 0%, 0%)" stroke-opacity="1" stroke-miterlimit="3.25" d="M 88.007812 1243.359375 L 88.007812 1243.359375 " transform="matrix(0.1, 0, 0, -0.1, 0, 138)"/>
<path fill="none" stroke-width="48" stroke-linecap="round" stroke-linejoin="miter" stroke="rgb(0%, 0%, 0%)" stroke-opacity="1" stroke-miterlimit="3.25" d="M 88.007812 134.84375 L 88.007812 134.84375 " transform="matrix(0.1, 0, 0, -0.1, 0, 138)"/>
<path fill="none" stroke-width="48" stroke-linecap="round" stroke-linejoin="miter" stroke="rgb(0%, 0%, 0%)" stroke-opacity="1" stroke-miterlimit="3.25" d="M 1176.015625 689.101562 L 1176.015625 689.101562 " transform="matrix(0.1, 0, 0, -0.1, 0, 138)"/>
<path fill="none" stroke-width="48" stroke-linecap="round" stroke-linejoin="miter" stroke="rgb(0%, 0%, 0%)" stroke-opacity="1" stroke-miterlimit="3.25" d="M 23.984375 1354.21875 L 23.984375 1354.21875 " transform="matrix(0.1, 0, 0, -0.1, 0, 138)"/>
<path fill="none" stroke-width="48" stroke-linecap="round" stroke-linejoin="miter" stroke="rgb(0%, 0%, 0%)" stroke-opacity="1" stroke-miterlimit="3.25" d="M 23.984375 23.984375 L 23.984375 23.984375 " transform="matrix(0.1, 0, 0, -0.1, 0, 138)"/>
<path fill="none" stroke-width="4" stroke-linecap="square" stroke-linejoin="miter" stroke="rgb(0%, 0%, 0%)" stroke-opacity="1" stroke-miterlimit="3.25" d="M 408.007812 689.101562 L 1176.015625 689.101562 " transform="matrix(0.1, 0, 0, -0.1, 0, 138)"/>
<path fill="none" stroke-width="4" stroke-linecap="square" stroke-linejoin="miter" stroke="rgb(0%, 0%, 0%)" stroke-opacity="1" stroke-miterlimit="3.25" d="M 408.007812 689.101562 L 23.984375 1354.21875 " transform="matrix(0.1, 0, 0, -0.1, 0, 138)"/>
<path fill="none" stroke-width="4" stroke-linecap="square" stroke-linejoin="miter" stroke="rgb(0%, 0%, 0%)" stroke-opacity="1" stroke-miterlimit="3.25" d="M 408.007812 689.101562 L 23.984375 23.984375 " transform="matrix(0.1, 0, 0, -0.1, 0, 138)"/>
</svg>
