<?xml version="1.0" encoding="UTF-8"?>
<svg xmlns="http://www.w3.org/2000/svg" xmlns:xlink="http://www.w3.org/1999/xlink" width="348" height="141" viewBox="0 0 348 141">
<path fill="none" stroke-width="2.06268" stroke-linecap="round" stroke-linejoin="round" stroke="rgb(0%, 0%, 0%)" stroke-opacity="1" stroke-miterlimit="10" d="M 86.171875 49.804688 L 1117.539062 49.804688 " transform="matrix(0.1, 0, 0, -0.1, 0, 141)"/>
<path fill="none" stroke-width="2.06268" stroke-linecap="round" stroke-linejoin="round" stroke="rgb(0%, 0%, 0%)" stroke-opacity="1" stroke-miterlimit="10" d="M 168.515625 34.609375 L 168.515625 671.992188 " transform="matrix(0.1, 0, 0, -0.1, 0, 141)"/>
<path fill="none" stroke-width="4.12536" stroke-linecap="round" stroke-linejoin="round" stroke="rgb(0%, 0%, 0%)" stroke-opacity="1" stroke-miterlimit="10" d="M 168.515625 49.804688 L 226.289062 292.617188 L 284.0625 414.023438 L 341.875 535.429688 L 399.648438 535.429688 L 457.421875 656.835938 L 572.96875 656.835938 L 630.742188 535.429688 L 688.515625 656.835938 L 804.101562 656.835938 L 861.875 535.429688 L 919.648438 535.429688 L 1035.195312 292.617188 L 1092.96875 49.804688 " transform="matrix(0.1, 0, 0, -0.1, 0, 141)"/>
<path fill="none" stroke-width="2.06268" stroke-linecap="round" stroke-linejoin="round" stroke="rgb(0%, 0%, 0%)" stroke-opacity="1" stroke-miterlimit="10" d="M 1224.335938 49.804688 L 2255.664062 49.804688 " transform="matrix(0.1, 0, 0, -0.1, 0, 141)"/>
<path fill="none" stroke-width="2.06268" stroke-linecap="round" stroke-linejoin="round" stroke="rgb(0%, 0%, 0%)" stroke-opacity="1" stroke-miterlimit="10" d="M 1278.632812 34.609375 L 1278.632812 671.992188 " transform="matrix(0.1, 0, 0, -0.1, 0, 141)"/>
<path fill="none" stroke-width="4.12536" stroke-linecap="round" stroke-linejoin="round" stroke="rgb(0%, 0%, 0%)" stroke-opacity="1" stroke-miterlimit="10" d="M 1278.632812 49.804688 L 1308.398438 194.296875 L 1338.164062 281.054688 L 1367.96875 367.773438 L 1397.695312 396.679688 L 1427.460938 483.398438 L 1486.992188 541.210938 L 1516.757812 512.304688 L 1546.523438 599.023438 L 1606.054688 656.835938 L 1635.820312 627.929688 L 1665.585938 656.835938 L 1725.117188 599.023438 L 1754.882812 512.304688 L 1784.648438 599.023438 L 1844.179688 656.835938 L 1873.945312 627.929688 L 1903.710938 656.835938 L 1963.242188 599.023438 L 1993.007812 512.304688 L 2022.773438 541.210938 L 2082.304688 483.398438 L 2112.03125 396.679688 L 2141.835938 367.773438 L 2171.601562 281.054688 L 2201.367188 194.296875 L 2231.09375 49.804688 " transform="matrix(0.1, 0, 0, -0.1, 0, 141)"/>
<path fill="none" stroke-width="2.06268" stroke-linecap="round" stroke-linejoin="round" stroke="rgb(0%, 0%, 0%)" stroke-opacity="1" stroke-miterlimit="10" d="M 2362.460938 49.804688 L 3393.828125 49.804688 " transform="matrix(0.1, 0, 0, -0.1, 0, 141)"/>
<path fill="none" stroke-width="2.06268" stroke-linecap="round" stroke-linejoin="round" stroke="rgb(0%, 0%, 0%)" stroke-opacity="1" stroke-miterlimit="10" d="M 2402.148438 34.609375 L 2402.148438 671.992188 " transform="matrix(0.1, 0, 0, -0.1, 0, 141)"/>
<path fill="none" stroke-width="4.12536" stroke-linecap="round" stroke-linejoin="round" stroke="rgb(0%, 0%, 0%)" stroke-opacity="1" stroke-miterlimit="10" d="M 2402.148438 49.804688 L 2417.226562 136.484375 L 2432.34375 194.296875 L 2447.460938 252.148438 L 2462.578125 281.054688 L 2477.695312 338.867188 L 2507.929688 396.679688 L 2523.046875 396.679688 L 2538.125 454.492188 L 2568.359375 512.304688 L 2583.476562 512.304688 L 2598.59375 541.210938 L 2628.789062 541.210938 L 2643.90625 512.304688 L 2659.023438 570.117188 L 2689.257812 627.929688 L 2704.375 627.929688 L 2719.453125 656.835938 L 2749.6875 656.835938 L 2764.804688 627.929688 L 2779.921875 656.835938 L 2810.15625 656.835938 L 2825.234375 627.929688 L 2840.351562 627.929688 L 2870.585938 570.117188 L 2885.703125 512.304688 L 2900.820312 570.117188 L 2915.9375 599.023438 L 2931.015625 627.929688 L 2946.132812 627.929688 L 2961.25 656.835938 L 2991.484375 656.835938 L 3006.5625 627.929688 L 3021.679688 656.835938 L 3051.914062 656.835938 L 3067.03125 627.929688 L 3082.148438 627.929688 L 3112.382812 570.117188 L 3127.460938 512.304688 L 3142.578125 541.210938 " transform="matrix(0.1, 0, 0, -0.1, 0, 141)"/>
<path fill="none" stroke-width="4.12536" stroke-linecap="round" stroke-linejoin="round" stroke="rgb(0%, 0%, 0%)" stroke-opacity="1" stroke-miterlimit="10" d="M 3142.578125 541.210938 L 3172.8125 541.210938 L 3187.929688 512.304688 L 3203.046875 512.304688 L 3218.125 483.398438 L 3233.242188 454.492188 L 3248.359375 396.679688 L 3263.476562 396.679688 L 3293.710938 338.867188 L 3308.789062 281.054688 L 3323.90625 252.148438 L 3339.023438 194.296875 L 3354.140625 136.484375 L 3369.257812 49.804688 " transform="matrix(0.1, 0, 0, -0.1, 0, 141)"/>
<path fill="none" stroke-width="2.06269" stroke-linecap="round" stroke-linejoin="round" stroke="rgb(0%, 0%, 0%)" stroke-opacity="1" stroke-miterlimit="10" d="M 86.171875 753.203125 L 1117.539062 753.203125 " transform="matrix(0.1, 0, 0, -0.1, 0, 141)"/>
<path fill="none" stroke-width="2.06269" stroke-linecap="round" stroke-linejoin="round" stroke="rgb(0%, 0%, 0%)" stroke-opacity="1" stroke-miterlimit="10" d="M 110.742188 738.007812 L 110.742188 1375.390625 " transform="matrix(0.1, 0, 0, -0.1, 0, 141)"/>
<path fill="none" stroke-width="4.12538" stroke-linecap="round" stroke-linejoin="round" stroke="rgb(0%, 0%, 0%)" stroke-opacity="1" stroke-miterlimit="10" d="M 110.742188 753.203125 L 601.875 1360.234375 L 1092.96875 753.203125 " transform="matrix(0.1, 0, 0, -0.1, 0, 141)"/>
<path fill="none" stroke-width="2.06269" stroke-linecap="round" stroke-linejoin="round" stroke="rgb(0%, 0%, 0%)" stroke-opacity="1" stroke-miterlimit="10" d="M 1224.335938 753.203125 L 2255.664062 753.203125 " transform="matrix(0.1, 0, 0, -0.1, 0, 141)"/>
<path fill="none" stroke-width="2.06269" stroke-linecap="round" stroke-linejoin="round" stroke="rgb(0%, 0%, 0%)" stroke-opacity="1" stroke-miterlimit="10" d="M 1248.867188 738.007812 L 1248.867188 1375.390625 " transform="matrix(0.1, 0, 0, -0.1, 0, 141)"/>
<path fill="none" stroke-width="4.12538" stroke-linecap="round" stroke-linejoin="round" stroke="rgb(0%, 0%, 0%)" stroke-opacity="1" stroke-miterlimit="10" d="M 1248.867188 753.203125 L 1494.453125 1360.234375 L 1985.546875 1360.234375 L 2231.132812 753.203125 " transform="matrix(0.1, 0, 0, -0.1, 0, 141)"/>
<path fill="none" stroke-width="2.06269" stroke-linecap="round" stroke-linejoin="round" stroke="rgb(0%, 0%, 0%)" stroke-opacity="1" stroke-miterlimit="10" d="M 2362.460938 753.203125 L 3393.828125 753.203125 " transform="matrix(0.1, 0, 0, -0.1, 0, 141)"/>
<path fill="none" stroke-width="2.06269" stroke-linecap="round" stroke-linejoin="round" stroke="rgb(0%, 0%, 0%)" stroke-opacity="1" stroke-miterlimit="10" d="M 2387.03125 738.007812 L 2387.03125 1375.390625 " transform="matrix(0.1, 0, 0, -0.1, 0, 141)"/>
<path fill="none" stroke-width="4.12538" stroke-linecap="round" stroke-linejoin="round" stroke="rgb(0%, 0%, 0%)" stroke-opacity="1" stroke-miterlimit="10" d="M 2387.03125 753.203125 L 2509.804688 1117.421875 L 2755.351562 1360.234375 L 2878.125 1238.828125 L 3000.9375 1360.234375 L 3246.484375 1117.421875 L 3369.257812 753.203125 " transform="matrix(0.1, 0, 0, -0.1, 0, 141)"/>
</svg>
