<?xml version="1.0" encoding="UTF-8"?>
<svg xmlns="http://www.w3.org/2000/svg" xmlns:xlink="http://www.w3.org/1999/xlink" width="260" height="229" viewBox="0 0 260 229">
<path fill-rule="evenodd" fill="rgb(50%, 50%, 50%)" fill-opacity="1" d="M 110.8125 143.578125 C 110.8125 130.113281 99.898438 119.203125 86.4375 119.203125 C 72.972656 119.203125 62.0625 130.113281 62.0625 143.578125 C 62.0625 157.039062 72.972656 167.953125 86.4375 167.953125 C 99.898438 167.953125 110.8125 157.039062 110.8125 143.578125 "/>
<path fill="none" stroke-width="6.75" stroke-linecap="round" stroke-linejoin="round" stroke="rgb(0%, 0%, 0%)" stroke-opacity="1" stroke-miterlimit="3.239" d="M 1108.125 854.21875 C 1108.125 988.867188 998.984375 1097.96875 864.375 1097.96875 C 729.726562 1097.96875 620.625 988.867188 620.625 854.21875 C 620.625 719.609375 729.726562 610.46875 864.375 610.46875 C 998.984375 610.46875 1108.125 719.609375 1108.125 854.21875 Z M 1108.125 854.21875 " transform="matrix(0.1, 0, 0, -0.1, 0, 229)"/>
<path fill-rule="evenodd" fill="rgb(80.076599%, 80.076599%, 80.076599%)" fill-opacity="1" d="M 193.691406 115.140625 C 193.691406 106.164062 186.414062 98.890625 177.441406 98.890625 C 168.464844 98.890625 161.191406 106.164062 161.191406 115.140625 C 161.191406 124.113281 168.464844 131.390625 177.441406 131.390625 C 186.414062 131.390625 193.691406 124.113281 193.691406 115.140625 "/>
<path fill="none" stroke-width="6.75" stroke-linecap="round" stroke-linejoin="round" stroke="rgb(0%, 0%, 0%)" stroke-opacity="1" stroke-miterlimit="3.239" d="M 1936.914062 1138.59375 C 1936.914062 1228.359375 1864.140625 1301.09375 1774.414062 1301.09375 C 1684.648438 1301.09375 1611.914062 1228.359375 1611.914062 1138.59375 C 1611.914062 1048.867188 1684.648438 976.09375 1774.414062 976.09375 C 1864.140625 976.09375 1936.914062 1048.867188 1936.914062 1138.59375 Z M 1936.914062 1138.59375 " transform="matrix(0.1, 0, 0, -0.1, 0, 229)"/>
<path fill-rule="evenodd" fill="rgb(90.039062%, 90.039062%, 90.039062%)" fill-opacity="1" d="M 161.191406 66.386719 C 161.191406 48.4375 146.640625 33.886719 128.6875 33.886719 C 110.738281 33.886719 96.1875 48.4375 96.1875 66.386719 C 96.1875 84.339844 110.738281 98.890625 128.6875 98.890625 C 146.640625 98.890625 161.191406 84.339844 161.191406 66.386719 "/>
<path fill="none" stroke-width="6.75" stroke-linecap="round" stroke-linejoin="round" stroke="rgb(0%, 0%, 0%)" stroke-opacity="1" stroke-miterlimit="3.239" d="M 1611.914062 1626.132812 C 1611.914062 1805.625 1466.40625 1951.132812 1286.875 1951.132812 C 1107.382812 1951.132812 961.875 1805.625 961.875 1626.132812 C 961.875 1446.601562 1107.382812 1301.09375 1286.875 1301.09375 C 1466.40625 1301.09375 1611.914062 1446.601562 1611.914062 1626.132812 Z M 1611.914062 1626.132812 " transform="matrix(0.1, 0, 0, -0.1, 0, 229)"/>
<path fill-rule="evenodd" fill="rgb(90.039062%, 90.039062%, 90.039062%)" fill-opacity="1" d="M 108.375 46.074219 C 108.375 37.097656 101.101562 29.824219 92.125 29.824219 C 83.148438 29.824219 75.875 37.097656 75.875 46.074219 C 75.875 55.050781 83.148438 62.324219 92.125 62.324219 C 101.101562 62.324219 108.375 55.050781 108.375 46.074219 "/>
<path fill="none" stroke-width="6.75" stroke-linecap="round" stroke-linejoin="round" stroke="rgb(0%, 0%, 0%)" stroke-opacity="1" stroke-miterlimit="3.239" d="M 1083.75 1829.257812 C 1083.75 1919.023438 1011.015625 1991.757812 921.25 1991.757812 C 831.484375 1991.757812 758.75 1919.023438 758.75 1829.257812 C 758.75 1739.492188 831.484375 1666.757812 921.25 1666.757812 C 1011.015625 1666.757812 1083.75 1739.492188 1083.75 1829.257812 Z M 1083.75 1829.257812 " transform="matrix(0.1, 0, 0, -0.1, 0, 229)"/>
<path fill-rule="evenodd" fill="rgb(80.076599%, 80.076599%, 80.076599%)" fill-opacity="1" d="M 164.441406 171.691406 C 164.441406 162.714844 157.164062 155.441406 148.1875 155.441406 C 139.214844 155.441406 131.9375 162.714844 131.9375 171.691406 C 131.9375 180.664062 139.214844 187.941406 148.1875 187.941406 C 157.164062 187.941406 164.441406 180.664062 164.441406 171.691406 "/>
<path fill="none" stroke-width="6.75" stroke-linecap="round" stroke-linejoin="round" stroke="rgb(0%, 0%, 0%)" stroke-opacity="1" stroke-miterlimit="3.239" d="M 1644.414062 573.085938 C 1644.414062 662.851562 1571.640625 735.585938 1481.875 735.585938 C 1392.148438 735.585938 1319.375 662.851562 1319.375 573.085938 C 1319.375 483.359375 1392.148438 410.585938 1481.875 410.585938 C 1571.640625 410.585938 1644.414062 483.359375 1644.414062 573.085938 Z M 1644.414062 573.085938 " transform="matrix(0.1, 0, 0, -0.1, 0, 229)"/>
<path fill-rule="evenodd" fill="rgb(80.076599%, 80.076599%, 80.076599%)" fill-opacity="1" d="M 164.441406 153.492188 C 164.441406 149.003906 160.800781 145.363281 156.316406 145.363281 C 151.828125 145.363281 148.1875 149.003906 148.1875 153.492188 C 148.1875 157.976562 151.828125 161.617188 156.316406 161.617188 C 160.800781 161.617188 164.441406 157.976562 164.441406 153.492188 "/>
<path fill="none" stroke-width="6.75" stroke-linecap="round" stroke-linejoin="round" stroke="rgb(0%, 0%, 0%)" stroke-opacity="1" stroke-miterlimit="3.239" d="M 1644.414062 755.078125 C 1644.414062 799.960938 1608.007812 836.367188 1563.164062 836.367188 C 1518.28125 836.367188 1481.875 799.960938 1481.875 755.078125 C 1481.875 710.234375 1518.28125 673.828125 1563.164062 673.828125 C 1608.007812 673.828125 1644.414062 710.234375 1644.414062 755.078125 Z M 1644.414062 755.078125 " transform="matrix(0.1, 0, 0, -0.1, 0, 229)"/>
<path fill-rule="evenodd" fill="rgb(50%, 50%, 50%)" fill-opacity="1" d="M 125.4375 155.765625 C 125.4375 148.585938 119.617188 142.765625 112.4375 142.765625 C 105.257812 142.765625 99.4375 148.585938 99.4375 155.765625 C 99.4375 162.945312 105.257812 168.765625 112.4375 168.765625 C 119.617188 168.765625 125.4375 162.945312 125.4375 155.765625 "/>
<path fill="none" stroke-width="6.75" stroke-linecap="round" stroke-linejoin="round" stroke="rgb(0%, 0%, 0%)" stroke-opacity="1" stroke-miterlimit="3.239" d="M 1254.375 732.34375 C 1254.375 804.140625 1196.171875 862.34375 1124.375 862.34375 C 1052.578125 862.34375 994.375 804.140625 994.375 732.34375 C 994.375 660.546875 1052.578125 602.34375 1124.375 602.34375 C 1196.171875 602.34375 1254.375 660.546875 1254.375 732.34375 Z M 1254.375 732.34375 " transform="matrix(0.1, 0, 0, -0.1, 0, 229)"/>
<path fill-rule="evenodd" fill="rgb(50%, 50%, 50%)" fill-opacity="1" d="M 75.0625 167.953125 C 75.0625 160.773438 69.242188 154.953125 62.0625 154.953125 C 54.882812 154.953125 49.0625 160.773438 49.0625 167.953125 C 49.0625 175.132812 54.882812 180.953125 62.0625 180.953125 C 69.242188 180.953125 75.0625 175.132812 75.0625 167.953125 "/>
<path fill="none" stroke-width="6.75" stroke-linecap="round" stroke-linejoin="round" stroke="rgb(0%, 0%, 0%)" stroke-opacity="1" stroke-miterlimit="3.239" d="M 750.625 610.46875 C 750.625 682.265625 692.421875 740.46875 620.625 740.46875 C 548.828125 740.46875 490.625 682.265625 490.625 610.46875 C 490.625 538.671875 548.828125 480.46875 620.625 480.46875 C 692.421875 480.46875 750.625 538.671875 750.625 610.46875 Z M 750.625 610.46875 " transform="matrix(0.1, 0, 0, -0.1, 0, 229)"/>
<path fill="none" stroke-width="5.06" stroke-linecap="round" stroke-linejoin="round" stroke="rgb(0%, 0%, 0%)" stroke-opacity="1" stroke-dasharray="12.66 12.66" stroke-miterlimit="3.239" d="M 1360.625 1384.375 L 1360.625 651.09375 " transform="matrix(0.1, 0, 0, -0.1, 0, 229)"/>
<path fill="none" stroke-width="5.06" stroke-linecap="round" stroke-linejoin="round" stroke="rgb(0%, 0%, 0%)" stroke-opacity="1" stroke-dasharray="12.66 12.66" stroke-miterlimit="3.239" d="M 1360.625 651.09375 L 2173.164062 651.09375 " transform="matrix(0.1, 0, 0, -0.1, 0, 229)"/>
<path fill="none" stroke-width="5.06" stroke-linecap="round" stroke-linejoin="round" stroke="rgb(0%, 0%, 0%)" stroke-opacity="1" stroke-dasharray="12.66 12.66" stroke-miterlimit="3.239" d="M 2173.164062 651.09375 L 2173.164062 1384.375 " transform="matrix(0.1, 0, 0, -0.1, 0, 229)"/>
<path fill="none" stroke-width="5.06" stroke-linecap="round" stroke-linejoin="round" stroke="rgb(0%, 0%, 0%)" stroke-opacity="1" stroke-dasharray="12.66 12.66" stroke-miterlimit="3.239" d="M 2173.164062 1384.375 L 1360.625 1384.375 " transform="matrix(0.1, 0, 0, -0.1, 0, 229)"/>
<path fill="none" stroke-width="5.06" stroke-linecap="round" stroke-linejoin="round" stroke="rgb(0%, 0%, 0%)" stroke-opacity="1" stroke-dasharray="5.06 8.44" stroke-miterlimit="3.239" d="M 1611.914062 894.84375 L 1629.570312 869.375 L 1650.351562 846.445312 L 1674.023438 826.40625 L 1700.039062 809.609375 L 1728.085938 796.40625 L 1757.578125 786.914062 L 1788.046875 781.40625 L 1818.984375 779.882812 L 1849.882812 782.421875 L 1880.15625 788.984375 L 1909.335938 799.414062 L 1936.875 813.59375 L 1962.34375 831.25 L 1985.3125 852.070312 L 2005.351562 875.664062 L 2022.109375 901.71875 L 2035.351562 929.726562 L 2044.84375 959.21875 L 2050.351562 989.726562 L 2051.875 1020.664062 L 2049.335938 1051.523438 L 2042.773438 1081.835938 L 2032.34375 1111.015625 L 2018.164062 1138.554688 " transform="matrix(0.1, 0, 0, -0.1, 0, 229)"/>
<path fill="none" stroke-width="5.06" stroke-linecap="round" stroke-linejoin="round" stroke="rgb(0%, 0%, 0%)" stroke-opacity="1" stroke-miterlimit="3.239" d="M 864.375 41.679688 L 864.375 2143.203125 " transform="matrix(0.1, 0, 0, -0.1, 0, 229)"/>
<path fill-rule="evenodd" fill="rgb(0%, 0%, 0%)" fill-opacity="1" d="M 84.652344 18.65625 L 86.4375 14.449219 L 88.222656 18.65625 "/>
<path fill="none" stroke-width="5.06" stroke-linecap="round" stroke-linejoin="miter" stroke="rgb(0%, 0%, 0%)" stroke-opacity="1" stroke-miterlimit="10" d="M 846.523438 2103.4375 L 864.375 2145.507812 L 882.226562 2103.4375 Z M 846.523438 2103.4375 " transform="matrix(0.1, 0, 0, -0.1, 0, 229)"/>
<path fill="none" stroke-width="5.06" stroke-linecap="round" stroke-linejoin="round" stroke="rgb(0%, 0%, 0%)" stroke-opacity="1" stroke-miterlimit="10" d="M 51.835938 854.21875 L 2478.359375 854.21875 " transform="matrix(0.1, 0, 0, -0.1, 0, 229)"/>
<path fill-rule="evenodd" fill="rgb(0%, 0%, 0%)" fill-opacity="1" d="M 243.859375 141.792969 L 248.066406 143.578125 L 243.859375 145.363281 "/>
<path fill="none" stroke-width="5.06" stroke-linecap="round" stroke-linejoin="miter" stroke="rgb(0%, 0%, 0%)" stroke-opacity="1" stroke-miterlimit="10" d="M 2438.59375 872.070312 L 2480.664062 854.21875 L 2438.59375 836.367188 Z M 2438.59375 872.070312 " transform="matrix(0.1, 0, 0, -0.1, 0, 229)"/>
<path fill-rule="evenodd" fill="rgb(0%, 0%, 0%)" fill-opacity="1" d="M 162.902344 139.515625 C 162.902344 138.570312 162.136719 137.800781 161.191406 137.800781 C 160.242188 137.800781 159.476562 138.570312 159.476562 139.515625 C 159.476562 140.460938 160.242188 141.226562 161.191406 141.226562 C 162.136719 141.226562 162.902344 140.460938 162.902344 139.515625 "/>
<path fill="none" stroke-width="1.69" stroke-linecap="round" stroke-linejoin="round" stroke="rgb(0%, 0%, 0%)" stroke-opacity="1" stroke-miterlimit="10" d="M 1629.023438 894.84375 C 1629.023438 904.296875 1621.367188 911.992188 1611.914062 911.992188 C 1602.421875 911.992188 1594.765625 904.296875 1594.765625 894.84375 C 1594.765625 885.390625 1602.421875 877.734375 1611.914062 877.734375 C 1621.367188 877.734375 1629.023438 885.390625 1629.023438 894.84375 Z M 1629.023438 894.84375 " transform="matrix(0.1, 0, 0, -0.1, 0, 229)"/>
<path fill-rule="evenodd" fill="rgb(0%, 0%, 0%)" fill-opacity="1" d="M 167.65625 135.164062 C 167.363281 135.246094 167.21875 135.519531 167.21875 135.722656 C 167.21875 135.898438 167.355469 136.09375 167.625 136.09375 C 167.90625 136.09375 168.207031 135.851562 168.207031 135.445312 C 168.207031 135.007812 167.78125 134.71875 167.292969 134.71875 C 166.835938 134.71875 166.539062 135.089844 166.4375 135.246094 C 166.238281 134.882812 165.789062 134.71875 165.335938 134.71875 C 164.332031 134.71875 163.789062 135.738281 163.789062 136.011719 C 163.789062 136.125 163.90625 136.125 163.980469 136.125 C 164.078125 136.125 164.132812 136.125 164.164062 136.019531 C 164.398438 135.285156 164.972656 135.046875 165.300781 135.046875 C 165.601562 135.046875 165.746094 135.191406 165.746094 135.449219 C 165.746094 135.601562 165.636719 136.042969 165.5625 136.335938 L 165.292969 137.4375 C 165.175781 137.929688 164.886719 138.171875 164.617188 138.171875 C 164.574219 138.171875 164.394531 138.171875 164.234375 138.050781 C 164.523438 137.96875 164.671875 137.695312 164.671875 137.492188 C 164.671875 137.316406 164.53125 137.125 164.265625 137.125 C 163.984375 137.125 163.683594 137.363281 163.683594 137.769531 C 163.683594 138.210938 164.105469 138.5 164.597656 138.5 C 165.054688 138.5 165.351562 138.125 165.453125 137.96875 C 165.652344 138.335938 166.101562 138.5 166.554688 138.5 C 167.558594 138.5 168.101562 137.476562 168.101562 137.203125 C 168.101562 137.089844 167.980469 137.089844 167.910156 137.089844 C 167.8125 137.089844 167.757812 137.089844 167.726562 137.195312 C 167.492188 137.929688 166.917969 138.171875 166.589844 138.171875 C 166.285156 138.171875 166.144531 138.027344 166.144531 137.769531 C 166.144531 137.597656 166.246094 137.171875 166.316406 136.875 C 166.375 136.664062 166.558594 135.90625 166.597656 135.777344 C 166.714844 135.292969 166.996094 135.046875 167.273438 135.046875 C 167.3125 135.046875 167.496094 135.046875 167.65625 135.164062 "/>
<path fill-rule="evenodd" fill="rgb(0%, 0%, 0%)" fill-opacity="1" d="M 203.53125 115.140625 C 203.53125 114.191406 202.761719 113.425781 201.816406 113.425781 C 200.871094 113.425781 200.101562 114.191406 200.101562 115.140625 C 200.101562 116.085938 200.871094 116.851562 201.816406 116.851562 C 202.761719 116.851562 203.53125 116.085938 203.53125 115.140625 "/>
<path fill="none" stroke-width="1.69" stroke-linecap="round" stroke-linejoin="round" stroke="rgb(0%, 0%, 0%)" stroke-opacity="1" stroke-miterlimit="10" d="M 2035.3125 1138.59375 C 2035.3125 1148.085938 2027.617188 1155.742188 2018.164062 1155.742188 C 2008.710938 1155.742188 2001.015625 1148.085938 2001.015625 1138.59375 C 2001.015625 1129.140625 2008.710938 1121.484375 2018.164062 1121.484375 C 2027.617188 1121.484375 2035.3125 1129.140625 2035.3125 1138.59375 Z M 2035.3125 1138.59375 " transform="matrix(0.1, 0, 0, -0.1, 0, 229)"/>
<path fill-rule="evenodd" fill="rgb(0%, 0%, 0%)" fill-opacity="1" d="M 210.425781 110.671875 C 210.46875 110.527344 210.46875 110.511719 210.46875 110.484375 C 210.46875 110.304688 210.339844 110.121094 210.089844 110.121094 C 209.667969 110.121094 209.574219 110.5 209.515625 110.71875 L 209.308594 111.558594 C 209.210938 111.949219 209.054688 112.570312 208.96875 112.902344 C 208.929688 113.078125 208.679688 113.273438 208.652344 113.289062 C 208.566406 113.347656 208.371094 113.484375 208.105469 113.484375 C 207.628906 113.484375 207.621094 113.082031 207.621094 112.894531 C 207.621094 112.394531 207.871094 111.761719 208.097656 111.171875 C 208.179688 110.960938 208.203125 110.902344 208.203125 110.765625 C 208.203125 110.289062 207.726562 110.027344 207.277344 110.027344 C 206.40625 110.027344 205.996094 111.160156 205.996094 111.324219 C 205.996094 111.4375 206.121094 111.4375 206.195312 111.4375 C 206.296875 111.4375 206.351562 111.4375 206.386719 111.332031 C 206.660156 110.4375 207.117188 110.359375 207.238281 110.359375 C 207.296875 110.359375 207.378906 110.359375 207.378906 110.527344 C 207.378906 110.714844 207.285156 110.921875 207.238281 111.050781 C 206.90625 111.855469 206.726562 112.316406 206.726562 112.726562 C 206.726562 113.679688 207.546875 113.8125 208.027344 113.8125 C 208.234375 113.8125 208.511719 113.777344 208.816406 113.539062 C 208.585938 114.523438 207.972656 115.046875 207.40625 115.046875 C 207.300781 115.046875 207.070312 115.046875 206.90625 114.949219 C 207.167969 114.847656 207.296875 114.636719 207.296875 114.421875 C 207.296875 114.136719 207.0625 114.058594 206.898438 114.058594 C 206.597656 114.058594 206.3125 114.316406 206.3125 114.671875 C 206.3125 115.085938 206.742188 115.375 207.402344 115.375 C 208.335938 115.375 209.410156 114.75 209.660156 113.742188 L 210.425781 110.671875 "/>
<path fill-rule="evenodd" fill="rgb(0%, 0%, 0%)" fill-opacity="1" d="M 88.148438 143.578125 C 88.148438 142.632812 87.382812 141.863281 86.4375 141.863281 C 85.492188 141.863281 84.722656 142.632812 84.722656 143.578125 C 84.722656 144.523438 85.492188 145.289062 86.4375 145.289062 C 87.382812 145.289062 88.148438 144.523438 88.148438 143.578125 "/>
<path fill="none" stroke-width="1.69" stroke-linecap="round" stroke-linejoin="round" stroke="rgb(0%, 0%, 0%)" stroke-opacity="1" stroke-miterlimit="10" d="M 881.484375 854.21875 C 881.484375 863.671875 873.828125 871.367188 864.375 871.367188 C 854.921875 871.367188 847.226562 863.671875 847.226562 854.21875 C 847.226562 844.765625 854.921875 837.109375 864.375 837.109375 C 873.828125 837.109375 881.484375 844.765625 881.484375 854.21875 Z M 881.484375 854.21875 " transform="matrix(0.1, 0, 0, -0.1, 0, 229)"/>
<path fill-rule="evenodd" fill="rgb(0%, 0%, 0%)" fill-opacity="1" d="M 92.382812 139.558594 C 92.382812 138.777344 92.382812 136.820312 90.453125 136.820312 C 88.515625 136.820312 88.515625 138.769531 88.515625 139.558594 C 88.515625 140.339844 88.515625 142.246094 90.449219 142.246094 C 92.382812 142.246094 92.382812 140.363281 92.382812 139.558594 Z M 90.453125 142 C 90.191406 142 89.996094 141.894531 89.835938 141.722656 C 89.632812 141.519531 89.503906 141.390625 89.503906 139.46875 C 89.503906 138.898438 89.503906 138.378906 89.570312 137.953125 C 89.683594 137.144531 90.265625 137.089844 90.445312 137.089844 C 90.707031 137.089844 91.207031 137.210938 91.320312 137.894531 C 91.394531 138.3125 91.394531 138.972656 91.394531 139.46875 C 91.394531 141.398438 91.273438 141.511719 91.03125 141.753906 C 90.867188 141.917969 90.648438 142 90.453125 142 "/>
<path fill-rule="evenodd" fill="rgb(0%, 0%, 0%)" fill-opacity="1" d="M 253.703125 141.992188 C 253.453125 142.039062 253.359375 142.230469 253.359375 142.382812 C 253.359375 142.570312 253.507812 142.632812 253.617188 142.632812 C 253.851562 142.632812 254.015625 142.421875 254.015625 142.207031 C 254.015625 141.867188 253.636719 141.714844 253.300781 141.714844 C 252.816406 141.714844 252.546875 142.195312 252.476562 142.351562 C 252.292969 141.714844 251.796875 141.714844 251.652344 141.714844 C 250.839844 141.714844 250.410156 142.773438 250.410156 142.949219 C 250.410156 142.980469 250.441406 143.023438 250.496094 143.023438 C 250.558594 143.023438 250.574219 142.976562 250.59375 142.945312 C 250.863281 142.0625 251.398438 141.894531 251.628906 141.894531 C 251.988281 141.894531 252.058594 142.21875 252.058594 142.40625 C 252.058594 142.589844 252.011719 142.777344 251.914062 143.171875 L 251.644531 144.304688 C 251.523438 144.796875 251.292969 145.253906 250.871094 145.253906 C 250.828125 145.253906 250.632812 145.253906 250.464844 145.140625 C 250.746094 145.078125 250.808594 144.820312 250.808594 144.71875 C 250.808594 144.546875 250.691406 144.441406 250.542969 144.441406 C 250.355469 144.441406 250.152344 144.625 250.152344 144.902344 C 250.152344 145.265625 250.523438 145.429688 250.863281 145.429688 C 251.246094 145.429688 251.515625 145.097656 251.683594 144.738281 C 251.808594 145.253906 252.210938 145.429688 252.503906 145.429688 C 253.320312 145.429688 253.75 144.316406 253.75 144.128906 C 253.75 144.085938 253.71875 144.054688 253.671875 144.054688 C 253.597656 144.054688 253.589844 144.097656 253.566406 144.164062 C 253.351562 144.90625 252.890625 145.253906 252.527344 145.253906 C 252.25 145.253906 252.097656 145.027344 252.097656 144.671875 C 252.097656 144.492188 252.132812 144.363281 252.257812 143.832031 L 252.535156 142.734375 C 252.65625 142.246094 252.929688 141.894531 253.296875 141.894531 C 253.3125 141.894531 253.535156 141.894531 253.703125 141.992188 "/>
<path fill-rule="evenodd" fill="rgb(0%, 0%, 0%)" fill-opacity="1" d="M 86.855469 11.378906 C 86.640625 11.6875 86.328125 11.964844 85.9375 11.964844 C 85.839844 11.964844 85.457031 11.964844 85.339844 11.625 C 85.363281 11.632812 85.398438 11.632812 85.414062 11.632812 C 85.648438 11.632812 85.800781 11.421875 85.800781 11.230469 C 85.800781 11.042969 85.65625 10.976562 85.539062 10.976562 C 85.414062 10.976562 85.144531 11.070312 85.144531 11.460938 C 85.144531 11.863281 85.488281 12.140625 85.945312 12.140625 C 86.742188 12.140625 87.550781 11.386719 87.773438 10.480469 L 88.558594 7.289062 C 88.566406 7.246094 88.582031 7.199219 88.582031 7.148438 C 88.582031 7.027344 88.488281 6.945312 88.363281 6.945312 C 88.292969 6.945312 88.121094 6.976562 88.058594 7.222656 L 87.460938 9.628906 C 87.421875 9.773438 87.421875 9.789062 87.355469 9.882812 C 87.195312 10.109375 86.929688 10.386719 86.539062 10.386719 C 86.089844 10.386719 86.046875 9.9375 86.046875 9.714844 C 86.046875 9.246094 86.269531 8.613281 86.488281 8.023438 C 86.578125 7.785156 86.625 7.671875 86.625 7.507812 C 86.625 7.164062 86.386719 6.851562 85.996094 6.851562 C 85.269531 6.851562 84.976562 8.050781 84.976562 8.113281 C 84.976562 8.148438 85.007812 8.1875 85.066406 8.1875 C 85.136719 8.1875 85.144531 8.15625 85.179688 8.042969 C 85.375 7.355469 85.683594 7.027344 86.003906 7.027344 C 86.074219 7.027344 86.214844 7.027344 86.214844 7.300781 C 86.214844 7.511719 86.117188 7.75 85.984375 8.0625 C 85.554688 9.136719 85.554688 9.40625 85.554688 9.605469 C 85.554688 10.386719 86.109375 10.566406 86.515625 10.566406 C 86.75 10.566406 87.042969 10.488281 87.328125 10.175781 L 87.335938 10.183594 C 87.214844 10.660156 87.136719 10.980469 86.855469 11.378906 "/>
<path fill-rule="evenodd" fill="rgb(0%, 0%, 0%)" fill-opacity="1" d="M 209.890625 160.53125 C 209.609375 161.015625 209.335938 161.179688 208.945312 161.179688 C 208.859375 161.179688 208.792969 161.179688 208.792969 161.335938 C 208.792969 161.386719 208.835938 161.417969 208.890625 161.417969 C 209.035156 161.417969 209.398438 161.417969 209.546875 161.417969 C 209.78125 161.417969 210.039062 161.417969 210.265625 161.417969 C 210.3125 161.417969 210.410156 161.417969 210.410156 161.265625 C 210.410156 161.1875 210.34375 161.179688 210.296875 161.179688 C 210.109375 161.164062 209.957031 161.105469 209.957031 160.929688 C 209.957031 160.8125 210.007812 160.722656 210.109375 160.542969 L 210.722656 159.519531 L 212.785156 159.519531 C 212.792969 159.59375 212.792969 159.65625 212.800781 159.730469 C 212.824219 159.941406 212.921875 160.789062 212.921875 160.945312 C 212.921875 161.179688 212.507812 161.179688 212.382812 161.179688 C 212.292969 161.179688 212.203125 161.179688 212.203125 161.335938 C 212.203125 161.417969 212.273438 161.417969 212.324219 161.417969 C 212.460938 161.417969 212.621094 161.417969 212.761719 161.417969 L 213.21875 161.417969 C 213.714844 161.417969 214.070312 161.417969 214.078125 161.417969 C 214.132812 161.417969 214.222656 161.417969 214.222656 161.265625 C 214.222656 161.179688 214.148438 161.179688 214.027344 161.179688 C 213.585938 161.179688 213.574219 161.109375 213.550781 160.859375 L 213.058594 155.746094 C 213.042969 155.585938 213.011719 155.566406 212.921875 155.566406 C 212.839844 155.566406 212.792969 155.585938 212.71875 155.707031 Z M 210.863281 159.28125 L 212.484375 156.5 L 212.761719 159.28125 Z M 210.863281 159.28125 "/>
</svg>
