<?xml version="1.0" encoding="UTF-8"?>
<svg xmlns="http://www.w3.org/2000/svg" xmlns:xlink="http://www.w3.org/1999/xlink" width="167" height="159" viewBox="0 0 167 159">
<path fill="none" stroke-width="30" stroke-linecap="butt" stroke-linejoin="miter" stroke="rgb(0%, 0%, 0%)" stroke-opacity="1" stroke-miterlimit="4" d="M 747.265625 585.9375 C 684.6875 558.554688 615.742188 543.320312 543.515625 543.320312 C 261.835938 543.320312 30 775.078125 30 1056.679688 C 30 1338.242188 261.835938 1570 543.515625 1570 C 617.578125 1570 688.203125 1553.984375 752.03125 1525.273438 " transform="matrix(0.1, 0, 0, -0.1, 0, 159)"/>
<path fill="none" stroke-width="30" stroke-linecap="butt" stroke-linejoin="miter" stroke="rgb(0%, 0%, 0%)" stroke-opacity="1" stroke-miterlimit="4" d="M 916.09375 1408.476562 C 1003.28125 1316.328125 1057.070312 1192.265625 1057.070312 1056.679688 C 1057.070312 915.078125 998.476562 786.09375 904.375 692.851562 " transform="matrix(0.1, 0, 0, -0.1, 0, 159)"/>
<path fill="none" stroke-width="30" stroke-linecap="butt" stroke-linejoin="miter" stroke="rgb(0%, 0%, 0%)" stroke-opacity="1" stroke-miterlimit="4" d="M 343.164062 690.195312 C 406.992188 901.171875 604.257812 1056.679688 835 1056.679688 C 878.828125 1056.679688 921.445312 1051.054688 962.1875 1040.507812 " transform="matrix(0.1, 0, 0, -0.1, 0, 159)"/>
<path fill="none" stroke-width="30" stroke-linecap="butt" stroke-linejoin="miter" stroke="rgb(0%, 0%, 0%)" stroke-opacity="1" stroke-miterlimit="4" d="M 1129.179688 963.007812 C 1261.445312 869.765625 1348.554688 715.898438 1348.554688 543.320312 C 1348.554688 261.757812 1116.679688 30 835 30 C 570.898438 30 350.625 233.671875 324.140625 491.171875 " transform="matrix(0.1, 0, 0, -0.1, 0, 159)"/>
<path fill="none" stroke-width="30" stroke-linecap="butt" stroke-linejoin="miter" stroke="rgb(0%, 0%, 0%)" stroke-opacity="1" stroke-miterlimit="4" d="M 625.039062 946.25 Z M 625.039062 946.25 " transform="matrix(0.1, 0, 0, -0.1, 0, 159)"/>
<path fill="none" stroke-width="30" stroke-linecap="butt" stroke-linejoin="miter" stroke="rgb(0%, 0%, 0%)" stroke-opacity="1" stroke-miterlimit="4" d="M 625.039062 946.25 Z M 625.039062 946.25 " transform="matrix(0.1, 0, 0, -0.1, 0, 159)"/>
<path fill="none" stroke-width="30" stroke-linecap="butt" stroke-linejoin="miter" stroke="rgb(0%, 0%, 0%)" stroke-opacity="1" stroke-miterlimit="4" d="M 625.039062 946.25 Z M 625.039062 946.25 " transform="matrix(0.1, 0, 0, -0.1, 0, 159)"/>
<path fill="none" stroke-width="30" stroke-linecap="butt" stroke-linejoin="miter" stroke="rgb(0%, 0%, 0%)" stroke-opacity="1" stroke-miterlimit="4" d="M 625.039062 946.25 Z M 625.039062 946.25 " transform="matrix(0.1, 0, 0, -0.1, 0, 159)"/>
<path fill="none" stroke-width="30" stroke-linecap="butt" stroke-linejoin="miter" stroke="rgb(0%, 0%, 0%)" stroke-opacity="1" stroke-miterlimit="4" d="M 625.039062 946.25 Z M 625.039062 946.25 " transform="matrix(0.1, 0, 0, -0.1, 0, 159)"/>
<path fill="none" stroke-width="30" stroke-linecap="butt" stroke-linejoin="miter" stroke="rgb(0%, 0%, 0%)" stroke-opacity="1" stroke-miterlimit="4" d="M 625.039062 946.25 Z M 625.039062 946.25 " transform="matrix(0.1, 0, 0, -0.1, 0, 159)"/>
<path fill="none" stroke-width="30" stroke-linecap="butt" stroke-linejoin="miter" stroke="rgb(0%, 0%, 0%)" stroke-opacity="1" stroke-miterlimit="4" d="M 625.039062 946.25 Z M 625.039062 946.25 " transform="matrix(0.1, 0, 0, -0.1, 0, 159)"/>
<path fill="none" stroke-width="30" stroke-linecap="butt" stroke-linejoin="miter" stroke="rgb(0%, 0%, 0%)" stroke-opacity="1" stroke-miterlimit="4" d="M 1244.375 557.1875 C 1206.484375 548.125 1166.992188 543.320312 1126.445312 543.320312 C 907.304688 543.320312 718.320312 683.59375 645.234375 878.476562 " transform="matrix(0.1, 0, 0, -0.1, 0, 159)"/>
<path fill="none" stroke-width="30" stroke-linecap="butt" stroke-linejoin="miter" stroke="rgb(0%, 0%, 0%)" stroke-opacity="1" stroke-miterlimit="4" d="M 615.585938 1108.867188 C 642.109375 1366.328125 862.382812 1570 1126.445312 1570 C 1408.164062 1570 1640 1338.242188 1640 1056.679688 C 1640 886.328125 1555.15625 734.179688 1425.703125 640.585938 " transform="matrix(0.1, 0, 0, -0.1, 0, 159)"/>
</svg>
