<?xml version="1.0" encoding="UTF-8"?>
<svg xmlns="http://www.w3.org/2000/svg" xmlns:xlink="http://www.w3.org/1999/xlink" width="267.19" height="160.25" viewBox="0 0 267.19 160.25">
<defs>
<clipPath id="clip-0">
<path clip-rule="nonzero" d="M 0.21875 79 L 266.164062 79 L 266.164062 80 L 0.21875 80 Z M 0.21875 79 "/>
</clipPath>
<clipPath id="clip-1">
<path clip-rule="nonzero" d="M 133 0 L 134 0 L 134 159.503906 L 133 159.503906 Z M 133 0 "/>
</clipPath>
<clipPath id="clip-2">
<path clip-rule="nonzero" d="M 61 79 L 134 79 L 134 159.503906 L 61 159.503906 Z M 61 79 "/>
</clipPath>
<clipPath id="clip-3">
<path clip-rule="nonzero" d="M 200 154 L 206 154 L 206 159.503906 L 200 159.503906 Z M 200 154 "/>
</clipPath>
</defs>
<g clip-path="url(#clip-0)">
<path fill="none" stroke-width="2.5" stroke-linecap="round" stroke-linejoin="round" stroke="rgb(0%, 0%, 0%)" stroke-opacity="1" stroke-miterlimit="10" d="M 0.505431 801.267551 L 2671.345671 801.267551 " transform="matrix(0.0995342, 0, 0, -0.0995342, 0.219224, 159.503494)"/>
</g>
<g clip-path="url(#clip-1)">
<path fill="none" stroke-width="2.5" stroke-linecap="round" stroke-linejoin="round" stroke="rgb(0%, 0%, 0%)" stroke-opacity="1" stroke-miterlimit="10" d="M 1335.945174 -0.00414392 L 1335.945174 1602.5 " transform="matrix(0.0995342, 0, 0, -0.0995342, 0.219224, 159.503494)"/>
</g>
<g clip-path="url(#clip-2)">
<path fill="none" stroke-width="5" stroke-linecap="round" stroke-linejoin="round" stroke="rgb(100%, 0%, 0%)" stroke-opacity="1" stroke-miterlimit="10" d="M 616.853179 -0.00414392 L 655.038875 46.109107 L 695.775517 94.930285 L 737.33631 144.340142 L 779.485784 194.024717 L 821.94922 243.513066 L 864.373411 292.569715 L 906.562129 340.762968 L 948.122923 387.857352 L 988.82032 433.460413 L 1028.418848 477.375926 L 1066.604544 519.211437 L 1103.063446 558.809965 L 1137.677818 595.975283 L 1170.055207 630.432674 L 1200.117122 662.064401 L 1227.5496 690.713485 L 1252.234906 716.262188 L 1273.976814 738.592775 L 1292.657586 757.626755 L 1308.080996 773.246392 L 1320.2078 785.451687 L 1328.959507 794.242638 L 1334.179134 799.501511 L 1335.945174 801.267551 " transform="matrix(0.0995342, 0, 0, -0.0995342, 0.219224, 159.503494)"/>
</g>
<path fill="none" stroke-width="5" stroke-linecap="round" stroke-linejoin="round" stroke="rgb(100%, 0%, 0%)" stroke-opacity="1" stroke-miterlimit="10" d="M 307.953266 1394.696032 L 309.68006 1373.621295 L 314.938933 1350.505801 L 323.651394 1325.624269 L 335.778198 1299.251414 L 351.240854 1271.622709 L 369.882381 1243.091361 L 391.624288 1213.932089 L 416.309594 1184.419608 L 443.781318 1154.789392 L 473.803988 1125.316156 L 506.220622 1096.313865 L 540.795749 1067.978744 L 577.293896 1040.546266 L 615.440347 1014.212656 L 655.038875 989.134897 L 695.775517 965.509214 L 737.33631 943.453344 L 779.485784 923.006533 L 821.94922 904.325761 L 864.373411 887.371782 L 906.562129 872.223089 L 948.122923 858.840435 L 988.82032 847.14533 L 1028.418848 837.137773 L 1066.604544 828.700029 L 1103.063446 821.714362 L 1137.677818 816.063036 L 1170.055207 811.58907 L 1200.117122 808.174727 L 1227.5496 805.663027 L 1252.234906 803.857742 L 1273.976814 802.680382 L 1292.657586 801.934721 L 1308.080996 801.542268 L 1320.2078 801.346041 L 1328.959507 801.267551 L 1335.945174 801.267551 " transform="matrix(0.0995342, 0, 0, -0.0995342, 0.219224, 159.503494)"/>
<path fill="none" stroke-width="5" stroke-linecap="round" stroke-linejoin="round" stroke="rgb(100%, 0%, 0%)" stroke-opacity="1" stroke-miterlimit="10" d="M 307.953266 1394.853013 L 309.68006 1413.651521 L 314.938933 1430.056065 L 323.651394 1443.752681 L 335.778198 1454.623635 L 351.240854 1462.55119 L 369.882381 1467.378364 L 391.624288 1468.948177 L 416.309594 1467.339119 L 443.781318 1462.472699 L 473.803988 1454.388163 L 506.220622 1443.085511 L 540.795749 1428.721724 L 577.293896 1411.375293 L 615.440347 1391.242443 L 655.038875 1368.480158 L 695.775517 1343.284663 L 737.33631 1315.96992 L 779.485784 1286.732157 L 821.94922 1255.924581 L 864.373411 1223.782664 L 906.562129 1190.738105 L 948.122923 1157.06562 L 988.82032 1123.118418 L 1028.418848 1089.249707 L 1066.604544 1055.812695 L 1103.063446 1023.23908 L 1137.677818 991.725088 L 1170.055207 961.702418 L 1200.117122 933.485033 L 1227.5496 907.34765 L 1252.234906 883.604232 L 1273.976814 862.451004 L 1292.657586 844.201931 L 1308.080996 828.935501 L 1320.2078 816.926433 L 1328.959507 808.253218 L 1334.179134 802.994345 L 1335.945174 801.267551 " transform="matrix(0.0995342, 0, 0, -0.0995342, 0.219224, 159.503494)"/>
<path fill="none" stroke-width="5" stroke-linecap="round" stroke-linejoin="round" stroke="rgb(100%, 0%, 0%)" stroke-opacity="1" stroke-miterlimit="10" d="M 1335.945174 801.267551 L 1337.711213 799.501511 L 1342.93084 794.242638 L 1351.682547 785.451687 L 1363.809351 773.246392 L 1379.232761 757.626755 L 1397.913534 738.592775 L 1419.655441 716.262188 L 1444.301502 690.713485 L 1471.773225 662.064401 L 1501.83514 630.432674 L 1534.212529 595.975283 L 1568.826901 558.809965 L 1605.285803 519.211437 L 1643.4715 477.375926 L 1683.030782 433.460413 L 1723.767424 387.857352 L 1765.328218 340.762968 L 1807.516936 292.569715 L 1849.941127 243.513066 L 1892.365318 194.024717 L 1934.554037 144.340142 L 1976.11483 94.930285 L 2016.851472 46.109107 " transform="matrix(0.0995342, 0, 0, -0.0995342, 0.219224, 159.503494)"/>
<g clip-path="url(#clip-3)">
<path fill="none" stroke-width="5" stroke-linecap="round" stroke-linejoin="round" stroke="rgb(100%, 0%, 0%)" stroke-opacity="1" stroke-miterlimit="10" d="M 2016.851472 46.109107 L 2054.997923 -0.00414392 " transform="matrix(0.0995342, 0, 0, -0.0995342, 0.219224, 159.503494)"/>
</g>
<path fill="none" stroke-width="5" stroke-linecap="round" stroke-linejoin="round" stroke="rgb(100%, 0%, 0%)" stroke-opacity="1" stroke-miterlimit="10" d="M 1335.945174 801.267551 L 1342.93084 801.267551 L 1351.682547 801.346041 L 1363.809351 801.542268 L 1379.232761 801.934721 L 1397.913534 802.680382 L 1419.655441 803.857742 L 1444.301502 805.663027 L 1471.773225 808.174727 L 1501.83514 811.58907 L 1534.212529 816.063036 L 1568.826901 821.714362 L 1605.285803 828.700029 L 1643.4715 837.137773 L 1683.030782 847.14533 L 1723.767424 858.840435 L 1765.328218 872.223089 L 1807.516936 887.371782 L 1849.941127 904.325761 L 1892.365318 923.006533 L 1934.554037 943.453344 L 1976.11483 965.509214 L 2016.851472 989.134897 L 2056.410755 1014.212656 L 2094.596451 1040.546266 L 2131.055353 1067.978744 L 2165.669725 1096.313865 L 2198.047114 1125.316156 L 2228.109029 1154.789392 L 2255.541507 1184.419608 L 2280.226814 1213.932089 L 2301.968721 1243.091361 L 2320.649493 1271.622709 L 2336.072904 1299.251414 L 2348.199707 1325.624269 L 2356.951414 1350.505801 L 2362.171041 1373.621295 L 2363.937081 1394.696032 " transform="matrix(0.0995342, 0, 0, -0.0995342, 0.219224, 159.503494)"/>
<path fill="none" stroke-width="5" stroke-linecap="round" stroke-linejoin="round" stroke="rgb(100%, 0%, 0%)" stroke-opacity="1" stroke-miterlimit="10" d="M 1335.945174 801.267551 L 1337.711213 802.994345 L 1342.93084 808.253218 L 1351.682547 816.926433 L 1363.809351 828.935501 L 1379.232761 844.201931 L 1397.913534 862.451004 L 1419.655441 883.604232 L 1444.301502 907.34765 L 1471.773225 933.485033 L 1501.83514 961.702418 L 1534.212529 991.725088 L 1568.826901 1023.23908 L 1605.285803 1055.812695 L 1643.4715 1089.249707 L 1683.030782 1123.118418 L 1723.767424 1157.06562 L 1765.328218 1190.738105 L 1807.516936 1223.782664 L 1849.941127 1255.924581 L 1892.365318 1286.732157 L 1934.554037 1315.96992 L 1976.11483 1343.284663 L 2016.851472 1368.480158 L 2056.410755 1391.242443 L 2094.596451 1411.375293 L 2131.055353 1428.721724 L 2165.669725 1443.085511 L 2198.047114 1454.388163 L 2228.109029 1462.472699 L 2255.541507 1467.339119 L 2280.226814 1468.948177 L 2301.968721 1467.378364 L 2320.649493 1462.55119 L 2336.072904 1454.623635 L 2348.199707 1443.752681 L 2356.951414 1430.056065 L 2362.171041 1413.651521 L 2363.937081 1394.853013 " transform="matrix(0.0995342, 0, 0, -0.0995342, 0.219224, 159.503494)"/>
</svg>
