<?xml version="1.0" encoding="UTF-8"?>
<svg xmlns="http://www.w3.org/2000/svg" xmlns:xlink="http://www.w3.org/1999/xlink" width="169" height="65" viewBox="0 0 169 65">
<path fill="none" stroke-width="10" stroke-linecap="butt" stroke-linejoin="miter" stroke="rgb(13.729858%, 12.159729%, 12.548828%)" stroke-opacity="1" stroke-miterlimit="11.5" d="M 645 5 L 5 5 L 5 645 L 645 645 Z M 645 5 " transform="matrix(0.1, 0, 0, -0.1, 0, 65)"/>
<path fill-rule="nonzero" fill="rgb(13.729858%, 12.159729%, 12.548828%)" fill-opacity="1" d="M 15.832031 32 C 15.832031 34.210938 14.042969 36 11.832031 36 C 9.625 36 7.832031 34.210938 7.832031 32 C 7.832031 29.789062 9.625 28 11.832031 28 C 14.042969 28 15.832031 29.789062 15.832031 32 "/>
<path fill="none" stroke-width="10" stroke-linecap="butt" stroke-linejoin="miter" stroke="rgb(13.729858%, 12.159729%, 12.548828%)" stroke-opacity="1" stroke-miterlimit="11.5" d="M 158.320312 330 C 158.320312 307.890625 140.429688 290 118.320312 290 C 96.25 290 78.320312 307.890625 78.320312 330 C 78.320312 352.109375 96.25 370 118.320312 370 C 140.429688 370 158.320312 352.109375 158.320312 330 Z M 158.320312 330 " transform="matrix(0.1, 0, 0, -0.1, 0, 65)"/>
<path fill-rule="nonzero" fill="rgb(13.729858%, 12.159729%, 12.548828%)" fill-opacity="1" d="M 15.832031 52.5 C 15.832031 54.710938 14.042969 56.5 11.832031 56.5 C 9.625 56.5 7.832031 54.710938 7.832031 52.5 C 7.832031 50.289062 9.625 48.5 11.832031 48.5 C 14.042969 48.5 15.832031 50.289062 15.832031 52.5 "/>
<path fill="none" stroke-width="10" stroke-linecap="butt" stroke-linejoin="miter" stroke="rgb(13.729858%, 12.159729%, 12.548828%)" stroke-opacity="1" stroke-miterlimit="11.5" d="M 158.320312 125 C 158.320312 102.890625 140.429688 85 118.320312 85 C 96.25 85 78.320312 102.890625 78.320312 125 C 78.320312 147.109375 96.25 165 118.320312 165 C 140.429688 165 158.320312 147.109375 158.320312 125 Z M 158.320312 125 " transform="matrix(0.1, 0, 0, -0.1, 0, 65)"/>
<path fill="none" stroke-width="10" stroke-linecap="butt" stroke-linejoin="miter" stroke="rgb(13.729858%, 12.159729%, 12.548828%)" stroke-opacity="1" stroke-miterlimit="11.5" d="M 1685 5 L 1045 5 L 1045 645 L 1685 645 Z M 1685 5 " transform="matrix(0.1, 0, 0, -0.1, 0, 65)"/>
<path fill-rule="nonzero" fill="rgb(13.729858%, 12.159729%, 12.548828%)" fill-opacity="1" d="M 15.832031 11.5 C 15.832031 13.710938 14.042969 15.5 11.832031 15.5 C 9.625 15.5 7.832031 13.710938 7.832031 11.5 C 7.832031 9.289062 9.625 7.5 11.832031 7.5 C 14.042969 7.5 15.832031 9.289062 15.832031 11.5 "/>
<path fill="none" stroke-width="10" stroke-linecap="butt" stroke-linejoin="miter" stroke="rgb(13.729858%, 12.159729%, 12.548828%)" stroke-opacity="1" stroke-miterlimit="11.5" d="M 158.320312 535 C 158.320312 512.890625 140.429688 495 118.320312 495 C 96.25 495 78.320312 512.890625 78.320312 535 C 78.320312 557.109375 96.25 575 118.320312 575 C 140.429688 575 158.320312 557.109375 158.320312 535 Z M 158.320312 535 " transform="matrix(0.1, 0, 0, -0.1, 0, 65)"/>
<path fill-rule="nonzero" fill="rgb(13.729858%, 12.159729%, 12.548828%)" fill-opacity="1" d="M 54.832031 32 C 54.832031 34.210938 53.042969 36 50.832031 36 C 48.625 36 46.832031 34.210938 46.832031 32 C 46.832031 29.789062 48.625 28 50.832031 28 C 53.042969 28 54.832031 29.789062 54.832031 32 "/>
<path fill="none" stroke-width="10" stroke-linecap="butt" stroke-linejoin="miter" stroke="rgb(13.729858%, 12.159729%, 12.548828%)" stroke-opacity="1" stroke-miterlimit="11.5" d="M 548.320312 330 C 548.320312 307.890625 530.429688 290 508.320312 290 C 486.25 290 468.320312 307.890625 468.320312 330 C 468.320312 352.109375 486.25 370 508.320312 370 C 530.429688 370 548.320312 352.109375 548.320312 330 Z M 548.320312 330 " transform="matrix(0.1, 0, 0, -0.1, 0, 65)"/>
<path fill-rule="nonzero" fill="rgb(13.729858%, 12.159729%, 12.548828%)" fill-opacity="1" d="M 54.832031 52.5 C 54.832031 54.710938 53.042969 56.5 50.832031 56.5 C 48.625 56.5 46.832031 54.710938 46.832031 52.5 C 46.832031 50.289062 48.625 48.5 50.832031 48.5 C 53.042969 48.5 54.832031 50.289062 54.832031 52.5 "/>
<path fill="none" stroke-width="10" stroke-linecap="butt" stroke-linejoin="miter" stroke="rgb(13.729858%, 12.159729%, 12.548828%)" stroke-opacity="1" stroke-miterlimit="11.5" d="M 548.320312 125 C 548.320312 102.890625 530.429688 85 508.320312 85 C 486.25 85 468.320312 102.890625 468.320312 125 C 468.320312 147.109375 486.25 165 508.320312 165 C 530.429688 165 548.320312 147.109375 548.320312 125 Z M 548.320312 125 " transform="matrix(0.1, 0, 0, -0.1, 0, 65)"/>
<path fill-rule="nonzero" fill="rgb(13.729858%, 12.159729%, 12.548828%)" fill-opacity="1" d="M 54.832031 11.5 C 54.832031 13.710938 53.042969 15.5 50.832031 15.5 C 48.625 15.5 46.832031 13.710938 46.832031 11.5 C 46.832031 9.289062 48.625 7.5 50.832031 7.5 C 53.042969 7.5 54.832031 9.289062 54.832031 11.5 "/>
<path fill="none" stroke-width="10" stroke-linecap="butt" stroke-linejoin="miter" stroke="rgb(13.729858%, 12.159729%, 12.548828%)" stroke-opacity="1" stroke-miterlimit="11.5" d="M 548.320312 535 C 548.320312 512.890625 530.429688 495 508.320312 495 C 486.25 495 468.320312 512.890625 468.320312 535 C 468.320312 557.109375 486.25 575 508.320312 575 C 530.429688 575 548.320312 557.109375 548.320312 535 Z M 548.320312 535 " transform="matrix(0.1, 0, 0, -0.1, 0, 65)"/>
<path fill-rule="nonzero" fill="rgb(13.729858%, 12.159729%, 12.548828%)" fill-opacity="1" d="M 120.835938 32 C 120.835938 34.210938 119.042969 36 116.835938 36 C 114.625 36 112.835938 34.210938 112.835938 32 C 112.835938 29.789062 114.625 28 116.835938 28 C 119.042969 28 120.835938 29.789062 120.835938 32 "/>
<path fill="none" stroke-width="10" stroke-linecap="butt" stroke-linejoin="miter" stroke="rgb(13.729858%, 12.159729%, 12.548828%)" stroke-opacity="1" stroke-miterlimit="11.5" d="M 1208.359375 330 C 1208.359375 307.890625 1190.429688 290 1168.359375 290 C 1146.25 290 1128.359375 307.890625 1128.359375 330 C 1128.359375 352.109375 1146.25 370 1168.359375 370 C 1190.429688 370 1208.359375 352.109375 1208.359375 330 Z M 1208.359375 330 " transform="matrix(0.1, 0, 0, -0.1, 0, 65)"/>
<path fill-rule="nonzero" fill="rgb(13.729858%, 12.159729%, 12.548828%)" fill-opacity="1" d="M 120.835938 52.5 C 120.835938 54.710938 119.042969 56.5 116.835938 56.5 C 114.625 56.5 112.835938 54.710938 112.835938 52.5 C 112.835938 50.289062 114.625 48.5 116.835938 48.5 C 119.042969 48.5 120.835938 50.289062 120.835938 52.5 "/>
<path fill="none" stroke-width="10" stroke-linecap="butt" stroke-linejoin="miter" stroke="rgb(13.729858%, 12.159729%, 12.548828%)" stroke-opacity="1" stroke-miterlimit="11.5" d="M 1208.359375 125 C 1208.359375 102.890625 1190.429688 85 1168.359375 85 C 1146.25 85 1128.359375 102.890625 1128.359375 125 C 1128.359375 147.109375 1146.25 165 1168.359375 165 C 1190.429688 165 1208.359375 147.109375 1208.359375 125 Z M 1208.359375 125 " transform="matrix(0.1, 0, 0, -0.1, 0, 65)"/>
<path fill-rule="nonzero" fill="rgb(13.729858%, 12.159729%, 12.548828%)" fill-opacity="1" d="M 120.835938 11.5 C 120.835938 13.710938 119.042969 15.5 116.835938 15.5 C 114.625 15.5 112.835938 13.710938 112.835938 11.5 C 112.835938 9.289062 114.625 7.5 116.835938 7.5 C 119.042969 7.5 120.835938 9.289062 120.835938 11.5 "/>
<path fill="none" stroke-width="10" stroke-linecap="butt" stroke-linejoin="miter" stroke="rgb(13.729858%, 12.159729%, 12.548828%)" stroke-opacity="1" stroke-miterlimit="11.5" d="M 1208.359375 535 C 1208.359375 512.890625 1190.429688 495 1168.359375 495 C 1146.25 495 1128.359375 512.890625 1128.359375 535 C 1128.359375 557.109375 1146.25 575 1168.359375 575 C 1190.429688 575 1208.359375 557.109375 1208.359375 535 Z M 1208.359375 535 " transform="matrix(0.1, 0, 0, -0.1, 0, 65)"/>
<path fill-rule="nonzero" fill="rgb(13.729858%, 12.159729%, 12.548828%)" fill-opacity="1" d="M 159.835938 32 C 159.835938 34.210938 158.042969 36 155.835938 36 C 153.625 36 151.835938 34.210938 151.835938 32 C 151.835938 29.789062 153.625 28 155.835938 28 C 158.042969 28 159.835938 29.789062 159.835938 32 "/>
<path fill="none" stroke-width="10" stroke-linecap="butt" stroke-linejoin="miter" stroke="rgb(13.729858%, 12.159729%, 12.548828%)" stroke-opacity="1" stroke-miterlimit="11.5" d="M 1598.359375 330 C 1598.359375 307.890625 1580.429688 290 1558.359375 290 C 1536.25 290 1518.359375 307.890625 1518.359375 330 C 1518.359375 352.109375 1536.25 370 1558.359375 370 C 1580.429688 370 1598.359375 352.109375 1598.359375 330 Z M 1598.359375 330 " transform="matrix(0.1, 0, 0, -0.1, 0, 65)"/>
<path fill-rule="nonzero" fill="rgb(13.729858%, 12.159729%, 12.548828%)" fill-opacity="1" d="M 159.835938 52.5 C 159.835938 54.710938 158.042969 56.5 155.835938 56.5 C 153.625 56.5 151.835938 54.710938 151.835938 52.5 C 151.835938 50.289062 153.625 48.5 155.835938 48.5 C 158.042969 48.5 159.835938 50.289062 159.835938 52.5 "/>
<path fill="none" stroke-width="10" stroke-linecap="butt" stroke-linejoin="miter" stroke="rgb(13.729858%, 12.159729%, 12.548828%)" stroke-opacity="1" stroke-miterlimit="11.5" d="M 1598.359375 125 C 1598.359375 102.890625 1580.429688 85 1558.359375 85 C 1536.25 85 1518.359375 102.890625 1518.359375 125 C 1518.359375 147.109375 1536.25 165 1558.359375 165 C 1580.429688 165 1598.359375 147.109375 1598.359375 125 Z M 1598.359375 125 " transform="matrix(0.1, 0, 0, -0.1, 0, 65)"/>
<path fill-rule="nonzero" fill="rgb(13.729858%, 12.159729%, 12.548828%)" fill-opacity="1" d="M 159.835938 11.5 C 159.835938 13.710938 158.042969 15.5 155.835938 15.5 C 153.625 15.5 151.835938 13.710938 151.835938 11.5 C 151.835938 9.289062 153.625 7.5 155.835938 7.5 C 158.042969 7.5 159.835938 9.289062 159.835938 11.5 "/>
<path fill="none" stroke-width="10" stroke-linecap="butt" stroke-linejoin="miter" stroke="rgb(13.729858%, 12.159729%, 12.548828%)" stroke-opacity="1" stroke-miterlimit="11.5" d="M 1598.359375 535 C 1598.359375 512.890625 1580.429688 495 1558.359375 495 C 1536.25 495 1518.359375 512.890625 1518.359375 535 C 1518.359375 557.109375 1536.25 575 1558.359375 575 C 1580.429688 575 1598.359375 557.109375 1598.359375 535 Z M 1598.359375 535 " transform="matrix(0.1, 0, 0, -0.1, 0, 65)"/>
</svg>
