<?xml version="1.0" encoding="UTF-8"?>
<svg xmlns="http://www.w3.org/2000/svg" xmlns:xlink="http://www.w3.org/1999/xlink" width="400" height="93" viewBox="0 0 400 93">
<path fill="none" stroke-width="5" stroke-linecap="round" stroke-linejoin="round" stroke="rgb(0%, 0%, 0%)" stroke-opacity="1" stroke-miterlimit="10" d="M 116.796875 886.757812 L 960.351562 886.757812 L 960.351562 43.242188 L 116.796875 43.242188 L 116.796875 886.757812 " transform="matrix(0.1, 0, 0, -0.1, 0, 93)"/>
<path fill="none" stroke-width="5" stroke-linecap="round" stroke-linejoin="round" stroke="rgb(0%, 0%, 0%)" stroke-opacity="1" stroke-miterlimit="10" d="M 1091.09375 886.757812 L 1372.265625 886.757812 L 1372.265625 605.585938 L 1653.4375 605.585938 L 1653.4375 886.757812 L 1934.648438 886.757812 L 1934.648438 605.585938 L 1653.4375 605.585938 L 1653.4375 324.414062 L 1934.648438 324.414062 L 1934.648438 43.242188 L 1653.4375 43.242188 L 1653.4375 324.414062 L 1372.265625 324.414062 L 1372.265625 43.242188 L 1091.09375 43.242188 L 1091.09375 324.414062 L 1372.265625 324.414062 L 1372.265625 605.585938 L 1091.09375 605.585938 L 1091.09375 886.757812 " transform="matrix(0.1, 0, 0, -0.1, 0, 93)"/>
<path fill="none" stroke-width="5" stroke-linecap="round" stroke-linejoin="round" stroke="rgb(0%, 0%, 0%)" stroke-opacity="1" stroke-miterlimit="10" d="M 2065.390625 886.757812 L 2159.101562 886.757812 L 2159.101562 793.046875 L 2252.8125 793.046875 L 2252.8125 886.757812 L 2346.5625 886.757812 L 2346.5625 793.046875 L 2252.8125 793.046875 L 2252.8125 699.296875 L 2346.5625 699.296875 L 2346.5625 605.585938 L 2440.273438 605.585938 L 2440.273438 511.875 L 2533.984375 511.875 L 2533.984375 605.585938 L 2627.734375 605.585938 L 2627.734375 699.296875 L 2721.445312 699.296875 L 2721.445312 793.046875 L 2627.734375 793.046875 L 2627.734375 886.757812 L 2721.445312 886.757812 L 2721.445312 793.046875 L 2815.195312 793.046875 L 2815.195312 886.757812 L 2908.90625 886.757812 L 2908.90625 793.046875 L 2815.195312 793.046875 L 2815.195312 699.296875 L 2908.90625 699.296875 L 2908.90625 605.585938 L 2815.195312 605.585938 L 2815.195312 699.296875 L 2721.445312 699.296875 L 2721.445312 605.585938 L 2627.734375 605.585938 L 2627.734375 511.875 L 2533.984375 511.875 L 2533.984375 418.125 L 2627.734375 418.125 L 2627.734375 324.414062 L 2721.445312 324.414062 L 2721.445312 230.703125 L 2815.195312 230.703125 L 2815.195312 324.414062 L 2908.90625 324.414062 L 2908.90625 230.703125 L 2815.195312 230.703125 L 2815.195312 136.953125 L 2908.90625 136.953125 " transform="matrix(0.1, 0, 0, -0.1, 0, 93)"/>
<path fill="none" stroke-width="5" stroke-linecap="round" stroke-linejoin="round" stroke="rgb(0%, 0%, 0%)" stroke-opacity="1" stroke-miterlimit="10" d="M 2908.90625 136.953125 L 2908.90625 43.242188 L 2815.195312 43.242188 L 2815.195312 136.953125 L 2721.445312 136.953125 L 2721.445312 43.242188 L 2627.734375 43.242188 L 2627.734375 136.953125 L 2721.445312 136.953125 L 2721.445312 230.703125 L 2627.734375 230.703125 L 2627.734375 324.414062 L 2533.984375 324.414062 L 2533.984375 418.125 L 2440.273438 418.125 L 2440.273438 324.414062 L 2346.5625 324.414062 L 2346.5625 230.703125 L 2252.8125 230.703125 L 2252.8125 136.953125 L 2346.5625 136.953125 L 2346.5625 43.242188 L 2252.8125 43.242188 L 2252.8125 136.953125 L 2159.101562 136.953125 L 2159.101562 43.242188 L 2065.390625 43.242188 L 2065.390625 136.953125 L 2159.101562 136.953125 L 2159.101562 230.703125 L 2065.390625 230.703125 L 2065.390625 324.414062 L 2159.101562 324.414062 L 2159.101562 230.703125 L 2252.8125 230.703125 L 2252.8125 324.414062 L 2346.5625 324.414062 L 2346.5625 418.125 L 2440.273438 418.125 L 2440.273438 511.875 L 2346.5625 511.875 L 2346.5625 605.585938 L 2252.8125 605.585938 L 2252.8125 699.296875 L 2159.101562 699.296875 L 2159.101562 605.585938 L 2065.390625 605.585938 L 2065.390625 699.296875 L 2159.101562 699.296875 L 2159.101562 793.046875 L 2065.390625 793.046875 " transform="matrix(0.1, 0, 0, -0.1, 0, 93)"/>
<path fill="none" stroke-width="5" stroke-linecap="round" stroke-linejoin="round" stroke="rgb(0%, 0%, 0%)" stroke-opacity="1" stroke-miterlimit="10" d="M 2065.390625 793.046875 L 2065.390625 886.757812 " transform="matrix(0.1, 0, 0, -0.1, 0, 93)"/>
<path fill="none" stroke-width="5" stroke-linecap="round" stroke-linejoin="round" stroke="rgb(0%, 0%, 0%)" stroke-opacity="1" stroke-miterlimit="10" d="M 3039.648438 886.757812 L 3070.898438 886.757812 L 3070.898438 855.507812 L 3102.148438 855.507812 L 3102.148438 886.757812 L 3133.398438 886.757812 L 3133.398438 855.507812 L 3102.148438 855.507812 L 3102.148438 824.257812 L 3133.398438 824.257812 L 3133.398438 793.046875 L 3164.609375 793.046875 L 3164.609375 761.796875 L 3195.859375 761.796875 L 3195.859375 793.046875 L 3227.109375 793.046875 L 3227.109375 824.257812 L 3258.359375 824.257812 L 3258.359375 855.507812 L 3227.109375 855.507812 L 3227.109375 886.757812 L 3258.359375 886.757812 L 3258.359375 855.507812 L 3289.609375 855.507812 L 3289.609375 886.757812 L 3320.820312 886.757812 L 3320.820312 855.507812 L 3289.609375 855.507812 L 3289.609375 824.257812 L 3320.820312 824.257812 L 3320.820312 793.046875 L 3289.609375 793.046875 L 3289.609375 824.257812 L 3258.359375 824.257812 L 3258.359375 793.046875 L 3227.109375 793.046875 L 3227.109375 761.796875 L 3195.859375 761.796875 L 3195.859375 730.546875 L 3227.109375 730.546875 L 3227.109375 699.296875 L 3258.359375 699.296875 L 3258.359375 668.085938 L 3289.609375 668.085938 L 3289.609375 699.296875 L 3320.820312 699.296875 L 3320.820312 668.085938 L 3289.609375 668.085938 L 3289.609375 636.835938 L 3320.820312 636.835938 " transform="matrix(0.1, 0, 0, -0.1, 0, 93)"/>
<path fill="none" stroke-width="5" stroke-linecap="round" stroke-linejoin="round" stroke="rgb(0%, 0%, 0%)" stroke-opacity="1" stroke-miterlimit="10" d="M 3320.820312 636.835938 L 3320.820312 605.585938 L 3352.070312 605.585938 L 3352.070312 574.335938 L 3383.320312 574.335938 L 3383.320312 605.585938 L 3414.53125 605.585938 L 3414.53125 574.335938 L 3383.320312 574.335938 L 3383.320312 543.085938 L 3414.53125 543.085938 L 3414.53125 511.875 L 3445.78125 511.875 L 3445.78125 480.625 L 3477.03125 480.625 L 3477.03125 511.875 L 3508.28125 511.875 L 3508.28125 543.085938 L 3539.53125 543.085938 L 3539.53125 574.335938 L 3508.28125 574.335938 L 3508.28125 605.585938 L 3539.53125 605.585938 L 3539.53125 574.335938 L 3570.78125 574.335938 L 3570.78125 605.585938 L 3601.992188 605.585938 L 3601.992188 636.835938 L 3633.242188 636.835938 L 3633.242188 668.085938 L 3601.992188 668.085938 L 3601.992188 699.296875 L 3633.242188 699.296875 L 3633.242188 668.085938 L 3664.492188 668.085938 L 3664.492188 699.296875 L 3695.742188 699.296875 L 3695.742188 730.546875 L 3726.953125 730.546875 L 3726.953125 761.796875 L 3695.742188 761.796875 L 3695.742188 793.046875 L 3664.492188 793.046875 L 3664.492188 824.257812 L 3633.242188 824.257812 L 3633.242188 793.046875 L 3601.992188 793.046875 L 3601.992188 824.257812 L 3633.242188 824.257812 L 3633.242188 855.507812 L 3601.992188 855.507812 " transform="matrix(0.1, 0, 0, -0.1, 0, 93)"/>
<path fill="none" stroke-width="5" stroke-linecap="round" stroke-linejoin="round" stroke="rgb(0%, 0%, 0%)" stroke-opacity="1" stroke-miterlimit="10" d="M 3601.992188 855.507812 L 3601.992188 886.757812 L 3633.242188 886.757812 L 3633.242188 855.507812 L 3664.492188 855.507812 L 3664.492188 886.757812 L 3695.742188 886.757812 L 3695.742188 855.507812 L 3664.492188 855.507812 L 3664.492188 824.257812 L 3695.742188 824.257812 L 3695.742188 793.046875 L 3726.953125 793.046875 L 3726.953125 761.796875 L 3758.203125 761.796875 L 3758.203125 793.046875 L 3789.453125 793.046875 L 3789.453125 824.257812 L 3820.703125 824.257812 L 3820.703125 855.507812 L 3789.453125 855.507812 L 3789.453125 886.757812 L 3820.703125 886.757812 L 3820.703125 855.507812 L 3851.953125 855.507812 L 3851.953125 886.757812 L 3883.164062 886.757812 L 3883.164062 855.507812 L 3851.953125 855.507812 L 3851.953125 824.257812 L 3883.164062 824.257812 L 3883.164062 793.046875 L 3851.953125 793.046875 L 3851.953125 824.257812 L 3820.703125 824.257812 L 3820.703125 793.046875 L 3789.453125 793.046875 L 3789.453125 761.796875 L 3758.203125 761.796875 L 3758.203125 730.546875 L 3789.453125 730.546875 L 3789.453125 699.296875 L 3820.703125 699.296875 L 3820.703125 668.085938 L 3851.953125 668.085938 L 3851.953125 699.296875 L 3883.164062 699.296875 L 3883.164062 668.085938 L 3851.953125 668.085938 L 3851.953125 636.835938 L 3883.164062 636.835938 " transform="matrix(0.1, 0, 0, -0.1, 0, 93)"/>
<path fill="none" stroke-width="5" stroke-linecap="round" stroke-linejoin="round" stroke="rgb(0%, 0%, 0%)" stroke-opacity="1" stroke-miterlimit="10" d="M 3883.164062 636.835938 L 3883.164062 605.585938 L 3851.953125 605.585938 L 3851.953125 636.835938 L 3820.703125 636.835938 L 3820.703125 605.585938 L 3789.453125 605.585938 L 3789.453125 636.835938 L 3820.703125 636.835938 L 3820.703125 668.085938 L 3789.453125 668.085938 L 3789.453125 699.296875 L 3758.203125 699.296875 L 3758.203125 730.546875 L 3726.953125 730.546875 L 3726.953125 699.296875 L 3695.742188 699.296875 L 3695.742188 668.085938 L 3664.492188 668.085938 L 3664.492188 636.835938 L 3695.742188 636.835938 L 3695.742188 605.585938 L 3664.492188 605.585938 L 3664.492188 636.835938 L 3633.242188 636.835938 L 3633.242188 605.585938 L 3601.992188 605.585938 L 3601.992188 574.335938 L 3570.78125 574.335938 L 3570.78125 543.085938 L 3601.992188 543.085938 L 3601.992188 511.875 L 3570.78125 511.875 L 3570.78125 543.085938 L 3539.53125 543.085938 L 3539.53125 511.875 L 3508.28125 511.875 L 3508.28125 480.625 L 3477.03125 480.625 L 3477.03125 449.375 L 3508.28125 449.375 L 3508.28125 418.125 L 3539.53125 418.125 L 3539.53125 386.914062 L 3570.78125 386.914062 L 3570.78125 418.125 L 3601.992188 418.125 L 3601.992188 386.914062 L 3570.78125 386.914062 L 3570.78125 355.664062 L 3601.992188 355.664062 " transform="matrix(0.1, 0, 0, -0.1, 0, 93)"/>
<path fill="none" stroke-width="5" stroke-linecap="round" stroke-linejoin="round" stroke="rgb(0%, 0%, 0%)" stroke-opacity="1" stroke-miterlimit="10" d="M 3601.992188 355.664062 L 3601.992188 324.414062 L 3633.242188 324.414062 L 3633.242188 293.164062 L 3664.492188 293.164062 L 3664.492188 324.414062 L 3695.742188 324.414062 L 3695.742188 293.164062 L 3664.492188 293.164062 L 3664.492188 261.914062 L 3695.742188 261.914062 L 3695.742188 230.703125 L 3726.953125 230.703125 L 3726.953125 199.453125 L 3758.203125 199.453125 L 3758.203125 230.703125 L 3789.453125 230.703125 L 3789.453125 261.914062 L 3820.703125 261.914062 L 3820.703125 293.164062 L 3789.453125 293.164062 L 3789.453125 324.414062 L 3820.703125 324.414062 L 3820.703125 293.164062 L 3851.953125 293.164062 L 3851.953125 324.414062 L 3883.164062 324.414062 L 3883.164062 293.164062 L 3851.953125 293.164062 L 3851.953125 261.914062 L 3883.164062 261.914062 L 3883.164062 230.703125 L 3851.953125 230.703125 L 3851.953125 261.914062 L 3820.703125 261.914062 L 3820.703125 230.703125 L 3789.453125 230.703125 L 3789.453125 199.453125 L 3758.203125 199.453125 L 3758.203125 168.203125 L 3789.453125 168.203125 L 3789.453125 136.953125 L 3820.703125 136.953125 L 3820.703125 105.703125 L 3851.953125 105.703125 L 3851.953125 136.953125 L 3883.164062 136.953125 L 3883.164062 105.703125 L 3851.953125 105.703125 L 3851.953125 74.492188 L 3883.164062 74.492188 " transform="matrix(0.1, 0, 0, -0.1, 0, 93)"/>
<path fill="none" stroke-width="5" stroke-linecap="round" stroke-linejoin="round" stroke="rgb(0%, 0%, 0%)" stroke-opacity="1" stroke-miterlimit="10" d="M 3883.164062 74.492188 L 3883.164062 43.242188 L 3851.953125 43.242188 L 3851.953125 74.492188 L 3820.703125 74.492188 L 3820.703125 43.242188 L 3789.453125 43.242188 L 3789.453125 74.492188 L 3820.703125 74.492188 L 3820.703125 105.703125 L 3789.453125 105.703125 L 3789.453125 136.953125 L 3758.203125 136.953125 L 3758.203125 168.203125 L 3726.953125 168.203125 L 3726.953125 136.953125 L 3695.742188 136.953125 L 3695.742188 105.703125 L 3664.492188 105.703125 L 3664.492188 74.492188 L 3695.742188 74.492188 L 3695.742188 43.242188 L 3664.492188 43.242188 L 3664.492188 74.492188 L 3633.242188 74.492188 L 3633.242188 43.242188 L 3601.992188 43.242188 L 3601.992188 74.492188 L 3633.242188 74.492188 L 3633.242188 105.703125 L 3601.992188 105.703125 L 3601.992188 136.953125 L 3633.242188 136.953125 L 3633.242188 105.703125 L 3664.492188 105.703125 L 3664.492188 136.953125 L 3695.742188 136.953125 L 3695.742188 168.203125 L 3726.953125 168.203125 L 3726.953125 199.453125 L 3695.742188 199.453125 L 3695.742188 230.703125 L 3664.492188 230.703125 L 3664.492188 261.914062 L 3633.242188 261.914062 L 3633.242188 230.703125 L 3601.992188 230.703125 L 3601.992188 261.914062 L 3633.242188 261.914062 L 3633.242188 293.164062 L 3601.992188 293.164062 " transform="matrix(0.1, 0, 0, -0.1, 0, 93)"/>
<path fill="none" stroke-width="5" stroke-linecap="round" stroke-linejoin="round" stroke="rgb(0%, 0%, 0%)" stroke-opacity="1" stroke-miterlimit="10" d="M 3601.992188 293.164062 L 3601.992188 324.414062 L 3570.78125 324.414062 L 3570.78125 355.664062 L 3539.53125 355.664062 L 3539.53125 324.414062 L 3508.28125 324.414062 L 3508.28125 355.664062 L 3539.53125 355.664062 L 3539.53125 386.914062 L 3508.28125 386.914062 L 3508.28125 418.125 L 3477.03125 418.125 L 3477.03125 449.375 L 3445.78125 449.375 L 3445.78125 418.125 L 3414.53125 418.125 L 3414.53125 386.914062 L 3383.320312 386.914062 L 3383.320312 355.664062 L 3414.53125 355.664062 L 3414.53125 324.414062 L 3383.320312 324.414062 L 3383.320312 355.664062 L 3352.070312 355.664062 L 3352.070312 324.414062 L 3320.820312 324.414062 L 3320.820312 293.164062 L 3289.609375 293.164062 L 3289.609375 261.914062 L 3320.820312 261.914062 L 3320.820312 230.703125 L 3289.609375 230.703125 L 3289.609375 261.914062 L 3258.359375 261.914062 L 3258.359375 230.703125 L 3227.109375 230.703125 L 3227.109375 199.453125 L 3195.859375 199.453125 L 3195.859375 168.203125 L 3227.109375 168.203125 L 3227.109375 136.953125 L 3258.359375 136.953125 L 3258.359375 105.703125 L 3289.609375 105.703125 L 3289.609375 136.953125 L 3320.820312 136.953125 L 3320.820312 105.703125 L 3289.609375 105.703125 L 3289.609375 74.492188 L 3320.820312 74.492188 " transform="matrix(0.1, 0, 0, -0.1, 0, 93)"/>
<path fill="none" stroke-width="5" stroke-linecap="round" stroke-linejoin="round" stroke="rgb(0%, 0%, 0%)" stroke-opacity="1" stroke-miterlimit="10" d="M 3320.820312 74.492188 L 3320.820312 43.242188 L 3289.609375 43.242188 L 3289.609375 74.492188 L 3258.359375 74.492188 L 3258.359375 43.242188 L 3227.109375 43.242188 L 3227.109375 74.492188 L 3258.359375 74.492188 L 3258.359375 105.703125 L 3227.109375 105.703125 L 3227.109375 136.953125 L 3195.859375 136.953125 L 3195.859375 168.203125 L 3164.609375 168.203125 L 3164.609375 136.953125 L 3133.398438 136.953125 L 3133.398438 105.703125 L 3102.148438 105.703125 L 3102.148438 74.492188 L 3133.398438 74.492188 L 3133.398438 43.242188 L 3102.148438 43.242188 L 3102.148438 74.492188 L 3070.898438 74.492188 L 3070.898438 43.242188 L 3039.648438 43.242188 L 3039.648438 74.492188 L 3070.898438 74.492188 L 3070.898438 105.703125 L 3039.648438 105.703125 L 3039.648438 136.953125 L 3070.898438 136.953125 L 3070.898438 105.703125 L 3102.148438 105.703125 L 3102.148438 136.953125 L 3133.398438 136.953125 L 3133.398438 168.203125 L 3164.609375 168.203125 L 3164.609375 199.453125 L 3133.398438 199.453125 L 3133.398438 230.703125 L 3102.148438 230.703125 L 3102.148438 261.914062 L 3070.898438 261.914062 L 3070.898438 230.703125 L 3039.648438 230.703125 L 3039.648438 261.914062 L 3070.898438 261.914062 L 3070.898438 293.164062 L 3039.648438 293.164062 " transform="matrix(0.1, 0, 0, -0.1, 0, 93)"/>
<path fill="none" stroke-width="5" stroke-linecap="round" stroke-linejoin="round" stroke="rgb(0%, 0%, 0%)" stroke-opacity="1" stroke-miterlimit="10" d="M 3039.648438 293.164062 L 3039.648438 324.414062 L 3070.898438 324.414062 L 3070.898438 293.164062 L 3102.148438 293.164062 L 3102.148438 324.414062 L 3133.398438 324.414062 L 3133.398438 293.164062 L 3102.148438 293.164062 L 3102.148438 261.914062 L 3133.398438 261.914062 L 3133.398438 230.703125 L 3164.609375 230.703125 L 3164.609375 199.453125 L 3195.859375 199.453125 L 3195.859375 230.703125 L 3227.109375 230.703125 L 3227.109375 261.914062 L 3258.359375 261.914062 L 3258.359375 293.164062 L 3227.109375 293.164062 L 3227.109375 324.414062 L 3258.359375 324.414062 L 3258.359375 293.164062 L 3289.609375 293.164062 L 3289.609375 324.414062 L 3320.820312 324.414062 L 3320.820312 355.664062 L 3352.070312 355.664062 L 3352.070312 386.914062 L 3320.820312 386.914062 L 3320.820312 418.125 L 3352.070312 418.125 L 3352.070312 386.914062 L 3383.320312 386.914062 L 3383.320312 418.125 L 3414.53125 418.125 L 3414.53125 449.375 L 3445.78125 449.375 L 3445.78125 480.625 L 3414.53125 480.625 L 3414.53125 511.875 L 3383.320312 511.875 L 3383.320312 543.085938 L 3352.070312 543.085938 L 3352.070312 511.875 L 3320.820312 511.875 L 3320.820312 543.085938 L 3352.070312 543.085938 L 3352.070312 574.335938 L 3320.820312 574.335938 " transform="matrix(0.1, 0, 0, -0.1, 0, 93)"/>
<path fill="none" stroke-width="5" stroke-linecap="round" stroke-linejoin="round" stroke="rgb(0%, 0%, 0%)" stroke-opacity="1" stroke-miterlimit="10" d="M 3320.820312 574.335938 L 3320.820312 605.585938 L 3289.609375 605.585938 L 3289.609375 636.835938 L 3258.359375 636.835938 L 3258.359375 605.585938 L 3227.109375 605.585938 L 3227.109375 636.835938 L 3258.359375 636.835938 L 3258.359375 668.085938 L 3227.109375 668.085938 L 3227.109375 699.296875 L 3195.859375 699.296875 L 3195.859375 730.546875 L 3164.609375 730.546875 L 3164.609375 699.296875 L 3133.398438 699.296875 L 3133.398438 668.085938 L 3102.148438 668.085938 L 3102.148438 636.835938 L 3133.398438 636.835938 L 3133.398438 605.585938 L 3102.148438 605.585938 L 3102.148438 636.835938 L 3070.898438 636.835938 L 3070.898438 605.585938 L 3039.648438 605.585938 L 3039.648438 636.835938 L 3070.898438 636.835938 L 3070.898438 668.085938 L 3039.648438 668.085938 L 3039.648438 699.296875 L 3070.898438 699.296875 L 3070.898438 668.085938 L 3102.148438 668.085938 L 3102.148438 699.296875 L 3133.398438 699.296875 L 3133.398438 730.546875 L 3164.609375 730.546875 L 3164.609375 761.796875 L 3133.398438 761.796875 L 3133.398438 793.046875 L 3102.148438 793.046875 L 3102.148438 824.257812 L 3070.898438 824.257812 L 3070.898438 793.046875 L 3039.648438 793.046875 L 3039.648438 824.257812 L 3070.898438 824.257812 L 3070.898438 855.507812 L 3039.648438 855.507812 " transform="matrix(0.1, 0, 0, -0.1, 0, 93)"/>
<path fill="none" stroke-width="5" stroke-linecap="round" stroke-linejoin="round" stroke="rgb(0%, 0%, 0%)" stroke-opacity="1" stroke-miterlimit="10" d="M 3039.648438 855.507812 L 3039.648438 886.757812 " transform="matrix(0.1, 0, 0, -0.1, 0, 93)"/>
</svg>
