<?xml version="1.0" encoding="UTF-8"?>
<svg xmlns="http://www.w3.org/2000/svg" xmlns:xlink="http://www.w3.org/1999/xlink" width="320.25" height="236.37" viewBox="0 0 320.25 236.37">
<path fill="none" stroke-width="5" stroke-linecap="round" stroke-linejoin="round" stroke="rgb(0%, 0%, 0%)" stroke-opacity="1" stroke-miterlimit="10" d="M 164.412778 1449.277068 L 76.248731 1936.862243 " transform="matrix(0.0997342, 0, 0, -0.0997342, 0.0516456, 235.741675)"/>
<path fill="none" stroke-width="5" stroke-linecap="round" stroke-linejoin="round" stroke="rgb(0%, 0%, 0%)" stroke-opacity="1" stroke-miterlimit="10" d="M 164.412778 1449.277068 L 616.865501 1247.76484 " transform="matrix(0.0997342, 0, 0, -0.0997342, 0.0516456, 235.741675)"/>
<path fill="none" stroke-width="5" stroke-linecap="round" stroke-linejoin="round" stroke="rgb(0%, 0%, 0%)" stroke-opacity="1" stroke-miterlimit="10" d="M 216.191042 956.561067 L 164.412778 1449.277068 " transform="matrix(0.0997342, 0, 0, -0.0997342, 0.0516456, 235.741675)"/>
<path fill="none" stroke-width="5" stroke-linecap="round" stroke-linejoin="round" stroke="rgb(0%, 0%, 0%)" stroke-opacity="1" stroke-miterlimit="10" d="M 369.175835 485.347536 L 616.865501 56.316449 " transform="matrix(0.0997342, 0, 0, -0.0997342, 0.0516456, 235.741675)"/>
<path fill="none" stroke-width="5" stroke-linecap="round" stroke-linejoin="round" stroke="rgb(0%, 0%, 0%)" stroke-opacity="1" stroke-miterlimit="10" d="M 528.701453 1735.310848 L 76.248731 1936.862243 " transform="matrix(0.0997342, 0, 0, -0.0997342, 0.0516456, 235.741675)"/>
<path fill="none" stroke-width="5" stroke-linecap="round" stroke-linejoin="round" stroke="rgb(0%, 0%, 0%)" stroke-opacity="1" stroke-miterlimit="10" d="M 528.701453 1735.310848 L 1017.500793 1814.701575 " transform="matrix(0.0997342, 0, 0, -0.0997342, 0.0516456, 235.741675)"/>
<path fill="none" stroke-width="5" stroke-linecap="round" stroke-linejoin="round" stroke="rgb(0%, 0%, 0%)" stroke-opacity="1" stroke-miterlimit="10" d="M 565.048071 2016.213803 L 76.248731 1936.862243 " transform="matrix(0.0997342, 0, 0, -0.0997342, 0.0516456, 235.741675)"/>
<path fill="none" stroke-width="5" stroke-linecap="round" stroke-linejoin="round" stroke="rgb(0%, 0%, 0%)" stroke-opacity="1" stroke-miterlimit="10" d="M 565.048071 2016.213803 L 965.72253 2307.417576 " transform="matrix(0.0997342, 0, 0, -0.0997342, 0.0516456, 235.741675)"/>
<path fill="none" stroke-width="5" stroke-linecap="round" stroke-linejoin="round" stroke="rgb(0%, 0%, 0%)" stroke-opacity="1" stroke-miterlimit="10" d="M 565.048071 2016.213803 L 1017.500793 1814.701575 " transform="matrix(0.0997342, 0, 0, -0.0997342, 0.0516456, 235.741675)"/>
<path fill="none" stroke-width="5" stroke-linecap="round" stroke-linejoin="round" stroke="rgb(0%, 0%, 0%)" stroke-opacity="1" stroke-miterlimit="10" d="M 616.865501 56.316449 L 864.3985 485.347536 " transform="matrix(0.0997342, 0, 0, -0.0997342, 0.0516456, 235.741675)"/>
<path fill="none" stroke-width="5" stroke-linecap="round" stroke-linejoin="round" stroke="rgb(0%, 0%, 0%)" stroke-opacity="1" stroke-miterlimit="10" d="M 616.865501 1247.76484 L 528.701453 1735.310848 " transform="matrix(0.0997342, 0, 0, -0.0997342, 0.0516456, 235.741675)"/>
<path fill="none" stroke-width="5" stroke-linecap="round" stroke-linejoin="round" stroke="rgb(0%, 0%, 0%)" stroke-opacity="1" stroke-miterlimit="10" d="M 864.3985 485.347536 L 1112.048999 56.316449 " transform="matrix(0.0997342, 0, 0, -0.0997342, 0.0516456, 235.741675)"/>
<path fill="none" stroke-width="5" stroke-linecap="round" stroke-linejoin="round" stroke="rgb(0%, 0%, 0%)" stroke-opacity="1" stroke-miterlimit="10" d="M 1017.500793 956.561067 L 769.850294 1385.592154 " transform="matrix(0.0997342, 0, 0, -0.0997342, 0.0516456, 235.741675)"/>
<path fill="none" stroke-width="5" stroke-linecap="round" stroke-linejoin="round" stroke="rgb(0%, 0%, 0%)" stroke-opacity="1" stroke-miterlimit="10" d="M 1017.500793 956.561067 L 1265.033792 1385.592154 " transform="matrix(0.0997342, 0, 0, -0.0997342, 0.0516456, 235.741675)"/>
<path fill="none" stroke-width="5" stroke-linecap="round" stroke-linejoin="round" stroke="rgb(0%, 0%, 0%)" stroke-opacity="1" stroke-miterlimit="10" d="M 1017.500793 956.561067 L 1512.605958 956.561067 " transform="matrix(0.0997342, 0, 0, -0.0997342, 0.0516456, 235.741675)"/>
<path fill="none" stroke-width="5" stroke-linecap="round" stroke-linejoin="round" stroke="rgb(0%, 0%, 0%)" stroke-opacity="1" stroke-miterlimit="10" d="M 1017.500793 1814.701575 L 769.850294 1385.592154 " transform="matrix(0.0997342, 0, 0, -0.0997342, 0.0516456, 235.741675)"/>
<path fill="none" stroke-width="5" stroke-linecap="round" stroke-linejoin="round" stroke="rgb(0%, 0%, 0%)" stroke-opacity="1" stroke-miterlimit="10" d="M 1017.500793 1814.701575 L 965.72253 2307.417576 " transform="matrix(0.0997342, 0, 0, -0.0997342, 0.0516456, 235.741675)"/>
<path fill="none" stroke-width="5" stroke-linecap="round" stroke-linejoin="round" stroke="rgb(0%, 0%, 0%)" stroke-opacity="1" stroke-miterlimit="10" d="M 1017.500793 1814.701575 L 1265.033792 1385.592154 " transform="matrix(0.0997342, 0, 0, -0.0997342, 0.0516456, 235.741675)"/>
<path fill="none" stroke-width="5" stroke-linecap="round" stroke-linejoin="round" stroke="rgb(0%, 0%, 0%)" stroke-opacity="1" stroke-miterlimit="10" d="M 1017.500793 1814.701575 L 1512.605958 1814.701575 " transform="matrix(0.0997342, 0, 0, -0.0997342, 0.0516456, 235.741675)"/>
<path fill="none" stroke-width="5" stroke-linecap="round" stroke-linejoin="round" stroke="rgb(0%, 0%, 0%)" stroke-opacity="1" stroke-miterlimit="10" d="M 1112.048999 56.316449 L 616.865501 56.316449 " transform="matrix(0.0997342, 0, 0, -0.0997342, 0.0516456, 235.741675)"/>
<path fill="none" stroke-width="5" stroke-linecap="round" stroke-linejoin="round" stroke="rgb(0%, 0%, 0%)" stroke-opacity="1" stroke-miterlimit="10" d="M 1112.048999 56.316449 L 1359.581998 485.347536 " transform="matrix(0.0997342, 0, 0, -0.0997342, 0.0516456, 235.741675)"/>
<path fill="none" stroke-width="5" stroke-linecap="round" stroke-linejoin="round" stroke="rgb(0%, 0%, 0%)" stroke-opacity="1" stroke-miterlimit="10" d="M 1265.033792 1385.592154 L 769.850294 1385.592154 " transform="matrix(0.0997342, 0, 0, -0.0997342, 0.0516456, 235.741675)"/>
<path fill="none" stroke-width="5" stroke-linecap="round" stroke-linejoin="round" stroke="rgb(0%, 0%, 0%)" stroke-opacity="1" stroke-miterlimit="10" d="M 1265.033792 1385.592154 L 1512.605958 956.561067 " transform="matrix(0.0997342, 0, 0, -0.0997342, 0.0516456, 235.741675)"/>
<path fill="none" stroke-width="5" stroke-linecap="round" stroke-linejoin="round" stroke="rgb(0%, 0%, 0%)" stroke-opacity="1" stroke-miterlimit="10" d="M 1265.033792 1385.592154 L 1512.605958 1814.701575 " transform="matrix(0.0997342, 0, 0, -0.0997342, 0.0516456, 235.741675)"/>
<path fill="none" stroke-width="5" stroke-linecap="round" stroke-linejoin="round" stroke="rgb(0%, 0%, 0%)" stroke-opacity="1" stroke-miterlimit="10" d="M 1359.581998 485.347536 L 864.3985 485.347536 " transform="matrix(0.0997342, 0, 0, -0.0997342, 0.0516456, 235.741675)"/>
<path fill="none" stroke-width="5" stroke-linecap="round" stroke-linejoin="round" stroke="rgb(0%, 0%, 0%)" stroke-opacity="1" stroke-miterlimit="10" d="M 1359.581998 485.347536 L 1512.605958 956.561067 " transform="matrix(0.0997342, 0, 0, -0.0997342, 0.0516456, 235.741675)"/>
<path fill="none" stroke-width="5" stroke-linecap="round" stroke-linejoin="round" stroke="rgb(0%, 0%, 0%)" stroke-opacity="1" stroke-miterlimit="10" d="M 1359.581998 485.347536 L 1690.892384 117.1422 " transform="matrix(0.0997342, 0, 0, -0.0997342, 0.0516456, 235.741675)"/>
<path fill="none" stroke-width="5" stroke-linecap="round" stroke-linejoin="round" stroke="rgb(0%, 0%, 0%)" stroke-opacity="1" stroke-miterlimit="10" d="M 1460.906028 2307.417576 L 965.72253 2307.417576 " transform="matrix(0.0997342, 0, 0, -0.0997342, 0.0516456, 235.741675)"/>
<path fill="none" stroke-width="5" stroke-linecap="round" stroke-linejoin="round" stroke="rgb(0%, 0%, 0%)" stroke-opacity="1" stroke-miterlimit="10" d="M 1460.906028 2307.417576 L 1512.605958 1814.701575 " transform="matrix(0.0997342, 0, 0, -0.0997342, 0.0516456, 235.741675)"/>
<path fill="none" stroke-width="5" stroke-linecap="round" stroke-linejoin="round" stroke="rgb(0%, 0%, 0%)" stroke-opacity="1" stroke-miterlimit="10" d="M 1512.605958 956.561067 L 1844.033844 588.434064 " transform="matrix(0.0997342, 0, 0, -0.0997342, 0.0516456, 235.741675)"/>
<path fill="none" stroke-width="5" stroke-linecap="round" stroke-linejoin="round" stroke="rgb(0%, 0%, 0%)" stroke-opacity="1" stroke-miterlimit="10" d="M 1564.384222 1322.02474 L 1512.605958 1814.701575 " transform="matrix(0.0997342, 0, 0, -0.0997342, 0.0516456, 235.741675)"/>
<path fill="none" stroke-width="5" stroke-linecap="round" stroke-linejoin="round" stroke="rgb(0%, 0%, 0%)" stroke-opacity="1" stroke-miterlimit="10" d="M 1564.384222 1322.02474 L 1946.337039 1006.615999 " transform="matrix(0.0997342, 0, 0, -0.0997342, 0.0516456, 235.741675)"/>
<path fill="none" stroke-width="5" stroke-linecap="round" stroke-linejoin="round" stroke="rgb(0%, 0%, 0%)" stroke-opacity="1" stroke-miterlimit="10" d="M 1564.384222 1322.02474 L 1965.019514 1613.189347 " transform="matrix(0.0997342, 0, 0, -0.0997342, 0.0516456, 235.741675)"/>
<path fill="none" stroke-width="5" stroke-linecap="round" stroke-linejoin="round" stroke="rgb(0%, 0%, 0%)" stroke-opacity="1" stroke-miterlimit="10" d="M 1564.384222 1322.02474 L 2028.234429 1495.297839 " transform="matrix(0.0997342, 0, 0, -0.0997342, 0.0516456, 235.741675)"/>
<path fill="none" stroke-width="5" stroke-linecap="round" stroke-linejoin="round" stroke="rgb(0%, 0%, 0%)" stroke-opacity="1" stroke-miterlimit="10" d="M 1690.892384 117.1422 L 1844.033844 588.434064 " transform="matrix(0.0997342, 0, 0, -0.0997342, 0.0516456, 235.741675)"/>
<path fill="none" stroke-width="5" stroke-linecap="round" stroke-linejoin="round" stroke="rgb(0%, 0%, 0%)" stroke-opacity="1" stroke-miterlimit="10" d="M 1844.033844 588.434064 L 1359.581998 485.347536 " transform="matrix(0.0997342, 0, 0, -0.0997342, 0.0516456, 235.741675)"/>
<path fill="none" stroke-width="5" stroke-linecap="round" stroke-linejoin="round" stroke="rgb(0%, 0%, 0%)" stroke-opacity="1" stroke-miterlimit="10" d="M 1844.033844 588.434064 L 2175.305063 220.228727 " transform="matrix(0.0997342, 0, 0, -0.0997342, 0.0516456, 235.741675)"/>
<path fill="none" stroke-width="5" stroke-linecap="round" stroke-linejoin="round" stroke="rgb(0%, 0%, 0%)" stroke-opacity="1" stroke-miterlimit="10" d="M 1913.24125 2105.905348 L 1460.906028 2307.417576 " transform="matrix(0.0997342, 0, 0, -0.0997342, 0.0516456, 235.741675)"/>
<path fill="none" stroke-width="5" stroke-linecap="round" stroke-linejoin="round" stroke="rgb(0%, 0%, 0%)" stroke-opacity="1" stroke-miterlimit="10" d="M 1913.24125 2105.905348 L 1512.605958 1814.701575 " transform="matrix(0.0997342, 0, 0, -0.0997342, 0.0516456, 235.741675)"/>
<path fill="none" stroke-width="5" stroke-linecap="round" stroke-linejoin="round" stroke="rgb(0%, 0%, 0%)" stroke-opacity="1" stroke-miterlimit="10" d="M 1913.24125 2105.905348 L 1965.019514 1613.189347 " transform="matrix(0.0997342, 0, 0, -0.0997342, 0.0516456, 235.741675)"/>
<path fill="none" stroke-width="5" stroke-linecap="round" stroke-linejoin="round" stroke="rgb(0%, 0%, 0%)" stroke-opacity="1" stroke-miterlimit="10" d="M 1946.337039 1006.615999 L 2328.329023 691.363925 " transform="matrix(0.0997342, 0, 0, -0.0997342, 0.0516456, 235.741675)"/>
<path fill="none" stroke-width="5" stroke-linecap="round" stroke-linejoin="round" stroke="rgb(0%, 0%, 0%)" stroke-opacity="1" stroke-miterlimit="10" d="M 1965.019514 1613.189347 L 1512.605958 1814.701575 " transform="matrix(0.0997342, 0, 0, -0.0997342, 0.0516456, 235.741675)"/>
<path fill="none" stroke-width="5" stroke-linecap="round" stroke-linejoin="round" stroke="rgb(0%, 0%, 0%)" stroke-opacity="1" stroke-miterlimit="10" d="M 1965.019514 1613.189347 L 2273.143265 2001.056323 " transform="matrix(0.0997342, 0, 0, -0.0997342, 0.0516456, 235.741675)"/>
<path fill="none" stroke-width="5" stroke-linecap="round" stroke-linejoin="round" stroke="rgb(0%, 0%, 0%)" stroke-opacity="1" stroke-miterlimit="10" d="M 2028.234429 1495.297839 L 1946.337039 1006.615999 " transform="matrix(0.0997342, 0, 0, -0.0997342, 0.0516456, 235.741675)"/>
<path fill="none" stroke-width="5" stroke-linecap="round" stroke-linejoin="round" stroke="rgb(0%, 0%, 0%)" stroke-opacity="1" stroke-miterlimit="10" d="M 2175.305063 220.228727 L 1690.892384 117.1422 " transform="matrix(0.0997342, 0, 0, -0.0997342, 0.0516456, 235.741675)"/>
<path fill="none" stroke-width="5" stroke-linecap="round" stroke-linejoin="round" stroke="rgb(0%, 0%, 0%)" stroke-opacity="1" stroke-miterlimit="10" d="M 2175.305063 220.228727 L 2328.329023 691.363925 " transform="matrix(0.0997342, 0, 0, -0.0997342, 0.0516456, 235.741675)"/>
<path fill="none" stroke-width="5" stroke-linecap="round" stroke-linejoin="round" stroke="rgb(0%, 0%, 0%)" stroke-opacity="1" stroke-miterlimit="10" d="M 2273.143265 2001.056323 L 2454.719686 1540.065279 " transform="matrix(0.0997342, 0, 0, -0.0997342, 0.0516456, 235.741675)"/>
<path fill="none" stroke-width="5" stroke-linecap="round" stroke-linejoin="round" stroke="rgb(0%, 0%, 0%)" stroke-opacity="1" stroke-miterlimit="10" d="M 2328.329023 691.363925 L 1844.033844 588.434064 " transform="matrix(0.0997342, 0, 0, -0.0997342, 0.0516456, 235.741675)"/>
<path fill="none" stroke-width="5" stroke-linecap="round" stroke-linejoin="round" stroke="rgb(0%, 0%, 0%)" stroke-opacity="1" stroke-miterlimit="10" d="M 2328.329023 691.363925 L 2636.413607 1079.230901 " transform="matrix(0.0997342, 0, 0, -0.0997342, 0.0516456, 235.741675)"/>
<path fill="none" stroke-width="5" stroke-linecap="round" stroke-linejoin="round" stroke="rgb(0%, 0%, 0%)" stroke-opacity="1" stroke-miterlimit="10" d="M 2410.187246 1179.928265 L 1946.337039 1006.615999 " transform="matrix(0.0997342, 0, 0, -0.0997342, 0.0516456, 235.741675)"/>
<path fill="none" stroke-width="5" stroke-linecap="round" stroke-linejoin="round" stroke="rgb(0%, 0%, 0%)" stroke-opacity="1" stroke-miterlimit="10" d="M 2410.187246 1179.928265 L 2028.234429 1495.297839 " transform="matrix(0.0997342, 0, 0, -0.0997342, 0.0516456, 235.741675)"/>
<path fill="none" stroke-width="5" stroke-linecap="round" stroke-linejoin="round" stroke="rgb(0%, 0%, 0%)" stroke-opacity="1" stroke-miterlimit="10" d="M 2410.187246 1179.928265 L 2328.329023 691.363925 " transform="matrix(0.0997342, 0, 0, -0.0997342, 0.0516456, 235.741675)"/>
<path fill="none" stroke-width="5" stroke-linecap="round" stroke-linejoin="round" stroke="rgb(0%, 0%, 0%)" stroke-opacity="1" stroke-miterlimit="10" d="M 2454.719686 1540.065279 L 1965.019514 1613.189347 " transform="matrix(0.0997342, 0, 0, -0.0997342, 0.0516456, 235.741675)"/>
<path fill="none" stroke-width="5" stroke-linecap="round" stroke-linejoin="round" stroke="rgb(0%, 0%, 0%)" stroke-opacity="1" stroke-miterlimit="10" d="M 2454.719686 1540.065279 L 2636.413607 1079.230901 " transform="matrix(0.0997342, 0, 0, -0.0997342, 0.0516456, 235.741675)"/>
<path fill="none" stroke-width="5" stroke-linecap="round" stroke-linejoin="round" stroke="rgb(0%, 0%, 0%)" stroke-opacity="1" stroke-miterlimit="10" d="M 2454.719686 1540.065279 L 2762.80427 1927.971422 " transform="matrix(0.0997342, 0, 0, -0.0997342, 0.0516456, 235.741675)"/>
<path fill="none" stroke-width="5" stroke-linecap="round" stroke-linejoin="round" stroke="rgb(0%, 0%, 0%)" stroke-opacity="1" stroke-miterlimit="10" d="M 2636.413607 1079.230901 L 2818.146695 618.396523 " transform="matrix(0.0997342, 0, 0, -0.0997342, 0.0516456, 235.741675)"/>
<path fill="none" stroke-width="5" stroke-linecap="round" stroke-linejoin="round" stroke="rgb(0%, 0%, 0%)" stroke-opacity="1" stroke-miterlimit="10" d="M 2636.413607 1079.230901 L 2944.537358 1467.097877 " transform="matrix(0.0997342, 0, 0, -0.0997342, 0.0516456, 235.741675)"/>
<path fill="none" stroke-width="5" stroke-linecap="round" stroke-linejoin="round" stroke="rgb(0%, 0%, 0%)" stroke-opacity="1" stroke-miterlimit="10" d="M 2762.80427 1927.971422 L 2273.143265 2001.056323 " transform="matrix(0.0997342, 0, 0, -0.0997342, 0.0516456, 235.741675)"/>
<path fill="none" stroke-width="5" stroke-linecap="round" stroke-linejoin="round" stroke="rgb(0%, 0%, 0%)" stroke-opacity="1" stroke-miterlimit="10" d="M 2762.80427 1927.971422 L 2944.537358 1467.097877 " transform="matrix(0.0997342, 0, 0, -0.0997342, 0.0516456, 235.741675)"/>
<path fill="none" stroke-width="5" stroke-linecap="round" stroke-linejoin="round" stroke="rgb(0%, 0%, 0%)" stroke-opacity="1" stroke-miterlimit="10" d="M 2818.146695 618.396523 L 2328.329023 691.363925 " transform="matrix(0.0997342, 0, 0, -0.0997342, 0.0516456, 235.741675)"/>
<path fill="none" stroke-width="5" stroke-linecap="round" stroke-linejoin="round" stroke="rgb(0%, 0%, 0%)" stroke-opacity="1" stroke-miterlimit="10" d="M 2818.146695 618.396523 L 3126.231279 1006.263499 " transform="matrix(0.0997342, 0, 0, -0.0997342, 0.0516456, 235.741675)"/>
<path fill="none" stroke-width="5" stroke-linecap="round" stroke-linejoin="round" stroke="rgb(0%, 0%, 0%)" stroke-opacity="1" stroke-miterlimit="10" d="M 2944.537358 1467.097877 L 2454.719686 1540.065279 " transform="matrix(0.0997342, 0, 0, -0.0997342, 0.0516456, 235.741675)"/>
<path fill="none" stroke-width="5" stroke-linecap="round" stroke-linejoin="round" stroke="rgb(0%, 0%, 0%)" stroke-opacity="1" stroke-miterlimit="10" d="M 2944.537358 1467.097877 L 3126.231279 1006.263499 " transform="matrix(0.0997342, 0, 0, -0.0997342, 0.0516456, 235.741675)"/>
<path fill="none" stroke-width="5" stroke-linecap="round" stroke-linejoin="round" stroke="rgb(0%, 0%, 0%)" stroke-opacity="1" stroke-miterlimit="10" d="M 3126.231279 1006.263499 L 2636.413607 1079.230901 " transform="matrix(0.0997342, 0, 0, -0.0997342, 0.0516456, 235.741675)"/>
<path fill="none" stroke-width="30" stroke-linecap="round" stroke-linejoin="round" stroke="rgb(100%, 0%, 0%)" stroke-opacity="1" stroke-miterlimit="10" d="M 864.3985 485.347536 L 369.175835 485.347536 L 216.191042 956.561067 L 616.865501 1247.76484 L 1017.500793 956.561067 L 864.3985 485.347536 " transform="matrix(0.0997342, 0, 0, -0.0997342, 0.0516456, 235.741675)"/>
</svg>
