<?xml version="1.0" encoding="UTF-8"?>
<svg xmlns="http://www.w3.org/2000/svg" xmlns:xlink="http://www.w3.org/1999/xlink" width="166.44" height="193.25" viewBox="0 0 166.44 193.25">
<defs>
<clipPath id="clip-0">
<path clip-rule="nonzero" d="M 0.0429688 96 L 165.839844 96 L 165.839844 97 L 0.0429688 97 Z M 0.0429688 96 "/>
</clipPath>
<clipPath id="clip-1">
<path clip-rule="nonzero" d="M 53 0 L 54 0 L 54 192.503906 L 53 192.503906 Z M 53 0 "/>
</clipPath>
<clipPath id="clip-2">
<path clip-rule="nonzero" d="M 17 90 L 51 90 L 51 192.503906 L 17 192.503906 Z M 17 90 "/>
</clipPath>
</defs>
<g clip-path="url(#clip-0)">
<path fill="none" stroke-width="2.5" stroke-linecap="round" stroke-linejoin="round" stroke="rgb(0%, 0%, 0%)" stroke-opacity="1" stroke-miterlimit="10" d="M 0.119243 966.264554 L 1664.248043 966.264554 " transform="matrix(0.0996134, 0, 0, -0.0996134, 0.0428093, 192.502899)"/>
</g>
<g clip-path="url(#clip-1)">
<path fill="none" stroke-width="2.5" stroke-linecap="round" stroke-linejoin="round" stroke="rgb(0%, 0%, 0%)" stroke-opacity="1" stroke-miterlimit="10" d="M 536.921071 -0.0101067 L 536.921071 1932.5 " transform="matrix(0.0996134, 0, 0, -0.0996134, 0.0428093, 192.502899)"/>
</g>
<g clip-path="url(#clip-2)">
<path fill="none" stroke-width="5" stroke-linecap="round" stroke-linejoin="round" stroke="rgb(100%, 0%, 0%)" stroke-opacity="1" stroke-miterlimit="10" d="M 501.000954 -0.0101067 L 499.667675 26.106484 L 491.550356 146.180061 L 483.550679 239.117481 L 466.72783 384.17044 L 456.414521 451.657908 L 446.375712 507.106646 L 426.494162 595.848157 L 403.828412 674.19793 L 379.084314 741.057972 L 355.359783 792.506873 L 332.458748 833.367966 L 307.793079 869.797865 L 265.324208 917.639069 L 246.501439 933.756064 L 228.34531 946.539861 L 213.443952 955.049321 L 199.993516 961.049078 L 194.817254 962.892141 L 190.072348 964.303849 L 186.347008 965.205773 L 183.602021 965.715556 L 181.288389 966.068483 L 180.386465 966.186125 L 179.719825 966.22534 L 179.0924 966.22534 L 179.0924 966.264554 L 179.641397 966.264554 L 180.15118 966.303768 L 180.974677 966.382196 L 181.915815 966.499838 L 184.229447 966.891979 L 187.013648 967.440977 L 195.483894 969.833037 L 205.757988 973.832875 L 218.541785 980.146345 L 235.050922 990.381226 L 254.305045 1005.086514 L 273.598383 1022.889715 " transform="matrix(0.0996134, 0, 0, -0.0996134, 0.0428093, 192.502899)"/>
</g>
<path fill="none" stroke-width="5" stroke-linecap="round" stroke-linejoin="round" stroke="rgb(100%, 0%, 0%)" stroke-opacity="1" stroke-miterlimit="10" d="M 273.598383 1022.889715 L 316.380967 1074.5739 L 338.536934 1109.199951 L 362.967319 1155.315734 L 385.711497 1207.784201 L 410.298739 1278.644082 L 432.572348 1361.34662 L 452.336255 1457.303525 L 461.94371 1515.693321 L 471.629592 1585.533635 L 487.628946 1737.919631 L 495.118839 1834.856889 " transform="matrix(0.0996134, 0, 0, -0.0996134, 0.0428093, 192.502899)"/>
<path fill="none" stroke-width="5" stroke-linecap="round" stroke-linejoin="round" stroke="rgb(100%, 0%, 0%)" stroke-opacity="1" stroke-miterlimit="10" d="M 495.118839 1834.856889 L 501.000954 1932.5 " transform="matrix(0.0996134, 0, 0, -0.0996134, 0.0428093, 192.502899)"/>
<path fill="none" stroke-width="5" stroke-linecap="round" stroke-linejoin="round" stroke="rgb(0%, 0%, 0%)" stroke-opacity="1" stroke-miterlimit="10" d="M 536.921071 966.264554 L 536.881856 966.22534 L 536.372073 966.22534 L 535.940718 966.186125 L 535.352506 966.107697 L 534.568224 966.029269 L 532.764376 965.715556 L 530.372316 965.205773 L 527.666543 964.499919 L 519.980579 961.794146 L 510.098625 957.166882 L 499.628461 950.892626 L 486.021168 940.69696 L 472.570731 928.148448 L 447.98349 897.326164 L 435.787904 876.542691 L 424.102102 851.014311 L 414.729932 823.211514 L 410.455595 806.192594 L 407.279253 789.761886 L 405.122477 774.742885 L 404.220553 765.958926 L 403.553913 757.645537 L 403.279415 753.057487 L 403.04413 748.665508 L 402.926488 744.704884 L 402.808845 740.391332 L 402.769631 738.156129 L 402.730417 735.646426 L 402.730417 730.548593 L 402.808845 726.1174 L 402.887274 723.646911 L 402.965702 721.333279 L 403.161772 716.706016 L 403.397057 712.314036 L 403.946054 704.000647 L 404.808765 694.981404 L 405.985188 685.138664 L 408.808603 667.060964 L 412.22023 650.159686 L 423.239392 610.671087 L 439.866171 568.359072 L 459.041866 530.909605 L 484.374175 491.381792 L 542.646329 423.815896 L 581.625146 389.699628 " transform="matrix(0.0996134, 0, 0, -0.0996134, 0.0428093, 192.502899)"/>
<path fill="none" stroke-width="5" stroke-linecap="round" stroke-linejoin="round" stroke="rgb(0%, 0%, 0%)" stroke-opacity="1" stroke-miterlimit="10" d="M 581.625146 389.699628 L 629.270278 356.093144 L 678.836902 328.447202 L 728.442739 306.957875 L 755.853396 297.389635 L 786.322752 288.488034 L 813.890265 281.978493 L 843.57534 276.488519 L 870.946782 272.763179 L 886.632422 271.194615 L 894.200744 270.56719 L 901.376924 270.09662 L 907.925679 269.743693 L 915.062646 269.390766 L 921.532972 269.194696 L 927.53273 269.03784 L 934.04227 268.959411 L 941.257665 268.920197 L 948.786772 268.998625 L 955.84531 269.116268 L 963.099919 269.351552 L 970.903525 269.704479 L 984.942173 270.56719 L 1001.686594 272.018111 L 1016.94088 273.743532 L 1050.155223 278.762937 L 1081.448076 285.154835 L 1136.504673 300.40912 L 1195.09054 322.604301 L 1251.284347 350.171814 L 1310.379997 386.836999 L 1369.083506 432.442998 L 1418.532487 479.931274 L 1500.882099 586.12306 L 1537.468855 651.414538 L 1565.663794 716.9413 L 1586.290411 781.566138 L 1594.368516 814.976552 L 1601.427054 852.308376 L 1605.858247 884.267869 L 1607.70131 902.384783 L 1608.995375 919.011562 L 1609.818871 933.677636 L 1610.132584 941.991025 L 1610.367869 949.716203 L 1610.485511 957.91195 L 1610.563939 965.362629 L 1610.524725 973.989732 L 1610.367869 982.10705 L 1610.132584 990.224369 L 1609.818871 999.008328 " transform="matrix(0.0996134, 0, 0, -0.0996134, 0.0428093, 192.502899)"/>
<path fill="none" stroke-width="5" stroke-linecap="round" stroke-linejoin="round" stroke="rgb(0%, 0%, 0%)" stroke-opacity="1" stroke-miterlimit="10" d="M 1609.818871 999.008328 L 1609.387516 1007.243289 L 1608.916947 1014.772397 L 1607.426811 1033.16381 L 1605.544534 1050.574871 L 1600.642772 1085.004851 L 1593.348949 1122.219033 L 1575.545747 1187.275226 L 1553.664279 1245.665023 L 1521.155789 1312.172138 L 1484.608247 1370.993289 L 1402.415492 1469.10697 L 1353.005724 1513.614974 L 1297.007988 1554.750566 L 1241.637678 1587.533554 L 1189.247639 1612.434508 L 1131.367626 1633.766979 L 1101.251197 1642.47251 L 1068.350566 1650.236902 L 1037.841995 1655.805304 L 1024.430773 1657.805223 L 1009.686271 1659.609072 L 996.745618 1660.942351 L 982.824612 1662.07956 L 975.177862 1662.589343 L 968.158538 1662.903056 L 961.452927 1663.216769 L 954.433603 1663.41284 L 946.826067 1663.530482 L 942.55173 1663.569696 L 938.63032 1663.569696 L 931.375712 1663.530482 L 923.728962 1663.373625 L 916.944922 1663.177555 L 910.592238 1662.903056 L 896.161449 1662.040346 L 880.711093 1660.785495 L 866.711659 1659.256145 L 835.575663 1654.707309 L 809.5375 1649.609476 L 781.695488 1642.786223 L 732.834719 1627.17901 L 679.58197 1604.395618 L 634.760252 1579.808376 L 586.958263 1546.986174 L 547.704948 1513.497332 L 485.47217 1442.637451 L 459.94379 1403.148852 L 438.336821 1360.719195 L 423.592319 1322.877587 L 417.239635 1302.211756 " transform="matrix(0.0996134, 0, 0, -0.0996134, 0.0428093, 192.502899)"/>
<path fill="none" stroke-width="5" stroke-linecap="round" stroke-linejoin="round" stroke="rgb(0%, 0%, 0%)" stroke-opacity="1" stroke-miterlimit="10" d="M 417.239635 1302.211756 L 412.377086 1282.879204 L 408.730175 1265.115217 L 407.200825 1255.821475 L 405.828331 1246.096378 L 404.847979 1237.979059 L 404.024483 1229.116672 L 403.436271 1221.15621 L 403.200986 1217.274014 L 403.04413 1213.744745 L 402.887274 1209.274337 L 402.808845 1206.803849 L 402.769631 1204.529431 L 402.730417 1200.41195 L 402.730417 1196.059185 L 402.769631 1193.745553 L 402.808845 1191.235851 L 402.887274 1188.608506 L 402.965702 1186.177232 L 403.161772 1181.86368 L 403.397057 1177.275631 L 404.024483 1168.295602 L 404.887193 1159.982212 L 406.96554 1144.806355 L 409.553671 1130.453994 L 412.494728 1117.709411 L 420.651261 1090.690896 L 430.533215 1066.53501 L 441.081808 1046.418176 L 453.63032 1027.007196 L 467.355255 1009.949062 L 479.864554 997.204479 L 492.962063 986.263745 L 503.942012 978.85228 L 513.235754 973.715233 L 522.254997 969.793823 L 528.764538 967.715475 L 531.627167 967.009622 L 533.705514 966.617481 L 535.430935 966.342982 L 536.05836 966.303768 L 536.332859 966.264554 L 536.921071 966.264554 " transform="matrix(0.0996134, 0, 0, -0.0996134, 0.0428093, 192.502899)"/>
</svg>
