<?xml version="1.0" encoding="UTF-8"?>
<svg xmlns="http://www.w3.org/2000/svg" xmlns:xlink="http://www.w3.org/1999/xlink" width="160" height="154.75" viewBox="0 0 160 154.75">
<path fill="none" stroke-width="5" stroke-linecap="round" stroke-linejoin="round" stroke="rgb(100%, 0%, 0%)" stroke-opacity="1" stroke-miterlimit="10" d="M 1053.925182 773.752019 L 1054.159935 773.752019 L 1054.433815 773.791145 L 1054.825071 773.791145 L 1055.372829 773.869396 L 1056.116216 773.947647 L 1057.798617 774.221527 L 1060.028776 774.73016 L 1062.571941 775.356169 L 1069.810178 777.899334 L 1079.082946 782.20315 L 1088.981725 788.111117 L 1101.854049 797.69689 L 1114.569871 809.512823 L 1137.849606 838.622274 L 1149.39166 858.224202 L 1160.503332 882.325576 L 1169.384845 908.617983 L 1173.453908 924.659481 L 1176.505705 940.231472 L 1178.540236 954.394941 L 1179.440125 962.728695 L 1180.105261 970.592942 L 1180.37914 974.935884 L 1180.574768 979.044073 L 1180.692145 982.800131 L 1180.809521 986.869194 L 1180.848647 989.021103 L 1180.887773 991.368639 L 1180.887773 996.181088 L 1180.809521 1000.367528 L 1180.770396 1002.75419 L 1180.692145 1004.906099 L 1180.535642 1009.288166 L 1180.300889 1013.435481 L 1179.75313 1021.260602 L 1178.970618 1029.829109 L 1177.875101 1039.141004 L 1175.253685 1056.238893 L 1172.045386 1072.241266 L 1161.6771 1109.60622 L 1145.987732 1149.67084 L 1127.911702 1185.079513 L 1103.966832 1222.522718 L 1048.917104 1286.493084 L 1012.099909 1318.84996 " transform="matrix(0.0998387, 0, 0, -0.0998387, 0.129032, 154.500403)"/>
<path fill="none" stroke-width="5" stroke-linecap="round" stroke-linejoin="round" stroke="rgb(100%, 0%, 0%)" stroke-opacity="1" stroke-miterlimit="10" d="M 1012.099909 1318.84996 L 967.066337 1350.698203 L 920.154735 1376.873233 L 873.204008 1397.296799 L 847.302857 1406.37394 L 818.506412 1414.785945 L 792.409632 1421.006916 L 764.317447 1426.210622 L 738.416296 1429.771052 L 723.548566 1431.257825 L 716.427706 1431.844709 L 709.619851 1432.314216 L 703.438005 1432.666347 L 696.669275 1432.979352 L 690.526555 1433.214105 L 684.853342 1433.331482 L 678.710622 1433.448859 L 671.902767 1433.448859 L 664.781906 1433.370608 L 658.091428 1433.253231 L 651.205321 1433.057603 L 643.810582 1432.744598 L 630.507876 1431.92296 L 614.662005 1430.553564 L 600.263782 1428.949414 L 568.806795 1424.215216 L 539.188712 1418.189873 L 487.073405 1403.79165 L 431.593296 1382.820325 L 378.421597 1356.762672 L 322.471981 1322.097385 L 266.874495 1278.941842 L 220.080271 1234.025646 L 142.102938 1133.511965 L 107.476777 1071.732633 L 80.753988 1009.718548 L 61.230311 948.565226 L 53.561692 916.951737 L 46.871214 881.621315 L 42.684774 851.338096 L 40.924122 834.20108 L 39.711228 818.472587 L 38.928716 804.582997 L 38.615711 796.71875 L 38.420083 789.402262 L 38.302706 781.655392 L 38.224455 774.573657 L 38.26358 766.435531 L 38.380957 758.727787 L 38.615711 751.059168 L 38.928716 742.76454 " transform="matrix(0.0998387, 0, 0, -0.0998387, 0.129032, 154.500403)"/>
<path fill="none" stroke-width="5" stroke-linecap="round" stroke-linejoin="round" stroke="rgb(100%, 0%, 0%)" stroke-opacity="1" stroke-miterlimit="10" d="M 38.928716 742.76454 L 39.359097 734.939418 L 39.789479 727.818558 L 41.198001 710.407664 L 42.958653 693.935784 L 47.653726 661.344154 L 54.539832 626.131109 L 71.402968 564.547405 L 92.100414 509.262924 L 122.892266 446.34895 L 157.479301 390.712338 L 235.339257 297.82815 L 282.094356 255.768124 L 335.148677 216.838146 L 387.576989 185.811541 L 437.188257 162.297052 L 491.964105 142.147365 L 520.447546 133.891862 L 551.630654 126.614499 L 580.466226 121.332542 L 593.142922 119.454513 L 607.149889 117.732987 L 619.396204 116.480967 L 632.542407 115.424576 L 639.81977 114.994194 L 646.431997 114.642064 L 652.770345 114.40731 L 659.382573 114.211682 L 666.62081 114.05518 L 674.406805 114.05518 L 681.253786 114.094305 L 688.452898 114.250808 L 694.908623 114.446436 L 700.933966 114.720315 L 714.549677 115.541953 L 729.182653 116.754847 L 742.446234 118.202494 L 771.868689 122.545436 L 796.556947 127.397011 L 822.849354 133.852736 L 869.056694 148.642215 L 919.4896 170.278675 L 961.862631 193.597536 L 1007.01358 224.702393 L 1044.14378 256.433259 L 1102.91044 323.533673 L 1127.050939 360.937752 L 1147.43538 401.11975 L 1161.32497 436.919679 L 1167.311187 456.443356 " transform="matrix(0.0998387, 0, 0, -0.0998387, 0.129032, 154.500403)"/>
<path fill="none" stroke-width="5" stroke-linecap="round" stroke-linejoin="round" stroke="rgb(100%, 0%, 0%)" stroke-opacity="1" stroke-miterlimit="10" d="M 1167.311187 456.443356 L 1171.888883 474.75414 L 1175.292811 491.57815 L 1176.740458 500.342286 L 1178.031603 509.575929 L 1178.931492 517.244548 L 1179.714004 525.617427 L 1180.261763 533.129544 L 1180.457391 536.846476 L 1180.613893 540.133027 L 1180.73127 544.397718 L 1180.809521 546.706129 L 1180.848647 548.897163 L 1180.887773 552.731472 L 1180.887773 556.917912 L 1180.848647 559.06982 L 1180.809521 561.456482 L 1180.73127 563.921395 L 1180.653019 566.229806 L 1180.457391 570.298869 L 1180.222637 574.641811 L 1179.596628 583.092942 L 1178.77499 590.996315 L 1176.81871 605.355412 L 1174.314671 618.892872 L 1171.536753 630.943558 L 1163.750757 656.453453 L 1154.360612 679.263681 L 1144.422708 698.278726 L 1132.489398 716.589509 L 1119.499697 732.709259 L 1107.683764 744.681694 L 1095.280947 754.971729 L 1084.912662 761.975212 L 1076.148526 766.787662 L 1067.658269 770.426343 L 1061.554675 772.421749 L 1058.855008 773.047758 L 1056.898728 773.439015 L 1055.294578 773.634643 L 1054.707694 773.712894 L 1054.433815 773.712894 L 1054.277312 773.752019 L 1053.925182 773.752019 " transform="matrix(0.0998387, 0, 0, -0.0998387, 0.129032, 154.500403)"/>
<path fill="none" stroke-width="5" stroke-linecap="round" stroke-linejoin="round" stroke="rgb(0%, 0%, 0%)" stroke-opacity="1" stroke-miterlimit="10" d="M 1053.925182 773.752019 C 1053.925182 913.978191 940.226171 1027.677201 800 1027.677201 C 659.773829 1027.677201 546.074818 913.978191 546.074818 773.752019 C 546.074818 633.525848 659.773829 519.826838 800 519.826838 C 940.226171 519.826838 1053.925182 633.525848 1053.925182 773.752019 C 1053.925182 782.242276 1053.4948 790.693407 1052.634037 799.105412 " transform="matrix(0.0998387, 0, 0, -0.0998387, 0.129032, 154.500403)"/>
<path fill="none" stroke-width="5" stroke-linecap="round" stroke-linejoin="round" stroke="rgb(0%, 0%, 100%)" stroke-opacity="1" stroke-miterlimit="10" d="M 1561.775545 773.752019 C 1561.775545 913.978191 1448.076535 1027.677201 1307.850363 1027.677201 C 1167.624192 1027.677201 1053.925182 913.978191 1053.925182 773.752019 C 1053.925182 633.525848 1167.624192 519.826838 1307.850363 519.826838 C 1448.076535 519.826838 1561.775545 633.525848 1561.775545 773.752019 C 1561.775545 782.242276 1561.345164 790.693407 1560.4844 799.105412 " transform="matrix(0.0998387, 0, 0, -0.0998387, 0.129032, 154.500403)"/>
<path fill="none" stroke-width="5" stroke-linecap="round" stroke-linejoin="round" stroke="rgb(0%, 0%, 100%)" stroke-opacity="1" stroke-miterlimit="10" d="M 1307.850363 773.752019 L 1053.925182 773.752019 " transform="matrix(0.0998387, 0, 0, -0.0998387, 0.129032, 154.500403)"/>
<path fill="none" stroke-width="47.9909" stroke-linecap="round" stroke-linejoin="round" stroke="rgb(100%, 0%, 0%)" stroke-opacity="1" stroke-miterlimit="10" d="M 1053.925182 773.752019 L 1053.925182 773.752019 " transform="matrix(0.0998387, 0, 0, -0.0998387, 0.129032, 154.500403)"/>
<path fill="none" stroke-width="5" stroke-linecap="round" stroke-linejoin="round" stroke="rgb(0%, 0%, 0%)" stroke-opacity="1" stroke-miterlimit="10" d="M 1053.925182 773.752019 C 1053.925182 913.978191 940.226171 1027.677201 800 1027.677201 C 659.773829 1027.677201 546.074818 913.978191 546.074818 773.752019 C 546.074818 633.525848 659.773829 519.826838 800 519.826838 C 940.226171 519.826838 1053.925182 633.525848 1053.925182 773.752019 C 1053.925182 782.242276 1053.4948 790.693407 1052.634037 799.105412 " transform="matrix(0.0998387, 0, 0, -0.0998387, 0.129032, 154.500403)"/>
<path fill="none" stroke-width="5" stroke-linecap="round" stroke-linejoin="round" stroke="rgb(0%, 0%, 100%)" stroke-opacity="1" stroke-miterlimit="10" d="M 1210.857987 1256.757623 C 1210.857987 1396.983794 1097.158976 1510.643679 956.932805 1510.643679 C 816.706634 1510.643679 703.007623 1396.983794 703.007623 1256.757623 C 703.007623 1116.492326 816.706634 1002.832441 956.932805 1002.832441 C 1097.158976 1002.832441 1210.857987 1116.492326 1210.857987 1256.757623 C 1210.857987 1265.208754 1210.427605 1273.659885 1209.566842 1282.07189 " transform="matrix(0.0998387, 0, 0, -0.0998387, 0.129032, 154.500403)"/>
<path fill="none" stroke-width="5" stroke-linecap="round" stroke-linejoin="round" stroke="rgb(0%, 0%, 100%)" stroke-opacity="1" stroke-miterlimit="10" d="M 956.932805 1256.757623 L 1162.342235 1107.493437 " transform="matrix(0.0998387, 0, 0, -0.0998387, 0.129032, 154.500403)"/>
<path fill="none" stroke-width="47.9909" stroke-linecap="round" stroke-linejoin="round" stroke="rgb(100%, 0%, 0%)" stroke-opacity="1" stroke-miterlimit="10" d="M 1162.342235 1107.493437 L 1162.342235 1107.493437 " transform="matrix(0.0998387, 0, 0, -0.0998387, 0.129032, 154.500403)"/>
<path fill="none" stroke-width="5" stroke-linecap="round" stroke-linejoin="round" stroke="rgb(0%, 0%, 0%)" stroke-opacity="1" stroke-miterlimit="10" d="M 1053.925182 773.752019 C 1053.925182 913.978191 940.226171 1027.677201 800 1027.677201 C 659.773829 1027.677201 546.074818 913.978191 546.074818 773.752019 C 546.074818 633.525848 659.773829 519.826838 800 519.826838 C 940.226171 519.826838 1053.925182 633.525848 1053.925182 773.752019 C 1053.925182 782.242276 1053.4948 790.693407 1052.634037 799.105412 " transform="matrix(0.0998387, 0, 0, -0.0998387, 0.129032, 154.500403)"/>
<path fill="none" stroke-width="5" stroke-linecap="round" stroke-linejoin="round" stroke="rgb(0%, 0%, 100%)" stroke-opacity="1" stroke-miterlimit="10" d="M 643.067195 1072.241266 C 643.067195 1212.467437 529.368185 1326.166448 389.142013 1326.166448 C 248.915842 1326.166448 135.216832 1212.467437 135.216832 1072.241266 C 135.216832 932.015095 248.915842 818.316084 389.142013 818.316084 C 529.368185 818.316084 643.067195 932.015095 643.067195 1072.241266 C 643.067195 1080.692397 642.636813 1089.182653 641.815176 1097.594659 " transform="matrix(0.0998387, 0, 0, -0.0998387, 0.129032, 154.500403)"/>
<path fill="none" stroke-width="5" stroke-linecap="round" stroke-linejoin="round" stroke="rgb(0%, 0%, 100%)" stroke-opacity="1" stroke-miterlimit="10" d="M 389.142013 1072.241266 L 310.695174 1313.763631 " transform="matrix(0.0998387, 0, 0, -0.0998387, 0.129032, 154.500403)"/>
<path fill="none" stroke-width="47.9909" stroke-linecap="round" stroke-linejoin="round" stroke="rgb(100%, 0%, 0%)" stroke-opacity="1" stroke-miterlimit="10" d="M 310.695174 1313.763631 L 310.695174 1313.763631 " transform="matrix(0.0998387, 0, 0, -0.0998387, 0.129032, 154.500403)"/>
<path fill="none" stroke-width="5" stroke-linecap="round" stroke-linejoin="round" stroke="rgb(0%, 0%, 0%)" stroke-opacity="1" stroke-miterlimit="10" d="M 1053.925182 773.752019 C 1053.925182 913.978191 940.226171 1027.677201 800 1027.677201 C 659.773829 1027.677201 546.074818 913.978191 546.074818 773.752019 C 546.074818 633.525848 659.773829 519.826838 800 519.826838 C 940.226171 519.826838 1053.925182 633.525848 1053.925182 773.752019 C 1053.925182 782.242276 1053.4948 790.693407 1052.634037 799.105412 " transform="matrix(0.0998387, 0, 0, -0.0998387, 0.129032, 154.500403)"/>
<path fill="none" stroke-width="5" stroke-linecap="round" stroke-linejoin="round" stroke="rgb(0%, 0%, 100%)" stroke-opacity="1" stroke-miterlimit="10" d="M 643.067195 475.262773 C 643.067195 615.488944 529.368185 729.187954 389.142013 729.187954 C 248.915842 729.187954 135.216832 615.488944 135.216832 475.262773 C 135.216832 335.036601 248.915842 221.337591 389.142013 221.337591 C 529.368185 221.337591 643.067195 335.036601 643.067195 475.262773 C 643.067195 483.713903 642.636813 492.165034 641.815176 500.616165 " transform="matrix(0.0998387, 0, 0, -0.0998387, 0.129032, 154.500403)"/>
<path fill="none" stroke-width="5" stroke-linecap="round" stroke-linejoin="round" stroke="rgb(0%, 0%, 100%)" stroke-opacity="1" stroke-miterlimit="10" d="M 389.142013 475.262773 L 310.695174 233.779534 " transform="matrix(0.0998387, 0, 0, -0.0998387, 0.129032, 154.500403)"/>
<path fill="none" stroke-width="47.9909" stroke-linecap="round" stroke-linejoin="round" stroke="rgb(100%, 0%, 0%)" stroke-opacity="1" stroke-miterlimit="10" d="M 310.695174 233.779534 L 310.695174 233.779534 " transform="matrix(0.0998387, 0, 0, -0.0998387, 0.129032, 154.500403)"/>
<path fill="none" stroke-width="5" stroke-linecap="round" stroke-linejoin="round" stroke="rgb(0%, 0%, 0%)" stroke-opacity="1" stroke-miterlimit="10" d="M 1053.925182 773.752019 C 1053.925182 913.978191 940.226171 1027.677201 800 1027.677201 C 659.773829 1027.677201 546.074818 913.978191 546.074818 773.752019 C 546.074818 633.525848 659.773829 519.826838 800 519.826838 C 940.226171 519.826838 1053.925182 633.525848 1053.925182 773.752019 C 1053.925182 782.242276 1053.4948 790.693407 1052.634037 799.105412 " transform="matrix(0.0998387, 0, 0, -0.0998387, 0.129032, 154.500403)"/>
<path fill="none" stroke-width="5" stroke-linecap="round" stroke-linejoin="round" stroke="rgb(0%, 0%, 100%)" stroke-opacity="1" stroke-miterlimit="10" d="M 1210.857987 290.746416 C 1210.857987 431.011712 1097.158976 544.671597 956.932805 544.671597 C 816.706634 544.671597 703.007623 431.011712 703.007623 290.746416 C 703.007623 150.520244 816.706634 36.821234 956.932805 36.821234 C 1097.158976 36.821234 1210.857987 150.520244 1210.857987 290.746416 C 1210.857987 299.236672 1210.427605 307.687803 1209.566842 316.099808 " transform="matrix(0.0998387, 0, 0, -0.0998387, 0.129032, 154.500403)"/>
<path fill="none" stroke-width="5" stroke-linecap="round" stroke-linejoin="round" stroke="rgb(0%, 0%, 100%)" stroke-opacity="1" stroke-miterlimit="10" d="M 956.932805 290.746416 L 1162.342235 440.010602 " transform="matrix(0.0998387, 0, 0, -0.0998387, 0.129032, 154.500403)"/>
<path fill="none" stroke-width="47.9909" stroke-linecap="round" stroke-linejoin="round" stroke="rgb(100%, 0%, 0%)" stroke-opacity="1" stroke-miterlimit="10" d="M 1162.342235 440.010602 L 1162.342235 440.010602 " transform="matrix(0.0998387, 0, 0, -0.0998387, 0.129032, 154.500403)"/>
</svg>
