<?xml version="1.0" encoding="UTF-8"?>
<svg xmlns="http://www.w3.org/2000/svg" xmlns:xlink="http://www.w3.org/1999/xlink" width="160" height="160" viewBox="0 0 160 160">
<path fill="none" stroke-width="2.5" stroke-linecap="round" stroke-linejoin="round" stroke="rgb(0%, 0%, 0%)" stroke-opacity="1" stroke-miterlimit="10" d="M 0 800 L 1600 800 " transform="matrix(0.1, 0, 0, -0.1, 0, 160)"/>
<path fill="none" stroke-width="2.5" stroke-linecap="round" stroke-linejoin="round" stroke="rgb(0%, 0%, 0%)" stroke-opacity="1" stroke-miterlimit="10" d="M 158.984375 0 L 158.984375 1600 " transform="matrix(0.1, 0, 0, -0.1, 0, 160)"/>
<path fill="none" stroke-width="5" stroke-linecap="round" stroke-linejoin="round" stroke="rgb(100%, 0%, 0%)" stroke-opacity="1" stroke-miterlimit="10" d="M 512.5 542.851562 L 528.046875 542.265625 L 543.59375 542.460938 L 559.140625 543.398438 L 561.328125 543.59375 L 574.6875 545.195312 L 590.195312 547.773438 L 605.742188 551.210938 L 621.289062 555.585938 L 631.953125 559.140625 L 636.835938 560.898438 L 652.382812 567.265625 L 667.8125 574.6875 L 667.890625 574.726562 L 683.4375 583.4375 L 694.101562 590.195312 L 698.984375 593.554688 L 714.53125 605.3125 L 715.039062 605.742188 L 730.078125 619.023438 L 732.382812 621.289062 L 745.625 635.195312 L 747.03125 636.835938 L 759.492188 652.382812 L 761.132812 654.609375 L 770.15625 667.890625 L 776.679688 678.867188 L 779.179688 683.4375 L 786.835938 698.984375 L 792.226562 711.914062 L 793.203125 714.53125 L 798.398438 730.078125 L 802.460938 745.625 L 805.507812 761.132812 L 807.5 776.679688 L 807.773438 779.84375 L 808.476562 792.226562 L 808.476562 807.773438 L 807.773438 820.15625 L 807.5 823.320312 L 805.507812 838.867188 L 802.460938 854.375 L 798.398438 869.921875 L 793.203125 885.46875 L 792.226562 888.085938 L 786.835938 901.015625 L 779.179688 916.5625 L 776.679688 921.132812 L 770.15625 932.109375 L 761.132812 945.390625 " transform="matrix(0.1, 0, 0, -0.1, 0, 160)"/>
<path fill="none" stroke-width="5" stroke-linecap="round" stroke-linejoin="round" stroke="rgb(100%, 0%, 0%)" stroke-opacity="1" stroke-miterlimit="10" d="M 761.132812 945.390625 L 759.492188 947.617188 L 747.03125 963.164062 L 745.625 964.804688 L 732.382812 978.710938 L 730.078125 980.976562 L 715.039062 994.257812 L 714.53125 994.6875 L 698.984375 1006.445312 L 694.101562 1009.804688 L 683.4375 1016.5625 L 667.890625 1025.273438 L 667.8125 1025.3125 L 652.382812 1032.734375 L 636.835938 1039.101562 L 631.953125 1040.859375 L 621.289062 1044.414062 L 605.742188 1048.789062 L 590.195312 1052.226562 L 574.6875 1054.804688 L 561.328125 1056.40625 L 559.140625 1056.601562 L 543.59375 1057.539062 L 528.046875 1057.734375 L 512.5 1057.148438 L 501.757812 1056.40625 L 496.992188 1055.78125 L 481.445312 1053.671875 L 465.898438 1050.742188 L 450.351562 1047.03125 L 434.804688 1042.578125 L 429.648438 1040.859375 L 419.257812 1037.226562 L 403.710938 1030.976562 L 391.210938 1025.3125 L 388.203125 1023.867188 L 372.65625 1015.742188 L 362.382812 1009.804688 L 357.109375 1006.5625 L 341.5625 996.25 L 338.789062 994.257812 L 326.015625 984.609375 L 318.828125 978.710938 L 310.507812 971.484375 L 301.5625 963.164062 L 294.960938 956.601562 L 286.484375 947.617188 L 279.414062 939.570312 L 273.28125 932.109375 L 263.867188 919.609375 L 261.757812 916.5625 " transform="matrix(0.1, 0, 0, -0.1, 0, 160)"/>
<path fill="none" stroke-width="5" stroke-linecap="round" stroke-linejoin="round" stroke="rgb(100%, 0%, 0%)" stroke-opacity="1" stroke-miterlimit="10" d="M 261.757812 916.5625 L 251.679688 901.015625 L 248.320312 895.3125 L 243.125 885.46875 L 235.898438 869.921875 L 232.773438 862.34375 L 230.117188 854.375 L 225.742188 838.867188 L 222.734375 823.320312 L 221.210938 807.773438 L 221.210938 792.226562 L 222.734375 776.679688 L 225.742188 761.132812 L 230.117188 745.625 L 232.773438 737.65625 L 235.898438 730.078125 L 243.125 714.53125 L 248.320312 704.6875 L 251.679688 698.984375 L 261.757812 683.4375 L 263.867188 680.390625 L 273.28125 667.890625 L 279.414062 660.429688 L 286.484375 652.382812 L 294.960938 643.398438 L 301.5625 636.835938 L 310.507812 628.515625 L 318.828125 621.289062 L 326.015625 615.390625 L 338.789062 605.742188 L 341.5625 603.75 L 357.109375 593.4375 L 362.382812 590.195312 L 372.65625 584.257812 L 388.203125 576.132812 L 391.210938 574.6875 L 403.710938 569.023438 L 419.257812 562.773438 L 429.648438 559.140625 L 434.804688 557.421875 L 450.351562 552.929688 L 465.898438 549.257812 L 481.445312 546.328125 L 496.992188 544.21875 L 501.757812 543.59375 L 512.5 542.851562 " transform="matrix(0.1, 0, 0, -0.1, 0, 160)"/>
<path fill="none" stroke-width="5" stroke-linecap="round" stroke-linejoin="round" stroke="rgb(100%, 0%, 0%)" stroke-opacity="1" stroke-miterlimit="10" d="M 652.382812 45.234375 L 667.890625 42.5 L 683.4375 40.117188 L 698.984375 38.125 L 714.53125 36.445312 L 730.078125 35.117188 L 745.625 34.179688 L 761.132812 33.554688 L 776.679688 33.242188 L 792.226562 33.320312 L 807.773438 33.710938 L 823.320312 34.453125 L 838.867188 35.546875 L 854.375 36.953125 L 869.921875 38.75 L 885.46875 40.859375 L 901.015625 43.28125 L 916.5625 46.132812 L 917.617188 46.289062 L 932.109375 49.257812 L 947.617188 52.773438 L 963.164062 56.640625 L 978.710938 60.898438 L 982.03125 61.875 L 994.257812 65.507812 L 1009.804688 70.507812 L 1025.3125 75.898438 L 1029.453125 77.382812 L 1040.859375 81.679688 L 1056.40625 87.851562 L 1068.515625 92.929688 L 1071.953125 94.453125 L 1087.5 101.445312 L 1102.1875 108.476562 L 1103.007812 108.90625 L 1118.554688 116.796875 L 1132.03125 124.023438 L 1134.101562 125.15625 L 1149.648438 133.984375 L 1158.945312 139.570312 L 1165.195312 143.359375 L 1180.742188 153.242188 L 1183.554688 155.078125 L 1196.289062 163.671875 L 1206.210938 170.625 L 1211.796875 174.6875 L 1227.226562 186.171875 L 1227.34375 186.289062 L 1242.890625 198.515625 L 1246.796875 201.71875 " transform="matrix(0.1, 0, 0, -0.1, 0, 160)"/>
<path fill="none" stroke-width="5" stroke-linecap="round" stroke-linejoin="round" stroke="rgb(100%, 0%, 0%)" stroke-opacity="1" stroke-miterlimit="10" d="M 1246.796875 201.71875 L 1258.4375 211.445312 L 1265.15625 217.226562 L 1273.984375 225.117188 L 1282.34375 232.773438 L 1289.492188 239.53125 L 1298.554688 248.320312 L 1305.039062 254.804688 L 1313.867188 263.867188 L 1320.585938 270.976562 L 1328.320312 279.414062 L 1336.132812 288.164062 L 1341.992188 294.960938 L 1351.640625 306.484375 L 1354.960938 310.507812 L 1367.226562 325.976562 L 1367.265625 326.015625 L 1378.90625 341.5625 L 1382.734375 346.914062 L 1389.960938 357.109375 L 1398.28125 369.375 L 1400.46875 372.65625 L 1410.390625 388.203125 L 1413.828125 393.710938 L 1419.84375 403.710938 L 1428.789062 419.257812 L 1429.375 420.273438 L 1437.265625 434.804688 L 1444.921875 449.570312 L 1445.3125 450.351562 L 1452.890625 465.898438 L 1460.078125 481.445312 L 1460.46875 482.304688 L 1466.835938 496.992188 L 1473.164062 512.5 L 1475.976562 519.726562 L 1479.140625 528.046875 L 1484.765625 543.59375 L 1489.960938 559.140625 L 1491.523438 563.984375 L 1494.84375 574.6875 L 1499.335938 590.195312 L 1503.515625 605.742188 L 1507.070312 620.15625 L 1507.34375 621.289062 L 1510.820312 636.835938 L 1513.984375 652.382812 L 1516.835938 667.890625 L 1519.296875 683.4375 L 1521.484375 698.984375 L 1522.617188 707.851562 " transform="matrix(0.1, 0, 0, -0.1, 0, 160)"/>
<path fill="none" stroke-width="5" stroke-linecap="round" stroke-linejoin="round" stroke="rgb(100%, 0%, 0%)" stroke-opacity="1" stroke-miterlimit="10" d="M 1522.617188 707.851562 L 1523.398438 714.53125 L 1524.921875 730.078125 L 1526.171875 745.625 L 1527.109375 761.132812 L 1527.695312 776.679688 L 1528.007812 792.226562 L 1528.007812 807.773438 L 1527.695312 823.320312 L 1527.109375 838.867188 L 1526.171875 854.375 L 1524.921875 869.921875 L 1523.398438 885.46875 L 1522.617188 892.148438 L 1521.484375 901.015625 L 1519.296875 916.5625 L 1516.835938 932.109375 L 1513.984375 947.617188 L 1510.820312 963.164062 L 1507.34375 978.710938 L 1507.070312 979.84375 L 1503.515625 994.257812 L 1499.335938 1009.804688 L 1494.84375 1025.3125 L 1491.523438 1036.015625 L 1489.960938 1040.859375 L 1484.765625 1056.40625 L 1479.140625 1071.953125 L 1475.976562 1080.273438 L 1473.164062 1087.5 L 1466.835938 1103.007812 L 1460.46875 1117.695312 L 1460.078125 1118.554688 L 1452.890625 1134.101562 L 1445.3125 1149.648438 L 1444.921875 1150.429688 L 1437.265625 1165.195312 L 1429.375 1179.726562 L 1428.789062 1180.742188 L 1419.84375 1196.289062 L 1413.828125 1206.289062 L 1410.390625 1211.796875 L 1400.46875 1227.34375 L 1398.28125 1230.625 L 1389.960938 1242.890625 L 1382.734375 1253.125 L 1378.90625 1258.4375 L 1367.265625 1273.984375 L 1367.226562 1274.023438 L 1354.960938 1289.492188 L 1351.640625 1293.554688 " transform="matrix(0.1, 0, 0, -0.1, 0, 160)"/>
<path fill="none" stroke-width="5" stroke-linecap="round" stroke-linejoin="round" stroke="rgb(100%, 0%, 0%)" stroke-opacity="1" stroke-miterlimit="10" d="M 1351.640625 1293.554688 L 1341.992188 1305.039062 L 1336.132812 1311.835938 L 1328.320312 1320.585938 L 1320.585938 1329.023438 L 1313.867188 1336.132812 L 1305.039062 1345.195312 L 1298.554688 1351.640625 L 1289.492188 1360.46875 L 1282.34375 1367.226562 L 1273.984375 1374.882812 L 1265.15625 1382.734375 L 1258.4375 1388.554688 L 1246.796875 1398.28125 L 1242.890625 1401.484375 L 1227.34375 1413.710938 L 1227.226562 1413.828125 L 1211.796875 1425.3125 L 1206.210938 1429.375 L 1196.289062 1436.328125 L 1183.554688 1444.921875 L 1180.742188 1446.757812 L 1165.195312 1456.640625 L 1158.945312 1460.46875 L 1149.648438 1466.015625 L 1134.101562 1474.84375 L 1132.03125 1475.976562 L 1118.554688 1483.203125 L 1103.007812 1491.09375 L 1102.1875 1491.523438 L 1087.5 1498.554688 L 1071.953125 1505.585938 L 1068.515625 1507.070312 L 1056.40625 1512.148438 L 1040.859375 1518.359375 L 1029.453125 1522.617188 L 1025.3125 1524.101562 L 1009.804688 1529.492188 L 994.257812 1534.492188 L 982.03125 1538.125 L 978.710938 1539.101562 L 963.164062 1543.359375 L 947.617188 1547.226562 L 932.109375 1550.742188 L 917.617188 1553.710938 L 916.5625 1553.90625 L 901.015625 1556.71875 L 885.46875 1559.140625 L 869.921875 1561.289062 L 854.375 1563.046875 L 838.867188 1564.453125 " transform="matrix(0.1, 0, 0, -0.1, 0, 160)"/>
<path fill="none" stroke-width="5" stroke-linecap="round" stroke-linejoin="round" stroke="rgb(100%, 0%, 0%)" stroke-opacity="1" stroke-miterlimit="10" d="M 838.867188 1564.453125 L 823.320312 1565.546875 L 807.773438 1566.289062 L 792.226562 1566.679688 L 776.679688 1566.757812 L 761.132812 1566.445312 L 745.625 1565.859375 L 730.078125 1564.882812 L 714.53125 1563.554688 L 698.984375 1561.875 L 683.4375 1559.882812 L 667.890625 1557.5 L 652.382812 1554.765625 L 646.796875 1553.710938 L 636.835938 1551.640625 L 621.289062 1548.164062 L 605.742188 1544.296875 L 590.195312 1540.039062 L 583.710938 1538.125 L 574.6875 1535.390625 L 559.140625 1530.3125 L 543.59375 1524.84375 L 537.617188 1522.617188 L 528.046875 1518.90625 L 512.5 1512.539062 L 499.960938 1507.070312 L 496.992188 1505.703125 L 481.445312 1498.4375 L 467.695312 1491.523438 L 465.898438 1490.585938 L 450.351562 1482.265625 L 439.296875 1475.976562 L 434.804688 1473.398438 L 419.257812 1463.90625 L 413.828125 1460.46875 L 403.710938 1453.867188 L 390.703125 1444.921875 L 388.203125 1443.125 L 372.65625 1431.71875 L 369.570312 1429.375 L 357.109375 1419.609375 L 350.117188 1413.828125 L 341.5625 1406.640625 L 332.070312 1398.28125 L 326.015625 1392.8125 L 315.351562 1382.734375 L 310.507812 1378.007812 L 299.765625 1367.226562 L 294.960938 1362.1875 L 285.234375 1351.640625 L 279.414062 1345.15625 " transform="matrix(0.1, 0, 0, -0.1, 0, 160)"/>
<path fill="none" stroke-width="5" stroke-linecap="round" stroke-linejoin="round" stroke="rgb(100%, 0%, 0%)" stroke-opacity="1" stroke-miterlimit="10" d="M 279.414062 1345.15625 L 271.640625 1336.132812 L 263.867188 1326.757812 L 258.90625 1320.585938 L 248.320312 1306.835938 L 246.992188 1305.039062 L 235.859375 1289.492188 L 232.773438 1285.039062 L 225.429688 1273.984375 L 217.226562 1261.054688 L 215.664062 1258.4375 L 206.523438 1242.890625 L 201.71875 1234.257812 L 198.007812 1227.34375 L 190.078125 1211.796875 L 186.171875 1203.789062 L 182.695312 1196.289062 L 175.820312 1180.742188 L 170.625 1168.046875 L 169.492188 1165.195312 L 163.671875 1149.648438 L 158.320312 1134.101562 L 155.078125 1124.0625 L 153.4375 1118.554688 L 148.984375 1103.007812 L 145 1087.5 L 141.484375 1071.953125 L 139.570312 1062.65625 L 138.359375 1056.40625 L 135.625 1040.859375 L 133.28125 1025.3125 L 131.328125 1009.804688 L 129.765625 994.257812 L 128.554688 978.710938 L 127.695312 963.164062 L 127.148438 947.617188 L 126.875 932.109375 L 126.835938 916.5625 L 127.03125 901.015625 L 127.34375 885.46875 L 127.773438 869.921875 L 128.242188 854.375 L 128.632812 838.867188 L 128.945312 823.320312 L 129.140625 807.773438 L 129.140625 792.226562 L 128.945312 776.679688 L 128.632812 761.132812 L 128.242188 745.625 L 127.773438 730.078125 L 127.34375 714.53125 " transform="matrix(0.1, 0, 0, -0.1, 0, 160)"/>
<path fill="none" stroke-width="5" stroke-linecap="round" stroke-linejoin="round" stroke="rgb(100%, 0%, 0%)" stroke-opacity="1" stroke-miterlimit="10" d="M 127.34375 714.53125 L 127.03125 698.984375 L 126.835938 683.4375 L 126.875 667.890625 L 127.148438 652.382812 L 127.695312 636.835938 L 128.554688 621.289062 L 129.765625 605.742188 L 131.328125 590.195312 L 133.28125 574.6875 L 135.625 559.140625 L 138.359375 543.59375 L 139.570312 537.34375 L 141.484375 528.046875 L 145 512.5 L 148.984375 496.992188 L 153.4375 481.445312 L 155.078125 475.9375 L 158.320312 465.898438 L 163.671875 450.351562 L 169.492188 434.804688 L 170.625 431.953125 L 175.820312 419.257812 L 182.695312 403.710938 L 186.171875 396.210938 L 190.078125 388.203125 L 198.007812 372.65625 L 201.71875 365.78125 L 206.523438 357.109375 L 215.664062 341.5625 L 217.226562 338.945312 L 225.429688 326.015625 L 232.773438 314.960938 L 235.859375 310.507812 L 246.992188 294.960938 L 248.320312 293.164062 L 258.90625 279.414062 L 263.867188 273.242188 L 271.640625 263.867188 L 279.414062 254.84375 L 285.234375 248.320312 L 294.960938 237.8125 L 299.765625 232.773438 L 310.507812 221.992188 L 315.351562 217.226562 L 326.015625 207.1875 L 332.070312 201.71875 L 341.5625 193.359375 L 350.117188 186.171875 L 357.109375 180.429688 L 369.570312 170.625 " transform="matrix(0.1, 0, 0, -0.1, 0, 160)"/>
<path fill="none" stroke-width="5" stroke-linecap="round" stroke-linejoin="round" stroke="rgb(100%, 0%, 0%)" stroke-opacity="1" stroke-miterlimit="10" d="M 369.570312 170.625 L 372.65625 168.28125 L 388.203125 156.875 L 390.703125 155.078125 L 403.710938 146.132812 L 413.828125 139.570312 L 419.257812 136.09375 L 434.804688 126.640625 L 439.296875 124.023438 L 450.351562 117.734375 L 465.898438 109.414062 L 467.695312 108.476562 L 481.445312 101.601562 L 496.992188 94.296875 L 499.960938 92.929688 L 512.5 87.460938 L 528.046875 81.09375 L 537.617188 77.382812 L 543.59375 75.15625 L 559.140625 69.6875 L 574.6875 64.609375 L 583.710938 61.875 L 590.195312 59.960938 L 605.742188 55.703125 L 621.289062 51.835938 L 636.835938 48.359375 L 646.796875 46.289062 L 652.382812 45.234375 " transform="matrix(0.1, 0, 0, -0.1, 0, 160)"/>
</svg>
