<?xml version="1.0" encoding="UTF-8"?>
<svg xmlns="http://www.w3.org/2000/svg" xmlns:xlink="http://www.w3.org/1999/xlink" width="301.56" height="186.94" viewBox="0 0 301.56 186.94">
<defs>
<clipPath id="clip-0">
<path clip-rule="nonzero" d="M 0 93 L 301.121094 93 L 301.121094 94 L 0 94 Z M 0 93 "/>
</clipPath>
<clipPath id="clip-1">
<path clip-rule="nonzero" d="M 150 0.105469 L 151 0.105469 L 151 186.773438 L 150 186.773438 Z M 150 0.105469 "/>
</clipPath>
</defs>
<g clip-path="url(#clip-0)">
<path fill="none" stroke-width="2.5" stroke-linecap="round" stroke-linejoin="round" stroke="rgb(0%, 0%, 0%)" stroke-opacity="1" stroke-miterlimit="10" d="M 0.430314 934.686355 L 3015.174219 934.686355 " transform="matrix(0.0998543, 0, 0, -0.0998543, -0.000000000000003775, 186.773862)"/>
</g>
<g clip-path="url(#clip-1)">
<path fill="none" stroke-width="2.5" stroke-linecap="round" stroke-linejoin="round" stroke="rgb(0%, 0%, 0%)" stroke-opacity="1" stroke-miterlimit="10" d="M 1507.821827 0.00425371 L 1507.821827 1869.368456 " transform="matrix(0.0998543, 0, 0, -0.0998543, -0.000000000000003775, 186.773862)"/>
</g>
<path fill="none" stroke-width="5" stroke-linecap="round" stroke-linejoin="round" stroke="rgb(100%, 39.988708%, 0%)" stroke-opacity="1" stroke-miterlimit="10" d="M 707.515192 934.647235 L 707.515192 934.451638 L 707.554311 934.177801 L 707.593431 933.943084 L 707.63255 933.669248 L 707.749909 933.434531 L 707.828148 933.160694 L 707.906387 932.965097 L 708.141104 932.495663 L 708.45406 932.104468 L 708.649657 931.908871 L 708.806135 931.713273 L 709.040852 931.595915 L 709.19733 931.439437 L 709.471167 931.282959 L 709.666764 931.1656 L 709.901481 931.048242 L 710.097079 930.930883 L 710.370915 930.852644 L 710.605632 930.774405 L 710.879468 930.774405 L 711.114185 930.735286 L 711.388022 930.696166 L 711.622739 930.696166 L 711.896575 930.735286 L 712.131292 930.774405 L 712.366009 930.774405 L 712.639846 930.852644 L 712.874563 930.930883 L 713.343997 931.1656 L 713.539594 931.282959 L 713.774311 931.439437 L 713.969909 931.595915 L 714.165506 931.713273 L 714.556701 932.104468 L 714.713179 932.300065 L 714.830537 932.495663 L 714.987015 932.73038 L 715.104374 932.965097 L 715.182613 933.160694 L 715.260852 933.434531 L 715.37821 933.669248 L 715.41733 933.943084 L 715.456449 934.177801 L 715.495569 934.451638 L 715.495569 934.647235 " transform="matrix(0.0998543, 0, 0, -0.0998543, -0.000000000000003775, 186.773862)"/>
<path fill="none" stroke-width="5" stroke-linecap="round" stroke-linejoin="round" stroke="rgb(100%, 39.988708%, 0%)" stroke-opacity="1" stroke-miterlimit="10" d="M 707.515192 934.725474 L 707.515192 934.960191 L 707.593431 935.429625 L 707.63255 935.703462 L 707.749909 935.938179 L 707.906387 936.407612 L 708.023745 936.642329 L 708.141104 936.837927 L 708.297582 937.072644 L 708.45406 937.268241 L 708.806135 937.620317 L 709.040852 937.776795 L 709.19733 937.933273 L 709.471167 938.089751 L 709.666764 938.207109 L 709.901481 938.324468 L 710.097079 938.402707 L 710.370915 938.520065 L 710.605632 938.559185 L 710.879468 938.598304 L 711.114185 938.676543 L 711.896575 938.676543 L 712.131292 938.598304 L 712.366009 938.559185 L 712.639846 938.520065 L 712.874563 938.402707 L 713.10928 938.324468 L 713.343997 938.207109 L 713.539594 938.089751 L 713.774311 937.933273 L 714.361104 937.463839 L 714.556701 937.268241 L 714.713179 937.072644 L 714.830537 936.837927 L 714.987015 936.642329 L 715.104374 936.407612 L 715.260852 935.938179 L 715.37821 935.703462 L 715.41733 935.429625 L 715.495569 934.960191 L 715.495569 934.725474 " transform="matrix(0.0998543, 0, 0, -0.0998543, -0.000000000000003775, 186.773862)"/>
<path fill="none" stroke-width="5" stroke-linecap="round" stroke-linejoin="round" stroke="rgb(100%, 39.988708%, 0%)" stroke-opacity="1" stroke-miterlimit="10" d="M 2300.148084 934.647235 L 2300.148084 934.451638 L 2300.187204 934.177801 L 2300.187204 933.943084 L 2300.265443 933.669248 L 2300.343682 933.434531 L 2300.46104 933.160694 L 2300.539279 932.965097 L 2300.773996 932.495663 L 2301.24343 931.908871 L 2301.439027 931.713273 L 2301.634625 931.595915 L 2301.830222 931.439437 L 2302.064939 931.282959 L 2302.534373 931.048242 L 2302.729971 930.930883 L 2302.964688 930.852644 L 2303.238524 930.774405 L 2303.473241 930.774405 L 2303.747078 930.735286 L 2303.981795 930.696166 L 2304.255631 930.696166 L 2304.529468 930.735286 L 2304.764185 930.774405 L 2304.998902 930.774405 L 2305.272738 930.852644 L 2305.507455 930.930883 L 2305.703052 931.048242 L 2305.976889 931.1656 L 2306.172486 931.282959 L 2306.407203 931.439437 L 2306.602801 931.595915 L 2306.798398 931.713273 L 2306.993996 931.908871 L 2307.46343 932.495663 L 2307.698147 932.965097 L 2307.815505 933.160694 L 2307.893744 933.434531 L 2307.971983 933.669248 L 2308.050222 933.943084 L 2308.089342 934.177801 L 2308.089342 934.647235 " transform="matrix(0.0998543, 0, 0, -0.0998543, -0.000000000000003775, 186.773862)"/>
<path fill="none" stroke-width="5" stroke-linecap="round" stroke-linejoin="round" stroke="rgb(100%, 39.988708%, 0%)" stroke-opacity="1" stroke-miterlimit="10" d="M 2300.148084 934.725474 L 2300.148084 934.960191 L 2300.187204 935.194908 L 2300.187204 935.429625 L 2300.265443 935.703462 L 2300.343682 935.938179 L 2300.46104 936.172896 L 2300.539279 936.407612 L 2300.656638 936.642329 L 2300.773996 936.837927 L 2300.930474 937.072644 L 2301.24343 937.463839 L 2301.830222 937.933273 L 2302.064939 938.089751 L 2302.534373 938.324468 L 2302.729971 938.402707 L 2302.964688 938.520065 L 2303.238524 938.559185 L 2303.473241 938.598304 L 2303.747078 938.676543 L 2304.529468 938.676543 L 2304.764185 938.598304 L 2304.998902 938.559185 L 2305.272738 938.520065 L 2305.507455 938.402707 L 2305.703052 938.324468 L 2305.976889 938.207109 L 2306.172486 938.089751 L 2306.407203 937.933273 L 2306.993996 937.463839 L 2307.306952 937.072644 L 2307.46343 936.837927 L 2307.580788 936.642329 L 2307.815505 936.172896 L 2307.971983 935.703462 L 2308.050222 935.429625 L 2308.089342 935.194908 L 2308.089342 934.725474 " transform="matrix(0.0998543, 0, 0, -0.0998543, -0.000000000000003775, 186.773862)"/>
<path fill="none" stroke-width="5" stroke-linecap="round" stroke-linejoin="round" stroke="rgb(100%, 80.076599%, 0%)" stroke-opacity="1" stroke-miterlimit="10" d="M 695.740224 934.608116 L 695.779343 933.669248 L 695.857582 932.652141 L 696.01406 931.635034 L 696.248777 930.657047 L 696.874689 928.701072 L 697.305004 927.762204 L 697.774438 926.862456 L 698.282991 926.001827 L 698.908903 925.141198 L 699.534815 924.358808 L 700.199846 923.615538 L 700.943117 922.911387 L 701.725507 922.246355 L 702.547016 921.620443 L 703.407645 921.07277 L 704.307393 920.564217 L 705.207142 920.133902 L 706.14601 919.742708 L 707.123997 919.429752 L 708.101984 919.155915 L 709.119091 918.960318 L 710.097079 918.842959 L 711.153305 918.76472 L 712.170412 918.76472 L 713.187519 918.842959 L 714.165506 918.960318 L 715.221732 919.155915 L 716.1606 919.429752 L 717.138588 919.742708 L 718.116575 920.133902 L 719.016323 920.564217 L 719.916072 921.07277 L 720.776701 921.620443 L 721.559091 922.246355 L 722.341481 922.911387 L 723.12387 923.615538 L 723.788902 924.358808 L 724.414814 925.141198 L 725.001606 926.001827 L 725.51016 926.862456 L 726.018713 927.762204 L 726.409908 928.701072 L 726.761984 929.679059 L 727.074939 930.657047 L 727.309656 931.635034 L 727.466134 932.652141 L 727.544373 933.669248 L 727.583493 934.608116 " transform="matrix(0.0998543, 0, 0, -0.0998543, -0.000000000000003775, 186.773862)"/>
<path fill="none" stroke-width="5" stroke-linecap="round" stroke-linejoin="round" stroke="rgb(100%, 80.076599%, 0%)" stroke-opacity="1" stroke-miterlimit="10" d="M 695.740224 934.725474 L 695.779343 935.703462 L 695.857582 936.720568 L 696.01406 937.737675 L 696.248777 938.715663 L 696.561733 939.73277 L 696.874689 940.632518 L 697.305004 941.571386 L 697.774438 942.510254 L 698.282991 943.370883 L 699.534815 945.013901 L 700.199846 945.796291 L 700.943117 946.461323 L 701.725507 947.126354 L 702.547016 947.752266 L 703.407645 948.299939 L 704.307393 948.808493 L 705.207142 949.238807 L 706.14601 949.630002 L 707.123997 949.982077 L 708.101984 950.216794 L 709.119091 950.412392 L 710.097079 950.52975 L 711.153305 950.607989 L 712.170412 950.607989 L 713.187519 950.52975 L 714.165506 950.412392 L 715.221732 950.216794 L 716.1606 949.982077 L 717.138588 949.630002 L 718.116575 949.238807 L 719.016323 948.808493 L 719.916072 948.299939 L 720.776701 947.752266 L 721.559091 947.126354 L 723.12387 945.796291 L 723.788902 945.013901 L 724.414814 944.192392 L 725.001606 943.370883 L 725.51016 942.510254 L 726.018713 941.571386 L 726.409908 940.632518 L 726.761984 939.73277 L 727.074939 938.715663 L 727.309656 937.737675 L 727.466134 936.720568 L 727.544373 935.703462 L 727.583493 934.725474 " transform="matrix(0.0998543, 0, 0, -0.0998543, -0.000000000000003775, 186.773862)"/>
<path fill="none" stroke-width="5" stroke-linecap="round" stroke-linejoin="round" stroke="rgb(100%, 80.076599%, 0%)" stroke-opacity="1" stroke-miterlimit="10" d="M 2288.06016 934.608116 L 2288.09928 933.669248 L 2288.177519 932.652141 L 2288.333997 931.635034 L 2288.568714 930.657047 L 2289.194625 928.701072 L 2289.62494 927.762204 L 2290.094374 926.862456 L 2290.602927 926.001827 L 2291.228839 925.141198 L 2291.854751 924.358808 L 2292.519783 923.615538 L 2293.263053 922.911387 L 2294.045443 922.246355 L 2294.866952 921.620443 L 2295.727581 921.07277 L 2296.62733 920.564217 L 2297.527078 920.133902 L 2298.465946 919.742708 L 2299.443933 919.429752 L 2300.421921 919.155915 L 2301.439027 918.960318 L 2302.456134 918.842959 L 2303.473241 918.76472 L 2304.490348 918.76472 L 2305.507455 918.842959 L 2306.485442 918.960318 L 2307.541669 919.155915 L 2308.480537 919.429752 L 2309.458524 919.742708 L 2310.436511 920.133902 L 2311.33626 920.564217 L 2312.236008 921.07277 L 2313.096637 921.620443 L 2313.879027 922.246355 L 2314.661417 922.911387 L 2315.443807 923.615538 L 2316.108838 924.358808 L 2316.73475 925.141198 L 2317.321543 926.001827 L 2317.830096 926.862456 L 2318.338649 927.762204 L 2318.768964 928.701072 L 2319.394876 930.657047 L 2319.629593 931.635034 L 2319.786071 932.652141 L 2319.86431 933.669248 L 2319.903429 934.608116 " transform="matrix(0.0998543, 0, 0, -0.0998543, -0.000000000000003775, 186.773862)"/>
<path fill="none" stroke-width="5" stroke-linecap="round" stroke-linejoin="round" stroke="rgb(100%, 80.076599%, 0%)" stroke-opacity="1" stroke-miterlimit="10" d="M 2288.06016 934.725474 L 2288.09928 935.703462 L 2288.177519 936.720568 L 2288.333997 937.737675 L 2288.568714 938.715663 L 2288.881669 939.73277 L 2289.194625 940.632518 L 2289.62494 941.571386 L 2290.094374 942.510254 L 2290.602927 943.370883 L 2291.854751 945.013901 L 2292.519783 945.796291 L 2293.263053 946.461323 L 2294.045443 947.126354 L 2294.866952 947.752266 L 2295.727581 948.299939 L 2296.62733 948.808493 L 2297.527078 949.238807 L 2298.465946 949.630002 L 2299.443933 949.982077 L 2300.421921 950.216794 L 2301.439027 950.412392 L 2302.456134 950.52975 L 2303.473241 950.607989 L 2304.490348 950.607989 L 2305.507455 950.52975 L 2306.485442 950.412392 L 2307.541669 950.216794 L 2308.480537 949.982077 L 2309.458524 949.630002 L 2310.436511 949.238807 L 2311.33626 948.808493 L 2312.236008 948.299939 L 2313.096637 947.752266 L 2313.879027 947.126354 L 2315.443807 945.796291 L 2316.108838 945.013901 L 2316.73475 944.192392 L 2317.321543 943.370883 L 2317.830096 942.510254 L 2318.338649 941.571386 L 2318.768964 940.632518 L 2319.08192 939.73277 L 2319.394876 938.715663 L 2319.629593 937.737675 L 2319.786071 936.720568 L 2319.86431 935.703462 L 2319.903429 934.725474 " transform="matrix(0.0998543, 0, 0, -0.0998543, -0.000000000000003775, 186.773862)"/>
<path fill="none" stroke-width="5" stroke-linecap="round" stroke-linejoin="round" stroke="rgb(80.076599%, 100%, 0%)" stroke-opacity="1" stroke-miterlimit="10" d="M 676.454313 934.608116 L 676.493432 932.378304 L 676.728149 930.109374 L 677.119344 927.840443 L 677.627897 925.610632 L 678.253809 923.380821 L 679.075319 921.229248 L 679.975067 919.116796 L 681.070413 917.121701 L 682.243998 915.165727 L 683.574061 913.248871 L 684.982363 911.488494 L 686.547142 909.767236 L 688.190161 908.163337 L 689.950538 906.676796 L 691.789155 905.307614 L 693.70601 904.05579 L 695.701104 902.921325 L 697.774438 901.904218 L 699.92601 901.082708 L 702.077582 900.339438 L 704.307393 899.752645 L 706.576324 899.322331 L 708.845255 899.009375 L 711.153305 898.852897 L 713.461355 898.852897 L 715.769405 899.009375 L 717.999217 899.322331 L 720.268147 899.752645 L 722.497959 900.339438 L 724.68865 901.082708 L 726.801103 901.904218 L 728.913556 902.921325 L 730.869531 904.05579 L 732.825505 905.307614 L 734.664122 906.676796 L 736.385379 908.163337 L 738.067518 909.767236 L 739.632297 911.488494 L 741.040599 913.248871 L 742.370662 915.165727 L 743.544247 917.121701 L 744.639593 919.116796 L 745.539341 921.229248 L 746.360851 923.41994 L 746.986763 925.610632 L 747.495316 927.840443 L 747.886511 930.109374 L 748.121228 932.378304 L 748.160347 934.608116 " transform="matrix(0.0998543, 0, 0, -0.0998543, -0.000000000000003775, 186.773862)"/>
<path fill="none" stroke-width="5" stroke-linecap="round" stroke-linejoin="round" stroke="rgb(80.076599%, 100%, 0%)" stroke-opacity="1" stroke-miterlimit="10" d="M 676.454313 934.764594 L 676.493432 936.955285 L 676.728149 939.263336 L 677.119344 941.532266 L 677.627897 943.801197 L 678.253809 945.991889 L 679.075319 948.143461 L 679.975067 950.255914 L 681.070413 952.251008 L 682.243998 954.246102 L 683.574061 956.123838 L 684.982363 957.923335 L 686.547142 959.605473 L 688.190161 961.209373 L 689.950538 962.695913 L 691.789155 964.065096 L 693.70601 965.356039 L 695.701104 966.451385 L 697.774438 967.468492 L 699.92601 968.329121 L 702.077582 969.033272 L 704.307393 969.620064 L 706.576324 970.050378 L 708.845255 970.363334 L 711.153305 970.480693 L 713.461355 970.480693 L 715.769405 970.363334 L 717.999217 970.050378 L 720.268147 969.620064 L 722.497959 969.033272 L 724.68865 968.329121 L 726.801103 967.468492 L 728.913556 966.451385 L 730.869531 965.31692 L 732.825505 964.065096 L 734.664122 962.695913 L 736.385379 961.209373 L 738.067518 959.605473 L 739.632297 957.923335 L 741.040599 956.123838 L 742.370662 954.206983 L 743.544247 952.251008 L 744.639593 950.255914 L 745.539341 948.143461 L 746.360851 945.991889 L 746.986763 943.801197 L 747.495316 941.532266 L 747.886511 939.263336 L 748.121228 936.955285 L 748.160347 934.764594 " transform="matrix(0.0998543, 0, 0, -0.0998543, -0.000000000000003775, 186.773862)"/>
<path fill="none" stroke-width="5" stroke-linecap="round" stroke-linejoin="round" stroke="rgb(80.076599%, 100%, 0%)" stroke-opacity="1" stroke-miterlimit="10" d="M 2267.444186 934.608116 L 2267.522425 932.378304 L 2267.718023 930.109374 L 2268.148337 927.840443 L 2268.65689 925.610632 L 2269.282802 923.41994 L 2270.104312 921.229248 L 2271.00406 919.116796 L 2272.099406 917.121701 L 2273.233871 915.165727 L 2274.563934 913.248871 L 2276.011356 911.488494 L 2277.576135 909.767236 L 2279.219154 908.163337 L 2280.979531 906.676796 L 2282.818148 905.307614 L 2284.735003 904.05579 L 2286.730097 902.921325 L 2288.80343 901.904218 L 2290.955003 901.082708 L 2293.106575 900.339438 L 2295.336386 899.752645 L 2297.605317 899.322331 L 2299.874248 899.009375 L 2302.143178 898.852897 L 2304.490348 898.852897 L 2306.798398 899.009375 L 2309.02821 899.322331 L 2311.29714 899.752645 L 2313.526952 900.339438 L 2315.717643 901.082708 L 2317.830096 901.904218 L 2319.903429 902.921325 L 2321.898524 904.05579 L 2323.854498 905.307614 L 2325.693115 906.676796 L 2327.414372 908.163337 L 2329.096511 909.767236 L 2330.622171 911.488494 L 2332.069592 913.248871 L 2333.399655 915.165727 L 2334.57324 917.121701 L 2335.668586 919.116796 L 2336.568334 921.229248 L 2337.389844 923.380821 L 2338.015756 925.610632 L 2338.524309 927.840443 L 2338.915504 930.109374 L 2339.111101 932.378304 L 2339.18934 934.608116 " transform="matrix(0.0998543, 0, 0, -0.0998543, -0.000000000000003775, 186.773862)"/>
<path fill="none" stroke-width="5" stroke-linecap="round" stroke-linejoin="round" stroke="rgb(80.076599%, 100%, 0%)" stroke-opacity="1" stroke-miterlimit="10" d="M 2267.444186 934.764594 L 2267.522425 936.955285 L 2267.718023 939.263336 L 2268.148337 941.532266 L 2268.65689 943.801197 L 2269.282802 945.991889 L 2270.104312 948.143461 L 2271.00406 950.255914 L 2272.099406 952.251008 L 2273.233871 954.206983 L 2274.563934 956.123838 L 2276.011356 957.923335 L 2277.576135 959.605473 L 2279.219154 961.209373 L 2280.979531 962.695913 L 2282.818148 964.065096 L 2284.735003 965.31692 L 2286.730097 966.451385 L 2288.80343 967.468492 L 2290.955003 968.329121 L 2293.106575 969.033272 L 2295.336386 969.620064 L 2297.605317 970.050378 L 2299.874248 970.363334 L 2302.143178 970.480693 L 2304.490348 970.480693 L 2306.798398 970.363334 L 2309.02821 970.050378 L 2311.29714 969.620064 L 2313.526952 969.033272 L 2315.717643 968.329121 L 2317.830096 967.468492 L 2319.903429 966.451385 L 2321.898524 965.356039 L 2323.854498 964.065096 L 2325.693115 962.695913 L 2327.414372 961.209373 L 2329.096511 959.605473 L 2330.622171 957.923335 L 2332.069592 956.123838 L 2333.399655 954.246102 L 2334.57324 952.251008 L 2335.668586 950.255914 L 2336.568334 948.143461 L 2337.389844 945.991889 L 2338.015756 943.801197 L 2338.524309 941.532266 L 2338.915504 939.263336 L 2339.111101 936.955285 L 2339.18934 934.764594 " transform="matrix(0.0998543, 0, 0, -0.0998543, -0.000000000000003775, 186.773862)"/>
<path fill="none" stroke-width="5" stroke-linecap="round" stroke-linejoin="round" stroke="rgb(39.988708%, 100%, 0%)" stroke-opacity="1" stroke-miterlimit="10" d="M 650.166012 934.608116 L 650.28337 930.617927 L 650.674565 926.5495 L 651.339597 922.520192 L 652.239345 918.530003 L 653.41293 914.618054 L 654.821232 910.784343 L 656.46425 907.028872 L 658.381106 903.429878 L 660.493558 899.909123 L 662.840728 896.583966 L 665.422615 893.376168 L 668.16098 890.363967 L 671.094942 887.508243 L 674.224501 884.887237 L 677.510539 882.422709 L 680.953055 880.192898 L 684.473809 878.197804 L 688.190161 876.437426 L 691.984752 874.911766 L 695.896702 873.620823 L 699.847771 872.564596 L 703.877079 871.782206 L 707.906387 871.273653 L 712.013934 870.999816 L 716.121481 870.999816 L 720.189908 871.273653 L 724.258336 871.782206 L 728.287644 872.564596 L 732.238713 873.620823 L 736.150662 874.911766 L 739.945253 876.437426 L 743.622486 878.197804 L 747.18236 880.192898 L 750.624876 882.422709 L 753.910913 884.887237 L 757.040473 887.547363 L 759.974435 890.363967 L 762.7128 893.415287 L 765.294686 896.583966 L 767.641856 899.948243 L 769.754309 903.429878 L 771.632045 907.028872 L 773.314183 910.784343 L 774.722485 914.618054 L 775.89607 918.530003 L 776.795818 922.520192 L 777.42173 926.5495 L 777.852044 930.617927 L 777.969403 934.608116 " transform="matrix(0.0998543, 0, 0, -0.0998543, -0.000000000000003775, 186.773862)"/>
<path fill="none" stroke-width="5" stroke-linecap="round" stroke-linejoin="round" stroke="rgb(39.988708%, 100%, 0%)" stroke-opacity="1" stroke-miterlimit="10" d="M 650.166012 934.764594 L 650.28337 938.793902 L 650.674565 942.82321 L 651.339597 946.852518 L 652.239345 950.842706 L 653.41293 954.754656 L 654.821232 958.588366 L 656.46425 962.343838 L 658.381106 965.942831 L 660.493558 969.424467 L 662.840728 972.788743 L 665.422615 975.996542 L 668.16098 979.008743 L 671.094942 981.864466 L 674.224501 984.485472 L 677.510539 986.910881 L 680.953055 989.140692 L 684.473809 991.174906 L 688.190161 992.974403 L 691.984752 994.460944 L 695.896702 995.751887 L 699.847771 996.768994 L 703.877079 997.551384 L 707.906387 998.099057 L 712.013934 998.372893 L 716.121481 998.372893 L 720.189908 998.099057 L 724.258336 997.551384 L 728.287644 996.768994 L 732.238713 995.751887 L 736.150662 994.460944 L 739.945253 992.935283 L 743.622486 991.135786 L 747.18236 989.140692 L 750.624876 986.910881 L 753.910913 984.485472 L 757.040473 981.825347 L 759.974435 979.008743 L 762.7128 975.996542 L 765.294686 972.788743 L 767.641856 969.424467 L 769.754309 965.942831 L 771.632045 962.343838 L 773.314183 958.588366 L 774.722485 954.754656 L 775.89607 950.842706 L 776.795818 946.852518 L 777.42173 942.82321 L 777.852044 938.754782 L 777.969403 934.764594 " transform="matrix(0.0998543, 0, 0, -0.0998543, -0.000000000000003775, 186.773862)"/>
<path fill="none" stroke-width="5" stroke-linecap="round" stroke-linejoin="round" stroke="rgb(39.988708%, 100%, 0%)" stroke-opacity="1" stroke-miterlimit="10" d="M 2237.635131 934.608116 L 2237.752489 930.617927 L 2238.182804 926.5495 L 2238.808716 922.520192 L 2239.747583 918.530003 L 2240.921168 914.618054 L 2242.32947 910.784343 L 2243.972489 907.028872 L 2245.889344 903.429878 L 2248.001797 899.948243 L 2250.348967 896.583966 L 2252.891734 893.415287 L 2255.669218 890.363967 L 2258.60318 887.547363 L 2261.69362 884.887237 L 2264.979658 882.422709 L 2268.422173 880.192898 L 2272.021167 878.197804 L 2275.6984 876.437426 L 2279.492991 874.911766 L 2283.365821 873.620823 L 2287.31689 872.564596 L 2291.385317 871.782206 L 2295.453745 871.273653 L 2299.522172 870.999816 L 2303.5906 870.999816 L 2307.698147 871.273653 L 2311.766574 871.782206 L 2315.795882 872.564596 L 2319.746951 873.620823 L 2323.619781 874.911766 L 2327.414372 876.437426 L 2331.130724 878.197804 L 2334.690598 880.192898 L 2338.133114 882.422709 L 2341.419152 884.887237 L 2344.509592 887.508243 L 2347.482673 890.363967 L 2350.221038 893.376168 L 2352.763805 896.583966 L 2355.110975 899.909123 L 2357.223428 903.429878 L 2359.140283 907.028872 L 2360.783302 910.784343 L 2362.230723 914.618054 L 2363.404308 918.530003 L 2364.304056 922.520192 L 2364.969088 926.5495 L 2365.360283 930.617927 L 2365.477641 934.608116 " transform="matrix(0.0998543, 0, 0, -0.0998543, -0.000000000000003775, 186.773862)"/>
<path fill="none" stroke-width="5" stroke-linecap="round" stroke-linejoin="round" stroke="rgb(39.988708%, 100%, 0%)" stroke-opacity="1" stroke-miterlimit="10" d="M 2237.635131 934.764594 L 2237.752489 938.754782 L 2238.182804 942.82321 L 2238.808716 946.852518 L 2239.747583 950.842706 L 2240.921168 954.754656 L 2242.32947 958.588366 L 2243.972489 962.343838 L 2245.889344 965.942831 L 2248.001797 969.424467 L 2250.348967 972.788743 L 2252.891734 975.996542 L 2255.669218 979.008743 L 2258.60318 981.825347 L 2261.69362 984.485472 L 2264.979658 986.910881 L 2268.422173 989.140692 L 2272.021167 991.135786 L 2275.6984 992.935283 L 2279.492991 994.460944 L 2283.365821 995.751887 L 2287.31689 996.768994 L 2291.385317 997.551384 L 2295.453745 998.099057 L 2299.522172 998.372893 L 2303.5906 998.372893 L 2307.698147 998.099057 L 2311.766574 997.551384 L 2315.795882 996.768994 L 2319.746951 995.751887 L 2323.619781 994.460944 L 2327.414372 992.974403 L 2331.130724 991.174906 L 2334.690598 989.140692 L 2338.133114 986.910881 L 2341.419152 984.485472 L 2344.509592 981.864466 L 2347.482673 979.008743 L 2350.221038 975.996542 L 2352.763805 972.788743 L 2355.110975 969.424467 L 2357.223428 965.942831 L 2359.140283 962.343838 L 2360.783302 958.588366 L 2362.230723 954.754656 L 2363.404308 950.842706 L 2364.304056 946.852518 L 2364.969088 942.82321 L 2365.360283 938.793902 L 2365.477641 934.764594 " transform="matrix(0.0998543, 0, 0, -0.0998543, -0.000000000000003775, 186.773862)"/>
<path fill="none" stroke-width="5" stroke-linecap="round" stroke-linejoin="round" stroke="rgb(0%, 100%, 0%)" stroke-opacity="1" stroke-miterlimit="10" d="M 617.501233 934.568996 L 617.696831 928.309877 L 618.322743 921.933399 L 619.339849 915.63516 L 620.787271 909.415161 L 622.586768 903.312519 L 624.816579 897.288117 L 627.437585 891.459312 L 630.410667 885.826105 L 633.735824 880.310256 L 637.413056 875.107363 L 641.442364 870.100068 L 645.745509 865.405729 L 650.400729 860.946106 L 655.290666 856.79944 L 660.41532 853.004849 L 665.81381 849.523213 L 671.447017 846.393654 L 677.236702 843.655289 L 683.182866 841.22988 L 689.285507 839.234786 L 695.505507 837.591767 L 701.842865 836.418183 L 708.219343 835.596673 L 714.63494 835.205478 L 721.050537 835.205478 L 727.466134 835.635793 L 733.842612 836.418183 L 740.17997 837.670006 L 746.39997 839.313025 L 752.502611 841.308119 L 758.448775 843.694409 L 764.23846 846.471893 L 769.871667 849.601452 L 775.231038 853.122207 L 780.394812 856.916798 L 785.284748 861.063465 L 789.900849 865.483968 L 794.243113 870.217426 L 798.272421 875.185602 L 801.949653 880.466734 L 805.274811 885.865225 L 808.247892 891.537551 L 810.829779 897.366356 L 813.05959 903.351639 L 814.898206 909.45428 L 816.306508 915.67428 L 817.362735 921.972519 L 817.988647 928.309877 L 818.184244 934.568996 " transform="matrix(0.0998543, 0, 0, -0.0998543, -0.000000000000003775, 186.773862)"/>
<path fill="none" stroke-width="5" stroke-linecap="round" stroke-linejoin="round" stroke="rgb(0%, 100%, 0%)" stroke-opacity="1" stroke-miterlimit="10" d="M 617.501233 934.803713 L 617.696831 941.062832 L 618.322743 947.43931 L 619.339849 953.737549 L 620.787271 959.957549 L 622.586768 966.06019 L 624.816579 972.084592 L 627.437585 977.913397 L 630.410667 983.585724 L 633.735824 989.023334 L 637.413056 994.265346 L 641.442364 999.272641 L 645.745509 1004.0061 L 650.400729 1008.426603 L 655.290666 1012.53415 L 660.41532 1016.367861 L 665.81381 1019.849496 L 671.447017 1022.979056 L 677.236702 1025.71742 L 683.182866 1028.142829 L 689.285507 1030.137923 L 695.505507 1031.741823 L 701.842865 1032.954527 L 708.219343 1033.776036 L 714.63494 1034.167231 L 721.050537 1034.167231 L 727.466134 1033.736917 L 733.842612 1032.915407 L 740.17997 1031.702703 L 746.39997 1030.059684 L 752.502611 1028.06459 L 758.448775 1025.678301 L 764.23846 1022.900817 L 769.871667 1019.771257 L 775.231038 1016.250502 L 780.394812 1012.455911 L 785.284748 1008.309245 L 789.900849 1003.888742 L 794.243113 999.155283 L 798.272421 994.147988 L 801.949653 988.945095 L 805.274811 983.507485 L 808.247892 977.835158 L 810.829779 972.006353 L 813.05959 966.02107 L 814.898206 959.918429 L 816.306508 953.698429 L 817.362735 947.400191 L 817.988647 941.023713 L 818.184244 934.803713 " transform="matrix(0.0998543, 0, 0, -0.0998543, -0.000000000000003775, 186.773862)"/>
<path fill="none" stroke-width="5" stroke-linecap="round" stroke-linejoin="round" stroke="rgb(0%, 100%, 0%)" stroke-opacity="1" stroke-miterlimit="10" d="M 2197.420289 934.568996 L 2197.655006 928.309877 L 2198.280918 921.972519 L 2199.298025 915.67428 L 2200.706327 909.45428 L 2202.544943 903.351639 L 2204.774755 897.366356 L 2207.395761 891.537551 L 2210.368842 885.865225 L 2213.694 880.466734 L 2217.371232 875.185602 L 2221.361421 870.217426 L 2225.703685 865.483968 L 2230.319785 861.063465 L 2235.248841 856.916798 L 2240.373495 853.122207 L 2245.771986 849.601452 L 2251.366074 846.471893 L 2257.194878 843.694409 L 2263.141042 841.308119 L 2269.243683 839.313025 L 2275.463683 837.670006 L 2281.801041 836.418183 L 2288.138399 835.635793 L 2294.553996 835.205478 L 2301.008713 835.205478 L 2307.42431 835.596673 L 2313.800788 836.418183 L 2320.099027 837.591767 L 2326.358146 839.234786 L 2332.421668 841.22988 L 2338.406951 843.655289 L 2344.196636 846.393654 L 2349.790724 849.523213 L 2355.189214 853.004849 L 2360.352987 856.79944 L 2365.242924 860.946106 L 2369.898144 865.405729 L 2374.201289 870.100068 L 2378.191477 875.107363 L 2381.86871 880.310256 L 2385.232986 885.826105 L 2388.166949 891.459312 L 2390.787955 897.288117 L 2393.017766 903.312519 L 2394.856382 909.415161 L 2396.303804 915.63516 L 2397.32091 921.933399 L 2397.907703 928.309877 L 2398.14242 934.568996 " transform="matrix(0.0998543, 0, 0, -0.0998543, -0.000000000000003775, 186.773862)"/>
<path fill="none" stroke-width="5" stroke-linecap="round" stroke-linejoin="round" stroke="rgb(0%, 100%, 0%)" stroke-opacity="1" stroke-miterlimit="10" d="M 2197.420289 934.803713 L 2197.655006 941.023713 L 2198.280918 947.400191 L 2199.298025 953.698429 L 2200.706327 959.918429 L 2202.544943 966.02107 L 2204.774755 972.006353 L 2207.395761 977.835158 L 2210.368842 983.507485 L 2213.694 988.945095 L 2217.371232 994.147988 L 2221.361421 999.155283 L 2225.703685 1003.888742 L 2230.319785 1008.309245 L 2235.248841 1012.455911 L 2240.373495 1016.250502 L 2245.771986 1019.771257 L 2251.366074 1022.900817 L 2257.194878 1025.678301 L 2263.141042 1028.06459 L 2269.243683 1030.059684 L 2275.463683 1031.702703 L 2281.801041 1032.915407 L 2288.138399 1033.736917 L 2294.553996 1034.167231 L 2301.008713 1034.167231 L 2307.42431 1033.776036 L 2313.800788 1032.954527 L 2320.099027 1031.741823 L 2326.358146 1030.137923 L 2332.421668 1028.142829 L 2338.406951 1025.71742 L 2344.196636 1022.979056 L 2349.790724 1019.849496 L 2355.189214 1016.367861 L 2360.352987 1012.53415 L 2365.242924 1008.426603 L 2369.898144 1004.0061 L 2374.201289 999.272641 L 2378.191477 994.265346 L 2381.86871 989.023334 L 2385.232986 983.585724 L 2388.166949 977.913397 L 2390.787955 972.084592 L 2393.017766 966.06019 L 2394.856382 959.957549 L 2396.303804 953.737549 L 2397.32091 947.43931 L 2397.907703 941.062832 L 2398.14242 934.803713 " transform="matrix(0.0998543, 0, 0, -0.0998543, -0.000000000000003775, 186.773862)"/>
<path fill="none" stroke-width="5" stroke-linecap="round" stroke-linejoin="round" stroke="rgb(0%, 100%, 39.988708%)" stroke-opacity="1" stroke-miterlimit="10" d="M 579.164128 934.529877 L 579.437964 925.493273 L 580.376832 916.300192 L 581.824253 907.224469 L 583.936706 898.226985 L 586.557712 889.385979 L 589.804631 880.740571 L 593.599222 872.329879 L 597.902366 864.153905 L 602.753183 856.290886 L 608.112554 848.779943 L 613.941359 841.581956 L 620.200478 834.775164 L 626.929032 828.398686 L 634.04878 822.413403 L 641.520603 816.936674 L 649.383622 811.929378 L 657.520477 807.430637 L 665.931168 803.440448 L 674.615696 800.037052 L 683.456702 797.142209 L 692.493306 794.873279 L 701.686387 793.112901 L 710.957707 791.978436 L 720.268147 791.391643 L 729.617707 791.430763 L 738.967266 792.056675 L 748.199467 793.269379 L 757.392548 795.029757 L 766.429152 797.376926 L 775.309277 800.310888 L 783.993805 803.792523 L 792.404497 807.782712 L 800.541352 812.359693 L 808.365251 817.366988 L 815.876194 822.882837 L 822.995942 828.829 L 829.685376 835.244598 L 835.983614 842.05139 L 841.812419 849.210257 L 847.17179 856.721201 L 851.983488 864.5451 L 856.325752 872.681955 L 860.081223 881.092646 L 863.328142 889.659816 L 865.988267 898.461702 L 868.061601 907.380947 L 869.548141 916.41755 L 870.487009 925.532393 L 870.760846 934.529877 " transform="matrix(0.0998543, 0, 0, -0.0998543, -0.000000000000003775, 186.773862)"/>
<path fill="none" stroke-width="5" stroke-linecap="round" stroke-linejoin="round" stroke="rgb(0%, 100%, 39.988708%)" stroke-opacity="1" stroke-miterlimit="10" d="M 579.164128 934.842833 L 579.437964 943.918556 L 580.376832 953.072517 L 581.824253 962.14824 L 583.936706 971.145724 L 586.557712 979.947611 L 589.804631 988.632139 L 593.599222 997.04283 L 597.902366 1005.218805 L 602.753183 1013.081823 L 608.112554 1020.592766 L 613.941359 1027.790753 L 620.200478 1034.597546 L 626.929032 1040.974023 L 634.04878 1046.959306 L 641.520603 1052.436036 L 649.383622 1057.443331 L 657.520477 1061.942073 L 665.931168 1065.893142 L 674.615696 1069.335657 L 683.456702 1072.191381 L 692.493306 1074.53855 L 701.686387 1076.259808 L 710.957707 1077.394274 L 720.268147 1077.981066 L 729.617707 1077.941946 L 738.967266 1077.316035 L 748.199467 1076.10333 L 757.392548 1074.303833 L 766.429152 1071.956664 L 775.309277 1069.061821 L 783.993805 1065.580186 L 792.404497 1061.550878 L 800.541352 1057.052136 L 808.365251 1052.005721 L 815.876194 1046.489872 L 822.995942 1040.543709 L 829.685376 1034.128112 L 835.983614 1027.360439 L 841.812419 1020.162452 L 847.17179 1012.651509 L 851.983488 1004.78849 L 856.325752 996.651635 L 860.081223 988.280063 L 863.328142 979.673774 L 865.988267 970.911007 L 868.061601 961.991762 L 869.548141 952.955159 L 870.487009 943.840317 L 870.760846 934.842833 " transform="matrix(0.0998543, 0, 0, -0.0998543, -0.000000000000003775, 186.773862)"/>
<path fill="none" stroke-width="5" stroke-linecap="round" stroke-linejoin="round" stroke="rgb(0%, 100%, 39.988708%)" stroke-opacity="1" stroke-miterlimit="10" d="M 2144.843688 934.529877 L 2145.156644 925.532393 L 2146.056392 916.41755 L 2147.582052 907.380947 L 2149.655386 898.461702 L 2152.315511 889.659816 L 2155.52331 881.092646 L 2159.317901 872.681955 L 2163.621046 864.5451 L 2168.471863 856.721201 L 2173.831234 849.210257 L 2179.620919 842.05139 L 2185.958277 835.244598 L 2192.647711 828.829 L 2199.767459 822.882837 L 2207.278402 817.366988 L 2215.102301 812.359693 L 2223.239156 807.782712 L 2231.649848 803.792523 L 2240.295256 800.310888 L 2249.214501 797.376926 L 2258.251105 795.029757 L 2267.405067 793.269379 L 2276.676387 792.056675 L 2285.986827 791.430763 L 2295.336386 791.391643 L 2304.685946 791.978436 L 2313.957266 793.112901 L 2323.111228 794.873279 L 2332.147831 797.142209 L 2341.027957 800.037052 L 2349.673365 803.440448 L 2358.123176 807.430637 L 2366.260031 811.929378 L 2374.08393 816.936674 L 2381.555754 822.413403 L 2388.675502 828.398686 L 2395.404055 834.775164 L 2401.663174 841.581956 L 2407.531099 848.779943 L 2412.85135 856.290886 L 2417.702167 864.153905 L 2422.044431 872.329879 L 2425.839022 880.740571 L 2429.046821 889.385979 L 2431.706947 898.226985 L 2433.78028 907.224469 L 2435.266821 916.300192 L 2436.166569 925.493273 L 2436.479525 934.529877 " transform="matrix(0.0998543, 0, 0, -0.0998543, -0.000000000000003775, 186.773862)"/>
<path fill="none" stroke-width="5" stroke-linecap="round" stroke-linejoin="round" stroke="rgb(0%, 100%, 39.988708%)" stroke-opacity="1" stroke-miterlimit="10" d="M 2144.843688 934.842833 L 2145.156644 943.840317 L 2146.056392 952.955159 L 2147.582052 961.991762 L 2149.655386 970.911007 L 2152.315511 979.673774 L 2155.52331 988.280063 L 2159.317901 996.651635 L 2163.621046 1004.78849 L 2168.471863 1012.651509 L 2173.831234 1020.162452 L 2179.620919 1027.360439 L 2185.958277 1034.128112 L 2192.647711 1040.543709 L 2199.767459 1046.489872 L 2207.278402 1052.005721 L 2215.102301 1057.052136 L 2223.239156 1061.550878 L 2231.649848 1065.580186 L 2240.295256 1069.061821 L 2249.214501 1071.956664 L 2258.251105 1074.303833 L 2267.405067 1076.10333 L 2276.676387 1077.316035 L 2285.986827 1077.941946 L 2295.336386 1077.981066 L 2304.685946 1077.394274 L 2313.957266 1076.259808 L 2323.111228 1074.53855 L 2332.147831 1072.191381 L 2341.027957 1069.335657 L 2349.673365 1065.893142 L 2358.123176 1061.942073 L 2366.260031 1057.443331 L 2374.08393 1052.436036 L 2381.555754 1046.959306 L 2388.675502 1040.974023 L 2395.404055 1034.597546 L 2401.663174 1027.790753 L 2407.531099 1020.592766 L 2412.85135 1013.081823 L 2417.702167 1005.218805 L 2422.044431 997.04283 L 2425.839022 988.632139 L 2429.046821 979.947611 L 2431.706947 971.145724 L 2433.78028 962.14824 L 2435.266821 953.072517 L 2436.166569 943.918556 L 2436.479525 934.842833 " transform="matrix(0.0998543, 0, 0, -0.0998543, -0.000000000000003775, 186.773862)"/>
<path fill="none" stroke-width="5" stroke-linecap="round" stroke-linejoin="round" stroke="rgb(0%, 100%, 80.076599%)" stroke-opacity="1" stroke-miterlimit="10" d="M 535.780608 934.490757 L 536.210922 922.089877 L 537.423626 909.571639 L 539.49696 897.131639 L 542.391802 884.887237 L 546.069035 872.838433 L 550.528657 860.985226 L 555.77067 849.523213 L 561.716833 838.374157 L 568.406267 827.616296 L 575.838971 817.366988 L 583.897587 807.547995 L 592.582115 798.276675 L 601.853435 789.553027 L 611.711548 781.455292 L 622.078214 773.983468 L 632.914314 767.215795 L 644.180729 761.113154 L 655.838339 755.714664 L 667.769785 751.098563 L 680.053306 747.225733 L 692.571545 744.135293 L 705.246261 741.827243 L 718.077456 740.340702 L 730.986889 739.636551 L 743.896322 739.75391 L 756.805756 740.653658 L 769.63695 742.374916 L 782.311667 744.878564 L 794.829905 748.125482 L 807.113427 752.15479 L 819.083992 756.966488 L 830.741602 762.482336 L 842.008017 768.702336 L 852.844117 775.548248 L 863.210783 783.09831 L 873.029776 791.235165 L 882.301097 799.958813 L 891.024744 809.230133 L 899.08336 818.970888 L 906.476945 829.181076 L 913.205498 839.821579 L 919.151661 850.853276 L 924.393674 862.19793 L 928.853296 873.85554 L 932.530529 885.708747 L 935.425371 897.796671 L 937.459585 910.041073 L 938.711409 922.324594 L 939.102604 934.490757 " transform="matrix(0.0998543, 0, 0, -0.0998543, -0.000000000000003775, 186.773862)"/>
<path fill="none" stroke-width="5" stroke-linecap="round" stroke-linejoin="round" stroke="rgb(0%, 100%, 80.076599%)" stroke-opacity="1" stroke-miterlimit="10" d="M 535.780608 934.881952 L 536.210922 947.282832 L 537.423626 959.801071 L 539.49696 972.201951 L 542.391802 984.485472 L 546.069035 996.534277 L 550.528657 1008.348364 L 555.77067 1019.849496 L 561.716833 1030.998552 L 568.406267 1041.717294 L 575.838971 1052.005721 L 583.897587 1061.824714 L 592.582115 1071.096035 L 601.853435 1079.819682 L 611.711548 1087.917418 L 622.078214 1095.389241 L 632.914314 1102.156914 L 644.180729 1108.259555 L 655.838339 1113.658046 L 667.769785 1118.235027 L 680.053306 1122.146976 L 692.571545 1125.198297 L 705.246261 1127.545466 L 718.077456 1129.032007 L 730.986889 1129.736158 L 743.896322 1129.6188 L 756.805756 1128.719051 L 769.63695 1126.997794 L 782.311667 1124.533265 L 794.829905 1121.247228 L 807.113427 1117.21792 L 819.083992 1112.406222 L 830.741602 1106.890373 L 842.008017 1100.670373 L 852.844117 1093.785342 L 863.210783 1086.274399 L 873.029776 1078.137544 L 882.301097 1069.413896 L 891.024744 1060.142576 L 899.08336 1050.401822 L 906.476945 1040.152514 L 913.205498 1029.512011 L 919.151661 1018.519433 L 924.393674 1007.174779 L 928.853296 995.51717 L 932.530529 983.624843 L 935.425371 971.576039 L 937.459585 959.331637 L 938.711409 947.048115 L 939.102604 934.881952 " transform="matrix(0.0998543, 0, 0, -0.0998543, -0.000000000000003775, 186.773862)"/>
<path fill="none" stroke-width="5" stroke-linecap="round" stroke-linejoin="round" stroke="rgb(0%, 100%, 80.076599%)" stroke-opacity="1" stroke-miterlimit="10" d="M 2076.50193 934.490757 L 2076.893125 922.324594 L 2078.184068 910.041073 L 2080.218282 897.796671 L 2083.074005 885.708747 L 2086.751237 873.85554 L 2091.21086 862.19793 L 2096.452872 850.853276 L 2102.438155 839.821579 L 2109.166708 829.181076 L 2116.560293 818.970888 L 2124.618909 809.230133 L 2133.303437 799.958813 L 2142.574757 791.235165 L 2152.43287 783.09831 L 2162.799536 775.548248 L 2173.635636 768.702336 L 2184.902051 762.482336 L 2196.520541 756.966488 L 2208.530226 752.15479 L 2220.813748 748.125482 L 2233.292867 744.878564 L 2246.006703 742.374916 L 2258.798778 740.653658 L 2271.708211 739.75391 L 2284.656764 739.636551 L 2297.566197 740.340702 L 2310.358272 741.827243 L 2323.032989 744.135293 L 2335.551227 747.225733 L 2347.834749 751.098563 L 2359.805314 755.714664 L 2371.423805 761.113154 L 2382.729339 767.215795 L 2393.526319 773.983468 L 2403.892986 781.455292 L 2413.751098 789.553027 L 2423.061538 798.276675 L 2431.746066 807.547995 L 2439.804682 817.366988 L 2447.198267 827.616296 L 2453.887701 838.374157 L 2459.872983 849.523213 L 2465.114996 860.985226 L 2469.574618 872.838433 L 2473.251851 884.887237 L 2476.107574 897.131639 L 2478.180907 909.571639 L 2479.432731 922.089877 L 2479.863045 934.490757 " transform="matrix(0.0998543, 0, 0, -0.0998543, -0.000000000000003775, 186.773862)"/>
<path fill="none" stroke-width="5" stroke-linecap="round" stroke-linejoin="round" stroke="rgb(0%, 100%, 80.076599%)" stroke-opacity="1" stroke-miterlimit="10" d="M 2076.50193 934.881952 L 2076.893125 947.048115 L 2078.184068 959.331637 L 2080.218282 971.576039 L 2083.074005 983.624843 L 2086.751237 995.51717 L 2091.21086 1007.174779 L 2096.452872 1018.519433 L 2102.438155 1029.512011 L 2109.166708 1040.152514 L 2116.560293 1050.401822 L 2124.618909 1060.142576 L 2133.303437 1069.413896 L 2142.574757 1078.137544 L 2152.43287 1086.274399 L 2162.799536 1093.785342 L 2173.635636 1100.670373 L 2184.902051 1106.890373 L 2196.520541 1112.406222 L 2208.530226 1117.21792 L 2220.813748 1121.247228 L 2233.292867 1124.533265 L 2246.006703 1126.997794 L 2258.798778 1128.719051 L 2271.708211 1129.6188 L 2284.656764 1129.736158 L 2297.566197 1129.032007 L 2310.358272 1127.545466 L 2323.032989 1125.198297 L 2335.551227 1122.146976 L 2347.834749 1118.235027 L 2359.805314 1113.658046 L 2371.423805 1108.259555 L 2382.729339 1102.156914 L 2393.526319 1095.389241 L 2403.892986 1087.917418 L 2413.751098 1079.819682 L 2423.061538 1071.096035 L 2431.746066 1061.824714 L 2439.804682 1052.005721 L 2447.198267 1041.717294 L 2453.887701 1030.998552 L 2459.872983 1019.849496 L 2465.114996 1008.348364 L 2469.574618 996.534277 L 2473.251851 984.485472 L 2476.107574 972.201951 L 2478.180907 959.801071 L 2479.432731 947.282832 L 2479.863045 934.881952 " transform="matrix(0.0998543, 0, 0, -0.0998543, -0.000000000000003775, 186.773862)"/>
<path fill="none" stroke-width="5" stroke-linecap="round" stroke-linejoin="round" stroke="rgb(0%, 80.076599%, 100%)" stroke-opacity="1" stroke-miterlimit="10" d="M 488.015704 934.490757 L 488.602496 918.099689 L 490.245515 901.591262 L 493.022999 885.200193 L 496.895829 869.043842 L 501.824886 853.161327 L 507.810168 837.630887 L 514.851678 822.491642 L 522.910294 807.90007 L 531.907777 793.777933 L 541.844129 780.281707 L 552.680229 767.411393 L 564.337839 755.284349 L 576.816958 743.861457 L 590.078467 733.299193 L 603.965888 723.597558 L 618.51834 714.795672 L 633.696704 706.893534 L 649.344502 699.969383 L 665.422615 694.02322 L 681.931042 689.094163 L 698.713305 685.221333 L 715.769405 682.36561 L 732.981983 680.605233 L 750.351039 679.861962 L 767.680976 680.214038 L 785.050032 681.62234 L 802.262609 684.047748 L 819.357829 687.568503 L 836.140092 692.067245 L 852.6094 697.583094 L 868.726632 704.03781 L 884.37443 711.392276 L 899.513675 719.685609 L 914.066127 728.83957 L 927.992667 738.775922 L 941.215057 749.533783 L 953.694176 760.956676 L 965.351785 773.0446 L 976.187885 785.797556 L 986.163357 799.059065 L 995.160841 812.868246 L 1003.180337 827.107743 L 1010.182727 841.738434 L 1016.207129 856.721201 L 1021.136186 871.977804 L 1025.048135 887.469124 L 1027.825619 903.116922 L 1029.468638 918.842959 L 1030.016311 934.490757 " transform="matrix(0.0998543, 0, 0, -0.0998543, -0.000000000000003775, 186.773862)"/>
<path fill="none" stroke-width="5" stroke-linecap="round" stroke-linejoin="round" stroke="rgb(0%, 80.076599%, 100%)" stroke-opacity="1" stroke-miterlimit="10" d="M 488.015704 934.881952 L 488.602496 951.273021 L 490.245515 967.781448 L 493.022999 984.133397 L 496.895829 1000.328868 L 501.824886 1016.211383 L 507.810168 1031.741823 L 514.851678 1046.841948 L 522.910294 1061.511758 L 531.907777 1075.633896 L 541.844129 1089.130122 L 552.680229 1101.961317 L 564.337839 1114.12748 L 576.816958 1125.472133 L 590.078467 1136.073516 L 603.965888 1145.775151 L 618.51834 1154.616157 L 633.696704 1162.479176 L 649.344502 1169.403326 L 665.422615 1175.34949 L 681.931042 1180.278546 L 698.713305 1184.151376 L 715.769405 1186.96798 L 732.981983 1188.767477 L 750.351039 1189.471628 L 767.680976 1189.158672 L 785.050032 1187.75037 L 802.262609 1185.285842 L 819.357829 1181.804206 L 836.140092 1177.305465 L 852.6094 1171.828735 L 868.726632 1165.334899 L 884.37443 1157.941314 L 899.513675 1149.647981 L 914.066127 1140.533139 L 927.992667 1130.596787 L 941.215057 1119.838926 L 953.694176 1108.416033 L 965.351785 1096.28899 L 976.187885 1083.575154 L 986.163357 1070.274525 L 995.160841 1056.504463 L 1003.180337 1042.264967 L 1010.182727 1027.634276 L 1016.207129 1012.651509 L 1021.136186 997.394906 L 1025.048135 981.903586 L 1027.825619 966.294907 L 1029.468638 950.52975 L 1030.016311 934.881952 " transform="matrix(0.0998543, 0, 0, -0.0998543, -0.000000000000003775, 186.773862)"/>
<path fill="none" stroke-width="5" stroke-linecap="round" stroke-linejoin="round" stroke="rgb(0%, 80.076599%, 100%)" stroke-opacity="1" stroke-miterlimit="10" d="M 1985.627342 934.490757 L 1986.175015 918.842959 L 1987.818034 903.116922 L 1990.595518 887.469124 L 1994.468348 871.977804 L 1999.436524 856.721201 L 2005.421807 841.738434 L 2012.463316 827.107743 L 2020.482812 812.868246 L 2029.480296 799.059065 L 2039.416648 785.797556 L 2050.252748 773.0446 L 2061.910358 760.956676 L 2074.389477 749.533783 L 2087.650986 738.775922 L 2101.577526 728.83957 L 2116.129978 719.685609 L 2131.269223 711.392276 L 2146.917021 704.03781 L 2162.995134 697.583094 L 2179.503561 692.067245 L 2196.285824 687.568503 L 2213.341924 684.047748 L 2230.593622 681.62234 L 2247.923558 680.214038 L 2265.292614 679.861962 L 2282.62255 680.605233 L 2299.835128 682.36561 L 2316.891228 685.221333 L 2333.712611 689.094163 L 2350.181919 694.02322 L 2366.299151 699.969383 L 2381.946949 706.893534 L 2397.086193 714.795672 L 2411.677765 723.597558 L 2425.565186 733.299193 L 2438.787575 743.861457 L 2451.266694 755.284349 L 2462.924304 767.411393 L 2473.799524 780.281707 L 2483.696756 793.777933 L 2492.733359 807.90007 L 2500.752856 822.491642 L 2507.794365 837.630887 L 2513.818767 853.161327 L 2518.747824 869.043842 L 2522.581534 885.200193 L 2525.398138 901.591262 L 2527.041157 918.099689 L 2527.627949 934.490757 " transform="matrix(0.0998543, 0, 0, -0.0998543, -0.000000000000003775, 186.773862)"/>
<path fill="none" stroke-width="5" stroke-linecap="round" stroke-linejoin="round" stroke="rgb(0%, 80.076599%, 100%)" stroke-opacity="1" stroke-miterlimit="10" d="M 1985.627342 934.881952 L 1986.175015 950.52975 L 1987.818034 966.294907 L 1990.595518 981.903586 L 1994.468348 997.394906 L 1999.436524 1012.651509 L 2005.421807 1027.634276 L 2012.463316 1042.264967 L 2020.482812 1056.504463 L 2029.480296 1070.274525 L 2039.416648 1083.575154 L 2050.252748 1096.28899 L 2061.910358 1108.416033 L 2074.389477 1119.838926 L 2087.650986 1130.596787 L 2101.577526 1140.533139 L 2116.129978 1149.647981 L 2131.269223 1157.941314 L 2146.917021 1165.334899 L 2162.995134 1171.828735 L 2179.503561 1177.305465 L 2196.285824 1181.804206 L 2213.341924 1185.285842 L 2230.593622 1187.75037 L 2247.923558 1189.158672 L 2265.292614 1189.471628 L 2282.62255 1188.767477 L 2299.835128 1186.96798 L 2316.891228 1184.151376 L 2333.712611 1180.278546 L 2350.181919 1175.34949 L 2366.299151 1169.403326 L 2381.946949 1162.479176 L 2397.086193 1154.616157 L 2411.677765 1145.775151 L 2425.565186 1136.073516 L 2438.787575 1125.472133 L 2451.266694 1114.12748 L 2462.924304 1101.961317 L 2473.799524 1089.130122 L 2483.696756 1075.633896 L 2492.733359 1061.511758 L 2500.752856 1046.841948 L 2507.794365 1031.741823 L 2513.818767 1016.211383 L 2518.747824 1000.328868 L 2522.581534 984.133397 L 2525.398138 967.781448 L 2527.041157 951.273021 L 2527.627949 934.881952 " transform="matrix(0.0998543, 0, 0, -0.0998543, -0.000000000000003775, 186.773862)"/>
<path fill="none" stroke-width="5" stroke-linecap="round" stroke-linejoin="round" stroke="rgb(0%, 39.988708%, 100%)" stroke-opacity="1" stroke-miterlimit="10" d="M 436.456209 934.490757 L 437.238599 913.248871 L 439.46841 891.928746 L 443.145643 870.804219 L 448.309416 849.953528 L 454.920611 829.454912 L 462.940107 809.425731 L 472.328786 789.983342 L 483.086647 771.166864 L 495.096332 753.054538 L 508.396961 735.763721 L 522.871174 719.333533 L 538.440733 703.920452 L 555.144758 689.446239 L 572.82677 676.106491 L 591.40853 663.901208 L 610.890038 652.90863 L 631.114818 643.089637 L 652.004628 634.639826 L 673.52035 627.480958 L 695.544626 621.652153 L 717.999217 617.192531 L 740.805882 614.14121 L 763.808146 612.498191 L 787.006006 612.263475 L 810.203867 613.35882 L 833.362608 615.862468 L 856.403991 619.735298 L 879.171537 624.899071 L 901.626127 631.392908 L 923.650403 639.099448 L 945.166126 648.057813 L 966.095056 658.072404 L 986.280715 669.22146 L 1005.762224 681.348503 L 1024.383104 694.453534 L 1042.025996 708.380074 L 1058.690901 723.128124 L 1074.338699 738.541205 L 1088.812912 754.619318 L 1102.074421 771.205984 L 1114.123226 788.301203 L 1124.841968 805.787618 L 1134.230646 823.665227 L 1142.250143 841.777553 L 1148.861338 860.085477 L 1154.025111 878.628118 L 1157.741463 897.248998 L 1159.971274 915.948116 L 1160.714545 934.490757 " transform="matrix(0.0998543, 0, 0, -0.0998543, -0.000000000000003775, 186.773862)"/>
<path fill="none" stroke-width="5" stroke-linecap="round" stroke-linejoin="round" stroke="rgb(0%, 39.988708%, 100%)" stroke-opacity="1" stroke-miterlimit="10" d="M 436.456209 934.881952 L 437.238599 956.123838 L 439.46841 977.443963 L 443.145643 998.568491 L 448.309416 1019.419182 L 454.920611 1039.917797 L 462.940107 1059.946979 L 472.328786 1079.389368 L 483.086647 1098.244965 L 495.096332 1116.318171 L 508.396961 1133.608988 L 522.871174 1150.039176 L 538.440733 1165.491377 L 555.144758 1179.887351 L 572.82677 1193.266219 L 591.40853 1205.471501 L 610.890038 1216.503199 L 631.114818 1226.283073 L 652.004628 1234.732884 L 673.52035 1241.891751 L 695.544626 1247.681437 L 717.999217 1252.141059 L 740.805882 1255.19238 L 763.808146 1256.874518 L 787.006006 1257.148354 L 810.203867 1255.97477 L 833.362608 1253.471122 L 856.403991 1249.637411 L 879.171537 1244.434518 L 901.626127 1237.940682 L 923.650403 1230.234142 L 945.166126 1221.314897 L 966.095056 1211.300306 L 986.280715 1200.15125 L 1005.762224 1188.024206 L 1024.383104 1174.919175 L 1042.025996 1160.953515 L 1058.690901 1146.244585 L 1074.338699 1130.831504 L 1088.812912 1114.753392 L 1102.074421 1098.127606 L 1114.123226 1081.032387 L 1124.841968 1063.545972 L 1134.230646 1045.707482 L 1142.250143 1027.595156 L 1148.861338 1009.287232 L 1154.025111 990.744591 L 1157.741463 972.123712 L 1159.971274 953.424593 L 1160.714545 934.881952 " transform="matrix(0.0998543, 0, 0, -0.0998543, -0.000000000000003775, 186.773862)"/>
<path fill="none" stroke-width="5" stroke-linecap="round" stroke-linejoin="round" stroke="rgb(0%, 39.988708%, 100%)" stroke-opacity="1" stroke-miterlimit="10" d="M 1854.929108 934.490757 L 1855.633259 915.948116 L 1857.86307 897.248998 L 1861.579422 878.628118 L 1866.782315 860.085477 L 1873.39351 841.777553 L 1881.413007 823.665227 L 1890.762566 805.787618 L 1901.520427 788.301203 L 1913.569232 771.205984 L 1926.830741 754.619318 L 1941.304954 738.541205 L 1956.913632 723.128124 L 1973.578537 708.380074 L 1991.260549 694.453534 L 2009.84231 681.348503 L 2029.323818 669.22146 L 2049.548597 658.072404 L 2070.438408 648.057813 L 2091.99325 639.099448 L 2114.017526 631.392908 L 2136.432996 624.899071 L 2159.239662 619.735298 L 2182.281045 615.862468 L 2205.400667 613.35882 L 2228.637647 612.263475 L 2251.835507 612.498191 L 2274.837771 614.14121 L 2297.605317 617.192531 L 2320.059907 621.652153 L 2342.123303 627.480958 L 2363.599905 634.639826 L 2384.528835 643.089637 L 2404.753615 652.90863 L 2424.196004 663.901208 L 2442.816883 676.106491 L 2460.498895 689.446239 L 2477.1638 703.920452 L 2492.733359 719.333533 L 2507.246692 735.763721 L 2520.508201 753.054538 L 2532.557006 771.166864 L 2543.275747 789.983342 L 2552.703546 809.425731 L 2560.723042 829.454912 L 2567.295117 849.953528 L 2572.458891 870.804219 L 2576.175243 891.928746 L 2578.405054 913.248871 L 2579.148325 934.490757 " transform="matrix(0.0998543, 0, 0, -0.0998543, -0.000000000000003775, 186.773862)"/>
<path fill="none" stroke-width="5" stroke-linecap="round" stroke-linejoin="round" stroke="rgb(0%, 39.988708%, 100%)" stroke-opacity="1" stroke-miterlimit="10" d="M 1854.929108 934.881952 L 1855.633259 953.424593 L 1857.86307 972.123712 L 1861.579422 990.744591 L 1866.782315 1009.287232 L 1873.39351 1027.595156 L 1881.413007 1045.707482 L 1890.762566 1063.545972 L 1901.520427 1081.032387 L 1913.569232 1098.127606 L 1926.830741 1114.753392 L 1941.304954 1130.831504 L 1956.913632 1146.244585 L 1973.578537 1160.953515 L 1991.260549 1174.919175 L 2009.84231 1188.024206 L 2029.323818 1200.15125 L 2049.548597 1211.300306 L 2070.438408 1221.314897 L 2091.99325 1230.234142 L 2114.017526 1237.940682 L 2136.432996 1244.434518 L 2159.239662 1249.637411 L 2182.281045 1253.471122 L 2205.400667 1255.97477 L 2228.637647 1257.148354 L 2251.835507 1256.874518 L 2274.837771 1255.19238 L 2297.605317 1252.141059 L 2320.059907 1247.681437 L 2342.123303 1241.891751 L 2363.599905 1234.732884 L 2384.528835 1226.283073 L 2404.753615 1216.503199 L 2424.196004 1205.471501 L 2442.816883 1193.266219 L 2460.498895 1179.887351 L 2477.1638 1165.491377 L 2492.733359 1150.039176 L 2507.246692 1133.608988 L 2520.508201 1116.318171 L 2532.557006 1098.244965 L 2543.275747 1079.389368 L 2552.703546 1059.946979 L 2560.723042 1039.917797 L 2567.295117 1019.419182 L 2572.458891 998.568491 L 2576.175243 977.443963 L 2578.405054 956.123838 L 2579.148325 934.881952 " transform="matrix(0.0998543, 0, 0, -0.0998543, -0.000000000000003775, 186.773862)"/>
<path fill="none" stroke-width="5" stroke-linecap="round" stroke-linejoin="round" stroke="rgb(0%, 0%, 100%)" stroke-opacity="1" stroke-miterlimit="10" d="M 381.649796 934.451638 L 382.823381 905.229375 L 386.265897 875.928873 L 392.016462 846.941327 L 400.035959 818.423215 L 410.324386 790.531015 L 422.803505 763.421204 L 437.395077 737.211142 L 454.099101 712.057307 L 472.83734 688.116176 L 493.492433 665.505108 L 515.947023 644.341461 L 540.24023 624.781713 L 566.176455 606.904104 L 593.638341 590.865111 L 622.547648 576.703853 L 652.826137 564.57681 L 684.278212 554.523099 L 716.825632 546.660081 L 750.2728 540.987754 L 784.502359 537.623478 L 819.436068 536.528132 L 854.839211 537.779955 L 890.672669 541.33983 L 926.701724 547.246873 L 962.769899 555.461967 L 998.798954 565.906873 L 1034.593292 578.464231 L 1069.996435 593.094922 L 1104.969264 609.603349 L 1139.198822 627.833034 L 1172.645991 647.588379 L 1205.154291 668.595548 L 1236.645485 690.619824 L 1266.884855 713.309131 L 1295.833282 736.350514 L 1323.295167 759.352777 L 1349.192273 782.042084 L 1373.48548 804.02724 L 1396.018309 824.99529 L 1416.634283 844.672396 L 1435.372521 862.823842 L 1452.037426 879.175791 L 1466.668117 893.650004 L 1479.108117 906.050884 L 1489.396544 916.300192 L 1497.45516 924.319688 L 1507.821827 934.686355 " transform="matrix(0.0998543, 0, 0, -0.0998543, -0.000000000000003775, 186.773862)"/>
<path fill="none" stroke-width="5" stroke-linecap="round" stroke-linejoin="round" stroke="rgb(0%, 0%, 100%)" stroke-opacity="1" stroke-miterlimit="10" d="M 381.649796 934.921072 L 382.823381 964.143335 L 386.265897 993.443837 L 392.016462 1022.392263 L 400.035959 1050.949495 L 410.324386 1078.802575 L 422.803505 1105.951505 L 437.395077 1132.161567 L 454.099101 1157.315402 L 472.83734 1181.256534 L 493.492433 1203.867602 L 515.947023 1225.031249 L 540.24023 1244.590996 L 566.176455 1262.468606 L 593.638341 1278.507599 L 622.547648 1292.668856 L 652.826137 1304.75678 L 684.278212 1314.84961 L 716.825632 1322.712628 L 750.2728 1328.384955 L 784.502359 1331.749232 L 819.436068 1332.844578 L 854.839211 1331.592754 L 890.672669 1328.03288 L 926.701724 1322.125836 L 962.769899 1313.910742 L 998.798954 1303.465837 L 1034.593292 1290.908479 L 1069.996435 1276.277788 L 1104.969264 1259.769361 L 1139.198822 1241.500556 L 1172.645991 1221.784331 L 1205.154291 1200.777162 L 1236.645485 1178.752886 L 1266.884855 1156.102698 L 1295.833282 1133.061315 L 1323.295167 1110.019933 L 1349.192273 1087.330625 L 1373.48548 1065.345469 L 1396.018309 1044.37742 L 1416.634283 1024.661194 L 1435.372521 1006.548868 L 1452.037426 990.196919 L 1466.668117 975.722705 L 1479.108117 963.321825 L 1489.396544 953.111637 L 1507.821827 934.686355 " transform="matrix(0.0998543, 0, 0, -0.0998543, -0.000000000000003775, 186.773862)"/>
<path fill="none" stroke-width="5" stroke-linecap="round" stroke-linejoin="round" stroke="rgb(0%, 0%, 100%)" stroke-opacity="1" stroke-miterlimit="10" d="M 1507.821827 934.686355 L 1518.188493 924.319688 L 1526.247109 916.300192 L 1536.496417 906.050884 L 1548.975536 893.650004 L 1563.606227 879.175791 L 1580.271132 862.823842 L 1598.970251 844.672396 L 1619.625344 824.99529 L 1642.158173 804.02724 L 1666.41226 782.042084 L 1692.348486 759.352777 L 1719.810371 736.350514 L 1748.758798 713.309131 L 1778.998168 690.619824 L 1810.450242 668.595548 L 1842.958543 647.588379 L 1876.405711 627.833034 L 1910.674389 609.603349 L 1945.608098 593.094922 L 1981.050361 578.464231 L 2016.80558 565.906873 L 2052.834635 555.461967 L 2088.941929 547.246873 L 2124.970984 541.33983 L 2160.765322 537.779955 L 2196.207585 536.528132 L 2231.102175 537.623478 L 2265.370853 540.987754 L 2298.818021 546.660081 L 2331.365441 554.523099 L 2362.778396 564.57681 L 2393.056885 576.703853 L 2421.966192 590.865111 L 2449.467198 606.904104 L 2475.403423 624.781713 L 2499.65751 644.341461 L 2522.15122 665.505108 L 2542.806313 688.116176 L 2561.505432 712.057307 L 2578.209457 737.211142 L 2592.801028 763.421204 L 2605.319267 790.531015 L 2615.568575 818.423215 L 2623.588071 846.941327 L 2629.338637 875.928873 L 2632.820272 905.229375 L 2633.954737 934.451638 " transform="matrix(0.0998543, 0, 0, -0.0998543, -0.000000000000003775, 186.773862)"/>
<path fill="none" stroke-width="5" stroke-linecap="round" stroke-linejoin="round" stroke="rgb(0%, 0%, 100%)" stroke-opacity="1" stroke-miterlimit="10" d="M 1507.821827 934.686355 L 1526.247109 953.111637 L 1536.496417 963.321825 L 1548.975536 975.722705 L 1563.606227 990.196919 L 1580.271132 1006.548868 L 1598.970251 1024.661194 L 1619.625344 1044.37742 L 1642.158173 1065.345469 L 1666.41226 1087.330625 L 1692.348486 1110.019933 L 1719.810371 1133.061315 L 1748.758798 1156.102698 L 1778.998168 1178.752886 L 1810.450242 1200.777162 L 1842.958543 1221.784331 L 1876.405711 1241.500556 L 1910.674389 1259.769361 L 1945.608098 1276.277788 L 1981.050361 1290.908479 L 2016.80558 1303.465837 L 2052.834635 1313.910742 L 2088.941929 1322.125836 L 2124.970984 1328.03288 L 2160.765322 1331.592754 L 2196.207585 1332.844578 L 2231.102175 1331.749232 L 2265.370853 1328.384955 L 2298.818021 1322.712628 L 2331.365441 1314.84961 L 2362.778396 1304.75678 L 2393.056885 1292.668856 L 2421.966192 1278.507599 L 2449.467198 1262.468606 L 2475.403423 1244.590996 L 2499.65751 1225.031249 L 2522.15122 1203.867602 L 2542.806313 1181.256534 L 2561.505432 1157.315402 L 2578.209457 1132.161567 L 2592.801028 1105.951505 L 2605.319267 1078.802575 L 2615.568575 1050.949495 L 2623.588071 1022.392263 L 2629.338637 993.443837 L 2632.820272 964.143335 L 2633.954737 934.921072 " transform="matrix(0.0998543, 0, 0, -0.0998543, -0.000000000000003775, 186.773862)"/>
<path fill="none" stroke-width="5" stroke-linecap="round" stroke-linejoin="round" stroke="rgb(39.988708%, 0%, 100%)" stroke-opacity="1" stroke-miterlimit="10" d="M 323.98766 934.412518 L 326.413069 888.173275 L 333.728414 842.01227 L 345.816338 796.672775 L 362.71596 752.506865 L 384.309922 709.905735 L 410.519984 669.299699 L 441.228787 631.001713 L 476.318975 595.481211 L 515.673187 563.051149 L 559.095827 534.141842 L 606.391297 509.105365 L 657.403118 488.215555 L 711.935695 471.902725 L 769.715189 460.479833 L 830.506885 454.181594 L 894.115184 453.164487 L 960.227131 457.58499 L 1028.608009 467.286625 L 1098.944862 481.839077 L 1170.963853 500.342598 L 1244.391145 521.193289 L 1318.874664 541.809263 L 1394.140573 558.787124 L 1469.875916 568.488759 L 1545.767737 568.488759 L 1621.50308 558.787124 L 1696.768989 541.809263 L 1771.252508 521.193289 L 1844.640681 500.342598 L 1916.659672 481.839077 L 1986.996524 467.286625 L 2055.377402 457.58499 L 2121.489349 453.164487 L 2185.097648 454.181594 L 2245.928464 460.479833 L 2303.707958 471.902725 L 2358.201415 488.215555 L 2409.213237 509.105365 L 2456.547826 534.141842 L 2499.970466 563.051149 L 2539.285559 595.481211 L 2574.375746 631.001713 L 2605.123669 669.299699 L 2631.294612 709.905735 L 2652.888573 752.506865 L 2669.827315 796.672775 L 2681.915239 842.01227 L 2689.191465 888.173275 L 2691.655993 934.412518 " transform="matrix(0.0998543, 0, 0, -0.0998543, -0.000000000000003775, 186.773862)"/>
<path fill="none" stroke-width="5" stroke-linecap="round" stroke-linejoin="round" stroke="rgb(39.988708%, 0%, 100%)" stroke-opacity="1" stroke-miterlimit="10" d="M 323.98766 934.960191 L 326.413069 981.238554 L 333.728414 1027.360439 L 345.816338 1072.699934 L 362.71596 1116.865844 L 384.309922 1159.466975 L 410.519984 1200.073011 L 441.228787 1238.370997 L 476.318975 1273.852379 L 515.673187 1306.32156 L 559.095827 1335.230867 L 606.391297 1360.306463 L 657.403118 1381.118035 L 711.935695 1397.430865 L 769.715189 1408.853757 L 830.506885 1415.191115 L 894.115184 1416.208222 L 960.227131 1411.787719 L 1028.608009 1402.086084 L 1098.944862 1387.533632 L 1170.963853 1369.030111 L 1244.391145 1348.17942 L 1318.874664 1327.563446 L 1394.140573 1310.585585 L 1469.875916 1300.88395 L 1545.767737 1300.88395 L 1621.50308 1310.585585 L 1696.768989 1327.563446 L 1771.252508 1348.17942 L 1844.640681 1369.030111 L 1916.659672 1387.533632 L 1986.996524 1402.086084 L 2055.377402 1411.787719 L 2121.489349 1416.208222 L 2185.097648 1415.191115 L 2245.928464 1408.853757 L 2303.707958 1397.430865 L 2358.201415 1381.118035 L 2409.213237 1360.306463 L 2456.547826 1335.230867 L 2499.970466 1306.32156 L 2539.285559 1273.852379 L 2574.375746 1238.370997 L 2605.123669 1200.073011 L 2631.294612 1159.466975 L 2652.888573 1116.865844 L 2669.827315 1072.699934 L 2681.915239 1027.360439 L 2689.191465 981.238554 L 2691.655993 934.960191 " transform="matrix(0.0998543, 0, 0, -0.0998543, -0.000000000000003775, 186.773862)"/>
<path fill="none" stroke-width="5" stroke-linecap="round" stroke-linejoin="round" stroke="rgb(80.076599%, 0%, 100%)" stroke-opacity="1" stroke-miterlimit="10" d="M 263.939235 934.412518 L 266.482002 883.165979 L 274.110304 831.99768 L 286.863259 781.650889 L 304.58439 732.477684 L 327.312817 684.869258 L 354.813822 639.216807 L 387.126525 595.872406 L 423.97709 555.22725 L 465.326396 517.633415 L 510.939728 483.403857 L 560.660607 452.92977 L 614.293435 426.445872 L 671.564376 404.225999 L 732.277832 386.543987 L 796.159968 373.517195 L 862.976066 365.184742 L 932.45229 361.546629 L 1004.275683 362.2899 L 1078.211529 366.906 L 1153.868633 374.573421 L 1231.012278 384.001219 L 1309.290388 393.585496 L 1388.350888 401.448514 L 1467.959061 405.869017 L 1547.684592 405.869017 L 1627.253646 401.448514 L 1706.314146 393.585496 L 1784.592256 384.001219 L 1861.7359 374.573421 L 1937.393004 366.906 L 2011.32885 362.2899 L 2083.191363 361.546629 L 2152.628467 365.184742 L 2219.483685 373.517195 L 2283.365821 386.543987 L 2344.079277 404.225999 L 2401.350218 426.445872 L 2454.983046 452.92977 L 2504.703925 483.403857 L 2550.317257 517.633415 L 2591.627444 555.22725 L 2628.517128 595.872406 L 2660.790711 639.216807 L 2688.330836 684.869258 L 2711.020143 732.477684 L 2728.780394 781.650889 L 2741.49423 831.99768 L 2749.161651 883.165979 L 2751.704418 934.412518 " transform="matrix(0.0998543, 0, 0, -0.0998543, -0.000000000000003775, 186.773862)"/>
<path fill="none" stroke-width="5" stroke-linecap="round" stroke-linejoin="round" stroke="rgb(80.076599%, 0%, 100%)" stroke-opacity="1" stroke-miterlimit="10" d="M 263.939235 934.999311 L 266.482002 986.20673 L 274.110304 1037.37503 L 286.863259 1087.72182 L 304.58439 1136.895026 L 327.312817 1184.464332 L 354.813822 1230.155903 L 387.126525 1273.500303 L 423.97709 1314.145459 L 465.326396 1351.739294 L 510.939728 1385.968852 L 560.660607 1416.482059 L 614.293435 1442.926838 L 671.564376 1465.146711 L 732.277832 1482.828723 L 796.159968 1495.855515 L 862.976066 1504.148848 L 932.45229 1507.82608 L 1004.275683 1507.04369 L 1078.211529 1502.466709 L 1153.868633 1494.799288 L 1231.012278 1485.33237 L 1309.290388 1475.787214 L 1388.350888 1467.924195 L 1467.959061 1463.503692 L 1547.684592 1463.503692 L 1627.253646 1467.924195 L 1706.314146 1475.787214 L 1784.592256 1485.33237 L 1861.7359 1494.799288 L 1937.393004 1502.466709 L 2011.32885 1507.04369 L 2083.191363 1507.82608 L 2152.628467 1504.148848 L 2219.483685 1495.855515 L 2283.365821 1482.828723 L 2344.079277 1465.146711 L 2401.350218 1442.926838 L 2454.983046 1416.482059 L 2504.703925 1385.968852 L 2550.317257 1351.739294 L 2591.627444 1314.145459 L 2628.517128 1273.500303 L 2660.790711 1230.155903 L 2688.330836 1184.464332 L 2711.020143 1136.895026 L 2728.780394 1087.72182 L 2741.49423 1037.37503 L 2749.161651 986.20673 L 2751.704418 934.999311 " transform="matrix(0.0998543, 0, 0, -0.0998543, -0.000000000000003775, 186.773862)"/>
<path fill="none" stroke-width="5" stroke-linecap="round" stroke-linejoin="round" stroke="rgb(100%, 0%, 80.076599%)" stroke-opacity="1" stroke-miterlimit="10" d="M 201.739237 934.373399 L 204.438482 878.080445 L 212.457979 821.86573 L 225.836846 766.472525 L 244.457726 712.213785 L 268.281499 659.558944 L 297.190806 608.820959 L 331.107408 560.430143 L 369.796589 514.699453 L 413.219229 471.980964 L 461.14061 432.626752 L 513.326017 396.871533 L 569.579851 365.067384 L 629.745635 337.409901 L 693.510413 314.055562 L 760.600347 295.121726 L 830.780721 280.686632 L 903.699461 270.515564 L 979.160967 264.412922 L 1056.734926 261.948394 L 1136.225741 262.378709 L 1217.203096 264.764998 L 1299.393156 268.090155 L 1382.404725 271.141476 L 1465.924847 272.980092 L 1549.679686 272.980092 L 1633.238928 271.141476 L 1716.250497 268.090155 L 1798.440557 264.764998 L 1879.417912 262.378709 L 1958.869607 261.948394 L 2036.482686 264.412922 L 2111.905073 270.515564 L 2184.862932 280.686632 L 2255.043306 295.121726 L 2322.13324 314.055562 L 2385.898018 337.409901 L 2446.024682 365.067384 L 2502.317636 396.871533 L 2554.503043 432.626752 L 2602.385305 471.980964 L 2645.807945 514.699453 L 2684.536245 560.430143 L 2718.452847 608.820959 L 2747.362154 659.558944 L 2771.185927 712.213785 L 2789.806807 766.472525 L 2803.146555 821.86573 L 2811.205171 878.080445 L 2813.904416 934.373399 " transform="matrix(0.0998543, 0, 0, -0.0998543, -0.000000000000003775, 186.773862)"/>
<path fill="none" stroke-width="5" stroke-linecap="round" stroke-linejoin="round" stroke="rgb(100%, 0%, 80.076599%)" stroke-opacity="1" stroke-miterlimit="10" d="M 201.739237 934.999311 L 204.438482 991.292264 L 212.457979 1047.506979 L 225.836846 1102.900184 L 244.457726 1157.158924 L 268.281499 1209.813765 L 297.190806 1260.55175 L 331.107408 1308.942566 L 369.796589 1354.673256 L 413.219229 1397.391745 L 461.14061 1436.745957 L 513.326017 1472.462056 L 569.579851 1504.305326 L 629.745635 1531.962809 L 693.510413 1555.317147 L 760.600347 1574.211864 L 830.780721 1588.686077 L 903.699461 1598.857146 L 979.160967 1604.959787 L 1056.734926 1607.424315 L 1136.225741 1606.994001 L 1217.203096 1604.607712 L 1299.393156 1601.282554 L 1382.404725 1598.231234 L 1465.924847 1596.392618 L 1549.679686 1596.392618 L 1633.238928 1598.231234 L 1716.250497 1601.282554 L 1798.440557 1604.607712 L 1879.417912 1606.994001 L 1958.869607 1607.424315 L 2036.482686 1604.959787 L 2111.905073 1598.857146 L 2184.862932 1588.686077 L 2255.043306 1574.211864 L 2322.13324 1555.317147 L 2385.898018 1531.962809 L 2446.024682 1504.305326 L 2502.317636 1472.462056 L 2554.503043 1436.745957 L 2602.385305 1397.391745 L 2645.807945 1354.673256 L 2684.536245 1308.942566 L 2718.452847 1260.55175 L 2747.362154 1209.813765 L 2771.185927 1157.158924 L 2789.806807 1102.900184 L 2803.146555 1047.506979 L 2811.205171 991.292264 L 2813.904416 934.999311 " transform="matrix(0.0998543, 0, 0, -0.0998543, -0.000000000000003775, 186.773862)"/>
<path fill="none" stroke-width="5" stroke-linecap="round" stroke-linejoin="round" stroke="rgb(100%, 0%, 39.988708%)" stroke-opacity="1" stroke-miterlimit="10" d="M 137.778862 934.334279 L 140.556347 872.955791 L 149.006158 811.616423 L 163.050056 751.098563 L 182.570685 691.754289 L 207.568042 633.974794 L 237.885651 578.190394 L 273.445272 524.753164 L 314.051308 473.936939 L 359.586401 426.172035 L 409.854952 381.771408 L 464.583126 341.008894 L 523.653564 304.080091 L 586.71419 271.219715 L 653.608527 242.662483 L 723.984499 218.369276 L 797.607389 198.496573 L 874.125122 182.770536 L 953.263861 171.073807 L 1034.632411 163.015191 L 1117.996056 158.007895 L 1202.9636 155.386889 L 1289.143848 154.408902 L 1376.262964 154.330663 L 1463.890633 154.448021 L 1551.75302 154.448021 L 1639.380689 154.330663 L 1726.460686 154.408902 L 1812.640934 155.386889 L 1897.608478 158.007895 L 1980.972122 163.015191 L 2062.379792 171.073807 L 2141.518531 182.770536 L 2218.036264 198.496573 L 2291.659154 218.369276 L 2361.996006 242.662483 L 2428.890343 271.219715 L 2491.95097 304.080091 L 2551.021407 341.008894 L 2605.788701 381.771408 L 2656.057252 426.172035 L 2701.553225 473.936939 L 2742.159261 524.753164 L 2777.758002 578.190394 L 2808.075611 633.974794 L 2833.072968 691.754289 L 2852.593597 751.098563 L 2866.598376 811.616423 L 2875.048187 872.955791 L 2877.864791 934.334279 " transform="matrix(0.0998543, 0, 0, -0.0998543, -0.000000000000003775, 186.773862)"/>
<path fill="none" stroke-width="5" stroke-linecap="round" stroke-linejoin="round" stroke="rgb(100%, 0%, 39.988708%)" stroke-opacity="1" stroke-miterlimit="10" d="M 137.778862 934.999311 L 140.556347 996.416918 L 149.006158 1057.756287 L 163.050056 1118.274146 L 182.570685 1177.61842 L 207.568042 1235.358796 L 237.885651 1291.182315 L 273.445272 1344.619546 L 314.051308 1395.43577 L 359.586401 1443.161554 L 409.854952 1487.601301 L 464.583126 1528.402935 L 523.653564 1565.292619 L 586.71419 1598.113875 L 653.608527 1626.710226 L 723.984499 1650.964313 L 797.607389 1670.876137 L 874.125122 1686.602174 L 953.263861 1698.298903 L 1034.632411 1706.357519 L 1117.996056 1711.364814 L 1202.9636 1713.946701 L 1289.143848 1714.963808 L 1376.262964 1715.081166 L 1463.890633 1714.924688 L 1551.75302 1714.924688 L 1639.380689 1715.081166 L 1726.460686 1714.963808 L 1812.640934 1713.946701 L 1897.608478 1711.364814 L 1980.972122 1706.357519 L 2062.379792 1698.298903 L 2141.518531 1686.602174 L 2218.036264 1670.876137 L 2291.659154 1650.964313 L 2361.996006 1626.710226 L 2428.890343 1598.113875 L 2491.95097 1565.292619 L 2551.021407 1528.402935 L 2605.788701 1487.601301 L 2656.057252 1443.161554 L 2701.553225 1395.43577 L 2742.159261 1344.619546 L 2777.758002 1291.182315 L 2808.075611 1235.358796 L 2833.072968 1177.61842 L 2852.593597 1118.274146 L 2866.598376 1057.756287 L 2875.048187 996.416918 L 2877.864791 934.999311 " transform="matrix(0.0998543, 0, 0, -0.0998543, -0.000000000000003775, 186.773862)"/>
<path fill="none" stroke-width="5" stroke-linecap="round" stroke-linejoin="round" stroke="rgb(100%, 0%, 0%)" stroke-opacity="1" stroke-miterlimit="10" d="M 72.214588 934.334279 L 75.18767 867.792018 L 84.028676 801.288876 L 98.698487 735.607243 L 119.157983 671.138315 L 145.368045 608.273286 L 177.133075 547.364232 L 214.413954 488.880586 L 256.975965 433.057067 L 304.662629 380.323987 L 357.31747 330.916064 L 414.70577 285.146255 L 476.553692 243.327514 L 542.665639 205.577201 L 612.728655 172.051794 L 686.468903 142.868651 L 763.612548 118.066891 L 843.807513 97.450916 L 926.740843 80.981609 L 1012.021343 68.228654 L 1099.336057 58.839975 L 1188.372028 52.307019 L 1278.698943 48.082113 L 1369.964725 45.617585 L 1461.8173 44.48312 L 1553.826353 44.48312 L 1645.678928 45.617585 L 1736.94471 48.082113 L 1827.232506 52.307019 L 1916.268477 58.839975 L 2003.62231 68.228654 L 2088.90281 80.981609 L 2171.83614 97.450916 L 2251.991985 118.066891 L 2329.13563 142.868651 L 2402.875879 172.051794 L 2472.938895 205.577201 L 2539.050842 243.327514 L 2600.937883 285.146255 L 2658.326183 330.916064 L 2710.941904 380.323987 L 2758.667688 433.057067 L 2801.229699 488.880586 L 2838.471459 547.364232 L 2870.275609 608.273286 L 2896.446551 671.138315 L 2916.945166 735.607243 L 2931.614977 801.288876 L 2940.455983 867.792018 L 2943.389945 934.334279 " transform="matrix(0.0998543, 0, 0, -0.0998543, -0.000000000000003775, 186.773862)"/>
<path fill="none" stroke-width="5" stroke-linecap="round" stroke-linejoin="round" stroke="rgb(100%, 0%, 0%)" stroke-opacity="1" stroke-miterlimit="10" d="M 72.214588 935.03843 L 75.18767 1001.580692 L 84.028676 1068.083834 L 98.698487 1133.765466 L 119.157983 1198.234394 L 145.368045 1261.138543 L 177.133075 1321.969358 L 214.413954 1380.492123 L 256.975965 1436.315643 L 304.662629 1489.048722 L 357.31747 1538.456645 L 414.70577 1584.226455 L 476.553692 1626.045195 L 542.665639 1663.795508 L 612.728655 1697.320915 L 686.468903 1726.504059 L 763.612548 1751.305819 L 843.807513 1771.882673 L 926.740843 1788.43022 L 1012.021343 1801.144056 L 1099.336057 1810.532735 L 1188.372028 1817.06569 L 1278.698943 1821.290596 L 1369.964725 1823.755124 L 1461.8173 1824.85047 L 1553.826353 1824.85047 L 1645.678928 1823.755124 L 1736.94471 1821.290596 L 1827.232506 1817.06569 L 1916.268477 1810.532735 L 2003.62231 1801.144056 L 2088.90281 1788.43022 L 2171.83614 1771.882673 L 2251.991985 1751.305819 L 2329.13563 1726.504059 L 2402.875879 1697.320915 L 2472.938895 1663.795508 L 2539.050842 1626.045195 L 2600.937883 1584.226455 L 2658.326183 1538.456645 L 2710.941904 1489.048722 L 2758.667688 1436.315643 L 2801.229699 1380.492123 L 2838.471459 1321.969358 L 2870.275609 1261.138543 L 2896.446551 1198.234394 L 2916.945166 1133.765466 L 2931.614977 1068.083834 L 2940.455983 1001.580692 L 2943.389945 935.03843 " transform="matrix(0.0998543, 0, 0, -0.0998543, -0.000000000000003775, 186.773862)"/>
</svg>
