<?xml version="1.0" encoding="UTF-8"?>
<svg xmlns="http://www.w3.org/2000/svg" xmlns:xlink="http://www.w3.org/1999/xlink" width="230.38" height="62.06" viewBox="0 0 230.38 62.06">
<defs>
<clipPath id="clip-0">
<path clip-rule="nonzero" d="M 1.414062 59 L 228.355469 59 L 228.355469 60 L 1.414062 60 Z M 1.414062 59 "/>
</clipPath>
<clipPath id="clip-1">
<path clip-rule="nonzero" d="M 114 0 L 115 0 L 115 61.132812 L 114 61.132812 Z M 114 0 "/>
</clipPath>
<clipPath id="clip-2">
<path clip-rule="nonzero" d="M 19 28 L 228.234375 28 L 228.234375 60 L 19 60 Z M 19 28 "/>
</clipPath>
<clipPath id="clip-3">
<path clip-rule="nonzero" d="M 1.53125 28 L 20 28 L 20 35 L 1.53125 35 Z M 1.53125 28 "/>
</clipPath>
</defs>
<g clip-path="url(#clip-0)">
<path fill="none" stroke-width="2.5" stroke-linecap="round" stroke-linejoin="round" stroke="rgb(0%, 0%, 0%)" stroke-opacity="1" stroke-miterlimit="10" d="M 1.197027 14.763662 L 2302.526512 14.763662 " transform="matrix(0.0985079, 0, 0, -0.0985079, 1.413333, 61.134025)"/>
</g>
<g clip-path="url(#clip-1)">
<path fill="none" stroke-width="2.5" stroke-linecap="round" stroke-linejoin="round" stroke="rgb(0%, 0%, 0%)" stroke-opacity="1" stroke-miterlimit="10" d="M 1148.748917 0.0123127 L 1148.748917 620.639654 " transform="matrix(0.0985079, 0, 0, -0.0985079, 1.413333, 61.134025)"/>
</g>
<g clip-path="url(#clip-2)">
<path fill="none" stroke-width="5" stroke-linecap="round" stroke-linejoin="round" stroke="rgb(100%, 0%, 0%)" stroke-opacity="1" stroke-miterlimit="10" d="M 2302.526512 333.781422 L 2300.543803 333.067647 L 2110.798622 266.250379 L 1935.804791 204.548497 L 1788.965417 153.910128 L 1651.682696 109.100921 L 1533.909825 74.403527 L 1430.927958 48.667974 L 1381.717139 38.397545 L 1329.37364 29.277087 L 1281.035213 22.654841 L 1259.701272 20.354899 L 1236.622548 18.292883 L 1224.17114 17.380837 L 1212.671432 16.627408 L 1200.775182 16.032595 L 1190.028903 15.556745 L 1179.441241 15.199858 L 1174.603433 15.080896 L 1169.488046 14.961933 L 1164.015771 14.882625 L 1161.596867 14.842971 L 1158.979692 14.803316 L 1153.586726 14.803316 L 1152.000559 14.763662 L 1145.021426 14.763662 L 1142.245634 14.803316 L 1139.588805 14.803316 L 1137.130247 14.842971 L 1131.499355 14.922279 L 1125.551231 15.041241 L 1119.761723 15.160204 L 1114.368756 15.31882 L 1102.075965 15.755016 L 1081.614415 16.865333 L 1059.646008 18.372191 L 1035.813855 20.55317 L 1009.761068 23.487579 L 961.660565 30.268441 L 859.55109 50.25414 L 753.079656 77.298281 L 640.580789 110.726742 L 506.510056 154.623903 L 360.067223 205.14331 L 181.226938 268.193433 " transform="matrix(0.0985079, 0, 0, -0.0985079, 1.413333, 61.134025)"/>
</g>
<g clip-path="url(#clip-3)">
<path fill="none" stroke-width="5" stroke-linecap="round" stroke-linejoin="round" stroke="rgb(100%, 0%, 0%)" stroke-opacity="1" stroke-miterlimit="10" d="M 181.226938 268.193433 L 1.197027 331.560789 " transform="matrix(0.0985079, 0, 0, -0.0985079, 1.413333, 61.134025)"/>
</g>
<path fill="none" stroke-width="5" stroke-linecap="round" stroke-linejoin="round" stroke="rgb(0%, 0%, 0%)" stroke-opacity="1" stroke-miterlimit="10" d="M 60.361042 605.84865 L 148.670868 507.50632 L 244.990835 412.058745 L 335.441987 333.067647 L 422.403571 266.250379 L 514.996047 204.548497 L 604.098957 153.910128 L 698.832758 109.100921 L 790.116646 74.403527 L 877.910968 48.667974 L 922.363288 38.397545 L 971.296528 29.277087 L 1017.731555 22.654841 L 1038.549992 20.354899 L 1061.232175 18.292883 L 1073.56462 17.380837 L 1084.98502 16.627408 L 1096.801961 16.032595 L 1107.54824 15.556745 L 1118.056593 15.199858 L 1122.934056 15.080896 L 1128.009789 14.961933 L 1133.482064 14.882625 L 1135.900968 14.842971 L 1138.518143 14.803316 L 1143.911109 14.803316 L 1145.53693 14.763662 L 1152.476409 14.763662 L 1155.291855 14.803316 L 1157.948684 14.803316 L 1160.327934 14.842971 L 1165.998479 14.922279 L 1171.946604 15.041241 L 1177.736112 15.160204 L 1183.129079 15.31882 L 1195.382216 15.755016 L 1215.724803 16.865333 L 1237.455285 18.372191 L 1260.890897 20.55317 L 1286.269563 23.487579 L 1332.308049 30.268441 L 1377.751722 38.952703 L 1425.852225 50.25414 L 1512.456922 76.108656 L 1604.652856 111.678442 L 1693.398878 153.910128 L 1787.696483 207.800139 " transform="matrix(0.0985079, 0, 0, -0.0985079, 1.413333, 61.134025)"/>
<path fill="none" stroke-width="5" stroke-linecap="round" stroke-linejoin="round" stroke="rgb(0%, 0%, 0%)" stroke-opacity="1" stroke-miterlimit="10" d="M 1787.696483 207.800139 L 1878.58383 268.788245 L 1965.981611 336.279635 L 2059.010282 418.165486 L 2148.589042 507.228741 L 2237.136793 605.84865 " transform="matrix(0.0985079, 0, 0, -0.0985079, 1.413333, 61.134025)"/>
</svg>
