<?xml version="1.0" encoding="UTF-8"?>
<svg xmlns="http://www.w3.org/2000/svg" xmlns:xlink="http://www.w3.org/1999/xlink" width="406" height="63.44" viewBox="0 0 406 63.44">
<path fill="none" stroke-width="40" stroke-linecap="round" stroke-linejoin="round" stroke="rgb(0%, 0%, 0%)" stroke-opacity="1" stroke-miterlimit="10" d="M 700.830706 604.883922 L 700.830706 604.883922 " transform="matrix(0.099125, 0, 0, -0.099125, 1.77625, 62.8849)"/>
<path fill="none" stroke-width="40" stroke-linecap="round" stroke-linejoin="round" stroke="rgb(0%, 0%, 0%)" stroke-opacity="1" stroke-miterlimit="10" d="M 700.830706 317.171122 L 700.830706 317.171122 " transform="matrix(0.099125, 0, 0, -0.099125, 1.77625, 62.8849)"/>
<path fill="none" stroke-width="40" stroke-linecap="round" stroke-linejoin="round" stroke="rgb(0%, 0%, 0%)" stroke-opacity="1" stroke-miterlimit="10" d="M 125.444515 29.49773 L 125.444515 29.49773 " transform="matrix(0.099125, 0, 0, -0.099125, 1.77625, 62.8849)"/>
<path fill="none" stroke-width="40" stroke-linecap="round" stroke-linejoin="round" stroke="rgb(0%, 0%, 0%)" stroke-opacity="1" stroke-miterlimit="10" d="M 700.830706 29.49773 L 700.830706 29.49773 " transform="matrix(0.099125, 0, 0, -0.099125, 1.77625, 62.8849)"/>
<path fill="none" stroke-width="40" stroke-linecap="round" stroke-linejoin="round" stroke="rgb(0%, 0%, 0%)" stroke-opacity="1" stroke-miterlimit="10" d="M 1276.216898 29.49773 L 1276.216898 29.49773 " transform="matrix(0.099125, 0, 0, -0.099125, 1.77625, 62.8849)"/>
<path fill="none" stroke-width="5" stroke-linecap="round" stroke-linejoin="round" stroke="rgb(0%, 0%, 0%)" stroke-opacity="1" stroke-miterlimit="10" d="M 700.830706 604.883922 L 700.830706 317.171122 " transform="matrix(0.099125, 0, 0, -0.099125, 1.77625, 62.8849)"/>
<path fill="none" stroke-width="5" stroke-linecap="round" stroke-linejoin="round" stroke="rgb(0%, 0%, 0%)" stroke-opacity="1" stroke-miterlimit="10" d="M 700.830706 317.171122 L 700.830706 604.883922 " transform="matrix(0.099125, 0, 0, -0.099125, 1.77625, 62.8849)"/>
<path fill="none" stroke-width="5" stroke-linecap="round" stroke-linejoin="round" stroke="rgb(0%, 0%, 0%)" stroke-opacity="1" stroke-miterlimit="10" d="M 700.830706 317.171122 L 125.444515 29.49773 " transform="matrix(0.099125, 0, 0, -0.099125, 1.77625, 62.8849)"/>
<path fill="none" stroke-width="5" stroke-linecap="round" stroke-linejoin="round" stroke="rgb(0%, 0%, 0%)" stroke-opacity="1" stroke-miterlimit="10" d="M 700.830706 317.171122 L 700.830706 29.49773 " transform="matrix(0.099125, 0, 0, -0.099125, 1.77625, 62.8849)"/>
<path fill="none" stroke-width="5" stroke-linecap="round" stroke-linejoin="round" stroke="rgb(0%, 0%, 0%)" stroke-opacity="1" stroke-miterlimit="10" d="M 700.830706 317.171122 L 1276.216898 29.49773 " transform="matrix(0.099125, 0, 0, -0.099125, 1.77625, 62.8849)"/>
<path fill="none" stroke-width="5" stroke-linecap="round" stroke-linejoin="round" stroke="rgb(0%, 0%, 0%)" stroke-opacity="1" stroke-miterlimit="10" d="M 125.444515 29.49773 L 700.830706 317.171122 " transform="matrix(0.099125, 0, 0, -0.099125, 1.77625, 62.8849)"/>
<path fill="none" stroke-width="5" stroke-linecap="round" stroke-linejoin="round" stroke="rgb(0%, 0%, 0%)" stroke-opacity="1" stroke-miterlimit="10" d="M 700.830706 29.49773 L 700.830706 317.171122 " transform="matrix(0.099125, 0, 0, -0.099125, 1.77625, 62.8849)"/>
<path fill="none" stroke-width="5" stroke-linecap="round" stroke-linejoin="round" stroke="rgb(0%, 0%, 0%)" stroke-opacity="1" stroke-miterlimit="10" d="M 1276.216898 29.49773 L 700.830706 317.171122 " transform="matrix(0.099125, 0, 0, -0.099125, 1.77625, 62.8849)"/>
<path fill="none" stroke-width="40" stroke-linecap="round" stroke-linejoin="round" stroke="rgb(0%, 0%, 0%)" stroke-opacity="1" stroke-miterlimit="10" d="M 2093.958071 604.883922 L 2093.958071 604.883922 " transform="matrix(0.099125, 0, 0, -0.099125, 1.77625, 62.8849)"/>
<path fill="none" stroke-width="40" stroke-linecap="round" stroke-linejoin="round" stroke="rgb(0%, 0%, 0%)" stroke-opacity="1" stroke-miterlimit="10" d="M 2093.958071 413.088525 L 2093.958071 413.088525 " transform="matrix(0.099125, 0, 0, -0.099125, 1.77625, 62.8849)"/>
<path fill="none" stroke-width="40" stroke-linecap="round" stroke-linejoin="round" stroke="rgb(0%, 0%, 0%)" stroke-opacity="1" stroke-miterlimit="10" d="M 1710.327869 221.293127 L 1710.327869 221.293127 " transform="matrix(0.099125, 0, 0, -0.099125, 1.77625, 62.8849)"/>
<path fill="none" stroke-width="40" stroke-linecap="round" stroke-linejoin="round" stroke="rgb(0%, 0%, 0%)" stroke-opacity="1" stroke-miterlimit="10" d="M 1582.451135 29.49773 L 1582.451135 29.49773 " transform="matrix(0.099125, 0, 0, -0.099125, 1.77625, 62.8849)"/>
<path fill="none" stroke-width="40" stroke-linecap="round" stroke-linejoin="round" stroke="rgb(0%, 0%, 0%)" stroke-opacity="1" stroke-miterlimit="10" d="M 1710.327869 29.49773 L 1710.327869 29.49773 " transform="matrix(0.099125, 0, 0, -0.099125, 1.77625, 62.8849)"/>
<path fill="none" stroke-width="40" stroke-linecap="round" stroke-linejoin="round" stroke="rgb(0%, 0%, 0%)" stroke-opacity="1" stroke-miterlimit="10" d="M 1838.204603 29.49773 L 1838.204603 29.49773 " transform="matrix(0.099125, 0, 0, -0.099125, 1.77625, 62.8849)"/>
<path fill="none" stroke-width="40" stroke-linecap="round" stroke-linejoin="round" stroke="rgb(0%, 0%, 0%)" stroke-opacity="1" stroke-miterlimit="10" d="M 2093.958071 221.293127 L 2093.958071 221.293127 " transform="matrix(0.099125, 0, 0, -0.099125, 1.77625, 62.8849)"/>
<path fill="none" stroke-width="40" stroke-linecap="round" stroke-linejoin="round" stroke="rgb(0%, 0%, 0%)" stroke-opacity="1" stroke-miterlimit="10" d="M 2477.548865 221.293127 L 2477.548865 221.293127 " transform="matrix(0.099125, 0, 0, -0.099125, 1.77625, 62.8849)"/>
<path fill="none" stroke-width="5" stroke-linecap="round" stroke-linejoin="round" stroke="rgb(0%, 0%, 0%)" stroke-opacity="1" stroke-miterlimit="10" d="M 2093.958071 604.883922 L 2093.958071 413.088525 " transform="matrix(0.099125, 0, 0, -0.099125, 1.77625, 62.8849)"/>
<path fill="none" stroke-width="5" stroke-linecap="round" stroke-linejoin="round" stroke="rgb(0%, 0%, 0%)" stroke-opacity="1" stroke-miterlimit="10" d="M 2093.958071 413.088525 L 2093.958071 604.883922 " transform="matrix(0.099125, 0, 0, -0.099125, 1.77625, 62.8849)"/>
<path fill="none" stroke-width="5" stroke-linecap="round" stroke-linejoin="round" stroke="rgb(0%, 0%, 0%)" stroke-opacity="1" stroke-miterlimit="10" d="M 2093.958071 413.088525 L 1710.327869 221.293127 " transform="matrix(0.099125, 0, 0, -0.099125, 1.77625, 62.8849)"/>
<path fill="none" stroke-width="5" stroke-linecap="round" stroke-linejoin="round" stroke="rgb(0%, 0%, 0%)" stroke-opacity="1" stroke-miterlimit="10" d="M 2093.958071 413.088525 L 2093.958071 221.293127 " transform="matrix(0.099125, 0, 0, -0.099125, 1.77625, 62.8849)"/>
<path fill="none" stroke-width="5" stroke-linecap="round" stroke-linejoin="round" stroke="rgb(0%, 0%, 0%)" stroke-opacity="1" stroke-miterlimit="10" d="M 2093.958071 413.088525 L 2477.548865 221.293127 " transform="matrix(0.099125, 0, 0, -0.099125, 1.77625, 62.8849)"/>
<path fill="none" stroke-width="5" stroke-linecap="round" stroke-linejoin="round" stroke="rgb(0%, 0%, 0%)" stroke-opacity="1" stroke-miterlimit="10" d="M 1710.327869 221.293127 L 2093.958071 413.088525 " transform="matrix(0.099125, 0, 0, -0.099125, 1.77625, 62.8849)"/>
<path fill="none" stroke-width="5" stroke-linecap="round" stroke-linejoin="round" stroke="rgb(0%, 0%, 0%)" stroke-opacity="1" stroke-miterlimit="10" d="M 1710.327869 221.293127 L 1582.451135 29.49773 " transform="matrix(0.099125, 0, 0, -0.099125, 1.77625, 62.8849)"/>
<path fill="none" stroke-width="5" stroke-linecap="round" stroke-linejoin="round" stroke="rgb(0%, 0%, 0%)" stroke-opacity="1" stroke-miterlimit="10" d="M 1710.327869 221.293127 L 1710.327869 29.49773 " transform="matrix(0.099125, 0, 0, -0.099125, 1.77625, 62.8849)"/>
<path fill="none" stroke-width="5" stroke-linecap="round" stroke-linejoin="round" stroke="rgb(0%, 0%, 0%)" stroke-opacity="1" stroke-miterlimit="10" d="M 1710.327869 221.293127 L 1838.204603 29.49773 " transform="matrix(0.099125, 0, 0, -0.099125, 1.77625, 62.8849)"/>
<path fill="none" stroke-width="5" stroke-linecap="round" stroke-linejoin="round" stroke="rgb(0%, 0%, 0%)" stroke-opacity="1" stroke-miterlimit="10" d="M 1582.451135 29.49773 L 1710.327869 221.293127 " transform="matrix(0.099125, 0, 0, -0.099125, 1.77625, 62.8849)"/>
<path fill="none" stroke-width="5" stroke-linecap="round" stroke-linejoin="round" stroke="rgb(0%, 0%, 0%)" stroke-opacity="1" stroke-miterlimit="10" d="M 1710.327869 29.49773 L 1710.327869 221.293127 " transform="matrix(0.099125, 0, 0, -0.099125, 1.77625, 62.8849)"/>
<path fill="none" stroke-width="5" stroke-linecap="round" stroke-linejoin="round" stroke="rgb(0%, 0%, 0%)" stroke-opacity="1" stroke-miterlimit="10" d="M 1838.204603 29.49773 L 1710.327869 221.293127 " transform="matrix(0.099125, 0, 0, -0.099125, 1.77625, 62.8849)"/>
<path fill="none" stroke-width="5" stroke-linecap="round" stroke-linejoin="round" stroke="rgb(0%, 0%, 0%)" stroke-opacity="1" stroke-miterlimit="10" d="M 2093.958071 221.293127 L 2093.958071 413.088525 " transform="matrix(0.099125, 0, 0, -0.099125, 1.77625, 62.8849)"/>
<path fill="none" stroke-width="5" stroke-linecap="round" stroke-linejoin="round" stroke="rgb(0%, 0%, 0%)" stroke-opacity="1" stroke-miterlimit="10" d="M 2477.548865 221.293127 L 2093.958071 413.088525 " transform="matrix(0.099125, 0, 0, -0.099125, 1.77625, 62.8849)"/>
<path fill="none" stroke-width="40" stroke-linecap="round" stroke-linejoin="round" stroke="rgb(0%, 0%, 0%)" stroke-opacity="1" stroke-miterlimit="10" d="M 3444.407314 604.883922 L 3444.407314 604.883922 " transform="matrix(0.099125, 0, 0, -0.099125, 1.77625, 62.8849)"/>
<path fill="none" stroke-width="40" stroke-linecap="round" stroke-linejoin="round" stroke="rgb(0%, 0%, 0%)" stroke-opacity="1" stroke-miterlimit="10" d="M 3444.407314 461.047226 L 3444.407314 461.047226 " transform="matrix(0.099125, 0, 0, -0.099125, 1.77625, 62.8849)"/>
<path fill="none" stroke-width="40" stroke-linecap="round" stroke-linejoin="round" stroke="rgb(0%, 0%, 0%)" stroke-opacity="1" stroke-miterlimit="10" d="M 3060.81652 317.171122 L 3060.81652 317.171122 " transform="matrix(0.099125, 0, 0, -0.099125, 1.77625, 62.8849)"/>
<path fill="none" stroke-width="40" stroke-linecap="round" stroke-linejoin="round" stroke="rgb(0%, 0%, 0%)" stroke-opacity="1" stroke-miterlimit="10" d="M 2932.939786 173.334426 L 2932.939786 173.334426 " transform="matrix(0.099125, 0, 0, -0.099125, 1.77625, 62.8849)"/>
<path fill="none" stroke-width="40" stroke-linecap="round" stroke-linejoin="round" stroke="rgb(0%, 0%, 0%)" stroke-opacity="1" stroke-miterlimit="10" d="M 2890.340479 29.49773 L 2890.340479 29.49773 " transform="matrix(0.099125, 0, 0, -0.099125, 1.77625, 62.8849)"/>
<path fill="none" stroke-width="40" stroke-linecap="round" stroke-linejoin="round" stroke="rgb(0%, 0%, 0%)" stroke-opacity="1" stroke-miterlimit="10" d="M 2932.939786 29.49773 L 2932.939786 29.49773 " transform="matrix(0.099125, 0, 0, -0.099125, 1.77625, 62.8849)"/>
<path fill="none" stroke-width="40" stroke-linecap="round" stroke-linejoin="round" stroke="rgb(0%, 0%, 0%)" stroke-opacity="1" stroke-miterlimit="10" d="M 2975.578499 29.49773 L 2975.578499 29.49773 " transform="matrix(0.099125, 0, 0, -0.099125, 1.77625, 62.8849)"/>
<path fill="none" stroke-width="40" stroke-linecap="round" stroke-linejoin="round" stroke="rgb(0%, 0%, 0%)" stroke-opacity="1" stroke-miterlimit="10" d="M 3060.81652 173.334426 L 3060.81652 173.334426 " transform="matrix(0.099125, 0, 0, -0.099125, 1.77625, 62.8849)"/>
<path fill="none" stroke-width="40" stroke-linecap="round" stroke-linejoin="round" stroke="rgb(0%, 0%, 0%)" stroke-opacity="1" stroke-miterlimit="10" d="M 3188.693253 173.334426 L 3188.693253 173.334426 " transform="matrix(0.099125, 0, 0, -0.099125, 1.77625, 62.8849)"/>
<path fill="none" stroke-width="40" stroke-linecap="round" stroke-linejoin="round" stroke="rgb(0%, 0%, 0%)" stroke-opacity="1" stroke-miterlimit="10" d="M 3444.407314 317.171122 L 3444.407314 317.171122 " transform="matrix(0.099125, 0, 0, -0.099125, 1.77625, 62.8849)"/>
<path fill="none" stroke-width="40" stroke-linecap="round" stroke-linejoin="round" stroke="rgb(0%, 0%, 0%)" stroke-opacity="1" stroke-miterlimit="10" d="M 3827.998108 317.171122 L 3827.998108 317.171122 " transform="matrix(0.099125, 0, 0, -0.099125, 1.77625, 62.8849)"/>
<path fill="none" stroke-width="5" stroke-linecap="round" stroke-linejoin="round" stroke="rgb(0%, 0%, 0%)" stroke-opacity="1" stroke-miterlimit="10" d="M 3444.407314 604.883922 L 3444.407314 461.047226 " transform="matrix(0.099125, 0, 0, -0.099125, 1.77625, 62.8849)"/>
<path fill="none" stroke-width="5" stroke-linecap="round" stroke-linejoin="round" stroke="rgb(0%, 0%, 0%)" stroke-opacity="1" stroke-miterlimit="10" d="M 3444.407314 461.047226 L 3444.407314 604.883922 " transform="matrix(0.099125, 0, 0, -0.099125, 1.77625, 62.8849)"/>
<path fill="none" stroke-width="5" stroke-linecap="round" stroke-linejoin="round" stroke="rgb(0%, 0%, 0%)" stroke-opacity="1" stroke-miterlimit="10" d="M 3444.407314 461.047226 L 3060.81652 317.171122 " transform="matrix(0.099125, 0, 0, -0.099125, 1.77625, 62.8849)"/>
<path fill="none" stroke-width="5" stroke-linecap="round" stroke-linejoin="round" stroke="rgb(0%, 0%, 0%)" stroke-opacity="1" stroke-miterlimit="10" d="M 3444.407314 461.047226 L 3444.407314 317.171122 " transform="matrix(0.099125, 0, 0, -0.099125, 1.77625, 62.8849)"/>
<path fill="none" stroke-width="5" stroke-linecap="round" stroke-linejoin="round" stroke="rgb(0%, 0%, 0%)" stroke-opacity="1" stroke-miterlimit="10" d="M 3444.407314 461.047226 L 3827.998108 317.171122 " transform="matrix(0.099125, 0, 0, -0.099125, 1.77625, 62.8849)"/>
<path fill="none" stroke-width="5" stroke-linecap="round" stroke-linejoin="round" stroke="rgb(0%, 0%, 0%)" stroke-opacity="1" stroke-miterlimit="10" d="M 3060.81652 317.171122 L 3444.407314 461.047226 " transform="matrix(0.099125, 0, 0, -0.099125, 1.77625, 62.8849)"/>
<path fill="none" stroke-width="5" stroke-linecap="round" stroke-linejoin="round" stroke="rgb(0%, 0%, 0%)" stroke-opacity="1" stroke-miterlimit="10" d="M 3060.81652 317.171122 L 2932.939786 173.334426 " transform="matrix(0.099125, 0, 0, -0.099125, 1.77625, 62.8849)"/>
<path fill="none" stroke-width="5" stroke-linecap="round" stroke-linejoin="round" stroke="rgb(0%, 0%, 0%)" stroke-opacity="1" stroke-miterlimit="10" d="M 3060.81652 317.171122 L 3060.81652 173.334426 " transform="matrix(0.099125, 0, 0, -0.099125, 1.77625, 62.8849)"/>
<path fill="none" stroke-width="5" stroke-linecap="round" stroke-linejoin="round" stroke="rgb(0%, 0%, 0%)" stroke-opacity="1" stroke-miterlimit="10" d="M 3060.81652 317.171122 L 3188.693253 173.334426 " transform="matrix(0.099125, 0, 0, -0.099125, 1.77625, 62.8849)"/>
<path fill="none" stroke-width="5" stroke-linecap="round" stroke-linejoin="round" stroke="rgb(0%, 0%, 0%)" stroke-opacity="1" stroke-miterlimit="10" d="M 2932.939786 173.334426 L 3060.81652 317.171122 " transform="matrix(0.099125, 0, 0, -0.099125, 1.77625, 62.8849)"/>
<path fill="none" stroke-width="5" stroke-linecap="round" stroke-linejoin="round" stroke="rgb(0%, 0%, 0%)" stroke-opacity="1" stroke-miterlimit="10" d="M 2932.939786 173.334426 L 2890.340479 29.49773 " transform="matrix(0.099125, 0, 0, -0.099125, 1.77625, 62.8849)"/>
<path fill="none" stroke-width="5" stroke-linecap="round" stroke-linejoin="round" stroke="rgb(0%, 0%, 0%)" stroke-opacity="1" stroke-miterlimit="10" d="M 2932.939786 173.334426 L 2932.939786 29.49773 " transform="matrix(0.099125, 0, 0, -0.099125, 1.77625, 62.8849)"/>
<path fill="none" stroke-width="5" stroke-linecap="round" stroke-linejoin="round" stroke="rgb(0%, 0%, 0%)" stroke-opacity="1" stroke-miterlimit="10" d="M 2932.939786 173.334426 L 2975.578499 29.49773 " transform="matrix(0.099125, 0, 0, -0.099125, 1.77625, 62.8849)"/>
<path fill="none" stroke-width="5" stroke-linecap="round" stroke-linejoin="round" stroke="rgb(0%, 0%, 0%)" stroke-opacity="1" stroke-miterlimit="10" d="M 2890.340479 29.49773 L 2932.939786 173.334426 " transform="matrix(0.099125, 0, 0, -0.099125, 1.77625, 62.8849)"/>
<path fill="none" stroke-width="5" stroke-linecap="round" stroke-linejoin="round" stroke="rgb(0%, 0%, 0%)" stroke-opacity="1" stroke-miterlimit="10" d="M 2932.939786 29.49773 L 2932.939786 173.334426 " transform="matrix(0.099125, 0, 0, -0.099125, 1.77625, 62.8849)"/>
<path fill="none" stroke-width="5" stroke-linecap="round" stroke-linejoin="round" stroke="rgb(0%, 0%, 0%)" stroke-opacity="1" stroke-miterlimit="10" d="M 2975.578499 29.49773 L 2932.939786 173.334426 " transform="matrix(0.099125, 0, 0, -0.099125, 1.77625, 62.8849)"/>
<path fill="none" stroke-width="5" stroke-linecap="round" stroke-linejoin="round" stroke="rgb(0%, 0%, 0%)" stroke-opacity="1" stroke-miterlimit="10" d="M 3060.81652 173.334426 L 3060.81652 317.171122 " transform="matrix(0.099125, 0, 0, -0.099125, 1.77625, 62.8849)"/>
<path fill="none" stroke-width="5" stroke-linecap="round" stroke-linejoin="round" stroke="rgb(0%, 0%, 0%)" stroke-opacity="1" stroke-miterlimit="10" d="M 3188.693253 173.334426 L 3060.81652 317.171122 " transform="matrix(0.099125, 0, 0, -0.099125, 1.77625, 62.8849)"/>
<path fill="none" stroke-width="5" stroke-linecap="round" stroke-linejoin="round" stroke="rgb(0%, 0%, 0%)" stroke-opacity="1" stroke-miterlimit="10" d="M 3444.407314 317.171122 L 3444.407314 461.047226 " transform="matrix(0.099125, 0, 0, -0.099125, 1.77625, 62.8849)"/>
<path fill="none" stroke-width="5" stroke-linecap="round" stroke-linejoin="round" stroke="rgb(0%, 0%, 0%)" stroke-opacity="1" stroke-miterlimit="10" d="M 3827.998108 317.171122 L 3444.407314 461.047226 " transform="matrix(0.099125, 0, 0, -0.099125, 1.77625, 62.8849)"/>
</svg>
