<?xml version="1.0" encoding="UTF-8"?>
<svg xmlns="http://www.w3.org/2000/svg" xmlns:xlink="http://www.w3.org/1999/xlink" width="146.44" height="170.62" viewBox="0 0 146.44 170.62">
<defs>
<clipPath id="clip-0">
<path clip-rule="nonzero" d="M 0 84 L 145.882812 84 L 145.882812 86 L 0 86 Z M 0 84 "/>
</clipPath>
<clipPath id="clip-1">
<path clip-rule="nonzero" d="M 31 0.136719 L 32 0.136719 L 32 170.105469 L 31 170.105469 Z M 31 0.136719 "/>
</clipPath>
</defs>
<g clip-path="url(#clip-0)">
<path fill="none" stroke-width="2.5" stroke-linecap="round" stroke-linejoin="round" stroke="rgb(0%, 0%, 0%)" stroke-opacity="1" stroke-miterlimit="10" d="M 0.313695 853.135498 L 1464.053911 853.135498 " transform="matrix(0.099619, 0, 0, -0.099619, -0.0000000000000005, 170.105733)"/>
</g>
<g clip-path="url(#clip-1)">
<path fill="none" stroke-width="2.5" stroke-linecap="round" stroke-linejoin="round" stroke="rgb(0%, 0%, 0%)" stroke-opacity="1" stroke-miterlimit="10" d="M 313.969512 0.00265595 L 313.969512 1706.268341 " transform="matrix(0.099619, 0, 0, -0.099619, -0.0000000000000005, 170.105733)"/>
</g>
<path fill="none" stroke-width="5" stroke-linecap="round" stroke-linejoin="round" stroke="rgb(100%, 0%, 0%)" stroke-opacity="1" stroke-miterlimit="10" d="M 1429.194551 853.135498 L 1429.116127 866.075418 L 1428.841644 877.878194 L 1428.331889 891.523927 L 1427.626076 904.385424 L 1425.900753 927.206737 L 1423.351981 951.91022 L 1419.666064 979.04484 L 1414.803791 1007.591088 L 1403.628406 1058.292047 L 1388.845528 1109.69882 L 1372.062844 1156.792286 L 1323.714597 1259.174501 L 1261.054015 1354.890697 L 1193.217465 1433.23603 L 1104.559408 1510.953973 L 1012.097798 1570.948148 L 923.949495 1612.630375 L 873.32696 1630.707051 L 826.978519 1643.84303 L 783.335698 1653.332305 L 758.749851 1657.449552 L 736.163809 1660.508078 L 716.36181 1662.586308 L 694.716853 1664.233207 L 683.855163 1664.860597 L 672.248446 1665.291928 L 661.26912 1665.527199 L 651.309303 1665.644834 L 640.251554 1665.566411 L 629.860406 1665.331139 L 618.528173 1664.899809 L 606.37249 1664.233207 L 594.334444 1663.409757 L 581.786643 1662.272613 L 559.475084 1659.763053 L 520.106358 1653.44994 L 478.188859 1644.117513 L 434.114708 1631.216805 L 389.021047 1614.434121 L 313.420546 1577.143625 L 244.525275 1530.834396 L 180.492277 1473.271358 L 130.810827 1413.786938 L 94.461416 1356.184689 L 80.14908 1327.873712 L 67.052312 1297.288447 L 57.680673 1270.898853 L 49.367755 1242.274181 L 45.28972 1225.099379 " transform="matrix(0.099619, 0, 0, -0.099619, -0.0000000000000005, 170.105733)"/>
<path fill="none" stroke-width="5" stroke-linecap="round" stroke-linejoin="round" stroke="rgb(100%, 0%, 0%)" stroke-opacity="1" stroke-miterlimit="10" d="M 45.28972 1225.099379 L 42.152769 1209.296992 L 39.564785 1193.063274 L 37.721827 1178.554879 L 37.055225 1171.732012 L 36.427835 1164.399391 L 35.957293 1158.12549 L 35.604386 1151.263411 L 35.329903 1144.048426 L 35.251479 1140.127238 L 35.212267 1136.441321 L 35.173055 1129.971361 L 35.251479 1123.070071 L 35.447538 1116.404051 L 35.643598 1112.678923 L 35.800445 1109.149854 L 36.231776 1102.130927 L 36.859166 1094.68067 L 38.310005 1081.427055 L 39.956904 1069.506644 L 45.09366 1043.077838 L 52.19101 1016.80588 L 67.679702 976.260797 L 78.07085 955.556925 L 88.540422 937.872368 L 112.263608 905.757839 L 136.104431 881.250415 L 157.906235 863.801129 L 181.119667 849.488794 L 202.960684 839.6074 L 214.685035 835.607789 L 225.154607 832.862957 L 230.605058 831.725813 L 235.624178 830.863151 L 240.015909 830.235761 L 244.564487 829.726007 L 246.838776 829.569159 L 249.309124 829.412312 L 251.504989 829.294676 L 253.544007 829.255464 L 254.720363 829.216252 L 258.014161 829.216252 L 259.151306 829.255464 L 260.210026 829.255464 L 261.347171 829.294676 L 262.562739 829.3731 L 264.405697 829.490736 L 266.366291 829.647583 L 270.248267 830.039702 L 273.620489 830.510244 " transform="matrix(0.099619, 0, 0, -0.099619, -0.0000000000000005, 170.105733)"/>
<path fill="none" stroke-width="5" stroke-linecap="round" stroke-linejoin="round" stroke="rgb(100%, 0%, 0%)" stroke-opacity="1" stroke-miterlimit="10" d="M 273.620489 830.510244 L 276.639803 831.059211 L 282.952916 832.470838 L 288.87391 834.313797 L 297.735794 838.038925 L 303.696 841.567994 L 308.009306 844.940216 L 310.675714 847.645835 L 312.47946 849.959336 L 313.459757 851.684659 L 313.695029 852.194413 L 313.851876 852.625744 L 313.9303 852.900227 L 313.969512 852.978651 L 313.969512 853.213922 L 313.9303 853.37077 L 313.695029 854.076583 L 313.028427 855.409787 L 311.773647 857.331169 L 309.303298 860.076001 L 305.617382 863.291375 L 300.833533 866.467537 L 293.853818 870.035818 L 289.069969 871.878776 L 283.933213 873.486463 L 278.796457 874.741243 L 272.679404 875.878388 L 269.189546 876.309719 L 265.229147 876.701837 L 263.150917 876.819473 L 261.974561 876.897897 L 260.876628 876.937109 " transform="matrix(0.099619, 0, 0, -0.099619, -0.0000000000000005, 170.105733)"/>
<path fill="none" stroke-width="5" stroke-linecap="round" stroke-linejoin="round" stroke="rgb(100%, 0%, 0%)" stroke-opacity="1" stroke-miterlimit="10" d="M 260.876628 876.937109 L 259.817908 876.976321 L 258.641551 877.015532 L 256.602533 877.054744 L 254.64194 877.015532 L 253.504795 877.015532 L 252.406862 876.976321 L 250.250209 876.897897 L 248.995429 876.819473 L 247.819073 876.780261 L 243.427342 876.388142 L 239.114036 875.9176 L 234.251763 875.172574 L 229.467913 874.309913 L 220.253122 872.192471 L 209.822762 869.094733 L 198.019987 864.703003 L 175.74764 853.8021 L 154.45559 839.960307 L 130.732403 820.040673 L 109.087446 796.709605 L 86.893523 765.771433 L 75.56129 746.008646 L 65.993592 726.206647 L 57.915945 706.208589 L 50.191205 682.681462 L 43.83888 657.507436 L 41.054837 643.116677 L 38.858972 629.235672 L 37.36892 616.570235 L 36.663106 609.551309 L 36.153352 602.924501 L 35.800445 596.768236 L 35.525962 591.082514 L 35.290691 584.769401 L 35.173055 577.907323 L 35.173055 570.535489 L 35.290691 563.634199 L 35.408326 559.791435 L 35.565174 556.183942 L 35.996505 547.910235 L 36.506259 540.616826 L 37.094437 533.950807 L 38.81976 518.736598 L 40.937201 504.071355 L 43.368338 490.621681 L 50.348052 460.193263 L 58.896242 431.686227 L 68.777635 404.669243 L 97.716001 344.165314 " transform="matrix(0.099619, 0, 0, -0.099619, -0.0000000000000005, 170.105733)"/>
<path fill="none" stroke-width="5" stroke-linecap="round" stroke-linejoin="round" stroke="rgb(100%, 0%, 0%)" stroke-opacity="1" stroke-miterlimit="10" d="M 97.716001 344.165314 L 139.790347 280.367588 L 186.413271 226.882585 L 247.387742 173.162312 L 321.498193 124.50037 L 399.255348 87.680416 L 440.349397 73.015174 L 486.854685 59.957618 L 508.695701 55.056133 L 532.222828 50.585979 L 552.848276 47.409817 L 575.316683 44.625774 L 585.982314 43.567053 L 597.196911 42.625968 L 607.666482 41.920154 L 617.43024 41.4104 L 626.645032 41.018281 L 636.526425 40.743798 L 647.505751 40.626162 L 657.50478 40.665374 L 669.346767 40.861433 L 680.286882 41.253552 L 692.324928 41.84173 L 705.068789 42.704392 L 726.59611 44.664986 L 750.280085 47.566665 L 774.277755 51.291793 L 800.432078 56.310914 L 847.878451 67.91763 L 935.752271 98.424471 L 984.296576 120.696818 L 1034.644628 148.301981 L 1120.597066 207.707977 L 1193.923279 273.701568 L 1264.151754 355.458335 L 1320.538435 441.489197 L 1362.769628 526.775033 L 1391.237452 604.140069 L 1410.80418 678.721062 L 1418.921038 722.363883 L 1424.253854 762.438423 L 1426.410507 784.749982 L 1427.273169 796.513546 L 1428.057406 808.982923 L 1428.567161 819.883825 L 1428.959279 831.921872 L 1429.155339 842.861986 L 1429.194551 853.135498 " transform="matrix(0.099619, 0, 0, -0.099619, -0.0000000000000005, 170.105733)"/>
</svg>
