<?xml version="1.0" encoding="UTF-8"?>
<svg xmlns="http://www.w3.org/2000/svg" xmlns:xlink="http://www.w3.org/1999/xlink" width="181" height="209" viewBox="0 0 181 209">
<path fill="none" stroke-width="90.4997" stroke-linecap="round" stroke-linejoin="round" stroke="rgb(0%, 0%, 0%)" stroke-opacity="1" stroke-miterlimit="10" d="M 617.695312 1045 L 617.695312 1045 " transform="matrix(0.1, 0, 0, -0.1, 0, 209)"/>
<path fill="none" stroke-width="7.23998" stroke-linecap="round" stroke-linejoin="round" stroke="rgb(0%, 0%, 0%)" stroke-opacity="1" stroke-miterlimit="10" d="M 617.695312 1045 L 617.695312 1045 " transform="matrix(0.1, 0, 0, -0.1, 0, 209)"/>
<path fill="none" stroke-width="90.4997" stroke-linecap="round" stroke-linejoin="round" stroke="rgb(0%, 0%, 0%)" stroke-opacity="1" stroke-miterlimit="10" d="M 1000.78125 1045 L 1000.78125 1045 " transform="matrix(0.1, 0, 0, -0.1, 0, 209)"/>
<path fill="none" stroke-width="90.4997" stroke-linecap="round" stroke-linejoin="round" stroke="rgb(0%, 0%, 0%)" stroke-opacity="1" stroke-miterlimit="10" d="M 426.171875 1376.757812 L 426.171875 1376.757812 " transform="matrix(0.1, 0, 0, -0.1, 0, 209)"/>
<path fill="none" stroke-width="90.4997" stroke-linecap="round" stroke-linejoin="round" stroke="rgb(0%, 0%, 0%)" stroke-opacity="1" stroke-miterlimit="10" d="M 426.171875 713.242188 L 426.171875 713.242188 " transform="matrix(0.1, 0, 0, -0.1, 0, 209)"/>
<path fill="none" stroke-width="7.23998" stroke-linecap="round" stroke-linejoin="round" stroke="rgb(0%, 0%, 0%)" stroke-opacity="1" stroke-miterlimit="10" d="M 1000.78125 1045 L 426.171875 1376.757812 L 426.171875 713.242188 L 1000.78125 1045 " transform="matrix(0.1, 0, 0, -0.1, 0, 209)"/>
<path fill="none" stroke-width="90.4997" stroke-linecap="round" stroke-linejoin="round" stroke="rgb(0%, 0%, 0%)" stroke-opacity="1" stroke-miterlimit="10" d="M 809.21875 1376.757812 L 809.21875 1376.757812 " transform="matrix(0.1, 0, 0, -0.1, 0, 209)"/>
<path fill="none" stroke-width="90.4997" stroke-linecap="round" stroke-linejoin="round" stroke="rgb(0%, 0%, 0%)" stroke-opacity="1" stroke-miterlimit="10" d="M 234.648438 1045 L 234.648438 1045 " transform="matrix(0.1, 0, 0, -0.1, 0, 209)"/>
<path fill="none" stroke-width="90.4997" stroke-linecap="round" stroke-linejoin="round" stroke="rgb(0%, 0%, 0%)" stroke-opacity="1" stroke-miterlimit="10" d="M 809.21875 713.242188 L 809.21875 713.242188 " transform="matrix(0.1, 0, 0, -0.1, 0, 209)"/>
<path fill="none" stroke-width="90.4997" stroke-linecap="round" stroke-linejoin="round" stroke="rgb(0%, 0%, 0%)" stroke-opacity="1" stroke-miterlimit="10" d="M 1383.828125 1045 L 1383.828125 1045 " transform="matrix(0.1, 0, 0, -0.1, 0, 209)"/>
<path fill="none" stroke-width="90.4997" stroke-linecap="round" stroke-linejoin="round" stroke="rgb(0%, 0%, 0%)" stroke-opacity="1" stroke-miterlimit="10" d="M 234.648438 1708.476562 L 234.648438 1708.476562 " transform="matrix(0.1, 0, 0, -0.1, 0, 209)"/>
<path fill="none" stroke-width="90.4997" stroke-linecap="round" stroke-linejoin="round" stroke="rgb(0%, 0%, 0%)" stroke-opacity="1" stroke-miterlimit="10" d="M 234.648438 381.523438 L 234.648438 381.523438 " transform="matrix(0.1, 0, 0, -0.1, 0, 209)"/>
<path fill="none" stroke-width="7.23998" stroke-linecap="round" stroke-linejoin="round" stroke="rgb(0%, 0%, 0%)" stroke-opacity="1" stroke-miterlimit="10" d="M 1383.828125 1045 L 234.648438 1708.476562 L 234.648438 381.523438 L 1383.828125 1045 " transform="matrix(0.1, 0, 0, -0.1, 0, 209)"/>
<path fill="none" stroke-width="90.4997" stroke-linecap="round" stroke-linejoin="round" stroke="rgb(0%, 0%, 0%)" stroke-opacity="1" stroke-miterlimit="10" d="M 617.695312 1708.476562 L 617.695312 1708.476562 " transform="matrix(0.1, 0, 0, -0.1, 0, 209)"/>
<path fill="none" stroke-width="90.4997" stroke-linecap="round" stroke-linejoin="round" stroke="rgb(0%, 0%, 0%)" stroke-opacity="1" stroke-miterlimit="10" d="M 43.085938 713.242188 L 43.085938 713.242188 " transform="matrix(0.1, 0, 0, -0.1, 0, 209)"/>
<path fill="none" stroke-width="90.4997" stroke-linecap="round" stroke-linejoin="round" stroke="rgb(0%, 0%, 0%)" stroke-opacity="1" stroke-miterlimit="10" d="M 1192.304688 713.242188 L 1192.304688 713.242188 " transform="matrix(0.1, 0, 0, -0.1, 0, 209)"/>
<path fill="none" stroke-width="90.4997" stroke-linecap="round" stroke-linejoin="round" stroke="rgb(0%, 0%, 0%)" stroke-opacity="1" stroke-miterlimit="10" d="M 1192.304688 1376.757812 L 1192.304688 1376.757812 " transform="matrix(0.1, 0, 0, -0.1, 0, 209)"/>
<path fill="none" stroke-width="90.4997" stroke-linecap="round" stroke-linejoin="round" stroke="rgb(0%, 0%, 0%)" stroke-opacity="1" stroke-miterlimit="10" d="M 43.085938 1376.757812 L 43.085938 1376.757812 " transform="matrix(0.1, 0, 0, -0.1, 0, 209)"/>
<path fill="none" stroke-width="90.4997" stroke-linecap="round" stroke-linejoin="round" stroke="rgb(0%, 0%, 0%)" stroke-opacity="1" stroke-miterlimit="10" d="M 617.695312 381.523438 L 617.695312 381.523438 " transform="matrix(0.1, 0, 0, -0.1, 0, 209)"/>
<path fill="none" stroke-width="90.4997" stroke-linecap="round" stroke-linejoin="round" stroke="rgb(0%, 0%, 0%)" stroke-opacity="1" stroke-miterlimit="10" d="M 1766.914062 1045 L 1766.914062 1045 " transform="matrix(0.1, 0, 0, -0.1, 0, 209)"/>
<path fill="none" stroke-width="90.4997" stroke-linecap="round" stroke-linejoin="round" stroke="rgb(0%, 0%, 0%)" stroke-opacity="1" stroke-miterlimit="10" d="M 43.085938 2040.234375 L 43.085938 2040.234375 " transform="matrix(0.1, 0, 0, -0.1, 0, 209)"/>
<path fill="none" stroke-width="90.4997" stroke-linecap="round" stroke-linejoin="round" stroke="rgb(0%, 0%, 0%)" stroke-opacity="1" stroke-miterlimit="10" d="M 43.085938 49.765625 L 43.085938 49.765625 " transform="matrix(0.1, 0, 0, -0.1, 0, 209)"/>
<path fill="none" stroke-width="7.23998" stroke-linecap="round" stroke-linejoin="round" stroke="rgb(0%, 0%, 0%)" stroke-opacity="1" stroke-miterlimit="10" d="M 1766.914062 1045 L 43.085938 2040.234375 L 43.085938 49.765625 L 1766.914062 1045 " transform="matrix(0.1, 0, 0, -0.1, 0, 209)"/>
</svg>
