<?xml version="1.0" encoding="UTF-8"?>
<svg xmlns="http://www.w3.org/2000/svg" xmlns:xlink="http://www.w3.org/1999/xlink" width="312" height="266.75" viewBox="0 0 312 266.75">
<path fill="none" stroke-width="1.85696" stroke-linecap="round" stroke-linejoin="round" stroke="rgb(0%, 0%, 0%)" stroke-opacity="1" stroke-miterlimit="10" d="M 270.198571 435.801019 L 270.198571 258.916647 " transform="matrix(0.0999064, 0, 0, -0.0999064, 0.146067, 266.500234)"/>
<path fill="none" stroke-width="1.85696" stroke-linecap="round" stroke-linejoin="round" stroke="rgb(0%, 0%, 0%)" stroke-opacity="1" stroke-miterlimit="10" d="M 270.198571 258.916647 L 93.353298 82.071374 " transform="matrix(0.0999064, 0, 0, -0.0999064, 0.146067, 266.500234)"/>
<path fill="none" stroke-width="1.85696" stroke-linecap="round" stroke-linejoin="round" stroke="rgb(0%, 0%, 0%)" stroke-opacity="1" stroke-miterlimit="10" d="M 270.198571 258.916647 L 181.795484 82.071374 " transform="matrix(0.0999064, 0, 0, -0.0999064, 0.146067, 266.500234)"/>
<path fill="none" stroke-width="1.85696" stroke-linecap="round" stroke-linejoin="round" stroke="rgb(0%, 0%, 0%)" stroke-opacity="1" stroke-miterlimit="10" d="M 270.198571 258.916647 L 270.198571 82.071374 " transform="matrix(0.0999064, 0, 0, -0.0999064, 0.146067, 266.500234)"/>
<path fill="none" stroke-width="1.85696" stroke-linecap="round" stroke-linejoin="round" stroke="rgb(0%, 0%, 0%)" stroke-opacity="1" stroke-miterlimit="10" d="M 270.198571 258.916647 L 358.640757 82.071374 " transform="matrix(0.0999064, 0, 0, -0.0999064, 0.146067, 266.500234)"/>
<path fill="none" stroke-width="1.85696" stroke-linecap="round" stroke-linejoin="round" stroke="rgb(0%, 0%, 0%)" stroke-opacity="1" stroke-miterlimit="10" d="M 270.198571 258.916647 L 447.082943 82.071374 " transform="matrix(0.0999064, 0, 0, -0.0999064, 0.146067, 266.500234)"/>
<path fill="none" stroke-width="37.1391" stroke-linecap="round" stroke-linejoin="round" stroke="rgb(0%, 0%, 0%)" stroke-opacity="1" stroke-miterlimit="10" d="M 270.198571 435.801019 L 270.198571 435.801019 " transform="matrix(0.0999064, 0, 0, -0.0999064, 0.146067, 266.500234)"/>
<path fill="none" stroke-width="37.1391" stroke-linecap="round" stroke-linejoin="round" stroke="rgb(100%, 0%, 0%)" stroke-opacity="1" stroke-miterlimit="10" d="M 270.198571 258.916647 L 270.198571 258.916647 " transform="matrix(0.0999064, 0, 0, -0.0999064, 0.146067, 266.500234)"/>
<path fill="none" stroke-width="37.1391" stroke-linecap="round" stroke-linejoin="round" stroke="rgb(0%, 0%, 0%)" stroke-opacity="1" stroke-miterlimit="10" d="M 93.353298 82.071374 L 93.353298 82.071374 " transform="matrix(0.0999064, 0, 0, -0.0999064, 0.146067, 266.500234)"/>
<path fill="none" stroke-width="37.1391" stroke-linecap="round" stroke-linejoin="round" stroke="rgb(0%, 0%, 0%)" stroke-opacity="1" stroke-miterlimit="10" d="M 181.795484 82.071374 L 181.795484 82.071374 " transform="matrix(0.0999064, 0, 0, -0.0999064, 0.146067, 266.500234)"/>
<path fill="none" stroke-width="37.1391" stroke-linecap="round" stroke-linejoin="round" stroke="rgb(0%, 0%, 0%)" stroke-opacity="1" stroke-miterlimit="10" d="M 270.198571 82.071374 L 270.198571 82.071374 " transform="matrix(0.0999064, 0, 0, -0.0999064, 0.146067, 266.500234)"/>
<path fill="none" stroke-width="37.1391" stroke-linecap="round" stroke-linejoin="round" stroke="rgb(0%, 0%, 0%)" stroke-opacity="1" stroke-miterlimit="10" d="M 358.640757 82.071374 L 358.640757 82.071374 " transform="matrix(0.0999064, 0, 0, -0.0999064, 0.146067, 266.500234)"/>
<path fill="none" stroke-width="37.1391" stroke-linecap="round" stroke-linejoin="round" stroke="rgb(0%, 0%, 0%)" stroke-opacity="1" stroke-miterlimit="10" d="M 447.082943 82.071374 L 447.082943 82.071374 " transform="matrix(0.0999064, 0, 0, -0.0999064, 0.146067, 266.500234)"/>
<path fill="none" stroke-width="1.85695" stroke-linecap="round" stroke-linejoin="round" stroke="rgb(0%, 0%, 0%)" stroke-opacity="1" stroke-miterlimit="10" d="M 748.380682 435.801019 L 619.744611 317.878104 " transform="matrix(0.0999064, 0, 0, -0.0999064, 0.146067, 266.500234)"/>
<path fill="none" stroke-width="1.85695" stroke-linecap="round" stroke-linejoin="round" stroke="rgb(0%, 0%, 0%)" stroke-opacity="1" stroke-miterlimit="10" d="M 748.380682 435.801019 L 876.977653 317.878104 " transform="matrix(0.0999064, 0, 0, -0.0999064, 0.146067, 266.500234)"/>
<path fill="none" stroke-width="1.85695" stroke-linecap="round" stroke-linejoin="round" stroke="rgb(0%, 0%, 0%)" stroke-opacity="1" stroke-miterlimit="10" d="M 619.744611 317.878104 L 555.426576 199.994289 " transform="matrix(0.0999064, 0, 0, -0.0999064, 0.146067, 266.500234)"/>
<path fill="none" stroke-width="1.85695" stroke-linecap="round" stroke-linejoin="round" stroke="rgb(0%, 0%, 0%)" stroke-opacity="1" stroke-miterlimit="10" d="M 619.744611 317.878104 L 684.062646 199.994289 " transform="matrix(0.0999064, 0, 0, -0.0999064, 0.146067, 266.500234)"/>
<path fill="none" stroke-width="1.85695" stroke-linecap="round" stroke-linejoin="round" stroke="rgb(0%, 0%, 0%)" stroke-opacity="1" stroke-miterlimit="10" d="M 555.426576 199.994289 L 523.287108 82.071374 " transform="matrix(0.0999064, 0, 0, -0.0999064, 0.146067, 266.500234)"/>
<path fill="none" stroke-width="1.85695" stroke-linecap="round" stroke-linejoin="round" stroke="rgb(0%, 0%, 0%)" stroke-opacity="1" stroke-miterlimit="10" d="M 555.426576 199.994289 L 587.605143 82.071374 " transform="matrix(0.0999064, 0, 0, -0.0999064, 0.146067, 266.500234)"/>
<path fill="none" stroke-width="37.139" stroke-linecap="round" stroke-linejoin="round" stroke="rgb(0%, 0%, 0%)" stroke-opacity="1" stroke-miterlimit="10" d="M 748.380682 435.801019 L 748.380682 435.801019 " transform="matrix(0.0999064, 0, 0, -0.0999064, 0.146067, 266.500234)"/>
<path fill="none" stroke-width="37.139" stroke-linecap="round" stroke-linejoin="round" stroke="rgb(100%, 0%, 0%)" stroke-opacity="1" stroke-miterlimit="10" d="M 619.744611 317.878104 L 619.744611 317.878104 " transform="matrix(0.0999064, 0, 0, -0.0999064, 0.146067, 266.500234)"/>
<path fill="none" stroke-width="37.139" stroke-linecap="round" stroke-linejoin="round" stroke="rgb(0%, 0%, 0%)" stroke-opacity="1" stroke-miterlimit="10" d="M 555.426576 199.994289 L 555.426576 199.994289 " transform="matrix(0.0999064, 0, 0, -0.0999064, 0.146067, 266.500234)"/>
<path fill="none" stroke-width="37.139" stroke-linecap="round" stroke-linejoin="round" stroke="rgb(0%, 0%, 0%)" stroke-opacity="1" stroke-miterlimit="10" d="M 523.287108 82.071374 L 523.287108 82.071374 " transform="matrix(0.0999064, 0, 0, -0.0999064, 0.146067, 266.500234)"/>
<path fill="none" stroke-width="37.139" stroke-linecap="round" stroke-linejoin="round" stroke="rgb(0%, 0%, 0%)" stroke-opacity="1" stroke-miterlimit="10" d="M 587.605143 82.071374 L 587.605143 82.071374 " transform="matrix(0.0999064, 0, 0, -0.0999064, 0.146067, 266.500234)"/>
<path fill="none" stroke-width="37.139" stroke-linecap="round" stroke-linejoin="round" stroke="rgb(0%, 0%, 0%)" stroke-opacity="1" stroke-miterlimit="10" d="M 684.062646 199.994289 L 684.062646 199.994289 " transform="matrix(0.0999064, 0, 0, -0.0999064, 0.146067, 266.500234)"/>
<path fill="none" stroke-width="37.139" stroke-linecap="round" stroke-linejoin="round" stroke="rgb(0%, 0%, 0%)" stroke-opacity="1" stroke-miterlimit="10" d="M 876.977653 317.878104 L 876.977653 317.878104 " transform="matrix(0.0999064, 0, 0, -0.0999064, 0.146067, 266.500234)"/>
<path fill="none" stroke-width="1.85695" stroke-linecap="round" stroke-linejoin="round" stroke="rgb(0%, 0%, 0%)" stroke-opacity="1" stroke-miterlimit="10" d="M 1174.287283 435.801019 L 1041.624004 317.878104 " transform="matrix(0.0999064, 0, 0, -0.0999064, 0.146067, 266.500234)"/>
<path fill="none" stroke-width="1.85695" stroke-linecap="round" stroke-linejoin="round" stroke="rgb(0%, 0%, 0%)" stroke-opacity="1" stroke-miterlimit="10" d="M 1174.287283 435.801019 L 1306.911463 317.878104 " transform="matrix(0.0999064, 0, 0, -0.0999064, 0.146067, 266.500234)"/>
<path fill="none" stroke-width="1.85695" stroke-linecap="round" stroke-linejoin="round" stroke="rgb(0%, 0%, 0%)" stroke-opacity="1" stroke-miterlimit="10" d="M 1041.624004 317.878104 L 1041.624004 199.994289 " transform="matrix(0.0999064, 0, 0, -0.0999064, 0.146067, 266.500234)"/>
<path fill="none" stroke-width="1.85695" stroke-linecap="round" stroke-linejoin="round" stroke="rgb(0%, 0%, 0%)" stroke-opacity="1" stroke-miterlimit="10" d="M 1041.624004 199.994289 L 953.220917 82.071374 " transform="matrix(0.0999064, 0, 0, -0.0999064, 0.146067, 266.500234)"/>
<path fill="none" stroke-width="1.85695" stroke-linecap="round" stroke-linejoin="round" stroke="rgb(0%, 0%, 0%)" stroke-opacity="1" stroke-miterlimit="10" d="M 1041.624004 199.994289 L 1041.624004 82.071374 " transform="matrix(0.0999064, 0, 0, -0.0999064, 0.146067, 266.500234)"/>
<path fill="none" stroke-width="1.85695" stroke-linecap="round" stroke-linejoin="round" stroke="rgb(0%, 0%, 0%)" stroke-opacity="1" stroke-miterlimit="10" d="M 1041.624004 199.994289 L 1130.06619 82.071374 " transform="matrix(0.0999064, 0, 0, -0.0999064, 0.146067, 266.500234)"/>
<path fill="none" stroke-width="37.139" stroke-linecap="round" stroke-linejoin="round" stroke="rgb(0%, 0%, 0%)" stroke-opacity="1" stroke-miterlimit="10" d="M 1174.287283 435.801019 L 1174.287283 435.801019 " transform="matrix(0.0999064, 0, 0, -0.0999064, 0.146067, 266.500234)"/>
<path fill="none" stroke-width="37.139" stroke-linecap="round" stroke-linejoin="round" stroke="rgb(100%, 0%, 0%)" stroke-opacity="1" stroke-miterlimit="10" d="M 1041.624004 317.878104 L 1041.624004 317.878104 " transform="matrix(0.0999064, 0, 0, -0.0999064, 0.146067, 266.500234)"/>
<path fill="none" stroke-width="37.139" stroke-linecap="round" stroke-linejoin="round" stroke="rgb(0%, 0%, 0%)" stroke-opacity="1" stroke-miterlimit="10" d="M 1041.624004 199.994289 L 1041.624004 199.994289 " transform="matrix(0.0999064, 0, 0, -0.0999064, 0.146067, 266.500234)"/>
<path fill="none" stroke-width="37.139" stroke-linecap="round" stroke-linejoin="round" stroke="rgb(0%, 0%, 0%)" stroke-opacity="1" stroke-miterlimit="10" d="M 953.220917 82.071374 L 953.220917 82.071374 " transform="matrix(0.0999064, 0, 0, -0.0999064, 0.146067, 266.500234)"/>
<path fill="none" stroke-width="37.139" stroke-linecap="round" stroke-linejoin="round" stroke="rgb(0%, 0%, 0%)" stroke-opacity="1" stroke-miterlimit="10" d="M 1041.624004 82.071374 L 1041.624004 82.071374 " transform="matrix(0.0999064, 0, 0, -0.0999064, 0.146067, 266.500234)"/>
<path fill="none" stroke-width="37.139" stroke-linecap="round" stroke-linejoin="round" stroke="rgb(0%, 0%, 0%)" stroke-opacity="1" stroke-miterlimit="10" d="M 1130.06619 82.071374 L 1130.06619 82.071374 " transform="matrix(0.0999064, 0, 0, -0.0999064, 0.146067, 266.500234)"/>
<path fill="none" stroke-width="37.139" stroke-linecap="round" stroke-linejoin="round" stroke="rgb(0%, 0%, 0%)" stroke-opacity="1" stroke-miterlimit="10" d="M 1306.911463 317.878104 L 1306.911463 317.878104 " transform="matrix(0.0999064, 0, 0, -0.0999064, 0.146067, 266.500234)"/>
<path fill="none" stroke-width="1.85696" stroke-linecap="round" stroke-linejoin="round" stroke="rgb(0%, 0%, 0%)" stroke-opacity="1" stroke-miterlimit="10" d="M 1560 435.801019 L 1560 347.358833 " transform="matrix(0.0999064, 0, 0, -0.0999064, 0.146067, 266.500234)"/>
<path fill="none" stroke-width="1.85696" stroke-linecap="round" stroke-linejoin="round" stroke="rgb(0%, 0%, 0%)" stroke-opacity="1" stroke-miterlimit="10" d="M 1560 347.358833 L 1560 258.916647 " transform="matrix(0.0999064, 0, 0, -0.0999064, 0.146067, 266.500234)"/>
<path fill="none" stroke-width="1.85696" stroke-linecap="round" stroke-linejoin="round" stroke="rgb(0%, 0%, 0%)" stroke-opacity="1" stroke-miterlimit="10" d="M 1560 258.916647 L 1383.154727 170.51356 " transform="matrix(0.0999064, 0, 0, -0.0999064, 0.146067, 266.500234)"/>
<path fill="none" stroke-width="1.85696" stroke-linecap="round" stroke-linejoin="round" stroke="rgb(0%, 0%, 0%)" stroke-opacity="1" stroke-miterlimit="10" d="M 1560 258.916647 L 1560 170.51356 " transform="matrix(0.0999064, 0, 0, -0.0999064, 0.146067, 266.500234)"/>
<path fill="none" stroke-width="1.85696" stroke-linecap="round" stroke-linejoin="round" stroke="rgb(0%, 0%, 0%)" stroke-opacity="1" stroke-miterlimit="10" d="M 1560 258.916647 L 1736.845273 170.51356 " transform="matrix(0.0999064, 0, 0, -0.0999064, 0.146067, 266.500234)"/>
<path fill="none" stroke-width="1.85696" stroke-linecap="round" stroke-linejoin="round" stroke="rgb(0%, 0%, 0%)" stroke-opacity="1" stroke-miterlimit="10" d="M 1383.154727 170.51356 L 1383.154727 82.071374 " transform="matrix(0.0999064, 0, 0, -0.0999064, 0.146067, 266.500234)"/>
<path fill="none" stroke-width="37.1391" stroke-linecap="round" stroke-linejoin="round" stroke="rgb(0%, 0%, 0%)" stroke-opacity="1" stroke-miterlimit="10" d="M 1560 435.801019 L 1560 435.801019 " transform="matrix(0.0999064, 0, 0, -0.0999064, 0.146067, 266.500234)"/>
<path fill="none" stroke-width="37.1391" stroke-linecap="round" stroke-linejoin="round" stroke="rgb(0%, 0%, 0%)" stroke-opacity="1" stroke-miterlimit="10" d="M 1560 347.358833 L 1560 347.358833 " transform="matrix(0.0999064, 0, 0, -0.0999064, 0.146067, 266.500234)"/>
<path fill="none" stroke-width="37.1391" stroke-linecap="round" stroke-linejoin="round" stroke="rgb(100%, 0%, 0%)" stroke-opacity="1" stroke-miterlimit="10" d="M 1560 258.916647 L 1560 258.916647 " transform="matrix(0.0999064, 0, 0, -0.0999064, 0.146067, 266.500234)"/>
<path fill="none" stroke-width="37.1391" stroke-linecap="round" stroke-linejoin="round" stroke="rgb(0%, 0%, 0%)" stroke-opacity="1" stroke-miterlimit="10" d="M 1383.154727 170.51356 L 1383.154727 170.51356 " transform="matrix(0.0999064, 0, 0, -0.0999064, 0.146067, 266.500234)"/>
<path fill="none" stroke-width="37.1391" stroke-linecap="round" stroke-linejoin="round" stroke="rgb(0%, 0%, 0%)" stroke-opacity="1" stroke-miterlimit="10" d="M 1560 170.51356 L 1560 170.51356 " transform="matrix(0.0999064, 0, 0, -0.0999064, 0.146067, 266.500234)"/>
<path fill="none" stroke-width="37.1391" stroke-linecap="round" stroke-linejoin="round" stroke="rgb(0%, 0%, 0%)" stroke-opacity="1" stroke-miterlimit="10" d="M 1736.845273 170.51356 L 1736.845273 170.51356 " transform="matrix(0.0999064, 0, 0, -0.0999064, 0.146067, 266.500234)"/>
<path fill="none" stroke-width="37.1391" stroke-linecap="round" stroke-linejoin="round" stroke="rgb(0%, 0%, 0%)" stroke-opacity="1" stroke-miterlimit="10" d="M 1383.154727 82.071374 L 1383.154727 82.071374 " transform="matrix(0.0999064, 0, 0, -0.0999064, 0.146067, 266.500234)"/>
<path fill="none" stroke-width="1.85695" stroke-linecap="round" stroke-linejoin="round" stroke="rgb(0%, 0%, 0%)" stroke-opacity="1" stroke-miterlimit="10" d="M 1989.93381 435.801019 L 1989.93381 347.358833 " transform="matrix(0.0999064, 0, 0, -0.0999064, 0.146067, 266.500234)"/>
<path fill="none" stroke-width="1.85695" stroke-linecap="round" stroke-linejoin="round" stroke="rgb(0%, 0%, 0%)" stroke-opacity="1" stroke-miterlimit="10" d="M 1989.93381 347.358833 L 1989.93381 258.916647 " transform="matrix(0.0999064, 0, 0, -0.0999064, 0.146067, 266.500234)"/>
<path fill="none" stroke-width="1.85695" stroke-linecap="round" stroke-linejoin="round" stroke="rgb(0%, 0%, 0%)" stroke-opacity="1" stroke-miterlimit="10" d="M 1989.93381 258.916647 L 1813.088537 170.51356 " transform="matrix(0.0999064, 0, 0, -0.0999064, 0.146067, 266.500234)"/>
<path fill="none" stroke-width="1.85695" stroke-linecap="round" stroke-linejoin="round" stroke="rgb(0%, 0%, 0%)" stroke-opacity="1" stroke-miterlimit="10" d="M 1989.93381 258.916647 L 2166.779083 170.51356 " transform="matrix(0.0999064, 0, 0, -0.0999064, 0.146067, 266.500234)"/>
<path fill="none" stroke-width="1.85695" stroke-linecap="round" stroke-linejoin="round" stroke="rgb(0%, 0%, 0%)" stroke-opacity="1" stroke-miterlimit="10" d="M 1813.088537 170.51356 L 1813.088537 82.071374 " transform="matrix(0.0999064, 0, 0, -0.0999064, 0.146067, 266.500234)"/>
<path fill="none" stroke-width="1.85695" stroke-linecap="round" stroke-linejoin="round" stroke="rgb(0%, 0%, 0%)" stroke-opacity="1" stroke-miterlimit="10" d="M 2166.779083 170.51356 L 2166.779083 82.071374 " transform="matrix(0.0999064, 0, 0, -0.0999064, 0.146067, 266.500234)"/>
<path fill="none" stroke-width="37.139" stroke-linecap="round" stroke-linejoin="round" stroke="rgb(0%, 0%, 0%)" stroke-opacity="1" stroke-miterlimit="10" d="M 1989.93381 435.801019 L 1989.93381 435.801019 " transform="matrix(0.0999064, 0, 0, -0.0999064, 0.146067, 266.500234)"/>
<path fill="none" stroke-width="37.139" stroke-linecap="round" stroke-linejoin="round" stroke="rgb(0%, 0%, 0%)" stroke-opacity="1" stroke-miterlimit="10" d="M 1989.93381 347.358833 L 1989.93381 347.358833 " transform="matrix(0.0999064, 0, 0, -0.0999064, 0.146067, 266.500234)"/>
<path fill="none" stroke-width="37.139" stroke-linecap="round" stroke-linejoin="round" stroke="rgb(100%, 0%, 0%)" stroke-opacity="1" stroke-miterlimit="10" d="M 1989.93381 258.916647 L 1989.93381 258.916647 " transform="matrix(0.0999064, 0, 0, -0.0999064, 0.146067, 266.500234)"/>
<path fill="none" stroke-width="37.139" stroke-linecap="round" stroke-linejoin="round" stroke="rgb(0%, 0%, 0%)" stroke-opacity="1" stroke-miterlimit="10" d="M 1813.088537 170.51356 L 1813.088537 170.51356 " transform="matrix(0.0999064, 0, 0, -0.0999064, 0.146067, 266.500234)"/>
<path fill="none" stroke-width="37.139" stroke-linecap="round" stroke-linejoin="round" stroke="rgb(0%, 0%, 0%)" stroke-opacity="1" stroke-miterlimit="10" d="M 1813.088537 82.071374 L 1813.088537 82.071374 " transform="matrix(0.0999064, 0, 0, -0.0999064, 0.146067, 266.500234)"/>
<path fill="none" stroke-width="37.139" stroke-linecap="round" stroke-linejoin="round" stroke="rgb(0%, 0%, 0%)" stroke-opacity="1" stroke-miterlimit="10" d="M 2166.779083 170.51356 L 2166.779083 170.51356 " transform="matrix(0.0999064, 0, 0, -0.0999064, 0.146067, 266.500234)"/>
<path fill="none" stroke-width="37.139" stroke-linecap="round" stroke-linejoin="round" stroke="rgb(0%, 0%, 0%)" stroke-opacity="1" stroke-miterlimit="10" d="M 2166.779083 82.071374 L 2166.779083 82.071374 " transform="matrix(0.0999064, 0, 0, -0.0999064, 0.146067, 266.500234)"/>
<path fill="none" stroke-width="1.85695" stroke-linecap="round" stroke-linejoin="round" stroke="rgb(0%, 0%, 0%)" stroke-opacity="1" stroke-miterlimit="10" d="M 2455.213215 435.801019 L 2455.213215 347.358833 " transform="matrix(0.0999064, 0, 0, -0.0999064, 0.146067, 266.500234)"/>
<path fill="none" stroke-width="1.85695" stroke-linecap="round" stroke-linejoin="round" stroke="rgb(0%, 0%, 0%)" stroke-opacity="1" stroke-miterlimit="10" d="M 2455.213215 347.358833 L 2313.752636 258.916647 " transform="matrix(0.0999064, 0, 0, -0.0999064, 0.146067, 266.500234)"/>
<path fill="none" stroke-width="1.85695" stroke-linecap="round" stroke-linejoin="round" stroke="rgb(0%, 0%, 0%)" stroke-opacity="1" stroke-miterlimit="10" d="M 2455.213215 347.358833 L 2596.712892 258.916647 " transform="matrix(0.0999064, 0, 0, -0.0999064, 0.146067, 266.500234)"/>
<path fill="none" stroke-width="1.85695" stroke-linecap="round" stroke-linejoin="round" stroke="rgb(0%, 0%, 0%)" stroke-opacity="1" stroke-miterlimit="10" d="M 2313.752636 258.916647 L 2313.752636 170.51356 " transform="matrix(0.0999064, 0, 0, -0.0999064, 0.146067, 266.500234)"/>
<path fill="none" stroke-width="1.85695" stroke-linecap="round" stroke-linejoin="round" stroke="rgb(0%, 0%, 0%)" stroke-opacity="1" stroke-miterlimit="10" d="M 2313.752636 170.51356 L 2242.983247 82.071374 " transform="matrix(0.0999064, 0, 0, -0.0999064, 0.146067, 266.500234)"/>
<path fill="none" stroke-width="1.85695" stroke-linecap="round" stroke-linejoin="round" stroke="rgb(0%, 0%, 0%)" stroke-opacity="1" stroke-miterlimit="10" d="M 2313.752636 170.51356 L 2384.482925 82.071374 " transform="matrix(0.0999064, 0, 0, -0.0999064, 0.146067, 266.500234)"/>
<path fill="none" stroke-width="37.1389" stroke-linecap="round" stroke-linejoin="round" stroke="rgb(0%, 0%, 0%)" stroke-opacity="1" stroke-miterlimit="10" d="M 2455.213215 435.801019 L 2455.213215 435.801019 " transform="matrix(0.0999064, 0, 0, -0.0999064, 0.146067, 266.500234)"/>
<path fill="none" stroke-width="37.1389" stroke-linecap="round" stroke-linejoin="round" stroke="rgb(0%, 0%, 0%)" stroke-opacity="1" stroke-miterlimit="10" d="M 2455.213215 347.358833 L 2455.213215 347.358833 " transform="matrix(0.0999064, 0, 0, -0.0999064, 0.146067, 266.500234)"/>
<path fill="none" stroke-width="37.1389" stroke-linecap="round" stroke-linejoin="round" stroke="rgb(100%, 0%, 0%)" stroke-opacity="1" stroke-miterlimit="10" d="M 2313.752636 258.916647 L 2313.752636 258.916647 " transform="matrix(0.0999064, 0, 0, -0.0999064, 0.146067, 266.500234)"/>
<path fill="none" stroke-width="37.1389" stroke-linecap="round" stroke-linejoin="round" stroke="rgb(0%, 0%, 0%)" stroke-opacity="1" stroke-miterlimit="10" d="M 2313.752636 170.51356 L 2313.752636 170.51356 " transform="matrix(0.0999064, 0, 0, -0.0999064, 0.146067, 266.500234)"/>
<path fill="none" stroke-width="37.1389" stroke-linecap="round" stroke-linejoin="round" stroke="rgb(0%, 0%, 0%)" stroke-opacity="1" stroke-miterlimit="10" d="M 2242.983247 82.071374 L 2242.983247 82.071374 " transform="matrix(0.0999064, 0, 0, -0.0999064, 0.146067, 266.500234)"/>
<path fill="none" stroke-width="37.1389" stroke-linecap="round" stroke-linejoin="round" stroke="rgb(0%, 0%, 0%)" stroke-opacity="1" stroke-miterlimit="10" d="M 2384.482925 82.071374 L 2384.482925 82.071374 " transform="matrix(0.0999064, 0, 0, -0.0999064, 0.146067, 266.500234)"/>
<path fill="none" stroke-width="37.1389" stroke-linecap="round" stroke-linejoin="round" stroke="rgb(0%, 0%, 0%)" stroke-opacity="1" stroke-miterlimit="10" d="M 2596.712892 258.916647 L 2596.712892 258.916647 " transform="matrix(0.0999064, 0, 0, -0.0999064, 0.146067, 266.500234)"/>
<path fill="none" stroke-width="1.85695" stroke-linecap="round" stroke-linejoin="round" stroke="rgb(0%, 0%, 0%)" stroke-opacity="1" stroke-miterlimit="10" d="M 2849.801429 435.801019 L 2672.917057 365.031631 " transform="matrix(0.0999064, 0, 0, -0.0999064, 0.146067, 266.500234)"/>
<path fill="none" stroke-width="1.85695" stroke-linecap="round" stroke-linejoin="round" stroke="rgb(0%, 0%, 0%)" stroke-opacity="1" stroke-miterlimit="10" d="M 2849.801429 435.801019 L 3026.646702 365.031631 " transform="matrix(0.0999064, 0, 0, -0.0999064, 0.146067, 266.500234)"/>
<path fill="none" stroke-width="1.85695" stroke-linecap="round" stroke-linejoin="round" stroke="rgb(0%, 0%, 0%)" stroke-opacity="1" stroke-miterlimit="10" d="M 2672.917057 365.031631 L 2672.917057 294.301341 " transform="matrix(0.0999064, 0, 0, -0.0999064, 0.146067, 266.500234)"/>
<path fill="none" stroke-width="1.85695" stroke-linecap="round" stroke-linejoin="round" stroke="rgb(0%, 0%, 0%)" stroke-opacity="1" stroke-miterlimit="10" d="M 2672.917057 294.301341 L 2672.917057 223.571052 " transform="matrix(0.0999064, 0, 0, -0.0999064, 0.146067, 266.500234)"/>
<path fill="none" stroke-width="1.85695" stroke-linecap="round" stroke-linejoin="round" stroke="rgb(0%, 0%, 0%)" stroke-opacity="1" stroke-miterlimit="10" d="M 2672.917057 223.571052 L 2672.917057 152.840763 " transform="matrix(0.0999064, 0, 0, -0.0999064, 0.146067, 266.500234)"/>
<path fill="none" stroke-width="1.85695" stroke-linecap="round" stroke-linejoin="round" stroke="rgb(0%, 0%, 0%)" stroke-opacity="1" stroke-miterlimit="10" d="M 2672.917057 152.840763 L 2672.917057 82.071374 " transform="matrix(0.0999064, 0, 0, -0.0999064, 0.146067, 266.500234)"/>
<path fill="none" stroke-width="37.139" stroke-linecap="round" stroke-linejoin="round" stroke="rgb(0%, 0%, 0%)" stroke-opacity="1" stroke-miterlimit="10" d="M 2849.801429 435.801019 L 2849.801429 435.801019 " transform="matrix(0.0999064, 0, 0, -0.0999064, 0.146067, 266.500234)"/>
<path fill="none" stroke-width="37.139" stroke-linecap="round" stroke-linejoin="round" stroke="rgb(0%, 0%, 0%)" stroke-opacity="1" stroke-miterlimit="10" d="M 2672.917057 365.031631 L 2672.917057 365.031631 " transform="matrix(0.0999064, 0, 0, -0.0999064, 0.146067, 266.500234)"/>
<path fill="none" stroke-width="37.139" stroke-linecap="round" stroke-linejoin="round" stroke="rgb(100%, 0%, 0%)" stroke-opacity="1" stroke-miterlimit="10" d="M 2672.917057 294.301341 L 2672.917057 294.301341 " transform="matrix(0.0999064, 0, 0, -0.0999064, 0.146067, 266.500234)"/>
<path fill="none" stroke-width="37.139" stroke-linecap="round" stroke-linejoin="round" stroke="rgb(0%, 0%, 0%)" stroke-opacity="1" stroke-miterlimit="10" d="M 2672.917057 223.571052 L 2672.917057 223.571052 " transform="matrix(0.0999064, 0, 0, -0.0999064, 0.146067, 266.500234)"/>
<path fill="none" stroke-width="37.139" stroke-linecap="round" stroke-linejoin="round" stroke="rgb(0%, 0%, 0%)" stroke-opacity="1" stroke-miterlimit="10" d="M 2672.917057 152.840763 L 2672.917057 152.840763 " transform="matrix(0.0999064, 0, 0, -0.0999064, 0.146067, 266.500234)"/>
<path fill="none" stroke-width="37.139" stroke-linecap="round" stroke-linejoin="round" stroke="rgb(0%, 0%, 0%)" stroke-opacity="1" stroke-miterlimit="10" d="M 2672.917057 82.071374 L 2672.917057 82.071374 " transform="matrix(0.0999064, 0, 0, -0.0999064, 0.146067, 266.500234)"/>
<path fill="none" stroke-width="37.139" stroke-linecap="round" stroke-linejoin="round" stroke="rgb(0%, 0%, 0%)" stroke-opacity="1" stroke-miterlimit="10" d="M 3026.646702 365.031631 L 3026.646702 365.031631 " transform="matrix(0.0999064, 0, 0, -0.0999064, 0.146067, 266.500234)"/>
<path fill="none" stroke-width="1.85695" stroke-linecap="round" stroke-linejoin="round" stroke="rgb(0%, 0%, 0%)" stroke-opacity="1" stroke-miterlimit="10" d="M 270.198571 865.69573 L 270.198571 777.292643 " transform="matrix(0.0999064, 0, 0, -0.0999064, 0.146067, 266.500234)"/>
<path fill="none" stroke-width="1.85695" stroke-linecap="round" stroke-linejoin="round" stroke="rgb(0%, 0%, 0%)" stroke-opacity="1" stroke-miterlimit="10" d="M 270.198571 777.292643 L 270.198571 688.850457 " transform="matrix(0.0999064, 0, 0, -0.0999064, 0.146067, 266.500234)"/>
<path fill="none" stroke-width="1.85695" stroke-linecap="round" stroke-linejoin="round" stroke="rgb(0%, 0%, 0%)" stroke-opacity="1" stroke-miterlimit="10" d="M 270.198571 688.850457 L 270.198571 600.44737 " transform="matrix(0.0999064, 0, 0, -0.0999064, 0.146067, 266.500234)"/>
<path fill="none" stroke-width="1.85695" stroke-linecap="round" stroke-linejoin="round" stroke="rgb(0%, 0%, 0%)" stroke-opacity="1" stroke-miterlimit="10" d="M 270.198571 600.44737 L 93.353298 512.005184 " transform="matrix(0.0999064, 0, 0, -0.0999064, 0.146067, 266.500234)"/>
<path fill="none" stroke-width="1.85695" stroke-linecap="round" stroke-linejoin="round" stroke="rgb(0%, 0%, 0%)" stroke-opacity="1" stroke-miterlimit="10" d="M 270.198571 600.44737 L 447.082943 512.005184 " transform="matrix(0.0999064, 0, 0, -0.0999064, 0.146067, 266.500234)"/>
<path fill="none" stroke-width="37.139" stroke-linecap="round" stroke-linejoin="round" stroke="rgb(0%, 0%, 0%)" stroke-opacity="1" stroke-miterlimit="10" d="M 270.198571 865.69573 L 270.198571 865.69573 " transform="matrix(0.0999064, 0, 0, -0.0999064, 0.146067, 266.500234)"/>
<path fill="none" stroke-width="37.139" stroke-linecap="round" stroke-linejoin="round" stroke="rgb(0%, 0%, 0%)" stroke-opacity="1" stroke-miterlimit="10" d="M 270.198571 777.292643 L 270.198571 777.292643 " transform="matrix(0.0999064, 0, 0, -0.0999064, 0.146067, 266.500234)"/>
<path fill="none" stroke-width="37.139" stroke-linecap="round" stroke-linejoin="round" stroke="rgb(100%, 0%, 0%)" stroke-opacity="1" stroke-miterlimit="10" d="M 270.198571 688.850457 L 270.198571 688.850457 " transform="matrix(0.0999064, 0, 0, -0.0999064, 0.146067, 266.500234)"/>
<path fill="none" stroke-width="37.139" stroke-linecap="round" stroke-linejoin="round" stroke="rgb(0%, 0%, 0%)" stroke-opacity="1" stroke-miterlimit="10" d="M 270.198571 600.44737 L 270.198571 600.44737 " transform="matrix(0.0999064, 0, 0, -0.0999064, 0.146067, 266.500234)"/>
<path fill="none" stroke-width="37.139" stroke-linecap="round" stroke-linejoin="round" stroke="rgb(0%, 0%, 0%)" stroke-opacity="1" stroke-miterlimit="10" d="M 93.353298 512.005184 L 93.353298 512.005184 " transform="matrix(0.0999064, 0, 0, -0.0999064, 0.146067, 266.500234)"/>
<path fill="none" stroke-width="37.139" stroke-linecap="round" stroke-linejoin="round" stroke="rgb(0%, 0%, 0%)" stroke-opacity="1" stroke-miterlimit="10" d="M 447.082943 512.005184 L 447.082943 512.005184 " transform="matrix(0.0999064, 0, 0, -0.0999064, 0.146067, 266.500234)"/>
<path fill="none" stroke-width="1.85695" stroke-linecap="round" stroke-linejoin="round" stroke="rgb(0%, 0%, 0%)" stroke-opacity="1" stroke-miterlimit="10" d="M 700.132381 865.69573 L 700.132381 777.292643 " transform="matrix(0.0999064, 0, 0, -0.0999064, 0.146067, 266.500234)"/>
<path fill="none" stroke-width="1.85695" stroke-linecap="round" stroke-linejoin="round" stroke="rgb(0%, 0%, 0%)" stroke-opacity="1" stroke-miterlimit="10" d="M 700.132381 777.292643 L 700.132381 688.850457 " transform="matrix(0.0999064, 0, 0, -0.0999064, 0.146067, 266.500234)"/>
<path fill="none" stroke-width="1.85695" stroke-linecap="round" stroke-linejoin="round" stroke="rgb(0%, 0%, 0%)" stroke-opacity="1" stroke-miterlimit="10" d="M 700.132381 688.850457 L 523.287108 600.44737 " transform="matrix(0.0999064, 0, 0, -0.0999064, 0.146067, 266.500234)"/>
<path fill="none" stroke-width="1.85695" stroke-linecap="round" stroke-linejoin="round" stroke="rgb(0%, 0%, 0%)" stroke-opacity="1" stroke-miterlimit="10" d="M 700.132381 688.850457 L 876.977653 600.44737 " transform="matrix(0.0999064, 0, 0, -0.0999064, 0.146067, 266.500234)"/>
<path fill="none" stroke-width="1.85695" stroke-linecap="round" stroke-linejoin="round" stroke="rgb(0%, 0%, 0%)" stroke-opacity="1" stroke-miterlimit="10" d="M 523.287108 600.44737 L 523.287108 512.005184 " transform="matrix(0.0999064, 0, 0, -0.0999064, 0.146067, 266.500234)"/>
<path fill="none" stroke-width="37.139" stroke-linecap="round" stroke-linejoin="round" stroke="rgb(0%, 0%, 0%)" stroke-opacity="1" stroke-miterlimit="10" d="M 700.132381 865.69573 L 700.132381 865.69573 " transform="matrix(0.0999064, 0, 0, -0.0999064, 0.146067, 266.500234)"/>
<path fill="none" stroke-width="37.139" stroke-linecap="round" stroke-linejoin="round" stroke="rgb(0%, 0%, 0%)" stroke-opacity="1" stroke-miterlimit="10" d="M 700.132381 777.292643 L 700.132381 777.292643 " transform="matrix(0.0999064, 0, 0, -0.0999064, 0.146067, 266.500234)"/>
<path fill="none" stroke-width="37.139" stroke-linecap="round" stroke-linejoin="round" stroke="rgb(100%, 0%, 0%)" stroke-opacity="1" stroke-miterlimit="10" d="M 700.132381 688.850457 L 700.132381 688.850457 " transform="matrix(0.0999064, 0, 0, -0.0999064, 0.146067, 266.500234)"/>
<path fill="none" stroke-width="37.139" stroke-linecap="round" stroke-linejoin="round" stroke="rgb(0%, 0%, 0%)" stroke-opacity="1" stroke-miterlimit="10" d="M 523.287108 600.44737 L 523.287108 600.44737 " transform="matrix(0.0999064, 0, 0, -0.0999064, 0.146067, 266.500234)"/>
<path fill="none" stroke-width="37.139" stroke-linecap="round" stroke-linejoin="round" stroke="rgb(0%, 0%, 0%)" stroke-opacity="1" stroke-miterlimit="10" d="M 523.287108 512.005184 L 523.287108 512.005184 " transform="matrix(0.0999064, 0, 0, -0.0999064, 0.146067, 266.500234)"/>
<path fill="none" stroke-width="37.139" stroke-linecap="round" stroke-linejoin="round" stroke="rgb(0%, 0%, 0%)" stroke-opacity="1" stroke-miterlimit="10" d="M 876.977653 600.44737 L 876.977653 600.44737 " transform="matrix(0.0999064, 0, 0, -0.0999064, 0.146067, 266.500234)"/>
<path fill="none" stroke-width="1.85695" stroke-linecap="round" stroke-linejoin="round" stroke="rgb(0%, 0%, 0%)" stroke-opacity="1" stroke-miterlimit="10" d="M 1130.06619 865.69573 L 1130.06619 688.850457 " transform="matrix(0.0999064, 0, 0, -0.0999064, 0.146067, 266.500234)"/>
<path fill="none" stroke-width="1.85695" stroke-linecap="round" stroke-linejoin="round" stroke="rgb(0%, 0%, 0%)" stroke-opacity="1" stroke-miterlimit="10" d="M 1130.06619 688.850457 L 953.220917 512.005184 " transform="matrix(0.0999064, 0, 0, -0.0999064, 0.146067, 266.500234)"/>
<path fill="none" stroke-width="1.85695" stroke-linecap="round" stroke-linejoin="round" stroke="rgb(0%, 0%, 0%)" stroke-opacity="1" stroke-miterlimit="10" d="M 1130.06619 688.850457 L 1071.104733 512.005184 " transform="matrix(0.0999064, 0, 0, -0.0999064, 0.146067, 266.500234)"/>
<path fill="none" stroke-width="1.85695" stroke-linecap="round" stroke-linejoin="round" stroke="rgb(0%, 0%, 0%)" stroke-opacity="1" stroke-miterlimit="10" d="M 1130.06619 688.850457 L 1189.027648 512.005184 " transform="matrix(0.0999064, 0, 0, -0.0999064, 0.146067, 266.500234)"/>
<path fill="none" stroke-width="1.85695" stroke-linecap="round" stroke-linejoin="round" stroke="rgb(0%, 0%, 0%)" stroke-opacity="1" stroke-miterlimit="10" d="M 1130.06619 688.850457 L 1306.911463 512.005184 " transform="matrix(0.0999064, 0, 0, -0.0999064, 0.146067, 266.500234)"/>
<path fill="none" stroke-width="37.139" stroke-linecap="round" stroke-linejoin="round" stroke="rgb(0%, 0%, 0%)" stroke-opacity="1" stroke-miterlimit="10" d="M 1130.06619 865.69573 L 1130.06619 865.69573 " transform="matrix(0.0999064, 0, 0, -0.0999064, 0.146067, 266.500234)"/>
<path fill="none" stroke-width="37.139" stroke-linecap="round" stroke-linejoin="round" stroke="rgb(100%, 0%, 0%)" stroke-opacity="1" stroke-miterlimit="10" d="M 1130.06619 688.850457 L 1130.06619 688.850457 " transform="matrix(0.0999064, 0, 0, -0.0999064, 0.146067, 266.500234)"/>
<path fill="none" stroke-width="37.139" stroke-linecap="round" stroke-linejoin="round" stroke="rgb(0%, 0%, 0%)" stroke-opacity="1" stroke-miterlimit="10" d="M 953.220917 512.005184 L 953.220917 512.005184 " transform="matrix(0.0999064, 0, 0, -0.0999064, 0.146067, 266.500234)"/>
<path fill="none" stroke-width="37.139" stroke-linecap="round" stroke-linejoin="round" stroke="rgb(0%, 0%, 0%)" stroke-opacity="1" stroke-miterlimit="10" d="M 1071.104733 512.005184 L 1071.104733 512.005184 " transform="matrix(0.0999064, 0, 0, -0.0999064, 0.146067, 266.500234)"/>
<path fill="none" stroke-width="37.139" stroke-linecap="round" stroke-linejoin="round" stroke="rgb(0%, 0%, 0%)" stroke-opacity="1" stroke-miterlimit="10" d="M 1189.027648 512.005184 L 1189.027648 512.005184 " transform="matrix(0.0999064, 0, 0, -0.0999064, 0.146067, 266.500234)"/>
<path fill="none" stroke-width="37.139" stroke-linecap="round" stroke-linejoin="round" stroke="rgb(0%, 0%, 0%)" stroke-opacity="1" stroke-miterlimit="10" d="M 1306.911463 512.005184 L 1306.911463 512.005184 " transform="matrix(0.0999064, 0, 0, -0.0999064, 0.146067, 266.500234)"/>
<path fill="none" stroke-width="1.85695" stroke-linecap="round" stroke-linejoin="round" stroke="rgb(0%, 0%, 0%)" stroke-opacity="1" stroke-miterlimit="10" d="M 270.198571 1295.62954 L 270.198571 1207.226453 " transform="matrix(0.0999064, 0, 0, -0.0999064, 0.146067, 266.500234)"/>
<path fill="none" stroke-width="1.85695" stroke-linecap="round" stroke-linejoin="round" stroke="rgb(0%, 0%, 0%)" stroke-opacity="1" stroke-miterlimit="10" d="M 270.198571 1207.226453 L 270.198571 1118.784267 " transform="matrix(0.0999064, 0, 0, -0.0999064, 0.146067, 266.500234)"/>
<path fill="none" stroke-width="1.85695" stroke-linecap="round" stroke-linejoin="round" stroke="rgb(0%, 0%, 0%)" stroke-opacity="1" stroke-miterlimit="10" d="M 270.198571 1118.784267 L 270.198571 1030.342081 " transform="matrix(0.0999064, 0, 0, -0.0999064, 0.146067, 266.500234)"/>
<path fill="none" stroke-width="1.85695" stroke-linecap="round" stroke-linejoin="round" stroke="rgb(0%, 0%, 0%)" stroke-opacity="1" stroke-miterlimit="10" d="M 270.198571 1030.342081 L 270.198571 941.938994 " transform="matrix(0.0999064, 0, 0, -0.0999064, 0.146067, 266.500234)"/>
<path fill="none" stroke-width="37.139" stroke-linecap="round" stroke-linejoin="round" stroke="rgb(0%, 0%, 0%)" stroke-opacity="1" stroke-miterlimit="10" d="M 270.198571 1295.62954 L 270.198571 1295.62954 " transform="matrix(0.0999064, 0, 0, -0.0999064, 0.146067, 266.500234)"/>
<path fill="none" stroke-width="37.139" stroke-linecap="round" stroke-linejoin="round" stroke="rgb(0%, 0%, 0%)" stroke-opacity="1" stroke-miterlimit="10" d="M 270.198571 1207.226453 L 270.198571 1207.226453 " transform="matrix(0.0999064, 0, 0, -0.0999064, 0.146067, 266.500234)"/>
<path fill="none" stroke-width="37.139" stroke-linecap="round" stroke-linejoin="round" stroke="rgb(100%, 0%, 0%)" stroke-opacity="1" stroke-miterlimit="10" d="M 270.198571 1118.784267 L 270.198571 1118.784267 " transform="matrix(0.0999064, 0, 0, -0.0999064, 0.146067, 266.500234)"/>
<path fill="none" stroke-width="37.139" stroke-linecap="round" stroke-linejoin="round" stroke="rgb(0%, 0%, 0%)" stroke-opacity="1" stroke-miterlimit="10" d="M 270.198571 1030.342081 L 270.198571 1030.342081 " transform="matrix(0.0999064, 0, 0, -0.0999064, 0.146067, 266.500234)"/>
<path fill="none" stroke-width="37.139" stroke-linecap="round" stroke-linejoin="round" stroke="rgb(0%, 0%, 0%)" stroke-opacity="1" stroke-miterlimit="10" d="M 270.198571 941.938994 L 270.198571 941.938994 " transform="matrix(0.0999064, 0, 0, -0.0999064, 0.146067, 266.500234)"/>
<path fill="none" stroke-width="1.85695" stroke-linecap="round" stroke-linejoin="round" stroke="rgb(0%, 0%, 0%)" stroke-opacity="1" stroke-miterlimit="10" d="M 700.132381 1295.62954 L 700.132381 1118.784267 " transform="matrix(0.0999064, 0, 0, -0.0999064, 0.146067, 266.500234)"/>
<path fill="none" stroke-width="1.85695" stroke-linecap="round" stroke-linejoin="round" stroke="rgb(0%, 0%, 0%)" stroke-opacity="1" stroke-miterlimit="10" d="M 700.132381 1118.784267 L 523.287108 941.938994 " transform="matrix(0.0999064, 0, 0, -0.0999064, 0.146067, 266.500234)"/>
<path fill="none" stroke-width="1.85695" stroke-linecap="round" stroke-linejoin="round" stroke="rgb(0%, 0%, 0%)" stroke-opacity="1" stroke-miterlimit="10" d="M 700.132381 1118.784267 L 700.132381 941.938994 " transform="matrix(0.0999064, 0, 0, -0.0999064, 0.146067, 266.500234)"/>
<path fill="none" stroke-width="1.85695" stroke-linecap="round" stroke-linejoin="round" stroke="rgb(0%, 0%, 0%)" stroke-opacity="1" stroke-miterlimit="10" d="M 700.132381 1118.784267 L 876.977653 941.938994 " transform="matrix(0.0999064, 0, 0, -0.0999064, 0.146067, 266.500234)"/>
<path fill="none" stroke-width="37.139" stroke-linecap="round" stroke-linejoin="round" stroke="rgb(0%, 0%, 0%)" stroke-opacity="1" stroke-miterlimit="10" d="M 700.132381 1295.62954 L 700.132381 1295.62954 " transform="matrix(0.0999064, 0, 0, -0.0999064, 0.146067, 266.500234)"/>
<path fill="none" stroke-width="37.139" stroke-linecap="round" stroke-linejoin="round" stroke="rgb(100%, 0%, 0%)" stroke-opacity="1" stroke-miterlimit="10" d="M 700.132381 1118.784267 L 700.132381 1118.784267 " transform="matrix(0.0999064, 0, 0, -0.0999064, 0.146067, 266.500234)"/>
<path fill="none" stroke-width="37.139" stroke-linecap="round" stroke-linejoin="round" stroke="rgb(0%, 0%, 0%)" stroke-opacity="1" stroke-miterlimit="10" d="M 523.287108 941.938994 L 523.287108 941.938994 " transform="matrix(0.0999064, 0, 0, -0.0999064, 0.146067, 266.500234)"/>
<path fill="none" stroke-width="37.139" stroke-linecap="round" stroke-linejoin="round" stroke="rgb(0%, 0%, 0%)" stroke-opacity="1" stroke-miterlimit="10" d="M 700.132381 941.938994 L 700.132381 941.938994 " transform="matrix(0.0999064, 0, 0, -0.0999064, 0.146067, 266.500234)"/>
<path fill="none" stroke-width="37.139" stroke-linecap="round" stroke-linejoin="round" stroke="rgb(0%, 0%, 0%)" stroke-opacity="1" stroke-miterlimit="10" d="M 876.977653 941.938994 L 876.977653 941.938994 " transform="matrix(0.0999064, 0, 0, -0.0999064, 0.146067, 266.500234)"/>
<path fill="none" stroke-width="1.85696" stroke-linecap="round" stroke-linejoin="round" stroke="rgb(0%, 0%, 0%)" stroke-opacity="1" stroke-miterlimit="10" d="M 270.198571 1725.563349 L 270.198571 1548.718076 " transform="matrix(0.0999064, 0, 0, -0.0999064, 0.146067, 266.500234)"/>
<path fill="none" stroke-width="1.85696" stroke-linecap="round" stroke-linejoin="round" stroke="rgb(0%, 0%, 0%)" stroke-opacity="1" stroke-miterlimit="10" d="M 270.198571 1548.718076 L 93.353298 1371.872803 " transform="matrix(0.0999064, 0, 0, -0.0999064, 0.146067, 266.500234)"/>
<path fill="none" stroke-width="1.85696" stroke-linecap="round" stroke-linejoin="round" stroke="rgb(0%, 0%, 0%)" stroke-opacity="1" stroke-miterlimit="10" d="M 270.198571 1548.718076 L 447.082943 1371.872803 " transform="matrix(0.0999064, 0, 0, -0.0999064, 0.146067, 266.500234)"/>
<path fill="none" stroke-width="37.1391" stroke-linecap="round" stroke-linejoin="round" stroke="rgb(0%, 0%, 0%)" stroke-opacity="1" stroke-miterlimit="10" d="M 270.198571 1725.563349 L 270.198571 1725.563349 " transform="matrix(0.0999064, 0, 0, -0.0999064, 0.146067, 266.500234)"/>
<path fill="none" stroke-width="37.1391" stroke-linecap="round" stroke-linejoin="round" stroke="rgb(100%, 0%, 0%)" stroke-opacity="1" stroke-miterlimit="10" d="M 270.198571 1548.718076 L 270.198571 1548.718076 " transform="matrix(0.0999064, 0, 0, -0.0999064, 0.146067, 266.500234)"/>
<path fill="none" stroke-width="37.1391" stroke-linecap="round" stroke-linejoin="round" stroke="rgb(0%, 0%, 0%)" stroke-opacity="1" stroke-miterlimit="10" d="M 93.353298 1371.872803 L 93.353298 1371.872803 " transform="matrix(0.0999064, 0, 0, -0.0999064, 0.146067, 266.500234)"/>
<path fill="none" stroke-width="37.1391" stroke-linecap="round" stroke-linejoin="round" stroke="rgb(0%, 0%, 0%)" stroke-opacity="1" stroke-miterlimit="10" d="M 447.082943 1371.872803 L 447.082943 1371.872803 " transform="matrix(0.0999064, 0, 0, -0.0999064, 0.146067, 266.500234)"/>
<path fill="none" stroke-width="1.85695" stroke-linecap="round" stroke-linejoin="round" stroke="rgb(0%, 0%, 0%)" stroke-opacity="1" stroke-miterlimit="10" d="M 270.198571 2155.497159 L 270.198571 1978.651886 " transform="matrix(0.0999064, 0, 0, -0.0999064, 0.146067, 266.500234)"/>
<path fill="none" stroke-width="1.85695" stroke-linecap="round" stroke-linejoin="round" stroke="rgb(0%, 0%, 0%)" stroke-opacity="1" stroke-miterlimit="10" d="M 270.198571 1978.651886 L 270.198571 1801.806613 " transform="matrix(0.0999064, 0, 0, -0.0999064, 0.146067, 266.500234)"/>
<path fill="none" stroke-width="37.139" stroke-linecap="round" stroke-linejoin="round" stroke="rgb(0%, 0%, 0%)" stroke-opacity="1" stroke-miterlimit="10" d="M 270.198571 2155.497159 L 270.198571 2155.497159 " transform="matrix(0.0999064, 0, 0, -0.0999064, 0.146067, 266.500234)"/>
<path fill="none" stroke-width="37.139" stroke-linecap="round" stroke-linejoin="round" stroke="rgb(100%, 0%, 0%)" stroke-opacity="1" stroke-miterlimit="10" d="M 270.198571 1978.651886 L 270.198571 1978.651886 " transform="matrix(0.0999064, 0, 0, -0.0999064, 0.146067, 266.500234)"/>
<path fill="none" stroke-width="37.139" stroke-linecap="round" stroke-linejoin="round" stroke="rgb(0%, 0%, 0%)" stroke-opacity="1" stroke-miterlimit="10" d="M 270.198571 1801.806613 L 270.198571 1801.806613 " transform="matrix(0.0999064, 0, 0, -0.0999064, 0.146067, 266.500234)"/>
<path fill="none" stroke-width="39.0845" stroke-linecap="round" stroke-linejoin="round" stroke="rgb(100%, 0%, 0%)" stroke-opacity="1" stroke-miterlimit="10" d="M 270.198571 2408.585696 L 270.198571 2408.585696 " transform="matrix(0.0999064, 0, 0, -0.0999064, 0.146067, 266.500234)"/>
</svg>
