<?xml version="1.0" encoding="UTF-8"?>
<svg xmlns="http://www.w3.org/2000/svg" xmlns:xlink="http://www.w3.org/1999/xlink" width="320" height="165" viewBox="0 0 320 165">
<path fill="none" stroke-width="4" stroke-linecap="square" stroke-linejoin="miter" stroke="rgb(0%, 0%, 0%)" stroke-opacity="1" stroke-miterlimit="3.25" d="M 493.710938 863.671875 L 416.015625 196.796875 " transform="matrix(0.1, 0, 0, -0.1, 0, 165)"/>
<path fill="none" stroke-width="4" stroke-linecap="square" stroke-linejoin="miter" stroke="rgb(0%, 0%, 0%)" stroke-opacity="1" stroke-miterlimit="3.25" d="M 493.710938 863.671875 L 822.851562 1448.90625 " transform="matrix(0.1, 0, 0, -0.1, 0, 165)"/>
<path fill="none" stroke-width="4" stroke-linecap="square" stroke-linejoin="miter" stroke="rgb(0%, 0%, 0%)" stroke-opacity="1" stroke-miterlimit="3.25" d="M 493.710938 863.671875 L 719.023438 756.757812 " transform="matrix(0.1, 0, 0, -0.1, 0, 165)"/>
<path fill="none" stroke-width="4" stroke-linecap="square" stroke-linejoin="miter" stroke="rgb(0%, 0%, 0%)" stroke-opacity="1" stroke-miterlimit="3.25" d="M 493.710938 863.671875 L 926.679688 756.757812 " transform="matrix(0.1, 0, 0, -0.1, 0, 165)"/>
<path fill="none" stroke-width="4" stroke-linecap="square" stroke-linejoin="miter" stroke="rgb(0%, 0%, 0%)" stroke-opacity="1" stroke-miterlimit="3.25" d="M 619.414062 476.757812 L 1026.289062 476.757812 " transform="matrix(0.1, 0, 0, -0.1, 0, 165)"/>
<path fill="none" stroke-width="4" stroke-linecap="square" stroke-linejoin="miter" stroke="rgb(0%, 0%, 0%)" stroke-opacity="1" stroke-miterlimit="3.25" d="M 619.414062 476.757812 L 164.570312 970.625 " transform="matrix(0.1, 0, 0, -0.1, 0, 165)"/>
<path fill="none" stroke-width="4" stroke-linecap="square" stroke-linejoin="miter" stroke="rgb(0%, 0%, 0%)" stroke-opacity="1" stroke-miterlimit="3.25" d="M 619.414062 476.757812 L 1229.726562 196.796875 " transform="matrix(0.1, 0, 0, -0.1, 0, 165)"/>
<path fill="none" stroke-width="4" stroke-linecap="square" stroke-linejoin="miter" stroke="rgb(0%, 0%, 0%)" stroke-opacity="1" stroke-miterlimit="3.25" d="M 619.414062 476.757812 L 719.023438 756.757812 " transform="matrix(0.1, 0, 0, -0.1, 0, 165)"/>
<path fill="none" stroke-width="4" stroke-linecap="square" stroke-linejoin="miter" stroke="rgb(0%, 0%, 0%)" stroke-opacity="1" stroke-miterlimit="3.25" d="M 1026.289062 476.757812 L 416.015625 196.796875 " transform="matrix(0.1, 0, 0, -0.1, 0, 165)"/>
<path fill="none" stroke-width="4" stroke-linecap="square" stroke-linejoin="miter" stroke="rgb(0%, 0%, 0%)" stroke-opacity="1" stroke-miterlimit="3.25" d="M 1026.289062 476.757812 L 1481.132812 970.625 " transform="matrix(0.1, 0, 0, -0.1, 0, 165)"/>
<path fill="none" stroke-width="4" stroke-linecap="square" stroke-linejoin="miter" stroke="rgb(0%, 0%, 0%)" stroke-opacity="1" stroke-miterlimit="3.25" d="M 1026.289062 476.757812 L 926.679688 756.757812 " transform="matrix(0.1, 0, 0, -0.1, 0, 165)"/>
<path fill="none" stroke-width="4" stroke-linecap="square" stroke-linejoin="miter" stroke="rgb(0%, 0%, 0%)" stroke-opacity="1" stroke-miterlimit="3.25" d="M 1152.03125 863.671875 L 1229.726562 196.796875 " transform="matrix(0.1, 0, 0, -0.1, 0, 165)"/>
<path fill="none" stroke-width="4" stroke-linecap="square" stroke-linejoin="miter" stroke="rgb(0%, 0%, 0%)" stroke-opacity="1" stroke-miterlimit="3.25" d="M 1152.03125 863.671875 L 822.851562 1448.90625 " transform="matrix(0.1, 0, 0, -0.1, 0, 165)"/>
<path fill="none" stroke-width="4" stroke-linecap="square" stroke-linejoin="miter" stroke="rgb(0%, 0%, 0%)" stroke-opacity="1" stroke-miterlimit="3.25" d="M 1152.03125 863.671875 L 719.023438 756.757812 " transform="matrix(0.1, 0, 0, -0.1, 0, 165)"/>
<path fill="none" stroke-width="4" stroke-linecap="square" stroke-linejoin="miter" stroke="rgb(0%, 0%, 0%)" stroke-opacity="1" stroke-miterlimit="3.25" d="M 1152.03125 863.671875 L 926.679688 756.757812 " transform="matrix(0.1, 0, 0, -0.1, 0, 165)"/>
<path fill="none" stroke-width="4" stroke-linecap="square" stroke-linejoin="miter" stroke="rgb(0%, 0%, 0%)" stroke-opacity="1" stroke-miterlimit="3.25" d="M 822.851562 1102.8125 L 164.570312 970.625 " transform="matrix(0.1, 0, 0, -0.1, 0, 165)"/>
<path fill="none" stroke-width="4" stroke-linecap="square" stroke-linejoin="miter" stroke="rgb(0%, 0%, 0%)" stroke-opacity="1" stroke-miterlimit="3.25" d="M 822.851562 1102.8125 L 1481.132812 970.625 " transform="matrix(0.1, 0, 0, -0.1, 0, 165)"/>
<path fill="none" stroke-width="4" stroke-linecap="square" stroke-linejoin="miter" stroke="rgb(0%, 0%, 0%)" stroke-opacity="1" stroke-miterlimit="3.25" d="M 822.851562 1102.8125 L 719.023438 756.757812 " transform="matrix(0.1, 0, 0, -0.1, 0, 165)"/>
<path fill="none" stroke-width="4" stroke-linecap="square" stroke-linejoin="miter" stroke="rgb(0%, 0%, 0%)" stroke-opacity="1" stroke-miterlimit="3.25" d="M 822.851562 1102.8125 L 926.679688 756.757812 " transform="matrix(0.1, 0, 0, -0.1, 0, 165)"/>
<path fill="none" stroke-width="4" stroke-linecap="square" stroke-linejoin="miter" stroke="rgb(0%, 0%, 0%)" stroke-opacity="1" stroke-miterlimit="3.25" d="M 164.570312 970.625 L 416.015625 196.796875 " transform="matrix(0.1, 0, 0, -0.1, 0, 165)"/>
<path fill="none" stroke-width="4" stroke-linecap="square" stroke-linejoin="miter" stroke="rgb(0%, 0%, 0%)" stroke-opacity="1" stroke-miterlimit="3.25" d="M 164.570312 970.625 L 822.851562 1448.90625 " transform="matrix(0.1, 0, 0, -0.1, 0, 165)"/>
<path fill="none" stroke-width="4" stroke-linecap="square" stroke-linejoin="miter" stroke="rgb(0%, 0%, 0%)" stroke-opacity="1" stroke-miterlimit="3.25" d="M 416.015625 196.796875 L 1229.726562 196.796875 " transform="matrix(0.1, 0, 0, -0.1, 0, 165)"/>
<path fill="none" stroke-width="4" stroke-linecap="square" stroke-linejoin="miter" stroke="rgb(0%, 0%, 0%)" stroke-opacity="1" stroke-miterlimit="3.25" d="M 1229.726562 196.796875 L 1481.132812 970.625 " transform="matrix(0.1, 0, 0, -0.1, 0, 165)"/>
<path fill="none" stroke-width="4" stroke-linecap="square" stroke-linejoin="miter" stroke="rgb(0%, 0%, 0%)" stroke-opacity="1" stroke-miterlimit="3.25" d="M 1481.132812 970.625 L 822.851562 1448.90625 " transform="matrix(0.1, 0, 0, -0.1, 0, 165)"/>
<path fill="none" stroke-width="40" stroke-linecap="round" stroke-linejoin="miter" stroke="rgb(100%, 0%, 0%)" stroke-opacity="1" stroke-miterlimit="3.25" d="M 493.710938 863.671875 L 493.710938 863.671875 " transform="matrix(0.1, 0, 0, -0.1, 0, 165)"/>
<path fill="none" stroke-width="40" stroke-linecap="round" stroke-linejoin="miter" stroke="rgb(100%, 0%, 0%)" stroke-opacity="1" stroke-miterlimit="3.25" d="M 619.414062 476.757812 L 619.414062 476.757812 " transform="matrix(0.1, 0, 0, -0.1, 0, 165)"/>
<path fill="none" stroke-width="40" stroke-linecap="round" stroke-linejoin="miter" stroke="rgb(100%, 0%, 0%)" stroke-opacity="1" stroke-miterlimit="3.25" d="M 1026.289062 476.757812 L 1026.289062 476.757812 " transform="matrix(0.1, 0, 0, -0.1, 0, 165)"/>
<path fill="none" stroke-width="40" stroke-linecap="round" stroke-linejoin="miter" stroke="rgb(100%, 0%, 0%)" stroke-opacity="1" stroke-miterlimit="3.25" d="M 1152.03125 863.671875 L 1152.03125 863.671875 " transform="matrix(0.1, 0, 0, -0.1, 0, 165)"/>
<path fill="none" stroke-width="40" stroke-linecap="round" stroke-linejoin="miter" stroke="rgb(100%, 0%, 0%)" stroke-opacity="1" stroke-miterlimit="3.25" d="M 822.851562 1102.8125 L 822.851562 1102.8125 " transform="matrix(0.1, 0, 0, -0.1, 0, 165)"/>
<path fill="none" stroke-width="40" stroke-linecap="round" stroke-linejoin="miter" stroke="rgb(100%, 0%, 0%)" stroke-opacity="1" stroke-miterlimit="3.25" d="M 164.570312 970.625 L 164.570312 970.625 " transform="matrix(0.1, 0, 0, -0.1, 0, 165)"/>
<path fill="none" stroke-width="40" stroke-linecap="round" stroke-linejoin="miter" stroke="rgb(100%, 0%, 0%)" stroke-opacity="1" stroke-miterlimit="3.25" d="M 416.015625 196.796875 L 416.015625 196.796875 " transform="matrix(0.1, 0, 0, -0.1, 0, 165)"/>
<path fill="none" stroke-width="40" stroke-linecap="round" stroke-linejoin="miter" stroke="rgb(100%, 0%, 0%)" stroke-opacity="1" stroke-miterlimit="3.25" d="M 1229.726562 196.796875 L 1229.726562 196.796875 " transform="matrix(0.1, 0, 0, -0.1, 0, 165)"/>
<path fill="none" stroke-width="40" stroke-linecap="round" stroke-linejoin="miter" stroke="rgb(100%, 0%, 0%)" stroke-opacity="1" stroke-miterlimit="3.25" d="M 1481.132812 970.625 L 1481.132812 970.625 " transform="matrix(0.1, 0, 0, -0.1, 0, 165)"/>
<path fill="none" stroke-width="40" stroke-linecap="round" stroke-linejoin="miter" stroke="rgb(100%, 0%, 0%)" stroke-opacity="1" stroke-miterlimit="3.25" d="M 822.851562 1448.90625 L 822.851562 1448.90625 " transform="matrix(0.1, 0, 0, -0.1, 0, 165)"/>
<path fill="none" stroke-width="40" stroke-linecap="round" stroke-linejoin="miter" stroke="rgb(100%, 0%, 0%)" stroke-opacity="1" stroke-miterlimit="3.25" d="M 719.023438 756.757812 L 719.023438 756.757812 " transform="matrix(0.1, 0, 0, -0.1, 0, 165)"/>
<path fill="none" stroke-width="40" stroke-linecap="round" stroke-linejoin="miter" stroke="rgb(100%, 0%, 0%)" stroke-opacity="1" stroke-miterlimit="3.25" d="M 926.679688 756.757812 L 926.679688 756.757812 " transform="matrix(0.1, 0, 0, -0.1, 0, 165)"/>
<path fill="none" stroke-width="4" stroke-linecap="square" stroke-linejoin="miter" stroke="rgb(0%, 0%, 0%)" stroke-opacity="1" stroke-miterlimit="3.25" d="M 2090.039062 705.273438 L 2091.054688 942.929688 " transform="matrix(0.1, 0, 0, -0.1, 0, 165)"/>
<path fill="none" stroke-width="4" stroke-linecap="square" stroke-linejoin="miter" stroke="rgb(0%, 0%, 0%)" stroke-opacity="1" stroke-miterlimit="3.25" d="M 2090.039062 705.273438 L 1718.984375 164.804688 " transform="matrix(0.1, 0, 0, -0.1, 0, 165)"/>
<path fill="none" stroke-width="4" stroke-linecap="square" stroke-linejoin="miter" stroke="rgb(0%, 0%, 0%)" stroke-opacity="1" stroke-miterlimit="3.25" d="M 2090.039062 705.273438 L 2497.03125 1108.789062 " transform="matrix(0.1, 0, 0, -0.1, 0, 165)"/>
<path fill="none" stroke-width="4" stroke-linecap="square" stroke-linejoin="miter" stroke="rgb(0%, 0%, 0%)" stroke-opacity="1" stroke-miterlimit="3.25" d="M 2090.039062 705.273438 L 2664.335938 940.273438 " transform="matrix(0.1, 0, 0, -0.1, 0, 165)"/>
<path fill="none" stroke-width="4" stroke-linecap="square" stroke-linejoin="miter" stroke="rgb(0%, 0%, 0%)" stroke-opacity="1" stroke-miterlimit="3.25" d="M 2259.570312 1109.960938 L 2663.203125 703.046875 " transform="matrix(0.1, 0, 0, -0.1, 0, 165)"/>
<path fill="none" stroke-width="4" stroke-linecap="square" stroke-linejoin="miter" stroke="rgb(0%, 0%, 0%)" stroke-opacity="1" stroke-miterlimit="3.25" d="M 2259.570312 1109.960938 L 1718.984375 1480.898438 " transform="matrix(0.1, 0, 0, -0.1, 0, 165)"/>
<path fill="none" stroke-width="4" stroke-linecap="square" stroke-linejoin="miter" stroke="rgb(0%, 0%, 0%)" stroke-opacity="1" stroke-miterlimit="3.25" d="M 2259.570312 1109.960938 L 2494.6875 535.78125 " transform="matrix(0.1, 0, 0, -0.1, 0, 165)"/>
<path fill="none" stroke-width="4" stroke-linecap="square" stroke-linejoin="miter" stroke="rgb(0%, 0%, 0%)" stroke-opacity="1" stroke-miterlimit="3.25" d="M 2259.570312 1109.960938 L 2497.03125 1108.789062 " transform="matrix(0.1, 0, 0, -0.1, 0, 165)"/>
<path fill="none" stroke-width="4" stroke-linecap="square" stroke-linejoin="miter" stroke="rgb(0%, 0%, 0%)" stroke-opacity="1" stroke-miterlimit="3.25" d="M 2663.203125 703.046875 L 2091.054688 942.929688 " transform="matrix(0.1, 0, 0, -0.1, 0, 165)"/>
<path fill="none" stroke-width="4" stroke-linecap="square" stroke-linejoin="miter" stroke="rgb(0%, 0%, 0%)" stroke-opacity="1" stroke-miterlimit="3.25" d="M 2663.203125 703.046875 L 3035.3125 164.570312 " transform="matrix(0.1, 0, 0, -0.1, 0, 165)"/>
<path fill="none" stroke-width="4" stroke-linecap="square" stroke-linejoin="miter" stroke="rgb(0%, 0%, 0%)" stroke-opacity="1" stroke-miterlimit="3.25" d="M 2663.203125 703.046875 L 2664.335938 940.273438 " transform="matrix(0.1, 0, 0, -0.1, 0, 165)"/>
<path fill="none" stroke-width="4" stroke-linecap="square" stroke-linejoin="miter" stroke="rgb(0%, 0%, 0%)" stroke-opacity="1" stroke-miterlimit="3.25" d="M 2257.070312 536.796875 L 2494.6875 535.78125 " transform="matrix(0.1, 0, 0, -0.1, 0, 165)"/>
<path fill="none" stroke-width="4" stroke-linecap="square" stroke-linejoin="miter" stroke="rgb(0%, 0%, 0%)" stroke-opacity="1" stroke-miterlimit="3.25" d="M 2257.070312 536.796875 L 1718.984375 164.804688 " transform="matrix(0.1, 0, 0, -0.1, 0, 165)"/>
<path fill="none" stroke-width="4" stroke-linecap="square" stroke-linejoin="miter" stroke="rgb(0%, 0%, 0%)" stroke-opacity="1" stroke-miterlimit="3.25" d="M 2257.070312 536.796875 L 2497.03125 1108.789062 " transform="matrix(0.1, 0, 0, -0.1, 0, 165)"/>
<path fill="none" stroke-width="4" stroke-linecap="square" stroke-linejoin="miter" stroke="rgb(0%, 0%, 0%)" stroke-opacity="1" stroke-miterlimit="3.25" d="M 2257.070312 536.796875 L 2664.335938 940.273438 " transform="matrix(0.1, 0, 0, -0.1, 0, 165)"/>
<path fill="none" stroke-width="4" stroke-linecap="square" stroke-linejoin="miter" stroke="rgb(0%, 0%, 0%)" stroke-opacity="1" stroke-miterlimit="3.25" d="M 3035.3125 1481.132812 L 1718.984375 1480.898438 " transform="matrix(0.1, 0, 0, -0.1, 0, 165)"/>
<path fill="none" stroke-width="4" stroke-linecap="square" stroke-linejoin="miter" stroke="rgb(0%, 0%, 0%)" stroke-opacity="1" stroke-miterlimit="3.25" d="M 3035.3125 1481.132812 L 3035.3125 164.570312 " transform="matrix(0.1, 0, 0, -0.1, 0, 165)"/>
<path fill="none" stroke-width="4" stroke-linecap="square" stroke-linejoin="miter" stroke="rgb(0%, 0%, 0%)" stroke-opacity="1" stroke-miterlimit="3.25" d="M 3035.3125 1481.132812 L 2497.03125 1108.789062 " transform="matrix(0.1, 0, 0, -0.1, 0, 165)"/>
<path fill="none" stroke-width="4" stroke-linecap="square" stroke-linejoin="miter" stroke="rgb(0%, 0%, 0%)" stroke-opacity="1" stroke-miterlimit="3.25" d="M 3035.3125 1481.132812 L 2664.335938 940.273438 " transform="matrix(0.1, 0, 0, -0.1, 0, 165)"/>
<path fill="none" stroke-width="4" stroke-linecap="square" stroke-linejoin="miter" stroke="rgb(0%, 0%, 0%)" stroke-opacity="1" stroke-miterlimit="3.25" d="M 1718.984375 1480.898438 L 2091.054688 942.929688 " transform="matrix(0.1, 0, 0, -0.1, 0, 165)"/>
<path fill="none" stroke-width="4" stroke-linecap="square" stroke-linejoin="miter" stroke="rgb(0%, 0%, 0%)" stroke-opacity="1" stroke-miterlimit="3.25" d="M 1718.984375 1480.898438 L 1718.984375 164.804688 " transform="matrix(0.1, 0, 0, -0.1, 0, 165)"/>
<path fill="none" stroke-width="4" stroke-linecap="square" stroke-linejoin="miter" stroke="rgb(0%, 0%, 0%)" stroke-opacity="1" stroke-miterlimit="3.25" d="M 2091.054688 942.929688 L 2494.6875 535.78125 " transform="matrix(0.1, 0, 0, -0.1, 0, 165)"/>
<path fill="none" stroke-width="4" stroke-linecap="square" stroke-linejoin="miter" stroke="rgb(0%, 0%, 0%)" stroke-opacity="1" stroke-miterlimit="3.25" d="M 2494.6875 535.78125 L 3035.3125 164.570312 " transform="matrix(0.1, 0, 0, -0.1, 0, 165)"/>
<path fill="none" stroke-width="4" stroke-linecap="square" stroke-linejoin="miter" stroke="rgb(0%, 0%, 0%)" stroke-opacity="1" stroke-miterlimit="3.25" d="M 3035.3125 164.570312 L 1718.984375 164.804688 " transform="matrix(0.1, 0, 0, -0.1, 0, 165)"/>
<path fill="none" stroke-width="40" stroke-linecap="round" stroke-linejoin="miter" stroke="rgb(100%, 0%, 0%)" stroke-opacity="1" stroke-miterlimit="3.25" d="M 2090.039062 705.273438 L 2090.039062 705.273438 " transform="matrix(0.1, 0, 0, -0.1, 0, 165)"/>
<path fill="none" stroke-width="40" stroke-linecap="round" stroke-linejoin="miter" stroke="rgb(100%, 0%, 0%)" stroke-opacity="1" stroke-miterlimit="3.25" d="M 2259.570312 1109.960938 L 2259.570312 1109.960938 " transform="matrix(0.1, 0, 0, -0.1, 0, 165)"/>
<path fill="none" stroke-width="40" stroke-linecap="round" stroke-linejoin="miter" stroke="rgb(100%, 0%, 0%)" stroke-opacity="1" stroke-miterlimit="3.25" d="M 2663.203125 703.046875 L 2663.203125 703.046875 " transform="matrix(0.1, 0, 0, -0.1, 0, 165)"/>
<path fill="none" stroke-width="40" stroke-linecap="round" stroke-linejoin="miter" stroke="rgb(100%, 0%, 0%)" stroke-opacity="1" stroke-miterlimit="3.25" d="M 2257.070312 536.796875 L 2257.070312 536.796875 " transform="matrix(0.1, 0, 0, -0.1, 0, 165)"/>
<path fill="none" stroke-width="40" stroke-linecap="round" stroke-linejoin="miter" stroke="rgb(100%, 0%, 0%)" stroke-opacity="1" stroke-miterlimit="3.25" d="M 3035.3125 1481.132812 L 3035.3125 1481.132812 " transform="matrix(0.1, 0, 0, -0.1, 0, 165)"/>
<path fill="none" stroke-width="40" stroke-linecap="round" stroke-linejoin="miter" stroke="rgb(100%, 0%, 0%)" stroke-opacity="1" stroke-miterlimit="3.25" d="M 1718.984375 1480.898438 L 1718.984375 1480.898438 " transform="matrix(0.1, 0, 0, -0.1, 0, 165)"/>
<path fill="none" stroke-width="40" stroke-linecap="round" stroke-linejoin="miter" stroke="rgb(100%, 0%, 0%)" stroke-opacity="1" stroke-miterlimit="3.25" d="M 2091.054688 942.929688 L 2091.054688 942.929688 " transform="matrix(0.1, 0, 0, -0.1, 0, 165)"/>
<path fill="none" stroke-width="40" stroke-linecap="round" stroke-linejoin="miter" stroke="rgb(100%, 0%, 0%)" stroke-opacity="1" stroke-miterlimit="3.25" d="M 2494.6875 535.78125 L 2494.6875 535.78125 " transform="matrix(0.1, 0, 0, -0.1, 0, 165)"/>
<path fill="none" stroke-width="40" stroke-linecap="round" stroke-linejoin="miter" stroke="rgb(100%, 0%, 0%)" stroke-opacity="1" stroke-miterlimit="3.25" d="M 3035.3125 164.570312 L 3035.3125 164.570312 " transform="matrix(0.1, 0, 0, -0.1, 0, 165)"/>
<path fill="none" stroke-width="40" stroke-linecap="round" stroke-linejoin="miter" stroke="rgb(100%, 0%, 0%)" stroke-opacity="1" stroke-miterlimit="3.25" d="M 1718.984375 164.804688 L 1718.984375 164.804688 " transform="matrix(0.1, 0, 0, -0.1, 0, 165)"/>
<path fill="none" stroke-width="40" stroke-linecap="round" stroke-linejoin="miter" stroke="rgb(100%, 0%, 0%)" stroke-opacity="1" stroke-miterlimit="3.25" d="M 2497.03125 1108.789062 L 2497.03125 1108.789062 " transform="matrix(0.1, 0, 0, -0.1, 0, 165)"/>
<path fill="none" stroke-width="40" stroke-linecap="round" stroke-linejoin="miter" stroke="rgb(100%, 0%, 0%)" stroke-opacity="1" stroke-miterlimit="3.25" d="M 2664.335938 940.273438 L 2664.335938 940.273438 " transform="matrix(0.1, 0, 0, -0.1, 0, 165)"/>
</svg>
