<?xml version="1.0" encoding="UTF-8"?>
<svg xmlns="http://www.w3.org/2000/svg" xmlns:xlink="http://www.w3.org/1999/xlink" width="306.75" height="110.12" viewBox="0 0 306.75 110.12">
<path fill="none" stroke-width="2.5" stroke-linecap="round" stroke-linejoin="round" stroke="rgb(0%, 0%, 0%)" stroke-opacity="1" stroke-miterlimit="10" d="M 74.515131 550.624137 L 986.550368 550.624137 " transform="matrix(0.0992072, 0, 0, -0.0992072, 1.091937, 109.246977)"/>
<path fill="none" stroke-width="2.5" stroke-linecap="round" stroke-linejoin="round" stroke="rgb(0%, 0%, 0%)" stroke-opacity="1" stroke-miterlimit="10" d="M 671.86809 26.232422 L 671.86809 1075.015851 " transform="matrix(0.0992072, 0, 0, -0.0992072, 1.091937, 109.246977)"/>
<path fill="none" stroke-width="5" stroke-linecap="round" stroke-linejoin="round" stroke="rgb(100%, 0%, 0%)" stroke-opacity="1" stroke-miterlimit="10" d="M 836.336042 961.813706 L 859.527717 941.65388 L 882.168146 918.225957 L 919.101577 868.259515 L 933.985198 840.972876 L 946.388216 811.835628 L 954.971891 784.785237 L 960.326845 760.845444 L 962.177454 749.229919 L 962.964947 742.969348 L 963.555567 737.181273 L 964.028063 731.944444 L 964.34306 727.18011 L 964.500559 724.660132 L 964.618683 721.94328 L 964.697432 719.06893 L 964.776182 716.391453 L 964.815556 714.895216 L 964.815556 707.807777 L 964.776182 705.090926 L 964.736807 703.673438 L 964.697432 702.177201 L 964.579308 699.499724 L 964.42181 696.310377 L 964.224936 693.475401 L 963.870564 688.47482 L 963.358694 683.15924 L 962.177454 673.748697 L 960.720592 664.771275 L 959.106231 656.699469 L 954.775018 639.571492 L 949.931935 624.609122 L 944.261984 610.355495 L 934.182071 589.250678 L 925.04715 571.768329 L 922.015301 565.192761 L 920.715938 561.885289 L 919.770946 558.892815 L 919.101577 556.175964 L 918.865329 554.679727 L 918.786579 553.970983 L 918.70783 553.301614 L 918.629081 552.710994 L 918.629081 552.159748 L 918.589706 551.569129 L 918.550331 550.899759 L 918.589706 550.269765 " transform="matrix(0.0992072, 0, 0, -0.0992072, 1.091937, 109.246977)"/>
<path fill="none" stroke-width="5" stroke-linecap="round" stroke-linejoin="round" stroke="rgb(100%, 0%, 0%)" stroke-opacity="1" stroke-miterlimit="10" d="M 918.589706 550.269765 L 918.589706 549.600396 L 918.629081 548.970401 L 918.668455 548.379781 L 918.747205 547.671037 L 918.825954 546.922919 L 919.022827 545.58418 L 919.337825 544.127318 L 919.731571 542.473582 L 921.779054 536.567383 L 928.039624 523.69187 L 937.962039 504.555785 L 948.041951 481.718483 L 952.806285 468.134225 L 957.49187 451.636243 L 959.342479 443.485688 L 961.074964 434.429517 L 962.374327 426.160838 L 963.437443 417.104667 L 963.909939 412.419082 L 964.264311 407.221627 L 964.42181 404.898522 L 964.539934 402.417919 L 964.658058 400.055439 L 964.697432 397.850458 L 964.776182 395.054857 L 964.815556 393.597995 L 964.815556 386.431807 L 964.736807 383.75433 L 964.697432 381.273726 L 964.579308 378.438751 L 964.42181 375.721899 L 964.146187 370.681943 L 963.673691 365.326989 L 962.610575 355.44395 L 961.074964 344.655293 L 958.791233 332.449149 L 952.373164 307.288741 L 944.222609 283.624571 L 932.528336 257.361673 L 917.054094 229.681287 L 879.648168 180.147966 L 834.36731 137.898956 L 804.088196 116.282268 L 772.745967 98.13055 L 742.781852 84.073797 L 707.69903 71.158908 L 670.804974 61.315244 " transform="matrix(0.0992072, 0, 0, -0.0992072, 1.091937, 109.246977)"/>
<path fill="none" stroke-width="5" stroke-linecap="round" stroke-linejoin="round" stroke="rgb(100%, 0%, 0%)" stroke-opacity="1" stroke-miterlimit="10" d="M 670.804974 61.315244 L 649.936405 57.220279 L 639.738368 55.645293 L 629.973452 54.345929 L 620.99603 53.361562 L 611.073616 52.49532 L 606.703029 52.180323 L 602.017444 51.865325 L 597.646857 51.668452 L 593.591267 51.510953 L 588.433187 51.353455 L 585.716335 51.274705 L 582.841985 51.235331 L 577.998902 51.195956 L 572.683323 51.195956 L 567.918989 51.274705 L 562.800283 51.432204 L 557.9572 51.589703 L 553.547238 51.825951 L 543.861072 52.416571 L 533.190539 53.361562 L 511.455727 56.039039 L 491.256527 59.464635 L 472.35669 63.520225 L 430.028932 75.726369 L 385.259944 93.48434 L 346.594028 113.368543 L 306.077504 139.316444 L 265.836602 171.288667 L 232.053144 204.205883 L 175.078011 277.993995 L 149.602607 323.117354 L 129.875902 368.12259 L 115.07103 412.970327 L 109.204206 436.083252 L 103.967376 461.83428 L 100.581156 484.002213 L 99.084919 496.523355 L 98.021803 507.942006 L 97.23431 518.612539 L 96.879938 524.676236 L 96.64369 530.267438 L 96.446817 535.622391 L 96.328693 540.504849 L 96.249943 546.1748 L 96.249943 557.16033 L 96.368067 563.263402 L 96.564941 569.012103 L 96.761814 574.288307 L 97.116186 580.430754 " transform="matrix(0.0992072, 0, 0, -0.0992072, 1.091937, 109.246977)"/>
<path fill="none" stroke-width="5" stroke-linecap="round" stroke-linejoin="round" stroke="rgb(100%, 0%, 0%)" stroke-opacity="1" stroke-miterlimit="10" d="M 97.116186 580.430754 L 97.509932 587.124446 L 98.533673 599.212467 L 99.911787 611.851732 L 101.683646 625.239116 L 105.778611 649.060785 L 115.7404 690.6798 L 130.70277 735.251915 L 150.547599 779.981528 L 172.321785 818.883692 L 201.734656 861.368949 L 232.604389 897.633011 L 298.753817 956.61625 L 337.104735 982.327903 L 379.944365 1005.28333 L 422.547746 1022.923177 L 445.306299 1030.443737 L 469.56109 1037.05868 L 490.86278 1041.70489 L 502.163308 1043.752372 L 514.290703 1045.642355 L 525.394357 1047.059843 L 535.553019 1048.122959 L 545.672306 1048.949827 L 555.279723 1049.540447 L 560.083432 1049.73732 L 565.241512 1049.894819 L 570.12397 1050.012943 L 574.573306 1050.052317 L 579.495139 1050.052317 L 584.850093 1049.973568 L 587.566944 1049.934193 L 590.441294 1049.855444 L 595.638749 1049.697945 L 601.111827 1049.422323 L 607.0574 1049.067951 L 617.727933 1048.201708 L 628.044094 1047.138593 L 637.494012 1045.917978 L 672.852456 1039.499909 L 690.177307 1035.247445 L 708.762146 1029.734993 L 744.474962 1016.465733 L 775.147822 1001.897109 L 836.336042 961.813706 " transform="matrix(0.0992072, 0, 0, -0.0992072, 1.091937, 109.246977)"/>
<path fill="none" stroke-width="5" stroke-linecap="round" stroke-linejoin="round" stroke="rgb(0%, 0%, 0%)" stroke-opacity="1" stroke-miterlimit="10" d="M 671.86809 756.199234 L 674.899939 756.199234 L 676.593049 756.159859 L 678.168035 756.120484 L 681.003011 756.00236 L 684.03486 755.844862 L 687.381706 755.647989 L 690.925425 755.332991 L 697.30412 754.624247 L 703.840313 753.71863 L 709.943386 752.655514 L 723.685142 749.584291 L 737.466273 745.449952 L 749.790541 740.882491 L 776.289687 727.69198 L 797.630752 713.280855 L 818.617446 694.617266 L 836.021045 674.418066 L 851.534661 650.596397 L 857.873981 638.193379 L 863.819555 624.294125 L 868.072018 612.009231 L 871.851985 598.188725 L 873.308848 591.613157 L 874.647586 584.486344 L 875.592578 578.304522 L 876.380071 571.532081 L 876.734443 567.594615 L 877.010066 563.893397 L 877.206939 560.389052 L 877.285688 558.617193 L 877.364438 556.64846 L 877.403812 554.8766 L 877.443187 553.262239 L 877.443187 547.94666 L 877.403812 546.1748 L 877.364438 544.521065 L 877.325063 543.024827 L 877.167564 539.874855 L 876.970691 536.449259 L 876.380071 529.519319 L 875.592578 523.10125 L 874.726335 517.155676 L 872.048859 503.807667 L 868.229517 489.711539 L 863.701431 476.717901 " transform="matrix(0.0992072, 0, 0, -0.0992072, 1.091937, 109.246977)"/>
<path fill="none" stroke-width="5" stroke-linecap="round" stroke-linejoin="round" stroke="rgb(0%, 0%, 0%)" stroke-opacity="1" stroke-miterlimit="10" d="M 863.701431 476.717901 L 857.834607 462.976145 L 844.604721 439.154476 L 828.697359 417.695286 L 808.85253 397.299213 L 785.857729 379.541241 L 762.114809 365.917609 L 750.026789 360.483906 L 736.875653 355.601448 L 724.315136 351.821481 L 712.660237 349.144004 L 699.981597 346.978398 L 692.933533 346.112155 L 689.665436 345.836533 L 686.239841 345.56091 L 683.286741 345.364037 L 681.751129 345.285288 L 680.058019 345.206538 L 678.522407 345.167164 L 677.10492 345.127789 L 675.766181 345.088414 L 674.309319 345.04904 L 669.544985 345.04904 L 668.127497 345.088414 L 666.473762 345.127789 L 664.662527 345.167164 L 661.394431 345.324662 L 658.165708 345.482161 L 654.740113 345.757784 L 648.558292 346.348403 L 641.234605 347.33277 L 634.580287 348.474635 L 620.247911 351.624608 L 606.939276 355.562074 L 581.975742 365.720736 L 560.24093 378.00563 L 539.884231 393.007375 L 519.76378 412.300958 L 503.423297 432.775781 L 488.854673 456.991197 L 478.105391 481.875981 L 473.971051 494.908994 L 472.041693 502.350804 L 470.466707 509.438243 L 469.206718 516.013811 L 468.143602 523.140624 L 467.356109 529.676818 L 466.804863 535.740515 L 466.60799 539.126736 " transform="matrix(0.0992072, 0, 0, -0.0992072, 1.091937, 109.246977)"/>
<path fill="none" stroke-width="5" stroke-linecap="round" stroke-linejoin="round" stroke="rgb(0%, 0%, 0%)" stroke-opacity="1" stroke-miterlimit="10" d="M 466.60799 539.126736 L 466.450492 542.276709 L 466.371742 544.087943 L 466.332368 545.781054 L 466.332368 546.686671 L 466.292993 547.671037 L 466.292993 553.222864 L 466.332368 554.837225 L 466.371742 556.609085 L 466.411117 558.459694 L 466.489866 560.152804 L 466.726114 564.129645 L 467.001737 567.63399 L 467.277359 570.902086 L 468.143602 578.225773 L 469.127968 584.683217 L 470.387957 591.455659 L 473.104809 603.110558 L 476.884776 615.789198 L 486.767816 640.083363 L 500.785195 664.653151 L 517.322552 686.230464 L 537.639876 706.350915 L 559.020316 722.455151 L 580.637004 734.858168 L 593.630642 740.764367 L 606.269907 745.449952 L 617.964181 749.033046 L 630.603447 752.02552 L 640.722734 753.836754 L 646.510809 754.663622 L 651.983887 755.254242 L 656.984469 755.687363 L 661.551929 755.962986 L 664.071907 756.08111 L 665.410646 756.120484 L 666.867508 756.159859 L 668.206247 756.159859 L 669.426861 756.199234 L 671.86809 756.199234 " transform="matrix(0.0992072, 0, 0, -0.0992072, 1.091937, 109.246977)"/>
<path fill="none" stroke-width="2.5" stroke-linecap="round" stroke-linejoin="round" stroke="rgb(0%, 0%, 0%)" stroke-opacity="1" stroke-miterlimit="10" d="M 1079.592689 550.624137 L 1987.887333 550.624137 " transform="matrix(0.0992072, 0, 0, -0.0992072, 1.091937, 109.246977)"/>
<path fill="none" stroke-width="2.5" stroke-linecap="round" stroke-linejoin="round" stroke="rgb(0%, 0%, 0%)" stroke-opacity="1" stroke-miterlimit="10" d="M 1677.930014 26.232422 L 1677.930014 1075.015851 " transform="matrix(0.0992072, 0, 0, -0.0992072, 1.091937, 109.246977)"/>
<path fill="none" stroke-width="5" stroke-linecap="round" stroke-linejoin="round" stroke="rgb(100%, 0%, 0%)" stroke-opacity="1" stroke-miterlimit="10" d="M 1870.157101 935.078312 L 1891.576916 911.689764 L 1911.854866 884.914996 L 1929.652212 855.738373 L 1942.645849 828.84548 L 1953.631379 798.881365 L 1958.159465 782.540881 L 1961.466937 767.342262 L 1962.687551 760.609196 L 1963.750667 753.482382 L 1964.498785 747.418685 L 1965.168155 740.921866 L 1965.483152 737.338772 L 1965.7194 734.070675 L 1965.916273 730.763204 L 1966.034397 727.731355 L 1966.113146 725.880746 L 1966.152521 724.22701 L 1966.191896 722.376401 L 1966.23127 720.407668 L 1966.270645 718.714558 L 1966.270645 716.863949 L 1966.23127 713.556478 L 1966.191896 710.445879 L 1966.073772 707.610904 L 1965.955648 704.421557 L 1965.798149 701.350333 L 1965.404403 696.034754 L 1964.853157 690.364803 L 1963.120672 677.804287 L 1961.033815 666.661258 L 1955.403239 645.517066 L 1951.938269 635.673401 L 1947.72518 625.43599 L 1931.148449 596.023119 L 1921.029161 583.108231 L 1911.776116 573.461439 L 1895.278134 560.585926 L 1887.245704 556.018465 L 1880.945758 553.262239 L 1878.228907 552.317247 L 1875.708928 551.569129 L 1873.858319 551.136007 L 1872.283333 550.860385 L 1871.259592 550.702886 L 1870.787096 550.663511 L 1870.629597 550.663511 L 1870.472099 550.624137 L 1870.3146 550.624137 " transform="matrix(0.0992072, 0, 0, -0.0992072, 1.091937, 109.246977)"/>
<path fill="none" stroke-width="5" stroke-linecap="round" stroke-linejoin="round" stroke="rgb(100%, 0%, 0%)" stroke-opacity="1" stroke-miterlimit="10" d="M 1870.3146 550.624137 L 1870.157101 550.624137 L 1870.353975 550.624137 L 1870.590223 550.584762 L 1870.983969 550.584762 L 1871.41709 550.506013 L 1872.755829 550.309139 L 1874.409565 549.994142 L 1878.268281 548.891652 L 1883.701984 546.844169 L 1890.198803 543.694197 L 1898.388732 538.614866 L 1907.956774 531.21243 L 1917.209819 522.353131 L 1935.125289 499.279581 L 1943.905839 483.844714 L 1952.095768 465.141751 L 1958.19884 446.360038 L 1960.955066 435.059511 L 1963.002548 424.310229 L 1964.498785 413.83657 L 1965.168155 407.812247 L 1965.640651 402.142296 L 1965.955648 397.062965 L 1966.073772 394.188615 L 1966.152521 391.471763 L 1966.23127 388.558038 L 1966.270645 385.919936 L 1966.270645 382.848713 L 1966.23127 379.895613 L 1966.152521 376.981889 L 1966.073772 373.792541 L 1965.916273 370.800067 L 1965.758775 368.004466 L 1965.286279 361.507647 L 1964.616909 354.617082 L 1962.7663 341.347822 L 1959.9707 326.582324 L 1952.843886 299.807556 L 1943.551467 274.568399 L 1929.179716 244.643658 L 1912.130488 216.766399 L 1871.102093 167.114954 L 1845.075443 143.293285 L 1814.166336 120.180359 " transform="matrix(0.0992072, 0, 0, -0.0992072, 1.091937, 109.246977)"/>
<path fill="none" stroke-width="5" stroke-linecap="round" stroke-linejoin="round" stroke="rgb(100%, 0%, 0%)" stroke-opacity="1" stroke-miterlimit="10" d="M 1814.166336 120.180359 L 1782.312236 100.926151 L 1750.891258 85.688158 L 1715.217816 72.18265 L 1696.042357 66.433949 L 1674.622542 61.157745 L 1654.462717 57.259654 L 1644.500928 55.684667 L 1635.405382 54.464053 L 1626.546083 53.479686 L 1616.899292 52.574069 L 1611.544338 52.180323 L 1606.622506 51.9047 L 1602.01567 51.668452 L 1596.936339 51.471579 L 1591.423887 51.31408 L 1586.187057 51.195956 L 1581.068352 51.195956 L 1576.304018 51.235331 L 1571.185312 51.31408 L 1565.515361 51.471579 L 1562.680386 51.589703 L 1559.609162 51.747201 L 1554.017961 52.062199 L 1543.741174 52.810317 L 1532.913143 53.873433 L 1513.540811 56.432786 L 1490.703508 60.52775 L 1469.480567 65.410208 L 1421.876603 80.333204 L 1376.477621 99.981159 L 1335.212978 123.094084 L 1263.82672 177.549238 L 1230.35826 211.45082 L 1198.346662 251.022353 L 1151.215194 330.00792 L 1132.748479 373.753166 L 1124.282927 398.598577 L 1117.471111 422.617119 L 1112.194907 445.178799 L 1107.588072 470.024209 L 1105.97371 481.009739 L 1104.477473 492.782762 L 1103.453732 502.902049 L 1102.548115 514.005703 L 1102.114994 520.423773 L 1101.760622 527.274964 L 1101.603123 531.094306 L 1101.484999 534.519901 L 1101.366875 538.06362 L 1101.288126 541.292342 " transform="matrix(0.0992072, 0, 0, -0.0992072, 1.091937, 109.246977)"/>
<path fill="none" stroke-width="5" stroke-linecap="round" stroke-linejoin="round" stroke="rgb(100%, 0%, 0%)" stroke-opacity="1" stroke-miterlimit="10" d="M 1101.288126 541.292342 L 1101.248751 547.474164 L 1101.248751 554.167856 L 1101.288126 560.074055 L 1101.445625 566.334626 L 1101.721247 573.028318 L 1102.075619 580.233881 L 1102.981236 593.188144 L 1104.516848 608.583635 L 1106.328082 622.640389 L 1110.423047 647.3283 L 1116.289871 674.024319 L 1130.582873 721.588908 L 1150.388326 769.468494 L 1172.398761 810.811886 L 1202.55975 855.935246 L 1234.256351 894.089291 L 1303.831374 956.773749 L 1344.26915 983.706016 L 1389.156261 1007.330812 L 1430.224031 1023.946918 L 1453.218832 1031.388729 L 1475.189892 1037.255553 L 1495.625341 1041.70489 L 1517.950772 1045.484857 L 1527.755063 1046.784221 L 1538.189347 1047.926086 L 1547.08802 1048.713579 L 1556.852936 1049.343573 L 1562.247264 1049.619196 L 1567.247846 1049.816069 L 1572.720924 1049.973568 L 1575.792147 1050.012943 L 1578.587748 1050.052317 L 1584.17895 1050.052317 L 1587.328922 1050.012943 L 1590.242647 1049.973568 L 1595.558226 1049.855444 L 1601.228177 1049.619196 L 1605.953136 1049.382948 L 1611.071842 1049.107326 L 1620.285512 1048.398582 L 1631.113544 1047.296091 L 1640.957209 1046.075477 L 1662.416398 1042.571132 L 1685.33245 1037.609925 L 1725.455228 1025.561279 L 1763.884895 1009.653917 L 1796.250866 992.368441 L 1859.368445 945.433847 L 1870.157101 935.078312 " transform="matrix(0.0992072, 0, 0, -0.0992072, 1.091937, 109.246977)"/>
<path fill="none" stroke-width="5" stroke-linecap="round" stroke-linejoin="round" stroke="rgb(0%, 0%, 0%)" stroke-opacity="1" stroke-miterlimit="10" d="M 1677.930014 742.851224 L 1680.764989 742.851224 L 1682.339976 742.81185 L 1683.796838 742.772475 L 1686.43494 742.654351 L 1689.30929 742.536227 L 1692.459263 742.299979 L 1695.766735 742.024356 L 1701.712308 741.394362 L 1707.81538 740.528119 L 1713.524706 739.543753 L 1726.40022 736.630028 L 1739.275733 732.810686 L 1750.773134 728.518848 L 1775.579169 716.19458 L 1795.502747 702.728446 L 1815.111327 685.285472 L 1831.373062 666.385636 L 1845.902311 644.099578 L 1851.847885 632.484054 L 1857.360337 619.529791 L 1861.376552 607.993016 L 1864.959646 595.117502 L 1866.298385 588.93568 L 1867.518999 582.281363 L 1868.385242 576.493288 L 1869.13336 570.193342 L 1869.487732 566.45275 L 1869.763355 563.027154 L 1869.920853 559.759058 L 1869.999603 558.065947 L 1870.078352 556.254713 L 1870.117727 554.600977 L 1870.117727 553.065366 L 1870.157101 551.41163 L 1870.157101 549.679145 L 1870.117727 548.143533 L 1870.117727 546.489797 L 1870.078352 544.914811 L 1870.038977 543.497323 L 1869.881479 540.583599 L 1869.684605 537.354876 L 1869.13336 530.897432 L 1868.424616 524.912484 L 1867.597748 519.321282 L 1865.117145 506.839515 L 1861.534051 493.688379 L 1857.320962 481.521609 " transform="matrix(0.0992072, 0, 0, -0.0992072, 1.091937, 109.246977)"/>
<path fill="none" stroke-width="5" stroke-linecap="round" stroke-linejoin="round" stroke="rgb(0%, 0%, 0%)" stroke-opacity="1" stroke-miterlimit="10" d="M 1857.320962 481.521609 L 1851.80851 468.646096 L 1839.444867 446.399413 L 1824.561246 426.318337 L 1805.976406 407.261002 L 1784.477842 390.644895 L 1762.309909 377.92688 L 1750.970007 372.808175 L 1738.724488 368.280089 L 1726.951465 364.736369 L 1716.084059 362.216391 L 1704.192912 360.208284 L 1697.617344 359.42079 L 1694.585495 359.105793 L 1691.356773 358.869545 L 1688.600547 358.672672 L 1687.143684 358.633297 L 1685.568698 358.554548 L 1684.15121 358.475799 L 1682.812472 358.436424 L 1681.552483 358.436424 L 1680.213744 358.397049 L 1675.764408 358.397049 L 1674.425669 358.436424 L 1672.850683 358.475799 L 1671.196947 358.515173 L 1668.125724 358.633297 L 1665.13325 358.83017 L 1661.904527 359.066418 L 1656.116453 359.617664 L 1649.265262 360.562656 L 1643.044066 361.586397 L 1629.656681 364.539496 L 1617.214289 368.240714 L 1593.865116 377.730007 L 1573.547792 389.188033 L 1554.529831 403.205412 L 1535.708744 421.27838 L 1520.392001 440.414465 L 1506.768369 463.054894 L 1496.767206 486.364692 L 1492.869114 498.531462 L 1491.05788 505.461402 L 1489.601018 512.11572 L 1488.459153 518.218792 L 1487.396037 524.951859 L 1486.687293 531.054931 L 1486.175422 536.685507 L 1485.978549 539.874855 " transform="matrix(0.0992072, 0, 0, -0.0992072, 1.091937, 109.246977)"/>
<path fill="none" stroke-width="5" stroke-linecap="round" stroke-linejoin="round" stroke="rgb(0%, 0%, 0%)" stroke-opacity="1" stroke-miterlimit="10" d="M 1485.978549 539.874855 L 1485.860425 542.827954 L 1485.781676 544.521065 L 1485.742301 546.096051 L 1485.702926 546.922919 L 1485.702926 549.600396 L 1485.663552 550.427263 L 1485.702926 551.372255 L 1485.702926 553.065366 L 1485.742301 554.561603 L 1485.781676 556.175964 L 1485.82105 557.947823 L 1485.8998 559.562184 L 1486.096673 563.224028 L 1486.332921 566.531499 L 1486.608544 569.563348 L 1487.435411 576.414539 L 1488.341029 582.438862 L 1489.522268 588.817556 L 1492.042247 599.724337 L 1495.585966 611.536735 L 1504.839011 634.255913 L 1517.950772 657.250715 L 1533.425014 677.41054 L 1552.403599 696.231627 L 1572.405926 711.312122 L 1592.605127 722.888272 L 1604.771897 728.400724 L 1616.584294 732.810686 L 1627.53045 736.118157 L 1639.342848 738.953133 L 1648.792766 740.646243 L 1654.226469 741.394362 L 1659.3058 741.945607 L 1663.991384 742.339354 L 1668.283222 742.614976 L 1670.645702 742.7331 L 1671.905691 742.772475 L 1674.504418 742.851224 L 1677.930014 742.851224 " transform="matrix(0.0992072, 0, 0, -0.0992072, 1.091937, 109.246977)"/>
<path fill="none" stroke-width="2.5" stroke-linecap="round" stroke-linejoin="round" stroke="rgb(0%, 0%, 0%)" stroke-opacity="1" stroke-miterlimit="10" d="M 2081.795896 550.624137 L 2992.138023 550.624137 " transform="matrix(0.0992072, 0, 0, -0.0992072, 1.091937, 109.246977)"/>
<path fill="none" stroke-width="2.5" stroke-linecap="round" stroke-linejoin="round" stroke="rgb(0%, 0%, 0%)" stroke-opacity="1" stroke-miterlimit="10" d="M 2679.463852 26.232422 L 2679.463852 1075.015851 " transform="matrix(0.0992072, 0, 0, -0.0992072, 1.091937, 109.246977)"/>
<path fill="none" stroke-width="5" stroke-linecap="round" stroke-linejoin="round" stroke="rgb(100%, 0%, 0%)" stroke-opacity="1" stroke-miterlimit="10" d="M 2895.473234 910.626648 L 2915.278687 884.481874 L 2933.391031 854.793381 L 2948.392776 823.17553 L 2958.787686 793.60516 L 2963.197648 776.752806 L 2966.386995 760.963568 L 2968.473852 746.985563 L 2969.30072 739.189381 L 2969.851965 732.023193 L 2970.088213 728.36135 L 2970.206337 726.392617 L 2970.285087 724.463258 L 2970.403211 720.801415 L 2970.442585 717.454569 L 2970.48196 715.564585 L 2970.48196 713.517103 L 2970.442585 709.934009 L 2970.403211 707.729028 L 2970.324461 705.642171 L 2970.166963 701.783454 L 2969.970089 698.003487 L 2969.694467 694.066021 L 2969.025098 687.057332 L 2968.11948 679.654896 L 2966.859491 671.701215 L 2964.14264 658.39258 L 2960.992667 646.343934 L 2953.590231 625.278491 L 2943.785941 604.882417 L 2931.501047 585.628209 L 2919.885523 571.571456 L 2906.458764 558.814066 L 2892.205137 548.53728 L 2885.905191 544.914811 L 2879.093375 541.646714 L 2873.187176 539.284235 L 2867.084104 537.354876 L 2863.776633 536.528009 L 2860.902283 535.937389 L 2858.067307 535.464893 L 2856.807318 535.307394 L 2855.46858 535.149896 L 2854.28734 535.031772 L 2853.1061 534.953022 L 2851.846111 534.874273 L 2850.704246 534.874273 L 2849.562381 534.834898 L 2848.499265 534.874273 L 2847.554273 534.874273 " transform="matrix(0.0992072, 0, 0, -0.0992072, 1.091937, 109.246977)"/>
<path fill="none" stroke-width="5" stroke-linecap="round" stroke-linejoin="round" stroke="rgb(100%, 0%, 0%)" stroke-opacity="1" stroke-miterlimit="10" d="M 2847.554273 534.874273 L 2846.569907 534.953022 L 2845.428042 535.031772 L 2844.364926 535.110521 L 2842.12057 535.425518 L 2840.112463 535.819265 L 2838.340603 536.213011 L 2834.954382 537.354876 L 2833.221897 538.102995 L 2831.686285 538.851114 L 2829.048183 540.622973 L 2827.866943 541.60734 L 2826.725078 542.749205 L 2825.858836 543.812321 L 2825.110717 544.875436 L 2824.598847 545.899178 L 2824.126351 547.041043 L 2823.929478 547.513539 L 2823.771979 548.064784 L 2823.69323 548.53728 L 2823.575106 549.04915 L 2823.535731 549.561021 L 2823.496356 550.151641 L 2823.456982 550.702886 L 2823.496356 551.175382 L 2823.535731 551.805377 L 2823.575106 552.080999 L 2823.61448 552.435371 L 2823.732604 553.025991 L 2823.890103 553.577236 L 2824.323224 554.797851 L 2824.953219 556.097214 L 2825.740712 557.278454 L 2826.606954 558.34157 L 2828.575687 560.270928 L 2830.938167 561.924664 L 2833.49752 563.302777 L 2836.726242 564.523392 L 2838.537476 565.074637 L 2840.624333 565.547133 L 2842.593066 565.901505 L 2843.774306 566.059003 L 2844.837422 566.177127 L 2846.058036 566.255877 L 2846.688031 566.334626 L 2847.318025 566.334626 L 2848.45989 566.374001 L 2849.719879 566.413375 L 2850.82237 566.374001 L 2852.042984 566.334626 L 2853.381723 566.255877 " transform="matrix(0.0992072, 0, 0, -0.0992072, 1.091937, 109.246977)"/>
<path fill="none" stroke-width="5" stroke-linecap="round" stroke-linejoin="round" stroke="rgb(100%, 0%, 0%)" stroke-opacity="1" stroke-miterlimit="10" d="M 2853.381723 566.255877 L 2854.602337 566.177127 L 2856.886067 565.940879 L 2859.406046 565.586507 L 2862.39852 565.035262 L 2865.784741 564.247769 L 2872.124061 562.357785 L 2878.502756 559.877182 L 2884.605828 557.002832 L 2898.426333 548.616029 L 2911.49872 538.024246 L 2922.956746 526.290597 L 2934.65102 511.170728 L 2945.164054 493.845878 L 2955.086468 472.22919 L 2959.338931 460.338043 L 2963.197648 446.871909 L 2966.150747 433.563274 L 2967.174489 427.617701 L 2968.19823 420.963383 L 2968.946348 414.781562 L 2969.615718 408.00912 L 2969.89134 404.229153 L 2970.127588 400.764183 L 2970.245712 397.377962 L 2970.363836 393.834243 L 2970.442585 390.723645 L 2970.48196 387.416173 L 2970.442585 384.226826 L 2970.403211 381.352476 L 2970.324461 377.92688 L 2970.166963 374.225662 L 2969.970089 370.681943 L 2969.733841 367.413846 L 2969.103847 360.09016 L 2968.316354 353.16022 L 2965.83575 337.252857 L 2962.488904 321.542368 L 2957.842694 304.49314 L 2946.345294 273.111537 L 2929.374816 239.17058 L 2909.018117 207.946475 L 2886.495811 180.26609 L 2857.75231 151.758836 L 2827.1582 127.267798 L 2797.036585 107.698592 L 2761.323769 89.113753 L 2722.736603 73.797011 L 2702.18303 67.418316 L 2679.621351 61.669616 L 2657.965288 57.417152 " transform="matrix(0.0992072, 0, 0, -0.0992072, 1.091937, 109.246977)"/>
<path fill="none" stroke-width="5" stroke-linecap="round" stroke-linejoin="round" stroke="rgb(100%, 0%, 0%)" stroke-opacity="1" stroke-miterlimit="10" d="M 2657.965288 57.417152 L 2637.884212 54.464053 L 2628.079921 53.361562 L 2617.370014 52.416571 L 2612.448182 52.101573 L 2607.211352 51.786576 L 2602.328894 51.550328 L 2597.761434 51.392829 L 2592.288356 51.274705 L 2586.303408 51.195956 L 2580.987829 51.195956 L 2575.317878 51.274705 L 2569.766051 51.432204 L 2564.489846 51.629077 L 2559.764887 51.865325 L 2554.646181 52.180323 L 2542.794409 53.125314 L 2530.233893 54.464053 L 2507.750962 57.771524 L 2486.882393 61.827114 L 2467.431311 66.552073 L 2423.646689 80.530077 L 2377.105842 100.847402 L 2334.699334 124.905319 L 2261.580591 181.801702 L 2227.718384 217.042022 L 2195.470538 258.227916 L 2169.128891 299.965055 L 2148.575318 340.560329 L 2130.777972 385.723063 L 2123.257412 409.662856 L 2116.406222 436.240751 L 2111.878136 458.251186 L 2108.098168 481.915356 L 2106.483807 495.105867 L 2105.302568 507.115138 L 2104.869446 512.942588 L 2104.436325 519.242533 L 2104.121328 525.109357 L 2103.845705 530.700559 L 2103.648832 537.118629 L 2103.530708 542.985453 L 2103.491333 549.324773 L 2103.491333 556.215338 L 2103.609457 562.200287 L 2103.806331 568.618356 L 2104.042579 574.642679 L 2104.318201 580.076382 L 2105.263193 593.503141 L 2106.680681 607.993016 L 2110.303149 634.05904 " transform="matrix(0.0992072, 0, 0, -0.0992072, 1.091937, 109.246977)"/>
<path fill="none" stroke-width="5" stroke-linecap="round" stroke-linejoin="round" stroke="rgb(100%, 0%, 0%)" stroke-opacity="1" stroke-miterlimit="10" d="M 2110.303149 634.05904 L 2115.579354 661.385054 L 2122.745542 689.813558 L 2139.558521 739.386254 L 2159.875846 784.115867 L 2186.217493 829.357351 L 2244.41324 902.476094 L 2281.93729 937.59829 L 2326.155033 970.791128 L 2370.609023 997.054026 L 2413.409278 1016.741355 L 2434.435346 1024.576913 L 2457.312023 1031.861225 L 2477.235601 1037.176804 L 2499.088537 1041.901763 L 2523.422076 1045.917978 L 2536.651962 1047.532339 L 2548.936856 1048.674204 L 2554.882429 1049.107326 L 2560.473631 1049.422323 L 2565.513587 1049.658571 L 2570.907916 1049.855444 L 2576.853489 1049.973568 L 2579.806589 1050.052317 L 2588.823386 1050.052317 L 2594.217714 1049.934193 L 2599.92704 1049.776695 L 2602.80139 1049.697945 L 2605.990737 1049.540447 L 2616.818769 1048.871078 L 2622.882466 1048.398582 L 2629.379285 1047.768587 L 2641.112934 1046.390474 L 2663.713988 1042.80738 L 2684.070687 1038.515542 L 2721.673487 1027.805635 L 2759.236912 1013.040137 L 2794.359108 995.085293 L 2828.890685 972.720486 L 2882.203974 925.667768 L 2895.473234 910.626648 " transform="matrix(0.0992072, 0, 0, -0.0992072, 1.091937, 109.246977)"/>
<path fill="none" stroke-width="5" stroke-linecap="round" stroke-linejoin="round" stroke="rgb(0%, 0%, 0%)" stroke-opacity="1" stroke-miterlimit="10" d="M 2679.463852 730.605705 L 2682.141329 730.605705 L 2683.598191 730.56633 L 2684.976304 730.526956 L 2687.456908 730.448207 L 2690.134385 730.290708 L 2693.048109 730.093835 L 2696.158708 729.857587 L 2701.749909 729.227592 L 2707.498609 728.440099 L 2712.814188 727.495107 L 2724.862834 724.81763 L 2736.91148 721.234536 L 2747.700137 717.178946 L 2770.891811 705.681546 L 2789.5554 693.04228 L 2807.943366 676.701796 L 2823.181359 659.022574 L 2836.765616 638.154005 L 2842.317443 627.286599 L 2847.514899 615.119829 L 2851.255491 604.370547 L 2854.562963 592.243152 L 2855.862326 586.494452 L 2857.004191 580.273255 L 2857.831059 574.839552 L 2858.539803 568.933353 L 2858.8548 565.468383 L 2859.091048 562.239661 L 2859.287922 559.168438 L 2859.327296 557.593451 L 2859.406046 555.900341 L 2859.44542 554.325355 L 2859.44542 552.907867 L 2859.484795 551.372255 L 2859.484795 549.71852 L 2859.44542 548.301032 L 2859.44542 546.726045 L 2859.406046 545.269183 L 2859.327296 543.969819 L 2859.248547 541.213593 L 2859.051674 538.221119 L 2858.500429 532.118047 L 2857.831059 526.526845 L 2857.082941 521.290015 L 2854.720461 509.635116 L 2851.373615 497.271473 L 2847.436149 485.931571 " transform="matrix(0.0992072, 0, 0, -0.0992072, 1.091937, 109.246977)"/>
<path fill="none" stroke-width="5" stroke-linecap="round" stroke-linejoin="round" stroke="rgb(0%, 0%, 0%)" stroke-opacity="1" stroke-miterlimit="10" d="M 2847.436149 485.931571 L 2842.278069 473.882925 L 2830.701919 453.014356 L 2816.763289 434.232643 L 2799.399065 416.395923 L 2779.278614 400.803557 L 2758.488793 388.873036 L 2747.89701 384.148077 L 2736.39961 379.856239 L 2725.374705 376.588142 L 2715.216043 374.225662 L 2704.073014 372.335679 L 2697.891193 371.58756 L 2695.056217 371.311938 L 2692.063743 371.07569 L 2689.465015 370.918191 L 2688.126277 370.839442 L 2686.63004 370.760692 L 2685.291302 370.721318 L 2684.031312 370.681943 L 2682.889447 370.642568 L 2681.629458 370.642568 L 2680.251345 370.603194 L 2678.794483 370.603194 L 2677.455744 370.642568 L 2676.195755 370.642568 L 2674.738893 370.681943 L 2673.163906 370.721318 L 2670.289556 370.839442 L 2667.493955 371.036315 L 2664.462107 371.233188 L 2659.067778 371.784433 L 2652.649709 372.650676 L 2646.822259 373.595668 L 2634.301118 376.391269 L 2622.606844 379.816864 L 2600.753908 388.754912 L 2581.735947 399.464819 L 2563.938601 412.615955 L 2546.298754 429.507684 L 2531.966378 447.423154 L 2519.248363 468.646096 L 2509.837819 490.459657 L 2506.21535 501.838934 L 2504.52224 508.335752 L 2503.144127 514.556949 L 2502.041636 520.305649 L 2501.096645 526.56622 L 2500.387901 532.275545 L 2499.954779 537.591124 L 2499.757906 540.544224 " transform="matrix(0.0992072, 0, 0, -0.0992072, 1.091937, 109.246977)"/>
<path fill="none" stroke-width="5" stroke-linecap="round" stroke-linejoin="round" stroke="rgb(0%, 0%, 0%)" stroke-opacity="1" stroke-miterlimit="10" d="M 2499.757906 540.544224 L 2499.600408 543.339825 L 2499.561033 544.914811 L 2499.521658 546.371674 L 2499.482284 547.159167 L 2499.482284 552.907867 L 2499.521658 554.325355 L 2499.561033 555.821592 L 2499.600408 557.475327 L 2499.679157 558.971565 L 2499.87603 562.436535 L 2500.072903 565.507758 L 2500.348526 568.382108 L 2501.096645 574.800178 L 2501.962887 580.430754 L 2503.065378 586.376328 L 2505.427857 596.574364 L 2508.735329 607.678018 L 2517.397754 628.940334 L 2529.682647 650.438898 L 2544.172522 669.338735 L 2561.930493 686.978582 L 2580.672831 701.074711 L 2599.572668 711.902742 L 2610.951944 717.100197 L 2622.016224 721.234536 L 2632.29301 724.345134 L 2643.357289 726.943862 L 2652.216588 728.558223 L 2657.295919 729.266967 L 2662.020878 729.778837 L 2666.43084 730.133209 L 2670.447055 730.408832 L 2672.652036 730.487581 L 2673.833276 730.526956 L 2676.274505 730.605705 L 2679.463852 730.605705 " transform="matrix(0.0992072, 0, 0, -0.0992072, 1.091937, 109.246977)"/>
</svg>
