<?xml version="1.0" encoding="UTF-8"?>
<svg xmlns="http://www.w3.org/2000/svg" xmlns:xlink="http://www.w3.org/1999/xlink" width="172" height="200" viewBox="0 0 172 200">
<path fill="none" stroke-width="3.43313" stroke-linecap="round" stroke-linejoin="round" stroke="rgb(0%, 0%, 0%)" stroke-opacity="1" stroke-miterlimit="10" d="M 1.71875 1133.203125 L 1718.28125 1133.203125 " transform="matrix(0.1, 0, 0, -0.1, 0, 200)"/>
<path fill="none" stroke-width="3.43313" stroke-linecap="round" stroke-linejoin="round" stroke="rgb(0%, 0%, 0%)" stroke-opacity="1" stroke-miterlimit="10" d="M 994.6875 1.992188 L 994.6875 1998.046875 " transform="matrix(0.1, 0, 0, -0.1, 0, 200)"/>
<path fill="none" stroke-width="6.86627" stroke-linecap="round" stroke-linejoin="round" stroke="rgb(0%, 0%, 0%)" stroke-opacity="1" stroke-miterlimit="10" d="M 994.6875 1133.203125 L 994.765625 1130.390625 L 995.078125 1127.578125 L 995.507812 1124.765625 L 996.171875 1122.03125 L 996.992188 1119.296875 L 998.007812 1116.601562 L 1000.546875 1111.40625 L 1003.75 1106.484375 L 1007.65625 1101.914062 L 1012.1875 1097.773438 L 1017.265625 1094.101562 L 1022.929688 1090.976562 L 1025.9375 1089.609375 L 1029.0625 1088.4375 L 1032.304688 1087.382812 L 1035.625 1086.523438 L 1039.0625 1085.820312 L 1040.820312 1085.546875 L 1042.578125 1085.3125 L 1044.375 1085.117188 L 1046.210938 1084.960938 L 1048.007812 1084.882812 L 1049.882812 1084.84375 L 1051.71875 1084.804688 L 1055.46875 1084.960938 L 1057.382812 1085.117188 L 1059.296875 1085.3125 L 1061.210938 1085.546875 L 1065.078125 1086.171875 L 1068.984375 1086.992188 L 1072.890625 1088.046875 L 1080.742188 1090.78125 L 1088.554688 1094.335938 L 1096.25 1098.75 L 1103.710938 1103.984375 L 1117.8125 1116.992188 L 1124.21875 1124.726562 L 1130.15625 1133.203125 L 1140.195312 1152.34375 L 1144.140625 1162.929688 L 1145.859375 1168.4375 L 1147.34375 1174.101562 L 1148.632812 1179.882812 L 1149.6875 1185.820312 L 1150.546875 1191.875 L 1150.859375 1194.921875 " transform="matrix(0.1, 0, 0, -0.1, 0, 200)"/>
<path fill="none" stroke-width="6.86627" stroke-linecap="round" stroke-linejoin="round" stroke="rgb(0%, 0%, 0%)" stroke-opacity="1" stroke-miterlimit="10" d="M 1150.859375 1194.921875 L 1151.132812 1198.007812 L 1151.367188 1201.09375 L 1151.523438 1204.257812 L 1151.601562 1207.421875 L 1151.640625 1210.625 L 1151.601562 1213.789062 L 1151.484375 1217.03125 L 1151.328125 1220.234375 L 1151.09375 1223.515625 L 1150.46875 1230.078125 L 1149.570312 1236.71875 L 1148.398438 1243.359375 L 1146.953125 1250.039062 L 1143.203125 1263.476562 L 1138.398438 1276.875 L 1125.273438 1303.359375 L 1107.578125 1328.75 L 1085.429688 1352.226562 L 1058.984375 1373.085938 L 1028.59375 1390.625 L 1012.03125 1397.929688 L 994.6875 1404.140625 L 976.601562 1409.21875 L 967.304688 1411.25 L 957.851562 1413.007812 L 948.28125 1414.453125 L 943.398438 1415.039062 L 938.515625 1415.546875 L 933.632812 1415.976562 L 928.671875 1416.289062 L 923.710938 1416.523438 L 918.710938 1416.71875 L 913.710938 1416.796875 L 908.671875 1416.796875 L 903.632812 1416.679688 L 898.515625 1416.484375 L 893.4375 1416.210938 L 888.320312 1415.820312 L 878.046875 1414.804688 L 867.734375 1413.398438 L 857.382812 1411.640625 L 836.640625 1406.953125 L 815.9375 1400.703125 L 795.390625 1392.929688 L 755.234375 1372.695312 L 717.070312 1346.25 L 681.835938 1313.828125 L 650.507812 1275.78125 L 623.945312 1232.539062 L 612.695312 1209.179688 " transform="matrix(0.1, 0, 0, -0.1, 0, 200)"/>
<path fill="none" stroke-width="6.86627" stroke-linecap="round" stroke-linejoin="round" stroke="rgb(0%, 0%, 0%)" stroke-opacity="1" stroke-miterlimit="10" d="M 612.695312 1209.179688 L 602.96875 1184.765625 L 594.804688 1159.414062 L 588.320312 1133.203125 L 585.703125 1119.804688 L 583.554688 1106.25 L 581.835938 1092.539062 L 581.171875 1085.625 L 580.585938 1078.671875 L 580.15625 1071.71875 L 579.804688 1064.726562 L 579.609375 1057.695312 L 579.53125 1050.625 L 579.53125 1043.554688 L 579.6875 1036.445312 L 579.921875 1029.335938 L 580.351562 1022.1875 L 580.859375 1015.039062 L 581.523438 1007.851562 L 583.164062 993.515625 L 585.3125 979.140625 L 587.96875 964.726562 L 594.765625 935.976562 L 603.632812 907.421875 L 627.5 851.445312 L 659.453125 797.96875 L 699.179688 748.125 L 746.367188 703.046875 L 800.3125 663.867188 L 829.609375 646.835938 L 860.3125 631.640625 L 892.304688 618.359375 L 925.429688 607.1875 L 959.648438 598.164062 L 977.070312 594.453125 L 994.6875 591.367188 L 1012.539062 588.828125 L 1021.484375 587.773438 L 1030.507812 586.875 L 1039.53125 586.132812 L 1048.632812 585.546875 L 1057.734375 585.078125 L 1066.914062 584.804688 L 1076.054688 584.648438 L 1085.273438 584.648438 L 1094.492188 584.84375 L 1103.710938 585.15625 L 1122.226562 586.289062 L 1131.484375 587.070312 L 1140.78125 588.007812 L 1159.375 590.390625 " transform="matrix(0.1, 0, 0, -0.1, 0, 200)"/>
<path fill="none" stroke-width="6.86627" stroke-linecap="round" stroke-linejoin="round" stroke="rgb(0%, 0%, 0%)" stroke-opacity="1" stroke-miterlimit="10" d="M 1159.375 590.390625 L 1177.929688 593.398438 L 1215.039062 601.328125 L 1251.835938 611.796875 L 1288.203125 624.84375 L 1358.90625 658.554688 L 1425.742188 702.148438 L 1487.265625 755.234375 L 1542.148438 817.109375 L 1589.140625 886.953125 L 1609.335938 924.570312 L 1627.148438 963.75 L 1642.382812 1004.375 L 1655.039062 1046.289062 L 1664.921875 1089.296875 L 1668.828125 1111.132812 L 1672.03125 1133.203125 L 1673.359375 1144.296875 L 1674.492188 1155.46875 L 1675.429688 1166.640625 L 1676.171875 1177.851562 L 1676.796875 1189.140625 L 1677.1875 1200.429688 L 1677.382812 1211.757812 L 1677.421875 1223.085938 L 1677.226562 1234.453125 L 1676.914062 1245.859375 L 1676.367188 1257.265625 L 1675.625 1268.632812 L 1673.554688 1291.484375 L 1670.742188 1314.375 L 1662.773438 1360 L 1651.757812 1405.351562 L 1637.617188 1450.234375 L 1620.351562 1494.453125 L 1576.835938 1579.882812 L 1521.523438 1660.039062 L 1455.117188 1733.242188 L 1378.515625 1798.007812 L 1292.773438 1852.851562 L 1246.875 1876.132812 L 1199.21875 1896.484375 L 1149.960938 1913.75 L 1099.296875 1927.851562 L 1073.515625 1933.671875 L 1047.460938 1938.632812 L 1021.210938 1942.734375 L 994.6875 1946.015625 L 981.367188 1947.304688 L 968.007812 1948.359375 L 954.609375 1949.257812 " transform="matrix(0.1, 0, 0, -0.1, 0, 200)"/>
<path fill="none" stroke-width="6.86627" stroke-linecap="round" stroke-linejoin="round" stroke="rgb(0%, 0%, 0%)" stroke-opacity="1" stroke-miterlimit="10" d="M 954.609375 1949.257812 L 941.171875 1949.882812 L 927.695312 1950.3125 L 914.179688 1950.507812 L 900.703125 1950.46875 L 887.148438 1950.234375 L 873.59375 1949.765625 L 860 1949.0625 L 846.40625 1948.125 L 832.8125 1946.992188 L 805.664062 1943.984375 L 778.476562 1940.117188 L 724.335938 1929.609375 L 670.703125 1915.390625 L 617.734375 1897.617188 L 565.742188 1876.210938 L 465.546875 1822.8125 L 372.070312 1755.820312 L 287.1875 1676.09375 L 212.617188 1584.765625 L 149.921875 1483.125 L 123.476562 1428.945312 L 100.585938 1372.773438 L 81.289062 1314.882812 L 65.742188 1255.507812 L 59.453125 1225.3125 L 54.101562 1194.84375 L 49.765625 1164.140625 L 47.96875 1148.710938 L 46.445312 1133.203125 L 45.15625 1117.65625 L 44.140625 1102.109375 L 43.359375 1086.445312 L 42.851562 1070.820312 L 42.578125 1055.15625 L 42.578125 1039.414062 L 42.851562 1023.710938 L 43.359375 1007.96875 L 44.140625 992.1875 L 45.195312 976.445312 L 48.046875 944.921875 L 51.992188 913.398438 L 56.953125 881.953125 L 70.039062 819.335938 L 87.34375 757.34375 L 134.375 636.484375 L 197.617188 521.601562 L 276.289062 414.804688 L 369.335938 318.203125 L 475.429688 233.789062 L 592.929688 163.28125 " transform="matrix(0.1, 0, 0, -0.1, 0, 200)"/>
<path fill="none" stroke-width="6.86627" stroke-linecap="round" stroke-linejoin="round" stroke="rgb(0%, 0%, 0%)" stroke-opacity="1" stroke-miterlimit="10" d="M 592.929688 163.28125 L 720.039062 108.242188 L 786.5625 86.914062 L 854.726562 69.960938 L 924.179688 57.460938 L 959.335938 52.890625 L 994.6875 49.492188 " transform="matrix(0.1, 0, 0, -0.1, 0, 200)"/>
<path fill="none" stroke-width="6.86627" stroke-linecap="round" stroke-linejoin="round" stroke="rgb(0%, 0%, 0%)" stroke-opacity="1" stroke-dasharray="85.8283 34.3313" stroke-miterlimit="10" d="M 1080.9375 1133.203125 L 1081.09375 1133.203125 L 1081.367188 1133.242188 L 1081.679688 1133.28125 L 1082.109375 1133.320312 L 1082.578125 1133.4375 L 1083.828125 1133.710938 L 1085.429688 1134.21875 L 1087.304688 1134.921875 L 1091.953125 1137.226562 L 1097.460938 1140.9375 L 1103.554688 1146.289062 L 1109.882812 1153.515625 L 1116.015625 1162.734375 L 1118.90625 1168.125 L 1121.5625 1174.023438 L 1123.984375 1180.390625 L 1126.054688 1187.304688 L 1127.773438 1194.648438 L 1128.476562 1198.515625 L 1129.0625 1202.5 L 1129.53125 1206.601562 L 1129.726562 1208.671875 L 1129.882812 1210.78125 L 1130 1212.890625 L 1130.15625 1217.265625 L 1130.15625 1221.679688 L 1130.078125 1223.945312 L 1130 1226.171875 L 1129.84375 1228.476562 L 1129.492188 1233.125 L 1128.945312 1237.851562 L 1128.242188 1242.65625 L 1127.34375 1247.539062 L 1125.039062 1257.421875 L 1121.953125 1267.5 L 1118.125 1277.695312 L 1108.007812 1298.203125 L 1094.453125 1318.476562 L 1077.382812 1337.851562 L 1056.835938 1355.859375 L 1032.890625 1371.875 L 1019.726562 1378.90625 L 1005.742188 1385.234375 L 991.054688 1390.742188 " transform="matrix(0.1, 0, 0, -0.1, 0, 200)"/>
<path fill="none" stroke-width="6.86627" stroke-linecap="round" stroke-linejoin="round" stroke="rgb(0%, 0%, 0%)" stroke-opacity="1" stroke-dasharray="85.8283 34.3313" stroke-dashoffset="101.0688" stroke-miterlimit="10" d="M 991.054688 1390.742188 L 975.664062 1395.390625 L 959.648438 1399.140625 L 951.445312 1400.664062 L 943.085938 1401.875 L 934.609375 1402.851562 L 930.3125 1403.242188 L 925.976562 1403.554688 L 921.640625 1403.789062 L 917.265625 1403.984375 L 912.851562 1404.101562 L 908.4375 1404.140625 L 904.023438 1404.101562 L 899.570312 1403.984375 L 895.039062 1403.789062 L 890.546875 1403.554688 L 886.015625 1403.203125 L 881.484375 1402.8125 L 872.34375 1401.757812 L 863.164062 1400.390625 L 853.945312 1398.710938 L 835.429688 1394.414062 L 816.875 1388.789062 L 798.359375 1381.796875 L 761.953125 1363.828125 L 726.992188 1340.429688 L 694.257812 1311.71875 L 664.570312 1277.8125 L 638.75 1239.140625 L 627.5 1218.125 L 617.539062 1196.09375 L 608.867188 1173.085938 L 601.640625 1149.257812 L 595.898438 1124.609375 L 593.59375 1112.03125 L 591.71875 1099.296875 L 590.234375 1086.40625 L 589.648438 1079.882812 L 589.140625 1073.359375 L 588.789062 1066.796875 L 588.515625 1060.234375 L 588.359375 1053.59375 L 588.320312 1046.953125 L 588.359375 1040.3125 L 588.515625 1033.632812 L 588.789062 1026.914062 L 589.179688 1020.195312 L 590.3125 1006.71875 L 591.835938 993.203125 L 593.867188 979.609375 L 596.328125 966.054688 " transform="matrix(0.1, 0, 0, -0.1, 0, 200)"/>
<path fill="none" stroke-width="6.86627" stroke-linecap="round" stroke-linejoin="round" stroke="rgb(0%, 0%, 0%)" stroke-opacity="1" stroke-dasharray="85.8283 34.3313" stroke-dashoffset="77.3632" stroke-miterlimit="10" d="M 596.328125 966.054688 L 602.65625 938.90625 L 610.859375 911.835938 L 620.9375 885.078125 L 646.757812 832.773438 L 680 783.007812 L 720.429688 736.953125 L 767.617188 695.585938 L 821.015625 659.921875 L 849.84375 644.53125 L 879.960938 630.898438 L 911.25 619.101562 L 943.59375 609.296875 L 976.875 601.5625 L 993.828125 598.476562 L 1010.9375 595.9375 L 1028.242188 593.945312 L 1036.953125 593.164062 L 1045.664062 592.5 L 1054.453125 591.992188 L 1063.242188 591.640625 L 1072.070312 591.40625 L 1080.9375 591.367188 L 1089.804688 591.40625 L 1098.710938 591.640625 L 1107.617188 591.992188 L 1116.5625 592.539062 L 1134.453125 593.984375 L 1152.382812 596.054688 L 1170.351562 598.710938 L 1188.28125 601.992188 L 1224.0625 610.3125 L 1259.609375 621.09375 L 1294.6875 634.335938 L 1362.890625 667.96875 L 1427.34375 711.054688 L 1486.71875 763.164062 L 1539.765625 823.671875 L 1585.273438 891.796875 L 1604.882812 928.4375 L 1622.1875 966.640625 L 1637.070312 1006.210938 L 1649.453125 1047.03125 L 1659.21875 1088.945312 L 1663.085938 1110.234375 L 1666.289062 1131.796875 L 1668.789062 1153.476562 L 1669.765625 1164.375 L 1670.585938 1175.3125 L 1671.210938 1186.328125 L 1671.640625 1197.34375 " transform="matrix(0.1, 0, 0, -0.1, 0, 200)"/>
<path fill="none" stroke-width="6.86627" stroke-linecap="round" stroke-linejoin="round" stroke="rgb(0%, 0%, 0%)" stroke-opacity="1" stroke-dasharray="85.8283 34.3313" stroke-dashoffset="113.3984" stroke-miterlimit="10" d="M 1671.640625 1197.34375 L 1671.914062 1208.398438 L 1672.03125 1219.453125 L 1671.914062 1230.546875 L 1671.640625 1241.640625 L 1671.210938 1252.773438 L 1670.546875 1263.90625 L 1668.710938 1286.25 L 1666.132812 1308.59375 L 1662.851562 1330.9375 L 1658.789062 1353.242188 L 1648.4375 1397.65625 L 1635.078125 1441.640625 L 1618.75 1485.039062 L 1577.265625 1569.140625 L 1524.335938 1648.320312 L 1460.546875 1721.015625 L 1386.71875 1785.742188 L 1303.828125 1841.132812 L 1213.085938 1885.859375 L 1165.234375 1903.867188 L 1115.9375 1918.828125 L 1065.351562 1930.585938 L 1039.726562 1935.234375 L 1013.789062 1939.101562 L 987.695312 1942.109375 L 974.609375 1943.28125 L 961.445312 1944.257812 L 948.242188 1945.039062 L 935 1945.546875 L 921.757812 1945.898438 L 908.4375 1946.015625 L 895.15625 1945.898438 L 881.796875 1945.546875 L 868.476562 1945 L 855.117188 1944.257812 L 828.398438 1942.03125 L 801.640625 1938.984375 L 774.921875 1935.039062 L 748.242188 1930.15625 L 695.195312 1917.773438 L 642.695312 1901.875 L 591.015625 1882.382812 L 491.054688 1833.085938 L 397.148438 1770.3125 L 311.09375 1694.84375 L 234.6875 1607.695312 L 169.492188 1510.078125 L 116.914062 1403.4375 L 95.78125 1347.265625 L 78.242188 1289.492188 " transform="matrix(0.1, 0, 0, -0.1, 0, 200)"/>
<path fill="none" stroke-width="6.86627" stroke-linecap="round" stroke-linejoin="round" stroke="rgb(0%, 0%, 0%)" stroke-opacity="1" stroke-dasharray="85.8283 34.3313" stroke-dashoffset="39.4364" stroke-miterlimit="10" d="M 78.242188 1289.492188 L 64.453125 1230.3125 L 58.984375 1200.273438 L 54.492188 1170 L 50.976562 1139.492188 L 49.609375 1124.179688 L 48.476562 1108.789062 L 47.578125 1093.398438 L 46.953125 1077.96875 L 46.5625 1062.460938 L 46.445312 1046.953125 L 46.5625 1031.445312 L 46.953125 1015.898438 L 47.617188 1000.351562 L 48.476562 984.765625 L 51.054688 953.632812 L 54.609375 922.460938 L 59.257812 891.367188 L 64.882812 860.3125 L 79.257812 798.632812 L 97.773438 737.695312 L 120.351562 677.695312 L 177.5 561.835938 L 250.117188 453.164062 L 337.265625 353.828125 L 437.773438 265.742188 L 550.117188 190.664062 L 610.195312 158.554688 L 672.617188 130.273438 L 737.070312 106.015625 L 803.359375 85.898438 L 871.171875 70.117188 L 905.546875 63.867188 L 940.234375 58.710938 L 975.117188 54.6875 L 992.65625 53.125 L 1010.234375 51.796875 L 1027.851562 50.78125 L 1045.546875 50.078125 L 1063.203125 49.648438 L 1080.9375 49.492188 " transform="matrix(0.1, 0, 0, -0.1, 0, 200)"/>
</svg>
