<?xml version="1.0" encoding="UTF-8"?>
<svg xmlns="http://www.w3.org/2000/svg" xmlns:xlink="http://www.w3.org/1999/xlink" width="336" height="159.94" viewBox="0 0 336 159.94">
<path fill-rule="nonzero" fill="rgb(100%, 100%, 0%)" fill-opacity="1" d="M 17.925781 50.652344 L 150.582031 50.652344 L 150.070312 49.519531 L 144.613281 39.765625 L 138.945312 32.335938 L 133.617188 26.832031 L 128.078125 22.179688 L 122.332031 18.234375 L 116.921875 15.210938 L 111.304688 12.667969 L 106.027344 10.78125 L 100.539062 9.285156 L 97.96875 8.742188 L 95.179688 8.261719 L 92.589844 7.917969 L 91.207031 7.769531 L 89.742188 7.644531 L 88.21875 7.542969 L 87.550781 7.507812 L 86.828125 7.480469 L 86.164062 7.460938 L 85.535156 7.445312 L 85.363281 7.445312 L 85.175781 7.441406 L 84.839844 7.4375 L 84.644531 7.4375 L 84.546875 7.433594 L 83.941406 7.433594 L 83.777344 7.4375 L 83.46875 7.4375 L 83.308594 7.441406 L 83.128906 7.445312 L 82.765625 7.449219 L 82.128906 7.464844 L 81.53125 7.484375 L 80.871094 7.515625 L 80.15625 7.550781 L 78.710938 7.644531 L 76.160156 7.886719 L 73.441406 8.246094 L 70.511719 8.75 L 67.75 9.339844 L 62.398438 10.808594 L 56.835938 12.820312 L 51.0625 15.476562 L 45.632812 18.578125 L 39.988281 22.511719 L 34.691406 27.023438 L 29.175781 32.785156 L 23.308594 40.660156 L 17.925781 50.652344 "/>
<path fill="none" stroke-width="5" stroke-linecap="round" stroke-linejoin="round" stroke="rgb(0%, 0%, 0%)" stroke-opacity="1" stroke-miterlimit="10" d="M 1567.575028 799.686045 C 1567.575028 1200.26595 1242.804802 1525.036176 842.224897 1525.036176 C 441.644992 1525.036176 116.874766 1200.26595 116.874766 799.686045 C 116.874766 399.10614 441.644992 74.335913 842.224897 74.335913 C 1242.804802 74.335913 1567.575028 399.10614 1567.575028 799.686045 C 1567.575028 823.874803 1566.363636 848.024484 1563.940853 872.096011 " transform="matrix(0.0999625, 0, 0, -0.0999625, 0.063, 159.880022)"/>
<path fill="none" stroke-width="60.9286" stroke-linecap="round" stroke-linejoin="round" stroke="rgb(0%, 0%, 0%)" stroke-opacity="1" stroke-miterlimit="10" d="M 842.224897 799.686045 L 842.224897 799.686045 " transform="matrix(0.0999625, 0, 0, -0.0999625, 0.063, 159.880022)"/>
<path fill="none" stroke-width="5" stroke-linecap="round" stroke-linejoin="round" stroke="rgb(0%, 0%, 0%)" stroke-opacity="1" stroke-miterlimit="10" d="M 178.694823 1092.686545 L 842.224897 799.686045 L 1505.754971 1092.686545 " transform="matrix(0.0999625, 0, 0, -0.0999625, 0.063, 159.880022)"/>
<path fill="none" stroke-width="5" stroke-linecap="round" stroke-linejoin="round" stroke="rgb(0%, 0%, 0%)" stroke-opacity="1" stroke-dasharray="60.9286" stroke-miterlimit="10" d="M 178.694823 1092.686545 L 1505.754971 1092.686545 " transform="matrix(0.0999625, 0, 0, -0.0999625, 0.063, 159.880022)"/>
<path fill-rule="nonzero" fill="rgb(100%, 100%, 0%)" fill-opacity="1" d="M 251.746094 79.941406 L 324.253906 79.941406 C 324.253906 39.898438 291.789062 7.433594 251.746094 7.433594 "/>
<path fill="none" stroke-width="5" stroke-linecap="round" stroke-linejoin="round" stroke="rgb(0%, 0%, 0%)" stroke-opacity="1" stroke-miterlimit="10" d="M 3243.125234 799.686045 C 3243.125234 1200.26595 2918.355008 1525.036176 2517.775103 1525.036176 C 2117.195198 1525.036176 1792.424972 1200.26595 1792.424972 799.686045 C 1792.424972 399.10614 2117.195198 74.335913 2517.775103 74.335913 C 2918.355008 74.335913 3243.125234 399.10614 3243.125234 799.686045 C 3243.125234 823.874803 3241.913843 848.024484 3239.491059 872.096011 " transform="matrix(0.0999625, 0, 0, -0.0999625, 0.063, 159.880022)"/>
<path fill="none" stroke-width="5" stroke-linecap="round" stroke-linejoin="round" stroke="rgb(0%, 0%, 0%)" stroke-opacity="1" stroke-dasharray="60.9285" stroke-miterlimit="10" d="M 3243.125234 799.686045 L 2517.775103 799.686045 L 2517.775103 1525.036176 " transform="matrix(0.0999625, 0, 0, -0.0999625, 0.063, 159.880022)"/>
</svg>
