<?xml version="1.0" encoding="UTF-8"?>
<svg xmlns="http://www.w3.org/2000/svg" xmlns:xlink="http://www.w3.org/1999/xlink" width="230.38" height="145.5" viewBox="0 0 230.38 145.5">
<path fill="none" stroke-width="5" stroke-linecap="round" stroke-linejoin="round" stroke="rgb(0%, 0%, 0%)" stroke-opacity="1" stroke-miterlimit="10" d="M 1440.562328 727.508591 C 1440.562328 1110.147122 1130.359364 1420.350086 747.720833 1420.350086 C 365.043106 1420.350086 54.840142 1110.147122 54.840142 727.508591 C 54.840142 344.87006 365.043106 34.667096 747.720833 34.667096 C 1130.359364 34.667096 1440.562328 344.87006 1440.562328 727.508591 C 1440.562328 750.595468 1439.386426 773.682345 1437.073819 796.690829 " transform="matrix(0.0996575, 0, 0, -0.0996575, 0.0855479, 145.001712)"/>
<path fill="none" stroke-width="5" stroke-linecap="round" stroke-linejoin="round" stroke="rgb(0%, 0%, 0%)" stroke-opacity="1" stroke-miterlimit="10" d="M 2248.877405 1073.929338 C 2248.877405 1201.475515 2145.476418 1304.876503 2017.969437 1304.876503 C 1890.384064 1304.876503 1786.983076 1201.475515 1786.983076 1073.929338 C 1786.983076 946.383162 1890.384064 842.982174 2017.969437 842.982174 C 2145.476418 842.982174 2248.877405 946.383162 2248.877405 1073.929338 C 2248.877405 1081.651095 2248.524635 1089.333655 2247.7407 1097.016216 " transform="matrix(0.0996575, 0, 0, -0.0996575, 0.0855479, 145.001712)"/>
<path fill="none" stroke-width="5" stroke-linecap="round" stroke-linejoin="round" stroke="rgb(100%, 0%, 0%)" stroke-opacity="1" stroke-miterlimit="10" d="M 1152.936684 165.505799 L 2153.002191 886.60814 " transform="matrix(0.0996575, 0, 0, -0.0996575, 0.0855479, 145.001712)"/>
<path fill="none" stroke-width="5" stroke-linecap="round" stroke-linejoin="round" stroke="rgb(100%, 0%, 0%)" stroke-opacity="1" stroke-miterlimit="10" d="M 1346.607753 379.128007 L 1818.301267 1190.069265 " transform="matrix(0.0996575, 0, 0, -0.0996575, 0.0855479, 145.001712)"/>
<path fill="none" stroke-width="5" stroke-linecap="round" stroke-linejoin="round" stroke="rgb(100%, 0%, 0%)" stroke-opacity="1" stroke-miterlimit="10" d="M 1086.811791 1331.68707 L 1904.886856 872.536512 " transform="matrix(0.0996575, 0, 0, -0.0996575, 0.0855479, 145.001712)"/>
<path fill="none" stroke-width="5" stroke-linecap="round" stroke-linejoin="round" stroke="rgb(100%, 0%, 0%)" stroke-opacity="1" stroke-miterlimit="10" d="M 811.493922 1417.410331 L 2039.214068 1303.896585 " transform="matrix(0.0996575, 0, 0, -0.0996575, 0.0855479, 145.001712)"/>
<path fill="none" stroke-width="46.0749" stroke-linecap="round" stroke-linejoin="round" stroke="rgb(100%, 0%, 0%)" stroke-opacity="1" stroke-miterlimit="10" d="M 1152.936684 165.505799 L 1152.936684 165.505799 " transform="matrix(0.0996575, 0, 0, -0.0996575, 0.0855479, 145.001712)"/>
<path fill="none" stroke-width="46.0749" stroke-linecap="round" stroke-linejoin="round" stroke="rgb(100%, 0%, 0%)" stroke-opacity="1" stroke-miterlimit="10" d="M 2153.002191 886.60814 L 2153.002191 886.60814 " transform="matrix(0.0996575, 0, 0, -0.0996575, 0.0855479, 145.001712)"/>
<path fill="none" stroke-width="46.0749" stroke-linecap="round" stroke-linejoin="round" stroke="rgb(100%, 0%, 0%)" stroke-opacity="1" stroke-miterlimit="10" d="M 1346.607753 379.128007 L 1346.607753 379.128007 " transform="matrix(0.0996575, 0, 0, -0.0996575, 0.0855479, 145.001712)"/>
<path fill="none" stroke-width="46.0749" stroke-linecap="round" stroke-linejoin="round" stroke="rgb(100%, 0%, 0%)" stroke-opacity="1" stroke-miterlimit="10" d="M 1818.301267 1190.069265 L 1818.301267 1190.069265 " transform="matrix(0.0996575, 0, 0, -0.0996575, 0.0855479, 145.001712)"/>
<path fill="none" stroke-width="46.0749" stroke-linecap="round" stroke-linejoin="round" stroke="rgb(100%, 0%, 0%)" stroke-opacity="1" stroke-miterlimit="10" d="M 1086.811791 1331.68707 L 1086.811791 1331.68707 " transform="matrix(0.0996575, 0, 0, -0.0996575, 0.0855479, 145.001712)"/>
<path fill="none" stroke-width="46.0749" stroke-linecap="round" stroke-linejoin="round" stroke="rgb(100%, 0%, 0%)" stroke-opacity="1" stroke-miterlimit="10" d="M 1904.886856 872.536512 L 1904.886856 872.536512 " transform="matrix(0.0996575, 0, 0, -0.0996575, 0.0855479, 145.001712)"/>
<path fill="none" stroke-width="46.0749" stroke-linecap="round" stroke-linejoin="round" stroke="rgb(100%, 0%, 0%)" stroke-opacity="1" stroke-miterlimit="10" d="M 811.493922 1417.410331 L 811.493922 1417.410331 " transform="matrix(0.0996575, 0, 0, -0.0996575, 0.0855479, 145.001712)"/>
<path fill="none" stroke-width="46.0749" stroke-linecap="round" stroke-linejoin="round" stroke="rgb(100%, 0%, 0%)" stroke-opacity="1" stroke-miterlimit="10" d="M 2039.214068 1303.896585 L 2039.214068 1303.896585 " transform="matrix(0.0996575, 0, 0, -0.0996575, 0.0855479, 145.001712)"/>
</svg>
