<?xml version="1.0" encoding="UTF-8"?>
<svg xmlns="http://www.w3.org/2000/svg" xmlns:xlink="http://www.w3.org/1999/xlink" width="365.73" height="199.94" viewBox="0 0 365.73 199.94">
<defs>
<clipPath id="clip-0">
<path clip-rule="nonzero" d="M 0 99 L 104.921875 99 L 104.921875 101 L 0 101 Z M 0 99 "/>
</clipPath>
<clipPath id="clip-1">
<path clip-rule="nonzero" d="M 2 0.0820312 L 3 0.0820312 L 3 199.835938 L 2 199.835938 Z M 2 0.0820312 "/>
</clipPath>
<clipPath id="clip-2">
<path clip-rule="nonzero" d="M 54 0.0820312 L 73 0.0820312 L 73 92 L 54 92 Z M 54 0.0820312 "/>
</clipPath>
<clipPath id="clip-3">
<path clip-rule="nonzero" d="M 71 0.0820312 L 80 0.0820312 L 80 98 L 71 98 Z M 71 0.0820312 "/>
</clipPath>
<clipPath id="clip-4">
<path clip-rule="nonzero" d="M 89 0.0820312 L 92 0.0820312 L 92 100 L 89 100 Z M 89 0.0820312 "/>
</clipPath>
<clipPath id="clip-5">
<path clip-rule="nonzero" d="M 100 0.0820312 L 102 0.0820312 L 102 101 L 100 101 Z M 100 0.0820312 "/>
</clipPath>
<clipPath id="clip-6">
<path clip-rule="nonzero" d="M 102 0.0820312 L 103 0.0820312 L 103 199.835938 L 102 199.835938 Z M 102 0.0820312 "/>
</clipPath>
<clipPath id="clip-7">
<path clip-rule="nonzero" d="M 2 1 L 71 1 L 71 199.835938 L 2 199.835938 Z M 2 1 "/>
</clipPath>
<clipPath id="clip-8">
<path clip-rule="nonzero" d="M 70 0.0820312 L 71 0.0820312 L 71 2 L 70 2 Z M 70 0.0820312 "/>
</clipPath>
<clipPath id="clip-9">
<path clip-rule="nonzero" d="M 102 0.0820312 L 103 0.0820312 L 103 199.835938 L 102 199.835938 Z M 102 0.0820312 "/>
</clipPath>
<clipPath id="clip-10">
<path clip-rule="nonzero" d="M 99 97 L 104.921875 97 L 104.921875 103 L 99 103 Z M 99 97 "/>
</clipPath>
<clipPath id="clip-11">
<path clip-rule="nonzero" d="M 155.617188 99 L 365.429688 99 L 365.429688 101 L 155.617188 101 Z M 155.617188 99 "/>
</clipPath>
<clipPath id="clip-12">
<path clip-rule="nonzero" d="M 160 0.0820312 L 161 0.0820312 L 161 199.835938 L 160 199.835938 Z M 160 0.0820312 "/>
</clipPath>
<clipPath id="clip-13">
<path clip-rule="nonzero" d="M 195 0.0820312 L 204 0.0820312 L 204 87 L 195 87 Z M 195 0.0820312 "/>
</clipPath>
<clipPath id="clip-14">
<path clip-rule="nonzero" d="M 203 0.0820312 L 207 0.0820312 L 207 98 L 203 98 Z M 203 0.0820312 "/>
</clipPath>
<clipPath id="clip-15">
<path clip-rule="nonzero" d="M 209 0.0820312 L 211 0.0820312 L 211 101 L 209 101 Z M 209 0.0820312 "/>
</clipPath>
<clipPath id="clip-16">
<path clip-rule="nonzero" d="M 201 0.0820312 L 204 0.0820312 L 204 10 L 201 10 Z M 201 0.0820312 "/>
</clipPath>
<clipPath id="clip-17">
<path clip-rule="nonzero" d="M 210 0.0820312 L 211 0.0820312 L 211 199.835938 L 210 199.835938 Z M 210 0.0820312 "/>
</clipPath>
<clipPath id="clip-18">
<path clip-rule="nonzero" d="M 160 99 L 204 99 L 204 199.835938 L 160 199.835938 Z M 160 99 "/>
</clipPath>
<clipPath id="clip-19">
<path clip-rule="nonzero" d="M 201 0.0820312 L 204 0.0820312 L 204 15 L 201 15 Z M 201 0.0820312 "/>
</clipPath>
<clipPath id="clip-20">
<path clip-rule="nonzero" d="M 210 0.0820312 L 211 0.0820312 L 211 199.835938 L 210 199.835938 Z M 210 0.0820312 "/>
</clipPath>
<clipPath id="clip-21">
<path clip-rule="nonzero" d="M 201 189 L 204 189 L 204 199.835938 L 201 199.835938 Z M 201 189 "/>
</clipPath>
<clipPath id="clip-22">
<path clip-rule="nonzero" d="M 355 94 L 365.429688 94 L 365.429688 106 L 355 106 Z M 355 94 "/>
</clipPath>
</defs>
<g clip-path="url(#clip-0)">
<path fill="none" stroke-width="2.5" stroke-linecap="round" stroke-linejoin="round" stroke="rgb(0%, 0%, 0%)" stroke-opacity="1" stroke-miterlimit="10" d="M 0.156365 999.686149 L 1049.83697 999.686149 " transform="matrix(0.0999262, 0, 0, -0.0999262, 0.000000000000007438, 199.836274)"/>
</g>
<g clip-path="url(#clip-1)">
<path fill="none" stroke-width="2.5" stroke-linecap="round" stroke-linejoin="round" stroke="rgb(0%, 0%, 0%)" stroke-opacity="1" stroke-miterlimit="10" d="M 25.174822 0.00336519 L 25.174822 1999.368932 " transform="matrix(0.0999262, 0, 0, -0.0999262, 0.000000000000007438, 199.836274)"/>
</g>
<path fill="none" stroke-width="5" stroke-linecap="round" stroke-linejoin="round" stroke="rgb(100%, 0%, 0%)" stroke-opacity="1" stroke-miterlimit="10" d="M 1024.857605 999.686149 L 25.174822 999.686149 " transform="matrix(0.0999262, 0, 0, -0.0999262, 0.000000000000007438, 199.836274)"/>
<path fill="none" stroke-width="5" stroke-linecap="round" stroke-linejoin="round" stroke="rgb(100%, 0%, 0%)" stroke-opacity="1" stroke-miterlimit="10" d="M 1024.857605 999.686149 L 975.641611 1215.07942 L 47.495976 1003.087095 " transform="matrix(0.0999262, 0, 0, -0.0999262, 0.000000000000007438, 199.836274)"/>
<path fill="none" stroke-width="5" stroke-linecap="round" stroke-linejoin="round" stroke="rgb(100%, 0%, 0%)" stroke-opacity="1" stroke-miterlimit="10" d="M 1024.857605 999.686149 L 844.177441 1377.034833 L 112.465779 1026.698263 " transform="matrix(0.0999262, 0, 0, -0.0999262, 0.000000000000007438, 199.836274)"/>
<path fill="none" stroke-width="5" stroke-linecap="round" stroke-linejoin="round" stroke="rgb(100%, 0%, 0%)" stroke-opacity="1" stroke-miterlimit="10" d="M 1024.857605 999.686149 L 673.465569 1449.627448 L 214.298714 1091.042605 " transform="matrix(0.0999262, 0, 0, -0.0999262, 0.000000000000007438, 199.836274)"/>
<path fill="none" stroke-width="5" stroke-linecap="round" stroke-linejoin="round" stroke="rgb(100%, 0%, 0%)" stroke-opacity="1" stroke-miterlimit="10" d="M 1024.857605 999.686149 L 519.289332 1425.820823 L 343.886499 1217.737631 " transform="matrix(0.0999262, 0, 0, -0.0999262, 0.000000000000007438, 199.836274)"/>
<path fill="none" stroke-width="5" stroke-linecap="round" stroke-linejoin="round" stroke="rgb(100%, 0%, 0%)" stroke-opacity="1" stroke-miterlimit="10" d="M 1024.857605 999.686149 L 432.076558 1328.717939 L 489.658098 1432.427259 " transform="matrix(0.0999262, 0, 0, -0.0999262, 0.000000000000007438, 199.836274)"/>
<path fill="none" stroke-width="5" stroke-linecap="round" stroke-linejoin="round" stroke="rgb(100%, 0%, 0%)" stroke-opacity="1" stroke-miterlimit="10" d="M 1024.857605 999.686149 L 441.028474 1201.632 L 638.557004 1772.678264 " transform="matrix(0.0999262, 0, 0, -0.0999262, 0.000000000000007438, 199.836274)"/>
<path fill="none" stroke-width="5" stroke-linecap="round" stroke-linejoin="round" stroke="rgb(100%, 0%, 0%)" stroke-opacity="1" stroke-miterlimit="10" d="M 1024.857605 999.686149 L 545.558711 1090.729874 " transform="matrix(0.0999262, 0, 0, -0.0999262, 0.000000000000007438, 199.836274)"/>
<g clip-path="url(#clip-2)">
<path fill="none" stroke-width="5" stroke-linecap="round" stroke-linejoin="round" stroke="rgb(100%, 0%, 0%)" stroke-opacity="1" stroke-miterlimit="10" d="M 545.558711 1090.729874 L 718.146968 1999.368932 " transform="matrix(0.0999262, 0, 0, -0.0999262, 0.000000000000007438, 199.836274)"/>
</g>
<path fill="none" stroke-width="5" stroke-linecap="round" stroke-linejoin="round" stroke="rgb(100%, 0%, 0%)" stroke-opacity="1" stroke-miterlimit="10" d="M 1024.857605 999.686149 L 714.98057 1024.743696 " transform="matrix(0.0999262, 0, 0, -0.0999262, 0.000000000000007438, 199.836274)"/>
<g clip-path="url(#clip-3)">
<path fill="none" stroke-width="5" stroke-linecap="round" stroke-linejoin="round" stroke="rgb(100%, 0%, 0%)" stroke-opacity="1" stroke-miterlimit="10" d="M 714.98057 1024.743696 L 793.788707 1999.368932 " transform="matrix(0.0999262, 0, 0, -0.0999262, 0.000000000000007438, 199.836274)"/>
</g>
<path fill="none" stroke-width="5" stroke-linecap="round" stroke-linejoin="round" stroke="rgb(100%, 0%, 0%)" stroke-opacity="1" stroke-miterlimit="10" d="M 1024.857605 999.686149 L 893.627984 1002.266177 " transform="matrix(0.0999262, 0, 0, -0.0999262, 0.000000000000007438, 199.836274)"/>
<g clip-path="url(#clip-4)">
<path fill="none" stroke-width="5" stroke-linecap="round" stroke-linejoin="round" stroke="rgb(100%, 0%, 0%)" stroke-opacity="1" stroke-miterlimit="10" d="M 893.627984 1002.266177 L 913.251835 1999.368932 " transform="matrix(0.0999262, 0, 0, -0.0999262, 0.000000000000007438, 199.836274)"/>
</g>
<path fill="none" stroke-width="5" stroke-linecap="round" stroke-linejoin="round" stroke="rgb(100%, 0%, 0%)" stroke-opacity="1" stroke-miterlimit="10" d="M 1024.857605 999.686149 L 1010.002897 999.686149 " transform="matrix(0.0999262, 0, 0, -0.0999262, 0.000000000000007438, 199.836274)"/>
<g clip-path="url(#clip-5)">
<path fill="none" stroke-width="5" stroke-linecap="round" stroke-linejoin="round" stroke="rgb(100%, 0%, 0%)" stroke-opacity="1" stroke-miterlimit="10" d="M 1010.002897 999.686149 L 1010.667449 1999.368932 " transform="matrix(0.0999262, 0, 0, -0.0999262, 0.000000000000007438, 199.836274)"/>
</g>
<path fill="none" stroke-width="5" stroke-linecap="round" stroke-linejoin="round" stroke="rgb(0%, 0%, 0%)" stroke-opacity="1" stroke-miterlimit="10" d="M 644.342522 1044.484822 L 689.5712 1030.920128 L 740.468122 1019.505457 L 766.268405 1014.970862 L 793.671433 1011.022637 L 841.871052 1005.784397 L 868.10134 1003.751648 L 895.230729 1002.187994 L 919.23281 1001.171619 L 939.794854 1000.546158 L 956.799586 1000.155245 L 965.751502 1000.037971 L 973.647952 999.920697 L 981.270763 999.842514 L 987.994473 999.803423 L 995.148188 999.764331 L 1001.011889 999.72524 L 1006.01558 999.72524 L 1008.282878 999.686149 L 1024.857605 999.686149 L 1005.468301 999.686149 " transform="matrix(0.0999262, 0, 0, -0.0999262, 0.000000000000007438, 199.836274)"/>
<path fill="none" stroke-width="5" stroke-linecap="round" stroke-linejoin="round" stroke="rgb(0%, 0%, 0%)" stroke-opacity="1" stroke-miterlimit="10" d="M 1005.468301 999.686149 L 1000.620976 999.647057 L 994.209996 999.647057 L 987.759925 999.568875 L 981.153489 999.529783 L 973.491587 999.451601 L 958.206874 999.256144 L 949.176775 999.060687 L 938.778479 998.826139 L 916.183686 998.122495 L 893.627984 997.10612 L 871.424104 995.816106 L 847.34384 994.056996 L 820.253543 991.476968 L 795.782365 988.6233 L 769.473895 984.909623 L 719.241526 975.566793 L 673.426478 964.034848 L 626.868694 948.59377 L 579.959089 928.031726 L 539.773193 904.928746 L 507.288292 880.848481 L 476.367043 850.787243 L 453.615885 820.530547 L 443.295771 802.353075 L 435.751143 785.504708 L 432.311106 776.044605 L 429.261981 765.724491 L 426.955592 755.990748 L 426.056491 751.338879 L 425.313756 746.960649 L 424.727386 742.699693 L 424.219199 738.086916 L 423.867377 733.904142 L 423.632829 729.995009 L 423.476463 725.812235 L 423.437372 721.238549 L 423.476463 718.93216 L 423.554646 716.430314 L 423.789194 711.934811 L 424.062833 708.025677 L 424.531929 703.72563 L 425.743761 695.164627 L 427.346506 687.307268 L 429.144707 680.07537 L 435.164773 662.484268 L 442.474853 647.082281 L 452.990423 630.194823 L 464.913281 615.301023 L 492.081761 590.556206 L 508.031027 579.84518 " transform="matrix(0.0999262, 0, 0, -0.0999262, 0.000000000000007438, 199.836274)"/>
<path fill="none" stroke-width="5" stroke-linecap="round" stroke-linejoin="round" stroke="rgb(0%, 0%, 0%)" stroke-opacity="1" stroke-miterlimit="10" d="M 508.031027 579.84518 L 527.146691 569.642341 L 544.620519 562.371352 L 564.51801 555.999464 L 574.525393 553.536709 L 584.259136 551.50396 L 593.171961 550.018489 L 602.983887 548.767566 L 609.043044 548.142105 L 614.672197 547.7121 L 620.105893 547.399369 L 625.852319 547.164821 L 631.090559 547.086639 L 635.937885 547.086639 L 641.332489 547.164821 L 647.157098 547.360278 L 653.411713 547.751191 L 660.213605 548.259379 L 672.683742 549.627576 L 684.88024 551.464869 L 696.255819 553.614892 L 716.935137 558.618583 L 739.764478 565.772298 L 785.579526 585.474332 L 832.840953 614.0501 L 873.613219 646.847733 L 914.463667 689.535474 L 951.834986 741.214223 L 979.43347 792.345693 L 992.059973 822.094201 L 1002.184629 851.099973 L 1009.963805 878.815732 L 1016.609333 909.463341 L 1018.954813 923.106218 L 1020.987563 937.648195 L 1022.394851 950.118332 L 1023.567591 963.917574 L 1024.075778 972.048573 L 1024.466692 979.593201 L 1024.70124 987.919656 L 1024.818514 992.532434 L 1024.857605 996.754298 L 1024.818514 1004.455292 L 1024.779422 1008.833522 L 1024.662148 1012.820838 L 1024.4276 1020.17001 L 1024.036687 1027.910095 L 1023.606682 1034.868353 L 1023.020312 1042.334798 L 1021.691207 1055.704036 L 1019.658457 1071.536028 " transform="matrix(0.0999262, 0, 0, -0.0999262, 0.000000000000007438, 199.836274)"/>
<path fill="none" stroke-width="5" stroke-linecap="round" stroke-linejoin="round" stroke="rgb(0%, 0%, 0%)" stroke-opacity="1" stroke-miterlimit="10" d="M 1019.658457 1071.536028 L 1017.352068 1085.882549 L 1010.745632 1117.429258 L 1001.32462 1150.969626 L 978.417096 1209.332994 L 950.935885 1259.643545 L 914.502758 1309.797732 L 870.759551 1355.143684 L 825.569965 1390.325888 L 802.466984 1404.750592 L 776.666701 1418.354377 L 753.602812 1428.439942 L 728.779812 1437.274585 L 704.230452 1443.998295 L 682.026572 1448.376525 L 671.393728 1449.901087 L 665.842758 1450.56564 L 659.979057 1451.112918 L 654.858092 1451.542923 L 649.268031 1451.894745 L 644.186157 1452.129293 L 639.495196 1452.246567 L 633.631496 1452.32475 L 630.660554 1452.285658 L 627.415973 1452.246567 L 621.708638 1452.05111 L 616.392216 1451.777471 L 610.176693 1451.347466 L 604.54754 1450.800188 L 591.999221 1449.158351 L 582.03093 1447.438333 L 571.280812 1445.092852 L 550.48422 1439.072786 L 532.463113 1432.114528 L 514.402915 1423.201703 L 485.397142 1403.656034 L 470.503343 1390.052249 L 458.424119 1376.37028 L 447.087631 1360.264649 L 437.432071 1342.126268 L 434.148398 1334.268909 L 431.060183 1325.668815 L 428.831976 1318.085096 L 426.799227 1309.719549 L 425.821943 1304.598584 L 425.040117 1299.829441 L 424.414655 1294.82575 L 423.984651 1290.291154 L 423.67192 1285.79565 L 423.515555 1281.573786 L 423.437372 1277.078282 " transform="matrix(0.0999262, 0, 0, -0.0999262, 0.000000000000007438, 199.836274)"/>
<path fill="none" stroke-width="5" stroke-linecap="round" stroke-linejoin="round" stroke="rgb(0%, 0%, 0%)" stroke-opacity="1" stroke-miterlimit="10" d="M 423.437372 1277.078282 L 423.476463 1274.537345 L 423.515555 1272.230956 L 423.711011 1267.65727 L 424.023742 1263.318131 L 424.414655 1259.408997 L 424.922843 1255.187133 L 426.486496 1245.687938 L 428.401972 1236.931478 L 433.092932 1221.021304 L 439.777551 1204.368394 L 448.924924 1186.620926 L 459.245037 1170.398021 L 488.798089 1135.372182 L 522.416639 1106.561866 L 563.853457 1079.901574 L 603.335709 1060.394996 L 649.854401 1042.647529 L 702.080428 1027.753729 L 750.592778 1017.629073 L 777.487619 1013.250843 L 806.297935 1009.458983 L 832.801862 1006.644407 L 856.843035 1004.572566 L 880.258746 1003.008912 L 900.625333 1001.914355 L 922.047386 1001.054345 L 933.305692 1000.702523 L 943.313074 1000.467975 L 961.803277 1000.077062 L 970.755193 999.959788 L 979.628927 999.842514 L 986.704459 999.803423 L 999.057322 999.72524 L 1007.46196 999.72524 L 1009.651075 999.686149 L 1023.919413 999.686149 " transform="matrix(0.0999262, 0, 0, -0.0999262, 0.000000000000007438, 199.836274)"/>
<path fill="none" stroke-width="5" stroke-linecap="round" stroke-linejoin="round" stroke="rgb(0%, 0%, 0%)" stroke-opacity="1" stroke-miterlimit="10" d="M 1023.919413 999.686149 L 1024.818514 999.686149 L 1003.904648 999.686149 L 998.392769 999.647057 L 991.747242 999.607966 L 985.297171 999.568875 L 977.908908 999.490692 L 963.875118 999.334327 L 955.196841 999.177961 L 946.635838 999.021596 L 926.151977 998.435226 L 905.941755 997.69249 L 881.040573 996.441568 L 856.139391 994.76064 L 808.369776 990.186953 L 780.810383 986.59055 L 755.557378 982.642325 L 706.302293 972.634943 L 660.799975 960.28208 L 644.342522 954.887475 " transform="matrix(0.0999262, 0, 0, -0.0999262, 0.000000000000007438, 199.836274)"/>
<g clip-path="url(#clip-6)">
<path fill="none" stroke-width="5" stroke-linecap="round" stroke-linejoin="round" stroke="rgb(0%, 0%, 0%)" stroke-opacity="1" stroke-dasharray="52.484 20.993" stroke-miterlimit="10" d="M 1024.857605 1999.368932 L 1024.857605 0.00336519 " transform="matrix(0.0999262, 0, 0, -0.0999262, 0.000000000000007438, 199.836274)"/>
</g>
<g clip-path="url(#clip-7)">
<path fill="none" stroke-width="5" stroke-linecap="round" stroke-linejoin="round" stroke="rgb(0%, 0%, 0%)" stroke-opacity="1" stroke-dasharray="52.484 20.993" stroke-miterlimit="10" d="M 704.895005 0.00336519 L 643.599787 211.956599 L 566.628942 411.126966 L 482.504383 579.688814 L 406.080818 700.793779 L 325.044474 803.36945 L 254.601884 874.476593 L 189.710263 926.624438 L 136.467861 960.28208 L 88.698246 983.150513 L 56.135161 994.135179 L 43.665024 997.145212 L 38.153146 998.200678 L 33.853099 998.86523 L 30.647609 999.295235 L 28.380311 999.529783 L 27.403028 999.568875 L 26.543018 999.647057 L 25.878466 999.686149 L 25.174822 999.686149 L 25.643918 999.686149 L 25.956648 999.72524 L 26.621201 999.764331 L 27.598485 999.803423 L 30.022147 1000.037971 L 33.384003 1000.428884 L 37.332228 1001.054345 L 46.831423 1002.891638 L 60.357026 1006.409859 L 78.065402 1012.195377 L 118.05584 1029.434657 L 171.259151 1060.121357 L 229.66161 1103.395468 L 374.807748 1256.164416 L 461.864157 1384.344913 L 546.184173 1543.329384 L 629.0969 1745.783423 L 703.214077 1984.201493 " transform="matrix(0.0999262, 0, 0, -0.0999262, 0.000000000000007438, 199.836274)"/>
</g>
<g clip-path="url(#clip-8)">
<path fill="none" stroke-width="5" stroke-linecap="round" stroke-linejoin="round" stroke="rgb(0%, 0%, 0%)" stroke-opacity="1" stroke-dasharray="52.484 20.993" stroke-miterlimit="10" d="M 703.214077 1984.201493 L 706.693206 1999.368932 " transform="matrix(0.0999262, 0, 0, -0.0999262, 0.000000000000007438, 199.836274)"/>
</g>
<g clip-path="url(#clip-9)">
<path fill="none" stroke-width="5" stroke-linecap="round" stroke-linejoin="round" stroke="rgb(0%, 0%, 0%)" stroke-opacity="1" stroke-dasharray="52.484 20.993" stroke-miterlimit="10" d="M 1024.857605 1999.368932 L 1024.857605 0.00336519 " transform="matrix(0.0999262, 0, 0, -0.0999262, 0.000000000000007438, 199.836274)"/>
</g>
<g clip-path="url(#clip-10)">
<path fill="none" stroke-width="52.484" stroke-linecap="round" stroke-linejoin="round" stroke="rgb(0%, 0%, 0%)" stroke-opacity="1" stroke-dasharray="52.484 20.993" stroke-miterlimit="10" d="M 1024.857605 999.686149 L 1024.857605 999.686149 " transform="matrix(0.0999262, 0, 0, -0.0999262, 0.000000000000007438, 199.836274)"/>
</g>
<g clip-path="url(#clip-11)">
<path fill="none" stroke-width="2.5" stroke-linecap="round" stroke-linejoin="round" stroke="rgb(0%, 0%, 0%)" stroke-opacity="1" stroke-miterlimit="10" d="M 1557.633449 999.686149 L 3656.994658 999.686149 " transform="matrix(0.0999262, 0, 0, -0.0999262, 0.000000000000007438, 199.836274)"/>
</g>
<g clip-path="url(#clip-12)">
<path fill="none" stroke-width="2.5" stroke-linecap="round" stroke-linejoin="round" stroke="rgb(0%, 0%, 0%)" stroke-opacity="1" stroke-miterlimit="10" d="M 1607.63127 0.00336519 L 1607.63127 1999.368932 " transform="matrix(0.0999262, 0, 0, -0.0999262, 0.000000000000007438, 199.836274)"/>
</g>
<path fill="none" stroke-width="5" stroke-linecap="round" stroke-linejoin="round" stroke="rgb(100%, 0%, 0%)" stroke-opacity="1" stroke-miterlimit="10" d="M 3606.996837 999.686149 L 1607.63127 999.686149 " transform="matrix(0.0999262, 0, 0, -0.0999262, 0.000000000000007438, 199.836274)"/>
<path fill="none" stroke-width="5" stroke-linecap="round" stroke-linejoin="round" stroke="rgb(100%, 0%, 0%)" stroke-opacity="1" stroke-miterlimit="10" d="M 3606.996837 999.686149 L 3508.017569 1432.935446 L 1618.772301 1001.367076 " transform="matrix(0.0999262, 0, 0, -0.0999262, 0.000000000000007438, 199.836274)"/>
<path fill="none" stroke-width="5" stroke-linecap="round" stroke-linejoin="round" stroke="rgb(100%, 0%, 0%)" stroke-opacity="1" stroke-miterlimit="10" d="M 3606.996837 999.686149 L 3236.997324 1772.443716 L 1651.257203 1013.211751 " transform="matrix(0.0999262, 0, 0, -0.0999262, 0.000000000000007438, 199.836274)"/>
<path fill="none" stroke-width="5" stroke-linecap="round" stroke-linejoin="round" stroke="rgb(100%, 0%, 0%)" stroke-opacity="1" stroke-miterlimit="10" d="M 3606.996837 999.686149 L 2863.245042 1952.068413 L 1702.193216 1045.383923 " transform="matrix(0.0999262, 0, 0, -0.0999262, 0.000000000000007438, 199.836274)"/>
<path fill="none" stroke-width="5" stroke-linecap="round" stroke-linejoin="round" stroke="rgb(100%, 0%, 0%)" stroke-opacity="1" stroke-miterlimit="10" d="M 3606.996837 999.686149 L 2477.608994 1951.716591 L 1767.006654 1108.71189 " transform="matrix(0.0999262, 0, 0, -0.0999262, 0.000000000000007438, 199.836274)"/>
<path fill="none" stroke-width="5" stroke-linecap="round" stroke-linejoin="round" stroke="rgb(100%, 0%, 0%)" stroke-opacity="1" stroke-miterlimit="10" d="M 3606.996837 999.686149 L 2164.25283 1800.472205 L 1839.872908 1216.056704 " transform="matrix(0.0999262, 0, 0, -0.0999262, 0.000000000000007438, 199.836274)"/>
<path fill="none" stroke-width="5" stroke-linecap="round" stroke-linejoin="round" stroke="rgb(100%, 0%, 0%)" stroke-opacity="1" stroke-miterlimit="10" d="M 3606.996837 999.686149 L 1975.832581 1563.930519 L 1914.341907 1386.182206 " transform="matrix(0.0999262, 0, 0, -0.0999262, 0.000000000000007438, 199.836274)"/>
<path fill="none" stroke-width="5" stroke-linecap="round" stroke-linejoin="round" stroke="rgb(100%, 0%, 0%)" stroke-opacity="1" stroke-miterlimit="10" d="M 3606.996837 999.686149 L 1920.049242 1320.156936 L 1983.729032 1655.326067 " transform="matrix(0.0999262, 0, 0, -0.0999262, 0.000000000000007438, 199.836274)"/>
<path fill="none" stroke-width="5" stroke-linecap="round" stroke-linejoin="round" stroke="rgb(100%, 0%, 0%)" stroke-opacity="1" stroke-miterlimit="10" d="M 3606.996837 999.686149 L 1962.267887 1132.67488 " transform="matrix(0.0999262, 0, 0, -0.0999262, 0.000000000000007438, 199.836274)"/>
<g clip-path="url(#clip-13)">
<path fill="none" stroke-width="5" stroke-linecap="round" stroke-linejoin="round" stroke="rgb(100%, 0%, 0%)" stroke-opacity="1" stroke-miterlimit="10" d="M 1962.267887 1132.67488 L 2032.358656 1999.368932 " transform="matrix(0.0999262, 0, 0, -0.0999262, 0.000000000000007438, 199.836274)"/>
</g>
<path fill="none" stroke-width="5" stroke-linecap="round" stroke-linejoin="round" stroke="rgb(100%, 0%, 0%)" stroke-opacity="1" stroke-miterlimit="10" d="M 3606.996837 999.686149 L 2042.444221 1030.41194 " transform="matrix(0.0999262, 0, 0, -0.0999262, 0.000000000000007438, 199.836274)"/>
<g clip-path="url(#clip-14)">
<path fill="none" stroke-width="5" stroke-linecap="round" stroke-linejoin="round" stroke="rgb(100%, 0%, 0%)" stroke-opacity="1" stroke-miterlimit="10" d="M 2042.444221 1030.41194 L 2061.481703 1999.368932 " transform="matrix(0.0999262, 0, 0, -0.0999262, 0.000000000000007438, 199.836274)"/>
</g>
<path fill="none" stroke-width="5" stroke-linecap="round" stroke-linejoin="round" stroke="rgb(100%, 0%, 0%)" stroke-opacity="1" stroke-miterlimit="10" d="M 3606.996837 999.686149 L 2100.025762 1000.741615 " transform="matrix(0.0999262, 0, 0, -0.0999262, 0.000000000000007438, 199.836274)"/>
<g clip-path="url(#clip-15)">
<path fill="none" stroke-width="5" stroke-linecap="round" stroke-linejoin="round" stroke="rgb(100%, 0%, 0%)" stroke-opacity="1" stroke-miterlimit="10" d="M 2100.025762 1000.741615 L 2100.729406 1999.368932 " transform="matrix(0.0999262, 0, 0, -0.0999262, 0.000000000000007438, 199.836274)"/>
</g>
<path fill="none" stroke-width="5" stroke-linecap="round" stroke-linejoin="round" stroke="rgb(0%, 0%, 0%)" stroke-opacity="1" stroke-miterlimit="10" d="M 1937.718527 1196.237395 L 1953.511427 1151.790544 L 1973.604375 1111.565558 L 1996.160077 1077.75155 L 2021.686721 1048.706686 L 2043.656053 1029.512839 L 2064.960832 1015.166318 L 2074.225479 1010.201718 L 2083.177395 1006.136219 L 2089.940197 1003.595282 L 2096.194811 1001.679807 L 2101.003045 1000.546158 L 2104.325809 999.998879 L 2105.654914 999.803423 L 2106.554015 999.72524 L 2107.062203 999.72524 L 2107.218568 999.686149 L 2107.453116 999.686149 L 2106.944929 999.686149 L 2106.593107 999.647057 L 2106.124011 999.607966 L 2105.029453 999.490692 L 2102.293059 999.099779 L 2098.188469 998.200678 L 2092.67659 996.676116 L 2086.617433 994.604275 L 2069.769066 986.903281 L 2051.239772 975.449519 L 2028.605888 957.232956 L 2005.932912 933.739062 L 1981.969921 901.410525 L 1959.375128 860.63826 L 1950.110481 839.294389 L 1941.31493 814.901394 L 1934.356672 790.899313 L 1928.102058 762.870824 L 1925.873852 750.048865 L 1923.841102 735.936892 L 1922.31654 722.333106 L 1921.261074 709.628422 " transform="matrix(0.0999262, 0, 0, -0.0999262, 0.000000000000007438, 199.836274)"/>
<path fill="none" stroke-width="5" stroke-linecap="round" stroke-linejoin="round" stroke="rgb(0%, 0%, 0%)" stroke-opacity="1" stroke-miterlimit="10" d="M 1921.261074 709.628422 L 1920.752886 702.005611 L 1920.440156 695.086444 L 1920.28379 691.17731 L 1920.166516 686.955446 L 1920.088334 682.968129 L 1920.049242 679.254452 L 1920.010151 675.814414 L 1920.010151 672.608925 L 1920.088334 669.012522 L 1920.127425 665.220662 L 1920.205608 661.155163 L 1920.361973 657.363303 L 1920.635612 650.131405 L 1921.104708 642.000407 L 1921.769261 633.283039 L 1923.293823 617.490138 L 1925.482938 600.28995 L 1928.649337 581.096103 L 1936.115782 546.187538 L 1945.184973 513.81991 L 1973.682558 440.015464 L 2009.607497 373.286551 L 2059.957141 302.492138 L 2118.476873 239.125079 L 2192.085863 177.51713 L 2278.20408 123.062897 L 2321.126369 101.484478 L 2368.661436 81.235165 L 2414.281027 65.129534 L 2466.155232 50.3921 L 2514.823948 39.87653 L 2561.381731 32.605541 L 2587.885658 29.634599 L 2602.974915 28.305494 L 2617.008705 27.32821 L 2629.283385 26.663658 L 2636.358917 26.350927 L 2642.887171 26.15547 L 2649.728155 25.960014 L 2653.324558 25.881831 L 2657.155509 25.803648 L 2663.566489 25.725466 L 2677.443914 25.725466 L 2683.854893 25.803648 L 2689.679502 25.960014 L 2695.973208 26.116379 L 2702.853283 26.350927 L 2710.163363 26.663658 L 2723.258962 27.367302 " transform="matrix(0.0999262, 0, 0, -0.0999262, 0.000000000000007438, 199.836274)"/>
<path fill="none" stroke-width="5" stroke-linecap="round" stroke-linejoin="round" stroke="rgb(0%, 0%, 0%)" stroke-opacity="1" stroke-miterlimit="10" d="M 2723.258962 27.367302 L 2746.752856 29.126412 L 2772.631321 31.823714 L 2801.480729 35.693757 L 2828.883756 40.306535 L 2880.210683 51.2912 L 2935.212195 66.615005 L 2994.552846 87.411597 L 3099.004901 135.845764 L 3204.434239 202.222856 L 3303.608964 284.979218 L 3386.951696 375.514757 L 3458.64521 476.448591 L 3513.216717 577.343334 L 3556.686285 686.642715 L 3575.567401 750.947966 L 3589.249369 812.086818 L 3593.510325 835.971626 L 3597.497642 862.084639 L 3600.429492 885.18762 L 3602.931338 909.776071 L 3604.729539 931.94086 L 3605.472275 944.567362 L 3606.058645 956.451129 L 3606.488649 967.279429 L 3606.723197 977.247721 L 3606.840471 982.48596 L 3606.957745 988.193295 L 3606.996837 994.135179 L 3606.996837 999.686149 " transform="matrix(0.0999262, 0, 0, -0.0999262, 0.000000000000007438, 199.836274)"/>
<path fill="none" stroke-width="5" stroke-linecap="round" stroke-linejoin="round" stroke="rgb(0%, 0%, 0%)" stroke-opacity="1" stroke-dasharray="104.967 41.987" stroke-miterlimit="10" d="M 2020.904894 1902.735145 L 2020.904894 1902.735145 " transform="matrix(0.0999262, 0, 0, -0.0999262, 0.000000000000007438, 199.836274)"/>
<g clip-path="url(#clip-16)">
<path fill="none" stroke-width="5" stroke-linecap="round" stroke-linejoin="round" stroke="rgb(0%, 0%, 0%)" stroke-opacity="1" stroke-dasharray="104.967 41.987" stroke-miterlimit="10" d="M 2020.904894 1902.735145 L 2030.951368 1999.368932 " transform="matrix(0.0999262, 0, 0, -0.0999262, 0.000000000000007438, 199.836274)"/>
</g>
<g clip-path="url(#clip-17)">
<path fill="none" stroke-width="5" stroke-linecap="round" stroke-linejoin="round" stroke="rgb(0%, 0%, 0%)" stroke-opacity="1" stroke-dasharray="104.967 41.987" stroke-miterlimit="10" d="M 2107.453116 1999.368932 L 2107.453116 0.00336519 " transform="matrix(0.0999262, 0, 0, -0.0999262, 0.000000000000007438, 199.836274)"/>
</g>
<g clip-path="url(#clip-18)">
<path fill="none" stroke-width="5" stroke-linecap="round" stroke-linejoin="round" stroke="rgb(0%, 0%, 0%)" stroke-opacity="1" stroke-dasharray="104.967 41.987" stroke-miterlimit="10" d="M 2031.30319 0.00336519 L 2031.146825 2.036115 L 2015.666655 139.559441 L 1997.99737 262.579882 L 1963.596993 439.663642 L 1924.114741 583.910679 L 1884.280668 691.646406 L 1841.202014 780.891931 L 1800.156109 847.308114 L 1762.159329 896.328651 L 1724.397096 935.224532 L 1691.677646 961.923916 L 1661.811864 980.805032 L 1648.989905 987.255103 L 1638.59161 991.711516 L 1629.326963 995.073371 L 1622.055974 997.184303 L 1616.192273 998.5525 L 1613.573153 999.021596 L 1611.501312 999.373418 L 1609.898568 999.529783 L 1609.234015 999.607966 L 1608.686736 999.647057 L 1608.21764 999.686149 L 1607.63127 999.686149 " transform="matrix(0.0999262, 0, 0, -0.0999262, 0.000000000000007438, 199.836274)"/>
</g>
<path fill="none" stroke-width="5" stroke-linecap="round" stroke-linejoin="round" stroke="rgb(0%, 0%, 0%)" stroke-opacity="1" stroke-miterlimit="10" d="M 3606.996837 999.686149 L 3606.996837 1007.113503 L 3606.879563 1013.837213 L 3606.762289 1021.616389 L 3606.566832 1028.965561 L 3606.097736 1042.022068 L 3605.394092 1056.173132 L 3604.377717 1071.770576 L 3603.087703 1088.26712 L 3599.999487 1117.859263 L 3595.894897 1148.194141 L 3591.243028 1176.535361 L 3577.561059 1240.371516 L 3559.422679 1304.285853 L 3539.134274 1361.476481 L 3481.240003 1484.45783 L 3418.068401 1583.358914 L 3336.914783 1680.969985 L 3249.662917 1762.201785 L 3147.712708 1835.302587 L 3095.017585 1865.715648 L 3036.419669 1894.447781 L 2984.701829 1915.75256 L 2927.120289 1935.298229 L 2870.242392 1950.465668 L 2816.921807 1961.215786 L 2787.446938 1965.71129 L 2760.630281 1968.91678 L 2745.814663 1970.324068 L 2729.709032 1971.614082 L 2714.580685 1972.513183 L 2707.7397 1972.825914 L 2700.546894 1973.138644 L 2694.214097 1973.334101 L 2687.334022 1973.490466 L 2681.040317 1973.60774 L 2675.215707 1973.646832 L 2662.002835 1973.646832 L 2658.562797 1973.60774 L 2654.810029 1973.529558 L 2648.008136 1973.373192 L 2642.105344 1973.216827 L 2635.616182 1972.982279 L 2622.559675 1972.395909 L 2610.558634 1971.614082 L 2599.300329 1970.793164 L 2571.662753 1968.05677 L 2546.683388 1964.773098 L 2491.525511 1954.843898 " transform="matrix(0.0999262, 0, 0, -0.0999262, 0.000000000000007438, 199.836274)"/>
<path fill="none" stroke-width="5" stroke-linecap="round" stroke-linejoin="round" stroke="rgb(0%, 0%, 0%)" stroke-opacity="1" stroke-miterlimit="10" d="M 2491.525511 1954.843898 L 2441.879512 1942.569218 L 2397.237204 1928.574519 L 2301.854339 1888.623172 L 2216.283401 1838.820807 L 2147.443555 1786.477506 L 2085.483784 1726.433211 L 2029.739536 1656.772447 L 1987.364526 1587.111683 L 1969.929789 1551.108561 L 1954.293254 1512.52541 L 1942.370396 1476.28774 L 1933.848485 1443.607381 L 1930.486629 1428.009938 L 1927.398414 1411.239754 L 1925.131116 1396.736867 L 1923.215641 1381.256698 L 1922.355631 1372.812969 L 1921.651987 1365.151066 L 1921.104708 1357.450073 L 1920.713795 1350.296358 L 1920.361973 1342.47809 L 1920.205608 1338.412591 L 1920.088334 1331.845246 L 1920.049242 1329.460675 L 1920.010151 1327.232469 L 1920.010151 1321.329677 L 1920.166516 1313.198678 L 1920.244699 1309.485001 L 1920.401064 1305.263137 L 1920.55743 1301.236729 L 1920.948343 1294.161197 L 1921.495622 1286.577477 L 1923.098367 1269.650928 L 1925.092025 1254.405306 L 1929.861168 1227.705922 L 1935.568503 1203.899298 L 1943.152223 1178.998115 L 1952.377779 1154.566029 L 1972.627092 1113.246485 L 1993.267318 1081.621593 L 2016.096659 1054.37493 L 2037.010525 1034.829261 L 2058.628035 1018.99727 L 2075.789132 1009.419892 L 2090.135653 1003.5171 L 2096.507541 1001.601624 L 2101.120319 1000.546158 " transform="matrix(0.0999262, 0, 0, -0.0999262, 0.000000000000007438, 199.836274)"/>
<path fill="none" stroke-width="5" stroke-linecap="round" stroke-linejoin="round" stroke="rgb(0%, 0%, 0%)" stroke-opacity="1" stroke-miterlimit="10" d="M 2101.120319 1000.546158 L 2102.879429 1000.194336 L 2104.443083 999.959788 L 2106.436741 999.764331 L 2106.866746 999.72524 L 2107.140385 999.72524 L 2107.257659 999.686149 L 2107.453116 999.686149 L 2107.023111 999.686149 L 2106.710381 999.647057 L 2106.280376 999.647057 L 2105.264001 999.529783 L 2103.817622 999.334327 L 2101.823963 998.982505 L 2097.172094 997.96613 L 2091.699307 996.363385 L 2076.922781 990.499684 L 2060.035323 981.274128 L 2040.255106 967.240338 L 2016.800304 945.701011 L 1994.049145 918.845262 L 1970.711616 882.763957 L 1952.260505 844.57172 L 1937.718527 803.173993 " transform="matrix(0.0999262, 0, 0, -0.0999262, 0.000000000000007438, 199.836274)"/>
<path fill="none" stroke-width="5" stroke-linecap="round" stroke-linejoin="round" stroke="rgb(0%, 0%, 0%)" stroke-opacity="1" stroke-dasharray="104.967 41.987" stroke-miterlimit="10" d="M 1607.63127 999.686149 L 1607.904909 999.686149 L 1608.061275 999.72524 L 1608.413097 999.72524 L 1608.843101 999.764331 L 1609.39038 999.803423 L 1610.914942 999.959788 L 1612.947692 1000.233427 L 1615.254081 1000.624341 L 1621.860517 1002.109812 L 1629.24878 1004.298926 L 1638.943432 1007.778056 L 1662.671874 1019.075452 L 1690.934911 1036.940194 L 1725.843476 1065.47687 L 1763.253886 1104.372751 L 1801.797945 1154.487847 L 1844.407503 1224.304976 L 1885.766139 1311.244111 L 1924.857477 1417.768007 L 1945.927708 1489.266064 L 1964.535185 1563.735063 L 1999.873754 1748.598 L 2015.862111 1861.454692 " transform="matrix(0.0999262, 0, 0, -0.0999262, 0.000000000000007438, 199.836274)"/>
<g clip-path="url(#clip-19)">
<path fill="none" stroke-width="5" stroke-linecap="round" stroke-linejoin="round" stroke="rgb(0%, 0%, 0%)" stroke-opacity="1" stroke-dasharray="104.967 41.987" stroke-miterlimit="10" d="M 2015.862111 1861.454692 L 2031.264099 1999.368932 " transform="matrix(0.0999262, 0, 0, -0.0999262, 0.000000000000007438, 199.836274)"/>
</g>
<g clip-path="url(#clip-20)">
<path fill="none" stroke-width="5" stroke-linecap="round" stroke-linejoin="round" stroke="rgb(0%, 0%, 0%)" stroke-opacity="1" stroke-dasharray="104.967 41.987" stroke-miterlimit="10" d="M 2107.453116 1999.368932 L 2107.453116 0.00336519 " transform="matrix(0.0999262, 0, 0, -0.0999262, 0.000000000000007438, 199.836274)"/>
</g>
<g clip-path="url(#clip-21)">
<path fill="none" stroke-width="5" stroke-linecap="round" stroke-linejoin="round" stroke="rgb(0%, 0%, 0%)" stroke-opacity="1" stroke-dasharray="104.967 41.987" stroke-miterlimit="10" d="M 2029.934993 0.00336519 L 2020.904894 96.676244 " transform="matrix(0.0999262, 0, 0, -0.0999262, 0.000000000000007438, 199.836274)"/>
</g>
<g clip-path="url(#clip-22)">
<path fill="none" stroke-width="104.967" stroke-linecap="round" stroke-linejoin="round" stroke="rgb(0%, 0%, 0%)" stroke-opacity="1" stroke-dasharray="104.967 41.987" stroke-miterlimit="10" d="M 3606.996837 999.686149 L 3606.996837 999.686149 " transform="matrix(0.0999262, 0, 0, -0.0999262, 0.000000000000007438, 199.836274)"/>
</g>
<path fill-rule="nonzero" fill="rgb(0%, 0%, 0%)" fill-opacity="1" d="M 96.96875 101.132812 C 96.96875 103.890625 99.203125 106.128906 101.964844 106.128906 C 104.722656 106.128906 106.960938 103.890625 106.960938 101.132812 C 106.960938 98.375 104.722656 96.136719 101.964844 96.136719 C 99.203125 96.136719 96.96875 98.375 96.96875 101.132812 "/>
<path fill-rule="nonzero" fill="rgb(0%, 0%, 0%)" fill-opacity="1" d="M 354.777344 100.132812 C 354.777344 102.894531 357.011719 105.128906 359.773438 105.128906 C 362.53125 105.128906 364.769531 102.894531 364.769531 100.132812 C 364.769531 97.375 362.53125 95.136719 359.773438 95.136719 C 357.011719 95.136719 354.777344 97.375 354.777344 100.132812 "/>
</svg>
