<?xml version="1.0" encoding="UTF-8"?>
<svg xmlns="http://www.w3.org/2000/svg" xmlns:xlink="http://www.w3.org/1999/xlink" width="56.56" height="161.62" viewBox="0 0 56.56 161.62">
<defs>
<clipPath id="clip-0">
<path clip-rule="nonzero" d="M 0 80 L 56.125 80 L 56.125 81 L 0 81 Z M 0 80 "/>
</clipPath>
<clipPath id="clip-1">
<path clip-rule="nonzero" d="M 1 0.433594 L 2 0.433594 L 2 160.808594 L 1 160.808594 Z M 1 0.433594 "/>
</clipPath>
<clipPath id="clip-2">
<path clip-rule="nonzero" d="M 1 55 L 44 55 L 44 160.808594 L 1 160.808594 Z M 1 55 "/>
</clipPath>
<clipPath id="clip-3">
<path clip-rule="nonzero" d="M 42 0.433594 L 44 0.433594 L 44 5 L 42 5 Z M 42 0.433594 "/>
</clipPath>
<clipPath id="clip-4">
<path clip-rule="nonzero" d="M 54 0.433594 L 56 0.433594 L 56 160.808594 L 54 160.808594 Z M 54 0.433594 "/>
</clipPath>
</defs>
<g clip-path="url(#clip-0)">
<path fill="none" stroke-width="2.5" stroke-linecap="round" stroke-linejoin="round" stroke="rgb(0%, 0%, 0%)" stroke-opacity="1" stroke-miterlimit="10" d="M -0.000000000000005594 808.143125 L 565.61616 808.143125 " transform="matrix(0.0992281, 0, 0, -0.0992281, 0.000000000000000555, 160.80767)"/>
</g>
<g clip-path="url(#clip-1)">
<path fill="none" stroke-width="2.5" stroke-linecap="round" stroke-linejoin="round" stroke="rgb(0%, 0%, 0%)" stroke-opacity="1" stroke-miterlimit="10" d="M 13.463302 0.108792 L 13.463302 1616.177458 " transform="matrix(0.0992281, 0, 0, -0.0992281, 0.000000000000000555, 160.80767)"/>
</g>
<g clip-path="url(#clip-2)">
<path fill="none" stroke-width="5" stroke-linecap="round" stroke-linejoin="round" stroke="rgb(100%, 0%, 0%)" stroke-opacity="1" stroke-miterlimit="10" d="M 436.1795 0.108792 L 422.401266 82.108963 L 392.089153 225.796253 L 360.399217 341.494046 L 325.55997 441.799585 L 261.353402 579.266986 L 228.600574 632.726532 L 194.391189 679.454426 L 163.409847 715.002268 L 131.838009 745.314381 L 81.173477 782.476244 L 60.545494 793.577564 L 42.397592 801.214642 L 35.665941 803.537258 L 29.36732 805.348112 L 24.36779 806.568469 L 20.549251 807.316431 L 17.321208 807.788827 L 16.022117 807.946293 L 14.919858 808.064392 L 14.486828 808.064392 L 14.093164 808.103758 L 13.699501 808.103758 L 13.620768 808.143125 L 13.463302 808.143125 L 14.25063 808.143125 L 14.604927 808.182491 L 15.431621 808.261224 L 16.53388 808.339956 L 19.919389 808.851719 L 24.092225 809.639047 L 34.996713 812.512793 L 50.861364 818.339017 L 69.71786 827.314552 L 93.337689 841.447083 L 143.844756 881.797623 L 206.161736 951.948514 L 270.8407 1054.301104 " transform="matrix(0.0992281, 0, 0, -0.0992281, 0.000000000000000555, 160.80767)"/>
</g>
<path fill="none" stroke-width="5" stroke-linecap="round" stroke-linejoin="round" stroke="rgb(100%, 0%, 0%)" stroke-opacity="1" stroke-miterlimit="10" d="M 270.8407 1054.301104 L 304.89262 1124.491361 L 340.282996 1214.089244 L 372.917726 1317.150429 L 401.300886 1429.974476 L 430.274543 1578.818762 " transform="matrix(0.0992281, 0, 0, -0.0992281, 0.000000000000000555, 160.80767)"/>
<g clip-path="url(#clip-3)">
<path fill="none" stroke-width="5" stroke-linecap="round" stroke-linejoin="round" stroke="rgb(100%, 0%, 0%)" stroke-opacity="1" stroke-miterlimit="10" d="M 430.274543 1578.818762 L 436.022034 1616.177458 " transform="matrix(0.0992281, 0, 0, -0.0992281, 0.000000000000000555, 160.80767)"/>
</g>
<g clip-path="url(#clip-4)">
<path fill="none" stroke-width="5" stroke-linecap="round" stroke-linejoin="round" stroke="rgb(0%, 0%, 0%)" stroke-opacity="1" stroke-dasharray="28.2813 28.2813" stroke-miterlimit="10" d="M 552.152858 0.108792 L 552.152858 1616.177458 " transform="matrix(0.0992281, 0, 0, -0.0992281, 0.000000000000000555, 160.80767)"/>
</g>
<path fill="none" stroke-width="5" stroke-linecap="round" stroke-linejoin="round" stroke="rgb(0%, 0%, 0%)" stroke-opacity="1" stroke-dasharray="28.2813 28.2813" stroke-miterlimit="10" d="M 13.463302 808.143125 L 13.463302 806.056706 L 13.502669 804.127754 L 13.542035 801.923236 L 13.581401 799.876185 L 13.738867 796.175745 L 13.935699 792.19974 L 14.25063 787.790706 L 14.644294 783.145473 L 15.54972 774.7998 L 16.730712 766.217929 L 18.147902 758.226554 L 22.163272 740.196751 L 27.556467 722.166949 L 33.579523 706.026733 L 50.821998 671.305585 L 69.71786 643.394821 L 94.164383 615.877721 L 120.618591 593.084586 L 151.836131 572.771534 L 168.094446 564.425861 L 186.281714 556.670684 L 202.42193 551.041291 L 220.491099 546.081127 L 229.151703 544.191541 L 238.442169 542.45942 L 246.551643 541.239063 L 255.409079 540.17617 L 260.605441 539.703774 L 265.40814 539.349476 L 270.053373 539.073912 L 272.375989 538.995179 L 274.934804 538.87708 L 277.25742 538.837713 L 279.383205 538.798347 L 286.311688 538.798347 L 288.634304 538.837713 L 290.799455 538.916446 L 292.767774 538.955812 L 296.901244 539.152644 L 301.389012 539.428209 L 310.482646 540.215537 L 318.867685 541.199696 L 326.701595 542.380688 L 344.140901 545.844929 L 362.603734 550.883826 L 379.61001 556.788783 " transform="matrix(0.0992281, 0, 0, -0.0992281, 0.000000000000000555, 160.80767)"/>
<path fill="none" stroke-width="5" stroke-linecap="round" stroke-linejoin="round" stroke="rgb(0%, 0%, 0%)" stroke-opacity="1" stroke-dasharray="28.2813 28.2813" stroke-dashoffset="12.8726" stroke-miterlimit="10" d="M 379.61001 556.788783 L 397.679179 564.504594 L 428.857353 581.825801 L 456.964949 602.689983 L 483.655355 628.671794 L 506.960252 658.787076 L 524.832589 689.886517 L 531.957904 705.751168 L 538.335258 722.954276 L 543.256056 739.409424 L 546.79903 754.683579 L 549.633409 771.296192 L 550.735668 780.547292 L 551.129332 784.759494 L 551.483629 789.286628 L 551.719827 793.144533 L 551.837927 795.191585 L 551.956026 797.396103 L 552.034758 799.403788 L 552.074125 801.254008 L 552.113491 803.025495 L 552.152858 804.915081 L 552.152858 811.13497 L 552.113491 813.024556 L 552.074125 815.189707 L 551.995392 817.55169 L 551.79856 821.881991 L 551.562362 826.054828 L 551.208064 830.581962 L 550.420737 838.65207 L 549.161013 848.257467 L 547.704457 856.996803 L 543.53162 875.7352 L 538.374624 893.213874 L 525.029421 925.88797 L 509.007304 954.389229 L 489.324114 981.000903 L 464.011531 1007.415744 L 437.203026 1028.831056 L 405.513089 1047.92375 L 372.878359 1061.977548 L 355.79335 1067.370742 L 346.069854 1069.929557 L 336.779388 1072.015975 L 328.197517 1073.629997 L 318.828318 1075.047187 L 310.246447 1076.070713 L 302.333805 1076.779307 L 297.885404 1077.054872 " transform="matrix(0.0992281, 0, 0, -0.0992281, 0.000000000000000555, 160.80767)"/>
<path fill="none" stroke-width="5" stroke-linecap="round" stroke-linejoin="round" stroke="rgb(0%, 0%, 0%)" stroke-opacity="1" stroke-dasharray="28.2813 28.2813" stroke-dashoffset="9.2728" stroke-miterlimit="10" d="M 297.885404 1077.054872 L 293.751934 1077.251704 L 291.350585 1077.330437 L 289.185434 1077.409169 L 287.965076 1077.409169 L 286.665985 1077.448536 L 284.264636 1077.448536 L 283.083645 1077.487902 L 281.784554 1077.487902 L 280.52483 1077.448536 L 279.422571 1077.448536 L 277.25742 1077.409169 L 275.013537 1077.369803 L 272.572821 1077.29107 L 270.289571 1077.172971 L 265.132575 1076.897407 L 260.526708 1076.543109 L 256.275139 1076.149445 L 246.630376 1075.047187 L 238.20597 1073.748096 L 229.309168 1072.094708 L 214.035013 1068.551734 L 197.461766 1063.59157 L 165.614364 1050.64003 L 133.452031 1032.255931 L 105.18697 1010.604421 L 78.811494 983.992748 L 57.671748 955.963885 L 41.452799 927.659457 L 33.736988 910.613814 L 27.556467 894.079934 L 22.871867 878.727045 L 18.935229 862.193165 L 16.573246 848.926695 L 15.510354 841.328984 L 14.723026 834.203669 L 14.171897 827.629483 L 13.8176 821.645793 L 13.660134 818.339017 L 13.581401 816.56753 L 13.542035 814.71731 L 13.502669 812.906457 L 13.502669 811.292435 L 13.463302 809.639047 L 13.463302 808.143125 " transform="matrix(0.0992281, 0, 0, -0.0992281, 0.000000000000000555, 160.80767)"/>
</svg>
