<?xml version="1.0" encoding="UTF-8"?>
<svg xmlns="http://www.w3.org/2000/svg" xmlns:xlink="http://www.w3.org/1999/xlink" width="252" height="187.5" viewBox="0 0 252 187.5">
<path fill="none" stroke-width="2.65128" stroke-linecap="round" stroke-linejoin="round" stroke="rgb(0%, 0%, 0%)" stroke-opacity="1" stroke-miterlimit="10" d="M 465.504167 576.155 L 212.996667 71.14 " transform="matrix(0.099734, 0, 0, -0.099734, 0.335106, 187.00133)"/>
<path fill="none" stroke-width="2.65128" stroke-linecap="round" stroke-linejoin="round" stroke="rgb(0%, 0%, 0%)" stroke-opacity="1" stroke-miterlimit="10" d="M 465.504167 576.155 L 465.504167 71.14 " transform="matrix(0.099734, 0, 0, -0.099734, 0.335106, 187.00133)"/>
<path fill="none" stroke-width="2.65128" stroke-linecap="round" stroke-linejoin="round" stroke="rgb(0%, 0%, 0%)" stroke-opacity="1" stroke-miterlimit="10" d="M 465.504167 576.155 L 591.738333 323.6475 " transform="matrix(0.099734, 0, 0, -0.099734, 0.335106, 187.00133)"/>
<path fill="none" stroke-width="2.65128" stroke-linecap="round" stroke-linejoin="round" stroke="rgb(0%, 0%, 0%)" stroke-opacity="1" stroke-miterlimit="10" d="M 212.996667 576.155 L 212.996667 71.14 " transform="matrix(0.099734, 0, 0, -0.099734, 0.335106, 187.00133)"/>
<path fill="none" stroke-width="2.65128" stroke-linecap="round" stroke-linejoin="round" stroke="rgb(0%, 0%, 0%)" stroke-opacity="1" stroke-miterlimit="10" d="M 212.996667 576.155 L 465.504167 71.14 " transform="matrix(0.099734, 0, 0, -0.099734, 0.335106, 187.00133)"/>
<path fill="none" stroke-width="2.65128" stroke-linecap="round" stroke-linejoin="round" stroke="rgb(0%, 0%, 0%)" stroke-opacity="1" stroke-miterlimit="10" d="M 212.996667 576.155 L 591.738333 323.6475 " transform="matrix(0.099734, 0, 0, -0.099734, 0.335106, 187.00133)"/>
<path fill="none" stroke-width="2.65128" stroke-linecap="round" stroke-linejoin="round" stroke="rgb(0%, 0%, 0%)" stroke-opacity="1" stroke-miterlimit="10" d="M 86.723333 323.6475 L 465.504167 71.14 " transform="matrix(0.099734, 0, 0, -0.099734, 0.335106, 187.00133)"/>
<path fill="none" stroke-width="2.65128" stroke-linecap="round" stroke-linejoin="round" stroke="rgb(0%, 0%, 0%)" stroke-opacity="1" stroke-miterlimit="10" d="M 212.996667 71.14 L 591.738333 323.6475 " transform="matrix(0.099734, 0, 0, -0.099734, 0.335106, 187.00133)"/>
<path fill="none" stroke-width="53.0257" stroke-linecap="round" stroke-linejoin="round" stroke="rgb(100%, 0%, 0%)" stroke-opacity="1" stroke-miterlimit="10" d="M 465.504167 576.155 L 465.504167 576.155 " transform="matrix(0.099734, 0, 0, -0.099734, 0.335106, 187.00133)"/>
<path fill="none" stroke-width="53.0257" stroke-linecap="round" stroke-linejoin="round" stroke="rgb(100%, 0%, 0%)" stroke-opacity="1" stroke-miterlimit="10" d="M 212.996667 576.155 L 212.996667 576.155 " transform="matrix(0.099734, 0, 0, -0.099734, 0.335106, 187.00133)"/>
<path fill="none" stroke-width="53.0257" stroke-linecap="round" stroke-linejoin="round" stroke="rgb(100%, 0%, 0%)" stroke-opacity="1" stroke-miterlimit="10" d="M 86.723333 323.6475 L 86.723333 323.6475 " transform="matrix(0.099734, 0, 0, -0.099734, 0.335106, 187.00133)"/>
<path fill="none" stroke-width="53.0257" stroke-linecap="round" stroke-linejoin="round" stroke="rgb(100%, 0%, 0%)" stroke-opacity="1" stroke-miterlimit="10" d="M 212.996667 71.14 L 212.996667 71.14 " transform="matrix(0.099734, 0, 0, -0.099734, 0.335106, 187.00133)"/>
<path fill="none" stroke-width="53.0257" stroke-linecap="round" stroke-linejoin="round" stroke="rgb(100%, 0%, 0%)" stroke-opacity="1" stroke-miterlimit="10" d="M 465.504167 71.14 L 465.504167 71.14 " transform="matrix(0.099734, 0, 0, -0.099734, 0.335106, 187.00133)"/>
<path fill="none" stroke-width="53.0257" stroke-linecap="round" stroke-linejoin="round" stroke="rgb(100%, 0%, 0%)" stroke-opacity="1" stroke-miterlimit="10" d="M 591.738333 323.6475 L 591.738333 323.6475 " transform="matrix(0.099734, 0, 0, -0.099734, 0.335106, 187.00133)"/>
<path fill="none" stroke-width="2.65129" stroke-linecap="round" stroke-linejoin="round" stroke="rgb(0%, 0%, 0%)" stroke-opacity="1" stroke-miterlimit="10" d="M 1079.324167 576.155 L 700.5825 323.6475 " transform="matrix(0.099734, 0, 0, -0.099734, 0.335106, 187.00133)"/>
<path fill="none" stroke-width="2.65129" stroke-linecap="round" stroke-linejoin="round" stroke="rgb(0%, 0%, 0%)" stroke-opacity="1" stroke-miterlimit="10" d="M 1079.324167 576.155 L 826.816667 71.14 " transform="matrix(0.099734, 0, 0, -0.099734, 0.335106, 187.00133)"/>
<path fill="none" stroke-width="2.65129" stroke-linecap="round" stroke-linejoin="round" stroke="rgb(0%, 0%, 0%)" stroke-opacity="1" stroke-miterlimit="10" d="M 1079.324167 576.155 L 1079.324167 71.14 " transform="matrix(0.099734, 0, 0, -0.099734, 0.335106, 187.00133)"/>
<path fill="none" stroke-width="2.65129" stroke-linecap="round" stroke-linejoin="round" stroke="rgb(0%, 0%, 0%)" stroke-opacity="1" stroke-miterlimit="10" d="M 1079.324167 576.155 L 1205.5975 323.6475 " transform="matrix(0.099734, 0, 0, -0.099734, 0.335106, 187.00133)"/>
<path fill="none" stroke-width="2.65129" stroke-linecap="round" stroke-linejoin="round" stroke="rgb(0%, 0%, 0%)" stroke-opacity="1" stroke-miterlimit="10" d="M 826.816667 576.155 L 1205.5975 323.6475 " transform="matrix(0.099734, 0, 0, -0.099734, 0.335106, 187.00133)"/>
<path fill="none" stroke-width="2.65129" stroke-linecap="round" stroke-linejoin="round" stroke="rgb(0%, 0%, 0%)" stroke-opacity="1" stroke-miterlimit="10" d="M 700.5825 323.6475 L 826.816667 71.14 " transform="matrix(0.099734, 0, 0, -0.099734, 0.335106, 187.00133)"/>
<path fill="none" stroke-width="2.65129" stroke-linecap="round" stroke-linejoin="round" stroke="rgb(0%, 0%, 0%)" stroke-opacity="1" stroke-miterlimit="10" d="M 700.5825 323.6475 L 1079.324167 71.14 " transform="matrix(0.099734, 0, 0, -0.099734, 0.335106, 187.00133)"/>
<path fill="none" stroke-width="2.65129" stroke-linecap="round" stroke-linejoin="round" stroke="rgb(0%, 0%, 0%)" stroke-opacity="1" stroke-miterlimit="10" d="M 700.5825 323.6475 L 1205.5975 323.6475 " transform="matrix(0.099734, 0, 0, -0.099734, 0.335106, 187.00133)"/>
<path fill="none" stroke-width="2.65129" stroke-linecap="round" stroke-linejoin="round" stroke="rgb(0%, 0%, 0%)" stroke-opacity="1" stroke-miterlimit="10" d="M 826.816667 71.14 L 1079.324167 71.14 " transform="matrix(0.099734, 0, 0, -0.099734, 0.335106, 187.00133)"/>
<path fill="none" stroke-width="2.65129" stroke-linecap="round" stroke-linejoin="round" stroke="rgb(0%, 0%, 0%)" stroke-opacity="1" stroke-miterlimit="10" d="M 826.816667 71.14 L 1205.5975 323.6475 " transform="matrix(0.099734, 0, 0, -0.099734, 0.335106, 187.00133)"/>
<path fill="none" stroke-width="53.0258" stroke-linecap="round" stroke-linejoin="round" stroke="rgb(100%, 0%, 0%)" stroke-opacity="1" stroke-miterlimit="10" d="M 1079.324167 576.155 L 1079.324167 576.155 " transform="matrix(0.099734, 0, 0, -0.099734, 0.335106, 187.00133)"/>
<path fill="none" stroke-width="53.0258" stroke-linecap="round" stroke-linejoin="round" stroke="rgb(100%, 0%, 0%)" stroke-opacity="1" stroke-miterlimit="10" d="M 826.816667 576.155 L 826.816667 576.155 " transform="matrix(0.099734, 0, 0, -0.099734, 0.335106, 187.00133)"/>
<path fill="none" stroke-width="53.0258" stroke-linecap="round" stroke-linejoin="round" stroke="rgb(100%, 0%, 0%)" stroke-opacity="1" stroke-miterlimit="10" d="M 700.5825 323.6475 L 700.5825 323.6475 " transform="matrix(0.099734, 0, 0, -0.099734, 0.335106, 187.00133)"/>
<path fill="none" stroke-width="53.0258" stroke-linecap="round" stroke-linejoin="round" stroke="rgb(100%, 0%, 0%)" stroke-opacity="1" stroke-miterlimit="10" d="M 826.816667 71.14 L 826.816667 71.14 " transform="matrix(0.099734, 0, 0, -0.099734, 0.335106, 187.00133)"/>
<path fill="none" stroke-width="53.0258" stroke-linecap="round" stroke-linejoin="round" stroke="rgb(100%, 0%, 0%)" stroke-opacity="1" stroke-miterlimit="10" d="M 1079.324167 71.14 L 1079.324167 71.14 " transform="matrix(0.099734, 0, 0, -0.099734, 0.335106, 187.00133)"/>
<path fill="none" stroke-width="53.0258" stroke-linecap="round" stroke-linejoin="round" stroke="rgb(100%, 0%, 0%)" stroke-opacity="1" stroke-miterlimit="10" d="M 1205.5975 323.6475 L 1205.5975 323.6475 " transform="matrix(0.099734, 0, 0, -0.099734, 0.335106, 187.00133)"/>
<path fill="none" stroke-width="2.65129" stroke-linecap="round" stroke-linejoin="round" stroke="rgb(0%, 0%, 0%)" stroke-opacity="1" stroke-miterlimit="10" d="M 1693.183333 576.155 L 1314.4025 323.6475 " transform="matrix(0.099734, 0, 0, -0.099734, 0.335106, 187.00133)"/>
<path fill="none" stroke-width="2.65129" stroke-linecap="round" stroke-linejoin="round" stroke="rgb(0%, 0%, 0%)" stroke-opacity="1" stroke-miterlimit="10" d="M 1693.183333 576.155 L 1440.675833 71.14 " transform="matrix(0.099734, 0, 0, -0.099734, 0.335106, 187.00133)"/>
<path fill="none" stroke-width="2.65129" stroke-linecap="round" stroke-linejoin="round" stroke="rgb(0%, 0%, 0%)" stroke-opacity="1" stroke-miterlimit="10" d="M 1693.183333 576.155 L 1693.183333 71.14 " transform="matrix(0.099734, 0, 0, -0.099734, 0.335106, 187.00133)"/>
<path fill="none" stroke-width="2.65129" stroke-linecap="round" stroke-linejoin="round" stroke="rgb(0%, 0%, 0%)" stroke-opacity="1" stroke-miterlimit="10" d="M 1693.183333 576.155 L 1819.4175 323.6475 " transform="matrix(0.099734, 0, 0, -0.099734, 0.335106, 187.00133)"/>
<path fill="none" stroke-width="2.65129" stroke-linecap="round" stroke-linejoin="round" stroke="rgb(0%, 0%, 0%)" stroke-opacity="1" stroke-miterlimit="10" d="M 1440.675833 576.155 L 1314.4025 323.6475 " transform="matrix(0.099734, 0, 0, -0.099734, 0.335106, 187.00133)"/>
<path fill="none" stroke-width="2.65129" stroke-linecap="round" stroke-linejoin="round" stroke="rgb(0%, 0%, 0%)" stroke-opacity="1" stroke-miterlimit="10" d="M 1440.675833 576.155 L 1440.675833 71.14 " transform="matrix(0.099734, 0, 0, -0.099734, 0.335106, 187.00133)"/>
<path fill="none" stroke-width="2.65129" stroke-linecap="round" stroke-linejoin="round" stroke="rgb(0%, 0%, 0%)" stroke-opacity="1" stroke-miterlimit="10" d="M 1440.675833 576.155 L 1693.183333 71.14 " transform="matrix(0.099734, 0, 0, -0.099734, 0.335106, 187.00133)"/>
<path fill="none" stroke-width="2.65129" stroke-linecap="round" stroke-linejoin="round" stroke="rgb(0%, 0%, 0%)" stroke-opacity="1" stroke-miterlimit="10" d="M 1440.675833 576.155 L 1819.4175 323.6475 " transform="matrix(0.099734, 0, 0, -0.099734, 0.335106, 187.00133)"/>
<path fill="none" stroke-width="2.65129" stroke-linecap="round" stroke-linejoin="round" stroke="rgb(0%, 0%, 0%)" stroke-opacity="1" stroke-miterlimit="10" d="M 1314.4025 323.6475 L 1693.183333 71.14 " transform="matrix(0.099734, 0, 0, -0.099734, 0.335106, 187.00133)"/>
<path fill="none" stroke-width="2.65129" stroke-linecap="round" stroke-linejoin="round" stroke="rgb(0%, 0%, 0%)" stroke-opacity="1" stroke-miterlimit="10" d="M 1314.4025 323.6475 L 1819.4175 323.6475 " transform="matrix(0.099734, 0, 0, -0.099734, 0.335106, 187.00133)"/>
<path fill="none" stroke-width="2.65129" stroke-linecap="round" stroke-linejoin="round" stroke="rgb(0%, 0%, 0%)" stroke-opacity="1" stroke-miterlimit="10" d="M 1693.183333 71.14 L 1819.4175 323.6475 " transform="matrix(0.099734, 0, 0, -0.099734, 0.335106, 187.00133)"/>
<path fill="none" stroke-width="53.0258" stroke-linecap="round" stroke-linejoin="round" stroke="rgb(100%, 0%, 0%)" stroke-opacity="1" stroke-miterlimit="10" d="M 1693.183333 576.155 L 1693.183333 576.155 " transform="matrix(0.099734, 0, 0, -0.099734, 0.335106, 187.00133)"/>
<path fill="none" stroke-width="53.0258" stroke-linecap="round" stroke-linejoin="round" stroke="rgb(100%, 0%, 0%)" stroke-opacity="1" stroke-miterlimit="10" d="M 1440.675833 576.155 L 1440.675833 576.155 " transform="matrix(0.099734, 0, 0, -0.099734, 0.335106, 187.00133)"/>
<path fill="none" stroke-width="53.0258" stroke-linecap="round" stroke-linejoin="round" stroke="rgb(100%, 0%, 0%)" stroke-opacity="1" stroke-miterlimit="10" d="M 1314.4025 323.6475 L 1314.4025 323.6475 " transform="matrix(0.099734, 0, 0, -0.099734, 0.335106, 187.00133)"/>
<path fill="none" stroke-width="53.0258" stroke-linecap="round" stroke-linejoin="round" stroke="rgb(100%, 0%, 0%)" stroke-opacity="1" stroke-miterlimit="10" d="M 1440.675833 71.14 L 1440.675833 71.14 " transform="matrix(0.099734, 0, 0, -0.099734, 0.335106, 187.00133)"/>
<path fill="none" stroke-width="53.0258" stroke-linecap="round" stroke-linejoin="round" stroke="rgb(100%, 0%, 0%)" stroke-opacity="1" stroke-miterlimit="10" d="M 1693.183333 71.14 L 1693.183333 71.14 " transform="matrix(0.099734, 0, 0, -0.099734, 0.335106, 187.00133)"/>
<path fill="none" stroke-width="53.0258" stroke-linecap="round" stroke-linejoin="round" stroke="rgb(100%, 0%, 0%)" stroke-opacity="1" stroke-miterlimit="10" d="M 1819.4175 323.6475 L 1819.4175 323.6475 " transform="matrix(0.099734, 0, 0, -0.099734, 0.335106, 187.00133)"/>
<path fill="none" stroke-width="2.65128" stroke-linecap="round" stroke-linejoin="round" stroke="rgb(0%, 0%, 0%)" stroke-opacity="1" stroke-miterlimit="10" d="M 398.8425 1190.014167 L 86.723333 781.4275 " transform="matrix(0.099734, 0, 0, -0.099734, 0.335106, 187.00133)"/>
<path fill="none" stroke-width="2.65128" stroke-linecap="round" stroke-linejoin="round" stroke="rgb(0%, 0%, 0%)" stroke-opacity="1" stroke-miterlimit="10" d="M 398.8425 1190.014167 L 398.8425 684.999167 " transform="matrix(0.099734, 0, 0, -0.099734, 0.335106, 187.00133)"/>
<path fill="none" stroke-width="2.65128" stroke-linecap="round" stroke-linejoin="round" stroke="rgb(0%, 0%, 0%)" stroke-opacity="1" stroke-miterlimit="10" d="M 86.723333 1093.546667 L 398.8425 684.999167 " transform="matrix(0.099734, 0, 0, -0.099734, 0.335106, 187.00133)"/>
<path fill="none" stroke-width="2.65128" stroke-linecap="round" stroke-linejoin="round" stroke="rgb(0%, 0%, 0%)" stroke-opacity="1" stroke-miterlimit="10" d="M 86.723333 1093.546667 L 591.738333 937.506667 " transform="matrix(0.099734, 0, 0, -0.099734, 0.335106, 187.00133)"/>
<path fill="none" stroke-width="2.65128" stroke-linecap="round" stroke-linejoin="round" stroke="rgb(0%, 0%, 0%)" stroke-opacity="1" stroke-miterlimit="10" d="M 86.723333 781.4275 L 591.738333 937.506667 " transform="matrix(0.099734, 0, 0, -0.099734, 0.335106, 187.00133)"/>
<path fill="none" stroke-width="53.0257" stroke-linecap="round" stroke-linejoin="round" stroke="rgb(100%, 0%, 0%)" stroke-opacity="1" stroke-miterlimit="10" d="M 398.8425 1190.014167 L 398.8425 1190.014167 " transform="matrix(0.099734, 0, 0, -0.099734, 0.335106, 187.00133)"/>
<path fill="none" stroke-width="53.0257" stroke-linecap="round" stroke-linejoin="round" stroke="rgb(100%, 0%, 0%)" stroke-opacity="1" stroke-miterlimit="10" d="M 86.723333 1093.546667 L 86.723333 1093.546667 " transform="matrix(0.099734, 0, 0, -0.099734, 0.335106, 187.00133)"/>
<path fill="none" stroke-width="53.0257" stroke-linecap="round" stroke-linejoin="round" stroke="rgb(100%, 0%, 0%)" stroke-opacity="1" stroke-miterlimit="10" d="M 86.723333 781.4275 L 86.723333 781.4275 " transform="matrix(0.099734, 0, 0, -0.099734, 0.335106, 187.00133)"/>
<path fill="none" stroke-width="53.0257" stroke-linecap="round" stroke-linejoin="round" stroke="rgb(100%, 0%, 0%)" stroke-opacity="1" stroke-miterlimit="10" d="M 398.8425 684.999167 L 398.8425 684.999167 " transform="matrix(0.099734, 0, 0, -0.099734, 0.335106, 187.00133)"/>
<path fill="none" stroke-width="53.0257" stroke-linecap="round" stroke-linejoin="round" stroke="rgb(100%, 0%, 0%)" stroke-opacity="1" stroke-miterlimit="10" d="M 591.738333 937.506667 L 591.738333 937.506667 " transform="matrix(0.099734, 0, 0, -0.099734, 0.335106, 187.00133)"/>
<path fill="none" stroke-width="2.65129" stroke-linecap="round" stroke-linejoin="round" stroke="rgb(0%, 0%, 0%)" stroke-opacity="1" stroke-miterlimit="10" d="M 1012.701667 1190.014167 L 700.5825 781.4275 " transform="matrix(0.099734, 0, 0, -0.099734, 0.335106, 187.00133)"/>
<path fill="none" stroke-width="2.65129" stroke-linecap="round" stroke-linejoin="round" stroke="rgb(0%, 0%, 0%)" stroke-opacity="1" stroke-miterlimit="10" d="M 1012.701667 1190.014167 L 1012.701667 684.999167 " transform="matrix(0.099734, 0, 0, -0.099734, 0.335106, 187.00133)"/>
<path fill="none" stroke-width="2.65129" stroke-linecap="round" stroke-linejoin="round" stroke="rgb(0%, 0%, 0%)" stroke-opacity="1" stroke-miterlimit="10" d="M 1012.701667 1190.014167 L 1205.5975 937.506667 " transform="matrix(0.099734, 0, 0, -0.099734, 0.335106, 187.00133)"/>
<path fill="none" stroke-width="2.65129" stroke-linecap="round" stroke-linejoin="round" stroke="rgb(0%, 0%, 0%)" stroke-opacity="1" stroke-miterlimit="10" d="M 700.5825 1093.546667 L 700.5825 781.4275 " transform="matrix(0.099734, 0, 0, -0.099734, 0.335106, 187.00133)"/>
<path fill="none" stroke-width="2.65129" stroke-linecap="round" stroke-linejoin="round" stroke="rgb(0%, 0%, 0%)" stroke-opacity="1" stroke-miterlimit="10" d="M 700.5825 1093.546667 L 1012.701667 684.999167 " transform="matrix(0.099734, 0, 0, -0.099734, 0.335106, 187.00133)"/>
<path fill="none" stroke-width="2.65129" stroke-linecap="round" stroke-linejoin="round" stroke="rgb(0%, 0%, 0%)" stroke-opacity="1" stroke-miterlimit="10" d="M 700.5825 1093.546667 L 1205.5975 937.506667 " transform="matrix(0.099734, 0, 0, -0.099734, 0.335106, 187.00133)"/>
<path fill="none" stroke-width="2.65129" stroke-linecap="round" stroke-linejoin="round" stroke="rgb(0%, 0%, 0%)" stroke-opacity="1" stroke-miterlimit="10" d="M 700.5825 781.4275 L 1205.5975 937.506667 " transform="matrix(0.099734, 0, 0, -0.099734, 0.335106, 187.00133)"/>
<path fill="none" stroke-width="53.0258" stroke-linecap="round" stroke-linejoin="round" stroke="rgb(100%, 0%, 0%)" stroke-opacity="1" stroke-miterlimit="10" d="M 1012.701667 1190.014167 L 1012.701667 1190.014167 " transform="matrix(0.099734, 0, 0, -0.099734, 0.335106, 187.00133)"/>
<path fill="none" stroke-width="53.0258" stroke-linecap="round" stroke-linejoin="round" stroke="rgb(100%, 0%, 0%)" stroke-opacity="1" stroke-miterlimit="10" d="M 700.5825 1093.546667 L 700.5825 1093.546667 " transform="matrix(0.099734, 0, 0, -0.099734, 0.335106, 187.00133)"/>
<path fill="none" stroke-width="53.0258" stroke-linecap="round" stroke-linejoin="round" stroke="rgb(100%, 0%, 0%)" stroke-opacity="1" stroke-miterlimit="10" d="M 700.5825 781.4275 L 700.5825 781.4275 " transform="matrix(0.099734, 0, 0, -0.099734, 0.335106, 187.00133)"/>
<path fill="none" stroke-width="53.0258" stroke-linecap="round" stroke-linejoin="round" stroke="rgb(100%, 0%, 0%)" stroke-opacity="1" stroke-miterlimit="10" d="M 1012.701667 684.999167 L 1012.701667 684.999167 " transform="matrix(0.099734, 0, 0, -0.099734, 0.335106, 187.00133)"/>
<path fill="none" stroke-width="53.0258" stroke-linecap="round" stroke-linejoin="round" stroke="rgb(100%, 0%, 0%)" stroke-opacity="1" stroke-miterlimit="10" d="M 1205.5975 937.506667 L 1205.5975 937.506667 " transform="matrix(0.099734, 0, 0, -0.099734, 0.335106, 187.00133)"/>
<path fill="none" stroke-width="2.65129" stroke-linecap="round" stroke-linejoin="round" stroke="rgb(0%, 0%, 0%)" stroke-opacity="1" stroke-miterlimit="10" d="M 1626.521667 1190.014167 L 1314.4025 781.4275 " transform="matrix(0.099734, 0, 0, -0.099734, 0.335106, 187.00133)"/>
<path fill="none" stroke-width="2.65129" stroke-linecap="round" stroke-linejoin="round" stroke="rgb(0%, 0%, 0%)" stroke-opacity="1" stroke-miterlimit="10" d="M 1626.521667 1190.014167 L 1626.521667 684.999167 " transform="matrix(0.099734, 0, 0, -0.099734, 0.335106, 187.00133)"/>
<path fill="none" stroke-width="2.65129" stroke-linecap="round" stroke-linejoin="round" stroke="rgb(0%, 0%, 0%)" stroke-opacity="1" stroke-miterlimit="10" d="M 1626.521667 1190.014167 L 1819.4175 937.506667 " transform="matrix(0.099734, 0, 0, -0.099734, 0.335106, 187.00133)"/>
<path fill="none" stroke-width="2.65129" stroke-linecap="round" stroke-linejoin="round" stroke="rgb(0%, 0%, 0%)" stroke-opacity="1" stroke-miterlimit="10" d="M 1314.4025 1093.546667 L 1314.4025 781.4275 " transform="matrix(0.099734, 0, 0, -0.099734, 0.335106, 187.00133)"/>
<path fill="none" stroke-width="2.65129" stroke-linecap="round" stroke-linejoin="round" stroke="rgb(0%, 0%, 0%)" stroke-opacity="1" stroke-miterlimit="10" d="M 1314.4025 1093.546667 L 1626.521667 684.999167 " transform="matrix(0.099734, 0, 0, -0.099734, 0.335106, 187.00133)"/>
<path fill="none" stroke-width="2.65129" stroke-linecap="round" stroke-linejoin="round" stroke="rgb(0%, 0%, 0%)" stroke-opacity="1" stroke-miterlimit="10" d="M 1314.4025 1093.546667 L 1819.4175 937.506667 " transform="matrix(0.099734, 0, 0, -0.099734, 0.335106, 187.00133)"/>
<path fill="none" stroke-width="2.65129" stroke-linecap="round" stroke-linejoin="round" stroke="rgb(0%, 0%, 0%)" stroke-opacity="1" stroke-miterlimit="10" d="M 1314.4025 781.4275 L 1626.521667 684.999167 " transform="matrix(0.099734, 0, 0, -0.099734, 0.335106, 187.00133)"/>
<path fill="none" stroke-width="2.65129" stroke-linecap="round" stroke-linejoin="round" stroke="rgb(0%, 0%, 0%)" stroke-opacity="1" stroke-miterlimit="10" d="M 1314.4025 781.4275 L 1819.4175 937.506667 " transform="matrix(0.099734, 0, 0, -0.099734, 0.335106, 187.00133)"/>
<path fill="none" stroke-width="2.65129" stroke-linecap="round" stroke-linejoin="round" stroke="rgb(0%, 0%, 0%)" stroke-opacity="1" stroke-miterlimit="10" d="M 1626.521667 684.999167 L 1819.4175 937.506667 " transform="matrix(0.099734, 0, 0, -0.099734, 0.335106, 187.00133)"/>
<path fill="none" stroke-width="53.0258" stroke-linecap="round" stroke-linejoin="round" stroke="rgb(100%, 0%, 0%)" stroke-opacity="1" stroke-miterlimit="10" d="M 1626.521667 1190.014167 L 1626.521667 1190.014167 " transform="matrix(0.099734, 0, 0, -0.099734, 0.335106, 187.00133)"/>
<path fill="none" stroke-width="53.0258" stroke-linecap="round" stroke-linejoin="round" stroke="rgb(100%, 0%, 0%)" stroke-opacity="1" stroke-miterlimit="10" d="M 1314.4025 1093.546667 L 1314.4025 1093.546667 " transform="matrix(0.099734, 0, 0, -0.099734, 0.335106, 187.00133)"/>
<path fill="none" stroke-width="53.0258" stroke-linecap="round" stroke-linejoin="round" stroke="rgb(100%, 0%, 0%)" stroke-opacity="1" stroke-miterlimit="10" d="M 1314.4025 781.4275 L 1314.4025 781.4275 " transform="matrix(0.099734, 0, 0, -0.099734, 0.335106, 187.00133)"/>
<path fill="none" stroke-width="53.0258" stroke-linecap="round" stroke-linejoin="round" stroke="rgb(100%, 0%, 0%)" stroke-opacity="1" stroke-miterlimit="10" d="M 1626.521667 684.999167 L 1626.521667 684.999167 " transform="matrix(0.099734, 0, 0, -0.099734, 0.335106, 187.00133)"/>
<path fill="none" stroke-width="53.0258" stroke-linecap="round" stroke-linejoin="round" stroke="rgb(100%, 0%, 0%)" stroke-opacity="1" stroke-miterlimit="10" d="M 1819.4175 937.506667 L 1819.4175 937.506667 " transform="matrix(0.099734, 0, 0, -0.099734, 0.335106, 187.00133)"/>
<path fill="none" stroke-width="2.65128" stroke-linecap="round" stroke-linejoin="round" stroke="rgb(0%, 0%, 0%)" stroke-opacity="1" stroke-miterlimit="10" d="M 2240.341667 1190.014167 L 1928.261667 1093.546667 " transform="matrix(0.099734, 0, 0, -0.099734, 0.335106, 187.00133)"/>
<path fill="none" stroke-width="2.65128" stroke-linecap="round" stroke-linejoin="round" stroke="rgb(0%, 0%, 0%)" stroke-opacity="1" stroke-miterlimit="10" d="M 2240.341667 1190.014167 L 1928.261667 781.4275 " transform="matrix(0.099734, 0, 0, -0.099734, 0.335106, 187.00133)"/>
<path fill="none" stroke-width="2.65128" stroke-linecap="round" stroke-linejoin="round" stroke="rgb(0%, 0%, 0%)" stroke-opacity="1" stroke-miterlimit="10" d="M 2240.341667 1190.014167 L 2240.341667 684.999167 " transform="matrix(0.099734, 0, 0, -0.099734, 0.335106, 187.00133)"/>
<path fill="none" stroke-width="2.65128" stroke-linecap="round" stroke-linejoin="round" stroke="rgb(0%, 0%, 0%)" stroke-opacity="1" stroke-miterlimit="10" d="M 2240.341667 1190.014167 L 2433.276667 937.506667 " transform="matrix(0.099734, 0, 0, -0.099734, 0.335106, 187.00133)"/>
<path fill="none" stroke-width="2.65128" stroke-linecap="round" stroke-linejoin="round" stroke="rgb(0%, 0%, 0%)" stroke-opacity="1" stroke-miterlimit="10" d="M 1928.261667 1093.546667 L 1928.261667 781.4275 " transform="matrix(0.099734, 0, 0, -0.099734, 0.335106, 187.00133)"/>
<path fill="none" stroke-width="2.65128" stroke-linecap="round" stroke-linejoin="round" stroke="rgb(0%, 0%, 0%)" stroke-opacity="1" stroke-miterlimit="10" d="M 1928.261667 1093.546667 L 2240.341667 684.999167 " transform="matrix(0.099734, 0, 0, -0.099734, 0.335106, 187.00133)"/>
<path fill="none" stroke-width="2.65128" stroke-linecap="round" stroke-linejoin="round" stroke="rgb(0%, 0%, 0%)" stroke-opacity="1" stroke-miterlimit="10" d="M 1928.261667 1093.546667 L 2433.276667 937.506667 " transform="matrix(0.099734, 0, 0, -0.099734, 0.335106, 187.00133)"/>
<path fill="none" stroke-width="2.65128" stroke-linecap="round" stroke-linejoin="round" stroke="rgb(0%, 0%, 0%)" stroke-opacity="1" stroke-miterlimit="10" d="M 1928.261667 781.4275 L 2240.341667 684.999167 " transform="matrix(0.099734, 0, 0, -0.099734, 0.335106, 187.00133)"/>
<path fill="none" stroke-width="2.65128" stroke-linecap="round" stroke-linejoin="round" stroke="rgb(0%, 0%, 0%)" stroke-opacity="1" stroke-miterlimit="10" d="M 1928.261667 781.4275 L 2433.276667 937.506667 " transform="matrix(0.099734, 0, 0, -0.099734, 0.335106, 187.00133)"/>
<path fill="none" stroke-width="2.65128" stroke-linecap="round" stroke-linejoin="round" stroke="rgb(0%, 0%, 0%)" stroke-opacity="1" stroke-miterlimit="10" d="M 2240.341667 684.999167 L 2433.276667 937.506667 " transform="matrix(0.099734, 0, 0, -0.099734, 0.335106, 187.00133)"/>
<path fill="none" stroke-width="53.0256" stroke-linecap="round" stroke-linejoin="round" stroke="rgb(100%, 0%, 0%)" stroke-opacity="1" stroke-miterlimit="10" d="M 2240.341667 1190.014167 L 2240.341667 1190.014167 " transform="matrix(0.099734, 0, 0, -0.099734, 0.335106, 187.00133)"/>
<path fill="none" stroke-width="53.0256" stroke-linecap="round" stroke-linejoin="round" stroke="rgb(100%, 0%, 0%)" stroke-opacity="1" stroke-miterlimit="10" d="M 1928.261667 1093.546667 L 1928.261667 1093.546667 " transform="matrix(0.099734, 0, 0, -0.099734, 0.335106, 187.00133)"/>
<path fill="none" stroke-width="53.0256" stroke-linecap="round" stroke-linejoin="round" stroke="rgb(100%, 0%, 0%)" stroke-opacity="1" stroke-miterlimit="10" d="M 1928.261667 781.4275 L 1928.261667 781.4275 " transform="matrix(0.099734, 0, 0, -0.099734, 0.335106, 187.00133)"/>
<path fill="none" stroke-width="53.0256" stroke-linecap="round" stroke-linejoin="round" stroke="rgb(100%, 0%, 0%)" stroke-opacity="1" stroke-miterlimit="10" d="M 2240.341667 684.999167 L 2240.341667 684.999167 " transform="matrix(0.099734, 0, 0, -0.099734, 0.335106, 187.00133)"/>
<path fill="none" stroke-width="53.0256" stroke-linecap="round" stroke-linejoin="round" stroke="rgb(100%, 0%, 0%)" stroke-opacity="1" stroke-miterlimit="10" d="M 2433.276667 937.506667 L 2433.276667 937.506667 " transform="matrix(0.099734, 0, 0, -0.099734, 0.335106, 187.00133)"/>
<path fill="none" stroke-width="2.65128" stroke-linecap="round" stroke-linejoin="round" stroke="rgb(0%, 0%, 0%)" stroke-opacity="1" stroke-miterlimit="10" d="M 86.723333 1803.834167 L 86.723333 1298.819167 " transform="matrix(0.099734, 0, 0, -0.099734, 0.335106, 187.00133)"/>
<path fill="none" stroke-width="2.65128" stroke-linecap="round" stroke-linejoin="round" stroke="rgb(0%, 0%, 0%)" stroke-opacity="1" stroke-miterlimit="10" d="M 86.723333 1803.834167 L 591.738333 1551.326667 " transform="matrix(0.099734, 0, 0, -0.099734, 0.335106, 187.00133)"/>
<path fill="none" stroke-width="2.65128" stroke-linecap="round" stroke-linejoin="round" stroke="rgb(0%, 0%, 0%)" stroke-opacity="1" stroke-miterlimit="10" d="M 86.723333 1298.819167 L 591.738333 1551.326667 " transform="matrix(0.099734, 0, 0, -0.099734, 0.335106, 187.00133)"/>
<path fill="none" stroke-width="53.0257" stroke-linecap="round" stroke-linejoin="round" stroke="rgb(100%, 0%, 0%)" stroke-opacity="1" stroke-miterlimit="10" d="M 86.723333 1803.834167 L 86.723333 1803.834167 " transform="matrix(0.099734, 0, 0, -0.099734, 0.335106, 187.00133)"/>
<path fill="none" stroke-width="53.0257" stroke-linecap="round" stroke-linejoin="round" stroke="rgb(100%, 0%, 0%)" stroke-opacity="1" stroke-miterlimit="10" d="M 86.723333 1298.819167 L 86.723333 1298.819167 " transform="matrix(0.099734, 0, 0, -0.099734, 0.335106, 187.00133)"/>
<path fill="none" stroke-width="53.0257" stroke-linecap="round" stroke-linejoin="round" stroke="rgb(100%, 0%, 0%)" stroke-opacity="1" stroke-miterlimit="10" d="M 591.738333 1551.326667 L 591.738333 1551.326667 " transform="matrix(0.099734, 0, 0, -0.099734, 0.335106, 187.00133)"/>
</svg>
