<?xml version="1.0" encoding="UTF-8"?>
<svg xmlns="http://www.w3.org/2000/svg" xmlns:xlink="http://www.w3.org/1999/xlink" width="230.38" height="159.5" viewBox="0 0 230.38 159.5">
<defs>
<clipPath id="clip-0">
<path clip-rule="nonzero" d="M 0.0507812 141 L 229.710938 141 L 229.710938 142 L 0.0507812 142 Z M 0.0507812 141 "/>
</clipPath>
<clipPath id="clip-1">
<path clip-rule="nonzero" d="M 52 0 L 54 0 L 54 159 L 52 159 Z M 52 0 "/>
</clipPath>
<clipPath id="clip-2">
<path clip-rule="nonzero" d="M 14 13 L 229.710938 13 L 229.710938 140 L 14 140 Z M 14 13 "/>
</clipPath>
</defs>
<g clip-path="url(#clip-0)">
<path fill="none" stroke-width="2.5" stroke-linecap="round" stroke-linejoin="round" stroke="rgb(0%, 0%, 0%)" stroke-opacity="1" stroke-miterlimit="10" d="M -0.0015674 177.249216 L 2303.760188 177.249216 " transform="matrix(0.0996875, 0, 0, -0.0996875, 0.0509375, 159.001563)"/>
</g>
<g clip-path="url(#clip-1)">
<path fill="none" stroke-width="2.5" stroke-linecap="round" stroke-linejoin="round" stroke="rgb(0%, 0%, 0%)" stroke-opacity="1" stroke-miterlimit="10" d="M 531.62069 0.0548589 L 531.62069 1594.960815 " transform="matrix(0.0996875, 0, 0, -0.0996875, 0.0509375, 159.001563)"/>
</g>
<g clip-path="url(#clip-2)">
<path fill="none" stroke-width="5" stroke-linecap="round" stroke-linejoin="round" stroke="rgb(100%, 0%, 0%)" stroke-opacity="1" stroke-miterlimit="10" d="M 2303.642633 195 L 2302.310345 238.691223 L 2299.880878 278.38558 L 2295.609718 324.075235 L 2290.123824 367.100313 L 2276.87931 443.001567 L 2257.600313 524.27116 L 2230.523511 611.9279 L 2195.374608 702.327586 L 2116.416928 856.206897 L 2015.280564 1001.347962 L 1904.583072 1122.233542 L 1768.297806 1235.673981 L 1608.266458 1333.244514 L 1521.119122 1373.291536 L 1438.517241 1403.816614 L 1346.667712 1429.835423 L 1295.021944 1441.003135 L 1248.15674 1448.996865 L 1226.369906 1452.014107 L 1203.407524 1454.757053 L 1162.302508 1458.479624 L 1139.496865 1459.890282 L 1118.297806 1460.752351 L 1095.061129 1461.30094 L 1070.296238 1461.30094 L 1049.018809 1460.830721 L 1025.978056 1459.929467 L 1004.347962 1458.557994 L 984.442006 1456.951411 L 947.098746 1452.915361 L 907.874608 1447.272727 L 836.518809 1433.009404 L 762.067398 1412.515674 L 694.551724 1388.456113 L 635.225705 1362.633229 L 508.462382 1290.180251 L 393.49373 1197.703762 L 306.0721 1101.073668 L 242.984326 1006.755486 L 214.9279 952.758621 L 190.084639 893.510972 L 171.863636 837.319749 L 165.398119 812.398119 L 159.520376 785.713166 L 155.053292 760.948276 L 151.840125 738.456113 L 149.371473 716.04232 L 147.804075 694.882445 L 146.824451 670.626959 " transform="matrix(0.0996875, 0, 0, -0.0996875, 0.0509375, 159.001563)"/>
</g>
<path fill="none" stroke-width="5" stroke-linecap="round" stroke-linejoin="round" stroke="rgb(100%, 0%, 0%)" stroke-opacity="1" stroke-miterlimit="10" d="M 146.824451 670.626959 L 146.746082 648.409091 L 147.568966 624.310345 L 149.410658 599.11442 L 152.19279 574.937304 L 156.268025 549.34953 L 166.338558 504.561129 L 179.191223 463.103448 L 193.532915 427.092476 L 232.365204 355.619122 L 257.952978 320.431034 L 283.227273 291.630094 L 308.188088 267.688088 L 336.518809 244.804075 L 390.358934 211.888715 L 421.236677 198.291536 L 455.366771 187.280564 L 472.490596 183.322884 L 481.424765 181.637931 L 490.750784 180.188088 L 498.940439 179.130094 L 507.796238 178.268025 L 523.195925 177.405956 L 538.673981 177.327586 L 552.4279 178.032915 L 559.990596 178.69906 L 568.023511 179.678683 L 582.365204 181.990596 L 595.492163 184.851097 L 608.932602 188.573668 L 631.934169 196.920063 L 655.562696 208.479624 L 675.978056 221.489028 L 708.736677 250.485893 L 723.626959 268.863636 L 735.147335 286.9279 L 745.217868 307.617555 L 749.253918 318.354232 L 752.937304 330.344828 L 755.249216 340.101881 L 757.130094 350.446708 L 758.227273 359.302508 L 758.932602 368.942006 L 759.128527 379.365204 L 758.658307 390.376176 L 757.561129 400.721003 L 756.0721 410.007837 L 754.073668 419.216301 L 751.840125 427.641066 L 745.257053 446.057994 L 737.811912 461.53605 " transform="matrix(0.0996875, 0, 0, -0.0996875, 0.0509375, 159.001563)"/>
<path fill="none" stroke-width="5" stroke-linecap="round" stroke-linejoin="round" stroke="rgb(100%, 0%, 0%)" stroke-opacity="1" stroke-miterlimit="10" d="M 737.811912 461.53605 L 728.407524 476.974922 L 715.946708 493.275862 L 702.467085 507.304075 L 673.587774 529.365204 L 655.758621 539.083072 L 638.360502 546.332288 L 628.250784 549.663009 L 618.5721 552.249216 L 607.286834 554.639498 L 596.942006 556.206897 L 588.360502 557.029781 L 578.956113 557.57837 L 569.159875 557.617555 L 559.990596 557.225705 L 551.409091 556.481191 L 543.65047 555.462382 L 534.716301 553.934169 L 526.369906 552.131661 L 508.070533 546.802508 L 491.652038 540.376176 L 474.410658 531.716301 L 457.090909 520.822884 L 442.004702 509.184953 L 427.4279 495.548589 L 405.053292 468.079937 L 394.786834 451.387147 L 386.793103 435.125392 L 379.739812 416.669279 L 376.605016 406.206897 L 374.253918 396.449843 L 372.60815 387.868339 L 371.275862 378.69906 L 370.374608 369.529781 L 370.021944 364.318182 L 369.826019 359.459248 L 369.826019 350.681818 L 370.178683 342.727273 L 370.923197 333.597179 L 372.059561 325.015674 L 373.352665 317.492163 L 375.115987 309.537618 L 379.034483 295.587774 L 384.990596 279.639498 L 391.573668 265.924765 L 410.26489 237.633229 L 421.354232 225.172414 L 434.637931 213.025078 L 446.785266 203.934169 L 460.460815 195.666144 L 473.744514 189.239812 " transform="matrix(0.0996875, 0, 0, -0.0996875, 0.0509375, 159.001563)"/>
<path fill="none" stroke-width="5" stroke-linecap="round" stroke-linejoin="round" stroke="rgb(100%, 0%, 0%)" stroke-opacity="1" stroke-miterlimit="10" d="M 473.744514 189.239812 L 486.322884 184.537618 L 493.924765 182.26489 L 502.34953 180.305643 L 510.81348 178.777429 L 515.476489 178.189655 L 519.826019 177.758621 L 523.901254 177.445141 L 527.780564 177.327586 L 535.029781 177.288401 L 542.710031 177.680251 L 547.020376 178.111285 L 551.017241 178.62069 L 558.384013 179.835423 L 565.202194 181.402821 L 577.584639 185.164577 L 590.202194 190.49373 L 602.937304 197.625392 L 613.360502 205.070533 L 623.470219 214.043887 L 631.22884 222.625392 L 638.634796 232.617555 L 645.766458 245.07837 L 648.470219 251.073668 L 650.978056 257.5 L 652.898119 263.416928 L 654.583072 270 L 655.758621 276.034483 L 656.581505 281.716301 L 657.090909 287.789969 L 657.247649 291.238245 L 657.286834 294.451411 L 657.090909 300.877743 L 656.816614 304.482759 L 656.46395 307.695925 L 655.601881 313.495298 L 654.308777 319.68652 L 651.095611 330.619122 L 648.783699 336.53605 L 645.844828 342.884013 L 638.791536 355.070533 L 630.915361 365.376176 L 622.490596 374.11442 L 613.634796 381.481191 L 603.407524 388.299373 L 591.456113 394.412226 L 579.778997 398.761755 L 573.862069 400.407524 L 567.396552 401.818182 L 561.244514 402.797806 L 555.523511 403.424765 " transform="matrix(0.0996875, 0, 0, -0.0996875, 0.0509375, 159.001563)"/>
<path fill="none" stroke-width="5" stroke-linecap="round" stroke-linejoin="round" stroke="rgb(100%, 0%, 0%)" stroke-opacity="1" stroke-miterlimit="10" d="M 555.523511 403.424765 L 550.311912 403.738245 L 544.630094 403.816614 L 538.673981 403.581505 L 533.148903 403.0721 L 527.702194 402.327586 L 521.824451 401.191223 L 511.322884 398.448276 L 501.369906 394.804075 L 492.553292 390.65047 L 473.979624 378.659875 L 465.594044 371.371473 L 457.169279 362.476489 L 443.924765 343.432602 L 438.713166 333.048589 L 434.324451 321.175549 L 431.54232 310.752351 L 430.405956 304.835423 L 429.661442 299.467085 L 429.191223 294.412226 L 428.916928 288.926332 L 428.916928 283.753918 L 429.112853 279.012539 L 429.583072 273.565831 L 430.366771 267.766458 L 431.38558 262.319749 L 432.521944 257.460815 L 436.205329 245.822884 L 440.829154 235.321317 L 446.589342 225.133229 L 452.858934 216.394984 L 461.205329 207.029781 L 469.708464 199.4279 L 485.89185 188.808777 L 494.982759 184.537618 L 499.724138 182.73511 L 504.857367 181.089342 L 509.442006 179.874608 L 513.634796 178.973354 L 517.866771 178.268025 L 521.863636 177.758621 L 526.565831 177.405956 L 530.836991 177.249216 L 535.539185 177.327586 L 540.476489 177.680251 L 545.374608 178.268025 L 549.841693 179.051724 L 554.896552 180.227273 L 559.598746 181.598746 L 567.670846 184.615987 L 576.017241 188.730408 " transform="matrix(0.0996875, 0, 0, -0.0996875, 0.0509375, 159.001563)"/>
<path fill="none" stroke-width="5" stroke-linecap="round" stroke-linejoin="round" stroke="rgb(100%, 0%, 0%)" stroke-opacity="1" stroke-miterlimit="10" d="M 576.017241 188.730408 L 584.481191 194.177116 L 592.670846 200.956113 L 599.489028 208.205329 L 604.857367 215.336991 L 609.128527 222.507837 L 612.929467 230.736677 L 614.496865 235.007837 L 615.868339 239.670846 L 616.926332 244.137931 L 617.631661 248.213166 L 618.141066 252.327586 L 618.415361 256.128527 L 618.49373 260.282132 L 618.376176 264.710031 L 618.062696 268.510972 L 617.592476 272.037618 L 616.887147 275.877743 L 615.946708 279.992163 L 613.242947 288.260188 L 609.324451 296.841693 L 604.152038 305.227273 L 598.470219 312.398119 L 586.322884 323.369906 L 578.642633 328.346395 L 571.197492 332.068966 L 563.869906 334.851097 L 559.598746 336.105016 L 555.523511 337.045455 L 551.213166 337.829154 L 547.216301 338.338558 L 544.982759 338.534483 L 542.592476 338.691223 L 538.203762 338.730408 L 534.089342 338.612853 L 530.366771 338.299373 L 526.095611 337.711599 L 522.098746 337.00627 L 515.084639 335.164577 L 507.757053 332.539185 L 500.037618 328.894984 L 492.083072 323.996865 L 484.402821 317.962382 L 477.976489 311.575235 L 468.297806 298.605016 L 464.026646 290.611285 L 460.970219 283.009404 L 458.775862 275.642633 L 457.835423 271.410658 L 457.169279 267.413793 L 456.69906 263.142633 " transform="matrix(0.0996875, 0, 0, -0.0996875, 0.0509375, 159.001563)"/>
<path fill="none" stroke-width="5" stroke-linecap="round" stroke-linejoin="round" stroke="rgb(100%, 0%, 0%)" stroke-opacity="1" stroke-miterlimit="10" d="M 456.69906 263.142633 L 456.424765 259.263323 L 456.38558 257.10815 L 456.38558 254.757053 L 456.54232 250.525078 L 456.894984 246.567398 L 457.365204 243.001567 L 458.109718 238.926332 L 459.010972 235.164577 L 461.048589 228.54232 L 463.869906 221.684953 L 467.631661 214.553292 L 472.490596 207.26489 L 477.976489 200.799373 L 484.559561 194.60815 L 491.260188 189.592476 L 497.804075 185.713166 L 504.661442 182.539185 L 511.362069 180.188088 L 514.69279 179.286834 L 518.297806 178.503135 L 521.706897 177.954545 L 524.880878 177.562696 L 528.368339 177.327586 L 532.169279 177.249216 L 534.089342 177.288401 L 536.126959 177.405956 L 539.810345 177.719436 L 541.808777 177.99373 L 543.65047 178.268025 L 547.725705 179.130094 L 551.291536 180.070533 L 554.974922 181.285266 L 561.126959 183.832288 L 567.514107 187.319749 L 577.780564 195.117555 L 582.757053 200.289969 L 586.753918 205.462382 L 589.967085 210.556426 L 592.866771 216.394984 L 595.021944 222.155172 L 596.550157 227.601881 L 597.216301 231.050157 L 597.451411 232.774295 L 597.68652 234.694357 L 597.960815 238.064263 L 598.039185 241.238245 L 598 243.119122 L 597.92163 244.960815 L 597.647335 248.330721 L 597.373041 250.211599 " transform="matrix(0.0996875, 0, 0, -0.0996875, 0.0509375, 159.001563)"/>
<path fill="none" stroke-width="5" stroke-linecap="round" stroke-linejoin="round" stroke="rgb(100%, 0%, 0%)" stroke-opacity="1" stroke-miterlimit="10" d="M 597.373041 250.211599 L 597.098746 251.935737 L 596.315047 255.815047 L 594.551724 261.653605 L 591.965517 267.884013 L 588.556426 274.03605 L 584.755486 279.365204 L 580.758621 283.910658 L 576.134796 288.221003 L 566.887147 294.68652 L 561.244514 297.507837 L 555.797806 299.584639 L 552.584639 300.564263 L 549.567398 301.308777 L 547.882445 301.661442 L 546.040752 301.974922 L 542.788401 302.405956 L 539.575235 302.680251 L 536.597179 302.758621 L 533.148903 302.680251 L 529.896552 302.445141 L 526.918495 302.092476 L 524.175549 301.622257 L 521.197492 300.995298 L 518.062696 300.133229 L 511.087774 297.625392 L 504.818182 294.529781 L 499.528213 291.159875 L 494.19906 287.00627 L 484.716301 276.700627 L 480.876176 270.822884 L 477.4279 263.926332 L 475.155172 257.774295 L 474.136364 254.208464 L 473.431034 250.956113 L 472.882445 247.899687 L 472.490596 244.568966 L 472.294671 241.394984 L 472.216301 238.456113 L 472.333856 235.242947 L 472.529781 232.225705 L 472.882445 229.482759 L 473.39185 226.583072 L 474.097179 223.448276 L 474.998433 220.117555 L 477.075235 214.357367 L 479.739812 208.793103 L 482.757053 203.816614 L 489.496865 195.431034 L 494.04232 191.19906 L 499.253918 187.241379 " transform="matrix(0.0996875, 0, 0, -0.0996875, 0.0509375, 159.001563)"/>
<path fill="none" stroke-width="5" stroke-linecap="round" stroke-linejoin="round" stroke="rgb(100%, 0%, 0%)" stroke-opacity="1" stroke-miterlimit="10" d="M 499.253918 187.241379 L 504.073668 184.341693 L 509.442006 181.755486 L 512.576803 180.540752 L 515.476489 179.600313 L 518.454545 178.816614 L 521.236677 178.22884 L 524.489028 177.719436 L 526.213166 177.523511 L 528.054859 177.366771 L 531.111285 177.249216 L 532.874608 177.288401 L 534.520376 177.327586 L 537.263323 177.562696 L 540.202194 177.915361 L 542.945141 178.38558 L 545.374608 178.973354 L 551.252351 180.815047 L 556.503135 183.126959 L 561.636364 186.065831 L 566.025078 189.278997 L 570.688088 193.510972 L 574.528213 197.938871 L 579.661442 205.971787 L 581.777429 210.595611 L 583.501567 215.689655 L 584.167712 218.315047 L 584.442006 219.68652 L 584.716301 221.175549 L 585.068966 223.918495 L 585.304075 226.465517 L 585.382445 229.169279 L 585.34326 231.677116 L 585.18652 233.949843 L 584.912226 236.37931 L 584.442006 239.043887 L 583.893417 241.473354 L 582.286834 246.763323 L 580.288401 251.465517 L 577.976489 255.736677 L 571.354232 264.278997 L 566.887147 268.432602 L 562.341693 271.763323 L 557.639498 274.4279 L 552.976489 276.504702 L 547.68652 278.189655 L 544.669279 278.894984 L 543.297806 279.169279 L 541.808777 279.404389 L 539.026646 279.717868 L 536.401254 279.874608 " transform="matrix(0.0996875, 0, 0, -0.0996875, 0.0509375, 159.001563)"/>
<path fill="none" stroke-width="5" stroke-linecap="round" stroke-linejoin="round" stroke="rgb(100%, 0%, 0%)" stroke-opacity="1" stroke-miterlimit="10" d="M 536.401254 279.874608 L 534.794671 279.913793 L 533.266458 279.874608 L 530.445141 279.757053 L 528.995298 279.600313 L 527.467085 279.404389 L 524.763323 278.973354 L 521.824451 278.30721 L 518.72884 277.405956 L 513.673981 275.485893 L 508.462382 272.782132 L 503.838558 269.76489 L 499.841693 266.512539 L 493.297806 259.420063 L 490.515674 255.384013 L 487.929467 250.681818 L 485.65674 245.352665 L 484.128527 240.297806 L 483.501567 237.594044 L 483.031348 234.576803 L 482.835423 233.087774 L 482.717868 231.442006 L 482.600313 229.913793 L 482.561129 228.54232 L 482.600313 225.760188 L 482.757053 223.252351 L 483.070533 220.509404 L 483.266458 219.098746 L 483.540752 217.570533 L 484.128527 215.062696 L 484.873041 212.398119 L 486.557994 207.73511 L 488.869906 202.954545 L 491.847962 198.213166 L 498.39185 190.65047 L 503.054859 186.731975 L 507.874608 183.597179 L 512.420063 181.324451 L 515.045455 180.227273 L 517.553292 179.404389 L 520.021944 178.69906 L 522.255486 178.189655 L 524.763323 177.758621 L 526.134796 177.562696 L 527.50627 177.445141 L 528.799373 177.327586 L 530.131661 177.288401 L 532.600313 177.288401 L 533.932602 177.327586 L 535.18652 177.405956 L 536.557994 177.523511 " transform="matrix(0.0996875, 0, 0, -0.0996875, 0.0509375, 159.001563)"/>
<path fill="none" stroke-width="5" stroke-linecap="round" stroke-linejoin="round" stroke="rgb(100%, 0%, 0%)" stroke-opacity="1" stroke-miterlimit="10" d="M 536.557994 177.523511 L 538.047022 177.719436 L 540.319749 178.0721 L 542.749216 178.62069 L 547.529781 180.070533 L 551.761755 181.873041 L 555.523511 183.871473 L 563.164577 189.749216 L 566.847962 193.706897 L 569.786834 197.664577 L 571.942006 201.426332 L 573.901254 205.736677 L 574.684953 207.970219 L 575.390282 210.438871 L 575.938871 212.750784 L 576.291536 214.905956 L 576.565831 217.021944 L 576.722571 219.294671 L 576.761755 221.410658 L 576.722571 223.330721 L 576.565831 225.603448 L 576.409091 226.857367 L 576.252351 228.032915 L 575.860502 230.148903 L 575.311912 232.382445 L 574.057994 236.261755 L 572.568966 239.788401 L 570.570533 243.471787 L 568.023511 247.155172 L 564.653605 251.112853 " transform="matrix(0.0996875, 0, 0, -0.0996875, 0.0509375, 159.001563)"/>
</svg>
