<?xml version="1.0" encoding="UTF-8"?>
<svg xmlns="http://www.w3.org/2000/svg" xmlns:xlink="http://www.w3.org/1999/xlink" width="190" height="124" viewBox="0 0 190 124">
<path fill-rule="evenodd" fill="rgb(0%, 0%, 0%)" fill-opacity="1" d="M 85.996094 28.792969 C 85.347656 29.902344 84.722656 30.277344 83.835938 30.277344 C 83.632812 30.277344 83.484375 30.277344 83.484375 30.628906 C 83.484375 30.746094 83.582031 30.824219 83.710938 30.824219 C 84.039062 30.824219 84.867188 30.824219 85.203125 30.824219 C 85.738281 30.824219 86.332031 30.824219 86.847656 30.824219 C 86.957031 30.824219 87.179688 30.824219 87.179688 30.46875 C 87.179688 30.296875 87.03125 30.277344 86.917969 30.277344 C 86.492188 30.242188 86.144531 30.109375 86.144531 29.699219 C 86.144531 29.4375 86.257812 29.234375 86.492188 28.824219 L 87.898438 26.476562 L 92.609375 26.476562 C 92.625 26.644531 92.625 26.792969 92.648438 26.960938 C 92.699219 27.445312 92.921875 29.382812 92.921875 29.738281 C 92.921875 30.277344 91.980469 30.277344 91.6875 30.277344 C 91.484375 30.277344 91.277344 30.277344 91.277344 30.636719 C 91.277344 30.824219 91.445312 30.824219 91.554688 30.824219 C 91.867188 30.824219 92.238281 30.824219 92.554688 30.824219 L 93.605469 30.824219 C 94.734375 30.824219 95.546875 30.824219 95.5625 30.824219 C 95.695312 30.824219 95.894531 30.824219 95.894531 30.46875 C 95.894531 30.277344 95.730469 30.277344 95.453125 30.277344 C 94.4375 30.277344 94.417969 30.113281 94.363281 29.546875 L 93.238281 17.855469 C 93.199219 17.480469 93.125 17.441406 92.921875 17.441406 C 92.738281 17.441406 92.625 17.480469 92.460938 17.761719 Z M 88.214844 25.933594 L 91.921875 19.578125 L 92.554688 25.933594 Z M 88.214844 25.933594 "/>
<path fill-rule="evenodd" fill="rgb(0%, 0%, 0%)" fill-opacity="1" d="M 178.246094 19.3125 C 178.414062 18.617188 178.488281 18.578125 179.21875 18.578125 L 181.640625 18.578125 C 183.75 18.578125 183.75 20.390625 183.75 20.558594 C 183.75 22.085938 182.238281 24.023438 179.777344 24.023438 L 177.089844 24.023438 Z M 181.347656 24.183594 C 183.394531 23.808594 185.253906 22.375 185.253906 20.640625 C 185.253906 19.167969 183.972656 18.035156 181.875 18.035156 L 175.914062 18.035156 C 175.5625 18.035156 175.394531 18.035156 175.394531 18.390625 C 175.394531 18.578125 175.5625 18.578125 175.839844 18.578125 C 176.960938 18.578125 176.960938 18.730469 176.960938 18.9375 C 176.960938 18.976562 176.960938 19.089844 176.886719 19.371094 L 174.402344 29.4375 C 174.234375 30.089844 174.199219 30.277344 172.910156 30.277344 C 172.558594 30.277344 172.375 30.277344 172.375 30.617188 C 172.375 30.824219 172.484375 30.824219 172.851562 30.824219 L 179.148438 30.824219 C 181.960938 30.824219 184.125 28.664062 184.125 26.789062 C 184.125 25.265625 182.816406 24.335938 181.347656 24.183594 Z M 178.734375 30.277344 L 176.246094 30.277344 C 175.984375 30.277344 175.949219 30.277344 175.839844 30.261719 C 175.636719 30.242188 175.617188 30.207031 175.617188 30.054688 C 175.617188 29.925781 175.65625 29.816406 175.691406 29.648438 L 176.980469 24.429688 L 180.445312 24.429688 C 182.621094 24.429688 182.621094 26.464844 182.621094 26.613281 C 182.621094 28.390625 181.015625 30.277344 178.734375 30.277344 "/>
<path fill-rule="evenodd" fill="rgb(0%, 0%, 0%)" fill-opacity="1" d="M 96.339844 107 C 96.339844 106.832031 96.210938 106.832031 96.171875 106.832031 C 96.136719 106.832031 96.0625 106.832031 95.914062 107.019531 L 94.644531 108.589844 C 94 107.46875 92.984375 106.832031 91.605469 106.832031 C 87.628906 106.832031 83.5 110.921875 83.5 115.3125 C 83.5 118.429688 85.65625 120.371094 88.347656 120.371094 C 89.820312 120.371094 91.109375 119.734375 92.179688 118.820312 C 93.777344 117.457031 94.257812 115.644531 94.257812 115.496094 C 94.257812 115.328125 94.109375 115.328125 94.054688 115.328125 C 93.890625 115.328125 93.871094 115.441406 93.835938 115.515625 C 92.984375 118.429688 90.496094 119.828125 88.65625 119.828125 C 86.703125 119.828125 85.007812 118.558594 85.007812 115.90625 C 85.007812 115.308594 85.191406 112.0625 87.269531 109.613281 C 88.285156 108.421875 90.019531 107.375 91.769531 107.375 C 93.796875 107.375 94.699219 109.074219 94.699219 110.976562 C 94.699219 111.464844 94.644531 111.878906 94.644531 111.949219 C 94.644531 112.117188 94.828125 112.117188 94.882812 112.117188 C 95.085938 112.117188 95.105469 112.101562 95.179688 111.761719 L 96.339844 107 "/>
<path fill="none" stroke-width="2.46" stroke-linecap="square" stroke-linejoin="miter" stroke="rgb(0%, 0%, 0%)" stroke-opacity="1" stroke-miterlimit="10" d="M 1022.578125 996.015625 L 1619.140625 996.015625 " transform="matrix(0.1, 0, 0, -0.1, 0, 124)"/>
<path fill-rule="evenodd" fill="rgb(0%, 0%, 0%)" fill-opacity="1" d="M 165.988281 24.398438 L 159.472656 21.136719 L 161.914062 24.398438 L 159.472656 27.65625 Z M 165.988281 24.398438 "/>
<path fill-rule="evenodd" fill="rgb(0%, 0%, 0%)" fill-opacity="1" d="M 135.0625 9.246094 L 136.390625 9.246094 C 136.695312 9.246094 136.851562 9.246094 136.851562 8.933594 C 136.851562 8.761719 136.695312 8.761719 136.4375 8.761719 L 135.15625 8.761719 L 135.480469 6.988281 C 135.539062 6.664062 135.757812 5.558594 135.847656 5.375 C 135.984375 5.078125 136.246094 4.84375 136.570312 4.84375 C 136.632812 4.84375 137.035156 4.84375 137.324219 5.132812 C 136.652344 5.199219 136.496094 5.765625 136.496094 6.007812 C 136.496094 6.375 136.773438 6.570312 137.066406 6.570312 C 137.460938 6.570312 137.90625 6.214844 137.90625 5.609375 C 137.90625 4.875 137.199219 4.507812 136.570312 4.507812 C 136.046875 4.507812 135.078125 4.785156 134.613281 6.324219 C 134.523438 6.648438 134.476562 6.808594 134.109375 8.761719 L 133.042969 8.761719 C 132.75 8.761719 132.578125 8.761719 132.578125 9.058594 C 132.578125 9.246094 132.71875 9.246094 133.015625 9.246094 L 134.03125 9.246094 L 132.875 15.394531 C 132.597656 16.90625 132.339844 18.320312 131.535156 18.320312 C 131.476562 18.320312 131.089844 18.320312 130.796875 18.007812 C 131.503906 18.007812 131.640625 17.417969 131.640625 17.171875 C 131.640625 16.792969 131.363281 16.597656 131.070312 16.597656 C 130.675781 16.597656 130.230469 16.949219 130.230469 17.558594 C 130.230469 18.273438 130.90625 18.660156 131.535156 18.660156 C 132.382812 18.660156 133 17.742188 133.277344 17.152344 C 133.769531 16.167969 134.125 14.289062 134.140625 14.179688 L 135.0625 9.246094 "/>
<path fill="none" stroke-width="2.46" stroke-linecap="square" stroke-linejoin="miter" stroke="rgb(0%, 0%, 0%)" stroke-opacity="1" stroke-miterlimit="10" d="M 1659.882812 876.40625 L 1054.609375 253.164062 " transform="matrix(0.1, 0, 0, -0.1, 0, 124)"/>
<path fill-rule="evenodd" fill="rgb(0%, 0%, 0%)" fill-opacity="1" d="M 102.621094 101.609375 L 109.503906 99.203125 L 105.460938 98.683594 L 104.824219 94.65625 Z M 102.621094 101.609375 "/>
<path fill-rule="evenodd" fill="rgb(0%, 0%, 0%)" fill-opacity="1" d="M 147.371094 75.691406 C 147.386719 75.597656 147.417969 75.519531 147.417969 75.410156 C 147.417969 75.148438 147.234375 74.992188 146.972656 74.992188 C 146.816406 74.992188 146.402344 75.101562 146.34375 75.660156 C 146.066406 75.089844 145.527344 74.683594 144.910156 74.683594 C 143.160156 74.683594 141.25 76.867188 141.25 79.113281 C 141.25 80.660156 142.1875 81.582031 143.296875 81.582031 C 144.203125 81.582031 144.925781 80.847656 145.082031 80.671875 L 145.097656 80.691406 C 144.773438 82.117188 144.589844 82.777344 144.589844 82.808594 C 144.53125 82.941406 144.007812 84.402344 142.375 84.402344 C 142.082031 84.402344 141.574219 84.402344 141.144531 84.269531 C 141.609375 84.136719 141.777344 83.753906 141.777344 83.503906 C 141.777344 83.269531 141.609375 82.988281 141.191406 82.988281 C 140.851562 82.988281 140.359375 83.253906 140.359375 83.84375 C 140.359375 84.445312 140.929688 84.738281 142.40625 84.738281 C 144.328125 84.738281 145.433594 83.527344 145.664062 82.59375 Z M 145.371094 79.582031 C 145.28125 79.988281 144.925781 80.378906 144.589844 80.671875 C 144.269531 80.957031 143.789062 81.238281 143.347656 81.238281 C 142.578125 81.238281 142.347656 80.421875 142.347656 79.800781 C 142.347656 79.050781 142.792969 77.210938 143.207031 76.414062 C 143.621094 75.648438 144.28125 75.023438 144.925781 75.023438 C 145.941406 75.023438 146.15625 76.285156 146.15625 76.363281 C 146.15625 76.441406 146.125 76.535156 146.109375 76.601562 L 145.371094 79.582031 "/>
<path fill="none" stroke-width="2.46" stroke-linecap="square" stroke-linejoin="miter" stroke="rgb(0%, 0%, 0%)" stroke-opacity="1" stroke-miterlimit="10" d="M 898.203125 876.40625 L 898.203125 264.648438 " transform="matrix(0.1, 0, 0, -0.1, 0, 124)"/>
<path fill-rule="evenodd" fill="rgb(0%, 0%, 0%)" fill-opacity="1" d="M 89.820312 101.609375 L 93.082031 95.089844 L 89.820312 97.535156 L 86.5625 95.089844 Z M 89.820312 101.609375 "/>
<path fill-rule="evenodd" fill="rgb(0%, 0%, 0%)" fill-opacity="1" d="M 100.136719 63.777344 C 100.136719 63.761719 100.136719 63.613281 99.9375 63.613281 C 99.582031 63.613281 98.464844 63.761719 98.0625 63.761719 C 97.941406 63.777344 97.773438 63.789062 97.773438 64.0625 C 97.773438 64.238281 97.910156 64.238281 98.140625 64.238281 C 98.875 64.238281 98.90625 64.351562 98.90625 64.507812 L 98.863281 64.820312 L 96.632812 73.832031 C 96.570312 74.046875 96.570312 74.082031 96.570312 74.175781 C 96.570312 74.53125 96.875 74.605469 97.011719 74.605469 C 97.253906 74.605469 97.5 74.417969 97.578125 74.199219 L 97.863281 73.011719 L 98.199219 71.605469 C 98.289062 71.261719 98.382812 70.914062 98.457031 70.554688 C 98.488281 70.464844 98.609375 69.945312 98.625 69.855469 C 98.671875 69.710938 99.140625 68.839844 99.660156 68.414062 C 99.992188 68.164062 100.464844 67.867188 101.117188 67.867188 C 101.773438 67.867188 101.9375 68.398438 101.9375 68.960938 C 101.9375 69.808594 101.382812 71.511719 101.03125 72.464844 C 100.914062 72.824219 100.84375 73.011719 100.84375 73.324219 C 100.84375 74.058594 101.363281 74.605469 102.0625 74.605469 C 103.464844 74.605469 104.015625 72.328125 104.015625 72.203125 C 104.015625 72.042969 103.882812 72.042969 103.839844 72.042969 C 103.695312 72.042969 103.695312 72.09375 103.621094 72.328125 C 103.402344 73.15625 102.9375 74.269531 102.132812 74.269531 C 101.886719 74.269531 101.78125 74.113281 101.78125 73.753906 C 101.78125 73.363281 101.90625 72.984375 102.03125 72.640625 C 102.253906 71.96875 102.878906 70.109375 102.878906 69.203125 C 102.878906 68.1875 102.28125 67.53125 101.15625 67.53125 C 100.210938 67.53125 99.492188 68.011719 98.9375 68.730469 L 100.136719 63.777344 "/>
<path fill="none" stroke-width="2.46" stroke-linecap="square" stroke-linejoin="miter" stroke="rgb(0%, 0%, 0%)" stroke-opacity="1" stroke-miterlimit="10" d="M 898.203125 876.40625 L 898.203125 264.648438 " transform="matrix(0.1, 0, 0, -0.1, 0, 124)"/>
<path fill-rule="evenodd" fill="rgb(0%, 0%, 0%)" fill-opacity="1" d="M 89.820312 101.609375 L 93.082031 95.089844 L 89.820312 97.535156 L 86.5625 95.089844 Z M 89.820312 101.609375 "/>
<path fill-rule="evenodd" fill="rgb(0%, 0%, 0%)" fill-opacity="1" d="M 10.789062 67.011719 C 10.804688 66.917969 10.835938 66.839844 10.835938 66.734375 C 10.835938 66.46875 10.652344 66.3125 10.390625 66.3125 C 10.238281 66.3125 9.824219 66.421875 9.761719 66.984375 C 9.484375 66.410156 8.945312 66.007812 8.332031 66.007812 C 6.578125 66.007812 4.671875 68.191406 4.671875 70.433594 C 4.671875 71.980469 5.609375 72.902344 6.714844 72.902344 C 7.625 72.902344 8.347656 72.164062 8.5 71.996094 L 8.519531 72.011719 C 8.195312 73.4375 8.011719 74.097656 8.011719 74.128906 C 7.949219 74.261719 7.425781 75.722656 5.796875 75.722656 C 5.5 75.722656 4.996094 75.722656 4.5625 75.589844 C 5.027344 75.457031 5.199219 75.074219 5.199219 74.824219 C 5.199219 74.589844 5.027344 74.3125 4.613281 74.3125 C 4.273438 74.3125 3.78125 74.578125 3.78125 75.164062 C 3.78125 75.765625 4.347656 76.058594 5.824219 76.058594 C 7.746094 76.058594 8.855469 74.847656 9.082031 73.914062 Z M 8.792969 70.902344 C 8.703125 71.308594 8.347656 71.699219 8.007812 71.996094 C 7.6875 72.277344 7.210938 72.558594 6.769531 72.558594 C 6 72.558594 5.769531 71.746094 5.769531 71.121094 C 5.769531 70.371094 6.214844 68.53125 6.628906 67.734375 C 7.042969 66.96875 7.703125 66.34375 8.347656 66.34375 C 9.359375 66.34375 9.574219 67.605469 9.574219 67.6875 C 9.574219 67.765625 9.542969 67.855469 9.53125 67.921875 L 8.792969 70.902344 "/>
<path fill-rule="evenodd" fill="rgb(0%, 0%, 0%)" fill-opacity="1" d="M 21.988281 68.984375 C 21.988281 67.339844 20.589844 66.007812 18.941406 66.007812 C 17.242188 66.007812 15.878906 67.371094 15.878906 68.984375 C 15.878906 70.609375 17.242188 71.960938 18.941406 71.960938 C 20.589844 71.960938 21.988281 70.625 21.988281 68.984375 Z M 18.941406 71.335938 C 17.574219 71.335938 16.503906 70.265625 16.503906 68.984375 C 16.503906 67.699219 17.589844 66.632812 18.941406 66.632812 C 20.246094 66.632812 21.359375 67.671875 21.359375 68.984375 C 21.359375 70.296875 20.246094 71.335938 18.941406 71.335938 "/>
<path fill-rule="evenodd" fill="rgb(0%, 0%, 0%)" fill-opacity="1" d="M 32.027344 66.648438 L 33.355469 66.648438 C 33.660156 66.648438 33.8125 66.648438 33.8125 66.335938 C 33.8125 66.164062 33.660156 66.164062 33.402344 66.164062 L 32.121094 66.164062 L 32.441406 64.390625 C 32.503906 64.0625 32.71875 62.960938 32.8125 62.773438 C 32.949219 62.476562 33.210938 62.246094 33.535156 62.246094 C 33.597656 62.246094 33.996094 62.246094 34.289062 62.535156 C 33.617188 62.597656 33.460938 63.164062 33.460938 63.40625 C 33.460938 63.773438 33.738281 63.96875 34.03125 63.96875 C 34.425781 63.96875 34.871094 63.617188 34.871094 63.007812 C 34.871094 62.273438 34.164062 61.90625 33.53125 61.90625 C 33.011719 61.90625 32.042969 62.1875 31.578125 63.722656 C 31.488281 64.050781 31.441406 64.207031 31.070312 66.164062 L 30.007812 66.164062 C 29.714844 66.164062 29.542969 66.164062 29.542969 66.460938 C 29.542969 66.648438 29.683594 66.648438 29.976562 66.648438 L 30.992188 66.648438 L 29.839844 72.796875 C 29.5625 74.304688 29.300781 75.722656 28.5 75.722656 C 28.441406 75.722656 28.054688 75.722656 27.761719 75.40625 C 28.46875 75.40625 28.605469 74.816406 28.605469 74.570312 C 28.605469 74.195312 28.328125 73.996094 28.035156 73.996094 C 27.640625 73.996094 27.195312 74.351562 27.195312 74.957031 C 27.195312 75.675781 27.871094 76.058594 28.5 76.058594 C 29.347656 76.058594 29.964844 75.140625 30.242188 74.550781 C 30.734375 73.570312 31.089844 71.6875 31.105469 71.578125 L 32.027344 66.648438 "/>
<path fill-rule="evenodd" fill="rgb(0%, 0%, 0%)" fill-opacity="1" d="M 50.570312 67.730469 C 50.796875 67.730469 51.089844 67.730469 51.089844 67.414062 C 51.089844 67.101562 50.796875 67.101562 50.585938 67.101562 L 41.410156 67.101562 C 41.195312 67.101562 40.90625 67.101562 40.90625 67.414062 C 40.90625 67.730469 41.195312 67.730469 41.425781 67.730469 Z M 50.585938 70.863281 C 50.796875 70.863281 51.089844 70.863281 51.089844 70.550781 C 51.089844 70.238281 50.796875 70.238281 50.570312 70.238281 L 41.425781 70.238281 C 41.195312 70.238281 40.90625 70.238281 40.90625 70.550781 C 40.90625 70.863281 41.195312 70.863281 41.410156 70.863281 L 50.585938 70.863281 "/>
<path fill-rule="evenodd" fill="rgb(0%, 0%, 0%)" fill-opacity="1" d="M 61.128906 62.253906 C 61.128906 62.238281 61.128906 62.089844 60.929688 62.089844 C 60.574219 62.089844 59.457031 62.238281 59.054688 62.238281 C 58.933594 62.253906 58.765625 62.265625 58.765625 62.535156 C 58.765625 62.714844 58.902344 62.714844 59.132812 62.714844 C 59.867188 62.714844 59.898438 62.824219 59.898438 62.980469 L 59.855469 63.292969 L 57.625 72.304688 C 57.5625 72.523438 57.5625 72.554688 57.5625 72.652344 C 57.5625 73.007812 57.867188 73.082031 58.003906 73.082031 C 58.246094 73.082031 58.492188 72.894531 58.566406 72.675781 L 58.855469 71.488281 L 59.191406 70.082031 C 59.28125 69.738281 59.375 69.390625 59.449219 69.03125 C 59.480469 68.9375 59.601562 68.421875 59.617188 68.332031 C 59.664062 68.1875 60.132812 67.3125 60.652344 66.890625 C 60.984375 66.640625 61.457031 66.34375 62.109375 66.34375 C 62.765625 66.34375 62.933594 66.875 62.933594 67.4375 C 62.933594 68.28125 62.375 69.988281 62.027344 70.941406 C 61.90625 71.300781 61.835938 71.488281 61.835938 71.796875 C 61.835938 72.535156 62.355469 73.082031 63.054688 73.082031 C 64.457031 73.082031 65.007812 70.800781 65.007812 70.679688 C 65.007812 70.519531 64.875 70.519531 64.832031 70.519531 C 64.6875 70.519531 64.6875 70.566406 64.613281 70.800781 C 64.394531 71.632812 63.929688 72.742188 63.125 72.742188 C 62.878906 72.742188 62.773438 72.585938 62.773438 72.226562 C 62.773438 71.839844 62.898438 71.460938 63.023438 71.117188 C 63.246094 70.445312 63.871094 68.585938 63.871094 67.679688 C 63.871094 66.660156 63.273438 66.007812 62.148438 66.007812 C 61.203125 66.007812 60.484375 66.488281 59.929688 67.207031 L 61.128906 62.253906 "/>
</svg>
