<?xml version="1.0" encoding="UTF-8"?>
<svg xmlns="http://www.w3.org/2000/svg" xmlns:xlink="http://www.w3.org/1999/xlink" width="216" height="122" viewBox="0 0 216 122">
<path fill-rule="evenodd" fill="rgb(0%, 0%, 0%)" fill-opacity="1" d="M 107.78125 28.183594 C 107.148438 29.273438 106.535156 29.640625 105.664062 29.640625 C 105.46875 29.640625 105.324219 29.640625 105.324219 29.984375 C 105.324219 30.097656 105.414062 30.171875 105.542969 30.171875 C 105.867188 30.171875 106.679688 30.171875 107.003906 30.171875 C 107.53125 30.171875 108.109375 30.171875 108.613281 30.171875 C 108.722656 30.171875 108.941406 30.171875 108.941406 29.824219 C 108.941406 29.65625 108.796875 29.640625 108.6875 29.640625 C 108.269531 29.605469 107.925781 29.472656 107.925781 29.074219 C 107.925781 28.816406 108.035156 28.617188 108.269531 28.214844 L 109.644531 25.917969 L 114.257812 25.917969 C 114.273438 26.082031 114.273438 26.226562 114.292969 26.390625 C 114.347656 26.867188 114.5625 28.761719 114.5625 29.109375 C 114.5625 29.640625 113.640625 29.640625 113.351562 29.640625 C 113.15625 29.640625 112.953125 29.640625 112.953125 29.988281 C 112.953125 30.171875 113.117188 30.171875 113.222656 30.171875 C 113.53125 30.171875 113.894531 30.171875 114.203125 30.171875 L 115.230469 30.171875 C 116.335938 30.171875 117.132812 30.171875 117.152344 30.171875 C 117.277344 30.171875 117.476562 30.171875 117.476562 29.824219 C 117.476562 29.640625 117.3125 29.640625 117.039062 29.640625 C 116.046875 29.640625 116.027344 29.476562 115.972656 28.921875 L 114.871094 17.472656 C 114.835938 17.109375 114.761719 17.070312 114.5625 17.070312 C 114.382812 17.070312 114.273438 17.109375 114.113281 17.386719 Z M 109.953125 25.386719 L 113.585938 19.164062 L 114.203125 25.386719 Z M 109.953125 25.386719 "/>
<path fill-rule="evenodd" fill="rgb(0%, 0%, 0%)" fill-opacity="1" d="M 198.109375 18.902344 C 198.273438 18.222656 198.347656 18.183594 199.058594 18.183594 L 201.433594 18.183594 C 203.496094 18.183594 203.496094 19.957031 203.496094 20.121094 C 203.496094 21.617188 202.015625 23.515625 199.605469 23.515625 L 196.976562 23.515625 Z M 201.144531 23.671875 C 203.148438 23.304688 204.96875 21.902344 204.96875 20.199219 C 204.96875 18.761719 203.714844 17.652344 201.660156 17.652344 L 195.824219 17.652344 C 195.480469 17.652344 195.316406 17.652344 195.316406 18 C 195.316406 18.183594 195.480469 18.183594 195.75 18.183594 C 196.851562 18.183594 196.851562 18.332031 196.851562 18.535156 C 196.851562 18.574219 196.851562 18.683594 196.777344 18.957031 L 194.34375 28.816406 C 194.179688 29.457031 194.144531 29.640625 192.882812 29.640625 C 192.539062 29.640625 192.359375 29.640625 192.359375 29.972656 C 192.359375 30.171875 192.464844 30.171875 192.824219 30.171875 L 198.992188 30.171875 C 201.742188 30.171875 203.863281 28.0625 203.863281 26.222656 C 203.863281 24.730469 202.585938 23.820312 201.144531 23.671875 Z M 198.585938 29.640625 L 196.148438 29.640625 C 195.894531 29.640625 195.859375 29.640625 195.75 29.621094 C 195.554688 29.601562 195.535156 29.566406 195.535156 29.421875 C 195.535156 29.292969 195.574219 29.1875 195.605469 29.023438 L 196.871094 23.910156 L 200.261719 23.910156 C 202.390625 23.910156 202.390625 25.90625 202.390625 26.050781 C 202.390625 27.789062 200.820312 29.640625 198.585938 29.640625 "/>
<path fill-rule="evenodd" fill="rgb(0%, 0%, 0%)" fill-opacity="1" d="M 106.703125 116.125 C 106.539062 116.769531 106.507812 116.953125 105.242188 116.953125 C 104.898438 116.953125 104.71875 116.953125 104.71875 117.285156 C 104.71875 117.484375 104.828125 117.484375 105.191406 117.484375 L 110.929688 117.484375 C 114.585938 117.484375 118.15625 113.652344 118.15625 109.566406 C 118.15625 106.925781 116.597656 104.964844 114.003906 104.964844 L 108.183594 104.964844 C 107.839844 104.964844 107.675781 104.964844 107.675781 105.3125 C 107.675781 105.496094 107.839844 105.496094 108.113281 105.496094 C 109.210938 105.496094 109.210938 105.644531 109.210938 105.84375 C 109.210938 105.882812 109.210938 105.992188 109.140625 106.269531 Z M 110.511719 106.214844 C 110.671875 105.535156 110.742188 105.496094 111.449219 105.496094 L 113.433594 105.496094 C 115.132812 105.496094 116.683594 106.433594 116.683594 108.960938 C 116.683594 109.878906 116.320312 113.066406 114.570312 115.082031 C 114.0625 115.6875 112.695312 116.953125 110.617188 116.953125 L 108.558594 116.953125 C 108.308594 116.953125 108.273438 116.953125 108.164062 116.9375 C 107.964844 116.914062 107.949219 116.882812 107.949219 116.734375 C 107.949219 116.605469 107.984375 116.496094 108.019531 116.332031 L 110.511719 106.214844 "/>
<path fill-rule="evenodd" fill="rgb(0%, 0%, 0%)" fill-opacity="1" d="M 205.222656 104.761719 C 205.222656 104.597656 205.09375 104.597656 205.058594 104.597656 C 205.023438 104.597656 204.949219 104.597656 204.808594 104.78125 L 203.5625 106.316406 C 202.929688 105.21875 201.9375 104.597656 200.585938 104.597656 C 196.691406 104.597656 192.652344 108.601562 192.652344 112.898438 C 192.652344 115.953125 194.761719 117.851562 197.394531 117.851562 C 198.835938 117.851562 200.101562 117.230469 201.148438 116.332031 C 202.714844 115 203.183594 113.226562 203.183594 113.082031 C 203.183594 112.917969 203.039062 112.917969 202.984375 112.917969 C 202.824219 112.917969 202.804688 113.027344 202.769531 113.101562 C 201.9375 115.953125 199.503906 117.320312 197.699219 117.320312 C 195.785156 117.320312 194.125 116.078125 194.125 113.484375 C 194.125 112.894531 194.304688 109.71875 196.34375 107.320312 C 197.335938 106.152344 199.03125 105.128906 200.746094 105.128906 C 202.730469 105.128906 203.617188 106.792969 203.617188 108.65625 C 203.617188 109.128906 203.5625 109.535156 203.5625 109.609375 C 203.5625 109.773438 203.742188 109.773438 203.796875 109.773438 C 203.996094 109.773438 204.011719 109.753906 204.085938 109.421875 L 205.222656 104.761719 "/>
<path fill="none" stroke-width="2.81" stroke-linecap="square" stroke-linejoin="miter" stroke="rgb(0%, 0%, 0%)" stroke-opacity="1" stroke-miterlimit="10" d="M 1237.070312 981.171875 L 1821.210938 981.171875 " transform="matrix(0.1, 0, 0, -0.1, 0, 122)"/>
<path fill-rule="evenodd" fill="rgb(0%, 0%, 0%)" fill-opacity="1" d="M 186.109375 23.882812 L 179.726562 20.691406 L 182.121094 23.882812 L 179.726562 27.074219 Z M 186.109375 23.882812 "/>
<path fill-rule="evenodd" fill="rgb(0%, 0%, 0%)" fill-opacity="1" d="M 155.824219 9.046875 L 157.125 9.046875 C 157.425781 9.046875 157.574219 9.046875 157.574219 8.742188 C 157.574219 8.574219 157.425781 8.574219 157.171875 8.574219 L 155.914062 8.574219 L 156.234375 6.835938 C 156.292969 6.519531 156.503906 5.4375 156.59375 5.253906 C 156.730469 4.964844 156.984375 4.738281 157.300781 4.738281 C 157.363281 4.738281 157.753906 4.738281 158.039062 5.019531 C 157.382812 5.082031 157.230469 5.636719 157.230469 5.871094 C 157.230469 6.234375 157.5 6.425781 157.785156 6.425781 C 158.175781 6.425781 158.609375 6.078125 158.609375 5.484375 C 158.609375 4.765625 157.917969 4.40625 157.300781 4.40625 C 156.789062 4.40625 155.839844 4.679688 155.386719 6.183594 C 155.296875 6.503906 155.253906 6.65625 154.890625 8.574219 L 153.847656 8.574219 C 153.558594 8.574219 153.394531 8.574219 153.394531 8.863281 C 153.394531 9.046875 153.53125 9.046875 153.820312 9.046875 L 154.8125 9.046875 L 153.683594 15.066406 C 153.410156 16.546875 153.15625 17.933594 152.371094 17.933594 C 152.3125 17.933594 151.933594 17.933594 151.648438 17.625 C 152.339844 17.625 152.472656 17.046875 152.472656 16.804688 C 152.472656 16.4375 152.203125 16.246094 151.917969 16.246094 C 151.527344 16.246094 151.09375 16.589844 151.09375 17.183594 C 151.09375 17.886719 151.757812 18.261719 152.371094 18.261719 C 153.203125 18.261719 153.808594 17.363281 154.078125 16.785156 C 154.558594 15.824219 154.90625 13.984375 154.921875 13.875 L 155.824219 9.046875 "/>
<path fill="none" stroke-width="2.81" stroke-linecap="square" stroke-linejoin="miter" stroke="rgb(0%, 0%, 0%)" stroke-opacity="1" stroke-miterlimit="10" d="M 1115.273438 864.0625 L 1115.273438 265.078125 " transform="matrix(0.1, 0, 0, -0.1, 0, 122)"/>
<path fill-rule="evenodd" fill="rgb(0%, 0%, 0%)" fill-opacity="1" d="M 111.527344 99.484375 L 114.722656 93.101562 L 111.527344 95.492188 L 108.339844 93.101562 Z M 111.527344 99.484375 "/>
<path fill-rule="evenodd" fill="rgb(0%, 0%, 0%)" fill-opacity="1" d="M 121.628906 62.4375 C 121.628906 62.425781 121.628906 62.277344 121.433594 62.277344 C 121.085938 62.277344 119.988281 62.425781 119.597656 62.425781 C 119.480469 62.4375 119.3125 62.453125 119.3125 62.71875 C 119.3125 62.890625 119.449219 62.890625 119.671875 62.890625 C 120.394531 62.890625 120.425781 63 120.425781 63.152344 L 120.382812 63.460938 L 118.199219 72.28125 C 118.140625 72.496094 118.140625 72.527344 118.140625 72.621094 C 118.140625 72.96875 118.4375 73.042969 118.570312 73.042969 C 118.808594 73.042969 119.046875 72.859375 119.121094 72.644531 L 119.40625 71.480469 L 119.730469 70.105469 C 119.820312 69.769531 119.910156 69.429688 119.984375 69.078125 C 120.015625 68.984375 120.132812 68.480469 120.148438 68.390625 C 120.195312 68.25 120.652344 67.394531 121.160156 66.980469 C 121.488281 66.734375 121.949219 66.445312 122.589844 66.445312 C 123.230469 66.445312 123.394531 66.964844 123.394531 67.515625 C 123.394531 68.34375 122.851562 70.011719 122.507812 70.945312 C 122.390625 71.296875 122.320312 71.480469 122.320312 71.785156 C 122.320312 72.507812 122.832031 73.042969 123.515625 73.042969 C 124.886719 73.042969 125.425781 70.8125 125.425781 70.6875 C 125.425781 70.535156 125.296875 70.535156 125.253906 70.535156 C 125.113281 70.535156 125.113281 70.582031 125.039062 70.8125 C 124.828125 71.625 124.371094 72.710938 123.585938 72.710938 C 123.339844 72.710938 123.242188 72.558594 123.242188 72.207031 C 123.242188 71.824219 123.363281 71.457031 123.484375 71.121094 C 123.703125 70.460938 124.316406 68.640625 124.316406 67.753906 C 124.316406 66.757812 123.726562 66.113281 122.628906 66.113281 C 121.703125 66.113281 121 66.585938 120.453125 67.289062 L 121.628906 62.4375 "/>
<path fill="none" stroke-width="2.81" stroke-linecap="square" stroke-linejoin="miter" stroke="rgb(0%, 0%, 0%)" stroke-opacity="1" stroke-miterlimit="10" d="M 1988.4375 864.0625 L 1988.4375 265.078125 " transform="matrix(0.1, 0, 0, -0.1, 0, 122)"/>
<path fill-rule="evenodd" fill="rgb(0%, 0%, 0%)" fill-opacity="1" d="M 198.84375 99.484375 L 202.035156 93.101562 L 198.84375 95.492188 L 195.652344 93.101562 Z M 198.84375 99.484375 "/>
<path fill-rule="evenodd" fill="rgb(0%, 0%, 0%)" fill-opacity="1" d="M 211.632812 63.585938 C 211.648438 63.492188 211.679688 63.414062 211.679688 63.308594 C 211.679688 63.050781 211.5 62.898438 211.242188 62.898438 C 211.09375 62.898438 210.6875 63.007812 210.628906 63.554688 C 210.355469 62.992188 209.828125 62.597656 209.226562 62.597656 C 207.511719 62.597656 205.644531 64.738281 205.644531 66.933594 C 205.644531 68.449219 206.5625 69.347656 207.644531 69.347656 C 208.535156 69.347656 209.242188 68.628906 209.394531 68.460938 L 209.410156 68.480469 C 209.09375 69.878906 208.914062 70.523438 208.914062 70.554688 C 208.851562 70.683594 208.339844 72.109375 206.742188 72.109375 C 206.457031 72.109375 205.960938 72.109375 205.539062 71.980469 C 205.992188 71.851562 206.160156 71.476562 206.160156 71.234375 C 206.160156 71.003906 205.992188 70.730469 205.585938 70.730469 C 205.253906 70.730469 204.769531 70.988281 204.769531 71.566406 C 204.769531 72.152344 205.328125 72.441406 206.773438 72.441406 C 208.652344 72.441406 209.738281 71.253906 209.964844 70.34375 Z M 209.679688 67.394531 C 209.589844 67.789062 209.242188 68.171875 208.910156 68.460938 C 208.597656 68.738281 208.128906 69.015625 207.695312 69.015625 C 206.941406 69.015625 206.71875 68.21875 206.71875 67.605469 C 206.71875 66.871094 207.152344 65.070312 207.558594 64.289062 C 207.964844 63.539062 208.609375 62.929688 209.242188 62.929688 C 210.234375 62.929688 210.445312 64.164062 210.445312 64.242188 C 210.445312 64.320312 210.414062 64.410156 210.398438 64.472656 L 209.679688 67.394531 "/>
<path fill="none" stroke-width="2.81" stroke-linecap="square" stroke-linejoin="miter" stroke="rgb(0%, 0%, 0%)" stroke-opacity="1" stroke-miterlimit="10" d="M 1246.835938 108.046875 L 1823.203125 108.046875 " transform="matrix(0.1, 0, 0, -0.1, 0, 122)"/>
<path fill-rule="evenodd" fill="rgb(0%, 0%, 0%)" fill-opacity="1" d="M 186.3125 111.195312 L 179.929688 108.003906 L 182.320312 111.195312 L 179.929688 114.386719 Z M 186.3125 111.195312 "/>
<path fill-rule="evenodd" fill="rgb(0%, 0%, 0%)" fill-opacity="1" d="M 155.511719 95.039062 C 155.511719 95.023438 155.511719 94.878906 155.316406 94.878906 C 154.972656 94.878906 153.871094 95.023438 153.480469 95.023438 C 153.363281 95.039062 153.195312 95.054688 153.195312 95.316406 C 153.195312 95.492188 153.332031 95.492188 153.558594 95.492188 C 154.277344 95.492188 154.308594 95.601562 154.308594 95.753906 L 154.265625 96.0625 L 152.085938 104.882812 C 152.023438 105.09375 152.023438 105.125 152.023438 105.21875 C 152.023438 105.566406 152.324219 105.644531 152.460938 105.644531 C 152.65625 105.644531 152.878906 105.503906 152.972656 105.320312 C 153.046875 105.179688 153.722656 102.320312 153.8125 101.933594 C 154.324219 101.980469 155.558594 102.230469 155.558594 103.25 C 155.558594 103.359375 155.558594 103.421875 155.511719 103.578125 C 155.484375 103.761719 155.453125 103.949219 155.453125 104.117188 C 155.453125 105.027344 156.074219 105.644531 156.882812 105.644531 C 157.347656 105.644531 157.765625 105.398438 158.109375 104.828125 C 158.496094 104.148438 158.667969 103.296875 158.667969 103.269531 C 158.667969 103.113281 158.527344 103.113281 158.484375 103.113281 C 158.328125 103.113281 158.316406 103.171875 158.265625 103.390625 C 157.960938 104.523438 157.609375 105.3125 156.933594 105.3125 C 156.640625 105.3125 156.441406 105.140625 156.441406 104.585938 C 156.441406 104.320312 156.503906 103.964844 156.566406 103.714844 C 156.632812 103.453125 156.632812 103.390625 156.632812 103.238281 C 156.632812 102.230469 155.65625 101.777344 154.339844 101.609375 C 154.820312 101.339844 155.316406 100.855469 155.671875 100.492188 C 156.417969 99.691406 157.128906 99.046875 157.890625 99.046875 C 157.980469 99.046875 157.996094 99.046875 158.027344 99.046875 C 158.203125 99.046875 158.222656 99.046875 158.339844 99.121094 C 158.371094 99.136719 158.371094 99.148438 158.398438 99.175781 C 157.6875 99.175781 157.554688 99.800781 157.554688 99.996094 C 157.554688 100.253906 157.714844 100.554688 158.117188 100.554688 C 158.503906 100.554688 158.933594 100.230469 158.933594 99.648438 C 158.933594 99.203125 158.582031 98.714844 157.890625 98.714844 C 157.460938 98.714844 156.757812 98.835938 155.652344 100.039062 C 155.132812 100.609375 154.53125 101.214844 153.949219 101.4375 L 155.511719 95.039062 "/>
<path fill="none" stroke-width="2.81" stroke-linecap="square" stroke-linejoin="miter" stroke="rgb(0%, 0%, 0%)" stroke-opacity="1" stroke-miterlimit="10" d="M 1115.273438 864.0625 L 1115.273438 265.078125 " transform="matrix(0.1, 0, 0, -0.1, 0, 122)"/>
<path fill-rule="evenodd" fill="rgb(0%, 0%, 0%)" fill-opacity="1" d="M 111.527344 99.484375 L 114.722656 93.101562 L 111.527344 95.492188 L 108.339844 93.101562 Z M 111.527344 99.484375 "/>
<path fill-rule="evenodd" fill="rgb(0%, 0%, 0%)" fill-opacity="1" d="M 11.183594 65.605469 C 11.199219 65.515625 11.230469 65.441406 11.230469 65.335938 C 11.230469 65.074219 11.046875 64.921875 10.792969 64.921875 C 10.640625 64.921875 10.238281 65.03125 10.175781 65.578125 C 9.90625 65.019531 9.378906 64.621094 8.777344 64.621094 C 7.058594 64.621094 5.191406 66.761719 5.191406 68.960938 C 5.191406 70.472656 6.109375 71.371094 7.195312 71.371094 C 8.082031 71.371094 8.792969 70.652344 8.941406 70.484375 L 8.957031 70.503906 C 8.644531 71.902344 8.460938 72.542969 8.460938 72.578125 C 8.402344 72.707031 7.890625 74.136719 6.292969 74.136719 C 6.003906 74.136719 5.507812 74.136719 5.085938 74.003906 C 5.542969 73.875 5.707031 73.503906 5.707031 73.257812 C 5.707031 73.027344 5.542969 72.753906 5.136719 72.753906 C 4.800781 72.753906 4.320312 73.011719 4.320312 73.589844 C 4.320312 74.179688 4.875 74.464844 6.320312 74.464844 C 8.203125 74.464844 9.289062 73.277344 9.511719 72.367188 Z M 9.226562 69.417969 C 9.140625 69.816406 8.792969 70.195312 8.460938 70.484375 C 8.144531 70.761719 7.679688 71.035156 7.246094 71.035156 C 6.492188 71.035156 6.265625 70.242188 6.265625 69.628906 C 6.265625 68.898438 6.703125 67.09375 7.109375 66.316406 C 7.511719 65.5625 8.160156 64.953125 8.792969 64.953125 C 9.785156 64.953125 9.996094 66.191406 9.996094 66.265625 C 9.996094 66.34375 9.960938 66.433594 9.949219 66.496094 L 9.226562 69.417969 "/>
<path fill-rule="evenodd" fill="rgb(0%, 0%, 0%)" fill-opacity="1" d="M 22.148438 67.535156 C 22.148438 65.929688 20.777344 64.621094 19.164062 64.621094 C 17.503906 64.621094 16.164062 65.960938 16.164062 67.535156 C 16.164062 69.128906 17.503906 70.453125 19.164062 70.453125 C 20.777344 70.453125 22.148438 69.144531 22.148438 67.535156 Z M 19.164062 69.839844 C 17.824219 69.839844 16.777344 68.792969 16.777344 67.535156 C 16.777344 66.28125 17.839844 65.234375 19.164062 65.234375 C 20.441406 65.234375 21.535156 66.253906 21.535156 67.535156 C 21.535156 68.820312 20.441406 69.839844 19.164062 69.839844 "/>
<path fill-rule="evenodd" fill="rgb(0%, 0%, 0%)" fill-opacity="1" d="M 31.976562 65.25 L 33.277344 65.25 C 33.578125 65.25 33.726562 65.25 33.726562 64.941406 C 33.726562 64.773438 33.578125 64.773438 33.320312 64.773438 L 32.066406 64.773438 L 32.386719 63.039062 C 32.445312 62.722656 32.65625 61.640625 32.746094 61.457031 C 32.882812 61.167969 33.136719 60.941406 33.453125 60.941406 C 33.515625 60.941406 33.90625 60.941406 34.191406 61.222656 C 33.53125 61.285156 33.382812 61.839844 33.382812 62.078125 C 33.382812 62.4375 33.652344 62.628906 33.9375 62.628906 C 34.328125 62.628906 34.761719 62.28125 34.761719 61.6875 C 34.761719 60.96875 34.070312 60.609375 33.453125 60.609375 C 32.941406 60.609375 31.992188 60.882812 31.539062 62.386719 C 31.449219 62.707031 31.402344 62.859375 31.042969 64.773438 L 30 64.773438 C 29.710938 64.773438 29.546875 64.773438 29.546875 65.066406 C 29.546875 65.25 29.683594 65.25 29.972656 65.25 L 30.964844 65.25 L 29.835938 71.269531 C 29.5625 72.75 29.308594 74.136719 28.523438 74.136719 C 28.464844 74.136719 28.085938 74.136719 27.800781 73.828125 C 28.492188 73.828125 28.625 73.25 28.625 73.007812 C 28.625 72.640625 28.355469 72.445312 28.070312 72.445312 C 27.679688 72.445312 27.246094 72.792969 27.246094 73.386719 C 27.246094 74.089844 27.910156 74.464844 28.523438 74.464844 C 29.355469 74.464844 29.960938 73.566406 30.230469 72.988281 C 30.710938 72.027344 31.058594 70.1875 31.074219 70.078125 L 31.976562 65.25 "/>
<path fill-rule="evenodd" fill="rgb(0%, 0%, 0%)" fill-opacity="1" d="M 50.132812 66.308594 C 50.359375 66.308594 50.644531 66.308594 50.644531 66.003906 C 50.644531 65.695312 50.359375 65.695312 50.152344 65.695312 L 41.164062 65.695312 C 40.957031 65.695312 40.671875 65.695312 40.671875 66.003906 C 40.671875 66.308594 40.957031 66.308594 41.183594 66.308594 Z M 50.152344 69.378906 C 50.359375 69.378906 50.644531 69.378906 50.644531 69.070312 C 50.644531 68.765625 50.359375 68.765625 50.132812 68.765625 L 41.183594 68.765625 C 40.957031 68.765625 40.671875 68.765625 40.671875 69.070312 C 40.671875 69.378906 40.957031 69.378906 41.164062 69.378906 L 50.152344 69.378906 "/>
<path fill-rule="evenodd" fill="rgb(0%, 0%, 0%)" fill-opacity="1" d="M 60.351562 60.945312 C 60.351562 60.933594 60.351562 60.785156 60.152344 60.785156 C 59.808594 60.785156 58.710938 60.933594 58.320312 60.933594 C 58.199219 60.945312 58.035156 60.960938 58.035156 61.226562 C 58.035156 61.398438 58.171875 61.398438 58.398438 61.398438 C 59.117188 61.398438 59.148438 61.507812 59.148438 61.660156 L 59.101562 61.96875 L 56.921875 70.789062 C 56.863281 71 56.863281 71.03125 56.863281 71.125 C 56.863281 71.472656 57.160156 71.550781 57.296875 71.550781 C 57.492188 71.550781 57.71875 71.410156 57.808594 71.226562 C 57.882812 71.089844 58.558594 68.226562 58.652344 67.84375 C 59.160156 67.886719 60.394531 68.136719 60.394531 69.15625 C 60.394531 69.265625 60.394531 69.328125 60.351562 69.484375 C 60.320312 69.667969 60.289062 69.855469 60.289062 70.027344 C 60.289062 70.933594 60.910156 71.550781 61.71875 71.550781 C 62.183594 71.550781 62.605469 71.304688 62.945312 70.734375 C 63.335938 70.054688 63.503906 69.207031 63.503906 69.175781 C 63.503906 69.019531 63.367188 69.019531 63.320312 69.019531 C 63.167969 69.019531 63.152344 69.082031 63.105469 69.296875 C 62.796875 70.429688 62.445312 71.21875 61.769531 71.21875 C 61.476562 71.21875 61.277344 71.046875 61.277344 70.492188 C 61.277344 70.226562 61.34375 69.871094 61.40625 69.621094 C 61.46875 69.359375 61.46875 69.296875 61.46875 69.144531 C 61.46875 68.136719 60.492188 67.6875 59.179688 67.515625 C 59.65625 67.246094 60.152344 66.761719 60.511719 66.402344 C 61.253906 65.601562 61.964844 64.953125 62.726562 64.953125 C 62.820312 64.953125 62.835938 64.953125 62.863281 64.953125 C 63.042969 64.953125 63.058594 64.953125 63.175781 65.03125 C 63.207031 65.042969 63.207031 65.054688 63.238281 65.082031 C 62.523438 65.082031 62.390625 65.707031 62.390625 65.902344 C 62.390625 66.160156 62.554688 66.464844 62.953125 66.464844 C 63.339844 66.464844 63.769531 66.136719 63.769531 65.558594 C 63.769531 65.109375 63.417969 64.621094 62.730469 64.621094 C 62.296875 64.621094 61.59375 64.742188 60.488281 65.945312 C 59.96875 66.519531 59.371094 67.121094 58.785156 67.34375 L 60.351562 60.945312 "/>
<path fill-rule="evenodd" fill="rgb(0%, 0%, 0%)" fill-opacity="1" d="M 74.730469 67.535156 C 74.730469 65.929688 73.363281 64.621094 71.746094 64.621094 C 70.085938 64.621094 68.746094 65.960938 68.746094 67.535156 C 68.746094 69.128906 70.085938 70.453125 71.746094 70.453125 C 73.363281 70.453125 74.730469 69.144531 74.730469 67.535156 Z M 71.746094 69.839844 C 70.410156 69.839844 69.359375 68.792969 69.359375 67.535156 C 69.359375 66.28125 70.421875 65.234375 71.746094 65.234375 C 73.023438 65.234375 74.117188 66.253906 74.117188 67.535156 C 74.117188 68.820312 73.023438 69.839844 71.746094 69.839844 "/>
<path fill-rule="evenodd" fill="rgb(0%, 0%, 0%)" fill-opacity="1" d="M 83.429688 60.945312 C 83.429688 60.933594 83.429688 60.785156 83.238281 60.785156 C 82.890625 60.785156 81.792969 60.933594 81.402344 60.933594 C 81.28125 60.945312 81.117188 60.960938 81.117188 61.226562 C 81.117188 61.398438 81.253906 61.398438 81.476562 61.398438 C 82.199219 61.398438 82.230469 61.507812 82.230469 61.660156 L 82.183594 61.96875 L 80.003906 70.789062 C 79.941406 71.003906 79.941406 71.035156 79.941406 71.128906 C 79.941406 71.476562 80.242188 71.550781 80.375 71.550781 C 80.613281 71.550781 80.851562 71.367188 80.925781 71.152344 L 81.210938 69.988281 L 81.535156 68.609375 C 81.625 68.277344 81.714844 67.9375 81.789062 67.585938 C 81.816406 67.492188 81.9375 66.988281 81.953125 66.898438 C 81.996094 66.757812 82.457031 65.902344 82.964844 65.488281 C 83.292969 65.242188 83.753906 64.953125 84.394531 64.953125 C 85.035156 64.953125 85.199219 65.472656 85.199219 66.023438 C 85.199219 66.851562 84.652344 68.519531 84.3125 69.453125 C 84.195312 69.804688 84.125 69.988281 84.125 70.292969 C 84.125 71.015625 84.636719 71.550781 85.320312 71.550781 C 86.691406 71.550781 87.230469 69.320312 87.230469 69.195312 C 87.230469 69.042969 87.101562 69.042969 87.058594 69.042969 C 86.917969 69.042969 86.917969 69.089844 86.84375 69.320312 C 86.632812 70.132812 86.171875 71.21875 85.386719 71.21875 C 85.144531 71.21875 85.042969 71.066406 85.042969 70.714844 C 85.042969 70.332031 85.167969 69.964844 85.289062 69.628906 C 85.507812 68.96875 86.117188 67.148438 86.117188 66.257812 C 86.117188 65.265625 85.53125 64.621094 84.429688 64.621094 C 83.507812 64.621094 82.804688 65.09375 82.257812 65.796875 L 83.429688 60.945312 "/>
</svg>
