<?xml version="1.0" encoding="UTF-8"?>
<svg xmlns="http://www.w3.org/2000/svg" xmlns:xlink="http://www.w3.org/1999/xlink" width="167.06" height="160.19" viewBox="0 0 167.06 160.19">
<defs>
<clipPath id="clip-0">
<path clip-rule="nonzero" d="M 0 79 L 166.125 79 L 166.125 80 L 0 80 Z M 0 79 "/>
</clipPath>
<clipPath id="clip-1">
<path clip-rule="nonzero" d="M 162 0.046875 L 163 0.046875 L 163 159.339844 L 162 159.339844 Z M 162 0.046875 "/>
</clipPath>
</defs>
<g clip-path="url(#clip-0)">
<path fill="none" stroke-width="2.5" stroke-linecap="round" stroke-linejoin="round" stroke="rgb(0%, 0%, 0%)" stroke-opacity="1" stroke-miterlimit="10" d="M -0.000000000000013398 800.958647 L 1670.636672 800.958647 " transform="matrix(0.0994405, 0, 0, -0.0994405, 0.000000000000001332, 159.339115)"/>
</g>
<g clip-path="url(#clip-1)">
<path fill="none" stroke-width="2.5" stroke-linecap="round" stroke-linejoin="round" stroke="rgb(0%, 0%, 0%)" stroke-opacity="1" stroke-miterlimit="10" d="M 1630.843709 0.346217 L 1630.843709 1601.531794 " transform="matrix(0.0994405, 0, 0, -0.0994405, 0.000000000000001332, 159.339115)"/>
</g>
<path fill="none" stroke-width="5" stroke-linecap="round" stroke-linejoin="round" stroke="rgb(100%, 0%, 0%)" stroke-opacity="1" stroke-miterlimit="10" d="M 1630.843709 800.958647 L 1519.360559 997.802221 L 1404.774108 1160.745175 L 1282.449045 1297.958228 L 1172.301493 1393.885589 L 1076.020591 1458.701374 L 976.793517 1508.550605 L 926.865722 1527.445388 L 873.91319 1543.119023 L 850.10812 1548.697109 L 825.163863 1553.568113 L 802.105157 1557.221367 L 781.285541 1559.813998 L 770.954298 1560.835338 L 759.758844 1561.73883 L 749.270472 1562.445912 L 739.567745 1562.878017 L 733.793248 1563.113711 L 728.372291 1563.231558 L 723.540569 1563.349404 L 718.316024 1563.427969 L 712.580809 1563.427969 L 709.477508 1563.388687 L 706.570618 1563.388687 L 701.424638 1563.310122 L 695.925117 1563.152993 L 690.700572 1562.995864 L 685.908132 1562.799452 L 675.144783 1562.210218 L 665.717033 1561.542419 L 655.73933 1560.678208 L 638.690815 1558.831941 L 620.11029 1556.239309 L 580.081632 1548.657827 L 544.491874 1539.505052 L 468.402071 1512.007446 L 404.293368 1479.442425 L 339.791841 1436.624725 L 279.768496 1385.714872 L 230.822758 1334.176502 L 148.447788 1217.272396 L 116.27559 1154.813549 L 87.717362 1084.223267 L 66.583488 1014.497196 L 58.255642 978.711026 L 50.831288 938.918062 L 48.002963 920.023279 L 45.685308 901.992706 L 43.917604 885.572707 " transform="matrix(0.0994405, 0, 0, -0.0994405, 0.000000000000001332, 159.339115)"/>
<path fill="none" stroke-width="5" stroke-linecap="round" stroke-linejoin="round" stroke="rgb(100%, 0%, 0%)" stroke-opacity="1" stroke-miterlimit="10" d="M 43.917604 885.572707 L 42.385595 868.052804 L 41.678514 858.075102 L 41.128562 849.079456 L 40.657174 839.848117 L 40.303633 831.441707 L 40.028657 821.542569 L 39.91081 816.318023 L 39.871528 813.68611 L 39.832246 810.818502 L 39.792964 805.98678 L 39.792964 795.969795 L 39.832246 791.413049 L 39.871528 787.209844 L 39.950093 782.69238 L 40.185787 774.521663 L 40.539327 764.818936 L 40.93215 755.901856 L 42.110619 737.557024 L 43.721193 718.3087 L 47.413729 686.175784 L 52.795403 651.253825 L 68.272627 580.899237 L 79.507363 542.206177 L 91.331333 507.598477 L 120.871618 437.204606 L 153.908027 375.177864 L 236.715102 260.905672 L 284.993041 211.252852 L 343.798635 162.267832 L 404.725473 122.199892 L 475.826425 86.688699 L 512.437522 72.547073 L 553.880342 59.701763 L 594.41967 50.195448 L 612.92163 46.81717 L 633.191294 43.753152 L 653.735933 41.396214 L 662.849425 40.571286 L 672.86641 39.78564 L 682.45129 39.235688 L 691.407653 38.842865 L 696.396504 38.685736 L 700.913968 38.567889 L 706.177795 38.489324 L 711.166647 38.450042 L 716.312627 38.450042 L 721.929995 38.489324 L 724.797603 38.528606 " transform="matrix(0.0994405, 0, 0, -0.0994405, 0.000000000000001332, 159.339115)"/>
<path fill="none" stroke-width="5" stroke-linecap="round" stroke-linejoin="round" stroke="rgb(100%, 0%, 0%)" stroke-opacity="1" stroke-miterlimit="10" d="M 724.797603 38.528606 L 727.861622 38.607171 L 733.400425 38.7643 L 738.939228 38.960712 L 744.242338 39.196405 L 754.220041 39.746358 L 765.965447 40.610568 L 776.964489 41.631908 L 802.183721 44.656644 L 825.360275 48.309898 L 850.815201 53.338031 L 897.757542 65.279849 L 944.503472 80.639225 L 988.342512 98.276975 L 1083.798486 147.772666 L 1192.531875 223.783904 L 1298.947609 320.457629 L 1416.715925 456.492212 L 1630.843709 800.958647 " transform="matrix(0.0994405, 0, 0, -0.0994405, 0.000000000000001332, 159.339115)"/>
</svg>
