<?xml version="1.0" encoding="UTF-8"?>
<svg xmlns="http://www.w3.org/2000/svg" xmlns:xlink="http://www.w3.org/1999/xlink" width="102.13" height="152.94" viewBox="0 0 102.13 152.94">
<defs>
<clipPath id="clip-0">
<path clip-rule="nonzero" d="M 0 76 L 101.265625 76 L 101.265625 77 L 0 77 Z M 0 76 "/>
</clipPath>
<clipPath id="clip-1">
<path clip-rule="nonzero" d="M 25 0.617188 L 26 0.617188 L 26 152.265625 L 25 152.265625 Z M 25 0.617188 "/>
</clipPath>
<clipPath id="clip-2">
<path clip-rule="nonzero" d="M 22 48 L 101.265625 48 L 101.265625 84 L 22 84 Z M 22 48 "/>
</clipPath>
<clipPath id="clip-3">
<path clip-rule="nonzero" d="M 78 99 L 101.265625 99 L 101.265625 105 L 78 105 Z M 78 99 "/>
</clipPath>
<clipPath id="clip-4">
<path clip-rule="nonzero" d="M 20 35 L 101.265625 35 L 101.265625 97 L 20 97 Z M 20 35 "/>
</clipPath>
<clipPath id="clip-5">
<path clip-rule="nonzero" d="M 85 112 L 101.265625 112 L 101.265625 117 L 85 117 Z M 85 112 "/>
</clipPath>
<clipPath id="clip-6">
<path clip-rule="nonzero" d="M 17 26 L 101.265625 26 L 101.265625 113 L 17 113 Z M 17 26 "/>
</clipPath>
<clipPath id="clip-7">
<path clip-rule="nonzero" d="M 60 112 L 101.265625 112 L 101.265625 127 L 60 127 Z M 60 112 "/>
</clipPath>
<clipPath id="clip-8">
<path clip-rule="nonzero" d="M 15 17 L 101.265625 17 L 101.265625 125 L 15 125 Z M 15 17 "/>
</clipPath>
<clipPath id="clip-9">
<path clip-rule="nonzero" d="M 72 124 L 101.265625 124 L 101.265625 135 L 72 135 Z M 72 124 "/>
</clipPath>
<clipPath id="clip-10">
<path clip-rule="nonzero" d="M 12 9 L 101.265625 9 L 101.265625 137 L 12 137 Z M 12 9 "/>
</clipPath>
<clipPath id="clip-11">
<path clip-rule="nonzero" d="M 83 136 L 101.265625 136 L 101.265625 143 L 83 143 Z M 83 136 "/>
</clipPath>
<clipPath id="clip-12">
<path clip-rule="nonzero" d="M 10 2 L 101.265625 2 L 101.265625 149 L 10 149 Z M 10 2 "/>
</clipPath>
<clipPath id="clip-13">
<path clip-rule="nonzero" d="M 95 148 L 101.265625 148 L 101.265625 151 L 95 151 Z M 95 148 "/>
</clipPath>
<clipPath id="clip-14">
<path clip-rule="nonzero" d="M 7 0.617188 L 91 0.617188 L 91 148 L 7 148 Z M 7 0.617188 "/>
</clipPath>
<clipPath id="clip-15">
<path clip-rule="nonzero" d="M 79 147 L 90 147 L 90 152.265625 L 79 152.265625 Z M 79 147 "/>
</clipPath>
<clipPath id="clip-16">
<path clip-rule="nonzero" d="M 5 0.617188 L 78 0.617188 L 78 146 L 5 146 Z M 5 0.617188 "/>
</clipPath>
<clipPath id="clip-17">
<path clip-rule="nonzero" d="M 63 145 L 77 145 L 77 152.265625 L 63 152.265625 Z M 63 145 "/>
</clipPath>
<clipPath id="clip-18">
<path clip-rule="nonzero" d="M 2 0.617188 L 67 0.617188 L 67 135 L 2 135 Z M 2 0.617188 "/>
</clipPath>
<clipPath id="clip-19">
<path clip-rule="nonzero" d="M 39 133 L 67 133 L 67 152.265625 L 39 152.265625 Z M 39 133 "/>
</clipPath>
<clipPath id="clip-20">
<path clip-rule="nonzero" d="M 0 0.617188 L 59 0.617188 L 59 141 L 0 141 Z M 0 0.617188 "/>
</clipPath>
<clipPath id="clip-21">
<path clip-rule="nonzero" d="M 40 140 L 59 140 L 59 152.265625 L 40 152.265625 Z M 40 140 "/>
</clipPath>
</defs>
<g clip-path="url(#clip-0)">
<path fill="none" stroke-width="2.5" stroke-linecap="round" stroke-linejoin="round" stroke="rgb(0%, 0%, 0%)" stroke-opacity="1" stroke-miterlimit="10" d="M 2.481901 764.688373 L 1018.761321 764.688373 " transform="matrix(0.0991553, 0, 0, -0.0991553, 0.000000000000000278, 152.264342)"/>
</g>
<g clip-path="url(#clip-1)">
<path fill="none" stroke-width="2.5" stroke-linecap="round" stroke-linejoin="round" stroke="rgb(0%, 0%, 0%)" stroke-opacity="1" stroke-miterlimit="10" d="M 256.581303 2.508355 L 256.581303 1526.907787 " transform="matrix(0.0991553, 0, 0, -0.0991553, 0.000000000000000278, 152.264342)"/>
</g>
<g clip-path="url(#clip-2)">
<path fill="none" stroke-width="5" stroke-linecap="round" stroke-linejoin="round" stroke="rgb(0%, 0%, 0%)" stroke-opacity="1" stroke-miterlimit="10" d="M 1018.761321 1043.331019 L 886.550842 1022.806091 L 686.26536 979.786471 L 572.255489 950.909749 L 441.660216 910.962959 L 375.358 885.749995 L 307.440578 852.736771 L 274.663725 831.187565 L 256.147955 815.114301 L 245.787002 803.256329 L 239.562552 793.919653 L 237.317022 789.704361 L 235.34726 785.410278 L 233.92903 781.470752 L 232.904754 778.00397 L 232.116849 774.576583 L 231.801687 772.725006 L 231.52592 770.991614 L 231.289548 768.509713 L 231.250153 767.603622 L 231.210758 766.855112 L 231.171362 766.421765 L 231.171362 762.876191 L 231.210758 762.088286 L 231.289548 761.182195 L 231.407734 759.56699 L 231.60471 758.030575 L 231.880477 756.218393 L 232.195639 754.485002 L 232.944149 751.215196 L 234.047216 747.551437 L 235.386655 744.005864 L 239.404971 735.811651 L 245.39305 726.671951 L 255.675212 714.813979 L 272.30001 700.040758 " transform="matrix(0.0991553, 0, 0, -0.0991553, 0.000000000000000278, 152.264342)"/>
</g>
<path fill="none" stroke-width="5" stroke-linecap="round" stroke-linejoin="round" stroke="rgb(0%, 0%, 0%)" stroke-opacity="1" stroke-miterlimit="10" d="M 272.30001 700.040758 L 305.392025 677.861229 L 334.189957 662.378893 L 375.121628 643.784332 L 559.964169 581.894385 L 793.578038 525.63796 " transform="matrix(0.0991553, 0, 0, -0.0991553, 0.000000000000000278, 152.264342)"/>
<g clip-path="url(#clip-3)">
<path fill="none" stroke-width="5" stroke-linecap="round" stroke-linejoin="round" stroke="rgb(0%, 0%, 0%)" stroke-opacity="1" stroke-miterlimit="10" d="M 793.578038 525.63796 L 1018.761321 482.303178 " transform="matrix(0.0991553, 0, 0, -0.0991553, 0.000000000000000278, 152.264342)"/>
</g>
<g clip-path="url(#clip-4)">
<path fill="none" stroke-width="5" stroke-linecap="round" stroke-linejoin="round" stroke="rgb(0%, 0%, 0%)" stroke-opacity="1" stroke-miterlimit="10" d="M 1018.761321 1170.223139 L 887.929676 1137.052333 L 626.778524 1057.237545 L 494.134697 1006.811617 L 358.339249 940.785168 L 292.785543 897.726153 L 255.714607 865.461438 L 234.992702 841.784889 L 222.543801 823.150933 L 218.052742 814.720348 L 214.152612 806.092787 L 211.276758 798.213736 L 209.228205 791.358962 L 207.69179 784.464792 L 207.022071 780.761638 L 206.509932 777.25546 L 206.19477 773.985654 L 206.037189 772.331053 L 205.919003 770.518871 L 205.840213 768.982456 L 205.800818 768.115761 L 205.761422 767.327855 L 205.761422 762.797401 L 205.800818 761.930705 L 205.800818 761.103405 L 205.879608 759.448804 L 205.997794 757.636622 L 206.273561 754.406211 L 206.628118 751.372777 L 207.179652 747.748413 L 207.809976 744.281631 L 209.346391 737.702623 L 211.552525 730.33571 L 214.192007 723.283959 L 222.189244 706.856137 L 234.244192 688.576739 L 254.769121 664.90019 L 288.058112 635.353748 L 354.202747 590.994689 L 411.798611 560.069413 " transform="matrix(0.0991553, 0, 0, -0.0991553, 0.000000000000000278, 152.264342)"/>
</g>
<path fill="none" stroke-width="5" stroke-linecap="round" stroke-linejoin="round" stroke="rgb(0%, 0%, 0%)" stroke-opacity="1" stroke-miterlimit="10" d="M 411.798611 560.069413 L 493.661954 522.801501 L 863.425827 399.100397 " transform="matrix(0.0991553, 0, 0, -0.0991553, 0.000000000000000278, 152.264342)"/>
<g clip-path="url(#clip-5)">
<path fill="none" stroke-width="5" stroke-linecap="round" stroke-linejoin="round" stroke="rgb(0%, 0%, 0%)" stroke-opacity="1" stroke-miterlimit="10" d="M 863.425827 399.100397 L 1018.761321 361.674904 " transform="matrix(0.0991553, 0, 0, -0.0991553, 0.000000000000000278, 152.264342)"/>
</g>
<g clip-path="url(#clip-6)">
<path fill="none" stroke-width="5" stroke-linecap="round" stroke-linejoin="round" stroke="rgb(0%, 0%, 0%)" stroke-opacity="1" stroke-miterlimit="10" d="M 1018.761321 1266.741516 L 811.896832 1203.51213 L 612.911394 1127.873239 L 409.198525 1028.87296 L 310.907361 964.18595 L 255.281259 915.847971 L 224.198402 880.352845 L 205.525051 852.382213 L 198.788462 839.736336 L 192.997359 826.775297 L 188.624486 814.95672 L 185.591051 804.635163 L 183.227336 794.353001 L 182.242454 788.758875 L 181.53334 783.558701 L 180.981806 778.634294 L 180.78483 776.152393 L 180.587854 773.43412 L 180.469668 771.149195 L 180.430273 769.849152 L 180.390877 768.667294 L 180.351482 767.603622 L 180.351482 761.851915 L 180.390877 760.512476 L 180.430273 759.291223 L 180.548458 756.809322 L 180.706039 754.091049 L 181.139387 749.245433 L 181.651526 744.714978 L 182.478826 739.278433 L 183.424312 734.117655 L 185.709237 724.229445 L 189.057834 713.198774 L 192.997359 702.60145 L 205.012912 677.979415 L 223.095335 650.560317 L 253.86303 615.025796 L 303.816215 570.666737 L 403.052865 504.12815 L 489.407266 457.759933 L 612.202279 401.858065 " transform="matrix(0.0991553, 0, 0, -0.0991553, 0.000000000000000278, 152.264342)"/>
</g>
<g clip-path="url(#clip-7)">
<path fill="none" stroke-width="5" stroke-linecap="round" stroke-linejoin="round" stroke="rgb(0%, 0%, 0%)" stroke-opacity="1" stroke-miterlimit="10" d="M 612.202279 401.858065 L 1018.761321 265.826246 " transform="matrix(0.0991553, 0, 0, -0.0991553, 0.000000000000000278, 152.264342)"/>
</g>
<g clip-path="url(#clip-8)">
<path fill="none" stroke-width="5" stroke-linecap="round" stroke-linejoin="round" stroke="rgb(0%, 0%, 0%)" stroke-opacity="1" stroke-miterlimit="10" d="M 1018.761321 1356.444514 L 997.01514 1349.786716 L 731.727486 1248.934861 L 460.097195 1116.921358 L 328.989783 1030.685142 L 254.847911 966.234503 L 213.443497 918.881405 L 188.545695 881.574098 L 179.563577 864.752324 L 171.763316 847.457806 L 165.972214 831.699704 L 161.914502 817.950759 L 158.762882 804.201815 L 157.462838 796.795507 L 156.477957 789.822547 L 155.768842 783.282934 L 155.532471 779.973733 L 155.256704 776.349369 L 155.099123 773.276539 L 155.059728 771.582543 L 155.020333 769.967338 L 154.980937 768.588504 L 154.941542 767.800599 L 154.941542 761.615543 L 154.980937 760.906429 L 155.020333 759.133642 L 155.059728 757.479041 L 155.217309 754.16984 L 155.414285 750.584872 L 156.005214 744.084654 L 156.674933 738.05718 L 157.778 730.808453 L 159.038649 723.874888 L 162.111479 710.716872 L 166.563143 695.983047 L 171.802712 681.879545 L 187.836581 649.023902 L 211.946478 612.504499 L 252.956939 565.112006 L 319.574317 506.019122 L 451.863587 417.301005 L 567.01592 355.411058 L 730.742604 280.914629 " transform="matrix(0.0991553, 0, 0, -0.0991553, 0.000000000000000278, 152.264342)"/>
</g>
<g clip-path="url(#clip-9)">
<path fill="none" stroke-width="5" stroke-linecap="round" stroke-linejoin="round" stroke="rgb(0%, 0%, 0%)" stroke-opacity="1" stroke-miterlimit="10" d="M 730.742604 280.914629 L 1018.761321 184.514437 " transform="matrix(0.0991553, 0, 0, -0.0991553, 0.000000000000000278, 152.264342)"/>
</g>
<g clip-path="url(#clip-10)">
<path fill="none" stroke-width="5" stroke-linecap="round" stroke-linejoin="round" stroke="rgb(0%, 0%, 0%)" stroke-opacity="1" stroke-miterlimit="10" d="M 1018.761321 1433.934983 L 850.504183 1369.996482 L 510.956471 1204.969755 L 347.111601 1097.184334 L 254.414564 1016.621036 L 202.649197 957.449361 L 171.526945 910.765983 L 160.299297 889.728916 L 150.568669 868.140316 L 143.319941 848.442688 L 138.237953 831.305751 L 134.337823 814.090024 L 132.683222 804.792744 L 131.461969 796.125788 L 130.595274 787.892179 L 130.240716 783.795072 L 129.96495 779.264618 L 129.767973 775.443278 L 129.689183 773.276539 L 129.610392 771.306776 L 129.570997 769.53399 L 129.570997 768.549108 L 129.531602 767.643017 L 129.531602 761.81252 L 129.570997 760.827638 L 129.570997 759.921547 L 129.610392 757.754808 L 129.689183 755.66686 L 129.886159 751.530358 L 130.161926 747.039299 L 130.831645 738.963271 L 131.737736 731.399382 L 133.077175 722.338473 L 134.652985 713.671517 L 138.51372 697.243695 L 144.029056 678.84611 L 150.608064 661.197036 L 170.660249 620.107784 L 200.79762 574.448682 L 252.050848 515.198217 L 335.332419 441.332112 L 500.713704 330.434466 L 644.624575 253.101578 L 849.28293 159.971193 " transform="matrix(0.0991553, 0, 0, -0.0991553, 0.000000000000000278, 152.264342)"/>
</g>
<g clip-path="url(#clip-11)">
<path fill="none" stroke-width="5" stroke-linecap="round" stroke-linejoin="round" stroke="rgb(0%, 0%, 0%)" stroke-opacity="1" stroke-miterlimit="10" d="M 849.28293 159.971193 L 1018.761321 103.242024 " transform="matrix(0.0991553, 0, 0, -0.0991553, 0.000000000000000278, 152.264342)"/>
</g>
<g clip-path="url(#clip-12)">
<path fill="none" stroke-width="5" stroke-linecap="round" stroke-linejoin="round" stroke="rgb(0%, 0%, 0%)" stroke-opacity="1" stroke-miterlimit="10" d="M 1018.761321 1509.849641 L 969.320275 1491.058104 L 561.855142 1293.018152 L 365.194024 1163.683527 L 253.981216 1067.007568 L 191.854897 995.977922 L 154.508194 939.997263 L 141.035017 914.744904 L 129.374021 888.822825 L 120.707065 865.225067 L 114.6008 844.621348 L 109.873369 823.938838 L 107.943002 812.829376 L 106.445982 802.389633 L 105.38231 792.540819 L 104.988357 787.616412 L 104.6338 782.179867 L 104.397429 777.570622 L 104.279243 775.00993 L 104.239847 772.60682 L 104.161057 770.518871 L 104.161057 769.337013 L 104.121662 768.233946 L 104.121662 761.260986 L 104.161057 760.039733 L 104.161057 758.976061 L 104.239847 756.375974 L 104.318638 753.854678 L 104.515614 748.890876 L 104.870172 743.493726 L 105.697472 733.802493 L 106.761144 724.741584 L 108.376349 713.829098 L 110.267322 703.468145 L 114.876567 683.731122 L 121.534365 661.630383 L 129.452811 640.475131 L 153.483918 591.191666 L 189.609367 536.353469 L 251.144757 465.323823 L 351.090522 376.645101 L 549.524427 243.567926 L 722.233229 150.792098 L 967.823255 38.988362 " transform="matrix(0.0991553, 0, 0, -0.0991553, 0.000000000000000278, 152.264342)"/>
</g>
<g clip-path="url(#clip-13)">
<path fill="none" stroke-width="5" stroke-linecap="round" stroke-linejoin="round" stroke="rgb(0%, 0%, 0%)" stroke-opacity="1" stroke-miterlimit="10" d="M 967.823255 38.988362 L 1018.761321 21.969611 " transform="matrix(0.0991553, 0, 0, -0.0991553, 0.000000000000000278, 152.264342)"/>
</g>
<g clip-path="url(#clip-14)">
<path fill="none" stroke-width="5" stroke-linecap="round" stroke-linejoin="round" stroke="rgb(0%, 0%, 0%)" stroke-opacity="1" stroke-miterlimit="10" d="M 912.827478 1526.907787 L 612.714417 1381.066549 L 383.315841 1230.222114 L 253.547868 1117.394101 L 181.060597 1034.545877 L 137.528839 969.228543 L 121.770736 939.760891 L 108.179373 909.465939 L 98.054792 881.968051 L 90.924251 857.936944 L 85.44831 833.827048 L 83.163386 820.826613 L 81.429994 808.653479 L 80.208741 797.18946 L 79.735998 791.437752 L 79.30265 785.095116 L 79.026884 779.737361 L 78.908698 776.703926 L 78.829907 773.906863 L 78.790512 771.503753 L 78.751117 770.124919 L 78.751117 768.824875 L 78.711722 767.485436 L 78.711722 762.127682 L 78.751117 760.670057 L 78.751117 759.291223 L 78.790512 758.030575 L 78.829907 754.957745 L 78.948093 752.042496 L 79.184465 746.251393 L 79.578417 739.948152 L 80.563299 728.641714 L 81.784552 718.083785 L 83.675524 705.359118 L 85.881658 693.264774 L 91.278808 670.218549 L 99.039674 644.454052 L 108.258164 619.753226 L 136.307586 562.275548 L 178.46051 498.337047 L 250.238666 415.410033 L 366.848624 311.997486 L 598.335149 156.701387 L 799.841884 48.482618 " transform="matrix(0.0991553, 0, 0, -0.0991553, 0.000000000000000278, 152.264342)"/>
</g>
<g clip-path="url(#clip-15)">
<path fill="none" stroke-width="5" stroke-linecap="round" stroke-linejoin="round" stroke="rgb(0%, 0%, 0%)" stroke-opacity="1" stroke-miterlimit="10" d="M 799.841884 48.482618 L 900.811925 2.508355 " transform="matrix(0.0991553, 0, 0, -0.0991553, 0.000000000000000278, 152.264342)"/>
</g>
<g clip-path="url(#clip-16)">
<path fill="none" stroke-width="5" stroke-linecap="round" stroke-linejoin="round" stroke="rgb(0%, 0%, 0%)" stroke-opacity="1" stroke-miterlimit="10" d="M 782.547366 1526.907787 L 663.613088 1469.114947 L 401.437659 1296.681911 L 253.153915 1167.780633 L 170.266297 1073.074438 L 120.510088 998.420427 L 102.545851 964.776879 L 86.984725 930.187844 L 75.40252 898.711034 L 67.287097 871.252541 L 60.983856 843.715257 L 58.383769 828.863245 L 56.414007 814.95672 L 54.995777 801.8381 L 54.483639 795.259092 L 53.971501 788.010365 L 53.695734 781.864705 L 53.538153 778.437318 L 53.459362 775.246302 L 53.380572 772.488634 L 53.341177 770.912824 L 53.341177 769.415804 L 53.301781 767.879389 L 53.301781 761.733729 L 53.341177 760.079128 L 53.341177 758.503318 L 53.380572 757.085089 L 53.459362 753.578911 L 53.577548 750.26971 L 53.853315 743.651307 L 54.286663 736.441975 L 55.38973 723.480935 L 56.807959 711.425987 L 58.974698 696.889138 L 61.495995 683.061403 L 67.641655 656.745372 L 76.544982 627.317115 L 87.063516 599.070717 L 119.131254 533.35943 L 167.311652 460.28123 L 249.332576 365.496244 L 382.606727 247.310476 L 647.185266 69.874242 " transform="matrix(0.0991553, 0, 0, -0.0991553, 0.000000000000000278, 152.264342)"/>
</g>
<g clip-path="url(#clip-17)">
<path fill="none" stroke-width="5" stroke-linecap="round" stroke-linejoin="round" stroke="rgb(0%, 0%, 0%)" stroke-opacity="1" stroke-miterlimit="10" d="M 647.185266 69.874242 L 772.540971 2.508355 " transform="matrix(0.0991553, 0, 0, -0.0991553, 0.000000000000000278, 152.264342)"/>
</g>
<g clip-path="url(#clip-18)">
<path fill="none" stroke-width="5" stroke-linecap="round" stroke-linejoin="round" stroke="rgb(0%, 0%, 0%)" stroke-opacity="1" stroke-miterlimit="10" d="M 668.4981 1526.907787 L 419.520082 1363.181103 L 252.720568 1218.167166 L 159.511392 1111.642393 L 103.491338 1027.651707 L 83.281571 989.792866 L 65.790078 950.870353 L 52.750248 915.454018 L 43.610548 884.568137 L 36.558798 853.564071 L 33.604153 836.860482 L 31.398019 821.220566 L 29.822209 806.48674 L 29.191885 799.080432 L 28.640351 790.925614 L 28.325189 784.031444 L 28.167608 780.131314 L 28.049422 776.585741 L 27.970632 773.43412 L 27.970632 771.661334 L 27.931237 770.006733 L 27.891841 768.273342 L 27.891841 761.379172 L 27.931237 759.488199 L 27.970632 757.754808 L 27.970632 756.139603 L 28.088818 752.200077 L 28.207003 748.457528 L 28.522165 741.011824 L 29.034304 732.857006 L 30.255557 718.320157 L 31.831367 704.728794 L 34.273873 688.419158 L 37.110331 672.858031 L 44.043896 643.232799 L 54.050291 610.101389 L 65.868868 578.348812 L 101.954923 504.443312 L 156.162795 422.225412 L 248.426485 315.62185 L 398.325434 182.623465 " transform="matrix(0.0991553, 0, 0, -0.0991553, 0.000000000000000278, 152.264342)"/>
</g>
<g clip-path="url(#clip-19)">
<path fill="none" stroke-width="5" stroke-linecap="round" stroke-linejoin="round" stroke="rgb(0%, 0%, 0%)" stroke-opacity="1" stroke-miterlimit="10" d="M 398.325434 182.623465 L 666.92229 2.508355 " transform="matrix(0.0991553, 0, 0, -0.0991553, 0.000000000000000278, 152.264342)"/>
</g>
<g clip-path="url(#clip-20)">
<path fill="none" stroke-width="5" stroke-linecap="round" stroke-linejoin="round" stroke="rgb(0%, 0%, 0%)" stroke-opacity="1" stroke-miterlimit="10" d="M 585.4529 1526.907787 L 437.641899 1429.719691 L 252.28722 1268.553698 L 148.717092 1150.170954 L 86.511982 1056.882987 L 64.017291 1014.808854 L 44.59543 971.552863 L 30.097976 932.197002 L 19.934 897.883734 L 12.094344 863.45228 L 8.824537 844.897115 L 6.382031 827.484411 L 4.609245 811.13538 L 3.939526 802.901772 L 3.348597 793.840863 L 2.954644 786.158788 L 2.797063 781.864705 L 2.678877 777.885784 L 2.600087 774.419002 L 2.560692 772.449239 L 2.521296 770.597662 L 2.521296 768.667294 L 2.481901 766.894508 L 2.481901 762.954982 L 2.521296 761.024614 L 2.521296 758.936666 L 2.560692 756.966903 L 2.600087 755.194117 L 2.678877 750.781848 L 2.836458 746.645346 L 3.191016 738.372342 L 3.742549 729.350829 L 5.121383 713.198774 L 6.854775 698.070995 L 9.573047 679.949178 L 12.764063 662.65466 L 20.406743 629.759621 L 31.516205 592.964452 L 44.67422 557.626907 L 84.778591 475.527194 L 145.013938 384.169595 L 247.520394 265.70806 L 414.083536 117.97585 " transform="matrix(0.0991553, 0, 0, -0.0991553, 0.000000000000000278, 152.264342)"/>
</g>
<g clip-path="url(#clip-21)">
<path fill="none" stroke-width="5" stroke-linecap="round" stroke-linejoin="round" stroke="rgb(0%, 0%, 0%)" stroke-opacity="1" stroke-miterlimit="10" d="M 414.083536 117.97585 L 586.240805 2.508355 " transform="matrix(0.0991553, 0, 0, -0.0991553, 0.000000000000000278, 152.264342)"/>
</g>
<path fill="none" stroke-width="60.976" stroke-linecap="round" stroke-linejoin="round" stroke="rgb(0%, 0%, 0%)" stroke-opacity="1" stroke-miterlimit="10" d="M 256.581303 764.688373 L 256.581303 764.688373 " transform="matrix(0.0991553, 0, 0, -0.0991553, 0.000000000000000278, 152.264342)"/>
</svg>
