<?xml version="1.0" encoding="UTF-8"?>
<svg xmlns="http://www.w3.org/2000/svg" xmlns:xlink="http://www.w3.org/1999/xlink" width="260" height="90" viewBox="0 0 260 90">
<path fill-rule="evenodd" fill="rgb(0%, 0%, 0%)" fill-opacity="1" d="M 66.15625 22.101562 C 65.714844 22.863281 65.285156 23.117188 64.679688 23.117188 C 64.539062 23.117188 64.441406 23.117188 64.441406 23.359375 C 64.441406 23.4375 64.503906 23.492188 64.59375 23.492188 C 64.820312 23.492188 65.386719 23.492188 65.613281 23.492188 C 65.980469 23.492188 66.382812 23.492188 66.738281 23.492188 C 66.8125 23.492188 66.964844 23.492188 66.964844 23.246094 C 66.964844 23.132812 66.863281 23.117188 66.785156 23.117188 C 66.496094 23.09375 66.257812 23.003906 66.257812 22.722656 C 66.257812 22.542969 66.335938 22.402344 66.496094 22.125 L 67.457031 20.519531 L 70.675781 20.519531 C 70.6875 20.636719 70.6875 20.738281 70.703125 20.851562 C 70.738281 21.183594 70.890625 22.507812 70.890625 22.75 C 70.890625 23.117188 70.246094 23.117188 70.042969 23.117188 C 69.90625 23.117188 69.765625 23.117188 69.765625 23.363281 C 69.765625 23.492188 69.878906 23.492188 69.957031 23.492188 C 70.167969 23.492188 70.421875 23.492188 70.636719 23.492188 L 71.355469 23.492188 C 72.128906 23.492188 72.683594 23.492188 72.695312 23.492188 C 72.785156 23.492188 72.921875 23.492188 72.921875 23.246094 C 72.921875 23.117188 72.808594 23.117188 72.621094 23.117188 C 71.925781 23.117188 71.914062 23.003906 71.875 22.617188 L 71.105469 14.625 C 71.082031 14.371094 71.027344 14.34375 70.890625 14.34375 C 70.765625 14.34375 70.6875 14.371094 70.574219 14.5625 Z M 67.671875 20.148438 L 70.207031 15.804688 L 70.636719 20.148438 Z M 67.671875 20.148438 "/>
<path fill-rule="evenodd" fill="rgb(0%, 0%, 0%)" fill-opacity="1" d="M 129.214844 15.625 C 129.332031 15.148438 129.382812 15.121094 129.878906 15.121094 L 131.535156 15.121094 C 132.976562 15.121094 132.976562 16.359375 132.976562 16.472656 C 132.976562 17.519531 131.945312 18.84375 130.261719 18.84375 L 128.425781 18.84375 Z M 131.335938 18.953125 C 132.734375 18.695312 134.003906 17.71875 134.003906 16.53125 C 134.003906 15.523438 133.128906 14.75 131.695312 14.75 L 127.621094 14.75 C 127.378906 14.75 127.265625 14.75 127.265625 14.992188 C 127.265625 15.121094 127.378906 15.121094 127.570312 15.121094 C 128.335938 15.121094 128.335938 15.222656 128.335938 15.367188 C 128.335938 15.394531 128.335938 15.46875 128.285156 15.660156 L 126.585938 22.542969 C 126.472656 22.992188 126.449219 23.117188 125.566406 23.117188 C 125.324219 23.117188 125.199219 23.117188 125.199219 23.351562 C 125.199219 23.492188 125.277344 23.492188 125.527344 23.492188 L 129.832031 23.492188 C 131.753906 23.492188 133.234375 22.015625 133.234375 20.734375 C 133.234375 19.691406 132.339844 19.054688 131.335938 18.953125 Z M 129.546875 23.117188 L 127.847656 23.117188 C 127.671875 23.117188 127.644531 23.117188 127.570312 23.105469 C 127.429688 23.09375 127.417969 23.070312 127.417969 22.96875 C 127.417969 22.878906 127.445312 22.800781 127.46875 22.6875 L 128.351562 19.121094 L 130.71875 19.121094 C 132.203125 19.121094 132.203125 20.511719 132.203125 20.613281 C 132.203125 21.828125 131.109375 23.117188 129.546875 23.117188 "/>
<path fill-rule="evenodd" fill="rgb(0%, 0%, 0%)" fill-opacity="1" d="M 195.132812 14.605469 C 195.132812 14.492188 195.046875 14.492188 195.023438 14.492188 C 194.996094 14.492188 194.945312 14.492188 194.84375 14.621094 L 193.976562 15.695312 C 193.535156 14.925781 192.84375 14.492188 191.898438 14.492188 C 189.179688 14.492188 186.359375 17.289062 186.359375 20.289062 C 186.359375 22.417969 187.832031 23.746094 189.671875 23.746094 C 190.679688 23.746094 191.558594 23.3125 192.289062 22.6875 C 193.386719 21.753906 193.710938 20.519531 193.710938 20.414062 C 193.710938 20.300781 193.613281 20.300781 193.574219 20.300781 C 193.460938 20.300781 193.445312 20.378906 193.421875 20.429688 C 192.84375 22.417969 191.140625 23.375 189.882812 23.375 C 188.546875 23.375 187.386719 22.507812 187.386719 20.695312 C 187.386719 20.285156 187.515625 18.066406 188.9375 16.394531 C 189.628906 15.582031 190.8125 14.863281 192.011719 14.863281 C 193.398438 14.863281 194.015625 16.023438 194.015625 17.328125 C 194.015625 17.65625 193.976562 17.941406 193.976562 17.992188 C 193.976562 18.105469 194.101562 18.105469 194.140625 18.105469 C 194.277344 18.105469 194.289062 18.09375 194.339844 17.863281 L 195.132812 14.605469 "/>
<path fill-rule="evenodd" fill="rgb(0%, 0%, 0%)" fill-opacity="1" d="M 254.015625 19.152344 C 254.015625 18.09375 253.953125 17.0625 253.511719 16.09375 C 253.007812 15.039062 252.121094 14.757812 251.515625 14.757812 C 250.800781 14.757812 249.925781 15.125 249.472656 16.183594 C 249.125 16.984375 249.003906 17.777344 249.003906 19.152344 C 249.003906 20.386719 249.089844 21.316406 249.535156 22.222656 C 250.015625 23.191406 250.871094 23.496094 251.515625 23.496094 C 252.59375 23.496094 253.210938 22.835938 253.570312 22.09375 C 254.015625 21.140625 254.015625 19.890625 254.015625 19.152344 Z M 251.503906 23.238281 C 251.101562 23.238281 250.28125 23.011719 250.039062 21.621094 C 249.902344 20.859375 249.902344 19.890625 249.902344 19 C 249.902344 17.957031 249.902344 17.011719 250.105469 16.261719 C 250.316406 15.410156 250.960938 15.015625 251.503906 15.015625 C 251.980469 15.015625 252.714844 15.308594 252.953125 16.402344 C 253.117188 17.128906 253.117188 18.132812 253.117188 19 C 253.117188 19.851562 253.117188 20.820312 252.976562 21.597656 C 252.738281 23 251.941406 23.238281 251.503906 23.238281 "/>
<path fill-rule="evenodd" fill="rgb(0%, 0%, 0%)" fill-opacity="1" d="M 10.195312 80.109375 C 10.195312 79.050781 10.136719 78.015625 9.691406 77.046875 C 9.1875 75.992188 8.300781 75.710938 7.695312 75.710938 C 6.980469 75.710938 6.109375 76.082031 5.652344 77.140625 C 5.308594 77.941406 5.183594 78.730469 5.183594 80.109375 C 5.183594 81.34375 5.269531 82.273438 5.714844 83.179688 C 6.199219 84.148438 7.054688 84.453125 7.695312 84.453125 C 8.773438 84.453125 9.390625 83.789062 9.75 83.050781 C 10.195312 82.09375 10.195312 80.847656 10.195312 80.109375 Z M 7.683594 84.195312 C 7.28125 84.195312 6.460938 83.964844 6.222656 82.578125 C 6.082031 81.8125 6.082031 80.84375 6.082031 79.957031 C 6.082031 78.910156 6.082031 77.96875 6.285156 77.214844 C 6.5 76.363281 7.140625 75.96875 7.683594 75.96875 C 8.164062 75.96875 8.894531 76.261719 9.132812 77.355469 C 9.296875 78.085938 9.296875 79.089844 9.296875 79.957031 C 9.296875 80.808594 9.296875 81.773438 9.160156 82.550781 C 8.917969 83.953125 8.125 84.195312 7.683594 84.195312 "/>
<path fill-rule="evenodd" fill="rgb(0%, 0%, 0%)" fill-opacity="1" d="M 64.652344 83.378906 C 64.210938 84.136719 63.78125 84.394531 63.175781 84.394531 C 63.035156 84.394531 62.9375 84.394531 62.9375 84.632812 C 62.9375 84.714844 63 84.765625 63.089844 84.765625 C 63.316406 84.765625 63.882812 84.765625 64.109375 84.765625 C 64.476562 84.765625 64.882812 84.765625 65.234375 84.765625 C 65.3125 84.765625 65.460938 84.765625 65.460938 84.523438 C 65.460938 84.40625 65.359375 84.394531 65.285156 84.394531 C 64.992188 84.371094 64.753906 84.277344 64.753906 84 C 64.753906 83.820312 64.832031 83.679688 64.992188 83.398438 L 65.953125 81.796875 L 69.171875 81.796875 C 69.183594 81.910156 69.183594 82.011719 69.199219 82.125 C 69.234375 82.457031 69.386719 83.78125 69.386719 84.023438 C 69.386719 84.394531 68.742188 84.394531 68.542969 84.394531 C 68.402344 84.394531 68.261719 84.394531 68.261719 84.636719 C 68.261719 84.765625 68.378906 84.765625 68.453125 84.765625 C 68.667969 84.765625 68.917969 84.765625 69.136719 84.765625 L 69.855469 84.765625 C 70.625 84.765625 71.179688 84.765625 71.191406 84.765625 C 71.28125 84.765625 71.417969 84.765625 71.417969 84.523438 C 71.417969 84.394531 71.304688 84.394531 71.117188 84.394531 C 70.421875 84.394531 70.410156 84.28125 70.371094 83.894531 L 69.601562 75.902344 C 69.578125 75.644531 69.527344 75.621094 69.386719 75.621094 C 69.261719 75.621094 69.183594 75.644531 69.070312 75.839844 Z M 66.167969 81.425781 L 68.707031 77.082031 L 69.136719 81.425781 Z M 66.167969 81.425781 "/>
<path fill-rule="evenodd" fill="rgb(0%, 0%, 0%)" fill-opacity="1" d="M 74.222656 76.035156 C 74.265625 75.921875 74.296875 75.863281 74.296875 75.777344 C 74.296875 75.492188 74.046875 75.304688 73.8125 75.304688 C 73.472656 75.304688 73.382812 75.605469 73.347656 75.726562 L 72.277344 79.433594 C 72.242188 79.535156 72.242188 79.5625 72.242188 79.570312 C 72.242188 79.648438 72.292969 79.664062 72.378906 79.691406 C 72.527344 79.757812 72.546875 79.757812 72.5625 79.757812 C 72.589844 79.757812 72.640625 79.757812 72.699219 79.613281 L 74.222656 76.035156 "/>
<path fill-rule="evenodd" fill="rgb(0%, 0%, 0%)" fill-opacity="1" d="M 127.714844 76.898438 C 127.828125 76.421875 127.878906 76.398438 128.375 76.398438 L 130.03125 76.398438 C 131.472656 76.398438 131.472656 77.632812 131.472656 77.75 C 131.472656 78.792969 130.441406 80.117188 128.757812 80.117188 L 126.921875 80.117188 Z M 129.832031 80.230469 C 131.230469 79.972656 132.5 78.992188 132.5 77.804688 C 132.5 76.796875 131.625 76.023438 130.191406 76.023438 L 126.117188 76.023438 C 125.878906 76.023438 125.761719 76.023438 125.761719 76.269531 C 125.761719 76.398438 125.878906 76.398438 126.066406 76.398438 C 126.832031 76.398438 126.832031 76.5 126.832031 76.640625 C 126.832031 76.667969 126.832031 76.746094 126.78125 76.9375 L 125.085938 83.816406 C 124.96875 84.265625 124.945312 84.394531 124.0625 84.394531 C 123.824219 84.394531 123.699219 84.394531 123.699219 84.625 C 123.699219 84.765625 123.773438 84.765625 124.023438 84.765625 L 128.328125 84.765625 C 130.25 84.765625 131.730469 83.292969 131.730469 82.007812 C 131.730469 80.964844 130.835938 80.332031 129.832031 80.230469 Z M 128.042969 84.394531 L 126.34375 84.394531 C 126.167969 84.394531 126.140625 84.394531 126.066406 84.382812 C 125.929688 84.367188 125.914062 84.34375 125.914062 84.242188 C 125.914062 84.152344 125.941406 84.078125 125.964844 83.960938 L 126.847656 80.394531 L 129.214844 80.394531 C 130.703125 80.394531 130.703125 81.789062 130.703125 81.886719 C 130.703125 83.101562 129.605469 84.394531 128.042969 84.394531 "/>
<path fill-rule="evenodd" fill="rgb(0%, 0%, 0%)" fill-opacity="1" d="M 135.566406 76.035156 C 135.609375 75.921875 135.640625 75.863281 135.640625 75.777344 C 135.640625 75.492188 135.390625 75.304688 135.152344 75.304688 C 134.816406 75.304688 134.722656 75.605469 134.691406 75.726562 L 133.617188 79.433594 C 133.585938 79.535156 133.585938 79.5625 133.585938 79.570312 C 133.585938 79.648438 133.636719 79.664062 133.722656 79.691406 C 133.871094 79.757812 133.890625 79.757812 133.90625 79.757812 C 133.929688 79.757812 133.980469 79.757812 134.039062 79.613281 L 135.566406 76.035156 "/>
<path fill-rule="evenodd" fill="rgb(0%, 0%, 0%)" fill-opacity="1" d="M 193.632812 75.882812 C 193.632812 75.769531 193.542969 75.769531 193.519531 75.769531 C 193.492188 75.769531 193.441406 75.769531 193.34375 75.898438 L 192.472656 76.96875 C 192.035156 76.203125 191.339844 75.769531 190.398438 75.769531 C 187.675781 75.769531 184.855469 78.5625 184.855469 81.566406 C 184.855469 83.695312 186.328125 85.023438 188.167969 85.023438 C 189.175781 85.023438 190.058594 84.589844 190.789062 83.960938 C 191.882812 83.03125 192.210938 81.792969 192.210938 81.691406 C 192.210938 81.578125 192.109375 81.578125 192.070312 81.578125 C 191.960938 81.578125 191.945312 81.652344 191.921875 81.707031 C 191.339844 83.695312 189.640625 84.652344 188.378906 84.652344 C 187.046875 84.652344 185.886719 83.785156 185.886719 81.972656 C 185.886719 81.5625 186.011719 79.34375 187.433594 77.667969 C 188.128906 76.855469 189.3125 76.140625 190.507812 76.140625 C 191.894531 76.140625 192.511719 77.300781 192.511719 78.601562 C 192.511719 78.933594 192.472656 79.21875 192.472656 79.265625 C 192.472656 79.382812 192.601562 79.382812 192.636719 79.382812 C 192.777344 79.382812 192.789062 79.371094 192.839844 79.140625 L 193.632812 75.882812 "/>
<path fill-rule="evenodd" fill="rgb(0%, 0%, 0%)" fill-opacity="1" d="M 196.378906 76.035156 C 196.421875 75.921875 196.457031 75.863281 196.457031 75.777344 C 196.457031 75.492188 196.203125 75.304688 195.96875 75.304688 C 195.628906 75.304688 195.535156 75.605469 195.503906 75.726562 L 194.433594 79.433594 C 194.398438 79.535156 194.398438 79.5625 194.398438 79.570312 C 194.398438 79.648438 194.449219 79.664062 194.535156 79.691406 C 194.683594 79.757812 194.703125 79.757812 194.71875 79.757812 C 194.742188 79.757812 194.796875 79.757812 194.855469 79.613281 L 196.378906 76.035156 "/>
<path fill="none" stroke-width="3.38" stroke-linecap="square" stroke-linejoin="miter" stroke="rgb(0%, 0%, 0%)" stroke-opacity="1" stroke-miterlimit="10" d="M 772.734375 709.023438 L 1180.546875 709.023438 " transform="matrix(0.1, 0, 0, -0.1, 0, 90)"/>
<path fill-rule="evenodd" fill="rgb(0%, 0%, 0%)" fill-opacity="1" d="M 120.839844 19.097656 L 116.382812 16.871094 L 118.054688 19.097656 L 116.382812 21.328125 Z M 120.839844 19.097656 "/>
<path fill-rule="evenodd" fill="rgb(0%, 0%, 0%)" fill-opacity="1" d="M 99.695312 8.742188 L 100.601562 8.742188 C 100.8125 8.742188 100.917969 8.742188 100.917969 8.527344 C 100.917969 8.410156 100.8125 8.410156 100.632812 8.410156 L 99.757812 8.410156 L 99.980469 7.199219 C 100.019531 6.976562 100.167969 6.222656 100.230469 6.09375 C 100.324219 5.894531 100.503906 5.734375 100.726562 5.734375 C 100.769531 5.734375 101.042969 5.734375 101.242188 5.929688 C 100.78125 5.976562 100.675781 6.359375 100.675781 6.527344 C 100.675781 6.78125 100.863281 6.910156 101.0625 6.910156 C 101.335938 6.910156 101.640625 6.671875 101.640625 6.257812 C 101.640625 5.753906 101.15625 5.503906 100.722656 5.503906 C 100.367188 5.503906 99.707031 5.691406 99.390625 6.746094 C 99.328125 6.96875 99.292969 7.074219 99.042969 8.410156 L 98.3125 8.410156 C 98.113281 8.410156 97.996094 8.410156 97.996094 8.613281 C 97.996094 8.742188 98.09375 8.742188 98.292969 8.742188 L 98.988281 8.742188 L 98.199219 12.945312 C 98.011719 13.976562 97.832031 14.945312 97.285156 14.945312 C 97.242188 14.945312 96.980469 14.945312 96.777344 14.730469 C 97.261719 14.730469 97.355469 14.328125 97.355469 14.160156 C 97.355469 13.902344 97.164062 13.765625 96.96875 13.765625 C 96.695312 13.765625 96.390625 14.007812 96.390625 14.421875 C 96.390625 14.914062 96.855469 15.175781 97.285156 15.175781 C 97.863281 15.175781 98.285156 14.546875 98.476562 14.144531 C 98.8125 13.472656 99.054688 12.1875 99.0625 12.113281 L 99.695312 8.742188 "/>
<path fill="none" stroke-width="3.38" stroke-linecap="square" stroke-linejoin="miter" stroke="rgb(0%, 0%, 0%)" stroke-opacity="1" stroke-miterlimit="10" d="M 1386.171875 709.023438 L 1791.484375 709.023438 " transform="matrix(0.1, 0, 0, -0.1, 0, 90)"/>
<path fill-rule="evenodd" fill="rgb(0%, 0%, 0%)" fill-opacity="1" d="M 181.933594 19.097656 L 177.476562 16.871094 L 179.148438 19.097656 L 177.476562 21.328125 Z M 181.933594 19.097656 "/>
<path fill-rule="evenodd" fill="rgb(0%, 0%, 0%)" fill-opacity="1" d="M 162.460938 8.992188 C 162.46875 8.929688 162.492188 8.875 162.492188 8.800781 C 162.492188 8.621094 162.367188 8.515625 162.1875 8.515625 C 162.082031 8.515625 161.800781 8.589844 161.757812 8.972656 C 161.566406 8.582031 161.199219 8.304688 160.78125 8.304688 C 159.582031 8.304688 158.277344 9.796875 158.277344 11.332031 C 158.277344 12.386719 158.917969 13.015625 159.675781 13.015625 C 160.296875 13.015625 160.789062 12.515625 160.894531 12.398438 L 160.90625 12.410156 C 160.6875 13.386719 160.558594 13.835938 160.558594 13.859375 C 160.519531 13.949219 160.160156 14.945312 159.046875 14.945312 C 158.84375 14.945312 158.496094 14.945312 158.203125 14.855469 C 158.523438 14.765625 158.636719 14.503906 158.636719 14.332031 C 158.636719 14.171875 158.523438 13.980469 158.238281 13.980469 C 158.003906 13.980469 157.667969 14.160156 157.667969 14.5625 C 157.667969 14.976562 158.058594 15.175781 159.066406 15.175781 C 160.378906 15.175781 161.136719 14.347656 161.292969 13.710938 Z M 161.09375 11.652344 C 161.03125 11.929688 160.789062 12.195312 160.558594 12.398438 C 160.339844 12.589844 160.011719 12.78125 159.710938 12.78125 C 159.183594 12.78125 159.027344 12.226562 159.027344 11.800781 C 159.027344 11.289062 159.332031 10.03125 159.613281 9.484375 C 159.898438 8.960938 160.351562 8.535156 160.789062 8.535156 C 161.484375 8.535156 161.628906 9.398438 161.628906 9.453125 C 161.628906 9.507812 161.609375 9.570312 161.597656 9.613281 L 161.09375 11.652344 "/>
<path fill="none" stroke-width="3.38" stroke-linecap="square" stroke-linejoin="miter" stroke="rgb(0%, 0%, 0%)" stroke-opacity="1" stroke-miterlimit="10" d="M 1994.296875 709.023438 L 2419.21875 709.023438 " transform="matrix(0.1, 0, 0, -0.1, 0, 90)"/>
<path fill-rule="evenodd" fill="rgb(0%, 0%, 0%)" fill-opacity="1" d="M 244.707031 19.097656 L 240.253906 16.871094 L 241.921875 19.097656 L 240.253906 21.328125 Z M 244.707031 19.097656 "/>
<path fill="none" stroke-width="3.38" stroke-linecap="square" stroke-linejoin="miter" stroke="rgb(0%, 0%, 0%)" stroke-opacity="1" stroke-miterlimit="10" d="M 147.460938 99.453125 L 559.804688 99.453125 " transform="matrix(0.1, 0, 0, -0.1, 0, 90)"/>
<path fill-rule="evenodd" fill="rgb(0%, 0%, 0%)" fill-opacity="1" d="M 58.765625 80.054688 L 54.3125 77.828125 L 55.980469 80.054688 L 54.3125 82.28125 Z M 58.765625 80.054688 "/>
<path fill="none" stroke-width="3.38" stroke-linecap="square" stroke-linejoin="miter" stroke="rgb(0%, 0%, 0%)" stroke-opacity="1" stroke-miterlimit="10" d="M 787.773438 99.453125 L 1165.507812 99.453125 " transform="matrix(0.1, 0, 0, -0.1, 0, 90)"/>
<path fill-rule="evenodd" fill="rgb(0%, 0%, 0%)" fill-opacity="1" d="M 119.335938 80.054688 L 114.878906 77.828125 L 116.550781 80.054688 L 114.878906 82.28125 Z M 119.335938 80.054688 "/>
<path fill-rule="evenodd" fill="rgb(0%, 0%, 0%)" fill-opacity="1" d="M 98.191406 69.699219 L 99.101562 69.699219 C 99.308594 69.699219 99.414062 69.699219 99.414062 69.484375 C 99.414062 69.367188 99.308594 69.367188 99.132812 69.367188 L 98.257812 69.367188 L 98.476562 68.15625 C 98.519531 67.933594 98.667969 67.175781 98.730469 67.050781 C 98.824219 66.847656 99.003906 66.6875 99.222656 66.6875 C 99.265625 66.6875 99.539062 66.6875 99.738281 66.886719 C 99.277344 66.929688 99.171875 67.316406 99.171875 67.480469 C 99.171875 67.734375 99.363281 67.867188 99.5625 67.867188 C 99.832031 67.867188 100.136719 67.625 100.136719 67.210938 C 100.136719 66.710938 99.652344 66.457031 99.222656 66.457031 C 98.867188 66.457031 98.203125 66.648438 97.886719 67.699219 C 97.824219 67.921875 97.792969 68.027344 97.539062 69.367188 L 96.8125 69.367188 C 96.609375 69.367188 96.496094 69.367188 96.496094 69.570312 C 96.496094 69.699219 96.589844 69.699219 96.792969 69.699219 L 97.488281 69.699219 L 96.699219 73.902344 C 96.507812 74.933594 96.332031 75.902344 95.78125 75.902344 C 95.742188 75.902344 95.476562 75.902344 95.277344 75.6875 C 95.757812 75.6875 95.851562 75.28125 95.851562 75.113281 C 95.851562 74.855469 95.664062 74.722656 95.464844 74.722656 C 95.195312 74.722656 94.890625 74.964844 94.890625 75.378906 C 94.890625 75.867188 95.351562 76.132812 95.78125 76.132812 C 96.363281 76.132812 96.785156 75.503906 96.972656 75.101562 C 97.308594 74.429688 97.550781 73.144531 97.5625 73.070312 L 98.191406 69.699219 "/>
<path fill-rule="evenodd" fill="rgb(0%, 0%, 0%)" fill-opacity="1" d="M 102.933594 66.542969 C 102.992188 66.414062 103 66.351562 103 66.300781 C 103 66.066406 102.792969 65.886719 102.558594 65.886719 C 102.277344 65.886719 102.1875 66.121094 102.148438 66.242188 L 101.164062 69.5 C 101.15625 69.515625 101.125 69.609375 101.125 69.621094 C 101.125 69.710938 101.359375 69.785156 101.417969 69.785156 C 101.46875 69.785156 101.476562 69.769531 101.527344 69.65625 L 102.933594 66.542969 "/>
<path fill="none" stroke-width="3.38" stroke-linecap="square" stroke-linejoin="miter" stroke="rgb(0%, 0%, 0%)" stroke-opacity="1" stroke-miterlimit="10" d="M 1401.171875 99.453125 L 1776.484375 99.453125 " transform="matrix(0.1, 0, 0, -0.1, 0, 90)"/>
<path fill-rule="evenodd" fill="rgb(0%, 0%, 0%)" fill-opacity="1" d="M 180.433594 80.054688 L 175.976562 77.828125 L 177.648438 80.054688 L 175.976562 82.28125 Z M 180.433594 80.054688 "/>
<path fill-rule="evenodd" fill="rgb(0%, 0%, 0%)" fill-opacity="1" d="M 160.957031 69.945312 C 160.96875 69.882812 160.988281 69.832031 160.988281 69.757812 C 160.988281 69.578125 160.863281 69.46875 160.683594 69.46875 C 160.578125 69.46875 160.296875 69.542969 160.253906 69.925781 C 160.066406 69.535156 159.695312 69.257812 159.277344 69.257812 C 158.078125 69.257812 156.773438 70.753906 156.773438 72.285156 C 156.773438 73.34375 157.414062 73.972656 158.171875 73.972656 C 158.792969 73.972656 159.285156 73.46875 159.390625 73.351562 L 159.402344 73.363281 C 159.183594 74.339844 159.058594 74.789062 159.058594 74.8125 C 159.015625 74.902344 158.65625 75.902344 157.542969 75.902344 C 157.34375 75.902344 156.996094 75.902344 156.699219 75.808594 C 157.019531 75.71875 157.132812 75.460938 157.132812 75.289062 C 157.132812 75.128906 157.019531 74.9375 156.734375 74.9375 C 156.503906 74.9375 156.164062 75.117188 156.164062 75.519531 C 156.164062 75.929688 156.554688 76.132812 157.5625 76.132812 C 158.878906 76.132812 159.632812 75.304688 159.789062 74.664062 Z M 159.589844 72.605469 C 159.527344 72.886719 159.285156 73.152344 159.054688 73.351562 C 158.835938 73.546875 158.511719 73.738281 158.207031 73.738281 C 157.683594 73.738281 157.523438 73.183594 157.523438 72.757812 C 157.523438 72.242188 157.828125 70.984375 158.113281 70.441406 C 158.394531 69.917969 158.847656 69.488281 159.285156 69.488281 C 159.980469 69.488281 160.128906 70.355469 160.128906 70.40625 C 160.128906 70.460938 160.105469 70.523438 160.09375 70.566406 L 159.589844 72.605469 "/>
<path fill-rule="evenodd" fill="rgb(0%, 0%, 0%)" fill-opacity="1" d="M 163.699219 66.542969 C 163.761719 66.414062 163.765625 66.355469 163.765625 66.300781 C 163.765625 66.066406 163.558594 65.886719 163.328125 65.886719 C 163.042969 65.886719 162.953125 66.121094 162.914062 66.242188 L 161.929688 69.5 C 161.921875 69.515625 161.894531 69.613281 161.894531 69.621094 C 161.894531 69.710938 162.125 69.785156 162.183594 69.785156 C 162.234375 69.785156 162.242188 69.769531 162.296875 69.65625 L 163.699219 66.542969 "/>
<path fill="none" stroke-width="3.38" stroke-linecap="square" stroke-linejoin="miter" stroke="rgb(0%, 0%, 0%)" stroke-opacity="1" stroke-miterlimit="10" d="M 687.695312 627.265625 L 687.695312 212.265625 " transform="matrix(0.1, 0, 0, -0.1, 0, 90)"/>
<path fill-rule="evenodd" fill="rgb(0%, 0%, 0%)" fill-opacity="1" d="M 68.769531 71.558594 L 71 67.101562 L 68.769531 68.773438 L 66.542969 67.101562 Z M 68.769531 71.558594 "/>
<path fill-rule="evenodd" fill="rgb(0%, 0%, 0%)" fill-opacity="1" d="M 77.804688 49.207031 C 77.804688 47.53125 76.820312 47.007812 76.039062 47.007812 C 74.59375 47.007812 73.199219 48.535156 73.199219 50.039062 C 73.199219 51.035156 73.824219 51.847656 74.890625 51.847656 C 75.550781 51.847656 76.304688 51.601562 77.097656 50.953125 C 77.238281 51.515625 77.59375 51.847656 78.078125 51.847656 C 78.644531 51.847656 78.980469 51.261719 78.980469 51.089844 C 78.980469 51.015625 78.914062 50.984375 78.851562 50.984375 C 78.78125 50.984375 78.746094 51.015625 78.714844 51.089844 C 78.527344 51.613281 78.148438 51.613281 78.128906 51.613281 C 77.804688 51.613281 77.804688 50.777344 77.804688 50.523438 C 77.804688 50.296875 77.804688 50.277344 77.910156 50.148438 C 78.894531 48.886719 79.117188 47.644531 79.117188 47.636719 C 79.117188 47.613281 79.105469 47.527344 78.988281 47.527344 C 78.886719 47.527344 78.886719 47.5625 78.832031 47.753906 C 78.644531 48.429688 78.296875 49.238281 77.804688 49.871094 Z M 77.054688 50.671875 C 76.128906 51.496094 75.316406 51.613281 74.894531 51.613281 C 74.265625 51.613281 73.949219 51.132812 73.949219 50.449219 C 73.949219 49.921875 74.222656 48.769531 74.5625 48.222656 C 75.0625 47.441406 75.632812 47.238281 76.003906 47.238281 C 77.054688 47.238281 77.054688 48.640625 77.054688 49.476562 C 77.054688 49.871094 77.054688 50.492188 77.054688 50.671875 "/>
<path fill="none" stroke-width="3.38" stroke-linecap="square" stroke-linejoin="miter" stroke="rgb(0%, 0%, 0%)" stroke-opacity="1" stroke-miterlimit="10" d="M 1297.265625 627.265625 L 1297.265625 212.265625 " transform="matrix(0.1, 0, 0, -0.1, 0, 90)"/>
<path fill-rule="evenodd" fill="rgb(0%, 0%, 0%)" fill-opacity="1" d="M 129.726562 71.558594 L 131.953125 67.101562 L 129.726562 68.773438 L 127.5 67.101562 Z M 129.726562 71.558594 "/>
<path fill-rule="evenodd" fill="rgb(0%, 0%, 0%)" fill-opacity="1" d="M 139.75 46.027344 C 139.75 45.234375 139.171875 44.578125 138.320312 44.578125 C 137.714844 44.578125 137.421875 44.746094 137.050781 45.023438 C 136.472656 45.449219 135.898438 46.476562 135.699219 47.285156 L 134.027344 54.023438 C 134.019531 54.066406 134.070312 54.128906 134.15625 54.128906 C 134.238281 54.128906 134.269531 54.105469 134.28125 54.078125 L 135.015625 51.183594 C 135.214844 51.824219 135.679688 52.21875 136.441406 52.21875 C 137.210938 52.21875 137.996094 51.84375 138.46875 51.371094 C 138.972656 50.878906 139.308594 50.191406 139.308594 49.398438 C 139.308594 48.632812 138.921875 48.078125 138.542969 47.8125 C 139.152344 47.457031 139.75 46.796875 139.75 46.027344 Z M 137.859375 47.796875 C 137.726562 47.867188 137.609375 47.898438 137.355469 47.898438 C 137.210938 47.898438 137 47.898438 136.894531 47.839844 C 136.914062 47.722656 137.292969 47.722656 137.40625 47.722656 C 137.628906 47.722656 137.726562 47.722656 137.859375 47.796875 Z M 139.160156 45.78125 C 139.160156 46.523438 138.765625 47.285156 138.21875 47.613281 C 137.933594 47.507812 137.726562 47.488281 137.40625 47.488281 C 137.1875 47.488281 136.601562 47.488281 136.601562 47.855469 C 136.589844 48.128906 137.136719 48.128906 137.324219 48.128906 C 137.714844 48.128906 137.871094 48.128906 138.1875 47.984375 C 138.585938 48.363281 138.636719 48.6875 138.648438 49.171875 C 138.667969 49.796875 138.417969 50.601562 138.121094 51.019531 C 137.714844 51.601562 137.011719 51.988281 136.410156 51.988281 C 135.613281 51.988281 135.214844 51.363281 135.214844 50.601562 C 135.214844 50.492188 135.214844 50.332031 135.269531 50.128906 L 135.9375 47.425781 C 136.171875 46.507812 136.925781 44.808594 138.1875 44.808594 C 138.792969 44.808594 139.160156 45.140625 139.160156 45.78125 "/>
<path fill="none" stroke-width="3.38" stroke-linecap="square" stroke-linejoin="miter" stroke="rgb(0%, 0%, 0%)" stroke-opacity="1" stroke-miterlimit="10" d="M 1906.835938 627.265625 L 1906.835938 212.265625 " transform="matrix(0.1, 0, 0, -0.1, 0, 90)"/>
<path fill-rule="evenodd" fill="rgb(0%, 0%, 0%)" fill-opacity="1" d="M 190.683594 71.558594 L 192.910156 67.101562 L 190.683594 68.773438 L 188.453125 67.101562 Z M 190.683594 71.558594 "/>
<path fill-rule="evenodd" fill="rgb(0%, 0%, 0%)" fill-opacity="1" d="M 195.148438 47.941406 C 195.558594 46.71875 196.703125 46.71875 196.816406 46.71875 C 198.402344 46.71875 198.519531 48.578125 198.519531 49.417969 C 198.519531 50.066406 198.46875 50.25 198.394531 50.460938 C 198.160156 51.238281 197.847656 52.472656 197.847656 52.746094 C 197.847656 52.863281 197.898438 52.941406 197.980469 52.941406 C 198.117188 52.941406 198.199219 52.707031 198.316406 52.304688 C 198.550781 51.410156 198.65625 50.804688 198.699219 50.476562 C 198.71875 50.339844 198.738281 50.203125 198.78125 50.0625 C 199.109375 49.011719 199.777344 47.429688 200.1875 46.59375 C 200.261719 46.464844 200.386719 46.230469 200.386719 46.1875 C 200.386719 46.085938 200.28125 46.085938 200.261719 46.085938 C 200.230469 46.085938 200.164062 46.085938 200.136719 46.160156 C 199.589844 47.164062 199.171875 48.21875 198.75 49.285156 C 198.75 48.957031 198.75 48.152344 198.339844 47.128906 C 198.089844 46.484375 197.671875 45.96875 196.949219 45.96875 C 195.640625 45.96875 194.90625 47.566406 194.90625 47.890625 C 194.90625 47.996094 195.003906 47.996094 195.109375 47.996094 L 195.148438 47.941406 "/>
</svg>
