<?xml version="1.0" encoding="UTF-8"?>
<svg xmlns="http://www.w3.org/2000/svg" xmlns:xlink="http://www.w3.org/1999/xlink" width="230.38" height="186.81" viewBox="0 0 230.38 186.81">
<defs>
<clipPath id="clip-0">
<path clip-rule="nonzero" d="M 61 126 L 103 126 L 103 182.027344 L 61 182.027344 Z M 61 126 "/>
</clipPath>
<clipPath id="clip-1">
<path clip-rule="nonzero" d="M 101 16 L 109.667969 16 L 109.667969 127 L 101 127 Z M 101 16 "/>
</clipPath>
<clipPath id="clip-2">
<path clip-rule="nonzero" d="M 61 16 L 109.667969 16 L 109.667969 65 L 61 65 Z M 61 16 "/>
</clipPath>
<clipPath id="clip-3">
<path clip-rule="nonzero" d="M 61 64 L 63 64 L 63 182.027344 L 61 182.027344 Z M 61 64 "/>
</clipPath>
<clipPath id="clip-4">
<path clip-rule="nonzero" d="M 5.5 47 L 15 47 L 15 164 L 5.5 164 Z M 5.5 47 "/>
</clipPath>
<clipPath id="clip-5">
<path clip-rule="nonzero" d="M 5.5 47 L 63 47 L 63 65 L 5.5 65 Z M 5.5 47 "/>
</clipPath>
<clipPath id="clip-6">
<path clip-rule="nonzero" d="M 61 64 L 63 64 L 63 182.027344 L 61 182.027344 Z M 61 64 "/>
</clipPath>
<clipPath id="clip-7">
<path clip-rule="nonzero" d="M 14 162 L 62 162 L 62 182.027344 L 14 182.027344 Z M 14 162 "/>
</clipPath>
</defs>
<path fill="none" stroke-width="2.5" stroke-linecap="round" stroke-linejoin="round" stroke="rgb(0%, 0%, 0%)" stroke-opacity="1" stroke-miterlimit="10" d="M 148.014456 234.572038 L 55.148016 1388.646115 " transform="matrix(0.0997316, 0, 0, -0.0997316, 0.000000000000004774, 186.464558)"/>
<path fill="none" stroke-width="2.5" stroke-linecap="round" stroke-linejoin="round" stroke="rgb(0%, 0%, 0%)" stroke-opacity="1" stroke-miterlimit="10" d="M 55.148016 1388.646115 L 593.546193 1823.641761 " transform="matrix(0.0997316, 0, 0, -0.0997316, 0.000000000000004774, 186.464558)"/>
<path fill="none" stroke-width="2.5" stroke-linecap="round" stroke-linejoin="round" stroke="rgb(0%, 0%, 0%)" stroke-opacity="1" stroke-miterlimit="10" d="M 593.546193 1823.641761 L 595.426239 748.451281 " transform="matrix(0.0997316, 0, 0, -0.0997316, 0.000000000000004774, 186.464558)"/>
<path fill="none" stroke-width="2.5" stroke-linecap="round" stroke-linejoin="round" stroke="rgb(0%, 0%, 0%)" stroke-opacity="1" stroke-miterlimit="10" d="M 595.426239 748.451281 L 148.014456 234.572038 " transform="matrix(0.0997316, 0, 0, -0.0997316, 0.000000000000004774, 186.464558)"/>
<path fill="none" stroke-width="2.5" stroke-linecap="round" stroke-linejoin="round" stroke="rgb(0%, 0%, 0%)" stroke-opacity="1" stroke-miterlimit="10" d="M 619.435993 44.491553 L 1023.920059 603.413565 " transform="matrix(0.0997316, 0, 0, -0.0997316, 0.000000000000004774, 186.464558)"/>
<path fill="none" stroke-width="2.5" stroke-linecap="round" stroke-linejoin="round" stroke="rgb(0%, 0%, 0%)" stroke-opacity="1" stroke-miterlimit="10" d="M 1023.920059 603.413565 L 1099.631078 1703.044643 " transform="matrix(0.0997316, 0, 0, -0.0997316, 0.000000000000004774, 186.464558)"/>
<path fill="none" stroke-width="2.5" stroke-linecap="round" stroke-linejoin="round" stroke="rgb(0%, 0%, 0%)" stroke-opacity="1" stroke-miterlimit="10" d="M 1099.631078 1703.044643 L 622.216894 1222.144541 " transform="matrix(0.0997316, 0, 0, -0.0997316, 0.000000000000004774, 186.464558)"/>
<path fill="none" stroke-width="2.5" stroke-linecap="round" stroke-linejoin="round" stroke="rgb(0%, 0%, 0%)" stroke-opacity="1" stroke-miterlimit="10" d="M 622.216894 1222.144541 L 619.435993 44.491553 " transform="matrix(0.0997316, 0, 0, -0.0997316, 0.000000000000004774, 186.464558)"/>
<path fill="none" stroke-width="2.5" stroke-linecap="round" stroke-linejoin="round" stroke="rgb(0%, 0%, 0%)" stroke-opacity="1" stroke-miterlimit="10" d="M 148.014456 234.572038 L 55.148016 1388.646115 " transform="matrix(0.0997316, 0, 0, -0.0997316, 0.000000000000004774, 186.464558)"/>
<path fill="none" stroke-width="2.5" stroke-linecap="round" stroke-linejoin="round" stroke="rgb(0%, 0%, 0%)" stroke-opacity="1" stroke-miterlimit="10" d="M 55.148016 1388.646115 L 622.216894 1222.144541 " transform="matrix(0.0997316, 0, 0, -0.0997316, 0.000000000000004774, 186.464558)"/>
<path fill="none" stroke-width="2.5" stroke-linecap="round" stroke-linejoin="round" stroke="rgb(0%, 0%, 0%)" stroke-opacity="1" stroke-miterlimit="10" d="M 622.216894 1222.144541 L 619.435993 44.491553 " transform="matrix(0.0997316, 0, 0, -0.0997316, 0.000000000000004774, 186.464558)"/>
<path fill="none" stroke-width="2.5" stroke-linecap="round" stroke-linejoin="round" stroke="rgb(0%, 0%, 0%)" stroke-opacity="1" stroke-miterlimit="10" d="M 619.435993 44.491553 L 148.014456 234.572038 " transform="matrix(0.0997316, 0, 0, -0.0997316, 0.000000000000004774, 186.464558)"/>
<path fill="none" stroke-width="2.5" stroke-linecap="round" stroke-linejoin="round" stroke="rgb(0%, 0%, 0%)" stroke-opacity="1" stroke-miterlimit="10" d="M 595.426239 748.451281 L 1023.920059 603.413565 " transform="matrix(0.0997316, 0, 0, -0.0997316, 0.000000000000004774, 186.464558)"/>
<path fill="none" stroke-width="2.5" stroke-linecap="round" stroke-linejoin="round" stroke="rgb(0%, 0%, 0%)" stroke-opacity="1" stroke-miterlimit="10" d="M 1023.920059 603.413565 L 1099.631078 1703.044643 " transform="matrix(0.0997316, 0, 0, -0.0997316, 0.000000000000004774, 186.464558)"/>
<path fill="none" stroke-width="2.5" stroke-linecap="round" stroke-linejoin="round" stroke="rgb(0%, 0%, 0%)" stroke-opacity="1" stroke-miterlimit="10" d="M 1099.631078 1703.044643 L 593.546193 1823.641761 " transform="matrix(0.0997316, 0, 0, -0.0997316, 0.000000000000004774, 186.464558)"/>
<path fill="none" stroke-width="2.5" stroke-linecap="round" stroke-linejoin="round" stroke="rgb(0%, 0%, 0%)" stroke-opacity="1" stroke-miterlimit="10" d="M 593.546193 1823.641761 L 595.426239 748.451281 " transform="matrix(0.0997316, 0, 0, -0.0997316, 0.000000000000004774, 186.464558)"/>
<path fill="none" stroke-width="52.2254" stroke-linecap="round" stroke-linejoin="round" stroke="rgb(0%, 0%, 0%)" stroke-opacity="1" stroke-miterlimit="10" d="M 494.843777 640.466138 L 494.843777 640.466138 " transform="matrix(0.0997316, 0, 0, -0.0997316, 0.000000000000004774, 186.464558)"/>
<path fill="none" stroke-width="52.2254" stroke-linecap="round" stroke-linejoin="round" stroke="rgb(0%, 0%, 0%)" stroke-opacity="1" stroke-miterlimit="10" d="M 1023.645885 880.563681 L 1023.645885 880.563681 " transform="matrix(0.0997316, 0, 0, -0.0997316, 0.000000000000004774, 186.464558)"/>
<path fill="none" stroke-width="52.2254" stroke-linecap="round" stroke-linejoin="round" stroke="rgb(0%, 0%, 0%)" stroke-opacity="1" stroke-miterlimit="10" d="M 584.655142 1413.830898 L 584.655142 1413.830898 " transform="matrix(0.0997316, 0, 0, -0.0997316, 0.000000000000004774, 186.464558)"/>
<path fill="none" stroke-width="52.2254" stroke-linecap="round" stroke-linejoin="round" stroke="rgb(0%, 0%, 0%)" stroke-opacity="1" stroke-miterlimit="10" d="M 356.386222 397.509359 L 356.386222 397.509359 " transform="matrix(0.0997316, 0, 0, -0.0997316, 0.000000000000004774, 186.464558)"/>
<path fill="none" stroke-width="52.2254" stroke-linecap="round" stroke-linejoin="round" stroke="rgb(0%, 0%, 0%)" stroke-opacity="1" stroke-miterlimit="10" d="M 667.768843 673.484446 L 667.768843 673.484446 " transform="matrix(0.0997316, 0, 0, -0.0997316, 0.000000000000004774, 186.464558)"/>
<path fill="none" stroke-width="52.2254" stroke-linecap="round" stroke-linejoin="round" stroke="rgb(0%, 0%, 0%)" stroke-opacity="1" stroke-miterlimit="10" d="M 279.382671 694.556629 L 279.382671 694.556629 " transform="matrix(0.0997316, 0, 0, -0.0997316, 0.000000000000004774, 186.464558)"/>
<path fill="none" stroke-width="52.2254" stroke-linecap="round" stroke-linejoin="round" stroke="rgb(0%, 0%, 0%)" stroke-opacity="1" stroke-miterlimit="10" d="M 327.637185 1320.494447 L 327.637185 1320.494447 " transform="matrix(0.0997316, 0, 0, -0.0997316, 0.000000000000004774, 186.464558)"/>
<g clip-path="url(#clip-0)">
<path fill="none" stroke-width="2.5" stroke-linecap="round" stroke-linejoin="round" stroke="rgb(0%, 0%, 0%)" stroke-opacity="1" stroke-miterlimit="10" d="M 619.435993 44.491553 L 1023.920059 603.413565 " transform="matrix(0.0997316, 0, 0, -0.0997316, 0.000000000000004774, 186.464558)"/>
</g>
<g clip-path="url(#clip-1)">
<path fill="none" stroke-width="2.5" stroke-linecap="round" stroke-linejoin="round" stroke="rgb(0%, 0%, 0%)" stroke-opacity="1" stroke-miterlimit="10" d="M 1023.920059 603.413565 L 1099.631078 1703.044643 " transform="matrix(0.0997316, 0, 0, -0.0997316, 0.000000000000004774, 186.464558)"/>
</g>
<g clip-path="url(#clip-2)">
<path fill="none" stroke-width="2.5" stroke-linecap="round" stroke-linejoin="round" stroke="rgb(0%, 0%, 0%)" stroke-opacity="1" stroke-miterlimit="10" d="M 1099.631078 1703.044643 L 622.216894 1222.144541 " transform="matrix(0.0997316, 0, 0, -0.0997316, 0.000000000000004774, 186.464558)"/>
</g>
<g clip-path="url(#clip-3)">
<path fill="none" stroke-width="2.5" stroke-linecap="round" stroke-linejoin="round" stroke="rgb(0%, 0%, 0%)" stroke-opacity="1" stroke-miterlimit="10" d="M 622.216894 1222.144541 L 619.435993 44.491553 " transform="matrix(0.0997316, 0, 0, -0.0997316, 0.000000000000004774, 186.464558)"/>
</g>
<g clip-path="url(#clip-4)">
<path fill="none" stroke-width="2.5" stroke-linecap="round" stroke-linejoin="round" stroke="rgb(0%, 0%, 0%)" stroke-opacity="1" stroke-miterlimit="10" d="M 148.014456 234.572038 L 55.148016 1388.646115 " transform="matrix(0.0997316, 0, 0, -0.0997316, 0.000000000000004774, 186.464558)"/>
</g>
<g clip-path="url(#clip-5)">
<path fill="none" stroke-width="2.5" stroke-linecap="round" stroke-linejoin="round" stroke="rgb(0%, 0%, 0%)" stroke-opacity="1" stroke-miterlimit="10" d="M 55.148016 1388.646115 L 622.216894 1222.144541 " transform="matrix(0.0997316, 0, 0, -0.0997316, 0.000000000000004774, 186.464558)"/>
</g>
<g clip-path="url(#clip-6)">
<path fill="none" stroke-width="2.5" stroke-linecap="round" stroke-linejoin="round" stroke="rgb(0%, 0%, 0%)" stroke-opacity="1" stroke-miterlimit="10" d="M 622.216894 1222.144541 L 619.435993 44.491553 " transform="matrix(0.0997316, 0, 0, -0.0997316, 0.000000000000004774, 186.464558)"/>
</g>
<g clip-path="url(#clip-7)">
<path fill="none" stroke-width="2.5" stroke-linecap="round" stroke-linejoin="round" stroke="rgb(0%, 0%, 0%)" stroke-opacity="1" stroke-miterlimit="10" d="M 619.435993 44.491553 L 148.014456 234.572038 " transform="matrix(0.0997316, 0, 0, -0.0997316, 0.000000000000004774, 186.464558)"/>
</g>
<path fill-rule="nonzero" fill="rgb(99.609375%, 81.834412%, 45.800781%)" fill-opacity="1" d="M 143.09375 114.5 L 163.949219 120.367188 L 150.515625 143.628906 "/>
<path fill="none" stroke-width="5" stroke-linecap="round" stroke-linejoin="round" stroke="rgb(0%, 0%, 0%)" stroke-opacity="1" stroke-miterlimit="10" d="M 1434.788447 721.58229 L 1643.904398 662.752517 L 1509.206935 429.509309 Z M 1434.788447 721.58229 " transform="matrix(0.0997316, 0, 0, -0.0997316, 0.000000000000004774, 186.464558)"/>
<path fill-rule="nonzero" fill="rgb(18.406677%, 53.514099%, 92.576599%)" fill-opacity="1" d="M 215.628906 96.765625 L 150.515625 143.628906 L 163.949219 120.367188 "/>
<path fill="none" stroke-width="5" stroke-linecap="round" stroke-linejoin="round" stroke="rgb(0%, 0%, 0%)" stroke-opacity="1" stroke-miterlimit="10" d="M 2162.09208 899.403309 L 1509.206935 429.509309 L 1643.904398 662.752517 Z M 2162.09208 899.403309 " transform="matrix(0.0997316, 0, 0, -0.0997316, 0.000000000000004774, 186.464558)"/>
<path fill-rule="nonzero" fill="rgb(98.4375%, 70.701599%, 34.593201%)" fill-opacity="1" d="M 172.746094 44.664062 L 163.949219 120.367188 L 143.09375 114.5 "/>
<path fill="none" stroke-width="5" stroke-linecap="round" stroke-linejoin="round" stroke="rgb(0%, 0%, 0%)" stroke-opacity="1" stroke-miterlimit="10" d="M 1732.10989 1421.821094 L 1643.904398 662.752517 L 1434.788447 721.58229 Z M 1732.10989 1421.821094 " transform="matrix(0.0997316, 0, 0, -0.0997316, 0.000000000000004774, 186.464558)"/>
<path fill-rule="nonzero" fill="rgb(65.818787%, 46.99707%, 61.914062%)" fill-opacity="1" d="M 172.746094 44.664062 L 215.628906 96.765625 L 163.949219 120.367188 "/>
<path fill="none" stroke-width="5" stroke-linecap="round" stroke-linejoin="round" stroke="rgb(0%, 0%, 0%)" stroke-opacity="1" stroke-miterlimit="10" d="M 1732.10989 1421.821094 L 2162.09208 899.403309 L 1643.904398 662.752517 Z M 1732.10989 1421.821094 " transform="matrix(0.0997316, 0, 0, -0.0997316, 0.000000000000004774, 186.464558)"/>
<path fill-rule="nonzero" fill="rgb(71.679688%, 18.701172%, 0%)" fill-opacity="1" d="M 215.628906 96.765625 L 180.839844 116.675781 L 150.515625 143.628906 "/>
<path fill="none" stroke-width="5" stroke-linecap="round" stroke-linejoin="round" stroke="rgb(0%, 0%, 0%)" stroke-opacity="1" stroke-miterlimit="10" d="M 2162.09208 899.403309 L 1813.26521 699.765923 L 1509.206935 429.509309 Z M 2162.09208 899.403309 " transform="matrix(0.0997316, 0, 0, -0.0997316, 0.000000000000004774, 186.464558)"/>
<path fill-rule="nonzero" fill="rgb(97.068787%, 67.771912%, 27.709961%)" fill-opacity="1" d="M 172.746094 44.664062 L 143.09375 114.5 L 147.894531 53.601562 "/>
<path fill="none" stroke-width="5" stroke-linecap="round" stroke-linejoin="round" stroke="rgb(0%, 0%, 0%)" stroke-opacity="1" stroke-miterlimit="10" d="M 1732.10989 1421.821094 L 1434.788447 721.58229 L 1482.925459 1332.205567 Z M 1732.10989 1421.821094 " transform="matrix(0.0997316, 0, 0, -0.0997316, 0.000000000000004774, 186.464558)"/>
<path fill-rule="nonzero" fill="rgb(92.771912%, 71.484375%, 59.179688%)" fill-opacity="1" d="M 215.628906 96.765625 L 147.894531 53.601562 L 180.839844 116.675781 "/>
<path fill="none" stroke-width="5" stroke-linecap="round" stroke-linejoin="round" stroke="rgb(0%, 0%, 0%)" stroke-opacity="1" stroke-miterlimit="10" d="M 2162.09208 899.403309 L 1482.925459 1332.205567 L 1813.26521 699.765923 Z M 2162.09208 899.403309 " transform="matrix(0.0997316, 0, 0, -0.0997316, 0.000000000000004774, 186.464558)"/>
<path fill-rule="nonzero" fill="rgb(88.867188%, 99.021912%, 78.125%)" fill-opacity="1" d="M 172.746094 44.664062 L 147.894531 53.601562 L 215.628906 96.765625 "/>
<path fill="none" stroke-width="5" stroke-linecap="round" stroke-linejoin="round" stroke="rgb(0%, 0%, 0%)" stroke-opacity="1" stroke-miterlimit="10" d="M 1732.10989 1421.821094 L 1482.925459 1332.205567 L 2162.09208 899.403309 Z M 1732.10989 1421.821094 " transform="matrix(0.0997316, 0, 0, -0.0997316, 0.000000000000004774, 186.464558)"/>
<path fill="none" stroke-width="50.8092" stroke-linecap="round" stroke-linejoin="round" stroke="rgb(0%, 0%, 0%)" stroke-opacity="1" stroke-miterlimit="10" d="M 2162.09208 899.403309 L 2162.09208 899.403309 " transform="matrix(0.0997316, 0, 0, -0.0997316, 0.000000000000004774, 186.464558)"/>
<path fill="none" stroke-width="50.8092" stroke-linecap="round" stroke-linejoin="round" stroke="rgb(0%, 0%, 0%)" stroke-opacity="1" stroke-miterlimit="10" d="M 1732.10989 1421.821094 L 1732.10989 1421.821094 " transform="matrix(0.0997316, 0, 0, -0.0997316, 0.000000000000004774, 186.464558)"/>
<path fill-rule="nonzero" fill="rgb(76.756287%, 48.193359%, 50.193787%)" fill-opacity="1" d="M 143.09375 114.5 L 150.515625 143.628906 L 180.839844 116.675781 "/>
<path fill="none" stroke-width="5" stroke-linecap="round" stroke-linejoin="round" stroke="rgb(0%, 0%, 0%)" stroke-opacity="1" stroke-miterlimit="10" d="M 1434.788447 721.58229 L 1509.206935 429.509309 L 1813.26521 699.765923 Z M 1434.788447 721.58229 " transform="matrix(0.0997316, 0, 0, -0.0997316, 0.000000000000004774, 186.464558)"/>
<path fill="none" stroke-width="50.8092" stroke-linecap="round" stroke-linejoin="round" stroke="rgb(0%, 0%, 0%)" stroke-opacity="1" stroke-miterlimit="10" d="M 1509.206935 429.509309 L 1509.206935 429.509309 " transform="matrix(0.0997316, 0, 0, -0.0997316, 0.000000000000004774, 186.464558)"/>
<path fill-rule="nonzero" fill="rgb(76.951599%, 49.291992%, 51.5625%)" fill-opacity="1" d="M 147.894531 53.601562 L 143.09375 114.5 L 180.839844 116.675781 "/>
<path fill="none" stroke-width="5" stroke-linecap="round" stroke-linejoin="round" stroke="rgb(0%, 0%, 0%)" stroke-opacity="1" stroke-miterlimit="10" d="M 1482.925459 1332.205567 L 1434.788447 721.58229 L 1813.26521 699.765923 Z M 1482.925459 1332.205567 " transform="matrix(0.0997316, 0, 0, -0.0997316, 0.000000000000004774, 186.464558)"/>
<path fill="none" stroke-width="50.8092" stroke-linecap="round" stroke-linejoin="round" stroke="rgb(0%, 0%, 0%)" stroke-opacity="1" stroke-miterlimit="10" d="M 1813.26521 699.765923 L 1813.26521 699.765923 " transform="matrix(0.0997316, 0, 0, -0.0997316, 0.000000000000004774, 186.464558)"/>
<path fill="none" stroke-width="50.8092" stroke-linecap="round" stroke-linejoin="round" stroke="rgb(0%, 0%, 0%)" stroke-opacity="1" stroke-miterlimit="10" d="M 1434.788447 721.58229 L 1434.788447 721.58229 " transform="matrix(0.0997316, 0, 0, -0.0997316, 0.000000000000004774, 186.464558)"/>
<path fill="none" stroke-width="50.8092" stroke-linecap="round" stroke-linejoin="round" stroke="rgb(0%, 0%, 0%)" stroke-opacity="1" stroke-miterlimit="10" d="M 1482.925459 1332.205567 L 1482.925459 1332.205567 " transform="matrix(0.0997316, 0, 0, -0.0997316, 0.000000000000004774, 186.464558)"/>
</svg>
