<?xml version="1.0" encoding="UTF-8"?>
<svg xmlns="http://www.w3.org/2000/svg" xmlns:xlink="http://www.w3.org/1999/xlink" width="390.5" height="164.42" viewBox="0 0 390.5 164.42">
<defs>
<clipPath id="clip-0">
<path clip-rule="nonzero" d="M 0.4375 0 L 197 0 L 197 163.84375 L 0.4375 163.84375 Z M 0.4375 0 "/>
</clipPath>
<clipPath id="clip-1">
<path clip-rule="nonzero" d="M 76 160 L 81 160 L 81 163.84375 L 76 163.84375 Z M 76 160 "/>
</clipPath>
<clipPath id="clip-2">
<path clip-rule="nonzero" d="M 0.4375 92 L 5 92 L 5 97 L 0.4375 97 Z M 0.4375 92 "/>
</clipPath>
<clipPath id="clip-3">
<path clip-rule="nonzero" d="M 230 1 L 389.566406 1 L 389.566406 163 L 230 163 Z M 230 1 "/>
</clipPath>
<clipPath id="clip-4">
<path clip-rule="nonzero" d="M 317 155 L 325 155 L 325 163.042969 L 317 163.042969 Z M 317 155 "/>
</clipPath>
<clipPath id="clip-5">
<path clip-rule="nonzero" d="M 381 84 L 389.566406 84 L 389.566406 93 L 381 93 Z M 381 84 "/>
</clipPath>
</defs>
<g clip-path="url(#clip-0)">
<path fill="none" stroke-width="10" stroke-linecap="butt" stroke-linejoin="miter" stroke="rgb(13.729858%, 12.159729%, 12.548828%)" stroke-opacity="1" stroke-miterlimit="11.5" d="M 877.423091 1624.756654 L 1218.622459 226.325331 L 896.631236 183.048205 L 156.568867 303.197109 Z M 1804.941271 663.604621 L 781.303968 10.057303 L 12.390182 702.060111 L 790.90804 1081.714967 Z M 1795.337199 663.604621 L 151.747231 298.375473 M 12.390182 697.277675 L 1209.018387 231.107767 M 877.423091 1629.57829 L 781.303968 19.661376 M 1084.087047 211.860422 L 497.768235 951.961991 M 795.729677 1086.536604 L 891.8488 183.048205 M 1031.205849 985.595844 L 521.798015 245.533475 M 824.581094 783.753525 L 718.818698 418.524377 " transform="matrix(0.0996485, 0, 0, -0.0996485, 0.437212, 163.842039)"/>
</g>
<path fill-rule="evenodd" fill="rgb(13.729858%, 12.159729%, 12.548828%)" fill-opacity="1" d="M 123.707031 141.453125 C 123.707031 142.507812 122.851562 143.367188 121.792969 143.367188 C 120.734375 143.367188 119.875 142.507812 119.875 141.453125 C 119.875 140.394531 120.734375 139.535156 121.792969 139.535156 C 122.851562 139.535156 123.707031 140.394531 123.707031 141.453125 "/>
<path fill-rule="nonzero" fill="rgb(92.321777%, 13.478088%, 17.372131%)" fill-opacity="1" d="M 123.707031 141.453125 C 123.707031 142.507812 122.851562 143.367188 121.792969 143.367188 C 120.734375 143.367188 119.875 142.507812 119.875 141.453125 C 119.875 140.394531 120.734375 139.535156 121.792969 139.535156 C 122.851562 139.535156 123.707031 140.394531 123.707031 141.453125 "/>
<path fill-rule="evenodd" fill="rgb(13.729858%, 12.159729%, 12.548828%)" fill-opacity="1" d="M 110.4375 143.347656 C 110.4375 144.40625 109.578125 145.261719 108.523438 145.261719 C 107.460938 145.261719 106.605469 144.40625 106.605469 143.347656 C 106.605469 142.289062 107.460938 141.433594 108.523438 141.433594 C 109.578125 141.433594 110.4375 142.289062 110.4375 143.347656 "/>
<path fill-rule="nonzero" fill="rgb(92.321777%, 13.478088%, 17.372131%)" fill-opacity="1" d="M 110.4375 143.347656 C 110.4375 144.40625 109.578125 145.261719 108.523438 145.261719 C 107.460938 145.261719 106.605469 144.40625 106.605469 143.347656 C 106.605469 142.289062 107.460938 141.433594 108.523438 141.433594 C 109.578125 141.433594 110.4375 142.289062 110.4375 143.347656 "/>
<path fill-rule="evenodd" fill="rgb(13.729858%, 12.159729%, 12.548828%)" fill-opacity="1" d="M 91.097656 145.625 C 91.097656 146.679688 90.238281 147.539062 89.183594 147.539062 C 88.125 147.539062 87.265625 146.679688 87.265625 145.625 C 87.265625 144.5625 88.125 143.707031 89.183594 143.707031 C 90.238281 143.707031 91.097656 144.5625 91.097656 145.625 "/>
<path fill-rule="nonzero" fill="rgb(92.321777%, 13.478088%, 17.372131%)" fill-opacity="1" d="M 91.097656 145.625 C 91.097656 146.679688 90.238281 147.539062 89.183594 147.539062 C 88.125 147.539062 87.265625 146.679688 87.265625 145.625 C 87.265625 144.5625 88.125 143.707031 89.183594 143.707031 C 90.238281 143.707031 91.097656 144.5625 91.097656 145.625 "/>
<g clip-path="url(#clip-1)">
<path fill-rule="evenodd" fill="rgb(13.729858%, 12.159729%, 12.548828%)" fill-opacity="1" d="M 80.101562 161.925781 C 80.101562 162.984375 79.246094 163.84375 78.1875 163.84375 C 77.128906 163.84375 76.269531 162.984375 76.269531 161.925781 C 76.269531 160.871094 77.128906 160.011719 78.1875 160.011719 C 79.246094 160.011719 80.101562 160.871094 80.101562 161.925781 "/>
<path fill-rule="nonzero" fill="rgb(92.321777%, 13.478088%, 17.372131%)" fill-opacity="1" d="M 80.101562 161.925781 C 80.101562 162.984375 79.246094 163.84375 78.1875 163.84375 C 77.128906 163.84375 76.269531 162.984375 76.269531 161.925781 C 76.269531 160.871094 77.128906 160.011719 78.1875 160.011719 C 79.246094 160.011719 80.101562 160.871094 80.101562 161.925781 "/>
</g>
<path fill-rule="evenodd" fill="rgb(13.729858%, 12.159729%, 12.548828%)" fill-opacity="1" d="M 53.941406 139.554688 C 53.941406 140.613281 53.082031 141.472656 52.023438 141.472656 C 50.96875 141.472656 50.109375 140.613281 50.109375 139.554688 C 50.109375 138.496094 50.96875 137.640625 52.023438 137.640625 C 53.082031 137.640625 53.941406 138.496094 53.941406 139.554688 "/>
<path fill-rule="nonzero" fill="rgb(92.321777%, 13.478088%, 17.372131%)" fill-opacity="1" d="M 53.941406 139.554688 C 53.941406 140.613281 53.082031 141.472656 52.023438 141.472656 C 50.96875 141.472656 50.109375 140.613281 50.109375 139.554688 C 50.109375 138.496094 50.96875 137.640625 52.023438 137.640625 C 53.082031 137.640625 53.941406 138.496094 53.941406 139.554688 "/>
<path fill-rule="evenodd" fill="rgb(13.729858%, 12.159729%, 12.548828%)" fill-opacity="1" d="M 73.65625 121.734375 C 73.65625 122.792969 72.796875 123.648438 71.742188 123.648438 C 70.683594 123.648438 69.824219 122.792969 69.824219 121.734375 C 69.824219 120.679688 70.683594 119.820312 71.742188 119.820312 C 72.796875 119.820312 73.65625 120.679688 73.65625 121.734375 "/>
<path fill-rule="nonzero" fill="rgb(92.321777%, 13.478088%, 17.372131%)" fill-opacity="1" d="M 73.65625 121.734375 C 73.65625 122.792969 72.796875 123.648438 71.742188 123.648438 C 70.683594 123.648438 69.824219 122.792969 69.824219 121.734375 C 69.824219 120.679688 70.683594 119.820312 71.742188 119.820312 C 72.796875 119.820312 73.65625 120.679688 73.65625 121.734375 "/>
<path fill-rule="evenodd" fill="rgb(13.729858%, 12.159729%, 12.548828%)" fill-opacity="1" d="M 78.964844 103.914062 C 78.964844 104.972656 78.105469 105.828125 77.050781 105.828125 C 75.992188 105.828125 75.132812 104.972656 75.132812 103.914062 C 75.132812 102.855469 75.992188 101.996094 77.050781 101.996094 C 78.105469 101.996094 78.964844 102.855469 78.964844 103.914062 "/>
<path fill-rule="nonzero" fill="rgb(92.321777%, 13.478088%, 17.372131%)" fill-opacity="1" d="M 78.964844 103.914062 C 78.964844 104.972656 78.105469 105.828125 77.050781 105.828125 C 75.992188 105.828125 75.132812 104.972656 75.132812 103.914062 C 75.132812 102.855469 75.992188 101.996094 77.050781 101.996094 C 78.105469 101.996094 78.964844 102.855469 78.964844 103.914062 "/>
<path fill-rule="evenodd" fill="rgb(13.729858%, 12.159729%, 12.548828%)" fill-opacity="1" d="M 17.917969 134.246094 C 17.917969 135.304688 17.058594 136.164062 16.003906 136.164062 C 14.945312 136.164062 14.085938 135.304688 14.085938 134.246094 C 14.085938 133.191406 14.945312 132.332031 16.003906 132.332031 C 17.058594 132.332031 17.917969 133.191406 17.917969 134.246094 "/>
<path fill-rule="nonzero" fill="rgb(92.321777%, 13.478088%, 17.372131%)" fill-opacity="1" d="M 17.917969 134.246094 C 17.917969 135.304688 17.058594 136.164062 16.003906 136.164062 C 14.945312 136.164062 14.085938 135.304688 14.085938 134.246094 C 14.085938 133.191406 14.945312 132.332031 16.003906 132.332031 C 17.058594 132.332031 17.917969 133.191406 17.917969 134.246094 "/>
<path fill-rule="evenodd" fill="rgb(13.729858%, 12.159729%, 12.548828%)" fill-opacity="1" d="M 84.652344 85.714844 C 84.652344 86.769531 83.792969 87.628906 82.738281 87.628906 C 81.679688 87.628906 80.820312 86.769531 80.820312 85.714844 C 80.820312 84.65625 81.679688 83.796875 82.738281 83.796875 C 83.792969 83.796875 84.652344 84.65625 84.652344 85.714844 "/>
<path fill-rule="nonzero" fill="rgb(92.321777%, 13.478088%, 17.372131%)" fill-opacity="1" d="M 84.652344 85.714844 C 84.652344 86.769531 83.792969 87.628906 82.738281 87.628906 C 81.679688 87.628906 80.820312 86.769531 80.820312 85.714844 C 80.820312 84.65625 81.679688 83.796875 82.738281 83.796875 C 83.792969 83.796875 84.652344 84.65625 84.652344 85.714844 "/>
<g clip-path="url(#clip-2)">
<path fill-rule="evenodd" fill="rgb(13.729858%, 12.159729%, 12.548828%)" fill-opacity="1" d="M 4.269531 94.433594 C 4.269531 95.492188 3.410156 96.347656 2.351562 96.347656 C 1.296875 96.347656 0.4375 95.492188 0.4375 94.433594 C 0.4375 93.378906 1.296875 92.519531 2.351562 92.519531 C 3.410156 92.519531 4.269531 93.378906 4.269531 94.433594 "/>
<path fill-rule="nonzero" fill="rgb(92.321777%, 13.478088%, 17.372131%)" fill-opacity="1" d="M 4.269531 94.433594 C 4.269531 95.492188 3.410156 96.347656 2.351562 96.347656 C 1.296875 96.347656 0.4375 95.492188 0.4375 94.433594 C 0.4375 93.378906 1.296875 92.519531 2.351562 92.519531 C 3.410156 92.519531 4.269531 93.378906 4.269531 94.433594 "/>
</g>
<path fill-rule="evenodd" fill="rgb(13.729858%, 12.159729%, 12.548828%)" fill-opacity="1" d="M 52.800781 69.789062 C 52.800781 70.84375 51.945312 71.703125 50.886719 71.703125 C 49.828125 71.703125 48.972656 70.84375 48.972656 69.789062 C 48.972656 68.730469 49.828125 67.871094 50.886719 67.871094 C 51.945312 67.871094 52.800781 68.730469 52.800781 69.789062 "/>
<path fill-rule="nonzero" fill="rgb(92.321777%, 13.478088%, 17.372131%)" fill-opacity="1" d="M 52.800781 69.789062 C 52.800781 70.84375 51.945312 71.703125 50.886719 71.703125 C 49.828125 71.703125 48.972656 70.84375 48.972656 69.789062 C 48.972656 68.730469 49.828125 67.871094 50.886719 67.871094 C 51.945312 67.871094 52.800781 68.730469 52.800781 69.789062 "/>
<path fill-rule="evenodd" fill="rgb(13.729858%, 12.159729%, 12.548828%)" fill-opacity="1" d="M 81.238281 56.136719 C 81.238281 57.195312 80.382812 58.054688 79.324219 58.054688 C 78.265625 58.054688 77.410156 57.195312 77.410156 56.136719 C 77.410156 55.082031 78.265625 54.222656 79.324219 54.222656 C 80.382812 54.222656 81.238281 55.082031 81.238281 56.136719 "/>
<path fill-rule="nonzero" fill="rgb(92.321777%, 13.478088%, 17.372131%)" fill-opacity="1" d="M 81.238281 56.136719 C 81.238281 57.195312 80.382812 58.054688 79.324219 58.054688 C 78.265625 58.054688 77.410156 57.195312 77.410156 56.136719 C 77.410156 55.082031 78.265625 54.222656 79.324219 54.222656 C 80.382812 54.222656 81.238281 55.082031 81.238281 56.136719 "/>
<path fill-rule="evenodd" fill="rgb(13.729858%, 12.159729%, 12.548828%)" fill-opacity="1" d="M 104.75 65.617188 C 104.75 66.675781 103.890625 67.53125 102.832031 67.53125 C 101.777344 67.53125 100.917969 66.675781 100.917969 65.617188 C 100.917969 64.558594 101.777344 63.703125 102.832031 63.703125 C 103.890625 63.703125 104.75 64.558594 104.75 65.617188 "/>
<path fill-rule="nonzero" fill="rgb(92.321777%, 13.478088%, 17.372131%)" fill-opacity="1" d="M 104.75 65.617188 C 104.75 66.675781 103.890625 67.53125 102.832031 67.53125 C 101.777344 67.53125 100.917969 66.675781 100.917969 65.617188 C 100.917969 64.558594 101.777344 63.703125 102.832031 63.703125 C 103.890625 63.703125 104.75 64.558594 104.75 65.617188 "/>
<path fill-rule="evenodd" fill="rgb(13.729858%, 12.159729%, 12.548828%)" fill-opacity="1" d="M 181.722656 97.847656 C 181.722656 98.90625 180.863281 99.761719 179.804688 99.761719 C 178.75 99.761719 177.890625 98.90625 177.890625 97.847656 C 177.890625 96.789062 178.75 95.929688 179.804688 95.929688 C 180.863281 95.929688 181.722656 96.789062 181.722656 97.847656 "/>
<path fill-rule="nonzero" fill="rgb(92.321777%, 13.478088%, 17.372131%)" fill-opacity="1" d="M 181.722656 97.847656 C 181.722656 98.90625 180.863281 99.761719 179.804688 99.761719 C 178.75 99.761719 177.890625 98.90625 177.890625 97.847656 C 177.890625 96.789062 178.75 95.929688 179.804688 95.929688 C 180.863281 95.929688 181.722656 96.789062 181.722656 97.847656 "/>
<path fill-rule="evenodd" fill="rgb(13.729858%, 12.159729%, 12.548828%)" fill-opacity="1" d="M 89.582031 1.917969 C 89.582031 2.972656 88.722656 3.832031 87.667969 3.832031 C 86.609375 3.832031 85.75 2.972656 85.75 1.917969 C 85.75 0.859375 86.609375 0 87.667969 0 C 88.722656 0 89.582031 0.859375 89.582031 1.917969 "/>
<path fill-rule="nonzero" fill="rgb(92.321777%, 13.478088%, 17.372131%)" fill-opacity="1" d="M 89.582031 1.917969 C 89.582031 2.972656 88.722656 3.832031 87.667969 3.832031 C 86.609375 3.832031 85.75 2.972656 85.75 1.917969 C 85.75 0.859375 86.609375 0 87.667969 0 C 88.722656 0 89.582031 0.859375 89.582031 1.917969 "/>
<g clip-path="url(#clip-3)">
<path fill="none" stroke-width="8.125" stroke-linecap="square" stroke-linejoin="miter" stroke="rgb(13.729858%, 12.159729%, 12.548828%)" stroke-opacity="1" stroke-miterlimit="3.239" d="M 2344.37653 445.846983 L 2406.273796 635.850812 M 2344.37653 445.846983 L 2821.248118 645.219683 M 2344.37653 445.846983 L 3174.364376 561.487853 M 2406.273796 635.850812 L 2654.372463 1398.962955 M 2406.273796 635.850812 L 2791.259893 1007.077606 M 2406.273796 635.850812 L 3054.999477 163.957661 M 2454.372558 1398.962955 L 2654.372463 1398.962955 M 2454.372558 1398.962955 L 2791.259893 1007.077606 M 2454.372558 1398.962955 L 2821.248118 645.219683 M 2654.372463 1398.962955 L 3126.265614 1147.101059 M 2654.372463 1398.962955 L 3456.253697 1398.962955 M 2791.259893 1007.077606 L 3174.364376 561.487853 M 2791.259893 1007.077606 L 3362.525791 872.11099 M 2791.259893 1007.077606 L 3394.395631 1588.966784 M 2821.248118 645.219683 L 3054.999477 163.957661 M 2821.248118 645.219683 L 3126.265614 1147.101059 M 2821.248118 645.219683 L 3362.525791 872.11099 M 3054.999477 163.957661 L 3216.896696 46.474377 M 3054.999477 163.957661 L 3703.764359 635.850812 M 3126.265614 1147.101059 L 3174.364376 561.487853 M 3126.265614 1147.101059 L 3394.395631 1588.966784 M 3126.265614 1147.101059 L 3865.622377 753.334096 M 3174.364376 561.487853 L 3216.896696 46.474377 M 3174.364376 561.487853 L 3703.764359 635.850812 M 3216.896696 46.474377 L 3362.525791 872.11099 M 3362.525791 872.11099 L 3456.253697 1398.962955 M 3362.525791 872.11099 L 3865.622377 753.334096 M 3394.395631 1588.966784 L 3456.253697 1398.962955 M 3456.253697 1398.962955 L 3703.764359 635.850812 M 3703.764359 635.850812 L 3865.622377 753.334096 " transform="matrix(0.0996485, 0, 0, -0.0996485, 0.437212, 163.842039)"/>
</g>
<path fill-rule="nonzero" fill="rgb(92.321777%, 13.478088%, 17.372131%)" fill-opacity="1" d="M 237.976562 119.414062 C 237.976562 118.355469 237.539062 117.359375 236.855469 116.613281 C 236.105469 115.925781 235.109375 115.492188 234.050781 115.492188 C 232.992188 115.492188 231.996094 115.925781 231.25 116.613281 C 230.5625 117.359375 230.128906 118.355469 230.128906 119.414062 C 230.128906 120.472656 230.5625 121.46875 231.25 122.21875 C 231.996094 122.902344 232.992188 123.339844 234.050781 123.339844 C 235.109375 123.339844 236.105469 122.902344 236.855469 122.21875 C 237.539062 121.46875 237.976562 120.472656 237.976562 119.414062 "/>
<path fill-rule="nonzero" fill="rgb(92.321777%, 13.478088%, 17.372131%)" fill-opacity="1" d="M 244.140625 100.480469 C 244.140625 99.421875 243.703125 98.425781 243.019531 97.679688 C 242.273438 96.992188 241.277344 96.558594 240.21875 96.558594 C 239.15625 96.558594 238.160156 96.992188 237.414062 97.679688 C 236.730469 98.425781 236.292969 99.421875 236.292969 100.480469 C 236.292969 101.539062 236.730469 102.535156 237.414062 103.285156 C 238.160156 103.96875 239.15625 104.40625 240.21875 104.40625 C 241.277344 104.40625 242.273438 103.96875 243.019531 103.285156 C 243.703125 102.535156 244.140625 101.539062 244.140625 100.480469 "/>
<path fill-rule="nonzero" fill="rgb(92.321777%, 13.478088%, 17.372131%)" fill-opacity="1" d="M 248.9375 24.4375 C 248.9375 23.378906 248.5 22.382812 247.816406 21.632812 C 247.066406 20.949219 246.070312 20.511719 245.011719 20.511719 C 243.953125 20.511719 242.957031 20.949219 242.210938 21.632812 C 241.523438 22.382812 241.089844 23.378906 241.089844 24.4375 C 241.089844 25.496094 241.523438 26.492188 242.210938 27.238281 C 242.957031 27.925781 243.953125 28.359375 245.011719 28.359375 C 246.070312 28.359375 247.066406 27.925781 247.816406 27.238281 C 248.5 26.492188 248.9375 25.496094 248.9375 24.4375 "/>
<path fill-rule="nonzero" fill="rgb(92.321777%, 13.478088%, 17.372131%)" fill-opacity="1" d="M 268.867188 24.4375 C 268.867188 23.378906 268.429688 22.382812 267.746094 21.632812 C 266.996094 20.949219 266 20.511719 264.941406 20.511719 C 263.882812 20.511719 262.886719 20.949219 262.140625 21.632812 C 261.453125 22.382812 261.019531 23.378906 261.019531 24.4375 C 261.019531 25.496094 261.453125 26.492188 262.140625 27.238281 C 262.886719 27.925781 263.882812 28.359375 264.941406 28.359375 C 266 28.359375 266.996094 27.925781 267.746094 27.238281 C 268.429688 26.492188 268.867188 25.496094 268.867188 24.4375 "/>
<path fill-rule="nonzero" fill="rgb(92.321777%, 13.478088%, 17.372131%)" fill-opacity="1" d="M 282.507812 63.488281 C 282.507812 62.429688 282.070312 61.429688 281.382812 60.683594 C 280.636719 60 279.640625 59.5625 278.582031 59.5625 C 277.523438 59.5625 276.527344 60 275.78125 60.683594 C 275.09375 61.429688 274.65625 62.429688 274.65625 63.488281 C 274.65625 64.546875 275.09375 65.542969 275.78125 66.289062 C 276.527344 66.972656 277.523438 67.410156 278.582031 67.410156 C 279.640625 67.410156 280.636719 66.972656 281.382812 66.289062 C 282.070312 65.542969 282.507812 64.546875 282.507812 63.488281 "/>
<path fill-rule="nonzero" fill="rgb(92.321777%, 13.478088%, 17.372131%)" fill-opacity="1" d="M 285.496094 99.546875 C 285.496094 98.488281 285.058594 97.492188 284.375 96.746094 C 283.625 96.058594 282.628906 95.625 281.570312 95.625 C 280.511719 95.625 279.515625 96.058594 278.769531 96.746094 C 278.082031 97.492188 277.648438 98.488281 277.648438 99.546875 C 277.648438 100.605469 278.082031 101.601562 278.769531 102.351562 C 279.515625 103.035156 280.511719 103.472656 281.570312 103.472656 C 282.628906 103.472656 283.625 103.035156 284.375 102.351562 C 285.058594 101.601562 285.496094 100.605469 285.496094 99.546875 "/>
<path fill-rule="nonzero" fill="rgb(92.321777%, 13.478088%, 17.372131%)" fill-opacity="1" d="M 308.789062 147.503906 C 308.789062 146.445312 308.351562 145.449219 307.667969 144.699219 C 306.921875 144.015625 305.921875 143.578125 304.863281 143.578125 C 303.804688 143.578125 302.808594 144.015625 302.0625 144.699219 C 301.375 145.449219 300.941406 146.445312 300.941406 147.503906 C 300.941406 148.5625 301.375 149.558594 302.0625 150.304688 C 302.808594 150.992188 303.804688 151.425781 304.863281 151.425781 C 305.921875 151.425781 306.921875 150.992188 307.667969 150.304688 C 308.351562 149.558594 308.789062 148.5625 308.789062 147.503906 "/>
<path fill-rule="nonzero" fill="rgb(92.321777%, 13.478088%, 17.372131%)" fill-opacity="1" d="M 315.886719 49.535156 C 315.886719 48.476562 315.453125 47.480469 314.765625 46.734375 C 314.019531 46.046875 313.023438 45.613281 311.964844 45.613281 C 310.90625 45.613281 309.910156 46.046875 309.164062 46.734375 C 308.476562 47.480469 308.039062 48.476562 308.039062 49.535156 C 308.039062 50.59375 308.476562 51.589844 309.164062 52.339844 C 309.910156 53.023438 310.90625 53.460938 311.964844 53.460938 C 313.023438 53.460938 314.019531 53.023438 314.765625 52.339844 C 315.453125 51.589844 315.886719 50.59375 315.886719 49.535156 "/>
<path fill-rule="nonzero" fill="rgb(92.321777%, 13.478088%, 17.372131%)" fill-opacity="1" d="M 320.683594 107.890625 C 320.683594 106.835938 320.246094 105.835938 319.5625 105.089844 C 318.816406 104.40625 317.820312 103.96875 316.757812 103.96875 C 315.699219 103.96875 314.703125 104.40625 313.957031 105.089844 C 313.273438 105.835938 312.835938 106.835938 312.835938 107.890625 C 312.835938 108.953125 313.273438 109.949219 313.957031 110.695312 C 314.703125 111.378906 315.699219 111.816406 316.757812 111.816406 C 317.820312 111.816406 318.816406 111.378906 319.5625 110.695312 C 320.246094 109.949219 320.683594 108.953125 320.683594 107.890625 "/>
<g clip-path="url(#clip-4)">
<path fill-rule="nonzero" fill="rgb(92.321777%, 13.478088%, 17.372131%)" fill-opacity="1" d="M 324.917969 159.210938 C 324.917969 158.152344 324.480469 157.15625 323.796875 156.410156 C 323.050781 155.722656 322.054688 155.289062 320.996094 155.289062 C 319.9375 155.289062 318.941406 155.722656 318.191406 156.410156 C 317.507812 157.15625 317.070312 158.152344 317.070312 159.210938 C 317.070312 160.269531 317.507812 161.265625 318.191406 162.015625 C 318.941406 162.699219 319.9375 163.136719 320.996094 163.136719 C 322.054688 163.136719 323.050781 162.699219 323.796875 162.015625 C 324.480469 161.265625 324.917969 160.269531 324.917969 159.210938 "/>
</g>
<path fill-rule="nonzero" fill="rgb(92.321777%, 13.478088%, 17.372131%)" fill-opacity="1" d="M 339.429688 76.9375 C 339.429688 75.878906 338.992188 74.882812 338.308594 74.136719 C 337.5625 73.453125 336.566406 73.015625 335.507812 73.015625 C 334.445312 73.015625 333.449219 73.453125 332.703125 74.136719 C 332.019531 74.882812 331.582031 75.878906 331.582031 76.9375 C 331.582031 77.996094 332.019531 78.996094 332.703125 79.742188 C 333.449219 80.425781 334.445312 80.863281 335.507812 80.863281 C 336.566406 80.863281 337.5625 80.425781 338.308594 79.742188 C 338.992188 78.996094 339.429688 77.996094 339.429688 76.9375 "/>
<path fill-rule="nonzero" fill="rgb(92.321777%, 13.478088%, 17.372131%)" fill-opacity="1" d="M 342.605469 5.503906 C 342.605469 4.445312 342.167969 3.449219 341.484375 2.703125 C 340.738281 2.015625 339.742188 1.582031 338.683594 1.582031 C 337.625 1.582031 336.628906 2.015625 335.878906 2.703125 C 335.195312 3.449219 334.757812 4.445312 334.757812 5.503906 C 334.757812 6.5625 335.195312 7.558594 335.878906 8.308594 C 336.628906 8.992188 337.625 9.429688 338.683594 9.429688 C 339.742188 9.429688 340.738281 8.992188 341.484375 8.308594 C 342.167969 7.558594 342.605469 6.5625 342.605469 5.503906 "/>
<path fill-rule="nonzero" fill="rgb(92.321777%, 13.478088%, 17.372131%)" fill-opacity="1" d="M 348.773438 24.4375 C 348.773438 23.378906 348.335938 22.382812 347.652344 21.632812 C 346.902344 20.949219 345.90625 20.511719 344.847656 20.511719 C 343.789062 20.511719 342.792969 20.949219 342.046875 21.632812 C 341.359375 22.382812 340.925781 23.378906 340.925781 24.4375 C 340.925781 25.496094 341.359375 26.492188 342.046875 27.238281 C 342.792969 27.925781 343.789062 28.359375 344.847656 28.359375 C 345.90625 28.359375 346.902344 27.925781 347.652344 27.238281 C 348.335938 26.492188 348.773438 25.496094 348.773438 24.4375 "/>
<path fill-rule="nonzero" fill="rgb(92.321777%, 13.478088%, 17.372131%)" fill-opacity="1" d="M 373.433594 100.480469 C 373.433594 99.421875 373 98.425781 372.3125 97.679688 C 371.566406 96.992188 370.570312 96.558594 369.511719 96.558594 C 368.453125 96.558594 367.457031 96.992188 366.710938 97.679688 C 366.023438 98.425781 365.585938 99.421875 365.585938 100.480469 C 365.585938 101.539062 366.023438 102.535156 366.710938 103.285156 C 367.457031 103.96875 368.453125 104.40625 369.511719 104.40625 C 370.570312 104.40625 371.566406 103.96875 372.3125 103.285156 C 373 102.535156 373.433594 101.539062 373.433594 100.480469 "/>
<g clip-path="url(#clip-5)">
<path fill-rule="nonzero" fill="rgb(92.321777%, 13.478088%, 17.372131%)" fill-opacity="1" d="M 389.566406 88.773438 C 389.566406 87.714844 389.128906 86.71875 388.445312 85.96875 C 387.695312 85.285156 386.699219 84.847656 385.640625 84.847656 C 384.582031 84.847656 383.585938 85.285156 382.839844 85.96875 C 382.15625 86.71875 381.71875 87.714844 381.71875 88.773438 C 381.71875 89.832031 382.15625 90.828125 382.839844 91.574219 C 383.585938 92.261719 384.582031 92.695312 385.640625 92.695312 C 386.699219 92.695312 387.695312 92.261719 388.445312 91.574219 C 389.128906 90.828125 389.566406 89.832031 389.566406 88.773438 "/>
</g>
</svg>
