<?xml version="1.0" encoding="UTF-8"?>
<svg xmlns="http://www.w3.org/2000/svg" xmlns:xlink="http://www.w3.org/1999/xlink" width="56" height="33" viewBox="0 0 56 33">
<path fill-rule="evenodd" fill="rgb(100%, 100%, 100%)" fill-opacity="1" stroke-width="1.25" stroke-linecap="butt" stroke-linejoin="miter" stroke="rgb(0%, 0%, 0%)" stroke-opacity="1" stroke-miterlimit="4" d="M 289.296875 312.03125 L 376.992188 160.15625 L 201.601562 160.15625 Z M 289.296875 312.03125 " transform="matrix(0.1, 0, 0, -0.1, 0, 33)"/>
<path fill-rule="evenodd" fill="rgb(100%, 100%, 100%)" fill-opacity="1" stroke-width="1.25" stroke-linecap="butt" stroke-linejoin="miter" stroke="rgb(0%, 0%, 0%)" stroke-opacity="1" stroke-miterlimit="4" d="M 114.921875 12.03125 L 202.617188 163.90625 L 27.226562 163.90625 Z M 114.921875 12.03125 " transform="matrix(0.1, 0, 0, -0.1, 0, 33)"/>
<path fill-rule="evenodd" fill="rgb(100%, 100%, 100%)" fill-opacity="1" stroke-width="1.25" stroke-linecap="butt" stroke-linejoin="miter" stroke="rgb(0%, 0%, 0%)" stroke-opacity="1" stroke-miterlimit="4" d="M 201.679688 163.90625 L 289.375 12.03125 L 114.023438 12.03125 Z M 201.679688 163.90625 " transform="matrix(0.1, 0, 0, -0.1, 0, 33)"/>
<path fill-rule="evenodd" fill="rgb(100%, 100%, 100%)" fill-opacity="1" stroke-width="1.25" stroke-linecap="butt" stroke-linejoin="miter" stroke="rgb(0%, 0%, 0%)" stroke-opacity="1" stroke-miterlimit="4" d="M 289.296875 12.03125 L 376.992188 163.90625 L 201.601562 163.90625 Z M 289.296875 12.03125 " transform="matrix(0.1, 0, 0, -0.1, 0, 33)"/>
<path fill-rule="evenodd" fill="rgb(100%, 100%, 100%)" fill-opacity="1" stroke-width="1.25" stroke-linecap="butt" stroke-linejoin="miter" stroke="rgb(0%, 0%, 0%)" stroke-opacity="1" stroke-miterlimit="4" d="M 376.054688 163.90625 L 463.75 12.03125 L 288.398438 12.03125 Z M 376.054688 163.90625 " transform="matrix(0.1, 0, 0, -0.1, 0, 33)"/>
<path fill-rule="evenodd" fill="rgb(100%, 100%, 100%)" fill-opacity="1" stroke-width="1.25" stroke-linecap="butt" stroke-linejoin="miter" stroke="rgb(0%, 0%, 0%)" stroke-opacity="1" stroke-miterlimit="4" d="M 463.671875 12.03125 L 551.367188 163.90625 L 375.976562 163.90625 Z M 463.671875 12.03125 " transform="matrix(0.1, 0, 0, -0.1, 0, 33)"/>
</svg>
