<?xml version="1.0" encoding="UTF-8"?>
<svg xmlns="http://www.w3.org/2000/svg" xmlns:xlink="http://www.w3.org/1999/xlink" width="308.5" height="71.75" viewBox="0 0 308.5 71.75">
<path fill="none" stroke-width="3.40827" stroke-linecap="round" stroke-linejoin="round" stroke="rgb(0%, 0%, 0%)" stroke-opacity="1" stroke-miterlimit="10" d="M 90.496516 34.150697 L 739.703833 358.754355 " transform="matrix(0.0996528, 0, 0, -0.0996528, 0.286458, 71.500868)"/>
<path fill="none" stroke-width="3.40827" stroke-linecap="round" stroke-linejoin="round" stroke="rgb(0%, 0%, 0%)" stroke-opacity="1" stroke-miterlimit="10" d="M 90.496516 34.150697 L 739.703833 683.358014 " transform="matrix(0.0996528, 0, 0, -0.0996528, 0.286458, 71.500868)"/>
<path fill="none" stroke-width="3.40827" stroke-linecap="round" stroke-linejoin="round" stroke="rgb(0%, 0%, 0%)" stroke-opacity="1" stroke-miterlimit="10" d="M 90.496516 358.754355 L 739.703833 34.150697 " transform="matrix(0.0996528, 0, 0, -0.0996528, 0.286458, 71.500868)"/>
<path fill="none" stroke-width="3.40827" stroke-linecap="round" stroke-linejoin="round" stroke="rgb(0%, 0%, 0%)" stroke-opacity="1" stroke-miterlimit="10" d="M 90.496516 358.754355 L 739.703833 683.358014 " transform="matrix(0.0996528, 0, 0, -0.0996528, 0.286458, 71.500868)"/>
<path fill="none" stroke-width="3.40827" stroke-linecap="round" stroke-linejoin="round" stroke="rgb(0%, 0%, 0%)" stroke-opacity="1" stroke-miterlimit="10" d="M 90.496516 683.358014 L 739.703833 34.150697 " transform="matrix(0.0996528, 0, 0, -0.0996528, 0.286458, 71.500868)"/>
<path fill="none" stroke-width="3.40827" stroke-linecap="round" stroke-linejoin="round" stroke="rgb(0%, 0%, 0%)" stroke-opacity="1" stroke-miterlimit="10" d="M 90.496516 683.358014 L 739.703833 358.754355 " transform="matrix(0.0996528, 0, 0, -0.0996528, 0.286458, 71.500868)"/>
<path fill="none" stroke-width="34.0827" stroke-linecap="round" stroke-linejoin="round" stroke="rgb(100%, 0%, 0%)" stroke-opacity="1" stroke-miterlimit="10" d="M 90.496516 34.150697 L 90.496516 34.150697 " transform="matrix(0.0996528, 0, 0, -0.0996528, 0.286458, 71.500868)"/>
<path fill="none" stroke-width="34.0827" stroke-linecap="round" stroke-linejoin="round" stroke="rgb(100%, 0%, 0%)" stroke-opacity="1" stroke-miterlimit="10" d="M 90.496516 358.754355 L 90.496516 358.754355 " transform="matrix(0.0996528, 0, 0, -0.0996528, 0.286458, 71.500868)"/>
<path fill="none" stroke-width="34.0827" stroke-linecap="round" stroke-linejoin="round" stroke="rgb(100%, 0%, 0%)" stroke-opacity="1" stroke-miterlimit="10" d="M 90.496516 683.358014 L 90.496516 683.358014 " transform="matrix(0.0996528, 0, 0, -0.0996528, 0.286458, 71.500868)"/>
<path fill="none" stroke-width="34.0827" stroke-linecap="round" stroke-linejoin="round" stroke="rgb(100%, 0%, 0%)" stroke-opacity="1" stroke-miterlimit="10" d="M 739.703833 34.150697 L 739.703833 34.150697 " transform="matrix(0.0996528, 0, 0, -0.0996528, 0.286458, 71.500868)"/>
<path fill="none" stroke-width="34.0827" stroke-linecap="round" stroke-linejoin="round" stroke="rgb(100%, 0%, 0%)" stroke-opacity="1" stroke-miterlimit="10" d="M 739.703833 358.754355 L 739.703833 358.754355 " transform="matrix(0.0996528, 0, 0, -0.0996528, 0.286458, 71.500868)"/>
<path fill="none" stroke-width="34.0827" stroke-linecap="round" stroke-linejoin="round" stroke="rgb(100%, 0%, 0%)" stroke-opacity="1" stroke-miterlimit="10" d="M 739.703833 683.358014 L 739.703833 683.358014 " transform="matrix(0.0996528, 0, 0, -0.0996528, 0.286458, 71.500868)"/>
<path fill="none" stroke-width="3.40828" stroke-linecap="round" stroke-linejoin="round" stroke="rgb(0%, 0%, 0%)" stroke-opacity="1" stroke-miterlimit="10" d="M 842.090592 34.150697 L 1491.297909 250.566202 " transform="matrix(0.0996528, 0, 0, -0.0996528, 0.286458, 71.500868)"/>
<path fill="none" stroke-width="3.40828" stroke-linecap="round" stroke-linejoin="round" stroke="rgb(0%, 0%, 0%)" stroke-opacity="1" stroke-miterlimit="10" d="M 842.090592 34.150697 L 1491.297909 466.942509 " transform="matrix(0.0996528, 0, 0, -0.0996528, 0.286458, 71.500868)"/>
<path fill="none" stroke-width="3.40828" stroke-linecap="round" stroke-linejoin="round" stroke="rgb(0%, 0%, 0%)" stroke-opacity="1" stroke-miterlimit="10" d="M 842.090592 34.150697 L 1491.297909 683.358014 " transform="matrix(0.0996528, 0, 0, -0.0996528, 0.286458, 71.500868)"/>
<path fill="none" stroke-width="3.40828" stroke-linecap="round" stroke-linejoin="round" stroke="rgb(0%, 0%, 0%)" stroke-opacity="1" stroke-miterlimit="10" d="M 842.090592 250.566202 L 1491.297909 34.150697 " transform="matrix(0.0996528, 0, 0, -0.0996528, 0.286458, 71.500868)"/>
<path fill="none" stroke-width="3.40828" stroke-linecap="round" stroke-linejoin="round" stroke="rgb(0%, 0%, 0%)" stroke-opacity="1" stroke-miterlimit="10" d="M 842.090592 250.566202 L 1491.297909 466.942509 " transform="matrix(0.0996528, 0, 0, -0.0996528, 0.286458, 71.500868)"/>
<path fill="none" stroke-width="3.40828" stroke-linecap="round" stroke-linejoin="round" stroke="rgb(0%, 0%, 0%)" stroke-opacity="1" stroke-miterlimit="10" d="M 842.090592 250.566202 L 1491.297909 683.358014 " transform="matrix(0.0996528, 0, 0, -0.0996528, 0.286458, 71.500868)"/>
<path fill="none" stroke-width="3.40828" stroke-linecap="round" stroke-linejoin="round" stroke="rgb(0%, 0%, 0%)" stroke-opacity="1" stroke-miterlimit="10" d="M 842.090592 466.942509 L 1491.297909 34.150697 " transform="matrix(0.0996528, 0, 0, -0.0996528, 0.286458, 71.500868)"/>
<path fill="none" stroke-width="3.40828" stroke-linecap="round" stroke-linejoin="round" stroke="rgb(0%, 0%, 0%)" stroke-opacity="1" stroke-miterlimit="10" d="M 842.090592 466.942509 L 1491.297909 250.566202 " transform="matrix(0.0996528, 0, 0, -0.0996528, 0.286458, 71.500868)"/>
<path fill="none" stroke-width="3.40828" stroke-linecap="round" stroke-linejoin="round" stroke="rgb(0%, 0%, 0%)" stroke-opacity="1" stroke-miterlimit="10" d="M 842.090592 466.942509 L 1491.297909 683.358014 " transform="matrix(0.0996528, 0, 0, -0.0996528, 0.286458, 71.500868)"/>
<path fill="none" stroke-width="3.40828" stroke-linecap="round" stroke-linejoin="round" stroke="rgb(0%, 0%, 0%)" stroke-opacity="1" stroke-miterlimit="10" d="M 842.090592 683.358014 L 1491.297909 34.150697 " transform="matrix(0.0996528, 0, 0, -0.0996528, 0.286458, 71.500868)"/>
<path fill="none" stroke-width="3.40828" stroke-linecap="round" stroke-linejoin="round" stroke="rgb(0%, 0%, 0%)" stroke-opacity="1" stroke-miterlimit="10" d="M 842.090592 683.358014 L 1491.297909 250.566202 " transform="matrix(0.0996528, 0, 0, -0.0996528, 0.286458, 71.500868)"/>
<path fill="none" stroke-width="3.40828" stroke-linecap="round" stroke-linejoin="round" stroke="rgb(0%, 0%, 0%)" stroke-opacity="1" stroke-miterlimit="10" d="M 842.090592 683.358014 L 1491.297909 466.942509 " transform="matrix(0.0996528, 0, 0, -0.0996528, 0.286458, 71.500868)"/>
<path fill="none" stroke-width="34.0828" stroke-linecap="round" stroke-linejoin="round" stroke="rgb(100%, 0%, 0%)" stroke-opacity="1" stroke-miterlimit="10" d="M 842.090592 34.150697 L 842.090592 34.150697 " transform="matrix(0.0996528, 0, 0, -0.0996528, 0.286458, 71.500868)"/>
<path fill="none" stroke-width="34.0828" stroke-linecap="round" stroke-linejoin="round" stroke="rgb(100%, 0%, 0%)" stroke-opacity="1" stroke-miterlimit="10" d="M 842.090592 250.566202 L 842.090592 250.566202 " transform="matrix(0.0996528, 0, 0, -0.0996528, 0.286458, 71.500868)"/>
<path fill="none" stroke-width="34.0828" stroke-linecap="round" stroke-linejoin="round" stroke="rgb(100%, 0%, 0%)" stroke-opacity="1" stroke-miterlimit="10" d="M 842.090592 466.942509 L 842.090592 466.942509 " transform="matrix(0.0996528, 0, 0, -0.0996528, 0.286458, 71.500868)"/>
<path fill="none" stroke-width="34.0828" stroke-linecap="round" stroke-linejoin="round" stroke="rgb(100%, 0%, 0%)" stroke-opacity="1" stroke-miterlimit="10" d="M 842.090592 683.358014 L 842.090592 683.358014 " transform="matrix(0.0996528, 0, 0, -0.0996528, 0.286458, 71.500868)"/>
<path fill="none" stroke-width="34.0828" stroke-linecap="round" stroke-linejoin="round" stroke="rgb(100%, 0%, 0%)" stroke-opacity="1" stroke-miterlimit="10" d="M 1491.297909 34.150697 L 1491.297909 34.150697 " transform="matrix(0.0996528, 0, 0, -0.0996528, 0.286458, 71.500868)"/>
<path fill="none" stroke-width="34.0828" stroke-linecap="round" stroke-linejoin="round" stroke="rgb(100%, 0%, 0%)" stroke-opacity="1" stroke-miterlimit="10" d="M 1491.297909 250.566202 L 1491.297909 250.566202 " transform="matrix(0.0996528, 0, 0, -0.0996528, 0.286458, 71.500868)"/>
<path fill="none" stroke-width="34.0828" stroke-linecap="round" stroke-linejoin="round" stroke="rgb(100%, 0%, 0%)" stroke-opacity="1" stroke-miterlimit="10" d="M 1491.297909 466.942509 L 1491.297909 466.942509 " transform="matrix(0.0996528, 0, 0, -0.0996528, 0.286458, 71.500868)"/>
<path fill="none" stroke-width="34.0828" stroke-linecap="round" stroke-linejoin="round" stroke="rgb(100%, 0%, 0%)" stroke-opacity="1" stroke-miterlimit="10" d="M 1491.297909 683.358014 L 1491.297909 683.358014 " transform="matrix(0.0996528, 0, 0, -0.0996528, 0.286458, 71.500868)"/>
<path fill="none" stroke-width="3.40828" stroke-linecap="round" stroke-linejoin="round" stroke="rgb(0%, 0%, 0%)" stroke-opacity="1" stroke-miterlimit="10" d="M 1593.684669 34.150697 L 2242.891986 196.432927 " transform="matrix(0.0996528, 0, 0, -0.0996528, 0.286458, 71.500868)"/>
<path fill="none" stroke-width="3.40828" stroke-linecap="round" stroke-linejoin="round" stroke="rgb(0%, 0%, 0%)" stroke-opacity="1" stroke-miterlimit="10" d="M 1593.684669 34.150697 L 2242.891986 358.754355 " transform="matrix(0.0996528, 0, 0, -0.0996528, 0.286458, 71.500868)"/>
<path fill="none" stroke-width="3.40828" stroke-linecap="round" stroke-linejoin="round" stroke="rgb(0%, 0%, 0%)" stroke-opacity="1" stroke-miterlimit="10" d="M 1593.684669 34.150697 L 2242.891986 521.036585 " transform="matrix(0.0996528, 0, 0, -0.0996528, 0.286458, 71.500868)"/>
<path fill="none" stroke-width="3.40828" stroke-linecap="round" stroke-linejoin="round" stroke="rgb(0%, 0%, 0%)" stroke-opacity="1" stroke-miterlimit="10" d="M 1593.684669 34.150697 L 2242.891986 683.358014 " transform="matrix(0.0996528, 0, 0, -0.0996528, 0.286458, 71.500868)"/>
<path fill="none" stroke-width="3.40828" stroke-linecap="round" stroke-linejoin="round" stroke="rgb(0%, 0%, 0%)" stroke-opacity="1" stroke-miterlimit="10" d="M 1593.684669 196.432927 L 2242.891986 34.150697 " transform="matrix(0.0996528, 0, 0, -0.0996528, 0.286458, 71.500868)"/>
<path fill="none" stroke-width="3.40828" stroke-linecap="round" stroke-linejoin="round" stroke="rgb(0%, 0%, 0%)" stroke-opacity="1" stroke-miterlimit="10" d="M 1593.684669 196.432927 L 2242.891986 358.754355 " transform="matrix(0.0996528, 0, 0, -0.0996528, 0.286458, 71.500868)"/>
<path fill="none" stroke-width="3.40828" stroke-linecap="round" stroke-linejoin="round" stroke="rgb(0%, 0%, 0%)" stroke-opacity="1" stroke-miterlimit="10" d="M 1593.684669 196.432927 L 2242.891986 521.036585 " transform="matrix(0.0996528, 0, 0, -0.0996528, 0.286458, 71.500868)"/>
<path fill="none" stroke-width="3.40828" stroke-linecap="round" stroke-linejoin="round" stroke="rgb(0%, 0%, 0%)" stroke-opacity="1" stroke-miterlimit="10" d="M 1593.684669 196.432927 L 2242.891986 683.358014 " transform="matrix(0.0996528, 0, 0, -0.0996528, 0.286458, 71.500868)"/>
<path fill="none" stroke-width="3.40828" stroke-linecap="round" stroke-linejoin="round" stroke="rgb(0%, 0%, 0%)" stroke-opacity="1" stroke-miterlimit="10" d="M 1593.684669 358.754355 L 2242.891986 34.150697 " transform="matrix(0.0996528, 0, 0, -0.0996528, 0.286458, 71.500868)"/>
<path fill="none" stroke-width="3.40828" stroke-linecap="round" stroke-linejoin="round" stroke="rgb(0%, 0%, 0%)" stroke-opacity="1" stroke-miterlimit="10" d="M 1593.684669 358.754355 L 2242.891986 196.432927 " transform="matrix(0.0996528, 0, 0, -0.0996528, 0.286458, 71.500868)"/>
<path fill="none" stroke-width="3.40828" stroke-linecap="round" stroke-linejoin="round" stroke="rgb(0%, 0%, 0%)" stroke-opacity="1" stroke-miterlimit="10" d="M 1593.684669 358.754355 L 2242.891986 521.036585 " transform="matrix(0.0996528, 0, 0, -0.0996528, 0.286458, 71.500868)"/>
<path fill="none" stroke-width="3.40828" stroke-linecap="round" stroke-linejoin="round" stroke="rgb(0%, 0%, 0%)" stroke-opacity="1" stroke-miterlimit="10" d="M 1593.684669 358.754355 L 2242.891986 683.358014 " transform="matrix(0.0996528, 0, 0, -0.0996528, 0.286458, 71.500868)"/>
<path fill="none" stroke-width="3.40828" stroke-linecap="round" stroke-linejoin="round" stroke="rgb(0%, 0%, 0%)" stroke-opacity="1" stroke-miterlimit="10" d="M 1593.684669 521.036585 L 2242.891986 34.150697 " transform="matrix(0.0996528, 0, 0, -0.0996528, 0.286458, 71.500868)"/>
<path fill="none" stroke-width="3.40828" stroke-linecap="round" stroke-linejoin="round" stroke="rgb(0%, 0%, 0%)" stroke-opacity="1" stroke-miterlimit="10" d="M 1593.684669 521.036585 L 2242.891986 196.432927 " transform="matrix(0.0996528, 0, 0, -0.0996528, 0.286458, 71.500868)"/>
<path fill="none" stroke-width="3.40828" stroke-linecap="round" stroke-linejoin="round" stroke="rgb(0%, 0%, 0%)" stroke-opacity="1" stroke-miterlimit="10" d="M 1593.684669 521.036585 L 2242.891986 358.754355 " transform="matrix(0.0996528, 0, 0, -0.0996528, 0.286458, 71.500868)"/>
<path fill="none" stroke-width="3.40828" stroke-linecap="round" stroke-linejoin="round" stroke="rgb(0%, 0%, 0%)" stroke-opacity="1" stroke-miterlimit="10" d="M 1593.684669 521.036585 L 2242.891986 683.358014 " transform="matrix(0.0996528, 0, 0, -0.0996528, 0.286458, 71.500868)"/>
<path fill="none" stroke-width="3.40828" stroke-linecap="round" stroke-linejoin="round" stroke="rgb(0%, 0%, 0%)" stroke-opacity="1" stroke-miterlimit="10" d="M 1593.684669 683.358014 L 2242.891986 34.150697 " transform="matrix(0.0996528, 0, 0, -0.0996528, 0.286458, 71.500868)"/>
<path fill="none" stroke-width="3.40828" stroke-linecap="round" stroke-linejoin="round" stroke="rgb(0%, 0%, 0%)" stroke-opacity="1" stroke-miterlimit="10" d="M 1593.684669 683.358014 L 2242.891986 196.432927 " transform="matrix(0.0996528, 0, 0, -0.0996528, 0.286458, 71.500868)"/>
<path fill="none" stroke-width="3.40828" stroke-linecap="round" stroke-linejoin="round" stroke="rgb(0%, 0%, 0%)" stroke-opacity="1" stroke-miterlimit="10" d="M 1593.684669 683.358014 L 2242.891986 358.754355 " transform="matrix(0.0996528, 0, 0, -0.0996528, 0.286458, 71.500868)"/>
<path fill="none" stroke-width="3.40828" stroke-linecap="round" stroke-linejoin="round" stroke="rgb(0%, 0%, 0%)" stroke-opacity="1" stroke-miterlimit="10" d="M 1593.684669 683.358014 L 2242.891986 521.036585 " transform="matrix(0.0996528, 0, 0, -0.0996528, 0.286458, 71.500868)"/>
<path fill="none" stroke-width="34.0828" stroke-linecap="round" stroke-linejoin="round" stroke="rgb(100%, 0%, 0%)" stroke-opacity="1" stroke-miterlimit="10" d="M 1593.684669 34.150697 L 1593.684669 34.150697 " transform="matrix(0.0996528, 0, 0, -0.0996528, 0.286458, 71.500868)"/>
<path fill="none" stroke-width="34.0828" stroke-linecap="round" stroke-linejoin="round" stroke="rgb(100%, 0%, 0%)" stroke-opacity="1" stroke-miterlimit="10" d="M 1593.684669 196.432927 L 1593.684669 196.432927 " transform="matrix(0.0996528, 0, 0, -0.0996528, 0.286458, 71.500868)"/>
<path fill="none" stroke-width="34.0828" stroke-linecap="round" stroke-linejoin="round" stroke="rgb(100%, 0%, 0%)" stroke-opacity="1" stroke-miterlimit="10" d="M 1593.684669 358.754355 L 1593.684669 358.754355 " transform="matrix(0.0996528, 0, 0, -0.0996528, 0.286458, 71.500868)"/>
<path fill="none" stroke-width="34.0828" stroke-linecap="round" stroke-linejoin="round" stroke="rgb(100%, 0%, 0%)" stroke-opacity="1" stroke-miterlimit="10" d="M 1593.684669 521.036585 L 1593.684669 521.036585 " transform="matrix(0.0996528, 0, 0, -0.0996528, 0.286458, 71.500868)"/>
<path fill="none" stroke-width="34.0828" stroke-linecap="round" stroke-linejoin="round" stroke="rgb(100%, 0%, 0%)" stroke-opacity="1" stroke-miterlimit="10" d="M 1593.684669 683.358014 L 1593.684669 683.358014 " transform="matrix(0.0996528, 0, 0, -0.0996528, 0.286458, 71.500868)"/>
<path fill="none" stroke-width="34.0828" stroke-linecap="round" stroke-linejoin="round" stroke="rgb(100%, 0%, 0%)" stroke-opacity="1" stroke-miterlimit="10" d="M 2242.891986 34.150697 L 2242.891986 34.150697 " transform="matrix(0.0996528, 0, 0, -0.0996528, 0.286458, 71.500868)"/>
<path fill="none" stroke-width="34.0828" stroke-linecap="round" stroke-linejoin="round" stroke="rgb(100%, 0%, 0%)" stroke-opacity="1" stroke-miterlimit="10" d="M 2242.891986 196.432927 L 2242.891986 196.432927 " transform="matrix(0.0996528, 0, 0, -0.0996528, 0.286458, 71.500868)"/>
<path fill="none" stroke-width="34.0828" stroke-linecap="round" stroke-linejoin="round" stroke="rgb(100%, 0%, 0%)" stroke-opacity="1" stroke-miterlimit="10" d="M 2242.891986 358.754355 L 2242.891986 358.754355 " transform="matrix(0.0996528, 0, 0, -0.0996528, 0.286458, 71.500868)"/>
<path fill="none" stroke-width="34.0828" stroke-linecap="round" stroke-linejoin="round" stroke="rgb(100%, 0%, 0%)" stroke-opacity="1" stroke-miterlimit="10" d="M 2242.891986 521.036585 L 2242.891986 521.036585 " transform="matrix(0.0996528, 0, 0, -0.0996528, 0.286458, 71.500868)"/>
<path fill="none" stroke-width="34.0828" stroke-linecap="round" stroke-linejoin="round" stroke="rgb(100%, 0%, 0%)" stroke-opacity="1" stroke-miterlimit="10" d="M 2242.891986 683.358014 L 2242.891986 683.358014 " transform="matrix(0.0996528, 0, 0, -0.0996528, 0.286458, 71.500868)"/>
<path fill="none" stroke-width="3.40826" stroke-linecap="round" stroke-linejoin="round" stroke="rgb(0%, 0%, 0%)" stroke-opacity="1" stroke-miterlimit="10" d="M 2345.317944 34.150697 L 2994.486063 163.976481 " transform="matrix(0.0996528, 0, 0, -0.0996528, 0.286458, 71.500868)"/>
<path fill="none" stroke-width="3.40826" stroke-linecap="round" stroke-linejoin="round" stroke="rgb(0%, 0%, 0%)" stroke-opacity="1" stroke-miterlimit="10" d="M 2345.317944 34.150697 L 2994.486063 293.841463 " transform="matrix(0.0996528, 0, 0, -0.0996528, 0.286458, 71.500868)"/>
<path fill="none" stroke-width="3.40826" stroke-linecap="round" stroke-linejoin="round" stroke="rgb(0%, 0%, 0%)" stroke-opacity="1" stroke-miterlimit="10" d="M 2345.317944 34.150697 L 2994.486063 423.667247 " transform="matrix(0.0996528, 0, 0, -0.0996528, 0.286458, 71.500868)"/>
<path fill="none" stroke-width="3.40826" stroke-linecap="round" stroke-linejoin="round" stroke="rgb(0%, 0%, 0%)" stroke-opacity="1" stroke-miterlimit="10" d="M 2345.317944 34.150697 L 2994.486063 553.493031 " transform="matrix(0.0996528, 0, 0, -0.0996528, 0.286458, 71.500868)"/>
<path fill="none" stroke-width="3.40826" stroke-linecap="round" stroke-linejoin="round" stroke="rgb(0%, 0%, 0%)" stroke-opacity="1" stroke-miterlimit="10" d="M 2345.317944 34.150697 L 2994.486063 683.358014 " transform="matrix(0.0996528, 0, 0, -0.0996528, 0.286458, 71.500868)"/>
<path fill="none" stroke-width="3.40826" stroke-linecap="round" stroke-linejoin="round" stroke="rgb(0%, 0%, 0%)" stroke-opacity="1" stroke-miterlimit="10" d="M 2345.317944 163.976481 L 2994.486063 34.150697 " transform="matrix(0.0996528, 0, 0, -0.0996528, 0.286458, 71.500868)"/>
<path fill="none" stroke-width="3.40826" stroke-linecap="round" stroke-linejoin="round" stroke="rgb(0%, 0%, 0%)" stroke-opacity="1" stroke-miterlimit="10" d="M 2345.317944 163.976481 L 2994.486063 293.841463 " transform="matrix(0.0996528, 0, 0, -0.0996528, 0.286458, 71.500868)"/>
<path fill="none" stroke-width="3.40826" stroke-linecap="round" stroke-linejoin="round" stroke="rgb(0%, 0%, 0%)" stroke-opacity="1" stroke-miterlimit="10" d="M 2345.317944 163.976481 L 2994.486063 423.667247 " transform="matrix(0.0996528, 0, 0, -0.0996528, 0.286458, 71.500868)"/>
<path fill="none" stroke-width="3.40826" stroke-linecap="round" stroke-linejoin="round" stroke="rgb(0%, 0%, 0%)" stroke-opacity="1" stroke-miterlimit="10" d="M 2345.317944 163.976481 L 2994.486063 553.493031 " transform="matrix(0.0996528, 0, 0, -0.0996528, 0.286458, 71.500868)"/>
<path fill="none" stroke-width="3.40826" stroke-linecap="round" stroke-linejoin="round" stroke="rgb(0%, 0%, 0%)" stroke-opacity="1" stroke-miterlimit="10" d="M 2345.317944 163.976481 L 2994.486063 683.358014 " transform="matrix(0.0996528, 0, 0, -0.0996528, 0.286458, 71.500868)"/>
<path fill="none" stroke-width="3.40826" stroke-linecap="round" stroke-linejoin="round" stroke="rgb(0%, 0%, 0%)" stroke-opacity="1" stroke-miterlimit="10" d="M 2345.317944 293.841463 L 2994.486063 34.150697 " transform="matrix(0.0996528, 0, 0, -0.0996528, 0.286458, 71.500868)"/>
<path fill="none" stroke-width="3.40826" stroke-linecap="round" stroke-linejoin="round" stroke="rgb(0%, 0%, 0%)" stroke-opacity="1" stroke-miterlimit="10" d="M 2345.317944 293.841463 L 2994.486063 163.976481 " transform="matrix(0.0996528, 0, 0, -0.0996528, 0.286458, 71.500868)"/>
<path fill="none" stroke-width="3.40826" stroke-linecap="round" stroke-linejoin="round" stroke="rgb(0%, 0%, 0%)" stroke-opacity="1" stroke-miterlimit="10" d="M 2345.317944 293.841463 L 2994.486063 423.667247 " transform="matrix(0.0996528, 0, 0, -0.0996528, 0.286458, 71.500868)"/>
<path fill="none" stroke-width="3.40826" stroke-linecap="round" stroke-linejoin="round" stroke="rgb(0%, 0%, 0%)" stroke-opacity="1" stroke-miterlimit="10" d="M 2345.317944 293.841463 L 2994.486063 553.493031 " transform="matrix(0.0996528, 0, 0, -0.0996528, 0.286458, 71.500868)"/>
<path fill="none" stroke-width="3.40826" stroke-linecap="round" stroke-linejoin="round" stroke="rgb(0%, 0%, 0%)" stroke-opacity="1" stroke-miterlimit="10" d="M 2345.317944 293.841463 L 2994.486063 683.358014 " transform="matrix(0.0996528, 0, 0, -0.0996528, 0.286458, 71.500868)"/>
<path fill="none" stroke-width="3.40826" stroke-linecap="round" stroke-linejoin="round" stroke="rgb(0%, 0%, 0%)" stroke-opacity="1" stroke-miterlimit="10" d="M 2345.317944 423.667247 L 2994.486063 34.150697 " transform="matrix(0.0996528, 0, 0, -0.0996528, 0.286458, 71.500868)"/>
<path fill="none" stroke-width="3.40826" stroke-linecap="round" stroke-linejoin="round" stroke="rgb(0%, 0%, 0%)" stroke-opacity="1" stroke-miterlimit="10" d="M 2345.317944 423.667247 L 2994.486063 163.976481 " transform="matrix(0.0996528, 0, 0, -0.0996528, 0.286458, 71.500868)"/>
<path fill="none" stroke-width="3.40826" stroke-linecap="round" stroke-linejoin="round" stroke="rgb(0%, 0%, 0%)" stroke-opacity="1" stroke-miterlimit="10" d="M 2345.317944 423.667247 L 2994.486063 293.841463 " transform="matrix(0.0996528, 0, 0, -0.0996528, 0.286458, 71.500868)"/>
<path fill="none" stroke-width="3.40826" stroke-linecap="round" stroke-linejoin="round" stroke="rgb(0%, 0%, 0%)" stroke-opacity="1" stroke-miterlimit="10" d="M 2345.317944 423.667247 L 2994.486063 553.493031 " transform="matrix(0.0996528, 0, 0, -0.0996528, 0.286458, 71.500868)"/>
<path fill="none" stroke-width="3.40826" stroke-linecap="round" stroke-linejoin="round" stroke="rgb(0%, 0%, 0%)" stroke-opacity="1" stroke-miterlimit="10" d="M 2345.317944 423.667247 L 2994.486063 683.358014 " transform="matrix(0.0996528, 0, 0, -0.0996528, 0.286458, 71.500868)"/>
<path fill="none" stroke-width="3.40826" stroke-linecap="round" stroke-linejoin="round" stroke="rgb(0%, 0%, 0%)" stroke-opacity="1" stroke-miterlimit="10" d="M 2345.317944 553.493031 L 2994.486063 34.150697 " transform="matrix(0.0996528, 0, 0, -0.0996528, 0.286458, 71.500868)"/>
<path fill="none" stroke-width="3.40826" stroke-linecap="round" stroke-linejoin="round" stroke="rgb(0%, 0%, 0%)" stroke-opacity="1" stroke-miterlimit="10" d="M 2345.317944 553.493031 L 2994.486063 163.976481 " transform="matrix(0.0996528, 0, 0, -0.0996528, 0.286458, 71.500868)"/>
<path fill="none" stroke-width="3.40826" stroke-linecap="round" stroke-linejoin="round" stroke="rgb(0%, 0%, 0%)" stroke-opacity="1" stroke-miterlimit="10" d="M 2345.317944 553.493031 L 2994.486063 293.841463 " transform="matrix(0.0996528, 0, 0, -0.0996528, 0.286458, 71.500868)"/>
<path fill="none" stroke-width="3.40826" stroke-linecap="round" stroke-linejoin="round" stroke="rgb(0%, 0%, 0%)" stroke-opacity="1" stroke-miterlimit="10" d="M 2345.317944 553.493031 L 2994.486063 423.667247 " transform="matrix(0.0996528, 0, 0, -0.0996528, 0.286458, 71.500868)"/>
<path fill="none" stroke-width="3.40826" stroke-linecap="round" stroke-linejoin="round" stroke="rgb(0%, 0%, 0%)" stroke-opacity="1" stroke-miterlimit="10" d="M 2345.317944 553.493031 L 2994.486063 683.358014 " transform="matrix(0.0996528, 0, 0, -0.0996528, 0.286458, 71.500868)"/>
<path fill="none" stroke-width="3.40826" stroke-linecap="round" stroke-linejoin="round" stroke="rgb(0%, 0%, 0%)" stroke-opacity="1" stroke-miterlimit="10" d="M 2345.317944 683.358014 L 2994.486063 34.150697 " transform="matrix(0.0996528, 0, 0, -0.0996528, 0.286458, 71.500868)"/>
<path fill="none" stroke-width="3.40826" stroke-linecap="round" stroke-linejoin="round" stroke="rgb(0%, 0%, 0%)" stroke-opacity="1" stroke-miterlimit="10" d="M 2345.317944 683.358014 L 2994.486063 163.976481 " transform="matrix(0.0996528, 0, 0, -0.0996528, 0.286458, 71.500868)"/>
<path fill="none" stroke-width="3.40826" stroke-linecap="round" stroke-linejoin="round" stroke="rgb(0%, 0%, 0%)" stroke-opacity="1" stroke-miterlimit="10" d="M 2345.317944 683.358014 L 2994.486063 293.841463 " transform="matrix(0.0996528, 0, 0, -0.0996528, 0.286458, 71.500868)"/>
<path fill="none" stroke-width="3.40826" stroke-linecap="round" stroke-linejoin="round" stroke="rgb(0%, 0%, 0%)" stroke-opacity="1" stroke-miterlimit="10" d="M 2345.317944 683.358014 L 2994.486063 423.667247 " transform="matrix(0.0996528, 0, 0, -0.0996528, 0.286458, 71.500868)"/>
<path fill="none" stroke-width="3.40826" stroke-linecap="round" stroke-linejoin="round" stroke="rgb(0%, 0%, 0%)" stroke-opacity="1" stroke-miterlimit="10" d="M 2345.317944 683.358014 L 2994.486063 553.493031 " transform="matrix(0.0996528, 0, 0, -0.0996528, 0.286458, 71.500868)"/>
<path fill="none" stroke-width="34.0826" stroke-linecap="round" stroke-linejoin="round" stroke="rgb(100%, 0%, 0%)" stroke-opacity="1" stroke-miterlimit="10" d="M 2345.317944 34.150697 L 2345.317944 34.150697 " transform="matrix(0.0996528, 0, 0, -0.0996528, 0.286458, 71.500868)"/>
<path fill="none" stroke-width="34.0826" stroke-linecap="round" stroke-linejoin="round" stroke="rgb(100%, 0%, 0%)" stroke-opacity="1" stroke-miterlimit="10" d="M 2345.317944 163.976481 L 2345.317944 163.976481 " transform="matrix(0.0996528, 0, 0, -0.0996528, 0.286458, 71.500868)"/>
<path fill="none" stroke-width="34.0826" stroke-linecap="round" stroke-linejoin="round" stroke="rgb(100%, 0%, 0%)" stroke-opacity="1" stroke-miterlimit="10" d="M 2345.317944 293.841463 L 2345.317944 293.841463 " transform="matrix(0.0996528, 0, 0, -0.0996528, 0.286458, 71.500868)"/>
<path fill="none" stroke-width="34.0826" stroke-linecap="round" stroke-linejoin="round" stroke="rgb(100%, 0%, 0%)" stroke-opacity="1" stroke-miterlimit="10" d="M 2345.317944 423.667247 L 2345.317944 423.667247 " transform="matrix(0.0996528, 0, 0, -0.0996528, 0.286458, 71.500868)"/>
<path fill="none" stroke-width="34.0826" stroke-linecap="round" stroke-linejoin="round" stroke="rgb(100%, 0%, 0%)" stroke-opacity="1" stroke-miterlimit="10" d="M 2345.317944 553.493031 L 2345.317944 553.493031 " transform="matrix(0.0996528, 0, 0, -0.0996528, 0.286458, 71.500868)"/>
<path fill="none" stroke-width="34.0826" stroke-linecap="round" stroke-linejoin="round" stroke="rgb(100%, 0%, 0%)" stroke-opacity="1" stroke-miterlimit="10" d="M 2345.317944 683.358014 L 2345.317944 683.358014 " transform="matrix(0.0996528, 0, 0, -0.0996528, 0.286458, 71.500868)"/>
<path fill="none" stroke-width="34.0826" stroke-linecap="round" stroke-linejoin="round" stroke="rgb(100%, 0%, 0%)" stroke-opacity="1" stroke-miterlimit="10" d="M 2994.486063 34.150697 L 2994.486063 34.150697 " transform="matrix(0.0996528, 0, 0, -0.0996528, 0.286458, 71.500868)"/>
<path fill="none" stroke-width="34.0826" stroke-linecap="round" stroke-linejoin="round" stroke="rgb(100%, 0%, 0%)" stroke-opacity="1" stroke-miterlimit="10" d="M 2994.486063 163.976481 L 2994.486063 163.976481 " transform="matrix(0.0996528, 0, 0, -0.0996528, 0.286458, 71.500868)"/>
<path fill="none" stroke-width="34.0826" stroke-linecap="round" stroke-linejoin="round" stroke="rgb(100%, 0%, 0%)" stroke-opacity="1" stroke-miterlimit="10" d="M 2994.486063 293.841463 L 2994.486063 293.841463 " transform="matrix(0.0996528, 0, 0, -0.0996528, 0.286458, 71.500868)"/>
<path fill="none" stroke-width="34.0826" stroke-linecap="round" stroke-linejoin="round" stroke="rgb(100%, 0%, 0%)" stroke-opacity="1" stroke-miterlimit="10" d="M 2994.486063 423.667247 L 2994.486063 423.667247 " transform="matrix(0.0996528, 0, 0, -0.0996528, 0.286458, 71.500868)"/>
<path fill="none" stroke-width="34.0826" stroke-linecap="round" stroke-linejoin="round" stroke="rgb(100%, 0%, 0%)" stroke-opacity="1" stroke-miterlimit="10" d="M 2994.486063 553.493031 L 2994.486063 553.493031 " transform="matrix(0.0996528, 0, 0, -0.0996528, 0.286458, 71.500868)"/>
<path fill="none" stroke-width="34.0826" stroke-linecap="round" stroke-linejoin="round" stroke="rgb(100%, 0%, 0%)" stroke-opacity="1" stroke-miterlimit="10" d="M 2994.486063 683.358014 L 2994.486063 683.358014 " transform="matrix(0.0996528, 0, 0, -0.0996528, 0.286458, 71.500868)"/>
</svg>
