<?xml version="1.0" encoding="UTF-8"?>
<svg xmlns="http://www.w3.org/2000/svg" xmlns:xlink="http://www.w3.org/1999/xlink" width="133.37" height="117.29" viewBox="0 0 133.37 117.29">
<defs>
<clipPath id="clip-0">
<path clip-rule="nonzero" d="M 0.0898438 37 L 66 37 L 66 116 L 0.0898438 116 Z M 0.0898438 37 "/>
</clipPath>
<clipPath id="clip-1">
<path clip-rule="nonzero" d="M 0.0898438 31 L 71 31 L 71 116.585938 L 0.0898438 116.585938 Z M 0.0898438 31 "/>
</clipPath>
<clipPath id="clip-2">
<path clip-rule="nonzero" d="M 59 33 L 132.65625 33 L 132.65625 116.585938 L 59 116.585938 Z M 59 33 "/>
</clipPath>
<clipPath id="clip-3">
<path clip-rule="nonzero" d="M 0.0898438 0 L 132.65625 0 L 132.65625 67 L 0.0898438 67 Z M 0.0898438 0 "/>
</clipPath>
</defs>
<g clip-path="url(#clip-0)">
<path fill-rule="evenodd" fill="rgb(100%, 100%, 100%)" fill-opacity="1" d="M 0.765625 37.207031 L 0.765625 77.960938 L 65.375 115.238281 L 65.375 76.96875 L 41.519531 61.808594 L 43.507812 78.457031 L 21.640625 66.53125 L 26.609375 53.113281 L 0.765625 37.207031 "/>
</g>
<g clip-path="url(#clip-1)">
<path fill="none" stroke-width="10" stroke-linecap="butt" stroke-linejoin="miter" stroke="rgb(13.729858%, 12.159729%, 12.548828%)" stroke-opacity="1" stroke-miterlimit="4" d="M 6.815905 798.577407 L 6.815905 388.571359 L 656.820701 13.541386 L 656.820701 398.553295 L 416.821953 551.072558 L 436.825124 383.580392 L 216.829546 503.560116 L 266.817823 638.552043 Z M 6.815905 798.577407 " transform="matrix(0.0993983, 0, 0, -0.0993983, 0.0881356, 116.584272)"/>
</g>
<path fill-rule="evenodd" fill="rgb(100%, 100%, 100%)" fill-opacity="1" d="M 65.375 76.96875 L 65.375 115.734375 L 131.476562 78.457031 L 131.972656 39.195312 L 104.636719 54.601562 L 108.613281 67.523438 L 87.738281 79.453125 L 92.460938 61.0625 L 65.375 76.96875 "/>
<g clip-path="url(#clip-2)">
<path fill="none" stroke-width="10" stroke-linecap="butt" stroke-linejoin="miter" stroke="rgb(13.729858%, 12.159729%, 12.548828%)" stroke-opacity="1" stroke-miterlimit="4" d="M 656.820701 398.553295 L 656.820701 8.550418 L 1321.837699 383.580392 L 1326.828667 778.574237 L 1051.814546 623.579139 L 1091.820887 493.57818 L 881.807246 373.559157 L 929.319688 558.57866 Z M 656.820701 398.553295 " transform="matrix(0.0993983, 0, 0, -0.0993983, 0.0881356, 116.584272)"/>
</g>
<g clip-path="url(#clip-3)">
<path fill="none" stroke-width="10" stroke-linecap="square" stroke-linejoin="miter" stroke="rgb(13.729858%, 12.159729%, 12.548828%)" stroke-opacity="1" stroke-miterlimit="4" d="M 6.815905 798.577407 L 269.332957 948.581537 M 264.30269 641.067176 L 271.808791 951.057372 M 411.830985 863.577887 L 269.332957 796.062274 M 411.830985 1018.572985 L 411.830985 561.054494 M 926.804555 558.57866 L 926.804555 1018.572985 M 676.823871 1168.577114 L 411.830985 1021.088118 M 679.339005 1166.061981 L 924.32872 1018.572985 M 1054.32968 786.080338 L 926.804555 868.568855 M 1051.814546 628.570107 L 1061.835781 938.560302 M 1061.835781 938.560302 L 1326.828667 783.565205 " transform="matrix(0.0993983, 0, 0, -0.0993983, 0.0881356, 116.584272)"/>
</g>
</svg>
