<?xml version="1.0" encoding="UTF-8"?>
<svg xmlns="http://www.w3.org/2000/svg" xmlns:xlink="http://www.w3.org/1999/xlink" width="249.44" height="118.75" viewBox="0 0 249.44 118.75">
<path fill="none" stroke-width="5.65476" stroke-linecap="round" stroke-linejoin="round" stroke="rgb(0%, 0%, 0%)" stroke-opacity="1" stroke-miterlimit="10" d="M 625.150337 850.773846 L 368.129297 593.752806 " transform="matrix(0.099776, 0, 0, -0.099776, 0.000000000000001332, 118.49228)"/>
<path fill="none" stroke-width="5.65476" stroke-linecap="round" stroke-linejoin="round" stroke="rgb(0%, 0%, 0%)" stroke-opacity="1" stroke-miterlimit="10" d="M 625.150337 850.773846 L 882.210527 593.752806 " transform="matrix(0.099776, 0, 0, -0.099776, 0.000000000000001332, 118.49228)"/>
<path fill="none" stroke-width="5.65476" stroke-linecap="round" stroke-linejoin="round" stroke="rgb(0%, 0%, 0%)" stroke-opacity="1" stroke-miterlimit="10" d="M 625.150337 850.773846 L 625.150337 1107.834036 " transform="matrix(0.099776, 0, 0, -0.099776, 0.000000000000001332, 118.49228)"/>
<path fill="none" stroke-width="5.65476" stroke-linecap="round" stroke-linejoin="round" stroke="rgb(0%, 0%, 0%)" stroke-opacity="1" stroke-miterlimit="10" d="M 368.129297 593.752806 L 625.150337 336.731767 " transform="matrix(0.099776, 0, 0, -0.099776, 0.000000000000001332, 118.49228)"/>
<path fill="none" stroke-width="5.65476" stroke-linecap="round" stroke-linejoin="round" stroke="rgb(0%, 0%, 0%)" stroke-opacity="1" stroke-miterlimit="10" d="M 368.129297 593.752806 L 111.108257 593.752806 " transform="matrix(0.099776, 0, 0, -0.099776, 0.000000000000001332, 118.49228)"/>
<path fill="none" stroke-width="5.65476" stroke-linecap="round" stroke-linejoin="round" stroke="rgb(0%, 0%, 0%)" stroke-opacity="1" stroke-miterlimit="10" d="M 625.150337 336.731767 L 882.210527 593.752806 " transform="matrix(0.099776, 0, 0, -0.099776, 0.000000000000001332, 118.49228)"/>
<path fill="none" stroke-width="5.65476" stroke-linecap="round" stroke-linejoin="round" stroke="rgb(0%, 0%, 0%)" stroke-opacity="1" stroke-miterlimit="10" d="M 625.150337 336.731767 L 625.150337 79.671577 " transform="matrix(0.099776, 0, 0, -0.099776, 0.000000000000001332, 118.49228)"/>
<path fill="none" stroke-width="5.65476" stroke-linecap="round" stroke-linejoin="round" stroke="rgb(0%, 0%, 0%)" stroke-opacity="1" stroke-miterlimit="10" d="M 882.210527 593.752806 L 1139.231566 593.752806 " transform="matrix(0.099776, 0, 0, -0.099776, 0.000000000000001332, 118.49228)"/>
<path fill="none" stroke-width="5.65476" stroke-linecap="round" stroke-linejoin="round" stroke="rgb(0%, 0%, 0%)" stroke-opacity="1" stroke-miterlimit="10" d="M 625.150337 1107.834036 L 111.108257 593.752806 " transform="matrix(0.099776, 0, 0, -0.099776, 0.000000000000001332, 118.49228)"/>
<path fill="none" stroke-width="5.65476" stroke-linecap="round" stroke-linejoin="round" stroke="rgb(0%, 0%, 0%)" stroke-opacity="1" stroke-miterlimit="10" d="M 625.150337 1107.834036 L 1139.231566 593.752806 " transform="matrix(0.099776, 0, 0, -0.099776, 0.000000000000001332, 118.49228)"/>
<path fill="none" stroke-width="5.65476" stroke-linecap="round" stroke-linejoin="round" stroke="rgb(0%, 0%, 0%)" stroke-opacity="1" stroke-miterlimit="10" d="M 111.108257 593.752806 L 625.150337 79.671577 " transform="matrix(0.099776, 0, 0, -0.099776, 0.000000000000001332, 118.49228)"/>
<path fill="none" stroke-width="5.65476" stroke-linecap="round" stroke-linejoin="round" stroke="rgb(0%, 0%, 0%)" stroke-opacity="1" stroke-miterlimit="10" d="M 625.150337 79.671577 L 1139.231566 593.752806 " transform="matrix(0.099776, 0, 0, -0.099776, 0.000000000000001332, 118.49228)"/>
<path fill="none" stroke-width="56.5476" stroke-linecap="round" stroke-linejoin="round" stroke="rgb(100%, 0%, 0%)" stroke-opacity="1" stroke-miterlimit="10" d="M 625.150337 850.773846 L 625.150337 850.773846 " transform="matrix(0.099776, 0, 0, -0.099776, 0.000000000000001332, 118.49228)"/>
<path fill="none" stroke-width="56.5476" stroke-linecap="round" stroke-linejoin="round" stroke="rgb(100%, 0%, 0%)" stroke-opacity="1" stroke-miterlimit="10" d="M 368.129297 593.752806 L 368.129297 593.752806 " transform="matrix(0.099776, 0, 0, -0.099776, 0.000000000000001332, 118.49228)"/>
<path fill="none" stroke-width="56.5476" stroke-linecap="round" stroke-linejoin="round" stroke="rgb(100%, 0%, 0%)" stroke-opacity="1" stroke-miterlimit="10" d="M 625.150337 336.731767 L 625.150337 336.731767 " transform="matrix(0.099776, 0, 0, -0.099776, 0.000000000000001332, 118.49228)"/>
<path fill="none" stroke-width="56.5476" stroke-linecap="round" stroke-linejoin="round" stroke="rgb(100%, 0%, 0%)" stroke-opacity="1" stroke-miterlimit="10" d="M 882.210527 593.752806 L 882.210527 593.752806 " transform="matrix(0.099776, 0, 0, -0.099776, 0.000000000000001332, 118.49228)"/>
<path fill="none" stroke-width="56.5476" stroke-linecap="round" stroke-linejoin="round" stroke="rgb(100%, 0%, 0%)" stroke-opacity="1" stroke-miterlimit="10" d="M 625.150337 1107.834036 L 625.150337 1107.834036 " transform="matrix(0.099776, 0, 0, -0.099776, 0.000000000000001332, 118.49228)"/>
<path fill="none" stroke-width="56.5476" stroke-linecap="round" stroke-linejoin="round" stroke="rgb(100%, 0%, 0%)" stroke-opacity="1" stroke-miterlimit="10" d="M 111.108257 593.752806 L 111.108257 593.752806 " transform="matrix(0.099776, 0, 0, -0.099776, 0.000000000000001332, 118.49228)"/>
<path fill="none" stroke-width="56.5476" stroke-linecap="round" stroke-linejoin="round" stroke="rgb(100%, 0%, 0%)" stroke-opacity="1" stroke-miterlimit="10" d="M 625.150337 79.671577 L 625.150337 79.671577 " transform="matrix(0.099776, 0, 0, -0.099776, 0.000000000000001332, 118.49228)"/>
<path fill="none" stroke-width="56.5476" stroke-linecap="round" stroke-linejoin="round" stroke="rgb(100%, 0%, 0%)" stroke-opacity="1" stroke-miterlimit="10" d="M 1139.231566 593.752806 L 1139.231566 593.752806 " transform="matrix(0.099776, 0, 0, -0.099776, 0.000000000000001332, 118.49228)"/>
<path fill="none" stroke-width="5.65476" stroke-linecap="round" stroke-linejoin="round" stroke="rgb(0%, 0%, 0%)" stroke-opacity="1" stroke-miterlimit="10" d="M 2232.696553 957.26238 L 1869.226129 1107.834036 " transform="matrix(0.099776, 0, 0, -0.099776, 0.000000000000001332, 118.49228)"/>
<path fill="none" stroke-width="5.65476" stroke-linecap="round" stroke-linejoin="round" stroke="rgb(0%, 0%, 0%)" stroke-opacity="1" stroke-miterlimit="10" d="M 2232.696553 957.26238 L 1505.716555 957.26238 " transform="matrix(0.099776, 0, 0, -0.099776, 0.000000000000001332, 118.49228)"/>
<path fill="none" stroke-width="5.65476" stroke-linecap="round" stroke-linejoin="round" stroke="rgb(0%, 0%, 0%)" stroke-opacity="1" stroke-miterlimit="10" d="M 2232.696553 957.26238 L 2232.696553 230.243232 " transform="matrix(0.099776, 0, 0, -0.099776, 0.000000000000001332, 118.49228)"/>
<path fill="none" stroke-width="5.65476" stroke-linecap="round" stroke-linejoin="round" stroke="rgb(0%, 0%, 0%)" stroke-opacity="1" stroke-miterlimit="10" d="M 1869.226129 1107.834036 L 1355.1449 593.752806 " transform="matrix(0.099776, 0, 0, -0.099776, 0.000000000000001332, 118.49228)"/>
<path fill="none" stroke-width="5.65476" stroke-linecap="round" stroke-linejoin="round" stroke="rgb(0%, 0%, 0%)" stroke-opacity="1" stroke-miterlimit="10" d="M 1869.226129 1107.834036 L 2383.307358 593.752806 " transform="matrix(0.099776, 0, 0, -0.099776, 0.000000000000001332, 118.49228)"/>
<path fill="none" stroke-width="5.65476" stroke-linecap="round" stroke-linejoin="round" stroke="rgb(0%, 0%, 0%)" stroke-opacity="1" stroke-miterlimit="10" d="M 1505.716555 957.26238 L 1355.1449 593.752806 " transform="matrix(0.099776, 0, 0, -0.099776, 0.000000000000001332, 118.49228)"/>
<path fill="none" stroke-width="5.65476" stroke-linecap="round" stroke-linejoin="round" stroke="rgb(0%, 0%, 0%)" stroke-opacity="1" stroke-miterlimit="10" d="M 1505.716555 957.26238 L 1505.716555 230.243232 " transform="matrix(0.099776, 0, 0, -0.099776, 0.000000000000001332, 118.49228)"/>
<path fill="none" stroke-width="5.65476" stroke-linecap="round" stroke-linejoin="round" stroke="rgb(0%, 0%, 0%)" stroke-opacity="1" stroke-miterlimit="10" d="M 1355.1449 593.752806 L 1869.226129 79.671577 " transform="matrix(0.099776, 0, 0, -0.099776, 0.000000000000001332, 118.49228)"/>
<path fill="none" stroke-width="5.65476" stroke-linecap="round" stroke-linejoin="round" stroke="rgb(0%, 0%, 0%)" stroke-opacity="1" stroke-miterlimit="10" d="M 1505.716555 230.243232 L 1869.226129 79.671577 " transform="matrix(0.099776, 0, 0, -0.099776, 0.000000000000001332, 118.49228)"/>
<path fill="none" stroke-width="5.65476" stroke-linecap="round" stroke-linejoin="round" stroke="rgb(0%, 0%, 0%)" stroke-opacity="1" stroke-miterlimit="10" d="M 1505.716555 230.243232 L 2232.696553 230.243232 " transform="matrix(0.099776, 0, 0, -0.099776, 0.000000000000001332, 118.49228)"/>
<path fill="none" stroke-width="5.65476" stroke-linecap="round" stroke-linejoin="round" stroke="rgb(0%, 0%, 0%)" stroke-opacity="1" stroke-miterlimit="10" d="M 1869.226129 79.671577 L 2383.307358 593.752806 " transform="matrix(0.099776, 0, 0, -0.099776, 0.000000000000001332, 118.49228)"/>
<path fill="none" stroke-width="5.65476" stroke-linecap="round" stroke-linejoin="round" stroke="rgb(0%, 0%, 0%)" stroke-opacity="1" stroke-miterlimit="10" d="M 2232.696553 230.243232 L 2383.307358 593.752806 " transform="matrix(0.099776, 0, 0, -0.099776, 0.000000000000001332, 118.49228)"/>
<path fill="none" stroke-width="56.5476" stroke-linecap="round" stroke-linejoin="round" stroke="rgb(100%, 0%, 0%)" stroke-opacity="1" stroke-miterlimit="10" d="M 2232.696553 957.26238 L 2232.696553 957.26238 " transform="matrix(0.099776, 0, 0, -0.099776, 0.000000000000001332, 118.49228)"/>
<path fill="none" stroke-width="56.5476" stroke-linecap="round" stroke-linejoin="round" stroke="rgb(100%, 0%, 0%)" stroke-opacity="1" stroke-miterlimit="10" d="M 1869.226129 1107.834036 L 1869.226129 1107.834036 " transform="matrix(0.099776, 0, 0, -0.099776, 0.000000000000001332, 118.49228)"/>
<path fill="none" stroke-width="56.5476" stroke-linecap="round" stroke-linejoin="round" stroke="rgb(100%, 0%, 0%)" stroke-opacity="1" stroke-miterlimit="10" d="M 1505.716555 957.26238 L 1505.716555 957.26238 " transform="matrix(0.099776, 0, 0, -0.099776, 0.000000000000001332, 118.49228)"/>
<path fill="none" stroke-width="56.5476" stroke-linecap="round" stroke-linejoin="round" stroke="rgb(100%, 0%, 0%)" stroke-opacity="1" stroke-miterlimit="10" d="M 1355.1449 593.752806 L 1355.1449 593.752806 " transform="matrix(0.099776, 0, 0, -0.099776, 0.000000000000001332, 118.49228)"/>
<path fill="none" stroke-width="56.5476" stroke-linecap="round" stroke-linejoin="round" stroke="rgb(100%, 0%, 0%)" stroke-opacity="1" stroke-miterlimit="10" d="M 1505.716555 230.243232 L 1505.716555 230.243232 " transform="matrix(0.099776, 0, 0, -0.099776, 0.000000000000001332, 118.49228)"/>
<path fill="none" stroke-width="56.5476" stroke-linecap="round" stroke-linejoin="round" stroke="rgb(100%, 0%, 0%)" stroke-opacity="1" stroke-miterlimit="10" d="M 1869.226129 79.671577 L 1869.226129 79.671577 " transform="matrix(0.099776, 0, 0, -0.099776, 0.000000000000001332, 118.49228)"/>
<path fill="none" stroke-width="56.5476" stroke-linecap="round" stroke-linejoin="round" stroke="rgb(100%, 0%, 0%)" stroke-opacity="1" stroke-miterlimit="10" d="M 2232.696553 230.243232 L 2232.696553 230.243232 " transform="matrix(0.099776, 0, 0, -0.099776, 0.000000000000001332, 118.49228)"/>
<path fill="none" stroke-width="56.5476" stroke-linecap="round" stroke-linejoin="round" stroke="rgb(100%, 0%, 0%)" stroke-opacity="1" stroke-miterlimit="10" d="M 2383.307358 593.752806 L 2383.307358 593.752806 " transform="matrix(0.099776, 0, 0, -0.099776, 0.000000000000001332, 118.49228)"/>
</svg>
