<?xml version="1.0" encoding="UTF-8"?>
<svg xmlns="http://www.w3.org/2000/svg" xmlns:xlink="http://www.w3.org/1999/xlink" width="230.38" height="109.69" viewBox="0 0 230.38 109.69">
<path fill="none" stroke-width="5.22322" stroke-linecap="round" stroke-linejoin="round" stroke="rgb(0%, 0%, 0%)" stroke-opacity="1" stroke-miterlimit="10" d="M 1028.916549 695.181948 L 961.460821 827.547165 " transform="matrix(0.0997182, 0, 0, -0.0997182, 0.0155, 109.380874)"/>
<path fill="none" stroke-width="5.22322" stroke-linecap="round" stroke-linejoin="round" stroke="rgb(0%, 0%, 0%)" stroke-opacity="1" stroke-miterlimit="10" d="M 1028.916549 695.181948 L 430.58973 96.855129 " transform="matrix(0.0997182, 0, 0, -0.0997182, 0.0155, 109.380874)"/>
<path fill="none" stroke-width="5.22322" stroke-linecap="round" stroke-linejoin="round" stroke="rgb(0%, 0%, 0%)" stroke-opacity="1" stroke-miterlimit="10" d="M 1028.916549 695.181948 L 1052.146076 548.440278 " transform="matrix(0.0997182, 0, 0, -0.0997182, 0.0155, 109.380874)"/>
<path fill="none" stroke-width="5.22322" stroke-linecap="round" stroke-linejoin="round" stroke="rgb(0%, 0%, 0%)" stroke-opacity="1" stroke-miterlimit="10" d="M 961.460821 827.547165 L 856.438286 932.5697 " transform="matrix(0.0997182, 0, 0, -0.0997182, 0.0155, 109.380874)"/>
<path fill="none" stroke-width="5.22322" stroke-linecap="round" stroke-linejoin="round" stroke="rgb(0%, 0%, 0%)" stroke-opacity="1" stroke-miterlimit="10" d="M 961.460821 827.547165 L 193.162805 827.547165 " transform="matrix(0.0997182, 0, 0, -0.0997182, 0.0155, 109.380874)"/>
<path fill="none" stroke-width="5.22322" stroke-linecap="round" stroke-linejoin="round" stroke="rgb(0%, 0%, 0%)" stroke-opacity="1" stroke-miterlimit="10" d="M 856.438286 932.5697 L 724.033897 1000.025427 " transform="matrix(0.0997182, 0, 0, -0.0997182, 0.0155, 109.380874)"/>
<path fill="none" stroke-width="5.22322" stroke-linecap="round" stroke-linejoin="round" stroke="rgb(0%, 0%, 0%)" stroke-opacity="1" stroke-miterlimit="10" d="M 856.438286 932.5697 L 961.460821 269.333392 " transform="matrix(0.0997182, 0, 0, -0.0997182, 0.0155, 109.380874)"/>
<path fill="none" stroke-width="5.22322" stroke-linecap="round" stroke-linejoin="round" stroke="rgb(0%, 0%, 0%)" stroke-opacity="1" stroke-miterlimit="10" d="M 724.033897 1000.025427 L 577.3314 1023.294128 " transform="matrix(0.0997182, 0, 0, -0.0997182, 0.0155, 109.380874)"/>
<path fill="none" stroke-width="5.22322" stroke-linecap="round" stroke-linejoin="round" stroke="rgb(0%, 0%, 0%)" stroke-opacity="1" stroke-miterlimit="10" d="M 724.033897 1000.025427 L 125.707078 401.698609 " transform="matrix(0.0997182, 0, 0, -0.0997182, 0.0155, 109.380874)"/>
<path fill="none" stroke-width="5.22322" stroke-linecap="round" stroke-linejoin="round" stroke="rgb(0%, 0%, 0%)" stroke-opacity="1" stroke-miterlimit="10" d="M 577.3314 1023.294128 L 430.58973 1000.025427 " transform="matrix(0.0997182, 0, 0, -0.0997182, 0.0155, 109.380874)"/>
<path fill="none" stroke-width="5.22322" stroke-linecap="round" stroke-linejoin="round" stroke="rgb(0%, 0%, 0%)" stroke-opacity="1" stroke-miterlimit="10" d="M 577.3314 1023.294128 L 577.3314 73.586429 " transform="matrix(0.0997182, 0, 0, -0.0997182, 0.0155, 109.380874)"/>
<path fill="none" stroke-width="5.22322" stroke-linecap="round" stroke-linejoin="round" stroke="rgb(0%, 0%, 0%)" stroke-opacity="1" stroke-miterlimit="10" d="M 430.58973 1000.025427 L 298.224513 932.5697 " transform="matrix(0.0997182, 0, 0, -0.0997182, 0.0155, 109.380874)"/>
<path fill="none" stroke-width="5.22322" stroke-linecap="round" stroke-linejoin="round" stroke="rgb(0%, 0%, 0%)" stroke-opacity="1" stroke-miterlimit="10" d="M 430.58973 1000.025427 L 1028.916549 401.698609 " transform="matrix(0.0997182, 0, 0, -0.0997182, 0.0155, 109.380874)"/>
<path fill="none" stroke-width="5.22322" stroke-linecap="round" stroke-linejoin="round" stroke="rgb(0%, 0%, 0%)" stroke-opacity="1" stroke-miterlimit="10" d="M 298.224513 932.5697 L 193.162805 827.547165 " transform="matrix(0.0997182, 0, 0, -0.0997182, 0.0155, 109.380874)"/>
<path fill="none" stroke-width="5.22322" stroke-linecap="round" stroke-linejoin="round" stroke="rgb(0%, 0%, 0%)" stroke-opacity="1" stroke-miterlimit="10" d="M 298.224513 932.5697 L 193.162805 269.333392 " transform="matrix(0.0997182, 0, 0, -0.0997182, 0.0155, 109.380874)"/>
<path fill="none" stroke-width="5.22322" stroke-linecap="round" stroke-linejoin="round" stroke="rgb(0%, 0%, 0%)" stroke-opacity="1" stroke-miterlimit="10" d="M 193.162805 827.547165 L 125.707078 695.181948 " transform="matrix(0.0997182, 0, 0, -0.0997182, 0.0155, 109.380874)"/>
<path fill="none" stroke-width="5.22322" stroke-linecap="round" stroke-linejoin="round" stroke="rgb(0%, 0%, 0%)" stroke-opacity="1" stroke-miterlimit="10" d="M 125.707078 695.181948 L 102.47755 548.440278 " transform="matrix(0.0997182, 0, 0, -0.0997182, 0.0155, 109.380874)"/>
<path fill="none" stroke-width="5.22322" stroke-linecap="round" stroke-linejoin="round" stroke="rgb(0%, 0%, 0%)" stroke-opacity="1" stroke-miterlimit="10" d="M 125.707078 695.181948 L 724.033897 96.855129 " transform="matrix(0.0997182, 0, 0, -0.0997182, 0.0155, 109.380874)"/>
<path fill="none" stroke-width="5.22322" stroke-linecap="round" stroke-linejoin="round" stroke="rgb(0%, 0%, 0%)" stroke-opacity="1" stroke-miterlimit="10" d="M 102.47755 548.440278 L 125.707078 401.698609 " transform="matrix(0.0997182, 0, 0, -0.0997182, 0.0155, 109.380874)"/>
<path fill="none" stroke-width="5.22322" stroke-linecap="round" stroke-linejoin="round" stroke="rgb(0%, 0%, 0%)" stroke-opacity="1" stroke-miterlimit="10" d="M 102.47755 548.440278 L 1052.146076 548.440278 " transform="matrix(0.0997182, 0, 0, -0.0997182, 0.0155, 109.380874)"/>
<path fill="none" stroke-width="5.22322" stroke-linecap="round" stroke-linejoin="round" stroke="rgb(0%, 0%, 0%)" stroke-opacity="1" stroke-miterlimit="10" d="M 125.707078 401.698609 L 193.162805 269.333392 " transform="matrix(0.0997182, 0, 0, -0.0997182, 0.0155, 109.380874)"/>
<path fill="none" stroke-width="5.22322" stroke-linecap="round" stroke-linejoin="round" stroke="rgb(0%, 0%, 0%)" stroke-opacity="1" stroke-miterlimit="10" d="M 193.162805 269.333392 L 298.224513 164.271684 " transform="matrix(0.0997182, 0, 0, -0.0997182, 0.0155, 109.380874)"/>
<path fill="none" stroke-width="5.22322" stroke-linecap="round" stroke-linejoin="round" stroke="rgb(0%, 0%, 0%)" stroke-opacity="1" stroke-miterlimit="10" d="M 298.224513 164.271684 L 430.58973 96.855129 " transform="matrix(0.0997182, 0, 0, -0.0997182, 0.0155, 109.380874)"/>
<path fill="none" stroke-width="5.22322" stroke-linecap="round" stroke-linejoin="round" stroke="rgb(0%, 0%, 0%)" stroke-opacity="1" stroke-miterlimit="10" d="M 298.224513 164.271684 L 856.438286 164.271684 " transform="matrix(0.0997182, 0, 0, -0.0997182, 0.0155, 109.380874)"/>
<path fill="none" stroke-width="5.22322" stroke-linecap="round" stroke-linejoin="round" stroke="rgb(0%, 0%, 0%)" stroke-opacity="1" stroke-miterlimit="10" d="M 430.58973 96.855129 L 577.3314 73.586429 " transform="matrix(0.0997182, 0, 0, -0.0997182, 0.0155, 109.380874)"/>
<path fill="none" stroke-width="5.22322" stroke-linecap="round" stroke-linejoin="round" stroke="rgb(0%, 0%, 0%)" stroke-opacity="1" stroke-miterlimit="10" d="M 577.3314 73.586429 L 724.033897 96.855129 " transform="matrix(0.0997182, 0, 0, -0.0997182, 0.0155, 109.380874)"/>
<path fill="none" stroke-width="5.22322" stroke-linecap="round" stroke-linejoin="round" stroke="rgb(0%, 0%, 0%)" stroke-opacity="1" stroke-miterlimit="10" d="M 724.033897 96.855129 L 856.438286 164.271684 " transform="matrix(0.0997182, 0, 0, -0.0997182, 0.0155, 109.380874)"/>
<path fill="none" stroke-width="5.22322" stroke-linecap="round" stroke-linejoin="round" stroke="rgb(0%, 0%, 0%)" stroke-opacity="1" stroke-miterlimit="10" d="M 856.438286 164.271684 L 961.460821 269.333392 " transform="matrix(0.0997182, 0, 0, -0.0997182, 0.0155, 109.380874)"/>
<path fill="none" stroke-width="5.22322" stroke-linecap="round" stroke-linejoin="round" stroke="rgb(0%, 0%, 0%)" stroke-opacity="1" stroke-miterlimit="10" d="M 961.460821 269.333392 L 1028.916549 401.698609 " transform="matrix(0.0997182, 0, 0, -0.0997182, 0.0155, 109.380874)"/>
<path fill="none" stroke-width="5.22322" stroke-linecap="round" stroke-linejoin="round" stroke="rgb(0%, 0%, 0%)" stroke-opacity="1" stroke-miterlimit="10" d="M 1028.916549 401.698609 L 1052.146076 548.440278 " transform="matrix(0.0997182, 0, 0, -0.0997182, 0.0155, 109.380874)"/>
<path fill="none" stroke-width="47.0089" stroke-linecap="round" stroke-linejoin="round" stroke="rgb(100%, 0%, 0%)" stroke-opacity="1" stroke-miterlimit="10" d="M 1028.916549 695.181948 L 1028.916549 695.181948 " transform="matrix(0.0997182, 0, 0, -0.0997182, 0.0155, 109.380874)"/>
<path fill="none" stroke-width="47.0089" stroke-linecap="round" stroke-linejoin="round" stroke="rgb(100%, 0%, 0%)" stroke-opacity="1" stroke-miterlimit="10" d="M 961.460821 827.547165 L 961.460821 827.547165 " transform="matrix(0.0997182, 0, 0, -0.0997182, 0.0155, 109.380874)"/>
<path fill="none" stroke-width="47.0089" stroke-linecap="round" stroke-linejoin="round" stroke="rgb(100%, 0%, 0%)" stroke-opacity="1" stroke-miterlimit="10" d="M 856.438286 932.5697 L 856.438286 932.5697 " transform="matrix(0.0997182, 0, 0, -0.0997182, 0.0155, 109.380874)"/>
<path fill="none" stroke-width="47.0089" stroke-linecap="round" stroke-linejoin="round" stroke="rgb(100%, 0%, 0%)" stroke-opacity="1" stroke-miterlimit="10" d="M 724.033897 1000.025427 L 724.033897 1000.025427 " transform="matrix(0.0997182, 0, 0, -0.0997182, 0.0155, 109.380874)"/>
<path fill="none" stroke-width="47.0089" stroke-linecap="round" stroke-linejoin="round" stroke="rgb(100%, 0%, 0%)" stroke-opacity="1" stroke-miterlimit="10" d="M 577.3314 1023.294128 L 577.3314 1023.294128 " transform="matrix(0.0997182, 0, 0, -0.0997182, 0.0155, 109.380874)"/>
<path fill="none" stroke-width="47.0089" stroke-linecap="round" stroke-linejoin="round" stroke="rgb(100%, 0%, 0%)" stroke-opacity="1" stroke-miterlimit="10" d="M 430.58973 1000.025427 L 430.58973 1000.025427 " transform="matrix(0.0997182, 0, 0, -0.0997182, 0.0155, 109.380874)"/>
<path fill="none" stroke-width="47.0089" stroke-linecap="round" stroke-linejoin="round" stroke="rgb(100%, 0%, 0%)" stroke-opacity="1" stroke-miterlimit="10" d="M 298.224513 932.5697 L 298.224513 932.5697 " transform="matrix(0.0997182, 0, 0, -0.0997182, 0.0155, 109.380874)"/>
<path fill="none" stroke-width="47.0089" stroke-linecap="round" stroke-linejoin="round" stroke="rgb(100%, 0%, 0%)" stroke-opacity="1" stroke-miterlimit="10" d="M 193.162805 827.547165 L 193.162805 827.547165 " transform="matrix(0.0997182, 0, 0, -0.0997182, 0.0155, 109.380874)"/>
<path fill="none" stroke-width="47.0089" stroke-linecap="round" stroke-linejoin="round" stroke="rgb(100%, 0%, 0%)" stroke-opacity="1" stroke-miterlimit="10" d="M 125.707078 695.181948 L 125.707078 695.181948 " transform="matrix(0.0997182, 0, 0, -0.0997182, 0.0155, 109.380874)"/>
<path fill="none" stroke-width="47.0089" stroke-linecap="round" stroke-linejoin="round" stroke="rgb(100%, 0%, 0%)" stroke-opacity="1" stroke-miterlimit="10" d="M 102.47755 548.440278 L 102.47755 548.440278 " transform="matrix(0.0997182, 0, 0, -0.0997182, 0.0155, 109.380874)"/>
<path fill="none" stroke-width="47.0089" stroke-linecap="round" stroke-linejoin="round" stroke="rgb(100%, 0%, 0%)" stroke-opacity="1" stroke-miterlimit="10" d="M 125.707078 401.698609 L 125.707078 401.698609 " transform="matrix(0.0997182, 0, 0, -0.0997182, 0.0155, 109.380874)"/>
<path fill="none" stroke-width="47.0089" stroke-linecap="round" stroke-linejoin="round" stroke="rgb(100%, 0%, 0%)" stroke-opacity="1" stroke-miterlimit="10" d="M 193.162805 269.333392 L 193.162805 269.333392 " transform="matrix(0.0997182, 0, 0, -0.0997182, 0.0155, 109.380874)"/>
<path fill="none" stroke-width="47.0089" stroke-linecap="round" stroke-linejoin="round" stroke="rgb(100%, 0%, 0%)" stroke-opacity="1" stroke-miterlimit="10" d="M 298.224513 164.271684 L 298.224513 164.271684 " transform="matrix(0.0997182, 0, 0, -0.0997182, 0.0155, 109.380874)"/>
<path fill="none" stroke-width="47.0089" stroke-linecap="round" stroke-linejoin="round" stroke="rgb(100%, 0%, 0%)" stroke-opacity="1" stroke-miterlimit="10" d="M 430.58973 96.855129 L 430.58973 96.855129 " transform="matrix(0.0997182, 0, 0, -0.0997182, 0.0155, 109.380874)"/>
<path fill="none" stroke-width="47.0089" stroke-linecap="round" stroke-linejoin="round" stroke="rgb(100%, 0%, 0%)" stroke-opacity="1" stroke-miterlimit="10" d="M 577.3314 73.586429 L 577.3314 73.586429 " transform="matrix(0.0997182, 0, 0, -0.0997182, 0.0155, 109.380874)"/>
<path fill="none" stroke-width="47.0089" stroke-linecap="round" stroke-linejoin="round" stroke="rgb(100%, 0%, 0%)" stroke-opacity="1" stroke-miterlimit="10" d="M 724.033897 96.855129 L 724.033897 96.855129 " transform="matrix(0.0997182, 0, 0, -0.0997182, 0.0155, 109.380874)"/>
<path fill="none" stroke-width="47.0089" stroke-linecap="round" stroke-linejoin="round" stroke="rgb(100%, 0%, 0%)" stroke-opacity="1" stroke-miterlimit="10" d="M 856.438286 164.271684 L 856.438286 164.271684 " transform="matrix(0.0997182, 0, 0, -0.0997182, 0.0155, 109.380874)"/>
<path fill="none" stroke-width="47.0089" stroke-linecap="round" stroke-linejoin="round" stroke="rgb(100%, 0%, 0%)" stroke-opacity="1" stroke-miterlimit="10" d="M 961.460821 269.333392 L 961.460821 269.333392 " transform="matrix(0.0997182, 0, 0, -0.0997182, 0.0155, 109.380874)"/>
<path fill="none" stroke-width="47.0089" stroke-linecap="round" stroke-linejoin="round" stroke="rgb(100%, 0%, 0%)" stroke-opacity="1" stroke-miterlimit="10" d="M 1028.916549 401.698609 L 1028.916549 401.698609 " transform="matrix(0.0997182, 0, 0, -0.0997182, 0.0155, 109.380874)"/>
<path fill="none" stroke-width="47.0089" stroke-linecap="round" stroke-linejoin="round" stroke="rgb(100%, 0%, 0%)" stroke-opacity="1" stroke-miterlimit="10" d="M 1052.146076 548.440278 L 1052.146076 548.440278 " transform="matrix(0.0997182, 0, 0, -0.0997182, 0.0155, 109.380874)"/>
<path fill="none" stroke-width="5.22321" stroke-linecap="round" stroke-linejoin="round" stroke="rgb(0%, 0%, 0%)" stroke-opacity="1" stroke-miterlimit="10" d="M 2194.78029 626.825244 L 2175.546398 703.094873 " transform="matrix(0.0997182, 0, 0, -0.0997182, 0.0155, 109.380874)"/>
<path fill="none" stroke-width="5.22321" stroke-linecap="round" stroke-linejoin="round" stroke="rgb(0%, 0%, 0%)" stroke-opacity="1" stroke-miterlimit="10" d="M 2194.78029 626.825244 L 1843.007681 1010.171207 " transform="matrix(0.0997182, 0, 0, -0.0997182, 0.0155, 109.380874)"/>
<path fill="none" stroke-width="5.22321" stroke-linecap="round" stroke-linejoin="round" stroke="rgb(0%, 0%, 0%)" stroke-opacity="1" stroke-miterlimit="10" d="M 2194.78029 626.825244 L 2201.282991 548.440278 " transform="matrix(0.0997182, 0, 0, -0.0997182, 0.0155, 109.380874)"/>
<path fill="none" stroke-width="5.22321" stroke-linecap="round" stroke-linejoin="round" stroke="rgb(0%, 0%, 0%)" stroke-opacity="1" stroke-miterlimit="10" d="M 2175.546398 703.094873 L 2144.051389 775.133829 " transform="matrix(0.0997182, 0, 0, -0.0997182, 0.0155, 109.380874)"/>
<path fill="none" stroke-width="5.22321" stroke-linecap="round" stroke-linejoin="round" stroke="rgb(0%, 0%, 0%)" stroke-opacity="1" stroke-miterlimit="10" d="M 2175.546398 703.094873 L 1404.819662 197.999548 " transform="matrix(0.0997182, 0, 0, -0.0997182, 0.0155, 109.380874)"/>
<path fill="none" stroke-width="5.22321" stroke-linecap="round" stroke-linejoin="round" stroke="rgb(0%, 0%, 0%)" stroke-opacity="1" stroke-miterlimit="10" d="M 2144.051389 775.133829 L 2101.157068 840.983468 " transform="matrix(0.0997182, 0, 0, -0.0997182, 0.0155, 109.380874)"/>
<path fill="none" stroke-width="5.22321" stroke-linecap="round" stroke-linejoin="round" stroke="rgb(0%, 0%, 0%)" stroke-opacity="1" stroke-miterlimit="10" d="M 2144.051389 775.133829 L 1843.007681 86.709349 " transform="matrix(0.0997182, 0, 0, -0.0997182, 0.0155, 109.380874)"/>
<path fill="none" stroke-width="5.22321" stroke-linecap="round" stroke-linejoin="round" stroke="rgb(0%, 0%, 0%)" stroke-opacity="1" stroke-miterlimit="10" d="M 2101.157068 840.983468 L 2048.03862 898.881009 " transform="matrix(0.0997182, 0, 0, -0.0997182, 0.0155, 109.380874)"/>
<path fill="none" stroke-width="5.22321" stroke-linecap="round" stroke-linejoin="round" stroke="rgb(0%, 0%, 0%)" stroke-opacity="1" stroke-miterlimit="10" d="M 2101.157068 840.983468 L 1258.077993 470.01614 " transform="matrix(0.0997182, 0, 0, -0.0997182, 0.0155, 109.380874)"/>
<path fill="none" stroke-width="5.22321" stroke-linecap="round" stroke-linejoin="round" stroke="rgb(0%, 0%, 0%)" stroke-opacity="1" stroke-miterlimit="10" d="M 2048.03862 898.881009 L 1986.145444 947.18119 " transform="matrix(0.0997182, 0, 0, -0.0997182, 0.0155, 109.380874)"/>
<path fill="none" stroke-width="5.22321" stroke-linecap="round" stroke-linejoin="round" stroke="rgb(0%, 0%, 0%)" stroke-opacity="1" stroke-miterlimit="10" d="M 2048.03862 898.881009 L 1466.712838 947.18119 " transform="matrix(0.0997182, 0, 0, -0.0997182, 0.0155, 109.380874)"/>
<path fill="none" stroke-width="5.22321" stroke-linecap="round" stroke-linejoin="round" stroke="rgb(0%, 0%, 0%)" stroke-opacity="1" stroke-miterlimit="10" d="M 1986.145444 947.18119 L 1917.161974 984.630479 " transform="matrix(0.0997182, 0, 0, -0.0997182, 0.0155, 109.380874)"/>
<path fill="none" stroke-width="5.22321" stroke-linecap="round" stroke-linejoin="round" stroke="rgb(0%, 0%, 0%)" stroke-opacity="1" stroke-miterlimit="10" d="M 1986.145444 947.18119 L 2101.157068 255.857915 " transform="matrix(0.0997182, 0, 0, -0.0997182, 0.0155, 109.380874)"/>
<path fill="none" stroke-width="5.22321" stroke-linecap="round" stroke-linejoin="round" stroke="rgb(0%, 0%, 0%)" stroke-opacity="1" stroke-miterlimit="10" d="M 1917.161974 984.630479 L 1843.007681 1010.171207 " transform="matrix(0.0997182, 0, 0, -0.0997182, 0.0155, 109.380874)"/>
<path fill="none" stroke-width="5.22321" stroke-linecap="round" stroke-linejoin="round" stroke="rgb(0%, 0%, 0%)" stroke-opacity="1" stroke-miterlimit="10" d="M 1917.161974 984.630479 L 1277.311885 703.094873 " transform="matrix(0.0997182, 0, 0, -0.0997182, 0.0155, 109.380874)"/>
<path fill="none" stroke-width="5.22321" stroke-linecap="round" stroke-linejoin="round" stroke="rgb(0%, 0%, 0%)" stroke-opacity="1" stroke-miterlimit="10" d="M 1843.007681 1010.171207 L 1765.64121 1023.137436 " transform="matrix(0.0997182, 0, 0, -0.0997182, 0.0155, 109.380874)"/>
<path fill="none" stroke-width="5.22321" stroke-linecap="round" stroke-linejoin="round" stroke="rgb(0%, 0%, 0%)" stroke-opacity="1" stroke-miterlimit="10" d="M 1765.64121 1023.137436 L 1687.217072 1023.137436 " transform="matrix(0.0997182, 0, 0, -0.0997182, 0.0155, 109.380874)"/>
<path fill="none" stroke-width="5.22321" stroke-linecap="round" stroke-linejoin="round" stroke="rgb(0%, 0%, 0%)" stroke-opacity="1" stroke-miterlimit="10" d="M 1765.64121 1023.137436 L 1687.217072 73.74312 " transform="matrix(0.0997182, 0, 0, -0.0997182, 0.0155, 109.380874)"/>
<path fill="none" stroke-width="5.22321" stroke-linecap="round" stroke-linejoin="round" stroke="rgb(0%, 0%, 0%)" stroke-opacity="1" stroke-miterlimit="10" d="M 1687.217072 1023.137436 L 1609.850602 1010.171207 " transform="matrix(0.0997182, 0, 0, -0.0997182, 0.0155, 109.380874)"/>
<path fill="none" stroke-width="5.22321" stroke-linecap="round" stroke-linejoin="round" stroke="rgb(0%, 0%, 0%)" stroke-opacity="1" stroke-miterlimit="10" d="M 1687.217072 1023.137436 L 1277.311885 393.785684 " transform="matrix(0.0997182, 0, 0, -0.0997182, 0.0155, 109.380874)"/>
<path fill="none" stroke-width="5.22321" stroke-linecap="round" stroke-linejoin="round" stroke="rgb(0%, 0%, 0%)" stroke-opacity="1" stroke-miterlimit="10" d="M 1609.850602 1010.171207 L 1535.696309 984.630479 " transform="matrix(0.0997182, 0, 0, -0.0997182, 0.0155, 109.380874)"/>
<path fill="none" stroke-width="5.22321" stroke-linecap="round" stroke-linejoin="round" stroke="rgb(0%, 0%, 0%)" stroke-opacity="1" stroke-miterlimit="10" d="M 1609.850602 1010.171207 L 1986.145444 149.660193 " transform="matrix(0.0997182, 0, 0, -0.0997182, 0.0155, 109.380874)"/>
<path fill="none" stroke-width="5.22321" stroke-linecap="round" stroke-linejoin="round" stroke="rgb(0%, 0%, 0%)" stroke-opacity="1" stroke-miterlimit="10" d="M 1535.696309 984.630479 L 1466.712838 947.18119 " transform="matrix(0.0997182, 0, 0, -0.0997182, 0.0155, 109.380874)"/>
<path fill="none" stroke-width="5.22321" stroke-linecap="round" stroke-linejoin="round" stroke="rgb(0%, 0%, 0%)" stroke-opacity="1" stroke-miterlimit="10" d="M 1535.696309 984.630479 L 2201.282991 548.440278 " transform="matrix(0.0997182, 0, 0, -0.0997182, 0.0155, 109.380874)"/>
<path fill="none" stroke-width="5.22321" stroke-linecap="round" stroke-linejoin="round" stroke="rgb(0%, 0%, 0%)" stroke-opacity="1" stroke-miterlimit="10" d="M 1466.712838 947.18119 L 1404.819662 898.881009 " transform="matrix(0.0997182, 0, 0, -0.0997182, 0.0155, 109.380874)"/>
<path fill="none" stroke-width="5.22321" stroke-linecap="round" stroke-linejoin="round" stroke="rgb(0%, 0%, 0%)" stroke-opacity="1" stroke-miterlimit="10" d="M 1404.819662 898.881009 L 1351.701215 840.983468 " transform="matrix(0.0997182, 0, 0, -0.0997182, 0.0155, 109.380874)"/>
<path fill="none" stroke-width="5.22321" stroke-linecap="round" stroke-linejoin="round" stroke="rgb(0%, 0%, 0%)" stroke-opacity="1" stroke-miterlimit="10" d="M 1404.819662 898.881009 L 1609.850602 86.709349 " transform="matrix(0.0997182, 0, 0, -0.0997182, 0.0155, 109.380874)"/>
<path fill="none" stroke-width="5.22321" stroke-linecap="round" stroke-linejoin="round" stroke="rgb(0%, 0%, 0%)" stroke-opacity="1" stroke-miterlimit="10" d="M 1351.701215 840.983468 L 1308.806893 775.133829 " transform="matrix(0.0997182, 0, 0, -0.0997182, 0.0155, 109.380874)"/>
<path fill="none" stroke-width="5.22321" stroke-linecap="round" stroke-linejoin="round" stroke="rgb(0%, 0%, 0%)" stroke-opacity="1" stroke-miterlimit="10" d="M 1351.701215 840.983468 L 1351.701215 255.857915 " transform="matrix(0.0997182, 0, 0, -0.0997182, 0.0155, 109.380874)"/>
<path fill="none" stroke-width="5.22321" stroke-linecap="round" stroke-linejoin="round" stroke="rgb(0%, 0%, 0%)" stroke-opacity="1" stroke-miterlimit="10" d="M 1308.806893 775.133829 L 1277.311885 703.094873 " transform="matrix(0.0997182, 0, 0, -0.0997182, 0.0155, 109.380874)"/>
<path fill="none" stroke-width="5.22321" stroke-linecap="round" stroke-linejoin="round" stroke="rgb(0%, 0%, 0%)" stroke-opacity="1" stroke-miterlimit="10" d="M 1308.806893 775.133829 L 1917.161974 112.250077 " transform="matrix(0.0997182, 0, 0, -0.0997182, 0.0155, 109.380874)"/>
<path fill="none" stroke-width="5.22321" stroke-linecap="round" stroke-linejoin="round" stroke="rgb(0%, 0%, 0%)" stroke-opacity="1" stroke-miterlimit="10" d="M 1277.311885 703.094873 L 1258.077993 626.825244 " transform="matrix(0.0997182, 0, 0, -0.0997182, 0.0155, 109.380874)"/>
<path fill="none" stroke-width="5.22321" stroke-linecap="round" stroke-linejoin="round" stroke="rgb(0%, 0%, 0%)" stroke-opacity="1" stroke-miterlimit="10" d="M 1258.077993 626.825244 L 1251.575292 548.440278 " transform="matrix(0.0997182, 0, 0, -0.0997182, 0.0155, 109.380874)"/>
<path fill="none" stroke-width="5.22321" stroke-linecap="round" stroke-linejoin="round" stroke="rgb(0%, 0%, 0%)" stroke-opacity="1" stroke-miterlimit="10" d="M 1258.077993 626.825244 L 2194.78029 470.01614 " transform="matrix(0.0997182, 0, 0, -0.0997182, 0.0155, 109.380874)"/>
<path fill="none" stroke-width="5.22321" stroke-linecap="round" stroke-linejoin="round" stroke="rgb(0%, 0%, 0%)" stroke-opacity="1" stroke-miterlimit="10" d="M 1251.575292 548.440278 L 1258.077993 470.01614 " transform="matrix(0.0997182, 0, 0, -0.0997182, 0.0155, 109.380874)"/>
<path fill="none" stroke-width="5.22321" stroke-linecap="round" stroke-linejoin="round" stroke="rgb(0%, 0%, 0%)" stroke-opacity="1" stroke-miterlimit="10" d="M 1251.575292 548.440278 L 1535.696309 112.250077 " transform="matrix(0.0997182, 0, 0, -0.0997182, 0.0155, 109.380874)"/>
<path fill="none" stroke-width="5.22321" stroke-linecap="round" stroke-linejoin="round" stroke="rgb(0%, 0%, 0%)" stroke-opacity="1" stroke-miterlimit="10" d="M 1258.077993 470.01614 L 1277.311885 393.785684 " transform="matrix(0.0997182, 0, 0, -0.0997182, 0.0155, 109.380874)"/>
<path fill="none" stroke-width="5.22321" stroke-linecap="round" stroke-linejoin="round" stroke="rgb(0%, 0%, 0%)" stroke-opacity="1" stroke-miterlimit="10" d="M 1277.311885 393.785684 L 1308.806893 321.746727 " transform="matrix(0.0997182, 0, 0, -0.0997182, 0.0155, 109.380874)"/>
<path fill="none" stroke-width="5.22321" stroke-linecap="round" stroke-linejoin="round" stroke="rgb(0%, 0%, 0%)" stroke-opacity="1" stroke-miterlimit="10" d="M 1308.806893 321.746727 L 1351.701215 255.857915 " transform="matrix(0.0997182, 0, 0, -0.0997182, 0.0155, 109.380874)"/>
<path fill="none" stroke-width="5.22321" stroke-linecap="round" stroke-linejoin="round" stroke="rgb(0%, 0%, 0%)" stroke-opacity="1" stroke-miterlimit="10" d="M 1308.806893 321.746727 L 2144.051389 321.746727 " transform="matrix(0.0997182, 0, 0, -0.0997182, 0.0155, 109.380874)"/>
<path fill="none" stroke-width="5.22321" stroke-linecap="round" stroke-linejoin="round" stroke="rgb(0%, 0%, 0%)" stroke-opacity="1" stroke-miterlimit="10" d="M 1351.701215 255.857915 L 1404.819662 197.999548 " transform="matrix(0.0997182, 0, 0, -0.0997182, 0.0155, 109.380874)"/>
<path fill="none" stroke-width="5.22321" stroke-linecap="round" stroke-linejoin="round" stroke="rgb(0%, 0%, 0%)" stroke-opacity="1" stroke-miterlimit="10" d="M 1404.819662 197.999548 L 1466.712838 149.660193 " transform="matrix(0.0997182, 0, 0, -0.0997182, 0.0155, 109.380874)"/>
<path fill="none" stroke-width="5.22321" stroke-linecap="round" stroke-linejoin="round" stroke="rgb(0%, 0%, 0%)" stroke-opacity="1" stroke-miterlimit="10" d="M 1466.712838 149.660193 L 1535.696309 112.250077 " transform="matrix(0.0997182, 0, 0, -0.0997182, 0.0155, 109.380874)"/>
<path fill="none" stroke-width="5.22321" stroke-linecap="round" stroke-linejoin="round" stroke="rgb(0%, 0%, 0%)" stroke-opacity="1" stroke-miterlimit="10" d="M 1466.712838 149.660193 L 2048.03862 197.999548 " transform="matrix(0.0997182, 0, 0, -0.0997182, 0.0155, 109.380874)"/>
<path fill="none" stroke-width="5.22321" stroke-linecap="round" stroke-linejoin="round" stroke="rgb(0%, 0%, 0%)" stroke-opacity="1" stroke-miterlimit="10" d="M 1535.696309 112.250077 L 1609.850602 86.709349 " transform="matrix(0.0997182, 0, 0, -0.0997182, 0.0155, 109.380874)"/>
<path fill="none" stroke-width="5.22321" stroke-linecap="round" stroke-linejoin="round" stroke="rgb(0%, 0%, 0%)" stroke-opacity="1" stroke-miterlimit="10" d="M 1609.850602 86.709349 L 1687.217072 73.74312 " transform="matrix(0.0997182, 0, 0, -0.0997182, 0.0155, 109.380874)"/>
<path fill="none" stroke-width="5.22321" stroke-linecap="round" stroke-linejoin="round" stroke="rgb(0%, 0%, 0%)" stroke-opacity="1" stroke-miterlimit="10" d="M 1687.217072 73.74312 L 1765.64121 73.74312 " transform="matrix(0.0997182, 0, 0, -0.0997182, 0.0155, 109.380874)"/>
<path fill="none" stroke-width="5.22321" stroke-linecap="round" stroke-linejoin="round" stroke="rgb(0%, 0%, 0%)" stroke-opacity="1" stroke-miterlimit="10" d="M 1765.64121 73.74312 L 1843.007681 86.709349 " transform="matrix(0.0997182, 0, 0, -0.0997182, 0.0155, 109.380874)"/>
<path fill="none" stroke-width="5.22321" stroke-linecap="round" stroke-linejoin="round" stroke="rgb(0%, 0%, 0%)" stroke-opacity="1" stroke-miterlimit="10" d="M 1765.64121 73.74312 L 2175.546398 393.785684 " transform="matrix(0.0997182, 0, 0, -0.0997182, 0.0155, 109.380874)"/>
<path fill="none" stroke-width="5.22321" stroke-linecap="round" stroke-linejoin="round" stroke="rgb(0%, 0%, 0%)" stroke-opacity="1" stroke-miterlimit="10" d="M 1843.007681 86.709349 L 1917.161974 112.250077 " transform="matrix(0.0997182, 0, 0, -0.0997182, 0.0155, 109.380874)"/>
<path fill="none" stroke-width="5.22321" stroke-linecap="round" stroke-linejoin="round" stroke="rgb(0%, 0%, 0%)" stroke-opacity="1" stroke-miterlimit="10" d="M 1917.161974 112.250077 L 1986.145444 149.660193 " transform="matrix(0.0997182, 0, 0, -0.0997182, 0.0155, 109.380874)"/>
<path fill="none" stroke-width="5.22321" stroke-linecap="round" stroke-linejoin="round" stroke="rgb(0%, 0%, 0%)" stroke-opacity="1" stroke-miterlimit="10" d="M 1986.145444 149.660193 L 2048.03862 197.999548 " transform="matrix(0.0997182, 0, 0, -0.0997182, 0.0155, 109.380874)"/>
<path fill="none" stroke-width="5.22321" stroke-linecap="round" stroke-linejoin="round" stroke="rgb(0%, 0%, 0%)" stroke-opacity="1" stroke-miterlimit="10" d="M 2048.03862 197.999548 L 2101.157068 255.857915 " transform="matrix(0.0997182, 0, 0, -0.0997182, 0.0155, 109.380874)"/>
<path fill="none" stroke-width="5.22321" stroke-linecap="round" stroke-linejoin="round" stroke="rgb(0%, 0%, 0%)" stroke-opacity="1" stroke-miterlimit="10" d="M 2101.157068 255.857915 L 2144.051389 321.746727 " transform="matrix(0.0997182, 0, 0, -0.0997182, 0.0155, 109.380874)"/>
<path fill="none" stroke-width="5.22321" stroke-linecap="round" stroke-linejoin="round" stroke="rgb(0%, 0%, 0%)" stroke-opacity="1" stroke-miterlimit="10" d="M 2144.051389 321.746727 L 2175.546398 393.785684 " transform="matrix(0.0997182, 0, 0, -0.0997182, 0.0155, 109.380874)"/>
<path fill="none" stroke-width="5.22321" stroke-linecap="round" stroke-linejoin="round" stroke="rgb(0%, 0%, 0%)" stroke-opacity="1" stroke-miterlimit="10" d="M 2175.546398 393.785684 L 2194.78029 470.01614 " transform="matrix(0.0997182, 0, 0, -0.0997182, 0.0155, 109.380874)"/>
<path fill="none" stroke-width="5.22321" stroke-linecap="round" stroke-linejoin="round" stroke="rgb(0%, 0%, 0%)" stroke-opacity="1" stroke-miterlimit="10" d="M 2194.78029 470.01614 L 2201.282991 548.440278 " transform="matrix(0.0997182, 0, 0, -0.0997182, 0.0155, 109.380874)"/>
<path fill="none" stroke-width="47.0089" stroke-linecap="round" stroke-linejoin="round" stroke="rgb(100%, 0%, 0%)" stroke-opacity="1" stroke-miterlimit="10" d="M 2194.78029 626.825244 L 2194.78029 626.825244 " transform="matrix(0.0997182, 0, 0, -0.0997182, 0.0155, 109.380874)"/>
<path fill="none" stroke-width="47.0089" stroke-linecap="round" stroke-linejoin="round" stroke="rgb(100%, 0%, 0%)" stroke-opacity="1" stroke-miterlimit="10" d="M 2175.546398 703.094873 L 2175.546398 703.094873 " transform="matrix(0.0997182, 0, 0, -0.0997182, 0.0155, 109.380874)"/>
<path fill="none" stroke-width="47.0089" stroke-linecap="round" stroke-linejoin="round" stroke="rgb(100%, 0%, 0%)" stroke-opacity="1" stroke-miterlimit="10" d="M 2144.051389 775.133829 L 2144.051389 775.133829 " transform="matrix(0.0997182, 0, 0, -0.0997182, 0.0155, 109.380874)"/>
<path fill="none" stroke-width="47.0089" stroke-linecap="round" stroke-linejoin="round" stroke="rgb(100%, 0%, 0%)" stroke-opacity="1" stroke-miterlimit="10" d="M 2101.157068 840.983468 L 2101.157068 840.983468 " transform="matrix(0.0997182, 0, 0, -0.0997182, 0.0155, 109.380874)"/>
<path fill="none" stroke-width="47.0089" stroke-linecap="round" stroke-linejoin="round" stroke="rgb(100%, 0%, 0%)" stroke-opacity="1" stroke-miterlimit="10" d="M 2048.03862 898.881009 L 2048.03862 898.881009 " transform="matrix(0.0997182, 0, 0, -0.0997182, 0.0155, 109.380874)"/>
<path fill="none" stroke-width="47.0089" stroke-linecap="round" stroke-linejoin="round" stroke="rgb(100%, 0%, 0%)" stroke-opacity="1" stroke-miterlimit="10" d="M 1986.145444 947.18119 L 1986.145444 947.18119 " transform="matrix(0.0997182, 0, 0, -0.0997182, 0.0155, 109.380874)"/>
<path fill="none" stroke-width="47.0089" stroke-linecap="round" stroke-linejoin="round" stroke="rgb(100%, 0%, 0%)" stroke-opacity="1" stroke-miterlimit="10" d="M 1917.161974 984.630479 L 1917.161974 984.630479 " transform="matrix(0.0997182, 0, 0, -0.0997182, 0.0155, 109.380874)"/>
<path fill="none" stroke-width="47.0089" stroke-linecap="round" stroke-linejoin="round" stroke="rgb(100%, 0%, 0%)" stroke-opacity="1" stroke-miterlimit="10" d="M 1843.007681 1010.171207 L 1843.007681 1010.171207 " transform="matrix(0.0997182, 0, 0, -0.0997182, 0.0155, 109.380874)"/>
<path fill="none" stroke-width="47.0089" stroke-linecap="round" stroke-linejoin="round" stroke="rgb(100%, 0%, 0%)" stroke-opacity="1" stroke-miterlimit="10" d="M 1765.64121 1023.137436 L 1765.64121 1023.137436 " transform="matrix(0.0997182, 0, 0, -0.0997182, 0.0155, 109.380874)"/>
<path fill="none" stroke-width="47.0089" stroke-linecap="round" stroke-linejoin="round" stroke="rgb(100%, 0%, 0%)" stroke-opacity="1" stroke-miterlimit="10" d="M 1687.217072 1023.137436 L 1687.217072 1023.137436 " transform="matrix(0.0997182, 0, 0, -0.0997182, 0.0155, 109.380874)"/>
<path fill="none" stroke-width="47.0089" stroke-linecap="round" stroke-linejoin="round" stroke="rgb(100%, 0%, 0%)" stroke-opacity="1" stroke-miterlimit="10" d="M 1609.850602 1010.171207 L 1609.850602 1010.171207 " transform="matrix(0.0997182, 0, 0, -0.0997182, 0.0155, 109.380874)"/>
<path fill="none" stroke-width="47.0089" stroke-linecap="round" stroke-linejoin="round" stroke="rgb(100%, 0%, 0%)" stroke-opacity="1" stroke-miterlimit="10" d="M 1535.696309 984.630479 L 1535.696309 984.630479 " transform="matrix(0.0997182, 0, 0, -0.0997182, 0.0155, 109.380874)"/>
<path fill="none" stroke-width="47.0089" stroke-linecap="round" stroke-linejoin="round" stroke="rgb(100%, 0%, 0%)" stroke-opacity="1" stroke-miterlimit="10" d="M 1466.712838 947.18119 L 1466.712838 947.18119 " transform="matrix(0.0997182, 0, 0, -0.0997182, 0.0155, 109.380874)"/>
<path fill="none" stroke-width="47.0089" stroke-linecap="round" stroke-linejoin="round" stroke="rgb(100%, 0%, 0%)" stroke-opacity="1" stroke-miterlimit="10" d="M 1404.819662 898.881009 L 1404.819662 898.881009 " transform="matrix(0.0997182, 0, 0, -0.0997182, 0.0155, 109.380874)"/>
<path fill="none" stroke-width="47.0089" stroke-linecap="round" stroke-linejoin="round" stroke="rgb(100%, 0%, 0%)" stroke-opacity="1" stroke-miterlimit="10" d="M 1351.701215 840.983468 L 1351.701215 840.983468 " transform="matrix(0.0997182, 0, 0, -0.0997182, 0.0155, 109.380874)"/>
<path fill="none" stroke-width="47.0089" stroke-linecap="round" stroke-linejoin="round" stroke="rgb(100%, 0%, 0%)" stroke-opacity="1" stroke-miterlimit="10" d="M 1308.806893 775.133829 L 1308.806893 775.133829 " transform="matrix(0.0997182, 0, 0, -0.0997182, 0.0155, 109.380874)"/>
<path fill="none" stroke-width="47.0089" stroke-linecap="round" stroke-linejoin="round" stroke="rgb(100%, 0%, 0%)" stroke-opacity="1" stroke-miterlimit="10" d="M 1277.311885 703.094873 L 1277.311885 703.094873 " transform="matrix(0.0997182, 0, 0, -0.0997182, 0.0155, 109.380874)"/>
<path fill="none" stroke-width="47.0089" stroke-linecap="round" stroke-linejoin="round" stroke="rgb(100%, 0%, 0%)" stroke-opacity="1" stroke-miterlimit="10" d="M 1258.077993 626.825244 L 1258.077993 626.825244 " transform="matrix(0.0997182, 0, 0, -0.0997182, 0.0155, 109.380874)"/>
<path fill="none" stroke-width="47.0089" stroke-linecap="round" stroke-linejoin="round" stroke="rgb(100%, 0%, 0%)" stroke-opacity="1" stroke-miterlimit="10" d="M 1251.575292 548.440278 L 1251.575292 548.440278 " transform="matrix(0.0997182, 0, 0, -0.0997182, 0.0155, 109.380874)"/>
<path fill="none" stroke-width="47.0089" stroke-linecap="round" stroke-linejoin="round" stroke="rgb(100%, 0%, 0%)" stroke-opacity="1" stroke-miterlimit="10" d="M 1258.077993 470.01614 L 1258.077993 470.01614 " transform="matrix(0.0997182, 0, 0, -0.0997182, 0.0155, 109.380874)"/>
<path fill="none" stroke-width="47.0089" stroke-linecap="round" stroke-linejoin="round" stroke="rgb(100%, 0%, 0%)" stroke-opacity="1" stroke-miterlimit="10" d="M 1277.311885 393.785684 L 1277.311885 393.785684 " transform="matrix(0.0997182, 0, 0, -0.0997182, 0.0155, 109.380874)"/>
<path fill="none" stroke-width="47.0089" stroke-linecap="round" stroke-linejoin="round" stroke="rgb(100%, 0%, 0%)" stroke-opacity="1" stroke-miterlimit="10" d="M 1308.806893 321.746727 L 1308.806893 321.746727 " transform="matrix(0.0997182, 0, 0, -0.0997182, 0.0155, 109.380874)"/>
<path fill="none" stroke-width="47.0089" stroke-linecap="round" stroke-linejoin="round" stroke="rgb(100%, 0%, 0%)" stroke-opacity="1" stroke-miterlimit="10" d="M 1351.701215 255.857915 L 1351.701215 255.857915 " transform="matrix(0.0997182, 0, 0, -0.0997182, 0.0155, 109.380874)"/>
<path fill="none" stroke-width="47.0089" stroke-linecap="round" stroke-linejoin="round" stroke="rgb(100%, 0%, 0%)" stroke-opacity="1" stroke-miterlimit="10" d="M 1404.819662 197.999548 L 1404.819662 197.999548 " transform="matrix(0.0997182, 0, 0, -0.0997182, 0.0155, 109.380874)"/>
<path fill="none" stroke-width="47.0089" stroke-linecap="round" stroke-linejoin="round" stroke="rgb(100%, 0%, 0%)" stroke-opacity="1" stroke-miterlimit="10" d="M 1466.712838 149.660193 L 1466.712838 149.660193 " transform="matrix(0.0997182, 0, 0, -0.0997182, 0.0155, 109.380874)"/>
<path fill="none" stroke-width="47.0089" stroke-linecap="round" stroke-linejoin="round" stroke="rgb(100%, 0%, 0%)" stroke-opacity="1" stroke-miterlimit="10" d="M 1535.696309 112.250077 L 1535.696309 112.250077 " transform="matrix(0.0997182, 0, 0, -0.0997182, 0.0155, 109.380874)"/>
<path fill="none" stroke-width="47.0089" stroke-linecap="round" stroke-linejoin="round" stroke="rgb(100%, 0%, 0%)" stroke-opacity="1" stroke-miterlimit="10" d="M 1609.850602 86.709349 L 1609.850602 86.709349 " transform="matrix(0.0997182, 0, 0, -0.0997182, 0.0155, 109.380874)"/>
<path fill="none" stroke-width="47.0089" stroke-linecap="round" stroke-linejoin="round" stroke="rgb(100%, 0%, 0%)" stroke-opacity="1" stroke-miterlimit="10" d="M 1687.217072 73.74312 L 1687.217072 73.74312 " transform="matrix(0.0997182, 0, 0, -0.0997182, 0.0155, 109.380874)"/>
<path fill="none" stroke-width="47.0089" stroke-linecap="round" stroke-linejoin="round" stroke="rgb(100%, 0%, 0%)" stroke-opacity="1" stroke-miterlimit="10" d="M 1765.64121 73.74312 L 1765.64121 73.74312 " transform="matrix(0.0997182, 0, 0, -0.0997182, 0.0155, 109.380874)"/>
<path fill="none" stroke-width="47.0089" stroke-linecap="round" stroke-linejoin="round" stroke="rgb(100%, 0%, 0%)" stroke-opacity="1" stroke-miterlimit="10" d="M 1843.007681 86.709349 L 1843.007681 86.709349 " transform="matrix(0.0997182, 0, 0, -0.0997182, 0.0155, 109.380874)"/>
<path fill="none" stroke-width="47.0089" stroke-linecap="round" stroke-linejoin="round" stroke="rgb(100%, 0%, 0%)" stroke-opacity="1" stroke-miterlimit="10" d="M 1917.161974 112.250077 L 1917.161974 112.250077 " transform="matrix(0.0997182, 0, 0, -0.0997182, 0.0155, 109.380874)"/>
<path fill="none" stroke-width="47.0089" stroke-linecap="round" stroke-linejoin="round" stroke="rgb(100%, 0%, 0%)" stroke-opacity="1" stroke-miterlimit="10" d="M 1986.145444 149.660193 L 1986.145444 149.660193 " transform="matrix(0.0997182, 0, 0, -0.0997182, 0.0155, 109.380874)"/>
<path fill="none" stroke-width="47.0089" stroke-linecap="round" stroke-linejoin="round" stroke="rgb(100%, 0%, 0%)" stroke-opacity="1" stroke-miterlimit="10" d="M 2048.03862 197.999548 L 2048.03862 197.999548 " transform="matrix(0.0997182, 0, 0, -0.0997182, 0.0155, 109.380874)"/>
<path fill="none" stroke-width="47.0089" stroke-linecap="round" stroke-linejoin="round" stroke="rgb(100%, 0%, 0%)" stroke-opacity="1" stroke-miterlimit="10" d="M 2101.157068 255.857915 L 2101.157068 255.857915 " transform="matrix(0.0997182, 0, 0, -0.0997182, 0.0155, 109.380874)"/>
<path fill="none" stroke-width="47.0089" stroke-linecap="round" stroke-linejoin="round" stroke="rgb(100%, 0%, 0%)" stroke-opacity="1" stroke-miterlimit="10" d="M 2144.051389 321.746727 L 2144.051389 321.746727 " transform="matrix(0.0997182, 0, 0, -0.0997182, 0.0155, 109.380874)"/>
<path fill="none" stroke-width="47.0089" stroke-linecap="round" stroke-linejoin="round" stroke="rgb(100%, 0%, 0%)" stroke-opacity="1" stroke-miterlimit="10" d="M 2175.546398 393.785684 L 2175.546398 393.785684 " transform="matrix(0.0997182, 0, 0, -0.0997182, 0.0155, 109.380874)"/>
<path fill="none" stroke-width="47.0089" stroke-linecap="round" stroke-linejoin="round" stroke="rgb(100%, 0%, 0%)" stroke-opacity="1" stroke-miterlimit="10" d="M 2194.78029 470.01614 L 2194.78029 470.01614 " transform="matrix(0.0997182, 0, 0, -0.0997182, 0.0155, 109.380874)"/>
<path fill="none" stroke-width="47.0089" stroke-linecap="round" stroke-linejoin="round" stroke="rgb(100%, 0%, 0%)" stroke-opacity="1" stroke-miterlimit="10" d="M 2201.282991 548.440278 L 2201.282991 548.440278 " transform="matrix(0.0997182, 0, 0, -0.0997182, 0.0155, 109.380874)"/>
</svg>
