<?xml version="1.0" encoding="UTF-8"?>
<svg xmlns="http://www.w3.org/2000/svg" xmlns:xlink="http://www.w3.org/1999/xlink" width="400" height="196" viewBox="0 0 400 196">
<path fill="none" stroke-width="3.75" stroke-linecap="square" stroke-linejoin="miter" stroke="rgb(0%, 0%, 0%)" stroke-opacity="1" stroke-miterlimit="3.239" d="M 61.875 1433.75 L 560 1433.75 " transform="matrix(0.1, 0, 0, -0.1, 0, 196)"/>
<path fill="none" stroke-width="3.75" stroke-linecap="square" stroke-linejoin="miter" stroke="rgb(0%, 0%, 0%)" stroke-opacity="1" stroke-miterlimit="3.239" d="M 61.875 1433.75 L 311.25 1864.375 " transform="matrix(0.1, 0, 0, -0.1, 0, 196)"/>
<path fill="none" stroke-width="3.75" stroke-linecap="square" stroke-linejoin="miter" stroke="rgb(0%, 0%, 0%)" stroke-opacity="1" stroke-miterlimit="3.239" d="M 61.875 1433.75 L 311.25 1576.875 " transform="matrix(0.1, 0, 0, -0.1, 0, 196)"/>
<path fill="none" stroke-width="3.75" stroke-linecap="square" stroke-linejoin="miter" stroke="rgb(0%, 0%, 0%)" stroke-opacity="1" stroke-miterlimit="3.239" d="M 560 1433.75 L 311.25 1864.375 " transform="matrix(0.1, 0, 0, -0.1, 0, 196)"/>
<path fill="none" stroke-width="3.75" stroke-linecap="square" stroke-linejoin="miter" stroke="rgb(0%, 0%, 0%)" stroke-opacity="1" stroke-miterlimit="3.239" d="M 560 1433.75 L 311.25 1576.875 " transform="matrix(0.1, 0, 0, -0.1, 0, 196)"/>
<path fill="none" stroke-width="3.75" stroke-linecap="square" stroke-linejoin="miter" stroke="rgb(0%, 0%, 0%)" stroke-opacity="1" stroke-miterlimit="3.239" d="M 311.25 1864.375 L 311.25 1576.875 " transform="matrix(0.1, 0, 0, -0.1, 0, 196)"/>
<path fill-rule="nonzero" fill="rgb(100%, 0%, 0%)" fill-opacity="1" d="M 8.1875 52.625 C 8.1875 52.125 8 51.5625 7.625 51.1875 C 7.25 50.8125 6.6875 50.625 6.1875 50.625 C 5.6875 50.625 5.125 50.8125 4.75 51.1875 C 4.375 51.5625 4.1875 52.125 4.1875 52.625 C 4.1875 53.125 4.375 53.6875 4.75 54.0625 C 5.125 54.4375 5.6875 54.625 6.1875 54.625 C 6.6875 54.625 7.25 54.4375 7.625 54.0625 C 8 53.6875 8.1875 53.125 8.1875 52.625 "/>
<path fill-rule="nonzero" fill="rgb(100%, 0%, 0%)" fill-opacity="1" d="M 58 52.625 C 58 52.125 57.8125 51.5625 57.4375 51.1875 C 57.0625 50.8125 56.5 50.625 56 50.625 C 55.5 50.625 54.9375 50.8125 54.5625 51.1875 C 54.1875 51.5625 54 52.125 54 52.625 C 54 53.125 54.1875 53.6875 54.5625 54.0625 C 54.9375 54.4375 55.5 54.625 56 54.625 C 56.5 54.625 57.0625 54.4375 57.4375 54.0625 C 57.8125 53.6875 58 53.125 58 52.625 "/>
<path fill-rule="nonzero" fill="rgb(100%, 0%, 0%)" fill-opacity="1" d="M 33.125 9.5625 C 33.125 9.0625 32.9375 8.5 32.5625 8.125 C 32.1875 7.75 31.625 7.5625 31.125 7.5625 C 30.625 7.5625 30.0625 7.75 29.6875 8.125 C 29.3125 8.5 29.125 9.0625 29.125 9.5625 C 29.125 10.0625 29.3125 10.625 29.6875 11 C 30.0625 11.375 30.625 11.5625 31.125 11.5625 C 31.625 11.5625 32.1875 11.375 32.5625 11 C 32.9375 10.625 33.125 10.0625 33.125 9.5625 "/>
<path fill-rule="nonzero" fill="rgb(100%, 0%, 0%)" fill-opacity="1" d="M 33.125 38.3125 C 33.125 37.8125 32.9375 37.25 32.5625 36.875 C 32.1875 36.5 31.625 36.3125 31.125 36.3125 C 30.625 36.3125 30.0625 36.5 29.6875 36.875 C 29.3125 37.25 29.125 37.8125 29.125 38.3125 C 29.125 38.8125 29.3125 39.375 29.6875 39.75 C 30.0625 40.125 30.625 40.3125 31.125 40.3125 C 31.625 40.3125 32.1875 40.125 32.5625 39.75 C 32.9375 39.375 33.125 38.8125 33.125 38.3125 "/>
<path fill="none" stroke-width="3.75" stroke-linecap="square" stroke-linejoin="miter" stroke="rgb(0%, 0%, 0%)" stroke-opacity="1" stroke-miterlimit="3.239" d="M 435.625 836.25 L 311.25 1051.875 " transform="matrix(0.1, 0, 0, -0.1, 0, 196)"/>
<path fill="none" stroke-width="3.75" stroke-linecap="square" stroke-linejoin="miter" stroke="rgb(0%, 0%, 0%)" stroke-opacity="1" stroke-miterlimit="3.239" d="M 435.625 836.25 L 186.25 836.25 " transform="matrix(0.1, 0, 0, -0.1, 0, 196)"/>
<path fill="none" stroke-width="3.75" stroke-linecap="square" stroke-linejoin="miter" stroke="rgb(0%, 0%, 0%)" stroke-opacity="1" stroke-miterlimit="3.239" d="M 435.625 836.25 L 560 764.375 " transform="matrix(0.1, 0, 0, -0.1, 0, 196)"/>
<path fill="none" stroke-width="3.75" stroke-linecap="square" stroke-linejoin="miter" stroke="rgb(0%, 0%, 0%)" stroke-opacity="1" stroke-miterlimit="3.239" d="M 311.25 1051.875 L 186.25 836.25 " transform="matrix(0.1, 0, 0, -0.1, 0, 196)"/>
<path fill="none" stroke-width="3.75" stroke-linecap="square" stroke-linejoin="miter" stroke="rgb(0%, 0%, 0%)" stroke-opacity="1" stroke-miterlimit="3.239" d="M 311.25 1051.875 L 311.25 1195.625 " transform="matrix(0.1, 0, 0, -0.1, 0, 196)"/>
<path fill="none" stroke-width="3.75" stroke-linecap="square" stroke-linejoin="miter" stroke="rgb(0%, 0%, 0%)" stroke-opacity="1" stroke-miterlimit="3.239" d="M 186.25 836.25 L 61.875 764.375 " transform="matrix(0.1, 0, 0, -0.1, 0, 196)"/>
<path fill="none" stroke-width="3.75" stroke-linecap="square" stroke-linejoin="miter" stroke="rgb(0%, 0%, 0%)" stroke-opacity="1" stroke-miterlimit="3.239" d="M 560 764.375 L 311.25 1195.625 " transform="matrix(0.1, 0, 0, -0.1, 0, 196)"/>
<path fill="none" stroke-width="3.75" stroke-linecap="square" stroke-linejoin="miter" stroke="rgb(0%, 0%, 0%)" stroke-opacity="1" stroke-miterlimit="3.239" d="M 560 764.375 L 61.875 764.375 " transform="matrix(0.1, 0, 0, -0.1, 0, 196)"/>
<path fill="none" stroke-width="3.75" stroke-linecap="square" stroke-linejoin="miter" stroke="rgb(0%, 0%, 0%)" stroke-opacity="1" stroke-miterlimit="3.239" d="M 311.25 1195.625 L 61.875 764.375 " transform="matrix(0.1, 0, 0, -0.1, 0, 196)"/>
<path fill-rule="nonzero" fill="rgb(100%, 0%, 0%)" fill-opacity="1" d="M 45.5625 112.375 C 45.5625 111.875 45.375 111.3125 45 110.9375 C 44.625 110.5625 44.0625 110.375 43.5625 110.375 C 43.0625 110.375 42.5 110.5625 42.125 110.9375 C 41.75 111.3125 41.5625 111.875 41.5625 112.375 C 41.5625 112.875 41.75 113.4375 42.125 113.8125 C 42.5 114.1875 43.0625 114.375 43.5625 114.375 C 44.0625 114.375 44.625 114.1875 45 113.8125 C 45.375 113.4375 45.5625 112.875 45.5625 112.375 "/>
<path fill-rule="nonzero" fill="rgb(100%, 0%, 0%)" fill-opacity="1" d="M 33.125 90.8125 C 33.125 90.3125 32.9375 89.75 32.5625 89.375 C 32.1875 89 31.625 88.8125 31.125 88.8125 C 30.625 88.8125 30.0625 89 29.6875 89.375 C 29.3125 89.75 29.125 90.3125 29.125 90.8125 C 29.125 91.3125 29.3125 91.875 29.6875 92.25 C 30.0625 92.625 30.625 92.8125 31.125 92.8125 C 31.625 92.8125 32.1875 92.625 32.5625 92.25 C 32.9375 91.875 33.125 91.3125 33.125 90.8125 "/>
<path fill-rule="nonzero" fill="rgb(100%, 0%, 0%)" fill-opacity="1" d="M 20.625 112.375 C 20.625 111.875 20.4375 111.3125 20.0625 110.9375 C 19.6875 110.5625 19.125 110.375 18.625 110.375 C 18.125 110.375 17.5625 110.5625 17.1875 110.9375 C 16.8125 111.3125 16.625 111.875 16.625 112.375 C 16.625 112.875 16.8125 113.4375 17.1875 113.8125 C 17.5625 114.1875 18.125 114.375 18.625 114.375 C 19.125 114.375 19.6875 114.1875 20.0625 113.8125 C 20.4375 113.4375 20.625 112.875 20.625 112.375 "/>
<path fill-rule="nonzero" fill="rgb(100%, 0%, 0%)" fill-opacity="1" d="M 58 119.5625 C 58 119.0625 57.8125 118.5 57.4375 118.125 C 57.0625 117.75 56.5 117.5625 56 117.5625 C 55.5 117.5625 54.9375 117.75 54.5625 118.125 C 54.1875 118.5 54 119.0625 54 119.5625 C 54 120.0625 54.1875 120.625 54.5625 121 C 54.9375 121.375 55.5 121.5625 56 121.5625 C 56.5 121.5625 57.0625 121.375 57.4375 121 C 57.8125 120.625 58 120.0625 58 119.5625 "/>
<path fill-rule="nonzero" fill="rgb(100%, 0%, 0%)" fill-opacity="1" d="M 33.125 76.4375 C 33.125 75.9375 32.9375 75.375 32.5625 75 C 32.1875 74.625 31.625 74.4375 31.125 74.4375 C 30.625 74.4375 30.0625 74.625 29.6875 75 C 29.3125 75.375 29.125 75.9375 29.125 76.4375 C 29.125 76.9375 29.3125 77.5 29.6875 77.875 C 30.0625 78.25 30.625 78.4375 31.125 78.4375 C 31.625 78.4375 32.1875 78.25 32.5625 77.875 C 32.9375 77.5 33.125 76.9375 33.125 76.4375 "/>
<path fill-rule="nonzero" fill="rgb(100%, 0%, 0%)" fill-opacity="1" d="M 8.1875 119.5625 C 8.1875 119.0625 8 118.5 7.625 118.125 C 7.25 117.75 6.6875 117.5625 6.1875 117.5625 C 5.6875 117.5625 5.125 117.75 4.75 118.125 C 4.375 118.5 4.1875 119.0625 4.1875 119.5625 C 4.1875 120.0625 4.375 120.625 4.75 121 C 5.125 121.375 5.6875 121.5625 6.1875 121.5625 C 6.6875 121.5625 7.25 121.375 7.625 121 C 8 120.625 8.1875 120.0625 8.1875 119.5625 "/>
<path fill="none" stroke-width="3.75" stroke-linecap="square" stroke-linejoin="miter" stroke="rgb(0%, 0%, 0%)" stroke-opacity="1" stroke-miterlimit="3.239" d="M 861.875 731.25 L 1111.25 731.25 " transform="matrix(0.1, 0, 0, -0.1, 0, 196)"/>
<path fill="none" stroke-width="3.75" stroke-linecap="square" stroke-linejoin="miter" stroke="rgb(0%, 0%, 0%)" stroke-opacity="1" stroke-miterlimit="3.239" d="M 861.875 731.25 L 1111.25 980 " transform="matrix(0.1, 0, 0, -0.1, 0, 196)"/>
<path fill="none" stroke-width="3.75" stroke-linecap="square" stroke-linejoin="miter" stroke="rgb(0%, 0%, 0%)" stroke-opacity="1" stroke-miterlimit="3.239" d="M 861.875 731.25 L 1111.25 1228.75 " transform="matrix(0.1, 0, 0, -0.1, 0, 196)"/>
<path fill="none" stroke-width="3.75" stroke-linecap="square" stroke-linejoin="miter" stroke="rgb(0%, 0%, 0%)" stroke-opacity="1" stroke-miterlimit="3.239" d="M 861.875 980 L 1111.25 731.25 " transform="matrix(0.1, 0, 0, -0.1, 0, 196)"/>
<path fill="none" stroke-width="3.75" stroke-linecap="square" stroke-linejoin="miter" stroke="rgb(0%, 0%, 0%)" stroke-opacity="1" stroke-miterlimit="3.239" d="M 861.875 980 L 1111.25 980 " transform="matrix(0.1, 0, 0, -0.1, 0, 196)"/>
<path fill="none" stroke-width="3.75" stroke-linecap="square" stroke-linejoin="miter" stroke="rgb(0%, 0%, 0%)" stroke-opacity="1" stroke-miterlimit="3.239" d="M 861.875 980 L 1111.25 1228.75 " transform="matrix(0.1, 0, 0, -0.1, 0, 196)"/>
<path fill="none" stroke-width="3.75" stroke-linecap="square" stroke-linejoin="miter" stroke="rgb(0%, 0%, 0%)" stroke-opacity="1" stroke-miterlimit="3.239" d="M 861.875 1228.75 L 1111.25 731.25 " transform="matrix(0.1, 0, 0, -0.1, 0, 196)"/>
<path fill="none" stroke-width="3.75" stroke-linecap="square" stroke-linejoin="miter" stroke="rgb(0%, 0%, 0%)" stroke-opacity="1" stroke-miterlimit="3.239" d="M 861.875 1228.75 L 1111.25 980 " transform="matrix(0.1, 0, 0, -0.1, 0, 196)"/>
<path fill="none" stroke-width="3.75" stroke-linecap="square" stroke-linejoin="miter" stroke="rgb(0%, 0%, 0%)" stroke-opacity="1" stroke-miterlimit="3.239" d="M 861.875 1228.75 L 1111.25 1228.75 " transform="matrix(0.1, 0, 0, -0.1, 0, 196)"/>
<path fill-rule="nonzero" fill="rgb(100%, 0%, 0%)" fill-opacity="1" d="M 88.1875 122.875 C 88.1875 122.375 88 121.8125 87.625 121.4375 C 87.25 121.0625 86.6875 120.875 86.1875 120.875 C 85.6875 120.875 85.125 121.0625 84.75 121.4375 C 84.375 121.8125 84.1875 122.375 84.1875 122.875 C 84.1875 123.375 84.375 123.9375 84.75 124.3125 C 85.125 124.6875 85.6875 124.875 86.1875 124.875 C 86.6875 124.875 87.25 124.6875 87.625 124.3125 C 88 123.9375 88.1875 123.375 88.1875 122.875 "/>
<path fill-rule="nonzero" fill="rgb(100%, 0%, 0%)" fill-opacity="1" d="M 88.1875 98 C 88.1875 97.5 88 96.9375 87.625 96.5625 C 87.25 96.1875 86.6875 96 86.1875 96 C 85.6875 96 85.125 96.1875 84.75 96.5625 C 84.375 96.9375 84.1875 97.5 84.1875 98 C 84.1875 98.5 84.375 99.0625 84.75 99.4375 C 85.125 99.8125 85.6875 100 86.1875 100 C 86.6875 100 87.25 99.8125 87.625 99.4375 C 88 99.0625 88.1875 98.5 88.1875 98 "/>
<path fill-rule="nonzero" fill="rgb(100%, 0%, 0%)" fill-opacity="1" d="M 88.1875 73.125 C 88.1875 72.625 88 72.0625 87.625 71.6875 C 87.25 71.3125 86.6875 71.125 86.1875 71.125 C 85.6875 71.125 85.125 71.3125 84.75 71.6875 C 84.375 72.0625 84.1875 72.625 84.1875 73.125 C 84.1875 73.625 84.375 74.1875 84.75 74.5625 C 85.125 74.9375 85.6875 75.125 86.1875 75.125 C 86.6875 75.125 87.25 74.9375 87.625 74.5625 C 88 74.1875 88.1875 73.625 88.1875 73.125 "/>
<path fill-rule="nonzero" fill="rgb(100%, 0%, 0%)" fill-opacity="1" d="M 113.125 122.875 C 113.125 122.375 112.9375 121.8125 112.5625 121.4375 C 112.1875 121.0625 111.625 120.875 111.125 120.875 C 110.625 120.875 110.0625 121.0625 109.6875 121.4375 C 109.3125 121.8125 109.125 122.375 109.125 122.875 C 109.125 123.375 109.3125 123.9375 109.6875 124.3125 C 110.0625 124.6875 110.625 124.875 111.125 124.875 C 111.625 124.875 112.1875 124.6875 112.5625 124.3125 C 112.9375 123.9375 113.125 123.375 113.125 122.875 "/>
<path fill-rule="nonzero" fill="rgb(100%, 0%, 0%)" fill-opacity="1" d="M 113.125 98 C 113.125 97.5 112.9375 96.9375 112.5625 96.5625 C 112.1875 96.1875 111.625 96 111.125 96 C 110.625 96 110.0625 96.1875 109.6875 96.5625 C 109.3125 96.9375 109.125 97.5 109.125 98 C 109.125 98.5 109.3125 99.0625 109.6875 99.4375 C 110.0625 99.8125 110.625 100 111.125 100 C 111.625 100 112.1875 99.8125 112.5625 99.4375 C 112.9375 99.0625 113.125 98.5 113.125 98 "/>
<path fill-rule="nonzero" fill="rgb(100%, 0%, 0%)" fill-opacity="1" d="M 113.125 73.125 C 113.125 72.625 112.9375 72.0625 112.5625 71.6875 C 112.1875 71.3125 111.625 71.125 111.125 71.125 C 110.625 71.125 110.0625 71.3125 109.6875 71.6875 C 109.3125 72.0625 109.125 72.625 109.125 73.125 C 109.125 73.625 109.3125 74.1875 109.6875 74.5625 C 110.0625 74.9375 110.625 75.125 111.125 75.125 C 111.625 75.125 112.1875 74.9375 112.5625 74.5625 C 112.9375 74.1875 113.125 73.625 113.125 73.125 "/>
<path fill="none" stroke-width="3.75" stroke-linecap="square" stroke-linejoin="miter" stroke="rgb(0%, 0%, 0%)" stroke-opacity="1" stroke-miterlimit="3.239" d="M 486.875 487.5 L 135 487.5 " transform="matrix(0.1, 0, 0, -0.1, 0, 196)"/>
<path fill="none" stroke-width="3.75" stroke-linecap="square" stroke-linejoin="miter" stroke="rgb(0%, 0%, 0%)" stroke-opacity="1" stroke-miterlimit="3.239" d="M 486.875 487.5 L 135 135 " transform="matrix(0.1, 0, 0, -0.1, 0, 196)"/>
<path fill="none" stroke-width="3.75" stroke-linecap="square" stroke-linejoin="miter" stroke="rgb(0%, 0%, 0%)" stroke-opacity="1" stroke-miterlimit="3.239" d="M 486.875 487.5 L 486.875 135 " transform="matrix(0.1, 0, 0, -0.1, 0, 196)"/>
<path fill="none" stroke-width="3.75" stroke-linecap="square" stroke-linejoin="miter" stroke="rgb(0%, 0%, 0%)" stroke-opacity="1" stroke-miterlimit="3.239" d="M 311.25 560 L 61.875 311.25 " transform="matrix(0.1, 0, 0, -0.1, 0, 196)"/>
<path fill="none" stroke-width="3.75" stroke-linecap="square" stroke-linejoin="miter" stroke="rgb(0%, 0%, 0%)" stroke-opacity="1" stroke-miterlimit="3.239" d="M 311.25 560 L 311.25 62.5 " transform="matrix(0.1, 0, 0, -0.1, 0, 196)"/>
<path fill="none" stroke-width="3.75" stroke-linecap="square" stroke-linejoin="miter" stroke="rgb(0%, 0%, 0%)" stroke-opacity="1" stroke-miterlimit="3.239" d="M 311.25 560 L 560 311.25 " transform="matrix(0.1, 0, 0, -0.1, 0, 196)"/>
<path fill="none" stroke-width="3.75" stroke-linecap="square" stroke-linejoin="miter" stroke="rgb(0%, 0%, 0%)" stroke-opacity="1" stroke-miterlimit="3.239" d="M 135 487.5 L 135 135 " transform="matrix(0.1, 0, 0, -0.1, 0, 196)"/>
<path fill="none" stroke-width="3.75" stroke-linecap="square" stroke-linejoin="miter" stroke="rgb(0%, 0%, 0%)" stroke-opacity="1" stroke-miterlimit="3.239" d="M 135 487.5 L 486.875 135 " transform="matrix(0.1, 0, 0, -0.1, 0, 196)"/>
<path fill="none" stroke-width="3.75" stroke-linecap="square" stroke-linejoin="miter" stroke="rgb(0%, 0%, 0%)" stroke-opacity="1" stroke-miterlimit="3.239" d="M 61.875 311.25 L 311.25 62.5 " transform="matrix(0.1, 0, 0, -0.1, 0, 196)"/>
<path fill="none" stroke-width="3.75" stroke-linecap="square" stroke-linejoin="miter" stroke="rgb(0%, 0%, 0%)" stroke-opacity="1" stroke-miterlimit="3.239" d="M 61.875 311.25 L 560 311.25 " transform="matrix(0.1, 0, 0, -0.1, 0, 196)"/>
<path fill="none" stroke-width="3.75" stroke-linecap="square" stroke-linejoin="miter" stroke="rgb(0%, 0%, 0%)" stroke-opacity="1" stroke-miterlimit="3.239" d="M 135 135 L 486.875 135 " transform="matrix(0.1, 0, 0, -0.1, 0, 196)"/>
<path fill="none" stroke-width="3.75" stroke-linecap="square" stroke-linejoin="miter" stroke="rgb(0%, 0%, 0%)" stroke-opacity="1" stroke-miterlimit="3.239" d="M 311.25 62.5 L 560 311.25 " transform="matrix(0.1, 0, 0, -0.1, 0, 196)"/>
<path fill-rule="nonzero" fill="rgb(100%, 0%, 0%)" fill-opacity="1" d="M 50.6875 147.25 C 50.6875 146.75 50.5 146.1875 50.125 145.8125 C 49.75 145.4375 49.1875 145.25 48.6875 145.25 C 48.1875 145.25 47.625 145.4375 47.25 145.8125 C 46.875 146.1875 46.6875 146.75 46.6875 147.25 C 46.6875 147.75 46.875 148.3125 47.25 148.6875 C 47.625 149.0625 48.1875 149.25 48.6875 149.25 C 49.1875 149.25 49.75 149.0625 50.125 148.6875 C 50.5 148.3125 50.6875 147.75 50.6875 147.25 "/>
<path fill-rule="nonzero" fill="rgb(100%, 0%, 0%)" fill-opacity="1" d="M 33.125 140 C 33.125 139.5 32.9375 138.9375 32.5625 138.5625 C 32.1875 138.1875 31.625 138 31.125 138 C 30.625 138 30.0625 138.1875 29.6875 138.5625 C 29.3125 138.9375 29.125 139.5 29.125 140 C 29.125 140.5 29.3125 141.0625 29.6875 141.4375 C 30.0625 141.8125 30.625 142 31.125 142 C 31.625 142 32.1875 141.8125 32.5625 141.4375 C 32.9375 141.0625 33.125 140.5 33.125 140 "/>
<path fill-rule="nonzero" fill="rgb(100%, 0%, 0%)" fill-opacity="1" d="M 15.5 147.25 C 15.5 146.75 15.3125 146.1875 14.9375 145.8125 C 14.5625 145.4375 14 145.25 13.5 145.25 C 13 145.25 12.4375 145.4375 12.0625 145.8125 C 11.6875 146.1875 11.5 146.75 11.5 147.25 C 11.5 147.75 11.6875 148.3125 12.0625 148.6875 C 12.4375 149.0625 13 149.25 13.5 149.25 C 14 149.25 14.5625 149.0625 14.9375 148.6875 C 15.3125 148.3125 15.5 147.75 15.5 147.25 "/>
<path fill-rule="nonzero" fill="rgb(100%, 0%, 0%)" fill-opacity="1" d="M 8.1875 164.875 C 8.1875 164.375 8 163.8125 7.625 163.4375 C 7.25 163.0625 6.6875 162.875 6.1875 162.875 C 5.6875 162.875 5.125 163.0625 4.75 163.4375 C 4.375 163.8125 4.1875 164.375 4.1875 164.875 C 4.1875 165.375 4.375 165.9375 4.75 166.3125 C 5.125 166.6875 5.6875 166.875 6.1875 166.875 C 6.6875 166.875 7.25 166.6875 7.625 166.3125 C 8 165.9375 8.1875 165.375 8.1875 164.875 "/>
<path fill-rule="nonzero" fill="rgb(100%, 0%, 0%)" fill-opacity="1" d="M 15.5 182.5 C 15.5 182 15.3125 181.4375 14.9375 181.0625 C 14.5625 180.6875 14 180.5 13.5 180.5 C 13 180.5 12.4375 180.6875 12.0625 181.0625 C 11.6875 181.4375 11.5 182 11.5 182.5 C 11.5 183 11.6875 183.5625 12.0625 183.9375 C 12.4375 184.3125 13 184.5 13.5 184.5 C 14 184.5 14.5625 184.3125 14.9375 183.9375 C 15.3125 183.5625 15.5 183 15.5 182.5 "/>
<path fill-rule="nonzero" fill="rgb(100%, 0%, 0%)" fill-opacity="1" d="M 33.125 189.75 C 33.125 189.25 32.9375 188.6875 32.5625 188.3125 C 32.1875 187.9375 31.625 187.75 31.125 187.75 C 30.625 187.75 30.0625 187.9375 29.6875 188.3125 C 29.3125 188.6875 29.125 189.25 29.125 189.75 C 29.125 190.25 29.3125 190.8125 29.6875 191.1875 C 30.0625 191.5625 30.625 191.75 31.125 191.75 C 31.625 191.75 32.1875 191.5625 32.5625 191.1875 C 32.9375 190.8125 33.125 190.25 33.125 189.75 "/>
<path fill-rule="nonzero" fill="rgb(100%, 0%, 0%)" fill-opacity="1" d="M 50.6875 182.5 C 50.6875 182 50.5 181.4375 50.125 181.0625 C 49.75 180.6875 49.1875 180.5 48.6875 180.5 C 48.1875 180.5 47.625 180.6875 47.25 181.0625 C 46.875 181.4375 46.6875 182 46.6875 182.5 C 46.6875 183 46.875 183.5625 47.25 183.9375 C 47.625 184.3125 48.1875 184.5 48.6875 184.5 C 49.1875 184.5 49.75 184.3125 50.125 183.9375 C 50.5 183.5625 50.6875 183 50.6875 182.5 "/>
<path fill-rule="nonzero" fill="rgb(100%, 0%, 0%)" fill-opacity="1" d="M 58 164.875 C 58 164.375 57.8125 163.8125 57.4375 163.4375 C 57.0625 163.0625 56.5 162.875 56 162.875 C 55.5 162.875 54.9375 163.0625 54.5625 163.4375 C 54.1875 163.8125 54 164.375 54 164.875 C 54 165.375 54.1875 165.9375 54.5625 166.3125 C 54.9375 166.6875 55.5 166.875 56 166.875 C 56.5 166.875 57.0625 166.6875 57.4375 166.3125 C 57.8125 165.9375 58 165.375 58 164.875 "/>
<path fill="none" stroke-width="3.75" stroke-linecap="square" stroke-linejoin="miter" stroke="rgb(0%, 0%, 0%)" stroke-opacity="1" stroke-miterlimit="3.239" d="M 737.5 366.875 L 832.5 74.375 " transform="matrix(0.1, 0, 0, -0.1, 0, 196)"/>
<path fill="none" stroke-width="3.75" stroke-linecap="square" stroke-linejoin="miter" stroke="rgb(0%, 0%, 0%)" stroke-opacity="1" stroke-miterlimit="3.239" d="M 737.5 366.875 L 872.5 223.125 " transform="matrix(0.1, 0, 0, -0.1, 0, 196)"/>
<path fill="none" stroke-width="3.75" stroke-linecap="square" stroke-linejoin="miter" stroke="rgb(0%, 0%, 0%)" stroke-opacity="1" stroke-miterlimit="3.239" d="M 737.5 366.875 L 986.25 548.125 " transform="matrix(0.1, 0, 0, -0.1, 0, 196)"/>
<path fill="none" stroke-width="3.75" stroke-linecap="square" stroke-linejoin="miter" stroke="rgb(0%, 0%, 0%)" stroke-opacity="1" stroke-miterlimit="3.239" d="M 832.5 74.375 L 872.5 223.125 " transform="matrix(0.1, 0, 0, -0.1, 0, 196)"/>
<path fill="none" stroke-width="3.75" stroke-linecap="square" stroke-linejoin="miter" stroke="rgb(0%, 0%, 0%)" stroke-opacity="1" stroke-miterlimit="3.239" d="M 832.5 74.375 L 1140.625 74.375 " transform="matrix(0.1, 0, 0, -0.1, 0, 196)"/>
<path fill="none" stroke-width="3.75" stroke-linecap="square" stroke-linejoin="miter" stroke="rgb(0%, 0%, 0%)" stroke-opacity="1" stroke-miterlimit="3.239" d="M 872.5 223.125 L 986.25 336.875 " transform="matrix(0.1, 0, 0, -0.1, 0, 196)"/>
<path fill="none" stroke-width="3.75" stroke-linecap="square" stroke-linejoin="miter" stroke="rgb(0%, 0%, 0%)" stroke-opacity="1" stroke-miterlimit="3.239" d="M 986.25 336.875 L 986.25 548.125 " transform="matrix(0.1, 0, 0, -0.1, 0, 196)"/>
<path fill="none" stroke-width="3.75" stroke-linecap="square" stroke-linejoin="miter" stroke="rgb(0%, 0%, 0%)" stroke-opacity="1" stroke-miterlimit="3.239" d="M 986.25 336.875 L 1100.625 223.125 " transform="matrix(0.1, 0, 0, -0.1, 0, 196)"/>
<path fill="none" stroke-width="3.75" stroke-linecap="square" stroke-linejoin="miter" stroke="rgb(0%, 0%, 0%)" stroke-opacity="1" stroke-miterlimit="3.239" d="M 986.25 548.125 L 1235.625 366.875 " transform="matrix(0.1, 0, 0, -0.1, 0, 196)"/>
<path fill="none" stroke-width="3.75" stroke-linecap="square" stroke-linejoin="miter" stroke="rgb(0%, 0%, 0%)" stroke-opacity="1" stroke-miterlimit="3.239" d="M 1100.625 223.125 L 1140.625 74.375 " transform="matrix(0.1, 0, 0, -0.1, 0, 196)"/>
<path fill="none" stroke-width="3.75" stroke-linecap="square" stroke-linejoin="miter" stroke="rgb(0%, 0%, 0%)" stroke-opacity="1" stroke-miterlimit="3.239" d="M 1100.625 223.125 L 1235.625 366.875 " transform="matrix(0.1, 0, 0, -0.1, 0, 196)"/>
<path fill="none" stroke-width="3.75" stroke-linecap="square" stroke-linejoin="miter" stroke="rgb(0%, 0%, 0%)" stroke-opacity="1" stroke-miterlimit="3.239" d="M 1140.625 74.375 L 1235.625 366.875 " transform="matrix(0.1, 0, 0, -0.1, 0, 196)"/>
<path fill-rule="nonzero" fill="rgb(100%, 0%, 0%)" fill-opacity="1" d="M 75.75 159.3125 C 75.75 158.8125 75.5625 158.25 75.1875 157.875 C 74.8125 157.5 74.25 157.3125 73.75 157.3125 C 73.25 157.3125 72.6875 157.5 72.3125 157.875 C 71.9375 158.25 71.75 158.8125 71.75 159.3125 C 71.75 159.8125 71.9375 160.375 72.3125 160.75 C 72.6875 161.125 73.25 161.3125 73.75 161.3125 C 74.25 161.3125 74.8125 161.125 75.1875 160.75 C 75.5625 160.375 75.75 159.8125 75.75 159.3125 "/>
<path fill-rule="nonzero" fill="rgb(100%, 0%, 0%)" fill-opacity="1" d="M 85.25 188.5625 C 85.25 188.0625 85.0625 187.5 84.6875 187.125 C 84.3125 186.75 83.75 186.5625 83.25 186.5625 C 82.75 186.5625 82.1875 186.75 81.8125 187.125 C 81.4375 187.5 81.25 188.0625 81.25 188.5625 C 81.25 189.0625 81.4375 189.625 81.8125 190 C 82.1875 190.375 82.75 190.5625 83.25 190.5625 C 83.75 190.5625 84.3125 190.375 84.6875 190 C 85.0625 189.625 85.25 189.0625 85.25 188.5625 "/>
<path fill-rule="nonzero" fill="rgb(100%, 0%, 0%)" fill-opacity="1" d="M 89.25 173.6875 C 89.25 173.1875 89.0625 172.625 88.6875 172.25 C 88.3125 171.875 87.75 171.6875 87.25 171.6875 C 86.75 171.6875 86.1875 171.875 85.8125 172.25 C 85.4375 172.625 85.25 173.1875 85.25 173.6875 C 85.25 174.1875 85.4375 174.75 85.8125 175.125 C 86.1875 175.5 86.75 175.6875 87.25 175.6875 C 87.75 175.6875 88.3125 175.5 88.6875 175.125 C 89.0625 174.75 89.25 174.1875 89.25 173.6875 "/>
<path fill-rule="nonzero" fill="rgb(100%, 0%, 0%)" fill-opacity="1" d="M 100.625 162.3125 C 100.625 161.8125 100.4375 161.25 100.0625 160.875 C 99.6875 160.5 99.125 160.3125 98.625 160.3125 C 98.125 160.3125 97.5625 160.5 97.1875 160.875 C 96.8125 161.25 96.625 161.8125 96.625 162.3125 C 96.625 162.8125 96.8125 163.375 97.1875 163.75 C 97.5625 164.125 98.125 164.3125 98.625 164.3125 C 99.125 164.3125 99.6875 164.125 100.0625 163.75 C 100.4375 163.375 100.625 162.8125 100.625 162.3125 "/>
<path fill-rule="nonzero" fill="rgb(100%, 0%, 0%)" fill-opacity="1" d="M 100.625 141.1875 C 100.625 140.6875 100.4375 140.125 100.0625 139.75 C 99.6875 139.375 99.125 139.1875 98.625 139.1875 C 98.125 139.1875 97.5625 139.375 97.1875 139.75 C 96.8125 140.125 96.625 140.6875 96.625 141.1875 C 96.625 141.6875 96.8125 142.25 97.1875 142.625 C 97.5625 143 98.125 143.1875 98.625 143.1875 C 99.125 143.1875 99.6875 143 100.0625 142.625 C 100.4375 142.25 100.625 141.6875 100.625 141.1875 "/>
<path fill-rule="nonzero" fill="rgb(100%, 0%, 0%)" fill-opacity="1" d="M 112.0625 173.6875 C 112.0625 173.1875 111.875 172.625 111.5 172.25 C 111.125 171.875 110.5625 171.6875 110.0625 171.6875 C 109.5625 171.6875 109 171.875 108.625 172.25 C 108.25 172.625 108.0625 173.1875 108.0625 173.6875 C 108.0625 174.1875 108.25 174.75 108.625 175.125 C 109 175.5 109.5625 175.6875 110.0625 175.6875 C 110.5625 175.6875 111.125 175.5 111.5 175.125 C 111.875 174.75 112.0625 174.1875 112.0625 173.6875 "/>
<path fill-rule="nonzero" fill="rgb(100%, 0%, 0%)" fill-opacity="1" d="M 116.0625 188.5625 C 116.0625 188.0625 115.875 187.5 115.5 187.125 C 115.125 186.75 114.5625 186.5625 114.0625 186.5625 C 113.5625 186.5625 113 186.75 112.625 187.125 C 112.25 187.5 112.0625 188.0625 112.0625 188.5625 C 112.0625 189.0625 112.25 189.625 112.625 190 C 113 190.375 113.5625 190.5625 114.0625 190.5625 C 114.5625 190.5625 115.125 190.375 115.5 190 C 115.875 189.625 116.0625 189.0625 116.0625 188.5625 "/>
<path fill-rule="nonzero" fill="rgb(100%, 0%, 0%)" fill-opacity="1" d="M 125.5625 159.3125 C 125.5625 158.8125 125.375 158.25 125 157.875 C 124.625 157.5 124.0625 157.3125 123.5625 157.3125 C 123.0625 157.3125 122.5 157.5 122.125 157.875 C 121.75 158.25 121.5625 158.8125 121.5625 159.3125 C 121.5625 159.8125 121.75 160.375 122.125 160.75 C 122.5 161.125 123.0625 161.3125 123.5625 161.3125 C 124.0625 161.3125 124.625 161.125 125 160.75 C 125.375 160.375 125.5625 159.8125 125.5625 159.3125 "/>
<path fill="none" stroke-width="3.75" stroke-linecap="square" stroke-linejoin="miter" stroke="rgb(0%, 0%, 0%)" stroke-opacity="1" stroke-miterlimit="3.239" d="M 1413.125 95 L 1528.75 161.875 " transform="matrix(0.1, 0, 0, -0.1, 0, 196)"/>
<path fill="none" stroke-width="3.75" stroke-linecap="square" stroke-linejoin="miter" stroke="rgb(0%, 0%, 0%)" stroke-opacity="1" stroke-miterlimit="3.239" d="M 1413.125 95 L 1661.875 526.875 " transform="matrix(0.1, 0, 0, -0.1, 0, 196)"/>
<path fill="none" stroke-width="3.75" stroke-linecap="square" stroke-linejoin="miter" stroke="rgb(0%, 0%, 0%)" stroke-opacity="1" stroke-miterlimit="3.239" d="M 1413.125 95 L 1911.25 95 " transform="matrix(0.1, 0, 0, -0.1, 0, 196)"/>
<path fill="none" stroke-width="3.75" stroke-linecap="square" stroke-linejoin="miter" stroke="rgb(0%, 0%, 0%)" stroke-opacity="1" stroke-miterlimit="3.239" d="M 1528.75 161.875 L 1595.625 277.5 " transform="matrix(0.1, 0, 0, -0.1, 0, 196)"/>
<path fill="none" stroke-width="3.75" stroke-linecap="square" stroke-linejoin="miter" stroke="rgb(0%, 0%, 0%)" stroke-opacity="1" stroke-miterlimit="3.239" d="M 1528.75 161.875 L 1728.75 277.5 " transform="matrix(0.1, 0, 0, -0.1, 0, 196)"/>
<path fill="none" stroke-width="3.75" stroke-linecap="square" stroke-linejoin="miter" stroke="rgb(0%, 0%, 0%)" stroke-opacity="1" stroke-miterlimit="3.239" d="M 1595.625 277.5 L 1661.875 393.125 " transform="matrix(0.1, 0, 0, -0.1, 0, 196)"/>
<path fill="none" stroke-width="3.75" stroke-linecap="square" stroke-linejoin="miter" stroke="rgb(0%, 0%, 0%)" stroke-opacity="1" stroke-miterlimit="3.239" d="M 1595.625 277.5 L 1795.625 161.875 " transform="matrix(0.1, 0, 0, -0.1, 0, 196)"/>
<path fill="none" stroke-width="3.75" stroke-linecap="square" stroke-linejoin="miter" stroke="rgb(0%, 0%, 0%)" stroke-opacity="1" stroke-miterlimit="3.239" d="M 1661.875 393.125 L 1661.875 526.875 " transform="matrix(0.1, 0, 0, -0.1, 0, 196)"/>
<path fill="none" stroke-width="3.75" stroke-linecap="square" stroke-linejoin="miter" stroke="rgb(0%, 0%, 0%)" stroke-opacity="1" stroke-miterlimit="3.239" d="M 1661.875 393.125 L 1728.75 277.5 " transform="matrix(0.1, 0, 0, -0.1, 0, 196)"/>
<path fill="none" stroke-width="3.75" stroke-linecap="square" stroke-linejoin="miter" stroke="rgb(0%, 0%, 0%)" stroke-opacity="1" stroke-miterlimit="3.239" d="M 1661.875 526.875 L 1911.25 95 " transform="matrix(0.1, 0, 0, -0.1, 0, 196)"/>
<path fill="none" stroke-width="3.75" stroke-linecap="square" stroke-linejoin="miter" stroke="rgb(0%, 0%, 0%)" stroke-opacity="1" stroke-miterlimit="3.239" d="M 1728.75 277.5 L 1795.625 161.875 " transform="matrix(0.1, 0, 0, -0.1, 0, 196)"/>
<path fill="none" stroke-width="3.75" stroke-linecap="square" stroke-linejoin="miter" stroke="rgb(0%, 0%, 0%)" stroke-opacity="1" stroke-miterlimit="3.239" d="M 1795.625 161.875 L 1911.25 95 " transform="matrix(0.1, 0, 0, -0.1, 0, 196)"/>
<path fill-rule="nonzero" fill="rgb(100%, 0%, 0%)" fill-opacity="1" d="M 143.3125 186.5 C 143.3125 186 143.125 185.4375 142.75 185.0625 C 142.375 184.6875 141.8125 184.5 141.3125 184.5 C 140.8125 184.5 140.25 184.6875 139.875 185.0625 C 139.5 185.4375 139.3125 186 139.3125 186.5 C 139.3125 187 139.5 187.5625 139.875 187.9375 C 140.25 188.3125 140.8125 188.5 141.3125 188.5 C 141.8125 188.5 142.375 188.3125 142.75 187.9375 C 143.125 187.5625 143.3125 187 143.3125 186.5 "/>
<path fill-rule="nonzero" fill="rgb(100%, 0%, 0%)" fill-opacity="1" d="M 154.875 179.8125 C 154.875 179.3125 154.6875 178.75 154.3125 178.375 C 153.9375 178 153.375 177.8125 152.875 177.8125 C 152.375 177.8125 151.8125 178 151.4375 178.375 C 151.0625 178.75 150.875 179.3125 150.875 179.8125 C 150.875 180.3125 151.0625 180.875 151.4375 181.25 C 151.8125 181.625 152.375 181.8125 152.875 181.8125 C 153.375 181.8125 153.9375 181.625 154.3125 181.25 C 154.6875 180.875 154.875 180.3125 154.875 179.8125 "/>
<path fill-rule="nonzero" fill="rgb(100%, 0%, 0%)" fill-opacity="1" d="M 161.5625 168.25 C 161.5625 167.75 161.375 167.1875 161 166.8125 C 160.625 166.4375 160.0625 166.25 159.5625 166.25 C 159.0625 166.25 158.5 166.4375 158.125 166.8125 C 157.75 167.1875 157.5625 167.75 157.5625 168.25 C 157.5625 168.75 157.75 169.3125 158.125 169.6875 C 158.5 170.0625 159.0625 170.25 159.5625 170.25 C 160.0625 170.25 160.625 170.0625 161 169.6875 C 161.375 169.3125 161.5625 168.75 161.5625 168.25 "/>
<path fill-rule="nonzero" fill="rgb(100%, 0%, 0%)" fill-opacity="1" d="M 168.1875 156.6875 C 168.1875 156.1875 168 155.625 167.625 155.25 C 167.25 154.875 166.6875 154.6875 166.1875 154.6875 C 165.6875 154.6875 165.125 154.875 164.75 155.25 C 164.375 155.625 164.1875 156.1875 164.1875 156.6875 C 164.1875 157.1875 164.375 157.75 164.75 158.125 C 165.125 158.5 165.6875 158.6875 166.1875 158.6875 C 166.6875 158.6875 167.25 158.5 167.625 158.125 C 168 157.75 168.1875 157.1875 168.1875 156.6875 "/>
<path fill-rule="nonzero" fill="rgb(100%, 0%, 0%)" fill-opacity="1" d="M 168.1875 143.3125 C 168.1875 142.8125 168 142.25 167.625 141.875 C 167.25 141.5 166.6875 141.3125 166.1875 141.3125 C 165.6875 141.3125 165.125 141.5 164.75 141.875 C 164.375 142.25 164.1875 142.8125 164.1875 143.3125 C 164.1875 143.8125 164.375 144.375 164.75 144.75 C 165.125 145.125 165.6875 145.3125 166.1875 145.3125 C 166.6875 145.3125 167.25 145.125 167.625 144.75 C 168 144.375 168.1875 143.8125 168.1875 143.3125 "/>
<path fill-rule="nonzero" fill="rgb(100%, 0%, 0%)" fill-opacity="1" d="M 174.875 168.25 C 174.875 167.75 174.6875 167.1875 174.3125 166.8125 C 173.9375 166.4375 173.375 166.25 172.875 166.25 C 172.375 166.25 171.8125 166.4375 171.4375 166.8125 C 171.0625 167.1875 170.875 167.75 170.875 168.25 C 170.875 168.75 171.0625 169.3125 171.4375 169.6875 C 171.8125 170.0625 172.375 170.25 172.875 170.25 C 173.375 170.25 173.9375 170.0625 174.3125 169.6875 C 174.6875 169.3125 174.875 168.75 174.875 168.25 "/>
<path fill-rule="nonzero" fill="rgb(100%, 0%, 0%)" fill-opacity="1" d="M 181.5625 179.8125 C 181.5625 179.3125 181.375 178.75 181 178.375 C 180.625 178 180.0625 177.8125 179.5625 177.8125 C 179.0625 177.8125 178.5 178 178.125 178.375 C 177.75 178.75 177.5625 179.3125 177.5625 179.8125 C 177.5625 180.3125 177.75 180.875 178.125 181.25 C 178.5 181.625 179.0625 181.8125 179.5625 181.8125 C 180.0625 181.8125 180.625 181.625 181 181.25 C 181.375 180.875 181.5625 180.3125 181.5625 179.8125 "/>
<path fill-rule="nonzero" fill="rgb(100%, 0%, 0%)" fill-opacity="1" d="M 193.125 186.5 C 193.125 186 192.9375 185.4375 192.5625 185.0625 C 192.1875 184.6875 191.625 184.5 191.125 184.5 C 190.625 184.5 190.0625 184.6875 189.6875 185.0625 C 189.3125 185.4375 189.125 186 189.125 186.5 C 189.125 187 189.3125 187.5625 189.6875 187.9375 C 190.0625 188.3125 190.625 188.5 191.125 188.5 C 191.625 188.5 192.1875 188.3125 192.5625 187.9375 C 192.9375 187.5625 193.125 187 193.125 186.5 "/>
<path fill="none" stroke-width="3.75" stroke-linecap="square" stroke-linejoin="miter" stroke="rgb(0%, 0%, 0%)" stroke-opacity="1" stroke-miterlimit="3.239" d="M 2255 228.125 L 2088.75 62.5 " transform="matrix(0.1, 0, 0, -0.1, 0, 196)"/>
<path fill="none" stroke-width="3.75" stroke-linecap="square" stroke-linejoin="miter" stroke="rgb(0%, 0%, 0%)" stroke-opacity="1" stroke-miterlimit="3.239" d="M 2255 228.125 L 2255 394.375 " transform="matrix(0.1, 0, 0, -0.1, 0, 196)"/>
<path fill="none" stroke-width="3.75" stroke-linecap="square" stroke-linejoin="miter" stroke="rgb(0%, 0%, 0%)" stroke-opacity="1" stroke-miterlimit="3.239" d="M 2255 228.125 L 2420.625 228.125 " transform="matrix(0.1, 0, 0, -0.1, 0, 196)"/>
<path fill="none" stroke-width="3.75" stroke-linecap="square" stroke-linejoin="miter" stroke="rgb(0%, 0%, 0%)" stroke-opacity="1" stroke-miterlimit="3.239" d="M 2088.75 62.5 L 2088.75 560 " transform="matrix(0.1, 0, 0, -0.1, 0, 196)"/>
<path fill="none" stroke-width="3.75" stroke-linecap="square" stroke-linejoin="miter" stroke="rgb(0%, 0%, 0%)" stroke-opacity="1" stroke-miterlimit="3.239" d="M 2088.75 62.5 L 2586.25 62.5 " transform="matrix(0.1, 0, 0, -0.1, 0, 196)"/>
<path fill="none" stroke-width="3.75" stroke-linecap="square" stroke-linejoin="miter" stroke="rgb(0%, 0%, 0%)" stroke-opacity="1" stroke-miterlimit="3.239" d="M 2255 394.375 L 2088.75 560 " transform="matrix(0.1, 0, 0, -0.1, 0, 196)"/>
<path fill="none" stroke-width="3.75" stroke-linecap="square" stroke-linejoin="miter" stroke="rgb(0%, 0%, 0%)" stroke-opacity="1" stroke-miterlimit="3.239" d="M 2255 394.375 L 2420.625 394.375 " transform="matrix(0.1, 0, 0, -0.1, 0, 196)"/>
<path fill="none" stroke-width="3.75" stroke-linecap="square" stroke-linejoin="miter" stroke="rgb(0%, 0%, 0%)" stroke-opacity="1" stroke-miterlimit="3.239" d="M 2088.75 560 L 2586.25 560 " transform="matrix(0.1, 0, 0, -0.1, 0, 196)"/>
<path fill="none" stroke-width="3.75" stroke-linecap="square" stroke-linejoin="miter" stroke="rgb(0%, 0%, 0%)" stroke-opacity="1" stroke-miterlimit="3.239" d="M 2420.625 228.125 L 2586.25 62.5 " transform="matrix(0.1, 0, 0, -0.1, 0, 196)"/>
<path fill="none" stroke-width="3.75" stroke-linecap="square" stroke-linejoin="miter" stroke="rgb(0%, 0%, 0%)" stroke-opacity="1" stroke-miterlimit="3.239" d="M 2420.625 228.125 L 2420.625 394.375 " transform="matrix(0.1, 0, 0, -0.1, 0, 196)"/>
<path fill="none" stroke-width="3.75" stroke-linecap="square" stroke-linejoin="miter" stroke="rgb(0%, 0%, 0%)" stroke-opacity="1" stroke-miterlimit="3.239" d="M 2586.25 62.5 L 2586.25 560 " transform="matrix(0.1, 0, 0, -0.1, 0, 196)"/>
<path fill="none" stroke-width="3.75" stroke-linecap="square" stroke-linejoin="miter" stroke="rgb(0%, 0%, 0%)" stroke-opacity="1" stroke-miterlimit="3.239" d="M 2420.625 394.375 L 2586.25 560 " transform="matrix(0.1, 0, 0, -0.1, 0, 196)"/>
<path fill-rule="nonzero" fill="rgb(100%, 0%, 0%)" fill-opacity="1" d="M 227.5 173.1875 C 227.5 172.6875 227.3125 172.125 226.9375 171.75 C 226.5625 171.375 226 171.1875 225.5 171.1875 C 225 171.1875 224.4375 171.375 224.0625 171.75 C 223.6875 172.125 223.5 172.6875 223.5 173.1875 C 223.5 173.6875 223.6875 174.25 224.0625 174.625 C 224.4375 175 225 175.1875 225.5 175.1875 C 226 175.1875 226.5625 175 226.9375 174.625 C 227.3125 174.25 227.5 173.6875 227.5 173.1875 "/>
<path fill-rule="nonzero" fill="rgb(100%, 0%, 0%)" fill-opacity="1" d="M 210.875 189.75 C 210.875 189.25 210.6875 188.6875 210.3125 188.3125 C 209.9375 187.9375 209.375 187.75 208.875 187.75 C 208.375 187.75 207.8125 187.9375 207.4375 188.3125 C 207.0625 188.6875 206.875 189.25 206.875 189.75 C 206.875 190.25 207.0625 190.8125 207.4375 191.1875 C 207.8125 191.5625 208.375 191.75 208.875 191.75 C 209.375 191.75 209.9375 191.5625 210.3125 191.1875 C 210.6875 190.8125 210.875 190.25 210.875 189.75 "/>
<path fill-rule="nonzero" fill="rgb(100%, 0%, 0%)" fill-opacity="1" d="M 227.5 156.5625 C 227.5 156.0625 227.3125 155.5 226.9375 155.125 C 226.5625 154.75 226 154.5625 225.5 154.5625 C 225 154.5625 224.4375 154.75 224.0625 155.125 C 223.6875 155.5 223.5 156.0625 223.5 156.5625 C 223.5 157.0625 223.6875 157.625 224.0625 158 C 224.4375 158.375 225 158.5625 225.5 158.5625 C 226 158.5625 226.5625 158.375 226.9375 158 C 227.3125 157.625 227.5 157.0625 227.5 156.5625 "/>
<path fill-rule="nonzero" fill="rgb(100%, 0%, 0%)" fill-opacity="1" d="M 210.875 140 C 210.875 139.5 210.6875 138.9375 210.3125 138.5625 C 209.9375 138.1875 209.375 138 208.875 138 C 208.375 138 207.8125 138.1875 207.4375 138.5625 C 207.0625 138.9375 206.875 139.5 206.875 140 C 206.875 140.5 207.0625 141.0625 207.4375 141.4375 C 207.8125 141.8125 208.375 142 208.875 142 C 209.375 142 209.9375 141.8125 210.3125 141.4375 C 210.6875 141.0625 210.875 140.5 210.875 140 "/>
<path fill-rule="nonzero" fill="rgb(100%, 0%, 0%)" fill-opacity="1" d="M 244.0625 173.1875 C 244.0625 172.6875 243.875 172.125 243.5 171.75 C 243.125 171.375 242.5625 171.1875 242.0625 171.1875 C 241.5625 171.1875 241 171.375 240.625 171.75 C 240.25 172.125 240.0625 172.6875 240.0625 173.1875 C 240.0625 173.6875 240.25 174.25 240.625 174.625 C 241 175 241.5625 175.1875 242.0625 175.1875 C 242.5625 175.1875 243.125 175 243.5 174.625 C 243.875 174.25 244.0625 173.6875 244.0625 173.1875 "/>
<path fill-rule="nonzero" fill="rgb(100%, 0%, 0%)" fill-opacity="1" d="M 260.625 189.75 C 260.625 189.25 260.4375 188.6875 260.0625 188.3125 C 259.6875 187.9375 259.125 187.75 258.625 187.75 C 258.125 187.75 257.5625 187.9375 257.1875 188.3125 C 256.8125 188.6875 256.625 189.25 256.625 189.75 C 256.625 190.25 256.8125 190.8125 257.1875 191.1875 C 257.5625 191.5625 258.125 191.75 258.625 191.75 C 259.125 191.75 259.6875 191.5625 260.0625 191.1875 C 260.4375 190.8125 260.625 190.25 260.625 189.75 "/>
<path fill-rule="nonzero" fill="rgb(100%, 0%, 0%)" fill-opacity="1" d="M 244.0625 156.5625 C 244.0625 156.0625 243.875 155.5 243.5 155.125 C 243.125 154.75 242.5625 154.5625 242.0625 154.5625 C 241.5625 154.5625 241 154.75 240.625 155.125 C 240.25 155.5 240.0625 156.0625 240.0625 156.5625 C 240.0625 157.0625 240.25 157.625 240.625 158 C 241 158.375 241.5625 158.5625 242.0625 158.5625 C 242.5625 158.5625 243.125 158.375 243.5 158 C 243.875 157.625 244.0625 157.0625 244.0625 156.5625 "/>
<path fill-rule="nonzero" fill="rgb(100%, 0%, 0%)" fill-opacity="1" d="M 260.625 140 C 260.625 139.5 260.4375 138.9375 260.0625 138.5625 C 259.6875 138.1875 259.125 138 258.625 138 C 258.125 138 257.5625 138.1875 257.1875 138.5625 C 256.8125 138.9375 256.625 139.5 256.625 140 C 256.625 140.5 256.8125 141.0625 257.1875 141.4375 C 257.5625 141.8125 258.125 142 258.625 142 C 259.125 142 259.6875 141.8125 260.0625 141.4375 C 260.4375 141.0625 260.625 140.5 260.625 140 "/>
<path fill="none" stroke-width="3.75" stroke-linecap="square" stroke-linejoin="miter" stroke="rgb(0%, 0%, 0%)" stroke-opacity="1" stroke-miterlimit="3.239" d="M 2764.375 111.25 L 3031.25 111.25 " transform="matrix(0.1, 0, 0, -0.1, 0, 196)"/>
<path fill="none" stroke-width="3.75" stroke-linecap="square" stroke-linejoin="miter" stroke="rgb(0%, 0%, 0%)" stroke-opacity="1" stroke-miterlimit="3.239" d="M 2764.375 111.25 L 2995.625 244.375 " transform="matrix(0.1, 0, 0, -0.1, 0, 196)"/>
<path fill="none" stroke-width="3.75" stroke-linecap="square" stroke-linejoin="miter" stroke="rgb(0%, 0%, 0%)" stroke-opacity="1" stroke-miterlimit="3.239" d="M 2764.375 111.25 L 2764.375 378.125 " transform="matrix(0.1, 0, 0, -0.1, 0, 196)"/>
<path fill="none" stroke-width="3.75" stroke-linecap="square" stroke-linejoin="miter" stroke="rgb(0%, 0%, 0%)" stroke-opacity="1" stroke-miterlimit="3.239" d="M 3031.25 111.25 L 3031.25 378.125 " transform="matrix(0.1, 0, 0, -0.1, 0, 196)"/>
<path fill="none" stroke-width="3.75" stroke-linecap="square" stroke-linejoin="miter" stroke="rgb(0%, 0%, 0%)" stroke-opacity="1" stroke-miterlimit="3.239" d="M 3031.25 111.25 L 3261.875 244.375 " transform="matrix(0.1, 0, 0, -0.1, 0, 196)"/>
<path fill="none" stroke-width="3.75" stroke-linecap="square" stroke-linejoin="miter" stroke="rgb(0%, 0%, 0%)" stroke-opacity="1" stroke-miterlimit="3.239" d="M 3031.25 378.125 L 3261.875 244.375 " transform="matrix(0.1, 0, 0, -0.1, 0, 196)"/>
<path fill="none" stroke-width="3.75" stroke-linecap="square" stroke-linejoin="miter" stroke="rgb(0%, 0%, 0%)" stroke-opacity="1" stroke-miterlimit="3.239" d="M 3031.25 378.125 L 3261.875 511.25 " transform="matrix(0.1, 0, 0, -0.1, 0, 196)"/>
<path fill="none" stroke-width="3.75" stroke-linecap="square" stroke-linejoin="miter" stroke="rgb(0%, 0%, 0%)" stroke-opacity="1" stroke-miterlimit="3.239" d="M 3261.875 244.375 L 3261.875 511.25 " transform="matrix(0.1, 0, 0, -0.1, 0, 196)"/>
<path fill="none" stroke-width="3.75" stroke-linecap="square" stroke-linejoin="miter" stroke="rgb(0%, 0%, 0%)" stroke-opacity="1" stroke-miterlimit="3.239" d="M 3261.875 511.25 L 2995.625 511.25 " transform="matrix(0.1, 0, 0, -0.1, 0, 196)"/>
<path fill="none" stroke-width="3.75" stroke-linecap="square" stroke-linejoin="miter" stroke="rgb(0%, 0%, 0%)" stroke-opacity="1" stroke-miterlimit="3.239" d="M 2995.625 511.25 L 2995.625 244.375 " transform="matrix(0.1, 0, 0, -0.1, 0, 196)"/>
<path fill="none" stroke-width="3.75" stroke-linecap="square" stroke-linejoin="miter" stroke="rgb(0%, 0%, 0%)" stroke-opacity="1" stroke-miterlimit="3.239" d="M 2995.625 511.25 L 2764.375 378.125 " transform="matrix(0.1, 0, 0, -0.1, 0, 196)"/>
<path fill="none" stroke-width="3.75" stroke-linecap="square" stroke-linejoin="miter" stroke="rgb(0%, 0%, 0%)" stroke-opacity="1" stroke-miterlimit="3.239" d="M 2995.625 244.375 L 2764.375 378.125 " transform="matrix(0.1, 0, 0, -0.1, 0, 196)"/>
<path fill-rule="nonzero" fill="rgb(100%, 0%, 0%)" fill-opacity="1" d="M 278.4375 184.875 C 278.4375 184.375 278.25 183.8125 277.875 183.4375 C 277.5 183.0625 276.9375 182.875 276.4375 182.875 C 275.9375 182.875 275.375 183.0625 275 183.4375 C 274.625 183.8125 274.4375 184.375 274.4375 184.875 C 274.4375 185.375 274.625 185.9375 275 186.3125 C 275.375 186.6875 275.9375 186.875 276.4375 186.875 C 276.9375 186.875 277.5 186.6875 277.875 186.3125 C 278.25 185.9375 278.4375 185.375 278.4375 184.875 "/>
<path fill-rule="nonzero" fill="rgb(100%, 0%, 0%)" fill-opacity="1" d="M 305.125 184.875 C 305.125 184.375 304.9375 183.8125 304.5625 183.4375 C 304.1875 183.0625 303.625 182.875 303.125 182.875 C 302.625 182.875 302.0625 183.0625 301.6875 183.4375 C 301.3125 183.8125 301.125 184.375 301.125 184.875 C 301.125 185.375 301.3125 185.9375 301.6875 186.3125 C 302.0625 186.6875 302.625 186.875 303.125 186.875 C 303.625 186.875 304.1875 186.6875 304.5625 186.3125 C 304.9375 185.9375 305.125 185.375 305.125 184.875 "/>
<path fill-rule="nonzero" fill="rgb(100%, 0%, 0%)" fill-opacity="1" d="M 305.125 158.1875 C 305.125 157.6875 304.9375 157.125 304.5625 156.75 C 304.1875 156.375 303.625 156.1875 303.125 156.1875 C 302.625 156.1875 302.0625 156.375 301.6875 156.75 C 301.3125 157.125 301.125 157.6875 301.125 158.1875 C 301.125 158.6875 301.3125 159.25 301.6875 159.625 C 302.0625 160 302.625 160.1875 303.125 160.1875 C 303.625 160.1875 304.1875 160 304.5625 159.625 C 304.9375 159.25 305.125 158.6875 305.125 158.1875 "/>
<path fill-rule="nonzero" fill="rgb(100%, 0%, 0%)" fill-opacity="1" d="M 328.1875 171.5625 C 328.1875 171.0625 328 170.5 327.625 170.125 C 327.25 169.75 326.6875 169.5625 326.1875 169.5625 C 325.6875 169.5625 325.125 169.75 324.75 170.125 C 324.375 170.5 324.1875 171.0625 324.1875 171.5625 C 324.1875 172.0625 324.375 172.625 324.75 173 C 325.125 173.375 325.6875 173.5625 326.1875 173.5625 C 326.6875 173.5625 327.25 173.375 327.625 173 C 328 172.625 328.1875 172.0625 328.1875 171.5625 "/>
<path fill-rule="nonzero" fill="rgb(100%, 0%, 0%)" fill-opacity="1" d="M 328.1875 144.875 C 328.1875 144.375 328 143.8125 327.625 143.4375 C 327.25 143.0625 326.6875 142.875 326.1875 142.875 C 325.6875 142.875 325.125 143.0625 324.75 143.4375 C 324.375 143.8125 324.1875 144.375 324.1875 144.875 C 324.1875 145.375 324.375 145.9375 324.75 146.3125 C 325.125 146.6875 325.6875 146.875 326.1875 146.875 C 326.6875 146.875 327.25 146.6875 327.625 146.3125 C 328 145.9375 328.1875 145.375 328.1875 144.875 "/>
<path fill-rule="nonzero" fill="rgb(100%, 0%, 0%)" fill-opacity="1" d="M 301.5625 144.875 C 301.5625 144.375 301.375 143.8125 301 143.4375 C 300.625 143.0625 300.0625 142.875 299.5625 142.875 C 299.0625 142.875 298.5 143.0625 298.125 143.4375 C 297.75 143.8125 297.5625 144.375 297.5625 144.875 C 297.5625 145.375 297.75 145.9375 298.125 146.3125 C 298.5 146.6875 299.0625 146.875 299.5625 146.875 C 300.0625 146.875 300.625 146.6875 301 146.3125 C 301.375 145.9375 301.5625 145.375 301.5625 144.875 "/>
<path fill-rule="nonzero" fill="rgb(100%, 0%, 0%)" fill-opacity="1" d="M 301.5625 171.5625 C 301.5625 171.0625 301.375 170.5 301 170.125 C 300.625 169.75 300.0625 169.5625 299.5625 169.5625 C 299.0625 169.5625 298.5 169.75 298.125 170.125 C 297.75 170.5 297.5625 171.0625 297.5625 171.5625 C 297.5625 172.0625 297.75 172.625 298.125 173 C 298.5 173.375 299.0625 173.5625 299.5625 173.5625 C 300.0625 173.5625 300.625 173.375 301 173 C 301.375 172.625 301.5625 172.0625 301.5625 171.5625 "/>
<path fill-rule="nonzero" fill="rgb(100%, 0%, 0%)" fill-opacity="1" d="M 278.4375 158.1875 C 278.4375 157.6875 278.25 157.125 277.875 156.75 C 277.5 156.375 276.9375 156.1875 276.4375 156.1875 C 275.9375 156.1875 275.375 156.375 275 156.75 C 274.625 157.125 274.4375 157.6875 274.4375 158.1875 C 274.4375 158.6875 274.625 159.25 275 159.625 C 275.375 160 275.9375 160.1875 276.4375 160.1875 C 276.9375 160.1875 277.5 160 277.875 159.625 C 278.25 159.25 278.4375 158.6875 278.4375 158.1875 "/>
<path fill="none" stroke-width="3.75" stroke-linecap="square" stroke-linejoin="miter" stroke="rgb(0%, 0%, 0%)" stroke-opacity="1" stroke-miterlimit="3.239" d="M 3813.125 186.875 L 3813.125 435.625 " transform="matrix(0.1, 0, 0, -0.1, 0, 196)"/>
<path fill="none" stroke-width="3.75" stroke-linecap="square" stroke-linejoin="miter" stroke="rgb(0%, 0%, 0%)" stroke-opacity="1" stroke-miterlimit="3.239" d="M 3813.125 186.875 L 3937.5 62.5 " transform="matrix(0.1, 0, 0, -0.1, 0, 196)"/>
<path fill="none" stroke-width="3.75" stroke-linecap="square" stroke-linejoin="miter" stroke="rgb(0%, 0%, 0%)" stroke-opacity="1" stroke-miterlimit="3.239" d="M 3813.125 186.875 L 3440 62.5 " transform="matrix(0.1, 0, 0, -0.1, 0, 196)"/>
<path fill="none" stroke-width="3.75" stroke-linecap="square" stroke-linejoin="miter" stroke="rgb(0%, 0%, 0%)" stroke-opacity="1" stroke-miterlimit="3.239" d="M 3813.125 435.625 L 3564.375 435.625 " transform="matrix(0.1, 0, 0, -0.1, 0, 196)"/>
<path fill="none" stroke-width="3.75" stroke-linecap="square" stroke-linejoin="miter" stroke="rgb(0%, 0%, 0%)" stroke-opacity="1" stroke-miterlimit="3.239" d="M 3813.125 435.625 L 3937.5 560 " transform="matrix(0.1, 0, 0, -0.1, 0, 196)"/>
<path fill="none" stroke-width="3.75" stroke-linecap="square" stroke-linejoin="miter" stroke="rgb(0%, 0%, 0%)" stroke-opacity="1" stroke-miterlimit="3.239" d="M 3564.375 435.625 L 3564.375 186.875 " transform="matrix(0.1, 0, 0, -0.1, 0, 196)"/>
<path fill="none" stroke-width="3.75" stroke-linecap="square" stroke-linejoin="miter" stroke="rgb(0%, 0%, 0%)" stroke-opacity="1" stroke-miterlimit="3.239" d="M 3564.375 435.625 L 3440 560 " transform="matrix(0.1, 0, 0, -0.1, 0, 196)"/>
<path fill="none" stroke-width="3.75" stroke-linecap="square" stroke-linejoin="miter" stroke="rgb(0%, 0%, 0%)" stroke-opacity="1" stroke-miterlimit="3.239" d="M 3564.375 186.875 L 3937.5 62.5 " transform="matrix(0.1, 0, 0, -0.1, 0, 196)"/>
<path fill="none" stroke-width="3.75" stroke-linecap="square" stroke-linejoin="miter" stroke="rgb(0%, 0%, 0%)" stroke-opacity="1" stroke-miterlimit="3.239" d="M 3564.375 186.875 L 3440 62.5 " transform="matrix(0.1, 0, 0, -0.1, 0, 196)"/>
<path fill="none" stroke-width="3.75" stroke-linecap="square" stroke-linejoin="miter" stroke="rgb(0%, 0%, 0%)" stroke-opacity="1" stroke-miterlimit="3.239" d="M 3937.5 62.5 L 3937.5 560 " transform="matrix(0.1, 0, 0, -0.1, 0, 196)"/>
<path fill="none" stroke-width="3.75" stroke-linecap="square" stroke-linejoin="miter" stroke="rgb(0%, 0%, 0%)" stroke-opacity="1" stroke-miterlimit="3.239" d="M 3937.5 560 L 3440 560 " transform="matrix(0.1, 0, 0, -0.1, 0, 196)"/>
<path fill="none" stroke-width="3.75" stroke-linecap="square" stroke-linejoin="miter" stroke="rgb(0%, 0%, 0%)" stroke-opacity="1" stroke-miterlimit="3.239" d="M 3440 560 L 3440 62.5 " transform="matrix(0.1, 0, 0, -0.1, 0, 196)"/>
<path fill-rule="nonzero" fill="rgb(100%, 0%, 0%)" fill-opacity="1" d="M 383.3125 177.3125 C 383.3125 176.8125 383.125 176.25 382.75 175.875 C 382.375 175.5 381.8125 175.3125 381.3125 175.3125 C 380.8125 175.3125 380.25 175.5 379.875 175.875 C 379.5 176.25 379.3125 176.8125 379.3125 177.3125 C 379.3125 177.8125 379.5 178.375 379.875 178.75 C 380.25 179.125 380.8125 179.3125 381.3125 179.3125 C 381.8125 179.3125 382.375 179.125 382.75 178.75 C 383.125 178.375 383.3125 177.8125 383.3125 177.3125 "/>
<path fill-rule="nonzero" fill="rgb(100%, 0%, 0%)" fill-opacity="1" d="M 383.3125 152.4375 C 383.3125 151.9375 383.125 151.375 382.75 151 C 382.375 150.625 381.8125 150.4375 381.3125 150.4375 C 380.8125 150.4375 380.25 150.625 379.875 151 C 379.5 151.375 379.3125 151.9375 379.3125 152.4375 C 379.3125 152.9375 379.5 153.5 379.875 153.875 C 380.25 154.25 380.8125 154.4375 381.3125 154.4375 C 381.8125 154.4375 382.375 154.25 382.75 153.875 C 383.125 153.5 383.3125 152.9375 383.3125 152.4375 "/>
<path fill-rule="nonzero" fill="rgb(100%, 0%, 0%)" fill-opacity="1" d="M 358.4375 152.4375 C 358.4375 151.9375 358.25 151.375 357.875 151 C 357.5 150.625 356.9375 150.4375 356.4375 150.4375 C 355.9375 150.4375 355.375 150.625 355 151 C 354.625 151.375 354.4375 151.9375 354.4375 152.4375 C 354.4375 152.9375 354.625 153.5 355 153.875 C 355.375 154.25 355.9375 154.4375 356.4375 154.4375 C 356.9375 154.4375 357.5 154.25 357.875 153.875 C 358.25 153.5 358.4375 152.9375 358.4375 152.4375 "/>
<path fill-rule="nonzero" fill="rgb(100%, 0%, 0%)" fill-opacity="1" d="M 358.4375 177.3125 C 358.4375 176.8125 358.25 176.25 357.875 175.875 C 357.5 175.5 356.9375 175.3125 356.4375 175.3125 C 355.9375 175.3125 355.375 175.5 355 175.875 C 354.625 176.25 354.4375 176.8125 354.4375 177.3125 C 354.4375 177.8125 354.625 178.375 355 178.75 C 355.375 179.125 355.9375 179.3125 356.4375 179.3125 C 356.9375 179.3125 357.5 179.125 357.875 178.75 C 358.25 178.375 358.4375 177.8125 358.4375 177.3125 "/>
<path fill-rule="nonzero" fill="rgb(100%, 0%, 0%)" fill-opacity="1" d="M 395.75 189.75 C 395.75 189.25 395.5625 188.6875 395.1875 188.3125 C 394.8125 187.9375 394.25 187.75 393.75 187.75 C 393.25 187.75 392.6875 187.9375 392.3125 188.3125 C 391.9375 188.6875 391.75 189.25 391.75 189.75 C 391.75 190.25 391.9375 190.8125 392.3125 191.1875 C 392.6875 191.5625 393.25 191.75 393.75 191.75 C 394.25 191.75 394.8125 191.5625 395.1875 191.1875 C 395.5625 190.8125 395.75 190.25 395.75 189.75 "/>
<path fill-rule="nonzero" fill="rgb(100%, 0%, 0%)" fill-opacity="1" d="M 395.75 140 C 395.75 139.5 395.5625 138.9375 395.1875 138.5625 C 394.8125 138.1875 394.25 138 393.75 138 C 393.25 138 392.6875 138.1875 392.3125 138.5625 C 391.9375 138.9375 391.75 139.5 391.75 140 C 391.75 140.5 391.9375 141.0625 392.3125 141.4375 C 392.6875 141.8125 393.25 142 393.75 142 C 394.25 142 394.8125 141.8125 395.1875 141.4375 C 395.5625 141.0625 395.75 140.5 395.75 140 "/>
<path fill-rule="nonzero" fill="rgb(100%, 0%, 0%)" fill-opacity="1" d="M 346 140 C 346 139.5 345.8125 138.9375 345.4375 138.5625 C 345.0625 138.1875 344.5 138 344 138 C 343.5 138 342.9375 138.1875 342.5625 138.5625 C 342.1875 138.9375 342 139.5 342 140 C 342 140.5 342.1875 141.0625 342.5625 141.4375 C 342.9375 141.8125 343.5 142 344 142 C 344.5 142 345.0625 141.8125 345.4375 141.4375 C 345.8125 141.0625 346 140.5 346 140 "/>
<path fill-rule="nonzero" fill="rgb(100%, 0%, 0%)" fill-opacity="1" d="M 346 189.75 C 346 189.25 345.8125 188.6875 345.4375 188.3125 C 345.0625 187.9375 344.5 187.75 344 187.75 C 343.5 187.75 342.9375 187.9375 342.5625 188.3125 C 342.1875 188.6875 342 189.25 342 189.75 C 342 190.25 342.1875 190.8125 342.5625 191.1875 C 342.9375 191.5625 343.5 191.75 344 191.75 C 344.5 191.75 345.0625 191.5625 345.4375 191.1875 C 345.8125 190.8125 346 190.25 346 189.75 "/>
</svg>
