<?xml version="1.0" encoding="UTF-8"?>
<svg xmlns="http://www.w3.org/2000/svg" xmlns:xlink="http://www.w3.org/1999/xlink" width="171.19" height="111.5" viewBox="0 0 171.19 111.5">
<path fill-rule="nonzero" fill="rgb(26.805115%, 0%, 0%)" fill-opacity="1" d="M 74.394531 7.253906 L 32.535156 18.101562 L 66.121094 7.953125 "/>
<path fill="none" stroke-width="5" stroke-linecap="round" stroke-linejoin="round" stroke="rgb(0%, 0%, 0%)" stroke-opacity="1" stroke-miterlimit="10" d="M 747.465353 1042.255571 L 326.890991 933.265743 L 664.339513 1035.2303 Z M 747.465353 1042.255571 " transform="matrix(0.0995291, 0, 0, -0.0995291, 0.00000000000000111, 110.988634)"/>
<path fill-rule="nonzero" fill="rgb(65.818787%, 74.609375%, 91.40625%)" fill-opacity="1" d="M 74.394531 7.253906 L 118.917969 11.742188 L 164.910156 59.890625 "/>
<path fill="none" stroke-width="5" stroke-linecap="round" stroke-linejoin="round" stroke="rgb(0%, 0%, 0%)" stroke-opacity="1" stroke-miterlimit="10" d="M 747.465353 1042.255571 L 1194.806392 997.160392 " transform="matrix(0.0995291, 0, 0, -0.0995291, 0.00000000000000111, 110.988634)"/>
<path fill-rule="nonzero" fill="rgb(65.818787%, 74.609375%, 91.40625%)" fill-opacity="1" d="M 32.535156 18.101562 L 74.394531 7.253906 L 164.910156 59.890625 "/>
<path fill="none" stroke-width="5" stroke-linecap="round" stroke-linejoin="round" stroke="rgb(0%, 0%, 0%)" stroke-opacity="1" stroke-miterlimit="10" d="M 326.890991 933.265743 L 747.465353 1042.255571 " transform="matrix(0.0995291, 0, 0, -0.0995291, 0.00000000000000111, 110.988634)"/>
<path fill-rule="nonzero" fill="rgb(14.988708%, 69.334412%, 78.125%)" fill-opacity="1" stroke-width="5" stroke-linecap="round" stroke-linejoin="round" stroke="rgb(0%, 0%, 0%)" stroke-opacity="1" stroke-miterlimit="10" d="M 1194.806392 997.160392 L 747.465353 1042.255571 L 664.339513 1035.2303 " transform="matrix(0.0995291, 0, 0, -0.0995291, 0.00000000000000111, 110.988634)"/>
<path fill-rule="nonzero" fill="rgb(65.818787%, 74.609375%, 91.40625%)" fill-opacity="1" stroke-width="5" stroke-linecap="round" stroke-linejoin="round" stroke="rgb(0%, 0%, 0%)" stroke-opacity="1" stroke-miterlimit="10" d="M 1194.806392 997.160392 L 1540.850079 806.261391 L 1656.904426 513.397833 " transform="matrix(0.0995291, 0, 0, -0.0995291, 0.00000000000000111, 110.988634)"/>
<path fill-rule="nonzero" fill="rgb(46.801758%, 88.671875%, 77.929688%)" fill-opacity="1" d="M 153.359375 30.742188 L 118.917969 11.742188 L 114.253906 12.820312 "/>
<path fill="none" stroke-width="5" stroke-linecap="round" stroke-linejoin="round" stroke="rgb(0%, 0%, 0%)" stroke-opacity="1" stroke-miterlimit="10" d="M 1540.850079 806.261391 L 1194.806392 997.160392 L 1147.945083 986.32813 Z M 1540.850079 806.261391 " transform="matrix(0.0995291, 0, 0, -0.0995291, 0.00000000000000111, 110.988634)"/>
<path fill-rule="nonzero" fill="rgb(14.988708%, 69.334412%, 78.125%)" fill-opacity="1" stroke-width="5" stroke-linecap="round" stroke-linejoin="round" stroke="rgb(0%, 0%, 0%)" stroke-opacity="1" stroke-miterlimit="10" d="M 664.339513 1035.2303 L 1147.945083 986.32813 L 1194.806392 997.160392 " transform="matrix(0.0995291, 0, 0, -0.0995291, 0.00000000000000111, 110.988634)"/>
<path fill-rule="nonzero" fill="rgb(65.818787%, 74.609375%, 91.40625%)" fill-opacity="1" d="M 6.195312 42.171875 L 32.535156 18.101562 L 164.910156 59.890625 "/>
<path fill="none" stroke-width="5" stroke-linecap="round" stroke-linejoin="round" stroke="rgb(0%, 0%, 0%)" stroke-opacity="1" stroke-miterlimit="10" d="M 62.246261 691.42371 L 326.890991 933.265743 " transform="matrix(0.0995291, 0, 0, -0.0995291, 0.00000000000000111, 110.988634)"/>
<path fill-rule="nonzero" fill="rgb(21.289062%, 55.076599%, 93.164062%)" fill-opacity="1" stroke-width="5" stroke-linecap="round" stroke-linejoin="round" stroke="rgb(0%, 0%, 0%)" stroke-opacity="1" stroke-miterlimit="10" d="M 326.890991 933.265743 L 62.246261 691.42371 L 405.974356 786.127512 " transform="matrix(0.0995291, 0, 0, -0.0995291, 0.00000000000000111, 110.988634)"/>
<path fill-rule="nonzero" fill="rgb(21.289062%, 55.076599%, 93.164062%)" fill-opacity="1" stroke-width="5" stroke-linecap="round" stroke-linejoin="round" stroke="rgb(0%, 0%, 0%)" stroke-opacity="1" stroke-miterlimit="10" d="M 405.974356 786.127512 L 664.339513 1035.2303 L 326.890991 933.265743 " transform="matrix(0.0995291, 0, 0, -0.0995291, 0.00000000000000111, 110.988634)"/>
<path fill-rule="nonzero" fill="rgb(81.639099%, 92.771912%, 90.625%)" fill-opacity="1" stroke-width="5" stroke-linecap="round" stroke-linejoin="round" stroke="rgb(0%, 0%, 0%)" stroke-opacity="1" stroke-miterlimit="10" d="M 1656.904426 513.397833 L 1540.850079 806.261391 L 1147.945083 986.32813 " transform="matrix(0.0995291, 0, 0, -0.0995291, 0.00000000000000111, 110.988634)"/>
<path fill-rule="nonzero" fill="rgb(65.234375%, 75.584412%, 92.576599%)" fill-opacity="1" stroke-width="5" stroke-linecap="round" stroke-linejoin="round" stroke="rgb(0%, 0%, 0%)" stroke-opacity="1" stroke-miterlimit="10" d="M 1147.945083 986.32813 L 664.339513 1035.2303 L 405.974356 786.127512 " transform="matrix(0.0995291, 0, 0, -0.0995291, 0.00000000000000111, 110.988634)"/>
<path fill-rule="nonzero" fill="rgb(65.818787%, 74.609375%, 91.40625%)" fill-opacity="1" d="M 7.480469 73 L 6.195312 42.171875 L 164.910156 59.890625 "/>
<path fill="none" stroke-width="5" stroke-linecap="round" stroke-linejoin="round" stroke="rgb(0%, 0%, 0%)" stroke-opacity="1" stroke-miterlimit="10" d="M 75.158632 381.683802 L 62.246261 691.42371 " transform="matrix(0.0995291, 0, 0, -0.0995291, 0.00000000000000111, 110.988634)"/>
<path fill-rule="nonzero" fill="rgb(38.890076%, 50.78125%, 85.742188%)" fill-opacity="1" d="M 6.195312 42.171875 L 7.480469 73 L 40.40625 32.746094 "/>
<path fill="none" stroke-width="5" stroke-linecap="round" stroke-linejoin="round" stroke="rgb(0%, 0%, 0%)" stroke-opacity="1" stroke-miterlimit="10" d="M 62.246261 691.42371 L 75.158632 381.683802 L 405.974356 786.127512 Z M 62.246261 691.42371 " transform="matrix(0.0995291, 0, 0, -0.0995291, 0.00000000000000111, 110.988634)"/>
<path fill-rule="nonzero" fill="rgb(81.639099%, 92.771912%, 90.625%)" fill-opacity="1" stroke-width="5" stroke-linecap="round" stroke-linejoin="round" stroke="rgb(0%, 0%, 0%)" stroke-opacity="1" stroke-miterlimit="10" d="M 1147.945083 986.32813 L 1239.705335 695.897906 L 1656.904426 513.397833 " transform="matrix(0.0995291, 0, 0, -0.0995291, 0.00000000000000111, 110.988634)"/>
<path fill-rule="nonzero" fill="rgb(65.234375%, 75.584412%, 92.576599%)" fill-opacity="1" stroke-width="5" stroke-linecap="round" stroke-linejoin="round" stroke="rgb(0%, 0%, 0%)" stroke-opacity="1" stroke-miterlimit="10" d="M 759.043314 555.902689 L 1239.705335 695.897906 L 1147.945083 986.32813 " transform="matrix(0.0995291, 0, 0, -0.0995291, 0.00000000000000111, 110.988634)"/>
<path fill-rule="nonzero" fill="rgb(65.234375%, 75.584412%, 92.576599%)" fill-opacity="1" d="M 40.40625 32.746094 L 75.546875 55.660156 L 114.253906 12.820312 "/>
<path fill="none" stroke-width="5" stroke-linecap="round" stroke-linejoin="round" stroke="rgb(0%, 0%, 0%)" stroke-opacity="1" stroke-miterlimit="10" d="M 405.974356 786.127512 L 759.043314 555.902689 " transform="matrix(0.0995291, 0, 0, -0.0995291, 0.00000000000000111, 110.988634)"/>
<path fill-rule="nonzero" fill="rgb(65.818787%, 74.609375%, 91.40625%)" fill-opacity="1" d="M 41.328125 98.503906 L 7.480469 73 L 164.910156 59.890625 "/>
<path fill="none" stroke-width="5" stroke-linecap="round" stroke-linejoin="round" stroke="rgb(0%, 0%, 0%)" stroke-opacity="1" stroke-miterlimit="10" d="M 415.236725 125.438 L 75.158632 381.683802 " transform="matrix(0.0995291, 0, 0, -0.0995291, 0.00000000000000111, 110.988634)"/>
<path fill-rule="nonzero" fill="rgb(65.818787%, 74.609375%, 91.40625%)" fill-opacity="1" d="M 95.875 105.335938 L 41.328125 98.503906 L 164.910156 59.890625 "/>
<path fill="none" stroke-width="5" stroke-linecap="round" stroke-linejoin="round" stroke="rgb(0%, 0%, 0%)" stroke-opacity="1" stroke-miterlimit="10" d="M 963.286407 56.794424 L 415.236725 125.438 " transform="matrix(0.0995291, 0, 0, -0.0995291, 0.00000000000000111, 110.988634)"/>
<path fill-rule="nonzero" fill="rgb(65.818787%, 74.609375%, 91.40625%)" fill-opacity="1" stroke-width="5" stroke-linecap="round" stroke-linejoin="round" stroke="rgb(0%, 0%, 0%)" stroke-opacity="1" stroke-miterlimit="10" d="M 1656.904426 513.397833 L 1451.169935 217.041263 L 963.286407 56.794424 " transform="matrix(0.0995291, 0, 0, -0.0995291, 0.00000000000000111, 110.988634)"/>
<path fill-rule="nonzero" fill="rgb(83.789062%, 80.271912%, 81.834412%)" fill-opacity="1" d="M 144.433594 89.386719 L 164.910156 59.890625 L 123.386719 41.726562 "/>
<path fill="none" stroke-width="5" stroke-linecap="round" stroke-linejoin="round" stroke="rgb(0%, 0%, 0%)" stroke-opacity="1" stroke-miterlimit="10" d="M 1451.169935 217.041263 L 1656.904426 513.397833 L 1239.705335 695.897906 Z M 1451.169935 217.041263 " transform="matrix(0.0995291, 0, 0, -0.0995291, 0.00000000000000111, 110.988634)"/>
<path fill-rule="nonzero" fill="rgb(58.201599%, 58.201599%, 81.639099%)" fill-opacity="1" stroke-width="5" stroke-linecap="round" stroke-linejoin="round" stroke="rgb(0%, 0%, 0%)" stroke-opacity="1" stroke-miterlimit="10" d="M 759.043314 555.902689 L 405.974356 786.127512 L 75.158632 381.683802 " transform="matrix(0.0995291, 0, 0, -0.0995291, 0.00000000000000111, 110.988634)"/>
<path fill-rule="nonzero" fill="rgb(58.201599%, 58.201599%, 81.639099%)" fill-opacity="1" stroke-width="5" stroke-linecap="round" stroke-linejoin="round" stroke="rgb(0%, 0%, 0%)" stroke-opacity="1" stroke-miterlimit="10" d="M 75.158632 381.683802 L 415.236725 125.438 L 759.043314 555.902689 " transform="matrix(0.0995291, 0, 0, -0.0995291, 0.00000000000000111, 110.988634)"/>
<path fill-rule="nonzero" fill="rgb(75.389099%, 69.726562%, 79.881287%)" fill-opacity="1" stroke-width="5" stroke-linecap="round" stroke-linejoin="round" stroke="rgb(0%, 0%, 0%)" stroke-opacity="1" stroke-miterlimit="10" d="M 963.286407 56.794424 L 1451.169935 217.041263 L 1239.705335 695.897906 " transform="matrix(0.0995291, 0, 0, -0.0995291, 0.00000000000000111, 110.988634)"/>
<path fill-rule="nonzero" fill="rgb(75.389099%, 69.726562%, 79.881287%)" fill-opacity="1" stroke-width="5" stroke-linecap="round" stroke-linejoin="round" stroke="rgb(0%, 0%, 0%)" stroke-opacity="1" stroke-miterlimit="10" d="M 1239.705335 695.897906 L 759.043314 555.902689 L 963.286407 56.794424 " transform="matrix(0.0995291, 0, 0, -0.0995291, 0.00000000000000111, 110.988634)"/>
<path fill-rule="nonzero" fill="rgb(67.771912%, 60.742188%, 77.146912%)" fill-opacity="1" d="M 41.328125 98.503906 L 95.875 105.335938 L 75.546875 55.660156 "/>
<path fill="none" stroke-width="5" stroke-linecap="round" stroke-linejoin="round" stroke="rgb(0%, 0%, 0%)" stroke-opacity="1" stroke-miterlimit="10" d="M 415.236725 125.438 L 963.286407 56.794424 L 759.043314 555.902689 Z M 415.236725 125.438 " transform="matrix(0.0995291, 0, 0, -0.0995291, 0.00000000000000111, 110.988634)"/>
</svg>
