<?xml version="1.0" encoding="UTF-8"?>
<svg xmlns="http://www.w3.org/2000/svg" xmlns:xlink="http://www.w3.org/1999/xlink" width="304.5" height="36.88" viewBox="0 0 304.5 36.88">
<defs>
<clipPath id="clip-0">
<path clip-rule="nonzero" d="M 0.246094 36 L 303.757812 36 L 303.757812 36.761719 L 0.246094 36.761719 Z M 0.246094 36 "/>
</clipPath>
<clipPath id="clip-1">
<path clip-rule="nonzero" d="M 7 0 L 8 0 L 8 36.761719 L 7 36.761719 Z M 7 0 "/>
</clipPath>
<clipPath id="clip-2">
<path clip-rule="nonzero" d="M 7 0.00390625 L 125 0.00390625 L 125 28 L 7 28 Z M 7 0.00390625 "/>
</clipPath>
<clipPath id="clip-3">
<path clip-rule="nonzero" d="M 124 0.00390625 L 225 0.00390625 L 225 28 L 124 28 Z M 124 0.00390625 "/>
</clipPath>
<clipPath id="clip-4">
<path clip-rule="nonzero" d="M 223 0.00390625 L 297 0.00390625 L 297 28 L 223 28 Z M 223 0.00390625 "/>
</clipPath>
</defs>
<g clip-path="url(#clip-0)">
<path fill="none" stroke-width="2.5" stroke-linecap="round" stroke-linejoin="round" stroke="rgb(0%, 0%, 0%)" stroke-opacity="1" stroke-miterlimit="10" d="M 0.99478 -0.0133389 L 3043.988951 -0.0133389 " transform="matrix(0.0996757, 0, 0, -0.0996757, 0.244595, 36.760389)"/>
</g>
<g clip-path="url(#clip-1)">
<path fill="none" stroke-width="2.5" stroke-linecap="round" stroke-linejoin="round" stroke="rgb(0%, 0%, 0%)" stroke-opacity="1" stroke-miterlimit="10" d="M 74.357714 -0.0133389 L 74.357714 368.76081 " transform="matrix(0.0996757, 0, 0, -0.0996757, 0.244595, 36.760389)"/>
</g>
<g clip-path="url(#clip-2)">
<path fill="none" stroke-width="5" stroke-linecap="round" stroke-linejoin="round" stroke="rgb(100%, 0%, 0%)" stroke-opacity="1" stroke-miterlimit="10" d="M 73.456353 92.199793 L 76.199625 92.199793 L 77.68883 92.278172 L 79.099656 92.395741 L 80.432102 92.47412 L 81.64698 92.630879 L 84.390252 92.983585 L 87.211903 93.49305 L 90.307882 94.198463 L 96.656597 96.079564 L 103.044502 98.548509 L 110.020251 101.722866 L 123.383906 109.168891 L 197.6482 162.545128 L 305.419604 234.810753 L 374.393303 271.805737 L 447.168392 303.470934 L 524.607045 329.727967 L 570.184551 341.837554 L 613.410682 351.164679 L 661.77065 359.198548 L 687.557407 362.490474 L 715.029318 365.233746 L 726.62944 366.135107 L 739.091733 366.997278 L 749.908063 367.545933 L 761.664944 368.094587 L 768.836641 368.329725 L 775.459683 368.525673 L 781.808399 368.643242 L 784.982757 368.643242 L 788.54901 368.721621 L 794.623399 368.76081 L 801.168062 368.76081 L 807.007313 368.721621 L 813.081701 368.643242 L 819.07771 368.525673 L 825.622373 368.368914 L 837.418443 367.977018 L 848.900996 367.467554 L 859.482189 366.87971 L 883.427035 365.076988 L 908.665139 362.568853 L 950.245306 356.925551 L 995.156589 348.852493 L 1082.157504 326.788747 L 1168.257058 296.0641 L 1246.126796 259.892098 " transform="matrix(0.0996757, 0, 0, -0.0996757, 0.244595, 36.760389)"/>
</g>
<g clip-path="url(#clip-3)">
<path fill="none" stroke-width="5" stroke-linecap="round" stroke-linejoin="round" stroke="rgb(100%, 0%, 0%)" stroke-opacity="1" stroke-miterlimit="10" d="M 1246.126796 259.892098 L 1310.358553 223.406579 L 1406.177129 157.41129 L 1446.228901 127.627193 L 1476.130567 107.601307 L 1489.455032 100.468799 L 1496.117264 97.607958 L 1502.975444 95.217393 L 1508.853884 93.688998 L 1512.145811 93.061964 L 1513.713395 92.826827 L 1515.2026 92.630879 L 1516.574236 92.47412 L 1518.024251 92.356552 L 1519.356697 92.278172 L 1520.571575 92.238983 L 1521.904021 92.199793 L 1523.393226 92.199793 L 1524.882431 92.238983 L 1526.332446 92.278172 L 1527.743272 92.395741 L 1529.310856 92.5525 L 1532.093318 92.944396 L 1535.385244 93.53224 L 1538.442033 94.198463 L 1545.143455 96.236322 L 1551.609739 98.705267 L 1577.357307 112.852713 L 1646.566144 163.172161 L 1753.945651 235.08508 L 1822.292316 271.688168 L 1894.753889 303.314176 L 1971.40875 329.336071 L 2016.63355 341.406469 L 2059.781301 350.811973 L 2107.475046 358.845841 L 2133.026666 362.176957 L 2160.381008 364.959419 L 2171.824371 365.939159 L 2184.247475 366.762141 L 2194.946236 367.428364 L 2206.703117 367.937829 L 2213.012642 368.212156 L 2219.753254 368.368914 L 2223.476266 368.486483 L 2226.846572 368.564862 L 2230.334446 368.643242 L 2233.508804 368.682431 L 2239.583192 368.76081 L 2246.167045 368.76081 " transform="matrix(0.0996757, 0, 0, -0.0996757, 0.244595, 36.760389)"/>
</g>
<g clip-path="url(#clip-4)">
<path fill="none" stroke-width="5" stroke-linecap="round" stroke-linejoin="round" stroke="rgb(100%, 0%, 0%)" stroke-opacity="1" stroke-miterlimit="10" d="M 2246.167045 368.76081 L 2251.849537 368.76081 L 2258.119874 368.682431 L 2264.429399 368.604052 L 2270.26865 368.486483 L 2276.656555 368.290535 L 2283.475546 368.094587 L 2296.055408 367.506743 L 2307.459582 366.87971 L 2330.581447 365.155367 L 2352.214107 363.078318 L 2399.986231 356.690413 L 2450.501627 347.324098 L 2539.148505 324.006286 L 2625.130491 292.419467 L 2755.435915 225.28768 L 2856.701846 155.608568 L 2894.010346 127.823141 L 2923.363358 108.071582 L 2935.394565 101.526918 L 2947.425773 96.393081 L 2953.539351 94.51198 L 2956.674519 93.767377 L 2960.084014 93.101154 L 2961.612408 92.826827 L 2963.219182 92.630879 L 2964.669197 92.47412 L 2966.040833 92.356552 L 2967.294901 92.278172 L 2968.666537 92.238983 L 2970.155742 92.199793 L 2971.527378 92.199793 " transform="matrix(0.0996757, 0, 0, -0.0996757, 0.244595, 36.760389)"/>
</g>
</svg>
