<?xml version="1.0" encoding="UTF-8"?>
<svg xmlns="http://www.w3.org/2000/svg" xmlns:xlink="http://www.w3.org/1999/xlink" width="200" height="200" viewBox="0 0 200 200">
<path fill="none" stroke-width="5" stroke-linecap="round" stroke-linejoin="round" stroke="rgb(0%, 0%, 0%)" stroke-opacity="1" stroke-miterlimit="10" d="M 1952.382812 1000 C 1952.382812 1525.976562 1525.976562 1952.382812 1000 1952.382812 C 474.023438 1952.382812 47.617188 1525.976562 47.617188 1000 C 47.617188 474.023438 474.023438 47.617188 1000 47.617188 C 1525.976562 47.617188 1952.382812 474.023438 1952.382812 1000 C 1952.382812 1031.757812 1950.78125 1063.476562 1947.617188 1095.078125 " transform="matrix(0.1, 0, 0, -0.1, 0, 200)"/>
<path fill="none" stroke-width="5" stroke-linecap="round" stroke-linejoin="round" stroke="rgb(0%, 0%, 0%)" stroke-opacity="1" stroke-miterlimit="10" d="M 1514.570312 1801.40625 L 692.109375 1901.25 L 246.679688 417.265625 L 1674.921875 328.046875 L 1514.570312 1801.40625 " transform="matrix(0.1, 0, 0, -0.1, 0, 200)"/>
<path fill="none" stroke-width="5" stroke-linecap="round" stroke-linejoin="round" stroke="rgb(0%, 0%, 0%)" stroke-opacity="1" stroke-miterlimit="10" d="M 1514.570312 1801.40625 L 246.679688 417.265625 " transform="matrix(0.1, 0, 0, -0.1, 0, 200)"/>
<path fill="none" stroke-width="5" stroke-linecap="round" stroke-linejoin="round" stroke="rgb(0%, 0%, 0%)" stroke-opacity="1" stroke-miterlimit="10" d="M 692.109375 1901.25 L 1674.921875 328.046875 " transform="matrix(0.1, 0, 0, -0.1, 0, 200)"/>
<path fill="none" stroke-width="40" stroke-linecap="round" stroke-linejoin="round" stroke="rgb(0%, 0%, 0%)" stroke-opacity="1" stroke-miterlimit="10" d="M 904.84375 1575.9375 L 904.84375 1575.9375 " transform="matrix(0.1, 0, 0, -0.1, 0, 200)"/>
<path fill="none" stroke-width="40" stroke-linecap="round" stroke-linejoin="round" stroke="rgb(0%, 0%, 0%)" stroke-opacity="1" stroke-miterlimit="10" d="M 836.171875 827.851562 L 836.171875 827.851562 " transform="matrix(0.1, 0, 0, -0.1, 0, 200)"/>
<path fill="none" stroke-width="40" stroke-linecap="round" stroke-linejoin="round" stroke="rgb(0%, 0%, 0%)" stroke-opacity="1" stroke-miterlimit="10" d="M 1185.15625 795.820312 L 1185.15625 795.820312 " transform="matrix(0.1, 0, 0, -0.1, 0, 200)"/>
<path fill="none" stroke-width="40" stroke-linecap="round" stroke-linejoin="round" stroke="rgb(0%, 0%, 0%)" stroke-opacity="1" stroke-miterlimit="10" d="M 1253.828125 1543.867188 L 1253.828125 1543.867188 " transform="matrix(0.1, 0, 0, -0.1, 0, 200)"/>
<path fill="none" stroke-width="5" stroke-linecap="round" stroke-linejoin="round" stroke="rgb(0%, 0%, 0%)" stroke-opacity="1" stroke-miterlimit="10" d="M 1202.148438 1575.9375 C 1202.148438 1740.117188 1069.0625 1873.242188 904.84375 1873.242188 C 740.664062 1873.242188 607.578125 1740.117188 607.578125 1575.9375 C 607.578125 1411.757812 740.664062 1278.632812 904.84375 1278.632812 C 1069.0625 1278.632812 1202.148438 1411.757812 1202.148438 1575.9375 C 1202.148438 1585.859375 1201.640625 1595.742188 1200.664062 1605.625 " transform="matrix(0.1, 0, 0, -0.1, 0, 200)"/>
<path fill="none" stroke-width="5" stroke-linecap="round" stroke-linejoin="round" stroke="rgb(0%, 0%, 0%)" stroke-opacity="1" stroke-miterlimit="10" d="M 1282.695312 827.851562 C 1282.695312 1074.492188 1082.773438 1274.414062 836.171875 1274.414062 C 589.53125 1274.414062 389.609375 1074.492188 389.609375 827.851562 C 389.609375 581.25 589.53125 381.328125 836.171875 381.328125 C 1082.773438 381.328125 1282.695312 581.25 1282.695312 827.851562 C 1282.695312 842.734375 1281.953125 857.617188 1280.46875 872.421875 " transform="matrix(0.1, 0, 0, -0.1, 0, 200)"/>
<path fill="none" stroke-width="5" stroke-linecap="round" stroke-linejoin="round" stroke="rgb(0%, 0%, 0%)" stroke-opacity="1" stroke-miterlimit="10" d="M 1621.445312 795.820312 C 1621.445312 1036.796875 1426.09375 1232.109375 1185.15625 1232.109375 C 944.179688 1232.109375 748.828125 1036.796875 748.828125 795.820312 C 748.828125 554.84375 944.179688 359.53125 1185.15625 359.53125 C 1426.09375 359.53125 1621.445312 554.84375 1621.445312 795.820312 C 1621.445312 810.351562 1620.703125 824.921875 1619.257812 839.375 " transform="matrix(0.1, 0, 0, -0.1, 0, 200)"/>
<path fill="none" stroke-width="5" stroke-linecap="round" stroke-linejoin="round" stroke="rgb(0%, 0%, 0%)" stroke-opacity="1" stroke-miterlimit="10" d="M 1540.898438 1543.867188 C 1540.898438 1702.421875 1412.382812 1830.9375 1253.828125 1830.9375 C 1095.3125 1830.9375 966.796875 1702.421875 966.796875 1543.867188 C 966.796875 1385.351562 1095.3125 1256.835938 1253.828125 1256.835938 C 1412.382812 1256.835938 1540.898438 1385.351562 1540.898438 1543.867188 C 1540.898438 1553.4375 1540.429688 1563.007812 1539.453125 1572.539062 " transform="matrix(0.1, 0, 0, -0.1, 0, 200)"/>
<path fill="none" stroke-width="5" stroke-linecap="round" stroke-linejoin="round" stroke="rgb(0%, 0%, 0%)" stroke-opacity="1" stroke-miterlimit="10" d="M 904.84375 1575.9375 L 836.171875 827.851562 L 1185.15625 795.820312 L 1253.828125 1543.867188 L 904.84375 1575.9375 " transform="matrix(0.1, 0, 0, -0.1, 0, 200)"/>
<path fill="none" stroke-width="40" stroke-linecap="round" stroke-linejoin="round" stroke="rgb(0%, 0%, 0%)" stroke-opacity="1" stroke-miterlimit="10" d="M 1114.765625 1945.429688 L 1114.765625 1945.429688 " transform="matrix(0.1, 0, 0, -0.1, 0, 200)"/>
<path fill="none" stroke-width="40" stroke-linecap="round" stroke-linejoin="round" stroke="rgb(0%, 0%, 0%)" stroke-opacity="1" stroke-miterlimit="10" d="M 87.8125 1273.789062 L 87.8125 1273.789062 " transform="matrix(0.1, 0, 0, -0.1, 0, 200)"/>
<path fill="none" stroke-width="40" stroke-linecap="round" stroke-linejoin="round" stroke="rgb(0%, 0%, 0%)" stroke-opacity="1" stroke-miterlimit="10" d="M 940.625 49.492188 L 940.625 49.492188 " transform="matrix(0.1, 0, 0, -0.1, 0, 200)"/>
<path fill="none" stroke-width="40" stroke-linecap="round" stroke-linejoin="round" stroke="rgb(0%, 0%, 0%)" stroke-opacity="1" stroke-miterlimit="10" d="M 1946.796875 1103.046875 L 1946.796875 1103.046875 " transform="matrix(0.1, 0, 0, -0.1, 0, 200)"/>
<path fill="none" stroke-width="5" stroke-linecap="round" stroke-linejoin="round" stroke="rgb(0%, 0%, 0%)" stroke-opacity="1" stroke-miterlimit="10" d="M 1114.765625 1945.429688 L 940.625 49.492188 " transform="matrix(0.1, 0, 0, -0.1, 0, 200)"/>
<path fill="none" stroke-width="5" stroke-linecap="round" stroke-linejoin="round" stroke="rgb(0%, 0%, 0%)" stroke-opacity="1" stroke-miterlimit="10" d="M 87.8125 1273.789062 L 1946.796875 1103.046875 " transform="matrix(0.1, 0, 0, -0.1, 0, 200)"/>
</svg>
