<?xml version="1.0" encoding="UTF-8"?>
<svg xmlns="http://www.w3.org/2000/svg" xmlns:xlink="http://www.w3.org/1999/xlink" width="218" height="200.31" viewBox="0 0 218 200.31">
<path fill="none" stroke-width="5" stroke-linecap="round" stroke-linejoin="round" stroke="rgb(0%, 0%, 0%)" stroke-opacity="1" stroke-miterlimit="10" d="M 1657.416598 1107.290458 C 1657.416598 1406.559989 1414.865209 1649.111378 1115.595678 1649.111378 C 816.365345 1649.111378 573.774758 1406.559989 573.774758 1107.290458 C 573.774758 808.060124 816.365345 565.508735 1115.595678 565.508735 C 1414.865209 565.508735 1657.416598 808.060124 1657.416598 1107.290458 C 1657.416598 1125.399498 1656.515066 1143.430145 1654.712001 1161.421594 " transform="matrix(0.0996567, 0, 0, -0.0996567, 0.374179, 199.622369)"/>
<path fill="none" stroke-width="5" stroke-linecap="round" stroke-linejoin="round" stroke="rgb(0%, 0%, 0%)" stroke-opacity="1" stroke-miterlimit="10" d="M 1408.358497 1563.230626 L 940.463227 1620.027161 L 687.054253 775.800946 L 1499.570049 725.040757 L 1408.358497 1563.230626 " transform="matrix(0.0996567, 0, 0, -0.0996567, 0.374179, 199.622369)"/>
<path fill="none" stroke-width="5" stroke-linecap="round" stroke-linejoin="round" stroke="rgb(0%, 0%, 0%)" stroke-opacity="1" stroke-miterlimit="10" d="M 1408.358497 1563.230626 L 687.054253 775.800946 " transform="matrix(0.0996567, 0, 0, -0.0996567, 0.374179, 199.622369)"/>
<path fill="none" stroke-width="5" stroke-linecap="round" stroke-linejoin="round" stroke="rgb(0%, 0%, 0%)" stroke-opacity="1" stroke-miterlimit="10" d="M 940.463227 1620.027161 L 1499.570049 725.040757 " transform="matrix(0.0996567, 0, 0, -0.0996567, 0.374179, 199.622369)"/>
<path fill="none" stroke-width="43.5898" stroke-linecap="round" stroke-linejoin="round" stroke="rgb(0%, 0%, 0%)" stroke-opacity="1" stroke-miterlimit="10" d="M 1061.464542 1434.977855 L 1061.464542 1434.977855 " transform="matrix(0.0996567, 0, 0, -0.0996567, 0.374179, 199.622369)"/>
<path fill="none" stroke-width="43.5898" stroke-linecap="round" stroke-linejoin="round" stroke="rgb(0%, 0%, 0%)" stroke-opacity="1" stroke-miterlimit="10" d="M 1022.385077 1009.376209 L 1022.385077 1009.376209 " transform="matrix(0.0996567, 0, 0, -0.0996567, 0.374179, 199.622369)"/>
<path fill="none" stroke-width="43.5898" stroke-linecap="round" stroke-linejoin="round" stroke="rgb(0%, 0%, 0%)" stroke-opacity="1" stroke-miterlimit="10" d="M 1220.918171 991.149578 L 1220.918171 991.149578 " transform="matrix(0.0996567, 0, 0, -0.0996567, 0.374179, 199.622369)"/>
<path fill="none" stroke-width="43.5898" stroke-linecap="round" stroke-linejoin="round" stroke="rgb(0%, 0%, 0%)" stroke-opacity="1" stroke-miterlimit="10" d="M 1260.036834 1416.712026 L 1260.036834 1416.712026 " transform="matrix(0.0996567, 0, 0, -0.0996567, 0.374179, 199.622369)"/>
<path fill="none" stroke-width="43.5898" stroke-linecap="round" stroke-linejoin="round" stroke="rgb(0%, 0%, 0%)" stroke-opacity="1" stroke-miterlimit="10" d="M 131.82794 1091.180467 L 131.82794 1091.180467 " transform="matrix(0.0996567, 0, 0, -0.0996567, 0.374179, 199.622369)"/>
<path fill="none" stroke-width="43.5898" stroke-linecap="round" stroke-linejoin="round" stroke="rgb(0%, 0%, 0%)" stroke-opacity="1" stroke-miterlimit="10" d="M 1968.798019 47.676414 L 1968.798019 47.676414 " transform="matrix(0.0996567, 0, 0, -0.0996567, 0.374179, 199.622369)"/>
<path fill="none" stroke-width="43.5898" stroke-linecap="round" stroke-linejoin="round" stroke="rgb(0%, 0%, 0%)" stroke-opacity="1" stroke-miterlimit="10" d="M 1300.292211 1855.405489 L 1300.292211 1855.405489 " transform="matrix(0.0996567, 0, 0, -0.0996567, 0.374179, 199.622369)"/>
<path fill="none" stroke-width="43.5898" stroke-linecap="round" stroke-linejoin="round" stroke="rgb(0%, 0%, 0%)" stroke-opacity="1" stroke-miterlimit="10" d="M 1141.230554 123.718705 L 1141.230554 123.718705 " transform="matrix(0.0996567, 0, 0, -0.0996567, 0.374179, 199.622369)"/>
<path fill="none" stroke-width="43.5898" stroke-linecap="round" stroke-linejoin="round" stroke="rgb(0%, 0%, 0%)" stroke-opacity="1" stroke-miterlimit="10" d="M 2127.859677 1779.402395 L 2127.859677 1779.402395 " transform="matrix(0.0996567, 0, 0, -0.0996567, 0.374179, 199.622369)"/>
<path fill="none" stroke-width="43.5898" stroke-linecap="round" stroke-linejoin="round" stroke="rgb(0%, 0%, 0%)" stroke-opacity="1" stroke-miterlimit="10" d="M 170.907406 1516.782113 L 170.907406 1516.782113 " transform="matrix(0.0996567, 0, 0, -0.0996567, 0.374179, 199.622369)"/>
<path fill="none" stroke-width="43.5898" stroke-linecap="round" stroke-linejoin="round" stroke="rgb(0%, 0%, 0%)" stroke-opacity="1" stroke-miterlimit="10" d="M 2087.565102 1340.708933 L 2087.565102 1340.708933 " transform="matrix(0.0996567, 0, 0, -0.0996567, 0.374179, 199.622369)"/>
<path fill="none" stroke-width="43.5898" stroke-linecap="round" stroke-linejoin="round" stroke="rgb(0%, 0%, 0%)" stroke-opacity="1" stroke-miterlimit="10" d="M 211.201981 1955.436379 L 211.201981 1955.436379 " transform="matrix(0.0996567, 0, 0, -0.0996567, 0.374179, 199.622369)"/>
<path fill="none" stroke-width="43.5898" stroke-linecap="round" stroke-linejoin="round" stroke="rgb(0%, 0%, 0%)" stroke-opacity="1" stroke-miterlimit="10" d="M 942.69746 141.945337 L 942.69746 141.945337 " transform="matrix(0.0996567, 0, 0, -0.0996567, 0.374179, 199.622369)"/>
<path fill="none" stroke-width="43.5898" stroke-linecap="round" stroke-linejoin="round" stroke="rgb(0%, 0%, 0%)" stroke-opacity="1" stroke-miterlimit="10" d="M 1101.759117 1873.632121 L 1101.759117 1873.632121 " transform="matrix(0.0996567, 0, 0, -0.0996567, 0.374179, 199.622369)"/>
<path fill="none" stroke-width="43.5898" stroke-linecap="round" stroke-linejoin="round" stroke="rgb(0%, 0%, 0%)" stroke-opacity="1" stroke-miterlimit="10" d="M 52.140323 223.749595 L 52.140323 223.749595 " transform="matrix(0.0996567, 0, 0, -0.0996567, 0.374179, 199.622369)"/>
<path fill="none" stroke-width="43.5898" stroke-linecap="round" stroke-linejoin="round" stroke="rgb(0%, 0%, 0%)" stroke-opacity="1" stroke-miterlimit="10" d="M 2048.485636 915.146484 L 2048.485636 915.146484 " transform="matrix(0.0996567, 0, 0, -0.0996567, 0.374179, 199.622369)"/>
<path fill="none" stroke-width="5" stroke-linecap="round" stroke-linejoin="round" stroke="rgb(0%, 0%, 0%)" stroke-opacity="1" stroke-miterlimit="10" d="M 1230.599844 1434.977855 C 1230.599844 1528.384442 1154.871129 1604.113156 1061.464542 1604.113156 C 968.057955 1604.113156 892.329241 1528.384442 892.329241 1434.977855 C 892.329241 1341.571268 968.057955 1265.842554 1061.464542 1265.842554 C 1154.871129 1265.842554 1230.599844 1341.571268 1230.599844 1434.977855 C 1230.599844 1440.622231 1230.325464 1446.266607 1229.737508 1451.871787 " transform="matrix(0.0996567, 0, 0, -0.0996567, 0.374179, 199.622369)"/>
<path fill="none" stroke-width="5" stroke-linecap="round" stroke-linejoin="round" stroke="rgb(0%, 0%, 0%)" stroke-opacity="1" stroke-miterlimit="10" d="M 1276.421203 1009.376209 C 1276.421203 1149.701674 1162.671344 1263.412336 1022.385077 1263.412336 C 882.098809 1263.412336 768.34895 1149.701674 768.34895 1009.376209 C 768.34895 869.089942 882.098809 755.340083 1022.385077 755.340083 C 1162.671344 755.340083 1276.421203 869.089942 1276.421203 1009.376209 C 1276.421203 1017.842774 1276.029233 1026.309338 1275.166898 1034.736705 " transform="matrix(0.0996567, 0, 0, -0.0996567, 0.374179, 199.622369)"/>
<path fill="none" stroke-width="5" stroke-linecap="round" stroke-linejoin="round" stroke="rgb(0%, 0%, 0%)" stroke-opacity="1" stroke-miterlimit="10" d="M 1469.153133 991.149578 C 1469.153133 1128.221686 1358.029476 1239.38454 1220.918171 1239.38454 C 1083.846062 1239.38454 972.683208 1128.221686 972.683208 991.149578 C 972.683208 854.077469 1083.846062 742.914615 1220.918171 742.914615 C 1358.029476 742.914615 1469.153133 854.077469 1469.153133 991.149578 C 1469.153133 999.420157 1468.721965 1007.690736 1467.898827 1015.922118 " transform="matrix(0.0996567, 0, 0, -0.0996567, 0.374179, 199.622369)"/>
<path fill="none" stroke-width="5" stroke-linecap="round" stroke-linejoin="round" stroke="rgb(0%, 0%, 0%)" stroke-opacity="1" stroke-miterlimit="10" d="M 1423.331773 1416.712026 C 1423.331773 1506.943652 1350.229262 1580.046163 1260.036834 1580.046163 C 1169.844405 1580.046163 1096.702697 1506.943652 1096.702697 1416.712026 C 1096.702697 1326.558795 1169.844405 1253.417087 1260.036834 1253.417087 C 1350.229262 1253.417087 1423.331773 1326.558795 1423.331773 1416.712026 C 1423.331773 1422.160417 1423.057394 1427.608808 1422.508635 1433.057199 " transform="matrix(0.0996567, 0, 0, -0.0996567, 0.374179, 199.622369)"/>
</svg>
