<?xml version="1.0" encoding="UTF-8"?>
<svg xmlns="http://www.w3.org/2000/svg" xmlns:xlink="http://www.w3.org/1999/xlink" width="230.38" height="166.81" viewBox="0 0 230.38 166.81">
<defs>
<clipPath id="clip-0">
<path clip-rule="nonzero" d="M 0 56 L 229.761719 56 L 229.761719 58 L 0 58 Z M 0 56 "/>
</clipPath>
<clipPath id="clip-1">
<path clip-rule="nonzero" d="M 58 0.128906 L 59 0.128906 L 59 166.492188 L 58 166.492188 Z M 58 0.128906 "/>
</clipPath>
</defs>
<g clip-path="url(#clip-0)">
<path fill="none" stroke-width="2.5" stroke-linecap="round" stroke-linejoin="round" stroke="rgb(0%, 0%, 0%)" stroke-opacity="1" stroke-miterlimit="10" d="M 0.430844 1098.878971 L 2303.330537 1098.878971 " transform="matrix(0.0997316, 0, 0, -0.0997316, 0.000000000000004774, 166.491397)"/>
</g>
<g clip-path="url(#clip-1)">
<path fill="none" stroke-width="2.5" stroke-linecap="round" stroke-linejoin="round" stroke="rgb(0%, 0%, 0%)" stroke-opacity="1" stroke-miterlimit="10" d="M 584.811812 -0.00792224 L 584.811812 1668.141236 " transform="matrix(0.0997316, 0, 0, -0.0997316, 0.000000000000004774, 166.491397)"/>
</g>
<path fill="none" stroke-width="5" stroke-linecap="round" stroke-linejoin="round" stroke="rgb(100%, 0%, 0%)" stroke-opacity="1" stroke-miterlimit="10" d="M 584.811812 1098.878971 L 588.924413 1098.839804 L 592.645337 1098.800636 L 596.953776 1098.722301 L 601.066377 1098.604798 L 608.312387 1098.330624 L 616.145912 1097.899781 L 624.801958 1097.351434 L 633.967182 1096.568081 L 650.339249 1094.766371 L 667.220496 1092.416313 L 682.926713 1089.674579 L 718.373414 1081.723551 L 753.820115 1071.148292 L 785.585059 1059.31967 L 853.85423 1025.400506 L 908.728073 988.23043 L 962.818563 940.171754 L 1007.626327 888.157147 L 1047.538137 826.781479 L 1063.949372 794.820697 L 1079.185578 759.060655 L 1090.230848 727.334878 L 1100.022755 691.809842 L 1103.782847 674.811093 L 1107.151262 656.480644 L 1109.579655 640.539421 L 1111.655539 623.148995 L 1112.595562 612.926245 L 1113.261412 603.486847 L 1113.770591 594.399958 L 1114.005597 589.817346 L 1114.162267 584.764722 L 1114.27977 580.221278 L 1114.358105 576.06951 L 1114.397273 571.486897 L 1114.397273 566.66928 L 1114.358105 562.400008 L 1114.27977 557.856564 L 1114.162267 553.587293 L 1114.005597 549.67053 L 1113.653088 541.601999 L 1113.104741 532.750116 L 1111.577204 514.889679 L 1109.618823 498.400109 L 1107.307933 483.007232 L 1100.453598 448.696392 L 1090.583357 412.348836 L 1078.98974 378.938852 " transform="matrix(0.0997316, 0, 0, -0.0997316, 0.000000000000004774, 166.491397)"/>
<path fill="none" stroke-width="5" stroke-linecap="round" stroke-linejoin="round" stroke="rgb(100%, 0%, 0%)" stroke-opacity="1" stroke-miterlimit="10" d="M 1078.98974 378.938852 L 1063.831869 343.492151 L 1029.756035 282.116482 L 988.747531 226.850963 L 937.63378 174.366345 L 878.412331 128.540224 L 817.310836 93.485199 L 786.094238 79.463189 L 752.292578 66.890382 L 719.900952 57.215978 L 689.937718 50.244141 L 657.232751 44.682338 L 639.058973 42.528119 L 630.716269 41.705599 L 621.864386 41.000581 L 614.305034 40.53057 L 610.270769 40.334732 L 605.923162 40.138894 L 601.928065 40.021391 L 598.285475 39.903888 L 594.838724 39.825553 L 591.156968 39.747217 L 578.858333 39.747217 L 575.215744 39.786385 L 570.907305 39.903888 L 566.246358 40.060558 L 557.786151 40.413067 L 549.56095 40.922246 L 540.709066 41.548928 L 524.767843 43.154801 L 505.889047 45.622361 L 488.772795 48.520765 L 451.876892 56.667631 L 417.566053 66.851214 L 353.29198 93.015188 L 297.282275 124.584294 L 244.875993 163.203572 L 193.018057 212.985624 L 150.91286 265.705247 L 113.390275 328.060107 L 85.737932 392.216677 L 75.084338 425.783332 L 70.070882 444.9363 L 65.997449 463.188414 L 62.824871 480.06966 L 60.004802 498.517612 L 58.007253 515.359691 L 56.636386 530.909238 L 56.088039 539.643618 " transform="matrix(0.0997316, 0, 0, -0.0997316, 0.000000000000004774, 166.491397)"/>
<path fill="none" stroke-width="5" stroke-linecap="round" stroke-linejoin="round" stroke="rgb(100%, 0%, 0%)" stroke-opacity="1" stroke-miterlimit="10" d="M 56.088039 539.643618 L 55.696363 547.790484 L 55.539693 552.451432 L 55.383022 556.75987 L 55.343854 559.109928 L 55.304687 561.694991 L 55.265519 564.162552 L 55.265519 573.75862 L 55.304687 575.952007 L 55.383022 580.18211 L 55.500525 584.608052 L 55.657195 589.386502 L 55.853034 593.890779 L 56.40138 604.035194 L 57.06723 613.122083 L 57.850582 621.464787 L 60.043969 640.38275 L 62.550697 656.989823 L 65.80161 674.497752 L 72.812615 704.53932 L 82.565354 737.126785 L 108.02431 799.71665 L 144.136861 862.972364 L 186.751237 918.551225 L 239.079184 970.40916 L 294.148865 1011.926843 L 349.766893 1043.848458 L 383.29438 1059.006329 L 415.842677 1071.148292 L 446.001748 1080.352684 L 478.510877 1088.068707 L 504.635683 1092.729654 L 519.558549 1094.805538 L 533.580558 1096.372243 L 546.466707 1097.468937 L 558.256162 1098.173954 L 564.757988 1098.448127 L 568.204739 1098.56563 L 571.886496 1098.683133 L 575.411582 1098.761468 L 578.58416 1098.800636 L 581.795905 1098.839804 L 584.811812 1098.878971 " transform="matrix(0.0997316, 0, 0, -0.0997316, 0.000000000000004774, 166.491397)"/>
<path fill="none" stroke-width="5" stroke-linecap="round" stroke-linejoin="round" stroke="rgb(0%, 0%, 0%)" stroke-opacity="1" stroke-miterlimit="10" d="M 584.811812 1098.878971 L 584.811812 1098.918139 L 584.85098 1098.957306 L 584.85098 1099.975665 L 584.890148 1100.87652 L 585.00765 1102.090716 L 585.125153 1103.422416 L 585.555997 1107.417513 L 586.33935 1112.705143 L 587.396876 1118.619454 L 591.391973 1135.579036 L 597.110447 1154.14449 L 606.314839 1178.154245 L 634.907205 1234.868966 L 678.069928 1298.203016 L 742.579007 1370.153943 L 823.460153 1439.088964 L 917.932465 1500.5038 L 971.592111 1528.54782 L 1034.416982 1556.121828 L 1098.338547 1579.034889 L 1159.126701 1596.425314 L 1224.105791 1610.68233 L 1260.57085 1616.831647 L 1295.54754 1621.453427 L 1328.918356 1624.782675 L 1345.877938 1626.036039 L 1364.600063 1627.132733 L 1380.541286 1627.798582 L 1389.510673 1628.072756 L 1393.779944 1628.151091 L 1397.735874 1628.229426 L 1401.535134 1628.307761 L 1405.021052 1628.346929 L 1408.820312 1628.386097 L 1412.932912 1628.425264 L 1421.158114 1628.425264 L 1425.192379 1628.386097 L 1428.913304 1628.346929 L 1433.300078 1628.268594 L 1437.412678 1628.190258 L 1445.246203 1627.99442 L 1453.628075 1627.759415 L 1462.754132 1627.406906 " transform="matrix(0.0997316, 0, 0, -0.0997316, 0.000000000000004774, 166.491397)"/>
<path fill="none" stroke-width="5" stroke-linecap="round" stroke-linejoin="round" stroke="rgb(0%, 0%, 0%)" stroke-opacity="1" stroke-miterlimit="10" d="M 1462.754132 1627.406906 L 1479.126199 1626.545218 L 1494.323238 1625.566028 L 1528.986586 1622.432618 L 1565.569148 1617.850005 L 1600.702508 1612.249035 L 1638.185925 1604.885521 L 1704.496715 1588.278448 L 1767.674094 1567.911283 L 1831.203982 1542.608997 L 1935.938212 1488.557675 L 2031.350547 1422.481891 L 2105.886538 1354.956905 L 2166.087178 1283.867665 L 2206.312329 1220.925291 L 2230.517921 1169.615702 L 2238.273111 1147.760167 L 2243.717411 1128.646366 L 2245.323284 1121.557026 L 2246.615815 1114.937697 L 2247.399168 1110.080912 L 2247.947515 1105.772473 L 2248.260856 1102.717398 L 2248.417526 1100.680682 L 2248.456694 1099.858162 L 2248.495861 1099.348983 L 2248.495861 1098.878971 " transform="matrix(0.0997316, 0, 0, -0.0997316, 0.000000000000004774, 166.491397)"/>
<path fill="none" stroke-width="69.0868" stroke-linecap="round" stroke-linejoin="round" stroke="rgb(100%, 0%, 0%)" stroke-opacity="1" stroke-miterlimit="10" d="M 584.811812 1098.878971 L 584.811812 1098.878971 " transform="matrix(0.0997316, 0, 0, -0.0997316, 0.000000000000004774, 166.491397)"/>
</svg>
