<?xml version="1.0" encoding="UTF-8"?>
<svg xmlns="http://www.w3.org/2000/svg" xmlns:xlink="http://www.w3.org/1999/xlink" width="228" height="200.63" viewBox="0 0 228 200.63">
<defs>
<clipPath id="clip-0">
<path clip-rule="nonzero" d="M 0.210938 100 L 227.789062 100 L 227.789062 101 L 0.210938 101 Z M 0.210938 100 "/>
</clipPath>
<clipPath id="clip-1">
<path clip-rule="nonzero" d="M 110 0 L 111 0 L 111 200.261719 L 110 200.261719 Z M 110 0 "/>
</clipPath>
</defs>
<g clip-path="url(#clip-0)">
<path fill="none" stroke-width="2.5" stroke-linecap="round" stroke-linejoin="round" stroke="rgb(0%, 0%, 0%)" stroke-opacity="1" stroke-miterlimit="10" d="M 0.0891567 1003.125235 L 2279.910843 1003.125235 " transform="matrix(0.0998159, 0, 0, -0.0998159, 0.209851, 200.260681)"/>
</g>
<g clip-path="url(#clip-1)">
<path fill="none" stroke-width="2.5" stroke-linecap="round" stroke-linejoin="round" stroke="rgb(0%, 0%, 0%)" stroke-opacity="1" stroke-miterlimit="10" d="M 1103.213534 -0.0103957 L 1103.213534 2006.260865 " transform="matrix(0.0998159, 0, 0, -0.0998159, 0.209851, 200.260681)"/>
</g>
<path fill="none" stroke-width="5" stroke-linecap="round" stroke-linejoin="round" stroke="rgb(100%, 0%, 0%)" stroke-opacity="1" stroke-miterlimit="10" d="M 735.505408 1003.125235 L 2206.377045 1003.125235 " transform="matrix(0.0998159, 0, 0, -0.0998159, 0.209851, 200.260681)"/>
<path fill="none" stroke-width="5" stroke-linecap="round" stroke-linejoin="round" stroke="rgb(100%, 0%, 0%)" stroke-opacity="1" stroke-miterlimit="10" d="M 735.505408 1003.125235 L 750.024322 1147.76649 L 2162.7029 1006.021191 " transform="matrix(0.0998159, 0, 0, -0.0998159, 0.209851, 200.260681)"/>
<path fill="none" stroke-width="5" stroke-linecap="round" stroke-linejoin="round" stroke="rgb(100%, 0%, 0%)" stroke-opacity="1" stroke-miterlimit="10" d="M 735.505408 1003.125235 L 791.272126 1278.201907 L 2036.807089 1025.744998 " transform="matrix(0.0998159, 0, 0, -0.0998159, 0.209851, 200.260681)"/>
<path fill="none" stroke-width="5" stroke-linecap="round" stroke-linejoin="round" stroke="rgb(100%, 0%, 0%)" stroke-opacity="1" stroke-miterlimit="10" d="M 735.505408 1003.125235 L 852.752486 1382.104108 L 1843.443333 1075.641535 " transform="matrix(0.0998159, 0, 0, -0.0998159, 0.209851, 200.260681)"/>
<path fill="none" stroke-width="5" stroke-linecap="round" stroke-linejoin="round" stroke="rgb(100%, 0%, 0%)" stroke-opacity="1" stroke-miterlimit="10" d="M 735.505408 1003.125235 L 924.720903 1450.706954 L 1604.879185 1163.146364 " transform="matrix(0.0998159, 0, 0, -0.0998159, 0.209851, 200.260681)"/>
<path fill="none" stroke-width="5" stroke-linecap="round" stroke-linejoin="round" stroke="rgb(100%, 0%, 0%)" stroke-opacity="1" stroke-miterlimit="10" d="M 735.505408 1003.125235 L 995.906628 1479.744782 L 1347.569593 1287.633331 " transform="matrix(0.0998159, 0, 0, -0.0998159, 0.209851, 200.260681)"/>
<path fill="none" stroke-width="5" stroke-linecap="round" stroke-linejoin="round" stroke="rgb(100%, 0%, 0%)" stroke-opacity="1" stroke-miterlimit="10" d="M 735.505408 1003.125235 L 1054.921513 1470.039416 L 1098.556524 1440.218898 " transform="matrix(0.0998159, 0, 0, -0.0998159, 0.209851, 200.260681)"/>
<path fill="none" stroke-width="5" stroke-linecap="round" stroke-linejoin="round" stroke="rgb(100%, 0%, 0%)" stroke-opacity="1" stroke-miterlimit="10" d="M 735.505408 1003.125235 L 1092.608074 1427.069693 L 881.751179 1604.662229 " transform="matrix(0.0998159, 0, 0, -0.0998159, 0.209851, 200.260681)"/>
<path fill="none" stroke-width="5" stroke-linecap="round" stroke-linejoin="round" stroke="rgb(100%, 0%, 0%)" stroke-opacity="1" stroke-miterlimit="10" d="M 735.505408 1003.125235 L 1102.900457 1359.953959 L 714.685833 1759.713272 " transform="matrix(0.0998159, 0, 0, -0.0998159, 0.209851, 200.260681)"/>
<path fill="none" stroke-width="5" stroke-linecap="round" stroke-linejoin="round" stroke="rgb(100%, 0%, 0%)" stroke-opacity="1" stroke-miterlimit="10" d="M 735.505408 1003.125235 L 1084.272417 1279.884693 L 606.36143 1882.04784 " transform="matrix(0.0998159, 0, 0, -0.0998159, 0.209851, 200.260681)"/>
<path fill="none" stroke-width="5" stroke-linecap="round" stroke-linejoin="round" stroke="rgb(100%, 0%, 0%)" stroke-opacity="1" stroke-miterlimit="10" d="M 735.505408 1003.125235 L 1039.541639 1198.328314 L 556.817104 1950.141937 " transform="matrix(0.0998159, 0, 0, -0.0998159, 0.209851, 200.260681)"/>
<path fill="none" stroke-width="5" stroke-linecap="round" stroke-linejoin="round" stroke="rgb(100%, 0%, 0%)" stroke-opacity="1" stroke-miterlimit="10" d="M 735.505408 1003.125235 L 975.869745 1125.459803 L 557.404122 1947.676461 " transform="matrix(0.0998159, 0, 0, -0.0998159, 0.209851, 200.260681)"/>
<path fill="none" stroke-width="5" stroke-linecap="round" stroke-linejoin="round" stroke="rgb(100%, 0%, 0%)" stroke-opacity="1" stroke-miterlimit="10" d="M 735.505408 1003.125235 L 903.275175 1068.362511 L 593.094822 1866.198351 " transform="matrix(0.0998159, 0, 0, -0.0998159, 0.209851, 200.260681)"/>
<path fill="none" stroke-width="5" stroke-linecap="round" stroke-linejoin="round" stroke="rgb(100%, 0%, 0%)" stroke-opacity="1" stroke-miterlimit="10" d="M 735.505408 1003.125235 L 833.224351 1030.24547 L 645.300296 1707.116452 " transform="matrix(0.0998159, 0, 0, -0.0998159, 0.209851, 200.260681)"/>
<path fill="none" stroke-width="5" stroke-linecap="round" stroke-linejoin="round" stroke="rgb(100%, 0%, 0%)" stroke-opacity="1" stroke-miterlimit="10" d="M 735.505408 1003.125235 L 776.792346 1010.247721 L 695.470775 1481.62324 " transform="matrix(0.0998159, 0, 0, -0.0998159, 0.209851, 200.260681)"/>
<path fill="none" stroke-width="5" stroke-linecap="round" stroke-linejoin="round" stroke="rgb(100%, 0%, 0%)" stroke-opacity="1" stroke-miterlimit="10" d="M 735.505408 1003.125235 L 742.823567 1003.633984 L 728.226384 1209.67733 " transform="matrix(0.0998159, 0, 0, -0.0998159, 0.209851, 200.260681)"/>
<path fill="none" stroke-width="5" stroke-linecap="round" stroke-linejoin="round" stroke="rgb(0%, 0%, 0%)" stroke-opacity="1" stroke-miterlimit="10" d="M 735.505408 1003.125235 L 735.544543 1008.838878 L 735.583677 1014.004637 L 735.701081 1019.992221 L 735.857619 1025.666729 L 736.248964 1035.724306 L 736.796848 1046.603707 L 737.618673 1058.578876 L 738.675306 1071.219332 L 741.140782 1093.799961 L 744.388948 1116.850204 L 748.145864 1138.217662 L 758.868728 1185.570454 L 772.957162 1231.670941 L 788.337035 1271.509901 L 809.000072 1314.597028 L 830.406664 1350.835611 L 873.063312 1405.976176 L 896.974515 1429.261227 L 922.842445 1449.415514 L 947.653742 1464.090966 L 961.468234 1470.352492 L 973.952152 1474.774695 L 984.675016 1477.670651 L 990.6626 1478.883822 L 996.141436 1479.744782 L 999.115661 1480.136127 L 1001.855078 1480.410069 L 1004.359689 1480.566607 L 1006.981703 1480.723145 L 1008.351412 1480.76228 L 1009.877659 1480.801414 L 1012.891018 1480.801414 L 1015.434763 1480.723145 L 1016.882741 1480.644876 L 1018.213316 1480.566607 L 1020.796195 1480.370934 L 1023.222537 1480.096993 L 1027.683874 1479.47084 L 1032.419153 1478.531611 L 1037.38924 1477.279306 L 1045.998838 1474.344215 L 1053.473535 1470.861241 L 1061.10477 1466.243366 L 1068.892543 1460.216647 L 1076.288971 1452.937623 L 1082.393959 1445.267253 L 1087.637987 1437.049 L 1092.49067 1427.3045 " transform="matrix(0.0998159, 0, 0, -0.0998159, 0.209851, 200.260681)"/>
<path fill="none" stroke-width="5" stroke-linecap="round" stroke-linejoin="round" stroke="rgb(0%, 0%, 0%)" stroke-opacity="1" stroke-miterlimit="10" d="M 1092.49067 1427.3045 L 1096.28672 1417.364327 L 1099.065273 1407.580692 L 1100.239309 1402.375799 L 1101.139403 1397.405712 L 1101.843825 1392.748702 L 1102.391708 1387.739481 L 1102.66565 1385.117467 L 1102.861323 1382.182377 L 1103.017861 1379.482094 L 1103.135265 1376.977483 L 1103.213534 1373.964124 L 1103.213534 1368.015674 L 1103.135265 1364.96318 L 1103.017861 1362.106358 L 1102.861323 1359.053864 L 1102.430843 1353.457625 L 1101.726421 1346.726485 L 1100.904596 1340.464959 L 1098.556524 1327.394023 L 1095.308357 1313.383858 L 1087.872794 1289.590058 L 1077.2282 1263.369917 L 1047.799027 1210.420886 L 1006.981703 1157.393586 L 958.494009 1109.845122 L 909.888912 1072.745579 L 862.18391 1044.216501 L 821.718797 1025.392787 L 786.458577 1012.948004 L 769.943802 1008.525801 L 757.185942 1005.786384 L 751.824511 1004.886289 L 746.81529 1004.103598 L 743.136643 1003.673118 L 740.00588 1003.399177 L 737.892615 1003.242639 L 736.99252 1003.164369 L 736.327233 1003.125235 L 735.505408 1003.125235 L 736.248964 1003.125235 L 736.796848 1003.0861 " transform="matrix(0.0998159, 0, 0, -0.0998159, 0.209851, 200.260681)"/>
<path fill="none" stroke-width="5" stroke-linecap="round" stroke-linejoin="round" stroke="rgb(0%, 0%, 0%)" stroke-opacity="1" stroke-miterlimit="10" d="M 736.796848 1003.0861 L 737.540404 1003.046966 L 739.692804 1002.929562 L 742.823567 1002.616486 L 750.689609 1001.559853 L 760.277571 999.837934 L 788.102228 992.793717 L 807.630363 986.297383 L 827.745516 978.353072 L 869.736876 958.003112 L 918.459376 927.63471 L 969.803891 886.42604 L 1014.534669 840.129881 L 1052.182095 789.020174 L 1067.992449 761.704266 L 1081.963479 732.001151 L 1092.099325 704.05909 L 1095.777971 690.94902 L 1098.556524 679.012985 L 1100.669789 667.194355 L 1101.530748 661.050232 L 1102.274305 654.632168 L 1102.509112 651.931885 L 1102.743919 649.075063 L 1102.861323 646.648722 L 1103.056995 643.987573 L 1103.135265 641.013348 L 1103.213534 637.960854 L 1103.213534 632.521153 L 1103.135265 629.468659 L 1103.056995 627.942412 L 1103.017861 626.259627 L 1102.822188 623.324537 L 1102.626516 620.585119 L 1101.961228 614.519266 L 1101.021999 608.17947 L 1099.926232 602.348424 L 1098.673927 596.986992 L 1095.777971 587.320761 L 1092.294997 578.437221 L 1088.498947 570.727717 L 1077.893487 555.15217 L 1071.27975 548.186222 L 1063.335439 541.572485 L 1055.195455 536.328457 L 1047.13374 532.375869 L 1039.385101 529.558182 L 1034.80636 528.266742 L 1030.423292 527.288379 L 1025.688012 526.466553 " transform="matrix(0.0998159, 0, 0, -0.0998159, 0.209851, 200.260681)"/>
<path fill="none" stroke-width="5" stroke-linecap="round" stroke-linejoin="round" stroke="rgb(0%, 0%, 0%)" stroke-opacity="1" stroke-miterlimit="10" d="M 1025.688012 526.466553 L 1021.304944 525.957804 L 1018.839468 525.722997 L 1016.10005 525.566459 L 1013.517171 525.449055 L 1011.09083 525.449055 L 1008.468815 525.48819 L 1005.964205 525.566459 L 1003.655267 525.722997 L 1001.150657 525.91867 L 998.411239 526.192612 L 995.476149 526.583957 L 990.114717 527.444917 L 979.352719 529.871258 L 969.373411 532.923752 L 957.359108 537.619897 L 944.170768 543.959692 L 919.985623 558.830817 L 896.974515 576.950108 L 872.163217 601.252657 L 846.92144 631.738463 L 825.201771 663.554843 L 788.141363 735.249317 L 771.274376 779.510481 L 758.007768 823.967317 L 748.224133 867.563193 L 744.310679 890.065553 L 740.788571 915.268195 L 738.479633 936.909595 L 737.501269 949.119571 L 736.757713 960.390319 L 736.248964 970.291357 L 736.014157 976.005 L 735.818484 981.170759 L 735.701081 986.688729 L 735.583677 992.519775 L 735.544543 997.99861 L 735.505408 1003.125235 " transform="matrix(0.0998159, 0, 0, -0.0998159, 0.209851, 200.260681)"/>
<path fill="none" stroke-width="5" stroke-linecap="round" stroke-linejoin="round" stroke="rgb(0%, 0%, 0%)" stroke-opacity="1" stroke-dasharray="113.993 45.5971" stroke-miterlimit="10" d="M 2206.377045 1003.125235 L 2205.359547 1003.125235 L 2204.224645 1003.164369 L 2202.54186 1003.203504 L 2200.076384 1003.281773 L 2196.867352 1003.399177 L 2189.470924 1003.829657 L 2179.648155 1004.534078 L 2168.416543 1005.473307 L 2135.856606 1009.112819 L 2093.004286 1015.41348 L 2045.808033 1023.944809 L 1914.629059 1054.939364 L 1777.658174 1097.087262 L 1611.375519 1160.406946 L 1266.991578 1333.264203 L 962.094387 1539.698895 L 717.816596 1756.504239 L 585.659259 1908.972402 L 559.165177 1946.502425 L 552.786247 1956.63827 L 552.081825 1957.773172 L 551.69048 1958.399325 L 551.651345 1958.477594 L 551.886152 1958.125383 L 555.290857 1951.785588 L 563.117765 1936.131772 L 589.533579 1875.277564 L 622.210918 1784.054955 L 654.379509 1673.30421 L 686.743773 1529.523915 L 701.458359 1445.306388 L 714.607564 1351.34436 L 723.843315 1263.878666 L 727.952442 1213.747322 L 730.887532 1167.607701 L 733.039932 1124.129229 L 733.940026 1099.474469 L 734.605314 1076.698168 L 735.035794 1056.739553 L 735.192332 1045.390537 L 735.34887 1034.745942 L 735.427139 1023.553464 L 735.466273 1013.26108 L 735.505408 1001.481584 " transform="matrix(0.0998159, 0, 0, -0.0998159, 0.209851, 200.260681)"/>
<path fill="none" stroke-width="5" stroke-linecap="round" stroke-linejoin="round" stroke="rgb(0%, 0%, 0%)" stroke-opacity="1" stroke-dasharray="113.993 45.5971" stroke-dashoffset="69.5982" stroke-miterlimit="10" d="M 735.505408 1001.481584 L 735.466273 990.249972 L 735.388004 978.118265 L 735.34887 971.26972 L 735.270601 965.008194 L 735.114063 953.463505 L 734.879255 941.331798 L 734.331372 920.238282 L 733.587816 897.188039 L 731.318012 846.313138 L 728.422056 799.312557 L 721.377839 716.190797 L 711.437667 629.899139 L 698.327596 541.455082 L 681.695417 451.210836 L 647.296158 306.295639 L 612.192477 192.179324 L 579.358599 106.200742 L 558.265082 60.256794 L 553.33413 50.82537 L 552.003556 48.438163 L 551.69048 47.851145 L 551.651345 47.772876 L 551.651345 47.812011 L 551.768749 47.929414 L 551.925287 48.281625 L 552.47317 49.142585 L 554.312494 52.155944 L 562.256805 64.36592 L 597.790966 113.284094 L 741.571261 273.735703 L 971.525811 473.869733 L 1288.789516 685.665857 L 1618.302332 848.73948 L 1787.754885 912.607047 L 1930.869893 955.694174 L 2048.390912 982.814409 L 2130.808251 996.472363 L 2162.428958 1000.190144 L 2184.539973 1002.107737 L 2193.814858 1002.694755 L 2200.076384 1002.968697 L 2202.502726 1003.046966 L 2204.498587 1003.0861 L 2205.242143 1003.125235 L 2206.377045 1003.125235 " transform="matrix(0.0998159, 0, 0, -0.0998159, 0.209851, 200.260681)"/>
<path fill="none" stroke-width="113.993" stroke-linecap="round" stroke-linejoin="round" stroke="rgb(0%, 0%, 0%)" stroke-opacity="1" stroke-dasharray="113.993 45.5971" stroke-miterlimit="10" d="M 735.505408 1003.125235 L 735.505408 1003.125235 " transform="matrix(0.0998159, 0, 0, -0.0998159, 0.209851, 200.260681)"/>
</svg>
