<?xml version="1.0" encoding="UTF-8"?>
<svg xmlns="http://www.w3.org/2000/svg" xmlns:xlink="http://www.w3.org/1999/xlink" width="176.25" height="203.5" viewBox="0 0 176.25 203.5">
<defs>
<clipPath id="clip-0">
<path clip-rule="nonzero" d="M 0 101 L 175.503906 101 L 175.503906 102 L 0 102 Z M 0 101 "/>
</clipPath>
<clipPath id="clip-1">
<path clip-rule="nonzero" d="M 59 0.183594 L 61 0.183594 L 61 202.820312 L 59 202.820312 Z M 59 0.183594 "/>
</clipPath>
</defs>
<g clip-path="url(#clip-0)">
<path fill="none" stroke-width="2.5" stroke-linecap="round" stroke-linejoin="round" stroke="rgb(0%, 0%, 0%)" stroke-opacity="1" stroke-miterlimit="10" d="M 0.0784574 1017.510638 L 1762.428856 1017.510638 " transform="matrix(0.0995763, 0, 0, -0.0995763, -0.000000000000000999, 202.819915)"/>
</g>
<g clip-path="url(#clip-1)">
<path fill="none" stroke-width="2.5" stroke-linecap="round" stroke-linejoin="round" stroke="rgb(0%, 0%, 0%)" stroke-opacity="1" stroke-miterlimit="10" d="M 601.494016 -0.00398936 L 601.494016 2034.986037 " transform="matrix(0.0995763, 0, 0, -0.0995763, -0.000000000000000999, 202.819915)"/>
</g>
<path fill="none" stroke-width="5" stroke-linecap="round" stroke-linejoin="round" stroke="rgb(100%, 0%, 0%)" stroke-opacity="1" stroke-miterlimit="10" d="M 725.849069 1017.510638 L 725.849069 1024.885638 L 725.888298 1028.926197 L 725.966755 1032.731383 L 726.084441 1039.557181 L 726.280585 1046.932181 L 726.555186 1055.013298 L 726.908245 1063.56516 L 727.732048 1078.825133 L 728.830452 1094.438165 L 730.085771 1108.835106 L 733.616356 1140.884973 L 738.166888 1172.071809 L 742.992021 1198.982713 L 755.545213 1252.647606 L 766.921543 1289.914894 L 778.023271 1319.297207 L 785.829787 1336.44016 L 787.634309 1339.853059 L 787.948138 1340.441489 L 787.987367 1340.480718 L 787.987367 1340.559176 L 787.987367 1340.480718 L 787.948138 1340.441489 L 787.59508 1339.81383 L 786.771277 1338.519282 L 783.554521 1333.615691 L 772.099734 1318.00266 L 722.514628 1262.886303 L 643.272606 1194.314495 L 534.37367 1122.329787 L 476.079787 1091.613697 L 421.944149 1067.488032 L 372.359043 1048.893617 L 325.363032 1034.535904 L 284.329787 1024.84641 L 255.65359 1019.982048 L 244.669548 1018.648271 L 239.805186 1018.177527 L 236 1017.863697 L 233.136303 1017.667553 L 231.920213 1017.628324 L 230.821809 1017.549867 L 230.037234 1017.549867 L 229.409574 1017.510638 L 228.585771 1017.510638 " transform="matrix(0.0995763, 0, 0, -0.0995763, -0.000000000000000999, 202.819915)"/>
<path fill="none" stroke-width="5" stroke-linecap="round" stroke-linejoin="round" stroke="rgb(100%, 0%, 0%)" stroke-opacity="1" stroke-miterlimit="10" d="M 228.585771 1017.510638 L 228.507314 1017.510638 L 229.056516 1017.510638 L 229.331117 1017.47141 L 230.037234 1017.47141 L 231.135638 1017.432181 L 233.763963 1017.314495 L 237.373005 1017.039894 L 241.609707 1016.686835 L 251.730718 1015.588431 L 264.676197 1013.705452 L 281.269947 1010.763298 L 317.634973 1002.525266 L 363.84641 988.952128 L 412.450798 971.37766 L 523.075798 919.046543 L 634.603059 847.21875 L 718.787899 775.822473 L 768.804521 721.176862 L 782.887633 702.347074 L 786.300532 697.208112 L 787.791223 694.81516 L 787.948138 694.579787 L 787.987367 694.50133 L 787.987367 694.540559 L 787.791223 694.81516 L 786.222074 697.835771 L 779.827793 711.526596 L 769.236037 738.476729 L 757.859707 774.09641 L 746.914894 817.444149 L 741.775931 842.472074 L 736.833112 871.383644 L 732.674867 901.628989 L 729.654255 930.540559 L 728.477394 945.133644 L 727.575133 958.902926 L 726.829787 973.417553 L 726.476729 981.106383 L 726.241356 989.344415 L 726.045213 996.287899 L 725.966755 999.975399 L 725.927527 1003.819814 L 725.888298 1007.193484 " transform="matrix(0.0995763, 0, 0, -0.0995763, -0.000000000000000999, 202.819915)"/>
<path fill="none" stroke-width="5" stroke-linecap="round" stroke-linejoin="round" stroke="rgb(100%, 0%, 0%)" stroke-opacity="1" stroke-miterlimit="10" d="M 725.888298 1007.193484 L 725.849069 1010.920213 L 725.849069 1017.510638 " transform="matrix(0.0995763, 0, 0, -0.0995763, -0.000000000000000999, 202.819915)"/>
<path fill="none" stroke-width="5" stroke-linecap="round" stroke-linejoin="round" stroke="rgb(0%, 0%, 0%)" stroke-opacity="1" stroke-miterlimit="10" d="M 1720.493351 1017.510638 L 1719.434176 1017.510638 L 1718.257314 1017.549867 L 1716.570479 1017.589096 L 1714.099069 1017.667553 L 1710.843085 1017.824468 L 1703.31117 1018.216755 L 1693.347074 1018.922872 L 1681.970745 1019.90359 L 1648.979388 1023.59109 L 1605.474734 1029.946144 L 1557.615691 1038.615691 L 1424.551862 1070.037899 L 1285.603723 1112.797207 L 1116.959441 1177.014628 L 767.666888 1352.40625 L 458.348404 1561.769947 L 210.540559 1781.646941 L 76.496011 1936.325798 L 49.663564 1974.416888 L 43.151596 1984.655585 L 42.445479 1985.832447 L 42.09242 1986.460106 L 42.013963 1986.538564 L 42.249335 1986.185505 L 45.701463 1979.751995 L 53.625665 1963.864362 L 80.458112 1902.15758 L 113.606383 1809.617021 L 146.244681 1697.305186 L 179.039894 1551.452793 L 193.986037 1466.051862 L 207.284574 1370.726064 L 216.699468 1281.990691 L 220.818484 1231.111037 L 223.839096 1184.350399 L 225.996676 1140.257314 L 226.898936 1115.268617 L 227.605053 1092.12367 L 228.036569 1071.881649 L 228.193484 1060.387633 L 228.350399 1049.560505 L 228.468085 1038.184176 L 228.507314 1027.827793 L 228.507314 1015.823803 " transform="matrix(0.0995763, 0, 0, -0.0995763, -0.000000000000000999, 202.819915)"/>
<path fill="none" stroke-width="5" stroke-linecap="round" stroke-linejoin="round" stroke="rgb(0%, 0%, 0%)" stroke-opacity="1" stroke-miterlimit="10" d="M 228.507314 1015.823803 L 228.468085 1004.447473 L 228.428856 992.129654 L 228.350399 985.225399 L 228.271941 978.870346 L 228.075798 967.140957 L 227.879654 954.823138 L 227.330452 933.443484 L 226.585106 910.063165 L 224.270612 858.438165 L 221.328457 810.775266 L 214.18883 726.433511 L 204.107048 638.914229 L 190.769282 549.198138 L 173.900931 457.677527 L 139.026596 310.6875 L 103.406915 194.962766 L 70.101729 107.718085 L 48.722074 61.114362 L 43.740027 51.542553 L 42.40625 49.110372 L 42.09242 48.521941 L 42.013963 48.443484 L 42.053191 48.482713 L 42.131649 48.639628 L 42.327793 48.953457 L 42.837766 49.855718 L 44.720745 52.915559 L 52.762633 65.272606 L 88.853059 114.896941 L 234.666223 277.656915 L 467.920213 480.665559 L 789.75266 695.521277 L 1123.942154 860.909574 L 1295.84242 925.676197 L 1441.027926 969.376995 L 1560.244016 996.915559 L 1643.801197 1010.763298 L 1675.890293 1014.529255 L 1698.329122 1016.451463 L 1707.704787 1017.039894 L 1714.099069 1017.353723 L 1716.53125 1017.432181 L 1718.531915 1017.47141 L 1719.669548 1017.47141 L 1719.90492 1017.510638 L 1720.493351 1017.510638 " transform="matrix(0.0995763, 0, 0, -0.0995763, -0.000000000000000999, 202.819915)"/>
</svg>
