<?xml version="1.0" encoding="UTF-8"?>
<svg xmlns="http://www.w3.org/2000/svg" xmlns:xlink="http://www.w3.org/1999/xlink" width="336" height="159.87" viewBox="0 0 336 159.87">
<path fill="none" stroke-width="2.5" stroke-linecap="round" stroke-linejoin="round" stroke="rgb(0%, 0%, 0%)" stroke-opacity="1" stroke-miterlimit="10" d="M 81.24007 799.378676 L 1603.883468 799.378676 " transform="matrix(0.0999188, 0, 0, -0.0999188, 0.1365, 159.740106)"/>
<path fill="none" stroke-width="2.5" stroke-linecap="round" stroke-linejoin="round" stroke="rgb(0%, 0%, 0%)" stroke-opacity="1" stroke-miterlimit="10" d="M 842.561769 38.056978 L 842.561769 1560.700375 " transform="matrix(0.0999188, 0, 0, -0.0999188, 0.1365, 159.740106)"/>
<path fill="none" stroke-width="5" stroke-linecap="round" stroke-linejoin="round" stroke="rgb(100%, 0%, 0%)" stroke-opacity="1" stroke-miterlimit="10" d="M 842.561769 1524.420898 L 1567.603991 799.378676 L 842.561769 74.336455 L 117.519547 799.378676 L 842.561769 1524.420898 " transform="matrix(0.0999188, 0, 0, -0.0999188, 0.1365, 159.740106)"/>
<path fill="none" stroke-width="2.5" stroke-linecap="round" stroke-linejoin="round" stroke="rgb(0%, 0%, 0%)" stroke-opacity="1" stroke-miterlimit="10" d="M 1756.116532 799.378676 L 3278.75993 799.378676 " transform="matrix(0.0999188, 0, 0, -0.0999188, 0.1365, 159.740106)"/>
<path fill="none" stroke-width="2.5" stroke-linecap="round" stroke-linejoin="round" stroke="rgb(0%, 0%, 0%)" stroke-opacity="1" stroke-miterlimit="10" d="M 2517.438231 38.056978 L 2517.438231 1560.661281 " transform="matrix(0.0999188, 0, 0, -0.0999188, 0.1365, 159.740106)"/>
<path fill="none" stroke-width="22.8393" stroke-linecap="round" stroke-linejoin="round" stroke="rgb(100%, 0%, 0%)" stroke-opacity="1" stroke-miterlimit="10" d="M 2517.438231 813.882648 L 2531.942203 799.378676 L 2517.438231 784.874704 L 2502.934259 799.378676 L 2517.438231 813.882648 " transform="matrix(0.0999188, 0, 0, -0.0999188, 0.1365, 159.740106)"/>
<path fill="none" stroke-width="22.8393" stroke-linecap="round" stroke-linejoin="round" stroke="rgb(100%, 12.205505%, 0%)" stroke-opacity="1" stroke-miterlimit="10" d="M 2517.438231 828.38662 L 2546.446175 799.378676 L 2517.438231 770.370732 L 2488.430287 799.378676 L 2517.438231 828.38662 " transform="matrix(0.0999188, 0, 0, -0.0999188, 0.1365, 159.740106)"/>
<path fill="none" stroke-width="22.8393" stroke-linecap="round" stroke-linejoin="round" stroke="rgb(100%, 24.510193%, 0%)" stroke-opacity="1" stroke-miterlimit="10" d="M 2517.438231 842.890592 L 2560.950147 799.378676 L 2517.438231 755.86676 L 2473.926315 799.378676 L 2517.438231 842.890592 " transform="matrix(0.0999188, 0, 0, -0.0999188, 0.1365, 159.740106)"/>
<path fill="none" stroke-width="22.8393" stroke-linecap="round" stroke-linejoin="round" stroke="rgb(100%, 36.69281%, 0%)" stroke-opacity="1" stroke-miterlimit="10" d="M 2517.438231 857.394564 L 2575.454119 799.378676 L 2517.438231 741.362789 L 2459.422343 799.378676 L 2517.438231 857.394564 " transform="matrix(0.0999188, 0, 0, -0.0999188, 0.1365, 159.740106)"/>
<path fill="none" stroke-width="22.8393" stroke-linecap="round" stroke-linejoin="round" stroke="rgb(100%, 48.997498%, 0%)" stroke-opacity="1" stroke-miterlimit="10" d="M 2517.438231 871.898536 L 2589.958091 799.378676 L 2517.438231 726.858817 L 2444.918371 799.378676 L 2517.438231 871.898536 " transform="matrix(0.0999188, 0, 0, -0.0999188, 0.1365, 159.740106)"/>
<path fill="none" stroke-width="22.8393" stroke-linecap="round" stroke-linejoin="round" stroke="rgb(100%, 61.131287%, 0%)" stroke-opacity="1" stroke-miterlimit="10" d="M 2517.438231 886.363414 L 2604.422969 799.378676 L 2517.438231 712.393939 L 2430.453493 799.378676 L 2517.438231 886.363414 " transform="matrix(0.0999188, 0, 0, -0.0999188, 0.1365, 159.740106)"/>
<path fill="none" stroke-width="22.8393" stroke-linecap="round" stroke-linejoin="round" stroke="rgb(100%, 73.4375%, 0%)" stroke-opacity="1" stroke-miterlimit="10" d="M 2517.438231 900.90648 L 2618.966035 799.378676 L 2517.438231 697.850873 L 2415.949521 799.378676 L 2517.438231 900.90648 " transform="matrix(0.0999188, 0, 0, -0.0999188, 0.1365, 159.740106)"/>
<path fill="none" stroke-width="22.8393" stroke-linecap="round" stroke-linejoin="round" stroke="rgb(100%, 85.742188%, 0%)" stroke-opacity="1" stroke-miterlimit="10" d="M 2517.438231 915.371358 L 2633.430913 799.378676 L 2517.438231 683.385995 L 2401.44555 799.378676 L 2517.438231 915.371358 " transform="matrix(0.0999188, 0, 0, -0.0999188, 0.1365, 159.740106)"/>
<path fill="none" stroke-width="22.8393" stroke-linecap="round" stroke-linejoin="round" stroke="rgb(100%, 98.046875%, 0%)" stroke-opacity="1" stroke-miterlimit="10" d="M 2517.438231 929.87533 L 2647.934885 799.378676 L 2517.438231 668.882023 L 2386.941578 799.378676 L 2517.438231 929.87533 " transform="matrix(0.0999188, 0, 0, -0.0999188, 0.1365, 159.740106)"/>
<path fill="none" stroke-width="22.8393" stroke-linecap="round" stroke-linejoin="round" stroke="rgb(89.84375%, 100%, 0%)" stroke-opacity="1" stroke-miterlimit="10" d="M 2517.438231 944.379302 L 2662.438857 799.378676 L 2517.438231 654.378051 L 2372.437606 799.378676 L 2517.438231 944.379302 " transform="matrix(0.0999188, 0, 0, -0.0999188, 0.1365, 159.740106)"/>
<path fill="none" stroke-width="22.8393" stroke-linecap="round" stroke-linejoin="round" stroke="rgb(77.539062%, 100%, 0%)" stroke-opacity="1" stroke-miterlimit="10" d="M 2517.438231 958.883274 L 2676.942829 799.378676 L 2517.438231 639.874079 L 2357.933634 799.378676 L 2517.438231 958.883274 " transform="matrix(0.0999188, 0, 0, -0.0999188, 0.1365, 159.740106)"/>
<path fill="none" stroke-width="22.8393" stroke-linecap="round" stroke-linejoin="round" stroke="rgb(65.234375%, 100%, 0%)" stroke-opacity="1" stroke-miterlimit="10" d="M 2517.438231 973.387246 L 2691.446801 799.378676 L 2517.438231 625.370107 L 2343.429662 799.378676 L 2517.438231 973.387246 " transform="matrix(0.0999188, 0, 0, -0.0999188, 0.1365, 159.740106)"/>
<path fill="none" stroke-width="22.8393" stroke-linecap="round" stroke-linejoin="round" stroke="rgb(53.125%, 100%, 0%)" stroke-opacity="1" stroke-miterlimit="10" d="M 2517.438231 987.891218 L 2705.950773 799.378676 L 2517.438231 610.866135 L 2328.92569 799.378676 L 2517.438231 987.891218 " transform="matrix(0.0999188, 0, 0, -0.0999188, 0.1365, 159.740106)"/>
<path fill="none" stroke-width="22.8393" stroke-linecap="round" stroke-linejoin="round" stroke="rgb(40.795898%, 100%, 0%)" stroke-opacity="1" stroke-miterlimit="10" d="M 2517.438231 1002.39519 L 2720.454744 799.378676 L 2517.438231 596.362163 L 2314.421718 799.378676 L 2517.438231 1002.39519 " transform="matrix(0.0999188, 0, 0, -0.0999188, 0.1365, 159.740106)"/>
<path fill="none" stroke-width="22.8393" stroke-linecap="round" stroke-linejoin="round" stroke="rgb(28.588867%, 100%, 0%)" stroke-opacity="1" stroke-miterlimit="10" d="M 2517.438231 1016.899162 L 2734.958716 799.378676 L 2517.438231 581.858191 L 2299.917746 799.378676 L 2517.438231 1016.899162 " transform="matrix(0.0999188, 0, 0, -0.0999188, 0.1365, 159.740106)"/>
<path fill="none" stroke-width="22.8393" stroke-linecap="round" stroke-linejoin="round" stroke="rgb(16.308594%, 100%, 0%)" stroke-opacity="1" stroke-miterlimit="10" d="M 2517.438231 1031.403134 L 2749.462688 799.378676 L 2517.438231 567.354219 L 2285.413774 799.378676 L 2517.438231 1031.403134 " transform="matrix(0.0999188, 0, 0, -0.0999188, 0.1365, 159.740106)"/>
<path fill="none" stroke-width="22.8393" stroke-linecap="round" stroke-linejoin="round" stroke="rgb(4.096985%, 100%, 0%)" stroke-opacity="1" stroke-miterlimit="10" d="M 2517.438231 1045.907106 L 2763.96666 799.378676 L 2517.438231 552.850247 L 2270.948896 799.378676 L 2517.438231 1045.907106 " transform="matrix(0.0999188, 0, 0, -0.0999188, 0.1365, 159.740106)"/>
<path fill="none" stroke-width="22.8393" stroke-linecap="round" stroke-linejoin="round" stroke="rgb(0%, 100%, 8.203125%)" stroke-opacity="1" stroke-miterlimit="10" d="M 2517.438231 1060.411078 L 2778.470632 799.378676 L 2517.438231 538.346275 L 2256.40583 799.378676 L 2517.438231 1060.411078 " transform="matrix(0.0999188, 0, 0, -0.0999188, 0.1365, 159.740106)"/>
<path fill="none" stroke-width="22.8393" stroke-linecap="round" stroke-linejoin="round" stroke="rgb(0%, 100%, 20.410156%)" stroke-opacity="1" stroke-miterlimit="10" d="M 2517.438231 1074.875955 L 2792.974604 799.378676 L 2517.438231 523.842303 L 2241.901858 799.378676 L 2517.438231 1074.875955 " transform="matrix(0.0999188, 0, 0, -0.0999188, 0.1365, 159.740106)"/>
<path fill="none" stroke-width="22.8393" stroke-linecap="round" stroke-linejoin="round" stroke="rgb(0%, 100%, 32.688904%)" stroke-opacity="1" stroke-miterlimit="10" d="M 2517.438231 1089.419022 L 2807.478576 799.378676 L 2517.438231 509.338331 L 2227.397886 799.378676 L 2517.438231 1089.419022 " transform="matrix(0.0999188, 0, 0, -0.0999188, 0.1365, 159.740106)"/>
<path fill="none" stroke-width="22.8393" stroke-linecap="round" stroke-linejoin="round" stroke="rgb(0%, 100%, 44.897461%)" stroke-opacity="1" stroke-miterlimit="10" d="M 2517.438231 1103.883899 L 2821.943454 799.378676 L 2517.438231 494.834359 L 2212.933008 799.378676 L 2517.438231 1103.883899 " transform="matrix(0.0999188, 0, 0, -0.0999188, 0.1365, 159.740106)"/>
<path fill="none" stroke-width="22.8393" stroke-linecap="round" stroke-linejoin="round" stroke="rgb(0%, 100%, 57.03125%)" stroke-opacity="1" stroke-miterlimit="10" d="M 2517.438231 1118.387871 L 2836.447426 799.378676 L 2517.438231 480.369481 L 2198.429036 799.378676 L 2517.438231 1118.387871 " transform="matrix(0.0999188, 0, 0, -0.0999188, 0.1365, 159.740106)"/>
<path fill="none" stroke-width="22.8393" stroke-linecap="round" stroke-linejoin="round" stroke="rgb(0%, 100%, 69.334412%)" stroke-opacity="1" stroke-miterlimit="10" d="M 2517.438231 1132.891843 L 2850.951398 799.378676 L 2517.438231 465.865509 L 2183.925064 799.378676 L 2517.438231 1132.891843 " transform="matrix(0.0999188, 0, 0, -0.0999188, 0.1365, 159.740106)"/>
<path fill="none" stroke-width="22.8393" stroke-linecap="round" stroke-linejoin="round" stroke="rgb(0%, 100%, 81.639099%)" stroke-opacity="1" stroke-miterlimit="10" d="M 2517.438231 1147.395815 L 2865.45537 799.378676 L 2517.438231 451.361537 L 2169.421092 799.378676 L 2517.438231 1147.395815 " transform="matrix(0.0999188, 0, 0, -0.0999188, 0.1365, 159.740106)"/>
<path fill="none" stroke-width="22.8393" stroke-linecap="round" stroke-linejoin="round" stroke="rgb(0%, 100%, 93.943787%)" stroke-opacity="1" stroke-miterlimit="10" d="M 2517.438231 1161.899787 L 2879.998436 799.378676 L 2517.438231 436.857566 L 2154.91712 799.378676 L 2517.438231 1161.899787 " transform="matrix(0.0999188, 0, 0, -0.0999188, 0.1365, 159.740106)"/>
<path fill="none" stroke-width="22.8393" stroke-linecap="round" stroke-linejoin="round" stroke="rgb(0%, 93.943787%, 100%)" stroke-opacity="1" stroke-miterlimit="10" d="M 2517.438231 1176.403759 L 2894.463314 799.378676 L 2517.438231 422.353594 L 2140.413148 799.378676 L 2517.438231 1176.403759 " transform="matrix(0.0999188, 0, 0, -0.0999188, 0.1365, 159.740106)"/>
<path fill="none" stroke-width="22.8393" stroke-linecap="round" stroke-linejoin="round" stroke="rgb(0%, 81.639099%, 100%)" stroke-opacity="1" stroke-miterlimit="10" d="M 2517.438231 1190.907731 L 2908.967286 799.378676 L 2517.438231 407.849622 L 2125.909176 799.378676 L 2517.438231 1190.907731 " transform="matrix(0.0999188, 0, 0, -0.0999188, 0.1365, 159.740106)"/>
<path fill="none" stroke-width="22.8393" stroke-linecap="round" stroke-linejoin="round" stroke="rgb(0%, 69.334412%, 100%)" stroke-opacity="1" stroke-miterlimit="10" d="M 2517.438231 1205.411703 L 2923.471258 799.378676 L 2517.438231 393.34565 L 2111.405204 799.378676 L 2517.438231 1205.411703 " transform="matrix(0.0999188, 0, 0, -0.0999188, 0.1365, 159.740106)"/>
<path fill="none" stroke-width="22.8393" stroke-linecap="round" stroke-linejoin="round" stroke="rgb(0%, 57.03125%, 100%)" stroke-opacity="1" stroke-miterlimit="10" d="M 2517.438231 1219.915675 L 2937.97523 799.378676 L 2517.438231 378.841678 L 2096.901232 799.378676 L 2517.438231 1219.915675 " transform="matrix(0.0999188, 0, 0, -0.0999188, 0.1365, 159.740106)"/>
<path fill="none" stroke-width="22.8393" stroke-linecap="round" stroke-linejoin="round" stroke="rgb(0%, 44.897461%, 100%)" stroke-opacity="1" stroke-miterlimit="10" d="M 2517.438231 1234.380553 L 2952.479202 799.378676 L 2517.438231 364.337706 L 2082.39726 799.378676 L 2517.438231 1234.380553 " transform="matrix(0.0999188, 0, 0, -0.0999188, 0.1365, 159.740106)"/>
<path fill="none" stroke-width="22.8393" stroke-linecap="round" stroke-linejoin="round" stroke="rgb(0%, 32.688904%, 100%)" stroke-opacity="1" stroke-miterlimit="10" d="M 2517.438231 1248.923619 L 2966.983174 799.378676 L 2517.438231 349.833734 L 2067.893288 799.378676 L 2517.438231 1248.923619 " transform="matrix(0.0999188, 0, 0, -0.0999188, 0.1365, 159.740106)"/>
<path fill="none" stroke-width="22.8393" stroke-linecap="round" stroke-linejoin="round" stroke="rgb(0%, 20.410156%, 100%)" stroke-opacity="1" stroke-miterlimit="10" d="M 2517.438231 1263.427591 L 2981.487146 799.378676 L 2517.438231 335.329762 L 2053.428411 799.378676 L 2517.438231 1263.427591 " transform="matrix(0.0999188, 0, 0, -0.0999188, 0.1365, 159.740106)"/>
<path fill="none" stroke-width="22.8393" stroke-linecap="round" stroke-linejoin="round" stroke="rgb(0%, 8.203125%, 100%)" stroke-opacity="1" stroke-miterlimit="10" d="M 2517.438231 1277.931563 L 2995.991118 799.378676 L 2517.438231 320.82579 L 2038.885344 799.378676 L 2517.438231 1277.931563 " transform="matrix(0.0999188, 0, 0, -0.0999188, 0.1365, 159.740106)"/>
<path fill="none" stroke-width="22.8393" stroke-linecap="round" stroke-linejoin="round" stroke="rgb(4.096985%, 0%, 100%)" stroke-opacity="1" stroke-miterlimit="10" d="M 2517.438231 1292.396441 L 3010.49509 799.378676 L 2517.438231 306.321818 L 2024.381372 799.378676 L 2517.438231 1292.396441 " transform="matrix(0.0999188, 0, 0, -0.0999188, 0.1365, 159.740106)"/>
<path fill="none" stroke-width="22.8393" stroke-linecap="round" stroke-linejoin="round" stroke="rgb(16.308594%, 0%, 100%)" stroke-opacity="1" stroke-miterlimit="10" d="M 2517.438231 1306.900413 L 3024.999062 799.378676 L 2517.438231 291.85694 L 2009.916495 799.378676 L 2517.438231 1306.900413 " transform="matrix(0.0999188, 0, 0, -0.0999188, 0.1365, 159.740106)"/>
<path fill="none" stroke-width="22.8393" stroke-linecap="round" stroke-linejoin="round" stroke="rgb(28.588867%, 0%, 100%)" stroke-opacity="1" stroke-miterlimit="10" d="M 2517.438231 1321.404385 L 3039.463939 799.378676 L 2517.438231 277.313874 L 1995.373428 799.378676 L 2517.438231 1321.404385 " transform="matrix(0.0999188, 0, 0, -0.0999188, 0.1365, 159.740106)"/>
<path fill="none" stroke-width="22.8393" stroke-linecap="round" stroke-linejoin="round" stroke="rgb(40.795898%, 0%, 100%)" stroke-opacity="1" stroke-miterlimit="10" d="M 2517.438231 1335.908357 L 3053.967911 799.378676 L 2517.438231 262.848996 L 1980.908551 799.378676 L 2517.438231 1335.908357 " transform="matrix(0.0999188, 0, 0, -0.0999188, 0.1365, 159.740106)"/>
<path fill="none" stroke-width="22.8393" stroke-linecap="round" stroke-linejoin="round" stroke="rgb(53.125%, 0%, 100%)" stroke-opacity="1" stroke-miterlimit="10" d="M 2517.438231 1350.412329 L 3068.471883 799.378676 L 2517.438231 248.345024 L 1966.404579 799.378676 L 2517.438231 1350.412329 " transform="matrix(0.0999188, 0, 0, -0.0999188, 0.1365, 159.740106)"/>
<path fill="none" stroke-width="22.8393" stroke-linecap="round" stroke-linejoin="round" stroke="rgb(65.234375%, 0%, 100%)" stroke-opacity="1" stroke-miterlimit="10" d="M 2517.438231 1364.916301 L 3082.975855 799.378676 L 2517.438231 233.841052 L 1951.900607 799.378676 L 2517.438231 1364.916301 " transform="matrix(0.0999188, 0, 0, -0.0999188, 0.1365, 159.740106)"/>
<path fill="none" stroke-width="22.8393" stroke-linecap="round" stroke-linejoin="round" stroke="rgb(77.539062%, 0%, 100%)" stroke-opacity="1" stroke-miterlimit="10" d="M 2517.438231 1379.420273 L 3097.479827 799.378676 L 2517.438231 219.33708 L 1937.396635 799.378676 L 2517.438231 1379.420273 " transform="matrix(0.0999188, 0, 0, -0.0999188, 0.1365, 159.740106)"/>
<path fill="none" stroke-width="22.8393" stroke-linecap="round" stroke-linejoin="round" stroke="rgb(89.84375%, 0%, 100%)" stroke-opacity="1" stroke-miterlimit="10" d="M 2517.438231 1393.924245 L 3111.983799 799.378676 L 2517.438231 204.833108 L 1922.892663 799.378676 L 2517.438231 1393.924245 " transform="matrix(0.0999188, 0, 0, -0.0999188, 0.1365, 159.740106)"/>
<path fill="none" stroke-width="22.8393" stroke-linecap="round" stroke-linejoin="round" stroke="rgb(100%, 0%, 98.046875%)" stroke-opacity="1" stroke-miterlimit="10" d="M 2517.438231 1408.428217 L 3126.487771 799.378676 L 2517.438231 190.329136 L 1908.388691 799.378676 L 2517.438231 1408.428217 " transform="matrix(0.0999188, 0, 0, -0.0999188, 0.1365, 159.740106)"/>
<path fill="none" stroke-width="22.8393" stroke-linecap="round" stroke-linejoin="round" stroke="rgb(100%, 0%, 85.742188%)" stroke-opacity="1" stroke-miterlimit="10" d="M 2517.438231 1422.932189 L 3140.991743 799.378676 L 2517.438231 175.825164 L 1893.884719 799.378676 L 2517.438231 1422.932189 " transform="matrix(0.0999188, 0, 0, -0.0999188, 0.1365, 159.740106)"/>
<path fill="none" stroke-width="22.8393" stroke-linecap="round" stroke-linejoin="round" stroke="rgb(100%, 0%, 73.4375%)" stroke-opacity="1" stroke-miterlimit="10" d="M 2517.438231 1437.436161 L 3155.495715 799.378676 L 2517.438231 161.321192 L 1879.380747 799.378676 L 2517.438231 1437.436161 " transform="matrix(0.0999188, 0, 0, -0.0999188, 0.1365, 159.740106)"/>
<path fill="none" stroke-width="22.8393" stroke-linecap="round" stroke-linejoin="round" stroke="rgb(100%, 0%, 61.131287%)" stroke-opacity="1" stroke-miterlimit="10" d="M 2517.438231 1451.940133 L 3169.999687 799.378676 L 2517.438231 146.81722 L 1864.876775 799.378676 L 2517.438231 1451.940133 " transform="matrix(0.0999188, 0, 0, -0.0999188, 0.1365, 159.740106)"/>
<path fill="none" stroke-width="22.8393" stroke-linecap="round" stroke-linejoin="round" stroke="rgb(100%, 0%, 48.997498%)" stroke-opacity="1" stroke-miterlimit="10" d="M 2517.438231 1466.444105 L 3184.503659 799.378676 L 2517.438231 132.313248 L 1850.372803 799.378676 L 2517.438231 1466.444105 " transform="matrix(0.0999188, 0, 0, -0.0999188, 0.1365, 159.740106)"/>
<path fill="none" stroke-width="22.8393" stroke-linecap="round" stroke-linejoin="round" stroke="rgb(100%, 0%, 36.69281%)" stroke-opacity="1" stroke-miterlimit="10" d="M 2517.438231 1480.948077 L 3199.007631 799.378676 L 2517.438231 117.809276 L 1835.907925 799.378676 L 2517.438231 1480.948077 " transform="matrix(0.0999188, 0, 0, -0.0999188, 0.1365, 159.740106)"/>
<path fill="none" stroke-width="22.8393" stroke-linecap="round" stroke-linejoin="round" stroke="rgb(100%, 0%, 24.510193%)" stroke-opacity="1" stroke-miterlimit="10" d="M 2517.438231 1495.412954 L 3213.472509 799.378676 L 2517.438231 103.344399 L 1821.403953 799.378676 L 2517.438231 1495.412954 " transform="matrix(0.0999188, 0, 0, -0.0999188, 0.1365, 159.740106)"/>
<path fill="none" stroke-width="22.8393" stroke-linecap="round" stroke-linejoin="round" stroke="rgb(100%, 0%, 12.205505%)" stroke-opacity="1" stroke-miterlimit="10" d="M 2517.438231 1509.956021 L 3228.015575 799.378676 L 2517.438231 88.801332 L 1806.860887 799.378676 L 2517.438231 1509.956021 " transform="matrix(0.0999188, 0, 0, -0.0999188, 0.1365, 159.740106)"/>
<path fill="none" stroke-width="22.8393" stroke-linecap="round" stroke-linejoin="round" stroke="rgb(100%, 0%, 0%)" stroke-opacity="1" stroke-miterlimit="10" d="M 2517.438231 1524.420898 L 3242.519547 799.378676 L 2517.438231 74.336455 L 1792.396009 799.378676 L 2517.438231 1524.420898 " transform="matrix(0.0999188, 0, 0, -0.0999188, 0.1365, 159.740106)"/>
</svg>
