<?xml version="1.0" encoding="UTF-8"?>
<svg xmlns="http://www.w3.org/2000/svg" xmlns:xlink="http://www.w3.org/1999/xlink" width="126" height="199.94" viewBox="0 0 126 199.94">
<path fill-rule="nonzero" fill="rgb(29.393005%, 5.200195%, 36.59668%)" fill-opacity="1" d="M 67.125 4.441406 L 114.726562 88.898438 L 84.21875 82.316406 "/>
<path fill="none" stroke-width="5" stroke-linecap="round" stroke-linejoin="round" stroke="rgb(0%, 0%, 0%)" stroke-opacity="1" stroke-miterlimit="10" d="M 671.262379 1954.972609 L 1147.420851 1110.14885 L 842.251175 1175.988914 Z M 671.262379 1954.972609 " transform="matrix(0.09997, 0, 0, -0.09997, 0.0189, 199.880018)"/>
<path fill-rule="nonzero" fill="rgb(39.988708%, 42.405701%, 76.951599%)" fill-opacity="1" d="M 67.125 170.058594 L 114.726562 88.898438 L 84.21875 82.316406 "/>
<path fill="none" stroke-width="5" stroke-linecap="round" stroke-linejoin="round" stroke="rgb(0%, 0%, 0%)" stroke-opacity="1" stroke-miterlimit="10" d="M 671.262379 298.303734 L 1147.420851 1110.14885 L 842.251175 1175.988914 Z M 671.262379 298.303734 " transform="matrix(0.09997, 0, 0, -0.09997, 0.0189, 199.880018)"/>
<path fill-rule="nonzero" fill="rgb(71.679688%, 43.797302%, 50.193787%)" fill-opacity="1" d="M 67.125 4.441406 L 84.21875 82.316406 L 39.8125 83.3125 "/>
<path fill="none" stroke-width="5" stroke-linecap="round" stroke-linejoin="round" stroke="rgb(0%, 0%, 0%)" stroke-opacity="1" stroke-miterlimit="10" d="M 671.262379 1954.972609 L 842.251175 1175.988914 L 398.055417 1166.024987 Z M 671.262379 1954.972609 " transform="matrix(0.09997, 0, 0, -0.09997, 0.0189, 199.880018)"/>
<path fill-rule="nonzero" fill="rgb(73.242188%, 65.429688%, 77.34375%)" fill-opacity="1" d="M 67.125 170.058594 L 84.21875 82.316406 L 39.8125 83.3125 "/>
<path fill="none" stroke-width="5" stroke-linecap="round" stroke-linejoin="round" stroke="rgb(0%, 0%, 0%)" stroke-opacity="1" stroke-miterlimit="10" d="M 671.262379 298.303734 L 842.251175 1175.988914 L 398.055417 1166.024987 Z M 671.262379 298.303734 " transform="matrix(0.09997, 0, 0, -0.09997, 0.0189, 199.880018)"/>
<path fill-rule="nonzero" fill="rgb(92.1875%, 53.125%, 20.506287%)" fill-opacity="1" d="M 67.125 4.441406 L 39.8125 83.3125 L 18.257812 91.257812 "/>
<path fill="none" stroke-width="5" stroke-linecap="round" stroke-linejoin="round" stroke="rgb(0%, 0%, 0%)" stroke-opacity="1" stroke-miterlimit="10" d="M 671.262379 1954.972609 L 398.055417 1166.024987 L 182.443858 1086.548019 Z M 671.262379 1954.972609 " transform="matrix(0.09997, 0, 0, -0.09997, 0.0189, 199.880018)"/>
<path fill-rule="nonzero" fill="rgb(94.726562%, 90.625%, 74.804688%)" fill-opacity="1" d="M 67.125 170.058594 L 39.8125 83.3125 L 18.257812 91.257812 "/>
<path fill="none" stroke-width="5" stroke-linecap="round" stroke-linejoin="round" stroke="rgb(0%, 0%, 0%)" stroke-opacity="1" stroke-miterlimit="10" d="M 671.262379 298.303734 L 398.055417 1166.024987 L 182.443858 1086.548019 Z M 671.262379 298.303734 " transform="matrix(0.09997, 0, 0, -0.09997, 0.0189, 199.880018)"/>
<path fill-rule="nonzero" fill="rgb(84.764099%, 41.992188%, 0%)" fill-opacity="1" d="M 67.125 170.058594 L 114.726562 88.898438 L 99.25 98.003906 "/>
<path fill="none" stroke-width="5" stroke-linecap="round" stroke-linejoin="round" stroke="rgb(0%, 0%, 0%)" stroke-opacity="1" stroke-miterlimit="10" d="M 671.262379 298.303734 L 1147.420851 1110.14885 L 992.608783 1019.066838 Z M 671.262379 298.303734 " transform="matrix(0.09997, 0, 0, -0.09997, 0.0189, 199.880018)"/>
<path fill-rule="nonzero" fill="rgb(71.289062%, 40.405273%, 45.410156%)" fill-opacity="1" d="M 67.125 170.058594 L 46.476562 99.421875 L 99.25 98.003906 "/>
<path fill="none" stroke-width="5" stroke-linecap="round" stroke-linejoin="round" stroke="rgb(0%, 0%, 0%)" stroke-opacity="1" stroke-miterlimit="10" d="M 671.262379 298.303734 L 464.71604 1004.882895 L 992.608783 1019.066838 Z M 671.262379 298.303734 " transform="matrix(0.09997, 0, 0, -0.09997, 0.0189, 199.880018)"/>
<path fill-rule="nonzero" fill="rgb(20.188904%, 5.999756%, 29.197693%)" fill-opacity="1" d="M 67.125 170.058594 L 18.257812 91.257812 L 46.476562 99.421875 "/>
<path fill="none" stroke-width="5" stroke-linecap="round" stroke-linejoin="round" stroke="rgb(0%, 0%, 0%)" stroke-opacity="1" stroke-miterlimit="10" d="M 671.262379 298.303734 L 182.443858 1086.548019 L 464.71604 1004.882895 Z M 671.262379 298.303734 " transform="matrix(0.09997, 0, 0, -0.09997, 0.0189, 199.880018)"/>
<path fill-rule="nonzero" fill="rgb(95.506287%, 94.921875%, 70.506287%)" fill-opacity="1" d="M 67.125 4.441406 L 114.726562 88.898438 L 99.25 98.003906 "/>
<path fill="none" stroke-width="5" stroke-linecap="round" stroke-linejoin="round" stroke="rgb(0%, 0%, 0%)" stroke-opacity="1" stroke-miterlimit="10" d="M 671.262379 1954.972609 L 1147.420851 1110.14885 L 992.608783 1019.066838 Z M 671.262379 1954.972609 " transform="matrix(0.09997, 0, 0, -0.09997, 0.0189, 199.880018)"/>
<path fill-rule="nonzero" fill="rgb(31.005859%, 37.205505%, 76.5625%)" fill-opacity="1" d="M 67.125 4.441406 L 18.257812 91.257812 L 46.476562 99.421875 "/>
<path fill="none" stroke-width="5" stroke-linecap="round" stroke-linejoin="round" stroke="rgb(0%, 0%, 0%)" stroke-opacity="1" stroke-miterlimit="10" d="M 671.262379 1954.972609 L 182.443858 1086.548019 L 464.71604 1004.882895 Z M 671.262379 1954.972609 " transform="matrix(0.09997, 0, 0, -0.09997, 0.0189, 199.880018)"/>
<path fill-rule="nonzero" fill="rgb(73.631287%, 66.796875%, 78.318787%)" fill-opacity="1" d="M 67.125 4.441406 L 46.476562 99.421875 L 99.25 98.003906 "/>
<path fill="none" stroke-width="5" stroke-linecap="round" stroke-linejoin="round" stroke="rgb(0%, 0%, 0%)" stroke-opacity="1" stroke-miterlimit="10" d="M 671.262379 1954.972609 L 464.71604 1004.882895 L 992.608783 1019.066838 Z M 671.262379 1954.972609 " transform="matrix(0.09997, 0, 0, -0.09997, 0.0189, 199.880018)"/>
</svg>
