<?xml version="1.0" encoding="UTF-8"?>
<svg xmlns="http://www.w3.org/2000/svg" xmlns:xlink="http://www.w3.org/1999/xlink" width="360" height="112.44" viewBox="0 0 360 112.44">
<path fill-rule="nonzero" fill="rgb(100%, 0%, 0%)" fill-opacity="1" d="M 22.199219 96.535156 L 103.382812 96.535156 L 103.382812 66.089844 "/>
<path fill="none" stroke-width="5" stroke-linecap="round" stroke-linejoin="round" stroke="rgb(0%, 0%, 0%)" stroke-opacity="1" stroke-miterlimit="10" d="M 214.133024 154.240568 L 1030.012257 154.240568 L 1030.012257 460.210001 L 214.133024 154.240568 " transform="matrix(0.0995044, 0, 0, -0.0995044, 0.892035, 111.882775)"/>
<path fill-rule="nonzero" fill="rgb(100%, 100%, 0%)" fill-opacity="1" d="M 22.199219 96.535156 L 22.199219 66.089844 L 103.382812 66.089844 "/>
<path fill="none" stroke-width="5" stroke-linecap="round" stroke-linejoin="round" stroke="rgb(0%, 0%, 0%)" stroke-opacity="1" stroke-miterlimit="10" d="M 214.133024 154.240568 L 214.133024 460.210001 L 1030.012257 460.210001 L 214.133024 154.240568 " transform="matrix(0.0995044, 0, 0, -0.0995044, 0.892035, 111.882775)"/>
<path fill-rule="nonzero" fill="rgb(0%, 100%, 0%)" fill-opacity="1" d="M 22.199219 66.089844 L 22.199219 15.351562 L 52.644531 15.351562 L 72.941406 66.089844 "/>
<path fill="none" stroke-width="5" stroke-linecap="round" stroke-linejoin="round" stroke="rgb(0%, 0%, 0%)" stroke-opacity="1" stroke-miterlimit="10" d="M 214.133024 460.210001 L 214.133024 970.119801 L 520.102457 970.119801 L 724.08208 460.210001 L 214.133024 460.210001 " transform="matrix(0.0995044, 0, 0, -0.0995044, 0.892035, 111.882775)"/>
<path fill-rule="nonzero" fill="rgb(0%, 0%, 100%)" fill-opacity="1" d="M 52.644531 15.351562 L 103.382812 15.351562 L 103.382812 66.089844 L 72.941406 66.089844 "/>
<path fill="none" stroke-width="5" stroke-linecap="round" stroke-linejoin="round" stroke="rgb(0%, 0%, 0%)" stroke-opacity="1" stroke-miterlimit="10" d="M 520.102457 970.119801 L 1030.012257 970.119801 L 1030.012257 460.210001 L 724.08208 460.210001 L 520.102457 970.119801 " transform="matrix(0.0995044, 0, 0, -0.0995044, 0.892035, 111.882775)"/>
<path fill="none" stroke-width="5" stroke-linecap="round" stroke-linejoin="round" stroke="rgb(0%, 0%, 0%)" stroke-opacity="1" stroke-miterlimit="10" d="M 112.18247 52.250757 L 1132.002068 52.250757 " transform="matrix(0.0995044, 0, 0, -0.0995044, 0.892035, 111.882775)"/>
<path fill="none" stroke-width="5" stroke-linecap="round" stroke-linejoin="round" stroke="rgb(0%, 0%, 0%)" stroke-opacity="1" stroke-miterlimit="10" d="M 112.18247 154.240568 L 1132.002068 154.240568 " transform="matrix(0.0995044, 0, 0, -0.0995044, 0.892035, 111.882775)"/>
<path fill="none" stroke-width="5" stroke-linecap="round" stroke-linejoin="round" stroke="rgb(0%, 0%, 0%)" stroke-opacity="1" stroke-miterlimit="10" d="M 112.18247 256.230379 L 1132.002068 256.230379 " transform="matrix(0.0995044, 0, 0, -0.0995044, 0.892035, 111.882775)"/>
<path fill="none" stroke-width="5" stroke-linecap="round" stroke-linejoin="round" stroke="rgb(0%, 0%, 0%)" stroke-opacity="1" stroke-miterlimit="10" d="M 112.18247 358.22019 L 1132.002068 358.22019 " transform="matrix(0.0995044, 0, 0, -0.0995044, 0.892035, 111.882775)"/>
<path fill="none" stroke-width="5" stroke-linecap="round" stroke-linejoin="round" stroke="rgb(0%, 0%, 0%)" stroke-opacity="1" stroke-miterlimit="10" d="M 112.18247 460.210001 L 1132.002068 460.210001 " transform="matrix(0.0995044, 0, 0, -0.0995044, 0.892035, 111.882775)"/>
<path fill="none" stroke-width="5" stroke-linecap="round" stroke-linejoin="round" stroke="rgb(0%, 0%, 0%)" stroke-opacity="1" stroke-miterlimit="10" d="M 112.18247 562.199813 L 1132.002068 562.199813 " transform="matrix(0.0995044, 0, 0, -0.0995044, 0.892035, 111.882775)"/>
<path fill="none" stroke-width="5" stroke-linecap="round" stroke-linejoin="round" stroke="rgb(0%, 0%, 0%)" stroke-opacity="1" stroke-miterlimit="10" d="M 112.18247 664.150367 L 1132.002068 664.150367 " transform="matrix(0.0995044, 0, 0, -0.0995044, 0.892035, 111.882775)"/>
<path fill="none" stroke-width="5" stroke-linecap="round" stroke-linejoin="round" stroke="rgb(0%, 0%, 0%)" stroke-opacity="1" stroke-miterlimit="10" d="M 112.18247 766.140178 L 1132.002068 766.140178 " transform="matrix(0.0995044, 0, 0, -0.0995044, 0.892035, 111.882775)"/>
<path fill="none" stroke-width="5" stroke-linecap="round" stroke-linejoin="round" stroke="rgb(0%, 0%, 0%)" stroke-opacity="1" stroke-miterlimit="10" d="M 112.18247 868.129989 L 1132.002068 868.129989 " transform="matrix(0.0995044, 0, 0, -0.0995044, 0.892035, 111.882775)"/>
<path fill="none" stroke-width="5" stroke-linecap="round" stroke-linejoin="round" stroke="rgb(0%, 0%, 0%)" stroke-opacity="1" stroke-miterlimit="10" d="M 112.18247 970.119801 L 1132.002068 970.119801 " transform="matrix(0.0995044, 0, 0, -0.0995044, 0.892035, 111.882775)"/>
<path fill="none" stroke-width="5" stroke-linecap="round" stroke-linejoin="round" stroke="rgb(0%, 0%, 0%)" stroke-opacity="1" stroke-miterlimit="10" d="M 112.18247 1072.109612 L 1132.002068 1072.109612 " transform="matrix(0.0995044, 0, 0, -0.0995044, 0.892035, 111.882775)"/>
<path fill="none" stroke-width="5" stroke-linecap="round" stroke-linejoin="round" stroke="rgb(0%, 0%, 0%)" stroke-opacity="1" stroke-miterlimit="10" d="M 112.18247 52.250757 L 112.18247 1072.109612 " transform="matrix(0.0995044, 0, 0, -0.0995044, 0.892035, 111.882775)"/>
<path fill="none" stroke-width="5" stroke-linecap="round" stroke-linejoin="round" stroke="rgb(0%, 0%, 0%)" stroke-opacity="1" stroke-miterlimit="10" d="M 214.133024 52.250757 L 214.133024 1072.109612 " transform="matrix(0.0995044, 0, 0, -0.0995044, 0.892035, 111.882775)"/>
<path fill="none" stroke-width="5" stroke-linecap="round" stroke-linejoin="round" stroke="rgb(0%, 0%, 0%)" stroke-opacity="1" stroke-miterlimit="10" d="M 316.122835 52.250757 L 316.122835 1072.109612 " transform="matrix(0.0995044, 0, 0, -0.0995044, 0.892035, 111.882775)"/>
<path fill="none" stroke-width="5" stroke-linecap="round" stroke-linejoin="round" stroke="rgb(0%, 0%, 0%)" stroke-opacity="1" stroke-miterlimit="10" d="M 418.112646 52.250757 L 418.112646 1072.109612 " transform="matrix(0.0995044, 0, 0, -0.0995044, 0.892035, 111.882775)"/>
<path fill="none" stroke-width="5" stroke-linecap="round" stroke-linejoin="round" stroke="rgb(0%, 0%, 0%)" stroke-opacity="1" stroke-miterlimit="10" d="M 520.102457 52.250757 L 520.102457 1072.109612 " transform="matrix(0.0995044, 0, 0, -0.0995044, 0.892035, 111.882775)"/>
<path fill="none" stroke-width="5" stroke-linecap="round" stroke-linejoin="round" stroke="rgb(0%, 0%, 0%)" stroke-opacity="1" stroke-miterlimit="10" d="M 622.092269 52.250757 L 622.092269 1072.109612 " transform="matrix(0.0995044, 0, 0, -0.0995044, 0.892035, 111.882775)"/>
<path fill="none" stroke-width="5" stroke-linecap="round" stroke-linejoin="round" stroke="rgb(0%, 0%, 0%)" stroke-opacity="1" stroke-miterlimit="10" d="M 724.08208 52.250757 L 724.08208 1072.109612 " transform="matrix(0.0995044, 0, 0, -0.0995044, 0.892035, 111.882775)"/>
<path fill="none" stroke-width="5" stroke-linecap="round" stroke-linejoin="round" stroke="rgb(0%, 0%, 0%)" stroke-opacity="1" stroke-miterlimit="10" d="M 826.071891 52.250757 L 826.071891 1072.109612 " transform="matrix(0.0995044, 0, 0, -0.0995044, 0.892035, 111.882775)"/>
<path fill="none" stroke-width="5" stroke-linecap="round" stroke-linejoin="round" stroke="rgb(0%, 0%, 0%)" stroke-opacity="1" stroke-miterlimit="10" d="M 928.022445 52.250757 L 928.022445 1072.109612 " transform="matrix(0.0995044, 0, 0, -0.0995044, 0.892035, 111.882775)"/>
<path fill="none" stroke-width="5" stroke-linecap="round" stroke-linejoin="round" stroke="rgb(0%, 0%, 0%)" stroke-opacity="1" stroke-miterlimit="10" d="M 1030.012257 52.250757 L 1030.012257 1072.109612 " transform="matrix(0.0995044, 0, 0, -0.0995044, 0.892035, 111.882775)"/>
<path fill="none" stroke-width="5" stroke-linecap="round" stroke-linejoin="round" stroke="rgb(0%, 0%, 0%)" stroke-opacity="1" stroke-miterlimit="10" d="M 1132.002068 52.250757 L 1132.002068 1072.109612 " transform="matrix(0.0995044, 0, 0, -0.0995044, 0.892035, 111.882775)"/>
<path fill-rule="nonzero" fill="rgb(0%, 100%, 0%)" fill-opacity="1" d="M 163.085938 99.917969 L 196.914062 99.917969 L 183.382812 66.089844 L 163.085938 66.089844 "/>
<path fill="none" stroke-width="5" stroke-linecap="round" stroke-linejoin="round" stroke="rgb(0%, 0%, 0%)" stroke-opacity="1" stroke-miterlimit="10" d="M 1630.016981 120.243964 L 1969.983019 120.243964 L 1833.996604 460.210001 L 1630.016981 460.210001 L 1630.016981 120.243964 " transform="matrix(0.0995044, 0, 0, -0.0995044, 0.892035, 111.882775)"/>
<path fill-rule="nonzero" fill="rgb(100%, 100%, 0%)" fill-opacity="1" d="M 183.382812 66.089844 L 163.085938 66.089844 L 163.085938 11.96875 "/>
<path fill="none" stroke-width="5" stroke-linecap="round" stroke-linejoin="round" stroke="rgb(0%, 0%, 0%)" stroke-opacity="1" stroke-miterlimit="10" d="M 1833.996604 460.210001 L 1630.016981 460.210001 L 1630.016981 1004.116404 L 1833.996604 460.210001 " transform="matrix(0.0995044, 0, 0, -0.0995044, 0.892035, 111.882775)"/>
<path fill-rule="nonzero" fill="rgb(0%, 0%, 100%)" fill-opacity="1" d="M 163.085938 11.96875 L 196.914062 11.96875 L 196.914062 45.796875 L 176.617188 45.796875 "/>
<path fill="none" stroke-width="5" stroke-linecap="round" stroke-linejoin="round" stroke="rgb(0%, 0%, 0%)" stroke-opacity="1" stroke-miterlimit="10" d="M 1630.016981 1004.116404 L 1969.983019 1004.116404 L 1969.983019 664.150367 L 1766.003396 664.150367 L 1630.016981 1004.116404 " transform="matrix(0.0995044, 0, 0, -0.0995044, 0.892035, 111.882775)"/>
<path fill-rule="nonzero" fill="rgb(100%, 0%, 0%)" fill-opacity="1" d="M 196.914062 45.796875 L 176.617188 45.796875 L 196.914062 99.917969 "/>
<path fill="none" stroke-width="5" stroke-linecap="round" stroke-linejoin="round" stroke="rgb(0%, 0%, 0%)" stroke-opacity="1" stroke-miterlimit="10" d="M 1969.983019 664.150367 L 1766.003396 664.150367 L 1969.983019 120.243964 L 1969.983019 664.150367 " transform="matrix(0.0995044, 0, 0, -0.0995044, 0.892035, 111.882775)"/>
<path fill="none" stroke-width="5" stroke-linecap="round" stroke-linejoin="round" stroke="rgb(0%, 0%, 0%)" stroke-opacity="1" stroke-miterlimit="10" d="M 1562.023774 52.250757 L 2037.976226 52.250757 " transform="matrix(0.0995044, 0, 0, -0.0995044, 0.892035, 111.882775)"/>
<path fill="none" stroke-width="5" stroke-linecap="round" stroke-linejoin="round" stroke="rgb(0%, 0%, 0%)" stroke-opacity="1" stroke-miterlimit="10" d="M 1562.023774 120.243964 L 2037.976226 120.243964 " transform="matrix(0.0995044, 0, 0, -0.0995044, 0.892035, 111.882775)"/>
<path fill="none" stroke-width="5" stroke-linecap="round" stroke-linejoin="round" stroke="rgb(0%, 0%, 0%)" stroke-opacity="1" stroke-miterlimit="10" d="M 1562.023774 188.237171 L 2037.976226 188.237171 " transform="matrix(0.0995044, 0, 0, -0.0995044, 0.892035, 111.882775)"/>
<path fill="none" stroke-width="5" stroke-linecap="round" stroke-linejoin="round" stroke="rgb(0%, 0%, 0%)" stroke-opacity="1" stroke-miterlimit="10" d="M 1562.023774 256.230379 L 2037.976226 256.230379 " transform="matrix(0.0995044, 0, 0, -0.0995044, 0.892035, 111.882775)"/>
<path fill="none" stroke-width="5" stroke-linecap="round" stroke-linejoin="round" stroke="rgb(0%, 0%, 0%)" stroke-opacity="1" stroke-miterlimit="10" d="M 1562.023774 324.223586 L 2037.976226 324.223586 " transform="matrix(0.0995044, 0, 0, -0.0995044, 0.892035, 111.882775)"/>
<path fill="none" stroke-width="5" stroke-linecap="round" stroke-linejoin="round" stroke="rgb(0%, 0%, 0%)" stroke-opacity="1" stroke-miterlimit="10" d="M 1562.023774 392.216794 L 2037.976226 392.216794 " transform="matrix(0.0995044, 0, 0, -0.0995044, 0.892035, 111.882775)"/>
<path fill="none" stroke-width="5" stroke-linecap="round" stroke-linejoin="round" stroke="rgb(0%, 0%, 0%)" stroke-opacity="1" stroke-miterlimit="10" d="M 1562.023774 460.210001 L 2037.976226 460.210001 " transform="matrix(0.0995044, 0, 0, -0.0995044, 0.892035, 111.882775)"/>
<path fill="none" stroke-width="5" stroke-linecap="round" stroke-linejoin="round" stroke="rgb(0%, 0%, 0%)" stroke-opacity="1" stroke-miterlimit="10" d="M 1562.023774 528.203209 L 2037.976226 528.203209 " transform="matrix(0.0995044, 0, 0, -0.0995044, 0.892035, 111.882775)"/>
<path fill="none" stroke-width="5" stroke-linecap="round" stroke-linejoin="round" stroke="rgb(0%, 0%, 0%)" stroke-opacity="1" stroke-miterlimit="10" d="M 1562.023774 596.196416 L 2037.976226 596.196416 " transform="matrix(0.0995044, 0, 0, -0.0995044, 0.892035, 111.882775)"/>
<path fill="none" stroke-width="5" stroke-linecap="round" stroke-linejoin="round" stroke="rgb(0%, 0%, 0%)" stroke-opacity="1" stroke-miterlimit="10" d="M 1562.023774 664.150367 L 2037.976226 664.150367 " transform="matrix(0.0995044, 0, 0, -0.0995044, 0.892035, 111.882775)"/>
<path fill="none" stroke-width="5" stroke-linecap="round" stroke-linejoin="round" stroke="rgb(0%, 0%, 0%)" stroke-opacity="1" stroke-miterlimit="10" d="M 1562.023774 732.143574 L 2037.976226 732.143574 " transform="matrix(0.0995044, 0, 0, -0.0995044, 0.892035, 111.882775)"/>
<path fill="none" stroke-width="5" stroke-linecap="round" stroke-linejoin="round" stroke="rgb(0%, 0%, 0%)" stroke-opacity="1" stroke-miterlimit="10" d="M 1562.023774 800.136782 L 2037.976226 800.136782 " transform="matrix(0.0995044, 0, 0, -0.0995044, 0.892035, 111.882775)"/>
<path fill="none" stroke-width="5" stroke-linecap="round" stroke-linejoin="round" stroke="rgb(0%, 0%, 0%)" stroke-opacity="1" stroke-miterlimit="10" d="M 1562.023774 868.129989 L 2037.976226 868.129989 " transform="matrix(0.0995044, 0, 0, -0.0995044, 0.892035, 111.882775)"/>
<path fill="none" stroke-width="5" stroke-linecap="round" stroke-linejoin="round" stroke="rgb(0%, 0%, 0%)" stroke-opacity="1" stroke-miterlimit="10" d="M 1562.023774 936.123197 L 2037.976226 936.123197 " transform="matrix(0.0995044, 0, 0, -0.0995044, 0.892035, 111.882775)"/>
<path fill="none" stroke-width="5" stroke-linecap="round" stroke-linejoin="round" stroke="rgb(0%, 0%, 0%)" stroke-opacity="1" stroke-miterlimit="10" d="M 1562.023774 1004.116404 L 2037.976226 1004.116404 " transform="matrix(0.0995044, 0, 0, -0.0995044, 0.892035, 111.882775)"/>
<path fill="none" stroke-width="5" stroke-linecap="round" stroke-linejoin="round" stroke="rgb(0%, 0%, 0%)" stroke-opacity="1" stroke-miterlimit="10" d="M 1562.023774 1072.109612 L 2037.976226 1072.109612 " transform="matrix(0.0995044, 0, 0, -0.0995044, 0.892035, 111.882775)"/>
<path fill="none" stroke-width="5" stroke-linecap="round" stroke-linejoin="round" stroke="rgb(0%, 0%, 0%)" stroke-opacity="1" stroke-miterlimit="10" d="M 1562.023774 52.250757 L 1562.023774 1072.109612 " transform="matrix(0.0995044, 0, 0, -0.0995044, 0.892035, 111.882775)"/>
<path fill="none" stroke-width="5" stroke-linecap="round" stroke-linejoin="round" stroke="rgb(0%, 0%, 0%)" stroke-opacity="1" stroke-miterlimit="10" d="M 1630.016981 52.250757 L 1630.016981 1072.109612 " transform="matrix(0.0995044, 0, 0, -0.0995044, 0.892035, 111.882775)"/>
<path fill="none" stroke-width="5" stroke-linecap="round" stroke-linejoin="round" stroke="rgb(0%, 0%, 0%)" stroke-opacity="1" stroke-miterlimit="10" d="M 1698.010189 52.250757 L 1698.010189 1072.109612 " transform="matrix(0.0995044, 0, 0, -0.0995044, 0.892035, 111.882775)"/>
<path fill="none" stroke-width="5" stroke-linecap="round" stroke-linejoin="round" stroke="rgb(0%, 0%, 0%)" stroke-opacity="1" stroke-miterlimit="10" d="M 1766.003396 52.250757 L 1766.003396 1072.109612 " transform="matrix(0.0995044, 0, 0, -0.0995044, 0.892035, 111.882775)"/>
<path fill="none" stroke-width="5" stroke-linecap="round" stroke-linejoin="round" stroke="rgb(0%, 0%, 0%)" stroke-opacity="1" stroke-miterlimit="10" d="M 1833.996604 52.250757 L 1833.996604 1072.109612 " transform="matrix(0.0995044, 0, 0, -0.0995044, 0.892035, 111.882775)"/>
<path fill="none" stroke-width="5" stroke-linecap="round" stroke-linejoin="round" stroke="rgb(0%, 0%, 0%)" stroke-opacity="1" stroke-miterlimit="10" d="M 1901.989811 52.250757 L 1901.989811 1072.109612 " transform="matrix(0.0995044, 0, 0, -0.0995044, 0.892035, 111.882775)"/>
<path fill="none" stroke-width="5" stroke-linecap="round" stroke-linejoin="round" stroke="rgb(0%, 0%, 0%)" stroke-opacity="1" stroke-miterlimit="10" d="M 1969.983019 52.250757 L 1969.983019 1072.109612 " transform="matrix(0.0995044, 0, 0, -0.0995044, 0.892035, 111.882775)"/>
<path fill="none" stroke-width="5" stroke-linecap="round" stroke-linejoin="round" stroke="rgb(0%, 0%, 0%)" stroke-opacity="1" stroke-miterlimit="10" d="M 2037.976226 52.250757 L 2037.976226 1072.109612 " transform="matrix(0.0995044, 0, 0, -0.0995044, 0.892035, 111.882775)"/>
<path fill-rule="nonzero" fill="rgb(0%, 100%, 0%)" fill-opacity="1" d="M 260 45.796875 L 293.824219 45.796875 L 280.292969 11.96875 L 260 11.96875 "/>
<path fill="none" stroke-width="5" stroke-linecap="round" stroke-linejoin="round" stroke="rgb(0%, 0%, 0%)" stroke-opacity="1" stroke-miterlimit="10" d="M 2603.984347 664.150367 L 2943.911128 664.150367 L 2807.924713 1004.116404 L 2603.984347 1004.116404 L 2603.984347 664.150367 " transform="matrix(0.0995044, 0, 0, -0.0995044, 0.892035, 111.882775)"/>
<path fill-rule="nonzero" fill="rgb(100%, 0%, 0%)" fill-opacity="1" d="M 280.292969 11.96875 L 300.589844 11.96875 L 300.589844 66.089844 "/>
<path fill="none" stroke-width="5" stroke-linecap="round" stroke-linejoin="round" stroke="rgb(0%, 0%, 0%)" stroke-opacity="1" stroke-miterlimit="10" d="M 2807.924713 1004.116404 L 3011.904335 1004.116404 L 3011.904335 460.210001 L 2807.924713 1004.116404 " transform="matrix(0.0995044, 0, 0, -0.0995044, 0.892035, 111.882775)"/>
<path fill-rule="nonzero" fill="rgb(0%, 0%, 100%)" fill-opacity="1" d="M 300.589844 66.089844 L 334.417969 66.089844 L 334.417969 99.917969 L 314.121094 99.917969 "/>
<path fill="none" stroke-width="5" stroke-linecap="round" stroke-linejoin="round" stroke="rgb(0%, 0%, 0%)" stroke-opacity="1" stroke-miterlimit="10" d="M 3011.904335 460.210001 L 3351.870373 460.210001 L 3351.870373 120.243964 L 3147.89075 120.243964 L 3011.904335 460.210001 " transform="matrix(0.0995044, 0, 0, -0.0995044, 0.892035, 111.882775)"/>
<path fill-rule="nonzero" fill="rgb(100%, 100%, 0%)" fill-opacity="1" d="M 293.824219 45.796875 L 314.121094 99.917969 L 293.824219 99.917969 "/>
<path fill="none" stroke-width="5" stroke-linecap="round" stroke-linejoin="round" stroke="rgb(0%, 0%, 0%)" stroke-opacity="1" stroke-miterlimit="10" d="M 2943.911128 664.150367 L 3147.89075 120.243964 L 2943.911128 120.243964 L 2943.911128 664.150367 " transform="matrix(0.0995044, 0, 0, -0.0995044, 0.892035, 111.882775)"/>
<path fill="none" stroke-width="5" stroke-linecap="round" stroke-linejoin="round" stroke="rgb(0%, 0%, 0%)" stroke-opacity="1" stroke-miterlimit="10" d="M 2535.99114 52.250757 L 3419.824323 52.250757 " transform="matrix(0.0995044, 0, 0, -0.0995044, 0.892035, 111.882775)"/>
<path fill="none" stroke-width="5" stroke-linecap="round" stroke-linejoin="round" stroke="rgb(0%, 0%, 0%)" stroke-opacity="1" stroke-miterlimit="10" d="M 2535.99114 120.243964 L 3419.824323 120.243964 " transform="matrix(0.0995044, 0, 0, -0.0995044, 0.892035, 111.882775)"/>
<path fill="none" stroke-width="5" stroke-linecap="round" stroke-linejoin="round" stroke="rgb(0%, 0%, 0%)" stroke-opacity="1" stroke-miterlimit="10" d="M 2535.99114 188.237171 L 3419.824323 188.237171 " transform="matrix(0.0995044, 0, 0, -0.0995044, 0.892035, 111.882775)"/>
<path fill="none" stroke-width="5" stroke-linecap="round" stroke-linejoin="round" stroke="rgb(0%, 0%, 0%)" stroke-opacity="1" stroke-miterlimit="10" d="M 2535.99114 256.230379 L 3419.824323 256.230379 " transform="matrix(0.0995044, 0, 0, -0.0995044, 0.892035, 111.882775)"/>
<path fill="none" stroke-width="5" stroke-linecap="round" stroke-linejoin="round" stroke="rgb(0%, 0%, 0%)" stroke-opacity="1" stroke-miterlimit="10" d="M 2535.99114 324.223586 L 3419.824323 324.223586 " transform="matrix(0.0995044, 0, 0, -0.0995044, 0.892035, 111.882775)"/>
<path fill="none" stroke-width="5" stroke-linecap="round" stroke-linejoin="round" stroke="rgb(0%, 0%, 0%)" stroke-opacity="1" stroke-miterlimit="10" d="M 2535.99114 392.216794 L 3419.824323 392.216794 " transform="matrix(0.0995044, 0, 0, -0.0995044, 0.892035, 111.882775)"/>
<path fill="none" stroke-width="5" stroke-linecap="round" stroke-linejoin="round" stroke="rgb(0%, 0%, 0%)" stroke-opacity="1" stroke-miterlimit="10" d="M 2535.99114 460.210001 L 3419.824323 460.210001 " transform="matrix(0.0995044, 0, 0, -0.0995044, 0.892035, 111.882775)"/>
<path fill="none" stroke-width="5" stroke-linecap="round" stroke-linejoin="round" stroke="rgb(0%, 0%, 0%)" stroke-opacity="1" stroke-miterlimit="10" d="M 2535.99114 528.203209 L 3419.824323 528.203209 " transform="matrix(0.0995044, 0, 0, -0.0995044, 0.892035, 111.882775)"/>
<path fill="none" stroke-width="5" stroke-linecap="round" stroke-linejoin="round" stroke="rgb(0%, 0%, 0%)" stroke-opacity="1" stroke-miterlimit="10" d="M 2535.99114 596.157159 L 3419.824323 596.157159 " transform="matrix(0.0995044, 0, 0, -0.0995044, 0.892035, 111.882775)"/>
<path fill="none" stroke-width="5" stroke-linecap="round" stroke-linejoin="round" stroke="rgb(0%, 0%, 0%)" stroke-opacity="1" stroke-miterlimit="10" d="M 2535.99114 664.150367 L 3419.824323 664.150367 " transform="matrix(0.0995044, 0, 0, -0.0995044, 0.892035, 111.882775)"/>
<path fill="none" stroke-width="5" stroke-linecap="round" stroke-linejoin="round" stroke="rgb(0%, 0%, 0%)" stroke-opacity="1" stroke-miterlimit="10" d="M 2535.99114 732.143574 L 3419.824323 732.143574 " transform="matrix(0.0995044, 0, 0, -0.0995044, 0.892035, 111.882775)"/>
<path fill="none" stroke-width="5" stroke-linecap="round" stroke-linejoin="round" stroke="rgb(0%, 0%, 0%)" stroke-opacity="1" stroke-miterlimit="10" d="M 2535.99114 800.136782 L 3419.824323 800.136782 " transform="matrix(0.0995044, 0, 0, -0.0995044, 0.892035, 111.882775)"/>
<path fill="none" stroke-width="5" stroke-linecap="round" stroke-linejoin="round" stroke="rgb(0%, 0%, 0%)" stroke-opacity="1" stroke-miterlimit="10" d="M 2535.99114 868.129989 L 3419.824323 868.129989 " transform="matrix(0.0995044, 0, 0, -0.0995044, 0.892035, 111.882775)"/>
<path fill="none" stroke-width="5" stroke-linecap="round" stroke-linejoin="round" stroke="rgb(0%, 0%, 0%)" stroke-opacity="1" stroke-miterlimit="10" d="M 2535.99114 936.123197 L 3419.824323 936.123197 " transform="matrix(0.0995044, 0, 0, -0.0995044, 0.892035, 111.882775)"/>
<path fill="none" stroke-width="5" stroke-linecap="round" stroke-linejoin="round" stroke="rgb(0%, 0%, 0%)" stroke-opacity="1" stroke-miterlimit="10" d="M 2535.99114 1004.116404 L 3419.824323 1004.116404 " transform="matrix(0.0995044, 0, 0, -0.0995044, 0.892035, 111.882775)"/>
<path fill="none" stroke-width="5" stroke-linecap="round" stroke-linejoin="round" stroke="rgb(0%, 0%, 0%)" stroke-opacity="1" stroke-miterlimit="10" d="M 2535.99114 1072.109612 L 3419.824323 1072.109612 " transform="matrix(0.0995044, 0, 0, -0.0995044, 0.892035, 111.882775)"/>
<path fill="none" stroke-width="5" stroke-linecap="round" stroke-linejoin="round" stroke="rgb(0%, 0%, 0%)" stroke-opacity="1" stroke-miterlimit="10" d="M 2535.99114 52.250757 L 2535.99114 1072.109612 " transform="matrix(0.0995044, 0, 0, -0.0995044, 0.892035, 111.882775)"/>
<path fill="none" stroke-width="5" stroke-linecap="round" stroke-linejoin="round" stroke="rgb(0%, 0%, 0%)" stroke-opacity="1" stroke-miterlimit="10" d="M 2603.984347 52.250757 L 2603.984347 1072.109612 " transform="matrix(0.0995044, 0, 0, -0.0995044, 0.892035, 111.882775)"/>
<path fill="none" stroke-width="5" stroke-linecap="round" stroke-linejoin="round" stroke="rgb(0%, 0%, 0%)" stroke-opacity="1" stroke-miterlimit="10" d="M 2671.977555 52.250757 L 2671.977555 1072.109612 " transform="matrix(0.0995044, 0, 0, -0.0995044, 0.892035, 111.882775)"/>
<path fill="none" stroke-width="5" stroke-linecap="round" stroke-linejoin="round" stroke="rgb(0%, 0%, 0%)" stroke-opacity="1" stroke-miterlimit="10" d="M 2739.931505 52.250757 L 2739.931505 1072.109612 " transform="matrix(0.0995044, 0, 0, -0.0995044, 0.892035, 111.882775)"/>
<path fill="none" stroke-width="5" stroke-linecap="round" stroke-linejoin="round" stroke="rgb(0%, 0%, 0%)" stroke-opacity="1" stroke-miterlimit="10" d="M 2807.924713 52.250757 L 2807.924713 1072.109612 " transform="matrix(0.0995044, 0, 0, -0.0995044, 0.892035, 111.882775)"/>
<path fill="none" stroke-width="5" stroke-linecap="round" stroke-linejoin="round" stroke="rgb(0%, 0%, 0%)" stroke-opacity="1" stroke-miterlimit="10" d="M 2875.91792 52.250757 L 2875.91792 1072.109612 " transform="matrix(0.0995044, 0, 0, -0.0995044, 0.892035, 111.882775)"/>
<path fill="none" stroke-width="5" stroke-linecap="round" stroke-linejoin="round" stroke="rgb(0%, 0%, 0%)" stroke-opacity="1" stroke-miterlimit="10" d="M 2943.911128 52.250757 L 2943.911128 1072.109612 " transform="matrix(0.0995044, 0, 0, -0.0995044, 0.892035, 111.882775)"/>
<path fill="none" stroke-width="5" stroke-linecap="round" stroke-linejoin="round" stroke="rgb(0%, 0%, 0%)" stroke-opacity="1" stroke-miterlimit="10" d="M 3011.904335 52.250757 L 3011.904335 1072.109612 " transform="matrix(0.0995044, 0, 0, -0.0995044, 0.892035, 111.882775)"/>
<path fill="none" stroke-width="5" stroke-linecap="round" stroke-linejoin="round" stroke="rgb(0%, 0%, 0%)" stroke-opacity="1" stroke-miterlimit="10" d="M 3079.897543 52.250757 L 3079.897543 1072.109612 " transform="matrix(0.0995044, 0, 0, -0.0995044, 0.892035, 111.882775)"/>
<path fill="none" stroke-width="5" stroke-linecap="round" stroke-linejoin="round" stroke="rgb(0%, 0%, 0%)" stroke-opacity="1" stroke-miterlimit="10" d="M 3147.89075 52.250757 L 3147.89075 1072.109612 " transform="matrix(0.0995044, 0, 0, -0.0995044, 0.892035, 111.882775)"/>
<path fill="none" stroke-width="5" stroke-linecap="round" stroke-linejoin="round" stroke="rgb(0%, 0%, 0%)" stroke-opacity="1" stroke-miterlimit="10" d="M 3215.883958 52.250757 L 3215.883958 1072.109612 " transform="matrix(0.0995044, 0, 0, -0.0995044, 0.892035, 111.882775)"/>
<path fill="none" stroke-width="5" stroke-linecap="round" stroke-linejoin="round" stroke="rgb(0%, 0%, 0%)" stroke-opacity="1" stroke-miterlimit="10" d="M 3283.877165 52.250757 L 3283.877165 1072.109612 " transform="matrix(0.0995044, 0, 0, -0.0995044, 0.892035, 111.882775)"/>
<path fill="none" stroke-width="5" stroke-linecap="round" stroke-linejoin="round" stroke="rgb(0%, 0%, 0%)" stroke-opacity="1" stroke-miterlimit="10" d="M 3351.870373 52.250757 L 3351.870373 1072.109612 " transform="matrix(0.0995044, 0, 0, -0.0995044, 0.892035, 111.882775)"/>
<path fill="none" stroke-width="5" stroke-linecap="round" stroke-linejoin="round" stroke="rgb(0%, 0%, 0%)" stroke-opacity="1" stroke-miterlimit="10" d="M 3419.824323 52.250757 L 3419.824323 1072.109612 " transform="matrix(0.0995044, 0, 0, -0.0995044, 0.892035, 111.882775)"/>
</svg>
