<?xml version="1.0" encoding="UTF-8"?>
<svg xmlns="http://www.w3.org/2000/svg" xmlns:xlink="http://www.w3.org/1999/xlink" width="225.36" height="202.93" viewBox="0 0 225.36 202.93">
<defs>
<clipPath id="clip-0">
<path clip-rule="nonzero" d="M 0 0.253906 L 224.722656 0.253906 L 224.722656 202.609375 L 0 202.609375 Z M 0 0.253906 "/>
</clipPath>
</defs>
<path fill="none" stroke-width="30.181" stroke-linecap="round" stroke-linejoin="round" stroke="rgb(0%, 0%, 0%)" stroke-opacity="1" stroke-miterlimit="10" d="M 1135.637841 1089.710427 L 1722.534223 1421.62693 M 547.057 1423.11552 L 1135.637841 1089.710427 M 1135.637841 1089.710427 L 1133.013221 407.348386 M 1749.759759 270.515583 L 1133.013221 407.348386 " transform="matrix(0.0997168, 0, 0, -0.0997168, -0.00000000000000322, 202.607765)"/>
<path fill-rule="nonzero" fill="rgb(82.03125%, 47.851562%, 40.795898%)" fill-opacity="1" d="M 155.953125 119.789062 L 171.109375 87.746094 L 142.628906 92.148438 "/>
<path fill="none" stroke-width="5" stroke-linecap="round" stroke-linejoin="round" stroke="rgb(0%, 0%, 0%)" stroke-opacity="1" stroke-miterlimit="10" d="M 1563.960164 830.53899 L 1715.953086 1151.878666 " transform="matrix(0.0997168, 0, 0, -0.0997168, -0.00000000000000322, 202.607765)"/>
<path fill-rule="nonzero" fill="rgb(75.78125%, 82.03125%, 90.234375%)" fill-opacity="1" d="M 149.492188 91.085938 L 113.070312 45.160156 L 112.511719 96.800781 "/>
<path fill="none" stroke-width="5" stroke-linecap="round" stroke-linejoin="round" stroke="rgb(0%, 0%, 0%)" stroke-opacity="1" stroke-miterlimit="10" d="M 1499.167305 1118.38538 L 1133.914209 1578.947439 " transform="matrix(0.0997168, 0, 0, -0.0997168, -0.00000000000000322, 202.607765)"/>
<path fill-rule="nonzero" fill="rgb(82.03125%, 47.851562%, 40.795898%)" fill-opacity="1" d="M 112.511719 96.800781 L 155.953125 119.789062 L 127.46875 60.695312 "/>
<path fill-rule="nonzero" fill="rgb(36.083984%, 25.87738%, 59.959412%)" fill-opacity="1" d="M 70.007812 119.628906 L 90.007812 66.65625 L 112.511719 96.800781 "/>
<path fill="none" stroke-width="5" stroke-linecap="round" stroke-linejoin="round" stroke="rgb(0%, 0%, 0%)" stroke-opacity="1" stroke-miterlimit="10" d="M 702.066277 832.145101 L 902.634257 1363.376034 " transform="matrix(0.0997168, 0, 0, -0.0997168, -0.00000000000000322, 202.607765)"/>
<path fill-rule="nonzero" fill="rgb(75.78125%, 82.03125%, 90.234375%)" fill-opacity="1" d="M 113.070312 45.160156 L 76.851562 49.027344 L 112.511719 96.800781 "/>
<path fill="none" stroke-width="5" stroke-linecap="round" stroke-linejoin="round" stroke="rgb(0%, 0%, 0%)" stroke-opacity="1" stroke-miterlimit="10" d="M 1133.914209 1578.947439 L 770.698133 1540.16574 " transform="matrix(0.0997168, 0, 0, -0.0997168, -0.00000000000000322, 202.607765)"/>
<path fill-rule="nonzero" fill="rgb(36.083984%, 25.87738%, 59.959412%)" fill-opacity="1" d="M 90.007812 66.65625 L 112.511719 7.066406 L 112.511719 96.800781 "/>
<path fill="none" stroke-width="5" stroke-linecap="round" stroke-linejoin="round" stroke="rgb(0%, 0%, 0%)" stroke-opacity="1" stroke-miterlimit="10" d="M 902.634257 1363.376034 L 1128.312408 1960.966764 " transform="matrix(0.0997168, 0, 0, -0.0997168, -0.00000000000000322, 202.607765)"/>
<path fill-rule="nonzero" fill="rgb(36.083984%, 25.87738%, 59.959412%)" fill-opacity="1" d="M 90.558594 149.800781 L 70.007812 119.628906 L 112.511719 96.800781 "/>
<path fill="none" stroke-width="5" stroke-linecap="round" stroke-linejoin="round" stroke="rgb(0%, 0%, 0%)" stroke-opacity="1" stroke-miterlimit="10" d="M 908.157712 529.569499 L 702.066277 832.145101 " transform="matrix(0.0997168, 0, 0, -0.0997168, -0.00000000000000322, 202.607765)"/>
<path fill-rule="nonzero" fill="rgb(82.03125%, 47.851562%, 40.795898%)" fill-opacity="1" d="M 98.636719 130.292969 L 155.953125 119.789062 L 112.511719 96.800781 "/>
<path fill="none" stroke-width="5" stroke-linecap="round" stroke-linejoin="round" stroke="rgb(0%, 0%, 0%)" stroke-opacity="1" stroke-miterlimit="10" d="M 989.168372 725.201627 L 1563.960164 830.53899 " transform="matrix(0.0997168, 0, 0, -0.0997168, -0.00000000000000322, 202.607765)"/>
<path fill-rule="nonzero" fill="rgb(75.78125%, 82.03125%, 90.234375%)" fill-opacity="1" d="M 190.152344 142.347656 L 149.492188 91.085938 L 131.910156 122.785156 "/>
<path fill="none" stroke-width="5" stroke-linecap="round" stroke-linejoin="round" stroke="rgb(0%, 0%, 0%)" stroke-opacity="1" stroke-miterlimit="10" d="M 1906.923575 604.312411 L 1499.167305 1118.38538 " transform="matrix(0.0997168, 0, 0, -0.0997168, -0.00000000000000322, 202.607765)"/>
<path fill-rule="nonzero" fill="rgb(36.083984%, 25.87738%, 59.959412%)" fill-opacity="1" d="M 136.652344 129.144531 L 112.511719 182.039062 L 112.511719 96.800781 "/>
<path fill="none" stroke-width="5" stroke-linecap="round" stroke-linejoin="round" stroke="rgb(0%, 0%, 0%)" stroke-opacity="1" stroke-miterlimit="10" d="M 1370.404228 736.718616 L 1128.312408 206.271152 " transform="matrix(0.0997168, 0, 0, -0.0997168, -0.00000000000000322, 202.607765)"/>
<path fill-rule="nonzero" fill="rgb(36.083984%, 25.87738%, 59.959412%)" fill-opacity="1" d="M 112.511719 182.039062 L 90.558594 149.800781 L 112.511719 96.800781 "/>
<path fill="none" stroke-width="5" stroke-linecap="round" stroke-linejoin="round" stroke="rgb(0%, 0%, 0%)" stroke-opacity="1" stroke-miterlimit="10" d="M 1128.312408 206.271152 L 908.157712 529.569499 " transform="matrix(0.0997168, 0, 0, -0.0997168, -0.00000000000000322, 202.607765)"/>
<path fill-rule="nonzero" fill="rgb(75.78125%, 82.03125%, 90.234375%)" fill-opacity="1" d="M 111.839844 158.953125 L 112.511719 158.808594 L 112.511719 157.746094 "/>
<path fill="none" stroke-width="5" stroke-linecap="round" stroke-linejoin="round" stroke="rgb(0%, 0%, 0%)" stroke-opacity="1" stroke-miterlimit="10" d="M 1121.574578 437.786144 L 1128.312408 439.235561 " transform="matrix(0.0997168, 0, 0, -0.0997168, -0.00000000000000322, 202.607765)"/>
<path fill-rule="nonzero" fill="rgb(75.78125%, 82.03125%, 90.234375%)" fill-opacity="1" d="M 112.511719 158.808594 L 152.472656 150.339844 L 112.511719 157.746094 "/>
<path fill="none" stroke-width="5" stroke-linecap="round" stroke-linejoin="round" stroke="rgb(0%, 0%, 0%)" stroke-opacity="1" stroke-miterlimit="10" d="M 1128.312408 439.235561 L 1529.056634 524.163566 " transform="matrix(0.0997168, 0, 0, -0.0997168, -0.00000000000000322, 202.607765)"/>
<path fill-rule="nonzero" fill="rgb(75.78125%, 82.03125%, 90.234375%)" fill-opacity="1" d="M 131.910156 122.785156 L 112.511719 157.746094 L 152.472656 150.339844 "/>
<path fill-rule="nonzero" fill="rgb(75.78125%, 82.03125%, 90.234375%)" fill-opacity="1" d="M 152.472656 150.339844 L 190.152344 142.347656 L 131.910156 122.785156 "/>
<path fill="none" stroke-width="5" stroke-linecap="round" stroke-linejoin="round" stroke="rgb(0%, 0%, 0%)" stroke-opacity="1" stroke-miterlimit="10" d="M 1529.056634 524.163566 L 1906.923575 604.312411 " transform="matrix(0.0997168, 0, 0, -0.0997168, -0.00000000000000322, 202.607765)"/>
<path fill-rule="nonzero" fill="rgb(75.78125%, 82.03125%, 90.234375%)" fill-opacity="1" d="M 112.511719 96.800781 L 111.839844 158.953125 L 149.492188 91.085938 "/>
<path fill-rule="nonzero" fill="rgb(82.03125%, 47.851562%, 40.795898%)" fill-opacity="1" d="M 187.382812 53.339844 L 127.46875 60.695312 L 142.628906 92.148438 "/>
<path fill="none" stroke-width="5" stroke-linecap="round" stroke-linejoin="round" stroke="rgb(0%, 0%, 0%)" stroke-opacity="1" stroke-miterlimit="10" d="M 1879.149611 1496.918269 L 1278.307486 1423.154694 " transform="matrix(0.0997168, 0, 0, -0.0997168, -0.00000000000000322, 202.607765)"/>
<path fill-rule="nonzero" fill="rgb(82.03125%, 47.851562%, 40.795898%)" fill-opacity="1" d="M 171.109375 87.746094 L 187.382812 53.339844 L 142.628906 92.148438 "/>
<path fill="none" stroke-width="5" stroke-linecap="round" stroke-linejoin="round" stroke="rgb(0%, 0%, 0%)" stroke-opacity="1" stroke-miterlimit="10" d="M 1715.953086 1151.878666 L 1879.149611 1496.918269 " transform="matrix(0.0997168, 0, 0, -0.0997168, -0.00000000000000322, 202.607765)"/>
<path fill-rule="nonzero" fill="rgb(36.083984%, 25.87738%, 59.959412%)" fill-opacity="1" d="M 164.042969 69.125 L 136.652344 129.144531 L 112.511719 96.800781 "/>
<path fill="none" stroke-width="5" stroke-linecap="round" stroke-linejoin="round" stroke="rgb(0%, 0%, 0%)" stroke-opacity="1" stroke-miterlimit="10" d="M 1645.088345 1338.618424 L 1370.404228 736.718616 " transform="matrix(0.0997168, 0, 0, -0.0997168, -0.00000000000000322, 202.607765)"/>
<path fill-rule="nonzero" fill="rgb(36.083984%, 25.87738%, 59.959412%)" fill-opacity="1" d="M 112.511719 7.066406 L 137.3125 36.933594 L 112.511719 96.800781 "/>
<path fill="none" stroke-width="5" stroke-linecap="round" stroke-linejoin="round" stroke="rgb(0%, 0%, 0%)" stroke-opacity="1" stroke-miterlimit="10" d="M 1128.312408 1960.966764 L 1377.024539 1661.44669 " transform="matrix(0.0997168, 0, 0, -0.0997168, -0.00000000000000322, 202.607765)"/>
<path fill-rule="nonzero" fill="rgb(36.083984%, 25.87738%, 59.959412%)" fill-opacity="1" d="M 137.3125 36.933594 L 164.042969 69.125 L 112.511719 96.800781 "/>
<path fill="none" stroke-width="5" stroke-linecap="round" stroke-linejoin="round" stroke="rgb(0%, 0%, 0%)" stroke-opacity="1" stroke-miterlimit="10" d="M 1377.024539 1661.44669 L 1645.088345 1338.618424 " transform="matrix(0.0997168, 0, 0, -0.0997168, -0.00000000000000322, 202.607765)"/>
<path fill-rule="nonzero" fill="rgb(82.03125%, 47.851562%, 40.795898%)" fill-opacity="1" d="M 34.605469 142.023438 L 98.636719 130.292969 L 112.511719 96.800781 "/>
<path fill="none" stroke-width="5" stroke-linecap="round" stroke-linejoin="round" stroke="rgb(0%, 0%, 0%)" stroke-opacity="1" stroke-miterlimit="10" d="M 347.037448 607.563806 L 989.168372 725.201627 " transform="matrix(0.0997168, 0, 0, -0.0997168, -0.00000000000000322, 202.607765)"/>
<path fill-rule="nonzero" fill="rgb(75.78125%, 82.03125%, 90.234375%)" fill-opacity="1" d="M 38.117188 53.160156 L 72.808594 102.9375 L 112.511719 96.800781 "/>
<path fill="none" stroke-width="5" stroke-linecap="round" stroke-linejoin="round" stroke="rgb(0%, 0%, 0%)" stroke-opacity="1" stroke-miterlimit="10" d="M 382.254365 1498.720247 L 730.153629 999.533182 " transform="matrix(0.0997168, 0, 0, -0.0997168, -0.00000000000000322, 202.607765)"/>
<path fill-rule="nonzero" fill="rgb(82.03125%, 47.851562%, 40.795898%)" fill-opacity="1" d="M 59.949219 68.984375 L 46.769531 106.960938 L 112.511719 96.800781 "/>
<path fill="none" stroke-width="5" stroke-linecap="round" stroke-linejoin="round" stroke="rgb(0%, 0%, 0%)" stroke-opacity="1" stroke-miterlimit="10" d="M 601.194686 1340.028667 L 469.023521 959.184546 " transform="matrix(0.0997168, 0, 0, -0.0997168, -0.00000000000000322, 202.607765)"/>
<path fill-rule="nonzero" fill="rgb(82.03125%, 47.851562%, 40.795898%)" fill-opacity="1" d="M 46.769531 106.960938 L 34.605469 142.023438 L 112.511719 96.800781 "/>
<path fill="none" stroke-width="5" stroke-linecap="round" stroke-linejoin="round" stroke="rgb(0%, 0%, 0%)" stroke-opacity="1" stroke-miterlimit="10" d="M 469.023521 959.184546 L 347.037448 607.563806 " transform="matrix(0.0997168, 0, 0, -0.0997168, -0.00000000000000322, 202.607765)"/>
<path fill-rule="nonzero" fill="rgb(75.78125%, 82.03125%, 90.234375%)" fill-opacity="1" d="M 72.808594 102.9375 L 111.839844 158.953125 L 112.511719 96.800781 "/>
<path fill="none" stroke-width="5" stroke-linecap="round" stroke-linejoin="round" stroke="rgb(0%, 0%, 0%)" stroke-opacity="1" stroke-miterlimit="10" d="M 730.153629 999.533182 L 1121.574578 437.786144 " transform="matrix(0.0997168, 0, 0, -0.0997168, -0.00000000000000322, 202.607765)"/>
<path fill-rule="nonzero" fill="rgb(75.78125%, 82.03125%, 90.234375%)" fill-opacity="1" d="M 76.851562 49.027344 L 38.117188 53.160156 L 112.511719 96.800781 "/>
<path fill="none" stroke-width="5" stroke-linecap="round" stroke-linejoin="round" stroke="rgb(0%, 0%, 0%)" stroke-opacity="1" stroke-miterlimit="10" d="M 770.698133 1540.16574 L 382.254365 1498.720247 " transform="matrix(0.0997168, 0, 0, -0.0997168, -0.00000000000000322, 202.607765)"/>
<path fill-rule="nonzero" fill="rgb(82.03125%, 47.851562%, 40.795898%)" fill-opacity="1" d="M 127.46875 60.695312 L 59.949219 68.984375 L 112.511719 96.800781 "/>
<path fill="none" stroke-width="5" stroke-linecap="round" stroke-linejoin="round" stroke="rgb(0%, 0%, 0%)" stroke-opacity="1" stroke-miterlimit="10" d="M 1278.307486 1423.154694 L 601.194686 1340.028667 " transform="matrix(0.0997168, 0, 0, -0.0997168, -0.00000000000000322, 202.607765)"/>
<g clip-path="url(#clip-0)">
<path fill="none" stroke-width="30.181" stroke-linecap="round" stroke-linejoin="round" stroke="rgb(0%, 0%, 0%)" stroke-opacity="1" stroke-miterlimit="10" d="M 644.050422 1709.825881 L 747.037379 2014.20346 M 579.766818 1519.795554 L 644.050422 1709.825881 M 510.704054 273.492764 L 830.55514 342.320487 M 830.55514 342.320487 L 1009.460211 380.788798 M 1923.885672 1184.000881 L 2136.75411 932.820825 M 1800.215142 1329.961095 L 1923.885672 1184.000881 M 1517.931379 2013.655032 L 1703.966015 1475.412054 M 126.804405 936.346434 L 485.045455 1351.271443 M 126.804405 936.346434 L 510.704054 273.492764 M 510.704054 273.492764 L 701.361155 17.337681 M 1546.763026 15.104796 L 1749.759759 270.515583 M 1749.759759 270.515583 L 2136.75411 932.820825 M 15.081772 1202.647436 L 126.804405 936.346434 M 2136.75411 932.820825 L 2238.487517 1199.317694 M 1517.931379 2013.655032 L 747.037379 2014.20346 M 747.037379 2014.20346 L 438.037335 1939.186335 M 1816.119556 1938.128652 L 1517.931379 2013.655032 M 388.052033 611.95123 L 701.361155 17.337681 M 701.361155 17.337681 L 1546.763026 15.104796 M 1695.191166 301.619289 L 1854.27448 608.856529 M 1546.763026 15.104796 L 1695.191166 301.619289 M 438.037335 1939.186335 L 15.081772 1202.647436 M 195.514607 916.916411 L 388.052033 611.95123 M 15.081772 1202.647436 L 195.514607 916.916411 M 1854.27448 608.856529 L 2238.487517 1199.317694 M 1816.119556 1938.128652 L 2238.487517 1199.317694 M 438.037335 1939.186335 L 1122.436393 1883.716753 M 1122.436393 1883.716753 L 1480.755791 1911.804105 M 1480.755791 1911.804105 L 1816.119556 1938.128652 M 1118.40153 1022.371294 L 388.052033 611.95123 M 1854.27448 608.856529 L 1118.40153 1022.371294 M 1118.40153 1022.371294 L 1122.436393 1883.716753 " transform="matrix(0.0997168, 0, 0, -0.0997168, -0.00000000000000322, 202.607765)"/>
</g>
</svg>
