<?xml version="1.0" encoding="UTF-8"?>
<svg xmlns="http://www.w3.org/2000/svg" xmlns:xlink="http://www.w3.org/1999/xlink" width="144.75" height="157.87" viewBox="0 0 144.75 157.87">
<path fill-rule="nonzero" fill="rgb(62.5%, 51.756287%, 71.09375%)" fill-opacity="1" d="M 57.203125 88.296875 L 116.28125 107.976562 L 102.0625 42.597656 "/>
<path fill="none" stroke-width="5" stroke-linecap="round" stroke-linejoin="round" stroke="rgb(0%, 0%, 0%)" stroke-opacity="1" stroke-miterlimit="10" d="M 573.019214 694.91956 L 1164.820812 497.782794 L 1022.387737 1152.701025 Z M 573.019214 694.91956 " transform="matrix(0.0998276, 0, 0, -0.0998276, -0.000000000000003775, 157.669017)"/>
<path fill-rule="nonzero" fill="rgb(86.521912%, 75.78125%, 74.021912%)" fill-opacity="1" d="M 22.167969 126.234375 L 57.203125 88.296875 L 8.945312 57.707031 "/>
<path fill="none" stroke-width="5" stroke-linecap="round" stroke-linejoin="round" stroke="rgb(0%, 0%, 0%)" stroke-opacity="1" stroke-miterlimit="10" d="M 222.062554 314.889335 L 573.019214 694.91956 L 89.607621 1001.346319 Z M 222.062554 314.889335 " transform="matrix(0.0998276, 0, 0, -0.0998276, -0.000000000000003775, 157.669017)"/>
<path fill-rule="nonzero" fill="rgb(75.78125%, 51.171875%, 55.859375%)" fill-opacity="1" stroke-width="5" stroke-linecap="round" stroke-linejoin="round" stroke="rgb(0%, 0%, 0%)" stroke-opacity="1" stroke-miterlimit="10" d="M 89.607621 1001.346319 L 573.019214 694.91956 L 1022.387737 1152.701025 " transform="matrix(0.0998276, 0, 0, -0.0998276, -0.000000000000003775, 157.669017)"/>
<path fill-rule="nonzero" fill="rgb(66.796875%, 73.4375%, 89.84375%)" fill-opacity="1" stroke-width="5" stroke-linecap="round" stroke-linejoin="round" stroke="rgb(0%, 0%, 0%)" stroke-opacity="1" stroke-miterlimit="10" d="M 1164.820812 497.782794 L 573.019214 694.91956 L 222.062554 314.889335 " transform="matrix(0.0998276, 0, 0, -0.0998276, -0.000000000000003775, 157.669017)"/>
<path fill-rule="nonzero" fill="rgb(37.010193%, 0%, 13.890076%)" fill-opacity="1" d="M 102.0625 42.597656 L 121.894531 24.800781 L 55.699219 7.261719 "/>
<path fill="none" stroke-width="5" stroke-linecap="round" stroke-linejoin="round" stroke="rgb(0%, 0%, 0%)" stroke-opacity="1" stroke-miterlimit="10" d="M 1022.387737 1152.701025 L 1221.050572 1330.977148 L 557.954177 1506.670693 Z M 1022.387737 1152.701025 " transform="matrix(0.0998276, 0, 0, -0.0998276, -0.000000000000003775, 157.669017)"/>
<path fill-rule="nonzero" fill="rgb(7.495117%, 0%, 45.188904%)" fill-opacity="1" stroke-width="5" stroke-linecap="round" stroke-linejoin="round" stroke="rgb(0%, 0%, 0%)" stroke-opacity="1" stroke-miterlimit="10" d="M 1387.783355 585.551306 L 1221.050572 1330.977148 L 1022.387737 1152.701025 " transform="matrix(0.0998276, 0, 0, -0.0998276, -0.000000000000003775, 157.669017)"/>
<path fill-rule="nonzero" fill="rgb(7.495117%, 0%, 45.188904%)" fill-opacity="1" stroke-width="5" stroke-linecap="round" stroke-linejoin="round" stroke="rgb(0%, 0%, 0%)" stroke-opacity="1" stroke-miterlimit="10" d="M 1022.387737 1152.701025 L 1164.820812 497.782794 L 1387.783355 585.551306 " transform="matrix(0.0998276, 0, 0, -0.0998276, -0.000000000000003775, 157.669017)"/>
<path fill-rule="nonzero" fill="rgb(75.78125%, 51.171875%, 55.859375%)" fill-opacity="1" stroke-width="5" stroke-linecap="round" stroke-linejoin="round" stroke="rgb(0%, 0%, 0%)" stroke-opacity="1" stroke-miterlimit="10" d="M 1022.387737 1152.701025 L 557.954177 1506.670693 L 89.607621 1001.346319 " transform="matrix(0.0998276, 0, 0, -0.0998276, -0.000000000000003775, 157.669017)"/>
<path fill-rule="nonzero" fill="rgb(0%, 23.997498%, 75.193787%)" fill-opacity="1" d="M 138.539062 99.214844 L 116.28125 107.976562 L 85.320312 150 "/>
<path fill="none" stroke-width="5" stroke-linecap="round" stroke-linejoin="round" stroke="rgb(0%, 0%, 0%)" stroke-opacity="1" stroke-miterlimit="10" d="M 1387.783355 585.551306 L 1164.820812 497.782794 L 854.676706 76.822625 Z M 1387.783355 585.551306 " transform="matrix(0.0998276, 0, 0, -0.0998276, -0.000000000000003775, 157.669017)"/>
<path fill-rule="nonzero" fill="rgb(66.796875%, 73.4375%, 89.84375%)" fill-opacity="1" stroke-width="5" stroke-linecap="round" stroke-linejoin="round" stroke="rgb(0%, 0%, 0%)" stroke-opacity="1" stroke-miterlimit="10" d="M 222.062554 314.889335 L 854.676706 76.822625 L 1164.820812 497.782794 " transform="matrix(0.0998276, 0, 0, -0.0998276, -0.000000000000003775, 157.669017)"/>
<path fill-rule="nonzero" fill="rgb(68.75%, 17.601013%, 0%)" fill-opacity="1" d="M 8.945312 57.707031 L 55.699219 7.261719 L 16.011719 41.253906 "/>
<path fill="none" stroke-width="5" stroke-linecap="round" stroke-linejoin="round" stroke="rgb(0%, 0%, 0%)" stroke-opacity="1" stroke-miterlimit="10" d="M 89.607621 1001.346319 L 557.954177 1506.670693 L 160.393728 1166.161734 Z M 89.607621 1001.346319 " transform="matrix(0.0998276, 0, 0, -0.0998276, -0.000000000000003775, 157.669017)"/>
<path fill-rule="nonzero" fill="rgb(0%, 0%, 17.993164%)" fill-opacity="1" stroke-width="5" stroke-linecap="round" stroke-linejoin="round" stroke="rgb(0%, 0%, 0%)" stroke-opacity="1" stroke-miterlimit="10" d="M 89.607621 1001.346319 L 160.393728 1166.161734 L 314.213623 379.532038 " transform="matrix(0.0998276, 0, 0, -0.0998276, -0.000000000000003775, 157.669017)"/>
<path fill-rule="nonzero" fill="rgb(0%, 0%, 17.993164%)" fill-opacity="1" stroke-width="5" stroke-linecap="round" stroke-linejoin="round" stroke="rgb(0%, 0%, 0%)" stroke-opacity="1" stroke-miterlimit="10" d="M 314.213623 379.532038 L 222.062554 314.889335 L 89.607621 1001.346319 " transform="matrix(0.0998276, 0, 0, -0.0998276, -0.000000000000003775, 157.669017)"/>
<path fill-rule="nonzero" fill="rgb(1.800537%, 0%, 0%)" fill-opacity="1" d="M 31.367188 119.78125 L 85.320312 150 L 22.167969 126.234375 "/>
<path fill="none" stroke-width="5" stroke-linecap="round" stroke-linejoin="round" stroke="rgb(0%, 0%, 0%)" stroke-opacity="1" stroke-miterlimit="10" d="M 314.213623 379.532038 L 854.676706 76.822625 L 222.062554 314.889335 Z M 314.213623 379.532038 " transform="matrix(0.0998276, 0, 0, -0.0998276, -0.000000000000003775, 157.669017)"/>
<path fill-rule="nonzero" fill="rgb(63.671875%, 77.146912%, 94.53125%)" fill-opacity="1" stroke-width="5" stroke-linecap="round" stroke-linejoin="round" stroke="rgb(0%, 0%, 0%)" stroke-opacity="1" stroke-miterlimit="10" d="M 875.219937 948.912165 L 160.393728 1166.161734 L 557.954177 1506.670693 " transform="matrix(0.0998276, 0, 0, -0.0998276, -0.000000000000003775, 157.669017)"/>
<path fill-rule="nonzero" fill="rgb(63.671875%, 77.146912%, 94.53125%)" fill-opacity="1" stroke-width="5" stroke-linecap="round" stroke-linejoin="round" stroke="rgb(0%, 0%, 0%)" stroke-opacity="1" stroke-miterlimit="10" d="M 557.954177 1506.670693 L 1221.050572 1330.977148 L 875.219937 948.912165 " transform="matrix(0.0998276, 0, 0, -0.0998276, -0.000000000000003775, 157.669017)"/>
<path fill-rule="nonzero" fill="rgb(76.5625%, 48.802185%, 51.171875%)" fill-opacity="1" stroke-width="5" stroke-linecap="round" stroke-linejoin="round" stroke="rgb(0%, 0%, 0%)" stroke-opacity="1" stroke-miterlimit="10" d="M 1387.783355 585.551306 L 854.676706 76.822625 L 314.213623 379.532038 " transform="matrix(0.0998276, 0, 0, -0.0998276, -0.000000000000003775, 157.669017)"/>
<path fill-rule="nonzero" fill="rgb(91.014099%, 81.25%, 73.826599%)" fill-opacity="1" d="M 87.371094 62.941406 L 121.894531 24.800781 L 138.539062 99.214844 "/>
<path fill="none" stroke-width="5" stroke-linecap="round" stroke-linejoin="round" stroke="rgb(0%, 0%, 0%)" stroke-opacity="1" stroke-miterlimit="10" d="M 875.219937 948.912165 L 1221.050572 1330.977148 L 1387.783355 585.551306 Z M 875.219937 948.912165 " transform="matrix(0.0998276, 0, 0, -0.0998276, -0.000000000000003775, 157.669017)"/>
<path fill-rule="nonzero" fill="rgb(76.5625%, 48.802185%, 51.171875%)" fill-opacity="1" stroke-width="5" stroke-linecap="round" stroke-linejoin="round" stroke="rgb(0%, 0%, 0%)" stroke-opacity="1" stroke-miterlimit="10" d="M 314.213623 379.532038 L 875.219937 948.912165 L 1387.783355 585.551306 " transform="matrix(0.0998276, 0, 0, -0.0998276, -0.000000000000003775, 157.669017)"/>
<path fill-rule="nonzero" fill="rgb(59.959412%, 49.804688%, 71.09375%)" fill-opacity="1" d="M 16.011719 41.253906 L 87.371094 62.941406 L 31.367188 119.78125 "/>
<path fill="none" stroke-width="5" stroke-linecap="round" stroke-linejoin="round" stroke="rgb(0%, 0%, 0%)" stroke-opacity="1" stroke-miterlimit="10" d="M 160.393728 1166.161734 L 875.219937 948.912165 L 314.213623 379.532038 Z M 160.393728 1166.161734 " transform="matrix(0.0998276, 0, 0, -0.0998276, -0.000000000000003775, 157.669017)"/>
<path fill="none" stroke-width="5" stroke-linecap="round" stroke-linejoin="round" stroke="rgb(0%, 0%, 0%)" stroke-opacity="1" stroke-miterlimit="10" d="M 1050.717832 1152.427116 L 1061.478573 1154.187964 " transform="matrix(0.0998276, 0, 0, -0.0998276, -0.000000000000003775, 157.669017)"/>
<path fill="none" stroke-width="5" stroke-linecap="round" stroke-linejoin="round" stroke="rgb(0%, 0%, 0%)" stroke-opacity="1" stroke-miterlimit="10" d="M 504.776554 1063.719484 L 516.045984 1065.558592 " transform="matrix(0.0998276, 0, 0, -0.0998276, -0.000000000000003775, 157.669017)"/>
<path fill="none" stroke-width="5" stroke-linecap="round" stroke-linejoin="round" stroke="rgb(0%, 0%, 0%)" stroke-opacity="1" stroke-miterlimit="10" d="M 516.045984 1065.558592 L 1050.717832 1152.427116 " transform="matrix(0.0998276, 0, 0, -0.0998276, -0.000000000000003775, 157.669017)"/>
<path fill="none" stroke-width="5" stroke-linecap="round" stroke-linejoin="round" stroke="rgb(0%, 0%, 0%)" stroke-opacity="1" stroke-miterlimit="10" d="M 1061.478573 1154.187964 L 1063.122032 1146.401101 " transform="matrix(0.0998276, 0, 0, -0.0998276, -0.000000000000003775, 157.669017)"/>
<path fill="none" stroke-width="5" stroke-linecap="round" stroke-linejoin="round" stroke="rgb(0%, 0%, 0%)" stroke-opacity="1" stroke-miterlimit="10" d="M 1146.194948 766.449136 L 1147.916667 758.505753 " transform="matrix(0.0998276, 0, 0, -0.0998276, -0.000000000000003775, 157.669017)"/>
<path fill="none" stroke-width="5" stroke-linecap="round" stroke-linejoin="round" stroke="rgb(0%, 0%, 0%)" stroke-opacity="1" stroke-miterlimit="10" d="M 1063.122032 1146.401101 L 1146.194948 766.449136 " transform="matrix(0.0998276, 0, 0, -0.0998276, -0.000000000000003775, 157.669017)"/>
<path fill="none" stroke-width="5" stroke-linecap="round" stroke-linejoin="round" stroke="rgb(0%, 0%, 0%)" stroke-opacity="1" stroke-miterlimit="10" d="M 1137.116796 756.588385 L 1147.916667 758.505753 " transform="matrix(0.0998276, 0, 0, -0.0998276, -0.000000000000003775, 157.669017)"/>
<path fill="none" stroke-width="5" stroke-linecap="round" stroke-linejoin="round" stroke="rgb(0%, 0%, 0%)" stroke-opacity="1" stroke-miterlimit="10" d="M 587.692951 656.767843 L 599.079771 658.841731 " transform="matrix(0.0998276, 0, 0, -0.0998276, -0.000000000000003775, 157.669017)"/>
<path fill="none" stroke-width="5" stroke-linecap="round" stroke-linejoin="round" stroke="rgb(0%, 0%, 0%)" stroke-opacity="1" stroke-miterlimit="10" d="M 599.079771 658.841731 L 1137.116796 756.588385 " transform="matrix(0.0998276, 0, 0, -0.0998276, -0.000000000000003775, 157.669017)"/>
<path fill="none" stroke-width="5" stroke-linecap="round" stroke-linejoin="round" stroke="rgb(0%, 0%, 0%)" stroke-opacity="1" stroke-miterlimit="10" d="M 504.776554 1063.719484 L 506.380883 1055.736971 " transform="matrix(0.0998276, 0, 0, -0.0998276, -0.000000000000003775, 157.669017)"/>
<path fill="none" stroke-width="5" stroke-linecap="round" stroke-linejoin="round" stroke="rgb(0%, 0%, 0%)" stroke-opacity="1" stroke-miterlimit="10" d="M 586.049493 664.906876 L 587.692951 656.767843 " transform="matrix(0.0998276, 0, 0, -0.0998276, -0.000000000000003775, 157.669017)"/>
<path fill="none" stroke-width="5" stroke-linecap="round" stroke-linejoin="round" stroke="rgb(0%, 0%, 0%)" stroke-opacity="1" stroke-miterlimit="10" d="M 506.380883 1055.736971 L 586.049493 664.906876 " transform="matrix(0.0998276, 0, 0, -0.0998276, -0.000000000000003775, 157.669017)"/>
</svg>
