<?xml version="1.0" encoding="UTF-8"?>
<svg xmlns="http://www.w3.org/2000/svg" xmlns:xlink="http://www.w3.org/1999/xlink" width="200" height="212.5" viewBox="0 0 200 212.5">
<defs>
<clipPath id="clip-0">
<path clip-rule="nonzero" d="M 190 11 L 199.765625 11 L 199.765625 22 L 190 22 Z M 190 11 "/>
</clipPath>
</defs>
<path fill="none" stroke-width="100" stroke-linecap="round" stroke-linejoin="round" stroke="rgb(0%, 0%, 0%)" stroke-opacity="1" stroke-miterlimit="10" d="M 285.706066 288.697243 L 285.706066 288.697243 " transform="matrix(0.0997653, 0, 0, -0.0997653, 0.234742, 212.001174)"/>
<path fill="none" stroke-width="100" stroke-linecap="round" stroke-linejoin="round" stroke="rgb(0%, 0%, 0%)" stroke-opacity="1" stroke-miterlimit="10" d="M 523.804044 288.697243 L 523.804044 288.697243 " transform="matrix(0.0997653, 0, 0, -0.0997653, 0.234742, 212.001174)"/>
<path fill="none" stroke-width="100" stroke-linecap="round" stroke-linejoin="round" stroke="rgb(0%, 0%, 0%)" stroke-opacity="1" stroke-miterlimit="10" d="M 285.706066 526.795221 L 285.706066 526.795221 " transform="matrix(0.0997653, 0, 0, -0.0997653, 0.234742, 212.001174)"/>
<path fill="none" stroke-width="100" stroke-linecap="round" stroke-linejoin="round" stroke="rgb(0%, 0%, 0%)" stroke-opacity="1" stroke-miterlimit="10" d="M 523.804044 526.795221 L 523.804044 526.795221 " transform="matrix(0.0997653, 0, 0, -0.0997653, 0.234742, 212.001174)"/>
<path fill="none" stroke-width="100" stroke-linecap="round" stroke-linejoin="round" stroke="rgb(0%, 0%, 0%)" stroke-opacity="1" stroke-miterlimit="10" d="M 285.706066 764.893199 L 285.706066 764.893199 " transform="matrix(0.0997653, 0, 0, -0.0997653, 0.234742, 212.001174)"/>
<path fill="none" stroke-width="100" stroke-linecap="round" stroke-linejoin="round" stroke="rgb(0%, 0%, 0%)" stroke-opacity="1" stroke-miterlimit="10" d="M 523.804044 764.893199 L 523.804044 764.893199 " transform="matrix(0.0997653, 0, 0, -0.0997653, 0.234742, 212.001174)"/>
<path fill="none" stroke-width="100" stroke-linecap="round" stroke-linejoin="round" stroke="rgb(0%, 0%, 0%)" stroke-opacity="1" stroke-miterlimit="10" d="M 285.706066 1002.991176 L 285.706066 1002.991176 " transform="matrix(0.0997653, 0, 0, -0.0997653, 0.234742, 212.001174)"/>
<path fill="none" stroke-width="100" stroke-linecap="round" stroke-linejoin="round" stroke="rgb(0%, 0%, 0%)" stroke-opacity="1" stroke-miterlimit="10" d="M 523.804044 1002.991176 L 523.804044 1002.991176 " transform="matrix(0.0997653, 0, 0, -0.0997653, 0.234742, 212.001174)"/>
<path fill="none" stroke-width="100" stroke-linecap="round" stroke-linejoin="round" stroke="rgb(0%, 0%, 0%)" stroke-opacity="1" stroke-miterlimit="10" d="M 761.902022 1002.991176 L 761.902022 1002.991176 " transform="matrix(0.0997653, 0, 0, -0.0997653, 0.234742, 212.001174)"/>
<path fill="none" stroke-width="100" stroke-linecap="round" stroke-linejoin="round" stroke="rgb(0%, 0%, 0%)" stroke-opacity="1" stroke-miterlimit="10" d="M 285.706066 1241.089154 L 285.706066 1241.089154 " transform="matrix(0.0997653, 0, 0, -0.0997653, 0.234742, 212.001174)"/>
<path fill="none" stroke-width="100" stroke-linecap="round" stroke-linejoin="round" stroke="rgb(0%, 0%, 0%)" stroke-opacity="1" stroke-miterlimit="10" d="M 523.804044 1241.089154 L 523.804044 1241.089154 " transform="matrix(0.0997653, 0, 0, -0.0997653, 0.234742, 212.001174)"/>
<path fill="none" stroke-width="100" stroke-linecap="round" stroke-linejoin="round" stroke="rgb(0%, 0%, 0%)" stroke-opacity="1" stroke-miterlimit="10" d="M 761.902022 1241.089154 L 761.902022 1241.089154 " transform="matrix(0.0997653, 0, 0, -0.0997653, 0.234742, 212.001174)"/>
<path fill="none" stroke-width="100" stroke-linecap="round" stroke-linejoin="round" stroke="rgb(0%, 0%, 0%)" stroke-opacity="1" stroke-miterlimit="10" d="M 285.706066 1479.147978 L 285.706066 1479.147978 " transform="matrix(0.0997653, 0, 0, -0.0997653, 0.234742, 212.001174)"/>
<path fill="none" stroke-width="100" stroke-linecap="round" stroke-linejoin="round" stroke="rgb(0%, 0%, 0%)" stroke-opacity="1" stroke-miterlimit="10" d="M 523.804044 1479.147978 L 523.804044 1479.147978 " transform="matrix(0.0997653, 0, 0, -0.0997653, 0.234742, 212.001174)"/>
<path fill="none" stroke-width="100" stroke-linecap="round" stroke-linejoin="round" stroke="rgb(0%, 0%, 0%)" stroke-opacity="1" stroke-miterlimit="10" d="M 761.902022 1479.147978 L 761.902022 1479.147978 " transform="matrix(0.0997653, 0, 0, -0.0997653, 0.234742, 212.001174)"/>
<path fill="none" stroke-width="100" stroke-linecap="round" stroke-linejoin="round" stroke="rgb(0%, 0%, 0%)" stroke-opacity="1" stroke-miterlimit="10" d="M 1000 1479.147978 L 1000 1479.147978 " transform="matrix(0.0997653, 0, 0, -0.0997653, 0.234742, 212.001174)"/>
<path fill="none" stroke-width="100" stroke-linecap="round" stroke-linejoin="round" stroke="rgb(0%, 0%, 0%)" stroke-opacity="1" stroke-miterlimit="10" d="M 1238.097978 1479.147978 L 1238.097978 1479.147978 " transform="matrix(0.0997653, 0, 0, -0.0997653, 0.234742, 212.001174)"/>
<path fill="none" stroke-width="100" stroke-linecap="round" stroke-linejoin="round" stroke="rgb(0%, 0%, 0%)" stroke-opacity="1" stroke-miterlimit="10" d="M 285.706066 1717.245956 L 285.706066 1717.245956 " transform="matrix(0.0997653, 0, 0, -0.0997653, 0.234742, 212.001174)"/>
<path fill="none" stroke-width="100" stroke-linecap="round" stroke-linejoin="round" stroke="rgb(0%, 0%, 0%)" stroke-opacity="1" stroke-miterlimit="10" d="M 523.804044 1717.245956 L 523.804044 1717.245956 " transform="matrix(0.0997653, 0, 0, -0.0997653, 0.234742, 212.001174)"/>
<path fill="none" stroke-width="100" stroke-linecap="round" stroke-linejoin="round" stroke="rgb(0%, 0%, 0%)" stroke-opacity="1" stroke-miterlimit="10" d="M 761.902022 1717.245956 L 761.902022 1717.245956 " transform="matrix(0.0997653, 0, 0, -0.0997653, 0.234742, 212.001174)"/>
<path fill="none" stroke-width="100" stroke-linecap="round" stroke-linejoin="round" stroke="rgb(0%, 0%, 0%)" stroke-opacity="1" stroke-miterlimit="10" d="M 1000 1717.245956 L 1000 1717.245956 " transform="matrix(0.0997653, 0, 0, -0.0997653, 0.234742, 212.001174)"/>
<path fill="none" stroke-width="100" stroke-linecap="round" stroke-linejoin="round" stroke="rgb(0%, 0%, 0%)" stroke-opacity="1" stroke-miterlimit="10" d="M 1238.097978 1717.245956 L 1238.097978 1717.245956 " transform="matrix(0.0997653, 0, 0, -0.0997653, 0.234742, 212.001174)"/>
<path fill="none" stroke-width="100" stroke-linecap="round" stroke-linejoin="round" stroke="rgb(0%, 0%, 0%)" stroke-opacity="1" stroke-miterlimit="10" d="M 285.706066 1955.343934 L 285.706066 1955.343934 " transform="matrix(0.0997653, 0, 0, -0.0997653, 0.234742, 212.001174)"/>
<path fill="none" stroke-width="100" stroke-linecap="round" stroke-linejoin="round" stroke="rgb(0%, 0%, 0%)" stroke-opacity="1" stroke-miterlimit="10" d="M 523.804044 1955.343934 L 523.804044 1955.343934 " transform="matrix(0.0997653, 0, 0, -0.0997653, 0.234742, 212.001174)"/>
<path fill="none" stroke-width="100" stroke-linecap="round" stroke-linejoin="round" stroke="rgb(0%, 0%, 0%)" stroke-opacity="1" stroke-miterlimit="10" d="M 761.902022 1955.343934 L 761.902022 1955.343934 " transform="matrix(0.0997653, 0, 0, -0.0997653, 0.234742, 212.001174)"/>
<path fill="none" stroke-width="100" stroke-linecap="round" stroke-linejoin="round" stroke="rgb(0%, 0%, 0%)" stroke-opacity="1" stroke-miterlimit="10" d="M 1000 1955.343934 L 1000 1955.343934 " transform="matrix(0.0997653, 0, 0, -0.0997653, 0.234742, 212.001174)"/>
<path fill="none" stroke-width="100" stroke-linecap="round" stroke-linejoin="round" stroke="rgb(0%, 0%, 0%)" stroke-opacity="1" stroke-miterlimit="10" d="M 1238.097978 1955.343934 L 1238.097978 1955.343934 " transform="matrix(0.0997653, 0, 0, -0.0997653, 0.234742, 212.001174)"/>
<path fill="none" stroke-width="100" stroke-linecap="round" stroke-linejoin="round" stroke="rgb(0%, 0%, 0%)" stroke-opacity="1" stroke-miterlimit="10" d="M 1476.195956 1955.343934 L 1476.195956 1955.343934 " transform="matrix(0.0997653, 0, 0, -0.0997653, 0.234742, 212.001174)"/>
<path fill="none" stroke-width="100" stroke-linecap="round" stroke-linejoin="round" stroke="rgb(0%, 0%, 0%)" stroke-opacity="1" stroke-miterlimit="10" d="M 1714.293934 1955.343934 L 1714.293934 1955.343934 " transform="matrix(0.0997653, 0, 0, -0.0997653, 0.234742, 212.001174)"/>
<g clip-path="url(#clip-0)">
<path fill="none" stroke-width="100" stroke-linecap="round" stroke-linejoin="round" stroke="rgb(0%, 0%, 0%)" stroke-opacity="1" stroke-miterlimit="10" d="M 1952.391912 1955.343934 L 1952.391912 1955.343934 " transform="matrix(0.0997653, 0, 0, -0.0997653, 0.234742, 212.001174)"/>
</g>
<path fill="none" stroke-width="5" stroke-linecap="round" stroke-linejoin="round" stroke="rgb(100%, 0%, 0%)" stroke-opacity="1" stroke-miterlimit="10" d="M 166.676654 2074.4125 L 880.970588 2074.4125 L 880.970588 1360.118566 L 166.676654 1360.118566 L 166.676654 2074.4125 " transform="matrix(0.0997653, 0, 0, -0.0997653, 0.234742, 212.001174)"/>
</svg>
