<?xml version="1.0" encoding="UTF-8"?>
<svg xmlns="http://www.w3.org/2000/svg" xmlns:xlink="http://www.w3.org/1999/xlink" width="260" height="195" viewBox="0 0 260 195">
<path fill-rule="evenodd" fill="rgb(0%, 0%, 0%)" fill-opacity="1" d="M 9.765625 34.753906 C 9.765625 34.671875 9.765625 34.617188 9.375 34.164062 C 7.082031 31.441406 5.800781 26.996094 5.800781 21.496094 C 5.800781 16.269531 6.878906 11.769531 9.535156 8.589844 C 9.765625 8.347656 9.765625 8.292969 9.765625 8.214844 C 9.765625 8.054688 9.652344 8 9.558594 8 C 9.269531 8 7.414062 9.9375 6.304688 12.578125 C 5.152344 15.300781 4.632812 18.183594 4.632812 21.496094 C 4.632812 23.894531 4.949219 27.101562 6.125 29.984375 C 7.460938 33.214844 9.3125 34.96875 9.558594 34.96875 C 9.652344 34.96875 9.765625 34.914062 9.765625 34.753906 "/>
<path fill-rule="evenodd" fill="rgb(0%, 0%, 0%)" fill-opacity="1" d="M 17.6875 24.339844 C 17.6875 24.207031 17.589844 24.101562 17.445312 24.101562 C 17.226562 24.101562 17.199219 24.179688 17.078125 24.636719 C 16.445312 27.078125 15.441406 27.914062 14.636719 27.914062 C 14.34375 27.914062 14 27.835938 14 27.023438 C 14 26.300781 14.300781 25.492188 14.574219 24.6875 L 16.324219 19.679688 C 16.394531 19.464844 16.570312 18.980469 16.570312 18.472656 C 16.570312 17.339844 15.871094 16.316406 14.722656 16.316406 C 12.578125 16.316406 11.710938 20.230469 11.710938 20.445312 C 11.710938 20.550781 11.808594 20.6875 11.976562 20.6875 C 12.195312 20.6875 12.222656 20.582031 12.316406 20.207031 C 12.902344 17.964844 13.824219 16.898438 14.769531 16.898438 C 14.988281 16.898438 15.402344 16.898438 15.402344 17.761719 C 15.402344 18.460938 15.078125 19.351562 14.878906 19.945312 L 13.132812 24.964844 C 12.980469 25.394531 12.832031 25.824219 12.832031 26.3125 C 12.832031 27.527344 13.558594 28.496094 14.6875 28.496094 C 16.84375 28.496094 17.6875 24.53125 17.6875 24.339844 Z M 17.507812 11.578125 C 17.507812 11.175781 17.234375 10.695312 16.738281 10.695312 C 16.222656 10.695312 15.636719 11.28125 15.636719 11.972656 C 15.636719 12.640625 16.109375 12.851562 16.382812 12.851562 C 16.988281 12.851562 17.507812 12.160156 17.507812 11.578125 Z M 27.09375 19.652344 C 27.183594 19.222656 27.183594 18.847656 27.183594 18.734375 C 27.183594 17.175781 26.1875 16.316406 25.144531 16.316406 C 22.804688 16.316406 21.554688 20.265625 21.554688 20.453125 C 21.554688 20.589844 21.648438 20.695312 21.785156 20.695312 C 21.96875 20.695312 21.988281 20.589844 22.105469 20.320312 C 23.023438 17.730469 24.171875 16.898438 25.046875 16.898438 C 25.527344 16.898438 25.78125 17.195312 25.78125 18.128906 C 25.78125 18.769531 25.710938 19.039062 25.621094 19.519531 L 23.453125 29.605469 C 23.015625 31.585938 21.941406 33.078125 20.6875 33.078125 C 20.59375 33.078125 20.117188 33.078125 19.683594 32.816406 C 20.214844 32.679688 20.640625 32.175781 20.640625 31.53125 C 20.640625 31.105469 20.371094 30.675781 19.882812 30.675781 C 19.300781 30.675781 18.769531 31.273438 18.769531 32.085938 C 18.769531 33.199219 19.777344 33.660156 20.71875 33.660156 C 22.300781 33.660156 24.386719 32.292969 24.960938 29.601562 Z M 27.886719 11.578125 C 27.886719 10.910156 27.410156 10.695312 27.140625 10.695312 C 26.535156 10.695312 26.015625 11.386719 26.015625 11.972656 C 26.015625 12.371094 26.285156 12.851562 26.78125 12.851562 C 27.300781 12.851562 27.886719 12.269531 27.886719 11.578125 "/>
<path fill-rule="evenodd" fill="rgb(0%, 0%, 0%)" fill-opacity="1" d="M 34.992188 10.296875 C 35.011719 10.191406 35.058594 10.03125 35.058594 9.898438 C 35.058594 9.617188 34.832031 9.617188 34.785156 9.617188 C 34.765625 9.617188 33.9375 9.714844 33.527344 9.777344 C 33.140625 9.8125 32.796875 9.875 32.382812 9.875 C 31.832031 9.929688 31.671875 9.953125 31.671875 10.429688 C 31.671875 10.695312 31.902344 10.695312 32.132812 10.695312 C 33.300781 10.695312 33.300781 10.933594 33.300781 11.195312 C 33.300781 11.304688 33.300781 11.359375 33.1875 11.839844 L 29.90625 27.132812 C 29.816406 27.535156 29.816406 27.589844 29.816406 27.75 C 29.816406 28.382812 30.207031 28.496094 30.433594 28.496094 C 31.078125 28.496094 31.214844 27.898438 31.398438 27.050781 L 32.476562 21.957031 C 34.121094 22.171875 35.109375 22.984375 35.109375 24.285156 C 35.109375 24.445312 35.109375 24.554688 35.039062 24.960938 C 34.945312 25.367188 34.945312 25.691406 34.945312 25.828125 C 34.945312 27.421875 35.816406 28.496094 36.984375 28.496094 C 38.035156 28.496094 38.589844 27.34375 38.769531 26.964844 C 39.253906 25.949219 39.546875 24.421875 39.546875 24.3125 C 39.546875 24.175781 39.457031 24.066406 39.320312 24.066406 C 39.109375 24.066406 39.085938 24.175781 38.992188 24.609375 C 38.671875 26.019531 38.1875 27.914062 37.007812 27.914062 C 36.542969 27.914062 36.242188 27.644531 36.242188 26.613281 C 36.242188 26.097656 36.332031 25.5 36.421875 25.09375 C 36.511719 24.605469 36.511719 24.582031 36.511719 24.257812 C 36.511719 22.65625 35.3125 21.761719 33.230469 21.4375 C 34.054688 20.855469 34.882812 19.828125 35.203125 19.429688 C 36.511719 17.742188 37.402344 16.898438 38.457031 16.898438 C 38.984375 16.898438 39.121094 17.054688 39.28125 17.210938 C 38.457031 17.3125 38.148438 17.984375 38.148438 18.5 C 38.148438 19.121094 38.570312 19.324219 38.882812 19.324219 C 39.484375 19.324219 40.015625 18.71875 40.015625 17.875 C 40.015625 17.109375 39.492188 16.316406 38.464844 16.316406 C 37.203125 16.316406 36.179688 17.359375 34.554688 19.488281 C 34.328125 19.8125 33.484375 20.820312 32.636719 21.195312 L 34.992188 10.296875 "/>
<path fill-rule="evenodd" fill="rgb(0%, 0%, 0%)" fill-opacity="1" d="M 48.785156 21.496094 C 48.785156 19.449219 48.558594 16.105469 47.292969 12.984375 C 45.960938 9.753906 44.109375 8 43.859375 8 C 43.769531 8 43.65625 8.054688 43.65625 8.214844 C 43.65625 8.292969 43.65625 8.347656 44.046875 8.804688 C 46.335938 11.527344 47.617188 15.972656 47.617188 21.472656 C 47.617188 26.695312 46.539062 31.195312 43.886719 34.378906 C 43.65625 34.617188 43.65625 34.671875 43.65625 34.753906 C 43.65625 34.914062 43.769531 34.96875 43.859375 34.96875 C 44.152344 34.96875 46.007812 33.03125 47.113281 30.386719 C 48.269531 27.640625 48.785156 24.726562 48.785156 21.496094 "/>
<path fill-rule="evenodd" fill="rgb(0%, 0%, 0%)" fill-opacity="1" d="M 55.761719 10.535156 C 55.773438 10.273438 55.773438 9.824219 55.382812 9.824219 C 55.144531 9.824219 54.949219 10.066406 54.949219 10.308594 L 54.949219 10.554688 L 55.222656 13.449219 L 53.183594 11.710938 C 53.039062 11.617188 53.011719 11.578125 52.898438 11.578125 C 52.675781 11.578125 52.46875 11.84375 52.46875 12.105469 C 52.46875 12.402344 52.628906 12.476562 52.785156 12.570312 L 55.042969 13.84375 L 52.851562 15.09375 C 52.59375 15.242188 52.46875 15.316406 52.46875 15.597656 C 52.46875 15.878906 52.675781 16.121094 52.898438 16.121094 C 53.011719 16.121094 53.039062 16.121094 53.4375 15.765625 L 55.222656 14.253906 L 54.949219 17.390625 C 54.949219 17.785156 55.230469 17.878906 55.355469 17.878906 C 55.539062 17.878906 55.773438 17.746094 55.773438 17.390625 L 55.597656 14.253906 L 57.589844 15.988281 C 57.726562 16.085938 57.757812 16.121094 57.867188 16.121094 C 58.085938 16.121094 58.289062 15.859375 58.289062 15.597656 C 58.289062 15.316406 58.148438 15.222656 57.960938 15.113281 C 57.023438 14.550781 56.992188 14.550781 55.761719 13.859375 L 57.914062 12.605469 C 58.164062 12.457031 58.289062 12.386719 58.289062 12.105469 C 58.289062 11.824219 58.085938 11.578125 57.867188 11.578125 C 57.757812 11.578125 57.726562 11.578125 57.339844 11.933594 L 55.597656 13.449219 L 55.761719 10.535156 "/>
<path fill-rule="evenodd" fill="rgb(0%, 0%, 0%)" fill-opacity="1" d="M 189.007812 10.296875 C 189.027344 10.191406 189.074219 10.03125 189.074219 9.898438 C 189.074219 9.617188 188.84375 9.617188 188.800781 9.617188 C 188.78125 9.617188 187.953125 9.714844 187.542969 9.777344 C 187.152344 9.8125 186.8125 9.875 186.398438 9.875 C 185.847656 9.929688 185.6875 9.953125 185.6875 10.429688 C 185.6875 10.695312 185.914062 10.695312 186.144531 10.695312 C 187.316406 10.695312 187.316406 10.933594 187.316406 11.195312 C 187.316406 11.304688 187.316406 11.359375 187.203125 11.839844 L 183.921875 27.132812 C 183.832031 27.535156 183.832031 27.589844 183.832031 27.75 C 183.832031 28.382812 184.222656 28.496094 184.449219 28.496094 C 185.089844 28.496094 185.230469 27.898438 185.410156 27.050781 L 186.488281 21.957031 C 188.136719 22.171875 189.121094 22.984375 189.121094 24.285156 C 189.121094 24.445312 189.121094 24.554688 189.054688 24.960938 C 188.960938 25.367188 188.960938 25.691406 188.960938 25.828125 C 188.960938 27.421875 189.832031 28.496094 191 28.496094 C 192.050781 28.496094 192.605469 27.34375 192.785156 26.964844 C 193.269531 25.949219 193.5625 24.421875 193.5625 24.3125 C 193.5625 24.175781 193.472656 24.066406 193.335938 24.066406 C 193.125 24.066406 193.101562 24.175781 193.007812 24.609375 C 192.6875 26.019531 192.203125 27.914062 191.023438 27.914062 C 190.558594 27.914062 190.257812 27.644531 190.257812 26.613281 C 190.257812 26.097656 190.347656 25.5 190.4375 25.09375 C 190.523438 24.605469 190.523438 24.582031 190.523438 24.257812 C 190.523438 22.65625 189.328125 21.761719 187.246094 21.4375 C 188.070312 20.855469 188.898438 19.828125 189.21875 19.429688 C 190.523438 17.742188 191.417969 16.898438 192.472656 16.898438 C 192.996094 16.898438 193.136719 17.054688 193.296875 17.210938 C 192.472656 17.3125 192.160156 17.984375 192.160156 18.5 C 192.160156 19.121094 192.585938 19.324219 192.894531 19.324219 C 193.5 19.324219 194.03125 18.71875 194.03125 17.875 C 194.03125 17.109375 193.507812 16.316406 192.480469 16.316406 C 191.21875 16.316406 190.191406 17.359375 188.570312 19.488281 C 188.339844 19.8125 187.496094 20.820312 186.648438 21.195312 L 189.007812 10.296875 "/>
<path fill-rule="evenodd" fill="rgb(0%, 0%, 0%)" fill-opacity="1" d="M 199.648438 10.535156 C 199.664062 10.273438 199.664062 9.824219 199.273438 9.824219 C 199.03125 9.824219 198.835938 10.066406 198.835938 10.308594 L 198.835938 10.554688 L 199.113281 13.449219 L 197.074219 11.710938 C 196.929688 11.617188 196.898438 11.578125 196.789062 11.578125 C 196.5625 11.578125 196.355469 11.84375 196.355469 12.105469 C 196.355469 12.402344 196.515625 12.476562 196.671875 12.570312 L 198.933594 13.84375 L 196.738281 15.09375 C 196.484375 15.242188 196.355469 15.316406 196.355469 15.597656 C 196.355469 15.878906 196.5625 16.121094 196.789062 16.121094 C 196.898438 16.121094 196.929688 16.121094 197.328125 15.765625 L 199.113281 14.253906 L 198.835938 17.390625 C 198.835938 17.785156 199.117188 17.878906 199.242188 17.878906 C 199.429688 17.878906 199.664062 17.746094 199.664062 17.390625 L 199.484375 14.253906 L 201.476562 15.988281 C 201.617188 16.085938 201.648438 16.121094 201.757812 16.121094 C 201.972656 16.121094 202.175781 15.859375 202.175781 15.597656 C 202.175781 15.316406 202.039062 15.222656 201.851562 15.113281 C 200.914062 14.550781 200.882812 14.550781 199.648438 13.859375 L 201.800781 12.605469 C 202.054688 12.457031 202.175781 12.386719 202.175781 12.105469 C 202.175781 11.824219 201.972656 11.578125 201.757812 11.578125 C 201.648438 11.578125 201.617188 11.578125 201.230469 11.933594 L 199.484375 13.449219 L 199.648438 10.535156 "/>
<path fill-rule="evenodd" fill="rgb(0%, 0%, 0%)" fill-opacity="1" d="M 211.660156 34.753906 C 211.660156 34.671875 211.660156 34.617188 211.269531 34.164062 C 208.980469 31.441406 207.699219 26.996094 207.699219 21.496094 C 207.699219 16.269531 208.777344 11.769531 211.433594 8.589844 C 211.660156 8.347656 211.660156 8.292969 211.660156 8.214844 C 211.660156 8.054688 211.550781 8 211.457031 8 C 211.164062 8 209.308594 9.9375 208.203125 12.578125 C 207.050781 15.300781 206.53125 18.183594 206.53125 21.496094 C 206.53125 23.894531 206.847656 27.101562 208.023438 29.984375 C 209.359375 33.214844 211.210938 34.96875 211.457031 34.96875 C 211.550781 34.96875 211.660156 34.914062 211.660156 34.753906 "/>
<path fill-rule="evenodd" fill="rgb(0%, 0%, 0%)" fill-opacity="1" d="M 219.589844 24.339844 C 219.589844 24.207031 219.488281 24.101562 219.34375 24.101562 C 219.125 24.101562 219.097656 24.179688 218.976562 24.636719 C 218.34375 27.078125 217.34375 27.914062 216.535156 27.914062 C 216.242188 27.914062 215.898438 27.835938 215.898438 27.023438 C 215.898438 26.300781 216.199219 25.492188 216.472656 24.6875 L 218.222656 19.679688 C 218.296875 19.464844 218.472656 18.980469 218.472656 18.472656 C 218.472656 17.339844 217.769531 16.316406 216.621094 16.316406 C 214.476562 16.316406 213.609375 20.230469 213.609375 20.445312 C 213.609375 20.550781 213.707031 20.6875 213.875 20.6875 C 214.09375 20.6875 214.121094 20.582031 214.214844 20.207031 C 214.800781 17.964844 215.722656 16.898438 216.671875 16.898438 C 216.890625 16.898438 217.300781 16.898438 217.300781 17.761719 C 217.300781 18.460938 216.976562 19.351562 216.777344 19.945312 L 215.03125 24.964844 C 214.878906 25.394531 214.730469 25.824219 214.730469 26.3125 C 214.730469 27.527344 215.457031 28.496094 216.585938 28.496094 C 218.742188 28.496094 219.589844 24.53125 219.589844 24.339844 Z M 219.40625 11.578125 C 219.40625 11.175781 219.136719 10.695312 218.640625 10.695312 C 218.121094 10.695312 217.535156 11.28125 217.535156 11.972656 C 217.535156 12.640625 218.011719 12.851562 218.28125 12.851562 C 218.886719 12.851562 219.40625 12.160156 219.40625 11.578125 Z M 228.992188 19.652344 C 229.082031 19.222656 229.082031 18.847656 229.082031 18.734375 C 229.082031 17.175781 228.085938 16.316406 227.046875 16.316406 C 224.703125 16.316406 223.453125 20.265625 223.453125 20.453125 C 223.453125 20.589844 223.546875 20.695312 223.683594 20.695312 C 223.867188 20.695312 223.890625 20.589844 224.007812 20.320312 C 224.921875 17.730469 226.074219 16.898438 226.945312 16.898438 C 227.429688 16.898438 227.679688 17.195312 227.679688 18.128906 C 227.679688 18.769531 227.609375 19.039062 227.519531 19.519531 L 225.351562 29.605469 C 224.914062 31.585938 223.84375 33.078125 222.585938 33.078125 C 222.492188 33.078125 222.015625 33.078125 221.582031 32.816406 C 222.113281 32.679688 222.539062 32.175781 222.539062 31.53125 C 222.539062 31.105469 222.269531 30.675781 221.78125 30.675781 C 221.199219 30.675781 220.667969 31.273438 220.667969 32.085938 C 220.667969 33.199219 221.675781 33.660156 222.617188 33.660156 C 224.199219 33.660156 226.285156 32.292969 226.859375 29.601562 Z M 229.785156 11.578125 C 229.785156 10.910156 229.308594 10.695312 229.039062 10.695312 C 228.433594 10.695312 227.914062 11.386719 227.914062 11.972656 C 227.914062 12.371094 228.183594 12.851562 228.679688 12.851562 C 229.199219 12.851562 229.785156 12.269531 229.785156 11.578125 "/>
<path fill-rule="evenodd" fill="rgb(0%, 0%, 0%)" fill-opacity="1" d="M 237.996094 21.496094 C 237.996094 19.449219 237.773438 16.105469 236.503906 12.984375 C 235.171875 9.753906 233.320312 8 233.070312 8 C 232.980469 8 232.867188 8.054688 232.867188 8.214844 C 232.867188 8.292969 232.867188 8.347656 233.257812 8.804688 C 235.546875 11.527344 236.828125 15.972656 236.828125 21.472656 C 236.828125 26.695312 235.753906 31.195312 233.097656 34.378906 C 232.867188 34.617188 232.867188 34.671875 232.867188 34.753906 C 232.867188 34.914062 232.980469 34.96875 233.070312 34.96875 C 233.363281 34.96875 235.21875 33.03125 236.324219 30.386719 C 237.480469 27.640625 237.996094 24.726562 237.996094 21.496094 "/>
<path fill-rule="evenodd" fill="rgb(0%, 0%, 0%)" fill-opacity="1" d="M 244.972656 10.535156 C 244.984375 10.273438 244.984375 9.824219 244.597656 9.824219 C 244.355469 9.824219 244.160156 10.066406 244.160156 10.308594 L 244.160156 10.554688 L 244.4375 13.449219 L 242.398438 11.710938 C 242.253906 11.617188 242.222656 11.578125 242.109375 11.578125 C 241.886719 11.578125 241.679688 11.84375 241.679688 12.105469 C 241.679688 12.402344 241.839844 12.476562 241.996094 12.570312 L 244.257812 13.84375 L 242.0625 15.09375 C 241.804688 15.242188 241.679688 15.316406 241.679688 15.597656 C 241.679688 15.878906 241.886719 16.121094 242.109375 16.121094 C 242.222656 16.121094 242.253906 16.121094 242.648438 15.765625 L 244.4375 14.253906 L 244.160156 17.390625 C 244.160156 17.785156 244.441406 17.878906 244.566406 17.878906 C 244.753906 17.878906 244.984375 17.746094 244.984375 17.390625 L 244.808594 14.253906 L 246.800781 15.988281 C 246.9375 16.085938 246.96875 16.121094 247.078125 16.121094 C 247.296875 16.121094 247.5 15.859375 247.5 15.597656 C 247.5 15.316406 247.359375 15.222656 247.171875 15.113281 C 246.238281 14.550781 246.203125 14.550781 244.972656 13.859375 L 247.125 12.605469 C 247.375 12.457031 247.5 12.386719 247.5 12.105469 C 247.5 11.824219 247.296875 11.578125 247.078125 11.578125 C 246.96875 11.578125 246.9375 11.578125 246.550781 11.933594 L 244.808594 13.449219 L 244.972656 10.535156 "/>
<path fill-rule="evenodd" fill="rgb(0%, 0%, 0%)" fill-opacity="1" d="M 5.300781 194.617188 C 5.300781 194.535156 5.300781 194.480469 4.910156 194.027344 C 2.617188 191.304688 1.335938 186.859375 1.335938 181.359375 C 1.335938 176.132812 2.414062 171.632812 5.070312 168.453125 C 5.300781 168.210938 5.300781 168.15625 5.300781 168.078125 C 5.300781 167.917969 5.1875 167.863281 5.097656 167.863281 C 4.804688 167.863281 2.949219 169.800781 1.839844 172.441406 C 0.6875 175.164062 0.167969 178.046875 0.167969 181.359375 C 0.167969 183.757812 0.484375 186.964844 1.664062 189.847656 C 2.996094 193.078125 4.847656 194.832031 5.097656 194.832031 C 5.1875 194.832031 5.300781 194.777344 5.300781 194.617188 "/>
<path fill-rule="evenodd" fill="rgb(0%, 0%, 0%)" fill-opacity="1" d="M 14.820312 179.511719 C 14.914062 179.085938 14.914062 178.710938 14.914062 178.597656 C 14.914062 177.039062 13.914062 176.179688 12.875 176.179688 C 10.535156 176.179688 9.285156 180.128906 9.285156 180.316406 C 9.285156 180.453125 9.375 180.558594 9.515625 180.558594 C 9.699219 180.558594 9.71875 180.453125 9.835938 180.183594 C 10.753906 177.59375 11.902344 176.761719 12.777344 176.761719 C 13.257812 176.761719 13.511719 177.058594 13.511719 177.992188 C 13.511719 178.632812 13.441406 178.902344 13.351562 179.382812 L 11.179688 189.46875 C 10.746094 191.445312 9.671875 192.941406 8.417969 192.941406 C 8.324219 192.941406 7.847656 192.941406 7.414062 192.679688 C 7.945312 192.542969 8.367188 192.039062 8.367188 191.390625 C 8.367188 190.96875 8.101562 190.539062 7.613281 190.539062 C 7.03125 190.539062 6.5 191.136719 6.5 191.949219 C 6.5 193.0625 7.507812 193.523438 8.449219 193.523438 C 10.03125 193.523438 12.117188 192.15625 12.6875 189.460938 Z M 15.613281 171.441406 C 15.613281 170.773438 15.140625 170.558594 14.871094 170.558594 C 14.261719 170.558594 13.746094 171.25 13.746094 171.835938 C 13.746094 172.234375 14.015625 172.714844 14.511719 172.714844 C 15.03125 172.714844 15.613281 172.132812 15.613281 171.441406 "/>
<path fill-rule="evenodd" fill="rgb(0%, 0%, 0%)" fill-opacity="1" d="M 22.722656 170.160156 C 22.742188 170.054688 22.789062 169.894531 22.789062 169.761719 C 22.789062 169.480469 22.558594 169.480469 22.515625 169.480469 C 22.492188 169.480469 21.667969 169.578125 21.257812 169.640625 C 20.867188 169.671875 20.527344 169.738281 20.113281 169.738281 C 19.5625 169.792969 19.402344 169.816406 19.402344 170.292969 C 19.402344 170.558594 19.632812 170.558594 19.859375 170.558594 C 21.03125 170.558594 21.03125 170.792969 21.03125 171.058594 C 21.03125 171.164062 21.03125 171.21875 20.917969 171.703125 L 17.636719 186.996094 C 17.546875 187.398438 17.546875 187.453125 17.546875 187.613281 C 17.546875 188.246094 17.9375 188.359375 18.164062 188.359375 C 18.804688 188.359375 18.945312 187.761719 19.128906 186.914062 L 20.203125 181.816406 C 21.851562 182.03125 22.839844 182.847656 22.839844 184.148438 C 22.839844 184.308594 22.839844 184.417969 22.769531 184.824219 C 22.675781 185.230469 22.675781 185.554688 22.675781 185.691406 C 22.675781 187.285156 23.546875 188.359375 24.714844 188.359375 C 25.765625 188.359375 26.320312 187.207031 26.5 186.828125 C 26.984375 185.8125 27.277344 184.285156 27.277344 184.171875 C 27.277344 184.039062 27.1875 183.929688 27.046875 183.929688 C 26.839844 183.929688 26.816406 184.039062 26.722656 184.472656 C 26.402344 185.882812 25.917969 187.777344 24.738281 187.777344 C 24.273438 187.777344 23.972656 187.507812 23.972656 186.476562 C 23.972656 185.960938 24.0625 185.363281 24.152344 184.957031 C 24.238281 184.46875 24.238281 184.445312 24.238281 184.117188 C 24.238281 182.519531 23.042969 181.625 20.960938 181.300781 C 21.785156 180.71875 22.609375 179.691406 22.933594 179.292969 C 24.238281 177.605469 25.132812 176.761719 26.1875 176.761719 C 26.714844 176.761719 26.851562 176.917969 27.011719 177.074219 C 26.1875 177.175781 25.878906 177.847656 25.878906 178.363281 C 25.878906 178.980469 26.300781 179.1875 26.609375 179.1875 C 27.214844 179.1875 27.746094 178.582031 27.746094 177.738281 C 27.746094 176.972656 27.222656 176.179688 26.195312 176.179688 C 24.933594 176.179688 23.90625 177.222656 22.285156 179.351562 C 22.054688 179.671875 21.214844 180.683594 20.363281 181.058594 L 22.722656 170.160156 "/>
<path fill-rule="evenodd" fill="rgb(0%, 0%, 0%)" fill-opacity="1" d="M 36.515625 181.359375 C 36.515625 179.3125 36.289062 175.96875 35.023438 172.847656 C 33.6875 169.613281 31.835938 167.863281 31.589844 167.863281 C 31.496094 167.863281 31.386719 167.917969 31.386719 168.078125 C 31.386719 168.15625 31.386719 168.210938 31.773438 168.667969 C 34.066406 171.390625 35.347656 175.835938 35.347656 181.335938 C 35.347656 186.558594 34.269531 191.058594 31.613281 194.242188 C 31.386719 194.480469 31.386719 194.535156 31.386719 194.617188 C 31.386719 194.777344 31.496094 194.832031 31.589844 194.832031 C 31.882812 194.832031 33.738281 192.894531 34.84375 190.25 C 35.996094 187.503906 36.515625 184.589844 36.515625 181.359375 "/>
<path fill-rule="evenodd" fill="rgb(0%, 0%, 0%)" fill-opacity="1" d="M 43.488281 170.398438 C 43.503906 170.136719 43.503906 169.6875 43.113281 169.6875 C 42.871094 169.6875 42.675781 169.929688 42.675781 170.171875 L 42.675781 170.414062 L 42.953125 173.3125 L 40.914062 171.574219 C 40.769531 171.480469 40.738281 171.441406 40.625 171.441406 C 40.402344 171.441406 40.195312 171.707031 40.195312 171.96875 C 40.195312 172.265625 40.355469 172.339844 40.511719 172.433594 L 42.773438 173.707031 L 40.578125 174.957031 C 40.320312 175.105469 40.195312 175.179688 40.195312 175.460938 C 40.195312 175.742188 40.402344 175.984375 40.625 175.984375 C 40.738281 175.984375 40.769531 175.984375 41.164062 175.628906 L 42.953125 174.113281 L 42.675781 177.253906 C 42.675781 177.648438 42.957031 177.738281 43.082031 177.738281 C 43.269531 177.738281 43.503906 177.609375 43.503906 177.253906 L 43.324219 174.113281 L 45.316406 175.851562 C 45.457031 175.945312 45.484375 175.984375 45.59375 175.984375 C 45.8125 175.984375 46.015625 175.722656 46.015625 175.460938 C 46.015625 175.179688 45.875 175.085938 45.6875 174.976562 C 44.753906 174.414062 44.71875 174.414062 43.488281 173.722656 L 45.640625 172.46875 C 45.890625 172.320312 46.015625 172.246094 46.015625 171.96875 C 46.015625 171.6875 45.8125 171.441406 45.59375 171.441406 C 45.484375 171.441406 45.457031 171.441406 45.066406 171.796875 L 43.324219 173.3125 L 43.488281 170.398438 "/>
<path fill-rule="evenodd" fill="rgb(0%, 0%, 0%)" fill-opacity="1" d="M 54.527344 184.203125 C 54.527344 184.070312 54.429688 183.964844 54.28125 183.964844 C 54.0625 183.964844 54.039062 184.042969 53.917969 184.496094 C 53.28125 186.941406 52.28125 187.777344 51.472656 187.777344 C 51.183594 187.777344 50.839844 187.695312 50.839844 186.886719 C 50.839844 186.164062 51.136719 185.355469 51.410156 184.546875 L 53.160156 179.542969 C 53.234375 179.328125 53.410156 178.84375 53.410156 178.335938 C 53.410156 177.203125 52.707031 176.179688 51.5625 176.179688 C 49.414062 176.179688 48.546875 180.09375 48.546875 180.308594 C 48.546875 180.414062 48.648438 180.550781 48.816406 180.550781 C 49.035156 180.550781 49.058594 180.445312 49.15625 180.070312 C 49.738281 177.828125 50.664062 176.761719 51.609375 176.761719 C 51.828125 176.761719 52.242188 176.761719 52.242188 177.625 C 52.242188 178.324219 51.914062 179.214844 51.714844 179.808594 L 49.96875 184.828125 C 49.820312 185.257812 49.667969 185.6875 49.667969 186.175781 C 49.667969 187.390625 50.394531 188.359375 51.523438 188.359375 C 53.683594 188.359375 54.527344 184.394531 54.527344 184.203125 Z M 54.34375 171.441406 C 54.34375 171.039062 54.074219 170.558594 53.578125 170.558594 C 53.058594 170.558594 52.476562 171.144531 52.476562 171.835938 C 52.476562 172.5 52.949219 172.714844 53.21875 172.714844 C 53.828125 172.714844 54.34375 172.023438 54.34375 171.441406 "/>
<path fill-rule="evenodd" fill="rgb(0%, 0%, 0%)" fill-opacity="1" d="M 60.222656 170.398438 C 60.238281 170.136719 60.238281 169.6875 59.847656 169.6875 C 59.609375 169.6875 59.410156 169.929688 59.410156 170.171875 L 59.410156 170.414062 L 59.6875 173.3125 L 57.648438 171.574219 C 57.503906 171.480469 57.476562 171.441406 57.363281 171.441406 C 57.140625 171.441406 56.933594 171.707031 56.933594 171.96875 C 56.933594 172.265625 57.09375 172.339844 57.25 172.433594 L 59.507812 173.707031 L 57.316406 174.957031 C 57.058594 175.105469 56.933594 175.179688 56.933594 175.460938 C 56.933594 175.742188 57.140625 175.984375 57.363281 175.984375 C 57.476562 175.984375 57.503906 175.984375 57.902344 175.628906 L 59.6875 174.113281 L 59.410156 177.253906 C 59.410156 177.648438 59.695312 177.738281 59.816406 177.738281 C 60.007812 177.738281 60.238281 177.609375 60.238281 177.253906 L 60.0625 174.113281 L 62.054688 175.851562 C 62.191406 175.945312 62.222656 175.984375 62.332031 175.984375 C 62.550781 175.984375 62.753906 175.722656 62.753906 175.460938 C 62.753906 175.179688 62.613281 175.085938 62.425781 174.976562 C 61.488281 174.414062 61.457031 174.414062 60.222656 173.722656 L 62.378906 172.46875 C 62.628906 172.320312 62.753906 172.246094 62.753906 171.96875 C 62.753906 171.6875 62.550781 171.441406 62.332031 171.441406 C 62.222656 171.441406 62.191406 171.441406 61.804688 171.796875 L 60.0625 173.3125 L 60.222656 170.398438 "/>
<path fill-rule="evenodd" fill="rgb(0%, 0%, 0%)" fill-opacity="1" d="M 193.441406 170.160156 C 193.464844 170.054688 193.511719 169.894531 193.511719 169.761719 C 193.511719 169.480469 193.28125 169.480469 193.238281 169.480469 C 193.214844 169.480469 192.390625 169.578125 191.976562 169.640625 C 191.589844 169.671875 191.246094 169.738281 190.835938 169.738281 C 190.285156 169.792969 190.121094 169.816406 190.121094 170.292969 C 190.121094 170.558594 190.351562 170.558594 190.582031 170.558594 C 191.753906 170.558594 191.753906 170.792969 191.753906 171.058594 C 191.753906 171.164062 191.753906 171.21875 191.640625 171.703125 L 188.359375 186.996094 C 188.265625 187.398438 188.265625 187.453125 188.265625 187.613281 C 188.265625 188.246094 188.65625 188.359375 188.886719 188.359375 C 189.527344 188.359375 189.664062 187.761719 189.847656 186.914062 L 190.925781 181.816406 C 192.574219 182.03125 193.558594 182.847656 193.558594 184.148438 C 193.558594 184.308594 193.558594 184.417969 193.488281 184.824219 C 193.398438 185.230469 193.398438 185.554688 193.398438 185.691406 C 193.398438 187.285156 194.269531 188.359375 195.4375 188.359375 C 196.488281 188.359375 197.039062 187.207031 197.222656 186.828125 C 197.703125 185.8125 198 184.285156 198 184.171875 C 198 184.039062 197.910156 183.929688 197.769531 183.929688 C 197.5625 183.929688 197.535156 184.039062 197.445312 184.472656 C 197.125 185.882812 196.640625 187.777344 195.460938 187.777344 C 194.996094 187.777344 194.695312 187.507812 194.695312 186.476562 C 194.695312 185.960938 194.78125 185.363281 194.875 184.957031 C 194.960938 184.46875 194.960938 184.445312 194.960938 184.117188 C 194.960938 182.519531 193.765625 181.625 191.683594 181.300781 C 192.507812 180.71875 193.332031 179.691406 193.65625 179.292969 C 194.960938 177.605469 195.851562 176.761719 196.910156 176.761719 C 197.433594 176.761719 197.574219 176.917969 197.734375 177.074219 C 196.910156 177.175781 196.597656 177.847656 196.597656 178.363281 C 196.597656 178.980469 197.023438 179.1875 197.332031 179.1875 C 197.933594 179.1875 198.46875 178.582031 198.46875 177.738281 C 198.46875 176.972656 197.941406 176.179688 196.914062 176.179688 C 195.65625 176.179688 194.628906 177.222656 193.007812 179.351562 C 192.777344 179.671875 191.933594 180.683594 191.085938 181.058594 L 193.441406 170.160156 "/>
<path fill-rule="evenodd" fill="rgb(0%, 0%, 0%)" fill-opacity="1" d="M 204.085938 170.398438 C 204.101562 170.136719 204.101562 169.6875 203.710938 169.6875 C 203.46875 169.6875 203.273438 169.929688 203.273438 170.171875 L 203.273438 170.414062 L 203.550781 173.3125 L 201.511719 171.574219 C 201.367188 171.480469 201.335938 171.441406 201.222656 171.441406 C 201 171.441406 200.792969 171.707031 200.792969 171.96875 C 200.792969 172.265625 200.953125 172.339844 201.109375 172.433594 L 203.371094 173.707031 L 201.175781 174.957031 C 200.921875 175.105469 200.792969 175.179688 200.792969 175.460938 C 200.792969 175.742188 201 175.984375 201.222656 175.984375 C 201.335938 175.984375 201.367188 175.984375 201.765625 175.628906 L 203.550781 174.113281 L 203.273438 177.253906 C 203.273438 177.648438 203.554688 177.738281 203.679688 177.738281 C 203.867188 177.738281 204.101562 177.609375 204.101562 177.253906 L 203.921875 174.113281 L 205.914062 175.851562 C 206.054688 175.945312 206.085938 175.984375 206.191406 175.984375 C 206.410156 175.984375 206.613281 175.722656 206.613281 175.460938 C 206.613281 175.179688 206.476562 175.085938 206.285156 174.976562 C 205.351562 174.414062 205.316406 174.414062 204.085938 173.722656 L 206.238281 172.46875 C 206.488281 172.320312 206.613281 172.246094 206.613281 171.96875 C 206.613281 171.6875 206.410156 171.441406 206.191406 171.441406 C 206.085938 171.441406 206.054688 171.441406 205.664062 171.796875 L 203.921875 173.3125 L 204.085938 170.398438 "/>
<path fill-rule="evenodd" fill="rgb(0%, 0%, 0%)" fill-opacity="1" d="M 216.722656 179.511719 C 216.8125 179.085938 216.8125 178.710938 216.8125 178.597656 C 216.8125 177.039062 215.816406 176.179688 214.773438 176.179688 C 212.433594 176.179688 211.183594 180.128906 211.183594 180.316406 C 211.183594 180.453125 211.277344 180.558594 211.414062 180.558594 C 211.597656 180.558594 211.617188 180.453125 211.734375 180.183594 C 212.652344 177.59375 213.804688 176.761719 214.675781 176.761719 C 215.15625 176.761719 215.410156 177.058594 215.410156 177.992188 C 215.410156 178.632812 215.339844 178.902344 215.25 179.382812 L 213.078125 189.46875 C 212.644531 191.445312 211.570312 192.941406 210.316406 192.941406 C 210.222656 192.941406 209.746094 192.941406 209.3125 192.679688 C 209.84375 192.542969 210.269531 192.039062 210.269531 191.390625 C 210.269531 190.96875 210 190.539062 209.511719 190.539062 C 208.929688 190.539062 208.398438 191.136719 208.398438 191.949219 C 208.398438 193.0625 209.40625 193.523438 210.347656 193.523438 C 211.929688 193.523438 214.015625 192.15625 214.589844 189.460938 Z M 217.515625 171.441406 C 217.515625 170.773438 217.039062 170.558594 216.769531 170.558594 C 216.164062 170.558594 215.644531 171.25 215.644531 171.835938 C 215.644531 172.234375 215.914062 172.714844 216.410156 172.714844 C 216.929688 172.714844 217.515625 172.132812 217.515625 171.441406 "/>
<path fill-rule="evenodd" fill="rgb(0%, 0%, 0%)" fill-opacity="1" d="M 223.796875 170.398438 C 223.8125 170.136719 223.8125 169.6875 223.421875 169.6875 C 223.179688 169.6875 222.984375 169.929688 222.984375 170.171875 L 222.984375 170.414062 L 223.261719 173.3125 L 221.222656 171.574219 C 221.078125 171.480469 221.046875 171.441406 220.9375 171.441406 C 220.714844 171.441406 220.503906 171.707031 220.503906 171.96875 C 220.503906 172.265625 220.664062 172.339844 220.820312 172.433594 L 223.082031 173.707031 L 220.886719 174.957031 C 220.632812 175.105469 220.503906 175.179688 220.503906 175.460938 C 220.503906 175.742188 220.714844 175.984375 220.9375 175.984375 C 221.046875 175.984375 221.078125 175.984375 221.476562 175.628906 L 223.261719 174.113281 L 222.984375 177.253906 C 222.984375 177.648438 223.265625 177.738281 223.390625 177.738281 C 223.578125 177.738281 223.8125 177.609375 223.8125 177.253906 L 223.636719 174.113281 L 225.625 175.851562 C 225.765625 175.945312 225.796875 175.984375 225.90625 175.984375 C 226.121094 175.984375 226.324219 175.722656 226.324219 175.460938 C 226.324219 175.179688 226.1875 175.085938 226 174.976562 C 225.0625 174.414062 225.03125 174.414062 223.796875 173.722656 L 225.949219 172.46875 C 226.203125 172.320312 226.324219 172.246094 226.324219 171.96875 C 226.324219 171.6875 226.121094 171.441406 225.90625 171.441406 C 225.796875 171.441406 225.765625 171.441406 225.378906 171.796875 L 223.636719 173.3125 L 223.796875 170.398438 "/>
<path fill-rule="evenodd" fill="rgb(0%, 0%, 0%)" fill-opacity="1" d="M 234.835938 184.203125 C 234.835938 184.070312 234.738281 183.964844 234.59375 183.964844 C 234.375 183.964844 234.347656 184.042969 234.226562 184.496094 C 233.59375 186.941406 232.589844 187.777344 231.785156 187.777344 C 231.492188 187.777344 231.148438 187.695312 231.148438 186.886719 C 231.148438 186.164062 231.449219 185.355469 231.722656 184.546875 L 233.472656 179.542969 C 233.542969 179.328125 233.71875 178.84375 233.71875 178.335938 C 233.71875 177.203125 233.019531 176.179688 231.871094 176.179688 C 229.722656 176.179688 228.859375 180.09375 228.859375 180.308594 C 228.859375 180.414062 228.957031 180.550781 229.125 180.550781 C 229.34375 180.550781 229.371094 180.445312 229.464844 180.070312 C 230.050781 177.828125 230.972656 176.761719 231.917969 176.761719 C 232.136719 176.761719 232.550781 176.761719 232.550781 177.625 C 232.550781 178.324219 232.226562 179.214844 232.023438 179.808594 L 230.277344 184.828125 C 230.128906 185.257812 229.980469 185.6875 229.980469 186.175781 C 229.980469 187.390625 230.707031 188.359375 231.835938 188.359375 C 233.992188 188.359375 234.835938 184.394531 234.835938 184.203125 Z M 234.65625 171.441406 C 234.65625 171.039062 234.382812 170.558594 233.886719 170.558594 C 233.367188 170.558594 232.785156 171.144531 232.785156 171.835938 C 232.785156 172.5 233.261719 172.714844 233.53125 172.714844 C 234.136719 172.714844 234.65625 172.023438 234.65625 171.441406 "/>
<path fill-rule="evenodd" fill="rgb(0%, 0%, 0%)" fill-opacity="1" d="M 240.535156 170.398438 C 240.550781 170.136719 240.550781 169.6875 240.160156 169.6875 C 239.917969 169.6875 239.722656 169.929688 239.722656 170.171875 L 239.722656 170.414062 L 240 173.3125 L 237.960938 171.574219 C 237.816406 171.480469 237.785156 171.441406 237.671875 171.441406 C 237.449219 171.441406 237.242188 171.707031 237.242188 171.96875 C 237.242188 172.265625 237.402344 172.339844 237.558594 172.433594 L 239.820312 173.707031 L 237.625 174.957031 C 237.367188 175.105469 237.242188 175.179688 237.242188 175.460938 C 237.242188 175.742188 237.449219 175.984375 237.671875 175.984375 C 237.785156 175.984375 237.816406 175.984375 238.214844 175.628906 L 240 174.113281 L 239.722656 177.253906 C 239.722656 177.648438 240.003906 177.738281 240.128906 177.738281 C 240.316406 177.738281 240.550781 177.609375 240.550781 177.253906 L 240.371094 174.113281 L 242.363281 175.851562 C 242.503906 175.945312 242.53125 175.984375 242.640625 175.984375 C 242.859375 175.984375 243.0625 175.722656 243.0625 175.460938 C 243.0625 175.179688 242.921875 175.085938 242.734375 174.976562 C 241.800781 174.414062 241.765625 174.414062 240.535156 173.722656 L 242.6875 172.46875 C 242.9375 172.320312 243.0625 172.246094 243.0625 171.96875 C 243.0625 171.6875 242.859375 171.441406 242.640625 171.441406 C 242.53125 171.441406 242.503906 171.441406 242.113281 171.796875 L 240.371094 173.3125 L 240.535156 170.398438 "/>
<path fill="none" stroke-width="3.37" stroke-linecap="square" stroke-linejoin="miter" stroke="rgb(0%, 0%, 0%)" stroke-opacity="1" stroke-miterlimit="10" d="M 660.390625 1735.15625 L 1726.25 1735.15625 " transform="matrix(0.1, 0, 0, -0.1, 0, 195)"/>
<path fill-rule="evenodd" fill="rgb(0%, 0%, 0%)" fill-opacity="1" d="M 176.84375 21.484375 L 170.089844 17.585938 L 172.625 21.484375 L 170.089844 25.378906 Z M 176.84375 21.484375 "/>
<path fill-rule="evenodd" fill="rgb(0%, 0%, 0%)" fill-opacity="1" d="M 111.6875 2.164062 L 114.363281 2.164062 C 114.566406 2.164062 115.140625 2.164062 115.140625 1.527344 C 115.140625 1.082031 114.804688 1.082031 114.503906 1.082031 L 110.050781 1.082031 C 109.734375 1.082031 109.109375 1.082031 108.410156 1.957031 C 107.886719 2.628906 107.441406 3.523438 107.441406 3.636719 C 107.441406 3.65625 107.441406 3.824219 107.632812 3.824219 C 107.761719 3.824219 107.789062 3.75 107.886719 3.601562 C 108.664062 2.164062 109.574219 2.164062 109.90625 2.164062 L 111.226562 2.164062 L 109.667969 8.144531 C 109.605469 8.371094 109.511719 8.761719 109.511719 8.835938 C 109.511719 9.039062 109.621094 9.339844 109.972656 9.339844 C 110.496094 9.339844 110.574219 8.816406 110.621094 8.535156 L 111.6875 2.164062 "/>
<path fill-rule="evenodd" fill="rgb(0%, 0%, 0%)" fill-opacity="1" d="M 117.699219 3.769531 C 117.699219 3.566406 117.570312 3.289062 117.261719 3.289062 C 116.964844 3.289062 116.644531 3.621094 116.644531 3.988281 C 116.644531 4.203125 116.789062 4.46875 117.085938 4.46875 C 117.402344 4.46875 117.699219 4.113281 117.699219 3.769531 Z M 115.457031 10.421875 C 115.410156 10.589844 115.355469 10.746094 115.355469 10.96875 C 115.355469 11.578125 115.796875 12.074219 116.402344 12.074219 C 117.503906 12.074219 117.988281 10.257812 117.988281 10.0625 C 117.988281 9.894531 117.847656 9.894531 117.8125 9.894531 C 117.65625 9.894531 117.648438 9.972656 117.601562 10.113281 C 117.347656 11.148438 116.859375 11.679688 116.429688 11.679688 C 116.207031 11.679688 116.152344 11.511719 116.152344 11.226562 C 116.152344 10.925781 116.230469 10.679688 116.328125 10.390625 C 116.441406 10.039062 116.5625 9.6875 116.683594 9.351562 C 116.78125 9.039062 117.179688 7.855469 117.222656 7.695312 C 117.253906 7.566406 117.289062 7.410156 117.289062 7.28125 C 117.289062 6.667969 116.847656 6.175781 116.242188 6.175781 C 115.152344 6.175781 114.644531 7.960938 114.644531 8.1875 C 114.644531 8.355469 114.800781 8.355469 114.832031 8.355469 C 114.988281 8.355469 115 8.289062 115.03125 8.148438 C 115.320312 7.03125 115.808594 6.566406 116.214844 6.566406 C 116.394531 6.566406 116.492188 6.671875 116.492188 7.023438 C 116.492188 7.324219 116.429688 7.519531 116.152344 8.324219 Z M 123.65625 3.769531 C 123.65625 3.554688 123.507812 3.289062 123.191406 3.289062 C 122.855469 3.289062 122.539062 3.644531 122.539062 3.988281 C 122.539062 4.191406 122.679688 4.46875 123.007812 4.46875 C 123.320312 4.46875 123.65625 4.140625 123.65625 3.769531 Z M 121.21875 12.53125 C 121.027344 13.421875 120.429688 14.171875 119.765625 14.171875 C 119.621094 14.171875 119.484375 14.144531 119.359375 14.09375 C 119.636719 13.945312 119.722656 13.644531 119.722656 13.457031 C 119.722656 13.15625 119.519531 12.992188 119.308594 12.992188 C 118.976562 12.992188 118.699219 13.339844 118.699219 13.75 C 118.699219 14.242188 119.140625 14.5625 119.820312 14.5625 C 120.5 14.5625 121.820312 14.09375 122.171875 12.511719 L 123.1875 7.851562 C 123.222656 7.707031 123.246094 7.589844 123.246094 7.398438 C 123.246094 6.683594 122.703125 6.175781 122.011719 6.175781 C 120.734375 6.175781 119.996094 8.003906 119.996094 8.191406 C 119.996094 8.359375 120.15625 8.359375 120.191406 8.359375 C 120.324219 8.359375 120.335938 8.320312 120.417969 8.125 C 120.699219 7.371094 121.289062 6.566406 121.949219 6.566406 C 122.234375 6.566406 122.335938 6.785156 122.335938 7.199219 C 122.335938 7.34375 122.3125 7.523438 122.300781 7.585938 L 121.21875 12.53125 "/>
<path fill-rule="evenodd" fill="rgb(0%, 0%, 0%)" fill-opacity="1" d="M 126.449219 11.734375 C 126.449219 12.445312 126.339844 13.273438 125.582031 14.097656 C 125.539062 14.152344 125.503906 14.1875 125.503906 14.253906 C 125.503906 14.34375 125.59375 14.433594 125.664062 14.433594 C 125.820312 14.433594 126.773438 13.398438 126.773438 11.851562 C 126.773438 11.050781 126.503906 10.4375 125.988281 10.4375 C 125.617188 10.4375 125.347656 10.777344 125.347656 11.183594 C 125.347656 11.601562 125.605469 11.941406 125.996094 11.941406 C 126.261719 11.941406 126.441406 11.734375 126.449219 11.734375 Z M 131.460938 3.226562 C 131.46875 3.203125 131.503906 3.054688 131.503906 3.042969 C 131.503906 2.945312 131.460938 2.765625 131.324219 2.765625 C 131.101562 2.765625 130.179688 3.019531 129.898438 3.019531 C 129.8125 3.019531 129.65625 3.019531 129.65625 3.261719 C 129.65625 3.421875 129.8125 3.421875 129.945312 3.421875 C 130.480469 3.421875 130.480469 3.515625 130.480469 3.621094 C 130.480469 3.714844 130.457031 3.792969 130.433594 3.910156 L 128.863281 11.339844 C 128.808594 11.574219 128.808594 11.601562 128.808594 11.628906 C 128.808594 11.835938 128.941406 12.074219 129.1875 12.074219 C 129.488281 12.074219 129.632812 11.800781 129.699219 11.496094 C 129.722656 11.441406 130.199219 9.128906 130.242188 8.941406 C 131.035156 9.035156 131.671875 9.339844 131.671875 10.023438 C 131.671875 10.089844 131.671875 10.152344 131.648438 10.285156 C 131.601562 10.484375 131.601562 10.550781 131.601562 10.691406 C 131.601562 11.644531 132.246094 12.074219 132.78125 12.074219 C 133.855469 12.074219 134.1875 10.050781 134.1875 10.035156 C 134.1875 9.863281 134.046875 9.863281 134.015625 9.863281 C 133.859375 9.863281 133.851562 9.929688 133.796875 10.179688 C 133.664062 10.746094 133.371094 11.679688 132.835938 11.679688 C 132.539062 11.679688 132.453125 11.351562 132.453125 10.996094 C 132.453125 10.773438 132.453125 10.746094 132.523438 10.402344 C 132.53125 10.363281 132.578125 10.140625 132.578125 9.996094 C 132.578125 8.824219 131.222656 8.640625 130.746094 8.601562 C 131.066406 8.375 131.472656 7.957031 131.660156 7.769531 C 132.222656 7.160156 132.773438 6.566406 133.390625 6.566406 C 133.523438 6.566406 133.667969 6.605469 133.757812 6.726562 C 133.253906 6.8125 133.148438 7.234375 133.148438 7.417969 C 133.148438 7.691406 133.347656 7.878906 133.617188 7.878906 C 133.933594 7.878906 134.28125 7.597656 134.28125 7.066406 C 134.28125 6.644531 134.015625 6.175781 133.425781 6.175781 C 132.792969 6.175781 132.214844 6.699219 131.648438 7.304688 C 131.179688 7.816406 130.8125 8.214844 130.355469 8.429688 L 131.460938 3.226562 "/>
<path fill="none" stroke-width="3.37" stroke-linecap="square" stroke-linejoin="miter" stroke="rgb(0%, 0%, 0%)" stroke-opacity="1" stroke-miterlimit="10" d="M 313.007812 1534.140625 L 313.007812 386.210938 " transform="matrix(0.1, 0, 0, -0.1, 0, 195)"/>
<path fill-rule="evenodd" fill="rgb(0%, 0%, 0%)" fill-opacity="1" d="M 31.300781 161.246094 L 34.675781 153.457031 L 31.300781 156.378906 L 27.921875 153.457031 Z M 31.300781 161.246094 "/>
<path fill-rule="evenodd" fill="rgb(0%, 0%, 0%)" fill-opacity="1" d="M 42.035156 95.796875 L 44.710938 95.796875 C 44.914062 95.796875 45.488281 95.796875 45.488281 95.164062 C 45.488281 94.714844 45.152344 94.714844 44.851562 94.714844 L 40.398438 94.714844 C 40.082031 94.714844 39.460938 94.714844 38.757812 95.589844 C 38.234375 96.261719 37.789062 97.160156 37.789062 97.269531 C 37.789062 97.289062 37.789062 97.457031 37.980469 97.457031 C 38.109375 97.457031 38.136719 97.382812 38.234375 97.234375 C 39.011719 95.796875 39.921875 95.796875 40.257812 95.796875 L 41.574219 95.796875 L 40.015625 101.78125 C 39.953125 102.003906 39.859375 102.398438 39.859375 102.46875 C 39.859375 102.675781 39.96875 102.972656 40.320312 102.972656 C 40.84375 102.972656 40.921875 102.453125 40.972656 102.171875 L 42.035156 95.796875 "/>
<path fill-rule="evenodd" fill="rgb(0%, 0%, 0%)" fill-opacity="1" d="M 48.046875 97.40625 C 48.046875 97.203125 47.917969 96.925781 47.609375 96.925781 C 47.3125 96.925781 46.992188 97.253906 46.992188 97.621094 C 46.992188 97.839844 47.136719 98.105469 47.433594 98.105469 C 47.753906 98.105469 48.046875 97.746094 48.046875 97.40625 Z M 45.804688 104.054688 C 45.761719 104.226562 45.707031 104.382812 45.707031 104.601562 C 45.707031 105.214844 46.144531 105.707031 46.75 105.707031 C 47.851562 105.707031 48.339844 103.894531 48.339844 103.695312 C 48.339844 103.527344 48.195312 103.527344 48.160156 103.527344 C 48.007812 103.527344 47.996094 103.605469 47.953125 103.746094 C 47.695312 104.785156 47.210938 105.316406 46.777344 105.316406 C 46.554688 105.316406 46.5 105.144531 46.5 104.859375 C 46.5 104.558594 46.578125 104.3125 46.675781 104.027344 C 46.789062 103.671875 46.910156 103.324219 47.03125 102.984375 C 47.128906 102.671875 47.527344 101.488281 47.570312 101.332031 C 47.601562 101.203125 47.636719 101.046875 47.636719 100.914062 C 47.636719 100.300781 47.195312 99.808594 46.589844 99.808594 C 45.5 99.808594 44.992188 101.597656 44.992188 101.820312 C 44.992188 101.988281 45.148438 101.988281 45.179688 101.988281 C 45.335938 101.988281 45.347656 101.921875 45.378906 101.78125 C 45.667969 100.667969 46.15625 100.203125 46.5625 100.203125 C 46.742188 100.203125 46.839844 100.308594 46.839844 100.65625 C 46.839844 100.957031 46.777344 101.152344 46.5 101.960938 Z M 51.433594 105.367188 C 51.433594 106.078125 51.320312 106.90625 50.566406 107.730469 C 50.523438 107.785156 50.488281 107.820312 50.488281 107.886719 C 50.488281 107.976562 50.578125 108.066406 50.644531 108.066406 C 50.800781 108.066406 51.757812 107.03125 51.757812 105.488281 C 51.757812 104.683594 51.488281 104.074219 50.972656 104.074219 C 50.601562 104.074219 50.332031 104.414062 50.332031 104.820312 C 50.332031 105.238281 50.585938 105.578125 50.976562 105.578125 C 51.242188 105.578125 51.421875 105.367188 51.433594 105.367188 Z M 57.859375 97.40625 C 57.859375 97.191406 57.710938 96.925781 57.394531 96.925781 C 57.058594 96.925781 56.742188 97.28125 56.742188 97.621094 C 56.742188 97.828125 56.882812 98.105469 57.210938 98.105469 C 57.523438 98.105469 57.859375 97.773438 57.859375 97.40625 Z M 55.421875 106.167969 C 55.234375 107.054688 54.636719 107.804688 53.972656 107.804688 C 53.824219 107.804688 53.6875 107.78125 53.5625 107.730469 C 53.839844 107.578125 53.925781 107.277344 53.925781 107.089844 C 53.925781 106.789062 53.722656 106.625 53.511719 106.625 C 53.179688 106.625 52.902344 106.972656 52.902344 107.386719 C 52.902344 107.878906 53.34375 108.199219 54.023438 108.199219 C 54.703125 108.199219 56.023438 107.730469 56.375 106.144531 L 57.390625 101.484375 C 57.425781 101.34375 57.449219 101.226562 57.449219 101.03125 C 57.449219 100.316406 56.90625 99.808594 56.21875 99.808594 C 54.9375 99.808594 54.199219 101.640625 54.199219 101.824219 C 54.199219 101.992188 54.359375 101.992188 54.394531 101.992188 C 54.53125 101.992188 54.539062 101.953125 54.621094 101.757812 C 54.902344 101.007812 55.492188 100.203125 56.152344 100.203125 C 56.4375 100.203125 56.539062 100.421875 56.539062 100.835938 C 56.539062 100.976562 56.515625 101.15625 56.507812 101.222656 L 55.421875 106.167969 "/>
<path fill-rule="evenodd" fill="rgb(0%, 0%, 0%)" fill-opacity="1" d="M 61.90625 96.859375 C 61.917969 96.839844 61.953125 96.691406 61.953125 96.679688 C 61.953125 96.578125 61.90625 96.398438 61.773438 96.398438 C 61.550781 96.398438 60.628906 96.65625 60.347656 96.65625 C 60.261719 96.65625 60.105469 96.65625 60.105469 96.894531 C 60.105469 97.054688 60.261719 97.054688 60.394531 97.054688 C 60.929688 97.054688 60.929688 97.148438 60.929688 97.257812 C 60.929688 97.347656 60.90625 97.425781 60.882812 97.542969 L 59.3125 104.972656 C 59.257812 105.207031 59.257812 105.234375 59.257812 105.261719 C 59.257812 105.472656 59.390625 105.707031 59.636719 105.707031 C 59.9375 105.707031 60.082031 105.433594 60.148438 105.132812 C 60.171875 105.078125 60.648438 102.761719 60.691406 102.578125 C 61.484375 102.667969 62.117188 102.972656 62.117188 103.65625 C 62.117188 103.722656 62.117188 103.789062 62.097656 103.917969 C 62.050781 104.117188 62.050781 104.183594 62.050781 104.328125 C 62.050781 105.28125 62.695312 105.707031 63.230469 105.707031 C 64.304688 105.707031 64.636719 103.683594 64.636719 103.667969 C 64.636719 103.5 64.496094 103.5 64.464844 103.5 C 64.308594 103.5 64.296875 103.566406 64.246094 103.816406 C 64.113281 104.382812 63.820312 105.316406 63.285156 105.316406 C 62.988281 105.316406 62.902344 104.984375 62.902344 104.632812 C 62.902344 104.40625 62.902344 104.382812 62.972656 104.039062 C 62.980469 104 63.027344 103.777344 63.027344 103.632812 C 63.027344 102.460938 61.667969 102.273438 61.195312 102.234375 C 61.515625 102.007812 61.921875 101.589844 62.109375 101.402344 C 62.671875 100.796875 63.222656 100.203125 63.839844 100.203125 C 63.972656 100.203125 64.117188 100.238281 64.207031 100.363281 C 63.703125 100.449219 63.597656 100.871094 63.597656 101.054688 C 63.597656 101.328125 63.792969 101.511719 64.066406 101.511719 C 64.382812 101.511719 64.730469 101.230469 64.730469 100.699219 C 64.730469 100.28125 64.464844 99.808594 63.875 99.808594 C 63.242188 99.808594 62.660156 100.335938 62.097656 100.9375 C 61.628906 101.449219 61.261719 101.847656 60.804688 102.066406 L 61.90625 96.859375 "/>
<path fill="none" stroke-width="3.37" stroke-linecap="square" stroke-linejoin="miter" stroke="rgb(0%, 0%, 0%)" stroke-opacity="1" stroke-miterlimit="10" d="M 2160.507812 1534.140625 L 2160.507812 371.25 " transform="matrix(0.1, 0, 0, -0.1, 0, 195)"/>
<path fill-rule="evenodd" fill="rgb(0%, 0%, 0%)" fill-opacity="1" d="M 216.050781 162.746094 L 219.425781 154.953125 L 216.050781 157.875 L 212.671875 154.953125 Z M 216.050781 162.746094 "/>
<path fill-rule="evenodd" fill="rgb(0%, 0%, 0%)" fill-opacity="1" d="M 226.601562 93.261719 C 226.601562 93.246094 226.601562 93.066406 226.394531 93.066406 C 226.03125 93.066406 224.867188 93.246094 224.453125 93.246094 C 224.328125 93.261719 224.152344 93.28125 224.152344 93.601562 C 224.152344 93.816406 224.296875 93.816406 224.535156 93.816406 C 225.296875 93.816406 225.328125 93.945312 225.328125 94.132812 L 225.28125 94.507812 L 222.976562 105.273438 C 222.914062 105.535156 222.914062 105.574219 222.914062 105.6875 C 222.914062 106.113281 223.230469 106.207031 223.375 106.207031 C 223.578125 106.207031 223.816406 106.035156 223.914062 105.808594 C 223.992188 105.640625 224.710938 102.148438 224.804688 101.679688 C 225.34375 101.734375 226.652344 102.039062 226.652344 103.285156 C 226.652344 103.417969 226.652344 103.492188 226.601562 103.683594 C 226.574219 103.90625 226.539062 104.136719 226.539062 104.34375 C 226.539062 105.453125 227.195312 106.207031 228.050781 106.207031 C 228.542969 106.207031 228.988281 105.902344 229.351562 105.207031 C 229.761719 104.378906 229.941406 103.34375 229.941406 103.304688 C 229.941406 103.113281 229.792969 103.113281 229.746094 103.113281 C 229.582031 103.113281 229.566406 103.191406 229.519531 103.457031 C 229.191406 104.835938 228.820312 105.800781 228.105469 105.800781 C 227.796875 105.800781 227.585938 105.59375 227.585938 104.910156 C 227.585938 104.589844 227.652344 104.152344 227.71875 103.851562 C 227.789062 103.53125 227.789062 103.457031 227.789062 103.265625 C 227.789062 102.039062 226.753906 101.488281 225.363281 101.28125 C 225.871094 100.949219 226.394531 100.363281 226.773438 99.917969 C 227.558594 98.941406 228.3125 98.152344 229.117188 98.152344 C 229.214844 98.152344 229.230469 98.152344 229.265625 98.152344 C 229.453125 98.152344 229.46875 98.152344 229.59375 98.246094 C 229.628906 98.261719 229.628906 98.277344 229.65625 98.308594 C 228.902344 98.308594 228.761719 99.074219 228.761719 99.3125 C 228.761719 99.625 228.933594 99.996094 229.359375 99.996094 C 229.765625 99.996094 230.222656 99.597656 230.222656 98.890625 C 230.222656 98.34375 229.851562 97.746094 229.117188 97.746094 C 228.664062 97.746094 227.921875 97.894531 226.75 99.363281 C 226.199219 100.0625 225.566406 100.796875 224.949219 101.074219 L 226.601562 93.261719 "/>
<path fill-rule="evenodd" fill="rgb(0%, 0%, 0%)" fill-opacity="1" d="M 234.703125 95.984375 C 235.613281 95.515625 236.019531 95.332031 236.296875 95.171875 C 236.511719 95.070312 236.609375 95.015625 236.609375 94.769531 C 236.609375 94.546875 236.464844 94.351562 236.265625 94.351562 C 236.1875 94.351562 236.167969 94.351562 236.035156 94.46875 L 234.527344 95.660156 L 234.683594 93.722656 C 234.703125 93.488281 234.703125 93.160156 234.367188 93.160156 C 234.234375 93.160156 234.023438 93.265625 234.023438 93.554688 C 234.023438 93.671875 234.066406 94.0625 234.078125 94.195312 C 234.097656 94.414062 234.175781 95.359375 234.199219 95.660156 L 232.695312 94.46875 C 232.585938 94.390625 232.550781 94.351562 232.449219 94.351562 C 232.25 94.351562 232.105469 94.546875 232.105469 94.769531 C 232.105469 95.03125 232.238281 95.097656 232.339844 95.148438 L 234.023438 95.972656 C 233.109375 96.445312 232.695312 96.628906 232.417969 96.785156 C 232.207031 96.890625 232.105469 96.941406 232.105469 97.191406 C 232.105469 97.410156 232.25 97.609375 232.449219 97.609375 C 232.527344 97.609375 232.550781 97.609375 232.683594 97.488281 L 234.199219 96.296875 L 234.023438 98.40625 C 234.023438 98.691406 234.230469 98.796875 234.363281 98.796875 C 234.492188 98.796875 234.703125 98.691406 234.703125 98.40625 C 234.703125 98.289062 234.660156 97.894531 234.648438 97.761719 C 234.628906 97.542969 234.550781 96.601562 234.527344 96.296875 L 235.855469 97.347656 C 236.144531 97.609375 236.167969 97.609375 236.265625 97.609375 C 236.464844 97.609375 236.609375 97.410156 236.609375 97.191406 C 236.609375 96.929688 236.476562 96.863281 236.375 96.8125 L 234.703125 95.984375 "/>
<path fill-rule="evenodd" fill="rgb(0%, 0%, 0%)" fill-opacity="1" d="M 243.207031 99.019531 L 245.882812 99.019531 C 246.085938 99.019531 246.660156 99.019531 246.660156 98.382812 C 246.660156 97.9375 246.324219 97.9375 246.023438 97.9375 L 241.570312 97.9375 C 241.253906 97.9375 240.628906 97.9375 239.929688 98.8125 C 239.40625 99.484375 238.960938 100.378906 238.960938 100.488281 C 238.960938 100.511719 238.960938 100.679688 239.152344 100.679688 C 239.277344 100.679688 239.308594 100.605469 239.40625 100.457031 C 240.183594 99.019531 241.09375 99.019531 241.425781 99.019531 L 242.746094 99.019531 L 241.1875 105 C 241.121094 105.226562 241.027344 105.617188 241.027344 105.691406 C 241.027344 105.894531 241.140625 106.195312 241.488281 106.195312 C 242.015625 106.195312 242.09375 105.671875 242.140625 105.390625 L 243.207031 99.019531 "/>
<path fill-rule="evenodd" fill="rgb(0%, 0%, 0%)" fill-opacity="1" d="M 249.21875 100.625 C 249.21875 100.421875 249.089844 100.144531 248.78125 100.144531 C 248.484375 100.144531 248.164062 100.476562 248.164062 100.84375 C 248.164062 101.058594 248.308594 101.324219 248.605469 101.324219 C 248.921875 101.324219 249.21875 100.96875 249.21875 100.625 Z M 246.976562 107.273438 C 246.929688 107.445312 246.875 107.601562 246.875 107.820312 C 246.875 108.433594 247.316406 108.929688 247.921875 108.929688 C 249.023438 108.929688 249.507812 107.113281 249.507812 106.917969 C 249.507812 106.75 249.363281 106.75 249.332031 106.75 C 249.175781 106.75 249.164062 106.828125 249.121094 106.96875 C 248.867188 108.003906 248.378906 108.535156 247.949219 108.535156 C 247.726562 108.535156 247.671875 108.363281 247.671875 108.082031 C 247.671875 107.777344 247.746094 107.535156 247.847656 107.246094 C 247.960938 106.894531 248.078125 106.542969 248.199219 106.207031 C 248.300781 105.894531 248.699219 104.710938 248.742188 104.550781 C 248.773438 104.421875 248.808594 104.265625 248.808594 104.136719 C 248.808594 103.523438 248.367188 103.027344 247.761719 103.027344 C 246.671875 103.027344 246.164062 104.816406 246.164062 105.039062 C 246.164062 105.210938 246.320312 105.210938 246.351562 105.210938 C 246.507812 105.210938 246.515625 105.144531 246.550781 105.003906 C 246.839844 103.886719 247.328125 103.421875 247.734375 103.421875 C 247.914062 103.421875 248.011719 103.527344 248.011719 103.878906 C 248.011719 104.179688 247.945312 104.371094 247.671875 105.179688 Z M 252.605469 108.589844 C 252.605469 109.296875 252.492188 110.128906 251.738281 110.953125 C 251.691406 111.007812 251.660156 111.042969 251.660156 111.109375 C 251.660156 111.199219 251.75 111.289062 251.816406 111.289062 C 251.972656 111.289062 252.929688 110.253906 252.929688 108.707031 C 252.929688 107.902344 252.65625 107.292969 252.140625 107.292969 C 251.773438 107.292969 251.503906 107.632812 251.503906 108.039062 C 251.503906 108.457031 251.757812 108.796875 252.148438 108.796875 C 252.414062 108.796875 252.59375 108.589844 252.605469 108.589844 Z M 259.03125 100.625 C 259.03125 100.410156 258.882812 100.144531 258.566406 100.144531 C 258.230469 100.144531 257.914062 100.5 257.914062 100.84375 C 257.914062 101.046875 258.054688 101.324219 258.378906 101.324219 C 258.695312 101.324219 259.03125 100.996094 259.03125 100.625 Z M 256.59375 109.386719 C 256.402344 110.277344 255.804688 111.027344 255.140625 111.027344 C 254.992188 111.027344 254.859375 111 254.734375 110.949219 C 255.011719 110.796875 255.097656 110.496094 255.097656 110.3125 C 255.097656 110.011719 254.894531 109.847656 254.683594 109.847656 C 254.351562 109.847656 254.074219 110.195312 254.074219 110.605469 C 254.074219 111.097656 254.515625 111.417969 255.191406 111.417969 C 255.871094 111.417969 257.195312 110.949219 257.546875 109.363281 L 258.5625 104.707031 C 258.597656 104.5625 258.621094 104.445312 258.621094 104.253906 C 258.621094 103.535156 258.078125 103.027344 257.386719 103.027344 C 256.105469 103.027344 255.371094 104.859375 255.371094 105.042969 C 255.371094 105.214844 255.53125 105.214844 255.5625 105.214844 C 255.699219 105.214844 255.710938 105.171875 255.789062 104.980469 C 256.074219 104.226562 256.664062 103.421875 257.324219 103.421875 C 257.609375 103.421875 257.710938 103.640625 257.710938 104.054688 C 257.710938 104.195312 257.6875 104.378906 257.675781 104.441406 L 256.59375 109.386719 "/>
<path fill="none" stroke-width="3.37" stroke-linecap="square" stroke-linejoin="miter" stroke="rgb(0%, 0%, 0%)" stroke-opacity="1" stroke-miterlimit="10" d="M 705.039062 136.523438 L 1770.585938 136.523438 " transform="matrix(0.1, 0, 0, -0.1, 0, 195)"/>
<path fill-rule="evenodd" fill="rgb(0%, 0%, 0%)" fill-opacity="1" d="M 181.28125 181.347656 L 174.527344 177.453125 L 177.058594 181.347656 L 174.527344 185.242188 Z M 181.28125 181.347656 "/>
<path fill-rule="evenodd" fill="rgb(0%, 0%, 0%)" fill-opacity="1" d="M 111.90625 162.027344 L 114.578125 162.027344 C 114.785156 162.027344 115.359375 162.027344 115.359375 161.390625 C 115.359375 160.941406 115.023438 160.941406 114.722656 160.941406 L 110.269531 160.941406 C 109.949219 160.941406 109.328125 160.941406 108.628906 161.816406 C 108.105469 162.492188 107.65625 163.386719 107.65625 163.496094 C 107.65625 163.519531 107.65625 163.683594 107.851562 163.683594 C 107.976562 163.683594 108.007812 163.613281 108.105469 163.464844 C 108.882812 162.027344 109.789062 162.027344 110.125 162.027344 L 111.445312 162.027344 L 109.886719 168.007812 C 109.820312 168.234375 109.726562 168.625 109.726562 168.699219 C 109.726562 168.902344 109.839844 169.203125 110.191406 169.203125 C 110.714844 169.203125 110.792969 168.679688 110.839844 168.398438 L 111.90625 162.027344 "/>
<path fill-rule="evenodd" fill="rgb(0%, 0%, 0%)" fill-opacity="1" d="M 119.285156 163.636719 C 119.285156 163.421875 119.132812 163.15625 118.820312 163.15625 C 118.480469 163.15625 118.167969 163.511719 118.167969 163.851562 C 118.167969 164.054688 118.308594 164.335938 118.632812 164.335938 C 118.945312 164.335938 119.285156 164.003906 119.285156 163.636719 Z M 116.847656 172.398438 C 116.65625 173.285156 116.058594 174.035156 115.394531 174.035156 C 115.246094 174.035156 115.113281 174.011719 114.988281 173.960938 C 115.265625 173.808594 115.351562 173.507812 115.351562 173.320312 C 115.351562 173.019531 115.148438 172.855469 114.933594 172.855469 C 114.605469 172.855469 114.328125 173.203125 114.328125 173.617188 C 114.328125 174.109375 114.769531 174.429688 115.445312 174.429688 C 116.125 174.429688 117.449219 173.960938 117.796875 172.375 L 118.816406 167.714844 C 118.847656 167.574219 118.871094 167.457031 118.871094 167.261719 C 118.871094 166.546875 118.332031 166.039062 117.640625 166.039062 C 116.359375 166.039062 115.621094 167.871094 115.621094 168.054688 C 115.621094 168.222656 115.78125 168.222656 115.816406 168.222656 C 115.953125 168.222656 115.964844 168.183594 116.042969 167.988281 C 116.328125 167.238281 116.917969 166.433594 117.574219 166.433594 C 117.859375 166.433594 117.964844 166.652344 117.964844 167.066406 C 117.964844 167.207031 117.941406 167.386719 117.929688 167.453125 L 116.847656 172.398438 "/>
<path fill-rule="evenodd" fill="rgb(0%, 0%, 0%)" fill-opacity="1" d="M 122.078125 171.597656 C 122.078125 172.308594 121.964844 173.136719 121.210938 173.960938 C 121.164062 174.015625 121.132812 174.050781 121.132812 174.117188 C 121.132812 174.207031 121.222656 174.296875 121.289062 174.296875 C 121.445312 174.296875 122.402344 173.261719 122.402344 171.71875 C 122.402344 170.914062 122.132812 170.304688 121.613281 170.304688 C 121.246094 170.304688 120.976562 170.644531 120.976562 171.046875 C 120.976562 171.46875 121.230469 171.808594 121.621094 171.808594 C 121.886719 171.808594 122.066406 171.597656 122.078125 171.597656 Z M 127.085938 163.089844 C 127.097656 163.070312 127.128906 162.921875 127.128906 162.910156 C 127.128906 162.808594 127.085938 162.628906 126.953125 162.628906 C 126.730469 162.628906 125.804688 162.886719 125.527344 162.886719 C 125.4375 162.886719 125.28125 162.886719 125.28125 163.125 C 125.28125 163.285156 125.4375 163.285156 125.570312 163.285156 C 126.105469 163.285156 126.105469 163.378906 126.105469 163.484375 C 126.105469 163.578125 126.082031 163.65625 126.0625 163.773438 L 124.488281 171.203125 C 124.433594 171.4375 124.433594 171.464844 124.433594 171.492188 C 124.433594 171.703125 124.566406 171.9375 124.8125 171.9375 C 125.113281 171.9375 125.257812 171.664062 125.324219 171.359375 C 125.347656 171.308594 125.828125 168.992188 125.871094 168.808594 C 126.660156 168.898438 127.296875 169.203125 127.296875 169.886719 C 127.296875 169.953125 127.296875 170.019531 127.273438 170.148438 C 127.230469 170.347656 127.230469 170.414062 127.230469 170.558594 C 127.230469 171.511719 127.875 171.9375 128.40625 171.9375 C 129.484375 171.9375 129.816406 169.914062 129.816406 169.898438 C 129.816406 169.730469 129.675781 169.730469 129.640625 169.730469 C 129.488281 169.730469 129.476562 169.796875 129.425781 170.042969 C 129.292969 170.609375 128.996094 171.542969 128.460938 171.542969 C 128.167969 171.542969 128.078125 171.214844 128.078125 170.859375 C 128.078125 170.636719 128.078125 170.609375 128.148438 170.269531 C 128.160156 170.230469 128.207031 170.007812 128.207031 169.859375 C 128.207031 168.6875 126.847656 168.503906 126.371094 168.464844 C 126.691406 168.238281 127.101562 167.820312 127.289062 167.632812 C 127.847656 167.027344 128.402344 166.433594 129.019531 166.433594 C 129.152344 166.433594 129.292969 166.46875 129.382812 166.59375 C 128.878906 166.679688 128.773438 167.101562 128.773438 167.285156 C 128.773438 167.558594 128.972656 167.742188 129.242188 167.742188 C 129.558594 167.742188 129.910156 167.460938 129.910156 166.929688 C 129.910156 166.511719 129.644531 166.039062 129.054688 166.039062 C 128.417969 166.039062 127.839844 166.566406 127.273438 167.167969 C 126.808594 167.679688 126.441406 168.078125 125.984375 168.296875 L 127.085938 163.089844 "/>
<path fill-rule="evenodd" fill="rgb(0%, 0%, 0%)" fill-opacity="1" d="M 136.046875 157.316406 C 136.046875 156.941406 135.820312 156.636719 135.449219 156.636719 C 135.015625 156.636719 134.582031 157.128906 134.582031 157.640625 C 134.582031 158 134.808594 158.320312 135.191406 158.320312 C 135.5625 158.320312 136.046875 157.886719 136.046875 157.316406 Z M 134.84375 164.359375 C 135.03125 163.820312 135.03125 163.78125 135.1875 163.277344 C 135.316406 162.902344 135.394531 162.644531 135.394531 162.289062 C 135.394531 161.445312 134.882812 160.757812 134.085938 160.757812 C 132.589844 160.757812 131.984375 163.464844 131.984375 163.628906 C 131.984375 163.816406 132.140625 163.816406 132.175781 163.816406 C 132.332031 163.816406 132.347656 163.777344 132.429688 163.480469 C 132.855469 161.722656 133.484375 161.160156 134.023438 161.160156 C 134.148438 161.160156 134.417969 161.160156 134.417969 161.757812 C 134.417969 162.148438 134.308594 162.542969 134.246094 162.730469 C 134.121094 163.214844 133.410156 165.382812 133.160156 166.1875 C 133 166.671875 132.796875 167.289062 132.796875 167.679688 C 132.796875 168.5625 133.339844 169.214844 134.101562 169.214844 C 135.601562 169.214844 136.191406 166.507812 136.191406 166.339844 C 136.191406 166.152344 136.046875 166.152344 136 166.152344 C 135.84375 166.152344 135.84375 166.207031 135.765625 166.488281 C 135.476562 167.667969 134.957031 168.808594 134.148438 168.808594 C 133.882812 168.808594 133.769531 168.621094 133.769531 168.191406 C 133.769531 167.726562 133.863281 167.464844 134.226562 166.324219 L 134.84375 164.359375 "/>
<path fill-rule="evenodd" fill="rgb(0%, 0%, 0%)" fill-opacity="1" d="M 140.726562 158.996094 C 141.636719 158.523438 142.046875 158.34375 142.320312 158.183594 C 142.53125 158.082031 142.632812 158.027344 142.632812 157.777344 C 142.632812 157.558594 142.488281 157.359375 142.289062 157.359375 C 142.210938 157.359375 142.191406 157.359375 142.058594 157.480469 L 140.550781 158.667969 L 140.707031 156.734375 C 140.726562 156.496094 140.726562 156.167969 140.390625 156.167969 C 140.257812 156.167969 140.046875 156.273438 140.046875 156.5625 C 140.046875 156.679688 140.089844 157.074219 140.101562 157.207031 C 140.121094 157.425781 140.199219 158.367188 140.222656 158.667969 L 138.71875 157.480469 C 138.605469 157.398438 138.574219 157.359375 138.472656 157.359375 C 138.273438 157.359375 138.128906 157.558594 138.128906 157.777344 C 138.128906 158.039062 138.261719 158.105469 138.363281 158.15625 L 140.046875 158.984375 C 139.132812 159.453125 138.71875 159.636719 138.441406 159.792969 C 138.230469 159.898438 138.128906 159.953125 138.128906 160.199219 C 138.128906 160.421875 138.273438 160.617188 138.472656 160.617188 C 138.550781 160.617188 138.574219 160.617188 138.707031 160.5 L 140.222656 159.308594 L 140.046875 161.414062 C 140.046875 161.703125 140.253906 161.808594 140.386719 161.808594 C 140.519531 161.808594 140.726562 161.703125 140.726562 161.414062 C 140.726562 161.296875 140.683594 160.902344 140.671875 160.773438 C 140.652344 160.550781 140.574219 159.609375 140.550781 159.308594 L 141.878906 160.355469 C 142.167969 160.617188 142.191406 160.617188 142.289062 160.617188 C 142.488281 160.617188 142.632812 160.421875 142.632812 160.199219 C 142.632812 159.9375 142.5 159.871094 142.398438 159.820312 L 140.726562 158.996094 "/>
</svg>
