<?xml version="1.0" encoding="UTF-8"?>
<svg xmlns="http://www.w3.org/2000/svg" xmlns:xlink="http://www.w3.org/1999/xlink" width="230.38" height="230.37" viewBox="0 0 230.38 230.37">
<path fill="none" stroke-width="5" stroke-linecap="round" stroke-linejoin="round" stroke="rgb(37.109375%, 100%, 0%)" stroke-opacity="1" stroke-miterlimit="10" d="M 818.001225 818.007486 L 436.413657 1581.143454 L 436.413657 818.007486 L 818.001225 818.007486 " transform="matrix(0.0997273, 0, 0, -0.0997273, 0.005, 229.741718)"/>
<path fill="none" stroke-width="5" stroke-linecap="round" stroke-linejoin="round" stroke="rgb(0%, 45.896912%, 100%)" stroke-opacity="1" stroke-miterlimit="10" d="M 2153.518545 818.007486 L 1771.930977 1581.143454 L 1390.343408 2153.485637 L 1581.176362 1008.801271 L 2153.518545 818.007486 " transform="matrix(0.0997273, 0, 0, -0.0997273, 0.005, 229.741718)"/>
<path fill="none" stroke-width="5" stroke-linecap="round" stroke-linejoin="round" stroke="rgb(100%, 17.797852%, 0%)" stroke-opacity="1" stroke-miterlimit="10" d="M 1962.724761 436.419918 L 627.207441 1581.143454 L 627.207441 1390.34967 L 1962.724761 436.419918 " transform="matrix(0.0997273, 0, 0, -0.0997273, 0.005, 229.741718)"/>
<path fill="none" stroke-width="18.43" stroke-linecap="round" stroke-linejoin="round" stroke="rgb(0%, 0%, 0%)" stroke-opacity="1" stroke-miterlimit="10" d="M 245.659042 245.665303 L 245.659042 245.665303 " transform="matrix(0.0997273, 0, 0, -0.0997273, 0.005, 229.741718)"/>
<path fill="none" stroke-width="18.43" stroke-linecap="round" stroke-linejoin="round" stroke="rgb(0%, 0%, 0%)" stroke-opacity="1" stroke-miterlimit="10" d="M 245.659042 436.419918 L 245.659042 436.419918 " transform="matrix(0.0997273, 0, 0, -0.0997273, 0.005, 229.741718)"/>
<path fill="none" stroke-width="18.43" stroke-linecap="round" stroke-linejoin="round" stroke="rgb(0%, 0%, 0%)" stroke-opacity="1" stroke-miterlimit="10" d="M 245.659042 627.213702 L 245.659042 627.213702 " transform="matrix(0.0997273, 0, 0, -0.0997273, 0.005, 229.741718)"/>
<path fill="none" stroke-width="18.43" stroke-linecap="round" stroke-linejoin="round" stroke="rgb(0%, 0%, 0%)" stroke-opacity="1" stroke-miterlimit="10" d="M 245.659042 818.007486 L 245.659042 818.007486 " transform="matrix(0.0997273, 0, 0, -0.0997273, 0.005, 229.741718)"/>
<path fill="none" stroke-width="18.43" stroke-linecap="round" stroke-linejoin="round" stroke="rgb(0%, 0%, 0%)" stroke-opacity="1" stroke-miterlimit="10" d="M 245.659042 1008.801271 L 245.659042 1008.801271 " transform="matrix(0.0997273, 0, 0, -0.0997273, 0.005, 229.741718)"/>
<path fill="none" stroke-width="18.43" stroke-linecap="round" stroke-linejoin="round" stroke="rgb(0%, 0%, 0%)" stroke-opacity="1" stroke-miterlimit="10" d="M 245.659042 1199.555885 L 245.659042 1199.555885 " transform="matrix(0.0997273, 0, 0, -0.0997273, 0.005, 229.741718)"/>
<path fill="none" stroke-width="18.43" stroke-linecap="round" stroke-linejoin="round" stroke="rgb(0%, 0%, 0%)" stroke-opacity="1" stroke-miterlimit="10" d="M 245.659042 1390.34967 L 245.659042 1390.34967 " transform="matrix(0.0997273, 0, 0, -0.0997273, 0.005, 229.741718)"/>
<path fill="none" stroke-width="18.43" stroke-linecap="round" stroke-linejoin="round" stroke="rgb(0%, 0%, 0%)" stroke-opacity="1" stroke-miterlimit="10" d="M 245.659042 1581.143454 L 245.659042 1581.143454 " transform="matrix(0.0997273, 0, 0, -0.0997273, 0.005, 229.741718)"/>
<path fill="none" stroke-width="18.43" stroke-linecap="round" stroke-linejoin="round" stroke="rgb(0%, 0%, 0%)" stroke-opacity="1" stroke-miterlimit="10" d="M 245.659042 1771.937238 L 245.659042 1771.937238 " transform="matrix(0.0997273, 0, 0, -0.0997273, 0.005, 229.741718)"/>
<path fill="none" stroke-width="18.43" stroke-linecap="round" stroke-linejoin="round" stroke="rgb(0%, 0%, 0%)" stroke-opacity="1" stroke-miterlimit="10" d="M 245.659042 1962.731022 L 245.659042 1962.731022 " transform="matrix(0.0997273, 0, 0, -0.0997273, 0.005, 229.741718)"/>
<path fill="none" stroke-width="18.43" stroke-linecap="round" stroke-linejoin="round" stroke="rgb(0%, 0%, 0%)" stroke-opacity="1" stroke-miterlimit="10" d="M 245.659042 2153.485637 L 245.659042 2153.485637 " transform="matrix(0.0997273, 0, 0, -0.0997273, 0.005, 229.741718)"/>
<path fill="none" stroke-width="18.43" stroke-linecap="round" stroke-linejoin="round" stroke="rgb(0%, 0%, 0%)" stroke-opacity="1" stroke-miterlimit="10" d="M 436.413657 245.665303 L 436.413657 245.665303 " transform="matrix(0.0997273, 0, 0, -0.0997273, 0.005, 229.741718)"/>
<path fill="none" stroke-width="18.43" stroke-linecap="round" stroke-linejoin="round" stroke="rgb(0%, 0%, 0%)" stroke-opacity="1" stroke-miterlimit="10" d="M 436.413657 436.419918 L 436.413657 436.419918 " transform="matrix(0.0997273, 0, 0, -0.0997273, 0.005, 229.741718)"/>
<path fill="none" stroke-width="18.43" stroke-linecap="round" stroke-linejoin="round" stroke="rgb(0%, 0%, 0%)" stroke-opacity="1" stroke-miterlimit="10" d="M 436.413657 627.213702 L 436.413657 627.213702 " transform="matrix(0.0997273, 0, 0, -0.0997273, 0.005, 229.741718)"/>
<path fill="none" stroke-width="18.43" stroke-linecap="round" stroke-linejoin="round" stroke="rgb(0%, 0%, 0%)" stroke-opacity="1" stroke-miterlimit="10" d="M 436.413657 818.007486 L 436.413657 818.007486 " transform="matrix(0.0997273, 0, 0, -0.0997273, 0.005, 229.741718)"/>
<path fill="none" stroke-width="18.43" stroke-linecap="round" stroke-linejoin="round" stroke="rgb(0%, 0%, 0%)" stroke-opacity="1" stroke-miterlimit="10" d="M 436.413657 1008.801271 L 436.413657 1008.801271 " transform="matrix(0.0997273, 0, 0, -0.0997273, 0.005, 229.741718)"/>
<path fill="none" stroke-width="18.43" stroke-linecap="round" stroke-linejoin="round" stroke="rgb(0%, 0%, 0%)" stroke-opacity="1" stroke-miterlimit="10" d="M 436.413657 1199.555885 L 436.413657 1199.555885 " transform="matrix(0.0997273, 0, 0, -0.0997273, 0.005, 229.741718)"/>
<path fill="none" stroke-width="18.43" stroke-linecap="round" stroke-linejoin="round" stroke="rgb(0%, 0%, 0%)" stroke-opacity="1" stroke-miterlimit="10" d="M 436.413657 1390.34967 L 436.413657 1390.34967 " transform="matrix(0.0997273, 0, 0, -0.0997273, 0.005, 229.741718)"/>
<path fill="none" stroke-width="18.43" stroke-linecap="round" stroke-linejoin="round" stroke="rgb(0%, 0%, 0%)" stroke-opacity="1" stroke-miterlimit="10" d="M 436.413657 1581.143454 L 436.413657 1581.143454 " transform="matrix(0.0997273, 0, 0, -0.0997273, 0.005, 229.741718)"/>
<path fill="none" stroke-width="18.43" stroke-linecap="round" stroke-linejoin="round" stroke="rgb(0%, 0%, 0%)" stroke-opacity="1" stroke-miterlimit="10" d="M 436.413657 1771.937238 L 436.413657 1771.937238 " transform="matrix(0.0997273, 0, 0, -0.0997273, 0.005, 229.741718)"/>
<path fill="none" stroke-width="18.43" stroke-linecap="round" stroke-linejoin="round" stroke="rgb(0%, 0%, 0%)" stroke-opacity="1" stroke-miterlimit="10" d="M 436.413657 1962.731022 L 436.413657 1962.731022 " transform="matrix(0.0997273, 0, 0, -0.0997273, 0.005, 229.741718)"/>
<path fill="none" stroke-width="18.43" stroke-linecap="round" stroke-linejoin="round" stroke="rgb(0%, 0%, 0%)" stroke-opacity="1" stroke-miterlimit="10" d="M 436.413657 2153.485637 L 436.413657 2153.485637 " transform="matrix(0.0997273, 0, 0, -0.0997273, 0.005, 229.741718)"/>
<path fill="none" stroke-width="18.43" stroke-linecap="round" stroke-linejoin="round" stroke="rgb(0%, 0%, 0%)" stroke-opacity="1" stroke-miterlimit="10" d="M 627.207441 245.665303 L 627.207441 245.665303 " transform="matrix(0.0997273, 0, 0, -0.0997273, 0.005, 229.741718)"/>
<path fill="none" stroke-width="18.43" stroke-linecap="round" stroke-linejoin="round" stroke="rgb(0%, 0%, 0%)" stroke-opacity="1" stroke-miterlimit="10" d="M 627.207441 436.419918 L 627.207441 436.419918 " transform="matrix(0.0997273, 0, 0, -0.0997273, 0.005, 229.741718)"/>
<path fill="none" stroke-width="18.43" stroke-linecap="round" stroke-linejoin="round" stroke="rgb(0%, 0%, 0%)" stroke-opacity="1" stroke-miterlimit="10" d="M 627.207441 627.213702 L 627.207441 627.213702 " transform="matrix(0.0997273, 0, 0, -0.0997273, 0.005, 229.741718)"/>
<path fill="none" stroke-width="18.43" stroke-linecap="round" stroke-linejoin="round" stroke="rgb(0%, 0%, 0%)" stroke-opacity="1" stroke-miterlimit="10" d="M 627.207441 818.007486 L 627.207441 818.007486 " transform="matrix(0.0997273, 0, 0, -0.0997273, 0.005, 229.741718)"/>
<path fill="none" stroke-width="18.43" stroke-linecap="round" stroke-linejoin="round" stroke="rgb(0%, 0%, 0%)" stroke-opacity="1" stroke-miterlimit="10" d="M 627.207441 1008.801271 L 627.207441 1008.801271 " transform="matrix(0.0997273, 0, 0, -0.0997273, 0.005, 229.741718)"/>
<path fill="none" stroke-width="18.43" stroke-linecap="round" stroke-linejoin="round" stroke="rgb(0%, 0%, 0%)" stroke-opacity="1" stroke-miterlimit="10" d="M 627.207441 1199.555885 L 627.207441 1199.555885 " transform="matrix(0.0997273, 0, 0, -0.0997273, 0.005, 229.741718)"/>
<path fill="none" stroke-width="18.43" stroke-linecap="round" stroke-linejoin="round" stroke="rgb(0%, 0%, 0%)" stroke-opacity="1" stroke-miterlimit="10" d="M 627.207441 1390.34967 L 627.207441 1390.34967 " transform="matrix(0.0997273, 0, 0, -0.0997273, 0.005, 229.741718)"/>
<path fill="none" stroke-width="18.43" stroke-linecap="round" stroke-linejoin="round" stroke="rgb(0%, 0%, 0%)" stroke-opacity="1" stroke-miterlimit="10" d="M 627.207441 1581.143454 L 627.207441 1581.143454 " transform="matrix(0.0997273, 0, 0, -0.0997273, 0.005, 229.741718)"/>
<path fill="none" stroke-width="18.43" stroke-linecap="round" stroke-linejoin="round" stroke="rgb(0%, 0%, 0%)" stroke-opacity="1" stroke-miterlimit="10" d="M 627.207441 1771.937238 L 627.207441 1771.937238 " transform="matrix(0.0997273, 0, 0, -0.0997273, 0.005, 229.741718)"/>
<path fill="none" stroke-width="18.43" stroke-linecap="round" stroke-linejoin="round" stroke="rgb(0%, 0%, 0%)" stroke-opacity="1" stroke-miterlimit="10" d="M 627.207441 1962.731022 L 627.207441 1962.731022 " transform="matrix(0.0997273, 0, 0, -0.0997273, 0.005, 229.741718)"/>
<path fill="none" stroke-width="18.43" stroke-linecap="round" stroke-linejoin="round" stroke="rgb(0%, 0%, 0%)" stroke-opacity="1" stroke-miterlimit="10" d="M 627.207441 2153.485637 L 627.207441 2153.485637 " transform="matrix(0.0997273, 0, 0, -0.0997273, 0.005, 229.741718)"/>
<path fill="none" stroke-width="18.43" stroke-linecap="round" stroke-linejoin="round" stroke="rgb(0%, 0%, 0%)" stroke-opacity="1" stroke-miterlimit="10" d="M 818.001225 245.665303 L 818.001225 245.665303 " transform="matrix(0.0997273, 0, 0, -0.0997273, 0.005, 229.741718)"/>
<path fill="none" stroke-width="18.43" stroke-linecap="round" stroke-linejoin="round" stroke="rgb(0%, 0%, 0%)" stroke-opacity="1" stroke-miterlimit="10" d="M 818.001225 436.419918 L 818.001225 436.419918 " transform="matrix(0.0997273, 0, 0, -0.0997273, 0.005, 229.741718)"/>
<path fill="none" stroke-width="18.43" stroke-linecap="round" stroke-linejoin="round" stroke="rgb(0%, 0%, 0%)" stroke-opacity="1" stroke-miterlimit="10" d="M 818.001225 627.213702 L 818.001225 627.213702 " transform="matrix(0.0997273, 0, 0, -0.0997273, 0.005, 229.741718)"/>
<path fill="none" stroke-width="18.43" stroke-linecap="round" stroke-linejoin="round" stroke="rgb(0%, 0%, 0%)" stroke-opacity="1" stroke-miterlimit="10" d="M 818.001225 818.007486 L 818.001225 818.007486 " transform="matrix(0.0997273, 0, 0, -0.0997273, 0.005, 229.741718)"/>
<path fill="none" stroke-width="18.43" stroke-linecap="round" stroke-linejoin="round" stroke="rgb(0%, 0%, 0%)" stroke-opacity="1" stroke-miterlimit="10" d="M 818.001225 1008.801271 L 818.001225 1008.801271 " transform="matrix(0.0997273, 0, 0, -0.0997273, 0.005, 229.741718)"/>
<path fill="none" stroke-width="18.43" stroke-linecap="round" stroke-linejoin="round" stroke="rgb(0%, 0%, 0%)" stroke-opacity="1" stroke-miterlimit="10" d="M 818.001225 1199.555885 L 818.001225 1199.555885 " transform="matrix(0.0997273, 0, 0, -0.0997273, 0.005, 229.741718)"/>
<path fill="none" stroke-width="18.43" stroke-linecap="round" stroke-linejoin="round" stroke="rgb(0%, 0%, 0%)" stroke-opacity="1" stroke-miterlimit="10" d="M 818.001225 1390.34967 L 818.001225 1390.34967 " transform="matrix(0.0997273, 0, 0, -0.0997273, 0.005, 229.741718)"/>
<path fill="none" stroke-width="18.43" stroke-linecap="round" stroke-linejoin="round" stroke="rgb(0%, 0%, 0%)" stroke-opacity="1" stroke-miterlimit="10" d="M 818.001225 1581.143454 L 818.001225 1581.143454 " transform="matrix(0.0997273, 0, 0, -0.0997273, 0.005, 229.741718)"/>
<path fill="none" stroke-width="18.43" stroke-linecap="round" stroke-linejoin="round" stroke="rgb(0%, 0%, 0%)" stroke-opacity="1" stroke-miterlimit="10" d="M 818.001225 1771.937238 L 818.001225 1771.937238 " transform="matrix(0.0997273, 0, 0, -0.0997273, 0.005, 229.741718)"/>
<path fill="none" stroke-width="18.43" stroke-linecap="round" stroke-linejoin="round" stroke="rgb(0%, 0%, 0%)" stroke-opacity="1" stroke-miterlimit="10" d="M 818.001225 1962.731022 L 818.001225 1962.731022 " transform="matrix(0.0997273, 0, 0, -0.0997273, 0.005, 229.741718)"/>
<path fill="none" stroke-width="18.43" stroke-linecap="round" stroke-linejoin="round" stroke="rgb(0%, 0%, 0%)" stroke-opacity="1" stroke-miterlimit="10" d="M 818.001225 2153.485637 L 818.001225 2153.485637 " transform="matrix(0.0997273, 0, 0, -0.0997273, 0.005, 229.741718)"/>
<path fill="none" stroke-width="18.43" stroke-linecap="round" stroke-linejoin="round" stroke="rgb(0%, 0%, 0%)" stroke-opacity="1" stroke-miterlimit="10" d="M 1008.795009 245.665303 L 1008.795009 245.665303 " transform="matrix(0.0997273, 0, 0, -0.0997273, 0.005, 229.741718)"/>
<path fill="none" stroke-width="18.43" stroke-linecap="round" stroke-linejoin="round" stroke="rgb(0%, 0%, 0%)" stroke-opacity="1" stroke-miterlimit="10" d="M 1008.795009 436.419918 L 1008.795009 436.419918 " transform="matrix(0.0997273, 0, 0, -0.0997273, 0.005, 229.741718)"/>
<path fill="none" stroke-width="18.43" stroke-linecap="round" stroke-linejoin="round" stroke="rgb(0%, 0%, 0%)" stroke-opacity="1" stroke-miterlimit="10" d="M 1008.795009 627.213702 L 1008.795009 627.213702 " transform="matrix(0.0997273, 0, 0, -0.0997273, 0.005, 229.741718)"/>
<path fill="none" stroke-width="18.43" stroke-linecap="round" stroke-linejoin="round" stroke="rgb(0%, 0%, 0%)" stroke-opacity="1" stroke-miterlimit="10" d="M 1008.795009 818.007486 L 1008.795009 818.007486 " transform="matrix(0.0997273, 0, 0, -0.0997273, 0.005, 229.741718)"/>
<path fill="none" stroke-width="18.43" stroke-linecap="round" stroke-linejoin="round" stroke="rgb(0%, 0%, 0%)" stroke-opacity="1" stroke-miterlimit="10" d="M 1008.795009 1008.801271 L 1008.795009 1008.801271 " transform="matrix(0.0997273, 0, 0, -0.0997273, 0.005, 229.741718)"/>
<path fill="none" stroke-width="18.43" stroke-linecap="round" stroke-linejoin="round" stroke="rgb(0%, 0%, 0%)" stroke-opacity="1" stroke-miterlimit="10" d="M 1008.795009 1199.555885 L 1008.795009 1199.555885 " transform="matrix(0.0997273, 0, 0, -0.0997273, 0.005, 229.741718)"/>
<path fill="none" stroke-width="18.43" stroke-linecap="round" stroke-linejoin="round" stroke="rgb(0%, 0%, 0%)" stroke-opacity="1" stroke-miterlimit="10" d="M 1008.795009 1390.34967 L 1008.795009 1390.34967 " transform="matrix(0.0997273, 0, 0, -0.0997273, 0.005, 229.741718)"/>
<path fill="none" stroke-width="18.43" stroke-linecap="round" stroke-linejoin="round" stroke="rgb(0%, 0%, 0%)" stroke-opacity="1" stroke-miterlimit="10" d="M 1008.795009 1581.143454 L 1008.795009 1581.143454 " transform="matrix(0.0997273, 0, 0, -0.0997273, 0.005, 229.741718)"/>
<path fill="none" stroke-width="18.43" stroke-linecap="round" stroke-linejoin="round" stroke="rgb(0%, 0%, 0%)" stroke-opacity="1" stroke-miterlimit="10" d="M 1008.795009 1771.937238 L 1008.795009 1771.937238 " transform="matrix(0.0997273, 0, 0, -0.0997273, 0.005, 229.741718)"/>
<path fill="none" stroke-width="18.43" stroke-linecap="round" stroke-linejoin="round" stroke="rgb(0%, 0%, 0%)" stroke-opacity="1" stroke-miterlimit="10" d="M 1008.795009 1962.731022 L 1008.795009 1962.731022 " transform="matrix(0.0997273, 0, 0, -0.0997273, 0.005, 229.741718)"/>
<path fill="none" stroke-width="18.43" stroke-linecap="round" stroke-linejoin="round" stroke="rgb(0%, 0%, 0%)" stroke-opacity="1" stroke-miterlimit="10" d="M 1008.795009 2153.485637 L 1008.795009 2153.485637 " transform="matrix(0.0997273, 0, 0, -0.0997273, 0.005, 229.741718)"/>
<path fill="none" stroke-width="18.43" stroke-linecap="round" stroke-linejoin="round" stroke="rgb(0%, 0%, 0%)" stroke-opacity="1" stroke-miterlimit="10" d="M 1199.549624 245.665303 L 1199.549624 245.665303 " transform="matrix(0.0997273, 0, 0, -0.0997273, 0.005, 229.741718)"/>
<path fill="none" stroke-width="18.43" stroke-linecap="round" stroke-linejoin="round" stroke="rgb(0%, 0%, 0%)" stroke-opacity="1" stroke-miterlimit="10" d="M 1199.549624 436.419918 L 1199.549624 436.419918 " transform="matrix(0.0997273, 0, 0, -0.0997273, 0.005, 229.741718)"/>
<path fill="none" stroke-width="18.43" stroke-linecap="round" stroke-linejoin="round" stroke="rgb(0%, 0%, 0%)" stroke-opacity="1" stroke-miterlimit="10" d="M 1199.549624 627.213702 L 1199.549624 627.213702 " transform="matrix(0.0997273, 0, 0, -0.0997273, 0.005, 229.741718)"/>
<path fill="none" stroke-width="18.43" stroke-linecap="round" stroke-linejoin="round" stroke="rgb(0%, 0%, 0%)" stroke-opacity="1" stroke-miterlimit="10" d="M 1199.549624 818.007486 L 1199.549624 818.007486 " transform="matrix(0.0997273, 0, 0, -0.0997273, 0.005, 229.741718)"/>
<path fill="none" stroke-width="18.43" stroke-linecap="round" stroke-linejoin="round" stroke="rgb(0%, 0%, 0%)" stroke-opacity="1" stroke-miterlimit="10" d="M 1199.549624 1008.801271 L 1199.549624 1008.801271 " transform="matrix(0.0997273, 0, 0, -0.0997273, 0.005, 229.741718)"/>
<path fill="none" stroke-width="18.43" stroke-linecap="round" stroke-linejoin="round" stroke="rgb(0%, 0%, 0%)" stroke-opacity="1" stroke-miterlimit="10" d="M 1199.549624 1199.555885 L 1199.549624 1199.555885 " transform="matrix(0.0997273, 0, 0, -0.0997273, 0.005, 229.741718)"/>
<path fill="none" stroke-width="18.43" stroke-linecap="round" stroke-linejoin="round" stroke="rgb(0%, 0%, 0%)" stroke-opacity="1" stroke-miterlimit="10" d="M 1199.549624 1390.34967 L 1199.549624 1390.34967 " transform="matrix(0.0997273, 0, 0, -0.0997273, 0.005, 229.741718)"/>
<path fill="none" stroke-width="18.43" stroke-linecap="round" stroke-linejoin="round" stroke="rgb(0%, 0%, 0%)" stroke-opacity="1" stroke-miterlimit="10" d="M 1199.549624 1581.143454 L 1199.549624 1581.143454 " transform="matrix(0.0997273, 0, 0, -0.0997273, 0.005, 229.741718)"/>
<path fill="none" stroke-width="18.43" stroke-linecap="round" stroke-linejoin="round" stroke="rgb(0%, 0%, 0%)" stroke-opacity="1" stroke-miterlimit="10" d="M 1199.549624 1771.937238 L 1199.549624 1771.937238 " transform="matrix(0.0997273, 0, 0, -0.0997273, 0.005, 229.741718)"/>
<path fill="none" stroke-width="18.43" stroke-linecap="round" stroke-linejoin="round" stroke="rgb(0%, 0%, 0%)" stroke-opacity="1" stroke-miterlimit="10" d="M 1199.549624 1962.731022 L 1199.549624 1962.731022 " transform="matrix(0.0997273, 0, 0, -0.0997273, 0.005, 229.741718)"/>
<path fill="none" stroke-width="18.43" stroke-linecap="round" stroke-linejoin="round" stroke="rgb(0%, 0%, 0%)" stroke-opacity="1" stroke-miterlimit="10" d="M 1199.549624 2153.485637 L 1199.549624 2153.485637 " transform="matrix(0.0997273, 0, 0, -0.0997273, 0.005, 229.741718)"/>
<path fill="none" stroke-width="18.43" stroke-linecap="round" stroke-linejoin="round" stroke="rgb(0%, 0%, 0%)" stroke-opacity="1" stroke-miterlimit="10" d="M 1390.343408 245.665303 L 1390.343408 245.665303 " transform="matrix(0.0997273, 0, 0, -0.0997273, 0.005, 229.741718)"/>
<path fill="none" stroke-width="18.43" stroke-linecap="round" stroke-linejoin="round" stroke="rgb(0%, 0%, 0%)" stroke-opacity="1" stroke-miterlimit="10" d="M 1390.343408 436.419918 L 1390.343408 436.419918 " transform="matrix(0.0997273, 0, 0, -0.0997273, 0.005, 229.741718)"/>
<path fill="none" stroke-width="18.43" stroke-linecap="round" stroke-linejoin="round" stroke="rgb(0%, 0%, 0%)" stroke-opacity="1" stroke-miterlimit="10" d="M 1390.343408 627.213702 L 1390.343408 627.213702 " transform="matrix(0.0997273, 0, 0, -0.0997273, 0.005, 229.741718)"/>
<path fill="none" stroke-width="18.43" stroke-linecap="round" stroke-linejoin="round" stroke="rgb(0%, 0%, 0%)" stroke-opacity="1" stroke-miterlimit="10" d="M 1390.343408 818.007486 L 1390.343408 818.007486 " transform="matrix(0.0997273, 0, 0, -0.0997273, 0.005, 229.741718)"/>
<path fill="none" stroke-width="18.43" stroke-linecap="round" stroke-linejoin="round" stroke="rgb(0%, 0%, 0%)" stroke-opacity="1" stroke-miterlimit="10" d="M 1390.343408 1008.801271 L 1390.343408 1008.801271 " transform="matrix(0.0997273, 0, 0, -0.0997273, 0.005, 229.741718)"/>
<path fill="none" stroke-width="18.43" stroke-linecap="round" stroke-linejoin="round" stroke="rgb(0%, 0%, 0%)" stroke-opacity="1" stroke-miterlimit="10" d="M 1390.343408 1199.555885 L 1390.343408 1199.555885 " transform="matrix(0.0997273, 0, 0, -0.0997273, 0.005, 229.741718)"/>
<path fill="none" stroke-width="18.43" stroke-linecap="round" stroke-linejoin="round" stroke="rgb(0%, 0%, 0%)" stroke-opacity="1" stroke-miterlimit="10" d="M 1390.343408 1390.34967 L 1390.343408 1390.34967 " transform="matrix(0.0997273, 0, 0, -0.0997273, 0.005, 229.741718)"/>
<path fill="none" stroke-width="18.43" stroke-linecap="round" stroke-linejoin="round" stroke="rgb(0%, 0%, 0%)" stroke-opacity="1" stroke-miterlimit="10" d="M 1390.343408 1581.143454 L 1390.343408 1581.143454 " transform="matrix(0.0997273, 0, 0, -0.0997273, 0.005, 229.741718)"/>
<path fill="none" stroke-width="18.43" stroke-linecap="round" stroke-linejoin="round" stroke="rgb(0%, 0%, 0%)" stroke-opacity="1" stroke-miterlimit="10" d="M 1390.343408 1771.937238 L 1390.343408 1771.937238 " transform="matrix(0.0997273, 0, 0, -0.0997273, 0.005, 229.741718)"/>
<path fill="none" stroke-width="18.43" stroke-linecap="round" stroke-linejoin="round" stroke="rgb(0%, 0%, 0%)" stroke-opacity="1" stroke-miterlimit="10" d="M 1390.343408 1962.731022 L 1390.343408 1962.731022 " transform="matrix(0.0997273, 0, 0, -0.0997273, 0.005, 229.741718)"/>
<path fill="none" stroke-width="18.43" stroke-linecap="round" stroke-linejoin="round" stroke="rgb(0%, 0%, 0%)" stroke-opacity="1" stroke-miterlimit="10" d="M 1390.343408 2153.485637 L 1390.343408 2153.485637 " transform="matrix(0.0997273, 0, 0, -0.0997273, 0.005, 229.741718)"/>
<path fill="none" stroke-width="18.43" stroke-linecap="round" stroke-linejoin="round" stroke="rgb(0%, 0%, 0%)" stroke-opacity="1" stroke-miterlimit="10" d="M 1581.176362 245.665303 L 1581.176362 245.665303 " transform="matrix(0.0997273, 0, 0, -0.0997273, 0.005, 229.741718)"/>
<path fill="none" stroke-width="18.43" stroke-linecap="round" stroke-linejoin="round" stroke="rgb(0%, 0%, 0%)" stroke-opacity="1" stroke-miterlimit="10" d="M 1581.176362 436.419918 L 1581.176362 436.419918 " transform="matrix(0.0997273, 0, 0, -0.0997273, 0.005, 229.741718)"/>
<path fill="none" stroke-width="18.43" stroke-linecap="round" stroke-linejoin="round" stroke="rgb(0%, 0%, 0%)" stroke-opacity="1" stroke-miterlimit="10" d="M 1581.176362 627.213702 L 1581.176362 627.213702 " transform="matrix(0.0997273, 0, 0, -0.0997273, 0.005, 229.741718)"/>
<path fill="none" stroke-width="18.43" stroke-linecap="round" stroke-linejoin="round" stroke="rgb(0%, 0%, 0%)" stroke-opacity="1" stroke-miterlimit="10" d="M 1581.176362 818.007486 L 1581.176362 818.007486 " transform="matrix(0.0997273, 0, 0, -0.0997273, 0.005, 229.741718)"/>
<path fill="none" stroke-width="18.43" stroke-linecap="round" stroke-linejoin="round" stroke="rgb(0%, 0%, 0%)" stroke-opacity="1" stroke-miterlimit="10" d="M 1581.176362 1008.801271 L 1581.176362 1008.801271 " transform="matrix(0.0997273, 0, 0, -0.0997273, 0.005, 229.741718)"/>
<path fill="none" stroke-width="18.43" stroke-linecap="round" stroke-linejoin="round" stroke="rgb(0%, 0%, 0%)" stroke-opacity="1" stroke-miterlimit="10" d="M 1581.176362 1199.555885 L 1581.176362 1199.555885 " transform="matrix(0.0997273, 0, 0, -0.0997273, 0.005, 229.741718)"/>
<path fill="none" stroke-width="18.43" stroke-linecap="round" stroke-linejoin="round" stroke="rgb(0%, 0%, 0%)" stroke-opacity="1" stroke-miterlimit="10" d="M 1581.176362 1390.34967 L 1581.176362 1390.34967 " transform="matrix(0.0997273, 0, 0, -0.0997273, 0.005, 229.741718)"/>
<path fill="none" stroke-width="18.43" stroke-linecap="round" stroke-linejoin="round" stroke="rgb(0%, 0%, 0%)" stroke-opacity="1" stroke-miterlimit="10" d="M 1581.176362 1581.143454 L 1581.176362 1581.143454 " transform="matrix(0.0997273, 0, 0, -0.0997273, 0.005, 229.741718)"/>
<path fill="none" stroke-width="18.43" stroke-linecap="round" stroke-linejoin="round" stroke="rgb(0%, 0%, 0%)" stroke-opacity="1" stroke-miterlimit="10" d="M 1581.176362 1771.937238 L 1581.176362 1771.937238 " transform="matrix(0.0997273, 0, 0, -0.0997273, 0.005, 229.741718)"/>
<path fill="none" stroke-width="18.43" stroke-linecap="round" stroke-linejoin="round" stroke="rgb(0%, 0%, 0%)" stroke-opacity="1" stroke-miterlimit="10" d="M 1581.176362 1962.731022 L 1581.176362 1962.731022 " transform="matrix(0.0997273, 0, 0, -0.0997273, 0.005, 229.741718)"/>
<path fill="none" stroke-width="18.43" stroke-linecap="round" stroke-linejoin="round" stroke="rgb(0%, 0%, 0%)" stroke-opacity="1" stroke-miterlimit="10" d="M 1581.176362 2153.485637 L 1581.176362 2153.485637 " transform="matrix(0.0997273, 0, 0, -0.0997273, 0.005, 229.741718)"/>
<path fill="none" stroke-width="18.43" stroke-linecap="round" stroke-linejoin="round" stroke="rgb(0%, 0%, 0%)" stroke-opacity="1" stroke-miterlimit="10" d="M 1771.930977 245.665303 L 1771.930977 245.665303 " transform="matrix(0.0997273, 0, 0, -0.0997273, 0.005, 229.741718)"/>
<path fill="none" stroke-width="18.43" stroke-linecap="round" stroke-linejoin="round" stroke="rgb(0%, 0%, 0%)" stroke-opacity="1" stroke-miterlimit="10" d="M 1771.930977 436.419918 L 1771.930977 436.419918 " transform="matrix(0.0997273, 0, 0, -0.0997273, 0.005, 229.741718)"/>
<path fill="none" stroke-width="18.43" stroke-linecap="round" stroke-linejoin="round" stroke="rgb(0%, 0%, 0%)" stroke-opacity="1" stroke-miterlimit="10" d="M 1771.930977 627.213702 L 1771.930977 627.213702 " transform="matrix(0.0997273, 0, 0, -0.0997273, 0.005, 229.741718)"/>
<path fill="none" stroke-width="18.43" stroke-linecap="round" stroke-linejoin="round" stroke="rgb(0%, 0%, 0%)" stroke-opacity="1" stroke-miterlimit="10" d="M 1771.930977 818.007486 L 1771.930977 818.007486 " transform="matrix(0.0997273, 0, 0, -0.0997273, 0.005, 229.741718)"/>
<path fill="none" stroke-width="18.43" stroke-linecap="round" stroke-linejoin="round" stroke="rgb(0%, 0%, 0%)" stroke-opacity="1" stroke-miterlimit="10" d="M 1771.930977 1008.801271 L 1771.930977 1008.801271 " transform="matrix(0.0997273, 0, 0, -0.0997273, 0.005, 229.741718)"/>
<path fill="none" stroke-width="18.43" stroke-linecap="round" stroke-linejoin="round" stroke="rgb(0%, 0%, 0%)" stroke-opacity="1" stroke-miterlimit="10" d="M 1771.930977 1199.555885 L 1771.930977 1199.555885 " transform="matrix(0.0997273, 0, 0, -0.0997273, 0.005, 229.741718)"/>
<path fill="none" stroke-width="18.43" stroke-linecap="round" stroke-linejoin="round" stroke="rgb(0%, 0%, 0%)" stroke-opacity="1" stroke-miterlimit="10" d="M 1771.930977 1390.34967 L 1771.930977 1390.34967 " transform="matrix(0.0997273, 0, 0, -0.0997273, 0.005, 229.741718)"/>
<path fill="none" stroke-width="18.43" stroke-linecap="round" stroke-linejoin="round" stroke="rgb(0%, 0%, 0%)" stroke-opacity="1" stroke-miterlimit="10" d="M 1771.930977 1581.143454 L 1771.930977 1581.143454 " transform="matrix(0.0997273, 0, 0, -0.0997273, 0.005, 229.741718)"/>
<path fill="none" stroke-width="18.43" stroke-linecap="round" stroke-linejoin="round" stroke="rgb(0%, 0%, 0%)" stroke-opacity="1" stroke-miterlimit="10" d="M 1771.930977 1771.937238 L 1771.930977 1771.937238 " transform="matrix(0.0997273, 0, 0, -0.0997273, 0.005, 229.741718)"/>
<path fill="none" stroke-width="18.43" stroke-linecap="round" stroke-linejoin="round" stroke="rgb(0%, 0%, 0%)" stroke-opacity="1" stroke-miterlimit="10" d="M 1771.930977 1962.731022 L 1771.930977 1962.731022 " transform="matrix(0.0997273, 0, 0, -0.0997273, 0.005, 229.741718)"/>
<path fill="none" stroke-width="18.43" stroke-linecap="round" stroke-linejoin="round" stroke="rgb(0%, 0%, 0%)" stroke-opacity="1" stroke-miterlimit="10" d="M 1771.930977 2153.485637 L 1771.930977 2153.485637 " transform="matrix(0.0997273, 0, 0, -0.0997273, 0.005, 229.741718)"/>
<path fill="none" stroke-width="18.43" stroke-linecap="round" stroke-linejoin="round" stroke="rgb(0%, 0%, 0%)" stroke-opacity="1" stroke-miterlimit="10" d="M 1962.724761 245.665303 L 1962.724761 245.665303 " transform="matrix(0.0997273, 0, 0, -0.0997273, 0.005, 229.741718)"/>
<path fill="none" stroke-width="18.43" stroke-linecap="round" stroke-linejoin="round" stroke="rgb(0%, 0%, 0%)" stroke-opacity="1" stroke-miterlimit="10" d="M 1962.724761 436.419918 L 1962.724761 436.419918 " transform="matrix(0.0997273, 0, 0, -0.0997273, 0.005, 229.741718)"/>
<path fill="none" stroke-width="18.43" stroke-linecap="round" stroke-linejoin="round" stroke="rgb(0%, 0%, 0%)" stroke-opacity="1" stroke-miterlimit="10" d="M 1962.724761 627.213702 L 1962.724761 627.213702 " transform="matrix(0.0997273, 0, 0, -0.0997273, 0.005, 229.741718)"/>
<path fill="none" stroke-width="18.43" stroke-linecap="round" stroke-linejoin="round" stroke="rgb(0%, 0%, 0%)" stroke-opacity="1" stroke-miterlimit="10" d="M 1962.724761 818.007486 L 1962.724761 818.007486 " transform="matrix(0.0997273, 0, 0, -0.0997273, 0.005, 229.741718)"/>
<path fill="none" stroke-width="18.43" stroke-linecap="round" stroke-linejoin="round" stroke="rgb(0%, 0%, 0%)" stroke-opacity="1" stroke-miterlimit="10" d="M 1962.724761 1008.801271 L 1962.724761 1008.801271 " transform="matrix(0.0997273, 0, 0, -0.0997273, 0.005, 229.741718)"/>
<path fill="none" stroke-width="18.43" stroke-linecap="round" stroke-linejoin="round" stroke="rgb(0%, 0%, 0%)" stroke-opacity="1" stroke-miterlimit="10" d="M 1962.724761 1199.555885 L 1962.724761 1199.555885 " transform="matrix(0.0997273, 0, 0, -0.0997273, 0.005, 229.741718)"/>
<path fill="none" stroke-width="18.43" stroke-linecap="round" stroke-linejoin="round" stroke="rgb(0%, 0%, 0%)" stroke-opacity="1" stroke-miterlimit="10" d="M 1962.724761 1390.34967 L 1962.724761 1390.34967 " transform="matrix(0.0997273, 0, 0, -0.0997273, 0.005, 229.741718)"/>
<path fill="none" stroke-width="18.43" stroke-linecap="round" stroke-linejoin="round" stroke="rgb(0%, 0%, 0%)" stroke-opacity="1" stroke-miterlimit="10" d="M 1962.724761 1581.143454 L 1962.724761 1581.143454 " transform="matrix(0.0997273, 0, 0, -0.0997273, 0.005, 229.741718)"/>
<path fill="none" stroke-width="18.43" stroke-linecap="round" stroke-linejoin="round" stroke="rgb(0%, 0%, 0%)" stroke-opacity="1" stroke-miterlimit="10" d="M 1962.724761 1771.937238 L 1962.724761 1771.937238 " transform="matrix(0.0997273, 0, 0, -0.0997273, 0.005, 229.741718)"/>
<path fill="none" stroke-width="18.43" stroke-linecap="round" stroke-linejoin="round" stroke="rgb(0%, 0%, 0%)" stroke-opacity="1" stroke-miterlimit="10" d="M 1962.724761 1962.731022 L 1962.724761 1962.731022 " transform="matrix(0.0997273, 0, 0, -0.0997273, 0.005, 229.741718)"/>
<path fill="none" stroke-width="18.43" stroke-linecap="round" stroke-linejoin="round" stroke="rgb(0%, 0%, 0%)" stroke-opacity="1" stroke-miterlimit="10" d="M 1962.724761 2153.485637 L 1962.724761 2153.485637 " transform="matrix(0.0997273, 0, 0, -0.0997273, 0.005, 229.741718)"/>
<path fill="none" stroke-width="18.43" stroke-linecap="round" stroke-linejoin="round" stroke="rgb(0%, 0%, 0%)" stroke-opacity="1" stroke-miterlimit="10" d="M 2153.518545 245.665303 L 2153.518545 245.665303 " transform="matrix(0.0997273, 0, 0, -0.0997273, 0.005, 229.741718)"/>
<path fill="none" stroke-width="18.43" stroke-linecap="round" stroke-linejoin="round" stroke="rgb(0%, 0%, 0%)" stroke-opacity="1" stroke-miterlimit="10" d="M 2153.518545 436.419918 L 2153.518545 436.419918 " transform="matrix(0.0997273, 0, 0, -0.0997273, 0.005, 229.741718)"/>
<path fill="none" stroke-width="18.43" stroke-linecap="round" stroke-linejoin="round" stroke="rgb(0%, 0%, 0%)" stroke-opacity="1" stroke-miterlimit="10" d="M 2153.518545 627.213702 L 2153.518545 627.213702 " transform="matrix(0.0997273, 0, 0, -0.0997273, 0.005, 229.741718)"/>
<path fill="none" stroke-width="18.43" stroke-linecap="round" stroke-linejoin="round" stroke="rgb(0%, 0%, 0%)" stroke-opacity="1" stroke-miterlimit="10" d="M 2153.518545 818.007486 L 2153.518545 818.007486 " transform="matrix(0.0997273, 0, 0, -0.0997273, 0.005, 229.741718)"/>
<path fill="none" stroke-width="18.43" stroke-linecap="round" stroke-linejoin="round" stroke="rgb(0%, 0%, 0%)" stroke-opacity="1" stroke-miterlimit="10" d="M 2153.518545 1008.801271 L 2153.518545 1008.801271 " transform="matrix(0.0997273, 0, 0, -0.0997273, 0.005, 229.741718)"/>
<path fill="none" stroke-width="18.43" stroke-linecap="round" stroke-linejoin="round" stroke="rgb(0%, 0%, 0%)" stroke-opacity="1" stroke-miterlimit="10" d="M 2153.518545 1199.555885 L 2153.518545 1199.555885 " transform="matrix(0.0997273, 0, 0, -0.0997273, 0.005, 229.741718)"/>
<path fill="none" stroke-width="18.43" stroke-linecap="round" stroke-linejoin="round" stroke="rgb(0%, 0%, 0%)" stroke-opacity="1" stroke-miterlimit="10" d="M 2153.518545 1390.34967 L 2153.518545 1390.34967 " transform="matrix(0.0997273, 0, 0, -0.0997273, 0.005, 229.741718)"/>
<path fill="none" stroke-width="18.43" stroke-linecap="round" stroke-linejoin="round" stroke="rgb(0%, 0%, 0%)" stroke-opacity="1" stroke-miterlimit="10" d="M 2153.518545 1581.143454 L 2153.518545 1581.143454 " transform="matrix(0.0997273, 0, 0, -0.0997273, 0.005, 229.741718)"/>
<path fill="none" stroke-width="18.43" stroke-linecap="round" stroke-linejoin="round" stroke="rgb(0%, 0%, 0%)" stroke-opacity="1" stroke-miterlimit="10" d="M 2153.518545 1771.937238 L 2153.518545 1771.937238 " transform="matrix(0.0997273, 0, 0, -0.0997273, 0.005, 229.741718)"/>
<path fill="none" stroke-width="18.43" stroke-linecap="round" stroke-linejoin="round" stroke="rgb(0%, 0%, 0%)" stroke-opacity="1" stroke-miterlimit="10" d="M 2153.518545 1962.731022 L 2153.518545 1962.731022 " transform="matrix(0.0997273, 0, 0, -0.0997273, 0.005, 229.741718)"/>
<path fill="none" stroke-width="18.43" stroke-linecap="round" stroke-linejoin="round" stroke="rgb(0%, 0%, 0%)" stroke-opacity="1" stroke-miterlimit="10" d="M 2153.518545 2153.485637 L 2153.518545 2153.485637 " transform="matrix(0.0997273, 0, 0, -0.0997273, 0.005, 229.741718)"/>
<path fill="none" stroke-width="5" stroke-linecap="round" stroke-linejoin="round" stroke="rgb(0%, 0%, 0%)" stroke-opacity="1" stroke-miterlimit="10" d="M 150.242565 150.248826 L 150.242565 2248.902114 L 2248.895852 2248.902114 L 2248.895852 150.248826 L 150.242565 150.248826 " transform="matrix(0.0997273, 0, 0, -0.0997273, 0.005, 229.741718)"/>
</svg>
