<?xml version="1.0" encoding="UTF-8"?>
<svg xmlns="http://www.w3.org/2000/svg" xmlns:xlink="http://www.w3.org/1999/xlink" width="160" height="140" viewBox="0 0 160 140">
<path fill="none" stroke-width="7.92" stroke-linecap="square" stroke-linejoin="miter" stroke="rgb(0%, 0%, 0%)" stroke-opacity="1" stroke-miterlimit="3.25" d="M 926.757812 1118.4375 L 1100.664062 378.203125 " transform="matrix(0.1, 0, 0, -0.1, 0, 140)"/>
<path fill="none" stroke-width="7.92" stroke-linecap="square" stroke-linejoin="miter" stroke="rgb(0%, 0%, 0%)" stroke-opacity="1" stroke-miterlimit="3.25" d="M 926.757812 1118.4375 L 372.65625 597.734375 " transform="matrix(0.1, 0, 0, -0.1, 0, 140)"/>
<path fill="none" stroke-width="7.92" stroke-linecap="square" stroke-linejoin="miter" stroke="rgb(0%, 0%, 0%)" stroke-opacity="1" stroke-miterlimit="3.25" d="M 926.757812 1118.4375 L 1560.390625 698.085938 " transform="matrix(0.1, 0, 0, -0.1, 0, 140)"/>
<path fill="none" stroke-width="7.92" stroke-linecap="square" stroke-linejoin="miter" stroke="rgb(0%, 0%, 0%)" stroke-opacity="1" stroke-miterlimit="3.25" d="M 1100.664062 378.203125 L 372.65625 597.734375 " transform="matrix(0.1, 0, 0, -0.1, 0, 140)"/>
<path fill="none" stroke-width="7.92" stroke-linecap="square" stroke-linejoin="miter" stroke="rgb(0%, 0%, 0%)" stroke-opacity="1" stroke-miterlimit="3.25" d="M 1100.664062 378.203125 L 419.804688 39.609375 " transform="matrix(0.1, 0, 0, -0.1, 0, 140)"/>
<path fill="none" stroke-width="7.92" stroke-linecap="square" stroke-linejoin="miter" stroke="rgb(0%, 0%, 0%)" stroke-opacity="1" stroke-miterlimit="3.25" d="M 372.65625 597.734375 L 419.804688 1356.601562 " transform="matrix(0.1, 0, 0, -0.1, 0, 140)"/>
<path fill="none" stroke-width="7.92" stroke-linecap="square" stroke-linejoin="miter" stroke="rgb(0%, 0%, 0%)" stroke-opacity="1" stroke-miterlimit="3.25" d="M 1560.390625 698.085938 L 1180.195312 39.609375 " transform="matrix(0.1, 0, 0, -0.1, 0, 140)"/>
<path fill="none" stroke-width="7.92" stroke-linecap="square" stroke-linejoin="miter" stroke="rgb(0%, 0%, 0%)" stroke-opacity="1" stroke-miterlimit="3.25" d="M 1560.390625 698.085938 L 1180.195312 1356.601562 " transform="matrix(0.1, 0, 0, -0.1, 0, 140)"/>
<path fill="none" stroke-width="7.92" stroke-linecap="square" stroke-linejoin="miter" stroke="rgb(0%, 0%, 0%)" stroke-opacity="1" stroke-miterlimit="3.25" d="M 1560.390625 698.085938 L 800 698.085938 " transform="matrix(0.1, 0, 0, -0.1, 0, 140)"/>
<path fill="none" stroke-width="7.92" stroke-linecap="square" stroke-linejoin="miter" stroke="rgb(0%, 0%, 0%)" stroke-opacity="1" stroke-miterlimit="3.25" d="M 1180.195312 39.609375 L 419.804688 39.609375 " transform="matrix(0.1, 0, 0, -0.1, 0, 140)"/>
<path fill="none" stroke-width="7.92" stroke-linecap="square" stroke-linejoin="miter" stroke="rgb(0%, 0%, 0%)" stroke-opacity="1" stroke-miterlimit="3.25" d="M 1180.195312 39.609375 L 800 698.085938 " transform="matrix(0.1, 0, 0, -0.1, 0, 140)"/>
<path fill="none" stroke-width="7.92" stroke-linecap="square" stroke-linejoin="miter" stroke="rgb(0%, 0%, 0%)" stroke-opacity="1" stroke-miterlimit="3.25" d="M 419.804688 39.609375 L 39.609375 698.085938 " transform="matrix(0.1, 0, 0, -0.1, 0, 140)"/>
<path fill="none" stroke-width="7.92" stroke-linecap="square" stroke-linejoin="miter" stroke="rgb(0%, 0%, 0%)" stroke-opacity="1" stroke-miterlimit="3.25" d="M 419.804688 39.609375 L 800 698.085938 " transform="matrix(0.1, 0, 0, -0.1, 0, 140)"/>
<path fill="none" stroke-width="7.92" stroke-linecap="square" stroke-linejoin="miter" stroke="rgb(0%, 0%, 0%)" stroke-opacity="1" stroke-miterlimit="3.25" d="M 39.609375 698.085938 L 419.804688 1356.601562 " transform="matrix(0.1, 0, 0, -0.1, 0, 140)"/>
<path fill="none" stroke-width="7.92" stroke-linecap="square" stroke-linejoin="miter" stroke="rgb(0%, 0%, 0%)" stroke-opacity="1" stroke-miterlimit="3.25" d="M 39.609375 698.085938 L 800 698.085938 " transform="matrix(0.1, 0, 0, -0.1, 0, 140)"/>
<path fill="none" stroke-width="7.92" stroke-linecap="square" stroke-linejoin="miter" stroke="rgb(0%, 0%, 0%)" stroke-opacity="1" stroke-miterlimit="3.25" d="M 419.804688 1356.601562 L 1180.195312 1356.601562 " transform="matrix(0.1, 0, 0, -0.1, 0, 140)"/>
<path fill="none" stroke-width="7.92" stroke-linecap="square" stroke-linejoin="miter" stroke="rgb(0%, 0%, 0%)" stroke-opacity="1" stroke-miterlimit="3.25" d="M 419.804688 1356.601562 L 800 698.085938 " transform="matrix(0.1, 0, 0, -0.1, 0, 140)"/>
<path fill="none" stroke-width="7.92" stroke-linecap="square" stroke-linejoin="miter" stroke="rgb(0%, 0%, 0%)" stroke-opacity="1" stroke-miterlimit="3.25" d="M 1180.195312 1356.601562 L 800 698.085938 " transform="matrix(0.1, 0, 0, -0.1, 0, 140)"/>
<path fill="none" stroke-width="79.21" stroke-linecap="round" stroke-linejoin="miter" stroke="rgb(100%, 0%, 0%)" stroke-opacity="1" stroke-miterlimit="3.25" d="M 926.757812 1118.4375 L 926.757812 1118.4375 " transform="matrix(0.1, 0, 0, -0.1, 0, 140)"/>
<path fill="none" stroke-width="79.21" stroke-linecap="round" stroke-linejoin="miter" stroke="rgb(100%, 100%, 0%)" stroke-opacity="1" stroke-miterlimit="3.25" d="M 1100.664062 378.203125 L 1100.664062 378.203125 " transform="matrix(0.1, 0, 0, -0.1, 0, 140)"/>
<path fill="none" stroke-width="79.21" stroke-linecap="round" stroke-linejoin="miter" stroke="rgb(0%, 100%, 0%)" stroke-opacity="1" stroke-miterlimit="3.25" d="M 372.65625 597.734375 L 372.65625 597.734375 " transform="matrix(0.1, 0, 0, -0.1, 0, 140)"/>
<path fill="none" stroke-width="79.21" stroke-linecap="round" stroke-linejoin="miter" stroke="rgb(100%, 100%, 0%)" stroke-opacity="1" stroke-miterlimit="3.25" d="M 1560.390625 698.085938 L 1560.390625 698.085938 " transform="matrix(0.1, 0, 0, -0.1, 0, 140)"/>
<path fill="none" stroke-width="79.21" stroke-linecap="round" stroke-linejoin="miter" stroke="rgb(100%, 0%, 0%)" stroke-opacity="1" stroke-miterlimit="3.25" d="M 1180.195312 39.609375 L 1180.195312 39.609375 " transform="matrix(0.1, 0, 0, -0.1, 0, 140)"/>
<path fill="none" stroke-width="79.21" stroke-linecap="round" stroke-linejoin="miter" stroke="rgb(0%, 100%, 0%)" stroke-opacity="1" stroke-miterlimit="3.25" d="M 419.804688 39.609375 L 419.804688 39.609375 " transform="matrix(0.1, 0, 0, -0.1, 0, 140)"/>
<path fill="none" stroke-width="79.21" stroke-linecap="round" stroke-linejoin="miter" stroke="rgb(100%, 0%, 0%)" stroke-opacity="1" stroke-miterlimit="3.25" d="M 39.609375 698.085938 L 39.609375 698.085938 " transform="matrix(0.1, 0, 0, -0.1, 0, 140)"/>
<path fill="none" stroke-width="79.21" stroke-linecap="round" stroke-linejoin="miter" stroke="rgb(100%, 100%, 0%)" stroke-opacity="1" stroke-miterlimit="3.25" d="M 419.804688 1356.601562 L 419.804688 1356.601562 " transform="matrix(0.1, 0, 0, -0.1, 0, 140)"/>
<path fill="none" stroke-width="79.21" stroke-linecap="round" stroke-linejoin="miter" stroke="rgb(100%, 0%, 0%)" stroke-opacity="1" stroke-miterlimit="3.25" d="M 1180.195312 1356.601562 L 1180.195312 1356.601562 " transform="matrix(0.1, 0, 0, -0.1, 0, 140)"/>
<path fill="none" stroke-width="79.21" stroke-linecap="round" stroke-linejoin="miter" stroke="rgb(0%, 0%, 100%)" stroke-opacity="1" stroke-miterlimit="3.25" d="M 800 698.085938 L 800 698.085938 " transform="matrix(0.1, 0, 0, -0.1, 0, 140)"/>
</svg>
