<?xml version="1.0" encoding="UTF-8"?>
<svg xmlns="http://www.w3.org/2000/svg" xmlns:xlink="http://www.w3.org/1999/xlink" width="160.25" height="171.75" viewBox="0 0 160.25 171.75">
<path fill="none" stroke-width="5" stroke-linecap="round" stroke-linejoin="round" stroke="rgb(0%, 0%, 0%)" stroke-opacity="1" stroke-miterlimit="10" d="M 847.306455 757.659906 L 514.663124 968.995954 " transform="matrix(0.0995342, 0, 0, -0.0995342, 0.000000000000002942, 171.225543)"/>
<path fill="none" stroke-width="5" stroke-linecap="round" stroke-linejoin="round" stroke="rgb(0%, 0%, 0%)" stroke-opacity="1" stroke-miterlimit="10" d="M 514.663124 968.995954 L 877.289879 1066.991517 " transform="matrix(0.0995342, 0, 0, -0.0995342, 0.000000000000002942, 171.225543)"/>
<path fill="none" stroke-width="5" stroke-linecap="round" stroke-linejoin="round" stroke="rgb(0%, 0%, 0%)" stroke-opacity="1" stroke-miterlimit="10" d="M 514.663124 968.995954 L 609.793779 1185.19842 " transform="matrix(0.0995342, 0, 0, -0.0995342, 0.000000000000002942, 171.225543)"/>
<path fill="none" stroke-width="5" stroke-linecap="round" stroke-linejoin="round" stroke="rgb(0%, 0%, 0%)" stroke-opacity="1" stroke-miterlimit="10" d="M 514.663124 968.995954 L 409.603403 939.75819 " transform="matrix(0.0995342, 0, 0, -0.0995342, 0.000000000000002942, 171.225543)"/>
<path fill="none" stroke-width="5" stroke-linecap="round" stroke-linejoin="round" stroke="rgb(0%, 0%, 0%)" stroke-opacity="1" stroke-miterlimit="10" d="M 514.663124 968.995954 L 562.346188 674.538319 " transform="matrix(0.0995342, 0, 0, -0.0995342, 0.000000000000002942, 171.225543)"/>
<path fill="none" stroke-width="5" stroke-linecap="round" stroke-linejoin="round" stroke="rgb(0%, 0%, 0%)" stroke-opacity="1" stroke-miterlimit="10" d="M 1286.893282 885.952857 L 1248.079661 848.709048 " transform="matrix(0.0995342, 0, 0, -0.0995342, 0.000000000000002942, 171.225543)"/>
<path fill="none" stroke-width="5" stroke-linecap="round" stroke-linejoin="round" stroke="rgb(0%, 0%, 0%)" stroke-opacity="1" stroke-miterlimit="10" d="M 1286.893282 885.952857 L 1121.866712 1133.080636 " transform="matrix(0.0995342, 0, 0, -0.0995342, 0.000000000000002942, 171.225543)"/>
<path fill="none" stroke-width="5" stroke-linecap="round" stroke-linejoin="round" stroke="rgb(0%, 0%, 0%)" stroke-opacity="1" stroke-miterlimit="10" d="M 1286.893282 885.952857 L 877.289879 1066.991517 " transform="matrix(0.0995342, 0, 0, -0.0995342, 0.000000000000002942, 171.225543)"/>
<path fill="none" stroke-width="5" stroke-linecap="round" stroke-linejoin="round" stroke="rgb(0%, 0%, 0%)" stroke-opacity="1" stroke-miterlimit="10" d="M 1286.893282 885.952857 L 847.306455 757.659906 " transform="matrix(0.0995342, 0, 0, -0.0995342, 0.000000000000002942, 171.225543)"/>
<path fill="none" stroke-width="5" stroke-linecap="round" stroke-linejoin="round" stroke="rgb(0%, 0%, 0%)" stroke-opacity="1" stroke-miterlimit="10" d="M 562.346188 674.538319 L 799.348674 263.051141 " transform="matrix(0.0995342, 0, 0, -0.0995342, 0.000000000000002942, 171.225543)"/>
<path fill="none" stroke-width="5" stroke-linecap="round" stroke-linejoin="round" stroke="rgb(0%, 0%, 0%)" stroke-opacity="1" stroke-miterlimit="10" d="M 799.348674 263.051141 L 595.273011 471.247562 " transform="matrix(0.0995342, 0, 0, -0.0995342, 0.000000000000002942, 171.225543)"/>
<path fill="none" stroke-width="5" stroke-linecap="round" stroke-linejoin="round" stroke="rgb(0%, 0%, 0%)" stroke-opacity="1" stroke-miterlimit="10" d="M 799.348674 263.051141 L 921.833317 432.119979 " transform="matrix(0.0995342, 0, 0, -0.0995342, 0.000000000000002942, 171.225543)"/>
<path fill="none" stroke-width="5" stroke-linecap="round" stroke-linejoin="round" stroke="rgb(0%, 0%, 0%)" stroke-opacity="1" stroke-miterlimit="10" d="M 799.348674 263.051141 L 1069.945154 616.219774 " transform="matrix(0.0995342, 0, 0, -0.0995342, 0.000000000000002942, 171.225543)"/>
<path fill="none" stroke-width="5" stroke-linecap="round" stroke-linejoin="round" stroke="rgb(0%, 0%, 0%)" stroke-opacity="1" stroke-miterlimit="10" d="M 799.348674 263.051141 L 847.306455 757.659906 " transform="matrix(0.0995342, 0, 0, -0.0995342, 0.000000000000002942, 171.225543)"/>
<path fill="none" stroke-width="5" stroke-linecap="round" stroke-linejoin="round" stroke="rgb(0%, 0%, 0%)" stroke-opacity="1" stroke-miterlimit="10" d="M 877.289879 1066.991517 L 847.306455 757.659906 " transform="matrix(0.0995342, 0, 0, -0.0995342, 0.000000000000002942, 171.225543)"/>
<path fill="none" stroke-width="5" stroke-linecap="round" stroke-linejoin="round" stroke="rgb(0%, 0%, 0%)" stroke-opacity="1" stroke-miterlimit="10" d="M 847.306455 757.659906 L 562.346188 674.538319 " transform="matrix(0.0995342, 0, 0, -0.0995342, 0.000000000000002942, 171.225543)"/>
<path fill="none" stroke-width="5" stroke-linecap="round" stroke-linejoin="round" stroke="rgb(0%, 0%, 0%)" stroke-opacity="1" stroke-miterlimit="10" d="M 926.385774 1573.413124 L 877.289879 1066.991517 " transform="matrix(0.0995342, 0, 0, -0.0995342, 0.000000000000002942, 171.225543)"/>
<path fill="none" stroke-width="5" stroke-linecap="round" stroke-linejoin="round" stroke="rgb(0%, 0%, 0%)" stroke-opacity="1" stroke-miterlimit="10" d="M 1121.866712 1133.080636 L 926.385774 1573.413124 " transform="matrix(0.0995342, 0, 0, -0.0995342, 0.000000000000002942, 171.225543)"/>
<path fill="none" stroke-width="5" stroke-linecap="round" stroke-linejoin="round" stroke="rgb(0%, 0%, 0%)" stroke-opacity="1" stroke-miterlimit="10" d="M 926.385774 1573.413124 L 1007.702077 1303.994004 " transform="matrix(0.0995342, 0, 0, -0.0995342, 0.000000000000002942, 171.225543)"/>
<path fill="none" stroke-width="5" stroke-linecap="round" stroke-linejoin="round" stroke="rgb(0%, 0%, 0%)" stroke-opacity="1" stroke-miterlimit="10" d="M 926.385774 1573.413124 L 676.353842 1336.410638 " transform="matrix(0.0995342, 0, 0, -0.0995342, 0.000000000000002942, 171.225543)"/>
<path fill="none" stroke-width="5" stroke-linecap="round" stroke-linejoin="round" stroke="rgb(0%, 0%, 0%)" stroke-opacity="1" stroke-miterlimit="10" d="M 926.385774 1573.413124 L 609.793779 1185.19842 " transform="matrix(0.0995342, 0, 0, -0.0995342, 0.000000000000002942, 171.225543)"/>
<path fill-rule="nonzero" fill="rgb(75.389099%, 32.493591%, 23.388672%)" fill-opacity="1" d="M 72.195312 76.835938 L 84.441406 78.523438 L 55.449219 86.652344 "/>
<path fill="none" stroke-width="5" stroke-linecap="round" stroke-linejoin="round" stroke="rgb(0%, 0%, 0%)" stroke-opacity="1" stroke-miterlimit="10" d="M 725.332001 948.31367 L 848.366078 931.359692 L 557.087315 849.690181 Z M 725.332001 948.31367 " transform="matrix(0.0995342, 0, 0, -0.0995342, 0.000000000000002942, 171.225543)"/>
<path fill="none" stroke-width="5" stroke-linecap="round" stroke-linejoin="round" stroke="rgb(0%, 0%, 0%)" stroke-opacity="1" stroke-miterlimit="10" d="M 501.162734 780.7754 L 562.346188 674.538319 " transform="matrix(0.0995342, 0, 0, -0.0995342, 0.000000000000002942, 171.225543)"/>
<path fill="none" stroke-width="5" stroke-linecap="round" stroke-linejoin="round" stroke="rgb(0%, 0%, 0%)" stroke-opacity="1" stroke-miterlimit="10" d="M 409.603403 939.75819 L 501.162734 780.7754 " transform="matrix(0.0995342, 0, 0, -0.0995342, 0.000000000000002942, 171.225543)"/>
<path fill-rule="nonzero" fill="rgb(90.625%, 76.756287%, 69.726562%)" fill-opacity="1" d="M 72.195312 76.835938 L 67.59375 57.328125 L 84.441406 78.523438 "/>
<path fill="none" stroke-width="5" stroke-linecap="round" stroke-linejoin="round" stroke="rgb(0%, 0%, 0%)" stroke-opacity="1" stroke-miterlimit="10" d="M 725.332001 948.31367 L 679.101014 1144.304797 L 848.366078 931.359692 Z M 725.332001 948.31367 " transform="matrix(0.0995342, 0, 0, -0.0995342, 0.000000000000002942, 171.225543)"/>
<path fill-rule="nonzero" fill="rgb(12.010193%, 0%, 7.788086%)" fill-opacity="1" d="M 92 78.964844 L 107.105469 92.355469 L 84.441406 78.523438 "/>
<path fill="none" stroke-width="5" stroke-linecap="round" stroke-linejoin="round" stroke="rgb(0%, 0%, 0%)" stroke-opacity="1" stroke-miterlimit="10" d="M 924.305772 926.924971 L 1076.067424 792.392014 L 848.366078 931.359692 Z M 924.305772 926.924971 " transform="matrix(0.0995342, 0, 0, -0.0995342, 0.000000000000002942, 171.225543)"/>
<path fill="none" stroke-width="5" stroke-linecap="round" stroke-linejoin="round" stroke="rgb(0%, 0%, 0%)" stroke-opacity="1" stroke-miterlimit="10" d="M 1069.945154 616.219774 L 1120.767843 679.404739 " transform="matrix(0.0995342, 0, 0, -0.0995342, 0.000000000000002942, 171.225543)"/>
<path fill="none" stroke-width="5" stroke-linecap="round" stroke-linejoin="round" stroke="rgb(0%, 0%, 0%)" stroke-opacity="1" stroke-miterlimit="10" d="M 1120.767843 679.404739 L 1286.893282 885.952857 " transform="matrix(0.0995342, 0, 0, -0.0995342, 0.000000000000002942, 171.225543)"/>
<path fill-rule="nonzero" fill="rgb(18.188477%, 25.292969%, 70.3125%)" fill-opacity="1" d="M 92 78.964844 L 84.441406 78.523438 L 99.832031 60.636719 "/>
<path fill="none" stroke-width="5" stroke-linecap="round" stroke-linejoin="round" stroke="rgb(0%, 0%, 0%)" stroke-opacity="1" stroke-miterlimit="10" d="M 924.305772 926.924971 L 848.366078 931.359692 L 1002.992638 1111.064011 Z M 924.305772 926.924971 " transform="matrix(0.0995342, 0, 0, -0.0995342, 0.000000000000002942, 171.225543)"/>
<path fill="none" stroke-width="5" stroke-linecap="round" stroke-linejoin="round" stroke="rgb(0%, 0%, 0%)" stroke-opacity="1" stroke-miterlimit="10" d="M 858.177408 1075.429261 L 877.289879 1066.991517 " transform="matrix(0.0995342, 0, 0, -0.0995342, 0.000000000000002942, 171.225543)"/>
<path fill="none" stroke-width="5" stroke-linecap="round" stroke-linejoin="round" stroke="rgb(0%, 0%, 0%)" stroke-opacity="1" stroke-miterlimit="10" d="M 877.289879 1066.991517 L 991.650741 1097.877584 " transform="matrix(0.0995342, 0, 0, -0.0995342, 0.000000000000002942, 171.225543)"/>
<path fill-rule="nonzero" fill="rgb(12.010193%, 0%, 7.788086%)" fill-opacity="1" d="M 82.671875 70.695312 L 84.441406 78.523438 L 67.59375 57.328125 "/>
<path fill="none" stroke-width="5" stroke-linecap="round" stroke-linejoin="round" stroke="rgb(0%, 0%, 0%)" stroke-opacity="1" stroke-miterlimit="10" d="M 830.587949 1010.007313 L 848.366078 931.359692 L 679.101014 1144.304797 Z M 830.587949 1010.007313 " transform="matrix(0.0995342, 0, 0, -0.0995342, 0.000000000000002942, 171.225543)"/>
<path fill-rule="nonzero" fill="rgb(75.389099%, 32.493591%, 23.388672%)" fill-opacity="1" d="M 82.671875 70.695312 L 99.832031 60.636719 L 84.441406 78.523438 "/>
<path fill="none" stroke-width="5" stroke-linecap="round" stroke-linejoin="round" stroke="rgb(0%, 0%, 0%)" stroke-opacity="1" stroke-miterlimit="10" d="M 830.587949 1010.007313 L 1002.992638 1111.064011 L 848.366078 931.359692 Z M 830.587949 1010.007313 " transform="matrix(0.0995342, 0, 0, -0.0995342, 0.000000000000002942, 171.225543)"/>
<path fill="none" stroke-width="5" stroke-linecap="round" stroke-linejoin="round" stroke="rgb(0%, 0%, 0%)" stroke-opacity="1" stroke-miterlimit="10" d="M 609.793779 1185.19842 L 858.177408 1075.429261 " transform="matrix(0.0995342, 0, 0, -0.0995342, 0.000000000000002942, 171.225543)"/>
<path fill="none" stroke-width="5" stroke-linecap="round" stroke-linejoin="round" stroke="rgb(0%, 0%, 0%)" stroke-opacity="1" stroke-miterlimit="10" d="M 998.126219 1099.643623 L 1121.866712 1133.080636 " transform="matrix(0.0995342, 0, 0, -0.0995342, 0.000000000000002942, 171.225543)"/>
<path fill-rule="nonzero" fill="rgb(90.625%, 76.756287%, 69.726562%)" fill-opacity="1" d="M 75.019531 88.8125 L 84.441406 78.523438 L 79.5625 108.066406 "/>
<path fill="none" stroke-width="5" stroke-linecap="round" stroke-linejoin="round" stroke="rgb(0%, 0%, 0%)" stroke-opacity="1" stroke-miterlimit="10" d="M 753.706367 827.98752 L 848.366078 931.359692 L 799.348674 634.547338 Z M 753.706367 827.98752 " transform="matrix(0.0995342, 0, 0, -0.0995342, 0.000000000000002942, 171.225543)"/>
<path fill="none" stroke-width="5" stroke-linecap="round" stroke-linejoin="round" stroke="rgb(0%, 0%, 0%)" stroke-opacity="1" stroke-miterlimit="10" d="M 926.268038 707.504388 L 1069.945154 616.219774 " transform="matrix(0.0995342, 0, 0, -0.0995342, 0.000000000000002942, 171.225543)"/>
<path fill="none" stroke-width="5" stroke-linecap="round" stroke-linejoin="round" stroke="rgb(0%, 0%, 0%)" stroke-opacity="1" stroke-miterlimit="10" d="M 847.306455 757.659906 L 926.268038 707.504388 " transform="matrix(0.0995342, 0, 0, -0.0995342, 0.000000000000002942, 171.225543)"/>
<path fill-rule="nonzero" fill="rgb(65.818787%, 74.609375%, 91.40625%)" fill-opacity="1" d="M 75.019531 88.8125 L 55.449219 86.652344 L 84.441406 78.523438 "/>
<path fill="none" stroke-width="5" stroke-linecap="round" stroke-linejoin="round" stroke="rgb(0%, 0%, 0%)" stroke-opacity="1" stroke-miterlimit="10" d="M 753.706367 827.98752 L 557.087315 849.690181 L 848.366078 931.359692 Z M 753.706367 827.98752 " transform="matrix(0.0995342, 0, 0, -0.0995342, 0.000000000000002942, 171.225543)"/>
<path fill-rule="nonzero" fill="rgb(18.188477%, 25.292969%, 70.3125%)" fill-opacity="1" d="M 87.214844 90.160156 L 79.5625 108.066406 L 84.441406 78.523438 "/>
<path fill="none" stroke-width="5" stroke-linecap="round" stroke-linejoin="round" stroke="rgb(0%, 0%, 0%)" stroke-opacity="1" stroke-miterlimit="10" d="M 876.230255 814.447884 L 799.348674 634.547338 L 848.366078 931.359692 Z M 876.230255 814.447884 " transform="matrix(0.0995342, 0, 0, -0.0995342, 0.000000000000002942, 171.225543)"/>
<path fill-rule="nonzero" fill="rgb(65.818787%, 74.609375%, 91.40625%)" fill-opacity="1" d="M 87.214844 90.160156 L 84.441406 78.523438 L 107.105469 92.355469 "/>
<path fill="none" stroke-width="5" stroke-linecap="round" stroke-linejoin="round" stroke="rgb(0%, 0%, 0%)" stroke-opacity="1" stroke-miterlimit="10" d="M 876.230255 814.447884 L 848.366078 931.359692 L 1076.067424 792.392014 Z M 876.230255 814.447884 " transform="matrix(0.0995342, 0, 0, -0.0995342, 0.000000000000002942, 171.225543)"/>
<path fill="none" stroke-width="5" stroke-linecap="round" stroke-linejoin="round" stroke="rgb(0%, 0%, 0%)" stroke-opacity="1" stroke-miterlimit="10" d="M 609.793779 1185.19842 L 151.565425 1387.743516 " transform="matrix(0.0995342, 0, 0, -0.0995342, 0.000000000000002942, 171.225543)"/>
<path fill="none" stroke-width="5" stroke-linecap="round" stroke-linejoin="round" stroke="rgb(0%, 0%, 0%)" stroke-opacity="1" stroke-miterlimit="10" d="M 676.353842 1336.410638 L 609.793779 1185.19842 " transform="matrix(0.0995342, 0, 0, -0.0995342, 0.000000000000002942, 171.225543)"/>
<path fill="none" stroke-width="5" stroke-linecap="round" stroke-linejoin="round" stroke="rgb(0%, 0%, 0%)" stroke-opacity="1" stroke-miterlimit="10" d="M 409.603403 939.75819 L 609.793779 1185.19842 " transform="matrix(0.0995342, 0, 0, -0.0995342, 0.000000000000002942, 171.225543)"/>
<path fill="none" stroke-width="5" stroke-linecap="round" stroke-linejoin="round" stroke="rgb(0%, 0%, 0%)" stroke-opacity="1" stroke-miterlimit="10" d="M 1069.945154 616.219774 L 1140.939938 708.917219 " transform="matrix(0.0995342, 0, 0, -0.0995342, 0.000000000000002942, 171.225543)"/>
<path fill="none" stroke-width="5" stroke-linecap="round" stroke-linejoin="round" stroke="rgb(0%, 0%, 0%)" stroke-opacity="1" stroke-miterlimit="10" d="M 1140.939938 708.917219 L 1248.079661 848.709048 " transform="matrix(0.0995342, 0, 0, -0.0995342, 0.000000000000002942, 171.225543)"/>
<path fill="none" stroke-width="5" stroke-linecap="round" stroke-linejoin="round" stroke="rgb(0%, 0%, 0%)" stroke-opacity="1" stroke-miterlimit="10" d="M 409.603403 939.75819 L 335.076541 918.997416 " transform="matrix(0.0995342, 0, 0, -0.0995342, 0.000000000000002942, 171.225543)"/>
<path fill="none" stroke-width="5" stroke-linecap="round" stroke-linejoin="round" stroke="rgb(0%, 0%, 0%)" stroke-opacity="1" stroke-miterlimit="10" d="M 151.565425 1387.743516 L 409.603403 939.75819 " transform="matrix(0.0995342, 0, 0, -0.0995342, 0.000000000000002942, 171.225543)"/>
<path fill="none" stroke-width="5" stroke-linecap="round" stroke-linejoin="round" stroke="rgb(0%, 0%, 0%)" stroke-opacity="1" stroke-miterlimit="10" d="M 78.098186 533.255168 L 409.603403 939.75819 " transform="matrix(0.0995342, 0, 0, -0.0995342, 0.000000000000002942, 171.225543)"/>
<path fill="none" stroke-width="5" stroke-linecap="round" stroke-linejoin="round" stroke="rgb(0%, 0%, 0%)" stroke-opacity="1" stroke-miterlimit="10" d="M 1121.866712 1133.080636 L 1007.702077 1303.994004 " transform="matrix(0.0995342, 0, 0, -0.0995342, 0.000000000000002942, 171.225543)"/>
<path fill="none" stroke-width="5" stroke-linecap="round" stroke-linejoin="round" stroke="rgb(0%, 0%, 0%)" stroke-opacity="1" stroke-miterlimit="10" d="M 1555.802213 1250.345651 L 1121.866712 1133.080636 " transform="matrix(0.0995342, 0, 0, -0.0995342, 0.000000000000002942, 171.225543)"/>
<path fill="none" stroke-width="5" stroke-linecap="round" stroke-linejoin="round" stroke="rgb(0%, 0%, 0%)" stroke-opacity="1" stroke-miterlimit="10" d="M 1248.079661 848.709048 L 1121.866712 1133.080636 " transform="matrix(0.0995342, 0, 0, -0.0995342, 0.000000000000002942, 171.225543)"/>
<path fill-rule="nonzero" fill="rgb(67.1875%, 52.146912%, 67.1875%)" fill-opacity="1" d="M 75.019531 88.8125 L 79.5625 108.066406 L 55.449219 86.652344 "/>
<path fill="none" stroke-width="5" stroke-linecap="round" stroke-linejoin="round" stroke="rgb(0%, 0%, 0%)" stroke-opacity="1" stroke-miterlimit="10" d="M 753.706367 827.98752 L 799.348674 634.547338 L 557.087315 849.690181 Z M 753.706367 827.98752 " transform="matrix(0.0995342, 0, 0, -0.0995342, 0.000000000000002942, 171.225543)"/>
<path fill-rule="nonzero" fill="rgb(3.399658%, 0%, 0%)" fill-opacity="1" d="M 68.96875 95.425781 L 55.449219 86.652344 L 79.5625 108.066406 "/>
<path fill="none" stroke-width="5" stroke-linecap="round" stroke-linejoin="round" stroke="rgb(0%, 0%, 0%)" stroke-opacity="1" stroke-miterlimit="10" d="M 692.915367 761.545193 L 557.087315 849.690181 L 799.348674 634.547338 Z M 692.915367 761.545193 " transform="matrix(0.0995342, 0, 0, -0.0995342, 0.000000000000002942, 171.225543)"/>
<path fill-rule="nonzero" fill="rgb(65.818787%, 74.609375%, 91.40625%)" fill-opacity="1" d="M 68.96875 95.425781 L 58.777344 106.558594 L 55.449219 86.652344 "/>
<path fill="none" stroke-width="5" stroke-linecap="round" stroke-linejoin="round" stroke="rgb(0%, 0%, 0%)" stroke-opacity="1" stroke-miterlimit="10" d="M 692.915367 761.545193 L 590.524327 649.696032 L 557.087315 849.690181 Z M 692.915367 761.545193 " transform="matrix(0.0995342, 0, 0, -0.0995342, 0.000000000000002942, 171.225543)"/>
<path fill-rule="nonzero" fill="rgb(11.888123%, 21.18988%, 68.554688%)" fill-opacity="1" d="M 62.214844 87.367188 L 55.449219 86.652344 L 58.777344 106.558594 "/>
<path fill="none" stroke-width="5" stroke-linecap="round" stroke-linejoin="round" stroke="rgb(0%, 0%, 0%)" stroke-opacity="1" stroke-miterlimit="10" d="M 625.060209 842.508288 L 557.087315 849.690181 L 590.524327 649.696032 Z M 625.060209 842.508288 " transform="matrix(0.0995342, 0, 0, -0.0995342, 0.000000000000002942, 171.225543)"/>
<path fill="none" stroke-width="5" stroke-linecap="round" stroke-linejoin="round" stroke="rgb(0%, 0%, 0%)" stroke-opacity="1" stroke-miterlimit="10" d="M 573.962802 603.033346 L 595.273011 471.247562 " transform="matrix(0.0995342, 0, 0, -0.0995342, 0.000000000000002942, 171.225543)"/>
<path fill="none" stroke-width="5" stroke-linecap="round" stroke-linejoin="round" stroke="rgb(0%, 0%, 0%)" stroke-opacity="1" stroke-miterlimit="10" d="M 562.346188 674.538319 L 573.962802 603.033346 " transform="matrix(0.0995342, 0, 0, -0.0995342, 0.000000000000002942, 171.225543)"/>
<path fill="none" stroke-width="5" stroke-linecap="round" stroke-linejoin="round" stroke="rgb(0%, 0%, 0%)" stroke-opacity="1" stroke-miterlimit="10" d="M 78.098186 533.255168 L 456.619296 643.691498 " transform="matrix(0.0995342, 0, 0, -0.0995342, 0.000000000000002942, 171.225543)"/>
<path fill="none" stroke-width="5" stroke-linecap="round" stroke-linejoin="round" stroke="rgb(0%, 0%, 0%)" stroke-opacity="1" stroke-miterlimit="10" d="M 456.619296 643.691498 L 562.346188 674.538319 " transform="matrix(0.0995342, 0, 0, -0.0995342, 0.000000000000002942, 171.225543)"/>
<path fill-rule="nonzero" fill="rgb(67.1875%, 52.146912%, 67.1875%)" fill-opacity="1" d="M 72.195312 76.835938 L 55.449219 86.652344 L 67.59375 57.328125 "/>
<path fill="none" stroke-width="5" stroke-linecap="round" stroke-linejoin="round" stroke="rgb(0%, 0%, 0%)" stroke-opacity="1" stroke-miterlimit="10" d="M 725.332001 948.31367 L 557.087315 849.690181 L 679.101014 1144.304797 Z M 725.332001 948.31367 " transform="matrix(0.0995342, 0, 0, -0.0995342, 0.000000000000002942, 171.225543)"/>
<path fill-rule="nonzero" fill="rgb(11.888123%, 21.18988%, 68.554688%)" fill-opacity="1" d="M 64.292969 75.746094 L 67.59375 57.328125 L 55.449219 86.652344 "/>
<path fill="none" stroke-width="5" stroke-linecap="round" stroke-linejoin="round" stroke="rgb(0%, 0%, 0%)" stroke-opacity="1" stroke-miterlimit="10" d="M 645.938719 959.263114 L 679.101014 1144.304797 L 557.087315 849.690181 Z M 645.938719 959.263114 " transform="matrix(0.0995342, 0, 0, -0.0995342, 0.000000000000002942, 171.225543)"/>
<path fill-rule="nonzero" fill="rgb(75.389099%, 32.493591%, 23.388672%)" fill-opacity="1" d="M 64.292969 75.746094 L 55.449219 86.652344 L 50.933594 73.910156 "/>
<path fill="none" stroke-width="5" stroke-linecap="round" stroke-linejoin="round" stroke="rgb(0%, 0%, 0%)" stroke-opacity="1" stroke-miterlimit="10" d="M 645.938719 959.263114 L 557.087315 849.690181 L 511.719725 977.708415 Z M 645.938719 959.263114 " transform="matrix(0.0995342, 0, 0, -0.0995342, 0.000000000000002942, 171.225543)"/>
<path fill-rule="nonzero" fill="rgb(3.399658%, 0%, 0%)" fill-opacity="1" d="M 62.214844 87.367188 L 50.933594 73.910156 L 55.449219 86.652344 "/>
<path fill="none" stroke-width="5" stroke-linecap="round" stroke-linejoin="round" stroke="rgb(0%, 0%, 0%)" stroke-opacity="1" stroke-miterlimit="10" d="M 625.060209 842.508288 L 511.719725 977.708415 L 557.087315 849.690181 Z M 625.060209 842.508288 " transform="matrix(0.0995342, 0, 0, -0.0995342, 0.000000000000002942, 171.225543)"/>
<path fill-rule="nonzero" fill="rgb(90.625%, 76.756287%, 69.726562%)" fill-opacity="1" d="M 68.96875 95.425781 L 79.5625 108.066406 L 58.777344 106.558594 "/>
<path fill="none" stroke-width="5" stroke-linecap="round" stroke-linejoin="round" stroke="rgb(0%, 0%, 0%)" stroke-opacity="1" stroke-miterlimit="10" d="M 692.915367 761.545193 L 799.348674 634.547338 L 590.524327 649.696032 Z M 692.915367 761.545193 " transform="matrix(0.0995342, 0, 0, -0.0995342, 0.000000000000002942, 171.225543)"/>
<path fill-rule="nonzero" fill="rgb(67.1875%, 52.146912%, 67.1875%)" fill-opacity="1" d="M 87.214844 90.160156 L 107.105469 92.355469 L 79.5625 108.066406 "/>
<path fill="none" stroke-width="5" stroke-linecap="round" stroke-linejoin="round" stroke="rgb(0%, 0%, 0%)" stroke-opacity="1" stroke-miterlimit="10" d="M 876.230255 814.447884 L 1076.067424 792.392014 L 799.348674 634.547338 Z M 876.230255 814.447884 " transform="matrix(0.0995342, 0, 0, -0.0995342, 0.000000000000002942, 171.225543)"/>
<path fill-rule="nonzero" fill="rgb(74.21875%, 29.197693%, 17.893982%)" fill-opacity="1" d="M 89.003906 97.675781 L 79.5625 108.066406 L 107.105469 92.355469 "/>
<path fill="none" stroke-width="5" stroke-linecap="round" stroke-linejoin="round" stroke="rgb(0%, 0%, 0%)" stroke-opacity="1" stroke-miterlimit="10" d="M 894.204612 738.939889 L 799.348674 634.547338 L 1076.067424 792.392014 Z M 894.204612 738.939889 " transform="matrix(0.0995342, 0, 0, -0.0995342, 0.000000000000002942, 171.225543)"/>
<path fill-rule="nonzero" fill="rgb(18.188477%, 25.292969%, 70.3125%)" fill-opacity="1" d="M 89.003906 97.675781 L 92.039062 110.398438 L 79.5625 108.066406 "/>
<path fill="none" stroke-width="5" stroke-linecap="round" stroke-linejoin="round" stroke="rgb(0%, 0%, 0%)" stroke-opacity="1" stroke-miterlimit="10" d="M 894.204612 738.939889 L 924.698225 611.117882 L 799.348674 634.547338 Z M 894.204612 738.939889 " transform="matrix(0.0995342, 0, 0, -0.0995342, 0.000000000000002942, 171.225543)"/>
<path fill-rule="nonzero" fill="rgb(3.399658%, 0%, 0%)" fill-opacity="1" d="M 77.601562 101.027344 L 79.5625 108.066406 L 92.039062 110.398438 "/>
<path fill="none" stroke-width="5" stroke-linecap="round" stroke-linejoin="round" stroke="rgb(0%, 0%, 0%)" stroke-opacity="1" stroke-miterlimit="10" d="M 779.647523 705.267404 L 799.348674 634.547338 L 924.698225 611.117882 Z M 779.647523 705.267404 " transform="matrix(0.0995342, 0, 0, -0.0995342, 0.000000000000002942, 171.225543)"/>
<path fill="none" stroke-width="5" stroke-linecap="round" stroke-linejoin="round" stroke="rgb(0%, 0%, 0%)" stroke-opacity="1" stroke-miterlimit="10" d="M 921.833317 432.119979 L 976.73752 500.406835 " transform="matrix(0.0995342, 0, 0, -0.0995342, 0.000000000000002942, 171.225543)"/>
<path fill-rule="nonzero" fill="rgb(74.21875%, 29.197693%, 17.893982%)" fill-opacity="1" d="M 77.601562 101.027344 L 58.777344 106.558594 L 79.5625 108.066406 "/>
<path fill="none" stroke-width="5" stroke-linecap="round" stroke-linejoin="round" stroke="rgb(0%, 0%, 0%)" stroke-opacity="1" stroke-miterlimit="10" d="M 779.647523 705.267404 L 590.524327 649.696032 L 799.348674 634.547338 Z M 779.647523 705.267404 " transform="matrix(0.0995342, 0, 0, -0.0995342, 0.000000000000002942, 171.225543)"/>
<path fill="none" stroke-width="5" stroke-linecap="round" stroke-linejoin="round" stroke="rgb(0%, 0%, 0%)" stroke-opacity="1" stroke-miterlimit="10" d="M 78.098186 533.255168 L 335.076541 918.997416 " transform="matrix(0.0995342, 0, 0, -0.0995342, 0.000000000000002942, 171.225543)"/>
<path fill="none" stroke-width="5" stroke-linecap="round" stroke-linejoin="round" stroke="rgb(0%, 0%, 0%)" stroke-opacity="1" stroke-miterlimit="10" d="M 78.098186 533.255168 L 453.793633 615.631094 " transform="matrix(0.0995342, 0, 0, -0.0995342, 0.000000000000002942, 171.225543)"/>
<path fill="none" stroke-width="5" stroke-linecap="round" stroke-linejoin="round" stroke="rgb(0%, 0%, 0%)" stroke-opacity="1" stroke-miterlimit="10" d="M 78.098186 533.255168 L 595.273011 471.247562 " transform="matrix(0.0995342, 0, 0, -0.0995342, 0.000000000000002942, 171.225543)"/>
<path fill-rule="nonzero" fill="rgb(90.625%, 76.756287%, 69.726562%)" fill-opacity="1" d="M 64.292969 75.746094 L 50.933594 73.910156 L 67.59375 57.328125 "/>
<path fill="none" stroke-width="5" stroke-linecap="round" stroke-linejoin="round" stroke="rgb(0%, 0%, 0%)" stroke-opacity="1" stroke-miterlimit="10" d="M 645.938719 959.263114 L 511.719725 977.708415 L 679.101014 1144.304797 Z M 645.938719 959.263114 " transform="matrix(0.0995342, 0, 0, -0.0995342, 0.000000000000002942, 171.225543)"/>
<path fill-rule="nonzero" fill="rgb(67.1875%, 52.146912%, 67.1875%)" fill-opacity="1" d="M 82.671875 70.695312 L 67.59375 57.328125 L 99.832031 60.636719 "/>
<path fill="none" stroke-width="5" stroke-linecap="round" stroke-linejoin="round" stroke="rgb(0%, 0%, 0%)" stroke-opacity="1" stroke-miterlimit="10" d="M 830.587949 1010.007313 L 679.101014 1144.304797 L 1002.992638 1111.064011 Z M 830.587949 1010.007313 " transform="matrix(0.0995342, 0, 0, -0.0995342, 0.000000000000002942, 171.225543)"/>
<path fill-rule="nonzero" fill="rgb(65.234375%, 75.584412%, 92.576599%)" fill-opacity="1" d="M 69.980469 68.738281 L 67.59375 57.328125 L 50.933594 73.910156 "/>
<path fill="none" stroke-width="5" stroke-linecap="round" stroke-linejoin="round" stroke="rgb(0%, 0%, 0%)" stroke-opacity="1" stroke-miterlimit="10" d="M 703.079904 1029.669218 L 679.101014 1144.304797 L 511.719725 977.708415 Z M 703.079904 1029.669218 " transform="matrix(0.0995342, 0, 0, -0.0995342, 0.000000000000002942, 171.225543)"/>
<path fill-rule="nonzero" fill="rgb(65.234375%, 75.584412%, 92.576599%)" fill-opacity="1" d="M 81.519531 65.609375 L 99.832031 60.636719 L 67.59375 57.328125 "/>
<path fill="none" stroke-width="5" stroke-linecap="round" stroke-linejoin="round" stroke="rgb(0%, 0%, 0%)" stroke-opacity="1" stroke-miterlimit="10" d="M 819.010579 1061.104719 L 1002.992638 1111.064011 L 679.101014 1144.304797 Z M 819.010579 1061.104719 " transform="matrix(0.0995342, 0, 0, -0.0995342, 0.000000000000002942, 171.225543)"/>
<path fill-rule="nonzero" fill="rgb(12.010193%, 0%, 7.788086%)" fill-opacity="1" d="M 81.519531 65.609375 L 67.59375 57.328125 L 79.5625 56.933594 "/>
<path fill="none" stroke-width="5" stroke-linecap="round" stroke-linejoin="round" stroke="rgb(0%, 0%, 0%)" stroke-opacity="1" stroke-miterlimit="10" d="M 819.010579 1061.104719 L 679.101014 1144.304797 L 799.348674 1148.268574 Z M 819.010579 1061.104719 " transform="matrix(0.0995342, 0, 0, -0.0995342, 0.000000000000002942, 171.225543)"/>
<path fill-rule="nonzero" fill="rgb(11.888123%, 21.18988%, 68.554688%)" fill-opacity="1" d="M 69.980469 68.738281 L 79.5625 56.933594 L 67.59375 57.328125 "/>
<path fill="none" stroke-width="5" stroke-linecap="round" stroke-linejoin="round" stroke="rgb(0%, 0%, 0%)" stroke-opacity="1" stroke-miterlimit="10" d="M 703.079904 1029.669218 L 799.348674 1148.268574 L 679.101014 1144.304797 Z M 703.079904 1029.669218 " transform="matrix(0.0995342, 0, 0, -0.0995342, 0.000000000000002942, 171.225543)"/>
<path fill-rule="nonzero" fill="rgb(67.1875%, 52.146912%, 67.1875%)" fill-opacity="1" d="M 92 78.964844 L 99.832031 60.636719 L 107.105469 92.355469 "/>
<path fill="none" stroke-width="5" stroke-linecap="round" stroke-linejoin="round" stroke="rgb(0%, 0%, 0%)" stroke-opacity="1" stroke-miterlimit="10" d="M 924.305772 926.924971 L 1002.992638 1111.064011 L 1076.067424 792.392014 Z M 924.305772 926.924971 " transform="matrix(0.0995342, 0, 0, -0.0995342, 0.000000000000002942, 171.225543)"/>
<path fill-rule="nonzero" fill="rgb(65.818787%, 74.609375%, 91.40625%)" fill-opacity="1" d="M 89.003906 97.675781 L 107.105469 92.355469 L 92.039062 110.398438 "/>
<path fill="none" stroke-width="5" stroke-linecap="round" stroke-linejoin="round" stroke="rgb(0%, 0%, 0%)" stroke-opacity="1" stroke-miterlimit="10" d="M 894.204612 738.939889 L 1076.067424 792.392014 L 924.698225 611.117882 Z M 894.204612 738.939889 " transform="matrix(0.0995342, 0, 0, -0.0995342, 0.000000000000002942, 171.225543)"/>
<path fill-rule="nonzero" fill="rgb(91.796875%, 77.734375%, 69.139099%)" fill-opacity="1" d="M 95.078125 90.996094 L 92.039062 110.398438 L 107.105469 92.355469 "/>
<path fill="none" stroke-width="5" stroke-linecap="round" stroke-linejoin="round" stroke="rgb(0%, 0%, 0%)" stroke-opacity="1" stroke-miterlimit="10" d="M 955.231084 806.049386 L 924.698225 611.117882 L 1076.067424 792.392014 Z M 955.231084 806.049386 " transform="matrix(0.0995342, 0, 0, -0.0995342, 0.000000000000002942, 171.225543)"/>
<path fill="none" stroke-width="5" stroke-linecap="round" stroke-linejoin="round" stroke="rgb(0%, 0%, 0%)" stroke-opacity="1" stroke-miterlimit="10" d="M 976.73752 500.406835 L 1069.945154 616.219774 " transform="matrix(0.0995342, 0, 0, -0.0995342, 0.000000000000002942, 171.225543)"/>
<path fill="none" stroke-width="5" stroke-linecap="round" stroke-linejoin="round" stroke="rgb(0%, 0%, 0%)" stroke-opacity="1" stroke-miterlimit="10" d="M 1154.008629 562.846139 L 1461.691936 367.365201 " transform="matrix(0.0995342, 0, 0, -0.0995342, 0.000000000000002942, 171.225543)"/>
<path fill="none" stroke-width="5" stroke-linecap="round" stroke-linejoin="round" stroke="rgb(0%, 0%, 0%)" stroke-opacity="1" stroke-miterlimit="10" d="M 1069.945154 616.219774 L 1154.008629 562.846139 " transform="matrix(0.0995342, 0, 0, -0.0995342, 0.000000000000002942, 171.225543)"/>
<path fill-rule="nonzero" fill="rgb(91.796875%, 77.734375%, 69.139099%)" fill-opacity="1" d="M 96.914062 79.253906 L 107.105469 92.355469 L 99.832031 60.636719 "/>
<path fill="none" stroke-width="5" stroke-linecap="round" stroke-linejoin="round" stroke="rgb(0%, 0%, 0%)" stroke-opacity="1" stroke-miterlimit="10" d="M 973.676385 924.020817 L 1076.067424 792.392014 L 1002.992638 1111.064011 Z M 973.676385 924.020817 " transform="matrix(0.0995342, 0, 0, -0.0995342, 0.000000000000002942, 171.225543)"/>
<path fill-rule="nonzero" fill="rgb(12.010193%, 0%, 7.788086%)" fill-opacity="1" d="M 96.914062 79.253906 L 105.304688 79.746094 L 107.105469 92.355469 "/>
<path fill="none" stroke-width="5" stroke-linecap="round" stroke-linejoin="round" stroke="rgb(0%, 0%, 0%)" stroke-opacity="1" stroke-miterlimit="10" d="M 973.676385 924.020817 L 1057.975332 919.075907 L 1076.067424 792.392014 Z M 973.676385 924.020817 " transform="matrix(0.0995342, 0, 0, -0.0995342, 0.000000000000002942, 171.225543)"/>
<path fill-rule="nonzero" fill="rgb(74.21875%, 29.197693%, 17.893982%)" fill-opacity="1" d="M 95.078125 90.996094 L 107.105469 92.355469 L 105.304688 79.746094 "/>
<path fill="none" stroke-width="5" stroke-linecap="round" stroke-linejoin="round" stroke="rgb(0%, 0%, 0%)" stroke-opacity="1" stroke-miterlimit="10" d="M 955.231084 806.049386 L 1076.067424 792.392014 L 1057.975332 919.075907 Z M 955.231084 806.049386 " transform="matrix(0.0995342, 0, 0, -0.0995342, 0.000000000000002942, 171.225543)"/>
<path fill="none" stroke-width="5" stroke-linecap="round" stroke-linejoin="round" stroke="rgb(0%, 0%, 0%)" stroke-opacity="1" stroke-miterlimit="10" d="M 1555.802213 1250.345651 L 1248.079661 848.709048 " transform="matrix(0.0995342, 0, 0, -0.0995342, 0.000000000000002942, 171.225543)"/>
<path fill="none" stroke-width="5" stroke-linecap="round" stroke-linejoin="round" stroke="rgb(0%, 0%, 0%)" stroke-opacity="1" stroke-miterlimit="10" d="M 1220.41171 822.218457 L 1248.079661 848.709048 " transform="matrix(0.0995342, 0, 0, -0.0995342, 0.000000000000002942, 171.225543)"/>
<path fill="none" stroke-width="5" stroke-linecap="round" stroke-linejoin="round" stroke="rgb(0%, 0%, 0%)" stroke-opacity="1" stroke-miterlimit="10" d="M 1461.691936 367.365201 L 1248.079661 848.709048 " transform="matrix(0.0995342, 0, 0, -0.0995342, 0.000000000000002942, 171.225543)"/>
<path fill-rule="nonzero" fill="rgb(18.188477%, 25.292969%, 70.3125%)" fill-opacity="1" d="M 96.914062 79.253906 L 99.832031 60.636719 L 105.304688 79.746094 "/>
<path fill="none" stroke-width="5" stroke-linecap="round" stroke-linejoin="round" stroke="rgb(0%, 0%, 0%)" stroke-opacity="1" stroke-miterlimit="10" d="M 973.676385 924.020817 L 1002.992638 1111.064011 L 1057.975332 919.075907 Z M 973.676385 924.020817 " transform="matrix(0.0995342, 0, 0, -0.0995342, 0.000000000000002942, 171.225543)"/>
<path fill-rule="nonzero" fill="rgb(75.389099%, 32.493591%, 23.388672%)" fill-opacity="1" d="M 81.519531 65.609375 L 79.5625 56.933594 L 99.832031 60.636719 "/>
<path fill="none" stroke-width="5" stroke-linecap="round" stroke-linejoin="round" stroke="rgb(0%, 0%, 0%)" stroke-opacity="1" stroke-miterlimit="10" d="M 819.010579 1061.104719 L 799.348674 1148.268574 L 1002.992638 1111.064011 Z M 819.010579 1061.104719 " transform="matrix(0.0995342, 0, 0, -0.0995342, 0.000000000000002942, 171.225543)"/>
<path fill-rule="nonzero" fill="rgb(91.796875%, 77.734375%, 69.139099%)" fill-opacity="1" d="M 90.417969 70.894531 L 99.832031 60.636719 L 79.5625 56.933594 "/>
<path fill="none" stroke-width="5" stroke-linecap="round" stroke-linejoin="round" stroke="rgb(0%, 0%, 0%)" stroke-opacity="1" stroke-miterlimit="10" d="M 908.411418 1008.005801 L 1002.992638 1111.064011 L 799.348674 1148.268574 Z M 908.411418 1008.005801 " transform="matrix(0.0995342, 0, 0, -0.0995342, 0.000000000000002942, 171.225543)"/>
<path fill-rule="nonzero" fill="rgb(65.234375%, 75.584412%, 92.576599%)" fill-opacity="1" d="M 90.417969 70.894531 L 105.304688 79.746094 L 99.832031 60.636719 "/>
<path fill="none" stroke-width="5" stroke-linecap="round" stroke-linejoin="round" stroke="rgb(0%, 0%, 0%)" stroke-opacity="1" stroke-miterlimit="10" d="M 908.411418 1008.005801 L 1057.975332 919.075907 L 1002.992638 1111.064011 Z M 908.411418 1008.005801 " transform="matrix(0.0995342, 0, 0, -0.0995342, 0.000000000000002942, 171.225543)"/>
<path fill="none" stroke-width="5" stroke-linecap="round" stroke-linejoin="round" stroke="rgb(0%, 0%, 0%)" stroke-opacity="1" stroke-miterlimit="10" d="M 151.565425 1387.743516 L 676.353842 1336.410638 " transform="matrix(0.0995342, 0, 0, -0.0995342, 0.000000000000002942, 171.225543)"/>
<path fill="none" stroke-width="5" stroke-linecap="round" stroke-linejoin="round" stroke="rgb(0%, 0%, 0%)" stroke-opacity="1" stroke-miterlimit="10" d="M 151.565425 1387.743516 L 504.851794 1173.856523 " transform="matrix(0.0995342, 0, 0, -0.0995342, 0.000000000000002942, 171.225543)"/>
<path fill="none" stroke-width="5" stroke-linecap="round" stroke-linejoin="round" stroke="rgb(0%, 0%, 0%)" stroke-opacity="1" stroke-miterlimit="10" d="M 151.565425 1387.743516 L 335.076541 918.997416 " transform="matrix(0.0995342, 0, 0, -0.0995342, 0.000000000000002942, 171.225543)"/>
<path fill="none" stroke-width="5" stroke-linecap="round" stroke-linejoin="round" stroke="rgb(0%, 0%, 0%)" stroke-opacity="1" stroke-miterlimit="10" d="M 595.273011 471.247562 L 655.31835 100.850234 " transform="matrix(0.0995342, 0, 0, -0.0995342, 0.000000000000002942, 171.225543)"/>
<path fill="none" stroke-width="5" stroke-linecap="round" stroke-linejoin="round" stroke="rgb(0%, 0%, 0%)" stroke-opacity="1" stroke-miterlimit="10" d="M 595.273011 471.247562 L 921.833317 432.119979 " transform="matrix(0.0995342, 0, 0, -0.0995342, 0.000000000000002942, 171.225543)"/>
<path fill="none" stroke-width="5" stroke-linecap="round" stroke-linejoin="round" stroke="rgb(0%, 0%, 0%)" stroke-opacity="1" stroke-miterlimit="10" d="M 921.833317 432.119979 L 1461.691936 367.365201 " transform="matrix(0.0995342, 0, 0, -0.0995342, 0.000000000000002942, 171.225543)"/>
<path fill="none" stroke-width="5" stroke-linecap="round" stroke-linejoin="round" stroke="rgb(0%, 0%, 0%)" stroke-opacity="1" stroke-miterlimit="10" d="M 1007.937549 550.994052 L 921.833317 432.119979 " transform="matrix(0.0995342, 0, 0, -0.0995342, 0.000000000000002942, 171.225543)"/>
<path fill="none" stroke-width="5" stroke-linecap="round" stroke-linejoin="round" stroke="rgb(0%, 0%, 0%)" stroke-opacity="1" stroke-miterlimit="10" d="M 655.31835 100.850234 L 921.833317 432.119979 " transform="matrix(0.0995342, 0, 0, -0.0995342, 0.000000000000002942, 171.225543)"/>
<path fill-rule="nonzero" fill="rgb(90.625%, 76.756287%, 69.726562%)" fill-opacity="1" d="M 62.214844 87.367188 L 58.777344 106.558594 L 50.933594 73.910156 "/>
<path fill="none" stroke-width="5" stroke-linecap="round" stroke-linejoin="round" stroke="rgb(0%, 0%, 0%)" stroke-opacity="1" stroke-miterlimit="10" d="M 625.060209 842.508288 L 590.524327 649.696032 L 511.719725 977.708415 Z M 625.060209 842.508288 " transform="matrix(0.0995342, 0, 0, -0.0995342, 0.000000000000002942, 171.225543)"/>
<path fill-rule="nonzero" fill="rgb(65.818787%, 74.609375%, 91.40625%)" fill-opacity="1" d="M 77.601562 101.027344 L 92.039062 110.398438 L 58.777344 106.558594 "/>
<path fill="none" stroke-width="5" stroke-linecap="round" stroke-linejoin="round" stroke="rgb(0%, 0%, 0%)" stroke-opacity="1" stroke-miterlimit="10" d="M 779.647523 705.267404 L 924.698225 611.117882 L 590.524327 649.696032 Z M 779.647523 705.267404 " transform="matrix(0.0995342, 0, 0, -0.0995342, 0.000000000000002942, 171.225543)"/>
<path fill="none" stroke-width="5" stroke-linecap="round" stroke-linejoin="round" stroke="rgb(0%, 0%, 0%)" stroke-opacity="1" stroke-miterlimit="10" d="M 453.793633 615.631094 L 481.854037 587.021256 " transform="matrix(0.0995342, 0, 0, -0.0995342, 0.000000000000002942, 171.225543)"/>
<path fill="none" stroke-width="5" stroke-linecap="round" stroke-linejoin="round" stroke="rgb(0%, 0%, 0%)" stroke-opacity="1" stroke-miterlimit="10" d="M 481.854037 587.021256 L 595.273011 471.247562 " transform="matrix(0.0995342, 0, 0, -0.0995342, 0.000000000000002942, 171.225543)"/>
<path fill="none" stroke-width="5" stroke-linecap="round" stroke-linejoin="round" stroke="rgb(0%, 0%, 0%)" stroke-opacity="1" stroke-miterlimit="10" d="M 504.851794 1173.856523 L 676.353842 1336.410638 " transform="matrix(0.0995342, 0, 0, -0.0995342, 0.000000000000002942, 171.225543)"/>
<path fill="none" stroke-width="5" stroke-linecap="round" stroke-linejoin="round" stroke="rgb(0%, 0%, 0%)" stroke-opacity="1" stroke-miterlimit="10" d="M 676.353842 1336.410638 L 1007.702077 1303.994004 " transform="matrix(0.0995342, 0, 0, -0.0995342, 0.000000000000002942, 171.225543)"/>
<path fill="none" stroke-width="5" stroke-linecap="round" stroke-linejoin="round" stroke="rgb(0%, 0%, 0%)" stroke-opacity="1" stroke-miterlimit="10" d="M 799.348674 1615.994296 L 676.353842 1336.410638 " transform="matrix(0.0995342, 0, 0, -0.0995342, 0.000000000000002942, 171.225543)"/>
<path fill-rule="nonzero" fill="rgb(75.389099%, 32.493591%, 23.388672%)" fill-opacity="1" d="M 69.980469 68.738281 L 50.933594 73.910156 L 79.5625 56.933594 "/>
<path fill="none" stroke-width="5" stroke-linecap="round" stroke-linejoin="round" stroke="rgb(0%, 0%, 0%)" stroke-opacity="1" stroke-miterlimit="10" d="M 703.079904 1029.669218 L 511.719725 977.708415 L 799.348674 1148.268574 Z M 703.079904 1029.669218 " transform="matrix(0.0995342, 0, 0, -0.0995342, 0.000000000000002942, 171.225543)"/>
<path fill-rule="nonzero" fill="rgb(18.188477%, 25.292969%, 70.3125%)" fill-opacity="1" d="M 95.078125 90.996094 L 105.304688 79.746094 L 92.039062 110.398438 "/>
<path fill="none" stroke-width="5" stroke-linecap="round" stroke-linejoin="round" stroke="rgb(0%, 0%, 0%)" stroke-opacity="1" stroke-miterlimit="10" d="M 955.231084 806.049386 L 1057.975332 919.075907 L 924.698225 611.117882 Z M 955.231084 806.049386 " transform="matrix(0.0995342, 0, 0, -0.0995342, 0.000000000000002942, 171.225543)"/>
<path fill="none" stroke-width="5" stroke-linecap="round" stroke-linejoin="round" stroke="rgb(0%, 0%, 0%)" stroke-opacity="1" stroke-miterlimit="10" d="M 1555.802213 1250.345651 L 1007.702077 1303.994004 " transform="matrix(0.0995342, 0, 0, -0.0995342, 0.000000000000002942, 171.225543)"/>
<path fill="none" stroke-width="5" stroke-linecap="round" stroke-linejoin="round" stroke="rgb(0%, 0%, 0%)" stroke-opacity="1" stroke-miterlimit="10" d="M 1007.702077 1303.994004 L 799.348674 1615.994296 " transform="matrix(0.0995342, 0, 0, -0.0995342, 0.000000000000002942, 171.225543)"/>
<path fill="none" stroke-width="5" stroke-linecap="round" stroke-linejoin="round" stroke="rgb(0%, 0%, 0%)" stroke-opacity="1" stroke-miterlimit="10" d="M 1461.691936 367.365201 L 1007.937549 550.994052 " transform="matrix(0.0995342, 0, 0, -0.0995342, 0.000000000000002942, 171.225543)"/>
<path fill="none" stroke-width="5" stroke-linecap="round" stroke-linejoin="round" stroke="rgb(0%, 0%, 0%)" stroke-opacity="1" stroke-miterlimit="10" d="M 1461.691936 367.365201 L 1220.41171 822.218457 " transform="matrix(0.0995342, 0, 0, -0.0995342, 0.000000000000002942, 171.225543)"/>
<path fill-rule="nonzero" fill="rgb(12.010193%, 0%, 7.788086%)" fill-opacity="1" d="M 90.417969 70.894531 L 79.5625 56.933594 L 105.304688 79.746094 "/>
<path fill="none" stroke-width="5" stroke-linecap="round" stroke-linejoin="round" stroke="rgb(0%, 0%, 0%)" stroke-opacity="1" stroke-miterlimit="10" d="M 908.411418 1008.005801 L 799.348674 1148.268574 L 1057.975332 919.075907 Z M 908.411418 1008.005801 " transform="matrix(0.0995342, 0, 0, -0.0995342, 0.000000000000002942, 171.225543)"/>
<path fill-rule="nonzero" fill="rgb(66.992188%, 51.756287%, 66.992188%)" fill-opacity="1" d="M 76.324219 96.445312 L 58.777344 106.558594 L 92.039062 110.398438 "/>
<path fill="none" stroke-width="5" stroke-linecap="round" stroke-linejoin="round" stroke="rgb(0%, 0%, 0%)" stroke-opacity="1" stroke-miterlimit="10" d="M 766.814304 751.302165 L 590.524327 649.696032 L 924.698225 611.117882 Z M 766.814304 751.302165 " transform="matrix(0.0995342, 0, 0, -0.0995342, 0.000000000000002942, 171.225543)"/>
<path fill-rule="nonzero" fill="rgb(74.21875%, 29.197693%, 17.893982%)" fill-opacity="1" d="M 76.324219 96.445312 L 74.144531 88.628906 L 58.777344 106.558594 "/>
<path fill="none" stroke-width="5" stroke-linecap="round" stroke-linejoin="round" stroke="rgb(0%, 0%, 0%)" stroke-opacity="1" stroke-miterlimit="10" d="M 766.814304 751.302165 L 744.915415 829.83205 L 590.524327 649.696032 Z M 766.814304 751.302165 " transform="matrix(0.0995342, 0, 0, -0.0995342, 0.000000000000002942, 171.225543)"/>
<path fill-rule="nonzero" fill="rgb(11.888123%, 21.18988%, 68.554688%)" fill-opacity="1" d="M 66.621094 87.832031 L 58.777344 106.558594 L 74.144531 88.628906 "/>
<path fill="none" stroke-width="5" stroke-linecap="round" stroke-linejoin="round" stroke="rgb(0%, 0%, 0%)" stroke-opacity="1" stroke-miterlimit="10" d="M 669.328929 837.838095 L 590.524327 649.696032 L 744.915415 829.83205 Z M 669.328929 837.838095 " transform="matrix(0.0995342, 0, 0, -0.0995342, 0.000000000000002942, 171.225543)"/>
<path fill-rule="nonzero" fill="rgb(66.992188%, 51.756287%, 66.992188%)" fill-opacity="1" d="M 66.621094 87.832031 L 50.933594 73.910156 L 58.777344 106.558594 "/>
<path fill="none" stroke-width="5" stroke-linecap="round" stroke-linejoin="round" stroke="rgb(0%, 0%, 0%)" stroke-opacity="1" stroke-miterlimit="10" d="M 669.328929 837.838095 L 511.719725 977.708415 L 590.524327 649.696032 Z M 669.328929 837.838095 " transform="matrix(0.0995342, 0, 0, -0.0995342, 0.000000000000002942, 171.225543)"/>
<path fill="none" stroke-width="5" stroke-linecap="round" stroke-linejoin="round" stroke="rgb(0%, 0%, 0%)" stroke-opacity="1" stroke-miterlimit="10" d="M 335.076541 918.997416 L 194.735277 879.948323 " transform="matrix(0.0995342, 0, 0, -0.0995342, 0.000000000000002942, 171.225543)"/>
<path fill="none" stroke-width="5" stroke-linecap="round" stroke-linejoin="round" stroke="rgb(0%, 0%, 0%)" stroke-opacity="1" stroke-miterlimit="10" d="M 504.851794 1173.856523 L 335.076541 918.997416 " transform="matrix(0.0995342, 0, 0, -0.0995342, 0.000000000000002942, 171.225543)"/>
<path fill="none" stroke-width="5" stroke-linecap="round" stroke-linejoin="round" stroke="rgb(0%, 0%, 0%)" stroke-opacity="1" stroke-miterlimit="10" d="M 335.076541 918.997416 L 453.793633 615.631094 " transform="matrix(0.0995342, 0, 0, -0.0995342, 0.000000000000002942, 171.225543)"/>
<path fill-rule="nonzero" fill="rgb(3.399658%, 0%, 0%)" fill-opacity="1" d="M 66.621094 87.832031 L 74.144531 88.628906 L 50.933594 73.910156 "/>
<path fill="none" stroke-width="5" stroke-linecap="round" stroke-linejoin="round" stroke="rgb(0%, 0%, 0%)" stroke-opacity="1" stroke-miterlimit="10" d="M 669.328929 837.838095 L 744.915415 829.83205 L 511.719725 977.708415 Z M 669.328929 837.838095 " transform="matrix(0.0995342, 0, 0, -0.0995342, 0.000000000000002942, 171.225543)"/>
<path fill-rule="nonzero" fill="rgb(65.234375%, 75.584412%, 92.576599%)" fill-opacity="1" d="M 71.527344 76.117188 L 50.933594 73.910156 L 74.144531 88.628906 "/>
<path fill="none" stroke-width="5" stroke-linecap="round" stroke-linejoin="round" stroke="rgb(0%, 0%, 0%)" stroke-opacity="1" stroke-miterlimit="10" d="M 718.621051 955.534809 L 511.719725 977.708415 L 744.915415 829.83205 Z M 718.621051 955.534809 " transform="matrix(0.0995342, 0, 0, -0.0995342, 0.000000000000002942, 171.225543)"/>
<path fill-rule="nonzero" fill="rgb(66.992188%, 51.756287%, 66.992188%)" fill-opacity="1" d="M 71.527344 76.117188 L 79.5625 56.933594 L 50.933594 73.910156 "/>
<path fill="none" stroke-width="5" stroke-linecap="round" stroke-linejoin="round" stroke="rgb(0%, 0%, 0%)" stroke-opacity="1" stroke-miterlimit="10" d="M 718.621051 955.534809 L 799.348674 1148.268574 L 511.719725 977.708415 Z M 718.621051 955.534809 " transform="matrix(0.0995342, 0, 0, -0.0995342, 0.000000000000002942, 171.225543)"/>
<path fill-rule="nonzero" fill="rgb(3.399658%, 0%, 0%)" fill-opacity="1" d="M 76.324219 96.445312 L 92.039062 110.398438 L 74.144531 88.628906 "/>
<path fill="none" stroke-width="5" stroke-linecap="round" stroke-linejoin="round" stroke="rgb(0%, 0%, 0%)" stroke-opacity="1" stroke-miterlimit="10" d="M 766.814304 751.302165 L 924.698225 611.117882 L 744.915415 829.83205 Z M 766.814304 751.302165 " transform="matrix(0.0995342, 0, 0, -0.0995342, 0.000000000000002942, 171.225543)"/>
<path fill-rule="nonzero" fill="rgb(66.992188%, 51.756287%, 66.992188%)" fill-opacity="1" d="M 87.304688 90.117188 L 92.039062 110.398438 L 105.304688 79.746094 "/>
<path fill="none" stroke-width="5" stroke-linecap="round" stroke-linejoin="round" stroke="rgb(0%, 0%, 0%)" stroke-opacity="1" stroke-miterlimit="10" d="M 877.132898 814.879583 L 924.698225 611.117882 L 1057.975332 919.075907 Z M 877.132898 814.879583 " transform="matrix(0.0995342, 0, 0, -0.0995342, 0.000000000000002942, 171.225543)"/>
<path fill-rule="nonzero" fill="rgb(91.796875%, 77.734375%, 69.139099%)" fill-opacity="1" d="M 87.304688 90.117188 L 74.144531 88.628906 L 92.039062 110.398438 "/>
<path fill="none" stroke-width="5" stroke-linecap="round" stroke-linejoin="round" stroke="rgb(0%, 0%, 0%)" stroke-opacity="1" stroke-miterlimit="10" d="M 877.132898 814.879583 L 744.915415 829.83205 L 924.698225 611.117882 Z M 877.132898 814.879583 " transform="matrix(0.0995342, 0, 0, -0.0995342, 0.000000000000002942, 171.225543)"/>
<path fill="none" stroke-width="5" stroke-linecap="round" stroke-linejoin="round" stroke="rgb(0%, 0%, 0%)" stroke-opacity="1" stroke-miterlimit="10" d="M 1220.41171 822.218457 L 1555.802213 1250.345651 " transform="matrix(0.0995342, 0, 0, -0.0995342, 0.000000000000002942, 171.225543)"/>
<path fill="none" stroke-width="5" stroke-linecap="round" stroke-linejoin="round" stroke="rgb(0%, 0%, 0%)" stroke-opacity="1" stroke-miterlimit="10" d="M 1555.802213 1250.345651 L 1064.254583 1116.597601 " transform="matrix(0.0995342, 0, 0, -0.0995342, 0.000000000000002942, 171.225543)"/>
<path fill-rule="nonzero" fill="rgb(11.888123%, 21.18988%, 68.554688%)" fill-opacity="1" d="M 71.527344 76.117188 L 74.144531 88.628906 L 79.5625 56.933594 "/>
<path fill="none" stroke-width="5" stroke-linecap="round" stroke-linejoin="round" stroke="rgb(0%, 0%, 0%)" stroke-opacity="1" stroke-miterlimit="10" d="M 718.621051 955.534809 L 744.915415 829.83205 L 799.348674 1148.268574 Z M 718.621051 955.534809 " transform="matrix(0.0995342, 0, 0, -0.0995342, 0.000000000000002942, 171.225543)"/>
<path fill-rule="nonzero" fill="rgb(74.21875%, 29.197693%, 17.893982%)" fill-opacity="1" d="M 87.304688 90.117188 L 105.304688 79.746094 L 74.144531 88.628906 "/>
<path fill="none" stroke-width="5" stroke-linecap="round" stroke-linejoin="round" stroke="rgb(0%, 0%, 0%)" stroke-opacity="1" stroke-miterlimit="10" d="M 877.132898 814.879583 L 1057.975332 919.075907 L 744.915415 829.83205 Z M 877.132898 814.879583 " transform="matrix(0.0995342, 0, 0, -0.0995342, 0.000000000000002942, 171.225543)"/>
<path fill-rule="nonzero" fill="rgb(66.992188%, 51.756287%, 66.992188%)" fill-opacity="1" d="M 84.359375 77.496094 L 105.304688 79.746094 L 79.5625 56.933594 "/>
<path fill="none" stroke-width="5" stroke-linecap="round" stroke-linejoin="round" stroke="rgb(0%, 0%, 0%)" stroke-opacity="1" stroke-miterlimit="10" d="M 847.541927 941.681211 L 1057.975332 919.075907 L 799.348674 1148.268574 Z M 847.541927 941.681211 " transform="matrix(0.0995342, 0, 0, -0.0995342, 0.000000000000002942, 171.225543)"/>
<path fill="none" stroke-width="5" stroke-linecap="round" stroke-linejoin="round" stroke="rgb(0%, 0%, 0%)" stroke-opacity="1" stroke-miterlimit="10" d="M 1043.219091 1186.415025 L 1064.254583 1116.597601 " transform="matrix(0.0995342, 0, 0, -0.0995342, 0.000000000000002942, 171.225543)"/>
<path fill="none" stroke-width="5" stroke-linecap="round" stroke-linejoin="round" stroke="rgb(0%, 0%, 0%)" stroke-opacity="1" stroke-miterlimit="10" d="M 1007.702077 1303.994004 L 1043.219091 1186.415025 " transform="matrix(0.0995342, 0, 0, -0.0995342, 0.000000000000002942, 171.225543)"/>
<path fill-rule="nonzero" fill="rgb(65.234375%, 75.584412%, 92.576599%)" fill-opacity="1" d="M 84.359375 77.496094 L 74.144531 88.628906 L 105.304688 79.746094 "/>
<path fill="none" stroke-width="5" stroke-linecap="round" stroke-linejoin="round" stroke="rgb(0%, 0%, 0%)" stroke-opacity="1" stroke-miterlimit="10" d="M 847.541927 941.681211 L 744.915415 829.83205 L 1057.975332 919.075907 Z M 847.541927 941.681211 " transform="matrix(0.0995342, 0, 0, -0.0995342, 0.000000000000002942, 171.225543)"/>
<path fill-rule="nonzero" fill="rgb(91.796875%, 77.734375%, 69.139099%)" fill-opacity="1" d="M 84.359375 77.496094 L 79.5625 56.933594 L 74.144531 88.628906 "/>
<path fill="none" stroke-width="5" stroke-linecap="round" stroke-linejoin="round" stroke="rgb(0%, 0%, 0%)" stroke-opacity="1" stroke-miterlimit="10" d="M 847.541927 941.681211 L 799.348674 1148.268574 L 744.915415 829.83205 Z M 847.541927 941.681211 " transform="matrix(0.0995342, 0, 0, -0.0995342, 0.000000000000002942, 171.225543)"/>
<path fill="none" stroke-width="5" stroke-linecap="round" stroke-linejoin="round" stroke="rgb(0%, 0%, 0%)" stroke-opacity="1" stroke-miterlimit="10" d="M 453.793633 615.631094 L 709.555382 671.673411 " transform="matrix(0.0995342, 0, 0, -0.0995342, 0.000000000000002942, 171.225543)"/>
<path fill="none" stroke-width="5" stroke-linecap="round" stroke-linejoin="round" stroke="rgb(0%, 0%, 0%)" stroke-opacity="1" stroke-miterlimit="10" d="M 194.735277 879.948323 L 453.793633 615.631094 " transform="matrix(0.0995342, 0, 0, -0.0995342, 0.000000000000002942, 171.225543)"/>
<path fill="none" stroke-width="5" stroke-linecap="round" stroke-linejoin="round" stroke="rgb(0%, 0%, 0%)" stroke-opacity="1" stroke-miterlimit="10" d="M 655.31835 100.850234 L 453.793633 615.631094 " transform="matrix(0.0995342, 0, 0, -0.0995342, 0.000000000000002942, 171.225543)"/>
<path fill="none" stroke-width="5" stroke-linecap="round" stroke-linejoin="round" stroke="rgb(0%, 0%, 0%)" stroke-opacity="1" stroke-miterlimit="10" d="M 1064.254583 1116.597601 L 1220.41171 822.218457 " transform="matrix(0.0995342, 0, 0, -0.0995342, 0.000000000000002942, 171.225543)"/>
<path fill="none" stroke-width="5" stroke-linecap="round" stroke-linejoin="round" stroke="rgb(0%, 0%, 0%)" stroke-opacity="1" stroke-miterlimit="10" d="M 1168.215435 772.180675 L 1220.41171 822.218457 " transform="matrix(0.0995342, 0, 0, -0.0995342, 0.000000000000002942, 171.225543)"/>
<path fill="none" stroke-width="5" stroke-linecap="round" stroke-linejoin="round" stroke="rgb(0%, 0%, 0%)" stroke-opacity="1" stroke-miterlimit="10" d="M 1007.937549 550.994052 L 1220.41171 822.218457 " transform="matrix(0.0995342, 0, 0, -0.0995342, 0.000000000000002942, 171.225543)"/>
<path fill="none" stroke-width="5" stroke-linecap="round" stroke-linejoin="round" stroke="rgb(0%, 0%, 0%)" stroke-opacity="1" stroke-miterlimit="10" d="M 194.735277 879.948323 L 504.851794 1173.856523 " transform="matrix(0.0995342, 0, 0, -0.0995342, 0.000000000000002942, 171.225543)"/>
<path fill="none" stroke-width="5" stroke-linecap="round" stroke-linejoin="round" stroke="rgb(0%, 0%, 0%)" stroke-opacity="1" stroke-miterlimit="10" d="M 504.851794 1173.856523 L 743.581074 1029.31601 " transform="matrix(0.0995342, 0, 0, -0.0995342, 0.000000000000002942, 171.225543)"/>
<path fill="none" stroke-width="5" stroke-linecap="round" stroke-linejoin="round" stroke="rgb(0%, 0%, 0%)" stroke-opacity="1" stroke-miterlimit="10" d="M 799.348674 1615.994296 L 504.851794 1173.856523 " transform="matrix(0.0995342, 0, 0, -0.0995342, 0.000000000000002942, 171.225543)"/>
<path fill="none" stroke-width="5" stroke-linecap="round" stroke-linejoin="round" stroke="rgb(0%, 0%, 0%)" stroke-opacity="1" stroke-miterlimit="10" d="M 1168.215435 772.180675 L 1007.937549 550.994052 " transform="matrix(0.0995342, 0, 0, -0.0995342, 0.000000000000002942, 171.225543)"/>
<path fill="none" stroke-width="5" stroke-linecap="round" stroke-linejoin="round" stroke="rgb(0%, 0%, 0%)" stroke-opacity="1" stroke-miterlimit="10" d="M 709.555382 671.673411 L 731.846724 662.686232 " transform="matrix(0.0995342, 0, 0, -0.0995342, 0.000000000000002942, 171.225543)"/>
<path fill="none" stroke-width="5" stroke-linecap="round" stroke-linejoin="round" stroke="rgb(0%, 0%, 0%)" stroke-opacity="1" stroke-miterlimit="10" d="M 731.846724 662.686232 L 1007.937549 550.994052 " transform="matrix(0.0995342, 0, 0, -0.0995342, 0.000000000000002942, 171.225543)"/>
<path fill="none" stroke-width="5" stroke-linecap="round" stroke-linejoin="round" stroke="rgb(0%, 0%, 0%)" stroke-opacity="1" stroke-miterlimit="10" d="M 655.31835 100.850234 L 1007.937549 550.994052 " transform="matrix(0.0995342, 0, 0, -0.0995342, 0.000000000000002942, 171.225543)"/>
<path fill="none" stroke-width="5" stroke-linecap="round" stroke-linejoin="round" stroke="rgb(0%, 0%, 0%)" stroke-opacity="1" stroke-miterlimit="10" d="M 1064.254583 1116.597601 L 743.581074 1029.31601 " transform="matrix(0.0995342, 0, 0, -0.0995342, 0.000000000000002942, 171.225543)"/>
<path fill="none" stroke-width="5" stroke-linecap="round" stroke-linejoin="round" stroke="rgb(0%, 0%, 0%)" stroke-opacity="1" stroke-miterlimit="10" d="M 1168.215435 772.180675 L 1064.254583 1116.597601 " transform="matrix(0.0995342, 0, 0, -0.0995342, 0.000000000000002942, 171.225543)"/>
<path fill="none" stroke-width="5" stroke-linecap="round" stroke-linejoin="round" stroke="rgb(0%, 0%, 0%)" stroke-opacity="1" stroke-miterlimit="10" d="M 799.348674 1615.994296 L 1064.254583 1116.597601 " transform="matrix(0.0995342, 0, 0, -0.0995342, 0.000000000000002942, 171.225543)"/>
<path fill="none" stroke-width="5" stroke-linecap="round" stroke-linejoin="round" stroke="rgb(0%, 0%, 0%)" stroke-opacity="1" stroke-miterlimit="10" d="M 655.31835 100.850234 L 709.555382 671.673411 " transform="matrix(0.0995342, 0, 0, -0.0995342, 0.000000000000002942, 171.225543)"/>
<path fill="none" stroke-width="5" stroke-linecap="round" stroke-linejoin="round" stroke="rgb(0%, 0%, 0%)" stroke-opacity="1" stroke-miterlimit="10" d="M 709.555382 671.673411 L 1168.215435 772.180675 " transform="matrix(0.0995342, 0, 0, -0.0995342, 0.000000000000002942, 171.225543)"/>
<path fill="none" stroke-width="5" stroke-linecap="round" stroke-linejoin="round" stroke="rgb(0%, 0%, 0%)" stroke-opacity="1" stroke-miterlimit="10" d="M 743.581074 1029.31601 L 709.555382 671.673411 " transform="matrix(0.0995342, 0, 0, -0.0995342, 0.000000000000002942, 171.225543)"/>
<path fill="none" stroke-width="5" stroke-linecap="round" stroke-linejoin="round" stroke="rgb(0%, 0%, 0%)" stroke-opacity="1" stroke-miterlimit="10" d="M 194.735277 879.948323 L 709.555382 671.673411 " transform="matrix(0.0995342, 0, 0, -0.0995342, 0.000000000000002942, 171.225543)"/>
<path fill="none" stroke-width="5" stroke-linecap="round" stroke-linejoin="round" stroke="rgb(0%, 0%, 0%)" stroke-opacity="1" stroke-miterlimit="10" d="M 1168.215435 772.180675 L 743.581074 1029.31601 " transform="matrix(0.0995342, 0, 0, -0.0995342, 0.000000000000002942, 171.225543)"/>
<path fill="none" stroke-width="5" stroke-linecap="round" stroke-linejoin="round" stroke="rgb(0%, 0%, 0%)" stroke-opacity="1" stroke-miterlimit="10" d="M 194.735277 879.948323 L 743.581074 1029.31601 " transform="matrix(0.0995342, 0, 0, -0.0995342, 0.000000000000002942, 171.225543)"/>
<path fill="none" stroke-width="5" stroke-linecap="round" stroke-linejoin="round" stroke="rgb(0%, 0%, 0%)" stroke-opacity="1" stroke-miterlimit="10" d="M 799.348674 1615.994296 L 743.581074 1029.31601 " transform="matrix(0.0995342, 0, 0, -0.0995342, 0.000000000000002942, 171.225543)"/>
</svg>
