<?xml version="1.0" encoding="UTF-8"?>
<svg xmlns="http://www.w3.org/2000/svg" xmlns:xlink="http://www.w3.org/1999/xlink" width="388.58" height="57.47" viewBox="0 0 388.58 57.47">
<defs>
<clipPath id="clip-0">
<path clip-rule="nonzero" d="M 1.566406 56 L 175 56 L 175 56.945312 L 1.566406 56.945312 Z M 1.566406 56 "/>
</clipPath>
<clipPath id="clip-1">
<path clip-rule="nonzero" d="M 242 26 L 243 26 L 243 56.945312 L 242 56.945312 Z M 242 26 "/>
</clipPath>
<clipPath id="clip-2">
<path clip-rule="nonzero" d="M 262 32 L 263 32 L 263 56.945312 L 262 56.945312 Z M 262 32 "/>
</clipPath>
<clipPath id="clip-3">
<path clip-rule="nonzero" d="M 269 37 L 270 37 L 270 56.945312 L 269 56.945312 Z M 269 37 "/>
</clipPath>
<clipPath id="clip-4">
<path clip-rule="nonzero" d="M 210 3 L 242 3 L 242 56.945312 L 210 56.945312 Z M 210 3 "/>
</clipPath>
<clipPath id="clip-5">
<path clip-rule="nonzero" d="M 248 29 L 250 29 L 250 56.945312 L 248 56.945312 Z M 248 29 "/>
</clipPath>
<clipPath id="clip-6">
<path clip-rule="nonzero" d="M 109 34 L 111 34 L 111 56.945312 L 109 56.945312 Z M 109 34 "/>
</clipPath>
<clipPath id="clip-7">
<path clip-rule="nonzero" d="M 116 34 L 117 34 L 117 56.945312 L 116 56.945312 Z M 116 34 "/>
</clipPath>
<clipPath id="clip-8">
<path clip-rule="nonzero" d="M 143 32 L 145 32 L 145 56.945312 L 143 56.945312 Z M 143 32 "/>
</clipPath>
<clipPath id="clip-9">
<path clip-rule="nonzero" d="M 137 11 L 174 11 L 174 56.945312 L 137 56.945312 Z M 137 11 "/>
</clipPath>
<clipPath id="clip-10">
<path clip-rule="nonzero" d="M 8 22 L 49 22 L 49 56.945312 L 8 56.945312 Z M 8 22 "/>
</clipPath>
<clipPath id="clip-11">
<path clip-rule="nonzero" d="M 28 32 L 29 32 L 29 56.945312 L 28 56.945312 Z M 28 32 "/>
</clipPath>
<clipPath id="clip-12">
<path clip-rule="nonzero" d="M 35 37 L 36 37 L 36 56.945312 L 35 56.945312 Z M 35 37 "/>
</clipPath>
<clipPath id="clip-13">
<path clip-rule="nonzero" d="M 48 32 L 50 32 L 50 56.945312 L 48 56.945312 Z M 48 32 "/>
</clipPath>
<clipPath id="clip-14">
<path clip-rule="nonzero" d="M 55 37 L 57 37 L 57 56.945312 L 55 56.945312 Z M 55 37 "/>
</clipPath>
<clipPath id="clip-15">
<path clip-rule="nonzero" d="M 2 0 L 49 0 L 49 56.945312 L 2 56.945312 Z M 2 0 "/>
</clipPath>
<clipPath id="clip-16">
<path clip-rule="nonzero" d="M 214 56 L 386.597656 56 L 386.597656 56.945312 L 214 56.945312 Z M 214 56 "/>
</clipPath>
<clipPath id="clip-17">
<path clip-rule="nonzero" d="M 322 34 L 324 34 L 324 56.945312 L 322 56.945312 Z M 322 34 "/>
</clipPath>
<clipPath id="clip-18">
<path clip-rule="nonzero" d="M 329 34 L 331 34 L 331 56.945312 L 329 56.945312 Z M 329 34 "/>
</clipPath>
<clipPath id="clip-19">
<path clip-rule="nonzero" d="M 350 11 L 386.597656 11 L 386.597656 56.945312 L 350 56.945312 Z M 350 11 "/>
</clipPath>
<clipPath id="clip-20">
<path clip-rule="nonzero" d="M 356 32 L 358 32 L 358 56.945312 L 356 56.945312 Z M 356 32 "/>
</clipPath>
</defs>
<path fill-rule="nonzero" fill="rgb(80.076599%, 80.076599%, 80.076599%)" fill-opacity="1" d="M 108.988281 18.863281 C 108.988281 28.898438 102.167969 37.03125 93.757812 37.03125 C 85.347656 37.03125 78.527344 28.898438 78.527344 18.863281 C 78.527344 8.832031 85.347656 0.699219 93.757812 0.699219 C 102.167969 0.699219 108.988281 8.832031 108.988281 18.863281 "/>
<path fill="none" stroke-width="4.12" stroke-linecap="butt" stroke-linejoin="miter" stroke="rgb(0%, 0%, 0%)" stroke-opacity="1" stroke-dasharray="60" stroke-miterlimit="10" d="M 1084.116115 384.327577 C 1084.116115 283.050552 1015.284007 200.972403 930.406843 200.972403 C 845.529679 200.972403 776.69757 283.050552 776.69757 384.327577 C 776.69757 485.56518 845.529679 567.643329 930.406843 567.643329 C 1015.284007 567.643329 1084.116115 485.56518 1084.116115 384.327577 Z M 1084.116115 384.327577 " transform="matrix(0.0990862, 0, 0, -0.0990862, 1.567328, 56.944843)"/>
<path fill-rule="nonzero" fill="rgb(80.076599%, 80.076599%, 80.076599%)" fill-opacity="1" d="M 320.535156 18.367188 C 320.535156 28.402344 313.71875 36.535156 305.304688 36.535156 C 296.894531 36.535156 290.078125 28.402344 290.078125 18.367188 C 290.078125 8.335938 296.894531 0.203125 305.304688 0.203125 C 313.71875 0.203125 320.535156 8.335938 320.535156 18.367188 "/>
<path fill="none" stroke-width="4.12" stroke-linecap="butt" stroke-linejoin="miter" stroke="rgb(0%, 0%, 0%)" stroke-opacity="1" stroke-dasharray="60" stroke-miterlimit="10" d="M 3219.094147 389.334266 C 3219.094147 288.057241 3150.301462 205.979091 3065.384875 205.979091 C 2980.507711 205.979091 2911.715025 288.057241 2911.715025 389.334266 C 2911.715025 490.571868 2980.507711 572.650017 3065.384875 572.650017 C 3150.301462 572.650017 3219.094147 490.571868 3219.094147 389.334266 Z M 3219.094147 389.334266 " transform="matrix(0.0990862, 0, 0, -0.0990862, 1.567328, 56.944843)"/>
<g clip-path="url(#clip-0)">
<path fill="none" stroke-width="9.27" stroke-linecap="butt" stroke-linejoin="miter" stroke="rgb(0%, 0%, 0%)" stroke-opacity="1" stroke-miterlimit="10" d="M -0.00929833 4.647146 L 1744.880699 4.647146 " transform="matrix(0.0990862, 0, 0, -0.0990862, 1.567328, 56.944843)"/>
</g>
<g clip-path="url(#clip-1)">
<path fill="none" stroke-width="4.5" stroke-linecap="butt" stroke-linejoin="miter" stroke="rgb(0%, 0%, 0%)" stroke-opacity="1" stroke-miterlimit="10" d="M 2430.087383 4.647146 L 2430.087383 302.840769 " transform="matrix(0.0990862, 0, 0, -0.0990862, 1.567328, 56.944843)"/>
</g>
<g clip-path="url(#clip-2)">
<path fill="none" stroke-width="4.5" stroke-linecap="butt" stroke-linejoin="miter" stroke="rgb(0%, 0%, 0%)" stroke-opacity="1" stroke-miterlimit="10" d="M 2635.91352 4.647146 L 2635.91352 243.430696 " transform="matrix(0.0990862, 0, 0, -0.0990862, 1.567328, 56.944843)"/>
</g>
<g clip-path="url(#clip-3)">
<path fill="none" stroke-width="4.5" stroke-linecap="butt" stroke-linejoin="miter" stroke="rgb(0%, 0%, 0%)" stroke-opacity="1" stroke-miterlimit="10" d="M 2703.996596 198.725307 L 2703.996596 4.647146 " transform="matrix(0.0990862, 0, 0, -0.0990862, 1.567328, 56.944843)"/>
</g>
<path fill="none" stroke-width="4.5" stroke-linecap="butt" stroke-linejoin="miter" stroke="rgb(0%, 0%, 0%)" stroke-opacity="1" stroke-miterlimit="10" d="M 2430.087383 302.840769 L 2430.087383 303.747492 L 2430.402764 305.521516 L 2430.678724 309.148408 L 2431.309488 314.233942 L 2431.900829 320.54158 L 2433.083511 328.347283 L 2434.581575 336.744327 L 2436.119062 345.732713 L 2437.893086 354.445139 L 2439.982491 363.118142 L 2442.387278 371.239227 L 2445.107447 378.729548 L 2448.418958 385.628528 L 2451.691045 392.251549 L 2455.317938 398.243805 L 2459.81213 403.92068 L 2464.306323 409.321596 L 2469.707239 414.446553 L 2475.699495 419.847468 L 2480.785029 423.75032 L 2486.185945 427.653171 L 2491.902242 431.5166 L 2498.170459 435.419451 L 2504.793479 439.637685 L 2511.692459 443.540536 L 2518.906821 447.443388 L 2526.712524 451.622199 L 2534.794186 455.52505 L 2542.915271 459.427902 L 2551.588274 463.330753 L 2560.3007 467.233604 L 2569.013126 470.821074 L 2578.001512 474.723926 L 2586.713938 478.035436 L 2595.702323 481.346946 L 2604.414749 484.619034 L 2613.087752 487.654585 L 2621.484796 490.335331 L 2629.605881 493.055501 L 2637.411584 495.420865 L 2645.217287 497.549693 L 2652.392226 499.323717 L 2659.606588 501.137163 L 2666.190186 502.950609 L 2672.813207 504.133291 L 2681.48621 505.946737 L 2690.198636 507.12942 L 2698.280298 508.036143 L 2706.086001 508.627484 L 2713.891704 508.942866 L 2722.012789 508.627484 L 2730.094451 508.036143 L 2738.491496 507.12942 L 2747.203922 505.946737 L 2755.916348 504.448673 L 2763.99801 502.635227 L 2771.803713 501.137163 L 2778.387311 499.639099 L 2783.512267 498.456416 L 2787.099737 497.549693 L 2789.189142 496.958352 L 2790.095865 496.64297 " transform="matrix(0.0990862, 0, 0, -0.0990862, 1.567328, 56.944843)"/>
<path fill="none" stroke-width="4.5" stroke-linecap="butt" stroke-linejoin="miter" stroke="rgb(0%, 0%, 0%)" stroke-opacity="1" stroke-miterlimit="10" d="M 2498.801222 273.116021 L 2499.116604 273.746785 L 2499.392564 274.653508 L 2500.299287 276.742914 L 2501.481969 279.147701 L 2503.295415 282.735171 L 2505.700202 286.638022 L 2508.380949 290.856255 L 2511.377077 295.035066 L 2514.688588 299.2533 L 2518.000098 302.840769 L 2521.902949 305.836898 L 2525.805801 308.517644 L 2529.984612 310.646472 L 2534.518227 312.144536 L 2539.603761 312.735877 L 2545.004676 313.051259 L 2550.681551 312.735877 L 2557.304572 311.829154 L 2564.518934 310.33109 L 2570.195809 308.833026 L 2576.818829 307.059003 L 2583.402427 305.245556 L 2590.577366 302.840769 L 2598.10711 300.1206 L 2606.188772 297.439853 L 2614.585817 294.443725 L 2623.298243 291.132215 L 2632.286628 287.820704 L 2650.894162 280.645765 L 2660.513311 277.058296 L 2670.40842 273.116021 L 2679.988146 269.252593 L 2689.883254 265.6257 L 2699.187021 262.038231 L 2708.806171 258.450761 L 2726.782941 251.827741 L 2735.219408 248.831612 L 2743.30107 246.150866 L 2751.106773 243.430696 L 2758.597094 241.065332 L 2765.496074 239.251886 L 2772.119095 237.43844 L 2778.387311 235.940375 L 2785.917055 234.442311 L 2792.816034 233.535588 L 2799.399632 233.220206 L 2805.391889 233.535588 L 2810.792805 234.126929 L 2816.193721 235.624993 L 2821.318677 237.753822 L 2826.088829 240.434568 L 2830.898404 243.430696 L 2835.707978 247.057589 L 2840.202171 251.236399 L 2844.380981 255.454633 L 2848.007874 259.633444 L 2851.319384 263.536295 L 2854.000131 267.123765 L 2856.089536 269.528552 L 2857.311641 271.65738 L 2858.178941 272.52468 L 2858.494323 273.116021 " transform="matrix(0.0990862, 0, 0, -0.0990862, 1.567328, 56.944843)"/>
<path fill="none" stroke-width="4.5" stroke-linecap="butt" stroke-linejoin="miter" stroke="rgb(0%, 0%, 0%)" stroke-opacity="1" stroke-miterlimit="10" d="M 2823.999424 467.233604 L 2824.590765 466.326881 L 2826.088829 464.552858 L 2828.808998 461.517307 L 2832.081086 457.062537 L 2836.299319 451.93758 L 2840.517553 446.260706 L 2845.011745 440.229026 L 2849.190556 434.552151 L 2852.817448 429.151235 L 2856.089536 424.026279 L 2859.085664 419.532086 L 2861.490452 415.037894 L 2863.61928 410.859083 L 2865.393303 406.64085 L 2866.891367 402.422616 L 2868.389431 397.928424 L 2869.611536 393.434231 L 2870.51826 388.624656 L 2871.38556 383.223741 L 2872.292283 377.546866 L 2872.883624 370.923845 L 2873.514388 363.748906 L 2874.105729 355.943203 L 2874.69707 347.822118 L 2875.012452 339.740456 L 2875.288411 332.250135 L 2875.288411 326.257878 L 2875.603793 321.724263 L 2875.603793 317.821411 " transform="matrix(0.0990862, 0, 0, -0.0990862, 1.567328, 56.944843)"/>
<path fill="none" stroke-width="4.5" stroke-linecap="butt" stroke-linejoin="miter" stroke="rgb(0%, 0%, 0%)" stroke-opacity="1" stroke-miterlimit="10" d="M 2635.91352 317.821411 L 2636.189479 318.728134 L 2637.096202 321.132922 L 2638.318307 325.035773 L 2640.407713 330.436689 L 2643.088459 337.335669 L 2645.808628 345.141372 L 2649.080716 353.538416 L 2652.392226 361.659501 L 2655.388355 369.425781 L 2658.699865 376.955525 L 2661.695994 383.539123 L 2664.416163 389.531379 L 2667.412291 394.932295 L 2670.093038 399.74187 L 2672.813207 404.236062 L 2675.809335 408.454296 L 2678.805464 412.317724 L 2682.116974 416.535958 L 2685.980403 420.438809 L 2689.883254 424.61762 L 2694.41687 428.520472 L 2698.87164 432.147364 L 2703.996596 436.050215 L 2709.08213 439.637685 L 2714.483046 443.225154 L 2719.883961 446.852047 L 2725.600259 450.124134 L 2731.316556 453.435645 L 2736.717472 456.431773 L 2742.394347 459.151942 L 2747.795263 461.832689 L 2753.196178 464.552858 L 2758.597094 467.233604 L 2763.406669 469.32301 L 2768.176821 471.727797 L 2773.301777 474.132584 L 2778.387311 476.537372 L 2783.788226 478.942159 L 2789.504524 481.346946 L 2794.90544 483.751734 L 2800.582315 486.43248 L 2806.298612 488.837267 L 2811.699528 491.242055 L 2817.415826 493.33146 L 2822.501359 495.736247 L 2827.586893 497.825653 L 2832.71185 499.954481 L 2837.206042 501.728504 L 2841.700235 503.54195 L 2845.918468 505.040014 L 2849.781897 506.853461 L 2854.906854 508.627484 L 2859.716428 510.44093 L 2864.48658 512.214953 L 2869.296155 513.75244 L 2874.105729 515.250505 L 2878.599922 516.748569 L 2883.409496 518.246633 L 2887.903689 519.429315 L 2892.397882 520.336038 L 2896.616115 521.518721 L 2900.794926 522.149485 L 2904.697777 523.056208 L 2908.876588 523.647549 L 2912.818862 524.23889 L 2916.682291 524.554272 L 2920.900524 524.830231 L 2925.394717 525.421572 L 2930.204291 525.736954 L 2935.881166 525.736954 L 2942.188805 526.052336 L 2948.811826 526.328295 L 2962.885745 526.328295 L 2969.193384 526.643677 L 2978.181769 526.643677 " transform="matrix(0.0990862, 0, 0, -0.0990862, 1.567328, 56.944843)"/>
<path fill="none" stroke-width="4.5" stroke-linecap="butt" stroke-linejoin="miter" stroke="rgb(0%, 0%, 0%)" stroke-opacity="1" stroke-miterlimit="10" d="M 2703.996596 288.136086 L 2703.996596 288.451468 L 2704.587937 289.318768 L 2705.49466 291.723556 L 2707.584066 295.941789 L 2709.988853 301.658087 L 2713.300363 308.517644 L 2716.887833 315.732006 L 2720.514725 322.630986 L 2724.102195 329.254006 L 2727.729087 334.930881 L 2731.001175 340.055838 L 2734.312685 343.919267 L 2737.308813 347.230777 L 2740.304942 349.635564 L 2743.616452 351.44901 L 2746.88854 352.316311 L 2750.515432 352.947075 L 2754.418283 353.223034 L 2758.281712 352.947075 L 2762.815328 352.040351 L 2767.30952 350.857669 L 2772.119095 349.044223 L 2777.204629 346.954818 L 2782.290162 344.55003 L 2787.691078 341.829861 L 2798.492909 335.837604 L 2803.893825 332.526094 L 2809.018782 329.529966 L 2814.104315 326.257878 L 2819.189849 323.222327 L 2823.999424 320.226198 L 2829.084957 317.23007 L 2833.894532 314.233942 L 2839.019488 311.553195 L 2844.380981 308.517644 L 2849.781897 305.521516 L 2855.222236 302.525387 L 2860.89911 299.529259 L 2866.615408 296.53313 L 2872.016324 293.852384 L 2877.693199 290.856255 L 2882.818155 288.451468 L 2888.179648 286.046681 L 2892.989223 283.917853 L 2897.798797 281.828447 L 2902.29299 279.739042 L 2906.787182 277.925596 L 2911.912139 276.151573 L 2916.997673 274.338126 L 2922.083206 272.840062 L 2927.799504 271.026616 L 2934.107143 269.252593 L 2940.690741 267.439147 L 2947.905103 265.6257 L 2955.395424 263.536295 L 2962.609786 261.722849 L 2968.878002 260.224785 L 2973.687576 259.042102 L 2976.683705 258.450761 L 2977.90581 258.135379 L 2978.181769 258.135379 " transform="matrix(0.0990862, 0, 0, -0.0990862, 1.567328, 56.944843)"/>
<g clip-path="url(#clip-4)">
<path fill="none" stroke-width="4.5" stroke-linecap="butt" stroke-linejoin="miter" stroke="rgb(0%, 0%, 0%)" stroke-opacity="1" stroke-miterlimit="10" d="M 2224.61605 4.647146 L 2224.61605 10.324021 L 2224.300668 15.448978 L 2224.300668 31.336343 L 2223.985286 41.822792 L 2223.709327 53.846729 L 2223.393945 67.329307 L 2223.078563 81.442648 L 2222.487222 96.147331 L 2222.211262 110.852014 L 2221.580499 125.556697 L 2220.989157 139.945998 L 2220.397816 153.743958 L 2219.806475 166.950576 L 2219.215134 179.250472 L 2218.308411 190.919604 L 2217.401688 202.036817 L 2216.494965 212.523266 L 2215.588242 222.418375 L 2214.405559 231.722142 L 2213.183454 240.434568 L 2212.000772 249.146994 L 2210.502708 257.228656 L 2209.004644 265.349741 L 2207.50658 273.116021 L 2205.417174 282.143829 L 2203.288346 291.132215 L 2200.883559 300.1206 L 2198.518194 309.148408 L 2196.113407 317.821411 L 2193.393238 326.849219 L 2190.98845 335.837604 L 2188.583663 344.55003 L 2186.218299 353.223034 L 2183.813511 361.93546 L 2181.684683 370.332504 L 2179.91066 378.453589 L 2178.412596 386.535251 L 2176.914531 394.025572 L 2176.007808 401.515893 L 2175.416467 408.454296 L 2175.416467 415.037894 L 2175.692426 421.030151 L 2176.283768 426.746448 L 2177.505873 432.147364 L 2179.319319 436.956938 L 2181.408724 441.72709 L 2184.089471 445.629942 L 2187.400981 449.532793 L 2191.303832 453.120263 L 2195.798025 456.431773 L 2200.883559 459.427902 L 2206.599856 462.148071 L 2212.907495 464.552858 L 2219.491093 466.957645 L 2226.705455 468.731669 L 2234.195776 470.229733 L 2242.316861 471.451838 L 2250.398523 472.319138 L 2258.795567 472.949902 L 2275.905037 472.949902 L 2284.302082 472.319138 L 2292.383744 471.451838 L 2300.504829 470.229733 L 2307.99515 468.731669 L 2315.209511 466.957645 L 2321.793109 464.552858 L 2328.100748 462.148071 L 2333.817046 459.427902 L 2338.90258 456.431773 L 2343.396772 453.120263 L 2347.299624 449.532793 L 2350.571711 445.629942 L 2353.291881 441.72709 L 2355.381286 436.956938 L 2357.194732 432.147364 L 2358.416837 426.746448 L 2359.008178 421.030151 L 2359.284137 415.037894 L 2359.284137 408.454296 L 2358.692796 401.515893 L 2357.786073 394.025572 L 2356.288009 386.535251 L 2354.789945 378.453589 L 2353.015921 370.332504 L 2350.887093 361.93546 L 2348.482306 353.223034 L 2346.116941 344.55003 L 2343.712154 335.837604 L 2341.307367 326.849219 L 2338.587198 317.821411 L 2336.18241 309.148408 L 2333.817046 300.1206 L 2331.372836 291.132215 L 2329.28343 282.143829 L 2327.194025 273.116021 L 2325.380579 264.718977 L 2323.882515 256.045974 L 2322.384451 247.333548 L 2320.886386 238.345163 L 2319.703704 229.041396 L 2318.481599 219.737628 L 2317.298917 210.118479 L 2316.392194 200.262794 L 2315.209511 190.328263 L 2314.61817 180.433154 L 2313.711447 170.538046 L 2313.080683 160.642938 L 2312.489342 150.747829 L 2311.898001 141.12868 L 2311.582619 131.824913 L 2311.30666 122.521146 L 2310.991278 113.532761 L 2310.675896 105.135716 L 2310.399937 97.054054 L 2310.399937 89.248351 L 2310.084555 82.033989 L 2310.084555 4.647146 " transform="matrix(0.0990862, 0, 0, -0.0990862, 1.567328, 56.944843)"/>
</g>
<g clip-path="url(#clip-5)">
<path fill="none" stroke-width="4.5" stroke-linecap="butt" stroke-linejoin="miter" stroke="rgb(0%, 0%, 0%)" stroke-opacity="1" stroke-miterlimit="10" d="M 2498.801222 273.116021 L 2498.801222 4.647146 " transform="matrix(0.0990862, 0, 0, -0.0990862, 1.567328, 56.944843)"/>
</g>
<path fill="none" stroke-width="4.5" stroke-linecap="butt" stroke-linejoin="miter" stroke="rgb(0%, 0%, 0%)" stroke-opacity="1" stroke-miterlimit="10" d="M 1247.799341 302.840769 L 1247.483959 302.840769 L 1246.616659 301.934046 L 1244.211871 300.1206 L 1240.584979 297.124471 L 1235.184063 293.22162 L 1229.507189 289.042809 L 1223.19955 284.548617 L 1216.891911 280.645765 L 1210.899654 277.058296 L 1205.183357 273.746785 L 1199.506482 271.341998 L 1194.105566 268.937211 L 1188.389268 267.123765 L 1182.397011 265.6257 L 1177.902819 264.718977 L 1173.408626 263.851677 L 1168.28367 262.944954 L 1162.882754 262.353613 L 1156.890497 261.722849 L 1150.306899 261.131508 L 1143.092537 260.540167 L 1135.010875 260.224785 L 1126.298449 259.633444 L 1116.994682 259.318062 L 1107.414956 259.042102 L 1097.480425 258.72672 L 1088.21608 258.72672 L 1079.503654 258.450761 L 1072.289292 258.450761 L 1066.612417 258.135379 L 1059.713437 258.135379 " transform="matrix(0.0990862, 0, 0, -0.0990862, 1.567328, 56.944843)"/>
<g clip-path="url(#clip-6)">
<path fill="none" stroke-width="4.5" stroke-linecap="butt" stroke-linejoin="miter" stroke="rgb(0%, 0%, 0%)" stroke-opacity="1" stroke-miterlimit="10" d="M 1093.616996 4.647146 L 1093.616996 228.450054 " transform="matrix(0.0990862, 0, 0, -0.0990862, 1.567328, 56.944843)"/>
</g>
<g clip-path="url(#clip-7)">
<path fill="none" stroke-width="4.5" stroke-linecap="butt" stroke-linejoin="miter" stroke="rgb(0%, 0%, 0%)" stroke-opacity="1" stroke-miterlimit="10" d="M 1162.291413 4.647146 L 1162.291413 228.450054 " transform="matrix(0.0990862, 0, 0, -0.0990862, 1.567328, 56.944843)"/>
</g>
<path fill="none" stroke-width="4.5" stroke-linecap="butt" stroke-linejoin="miter" stroke="rgb(0%, 0%, 0%)" stroke-opacity="1" stroke-miterlimit="10" d="M 1093.616996 288.136086 L 1093.892955 289.318768 L 1094.799678 291.447597 L 1096.297742 295.626407 L 1098.70253 301.658087 L 1101.698658 309.424367 L 1105.010168 318.728134 L 1108.873597 328.623243 L 1113.091831 339.149115 L 1116.994682 349.320182 L 1121.212915 358.939331 L 1124.800385 368.243099 L 1128.703236 376.324761 L 1132.014747 383.854505 L 1135.286834 390.714062 L 1138.598345 396.430359 L 1141.594473 401.831275 L 1144.590602 406.64085 L 1147.58673 410.859083 L 1150.89824 414.722512 L 1154.801092 419.256127 L 1159.019325 423.434938 L 1163.513518 427.337789 L 1168.007711 430.6493 L 1172.817285 433.921387 L 1177.902819 436.956938 L 1183.303735 439.953067 L 1188.70465 442.633813 L 1194.105566 445.038601 L 1199.782441 447.128006 L 1205.183357 449.532793 L 1210.584272 451.346239 L 1215.709229 453.435645 L 1220.794762 455.52505 L 1225.880296 457.338496 L 1230.689871 459.427902 L 1235.184063 461.517307 L 1239.717679 463.646135 L 1244.211871 465.73554 L 1248.982023 468.140328 L 1254.10698 470.545115 L 1259.192513 473.225861 L 1264.593429 475.946031 L 1270.309727 478.626777 L 1276.301984 481.346946 L 1282.609622 484.343075 L 1288.877838 486.747862 L 1295.185477 489.428608 L 1301.808498 491.833396 L 1308.392096 494.238183 L 1315.291076 496.327588 L 1322.190056 498.456416 L 1329.089036 499.954481 L 1336.618779 501.728504 L 1342.611036 502.950609 L 1349.194634 503.817909 L 1355.817655 505.040014 L 1362.716635 505.946737 L 1377.697277 507.12942 L 1385.50298 507.720761 L 1393.308683 508.036143 L 1401.390345 508.351525 L 1409.51143 508.627484 L 1417.593092 508.627484 L 1425.714177 508.351525 L 1433.480457 508.036143 L 1441.28616 507.720761 L 1448.815904 507.12942 L 1455.990843 506.222697 L 1462.613864 505.355396 L 1468.88208 504.448673 L 1474.913759 503.226568 L 1480.590634 502.043886 L 1485.715591 500.821781 L 1490.485743 499.323717 L 1496.517422 496.958352 L 1502.194297 494.238183 L 1507.003872 491.242055 L 1511.182682 487.930544 L 1515.400916 483.751734 L 1519.303767 478.942159 L 1522.891237 473.541243 L 1526.202747 467.548986 L 1529.514257 461.241348 L 1532.195004 454.933709 L 1534.915173 448.941452 L 1536.689197 444.131878 L 1537.911302 440.544408 L 1538.818025 438.139621 L 1539.093984 437.232898 " transform="matrix(0.0990862, 0, 0, -0.0990862, 1.567328, 56.944843)"/>
<path fill="none" stroke-width="4.5" stroke-linecap="butt" stroke-linejoin="miter" stroke="rgb(0%, 0%, 0%)" stroke-opacity="1" stroke-miterlimit="10" d="M 1179.400883 288.136086 L 1179.400883 289.63415 L 1179.716265 292.630279 L 1180.307606 297.124471 L 1180.898947 303.43211 L 1182.08163 310.055131 L 1183.303735 316.638729 L 1184.801799 322.946368 L 1186.891204 328.031901 L 1188.980609 332.250135 L 1191.385397 335.522222 L 1194.381525 337.92701 L 1198.008417 339.425074 L 1202.187228 340.055838 L 1205.81412 340.331797 L 1209.992931 340.331797 L 1214.487124 339.740456 L 1219.61208 338.833733 L 1224.697614 337.651051 L 1236.682128 334.654922 L 1242.989766 332.526094 L 1249.612787 330.121307 L 1256.196385 328.031901 L 1262.819406 325.351155 L 1269.403004 322.946368 L 1275.986602 320.226198 L 1282.29424 317.545452 L 1288.286497 315.140665 L 1294.002795 312.459918 L 1299.719093 310.055131 L 1305.080586 307.926303 L 1310.796883 305.245556 L 1316.513181 302.840769 L 1322.190056 300.435982 L 1327.590971 298.031195 L 1333.307269 295.941789 L 1338.984144 293.852384 L 1344.700442 291.723556 L 1350.416739 289.63415 L 1355.817655 287.820704 L 1361.49453 286.32264 L 1366.895445 284.824576 L 1372.296361 283.641894 L 1377.697277 282.735171 L 1382.782811 281.828447 L 1393.584642 280.645765 L 1398.394217 280.330383 L 1403.519173 280.054424 L 1414.281582 280.054424 L 1419.997879 280.330383 L 1425.714177 280.921724 L 1431.982393 281.237106 L 1438.014073 282.143829 L 1444.006329 283.050552 L 1450.313968 284.233235 L 1455.990843 285.45534 L 1461.9831 286.953404 L 1472.784931 289.949532 L 1477.594506 291.723556 L 1482.088698 293.852384 L 1486.582891 295.941789 L 1490.485743 298.031195 L 1495.019358 300.711941 L 1498.882787 303.747492 L 1502.785638 307.059003 L 1506.373108 310.922431 L 1510 315.140665 L 1513.902851 320.226198 L 1517.805703 325.627114 L 1521.708554 331.934753 L 1525.571983 338.242392 L 1529.514257 344.82599 L 1532.786345 350.857669 L 1535.506514 355.627821 L 1537.280538 359.254713 L 1538.502643 361.659501 L 1539.093984 362.526801 " transform="matrix(0.0990862, 0, 0, -0.0990862, 1.567328, 56.944843)"/>
<path fill="none" stroke-width="4.5" stroke-linecap="butt" stroke-linejoin="miter" stroke="rgb(0%, 0%, 0%)" stroke-opacity="1" stroke-miterlimit="10" d="M 1264.908811 362.526801 L 1264.908811 362.842183 L 1265.815534 364.024865 L 1267.313598 367.060416 L 1269.403004 370.923845 L 1271.492409 375.45746 L 1273.305855 379.636271 L 1274.803919 383.539123 L 1275.710643 386.535251 L 1276.301984 389.531379 L 1276.617366 392.251549 L 1276.301984 394.932295 L 1275.710643 397.928424 L 1274.803919 401.239934 L 1273.305855 404.827403 L 1271.492409 409.045637 L 1269.403004 413.539829 L 1265.815534 420.714769 L 1264.908811 421.936874 L 1264.908811 422.252256 " transform="matrix(0.0990862, 0, 0, -0.0990862, 1.567328, 56.944843)"/>
<g clip-path="url(#clip-8)">
<path fill="none" stroke-width="4.5" stroke-linecap="butt" stroke-linejoin="miter" stroke="rgb(0%, 0%, 0%)" stroke-opacity="1" stroke-miterlimit="10" d="M 1436.516008 4.647146 L 1436.516008 243.430696 " transform="matrix(0.0990862, 0, 0, -0.0990862, 1.567328, 56.944843)"/>
</g>
<g clip-path="url(#clip-9)">
<path fill="none" stroke-width="4.5" stroke-linecap="butt" stroke-linejoin="miter" stroke="rgb(0%, 0%, 0%)" stroke-opacity="1" stroke-miterlimit="10" d="M 1436.516008 302.840769 L 1436.516008 303.116728 L 1436.791968 304.338833 L 1437.383309 307.334962 L 1438.881373 312.144536 L 1440.41886 319.043516 L 1442.784224 327.44056 L 1445.504394 336.152986 L 1448.500522 344.82599 L 1451.49665 353.223034 L 1454.808161 360.437396 L 1458.080248 367.060416 L 1461.707141 372.737291 L 1465.29461 377.231484 L 1469.512844 381.134335 L 1474.007036 384.445846 L 1479.407952 387.441974 L 1483.586763 389.25542 L 1488.711719 391.029444 L 1493.797253 392.251549 L 1499.513551 393.434231 L 1505.505807 394.656336 L 1511.813446 395.247677 L 1518.397044 395.839018 L 1525.571983 396.1544 L 1532.510386 396.1544 L 1540.000707 395.839018 L 1547.215069 395.523636 L 1554.390008 394.932295 L 1568.818732 393.118849 L 1575.402329 392.251549 L 1581.985927 390.714062 L 1588.017607 389.531379 L 1594.009864 388.033315 L 1599.41078 386.535251 L 1604.811695 384.721805 L 1609.305888 383.223741 L 1613.484699 381.449717 L 1617.702932 379.636271 L 1621.881743 377.546866 L 1629.687446 372.737291 L 1633.314338 369.741163 L 1636.901807 366.745034 L 1640.213318 363.118142 L 1643.485405 359.254713 L 1646.481534 355.03648 L 1649.201703 350.542287 L 1651.88245 345.732713 L 1654.287237 340.647179 L 1656.692024 335.246263 L 1658.781429 329.529966 L 1660.594876 323.222327 L 1662.408322 316.954111 L 1663.906386 310.055131 L 1665.089068 303.116728 L 1666.587132 295.626407 L 1667.493855 287.820704 L 1668.400579 281.828447 L 1668.99192 275.520809 L 1669.583261 268.621829 L 1670.214025 261.44689 L 1670.805366 253.917146 L 1671.396707 245.520102 L 1671.988048 236.847098 L 1672.30343 227.227949 L 1672.894771 217.056882 L 1673.210153 206.25505 L 1673.486112 194.231114 L 1673.801494 181.931218 L 1674.116876 168.448641 L 1674.392835 154.335299 L 1674.708217 139.945998 L 1674.984177 124.649974 L 1675.299558 109.35395 L 1675.299558 94.333885 L 1675.575518 79.353243 L 1675.575518 64.924519 L 1675.8909 51.757323 L 1675.8909 29.838279 L 1676.206282 21.441235 L 1676.206282 4.647146 " transform="matrix(0.0990862, 0, 0, -0.0990862, 1.567328, 56.944843)"/>
</g>
<g clip-path="url(#clip-10)">
<path fill="none" stroke-width="4.5" stroke-linecap="butt" stroke-linejoin="miter" stroke="rgb(0%, 0%, 0%)" stroke-opacity="1" stroke-miterlimit="10" d="M 137.102999 4.647146 L 137.102999 7.327893 L 137.418381 10.324021 L 137.418381 15.448978 L 137.694341 22.347958 L 138.009722 31.336343 L 138.601064 42.138174 L 138.877023 54.43807 L 139.783746 68.23603 L 140.41451 83.216672 L 141.597192 98.552118 L 142.503915 114.124102 L 143.686597 130.05089 L 144.908702 145.346914 L 146.406767 160.051596 L 147.904831 173.849556 L 149.678854 187.056175 L 151.216341 199.040689 L 153.305746 210.118479 L 155.395152 220.328969 L 157.484557 229.632737 L 159.889344 237.753822 L 162.294132 245.244143 L 165.29026 251.551781 L 168.286389 257.228656 L 171.597899 262.353613 L 174.909409 266.532423 L 178.812261 270.119893 L 182.715112 273.116021 L 188.391987 276.151573 L 194.108285 278.240978 L 200.415924 279.739042 L 207.314903 280.645765 L 214.489843 280.921724 L 222.019586 280.330383 L 230.101248 279.42366 L 238.498293 277.925596 L 247.210719 275.836191 L 256.199104 273.431403 L 265.187489 270.435275 L 274.215297 267.123765 L 283.203682 263.851677 L 292.192068 260.224785 L 301.180453 256.637315 L 309.892879 253.049846 L 318.289923 249.422953 L 326.411008 246.150866 L 333.901329 242.839355 L 341.115691 239.843227 L 348.014671 237.123058 L 354.282887 234.71827 L 359.999184 232.628865 L 365.715482 230.854842 L 371.707739 229.632737 L 376.793273 228.726014 L 381.602847 229.041396 L 386.09704 229.632737 L 389.684509 231.130801 L 392.99602 233.535588 L 395.992148 236.847098 L 398.712317 240.710527 L 401.393064 245.520102 L 403.521892 250.645058 L 405.295915 256.637315 L 406.793979 262.629572 L 408.292044 268.937211 L 409.514149 274.653508 L 410.10549 279.42366 L 410.696831 283.326512 L 411.012213 286.046681 L 411.288172 287.544745 L 411.288172 288.136086 " transform="matrix(0.0990862, 0, 0, -0.0990862, 1.567328, 56.944843)"/>
</g>
<g clip-path="url(#clip-11)">
<path fill="none" stroke-width="4.5" stroke-linecap="butt" stroke-linejoin="miter" stroke="rgb(0%, 0%, 0%)" stroke-opacity="1" stroke-miterlimit="10" d="M 274.215297 4.647146 L 274.215297 243.430696 " transform="matrix(0.0990862, 0, 0, -0.0990862, 1.567328, 56.944843)"/>
</g>
<g clip-path="url(#clip-12)">
<path fill="none" stroke-width="4.5" stroke-linecap="butt" stroke-linejoin="miter" stroke="rgb(0%, 0%, 0%)" stroke-opacity="1" stroke-miterlimit="10" d="M 342.613755 198.725307 L 342.613755 4.647146 " transform="matrix(0.0990862, 0, 0, -0.0990862, 1.567328, 56.944843)"/>
</g>
<g clip-path="url(#clip-13)">
<path fill="none" stroke-width="4.5" stroke-linecap="butt" stroke-linejoin="miter" stroke="rgb(0%, 0%, 0%)" stroke-opacity="1" stroke-miterlimit="10" d="M 479.68663 4.647146 L 479.68663 243.430696 " transform="matrix(0.0990862, 0, 0, -0.0990862, 1.567328, 56.944843)"/>
</g>
<g clip-path="url(#clip-14)">
<path fill="none" stroke-width="4.5" stroke-linecap="butt" stroke-linejoin="miter" stroke="rgb(0%, 0%, 0%)" stroke-opacity="1" stroke-miterlimit="10" d="M 548.40047 198.725307 L 548.40047 4.647146 " transform="matrix(0.0990862, 0, 0, -0.0990862, 1.567328, 56.944843)"/>
</g>
<path fill="none" stroke-width="4.5" stroke-linecap="butt" stroke-linejoin="miter" stroke="rgb(0%, 0%, 0%)" stroke-opacity="1" stroke-miterlimit="10" d="M 274.215297 302.840769 L 274.215297 303.747492 L 274.491256 305.521516 L 274.806638 309.148408 L 275.397979 314.233942 L 275.989321 320.54158 L 277.211426 328.347283 L 278.70949 336.744327 L 280.207554 345.732713 L 282.021 354.445139 L 284.110405 363.118142 L 286.791152 371.239227 L 289.511321 378.729548 L 292.50745 385.628528 L 295.81896 392.251549 L 299.406429 398.243805 L 303.900622 403.92068 L 308.710197 409.321596 L 313.79573 414.446553 L 319.787987 419.847468 L 324.912944 423.75032 L 330.313859 427.653171 L 335.990734 431.5166 L 342.298373 435.419451 L 348.881971 439.637685 L 355.820374 443.540536 L 363.310695 447.443388 L 370.801016 451.622199 L 378.882678 455.52505 L 387.279722 459.427902 L 395.716189 463.330753 L 404.389192 467.233604 L 413.417 470.821074 L 422.090003 474.723926 L 431.117811 478.035436 L 440.106197 481.346946 L 448.7792 484.619034 L 457.176244 487.654585 L 465.612711 490.335331 L 474.009755 493.055501 L 481.815458 495.420865 L 489.305779 497.549693 L 496.7961 499.323717 L 510.59406 502.950609 L 516.901699 504.133291 L 525.890084 505.946737 L 534.287128 507.12942 L 542.408213 508.036143 L 550.213916 508.627484 L 558.295578 508.942866 L 566.101281 508.627484 L 574.182943 508.036143 L 582.579987 507.12942 L 591.292413 505.946737 L 599.689458 504.448673 L 608.086502 502.635227 L 615.576823 501.137163 L 622.199843 499.639099 L 627.285377 498.456416 L 630.912269 497.549693 L 633.001675 496.958352 L 633.908398 496.64297 " transform="matrix(0.0990862, 0, 0, -0.0990862, 1.567328, 56.944843)"/>
<path fill="none" stroke-width="4.5" stroke-linecap="butt" stroke-linejoin="miter" stroke="rgb(0%, 0%, 0%)" stroke-opacity="1" stroke-miterlimit="10" d="M 342.613755 273.116021 L 342.889714 273.746785 L 343.205096 274.653508 L 344.111819 276.742914 L 345.294501 279.147701 L 347.107948 282.735171 L 349.512735 286.638022 L 352.193481 290.856255 L 355.18961 295.035066 L 358.50112 299.2533 L 362.08859 302.840769 L 365.715482 305.836898 L 369.578911 308.517644 L 373.797144 310.646472 L 378.606719 312.144536 L 383.416293 312.735877 L 388.777786 313.051259 L 394.809466 312.735877 L 401.117105 311.829154 L 408.292044 310.33109 L 414.284301 308.833026 L 420.591939 307.059003 L 427.175537 305.245556 L 434.389899 302.840769 L 442.195602 300.1206 L 450.001305 297.439853 L 458.398349 294.443725 L 467.110775 291.132215 L 476.09916 287.820704 L 485.402928 284.233235 L 494.982654 280.645765 L 504.601803 277.058296 L 514.496911 273.116021 L 524.116061 269.252593 L 534.011169 265.6257 L 543.590895 262.038231 L 552.894662 258.450761 L 561.883048 255.139251 L 570.910856 251.827741 L 579.3079 248.831612 L 587.704944 246.150866 L 595.510647 243.430696 L 602.685586 241.065332 L 609.899948 239.251886 L 616.522969 237.43844 L 622.791185 235.940375 L 630.281506 234.442311 L 637.180485 233.535588 L 643.488124 233.220206 L 649.519804 233.535588 L 655.196679 234.126929 L 660.282212 235.624993 L 665.407169 237.753822 L 670.492703 240.434568 L 675.302277 243.430696 L 679.79647 247.057589 L 684.290663 251.236399 L 688.508896 255.454633 L 692.096365 259.633444 L 695.407876 263.536295 L 698.088622 267.123765 L 700.21745 269.528552 L 701.400133 271.65738 L 702.306856 272.52468 L 702.582815 273.116021 " transform="matrix(0.0990862, 0, 0, -0.0990862, 1.567328, 56.944843)"/>
<path fill="none" stroke-width="4.5" stroke-linecap="butt" stroke-linejoin="miter" stroke="rgb(0%, 0%, 0%)" stroke-opacity="1" stroke-miterlimit="10" d="M 668.403297 467.233604 L 668.994639 466.326881 L 670.492703 464.552858 L 672.89749 461.517307 L 676.48496 457.062537 L 680.387811 451.93758 L 684.921426 446.260706 L 689.100237 440.229026 L 693.318471 434.552151 L 696.90594 429.151235 L 700.21745 424.026279 L 703.213579 419.532086 L 705.578943 415.037894 L 707.707771 410.859083 L 709.205836 406.64085 L 711.019282 402.422616 L 713.384646 393.434231 L 714.606751 388.624656 L 715.513474 383.223741 L 716.104816 377.546866 L 716.696157 370.923845 L 717.287498 363.748906 L 717.878839 355.943203 L 718.509603 347.822118 L 718.785562 339.740456 L 719.100944 332.250135 L 719.100944 326.257878 L 719.416326 321.724263 L 719.416326 317.821411 " transform="matrix(0.0990862, 0, 0, -0.0990862, 1.567328, 56.944843)"/>
<path fill="none" stroke-width="4.5" stroke-linecap="butt" stroke-linejoin="miter" stroke="rgb(0%, 0%, 0%)" stroke-opacity="1" stroke-miterlimit="10" d="M 479.68663 317.821411 L 480.002012 318.728134 L 480.908735 321.132922 L 482.091417 325.035773 L 484.180823 330.436689 L 486.900992 337.335669 L 489.581738 345.141372 L 492.893249 353.538416 L 496.204759 361.659501 L 499.200887 369.425781 L 502.512398 376.955525 L 505.508526 383.539123 L 508.189273 389.531379 L 511.185401 394.932295 L 513.90557 399.74187 L 516.586317 404.236062 L 519.582445 408.454296 L 522.578574 412.317724 L 525.890084 416.535958 L 529.792935 420.438809 L 534.011169 424.61762 L 538.18998 428.520472 L 542.999554 432.147364 L 547.809129 436.050215 L 552.894662 439.637685 L 558.295578 443.225154 L 564.011876 446.852047 L 569.412791 450.124134 L 575.089666 453.435645 L 580.805964 456.431773 L 586.20688 459.151942 L 591.883755 461.832689 L 597.28467 464.552858 L 602.685586 467.233604 L 607.495161 469.32301 L 612.304735 471.727797 L 617.390269 474.132584 L 622.515225 476.537372 L 627.916141 478.942159 L 633.593016 481.346946 L 638.993932 483.751734 L 644.710229 486.43248 L 650.387104 488.837267 L 655.78802 491.242055 L 661.504317 493.33146 L 666.589851 495.736247 L 671.714808 497.825653 L 676.800341 499.954481 L 681.294534 501.728504 L 685.788727 503.54195 L 690.00696 505.040014 L 693.909812 506.853461 L 698.995345 508.627484 L 703.80492 510.44093 L 708.614495 512.214953 L 713.384646 513.75244 L 718.194221 515.250505 L 722.688414 516.748569 L 727.497988 518.246633 L 731.992181 519.429315 L 736.486373 520.336038 L 740.704607 521.518721 L 744.883417 522.149485 L 749.101651 523.056208 L 756.907354 524.23889 L 760.810205 524.554272 L 764.989016 524.830231 L 769.522631 525.421572 L 774.608165 525.736954 L 780.009081 525.736954 L 786.277297 526.052336 L 793.215699 526.328295 L 807.289618 526.328295 L 813.597257 526.643677 L 822.585643 526.643677 " transform="matrix(0.0990862, 0, 0, -0.0990862, 1.567328, 56.944843)"/>
<path fill="none" stroke-width="4.5" stroke-linecap="butt" stroke-linejoin="miter" stroke="rgb(0%, 0%, 0%)" stroke-opacity="1" stroke-miterlimit="10" d="M 548.40047 288.136086 L 548.40047 288.451468 L 548.991811 289.318768 L 549.898534 291.723556 L 551.987939 295.941789 L 554.392727 301.658087 L 557.704237 308.517644 L 561.015747 315.732006 L 564.918599 322.630986 L 568.506068 329.254006 L 571.778156 334.930881 L 575.089666 340.055838 L 578.401177 343.919267 L 581.397305 347.230777 L 584.708815 349.635564 L 587.704944 351.44901 L 591.292413 352.316311 L 594.603924 352.947075 L 598.506775 353.223034 L 602.409627 352.947075 L 606.903819 352.040351 L 611.398012 350.857669 L 616.207587 349.044223 L 621.29312 346.954818 L 626.694036 344.55003 L 632.094952 341.829861 L 642.896783 335.837604 L 647.982317 332.526094 L 653.383233 329.529966 L 658.508189 326.257878 L 663.317764 323.222327 L 668.403297 320.226198 L 673.212872 317.23007 L 678.298406 314.233942 L 683.383939 311.553195 L 688.508896 308.517644 L 693.909812 305.521516 L 699.586687 302.525387 L 704.987602 299.529259 L 710.7039 296.53313 L 716.380775 293.852384 L 721.78169 290.856255 L 727.182606 288.451468 L 732.307563 286.046681 L 737.393096 283.917853 L 742.202671 281.828447 L 746.696864 279.739042 L 751.191056 277.925596 L 756.000631 276.151573 L 761.086165 274.338126 L 766.48708 272.840062 L 772.203378 271.026616 L 778.195635 269.252593 L 784.779233 267.439147 L 792.308976 265.6257 L 799.799297 263.536295 L 807.013659 261.722849 L 813.281875 260.224785 L 818.09145 259.042102 L 821.087578 258.450761 L 822.309683 258.135379 L 822.585643 258.135379 " transform="matrix(0.0990862, 0, 0, -0.0990862, 1.567328, 56.944843)"/>
<path fill="none" stroke-width="4.5" stroke-linecap="butt" stroke-linejoin="miter" stroke="rgb(0%, 0%, 0%)" stroke-opacity="1" stroke-miterlimit="10" d="M 411.288172 347.546159 L 411.288172 347.822118 L 411.918936 349.044223 L 412.786236 351.72497 L 414.284301 355.943203 L 416.097747 361.028737 L 417.911193 366.745034 L 419.409257 371.830568 L 420.591939 376.324761 L 421.498662 380.227612 L 422.090003 383.854505 L 422.720767 386.850633 L 422.720767 389.846761 L 422.405385 393.118849 L 422.090003 396.430359 L 420.907321 400.333211 L 419.685216 404.236062 L 417.911193 408.730255 L 415.782365 413.539829 L 412.194895 420.714769 L 411.288172 421.936874 L 411.288172 422.252256 " transform="matrix(0.0990862, 0, 0, -0.0990862, 1.567328, 56.944843)"/>
<g clip-path="url(#clip-15)">
<path fill="none" stroke-width="4.5" stroke-linecap="butt" stroke-linejoin="miter" stroke="rgb(0%, 0%, 0%)" stroke-opacity="1" stroke-miterlimit="10" d="M 411.288172 496.64297 L 410.381449 497.234311 L 407.976662 498.456416 L 404.389192 500.545822 L 399.303658 503.226568 L 393.311402 506.538079 L 386.412422 509.849589 L 379.513442 513.121677 L 372.614462 516.157228 L 365.991441 518.837974 L 359.683802 520.92738 L 353.691546 522.425444 L 348.29063 523.647549 L 342.613755 524.23889 L 336.897457 524.554272 L 331.18116 524.23889 L 326.411008 523.647549 L 321.286051 523.056208 L 316.200518 522.149485 L 310.799602 520.92738 L 304.807345 519.429315 L 298.815088 517.655292 L 292.50745 515.526464 L 285.884429 513.437058 L 279.300831 510.716889 L 272.401851 508.036143 L 265.502871 505.040014 L 258.603891 501.728504 L 251.704911 498.456416 L 244.805931 494.829524 L 237.906951 491.242055 L 231.283931 487.654585 L 224.700333 483.751734 L 218.077312 479.848882 L 211.809096 475.946031 L 205.501457 472.043179 L 200.415924 468.45571 L 195.015008 464.828817 L 189.614092 461.241348 L 184.213176 457.062537 L 178.812261 452.844304 L 173.411345 448.350111 L 167.695047 443.540536 L 162.294132 438.455003 L 156.617257 433.330046 L 150.900959 427.653171 L 145.500044 421.621492 L 140.099128 415.353276 L 134.698212 408.730255 L 129.612678 402.146657 L 119.993529 387.717933 L 115.499337 380.227612 L 111.281103 372.737291 L 107.417674 364.931588 L 103.514823 356.849926 L 100.203313 348.728841 L 96.891802 340.331797 L 93.895674 331.658794 L 91.214927 322.630986 L 89.401481 315.732006 L 87.588035 308.517644 L 85.814012 301.027323 L 84.315947 293.22162 L 82.817883 285.139958 L 81.595778 276.427532 L 80.413096 267.123765 L 79.190991 257.228656 L 78.008309 246.742207 L 77.101586 235.624993 L 76.194863 223.64048 L 75.288139 211.064625 L 74.420839 197.858006 L 73.790075 183.744665 L 72.883352 169.039982 L 72.292011 153.743958 L 71.70067 138.132552 L 71.109329 122.245187 L 70.793947 106.318399 L 70.202606 90.746416 L 69.887224 76.041733 L 69.611265 61.928391 L 69.295883 49.037154 L 69.019923 37.643982 L 68.704541 28.024833 L 68.704541 19.94317 L 68.38916 13.950914 L 68.38916 4.647146 " transform="matrix(0.0990862, 0, 0, -0.0990862, 1.567328, 56.944843)"/>
</g>
<g clip-path="url(#clip-16)">
<path fill="none" stroke-width="9.23" stroke-linecap="butt" stroke-linejoin="miter" stroke="rgb(0%, 0%, 0%)" stroke-opacity="1" stroke-miterlimit="10" d="M 2155.90221 4.647146 L 3885.811565 4.647146 " transform="matrix(0.0990862, 0, 0, -0.0990862, 1.567328, 56.944843)"/>
</g>
<path fill="none" stroke-width="4.5" stroke-linecap="butt" stroke-linejoin="miter" stroke="rgb(0%, 0%, 0%)" stroke-opacity="1" stroke-miterlimit="10" d="M 3399.019543 302.840769 L 3398.704161 302.840769 L 3397.797438 301.934046 L 3395.392651 300.1206 L 3391.489799 297.124471 L 3386.404265 293.22162 L 3380.412008 289.042809 L 3374.10437 284.548617 L 3367.796731 280.645765 L 3361.804474 277.058296 L 3356.088176 273.746785 L 3350.411302 271.341998 L 3344.695004 268.937211 L 3339.018129 267.123765 L 3333.301831 265.6257 L 3328.807639 264.718977 L 3323.998064 263.851677 L 3318.873108 262.944954 L 3313.511615 262.353613 L 3307.519358 261.722849 L 3300.896337 261.131508 L 3293.681975 260.540167 L 3285.600313 260.224785 L 3276.887887 259.633444 L 3267.58412 259.318062 L 3258.004394 259.042102 L 3248.109285 258.72672 L 3238.805518 258.72672 L 3230.093092 258.450761 L 3222.918153 258.450761 L 3217.517237 258.135379 L 3210.302875 258.135379 C 3210.302875 258.135379 3090.418316 267.63626 2968.878002 260.224785 " transform="matrix(0.0990862, 0, 0, -0.0990862, 1.567328, 56.944843)"/>
<path fill="none" stroke-width="4.5" stroke-linecap="butt" stroke-linejoin="miter" stroke="rgb(0%, 0%, 0%)" stroke-opacity="1" stroke-miterlimit="10" d="M 3364.485221 481.938287 L 3364.209261 481.938287 L 3363.302538 482.529629 L 3361.213133 483.751734 L 3357.310281 485.841139 L 3346.50845 491.242055 L 3340.792152 493.922801 L 3334.799896 496.64297 L 3329.083598 499.047758 L 3323.998064 501.137163 L 3319.18849 502.950609 L 3314.418338 504.448673 L 3309.608763 505.631355 L 3304.483807 506.538079 L 3299.989614 507.444802 L 3295.219462 508.036143 L 3290.094506 508.627484 L 3284.102249 509.218825 L 3277.79461 509.849589 L 3270.580248 510.125548 L 3262.498586 510.44093 L 3253.78616 510.716889 L 3244.482393 511.032271 L 3235.218049 511.347653 L 3226.781582 511.347653 L 3219.882602 511.623612 L 3210.302875 511.623612 C 3210.302875 511.623612 3044.057171 530.388838 2963.713622 524.317735 " transform="matrix(0.0990862, 0, 0, -0.0990862, 1.567328, 56.944843)"/>
<g clip-path="url(#clip-17)">
<path fill="none" stroke-width="4.5" stroke-linecap="butt" stroke-linejoin="miter" stroke="rgb(0%, 0%, 0%)" stroke-opacity="1" stroke-miterlimit="10" d="M 3244.797775 4.647146 L 3244.797775 228.450054 " transform="matrix(0.0990862, 0, 0, -0.0990862, 1.567328, 56.944843)"/>
</g>
<g clip-path="url(#clip-18)">
<path fill="none" stroke-width="4.5" stroke-linecap="butt" stroke-linejoin="miter" stroke="rgb(0%, 0%, 0%)" stroke-opacity="1" stroke-miterlimit="10" d="M 3313.196233 4.647146 L 3313.196233 228.450054 " transform="matrix(0.0990862, 0, 0, -0.0990862, 1.567328, 56.944843)"/>
</g>
<path fill="none" stroke-width="4.5" stroke-linecap="butt" stroke-linejoin="miter" stroke="rgb(0%, 0%, 0%)" stroke-opacity="1" stroke-miterlimit="10" d="M 3244.797775 288.136086 L 3245.113157 289.318768 L 3245.980457 291.447597 L 3247.517944 295.626407 L 3249.883309 301.658087 L 3252.603478 309.424367 L 3256.190947 318.728134 L 3260.093799 328.623243 L 3263.99665 339.149115 L 3268.175461 349.320182 L 3272.117735 358.939331 L 3275.981164 368.243099 L 3279.608056 376.324761 L 3283.195526 383.854505 L 3286.507036 390.714062 L 3289.503165 396.430359 L 3292.499293 401.831275 L 3295.810803 406.64085 L 3298.806932 410.859083 L 3301.80306 414.722512 L 3305.705912 419.256127 L 3309.884722 423.434938 L 3314.418338 427.337789 L 3319.18849 430.6493 L 3323.998064 433.921387 L 3329.083598 436.956938 L 3334.484514 439.953067 L 3339.885429 442.633813 L 3345.286345 445.038601 L 3350.687261 447.128006 L 3356.088176 449.532793 L 3361.489092 451.346239 L 3366.890008 453.435645 L 3372.014964 455.52505 L 3376.785116 457.338496 L 3381.910073 459.427902 L 3386.088883 461.517307 L 3390.583076 463.646135 L 3395.392651 465.73554 L 3399.886843 468.140328 L 3405.0118 470.545115 L 3410.412715 473.225861 L 3415.813631 475.946031 L 3421.490506 478.626777 L 3427.482763 481.346946 L 3433.514442 484.343075 L 3439.782658 486.747862 L 3446.405679 489.428608 L 3452.713318 491.833396 L 3459.612298 494.238183 L 3466.195896 496.327588 L 3473.094876 498.456416 L 3480.309237 499.954481 L 3487.484177 501.728504 L 3493.515856 502.950609 L 3500.099454 503.817909 L 3506.683052 505.040014 L 3513.897414 505.946737 L 3521.111776 506.538079 L 3528.602097 507.12942 L 3536.4078 507.720761 L 3544.213503 508.036143 L 3552.295165 508.351525 L 3560.692209 508.627484 L 3568.813294 508.627484 L 3576.894956 508.351525 L 3592.506362 507.720761 L 3599.996683 507.12942 L 3606.895663 506.222697 L 3613.794643 505.355396 L 3620.102282 504.448673 L 3626.094538 503.226568 L 3631.810836 502.043886 L 3636.89637 500.821781 L 3641.705944 499.323717 L 3647.698201 496.958352 L 3653.099117 494.238183 L 3658.184651 491.242055 L 3662.402884 487.930544 L 3666.581695 483.751734 L 3670.484546 478.942159 L 3674.111439 473.541243 L 3677.383526 467.548986 L 3680.695037 461.241348 L 3683.415206 454.933709 L 3686.095952 448.941452 L 3687.909398 444.131878 L 3689.092081 440.544408 L 3689.998804 438.139621 L 3690.314186 437.232898 " transform="matrix(0.0990862, 0, 0, -0.0990862, 1.567328, 56.944843)"/>
<path fill="none" stroke-width="4.5" stroke-linecap="butt" stroke-linejoin="miter" stroke="rgb(0%, 0%, 0%)" stroke-opacity="1" stroke-miterlimit="10" d="M 3330.305703 288.136086 L 3330.305703 289.63415 L 3330.581662 292.630279 L 3331.212426 297.124471 L 3331.803767 303.43211 L 3332.986449 310.055131 L 3334.208554 316.638729 L 3335.706619 322.946368 L 3337.796024 328.031901 L 3339.885429 332.250135 L 3342.290217 335.522222 L 3345.286345 337.92701 L 3348.873815 339.425074 L 3353.092048 340.055838 L 3356.71894 340.331797 L 3360.897751 340.331797 L 3365.391944 339.740456 L 3370.5169 338.833733 L 3375.602434 337.651051 L 3387.586948 334.654922 L 3393.894586 332.526094 L 3400.517607 330.121307 L 3407.101205 328.031901 L 3413.684803 325.351155 L 3420.307824 322.946368 L 3426.891422 320.226198 L 3433.19906 317.545452 L 3439.191317 315.140665 L 3445.222997 312.459918 L 3450.58449 310.055131 L 3455.985405 307.926303 L 3461.701703 305.245556 L 3467.418001 302.840769 L 3473.094876 300.435982 L 3478.811173 298.031195 L 3484.212089 295.941789 L 3489.888964 293.852384 L 3495.605261 291.723556 L 3501.282136 289.63415 L 3506.998434 287.820704 L 3512.714732 286.32264 L 3518.076225 284.824576 L 3523.516563 283.641894 L 3528.878056 282.735171 L 3534.003012 281.828447 L 3539.403928 281.237106 L 3544.489462 280.645765 L 3549.614418 280.330383 L 3554.38457 280.054424 L 3565.225824 280.054424 L 3570.902699 280.330383 L 3576.894956 280.921724 L 3582.887213 281.237106 L 3588.87947 282.143829 L 3595.226531 283.050552 L 3601.218788 284.233235 L 3607.211045 285.45534 L 3612.88792 286.953404 L 3623.689751 289.949532 L 3628.499326 291.723556 L 3633.3089 293.852384 L 3637.487711 295.941789 L 3641.705944 298.031195 L 3645.884755 300.711941 L 3649.787607 303.747492 L 3653.690458 307.059003 L 3657.31735 310.922431 L 3661.180779 315.140665 L 3665.083631 320.226198 L 3668.986482 325.627114 L 3676.792185 338.242392 L 3680.419077 344.82599 L 3684.006547 350.857669 L 3686.687293 355.627821 L 3688.50074 359.254713 L 3689.683422 361.659501 L 3690.314186 362.526801 " transform="matrix(0.0990862, 0, 0, -0.0990862, 1.567328, 56.944843)"/>
<path fill="none" stroke-width="4.5" stroke-linecap="butt" stroke-linejoin="miter" stroke="rgb(0%, 0%, 0%)" stroke-opacity="1" stroke-miterlimit="10" d="M 3416.08959 362.526801 L 3416.08959 362.842183 L 3416.996313 364.024865 L 3418.494378 367.060416 L 3420.583783 370.923845 L 3422.712611 375.45746 L 3424.486634 379.636271 L 3425.708739 383.539123 L 3426.891422 386.535251 L 3427.206804 389.531379 L 3427.482763 392.251549 L 3427.206804 394.932295 L 3426.891422 397.928424 L 3425.708739 401.239934 L 3424.486634 404.827403 L 3422.712611 409.045637 L 3420.583783 413.539829 L 3416.996313 420.714769 L 3416.08959 421.936874 L 3416.08959 422.252256 " transform="matrix(0.0990862, 0, 0, -0.0990862, 1.567328, 56.944843)"/>
<g clip-path="url(#clip-19)">
<path fill="none" stroke-width="4.5" stroke-linecap="butt" stroke-linejoin="miter" stroke="rgb(0%, 0%, 0%)" stroke-opacity="1" stroke-miterlimit="10" d="M 3587.105446 302.840769 L 3587.105446 303.116728 L 3587.381406 304.338833 L 3588.012169 307.334962 L 3589.510234 312.144536 L 3591.284257 319.043516 L 3593.413085 327.44056 L 3596.093832 336.152986 L 3599.08996 344.82599 L 3602.086088 353.223034 L 3605.397599 360.437396 L 3608.709109 367.060416 L 3612.296579 372.737291 L 3616.19943 377.231484 L 3620.417664 381.134335 L 3624.911856 384.445846 L 3630.312772 387.441974 L 3634.806965 389.25542 L 3639.616539 391.029444 L 3644.702073 392.251549 L 3650.41837 393.434231 L 3656.371205 394.656336 L 3662.718266 395.247677 L 3669.617246 395.839018 L 3676.516226 396.1544 L 3683.691165 396.1544 L 3690.905527 395.839018 L 3698.395848 395.523636 L 3705.570787 394.932295 L 3712.785149 394.025572 L 3719.684129 393.118849 L 3726.583109 392.251549 L 3732.890747 390.714062 L 3739.198386 389.531379 L 3745.190643 388.033315 L 3750.591559 386.535251 L 3755.992474 384.721805 L 3760.486667 383.223741 L 3764.7049 381.449717 L 3768.883711 379.636271 L 3773.101944 377.546866 L 3780.907647 372.737291 L 3788.082587 366.745034 L 3791.394097 363.118142 L 3794.705607 359.254713 L 3797.701736 355.03648 L 3800.382482 350.542287 L 3803.102651 345.732713 L 3805.507439 340.647179 L 3807.912226 335.246263 L 3810.001631 329.529966 L 3811.815077 323.222327 L 3813.589101 316.954111 L 3815.087165 310.055131 L 3816.30927 303.116728 L 3817.807334 295.626407 L 3818.714057 287.820704 L 3819.581358 281.828447 L 3820.212122 275.520809 L 3820.803463 268.621829 L 3821.394804 261.44689 L 3821.986145 253.917146 L 3822.616909 245.520102 L 3823.20825 236.847098 L 3823.484209 227.227949 L 3824.114973 217.056882 L 3824.390932 206.25505 L 3824.706314 194.231114 L 3824.982273 181.931218 L 3825.297655 168.448641 L 3825.573614 154.335299 L 3825.888996 139.945998 L 3826.204378 124.649974 L 3826.480338 109.35395 L 3826.480338 94.333885 L 3826.79572 79.353243 L 3826.79572 64.924519 L 3827.111101 51.757323 L 3827.111101 29.838279 L 3827.387061 21.441235 L 3827.387061 4.647146 " transform="matrix(0.0990862, 0, 0, -0.0990862, 1.567328, 56.944843)"/>
</g>
<g clip-path="url(#clip-20)">
<path fill="none" stroke-width="4.5" stroke-linecap="butt" stroke-linejoin="miter" stroke="rgb(0%, 0%, 0%)" stroke-opacity="1" stroke-miterlimit="10" d="M 3587.105446 4.647146 L 3587.105446 243.430696 " transform="matrix(0.0990862, 0, 0, -0.0990862, 1.567328, 56.944843)"/>
</g>
<path fill="none" stroke-width="4.5" stroke-linecap="butt" stroke-linejoin="miter" stroke="rgb(0%, 0%, 0%)" stroke-opacity="1" stroke-miterlimit="10" d="M 823.728902 524.317735 C 823.728902 524.317735 985.874641 514.0284 1059.713437 511.623612 L 1069.293164 511.623612 L 1076.192144 511.347653 L 1084.589188 511.347653 L 1093.892955 511.032271 L 1102.88134 510.716889 L 1111.593766 510.44093 L 1119.714851 510.125548 L 1126.88979 509.849589 L 1133.512811 509.218825 L 1139.189686 508.627484 L 1144.590602 508.036143 L 1149.400176 507.444802 L 1153.894369 506.538079 L 1158.703943 505.631355 L 1163.513518 504.448673 L 1168.28367 502.950609 L 1173.408626 501.137163 L 1178.49416 499.047758 L 1184.210458 496.64297 L 1189.887333 493.922801 L 1195.919012 491.242055 L 1201.595887 488.245926 L 1206.681421 485.841139 L 1210.584272 483.751734 L 1212.7131 482.529629 L 1213.580401 481.938287 L 1213.895783 481.938287 " transform="matrix(0.0990862, 0, 0, -0.0990862, 1.567328, 56.944843)"/>
<path fill="none" stroke-width="4.5" stroke-linecap="butt" stroke-linejoin="miter" stroke="rgb(0%, 0%, 0%)" stroke-opacity="1" stroke-miterlimit="10" d="M 1062.985525 258.135379 C 1062.985525 258.135379 909.118562 250.408522 818.09145 259.042102 " transform="matrix(0.0990862, 0, 0, -0.0990862, 1.567328, 56.944843)"/>
<path fill="none" stroke-width="10" stroke-linecap="butt" stroke-linejoin="miter" stroke="rgb(0%, 0%, 0%)" stroke-opacity="1" stroke-miterlimit="10" d="M 1850.41538 284.31208 L 2040.393575 284.31208 " transform="matrix(0.0990862, 0, 0, -0.0990862, 1.567328, 56.944843)"/>
<path fill-rule="nonzero" fill="rgb(0%, 0%, 0%)" fill-opacity="1" d="M 202.730469 28.773438 L 200.5625 25.203125 L 200.683594 25.121094 L 206.503906 27.433594 C 208.53125 27.882812 210.5625 28.324219 212.589844 28.773438 C 210.5625 29.21875 208.53125 29.664062 206.503906 30.113281 L 200.683594 32.425781 L 200.5625 32.363281 L 202.730469 28.773438 "/>
<path fill-rule="nonzero" fill="rgb(0%, 0%, 0%)" fill-opacity="1" d="M 185.929688 28.773438 L 188.097656 32.34375 L 187.976562 32.425781 L 182.15625 30.113281 C 180.125 29.667969 178.097656 29.21875 176.070312 28.773438 C 178.097656 28.328125 180.125 27.882812 182.15625 27.433594 L 187.976562 25.121094 L 188.097656 25.183594 L 185.929688 28.773438 "/>
</svg>
