<?xml version="1.0" encoding="UTF-8"?>
<svg xmlns="http://www.w3.org/2000/svg" xmlns:xlink="http://www.w3.org/1999/xlink" width="260" height="180" viewBox="0 0 260 180">
<path fill="none" stroke-width="3.6" stroke-linecap="square" stroke-linejoin="miter" stroke="rgb(50%, 0%, 0%)" stroke-opacity="1" stroke-miterlimit="3.25" d="M 259.179688 1616.171875 L 259.179688 179.570312 " transform="matrix(0.1, 0, 0, -0.1, 0, 180)"/>
<path fill="none" stroke-width="3.6" stroke-linecap="square" stroke-linejoin="miter" stroke="rgb(50%, 0%, 0%)" stroke-opacity="1" stroke-miterlimit="3.25" d="M 259.179688 1616.171875 L 1503.359375 897.851562 " transform="matrix(0.1, 0, 0, -0.1, 0, 180)"/>
<path fill="none" stroke-width="3.6" stroke-linecap="square" stroke-linejoin="miter" stroke="rgb(50%, 0%, 0%)" stroke-opacity="1" stroke-miterlimit="3.25" d="M 259.179688 179.570312 L 1503.359375 897.851562 " transform="matrix(0.1, 0, 0, -0.1, 0, 180)"/>
<path fill="none" stroke-width="3.6" stroke-linecap="square" stroke-linejoin="miter" stroke="rgb(50%, 0%, 0%)" stroke-opacity="1" stroke-miterlimit="3.25" d="M 1503.359375 897.851562 L 2332.8125 897.851562 " transform="matrix(0.1, 0, 0, -0.1, 0, 180)"/>
<path fill-rule="nonzero" fill="rgb(100%, 100%, 80.076599%)" fill-opacity="1" stroke-width="1" stroke-linecap="square" stroke-linejoin="bevel" stroke="rgb(100%, 100%, 80.076599%)" stroke-opacity="1" stroke-miterlimit="10" d="M 200.390625 1537.382812 L 318.007812 1537.382812 L 318.007812 1694.960938 L 200.390625 1694.960938 Z M 200.390625 1537.382812 " transform="matrix(0.1, 0, 0, -0.1, 0, 180)"/>
<path fill-rule="evenodd" fill="rgb(0%, 0%, 0%)" fill-opacity="1" d="M 26.335938 20.382812 L 25.765625 20.382812 L 25.765625 16.753906 C 25.628906 16.886719 25.449219 17.015625 25.226562 17.144531 C 25.003906 17.277344 24.804688 17.375 24.625 17.441406 L 24.625 16.890625 C 24.945312 16.738281 25.222656 16.558594 25.460938 16.347656 C 25.699219 16.132812 25.867188 15.925781 25.96875 15.726562 L 26.335938 15.726562 "/>
<path fill-rule="nonzero" fill="rgb(93.943787%, 84.959412%, 36.009216%)" fill-opacity="1" d="M 20.039062 10.503906 L 31.800781 10.503906 L 31.800781 26.261719 L 20.039062 26.261719 L 20.039062 25.261719 L 30.800781 25.261719 L 30.800781 11.503906 L 21.039062 11.503906 L 21.039062 25.261719 L 20.039062 25.261719 L 20.039062 10.503906 "/>
<path fill="none" stroke-width="1" stroke-linecap="square" stroke-linejoin="bevel" stroke="rgb(93.943787%, 84.959412%, 36.009216%)" stroke-opacity="1" stroke-miterlimit="10" d="M 200.390625 1694.960938 L 318.007812 1694.960938 L 318.007812 1537.382812 L 200.390625 1537.382812 L 200.390625 1547.382812 L 308.007812 1547.382812 L 308.007812 1684.960938 L 210.390625 1684.960938 L 210.390625 1547.382812 L 200.390625 1547.382812 Z M 200.390625 1694.960938 " transform="matrix(0.1, 0, 0, -0.1, 0, 180)"/>
<path fill-rule="nonzero" fill="rgb(100%, 100%, 80.076599%)" fill-opacity="1" stroke-width="1" stroke-linecap="square" stroke-linejoin="bevel" stroke="rgb(100%, 100%, 80.076599%)" stroke-opacity="1" stroke-miterlimit="10" d="M 200.390625 100.78125 L 318.007812 100.78125 L 318.007812 258.398438 L 200.390625 258.398438 Z M 200.390625 100.78125 " transform="matrix(0.1, 0, 0, -0.1, 0, 180)"/>
<path fill-rule="evenodd" fill="rgb(0%, 0%, 0%)" fill-opacity="1" d="M 27.183594 163.496094 L 27.183594 164.042969 L 24.117188 164.042969 C 24.113281 163.90625 24.132812 163.773438 24.183594 163.644531 C 24.261719 163.4375 24.386719 163.230469 24.558594 163.027344 C 24.730469 162.828125 24.976562 162.59375 25.304688 162.328125 C 25.808594 161.914062 26.148438 161.585938 26.324219 161.34375 C 26.503906 161.101562 26.589844 160.875 26.589844 160.660156 C 26.589844 160.433594 26.511719 160.242188 26.347656 160.089844 C 26.1875 159.933594 25.976562 159.855469 25.71875 159.855469 C 25.441406 159.855469 25.222656 159.9375 25.058594 160.101562 C 24.894531 160.265625 24.8125 160.496094 24.808594 160.785156 L 24.222656 160.726562 C 24.265625 160.289062 24.414062 159.957031 24.675781 159.726562 C 24.9375 159.5 25.289062 159.386719 25.730469 159.386719 C 26.175781 159.386719 26.527344 159.507812 26.785156 159.753906 C 27.046875 160 27.175781 160.308594 27.175781 160.671875 C 27.175781 160.859375 27.136719 161.039062 27.0625 161.21875 C 26.984375 161.398438 26.859375 161.589844 26.683594 161.785156 C 26.507812 161.984375 26.214844 162.257812 25.804688 162.601562 C 25.464844 162.890625 25.246094 163.085938 25.148438 163.1875 C 25.050781 163.289062 24.96875 163.390625 24.90625 163.496094 "/>
<path fill-rule="nonzero" fill="rgb(93.943787%, 84.959412%, 36.009216%)" fill-opacity="1" d="M 20.039062 154.160156 L 31.800781 154.160156 L 31.800781 169.921875 L 20.039062 169.921875 L 20.039062 168.921875 L 30.800781 168.921875 L 30.800781 155.160156 L 21.039062 155.160156 L 21.039062 168.921875 L 20.039062 168.921875 L 20.039062 154.160156 "/>
<path fill="none" stroke-width="1" stroke-linecap="square" stroke-linejoin="bevel" stroke="rgb(93.943787%, 84.959412%, 36.009216%)" stroke-opacity="1" stroke-miterlimit="10" d="M 200.390625 258.398438 L 318.007812 258.398438 L 318.007812 100.78125 L 200.390625 100.78125 L 200.390625 110.78125 L 308.007812 110.78125 L 308.007812 248.398438 L 210.390625 248.398438 L 210.390625 110.78125 L 200.390625 110.78125 Z M 200.390625 258.398438 " transform="matrix(0.1, 0, 0, -0.1, 0, 180)"/>
<path fill-rule="nonzero" fill="rgb(100%, 100%, 80.076599%)" fill-opacity="1" stroke-width="1" stroke-linecap="square" stroke-linejoin="bevel" stroke="rgb(100%, 100%, 80.076599%)" stroke-opacity="1" stroke-miterlimit="10" d="M 1444.570312 819.0625 L 1562.148438 819.0625 L 1562.148438 976.679688 L 1444.570312 976.679688 Z M 1444.570312 819.0625 " transform="matrix(0.1, 0, 0, -0.1, 0, 180)"/>
<path fill-rule="evenodd" fill="rgb(0%, 0%, 0%)" fill-opacity="1" d="M 148.609375 90.988281 L 149.179688 90.914062 C 149.242188 91.234375 149.355469 91.46875 149.511719 91.609375 C 149.667969 91.753906 149.859375 91.824219 150.085938 91.824219 C 150.355469 91.824219 150.578125 91.730469 150.765625 91.542969 C 150.949219 91.359375 151.039062 91.128906 151.039062 90.855469 C 151.039062 90.59375 150.957031 90.378906 150.785156 90.210938 C 150.613281 90.039062 150.398438 89.953125 150.132812 89.953125 C 150.027344 89.953125 149.890625 89.976562 149.730469 90.015625 L 149.796875 89.515625 C 149.832031 89.519531 149.863281 89.523438 149.886719 89.523438 C 150.128906 89.523438 150.347656 89.460938 150.539062 89.335938 C 150.734375 89.207031 150.832031 89.011719 150.832031 88.746094 C 150.832031 88.539062 150.761719 88.367188 150.621094 88.230469 C 150.480469 88.09375 150.296875 88.023438 150.074219 88.023438 C 149.851562 88.023438 149.667969 88.09375 149.519531 88.234375 C 149.371094 88.371094 149.277344 88.582031 149.234375 88.859375 L 148.664062 88.757812 C 148.734375 88.375 148.894531 88.082031 149.140625 87.871094 C 149.386719 87.660156 149.691406 87.554688 150.058594 87.554688 C 150.3125 87.554688 150.546875 87.609375 150.761719 87.71875 C 150.972656 87.828125 151.136719 87.976562 151.25 88.164062 C 151.359375 88.351562 151.417969 88.550781 151.417969 88.761719 C 151.417969 88.960938 151.363281 89.144531 151.257812 89.308594 C 151.148438 89.472656 150.988281 89.605469 150.777344 89.703125 C 151.054688 89.765625 151.265625 89.894531 151.417969 90.09375 C 151.570312 90.292969 151.644531 90.542969 151.644531 90.84375 C 151.644531 91.246094 151.496094 91.589844 151.203125 91.871094 C 150.90625 92.15625 150.535156 92.296875 150.082031 92.296875 C 149.675781 92.296875 149.335938 92.171875 149.066406 91.929688 C 148.800781 91.6875 148.644531 91.375 148.609375 90.988281 "/>
<path fill-rule="nonzero" fill="rgb(93.943787%, 84.959412%, 36.009216%)" fill-opacity="1" d="M 144.457031 82.332031 L 156.214844 82.332031 L 156.214844 98.09375 L 144.457031 98.09375 L 144.457031 97.09375 L 155.214844 97.09375 L 155.214844 83.332031 L 145.457031 83.332031 L 145.457031 97.09375 L 144.457031 97.09375 L 144.457031 82.332031 "/>
<path fill="none" stroke-width="1" stroke-linecap="square" stroke-linejoin="bevel" stroke="rgb(93.943787%, 84.959412%, 36.009216%)" stroke-opacity="1" stroke-miterlimit="10" d="M 1444.570312 976.679688 L 1562.148438 976.679688 L 1562.148438 819.0625 L 1444.570312 819.0625 L 1444.570312 829.0625 L 1552.148438 829.0625 L 1552.148438 966.679688 L 1454.570312 966.679688 L 1454.570312 829.0625 L 1444.570312 829.0625 Z M 1444.570312 976.679688 " transform="matrix(0.1, 0, 0, -0.1, 0, 180)"/>
<path fill-rule="nonzero" fill="rgb(100%, 100%, 80.076599%)" fill-opacity="1" stroke-width="1" stroke-linecap="square" stroke-linejoin="bevel" stroke="rgb(100%, 100%, 80.076599%)" stroke-opacity="1" stroke-miterlimit="10" d="M 2273.984375 819.0625 L 2391.601562 819.0625 L 2391.601562 976.679688 L 2273.984375 976.679688 Z M 2273.984375 819.0625 " transform="matrix(0.1, 0, 0, -0.1, 0, 180)"/>
<path fill-rule="evenodd" fill="rgb(0%, 0%, 0%)" fill-opacity="1" d="M 233.375 92.214844 L 233.375 91.101562 L 231.363281 91.101562 L 231.363281 90.582031 L 233.480469 87.574219 L 233.945312 87.574219 L 233.945312 90.582031 L 234.570312 90.582031 L 234.570312 91.101562 L 233.945312 91.101562 L 233.945312 92.214844 Z M 233.375 90.582031 L 233.375 88.488281 L 231.921875 90.582031 "/>
<path fill-rule="nonzero" fill="rgb(93.943787%, 84.959412%, 36.009216%)" fill-opacity="1" d="M 227.398438 82.332031 L 239.160156 82.332031 L 239.160156 98.09375 L 227.398438 98.09375 L 227.398438 97.09375 L 238.160156 97.09375 L 238.160156 83.332031 L 228.398438 83.332031 L 228.398438 97.09375 L 227.398438 97.09375 L 227.398438 82.332031 "/>
<path fill="none" stroke-width="1" stroke-linecap="square" stroke-linejoin="bevel" stroke="rgb(93.943787%, 84.959412%, 36.009216%)" stroke-opacity="1" stroke-miterlimit="10" d="M 2273.984375 976.679688 L 2391.601562 976.679688 L 2391.601562 819.0625 L 2273.984375 819.0625 L 2273.984375 829.0625 L 2381.601562 829.0625 L 2381.601562 966.679688 L 2283.984375 966.679688 L 2283.984375 829.0625 L 2273.984375 829.0625 Z M 2273.984375 976.679688 " transform="matrix(0.1, 0, 0, -0.1, 0, 180)"/>
</svg>
