<?xml version="1.0" encoding="UTF-8"?>
<svg xmlns="http://www.w3.org/2000/svg" xmlns:xlink="http://www.w3.org/1999/xlink" width="170" height="171" viewBox="0 0 170 171">
<path fill-rule="evenodd" fill="rgb(0%, 0%, 0%)" fill-opacity="1" d="M 2 1.25 L 26 1.25 L 26 25.25 L 2 25.25 L 2 1.25 "/>
<path fill="none" stroke-width="10" stroke-linecap="butt" stroke-linejoin="miter" stroke="rgb(0%, 0%, 0%)" stroke-opacity="1" stroke-miterlimit="4" d="M 20 1697.5 L 260 1697.5 L 260 1457.5 L 20 1457.5 Z M 20 1697.5 " transform="matrix(0.1, 0, 0, -0.1, 0, 171)"/>
<path fill-rule="evenodd" fill="rgb(0%, 0%, 0%)" fill-opacity="1" d="M 37.625 1.25 L 61.625 1.25 L 61.625 25.25 L 37.625 25.25 L 37.625 1.25 "/>
<path fill="none" stroke-width="10" stroke-linecap="butt" stroke-linejoin="miter" stroke="rgb(0%, 0%, 0%)" stroke-opacity="1" stroke-miterlimit="4" d="M 376.25 1697.5 L 616.25 1697.5 L 616.25 1457.5 L 376.25 1457.5 Z M 376.25 1697.5 " transform="matrix(0.1, 0, 0, -0.1, 0, 171)"/>
<path fill-rule="evenodd" fill="rgb(0%, 0%, 0%)" fill-opacity="1" d="M 73.25 1.25 L 97.25 1.25 L 97.25 25.25 L 73.25 25.25 L 73.25 1.25 "/>
<path fill="none" stroke-width="10" stroke-linecap="butt" stroke-linejoin="miter" stroke="rgb(0%, 0%, 0%)" stroke-opacity="1" stroke-miterlimit="4" d="M 732.5 1697.5 L 972.5 1697.5 L 972.5 1457.5 L 732.5 1457.5 Z M 732.5 1697.5 " transform="matrix(0.1, 0, 0, -0.1, 0, 171)"/>
<path fill-rule="evenodd" fill="rgb(0%, 0%, 0%)" fill-opacity="1" d="M 108.875 1.25 L 132.875 1.25 L 132.875 25.25 L 108.875 25.25 L 108.875 1.25 "/>
<path fill="none" stroke-width="10" stroke-linecap="butt" stroke-linejoin="miter" stroke="rgb(0%, 0%, 0%)" stroke-opacity="1" stroke-miterlimit="4" d="M 1088.75 1697.5 L 1328.75 1697.5 L 1328.75 1457.5 L 1088.75 1457.5 Z M 1088.75 1697.5 " transform="matrix(0.1, 0, 0, -0.1, 0, 171)"/>
<path fill-rule="evenodd" fill="rgb(0%, 0%, 0%)" fill-opacity="1" d="M 144.5 1.25 L 168.5 1.25 L 168.5 25.25 L 144.5 25.25 L 144.5 1.25 "/>
<path fill="none" stroke-width="10" stroke-linecap="butt" stroke-linejoin="miter" stroke="rgb(0%, 0%, 0%)" stroke-opacity="1" stroke-miterlimit="4" d="M 1445 1697.5 L 1685 1697.5 L 1685 1457.5 L 1445 1457.5 Z M 1445 1697.5 " transform="matrix(0.1, 0, 0, -0.1, 0, 171)"/>
<path fill-rule="evenodd" fill="rgb(0%, 0%, 0%)" fill-opacity="1" d="M 2 37.25 L 26 37.25 L 26 61.25 L 2 61.25 L 2 37.25 "/>
<path fill="none" stroke-width="10" stroke-linecap="butt" stroke-linejoin="miter" stroke="rgb(0%, 0%, 0%)" stroke-opacity="1" stroke-miterlimit="4" d="M 20 1337.5 L 260 1337.5 L 260 1097.5 L 20 1097.5 Z M 20 1337.5 " transform="matrix(0.1, 0, 0, -0.1, 0, 171)"/>
<path fill-rule="evenodd" fill="rgb(0%, 0%, 0%)" fill-opacity="1" d="M 37.625 37.25 L 61.625 37.25 L 61.625 61.25 L 37.625 61.25 L 37.625 37.25 "/>
<path fill="none" stroke-width="10" stroke-linecap="butt" stroke-linejoin="miter" stroke="rgb(0%, 0%, 0%)" stroke-opacity="1" stroke-miterlimit="4" d="M 376.25 1337.5 L 616.25 1337.5 L 616.25 1097.5 L 376.25 1097.5 Z M 376.25 1337.5 " transform="matrix(0.1, 0, 0, -0.1, 0, 171)"/>
<path fill-rule="evenodd" fill="rgb(0%, 0%, 0%)" fill-opacity="1" d="M 73.25 37.25 L 97.25 37.25 L 97.25 61.25 L 73.25 61.25 L 73.25 37.25 "/>
<path fill="none" stroke-width="10" stroke-linecap="butt" stroke-linejoin="miter" stroke="rgb(0%, 0%, 0%)" stroke-opacity="1" stroke-miterlimit="4" d="M 732.5 1337.5 L 972.5 1337.5 L 972.5 1097.5 L 732.5 1097.5 Z M 732.5 1337.5 " transform="matrix(0.1, 0, 0, -0.1, 0, 171)"/>
<path fill-rule="evenodd" fill="rgb(0%, 0%, 0%)" fill-opacity="1" d="M 108.875 37.25 L 132.875 37.25 L 132.875 61.25 L 108.875 61.25 L 108.875 37.25 "/>
<path fill="none" stroke-width="10" stroke-linecap="butt" stroke-linejoin="miter" stroke="rgb(0%, 0%, 0%)" stroke-opacity="1" stroke-miterlimit="4" d="M 1088.75 1337.5 L 1328.75 1337.5 L 1328.75 1097.5 L 1088.75 1097.5 Z M 1088.75 1337.5 " transform="matrix(0.1, 0, 0, -0.1, 0, 171)"/>
<path fill-rule="evenodd" fill="rgb(0%, 0%, 0%)" fill-opacity="1" d="M 144.5 37.25 L 168.5 37.25 L 168.5 61.25 L 144.5 61.25 L 144.5 37.25 "/>
<path fill="none" stroke-width="10" stroke-linecap="butt" stroke-linejoin="miter" stroke="rgb(0%, 0%, 0%)" stroke-opacity="1" stroke-miterlimit="4" d="M 1445 1337.5 L 1685 1337.5 L 1685 1097.5 L 1445 1097.5 Z M 1445 1337.5 " transform="matrix(0.1, 0, 0, -0.1, 0, 171)"/>
<path fill-rule="evenodd" fill="rgb(0%, 0%, 0%)" fill-opacity="1" d="M 2 73.25 L 26 73.25 L 26 97.25 L 2 97.25 L 2 73.25 "/>
<path fill="none" stroke-width="10" stroke-linecap="butt" stroke-linejoin="miter" stroke="rgb(0%, 0%, 0%)" stroke-opacity="1" stroke-miterlimit="4" d="M 20 977.5 L 260 977.5 L 260 737.5 L 20 737.5 Z M 20 977.5 " transform="matrix(0.1, 0, 0, -0.1, 0, 171)"/>
<path fill-rule="evenodd" fill="rgb(0%, 0%, 0%)" fill-opacity="1" d="M 37.625 73.25 L 61.625 73.25 L 61.625 97.25 L 37.625 97.25 L 37.625 73.25 "/>
<path fill="none" stroke-width="10" stroke-linecap="butt" stroke-linejoin="miter" stroke="rgb(0%, 0%, 0%)" stroke-opacity="1" stroke-miterlimit="4" d="M 376.25 977.5 L 616.25 977.5 L 616.25 737.5 L 376.25 737.5 Z M 376.25 977.5 " transform="matrix(0.1, 0, 0, -0.1, 0, 171)"/>
<path fill-rule="evenodd" fill="rgb(0%, 0%, 0%)" fill-opacity="1" d="M 73.25 73.25 L 97.25 73.25 L 97.25 97.25 L 73.25 97.25 L 73.25 73.25 "/>
<path fill="none" stroke-width="10" stroke-linecap="butt" stroke-linejoin="miter" stroke="rgb(0%, 0%, 0%)" stroke-opacity="1" stroke-miterlimit="4" d="M 732.5 977.5 L 972.5 977.5 L 972.5 737.5 L 732.5 737.5 Z M 732.5 977.5 " transform="matrix(0.1, 0, 0, -0.1, 0, 171)"/>
<path fill-rule="evenodd" fill="rgb(0%, 0%, 0%)" fill-opacity="1" d="M 108.875 73.25 L 132.875 73.25 L 132.875 97.25 L 108.875 97.25 L 108.875 73.25 "/>
<path fill="none" stroke-width="10" stroke-linecap="butt" stroke-linejoin="miter" stroke="rgb(0%, 0%, 0%)" stroke-opacity="1" stroke-miterlimit="4" d="M 1088.75 977.5 L 1328.75 977.5 L 1328.75 737.5 L 1088.75 737.5 Z M 1088.75 977.5 " transform="matrix(0.1, 0, 0, -0.1, 0, 171)"/>
<path fill-rule="evenodd" fill="rgb(0%, 0%, 0%)" fill-opacity="1" d="M 144.5 73.25 L 168.5 73.25 L 168.5 97.25 L 144.5 97.25 L 144.5 73.25 "/>
<path fill="none" stroke-width="10" stroke-linecap="butt" stroke-linejoin="miter" stroke="rgb(0%, 0%, 0%)" stroke-opacity="1" stroke-miterlimit="4" d="M 1445 977.5 L 1685 977.5 L 1685 737.5 L 1445 737.5 Z M 1445 977.5 " transform="matrix(0.1, 0, 0, -0.1, 0, 171)"/>
<path fill-rule="evenodd" fill="rgb(0%, 0%, 0%)" fill-opacity="1" d="M 2 109.25 L 26 109.25 L 26 133.25 L 2 133.25 L 2 109.25 "/>
<path fill="none" stroke-width="10" stroke-linecap="butt" stroke-linejoin="miter" stroke="rgb(0%, 0%, 0%)" stroke-opacity="1" stroke-miterlimit="4" d="M 20 617.5 L 260 617.5 L 260 377.5 L 20 377.5 Z M 20 617.5 " transform="matrix(0.1, 0, 0, -0.1, 0, 171)"/>
<path fill-rule="evenodd" fill="rgb(0%, 0%, 0%)" fill-opacity="1" d="M 37.625 109.25 L 61.625 109.25 L 61.625 133.25 L 37.625 133.25 L 37.625 109.25 "/>
<path fill="none" stroke-width="10" stroke-linecap="butt" stroke-linejoin="miter" stroke="rgb(0%, 0%, 0%)" stroke-opacity="1" stroke-miterlimit="4" d="M 376.25 617.5 L 616.25 617.5 L 616.25 377.5 L 376.25 377.5 Z M 376.25 617.5 " transform="matrix(0.1, 0, 0, -0.1, 0, 171)"/>
<path fill-rule="evenodd" fill="rgb(0%, 0%, 0%)" fill-opacity="1" d="M 73.25 109.25 L 97.25 109.25 L 97.25 133.25 L 73.25 133.25 L 73.25 109.25 "/>
<path fill="none" stroke-width="10" stroke-linecap="butt" stroke-linejoin="miter" stroke="rgb(0%, 0%, 0%)" stroke-opacity="1" stroke-miterlimit="4" d="M 732.5 617.5 L 972.5 617.5 L 972.5 377.5 L 732.5 377.5 Z M 732.5 617.5 " transform="matrix(0.1, 0, 0, -0.1, 0, 171)"/>
<path fill-rule="evenodd" fill="rgb(0%, 0%, 0%)" fill-opacity="1" d="M 108.875 109.25 L 132.875 109.25 L 132.875 133.25 L 108.875 133.25 L 108.875 109.25 "/>
<path fill="none" stroke-width="10" stroke-linecap="butt" stroke-linejoin="miter" stroke="rgb(0%, 0%, 0%)" stroke-opacity="1" stroke-miterlimit="4" d="M 1088.75 617.5 L 1328.75 617.5 L 1328.75 377.5 L 1088.75 377.5 Z M 1088.75 617.5 " transform="matrix(0.1, 0, 0, -0.1, 0, 171)"/>
<path fill-rule="evenodd" fill="rgb(0%, 0%, 0%)" fill-opacity="1" d="M 144.5 109.25 L 168.5 109.25 L 168.5 133.25 L 144.5 133.25 L 144.5 109.25 "/>
<path fill="none" stroke-width="10" stroke-linecap="butt" stroke-linejoin="miter" stroke="rgb(0%, 0%, 0%)" stroke-opacity="1" stroke-miterlimit="4" d="M 1445 617.5 L 1685 617.5 L 1685 377.5 L 1445 377.5 Z M 1445 617.5 " transform="matrix(0.1, 0, 0, -0.1, 0, 171)"/>
<path fill-rule="evenodd" fill="rgb(0%, 0%, 0%)" fill-opacity="1" d="M 2 145.25 L 26 145.25 L 26 169.25 L 2 169.25 L 2 145.25 "/>
<path fill="none" stroke-width="10" stroke-linecap="butt" stroke-linejoin="miter" stroke="rgb(0%, 0%, 0%)" stroke-opacity="1" stroke-miterlimit="4" d="M 20 257.5 L 260 257.5 L 260 17.5 L 20 17.5 Z M 20 257.5 " transform="matrix(0.1, 0, 0, -0.1, 0, 171)"/>
<path fill-rule="evenodd" fill="rgb(0%, 0%, 0%)" fill-opacity="1" d="M 37.625 145.25 L 61.625 145.25 L 61.625 169.25 L 37.625 169.25 L 37.625 145.25 "/>
<path fill="none" stroke-width="10" stroke-linecap="butt" stroke-linejoin="miter" stroke="rgb(0%, 0%, 0%)" stroke-opacity="1" stroke-miterlimit="4" d="M 376.25 257.5 L 616.25 257.5 L 616.25 17.5 L 376.25 17.5 Z M 376.25 257.5 " transform="matrix(0.1, 0, 0, -0.1, 0, 171)"/>
<path fill-rule="evenodd" fill="rgb(0%, 0%, 0%)" fill-opacity="1" d="M 73.25 145.25 L 97.25 145.25 L 97.25 169.25 L 73.25 169.25 L 73.25 145.25 "/>
<path fill="none" stroke-width="10" stroke-linecap="butt" stroke-linejoin="miter" stroke="rgb(0%, 0%, 0%)" stroke-opacity="1" stroke-miterlimit="4" d="M 732.5 257.5 L 972.5 257.5 L 972.5 17.5 L 732.5 17.5 Z M 732.5 257.5 " transform="matrix(0.1, 0, 0, -0.1, 0, 171)"/>
<path fill-rule="evenodd" fill="rgb(0%, 0%, 0%)" fill-opacity="1" d="M 108.875 145.25 L 132.875 145.25 L 132.875 169.25 L 108.875 169.25 L 108.875 145.25 "/>
<path fill="none" stroke-width="10" stroke-linecap="butt" stroke-linejoin="miter" stroke="rgb(0%, 0%, 0%)" stroke-opacity="1" stroke-miterlimit="4" d="M 1088.75 257.5 L 1328.75 257.5 L 1328.75 17.5 L 1088.75 17.5 Z M 1088.75 257.5 " transform="matrix(0.1, 0, 0, -0.1, 0, 171)"/>
<path fill-rule="evenodd" fill="rgb(0%, 0%, 0%)" fill-opacity="1" d="M 144.5 145.25 L 168.5 145.25 L 168.5 169.25 L 144.5 169.25 L 144.5 145.25 "/>
<path fill="none" stroke-width="10" stroke-linecap="butt" stroke-linejoin="miter" stroke="rgb(0%, 0%, 0%)" stroke-opacity="1" stroke-miterlimit="4" d="M 1445 257.5 L 1685 257.5 L 1685 17.5 L 1445 17.5 Z M 1445 257.5 " transform="matrix(0.1, 0, 0, -0.1, 0, 171)"/>
<path fill-rule="evenodd" fill="rgb(100%, 100%, 100%)" fill-opacity="1" d="M 89.5 78.5 L 93 78.5 L 93 82 L 89.5 82 L 89.5 78.5 "/>
<path fill="none" stroke-width="10" stroke-linecap="butt" stroke-linejoin="miter" stroke="rgb(100%, 100%, 100%)" stroke-opacity="1" stroke-miterlimit="4" d="M 895 925 L 930 925 L 930 890 L 895 890 Z M 895 925 " transform="matrix(0.1, 0, 0, -0.1, 0, 171)"/>
<path fill-rule="evenodd" fill="rgb(0%, 0%, 0%)" fill-opacity="1" d="M 100.5 65 L 105 65 L 105 69.5 L 100.5 69.5 L 100.5 65 "/>
<path fill="none" stroke-width="10" stroke-linecap="butt" stroke-linejoin="miter" stroke="rgb(100%, 100%, 100%)" stroke-opacity="1" stroke-miterlimit="4" d="M 1005 1060 L 1050 1060 L 1050 1015 L 1005 1015 Z M 1005 1060 " transform="matrix(0.1, 0, 0, -0.1, 0, 171)"/>
</svg>
