<?xml version="1.0" encoding="UTF-8"?>
<svg xmlns="http://www.w3.org/2000/svg" xmlns:xlink="http://www.w3.org/1999/xlink" width="400.06" height="74" viewBox="0 0 400.06 74">
<path fill="none" stroke-width="5" stroke-linecap="round" stroke-linejoin="round" stroke="rgb(0%, 0%, 0%)" stroke-opacity="1" stroke-miterlimit="10" d="M 449.882713 370 L 449.882713 370 " transform="matrix(0.0997656, 0, 0, -0.0997656, -0.000000000000008993, 73.913267)"/>
<path fill="none" stroke-width="70.4742" stroke-linecap="round" stroke-linejoin="round" stroke="rgb(100%, 0%, 0%)" stroke-opacity="1" stroke-miterlimit="10" d="M 449.882713 370 L 449.882713 370 " transform="matrix(0.0997656, 0, 0, -0.0997656, -0.000000000000008993, 73.913267)"/>
<path fill="none" stroke-width="70.4742" stroke-linecap="round" stroke-linejoin="round" stroke="rgb(100%, 0%, 0%)" stroke-opacity="1" stroke-miterlimit="10" d="M 449.882713 370 L 449.882713 370 " transform="matrix(0.0997656, 0, 0, -0.0997656, -0.000000000000008993, 73.913267)"/>
<path fill="none" stroke-width="70.4742" stroke-linecap="round" stroke-linejoin="round" stroke="rgb(100%, 0%, 0%)" stroke-opacity="1" stroke-miterlimit="10" d="M 449.882713 370 L 449.882713 370 " transform="matrix(0.0997656, 0, 0, -0.0997656, -0.000000000000008993, 73.913267)"/>
<path fill="none" stroke-width="70.4742" stroke-linecap="round" stroke-linejoin="round" stroke="rgb(100%, 0%, 0%)" stroke-opacity="1" stroke-miterlimit="10" d="M 449.882713 370 L 449.882713 370 " transform="matrix(0.0997656, 0, 0, -0.0997656, -0.000000000000008993, 73.913267)"/>
<path fill="none" stroke-width="70.4742" stroke-linecap="round" stroke-linejoin="round" stroke="rgb(100%, 0%, 0%)" stroke-opacity="1" stroke-miterlimit="10" d="M 449.882713 370 L 449.882713 370 " transform="matrix(0.0997656, 0, 0, -0.0997656, -0.000000000000008993, 73.913267)"/>
<path fill="none" stroke-width="5" stroke-linecap="round" stroke-linejoin="round" stroke="rgb(0%, 0%, 0%)" stroke-opacity="1" stroke-miterlimit="10" d="M 1543.970846 370 L 1543.970846 370 " transform="matrix(0.0997656, 0, 0, -0.0997656, -0.000000000000008993, 73.913267)"/>
<path fill="none" stroke-width="5" stroke-linecap="round" stroke-linejoin="round" stroke="rgb(0%, 0%, 0%)" stroke-opacity="1" stroke-miterlimit="10" d="M 1543.970846 370 L 1384.534605 646.155159 L 1065.662123 646.155159 L 906.225883 370 L 1065.662123 93.805687 L 1384.534605 93.805687 L 1543.970846 370 " transform="matrix(0.0997656, 0, 0, -0.0997656, -0.000000000000008993, 73.913267)"/>
<path fill="none" stroke-width="66.9667" stroke-linecap="round" stroke-linejoin="round" stroke="rgb(100%, 0%, 0%)" stroke-opacity="1" stroke-miterlimit="10" d="M 1543.970846 370 L 1543.970846 370 " transform="matrix(0.0997656, 0, 0, -0.0997656, -0.000000000000008993, 73.913267)"/>
<path fill="none" stroke-width="66.9667" stroke-linecap="round" stroke-linejoin="round" stroke="rgb(100%, 0%, 0%)" stroke-opacity="1" stroke-miterlimit="10" d="M 1543.970846 370 L 1543.970846 370 " transform="matrix(0.0997656, 0, 0, -0.0997656, -0.000000000000008993, 73.913267)"/>
<path fill="none" stroke-width="66.9667" stroke-linecap="round" stroke-linejoin="round" stroke="rgb(100%, 0%, 0%)" stroke-opacity="1" stroke-miterlimit="10" d="M 1543.970846 370 L 1543.970846 370 " transform="matrix(0.0997656, 0, 0, -0.0997656, -0.000000000000008993, 73.913267)"/>
<path fill="none" stroke-width="66.9667" stroke-linecap="round" stroke-linejoin="round" stroke="rgb(100%, 0%, 0%)" stroke-opacity="1" stroke-miterlimit="10" d="M 1543.970846 370 L 1543.970846 370 " transform="matrix(0.0997656, 0, 0, -0.0997656, -0.000000000000008993, 73.913267)"/>
<path fill="none" stroke-width="66.9667" stroke-linecap="round" stroke-linejoin="round" stroke="rgb(100%, 0%, 0%)" stroke-opacity="1" stroke-miterlimit="10" d="M 1543.970846 370 L 1543.970846 370 " transform="matrix(0.0997656, 0, 0, -0.0997656, -0.000000000000008993, 73.913267)"/>
<path fill="none" stroke-width="66.9667" stroke-linecap="round" stroke-linejoin="round" stroke="rgb(100%, 0%, 0%)" stroke-opacity="1" stroke-miterlimit="10" d="M 1384.534605 646.155159 L 1384.534605 646.155159 " transform="matrix(0.0997656, 0, 0, -0.0997656, -0.000000000000008993, 73.913267)"/>
<path fill="none" stroke-width="66.9667" stroke-linecap="round" stroke-linejoin="round" stroke="rgb(100%, 0%, 0%)" stroke-opacity="1" stroke-miterlimit="10" d="M 1065.662123 646.155159 L 1065.662123 646.155159 " transform="matrix(0.0997656, 0, 0, -0.0997656, -0.000000000000008993, 73.913267)"/>
<path fill="none" stroke-width="66.9667" stroke-linecap="round" stroke-linejoin="round" stroke="rgb(100%, 0%, 0%)" stroke-opacity="1" stroke-miterlimit="10" d="M 906.225883 370 L 906.225883 370 " transform="matrix(0.0997656, 0, 0, -0.0997656, -0.000000000000008993, 73.913267)"/>
<path fill="none" stroke-width="66.9667" stroke-linecap="round" stroke-linejoin="round" stroke="rgb(100%, 0%, 0%)" stroke-opacity="1" stroke-miterlimit="10" d="M 1065.662123 93.805687 L 1065.662123 93.805687 " transform="matrix(0.0997656, 0, 0, -0.0997656, -0.000000000000008993, 73.913267)"/>
<path fill="none" stroke-width="66.9667" stroke-linecap="round" stroke-linejoin="round" stroke="rgb(100%, 0%, 0%)" stroke-opacity="1" stroke-miterlimit="10" d="M 1384.534605 93.805687 L 1384.534605 93.805687 " transform="matrix(0.0997656, 0, 0, -0.0997656, -0.000000000000008993, 73.913267)"/>
<path fill="none" stroke-width="5" stroke-linecap="round" stroke-linejoin="round" stroke="rgb(0%, 0%, 0%)" stroke-opacity="1" stroke-miterlimit="10" d="M 2319.186497 370 L 2319.186497 370 " transform="matrix(0.0997656, 0, 0, -0.0997656, -0.000000000000008993, 73.913267)"/>
<path fill="none" stroke-width="5" stroke-linecap="round" stroke-linejoin="round" stroke="rgb(0%, 0%, 0%)" stroke-opacity="1" stroke-miterlimit="10" d="M 2319.186497 370 L 2239.468377 508.058002 L 2080.032136 508.058002 L 2000.314015 370 L 2080.032136 231.902843 L 2239.468377 231.902843 L 2319.186497 370 " transform="matrix(0.0997656, 0, 0, -0.0997656, -0.000000000000008993, 73.913267)"/>
<path fill="none" stroke-width="5" stroke-linecap="round" stroke-linejoin="round" stroke="rgb(0%, 0%, 0%)" stroke-opacity="1" stroke-miterlimit="10" d="M 2319.186497 370 L 2159.750256 646.155159 L 1840.877775 646.155159 L 1681.441534 370 L 1840.877775 93.805687 L 2159.750256 93.805687 L 2319.186497 370 " transform="matrix(0.0997656, 0, 0, -0.0997656, -0.000000000000008993, 73.913267)"/>
<path fill="none" stroke-width="66.9663" stroke-linecap="round" stroke-linejoin="round" stroke="rgb(100%, 0%, 0%)" stroke-opacity="1" stroke-miterlimit="10" d="M 2319.186497 370 L 2319.186497 370 " transform="matrix(0.0997656, 0, 0, -0.0997656, -0.000000000000008993, 73.913267)"/>
<path fill="none" stroke-width="66.9663" stroke-linecap="round" stroke-linejoin="round" stroke="rgb(100%, 0%, 0%)" stroke-opacity="1" stroke-miterlimit="10" d="M 2319.186497 370 L 2319.186497 370 " transform="matrix(0.0997656, 0, 0, -0.0997656, -0.000000000000008993, 73.913267)"/>
<path fill="none" stroke-width="66.9663" stroke-linecap="round" stroke-linejoin="round" stroke="rgb(100%, 0%, 0%)" stroke-opacity="1" stroke-miterlimit="10" d="M 2319.186497 370 L 2319.186497 370 " transform="matrix(0.0997656, 0, 0, -0.0997656, -0.000000000000008993, 73.913267)"/>
<path fill="none" stroke-width="66.9663" stroke-linecap="round" stroke-linejoin="round" stroke="rgb(100%, 0%, 0%)" stroke-opacity="1" stroke-miterlimit="10" d="M 2319.186497 370 L 2319.186497 370 " transform="matrix(0.0997656, 0, 0, -0.0997656, -0.000000000000008993, 73.913267)"/>
<path fill="none" stroke-width="66.9663" stroke-linecap="round" stroke-linejoin="round" stroke="rgb(100%, 0%, 0%)" stroke-opacity="1" stroke-miterlimit="10" d="M 2319.186497 370 L 2319.186497 370 " transform="matrix(0.0997656, 0, 0, -0.0997656, -0.000000000000008993, 73.913267)"/>
<path fill="none" stroke-width="66.9663" stroke-linecap="round" stroke-linejoin="round" stroke="rgb(100%, 0%, 0%)" stroke-opacity="1" stroke-miterlimit="10" d="M 2239.468377 508.058002 L 2239.468377 508.058002 " transform="matrix(0.0997656, 0, 0, -0.0997656, -0.000000000000008993, 73.913267)"/>
<path fill="none" stroke-width="66.9663" stroke-linecap="round" stroke-linejoin="round" stroke="rgb(100%, 0%, 0%)" stroke-opacity="1" stroke-miterlimit="10" d="M 2080.032136 508.058002 L 2080.032136 508.058002 " transform="matrix(0.0997656, 0, 0, -0.0997656, -0.000000000000008993, 73.913267)"/>
<path fill="none" stroke-width="66.9663" stroke-linecap="round" stroke-linejoin="round" stroke="rgb(100%, 0%, 0%)" stroke-opacity="1" stroke-miterlimit="10" d="M 2000.314015 370 L 2000.314015 370 " transform="matrix(0.0997656, 0, 0, -0.0997656, -0.000000000000008993, 73.913267)"/>
<path fill="none" stroke-width="66.9663" stroke-linecap="round" stroke-linejoin="round" stroke="rgb(100%, 0%, 0%)" stroke-opacity="1" stroke-miterlimit="10" d="M 2080.032136 231.902843 L 2080.032136 231.902843 " transform="matrix(0.0997656, 0, 0, -0.0997656, -0.000000000000008993, 73.913267)"/>
<path fill="none" stroke-width="66.9663" stroke-linecap="round" stroke-linejoin="round" stroke="rgb(100%, 0%, 0%)" stroke-opacity="1" stroke-miterlimit="10" d="M 2239.468377 231.902843 L 2239.468377 231.902843 " transform="matrix(0.0997656, 0, 0, -0.0997656, -0.000000000000008993, 73.913267)"/>
<path fill="none" stroke-width="66.9663" stroke-linecap="round" stroke-linejoin="round" stroke="rgb(100%, 0%, 0%)" stroke-opacity="1" stroke-miterlimit="10" d="M 2159.750256 646.155159 L 2159.750256 646.155159 " transform="matrix(0.0997656, 0, 0, -0.0997656, -0.000000000000008993, 73.913267)"/>
<path fill="none" stroke-width="66.9663" stroke-linecap="round" stroke-linejoin="round" stroke="rgb(100%, 0%, 0%)" stroke-opacity="1" stroke-miterlimit="10" d="M 1840.877775 646.155159 L 1840.877775 646.155159 " transform="matrix(0.0997656, 0, 0, -0.0997656, -0.000000000000008993, 73.913267)"/>
<path fill="none" stroke-width="66.9663" stroke-linecap="round" stroke-linejoin="round" stroke="rgb(100%, 0%, 0%)" stroke-opacity="1" stroke-miterlimit="10" d="M 1681.441534 370 L 1681.441534 370 " transform="matrix(0.0997656, 0, 0, -0.0997656, -0.000000000000008993, 73.913267)"/>
<path fill="none" stroke-width="66.9663" stroke-linecap="round" stroke-linejoin="round" stroke="rgb(100%, 0%, 0%)" stroke-opacity="1" stroke-miterlimit="10" d="M 1840.877775 93.805687 L 1840.877775 93.805687 " transform="matrix(0.0997656, 0, 0, -0.0997656, -0.000000000000008993, 73.913267)"/>
<path fill="none" stroke-width="66.9663" stroke-linecap="round" stroke-linejoin="round" stroke="rgb(100%, 0%, 0%)" stroke-opacity="1" stroke-miterlimit="10" d="M 2159.750256 93.805687 L 2159.750256 93.805687 " transform="matrix(0.0997656, 0, 0, -0.0997656, -0.000000000000008993, 73.913267)"/>
<path fill="none" stroke-width="66.9663" stroke-linecap="round" stroke-linejoin="round" stroke="rgb(100%, 0%, 0%)" stroke-opacity="1" stroke-miterlimit="10" d="M 2000.314015 646.155159 L 2000.314015 646.155159 " transform="matrix(0.0997656, 0, 0, -0.0997656, -0.000000000000008993, 73.913267)"/>
<path fill="none" stroke-width="66.9663" stroke-linecap="round" stroke-linejoin="round" stroke="rgb(100%, 0%, 0%)" stroke-opacity="1" stroke-miterlimit="10" d="M 1761.159654 508.058002 L 1761.159654 508.058002 " transform="matrix(0.0997656, 0, 0, -0.0997656, -0.000000000000008993, 73.913267)"/>
<path fill="none" stroke-width="66.9663" stroke-linecap="round" stroke-linejoin="round" stroke="rgb(100%, 0%, 0%)" stroke-opacity="1" stroke-miterlimit="10" d="M 1761.159654 231.902843 L 1761.159654 231.902843 " transform="matrix(0.0997656, 0, 0, -0.0997656, -0.000000000000008993, 73.913267)"/>
<path fill="none" stroke-width="66.9663" stroke-linecap="round" stroke-linejoin="round" stroke="rgb(100%, 0%, 0%)" stroke-opacity="1" stroke-miterlimit="10" d="M 2000.314015 93.805687 L 2000.314015 93.805687 " transform="matrix(0.0997656, 0, 0, -0.0997656, -0.000000000000008993, 73.913267)"/>
<path fill="none" stroke-width="5" stroke-linecap="round" stroke-linejoin="round" stroke="rgb(0%, 0%, 0%)" stroke-opacity="1" stroke-miterlimit="10" d="M 3094.402148 370 L 3094.402148 370 " transform="matrix(0.0997656, 0, 0, -0.0997656, -0.000000000000008993, 73.913267)"/>
<path fill="none" stroke-width="5" stroke-linecap="round" stroke-linejoin="round" stroke="rgb(0%, 0%, 0%)" stroke-opacity="1" stroke-miterlimit="10" d="M 3094.402148 370 L 3041.269786 462.05172 L 2934.965907 462.05172 L 2881.833545 370 L 2934.965907 277.94828 L 3041.269786 277.94828 L 3094.402148 370 " transform="matrix(0.0997656, 0, 0, -0.0997656, -0.000000000000008993, 73.913267)"/>
<path fill="none" stroke-width="5" stroke-linecap="round" stroke-linejoin="round" stroke="rgb(0%, 0%, 0%)" stroke-opacity="1" stroke-miterlimit="10" d="M 3094.402148 370 L 2988.137424 554.103439 L 2775.529667 554.103439 L 2669.225788 370 L 2775.529667 185.857407 L 2988.137424 185.857407 L 3094.402148 370 " transform="matrix(0.0997656, 0, 0, -0.0997656, -0.000000000000008993, 73.913267)"/>
<path fill="none" stroke-width="5" stroke-linecap="round" stroke-linejoin="round" stroke="rgb(0%, 0%, 0%)" stroke-opacity="1" stroke-miterlimit="10" d="M 3094.402148 370 L 2934.965907 646.155159 L 2616.093426 646.155159 L 2456.657185 370 L 2616.093426 93.805687 L 2934.965907 93.805687 L 3094.402148 370 " transform="matrix(0.0997656, 0, 0, -0.0997656, -0.000000000000008993, 73.913267)"/>
<path fill="none" stroke-width="66.9667" stroke-linecap="round" stroke-linejoin="round" stroke="rgb(100%, 0%, 0%)" stroke-opacity="1" stroke-miterlimit="10" d="M 3094.402148 370 L 3094.402148 370 " transform="matrix(0.0997656, 0, 0, -0.0997656, -0.000000000000008993, 73.913267)"/>
<path fill="none" stroke-width="66.9667" stroke-linecap="round" stroke-linejoin="round" stroke="rgb(100%, 0%, 0%)" stroke-opacity="1" stroke-miterlimit="10" d="M 3094.402148 370 L 3094.402148 370 " transform="matrix(0.0997656, 0, 0, -0.0997656, -0.000000000000008993, 73.913267)"/>
<path fill="none" stroke-width="66.9667" stroke-linecap="round" stroke-linejoin="round" stroke="rgb(100%, 0%, 0%)" stroke-opacity="1" stroke-miterlimit="10" d="M 3094.402148 370 L 3094.402148 370 " transform="matrix(0.0997656, 0, 0, -0.0997656, -0.000000000000008993, 73.913267)"/>
<path fill="none" stroke-width="66.9667" stroke-linecap="round" stroke-linejoin="round" stroke="rgb(100%, 0%, 0%)" stroke-opacity="1" stroke-miterlimit="10" d="M 3094.402148 370 L 3094.402148 370 " transform="matrix(0.0997656, 0, 0, -0.0997656, -0.000000000000008993, 73.913267)"/>
<path fill="none" stroke-width="66.9667" stroke-linecap="round" stroke-linejoin="round" stroke="rgb(100%, 0%, 0%)" stroke-opacity="1" stroke-miterlimit="10" d="M 3094.402148 370 L 3094.402148 370 " transform="matrix(0.0997656, 0, 0, -0.0997656, -0.000000000000008993, 73.913267)"/>
<path fill="none" stroke-width="66.9667" stroke-linecap="round" stroke-linejoin="round" stroke="rgb(100%, 0%, 0%)" stroke-opacity="1" stroke-miterlimit="10" d="M 3041.269786 462.05172 L 3041.269786 462.05172 " transform="matrix(0.0997656, 0, 0, -0.0997656, -0.000000000000008993, 73.913267)"/>
<path fill="none" stroke-width="66.9667" stroke-linecap="round" stroke-linejoin="round" stroke="rgb(100%, 0%, 0%)" stroke-opacity="1" stroke-miterlimit="10" d="M 2934.965907 462.05172 L 2934.965907 462.05172 " transform="matrix(0.0997656, 0, 0, -0.0997656, -0.000000000000008993, 73.913267)"/>
<path fill="none" stroke-width="66.9667" stroke-linecap="round" stroke-linejoin="round" stroke="rgb(100%, 0%, 0%)" stroke-opacity="1" stroke-miterlimit="10" d="M 2881.833545 370 L 2881.833545 370 " transform="matrix(0.0997656, 0, 0, -0.0997656, -0.000000000000008993, 73.913267)"/>
<path fill="none" stroke-width="66.9667" stroke-linecap="round" stroke-linejoin="round" stroke="rgb(100%, 0%, 0%)" stroke-opacity="1" stroke-miterlimit="10" d="M 2934.965907 277.94828 L 2934.965907 277.94828 " transform="matrix(0.0997656, 0, 0, -0.0997656, -0.000000000000008993, 73.913267)"/>
<path fill="none" stroke-width="66.9667" stroke-linecap="round" stroke-linejoin="round" stroke="rgb(100%, 0%, 0%)" stroke-opacity="1" stroke-miterlimit="10" d="M 3041.269786 277.94828 L 3041.269786 277.94828 " transform="matrix(0.0997656, 0, 0, -0.0997656, -0.000000000000008993, 73.913267)"/>
<path fill="none" stroke-width="66.9667" stroke-linecap="round" stroke-linejoin="round" stroke="rgb(100%, 0%, 0%)" stroke-opacity="1" stroke-miterlimit="10" d="M 2988.137424 554.103439 L 2988.137424 554.103439 " transform="matrix(0.0997656, 0, 0, -0.0997656, -0.000000000000008993, 73.913267)"/>
<path fill="none" stroke-width="66.9667" stroke-linecap="round" stroke-linejoin="round" stroke="rgb(100%, 0%, 0%)" stroke-opacity="1" stroke-miterlimit="10" d="M 2775.529667 554.103439 L 2775.529667 554.103439 " transform="matrix(0.0997656, 0, 0, -0.0997656, -0.000000000000008993, 73.913267)"/>
<path fill="none" stroke-width="66.9667" stroke-linecap="round" stroke-linejoin="round" stroke="rgb(100%, 0%, 0%)" stroke-opacity="1" stroke-miterlimit="10" d="M 2669.225788 370 L 2669.225788 370 " transform="matrix(0.0997656, 0, 0, -0.0997656, -0.000000000000008993, 73.913267)"/>
<path fill="none" stroke-width="66.9667" stroke-linecap="round" stroke-linejoin="round" stroke="rgb(100%, 0%, 0%)" stroke-opacity="1" stroke-miterlimit="10" d="M 2775.529667 185.857407 L 2775.529667 185.857407 " transform="matrix(0.0997656, 0, 0, -0.0997656, -0.000000000000008993, 73.913267)"/>
<path fill="none" stroke-width="66.9667" stroke-linecap="round" stroke-linejoin="round" stroke="rgb(100%, 0%, 0%)" stroke-opacity="1" stroke-miterlimit="10" d="M 2988.137424 185.857407 L 2988.137424 185.857407 " transform="matrix(0.0997656, 0, 0, -0.0997656, -0.000000000000008993, 73.913267)"/>
<path fill="none" stroke-width="66.9667" stroke-linecap="round" stroke-linejoin="round" stroke="rgb(100%, 0%, 0%)" stroke-opacity="1" stroke-miterlimit="10" d="M 2881.833545 554.103439 L 2881.833545 554.103439 " transform="matrix(0.0997656, 0, 0, -0.0997656, -0.000000000000008993, 73.913267)"/>
<path fill="none" stroke-width="66.9667" stroke-linecap="round" stroke-linejoin="round" stroke="rgb(100%, 0%, 0%)" stroke-opacity="1" stroke-miterlimit="10" d="M 2722.397304 462.05172 L 2722.397304 462.05172 " transform="matrix(0.0997656, 0, 0, -0.0997656, -0.000000000000008993, 73.913267)"/>
<path fill="none" stroke-width="66.9667" stroke-linecap="round" stroke-linejoin="round" stroke="rgb(100%, 0%, 0%)" stroke-opacity="1" stroke-miterlimit="10" d="M 2722.397304 277.94828 L 2722.397304 277.94828 " transform="matrix(0.0997656, 0, 0, -0.0997656, -0.000000000000008993, 73.913267)"/>
<path fill="none" stroke-width="66.9667" stroke-linecap="round" stroke-linejoin="round" stroke="rgb(100%, 0%, 0%)" stroke-opacity="1" stroke-miterlimit="10" d="M 2881.833545 185.857407 L 2881.833545 185.857407 " transform="matrix(0.0997656, 0, 0, -0.0997656, -0.000000000000008993, 73.913267)"/>
<path fill="none" stroke-width="66.9667" stroke-linecap="round" stroke-linejoin="round" stroke="rgb(100%, 0%, 0%)" stroke-opacity="1" stroke-miterlimit="10" d="M 2934.965907 646.155159 L 2934.965907 646.155159 " transform="matrix(0.0997656, 0, 0, -0.0997656, -0.000000000000008993, 73.913267)"/>
<path fill="none" stroke-width="66.9667" stroke-linecap="round" stroke-linejoin="round" stroke="rgb(100%, 0%, 0%)" stroke-opacity="1" stroke-miterlimit="10" d="M 2616.093426 646.155159 L 2616.093426 646.155159 " transform="matrix(0.0997656, 0, 0, -0.0997656, -0.000000000000008993, 73.913267)"/>
<path fill="none" stroke-width="66.9667" stroke-linecap="round" stroke-linejoin="round" stroke="rgb(100%, 0%, 0%)" stroke-opacity="1" stroke-miterlimit="10" d="M 2456.657185 370 L 2456.657185 370 " transform="matrix(0.0997656, 0, 0, -0.0997656, -0.000000000000008993, 73.913267)"/>
<path fill="none" stroke-width="66.9667" stroke-linecap="round" stroke-linejoin="round" stroke="rgb(100%, 0%, 0%)" stroke-opacity="1" stroke-miterlimit="10" d="M 2616.093426 93.805687 L 2616.093426 93.805687 " transform="matrix(0.0997656, 0, 0, -0.0997656, -0.000000000000008993, 73.913267)"/>
<path fill="none" stroke-width="66.9667" stroke-linecap="round" stroke-linejoin="round" stroke="rgb(100%, 0%, 0%)" stroke-opacity="1" stroke-miterlimit="10" d="M 2934.965907 93.805687 L 2934.965907 93.805687 " transform="matrix(0.0997656, 0, 0, -0.0997656, -0.000000000000008993, 73.913267)"/>
<path fill="none" stroke-width="66.9667" stroke-linecap="round" stroke-linejoin="round" stroke="rgb(100%, 0%, 0%)" stroke-opacity="1" stroke-miterlimit="10" d="M 2722.397304 646.155159 L 2722.397304 646.155159 " transform="matrix(0.0997656, 0, 0, -0.0997656, -0.000000000000008993, 73.913267)"/>
<path fill="none" stroke-width="66.9667" stroke-linecap="round" stroke-linejoin="round" stroke="rgb(100%, 0%, 0%)" stroke-opacity="1" stroke-miterlimit="10" d="M 2509.789547 462.05172 L 2509.789547 462.05172 " transform="matrix(0.0997656, 0, 0, -0.0997656, -0.000000000000008993, 73.913267)"/>
<path fill="none" stroke-width="66.9667" stroke-linecap="round" stroke-linejoin="round" stroke="rgb(100%, 0%, 0%)" stroke-opacity="1" stroke-miterlimit="10" d="M 2562.921909 185.857407 L 2562.921909 185.857407 " transform="matrix(0.0997656, 0, 0, -0.0997656, -0.000000000000008993, 73.913267)"/>
<path fill="none" stroke-width="66.9667" stroke-linecap="round" stroke-linejoin="round" stroke="rgb(100%, 0%, 0%)" stroke-opacity="1" stroke-miterlimit="10" d="M 2828.662029 93.805687 L 2828.662029 93.805687 " transform="matrix(0.0997656, 0, 0, -0.0997656, -0.000000000000008993, 73.913267)"/>
<path fill="none" stroke-width="66.9667" stroke-linecap="round" stroke-linejoin="round" stroke="rgb(100%, 0%, 0%)" stroke-opacity="1" stroke-miterlimit="10" d="M 2828.662029 646.155159 L 2828.662029 646.155159 " transform="matrix(0.0997656, 0, 0, -0.0997656, -0.000000000000008993, 73.913267)"/>
<path fill="none" stroke-width="66.9667" stroke-linecap="round" stroke-linejoin="round" stroke="rgb(100%, 0%, 0%)" stroke-opacity="1" stroke-miterlimit="10" d="M 2562.921909 554.103439 L 2562.921909 554.103439 " transform="matrix(0.0997656, 0, 0, -0.0997656, -0.000000000000008993, 73.913267)"/>
<path fill="none" stroke-width="66.9667" stroke-linecap="round" stroke-linejoin="round" stroke="rgb(100%, 0%, 0%)" stroke-opacity="1" stroke-miterlimit="10" d="M 2509.789547 277.94828 L 2509.789547 277.94828 " transform="matrix(0.0997656, 0, 0, -0.0997656, -0.000000000000008993, 73.913267)"/>
<path fill="none" stroke-width="66.9667" stroke-linecap="round" stroke-linejoin="round" stroke="rgb(100%, 0%, 0%)" stroke-opacity="1" stroke-miterlimit="10" d="M 2722.397304 93.805687 L 2722.397304 93.805687 " transform="matrix(0.0997656, 0, 0, -0.0997656, -0.000000000000008993, 73.913267)"/>
<path fill="none" stroke-width="5" stroke-linecap="round" stroke-linejoin="round" stroke="rgb(0%, 0%, 0%)" stroke-opacity="1" stroke-miterlimit="10" d="M 3869.656954 370 L 3869.656954 370 " transform="matrix(0.0997656, 0, 0, -0.0997656, -0.000000000000008993, 73.913267)"/>
<path fill="none" stroke-width="5" stroke-linecap="round" stroke-linejoin="round" stroke="rgb(0%, 0%, 0%)" stroke-opacity="1" stroke-miterlimit="10" d="M 3869.656954 370 L 3829.797894 439.029001 L 3750.040619 439.029001 L 3710.181559 370 L 3750.040619 300.931845 L 3829.797894 300.931845 L 3869.656954 370 " transform="matrix(0.0997656, 0, 0, -0.0997656, -0.000000000000008993, 73.913267)"/>
<path fill="none" stroke-width="5" stroke-linecap="round" stroke-linejoin="round" stroke="rgb(0%, 0%, 0%)" stroke-opacity="1" stroke-miterlimit="10" d="M 3869.656954 370 L 3789.899679 508.058002 L 3630.463438 508.058002 L 3550.745318 370 L 3630.463438 231.902843 L 3789.899679 231.902843 L 3869.656954 370 " transform="matrix(0.0997656, 0, 0, -0.0997656, -0.000000000000008993, 73.913267)"/>
<path fill="none" stroke-width="5" stroke-linecap="round" stroke-linejoin="round" stroke="rgb(0%, 0%, 0%)" stroke-opacity="1" stroke-miterlimit="10" d="M 3869.656954 370 L 3750.040619 577.126158 L 3510.886258 577.126158 L 3391.309077 370 L 3510.886258 162.873842 L 3750.040619 162.873842 L 3869.656954 370 " transform="matrix(0.0997656, 0, 0, -0.0997656, -0.000000000000008993, 73.913267)"/>
<path fill="none" stroke-width="5" stroke-linecap="round" stroke-linejoin="round" stroke="rgb(0%, 0%, 0%)" stroke-opacity="1" stroke-miterlimit="10" d="M 3869.656954 370 L 3710.181559 646.155159 L 3391.309077 646.155159 L 3231.872836 370 L 3391.309077 93.805687 L 3710.181559 93.805687 L 3869.656954 370 " transform="matrix(0.0997656, 0, 0, -0.0997656, -0.000000000000008993, 73.913267)"/>
<path fill="none" stroke-width="66.9663" stroke-linecap="round" stroke-linejoin="round" stroke="rgb(100%, 0%, 0%)" stroke-opacity="1" stroke-miterlimit="10" d="M 3869.656954 370 L 3869.656954 370 " transform="matrix(0.0997656, 0, 0, -0.0997656, -0.000000000000008993, 73.913267)"/>
<path fill="none" stroke-width="66.9663" stroke-linecap="round" stroke-linejoin="round" stroke="rgb(100%, 0%, 0%)" stroke-opacity="1" stroke-miterlimit="10" d="M 3869.656954 370 L 3869.656954 370 " transform="matrix(0.0997656, 0, 0, -0.0997656, -0.000000000000008993, 73.913267)"/>
<path fill="none" stroke-width="66.9663" stroke-linecap="round" stroke-linejoin="round" stroke="rgb(100%, 0%, 0%)" stroke-opacity="1" stroke-miterlimit="10" d="M 3869.656954 370 L 3869.656954 370 " transform="matrix(0.0997656, 0, 0, -0.0997656, -0.000000000000008993, 73.913267)"/>
<path fill="none" stroke-width="66.9663" stroke-linecap="round" stroke-linejoin="round" stroke="rgb(100%, 0%, 0%)" stroke-opacity="1" stroke-miterlimit="10" d="M 3869.656954 370 L 3869.656954 370 " transform="matrix(0.0997656, 0, 0, -0.0997656, -0.000000000000008993, 73.913267)"/>
<path fill="none" stroke-width="66.9663" stroke-linecap="round" stroke-linejoin="round" stroke="rgb(100%, 0%, 0%)" stroke-opacity="1" stroke-miterlimit="10" d="M 3869.656954 370 L 3869.656954 370 " transform="matrix(0.0997656, 0, 0, -0.0997656, -0.000000000000008993, 73.913267)"/>
<path fill="none" stroke-width="66.9663" stroke-linecap="round" stroke-linejoin="round" stroke="rgb(100%, 0%, 0%)" stroke-opacity="1" stroke-miterlimit="10" d="M 3829.797894 439.029001 L 3829.797894 439.029001 " transform="matrix(0.0997656, 0, 0, -0.0997656, -0.000000000000008993, 73.913267)"/>
<path fill="none" stroke-width="66.9663" stroke-linecap="round" stroke-linejoin="round" stroke="rgb(100%, 0%, 0%)" stroke-opacity="1" stroke-miterlimit="10" d="M 3750.040619 439.029001 L 3750.040619 439.029001 " transform="matrix(0.0997656, 0, 0, -0.0997656, -0.000000000000008993, 73.913267)"/>
<path fill="none" stroke-width="66.9663" stroke-linecap="round" stroke-linejoin="round" stroke="rgb(100%, 0%, 0%)" stroke-opacity="1" stroke-miterlimit="10" d="M 3710.181559 370 L 3710.181559 370 " transform="matrix(0.0997656, 0, 0, -0.0997656, -0.000000000000008993, 73.913267)"/>
<path fill="none" stroke-width="66.9663" stroke-linecap="round" stroke-linejoin="round" stroke="rgb(100%, 0%, 0%)" stroke-opacity="1" stroke-miterlimit="10" d="M 3750.040619 300.931845 L 3750.040619 300.931845 " transform="matrix(0.0997656, 0, 0, -0.0997656, -0.000000000000008993, 73.913267)"/>
<path fill="none" stroke-width="66.9663" stroke-linecap="round" stroke-linejoin="round" stroke="rgb(100%, 0%, 0%)" stroke-opacity="1" stroke-miterlimit="10" d="M 3829.797894 300.931845 L 3829.797894 300.931845 " transform="matrix(0.0997656, 0, 0, -0.0997656, -0.000000000000008993, 73.913267)"/>
<path fill="none" stroke-width="66.9663" stroke-linecap="round" stroke-linejoin="round" stroke="rgb(100%, 0%, 0%)" stroke-opacity="1" stroke-miterlimit="10" d="M 3789.899679 508.058002 L 3789.899679 508.058002 " transform="matrix(0.0997656, 0, 0, -0.0997656, -0.000000000000008993, 73.913267)"/>
<path fill="none" stroke-width="66.9663" stroke-linecap="round" stroke-linejoin="round" stroke="rgb(100%, 0%, 0%)" stroke-opacity="1" stroke-miterlimit="10" d="M 3630.463438 508.058002 L 3630.463438 508.058002 " transform="matrix(0.0997656, 0, 0, -0.0997656, -0.000000000000008993, 73.913267)"/>
<path fill="none" stroke-width="66.9663" stroke-linecap="round" stroke-linejoin="round" stroke="rgb(100%, 0%, 0%)" stroke-opacity="1" stroke-miterlimit="10" d="M 3550.745318 370 L 3550.745318 370 " transform="matrix(0.0997656, 0, 0, -0.0997656, -0.000000000000008993, 73.913267)"/>
<path fill="none" stroke-width="66.9663" stroke-linecap="round" stroke-linejoin="round" stroke="rgb(100%, 0%, 0%)" stroke-opacity="1" stroke-miterlimit="10" d="M 3630.463438 231.902843 L 3630.463438 231.902843 " transform="matrix(0.0997656, 0, 0, -0.0997656, -0.000000000000008993, 73.913267)"/>
<path fill="none" stroke-width="66.9663" stroke-linecap="round" stroke-linejoin="round" stroke="rgb(100%, 0%, 0%)" stroke-opacity="1" stroke-miterlimit="10" d="M 3789.899679 231.902843 L 3789.899679 231.902843 " transform="matrix(0.0997656, 0, 0, -0.0997656, -0.000000000000008993, 73.913267)"/>
<path fill="none" stroke-width="66.9663" stroke-linecap="round" stroke-linejoin="round" stroke="rgb(100%, 0%, 0%)" stroke-opacity="1" stroke-miterlimit="10" d="M 3710.181559 508.058002 L 3710.181559 508.058002 " transform="matrix(0.0997656, 0, 0, -0.0997656, -0.000000000000008993, 73.913267)"/>
<path fill="none" stroke-width="66.9663" stroke-linecap="round" stroke-linejoin="round" stroke="rgb(100%, 0%, 0%)" stroke-opacity="1" stroke-miterlimit="10" d="M 3590.604378 439.029001 L 3590.604378 439.029001 " transform="matrix(0.0997656, 0, 0, -0.0997656, -0.000000000000008993, 73.913267)"/>
<path fill="none" stroke-width="66.9663" stroke-linecap="round" stroke-linejoin="round" stroke="rgb(100%, 0%, 0%)" stroke-opacity="1" stroke-miterlimit="10" d="M 3590.604378 300.931845 L 3590.604378 300.931845 " transform="matrix(0.0997656, 0, 0, -0.0997656, -0.000000000000008993, 73.913267)"/>
<path fill="none" stroke-width="66.9663" stroke-linecap="round" stroke-linejoin="round" stroke="rgb(100%, 0%, 0%)" stroke-opacity="1" stroke-miterlimit="10" d="M 3710.181559 231.902843 L 3710.181559 231.902843 " transform="matrix(0.0997656, 0, 0, -0.0997656, -0.000000000000008993, 73.913267)"/>
<path fill="none" stroke-width="66.9663" stroke-linecap="round" stroke-linejoin="round" stroke="rgb(100%, 0%, 0%)" stroke-opacity="1" stroke-miterlimit="10" d="M 3750.040619 577.126158 L 3750.040619 577.126158 " transform="matrix(0.0997656, 0, 0, -0.0997656, -0.000000000000008993, 73.913267)"/>
<path fill="none" stroke-width="66.9663" stroke-linecap="round" stroke-linejoin="round" stroke="rgb(100%, 0%, 0%)" stroke-opacity="1" stroke-miterlimit="10" d="M 3510.886258 577.126158 L 3510.886258 577.126158 " transform="matrix(0.0997656, 0, 0, -0.0997656, -0.000000000000008993, 73.913267)"/>
<path fill="none" stroke-width="66.9663" stroke-linecap="round" stroke-linejoin="round" stroke="rgb(100%, 0%, 0%)" stroke-opacity="1" stroke-miterlimit="10" d="M 3391.309077 370 L 3391.309077 370 " transform="matrix(0.0997656, 0, 0, -0.0997656, -0.000000000000008993, 73.913267)"/>
<path fill="none" stroke-width="66.9663" stroke-linecap="round" stroke-linejoin="round" stroke="rgb(100%, 0%, 0%)" stroke-opacity="1" stroke-miterlimit="10" d="M 3510.886258 162.873842 L 3510.886258 162.873842 " transform="matrix(0.0997656, 0, 0, -0.0997656, -0.000000000000008993, 73.913267)"/>
<path fill="none" stroke-width="66.9663" stroke-linecap="round" stroke-linejoin="round" stroke="rgb(100%, 0%, 0%)" stroke-opacity="1" stroke-miterlimit="10" d="M 3750.040619 162.873842 L 3750.040619 162.873842 " transform="matrix(0.0997656, 0, 0, -0.0997656, -0.000000000000008993, 73.913267)"/>
<path fill="none" stroke-width="66.9663" stroke-linecap="round" stroke-linejoin="round" stroke="rgb(100%, 0%, 0%)" stroke-opacity="1" stroke-miterlimit="10" d="M 3590.604378 577.126158 L 3590.604378 577.126158 " transform="matrix(0.0997656, 0, 0, -0.0997656, -0.000000000000008993, 73.913267)"/>
<path fill="none" stroke-width="66.9663" stroke-linecap="round" stroke-linejoin="round" stroke="rgb(100%, 0%, 0%)" stroke-opacity="1" stroke-miterlimit="10" d="M 3431.168137 439.029001 L 3431.168137 439.029001 " transform="matrix(0.0997656, 0, 0, -0.0997656, -0.000000000000008993, 73.913267)"/>
<path fill="none" stroke-width="66.9663" stroke-linecap="round" stroke-linejoin="round" stroke="rgb(100%, 0%, 0%)" stroke-opacity="1" stroke-miterlimit="10" d="M 3471.027197 231.902843 L 3471.027197 231.902843 " transform="matrix(0.0997656, 0, 0, -0.0997656, -0.000000000000008993, 73.913267)"/>
<path fill="none" stroke-width="66.9663" stroke-linecap="round" stroke-linejoin="round" stroke="rgb(100%, 0%, 0%)" stroke-opacity="1" stroke-miterlimit="10" d="M 3670.322499 162.873842 L 3670.322499 162.873842 " transform="matrix(0.0997656, 0, 0, -0.0997656, -0.000000000000008993, 73.913267)"/>
<path fill="none" stroke-width="66.9663" stroke-linecap="round" stroke-linejoin="round" stroke="rgb(100%, 0%, 0%)" stroke-opacity="1" stroke-miterlimit="10" d="M 3670.322499 577.126158 L 3670.322499 577.126158 " transform="matrix(0.0997656, 0, 0, -0.0997656, -0.000000000000008993, 73.913267)"/>
<path fill="none" stroke-width="66.9663" stroke-linecap="round" stroke-linejoin="round" stroke="rgb(100%, 0%, 0%)" stroke-opacity="1" stroke-miterlimit="10" d="M 3471.027197 508.058002 L 3471.027197 508.058002 " transform="matrix(0.0997656, 0, 0, -0.0997656, -0.000000000000008993, 73.913267)"/>
<path fill="none" stroke-width="66.9663" stroke-linecap="round" stroke-linejoin="round" stroke="rgb(100%, 0%, 0%)" stroke-opacity="1" stroke-miterlimit="10" d="M 3431.168137 300.931845 L 3431.168137 300.931845 " transform="matrix(0.0997656, 0, 0, -0.0997656, -0.000000000000008993, 73.913267)"/>
<path fill="none" stroke-width="66.9663" stroke-linecap="round" stroke-linejoin="round" stroke="rgb(100%, 0%, 0%)" stroke-opacity="1" stroke-miterlimit="10" d="M 3590.604378 162.873842 L 3590.604378 162.873842 " transform="matrix(0.0997656, 0, 0, -0.0997656, -0.000000000000008993, 73.913267)"/>
<path fill="none" stroke-width="66.9663" stroke-linecap="round" stroke-linejoin="round" stroke="rgb(100%, 0%, 0%)" stroke-opacity="1" stroke-miterlimit="10" d="M 3710.181559 646.155159 L 3710.181559 646.155159 " transform="matrix(0.0997656, 0, 0, -0.0997656, -0.000000000000008993, 73.913267)"/>
<path fill="none" stroke-width="66.9663" stroke-linecap="round" stroke-linejoin="round" stroke="rgb(100%, 0%, 0%)" stroke-opacity="1" stroke-miterlimit="10" d="M 3391.309077 646.155159 L 3391.309077 646.155159 " transform="matrix(0.0997656, 0, 0, -0.0997656, -0.000000000000008993, 73.913267)"/>
<path fill="none" stroke-width="66.9663" stroke-linecap="round" stroke-linejoin="round" stroke="rgb(100%, 0%, 0%)" stroke-opacity="1" stroke-miterlimit="10" d="M 3231.872836 370 L 3231.872836 370 " transform="matrix(0.0997656, 0, 0, -0.0997656, -0.000000000000008993, 73.913267)"/>
<path fill="none" stroke-width="66.9663" stroke-linecap="round" stroke-linejoin="round" stroke="rgb(100%, 0%, 0%)" stroke-opacity="1" stroke-miterlimit="10" d="M 3391.309077 93.805687 L 3391.309077 93.805687 " transform="matrix(0.0997656, 0, 0, -0.0997656, -0.000000000000008993, 73.913267)"/>
<path fill="none" stroke-width="66.9663" stroke-linecap="round" stroke-linejoin="round" stroke="rgb(100%, 0%, 0%)" stroke-opacity="1" stroke-miterlimit="10" d="M 3710.181559 93.805687 L 3710.181559 93.805687 " transform="matrix(0.0997656, 0, 0, -0.0997656, -0.000000000000008993, 73.913267)"/>
<path fill="none" stroke-width="66.9663" stroke-linecap="round" stroke-linejoin="round" stroke="rgb(100%, 0%, 0%)" stroke-opacity="1" stroke-miterlimit="10" d="M 3471.027197 646.155159 L 3471.027197 646.155159 " transform="matrix(0.0997656, 0, 0, -0.0997656, -0.000000000000008993, 73.913267)"/>
<path fill="none" stroke-width="66.9663" stroke-linecap="round" stroke-linejoin="round" stroke="rgb(100%, 0%, 0%)" stroke-opacity="1" stroke-miterlimit="10" d="M 3271.731896 439.029001 L 3271.731896 439.029001 " transform="matrix(0.0997656, 0, 0, -0.0997656, -0.000000000000008993, 73.913267)"/>
<path fill="none" stroke-width="66.9663" stroke-linecap="round" stroke-linejoin="round" stroke="rgb(100%, 0%, 0%)" stroke-opacity="1" stroke-miterlimit="10" d="M 3351.450017 162.873842 L 3351.450017 162.873842 " transform="matrix(0.0997656, 0, 0, -0.0997656, -0.000000000000008993, 73.913267)"/>
<path fill="none" stroke-width="66.9663" stroke-linecap="round" stroke-linejoin="round" stroke="rgb(100%, 0%, 0%)" stroke-opacity="1" stroke-miterlimit="10" d="M 3630.463438 93.805687 L 3630.463438 93.805687 " transform="matrix(0.0997656, 0, 0, -0.0997656, -0.000000000000008993, 73.913267)"/>
<path fill="none" stroke-width="66.9663" stroke-linecap="round" stroke-linejoin="round" stroke="rgb(100%, 0%, 0%)" stroke-opacity="1" stroke-miterlimit="10" d="M 3550.745318 646.155159 L 3550.745318 646.155159 " transform="matrix(0.0997656, 0, 0, -0.0997656, -0.000000000000008993, 73.913267)"/>
<path fill="none" stroke-width="66.9663" stroke-linecap="round" stroke-linejoin="round" stroke="rgb(100%, 0%, 0%)" stroke-opacity="1" stroke-miterlimit="10" d="M 3311.590957 508.058002 L 3311.590957 508.058002 " transform="matrix(0.0997656, 0, 0, -0.0997656, -0.000000000000008993, 73.913267)"/>
<path fill="none" stroke-width="66.9663" stroke-linecap="round" stroke-linejoin="round" stroke="rgb(100%, 0%, 0%)" stroke-opacity="1" stroke-miterlimit="10" d="M 3311.590957 231.902843 L 3311.590957 231.902843 " transform="matrix(0.0997656, 0, 0, -0.0997656, -0.000000000000008993, 73.913267)"/>
<path fill="none" stroke-width="66.9663" stroke-linecap="round" stroke-linejoin="round" stroke="rgb(100%, 0%, 0%)" stroke-opacity="1" stroke-miterlimit="10" d="M 3550.745318 93.805687 L 3550.745318 93.805687 " transform="matrix(0.0997656, 0, 0, -0.0997656, -0.000000000000008993, 73.913267)"/>
<path fill="none" stroke-width="66.9663" stroke-linecap="round" stroke-linejoin="round" stroke="rgb(100%, 0%, 0%)" stroke-opacity="1" stroke-miterlimit="10" d="M 3630.463438 646.155159 L 3630.463438 646.155159 " transform="matrix(0.0997656, 0, 0, -0.0997656, -0.000000000000008993, 73.913267)"/>
<path fill="none" stroke-width="66.9663" stroke-linecap="round" stroke-linejoin="round" stroke="rgb(100%, 0%, 0%)" stroke-opacity="1" stroke-miterlimit="10" d="M 3351.450017 577.126158 L 3351.450017 577.126158 " transform="matrix(0.0997656, 0, 0, -0.0997656, -0.000000000000008993, 73.913267)"/>
<path fill="none" stroke-width="66.9663" stroke-linecap="round" stroke-linejoin="round" stroke="rgb(100%, 0%, 0%)" stroke-opacity="1" stroke-miterlimit="10" d="M 3271.731896 300.931845 L 3271.731896 300.931845 " transform="matrix(0.0997656, 0, 0, -0.0997656, -0.000000000000008993, 73.913267)"/>
<path fill="none" stroke-width="66.9663" stroke-linecap="round" stroke-linejoin="round" stroke="rgb(100%, 0%, 0%)" stroke-opacity="1" stroke-miterlimit="10" d="M 3471.027197 93.805687 L 3471.027197 93.805687 " transform="matrix(0.0997656, 0, 0, -0.0997656, -0.000000000000008993, 73.913267)"/>
</svg>
