<?xml version="1.0" encoding="UTF-8"?>
<svg xmlns="http://www.w3.org/2000/svg" xmlns:xlink="http://www.w3.org/1999/xlink" width="400" height="52.56" viewBox="0 0 400 52.56">
<path fill="none" stroke-width="2.6281" stroke-linecap="round" stroke-linejoin="round" stroke="rgb(0%, 0%, 0%)" stroke-opacity="1" stroke-miterlimit="10" d="M 202.971901 225.924629 L 327.915418 225.924629 " transform="matrix(0.0991698, 0, 0, -0.0991698, 1.660377, 52.123653)"/>
<path fill="none" stroke-width="2.6281" stroke-linecap="round" stroke-linejoin="round" stroke="rgb(0%, 0%, 0%)" stroke-opacity="1" stroke-miterlimit="10" d="M 202.971901 225.924629 L 265.44366 102.871808 " transform="matrix(0.0991698, 0, 0, -0.0991698, 1.660377, 52.123653)"/>
<path fill="none" stroke-width="2.6281" stroke-linecap="round" stroke-linejoin="round" stroke="rgb(0%, 0%, 0%)" stroke-opacity="1" stroke-miterlimit="10" d="M 202.971901 225.924629 L 265.44366 496.530544 " transform="matrix(0.0991698, 0, 0, -0.0991698, 1.660377, 52.123653)"/>
<path fill="none" stroke-width="2.6281" stroke-linecap="round" stroke-linejoin="round" stroke="rgb(0%, 0%, 0%)" stroke-opacity="1" stroke-miterlimit="10" d="M 202.971901 225.924629 L 28.200658 29.095261 " transform="matrix(0.0991698, 0, 0, -0.0991698, 1.660377, 52.123653)"/>
<path fill="none" stroke-width="2.6281" stroke-linecap="round" stroke-linejoin="round" stroke="rgb(0%, 0%, 0%)" stroke-opacity="1" stroke-miterlimit="10" d="M 327.915418 225.924629 L 265.44366 102.871808 " transform="matrix(0.0991698, 0, 0, -0.0991698, 1.660377, 52.123653)"/>
<path fill="none" stroke-width="2.6281" stroke-linecap="round" stroke-linejoin="round" stroke="rgb(0%, 0%, 0%)" stroke-opacity="1" stroke-miterlimit="10" d="M 327.915418 225.924629 L 265.44366 496.530544 " transform="matrix(0.0991698, 0, 0, -0.0991698, 1.660377, 52.123653)"/>
<path fill="none" stroke-width="2.6281" stroke-linecap="round" stroke-linejoin="round" stroke="rgb(0%, 0%, 0%)" stroke-opacity="1" stroke-miterlimit="10" d="M 327.915418 225.924629 L 502.726051 29.095261 " transform="matrix(0.0991698, 0, 0, -0.0991698, 1.660377, 52.123653)"/>
<path fill="none" stroke-width="2.6281" stroke-linecap="round" stroke-linejoin="round" stroke="rgb(0%, 0%, 0%)" stroke-opacity="1" stroke-miterlimit="10" d="M 265.44366 102.871808 L 28.200658 29.095261 " transform="matrix(0.0991698, 0, 0, -0.0991698, 1.660377, 52.123653)"/>
<path fill="none" stroke-width="2.6281" stroke-linecap="round" stroke-linejoin="round" stroke="rgb(0%, 0%, 0%)" stroke-opacity="1" stroke-miterlimit="10" d="M 265.44366 102.871808 L 502.726051 29.095261 " transform="matrix(0.0991698, 0, 0, -0.0991698, 1.660377, 52.123653)"/>
<path fill="none" stroke-width="2.6281" stroke-linecap="round" stroke-linejoin="round" stroke="rgb(0%, 0%, 0%)" stroke-opacity="1" stroke-miterlimit="10" d="M 265.44366 496.530544 L 28.200658 29.095261 " transform="matrix(0.0991698, 0, 0, -0.0991698, 1.660377, 52.123653)"/>
<path fill="none" stroke-width="2.6281" stroke-linecap="round" stroke-linejoin="round" stroke="rgb(0%, 0%, 0%)" stroke-opacity="1" stroke-miterlimit="10" d="M 265.44366 496.530544 L 502.726051 29.095261 " transform="matrix(0.0991698, 0, 0, -0.0991698, 1.660377, 52.123653)"/>
<path fill="none" stroke-width="2.6281" stroke-linecap="round" stroke-linejoin="round" stroke="rgb(0%, 0%, 0%)" stroke-opacity="1" stroke-miterlimit="10" d="M 28.200658 29.095261 L 502.726051 29.095261 " transform="matrix(0.0991698, 0, 0, -0.0991698, 1.660377, 52.123653)"/>
<path fill="none" stroke-width="26.281" stroke-linecap="round" stroke-linejoin="round" stroke="rgb(100%, 0%, 0%)" stroke-opacity="1" stroke-miterlimit="10" d="M 202.971901 225.924629 L 202.971901 225.924629 " transform="matrix(0.0991698, 0, 0, -0.0991698, 1.660377, 52.123653)"/>
<path fill="none" stroke-width="26.281" stroke-linecap="round" stroke-linejoin="round" stroke="rgb(100%, 0%, 0%)" stroke-opacity="1" stroke-miterlimit="10" d="M 327.915418 225.924629 L 327.915418 225.924629 " transform="matrix(0.0991698, 0, 0, -0.0991698, 1.660377, 52.123653)"/>
<path fill="none" stroke-width="26.281" stroke-linecap="round" stroke-linejoin="round" stroke="rgb(100%, 0%, 0%)" stroke-opacity="1" stroke-miterlimit="10" d="M 265.44366 102.871808 L 265.44366 102.871808 " transform="matrix(0.0991698, 0, 0, -0.0991698, 1.660377, 52.123653)"/>
<path fill="none" stroke-width="26.281" stroke-linecap="round" stroke-linejoin="round" stroke="rgb(100%, 0%, 0%)" stroke-opacity="1" stroke-miterlimit="10" d="M 265.44366 496.530544 L 265.44366 496.530544 " transform="matrix(0.0991698, 0, 0, -0.0991698, 1.660377, 52.123653)"/>
<path fill="none" stroke-width="26.281" stroke-linecap="round" stroke-linejoin="round" stroke="rgb(100%, 0%, 0%)" stroke-opacity="1" stroke-miterlimit="10" d="M 28.200658 29.095261 L 28.200658 29.095261 " transform="matrix(0.0991698, 0, 0, -0.0991698, 1.660377, 52.123653)"/>
<path fill="none" stroke-width="26.281" stroke-linecap="round" stroke-linejoin="round" stroke="rgb(100%, 0%, 0%)" stroke-opacity="1" stroke-miterlimit="10" d="M 502.726051 29.095261 L 502.726051 29.095261 " transform="matrix(0.0991698, 0, 0, -0.0991698, 1.660377, 52.123653)"/>
<path fill="none" stroke-width="2.62811" stroke-linecap="round" stroke-linejoin="round" stroke="rgb(0%, 0%, 0%)" stroke-opacity="1" stroke-miterlimit="10" d="M 1082.539598 501.729959 L 963.110612 262.793208 " transform="matrix(0.0991698, 0, 0, -0.0991698, 1.660377, 52.123653)"/>
<path fill="none" stroke-width="2.62811" stroke-linecap="round" stroke-linejoin="round" stroke="rgb(0%, 0%, 0%)" stroke-opacity="1" stroke-miterlimit="10" d="M 1082.539598 501.729959 L 604.705485 501.729959 " transform="matrix(0.0991698, 0, 0, -0.0991698, 1.660377, 52.123653)"/>
<path fill="none" stroke-width="2.62811" stroke-linecap="round" stroke-linejoin="round" stroke="rgb(0%, 0%, 0%)" stroke-opacity="1" stroke-miterlimit="10" d="M 1082.539598 501.729959 L 1082.539598 23.895846 " transform="matrix(0.0991698, 0, 0, -0.0991698, 1.660377, 52.123653)"/>
<path fill="none" stroke-width="2.62811" stroke-linecap="round" stroke-linejoin="round" stroke="rgb(0%, 0%, 0%)" stroke-opacity="1" stroke-miterlimit="10" d="M 1082.539598 501.729959 L 724.173861 262.793208 " transform="matrix(0.0991698, 0, 0, -0.0991698, 1.660377, 52.123653)"/>
<path fill="none" stroke-width="2.62811" stroke-linecap="round" stroke-linejoin="round" stroke="rgb(0%, 0%, 0%)" stroke-opacity="1" stroke-miterlimit="10" d="M 604.705485 23.895846 L 604.705485 501.729959 " transform="matrix(0.0991698, 0, 0, -0.0991698, 1.660377, 52.123653)"/>
<path fill="none" stroke-width="2.62811" stroke-linecap="round" stroke-linejoin="round" stroke="rgb(0%, 0%, 0%)" stroke-opacity="1" stroke-miterlimit="10" d="M 604.705485 23.895846 L 1082.539598 23.895846 " transform="matrix(0.0991698, 0, 0, -0.0991698, 1.660377, 52.123653)"/>
<path fill="none" stroke-width="2.62811" stroke-linecap="round" stroke-linejoin="round" stroke="rgb(0%, 0%, 0%)" stroke-opacity="1" stroke-miterlimit="10" d="M 604.705485 23.895846 L 724.173861 262.793208 " transform="matrix(0.0991698, 0, 0, -0.0991698, 1.660377, 52.123653)"/>
<path fill="none" stroke-width="2.62811" stroke-linecap="round" stroke-linejoin="round" stroke="rgb(0%, 0%, 0%)" stroke-opacity="1" stroke-miterlimit="10" d="M 963.110612 262.793208 L 1082.539598 23.895846 " transform="matrix(0.0991698, 0, 0, -0.0991698, 1.660377, 52.123653)"/>
<path fill="none" stroke-width="2.62811" stroke-linecap="round" stroke-linejoin="round" stroke="rgb(0%, 0%, 0%)" stroke-opacity="1" stroke-miterlimit="10" d="M 963.110612 262.793208 L 724.173861 262.793208 " transform="matrix(0.0991698, 0, 0, -0.0991698, 1.660377, 52.123653)"/>
<path fill="none" stroke-width="2.62811" stroke-linecap="round" stroke-linejoin="round" stroke="rgb(0%, 0%, 0%)" stroke-opacity="1" stroke-miterlimit="10" d="M 604.705485 501.729959 L 724.173861 262.793208 " transform="matrix(0.0991698, 0, 0, -0.0991698, 1.660377, 52.123653)"/>
<path fill="none" stroke-width="26.2811" stroke-linecap="round" stroke-linejoin="round" stroke="rgb(100%, 0%, 0%)" stroke-opacity="1" stroke-miterlimit="10" d="M 1082.539598 501.729959 L 1082.539598 501.729959 " transform="matrix(0.0991698, 0, 0, -0.0991698, 1.660377, 52.123653)"/>
<path fill="none" stroke-width="26.2811" stroke-linecap="round" stroke-linejoin="round" stroke="rgb(100%, 0%, 0%)" stroke-opacity="1" stroke-miterlimit="10" d="M 604.705485 23.895846 L 604.705485 23.895846 " transform="matrix(0.0991698, 0, 0, -0.0991698, 1.660377, 52.123653)"/>
<path fill="none" stroke-width="26.2811" stroke-linecap="round" stroke-linejoin="round" stroke="rgb(100%, 0%, 0%)" stroke-opacity="1" stroke-miterlimit="10" d="M 963.110612 262.793208 L 963.110612 262.793208 " transform="matrix(0.0991698, 0, 0, -0.0991698, 1.660377, 52.123653)"/>
<path fill="none" stroke-width="26.2811" stroke-linecap="round" stroke-linejoin="round" stroke="rgb(100%, 0%, 0%)" stroke-opacity="1" stroke-miterlimit="10" d="M 604.705485 501.729959 L 604.705485 501.729959 " transform="matrix(0.0991698, 0, 0, -0.0991698, 1.660377, 52.123653)"/>
<path fill="none" stroke-width="26.2811" stroke-linecap="round" stroke-linejoin="round" stroke="rgb(100%, 0%, 0%)" stroke-opacity="1" stroke-miterlimit="10" d="M 1082.539598 23.895846 L 1082.539598 23.895846 " transform="matrix(0.0991698, 0, 0, -0.0991698, 1.660377, 52.123653)"/>
<path fill="none" stroke-width="26.2811" stroke-linecap="round" stroke-linejoin="round" stroke="rgb(100%, 0%, 0%)" stroke-opacity="1" stroke-miterlimit="10" d="M 724.173861 262.793208 L 724.173861 262.793208 " transform="matrix(0.0991698, 0, 0, -0.0991698, 1.660377, 52.123653)"/>
<path fill="none" stroke-width="2.6281" stroke-linecap="round" stroke-linejoin="round" stroke="rgb(0%, 0%, 0%)" stroke-opacity="1" stroke-miterlimit="10" d="M 1660.738174 501.729959 L 1541.269799 262.793208 " transform="matrix(0.0991698, 0, 0, -0.0991698, 1.660377, 52.123653)"/>
<path fill="none" stroke-width="2.6281" stroke-linecap="round" stroke-linejoin="round" stroke="rgb(0%, 0%, 0%)" stroke-opacity="1" stroke-miterlimit="10" d="M 1660.738174 501.729959 L 1182.904062 501.729959 " transform="matrix(0.0991698, 0, 0, -0.0991698, 1.660377, 52.123653)"/>
<path fill="none" stroke-width="2.6281" stroke-linecap="round" stroke-linejoin="round" stroke="rgb(0%, 0%, 0%)" stroke-opacity="1" stroke-miterlimit="10" d="M 1660.738174 501.729959 L 1660.738174 23.895846 " transform="matrix(0.0991698, 0, 0, -0.0991698, 1.660377, 52.123653)"/>
<path fill="none" stroke-width="2.6281" stroke-linecap="round" stroke-linejoin="round" stroke="rgb(0%, 0%, 0%)" stroke-opacity="1" stroke-miterlimit="10" d="M 1660.738174 501.729959 L 1302.372437 262.793208 " transform="matrix(0.0991698, 0, 0, -0.0991698, 1.660377, 52.123653)"/>
<path fill="none" stroke-width="2.6281" stroke-linecap="round" stroke-linejoin="round" stroke="rgb(0%, 0%, 0%)" stroke-opacity="1" stroke-miterlimit="10" d="M 1182.904062 23.895846 L 1182.904062 501.729959 " transform="matrix(0.0991698, 0, 0, -0.0991698, 1.660377, 52.123653)"/>
<path fill="none" stroke-width="2.6281" stroke-linecap="round" stroke-linejoin="round" stroke="rgb(0%, 0%, 0%)" stroke-opacity="1" stroke-miterlimit="10" d="M 1182.904062 23.895846 L 1660.738174 23.895846 " transform="matrix(0.0991698, 0, 0, -0.0991698, 1.660377, 52.123653)"/>
<path fill="none" stroke-width="2.6281" stroke-linecap="round" stroke-linejoin="round" stroke="rgb(0%, 0%, 0%)" stroke-opacity="1" stroke-miterlimit="10" d="M 1182.904062 23.895846 L 1302.372437 262.793208 " transform="matrix(0.0991698, 0, 0, -0.0991698, 1.660377, 52.123653)"/>
<path fill="none" stroke-width="2.6281" stroke-linecap="round" stroke-linejoin="round" stroke="rgb(0%, 0%, 0%)" stroke-opacity="1" stroke-miterlimit="10" d="M 1541.269799 262.793208 L 1660.738174 23.895846 " transform="matrix(0.0991698, 0, 0, -0.0991698, 1.660377, 52.123653)"/>
<path fill="none" stroke-width="2.6281" stroke-linecap="round" stroke-linejoin="round" stroke="rgb(0%, 0%, 0%)" stroke-opacity="1" stroke-miterlimit="10" d="M 1541.269799 262.793208 L 1302.372437 262.793208 " transform="matrix(0.0991698, 0, 0, -0.0991698, 1.660377, 52.123653)"/>
<path fill="none" stroke-width="2.6281" stroke-linecap="round" stroke-linejoin="round" stroke="rgb(0%, 0%, 0%)" stroke-opacity="1" stroke-miterlimit="10" d="M 1182.904062 501.729959 L 1302.372437 262.793208 " transform="matrix(0.0991698, 0, 0, -0.0991698, 1.660377, 52.123653)"/>
<path fill="none" stroke-width="2.6281" stroke-linecap="round" stroke-linejoin="round" stroke="rgb(0%, 0%, 0%)" stroke-opacity="1" stroke-miterlimit="10" d="M 1660.738174 23.895846 L 1302.372437 262.793208 " transform="matrix(0.0991698, 0, 0, -0.0991698, 1.660377, 52.123653)"/>
<path fill="none" stroke-width="26.281" stroke-linecap="round" stroke-linejoin="round" stroke="rgb(100%, 0%, 0%)" stroke-opacity="1" stroke-miterlimit="10" d="M 1660.738174 501.729959 L 1660.738174 501.729959 " transform="matrix(0.0991698, 0, 0, -0.0991698, 1.660377, 52.123653)"/>
<path fill="none" stroke-width="26.281" stroke-linecap="round" stroke-linejoin="round" stroke="rgb(100%, 0%, 0%)" stroke-opacity="1" stroke-miterlimit="10" d="M 1182.904062 23.895846 L 1182.904062 23.895846 " transform="matrix(0.0991698, 0, 0, -0.0991698, 1.660377, 52.123653)"/>
<path fill="none" stroke-width="26.281" stroke-linecap="round" stroke-linejoin="round" stroke="rgb(100%, 0%, 0%)" stroke-opacity="1" stroke-miterlimit="10" d="M 1541.269799 262.793208 L 1541.269799 262.793208 " transform="matrix(0.0991698, 0, 0, -0.0991698, 1.660377, 52.123653)"/>
<path fill="none" stroke-width="26.281" stroke-linecap="round" stroke-linejoin="round" stroke="rgb(100%, 0%, 0%)" stroke-opacity="1" stroke-miterlimit="10" d="M 1182.904062 501.729959 L 1182.904062 501.729959 " transform="matrix(0.0991698, 0, 0, -0.0991698, 1.660377, 52.123653)"/>
<path fill="none" stroke-width="26.281" stroke-linecap="round" stroke-linejoin="round" stroke="rgb(100%, 0%, 0%)" stroke-opacity="1" stroke-miterlimit="10" d="M 1660.738174 23.895846 L 1660.738174 23.895846 " transform="matrix(0.0991698, 0, 0, -0.0991698, 1.660377, 52.123653)"/>
<path fill="none" stroke-width="26.281" stroke-linecap="round" stroke-linejoin="round" stroke="rgb(100%, 0%, 0%)" stroke-opacity="1" stroke-miterlimit="10" d="M 1302.372437 262.793208 L 1302.372437 262.793208 " transform="matrix(0.0991698, 0, 0, -0.0991698, 1.660377, 52.123653)"/>
<path fill="none" stroke-width="2.62808" stroke-linecap="round" stroke-linejoin="round" stroke="rgb(0%, 0%, 0%)" stroke-opacity="1" stroke-miterlimit="10" d="M 2000 382.261583 L 2000 501.729959 " transform="matrix(0.0991698, 0, 0, -0.0991698, 1.660377, 52.123653)"/>
<path fill="none" stroke-width="2.62808" stroke-linecap="round" stroke-linejoin="round" stroke="rgb(0%, 0%, 0%)" stroke-opacity="1" stroke-miterlimit="10" d="M 2000 382.261583 L 2000 262.832597 " transform="matrix(0.0991698, 0, 0, -0.0991698, 1.660377, 52.123653)"/>
<path fill="none" stroke-width="2.62808" stroke-linecap="round" stroke-linejoin="round" stroke="rgb(0%, 0%, 0%)" stroke-opacity="1" stroke-miterlimit="10" d="M 2000 382.261583 L 2238.936751 23.895846 " transform="matrix(0.0991698, 0, 0, -0.0991698, 1.660377, 52.123653)"/>
<path fill="none" stroke-width="2.62808" stroke-linecap="round" stroke-linejoin="round" stroke="rgb(0%, 0%, 0%)" stroke-opacity="1" stroke-miterlimit="10" d="M 2000 382.261583 L 1761.063249 23.895846 " transform="matrix(0.0991698, 0, 0, -0.0991698, 1.660377, 52.123653)"/>
<path fill="none" stroke-width="2.62808" stroke-linecap="round" stroke-linejoin="round" stroke="rgb(0%, 0%, 0%)" stroke-opacity="1" stroke-miterlimit="10" d="M 2000 143.364222 L 2000 262.832597 " transform="matrix(0.0991698, 0, 0, -0.0991698, 1.660377, 52.123653)"/>
<path fill="none" stroke-width="2.62808" stroke-linecap="round" stroke-linejoin="round" stroke="rgb(0%, 0%, 0%)" stroke-opacity="1" stroke-miterlimit="10" d="M 2000 143.364222 L 2238.936751 23.895846 " transform="matrix(0.0991698, 0, 0, -0.0991698, 1.660377, 52.123653)"/>
<path fill="none" stroke-width="2.62808" stroke-linecap="round" stroke-linejoin="round" stroke="rgb(0%, 0%, 0%)" stroke-opacity="1" stroke-miterlimit="10" d="M 2000 143.364222 L 1761.063249 23.895846 " transform="matrix(0.0991698, 0, 0, -0.0991698, 1.660377, 52.123653)"/>
<path fill="none" stroke-width="2.62808" stroke-linecap="round" stroke-linejoin="round" stroke="rgb(0%, 0%, 0%)" stroke-opacity="1" stroke-miterlimit="10" d="M 2000 501.729959 L 2238.936751 23.895846 " transform="matrix(0.0991698, 0, 0, -0.0991698, 1.660377, 52.123653)"/>
<path fill="none" stroke-width="2.62808" stroke-linecap="round" stroke-linejoin="round" stroke="rgb(0%, 0%, 0%)" stroke-opacity="1" stroke-miterlimit="10" d="M 2000 501.729959 L 1761.063249 23.895846 " transform="matrix(0.0991698, 0, 0, -0.0991698, 1.660377, 52.123653)"/>
<path fill="none" stroke-width="2.62808" stroke-linecap="round" stroke-linejoin="round" stroke="rgb(0%, 0%, 0%)" stroke-opacity="1" stroke-miterlimit="10" d="M 2000 262.832597 L 2238.936751 23.895846 " transform="matrix(0.0991698, 0, 0, -0.0991698, 1.660377, 52.123653)"/>
<path fill="none" stroke-width="2.62808" stroke-linecap="round" stroke-linejoin="round" stroke="rgb(0%, 0%, 0%)" stroke-opacity="1" stroke-miterlimit="10" d="M 2000 262.832597 L 1761.063249 23.895846 " transform="matrix(0.0991698, 0, 0, -0.0991698, 1.660377, 52.123653)"/>
<path fill="none" stroke-width="2.62808" stroke-linecap="round" stroke-linejoin="round" stroke="rgb(0%, 0%, 0%)" stroke-opacity="1" stroke-miterlimit="10" d="M 2238.936751 23.895846 L 1761.063249 23.895846 " transform="matrix(0.0991698, 0, 0, -0.0991698, 1.660377, 52.123653)"/>
<path fill="none" stroke-width="26.2808" stroke-linecap="round" stroke-linejoin="round" stroke="rgb(100%, 0%, 0%)" stroke-opacity="1" stroke-miterlimit="10" d="M 2000 382.261583 L 2000 382.261583 " transform="matrix(0.0991698, 0, 0, -0.0991698, 1.660377, 52.123653)"/>
<path fill="none" stroke-width="26.2808" stroke-linecap="round" stroke-linejoin="round" stroke="rgb(100%, 0%, 0%)" stroke-opacity="1" stroke-miterlimit="10" d="M 2000 143.364222 L 2000 143.364222 " transform="matrix(0.0991698, 0, 0, -0.0991698, 1.660377, 52.123653)"/>
<path fill="none" stroke-width="26.2808" stroke-linecap="round" stroke-linejoin="round" stroke="rgb(100%, 0%, 0%)" stroke-opacity="1" stroke-miterlimit="10" d="M 2000 501.729959 L 2000 501.729959 " transform="matrix(0.0991698, 0, 0, -0.0991698, 1.660377, 52.123653)"/>
<path fill="none" stroke-width="26.2808" stroke-linecap="round" stroke-linejoin="round" stroke="rgb(100%, 0%, 0%)" stroke-opacity="1" stroke-miterlimit="10" d="M 2000 262.832597 L 2000 262.832597 " transform="matrix(0.0991698, 0, 0, -0.0991698, 1.660377, 52.123653)"/>
<path fill="none" stroke-width="26.2808" stroke-linecap="round" stroke-linejoin="round" stroke="rgb(100%, 0%, 0%)" stroke-opacity="1" stroke-miterlimit="10" d="M 2238.936751 23.895846 L 2238.936751 23.895846 " transform="matrix(0.0991698, 0, 0, -0.0991698, 1.660377, 52.123653)"/>
<path fill="none" stroke-width="26.2808" stroke-linecap="round" stroke-linejoin="round" stroke="rgb(100%, 0%, 0%)" stroke-opacity="1" stroke-miterlimit="10" d="M 1761.063249 23.895846 L 1761.063249 23.895846 " transform="matrix(0.0991698, 0, 0, -0.0991698, 1.660377, 52.123653)"/>
<path fill="none" stroke-width="2.6281" stroke-linecap="round" stroke-linejoin="round" stroke="rgb(0%, 0%, 0%)" stroke-opacity="1" stroke-miterlimit="10" d="M 2578.198577 23.895846 L 2458.730201 143.364222 " transform="matrix(0.0991698, 0, 0, -0.0991698, 1.660377, 52.123653)"/>
<path fill="none" stroke-width="2.6281" stroke-linecap="round" stroke-linejoin="round" stroke="rgb(0%, 0%, 0%)" stroke-opacity="1" stroke-miterlimit="10" d="M 2578.198577 23.895846 L 2817.095938 23.895846 " transform="matrix(0.0991698, 0, 0, -0.0991698, 1.660377, 52.123653)"/>
<path fill="none" stroke-width="2.6281" stroke-linecap="round" stroke-linejoin="round" stroke="rgb(0%, 0%, 0%)" stroke-opacity="1" stroke-miterlimit="10" d="M 2578.198577 23.895846 L 2339.261826 23.895846 " transform="matrix(0.0991698, 0, 0, -0.0991698, 1.660377, 52.123653)"/>
<path fill="none" stroke-width="2.6281" stroke-linecap="round" stroke-linejoin="round" stroke="rgb(0%, 0%, 0%)" stroke-opacity="1" stroke-miterlimit="10" d="M 2578.198577 23.895846 L 2697.627563 143.364222 " transform="matrix(0.0991698, 0, 0, -0.0991698, 1.660377, 52.123653)"/>
<path fill="none" stroke-width="2.6281" stroke-linecap="round" stroke-linejoin="round" stroke="rgb(0%, 0%, 0%)" stroke-opacity="1" stroke-miterlimit="10" d="M 2578.198577 501.729959 L 2458.730201 143.364222 " transform="matrix(0.0991698, 0, 0, -0.0991698, 1.660377, 52.123653)"/>
<path fill="none" stroke-width="2.6281" stroke-linecap="round" stroke-linejoin="round" stroke="rgb(0%, 0%, 0%)" stroke-opacity="1" stroke-miterlimit="10" d="M 2578.198577 501.729959 L 2817.095938 23.895846 " transform="matrix(0.0991698, 0, 0, -0.0991698, 1.660377, 52.123653)"/>
<path fill="none" stroke-width="2.6281" stroke-linecap="round" stroke-linejoin="round" stroke="rgb(0%, 0%, 0%)" stroke-opacity="1" stroke-miterlimit="10" d="M 2578.198577 501.729959 L 2339.261826 23.895846 " transform="matrix(0.0991698, 0, 0, -0.0991698, 1.660377, 52.123653)"/>
<path fill="none" stroke-width="2.6281" stroke-linecap="round" stroke-linejoin="round" stroke="rgb(0%, 0%, 0%)" stroke-opacity="1" stroke-miterlimit="10" d="M 2578.198577 501.729959 L 2697.627563 143.364222 " transform="matrix(0.0991698, 0, 0, -0.0991698, 1.660377, 52.123653)"/>
<path fill="none" stroke-width="2.6281" stroke-linecap="round" stroke-linejoin="round" stroke="rgb(0%, 0%, 0%)" stroke-opacity="1" stroke-miterlimit="10" d="M 2458.730201 143.364222 L 2339.261826 23.895846 " transform="matrix(0.0991698, 0, 0, -0.0991698, 1.660377, 52.123653)"/>
<path fill="none" stroke-width="2.6281" stroke-linecap="round" stroke-linejoin="round" stroke="rgb(0%, 0%, 0%)" stroke-opacity="1" stroke-miterlimit="10" d="M 2458.730201 143.364222 L 2697.627563 143.364222 " transform="matrix(0.0991698, 0, 0, -0.0991698, 1.660377, 52.123653)"/>
<path fill="none" stroke-width="2.6281" stroke-linecap="round" stroke-linejoin="round" stroke="rgb(0%, 0%, 0%)" stroke-opacity="1" stroke-miterlimit="10" d="M 2817.095938 23.895846 L 2697.627563 143.364222 " transform="matrix(0.0991698, 0, 0, -0.0991698, 1.660377, 52.123653)"/>
<path fill="none" stroke-width="26.281" stroke-linecap="round" stroke-linejoin="round" stroke="rgb(100%, 0%, 0%)" stroke-opacity="1" stroke-miterlimit="10" d="M 2578.198577 23.895846 L 2578.198577 23.895846 " transform="matrix(0.0991698, 0, 0, -0.0991698, 1.660377, 52.123653)"/>
<path fill="none" stroke-width="26.281" stroke-linecap="round" stroke-linejoin="round" stroke="rgb(100%, 0%, 0%)" stroke-opacity="1" stroke-miterlimit="10" d="M 2578.198577 501.729959 L 2578.198577 501.729959 " transform="matrix(0.0991698, 0, 0, -0.0991698, 1.660377, 52.123653)"/>
<path fill="none" stroke-width="26.281" stroke-linecap="round" stroke-linejoin="round" stroke="rgb(100%, 0%, 0%)" stroke-opacity="1" stroke-miterlimit="10" d="M 2458.730201 143.364222 L 2458.730201 143.364222 " transform="matrix(0.0991698, 0, 0, -0.0991698, 1.660377, 52.123653)"/>
<path fill="none" stroke-width="26.281" stroke-linecap="round" stroke-linejoin="round" stroke="rgb(100%, 0%, 0%)" stroke-opacity="1" stroke-miterlimit="10" d="M 2817.095938 23.895846 L 2817.095938 23.895846 " transform="matrix(0.0991698, 0, 0, -0.0991698, 1.660377, 52.123653)"/>
<path fill="none" stroke-width="26.281" stroke-linecap="round" stroke-linejoin="round" stroke="rgb(100%, 0%, 0%)" stroke-opacity="1" stroke-miterlimit="10" d="M 2339.261826 23.895846 L 2339.261826 23.895846 " transform="matrix(0.0991698, 0, 0, -0.0991698, 1.660377, 52.123653)"/>
<path fill="none" stroke-width="26.281" stroke-linecap="round" stroke-linejoin="round" stroke="rgb(100%, 0%, 0%)" stroke-opacity="1" stroke-miterlimit="10" d="M 2697.627563 143.364222 L 2697.627563 143.364222 " transform="matrix(0.0991698, 0, 0, -0.0991698, 1.660377, 52.123653)"/>
<path fill="none" stroke-width="2.6281" stroke-linecap="round" stroke-linejoin="round" stroke="rgb(0%, 0%, 0%)" stroke-opacity="1" stroke-miterlimit="10" d="M 3274.99896 107.007707 L 3156.357764 340.705653 " transform="matrix(0.0991698, 0, 0, -0.0991698, 1.660377, 52.123653)"/>
<path fill="none" stroke-width="2.6281" stroke-linecap="round" stroke-linejoin="round" stroke="rgb(0%, 0%, 0%)" stroke-opacity="1" stroke-miterlimit="10" d="M 3156.357764 340.705653 L 3037.755957 107.007707 " transform="matrix(0.0991698, 0, 0, -0.0991698, 1.660377, 52.123653)"/>
<path fill="none" stroke-width="2.6281" stroke-linecap="round" stroke-linejoin="round" stroke="rgb(0%, 0%, 0%)" stroke-opacity="1" stroke-miterlimit="10" d="M 3274.99896 107.007707 L 3037.755957 107.007707 " transform="matrix(0.0991698, 0, 0, -0.0991698, 1.660377, 52.123653)"/>
<path fill="none" stroke-width="2.6281" stroke-linecap="round" stroke-linejoin="round" stroke="rgb(0%, 0%, 0%)" stroke-opacity="1" stroke-miterlimit="10" d="M 3393.600766 29.095261 L 3156.357764 496.530544 " transform="matrix(0.0991698, 0, 0, -0.0991698, 1.660377, 52.123653)"/>
<path fill="none" stroke-width="2.6281" stroke-linecap="round" stroke-linejoin="round" stroke="rgb(0%, 0%, 0%)" stroke-opacity="1" stroke-miterlimit="10" d="M 3156.357764 496.530544 L 2919.114762 29.095261 " transform="matrix(0.0991698, 0, 0, -0.0991698, 1.660377, 52.123653)"/>
<path fill="none" stroke-width="2.6281" stroke-linecap="round" stroke-linejoin="round" stroke="rgb(0%, 0%, 0%)" stroke-opacity="1" stroke-miterlimit="10" d="M 3393.600766 29.095261 L 2919.114762 29.095261 " transform="matrix(0.0991698, 0, 0, -0.0991698, 1.660377, 52.123653)"/>
<path fill="none" stroke-width="2.6281" stroke-linecap="round" stroke-linejoin="round" stroke="rgb(0%, 0%, 0%)" stroke-opacity="1" stroke-miterlimit="10" d="M 3274.99896 107.007707 L 3393.600766 29.095261 " transform="matrix(0.0991698, 0, 0, -0.0991698, 1.660377, 52.123653)"/>
<path fill="none" stroke-width="2.6281" stroke-linecap="round" stroke-linejoin="round" stroke="rgb(0%, 0%, 0%)" stroke-opacity="1" stroke-miterlimit="10" d="M 3156.357764 340.705653 L 3156.357764 496.530544 " transform="matrix(0.0991698, 0, 0, -0.0991698, 1.660377, 52.123653)"/>
<path fill="none" stroke-width="2.6281" stroke-linecap="round" stroke-linejoin="round" stroke="rgb(0%, 0%, 0%)" stroke-opacity="1" stroke-miterlimit="10" d="M 3037.755957 107.007707 L 2919.114762 29.095261 " transform="matrix(0.0991698, 0, 0, -0.0991698, 1.660377, 52.123653)"/>
<path fill="none" stroke-width="26.281" stroke-linecap="round" stroke-linejoin="round" stroke="rgb(100%, 0%, 0%)" stroke-opacity="1" stroke-miterlimit="10" d="M 3274.99896 107.007707 L 3274.99896 107.007707 " transform="matrix(0.0991698, 0, 0, -0.0991698, 1.660377, 52.123653)"/>
<path fill="none" stroke-width="26.281" stroke-linecap="round" stroke-linejoin="round" stroke="rgb(100%, 0%, 0%)" stroke-opacity="1" stroke-miterlimit="10" d="M 3156.357764 340.705653 L 3156.357764 340.705653 " transform="matrix(0.0991698, 0, 0, -0.0991698, 1.660377, 52.123653)"/>
<path fill="none" stroke-width="26.281" stroke-linecap="round" stroke-linejoin="round" stroke="rgb(100%, 0%, 0%)" stroke-opacity="1" stroke-miterlimit="10" d="M 3037.755957 107.007707 L 3037.755957 107.007707 " transform="matrix(0.0991698, 0, 0, -0.0991698, 1.660377, 52.123653)"/>
<path fill="none" stroke-width="26.281" stroke-linecap="round" stroke-linejoin="round" stroke="rgb(100%, 0%, 0%)" stroke-opacity="1" stroke-miterlimit="10" d="M 3393.600766 29.095261 L 3393.600766 29.095261 " transform="matrix(0.0991698, 0, 0, -0.0991698, 1.660377, 52.123653)"/>
<path fill="none" stroke-width="26.281" stroke-linecap="round" stroke-linejoin="round" stroke="rgb(100%, 0%, 0%)" stroke-opacity="1" stroke-miterlimit="10" d="M 3156.357764 496.530544 L 3156.357764 496.530544 " transform="matrix(0.0991698, 0, 0, -0.0991698, 1.660377, 52.123653)"/>
<path fill="none" stroke-width="26.281" stroke-linecap="round" stroke-linejoin="round" stroke="rgb(100%, 0%, 0%)" stroke-opacity="1" stroke-miterlimit="10" d="M 2919.114762 29.095261 L 2919.114762 29.095261 " transform="matrix(0.0991698, 0, 0, -0.0991698, 1.660377, 52.123653)"/>
<path fill="none" stroke-width="2.6281" stroke-linecap="round" stroke-linejoin="round" stroke="rgb(0%, 0%, 0%)" stroke-opacity="1" stroke-miterlimit="10" d="M 3587.160804 25.589595 L 3734.55634 237.780871 " transform="matrix(0.0991698, 0, 0, -0.0991698, 1.660377, 52.123653)"/>
<path fill="none" stroke-width="2.6281" stroke-linecap="round" stroke-linejoin="round" stroke="rgb(0%, 0%, 0%)" stroke-opacity="1" stroke-miterlimit="10" d="M 3881.912487 25.589595 L 3734.55634 237.780871 " transform="matrix(0.0991698, 0, 0, -0.0991698, 1.660377, 52.123653)"/>
<path fill="none" stroke-width="2.6281" stroke-linecap="round" stroke-linejoin="round" stroke="rgb(0%, 0%, 0%)" stroke-opacity="1" stroke-miterlimit="10" d="M 3972.902249 318.805087 L 3734.55634 237.780871 " transform="matrix(0.0991698, 0, 0, -0.0991698, 1.660377, 52.123653)"/>
<path fill="none" stroke-width="2.6281" stroke-linecap="round" stroke-linejoin="round" stroke="rgb(0%, 0%, 0%)" stroke-opacity="1" stroke-miterlimit="10" d="M 3734.55634 500.03621 L 3734.55634 237.780871 " transform="matrix(0.0991698, 0, 0, -0.0991698, 1.660377, 52.123653)"/>
<path fill="none" stroke-width="2.6281" stroke-linecap="round" stroke-linejoin="round" stroke="rgb(0%, 0%, 0%)" stroke-opacity="1" stroke-miterlimit="10" d="M 3496.171043 318.805087 L 3734.55634 237.780871 " transform="matrix(0.0991698, 0, 0, -0.0991698, 1.660377, 52.123653)"/>
<path fill="none" stroke-width="2.6281" stroke-linecap="round" stroke-linejoin="round" stroke="rgb(0%, 0%, 0%)" stroke-opacity="1" stroke-miterlimit="10" d="M 3587.160804 25.589595 L 3881.912487 25.589595 " transform="matrix(0.0991698, 0, 0, -0.0991698, 1.660377, 52.123653)"/>
<path fill="none" stroke-width="2.6281" stroke-linecap="round" stroke-linejoin="round" stroke="rgb(0%, 0%, 0%)" stroke-opacity="1" stroke-miterlimit="10" d="M 3881.912487 25.589595 L 3972.902249 318.805087 " transform="matrix(0.0991698, 0, 0, -0.0991698, 1.660377, 52.123653)"/>
<path fill="none" stroke-width="2.6281" stroke-linecap="round" stroke-linejoin="round" stroke="rgb(0%, 0%, 0%)" stroke-opacity="1" stroke-miterlimit="10" d="M 3972.902249 318.805087 L 3734.55634 500.03621 " transform="matrix(0.0991698, 0, 0, -0.0991698, 1.660377, 52.123653)"/>
<path fill="none" stroke-width="2.6281" stroke-linecap="round" stroke-linejoin="round" stroke="rgb(0%, 0%, 0%)" stroke-opacity="1" stroke-miterlimit="10" d="M 3734.55634 500.03621 L 3496.171043 318.805087 " transform="matrix(0.0991698, 0, 0, -0.0991698, 1.660377, 52.123653)"/>
<path fill="none" stroke-width="2.6281" stroke-linecap="round" stroke-linejoin="round" stroke="rgb(0%, 0%, 0%)" stroke-opacity="1" stroke-miterlimit="10" d="M 3587.160804 25.589595 L 3496.171043 318.805087 " transform="matrix(0.0991698, 0, 0, -0.0991698, 1.660377, 52.123653)"/>
<path fill="none" stroke-width="26.281" stroke-linecap="round" stroke-linejoin="round" stroke="rgb(100%, 0%, 0%)" stroke-opacity="1" stroke-miterlimit="10" d="M 3587.160804 25.589595 L 3587.160804 25.589595 " transform="matrix(0.0991698, 0, 0, -0.0991698, 1.660377, 52.123653)"/>
<path fill="none" stroke-width="26.281" stroke-linecap="round" stroke-linejoin="round" stroke="rgb(100%, 0%, 0%)" stroke-opacity="1" stroke-miterlimit="10" d="M 3881.912487 25.589595 L 3881.912487 25.589595 " transform="matrix(0.0991698, 0, 0, -0.0991698, 1.660377, 52.123653)"/>
<path fill="none" stroke-width="26.281" stroke-linecap="round" stroke-linejoin="round" stroke="rgb(100%, 0%, 0%)" stroke-opacity="1" stroke-miterlimit="10" d="M 3972.902249 318.805087 L 3972.902249 318.805087 " transform="matrix(0.0991698, 0, 0, -0.0991698, 1.660377, 52.123653)"/>
<path fill="none" stroke-width="26.281" stroke-linecap="round" stroke-linejoin="round" stroke="rgb(100%, 0%, 0%)" stroke-opacity="1" stroke-miterlimit="10" d="M 3734.55634 500.03621 L 3734.55634 500.03621 " transform="matrix(0.0991698, 0, 0, -0.0991698, 1.660377, 52.123653)"/>
<path fill="none" stroke-width="26.281" stroke-linecap="round" stroke-linejoin="round" stroke="rgb(100%, 0%, 0%)" stroke-opacity="1" stroke-miterlimit="10" d="M 3496.171043 318.805087 L 3496.171043 318.805087 " transform="matrix(0.0991698, 0, 0, -0.0991698, 1.660377, 52.123653)"/>
<path fill="none" stroke-width="26.281" stroke-linecap="round" stroke-linejoin="round" stroke="rgb(100%, 0%, 0%)" stroke-opacity="1" stroke-miterlimit="10" d="M 3734.55634 237.780871 L 3734.55634 237.780871 " transform="matrix(0.0991698, 0, 0, -0.0991698, 1.660377, 52.123653)"/>
</svg>
