<?xml version="1.0" encoding="UTF-8"?>
<svg xmlns="http://www.w3.org/2000/svg" xmlns:xlink="http://www.w3.org/1999/xlink" width="240" height="163" viewBox="0 0 240 163">
<path fill-rule="nonzero" fill="rgb(80.076599%, 80.076599%, 80.076599%)" fill-opacity="1" d="M 4.800781 158.390625 L 235.199219 158.390625 L 235.199219 4.792969 L 4.800781 4.792969 Z M 4.800781 158.390625 "/>
<path fill-rule="nonzero" fill="rgb(0%, 0%, 100%)" fill-opacity="1" d="M 43.199219 119.992188 L 196.800781 119.992188 L 196.800781 43.191406 L 43.199219 43.191406 Z M 43.199219 119.992188 "/>
<path fill-rule="nonzero" fill="rgb(80.076599%, 80.076599%, 80.076599%)" fill-opacity="1" d="M 107.199219 81.59375 C 107.199219 74.800781 104.503906 68.289062 99.703125 63.488281 C 94.902344 58.6875 88.390625 55.992188 81.601562 55.992188 C 74.808594 55.992188 68.296875 58.6875 63.496094 63.488281 C 58.695312 68.289062 56 74.800781 56 81.59375 C 56 88.382812 58.695312 94.894531 63.496094 99.695312 C 68.296875 104.496094 74.808594 107.191406 81.601562 107.191406 C 88.390625 107.191406 94.902344 104.496094 99.703125 99.695312 C 104.503906 94.894531 107.199219 88.382812 107.199219 81.59375 "/>
<path fill-rule="nonzero" fill="rgb(80.076599%, 80.076599%, 80.076599%)" fill-opacity="1" d="M 184 81.59375 C 184 74.800781 181.304688 68.289062 176.503906 63.488281 C 171.699219 58.6875 165.191406 55.992188 158.398438 55.992188 C 151.609375 55.992188 145.097656 58.6875 140.296875 63.488281 C 135.496094 68.289062 132.800781 74.800781 132.800781 81.59375 C 132.800781 88.382812 135.496094 94.894531 140.296875 99.695312 C 145.097656 104.496094 151.609375 107.191406 158.398438 107.191406 C 165.191406 107.191406 171.699219 104.496094 176.503906 99.695312 C 181.304688 94.894531 184 88.382812 184 81.59375 "/>
<path fill="none" stroke-width="48" stroke-linecap="round" stroke-linejoin="miter" stroke="rgb(0%, 0%, 0%)" stroke-opacity="1" stroke-miterlimit="3.25" d="M 816.015625 814.0625 L 816.015625 814.0625 " transform="matrix(0.1, 0, 0, -0.1, 0, 163)"/>
<path fill="none" stroke-width="48" stroke-linecap="round" stroke-linejoin="miter" stroke="rgb(0%, 0%, 0%)" stroke-opacity="1" stroke-miterlimit="3.25" d="M 1583.984375 814.0625 L 1583.984375 814.0625 " transform="matrix(0.1, 0, 0, -0.1, 0, 163)"/>
</svg>
