<?xml version="1.0" encoding="UTF-8"?>
<svg xmlns="http://www.w3.org/2000/svg" xmlns:xlink="http://www.w3.org/1999/xlink" width="184.25" height="182.38" viewBox="0 0 184.25 182.38">
<defs>
<clipPath id="clip-0">
<path clip-rule="nonzero" d="M 0 0.0625 L 183.503906 0.0625 L 183.503906 144 L 0 144 Z M 0 0.0625 "/>
</clipPath>
<clipPath id="clip-1">
<path clip-rule="nonzero" d="M 118 142 L 148 142 L 148 181.703125 L 118 181.703125 Z M 118 142 "/>
</clipPath>
<clipPath id="clip-2">
<path clip-rule="nonzero" d="M 136 5 L 183.503906 5 L 183.503906 99 L 136 99 Z M 136 5 "/>
</clipPath>
<clipPath id="clip-3">
<path clip-rule="nonzero" d="M 181 97 L 183.503906 97 L 183.503906 105 L 181 105 Z M 181 97 "/>
</clipPath>
<clipPath id="clip-4">
<path clip-rule="nonzero" d="M 53 172 L 120 172 L 120 181.703125 L 53 181.703125 Z M 53 172 "/>
</clipPath>
<clipPath id="clip-5">
<path clip-rule="nonzero" d="M 69 0.0625 L 137 0.0625 L 137 7 L 69 7 Z M 69 0.0625 "/>
</clipPath>
<clipPath id="clip-6">
<path clip-rule="nonzero" d="M 23 146 L 139 146 L 139 181.703125 L 23 181.703125 Z M 23 146 "/>
</clipPath>
<clipPath id="clip-7">
<path clip-rule="nonzero" d="M 33 0.0625 L 71 0.0625 L 71 32 L 33 32 Z M 33 0.0625 "/>
</clipPath>
</defs>
<path fill="none" stroke-width="5" stroke-linecap="round" stroke-linejoin="round" stroke="rgb(13.729858%, 12.159729%, 12.548828%)" stroke-opacity="1" stroke-miterlimit="10" d="M 1040.821108 669.220921 L 1098.398278 1259.073151 " transform="matrix(0.0995946, 0, 0, -0.0995946, -0.00000000000000383, 181.701568)"/>
<path fill-rule="nonzero" fill="rgb(91.673279%, 72.857666%, 63.15155%)" fill-opacity="1" d="M 68.386719 83.359375 L 36.144531 45.738281 L 29.367188 122.882812 L 68.386719 83.359375 "/>
<path fill="none" stroke-width="5" stroke-linecap="round" stroke-linejoin="round" stroke="rgb(13.729858%, 12.159729%, 12.548828%)" stroke-opacity="1" stroke-miterlimit="10" d="M 686.650907 987.425 L 362.916596 1365.167325 L 294.867283 590.581801 Z M 686.650907 987.425 " transform="matrix(0.0995946, 0, 0, -0.0995946, -0.00000000000000383, 181.701568)"/>
<path fill="none" stroke-width="5" stroke-linecap="round" stroke-linejoin="round" stroke="rgb(13.729858%, 12.159729%, 12.548828%)" stroke-opacity="1" stroke-miterlimit="10" d="M 643.389586 550.69353 L 1040.821108 669.220921 " transform="matrix(0.0995946, 0, 0, -0.0995946, -0.00000000000000383, 181.701568)"/>
<path fill-rule="nonzero" fill="rgb(67.185974%, 50.653076%, 67.366028%)" fill-opacity="1" d="M 139.265625 91 L 106.132812 28.429688 L 68.386719 83.359375 L 139.265625 91 "/>
<path fill="none" stroke-width="5" stroke-linecap="round" stroke-linejoin="round" stroke="rgb(13.729858%, 12.159729%, 12.548828%)" stroke-opacity="1" stroke-miterlimit="10" d="M 1398.325136 910.707734 L 1065.648321 1538.957819 L 686.650907 987.425 Z M 1398.325136 910.707734 " transform="matrix(0.0995946, 0, 0, -0.0995946, -0.00000000000000383, 181.701568)"/>
<path fill-rule="nonzero" fill="rgb(78.764343%, 51.239014%, 53.215027%)" fill-opacity="1" d="M 106.132812 28.429688 L 68.386719 83.359375 L 36.144531 45.738281 L 106.132812 28.429688 "/>
<path fill="none" stroke-width="5" stroke-linecap="round" stroke-linejoin="round" stroke="rgb(13.729858%, 12.159729%, 12.548828%)" stroke-opacity="1" stroke-miterlimit="10" d="M 1065.648321 1538.957819 L 686.650907 987.425 L 362.916596 1365.167325 Z M 1065.648321 1538.957819 " transform="matrix(0.0995946, 0, 0, -0.0995946, -0.00000000000000383, 181.701568)"/>
<path fill="none" stroke-width="5" stroke-linecap="round" stroke-linejoin="round" stroke="rgb(13.729858%, 12.159729%, 12.548828%)" stroke-opacity="1" stroke-miterlimit="10" d="M 581.929486 1493.93153 L 688.180546 1445.610634 " transform="matrix(0.0995946, 0, 0, -0.0995946, -0.00000000000000383, 181.701568)"/>
<path fill-rule="nonzero" fill="rgb(81.759644%, 77.789307%, 82.936096%)" fill-opacity="1" d="M 94.570312 147.882812 L 68.386719 83.359375 L 29.367188 122.882812 L 94.570312 147.882812 "/>
<path fill="none" stroke-width="5" stroke-linecap="round" stroke-linejoin="round" stroke="rgb(13.729858%, 12.159729%, 12.548828%)" stroke-opacity="1" stroke-miterlimit="10" d="M 949.552663 339.564162 L 686.650907 987.425 L 294.867283 590.581801 Z M 949.552663 339.564162 " transform="matrix(0.0995946, 0, 0, -0.0995946, -0.00000000000000383, 181.701568)"/>
<path fill="none" stroke-width="5" stroke-linecap="round" stroke-linejoin="round" stroke="rgb(13.729858%, 12.159729%, 12.548828%)" stroke-opacity="1" stroke-miterlimit="10" d="M 492.426009 505.667241 L 505.839764 509.667834 " transform="matrix(0.0995946, 0, 0, -0.0995946, -0.00000000000000383, 181.701568)"/>
<path fill-rule="nonzero" fill="rgb(68.942261%, 63.093567%, 81.443787%)" fill-opacity="1" d="M 94.570312 147.882812 L 139.265625 91 L 68.386719 83.359375 L 94.570312 147.882812 "/>
<path fill="none" stroke-width="5" stroke-linecap="round" stroke-linejoin="round" stroke="rgb(13.729858%, 12.159729%, 12.548828%)" stroke-opacity="1" stroke-miterlimit="10" d="M 949.552663 339.564162 L 1398.325136 910.707734 L 686.650907 987.425 Z M 949.552663 339.564162 " transform="matrix(0.0995946, 0, 0, -0.0995946, -0.00000000000000383, 181.701568)"/>
<path fill="none" stroke-width="5" stroke-linecap="round" stroke-linejoin="round" stroke="rgb(13.729858%, 12.159729%, 12.548828%)" stroke-opacity="1" stroke-miterlimit="10" d="M 188.616223 1018.566876 L 313.889713 807.084515 M 485.40536 517.512135 L 492.426009 505.667241 " transform="matrix(0.0995946, 0, 0, -0.0995946, -0.00000000000000383, 181.701568)"/>
<path fill-rule="nonzero" fill="rgb(19.53125%, 21.899414%, 59.463501%)" fill-opacity="1" d="M 154.066406 137.582031 L 162.351562 58.351562 L 139.265625 91 L 154.066406 137.582031 "/>
<path fill="none" stroke-width="5" stroke-linecap="round" stroke-linejoin="round" stroke="rgb(13.729858%, 12.159729%, 12.548828%)" stroke-opacity="1" stroke-miterlimit="10" d="M 1546.935422 442.991274 L 1630.124237 1238.521082 L 1398.325136 910.707734 Z M 1546.935422 442.991274 " transform="matrix(0.0995946, 0, 0, -0.0995946, -0.00000000000000383, 181.701568)"/>
<path fill="none" stroke-width="5" stroke-linecap="round" stroke-linejoin="round" stroke="rgb(13.729858%, 12.159729%, 12.548828%)" stroke-opacity="1" stroke-miterlimit="10" d="M 1152.170963 597.445565 L 1354.593156 466.877171 " transform="matrix(0.0995946, 0, 0, -0.0995946, -0.00000000000000383, 181.701568)"/>
<path fill-rule="nonzero" fill="rgb(43.19458%, 24.320984%, 52.316284%)" fill-opacity="1" d="M 162.351562 58.351562 L 139.265625 91 L 106.132812 28.429688 L 162.351562 58.351562 "/>
<path fill="none" stroke-width="5" stroke-linecap="round" stroke-linejoin="round" stroke="rgb(13.729858%, 12.159729%, 12.548828%)" stroke-opacity="1" stroke-miterlimit="10" d="M 1630.124237 1238.521082 L 1398.325136 910.707734 L 1065.648321 1538.957819 Z M 1630.124237 1238.521082 " transform="matrix(0.0995946, 0, 0, -0.0995946, -0.00000000000000383, 181.701568)"/>
<path fill="none" stroke-width="5" stroke-linecap="round" stroke-linejoin="round" stroke="rgb(13.729858%, 12.159729%, 12.548828%)" stroke-opacity="1" stroke-miterlimit="10" d="M 1418.877205 1350.96914 L 1581.175797 1397.485846 " transform="matrix(0.0995946, 0, 0, -0.0995946, -0.00000000000000383, 181.701568)"/>
<path fill-rule="nonzero" fill="rgb(48.060608%, 57.975769%, 82.815552%)" fill-opacity="1" d="M 94.570312 147.882812 L 154.066406 137.582031 L 139.265625 91 L 94.570312 147.882812 "/>
<path fill="none" stroke-width="5" stroke-linecap="round" stroke-linejoin="round" stroke="rgb(13.729858%, 12.159729%, 12.548828%)" stroke-opacity="1" stroke-miterlimit="10" d="M 949.552663 339.564162 L 1546.935422 442.991274 L 1398.325136 910.707734 Z M 949.552663 339.564162 " transform="matrix(0.0995946, 0, 0, -0.0995946, -0.00000000000000383, 181.701568)"/>
<g clip-path="url(#clip-0)">
<path fill="none" stroke-width="5" stroke-linecap="round" stroke-linejoin="round" stroke="rgb(13.729858%, 12.159729%, 12.548828%)" stroke-opacity="1" stroke-miterlimit="10" d="M 1424.525102 421.81166 L 1476.493597 388.316494 M 612.130046 1576.4928 L 701.672744 1821.27422 M 581.929486 1493.93153 L 612.130046 1576.4928 M 188.616223 1018.566876 L 349.581284 1213.066325 M 504.310126 1400.113687 L 581.929486 1493.93153 M 1476.493597 388.316494 L 1516.264205 437.69637 M 1550.857573 480.64392 L 1839.998516 839.716808 M 2.510176 981.149559 L 188.616223 1018.566876 " transform="matrix(0.0995946, 0, 0, -0.0995946, -0.00000000000000383, 181.701568)"/>
</g>
<path fill-rule="nonzero" fill="rgb(67.848206%, 89.387512%, 92.469788%)" fill-opacity="1" d="M 94.570312 147.882812 L 29.367188 122.882812 L 81.765625 160.800781 L 94.570312 147.882812 "/>
<path fill="none" stroke-width="5" stroke-linecap="round" stroke-linejoin="round" stroke="rgb(13.729858%, 12.159729%, 12.548828%)" stroke-opacity="1" stroke-miterlimit="10" d="M 949.552663 339.564162 L 294.867283 590.581801 L 820.984566 209.858641 Z M 949.552663 339.564162 " transform="matrix(0.0995946, 0, 0, -0.0995946, -0.00000000000000383, 181.701568)"/>
<path fill-rule="nonzero" fill="rgb(11.837769%, 63.830566%, 89.36615%)" fill-opacity="1" d="M 94.570312 147.882812 L 81.765625 160.800781 L 154.066406 137.582031 L 94.570312 147.882812 "/>
<path fill="none" stroke-width="5" stroke-linecap="round" stroke-linejoin="round" stroke="rgb(13.729858%, 12.159729%, 12.548828%)" stroke-opacity="1" stroke-miterlimit="10" d="M 949.552663 339.564162 L 820.984566 209.858641 L 1546.935422 442.991274 Z M 949.552663 339.564162 " transform="matrix(0.0995946, 0, 0, -0.0995946, -0.00000000000000383, 181.701568)"/>
<g clip-path="url(#clip-1)">
<path fill="none" stroke-width="5" stroke-linecap="round" stroke-linejoin="round" stroke="rgb(13.729858%, 12.159729%, 12.548828%)" stroke-opacity="1" stroke-miterlimit="10" d="M 1404.67902 289.713628 L 1476.493597 388.316494 M 1195.432285 2.494539 L 1404.67902 289.713628 " transform="matrix(0.0995946, 0, 0, -0.0995946, -0.00000000000000383, 181.701568)"/>
</g>
<path fill-rule="nonzero" fill="rgb(50.474548%, 20.516968%, 22.317505%)" fill-opacity="1" d="M 94.570312 26.390625 L 106.132812 28.429688 L 36.144531 45.738281 L 94.570312 26.390625 "/>
<path fill="none" stroke-width="5" stroke-linecap="round" stroke-linejoin="round" stroke="rgb(13.729858%, 12.159729%, 12.548828%)" stroke-opacity="1" stroke-miterlimit="10" d="M 949.552663 1559.431445 L 1065.648321 1538.957819 L 362.916596 1365.167325 Z M 949.552663 1559.431445 " transform="matrix(0.0995946, 0, 0, -0.0995946, -0.00000000000000383, 181.701568)"/>
<path fill-rule="nonzero" fill="rgb(40.431213%, 79.957581%, 77.702332%)" fill-opacity="1" d="M 94.570312 26.390625 L 162.351562 58.351562 L 106.132812 28.429688 L 94.570312 26.390625 "/>
<path fill="none" stroke-width="5" stroke-linecap="round" stroke-linejoin="round" stroke="rgb(13.729858%, 12.159729%, 12.548828%)" stroke-opacity="1" stroke-miterlimit="10" d="M 949.552663 1559.431445 L 1630.124237 1238.521082 L 1065.648321 1538.957819 Z M 949.552663 1559.431445 " transform="matrix(0.0995946, 0, 0, -0.0995946, -0.00000000000000383, 181.701568)"/>
<g clip-path="url(#clip-2)">
<path fill="none" stroke-width="5" stroke-linecap="round" stroke-linejoin="round" stroke="rgb(13.729858%, 12.159729%, 12.548828%)" stroke-opacity="1" stroke-miterlimit="10" d="M 1528.187542 1489.891715 L 1581.175797 1397.485846 M 1372.242834 1761.696752 L 1528.187542 1489.891715 M 1581.175797 1397.485846 L 1649.264332 1250.71897 M 1649.264332 1250.71897 L 1839.998516 839.716808 " transform="matrix(0.0995946, 0, 0, -0.0995946, -0.00000000000000383, 181.701568)"/>
</g>
<path fill="none" stroke-width="83.831" stroke-linecap="round" stroke-linejoin="round" stroke="rgb(13.729858%, 12.159729%, 12.548828%)" stroke-opacity="1" stroke-miterlimit="10" d="M 1065.648321 1538.957819 L 1065.648321 1538.957819 " transform="matrix(0.0995946, 0, 0, -0.0995946, -0.00000000000000383, 181.701568)"/>
<g clip-path="url(#clip-3)">
<path fill="none" stroke-width="5" stroke-linecap="round" stroke-linejoin="round" stroke="rgb(13.729858%, 12.159729%, 12.548828%)" stroke-opacity="1" stroke-miterlimit="10" d="M 1839.998516 839.716808 L 1824.937458 781.355207 " transform="matrix(0.0995946, 0, 0, -0.0995946, -0.00000000000000383, 181.701568)"/>
</g>
<path fill-rule="nonzero" fill="rgb(31.463623%, 16.127014%, 41.230774%)" fill-opacity="1" d="M 29.367188 122.882812 L 41.34375 91.535156 L 81.765625 160.800781 L 29.367188 122.882812 "/>
<path fill="none" stroke-width="5" stroke-linecap="round" stroke-linejoin="round" stroke="rgb(13.729858%, 12.159729%, 12.548828%)" stroke-opacity="1" stroke-miterlimit="10" d="M 294.867283 590.581801 L 415.120421 905.334388 L 820.984566 209.858641 Z M 294.867283 590.581801 " transform="matrix(0.0995946, 0, 0, -0.0995946, -0.00000000000000383, 181.701568)"/>
<path fill="none" stroke-width="5" stroke-linecap="round" stroke-linejoin="round" stroke="rgb(13.729858%, 12.159729%, 12.548828%)" stroke-opacity="1" stroke-miterlimit="10" d="M 528.274466 205.740383 L 542.551094 86.546226 M 499.99576 442.089179 L 528.274466 205.740383 " transform="matrix(0.0995946, 0, 0, -0.0995946, -0.00000000000000383, 181.701568)"/>
<path fill-rule="nonzero" fill="rgb(21.531677%, 27.664185%, 56.661987%)" fill-opacity="1" d="M 36.144531 45.738281 L 29.367188 122.882812 L 41.34375 91.535156 L 36.144531 45.738281 "/>
<path fill="none" stroke-width="5" stroke-linecap="round" stroke-linejoin="round" stroke="rgb(13.729858%, 12.159729%, 12.548828%)" stroke-opacity="1" stroke-miterlimit="10" d="M 362.916596 1365.167325 L 294.867283 590.581801 L 415.120421 905.334388 Z M 362.916596 1365.167325 " transform="matrix(0.0995946, 0, 0, -0.0995946, -0.00000000000000383, 181.701568)"/>
<path fill="none" stroke-width="83.831" stroke-linecap="round" stroke-linejoin="round" stroke="rgb(13.729858%, 12.159729%, 12.548828%)" stroke-opacity="1" stroke-miterlimit="10" d="M 294.867283 590.581801 L 294.867283 590.581801 " transform="matrix(0.0995946, 0, 0, -0.0995946, -0.00000000000000383, 181.701568)"/>
<g clip-path="url(#clip-4)">
<path fill="none" stroke-width="5" stroke-linecap="round" stroke-linejoin="round" stroke="rgb(13.729858%, 12.159729%, 12.548828%)" stroke-opacity="1" stroke-miterlimit="10" d="M 542.551094 86.546226 L 1195.432285 2.494539 " transform="matrix(0.0995946, 0, 0, -0.0995946, -0.00000000000000383, 181.701568)"/>
</g>
<path fill-rule="nonzero" fill="rgb(37.791443%, 55.783081%, 82.121277%)" fill-opacity="1" d="M 94.570312 26.390625 L 36.144531 45.738281 L 41.34375 91.535156 L 94.570312 26.390625 "/>
<path fill="none" stroke-width="5" stroke-linecap="round" stroke-linejoin="round" stroke="rgb(13.729858%, 12.159729%, 12.548828%)" stroke-opacity="1" stroke-miterlimit="10" d="M 949.552663 1559.431445 L 362.916596 1365.167325 L 415.120421 905.334388 Z M 949.552663 1559.431445 " transform="matrix(0.0995946, 0, 0, -0.0995946, -0.00000000000000383, 181.701568)"/>
<path fill="none" stroke-width="83.831" stroke-linecap="round" stroke-linejoin="round" stroke="rgb(13.729858%, 12.159729%, 12.548828%)" stroke-opacity="1" stroke-miterlimit="10" d="M 362.916596 1365.167325 L 362.916596 1365.167325 " transform="matrix(0.0995946, 0, 0, -0.0995946, -0.00000000000000383, 181.701568)"/>
<g clip-path="url(#clip-5)">
<path fill="none" stroke-width="5" stroke-linecap="round" stroke-linejoin="round" stroke="rgb(13.729858%, 12.159729%, 12.548828%)" stroke-opacity="1" stroke-miterlimit="10" d="M 1372.242834 1761.696752 L 701.672744 1821.27422 " transform="matrix(0.0995946, 0, 0, -0.0995946, -0.00000000000000383, 181.701568)"/>
</g>
<path fill-rule="nonzero" fill="rgb(79.933167%, 47.825623%, 45.381165%)" fill-opacity="1" d="M 81.765625 160.800781 L 126.878906 100.972656 L 154.066406 137.582031 L 81.765625 160.800781 "/>
<path fill="none" stroke-width="5" stroke-linecap="round" stroke-linejoin="round" stroke="rgb(13.729858%, 12.159729%, 12.548828%)" stroke-opacity="1" stroke-miterlimit="10" d="M 820.984566 209.858641 L 1273.95374 810.575229 L 1546.935422 442.991274 Z M 820.984566 209.858641 " transform="matrix(0.0995946, 0, 0, -0.0995946, -0.00000000000000383, 181.701568)"/>
<path fill-rule="nonzero" fill="rgb(94.258118%, 74.54834%, 56.315613%)" fill-opacity="1" d="M 126.878906 100.972656 L 154.066406 137.582031 L 162.351562 58.351562 L 126.878906 100.972656 "/>
<path fill="none" stroke-width="5" stroke-linecap="round" stroke-linejoin="round" stroke="rgb(13.729858%, 12.159729%, 12.548828%)" stroke-opacity="1" stroke-miterlimit="10" d="M 1273.95374 810.575229 L 1546.935422 442.991274 L 1630.124237 1238.521082 Z M 1273.95374 810.575229 " transform="matrix(0.0995946, 0, 0, -0.0995946, -0.00000000000000383, 181.701568)"/>
<path fill="none" stroke-width="83.831" stroke-linecap="round" stroke-linejoin="round" stroke="rgb(13.729858%, 12.159729%, 12.548828%)" stroke-opacity="1" stroke-miterlimit="10" d="M 1546.935422 442.991274 L 1546.935422 442.991274 " transform="matrix(0.0995946, 0, 0, -0.0995946, -0.00000000000000383, 181.701568)"/>
<path fill="none" stroke-width="5" stroke-linecap="round" stroke-linejoin="round" stroke="rgb(13.729858%, 12.159729%, 12.548828%)" stroke-opacity="1" stroke-miterlimit="10" d="M 1372.242834 1761.696752 L 1406.757759 1670.742079 " transform="matrix(0.0995946, 0, 0, -0.0995946, -0.00000000000000383, 181.701568)"/>
<path fill-rule="nonzero" fill="rgb(84.056091%, 82.08313%, 85.124207%)" fill-opacity="1" d="M 94.570312 26.390625 L 126.878906 100.972656 L 162.351562 58.351562 L 94.570312 26.390625 "/>
<path fill="none" stroke-width="5" stroke-linecap="round" stroke-linejoin="round" stroke="rgb(13.729858%, 12.159729%, 12.548828%)" stroke-opacity="1" stroke-miterlimit="10" d="M 949.552663 1559.431445 L 1273.95374 810.575229 L 1630.124237 1238.521082 Z M 949.552663 1559.431445 " transform="matrix(0.0995946, 0, 0, -0.0995946, -0.00000000000000383, 181.701568)"/>
<path fill="none" stroke-width="5" stroke-linecap="round" stroke-linejoin="round" stroke="rgb(13.729858%, 12.159729%, 12.548828%)" stroke-opacity="1" stroke-miterlimit="10" d="M 1406.757759 1670.742079 L 1509.086669 1401.015782 " transform="matrix(0.0995946, 0, 0, -0.0995946, -0.00000000000000383, 181.701568)"/>
<path fill="none" stroke-width="83.831" stroke-linecap="round" stroke-linejoin="round" stroke="rgb(13.729858%, 12.159729%, 12.548828%)" stroke-opacity="1" stroke-miterlimit="10" d="M 1630.124237 1238.521082 L 1630.124237 1238.521082 " transform="matrix(0.0995946, 0, 0, -0.0995946, -0.00000000000000383, 181.701568)"/>
<path fill="none" stroke-width="5" stroke-linecap="round" stroke-linejoin="round" stroke="rgb(13.729858%, 12.159729%, 12.548828%)" stroke-opacity="1" stroke-miterlimit="10" d="M 2.510176 981.149559 L 335.265434 1514.365935 M 233.956284 353.958455 L 2.510176 981.149559 " transform="matrix(0.0995946, 0, 0, -0.0995946, -0.00000000000000383, 181.701568)"/>
<path fill-rule="nonzero" fill="rgb(66.079712%, 48.06366%, 64.941406%)" fill-opacity="1" d="M 41.34375 91.535156 L 81.765625 160.800781 L 126.878906 100.972656 L 41.34375 91.535156 "/>
<path fill="none" stroke-width="5" stroke-linecap="round" stroke-linejoin="round" stroke="rgb(13.729858%, 12.159729%, 12.548828%)" stroke-opacity="1" stroke-miterlimit="10" d="M 415.120421 905.334388 L 820.984566 209.858641 L 1273.95374 810.575229 Z M 415.120421 905.334388 " transform="matrix(0.0995946, 0, 0, -0.0995946, -0.00000000000000383, 181.701568)"/>
<g clip-path="url(#clip-6)">
<path fill="none" stroke-width="5" stroke-linecap="round" stroke-linejoin="round" stroke="rgb(13.729858%, 12.159729%, 12.548828%)" stroke-opacity="1" stroke-miterlimit="10" d="M 1331.687797 151.418597 L 1386.833234 211.623609 M 1195.432285 2.494539 L 1331.687797 151.418597 M 233.956284 353.958455 L 322.12623 277.554961 M 322.12623 277.554961 L 542.551094 86.546226 " transform="matrix(0.0995946, 0, 0, -0.0995946, -0.00000000000000383, 181.701568)"/>
</g>
<path fill="none" stroke-width="83.831" stroke-linecap="round" stroke-linejoin="round" stroke="rgb(13.729858%, 12.159729%, 12.548828%)" stroke-opacity="1" stroke-miterlimit="10" d="M 820.984566 209.858641 L 820.984566 209.858641 " transform="matrix(0.0995946, 0, 0, -0.0995946, -0.00000000000000383, 181.701568)"/>
<path fill="none" stroke-width="5" stroke-linecap="round" stroke-linejoin="round" stroke="rgb(13.729858%, 12.159729%, 12.548828%)" stroke-opacity="1" stroke-miterlimit="10" d="M 233.956284 353.958455 L 757.210397 454.87539 " transform="matrix(0.0995946, 0, 0, -0.0995946, -0.00000000000000383, 181.701568)"/>
<path fill-rule="nonzero" fill="rgb(68.22052%, 63.296509%, 82.150269%)" fill-opacity="1" d="M 94.570312 26.390625 L 41.34375 91.535156 L 126.878906 100.972656 L 94.570312 26.390625 "/>
<path fill="none" stroke-width="5" stroke-linecap="round" stroke-linejoin="round" stroke="rgb(13.729858%, 12.159729%, 12.548828%)" stroke-opacity="1" stroke-miterlimit="10" d="M 949.552663 1559.431445 L 415.120421 905.334388 L 1273.95374 810.575229 Z M 949.552663 1559.431445 " transform="matrix(0.0995946, 0, 0, -0.0995946, -0.00000000000000383, 181.701568)"/>
<g clip-path="url(#clip-7)">
<path fill="none" stroke-width="5" stroke-linecap="round" stroke-linejoin="round" stroke="rgb(13.729858%, 12.159729%, 12.548828%)" stroke-opacity="1" stroke-miterlimit="10" d="M 335.265434 1514.365935 L 439.359311 1601.555343 M 439.359311 1601.555343 L 701.672744 1821.27422 " transform="matrix(0.0995946, 0, 0, -0.0995946, -0.00000000000000383, 181.701568)"/>
</g>
<path fill="none" stroke-width="83.831" stroke-linecap="round" stroke-linejoin="round" stroke="rgb(13.729858%, 12.159729%, 12.548828%)" stroke-opacity="1" stroke-miterlimit="10" d="M 949.552663 1559.431445 L 949.552663 1559.431445 " transform="matrix(0.0995946, 0, 0, -0.0995946, -0.00000000000000383, 181.701568)"/>
<path fill="none" stroke-width="5" stroke-linecap="round" stroke-linejoin="round" stroke="rgb(13.729858%, 12.159729%, 12.548828%)" stroke-opacity="1" stroke-miterlimit="10" d="M 1742.023194 944.006793 L 1824.937458 781.355207 M 1509.086669 1401.015782 L 1742.023194 944.006793 M 1386.833234 211.623609 L 1824.937458 781.355207 M 335.265434 1514.365935 L 461.794013 1439.688187 M 461.794013 1439.688187 L 829.456411 1222.714815 M 757.210397 454.87539 L 932.2952 387.257514 M 932.2952 387.257514 L 1386.833234 211.623609 " transform="matrix(0.0995946, 0, 0, -0.0995946, -0.00000000000000383, 181.701568)"/>
<path fill="none" stroke-width="83.831" stroke-linecap="round" stroke-linejoin="round" stroke="rgb(13.729858%, 12.159729%, 12.548828%)" stroke-opacity="1" stroke-miterlimit="10" d="M 415.120421 905.334388 L 415.120421 905.334388 " transform="matrix(0.0995946, 0, 0, -0.0995946, -0.00000000000000383, 181.701568)"/>
<path fill="none" stroke-width="5" stroke-linecap="round" stroke-linejoin="round" stroke="rgb(13.729858%, 12.159729%, 12.548828%)" stroke-opacity="1" stroke-miterlimit="10" d="M 1331.609354 1354.459854 L 1509.086669 1401.015782 M 829.456411 1222.714815 L 1331.609354 1354.459854 " transform="matrix(0.0995946, 0, 0, -0.0995946, -0.00000000000000383, 181.701568)"/>
<path fill="none" stroke-width="83.831" stroke-linecap="round" stroke-linejoin="round" stroke="rgb(13.729858%, 12.159729%, 12.548828%)" stroke-opacity="1" stroke-miterlimit="10" d="M 1273.95374 810.575229 L 1273.95374 810.575229 " transform="matrix(0.0995946, 0, 0, -0.0995946, -0.00000000000000383, 181.701568)"/>
<path fill="none" stroke-width="5" stroke-linecap="round" stroke-linejoin="round" stroke="rgb(13.729858%, 12.159729%, 12.548828%)" stroke-opacity="1" stroke-miterlimit="10" d="M 757.210397 454.87539 L 829.456411 1222.714815 " transform="matrix(0.0995946, 0, 0, -0.0995946, -0.00000000000000383, 181.701568)"/>
</svg>
