<?xml version="1.0" encoding="UTF-8"?>
<svg xmlns="http://www.w3.org/2000/svg" xmlns:xlink="http://www.w3.org/1999/xlink" width="350" height="229.69" viewBox="0 0 350 229.69">
<path fill="none" stroke-width="5" stroke-linecap="round" stroke-linejoin="round" stroke="rgb(0%, 0%, 0%)" stroke-opacity="1" stroke-miterlimit="10" d="M 1100.217957 575.517376 C 1100.217957 849.48038 878.121735 1071.576602 604.15873 1071.576602 C 330.234841 1071.576602 108.138619 849.48038 108.138619 575.517376 C 108.138619 301.593486 330.234841 79.497264 604.15873 79.497264 C 878.121735 79.497264 1100.217957 301.593486 1100.217957 575.517376 C 1100.217957 592.063114 1099.357422 608.608852 1097.714583 625.037245 " transform="matrix(0.0998652, 0, 0, -0.0998652, 0.23587, 229.380418)"/>
<path fill="none" stroke-width="5" stroke-linecap="round" stroke-linejoin="round" stroke="rgb(0%, 0%, 0%)" stroke-opacity="1" stroke-miterlimit="10" d="M 1005.480893 575.517376 C 1005.480893 797.144215 825.78557 976.839538 604.15873 976.839538 C 382.531891 976.839538 202.875683 797.144215 202.875683 575.517376 C 202.875683 353.890536 382.531891 174.234328 604.15873 174.234328 C 825.78557 174.234328 1005.480893 353.890536 1005.480893 575.517376 C 1005.480893 588.894781 1004.815934 602.272186 1003.446901 615.610477 " transform="matrix(0.0998652, 0, 0, -0.0998652, 0.23587, 229.380418)"/>
<path fill="none" stroke-width="5" stroke-linecap="round" stroke-linejoin="round" stroke="rgb(0%, 0%, 0%)" stroke-opacity="1" stroke-miterlimit="10" d="M 1100.217957 575.517376 L 757.451279 1047.28605 L 202.875683 867.082229 L 202.875683 283.952522 L 757.451279 103.787816 L 1100.217957 575.517376 " transform="matrix(0.0998652, 0, 0, -0.0998652, 0.23587, 229.380418)"/>
<path fill="none" stroke-width="5" stroke-linecap="round" stroke-linejoin="round" stroke="rgb(0%, 0%, 0%)" stroke-opacity="1" stroke-miterlimit="10" d="M 2112.246057 530.730448 C 2112.246057 745.62947 1938.026865 919.848662 1723.127844 919.848662 C 1508.228822 919.848662 1334.00963 745.62947 1334.00963 530.730448 C 1334.00963 315.831427 1508.228822 141.612234 1723.127844 141.612234 C 1938.026865 141.612234 2112.246057 315.831427 2112.246057 530.730448 C 2112.246057 543.677586 2111.581098 556.663839 2110.290296 569.571862 " transform="matrix(0.0998652, 0, 0, -0.0998652, 0.23587, 229.380418)"/>
<path fill="none" stroke-width="5" stroke-linecap="round" stroke-linejoin="round" stroke="rgb(0%, 0%, 0%)" stroke-opacity="1" stroke-miterlimit="10" d="M 2246.020111 575.517376 C 2246.020111 849.48038 2023.963004 1071.576602 1750 1071.576602 C 1476.036996 1071.576602 1253.979889 849.48038 1253.979889 575.517376 C 1253.979889 301.593486 1476.036996 79.497264 1750 79.497264 C 2023.963004 79.497264 2246.020111 301.593486 2246.020111 575.517376 C 2246.020111 592.063114 2245.198692 608.608852 2243.555852 625.037245 " transform="matrix(0.0998652, 0, 0, -0.0998652, 0.23587, 229.380418)"/>
<path fill="none" stroke-width="5" stroke-linecap="round" stroke-linejoin="round" stroke="rgb(0%, 0%, 0%)" stroke-opacity="1" stroke-miterlimit="10" d="M 2073.991372 362.535 L 2097.929886 376.890286 L 2122.728936 395.157094 L 2147.801793 418.078613 L 2172.366151 446.358917 L 2195.20944 480.584735 L 2214.727935 521.186334 L 2229.044106 567.968138 L 2236.006615 620.147842 L 2233.581471 676.121723 L 2220.282296 733.26906 L 2195.561477 788.382406 L 2160.201318 838.176081 L 2116.157579 879.67733 L 2066.324788 911.125968 L 2013.988623 931.817919 L 1961.96538 942.339914 L 1912.680202 944.021868 L 1867.541238 938.623968 L 1827.409021 927.945512 L 1792.361784 913.629342 " transform="matrix(0.0998652, 0, 0, -0.0998652, 0.23587, 229.380418)"/>
<path fill="none" stroke-width="5" stroke-linecap="round" stroke-linejoin="round" stroke="rgb(0%, 0%, 0%)" stroke-opacity="1" stroke-miterlimit="10" d="M 1792.361784 913.629342 L 1764.707323 938.897774 L 1731.381155 961.780178 L 1692.578856 980.633714 L 1648.84804 993.854659 L 1601.440392 999.917518 L 1552.233445 997.648835 L 1503.378535 986.540113 L 1457.300805 966.943387 L 1416.073362 939.91477 L 1381.182586 907.253561 L 1353.48901 870.876406 L 1333.070865 832.778181 L 1319.497883 794.719071 L 1311.90953 757.989879 L 1309.28881 723.45114 L 1310.657843 691.650465 L 1315.077863 662.822548 L 1321.727451 636.967387 L 1329.902532 614.006753 L 1339.133724 593.705953 " transform="matrix(0.0998652, 0, 0, -0.0998652, 0.23587, 229.380418)"/>
<path fill="none" stroke-width="5" stroke-linecap="round" stroke-linejoin="round" stroke="rgb(0%, 0%, 0%)" stroke-opacity="1" stroke-miterlimit="10" d="M 1339.133724 593.705953 L 1324.504631 577.512252 L 1311.244571 559.128098 L 1299.862042 538.592607 L 1290.787311 516.257817 L 1284.372415 492.514878 L 1280.930276 467.833174 L 1280.617354 442.799432 L 1283.472765 418.039498 L 1289.300933 394.061868 L 1297.906281 371.414155 L 1308.897658 350.526627 L 1321.805681 331.673091 L 1336.200082 315.088237 L 1351.611479 300.772067 L 1367.648719 288.763694 L 1383.881536 278.867543 L 1400.075237 271.005384 L 1415.956017 264.98164 L 1431.289183 260.56162 L 1446.035621 257.549748 " transform="matrix(0.0998652, 0, 0, -0.0998652, 0.23587, 229.380418)"/>
<path fill="none" stroke-width="5" stroke-linecap="round" stroke-linejoin="round" stroke="rgb(0%, 0%, 0%)" stroke-opacity="1" stroke-miterlimit="10" d="M 1446.035621 257.549748 L 1448.891032 242.88154 L 1453.193707 227.783065 L 1459.100105 212.489014 L 1466.766688 197.155848 L 1476.232572 182.096488 L 1487.575986 167.623856 L 1500.757815 153.972644 L 1515.660714 141.573119 L 1532.167337 130.699088 L 1549.964762 121.624357 L 1568.818299 114.544502 L 1588.297678 109.694214 L 1608.08998 107.034379 L 1627.764936 106.643227 L 1647.009624 108.364297 L 1665.472008 112.041128 L 1682.956512 117.478143 L 1699.189329 124.401537 L 1714.053112 132.537503 L 1727.547863 141.65135 " transform="matrix(0.0998652, 0, 0, -0.0998652, 0.23587, 229.380418)"/>
<path fill="none" stroke-width="5" stroke-linecap="round" stroke-linejoin="round" stroke="rgb(0%, 0%, 0%)" stroke-opacity="1" stroke-miterlimit="10" d="M 1727.547863 141.65135 L 1741.316421 132.615734 L 1756.806048 124.088616 L 1774.094976 116.382917 L 1793.261434 109.772445 L 1814.344538 104.648351 L 1837.266057 101.519133 L 1861.830415 100.815059 L 1887.724691 103.044627 L 1914.479502 108.638104 L 1941.469004 117.947526 L 1967.989124 131.168471 L 1993.140211 148.340052 L 2016.13996 169.22758 L 2036.166953 193.361671 L 2052.556231 220.077367 L 2064.955756 248.553247 L 2073.091721 277.811432 L 2077.120589 307.108732 L 2077.27705 335.545498 L 2073.991372 362.535 " transform="matrix(0.0998652, 0, 0, -0.0998652, 0.23587, 229.380418)"/>
<path fill="none" stroke-width="5" stroke-linecap="round" stroke-linejoin="round" stroke="rgb(0%, 0%, 0%)" stroke-opacity="1" stroke-miterlimit="10" d="M 3391.861381 575.517376 C 3391.861381 849.48038 3169.765159 1071.576602 2895.84127 1071.576602 C 2621.878265 1071.576602 2399.782043 849.48038 2399.782043 575.517376 C 2399.782043 301.593486 2621.878265 79.497264 2895.84127 79.497264 C 3169.765159 79.497264 3391.861381 301.593486 3391.861381 575.517376 C 3391.861381 592.063114 3391.039961 608.608852 3389.397122 625.037245 " transform="matrix(0.0998652, 0, 0, -0.0998652, 0.23587, 229.380418)"/>
<path fill="none" stroke-width="5" stroke-linecap="round" stroke-linejoin="round" stroke="rgb(0%, 0%, 0%)" stroke-opacity="1" stroke-miterlimit="10" d="M 3340.268405 587.330172 C 3340.268405 800.195202 3167.731168 972.73244 2954.905253 972.73244 C 2742.079338 972.73244 2569.502985 800.195202 2569.502985 587.330172 C 2569.502985 374.504257 2742.079338 201.96702 2954.905253 201.96702 C 3167.731168 201.96702 3340.268405 374.504257 3340.268405 587.330172 C 3340.268405 600.19908 3339.642562 613.028872 3338.351759 625.819549 " transform="matrix(0.0998652, 0, 0, -0.0998652, 0.23587, 229.380418)"/>
<path fill="none" stroke-width="5" stroke-linecap="round" stroke-linejoin="round" stroke="rgb(0%, 0%, 0%)" stroke-opacity="1" stroke-miterlimit="10" d="M 2481.72843 302.493136 L 2485.679067 357.723828 L 2492.36777 411.585486 L 2501.638077 463.921651 L 2513.255298 514.614977 L 2526.98474 563.548118 L 2542.669944 610.642844 L 2560.076217 655.820923 L 2579.047099 699.043242 L 2599.387013 740.3098 L 2620.900385 779.581481 L 2643.391637 816.897401 L 2666.782538 852.257561 L 2690.838399 885.701074 L 2715.480988 917.306172 L 2740.553844 947.072855 L 2765.900507 975.079353 L 2791.520977 1001.403897 L 2817.258792 1026.085601 L 2842.996607 1049.202696 L 2868.695307 1070.833413 " transform="matrix(0.0998652, 0, 0, -0.0998652, 0.23587, 229.380418)"/>
<path fill="none" stroke-width="5" stroke-linecap="round" stroke-linejoin="round" stroke="rgb(0%, 0%, 0%)" stroke-opacity="1" stroke-miterlimit="10" d="M 2868.695307 1070.833413 L 2896.115076 1053.466255 L 2922.791657 1037.194323 L 2948.764163 1022.017618 L 2973.99348 1007.818793 L 2998.557839 994.519618 L 3022.418123 982.041862 L 3045.613449 970.385527 L 3068.182931 959.39415 L 3090.12657 949.145962 L 3111.444365 939.484502 L 3132.175432 930.409771 L 3152.358886 921.882653 L 3171.955611 913.903148 L 3191.043839 906.393026 L 3209.584454 899.313171 L 3227.694801 892.624468 L 3245.257535 886.366033 L 3262.350886 880.459635 L 3279.01397 874.905273 L 3295.246786 869.663834 " transform="matrix(0.0998652, 0, 0, -0.0998652, 0.23587, 229.380418)"/>
<path fill="none" stroke-width="5" stroke-linecap="round" stroke-linejoin="round" stroke="rgb(0%, 0%, 0%)" stroke-opacity="1" stroke-miterlimit="10" d="M 3295.246786 869.663834 L 3295.637939 852.844289 L 3296.498473 836.102975 L 3297.906621 819.400776 L 3299.823267 802.737692 L 3302.248411 786.231069 L 3305.142937 769.802676 L 3308.545961 753.530744 L 3312.418368 737.415273 L 3316.799273 721.534494 L 3321.610445 705.810175 L 3326.851885 690.320548 L 3332.562707 675.065612 L 3338.664681 660.084482 L 3345.196923 645.416275 L 3352.081202 630.982758 L 3359.317518 616.862164 L 3366.944986 603.093606 L 3374.885375 589.63797 L 3383.177802 576.534371 L 3391.744035 563.743694 " transform="matrix(0.0998652, 0, 0, -0.0998652, 0.23587, 229.380418)"/>
<path fill="none" stroke-width="5" stroke-linecap="round" stroke-linejoin="round" stroke="rgb(0%, 0%, 0%)" stroke-opacity="1" stroke-miterlimit="10" d="M 3391.744035 563.743694 L 3382.434613 551.344169 L 3373.12519 538.475262 L 3363.815768 525.136972 L 3354.545461 511.290184 L 3345.314269 496.895782 L 3336.122192 481.992883 L 3327.047461 466.503256 L 3318.011845 450.466016 L 3309.13269 433.842047 L 3300.37088 416.592235 L 3291.765532 398.677464 L 3283.355759 380.136849 L 3275.180678 360.931276 L 3267.240289 341.060744 L 3259.612821 320.447023 L 3252.298274 299.129227 L 3245.37488 277.107358 L 3238.842638 254.303185 L 3232.779779 230.755822 L 3227.225418 206.426155 " transform="matrix(0.0998652, 0, 0, -0.0998652, 0.23587, 229.380418)"/>
<path fill="none" stroke-width="5" stroke-linecap="round" stroke-linejoin="round" stroke="rgb(0%, 0%, 0%)" stroke-opacity="1" stroke-miterlimit="10" d="M 3227.225418 206.426155 L 3201.604949 203.961896 L 3175.084829 201.849674 L 3147.547714 200.128604 L 3118.954488 198.798687 L 3089.30515 197.977267 L 3058.521472 197.703461 L 3026.564337 198.016382 L 2993.39463 198.994263 L 2958.895005 200.715333 L 2923.104578 203.257822 L 2885.906004 206.778192 L 2847.299281 211.315557 L 2807.20618 217.065495 L 2765.587585 224.028004 L 2722.365267 232.476892 L 2677.578339 242.529503 L 2631.148573 254.3423 L 2582.997736 268.110858 L 2533.20406 284.108983 L 2481.72843 302.493136 " transform="matrix(0.0998652, 0, 0, -0.0998652, 0.23587, 229.380418)"/>
<path fill="none" stroke-width="5" stroke-linecap="round" stroke-linejoin="round" stroke="rgb(0%, 0%, 0%)" stroke-opacity="1" stroke-miterlimit="10" d="M 1000.982642 1721.358645 C 1000.982642 1940.521226 823.321311 2118.182557 604.15873 2118.182557 C 384.99615 2118.182557 207.334818 1940.521226 207.334818 1721.358645 C 207.334818 1502.196065 384.99615 1324.534733 604.15873 1324.534733 C 823.321311 1324.534733 1000.982642 1502.196065 1000.982642 1721.358645 C 1000.982642 1734.57959 1000.317684 1747.800534 999.026881 1760.982364 " transform="matrix(0.0998652, 0, 0, -0.0998652, 0.23587, 229.380418)"/>
<path fill="none" stroke-width="5" stroke-linecap="round" stroke-linejoin="round" stroke="rgb(0%, 0%, 0%)" stroke-opacity="1" stroke-miterlimit="10" d="M 1100.217957 1721.358645 C 1100.217957 1995.32165 878.121735 2217.378757 604.15873 2217.378757 C 330.234841 2217.378757 108.138619 1995.32165 108.138619 1721.358645 C 108.138619 1447.395641 330.234841 1225.338534 604.15873 1225.338534 C 878.121735 1225.338534 1100.217957 1447.395641 1100.217957 1721.358645 C 1100.217957 1737.904384 1099.357422 1754.411007 1097.714583 1770.878515 " transform="matrix(0.0998652, 0, 0, -0.0998652, 0.23587, 229.380418)"/>
<path fill="none" stroke-width="5" stroke-linecap="round" stroke-linejoin="round" stroke="rgb(0%, 0%, 0%)" stroke-opacity="1" stroke-miterlimit="10" d="M 901.786443 1721.358645 C 901.786443 1885.720802 768.520887 2018.986358 604.15873 2018.986358 C 439.796574 2018.986358 306.570133 1885.720802 306.570133 1721.358645 C 306.570133 1556.996489 439.796574 1423.730932 604.15873 1423.730932 C 768.520887 1423.730932 901.786443 1556.996489 901.786443 1721.358645 C 901.786443 1731.293911 901.277945 1741.190062 900.300065 1751.086213 " transform="matrix(0.0998652, 0, 0, -0.0998652, 0.23587, 229.380418)"/>
<path fill="none" stroke-width="5" stroke-linecap="round" stroke-linejoin="round" stroke="rgb(0%, 0%, 0%)" stroke-opacity="1" stroke-miterlimit="10" d="M 726.784947 1721.358645 C 726.784947 1789.067092 671.906292 1843.984862 604.15873 1843.984862 C 536.450284 1843.984862 481.532514 1789.067092 481.532514 1721.358645 C 481.532514 1653.650199 536.450284 1598.732429 604.15873 1598.732429 C 671.906292 1598.732429 726.784947 1653.650199 726.784947 1721.358645 C 726.784947 1725.465744 726.58937 1729.533726 726.198218 1733.601709 " transform="matrix(0.0998652, 0, 0, -0.0998652, 0.23587, 229.380418)"/>
<path fill="none" stroke-width="5" stroke-linecap="round" stroke-linejoin="round" stroke="rgb(0%, 0%, 0%)" stroke-opacity="1" stroke-miterlimit="10" d="M 726.784947 2098.781408 L 283.140115 1488.114585 L 1000.982642 1721.358645 L 283.140115 1954.602705 L 726.784947 1343.935883 L 726.784947 2098.781408 " transform="matrix(0.0998652, 0, 0, -0.0998652, 0.23587, 229.380418)"/>
<path fill="none" stroke-width="5" stroke-linecap="round" stroke-linejoin="round" stroke="rgb(0%, 0%, 0%)" stroke-opacity="1" stroke-miterlimit="10" d="M 757.451279 2193.12732 L 450.905296 1249.629086 " transform="matrix(0.0998652, 0, 0, -0.0998652, 0.23587, 229.380418)"/>
<path fill="none" stroke-width="5" stroke-linecap="round" stroke-linejoin="round" stroke="rgb(0%, 0%, 0%)" stroke-opacity="1" stroke-miterlimit="10" d="M 202.875683 2012.923499 L 1005.480893 1429.793792 " transform="matrix(0.0998652, 0, 0, -0.0998652, 0.23587, 229.380418)"/>
<path fill="none" stroke-width="5" stroke-linecap="round" stroke-linejoin="round" stroke="rgb(0%, 0%, 0%)" stroke-opacity="1" stroke-miterlimit="10" d="M 202.875683 1429.793792 L 1005.480893 2012.923499 " transform="matrix(0.0998652, 0, 0, -0.0998652, 0.23587, 229.380418)"/>
<path fill="none" stroke-width="5" stroke-linecap="round" stroke-linejoin="round" stroke="rgb(0%, 0%, 0%)" stroke-opacity="1" stroke-miterlimit="10" d="M 757.451279 1249.629086 L 450.905296 2193.12732 " transform="matrix(0.0998652, 0, 0, -0.0998652, 0.23587, 229.380418)"/>
<path fill="none" stroke-width="5" stroke-linecap="round" stroke-linejoin="round" stroke="rgb(0%, 0%, 0%)" stroke-opacity="1" stroke-miterlimit="10" d="M 1100.217957 1721.358645 L 108.138619 1721.358645 " transform="matrix(0.0998652, 0, 0, -0.0998652, 0.23587, 229.380418)"/>
<path fill="none" stroke-width="5" stroke-linecap="round" stroke-linejoin="round" stroke="rgb(0%, 0%, 0%)" stroke-opacity="1" stroke-miterlimit="10" d="M 2202.641332 1721.358645 C 2202.641332 1925.109829 2037.457756 2090.293405 1833.706572 2090.293405 C 1629.955388 2090.293405 1464.771812 1925.109829 1464.771812 1721.358645 C 1464.771812 1517.607462 1629.955388 1352.423885 1833.706572 1352.423885 C 2037.457756 1352.423885 2202.641332 1517.607462 2202.641332 1721.358645 C 2202.641332 1733.640825 2202.015488 1745.962119 2200.802916 1758.205183 " transform="matrix(0.0998652, 0, 0, -0.0998652, 0.23587, 229.380418)"/>
<path fill="none" stroke-width="5" stroke-linecap="round" stroke-linejoin="round" stroke="rgb(0%, 0%, 0%)" stroke-opacity="1" stroke-miterlimit="10" d="M 2246.020111 1721.358645 C 2246.020111 1995.32165 2023.963004 2217.378757 1750 2217.378757 C 1476.036996 2217.378757 1253.979889 1995.32165 1253.979889 1721.358645 C 1253.979889 1447.395641 1476.036996 1225.338534 1750 1225.338534 C 2023.963004 1225.338534 2246.020111 1447.395641 2246.020111 1721.358645 C 2246.020111 1737.904384 2245.198692 1754.411007 2243.555852 1770.878515 " transform="matrix(0.0998652, 0, 0, -0.0998652, 0.23587, 229.380418)"/>
<path fill="none" stroke-width="5" stroke-linecap="round" stroke-linejoin="round" stroke="rgb(0%, 0%, 0%)" stroke-opacity="1" stroke-miterlimit="10" d="M 2153.434384 1721.358645 C 2153.434384 1866.241422 2035.971377 1983.704429 1891.0886 1983.704429 C 1746.205824 1983.704429 1628.742816 1866.241422 1628.742816 1721.358645 C 1628.742816 1576.475869 1746.205824 1459.012861 1891.0886 1459.012861 C 2035.971377 1459.012861 2153.434384 1576.475869 2153.434384 1721.358645 C 2153.434384 1730.120455 2153.004117 1738.843149 2152.143582 1747.565843 " transform="matrix(0.0998652, 0, 0, -0.0998652, 0.23587, 229.380418)"/>
<path fill="none" stroke-width="5" stroke-linecap="round" stroke-linejoin="round" stroke="rgb(0%, 0%, 0%)" stroke-opacity="1" stroke-miterlimit="10" d="M 2048.566478 1721.358645 C 2048.566478 1777.919254 2002.684325 1823.801408 1946.123716 1823.801408 C 1889.563107 1823.801408 1843.680953 1777.919254 1843.680953 1721.358645 C 1843.680953 1664.798036 1889.563107 1618.915883 1946.123716 1618.915883 C 2002.684325 1618.915883 2048.566478 1664.798036 2048.566478 1721.358645 C 2048.566478 1724.76167 2048.370902 1728.203809 2048.05798 1731.606833 " transform="matrix(0.0998652, 0, 0, -0.0998652, 0.23587, 229.380418)"/>
<path fill="none" stroke-width="5" stroke-linecap="round" stroke-linejoin="round" stroke="rgb(0%, 0%, 0%)" stroke-opacity="1" stroke-miterlimit="10" d="M 1965.48575 2065.924623 L 1964.820791 2031.816151 L 1966.268054 1998.450867 L 1969.671078 1965.946119 L 1974.873403 1934.458367 L 1981.757682 1904.144071 L 1990.128339 1875.042347 L 1999.789798 1847.231425 L 2010.624714 1820.789536 L 2022.476626 1795.677564 L 2035.189073 1771.934625 L 2048.605593 1749.599835 L 2062.608842 1728.594961 L 2077.081474 1708.920005 L 2091.945258 1690.535852 L 2107.043733 1673.403385 L 2122.298669 1657.444375 L 2137.670951 1642.658822 L 2153.043232 1628.929379 L 2168.376399 1616.256048 L 2183.67045 1604.560597 " transform="matrix(0.0998652, 0, 0, -0.0998652, 0.23587, 229.380418)"/>
<path fill="none" stroke-width="5" stroke-linecap="round" stroke-linejoin="round" stroke="rgb(0%, 0%, 0%)" stroke-opacity="1" stroke-miterlimit="10" d="M 2183.67045 1604.560597 L 2164.308416 1604.795288 L 2143.929386 1605.225556 L 2122.494245 1605.851399 L 2099.963878 1606.711934 L 2076.142709 1607.846275 L 2050.991622 1609.332654 L 2024.432387 1611.131954 L 1996.269428 1613.439752 L 1966.3854 1616.216933 L 1934.623841 1619.580842 L 1900.867406 1623.648825 L 1864.842287 1628.499112 L 1826.431141 1634.32728 L 1785.281929 1641.250674 L 1741.238191 1649.503985 L 1693.947889 1659.321906 L 1643.019872 1671.017357 L 1588.180333 1684.90326 L 1528.920774 1701.527229 L 1464.771812 1721.358645 " transform="matrix(0.0998652, 0, 0, -0.0998652, 0.23587, 229.380418)"/>
<path fill="none" stroke-width="5" stroke-linecap="round" stroke-linejoin="round" stroke="rgb(0%, 0%, 0%)" stroke-opacity="1" stroke-miterlimit="10" d="M 1464.771812 1721.358645 L 1528.920774 1741.190062 L 1588.180333 1757.814031 L 1643.019872 1771.739049 L 1693.947889 1783.395385 L 1741.238191 1793.213305 L 1785.281929 1801.466617 L 1826.431141 1808.390011 L 1864.842287 1814.218179 L 1900.867406 1819.068466 L 1934.623841 1823.136449 L 1966.3854 1826.500358 L 1996.269428 1829.277539 L 2024.432387 1831.585337 L 2050.991622 1833.384637 L 2076.142709 1834.871015 L 2099.963878 1836.005357 L 2122.494245 1836.865892 L 2143.929386 1837.491735 L 2164.308416 1837.922002 L 2183.67045 1838.156694 " transform="matrix(0.0998652, 0, 0, -0.0998652, 0.23587, 229.380418)"/>
<path fill="none" stroke-width="5" stroke-linecap="round" stroke-linejoin="round" stroke="rgb(0%, 0%, 0%)" stroke-opacity="1" stroke-miterlimit="10" d="M 2183.67045 1838.156694 L 2168.376399 1826.461243 L 2153.043232 1813.787911 L 2137.670951 1800.058469 L 2122.298669 1785.2338 L 2107.043733 1769.313906 L 2091.945258 1752.181439 L 2077.081474 1733.797285 L 2062.608842 1714.12233 L 2048.605593 1693.117456 L 2035.189073 1670.782665 L 2022.476626 1647.039726 L 2010.624714 1621.927755 L 1999.789798 1595.485866 L 1990.128339 1567.674944 L 1981.757682 1538.57322 L 1974.873403 1508.258924 L 1969.671078 1476.771171 L 1966.268054 1444.266423 L 1964.820791 1410.90114 L 1965.48575 1376.792668 " transform="matrix(0.0998652, 0, 0, -0.0998652, 0.23587, 229.380418)"/>
<path fill="none" stroke-width="5" stroke-linecap="round" stroke-linejoin="round" stroke="rgb(0%, 0%, 0%)" stroke-opacity="1" stroke-miterlimit="10" d="M 1965.48575 1376.792668 L 1944.480876 1404.564474 L 1924.884151 1434.213812 L 1906.96938 1465.662449 L 1890.893024 1498.793041 L 1876.928891 1533.410011 L 1865.194324 1569.356898 L 1855.884902 1606.359897 L 1849.157084 1644.22343 L 1845.089101 1682.634577 L 1843.720068 1721.358645 L 1845.089101 1760.082714 L 1849.157084 1798.49386 L 1855.884902 1836.357394 L 1865.194324 1873.360392 L 1876.928891 1909.30728 L 1890.893024 1943.92425 L 1906.96938 1977.054842 L 1924.884151 2008.503479 L 1944.480876 2038.152816 L 1965.48575 2065.924623 " transform="matrix(0.0998652, 0, 0, -0.0998652, 0.23587, 229.380418)"/>
<path fill="none" stroke-width="5" stroke-linecap="round" stroke-linejoin="round" stroke="rgb(0%, 0%, 0%)" stroke-opacity="1" stroke-miterlimit="10" d="M 2004.835662 2146.932245 L 1983.478751 2107.425872 L 1965.48575 2065.924623 L 1951.169579 2022.976111 L 1940.6867 1978.971488 L 1934.115343 1934.458367 L 1931.455508 1889.984361 L 1932.550734 1846.018853 L 1937.322791 1802.952995 L 1945.458757 1761.295285 L 1956.684825 1721.358645 L 1970.688074 1683.416881 L 1987.077352 1647.704685 L 2005.50062 1614.339402 L 2025.644959 1583.438378 L 2047.15833 1555.079843 L 2069.649582 1529.146452 L 2092.884023 1505.677319 L 2116.626962 1484.5551 L 2140.565477 1465.701564 L 2164.543107 1448.96025 " transform="matrix(0.0998652, 0, 0, -0.0998652, 0.23587, 229.380418)"/>
<path fill="none" stroke-width="5" stroke-linecap="round" stroke-linejoin="round" stroke="rgb(0%, 0%, 0%)" stroke-opacity="1" stroke-miterlimit="10" d="M 2228.574723 1851.768791 L 2206.6702 1845.432125 L 2183.67045 1838.156694 L 2159.536359 1829.668691 L 2134.228811 1819.889886 L 2107.708692 1808.624702 L 2079.976 1795.638449 L 2050.991622 1780.696435 L 2020.755556 1763.563968 L 1989.306919 1743.889012 L 1956.684825 1721.358645 L 1923.00662 1695.581715 L 1888.467881 1666.127954 L 1853.264182 1632.488864 L 1817.747562 1594.234179 L 1782.387403 1550.816284 L 1747.731317 1501.648452 L 1714.56161 1446.300415 L 1683.856162 1384.263675 L 1656.749314 1315.186196 L 1634.649215 1238.911516 " transform="matrix(0.0998652, 0, 0, -0.0998652, 0.23587, 229.380418)"/>
<path fill="none" stroke-width="5" stroke-linecap="round" stroke-linejoin="round" stroke="rgb(0%, 0%, 0%)" stroke-opacity="1" stroke-miterlimit="10" d="M 2228.574723 1590.9485 L 2206.6702 1597.285166 L 2183.67045 1604.560597 L 2159.536359 1613.0486 L 2134.228811 1622.827405 L 2107.708692 1634.092588 L 2079.976 1647.078842 L 2050.991622 1661.981741 L 2020.755556 1679.153322 L 1989.306919 1698.828278 L 1956.684825 1721.358645 L 1923.00662 1747.135576 L 1888.467881 1776.628452 L 1853.264182 1810.228426 L 1817.747562 1848.483112 L 1782.387403 1891.901007 L 1747.731317 1941.068839 L 1714.56161 1996.416876 L 1683.856162 2058.453616 L 1656.749314 2127.531095 L 1634.649215 2203.805775 " transform="matrix(0.0998652, 0, 0, -0.0998652, 0.23587, 229.380418)"/>
<path fill="none" stroke-width="5" stroke-linecap="round" stroke-linejoin="round" stroke="rgb(0%, 0%, 0%)" stroke-opacity="1" stroke-miterlimit="10" d="M 2004.835662 1295.785046 L 1983.478751 1335.291419 L 1965.48575 1376.792668 L 1951.169579 1419.74118 L 1940.6867 1463.745803 L 1934.115343 1508.258924 L 1931.455508 1552.73293 L 1932.550734 1596.737553 L 1937.322791 1639.764295 L 1945.458757 1681.422005 L 1956.684825 1721.358645 L 1970.688074 1759.300409 L 1987.077352 1795.012606 L 2005.50062 1828.377889 L 2025.644959 1859.278913 L 2047.15833 1887.637448 L 2069.649582 1913.570839 L 2092.884023 1937.039971 L 2116.626962 1958.16219 L 2140.565477 1977.015727 L 2164.543107 1993.757041 " transform="matrix(0.0998652, 0, 0, -0.0998652, 0.23587, 229.380418)"/>
<path fill="none" stroke-width="5" stroke-linecap="round" stroke-linejoin="round" stroke="rgb(0%, 0%, 0%)" stroke-opacity="1" stroke-miterlimit="10" d="M 1253.979889 1721.358645 L 2246.020111 1721.358645 " transform="matrix(0.0998652, 0, 0, -0.0998652, 0.23587, 229.380418)"/>
<path fill="none" stroke-width="5" stroke-linecap="round" stroke-linejoin="round" stroke="rgb(0%, 0%, 0%)" stroke-opacity="1" stroke-miterlimit="10" d="M 3361.351509 1755.701809 C 3361.351509 1936.922626 3214.434741 2083.839394 3033.213924 2083.839394 C 2851.953992 2083.839394 2705.037224 1936.922626 2705.037224 1755.701809 C 2705.037224 1574.480992 2851.953992 1427.564224 3033.213924 1427.564224 C 3214.434741 1427.564224 3361.351509 1574.480992 3361.351509 1755.701809 C 3361.351509 1766.654071 3360.803896 1777.567217 3359.70867 1788.441249 " transform="matrix(0.0998652, 0, 0, -0.0998652, 0.23587, 229.380418)"/>
<path fill="none" stroke-width="5" stroke-linecap="round" stroke-linejoin="round" stroke="rgb(0%, 0%, 0%)" stroke-opacity="1" stroke-miterlimit="10" d="M 3391.861381 1721.358645 C 3391.861381 1995.32165 3169.765159 2217.378757 2895.84127 2217.378757 C 2621.878265 2217.378757 2399.782043 1995.32165 2399.782043 1721.358645 C 2399.782043 1447.395641 2621.878265 1225.338534 2895.84127 1225.338534 C 3169.765159 1225.338534 3391.861381 1447.395641 3391.861381 1721.358645 C 3391.861381 1737.904384 3391.039961 1754.411007 3389.397122 1770.878515 " transform="matrix(0.0998652, 0, 0, -0.0998652, 0.23587, 229.380418)"/>
<path fill="none" stroke-width="5" stroke-linecap="round" stroke-linejoin="round" stroke="rgb(0%, 0%, 0%)" stroke-opacity="1" stroke-miterlimit="10" d="M 3327.986226 1775.142074 C 3327.986226 1894.951994 3230.863133 1992.075087 3111.053213 1992.075087 C 2991.282408 1992.075087 2894.159315 1894.951994 2894.159315 1775.142074 C 2894.159315 1655.371268 2991.282408 1558.248176 3111.053213 1558.248176 C 3230.863133 1558.248176 3327.986226 1655.371268 3327.986226 1775.142074 C 3327.986226 1782.378389 3327.595074 1789.614705 3326.891 1796.811906 " transform="matrix(0.0998652, 0, 0, -0.0998652, 0.23587, 229.380418)"/>
<path fill="none" stroke-width="5" stroke-linecap="round" stroke-linejoin="round" stroke="rgb(0%, 0%, 0%)" stroke-opacity="1" stroke-miterlimit="10" d="M 3255.427492 1791.414005 C 3255.427492 1835.223052 3219.871756 1870.739672 3176.06271 1870.739672 C 3132.253663 1870.739672 3096.776158 1835.223052 3096.776158 1791.414005 C 3096.776158 1747.604958 3132.253663 1712.088338 3176.06271 1712.088338 C 3219.871756 1712.088338 3255.427492 1747.604958 3255.427492 1791.414005 C 3255.427492 1794.07384 3255.271031 1796.69456 3254.997225 1799.354395 " transform="matrix(0.0998652, 0, 0, -0.0998652, 0.23587, 229.380418)"/>
<path fill="none" stroke-width="5" stroke-linecap="round" stroke-linejoin="round" stroke="rgb(0%, 0%, 0%)" stroke-opacity="1" stroke-miterlimit="10" d="M 3100.68768 2076.837769 L 3105.772658 2044.802404 L 3113.556587 2014.683684 L 3123.648314 1986.833647 L 3135.578456 1961.213178 L 3148.877631 1937.978737 L 3163.193802 1917.012978 L 3178.214047 1898.276788 L 3193.625444 1881.613704 L 3209.232417 1866.945496 L 3224.800274 1854.037473 L 3240.211671 1842.733175 L 3255.271031 1832.954369 L 3270.017469 1824.466367 L 3284.294525 1817.190936 L 3298.102198 1811.010731 L 3311.401373 1805.691061 L 3324.19205 1801.231926 L 3336.395998 1797.51598 L 3348.130565 1794.425877 L 3359.317518 1791.922503 " transform="matrix(0.0998652, 0, 0, -0.0998652, 0.23587, 229.380418)"/>
<path fill="none" stroke-width="5" stroke-linecap="round" stroke-linejoin="round" stroke="rgb(0%, 0%, 0%)" stroke-opacity="1" stroke-miterlimit="10" d="M 3359.317518 1791.922503 L 3348.834639 1787.150446 L 3337.647685 1781.987237 L 3325.678428 1776.471991 L 3312.887751 1770.448247 L 3299.197424 1763.95512 L 3284.41187 1756.875266 L 3268.531091 1749.130452 L 3251.320394 1740.642449 L 3232.701549 1731.254796 L 3212.400749 1720.889263 L 3190.261535 1709.389388 L 3165.970983 1696.481365 L 3139.216172 1682.008734 L 3109.645065 1665.541226 L 3076.749165 1646.805035 L 3039.941742 1625.213433 L 2998.518724 1600.101462 L 2951.580459 1570.608585 L 2898.031722 1535.522233 L 2836.307904 1493.160449 " transform="matrix(0.0998652, 0, 0, -0.0998652, 0.23587, 229.380418)"/>
<path fill="none" stroke-width="5" stroke-linecap="round" stroke-linejoin="round" stroke="rgb(0%, 0%, 0%)" stroke-opacity="1" stroke-miterlimit="10" d="M 2836.307904 1493.160449 L 2865.018476 1563.958998 L 2897.014726 1623.68794 L 2930.301779 1673.833652 L 2963.588832 1715.92163 L 2996.09358 1751.203559 L 3027.346641 1780.852896 L 3056.995978 1805.808406 L 3085.002476 1826.89151 L 3111.32702 1844.728051 L 3136.008724 1859.865641 L 3159.047589 1872.773664 L 3180.63919 1883.804156 L 3200.783529 1893.309155 L 3219.637065 1901.406005 L 3237.238914 1908.40763 L 3253.745537 1914.470489 L 3269.235165 1919.711929 L 3283.746912 1924.249294 L 3297.398124 1928.199931 L 3310.188801 1931.642071 " transform="matrix(0.0998652, 0, 0, -0.0998652, 0.23587, 229.380418)"/>
<path fill="none" stroke-width="5" stroke-linecap="round" stroke-linejoin="round" stroke="rgb(0%, 0%, 0%)" stroke-opacity="1" stroke-miterlimit="10" d="M 3310.188801 1931.642071 L 3302.131065 1921.315653 L 3294.308021 1910.089584 L 3286.876129 1897.963866 L 3279.952735 1884.938498 L 3273.616069 1870.935249 L 3267.983478 1856.071465 L 3263.211421 1840.308031 L 3259.417244 1823.684062 L 3256.757409 1806.316904 L 3255.349262 1788.245672 L 3255.310146 1769.665943 L 3256.796525 1750.695061 L 3259.808397 1731.489487 L 3264.502223 1712.283914 L 3270.878004 1693.234802 L 3278.896624 1674.576842 L 3288.518969 1656.544725 L 3299.705922 1639.334028 L 3312.340138 1623.101211 L 3326.265156 1608.080967 " transform="matrix(0.0998652, 0, 0, -0.0998652, 0.23587, 229.380418)"/>
<path fill="none" stroke-width="5" stroke-linecap="round" stroke-linejoin="round" stroke="rgb(0%, 0%, 0%)" stroke-opacity="1" stroke-miterlimit="10" d="M 3326.265156 1608.080967 L 3305.61232 1611.953374 L 3284.177179 1617.54685 L 3261.998849 1625.056972 L 3239.272906 1634.718432 L 3216.273156 1646.805035 L 3193.312522 1661.434128 L 3170.703924 1678.840401 L 3148.877631 1699.102085 L 3128.303025 1722.297411 L 3109.527719 1748.309032 L 3092.981981 1776.941374 L 3079.291654 1807.998859 L 3068.808775 1840.97299 L 3061.963611 1875.394384 L 3058.951739 1910.637197 L 3059.890505 1946.075587 L 3064.819022 1981.005479 L 3073.463486 2014.80103 L 3085.550089 2046.914626 L 3100.68768 2076.837769 " transform="matrix(0.0998652, 0, 0, -0.0998652, 0.23587, 229.380418)"/>
<path fill="none" stroke-width="5" stroke-linecap="round" stroke-linejoin="round" stroke="rgb(0%, 0%, 0%)" stroke-opacity="1" stroke-miterlimit="10" d="M 3130.454362 2158.393004 L 3112.696052 2118.730171 L 3100.68768 2076.837769 L 3094.820397 2033.967488 L 3095.015973 1991.488358 L 3100.84414 1950.534722 L 3111.718172 1912.123576 L 3126.699301 1876.958993 L 3144.966109 1845.510355 L 3165.540715 1817.97324 L 3187.6017 1794.308532 L 3210.484104 1774.359769 L 3233.562084 1757.853146 L 3256.444488 1744.436625 L 3278.701048 1733.797285 L 3300.175304 1725.504859 L 3320.632565 1719.246423 L 3340.072829 1714.748173 L 3358.378752 1711.697186 L 3375.589449 1709.858771 L 3391.70492 1709.037351 " transform="matrix(0.0998652, 0, 0, -0.0998652, 0.23587, 229.380418)"/>
<path fill="none" stroke-width="5" stroke-linecap="round" stroke-linejoin="round" stroke="rgb(0%, 0%, 0%)" stroke-opacity="1" stroke-miterlimit="10" d="M 3337.452109 1947.209929 L 3324.113819 1940.012728 L 3310.188801 1931.642071 L 3295.677054 1921.863266 L 3280.578579 1910.480737 L 3265.049836 1897.298907 L 3249.208172 1882.043971 L 3233.210047 1864.403007 L 3217.368382 1844.063092 L 3201.996101 1820.828651 L 3187.6017 1794.308532 L 3174.771907 1764.346273 L 3164.289028 1730.785413 L 3156.935367 1693.625954 L 3153.727919 1653.180816 L 3155.644564 1609.919382 L 3163.741415 1564.741302 L 3178.800775 1518.898264 L 3201.292027 1473.876645 L 3231.21517 1431.475746 L 3268.061708 1393.494867 " transform="matrix(0.0998652, 0, 0, -0.0998652, 0.23587, 229.380418)"/>
<path fill="none" stroke-width="5" stroke-linecap="round" stroke-linejoin="round" stroke="rgb(0%, 0%, 0%)" stroke-opacity="1" stroke-miterlimit="10" d="M 3386.30702 1795.442873 L 3373.359882 1793.604458 L 3359.317518 1791.922503 L 3344.101697 1790.39701 L 3327.516843 1789.145322 L 3309.406496 1788.206557 L 3289.535964 1787.737175 L 3267.748786 1787.85452 L 3243.692926 1788.832401 L 3217.094576 1790.827277 L 3187.6017 1794.308532 L 3154.823145 1799.667317 L 3118.289529 1807.607707 L 3077.531469 1818.912005 L 3032.040468 1834.8319 L 2981.425372 1856.932 L 2925.412376 1887.324526 L 2864.236172 1928.904005 L 2798.874638 1985.425499 L 2731.909381 2061.465488 L 2668.425378 2162.187181 " transform="matrix(0.0998652, 0, 0, -0.0998652, 0.23587, 229.380418)"/>
<path fill="none" stroke-width="5" stroke-linecap="round" stroke-linejoin="round" stroke="rgb(0%, 0%, 0%)" stroke-opacity="1" stroke-miterlimit="10" d="M 3374.063956 1589.696813 L 3350.281902 1597.480742 L 3326.265156 1608.080967 L 3302.483102 1621.693063 L 3279.444237 1638.395263 L 3257.65706 1658.226679 L 3237.825643 1681.030853 L 3220.41937 1706.494862 L 3206.024968 1734.266668 L 3194.994476 1763.720429 L 3187.6017 1794.308532 L 3184.003099 1825.287786 L 3184.120445 1855.954119 L 3187.75816 1885.799032 L 3194.564209 1914.157567 L 3204.108323 1940.677687 L 3215.960234 1965.046469 L 3229.611446 1987.068338 L 3244.592576 2006.665064 L 3260.512471 2023.914876 L 3276.940863 2038.85689 " transform="matrix(0.0998652, 0, 0, -0.0998652, 0.23587, 229.380418)"/>
<path fill="none" stroke-width="5" stroke-linecap="round" stroke-linejoin="round" stroke="rgb(0%, 0%, 0%)" stroke-opacity="1" stroke-miterlimit="10" d="M 2705.037224 1263.475874 L 2770.672564 1394.746554 L 2836.307904 1493.160449 L 2897.875261 1567.94875 L 2954.005603 1625.56547 L 3004.464237 1670.66532 L 3049.603202 1706.455746 L 3089.970109 1735.283664 L 3126.073458 1758.791911 L 3158.46086 1778.153946 L 3187.6017 1794.308532 L 3213.965358 1807.881513 L 3237.786527 1819.381388 L 3259.495475 1829.238424 L 3279.287776 1837.726426 L 3297.437239 1845.119203 L 3314.061207 1851.534099 L 3329.433489 1857.166691 L 3343.593199 1862.134324 L 3356.735913 1866.554344 L 3368.939862 1870.465866 " transform="matrix(0.0998652, 0, 0, -0.0998652, 0.23587, 229.380418)"/>
</svg>
