<?xml version="1.0" encoding="UTF-8"?>
<svg xmlns="http://www.w3.org/2000/svg" xmlns:xlink="http://www.w3.org/1999/xlink" width="200" height="200" viewBox="0 0 200 200">
<path fill-rule="nonzero" fill="rgb(0%, 0%, 0%)" fill-opacity="1" d="M 84.761719 111.429688 L 84.65625 111.800781 L 84.558594 112.191406 L 84.46875 112.59375 L 84.386719 113.011719 L 84.3125 113.445312 L 84.25 113.894531 L 84.199219 114.363281 L 84.160156 114.851562 L 84.136719 115.351562 L 84.125 115.875 L 84.648438 115.863281 L 85.148438 115.839844 L 85.636719 115.800781 L 86.105469 115.75 L 86.554688 115.6875 L 86.988281 115.613281 L 87.40625 115.53125 L 87.808594 115.441406 L 88.199219 115.34375 L 88.570312 115.238281 L 88.472656 114.875 L 88.386719 114.519531 L 88.3125 114.167969 L 88.25 113.820312 L 88.199219 113.484375 L 88.160156 113.152344 L 88.132812 112.832031 L 88.109375 112.515625 L 88.101562 112.207031 L 88.097656 111.902344 L 87.792969 111.898438 L 87.484375 111.890625 L 87.167969 111.867188 L 86.847656 111.839844 L 86.515625 111.800781 L 86.179688 111.75 L 85.832031 111.6875 L 85.480469 111.613281 L 85.125 111.527344 L 84.761719 111.429688 "/>
<path fill-rule="nonzero" fill="rgb(0%, 0%, 0%)" fill-opacity="1" d="M 85.347656 121.976562 L 85.648438 122.65625 L 85.992188 123.34375 L 86.382812 124.03125 L 86.816406 124.714844 L 87.300781 125.394531 L 87.835938 126.066406 L 88.417969 126.726562 L 89.054688 127.367188 L 89.738281 127.984375 L 90.476562 128.570312 L 91.023438 127.828125 L 91.527344 127.113281 L 91.988281 126.433594 L 92.417969 125.78125 L 92.8125 125.15625 L 93.179688 124.558594 L 93.515625 123.988281 L 93.832031 123.441406 L 94.125 122.914062 L 94.398438 122.40625 L 93.910156 122.136719 L 93.445312 121.84375 L 93.003906 121.535156 L 92.578125 121.210938 L 92.171875 120.875 L 91.789062 120.527344 L 91.429688 120.164062 L 91.089844 119.800781 L 90.773438 119.425781 L 90.476562 119.046875 L 90.085938 119.335938 L 89.667969 119.625 L 89.230469 119.917969 L 88.769531 120.214844 L 88.277344 120.511719 L 87.757812 120.808594 L 87.207031 121.109375 L 86.625 121.402344 L 86.003906 121.691406 L 85.347656 121.976562 "/>
<path fill-rule="nonzero" fill="rgb(0%, 0%, 0%)" fill-opacity="1" d="M 100 131.746094 L 101.058594 131.710938 L 102.109375 131.605469 L 103.144531 131.433594 L 104.15625 131.191406 L 105.148438 130.886719 L 106.105469 130.527344 L 107.023438 130.105469 L 107.902344 129.636719 L 108.738281 129.125 L 109.523438 128.570312 L 108.976562 127.828125 L 108.472656 127.113281 L 108.011719 126.433594 L 107.582031 125.78125 L 107.1875 125.15625 L 106.820312 124.558594 L 106.484375 123.988281 L 106.167969 123.441406 L 105.875 122.914062 L 105.601562 122.40625 L 105.101562 122.660156 L 104.578125 122.894531 L 104.042969 123.101562 L 103.492188 123.285156 L 102.929688 123.445312 L 102.359375 123.574219 L 101.777344 123.675781 L 101.1875 123.75 L 100.59375 123.792969 L 100 123.808594 L 100 131.746094 "/>
<path fill-rule="nonzero" fill="rgb(0%, 0%, 0%)" fill-opacity="1" d="M 114.652344 121.976562 L 114.914062 121.304688 L 115.140625 120.644531 L 115.328125 119.992188 L 115.484375 119.359375 L 115.613281 118.734375 L 115.710938 118.128906 L 115.785156 117.539062 L 115.835938 116.964844 L 115.863281 116.410156 L 115.875 115.875 L 115.351562 115.863281 L 114.851562 115.839844 L 114.363281 115.800781 L 113.894531 115.75 L 113.445312 115.6875 L 113.011719 115.613281 L 112.59375 115.53125 L 112.191406 115.441406 L 111.800781 115.34375 L 111.429688 115.238281 L 111.3125 115.605469 L 111.1875 115.980469 L 111.039062 116.355469 L 110.878906 116.738281 L 110.699219 117.121094 L 110.503906 117.507812 L 110.289062 117.894531 L 110.054688 118.28125 L 109.800781 118.664062 L 109.523438 119.046875 L 109.914062 119.335938 L 110.328125 119.625 L 110.769531 119.917969 L 111.230469 120.214844 L 111.722656 120.511719 L 112.242188 120.808594 L 112.792969 121.109375 L 113.375 121.402344 L 113.996094 121.691406 L 114.652344 121.976562 "/>
<path fill-rule="nonzero" fill="rgb(0%, 0%, 0%)" fill-opacity="1" d="M 78.023438 114.652344 L 77.742188 115.347656 L 77.476562 116.089844 L 77.222656 116.871094 L 76.988281 117.703125 L 76.773438 118.585938 L 76.582031 119.515625 L 76.421875 120.503906 L 76.296875 121.546875 L 76.21875 122.648438 L 76.191406 123.808594 L 77.351562 123.78125 L 78.453125 123.703125 L 79.496094 123.578125 L 80.484375 123.417969 L 81.414062 123.226562 L 82.296875 123.011719 L 83.128906 122.777344 L 83.910156 122.523438 L 84.652344 122.257812 L 85.347656 121.976562 L 85.085938 121.304688 L 84.859375 120.644531 L 84.671875 119.992188 L 84.515625 119.359375 L 84.386719 118.734375 L 84.289062 118.128906 L 84.214844 117.539062 L 84.164062 116.964844 L 84.136719 116.410156 L 84.125 115.875 L 83.589844 115.863281 L 83.035156 115.835938 L 82.460938 115.785156 L 81.871094 115.710938 L 81.265625 115.613281 L 80.640625 115.484375 L 80.007812 115.328125 L 79.355469 115.140625 L 78.695312 114.914062 L 78.023438 114.652344 "/>
<path fill-rule="nonzero" fill="rgb(0%, 0%, 0%)" fill-opacity="1" d="M 80.953125 138.097656 L 82.179688 139.601562 L 83.582031 141.050781 L 85.152344 142.421875 L 86.894531 143.6875 L 88.796875 144.816406 L 90.84375 145.789062 L 93.015625 146.570312 L 95.285156 147.148438 L 97.625 147.5 L 100 147.621094 L 100 131.746094 L 98.941406 131.710938 L 97.890625 131.605469 L 96.855469 131.433594 L 95.84375 131.191406 L 94.851562 130.886719 L 93.894531 130.527344 L 92.976562 130.105469 L 92.097656 129.636719 L 91.261719 129.125 L 90.476562 128.570312 L 89.878906 129.351562 L 89.226562 130.164062 L 88.511719 131.019531 L 87.726562 131.910156 L 86.863281 132.839844 L 85.910156 133.8125 L 84.859375 134.824219 L 83.691406 135.878906 L 82.394531 136.96875 L 80.953125 138.097656 "/>
<path fill-rule="nonzero" fill="rgb(0%, 0%, 0%)" fill-opacity="1" d="M 119.046875 138.097656 L 120.109375 136.558594 L 121.007812 135.015625 L 121.761719 133.476562 L 122.371094 131.960938 L 122.859375 130.476562 L 123.226562 129.035156 L 123.496094 127.644531 L 123.679688 126.308594 L 123.777344 125.03125 L 123.808594 123.808594 L 122.648438 123.78125 L 121.546875 123.703125 L 120.503906 123.578125 L 119.515625 123.417969 L 118.585938 123.226562 L 117.703125 123.011719 L 116.871094 122.777344 L 116.089844 122.523438 L 115.347656 122.257812 L 114.652344 121.976562 L 114.351562 122.65625 L 114.007812 123.34375 L 113.617188 124.03125 L 113.183594 124.714844 L 112.699219 125.394531 L 112.164062 126.066406 L 111.582031 126.726562 L 110.945312 127.367188 L 110.261719 127.984375 L 109.523438 128.570312 L 110.121094 129.351562 L 110.773438 130.164062 L 111.488281 131.019531 L 112.273438 131.910156 L 113.136719 132.839844 L 114.089844 133.8125 L 115.140625 134.824219 L 116.308594 135.878906 L 117.605469 136.96875 L 119.046875 138.097656 "/>
<path fill-rule="nonzero" fill="rgb(0%, 0%, 0%)" fill-opacity="1" d="M 121.976562 114.652344 L 121.691406 113.996094 L 121.402344 113.375 L 121.109375 112.792969 L 120.808594 112.242188 L 120.511719 111.722656 L 120.214844 111.230469 L 119.921875 110.769531 L 119.625 110.332031 L 119.335938 109.914062 L 119.046875 109.523438 L 118.664062 109.800781 L 118.28125 110.054688 L 117.894531 110.289062 L 117.507812 110.503906 L 117.121094 110.699219 L 116.738281 110.878906 L 116.355469 111.039062 L 115.980469 111.1875 L 115.605469 111.3125 L 115.238281 111.429688 L 115.34375 111.800781 L 115.441406 112.191406 L 115.53125 112.59375 L 115.613281 113.011719 L 115.6875 113.445312 L 115.75 113.894531 L 115.800781 114.363281 L 115.839844 114.851562 L 115.863281 115.351562 L 115.875 115.875 L 116.410156 115.863281 L 116.964844 115.835938 L 117.539062 115.785156 L 118.128906 115.710938 L 118.734375 115.613281 L 119.359375 115.484375 L 119.992188 115.328125 L 120.644531 115.140625 L 121.304688 114.914062 L 121.976562 114.652344 "/>
<path fill-rule="nonzero" fill="rgb(0%, 0%, 0%)" fill-opacity="1" d="M 77.59375 105.601562 L 77.085938 105.875 L 76.558594 106.167969 L 76.011719 106.484375 L 75.441406 106.820312 L 74.84375 107.1875 L 74.21875 107.582031 L 73.566406 108.011719 L 72.886719 108.472656 L 72.171875 108.976562 L 71.429688 109.523438 L 72.015625 110.261719 L 72.632812 110.945312 L 73.273438 111.582031 L 73.933594 112.164062 L 74.605469 112.699219 L 75.285156 113.183594 L 75.96875 113.617188 L 76.65625 114.007812 L 77.34375 114.351562 L 78.023438 114.652344 L 78.308594 113.996094 L 78.597656 113.375 L 78.890625 112.792969 L 79.191406 112.242188 L 79.488281 111.722656 L 79.785156 111.230469 L 80.082031 110.769531 L 80.375 110.332031 L 80.664062 109.914062 L 80.953125 109.523438 L 80.574219 109.226562 L 80.199219 108.910156 L 79.835938 108.570312 L 79.472656 108.210938 L 79.125 107.828125 L 78.789062 107.421875 L 78.464844 106.996094 L 78.15625 106.554688 L 77.863281 106.089844 L 77.59375 105.601562 "/>
<path fill-rule="nonzero" fill="rgb(0%, 0%, 0%)" fill-opacity="1" d="M 61.902344 119.046875 L 60.746094 120.660156 L 59.566406 122.460938 L 58.378906 124.480469 L 57.195312 126.753906 L 56.042969 129.304688 L 54.953125 132.175781 L 53.972656 135.402344 L 53.160156 139.03125 L 52.597656 143.09375 L 52.378906 147.621094 L 56.90625 147.402344 L 60.96875 146.839844 L 64.597656 146.027344 L 67.824219 145.046875 L 70.695312 143.957031 L 73.246094 142.804688 L 75.519531 141.621094 L 77.539062 140.433594 L 79.339844 139.253906 L 80.953125 138.097656 L 79.890625 136.558594 L 78.992188 135.015625 L 78.238281 133.476562 L 77.628906 131.960938 L 77.140625 130.476562 L 76.773438 129.035156 L 76.503906 127.644531 L 76.320312 126.308594 L 76.222656 125.03125 L 76.191406 123.808594 L 74.96875 123.777344 L 73.691406 123.679688 L 72.355469 123.496094 L 70.964844 123.226562 L 69.523438 122.859375 L 68.039062 122.371094 L 66.523438 121.761719 L 64.984375 121.007812 L 63.441406 120.109375 L 61.902344 119.046875 "/>
<path fill-rule="nonzero" fill="rgb(0%, 0%, 0%)" fill-opacity="1" d="M 100 195.238281 L 109.429688 194.296875 L 118.316406 191.574219 L 126.210938 187.375 L 132.839844 182.101562 L 138.097656 176.191406 L 142.015625 170.027344 L 144.742188 163.917969 L 146.457031 158.070312 L 147.355469 152.617188 L 147.621094 147.621094 L 143.09375 147.402344 L 139.03125 146.839844 L 135.402344 146.027344 L 132.175781 145.046875 L 129.304688 143.957031 L 126.753906 142.804688 L 124.480469 141.621094 L 122.460938 140.433594 L 120.660156 139.253906 L 119.046875 138.097656 L 117.820312 139.601562 L 116.421875 141.050781 L 114.847656 142.421875 L 113.105469 143.6875 L 111.203125 144.816406 L 109.15625 145.789062 L 106.984375 146.570312 L 104.714844 147.148438 L 102.375 147.5 L 100 147.621094 L 100 195.238281 "/>
<path fill-rule="nonzero" fill="rgb(0%, 0%, 0%)" fill-opacity="1" d="M 138.097656 119.046875 L 136.96875 117.605469 L 135.878906 116.308594 L 134.824219 115.140625 L 133.8125 114.089844 L 132.839844 113.136719 L 131.910156 112.273438 L 131.019531 111.488281 L 130.164062 110.773438 L 129.351562 110.121094 L 128.570312 109.523438 L 127.984375 110.261719 L 127.367188 110.945312 L 126.726562 111.582031 L 126.066406 112.164062 L 125.394531 112.699219 L 124.714844 113.183594 L 124.03125 113.617188 L 123.34375 114.007812 L 122.65625 114.351562 L 121.976562 114.652344 L 122.257812 115.347656 L 122.523438 116.089844 L 122.777344 116.871094 L 123.011719 117.703125 L 123.226562 118.585938 L 123.421875 119.515625 L 123.578125 120.503906 L 123.703125 121.546875 L 123.78125 122.648438 L 123.808594 123.808594 L 125.03125 123.777344 L 126.308594 123.679688 L 127.644531 123.496094 L 129.035156 123.226562 L 130.476562 122.859375 L 131.960938 122.371094 L 133.476562 121.761719 L 135.015625 121.007812 L 136.558594 120.109375 L 138.097656 119.046875 "/>
<path fill-rule="nonzero" fill="rgb(0%, 0%, 0%)" fill-opacity="1" d="M 68.253906 100 L 52.378906 100 L 52.5 102.375 L 52.851562 104.714844 L 53.429688 106.984375 L 54.210938 109.15625 L 55.183594 111.203125 L 56.3125 113.105469 L 57.578125 114.847656 L 58.949219 116.417969 L 60.398438 117.820312 L 61.902344 119.046875 L 63.03125 117.605469 L 64.121094 116.308594 L 65.175781 115.140625 L 66.1875 114.089844 L 67.160156 113.136719 L 68.089844 112.273438 L 68.980469 111.488281 L 69.835938 110.773438 L 70.648438 110.121094 L 71.429688 109.523438 L 70.875 108.738281 L 70.363281 107.902344 L 69.894531 107.023438 L 69.472656 106.105469 L 69.113281 105.148438 L 68.808594 104.15625 L 68.566406 103.144531 L 68.394531 102.109375 L 68.289062 101.058594 L 68.253906 100 "/>
<path fill-rule="nonzero" fill="rgb(0%, 0%, 0%)" fill-opacity="1" d="M 4.761719 100 L -852.378906 100 L 100 1052.378906 L 100 195.238281 L 90.570312 194.296875 L 81.683594 191.574219 L 73.789062 187.375 L 67.160156 182.101562 L 61.902344 176.191406 L 57.984375 170.027344 L 55.257812 163.917969 L 53.542969 158.070312 L 52.644531 152.617188 L 52.378906 147.621094 L 47.382812 147.355469 L 41.929688 146.457031 L 36.082031 144.742188 L 29.972656 142.015625 L 23.808594 138.097656 L 17.898438 132.839844 L 12.625 126.210938 L 8.425781 118.316406 L 5.703125 109.429688 L 4.761719 100 "/>
<path fill-rule="nonzero" fill="rgb(0%, 0%, 0%)" fill-opacity="1" d="M 195.238281 100 L 147.621094 100 L 147.5 102.375 L 147.148438 104.714844 L 146.570312 106.984375 L 145.789062 109.15625 L 144.816406 111.203125 L 143.6875 113.105469 L 142.421875 114.847656 L 141.050781 116.417969 L 139.601562 117.820312 L 138.097656 119.046875 L 139.253906 120.660156 L 140.433594 122.460938 L 141.621094 124.480469 L 142.804688 126.753906 L 143.957031 129.304688 L 145.046875 132.175781 L 146.027344 135.402344 L 146.839844 139.03125 L 147.402344 143.09375 L 147.621094 147.621094 L 152.617188 147.355469 L 158.070312 146.457031 L 163.917969 144.742188 L 170.027344 142.015625 L 176.191406 138.097656 L 182.101562 132.839844 L 187.375 126.210938 L 191.574219 118.316406 L 194.296875 109.429688 L 195.238281 100 "/>
<path fill-rule="nonzero" fill="rgb(0%, 0%, 0%)" fill-opacity="1" d="M 131.746094 100 L 123.808594 100 L 123.792969 100.59375 L 123.75 101.1875 L 123.675781 101.777344 L 123.574219 102.359375 L 123.445312 102.929688 L 123.285156 103.492188 L 123.101562 104.042969 L 122.894531 104.578125 L 122.660156 105.101562 L 122.40625 105.601562 L 122.914062 105.875 L 123.441406 106.167969 L 123.988281 106.484375 L 124.558594 106.820312 L 125.15625 107.1875 L 125.78125 107.582031 L 126.433594 108.011719 L 127.113281 108.472656 L 127.824219 108.976562 L 128.570312 109.523438 L 129.125 108.738281 L 129.636719 107.902344 L 130.105469 107.023438 L 130.527344 106.105469 L 130.886719 105.148438 L 131.191406 104.15625 L 131.433594 103.144531 L 131.605469 102.109375 L 131.710938 101.058594 L 131.746094 100 "/>
<path fill-rule="nonzero" fill="rgb(0%, 0%, 0%)" fill-opacity="1" d="M 77.59375 94.398438 L 77.085938 94.125 L 76.558594 93.832031 L 76.011719 93.515625 L 75.441406 93.179688 L 74.84375 92.8125 L 74.21875 92.417969 L 73.566406 91.988281 L 72.886719 91.527344 L 72.171875 91.023438 L 71.429688 90.476562 L 70.875 91.261719 L 70.363281 92.097656 L 69.894531 92.976562 L 69.472656 93.894531 L 69.113281 94.851562 L 68.808594 95.84375 L 68.566406 96.855469 L 68.394531 97.890625 L 68.289062 98.941406 L 68.253906 100 L 76.191406 100 L 76.207031 99.40625 L 76.25 98.8125 L 76.324219 98.222656 L 76.425781 97.640625 L 76.554688 97.070312 L 76.714844 96.507812 L 76.898438 95.957031 L 77.105469 95.421875 L 77.339844 94.898438 L 77.59375 94.398438 "/>
<path fill-rule="nonzero" fill="rgb(0%, 0%, 0%)" fill-opacity="1" d="M 61.902344 80.953125 L 60.746094 79.339844 L 59.566406 77.539062 L 58.378906 75.519531 L 57.195312 73.246094 L 56.042969 70.695312 L 54.953125 67.824219 L 53.972656 64.597656 L 53.160156 60.96875 L 52.597656 56.90625 L 52.378906 52.378906 L 47.382812 52.644531 L 41.929688 53.542969 L 36.082031 55.257812 L 29.972656 57.984375 L 23.808594 61.902344 L 17.898438 67.160156 L 12.625 73.789062 L 8.425781 81.683594 L 5.703125 90.570312 L 4.761719 100 L 52.378906 100 L 52.5 97.625 L 52.851562 95.285156 L 53.429688 93.015625 L 54.210938 90.84375 L 55.183594 88.796875 L 56.3125 86.894531 L 57.578125 85.152344 L 58.949219 83.578125 L 60.398438 82.179688 L 61.902344 80.953125 "/>
<path fill-rule="nonzero" fill="rgb(0%, 0%, 0%)" fill-opacity="1" d="M 100 4.761719 L 109.429688 5.703125 L 118.316406 8.425781 L 126.210938 12.625 L 132.839844 17.898438 L 138.097656 23.808594 L 142.015625 29.972656 L 144.742188 36.082031 L 146.457031 41.929688 L 147.355469 47.382812 L 147.621094 52.378906 L 152.617188 52.644531 L 158.070312 53.542969 L 163.917969 55.257812 L 170.027344 57.984375 L 176.191406 61.902344 L 182.101562 67.160156 L 187.375 73.789062 L 191.574219 81.683594 L 194.296875 90.570312 L 195.238281 100 L 1052.378906 100 L 100 -852.378906 L 100 4.761719 "/>
<path fill-rule="nonzero" fill="rgb(0%, 0%, 0%)" fill-opacity="1" d="M 138.097656 80.953125 L 136.96875 82.394531 L 135.878906 83.691406 L 134.824219 84.859375 L 133.8125 85.910156 L 132.839844 86.863281 L 131.910156 87.726562 L 131.019531 88.511719 L 130.164062 89.226562 L 129.351562 89.878906 L 128.570312 90.476562 L 129.125 91.261719 L 129.636719 92.097656 L 130.105469 92.976562 L 130.527344 93.894531 L 130.886719 94.851562 L 131.191406 95.84375 L 131.433594 96.855469 L 131.605469 97.890625 L 131.710938 98.941406 L 131.746094 100 L 147.621094 100 L 147.5 97.625 L 147.148438 95.285156 L 146.570312 93.015625 L 145.789062 90.84375 L 144.816406 88.796875 L 143.6875 86.894531 L 142.421875 85.152344 L 141.050781 83.578125 L 139.601562 82.179688 L 138.097656 80.953125 "/>
<path fill-rule="nonzero" fill="rgb(0%, 0%, 0%)" fill-opacity="1" d="M 78.023438 85.347656 L 77.742188 84.652344 L 77.476562 83.910156 L 77.222656 83.128906 L 76.988281 82.296875 L 76.773438 81.414062 L 76.582031 80.484375 L 76.421875 79.496094 L 76.296875 78.453125 L 76.21875 77.351562 L 76.191406 76.191406 L 74.96875 76.222656 L 73.691406 76.320312 L 72.355469 76.503906 L 70.964844 76.773438 L 69.523438 77.140625 L 68.039062 77.628906 L 66.523438 78.238281 L 64.984375 78.992188 L 63.441406 79.890625 L 61.902344 80.953125 L 63.03125 82.394531 L 64.121094 83.691406 L 65.175781 84.859375 L 66.1875 85.910156 L 67.160156 86.863281 L 68.089844 87.726562 L 68.980469 88.511719 L 69.835938 89.226562 L 70.648438 89.878906 L 71.429688 90.476562 L 72.015625 89.738281 L 72.632812 89.054688 L 73.273438 88.417969 L 73.933594 87.835938 L 74.605469 87.300781 L 75.285156 86.816406 L 75.96875 86.382812 L 76.65625 85.992188 L 77.34375 85.648438 L 78.023438 85.347656 "/>
<path fill-rule="nonzero" fill="rgb(0%, 0%, 0%)" fill-opacity="1" d="M 80.953125 61.902344 L 82.179688 60.398438 L 83.582031 58.949219 L 85.152344 57.578125 L 86.894531 56.3125 L 88.796875 55.183594 L 90.84375 54.210938 L 93.015625 53.429688 L 95.285156 52.851562 L 97.625 52.5 L 100 52.378906 L 100 4.761719 L 90.570312 5.703125 L 81.683594 8.425781 L 73.789062 12.625 L 67.160156 17.898438 L 61.902344 23.808594 L 57.984375 29.972656 L 55.257812 36.082031 L 53.542969 41.929688 L 52.644531 47.382812 L 52.378906 52.378906 L 56.90625 52.597656 L 60.96875 53.160156 L 64.597656 53.972656 L 67.824219 54.953125 L 70.695312 56.042969 L 73.246094 57.195312 L 75.519531 58.378906 L 77.539062 59.566406 L 79.339844 60.746094 L 80.953125 61.902344 "/>
<path fill-rule="nonzero" fill="rgb(0%, 0%, 0%)" fill-opacity="1" d="M 119.046875 61.902344 L 120.109375 63.441406 L 121.007812 64.984375 L 121.761719 66.523438 L 122.371094 68.039062 L 122.859375 69.523438 L 123.226562 70.964844 L 123.496094 72.355469 L 123.679688 73.691406 L 123.777344 74.96875 L 123.808594 76.191406 L 125.03125 76.222656 L 126.308594 76.320312 L 127.644531 76.503906 L 129.035156 76.773438 L 130.476562 77.140625 L 131.960938 77.628906 L 133.476562 78.238281 L 135.015625 78.992188 L 136.558594 79.890625 L 138.097656 80.953125 L 139.253906 79.339844 L 140.433594 77.539062 L 141.621094 75.519531 L 142.804688 73.246094 L 143.957031 70.695312 L 145.046875 67.824219 L 146.027344 64.597656 L 146.839844 60.96875 L 147.402344 56.90625 L 147.621094 52.378906 L 143.09375 52.597656 L 139.03125 53.160156 L 135.402344 53.972656 L 132.175781 54.953125 L 129.304688 56.042969 L 126.753906 57.195312 L 124.480469 58.378906 L 122.460938 59.566406 L 120.660156 60.746094 L 119.046875 61.902344 "/>
<path fill-rule="nonzero" fill="rgb(0%, 0%, 0%)" fill-opacity="1" d="M 121.976562 85.347656 L 121.691406 86.003906 L 121.402344 86.625 L 121.109375 87.207031 L 120.808594 87.757812 L 120.511719 88.277344 L 120.214844 88.769531 L 119.921875 89.230469 L 119.625 89.671875 L 119.335938 90.085938 L 119.046875 90.476562 L 119.425781 90.773438 L 119.800781 91.089844 L 120.164062 91.429688 L 120.527344 91.789062 L 120.875 92.171875 L 121.210938 92.574219 L 121.535156 93.003906 L 121.84375 93.445312 L 122.136719 93.910156 L 122.40625 94.398438 L 122.914062 94.125 L 123.441406 93.832031 L 123.988281 93.515625 L 124.558594 93.179688 L 125.15625 92.8125 L 125.78125 92.417969 L 126.433594 91.988281 L 127.113281 91.527344 L 127.824219 91.023438 L 128.570312 90.476562 L 127.984375 89.738281 L 127.367188 89.054688 L 126.726562 88.417969 L 126.066406 87.835938 L 125.394531 87.300781 L 124.714844 86.816406 L 124.03125 86.382812 L 123.34375 85.992188 L 122.65625 85.648438 L 121.976562 85.347656 "/>
<path fill-rule="nonzero" fill="rgb(0%, 0%, 0%)" fill-opacity="1" d="M 84.761719 88.570312 L 84.65625 88.199219 L 84.558594 87.808594 L 84.46875 87.40625 L 84.386719 86.988281 L 84.3125 86.554688 L 84.25 86.105469 L 84.199219 85.636719 L 84.160156 85.148438 L 84.136719 84.648438 L 84.125 84.125 L 83.589844 84.136719 L 83.035156 84.164062 L 82.460938 84.214844 L 81.871094 84.289062 L 81.265625 84.386719 L 80.640625 84.515625 L 80.007812 84.671875 L 79.355469 84.859375 L 78.695312 85.085938 L 78.023438 85.347656 L 78.308594 86.003906 L 78.597656 86.625 L 78.890625 87.207031 L 79.191406 87.757812 L 79.488281 88.277344 L 79.785156 88.769531 L 80.082031 89.230469 L 80.375 89.671875 L 80.664062 90.085938 L 80.953125 90.476562 L 81.335938 90.199219 L 81.71875 89.945312 L 82.105469 89.710938 L 82.492188 89.496094 L 82.878906 89.300781 L 83.261719 89.121094 L 83.644531 88.960938 L 84.019531 88.8125 L 84.394531 88.6875 L 84.761719 88.570312 "/>
<path fill-rule="nonzero" fill="rgb(0%, 0%, 0%)" fill-opacity="1" d="M 85.347656 78.023438 L 85.648438 77.34375 L 85.992188 76.65625 L 86.382812 75.96875 L 86.816406 75.285156 L 87.300781 74.605469 L 87.835938 73.933594 L 88.417969 73.273438 L 89.054688 72.632812 L 89.738281 72.015625 L 90.476562 71.429688 L 89.878906 70.648438 L 89.226562 69.835938 L 88.511719 68.980469 L 87.726562 68.089844 L 86.863281 67.160156 L 85.910156 66.1875 L 84.859375 65.175781 L 83.691406 64.121094 L 82.394531 63.03125 L 80.953125 61.902344 L 79.890625 63.441406 L 78.992188 64.984375 L 78.238281 66.523438 L 77.628906 68.039062 L 77.140625 69.523438 L 76.773438 70.964844 L 76.503906 72.355469 L 76.320312 73.691406 L 76.222656 74.96875 L 76.191406 76.191406 L 77.351562 76.21875 L 78.453125 76.296875 L 79.496094 76.421875 L 80.484375 76.578125 L 81.414062 76.773438 L 82.296875 76.988281 L 83.128906 77.222656 L 83.910156 77.476562 L 84.652344 77.742188 L 85.347656 78.023438 "/>
<path fill-rule="nonzero" fill="rgb(0%, 0%, 0%)" fill-opacity="1" d="M 100 68.253906 L 101.058594 68.289062 L 102.109375 68.394531 L 103.144531 68.566406 L 104.15625 68.808594 L 105.148438 69.113281 L 106.105469 69.472656 L 107.023438 69.894531 L 107.902344 70.363281 L 108.738281 70.875 L 109.523438 71.429688 L 110.121094 70.648438 L 110.773438 69.835938 L 111.488281 68.980469 L 112.273438 68.089844 L 113.136719 67.160156 L 114.089844 66.1875 L 115.140625 65.175781 L 116.308594 64.121094 L 117.605469 63.03125 L 119.046875 61.902344 L 117.820312 60.398438 L 116.421875 58.949219 L 114.847656 57.578125 L 113.105469 56.3125 L 111.203125 55.183594 L 109.15625 54.210938 L 106.984375 53.429688 L 104.714844 52.851562 L 102.375 52.5 L 100 52.378906 L 100 68.253906 "/>
<path fill-rule="nonzero" fill="rgb(0%, 0%, 0%)" fill-opacity="1" d="M 114.652344 78.023438 L 114.914062 78.695312 L 115.140625 79.355469 L 115.328125 80.007812 L 115.484375 80.640625 L 115.613281 81.265625 L 115.710938 81.871094 L 115.785156 82.460938 L 115.835938 83.035156 L 115.863281 83.589844 L 115.875 84.125 L 116.410156 84.136719 L 116.964844 84.164062 L 117.539062 84.214844 L 118.128906 84.289062 L 118.734375 84.386719 L 119.359375 84.515625 L 119.992188 84.671875 L 120.644531 84.859375 L 121.304688 85.085938 L 121.976562 85.347656 L 122.257812 84.652344 L 122.523438 83.910156 L 122.777344 83.128906 L 123.011719 82.296875 L 123.226562 81.414062 L 123.421875 80.484375 L 123.578125 79.496094 L 123.703125 78.453125 L 123.78125 77.351562 L 123.808594 76.191406 L 122.648438 76.21875 L 121.546875 76.296875 L 120.503906 76.421875 L 119.515625 76.578125 L 118.585938 76.773438 L 117.703125 76.988281 L 116.871094 77.222656 L 116.089844 77.476562 L 115.347656 77.742188 L 114.652344 78.023438 "/>
<path fill-rule="nonzero" fill="rgb(0%, 0%, 0%)" fill-opacity="1" d="M 88.570312 84.761719 L 88.6875 84.394531 L 88.8125 84.019531 L 88.960938 83.644531 L 89.121094 83.261719 L 89.300781 82.878906 L 89.496094 82.492188 L 89.710938 82.105469 L 89.945312 81.71875 L 90.199219 81.335938 L 90.476562 80.953125 L 90.085938 80.664062 L 89.667969 80.375 L 89.230469 80.078125 L 88.769531 79.785156 L 88.277344 79.488281 L 87.757812 79.191406 L 87.207031 78.890625 L 86.625 78.597656 L 86.003906 78.308594 L 85.347656 78.023438 L 85.085938 78.695312 L 84.859375 79.355469 L 84.671875 80.007812 L 84.515625 80.640625 L 84.386719 81.265625 L 84.289062 81.871094 L 84.214844 82.460938 L 84.164062 83.035156 L 84.136719 83.589844 L 84.125 84.125 L 84.648438 84.136719 L 85.148438 84.160156 L 85.636719 84.199219 L 86.105469 84.25 L 86.554688 84.3125 L 86.988281 84.386719 L 87.40625 84.46875 L 87.808594 84.558594 L 88.199219 84.65625 L 88.570312 84.761719 "/>
<path fill-rule="nonzero" fill="rgb(0%, 0%, 0%)" fill-opacity="1" d="M 94.398438 77.59375 L 94.898438 77.339844 L 95.421875 77.105469 L 95.957031 76.898438 L 96.507812 76.714844 L 97.070312 76.554688 L 97.640625 76.425781 L 98.222656 76.324219 L 98.8125 76.25 L 99.40625 76.207031 L 100 76.191406 L 100 68.253906 L 98.941406 68.289062 L 97.890625 68.394531 L 96.855469 68.566406 L 95.84375 68.808594 L 94.851562 69.113281 L 93.894531 69.472656 L 92.976562 69.894531 L 92.097656 70.363281 L 91.261719 70.875 L 90.476562 71.429688 L 91.023438 72.175781 L 91.527344 72.886719 L 91.988281 73.566406 L 92.417969 74.21875 L 92.8125 74.84375 L 93.179688 75.441406 L 93.515625 76.011719 L 93.832031 76.558594 L 94.125 77.085938 L 94.398438 77.59375 "/>
<path fill-rule="nonzero" fill="rgb(0%, 0%, 0%)" fill-opacity="1" d="M 105.601562 77.59375 L 106.089844 77.863281 L 106.554688 78.15625 L 106.996094 78.464844 L 107.425781 78.789062 L 107.828125 79.125 L 108.210938 79.472656 L 108.570312 79.835938 L 108.910156 80.199219 L 109.226562 80.574219 L 109.523438 80.953125 L 109.914062 80.664062 L 110.328125 80.375 L 110.769531 80.078125 L 111.230469 79.785156 L 111.722656 79.488281 L 112.242188 79.191406 L 112.792969 78.890625 L 113.375 78.597656 L 113.996094 78.308594 L 114.652344 78.023438 L 114.351562 77.34375 L 114.007812 76.65625 L 113.617188 75.96875 L 113.183594 75.285156 L 112.699219 74.605469 L 112.164062 73.933594 L 111.582031 73.273438 L 110.945312 72.632812 L 110.261719 72.015625 L 109.523438 71.429688 L 108.976562 72.175781 L 108.472656 72.886719 L 108.011719 73.566406 L 107.582031 74.21875 L 107.1875 74.84375 L 106.820312 75.441406 L 106.484375 76.011719 L 106.167969 76.558594 L 105.875 77.085938 L 105.601562 77.59375 "/>
<path fill-rule="nonzero" fill="rgb(0%, 0%, 0%)" fill-opacity="1" d="M 111.429688 84.761719 L 111.527344 85.125 L 111.613281 85.480469 L 111.6875 85.832031 L 111.75 86.179688 L 111.800781 86.515625 L 111.839844 86.847656 L 111.867188 87.171875 L 111.890625 87.484375 L 111.898438 87.792969 L 111.902344 88.097656 L 112.207031 88.101562 L 112.515625 88.109375 L 112.828125 88.132812 L 113.152344 88.160156 L 113.484375 88.199219 L 113.820312 88.25 L 114.167969 88.3125 L 114.519531 88.386719 L 114.875 88.472656 L 115.238281 88.570312 L 115.34375 88.199219 L 115.441406 87.808594 L 115.53125 87.40625 L 115.613281 86.988281 L 115.6875 86.554688 L 115.75 86.105469 L 115.800781 85.636719 L 115.839844 85.148438 L 115.863281 84.648438 L 115.875 84.125 L 115.351562 84.136719 L 114.851562 84.160156 L 114.363281 84.199219 L 113.894531 84.25 L 113.445312 84.3125 L 113.011719 84.386719 L 112.59375 84.46875 L 112.191406 84.558594 L 111.800781 84.65625 L 111.429688 84.761719 "/>
</svg>
