<?xml version="1.0" encoding="UTF-8"?>
<svg xmlns="http://www.w3.org/2000/svg" xmlns:xlink="http://www.w3.org/1999/xlink" width="288" height="195" viewBox="0 0 288 195">
<path fill-rule="nonzero" fill="rgb(66.209412%, 74.21875%, 90.818787%)" fill-opacity="1" stroke-width="9.8648" stroke-linecap="round" stroke-linejoin="round" stroke="rgb(0%, 0%, 0%)" stroke-opacity="1" stroke-miterlimit="10" d="M 2830.9375 506.71875 L 2067.421875 1761.953125 L 104.570312 1426.015625 " transform="matrix(0.1, 0, 0, -0.1, 0, 195)"/>
<path fill-rule="nonzero" fill="rgb(47.093201%, 0%, 0%)" fill-opacity="1" d="M 206.742188 18.804688 L 10.457031 52.398438 L 139.617188 5.097656 "/>
<path fill="none" stroke-width="9.8648" stroke-linecap="round" stroke-linejoin="round" stroke="rgb(0%, 0%, 0%)" stroke-opacity="1" stroke-miterlimit="10" d="M 2067.421875 1761.953125 L 104.570312 1426.015625 L 1396.171875 1899.023438 Z M 2067.421875 1761.953125 " transform="matrix(0.1, 0, 0, -0.1, 0, 195)"/>
<path fill-rule="nonzero" fill="rgb(82.421875%, 99.804688%, 83.006287%)" fill-opacity="1" d="M 283.09375 144.328125 L 206.742188 18.804688 L 139.617188 5.097656 "/>
<path fill="none" stroke-width="9.8648" stroke-linecap="round" stroke-linejoin="round" stroke="rgb(0%, 0%, 0%)" stroke-opacity="1" stroke-miterlimit="10" d="M 2830.9375 506.71875 L 2067.421875 1761.953125 L 1396.171875 1899.023438 Z M 2830.9375 506.71875 " transform="matrix(0.1, 0, 0, -0.1, 0, 195)"/>
<path fill-rule="nonzero" fill="rgb(82.421875%, 99.804688%, 83.006287%)" fill-opacity="1" d="M 283.09375 144.328125 L 206.742188 18.804688 L 139.617188 5.097656 "/>
<path fill="none" stroke-width="9.8648" stroke-linecap="round" stroke-linejoin="round" stroke="rgb(0%, 0%, 0%)" stroke-opacity="1" stroke-miterlimit="10" d="M 2830.9375 506.71875 L 2067.421875 1761.953125 L 1396.171875 1899.023438 Z M 2830.9375 506.71875 " transform="matrix(0.1, 0, 0, -0.1, 0, 195)"/>
<path fill-rule="nonzero" fill="rgb(66.209412%, 74.21875%, 90.818787%)" fill-opacity="1" stroke-width="9.8648" stroke-linecap="round" stroke-linejoin="round" stroke="rgb(0%, 0%, 0%)" stroke-opacity="1" stroke-miterlimit="10" d="M 104.570312 1426.015625 L 580.742188 53.359375 L 2830.9375 506.71875 " transform="matrix(0.1, 0, 0, -0.1, 0, 195)"/>
<path fill-rule="nonzero" fill="rgb(40.893555%, 46.289062%, 80.46875%)" fill-opacity="1" d="M 10.457031 52.398438 L 58.074219 189.664062 L 139.617188 5.097656 "/>
<path fill="none" stroke-width="9.8648" stroke-linecap="round" stroke-linejoin="round" stroke="rgb(0%, 0%, 0%)" stroke-opacity="1" stroke-miterlimit="10" d="M 104.570312 1426.015625 L 580.742188 53.359375 L 1396.171875 1899.023438 Z M 104.570312 1426.015625 " transform="matrix(0.1, 0, 0, -0.1, 0, 195)"/>
<path fill-rule="nonzero" fill="rgb(75%, 64.256287%, 74.21875%)" fill-opacity="1" d="M 58.074219 189.664062 L 283.09375 144.328125 L 139.617188 5.097656 "/>
<path fill="none" stroke-width="9.8648" stroke-linecap="round" stroke-linejoin="round" stroke="rgb(0%, 0%, 0%)" stroke-opacity="1" stroke-miterlimit="10" d="M 580.742188 53.359375 L 2830.9375 506.71875 L 1396.171875 1899.023438 Z M 580.742188 53.359375 " transform="matrix(0.1, 0, 0, -0.1, 0, 195)"/>
</svg>
