<?xml version="1.0" encoding="UTF-8"?>
<svg xmlns="http://www.w3.org/2000/svg" xmlns:xlink="http://www.w3.org/1999/xlink" width="120" height="202" viewBox="0 0 120 202">
<path fill="none" stroke-width="4.8" stroke-linecap="round" stroke-linejoin="round" stroke="rgb(0%, 0%, 0%)" stroke-opacity="1" stroke-miterlimit="10" d="M 181.679688 410.546875 L 390.859375 48.28125 L 809.140625 48.28125 L 1018.320312 410.546875 L 809.140625 772.8125 L 390.859375 772.8125 L 181.679688 410.546875 " transform="matrix(0.1, 0, 0, -0.1, 0, 202)"/>
<path fill="none" stroke-width="4.8" stroke-linecap="round" stroke-linejoin="round" stroke="rgb(0%, 0%, 0%)" stroke-opacity="1" stroke-miterlimit="10" d="M 390.859375 1191.132812 L 809.140625 1191.132812 L 600 1553.398438 L 390.859375 1191.132812 " transform="matrix(0.1, 0, 0, -0.1, 0, 202)"/>
<path fill="none" stroke-width="4.8" stroke-linecap="round" stroke-linejoin="round" stroke="rgb(0%, 0%, 0%)" stroke-opacity="1" stroke-miterlimit="10" d="M 809.140625 1191.132812 L 390.859375 1191.132812 L 390.859375 772.8125 L 809.140625 772.8125 L 809.140625 1191.132812 " transform="matrix(0.1, 0, 0, -0.1, 0, 202)"/>
<path fill="none" stroke-width="4.8" stroke-linecap="round" stroke-linejoin="round" stroke="rgb(0%, 0%, 0%)" stroke-opacity="1" stroke-miterlimit="10" d="M 809.140625 1191.132812 L 809.140625 772.8125 L 1171.445312 981.992188 L 809.140625 1191.132812 " transform="matrix(0.1, 0, 0, -0.1, 0, 202)"/>
<path fill="none" stroke-width="4.8" stroke-linecap="round" stroke-linejoin="round" stroke="rgb(0%, 0%, 0%)" stroke-opacity="1" stroke-miterlimit="10" d="M 600 1553.398438 L 809.140625 1191.132812 L 1171.445312 1400.273438 L 962.265625 1762.578125 L 600 1553.398438 " transform="matrix(0.1, 0, 0, -0.1, 0, 202)"/>
<path fill="none" stroke-width="4.8" stroke-linecap="round" stroke-linejoin="round" stroke="rgb(0%, 0%, 0%)" stroke-opacity="1" stroke-miterlimit="10" d="M 600 1553.398438 L 962.265625 1762.578125 L 600 1971.71875 L 600 1553.398438 " transform="matrix(0.1, 0, 0, -0.1, 0, 202)"/>
<path fill="none" stroke-width="4.8" stroke-linecap="round" stroke-linejoin="round" stroke="rgb(0%, 0%, 0%)" stroke-opacity="1" stroke-miterlimit="10" d="M 390.859375 1191.132812 L 600 1553.398438 L 237.734375 1762.578125 L 28.554688 1400.273438 L 390.859375 1191.132812 " transform="matrix(0.1, 0, 0, -0.1, 0, 202)"/>
<path fill="none" stroke-width="4.8" stroke-linecap="round" stroke-linejoin="round" stroke="rgb(0%, 0%, 0%)" stroke-opacity="1" stroke-miterlimit="10" d="M 390.859375 1191.132812 L 28.554688 1400.273438 L 28.554688 981.992188 L 390.859375 1191.132812 " transform="matrix(0.1, 0, 0, -0.1, 0, 202)"/>
</svg>
