<?xml version="1.0" encoding="UTF-8"?>
<svg xmlns="http://www.w3.org/2000/svg" xmlns:xlink="http://www.w3.org/1999/xlink" width="238" height="200" viewBox="0 0 238 200">
<path fill-rule="nonzero" fill="rgb(88.867188%, 54.296875%, 38.500977%)" fill-opacity="1" d="M 60.085938 105.308594 L 5.683594 82.226562 L 96.351562 11.917969 "/>
<path fill="none" stroke-width="8.16" stroke-linecap="round" stroke-linejoin="round" stroke="rgb(0%, 0%, 0%)" stroke-opacity="1" stroke-miterlimit="10" d="M 600.859375 946.914062 L 56.835938 1177.734375 L 963.515625 1880.820312 Z M 600.859375 946.914062 " transform="matrix(0.1, 0, 0, -0.1, 0, 200)"/>
<path fill-rule="nonzero" fill="rgb(72.264099%, 47.192383%, 54.6875%)" fill-opacity="1" d="M 168.226562 81.890625 L 60.085938 105.308594 L 96.351562 11.917969 "/>
<path fill="none" stroke-width="8.16" stroke-linecap="round" stroke-linejoin="round" stroke="rgb(0%, 0%, 0%)" stroke-opacity="1" stroke-miterlimit="10" d="M 1682.265625 1181.09375 L 600.859375 946.914062 L 963.515625 1880.820312 Z M 1682.265625 1181.09375 " transform="matrix(0.1, 0, 0, -0.1, 0, 200)"/>
<path fill-rule="nonzero" fill="rgb(97.459412%, 83.006287%, 63.476562%)" fill-opacity="1" d="M 60.085938 105.308594 L 35.527344 197.707031 L 5.683594 82.226562 "/>
<path fill="none" stroke-width="8.16" stroke-linecap="round" stroke-linejoin="round" stroke="rgb(0%, 0%, 0%)" stroke-opacity="1" stroke-miterlimit="10" d="M 600.859375 946.914062 L 355.273438 22.929688 L 56.835938 1177.734375 Z M 600.859375 946.914062 " transform="matrix(0.1, 0, 0, -0.1, 0, 200)"/>
<path fill-rule="nonzero" fill="rgb(80.664062%, 76.5625%, 81.443787%)" fill-opacity="1" d="M 60.085938 105.308594 L 134.53125 187.832031 L 35.527344 197.707031 "/>
<path fill="none" stroke-width="8.16" stroke-linecap="round" stroke-linejoin="round" stroke="rgb(0%, 0%, 0%)" stroke-opacity="1" stroke-miterlimit="10" d="M 600.859375 946.914062 L 1345.3125 121.679688 L 355.273438 22.929688 Z M 600.859375 946.914062 " transform="matrix(0.1, 0, 0, -0.1, 0, 200)"/>
<path fill-rule="nonzero" fill="rgb(70.3125%, 58.789062%, 72.264099%)" fill-opacity="1" d="M 168.226562 81.890625 L 134.53125 187.832031 L 60.085938 105.308594 "/>
<path fill="none" stroke-width="8.16" stroke-linecap="round" stroke-linejoin="round" stroke="rgb(0%, 0%, 0%)" stroke-opacity="1" stroke-miterlimit="10" d="M 1682.265625 1181.09375 L 1345.3125 121.679688 L 600.859375 946.914062 Z M 1682.265625 1181.09375 " transform="matrix(0.1, 0, 0, -0.1, 0, 200)"/>
<path fill-rule="nonzero" fill="rgb(44.700623%, 10.301208%, 28.808594%)" fill-opacity="1" d="M 207.878906 38.40625 L 168.226562 81.890625 L 96.351562 11.917969 "/>
<path fill="none" stroke-width="8.16" stroke-linecap="round" stroke-linejoin="round" stroke="rgb(0%, 0%, 0%)" stroke-opacity="1" stroke-miterlimit="10" d="M 2078.789062 1615.9375 L 1682.265625 1181.09375 L 963.515625 1880.820312 Z M 2078.789062 1615.9375 " transform="matrix(0.1, 0, 0, -0.1, 0, 200)"/>
<path fill-rule="nonzero" fill="rgb(51.5625%, 47.605896%, 75.193787%)" fill-opacity="1" d="M 168.226562 81.890625 L 228.621094 155.964844 L 134.53125 187.832031 "/>
<path fill="none" stroke-width="8.16" stroke-linecap="round" stroke-linejoin="round" stroke="rgb(0%, 0%, 0%)" stroke-opacity="1" stroke-miterlimit="10" d="M 1682.265625 1181.09375 L 2286.210938 440.351562 L 1345.3125 121.679688 Z M 1682.265625 1181.09375 " transform="matrix(0.1, 0, 0, -0.1, 0, 200)"/>
<path fill-rule="nonzero" fill="rgb(22.605896%, 8.494568%, 47.093201%)" fill-opacity="1" d="M 207.878906 38.40625 L 228.621094 155.964844 L 168.226562 81.890625 "/>
<path fill="none" stroke-width="8.16" stroke-linecap="round" stroke-linejoin="round" stroke="rgb(0%, 0%, 0%)" stroke-opacity="1" stroke-miterlimit="10" d="M 2078.789062 1615.9375 L 2286.210938 440.351562 L 1682.265625 1181.09375 Z M 2078.789062 1615.9375 " transform="matrix(0.1, 0, 0, -0.1, 0, 200)"/>
<path fill-rule="nonzero" fill="rgb(47.801208%, 0%, 0%)" fill-opacity="1" d="M 134.53125 187.832031 L 228.621094 155.964844 L 56.78125 169.207031 "/>
<path fill="none" stroke-width="8.16" stroke-linecap="round" stroke-linejoin="round" stroke="rgb(0%, 0%, 0%)" stroke-opacity="1" stroke-miterlimit="10" d="M 1345.3125 121.679688 L 2286.210938 440.351562 " transform="matrix(0.1, 0, 0, -0.1, 0, 200)"/>
<path fill-rule="nonzero" fill="rgb(47.801208%, 0%, 0%)" fill-opacity="1" stroke-width="8.16" stroke-linecap="round" stroke-linejoin="round" stroke="rgb(0%, 0%, 0%)" stroke-opacity="1" stroke-miterlimit="10" d="M 567.8125 307.929688 L 355.273438 22.929688 L 1345.3125 121.679688 " transform="matrix(0.1, 0, 0, -0.1, 0, 200)"/>
<path fill-rule="nonzero" fill="rgb(42.088318%, 85.351562%, 94.139099%)" fill-opacity="1" d="M 100.882812 34.027344 L 207.878906 38.40625 L 96.351562 11.917969 "/>
<path fill="none" stroke-width="8.16" stroke-linecap="round" stroke-linejoin="round" stroke="rgb(0%, 0%, 0%)" stroke-opacity="1" stroke-miterlimit="10" d="M 1008.828125 1659.726562 L 2078.789062 1615.9375 L 963.515625 1880.820312 Z M 1008.828125 1659.726562 " transform="matrix(0.1, 0, 0, -0.1, 0, 200)"/>
<path fill-rule="nonzero" fill="rgb(0%, 39.697266%, 83.984375%)" fill-opacity="1" d="M 5.683594 82.226562 L 100.882812 34.027344 L 96.351562 11.917969 "/>
<path fill="none" stroke-width="8.16" stroke-linecap="round" stroke-linejoin="round" stroke="rgb(0%, 0%, 0%)" stroke-opacity="1" stroke-miterlimit="10" d="M 56.835938 1177.734375 L 1008.828125 1659.726562 L 963.515625 1880.820312 Z M 56.835938 1177.734375 " transform="matrix(0.1, 0, 0, -0.1, 0, 200)"/>
<path fill-rule="nonzero" fill="rgb(0%, 0%, 22.605896%)" fill-opacity="1" d="M 5.683594 82.226562 L 35.527344 197.707031 L 56.78125 169.207031 "/>
<path fill="none" stroke-width="8.16" stroke-linecap="round" stroke-linejoin="round" stroke="rgb(0%, 0%, 0%)" stroke-opacity="1" stroke-miterlimit="10" d="M 56.835938 1177.734375 L 355.273438 22.929688 L 567.8125 307.929688 Z M 56.835938 1177.734375 " transform="matrix(0.1, 0, 0, -0.1, 0, 200)"/>
<path fill-rule="nonzero" fill="rgb(47.801208%, 0%, 0%)" fill-opacity="1" stroke-width="8.16" stroke-linecap="round" stroke-linejoin="round" stroke="rgb(0%, 0%, 0%)" stroke-opacity="1" stroke-miterlimit="10" d="M 2286.210938 440.351562 L 1969.492188 611.09375 L 567.8125 307.929688 " transform="matrix(0.1, 0, 0, -0.1, 0, 200)"/>
<path fill-rule="nonzero" fill="rgb(98.4375%, 85.351562%, 47.410583%)" fill-opacity="1" d="M 207.878906 38.40625 L 196.949219 138.890625 L 228.621094 155.964844 "/>
<path fill="none" stroke-width="8.16" stroke-linecap="round" stroke-linejoin="round" stroke="rgb(0%, 0%, 0%)" stroke-opacity="1" stroke-miterlimit="10" d="M 2078.789062 1615.9375 L 1969.492188 611.09375 L 2286.210938 440.351562 Z M 2078.789062 1615.9375 " transform="matrix(0.1, 0, 0, -0.1, 0, 200)"/>
<path fill-rule="nonzero" fill="rgb(42.993164%, 42.797852%, 75.584412%)" fill-opacity="1" d="M 5.683594 82.226562 L 56.78125 169.207031 L 100.882812 34.027344 "/>
<path fill="none" stroke-width="8.16" stroke-linecap="round" stroke-linejoin="round" stroke="rgb(0%, 0%, 0%)" stroke-opacity="1" stroke-miterlimit="10" d="M 56.835938 1177.734375 L 567.8125 307.929688 L 1008.828125 1659.726562 Z M 56.835938 1177.734375 " transform="matrix(0.1, 0, 0, -0.1, 0, 200)"/>
<path fill-rule="nonzero" fill="rgb(83.201599%, 82.617188%, 84.179688%)" fill-opacity="1" d="M 100.882812 34.027344 L 196.949219 138.890625 L 207.878906 38.40625 "/>
<path fill="none" stroke-width="8.16" stroke-linecap="round" stroke-linejoin="round" stroke="rgb(0%, 0%, 0%)" stroke-opacity="1" stroke-miterlimit="10" d="M 1008.828125 1659.726562 L 1969.492188 611.09375 L 2078.789062 1615.9375 Z M 1008.828125 1659.726562 " transform="matrix(0.1, 0, 0, -0.1, 0, 200)"/>
<path fill-rule="nonzero" fill="rgb(70.117188%, 58.984375%, 72.851562%)" fill-opacity="1" d="M 100.882812 34.027344 L 56.78125 169.207031 L 196.949219 138.890625 "/>
<path fill="none" stroke-width="8.16" stroke-linecap="round" stroke-linejoin="round" stroke="rgb(0%, 0%, 0%)" stroke-opacity="1" stroke-miterlimit="10" d="M 1008.828125 1659.726562 L 567.8125 307.929688 L 1969.492188 611.09375 Z M 1008.828125 1659.726562 " transform="matrix(0.1, 0, 0, -0.1, 0, 200)"/>
</svg>
