<?xml version="1.0" encoding="UTF-8"?>
<svg xmlns="http://www.w3.org/2000/svg" xmlns:xlink="http://www.w3.org/1999/xlink" width="114" height="193" viewBox="0 0 114 193">
<path fill-rule="evenodd" fill="rgb(73.164368%, 64.668274%, 71.409607%)" fill-opacity="1" d="M 2.125 93.667969 L 112.839844 94.867188 L 55.5625 191.566406 L 2.125 93.667969 "/>
<path fill="none" stroke-width="3.438" stroke-linecap="butt" stroke-linejoin="miter" stroke="rgb(13.729858%, 12.159729%, 12.548828%)" stroke-opacity="1" stroke-miterlimit="4" d="M 21.25 993.320312 L 1128.398438 981.328125 L 555.625 14.335938 Z M 21.25 993.320312 " transform="matrix(0.1, 0, 0, -0.1, 0, 193)"/>
<path fill-rule="evenodd" fill="rgb(19.882202%, 17.877197%, 19.509888%)" fill-opacity="1" d="M 51.707031 120.609375 L 2.125 93.667969 L 55.5625 191.566406 L 51.707031 120.609375 "/>
<path fill="none" stroke-width="3.438" stroke-linecap="butt" stroke-linejoin="miter" stroke="rgb(13.729858%, 12.159729%, 12.548828%)" stroke-opacity="1" stroke-miterlimit="4" d="M 517.070312 723.90625 L 21.25 993.320312 L 555.625 14.335938 Z M 517.070312 723.90625 " transform="matrix(0.1, 0, 0, -0.1, 0, 193)"/>
<path fill-rule="evenodd" fill="rgb(69.561768%, 50.733948%, 50.878906%)" fill-opacity="1" d="M 2.125 93.667969 L 112.839844 94.867188 L 55.652344 1.640625 L 2.125 93.667969 "/>
<path fill="none" stroke-width="3.438" stroke-linecap="butt" stroke-linejoin="miter" stroke="rgb(13.729858%, 12.159729%, 12.548828%)" stroke-opacity="1" stroke-miterlimit="4" d="M 21.25 993.320312 L 1128.398438 981.328125 L 556.523438 1913.59375 Z M 21.25 993.320312 " transform="matrix(0.1, 0, 0, -0.1, 0, 193)"/>
<path fill-rule="evenodd" fill="rgb(30.194092%, 30.747986%, 50.927734%)" fill-opacity="1" d="M 51.707031 120.609375 L 2.125 93.667969 L 55.652344 1.640625 L 51.707031 120.609375 "/>
<path fill="none" stroke-width="3.438" stroke-linecap="butt" stroke-linejoin="miter" stroke="rgb(13.729858%, 12.159729%, 12.548828%)" stroke-opacity="1" stroke-miterlimit="4" d="M 517.070312 723.90625 L 21.25 993.320312 L 556.523438 1913.59375 Z M 517.070312 723.90625 " transform="matrix(0.1, 0, 0, -0.1, 0, 193)"/>
<path fill-rule="evenodd" fill="rgb(90.769958%, 57.6828%, 23.139954%)" fill-opacity="1" d="M 112.839844 94.867188 L 51.707031 120.609375 L 55.5625 191.566406 L 112.839844 94.867188 "/>
<path fill="none" stroke-width="3.438" stroke-linecap="butt" stroke-linejoin="miter" stroke="rgb(13.729858%, 12.159729%, 12.548828%)" stroke-opacity="1" stroke-miterlimit="4" d="M 1128.398438 981.328125 L 517.070312 723.90625 L 555.625 14.335938 Z M 1128.398438 981.328125 " transform="matrix(0.1, 0, 0, -0.1, 0, 193)"/>
<path fill-rule="evenodd" fill="rgb(97.410583%, 87.747192%, 65.101624%)" fill-opacity="1" d="M 112.839844 94.867188 L 51.707031 120.609375 L 55.652344 1.640625 L 112.839844 94.867188 "/>
<path fill="none" stroke-width="3.438" stroke-linecap="butt" stroke-linejoin="miter" stroke="rgb(13.729858%, 12.159729%, 12.548828%)" stroke-opacity="1" stroke-miterlimit="4" d="M 1128.398438 981.328125 L 517.070312 723.90625 L 556.523438 1913.59375 Z M 1128.398438 981.328125 " transform="matrix(0.1, 0, 0, -0.1, 0, 193)"/>
</svg>
