<?xml version="1.0" encoding="UTF-8"?>
<svg xmlns="http://www.w3.org/2000/svg" xmlns:xlink="http://www.w3.org/1999/xlink" width="197" height="200" viewBox="0 0 197 200">
<path fill="none" stroke-width="7.84606" stroke-linecap="round" stroke-linejoin="round" stroke="rgb(0%, 0%, 0%)" stroke-opacity="1" stroke-miterlimit="10" d="M 237.773438 439.570312 L 798.203125 626.367188 L 611.367188 1186.835938 L 50.9375 1000 L 237.773438 439.570312 " transform="matrix(0.1, 0, 0, -0.1, 0, 200)"/>
<path fill="none" stroke-width="7.84606" stroke-linecap="round" stroke-linejoin="round" stroke="rgb(0%, 0%, 0%)" stroke-opacity="1" stroke-miterlimit="10" d="M 798.203125 626.367188 L 237.773438 439.570312 L 679.765625 47.617188 L 798.203125 626.367188 " transform="matrix(0.1, 0, 0, -0.1, 0, 200)"/>
<path fill="none" stroke-width="7.84606" stroke-linecap="round" stroke-linejoin="round" stroke="rgb(0%, 0%, 0%)" stroke-opacity="1" stroke-miterlimit="10" d="M 50.9375 1000 L 611.367188 1186.835938 L 169.375 1578.75 L 50.9375 1000 " transform="matrix(0.1, 0, 0, -0.1, 0, 200)"/>
<path fill="none" stroke-width="7.84606" stroke-linecap="round" stroke-linejoin="round" stroke="rgb(0%, 0%, 0%)" stroke-opacity="1" stroke-miterlimit="10" d="M 798.203125 626.367188 L 1358.632812 813.203125 L 1171.835938 1373.59375 L 611.367188 1186.835938 L 798.203125 626.367188 " transform="matrix(0.1, 0, 0, -0.1, 0, 200)"/>
<path fill="none" stroke-width="7.84606" stroke-linecap="round" stroke-linejoin="round" stroke="rgb(0%, 0%, 0%)" stroke-opacity="1" stroke-miterlimit="10" d="M 1358.632812 813.203125 L 798.203125 626.367188 L 1240.195312 234.414062 L 1358.632812 813.203125 " transform="matrix(0.1, 0, 0, -0.1, 0, 200)"/>
<path fill="none" stroke-width="7.84606" stroke-linecap="round" stroke-linejoin="round" stroke="rgb(0%, 0%, 0%)" stroke-opacity="1" stroke-miterlimit="10" d="M 611.367188 1186.835938 L 1171.835938 1373.59375 L 729.804688 1765.546875 L 611.367188 1186.835938 " transform="matrix(0.1, 0, 0, -0.1, 0, 200)"/>
<path fill="none" stroke-width="7.84606" stroke-linecap="round" stroke-linejoin="round" stroke="rgb(0%, 0%, 0%)" stroke-opacity="1" stroke-miterlimit="10" d="M 1358.632812 813.203125 L 1919.0625 1000 L 1732.226562 1560.429688 L 1171.835938 1373.59375 L 1358.632812 813.203125 " transform="matrix(0.1, 0, 0, -0.1, 0, 200)"/>
<path fill="none" stroke-width="7.84606" stroke-linecap="round" stroke-linejoin="round" stroke="rgb(0%, 0%, 0%)" stroke-opacity="1" stroke-miterlimit="10" d="M 1919.0625 1000 L 1358.632812 813.203125 L 1800.625 421.25 L 1919.0625 1000 " transform="matrix(0.1, 0, 0, -0.1, 0, 200)"/>
<path fill="none" stroke-width="7.84606" stroke-linecap="round" stroke-linejoin="round" stroke="rgb(0%, 0%, 0%)" stroke-opacity="1" stroke-miterlimit="10" d="M 1171.835938 1373.59375 L 1732.226562 1560.429688 L 1290.234375 1952.382812 L 1171.835938 1373.59375 " transform="matrix(0.1, 0, 0, -0.1, 0, 200)"/>
</svg>
