<?xml version="1.0" encoding="UTF-8"?>
<svg xmlns="http://www.w3.org/2000/svg" xmlns:xlink="http://www.w3.org/1999/xlink" width="128" height="199" viewBox="0 0 128 199">
<path fill-rule="nonzero" fill="rgb(77.34375%, 69.726562%, 77.929688%)" fill-opacity="1" d="M 93.445312 131.265625 L 18.910156 132.71875 L 53.953125 69.273438 "/>
<path fill="none" stroke-width="3.72062" stroke-linecap="round" stroke-linejoin="round" stroke="rgb(0%, 0%, 0%)" stroke-opacity="1" stroke-miterlimit="10" d="M 934.453125 677.34375 L 189.101562 662.8125 L 539.53125 1297.265625 Z M 934.453125 677.34375 " transform="matrix(0.1, 0, 0, -0.1, 0, 199)"/>
<path fill-rule="nonzero" fill="rgb(96.875%, 69.921875%, 46.508789%)" fill-opacity="1" d="M 53.953125 69.273438 L 5.3125 63.226562 L 18.910156 132.71875 "/>
<path fill="none" stroke-width="3.72062" stroke-linecap="round" stroke-linejoin="round" stroke="rgb(0%, 0%, 0%)" stroke-opacity="1" stroke-miterlimit="10" d="M 539.53125 1297.265625 L 53.125 1357.734375 L 189.101562 662.8125 Z M 539.53125 1297.265625 " transform="matrix(0.1, 0, 0, -0.1, 0, 199)"/>
<path fill-rule="nonzero" fill="rgb(48.193359%, 32.00531%, 58.59375%)" fill-opacity="1" d="M 121.691406 65.753906 L 53.953125 69.273438 L 93.445312 131.265625 "/>
<path fill="none" stroke-width="3.72062" stroke-linecap="round" stroke-linejoin="round" stroke="rgb(0%, 0%, 0%)" stroke-opacity="1" stroke-miterlimit="10" d="M 1216.914062 1332.460938 L 539.53125 1297.265625 L 934.453125 677.34375 Z M 1216.914062 1332.460938 " transform="matrix(0.1, 0, 0, -0.1, 0, 199)"/>
<path fill-rule="nonzero" fill="rgb(89.0625%, 49.19281%, 25.706482%)" fill-opacity="1" d="M 53.953125 69.273438 L 5.3125 63.226562 L 65.574219 4.890625 "/>
<path fill="none" stroke-width="3.72062" stroke-linecap="round" stroke-linejoin="round" stroke="rgb(0%, 0%, 0%)" stroke-opacity="1" stroke-miterlimit="10" d="M 539.53125 1297.265625 L 53.125 1357.734375 L 655.742188 1941.09375 Z M 539.53125 1297.265625 " transform="matrix(0.1, 0, 0, -0.1, 0, 199)"/>
<path fill-rule="nonzero" fill="rgb(46.702576%, 18.992615%, 40.795898%)" fill-opacity="1" d="M 121.691406 65.753906 L 53.953125 69.273438 L 65.574219 4.890625 "/>
<path fill="none" stroke-width="3.72062" stroke-linecap="round" stroke-linejoin="round" stroke="rgb(0%, 0%, 0%)" stroke-opacity="1" stroke-miterlimit="10" d="M 1216.914062 1332.460938 L 539.53125 1297.265625 L 655.742188 1941.09375 Z M 1216.914062 1332.460938 " transform="matrix(0.1, 0, 0, -0.1, 0, 199)"/>
<path fill-rule="nonzero" fill="rgb(0%, 0%, 53.90625%)" fill-opacity="1" d="M 120.78125 138.710938 L 93.445312 131.265625 L 121.691406 65.753906 "/>
<path fill="none" stroke-width="3.72062" stroke-linecap="round" stroke-linejoin="round" stroke="rgb(0%, 0%, 0%)" stroke-opacity="1" stroke-miterlimit="10" d="M 1207.8125 602.890625 L 934.453125 677.34375 L 1216.914062 1332.460938 Z M 1207.8125 602.890625 " transform="matrix(0.1, 0, 0, -0.1, 0, 199)"/>
<path fill-rule="nonzero" fill="rgb(73.826599%, 78.125%, 88.671875%)" fill-opacity="1" d="M 93.445312 131.265625 L 18.910156 132.71875 L 65.574219 195.105469 "/>
<path fill="none" stroke-width="3.72062" stroke-linecap="round" stroke-linejoin="round" stroke="rgb(0%, 0%, 0%)" stroke-opacity="1" stroke-miterlimit="10" d="M 934.453125 677.34375 L 189.101562 662.8125 L 655.742188 38.945312 Z M 934.453125 677.34375 " transform="matrix(0.1, 0, 0, -0.1, 0, 199)"/>
<path fill-rule="nonzero" fill="rgb(0%, 19.993591%, 72.851562%)" fill-opacity="1" d="M 120.78125 138.710938 L 93.445312 131.265625 L 65.574219 195.105469 "/>
<path fill="none" stroke-width="3.72062" stroke-linecap="round" stroke-linejoin="round" stroke="rgb(0%, 0%, 0%)" stroke-opacity="1" stroke-miterlimit="10" d="M 1207.8125 602.890625 L 934.453125 677.34375 L 655.742188 38.945312 Z M 1207.8125 602.890625 " transform="matrix(0.1, 0, 0, -0.1, 0, 199)"/>
<path fill-rule="nonzero" fill="rgb(0%, 0%, 0%)" fill-opacity="1" d="M 18.910156 132.71875 L 29.0625 140.960938 L 5.3125 63.226562 "/>
<path fill="none" stroke-width="3.72062" stroke-linecap="round" stroke-linejoin="round" stroke="rgb(0%, 0%, 0%)" stroke-opacity="1" stroke-miterlimit="10" d="M 189.101562 662.8125 L 290.625 580.390625 L 53.125 1357.734375 Z M 189.101562 662.8125 " transform="matrix(0.1, 0, 0, -0.1, 0, 199)"/>
<path fill-rule="nonzero" fill="rgb(0%, 0%, 0%)" fill-opacity="1" d="M 18.910156 132.71875 L 29.0625 140.960938 L 65.574219 195.105469 "/>
<path fill="none" stroke-width="3.72062" stroke-linecap="round" stroke-linejoin="round" stroke="rgb(0%, 0%, 0%)" stroke-opacity="1" stroke-miterlimit="10" d="M 189.101562 662.8125 L 290.625 580.390625 L 655.742188 38.945312 Z M 189.101562 662.8125 " transform="matrix(0.1, 0, 0, -0.1, 0, 199)"/>
<path fill-rule="nonzero" fill="rgb(97.459412%, 91.992188%, 60.742188%)" fill-opacity="1" d="M 81.429688 58.070312 L 121.691406 65.753906 L 120.78125 138.710938 "/>
<path fill="none" stroke-width="3.72062" stroke-linecap="round" stroke-linejoin="round" stroke="rgb(0%, 0%, 0%)" stroke-opacity="1" stroke-miterlimit="10" d="M 814.296875 1409.296875 L 1216.914062 1332.460938 L 1207.8125 602.890625 Z M 814.296875 1409.296875 " transform="matrix(0.1, 0, 0, -0.1, 0, 199)"/>
<path fill-rule="nonzero" fill="rgb(83.006287%, 99.414062%, 75.193787%)" fill-opacity="1" d="M 81.429688 58.070312 L 121.691406 65.753906 L 65.574219 4.890625 "/>
<path fill="none" stroke-width="3.72062" stroke-linecap="round" stroke-linejoin="round" stroke="rgb(0%, 0%, 0%)" stroke-opacity="1" stroke-miterlimit="10" d="M 814.296875 1409.296875 L 1216.914062 1332.460938 L 655.742188 1941.09375 Z M 814.296875 1409.296875 " transform="matrix(0.1, 0, 0, -0.1, 0, 199)"/>
<path fill-rule="nonzero" fill="rgb(72.851562%, 35.105896%, 33.496094%)" fill-opacity="1" d="M 29.0625 140.960938 L 120.78125 138.710938 L 65.574219 195.105469 "/>
<path fill="none" stroke-width="3.72062" stroke-linecap="round" stroke-linejoin="round" stroke="rgb(0%, 0%, 0%)" stroke-opacity="1" stroke-miterlimit="10" d="M 290.625 580.390625 L 1207.8125 602.890625 L 655.742188 38.945312 Z M 290.625 580.390625 " transform="matrix(0.1, 0, 0, -0.1, 0, 199)"/>
<path fill-rule="nonzero" fill="rgb(33.59375%, 53.90625%, 90.429688%)" fill-opacity="1" d="M 5.3125 63.226562 L 81.429688 58.070312 L 65.574219 4.890625 "/>
<path fill="none" stroke-width="3.72062" stroke-linecap="round" stroke-linejoin="round" stroke="rgb(0%, 0%, 0%)" stroke-opacity="1" stroke-miterlimit="10" d="M 53.125 1357.734375 L 814.296875 1409.296875 L 655.742188 1941.09375 Z M 53.125 1357.734375 " transform="matrix(0.1, 0, 0, -0.1, 0, 199)"/>
<path fill-rule="nonzero" fill="rgb(39.305115%, 41.796875%, 76.756287%)" fill-opacity="1" d="M 5.3125 63.226562 L 81.429688 58.070312 L 29.0625 140.960938 "/>
<path fill="none" stroke-width="3.72062" stroke-linecap="round" stroke-linejoin="round" stroke="rgb(0%, 0%, 0%)" stroke-opacity="1" stroke-miterlimit="10" d="M 53.125 1357.734375 L 814.296875 1409.296875 L 290.625 580.390625 Z M 53.125 1357.734375 " transform="matrix(0.1, 0, 0, -0.1, 0, 199)"/>
<path fill-rule="nonzero" fill="rgb(78.90625%, 55.664062%, 58.396912%)" fill-opacity="1" d="M 29.0625 140.960938 L 120.78125 138.710938 L 81.429688 58.070312 "/>
<path fill="none" stroke-width="3.72062" stroke-linecap="round" stroke-linejoin="round" stroke="rgb(0%, 0%, 0%)" stroke-opacity="1" stroke-miterlimit="10" d="M 290.625 580.390625 L 1207.8125 602.890625 L 814.296875 1409.296875 Z M 290.625 580.390625 " transform="matrix(0.1, 0, 0, -0.1, 0, 199)"/>
</svg>
