<?xml version="1.0" encoding="UTF-8"?>
<svg xmlns="http://www.w3.org/2000/svg" xmlns:xlink="http://www.w3.org/1999/xlink" width="215" height="200" viewBox="0 0 215 200">
<path fill="none" stroke-width="8.5744" stroke-linecap="round" stroke-linejoin="round" stroke="rgb(0%, 0%, 0%)" stroke-opacity="1" stroke-miterlimit="10" d="M 1075 636.953125 L 734.726562 636.953125 L 564.609375 342.304688 L 734.726562 47.617188 L 1075 47.617188 L 1245.15625 342.304688 L 1075 636.953125 " transform="matrix(0.1, 0, 0, -0.1, 0, 200)"/>
<path fill="none" stroke-width="8.5744" stroke-linecap="round" stroke-linejoin="round" stroke="rgb(0%, 0%, 0%)" stroke-opacity="1" stroke-miterlimit="10" d="M 54.257812 977.1875 L 54.257812 636.953125 L 394.492188 636.953125 L 394.492188 977.1875 L 54.257812 977.1875 " transform="matrix(0.1, 0, 0, -0.1, 0, 200)"/>
<path fill="none" stroke-width="8.5744" stroke-linecap="round" stroke-linejoin="round" stroke="rgb(0%, 0%, 0%)" stroke-opacity="1" stroke-miterlimit="10" d="M 394.492188 977.1875 L 394.492188 636.953125 L 734.726562 636.953125 L 734.726562 977.1875 L 394.492188 977.1875 " transform="matrix(0.1, 0, 0, -0.1, 0, 200)"/>
<path fill="none" stroke-width="8.5744" stroke-linecap="round" stroke-linejoin="round" stroke="rgb(0%, 0%, 0%)" stroke-opacity="1" stroke-miterlimit="10" d="M 734.726562 977.1875 L 734.726562 636.953125 L 1075 636.953125 L 1075 977.1875 L 734.726562 977.1875 " transform="matrix(0.1, 0, 0, -0.1, 0, 200)"/>
<path fill="none" stroke-width="8.5744" stroke-linecap="round" stroke-linejoin="round" stroke="rgb(0%, 0%, 0%)" stroke-opacity="1" stroke-miterlimit="10" d="M 1075 977.1875 L 1075 636.953125 L 1415.234375 636.953125 L 1415.234375 977.1875 L 1075 977.1875 " transform="matrix(0.1, 0, 0, -0.1, 0, 200)"/>
<path fill="none" stroke-width="8.5744" stroke-linecap="round" stroke-linejoin="round" stroke="rgb(0%, 0%, 0%)" stroke-opacity="1" stroke-miterlimit="10" d="M 1415.234375 977.1875 L 1415.234375 636.953125 L 1755.507812 636.953125 L 1755.507812 977.1875 L 1415.234375 977.1875 " transform="matrix(0.1, 0, 0, -0.1, 0, 200)"/>
<path fill="none" stroke-width="8.5744" stroke-linecap="round" stroke-linejoin="round" stroke="rgb(0%, 0%, 0%)" stroke-opacity="1" stroke-miterlimit="10" d="M 1755.507812 977.1875 L 1755.507812 636.953125 L 2095.742188 636.953125 L 2095.742188 977.1875 L 1755.507812 977.1875 " transform="matrix(0.1, 0, 0, -0.1, 0, 200)"/>
<path fill="none" stroke-width="8.5744" stroke-linecap="round" stroke-linejoin="round" stroke="rgb(0%, 0%, 0%)" stroke-opacity="1" stroke-miterlimit="10" d="M 734.726562 1317.460938 L 1075 1317.460938 L 904.84375 1612.148438 L 734.726562 1317.460938 " transform="matrix(0.1, 0, 0, -0.1, 0, 200)"/>
<path fill="none" stroke-width="8.5744" stroke-linecap="round" stroke-linejoin="round" stroke="rgb(0%, 0%, 0%)" stroke-opacity="1" stroke-miterlimit="10" d="M 1075 1317.460938 L 734.726562 1317.460938 L 734.726562 977.1875 L 1075 977.1875 L 1075 1317.460938 " transform="matrix(0.1, 0, 0, -0.1, 0, 200)"/>
<path fill="none" stroke-width="8.5744" stroke-linecap="round" stroke-linejoin="round" stroke="rgb(0%, 0%, 0%)" stroke-opacity="1" stroke-miterlimit="10" d="M 1075 1317.460938 L 1075 977.1875 L 1369.648438 1147.34375 L 1075 1317.460938 " transform="matrix(0.1, 0, 0, -0.1, 0, 200)"/>
<path fill="none" stroke-width="8.5744" stroke-linecap="round" stroke-linejoin="round" stroke="rgb(0%, 0%, 0%)" stroke-opacity="1" stroke-miterlimit="10" d="M 904.84375 1612.148438 L 1075 1317.460938 L 1369.648438 1487.578125 L 1199.53125 1782.265625 L 904.84375 1612.148438 " transform="matrix(0.1, 0, 0, -0.1, 0, 200)"/>
<path fill="none" stroke-width="8.5744" stroke-linecap="round" stroke-linejoin="round" stroke="rgb(0%, 0%, 0%)" stroke-opacity="1" stroke-miterlimit="10" d="M 904.84375 1612.148438 L 1199.53125 1782.265625 L 904.84375 1952.382812 L 904.84375 1612.148438 " transform="matrix(0.1, 0, 0, -0.1, 0, 200)"/>
<path fill="none" stroke-width="8.5744" stroke-linecap="round" stroke-linejoin="round" stroke="rgb(0%, 0%, 0%)" stroke-opacity="1" stroke-miterlimit="10" d="M 734.726562 1317.460938 L 904.84375 1612.148438 L 610.195312 1782.265625 L 440.078125 1487.578125 L 734.726562 1317.460938 " transform="matrix(0.1, 0, 0, -0.1, 0, 200)"/>
<path fill="none" stroke-width="8.5744" stroke-linecap="round" stroke-linejoin="round" stroke="rgb(0%, 0%, 0%)" stroke-opacity="1" stroke-miterlimit="10" d="M 734.726562 1317.460938 L 440.078125 1487.578125 L 440.078125 1147.34375 L 734.726562 1317.460938 " transform="matrix(0.1, 0, 0, -0.1, 0, 200)"/>
</svg>
