<?xml version="1.0" encoding="UTF-8"?>
<svg xmlns="http://www.w3.org/2000/svg" xmlns:xlink="http://www.w3.org/1999/xlink" width="250" height="200" viewBox="0 0 250 200">
<path fill="none" stroke-width="9.9778" stroke-linecap="round" stroke-linejoin="round" stroke="rgb(0%, 0%, 0%)" stroke-opacity="1" stroke-miterlimit="10" d="M 1250 764.570312 L 953.046875 764.570312 L 743.046875 554.570312 L 743.046875 257.617188 L 953.046875 47.617188 L 1250 47.617188 L 1459.960938 257.617188 L 1459.960938 554.570312 L 1250 764.570312 " transform="matrix(0.1, 0, 0, -0.1, 0, 200)"/>
<path fill="none" stroke-width="9.9778" stroke-linecap="round" stroke-linejoin="round" stroke="rgb(0%, 0%, 0%)" stroke-opacity="1" stroke-miterlimit="10" d="M 62.1875 1061.484375 L 62.1875 764.570312 L 359.140625 764.570312 L 359.140625 1061.484375 L 62.1875 1061.484375 " transform="matrix(0.1, 0, 0, -0.1, 0, 200)"/>
<path fill="none" stroke-width="9.9778" stroke-linecap="round" stroke-linejoin="round" stroke="rgb(0%, 0%, 0%)" stroke-opacity="1" stroke-miterlimit="10" d="M 359.140625 1061.484375 L 359.140625 764.570312 L 656.054688 764.570312 L 656.054688 1061.484375 L 359.140625 1061.484375 " transform="matrix(0.1, 0, 0, -0.1, 0, 200)"/>
<path fill="none" stroke-width="9.9778" stroke-linecap="round" stroke-linejoin="round" stroke="rgb(0%, 0%, 0%)" stroke-opacity="1" stroke-miterlimit="10" d="M 656.054688 1061.484375 L 656.054688 764.570312 L 953.046875 764.570312 L 953.046875 1061.484375 L 656.054688 1061.484375 " transform="matrix(0.1, 0, 0, -0.1, 0, 200)"/>
<path fill="none" stroke-width="9.9778" stroke-linecap="round" stroke-linejoin="round" stroke="rgb(0%, 0%, 0%)" stroke-opacity="1" stroke-miterlimit="10" d="M 953.046875 1061.484375 L 953.046875 764.570312 L 1250 764.570312 L 1250 1061.484375 L 953.046875 1061.484375 " transform="matrix(0.1, 0, 0, -0.1, 0, 200)"/>
<path fill="none" stroke-width="9.9778" stroke-linecap="round" stroke-linejoin="round" stroke="rgb(0%, 0%, 0%)" stroke-opacity="1" stroke-miterlimit="10" d="M 1250 1061.484375 L 1250 764.570312 L 1546.953125 764.570312 L 1546.953125 1061.484375 L 1250 1061.484375 " transform="matrix(0.1, 0, 0, -0.1, 0, 200)"/>
<path fill="none" stroke-width="9.9778" stroke-linecap="round" stroke-linejoin="round" stroke="rgb(0%, 0%, 0%)" stroke-opacity="1" stroke-miterlimit="10" d="M 1546.953125 1061.484375 L 1546.953125 764.570312 L 1843.945312 764.570312 L 1843.945312 1061.484375 L 1546.953125 1061.484375 " transform="matrix(0.1, 0, 0, -0.1, 0, 200)"/>
<path fill="none" stroke-width="9.9778" stroke-linecap="round" stroke-linejoin="round" stroke="rgb(0%, 0%, 0%)" stroke-opacity="1" stroke-miterlimit="10" d="M 1843.945312 1061.484375 L 1843.945312 764.570312 L 2140.859375 764.570312 L 2140.859375 1061.484375 L 1843.945312 1061.484375 " transform="matrix(0.1, 0, 0, -0.1, 0, 200)"/>
<path fill="none" stroke-width="9.9778" stroke-linecap="round" stroke-linejoin="round" stroke="rgb(0%, 0%, 0%)" stroke-opacity="1" stroke-miterlimit="10" d="M 2140.859375 1061.484375 L 2140.859375 764.570312 L 2437.8125 764.570312 L 2437.8125 1061.484375 L 2140.859375 1061.484375 " transform="matrix(0.1, 0, 0, -0.1, 0, 200)"/>
<path fill="none" stroke-width="9.9778" stroke-linecap="round" stroke-linejoin="round" stroke="rgb(0%, 0%, 0%)" stroke-opacity="1" stroke-miterlimit="10" d="M 953.046875 1358.4375 L 1250 1358.4375 L 1250 1655.429688 L 953.046875 1655.429688 L 953.046875 1358.4375 " transform="matrix(0.1, 0, 0, -0.1, 0, 200)"/>
<path fill="none" stroke-width="9.9778" stroke-linecap="round" stroke-linejoin="round" stroke="rgb(0%, 0%, 0%)" stroke-opacity="1" stroke-miterlimit="10" d="M 1250 1358.4375 L 953.046875 1358.4375 L 953.046875 1061.484375 L 1250 1061.484375 L 1250 1358.4375 " transform="matrix(0.1, 0, 0, -0.1, 0, 200)"/>
<path fill="none" stroke-width="9.9778" stroke-linecap="round" stroke-linejoin="round" stroke="rgb(0%, 0%, 0%)" stroke-opacity="1" stroke-miterlimit="10" d="M 1250 1358.4375 L 1250 1061.484375 L 1507.1875 1209.960938 L 1250 1358.4375 " transform="matrix(0.1, 0, 0, -0.1, 0, 200)"/>
<path fill="none" stroke-width="9.9778" stroke-linecap="round" stroke-linejoin="round" stroke="rgb(0%, 0%, 0%)" stroke-opacity="1" stroke-miterlimit="10" d="M 1250 1655.429688 L 1250 1358.4375 L 1546.953125 1358.4375 L 1546.953125 1655.429688 L 1250 1655.429688 " transform="matrix(0.1, 0, 0, -0.1, 0, 200)"/>
<path fill="none" stroke-width="9.9778" stroke-linecap="round" stroke-linejoin="round" stroke="rgb(0%, 0%, 0%)" stroke-opacity="1" stroke-miterlimit="10" d="M 1250 1655.429688 L 1546.953125 1655.429688 L 1398.476562 1912.578125 L 1250 1655.429688 " transform="matrix(0.1, 0, 0, -0.1, 0, 200)"/>
<path fill="none" stroke-width="9.9778" stroke-linecap="round" stroke-linejoin="round" stroke="rgb(0%, 0%, 0%)" stroke-opacity="1" stroke-miterlimit="10" d="M 953.046875 1655.429688 L 1250 1655.429688 L 1250 1952.382812 L 953.046875 1952.382812 L 953.046875 1655.429688 " transform="matrix(0.1, 0, 0, -0.1, 0, 200)"/>
<path fill="none" stroke-width="9.9778" stroke-linecap="round" stroke-linejoin="round" stroke="rgb(0%, 0%, 0%)" stroke-opacity="1" stroke-miterlimit="10" d="M 953.046875 1655.429688 L 953.046875 1952.382812 L 695.859375 1803.90625 L 953.046875 1655.429688 " transform="matrix(0.1, 0, 0, -0.1, 0, 200)"/>
<path fill="none" stroke-width="9.9778" stroke-linecap="round" stroke-linejoin="round" stroke="rgb(0%, 0%, 0%)" stroke-opacity="1" stroke-miterlimit="10" d="M 953.046875 1358.4375 L 953.046875 1655.429688 L 656.054688 1655.429688 L 656.054688 1358.4375 L 953.046875 1358.4375 " transform="matrix(0.1, 0, 0, -0.1, 0, 200)"/>
<path fill="none" stroke-width="9.9778" stroke-linecap="round" stroke-linejoin="round" stroke="rgb(0%, 0%, 0%)" stroke-opacity="1" stroke-miterlimit="10" d="M 953.046875 1358.4375 L 656.054688 1358.4375 L 804.570312 1101.289062 L 953.046875 1358.4375 " transform="matrix(0.1, 0, 0, -0.1, 0, 200)"/>
</svg>
