<?xml version="1.0" encoding="UTF-8"?>
<svg xmlns="http://www.w3.org/2000/svg" xmlns:xlink="http://www.w3.org/1999/xlink" width="224" height="200" viewBox="0 0 224 200">
<path fill="none" stroke-width="8.92519" stroke-linecap="round" stroke-linejoin="round" stroke="rgb(0%, 0%, 0%)" stroke-opacity="1" stroke-miterlimit="10" d="M 1120 701.640625 L 907.5 701.640625 L 735.585938 576.71875 L 669.882812 374.648438 L 735.585938 172.539062 L 907.5 47.617188 L 1120 47.617188 L 1291.914062 172.539062 L 1357.578125 374.648438 L 1291.914062 576.71875 L 1120 701.640625 " transform="matrix(0.1, 0, 0, -0.1, 0, 200)"/>
<path fill="none" stroke-width="8.92519" stroke-linecap="round" stroke-linejoin="round" stroke="rgb(0%, 0%, 0%)" stroke-opacity="1" stroke-miterlimit="10" d="M 1013.75 1241.171875 L 1207.890625 1327.617188 L 1185.664062 1538.945312 L 977.8125 1583.125 L 871.5625 1399.0625 L 1013.75 1241.171875 " transform="matrix(0.1, 0, 0, -0.1, 0, 200)"/>
<path fill="none" stroke-width="8.92519" stroke-linecap="round" stroke-linejoin="round" stroke="rgb(0%, 0%, 0%)" stroke-opacity="1" stroke-miterlimit="10" d="M 1013.75 1241.171875 L 841.835938 1116.25 L 907.5 914.140625 L 1120 914.140625 L 1185.664062 1116.25 L 1013.75 1241.171875 " transform="matrix(0.1, 0, 0, -0.1, 0, 200)"/>
<path fill="none" stroke-width="8.92519" stroke-linecap="round" stroke-linejoin="round" stroke="rgb(0%, 0%, 0%)" stroke-opacity="1" stroke-miterlimit="10" d="M 1013.75 1241.171875 L 1185.664062 1116.25 L 1207.890625 1327.617188 L 1013.75 1241.171875 " transform="matrix(0.1, 0, 0, -0.1, 0, 200)"/>
<path fill="none" stroke-width="8.92519" stroke-linecap="round" stroke-linejoin="round" stroke="rgb(0%, 0%, 0%)" stroke-opacity="1" stroke-miterlimit="10" d="M 1185.664062 1116.25 L 1120 914.140625 L 1327.851562 958.320312 L 1185.664062 1116.25 " transform="matrix(0.1, 0, 0, -0.1, 0, 200)"/>
<path fill="none" stroke-width="8.92519" stroke-linecap="round" stroke-linejoin="round" stroke="rgb(0%, 0%, 0%)" stroke-opacity="1" stroke-miterlimit="10" d="M 1207.890625 1327.617188 L 1273.554688 1125.507812 L 1486.054688 1125.507812 L 1551.71875 1327.617188 L 1379.804688 1452.460938 L 1207.890625 1327.617188 " transform="matrix(0.1, 0, 0, -0.1, 0, 200)"/>
<path fill="none" stroke-width="8.92519" stroke-linecap="round" stroke-linejoin="round" stroke="rgb(0%, 0%, 0%)" stroke-opacity="1" stroke-miterlimit="10" d="M 1207.890625 1327.617188 L 1379.804688 1452.460938 L 1185.664062 1538.945312 L 1207.890625 1327.617188 " transform="matrix(0.1, 0, 0, -0.1, 0, 200)"/>
<path fill="none" stroke-width="8.92519" stroke-linecap="round" stroke-linejoin="round" stroke="rgb(0%, 0%, 0%)" stroke-opacity="1" stroke-miterlimit="10" d="M 1379.804688 1452.460938 L 1551.71875 1327.617188 L 1573.945312 1538.945312 L 1379.804688 1452.460938 " transform="matrix(0.1, 0, 0, -0.1, 0, 200)"/>
<path fill="none" stroke-width="8.92519" stroke-linecap="round" stroke-linejoin="round" stroke="rgb(0%, 0%, 0%)" stroke-opacity="1" stroke-miterlimit="10" d="M 1185.664062 1538.945312 L 1398.164062 1538.945312 L 1463.828125 1741.054688 L 1291.914062 1865.9375 L 1120 1741.054688 L 1185.664062 1538.945312 " transform="matrix(0.1, 0, 0, -0.1, 0, 200)"/>
<path fill="none" stroke-width="8.92519" stroke-linecap="round" stroke-linejoin="round" stroke="rgb(0%, 0%, 0%)" stroke-opacity="1" stroke-miterlimit="10" d="M 1185.664062 1538.945312 L 1120 1741.054688 L 977.8125 1583.125 L 1185.664062 1538.945312 " transform="matrix(0.1, 0, 0, -0.1, 0, 200)"/>
<path fill="none" stroke-width="8.92519" stroke-linecap="round" stroke-linejoin="round" stroke="rgb(0%, 0%, 0%)" stroke-opacity="1" stroke-miterlimit="10" d="M 1120 1741.054688 L 1291.914062 1865.9375 L 1097.773438 1952.34375 L 1120 1741.054688 " transform="matrix(0.1, 0, 0, -0.1, 0, 200)"/>
<path fill="none" stroke-width="8.92519" stroke-linecap="round" stroke-linejoin="round" stroke="rgb(0%, 0%, 0%)" stroke-opacity="1" stroke-miterlimit="10" d="M 977.8125 1583.125 L 1043.476562 1785.195312 L 871.5625 1910.117188 L 699.609375 1785.195312 L 765.3125 1583.125 L 977.8125 1583.125 " transform="matrix(0.1, 0, 0, -0.1, 0, 200)"/>
<path fill="none" stroke-width="8.92519" stroke-linecap="round" stroke-linejoin="round" stroke="rgb(0%, 0%, 0%)" stroke-opacity="1" stroke-miterlimit="10" d="M 977.8125 1583.125 L 765.3125 1583.125 L 871.5625 1399.0625 L 977.8125 1583.125 " transform="matrix(0.1, 0, 0, -0.1, 0, 200)"/>
<path fill="none" stroke-width="8.92519" stroke-linecap="round" stroke-linejoin="round" stroke="rgb(0%, 0%, 0%)" stroke-opacity="1" stroke-miterlimit="10" d="M 765.3125 1583.125 L 699.609375 1785.195312 L 557.460938 1627.304688 L 765.3125 1583.125 " transform="matrix(0.1, 0, 0, -0.1, 0, 200)"/>
<path fill="none" stroke-width="8.92519" stroke-linecap="round" stroke-linejoin="round" stroke="rgb(0%, 0%, 0%)" stroke-opacity="1" stroke-miterlimit="10" d="M 871.5625 1399.0625 L 699.609375 1523.984375 L 527.734375 1399.0625 L 593.398438 1196.992188 L 805.898438 1196.992188 L 871.5625 1399.0625 " transform="matrix(0.1, 0, 0, -0.1, 0, 200)"/>
<path fill="none" stroke-width="8.92519" stroke-linecap="round" stroke-linejoin="round" stroke="rgb(0%, 0%, 0%)" stroke-opacity="1" stroke-miterlimit="10" d="M 871.5625 1399.0625 L 805.898438 1196.992188 L 1013.75 1241.171875 L 871.5625 1399.0625 " transform="matrix(0.1, 0, 0, -0.1, 0, 200)"/>
<path fill="none" stroke-width="8.92519" stroke-linecap="round" stroke-linejoin="round" stroke="rgb(0%, 0%, 0%)" stroke-opacity="1" stroke-miterlimit="10" d="M 805.898438 1196.992188 L 593.398438 1196.992188 L 699.609375 1012.929688 L 805.898438 1196.992188 " transform="matrix(0.1, 0, 0, -0.1, 0, 200)"/>
<path fill="none" stroke-width="8.92519" stroke-linecap="round" stroke-linejoin="round" stroke="rgb(0%, 0%, 0%)" stroke-opacity="1" stroke-miterlimit="10" d="M 57.5 914.140625 L 57.5 701.640625 L 270 701.640625 L 270 914.140625 L 57.5 914.140625 " transform="matrix(0.1, 0, 0, -0.1, 0, 200)"/>
<path fill="none" stroke-width="8.92519" stroke-linecap="round" stroke-linejoin="round" stroke="rgb(0%, 0%, 0%)" stroke-opacity="1" stroke-miterlimit="10" d="M 270 914.140625 L 270 701.640625 L 482.5 701.640625 L 482.5 914.140625 L 270 914.140625 " transform="matrix(0.1, 0, 0, -0.1, 0, 200)"/>
<path fill="none" stroke-width="8.92519" stroke-linecap="round" stroke-linejoin="round" stroke="rgb(0%, 0%, 0%)" stroke-opacity="1" stroke-miterlimit="10" d="M 482.5 914.140625 L 482.5 701.640625 L 695 701.640625 L 695 914.140625 L 482.5 914.140625 " transform="matrix(0.1, 0, 0, -0.1, 0, 200)"/>
<path fill="none" stroke-width="8.92519" stroke-linecap="round" stroke-linejoin="round" stroke="rgb(0%, 0%, 0%)" stroke-opacity="1" stroke-miterlimit="10" d="M 695 914.140625 L 695 701.640625 L 907.5 701.640625 L 907.5 914.140625 L 695 914.140625 " transform="matrix(0.1, 0, 0, -0.1, 0, 200)"/>
<path fill="none" stroke-width="8.92519" stroke-linecap="round" stroke-linejoin="round" stroke="rgb(0%, 0%, 0%)" stroke-opacity="1" stroke-miterlimit="10" d="M 907.5 914.140625 L 907.5 701.640625 L 1120 701.640625 L 1120 914.140625 L 907.5 914.140625 " transform="matrix(0.1, 0, 0, -0.1, 0, 200)"/>
<path fill="none" stroke-width="8.92519" stroke-linecap="round" stroke-linejoin="round" stroke="rgb(0%, 0%, 0%)" stroke-opacity="1" stroke-miterlimit="10" d="M 1120 914.140625 L 1120 701.640625 L 1332.5 701.640625 L 1332.5 914.140625 L 1120 914.140625 " transform="matrix(0.1, 0, 0, -0.1, 0, 200)"/>
<path fill="none" stroke-width="8.92519" stroke-linecap="round" stroke-linejoin="round" stroke="rgb(0%, 0%, 0%)" stroke-opacity="1" stroke-miterlimit="10" d="M 1332.5 914.140625 L 1332.5 701.640625 L 1545.039062 701.640625 L 1545.039062 914.140625 L 1332.5 914.140625 " transform="matrix(0.1, 0, 0, -0.1, 0, 200)"/>
<path fill="none" stroke-width="8.92519" stroke-linecap="round" stroke-linejoin="round" stroke="rgb(0%, 0%, 0%)" stroke-opacity="1" stroke-miterlimit="10" d="M 1545.039062 914.140625 L 1545.039062 701.640625 L 1757.5 701.640625 L 1757.5 914.140625 L 1545.039062 914.140625 " transform="matrix(0.1, 0, 0, -0.1, 0, 200)"/>
<path fill="none" stroke-width="8.92519" stroke-linecap="round" stroke-linejoin="round" stroke="rgb(0%, 0%, 0%)" stroke-opacity="1" stroke-miterlimit="10" d="M 1757.5 914.140625 L 1757.5 701.640625 L 1970 701.640625 L 1970 914.140625 L 1757.5 914.140625 " transform="matrix(0.1, 0, 0, -0.1, 0, 200)"/>
<path fill="none" stroke-width="8.92519" stroke-linecap="round" stroke-linejoin="round" stroke="rgb(0%, 0%, 0%)" stroke-opacity="1" stroke-miterlimit="10" d="M 1970 914.140625 L 1970 701.640625 L 2182.539062 701.640625 L 2182.539062 914.140625 L 1970 914.140625 " transform="matrix(0.1, 0, 0, -0.1, 0, 200)"/>
</svg>
