<?xml version="1.0" encoding="UTF-8"?>
<svg xmlns="http://www.w3.org/2000/svg" xmlns:xlink="http://www.w3.org/1999/xlink" width="178.11" height="176.14" viewBox="0 0 178.11 176.14">
<defs>
<clipPath id="clip-0">
<path clip-rule="nonzero" d="M 29 75 L 73 75 L 73 175.273438 L 29 175.273438 Z M 29 75 "/>
</clipPath>
<clipPath id="clip-1">
<path clip-rule="nonzero" d="M 22 0.0117188 L 78 0.0117188 L 78 34 L 22 34 Z M 22 0.0117188 "/>
</clipPath>
<clipPath id="clip-2">
<path clip-rule="nonzero" d="M 67 0.0117188 L 126 0.0117188 L 126 30 L 67 30 Z M 67 0.0117188 "/>
</clipPath>
<clipPath id="clip-3">
<path clip-rule="nonzero" d="M 23 134 L 73 134 L 73 175.273438 L 23 175.273438 Z M 23 134 "/>
</clipPath>
<clipPath id="clip-4">
<path clip-rule="nonzero" d="M 77 0.0117188 L 139 0.0117188 L 139 20 L 77 20 Z M 77 0.0117188 "/>
</clipPath>
<clipPath id="clip-5">
<path clip-rule="nonzero" d="M 77 0.0117188 L 139 0.0117188 L 139 21 L 77 21 Z M 77 0.0117188 "/>
</clipPath>
<clipPath id="clip-6">
<path clip-rule="nonzero" d="M 72 119 L 177.222656 119 L 177.222656 175.273438 L 72 175.273438 Z M 72 119 "/>
</clipPath>
<clipPath id="clip-7">
<path clip-rule="nonzero" d="M 72 169 L 135 169 L 135 175.273438 L 72 175.273438 Z M 72 169 "/>
</clipPath>
<clipPath id="clip-8">
<path clip-rule="nonzero" d="M 171 55 L 177.222656 55 L 177.222656 120 L 171 120 Z M 171 55 "/>
</clipPath>
<clipPath id="clip-9">
<path clip-rule="nonzero" d="M 23 152 L 85 152 L 85 175.273438 L 23 175.273438 Z M 23 152 "/>
</clipPath>
<clipPath id="clip-10">
<path clip-rule="nonzero" d="M 168 55 L 177.222656 55 L 177.222656 120 L 168 120 Z M 168 55 "/>
</clipPath>
<clipPath id="clip-11">
<path clip-rule="nonzero" d="M 22 0.0117188 L 78 0.0117188 L 78 34 L 22 34 Z M 22 0.0117188 "/>
</clipPath>
<clipPath id="clip-12">
<path clip-rule="nonzero" d="M 134 119 L 177.222656 119 L 177.222656 171 L 134 171 Z M 134 119 "/>
</clipPath>
<clipPath id="clip-13">
<path clip-rule="nonzero" d="M 43 0.0117188 L 139 0.0117188 L 139 30 L 43 30 Z M 43 0.0117188 "/>
</clipPath>
<clipPath id="clip-14">
<path clip-rule="nonzero" d="M 42 0.0117188 L 139 0.0117188 L 139 30 L 42 30 Z M 42 0.0117188 "/>
</clipPath>
<clipPath id="clip-15">
<path clip-rule="nonzero" d="M 146 72 L 177.222656 72 L 177.222656 142 L 146 142 Z M 146 72 "/>
</clipPath>
</defs>
<path fill-rule="nonzero" fill="rgb(85.122681%, 57.522583%, 52.453613%)" fill-opacity="1" d="M 22.335938 33.261719 L 67.738281 29.234375 L 29.5625 75.570312 L 22.335938 33.261719 "/>
<path fill="none" stroke-width="5.48001" stroke-linecap="round" stroke-linejoin="round" stroke="rgb(13.729858%, 12.159729%, 12.548828%)" stroke-opacity="1" stroke-miterlimit="10" d="M 224.475482 1427.221534 L 680.767635 1467.696214 L 297.102212 1002.021473 Z M 224.475482 1427.221534 " transform="matrix(0.0995028, 0, 0, -0.0995028, 0.000000000000001332, 175.274248)"/>
<path fill-rule="nonzero" fill="rgb(92.523193%, 80.97229%, 70.310974%)" fill-opacity="1" d="M 0.273438 94.3125 L 29.5625 75.570312 L 30.523438 134.703125 L 0.273438 94.3125 "/>
<path fill="none" stroke-width="5.48001" stroke-linecap="round" stroke-linejoin="round" stroke="rgb(13.729858%, 12.159729%, 12.548828%)" stroke-opacity="1" stroke-miterlimit="10" d="M 2.748038 813.663068 L 297.102212 1002.021473 L 306.759604 407.738534 Z M 2.748038 813.663068 " transform="matrix(0.0995028, 0, 0, -0.0995028, 0.000000000000001332, 175.274248)"/>
<path fill-rule="nonzero" fill="rgb(95.254517%, 68.861389%, 48.892212%)" fill-opacity="1" d="M 22.335938 33.261719 L 29.5625 75.570312 L 0.273438 94.3125 L 22.335938 33.261719 "/>
<path fill="none" stroke-width="5.48001" stroke-linecap="round" stroke-linejoin="round" stroke="rgb(13.729858%, 12.159729%, 12.548828%)" stroke-opacity="1" stroke-miterlimit="10" d="M 224.475482 1427.221534 L 297.102212 1002.021473 L 2.748038 813.663068 Z M 224.475482 1427.221534 " transform="matrix(0.0995028, 0, 0, -0.0995028, 0.000000000000001332, 175.274248)"/>
<path fill-rule="nonzero" fill="rgb(63.996887%, 58.743286%, 79.312134%)" fill-opacity="1" d="M 29.5625 75.570312 L 67.738281 29.234375 L 72.535156 175 "/>
<path fill="none" stroke-width="5.48001" stroke-linecap="round" stroke-linejoin="round" stroke="rgb(13.729858%, 12.159729%, 12.548828%)" stroke-opacity="1" stroke-miterlimit="10" d="M 297.102212 1002.021473 L 680.767635 1467.696214 " transform="matrix(0.0995028, 0, 0, -0.0995028, 0.000000000000001332, 175.274248)"/>
<path fill-rule="nonzero" fill="rgb(63.996887%, 58.743286%, 79.312134%)" fill-opacity="1" d="M 72.535156 175 L 30.523438 134.703125 L 29.5625 75.570312 "/>
<g clip-path="url(#clip-0)">
<path fill="none" stroke-width="5.48001" stroke-linecap="round" stroke-linejoin="round" stroke="rgb(13.729858%, 12.159729%, 12.548828%)" stroke-opacity="1" stroke-miterlimit="10" d="M 728.97608 2.756184 L 306.759604 407.738534 L 297.102212 1002.021473 " transform="matrix(0.0995028, 0, 0, -0.0995028, 0.000000000000001332, 175.274248)"/>
</g>
<g clip-path="url(#clip-1)">
<path fill-rule="nonzero" fill="rgb(75.221252%, 35.948181%, 25.993347%)" fill-opacity="1" d="M 77.628906 0.277344 L 67.738281 29.234375 L 22.335938 33.261719 L 77.628906 0.277344 "/>
<path fill="none" stroke-width="5.48001" stroke-linecap="round" stroke-linejoin="round" stroke="rgb(13.729858%, 12.159729%, 12.548828%)" stroke-opacity="1" stroke-miterlimit="10" d="M 780.168111 1758.713484 L 680.767635 1467.696214 L 224.475482 1427.221534 Z M 780.168111 1758.713484 " transform="matrix(0.0995028, 0, 0, -0.0995028, 0.000000000000001332, 175.274248)"/>
</g>
<g clip-path="url(#clip-2)">
<path fill-rule="nonzero" fill="rgb(63.548279%, 27.452087%, 34.390259%)" fill-opacity="1" d="M 77.628906 0.277344 L 125.609375 19.960938 L 67.738281 29.234375 L 77.628906 0.277344 "/>
<path fill="none" stroke-width="5.48001" stroke-linecap="round" stroke-linejoin="round" stroke="rgb(13.729858%, 12.159729%, 12.548828%)" stroke-opacity="1" stroke-miterlimit="10" d="M 780.168111 1758.713484 L 1262.37034 1560.893975 L 680.767635 1467.696214 Z M 780.168111 1758.713484 " transform="matrix(0.0995028, 0, 0, -0.0995028, 0.000000000000001332, 175.274248)"/>
</g>
<path fill-rule="nonzero" fill="rgb(63.996887%, 58.743286%, 79.312134%)" fill-opacity="1" d="M 67.738281 29.234375 L 125.609375 19.960938 L 72.535156 175 "/>
<path fill="none" stroke-width="5.48001" stroke-linecap="round" stroke-linejoin="round" stroke="rgb(13.729858%, 12.159729%, 12.548828%)" stroke-opacity="1" stroke-miterlimit="10" d="M 680.767635 1467.696214 L 1262.37034 1560.893975 " transform="matrix(0.0995028, 0, 0, -0.0995028, 0.000000000000001332, 175.274248)"/>
<path fill-rule="nonzero" fill="rgb(79.615784%, 93.045044%, 90.765381%)" fill-opacity="1" d="M 23.929688 152.414062 L 30.523438 134.703125 L 72.535156 175 L 23.929688 152.414062 "/>
<g clip-path="url(#clip-3)">
<path fill="none" stroke-width="5.48001" stroke-linecap="round" stroke-linejoin="round" stroke="rgb(13.729858%, 12.159729%, 12.548828%)" stroke-opacity="1" stroke-miterlimit="10" d="M 240.49262 229.744159 L 306.759604 407.738534 L 728.97608 2.756184 Z M 240.49262 229.744159 " transform="matrix(0.0995028, 0, 0, -0.0995028, 0.000000000000001332, 175.274248)"/>
</g>
<path fill-rule="nonzero" fill="rgb(91.690063%, 94.406128%, 69.041443%)" fill-opacity="1" d="M 0.273438 94.3125 L 30.523438 134.703125 L 23.929688 152.414062 L 0.273438 94.3125 "/>
<path fill="none" stroke-width="5.48001" stroke-linecap="round" stroke-linejoin="round" stroke="rgb(13.729858%, 12.159729%, 12.548828%)" stroke-opacity="1" stroke-miterlimit="10" d="M 2.748038 813.663068 L 306.759604 407.738534 L 240.49262 229.744159 Z M 2.748038 813.663068 " transform="matrix(0.0995028, 0, 0, -0.0995028, 0.000000000000001332, 175.274248)"/>
<g clip-path="url(#clip-4)">
<path fill-rule="nonzero" fill="rgb(17.488098%, 5.56488%, 6.315613%)" fill-opacity="1" d="M 138.371094 14.453125 L 125.609375 19.960938 L 77.628906 0.277344 L 138.371094 14.453125 "/>
</g>
<g clip-path="url(#clip-5)">
<path fill="none" stroke-width="5.48001" stroke-linecap="round" stroke-linejoin="round" stroke="rgb(13.729858%, 12.159729%, 12.548828%)" stroke-opacity="1" stroke-miterlimit="10" d="M 1390.625219 1616.24732 L 1262.37034 1560.893975 L 780.168111 1758.713484 Z M 1390.625219 1616.24732 " transform="matrix(0.0995028, 0, 0, -0.0995028, 0.000000000000001332, 175.274248)"/>
</g>
<path fill-rule="nonzero" fill="rgb(13.729858%, 12.159729%, 12.548828%)" fill-opacity="1" d="M 138.371094 14.453125 L 172.085938 55.921875 L 125.609375 19.960938 L 138.371094 14.453125 "/>
<path fill="none" stroke-width="5.48001" stroke-linecap="round" stroke-linejoin="round" stroke="rgb(13.729858%, 12.159729%, 12.548828%)" stroke-opacity="1" stroke-miterlimit="10" d="M 1390.625219 1616.24732 L 1729.458358 1199.487664 L 1262.37034 1560.893975 Z M 1390.625219 1616.24732 " transform="matrix(0.0995028, 0, 0, -0.0995028, 0.000000000000001332, 175.274248)"/>
<path fill-rule="nonzero" fill="rgb(63.996887%, 58.743286%, 79.312134%)" fill-opacity="1" d="M 125.609375 19.960938 L 172.085938 55.921875 L 72.535156 175 "/>
<path fill="none" stroke-width="5.48001" stroke-linecap="round" stroke-linejoin="round" stroke="rgb(13.729858%, 12.159729%, 12.548828%)" stroke-opacity="1" stroke-miterlimit="10" d="M 1262.37034 1560.893975 L 1729.458358 1199.487664 " transform="matrix(0.0995028, 0, 0, -0.0995028, 0.000000000000001332, 175.274248)"/>
<path fill-rule="nonzero" fill="rgb(63.996887%, 58.743286%, 79.312134%)" fill-opacity="1" d="M 176.953125 119.355469 L 134.308594 170.03125 L 72.535156 175 "/>
<g clip-path="url(#clip-6)">
<path fill="none" stroke-width="5.48001" stroke-linecap="round" stroke-linejoin="round" stroke="rgb(13.729858%, 12.159729%, 12.548828%)" stroke-opacity="1" stroke-miterlimit="10" d="M 1778.373442 561.982005 L 1349.79722 52.691968 L 728.97608 2.756184 " transform="matrix(0.0995028, 0, 0, -0.0995028, 0.000000000000001332, 175.274248)"/>
</g>
<path fill-rule="nonzero" fill="rgb(15.449524%, 9.716797%, 8.67157%)" fill-opacity="1" d="M 84.15625 173.804688 L 72.535156 175 L 134.308594 170.03125 L 84.15625 173.804688 "/>
<g clip-path="url(#clip-7)">
<path fill="none" stroke-width="5.48001" stroke-linecap="round" stroke-linejoin="round" stroke="rgb(13.729858%, 12.159729%, 12.548828%)" stroke-opacity="1" stroke-miterlimit="10" d="M 845.767714 14.769038 L 728.97608 2.756184 L 1349.79722 52.691968 Z M 845.767714 14.769038 " transform="matrix(0.0995028, 0, 0, -0.0995028, 0.000000000000001332, 175.274248)"/>
</g>
<path fill-rule="nonzero" fill="rgb(63.996887%, 58.743286%, 79.312134%)" fill-opacity="1" d="M 172.085938 55.921875 L 176.953125 119.355469 L 72.535156 175 "/>
<g clip-path="url(#clip-8)">
<path fill="none" stroke-width="5.48001" stroke-linecap="round" stroke-linejoin="round" stroke="rgb(13.729858%, 12.159729%, 12.548828%)" stroke-opacity="1" stroke-miterlimit="10" d="M 1729.458358 1199.487664 L 1778.373442 561.982005 " transform="matrix(0.0995028, 0, 0, -0.0995028, 0.000000000000001332, 175.274248)"/>
</g>
<path fill-rule="nonzero" fill="rgb(13.729858%, 12.159729%, 12.548828%)" fill-opacity="1" d="M 23.929688 152.414062 L 72.535156 175 L 84.15625 173.804688 L 23.929688 152.414062 "/>
<g clip-path="url(#clip-9)">
<path fill="none" stroke-width="5.48001" stroke-linecap="round" stroke-linejoin="round" stroke="rgb(13.729858%, 12.159729%, 12.548828%)" stroke-opacity="1" stroke-miterlimit="10" d="M 240.49262 229.744159 L 728.97608 2.756184 L 845.767714 14.769038 Z M 240.49262 229.744159 " transform="matrix(0.0995028, 0, 0, -0.0995028, 0.000000000000001332, 175.274248)"/>
</g>
<path fill-rule="nonzero" fill="rgb(87.060547%, 94.296265%, 68.60199%)" fill-opacity="1" d="M 168.972656 72.46875 L 172.085938 55.921875 L 138.371094 14.453125 L 168.972656 72.46875 "/>
<path fill="none" stroke-width="5.48001" stroke-linecap="round" stroke-linejoin="round" stroke="rgb(13.729858%, 12.159729%, 12.548828%)" stroke-opacity="1" stroke-miterlimit="10" d="M 1698.169977 1033.192081 L 1729.458358 1199.487664 L 1390.625219 1616.24732 Z M 1698.169977 1033.192081 " transform="matrix(0.0995028, 0, 0, -0.0995028, 0.000000000000001332, 175.274248)"/>
<path fill-rule="nonzero" fill="rgb(84.088135%, 75.064087%, 26.190186%)" fill-opacity="1" d="M 176.953125 119.355469 L 172.085938 55.921875 L 168.972656 72.46875 L 176.953125 119.355469 "/>
<g clip-path="url(#clip-10)">
<path fill="none" stroke-width="5.48001" stroke-linecap="round" stroke-linejoin="round" stroke="rgb(13.729858%, 12.159729%, 12.548828%)" stroke-opacity="1" stroke-miterlimit="10" d="M 1778.373442 561.982005 L 1729.458358 1199.487664 L 1698.169977 1033.192081 Z M 1778.373442 561.982005 " transform="matrix(0.0995028, 0, 0, -0.0995028, 0.000000000000001332, 175.274248)"/>
</g>
<path fill-rule="nonzero" fill="rgb(16.641235%, 30.361938%, 65.788269%)" fill-opacity="1" stroke-width="5.48001" stroke-linecap="round" stroke-linejoin="round" stroke="rgb(13.729858%, 12.159729%, 12.548828%)" stroke-opacity="1" stroke-miterlimit="10" d="M 224.475482 1427.221534 L 2.748038 813.663068 L 191.34199 787.674476 " transform="matrix(0.0995028, 0, 0, -0.0995028, 0.000000000000001332, 175.274248)"/>
<path fill-rule="nonzero" fill="rgb(16.641235%, 30.361938%, 65.788269%)" fill-opacity="1" stroke-width="5.48001" stroke-linecap="round" stroke-linejoin="round" stroke="rgb(13.729858%, 12.159729%, 12.548828%)" stroke-opacity="1" stroke-miterlimit="10" d="M 191.34199 787.674476 L 434.73968 1468.28508 L 224.475482 1427.221534 " transform="matrix(0.0995028, 0, 0, -0.0995028, 0.000000000000001332, 175.274248)"/>
<g clip-path="url(#clip-11)">
<path fill-rule="nonzero" fill="rgb(13.473511%, 47.084045%, 77.862549%)" fill-opacity="1" d="M 43.257812 29.175781 L 77.628906 0.277344 L 22.335938 33.261719 L 43.257812 29.175781 "/>
<path fill="none" stroke-width="5.48001" stroke-linecap="round" stroke-linejoin="round" stroke="rgb(13.729858%, 12.159729%, 12.548828%)" stroke-opacity="1" stroke-miterlimit="10" d="M 434.73968 1468.28508 L 780.168111 1758.713484 L 224.475482 1427.221534 Z M 434.73968 1468.28508 " transform="matrix(0.0995028, 0, 0, -0.0995028, 0.000000000000001332, 175.274248)"/>
</g>
<path fill-rule="nonzero" fill="rgb(16.853333%, 17.845154%, 41.523743%)" fill-opacity="1" d="M 19.039062 96.898438 L 0.273438 94.3125 L 23.929688 152.414062 L 19.039062 96.898438 "/>
<path fill="none" stroke-width="5.48001" stroke-linecap="round" stroke-linejoin="round" stroke="rgb(13.729858%, 12.159729%, 12.548828%)" stroke-opacity="1" stroke-miterlimit="10" d="M 191.34199 787.674476 L 2.748038 813.663068 L 240.49262 229.744159 Z M 191.34199 787.674476 " transform="matrix(0.0995028, 0, 0, -0.0995028, 0.000000000000001332, 175.274248)"/>
<path fill-rule="nonzero" fill="rgb(79.792786%, 39.343262%, 12.924194%)" fill-opacity="1" d="M 146.402344 140.746094 L 134.308594 170.03125 L 176.953125 119.355469 L 146.402344 140.746094 "/>
<g clip-path="url(#clip-12)">
<path fill="none" stroke-width="5.48001" stroke-linecap="round" stroke-linejoin="round" stroke="rgb(13.729858%, 12.159729%, 12.548828%)" stroke-opacity="1" stroke-miterlimit="10" d="M 1471.339034 347.006884 L 1349.79722 52.691968 L 1778.373442 561.982005 Z M 1471.339034 347.006884 " transform="matrix(0.0995028, 0, 0, -0.0995028, 0.000000000000001332, 175.274248)"/>
</g>
<path fill-rule="nonzero" fill="rgb(72.341919%, 32.25708%, 21.723938%)" fill-opacity="1" d="M 84.15625 173.804688 L 134.308594 170.03125 L 146.402344 140.746094 L 84.15625 173.804688 "/>
<path fill="none" stroke-width="5.48001" stroke-linecap="round" stroke-linejoin="round" stroke="rgb(13.729858%, 12.159729%, 12.548828%)" stroke-opacity="1" stroke-miterlimit="10" d="M 845.767714 14.769038 L 1349.79722 52.691968 L 1471.339034 347.006884 Z M 845.767714 14.769038 " transform="matrix(0.0995028, 0, 0, -0.0995028, 0.000000000000001332, 175.274248)"/>
<g clip-path="url(#clip-13)">
<path fill-rule="nonzero" fill="rgb(62.184143%, 79.872131%, 93.510437%)" fill-opacity="1" d="M 138.371094 14.453125 L 77.628906 0.277344 L 43.257812 29.175781 "/>
</g>
<g clip-path="url(#clip-14)">
<path fill="none" stroke-width="5.48001" stroke-linecap="round" stroke-linejoin="round" stroke="rgb(13.729858%, 12.159729%, 12.548828%)" stroke-opacity="1" stroke-miterlimit="10" d="M 1390.625219 1616.24732 L 780.168111 1758.713484 L 434.73968 1468.28508 " transform="matrix(0.0995028, 0, 0, -0.0995028, 0.000000000000001332, 175.274248)"/>
</g>
<path fill-rule="nonzero" fill="rgb(95.033264%, 70.040894%, 48.361206%)" fill-opacity="1" d="M 146.402344 140.746094 L 176.953125 119.355469 L 168.972656 72.46875 L 146.402344 140.746094 "/>
<g clip-path="url(#clip-15)">
<path fill="none" stroke-width="5.48001" stroke-linecap="round" stroke-linejoin="round" stroke="rgb(13.729858%, 12.159729%, 12.548828%)" stroke-opacity="1" stroke-miterlimit="10" d="M 1471.339034 347.006884 L 1778.373442 561.982005 L 1698.169977 1033.192081 Z M 1471.339034 347.006884 " transform="matrix(0.0995028, 0, 0, -0.0995028, 0.000000000000001332, 175.274248)"/>
</g>
<path fill-rule="nonzero" fill="rgb(54.808044%, 35.246277%, 58.149719%)" fill-opacity="1" stroke-width="5.48001" stroke-linecap="round" stroke-linejoin="round" stroke="rgb(13.729858%, 12.159729%, 12.548828%)" stroke-opacity="1" stroke-miterlimit="10" d="M 240.49262 229.744159 L 845.767714 14.769038 L 837.759145 583.927055 " transform="matrix(0.0995028, 0, 0, -0.0995028, 0.000000000000001332, 175.274248)"/>
<path fill-rule="nonzero" fill="rgb(54.808044%, 35.246277%, 58.149719%)" fill-opacity="1" stroke-width="5.48001" stroke-linecap="round" stroke-linejoin="round" stroke="rgb(13.729858%, 12.159729%, 12.548828%)" stroke-opacity="1" stroke-miterlimit="10" d="M 837.759145 583.927055 L 191.34199 787.674476 L 240.49262 229.744159 " transform="matrix(0.0995028, 0, 0, -0.0995028, 0.000000000000001332, 175.274248)"/>
<path fill-rule="nonzero" fill="rgb(62.184143%, 79.872131%, 93.510437%)" fill-opacity="1" stroke-width="5.48001" stroke-linecap="round" stroke-linejoin="round" stroke="rgb(13.729858%, 12.159729%, 12.548828%)" stroke-opacity="1" stroke-miterlimit="10" d="M 434.73968 1468.28508 L 1083.904873 1299.319974 L 1390.625219 1616.24732 " transform="matrix(0.0995028, 0, 0, -0.0995028, 0.000000000000001332, 175.274248)"/>
<path fill-rule="nonzero" fill="rgb(83.763123%, 84.127808%, 86.712646%)" fill-opacity="1" d="M 107.851562 45.988281 L 168.972656 72.46875 L 138.371094 14.453125 L 107.851562 45.988281 "/>
<path fill="none" stroke-width="5.48001" stroke-linecap="round" stroke-linejoin="round" stroke="rgb(13.729858%, 12.159729%, 12.548828%)" stroke-opacity="1" stroke-miterlimit="10" d="M 1083.904873 1299.319974 L 1698.169977 1033.192081 L 1390.625219 1616.24732 Z M 1083.904873 1299.319974 " transform="matrix(0.0995028, 0, 0, -0.0995028, 0.000000000000001332, 175.274248)"/>
<path fill-rule="nonzero" fill="rgb(73.425293%, 48.468018%, 57.531738%)" fill-opacity="1" d="M 83.359375 117.171875 L 84.15625 173.804688 L 146.402344 140.746094 L 83.359375 117.171875 "/>
<path fill="none" stroke-width="5.48001" stroke-linecap="round" stroke-linejoin="round" stroke="rgb(13.729858%, 12.159729%, 12.548828%)" stroke-opacity="1" stroke-miterlimit="10" d="M 837.759145 583.927055 L 845.767714 14.769038 L 1471.339034 347.006884 Z M 837.759145 583.927055 " transform="matrix(0.0995028, 0, 0, -0.0995028, 0.000000000000001332, 175.274248)"/>
<path fill-rule="nonzero" fill="rgb(80.570984%, 66.217041%, 72.943115%)" fill-opacity="1" stroke-width="5.48001" stroke-linecap="round" stroke-linejoin="round" stroke="rgb(13.729858%, 12.159729%, 12.548828%)" stroke-opacity="1" stroke-miterlimit="10" d="M 1471.339034 347.006884 L 1698.169977 1033.192081 L 1083.904873 1299.319974 " transform="matrix(0.0995028, 0, 0, -0.0995028, 0.000000000000001332, 175.274248)"/>
<path fill-rule="nonzero" fill="rgb(62.229919%, 58.477783%, 79.272461%)" fill-opacity="1" stroke-width="5.48001" stroke-linecap="round" stroke-linejoin="round" stroke="rgb(13.729858%, 12.159729%, 12.548828%)" stroke-opacity="1" stroke-miterlimit="10" d="M 1083.904873 1299.319974 L 434.73968 1468.28508 L 191.34199 787.674476 " transform="matrix(0.0995028, 0, 0, -0.0995028, 0.000000000000001332, 175.274248)"/>
<path fill-rule="nonzero" fill="rgb(80.570984%, 66.217041%, 72.943115%)" fill-opacity="1" stroke-width="5.48001" stroke-linecap="round" stroke-linejoin="round" stroke="rgb(13.729858%, 12.159729%, 12.548828%)" stroke-opacity="1" stroke-miterlimit="10" d="M 1083.904873 1299.319974 L 837.759145 583.927055 L 1471.339034 347.006884 " transform="matrix(0.0995028, 0, 0, -0.0995028, 0.000000000000001332, 175.274248)"/>
<path fill-rule="nonzero" fill="rgb(62.229919%, 58.477783%, 79.272461%)" fill-opacity="1" stroke-width="5.48001" stroke-linecap="round" stroke-linejoin="round" stroke="rgb(13.729858%, 12.159729%, 12.548828%)" stroke-opacity="1" stroke-miterlimit="10" d="M 191.34199 787.674476 L 837.759145 583.927055 L 1083.904873 1299.319974 " transform="matrix(0.0995028, 0, 0, -0.0995028, 0.000000000000001332, 175.274248)"/>
</svg>
