<?xml version="1.0" encoding="UTF-8"?>
<svg xmlns="http://www.w3.org/2000/svg" xmlns:xlink="http://www.w3.org/1999/xlink" width="298" height="250" viewBox="0 0 298 250">
<path fill="none" stroke-width="11.8922" stroke-linecap="round" stroke-linejoin="round" stroke="rgb(0%, 0%, 0%)" stroke-opacity="1" stroke-miterlimit="10" d="M 1018.085938 889.492188 L 748.4375 889.492188 L 530.273438 730.9375 L 446.953125 474.492188 L 530.273438 218.046875 L 748.4375 59.53125 L 1018.085938 59.53125 L 1236.25 218.046875 L 1319.609375 474.492188 L 1236.25 730.9375 L 1018.085938 889.492188 " transform="matrix(0.1, 0, 0, -0.1, 0, 250)"/>
<path fill="none" stroke-width="11.8922" stroke-linecap="round" stroke-linejoin="round" stroke="rgb(0%, 0%, 0%)" stroke-opacity="1" stroke-miterlimit="10" d="M 74.257812 1123.007812 L 209.101562 889.492188 L 343.90625 1123.007812 L 74.257812 1123.007812 " transform="matrix(0.1, 0, 0, -0.1, 0, 250)"/>
<path fill="none" stroke-width="11.8922" stroke-linecap="round" stroke-linejoin="round" stroke="rgb(0%, 0%, 0%)" stroke-opacity="1" stroke-miterlimit="10" d="M 343.90625 1123.007812 L 209.101562 889.492188 L 478.75 889.492188 L 343.90625 1123.007812 " transform="matrix(0.1, 0, 0, -0.1, 0, 250)"/>
<path fill="none" stroke-width="11.8922" stroke-linecap="round" stroke-linejoin="round" stroke="rgb(0%, 0%, 0%)" stroke-opacity="1" stroke-miterlimit="10" d="M 343.90625 1123.007812 L 478.75 889.492188 L 613.59375 1123.007812 L 343.90625 1123.007812 " transform="matrix(0.1, 0, 0, -0.1, 0, 250)"/>
<path fill="none" stroke-width="11.8922" stroke-linecap="round" stroke-linejoin="round" stroke="rgb(0%, 0%, 0%)" stroke-opacity="1" stroke-miterlimit="10" d="M 613.59375 1123.007812 L 478.75 889.492188 L 748.4375 889.492188 L 613.59375 1123.007812 " transform="matrix(0.1, 0, 0, -0.1, 0, 250)"/>
<path fill="none" stroke-width="11.8922" stroke-linecap="round" stroke-linejoin="round" stroke="rgb(0%, 0%, 0%)" stroke-opacity="1" stroke-miterlimit="10" d="M 613.59375 1123.007812 L 748.4375 889.492188 L 883.28125 1123.007812 L 613.59375 1123.007812 " transform="matrix(0.1, 0, 0, -0.1, 0, 250)"/>
<path fill="none" stroke-width="11.8922" stroke-linecap="round" stroke-linejoin="round" stroke="rgb(0%, 0%, 0%)" stroke-opacity="1" stroke-miterlimit="10" d="M 883.28125 1123.007812 L 748.4375 889.492188 L 1018.085938 889.492188 L 883.28125 1123.007812 " transform="matrix(0.1, 0, 0, -0.1, 0, 250)"/>
<path fill="none" stroke-width="11.8922" stroke-linecap="round" stroke-linejoin="round" stroke="rgb(0%, 0%, 0%)" stroke-opacity="1" stroke-miterlimit="10" d="M 883.28125 1123.007812 L 1018.085938 889.492188 L 1152.929688 1123.007812 L 883.28125 1123.007812 " transform="matrix(0.1, 0, 0, -0.1, 0, 250)"/>
<path fill="none" stroke-width="11.8922" stroke-linecap="round" stroke-linejoin="round" stroke="rgb(0%, 0%, 0%)" stroke-opacity="1" stroke-miterlimit="10" d="M 1152.929688 1123.007812 L 1018.085938 889.492188 L 1287.734375 889.492188 L 1152.929688 1123.007812 " transform="matrix(0.1, 0, 0, -0.1, 0, 250)"/>
<path fill="none" stroke-width="11.8922" stroke-linecap="round" stroke-linejoin="round" stroke="rgb(0%, 0%, 0%)" stroke-opacity="1" stroke-miterlimit="10" d="M 1152.929688 1123.007812 L 1287.734375 889.492188 L 1422.578125 1123.007812 L 1152.929688 1123.007812 " transform="matrix(0.1, 0, 0, -0.1, 0, 250)"/>
<path fill="none" stroke-width="11.8922" stroke-linecap="round" stroke-linejoin="round" stroke="rgb(0%, 0%, 0%)" stroke-opacity="1" stroke-miterlimit="10" d="M 1422.578125 1123.007812 L 1287.734375 889.492188 L 1557.421875 889.492188 L 1422.578125 1123.007812 " transform="matrix(0.1, 0, 0, -0.1, 0, 250)"/>
<path fill="none" stroke-width="11.8922" stroke-linecap="round" stroke-linejoin="round" stroke="rgb(0%, 0%, 0%)" stroke-opacity="1" stroke-miterlimit="10" d="M 748.4375 1537.96875 L 994.765625 1647.65625 L 966.601562 1915.820312 L 702.8125 1971.914062 L 567.96875 1738.359375 L 748.4375 1537.96875 " transform="matrix(0.1, 0, 0, -0.1, 0, 250)"/>
<path fill="none" stroke-width="11.8922" stroke-linecap="round" stroke-linejoin="round" stroke="rgb(0%, 0%, 0%)" stroke-opacity="1" stroke-miterlimit="10" d="M 748.4375 1537.96875 L 530.273438 1379.453125 L 613.59375 1123.007812 L 883.28125 1123.007812 L 966.601562 1379.453125 L 748.4375 1537.96875 " transform="matrix(0.1, 0, 0, -0.1, 0, 250)"/>
<path fill="none" stroke-width="11.8922" stroke-linecap="round" stroke-linejoin="round" stroke="rgb(0%, 0%, 0%)" stroke-opacity="1" stroke-miterlimit="10" d="M 748.4375 1537.96875 L 966.601562 1379.453125 L 994.765625 1647.65625 L 748.4375 1537.96875 " transform="matrix(0.1, 0, 0, -0.1, 0, 250)"/>
<path fill="none" stroke-width="11.8922" stroke-linecap="round" stroke-linejoin="round" stroke="rgb(0%, 0%, 0%)" stroke-opacity="1" stroke-miterlimit="10" d="M 966.601562 1379.453125 L 883.28125 1123.007812 L 1147.03125 1179.0625 L 966.601562 1379.453125 " transform="matrix(0.1, 0, 0, -0.1, 0, 250)"/>
<path fill="none" stroke-width="11.8922" stroke-linecap="round" stroke-linejoin="round" stroke="rgb(0%, 0%, 0%)" stroke-opacity="1" stroke-miterlimit="10" d="M 994.765625 1647.65625 L 1078.125 1391.171875 L 1347.773438 1391.171875 L 1431.09375 1647.65625 L 1212.929688 1806.132812 L 994.765625 1647.65625 " transform="matrix(0.1, 0, 0, -0.1, 0, 250)"/>
<path fill="none" stroke-width="11.8922" stroke-linecap="round" stroke-linejoin="round" stroke="rgb(0%, 0%, 0%)" stroke-opacity="1" stroke-miterlimit="10" d="M 994.765625 1647.65625 L 1212.929688 1806.132812 L 966.601562 1915.820312 L 994.765625 1647.65625 " transform="matrix(0.1, 0, 0, -0.1, 0, 250)"/>
<path fill="none" stroke-width="11.8922" stroke-linecap="round" stroke-linejoin="round" stroke="rgb(0%, 0%, 0%)" stroke-opacity="1" stroke-miterlimit="10" d="M 1212.929688 1806.132812 L 1431.09375 1647.65625 L 1459.296875 1915.820312 L 1212.929688 1806.132812 " transform="matrix(0.1, 0, 0, -0.1, 0, 250)"/>
<path fill="none" stroke-width="11.8922" stroke-linecap="round" stroke-linejoin="round" stroke="rgb(0%, 0%, 0%)" stroke-opacity="1" stroke-miterlimit="10" d="M 966.601562 1915.820312 L 1236.25 1915.820312 L 1319.609375 2172.304688 L 1101.40625 2330.78125 L 883.28125 2172.304688 L 966.601562 1915.820312 " transform="matrix(0.1, 0, 0, -0.1, 0, 250)"/>
<path fill="none" stroke-width="11.8922" stroke-linecap="round" stroke-linejoin="round" stroke="rgb(0%, 0%, 0%)" stroke-opacity="1" stroke-miterlimit="10" d="M 966.601562 1915.820312 L 883.28125 2172.304688 L 702.8125 1971.914062 L 966.601562 1915.820312 " transform="matrix(0.1, 0, 0, -0.1, 0, 250)"/>
<path fill="none" stroke-width="11.8922" stroke-linecap="round" stroke-linejoin="round" stroke="rgb(0%, 0%, 0%)" stroke-opacity="1" stroke-miterlimit="10" d="M 883.28125 2172.304688 L 1101.40625 2330.78125 L 855.078125 2440.46875 L 883.28125 2172.304688 " transform="matrix(0.1, 0, 0, -0.1, 0, 250)"/>
<path fill="none" stroke-width="11.8922" stroke-linecap="round" stroke-linejoin="round" stroke="rgb(0%, 0%, 0%)" stroke-opacity="1" stroke-miterlimit="10" d="M 702.8125 1971.914062 L 786.171875 2228.359375 L 567.96875 2386.875 L 349.804688 2228.359375 L 433.164062 1971.914062 L 702.8125 1971.914062 " transform="matrix(0.1, 0, 0, -0.1, 0, 250)"/>
<path fill="none" stroke-width="11.8922" stroke-linecap="round" stroke-linejoin="round" stroke="rgb(0%, 0%, 0%)" stroke-opacity="1" stroke-miterlimit="10" d="M 702.8125 1971.914062 L 433.164062 1971.914062 L 567.96875 1738.359375 L 702.8125 1971.914062 " transform="matrix(0.1, 0, 0, -0.1, 0, 250)"/>
<path fill="none" stroke-width="11.8922" stroke-linecap="round" stroke-linejoin="round" stroke="rgb(0%, 0%, 0%)" stroke-opacity="1" stroke-miterlimit="10" d="M 433.164062 1971.914062 L 349.804688 2228.359375 L 169.375 2027.96875 L 433.164062 1971.914062 " transform="matrix(0.1, 0, 0, -0.1, 0, 250)"/>
<path fill="none" stroke-width="11.8922" stroke-linecap="round" stroke-linejoin="round" stroke="rgb(0%, 0%, 0%)" stroke-opacity="1" stroke-miterlimit="10" d="M 567.96875 1738.359375 L 349.804688 1896.875 L 131.640625 1738.359375 L 214.960938 1481.914062 L 484.6875 1481.914062 L 567.96875 1738.359375 " transform="matrix(0.1, 0, 0, -0.1, 0, 250)"/>
<path fill="none" stroke-width="11.8922" stroke-linecap="round" stroke-linejoin="round" stroke="rgb(0%, 0%, 0%)" stroke-opacity="1" stroke-miterlimit="10" d="M 567.96875 1738.359375 L 484.6875 1481.914062 L 748.4375 1537.96875 L 567.96875 1738.359375 " transform="matrix(0.1, 0, 0, -0.1, 0, 250)"/>
<path fill="none" stroke-width="11.8922" stroke-linecap="round" stroke-linejoin="round" stroke="rgb(0%, 0%, 0%)" stroke-opacity="1" stroke-miterlimit="10" d="M 484.6875 1481.914062 L 214.960938 1481.914062 L 349.804688 1248.398438 L 484.6875 1481.914062 " transform="matrix(0.1, 0, 0, -0.1, 0, 250)"/>
<path fill="none" stroke-width="11.8922" stroke-linecap="round" stroke-linejoin="round" stroke="rgb(0%, 0%, 0%)" stroke-opacity="1" stroke-miterlimit="10" d="M 1422.578125 1123.007812 L 1557.421875 889.492188 L 1692.265625 1123.007812 L 1422.578125 1123.007812 " transform="matrix(0.1, 0, 0, -0.1, 0, 250)"/>
<path fill="none" stroke-width="11.8922" stroke-linecap="round" stroke-linejoin="round" stroke="rgb(0%, 0%, 0%)" stroke-opacity="1" stroke-miterlimit="10" d="M 1557.421875 889.492188 L 1692.265625 1123.007812 L 1827.070312 889.492188 L 1557.421875 889.492188 " transform="matrix(0.1, 0, 0, -0.1, 0, 250)"/>
<path fill="none" stroke-width="11.8922" stroke-linecap="round" stroke-linejoin="round" stroke="rgb(0%, 0%, 0%)" stroke-opacity="1" stroke-miterlimit="10" d="M 1692.265625 1123.007812 L 1827.070312 889.492188 L 1961.914062 1123.007812 L 1692.265625 1123.007812 " transform="matrix(0.1, 0, 0, -0.1, 0, 250)"/>
<path fill="none" stroke-width="11.8922" stroke-linecap="round" stroke-linejoin="round" stroke="rgb(0%, 0%, 0%)" stroke-opacity="1" stroke-miterlimit="10" d="M 1827.070312 889.492188 L 1961.914062 1123.007812 L 2096.757812 889.492188 L 1827.070312 889.492188 " transform="matrix(0.1, 0, 0, -0.1, 0, 250)"/>
<path fill="none" stroke-width="11.8922" stroke-linecap="round" stroke-linejoin="round" stroke="rgb(0%, 0%, 0%)" stroke-opacity="1" stroke-miterlimit="10" d="M 1961.914062 1123.007812 L 2096.757812 889.492188 L 2231.5625 1123.007812 L 1961.914062 1123.007812 " transform="matrix(0.1, 0, 0, -0.1, 0, 250)"/>
<path fill="none" stroke-width="11.8922" stroke-linecap="round" stroke-linejoin="round" stroke="rgb(0%, 0%, 0%)" stroke-opacity="1" stroke-miterlimit="10" d="M 2096.757812 889.492188 L 2231.5625 1123.007812 L 2366.40625 889.492188 L 2096.757812 889.492188 " transform="matrix(0.1, 0, 0, -0.1, 0, 250)"/>
<path fill="none" stroke-width="11.8922" stroke-linecap="round" stroke-linejoin="round" stroke="rgb(0%, 0%, 0%)" stroke-opacity="1" stroke-miterlimit="10" d="M 2231.5625 1123.007812 L 2366.40625 889.492188 L 2501.25 1123.007812 L 2231.5625 1123.007812 " transform="matrix(0.1, 0, 0, -0.1, 0, 250)"/>
<path fill="none" stroke-width="11.8922" stroke-linecap="round" stroke-linejoin="round" stroke="rgb(0%, 0%, 0%)" stroke-opacity="1" stroke-miterlimit="10" d="M 2366.40625 889.492188 L 2501.25 1123.007812 L 2636.09375 889.492188 L 2366.40625 889.492188 " transform="matrix(0.1, 0, 0, -0.1, 0, 250)"/>
<path fill="none" stroke-width="11.8922" stroke-linecap="round" stroke-linejoin="round" stroke="rgb(0%, 0%, 0%)" stroke-opacity="1" stroke-miterlimit="10" d="M 2501.25 1123.007812 L 2636.09375 889.492188 L 2770.898438 1123.007812 L 2501.25 1123.007812 " transform="matrix(0.1, 0, 0, -0.1, 0, 250)"/>
<path fill="none" stroke-width="11.8922" stroke-linecap="round" stroke-linejoin="round" stroke="rgb(0%, 0%, 0%)" stroke-opacity="1" stroke-miterlimit="10" d="M 2636.09375 889.492188 L 2770.898438 1123.007812 L 2905.742188 889.492188 L 2636.09375 889.492188 " transform="matrix(0.1, 0, 0, -0.1, 0, 250)"/>
</svg>
