<?xml version="1.0" encoding="UTF-8"?>
<svg xmlns="http://www.w3.org/2000/svg" xmlns:xlink="http://www.w3.org/1999/xlink" width="203" height="201" viewBox="0 0 203 201">
<path fill-rule="nonzero" fill="rgb(43.089294%, 49.804688%, 82.8125%)" fill-opacity="1" stroke-width="7.26" stroke-linecap="round" stroke-linejoin="round" stroke="rgb(0%, 0%, 0%)" stroke-opacity="1" stroke-miterlimit="10" d="M 1115.078125 -15.585938 L 1277.734375 656.09375 L 1942.460938 1083.085938 " transform="matrix(0.1, 0, 0, -0.1, 0, 201)"/>
<path fill-rule="nonzero" fill="rgb(61.131287%, 47.288513%, 66.992188%)" fill-opacity="1" d="M 127.773438 135.390625 L 120.574219 44.3125 L 194.246094 92.691406 "/>
<path fill="none" stroke-width="7.26" stroke-linecap="round" stroke-linejoin="round" stroke="rgb(0%, 0%, 0%)" stroke-opacity="1" stroke-miterlimit="10" d="M 1277.734375 656.09375 L 1205.742188 1566.875 L 1942.460938 1083.085938 Z M 1277.734375 656.09375 " transform="matrix(0.1, 0, 0, -0.1, 0, 201)"/>
<path fill-rule="nonzero" fill="rgb(75.389099%, 59.959412%, 68.359375%)" fill-opacity="1" stroke-width="7.26" stroke-linecap="round" stroke-linejoin="round" stroke="rgb(0%, 0%, 0%)" stroke-opacity="1" stroke-miterlimit="10" d="M 309.960938 1452.34375 L 1205.742188 1566.875 L 1277.734375 656.09375 " transform="matrix(0.1, 0, 0, -0.1, 0, 201)"/>
<path fill-rule="nonzero" fill="rgb(75.389099%, 59.959412%, 68.359375%)" fill-opacity="1" stroke-width="7.26" stroke-linecap="round" stroke-linejoin="round" stroke="rgb(0%, 0%, 0%)" stroke-opacity="1" stroke-miterlimit="10" d="M 1277.734375 656.09375 L 399.53125 515.742188 L 309.960938 1452.34375 " transform="matrix(0.1, 0, 0, -0.1, 0, 201)"/>
<path fill-rule="nonzero" fill="rgb(71.875%, 69.334412%, 82.421875%)" fill-opacity="1" d="M 39.953125 149.425781 L 127.773438 135.390625 L 111.507812 202.558594 "/>
<path fill="none" stroke-width="7.26" stroke-linecap="round" stroke-linejoin="round" stroke="rgb(0%, 0%, 0%)" stroke-opacity="1" stroke-miterlimit="10" d="M 399.53125 515.742188 L 1277.734375 656.09375 L 1115.078125 -15.585938 Z M 399.53125 515.742188 " transform="matrix(0.1, 0, 0, -0.1, 0, 201)"/>
<path fill-rule="nonzero" fill="rgb(44.700623%, 19.700623%, 44.091797%)" fill-opacity="1" d="M 152.703125 19.042969 L 194.246094 92.691406 L 120.574219 44.3125 "/>
<path fill="none" stroke-width="7.26" stroke-linecap="round" stroke-linejoin="round" stroke="rgb(0%, 0%, 0%)" stroke-opacity="1" stroke-miterlimit="10" d="M 1527.03125 1819.570312 L 1942.460938 1083.085938 L 1205.742188 1566.875 Z M 1527.03125 1819.570312 " transform="matrix(0.1, 0, 0, -0.1, 0, 201)"/>
<path fill-rule="nonzero" fill="rgb(60.351562%, 9.912109%, 2.600098%)" fill-opacity="1" stroke-width="7.26" stroke-linecap="round" stroke-linejoin="round" stroke="rgb(0%, 0%, 0%)" stroke-opacity="1" stroke-miterlimit="10" d="M 1205.742188 1566.875 L 309.960938 1452.34375 L 554.84375 1702.460938 " transform="matrix(0.1, 0, 0, -0.1, 0, 201)"/>
<path fill-rule="nonzero" fill="rgb(60.351562%, 9.912109%, 2.600098%)" fill-opacity="1" stroke-width="7.26" stroke-linecap="round" stroke-linejoin="round" stroke="rgb(0%, 0%, 0%)" stroke-opacity="1" stroke-miterlimit="10" d="M 554.84375 1702.460938 L 1527.03125 1819.570312 L 1205.742188 1566.875 " transform="matrix(0.1, 0, 0, -0.1, 0, 201)"/>
<path fill-rule="nonzero" fill="rgb(96.09375%, 79.296875%, 62.889099%)" fill-opacity="1" d="M 39.953125 149.425781 L 6.710938 120.523438 L 30.996094 55.765625 "/>
<path fill="none" stroke-width="7.26" stroke-linecap="round" stroke-linejoin="round" stroke="rgb(0%, 0%, 0%)" stroke-opacity="1" stroke-miterlimit="10" d="M 399.53125 515.742188 L 67.109375 804.765625 L 309.960938 1452.34375 Z M 399.53125 515.742188 " transform="matrix(0.1, 0, 0, -0.1, 0, 201)"/>
<path fill-rule="nonzero" fill="rgb(0%, 0%, 0%)" fill-opacity="1" stroke-width="7.26" stroke-linecap="round" stroke-linejoin="round" stroke="rgb(0%, 0%, 0%)" stroke-opacity="1" stroke-miterlimit="10" d="M 837.8125 234.296875 L 67.109375 804.765625 L 399.53125 515.742188 " transform="matrix(0.1, 0, 0, -0.1, 0, 201)"/>
<path fill-rule="nonzero" fill="rgb(0%, 0%, 0%)" fill-opacity="1" stroke-width="7.26" stroke-linecap="round" stroke-linejoin="round" stroke="rgb(0%, 0%, 0%)" stroke-opacity="1" stroke-miterlimit="10" d="M 399.53125 515.742188 L 1115.078125 -15.585938 L 837.8125 234.296875 " transform="matrix(0.1, 0, 0, -0.1, 0, 201)"/>
<path fill-rule="nonzero" fill="rgb(0%, 5.499268%, 62.109375%)" fill-opacity="1" d="M 55.484375 30.753906 L 30.996094 55.765625 L 6.710938 120.523438 "/>
<path fill="none" stroke-width="7.26" stroke-linecap="round" stroke-linejoin="round" stroke="rgb(0%, 0%, 0%)" stroke-opacity="1" stroke-miterlimit="10" d="M 554.84375 1702.460938 L 309.960938 1452.34375 L 67.109375 804.765625 Z M 554.84375 1702.460938 " transform="matrix(0.1, 0, 0, -0.1, 0, 201)"/>
<path fill-rule="nonzero" fill="rgb(43.089294%, 49.804688%, 82.8125%)" fill-opacity="1" stroke-width="7.26" stroke-linecap="round" stroke-linejoin="round" stroke="rgb(0%, 0%, 0%)" stroke-opacity="1" stroke-miterlimit="10" d="M 1942.460938 1083.085938 L 1819.765625 403.007812 L 1115.078125 -15.585938 " transform="matrix(0.1, 0, 0, -0.1, 0, 201)"/>
<path fill-rule="nonzero" fill="rgb(93.943787%, 83.201599%, 71.289062%)" fill-opacity="1" stroke-width="7.26" stroke-linecap="round" stroke-linejoin="round" stroke="rgb(0%, 0%, 0%)" stroke-opacity="1" stroke-miterlimit="10" d="M 1819.765625 403.007812 L 1942.460938 1083.085938 L 1527.03125 1819.570312 " transform="matrix(0.1, 0, 0, -0.1, 0, 201)"/>
<path fill-rule="nonzero" fill="rgb(71.09375%, 29.197693%, 25.193787%)" fill-opacity="1" d="M 111.507812 202.558594 L 181.976562 160.699219 L 83.78125 177.570312 "/>
<path fill="none" stroke-width="7.26" stroke-linecap="round" stroke-linejoin="round" stroke="rgb(0%, 0%, 0%)" stroke-opacity="1" stroke-miterlimit="10" d="M 1115.078125 -15.585938 L 1819.765625 403.007812 L 837.8125 234.296875 Z M 1115.078125 -15.585938 " transform="matrix(0.1, 0, 0, -0.1, 0, 201)"/>
<path fill-rule="nonzero" fill="rgb(93.943787%, 83.201599%, 71.289062%)" fill-opacity="1" stroke-width="7.26" stroke-linecap="round" stroke-linejoin="round" stroke="rgb(0%, 0%, 0%)" stroke-opacity="1" stroke-miterlimit="10" d="M 1527.03125 1819.570312 L 1364.335938 1158.164062 L 1819.765625 403.007812 " transform="matrix(0.1, 0, 0, -0.1, 0, 201)"/>
<path fill-rule="nonzero" fill="rgb(71.875%, 72.068787%, 85.15625%)" fill-opacity="1" d="M 152.703125 19.042969 L 55.484375 30.753906 L 136.433594 85.183594 "/>
<path fill="none" stroke-width="7.26" stroke-linecap="round" stroke-linejoin="round" stroke="rgb(0%, 0%, 0%)" stroke-opacity="1" stroke-miterlimit="10" d="M 1527.03125 1819.570312 L 554.84375 1702.460938 L 1364.335938 1158.164062 Z M 1527.03125 1819.570312 " transform="matrix(0.1, 0, 0, -0.1, 0, 201)"/>
<path fill-rule="nonzero" fill="rgb(62.5%, 51.5625%, 70.896912%)" fill-opacity="1" stroke-width="7.26" stroke-linecap="round" stroke-linejoin="round" stroke="rgb(0%, 0%, 0%)" stroke-opacity="1" stroke-miterlimit="10" d="M 67.109375 804.765625 L 837.8125 234.296875 L 1364.335938 1158.164062 " transform="matrix(0.1, 0, 0, -0.1, 0, 201)"/>
<path fill-rule="nonzero" fill="rgb(62.5%, 51.5625%, 70.896912%)" fill-opacity="1" stroke-width="7.26" stroke-linecap="round" stroke-linejoin="round" stroke="rgb(0%, 0%, 0%)" stroke-opacity="1" stroke-miterlimit="10" d="M 1364.335938 1158.164062 L 554.84375 1702.460938 L 67.109375 804.765625 " transform="matrix(0.1, 0, 0, -0.1, 0, 201)"/>
<path fill-rule="nonzero" fill="rgb(76.5625%, 56.443787%, 62.5%)" fill-opacity="1" d="M 136.433594 85.183594 L 83.78125 177.570312 L 181.976562 160.699219 "/>
<path fill="none" stroke-width="7.26" stroke-linecap="round" stroke-linejoin="round" stroke="rgb(0%, 0%, 0%)" stroke-opacity="1" stroke-miterlimit="10" d="M 1364.335938 1158.164062 L 837.8125 234.296875 L 1819.765625 403.007812 Z M 1364.335938 1158.164062 " transform="matrix(0.1, 0, 0, -0.1, 0, 201)"/>
</svg>
