<?xml version="1.0" encoding="UTF-8"?>
<svg xmlns="http://www.w3.org/2000/svg" xmlns:xlink="http://www.w3.org/1999/xlink" width="282" height="141" viewBox="0 0 282 141">
<path fill="none" stroke-width="11.28" stroke-linecap="round" stroke-linejoin="round" stroke="rgb(0%, 0%, 0%)" stroke-opacity="1" stroke-miterlimit="10" d="M 962.382812 481.171875 L 962.382812 928.828125 L 514.765625 928.828125 L 514.765625 481.171875 L 962.382812 481.171875 " transform="matrix(0.1, 0, 0, -0.1, 0, 141)"/>
<path fill="none" stroke-width="11.28" stroke-linecap="round" stroke-linejoin="round" stroke="rgb(0%, 0%, 0%)" stroke-opacity="1" stroke-miterlimit="10" d="M 962.382812 928.828125 L 962.382812 481.171875 L 1410 481.171875 L 1410 928.828125 L 962.382812 928.828125 " transform="matrix(0.1, 0, 0, -0.1, 0, 141)"/>
<path fill="none" stroke-width="11.28" stroke-linecap="round" stroke-linejoin="round" stroke="rgb(0%, 0%, 0%)" stroke-opacity="1" stroke-miterlimit="10" d="M 962.382812 928.828125 L 1410 928.828125 L 1186.171875 1316.445312 L 962.382812 928.828125 " transform="matrix(0.1, 0, 0, -0.1, 0, 141)"/>
<path fill="none" stroke-width="11.28" stroke-linecap="round" stroke-linejoin="round" stroke="rgb(0%, 0%, 0%)" stroke-opacity="1" stroke-miterlimit="10" d="M 514.765625 928.828125 L 962.382812 928.828125 L 962.382812 1376.445312 L 514.765625 1376.445312 L 514.765625 928.828125 " transform="matrix(0.1, 0, 0, -0.1, 0, 141)"/>
<path fill="none" stroke-width="11.28" stroke-linecap="round" stroke-linejoin="round" stroke="rgb(0%, 0%, 0%)" stroke-opacity="1" stroke-miterlimit="10" d="M 514.765625 928.828125 L 514.765625 1376.445312 L 127.109375 1152.617188 L 514.765625 928.828125 " transform="matrix(0.1, 0, 0, -0.1, 0, 141)"/>
<path fill="none" stroke-width="11.28" stroke-linecap="round" stroke-linejoin="round" stroke="rgb(0%, 0%, 0%)" stroke-opacity="1" stroke-miterlimit="10" d="M 514.765625 481.171875 L 514.765625 928.828125 L 67.148438 928.828125 L 67.148438 481.171875 L 514.765625 481.171875 " transform="matrix(0.1, 0, 0, -0.1, 0, 141)"/>
<path fill="none" stroke-width="11.28" stroke-linecap="round" stroke-linejoin="round" stroke="rgb(0%, 0%, 0%)" stroke-opacity="1" stroke-miterlimit="10" d="M 514.765625 481.171875 L 67.148438 481.171875 L 290.9375 93.554688 L 514.765625 481.171875 " transform="matrix(0.1, 0, 0, -0.1, 0, 141)"/>
<path fill="none" stroke-width="11.28" stroke-linecap="round" stroke-linejoin="round" stroke="rgb(0%, 0%, 0%)" stroke-opacity="1" stroke-miterlimit="10" d="M 962.382812 481.171875 L 514.765625 481.171875 L 514.765625 33.554688 L 962.382812 33.554688 L 962.382812 481.171875 " transform="matrix(0.1, 0, 0, -0.1, 0, 141)"/>
<path fill="none" stroke-width="11.28" stroke-linecap="round" stroke-linejoin="round" stroke="rgb(0%, 0%, 0%)" stroke-opacity="1" stroke-miterlimit="10" d="M 962.382812 481.171875 L 962.382812 33.554688 L 1350.039062 257.382812 L 962.382812 481.171875 " transform="matrix(0.1, 0, 0, -0.1, 0, 141)"/>
<path fill="none" stroke-width="11.28" stroke-linecap="round" stroke-linejoin="round" stroke="rgb(0%, 0%, 0%)" stroke-opacity="1" stroke-miterlimit="10" d="M 1857.617188 928.828125 L 1857.617188 481.171875 L 2305.234375 481.171875 L 2305.234375 928.828125 L 1857.617188 928.828125 " transform="matrix(0.1, 0, 0, -0.1, 0, 141)"/>
<path fill="none" stroke-width="11.28" stroke-linecap="round" stroke-linejoin="round" stroke="rgb(0%, 0%, 0%)" stroke-opacity="1" stroke-miterlimit="10" d="M 1857.617188 481.171875 L 1857.617188 928.828125 L 1410 928.828125 L 1410 481.171875 L 1857.617188 481.171875 " transform="matrix(0.1, 0, 0, -0.1, 0, 141)"/>
<path fill="none" stroke-width="11.28" stroke-linecap="round" stroke-linejoin="round" stroke="rgb(0%, 0%, 0%)" stroke-opacity="1" stroke-miterlimit="10" d="M 1857.617188 481.171875 L 1410 481.171875 L 1633.828125 93.554688 L 1857.617188 481.171875 " transform="matrix(0.1, 0, 0, -0.1, 0, 141)"/>
<path fill="none" stroke-width="11.28" stroke-linecap="round" stroke-linejoin="round" stroke="rgb(0%, 0%, 0%)" stroke-opacity="1" stroke-miterlimit="10" d="M 2305.234375 481.171875 L 1857.617188 481.171875 L 1857.617188 33.554688 L 2305.234375 33.554688 L 2305.234375 481.171875 " transform="matrix(0.1, 0, 0, -0.1, 0, 141)"/>
<path fill="none" stroke-width="11.28" stroke-linecap="round" stroke-linejoin="round" stroke="rgb(0%, 0%, 0%)" stroke-opacity="1" stroke-miterlimit="10" d="M 2305.234375 481.171875 L 2305.234375 33.554688 L 2692.890625 257.382812 L 2305.234375 481.171875 " transform="matrix(0.1, 0, 0, -0.1, 0, 141)"/>
<path fill="none" stroke-width="11.28" stroke-linecap="round" stroke-linejoin="round" stroke="rgb(0%, 0%, 0%)" stroke-opacity="1" stroke-miterlimit="10" d="M 2305.234375 928.828125 L 2305.234375 481.171875 L 2752.851562 481.171875 L 2752.851562 928.828125 L 2305.234375 928.828125 " transform="matrix(0.1, 0, 0, -0.1, 0, 141)"/>
<path fill="none" stroke-width="11.28" stroke-linecap="round" stroke-linejoin="round" stroke="rgb(0%, 0%, 0%)" stroke-opacity="1" stroke-miterlimit="10" d="M 2305.234375 928.828125 L 2752.851562 928.828125 L 2529.0625 1316.445312 L 2305.234375 928.828125 " transform="matrix(0.1, 0, 0, -0.1, 0, 141)"/>
<path fill="none" stroke-width="11.28" stroke-linecap="round" stroke-linejoin="round" stroke="rgb(0%, 0%, 0%)" stroke-opacity="1" stroke-miterlimit="10" d="M 1857.617188 928.828125 L 2305.234375 928.828125 L 2305.234375 1376.445312 L 1857.617188 1376.445312 L 1857.617188 928.828125 " transform="matrix(0.1, 0, 0, -0.1, 0, 141)"/>
<path fill="none" stroke-width="11.28" stroke-linecap="round" stroke-linejoin="round" stroke="rgb(0%, 0%, 0%)" stroke-opacity="1" stroke-miterlimit="10" d="M 1857.617188 928.828125 L 1857.617188 1376.445312 L 1469.960938 1152.617188 L 1857.617188 928.828125 " transform="matrix(0.1, 0, 0, -0.1, 0, 141)"/>
</svg>
