<?xml version="1.0" encoding="UTF-8"?>
<svg xmlns="http://www.w3.org/2000/svg" xmlns:xlink="http://www.w3.org/1999/xlink" width="260" height="200" viewBox="0 0 260 200">
<path fill-rule="nonzero" fill="rgb(56.834412%, 25%, 38.890076%)" fill-opacity="1" d="M 145.300781 12.722656 L 225.339844 54.585938 L 147.5625 59.289062 "/>
<path fill="none" stroke-width="9.02" stroke-linecap="round" stroke-linejoin="round" stroke="rgb(0%, 0%, 0%)" stroke-opacity="1" stroke-miterlimit="10" d="M 1453.007812 1872.773438 L 2253.398438 1454.140625 L 1475.625 1407.109375 Z M 1453.007812 1872.773438 " transform="matrix(0.1, 0, 0, -0.1, 0, 200)"/>
<path fill-rule="nonzero" fill="rgb(75.389099%, 40.795898%, 39.793396%)" fill-opacity="1" stroke-width="9.02" stroke-linecap="round" stroke-linejoin="round" stroke="rgb(0%, 0%, 0%)" stroke-opacity="1" stroke-miterlimit="10" d="M 1475.625 1407.109375 L 619.6875 1124.179688 L 534.0625 1573.515625 " transform="matrix(0.1, 0, 0, -0.1, 0, 200)"/>
<path fill-rule="nonzero" fill="rgb(75.389099%, 40.795898%, 39.793396%)" fill-opacity="1" stroke-width="9.02" stroke-linecap="round" stroke-linejoin="round" stroke="rgb(0%, 0%, 0%)" stroke-opacity="1" stroke-miterlimit="10" d="M 534.0625 1573.515625 L 1453.007812 1872.773438 L 1475.625 1407.109375 " transform="matrix(0.1, 0, 0, -0.1, 0, 200)"/>
<path fill-rule="nonzero" fill="rgb(58.59375%, 53.318787%, 76.367188%)" fill-opacity="1" stroke-width="9.02" stroke-linecap="round" stroke-linejoin="round" stroke="rgb(0%, 0%, 0%)" stroke-opacity="1" stroke-miterlimit="10" d="M 1475.625 1407.109375 L 2253.398438 1454.140625 L 2102.695312 559.296875 " transform="matrix(0.1, 0, 0, -0.1, 0, 200)"/>
<path fill-rule="nonzero" fill="rgb(58.59375%, 53.318787%, 76.367188%)" fill-opacity="1" stroke-width="9.02" stroke-linecap="round" stroke-linejoin="round" stroke="rgb(0%, 0%, 0%)" stroke-opacity="1" stroke-miterlimit="10" d="M 2102.695312 559.296875 L 1313.789062 551.601562 L 1475.625 1407.109375 " transform="matrix(0.1, 0, 0, -0.1, 0, 200)"/>
<path fill-rule="nonzero" fill="rgb(70.701599%, 61.71875%, 75.389099%)" fill-opacity="1" d="M 131.378906 144.839844 L 61.96875 87.582031 L 147.5625 59.289062 "/>
<path fill="none" stroke-width="9.02" stroke-linecap="round" stroke-linejoin="round" stroke="rgb(0%, 0%, 0%)" stroke-opacity="1" stroke-miterlimit="10" d="M 1313.789062 551.601562 L 619.6875 1124.179688 L 1475.625 1407.109375 Z M 1313.789062 551.601562 " transform="matrix(0.1, 0, 0, -0.1, 0, 200)"/>
<path fill-rule="nonzero" fill="rgb(91.796875%, 59.179688%, 40.989685%)" fill-opacity="1" d="M 53.40625 42.648438 L 61.96875 87.582031 L 7.953125 126.914062 "/>
<path fill="none" stroke-width="9.02" stroke-linecap="round" stroke-linejoin="round" stroke="rgb(0%, 0%, 0%)" stroke-opacity="1" stroke-miterlimit="10" d="M 534.0625 1573.515625 L 619.6875 1124.179688 L 79.53125 730.859375 Z M 534.0625 1573.515625 " transform="matrix(0.1, 0, 0, -0.1, 0, 200)"/>
<path fill-rule="nonzero" fill="rgb(77.34375%, 75.389099%, 83.59375%)" fill-opacity="1" stroke-width="9.02" stroke-linecap="round" stroke-linejoin="round" stroke="rgb(0%, 0%, 0%)" stroke-opacity="1" stroke-miterlimit="10" d="M 79.53125 730.859375 L 619.6875 1124.179688 L 1313.789062 551.601562 " transform="matrix(0.1, 0, 0, -0.1, 0, 200)"/>
<path fill-rule="nonzero" fill="rgb(77.34375%, 75.389099%, 83.59375%)" fill-opacity="1" stroke-width="9.02" stroke-linecap="round" stroke-linejoin="round" stroke="rgb(0%, 0%, 0%)" stroke-opacity="1" stroke-miterlimit="10" d="M 1313.789062 551.601562 L 808.125 117.1875 L 79.53125 730.859375 " transform="matrix(0.1, 0, 0, -0.1, 0, 200)"/>
<path fill-rule="nonzero" fill="rgb(51.367188%, 69.726562%, 95.117188%)" fill-opacity="1" stroke-width="9.02" stroke-linecap="round" stroke-linejoin="round" stroke="rgb(0%, 0%, 0%)" stroke-opacity="1" stroke-miterlimit="10" d="M 808.125 117.1875 L 1313.789062 551.601562 L 2102.695312 559.296875 " transform="matrix(0.1, 0, 0, -0.1, 0, 200)"/>
<path fill-rule="nonzero" fill="rgb(24.510193%, 28.489685%, 70.506287%)" fill-opacity="1" d="M 210.269531 144.070312 L 225.339844 54.585938 L 254.53125 78.722656 "/>
<path fill="none" stroke-width="9.02" stroke-linecap="round" stroke-linejoin="round" stroke="rgb(0%, 0%, 0%)" stroke-opacity="1" stroke-miterlimit="10" d="M 2102.695312 559.296875 L 2253.398438 1454.140625 L 2545.3125 1212.773438 Z M 2102.695312 559.296875 " transform="matrix(0.1, 0, 0, -0.1, 0, 200)"/>
<path fill-rule="nonzero" fill="rgb(54.492188%, 92.576599%, 80.664062%)" fill-opacity="1" stroke-width="9.02" stroke-linecap="round" stroke-linejoin="round" stroke="rgb(0%, 0%, 0%)" stroke-opacity="1" stroke-miterlimit="10" d="M 2545.3125 1212.773438 L 2253.398438 1454.140625 L 1453.007812 1872.773438 " transform="matrix(0.1, 0, 0, -0.1, 0, 200)"/>
<path fill-rule="nonzero" fill="rgb(77.34375%, 99.414062%, 86.71875%)" fill-opacity="1" d="M 80.8125 188.28125 L 19.941406 157.609375 L 7.953125 126.914062 "/>
<path fill="none" stroke-width="9.02" stroke-linecap="round" stroke-linejoin="round" stroke="rgb(0%, 0%, 0%)" stroke-opacity="1" stroke-miterlimit="10" d="M 808.125 117.1875 L 199.414062 423.90625 L 79.53125 730.859375 Z M 808.125 117.1875 " transform="matrix(0.1, 0, 0, -0.1, 0, 200)"/>
<path fill-rule="nonzero" fill="rgb(8.909607%, 24.609375%, 73.046875%)" fill-opacity="1" stroke-width="9.02" stroke-linecap="round" stroke-linejoin="round" stroke="rgb(0%, 0%, 0%)" stroke-opacity="1" stroke-miterlimit="10" d="M 79.53125 730.859375 L 199.414062 423.90625 L 693.476562 1333.007812 " transform="matrix(0.1, 0, 0, -0.1, 0, 200)"/>
<path fill-rule="nonzero" fill="rgb(8.909607%, 24.609375%, 73.046875%)" fill-opacity="1" stroke-width="9.02" stroke-linecap="round" stroke-linejoin="round" stroke="rgb(0%, 0%, 0%)" stroke-opacity="1" stroke-miterlimit="10" d="M 693.476562 1333.007812 L 534.0625 1573.515625 L 79.53125 730.859375 " transform="matrix(0.1, 0, 0, -0.1, 0, 200)"/>
<path fill-rule="nonzero" fill="rgb(51.367188%, 69.726562%, 95.117188%)" fill-opacity="1" stroke-width="9.02" stroke-linecap="round" stroke-linejoin="round" stroke="rgb(0%, 0%, 0%)" stroke-opacity="1" stroke-miterlimit="10" d="M 2102.695312 559.296875 L 1622.460938 103.476562 L 808.125 117.1875 " transform="matrix(0.1, 0, 0, -0.1, 0, 200)"/>
<path fill-rule="nonzero" fill="rgb(79.6875%, 32.104492%, 0%)" fill-opacity="1" stroke-width="9.02" stroke-linecap="round" stroke-linejoin="round" stroke="rgb(0%, 0%, 0%)" stroke-opacity="1" stroke-miterlimit="10" d="M 1622.460938 103.476562 L 2102.695312 559.296875 L 2545.3125 1212.773438 " transform="matrix(0.1, 0, 0, -0.1, 0, 200)"/>
<path fill-rule="nonzero" fill="rgb(54.492188%, 92.576599%, 80.664062%)" fill-opacity="1" stroke-width="9.02" stroke-linecap="round" stroke-linejoin="round" stroke="rgb(0%, 0%, 0%)" stroke-opacity="1" stroke-miterlimit="10" d="M 1453.007812 1872.773438 L 1686.71875 1659.453125 L 2545.3125 1212.773438 " transform="matrix(0.1, 0, 0, -0.1, 0, 200)"/>
<path fill-rule="nonzero" fill="rgb(41.601562%, 69.53125%, 97.851562%)" fill-opacity="1" stroke-width="9.02" stroke-linecap="round" stroke-linejoin="round" stroke="rgb(0%, 0%, 0%)" stroke-opacity="1" stroke-miterlimit="10" d="M 693.476562 1333.007812 L 1686.71875 1659.453125 L 1453.007812 1872.773438 " transform="matrix(0.1, 0, 0, -0.1, 0, 200)"/>
<path fill-rule="nonzero" fill="rgb(41.601562%, 69.53125%, 97.851562%)" fill-opacity="1" stroke-width="9.02" stroke-linecap="round" stroke-linejoin="round" stroke="rgb(0%, 0%, 0%)" stroke-opacity="1" stroke-miterlimit="10" d="M 1453.007812 1872.773438 L 534.0625 1573.515625 L 693.476562 1333.007812 " transform="matrix(0.1, 0, 0, -0.1, 0, 200)"/>
<path fill-rule="nonzero" fill="rgb(40.893555%, 0%, 1.499939%)" fill-opacity="1" stroke-width="9.02" stroke-linecap="round" stroke-linejoin="round" stroke="rgb(0%, 0%, 0%)" stroke-opacity="1" stroke-miterlimit="10" d="M 1037.929688 425.820312 L 199.414062 423.90625 L 808.125 117.1875 " transform="matrix(0.1, 0, 0, -0.1, 0, 200)"/>
<path fill-rule="nonzero" fill="rgb(40.893555%, 0%, 1.499939%)" fill-opacity="1" stroke-width="9.02" stroke-linecap="round" stroke-linejoin="round" stroke="rgb(0%, 0%, 0%)" stroke-opacity="1" stroke-miterlimit="10" d="M 808.125 117.1875 L 1622.460938 103.476562 L 1037.929688 425.820312 " transform="matrix(0.1, 0, 0, -0.1, 0, 200)"/>
<path fill-rule="nonzero" fill="rgb(81.639099%, 78.90625%, 82.617188%)" fill-opacity="1" d="M 168.671875 34.054688 L 206.710938 122.515625 L 254.53125 78.722656 "/>
<path fill="none" stroke-width="9.02" stroke-linecap="round" stroke-linejoin="round" stroke="rgb(0%, 0%, 0%)" stroke-opacity="1" stroke-miterlimit="10" d="M 1686.71875 1659.453125 L 2067.109375 774.84375 L 2545.3125 1212.773438 Z M 1686.71875 1659.453125 " transform="matrix(0.1, 0, 0, -0.1, 0, 200)"/>
<path fill-rule="nonzero" fill="rgb(79.6875%, 32.104492%, 0%)" fill-opacity="1" stroke-width="9.02" stroke-linecap="round" stroke-linejoin="round" stroke="rgb(0%, 0%, 0%)" stroke-opacity="1" stroke-miterlimit="10" d="M 2545.3125 1212.773438 L 2067.109375 774.84375 L 1622.460938 103.476562 " transform="matrix(0.1, 0, 0, -0.1, 0, 200)"/>
<path fill-rule="nonzero" fill="rgb(75.976562%, 42.993164%, 42.601013%)" fill-opacity="1" d="M 162.246094 189.652344 L 206.710938 122.515625 L 103.792969 157.417969 "/>
<path fill="none" stroke-width="9.02" stroke-linecap="round" stroke-linejoin="round" stroke="rgb(0%, 0%, 0%)" stroke-opacity="1" stroke-miterlimit="10" d="M 1622.460938 103.476562 L 2067.109375 774.84375 L 1037.929688 425.820312 Z M 1622.460938 103.476562 " transform="matrix(0.1, 0, 0, -0.1, 0, 200)"/>
<path fill-rule="nonzero" fill="rgb(56.25%, 49.291992%, 73.631287%)" fill-opacity="1" d="M 69.347656 66.699219 L 19.941406 157.609375 L 103.792969 157.417969 "/>
<path fill="none" stroke-width="9.02" stroke-linecap="round" stroke-linejoin="round" stroke="rgb(0%, 0%, 0%)" stroke-opacity="1" stroke-miterlimit="10" d="M 693.476562 1333.007812 L 199.414062 423.90625 L 1037.929688 425.820312 Z M 693.476562 1333.007812 " transform="matrix(0.1, 0, 0, -0.1, 0, 200)"/>
<path fill-rule="nonzero" fill="rgb(69.334412%, 63.867188%, 79.101562%)" fill-opacity="1" stroke-width="9.02" stroke-linecap="round" stroke-linejoin="round" stroke="rgb(0%, 0%, 0%)" stroke-opacity="1" stroke-miterlimit="10" d="M 1037.929688 425.820312 L 2067.109375 774.84375 L 1686.71875 1659.453125 " transform="matrix(0.1, 0, 0, -0.1, 0, 200)"/>
<path fill-rule="nonzero" fill="rgb(69.334412%, 63.867188%, 79.101562%)" fill-opacity="1" stroke-width="9.02" stroke-linecap="round" stroke-linejoin="round" stroke="rgb(0%, 0%, 0%)" stroke-opacity="1" stroke-miterlimit="10" d="M 1686.71875 1659.453125 L 693.476562 1333.007812 L 1037.929688 425.820312 " transform="matrix(0.1, 0, 0, -0.1, 0, 200)"/>
</svg>
