<?xml version="1.0" encoding="UTF-8"?>
<svg xmlns="http://www.w3.org/2000/svg" xmlns:xlink="http://www.w3.org/1999/xlink" width="282" height="149" viewBox="0 0 282 149">
<path fill="none" stroke-width="11.2668" stroke-linecap="round" stroke-linejoin="round" stroke="rgb(0%, 0%, 0%)" stroke-opacity="1" stroke-miterlimit="10" d="M 1022.773438 542.578125 L 1022.773438 931.601562 L 652.773438 1051.835938 L 424.101562 737.109375 L 652.773438 422.34375 L 1022.773438 542.578125 " transform="matrix(0.1, 0, 0, -0.1, 0, 149)"/>
<path fill="none" stroke-width="11.2668" stroke-linecap="round" stroke-linejoin="round" stroke="rgb(0%, 0%, 0%)" stroke-opacity="1" stroke-miterlimit="10" d="M 1022.773438 931.601562 L 1022.773438 542.578125 L 1411.757812 542.578125 L 1411.757812 931.601562 L 1022.773438 931.601562 " transform="matrix(0.1, 0, 0, -0.1, 0, 149)"/>
<path fill="none" stroke-width="11.2668" stroke-linecap="round" stroke-linejoin="round" stroke="rgb(0%, 0%, 0%)" stroke-opacity="1" stroke-miterlimit="10" d="M 1022.773438 931.601562 L 1411.757812 931.601562 L 1217.265625 1268.515625 L 1022.773438 931.601562 " transform="matrix(0.1, 0, 0, -0.1, 0, 149)"/>
<path fill="none" stroke-width="11.2668" stroke-linecap="round" stroke-linejoin="round" stroke="rgb(0%, 0%, 0%)" stroke-opacity="1" stroke-miterlimit="10" d="M 652.773438 1051.835938 L 1022.773438 931.601562 L 1142.96875 1301.601562 L 772.96875 1421.796875 L 652.773438 1051.835938 " transform="matrix(0.1, 0, 0, -0.1, 0, 149)"/>
<path fill="none" stroke-width="11.2668" stroke-linecap="round" stroke-linejoin="round" stroke="rgb(0%, 0%, 0%)" stroke-opacity="1" stroke-miterlimit="10" d="M 652.773438 1051.835938 L 772.96875 1421.796875 L 392.460938 1340.898438 L 652.773438 1051.835938 " transform="matrix(0.1, 0, 0, -0.1, 0, 149)"/>
<path fill="none" stroke-width="11.2668" stroke-linecap="round" stroke-linejoin="round" stroke="rgb(0%, 0%, 0%)" stroke-opacity="1" stroke-miterlimit="10" d="M 424.101562 737.109375 L 652.773438 1051.835938 L 338.046875 1280.507812 L 109.414062 965.742188 L 424.101562 737.109375 " transform="matrix(0.1, 0, 0, -0.1, 0, 149)"/>
<path fill="none" stroke-width="11.2668" stroke-linecap="round" stroke-linejoin="round" stroke="rgb(0%, 0%, 0%)" stroke-opacity="1" stroke-miterlimit="10" d="M 424.101562 737.109375 L 109.414062 965.742188 L 68.710938 578.867188 L 424.101562 737.109375 " transform="matrix(0.1, 0, 0, -0.1, 0, 149)"/>
<path fill="none" stroke-width="11.2668" stroke-linecap="round" stroke-linejoin="round" stroke="rgb(0%, 0%, 0%)" stroke-opacity="1" stroke-miterlimit="10" d="M 652.773438 422.34375 L 424.101562 737.109375 L 109.414062 508.4375 L 338.046875 193.710938 L 652.773438 422.34375 " transform="matrix(0.1, 0, 0, -0.1, 0, 149)"/>
<path fill="none" stroke-width="11.2668" stroke-linecap="round" stroke-linejoin="round" stroke="rgb(0%, 0%, 0%)" stroke-opacity="1" stroke-miterlimit="10" d="M 652.773438 422.34375 L 338.046875 193.710938 L 693.4375 35.507812 L 652.773438 422.34375 " transform="matrix(0.1, 0, 0, -0.1, 0, 149)"/>
<path fill="none" stroke-width="11.2668" stroke-linecap="round" stroke-linejoin="round" stroke="rgb(0%, 0%, 0%)" stroke-opacity="1" stroke-miterlimit="10" d="M 1022.773438 542.578125 L 652.773438 422.34375 L 772.96875 52.382812 L 1142.96875 172.617188 L 1022.773438 542.578125 " transform="matrix(0.1, 0, 0, -0.1, 0, 149)"/>
<path fill="none" stroke-width="11.2668" stroke-linecap="round" stroke-linejoin="round" stroke="rgb(0%, 0%, 0%)" stroke-opacity="1" stroke-miterlimit="10" d="M 1022.773438 542.578125 L 1142.96875 172.617188 L 1403.28125 461.71875 L 1022.773438 542.578125 " transform="matrix(0.1, 0, 0, -0.1, 0, 149)"/>
<path fill="none" stroke-width="11.2668" stroke-linecap="round" stroke-linejoin="round" stroke="rgb(0%, 0%, 0%)" stroke-opacity="1" stroke-miterlimit="10" d="M 1943.203125 1073.984375 L 1748.671875 737.109375 L 2008.984375 448.007812 L 2364.375 606.25 L 2323.710938 993.125 L 1943.203125 1073.984375 " transform="matrix(0.1, 0, 0, -0.1, 0, 149)"/>
<path fill="none" stroke-width="11.2668" stroke-linecap="round" stroke-linejoin="round" stroke="rgb(0%, 0%, 0%)" stroke-opacity="1" stroke-miterlimit="10" d="M 1748.671875 737.109375 L 1943.203125 1073.984375 L 1606.289062 1268.515625 L 1411.757812 931.601562 L 1748.671875 737.109375 " transform="matrix(0.1, 0, 0, -0.1, 0, 149)"/>
<path fill="none" stroke-width="11.2668" stroke-linecap="round" stroke-linejoin="round" stroke="rgb(0%, 0%, 0%)" stroke-opacity="1" stroke-miterlimit="10" d="M 1748.671875 737.109375 L 1411.757812 931.601562 L 1411.757812 542.578125 L 1748.671875 737.109375 " transform="matrix(0.1, 0, 0, -0.1, 0, 149)"/>
<path fill="none" stroke-width="11.2668" stroke-linecap="round" stroke-linejoin="round" stroke="rgb(0%, 0%, 0%)" stroke-opacity="1" stroke-miterlimit="10" d="M 2008.984375 448.007812 L 1748.671875 737.109375 L 1459.570312 476.796875 L 1719.882812 187.695312 L 2008.984375 448.007812 " transform="matrix(0.1, 0, 0, -0.1, 0, 149)"/>
<path fill="none" stroke-width="11.2668" stroke-linecap="round" stroke-linejoin="round" stroke="rgb(0%, 0%, 0%)" stroke-opacity="1" stroke-miterlimit="10" d="M 2008.984375 448.007812 L 1719.882812 187.695312 L 2089.882812 67.460938 L 2008.984375 448.007812 " transform="matrix(0.1, 0, 0, -0.1, 0, 149)"/>
<path fill="none" stroke-width="11.2668" stroke-linecap="round" stroke-linejoin="round" stroke="rgb(0%, 0%, 0%)" stroke-opacity="1" stroke-miterlimit="10" d="M 2364.375 606.25 L 2008.984375 448.007812 L 2167.226562 92.617188 L 2522.617188 250.820312 L 2364.375 606.25 " transform="matrix(0.1, 0, 0, -0.1, 0, 149)"/>
<path fill="none" stroke-width="11.2668" stroke-linecap="round" stroke-linejoin="round" stroke="rgb(0%, 0%, 0%)" stroke-opacity="1" stroke-miterlimit="10" d="M 2364.375 606.25 L 2522.617188 250.820312 L 2751.289062 565.546875 L 2364.375 606.25 " transform="matrix(0.1, 0, 0, -0.1, 0, 149)"/>
<path fill="none" stroke-width="11.2668" stroke-linecap="round" stroke-linejoin="round" stroke="rgb(0%, 0%, 0%)" stroke-opacity="1" stroke-miterlimit="10" d="M 2323.710938 993.125 L 2364.375 606.25 L 2751.289062 646.875 L 2710.625 1033.789062 L 2323.710938 993.125 " transform="matrix(0.1, 0, 0, -0.1, 0, 149)"/>
<path fill="none" stroke-width="11.2668" stroke-linecap="round" stroke-linejoin="round" stroke="rgb(0%, 0%, 0%)" stroke-opacity="1" stroke-miterlimit="10" d="M 2323.710938 993.125 L 2710.625 1033.789062 L 2481.953125 1348.515625 L 2323.710938 993.125 " transform="matrix(0.1, 0, 0, -0.1, 0, 149)"/>
<path fill="none" stroke-width="11.2668" stroke-linecap="round" stroke-linejoin="round" stroke="rgb(0%, 0%, 0%)" stroke-opacity="1" stroke-miterlimit="10" d="M 1943.203125 1073.984375 L 2323.710938 993.125 L 2404.609375 1373.632812 L 2024.101562 1454.53125 L 1943.203125 1073.984375 " transform="matrix(0.1, 0, 0, -0.1, 0, 149)"/>
<path fill="none" stroke-width="11.2668" stroke-linecap="round" stroke-linejoin="round" stroke="rgb(0%, 0%, 0%)" stroke-opacity="1" stroke-miterlimit="10" d="M 1943.203125 1073.984375 L 2024.101562 1454.53125 L 1654.101562 1334.335938 L 1943.203125 1073.984375 " transform="matrix(0.1, 0, 0, -0.1, 0, 149)"/>
</svg>
