<?xml version="1.0" encoding="UTF-8"?>
<svg xmlns="http://www.w3.org/2000/svg" xmlns:xlink="http://www.w3.org/1999/xlink" width="268.31" height="185.53" viewBox="0 0 268.31 185.53">
<defs>
<clipPath id="clip-0">
<path clip-rule="nonzero" d="M 132 152 L 203 152 L 203 185.058594 L 132 185.058594 Z M 132 152 "/>
</clipPath>
<clipPath id="clip-1">
<path clip-rule="nonzero" d="M 88 152 L 166 152 L 166 185.058594 L 88 185.058594 Z M 88 152 "/>
</clipPath>
<clipPath id="clip-2">
<path clip-rule="nonzero" d="M 26 150 L 134 150 L 134 185.058594 L 26 185.058594 Z M 26 150 "/>
</clipPath>
<clipPath id="clip-3">
<path clip-rule="nonzero" d="M 61 0.00390625 L 173 0.00390625 L 173 40 L 61 40 Z M 61 0.00390625 "/>
</clipPath>
<clipPath id="clip-4">
<path clip-rule="nonzero" d="M 122 0.00390625 L 190 0.00390625 L 190 40 L 122 40 Z M 122 0.00390625 "/>
</clipPath>
<clipPath id="clip-5">
<path clip-rule="nonzero" d="M 122 0.00390625 L 191 0.00390625 L 191 41 L 122 41 Z M 122 0.00390625 "/>
</clipPath>
<clipPath id="clip-6">
<path clip-rule="nonzero" d="M 189 23 L 267.621094 23 L 267.621094 141 L 189 141 Z M 189 23 "/>
</clipPath>
<clipPath id="clip-7">
<path clip-rule="nonzero" d="M 231 121 L 267.621094 121 L 267.621094 141 L 231 141 Z M 231 121 "/>
</clipPath>
<clipPath id="clip-8">
<path clip-rule="nonzero" d="M 202 121 L 267.621094 121 L 267.621094 172 L 202 172 Z M 202 121 "/>
</clipPath>
<clipPath id="clip-9">
<path clip-rule="nonzero" d="M 201 121 L 267.621094 121 L 267.621094 173 L 201 173 Z M 201 121 "/>
</clipPath>
<clipPath id="clip-10">
<path clip-rule="nonzero" d="M 26 150 L 134 150 L 134 185.058594 L 26 185.058594 Z M 26 150 "/>
</clipPath>
<clipPath id="clip-11">
<path clip-rule="nonzero" d="M 132 171 L 203 171 L 203 185.058594 L 132 185.058594 Z M 132 171 "/>
</clipPath>
<clipPath id="clip-12">
<path clip-rule="nonzero" d="M 69 161 L 134 161 L 134 185.058594 L 69 185.058594 Z M 69 161 "/>
</clipPath>
<clipPath id="clip-13">
<path clip-rule="nonzero" d="M 189 23 L 267.621094 23 L 267.621094 122 L 189 122 Z M 189 23 "/>
</clipPath>
<clipPath id="clip-14">
<path clip-rule="nonzero" d="M 189 22 L 267.621094 22 L 267.621094 123 L 189 123 Z M 189 22 "/>
</clipPath>
<clipPath id="clip-15">
<path clip-rule="nonzero" d="M 172 0.00390625 L 241 0.00390625 L 241 46 L 172 46 Z M 172 0.00390625 "/>
</clipPath>
<clipPath id="clip-16">
<path clip-rule="nonzero" d="M 171 0.00390625 L 242 0.00390625 L 242 47 L 171 47 Z M 171 0.00390625 "/>
</clipPath>
<clipPath id="clip-17">
<path clip-rule="nonzero" d="M 61 0.00390625 L 173 0.00390625 L 173 30 L 61 30 Z M 61 0.00390625 "/>
</clipPath>
<clipPath id="clip-18">
<path clip-rule="nonzero" d="M 60 0.00390625 L 173 0.00390625 L 173 30 L 60 30 Z M 60 0.00390625 "/>
</clipPath>
<clipPath id="clip-19">
<path clip-rule="nonzero" d="M 184 121 L 267.621094 121 L 267.621094 172 L 184 172 Z M 184 121 "/>
</clipPath>
<clipPath id="clip-20">
<path clip-rule="nonzero" d="M 184 121 L 267.621094 121 L 267.621094 173 L 184 173 Z M 184 121 "/>
</clipPath>
<clipPath id="clip-21">
<path clip-rule="nonzero" d="M 240 45 L 267.621094 45 L 267.621094 122 L 240 122 Z M 240 45 "/>
</clipPath>
<clipPath id="clip-22">
<path clip-rule="nonzero" d="M 240 45 L 267.621094 45 L 267.621094 123 L 240 123 Z M 240 45 "/>
</clipPath>
<clipPath id="clip-23">
<path clip-rule="nonzero" d="M 184 103 L 267.621094 103 L 267.621094 158 L 184 158 Z M 184 103 "/>
</clipPath>
<clipPath id="clip-24">
<path clip-rule="nonzero" d="M 172 0.00390625 L 254 0.00390625 L 254 104 L 172 104 Z M 172 0.00390625 "/>
</clipPath>
<clipPath id="clip-25">
<path clip-rule="nonzero" d="M 171 0.00390625 L 255 0.00390625 L 255 105 L 171 105 Z M 171 0.00390625 "/>
</clipPath>
<clipPath id="clip-26">
<path clip-rule="nonzero" d="M 88 0.00390625 L 173 0.00390625 L 173 28 L 88 28 Z M 88 0.00390625 "/>
</clipPath>
<clipPath id="clip-27">
<path clip-rule="nonzero" d="M 87 0.00390625 L 173 0.00390625 L 173 29 L 87 29 Z M 87 0.00390625 "/>
</clipPath>
<clipPath id="clip-28">
<path clip-rule="nonzero" d="M 172 0.00390625 L 254 0.00390625 L 254 104 L 172 104 Z M 172 0.00390625 "/>
</clipPath>
<clipPath id="clip-29">
<path clip-rule="nonzero" d="M 137 0.00390625 L 190 0.00390625 L 190 95 L 137 95 Z M 137 0.00390625 "/>
</clipPath>
<clipPath id="clip-30">
<path clip-rule="nonzero" d="M 137 0.00390625 L 190 0.00390625 L 190 96 L 137 96 Z M 137 0.00390625 "/>
</clipPath>
</defs>
<path fill-rule="nonzero" fill="rgb(72.358704%, 59.153748%, 73.149109%)" fill-opacity="1" d="M 164.824219 153.035156 L 89.148438 157.175781 L 122.976562 39.890625 "/>
<path fill="none" stroke-width="9.02001" stroke-linecap="round" stroke-linejoin="round" stroke="rgb(13.729858%, 12.159729%, 12.548828%)" stroke-opacity="1" stroke-miterlimit="10" d="M 1652.480893 321.048499 L 893.776963 279.535766 " transform="matrix(0.0997435, 0, 0, -0.0997435, -0.000000000000000888, 185.057655)"/>
<path fill-rule="nonzero" fill="rgb(72.358704%, 59.153748%, 73.149109%)" fill-opacity="1" stroke-width="9.02001" stroke-linecap="round" stroke-linejoin="round" stroke="rgb(13.729858%, 12.159729%, 12.548828%)" stroke-opacity="1" stroke-miterlimit="10" d="M 1232.928154 1455.403495 L 1867.798821 1040.706963 L 1652.480893 321.048499 " transform="matrix(0.0997435, 0, 0, -0.0997435, -0.000000000000000888, 185.057655)"/>
<path fill-rule="nonzero" fill="rgb(63.873291%, 55.105591%, 75.761414%)" fill-opacity="1" d="M 186.300781 81.253906 L 231.558594 140.03125 L 164.824219 153.035156 L 186.300781 81.253906 "/>
<path fill="none" stroke-width="9.02001" stroke-linecap="round" stroke-linejoin="round" stroke="rgb(13.729858%, 12.159729%, 12.548828%)" stroke-opacity="1" stroke-miterlimit="10" d="M 1867.798821 1040.706963 L 2321.540819 451.421976 L 1652.480893 321.048499 Z M 1867.798821 1040.706963 " transform="matrix(0.0997435, 0, 0, -0.0997435, -0.000000000000000888, 185.057655)"/>
<path fill-rule="nonzero" fill="rgb(47.366333%, 70.230103%, 89.646912%)" fill-opacity="1" stroke-width="9.02001" stroke-linecap="round" stroke-linejoin="round" stroke="rgb(13.729858%, 12.159729%, 12.548828%)" stroke-opacity="1" stroke-miterlimit="10" d="M 1652.480893 321.048499 L 2321.540819 451.421976 L 2027.74033 131.656448 " transform="matrix(0.0997435, 0, 0, -0.0997435, -0.000000000000000888, 185.057655)"/>
<path fill-rule="nonzero" fill="rgb(47.366333%, 70.230103%, 89.646912%)" fill-opacity="1" d="M 202.253906 171.925781 L 133.207031 184.609375 L 164.824219 153.035156 "/>
<g clip-path="url(#clip-0)">
<path fill="none" stroke-width="9.02001" stroke-linecap="round" stroke-linejoin="round" stroke="rgb(13.729858%, 12.159729%, 12.548828%)" stroke-opacity="1" stroke-miterlimit="10" d="M 2027.74033 131.656448 L 1335.495934 4.494332 L 1652.480893 321.048499 " transform="matrix(0.0997435, 0, 0, -0.0997435, -0.000000000000000888, 185.057655)"/>
</g>
<path fill-rule="nonzero" fill="rgb(66.090393%, 76.075745%, 90.931702%)" fill-opacity="1" d="M 133.207031 184.609375 L 89.148438 157.175781 L 164.824219 153.035156 L 133.207031 184.609375 "/>
<g clip-path="url(#clip-1)">
<path fill="none" stroke-width="9.02001" stroke-linecap="round" stroke-linejoin="round" stroke="rgb(13.729858%, 12.159729%, 12.548828%)" stroke-opacity="1" stroke-miterlimit="10" d="M 1335.495934 4.494332 L 893.776963 279.535766 L 1652.480893 321.048499 Z M 1335.495934 4.494332 " transform="matrix(0.0997435, 0, 0, -0.0997435, -0.000000000000000888, 185.057655)"/>
</g>
<path fill-rule="nonzero" fill="rgb(80.247498%, 67.181396%, 74.554443%)" fill-opacity="1" d="M 62.414062 87.582031 L 89.148438 157.175781 L 27.039062 151.121094 L 62.414062 87.582031 "/>
<path fill="none" stroke-width="9.02001" stroke-linecap="round" stroke-linejoin="round" stroke="rgb(13.729858%, 12.159729%, 12.548828%)" stroke-opacity="1" stroke-miterlimit="10" d="M 625.745698 977.262975 L 893.776963 279.535766 L 271.085976 340.238347 Z M 625.745698 977.262975 " transform="matrix(0.0997435, 0, 0, -0.0997435, -0.000000000000000888, 185.057655)"/>
<path fill-rule="nonzero" fill="rgb(72.358704%, 59.153748%, 73.149109%)" fill-opacity="1" stroke-width="9.02001" stroke-linecap="round" stroke-linejoin="round" stroke="rgb(13.729858%, 12.159729%, 12.548828%)" stroke-opacity="1" stroke-miterlimit="10" d="M 893.776963 279.535766 L 625.745698 977.262975 L 1232.928154 1455.403495 " transform="matrix(0.0997435, 0, 0, -0.0997435, -0.000000000000000888, 185.057655)"/>
<path fill-rule="nonzero" fill="rgb(68.640137%, 87.872314%, 95.671082%)" fill-opacity="1" d="M 27.039062 151.121094 L 89.148438 157.175781 L 133.207031 184.609375 "/>
<g clip-path="url(#clip-2)">
<path fill="none" stroke-width="9.02001" stroke-linecap="round" stroke-linejoin="round" stroke="rgb(13.729858%, 12.159729%, 12.548828%)" stroke-opacity="1" stroke-miterlimit="10" d="M 271.085976 340.238347 L 893.776963 279.535766 L 1335.495934 4.494332 " transform="matrix(0.0997435, 0, 0, -0.0997435, -0.000000000000000888, 185.057655)"/>
</g>
<path fill-rule="nonzero" fill="rgb(66.088867%, 47.457886%, 64.437866%)" fill-opacity="1" d="M 189.898438 23.257812 L 186.300781 81.253906 L 122.976562 39.890625 L 189.898438 23.257812 "/>
<path fill="none" stroke-width="9.02001" stroke-linecap="round" stroke-linejoin="round" stroke="rgb(13.729858%, 12.159729%, 12.548828%)" stroke-opacity="1" stroke-miterlimit="10" d="M 1903.867902 1622.159358 L 1867.798821 1040.706963 L 1232.928154 1455.403495 Z M 1903.867902 1622.159358 " transform="matrix(0.0997435, 0, 0, -0.0997435, -0.000000000000000888, 185.057655)"/>
<path fill-rule="nonzero" fill="rgb(49.87793%, 37.315369%, 64.854431%)" fill-opacity="1" stroke-width="9.02001" stroke-linecap="round" stroke-linejoin="round" stroke="rgb(13.729858%, 12.159729%, 12.548828%)" stroke-opacity="1" stroke-miterlimit="10" d="M 2321.540819 451.421976 L 1867.798821 1040.706963 L 1903.867902 1622.159358 " transform="matrix(0.0997435, 0, 0, -0.0997435, -0.000000000000000888, 185.057655)"/>
<path fill-rule="nonzero" fill="rgb(91.351318%, 67.459106%, 56.564331%)" fill-opacity="1" stroke-width="9.02001" stroke-linecap="round" stroke-linejoin="round" stroke="rgb(13.729858%, 12.159729%, 12.548828%)" stroke-opacity="1" stroke-miterlimit="10" d="M 611.647034 1560.007748 L 625.745698 977.262975 L 271.085976 340.238347 " transform="matrix(0.0997435, 0, 0, -0.0997435, -0.000000000000000888, 185.057655)"/>
<path fill-rule="nonzero" fill="rgb(77.482605%, 56.008911%, 62.817383%)" fill-opacity="1" d="M 122.976562 39.890625 L 62.414062 87.582031 L 61.007812 29.457031 L 122.976562 39.890625 "/>
<path fill="none" stroke-width="9.02001" stroke-linecap="round" stroke-linejoin="round" stroke="rgb(13.729858%, 12.159729%, 12.548828%)" stroke-opacity="1" stroke-miterlimit="10" d="M 1232.928154 1455.403495 L 625.745698 977.262975 L 611.647034 1560.007748 Z M 1232.928154 1455.403495 " transform="matrix(0.0997435, 0, 0, -0.0997435, -0.000000000000000888, 185.057655)"/>
<g clip-path="url(#clip-3)">
<path fill-rule="nonzero" fill="rgb(64.358521%, 27.39563%, 31.666565%)" fill-opacity="1" d="M 122.976562 39.890625 L 61.007812 29.457031 L 172.394531 0.453125 "/>
</g>
<path fill="none" stroke-width="9.02001" stroke-linecap="round" stroke-linejoin="round" stroke="rgb(13.729858%, 12.159729%, 12.548828%)" stroke-opacity="1" stroke-miterlimit="10" d="M 1232.928154 1455.403495 L 611.647034 1560.007748 " transform="matrix(0.0997435, 0, 0, -0.0997435, -0.000000000000000888, 185.057655)"/>
<g clip-path="url(#clip-4)">
<path fill-rule="nonzero" fill="rgb(64.358521%, 27.39563%, 31.666565%)" fill-opacity="1" d="M 172.394531 0.453125 L 189.898438 23.257812 L 122.976562 39.890625 "/>
</g>
<g clip-path="url(#clip-5)">
<path fill="none" stroke-width="9.02001" stroke-linecap="round" stroke-linejoin="round" stroke="rgb(13.729858%, 12.159729%, 12.548828%)" stroke-opacity="1" stroke-miterlimit="10" d="M 1728.3787 1850.79269 L 1903.867902 1622.159358 L 1232.928154 1455.403495 " transform="matrix(0.0997435, 0, 0, -0.0997435, -0.000000000000000888, 185.057655)"/>
</g>
<g clip-path="url(#clip-6)">
<path fill-rule="nonzero" fill="rgb(49.87793%, 37.315369%, 64.854431%)" fill-opacity="1" d="M 267.171875 121.640625 L 231.558594 140.03125 L 189.898438 23.257812 "/>
</g>
<g clip-path="url(#clip-7)">
<path fill="none" stroke-width="9.02001" stroke-linecap="round" stroke-linejoin="round" stroke="rgb(13.729858%, 12.159729%, 12.548828%)" stroke-opacity="1" stroke-miterlimit="10" d="M 2678.589481 635.801169 L 2321.540819 451.421976 " transform="matrix(0.0997435, 0, 0, -0.0997435, -0.000000000000000888, 185.057655)"/>
</g>
<g clip-path="url(#clip-8)">
<path fill-rule="nonzero" fill="rgb(12.693787%, 46.17157%, 77.256775%)" fill-opacity="1" d="M 202.253906 171.925781 L 231.558594 140.03125 L 267.171875 121.640625 L 202.253906 171.925781 "/>
</g>
<g clip-path="url(#clip-9)">
<path fill="none" stroke-width="9.02001" stroke-linecap="round" stroke-linejoin="round" stroke="rgb(13.729858%, 12.159729%, 12.548828%)" stroke-opacity="1" stroke-miterlimit="10" d="M 2027.74033 131.656448 L 2321.540819 451.421976 L 2678.589481 635.801169 Z M 2027.74033 131.656448 " transform="matrix(0.0997435, 0, 0, -0.0997435, -0.000000000000000888, 185.057655)"/>
</g>
<path fill-rule="nonzero" fill="rgb(91.351318%, 67.459106%, 56.564331%)" fill-opacity="1" d="M 27.039062 151.121094 L 0.449219 135.871094 L 61.007812 29.457031 "/>
<path fill="none" stroke-width="9.02001" stroke-linecap="round" stroke-linejoin="round" stroke="rgb(13.729858%, 12.159729%, 12.548828%)" stroke-opacity="1" stroke-miterlimit="10" d="M 271.085976 340.238347 L 4.50374 493.130524 " transform="matrix(0.0997435, 0, 0, -0.0997435, -0.000000000000000888, 185.057655)"/>
<path fill-rule="nonzero" fill="rgb(68.640137%, 87.872314%, 95.671082%)" fill-opacity="1" d="M 133.207031 184.609375 L 69.933594 179.308594 L 27.039062 151.121094 "/>
<g clip-path="url(#clip-10)">
<path fill="none" stroke-width="9.02001" stroke-linecap="round" stroke-linejoin="round" stroke="rgb(13.729858%, 12.159729%, 12.548828%)" stroke-opacity="1" stroke-miterlimit="10" d="M 1335.495934 4.494332 L 701.134386 57.638462 L 271.085976 340.238347 " transform="matrix(0.0997435, 0, 0, -0.0997435, -0.000000000000000888, 185.057655)"/>
</g>
<path fill-rule="nonzero" fill="rgb(42.773438%, 80.389404%, 71.185303%)" fill-opacity="1" d="M 69.933594 179.308594 L 0.449219 135.871094 L 27.039062 151.121094 L 69.933594 179.308594 "/>
<path fill="none" stroke-width="9.02001" stroke-linecap="round" stroke-linejoin="round" stroke="rgb(13.729858%, 12.159729%, 12.548828%)" stroke-opacity="1" stroke-miterlimit="10" d="M 701.134386 57.638462 L 4.50374 493.130524 L 271.085976 340.238347 Z M 701.134386 57.638462 " transform="matrix(0.0997435, 0, 0, -0.0997435, -0.000000000000000888, 185.057655)"/>
<path fill-rule="nonzero" fill="rgb(57.043457%, 15.664673%, 13.987732%)" fill-opacity="1" d="M 133.207031 184.609375 L 202.253906 171.925781 L 98.476562 162.046875 "/>
<g clip-path="url(#clip-11)">
<path fill="none" stroke-width="9.02001" stroke-linecap="round" stroke-linejoin="round" stroke="rgb(13.729858%, 12.159729%, 12.548828%)" stroke-opacity="1" stroke-miterlimit="10" d="M 1335.495934 4.494332 L 2027.74033 131.656448 " transform="matrix(0.0997435, 0, 0, -0.0997435, -0.000000000000000888, 185.057655)"/>
</g>
<path fill-rule="nonzero" fill="rgb(57.043457%, 15.664673%, 13.987732%)" fill-opacity="1" d="M 98.476562 162.046875 L 69.933594 179.308594 L 133.207031 184.609375 "/>
<g clip-path="url(#clip-12)">
<path fill="none" stroke-width="9.02001" stroke-linecap="round" stroke-linejoin="round" stroke="rgb(13.729858%, 12.159729%, 12.548828%)" stroke-opacity="1" stroke-miterlimit="10" d="M 987.2981 230.699561 L 701.134386 57.638462 L 1335.495934 4.494332 " transform="matrix(0.0997435, 0, 0, -0.0997435, -0.000000000000000888, 185.057655)"/>
</g>
<g clip-path="url(#clip-13)">
<path fill-rule="nonzero" fill="rgb(49.87793%, 37.315369%, 64.854431%)" fill-opacity="1" d="M 189.898438 23.257812 L 240.738281 45.902344 L 267.171875 121.640625 "/>
</g>
<g clip-path="url(#clip-14)">
<path fill="none" stroke-width="9.02001" stroke-linecap="round" stroke-linejoin="round" stroke="rgb(13.729858%, 12.159729%, 12.548828%)" stroke-opacity="1" stroke-miterlimit="10" d="M 1903.867902 1622.159358 L 2413.573764 1395.131707 L 2678.589481 635.801169 " transform="matrix(0.0997435, 0, 0, -0.0997435, -0.000000000000000888, 185.057655)"/>
</g>
<g clip-path="url(#clip-15)">
<path fill-rule="nonzero" fill="rgb(15.853882%, 8.125305%, 7.424927%)" fill-opacity="1" d="M 172.394531 0.453125 L 240.738281 45.902344 L 189.898438 23.257812 L 172.394531 0.453125 "/>
</g>
<g clip-path="url(#clip-16)">
<path fill="none" stroke-width="9.02001" stroke-linecap="round" stroke-linejoin="round" stroke="rgb(13.729858%, 12.159729%, 12.548828%)" stroke-opacity="1" stroke-miterlimit="10" d="M 1728.3787 1850.79269 L 2413.573764 1395.131707 L 1903.867902 1622.159358 Z M 1728.3787 1850.79269 " transform="matrix(0.0997435, 0, 0, -0.0997435, -0.000000000000000888, 185.057655)"/>
</g>
<path fill-rule="nonzero" fill="rgb(59.707642%, 15.90271%, 14.091492%)" fill-opacity="1" d="M 61.007812 29.457031 L 22.203125 56.699219 L 88.257812 4.398438 L 61.007812 29.457031 "/>
<path fill="none" stroke-width="9.02001" stroke-linecap="round" stroke-linejoin="round" stroke="rgb(13.729858%, 12.159729%, 12.548828%)" stroke-opacity="1" stroke-miterlimit="10" d="M 611.647034 1560.007748 L 222.602237 1286.885299 L 884.847809 1811.238106 Z M 611.647034 1560.007748 " transform="matrix(0.0997435, 0, 0, -0.0997435, -0.000000000000000888, 185.057655)"/>
<path fill-rule="nonzero" fill="rgb(91.351318%, 67.459106%, 56.564331%)" fill-opacity="1" stroke-width="9.02001" stroke-linecap="round" stroke-linejoin="round" stroke="rgb(13.729858%, 12.159729%, 12.548828%)" stroke-opacity="1" stroke-miterlimit="10" d="M 4.50374 493.130524 L 222.602237 1286.885299 L 611.647034 1560.007748 " transform="matrix(0.0997435, 0, 0, -0.0997435, -0.000000000000000888, 185.057655)"/>
<g clip-path="url(#clip-17)">
<path fill-rule="nonzero" fill="rgb(64.358521%, 27.39563%, 31.666565%)" fill-opacity="1" d="M 61.007812 29.457031 L 88.257812 4.398438 L 172.394531 0.453125 "/>
</g>
<g clip-path="url(#clip-18)">
<path fill="none" stroke-width="9.02001" stroke-linecap="round" stroke-linejoin="round" stroke="rgb(13.729858%, 12.159729%, 12.548828%)" stroke-opacity="1" stroke-miterlimit="10" d="M 611.647034 1560.007748 L 884.847809 1811.238106 L 1728.3787 1850.79269 " transform="matrix(0.0997435, 0, 0, -0.0997435, -0.000000000000000888, 185.057655)"/>
</g>
<g clip-path="url(#clip-19)">
<path fill-rule="nonzero" fill="rgb(81.088257%, 44.615173%, 32.281494%)" fill-opacity="1" d="M 184.984375 157.292969 L 202.253906 171.925781 L 267.171875 121.640625 "/>
</g>
<g clip-path="url(#clip-20)">
<path fill="none" stroke-width="9.02001" stroke-linecap="round" stroke-linejoin="round" stroke="rgb(13.729858%, 12.159729%, 12.548828%)" stroke-opacity="1" stroke-miterlimit="10" d="M 1854.600905 278.360878 L 2027.74033 131.656448 L 2678.589481 635.801169 " transform="matrix(0.0997435, 0, 0, -0.0997435, -0.000000000000000888, 185.057655)"/>
</g>
<path fill-rule="nonzero" fill="rgb(57.043457%, 15.664673%, 13.987732%)" fill-opacity="1" stroke-width="9.02001" stroke-linecap="round" stroke-linejoin="round" stroke="rgb(13.729858%, 12.159729%, 12.548828%)" stroke-opacity="1" stroke-miterlimit="10" d="M 2027.74033 131.656448 L 1854.600905 278.360878 L 987.2981 230.699561 " transform="matrix(0.0997435, 0, 0, -0.0997435, -0.000000000000000888, 185.057655)"/>
<g clip-path="url(#clip-21)">
<path fill-rule="nonzero" fill="rgb(90.315247%, 89.77356%, 51.571655%)" fill-opacity="1" d="M 240.738281 45.902344 L 253.683594 103.941406 L 267.171875 121.640625 L 240.738281 45.902344 "/>
</g>
<g clip-path="url(#clip-22)">
<path fill="none" stroke-width="9.02001" stroke-linecap="round" stroke-linejoin="round" stroke="rgb(13.729858%, 12.159729%, 12.548828%)" stroke-opacity="1" stroke-miterlimit="10" d="M 2413.573764 1395.131707 L 2543.359797 813.248519 L 2678.589481 635.801169 Z M 2413.573764 1395.131707 " transform="matrix(0.0997435, 0, 0, -0.0997435, -0.000000000000000888, 185.057655)"/>
</g>
<g clip-path="url(#clip-23)">
<path fill-rule="nonzero" fill="rgb(81.088257%, 44.615173%, 32.281494%)" fill-opacity="1" stroke-width="9.02001" stroke-linecap="round" stroke-linejoin="round" stroke="rgb(13.729858%, 12.159729%, 12.548828%)" stroke-opacity="1" stroke-miterlimit="10" d="M 2678.589481 635.801169 L 2543.359797 813.248519 L 1854.600905 278.360878 " transform="matrix(0.0997435, 0, 0, -0.0997435, -0.000000000000000888, 185.057655)"/>
</g>
<path fill-rule="nonzero" fill="rgb(51.087952%, 21.606445%, 41.600037%)" fill-opacity="1" stroke-width="9.02001" stroke-linecap="round" stroke-linejoin="round" stroke="rgb(13.729858%, 12.159729%, 12.548828%)" stroke-opacity="1" stroke-miterlimit="10" d="M 254.010927 693.292388 L 4.50374 493.130524 L 701.134386 57.638462 " transform="matrix(0.0997435, 0, 0, -0.0997435, -0.000000000000000888, 185.057655)"/>
<path fill-rule="nonzero" fill="rgb(51.087952%, 21.606445%, 41.600037%)" fill-opacity="1" stroke-width="9.02001" stroke-linecap="round" stroke-linejoin="round" stroke="rgb(13.729858%, 12.159729%, 12.548828%)" stroke-opacity="1" stroke-miterlimit="10" d="M 701.134386 57.638462 L 987.2981 230.699561 L 254.010927 693.292388 " transform="matrix(0.0997435, 0, 0, -0.0997435, -0.000000000000000888, 185.057655)"/>
<path fill-rule="nonzero" fill="rgb(18.493652%, 32.276917%, 67.127991%)" fill-opacity="1" d="M 22.203125 56.699219 L 0.449219 135.871094 L 25.335938 115.90625 L 22.203125 56.699219 "/>
<path fill="none" stroke-width="9.02001" stroke-linecap="round" stroke-linejoin="round" stroke="rgb(13.729858%, 12.159729%, 12.548828%)" stroke-opacity="1" stroke-miterlimit="10" d="M 222.602237 1286.885299 L 4.50374 493.130524 L 254.010927 693.292388 Z M 222.602237 1286.885299 " transform="matrix(0.0997435, 0, 0, -0.0997435, -0.000000000000000888, 185.057655)"/>
<g clip-path="url(#clip-24)">
<path fill-rule="nonzero" fill="rgb(81.407166%, 81.434631%, 86.401367%)" fill-opacity="1" d="M 253.683594 103.941406 L 240.738281 45.902344 L 172.394531 0.453125 "/>
</g>
<g clip-path="url(#clip-25)">
<path fill="none" stroke-width="9.02001" stroke-linecap="round" stroke-linejoin="round" stroke="rgb(13.729858%, 12.159729%, 12.548828%)" stroke-opacity="1" stroke-miterlimit="10" d="M 2543.359797 813.248519 L 2413.573764 1395.131707 L 1728.3787 1850.79269 " transform="matrix(0.0997435, 0, 0, -0.0997435, -0.000000000000000888, 185.057655)"/>
</g>
<path fill-rule="nonzero" fill="rgb(57.292175%, 60.968018%, 82.611084%)" fill-opacity="1" stroke-width="9.02001" stroke-linecap="round" stroke-linejoin="round" stroke="rgb(13.729858%, 12.159729%, 12.548828%)" stroke-opacity="1" stroke-miterlimit="10" d="M 884.847809 1811.238106 L 222.602237 1286.885299 L 254.010927 693.292388 " transform="matrix(0.0997435, 0, 0, -0.0997435, -0.000000000000000888, 185.057655)"/>
<g clip-path="url(#clip-26)">
<path fill-rule="nonzero" fill="rgb(61.039734%, 79.553223%, 93.44635%)" fill-opacity="1" d="M 88.257812 4.398438 L 137.453125 27.609375 L 172.394531 0.453125 L 88.257812 4.398438 "/>
</g>
<g clip-path="url(#clip-27)">
<path fill="none" stroke-width="9.02001" stroke-linecap="round" stroke-linejoin="round" stroke="rgb(13.729858%, 12.159729%, 12.548828%)" stroke-opacity="1" stroke-miterlimit="10" d="M 884.847809 1811.238106 L 1378.066066 1578.531826 L 1728.3787 1850.79269 Z M 884.847809 1811.238106 " transform="matrix(0.0997435, 0, 0, -0.0997435, -0.000000000000000888, 185.057655)"/>
</g>
<g clip-path="url(#clip-28)">
<path fill-rule="nonzero" fill="rgb(81.407166%, 81.434631%, 86.401367%)" fill-opacity="1" d="M 189.019531 94.777344 L 253.683594 103.941406 L 172.394531 0.453125 "/>
</g>
<path fill="none" stroke-width="9.02001" stroke-linecap="round" stroke-linejoin="round" stroke="rgb(13.729858%, 12.159729%, 12.548828%)" stroke-opacity="1" stroke-miterlimit="10" d="M 1895.056237 905.124812 L 2543.359797 813.248519 " transform="matrix(0.0997435, 0, 0, -0.0997435, -0.000000000000000888, 185.057655)"/>
<g clip-path="url(#clip-29)">
<path fill-rule="nonzero" fill="rgb(81.407166%, 81.434631%, 86.401367%)" fill-opacity="1" d="M 172.394531 0.453125 L 137.453125 27.609375 L 189.019531 94.777344 "/>
</g>
<g clip-path="url(#clip-30)">
<path fill="none" stroke-width="9.02001" stroke-linecap="round" stroke-linejoin="round" stroke="rgb(13.729858%, 12.159729%, 12.548828%)" stroke-opacity="1" stroke-miterlimit="10" d="M 1728.3787 1850.79269 L 1378.066066 1578.531826 L 1895.056237 905.124812 " transform="matrix(0.0997435, 0, 0, -0.0997435, -0.000000000000000888, 185.057655)"/>
</g>
<path fill-rule="nonzero" fill="rgb(57.292175%, 60.968018%, 82.611084%)" fill-opacity="1" stroke-width="9.02001" stroke-linecap="round" stroke-linejoin="round" stroke="rgb(13.729858%, 12.159729%, 12.548828%)" stroke-opacity="1" stroke-miterlimit="10" d="M 987.924707 858.129266 L 1378.066066 1578.531826 L 884.847809 1811.238106 " transform="matrix(0.0997435, 0, 0, -0.0997435, -0.000000000000000888, 185.057655)"/>
<path fill-rule="nonzero" fill="rgb(57.292175%, 60.968018%, 82.611084%)" fill-opacity="1" d="M 25.335938 115.90625 L 98.539062 99.464844 L 88.257812 4.398438 "/>
<path fill="none" stroke-width="9.02001" stroke-linecap="round" stroke-linejoin="round" stroke="rgb(13.729858%, 12.159729%, 12.548828%)" stroke-opacity="1" stroke-miterlimit="10" d="M 254.010927 693.292388 L 987.924707 858.129266 " transform="matrix(0.0997435, 0, 0, -0.0997435, -0.000000000000000888, 185.057655)"/>
<path fill-rule="nonzero" fill="rgb(71.783447%, 49.200439%, 60.435486%)" fill-opacity="1" stroke-width="9.02001" stroke-linecap="round" stroke-linejoin="round" stroke="rgb(13.729858%, 12.159729%, 12.548828%)" stroke-opacity="1" stroke-miterlimit="10" d="M 987.2981 230.699561 L 1854.600905 278.360878 L 1895.056237 905.124812 " transform="matrix(0.0997435, 0, 0, -0.0997435, -0.000000000000000888, 185.057655)"/>
<path fill-rule="nonzero" fill="rgb(78.457642%, 54.524231%, 58.97522%)" fill-opacity="1" d="M 184.984375 157.292969 L 253.683594 103.941406 L 189.019531 94.777344 L 184.984375 157.292969 "/>
<path fill="none" stroke-width="9.02001" stroke-linecap="round" stroke-linejoin="round" stroke="rgb(13.729858%, 12.159729%, 12.548828%)" stroke-opacity="1" stroke-miterlimit="10" d="M 1854.600905 278.360878 L 2543.359797 813.248519 L 1895.056237 905.124812 Z M 1854.600905 278.360878 " transform="matrix(0.0997435, 0, 0, -0.0997435, -0.000000000000000888, 185.057655)"/>
<path fill-rule="nonzero" fill="rgb(64.788818%, 44.198608%, 61.407471%)" fill-opacity="1" d="M 98.476562 162.046875 L 98.539062 99.464844 L 25.335938 115.90625 L 98.476562 162.046875 "/>
<path fill="none" stroke-width="9.02001" stroke-linecap="round" stroke-linejoin="round" stroke="rgb(13.729858%, 12.159729%, 12.548828%)" stroke-opacity="1" stroke-miterlimit="10" d="M 987.2981 230.699561 L 987.924707 858.129266 L 254.010927 693.292388 Z M 987.2981 230.699561 " transform="matrix(0.0997435, 0, 0, -0.0997435, -0.000000000000000888, 185.057655)"/>
<path fill-rule="nonzero" fill="rgb(71.783447%, 49.200439%, 60.435486%)" fill-opacity="1" stroke-width="9.02001" stroke-linecap="round" stroke-linejoin="round" stroke="rgb(13.729858%, 12.159729%, 12.548828%)" stroke-opacity="1" stroke-miterlimit="10" d="M 1895.056237 905.124812 L 987.924707 858.129266 L 987.2981 230.699561 " transform="matrix(0.0997435, 0, 0, -0.0997435, -0.000000000000000888, 185.057655)"/>
<path fill-rule="nonzero" fill="rgb(71.209717%, 65.937805%, 82.194519%)" fill-opacity="1" d="M 137.453125 27.609375 L 98.539062 99.464844 L 189.019531 94.777344 L 137.453125 27.609375 "/>
<path fill="none" stroke-width="9.02001" stroke-linecap="round" stroke-linejoin="round" stroke="rgb(13.729858%, 12.159729%, 12.548828%)" stroke-opacity="1" stroke-miterlimit="10" d="M 1378.066066 1578.531826 L 987.924707 858.129266 L 1895.056237 905.124812 Z M 1378.066066 1578.531826 " transform="matrix(0.0997435, 0, 0, -0.0997435, -0.000000000000000888, 185.057655)"/>
</svg>
