<?xml version="1.0" encoding="UTF-8"?>
<svg xmlns="http://www.w3.org/2000/svg" xmlns:xlink="http://www.w3.org/1999/xlink" width="282" height="162" viewBox="0 0 282 162">
<path fill="none" stroke-width="11.2578" stroke-linecap="round" stroke-linejoin="round" stroke="rgb(0%, 0%, 0%)" stroke-opacity="1" stroke-miterlimit="10" d="M 995 721.796875 L 832.96875 944.84375 L 570.742188 859.648438 L 570.742188 583.945312 L 832.96875 498.75 L 995 721.796875 " transform="matrix(0.1, 0, 0, -0.1, 0, 162)"/>
<path fill="none" stroke-width="11.2578" stroke-linecap="round" stroke-linejoin="round" stroke="rgb(0%, 0%, 0%)" stroke-opacity="1" stroke-miterlimit="10" d="M 995 721.796875 L 1199.882812 537.304688 L 1438.632812 675.15625 L 1381.367188 944.84375 L 1107.148438 973.671875 L 995 721.796875 " transform="matrix(0.1, 0, 0, -0.1, 0, 162)"/>
<path fill="none" stroke-width="11.2578" stroke-linecap="round" stroke-linejoin="round" stroke="rgb(0%, 0%, 0%)" stroke-opacity="1" stroke-miterlimit="10" d="M 995 721.796875 L 1107.148438 973.671875 L 832.96875 944.84375 L 995 721.796875 " transform="matrix(0.1, 0, 0, -0.1, 0, 162)"/>
<path fill="none" stroke-width="11.2578" stroke-linecap="round" stroke-linejoin="round" stroke="rgb(0%, 0%, 0%)" stroke-opacity="1" stroke-miterlimit="10" d="M 1107.148438 973.671875 L 1381.367188 944.84375 L 1269.179688 1196.71875 L 1107.148438 973.671875 " transform="matrix(0.1, 0, 0, -0.1, 0, 162)"/>
<path fill="none" stroke-width="11.2578" stroke-linecap="round" stroke-linejoin="round" stroke="rgb(0%, 0%, 0%)" stroke-opacity="1" stroke-miterlimit="10" d="M 832.96875 944.84375 L 1071.71875 1082.695312 L 1014.414062 1352.382812 L 740.234375 1381.210938 L 628.085938 1129.335938 L 832.96875 944.84375 " transform="matrix(0.1, 0, 0, -0.1, 0, 162)"/>
<path fill="none" stroke-width="11.2578" stroke-linecap="round" stroke-linejoin="round" stroke="rgb(0%, 0%, 0%)" stroke-opacity="1" stroke-miterlimit="10" d="M 832.96875 944.84375 L 628.085938 1129.335938 L 570.742188 859.648438 L 832.96875 944.84375 " transform="matrix(0.1, 0, 0, -0.1, 0, 162)"/>
<path fill="none" stroke-width="11.2578" stroke-linecap="round" stroke-linejoin="round" stroke="rgb(0%, 0%, 0%)" stroke-opacity="1" stroke-miterlimit="10" d="M 628.085938 1129.335938 L 740.234375 1381.210938 L 466.015625 1352.382812 L 628.085938 1129.335938 " transform="matrix(0.1, 0, 0, -0.1, 0, 162)"/>
<path fill="none" stroke-width="11.2578" stroke-linecap="round" stroke-linejoin="round" stroke="rgb(0%, 0%, 0%)" stroke-opacity="1" stroke-miterlimit="10" d="M 570.742188 859.648438 L 513.4375 1129.335938 L 239.257812 1158.164062 L 127.109375 906.289062 L 331.992188 721.796875 L 570.742188 859.648438 " transform="matrix(0.1, 0, 0, -0.1, 0, 162)"/>
<path fill="none" stroke-width="11.2578" stroke-linecap="round" stroke-linejoin="round" stroke="rgb(0%, 0%, 0%)" stroke-opacity="1" stroke-miterlimit="10" d="M 570.742188 859.648438 L 331.992188 721.796875 L 570.742188 583.945312 L 570.742188 859.648438 " transform="matrix(0.1, 0, 0, -0.1, 0, 162)"/>
<path fill="none" stroke-width="11.2578" stroke-linecap="round" stroke-linejoin="round" stroke="rgb(0%, 0%, 0%)" stroke-opacity="1" stroke-miterlimit="10" d="M 331.992188 721.796875 L 127.109375 906.289062 L 69.804688 636.601562 L 331.992188 721.796875 " transform="matrix(0.1, 0, 0, -0.1, 0, 162)"/>
<path fill="none" stroke-width="11.2578" stroke-linecap="round" stroke-linejoin="round" stroke="rgb(0%, 0%, 0%)" stroke-opacity="1" stroke-miterlimit="10" d="M 570.742188 583.945312 L 296.5625 612.773438 L 184.414062 360.898438 L 389.296875 176.40625 L 628.085938 314.257812 L 570.742188 583.945312 " transform="matrix(0.1, 0, 0, -0.1, 0, 162)"/>
<path fill="none" stroke-width="11.2578" stroke-linecap="round" stroke-linejoin="round" stroke="rgb(0%, 0%, 0%)" stroke-opacity="1" stroke-miterlimit="10" d="M 570.742188 583.945312 L 628.085938 314.257812 L 832.96875 498.75 L 570.742188 583.945312 " transform="matrix(0.1, 0, 0, -0.1, 0, 162)"/>
<path fill="none" stroke-width="11.2578" stroke-linecap="round" stroke-linejoin="round" stroke="rgb(0%, 0%, 0%)" stroke-opacity="1" stroke-miterlimit="10" d="M 628.085938 314.257812 L 389.296875 176.40625 L 628.085938 38.554688 L 628.085938 314.257812 " transform="matrix(0.1, 0, 0, -0.1, 0, 162)"/>
<path fill="none" stroke-width="11.2578" stroke-linecap="round" stroke-linejoin="round" stroke="rgb(0%, 0%, 0%)" stroke-opacity="1" stroke-miterlimit="10" d="M 832.96875 498.75 L 720.820312 246.875 L 925.703125 62.382812 L 1164.453125 200.234375 L 1107.148438 469.921875 L 832.96875 498.75 " transform="matrix(0.1, 0, 0, -0.1, 0, 162)"/>
<path fill="none" stroke-width="11.2578" stroke-linecap="round" stroke-linejoin="round" stroke="rgb(0%, 0%, 0%)" stroke-opacity="1" stroke-miterlimit="10" d="M 832.96875 498.75 L 1107.148438 469.921875 L 995 721.796875 L 832.96875 498.75 " transform="matrix(0.1, 0, 0, -0.1, 0, 162)"/>
<path fill="none" stroke-width="11.2578" stroke-linecap="round" stroke-linejoin="round" stroke="rgb(0%, 0%, 0%)" stroke-opacity="1" stroke-miterlimit="10" d="M 1107.148438 469.921875 L 1164.453125 200.234375 L 1369.375 384.726562 L 1107.148438 469.921875 " transform="matrix(0.1, 0, 0, -0.1, 0, 162)"/>
<path fill="none" stroke-width="11.2578" stroke-linecap="round" stroke-linejoin="round" stroke="rgb(0%, 0%, 0%)" stroke-opacity="1" stroke-miterlimit="10" d="M 1825 898.203125 L 1987.03125 675.15625 L 2249.257812 760.351562 L 2249.257812 1036.054688 L 1987.03125 1121.25 L 1825 898.203125 " transform="matrix(0.1, 0, 0, -0.1, 0, 162)"/>
<path fill="none" stroke-width="11.2578" stroke-linecap="round" stroke-linejoin="round" stroke="rgb(0%, 0%, 0%)" stroke-opacity="1" stroke-miterlimit="10" d="M 1825 898.203125 L 1620.117188 1082.695312 L 1381.367188 944.84375 L 1438.632812 675.15625 L 1712.851562 646.328125 L 1825 898.203125 " transform="matrix(0.1, 0, 0, -0.1, 0, 162)"/>
<path fill="none" stroke-width="11.2578" stroke-linecap="round" stroke-linejoin="round" stroke="rgb(0%, 0%, 0%)" stroke-opacity="1" stroke-miterlimit="10" d="M 1825 898.203125 L 1712.851562 646.328125 L 1987.03125 675.15625 L 1825 898.203125 " transform="matrix(0.1, 0, 0, -0.1, 0, 162)"/>
<path fill="none" stroke-width="11.2578" stroke-linecap="round" stroke-linejoin="round" stroke="rgb(0%, 0%, 0%)" stroke-opacity="1" stroke-miterlimit="10" d="M 1712.851562 646.328125 L 1438.632812 675.15625 L 1550.820312 423.28125 L 1712.851562 646.328125 " transform="matrix(0.1, 0, 0, -0.1, 0, 162)"/>
<path fill="none" stroke-width="11.2578" stroke-linecap="round" stroke-linejoin="round" stroke="rgb(0%, 0%, 0%)" stroke-opacity="1" stroke-miterlimit="10" d="M 1987.03125 675.15625 L 1748.28125 537.304688 L 1805.585938 267.65625 L 2079.804688 238.828125 L 2191.914062 490.703125 L 1987.03125 675.15625 " transform="matrix(0.1, 0, 0, -0.1, 0, 162)"/>
<path fill="none" stroke-width="11.2578" stroke-linecap="round" stroke-linejoin="round" stroke="rgb(0%, 0%, 0%)" stroke-opacity="1" stroke-miterlimit="10" d="M 1987.03125 675.15625 L 2191.914062 490.703125 L 2249.257812 760.351562 L 1987.03125 675.15625 " transform="matrix(0.1, 0, 0, -0.1, 0, 162)"/>
<path fill="none" stroke-width="11.2578" stroke-linecap="round" stroke-linejoin="round" stroke="rgb(0%, 0%, 0%)" stroke-opacity="1" stroke-miterlimit="10" d="M 2191.914062 490.703125 L 2079.804688 238.828125 L 2353.984375 267.65625 L 2191.914062 490.703125 " transform="matrix(0.1, 0, 0, -0.1, 0, 162)"/>
<path fill="none" stroke-width="11.2578" stroke-linecap="round" stroke-linejoin="round" stroke="rgb(0%, 0%, 0%)" stroke-opacity="1" stroke-miterlimit="10" d="M 2249.257812 760.351562 L 2306.5625 490.703125 L 2580.742188 461.875 L 2692.890625 713.75 L 2488.007812 898.203125 L 2249.257812 760.351562 " transform="matrix(0.1, 0, 0, -0.1, 0, 162)"/>
<path fill="none" stroke-width="11.2578" stroke-linecap="round" stroke-linejoin="round" stroke="rgb(0%, 0%, 0%)" stroke-opacity="1" stroke-miterlimit="10" d="M 2249.257812 760.351562 L 2488.007812 898.203125 L 2249.257812 1036.054688 L 2249.257812 760.351562 " transform="matrix(0.1, 0, 0, -0.1, 0, 162)"/>
<path fill="none" stroke-width="11.2578" stroke-linecap="round" stroke-linejoin="round" stroke="rgb(0%, 0%, 0%)" stroke-opacity="1" stroke-miterlimit="10" d="M 2488.007812 898.203125 L 2692.890625 713.75 L 2750.195312 983.398438 L 2488.007812 898.203125 " transform="matrix(0.1, 0, 0, -0.1, 0, 162)"/>
<path fill="none" stroke-width="11.2578" stroke-linecap="round" stroke-linejoin="round" stroke="rgb(0%, 0%, 0%)" stroke-opacity="1" stroke-miterlimit="10" d="M 2249.257812 1036.054688 L 2523.4375 1007.226562 L 2635.585938 1259.101562 L 2430.703125 1443.59375 L 2191.914062 1305.742188 L 2249.257812 1036.054688 " transform="matrix(0.1, 0, 0, -0.1, 0, 162)"/>
<path fill="none" stroke-width="11.2578" stroke-linecap="round" stroke-linejoin="round" stroke="rgb(0%, 0%, 0%)" stroke-opacity="1" stroke-miterlimit="10" d="M 2249.257812 1036.054688 L 2191.914062 1305.742188 L 1987.03125 1121.25 L 2249.257812 1036.054688 " transform="matrix(0.1, 0, 0, -0.1, 0, 162)"/>
<path fill="none" stroke-width="11.2578" stroke-linecap="round" stroke-linejoin="round" stroke="rgb(0%, 0%, 0%)" stroke-opacity="1" stroke-miterlimit="10" d="M 2191.914062 1305.742188 L 2430.703125 1443.59375 L 2191.914062 1581.445312 L 2191.914062 1305.742188 " transform="matrix(0.1, 0, 0, -0.1, 0, 162)"/>
<path fill="none" stroke-width="11.2578" stroke-linecap="round" stroke-linejoin="round" stroke="rgb(0%, 0%, 0%)" stroke-opacity="1" stroke-miterlimit="10" d="M 1987.03125 1121.25 L 2099.179688 1373.125 L 1894.296875 1557.617188 L 1655.546875 1419.765625 L 1712.851562 1150.078125 L 1987.03125 1121.25 " transform="matrix(0.1, 0, 0, -0.1, 0, 162)"/>
<path fill="none" stroke-width="11.2578" stroke-linecap="round" stroke-linejoin="round" stroke="rgb(0%, 0%, 0%)" stroke-opacity="1" stroke-miterlimit="10" d="M 1987.03125 1121.25 L 1712.851562 1150.078125 L 1825 898.203125 L 1987.03125 1121.25 " transform="matrix(0.1, 0, 0, -0.1, 0, 162)"/>
<path fill="none" stroke-width="11.2578" stroke-linecap="round" stroke-linejoin="round" stroke="rgb(0%, 0%, 0%)" stroke-opacity="1" stroke-miterlimit="10" d="M 1712.851562 1150.078125 L 1655.546875 1419.765625 L 1450.625 1235.273438 L 1712.851562 1150.078125 " transform="matrix(0.1, 0, 0, -0.1, 0, 162)"/>
</svg>
