<?xml version="1.0" encoding="UTF-8"?>
<svg xmlns="http://www.w3.org/2000/svg" xmlns:xlink="http://www.w3.org/1999/xlink" width="178" height="200" viewBox="0 0 178 200">
<path fill="none" stroke-width="7.12" stroke-linecap="round" stroke-linejoin="round" stroke="rgb(0%, 0%, 0%)" stroke-opacity="1" stroke-miterlimit="10" d="M 607.460938 1423.828125 L 890 1423.828125 L 748.710938 1668.476562 L 607.460938 1423.828125 " transform="matrix(0.1, 0, 0, -0.1, 0, 200)"/>
<path fill="none" stroke-width="7.12" stroke-linecap="round" stroke-linejoin="round" stroke="rgb(0%, 0%, 0%)" stroke-opacity="1" stroke-miterlimit="10" d="M 890 1423.828125 L 607.460938 1423.828125 L 607.460938 1141.289062 L 890 1141.289062 L 890 1423.828125 " transform="matrix(0.1, 0, 0, -0.1, 0, 200)"/>
<path fill="none" stroke-width="7.12" stroke-linecap="round" stroke-linejoin="round" stroke="rgb(0%, 0%, 0%)" stroke-opacity="1" stroke-miterlimit="10" d="M 890 1423.828125 L 890 1141.289062 L 1134.6875 1282.539062 L 890 1423.828125 " transform="matrix(0.1, 0, 0, -0.1, 0, 200)"/>
<path fill="none" stroke-width="7.12" stroke-linecap="round" stroke-linejoin="round" stroke="rgb(0%, 0%, 0%)" stroke-opacity="1" stroke-miterlimit="10" d="M 748.710938 1668.476562 L 890 1423.828125 L 1134.6875 1565.078125 L 993.4375 1809.765625 L 748.710938 1668.476562 " transform="matrix(0.1, 0, 0, -0.1, 0, 200)"/>
<path fill="none" stroke-width="7.12" stroke-linecap="round" stroke-linejoin="round" stroke="rgb(0%, 0%, 0%)" stroke-opacity="1" stroke-miterlimit="10" d="M 748.710938 1668.476562 L 993.4375 1809.765625 L 748.710938 1951.015625 L 748.710938 1668.476562 " transform="matrix(0.1, 0, 0, -0.1, 0, 200)"/>
<path fill="none" stroke-width="7.12" stroke-linecap="round" stroke-linejoin="round" stroke="rgb(0%, 0%, 0%)" stroke-opacity="1" stroke-miterlimit="10" d="M 607.460938 1423.828125 L 748.710938 1668.476562 L 504.0625 1809.765625 L 362.773438 1565.078125 L 607.460938 1423.828125 " transform="matrix(0.1, 0, 0, -0.1, 0, 200)"/>
<path fill="none" stroke-width="7.12" stroke-linecap="round" stroke-linejoin="round" stroke="rgb(0%, 0%, 0%)" stroke-opacity="1" stroke-miterlimit="10" d="M 607.460938 1423.828125 L 362.773438 1565.078125 L 362.773438 1282.539062 L 607.460938 1423.828125 " transform="matrix(0.1, 0, 0, -0.1, 0, 200)"/>
<path fill="none" stroke-width="7.12" stroke-linecap="round" stroke-linejoin="round" stroke="rgb(0%, 0%, 0%)" stroke-opacity="1" stroke-miterlimit="10" d="M 1172.539062 576.171875 L 890 576.171875 L 1031.289062 331.484375 L 1172.539062 576.171875 " transform="matrix(0.1, 0, 0, -0.1, 0, 200)"/>
<path fill="none" stroke-width="7.12" stroke-linecap="round" stroke-linejoin="round" stroke="rgb(0%, 0%, 0%)" stroke-opacity="1" stroke-miterlimit="10" d="M 890 576.171875 L 1172.539062 576.171875 L 1172.539062 858.710938 L 890 858.710938 L 890 576.171875 " transform="matrix(0.1, 0, 0, -0.1, 0, 200)"/>
<path fill="none" stroke-width="7.12" stroke-linecap="round" stroke-linejoin="round" stroke="rgb(0%, 0%, 0%)" stroke-opacity="1" stroke-miterlimit="10" d="M 890 576.171875 L 890 858.710938 L 645.3125 717.460938 L 890 576.171875 " transform="matrix(0.1, 0, 0, -0.1, 0, 200)"/>
<path fill="none" stroke-width="7.12" stroke-linecap="round" stroke-linejoin="round" stroke="rgb(0%, 0%, 0%)" stroke-opacity="1" stroke-miterlimit="10" d="M 1031.289062 331.484375 L 890 576.171875 L 645.3125 434.921875 L 786.5625 190.234375 L 1031.289062 331.484375 " transform="matrix(0.1, 0, 0, -0.1, 0, 200)"/>
<path fill="none" stroke-width="7.12" stroke-linecap="round" stroke-linejoin="round" stroke="rgb(0%, 0%, 0%)" stroke-opacity="1" stroke-miterlimit="10" d="M 1031.289062 331.484375 L 786.5625 190.234375 L 1031.289062 48.945312 L 1031.289062 331.484375 " transform="matrix(0.1, 0, 0, -0.1, 0, 200)"/>
<path fill="none" stroke-width="7.12" stroke-linecap="round" stroke-linejoin="round" stroke="rgb(0%, 0%, 0%)" stroke-opacity="1" stroke-miterlimit="10" d="M 1172.539062 576.171875 L 1031.289062 331.484375 L 1275.976562 190.234375 L 1417.226562 434.921875 L 1172.539062 576.171875 " transform="matrix(0.1, 0, 0, -0.1, 0, 200)"/>
<path fill="none" stroke-width="7.12" stroke-linecap="round" stroke-linejoin="round" stroke="rgb(0%, 0%, 0%)" stroke-opacity="1" stroke-miterlimit="10" d="M 1172.539062 576.171875 L 1417.226562 434.921875 L 1417.226562 717.460938 L 1172.539062 576.171875 " transform="matrix(0.1, 0, 0, -0.1, 0, 200)"/>
<path fill="none" stroke-width="7.12" stroke-linecap="round" stroke-linejoin="round" stroke="rgb(0%, 0%, 0%)" stroke-opacity="1" stroke-miterlimit="10" d="M 42.382812 1141.289062 L 42.382812 858.710938 L 324.921875 858.710938 L 324.921875 1141.289062 L 42.382812 1141.289062 " transform="matrix(0.1, 0, 0, -0.1, 0, 200)"/>
<path fill="none" stroke-width="7.12" stroke-linecap="round" stroke-linejoin="round" stroke="rgb(0%, 0%, 0%)" stroke-opacity="1" stroke-miterlimit="10" d="M 324.921875 1141.289062 L 324.921875 858.710938 L 607.460938 858.710938 L 607.460938 1141.289062 L 324.921875 1141.289062 " transform="matrix(0.1, 0, 0, -0.1, 0, 200)"/>
<path fill="none" stroke-width="7.12" stroke-linecap="round" stroke-linejoin="round" stroke="rgb(0%, 0%, 0%)" stroke-opacity="1" stroke-miterlimit="10" d="M 607.460938 1141.289062 L 607.460938 858.710938 L 890 858.710938 L 890 1141.289062 L 607.460938 1141.289062 " transform="matrix(0.1, 0, 0, -0.1, 0, 200)"/>
<path fill="none" stroke-width="7.12" stroke-linecap="round" stroke-linejoin="round" stroke="rgb(0%, 0%, 0%)" stroke-opacity="1" stroke-miterlimit="10" d="M 890 1141.289062 L 890 858.710938 L 1172.539062 858.710938 L 1172.539062 1141.289062 L 890 1141.289062 " transform="matrix(0.1, 0, 0, -0.1, 0, 200)"/>
<path fill="none" stroke-width="7.12" stroke-linecap="round" stroke-linejoin="round" stroke="rgb(0%, 0%, 0%)" stroke-opacity="1" stroke-miterlimit="10" d="M 1172.539062 1141.289062 L 1172.539062 858.710938 L 1455.078125 858.710938 L 1455.078125 1141.289062 L 1172.539062 1141.289062 " transform="matrix(0.1, 0, 0, -0.1, 0, 200)"/>
<path fill="none" stroke-width="7.12" stroke-linecap="round" stroke-linejoin="round" stroke="rgb(0%, 0%, 0%)" stroke-opacity="1" stroke-miterlimit="10" d="M 1455.078125 1141.289062 L 1455.078125 858.710938 L 1737.617188 858.710938 L 1737.617188 1141.289062 L 1455.078125 1141.289062 " transform="matrix(0.1, 0, 0, -0.1, 0, 200)"/>
</svg>
