<?xml version="1.0" encoding="UTF-8"?>
<svg xmlns="http://www.w3.org/2000/svg" xmlns:xlink="http://www.w3.org/1999/xlink" width="234" height="200" viewBox="0 0 234 200">
<path fill-rule="nonzero" fill="rgb(67.96875%, 49.804688%, 63.476562%)" fill-opacity="1" stroke-width="8.6" stroke-linecap="round" stroke-linejoin="round" stroke="rgb(0%, 0%, 0%)" stroke-opacity="1" stroke-miterlimit="10" d="M 1427.421875 1869.492188 L 1718.75 1339.414062 L 1172.460938 1106.640625 " transform="matrix(0.1, 0, 0, -0.1, 0, 200)"/>
<path fill-rule="nonzero" fill="rgb(67.96875%, 49.804688%, 63.476562%)" fill-opacity="1" stroke-width="8.6" stroke-linecap="round" stroke-linejoin="round" stroke="rgb(0%, 0%, 0%)" stroke-opacity="1" stroke-miterlimit="10" d="M 1172.460938 1106.640625 L 876.914062 1624.0625 L 1427.421875 1869.492188 " transform="matrix(0.1, 0, 0, -0.1, 0, 200)"/>
<path fill-rule="nonzero" fill="rgb(76.5625%, 60.742188%, 68.359375%)" fill-opacity="1" stroke-width="8.6" stroke-linecap="round" stroke-linejoin="round" stroke="rgb(0%, 0%, 0%)" stroke-opacity="1" stroke-miterlimit="10" d="M 876.914062 1624.0625 L 1172.460938 1106.640625 L 676.171875 760.703125 " transform="matrix(0.1, 0, 0, -0.1, 0, 200)"/>
<path fill-rule="nonzero" fill="rgb(67.771912%, 63.28125%, 79.881287%)" fill-opacity="1" d="M 124.78125 140.183594 L 67.617188 123.929688 L 117.246094 89.335938 "/>
<path fill="none" stroke-width="8.6" stroke-linecap="round" stroke-linejoin="round" stroke="rgb(0%, 0%, 0%)" stroke-opacity="1" stroke-miterlimit="10" d="M 1247.8125 598.164062 L 676.171875 760.703125 L 1172.460938 1106.640625 Z M 1247.8125 598.164062 " transform="matrix(0.1, 0, 0, -0.1, 0, 200)"/>
<path fill-rule="nonzero" fill="rgb(60.546875%, 56.639099%, 78.318787%)" fill-opacity="1" stroke-width="8.6" stroke-linecap="round" stroke-linejoin="round" stroke="rgb(0%, 0%, 0%)" stroke-opacity="1" stroke-miterlimit="10" d="M 1172.460938 1106.640625 L 1718.75 1339.414062 L 1812.070312 829.414062 " transform="matrix(0.1, 0, 0, -0.1, 0, 200)"/>
<path fill-rule="nonzero" fill="rgb(60.546875%, 56.639099%, 78.318787%)" fill-opacity="1" stroke-width="8.6" stroke-linecap="round" stroke-linejoin="round" stroke="rgb(0%, 0%, 0%)" stroke-opacity="1" stroke-miterlimit="10" d="M 1812.070312 829.414062 L 1247.8125 598.164062 L 1172.460938 1106.640625 " transform="matrix(0.1, 0, 0, -0.1, 0, 200)"/>
<path fill-rule="nonzero" fill="rgb(76.5625%, 60.742188%, 68.359375%)" fill-opacity="1" stroke-width="8.6" stroke-linecap="round" stroke-linejoin="round" stroke="rgb(0%, 0%, 0%)" stroke-opacity="1" stroke-miterlimit="10" d="M 676.171875 760.703125 L 368.242188 1279.21875 L 876.914062 1624.0625 " transform="matrix(0.1, 0, 0, -0.1, 0, 200)"/>
<path fill-rule="nonzero" fill="rgb(85.742188%, 73.826599%, 73.046875%)" fill-opacity="1" stroke-width="8.6" stroke-linecap="round" stroke-linejoin="round" stroke="rgb(0%, 0%, 0%)" stroke-opacity="1" stroke-miterlimit="10" d="M 368.242188 1279.21875 L 676.171875 760.703125 L 388.085938 406.484375 " transform="matrix(0.1, 0, 0, -0.1, 0, 200)"/>
<path fill-rule="nonzero" fill="rgb(68.554688%, 71.289062%, 86.71875%)" fill-opacity="1" stroke-width="8.6" stroke-linecap="round" stroke-linejoin="round" stroke="rgb(0%, 0%, 0%)" stroke-opacity="1" stroke-miterlimit="10" d="M 388.085938 406.484375 L 676.171875 760.703125 L 1247.8125 598.164062 " transform="matrix(0.1, 0, 0, -0.1, 0, 200)"/>
<path fill-rule="nonzero" fill="rgb(52.34375%, 31.492615%, 53.709412%)" fill-opacity="1" stroke-width="8.6" stroke-linecap="round" stroke-linejoin="round" stroke="rgb(0%, 0%, 0%)" stroke-opacity="1" stroke-miterlimit="10" d="M 1847.265625 1933.007812 L 2143.398438 1379.84375 L 1718.75 1339.414062 " transform="matrix(0.1, 0, 0, -0.1, 0, 200)"/>
<path fill-rule="nonzero" fill="rgb(52.34375%, 31.492615%, 53.709412%)" fill-opacity="1" stroke-width="8.6" stroke-linecap="round" stroke-linejoin="round" stroke="rgb(0%, 0%, 0%)" stroke-opacity="1" stroke-miterlimit="10" d="M 1718.75 1339.414062 L 1427.421875 1869.492188 L 1847.265625 1933.007812 " transform="matrix(0.1, 0, 0, -0.1, 0, 200)"/>
<path fill-rule="nonzero" fill="rgb(50.78125%, 47.192383%, 75.193787%)" fill-opacity="1" d="M 181.207031 117.058594 L 171.875 66.058594 L 214.339844 62.015625 "/>
<path fill="none" stroke-width="8.6" stroke-linecap="round" stroke-linejoin="round" stroke="rgb(0%, 0%, 0%)" stroke-opacity="1" stroke-miterlimit="10" d="M 1812.070312 829.414062 L 1718.75 1339.414062 L 2143.398438 1379.84375 Z M 1812.070312 829.414062 " transform="matrix(0.1, 0, 0, -0.1, 0, 200)"/>
<path fill-rule="nonzero" fill="rgb(83.789062%, 46.702576%, 35.105896%)" fill-opacity="1" d="M 61.417969 30.601562 L 87.691406 37.59375 L 36.824219 72.078125 "/>
<path fill="none" stroke-width="8.6" stroke-linecap="round" stroke-linejoin="round" stroke="rgb(0%, 0%, 0%)" stroke-opacity="1" stroke-miterlimit="10" d="M 614.179688 1693.984375 L 876.914062 1624.0625 L 368.242188 1279.21875 Z M 614.179688 1693.984375 " transform="matrix(0.1, 0, 0, -0.1, 0, 200)"/>
<path fill-rule="nonzero" fill="rgb(69.334412%, 22.192383%, 12.5%)" fill-opacity="1" stroke-width="8.6" stroke-linecap="round" stroke-linejoin="round" stroke="rgb(0%, 0%, 0%)" stroke-opacity="1" stroke-miterlimit="10" d="M 1427.421875 1869.492188 L 876.914062 1624.0625 L 614.179688 1693.984375 " transform="matrix(0.1, 0, 0, -0.1, 0, 200)"/>
<path fill-rule="nonzero" fill="rgb(68.554688%, 71.289062%, 86.71875%)" fill-opacity="1" stroke-width="8.6" stroke-linecap="round" stroke-linejoin="round" stroke="rgb(0%, 0%, 0%)" stroke-opacity="1" stroke-miterlimit="10" d="M 1247.8125 598.164062 L 977.539062 231.40625 L 388.085938 406.484375 " transform="matrix(0.1, 0, 0, -0.1, 0, 200)"/>
<path fill-rule="nonzero" fill="rgb(45.092773%, 60.9375%, 91.40625%)" fill-opacity="1" stroke-width="8.6" stroke-linecap="round" stroke-linejoin="round" stroke="rgb(0%, 0%, 0%)" stroke-opacity="1" stroke-miterlimit="10" d="M 1393.515625 225.507812 L 977.539062 231.40625 L 1247.8125 598.164062 " transform="matrix(0.1, 0, 0, -0.1, 0, 200)"/>
<path fill-rule="nonzero" fill="rgb(45.092773%, 60.9375%, 91.40625%)" fill-opacity="1" d="M 193.019531 138.558594 L 139.351562 177.449219 L 124.78125 140.183594 "/>
<path fill="none" stroke-width="8.6" stroke-linecap="round" stroke-linejoin="round" stroke="rgb(0%, 0%, 0%)" stroke-opacity="1" stroke-miterlimit="10" d="M 1930.195312 614.414062 L 1393.515625 225.507812 " transform="matrix(0.1, 0, 0, -0.1, 0, 200)"/>
<path fill-rule="nonzero" fill="rgb(45.092773%, 60.9375%, 91.40625%)" fill-opacity="1" stroke-width="8.6" stroke-linecap="round" stroke-linejoin="round" stroke="rgb(0%, 0%, 0%)" stroke-opacity="1" stroke-miterlimit="10" d="M 1247.8125 598.164062 L 1812.070312 829.414062 L 1930.195312 614.414062 " transform="matrix(0.1, 0, 0, -0.1, 0, 200)"/>
<path fill-rule="nonzero" fill="rgb(85.742188%, 73.826599%, 73.046875%)" fill-opacity="1" stroke-width="8.6" stroke-linecap="round" stroke-linejoin="round" stroke="rgb(0%, 0%, 0%)" stroke-opacity="1" stroke-miterlimit="10" d="M 388.085938 406.484375 L 62.851562 939.53125 L 368.242188 1279.21875 " transform="matrix(0.1, 0, 0, -0.1, 0, 200)"/>
<path fill-rule="nonzero" fill="rgb(82.226562%, 36.69281%, 0%)" fill-opacity="1" stroke-width="8.6" stroke-linecap="round" stroke-linejoin="round" stroke="rgb(0%, 0%, 0%)" stroke-opacity="1" stroke-miterlimit="10" d="M 368.242188 1279.21875 L 62.851562 939.53125 L 307.578125 1358.828125 " transform="matrix(0.1, 0, 0, -0.1, 0, 200)"/>
<path fill-rule="nonzero" fill="rgb(82.226562%, 36.69281%, 0%)" fill-opacity="1" stroke-width="8.6" stroke-linecap="round" stroke-linejoin="round" stroke="rgb(0%, 0%, 0%)" stroke-opacity="1" stroke-miterlimit="10" d="M 307.578125 1358.828125 L 614.179688 1693.984375 L 368.242188 1279.21875 " transform="matrix(0.1, 0, 0, -0.1, 0, 200)"/>
<path fill-rule="nonzero" fill="rgb(37.109375%, 0%, 0%)" fill-opacity="1" d="M 118.777344 4.703125 L 184.726562 6.699219 L 142.742188 13.050781 "/>
<path fill="none" stroke-width="8.6" stroke-linecap="round" stroke-linejoin="round" stroke="rgb(0%, 0%, 0%)" stroke-opacity="1" stroke-miterlimit="10" d="M 1187.773438 1952.96875 L 1847.265625 1933.007812 L 1427.421875 1869.492188 Z M 1187.773438 1952.96875 " transform="matrix(0.1, 0, 0, -0.1, 0, 200)"/>
<path fill-rule="nonzero" fill="rgb(69.334412%, 22.192383%, 12.5%)" fill-opacity="1" stroke-width="8.6" stroke-linecap="round" stroke-linejoin="round" stroke="rgb(0%, 0%, 0%)" stroke-opacity="1" stroke-miterlimit="10" d="M 614.179688 1693.984375 L 1187.773438 1952.96875 L 1427.421875 1869.492188 " transform="matrix(0.1, 0, 0, -0.1, 0, 200)"/>
<path fill-rule="nonzero" fill="rgb(24.388123%, 34.49707%, 76.951599%)" fill-opacity="1" stroke-width="8.6" stroke-linecap="round" stroke-linejoin="round" stroke="rgb(0%, 0%, 0%)" stroke-opacity="1" stroke-miterlimit="10" d="M 1930.195312 614.414062 L 1812.070312 829.414062 L 2143.398438 1379.84375 " transform="matrix(0.1, 0, 0, -0.1, 0, 200)"/>
<path fill-rule="nonzero" fill="rgb(88.671875%, 96.875%, 64.646912%)" fill-opacity="1" stroke-width="8.6" stroke-linecap="round" stroke-linejoin="round" stroke="rgb(0%, 0%, 0%)" stroke-opacity="1" stroke-miterlimit="10" d="M 62.851562 939.53125 L 388.085938 406.484375 L 432.304688 168.242188 " transform="matrix(0.1, 0, 0, -0.1, 0, 200)"/>
<path fill-rule="nonzero" fill="rgb(66.796875%, 83.789062%, 96.484375%)" fill-opacity="1" d="M 97.753906 176.859375 L 43.230469 183.175781 L 38.808594 159.351562 "/>
<path fill="none" stroke-width="8.6" stroke-linecap="round" stroke-linejoin="round" stroke="rgb(0%, 0%, 0%)" stroke-opacity="1" stroke-miterlimit="10" d="M 977.539062 231.40625 L 432.304688 168.242188 L 388.085938 406.484375 Z M 977.539062 231.40625 " transform="matrix(0.1, 0, 0, -0.1, 0, 200)"/>
<path fill-rule="nonzero" fill="rgb(0%, 0%, 0%)" fill-opacity="1" stroke-width="8.6" stroke-linecap="round" stroke-linejoin="round" stroke="rgb(0%, 0%, 0%)" stroke-opacity="1" stroke-miterlimit="10" d="M 1970.820312 1770.703125 L 2280.234375 1191.40625 L 2143.398438 1379.84375 " transform="matrix(0.1, 0, 0, -0.1, 0, 200)"/>
<path fill-rule="nonzero" fill="rgb(0%, 0%, 0%)" fill-opacity="1" stroke-width="8.6" stroke-linecap="round" stroke-linejoin="round" stroke="rgb(0%, 0%, 0%)" stroke-opacity="1" stroke-miterlimit="10" d="M 2143.398438 1379.84375 L 1847.265625 1933.007812 L 1970.820312 1770.703125 " transform="matrix(0.1, 0, 0, -0.1, 0, 200)"/>
<path fill-rule="nonzero" fill="rgb(24.388123%, 34.49707%, 76.951599%)" fill-opacity="1" stroke-width="8.6" stroke-linecap="round" stroke-linejoin="round" stroke="rgb(0%, 0%, 0%)" stroke-opacity="1" stroke-miterlimit="10" d="M 2143.398438 1379.84375 L 2280.234375 1191.40625 L 1930.195312 614.414062 " transform="matrix(0.1, 0, 0, -0.1, 0, 200)"/>
<path fill-rule="nonzero" fill="rgb(34.104919%, 58.789062%, 93.554688%)" fill-opacity="1" stroke-width="8.6" stroke-linecap="round" stroke-linejoin="round" stroke="rgb(0%, 0%, 0%)" stroke-opacity="1" stroke-miterlimit="10" d="M 1187.773438 1952.96875 L 614.179688 1693.984375 L 307.578125 1358.828125 " transform="matrix(0.1, 0, 0, -0.1, 0, 200)"/>
<path fill-rule="nonzero" fill="rgb(15.209961%, 67.771912%, 87.5%)" fill-opacity="1" stroke-width="8.6" stroke-linecap="round" stroke-linejoin="round" stroke="rgb(0%, 0%, 0%)" stroke-opacity="1" stroke-miterlimit="10" d="M 838.515625 159.296875 L 432.304688 168.242188 L 977.539062 231.40625 " transform="matrix(0.1, 0, 0, -0.1, 0, 200)"/>
<path fill-rule="nonzero" fill="rgb(15.209961%, 67.771912%, 87.5%)" fill-opacity="1" stroke-width="8.6" stroke-linecap="round" stroke-linejoin="round" stroke="rgb(0%, 0%, 0%)" stroke-opacity="1" stroke-miterlimit="10" d="M 977.539062 231.40625 L 1393.515625 225.507812 L 838.515625 159.296875 " transform="matrix(0.1, 0, 0, -0.1, 0, 200)"/>
<path fill-rule="nonzero" fill="rgb(88.671875%, 96.875%, 64.646912%)" fill-opacity="1" stroke-width="8.6" stroke-linecap="round" stroke-linejoin="round" stroke="rgb(0%, 0%, 0%)" stroke-opacity="1" stroke-miterlimit="10" d="M 432.304688 168.242188 L 90.546875 725.273438 L 62.851562 939.53125 " transform="matrix(0.1, 0, 0, -0.1, 0, 200)"/>
<path fill-rule="nonzero" fill="rgb(0%, 8.494568%, 63.084412%)" fill-opacity="1" d="M 30.757812 64.117188 L 6.285156 106.046875 L 9.054688 127.472656 "/>
<path fill="none" stroke-width="8.6" stroke-linecap="round" stroke-linejoin="round" stroke="rgb(0%, 0%, 0%)" stroke-opacity="1" stroke-miterlimit="10" d="M 307.578125 1358.828125 L 62.851562 939.53125 L 90.546875 725.273438 Z M 307.578125 1358.828125 " transform="matrix(0.1, 0, 0, -0.1, 0, 200)"/>
<path fill-rule="nonzero" fill="rgb(55.076599%, 83.984375%, 99.804688%)" fill-opacity="1" stroke-width="8.6" stroke-linecap="round" stroke-linejoin="round" stroke="rgb(0%, 0%, 0%)" stroke-opacity="1" stroke-miterlimit="10" d="M 1970.820312 1770.703125 L 1847.265625 1933.007812 L 1187.773438 1952.96875 " transform="matrix(0.1, 0, 0, -0.1, 0, 200)"/>
<path fill-rule="nonzero" fill="rgb(55.076599%, 83.984375%, 99.804688%)" fill-opacity="1" stroke-width="8.6" stroke-linecap="round" stroke-linejoin="round" stroke="rgb(0%, 0%, 0%)" stroke-opacity="1" stroke-miterlimit="10" d="M 1187.773438 1952.96875 L 1276.71875 1790.390625 L 1970.820312 1770.703125 " transform="matrix(0.1, 0, 0, -0.1, 0, 200)"/>
<path fill-rule="nonzero" fill="rgb(34.104919%, 58.789062%, 93.554688%)" fill-opacity="1" stroke-width="8.6" stroke-linecap="round" stroke-linejoin="round" stroke="rgb(0%, 0%, 0%)" stroke-opacity="1" stroke-miterlimit="10" d="M 709.296875 1404.0625 L 1276.71875 1790.390625 L 1187.773438 1952.96875 " transform="matrix(0.1, 0, 0, -0.1, 0, 200)"/>
<path fill-rule="nonzero" fill="rgb(34.104919%, 58.789062%, 93.554688%)" fill-opacity="1" d="M 30.757812 64.117188 L 70.929688 59.59375 L 118.777344 4.703125 "/>
<path fill="none" stroke-width="8.6" stroke-linecap="round" stroke-linejoin="round" stroke="rgb(0%, 0%, 0%)" stroke-opacity="1" stroke-miterlimit="10" d="M 307.578125 1358.828125 L 709.296875 1404.0625 " transform="matrix(0.1, 0, 0, -0.1, 0, 200)"/>
<path fill-rule="nonzero" fill="rgb(75.389099%, 23.608398%, 0%)" fill-opacity="1" stroke-width="8.6" stroke-linecap="round" stroke-linejoin="round" stroke="rgb(0%, 0%, 0%)" stroke-opacity="1" stroke-miterlimit="10" d="M 1393.515625 225.507812 L 1930.195312 614.414062 L 2031.523438 818.945312 " transform="matrix(0.1, 0, 0, -0.1, 0, 200)"/>
<path fill-rule="nonzero" fill="rgb(69.334412%, 26.708984%, 0%)" fill-opacity="1" d="M 193.019531 138.558594 L 228.023438 80.859375 L 203.152344 118.105469 "/>
<path fill="none" stroke-width="8.6" stroke-linecap="round" stroke-linejoin="round" stroke="rgb(0%, 0%, 0%)" stroke-opacity="1" stroke-miterlimit="10" d="M 1930.195312 614.414062 L 2280.234375 1191.40625 L 2031.523438 818.945312 Z M 1930.195312 614.414062 " transform="matrix(0.1, 0, 0, -0.1, 0, 200)"/>
<path fill-rule="nonzero" fill="rgb(44.897461%, 21.604919%, 46.801758%)" fill-opacity="1" stroke-width="8.6" stroke-linecap="round" stroke-linejoin="round" stroke="rgb(0%, 0%, 0%)" stroke-opacity="1" stroke-miterlimit="10" d="M 90.546875 725.273438 L 432.304688 168.242188 L 838.515625 159.296875 " transform="matrix(0.1, 0, 0, -0.1, 0, 200)"/>
<path fill-rule="nonzero" fill="rgb(44.189453%, 45.896912%, 78.125%)" fill-opacity="1" stroke-width="8.6" stroke-linecap="round" stroke-linejoin="round" stroke="rgb(0%, 0%, 0%)" stroke-opacity="1" stroke-miterlimit="10" d="M 709.296875 1404.0625 L 307.578125 1358.828125 L 90.546875 725.273438 " transform="matrix(0.1, 0, 0, -0.1, 0, 200)"/>
<path fill-rule="nonzero" fill="rgb(89.256287%, 77.929688%, 72.851562%)" fill-opacity="1" stroke-width="8.6" stroke-linecap="round" stroke-linejoin="round" stroke="rgb(0%, 0%, 0%)" stroke-opacity="1" stroke-miterlimit="10" d="M 1703.632812 1416.5625 L 2031.523438 818.945312 L 2280.234375 1191.40625 " transform="matrix(0.1, 0, 0, -0.1, 0, 200)"/>
<path fill-rule="nonzero" fill="rgb(89.256287%, 77.929688%, 72.851562%)" fill-opacity="1" stroke-width="8.6" stroke-linecap="round" stroke-linejoin="round" stroke="rgb(0%, 0%, 0%)" stroke-opacity="1" stroke-miterlimit="10" d="M 2280.234375 1191.40625 L 1970.820312 1770.703125 L 1703.632812 1416.5625 " transform="matrix(0.1, 0, 0, -0.1, 0, 200)"/>
<path fill-rule="nonzero" fill="rgb(65.039062%, 14.404297%, 2.89917%)" fill-opacity="1" d="M 139.351562 177.449219 L 146.648438 158.851562 L 83.851562 184.070312 "/>
<path fill="none" stroke-width="8.6" stroke-linecap="round" stroke-linejoin="round" stroke="rgb(0%, 0%, 0%)" stroke-opacity="1" stroke-miterlimit="10" d="M 1393.515625 225.507812 L 1466.484375 411.484375 L 838.515625 159.296875 Z M 1393.515625 225.507812 " transform="matrix(0.1, 0, 0, -0.1, 0, 200)"/>
<path fill-rule="nonzero" fill="rgb(75.389099%, 23.608398%, 0%)" fill-opacity="1" stroke-width="8.6" stroke-linecap="round" stroke-linejoin="round" stroke="rgb(0%, 0%, 0%)" stroke-opacity="1" stroke-miterlimit="10" d="M 2031.523438 818.945312 L 1466.484375 411.484375 L 1393.515625 225.507812 " transform="matrix(0.1, 0, 0, -0.1, 0, 200)"/>
<path fill-rule="nonzero" fill="rgb(44.897461%, 21.604919%, 46.801758%)" fill-opacity="1" stroke-width="8.6" stroke-linecap="round" stroke-linejoin="round" stroke="rgb(0%, 0%, 0%)" stroke-opacity="1" stroke-miterlimit="10" d="M 838.515625 159.296875 L 488.789062 741.914062 L 90.546875 725.273438 " transform="matrix(0.1, 0, 0, -0.1, 0, 200)"/>
<path fill-rule="nonzero" fill="rgb(44.189453%, 45.896912%, 78.125%)" fill-opacity="1" stroke-width="8.6" stroke-linecap="round" stroke-linejoin="round" stroke="rgb(0%, 0%, 0%)" stroke-opacity="1" stroke-miterlimit="10" d="M 90.546875 725.273438 L 488.789062 741.914062 L 709.296875 1404.0625 " transform="matrix(0.1, 0, 0, -0.1, 0, 200)"/>
<path fill-rule="nonzero" fill="rgb(70.117188%, 74.609375%, 88.671875%)" fill-opacity="1" d="M 127.671875 20.960938 L 170.363281 58.34375 L 197.082031 22.929688 "/>
<path fill="none" stroke-width="8.6" stroke-linecap="round" stroke-linejoin="round" stroke="rgb(0%, 0%, 0%)" stroke-opacity="1" stroke-miterlimit="10" d="M 1276.71875 1790.390625 L 1703.632812 1416.5625 L 1970.820312 1770.703125 Z M 1276.71875 1790.390625 " transform="matrix(0.1, 0, 0, -0.1, 0, 200)"/>
<path fill-rule="nonzero" fill="rgb(65.039062%, 64.451599%, 83.006287%)" fill-opacity="1" stroke-width="8.6" stroke-linecap="round" stroke-linejoin="round" stroke="rgb(0%, 0%, 0%)" stroke-opacity="1" stroke-miterlimit="10" d="M 1122.304688 1010.429688 L 1703.632812 1416.5625 L 1276.71875 1790.390625 " transform="matrix(0.1, 0, 0, -0.1, 0, 200)"/>
<path fill-rule="nonzero" fill="rgb(65.039062%, 64.451599%, 83.006287%)" fill-opacity="1" stroke-width="8.6" stroke-linecap="round" stroke-linejoin="round" stroke="rgb(0%, 0%, 0%)" stroke-opacity="1" stroke-miterlimit="10" d="M 1276.71875 1790.390625 L 709.296875 1404.0625 L 1122.304688 1010.429688 " transform="matrix(0.1, 0, 0, -0.1, 0, 200)"/>
<path fill-rule="nonzero" fill="rgb(67.381287%, 48.193359%, 61.914062%)" fill-opacity="1" stroke-width="8.6" stroke-linecap="round" stroke-linejoin="round" stroke="rgb(0%, 0%, 0%)" stroke-opacity="1" stroke-miterlimit="10" d="M 488.789062 741.914062 L 838.515625 159.296875 L 1466.484375 411.484375 " transform="matrix(0.1, 0, 0, -0.1, 0, 200)"/>
<path fill-rule="nonzero" fill="rgb(59.959412%, 55.46875%, 77.734375%)" fill-opacity="1" d="M 70.929688 59.59375 L 48.878906 125.808594 L 112.230469 98.957031 "/>
<path fill="none" stroke-width="8.6" stroke-linecap="round" stroke-linejoin="round" stroke="rgb(0%, 0%, 0%)" stroke-opacity="1" stroke-miterlimit="10" d="M 709.296875 1404.0625 L 488.789062 741.914062 L 1122.304688 1010.429688 Z M 709.296875 1404.0625 " transform="matrix(0.1, 0, 0, -0.1, 0, 200)"/>
<path fill-rule="nonzero" fill="rgb(77.539062%, 61.326599%, 67.771912%)" fill-opacity="1" stroke-width="8.6" stroke-linecap="round" stroke-linejoin="round" stroke="rgb(0%, 0%, 0%)" stroke-opacity="1" stroke-miterlimit="10" d="M 1122.304688 1010.429688 L 1466.484375 411.484375 L 2031.523438 818.945312 " transform="matrix(0.1, 0, 0, -0.1, 0, 200)"/>
<path fill-rule="nonzero" fill="rgb(77.539062%, 61.326599%, 67.771912%)" fill-opacity="1" stroke-width="8.6" stroke-linecap="round" stroke-linejoin="round" stroke="rgb(0%, 0%, 0%)" stroke-opacity="1" stroke-miterlimit="10" d="M 2031.523438 818.945312 L 1703.632812 1416.5625 L 1122.304688 1010.429688 " transform="matrix(0.1, 0, 0, -0.1, 0, 200)"/>
<path fill-rule="nonzero" fill="rgb(67.381287%, 48.193359%, 61.914062%)" fill-opacity="1" stroke-width="8.6" stroke-linecap="round" stroke-linejoin="round" stroke="rgb(0%, 0%, 0%)" stroke-opacity="1" stroke-miterlimit="10" d="M 1466.484375 411.484375 L 1122.304688 1010.429688 L 488.789062 741.914062 " transform="matrix(0.1, 0, 0, -0.1, 0, 200)"/>
</svg>
