<?xml version="1.0" encoding="UTF-8"?>
<svg xmlns="http://www.w3.org/2000/svg" xmlns:xlink="http://www.w3.org/1999/xlink" width="210" height="200" viewBox="0 0 210 200">
<path fill-rule="nonzero" fill="rgb(70.701599%, 56.443787%, 69.139099%)" fill-opacity="1" stroke-width="7.36" stroke-linecap="round" stroke-linejoin="round" stroke="rgb(0%, 0%, 0%)" stroke-opacity="1" stroke-miterlimit="10" d="M 1095.273438 1383.59375 L 1517.1875 1144.648438 L 1277.421875 725.664062 " transform="matrix(0.1, 0, 0, -0.1, 0, 200)"/>
<path fill-rule="nonzero" fill="rgb(70.701599%, 56.443787%, 69.139099%)" fill-opacity="1" stroke-width="7.36" stroke-linecap="round" stroke-linejoin="round" stroke="rgb(0%, 0%, 0%)" stroke-opacity="1" stroke-miterlimit="10" d="M 1277.421875 725.664062 L 857.03125 961.953125 L 1095.273438 1383.59375 " transform="matrix(0.1, 0, 0, -0.1, 0, 200)"/>
<path fill-rule="nonzero" fill="rgb(76.171875%, 70.3125%, 79.6875%)" fill-opacity="1" stroke-width="7.36" stroke-linecap="round" stroke-linejoin="round" stroke="rgb(0%, 0%, 0%)" stroke-opacity="1" stroke-miterlimit="10" d="M 857.03125 961.953125 L 1277.421875 725.664062 L 1086.679688 336.523438 " transform="matrix(0.1, 0, 0, -0.1, 0, 200)"/>
<path fill-rule="nonzero" fill="rgb(50.193787%, 57.421875%, 85.9375%)" fill-opacity="1" d="M 152.753906 146.269531 L 108.667969 166.347656 L 127.742188 127.433594 "/>
<path fill="none" stroke-width="7.36" stroke-linecap="round" stroke-linejoin="round" stroke="rgb(0%, 0%, 0%)" stroke-opacity="1" stroke-miterlimit="10" d="M 1527.539062 537.304688 L 1086.679688 336.523438 L 1277.421875 725.664062 Z M 1527.539062 537.304688 " transform="matrix(0.1, 0, 0, -0.1, 0, 200)"/>
<path fill-rule="nonzero" fill="rgb(43.701172%, 44.897461%, 77.34375%)" fill-opacity="1" stroke-width="7.36" stroke-linecap="round" stroke-linejoin="round" stroke="rgb(0%, 0%, 0%)" stroke-opacity="1" stroke-miterlimit="10" d="M 1277.421875 725.664062 L 1517.1875 1144.648438 L 1784.84375 983.242188 " transform="matrix(0.1, 0, 0, -0.1, 0, 200)"/>
<path fill-rule="nonzero" fill="rgb(43.701172%, 44.897461%, 77.34375%)" fill-opacity="1" stroke-width="7.36" stroke-linecap="round" stroke-linejoin="round" stroke="rgb(0%, 0%, 0%)" stroke-opacity="1" stroke-miterlimit="10" d="M 1784.84375 983.242188 L 1527.539062 537.304688 L 1277.421875 725.664062 " transform="matrix(0.1, 0, 0, -0.1, 0, 200)"/>
<path fill-rule="nonzero" fill="rgb(76.171875%, 70.3125%, 79.6875%)" fill-opacity="1" stroke-width="7.36" stroke-linecap="round" stroke-linejoin="round" stroke="rgb(0%, 0%, 0%)" stroke-opacity="1" stroke-miterlimit="10" d="M 1086.679688 336.523438 L 648.125 581.367188 L 857.03125 961.953125 " transform="matrix(0.1, 0, 0, -0.1, 0, 200)"/>
<path fill-rule="nonzero" fill="rgb(84.959412%, 72.851562%, 73.046875%)" fill-opacity="1" d="M 85.703125 103.804688 L 64.8125 141.863281 L 22.007812 72.824219 "/>
<path fill="none" stroke-width="7.36" stroke-linecap="round" stroke-linejoin="round" stroke="rgb(0%, 0%, 0%)" stroke-opacity="1" stroke-miterlimit="10" d="M 857.03125 961.953125 L 648.125 581.367188 " transform="matrix(0.1, 0, 0, -0.1, 0, 200)"/>
<path fill-rule="nonzero" fill="rgb(84.959412%, 72.851562%, 73.046875%)" fill-opacity="1" stroke-width="7.36" stroke-linecap="round" stroke-linejoin="round" stroke="rgb(0%, 0%, 0%)" stroke-opacity="1" stroke-miterlimit="10" d="M 220.078125 1271.757812 L 609.960938 1373.359375 L 857.03125 961.953125 " transform="matrix(0.1, 0, 0, -0.1, 0, 200)"/>
<path fill-rule="nonzero" fill="rgb(73.826599%, 57.421875%, 67.1875%)" fill-opacity="1" d="M 60.996094 62.664062 L 109.527344 61.640625 L 85.703125 103.804688 "/>
<path fill="none" stroke-width="7.36" stroke-linecap="round" stroke-linejoin="round" stroke="rgb(0%, 0%, 0%)" stroke-opacity="1" stroke-miterlimit="10" d="M 609.960938 1373.359375 L 1095.273438 1383.59375 L 857.03125 961.953125 Z M 609.960938 1373.359375 " transform="matrix(0.1, 0, 0, -0.1, 0, 200)"/>
<path fill-rule="nonzero" fill="rgb(62.109375%, 39.404297%, 55.076599%)" fill-opacity="1" stroke-width="7.36" stroke-linecap="round" stroke-linejoin="round" stroke="rgb(0%, 0%, 0%)" stroke-opacity="1" stroke-miterlimit="10" d="M 1300.976562 1736.40625 L 1743.90625 1484.0625 L 1517.1875 1144.648438 " transform="matrix(0.1, 0, 0, -0.1, 0, 200)"/>
<path fill-rule="nonzero" fill="rgb(62.109375%, 39.404297%, 55.076599%)" fill-opacity="1" stroke-width="7.36" stroke-linecap="round" stroke-linejoin="round" stroke="rgb(0%, 0%, 0%)" stroke-opacity="1" stroke-miterlimit="10" d="M 1517.1875 1144.648438 L 1095.273438 1383.59375 L 1300.976562 1736.40625 " transform="matrix(0.1, 0, 0, -0.1, 0, 200)"/>
<path fill-rule="nonzero" fill="rgb(37.010193%, 31.297302%, 66.209412%)" fill-opacity="1" d="M 178.484375 101.675781 L 151.71875 85.535156 L 174.390625 51.59375 "/>
<path fill="none" stroke-width="7.36" stroke-linecap="round" stroke-linejoin="round" stroke="rgb(0%, 0%, 0%)" stroke-opacity="1" stroke-miterlimit="10" d="M 1784.84375 983.242188 L 1517.1875 1144.648438 L 1743.90625 1484.0625 Z M 1784.84375 983.242188 " transform="matrix(0.1, 0, 0, -0.1, 0, 200)"/>
<path fill-rule="nonzero" fill="rgb(71.484375%, 42.210388%, 48.193359%)" fill-opacity="1" stroke-width="7.36" stroke-linecap="round" stroke-linejoin="round" stroke="rgb(0%, 0%, 0%)" stroke-opacity="1" stroke-miterlimit="10" d="M 1095.273438 1383.59375 L 609.960938 1373.359375 L 472.304688 1726.445312 " transform="matrix(0.1, 0, 0, -0.1, 0, 200)"/>
<path fill-rule="nonzero" fill="rgb(71.484375%, 42.210388%, 48.193359%)" fill-opacity="1" d="M 130.097656 26.359375 L 109.527344 61.640625 L 47.230469 27.355469 "/>
<path fill="none" stroke-width="7.36" stroke-linecap="round" stroke-linejoin="round" stroke="rgb(0%, 0%, 0%)" stroke-opacity="1" stroke-miterlimit="10" d="M 1300.976562 1736.40625 L 1095.273438 1383.59375 " transform="matrix(0.1, 0, 0, -0.1, 0, 200)"/>
<path fill-rule="nonzero" fill="rgb(86.71875%, 60.351562%, 53.709412%)" fill-opacity="1" d="M 47.230469 27.355469 L 60.996094 62.664062 L 22.007812 72.824219 "/>
<path fill="none" stroke-width="7.36" stroke-linecap="round" stroke-linejoin="round" stroke="rgb(0%, 0%, 0%)" stroke-opacity="1" stroke-miterlimit="10" d="M 472.304688 1726.445312 L 609.960938 1373.359375 L 220.078125 1271.757812 Z M 472.304688 1726.445312 " transform="matrix(0.1, 0, 0, -0.1, 0, 200)"/>
<path fill-rule="nonzero" fill="rgb(79.101562%, 89.451599%, 91.796875%)" fill-opacity="1" stroke-width="7.36" stroke-linecap="round" stroke-linejoin="round" stroke="rgb(0%, 0%, 0%)" stroke-opacity="1" stroke-miterlimit="10" d="M 648.125 581.367188 L 1086.679688 336.523438 L 1006.757812 94.921875 " transform="matrix(0.1, 0, 0, -0.1, 0, 200)"/>
<path fill-rule="nonzero" fill="rgb(30.200195%, 57.03125%, 93.359375%)" fill-opacity="1" stroke-width="7.36" stroke-linecap="round" stroke-linejoin="round" stroke="rgb(0%, 0%, 0%)" stroke-opacity="1" stroke-miterlimit="10" d="M 1006.757812 94.921875 L 1086.679688 336.523438 L 1527.539062 537.304688 " transform="matrix(0.1, 0, 0, -0.1, 0, 200)"/>
<path fill-rule="nonzero" fill="rgb(79.101562%, 89.451599%, 91.796875%)" fill-opacity="1" stroke-width="7.36" stroke-linecap="round" stroke-linejoin="round" stroke="rgb(0%, 0%, 0%)" stroke-opacity="1" stroke-miterlimit="10" d="M 1006.757812 94.921875 L 533.28125 358.242188 L 648.125 581.367188 " transform="matrix(0.1, 0, 0, -0.1, 0, 200)"/>
<path fill-rule="nonzero" fill="rgb(84.959412%, 91.40625%, 87.693787%)" fill-opacity="1" d="M 23.886719 124.191406 L 64.8125 141.863281 L 53.328125 164.175781 "/>
<path fill="none" stroke-width="7.36" stroke-linecap="round" stroke-linejoin="round" stroke="rgb(0%, 0%, 0%)" stroke-opacity="1" stroke-miterlimit="10" d="M 238.867188 758.085938 L 648.125 581.367188 L 533.28125 358.242188 Z M 238.867188 758.085938 " transform="matrix(0.1, 0, 0, -0.1, 0, 200)"/>
<path fill-rule="nonzero" fill="rgb(84.959412%, 72.851562%, 73.046875%)" fill-opacity="1" stroke-width="7.36" stroke-linecap="round" stroke-linejoin="round" stroke="rgb(0%, 0%, 0%)" stroke-opacity="1" stroke-miterlimit="10" d="M 648.125 581.367188 L 238.867188 758.085938 L 220.078125 1271.757812 " transform="matrix(0.1, 0, 0, -0.1, 0, 200)"/>
<path fill-rule="nonzero" fill="rgb(33.789062%, 0%, 16.308594%)" fill-opacity="1" stroke-width="7.36" stroke-linecap="round" stroke-linejoin="round" stroke="rgb(0%, 0%, 0%)" stroke-opacity="1" stroke-miterlimit="10" d="M 1405.976562 1901.875 L 1885.742188 1627.695312 L 1743.90625 1484.0625 " transform="matrix(0.1, 0, 0, -0.1, 0, 200)"/>
<path fill-rule="nonzero" fill="rgb(33.789062%, 0%, 16.308594%)" fill-opacity="1" stroke-width="7.36" stroke-linecap="round" stroke-linejoin="round" stroke="rgb(0%, 0%, 0%)" stroke-opacity="1" stroke-miterlimit="10" d="M 1743.90625 1484.0625 L 1300.976562 1736.40625 L 1405.976562 1901.875 " transform="matrix(0.1, 0, 0, -0.1, 0, 200)"/>
<path fill-rule="nonzero" fill="rgb(0%, 0%, 46.801758%)" fill-opacity="1" stroke-width="7.36" stroke-linecap="round" stroke-linejoin="round" stroke="rgb(0%, 0%, 0%)" stroke-opacity="1" stroke-miterlimit="10" d="M 1743.90625 1484.0625 L 1885.742188 1627.695312 L 1932.5 1086.445312 " transform="matrix(0.1, 0, 0, -0.1, 0, 200)"/>
<path fill-rule="nonzero" fill="rgb(0%, 0%, 46.801758%)" fill-opacity="1" stroke-width="7.36" stroke-linecap="round" stroke-linejoin="round" stroke="rgb(0%, 0%, 0%)" stroke-opacity="1" stroke-miterlimit="10" d="M 1932.5 1086.445312 L 1784.84375 983.242188 L 1743.90625 1484.0625 " transform="matrix(0.1, 0, 0, -0.1, 0, 200)"/>
<path fill-rule="nonzero" fill="rgb(40.696716%, 0%, 11.401367%)" fill-opacity="1" d="M 91.597656 2.980469 L 140.597656 9.8125 L 130.097656 26.359375 "/>
<path fill="none" stroke-width="7.36" stroke-linecap="round" stroke-linejoin="round" stroke="rgb(0%, 0%, 0%)" stroke-opacity="1" stroke-miterlimit="10" d="M 915.976562 1970.195312 L 1405.976562 1901.875 L 1300.976562 1736.40625 Z M 915.976562 1970.195312 " transform="matrix(0.1, 0, 0, -0.1, 0, 200)"/>
<path fill-rule="nonzero" fill="rgb(71.484375%, 42.210388%, 48.193359%)" fill-opacity="1" stroke-width="7.36" stroke-linecap="round" stroke-linejoin="round" stroke="rgb(0%, 0%, 0%)" stroke-opacity="1" stroke-miterlimit="10" d="M 472.304688 1726.445312 L 915.976562 1970.195312 L 1300.976562 1736.40625 " transform="matrix(0.1, 0, 0, -0.1, 0, 200)"/>
<path fill-rule="nonzero" fill="rgb(30.200195%, 57.03125%, 93.359375%)" fill-opacity="1" stroke-width="7.36" stroke-linecap="round" stroke-linejoin="round" stroke="rgb(0%, 0%, 0%)" stroke-opacity="1" stroke-miterlimit="10" d="M 1527.539062 537.304688 L 1481.09375 305.585938 L 1006.757812 94.921875 " transform="matrix(0.1, 0, 0, -0.1, 0, 200)"/>
<path fill-rule="nonzero" fill="rgb(0%, 5.39856%, 62.109375%)" fill-opacity="1" stroke-width="7.36" stroke-linecap="round" stroke-linejoin="round" stroke="rgb(0%, 0%, 0%)" stroke-opacity="1" stroke-miterlimit="10" d="M 1740.78125 647.8125 L 1481.09375 305.585938 L 1527.539062 537.304688 " transform="matrix(0.1, 0, 0, -0.1, 0, 200)"/>
<path fill-rule="nonzero" fill="rgb(0%, 5.39856%, 62.109375%)" fill-opacity="1" d="M 193.25 91.355469 L 174.078125 135.21875 L 152.753906 146.269531 "/>
<path fill="none" stroke-width="7.36" stroke-linecap="round" stroke-linejoin="round" stroke="rgb(0%, 0%, 0%)" stroke-opacity="1" stroke-miterlimit="10" d="M 1932.5 1086.445312 L 1740.78125 647.8125 " transform="matrix(0.1, 0, 0, -0.1, 0, 200)"/>
<path fill-rule="nonzero" fill="rgb(0%, 5.39856%, 62.109375%)" fill-opacity="1" stroke-width="7.36" stroke-linecap="round" stroke-linejoin="round" stroke="rgb(0%, 0%, 0%)" stroke-opacity="1" stroke-miterlimit="10" d="M 1527.539062 537.304688 L 1784.84375 983.242188 L 1932.5 1086.445312 " transform="matrix(0.1, 0, 0, -0.1, 0, 200)"/>
<path fill-rule="nonzero" fill="rgb(99.609375%, 85.15625%, 57.03125%)" fill-opacity="1" d="M 22.007812 72.824219 L 23.886719 124.191406 L 6.648438 90.253906 "/>
<path fill="none" stroke-width="7.36" stroke-linecap="round" stroke-linejoin="round" stroke="rgb(0%, 0%, 0%)" stroke-opacity="1" stroke-miterlimit="10" d="M 220.078125 1271.757812 L 238.867188 758.085938 L 66.484375 1097.460938 Z M 220.078125 1271.757812 " transform="matrix(0.1, 0, 0, -0.1, 0, 200)"/>
<path fill-rule="nonzero" fill="rgb(79.881287%, 38.206482%, 0%)" fill-opacity="1" stroke-width="7.36" stroke-linecap="round" stroke-linejoin="round" stroke="rgb(0%, 0%, 0%)" stroke-opacity="1" stroke-miterlimit="10" d="M 472.304688 1726.445312 L 220.078125 1271.757812 L 66.484375 1097.460938 " transform="matrix(0.1, 0, 0, -0.1, 0, 200)"/>
<path fill-rule="nonzero" fill="rgb(67.771912%, 15.209961%, 0%)" fill-opacity="1" d="M 50.824219 10.511719 L 91.597656 2.980469 L 47.230469 27.355469 "/>
<path fill="none" stroke-width="7.36" stroke-linecap="round" stroke-linejoin="round" stroke="rgb(0%, 0%, 0%)" stroke-opacity="1" stroke-miterlimit="10" d="M 508.242188 1894.882812 L 915.976562 1970.195312 L 472.304688 1726.445312 Z M 508.242188 1894.882812 " transform="matrix(0.1, 0, 0, -0.1, 0, 200)"/>
<path fill-rule="nonzero" fill="rgb(79.881287%, 38.206482%, 0%)" fill-opacity="1" stroke-width="7.36" stroke-linecap="round" stroke-linejoin="round" stroke="rgb(0%, 0%, 0%)" stroke-opacity="1" stroke-miterlimit="10" d="M 244.179688 1491.09375 L 508.242188 1894.882812 L 472.304688 1726.445312 " transform="matrix(0.1, 0, 0, -0.1, 0, 200)"/>
<path fill-rule="nonzero" fill="rgb(79.881287%, 38.206482%, 0%)" fill-opacity="1" d="M 6.648438 90.253906 L 24.417969 50.890625 L 47.230469 27.355469 "/>
<path fill="none" stroke-width="7.36" stroke-linecap="round" stroke-linejoin="round" stroke="rgb(0%, 0%, 0%)" stroke-opacity="1" stroke-miterlimit="10" d="M 66.484375 1097.460938 L 244.179688 1491.09375 " transform="matrix(0.1, 0, 0, -0.1, 0, 200)"/>
<path fill-rule="nonzero" fill="rgb(0%, 0%, 0%)" fill-opacity="1" stroke-width="7.36" stroke-linecap="round" stroke-linejoin="round" stroke="rgb(0%, 0%, 0%)" stroke-opacity="1" stroke-miterlimit="10" d="M 66.484375 1097.460938 L 238.867188 758.085938 L 533.28125 358.242188 " transform="matrix(0.1, 0, 0, -0.1, 0, 200)"/>
<path fill-rule="nonzero" fill="rgb(44.50531%, 82.226562%, 99.021912%)" fill-opacity="1" stroke-width="7.36" stroke-linecap="round" stroke-linejoin="round" stroke="rgb(0%, 0%, 0%)" stroke-opacity="1" stroke-miterlimit="10" d="M 1405.976562 1901.875 L 915.976562 1970.195312 L 508.242188 1894.882812 " transform="matrix(0.1, 0, 0, -0.1, 0, 200)"/>
<path fill-rule="nonzero" fill="rgb(0%, 31.809998%, 67.96875%)" fill-opacity="1" d="M 148.109375 169.441406 L 109.210938 187.628906 L 100.675781 190.507812 "/>
<path fill="none" stroke-width="7.36" stroke-linecap="round" stroke-linejoin="round" stroke="rgb(0%, 0%, 0%)" stroke-opacity="1" stroke-miterlimit="10" d="M 1481.09375 305.585938 L 1092.109375 123.710938 L 1006.757812 94.921875 Z M 1481.09375 305.585938 " transform="matrix(0.1, 0, 0, -0.1, 0, 200)"/>
<path fill-rule="nonzero" fill="rgb(0%, 0%, 0%)" fill-opacity="1" stroke-width="7.36" stroke-linecap="round" stroke-linejoin="round" stroke="rgb(0%, 0%, 0%)" stroke-opacity="1" stroke-miterlimit="10" d="M 533.28125 358.242188 L 1006.757812 94.921875 L 1092.109375 123.710938 " transform="matrix(0.1, 0, 0, -0.1, 0, 200)"/>
<path fill-rule="nonzero" fill="rgb(0%, 0%, 0%)" fill-opacity="1" stroke-width="7.36" stroke-linecap="round" stroke-linejoin="round" stroke="rgb(0%, 0%, 0%)" stroke-opacity="1" stroke-miterlimit="10" d="M 1092.109375 123.710938 L 576.328125 410.859375 L 533.28125 358.242188 " transform="matrix(0.1, 0, 0, -0.1, 0, 200)"/>
<path fill-rule="nonzero" fill="rgb(0%, 0%, 0%)" fill-opacity="1" d="M 53.328125 164.175781 L 57.632812 158.914062 L 6.648438 90.253906 "/>
<path fill="none" stroke-width="7.36" stroke-linecap="round" stroke-linejoin="round" stroke="rgb(0%, 0%, 0%)" stroke-opacity="1" stroke-miterlimit="10" d="M 533.28125 358.242188 L 576.328125 410.859375 " transform="matrix(0.1, 0, 0, -0.1, 0, 200)"/>
<path fill-rule="nonzero" fill="rgb(72.459412%, 97.65625%, 91.992188%)" fill-opacity="1" stroke-width="7.36" stroke-linecap="round" stroke-linejoin="round" stroke="rgb(0%, 0%, 0%)" stroke-opacity="1" stroke-miterlimit="10" d="M 1344.921875 1769.960938 L 1866.757812 1472.34375 L 1885.742188 1627.695312 " transform="matrix(0.1, 0, 0, -0.1, 0, 200)"/>
<path fill-rule="nonzero" fill="rgb(72.459412%, 97.65625%, 91.992188%)" fill-opacity="1" stroke-width="7.36" stroke-linecap="round" stroke-linejoin="round" stroke="rgb(0%, 0%, 0%)" stroke-opacity="1" stroke-miterlimit="10" d="M 1885.742188 1627.695312 L 1405.976562 1901.875 L 1344.921875 1769.960938 " transform="matrix(0.1, 0, 0, -0.1, 0, 200)"/>
<path fill-rule="nonzero" fill="rgb(82.421875%, 72.851562%, 20.188904%)" fill-opacity="1" d="M 193.25 91.355469 L 188.574219 37.230469 L 186.675781 52.765625 "/>
<path fill="none" stroke-width="7.36" stroke-linecap="round" stroke-linejoin="round" stroke="rgb(0%, 0%, 0%)" stroke-opacity="1" stroke-miterlimit="10" d="M 1932.5 1086.445312 L 1885.742188 1627.695312 L 1866.757812 1472.34375 Z M 1932.5 1086.445312 " transform="matrix(0.1, 0, 0, -0.1, 0, 200)"/>
<path fill-rule="nonzero" fill="rgb(44.50531%, 82.226562%, 99.021912%)" fill-opacity="1" d="M 134.492188 23.003906 L 140.597656 9.8125 L 50.824219 10.511719 "/>
<path fill="none" stroke-width="7.36" stroke-linecap="round" stroke-linejoin="round" stroke="rgb(0%, 0%, 0%)" stroke-opacity="1" stroke-miterlimit="10" d="M 1344.921875 1769.960938 L 1405.976562 1901.875 " transform="matrix(0.1, 0, 0, -0.1, 0, 200)"/>
<path fill-rule="nonzero" fill="rgb(79.6875%, 30.809021%, 3.297424%)" fill-opacity="1" stroke-width="7.36" stroke-linecap="round" stroke-linejoin="round" stroke="rgb(0%, 0%, 0%)" stroke-opacity="1" stroke-miterlimit="10" d="M 1344.375 476.992188 L 1092.109375 123.710938 L 1481.09375 305.585938 " transform="matrix(0.1, 0, 0, -0.1, 0, 200)"/>
<path fill-rule="nonzero" fill="rgb(79.6875%, 30.809021%, 3.297424%)" fill-opacity="1" stroke-width="7.36" stroke-linecap="round" stroke-linejoin="round" stroke="rgb(0%, 0%, 0%)" stroke-opacity="1" stroke-miterlimit="10" d="M 1481.09375 305.585938 L 1740.78125 647.8125 L 1344.375 476.992188 " transform="matrix(0.1, 0, 0, -0.1, 0, 200)"/>
<path fill-rule="nonzero" fill="rgb(99.021912%, 72.459412%, 39.697266%)" fill-opacity="1" stroke-width="7.36" stroke-linecap="round" stroke-linejoin="round" stroke="rgb(0%, 0%, 0%)" stroke-opacity="1" stroke-miterlimit="10" d="M 1740.78125 647.8125 L 1932.5 1086.445312 L 1866.757812 1472.34375 " transform="matrix(0.1, 0, 0, -0.1, 0, 200)"/>
<path fill-rule="nonzero" fill="rgb(12.889099%, 12.109375%, 58.006287%)" fill-opacity="1" d="M 6.648438 90.253906 L 26.617188 109.53125 L 24.417969 50.890625 "/>
<path fill="none" stroke-width="7.36" stroke-linecap="round" stroke-linejoin="round" stroke="rgb(0%, 0%, 0%)" stroke-opacity="1" stroke-miterlimit="10" d="M 66.484375 1097.460938 L 266.171875 904.6875 L 244.179688 1491.09375 Z M 66.484375 1097.460938 " transform="matrix(0.1, 0, 0, -0.1, 0, 200)"/>
<path fill-rule="nonzero" fill="rgb(0%, 0%, 0%)" fill-opacity="1" stroke-width="7.36" stroke-linecap="round" stroke-linejoin="round" stroke="rgb(0%, 0%, 0%)" stroke-opacity="1" stroke-miterlimit="10" d="M 576.328125 410.859375 L 266.171875 904.6875 L 66.484375 1097.460938 " transform="matrix(0.1, 0, 0, -0.1, 0, 200)"/>
<path fill-rule="nonzero" fill="rgb(44.50531%, 82.226562%, 99.021912%)" fill-opacity="1" stroke-width="7.36" stroke-linecap="round" stroke-linejoin="round" stroke="rgb(0%, 0%, 0%)" stroke-opacity="1" stroke-miterlimit="10" d="M 508.242188 1894.882812 L 745.15625 1763.203125 L 1344.921875 1769.960938 " transform="matrix(0.1, 0, 0, -0.1, 0, 200)"/>
<path fill-rule="nonzero" fill="rgb(35.205078%, 53.709412%, 89.646912%)" fill-opacity="1" d="M 24.417969 50.890625 L 74.515625 23.679688 L 50.824219 10.511719 "/>
<path fill="none" stroke-width="7.36" stroke-linecap="round" stroke-linejoin="round" stroke="rgb(0%, 0%, 0%)" stroke-opacity="1" stroke-miterlimit="10" d="M 244.179688 1491.09375 L 745.15625 1763.203125 L 508.242188 1894.882812 Z M 244.179688 1491.09375 " transform="matrix(0.1, 0, 0, -0.1, 0, 200)"/>
<path fill-rule="nonzero" fill="rgb(91.209412%, 58.789062%, 41.893005%)" fill-opacity="1" d="M 174.078125 135.21875 L 165.753906 97.84375 L 134.4375 152.300781 "/>
<path fill="none" stroke-width="7.36" stroke-linecap="round" stroke-linejoin="round" stroke="rgb(0%, 0%, 0%)" stroke-opacity="1" stroke-miterlimit="10" d="M 1740.78125 647.8125 L 1657.539062 1021.5625 L 1344.375 476.992188 Z M 1740.78125 647.8125 " transform="matrix(0.1, 0, 0, -0.1, 0, 200)"/>
<path fill-rule="nonzero" fill="rgb(99.021912%, 72.459412%, 39.697266%)" fill-opacity="1" stroke-width="7.36" stroke-linecap="round" stroke-linejoin="round" stroke="rgb(0%, 0%, 0%)" stroke-opacity="1" stroke-miterlimit="10" d="M 1866.757812 1472.34375 L 1657.539062 1021.5625 L 1740.78125 647.8125 " transform="matrix(0.1, 0, 0, -0.1, 0, 200)"/>
<path fill-rule="nonzero" fill="rgb(57.8125%, 31.591797%, 48.193359%)" fill-opacity="1" stroke-width="7.36" stroke-linecap="round" stroke-linejoin="round" stroke="rgb(0%, 0%, 0%)" stroke-opacity="1" stroke-miterlimit="10" d="M 576.328125 410.859375 L 1092.109375 123.710938 L 1344.375 476.992188 " transform="matrix(0.1, 0, 0, -0.1, 0, 200)"/>
<path fill-rule="nonzero" fill="rgb(57.8125%, 31.591797%, 48.193359%)" fill-opacity="1" stroke-width="7.36" stroke-linecap="round" stroke-linejoin="round" stroke="rgb(0%, 0%, 0%)" stroke-opacity="1" stroke-miterlimit="10" d="M 1344.375 476.992188 L 796.835938 783.90625 L 576.328125 410.859375 " transform="matrix(0.1, 0, 0, -0.1, 0, 200)"/>
<path fill-rule="nonzero" fill="rgb(52.34375%, 29.710388%, 51.367188%)" fill-opacity="1" d="M 26.617188 109.53125 L 57.632812 158.914062 L 79.683594 121.609375 "/>
<path fill="none" stroke-width="7.36" stroke-linecap="round" stroke-linejoin="round" stroke="rgb(0%, 0%, 0%)" stroke-opacity="1" stroke-miterlimit="10" d="M 266.171875 904.6875 L 576.328125 410.859375 L 796.835938 783.90625 Z M 266.171875 904.6875 " transform="matrix(0.1, 0, 0, -0.1, 0, 200)"/>
<path fill-rule="nonzero" fill="rgb(58.984375%, 51.367188%, 73.826599%)" fill-opacity="1" stroke-width="7.36" stroke-linecap="round" stroke-linejoin="round" stroke="rgb(0%, 0%, 0%)" stroke-opacity="1" stroke-miterlimit="10" d="M 1107.382812 1332.96875 L 745.15625 1763.203125 L 244.179688 1491.09375 " transform="matrix(0.1, 0, 0, -0.1, 0, 200)"/>
<path fill-rule="nonzero" fill="rgb(58.984375%, 51.367188%, 73.826599%)" fill-opacity="1" d="M 79.683594 121.609375 L 110.738281 66.703125 L 24.417969 50.890625 "/>
<path fill="none" stroke-width="7.36" stroke-linecap="round" stroke-linejoin="round" stroke="rgb(0%, 0%, 0%)" stroke-opacity="1" stroke-miterlimit="10" d="M 796.835938 783.90625 L 1107.382812 1332.96875 " transform="matrix(0.1, 0, 0, -0.1, 0, 200)"/>
<path fill-rule="nonzero" fill="rgb(58.984375%, 51.367188%, 73.826599%)" fill-opacity="1" stroke-width="7.36" stroke-linecap="round" stroke-linejoin="round" stroke="rgb(0%, 0%, 0%)" stroke-opacity="1" stroke-miterlimit="10" d="M 244.179688 1491.09375 L 266.171875 904.6875 L 796.835938 783.90625 " transform="matrix(0.1, 0, 0, -0.1, 0, 200)"/>
<path fill-rule="nonzero" fill="rgb(77.734375%, 74.414062%, 82.226562%)" fill-opacity="1" stroke-width="7.36" stroke-linecap="round" stroke-linejoin="round" stroke="rgb(0%, 0%, 0%)" stroke-opacity="1" stroke-miterlimit="10" d="M 1107.382812 1332.96875 L 1657.539062 1021.5625 L 1866.757812 1472.34375 " transform="matrix(0.1, 0, 0, -0.1, 0, 200)"/>
<path fill-rule="nonzero" fill="rgb(77.734375%, 74.414062%, 82.226562%)" fill-opacity="1" stroke-width="7.36" stroke-linecap="round" stroke-linejoin="round" stroke="rgb(0%, 0%, 0%)" stroke-opacity="1" stroke-miterlimit="10" d="M 1866.757812 1472.34375 L 1344.921875 1769.960938 L 1107.382812 1332.96875 " transform="matrix(0.1, 0, 0, -0.1, 0, 200)"/>
<path fill-rule="nonzero" fill="rgb(72.459412%, 72.459412%, 84.959412%)" fill-opacity="1" d="M 74.515625 23.679688 L 110.738281 66.703125 L 134.492188 23.003906 "/>
<path fill="none" stroke-width="7.36" stroke-linecap="round" stroke-linejoin="round" stroke="rgb(0%, 0%, 0%)" stroke-opacity="1" stroke-miterlimit="10" d="M 745.15625 1763.203125 L 1107.382812 1332.96875 L 1344.921875 1769.960938 Z M 745.15625 1763.203125 " transform="matrix(0.1, 0, 0, -0.1, 0, 200)"/>
<path fill-rule="nonzero" fill="rgb(70.701599%, 56.054688%, 68.554688%)" fill-opacity="1" stroke-width="7.36" stroke-linecap="round" stroke-linejoin="round" stroke="rgb(0%, 0%, 0%)" stroke-opacity="1" stroke-miterlimit="10" d="M 796.835938 783.90625 L 1344.375 476.992188 L 1657.539062 1021.5625 " transform="matrix(0.1, 0, 0, -0.1, 0, 200)"/>
<path fill-rule="nonzero" fill="rgb(70.701599%, 56.054688%, 68.554688%)" fill-opacity="1" stroke-width="7.36" stroke-linecap="round" stroke-linejoin="round" stroke="rgb(0%, 0%, 0%)" stroke-opacity="1" stroke-miterlimit="10" d="M 1657.539062 1021.5625 L 1107.382812 1332.96875 L 796.835938 783.90625 " transform="matrix(0.1, 0, 0, -0.1, 0, 200)"/>
</svg>
