<?xml version="1.0" encoding="UTF-8"?>
<svg xmlns="http://www.w3.org/2000/svg" xmlns:xlink="http://www.w3.org/1999/xlink" width="186" height="200" viewBox="0 0 186 200">
<path fill="none" stroke-width="7.42708" stroke-linecap="round" stroke-linejoin="round" stroke="rgb(0%, 0%, 0%)" stroke-opacity="1" stroke-miterlimit="10" d="M 841.5625 1360.546875 L 1003.125 1432.460938 L 984.648438 1608.320312 L 811.679688 1645.117188 L 723.242188 1491.953125 L 841.5625 1360.546875 " transform="matrix(0.1, 0, 0, -0.1, 0, 200)"/>
<path fill="none" stroke-width="7.42708" stroke-linecap="round" stroke-linejoin="round" stroke="rgb(0%, 0%, 0%)" stroke-opacity="1" stroke-miterlimit="10" d="M 841.5625 1360.546875 L 698.515625 1256.601562 L 753.164062 1088.4375 L 930 1088.4375 L 984.648438 1256.601562 L 841.5625 1360.546875 " transform="matrix(0.1, 0, 0, -0.1, 0, 200)"/>
<path fill="none" stroke-width="7.42708" stroke-linecap="round" stroke-linejoin="round" stroke="rgb(0%, 0%, 0%)" stroke-opacity="1" stroke-miterlimit="10" d="M 841.5625 1360.546875 L 984.648438 1256.601562 L 1003.125 1432.460938 L 841.5625 1360.546875 " transform="matrix(0.1, 0, 0, -0.1, 0, 200)"/>
<path fill="none" stroke-width="7.42708" stroke-linecap="round" stroke-linejoin="round" stroke="rgb(0%, 0%, 0%)" stroke-opacity="1" stroke-miterlimit="10" d="M 984.648438 1256.601562 L 930 1088.4375 L 1102.96875 1125.195312 L 984.648438 1256.601562 " transform="matrix(0.1, 0, 0, -0.1, 0, 200)"/>
<path fill="none" stroke-width="7.42708" stroke-linecap="round" stroke-linejoin="round" stroke="rgb(0%, 0%, 0%)" stroke-opacity="1" stroke-miterlimit="10" d="M 1003.125 1432.460938 L 1057.773438 1264.257812 L 1234.609375 1264.257812 L 1289.257812 1432.460938 L 1146.171875 1536.40625 L 1003.125 1432.460938 " transform="matrix(0.1, 0, 0, -0.1, 0, 200)"/>
<path fill="none" stroke-width="7.42708" stroke-linecap="round" stroke-linejoin="round" stroke="rgb(0%, 0%, 0%)" stroke-opacity="1" stroke-miterlimit="10" d="M 1003.125 1432.460938 L 1146.171875 1536.40625 L 984.648438 1608.320312 L 1003.125 1432.460938 " transform="matrix(0.1, 0, 0, -0.1, 0, 200)"/>
<path fill="none" stroke-width="7.42708" stroke-linecap="round" stroke-linejoin="round" stroke="rgb(0%, 0%, 0%)" stroke-opacity="1" stroke-miterlimit="10" d="M 1146.171875 1536.40625 L 1289.257812 1432.460938 L 1307.734375 1608.320312 L 1146.171875 1536.40625 " transform="matrix(0.1, 0, 0, -0.1, 0, 200)"/>
<path fill="none" stroke-width="7.42708" stroke-linecap="round" stroke-linejoin="round" stroke="rgb(0%, 0%, 0%)" stroke-opacity="1" stroke-miterlimit="10" d="M 984.648438 1608.320312 L 1161.484375 1608.320312 L 1216.132812 1776.484375 L 1073.046875 1880.429688 L 930 1776.484375 L 984.648438 1608.320312 " transform="matrix(0.1, 0, 0, -0.1, 0, 200)"/>
<path fill="none" stroke-width="7.42708" stroke-linecap="round" stroke-linejoin="round" stroke="rgb(0%, 0%, 0%)" stroke-opacity="1" stroke-miterlimit="10" d="M 984.648438 1608.320312 L 930 1776.484375 L 811.679688 1645.117188 L 984.648438 1608.320312 " transform="matrix(0.1, 0, 0, -0.1, 0, 200)"/>
<path fill="none" stroke-width="7.42708" stroke-linecap="round" stroke-linejoin="round" stroke="rgb(0%, 0%, 0%)" stroke-opacity="1" stroke-miterlimit="10" d="M 930 1776.484375 L 1073.046875 1880.429688 L 911.523438 1952.382812 L 930 1776.484375 " transform="matrix(0.1, 0, 0, -0.1, 0, 200)"/>
<path fill="none" stroke-width="7.42708" stroke-linecap="round" stroke-linejoin="round" stroke="rgb(0%, 0%, 0%)" stroke-opacity="1" stroke-miterlimit="10" d="M 811.679688 1645.117188 L 866.328125 1813.28125 L 723.242188 1917.226562 L 580.195312 1813.28125 L 634.84375 1645.117188 L 811.679688 1645.117188 " transform="matrix(0.1, 0, 0, -0.1, 0, 200)"/>
<path fill="none" stroke-width="7.42708" stroke-linecap="round" stroke-linejoin="round" stroke="rgb(0%, 0%, 0%)" stroke-opacity="1" stroke-miterlimit="10" d="M 811.679688 1645.117188 L 634.84375 1645.117188 L 723.242188 1491.953125 L 811.679688 1645.117188 " transform="matrix(0.1, 0, 0, -0.1, 0, 200)"/>
<path fill="none" stroke-width="7.42708" stroke-linecap="round" stroke-linejoin="round" stroke="rgb(0%, 0%, 0%)" stroke-opacity="1" stroke-miterlimit="10" d="M 634.84375 1645.117188 L 580.195312 1813.28125 L 461.875 1681.875 L 634.84375 1645.117188 " transform="matrix(0.1, 0, 0, -0.1, 0, 200)"/>
<path fill="none" stroke-width="7.42708" stroke-linecap="round" stroke-linejoin="round" stroke="rgb(0%, 0%, 0%)" stroke-opacity="1" stroke-miterlimit="10" d="M 723.242188 1491.953125 L 580.195312 1595.898438 L 437.148438 1491.953125 L 491.796875 1323.789062 L 668.59375 1323.789062 L 723.242188 1491.953125 " transform="matrix(0.1, 0, 0, -0.1, 0, 200)"/>
<path fill="none" stroke-width="7.42708" stroke-linecap="round" stroke-linejoin="round" stroke="rgb(0%, 0%, 0%)" stroke-opacity="1" stroke-miterlimit="10" d="M 723.242188 1491.953125 L 668.59375 1323.789062 L 841.5625 1360.546875 L 723.242188 1491.953125 " transform="matrix(0.1, 0, 0, -0.1, 0, 200)"/>
<path fill="none" stroke-width="7.42708" stroke-linecap="round" stroke-linejoin="round" stroke="rgb(0%, 0%, 0%)" stroke-opacity="1" stroke-miterlimit="10" d="M 668.59375 1323.789062 L 491.796875 1323.789062 L 580.195312 1170.625 L 668.59375 1323.789062 " transform="matrix(0.1, 0, 0, -0.1, 0, 200)"/>
<path fill="none" stroke-width="7.42708" stroke-linecap="round" stroke-linejoin="round" stroke="rgb(0%, 0%, 0%)" stroke-opacity="1" stroke-miterlimit="10" d="M 841.5625 639.453125 L 680.039062 567.539062 L 698.515625 391.679688 L 871.484375 354.882812 L 959.921875 508.046875 L 841.5625 639.453125 " transform="matrix(0.1, 0, 0, -0.1, 0, 200)"/>
<path fill="none" stroke-width="7.42708" stroke-linecap="round" stroke-linejoin="round" stroke="rgb(0%, 0%, 0%)" stroke-opacity="1" stroke-miterlimit="10" d="M 841.5625 639.453125 L 984.648438 743.398438 L 930 911.5625 L 753.164062 911.5625 L 698.515625 743.398438 L 841.5625 639.453125 " transform="matrix(0.1, 0, 0, -0.1, 0, 200)"/>
<path fill="none" stroke-width="7.42708" stroke-linecap="round" stroke-linejoin="round" stroke="rgb(0%, 0%, 0%)" stroke-opacity="1" stroke-miterlimit="10" d="M 841.5625 639.453125 L 698.515625 743.398438 L 680.039062 567.539062 L 841.5625 639.453125 " transform="matrix(0.1, 0, 0, -0.1, 0, 200)"/>
<path fill="none" stroke-width="7.42708" stroke-linecap="round" stroke-linejoin="round" stroke="rgb(0%, 0%, 0%)" stroke-opacity="1" stroke-miterlimit="10" d="M 698.515625 743.398438 L 753.164062 911.5625 L 580.195312 874.804688 L 698.515625 743.398438 " transform="matrix(0.1, 0, 0, -0.1, 0, 200)"/>
<path fill="none" stroke-width="7.42708" stroke-linecap="round" stroke-linejoin="round" stroke="rgb(0%, 0%, 0%)" stroke-opacity="1" stroke-miterlimit="10" d="M 680.039062 567.539062 L 625.390625 735.703125 L 448.554688 735.703125 L 393.90625 567.539062 L 536.992188 463.59375 L 680.039062 567.539062 " transform="matrix(0.1, 0, 0, -0.1, 0, 200)"/>
<path fill="none" stroke-width="7.42708" stroke-linecap="round" stroke-linejoin="round" stroke="rgb(0%, 0%, 0%)" stroke-opacity="1" stroke-miterlimit="10" d="M 680.039062 567.539062 L 536.992188 463.59375 L 698.515625 391.679688 L 680.039062 567.539062 " transform="matrix(0.1, 0, 0, -0.1, 0, 200)"/>
<path fill="none" stroke-width="7.42708" stroke-linecap="round" stroke-linejoin="round" stroke="rgb(0%, 0%, 0%)" stroke-opacity="1" stroke-miterlimit="10" d="M 536.992188 463.59375 L 393.90625 567.539062 L 375.429688 391.679688 L 536.992188 463.59375 " transform="matrix(0.1, 0, 0, -0.1, 0, 200)"/>
<path fill="none" stroke-width="7.42708" stroke-linecap="round" stroke-linejoin="round" stroke="rgb(0%, 0%, 0%)" stroke-opacity="1" stroke-miterlimit="10" d="M 698.515625 391.679688 L 521.679688 391.679688 L 467.03125 223.476562 L 610.117188 119.53125 L 753.164062 223.476562 L 698.515625 391.679688 " transform="matrix(0.1, 0, 0, -0.1, 0, 200)"/>
<path fill="none" stroke-width="7.42708" stroke-linecap="round" stroke-linejoin="round" stroke="rgb(0%, 0%, 0%)" stroke-opacity="1" stroke-miterlimit="10" d="M 698.515625 391.679688 L 753.164062 223.476562 L 871.484375 354.882812 L 698.515625 391.679688 " transform="matrix(0.1, 0, 0, -0.1, 0, 200)"/>
<path fill="none" stroke-width="7.42708" stroke-linecap="round" stroke-linejoin="round" stroke="rgb(0%, 0%, 0%)" stroke-opacity="1" stroke-miterlimit="10" d="M 753.164062 223.476562 L 610.117188 119.53125 L 771.640625 47.617188 L 753.164062 223.476562 " transform="matrix(0.1, 0, 0, -0.1, 0, 200)"/>
<path fill="none" stroke-width="7.42708" stroke-linecap="round" stroke-linejoin="round" stroke="rgb(0%, 0%, 0%)" stroke-opacity="1" stroke-miterlimit="10" d="M 871.484375 354.882812 L 816.835938 186.71875 L 959.921875 82.773438 L 1102.96875 186.71875 L 1048.320312 354.882812 L 871.484375 354.882812 " transform="matrix(0.1, 0, 0, -0.1, 0, 200)"/>
<path fill="none" stroke-width="7.42708" stroke-linecap="round" stroke-linejoin="round" stroke="rgb(0%, 0%, 0%)" stroke-opacity="1" stroke-miterlimit="10" d="M 871.484375 354.882812 L 1048.320312 354.882812 L 959.921875 508.046875 L 871.484375 354.882812 " transform="matrix(0.1, 0, 0, -0.1, 0, 200)"/>
<path fill="none" stroke-width="7.42708" stroke-linecap="round" stroke-linejoin="round" stroke="rgb(0%, 0%, 0%)" stroke-opacity="1" stroke-miterlimit="10" d="M 1048.320312 354.882812 L 1102.96875 186.71875 L 1221.289062 318.125 L 1048.320312 354.882812 " transform="matrix(0.1, 0, 0, -0.1, 0, 200)"/>
<path fill="none" stroke-width="7.42708" stroke-linecap="round" stroke-linejoin="round" stroke="rgb(0%, 0%, 0%)" stroke-opacity="1" stroke-miterlimit="10" d="M 959.921875 508.046875 L 1102.96875 404.101562 L 1246.054688 508.046875 L 1191.40625 676.210938 L 1014.570312 676.210938 L 959.921875 508.046875 " transform="matrix(0.1, 0, 0, -0.1, 0, 200)"/>
<path fill="none" stroke-width="7.42708" stroke-linecap="round" stroke-linejoin="round" stroke="rgb(0%, 0%, 0%)" stroke-opacity="1" stroke-miterlimit="10" d="M 959.921875 508.046875 L 1014.570312 676.210938 L 841.5625 639.453125 L 959.921875 508.046875 " transform="matrix(0.1, 0, 0, -0.1, 0, 200)"/>
<path fill="none" stroke-width="7.42708" stroke-linecap="round" stroke-linejoin="round" stroke="rgb(0%, 0%, 0%)" stroke-opacity="1" stroke-miterlimit="10" d="M 1014.570312 676.210938 L 1191.40625 676.210938 L 1102.96875 829.375 L 1014.570312 676.210938 " transform="matrix(0.1, 0, 0, -0.1, 0, 200)"/>
<path fill="none" stroke-width="7.42708" stroke-linecap="round" stroke-linejoin="round" stroke="rgb(0%, 0%, 0%)" stroke-opacity="1" stroke-miterlimit="10" d="M 45.820312 1088.4375 L 45.820312 911.5625 L 222.65625 911.5625 L 222.65625 1088.4375 L 45.820312 1088.4375 " transform="matrix(0.1, 0, 0, -0.1, 0, 200)"/>
<path fill="none" stroke-width="7.42708" stroke-linecap="round" stroke-linejoin="round" stroke="rgb(0%, 0%, 0%)" stroke-opacity="1" stroke-miterlimit="10" d="M 222.65625 1088.4375 L 222.65625 911.5625 L 399.492188 911.5625 L 399.492188 1088.4375 L 222.65625 1088.4375 " transform="matrix(0.1, 0, 0, -0.1, 0, 200)"/>
<path fill="none" stroke-width="7.42708" stroke-linecap="round" stroke-linejoin="round" stroke="rgb(0%, 0%, 0%)" stroke-opacity="1" stroke-miterlimit="10" d="M 399.492188 1088.4375 L 399.492188 911.5625 L 576.328125 911.5625 L 576.328125 1088.4375 L 399.492188 1088.4375 " transform="matrix(0.1, 0, 0, -0.1, 0, 200)"/>
<path fill="none" stroke-width="7.42708" stroke-linecap="round" stroke-linejoin="round" stroke="rgb(0%, 0%, 0%)" stroke-opacity="1" stroke-miterlimit="10" d="M 576.328125 1088.4375 L 576.328125 911.5625 L 753.164062 911.5625 L 753.164062 1088.4375 L 576.328125 1088.4375 " transform="matrix(0.1, 0, 0, -0.1, 0, 200)"/>
<path fill="none" stroke-width="7.42708" stroke-linecap="round" stroke-linejoin="round" stroke="rgb(0%, 0%, 0%)" stroke-opacity="1" stroke-miterlimit="10" d="M 753.164062 1088.4375 L 753.164062 911.5625 L 930 911.5625 L 930 1088.4375 L 753.164062 1088.4375 " transform="matrix(0.1, 0, 0, -0.1, 0, 200)"/>
<path fill="none" stroke-width="7.42708" stroke-linecap="round" stroke-linejoin="round" stroke="rgb(0%, 0%, 0%)" stroke-opacity="1" stroke-miterlimit="10" d="M 930 1088.4375 L 930 911.5625 L 1106.835938 911.5625 L 1106.835938 1088.4375 L 930 1088.4375 " transform="matrix(0.1, 0, 0, -0.1, 0, 200)"/>
<path fill="none" stroke-width="7.42708" stroke-linecap="round" stroke-linejoin="round" stroke="rgb(0%, 0%, 0%)" stroke-opacity="1" stroke-miterlimit="10" d="M 1106.835938 1088.4375 L 1106.835938 911.5625 L 1283.671875 911.5625 L 1283.671875 1088.4375 L 1106.835938 1088.4375 " transform="matrix(0.1, 0, 0, -0.1, 0, 200)"/>
<path fill="none" stroke-width="7.42708" stroke-linecap="round" stroke-linejoin="round" stroke="rgb(0%, 0%, 0%)" stroke-opacity="1" stroke-miterlimit="10" d="M 1283.671875 1088.4375 L 1283.671875 911.5625 L 1460.507812 911.5625 L 1460.507812 1088.4375 L 1283.671875 1088.4375 " transform="matrix(0.1, 0, 0, -0.1, 0, 200)"/>
<path fill="none" stroke-width="7.42708" stroke-linecap="round" stroke-linejoin="round" stroke="rgb(0%, 0%, 0%)" stroke-opacity="1" stroke-miterlimit="10" d="M 1460.507812 1088.4375 L 1460.507812 911.5625 L 1637.34375 911.5625 L 1637.34375 1088.4375 L 1460.507812 1088.4375 " transform="matrix(0.1, 0, 0, -0.1, 0, 200)"/>
<path fill="none" stroke-width="7.42708" stroke-linecap="round" stroke-linejoin="round" stroke="rgb(0%, 0%, 0%)" stroke-opacity="1" stroke-miterlimit="10" d="M 1637.34375 1088.4375 L 1637.34375 911.5625 L 1814.179688 911.5625 L 1814.179688 1088.4375 L 1637.34375 1088.4375 " transform="matrix(0.1, 0, 0, -0.1, 0, 200)"/>
</svg>
