<?xml version="1.0" encoding="UTF-8"?>
<svg xmlns="http://www.w3.org/2000/svg" xmlns:xlink="http://www.w3.org/1999/xlink" width="160" height="200" viewBox="0 0 160 200">
<path fill-rule="nonzero" fill="rgb(66.014099%, 56.25%, 73.242188%)" fill-opacity="1" stroke-width="6.68" stroke-linecap="round" stroke-linejoin="round" stroke="rgb(0%, 0%, 0%)" stroke-opacity="1" stroke-miterlimit="10" d="M 812.65625 639.179688 L 826.171875 1073.4375 L 1248.828125 1090.351562 " transform="matrix(0.1, 0, 0, -0.1, 0, 200)"/>
<path fill-rule="nonzero" fill="rgb(74.609375%, 62.889099%, 73.046875%)" fill-opacity="1" stroke-width="6.68" stroke-linecap="round" stroke-linejoin="round" stroke="rgb(0%, 0%, 0%)" stroke-opacity="1" stroke-miterlimit="10" d="M 826.171875 1073.4375 L 812.65625 639.179688 L 383.632812 674.179688 " transform="matrix(0.1, 0, 0, -0.1, 0, 200)"/>
<path fill-rule="nonzero" fill="rgb(74.609375%, 62.889099%, 73.046875%)" fill-opacity="1" stroke-width="6.68" stroke-linecap="round" stroke-linejoin="round" stroke="rgb(0%, 0%, 0%)" stroke-opacity="1" stroke-miterlimit="10" d="M 383.632812 674.179688 L 400.9375 1113.476562 L 826.171875 1073.4375 " transform="matrix(0.1, 0, 0, -0.1, 0, 200)"/>
<path fill-rule="nonzero" fill="rgb(74.414062%, 60.742188%, 70.506287%)" fill-opacity="1" d="M 64.785156 52.492188 L 82.617188 92.65625 L 40.09375 88.652344 "/>
<path fill="none" stroke-width="6.68" stroke-linecap="round" stroke-linejoin="round" stroke="rgb(0%, 0%, 0%)" stroke-opacity="1" stroke-miterlimit="10" d="M 647.851562 1475.078125 L 826.171875 1073.4375 L 400.9375 1113.476562 Z M 647.851562 1475.078125 " transform="matrix(0.1, 0, 0, -0.1, 0, 200)"/>
<path fill-rule="nonzero" fill="rgb(66.209412%, 51.171875%, 66.992188%)" fill-opacity="1" stroke-width="6.68" stroke-linecap="round" stroke-linejoin="round" stroke="rgb(0%, 0%, 0%)" stroke-opacity="1" stroke-miterlimit="10" d="M 826.171875 1073.4375 L 647.851562 1475.078125 L 959.023438 1751.601562 " transform="matrix(0.1, 0, 0, -0.1, 0, 200)"/>
<path fill-rule="nonzero" fill="rgb(66.209412%, 51.171875%, 66.992188%)" fill-opacity="1" d="M 124.882812 90.964844 L 82.617188 92.65625 L 95.902344 24.839844 "/>
<path fill="none" stroke-width="6.68" stroke-linecap="round" stroke-linejoin="round" stroke="rgb(0%, 0%, 0%)" stroke-opacity="1" stroke-miterlimit="10" d="M 1248.828125 1090.351562 L 826.171875 1073.4375 " transform="matrix(0.1, 0, 0, -0.1, 0, 200)"/>
<path fill-rule="nonzero" fill="rgb(82.617188%, 61.914062%, 62.109375%)" fill-opacity="1" stroke-width="6.68" stroke-linecap="round" stroke-linejoin="round" stroke="rgb(0%, 0%, 0%)" stroke-opacity="1" stroke-miterlimit="10" d="M 525.703125 1801.015625 L 647.851562 1475.078125 L 400.9375 1113.476562 " transform="matrix(0.1, 0, 0, -0.1, 0, 200)"/>
<path fill-rule="nonzero" fill="rgb(72.459412%, 50%, 58.59375%)" fill-opacity="1" d="M 95.902344 24.839844 L 64.785156 52.492188 L 52.570312 19.898438 "/>
<path fill="none" stroke-width="6.68" stroke-linecap="round" stroke-linejoin="round" stroke="rgb(0%, 0%, 0%)" stroke-opacity="1" stroke-miterlimit="10" d="M 959.023438 1751.601562 L 647.851562 1475.078125 L 525.703125 1801.015625 Z M 959.023438 1751.601562 " transform="matrix(0.1, 0, 0, -0.1, 0, 200)"/>
<path fill-rule="nonzero" fill="rgb(66.014099%, 56.25%, 73.242188%)" fill-opacity="1" stroke-width="6.68" stroke-linecap="round" stroke-linejoin="round" stroke="rgb(0%, 0%, 0%)" stroke-opacity="1" stroke-miterlimit="10" d="M 1248.828125 1090.351562 L 1238.789062 650.15625 L 812.65625 639.179688 " transform="matrix(0.1, 0, 0, -0.1, 0, 200)"/>
<path fill-rule="nonzero" fill="rgb(65.818787%, 58.201599%, 75.976562%)" fill-opacity="1" d="M 99.175781 172.339844 L 81.265625 136.082031 L 123.878906 134.984375 "/>
<path fill="none" stroke-width="6.68" stroke-linecap="round" stroke-linejoin="round" stroke="rgb(0%, 0%, 0%)" stroke-opacity="1" stroke-miterlimit="10" d="M 991.757812 276.601562 L 812.65625 639.179688 L 1238.789062 650.15625 Z M 991.757812 276.601562 " transform="matrix(0.1, 0, 0, -0.1, 0, 200)"/>
<path fill-rule="nonzero" fill="rgb(74.414062%, 68.943787%, 79.881287%)" fill-opacity="1" stroke-width="6.68" stroke-linecap="round" stroke-linejoin="round" stroke="rgb(0%, 0%, 0%)" stroke-opacity="1" stroke-miterlimit="10" d="M 812.65625 639.179688 L 991.757812 276.601562 L 666.015625 73.398438 " transform="matrix(0.1, 0, 0, -0.1, 0, 200)"/>
<path fill-rule="nonzero" fill="rgb(74.414062%, 68.943787%, 79.881287%)" fill-opacity="1" d="M 38.363281 132.582031 L 81.265625 136.082031 L 66.601562 192.660156 "/>
<path fill="none" stroke-width="6.68" stroke-linecap="round" stroke-linejoin="round" stroke="rgb(0%, 0%, 0%)" stroke-opacity="1" stroke-miterlimit="10" d="M 383.632812 674.179688 L 812.65625 639.179688 " transform="matrix(0.1, 0, 0, -0.1, 0, 200)"/>
<path fill-rule="nonzero" fill="rgb(85.15625%, 71.09375%, 70.701599%)" fill-opacity="1" stroke-width="6.68" stroke-linecap="round" stroke-linejoin="round" stroke="rgb(0%, 0%, 0%)" stroke-opacity="1" stroke-miterlimit="10" d="M 400.9375 1113.476562 L 383.632812 674.179688 L 90.429688 745.351562 " transform="matrix(0.1, 0, 0, -0.1, 0, 200)"/>
<path fill-rule="nonzero" fill="rgb(85.15625%, 71.09375%, 70.701599%)" fill-opacity="1" stroke-width="6.68" stroke-linecap="round" stroke-linejoin="round" stroke="rgb(0%, 0%, 0%)" stroke-opacity="1" stroke-miterlimit="10" d="M 90.429688 745.351562 L 110.9375 1199.257812 L 400.9375 1113.476562 " transform="matrix(0.1, 0, 0, -0.1, 0, 200)"/>
<path fill-rule="nonzero" fill="rgb(82.617188%, 61.914062%, 62.109375%)" fill-opacity="1" d="M 40.09375 88.652344 L 11.09375 80.074219 L 52.570312 19.898438 "/>
<path fill="none" stroke-width="6.68" stroke-linecap="round" stroke-linejoin="round" stroke="rgb(0%, 0%, 0%)" stroke-opacity="1" stroke-miterlimit="10" d="M 400.9375 1113.476562 L 110.9375 1199.257812 " transform="matrix(0.1, 0, 0, -0.1, 0, 200)"/>
<path fill-rule="nonzero" fill="rgb(51.171875%, 44.189453%, 71.484375%)" fill-opacity="1" stroke-width="6.68" stroke-linecap="round" stroke-linejoin="round" stroke="rgb(0%, 0%, 0%)" stroke-opacity="1" stroke-miterlimit="10" d="M 1238.789062 650.15625 L 1248.828125 1090.351562 L 1531.171875 1160.78125 " transform="matrix(0.1, 0, 0, -0.1, 0, 200)"/>
<path fill-rule="nonzero" fill="rgb(66.209412%, 51.171875%, 66.992188%)" fill-opacity="1" stroke-width="6.68" stroke-linecap="round" stroke-linejoin="round" stroke="rgb(0%, 0%, 0%)" stroke-opacity="1" stroke-miterlimit="10" d="M 959.023438 1751.601562 L 1337.304688 1511.914062 L 1248.828125 1090.351562 " transform="matrix(0.1, 0, 0, -0.1, 0, 200)"/>
<path fill-rule="nonzero" fill="rgb(52.34375%, 41.992188%, 67.771912%)" fill-opacity="1" d="M 133.730469 48.808594 L 153.117188 83.921875 L 124.882812 90.964844 "/>
<path fill="none" stroke-width="6.68" stroke-linecap="round" stroke-linejoin="round" stroke="rgb(0%, 0%, 0%)" stroke-opacity="1" stroke-miterlimit="10" d="M 1337.304688 1511.914062 L 1531.171875 1160.78125 L 1248.828125 1090.351562 Z M 1337.304688 1511.914062 " transform="matrix(0.1, 0, 0, -0.1, 0, 200)"/>
<path fill-rule="nonzero" fill="rgb(74.414062%, 68.943787%, 79.881287%)" fill-opacity="1" stroke-width="6.68" stroke-linecap="round" stroke-linejoin="round" stroke="rgb(0%, 0%, 0%)" stroke-opacity="1" stroke-miterlimit="10" d="M 666.015625 73.398438 L 280.898438 327.382812 L 383.632812 674.179688 " transform="matrix(0.1, 0, 0, -0.1, 0, 200)"/>
<path fill-rule="nonzero" fill="rgb(85.546875%, 74.609375%, 74.21875%)" fill-opacity="1" d="M 28.089844 167.261719 L 9.042969 125.464844 L 38.363281 132.582031 "/>
<path fill="none" stroke-width="6.68" stroke-linecap="round" stroke-linejoin="round" stroke="rgb(0%, 0%, 0%)" stroke-opacity="1" stroke-miterlimit="10" d="M 280.898438 327.382812 L 90.429688 745.351562 L 383.632812 674.179688 Z M 280.898438 327.382812 " transform="matrix(0.1, 0, 0, -0.1, 0, 200)"/>
<path fill-rule="nonzero" fill="rgb(51.171875%, 44.189453%, 71.484375%)" fill-opacity="1" stroke-width="6.68" stroke-linecap="round" stroke-linejoin="round" stroke="rgb(0%, 0%, 0%)" stroke-opacity="1" stroke-miterlimit="10" d="M 1531.171875 1160.78125 L 1523.320312 705.3125 L 1238.789062 650.15625 " transform="matrix(0.1, 0, 0, -0.1, 0, 200)"/>
<path fill-rule="nonzero" fill="rgb(47.192383%, 50.976562%, 81.443787%)" fill-opacity="1" d="M 123.878906 134.984375 L 152.332031 129.46875 L 111.054688 192.335938 "/>
<path fill="none" stroke-width="6.68" stroke-linecap="round" stroke-linejoin="round" stroke="rgb(0%, 0%, 0%)" stroke-opacity="1" stroke-miterlimit="10" d="M 1238.789062 650.15625 L 1523.320312 705.3125 " transform="matrix(0.1, 0, 0, -0.1, 0, 200)"/>
<path fill-rule="nonzero" fill="rgb(47.192383%, 50.976562%, 81.443787%)" fill-opacity="1" stroke-width="6.68" stroke-linecap="round" stroke-linejoin="round" stroke="rgb(0%, 0%, 0%)" stroke-opacity="1" stroke-miterlimit="10" d="M 1110.546875 76.640625 L 991.757812 276.601562 L 1238.789062 650.15625 " transform="matrix(0.1, 0, 0, -0.1, 0, 200)"/>
<path fill-rule="nonzero" fill="rgb(56.054688%, 33.006287%, 52.146912%)" fill-opacity="1" d="M 123.347656 15.34375 L 133.730469 48.808594 L 95.902344 24.839844 "/>
<path fill="none" stroke-width="6.68" stroke-linecap="round" stroke-linejoin="round" stroke="rgb(0%, 0%, 0%)" stroke-opacity="1" stroke-miterlimit="10" d="M 1233.476562 1846.5625 L 1337.304688 1511.914062 L 959.023438 1751.601562 Z M 1233.476562 1846.5625 " transform="matrix(0.1, 0, 0, -0.1, 0, 200)"/>
<path fill-rule="nonzero" fill="rgb(57.421875%, 14.697266%, 19.309998%)" fill-opacity="1" stroke-width="6.68" stroke-linecap="round" stroke-linejoin="round" stroke="rgb(0%, 0%, 0%)" stroke-opacity="1" stroke-miterlimit="10" d="M 959.023438 1751.601562 L 525.703125 1801.015625 L 506.601562 1932.109375 " transform="matrix(0.1, 0, 0, -0.1, 0, 200)"/>
<path fill-rule="nonzero" fill="rgb(57.421875%, 14.697266%, 19.309998%)" fill-opacity="1" d="M 123.347656 15.34375 L 95.902344 24.839844 L 50.660156 6.789062 "/>
<path fill="none" stroke-width="6.68" stroke-linecap="round" stroke-linejoin="round" stroke="rgb(0%, 0%, 0%)" stroke-opacity="1" stroke-miterlimit="10" d="M 1233.476562 1846.5625 L 959.023438 1751.601562 " transform="matrix(0.1, 0, 0, -0.1, 0, 200)"/>
<path fill-rule="nonzero" fill="rgb(0%, 0%, 18.701172%)" fill-opacity="1" stroke-width="6.68" stroke-linecap="round" stroke-linejoin="round" stroke="rgb(0%, 0%, 0%)" stroke-opacity="1" stroke-miterlimit="10" d="M 1531.171875 1160.78125 L 1337.304688 1511.914062 L 1233.476562 1846.5625 " transform="matrix(0.1, 0, 0, -0.1, 0, 200)"/>
<path fill-rule="nonzero" fill="rgb(61.914062%, 69.921875%, 90.234375%)" fill-opacity="1" d="M 66.601562 192.660156 L 99.175781 172.339844 L 111.054688 192.335938 "/>
<path fill="none" stroke-width="6.68" stroke-linecap="round" stroke-linejoin="round" stroke="rgb(0%, 0%, 0%)" stroke-opacity="1" stroke-miterlimit="10" d="M 666.015625 73.398438 L 991.757812 276.601562 L 1110.546875 76.640625 Z M 666.015625 73.398438 " transform="matrix(0.1, 0, 0, -0.1, 0, 200)"/>
<path fill-rule="nonzero" fill="rgb(81.639099%, 38.696289%, 22.410583%)" fill-opacity="1" d="M 52.570312 19.898438 L 18.582031 36.339844 L 50.660156 6.789062 "/>
<path fill="none" stroke-width="6.68" stroke-linecap="round" stroke-linejoin="round" stroke="rgb(0%, 0%, 0%)" stroke-opacity="1" stroke-miterlimit="10" d="M 525.703125 1801.015625 L 185.820312 1636.601562 L 506.601562 1932.109375 Z M 525.703125 1801.015625 " transform="matrix(0.1, 0, 0, -0.1, 0, 200)"/>
<path fill-rule="nonzero" fill="rgb(82.617188%, 61.914062%, 62.109375%)" fill-opacity="1" stroke-width="6.68" stroke-linecap="round" stroke-linejoin="round" stroke="rgb(0%, 0%, 0%)" stroke-opacity="1" stroke-miterlimit="10" d="M 110.9375 1199.257812 L 185.820312 1636.601562 L 525.703125 1801.015625 " transform="matrix(0.1, 0, 0, -0.1, 0, 200)"/>
<path fill-rule="nonzero" fill="rgb(93.75%, 75.193787%, 27.709961%)" fill-opacity="1" stroke-width="6.68" stroke-linecap="round" stroke-linejoin="round" stroke="rgb(0%, 0%, 0%)" stroke-opacity="1" stroke-miterlimit="10" d="M 110.9375 1199.257812 L 90.429688 745.351562 L 50.9375 830.78125 " transform="matrix(0.1, 0, 0, -0.1, 0, 200)"/>
<path fill-rule="nonzero" fill="rgb(93.75%, 75.193787%, 27.709961%)" fill-opacity="1" stroke-width="6.68" stroke-linecap="round" stroke-linejoin="round" stroke="rgb(0%, 0%, 0%)" stroke-opacity="1" stroke-miterlimit="10" d="M 50.9375 830.78125 L 72.773438 1304.53125 L 110.9375 1199.257812 " transform="matrix(0.1, 0, 0, -0.1, 0, 200)"/>
<path fill-rule="nonzero" fill="rgb(96.679688%, 68.75%, 26.708984%)" fill-opacity="1" d="M 18.582031 36.339844 L 11.09375 80.074219 L 7.277344 69.546875 "/>
<path fill="none" stroke-width="6.68" stroke-linecap="round" stroke-linejoin="round" stroke="rgb(0%, 0%, 0%)" stroke-opacity="1" stroke-miterlimit="10" d="M 185.820312 1636.601562 L 110.9375 1199.257812 L 72.773438 1304.53125 Z M 185.820312 1636.601562 " transform="matrix(0.1, 0, 0, -0.1, 0, 200)"/>
<path fill-rule="nonzero" fill="rgb(0%, 0%, 19.798279%)" fill-opacity="1" stroke-width="6.68" stroke-linecap="round" stroke-linejoin="round" stroke="rgb(0%, 0%, 0%)" stroke-opacity="1" stroke-miterlimit="10" d="M 1523.320312 705.3125 L 1531.171875 1160.78125 L 1557.695312 1264.609375 " transform="matrix(0.1, 0, 0, -0.1, 0, 200)"/>
<path fill-rule="nonzero" fill="rgb(0%, 0%, 18.701172%)" fill-opacity="1" d="M 155.769531 73.539062 L 153.117188 83.921875 L 123.347656 15.34375 "/>
<path fill="none" stroke-width="6.68" stroke-linecap="round" stroke-linejoin="round" stroke="rgb(0%, 0%, 0%)" stroke-opacity="1" stroke-miterlimit="10" d="M 1557.695312 1264.609375 L 1531.171875 1160.78125 " transform="matrix(0.1, 0, 0, -0.1, 0, 200)"/>
<path fill-rule="nonzero" fill="rgb(79.296875%, 91.992188%, 92.381287%)" fill-opacity="1" d="M 37.246094 187.46875 L 28.089844 167.261719 L 66.601562 192.660156 "/>
<path fill="none" stroke-width="6.68" stroke-linecap="round" stroke-linejoin="round" stroke="rgb(0%, 0%, 0%)" stroke-opacity="1" stroke-miterlimit="10" d="M 372.460938 125.3125 L 280.898438 327.382812 L 666.015625 73.398438 Z M 372.460938 125.3125 " transform="matrix(0.1, 0, 0, -0.1, 0, 200)"/>
<path fill-rule="nonzero" fill="rgb(64.84375%, 76.756287%, 29.710388%)" fill-opacity="1" stroke-width="6.68" stroke-linecap="round" stroke-linejoin="round" stroke="rgb(0%, 0%, 0%)" stroke-opacity="1" stroke-miterlimit="10" d="M 90.429688 745.351562 L 280.898438 327.382812 L 372.460938 125.3125 " transform="matrix(0.1, 0, 0, -0.1, 0, 200)"/>
<path fill-rule="nonzero" fill="rgb(34.104919%, 0%, 0%)" fill-opacity="1" d="M 66.601562 192.660156 L 111.054688 192.335938 L 64.425781 183.582031 "/>
<path fill="none" stroke-width="6.68" stroke-linecap="round" stroke-linejoin="round" stroke="rgb(0%, 0%, 0%)" stroke-opacity="1" stroke-miterlimit="10" d="M 666.015625 73.398438 L 1110.546875 76.640625 " transform="matrix(0.1, 0, 0, -0.1, 0, 200)"/>
<path fill-rule="nonzero" fill="rgb(34.104919%, 0%, 0%)" fill-opacity="1" stroke-width="6.68" stroke-linecap="round" stroke-linejoin="round" stroke="rgb(0%, 0%, 0%)" stroke-opacity="1" stroke-miterlimit="10" d="M 644.257812 164.179688 L 372.460938 125.3125 L 666.015625 73.398438 " transform="matrix(0.1, 0, 0, -0.1, 0, 200)"/>
<path fill-rule="nonzero" fill="rgb(64.84375%, 76.756287%, 29.710388%)" fill-opacity="1" d="M 5.09375 116.921875 L 9.042969 125.464844 L 37.246094 187.46875 "/>
<path fill="none" stroke-width="6.68" stroke-linecap="round" stroke-linejoin="round" stroke="rgb(0%, 0%, 0%)" stroke-opacity="1" stroke-miterlimit="10" d="M 50.9375 830.78125 L 90.429688 745.351562 " transform="matrix(0.1, 0, 0, -0.1, 0, 200)"/>
<path fill-rule="nonzero" fill="rgb(0%, 0%, 19.798279%)" fill-opacity="1" stroke-width="6.68" stroke-linecap="round" stroke-linejoin="round" stroke="rgb(0%, 0%, 0%)" stroke-opacity="1" stroke-miterlimit="10" d="M 1557.695312 1264.609375 L 1549.726562 789.101562 L 1523.320312 705.3125 " transform="matrix(0.1, 0, 0, -0.1, 0, 200)"/>
<path fill-rule="nonzero" fill="rgb(0%, 0%, 21.09375%)" fill-opacity="1" d="M 145.125 165.402344 L 152.332031 129.46875 L 154.972656 121.089844 "/>
<path fill="none" stroke-width="6.68" stroke-linecap="round" stroke-linejoin="round" stroke="rgb(0%, 0%, 0%)" stroke-opacity="1" stroke-miterlimit="10" d="M 1451.25 345.976562 L 1523.320312 705.3125 L 1549.726562 789.101562 Z M 1451.25 345.976562 " transform="matrix(0.1, 0, 0, -0.1, 0, 200)"/>
<path fill-rule="nonzero" fill="rgb(47.192383%, 50.976562%, 81.443787%)" fill-opacity="1" stroke-width="6.68" stroke-linecap="round" stroke-linejoin="round" stroke="rgb(0%, 0%, 0%)" stroke-opacity="1" stroke-miterlimit="10" d="M 1523.320312 705.3125 L 1451.25 345.976562 L 1110.546875 76.640625 " transform="matrix(0.1, 0, 0, -0.1, 0, 200)"/>
<path fill-rule="nonzero" fill="rgb(0%, 0%, 18.701172%)" fill-opacity="1" stroke-width="6.68" stroke-linecap="round" stroke-linejoin="round" stroke="rgb(0%, 0%, 0%)" stroke-opacity="1" stroke-miterlimit="10" d="M 1233.476562 1846.5625 L 1366.09375 1706.953125 L 1557.695312 1264.609375 " transform="matrix(0.1, 0, 0, -0.1, 0, 200)"/>
<path fill-rule="nonzero" fill="rgb(57.421875%, 14.697266%, 19.309998%)" fill-opacity="1" stroke-width="6.68" stroke-linecap="round" stroke-linejoin="round" stroke="rgb(0%, 0%, 0%)" stroke-opacity="1" stroke-miterlimit="10" d="M 506.601562 1932.109375 L 959.6875 1963.242188 L 1233.476562 1846.5625 " transform="matrix(0.1, 0, 0, -0.1, 0, 200)"/>
<path fill-rule="nonzero" fill="rgb(67.771912%, 97.65625%, 88.084412%)" fill-opacity="1" d="M 95.96875 3.675781 L 136.609375 29.304688 L 123.347656 15.34375 "/>
<path fill="none" stroke-width="6.68" stroke-linecap="round" stroke-linejoin="round" stroke="rgb(0%, 0%, 0%)" stroke-opacity="1" stroke-miterlimit="10" d="M 959.6875 1963.242188 L 1366.09375 1706.953125 L 1233.476562 1846.5625 Z M 959.6875 1963.242188 " transform="matrix(0.1, 0, 0, -0.1, 0, 200)"/>
<path fill-rule="nonzero" fill="rgb(36.791992%, 46.604919%, 82.8125%)" fill-opacity="1" stroke-width="6.68" stroke-linecap="round" stroke-linejoin="round" stroke="rgb(0%, 0%, 0%)" stroke-opacity="1" stroke-miterlimit="10" d="M 506.601562 1932.109375 L 185.820312 1636.601562 L 72.773438 1304.53125 " transform="matrix(0.1, 0, 0, -0.1, 0, 200)"/>
<path fill-rule="nonzero" fill="rgb(66.209412%, 11.302185%, 0%)" fill-opacity="1" d="M 111.054688 192.335938 L 145.125 165.402344 L 111.804688 186.78125 "/>
<path fill="none" stroke-width="6.68" stroke-linecap="round" stroke-linejoin="round" stroke="rgb(0%, 0%, 0%)" stroke-opacity="1" stroke-miterlimit="10" d="M 1110.546875 76.640625 L 1451.25 345.976562 L 1118.046875 132.1875 Z M 1110.546875 76.640625 " transform="matrix(0.1, 0, 0, -0.1, 0, 200)"/>
<path fill-rule="nonzero" fill="rgb(34.104919%, 0%, 0%)" fill-opacity="1" stroke-width="6.68" stroke-linecap="round" stroke-linejoin="round" stroke="rgb(0%, 0%, 0%)" stroke-opacity="1" stroke-miterlimit="10" d="M 1110.546875 76.640625 L 1118.046875 132.1875 L 644.257812 164.179688 " transform="matrix(0.1, 0, 0, -0.1, 0, 200)"/>
<path fill-rule="nonzero" fill="rgb(55.076599%, 72.851562%, 95.701599%)" fill-opacity="1" d="M 50.660156 6.789062 L 61.074219 20.6875 L 95.96875 3.675781 "/>
<path fill="none" stroke-width="6.68" stroke-linecap="round" stroke-linejoin="round" stroke="rgb(0%, 0%, 0%)" stroke-opacity="1" stroke-miterlimit="10" d="M 506.601562 1932.109375 L 610.742188 1793.125 L 959.6875 1963.242188 Z M 506.601562 1932.109375 " transform="matrix(0.1, 0, 0, -0.1, 0, 200)"/>
<path fill-rule="nonzero" fill="rgb(36.791992%, 46.604919%, 82.8125%)" fill-opacity="1" stroke-width="6.68" stroke-linecap="round" stroke-linejoin="round" stroke="rgb(0%, 0%, 0%)" stroke-opacity="1" stroke-miterlimit="10" d="M 332.96875 1389.140625 L 610.742188 1793.125 L 506.601562 1932.109375 " transform="matrix(0.1, 0, 0, -0.1, 0, 200)"/>
<path fill-rule="nonzero" fill="rgb(36.791992%, 46.604919%, 82.8125%)" fill-opacity="1" d="M 7.277344 69.546875 L 33.296875 61.085938 L 50.660156 6.789062 "/>
<path fill="none" stroke-width="6.68" stroke-linecap="round" stroke-linejoin="round" stroke="rgb(0%, 0%, 0%)" stroke-opacity="1" stroke-miterlimit="10" d="M 72.773438 1304.53125 L 332.96875 1389.140625 " transform="matrix(0.1, 0, 0, -0.1, 0, 200)"/>
<path fill-rule="nonzero" fill="rgb(85.15625%, 62.5%, 59.375%)" fill-opacity="1" stroke-width="6.68" stroke-linecap="round" stroke-linejoin="round" stroke="rgb(0%, 0%, 0%)" stroke-opacity="1" stroke-miterlimit="10" d="M 1118.046875 132.1875 L 1451.25 345.976562 L 1549.726562 789.101562 " transform="matrix(0.1, 0, 0, -0.1, 0, 200)"/>
<path fill-rule="nonzero" fill="rgb(64.84375%, 76.756287%, 29.710388%)" fill-opacity="1" stroke-width="6.68" stroke-linecap="round" stroke-linejoin="round" stroke="rgb(0%, 0%, 0%)" stroke-opacity="1" stroke-miterlimit="10" d="M 372.460938 125.3125 L 230.039062 436.992188 L 50.9375 830.78125 " transform="matrix(0.1, 0, 0, -0.1, 0, 200)"/>
<path fill-rule="nonzero" fill="rgb(49.19281%, 22.605896%, 43.797302%)" fill-opacity="1" d="M 64.425781 183.582031 L 23.003906 156.300781 L 37.246094 187.46875 "/>
<path fill="none" stroke-width="6.68" stroke-linecap="round" stroke-linejoin="round" stroke="rgb(0%, 0%, 0%)" stroke-opacity="1" stroke-miterlimit="10" d="M 644.257812 164.179688 L 230.039062 436.992188 L 372.460938 125.3125 Z M 644.257812 164.179688 " transform="matrix(0.1, 0, 0, -0.1, 0, 200)"/>
<path fill-rule="nonzero" fill="rgb(45.288086%, 39.988708%, 70.896912%)" fill-opacity="1" stroke-width="6.68" stroke-linecap="round" stroke-linejoin="round" stroke="rgb(0%, 0%, 0%)" stroke-opacity="1" stroke-miterlimit="10" d="M 72.773438 1304.53125 L 50.9375 830.78125 L 312.851562 897.617188 " transform="matrix(0.1, 0, 0, -0.1, 0, 200)"/>
<path fill-rule="nonzero" fill="rgb(45.288086%, 39.988708%, 70.896912%)" fill-opacity="1" stroke-width="6.68" stroke-linecap="round" stroke-linejoin="round" stroke="rgb(0%, 0%, 0%)" stroke-opacity="1" stroke-miterlimit="10" d="M 312.851562 897.617188 L 332.96875 1389.140625 L 72.773438 1304.53125 " transform="matrix(0.1, 0, 0, -0.1, 0, 200)"/>
<path fill-rule="nonzero" fill="rgb(88.084412%, 73.826599%, 70.117188%)" fill-opacity="1" stroke-width="6.68" stroke-linecap="round" stroke-linejoin="round" stroke="rgb(0%, 0%, 0%)" stroke-opacity="1" stroke-miterlimit="10" d="M 1549.726562 789.101562 L 1557.695312 1264.609375 L 1285.898438 1363.671875 " transform="matrix(0.1, 0, 0, -0.1, 0, 200)"/>
<path fill-rule="nonzero" fill="rgb(88.671875%, 78.709412%, 74.414062%)" fill-opacity="1" d="M 136.609375 29.304688 L 128.589844 63.632812 L 155.769531 73.539062 "/>
<path fill="none" stroke-width="6.68" stroke-linecap="round" stroke-linejoin="round" stroke="rgb(0%, 0%, 0%)" stroke-opacity="1" stroke-miterlimit="10" d="M 1366.09375 1706.953125 L 1285.898438 1363.671875 L 1557.695312 1264.609375 Z M 1366.09375 1706.953125 " transform="matrix(0.1, 0, 0, -0.1, 0, 200)"/>
<path fill-rule="nonzero" fill="rgb(75%, 71.09375%, 81.443787%)" fill-opacity="1" stroke-width="6.68" stroke-linecap="round" stroke-linejoin="round" stroke="rgb(0%, 0%, 0%)" stroke-opacity="1" stroke-miterlimit="10" d="M 1285.898438 1363.671875 L 1366.09375 1706.953125 L 959.6875 1963.242188 " transform="matrix(0.1, 0, 0, -0.1, 0, 200)"/>
<path fill-rule="nonzero" fill="rgb(75%, 71.09375%, 81.443787%)" fill-opacity="1" d="M 80.691406 58.660156 L 128.589844 63.632812 L 95.96875 3.675781 "/>
<path fill="none" stroke-width="6.68" stroke-linecap="round" stroke-linejoin="round" stroke="rgb(0%, 0%, 0%)" stroke-opacity="1" stroke-miterlimit="10" d="M 806.914062 1413.398438 L 1285.898438 1363.671875 " transform="matrix(0.1, 0, 0, -0.1, 0, 200)"/>
<path fill-rule="nonzero" fill="rgb(75%, 71.09375%, 81.443787%)" fill-opacity="1" stroke-width="6.68" stroke-linecap="round" stroke-linejoin="round" stroke="rgb(0%, 0%, 0%)" stroke-opacity="1" stroke-miterlimit="10" d="M 959.6875 1963.242188 L 610.742188 1793.125 L 806.914062 1413.398438 " transform="matrix(0.1, 0, 0, -0.1, 0, 200)"/>
<path fill-rule="nonzero" fill="rgb(46.897888%, 37.304688%, 66.40625%)" fill-opacity="1" d="M 23.003906 156.300781 L 31.285156 110.238281 L 5.09375 116.921875 "/>
<path fill="none" stroke-width="6.68" stroke-linecap="round" stroke-linejoin="round" stroke="rgb(0%, 0%, 0%)" stroke-opacity="1" stroke-miterlimit="10" d="M 230.039062 436.992188 L 312.851562 897.617188 L 50.9375 830.78125 Z M 230.039062 436.992188 " transform="matrix(0.1, 0, 0, -0.1, 0, 200)"/>
<path fill-rule="nonzero" fill="rgb(88.084412%, 73.826599%, 70.117188%)" fill-opacity="1" stroke-width="6.68" stroke-linecap="round" stroke-linejoin="round" stroke="rgb(0%, 0%, 0%)" stroke-opacity="1" stroke-miterlimit="10" d="M 1285.898438 1363.671875 L 1274.960938 871.054688 L 1549.726562 789.101562 " transform="matrix(0.1, 0, 0, -0.1, 0, 200)"/>
<path fill-rule="nonzero" fill="rgb(85.15625%, 62.5%, 59.375%)" fill-opacity="1" d="M 154.972656 121.089844 L 127.496094 112.894531 L 111.804688 186.78125 "/>
<path fill="none" stroke-width="6.68" stroke-linecap="round" stroke-linejoin="round" stroke="rgb(0%, 0%, 0%)" stroke-opacity="1" stroke-miterlimit="10" d="M 1549.726562 789.101562 L 1274.960938 871.054688 " transform="matrix(0.1, 0, 0, -0.1, 0, 200)"/>
<path fill-rule="nonzero" fill="rgb(72.459412%, 47.705078%, 55.076599%)" fill-opacity="1" d="M 111.804688 186.78125 L 99.703125 154.800781 L 64.425781 183.582031 "/>
<path fill="none" stroke-width="6.68" stroke-linecap="round" stroke-linejoin="round" stroke="rgb(0%, 0%, 0%)" stroke-opacity="1" stroke-miterlimit="10" d="M 1118.046875 132.1875 L 997.03125 451.992188 L 644.257812 164.179688 Z M 1118.046875 132.1875 " transform="matrix(0.1, 0, 0, -0.1, 0, 200)"/>
<path fill-rule="nonzero" fill="rgb(85.15625%, 62.5%, 59.375%)" fill-opacity="1" stroke-width="6.68" stroke-linecap="round" stroke-linejoin="round" stroke="rgb(0%, 0%, 0%)" stroke-opacity="1" stroke-miterlimit="10" d="M 1274.960938 871.054688 L 997.03125 451.992188 L 1118.046875 132.1875 " transform="matrix(0.1, 0, 0, -0.1, 0, 200)"/>
<path fill-rule="nonzero" fill="rgb(64.84375%, 58.201599%, 76.756287%)" fill-opacity="1" d="M 61.074219 20.6875 L 33.296875 61.085938 L 80.691406 58.660156 "/>
<path fill="none" stroke-width="6.68" stroke-linecap="round" stroke-linejoin="round" stroke="rgb(0%, 0%, 0%)" stroke-opacity="1" stroke-miterlimit="10" d="M 610.742188 1793.125 L 332.96875 1389.140625 L 806.914062 1413.398438 Z M 610.742188 1793.125 " transform="matrix(0.1, 0, 0, -0.1, 0, 200)"/>
<path fill-rule="nonzero" fill="rgb(65.429688%, 50%, 66.209412%)" fill-opacity="1" stroke-width="6.68" stroke-linecap="round" stroke-linejoin="round" stroke="rgb(0%, 0%, 0%)" stroke-opacity="1" stroke-miterlimit="10" d="M 312.851562 897.617188 L 230.039062 436.992188 L 644.257812 164.179688 " transform="matrix(0.1, 0, 0, -0.1, 0, 200)"/>
<path fill-rule="nonzero" fill="rgb(65.429688%, 50%, 66.209412%)" fill-opacity="1" d="M 79.113281 108.570312 L 31.285156 110.238281 L 64.425781 183.582031 "/>
<path fill="none" stroke-width="6.68" stroke-linecap="round" stroke-linejoin="round" stroke="rgb(0%, 0%, 0%)" stroke-opacity="1" stroke-miterlimit="10" d="M 791.132812 914.296875 L 312.851562 897.617188 " transform="matrix(0.1, 0, 0, -0.1, 0, 200)"/>
<path fill-rule="nonzero" fill="rgb(65.429688%, 50%, 66.209412%)" fill-opacity="1" stroke-width="6.68" stroke-linecap="round" stroke-linejoin="round" stroke="rgb(0%, 0%, 0%)" stroke-opacity="1" stroke-miterlimit="10" d="M 644.257812 164.179688 L 997.03125 451.992188 L 791.132812 914.296875 " transform="matrix(0.1, 0, 0, -0.1, 0, 200)"/>
<path fill-rule="nonzero" fill="rgb(65.234375%, 55.859375%, 73.631287%)" fill-opacity="1" stroke-width="6.68" stroke-linecap="round" stroke-linejoin="round" stroke="rgb(0%, 0%, 0%)" stroke-opacity="1" stroke-miterlimit="10" d="M 332.96875 1389.140625 L 312.851562 897.617188 L 791.132812 914.296875 " transform="matrix(0.1, 0, 0, -0.1, 0, 200)"/>
<path fill-rule="nonzero" fill="rgb(65.234375%, 55.859375%, 73.631287%)" fill-opacity="1" stroke-width="6.68" stroke-linecap="round" stroke-linejoin="round" stroke="rgb(0%, 0%, 0%)" stroke-opacity="1" stroke-miterlimit="10" d="M 791.132812 914.296875 L 806.914062 1413.398438 L 332.96875 1389.140625 " transform="matrix(0.1, 0, 0, -0.1, 0, 200)"/>
<path fill-rule="nonzero" fill="rgb(75.193787%, 63.671875%, 73.4375%)" fill-opacity="1" stroke-width="6.68" stroke-linecap="round" stroke-linejoin="round" stroke="rgb(0%, 0%, 0%)" stroke-opacity="1" stroke-miterlimit="10" d="M 1274.960938 871.054688 L 1285.898438 1363.671875 L 806.914062 1413.398438 " transform="matrix(0.1, 0, 0, -0.1, 0, 200)"/>
<path fill-rule="nonzero" fill="rgb(75.193787%, 63.671875%, 73.4375%)" fill-opacity="1" stroke-width="6.68" stroke-linecap="round" stroke-linejoin="round" stroke="rgb(0%, 0%, 0%)" stroke-opacity="1" stroke-miterlimit="10" d="M 806.914062 1413.398438 L 791.132812 914.296875 L 1274.960938 871.054688 " transform="matrix(0.1, 0, 0, -0.1, 0, 200)"/>
<path fill-rule="nonzero" fill="rgb(75%, 61.131287%, 70.506287%)" fill-opacity="1" d="M 99.703125 154.800781 L 127.496094 112.894531 L 79.113281 108.570312 "/>
<path fill="none" stroke-width="6.68" stroke-linecap="round" stroke-linejoin="round" stroke="rgb(0%, 0%, 0%)" stroke-opacity="1" stroke-miterlimit="10" d="M 997.03125 451.992188 L 1274.960938 871.054688 L 791.132812 914.296875 Z M 997.03125 451.992188 " transform="matrix(0.1, 0, 0, -0.1, 0, 200)"/>
</svg>
