<?xml version="1.0" encoding="UTF-8"?>
<svg xmlns="http://www.w3.org/2000/svg" xmlns:xlink="http://www.w3.org/1999/xlink" width="277" height="200" viewBox="0 0 277 200">
<path fill-rule="nonzero" fill="rgb(68.359375%, 53.125%, 67.1875%)" fill-opacity="1" d="M 123.144531 111.335938 L 134.164062 45.824219 L 186.050781 89.425781 "/>
<path fill="none" stroke-width="9.16" stroke-linecap="round" stroke-linejoin="round" stroke="rgb(0%, 0%, 0%)" stroke-opacity="1" stroke-miterlimit="10" d="M 1231.445312 886.640625 L 1341.640625 1541.757812 L 1860.507812 1105.742188 Z M 1231.445312 886.640625 " transform="matrix(0.1, 0, 0, -0.1, 0, 200)"/>
<path fill-rule="nonzero" fill="rgb(75.389099%, 57.617188%, 65.818787%)" fill-opacity="1" d="M 123.144531 111.335938 L 71.691406 71.90625 L 134.164062 45.824219 "/>
<path fill="none" stroke-width="9.16" stroke-linecap="round" stroke-linejoin="round" stroke="rgb(0%, 0%, 0%)" stroke-opacity="1" stroke-miterlimit="10" d="M 1231.445312 886.640625 L 716.914062 1280.9375 L 1341.640625 1541.757812 Z M 1231.445312 886.640625 " transform="matrix(0.1, 0, 0, -0.1, 0, 200)"/>
<path fill-rule="nonzero" fill="rgb(79.492188%, 66.014099%, 71.484375%)" fill-opacity="1" d="M 67.363281 140.402344 L 71.691406 71.90625 L 123.144531 111.335938 "/>
<path fill="none" stroke-width="9.16" stroke-linecap="round" stroke-linejoin="round" stroke="rgb(0%, 0%, 0%)" stroke-opacity="1" stroke-miterlimit="10" d="M 673.632812 595.976562 L 716.914062 1280.9375 L 1231.445312 886.640625 Z M 673.632812 595.976562 " transform="matrix(0.1, 0, 0, -0.1, 0, 200)"/>
<path fill-rule="nonzero" fill="rgb(58.789062%, 61.914062%, 84.959412%)" fill-opacity="1" stroke-width="9.16" stroke-linecap="round" stroke-linejoin="round" stroke="rgb(0%, 0%, 0%)" stroke-opacity="1" stroke-miterlimit="10" d="M 1231.445312 886.640625 L 1860.507812 1105.742188 L 1976.289062 612.304688 " transform="matrix(0.1, 0, 0, -0.1, 0, 200)"/>
<path fill-rule="nonzero" fill="rgb(58.789062%, 61.914062%, 84.959412%)" fill-opacity="1" stroke-width="9.16" stroke-linecap="round" stroke-linejoin="round" stroke="rgb(0%, 0%, 0%)" stroke-opacity="1" stroke-miterlimit="10" d="M 1976.289062 612.304688 L 1308.867188 387.109375 L 1231.445312 886.640625 " transform="matrix(0.1, 0, 0, -0.1, 0, 200)"/>
<path fill-rule="nonzero" fill="rgb(68.554688%, 71.09375%, 86.71875%)" fill-opacity="1" d="M 130.886719 161.289062 L 67.363281 140.402344 L 123.144531 111.335938 "/>
<path fill="none" stroke-width="9.16" stroke-linecap="round" stroke-linejoin="round" stroke="rgb(0%, 0%, 0%)" stroke-opacity="1" stroke-miterlimit="10" d="M 1308.867188 387.109375 L 673.632812 595.976562 L 1231.445312 886.640625 Z M 1308.867188 387.109375 " transform="matrix(0.1, 0, 0, -0.1, 0, 200)"/>
<path fill-rule="nonzero" fill="rgb(52.146912%, 36.108398%, 60.351562%)" fill-opacity="1" d="M 186.050781 89.425781 L 194.742188 27.570312 L 239.683594 80.722656 "/>
<path fill="none" stroke-width="9.16" stroke-linecap="round" stroke-linejoin="round" stroke="rgb(0%, 0%, 0%)" stroke-opacity="1" stroke-miterlimit="10" d="M 1860.507812 1105.742188 L 1947.421875 1724.296875 L 2396.835938 1192.773438 Z M 1860.507812 1105.742188 " transform="matrix(0.1, 0, 0, -0.1, 0, 200)"/>
<path fill-rule="nonzero" fill="rgb(62.304688%, 43.309021%, 60.351562%)" fill-opacity="1" d="M 186.050781 89.425781 L 134.164062 45.824219 L 194.742188 27.570312 "/>
<path fill="none" stroke-width="9.16" stroke-linecap="round" stroke-linejoin="round" stroke="rgb(0%, 0%, 0%)" stroke-opacity="1" stroke-miterlimit="10" d="M 1860.507812 1105.742188 L 1341.640625 1541.757812 L 1947.421875 1724.296875 Z M 1860.507812 1105.742188 " transform="matrix(0.1, 0, 0, -0.1, 0, 200)"/>
<path fill-rule="nonzero" fill="rgb(47.192383%, 50.193787%, 80.664062%)" fill-opacity="1" d="M 197.628906 138.769531 L 186.050781 89.425781 L 239.683594 80.722656 "/>
<path fill="none" stroke-width="9.16" stroke-linecap="round" stroke-linejoin="round" stroke="rgb(0%, 0%, 0%)" stroke-opacity="1" stroke-miterlimit="10" d="M 1976.289062 612.304688 L 1860.507812 1105.742188 L 2396.835938 1192.773438 Z M 1976.289062 612.304688 " transform="matrix(0.1, 0, 0, -0.1, 0, 200)"/>
<path fill-rule="nonzero" fill="rgb(77.539062%, 39.109802%, 32.788086%)" fill-opacity="1" d="M 97.992188 28.429688 L 134.164062 45.824219 L 71.691406 71.90625 "/>
<path fill="none" stroke-width="9.16" stroke-linecap="round" stroke-linejoin="round" stroke="rgb(0%, 0%, 0%)" stroke-opacity="1" stroke-miterlimit="10" d="M 979.921875 1715.703125 L 1341.640625 1541.757812 L 716.914062 1280.9375 Z M 979.921875 1715.703125 " transform="matrix(0.1, 0, 0, -0.1, 0, 200)"/>
<path fill-rule="nonzero" fill="rgb(60.546875%, 13.890076%, 11.888123%)" fill-opacity="1" stroke-width="9.16" stroke-linecap="round" stroke-linejoin="round" stroke="rgb(0%, 0%, 0%)" stroke-opacity="1" stroke-miterlimit="10" d="M 1947.421875 1724.296875 L 1341.640625 1541.757812 L 979.921875 1715.703125 " transform="matrix(0.1, 0, 0, -0.1, 0, 200)"/>
<path fill-rule="nonzero" fill="rgb(87.109375%, 71.875%, 68.75%)" fill-opacity="1" d="M 67.363281 140.402344 L 23.597656 99.25 L 71.691406 71.90625 "/>
<path fill="none" stroke-width="9.16" stroke-linecap="round" stroke-linejoin="round" stroke="rgb(0%, 0%, 0%)" stroke-opacity="1" stroke-miterlimit="10" d="M 673.632812 595.976562 L 235.976562 1007.5 L 716.914062 1280.9375 Z M 673.632812 595.976562 " transform="matrix(0.1, 0, 0, -0.1, 0, 200)"/>
<path fill-rule="nonzero" fill="rgb(83.984375%, 37.988281%, 11.401367%)" fill-opacity="1" stroke-width="9.16" stroke-linecap="round" stroke-linejoin="round" stroke="rgb(0%, 0%, 0%)" stroke-opacity="1" stroke-miterlimit="10" d="M 716.914062 1280.9375 L 235.976562 1007.5 L 484.53125 1451.640625 " transform="matrix(0.1, 0, 0, -0.1, 0, 200)"/>
<path fill-rule="nonzero" fill="rgb(83.984375%, 37.988281%, 11.401367%)" fill-opacity="1" stroke-width="9.16" stroke-linecap="round" stroke-linejoin="round" stroke="rgb(0%, 0%, 0%)" stroke-opacity="1" stroke-miterlimit="10" d="M 484.53125 1451.640625 L 979.921875 1715.703125 L 716.914062 1280.9375 " transform="matrix(0.1, 0, 0, -0.1, 0, 200)"/>
<path fill-rule="nonzero" fill="rgb(91.601562%, 83.006287%, 74.804688%)" fill-opacity="1" d="M 35.21875 169.082031 L 23.597656 99.25 L 67.363281 140.402344 "/>
<path fill="none" stroke-width="9.16" stroke-linecap="round" stroke-linejoin="round" stroke="rgb(0%, 0%, 0%)" stroke-opacity="1" stroke-miterlimit="10" d="M 352.1875 309.179688 L 235.976562 1007.5 L 673.632812 595.976562 Z M 352.1875 309.179688 " transform="matrix(0.1, 0, 0, -0.1, 0, 200)"/>
<path fill-rule="nonzero" fill="rgb(67.771912%, 82.226562%, 95.3125%)" fill-opacity="1" stroke-width="9.16" stroke-linecap="round" stroke-linejoin="round" stroke="rgb(0%, 0%, 0%)" stroke-opacity="1" stroke-miterlimit="10" d="M 352.1875 309.179688 L 673.632812 595.976562 L 1308.867188 387.109375 " transform="matrix(0.1, 0, 0, -0.1, 0, 200)"/>
<path fill-rule="nonzero" fill="rgb(35.888672%, 14.988708%, 45.410156%)" fill-opacity="1" d="M 239.683594 80.722656 L 194.742188 27.570312 L 236.015625 23.15625 "/>
<path fill="none" stroke-width="9.16" stroke-linecap="round" stroke-linejoin="round" stroke="rgb(0%, 0%, 0%)" stroke-opacity="1" stroke-miterlimit="10" d="M 2396.835938 1192.773438 L 1947.421875 1724.296875 L 2360.15625 1768.4375 Z M 2396.835938 1192.773438 " transform="matrix(0.1, 0, 0, -0.1, 0, 200)"/>
<path fill-rule="nonzero" fill="rgb(60.546875%, 13.890076%, 11.888123%)" fill-opacity="1" stroke-width="9.16" stroke-linecap="round" stroke-linejoin="round" stroke="rgb(0%, 0%, 0%)" stroke-opacity="1" stroke-miterlimit="10" d="M 979.921875 1715.703125 L 1616.71875 1918.945312 L 1947.421875 1724.296875 " transform="matrix(0.1, 0, 0, -0.1, 0, 200)"/>
<path fill-rule="nonzero" fill="rgb(27.488708%, 0%, 0%)" fill-opacity="1" d="M 161.671875 8.105469 L 236.015625 23.15625 L 194.742188 27.570312 "/>
<path fill="none" stroke-width="9.16" stroke-linecap="round" stroke-linejoin="round" stroke="rgb(0%, 0%, 0%)" stroke-opacity="1" stroke-miterlimit="10" d="M 1616.71875 1918.945312 L 2360.15625 1768.4375 L 1947.421875 1724.296875 Z M 1616.71875 1918.945312 " transform="matrix(0.1, 0, 0, -0.1, 0, 200)"/>
<path fill-rule="nonzero" fill="rgb(67.771912%, 82.226562%, 95.3125%)" fill-opacity="1" stroke-width="9.16" stroke-linecap="round" stroke-linejoin="round" stroke="rgb(0%, 0%, 0%)" stroke-opacity="1" stroke-miterlimit="10" d="M 1308.867188 387.109375 L 1028.632812 77.148438 L 352.1875 309.179688 " transform="matrix(0.1, 0, 0, -0.1, 0, 200)"/>
<path fill-rule="nonzero" fill="rgb(31.297302%, 63.867188%, 96.484375%)" fill-opacity="1" stroke-width="9.16" stroke-linecap="round" stroke-linejoin="round" stroke="rgb(0%, 0%, 0%)" stroke-opacity="1" stroke-miterlimit="10" d="M 1028.632812 77.148438 L 1308.867188 387.109375 L 1976.289062 612.304688 " transform="matrix(0.1, 0, 0, -0.1, 0, 200)"/>
<path fill-rule="nonzero" fill="rgb(1.800537%, 0%, 34.104919%)" fill-opacity="1" d="M 239.683594 80.722656 L 236.015625 23.15625 L 265.453125 90.195312 "/>
<path fill="none" stroke-width="9.16" stroke-linecap="round" stroke-linejoin="round" stroke="rgb(0%, 0%, 0%)" stroke-opacity="1" stroke-miterlimit="10" d="M 2396.835938 1192.773438 L 2360.15625 1768.4375 L 2654.53125 1098.046875 Z M 2396.835938 1192.773438 " transform="matrix(0.1, 0, 0, -0.1, 0, 200)"/>
<path fill-rule="nonzero" fill="rgb(17.993164%, 36.401367%, 81.054688%)" fill-opacity="1" stroke-width="9.16" stroke-linecap="round" stroke-linejoin="round" stroke="rgb(0%, 0%, 0%)" stroke-opacity="1" stroke-miterlimit="10" d="M 2396.835938 1192.773438 L 2654.53125 1098.046875 L 2197.03125 466.210938 " transform="matrix(0.1, 0, 0, -0.1, 0, 200)"/>
<path fill-rule="nonzero" fill="rgb(17.993164%, 36.401367%, 81.054688%)" fill-opacity="1" stroke-width="9.16" stroke-linecap="round" stroke-linejoin="round" stroke="rgb(0%, 0%, 0%)" stroke-opacity="1" stroke-miterlimit="10" d="M 2197.03125 466.210938 L 1976.289062 612.304688 L 2396.835938 1192.773438 " transform="matrix(0.1, 0, 0, -0.1, 0, 200)"/>
<path fill-rule="nonzero" fill="rgb(31.297302%, 63.867188%, 96.484375%)" fill-opacity="1" d="M 158.152344 189.253906 L 102.863281 192.285156 L 197.628906 138.769531 "/>
<path fill="none" stroke-width="9.16" stroke-linecap="round" stroke-linejoin="round" stroke="rgb(0%, 0%, 0%)" stroke-opacity="1" stroke-miterlimit="10" d="M 1581.523438 107.460938 L 1028.632812 77.148438 " transform="matrix(0.1, 0, 0, -0.1, 0, 200)"/>
<path fill-rule="nonzero" fill="rgb(31.297302%, 63.867188%, 96.484375%)" fill-opacity="1" stroke-width="9.16" stroke-linecap="round" stroke-linejoin="round" stroke="rgb(0%, 0%, 0%)" stroke-opacity="1" stroke-miterlimit="10" d="M 1976.289062 612.304688 L 2197.03125 466.210938 L 1581.523438 107.460938 " transform="matrix(0.1, 0, 0, -0.1, 0, 200)"/>
<path fill-rule="nonzero" fill="rgb(98.4375%, 90.625%, 60.546875%)" fill-opacity="1" d="M 35.21875 169.082031 L 7.363281 119.460938 L 23.597656 99.25 "/>
<path fill="none" stroke-width="9.16" stroke-linecap="round" stroke-linejoin="round" stroke="rgb(0%, 0%, 0%)" stroke-opacity="1" stroke-miterlimit="10" d="M 352.1875 309.179688 L 73.632812 805.390625 L 235.976562 1007.5 Z M 352.1875 309.179688 " transform="matrix(0.1, 0, 0, -0.1, 0, 200)"/>
<path fill-rule="nonzero" fill="rgb(69.334412%, 26.489258%, 0%)" fill-opacity="1" d="M 48.453125 54.835938 L 23.597656 99.25 L 7.363281 119.460938 "/>
<path fill="none" stroke-width="9.16" stroke-linecap="round" stroke-linejoin="round" stroke="rgb(0%, 0%, 0%)" stroke-opacity="1" stroke-miterlimit="10" d="M 484.53125 1451.640625 L 235.976562 1007.5 L 73.632812 805.390625 Z M 484.53125 1451.640625 " transform="matrix(0.1, 0, 0, -0.1, 0, 200)"/>
<path fill-rule="nonzero" fill="rgb(3.697205%, 52.539062%, 88.084412%)" fill-opacity="1" d="M 97.992188 28.429688 L 48.453125 54.835938 L 157.5625 20.757812 "/>
<path fill="none" stroke-width="9.16" stroke-linecap="round" stroke-linejoin="round" stroke="rgb(0%, 0%, 0%)" stroke-opacity="1" stroke-miterlimit="10" d="M 979.921875 1715.703125 L 484.53125 1451.640625 " transform="matrix(0.1, 0, 0, -0.1, 0, 200)"/>
<path fill-rule="nonzero" fill="rgb(3.697205%, 52.539062%, 88.084412%)" fill-opacity="1" stroke-width="9.16" stroke-linecap="round" stroke-linejoin="round" stroke="rgb(0%, 0%, 0%)" stroke-opacity="1" stroke-miterlimit="10" d="M 1575.625 1792.421875 L 1616.71875 1918.945312 L 979.921875 1715.703125 " transform="matrix(0.1, 0, 0, -0.1, 0, 200)"/>
<path fill-rule="nonzero" fill="rgb(66.40625%, 81.639099%, 37.792969%)" fill-opacity="1" d="M 43.265625 187.066406 L 7.363281 119.460938 L 35.21875 169.082031 "/>
<path fill="none" stroke-width="9.16" stroke-linecap="round" stroke-linejoin="round" stroke="rgb(0%, 0%, 0%)" stroke-opacity="1" stroke-miterlimit="10" d="M 432.65625 129.335938 L 73.632812 805.390625 L 352.1875 309.179688 Z M 432.65625 129.335938 " transform="matrix(0.1, 0, 0, -0.1, 0, 200)"/>
<path fill-rule="nonzero" fill="rgb(54.296875%, 91.014099%, 95.3125%)" fill-opacity="1" d="M 102.863281 192.285156 L 43.265625 187.066406 L 35.21875 169.082031 "/>
<path fill="none" stroke-width="9.16" stroke-linecap="round" stroke-linejoin="round" stroke="rgb(0%, 0%, 0%)" stroke-opacity="1" stroke-miterlimit="10" d="M 1028.632812 77.148438 L 432.65625 129.335938 L 352.1875 309.179688 Z M 1028.632812 77.148438 " transform="matrix(0.1, 0, 0, -0.1, 0, 200)"/>
<path fill-rule="nonzero" fill="rgb(45.701599%, 87.109375%, 94.726562%)" fill-opacity="1" stroke-width="9.16" stroke-linecap="round" stroke-linejoin="round" stroke="rgb(0%, 0%, 0%)" stroke-opacity="1" stroke-miterlimit="10" d="M 2388.476562 1627.5 L 2360.15625 1768.4375 L 1616.71875 1918.945312 " transform="matrix(0.1, 0, 0, -0.1, 0, 200)"/>
<path fill-rule="nonzero" fill="rgb(45.701599%, 87.109375%, 94.726562%)" fill-opacity="1" stroke-width="9.16" stroke-linecap="round" stroke-linejoin="round" stroke="rgb(0%, 0%, 0%)" stroke-opacity="1" stroke-miterlimit="10" d="M 1616.71875 1918.945312 L 1575.625 1792.421875 L 2388.476562 1627.5 " transform="matrix(0.1, 0, 0, -0.1, 0, 200)"/>
<path fill-rule="nonzero" fill="rgb(73.046875%, 83.396912%, 38.401794%)" fill-opacity="1" d="M 265.453125 90.195312 L 236.015625 23.15625 L 238.847656 37.25 "/>
<path fill="none" stroke-width="9.16" stroke-linecap="round" stroke-linejoin="round" stroke="rgb(0%, 0%, 0%)" stroke-opacity="1" stroke-miterlimit="10" d="M 2654.53125 1098.046875 L 2360.15625 1768.4375 L 2388.476562 1627.5 Z M 2654.53125 1098.046875 " transform="matrix(0.1, 0, 0, -0.1, 0, 200)"/>
<path fill-rule="nonzero" fill="rgb(14.793396%, 0%, 0%)" fill-opacity="1" stroke-width="9.16" stroke-linecap="round" stroke-linejoin="round" stroke="rgb(0%, 0%, 0%)" stroke-opacity="1" stroke-miterlimit="10" d="M 982.1875 165.507812 L 432.65625 129.335938 L 1028.632812 77.148438 " transform="matrix(0.1, 0, 0, -0.1, 0, 200)"/>
<path fill-rule="nonzero" fill="rgb(14.793396%, 0%, 0%)" fill-opacity="1" stroke-width="9.16" stroke-linecap="round" stroke-linejoin="round" stroke="rgb(0%, 0%, 0%)" stroke-opacity="1" stroke-miterlimit="10" d="M 1028.632812 77.148438 L 1581.523438 107.460938 L 982.1875 165.507812 " transform="matrix(0.1, 0, 0, -0.1, 0, 200)"/>
<path fill-rule="nonzero" fill="rgb(13.500977%, 35.009766%, 81.054688%)" fill-opacity="1" stroke-width="9.16" stroke-linecap="round" stroke-linejoin="round" stroke="rgb(0%, 0%, 0%)" stroke-opacity="1" stroke-miterlimit="10" d="M 815.195312 1477.03125 L 484.53125 1451.640625 L 73.632812 805.390625 " transform="matrix(0.1, 0, 0, -0.1, 0, 200)"/>
<path fill-rule="nonzero" fill="rgb(3.697205%, 52.539062%, 88.084412%)" fill-opacity="1" stroke-width="9.16" stroke-linecap="round" stroke-linejoin="round" stroke="rgb(0%, 0%, 0%)" stroke-opacity="1" stroke-miterlimit="10" d="M 484.53125 1451.640625 L 815.195312 1477.03125 L 1575.625 1792.421875 " transform="matrix(0.1, 0, 0, -0.1, 0, 200)"/>
<path fill-rule="nonzero" fill="rgb(0%, 0%, 43.701172%)" fill-opacity="1" d="M 219.703125 153.378906 L 265.453125 90.195312 L 245.84375 118.542969 "/>
<path fill="none" stroke-width="9.16" stroke-linecap="round" stroke-linejoin="round" stroke="rgb(0%, 0%, 0%)" stroke-opacity="1" stroke-miterlimit="10" d="M 2197.03125 466.210938 L 2654.53125 1098.046875 L 2458.4375 814.570312 Z M 2197.03125 466.210938 " transform="matrix(0.1, 0, 0, -0.1, 0, 200)"/>
<path fill-rule="nonzero" fill="rgb(99.21875%, 87.693787%, 58.789062%)" fill-opacity="1" d="M 265.453125 90.195312 L 238.847656 37.25 L 245.84375 118.542969 "/>
<path fill="none" stroke-width="9.16" stroke-linecap="round" stroke-linejoin="round" stroke="rgb(0%, 0%, 0%)" stroke-opacity="1" stroke-miterlimit="10" d="M 2654.53125 1098.046875 L 2388.476562 1627.5 L 2458.4375 814.570312 Z M 2654.53125 1098.046875 " transform="matrix(0.1, 0, 0, -0.1, 0, 200)"/>
<path fill-rule="nonzero" fill="rgb(70.701599%, 17.088318%, 0%)" fill-opacity="1" stroke-width="9.16" stroke-linecap="round" stroke-linejoin="round" stroke="rgb(0%, 0%, 0%)" stroke-opacity="1" stroke-miterlimit="10" d="M 1581.523438 107.460938 L 2197.03125 466.210938 L 2458.4375 814.570312 " transform="matrix(0.1, 0, 0, -0.1, 0, 200)"/>
<path fill-rule="nonzero" fill="rgb(8.909607%, 0%, 35.301208%)" fill-opacity="1" d="M 43.265625 187.066406 L 37.660156 122.558594 L 7.363281 119.460938 "/>
<path fill="none" stroke-width="9.16" stroke-linecap="round" stroke-linejoin="round" stroke="rgb(0%, 0%, 0%)" stroke-opacity="1" stroke-miterlimit="10" d="M 432.65625 129.335938 L 376.601562 774.414062 L 73.632812 805.390625 Z M 432.65625 129.335938 " transform="matrix(0.1, 0, 0, -0.1, 0, 200)"/>
<path fill-rule="nonzero" fill="rgb(13.500977%, 35.009766%, 81.054688%)" fill-opacity="1" stroke-width="9.16" stroke-linecap="round" stroke-linejoin="round" stroke="rgb(0%, 0%, 0%)" stroke-opacity="1" stroke-miterlimit="10" d="M 73.632812 805.390625 L 376.601562 774.414062 L 815.195312 1477.03125 " transform="matrix(0.1, 0, 0, -0.1, 0, 200)"/>
<path fill-rule="nonzero" fill="rgb(42.210388%, 19.309998%, 45.896912%)" fill-opacity="1" d="M 98.21875 183.449219 L 37.660156 122.558594 L 43.265625 187.066406 "/>
<path fill="none" stroke-width="9.16" stroke-linecap="round" stroke-linejoin="round" stroke="rgb(0%, 0%, 0%)" stroke-opacity="1" stroke-miterlimit="10" d="M 982.1875 165.507812 L 376.601562 774.414062 L 432.65625 129.335938 Z M 982.1875 165.507812 " transform="matrix(0.1, 0, 0, -0.1, 0, 200)"/>
<path fill-rule="nonzero" fill="rgb(63.867188%, 13.890076%, 4.499817%)" fill-opacity="1" d="M 158.152344 189.253906 L 180.003906 156.039062 L 98.21875 183.449219 "/>
<path fill="none" stroke-width="9.16" stroke-linecap="round" stroke-linejoin="round" stroke="rgb(0%, 0%, 0%)" stroke-opacity="1" stroke-miterlimit="10" d="M 1581.523438 107.460938 L 1800.039062 439.609375 L 982.1875 165.507812 Z M 1581.523438 107.460938 " transform="matrix(0.1, 0, 0, -0.1, 0, 200)"/>
<path fill-rule="nonzero" fill="rgb(70.701599%, 17.088318%, 0%)" fill-opacity="1" stroke-width="9.16" stroke-linecap="round" stroke-linejoin="round" stroke="rgb(0%, 0%, 0%)" stroke-opacity="1" stroke-miterlimit="10" d="M 2458.4375 814.570312 L 1800.039062 439.609375 L 1581.523438 107.460938 " transform="matrix(0.1, 0, 0, -0.1, 0, 200)"/>
<path fill-rule="nonzero" fill="rgb(68.554688%, 82.226562%, 94.921875%)" fill-opacity="1" d="M 157.5625 20.757812 L 191.859375 68.242188 L 238.847656 37.25 "/>
<path fill="none" stroke-width="9.16" stroke-linecap="round" stroke-linejoin="round" stroke="rgb(0%, 0%, 0%)" stroke-opacity="1" stroke-miterlimit="10" d="M 1575.625 1792.421875 L 1918.59375 1317.578125 L 2388.476562 1627.5 Z M 1575.625 1792.421875 " transform="matrix(0.1, 0, 0, -0.1, 0, 200)"/>
<path fill-rule="nonzero" fill="rgb(59.375%, 68.359375%, 90.429688%)" fill-opacity="1" stroke-width="9.16" stroke-linecap="round" stroke-linejoin="round" stroke="rgb(0%, 0%, 0%)" stroke-opacity="1" stroke-miterlimit="10" d="M 1106.328125 971.484375 L 1918.59375 1317.578125 L 1575.625 1792.421875 " transform="matrix(0.1, 0, 0, -0.1, 0, 200)"/>
<path fill-rule="nonzero" fill="rgb(59.375%, 68.359375%, 90.429688%)" fill-opacity="1" stroke-width="9.16" stroke-linecap="round" stroke-linejoin="round" stroke="rgb(0%, 0%, 0%)" stroke-opacity="1" stroke-miterlimit="10" d="M 1575.625 1792.421875 L 815.195312 1477.03125 L 1106.328125 971.484375 " transform="matrix(0.1, 0, 0, -0.1, 0, 200)"/>
<path fill-rule="nonzero" fill="rgb(90.234375%, 79.296875%, 73.046875%)" fill-opacity="1" d="M 245.84375 118.542969 L 238.847656 37.25 L 191.859375 68.242188 "/>
<path fill="none" stroke-width="9.16" stroke-linecap="round" stroke-linejoin="round" stroke="rgb(0%, 0%, 0%)" stroke-opacity="1" stroke-miterlimit="10" d="M 2458.4375 814.570312 L 2388.476562 1627.5 L 1918.59375 1317.578125 Z M 2458.4375 814.570312 " transform="matrix(0.1, 0, 0, -0.1, 0, 200)"/>
<path fill-rule="nonzero" fill="rgb(48.193359%, 54.296875%, 84.179688%)" fill-opacity="1" d="M 81.519531 52.296875 L 37.660156 122.558594 L 110.632812 102.851562 "/>
<path fill="none" stroke-width="9.16" stroke-linecap="round" stroke-linejoin="round" stroke="rgb(0%, 0%, 0%)" stroke-opacity="1" stroke-miterlimit="10" d="M 815.195312 1477.03125 L 376.601562 774.414062 L 1106.328125 971.484375 Z M 815.195312 1477.03125 " transform="matrix(0.1, 0, 0, -0.1, 0, 200)"/>
<path fill-rule="nonzero" fill="rgb(84.375%, 66.40625%, 65.818787%)" fill-opacity="1" d="M 245.84375 118.542969 L 191.859375 68.242188 L 180.003906 156.039062 "/>
<path fill="none" stroke-width="9.16" stroke-linecap="round" stroke-linejoin="round" stroke="rgb(0%, 0%, 0%)" stroke-opacity="1" stroke-miterlimit="10" d="M 2458.4375 814.570312 L 1918.59375 1317.578125 L 1800.039062 439.609375 Z M 2458.4375 814.570312 " transform="matrix(0.1, 0, 0, -0.1, 0, 200)"/>
<path fill-rule="nonzero" fill="rgb(57.8125%, 40.989685%, 61.71875%)" fill-opacity="1" d="M 98.21875 183.449219 L 110.632812 102.851562 L 37.660156 122.558594 "/>
<path fill="none" stroke-width="9.16" stroke-linecap="round" stroke-linejoin="round" stroke="rgb(0%, 0%, 0%)" stroke-opacity="1" stroke-miterlimit="10" d="M 982.1875 165.507812 L 1106.328125 971.484375 L 376.601562 774.414062 Z M 982.1875 165.507812 " transform="matrix(0.1, 0, 0, -0.1, 0, 200)"/>
<path fill-rule="nonzero" fill="rgb(68.75%, 48.608398%, 60.742188%)" fill-opacity="1" d="M 180.003906 156.039062 L 110.632812 102.851562 L 98.21875 183.449219 "/>
<path fill="none" stroke-width="9.16" stroke-linecap="round" stroke-linejoin="round" stroke="rgb(0%, 0%, 0%)" stroke-opacity="1" stroke-miterlimit="10" d="M 1800.039062 439.609375 L 1106.328125 971.484375 L 982.1875 165.507812 Z M 1800.039062 439.609375 " transform="matrix(0.1, 0, 0, -0.1, 0, 200)"/>
<path fill-rule="nonzero" fill="rgb(75.193787%, 60.15625%, 68.943787%)" fill-opacity="1" d="M 180.003906 156.039062 L 191.859375 68.242188 L 110.632812 102.851562 "/>
<path fill="none" stroke-width="9.16" stroke-linecap="round" stroke-linejoin="round" stroke="rgb(0%, 0%, 0%)" stroke-opacity="1" stroke-miterlimit="10" d="M 1800.039062 439.609375 L 1918.59375 1317.578125 L 1106.328125 971.484375 Z M 1800.039062 439.609375 " transform="matrix(0.1, 0, 0, -0.1, 0, 200)"/>
</svg>
