<?xml version="1.0" encoding="UTF-8"?>
<svg xmlns="http://www.w3.org/2000/svg" xmlns:xlink="http://www.w3.org/1999/xlink" width="229" height="200" viewBox="0 0 229 200">
<path fill="none" stroke-width="9.12638" stroke-linecap="round" stroke-linejoin="round" stroke="rgb(0%, 0%, 0%)" stroke-opacity="1" stroke-miterlimit="10" d="M 1093.242188 1444.882812 L 1300.234375 1444.882812 L 1364.179688 1641.679688 L 1196.757812 1763.320312 L 1029.335938 1641.679688 L 1093.242188 1444.882812 " transform="matrix(0.1, 0, 0, -0.1, 0, 200)"/>
<path fill="none" stroke-width="9.12638" stroke-linecap="round" stroke-linejoin="round" stroke="rgb(0%, 0%, 0%)" stroke-opacity="1" stroke-miterlimit="10" d="M 1300.234375 1444.882812 L 1093.242188 1444.882812 L 1093.242188 1237.929688 L 1300.234375 1237.929688 L 1300.234375 1444.882812 " transform="matrix(0.1, 0, 0, -0.1, 0, 200)"/>
<path fill="none" stroke-width="9.12638" stroke-linecap="round" stroke-linejoin="round" stroke="rgb(0%, 0%, 0%)" stroke-opacity="1" stroke-miterlimit="10" d="M 1300.234375 1444.882812 L 1300.234375 1237.929688 L 1479.453125 1341.40625 L 1300.234375 1444.882812 " transform="matrix(0.1, 0, 0, -0.1, 0, 200)"/>
<path fill="none" stroke-width="9.12638" stroke-linecap="round" stroke-linejoin="round" stroke="rgb(0%, 0%, 0%)" stroke-opacity="1" stroke-miterlimit="10" d="M 1364.179688 1641.679688 L 1300.234375 1444.882812 L 1497.03125 1380.898438 L 1560.976562 1577.734375 L 1364.179688 1641.679688 " transform="matrix(0.1, 0, 0, -0.1, 0, 200)"/>
<path fill="none" stroke-width="9.12638" stroke-linecap="round" stroke-linejoin="round" stroke="rgb(0%, 0%, 0%)" stroke-opacity="1" stroke-miterlimit="10" d="M 1364.179688 1641.679688 L 1560.976562 1577.734375 L 1517.96875 1780.15625 L 1364.179688 1641.679688 " transform="matrix(0.1, 0, 0, -0.1, 0, 200)"/>
<path fill="none" stroke-width="9.12638" stroke-linecap="round" stroke-linejoin="round" stroke="rgb(0%, 0%, 0%)" stroke-opacity="1" stroke-miterlimit="10" d="M 1196.757812 1763.320312 L 1364.179688 1641.679688 L 1485.78125 1809.101562 L 1318.398438 1930.742188 L 1196.757812 1763.320312 " transform="matrix(0.1, 0, 0, -0.1, 0, 200)"/>
<path fill="none" stroke-width="9.12638" stroke-linecap="round" stroke-linejoin="round" stroke="rgb(0%, 0%, 0%)" stroke-opacity="1" stroke-miterlimit="10" d="M 1196.757812 1763.320312 L 1318.398438 1930.742188 L 1112.539062 1952.382812 L 1196.757812 1763.320312 " transform="matrix(0.1, 0, 0, -0.1, 0, 200)"/>
<path fill="none" stroke-width="9.12638" stroke-linecap="round" stroke-linejoin="round" stroke="rgb(0%, 0%, 0%)" stroke-opacity="1" stroke-miterlimit="10" d="M 1029.335938 1641.679688 L 1196.757812 1763.320312 L 1075.078125 1930.742188 L 907.65625 1809.101562 L 1029.335938 1641.679688 " transform="matrix(0.1, 0, 0, -0.1, 0, 200)"/>
<path fill="none" stroke-width="9.12638" stroke-linecap="round" stroke-linejoin="round" stroke="rgb(0%, 0%, 0%)" stroke-opacity="1" stroke-miterlimit="10" d="M 1029.335938 1641.679688 L 907.65625 1809.101562 L 823.515625 1620.039062 L 1029.335938 1641.679688 " transform="matrix(0.1, 0, 0, -0.1, 0, 200)"/>
<path fill="none" stroke-width="9.12638" stroke-linecap="round" stroke-linejoin="round" stroke="rgb(0%, 0%, 0%)" stroke-opacity="1" stroke-miterlimit="10" d="M 1093.242188 1444.882812 L 1029.335938 1641.679688 L 832.5 1577.734375 L 896.445312 1380.898438 L 1093.242188 1444.882812 " transform="matrix(0.1, 0, 0, -0.1, 0, 200)"/>
<path fill="none" stroke-width="9.12638" stroke-linecap="round" stroke-linejoin="round" stroke="rgb(0%, 0%, 0%)" stroke-opacity="1" stroke-miterlimit="10" d="M 1093.242188 1444.882812 L 896.445312 1380.898438 L 1050.234375 1242.421875 L 1093.242188 1444.882812 " transform="matrix(0.1, 0, 0, -0.1, 0, 200)"/>
<path fill="none" stroke-width="9.12638" stroke-linecap="round" stroke-linejoin="round" stroke="rgb(0%, 0%, 0%)" stroke-opacity="1" stroke-miterlimit="10" d="M 1300.234375 740.234375 L 1111.171875 656.054688 L 1132.773438 450.234375 L 1335.195312 407.226562 L 1438.671875 586.445312 L 1300.234375 740.234375 " transform="matrix(0.1, 0, 0, -0.1, 0, 200)"/>
<path fill="none" stroke-width="9.12638" stroke-linecap="round" stroke-linejoin="round" stroke="rgb(0%, 0%, 0%)" stroke-opacity="1" stroke-miterlimit="10" d="M 1300.234375 740.234375 L 1467.65625 861.875 L 1403.671875 1058.710938 L 1196.757812 1058.710938 L 1132.773438 861.875 L 1300.234375 740.234375 " transform="matrix(0.1, 0, 0, -0.1, 0, 200)"/>
<path fill="none" stroke-width="9.12638" stroke-linecap="round" stroke-linejoin="round" stroke="rgb(0%, 0%, 0%)" stroke-opacity="1" stroke-miterlimit="10" d="M 1300.234375 740.234375 L 1132.773438 861.875 L 1111.171875 656.054688 L 1300.234375 740.234375 " transform="matrix(0.1, 0, 0, -0.1, 0, 200)"/>
<path fill="none" stroke-width="9.12638" stroke-linecap="round" stroke-linejoin="round" stroke="rgb(0%, 0%, 0%)" stroke-opacity="1" stroke-miterlimit="10" d="M 1132.773438 861.875 L 1196.757812 1058.710938 L 994.296875 1015.664062 L 1132.773438 861.875 " transform="matrix(0.1, 0, 0, -0.1, 0, 200)"/>
<path fill="none" stroke-width="9.12638" stroke-linecap="round" stroke-linejoin="round" stroke="rgb(0%, 0%, 0%)" stroke-opacity="1" stroke-miterlimit="10" d="M 1111.171875 656.054688 L 1047.226562 852.890625 L 840.234375 852.890625 L 776.328125 656.054688 L 943.75 534.414062 L 1111.171875 656.054688 " transform="matrix(0.1, 0, 0, -0.1, 0, 200)"/>
<path fill="none" stroke-width="9.12638" stroke-linecap="round" stroke-linejoin="round" stroke="rgb(0%, 0%, 0%)" stroke-opacity="1" stroke-miterlimit="10" d="M 1111.171875 656.054688 L 943.75 534.414062 L 1132.773438 450.234375 L 1111.171875 656.054688 " transform="matrix(0.1, 0, 0, -0.1, 0, 200)"/>
<path fill="none" stroke-width="9.12638" stroke-linecap="round" stroke-linejoin="round" stroke="rgb(0%, 0%, 0%)" stroke-opacity="1" stroke-miterlimit="10" d="M 943.75 534.414062 L 776.328125 656.054688 L 754.648438 450.234375 L 943.75 534.414062 " transform="matrix(0.1, 0, 0, -0.1, 0, 200)"/>
<path fill="none" stroke-width="9.12638" stroke-linecap="round" stroke-linejoin="round" stroke="rgb(0%, 0%, 0%)" stroke-opacity="1" stroke-miterlimit="10" d="M 1132.773438 450.234375 L 925.820312 450.234375 L 861.914062 253.4375 L 1029.335938 131.796875 L 1196.757812 253.4375 L 1132.773438 450.234375 " transform="matrix(0.1, 0, 0, -0.1, 0, 200)"/>
<path fill="none" stroke-width="9.12638" stroke-linecap="round" stroke-linejoin="round" stroke="rgb(0%, 0%, 0%)" stroke-opacity="1" stroke-miterlimit="10" d="M 1132.773438 450.234375 L 1196.757812 253.4375 L 1335.195312 407.226562 L 1132.773438 450.234375 " transform="matrix(0.1, 0, 0, -0.1, 0, 200)"/>
<path fill="none" stroke-width="9.12638" stroke-linecap="round" stroke-linejoin="round" stroke="rgb(0%, 0%, 0%)" stroke-opacity="1" stroke-miterlimit="10" d="M 1196.757812 253.4375 L 1029.335938 131.796875 L 1218.398438 47.617188 L 1196.757812 253.4375 " transform="matrix(0.1, 0, 0, -0.1, 0, 200)"/>
<path fill="none" stroke-width="9.12638" stroke-linecap="round" stroke-linejoin="round" stroke="rgb(0%, 0%, 0%)" stroke-opacity="1" stroke-miterlimit="10" d="M 1335.195312 407.226562 L 1271.25 210.390625 L 1438.671875 88.75 L 1606.09375 210.390625 L 1542.148438 407.226562 L 1335.195312 407.226562 " transform="matrix(0.1, 0, 0, -0.1, 0, 200)"/>
<path fill="none" stroke-width="9.12638" stroke-linecap="round" stroke-linejoin="round" stroke="rgb(0%, 0%, 0%)" stroke-opacity="1" stroke-miterlimit="10" d="M 1335.195312 407.226562 L 1542.148438 407.226562 L 1438.671875 586.445312 L 1335.195312 407.226562 " transform="matrix(0.1, 0, 0, -0.1, 0, 200)"/>
<path fill="none" stroke-width="9.12638" stroke-linecap="round" stroke-linejoin="round" stroke="rgb(0%, 0%, 0%)" stroke-opacity="1" stroke-miterlimit="10" d="M 1542.148438 407.226562 L 1606.09375 210.390625 L 1744.570312 364.179688 L 1542.148438 407.226562 " transform="matrix(0.1, 0, 0, -0.1, 0, 200)"/>
<path fill="none" stroke-width="9.12638" stroke-linecap="round" stroke-linejoin="round" stroke="rgb(0%, 0%, 0%)" stroke-opacity="1" stroke-miterlimit="10" d="M 1438.671875 586.445312 L 1606.09375 464.804688 L 1773.554688 586.445312 L 1709.570312 783.28125 L 1502.65625 783.28125 L 1438.671875 586.445312 " transform="matrix(0.1, 0, 0, -0.1, 0, 200)"/>
<path fill="none" stroke-width="9.12638" stroke-linecap="round" stroke-linejoin="round" stroke="rgb(0%, 0%, 0%)" stroke-opacity="1" stroke-miterlimit="10" d="M 1438.671875 586.445312 L 1502.65625 783.28125 L 1300.234375 740.234375 L 1438.671875 586.445312 " transform="matrix(0.1, 0, 0, -0.1, 0, 200)"/>
<path fill="none" stroke-width="9.12638" stroke-linecap="round" stroke-linejoin="round" stroke="rgb(0%, 0%, 0%)" stroke-opacity="1" stroke-miterlimit="10" d="M 1502.65625 783.28125 L 1709.570312 783.28125 L 1606.09375 962.5 L 1502.65625 783.28125 " transform="matrix(0.1, 0, 0, -0.1, 0, 200)"/>
<path fill="none" stroke-width="9.12638" stroke-linecap="round" stroke-linejoin="round" stroke="rgb(0%, 0%, 0%)" stroke-opacity="1" stroke-miterlimit="10" d="M 58.515625 1237.929688 L 161.992188 1058.710938 L 265.46875 1237.929688 L 58.515625 1237.929688 " transform="matrix(0.1, 0, 0, -0.1, 0, 200)"/>
<path fill="none" stroke-width="9.12638" stroke-linecap="round" stroke-linejoin="round" stroke="rgb(0%, 0%, 0%)" stroke-opacity="1" stroke-miterlimit="10" d="M 265.46875 1237.929688 L 161.992188 1058.710938 L 368.945312 1058.710938 L 265.46875 1237.929688 " transform="matrix(0.1, 0, 0, -0.1, 0, 200)"/>
<path fill="none" stroke-width="9.12638" stroke-linecap="round" stroke-linejoin="round" stroke="rgb(0%, 0%, 0%)" stroke-opacity="1" stroke-miterlimit="10" d="M 265.46875 1237.929688 L 368.945312 1058.710938 L 472.421875 1237.929688 L 265.46875 1237.929688 " transform="matrix(0.1, 0, 0, -0.1, 0, 200)"/>
<path fill="none" stroke-width="9.12638" stroke-linecap="round" stroke-linejoin="round" stroke="rgb(0%, 0%, 0%)" stroke-opacity="1" stroke-miterlimit="10" d="M 472.421875 1237.929688 L 368.945312 1058.710938 L 575.898438 1058.710938 L 472.421875 1237.929688 " transform="matrix(0.1, 0, 0, -0.1, 0, 200)"/>
<path fill="none" stroke-width="9.12638" stroke-linecap="round" stroke-linejoin="round" stroke="rgb(0%, 0%, 0%)" stroke-opacity="1" stroke-miterlimit="10" d="M 472.421875 1237.929688 L 575.898438 1058.710938 L 679.375 1237.929688 L 472.421875 1237.929688 " transform="matrix(0.1, 0, 0, -0.1, 0, 200)"/>
<path fill="none" stroke-width="9.12638" stroke-linecap="round" stroke-linejoin="round" stroke="rgb(0%, 0%, 0%)" stroke-opacity="1" stroke-miterlimit="10" d="M 679.375 1237.929688 L 575.898438 1058.710938 L 782.851562 1058.710938 L 679.375 1237.929688 " transform="matrix(0.1, 0, 0, -0.1, 0, 200)"/>
<path fill="none" stroke-width="9.12638" stroke-linecap="round" stroke-linejoin="round" stroke="rgb(0%, 0%, 0%)" stroke-opacity="1" stroke-miterlimit="10" d="M 679.375 1237.929688 L 782.851562 1058.710938 L 886.328125 1237.929688 L 679.375 1237.929688 " transform="matrix(0.1, 0, 0, -0.1, 0, 200)"/>
<path fill="none" stroke-width="9.12638" stroke-linecap="round" stroke-linejoin="round" stroke="rgb(0%, 0%, 0%)" stroke-opacity="1" stroke-miterlimit="10" d="M 886.328125 1237.929688 L 782.851562 1058.710938 L 989.765625 1058.710938 L 886.328125 1237.929688 " transform="matrix(0.1, 0, 0, -0.1, 0, 200)"/>
<path fill="none" stroke-width="9.12638" stroke-linecap="round" stroke-linejoin="round" stroke="rgb(0%, 0%, 0%)" stroke-opacity="1" stroke-miterlimit="10" d="M 886.328125 1237.929688 L 989.765625 1058.710938 L 1093.242188 1237.929688 L 886.328125 1237.929688 " transform="matrix(0.1, 0, 0, -0.1, 0, 200)"/>
<path fill="none" stroke-width="9.12638" stroke-linecap="round" stroke-linejoin="round" stroke="rgb(0%, 0%, 0%)" stroke-opacity="1" stroke-miterlimit="10" d="M 1093.242188 1237.929688 L 989.765625 1058.710938 L 1196.757812 1058.710938 L 1093.242188 1237.929688 " transform="matrix(0.1, 0, 0, -0.1, 0, 200)"/>
<path fill="none" stroke-width="9.12638" stroke-linecap="round" stroke-linejoin="round" stroke="rgb(0%, 0%, 0%)" stroke-opacity="1" stroke-miterlimit="10" d="M 1093.242188 1237.929688 L 1196.757812 1058.710938 L 1300.234375 1237.929688 L 1093.242188 1237.929688 " transform="matrix(0.1, 0, 0, -0.1, 0, 200)"/>
<path fill="none" stroke-width="9.12638" stroke-linecap="round" stroke-linejoin="round" stroke="rgb(0%, 0%, 0%)" stroke-opacity="1" stroke-miterlimit="10" d="M 1300.234375 1237.929688 L 1196.757812 1058.710938 L 1403.671875 1058.710938 L 1300.234375 1237.929688 " transform="matrix(0.1, 0, 0, -0.1, 0, 200)"/>
<path fill="none" stroke-width="9.12638" stroke-linecap="round" stroke-linejoin="round" stroke="rgb(0%, 0%, 0%)" stroke-opacity="1" stroke-miterlimit="10" d="M 1300.234375 1237.929688 L 1403.671875 1058.710938 L 1507.148438 1237.929688 L 1300.234375 1237.929688 " transform="matrix(0.1, 0, 0, -0.1, 0, 200)"/>
<path fill="none" stroke-width="9.12638" stroke-linecap="round" stroke-linejoin="round" stroke="rgb(0%, 0%, 0%)" stroke-opacity="1" stroke-miterlimit="10" d="M 1507.148438 1237.929688 L 1403.671875 1058.710938 L 1610.625 1058.710938 L 1507.148438 1237.929688 " transform="matrix(0.1, 0, 0, -0.1, 0, 200)"/>
<path fill="none" stroke-width="9.12638" stroke-linecap="round" stroke-linejoin="round" stroke="rgb(0%, 0%, 0%)" stroke-opacity="1" stroke-miterlimit="10" d="M 1507.148438 1237.929688 L 1610.625 1058.710938 L 1714.101562 1237.929688 L 1507.148438 1237.929688 " transform="matrix(0.1, 0, 0, -0.1, 0, 200)"/>
<path fill="none" stroke-width="9.12638" stroke-linecap="round" stroke-linejoin="round" stroke="rgb(0%, 0%, 0%)" stroke-opacity="1" stroke-miterlimit="10" d="M 1714.101562 1237.929688 L 1610.625 1058.710938 L 1817.578125 1058.710938 L 1714.101562 1237.929688 " transform="matrix(0.1, 0, 0, -0.1, 0, 200)"/>
<path fill="none" stroke-width="9.12638" stroke-linecap="round" stroke-linejoin="round" stroke="rgb(0%, 0%, 0%)" stroke-opacity="1" stroke-miterlimit="10" d="M 1714.101562 1237.929688 L 1817.578125 1058.710938 L 1921.054688 1237.929688 L 1714.101562 1237.929688 " transform="matrix(0.1, 0, 0, -0.1, 0, 200)"/>
<path fill="none" stroke-width="9.12638" stroke-linecap="round" stroke-linejoin="round" stroke="rgb(0%, 0%, 0%)" stroke-opacity="1" stroke-miterlimit="10" d="M 1921.054688 1237.929688 L 1817.578125 1058.710938 L 2024.53125 1058.710938 L 1921.054688 1237.929688 " transform="matrix(0.1, 0, 0, -0.1, 0, 200)"/>
<path fill="none" stroke-width="9.12638" stroke-linecap="round" stroke-linejoin="round" stroke="rgb(0%, 0%, 0%)" stroke-opacity="1" stroke-miterlimit="10" d="M 1921.054688 1237.929688 L 2024.53125 1058.710938 L 2128.007812 1237.929688 L 1921.054688 1237.929688 " transform="matrix(0.1, 0, 0, -0.1, 0, 200)"/>
<path fill="none" stroke-width="9.12638" stroke-linecap="round" stroke-linejoin="round" stroke="rgb(0%, 0%, 0%)" stroke-opacity="1" stroke-miterlimit="10" d="M 2128.007812 1237.929688 L 2024.53125 1058.710938 L 2231.484375 1058.710938 L 2128.007812 1237.929688 " transform="matrix(0.1, 0, 0, -0.1, 0, 200)"/>
</svg>
