<?xml version="1.0" encoding="UTF-8"?>
<svg xmlns="http://www.w3.org/2000/svg" xmlns:xlink="http://www.w3.org/1999/xlink" width="235" height="200" viewBox="0 0 235 200">
<path fill-rule="nonzero" fill="rgb(71.679688%, 74.609375%, 87.693787%)" fill-opacity="1" stroke-width="7.48" stroke-linecap="round" stroke-linejoin="round" stroke="rgb(0%, 0%, 0%)" stroke-opacity="1" stroke-miterlimit="10" d="M 448.4375 594.140625 L 858.789062 766.914062 L 1272.890625 532.5 " transform="matrix(0.1, 0, 0, -0.1, 0, 200)"/>
<path fill-rule="nonzero" fill="rgb(66.209412%, 59.179688%, 76.367188%)" fill-opacity="1" d="M 85.878906 123.308594 L 128.953125 98.351562 L 127.289062 146.75 "/>
<path fill="none" stroke-width="7.48" stroke-linecap="round" stroke-linejoin="round" stroke="rgb(0%, 0%, 0%)" stroke-opacity="1" stroke-miterlimit="10" d="M 858.789062 766.914062 L 1289.53125 1016.484375 L 1272.890625 532.5 Z M 858.789062 766.914062 " transform="matrix(0.1, 0, 0, -0.1, 0, 200)"/>
<path fill-rule="nonzero" fill="rgb(80.076599%, 69.726562%, 75%)" fill-opacity="1" d="M 48.257812 91.609375 L 85.878906 123.308594 L 44.84375 140.585938 "/>
<path fill="none" stroke-width="7.48" stroke-linecap="round" stroke-linejoin="round" stroke="rgb(0%, 0%, 0%)" stroke-opacity="1" stroke-miterlimit="10" d="M 482.578125 1083.90625 L 858.789062 766.914062 L 448.4375 594.140625 Z M 482.578125 1083.90625 " transform="matrix(0.1, 0, 0, -0.1, 0, 200)"/>
<path fill-rule="nonzero" fill="rgb(72.65625%, 55.46875%, 65.818787%)" fill-opacity="1" stroke-width="7.48" stroke-linecap="round" stroke-linejoin="round" stroke="rgb(0%, 0%, 0%)" stroke-opacity="1" stroke-miterlimit="10" d="M 1289.53125 1016.484375 L 858.789062 766.914062 L 482.578125 1083.90625 " transform="matrix(0.1, 0, 0, -0.1, 0, 200)"/>
<path fill-rule="nonzero" fill="rgb(65.234375%, 48.388672%, 64.256287%)" fill-opacity="1" d="M 166.171875 69.019531 L 128.953125 98.351562 L 119.074219 50.421875 "/>
<path fill="none" stroke-width="7.48" stroke-linecap="round" stroke-linejoin="round" stroke="rgb(0%, 0%, 0%)" stroke-opacity="1" stroke-miterlimit="10" d="M 1661.71875 1309.804688 L 1289.53125 1016.484375 L 1190.742188 1495.78125 Z M 1661.71875 1309.804688 " transform="matrix(0.1, 0, 0, -0.1, 0, 200)"/>
<path fill-rule="nonzero" fill="rgb(60.546875%, 49.19281%, 69.726562%)" fill-opacity="1" d="M 170.605469 120.054688 L 128.953125 98.351562 L 166.171875 69.019531 "/>
<path fill="none" stroke-width="7.48" stroke-linecap="round" stroke-linejoin="round" stroke="rgb(0%, 0%, 0%)" stroke-opacity="1" stroke-miterlimit="10" d="M 1706.054688 799.453125 L 1289.53125 1016.484375 L 1661.71875 1309.804688 Z M 1706.054688 799.453125 " transform="matrix(0.1, 0, 0, -0.1, 0, 200)"/>
<path fill-rule="nonzero" fill="rgb(64.0625%, 57.421875%, 76.367188%)" fill-opacity="1" d="M 170.605469 120.054688 L 127.289062 146.75 L 128.953125 98.351562 "/>
<path fill="none" stroke-width="7.48" stroke-linecap="round" stroke-linejoin="round" stroke="rgb(0%, 0%, 0%)" stroke-opacity="1" stroke-miterlimit="10" d="M 1706.054688 799.453125 L 1272.890625 532.5 L 1289.53125 1016.484375 Z M 1706.054688 799.453125 " transform="matrix(0.1, 0, 0, -0.1, 0, 200)"/>
<path fill-rule="nonzero" fill="rgb(72.65625%, 55.46875%, 65.818787%)" fill-opacity="1" d="M 119.074219 50.421875 L 128.953125 98.351562 L 48.257812 91.609375 "/>
<path fill="none" stroke-width="7.48" stroke-linecap="round" stroke-linejoin="round" stroke="rgb(0%, 0%, 0%)" stroke-opacity="1" stroke-miterlimit="10" d="M 1190.742188 1495.78125 L 1289.53125 1016.484375 " transform="matrix(0.1, 0, 0, -0.1, 0, 200)"/>
<path fill-rule="nonzero" fill="rgb(72.65625%, 55.46875%, 65.818787%)" fill-opacity="1" stroke-width="7.48" stroke-linecap="round" stroke-linejoin="round" stroke="rgb(0%, 0%, 0%)" stroke-opacity="1" stroke-miterlimit="10" d="M 482.578125 1083.90625 L 685 1542.382812 L 1190.742188 1495.78125 " transform="matrix(0.1, 0, 0, -0.1, 0, 200)"/>
<path fill-rule="nonzero" fill="rgb(84.179688%, 59.959412%, 57.226562%)" fill-opacity="1" d="M 25.550781 60.5 L 68.5 45.761719 L 48.257812 91.609375 "/>
<path fill="none" stroke-width="7.48" stroke-linecap="round" stroke-linejoin="round" stroke="rgb(0%, 0%, 0%)" stroke-opacity="1" stroke-miterlimit="10" d="M 255.507812 1395 L 685 1542.382812 L 482.578125 1083.90625 Z M 255.507812 1395 " transform="matrix(0.1, 0, 0, -0.1, 0, 200)"/>
<path fill-rule="nonzero" fill="rgb(95.3125%, 80.46875%, 65.818787%)" fill-opacity="1" d="M 48.257812 91.609375 L 44.84375 140.585938 L 5.699219 91.726562 "/>
<path fill="none" stroke-width="7.48" stroke-linecap="round" stroke-linejoin="round" stroke="rgb(0%, 0%, 0%)" stroke-opacity="1" stroke-miterlimit="10" d="M 482.578125 1083.90625 L 448.4375 594.140625 " transform="matrix(0.1, 0, 0, -0.1, 0, 200)"/>
<path fill-rule="nonzero" fill="rgb(95.3125%, 80.46875%, 65.818787%)" fill-opacity="1" stroke-width="7.48" stroke-linecap="round" stroke-linejoin="round" stroke="rgb(0%, 0%, 0%)" stroke-opacity="1" stroke-miterlimit="10" d="M 56.992188 1082.734375 L 255.507812 1395 L 482.578125 1083.90625 " transform="matrix(0.1, 0, 0, -0.1, 0, 200)"/>
<path fill-rule="nonzero" fill="rgb(65.234375%, 35.400391%, 45.188904%)" fill-opacity="1" d="M 152.414062 25.449219 L 119.074219 50.421875 L 99.996094 17.066406 "/>
<path fill="none" stroke-width="7.48" stroke-linecap="round" stroke-linejoin="round" stroke="rgb(0%, 0%, 0%)" stroke-opacity="1" stroke-miterlimit="10" d="M 1524.140625 1745.507812 L 1190.742188 1495.78125 L 999.960938 1829.335938 Z M 1524.140625 1745.507812 " transform="matrix(0.1, 0, 0, -0.1, 0, 200)"/>
<path fill-rule="nonzero" fill="rgb(60.546875%, 37.889099%, 54.492188%)" fill-opacity="1" d="M 166.171875 69.019531 L 119.074219 50.421875 L 152.414062 25.449219 "/>
<path fill="none" stroke-width="7.48" stroke-linecap="round" stroke-linejoin="round" stroke="rgb(0%, 0%, 0%)" stroke-opacity="1" stroke-miterlimit="10" d="M 1661.71875 1309.804688 L 1190.742188 1495.78125 L 1524.140625 1745.507812 Z M 1661.71875 1309.804688 " transform="matrix(0.1, 0, 0, -0.1, 0, 200)"/>
<path fill-rule="nonzero" fill="rgb(68.164062%, 38.792419%, 46.99707%)" fill-opacity="1" d="M 68.5 45.761719 L 99.996094 17.066406 L 119.074219 50.421875 "/>
<path fill="none" stroke-width="7.48" stroke-linecap="round" stroke-linejoin="round" stroke="rgb(0%, 0%, 0%)" stroke-opacity="1" stroke-miterlimit="10" d="M 685 1542.382812 L 999.960938 1829.335938 L 1190.742188 1495.78125 Z M 685 1542.382812 " transform="matrix(0.1, 0, 0, -0.1, 0, 200)"/>
<path fill-rule="nonzero" fill="rgb(60.546875%, 68.359375%, 89.84375%)" fill-opacity="1" d="M 164.421875 164.21875 L 113.910156 181.257812 L 127.289062 146.75 "/>
<path fill="none" stroke-width="7.48" stroke-linecap="round" stroke-linejoin="round" stroke="rgb(0%, 0%, 0%)" stroke-opacity="1" stroke-miterlimit="10" d="M 1644.21875 357.8125 L 1139.101562 187.421875 L 1272.890625 532.5 Z M 1644.21875 357.8125 " transform="matrix(0.1, 0, 0, -0.1, 0, 200)"/>
<path fill-rule="nonzero" fill="rgb(57.617188%, 58.59375%, 82.421875%)" fill-opacity="1" d="M 164.421875 164.21875 L 127.289062 146.75 L 170.605469 120.054688 "/>
<path fill="none" stroke-width="7.48" stroke-linecap="round" stroke-linejoin="round" stroke="rgb(0%, 0%, 0%)" stroke-opacity="1" stroke-miterlimit="10" d="M 1644.21875 357.8125 L 1272.890625 532.5 L 1706.054688 799.453125 Z M 1644.21875 357.8125 " transform="matrix(0.1, 0, 0, -0.1, 0, 200)"/>
<path fill-rule="nonzero" fill="rgb(71.679688%, 74.609375%, 87.693787%)" fill-opacity="1" d="M 127.289062 146.75 L 113.910156 181.257812 L 44.84375 140.585938 "/>
<path fill="none" stroke-width="7.48" stroke-linecap="round" stroke-linejoin="round" stroke="rgb(0%, 0%, 0%)" stroke-opacity="1" stroke-miterlimit="10" d="M 1272.890625 532.5 L 1139.101562 187.421875 " transform="matrix(0.1, 0, 0, -0.1, 0, 200)"/>
<path fill-rule="nonzero" fill="rgb(57.617188%, 34.788513%, 53.318787%)" fill-opacity="1" d="M 200.621094 47.171875 L 166.171875 69.019531 L 152.414062 25.449219 "/>
<path fill="none" stroke-width="7.48" stroke-linecap="round" stroke-linejoin="round" stroke="rgb(0%, 0%, 0%)" stroke-opacity="1" stroke-miterlimit="10" d="M 2006.210938 1528.28125 L 1661.71875 1309.804688 L 1524.140625 1745.507812 Z M 2006.210938 1528.28125 " transform="matrix(0.1, 0, 0, -0.1, 0, 200)"/>
<path fill-rule="nonzero" fill="rgb(48.706055%, 38.792419%, 66.796875%)" fill-opacity="1" stroke-width="7.48" stroke-linecap="round" stroke-linejoin="round" stroke="rgb(0%, 0%, 0%)" stroke-opacity="1" stroke-miterlimit="10" d="M 1661.71875 1309.804688 L 2006.210938 1528.28125 L 2286.367188 1121.71875 " transform="matrix(0.1, 0, 0, -0.1, 0, 200)"/>
<path fill-rule="nonzero" fill="rgb(48.706055%, 38.792419%, 66.796875%)" fill-opacity="1" d="M 170.605469 120.054688 L 166.171875 69.019531 L 228.636719 87.828125 "/>
<path fill="none" stroke-width="7.48" stroke-linecap="round" stroke-linejoin="round" stroke="rgb(0%, 0%, 0%)" stroke-opacity="1" stroke-miterlimit="10" d="M 1706.054688 799.453125 L 1661.71875 1309.804688 " transform="matrix(0.1, 0, 0, -0.1, 0, 200)"/>
<path fill-rule="nonzero" fill="rgb(75.78125%, 28.001404%, 10.400391%)" fill-opacity="1" stroke-width="7.48" stroke-linecap="round" stroke-linejoin="round" stroke="rgb(0%, 0%, 0%)" stroke-opacity="1" stroke-miterlimit="10" d="M 999.960938 1829.335938 L 685 1542.382812 L 255.507812 1395 " transform="matrix(0.1, 0, 0, -0.1, 0, 200)"/>
<path fill-rule="nonzero" fill="rgb(48.706055%, 38.792419%, 66.796875%)" fill-opacity="1" stroke-width="7.48" stroke-linecap="round" stroke-linejoin="round" stroke="rgb(0%, 0%, 0%)" stroke-opacity="1" stroke-miterlimit="10" d="M 2286.367188 1121.71875 L 2082.695312 660.117188 L 1706.054688 799.453125 " transform="matrix(0.1, 0, 0, -0.1, 0, 200)"/>
<path fill-rule="nonzero" fill="rgb(54.492188%, 56.054688%, 82.226562%)" fill-opacity="1" d="M 208.269531 133.988281 L 164.421875 164.21875 L 170.605469 120.054688 "/>
<path fill="none" stroke-width="7.48" stroke-linecap="round" stroke-linejoin="round" stroke="rgb(0%, 0%, 0%)" stroke-opacity="1" stroke-miterlimit="10" d="M 2082.695312 660.117188 L 1644.21875 357.8125 L 1706.054688 799.453125 Z M 2082.695312 660.117188 " transform="matrix(0.1, 0, 0, -0.1, 0, 200)"/>
<path fill-rule="nonzero" fill="rgb(86.71875%, 93.164062%, 86.326599%)" fill-opacity="1" d="M 44.84375 140.585938 L 60.3125 177.59375 L 18.816406 143.988281 "/>
<path fill="none" stroke-width="7.48" stroke-linecap="round" stroke-linejoin="round" stroke="rgb(0%, 0%, 0%)" stroke-opacity="1" stroke-miterlimit="10" d="M 448.4375 594.140625 L 603.125 224.0625 L 188.164062 560.117188 Z M 448.4375 594.140625 " transform="matrix(0.1, 0, 0, -0.1, 0, 200)"/>
<path fill-rule="nonzero" fill="rgb(71.679688%, 74.609375%, 87.693787%)" fill-opacity="1" stroke-width="7.48" stroke-linecap="round" stroke-linejoin="round" stroke="rgb(0%, 0%, 0%)" stroke-opacity="1" stroke-miterlimit="10" d="M 1139.101562 187.421875 L 603.125 224.0625 L 448.4375 594.140625 " transform="matrix(0.1, 0, 0, -0.1, 0, 200)"/>
<path fill-rule="nonzero" fill="rgb(95.3125%, 80.46875%, 65.818787%)" fill-opacity="1" stroke-width="7.48" stroke-linecap="round" stroke-linejoin="round" stroke="rgb(0%, 0%, 0%)" stroke-opacity="1" stroke-miterlimit="10" d="M 448.4375 594.140625 L 188.164062 560.117188 L 56.992188 1082.734375 " transform="matrix(0.1, 0, 0, -0.1, 0, 200)"/>
<path fill-rule="nonzero" fill="rgb(52.34375%, 9.397888%, 16.697693%)" fill-opacity="1" d="M 152.414062 25.449219 L 99.996094 17.066406 L 132.675781 3.757812 "/>
<path fill="none" stroke-width="7.48" stroke-linecap="round" stroke-linejoin="round" stroke="rgb(0%, 0%, 0%)" stroke-opacity="1" stroke-miterlimit="10" d="M 1524.140625 1745.507812 L 999.960938 1829.335938 L 1326.757812 1962.421875 Z M 1524.140625 1745.507812 " transform="matrix(0.1, 0, 0, -0.1, 0, 200)"/>
<path fill-rule="nonzero" fill="rgb(18.309021%, 0%, 0%)" fill-opacity="1" d="M 152.414062 25.449219 L 132.675781 3.757812 L 216.152344 41.070312 "/>
<path fill="none" stroke-width="7.48" stroke-linecap="round" stroke-linejoin="round" stroke="rgb(0%, 0%, 0%)" stroke-opacity="1" stroke-miterlimit="10" d="M 1524.140625 1745.507812 L 1326.757812 1962.421875 " transform="matrix(0.1, 0, 0, -0.1, 0, 200)"/>
<path fill-rule="nonzero" fill="rgb(18.309021%, 0%, 0%)" fill-opacity="1" stroke-width="7.48" stroke-linecap="round" stroke-linejoin="round" stroke="rgb(0%, 0%, 0%)" stroke-opacity="1" stroke-miterlimit="10" d="M 2161.523438 1589.296875 L 2006.210938 1528.28125 L 1524.140625 1745.507812 " transform="matrix(0.1, 0, 0, -0.1, 0, 200)"/>
<path fill-rule="nonzero" fill="rgb(75.78125%, 28.001404%, 10.400391%)" fill-opacity="1" d="M 76.925781 11.886719 L 99.996094 17.066406 L 25.550781 60.5 "/>
<path fill="none" stroke-width="7.48" stroke-linecap="round" stroke-linejoin="round" stroke="rgb(0%, 0%, 0%)" stroke-opacity="1" stroke-miterlimit="10" d="M 769.257812 1881.132812 L 999.960938 1829.335938 " transform="matrix(0.1, 0, 0, -0.1, 0, 200)"/>
<path fill-rule="nonzero" fill="rgb(75.78125%, 28.001404%, 10.400391%)" fill-opacity="1" stroke-width="7.48" stroke-linecap="round" stroke-linejoin="round" stroke="rgb(0%, 0%, 0%)" stroke-opacity="1" stroke-miterlimit="10" d="M 255.507812 1395 L 276.71875 1593.359375 L 769.257812 1881.132812 " transform="matrix(0.1, 0, 0, -0.1, 0, 200)"/>
<path fill-rule="nonzero" fill="rgb(86.71875%, 48.802185%, 0.59967%)" fill-opacity="1" d="M 5.699219 91.726562 L 27.671875 40.664062 L 25.550781 60.5 "/>
<path fill="none" stroke-width="7.48" stroke-linecap="round" stroke-linejoin="round" stroke="rgb(0%, 0%, 0%)" stroke-opacity="1" stroke-miterlimit="10" d="M 56.992188 1082.734375 L 276.71875 1593.359375 L 255.507812 1395 Z M 56.992188 1082.734375 " transform="matrix(0.1, 0, 0, -0.1, 0, 200)"/>
<path fill-rule="nonzero" fill="rgb(41.308594%, 69.139099%, 97.65625%)" fill-opacity="1" d="M 148.390625 186.699219 L 113.910156 181.257812 L 164.421875 164.21875 "/>
<path fill="none" stroke-width="7.48" stroke-linecap="round" stroke-linejoin="round" stroke="rgb(0%, 0%, 0%)" stroke-opacity="1" stroke-miterlimit="10" d="M 1483.90625 133.007812 L 1139.101562 187.421875 L 1644.21875 357.8125 Z M 1483.90625 133.007812 " transform="matrix(0.1, 0, 0, -0.1, 0, 200)"/>
<path fill-rule="nonzero" fill="rgb(1.699829%, 40.989685%, 85.742188%)" fill-opacity="1" stroke-width="7.48" stroke-linecap="round" stroke-linejoin="round" stroke="rgb(0%, 0%, 0%)" stroke-opacity="1" stroke-miterlimit="10" d="M 1644.21875 357.8125 L 2082.695312 660.117188 L 2244.375 654.921875 " transform="matrix(0.1, 0, 0, -0.1, 0, 200)"/>
<path fill-rule="nonzero" fill="rgb(1.699829%, 40.989685%, 85.742188%)" fill-opacity="1" d="M 148.390625 186.699219 L 164.421875 164.21875 L 224.4375 134.507812 "/>
<path fill="none" stroke-width="7.48" stroke-linecap="round" stroke-linejoin="round" stroke="rgb(0%, 0%, 0%)" stroke-opacity="1" stroke-miterlimit="10" d="M 1483.90625 133.007812 L 1644.21875 357.8125 " transform="matrix(0.1, 0, 0, -0.1, 0, 200)"/>
<path fill-rule="nonzero" fill="rgb(47.093201%, 0%, 0%)" fill-opacity="1" d="M 132.675781 3.757812 L 99.996094 17.066406 L 76.925781 11.886719 "/>
<path fill="none" stroke-width="7.48" stroke-linecap="round" stroke-linejoin="round" stroke="rgb(0%, 0%, 0%)" stroke-opacity="1" stroke-miterlimit="10" d="M 1326.757812 1962.421875 L 999.960938 1829.335938 L 769.257812 1881.132812 Z M 1326.757812 1962.421875 " transform="matrix(0.1, 0, 0, -0.1, 0, 200)"/>
<path fill-rule="nonzero" fill="rgb(28.001404%, 75.976562%, 92.96875%)" fill-opacity="1" d="M 148.390625 186.699219 L 91.683594 187.6875 L 113.910156 181.257812 "/>
<path fill="none" stroke-width="7.48" stroke-linecap="round" stroke-linejoin="round" stroke="rgb(0%, 0%, 0%)" stroke-opacity="1" stroke-miterlimit="10" d="M 1483.90625 133.007812 L 916.835938 123.125 L 1139.101562 187.421875 Z M 1483.90625 133.007812 " transform="matrix(0.1, 0, 0, -0.1, 0, 200)"/>
<path fill-rule="nonzero" fill="rgb(40.306091%, 83.006287%, 96.09375%)" fill-opacity="1" d="M 60.3125 177.59375 L 113.910156 181.257812 L 91.683594 187.6875 "/>
<path fill="none" stroke-width="7.48" stroke-linecap="round" stroke-linejoin="round" stroke="rgb(0%, 0%, 0%)" stroke-opacity="1" stroke-miterlimit="10" d="M 603.125 224.0625 L 1139.101562 187.421875 L 916.835938 123.125 Z M 603.125 224.0625 " transform="matrix(0.1, 0, 0, -0.1, 0, 200)"/>
<path fill-rule="nonzero" fill="rgb(6.809998%, 0%, 29.588318%)" fill-opacity="1" d="M 228.636719 87.828125 L 200.621094 47.171875 L 216.152344 41.070312 "/>
<path fill="none" stroke-width="7.48" stroke-linecap="round" stroke-linejoin="round" stroke="rgb(0%, 0%, 0%)" stroke-opacity="1" stroke-miterlimit="10" d="M 2286.367188 1121.71875 L 2006.210938 1528.28125 L 2161.523438 1589.296875 Z M 2286.367188 1121.71875 " transform="matrix(0.1, 0, 0, -0.1, 0, 200)"/>
<path fill-rule="nonzero" fill="rgb(0.698853%, 12.304688%, 63.671875%)" fill-opacity="1" d="M 224.4375 134.507812 L 208.269531 133.988281 L 228.636719 87.828125 "/>
<path fill="none" stroke-width="7.48" stroke-linecap="round" stroke-linejoin="round" stroke="rgb(0%, 0%, 0%)" stroke-opacity="1" stroke-miterlimit="10" d="M 2244.375 654.921875 L 2082.695312 660.117188 L 2286.367188 1121.71875 Z M 2244.375 654.921875 " transform="matrix(0.1, 0, 0, -0.1, 0, 200)"/>
<path fill-rule="nonzero" fill="rgb(11.401367%, 0%, 0%)" fill-opacity="1" stroke-width="7.48" stroke-linecap="round" stroke-linejoin="round" stroke="rgb(0%, 0%, 0%)" stroke-opacity="1" stroke-miterlimit="10" d="M 188.164062 560.117188 L 603.125 224.0625 L 916.835938 123.125 " transform="matrix(0.1, 0, 0, -0.1, 0, 200)"/>
<path fill-rule="nonzero" fill="rgb(0%, 0%, 4.998779%)" fill-opacity="1" d="M 18.816406 143.988281 L 20.515625 129.578125 L 5.699219 91.726562 "/>
<path fill="none" stroke-width="7.48" stroke-linecap="round" stroke-linejoin="round" stroke="rgb(0%, 0%, 0%)" stroke-opacity="1" stroke-miterlimit="10" d="M 188.164062 560.117188 L 205.15625 704.21875 L 56.992188 1082.734375 Z M 188.164062 560.117188 " transform="matrix(0.1, 0, 0, -0.1, 0, 200)"/>
<path fill-rule="nonzero" fill="rgb(11.401367%, 0%, 0%)" fill-opacity="1" stroke-width="7.48" stroke-linecap="round" stroke-linejoin="round" stroke="rgb(0%, 0%, 0%)" stroke-opacity="1" stroke-miterlimit="10" d="M 682.851562 422.03125 L 205.15625 704.21875 L 188.164062 560.117188 " transform="matrix(0.1, 0, 0, -0.1, 0, 200)"/>
<path fill-rule="nonzero" fill="rgb(11.401367%, 0%, 0%)" fill-opacity="1" d="M 91.683594 187.6875 L 68.285156 157.796875 L 18.816406 143.988281 "/>
<path fill="none" stroke-width="7.48" stroke-linecap="round" stroke-linejoin="round" stroke="rgb(0%, 0%, 0%)" stroke-opacity="1" stroke-miterlimit="10" d="M 916.835938 123.125 L 682.851562 422.03125 " transform="matrix(0.1, 0, 0, -0.1, 0, 200)"/>
<path fill-rule="nonzero" fill="rgb(99.609375%, 85.351562%, 52.539062%)" fill-opacity="1" stroke-width="7.48" stroke-linecap="round" stroke-linejoin="round" stroke="rgb(0%, 0%, 0%)" stroke-opacity="1" stroke-miterlimit="10" d="M 2286.367188 1121.71875 L 2161.523438 1589.296875 L 2024.570312 1434.375 " transform="matrix(0.1, 0, 0, -0.1, 0, 200)"/>
<path fill-rule="nonzero" fill="rgb(99.609375%, 85.351562%, 52.539062%)" fill-opacity="1" d="M 224.4375 134.507812 L 228.636719 87.828125 L 202.457031 56.5625 "/>
<path fill="none" stroke-width="7.48" stroke-linecap="round" stroke-linejoin="round" stroke="rgb(0%, 0%, 0%)" stroke-opacity="1" stroke-miterlimit="10" d="M 2244.375 654.921875 L 2286.367188 1121.71875 " transform="matrix(0.1, 0, 0, -0.1, 0, 200)"/>
<path fill-rule="nonzero" fill="rgb(35.105896%, 35.78949%, 72.65625%)" fill-opacity="1" stroke-width="7.48" stroke-linecap="round" stroke-linejoin="round" stroke="rgb(0%, 0%, 0%)" stroke-opacity="1" stroke-miterlimit="10" d="M 586.914062 1574.453125 L 276.71875 1593.359375 L 56.992188 1082.734375 " transform="matrix(0.1, 0, 0, -0.1, 0, 200)"/>
<path fill-rule="nonzero" fill="rgb(35.105896%, 35.78949%, 72.65625%)" fill-opacity="1" d="M 54.851562 100.285156 L 58.691406 42.554688 L 5.699219 91.726562 "/>
<path fill="none" stroke-width="7.48" stroke-linecap="round" stroke-linejoin="round" stroke="rgb(0%, 0%, 0%)" stroke-opacity="1" stroke-miterlimit="10" d="M 548.515625 997.148438 L 586.914062 1574.453125 " transform="matrix(0.1, 0, 0, -0.1, 0, 200)"/>
<path fill-rule="nonzero" fill="rgb(35.105896%, 35.78949%, 72.65625%)" fill-opacity="1" stroke-width="7.48" stroke-linecap="round" stroke-linejoin="round" stroke="rgb(0%, 0%, 0%)" stroke-opacity="1" stroke-miterlimit="10" d="M 56.992188 1082.734375 L 205.15625 704.21875 L 548.515625 997.148438 " transform="matrix(0.1, 0, 0, -0.1, 0, 200)"/>
<path fill-rule="nonzero" fill="rgb(30.809021%, 73.4375%, 97.264099%)" fill-opacity="1" d="M 132.675781 3.757812 L 76.925781 11.886719 L 113.328125 16.1875 "/>
<path fill="none" stroke-width="7.48" stroke-linecap="round" stroke-linejoin="round" stroke="rgb(0%, 0%, 0%)" stroke-opacity="1" stroke-miterlimit="10" d="M 1326.757812 1962.421875 L 769.257812 1881.132812 L 1133.28125 1838.125 Z M 1326.757812 1962.421875 " transform="matrix(0.1, 0, 0, -0.1, 0, 200)"/>
<path fill-rule="nonzero" fill="rgb(18.309021%, 0%, 0%)" fill-opacity="1" stroke-width="7.48" stroke-linecap="round" stroke-linejoin="round" stroke="rgb(0%, 0%, 0%)" stroke-opacity="1" stroke-miterlimit="10" d="M 1326.757812 1962.421875 L 1722.578125 1875.195312 L 2161.523438 1589.296875 " transform="matrix(0.1, 0, 0, -0.1, 0, 200)"/>
<path fill-rule="nonzero" fill="rgb(41.308594%, 79.881287%, 99.021912%)" fill-opacity="1" d="M 172.257812 12.480469 L 132.675781 3.757812 L 113.328125 16.1875 "/>
<path fill="none" stroke-width="7.48" stroke-linecap="round" stroke-linejoin="round" stroke="rgb(0%, 0%, 0%)" stroke-opacity="1" stroke-miterlimit="10" d="M 1722.578125 1875.195312 L 1326.757812 1962.421875 L 1133.28125 1838.125 Z M 1722.578125 1875.195312 " transform="matrix(0.1, 0, 0, -0.1, 0, 200)"/>
<path fill-rule="nonzero" fill="rgb(47.801208%, 0%, 0%)" fill-opacity="1" d="M 126.835938 174.746094 L 91.683594 187.6875 L 148.390625 186.699219 "/>
<path fill="none" stroke-width="7.48" stroke-linecap="round" stroke-linejoin="round" stroke="rgb(0%, 0%, 0%)" stroke-opacity="1" stroke-miterlimit="10" d="M 1268.359375 252.539062 L 916.835938 123.125 L 1483.90625 133.007812 Z M 1268.359375 252.539062 " transform="matrix(0.1, 0, 0, -0.1, 0, 200)"/>
<path fill-rule="nonzero" fill="rgb(1.699829%, 40.989685%, 85.742188%)" fill-opacity="1" stroke-width="7.48" stroke-linecap="round" stroke-linejoin="round" stroke="rgb(0%, 0%, 0%)" stroke-opacity="1" stroke-miterlimit="10" d="M 2244.375 654.921875 L 1859.0625 310.46875 L 1483.90625 133.007812 " transform="matrix(0.1, 0, 0, -0.1, 0, 200)"/>
<path fill-rule="nonzero" fill="rgb(56.25%, 4.598999%, 0%)" fill-opacity="1" d="M 185.90625 168.953125 L 126.835938 174.746094 L 148.390625 186.699219 "/>
<path fill="none" stroke-width="7.48" stroke-linecap="round" stroke-linejoin="round" stroke="rgb(0%, 0%, 0%)" stroke-opacity="1" stroke-miterlimit="10" d="M 1859.0625 310.46875 L 1268.359375 252.539062 L 1483.90625 133.007812 Z M 1859.0625 310.46875 " transform="matrix(0.1, 0, 0, -0.1, 0, 200)"/>
<path fill-rule="nonzero" fill="rgb(32.00531%, 57.421875%, 93.164062%)" fill-opacity="1" d="M 27.671875 40.664062 L 58.691406 42.554688 L 76.925781 11.886719 "/>
<path fill="none" stroke-width="7.48" stroke-linecap="round" stroke-linejoin="round" stroke="rgb(0%, 0%, 0%)" stroke-opacity="1" stroke-miterlimit="10" d="M 276.71875 1593.359375 L 586.914062 1574.453125 L 769.257812 1881.132812 Z M 276.71875 1593.359375 " transform="matrix(0.1, 0, 0, -0.1, 0, 200)"/>
<path fill-rule="nonzero" fill="rgb(40.795898%, 63.084412%, 94.53125%)" fill-opacity="1" d="M 113.328125 16.1875 L 76.925781 11.886719 L 58.691406 42.554688 "/>
<path fill="none" stroke-width="7.48" stroke-linecap="round" stroke-linejoin="round" stroke="rgb(0%, 0%, 0%)" stroke-opacity="1" stroke-miterlimit="10" d="M 1133.28125 1838.125 L 769.257812 1881.132812 L 586.914062 1574.453125 Z M 1133.28125 1838.125 " transform="matrix(0.1, 0, 0, -0.1, 0, 200)"/>
<path fill-rule="nonzero" fill="rgb(50.193787%, 12.304688%, 25.389099%)" fill-opacity="1" d="M 126.835938 174.746094 L 68.285156 157.796875 L 91.683594 187.6875 "/>
<path fill="none" stroke-width="7.48" stroke-linecap="round" stroke-linejoin="round" stroke="rgb(0%, 0%, 0%)" stroke-opacity="1" stroke-miterlimit="10" d="M 1268.359375 252.539062 L 682.851562 422.03125 L 916.835938 123.125 Z M 1268.359375 252.539062 " transform="matrix(0.1, 0, 0, -0.1, 0, 200)"/>
<path fill-rule="nonzero" fill="rgb(85.546875%, 96.09375%, 87.109375%)" fill-opacity="1" d="M 216.152344 41.070312 L 172.257812 12.480469 L 202.457031 56.5625 "/>
<path fill="none" stroke-width="7.48" stroke-linecap="round" stroke-linejoin="round" stroke="rgb(0%, 0%, 0%)" stroke-opacity="1" stroke-miterlimit="10" d="M 2161.523438 1589.296875 L 1722.578125 1875.195312 L 2024.570312 1434.375 Z M 2161.523438 1589.296875 " transform="matrix(0.1, 0, 0, -0.1, 0, 200)"/>
<path fill-rule="nonzero" fill="rgb(91.014099%, 54.6875%, 33.300781%)" fill-opacity="1" d="M 207.921875 118.515625 L 185.90625 168.953125 L 224.4375 134.507812 "/>
<path fill="none" stroke-width="7.48" stroke-linecap="round" stroke-linejoin="round" stroke="rgb(0%, 0%, 0%)" stroke-opacity="1" stroke-miterlimit="10" d="M 2079.21875 814.84375 L 1859.0625 310.46875 L 2244.375 654.921875 Z M 2079.21875 814.84375 " transform="matrix(0.1, 0, 0, -0.1, 0, 200)"/>
<path fill-rule="nonzero" fill="rgb(99.609375%, 85.351562%, 52.539062%)" fill-opacity="1" stroke-width="7.48" stroke-linecap="round" stroke-linejoin="round" stroke="rgb(0%, 0%, 0%)" stroke-opacity="1" stroke-miterlimit="10" d="M 2024.570312 1434.375 L 2079.21875 814.84375 L 2244.375 654.921875 " transform="matrix(0.1, 0, 0, -0.1, 0, 200)"/>
<path fill-rule="nonzero" fill="rgb(53.709412%, 36.009216%, 58.984375%)" fill-opacity="1" d="M 20.515625 129.578125 L 68.285156 157.796875 L 54.851562 100.285156 "/>
<path fill="none" stroke-width="7.48" stroke-linecap="round" stroke-linejoin="round" stroke="rgb(0%, 0%, 0%)" stroke-opacity="1" stroke-miterlimit="10" d="M 205.15625 704.21875 L 682.851562 422.03125 L 548.515625 997.148438 Z M 205.15625 704.21875 " transform="matrix(0.1, 0, 0, -0.1, 0, 200)"/>
<path fill-rule="nonzero" fill="rgb(71.484375%, 71.289062%, 84.764099%)" fill-opacity="1" stroke-width="7.48" stroke-linecap="round" stroke-linejoin="round" stroke="rgb(0%, 0%, 0%)" stroke-opacity="1" stroke-miterlimit="10" d="M 2024.570312 1434.375 L 1722.578125 1875.195312 L 1133.28125 1838.125 " transform="matrix(0.1, 0, 0, -0.1, 0, 200)"/>
<path fill-rule="nonzero" fill="rgb(74.21875%, 49.609375%, 55.859375%)" fill-opacity="1" stroke-width="7.48" stroke-linecap="round" stroke-linejoin="round" stroke="rgb(0%, 0%, 0%)" stroke-opacity="1" stroke-miterlimit="10" d="M 1268.359375 252.539062 L 1859.0625 310.46875 L 2079.21875 814.84375 " transform="matrix(0.1, 0, 0, -0.1, 0, 200)"/>
<path fill-rule="nonzero" fill="rgb(59.568787%, 63.28125%, 85.742188%)" fill-opacity="1" d="M 113.328125 16.1875 L 58.691406 42.554688 L 103.222656 63.824219 "/>
<path fill="none" stroke-width="7.48" stroke-linecap="round" stroke-linejoin="round" stroke="rgb(0%, 0%, 0%)" stroke-opacity="1" stroke-miterlimit="10" d="M 1133.28125 1838.125 L 586.914062 1574.453125 L 1032.226562 1361.757812 Z M 1133.28125 1838.125 " transform="matrix(0.1, 0, 0, -0.1, 0, 200)"/>
<path fill-rule="nonzero" fill="rgb(71.484375%, 71.289062%, 84.764099%)" fill-opacity="1" d="M 113.328125 16.1875 L 103.222656 63.824219 L 202.457031 56.5625 "/>
<path fill="none" stroke-width="7.48" stroke-linecap="round" stroke-linejoin="round" stroke="rgb(0%, 0%, 0%)" stroke-opacity="1" stroke-miterlimit="10" d="M 1133.28125 1838.125 L 1032.226562 1361.757812 " transform="matrix(0.1, 0, 0, -0.1, 0, 200)"/>
<path fill-rule="nonzero" fill="rgb(55.664062%, 52.146912%, 77.146912%)" fill-opacity="1" d="M 103.222656 63.824219 L 58.691406 42.554688 L 54.851562 100.285156 "/>
<path fill="none" stroke-width="7.48" stroke-linecap="round" stroke-linejoin="round" stroke="rgb(0%, 0%, 0%)" stroke-opacity="1" stroke-miterlimit="10" d="M 1032.226562 1361.757812 L 586.914062 1574.453125 L 548.515625 997.148438 Z M 1032.226562 1361.757812 " transform="matrix(0.1, 0, 0, -0.1, 0, 200)"/>
<path fill-rule="nonzero" fill="rgb(63.28125%, 37.693787%, 51.367188%)" fill-opacity="1" d="M 108.585938 127.175781 L 68.285156 157.796875 L 126.835938 174.746094 "/>
<path fill="none" stroke-width="7.48" stroke-linecap="round" stroke-linejoin="round" stroke="rgb(0%, 0%, 0%)" stroke-opacity="1" stroke-miterlimit="10" d="M 1085.859375 728.242188 L 682.851562 422.03125 L 1268.359375 252.539062 Z M 1085.859375 728.242188 " transform="matrix(0.1, 0, 0, -0.1, 0, 200)"/>
<path fill-rule="nonzero" fill="rgb(57.617188%, 39.793396%, 60.351562%)" fill-opacity="1" d="M 108.585938 127.175781 L 54.851562 100.285156 L 68.285156 157.796875 "/>
<path fill="none" stroke-width="7.48" stroke-linecap="round" stroke-linejoin="round" stroke="rgb(0%, 0%, 0%)" stroke-opacity="1" stroke-miterlimit="10" d="M 1085.859375 728.242188 L 548.515625 997.148438 L 682.851562 422.03125 Z M 1085.859375 728.242188 " transform="matrix(0.1, 0, 0, -0.1, 0, 200)"/>
<path fill-rule="nonzero" fill="rgb(74.21875%, 49.609375%, 55.859375%)" fill-opacity="1" d="M 108.585938 127.175781 L 126.835938 174.746094 L 207.921875 118.515625 "/>
<path fill="none" stroke-width="7.48" stroke-linecap="round" stroke-linejoin="round" stroke="rgb(0%, 0%, 0%)" stroke-opacity="1" stroke-miterlimit="10" d="M 1085.859375 728.242188 L 1268.359375 252.539062 " transform="matrix(0.1, 0, 0, -0.1, 0, 200)"/>
<path fill-rule="nonzero" fill="rgb(83.201599%, 69.53125%, 71.09375%)" fill-opacity="1" d="M 202.457031 56.5625 L 160.273438 90.503906 L 207.921875 118.515625 "/>
<path fill="none" stroke-width="7.48" stroke-linecap="round" stroke-linejoin="round" stroke="rgb(0%, 0%, 0%)" stroke-opacity="1" stroke-miterlimit="10" d="M 2024.570312 1434.375 L 1602.734375 1094.960938 L 2079.21875 814.84375 Z M 2024.570312 1434.375 " transform="matrix(0.1, 0, 0, -0.1, 0, 200)"/>
<path fill-rule="nonzero" fill="rgb(71.484375%, 71.289062%, 84.764099%)" fill-opacity="1" stroke-width="7.48" stroke-linecap="round" stroke-linejoin="round" stroke="rgb(0%, 0%, 0%)" stroke-opacity="1" stroke-miterlimit="10" d="M 1032.226562 1361.757812 L 1602.734375 1094.960938 L 2024.570312 1434.375 " transform="matrix(0.1, 0, 0, -0.1, 0, 200)"/>
<path fill-rule="nonzero" fill="rgb(63.084412%, 51.5625%, 70.3125%)" fill-opacity="1" d="M 103.222656 63.824219 L 54.851562 100.285156 L 108.585938 127.175781 "/>
<path fill="none" stroke-width="7.48" stroke-linecap="round" stroke-linejoin="round" stroke="rgb(0%, 0%, 0%)" stroke-opacity="1" stroke-miterlimit="10" d="M 1032.226562 1361.757812 L 548.515625 997.148438 L 1085.859375 728.242188 Z M 1032.226562 1361.757812 " transform="matrix(0.1, 0, 0, -0.1, 0, 200)"/>
<path fill-rule="nonzero" fill="rgb(74.21875%, 49.609375%, 55.859375%)" fill-opacity="1" stroke-width="7.48" stroke-linecap="round" stroke-linejoin="round" stroke="rgb(0%, 0%, 0%)" stroke-opacity="1" stroke-miterlimit="10" d="M 2079.21875 814.84375 L 1602.734375 1094.960938 L 1085.859375 728.242188 " transform="matrix(0.1, 0, 0, -0.1, 0, 200)"/>
<path fill-rule="nonzero" fill="rgb(65.625%, 53.709412%, 70.701599%)" fill-opacity="1" d="M 160.273438 90.503906 L 103.222656 63.824219 L 108.585938 127.175781 "/>
<path fill="none" stroke-width="7.48" stroke-linecap="round" stroke-linejoin="round" stroke="rgb(0%, 0%, 0%)" stroke-opacity="1" stroke-miterlimit="10" d="M 1602.734375 1094.960938 L 1032.226562 1361.757812 L 1085.859375 728.242188 Z M 1602.734375 1094.960938 " transform="matrix(0.1, 0, 0, -0.1, 0, 200)"/>
</svg>
