<?xml version="1.0" encoding="UTF-8"?>
<svg xmlns="http://www.w3.org/2000/svg" xmlns:xlink="http://www.w3.org/1999/xlink" width="197" height="200" viewBox="0 0 197 200">
<path fill="none" stroke-width="7.88" stroke-linecap="round" stroke-linejoin="round" stroke="rgb(0%, 0%, 0%)" stroke-opacity="1" stroke-miterlimit="10" d="M 1029.6875 1352.34375 L 1192.890625 1425.039062 L 1174.257812 1602.734375 L 999.453125 1639.882812 L 910.117188 1485.117188 L 1029.6875 1352.34375 " transform="matrix(0.1, 0, 0, -0.1, 0, 200)"/>
<path fill="none" stroke-width="7.88" stroke-linecap="round" stroke-linejoin="round" stroke="rgb(0%, 0%, 0%)" stroke-opacity="1" stroke-miterlimit="10" d="M 1029.6875 1352.34375 L 885.117188 1247.304688 L 940.3125 1077.382812 L 1119.023438 1077.382812 L 1174.257812 1247.304688 L 1029.6875 1352.34375 " transform="matrix(0.1, 0, 0, -0.1, 0, 200)"/>
<path fill="none" stroke-width="7.88" stroke-linecap="round" stroke-linejoin="round" stroke="rgb(0%, 0%, 0%)" stroke-opacity="1" stroke-miterlimit="10" d="M 1029.6875 1352.34375 L 1174.257812 1247.304688 L 1192.890625 1425.039062 L 1029.6875 1352.34375 " transform="matrix(0.1, 0, 0, -0.1, 0, 200)"/>
<path fill="none" stroke-width="7.88" stroke-linecap="round" stroke-linejoin="round" stroke="rgb(0%, 0%, 0%)" stroke-opacity="1" stroke-miterlimit="10" d="M 1174.257812 1247.304688 L 1119.023438 1077.382812 L 1293.789062 1114.53125 L 1174.257812 1247.304688 " transform="matrix(0.1, 0, 0, -0.1, 0, 200)"/>
<path fill="none" stroke-width="7.88" stroke-linecap="round" stroke-linejoin="round" stroke="rgb(0%, 0%, 0%)" stroke-opacity="1" stroke-miterlimit="10" d="M 1192.890625 1425.039062 L 1248.125 1255.078125 L 1426.796875 1255.078125 L 1482.03125 1425.039062 L 1337.460938 1530.039062 L 1192.890625 1425.039062 " transform="matrix(0.1, 0, 0, -0.1, 0, 200)"/>
<path fill="none" stroke-width="7.88" stroke-linecap="round" stroke-linejoin="round" stroke="rgb(0%, 0%, 0%)" stroke-opacity="1" stroke-miterlimit="10" d="M 1192.890625 1425.039062 L 1337.460938 1530.039062 L 1174.257812 1602.734375 L 1192.890625 1425.039062 " transform="matrix(0.1, 0, 0, -0.1, 0, 200)"/>
<path fill="none" stroke-width="7.88" stroke-linecap="round" stroke-linejoin="round" stroke="rgb(0%, 0%, 0%)" stroke-opacity="1" stroke-miterlimit="10" d="M 1337.460938 1530.039062 L 1482.03125 1425.039062 L 1500.703125 1602.734375 L 1337.460938 1530.039062 " transform="matrix(0.1, 0, 0, -0.1, 0, 200)"/>
<path fill="none" stroke-width="7.88" stroke-linecap="round" stroke-linejoin="round" stroke="rgb(0%, 0%, 0%)" stroke-opacity="1" stroke-miterlimit="10" d="M 1174.257812 1602.734375 L 1352.929688 1602.734375 L 1408.125 1772.65625 L 1263.59375 1877.695312 L 1119.023438 1772.65625 L 1174.257812 1602.734375 " transform="matrix(0.1, 0, 0, -0.1, 0, 200)"/>
<path fill="none" stroke-width="7.88" stroke-linecap="round" stroke-linejoin="round" stroke="rgb(0%, 0%, 0%)" stroke-opacity="1" stroke-miterlimit="10" d="M 1174.257812 1602.734375 L 1119.023438 1772.65625 L 999.453125 1639.882812 L 1174.257812 1602.734375 " transform="matrix(0.1, 0, 0, -0.1, 0, 200)"/>
<path fill="none" stroke-width="7.88" stroke-linecap="round" stroke-linejoin="round" stroke="rgb(0%, 0%, 0%)" stroke-opacity="1" stroke-miterlimit="10" d="M 1119.023438 1772.65625 L 1263.59375 1877.695312 L 1100.351562 1950.351562 L 1119.023438 1772.65625 " transform="matrix(0.1, 0, 0, -0.1, 0, 200)"/>
<path fill="none" stroke-width="7.88" stroke-linecap="round" stroke-linejoin="round" stroke="rgb(0%, 0%, 0%)" stroke-opacity="1" stroke-miterlimit="10" d="M 999.453125 1639.882812 L 1054.648438 1809.84375 L 910.117188 1914.84375 L 765.546875 1809.84375 L 820.78125 1639.882812 L 999.453125 1639.882812 " transform="matrix(0.1, 0, 0, -0.1, 0, 200)"/>
<path fill="none" stroke-width="7.88" stroke-linecap="round" stroke-linejoin="round" stroke="rgb(0%, 0%, 0%)" stroke-opacity="1" stroke-miterlimit="10" d="M 999.453125 1639.882812 L 820.78125 1639.882812 L 910.117188 1485.117188 L 999.453125 1639.882812 " transform="matrix(0.1, 0, 0, -0.1, 0, 200)"/>
<path fill="none" stroke-width="7.88" stroke-linecap="round" stroke-linejoin="round" stroke="rgb(0%, 0%, 0%)" stroke-opacity="1" stroke-miterlimit="10" d="M 820.78125 1639.882812 L 765.546875 1809.84375 L 645.976562 1677.03125 L 820.78125 1639.882812 " transform="matrix(0.1, 0, 0, -0.1, 0, 200)"/>
<path fill="none" stroke-width="7.88" stroke-linecap="round" stroke-linejoin="round" stroke="rgb(0%, 0%, 0%)" stroke-opacity="1" stroke-miterlimit="10" d="M 910.117188 1485.117188 L 765.546875 1590.15625 L 620.976562 1485.117188 L 676.210938 1315.195312 L 854.882812 1315.195312 L 910.117188 1485.117188 " transform="matrix(0.1, 0, 0, -0.1, 0, 200)"/>
<path fill="none" stroke-width="7.88" stroke-linecap="round" stroke-linejoin="round" stroke="rgb(0%, 0%, 0%)" stroke-opacity="1" stroke-miterlimit="10" d="M 910.117188 1485.117188 L 854.882812 1315.195312 L 1029.6875 1352.34375 L 910.117188 1485.117188 " transform="matrix(0.1, 0, 0, -0.1, 0, 200)"/>
<path fill="none" stroke-width="7.88" stroke-linecap="round" stroke-linejoin="round" stroke="rgb(0%, 0%, 0%)" stroke-opacity="1" stroke-miterlimit="10" d="M 854.882812 1315.195312 L 676.210938 1315.195312 L 765.546875 1160.46875 L 854.882812 1315.195312 " transform="matrix(0.1, 0, 0, -0.1, 0, 200)"/>
<path fill="none" stroke-width="7.88" stroke-linecap="round" stroke-linejoin="round" stroke="rgb(0%, 0%, 0%)" stroke-opacity="1" stroke-miterlimit="10" d="M 1119.023438 647.65625 L 955.78125 575 L 974.453125 397.265625 L 1149.257812 360.117188 L 1238.59375 514.882812 L 1119.023438 647.65625 " transform="matrix(0.1, 0, 0, -0.1, 0, 200)"/>
<path fill="none" stroke-width="7.88" stroke-linecap="round" stroke-linejoin="round" stroke="rgb(0%, 0%, 0%)" stroke-opacity="1" stroke-miterlimit="10" d="M 1119.023438 647.65625 L 1263.59375 752.695312 L 1208.359375 922.65625 L 1029.6875 922.65625 L 974.453125 752.695312 L 1119.023438 647.65625 " transform="matrix(0.1, 0, 0, -0.1, 0, 200)"/>
<path fill="none" stroke-width="7.88" stroke-linecap="round" stroke-linejoin="round" stroke="rgb(0%, 0%, 0%)" stroke-opacity="1" stroke-miterlimit="10" d="M 1119.023438 647.65625 L 974.453125 752.695312 L 955.78125 575 L 1119.023438 647.65625 " transform="matrix(0.1, 0, 0, -0.1, 0, 200)"/>
<path fill="none" stroke-width="7.88" stroke-linecap="round" stroke-linejoin="round" stroke="rgb(0%, 0%, 0%)" stroke-opacity="1" stroke-miterlimit="10" d="M 974.453125 752.695312 L 1029.6875 922.65625 L 854.882812 885.46875 L 974.453125 752.695312 " transform="matrix(0.1, 0, 0, -0.1, 0, 200)"/>
<path fill="none" stroke-width="7.88" stroke-linecap="round" stroke-linejoin="round" stroke="rgb(0%, 0%, 0%)" stroke-opacity="1" stroke-miterlimit="10" d="M 955.78125 575 L 900.546875 744.921875 L 721.875 744.921875 L 666.679688 575 L 811.210938 469.960938 L 955.78125 575 " transform="matrix(0.1, 0, 0, -0.1, 0, 200)"/>
<path fill="none" stroke-width="7.88" stroke-linecap="round" stroke-linejoin="round" stroke="rgb(0%, 0%, 0%)" stroke-opacity="1" stroke-miterlimit="10" d="M 955.78125 575 L 811.210938 469.960938 L 974.453125 397.265625 L 955.78125 575 " transform="matrix(0.1, 0, 0, -0.1, 0, 200)"/>
<path fill="none" stroke-width="7.88" stroke-linecap="round" stroke-linejoin="round" stroke="rgb(0%, 0%, 0%)" stroke-opacity="1" stroke-miterlimit="10" d="M 811.210938 469.960938 L 666.679688 575 L 647.96875 397.265625 L 811.210938 469.960938 " transform="matrix(0.1, 0, 0, -0.1, 0, 200)"/>
<path fill="none" stroke-width="7.88" stroke-linecap="round" stroke-linejoin="round" stroke="rgb(0%, 0%, 0%)" stroke-opacity="1" stroke-miterlimit="10" d="M 974.453125 397.265625 L 795.78125 397.265625 L 740.546875 227.34375 L 885.117188 122.304688 L 1029.6875 227.34375 L 974.453125 397.265625 " transform="matrix(0.1, 0, 0, -0.1, 0, 200)"/>
<path fill="none" stroke-width="7.88" stroke-linecap="round" stroke-linejoin="round" stroke="rgb(0%, 0%, 0%)" stroke-opacity="1" stroke-miterlimit="10" d="M 974.453125 397.265625 L 1029.6875 227.34375 L 1149.257812 360.117188 L 974.453125 397.265625 " transform="matrix(0.1, 0, 0, -0.1, 0, 200)"/>
<path fill="none" stroke-width="7.88" stroke-linecap="round" stroke-linejoin="round" stroke="rgb(0%, 0%, 0%)" stroke-opacity="1" stroke-miterlimit="10" d="M 1029.6875 227.34375 L 885.117188 122.304688 L 1048.359375 49.648438 L 1029.6875 227.34375 " transform="matrix(0.1, 0, 0, -0.1, 0, 200)"/>
<path fill="none" stroke-width="7.88" stroke-linecap="round" stroke-linejoin="round" stroke="rgb(0%, 0%, 0%)" stroke-opacity="1" stroke-miterlimit="10" d="M 1149.257812 360.117188 L 1094.023438 190.195312 L 1238.59375 85.15625 L 1383.125 190.195312 L 1327.929688 360.117188 L 1149.257812 360.117188 " transform="matrix(0.1, 0, 0, -0.1, 0, 200)"/>
<path fill="none" stroke-width="7.88" stroke-linecap="round" stroke-linejoin="round" stroke="rgb(0%, 0%, 0%)" stroke-opacity="1" stroke-miterlimit="10" d="M 1149.257812 360.117188 L 1327.929688 360.117188 L 1238.59375 514.882812 L 1149.257812 360.117188 " transform="matrix(0.1, 0, 0, -0.1, 0, 200)"/>
<path fill="none" stroke-width="7.88" stroke-linecap="round" stroke-linejoin="round" stroke="rgb(0%, 0%, 0%)" stroke-opacity="1" stroke-miterlimit="10" d="M 1327.929688 360.117188 L 1383.125 190.195312 L 1502.695312 322.96875 L 1327.929688 360.117188 " transform="matrix(0.1, 0, 0, -0.1, 0, 200)"/>
<path fill="none" stroke-width="7.88" stroke-linecap="round" stroke-linejoin="round" stroke="rgb(0%, 0%, 0%)" stroke-opacity="1" stroke-miterlimit="10" d="M 1238.59375 514.882812 L 1383.125 409.84375 L 1527.695312 514.882812 L 1472.460938 684.804688 L 1293.789062 684.804688 L 1238.59375 514.882812 " transform="matrix(0.1, 0, 0, -0.1, 0, 200)"/>
<path fill="none" stroke-width="7.88" stroke-linecap="round" stroke-linejoin="round" stroke="rgb(0%, 0%, 0%)" stroke-opacity="1" stroke-miterlimit="10" d="M 1238.59375 514.882812 L 1293.789062 684.804688 L 1119.023438 647.65625 L 1238.59375 514.882812 " transform="matrix(0.1, 0, 0, -0.1, 0, 200)"/>
<path fill="none" stroke-width="7.88" stroke-linecap="round" stroke-linejoin="round" stroke="rgb(0%, 0%, 0%)" stroke-opacity="1" stroke-miterlimit="10" d="M 1293.789062 684.804688 L 1472.460938 684.804688 L 1383.125 839.570312 L 1293.789062 684.804688 " transform="matrix(0.1, 0, 0, -0.1, 0, 200)"/>
<path fill="none" stroke-width="7.88" stroke-linecap="round" stroke-linejoin="round" stroke="rgb(0%, 0%, 0%)" stroke-opacity="1" stroke-miterlimit="10" d="M 46.914062 1077.382812 L 136.25 922.65625 L 225.585938 1077.382812 L 46.914062 1077.382812 " transform="matrix(0.1, 0, 0, -0.1, 0, 200)"/>
<path fill="none" stroke-width="7.88" stroke-linecap="round" stroke-linejoin="round" stroke="rgb(0%, 0%, 0%)" stroke-opacity="1" stroke-miterlimit="10" d="M 225.585938 1077.382812 L 136.25 922.65625 L 314.921875 922.65625 L 225.585938 1077.382812 " transform="matrix(0.1, 0, 0, -0.1, 0, 200)"/>
<path fill="none" stroke-width="7.88" stroke-linecap="round" stroke-linejoin="round" stroke="rgb(0%, 0%, 0%)" stroke-opacity="1" stroke-miterlimit="10" d="M 225.585938 1077.382812 L 314.921875 922.65625 L 404.296875 1077.382812 L 225.585938 1077.382812 " transform="matrix(0.1, 0, 0, -0.1, 0, 200)"/>
<path fill="none" stroke-width="7.88" stroke-linecap="round" stroke-linejoin="round" stroke="rgb(0%, 0%, 0%)" stroke-opacity="1" stroke-miterlimit="10" d="M 404.296875 1077.382812 L 314.921875 922.65625 L 493.632812 922.65625 L 404.296875 1077.382812 " transform="matrix(0.1, 0, 0, -0.1, 0, 200)"/>
<path fill="none" stroke-width="7.88" stroke-linecap="round" stroke-linejoin="round" stroke="rgb(0%, 0%, 0%)" stroke-opacity="1" stroke-miterlimit="10" d="M 404.296875 1077.382812 L 493.632812 922.65625 L 582.96875 1077.382812 L 404.296875 1077.382812 " transform="matrix(0.1, 0, 0, -0.1, 0, 200)"/>
<path fill="none" stroke-width="7.88" stroke-linecap="round" stroke-linejoin="round" stroke="rgb(0%, 0%, 0%)" stroke-opacity="1" stroke-miterlimit="10" d="M 582.96875 1077.382812 L 493.632812 922.65625 L 672.304688 922.65625 L 582.96875 1077.382812 " transform="matrix(0.1, 0, 0, -0.1, 0, 200)"/>
<path fill="none" stroke-width="7.88" stroke-linecap="round" stroke-linejoin="round" stroke="rgb(0%, 0%, 0%)" stroke-opacity="1" stroke-miterlimit="10" d="M 582.96875 1077.382812 L 672.304688 922.65625 L 761.640625 1077.382812 L 582.96875 1077.382812 " transform="matrix(0.1, 0, 0, -0.1, 0, 200)"/>
<path fill="none" stroke-width="7.88" stroke-linecap="round" stroke-linejoin="round" stroke="rgb(0%, 0%, 0%)" stroke-opacity="1" stroke-miterlimit="10" d="M 761.640625 1077.382812 L 672.304688 922.65625 L 850.976562 922.65625 L 761.640625 1077.382812 " transform="matrix(0.1, 0, 0, -0.1, 0, 200)"/>
<path fill="none" stroke-width="7.88" stroke-linecap="round" stroke-linejoin="round" stroke="rgb(0%, 0%, 0%)" stroke-opacity="1" stroke-miterlimit="10" d="M 761.640625 1077.382812 L 850.976562 922.65625 L 940.3125 1077.382812 L 761.640625 1077.382812 " transform="matrix(0.1, 0, 0, -0.1, 0, 200)"/>
<path fill="none" stroke-width="7.88" stroke-linecap="round" stroke-linejoin="round" stroke="rgb(0%, 0%, 0%)" stroke-opacity="1" stroke-miterlimit="10" d="M 940.3125 1077.382812 L 850.976562 922.65625 L 1029.6875 922.65625 L 940.3125 1077.382812 " transform="matrix(0.1, 0, 0, -0.1, 0, 200)"/>
<path fill="none" stroke-width="7.88" stroke-linecap="round" stroke-linejoin="round" stroke="rgb(0%, 0%, 0%)" stroke-opacity="1" stroke-miterlimit="10" d="M 940.3125 1077.382812 L 1029.6875 922.65625 L 1119.023438 1077.382812 L 940.3125 1077.382812 " transform="matrix(0.1, 0, 0, -0.1, 0, 200)"/>
<path fill="none" stroke-width="7.88" stroke-linecap="round" stroke-linejoin="round" stroke="rgb(0%, 0%, 0%)" stroke-opacity="1" stroke-miterlimit="10" d="M 1119.023438 1077.382812 L 1029.6875 922.65625 L 1208.359375 922.65625 L 1119.023438 1077.382812 " transform="matrix(0.1, 0, 0, -0.1, 0, 200)"/>
<path fill="none" stroke-width="7.88" stroke-linecap="round" stroke-linejoin="round" stroke="rgb(0%, 0%, 0%)" stroke-opacity="1" stroke-miterlimit="10" d="M 1119.023438 1077.382812 L 1208.359375 922.65625 L 1297.695312 1077.382812 L 1119.023438 1077.382812 " transform="matrix(0.1, 0, 0, -0.1, 0, 200)"/>
<path fill="none" stroke-width="7.88" stroke-linecap="round" stroke-linejoin="round" stroke="rgb(0%, 0%, 0%)" stroke-opacity="1" stroke-miterlimit="10" d="M 1297.695312 1077.382812 L 1208.359375 922.65625 L 1387.03125 922.65625 L 1297.695312 1077.382812 " transform="matrix(0.1, 0, 0, -0.1, 0, 200)"/>
<path fill="none" stroke-width="7.88" stroke-linecap="round" stroke-linejoin="round" stroke="rgb(0%, 0%, 0%)" stroke-opacity="1" stroke-miterlimit="10" d="M 1297.695312 1077.382812 L 1387.03125 922.65625 L 1476.367188 1077.382812 L 1297.695312 1077.382812 " transform="matrix(0.1, 0, 0, -0.1, 0, 200)"/>
<path fill="none" stroke-width="7.88" stroke-linecap="round" stroke-linejoin="round" stroke="rgb(0%, 0%, 0%)" stroke-opacity="1" stroke-miterlimit="10" d="M 1476.367188 1077.382812 L 1387.03125 922.65625 L 1565.703125 922.65625 L 1476.367188 1077.382812 " transform="matrix(0.1, 0, 0, -0.1, 0, 200)"/>
<path fill="none" stroke-width="7.88" stroke-linecap="round" stroke-linejoin="round" stroke="rgb(0%, 0%, 0%)" stroke-opacity="1" stroke-miterlimit="10" d="M 1476.367188 1077.382812 L 1565.703125 922.65625 L 1655.078125 1077.382812 L 1476.367188 1077.382812 " transform="matrix(0.1, 0, 0, -0.1, 0, 200)"/>
<path fill="none" stroke-width="7.88" stroke-linecap="round" stroke-linejoin="round" stroke="rgb(0%, 0%, 0%)" stroke-opacity="1" stroke-miterlimit="10" d="M 1655.078125 1077.382812 L 1565.703125 922.65625 L 1744.414062 922.65625 L 1655.078125 1077.382812 " transform="matrix(0.1, 0, 0, -0.1, 0, 200)"/>
<path fill="none" stroke-width="7.88" stroke-linecap="round" stroke-linejoin="round" stroke="rgb(0%, 0%, 0%)" stroke-opacity="1" stroke-miterlimit="10" d="M 1655.078125 1077.382812 L 1744.414062 922.65625 L 1833.75 1077.382812 L 1655.078125 1077.382812 " transform="matrix(0.1, 0, 0, -0.1, 0, 200)"/>
<path fill="none" stroke-width="7.88" stroke-linecap="round" stroke-linejoin="round" stroke="rgb(0%, 0%, 0%)" stroke-opacity="1" stroke-miterlimit="10" d="M 1833.75 1077.382812 L 1744.414062 922.65625 L 1923.085938 922.65625 L 1833.75 1077.382812 " transform="matrix(0.1, 0, 0, -0.1, 0, 200)"/>
</svg>
