<?xml version="1.0" encoding="UTF-8"?>
<svg xmlns="http://www.w3.org/2000/svg" xmlns:xlink="http://www.w3.org/1999/xlink" width="188.97" height="186.93" viewBox="0 0 188.97 186.93">
<defs>
<clipPath id="clip-0">
<path clip-rule="nonzero" d="M 112 0 L 188.917969 0 L 188.917969 138 L 112 138 Z M 112 0 "/>
</clipPath>
<clipPath id="clip-1">
<path clip-rule="nonzero" d="M 0.0195312 61 L 113 61 L 113 186.859375 L 0.0195312 186.859375 Z M 0.0195312 61 "/>
</clipPath>
<clipPath id="clip-2">
<path clip-rule="nonzero" d="M 0.0195312 61 L 114 61 L 114 186.859375 L 0.0195312 186.859375 Z M 0.0195312 61 "/>
</clipPath>
<clipPath id="clip-3">
<path clip-rule="nonzero" d="M 79 61 L 188.917969 61 L 188.917969 186.859375 L 79 186.859375 Z M 79 61 "/>
</clipPath>
<clipPath id="clip-4">
<path clip-rule="nonzero" d="M 0.0195312 27 L 113 27 L 113 90 L 0.0195312 90 Z M 0.0195312 27 "/>
</clipPath>
<clipPath id="clip-5">
<path clip-rule="nonzero" d="M 0.0195312 27 L 114 27 L 114 91 L 0.0195312 91 Z M 0.0195312 27 "/>
</clipPath>
<clipPath id="clip-6">
<path clip-rule="nonzero" d="M 72 137 L 188.917969 137 L 188.917969 186.859375 L 72 186.859375 Z M 72 137 "/>
</clipPath>
<clipPath id="clip-7">
<path clip-rule="nonzero" d="M 71 136 L 188.917969 136 L 188.917969 186.859375 L 71 186.859375 Z M 71 136 "/>
</clipPath>
<clipPath id="clip-8">
<path clip-rule="nonzero" d="M 0.0195312 89 L 80 89 L 80 186.859375 L 0.0195312 186.859375 Z M 0.0195312 89 "/>
</clipPath>
<clipPath id="clip-9">
<path clip-rule="nonzero" d="M 0.0195312 89 L 81 89 L 81 186.859375 L 0.0195312 186.859375 Z M 0.0195312 89 "/>
</clipPath>
<clipPath id="clip-10">
<path clip-rule="nonzero" d="M 0.0195312 27 L 73 27 L 73 173 L 0.0195312 173 Z M 0.0195312 27 "/>
</clipPath>
<clipPath id="clip-11">
<path clip-rule="nonzero" d="M 72 0 L 188.917969 0 L 188.917969 173 L 72 173 Z M 72 0 "/>
</clipPath>
<clipPath id="clip-12">
<path clip-rule="nonzero" d="M 71 0 L 188.917969 0 L 188.917969 173 L 71 173 Z M 71 0 "/>
</clipPath>
</defs>
<g clip-path="url(#clip-0)">
<path fill-rule="nonzero" fill="rgb(50.354004%, 41.55426%, 69.734192%)" fill-opacity="1" d="M 112.726562 61.691406 L 171.058594 0.390625 L 188.527344 137.101562 L 112.726562 61.691406 "/>
<path fill="none" stroke-width="7.82001" stroke-linecap="round" stroke-linejoin="round" stroke="rgb(13.729858%, 12.159729%, 12.548828%)" stroke-opacity="1" stroke-miterlimit="10" d="M 1127.483934 1252.154921 L 1711.022684 1865.392287 L 1885.775599 497.770968 Z M 1127.483934 1252.154921 " transform="matrix(0.0999626, 0, 0, -0.0999626, 0.0203743, 186.860026)"/>
</g>
<g clip-path="url(#clip-1)">
<path fill-rule="nonzero" fill="rgb(78.788757%, 65.557861%, 74.28894%)" fill-opacity="1" d="M 79.929688 186.46875 L 0.410156 89.792969 L 112.726562 61.691406 L 79.929688 186.46875 "/>
</g>
<g clip-path="url(#clip-2)">
<path fill="none" stroke-width="7.82001" stroke-linecap="round" stroke-linejoin="round" stroke="rgb(13.729858%, 12.159729%, 12.548828%)" stroke-opacity="1" stroke-miterlimit="10" d="M 799.392369 3.914227 L 3.899279 971.034063 L 1127.483934 1252.154921 Z M 799.392369 3.914227 " transform="matrix(0.0999626, 0, 0, -0.0999626, 0.0203743, 186.860026)"/>
</g>
<g clip-path="url(#clip-3)">
<path fill-rule="nonzero" fill="rgb(60.531616%, 56.373596%, 78.04718%)" fill-opacity="1" d="M 188.527344 137.101562 L 79.929688 186.46875 L 112.726562 61.691406 L 188.527344 137.101562 "/>
<path fill="none" stroke-width="7.82001" stroke-linecap="round" stroke-linejoin="round" stroke="rgb(13.729858%, 12.159729%, 12.548828%)" stroke-opacity="1" stroke-miterlimit="10" d="M 1885.775599 497.770968 L 799.392369 3.914227 L 1127.483934 1252.154921 Z M 1885.775599 497.770968 " transform="matrix(0.0999626, 0, 0, -0.0999626, 0.0203743, 186.860026)"/>
</g>
<path fill-rule="nonzero" fill="rgb(74.64447%, 37.239075%, 30.809021%)" fill-opacity="1" stroke-width="7.82001" stroke-linecap="round" stroke-linejoin="round" stroke="rgb(13.729858%, 12.159729%, 12.548828%)" stroke-opacity="1" stroke-miterlimit="10" d="M 508.345922 1594.7441 L 1711.022684 1865.392287 L 1127.483934 1252.154921 " transform="matrix(0.0999626, 0, 0, -0.0999626, 0.0203743, 186.860026)"/>
<g clip-path="url(#clip-4)">
<path fill-rule="nonzero" fill="rgb(74.64447%, 37.239075%, 30.809021%)" fill-opacity="1" d="M 112.726562 61.691406 L 0.410156 89.792969 L 50.835938 27.445312 "/>
</g>
<g clip-path="url(#clip-5)">
<path fill="none" stroke-width="7.82001" stroke-linecap="round" stroke-linejoin="round" stroke="rgb(13.729858%, 12.159729%, 12.548828%)" stroke-opacity="1" stroke-miterlimit="10" d="M 1127.483934 1252.154921 L 3.899279 971.034063 L 508.345922 1594.7441 " transform="matrix(0.0999626, 0, 0, -0.0999626, 0.0203743, 186.860026)"/>
</g>
<g clip-path="url(#clip-6)">
<path fill-rule="nonzero" fill="rgb(60.441589%, 15.762329%, 14.350891%)" fill-opacity="1" d="M 188.527344 137.101562 L 72.324219 172.136719 L 79.929688 186.46875 L 188.527344 137.101562 "/>
</g>
<g clip-path="url(#clip-7)">
<path fill="none" stroke-width="7.82001" stroke-linecap="round" stroke-linejoin="round" stroke="rgb(13.729858%, 12.159729%, 12.548828%)" stroke-opacity="1" stroke-miterlimit="10" d="M 1885.775599 497.770968 L 723.309202 147.288209 L 799.392369 3.914227 Z M 1885.775599 497.770968 " transform="matrix(0.0999626, 0, 0, -0.0999626, 0.0203743, 186.860026)"/>
</g>
<g clip-path="url(#clip-8)">
<path fill-rule="nonzero" fill="rgb(13.729858%, 12.159729%, 12.548828%)" fill-opacity="1" d="M 0.410156 89.792969 L 79.929688 186.46875 L 72.324219 172.136719 L 0.410156 89.792969 "/>
</g>
<g clip-path="url(#clip-9)">
<path fill="none" stroke-width="7.82001" stroke-linecap="round" stroke-linejoin="round" stroke="rgb(13.729858%, 12.159729%, 12.548828%)" stroke-opacity="1" stroke-miterlimit="10" d="M 3.899279 971.034063 L 799.392369 3.914227 L 723.309202 147.288209 Z M 3.899279 971.034063 " transform="matrix(0.0999626, 0, 0, -0.0999626, 0.0203743, 186.860026)"/>
</g>
<g clip-path="url(#clip-10)">
<path fill-rule="nonzero" fill="rgb(45.401001%, 36.935425%, 67.286682%)" fill-opacity="1" d="M 50.835938 27.445312 L 0.410156 89.792969 L 72.324219 172.136719 L 50.835938 27.445312 "/>
<path fill="none" stroke-width="7.82001" stroke-linecap="round" stroke-linejoin="round" stroke="rgb(13.729858%, 12.159729%, 12.548828%)" stroke-opacity="1" stroke-miterlimit="10" d="M 508.345922 1594.7441 L 3.899279 971.034063 L 723.309202 147.288209 Z M 508.345922 1594.7441 " transform="matrix(0.0999626, 0, 0, -0.0999626, 0.0203743, 186.860026)"/>
</g>
<g clip-path="url(#clip-11)">
<path fill-rule="nonzero" fill="rgb(79.907227%, 64.897156%, 72.27478%)" fill-opacity="1" d="M 72.324219 172.136719 L 188.527344 137.101562 L 171.058594 0.390625 "/>
</g>
<g clip-path="url(#clip-12)">
<path fill="none" stroke-width="7.82001" stroke-linecap="round" stroke-linejoin="round" stroke="rgb(13.729858%, 12.159729%, 12.548828%)" stroke-opacity="1" stroke-miterlimit="10" d="M 723.309202 147.288209 L 1885.775599 497.770968 L 1711.022684 1865.392287 " transform="matrix(0.0999626, 0, 0, -0.0999626, 0.0203743, 186.860026)"/>
</g>
<path fill-rule="nonzero" fill="rgb(79.907227%, 64.897156%, 72.27478%)" fill-opacity="1" stroke-width="7.82001" stroke-linecap="round" stroke-linejoin="round" stroke="rgb(13.729858%, 12.159729%, 12.548828%)" stroke-opacity="1" stroke-miterlimit="10" d="M 1711.022684 1865.392287 L 508.345922 1594.7441 L 723.309202 147.288209 " transform="matrix(0.0999626, 0, 0, -0.0999626, 0.0203743, 186.860026)"/>
</svg>
