<?xml version="1.0" encoding="UTF-8"?>
<svg xmlns="http://www.w3.org/2000/svg" xmlns:xlink="http://www.w3.org/1999/xlink" width="282" height="206" viewBox="0 0 282 206">
<path fill="none" stroke-width="11.2561" stroke-linecap="round" stroke-linejoin="round" stroke="rgb(0%, 0%, 0%)" stroke-opacity="1" stroke-miterlimit="10" d="M 691.875 1389.0625 L 691.875 670.9375 L 1410 670.9375 L 1410 1389.0625 L 691.875 1389.0625 " transform="matrix(0.1, 0, 0, -0.1, 0, 206)"/>
<path fill="none" stroke-width="11.2561" stroke-linecap="round" stroke-linejoin="round" stroke="rgb(0%, 0%, 0%)" stroke-opacity="1" stroke-miterlimit="10" d="M 1410 1389.0625 L 1410 670.9375 L 2128.125 670.9375 L 2128.125 1389.0625 L 1410 1389.0625 " transform="matrix(0.1, 0, 0, -0.1, 0, 206)"/>
<path fill="none" stroke-width="11.2561" stroke-linecap="round" stroke-linejoin="round" stroke="rgb(0%, 0%, 0%)" stroke-opacity="1" stroke-miterlimit="10" d="M 70 1748.125 L 70 1030.039062 L 691.875 1389.0625 L 70 1748.125 " transform="matrix(0.1, 0, 0, -0.1, 0, 206)"/>
<path fill="none" stroke-width="11.2561" stroke-linecap="round" stroke-linejoin="round" stroke="rgb(0%, 0%, 0%)" stroke-opacity="1" stroke-miterlimit="10" d="M 70 1030.039062 L 691.875 670.9375 L 691.875 1389.0625 L 70 1030.039062 " transform="matrix(0.1, 0, 0, -0.1, 0, 206)"/>
<path fill="none" stroke-width="11.2561" stroke-linecap="round" stroke-linejoin="round" stroke="rgb(0%, 0%, 0%)" stroke-opacity="1" stroke-miterlimit="10" d="M 691.875 670.9375 L 70 1030.039062 L 70 311.914062 L 691.875 670.9375 " transform="matrix(0.1, 0, 0, -0.1, 0, 206)"/>
<path fill="none" stroke-width="11.2561" stroke-linecap="round" stroke-linejoin="round" stroke="rgb(0%, 0%, 0%)" stroke-opacity="1" stroke-miterlimit="10" d="M 691.875 1389.0625 L 1410 1389.0625 L 1050.976562 2010.9375 L 691.875 1389.0625 " transform="matrix(0.1, 0, 0, -0.1, 0, 206)"/>
<path fill="none" stroke-width="11.2561" stroke-linecap="round" stroke-linejoin="round" stroke="rgb(0%, 0%, 0%)" stroke-opacity="1" stroke-miterlimit="10" d="M 1410 670.9375 L 691.875 670.9375 L 1050.976562 49.0625 L 1410 670.9375 " transform="matrix(0.1, 0, 0, -0.1, 0, 206)"/>
<path fill="none" stroke-width="11.2561" stroke-linecap="round" stroke-linejoin="round" stroke="rgb(0%, 0%, 0%)" stroke-opacity="1" stroke-miterlimit="10" d="M 2128.125 1389.0625 L 2128.125 670.9375 L 2750 1030.039062 L 2128.125 1389.0625 " transform="matrix(0.1, 0, 0, -0.1, 0, 206)"/>
</svg>
