<?xml version="1.0" encoding="UTF-8"?>
<svg xmlns="http://www.w3.org/2000/svg" xmlns:xlink="http://www.w3.org/1999/xlink" width="261" height="200" viewBox="0 0 261 200">
<path fill="none" stroke-width="10.3923" stroke-linecap="round" stroke-linejoin="round" stroke="rgb(0%, 0%, 0%)" stroke-opacity="1" stroke-miterlimit="10" d="M 1992.304688 523.789062 L 2267.265625 47.617188 L 2542.1875 523.789062 L 1992.304688 523.789062 " transform="matrix(0.1, 0, 0, -0.1, 0, 200)"/>
<path fill="none" stroke-width="10.3923" stroke-linecap="round" stroke-linejoin="round" stroke="rgb(0%, 0%, 0%)" stroke-opacity="1" stroke-miterlimit="10" d="M 1717.382812 1952.382812 L 1442.460938 1476.210938 L 1992.304688 1476.210938 L 1717.382812 1952.382812 " transform="matrix(0.1, 0, 0, -0.1, 0, 200)"/>
<path fill="none" stroke-width="10.3923" stroke-linecap="round" stroke-linejoin="round" stroke="rgb(0%, 0%, 0%)" stroke-opacity="1" stroke-miterlimit="10" d="M 1442.460938 1476.210938 L 1717.382812 1000 L 1992.304688 1476.210938 L 1442.460938 1476.210938 " transform="matrix(0.1, 0, 0, -0.1, 0, 200)"/>
<path fill="none" stroke-width="10.3923" stroke-linecap="round" stroke-linejoin="round" stroke="rgb(0%, 0%, 0%)" stroke-opacity="1" stroke-miterlimit="10" d="M 1442.460938 1476.210938 L 1167.539062 1000 L 1717.382812 1000 L 1442.460938 1476.210938 " transform="matrix(0.1, 0, 0, -0.1, 0, 200)"/>
<path fill="none" stroke-width="10.3923" stroke-linecap="round" stroke-linejoin="round" stroke="rgb(0%, 0%, 0%)" stroke-opacity="1" stroke-miterlimit="10" d="M 892.617188 1476.210938 L 1167.539062 1000 L 1442.460938 1476.210938 L 892.617188 1476.210938 " transform="matrix(0.1, 0, 0, -0.1, 0, 200)"/>
<path fill="none" stroke-width="10.3923" stroke-linecap="round" stroke-linejoin="round" stroke="rgb(0%, 0%, 0%)" stroke-opacity="1" stroke-miterlimit="10" d="M 67.8125 1000 L 342.734375 523.789062 L 617.695312 1000 L 67.8125 1000 " transform="matrix(0.1, 0, 0, -0.1, 0, 200)"/>
<path fill="none" stroke-width="10.3923" stroke-linecap="round" stroke-linejoin="round" stroke="rgb(0%, 0%, 0%)" stroke-opacity="1" stroke-miterlimit="10" d="M 617.695312 1000 L 342.734375 523.789062 L 892.617188 523.789062 L 617.695312 1000 " transform="matrix(0.1, 0, 0, -0.1, 0, 200)"/>
<path fill="none" stroke-width="10.3923" stroke-linecap="round" stroke-linejoin="round" stroke="rgb(0%, 0%, 0%)" stroke-opacity="1" stroke-miterlimit="10" d="M 617.695312 1000 L 892.617188 523.789062 L 1167.539062 1000 L 617.695312 1000 " transform="matrix(0.1, 0, 0, -0.1, 0, 200)"/>
<path fill="none" stroke-width="10.3923" stroke-linecap="round" stroke-linejoin="round" stroke="rgb(0%, 0%, 0%)" stroke-opacity="1" stroke-miterlimit="10" d="M 1167.539062 1000 L 892.617188 523.789062 L 1442.460938 523.789062 L 1167.539062 1000 " transform="matrix(0.1, 0, 0, -0.1, 0, 200)"/>
<path fill="none" stroke-width="10.3923" stroke-linecap="round" stroke-linejoin="round" stroke="rgb(0%, 0%, 0%)" stroke-opacity="1" stroke-miterlimit="10" d="M 892.617188 523.789062 L 1167.539062 47.617188 L 1442.460938 523.789062 L 892.617188 523.789062 " transform="matrix(0.1, 0, 0, -0.1, 0, 200)"/>
<path fill="none" stroke-width="10.3923" stroke-linecap="round" stroke-linejoin="round" stroke="rgb(0%, 0%, 0%)" stroke-opacity="1" stroke-miterlimit="10" d="M 1167.539062 1000 L 1442.460938 523.789062 L 1717.382812 1000 L 1167.539062 1000 " transform="matrix(0.1, 0, 0, -0.1, 0, 200)"/>
<path fill="none" stroke-width="10.3923" stroke-linecap="round" stroke-linejoin="round" stroke="rgb(0%, 0%, 0%)" stroke-opacity="1" stroke-miterlimit="10" d="M 1717.382812 1000 L 1442.460938 523.789062 L 1992.304688 523.789062 L 1717.382812 1000 " transform="matrix(0.1, 0, 0, -0.1, 0, 200)"/>
<path fill="none" stroke-width="10.3923" stroke-linecap="round" stroke-linejoin="round" stroke="rgb(0%, 0%, 0%)" stroke-opacity="1" stroke-miterlimit="10" d="M 1442.460938 523.789062 L 1717.382812 47.617188 L 1992.304688 523.789062 L 1442.460938 523.789062 " transform="matrix(0.1, 0, 0, -0.1, 0, 200)"/>
<path fill="none" stroke-width="10.3923" stroke-linecap="round" stroke-linejoin="round" stroke="rgb(0%, 0%, 0%)" stroke-opacity="1" stroke-miterlimit="10" d="M 1992.304688 523.789062 L 1717.382812 47.617188 L 2267.265625 47.617188 L 1992.304688 523.789062 " transform="matrix(0.1, 0, 0, -0.1, 0, 200)"/>
</svg>
