<?xml version="1.0" encoding="UTF-8"?>
<svg xmlns="http://www.w3.org/2000/svg" xmlns:xlink="http://www.w3.org/1999/xlink" width="193" height="199" viewBox="0 0 193 199">
<path fill="none" stroke-width="7.70116" stroke-linecap="round" stroke-linejoin="round" stroke="rgb(0%, 0%, 0%)" stroke-opacity="1" stroke-miterlimit="10" d="M 598.125 738.125 L 828.789062 420.625 L 1202.070312 541.914062 L 1202.070312 934.375 L 828.789062 1055.625 L 598.125 738.125 " transform="matrix(0.1, 0, 0, -0.1, 0, 199)"/>
<path fill="none" stroke-width="7.70116" stroke-linecap="round" stroke-linejoin="round" stroke="rgb(0%, 0%, 0%)" stroke-opacity="1" stroke-miterlimit="10" d="M 950.078125 1428.867188 L 1323.359375 1307.617188 L 1553.984375 1625.117188 L 1323.359375 1942.617188 L 950.078125 1821.328125 L 950.078125 1428.867188 " transform="matrix(0.1, 0, 0, -0.1, 0, 199)"/>
<path fill="none" stroke-width="7.70116" stroke-linecap="round" stroke-linejoin="round" stroke="rgb(0%, 0%, 0%)" stroke-opacity="1" stroke-miterlimit="10" d="M 828.789062 420.625 L 598.125 738.125 L 280.625 507.460938 L 511.289062 189.960938 L 828.789062 420.625 " transform="matrix(0.1, 0, 0, -0.1, 0, 199)"/>
<path fill="none" stroke-width="7.70116" stroke-linecap="round" stroke-linejoin="round" stroke="rgb(0%, 0%, 0%)" stroke-opacity="1" stroke-miterlimit="10" d="M 1202.070312 541.914062 L 828.789062 420.625 L 950.078125 47.382812 L 1323.359375 168.671875 L 1202.070312 541.914062 " transform="matrix(0.1, 0, 0, -0.1, 0, 199)"/>
<path fill="none" stroke-width="7.70116" stroke-linecap="round" stroke-linejoin="round" stroke="rgb(0%, 0%, 0%)" stroke-opacity="1" stroke-miterlimit="10" d="M 828.789062 1055.625 L 1202.070312 934.375 L 1323.359375 1307.617188 L 950.078125 1428.867188 L 828.789062 1055.625 " transform="matrix(0.1, 0, 0, -0.1, 0, 199)"/>
<path fill="none" stroke-width="7.70116" stroke-linecap="round" stroke-linejoin="round" stroke="rgb(0%, 0%, 0%)" stroke-opacity="1" stroke-miterlimit="10" d="M 1202.070312 541.914062 L 1541.914062 738.125 L 1202.070312 934.375 L 1202.070312 541.914062 " transform="matrix(0.1, 0, 0, -0.1, 0, 199)"/>
<path fill="none" stroke-width="7.70116" stroke-linecap="round" stroke-linejoin="round" stroke="rgb(0%, 0%, 0%)" stroke-opacity="1" stroke-miterlimit="10" d="M 1202.070312 541.914062 L 1541.914062 345.664062 L 1541.914062 738.125 L 1202.070312 541.914062 " transform="matrix(0.1, 0, 0, -0.1, 0, 199)"/>
<path fill="none" stroke-width="7.70116" stroke-linecap="round" stroke-linejoin="round" stroke="rgb(0%, 0%, 0%)" stroke-opacity="1" stroke-miterlimit="10" d="M 1202.070312 934.375 L 1541.914062 738.125 L 1541.914062 1130.585938 L 1202.070312 934.375 " transform="matrix(0.1, 0, 0, -0.1, 0, 199)"/>
<path fill="none" stroke-width="7.70116" stroke-linecap="round" stroke-linejoin="round" stroke="rgb(0%, 0%, 0%)" stroke-opacity="1" stroke-miterlimit="10" d="M 1541.914062 1130.585938 L 1541.914062 738.125 L 1881.796875 934.375 L 1541.914062 1130.585938 " transform="matrix(0.1, 0, 0, -0.1, 0, 199)"/>
<path fill="none" stroke-width="7.70116" stroke-linecap="round" stroke-linejoin="round" stroke="rgb(0%, 0%, 0%)" stroke-opacity="1" stroke-miterlimit="10" d="M 828.789062 1055.625 L 438.476562 1096.640625 L 598.125 738.125 L 828.789062 1055.625 " transform="matrix(0.1, 0, 0, -0.1, 0, 199)"/>
<path fill="none" stroke-width="7.70116" stroke-linecap="round" stroke-linejoin="round" stroke="rgb(0%, 0%, 0%)" stroke-opacity="1" stroke-miterlimit="10" d="M 828.789062 1055.625 L 669.179688 1414.140625 L 438.476562 1096.640625 L 828.789062 1055.625 " transform="matrix(0.1, 0, 0, -0.1, 0, 199)"/>
<path fill="none" stroke-width="7.70116" stroke-linecap="round" stroke-linejoin="round" stroke="rgb(0%, 0%, 0%)" stroke-opacity="1" stroke-miterlimit="10" d="M 598.125 738.125 L 438.476562 1096.640625 L 207.8125 779.140625 L 598.125 738.125 " transform="matrix(0.1, 0, 0, -0.1, 0, 199)"/>
<path fill="none" stroke-width="7.70116" stroke-linecap="round" stroke-linejoin="round" stroke="rgb(0%, 0%, 0%)" stroke-opacity="1" stroke-miterlimit="10" d="M 207.8125 779.140625 L 438.476562 1096.640625 L 48.203125 1137.65625 L 207.8125 779.140625 " transform="matrix(0.1, 0, 0, -0.1, 0, 199)"/>
</svg>
