<?xml version="1.0" encoding="UTF-8"?>
<svg xmlns="http://www.w3.org/2000/svg" xmlns:xlink="http://www.w3.org/1999/xlink" width="279" height="201" viewBox="0 0 279 201">
<path fill="none" stroke-width="11.0704" stroke-linecap="round" stroke-linejoin="round" stroke="rgb(0%, 0%, 0%)" stroke-opacity="1" stroke-miterlimit="10" d="M 813.90625 1111.328125 L 813.90625 685.9375 L 1182.304688 473.28125 L 1550.703125 685.9375 L 1550.703125 1111.328125 L 1182.304688 1324.0625 L 813.90625 1111.328125 " transform="matrix(0.1, 0, 0, -0.1, 0, 201)"/>
<path fill="none" stroke-width="11.0704" stroke-linecap="round" stroke-linejoin="round" stroke="rgb(0%, 0%, 0%)" stroke-opacity="1" stroke-miterlimit="10" d="M 1976.09375 1111.328125 L 1976.09375 685.9375 L 2344.492188 473.28125 L 2712.890625 685.9375 L 2712.890625 1111.328125 L 2344.492188 1324.0625 L 1976.09375 1111.328125 " transform="matrix(0.1, 0, 0, -0.1, 0, 201)"/>
<path fill="none" stroke-width="11.0704" stroke-linecap="round" stroke-linejoin="round" stroke="rgb(0%, 0%, 0%)" stroke-opacity="1" stroke-miterlimit="10" d="M 1182.304688 473.28125 L 813.90625 685.9375 L 601.210938 317.539062 L 969.609375 104.84375 L 1182.304688 473.28125 " transform="matrix(0.1, 0, 0, -0.1, 0, 201)"/>
<path fill="none" stroke-width="11.0704" stroke-linecap="round" stroke-linejoin="round" stroke="rgb(0%, 0%, 0%)" stroke-opacity="1" stroke-miterlimit="10" d="M 1550.703125 1111.328125 L 1550.703125 685.9375 L 1976.09375 685.9375 L 1976.09375 1111.328125 L 1550.703125 1111.328125 " transform="matrix(0.1, 0, 0, -0.1, 0, 201)"/>
<path fill="none" stroke-width="11.0704" stroke-linecap="round" stroke-linejoin="round" stroke="rgb(0%, 0%, 0%)" stroke-opacity="1" stroke-miterlimit="10" d="M 813.90625 1111.328125 L 1182.304688 1324.0625 L 969.609375 1692.460938 L 601.210938 1479.765625 L 813.90625 1111.328125 " transform="matrix(0.1, 0, 0, -0.1, 0, 201)"/>
<path fill="none" stroke-width="11.0704" stroke-linecap="round" stroke-linejoin="round" stroke="rgb(0%, 0%, 0%)" stroke-opacity="1" stroke-miterlimit="10" d="M 1182.304688 473.28125 L 1550.703125 260.546875 L 1550.703125 685.9375 L 1182.304688 473.28125 " transform="matrix(0.1, 0, 0, -0.1, 0, 201)"/>
<path fill="none" stroke-width="11.0704" stroke-linecap="round" stroke-linejoin="round" stroke="rgb(0%, 0%, 0%)" stroke-opacity="1" stroke-miterlimit="10" d="M 1182.304688 473.28125 L 1182.304688 47.851562 L 1550.703125 260.546875 L 1182.304688 473.28125 " transform="matrix(0.1, 0, 0, -0.1, 0, 201)"/>
<path fill="none" stroke-width="11.0704" stroke-linecap="round" stroke-linejoin="round" stroke="rgb(0%, 0%, 0%)" stroke-opacity="1" stroke-miterlimit="10" d="M 1550.703125 685.9375 L 1550.703125 260.546875 L 1919.101562 473.28125 L 1550.703125 685.9375 " transform="matrix(0.1, 0, 0, -0.1, 0, 201)"/>
<path fill="none" stroke-width="11.0704" stroke-linecap="round" stroke-linejoin="round" stroke="rgb(0%, 0%, 0%)" stroke-opacity="1" stroke-miterlimit="10" d="M 1919.101562 473.28125 L 1550.703125 260.546875 L 1919.101562 47.851562 L 1919.101562 473.28125 " transform="matrix(0.1, 0, 0, -0.1, 0, 201)"/>
<path fill="none" stroke-width="11.0704" stroke-linecap="round" stroke-linejoin="round" stroke="rgb(0%, 0%, 0%)" stroke-opacity="1" stroke-miterlimit="10" d="M 1550.703125 1111.328125 L 1550.703125 1536.757812 L 1182.304688 1324.0625 L 1550.703125 1111.328125 " transform="matrix(0.1, 0, 0, -0.1, 0, 201)"/>
<path fill="none" stroke-width="11.0704" stroke-linecap="round" stroke-linejoin="round" stroke="rgb(0%, 0%, 0%)" stroke-opacity="1" stroke-miterlimit="10" d="M 1550.703125 1111.328125 L 1919.101562 1324.0625 L 1550.703125 1536.757812 L 1550.703125 1111.328125 " transform="matrix(0.1, 0, 0, -0.1, 0, 201)"/>
<path fill="none" stroke-width="11.0704" stroke-linecap="round" stroke-linejoin="round" stroke="rgb(0%, 0%, 0%)" stroke-opacity="1" stroke-miterlimit="10" d="M 1182.304688 1324.0625 L 1550.703125 1536.757812 L 1182.304688 1749.414062 L 1182.304688 1324.0625 " transform="matrix(0.1, 0, 0, -0.1, 0, 201)"/>
<path fill="none" stroke-width="11.0704" stroke-linecap="round" stroke-linejoin="round" stroke="rgb(0%, 0%, 0%)" stroke-opacity="1" stroke-miterlimit="10" d="M 1182.304688 1749.414062 L 1550.703125 1536.757812 L 1550.703125 1962.148438 L 1182.304688 1749.414062 " transform="matrix(0.1, 0, 0, -0.1, 0, 201)"/>
<path fill="none" stroke-width="11.0704" stroke-linecap="round" stroke-linejoin="round" stroke="rgb(0%, 0%, 0%)" stroke-opacity="1" stroke-miterlimit="10" d="M 813.90625 1111.328125 L 445.507812 898.632812 L 813.90625 685.9375 L 813.90625 1111.328125 " transform="matrix(0.1, 0, 0, -0.1, 0, 201)"/>
<path fill="none" stroke-width="11.0704" stroke-linecap="round" stroke-linejoin="round" stroke="rgb(0%, 0%, 0%)" stroke-opacity="1" stroke-miterlimit="10" d="M 813.90625 1111.328125 L 445.507812 1324.0625 L 445.507812 898.632812 L 813.90625 1111.328125 " transform="matrix(0.1, 0, 0, -0.1, 0, 201)"/>
<path fill="none" stroke-width="11.0704" stroke-linecap="round" stroke-linejoin="round" stroke="rgb(0%, 0%, 0%)" stroke-opacity="1" stroke-miterlimit="10" d="M 813.90625 685.9375 L 445.507812 898.632812 L 445.507812 473.28125 L 813.90625 685.9375 " transform="matrix(0.1, 0, 0, -0.1, 0, 201)"/>
<path fill="none" stroke-width="11.0704" stroke-linecap="round" stroke-linejoin="round" stroke="rgb(0%, 0%, 0%)" stroke-opacity="1" stroke-miterlimit="10" d="M 445.507812 473.28125 L 445.507812 898.632812 L 77.109375 685.9375 L 445.507812 473.28125 " transform="matrix(0.1, 0, 0, -0.1, 0, 201)"/>
</svg>
