<?xml version="1.0" encoding="UTF-8"?>
<svg xmlns="http://www.w3.org/2000/svg" xmlns:xlink="http://www.w3.org/1999/xlink" width="282" height="133" viewBox="0 0 282 133">
<path fill="none" stroke-width="11.2262" stroke-linecap="round" stroke-linejoin="round" stroke="rgb(0%, 0%, 0%)" stroke-opacity="1" stroke-miterlimit="10" d="M 739.492188 330.703125 L 993.828125 515.46875 L 896.679688 814.53125 L 582.265625 814.53125 L 485.117188 515.46875 L 739.492188 330.703125 " transform="matrix(0.1, 0, 0, -0.1, 0, 133)"/>
<path fill="none" stroke-width="11.2262" stroke-linecap="round" stroke-linejoin="round" stroke="rgb(0%, 0%, 0%)" stroke-opacity="1" stroke-miterlimit="10" d="M 739.492188 1298.359375 L 485.117188 1113.515625 L 582.265625 814.53125 L 896.679688 814.53125 L 993.828125 1113.515625 L 739.492188 1298.359375 " transform="matrix(0.1, 0, 0, -0.1, 0, 133)"/>
<path fill="none" stroke-width="11.2262" stroke-linecap="round" stroke-linejoin="round" stroke="rgb(0%, 0%, 0%)" stroke-opacity="1" stroke-miterlimit="10" d="M 73.554688 814.53125 L 170.703125 515.46875 L 485.117188 515.46875 L 582.265625 814.53125 L 327.890625 999.335938 L 73.554688 814.53125 " transform="matrix(0.1, 0, 0, -0.1, 0, 133)"/>
<path fill="none" stroke-width="11.2262" stroke-linecap="round" stroke-linejoin="round" stroke="rgb(0%, 0%, 0%)" stroke-opacity="1" stroke-miterlimit="10" d="M 327.890625 31.640625 L 642.304688 31.640625 L 739.492188 330.703125 L 485.117188 515.46875 L 230.742188 330.703125 L 327.890625 31.640625 " transform="matrix(0.1, 0, 0, -0.1, 0, 133)"/>
<path fill="none" stroke-width="11.2262" stroke-linecap="round" stroke-linejoin="round" stroke="rgb(0%, 0%, 0%)" stroke-opacity="1" stroke-miterlimit="10" d="M 1151.054688 31.640625 L 1248.203125 330.703125 L 993.828125 515.46875 L 739.492188 330.703125 L 836.601562 31.640625 L 1151.054688 31.640625 " transform="matrix(0.1, 0, 0, -0.1, 0, 133)"/>
<path fill="none" stroke-width="11.2262" stroke-linecap="round" stroke-linejoin="round" stroke="rgb(0%, 0%, 0%)" stroke-opacity="1" stroke-miterlimit="10" d="M 1405.390625 814.53125 L 1151.054688 999.335938 L 896.679688 814.53125 L 993.828125 515.46875 L 1308.242188 515.46875 L 1405.390625 814.53125 " transform="matrix(0.1, 0, 0, -0.1, 0, 133)"/>
<path fill="none" stroke-width="11.2262" stroke-linecap="round" stroke-linejoin="round" stroke="rgb(0%, 0%, 0%)" stroke-opacity="1" stroke-miterlimit="10" d="M 1308.242188 515.46875 L 1562.617188 330.703125 L 1816.992188 515.46875 L 1719.804688 814.53125 L 1405.390625 814.53125 L 1308.242188 515.46875 " transform="matrix(0.1, 0, 0, -0.1, 0, 133)"/>
<path fill="none" stroke-width="11.2262" stroke-linecap="round" stroke-linejoin="round" stroke="rgb(0%, 0%, 0%)" stroke-opacity="1" stroke-miterlimit="10" d="M 1974.179688 31.640625 L 2228.515625 216.484375 L 2131.367188 515.46875 L 1816.992188 515.46875 L 1719.804688 216.484375 L 1974.179688 31.640625 " transform="matrix(0.1, 0, 0, -0.1, 0, 133)"/>
<path fill="none" stroke-width="11.2262" stroke-linecap="round" stroke-linejoin="round" stroke="rgb(0%, 0%, 0%)" stroke-opacity="1" stroke-miterlimit="10" d="M 2385.742188 1298.359375 L 2071.328125 1298.359375 L 1974.179688 999.335938 L 2228.515625 814.53125 L 2482.890625 999.335938 L 2385.742188 1298.359375 " transform="matrix(0.1, 0, 0, -0.1, 0, 133)"/>
<path fill="none" stroke-width="11.2262" stroke-linecap="round" stroke-linejoin="round" stroke="rgb(0%, 0%, 0%)" stroke-opacity="1" stroke-miterlimit="10" d="M 1562.617188 1298.359375 L 1465.46875 999.335938 L 1719.804688 814.53125 L 1974.179688 999.335938 L 1876.992188 1298.359375 L 1562.617188 1298.359375 " transform="matrix(0.1, 0, 0, -0.1, 0, 133)"/>
<path fill="none" stroke-width="11.2262" stroke-linecap="round" stroke-linejoin="round" stroke="rgb(0%, 0%, 0%)" stroke-opacity="1" stroke-miterlimit="10" d="M 1974.179688 999.335938 L 1719.804688 814.53125 L 1816.992188 515.46875 L 2131.367188 515.46875 L 2228.515625 814.53125 L 1974.179688 999.335938 " transform="matrix(0.1, 0, 0, -0.1, 0, 133)"/>
<path fill="none" stroke-width="11.2262" stroke-linecap="round" stroke-linejoin="round" stroke="rgb(0%, 0%, 0%)" stroke-opacity="1" stroke-miterlimit="10" d="M 2438.90625 580.859375 L 2228.515625 814.53125 L 2131.367188 515.46875 L 2438.90625 580.859375 " transform="matrix(0.1, 0, 0, -0.1, 0, 133)"/>
<path fill="none" stroke-width="11.2262" stroke-linecap="round" stroke-linejoin="round" stroke="rgb(0%, 0%, 0%)" stroke-opacity="1" stroke-miterlimit="10" d="M 2438.90625 580.859375 L 2131.367188 515.46875 L 2341.757812 281.835938 L 2438.90625 580.859375 " transform="matrix(0.1, 0, 0, -0.1, 0, 133)"/>
<path fill="none" stroke-width="11.2262" stroke-linecap="round" stroke-linejoin="round" stroke="rgb(0%, 0%, 0%)" stroke-opacity="1" stroke-miterlimit="10" d="M 2438.90625 580.859375 L 2536.054688 879.882812 L 2228.515625 814.53125 L 2438.90625 580.859375 " transform="matrix(0.1, 0, 0, -0.1, 0, 133)"/>
<path fill="none" stroke-width="11.2262" stroke-linecap="round" stroke-linejoin="round" stroke="rgb(0%, 0%, 0%)" stroke-opacity="1" stroke-miterlimit="10" d="M 2438.90625 580.859375 L 2746.445312 646.25 L 2536.054688 879.882812 L 2438.90625 580.859375 " transform="matrix(0.1, 0, 0, -0.1, 0, 133)"/>
<path fill="none" stroke-width="11.2262" stroke-linecap="round" stroke-linejoin="round" stroke="rgb(0%, 0%, 0%)" stroke-opacity="1" stroke-miterlimit="10" d="M 2746.445312 646.25 L 2438.90625 580.859375 L 2649.296875 347.1875 L 2746.445312 646.25 " transform="matrix(0.1, 0, 0, -0.1, 0, 133)"/>
</svg>
