<?xml version="1.0" encoding="UTF-8"?>
<svg xmlns="http://www.w3.org/2000/svg" xmlns:xlink="http://www.w3.org/1999/xlink" width="156" height="171" viewBox="0 0 156 171">
<path fill-rule="nonzero" fill="rgb(54.6875%, 41.992188%, 66.014099%)" fill-opacity="1" stroke-width="5.64" stroke-linecap="round" stroke-linejoin="round" stroke="rgb(0%, 0%, 0%)" stroke-opacity="1" stroke-miterlimit="10" d="M 1195.703125 534.570312 L 945.585938 942.890625 L 1089.921875 1361.992188 " transform="matrix(0.1, 0, 0, -0.1, 0, 171)"/>
<path fill-rule="nonzero" fill="rgb(71.09375%, 63.28125%, 76.756287%)" fill-opacity="1" stroke-width="5.64" stroke-linecap="round" stroke-linejoin="round" stroke="rgb(0%, 0%, 0%)" stroke-opacity="1" stroke-miterlimit="10" d="M 448.242188 870.820312 L 945.585938 942.890625 L 1195.703125 534.570312 " transform="matrix(0.1, 0, 0, -0.1, 0, 171)"/>
<path fill-rule="nonzero" fill="rgb(73.046875%, 51.951599%, 60.742188%)" fill-opacity="1" stroke-width="5.64" stroke-linecap="round" stroke-linejoin="round" stroke="rgb(0%, 0%, 0%)" stroke-opacity="1" stroke-miterlimit="10" d="M 661.132812 1564.726562 L 1089.921875 1361.992188 L 945.585938 942.890625 " transform="matrix(0.1, 0, 0, -0.1, 0, 171)"/>
<path fill-rule="nonzero" fill="rgb(73.046875%, 51.951599%, 60.742188%)" fill-opacity="1" d="M 25.609375 46.378906 L 66.113281 14.527344 L 94.558594 76.710938 "/>
<path fill="none" stroke-width="5.64" stroke-linecap="round" stroke-linejoin="round" stroke="rgb(0%, 0%, 0%)" stroke-opacity="1" stroke-miterlimit="10" d="M 256.09375 1246.210938 L 661.132812 1564.726562 " transform="matrix(0.1, 0, 0, -0.1, 0, 171)"/>
<path fill-rule="nonzero" fill="rgb(73.046875%, 51.951599%, 60.742188%)" fill-opacity="1" stroke-width="5.64" stroke-linecap="round" stroke-linejoin="round" stroke="rgb(0%, 0%, 0%)" stroke-opacity="1" stroke-miterlimit="10" d="M 945.585938 942.890625 L 448.242188 870.820312 L 256.09375 1246.210938 " transform="matrix(0.1, 0, 0, -0.1, 0, 171)"/>
<path fill-rule="nonzero" fill="rgb(71.09375%, 63.28125%, 76.756287%)" fill-opacity="1" stroke-width="5.64" stroke-linecap="round" stroke-linejoin="round" stroke="rgb(0%, 0%, 0%)" stroke-opacity="1" stroke-miterlimit="10" d="M 843.398438 192.8125 L 371.953125 409.53125 L 448.242188 870.820312 " transform="matrix(0.1, 0, 0, -0.1, 0, 171)"/>
<path fill-rule="nonzero" fill="rgb(71.09375%, 63.28125%, 76.756287%)" fill-opacity="1" d="M 119.570312 117.542969 L 84.339844 151.71875 L 44.824219 83.917969 "/>
<path fill="none" stroke-width="5.64" stroke-linecap="round" stroke-linejoin="round" stroke="rgb(0%, 0%, 0%)" stroke-opacity="1" stroke-miterlimit="10" d="M 1195.703125 534.570312 L 843.398438 192.8125 " transform="matrix(0.1, 0, 0, -0.1, 0, 171)"/>
<path fill-rule="nonzero" fill="rgb(90.429688%, 75.584412%, 68.554688%)" fill-opacity="1" stroke-width="5.64" stroke-linecap="round" stroke-linejoin="round" stroke="rgb(0%, 0%, 0%)" stroke-opacity="1" stroke-miterlimit="10" d="M 256.09375 1246.210938 L 448.242188 870.820312 L 371.953125 409.53125 " transform="matrix(0.1, 0, 0, -0.1, 0, 171)"/>
<path fill-rule="nonzero" fill="rgb(25.488281%, 49.388123%, 89.256287%)" fill-opacity="1" stroke-width="5.64" stroke-linecap="round" stroke-linejoin="round" stroke="rgb(0%, 0%, 0%)" stroke-opacity="1" stroke-miterlimit="10" d="M 843.398438 192.8125 L 1195.703125 534.570312 L 1520.117188 684.882812 " transform="matrix(0.1, 0, 0, -0.1, 0, 171)"/>
<path fill-rule="nonzero" fill="rgb(54.6875%, 41.992188%, 66.014099%)" fill-opacity="1" d="M 152.011719 102.511719 L 119.570312 117.542969 L 108.992188 34.800781 "/>
<path fill="none" stroke-width="5.64" stroke-linecap="round" stroke-linejoin="round" stroke="rgb(0%, 0%, 0%)" stroke-opacity="1" stroke-miterlimit="10" d="M 1520.117188 684.882812 L 1195.703125 534.570312 " transform="matrix(0.1, 0, 0, -0.1, 0, 171)"/>
<path fill-rule="nonzero" fill="rgb(48.28949%, 27.587891%, 52.34375%)" fill-opacity="1" d="M 115.492188 3.640625 L 145.394531 48.949219 L 108.992188 34.800781 "/>
<path fill="none" stroke-width="5.64" stroke-linecap="round" stroke-linejoin="round" stroke="rgb(0%, 0%, 0%)" stroke-opacity="1" stroke-miterlimit="10" d="M 1154.921875 1673.59375 L 1453.945312 1220.507812 L 1089.921875 1361.992188 Z M 1154.921875 1673.59375 " transform="matrix(0.1, 0, 0, -0.1, 0, 171)"/>
<path fill-rule="nonzero" fill="rgb(66.796875%, 39.404297%, 49.804688%)" fill-opacity="1" d="M 115.492188 3.640625 L 108.992188 34.800781 L 66.113281 14.527344 "/>
<path fill="none" stroke-width="5.64" stroke-linecap="round" stroke-linejoin="round" stroke="rgb(0%, 0%, 0%)" stroke-opacity="1" stroke-miterlimit="10" d="M 1154.921875 1673.59375 L 1089.921875 1361.992188 L 661.132812 1564.726562 Z M 1154.921875 1673.59375 " transform="matrix(0.1, 0, 0, -0.1, 0, 171)"/>
<path fill-rule="nonzero" fill="rgb(54.6875%, 41.992188%, 66.014099%)" fill-opacity="1" stroke-width="5.64" stroke-linecap="round" stroke-linejoin="round" stroke="rgb(0%, 0%, 0%)" stroke-opacity="1" stroke-miterlimit="10" d="M 1089.921875 1361.992188 L 1453.945312 1220.507812 L 1520.117188 684.882812 " transform="matrix(0.1, 0, 0, -0.1, 0, 171)"/>
<path fill-rule="nonzero" fill="rgb(90.039062%, 86.71875%, 79.881287%)" fill-opacity="1" d="M 42.679688 167.964844 L 11.625 123.597656 L 37.195312 130.046875 "/>
<path fill="none" stroke-width="5.64" stroke-linecap="round" stroke-linejoin="round" stroke="rgb(0%, 0%, 0%)" stroke-opacity="1" stroke-miterlimit="10" d="M 426.796875 30.351562 L 116.25 474.023438 L 371.953125 409.53125 Z M 426.796875 30.351562 " transform="matrix(0.1, 0, 0, -0.1, 0, 171)"/>
<path fill-rule="nonzero" fill="rgb(73.4375%, 71.679688%, 83.201599%)" fill-opacity="1" d="M 42.679688 167.964844 L 37.195312 130.046875 L 84.339844 151.71875 "/>
<path fill="none" stroke-width="5.64" stroke-linecap="round" stroke-linejoin="round" stroke="rgb(0%, 0%, 0%)" stroke-opacity="1" stroke-miterlimit="10" d="M 426.796875 30.351562 L 371.953125 409.53125 L 843.398438 192.8125 Z M 426.796875 30.351562 " transform="matrix(0.1, 0, 0, -0.1, 0, 171)"/>
<path fill-rule="nonzero" fill="rgb(90.429688%, 75.584412%, 68.554688%)" fill-opacity="1" d="M 3.898438 69.019531 L 25.609375 46.378906 L 37.195312 130.046875 "/>
<path fill="none" stroke-width="5.64" stroke-linecap="round" stroke-linejoin="round" stroke="rgb(0%, 0%, 0%)" stroke-opacity="1" stroke-miterlimit="10" d="M 38.984375 1019.804688 L 256.09375 1246.210938 " transform="matrix(0.1, 0, 0, -0.1, 0, 171)"/>
<path fill-rule="nonzero" fill="rgb(90.429688%, 75.584412%, 68.554688%)" fill-opacity="1" stroke-width="5.64" stroke-linecap="round" stroke-linejoin="round" stroke="rgb(0%, 0%, 0%)" stroke-opacity="1" stroke-miterlimit="10" d="M 371.953125 409.53125 L 116.25 474.023438 L 38.984375 1019.804688 " transform="matrix(0.1, 0, 0, -0.1, 0, 171)"/>
<path fill-rule="nonzero" fill="rgb(40.209961%, 71.484375%, 98.631287%)" fill-opacity="1" d="M 42.679688 167.964844 L 84.339844 151.71875 L 92.5 160.863281 "/>
<path fill="none" stroke-width="5.64" stroke-linecap="round" stroke-linejoin="round" stroke="rgb(0%, 0%, 0%)" stroke-opacity="1" stroke-miterlimit="10" d="M 426.796875 30.351562 L 843.398438 192.8125 L 925 101.367188 Z M 426.796875 30.351562 " transform="matrix(0.1, 0, 0, -0.1, 0, 171)"/>
<path fill-rule="nonzero" fill="rgb(25.488281%, 49.388123%, 89.256287%)" fill-opacity="1" d="M 92.5 160.863281 L 84.339844 151.71875 L 152.011719 102.511719 "/>
<path fill="none" stroke-width="5.64" stroke-linecap="round" stroke-linejoin="round" stroke="rgb(0%, 0%, 0%)" stroke-opacity="1" stroke-miterlimit="10" d="M 925 101.367188 L 843.398438 192.8125 " transform="matrix(0.1, 0, 0, -0.1, 0, 171)"/>
<path fill-rule="nonzero" fill="rgb(0%, 30.393982%, 78.318787%)" fill-opacity="1" stroke-width="5.64" stroke-linecap="round" stroke-linejoin="round" stroke="rgb(0%, 0%, 0%)" stroke-opacity="1" stroke-miterlimit="10" d="M 661.132812 1564.726562 L 256.09375 1246.210938 L 38.984375 1019.804688 " transform="matrix(0.1, 0, 0, -0.1, 0, 171)"/>
<path fill-rule="nonzero" fill="rgb(0%, 51.951599%, 79.492188%)" fill-opacity="1" d="M 115.492188 3.640625 L 66.113281 14.527344 L 73.207031 14.671875 "/>
<path fill="none" stroke-width="5.64" stroke-linecap="round" stroke-linejoin="round" stroke="rgb(0%, 0%, 0%)" stroke-opacity="1" stroke-miterlimit="10" d="M 1154.921875 1673.59375 L 661.132812 1564.726562 L 732.070312 1563.28125 Z M 1154.921875 1673.59375 " transform="matrix(0.1, 0, 0, -0.1, 0, 171)"/>
<path fill-rule="nonzero" fill="rgb(0%, 30.393982%, 78.318787%)" fill-opacity="1" d="M 73.207031 14.671875 L 66.113281 14.527344 L 3.898438 69.019531 "/>
<path fill="none" stroke-width="5.64" stroke-linecap="round" stroke-linejoin="round" stroke="rgb(0%, 0%, 0%)" stroke-opacity="1" stroke-miterlimit="10" d="M 732.070312 1563.28125 L 661.132812 1564.726562 " transform="matrix(0.1, 0, 0, -0.1, 0, 171)"/>
<path fill-rule="nonzero" fill="rgb(25.488281%, 49.388123%, 89.256287%)" fill-opacity="1" stroke-width="5.64" stroke-linecap="round" stroke-linejoin="round" stroke="rgb(0%, 0%, 0%)" stroke-opacity="1" stroke-miterlimit="10" d="M 1520.117188 684.882812 L 1368.085938 420.976562 L 925 101.367188 " transform="matrix(0.1, 0, 0, -0.1, 0, 171)"/>
<path fill-rule="nonzero" fill="rgb(95.117188%, 79.881287%, 65.625%)" fill-opacity="1" stroke-width="5.64" stroke-linecap="round" stroke-linejoin="round" stroke="rgb(0%, 0%, 0%)" stroke-opacity="1" stroke-miterlimit="10" d="M 1520.117188 684.882812 L 1453.945312 1220.507812 L 1252.734375 1337.539062 " transform="matrix(0.1, 0, 0, -0.1, 0, 171)"/>
<path fill-rule="nonzero" fill="rgb(95.117188%, 79.881287%, 65.625%)" fill-opacity="1" d="M 136.808594 128.902344 L 152.011719 102.511719 L 125.273438 37.246094 "/>
<path fill="none" stroke-width="5.64" stroke-linecap="round" stroke-linejoin="round" stroke="rgb(0%, 0%, 0%)" stroke-opacity="1" stroke-miterlimit="10" d="M 1368.085938 420.976562 L 1520.117188 684.882812 " transform="matrix(0.1, 0, 0, -0.1, 0, 171)"/>
<path fill-rule="nonzero" fill="rgb(92.96875%, 96.09375%, 77.34375%)" fill-opacity="1" d="M 145.394531 48.949219 L 115.492188 3.640625 L 125.273438 37.246094 "/>
<path fill="none" stroke-width="5.64" stroke-linecap="round" stroke-linejoin="round" stroke="rgb(0%, 0%, 0%)" stroke-opacity="1" stroke-miterlimit="10" d="M 1453.945312 1220.507812 L 1154.921875 1673.59375 L 1252.734375 1337.539062 Z M 1453.945312 1220.507812 " transform="matrix(0.1, 0, 0, -0.1, 0, 171)"/>
<path fill-rule="nonzero" fill="rgb(36.401367%, 12.988281%, 41.992188%)" fill-opacity="1" d="M 11.625 123.597656 L 42.679688 167.964844 L 45.652344 142.929688 "/>
<path fill="none" stroke-width="5.64" stroke-linecap="round" stroke-linejoin="round" stroke="rgb(0%, 0%, 0%)" stroke-opacity="1" stroke-miterlimit="10" d="M 116.25 474.023438 L 426.796875 30.351562 L 456.523438 280.703125 Z M 116.25 474.023438 " transform="matrix(0.1, 0, 0, -0.1, 0, 171)"/>
<path fill-rule="nonzero" fill="rgb(64.0625%, 32.104492%, 41.40625%)" fill-opacity="1" d="M 42.679688 167.964844 L 92.5 160.863281 L 45.652344 142.929688 "/>
<path fill="none" stroke-width="5.64" stroke-linecap="round" stroke-linejoin="round" stroke="rgb(0%, 0%, 0%)" stroke-opacity="1" stroke-miterlimit="10" d="M 426.796875 30.351562 L 925 101.367188 L 456.523438 280.703125 Z M 426.796875 30.351562 " transform="matrix(0.1, 0, 0, -0.1, 0, 171)"/>
<path fill-rule="nonzero" fill="rgb(73.631287%, 75.193787%, 86.326599%)" fill-opacity="1" d="M 115.492188 3.640625 L 73.207031 14.671875 L 125.273438 37.246094 "/>
<path fill="none" stroke-width="5.64" stroke-linecap="round" stroke-linejoin="round" stroke="rgb(0%, 0%, 0%)" stroke-opacity="1" stroke-miterlimit="10" d="M 1154.921875 1673.59375 L 732.070312 1563.28125 L 1252.734375 1337.539062 Z M 1154.921875 1673.59375 " transform="matrix(0.1, 0, 0, -0.1, 0, 171)"/>
<path fill-rule="nonzero" fill="rgb(50.193787%, 37.792969%, 64.256287%)" fill-opacity="1" stroke-width="5.64" stroke-linecap="round" stroke-linejoin="round" stroke="rgb(0%, 0%, 0%)" stroke-opacity="1" stroke-miterlimit="10" d="M 38.984375 1019.804688 L 116.25 474.023438 L 456.523438 280.703125 " transform="matrix(0.1, 0, 0, -0.1, 0, 171)"/>
<path fill-rule="nonzero" fill="rgb(50.193787%, 37.792969%, 64.256287%)" fill-opacity="1" d="M 32.882812 50.144531 L 3.898438 69.019531 L 45.652344 142.929688 "/>
<path fill="none" stroke-width="5.64" stroke-linecap="round" stroke-linejoin="round" stroke="rgb(0%, 0%, 0%)" stroke-opacity="1" stroke-miterlimit="10" d="M 328.828125 1208.554688 L 38.984375 1019.804688 " transform="matrix(0.1, 0, 0, -0.1, 0, 171)"/>
<path fill-rule="nonzero" fill="rgb(0%, 30.393982%, 78.318787%)" fill-opacity="1" stroke-width="5.64" stroke-linecap="round" stroke-linejoin="round" stroke="rgb(0%, 0%, 0%)" stroke-opacity="1" stroke-miterlimit="10" d="M 38.984375 1019.804688 L 328.828125 1208.554688 L 732.070312 1563.28125 " transform="matrix(0.1, 0, 0, -0.1, 0, 171)"/>
<path fill-rule="nonzero" fill="rgb(73.242188%, 50.78125%, 58.59375%)" fill-opacity="1" d="M 92.5 160.863281 L 136.808594 128.902344 L 60.441406 97.078125 "/>
<path fill="none" stroke-width="5.64" stroke-linecap="round" stroke-linejoin="round" stroke="rgb(0%, 0%, 0%)" stroke-opacity="1" stroke-miterlimit="10" d="M 925 101.367188 L 1368.085938 420.976562 " transform="matrix(0.1, 0, 0, -0.1, 0, 171)"/>
<path fill-rule="nonzero" fill="rgb(73.242188%, 50.78125%, 58.59375%)" fill-opacity="1" stroke-width="5.64" stroke-linecap="round" stroke-linejoin="round" stroke="rgb(0%, 0%, 0%)" stroke-opacity="1" stroke-miterlimit="10" d="M 604.414062 739.21875 L 456.523438 280.703125 L 925 101.367188 " transform="matrix(0.1, 0, 0, -0.1, 0, 171)"/>
<path fill-rule="nonzero" fill="rgb(95.117188%, 79.881287%, 65.625%)" fill-opacity="1" stroke-width="5.64" stroke-linecap="round" stroke-linejoin="round" stroke="rgb(0%, 0%, 0%)" stroke-opacity="1" stroke-miterlimit="10" d="M 1252.734375 1337.539062 L 1191.015625 825.585938 L 1368.085938 420.976562 " transform="matrix(0.1, 0, 0, -0.1, 0, 171)"/>
<path fill-rule="nonzero" fill="rgb(73.242188%, 50.78125%, 58.59375%)" fill-opacity="1" stroke-width="5.64" stroke-linecap="round" stroke-linejoin="round" stroke="rgb(0%, 0%, 0%)" stroke-opacity="1" stroke-miterlimit="10" d="M 1368.085938 420.976562 L 1191.015625 825.585938 L 604.414062 739.21875 " transform="matrix(0.1, 0, 0, -0.1, 0, 171)"/>
<path fill-rule="nonzero" fill="rgb(71.09375%, 64.0625%, 77.539062%)" fill-opacity="1" d="M 73.207031 14.671875 L 32.882812 50.144531 L 119.101562 88.441406 "/>
<path fill="none" stroke-width="5.64" stroke-linecap="round" stroke-linejoin="round" stroke="rgb(0%, 0%, 0%)" stroke-opacity="1" stroke-miterlimit="10" d="M 732.070312 1563.28125 L 328.828125 1208.554688 " transform="matrix(0.1, 0, 0, -0.1, 0, 171)"/>
<path fill-rule="nonzero" fill="rgb(71.09375%, 64.0625%, 77.539062%)" fill-opacity="1" stroke-width="5.64" stroke-linecap="round" stroke-linejoin="round" stroke="rgb(0%, 0%, 0%)" stroke-opacity="1" stroke-miterlimit="10" d="M 1191.015625 825.585938 L 1252.734375 1337.539062 L 732.070312 1563.28125 " transform="matrix(0.1, 0, 0, -0.1, 0, 171)"/>
<path fill-rule="nonzero" fill="rgb(50.193787%, 37.792969%, 64.256287%)" fill-opacity="1" stroke-width="5.64" stroke-linecap="round" stroke-linejoin="round" stroke="rgb(0%, 0%, 0%)" stroke-opacity="1" stroke-miterlimit="10" d="M 456.523438 280.703125 L 604.414062 739.21875 L 328.828125 1208.554688 " transform="matrix(0.1, 0, 0, -0.1, 0, 171)"/>
<path fill-rule="nonzero" fill="rgb(71.09375%, 64.0625%, 77.539062%)" fill-opacity="1" stroke-width="5.64" stroke-linecap="round" stroke-linejoin="round" stroke="rgb(0%, 0%, 0%)" stroke-opacity="1" stroke-miterlimit="10" d="M 328.828125 1208.554688 L 604.414062 739.21875 L 1191.015625 825.585938 " transform="matrix(0.1, 0, 0, -0.1, 0, 171)"/>
</svg>
