<?xml version="1.0" encoding="UTF-8"?>
<svg xmlns="http://www.w3.org/2000/svg" xmlns:xlink="http://www.w3.org/1999/xlink" width="206" height="200" viewBox="0 0 206 200">
<path fill-rule="nonzero" fill="rgb(72.459412%, 54.101562%, 64.256287%)" fill-opacity="1" stroke-width="7.98" stroke-linecap="round" stroke-linejoin="round" stroke="rgb(0%, 0%, 0%)" stroke-opacity="1" stroke-miterlimit="10" d="M 1514.375 1302.304688 L 1038.90625 839.6875 L 438.164062 1086.40625 " transform="matrix(0.1, 0, 0, -0.1, 0, 200)"/>
<path fill-rule="nonzero" fill="rgb(78.514099%, 73.631287%, 80.859375%)" fill-opacity="1" stroke-width="7.98" stroke-linecap="round" stroke-linejoin="round" stroke="rgb(0%, 0%, 0%)" stroke-opacity="1" stroke-miterlimit="10" d="M 438.164062 1086.40625 L 1038.90625 839.6875 L 1177.539062 271.523438 " transform="matrix(0.1, 0, 0, -0.1, 0, 200)"/>
<path fill-rule="nonzero" fill="rgb(58.984375%, 53.709412%, 76.367188%)" fill-opacity="1" stroke-width="7.98" stroke-linecap="round" stroke-linejoin="round" stroke="rgb(0%, 0%, 0%)" stroke-opacity="1" stroke-miterlimit="10" d="M 1775.3125 377.5 L 1177.539062 271.523438 L 1038.90625 839.6875 " transform="matrix(0.1, 0, 0, -0.1, 0, 200)"/>
<path fill-rule="nonzero" fill="rgb(58.984375%, 53.709412%, 76.367188%)" fill-opacity="1" d="M 198.414062 95.855469 L 177.53125 162.25 L 103.890625 116.03125 "/>
<path fill="none" stroke-width="7.98" stroke-linecap="round" stroke-linejoin="round" stroke="rgb(0%, 0%, 0%)" stroke-opacity="1" stroke-miterlimit="10" d="M 1984.140625 1041.445312 L 1775.3125 377.5 " transform="matrix(0.1, 0, 0, -0.1, 0, 200)"/>
<path fill-rule="nonzero" fill="rgb(58.984375%, 53.709412%, 76.367188%)" fill-opacity="1" stroke-width="7.98" stroke-linecap="round" stroke-linejoin="round" stroke="rgb(0%, 0%, 0%)" stroke-opacity="1" stroke-miterlimit="10" d="M 1038.90625 839.6875 L 1514.375 1302.304688 L 1984.140625 1041.445312 " transform="matrix(0.1, 0, 0, -0.1, 0, 200)"/>
<path fill-rule="nonzero" fill="rgb(72.459412%, 54.101562%, 64.256287%)" fill-opacity="1" stroke-width="7.98" stroke-linecap="round" stroke-linejoin="round" stroke="rgb(0%, 0%, 0%)" stroke-opacity="1" stroke-miterlimit="10" d="M 533.046875 1725.429688 L 1215.625 1860.039062 L 1514.375 1302.304688 " transform="matrix(0.1, 0, 0, -0.1, 0, 200)"/>
<path fill-rule="nonzero" fill="rgb(72.459412%, 54.101562%, 64.256287%)" fill-opacity="1" d="M 43.816406 91.359375 L 53.304688 27.457031 L 151.4375 69.769531 "/>
<path fill="none" stroke-width="7.98" stroke-linecap="round" stroke-linejoin="round" stroke="rgb(0%, 0%, 0%)" stroke-opacity="1" stroke-miterlimit="10" d="M 438.164062 1086.40625 L 533.046875 1725.429688 " transform="matrix(0.1, 0, 0, -0.1, 0, 200)"/>
<path fill-rule="nonzero" fill="rgb(39.598083%, 16.40625%, 44.091797%)" fill-opacity="1" stroke-width="7.98" stroke-linecap="round" stroke-linejoin="round" stroke="rgb(0%, 0%, 0%)" stroke-opacity="1" stroke-miterlimit="10" d="M 1984.140625 1041.445312 L 1514.375 1302.304688 L 1215.625 1860.039062 " transform="matrix(0.1, 0, 0, -0.1, 0, 200)"/>
<path fill-rule="nonzero" fill="rgb(96.875%, 70.3125%, 47.605896%)" fill-opacity="1" stroke-width="7.98" stroke-linecap="round" stroke-linejoin="round" stroke="rgb(0%, 0%, 0%)" stroke-opacity="1" stroke-miterlimit="10" d="M 533.046875 1725.429688 L 438.164062 1086.40625 L 162.382812 672.421875 " transform="matrix(0.1, 0, 0, -0.1, 0, 200)"/>
<path fill-rule="nonzero" fill="rgb(78.514099%, 73.631287%, 80.859375%)" fill-opacity="1" d="M 16.238281 132.757812 L 43.816406 91.359375 L 117.753906 172.847656 "/>
<path fill="none" stroke-width="7.98" stroke-linecap="round" stroke-linejoin="round" stroke="rgb(0%, 0%, 0%)" stroke-opacity="1" stroke-miterlimit="10" d="M 162.382812 672.421875 L 438.164062 1086.40625 " transform="matrix(0.1, 0, 0, -0.1, 0, 200)"/>
<path fill-rule="nonzero" fill="rgb(78.514099%, 73.631287%, 80.859375%)" fill-opacity="1" stroke-width="7.98" stroke-linecap="round" stroke-linejoin="round" stroke="rgb(0%, 0%, 0%)" stroke-opacity="1" stroke-miterlimit="10" d="M 1177.539062 271.523438 L 635.78125 142.8125 L 162.382812 672.421875 " transform="matrix(0.1, 0, 0, -0.1, 0, 200)"/>
<path fill-rule="nonzero" fill="rgb(0%, 55.076599%, 81.25%)" fill-opacity="1" stroke-width="7.98" stroke-linecap="round" stroke-linejoin="round" stroke="rgb(0%, 0%, 0%)" stroke-opacity="1" stroke-miterlimit="10" d="M 635.78125 142.8125 L 1177.539062 271.523438 L 1775.3125 377.5 " transform="matrix(0.1, 0, 0, -0.1, 0, 200)"/>
<path fill-rule="nonzero" fill="rgb(44.309998%, 0%, 0%)" fill-opacity="1" stroke-width="7.98" stroke-linecap="round" stroke-linejoin="round" stroke="rgb(0%, 0%, 0%)" stroke-opacity="1" stroke-miterlimit="10" d="M 1491.328125 1989.921875 L 1215.625 1860.039062 L 533.046875 1725.429688 " transform="matrix(0.1, 0, 0, -0.1, 0, 200)"/>
<path fill-rule="nonzero" fill="rgb(39.598083%, 16.40625%, 44.091797%)" fill-opacity="1" d="M 199.695312 54.390625 L 198.414062 95.855469 L 121.5625 13.996094 "/>
<path fill="none" stroke-width="7.98" stroke-linecap="round" stroke-linejoin="round" stroke="rgb(0%, 0%, 0%)" stroke-opacity="1" stroke-miterlimit="10" d="M 1996.953125 1456.09375 L 1984.140625 1041.445312 " transform="matrix(0.1, 0, 0, -0.1, 0, 200)"/>
<path fill-rule="nonzero" fill="rgb(39.598083%, 16.40625%, 44.091797%)" fill-opacity="1" stroke-width="7.98" stroke-linecap="round" stroke-linejoin="round" stroke="rgb(0%, 0%, 0%)" stroke-opacity="1" stroke-miterlimit="10" d="M 1215.625 1860.039062 L 1491.328125 1989.921875 L 1996.953125 1456.09375 " transform="matrix(0.1, 0, 0, -0.1, 0, 200)"/>
<path fill-rule="nonzero" fill="rgb(96.875%, 70.3125%, 47.605896%)" fill-opacity="1" stroke-width="7.98" stroke-linecap="round" stroke-linejoin="round" stroke="rgb(0%, 0%, 0%)" stroke-opacity="1" stroke-miterlimit="10" d="M 68.59375 1069.84375 L 314.492188 1758.28125 L 533.046875 1725.429688 " transform="matrix(0.1, 0, 0, -0.1, 0, 200)"/>
<path fill-rule="nonzero" fill="rgb(96.875%, 70.3125%, 47.605896%)" fill-opacity="1" d="M 16.238281 132.757812 L 6.859375 93.015625 L 53.304688 27.457031 "/>
<path fill="none" stroke-width="7.98" stroke-linecap="round" stroke-linejoin="round" stroke="rgb(0%, 0%, 0%)" stroke-opacity="1" stroke-miterlimit="10" d="M 162.382812 672.421875 L 68.59375 1069.84375 " transform="matrix(0.1, 0, 0, -0.1, 0, 200)"/>
<path fill-rule="nonzero" fill="rgb(44.309998%, 0%, 0%)" fill-opacity="1" d="M 53.304688 27.457031 L 31.449219 24.171875 L 149.132812 1.007812 "/>
<path fill="none" stroke-width="7.98" stroke-linecap="round" stroke-linejoin="round" stroke="rgb(0%, 0%, 0%)" stroke-opacity="1" stroke-miterlimit="10" d="M 533.046875 1725.429688 L 314.492188 1758.28125 " transform="matrix(0.1, 0, 0, -0.1, 0, 200)"/>
<path fill-rule="nonzero" fill="rgb(0%, 55.076599%, 81.25%)" fill-opacity="1" d="M 177.53125 162.25 L 163.609375 168.191406 L 63.578125 185.71875 "/>
<path fill="none" stroke-width="7.98" stroke-linecap="round" stroke-linejoin="round" stroke="rgb(0%, 0%, 0%)" stroke-opacity="1" stroke-miterlimit="10" d="M 1775.3125 377.5 L 1636.09375 318.085938 " transform="matrix(0.1, 0, 0, -0.1, 0, 200)"/>
<path fill-rule="nonzero" fill="rgb(96.875%, 66.796875%, 27.001953%)" fill-opacity="1" d="M 198.414062 95.855469 L 199.695312 54.390625 L 163.609375 168.191406 "/>
<path fill="none" stroke-width="7.98" stroke-linecap="round" stroke-linejoin="round" stroke="rgb(0%, 0%, 0%)" stroke-opacity="1" stroke-miterlimit="10" d="M 1984.140625 1041.445312 L 1996.953125 1456.09375 " transform="matrix(0.1, 0, 0, -0.1, 0, 200)"/>
<path fill-rule="nonzero" fill="rgb(96.875%, 66.796875%, 27.001953%)" fill-opacity="1" stroke-width="7.98" stroke-linecap="round" stroke-linejoin="round" stroke="rgb(0%, 0%, 0%)" stroke-opacity="1" stroke-miterlimit="10" d="M 1636.09375 318.085938 L 1775.3125 377.5 L 1984.140625 1041.445312 " transform="matrix(0.1, 0, 0, -0.1, 0, 200)"/>
<path fill-rule="nonzero" fill="rgb(85.9375%, 90.234375%, 86.326599%)" fill-opacity="1" d="M 15.285156 168.359375 L 16.238281 132.757812 L 63.578125 185.71875 "/>
<path fill="none" stroke-width="7.98" stroke-linecap="round" stroke-linejoin="round" stroke="rgb(0%, 0%, 0%)" stroke-opacity="1" stroke-miterlimit="10" d="M 152.851562 316.40625 L 162.382812 672.421875 L 635.78125 142.8125 Z M 152.851562 316.40625 " transform="matrix(0.1, 0, 0, -0.1, 0, 200)"/>
<path fill-rule="nonzero" fill="rgb(89.646912%, 79.492188%, 31.005859%)" fill-opacity="1" d="M 15.285156 168.359375 L 6.859375 93.015625 L 16.238281 132.757812 "/>
<path fill="none" stroke-width="7.98" stroke-linecap="round" stroke-linejoin="round" stroke="rgb(0%, 0%, 0%)" stroke-opacity="1" stroke-miterlimit="10" d="M 152.851562 316.40625 L 68.59375 1069.84375 L 162.382812 672.421875 Z M 152.851562 316.40625 " transform="matrix(0.1, 0, 0, -0.1, 0, 200)"/>
<path fill-rule="nonzero" fill="rgb(0%, 55.076599%, 81.25%)" fill-opacity="1" stroke-width="7.98" stroke-linecap="round" stroke-linejoin="round" stroke="rgb(0%, 0%, 0%)" stroke-opacity="1" stroke-miterlimit="10" d="M 1636.09375 318.085938 L 884.101562 163.046875 L 635.78125 142.8125 " transform="matrix(0.1, 0, 0, -0.1, 0, 200)"/>
<path fill-rule="nonzero" fill="rgb(16.601562%, 0%, 0%)" fill-opacity="1" d="M 88.410156 183.695312 L 15.285156 168.359375 L 63.578125 185.71875 "/>
<path fill="none" stroke-width="7.98" stroke-linecap="round" stroke-linejoin="round" stroke="rgb(0%, 0%, 0%)" stroke-opacity="1" stroke-miterlimit="10" d="M 884.101562 163.046875 L 152.851562 316.40625 L 635.78125 142.8125 Z M 884.101562 163.046875 " transform="matrix(0.1, 0, 0, -0.1, 0, 200)"/>
<path fill-rule="nonzero" fill="rgb(44.309998%, 0%, 0%)" fill-opacity="1" stroke-width="7.98" stroke-linecap="round" stroke-linejoin="round" stroke="rgb(0%, 0%, 0%)" stroke-opacity="1" stroke-miterlimit="10" d="M 314.492188 1758.28125 L 925.273438 1930.46875 L 1491.328125 1989.921875 " transform="matrix(0.1, 0, 0, -0.1, 0, 200)"/>
<path fill-rule="nonzero" fill="rgb(55.664062%, 85.351562%, 99.804688%)" fill-opacity="1" d="M 92.527344 6.953125 L 166.53125 19.824219 L 149.132812 1.007812 "/>
<path fill="none" stroke-width="7.98" stroke-linecap="round" stroke-linejoin="round" stroke="rgb(0%, 0%, 0%)" stroke-opacity="1" stroke-miterlimit="10" d="M 925.273438 1930.46875 L 1665.3125 1801.757812 L 1491.328125 1989.921875 Z M 925.273438 1930.46875 " transform="matrix(0.1, 0, 0, -0.1, 0, 200)"/>
<path fill-rule="nonzero" fill="rgb(52.734375%, 82.617188%, 50%)" fill-opacity="1" d="M 166.53125 19.824219 L 199.695312 54.390625 L 149.132812 1.007812 "/>
<path fill="none" stroke-width="7.98" stroke-linecap="round" stroke-linejoin="round" stroke="rgb(0%, 0%, 0%)" stroke-opacity="1" stroke-miterlimit="10" d="M 1665.3125 1801.757812 L 1996.953125 1456.09375 L 1491.328125 1989.921875 Z M 1665.3125 1801.757812 " transform="matrix(0.1, 0, 0, -0.1, 0, 200)"/>
<path fill-rule="nonzero" fill="rgb(56.054688%, 52.539062%, 77.34375%)" fill-opacity="1" d="M 31.449219 24.171875 L 6.859375 93.015625 L 108.183594 68.515625 "/>
<path fill="none" stroke-width="7.98" stroke-linecap="round" stroke-linejoin="round" stroke="rgb(0%, 0%, 0%)" stroke-opacity="1" stroke-miterlimit="10" d="M 314.492188 1758.28125 L 68.59375 1069.84375 " transform="matrix(0.1, 0, 0, -0.1, 0, 200)"/>
<path fill-rule="nonzero" fill="rgb(56.054688%, 52.539062%, 77.34375%)" fill-opacity="1" stroke-width="7.98" stroke-linecap="round" stroke-linejoin="round" stroke="rgb(0%, 0%, 0%)" stroke-opacity="1" stroke-miterlimit="10" d="M 1081.835938 1314.84375 L 925.273438 1930.46875 L 314.492188 1758.28125 " transform="matrix(0.1, 0, 0, -0.1, 0, 200)"/>
<path fill-rule="nonzero" fill="rgb(93.943787%, 79.881287%, 67.576599%)" fill-opacity="1" d="M 166.53125 19.824219 L 177.65625 98.101562 L 199.695312 54.390625 "/>
<path fill="none" stroke-width="7.98" stroke-linecap="round" stroke-linejoin="round" stroke="rgb(0%, 0%, 0%)" stroke-opacity="1" stroke-miterlimit="10" d="M 1665.3125 1801.757812 L 1776.5625 1018.984375 L 1996.953125 1456.09375 Z M 1665.3125 1801.757812 " transform="matrix(0.1, 0, 0, -0.1, 0, 200)"/>
<path fill-rule="nonzero" fill="rgb(96.875%, 66.796875%, 27.001953%)" fill-opacity="1" stroke-width="7.98" stroke-linecap="round" stroke-linejoin="round" stroke="rgb(0%, 0%, 0%)" stroke-opacity="1" stroke-miterlimit="10" d="M 1996.953125 1456.09375 L 1776.5625 1018.984375 L 1636.09375 318.085938 " transform="matrix(0.1, 0, 0, -0.1, 0, 200)"/>
<path fill-rule="nonzero" fill="rgb(49.09668%, 39.208984%, 66.992188%)" fill-opacity="1" d="M 15.285156 168.359375 L 52.359375 123.46875 L 6.859375 93.015625 "/>
<path fill="none" stroke-width="7.98" stroke-linecap="round" stroke-linejoin="round" stroke="rgb(0%, 0%, 0%)" stroke-opacity="1" stroke-miterlimit="10" d="M 152.851562 316.40625 L 523.59375 765.3125 L 68.59375 1069.84375 Z M 152.851562 316.40625 " transform="matrix(0.1, 0, 0, -0.1, 0, 200)"/>
<path fill-rule="nonzero" fill="rgb(56.054688%, 52.539062%, 77.34375%)" fill-opacity="1" stroke-width="7.98" stroke-linecap="round" stroke-linejoin="round" stroke="rgb(0%, 0%, 0%)" stroke-opacity="1" stroke-miterlimit="10" d="M 68.59375 1069.84375 L 523.59375 765.3125 L 1081.835938 1314.84375 " transform="matrix(0.1, 0, 0, -0.1, 0, 200)"/>
<path fill-rule="nonzero" fill="rgb(63.476562%, 41.893005%, 57.03125%)" fill-opacity="1" d="M 15.285156 168.359375 L 88.410156 183.695312 L 52.359375 123.46875 "/>
<path fill="none" stroke-width="7.98" stroke-linecap="round" stroke-linejoin="round" stroke="rgb(0%, 0%, 0%)" stroke-opacity="1" stroke-miterlimit="10" d="M 152.851562 316.40625 L 884.101562 163.046875 L 523.59375 765.3125 Z M 152.851562 316.40625 " transform="matrix(0.1, 0, 0, -0.1, 0, 200)"/>
<path fill-rule="nonzero" fill="rgb(72.851562%, 53.318787%, 62.889099%)" fill-opacity="1" d="M 163.609375 168.191406 L 177.65625 98.101562 L 52.359375 123.46875 "/>
<path fill="none" stroke-width="7.98" stroke-linecap="round" stroke-linejoin="round" stroke="rgb(0%, 0%, 0%)" stroke-opacity="1" stroke-miterlimit="10" d="M 1636.09375 318.085938 L 1776.5625 1018.984375 " transform="matrix(0.1, 0, 0, -0.1, 0, 200)"/>
<path fill-rule="nonzero" fill="rgb(72.851562%, 53.318787%, 62.889099%)" fill-opacity="1" stroke-width="7.98" stroke-linecap="round" stroke-linejoin="round" stroke="rgb(0%, 0%, 0%)" stroke-opacity="1" stroke-miterlimit="10" d="M 523.59375 765.3125 L 884.101562 163.046875 L 1636.09375 318.085938 " transform="matrix(0.1, 0, 0, -0.1, 0, 200)"/>
<path fill-rule="nonzero" fill="rgb(66.40625%, 63.28125%, 80.664062%)" fill-opacity="1" d="M 166.53125 19.824219 L 92.527344 6.953125 L 108.183594 68.515625 "/>
<path fill="none" stroke-width="7.98" stroke-linecap="round" stroke-linejoin="round" stroke="rgb(0%, 0%, 0%)" stroke-opacity="1" stroke-miterlimit="10" d="M 1665.3125 1801.757812 L 925.273438 1930.46875 L 1081.835938 1314.84375 Z M 1665.3125 1801.757812 " transform="matrix(0.1, 0, 0, -0.1, 0, 200)"/>
<path fill-rule="nonzero" fill="rgb(76.171875%, 62.304688%, 70.701599%)" fill-opacity="1" d="M 166.53125 19.824219 L 108.183594 68.515625 L 177.65625 98.101562 "/>
<path fill="none" stroke-width="7.98" stroke-linecap="round" stroke-linejoin="round" stroke="rgb(0%, 0%, 0%)" stroke-opacity="1" stroke-miterlimit="10" d="M 1665.3125 1801.757812 L 1081.835938 1314.84375 L 1776.5625 1018.984375 Z M 1665.3125 1801.757812 " transform="matrix(0.1, 0, 0, -0.1, 0, 200)"/>
<path fill-rule="nonzero" fill="rgb(72.851562%, 53.318787%, 62.889099%)" fill-opacity="1" stroke-width="7.98" stroke-linecap="round" stroke-linejoin="round" stroke="rgb(0%, 0%, 0%)" stroke-opacity="1" stroke-miterlimit="10" d="M 1776.5625 1018.984375 L 1081.835938 1314.84375 L 523.59375 765.3125 " transform="matrix(0.1, 0, 0, -0.1, 0, 200)"/>
</svg>
