<?xml version="1.0" encoding="UTF-8"?>
<svg xmlns="http://www.w3.org/2000/svg" xmlns:xlink="http://www.w3.org/1999/xlink" width="282" height="154" viewBox="0 0 282 154">
<path fill="none" stroke-width="11.2086" stroke-linecap="round" stroke-linejoin="round" stroke="rgb(0%, 0%, 0%)" stroke-opacity="1" stroke-miterlimit="10" d="M 846.71875 395.859375 L 1100.664062 580.390625 L 1003.671875 878.90625 L 689.765625 878.90625 L 592.773438 580.390625 L 846.71875 395.859375 " transform="matrix(0.1, 0, 0, -0.1, 0, 154)"/>
<path fill="none" stroke-width="11.2086" stroke-linecap="round" stroke-linejoin="round" stroke="rgb(0%, 0%, 0%)" stroke-opacity="1" stroke-miterlimit="10" d="M 846.71875 1361.992188 L 592.773438 1177.5 L 689.765625 878.90625 L 1003.671875 878.90625 L 1100.664062 1177.5 L 846.71875 1361.992188 " transform="matrix(0.1, 0, 0, -0.1, 0, 154)"/>
<path fill="none" stroke-width="11.2086" stroke-linecap="round" stroke-linejoin="round" stroke="rgb(0%, 0%, 0%)" stroke-opacity="1" stroke-miterlimit="10" d="M 435.820312 97.304688 L 749.6875 97.304688 L 846.71875 395.859375 L 592.773438 580.390625 L 338.789062 395.859375 L 435.820312 97.304688 " transform="matrix(0.1, 0, 0, -0.1, 0, 154)"/>
<path fill="none" stroke-width="11.2086" stroke-linecap="round" stroke-linejoin="round" stroke="rgb(0%, 0%, 0%)" stroke-opacity="1" stroke-miterlimit="10" d="M 1257.617188 97.304688 L 1354.648438 395.859375 L 1100.664062 580.390625 L 846.71875 395.859375 L 943.710938 97.304688 L 1257.617188 97.304688 " transform="matrix(0.1, 0, 0, -0.1, 0, 154)"/>
<path fill="none" stroke-width="11.2086" stroke-linecap="round" stroke-linejoin="round" stroke="rgb(0%, 0%, 0%)" stroke-opacity="1" stroke-miterlimit="10" d="M 1511.601562 878.90625 L 1257.617188 1063.4375 L 1003.671875 878.90625 L 1100.664062 580.390625 L 1414.609375 580.390625 L 1511.601562 878.90625 " transform="matrix(0.1, 0, 0, -0.1, 0, 154)"/>
<path fill="none" stroke-width="11.2086" stroke-linecap="round" stroke-linejoin="round" stroke="rgb(0%, 0%, 0%)" stroke-opacity="1" stroke-miterlimit="10" d="M 1414.609375 580.390625 L 1668.554688 395.859375 L 1922.5 580.390625 L 1825.507812 878.90625 L 1511.601562 878.90625 L 1414.609375 580.390625 " transform="matrix(0.1, 0, 0, -0.1, 0, 154)"/>
<path fill="none" stroke-width="11.2086" stroke-linecap="round" stroke-linejoin="round" stroke="rgb(0%, 0%, 0%)" stroke-opacity="1" stroke-miterlimit="10" d="M 2744.335938 580.390625 L 2647.34375 878.90625 L 2333.4375 878.90625 L 2236.445312 580.390625 L 2490.390625 395.859375 L 2744.335938 580.390625 " transform="matrix(0.1, 0, 0, -0.1, 0, 154)"/>
<path fill="none" stroke-width="11.2086" stroke-linecap="round" stroke-linejoin="round" stroke="rgb(0%, 0%, 0%)" stroke-opacity="1" stroke-miterlimit="10" d="M 2490.390625 1361.992188 L 2176.484375 1361.992188 L 2079.453125 1063.4375 L 2333.4375 878.90625 L 2587.382812 1063.4375 L 2490.390625 1361.992188 " transform="matrix(0.1, 0, 0, -0.1, 0, 154)"/>
<path fill="none" stroke-width="11.2086" stroke-linecap="round" stroke-linejoin="round" stroke="rgb(0%, 0%, 0%)" stroke-opacity="1" stroke-miterlimit="10" d="M 2079.453125 1063.4375 L 1825.507812 878.90625 L 1922.5 580.390625 L 2236.445312 580.390625 L 2333.4375 878.90625 L 2079.453125 1063.4375 " transform="matrix(0.1, 0, 0, -0.1, 0, 154)"/>
<path fill="none" stroke-width="11.2086" stroke-linecap="round" stroke-linejoin="round" stroke="rgb(0%, 0%, 0%)" stroke-opacity="1" stroke-miterlimit="10" d="M 2079.453125 308.515625 L 2236.445312 580.390625 L 1922.5 580.390625 L 2079.453125 308.515625 " transform="matrix(0.1, 0, 0, -0.1, 0, 154)"/>
<path fill="none" stroke-width="11.2086" stroke-linecap="round" stroke-linejoin="round" stroke="rgb(0%, 0%, 0%)" stroke-opacity="1" stroke-miterlimit="10" d="M 2079.453125 308.515625 L 1922.5 580.390625 L 1765.546875 308.515625 L 2079.453125 308.515625 " transform="matrix(0.1, 0, 0, -0.1, 0, 154)"/>
<path fill="none" stroke-width="11.2086" stroke-linecap="round" stroke-linejoin="round" stroke="rgb(0%, 0%, 0%)" stroke-opacity="1" stroke-miterlimit="10" d="M 2079.453125 308.515625 L 2393.398438 308.515625 L 2236.445312 580.390625 L 2079.453125 308.515625 " transform="matrix(0.1, 0, 0, -0.1, 0, 154)"/>
<path fill="none" stroke-width="11.2086" stroke-linecap="round" stroke-linejoin="round" stroke="rgb(0%, 0%, 0%)" stroke-opacity="1" stroke-miterlimit="10" d="M 2079.453125 308.515625 L 2236.445312 36.679688 L 2393.398438 308.515625 L 2079.453125 308.515625 " transform="matrix(0.1, 0, 0, -0.1, 0, 154)"/>
<path fill="none" stroke-width="11.2086" stroke-linecap="round" stroke-linejoin="round" stroke="rgb(0%, 0%, 0%)" stroke-opacity="1" stroke-miterlimit="10" d="M 2236.445312 36.679688 L 2079.453125 308.515625 L 1922.5 36.679688 L 2236.445312 36.679688 " transform="matrix(0.1, 0, 0, -0.1, 0, 154)"/>
<path fill="none" stroke-width="11.2086" stroke-linecap="round" stroke-linejoin="round" stroke="rgb(0%, 0%, 0%)" stroke-opacity="1" stroke-miterlimit="10" d="M 382.695312 813.671875 L 592.773438 580.390625 L 689.765625 878.90625 L 382.695312 813.671875 " transform="matrix(0.1, 0, 0, -0.1, 0, 154)"/>
<path fill="none" stroke-width="11.2086" stroke-linecap="round" stroke-linejoin="round" stroke="rgb(0%, 0%, 0%)" stroke-opacity="1" stroke-miterlimit="10" d="M 382.695312 813.671875 L 689.765625 878.90625 L 479.726562 1112.226562 L 382.695312 813.671875 " transform="matrix(0.1, 0, 0, -0.1, 0, 154)"/>
<path fill="none" stroke-width="11.2086" stroke-linecap="round" stroke-linejoin="round" stroke="rgb(0%, 0%, 0%)" stroke-opacity="1" stroke-miterlimit="10" d="M 382.695312 813.671875 L 285.703125 515.117188 L 592.773438 580.390625 L 382.695312 813.671875 " transform="matrix(0.1, 0, 0, -0.1, 0, 154)"/>
<path fill="none" stroke-width="11.2086" stroke-linecap="round" stroke-linejoin="round" stroke="rgb(0%, 0%, 0%)" stroke-opacity="1" stroke-miterlimit="10" d="M 382.695312 813.671875 L 75.664062 748.398438 L 285.703125 515.117188 L 382.695312 813.671875 " transform="matrix(0.1, 0, 0, -0.1, 0, 154)"/>
<path fill="none" stroke-width="11.2086" stroke-linecap="round" stroke-linejoin="round" stroke="rgb(0%, 0%, 0%)" stroke-opacity="1" stroke-miterlimit="10" d="M 75.664062 748.398438 L 382.695312 813.671875 L 172.65625 1046.953125 L 75.664062 748.398438 " transform="matrix(0.1, 0, 0, -0.1, 0, 154)"/>
<path fill="none" stroke-width="11.2086" stroke-linecap="round" stroke-linejoin="round" stroke="rgb(0%, 0%, 0%)" stroke-opacity="1" stroke-miterlimit="10" d="M 1792.695312 1191.132812 L 1825.507812 878.90625 L 2079.453125 1063.4375 L 1792.695312 1191.132812 " transform="matrix(0.1, 0, 0, -0.1, 0, 154)"/>
<path fill="none" stroke-width="11.2086" stroke-linecap="round" stroke-linejoin="round" stroke="rgb(0%, 0%, 0%)" stroke-opacity="1" stroke-miterlimit="10" d="M 1792.695312 1191.132812 L 2079.453125 1063.4375 L 2046.640625 1375.664062 L 1792.695312 1191.132812 " transform="matrix(0.1, 0, 0, -0.1, 0, 154)"/>
<path fill="none" stroke-width="11.2086" stroke-linecap="round" stroke-linejoin="round" stroke="rgb(0%, 0%, 0%)" stroke-opacity="1" stroke-miterlimit="10" d="M 1792.695312 1191.132812 L 1538.710938 1006.601562 L 1825.507812 878.90625 L 1792.695312 1191.132812 " transform="matrix(0.1, 0, 0, -0.1, 0, 154)"/>
<path fill="none" stroke-width="11.2086" stroke-linecap="round" stroke-linejoin="round" stroke="rgb(0%, 0%, 0%)" stroke-opacity="1" stroke-miterlimit="10" d="M 1792.695312 1191.132812 L 1505.9375 1318.789062 L 1538.710938 1006.601562 L 1792.695312 1191.132812 " transform="matrix(0.1, 0, 0, -0.1, 0, 154)"/>
<path fill="none" stroke-width="11.2086" stroke-linecap="round" stroke-linejoin="round" stroke="rgb(0%, 0%, 0%)" stroke-opacity="1" stroke-miterlimit="10" d="M 1505.9375 1318.789062 L 1792.695312 1191.132812 L 1759.882812 1503.320312 L 1505.9375 1318.789062 " transform="matrix(0.1, 0, 0, -0.1, 0, 154)"/>
</svg>
