<?xml version="1.0" encoding="UTF-8"?>
<svg xmlns="http://www.w3.org/2000/svg" xmlns:xlink="http://www.w3.org/1999/xlink" width="190.41" height="189.08" viewBox="0 0 190.41 189.08">
<defs>
<clipPath id="clip-0">
<path clip-rule="nonzero" d="M 0.167969 46 L 63 46 L 63 164 L 0.167969 164 Z M 0.167969 46 "/>
</clipPath>
<clipPath id="clip-1">
<path clip-rule="nonzero" d="M 0.167969 46 L 64 46 L 64 164 L 0.167969 164 Z M 0.167969 46 "/>
</clipPath>
<clipPath id="clip-2">
<path clip-rule="nonzero" d="M 0.167969 0 L 97 0 L 97 102 L 0.167969 102 Z M 0.167969 0 "/>
</clipPath>
<clipPath id="clip-3">
<path clip-rule="nonzero" d="M 96 0 L 189.65625 0 L 189.65625 83 L 96 83 Z M 96 0 "/>
</clipPath>
<clipPath id="clip-4">
<path clip-rule="nonzero" d="M 18 163 L 128 163 L 128 188.164062 L 18 188.164062 Z M 18 163 "/>
</clipPath>
<clipPath id="clip-5">
<path clip-rule="nonzero" d="M 111 11 L 189.65625 11 L 189.65625 188 L 111 188 Z M 111 11 "/>
</clipPath>
<clipPath id="clip-6">
<path clip-rule="nonzero" d="M 170 11 L 189.65625 11 L 189.65625 83 L 170 83 Z M 170 11 "/>
</clipPath>
<clipPath id="clip-7">
<path clip-rule="nonzero" d="M 111 81 L 172 81 L 172 188.164062 L 111 188.164062 Z M 111 81 "/>
</clipPath>
<clipPath id="clip-8">
<path clip-rule="nonzero" d="M 0.167969 0 L 97 0 L 97 96 L 0.167969 96 Z M 0.167969 0 "/>
</clipPath>
<clipPath id="clip-9">
<path clip-rule="nonzero" d="M 24 0 L 189.65625 0 L 189.65625 96 L 24 96 Z M 24 0 "/>
</clipPath>
<clipPath id="clip-10">
<path clip-rule="nonzero" d="M 96 0 L 189.65625 0 L 189.65625 13 L 96 13 Z M 96 0 "/>
</clipPath>
<clipPath id="clip-11">
<path clip-rule="nonzero" d="M 0.167969 46 L 25 46 L 25 164 L 0.167969 164 Z M 0.167969 46 "/>
</clipPath>
<clipPath id="clip-12">
<path clip-rule="nonzero" d="M 18 95 L 112 95 L 112 188.164062 L 18 188.164062 Z M 18 95 "/>
</clipPath>
<clipPath id="clip-13">
<path clip-rule="nonzero" d="M 24 11 L 189.65625 11 L 189.65625 96 L 24 96 Z M 24 11 "/>
</clipPath>
<clipPath id="clip-14">
<path clip-rule="nonzero" d="M 111 11 L 189.65625 11 L 189.65625 188 L 111 188 Z M 111 11 "/>
</clipPath>
<clipPath id="clip-15">
<path clip-rule="nonzero" d="M 111 11 L 189.65625 11 L 189.65625 188.164062 L 111 188.164062 Z M 111 11 "/>
</clipPath>
<clipPath id="clip-16">
<path clip-rule="nonzero" d="M 24 72 L 154 72 L 154 188.164062 L 24 188.164062 Z M 24 72 "/>
</clipPath>
</defs>
<path fill-rule="nonzero" fill="rgb(71.994019%, 64.448547%, 72.608948%)" fill-opacity="1" d="M 170.75 82.265625 L 127.089844 181.851562 L 62.851562 101.203125 L 170.75 82.265625 "/>
<path fill="none" stroke-width="7.46" stroke-linecap="round" stroke-linejoin="round" stroke="rgb(13.729858%, 12.159729%, 12.548828%)" stroke-opacity="1" stroke-miterlimit="10" d="M 1714.125767 1064.14098 L 1275.399847 63.436087 L 629.891415 873.844545 Z M 1714.125767 1064.14098 " transform="matrix(0.0995158, 0, 0, -0.0995158, 0.167421, 188.164455)"/>
<path fill-rule="nonzero" fill="rgb(72.781372%, 61.37085%, 65.715027%)" fill-opacity="1" d="M 170.75 82.265625 L 62.851562 101.203125 L 96.582031 0.375 L 170.75 82.265625 "/>
<path fill="none" stroke-width="7.46" stroke-linecap="round" stroke-linejoin="round" stroke="rgb(13.729858%, 12.159729%, 12.548828%)" stroke-opacity="1" stroke-miterlimit="10" d="M 1714.125767 1064.14098 L 629.891415 873.844545 L 968.837314 1887.031754 Z M 1714.125767 1064.14098 " transform="matrix(0.0995158, 0, 0, -0.0995158, 0.167421, 188.164455)"/>
<g clip-path="url(#clip-0)">
<path fill-rule="nonzero" fill="rgb(88.43689%, 77.340698%, 71.012878%)" fill-opacity="1" d="M 0.539062 46.609375 L 62.851562 101.203125 L 19.339844 163.5 L 0.539062 46.609375 "/>
</g>
<g clip-path="url(#clip-1)">
<path fill="none" stroke-width="7.46" stroke-linecap="round" stroke-linejoin="round" stroke="rgb(13.729858%, 12.159729%, 12.548828%)" stroke-opacity="1" stroke-miterlimit="10" d="M 3.734497 1422.438394 L 629.891415 873.844545 L 192.657093 247.844637 Z M 3.734497 1422.438394 " transform="matrix(0.0995158, 0, 0, -0.0995158, 0.167421, 188.164455)"/>
</g>
<g clip-path="url(#clip-2)">
<path fill-rule="nonzero" fill="rgb(81.015015%, 64.553833%, 61.418152%)" fill-opacity="1" d="M 0.539062 46.609375 L 96.582031 0.375 L 62.851562 101.203125 L 0.539062 46.609375 "/>
<path fill="none" stroke-width="7.46" stroke-linecap="round" stroke-linejoin="round" stroke="rgb(13.729858%, 12.159729%, 12.548828%)" stroke-opacity="1" stroke-miterlimit="10" d="M 3.734497 1422.438394 L 968.837314 1887.031754 L 629.891415 873.844545 Z M 3.734497 1422.438394 " transform="matrix(0.0995158, 0, 0, -0.0995158, 0.167421, 188.164455)"/>
</g>
<path fill-rule="nonzero" fill="rgb(79.196167%, 75.238037%, 80.686951%)" fill-opacity="1" d="M 62.851562 101.203125 L 127.089844 181.851562 L 19.339844 163.5 L 62.851562 101.203125 "/>
<path fill="none" stroke-width="7.46" stroke-linecap="round" stroke-linejoin="round" stroke="rgb(13.729858%, 12.159729%, 12.548828%)" stroke-opacity="1" stroke-miterlimit="10" d="M 629.891415 873.844545 L 1275.399847 63.436087 L 192.657093 247.844637 Z M 629.891415 873.844545 " transform="matrix(0.0995158, 0, 0, -0.0995158, 0.167421, 188.164455)"/>
<g clip-path="url(#clip-3)">
<path fill-rule="nonzero" fill="rgb(61.412048%, 48.272705%, 54.150391%)" fill-opacity="1" d="M 189.289062 11.738281 L 170.75 82.265625 L 96.582031 0.375 L 189.289062 11.738281 "/>
<path fill="none" stroke-width="7.46" stroke-linecap="round" stroke-linejoin="round" stroke="rgb(13.729858%, 12.159729%, 12.548828%)" stroke-opacity="1" stroke-miterlimit="10" d="M 1900.418441 1772.846042 L 1714.125767 1064.14098 L 968.837314 1887.031754 Z M 1900.418441 1772.846042 " transform="matrix(0.0995158, 0, 0, -0.0995158, 0.167421, 188.164455)"/>
</g>
<path fill-rule="nonzero" fill="rgb(44.212341%, 71.833801%, 86.125183%)" fill-opacity="1" d="M 19.339844 163.5 L 127.089844 181.851562 L 111.40625 187.792969 L 19.339844 163.5 "/>
<g clip-path="url(#clip-4)">
<path fill="none" stroke-width="7.46" stroke-linecap="round" stroke-linejoin="round" stroke="rgb(13.729858%, 12.159729%, 12.548828%)" stroke-opacity="1" stroke-miterlimit="10" d="M 192.657093 247.844637 L 1275.399847 63.436087 L 1117.800799 3.732935 Z M 192.657093 247.844637 " transform="matrix(0.0995158, 0, 0, -0.0995158, 0.167421, 188.164455)"/>
</g>
<g clip-path="url(#clip-5)">
<path fill-rule="nonzero" fill="rgb(89.767456%, 59.519958%, 18.177795%)" fill-opacity="1" d="M 170.75 82.265625 L 189.289062 11.738281 L 111.40625 187.792969 "/>
</g>
<g clip-path="url(#clip-6)">
<path fill="none" stroke-width="7.46" stroke-linecap="round" stroke-linejoin="round" stroke="rgb(13.729858%, 12.159729%, 12.548828%)" stroke-opacity="1" stroke-miterlimit="10" d="M 1714.125767 1064.14098 L 1900.418441 1772.846042 " transform="matrix(0.0995158, 0, 0, -0.0995158, 0.167421, 188.164455)"/>
</g>
<path fill-rule="nonzero" fill="rgb(89.767456%, 59.519958%, 18.177795%)" fill-opacity="1" d="M 111.40625 187.792969 L 127.089844 181.851562 L 170.75 82.265625 "/>
<g clip-path="url(#clip-7)">
<path fill="none" stroke-width="7.46" stroke-linecap="round" stroke-linejoin="round" stroke="rgb(13.729858%, 12.159729%, 12.548828%)" stroke-opacity="1" stroke-miterlimit="10" d="M 1117.800799 3.732935 L 1275.399847 63.436087 L 1714.125767 1064.14098 " transform="matrix(0.0995158, 0, 0, -0.0995158, 0.167421, 188.164455)"/>
</g>
<g clip-path="url(#clip-8)">
<path fill-rule="nonzero" fill="rgb(62.504578%, 65.594482%, 81.832886%)" fill-opacity="1" stroke-width="7.46" stroke-linecap="round" stroke-linejoin="round" stroke="rgb(13.729858%, 12.159729%, 12.548828%)" stroke-opacity="1" stroke-miterlimit="10" d="M 968.837314 1887.031754 L 3.734497 1422.438394 L 244.745247 931.977593 " transform="matrix(0.0995158, 0, 0, -0.0995158, 0.167421, 188.164455)"/>
</g>
<g clip-path="url(#clip-9)">
<path fill-rule="nonzero" fill="rgb(62.504578%, 65.594482%, 81.832886%)" fill-opacity="1" d="M 189.289062 11.738281 L 96.582031 0.375 L 24.523438 95.417969 "/>
</g>
<g clip-path="url(#clip-10)">
<path fill="none" stroke-width="7.46" stroke-linecap="round" stroke-linejoin="round" stroke="rgb(13.729858%, 12.159729%, 12.548828%)" stroke-opacity="1" stroke-miterlimit="10" d="M 1900.418441 1772.846042 L 968.837314 1887.031754 " transform="matrix(0.0995158, 0, 0, -0.0995158, 0.167421, 188.164455)"/>
</g>
<g clip-path="url(#clip-11)">
<path fill-rule="nonzero" fill="rgb(28.642273%, 25.120544%, 34.246826%)" fill-opacity="1" d="M 24.523438 95.417969 L 0.539062 46.609375 L 19.339844 163.5 L 24.523438 95.417969 "/>
<path fill="none" stroke-width="7.46" stroke-linecap="round" stroke-linejoin="round" stroke="rgb(13.729858%, 12.159729%, 12.548828%)" stroke-opacity="1" stroke-miterlimit="10" d="M 244.745247 931.977593 L 3.734497 1422.438394 L 192.657093 247.844637 Z M 244.745247 931.977593 " transform="matrix(0.0995158, 0, 0, -0.0995158, 0.167421, 188.164455)"/>
</g>
<path fill-rule="nonzero" fill="rgb(56.228638%, 42.619324%, 48.361206%)" fill-opacity="1" d="M 111.40625 187.792969 L 24.523438 95.417969 L 19.339844 163.5 L 111.40625 187.792969 "/>
<g clip-path="url(#clip-12)">
<path fill="none" stroke-width="7.46" stroke-linecap="round" stroke-linejoin="round" stroke="rgb(13.729858%, 12.159729%, 12.548828%)" stroke-opacity="1" stroke-miterlimit="10" d="M 1117.800799 3.732935 L 244.745247 931.977593 L 192.657093 247.844637 Z M 1117.800799 3.732935 " transform="matrix(0.0995158, 0, 0, -0.0995158, 0.167421, 188.164455)"/>
</g>
<g clip-path="url(#clip-13)">
<path fill-rule="nonzero" fill="rgb(62.504578%, 65.594482%, 81.832886%)" fill-opacity="1" stroke-width="7.46" stroke-linecap="round" stroke-linejoin="round" stroke="rgb(13.729858%, 12.159729%, 12.548828%)" stroke-opacity="1" stroke-miterlimit="10" d="M 244.745247 931.977593 L 1535.526596 1160.780795 L 1900.418441 1772.846042 " transform="matrix(0.0995158, 0, 0, -0.0995158, 0.167421, 188.164455)"/>
</g>
<g clip-path="url(#clip-14)">
<path fill-rule="nonzero" fill="rgb(89.767456%, 59.519958%, 18.177795%)" fill-opacity="1" d="M 189.289062 11.738281 L 152.976562 72.648438 L 111.40625 187.792969 "/>
</g>
<g clip-path="url(#clip-15)">
<path fill="none" stroke-width="7.46" stroke-linecap="round" stroke-linejoin="round" stroke="rgb(13.729858%, 12.159729%, 12.548828%)" stroke-opacity="1" stroke-miterlimit="10" d="M 1900.418441 1772.846042 L 1535.526596 1160.780795 L 1117.800799 3.732935 " transform="matrix(0.0995158, 0, 0, -0.0995158, 0.167421, 188.164455)"/>
</g>
<path fill-rule="nonzero" fill="rgb(72.477722%, 60.682678%, 64.926147%)" fill-opacity="1" d="M 111.40625 187.792969 L 152.976562 72.648438 L 24.523438 95.417969 L 111.40625 187.792969 "/>
<g clip-path="url(#clip-16)">
<path fill="none" stroke-width="7.46" stroke-linecap="round" stroke-linejoin="round" stroke="rgb(13.729858%, 12.159729%, 12.548828%)" stroke-opacity="1" stroke-miterlimit="10" d="M 1117.800799 3.732935 L 1535.526596 1160.780795 L 244.745247 931.977593 Z M 1117.800799 3.732935 " transform="matrix(0.0995158, 0, 0, -0.0995158, 0.167421, 188.164455)"/>
</g>
</svg>
