<?xml version="1.0" encoding="UTF-8"?>
<svg xmlns="http://www.w3.org/2000/svg" xmlns:xlink="http://www.w3.org/1999/xlink" width="138" height="200" viewBox="0 0 138 200">
<path fill="none" stroke-width="5.52" stroke-linecap="round" stroke-linejoin="round" stroke="rgb(0%, 0%, 0%)" stroke-opacity="1" stroke-miterlimit="10" d="M 417.382812 870.664062 L 644.609375 557.851562 L 1012.304688 677.34375 L 1012.304688 1063.945312 L 644.609375 1183.4375 L 417.382812 870.664062 " transform="matrix(0.1, 0, 0, -0.1, 0, 200)"/>
<path fill="none" stroke-width="5.52" stroke-linecap="round" stroke-linejoin="round" stroke="rgb(0%, 0%, 0%)" stroke-opacity="1" stroke-miterlimit="10" d="M 644.609375 1570.078125 L 644.609375 1183.4375 L 1012.304688 1063.945312 L 1239.570312 1376.757812 L 1012.304688 1689.53125 L 644.609375 1570.078125 " transform="matrix(0.1, 0, 0, -0.1, 0, 200)"/>
<path fill="none" stroke-width="5.52" stroke-linecap="round" stroke-linejoin="round" stroke="rgb(0%, 0%, 0%)" stroke-opacity="1" stroke-miterlimit="10" d="M 32.851562 830.234375 L 260.117188 517.460938 L 417.382812 870.664062 L 32.851562 830.234375 " transform="matrix(0.1, 0, 0, -0.1, 0, 200)"/>
<path fill="none" stroke-width="5.52" stroke-linecap="round" stroke-linejoin="round" stroke="rgb(0%, 0%, 0%)" stroke-opacity="1" stroke-miterlimit="10" d="M 260.117188 517.460938 L 644.609375 557.851562 L 417.382812 870.664062 L 260.117188 517.460938 " transform="matrix(0.1, 0, 0, -0.1, 0, 200)"/>
<path fill="none" stroke-width="5.52" stroke-linecap="round" stroke-linejoin="round" stroke="rgb(0%, 0%, 0%)" stroke-opacity="1" stroke-miterlimit="10" d="M 417.382812 870.664062 L 644.609375 1183.4375 L 260.117188 1223.867188 L 417.382812 870.664062 " transform="matrix(0.1, 0, 0, -0.1, 0, 200)"/>
<path fill="none" stroke-width="5.52" stroke-linecap="round" stroke-linejoin="round" stroke="rgb(0%, 0%, 0%)" stroke-opacity="1" stroke-miterlimit="10" d="M 644.609375 1570.078125 L 1012.304688 1689.53125 L 725 1948.242188 L 644.609375 1570.078125 " transform="matrix(0.1, 0, 0, -0.1, 0, 200)"/>
<path fill="none" stroke-width="5.52" stroke-linecap="round" stroke-linejoin="round" stroke="rgb(0%, 0%, 0%)" stroke-opacity="1" stroke-miterlimit="10" d="M 1012.304688 677.34375 L 644.609375 557.851562 L 644.609375 171.25 L 1012.304688 51.757812 L 1239.570312 364.570312 L 1012.304688 677.34375 " transform="matrix(0.1, 0, 0, -0.1, 0, 200)"/>
<path fill="none" stroke-width="5.52" stroke-linecap="round" stroke-linejoin="round" stroke="rgb(0%, 0%, 0%)" stroke-opacity="1" stroke-miterlimit="10" d="M 1012.304688 1063.945312 L 1012.304688 677.34375 L 1347.148438 870.664062 L 1012.304688 1063.945312 " transform="matrix(0.1, 0, 0, -0.1, 0, 200)"/>
</svg>
