<?xml version="1.0" encoding="UTF-8"?>
<svg xmlns="http://www.w3.org/2000/svg" xmlns:xlink="http://www.w3.org/1999/xlink" width="227" height="200" viewBox="0 0 227 200">
<path fill-rule="nonzero" fill="rgb(69.139099%, 54.296875%, 67.96875%)" fill-opacity="1" d="M 148.804688 76.519531 L 125.894531 120.65625 L 98.636719 78.976562 "/>
<path fill="none" stroke-width="6.82" stroke-linecap="round" stroke-linejoin="round" stroke="rgb(0%, 0%, 0%)" stroke-opacity="1" stroke-miterlimit="10" d="M 1488.046875 1234.804688 L 1258.945312 793.4375 L 986.367188 1210.234375 Z M 1488.046875 1234.804688 " transform="matrix(0.1, 0, 0, -0.1, 0, 200)"/>
<path fill-rule="nonzero" fill="rgb(42.088318%, 41.893005%, 75.193787%)" fill-opacity="1" d="M 125.894531 120.65625 L 148.804688 76.519531 L 153.671875 192.625 "/>
<path fill="none" stroke-width="6.82" stroke-linecap="round" stroke-linejoin="round" stroke="rgb(0%, 0%, 0%)" stroke-opacity="1" stroke-miterlimit="10" d="M 1258.945312 793.4375 L 1488.046875 1234.804688 " transform="matrix(0.1, 0, 0, -0.1, 0, 200)"/>
<path fill-rule="nonzero" fill="rgb(42.088318%, 41.893005%, 75.193787%)" fill-opacity="1" stroke-width="6.82" stroke-linecap="round" stroke-linejoin="round" stroke="rgb(0%, 0%, 0%)" stroke-opacity="1" stroke-miterlimit="10" d="M 1536.71875 73.75 L 1269.0625 327.578125 L 1258.945312 793.4375 " transform="matrix(0.1, 0, 0, -0.1, 0, 200)"/>
<path fill-rule="nonzero" fill="rgb(85.742188%, 78.514099%, 77.734375%)" fill-opacity="1" d="M 125.894531 120.65625 L 126.90625 167.242188 L 24.746094 83.476562 "/>
<path fill="none" stroke-width="6.82" stroke-linecap="round" stroke-linejoin="round" stroke="rgb(0%, 0%, 0%)" stroke-opacity="1" stroke-miterlimit="10" d="M 1258.945312 793.4375 L 1269.0625 327.578125 " transform="matrix(0.1, 0, 0, -0.1, 0, 200)"/>
<path fill-rule="nonzero" fill="rgb(85.742188%, 78.514099%, 77.734375%)" fill-opacity="1" d="M 98.636719 78.976562 L 125.894531 120.65625 L 24.746094 83.476562 "/>
<path fill="none" stroke-width="6.82" stroke-linecap="round" stroke-linejoin="round" stroke="rgb(0%, 0%, 0%)" stroke-opacity="1" stroke-miterlimit="10" d="M 986.367188 1210.234375 L 1258.945312 793.4375 " transform="matrix(0.1, 0, 0, -0.1, 0, 200)"/>
<path fill-rule="nonzero" fill="rgb(63.084412%, 25.292969%, 30.809021%)" fill-opacity="1" d="M 98.636719 78.976562 L 57.996094 62.539062 L 84.039062 7.414062 "/>
<path fill="none" stroke-width="6.82" stroke-linecap="round" stroke-linejoin="round" stroke="rgb(0%, 0%, 0%)" stroke-opacity="1" stroke-miterlimit="10" d="M 986.367188 1210.234375 L 579.960938 1374.609375 " transform="matrix(0.1, 0, 0, -0.1, 0, 200)"/>
<path fill-rule="nonzero" fill="rgb(63.084412%, 25.292969%, 30.809021%)" fill-opacity="1" d="M 148.804688 76.519531 L 98.636719 78.976562 L 84.039062 7.414062 "/>
<path fill="none" stroke-width="6.82" stroke-linecap="round" stroke-linejoin="round" stroke="rgb(0%, 0%, 0%)" stroke-opacity="1" stroke-miterlimit="10" d="M 1488.046875 1234.804688 L 986.367188 1210.234375 " transform="matrix(0.1, 0, 0, -0.1, 0, 200)"/>
<path fill-rule="nonzero" fill="rgb(85.742188%, 78.514099%, 77.734375%)" fill-opacity="1" stroke-width="6.82" stroke-linecap="round" stroke-linejoin="round" stroke="rgb(0%, 0%, 0%)" stroke-opacity="1" stroke-miterlimit="10" d="M 247.460938 1165.234375 L 579.960938 1374.609375 L 986.367188 1210.234375 " transform="matrix(0.1, 0, 0, -0.1, 0, 200)"/>
<path fill-rule="nonzero" fill="rgb(42.088318%, 41.893005%, 75.193787%)" fill-opacity="1" d="M 148.804688 76.519531 L 185.410156 56.015625 L 153.671875 192.625 "/>
<path fill="none" stroke-width="6.82" stroke-linecap="round" stroke-linejoin="round" stroke="rgb(0%, 0%, 0%)" stroke-opacity="1" stroke-miterlimit="10" d="M 1488.046875 1234.804688 L 1854.101562 1439.84375 " transform="matrix(0.1, 0, 0, -0.1, 0, 200)"/>
<path fill-rule="nonzero" fill="rgb(63.084412%, 25.292969%, 30.809021%)" fill-opacity="1" d="M 185.410156 56.015625 L 148.804688 76.519531 L 84.039062 7.414062 "/>
<path fill="none" stroke-width="6.82" stroke-linecap="round" stroke-linejoin="round" stroke="rgb(0%, 0%, 0%)" stroke-opacity="1" stroke-miterlimit="10" d="M 1854.101562 1439.84375 L 1488.046875 1234.804688 " transform="matrix(0.1, 0, 0, -0.1, 0, 200)"/>
<path fill-rule="nonzero" fill="rgb(61.131287%, 74.804688%, 94.139099%)" fill-opacity="1" d="M 126.90625 167.242188 L 153.671875 192.625 L 98.558594 194.53125 "/>
<path fill="none" stroke-width="6.82" stroke-linecap="round" stroke-linejoin="round" stroke="rgb(0%, 0%, 0%)" stroke-opacity="1" stroke-miterlimit="10" d="M 1269.0625 327.578125 L 1536.71875 73.75 L 985.585938 54.6875 Z M 1269.0625 327.578125 " transform="matrix(0.1, 0, 0, -0.1, 0, 200)"/>
<path fill-rule="nonzero" fill="rgb(85.742188%, 78.514099%, 77.734375%)" fill-opacity="1" d="M 126.90625 167.242188 L 98.558594 194.53125 L 24.746094 83.476562 "/>
<path fill="none" stroke-width="6.82" stroke-linecap="round" stroke-linejoin="round" stroke="rgb(0%, 0%, 0%)" stroke-opacity="1" stroke-miterlimit="10" d="M 1269.0625 327.578125 L 985.585938 54.6875 " transform="matrix(0.1, 0, 0, -0.1, 0, 200)"/>
<path fill-rule="nonzero" fill="rgb(92.771912%, 59.568787%, 39.109802%)" fill-opacity="1" d="M 49.101562 33.402344 L 57.996094 62.539062 L 24.746094 83.476562 "/>
<path fill="none" stroke-width="6.82" stroke-linecap="round" stroke-linejoin="round" stroke="rgb(0%, 0%, 0%)" stroke-opacity="1" stroke-miterlimit="10" d="M 491.015625 1665.976562 L 579.960938 1374.609375 L 247.460938 1165.234375 Z M 491.015625 1665.976562 " transform="matrix(0.1, 0, 0, -0.1, 0, 200)"/>
<path fill-rule="nonzero" fill="rgb(63.084412%, 25.292969%, 30.809021%)" fill-opacity="1" stroke-width="6.82" stroke-linecap="round" stroke-linejoin="round" stroke="rgb(0%, 0%, 0%)" stroke-opacity="1" stroke-miterlimit="10" d="M 579.960938 1374.609375 L 491.015625 1665.976562 L 840.390625 1925.859375 " transform="matrix(0.1, 0, 0, -0.1, 0, 200)"/>
<path fill-rule="nonzero" fill="rgb(15.405273%, 0%, 27.806091%)" fill-opacity="1" d="M 217.351562 74.078125 L 185.410156 56.015625 L 186.617188 25.851562 "/>
<path fill="none" stroke-width="6.82" stroke-linecap="round" stroke-linejoin="round" stroke="rgb(0%, 0%, 0%)" stroke-opacity="1" stroke-miterlimit="10" d="M 2173.515625 1259.21875 L 1854.101562 1439.84375 L 1866.171875 1741.484375 Z M 2173.515625 1259.21875 " transform="matrix(0.1, 0, 0, -0.1, 0, 200)"/>
<path fill-rule="nonzero" fill="rgb(42.088318%, 41.893005%, 75.193787%)" fill-opacity="1" d="M 185.410156 56.015625 L 217.351562 74.078125 L 153.671875 192.625 "/>
<path fill="none" stroke-width="6.82" stroke-linecap="round" stroke-linejoin="round" stroke="rgb(0%, 0%, 0%)" stroke-opacity="1" stroke-miterlimit="10" d="M 1854.101562 1439.84375 L 2173.515625 1259.21875 " transform="matrix(0.1, 0, 0, -0.1, 0, 200)"/>
<path fill-rule="nonzero" fill="rgb(63.084412%, 25.292969%, 30.809021%)" fill-opacity="1" d="M 186.617188 25.851562 L 185.410156 56.015625 L 84.039062 7.414062 "/>
<path fill="none" stroke-width="6.82" stroke-linecap="round" stroke-linejoin="round" stroke="rgb(0%, 0%, 0%)" stroke-opacity="1" stroke-miterlimit="10" d="M 1866.171875 1741.484375 L 1854.101562 1439.84375 " transform="matrix(0.1, 0, 0, -0.1, 0, 200)"/>
<path fill-rule="nonzero" fill="rgb(85.742188%, 78.514099%, 77.734375%)" fill-opacity="1" d="M 98.558594 194.53125 L 53.726562 182.425781 L 24.746094 83.476562 "/>
<path fill="none" stroke-width="6.82" stroke-linecap="round" stroke-linejoin="round" stroke="rgb(0%, 0%, 0%)" stroke-opacity="1" stroke-miterlimit="10" d="M 985.585938 54.6875 L 537.265625 175.742188 " transform="matrix(0.1, 0, 0, -0.1, 0, 200)"/>
<path fill-rule="nonzero" fill="rgb(85.742188%, 78.514099%, 77.734375%)" fill-opacity="1" stroke-width="6.82" stroke-linecap="round" stroke-linejoin="round" stroke="rgb(0%, 0%, 0%)" stroke-opacity="1" stroke-miterlimit="10" d="M 537.265625 175.742188 L 215.390625 656.328125 L 247.460938 1165.234375 " transform="matrix(0.1, 0, 0, -0.1, 0, 200)"/>
<path fill-rule="nonzero" fill="rgb(54.492188%, 7.495117%, 9.008789%)" fill-opacity="1" d="M 98.558594 194.53125 L 153.671875 192.625 L 43.460938 160.574219 "/>
<path fill="none" stroke-width="6.82" stroke-linecap="round" stroke-linejoin="round" stroke="rgb(0%, 0%, 0%)" stroke-opacity="1" stroke-miterlimit="10" d="M 985.585938 54.6875 L 1536.71875 73.75 " transform="matrix(0.1, 0, 0, -0.1, 0, 200)"/>
<path fill-rule="nonzero" fill="rgb(54.492188%, 7.495117%, 9.008789%)" fill-opacity="1" stroke-width="6.82" stroke-linecap="round" stroke-linejoin="round" stroke="rgb(0%, 0%, 0%)" stroke-opacity="1" stroke-miterlimit="10" d="M 434.609375 394.257812 L 537.265625 175.742188 L 985.585938 54.6875 " transform="matrix(0.1, 0, 0, -0.1, 0, 200)"/>
<path fill-rule="nonzero" fill="rgb(42.088318%, 41.893005%, 75.193787%)" fill-opacity="1" stroke-width="6.82" stroke-linecap="round" stroke-linejoin="round" stroke="rgb(0%, 0%, 0%)" stroke-opacity="1" stroke-miterlimit="10" d="M 2225.390625 741.5625 L 1944.21875 226.71875 L 1536.71875 73.75 " transform="matrix(0.1, 0, 0, -0.1, 0, 200)"/>
<path fill-rule="nonzero" fill="rgb(42.088318%, 41.893005%, 75.193787%)" fill-opacity="1" d="M 217.351562 74.078125 L 222.539062 125.84375 L 153.671875 192.625 "/>
<path fill="none" stroke-width="6.82" stroke-linecap="round" stroke-linejoin="round" stroke="rgb(0%, 0%, 0%)" stroke-opacity="1" stroke-miterlimit="10" d="M 2173.515625 1259.21875 L 2225.390625 741.5625 " transform="matrix(0.1, 0, 0, -0.1, 0, 200)"/>
<path fill-rule="nonzero" fill="rgb(54.492188%, 7.495117%, 9.008789%)" fill-opacity="1" d="M 153.671875 192.625 L 194.421875 177.328125 L 43.460938 160.574219 "/>
<path fill="none" stroke-width="6.82" stroke-linecap="round" stroke-linejoin="round" stroke="rgb(0%, 0%, 0%)" stroke-opacity="1" stroke-miterlimit="10" d="M 1536.71875 73.75 L 1944.21875 226.71875 " transform="matrix(0.1, 0, 0, -0.1, 0, 200)"/>
<path fill-rule="nonzero" fill="rgb(99.414062%, 86.131287%, 58.789062%)" fill-opacity="1" d="M 3.617188 85.285156 L 24.746094 83.476562 L 21.539062 134.367188 "/>
<path fill="none" stroke-width="6.82" stroke-linecap="round" stroke-linejoin="round" stroke="rgb(0%, 0%, 0%)" stroke-opacity="1" stroke-miterlimit="10" d="M 36.171875 1147.148438 L 247.460938 1165.234375 L 215.390625 656.328125 Z M 36.171875 1147.148438 " transform="matrix(0.1, 0, 0, -0.1, 0, 200)"/>
<path fill-rule="nonzero" fill="rgb(93.75%, 56.25%, 23.608398%)" fill-opacity="1" stroke-width="6.82" stroke-linecap="round" stroke-linejoin="round" stroke="rgb(0%, 0%, 0%)" stroke-opacity="1" stroke-miterlimit="10" d="M 491.015625 1665.976562 L 247.460938 1165.234375 L 36.171875 1147.148438 " transform="matrix(0.1, 0, 0, -0.1, 0, 200)"/>
<path fill-rule="nonzero" fill="rgb(93.75%, 56.25%, 23.608398%)" fill-opacity="1" stroke-width="6.82" stroke-linecap="round" stroke-linejoin="round" stroke="rgb(0%, 0%, 0%)" stroke-opacity="1" stroke-miterlimit="10" d="M 36.171875 1147.148438 L 299.882812 1695.585938 L 491.015625 1665.976562 " transform="matrix(0.1, 0, 0, -0.1, 0, 200)"/>
<path fill-rule="nonzero" fill="rgb(62.693787%, 6.492615%, 0%)" fill-opacity="1" d="M 29.988281 30.441406 L 84.039062 7.414062 L 49.101562 33.402344 "/>
<path fill="none" stroke-width="6.82" stroke-linecap="round" stroke-linejoin="round" stroke="rgb(0%, 0%, 0%)" stroke-opacity="1" stroke-miterlimit="10" d="M 299.882812 1695.585938 L 840.390625 1925.859375 L 491.015625 1665.976562 Z M 299.882812 1695.585938 " transform="matrix(0.1, 0, 0, -0.1, 0, 200)"/>
<path fill-rule="nonzero" fill="rgb(89.451599%, 84.375%, 78.709412%)" fill-opacity="1" d="M 217.351562 74.078125 L 186.617188 25.851562 L 112.664062 80.925781 "/>
<path fill="none" stroke-width="6.82" stroke-linecap="round" stroke-linejoin="round" stroke="rgb(0%, 0%, 0%)" stroke-opacity="1" stroke-miterlimit="10" d="M 2173.515625 1259.21875 L 1866.171875 1741.484375 " transform="matrix(0.1, 0, 0, -0.1, 0, 200)"/>
<path fill-rule="nonzero" fill="rgb(89.451599%, 84.375%, 78.709412%)" fill-opacity="1" d="M 222.539062 125.84375 L 217.351562 74.078125 L 112.664062 80.925781 "/>
<path fill="none" stroke-width="6.82" stroke-linecap="round" stroke-linejoin="round" stroke="rgb(0%, 0%, 0%)" stroke-opacity="1" stroke-miterlimit="10" d="M 2225.390625 741.5625 L 2173.515625 1259.21875 " transform="matrix(0.1, 0, 0, -0.1, 0, 200)"/>
<path fill-rule="nonzero" fill="rgb(63.084412%, 25.292969%, 30.809021%)" fill-opacity="1" stroke-width="6.82" stroke-linecap="round" stroke-linejoin="round" stroke="rgb(0%, 0%, 0%)" stroke-opacity="1" stroke-miterlimit="10" d="M 840.390625 1925.859375 L 1443.828125 1960.820312 L 1866.171875 1741.484375 " transform="matrix(0.1, 0, 0, -0.1, 0, 200)"/>
<path fill-rule="nonzero" fill="rgb(89.451599%, 84.375%, 78.709412%)" fill-opacity="1" d="M 186.617188 25.851562 L 144.382812 3.917969 L 112.664062 80.925781 "/>
<path fill="none" stroke-width="6.82" stroke-linecap="round" stroke-linejoin="round" stroke="rgb(0%, 0%, 0%)" stroke-opacity="1" stroke-miterlimit="10" d="M 1866.171875 1741.484375 L 1443.828125 1960.820312 " transform="matrix(0.1, 0, 0, -0.1, 0, 200)"/>
<path fill-rule="nonzero" fill="rgb(0%, 0%, 0%)" fill-opacity="1" d="M 21.539062 134.367188 L 53.726562 182.425781 L 43.460938 160.574219 "/>
<path fill="none" stroke-width="6.82" stroke-linecap="round" stroke-linejoin="round" stroke="rgb(0%, 0%, 0%)" stroke-opacity="1" stroke-miterlimit="10" d="M 215.390625 656.328125 L 537.265625 175.742188 L 434.609375 394.257812 Z M 215.390625 656.328125 " transform="matrix(0.1, 0, 0, -0.1, 0, 200)"/>
<path fill-rule="nonzero" fill="rgb(0%, 0%, 3.999329%)" fill-opacity="1" stroke-width="6.82" stroke-linecap="round" stroke-linejoin="round" stroke="rgb(0%, 0%, 0%)" stroke-opacity="1" stroke-miterlimit="10" d="M 215.390625 656.328125 L 434.609375 394.257812 L 251.875 912.851562 " transform="matrix(0.1, 0, 0, -0.1, 0, 200)"/>
<path fill-rule="nonzero" fill="rgb(0%, 0%, 3.999329%)" fill-opacity="1" stroke-width="6.82" stroke-linecap="round" stroke-linejoin="round" stroke="rgb(0%, 0%, 0%)" stroke-opacity="1" stroke-miterlimit="10" d="M 251.875 912.851562 L 36.171875 1147.148438 L 215.390625 656.328125 " transform="matrix(0.1, 0, 0, -0.1, 0, 200)"/>
<path fill-rule="nonzero" fill="rgb(86.326599%, 44.700623%, 0.0991821%)" fill-opacity="1" d="M 194.421875 177.328125 L 222.539062 125.84375 L 196.578125 154.601562 "/>
<path fill="none" stroke-width="6.82" stroke-linecap="round" stroke-linejoin="round" stroke="rgb(0%, 0%, 0%)" stroke-opacity="1" stroke-miterlimit="10" d="M 1944.21875 226.71875 L 2225.390625 741.5625 L 1965.78125 453.984375 Z M 1944.21875 226.71875 " transform="matrix(0.1, 0, 0, -0.1, 0, 200)"/>
<path fill-rule="nonzero" fill="rgb(54.492188%, 7.495117%, 9.008789%)" fill-opacity="1" d="M 194.421875 177.328125 L 196.578125 154.601562 L 43.460938 160.574219 "/>
<path fill="none" stroke-width="6.82" stroke-linecap="round" stroke-linejoin="round" stroke="rgb(0%, 0%, 0%)" stroke-opacity="1" stroke-miterlimit="10" d="M 1944.21875 226.71875 L 1965.78125 453.984375 " transform="matrix(0.1, 0, 0, -0.1, 0, 200)"/>
<path fill-rule="nonzero" fill="rgb(89.451599%, 84.375%, 78.709412%)" fill-opacity="1" d="M 196.578125 154.601562 L 222.539062 125.84375 L 112.664062 80.925781 "/>
<path fill="none" stroke-width="6.82" stroke-linecap="round" stroke-linejoin="round" stroke="rgb(0%, 0%, 0%)" stroke-opacity="1" stroke-miterlimit="10" d="M 1965.78125 453.984375 L 2225.390625 741.5625 " transform="matrix(0.1, 0, 0, -0.1, 0, 200)"/>
<path fill-rule="nonzero" fill="rgb(46.801758%, 78.125%, 99.804688%)" fill-opacity="1" d="M 112.027344 23.972656 L 144.382812 3.917969 L 84.039062 7.414062 "/>
<path fill="none" stroke-width="6.82" stroke-linecap="round" stroke-linejoin="round" stroke="rgb(0%, 0%, 0%)" stroke-opacity="1" stroke-miterlimit="10" d="M 1120.273438 1760.273438 L 1443.828125 1960.820312 L 840.390625 1925.859375 Z M 1120.273438 1760.273438 " transform="matrix(0.1, 0, 0, -0.1, 0, 200)"/>
<path fill-rule="nonzero" fill="rgb(44.40918%, 70.506287%, 97.65625%)" fill-opacity="1" stroke-width="6.82" stroke-linecap="round" stroke-linejoin="round" stroke="rgb(0%, 0%, 0%)" stroke-opacity="1" stroke-miterlimit="10" d="M 1120.273438 1760.273438 L 840.390625 1925.859375 L 299.882812 1695.585938 " transform="matrix(0.1, 0, 0, -0.1, 0, 200)"/>
<path fill-rule="nonzero" fill="rgb(89.451599%, 84.375%, 78.709412%)" fill-opacity="1" stroke-width="6.82" stroke-linecap="round" stroke-linejoin="round" stroke="rgb(0%, 0%, 0%)" stroke-opacity="1" stroke-miterlimit="10" d="M 1443.828125 1960.820312 L 1120.273438 1760.273438 L 1126.640625 1190.742188 " transform="matrix(0.1, 0, 0, -0.1, 0, 200)"/>
<path fill-rule="nonzero" fill="rgb(22.996521%, 30.101013%, 73.046875%)" fill-opacity="1" stroke-width="6.82" stroke-linecap="round" stroke-linejoin="round" stroke="rgb(0%, 0%, 0%)" stroke-opacity="1" stroke-miterlimit="10" d="M 299.882812 1695.585938 L 36.171875 1147.148438 L 251.875 912.851562 " transform="matrix(0.1, 0, 0, -0.1, 0, 200)"/>
<path fill-rule="nonzero" fill="rgb(44.40918%, 70.506287%, 97.65625%)" fill-opacity="1" stroke-width="6.82" stroke-linecap="round" stroke-linejoin="round" stroke="rgb(0%, 0%, 0%)" stroke-opacity="1" stroke-miterlimit="10" d="M 299.882812 1695.585938 L 541.875 1504.882812 L 1120.273438 1760.273438 " transform="matrix(0.1, 0, 0, -0.1, 0, 200)"/>
<path fill-rule="nonzero" fill="rgb(22.996521%, 30.101013%, 73.046875%)" fill-opacity="1" stroke-width="6.82" stroke-linecap="round" stroke-linejoin="round" stroke="rgb(0%, 0%, 0%)" stroke-opacity="1" stroke-miterlimit="10" d="M 251.875 912.851562 L 541.875 1504.882812 L 299.882812 1695.585938 " transform="matrix(0.1, 0, 0, -0.1, 0, 200)"/>
<path fill-rule="nonzero" fill="rgb(54.492188%, 7.495117%, 9.008789%)" fill-opacity="1" stroke-width="6.82" stroke-linecap="round" stroke-linejoin="round" stroke="rgb(0%, 0%, 0%)" stroke-opacity="1" stroke-miterlimit="10" d="M 1498.28125 620.9375 L 821.875 593.007812 L 434.609375 394.257812 " transform="matrix(0.1, 0, 0, -0.1, 0, 200)"/>
<path fill-rule="nonzero" fill="rgb(54.492188%, 7.495117%, 9.008789%)" fill-opacity="1" d="M 196.578125 154.601562 L 149.828125 137.90625 L 43.460938 160.574219 "/>
<path fill="none" stroke-width="6.82" stroke-linecap="round" stroke-linejoin="round" stroke="rgb(0%, 0%, 0%)" stroke-opacity="1" stroke-miterlimit="10" d="M 1965.78125 453.984375 L 1498.28125 620.9375 " transform="matrix(0.1, 0, 0, -0.1, 0, 200)"/>
<path fill-rule="nonzero" fill="rgb(48.509216%, 22.288513%, 44.189453%)" fill-opacity="1" d="M 25.1875 108.714844 L 43.460938 160.574219 L 82.1875 140.699219 "/>
<path fill="none" stroke-width="6.82" stroke-linecap="round" stroke-linejoin="round" stroke="rgb(0%, 0%, 0%)" stroke-opacity="1" stroke-miterlimit="10" d="M 251.875 912.851562 L 434.609375 394.257812 L 821.875 593.007812 Z M 251.875 912.851562 " transform="matrix(0.1, 0, 0, -0.1, 0, 200)"/>
<path fill-rule="nonzero" fill="rgb(89.451599%, 84.375%, 78.709412%)" fill-opacity="1" stroke-width="6.82" stroke-linecap="round" stroke-linejoin="round" stroke="rgb(0%, 0%, 0%)" stroke-opacity="1" stroke-miterlimit="10" d="M 1126.640625 1190.742188 L 1498.28125 620.9375 L 1965.78125 453.984375 " transform="matrix(0.1, 0, 0, -0.1, 0, 200)"/>
<path fill-rule="nonzero" fill="rgb(71.679688%, 70.3125%, 83.59375%)" fill-opacity="1" d="M 54.1875 49.511719 L 112.664062 80.925781 L 112.027344 23.972656 "/>
<path fill="none" stroke-width="6.82" stroke-linecap="round" stroke-linejoin="round" stroke="rgb(0%, 0%, 0%)" stroke-opacity="1" stroke-miterlimit="10" d="M 541.875 1504.882812 L 1126.640625 1190.742188 L 1120.273438 1760.273438 Z M 541.875 1504.882812 " transform="matrix(0.1, 0, 0, -0.1, 0, 200)"/>
<path fill-rule="nonzero" fill="rgb(64.256287%, 51.171875%, 68.943787%)" fill-opacity="1" stroke-width="6.82" stroke-linecap="round" stroke-linejoin="round" stroke="rgb(0%, 0%, 0%)" stroke-opacity="1" stroke-miterlimit="10" d="M 541.875 1504.882812 L 251.875 912.851562 L 821.875 593.007812 " transform="matrix(0.1, 0, 0, -0.1, 0, 200)"/>
<path fill-rule="nonzero" fill="rgb(64.256287%, 51.171875%, 68.943787%)" fill-opacity="1" stroke-width="6.82" stroke-linecap="round" stroke-linejoin="round" stroke="rgb(0%, 0%, 0%)" stroke-opacity="1" stroke-miterlimit="10" d="M 821.875 593.007812 L 1126.640625 1190.742188 L 541.875 1504.882812 " transform="matrix(0.1, 0, 0, -0.1, 0, 200)"/>
<path fill-rule="nonzero" fill="rgb(68.554688%, 52.929688%, 66.992188%)" fill-opacity="1" d="M 82.1875 140.699219 L 149.828125 137.90625 L 112.664062 80.925781 "/>
<path fill="none" stroke-width="6.82" stroke-linecap="round" stroke-linejoin="round" stroke="rgb(0%, 0%, 0%)" stroke-opacity="1" stroke-miterlimit="10" d="M 821.875 593.007812 L 1498.28125 620.9375 L 1126.640625 1190.742188 Z M 821.875 593.007812 " transform="matrix(0.1, 0, 0, -0.1, 0, 200)"/>
</svg>
