<?xml version="1.0" encoding="UTF-8"?>
<svg xmlns="http://www.w3.org/2000/svg" xmlns:xlink="http://www.w3.org/1999/xlink" width="282" height="244" viewBox="0 0 282 244">
<path fill="none" stroke-width="11.2395" stroke-linecap="round" stroke-linejoin="round" stroke="rgb(0%, 0%, 0%)" stroke-opacity="1" stroke-miterlimit="10" d="M 1049.296875 1779.492188 L 1184.21875 2013.242188 L 950.507812 2148.164062 L 815.585938 1914.414062 L 1049.296875 1779.492188 " transform="matrix(0.1, 0, 0, -0.1, 0, 244)"/>
<path fill="none" stroke-width="11.2395" stroke-linecap="round" stroke-linejoin="round" stroke="rgb(0%, 0%, 0%)" stroke-opacity="1" stroke-miterlimit="10" d="M 1184.21875 2013.242188 L 1049.296875 1779.492188 L 1283.007812 1644.570312 L 1417.96875 1878.28125 L 1184.21875 2013.242188 " transform="matrix(0.1, 0, 0, -0.1, 0, 244)"/>
<path fill="none" stroke-width="11.2395" stroke-linecap="round" stroke-linejoin="round" stroke="rgb(0%, 0%, 0%)" stroke-opacity="1" stroke-miterlimit="10" d="M 1184.21875 2013.242188 L 1417.96875 1878.28125 L 1417.96875 2148.164062 L 1184.21875 2013.242188 " transform="matrix(0.1, 0, 0, -0.1, 0, 244)"/>
<path fill="none" stroke-width="11.2395" stroke-linecap="round" stroke-linejoin="round" stroke="rgb(0%, 0%, 0%)" stroke-opacity="1" stroke-miterlimit="10" d="M 950.507812 2148.164062 L 1184.21875 2013.242188 L 1319.179688 2246.953125 L 1085.46875 2381.875 L 950.507812 2148.164062 " transform="matrix(0.1, 0, 0, -0.1, 0, 244)"/>
<path fill="none" stroke-width="11.2395" stroke-linecap="round" stroke-linejoin="round" stroke="rgb(0%, 0%, 0%)" stroke-opacity="1" stroke-miterlimit="10" d="M 950.507812 2148.164062 L 1085.46875 2381.875 L 815.585938 2381.875 L 950.507812 2148.164062 " transform="matrix(0.1, 0, 0, -0.1, 0, 244)"/>
<path fill="none" stroke-width="11.2395" stroke-linecap="round" stroke-linejoin="round" stroke="rgb(0%, 0%, 0%)" stroke-opacity="1" stroke-miterlimit="10" d="M 815.585938 1914.414062 L 950.507812 2148.164062 L 716.757812 2283.125 L 581.835938 2049.375 L 815.585938 1914.414062 " transform="matrix(0.1, 0, 0, -0.1, 0, 244)"/>
<path fill="none" stroke-width="11.2395" stroke-linecap="round" stroke-linejoin="round" stroke="rgb(0%, 0%, 0%)" stroke-opacity="1" stroke-miterlimit="10" d="M 815.585938 1914.414062 L 581.835938 2049.375 L 581.835938 1779.492188 L 815.585938 1914.414062 " transform="matrix(0.1, 0, 0, -0.1, 0, 244)"/>
<path fill="none" stroke-width="11.2395" stroke-linecap="round" stroke-linejoin="round" stroke="rgb(0%, 0%, 0%)" stroke-opacity="1" stroke-miterlimit="10" d="M 1049.296875 1779.492188 L 815.585938 1914.414062 L 680.664062 1680.703125 L 914.375 1545.78125 L 1049.296875 1779.492188 " transform="matrix(0.1, 0, 0, -0.1, 0, 244)"/>
<path fill="none" stroke-width="11.2395" stroke-linecap="round" stroke-linejoin="round" stroke="rgb(0%, 0%, 0%)" stroke-opacity="1" stroke-miterlimit="10" d="M 1049.296875 1779.492188 L 914.375 1545.78125 L 1184.21875 1545.78125 L 1049.296875 1779.492188 " transform="matrix(0.1, 0, 0, -0.1, 0, 244)"/>
<path fill="none" stroke-width="11.2395" stroke-linecap="round" stroke-linejoin="round" stroke="rgb(0%, 0%, 0%)" stroke-opacity="1" stroke-miterlimit="10" d="M 1049.296875 660.507812 L 914.375 426.757812 L 1148.085938 291.835938 L 1283.007812 525.585938 L 1049.296875 660.507812 " transform="matrix(0.1, 0, 0, -0.1, 0, 244)"/>
<path fill="none" stroke-width="11.2395" stroke-linecap="round" stroke-linejoin="round" stroke="rgb(0%, 0%, 0%)" stroke-opacity="1" stroke-miterlimit="10" d="M 914.375 426.757812 L 1049.296875 660.507812 L 815.585938 795.429688 L 680.664062 561.71875 L 914.375 426.757812 " transform="matrix(0.1, 0, 0, -0.1, 0, 244)"/>
<path fill="none" stroke-width="11.2395" stroke-linecap="round" stroke-linejoin="round" stroke="rgb(0%, 0%, 0%)" stroke-opacity="1" stroke-miterlimit="10" d="M 914.375 426.757812 L 680.664062 561.71875 L 680.664062 291.835938 L 914.375 426.757812 " transform="matrix(0.1, 0, 0, -0.1, 0, 244)"/>
<path fill="none" stroke-width="11.2395" stroke-linecap="round" stroke-linejoin="round" stroke="rgb(0%, 0%, 0%)" stroke-opacity="1" stroke-miterlimit="10" d="M 1148.085938 291.835938 L 914.375 426.757812 L 779.414062 193.046875 L 1013.125 58.125 L 1148.085938 291.835938 " transform="matrix(0.1, 0, 0, -0.1, 0, 244)"/>
<path fill="none" stroke-width="11.2395" stroke-linecap="round" stroke-linejoin="round" stroke="rgb(0%, 0%, 0%)" stroke-opacity="1" stroke-miterlimit="10" d="M 1148.085938 291.835938 L 1013.125 58.125 L 1283.007812 58.125 L 1148.085938 291.835938 " transform="matrix(0.1, 0, 0, -0.1, 0, 244)"/>
<path fill="none" stroke-width="11.2395" stroke-linecap="round" stroke-linejoin="round" stroke="rgb(0%, 0%, 0%)" stroke-opacity="1" stroke-miterlimit="10" d="M 1283.007812 525.585938 L 1148.085938 291.835938 L 1381.835938 156.875 L 1516.757812 390.625 L 1283.007812 525.585938 " transform="matrix(0.1, 0, 0, -0.1, 0, 244)"/>
<path fill="none" stroke-width="11.2395" stroke-linecap="round" stroke-linejoin="round" stroke="rgb(0%, 0%, 0%)" stroke-opacity="1" stroke-miterlimit="10" d="M 1283.007812 525.585938 L 1516.757812 390.625 L 1516.757812 660.507812 L 1283.007812 525.585938 " transform="matrix(0.1, 0, 0, -0.1, 0, 244)"/>
<path fill="none" stroke-width="11.2395" stroke-linecap="round" stroke-linejoin="round" stroke="rgb(0%, 0%, 0%)" stroke-opacity="1" stroke-miterlimit="10" d="M 1049.296875 660.507812 L 1283.007812 525.585938 L 1417.96875 759.296875 L 1184.21875 894.21875 L 1049.296875 660.507812 " transform="matrix(0.1, 0, 0, -0.1, 0, 244)"/>
<path fill="none" stroke-width="11.2395" stroke-linecap="round" stroke-linejoin="round" stroke="rgb(0%, 0%, 0%)" stroke-opacity="1" stroke-miterlimit="10" d="M 1049.296875 660.507812 L 1184.21875 894.21875 L 914.375 894.21875 L 1049.296875 660.507812 " transform="matrix(0.1, 0, 0, -0.1, 0, 244)"/>
<path fill="none" stroke-width="11.2395" stroke-linecap="round" stroke-linejoin="round" stroke="rgb(0%, 0%, 0%)" stroke-opacity="1" stroke-miterlimit="10" d="M 262.8125 1545.78125 L 71.953125 1354.921875 L 71.953125 1085.078125 L 262.8125 894.21875 L 532.695312 894.21875 L 723.515625 1085.078125 L 723.515625 1354.921875 L 532.695312 1545.78125 L 262.8125 1545.78125 " transform="matrix(0.1, 0, 0, -0.1, 0, 244)"/>
<path fill="none" stroke-width="11.2395" stroke-linecap="round" stroke-linejoin="round" stroke="rgb(0%, 0%, 0%)" stroke-opacity="1" stroke-miterlimit="10" d="M 914.375 1545.78125 L 723.515625 1354.921875 L 723.515625 1085.078125 L 914.375 894.21875 L 1184.21875 894.21875 L 1375.078125 1085.078125 L 1375.078125 1354.921875 L 1184.21875 1545.78125 L 914.375 1545.78125 " transform="matrix(0.1, 0, 0, -0.1, 0, 244)"/>
<path fill="none" stroke-width="11.2395" stroke-linecap="round" stroke-linejoin="round" stroke="rgb(0%, 0%, 0%)" stroke-opacity="1" stroke-miterlimit="10" d="M 1565.9375 1545.78125 L 1375.078125 1354.921875 L 1375.078125 1085.078125 L 1565.9375 894.21875 L 1835.78125 894.21875 L 2026.640625 1085.078125 L 2026.640625 1354.921875 L 1835.78125 1545.78125 L 1565.9375 1545.78125 " transform="matrix(0.1, 0, 0, -0.1, 0, 244)"/>
<path fill="none" stroke-width="11.2395" stroke-linecap="round" stroke-linejoin="round" stroke="rgb(0%, 0%, 0%)" stroke-opacity="1" stroke-miterlimit="10" d="M 2217.460938 1545.78125 L 2026.640625 1354.921875 L 2026.640625 1085.078125 L 2217.460938 894.21875 L 2487.34375 894.21875 L 2678.164062 1085.078125 L 2678.164062 1354.921875 L 2487.34375 1545.78125 L 2217.460938 1545.78125 " transform="matrix(0.1, 0, 0, -0.1, 0, 244)"/>
<path fill="none" stroke-width="11.2395" stroke-linecap="round" stroke-linejoin="round" stroke="rgb(0%, 0%, 0%)" stroke-opacity="1" stroke-miterlimit="10" d="M 2487.34375 1545.78125 L 2678.164062 1354.921875 L 2748.046875 1615.625 L 2487.34375 1545.78125 " transform="matrix(0.1, 0, 0, -0.1, 0, 244)"/>
<path fill="none" stroke-width="11.2395" stroke-linecap="round" stroke-linejoin="round" stroke="rgb(0%, 0%, 0%)" stroke-opacity="1" stroke-miterlimit="10" d="M 2487.34375 894.21875 L 2748.046875 824.375 L 2678.164062 1085.078125 L 2487.34375 894.21875 " transform="matrix(0.1, 0, 0, -0.1, 0, 244)"/>
<path fill="none" stroke-width="11.2395" stroke-linecap="round" stroke-linejoin="round" stroke="rgb(0%, 0%, 0%)" stroke-opacity="1" stroke-miterlimit="10" d="M 1835.78125 1545.78125 L 2026.640625 1354.921875 L 2096.484375 1615.625 L 1835.78125 1545.78125 " transform="matrix(0.1, 0, 0, -0.1, 0, 244)"/>
<path fill="none" stroke-width="11.2395" stroke-linecap="round" stroke-linejoin="round" stroke="rgb(0%, 0%, 0%)" stroke-opacity="1" stroke-miterlimit="10" d="M 1835.78125 894.21875 L 2096.484375 824.375 L 2026.640625 1085.078125 L 1835.78125 894.21875 " transform="matrix(0.1, 0, 0, -0.1, 0, 244)"/>
<path fill="none" stroke-width="11.2395" stroke-linecap="round" stroke-linejoin="round" stroke="rgb(0%, 0%, 0%)" stroke-opacity="1" stroke-miterlimit="10" d="M 1184.21875 1545.78125 L 1375.078125 1354.921875 L 1444.921875 1615.625 L 1184.21875 1545.78125 " transform="matrix(0.1, 0, 0, -0.1, 0, 244)"/>
<path fill="none" stroke-width="11.2395" stroke-linecap="round" stroke-linejoin="round" stroke="rgb(0%, 0%, 0%)" stroke-opacity="1" stroke-miterlimit="10" d="M 1184.21875 894.21875 L 1444.921875 824.375 L 1375.078125 1085.078125 L 1184.21875 894.21875 " transform="matrix(0.1, 0, 0, -0.1, 0, 244)"/>
<path fill="none" stroke-width="11.2395" stroke-linecap="round" stroke-linejoin="round" stroke="rgb(0%, 0%, 0%)" stroke-opacity="1" stroke-miterlimit="10" d="M 653.671875 1615.625 L 723.515625 1354.921875 L 914.375 1545.78125 L 653.671875 1615.625 " transform="matrix(0.1, 0, 0, -0.1, 0, 244)"/>
<path fill="none" stroke-width="11.2395" stroke-linecap="round" stroke-linejoin="round" stroke="rgb(0%, 0%, 0%)" stroke-opacity="1" stroke-miterlimit="10" d="M 653.671875 824.375 L 914.375 894.21875 L 723.515625 1085.078125 L 653.671875 824.375 " transform="matrix(0.1, 0, 0, -0.1, 0, 244)"/>
</svg>
