<?xml version="1.0" encoding="UTF-8"?>
<svg xmlns="http://www.w3.org/2000/svg" xmlns:xlink="http://www.w3.org/1999/xlink" width="282" height="154.75" viewBox="0 0 282 154.75">
<path fill="none" stroke-width="5" stroke-linecap="round" stroke-linejoin="round" stroke="rgb(0%, 0%, 0%)" stroke-opacity="1" stroke-miterlimit="10" d="M 664.265953 918.125505 L 544.932855 831.423162 L 499.351525 691.11874 L 544.932855 550.853443 L 664.265953 464.151101 L 811.808613 464.151101 L 931.14171 550.853443 L 976.723041 691.11874 L 931.14171 831.423162 L 811.808613 918.125505 L 664.265953 918.125505 " transform="matrix(0.0998387, 0, 0, -0.0998387, 0.227419, 154.500403)"/>
<path fill="none" stroke-width="5" stroke-linecap="round" stroke-linejoin="round" stroke="rgb(0%, 0%, 0%)" stroke-opacity="1" stroke-miterlimit="10" d="M 946.557199 978.144184 L 811.808613 918.125505 L 931.14171 831.423162 L 946.557199 978.144184 " transform="matrix(0.0998387, 0, 0, -0.0998387, 0.227419, 154.500403)"/>
<path fill="none" stroke-width="5" stroke-linecap="round" stroke-linejoin="round" stroke="rgb(0%, 0%, 0%)" stroke-opacity="1" stroke-miterlimit="10" d="M 664.265953 1372.139035 L 544.932855 1285.397567 L 499.351525 1145.13227 L 544.932855 1004.827847 L 664.265953 918.125505 L 811.808613 918.125505 L 931.14171 1004.827847 L 976.723041 1145.13227 L 931.14171 1285.397567 L 811.808613 1372.139035 L 664.265953 1372.139035 " transform="matrix(0.0998387, 0, 0, -0.0998387, 0.227419, 154.500403)"/>
<path fill="none" stroke-width="5" stroke-linecap="round" stroke-linejoin="round" stroke="rgb(0%, 0%, 0%)" stroke-opacity="1" stroke-miterlimit="10" d="M 1075.436945 1254.723092 L 931.14171 1285.397567 L 976.723041 1145.13227 L 1075.436945 1254.723092 " transform="matrix(0.0998387, 0, 0, -0.0998387, 0.227419, 154.500403)"/>
<path fill="none" stroke-width="5" stroke-linecap="round" stroke-linejoin="round" stroke="rgb(0%, 0%, 0%)" stroke-opacity="1" stroke-miterlimit="10" d="M 529.517367 978.144184 L 544.932855 831.423162 L 664.265953 918.125505 L 529.517367 978.144184 " transform="matrix(0.0998387, 0, 0, -0.0998387, 0.227419, 154.500403)"/>
<path fill="none" stroke-width="5" stroke-linecap="round" stroke-linejoin="round" stroke="rgb(0%, 0%, 0%)" stroke-opacity="1" stroke-miterlimit="10" d="M 67.600464 831.423162 L 113.181795 691.11874 L 232.514893 604.455523 L 380.018427 604.455523 L 499.351525 691.11874 L 544.932855 831.423162 L 499.351525 971.688459 L 380.018427 1058.429927 L 232.514893 1058.429927 L 113.181795 971.688459 L 67.600464 831.423162 " transform="matrix(0.0998387, 0, 0, -0.0998387, 0.227419, 154.500403)"/>
<path fill="none" stroke-width="5" stroke-linecap="round" stroke-linejoin="round" stroke="rgb(0%, 0%, 0%)" stroke-opacity="1" stroke-miterlimit="10" d="M 306.26666 1186.17503 L 232.514893 1058.429927 L 380.018427 1058.429927 L 306.26666 1186.17503 " transform="matrix(0.0998387, 0, 0, -0.0998387, 0.227419, 154.500403)"/>
<path fill="none" stroke-width="5" stroke-linecap="round" stroke-linejoin="round" stroke="rgb(0%, 0%, 0%)" stroke-opacity="1" stroke-miterlimit="10" d="M 400.676747 581.527918 L 544.932855 550.853443 L 499.351525 691.11874 L 400.676747 581.527918 " transform="matrix(0.0998387, 0, 0, -0.0998387, 0.227419, 154.500403)"/>
<path fill="none" stroke-width="5" stroke-linecap="round" stroke-linejoin="round" stroke="rgb(0%, 0%, 0%)" stroke-opacity="1" stroke-miterlimit="10" d="M 397.429321 96.839913 L 544.932855 96.839913 L 664.265953 183.542256 L 709.847284 323.846678 L 664.265953 464.151101 L 544.932855 550.853443 L 397.429321 550.853443 L 278.096224 464.151101 L 232.514893 323.846678 L 278.096224 183.542256 L 397.429321 96.839913 " transform="matrix(0.0998387, 0, 0, -0.0998387, 0.227419, 154.500403)"/>
<path fill="none" stroke-width="5" stroke-linecap="round" stroke-linejoin="round" stroke="rgb(0%, 0%, 0%)" stroke-opacity="1" stroke-miterlimit="10" d="M 133.800989 433.476626 L 232.514893 323.846678 L 278.096224 464.151101 L 133.800989 433.476626 " transform="matrix(0.0998387, 0, 0, -0.0998387, 0.227419, 154.500403)"/>
<path fill="none" stroke-width="5" stroke-linecap="round" stroke-linejoin="round" stroke="rgb(0%, 0%, 0%)" stroke-opacity="1" stroke-miterlimit="10" d="M 738.056846 336.366872 L 811.808613 464.151101 L 664.265953 464.151101 L 738.056846 336.366872 " transform="matrix(0.0998387, 0, 0, -0.0998387, 0.227419, 154.500403)"/>
<path fill="none" stroke-width="5" stroke-linecap="round" stroke-linejoin="round" stroke="rgb(0%, 0%, 0%)" stroke-opacity="1" stroke-miterlimit="10" d="M 1197.978342 183.542256 L 1243.559673 323.846678 L 1197.978342 464.151101 L 1078.645244 550.853443 L 931.14171 550.853443 L 811.808613 464.151101 L 766.227282 323.846678 L 811.808613 183.542256 L 931.14171 96.839913 L 1078.645244 96.839913 L 1197.978342 183.542256 " transform="matrix(0.0998387, 0, 0, -0.0998387, 0.227419, 154.500403)"/>
<path fill="none" stroke-width="5" stroke-linecap="round" stroke-linejoin="round" stroke="rgb(0%, 0%, 0%)" stroke-opacity="1" stroke-miterlimit="10" d="M 796.393124 36.860359 L 931.14171 96.839913 L 811.808613 183.542256 L 796.393124 36.860359 " transform="matrix(0.0998387, 0, 0, -0.0998387, 0.227419, 154.500403)"/>
<path fill="none" stroke-width="5" stroke-linecap="round" stroke-linejoin="round" stroke="rgb(0%, 0%, 0%)" stroke-opacity="1" stroke-miterlimit="10" d="M 1075.436945 581.527918 L 976.723041 691.11874 L 931.14171 550.853443 L 1075.436945 581.527918 " transform="matrix(0.0998387, 0, 0, -0.0998387, 0.227419, 154.500403)"/>
<path fill="none" stroke-width="5" stroke-linecap="round" stroke-linejoin="round" stroke="rgb(0%, 0%, 0%)" stroke-opacity="1" stroke-miterlimit="10" d="M 1342.273576 433.476626 L 1197.978342 464.151101 L 1243.559673 323.846678 L 1342.273576 433.476626 " transform="matrix(0.0998387, 0, 0, -0.0998387, 0.227419, 154.500403)"/>
<path fill="none" stroke-width="5" stroke-linecap="round" stroke-linejoin="round" stroke="rgb(0%, 0%, 0%)" stroke-opacity="1" stroke-miterlimit="10" d="M 2320.648475 856.385299 L 2275.067145 996.650596 L 2155.734047 1083.352938 L 2008.191387 1083.352938 L 1888.897415 996.650596 L 1843.276959 856.385299 L 1888.897415 716.080876 L 2008.191387 629.378534 L 2155.734047 629.378534 L 2275.067145 716.080876 L 2320.648475 856.385299 " transform="matrix(0.0998387, 0, 0, -0.0998387, 0.227419, 154.500403)"/>
<path fill="none" stroke-width="5" stroke-linecap="round" stroke-linejoin="round" stroke="rgb(0%, 0%, 0%)" stroke-opacity="1" stroke-miterlimit="10" d="M 2290.482633 569.359855 L 2275.067145 716.080876 L 2155.734047 629.378534 L 2290.482633 569.359855 " transform="matrix(0.0998387, 0, 0, -0.0998387, 0.227419, 154.500403)"/>
<path fill="none" stroke-width="5" stroke-linecap="round" stroke-linejoin="round" stroke="rgb(0%, 0%, 0%)" stroke-opacity="1" stroke-miterlimit="10" d="M 2752.399536 716.080876 L 2706.818205 856.385299 L 2587.485107 943.087641 L 2439.981573 943.087641 L 2320.648475 856.385299 L 2275.067145 716.080876 L 2320.648475 575.81558 L 2439.981573 489.074111 L 2587.485107 489.074111 L 2706.818205 575.81558 L 2752.399536 716.080876 " transform="matrix(0.0998387, 0, 0, -0.0998387, 0.227419, 154.500403)"/>
<path fill="none" stroke-width="5" stroke-linecap="round" stroke-linejoin="round" stroke="rgb(0%, 0%, 0%)" stroke-opacity="1" stroke-miterlimit="10" d="M 2513.73334 361.329008 L 2587.485107 489.074111 L 2439.981573 489.074111 L 2513.73334 361.329008 " transform="matrix(0.0998387, 0, 0, -0.0998387, 0.227419, 154.500403)"/>
<path fill="none" stroke-width="5" stroke-linecap="round" stroke-linejoin="round" stroke="rgb(0%, 0%, 0%)" stroke-opacity="1" stroke-miterlimit="10" d="M 2419.323253 965.976121 L 2275.067145 996.650596 L 2320.648475 856.385299 L 2419.323253 965.976121 " transform="matrix(0.0998387, 0, 0, -0.0998387, 0.227419, 154.500403)"/>
<path fill="none" stroke-width="5" stroke-linecap="round" stroke-linejoin="round" stroke="rgb(0%, 0%, 0%)" stroke-opacity="1" stroke-miterlimit="10" d="M 1741.354756 1450.664126 L 1888.897415 1450.664126 L 2008.191387 1363.961783 L 2053.772718 1223.657361 L 2008.191387 1083.352938 L 1888.897415 996.650596 L 1741.354756 996.650596 L 1622.021658 1083.352938 L 1576.440327 1223.657361 L 1622.021658 1363.961783 L 1741.354756 1450.664126 " transform="matrix(0.0998387, 0, 0, -0.0998387, 0.227419, 154.500403)"/>
<path fill="none" stroke-width="5" stroke-linecap="round" stroke-linejoin="round" stroke="rgb(0%, 0%, 0%)" stroke-opacity="1" stroke-miterlimit="10" d="M 2587.485107 943.087641 L 2722.233693 1003.067195 L 2706.818205 856.385299 L 2587.485107 943.087641 " transform="matrix(0.0998387, 0, 0, -0.0998387, 0.227419, 154.500403)"/>
<path fill="none" stroke-width="5" stroke-linecap="round" stroke-linejoin="round" stroke="rgb(0%, 0%, 0%)" stroke-opacity="1" stroke-miterlimit="10" d="M 2081.943154 1211.137167 L 2155.734047 1083.352938 L 2008.191387 1083.352938 L 2081.943154 1211.137167 " transform="matrix(0.0998387, 0, 0, -0.0998387, 0.227419, 154.500403)"/>
<path fill="none" stroke-width="5" stroke-linecap="round" stroke-linejoin="round" stroke="rgb(0%, 0%, 0%)" stroke-opacity="1" stroke-miterlimit="10" d="M 2023.646002 1510.643679 L 2008.191387 1363.961783 L 1888.897415 1450.664126 L 2023.646002 1510.643679 " transform="matrix(0.0998387, 0, 0, -0.0998387, 0.227419, 154.500403)"/>
<path fill="none" stroke-width="5" stroke-linecap="round" stroke-linejoin="round" stroke="rgb(0%, 0%, 0%)" stroke-opacity="1" stroke-miterlimit="10" d="M 1744.563055 965.976121 L 1843.276959 856.385299 L 1888.897415 996.650596 L 1744.563055 965.976121 " transform="matrix(0.0998387, 0, 0, -0.0998387, 0.227419, 154.500403)"/>
<path fill="none" stroke-width="5" stroke-linecap="round" stroke-linejoin="round" stroke="rgb(0%, 0%, 0%)" stroke-opacity="1" stroke-miterlimit="10" d="M 1457.068104 575.81558 L 1576.440327 489.074111 L 1723.943861 489.074111 L 1843.276959 575.81558 L 1888.897415 716.080876 L 1843.276959 856.385299 L 1723.943861 943.087641 L 1576.440327 943.087641 L 1457.068104 856.385299 L 1411.486773 716.080876 L 1457.068104 575.81558 " transform="matrix(0.0998387, 0, 0, -0.0998387, 0.227419, 154.500403)"/>
<path fill="none" stroke-width="5" stroke-linecap="round" stroke-linejoin="round" stroke="rgb(0%, 0%, 0%)" stroke-opacity="1" stroke-miterlimit="10" d="M 1441.652615 1003.067195 L 1457.068104 856.385299 L 1576.440327 943.087641 L 1441.652615 1003.067195 " transform="matrix(0.0998387, 0, 0, -0.0998387, 0.227419, 154.500403)"/>
<path fill="none" stroke-width="5" stroke-linecap="round" stroke-linejoin="round" stroke="rgb(0%, 0%, 0%)" stroke-opacity="1" stroke-miterlimit="10" d="M 1873.442801 569.359855 L 2008.191387 629.378534 L 1888.897415 716.080876 L 1873.442801 569.359855 " transform="matrix(0.0998387, 0, 0, -0.0998387, 0.227419, 154.500403)"/>
<path fill="none" stroke-width="5" stroke-linecap="round" stroke-linejoin="round" stroke="rgb(0%, 0%, 0%)" stroke-opacity="1" stroke-miterlimit="10" d="M 1650.192094 361.329008 L 1723.943861 489.074111 L 1576.440327 489.074111 L 1650.192094 361.329008 " transform="matrix(0.0998387, 0, 0, -0.0998387, 0.227419, 154.500403)"/>
<path fill="none" stroke-width="5" stroke-linecap="round" stroke-linejoin="round" stroke="rgb(0%, 0%, 0%)" stroke-opacity="1" stroke-miterlimit="10" d="M 2081.943154 501.633431 L 1972.352332 402.919527 L 2032.331886 268.131815 L 2179.052908 283.58643 L 2209.727383 427.881664 L 2081.943154 501.633431 " transform="matrix(0.0998387, 0, 0, -0.0998387, 0.227419, 154.500403)"/>
<path fill="none" stroke-width="5" stroke-linecap="round" stroke-linejoin="round" stroke="rgb(0%, 0%, 0%)" stroke-opacity="1" stroke-miterlimit="10" d="M 1972.352332 402.919527 L 2081.943154 501.633431 L 1983.268376 611.263378 L 1873.638429 512.549475 L 1972.352332 402.919527 " transform="matrix(0.0998387, 0, 0, -0.0998387, 0.227419, 154.500403)"/>
<path fill="none" stroke-width="5" stroke-linecap="round" stroke-linejoin="round" stroke="rgb(0%, 0%, 0%)" stroke-opacity="1" stroke-miterlimit="10" d="M 1972.352332 402.919527 L 1873.638429 512.549475 L 1828.057098 372.245053 L 1972.352332 402.919527 " transform="matrix(0.0998387, 0, 0, -0.0998387, 0.227419, 154.500403)"/>
<path fill="none" stroke-width="5" stroke-linecap="round" stroke-linejoin="round" stroke="rgb(0%, 0%, 0%)" stroke-opacity="1" stroke-miterlimit="10" d="M 2032.331886 268.131815 L 1972.352332 402.919527 L 1837.56462 342.900848 L 1897.5833 208.152262 L 2032.331886 268.131815 " transform="matrix(0.0998387, 0, 0, -0.0998387, 0.227419, 154.500403)"/>
<path fill="none" stroke-width="5" stroke-linecap="round" stroke-linejoin="round" stroke="rgb(0%, 0%, 0%)" stroke-opacity="1" stroke-miterlimit="10" d="M 2032.331886 268.131815 L 1897.5833 208.152262 L 2016.916397 121.449919 L 2032.331886 268.131815 " transform="matrix(0.0998387, 0, 0, -0.0998387, 0.227419, 154.500403)"/>
<path fill="none" stroke-width="5" stroke-linecap="round" stroke-linejoin="round" stroke="rgb(0%, 0%, 0%)" stroke-opacity="1" stroke-miterlimit="10" d="M 2179.052908 283.58643 L 2032.331886 268.131815 L 2047.747375 121.449919 L 2194.468397 136.865408 L 2179.052908 283.58643 " transform="matrix(0.0998387, 0, 0, -0.0998387, 0.227419, 154.500403)"/>
<path fill="none" stroke-width="5" stroke-linecap="round" stroke-linejoin="round" stroke="rgb(0%, 0%, 0%)" stroke-opacity="1" stroke-miterlimit="10" d="M 2179.052908 283.58643 L 2194.468397 136.865408 L 2313.801494 223.56775 L 2179.052908 283.58643 " transform="matrix(0.0998387, 0, 0, -0.0998387, 0.227419, 154.500403)"/>
<path fill="none" stroke-width="5" stroke-linecap="round" stroke-linejoin="round" stroke="rgb(0%, 0%, 0%)" stroke-opacity="1" stroke-miterlimit="10" d="M 2209.727383 427.881664 L 2179.052908 283.58643 L 2323.309017 252.911955 L 2353.983492 397.207189 L 2209.727383 427.881664 " transform="matrix(0.0998387, 0, 0, -0.0998387, 0.227419, 154.500403)"/>
<path fill="none" stroke-width="5" stroke-linecap="round" stroke-linejoin="round" stroke="rgb(0%, 0%, 0%)" stroke-opacity="1" stroke-miterlimit="10" d="M 2283.47915 555.626767 L 2209.727383 427.881664 L 2357.191791 427.881664 L 2283.47915 555.626767 " transform="matrix(0.0998387, 0, 0, -0.0998387, 0.227419, 154.500403)"/>
<path fill="none" stroke-width="5" stroke-linecap="round" stroke-linejoin="round" stroke="rgb(0%, 0%, 0%)" stroke-opacity="1" stroke-miterlimit="10" d="M 2081.943154 501.633431 L 2209.727383 427.881664 L 2283.47915 555.626767 L 2155.734047 629.378534 L 2081.943154 501.633431 " transform="matrix(0.0998387, 0, 0, -0.0998387, 0.227419, 154.500403)"/>
<path fill="none" stroke-width="5" stroke-linecap="round" stroke-linejoin="round" stroke="rgb(0%, 0%, 0%)" stroke-opacity="1" stroke-miterlimit="10" d="M 2081.943154 501.633431 L 2155.734047 629.378534 L 2008.191387 629.378534 L 2081.943154 501.633431 " transform="matrix(0.0998387, 0, 0, -0.0998387, 0.227419, 154.500403)"/>
<path fill="none" stroke-width="5" stroke-linecap="round" stroke-linejoin="round" stroke="rgb(0%, 0%, 0%)" stroke-opacity="1" stroke-miterlimit="10" d="M 2290.482633 1143.371618 L 2259.808158 1287.666852 L 2387.553261 1361.418619 L 2497.183209 1262.704715 L 2437.164529 1127.956129 L 2290.482633 1143.371618 " transform="matrix(0.0998387, 0, 0, -0.0998387, 0.227419, 154.500403)"/>
<path fill="none" stroke-width="5" stroke-linecap="round" stroke-linejoin="round" stroke="rgb(0%, 0%, 0%)" stroke-opacity="1" stroke-miterlimit="10" d="M 2259.808158 1287.666852 L 2290.482633 1143.371618 L 2146.187399 1112.697143 L 2115.512924 1256.992377 L 2259.808158 1287.666852 " transform="matrix(0.0998387, 0, 0, -0.0998387, 0.227419, 154.500403)"/>
<path fill="none" stroke-width="5" stroke-linecap="round" stroke-linejoin="round" stroke="rgb(0%, 0%, 0%)" stroke-opacity="1" stroke-miterlimit="10" d="M 2259.808158 1287.666852 L 2115.512924 1256.992377 L 2161.094255 1397.257674 L 2259.808158 1287.666852 " transform="matrix(0.0998387, 0, 0, -0.0998387, 0.227419, 154.500403)"/>
<path fill="none" stroke-width="5" stroke-linecap="round" stroke-linejoin="round" stroke="rgb(0%, 0%, 0%)" stroke-opacity="1" stroke-miterlimit="10" d="M 2387.553261 1361.418619 L 2259.808158 1287.666852 L 2186.056391 1415.411955 L 2313.801494 1489.163722 L 2387.553261 1361.418619 " transform="matrix(0.0998387, 0, 0, -0.0998387, 0.227419, 154.500403)"/>
<path fill="none" stroke-width="5" stroke-linecap="round" stroke-linejoin="round" stroke="rgb(0%, 0%, 0%)" stroke-opacity="1" stroke-miterlimit="10" d="M 2387.553261 1361.418619 L 2313.801494 1489.163722 L 2461.305028 1489.163722 L 2387.553261 1361.418619 " transform="matrix(0.0998387, 0, 0, -0.0998387, 0.227419, 154.500403)"/>
<path fill="none" stroke-width="5" stroke-linecap="round" stroke-linejoin="round" stroke="rgb(0%, 0%, 0%)" stroke-opacity="1" stroke-miterlimit="10" d="M 2497.183209 1262.704715 L 2387.553261 1361.418619 L 2486.267165 1471.048566 L 2595.857987 1372.334663 L 2497.183209 1262.704715 " transform="matrix(0.0998387, 0, 0, -0.0998387, 0.227419, 154.500403)"/>
<path fill="none" stroke-width="5" stroke-linecap="round" stroke-linejoin="round" stroke="rgb(0%, 0%, 0%)" stroke-opacity="1" stroke-miterlimit="10" d="M 2497.183209 1262.704715 L 2595.857987 1372.334663 L 2641.439317 1232.069366 L 2497.183209 1262.704715 " transform="matrix(0.0998387, 0, 0, -0.0998387, 0.227419, 154.500403)"/>
<path fill="none" stroke-width="5" stroke-linecap="round" stroke-linejoin="round" stroke="rgb(0%, 0%, 0%)" stroke-opacity="1" stroke-miterlimit="10" d="M 2437.164529 1127.956129 L 2497.183209 1262.704715 L 2631.931795 1202.686036 L 2571.952242 1067.93745 L 2437.164529 1127.956129 " transform="matrix(0.0998387, 0, 0, -0.0998387, 0.227419, 154.500403)"/>
<path fill="none" stroke-width="5" stroke-linecap="round" stroke-linejoin="round" stroke="rgb(0%, 0%, 0%)" stroke-opacity="1" stroke-miterlimit="10" d="M 2421.788166 981.235107 L 2437.164529 1127.956129 L 2556.536753 1041.253786 L 2421.788166 981.235107 " transform="matrix(0.0998387, 0, 0, -0.0998387, 0.227419, 154.500403)"/>
<path fill="none" stroke-width="5" stroke-linecap="round" stroke-linejoin="round" stroke="rgb(0%, 0%, 0%)" stroke-opacity="1" stroke-miterlimit="10" d="M 2290.482633 1143.371618 L 2437.164529 1127.956129 L 2421.788166 981.235107 L 2275.067145 996.650596 L 2290.482633 1143.371618 " transform="matrix(0.0998387, 0, 0, -0.0998387, 0.227419, 154.500403)"/>
<path fill="none" stroke-width="5" stroke-linecap="round" stroke-linejoin="round" stroke="rgb(0%, 0%, 0%)" stroke-opacity="1" stroke-miterlimit="10" d="M 2290.482633 1143.371618 L 2275.067145 996.650596 L 2155.734047 1083.352938 L 2290.482633 1143.371618 " transform="matrix(0.0998387, 0, 0, -0.0998387, 0.227419, 154.500403)"/>
<path fill="none" stroke-width="5" stroke-linecap="round" stroke-linejoin="round" stroke="rgb(0%, 0%, 0%)" stroke-opacity="1" stroke-miterlimit="10" d="M 1075.436945 800.748687 L 1203.142922 726.99692 L 1312.811995 825.710824 L 1252.793316 960.45941 L 1106.11142 945.043922 L 1075.436945 800.748687 " transform="matrix(0.0998387, 0, 0, -0.0998387, 0.227419, 154.500403)"/>
<path fill="none" stroke-width="5" stroke-linecap="round" stroke-linejoin="round" stroke="rgb(0%, 0%, 0%)" stroke-opacity="1" stroke-miterlimit="10" d="M 1203.142922 726.99692 L 1075.436945 800.748687 L 1001.646052 673.003584 L 1129.430281 599.251817 L 1203.142922 726.99692 " transform="matrix(0.0998387, 0, 0, -0.0998387, 0.227419, 154.500403)"/>
<path fill="none" stroke-width="5" stroke-linecap="round" stroke-linejoin="round" stroke="rgb(0%, 0%, 0%)" stroke-opacity="1" stroke-miterlimit="10" d="M 1203.142922 726.99692 L 1129.430281 599.251817 L 1276.933815 599.251817 L 1203.142922 726.99692 " transform="matrix(0.0998387, 0, 0, -0.0998387, 0.227419, 154.500403)"/>
<path fill="none" stroke-width="5" stroke-linecap="round" stroke-linejoin="round" stroke="rgb(0%, 0%, 0%)" stroke-opacity="1" stroke-miterlimit="10" d="M 1312.811995 825.710824 L 1203.142922 726.99692 L 1301.895951 617.366973 L 1411.486773 716.080876 L 1312.811995 825.710824 " transform="matrix(0.0998387, 0, 0, -0.0998387, 0.227419, 154.500403)"/>
<path fill="none" stroke-width="5" stroke-linecap="round" stroke-linejoin="round" stroke="rgb(0%, 0%, 0%)" stroke-opacity="1" stroke-miterlimit="10" d="M 1312.811995 825.710824 L 1411.486773 716.080876 L 1457.068104 856.385299 L 1312.811995 825.710824 " transform="matrix(0.0998387, 0, 0, -0.0998387, 0.227419, 154.500403)"/>
<path fill="none" stroke-width="5" stroke-linecap="round" stroke-linejoin="round" stroke="rgb(0%, 0%, 0%)" stroke-opacity="1" stroke-miterlimit="10" d="M 1252.793316 960.45941 L 1312.811995 825.710824 L 1447.560582 885.690378 L 1387.541902 1020.47809 L 1252.793316 960.45941 " transform="matrix(0.0998387, 0, 0, -0.0998387, 0.227419, 154.500403)"/>
<path fill="none" stroke-width="5" stroke-linecap="round" stroke-linejoin="round" stroke="rgb(0%, 0%, 0%)" stroke-opacity="1" stroke-miterlimit="10" d="M 1252.793316 960.45941 L 1387.541902 1020.47809 L 1268.24793 1107.141307 L 1252.793316 960.45941 " transform="matrix(0.0998387, 0, 0, -0.0998387, 0.227419, 154.500403)"/>
<path fill="none" stroke-width="5" stroke-linecap="round" stroke-linejoin="round" stroke="rgb(0%, 0%, 0%)" stroke-opacity="1" stroke-miterlimit="10" d="M 1106.11142 945.043922 L 1252.793316 960.45941 L 1237.377827 1107.141307 L 1090.695931 1091.725818 L 1106.11142 945.043922 " transform="matrix(0.0998387, 0, 0, -0.0998387, 0.227419, 154.500403)"/>
<path fill="none" stroke-width="5" stroke-linecap="round" stroke-linejoin="round" stroke="rgb(0%, 0%, 0%)" stroke-opacity="1" stroke-miterlimit="10" d="M 961.816185 975.718397 L 1106.11142 945.043922 L 1060.530089 1085.348344 L 961.816185 975.718397 " transform="matrix(0.0998387, 0, 0, -0.0998387, 0.227419, 154.500403)"/>
<path fill="none" stroke-width="5" stroke-linecap="round" stroke-linejoin="round" stroke="rgb(0%, 0%, 0%)" stroke-opacity="1" stroke-miterlimit="10" d="M 1075.436945 800.748687 L 1106.11142 945.043922 L 961.816185 975.718397 L 931.14171 831.423162 L 1075.436945 800.748687 " transform="matrix(0.0998387, 0, 0, -0.0998387, 0.227419, 154.500403)"/>
<path fill="none" stroke-width="5" stroke-linecap="round" stroke-linejoin="round" stroke="rgb(0%, 0%, 0%)" stroke-opacity="1" stroke-miterlimit="10" d="M 1075.436945 800.748687 L 931.14171 831.423162 L 976.723041 691.11874 L 1075.436945 800.748687 " transform="matrix(0.0998387, 0, 0, -0.0998387, 0.227419, 154.500403)"/>
</svg>
