<?xml version="1.0" encoding="UTF-8"?>
<svg xmlns="http://www.w3.org/2000/svg" xmlns:xlink="http://www.w3.org/1999/xlink" width="282" height="162" viewBox="0 0 282 162">
<path fill="none" stroke-width="11.2397" stroke-linecap="round" stroke-linejoin="round" stroke="rgb(0%, 0%, 0%)" stroke-opacity="1" stroke-miterlimit="10" d="M 290.9375 1379.257812 L 197.578125 1217.578125 L 359.257812 1124.21875 L 452.617188 1285.9375 L 290.9375 1379.257812 " transform="matrix(0.1, 0, 0, -0.1, 0, 162)"/>
<path fill="none" stroke-width="11.2397" stroke-linecap="round" stroke-linejoin="round" stroke="rgb(0%, 0%, 0%)" stroke-opacity="1" stroke-miterlimit="10" d="M 452.617188 1285.9375 L 359.257812 1124.21875 L 545.976562 1124.21875 L 452.617188 1285.9375 " transform="matrix(0.1, 0, 0, -0.1, 0, 162)"/>
<path fill="none" stroke-width="11.2397" stroke-linecap="round" stroke-linejoin="round" stroke="rgb(0%, 0%, 0%)" stroke-opacity="1" stroke-miterlimit="10" d="M 359.257812 1124.21875 L 359.257812 937.539062 L 545.976562 937.539062 L 545.976562 1124.21875 L 359.257812 1124.21875 " transform="matrix(0.1, 0, 0, -0.1, 0, 162)"/>
<path fill="none" stroke-width="11.2397" stroke-linecap="round" stroke-linejoin="round" stroke="rgb(0%, 0%, 0%)" stroke-opacity="1" stroke-miterlimit="10" d="M 181.71875 1181.914062 L 71.953125 1030.898438 L 181.71875 879.84375 L 359.257812 937.539062 L 359.257812 1124.21875 L 181.71875 1181.914062 " transform="matrix(0.1, 0, 0, -0.1, 0, 162)"/>
<path fill="none" stroke-width="11.2397" stroke-linecap="round" stroke-linejoin="round" stroke="rgb(0%, 0%, 0%)" stroke-opacity="1" stroke-miterlimit="10" d="M 197.578125 844.140625 L 359.257812 750.820312 L 359.257812 937.539062 L 197.578125 844.140625 " transform="matrix(0.1, 0, 0, -0.1, 0, 162)"/>
<path fill="none" stroke-width="11.2397" stroke-linecap="round" stroke-linejoin="round" stroke="rgb(0%, 0%, 0%)" stroke-opacity="1" stroke-miterlimit="10" d="M 359.257812 937.539062 L 359.257812 750.820312 L 545.976562 750.820312 L 545.976562 937.539062 L 359.257812 937.539062 " transform="matrix(0.1, 0, 0, -0.1, 0, 162)"/>
<path fill="none" stroke-width="11.2397" stroke-linecap="round" stroke-linejoin="round" stroke="rgb(0%, 0%, 0%)" stroke-opacity="1" stroke-miterlimit="10" d="M 104.21875 682.460938 L 265.898438 589.140625 L 359.257812 750.820312 L 197.578125 844.140625 L 104.21875 682.460938 " transform="matrix(0.1, 0, 0, -0.1, 0, 162)"/>
<path fill="none" stroke-width="11.2397" stroke-linecap="round" stroke-linejoin="round" stroke="rgb(0%, 0%, 0%)" stroke-opacity="1" stroke-miterlimit="10" d="M 104.21875 682.460938 L 104.21875 495.742188 L 265.898438 589.140625 L 104.21875 682.460938 " transform="matrix(0.1, 0, 0, -0.1, 0, 162)"/>
<path fill="none" stroke-width="11.2397" stroke-linecap="round" stroke-linejoin="round" stroke="rgb(0%, 0%, 0%)" stroke-opacity="1" stroke-miterlimit="10" d="M 104.21875 495.742188 L 197.578125 334.0625 L 359.257812 427.421875 L 265.898438 589.140625 L 104.21875 495.742188 " transform="matrix(0.1, 0, 0, -0.1, 0, 162)"/>
<path fill="none" stroke-width="11.2397" stroke-linecap="round" stroke-linejoin="round" stroke="rgb(0%, 0%, 0%)" stroke-opacity="1" stroke-miterlimit="10" d="M 265.898438 589.140625 L 359.257812 427.421875 L 541.875 466.25 L 561.40625 651.914062 L 390.859375 727.890625 L 265.898438 589.140625 " transform="matrix(0.1, 0, 0, -0.1, 0, 162)"/>
<path fill="none" stroke-width="11.2397" stroke-linecap="round" stroke-linejoin="round" stroke="rgb(0%, 0%, 0%)" stroke-opacity="1" stroke-miterlimit="10" d="M 197.578125 334.0625 L 359.257812 240.742188 L 359.257812 427.421875 L 197.578125 334.0625 " transform="matrix(0.1, 0, 0, -0.1, 0, 162)"/>
<path fill="none" stroke-width="11.2397" stroke-linecap="round" stroke-linejoin="round" stroke="rgb(0%, 0%, 0%)" stroke-opacity="1" stroke-miterlimit="10" d="M 359.257812 427.421875 L 359.257812 240.742188 L 545.976562 240.742188 L 545.976562 427.421875 L 359.257812 427.421875 " transform="matrix(0.1, 0, 0, -0.1, 0, 162)"/>
<path fill="none" stroke-width="11.2397" stroke-linecap="round" stroke-linejoin="round" stroke="rgb(0%, 0%, 0%)" stroke-opacity="1" stroke-miterlimit="10" d="M 801.015625 1379.257812 L 707.65625 1217.578125 L 869.335938 1124.21875 L 962.734375 1285.9375 L 801.015625 1379.257812 " transform="matrix(0.1, 0, 0, -0.1, 0, 162)"/>
<path fill="none" stroke-width="11.2397" stroke-linecap="round" stroke-linejoin="round" stroke="rgb(0%, 0%, 0%)" stroke-opacity="1" stroke-miterlimit="10" d="M 962.734375 1285.9375 L 869.335938 1124.21875 L 1056.054688 1124.21875 L 962.734375 1285.9375 " transform="matrix(0.1, 0, 0, -0.1, 0, 162)"/>
<path fill="none" stroke-width="11.2397" stroke-linecap="round" stroke-linejoin="round" stroke="rgb(0%, 0%, 0%)" stroke-opacity="1" stroke-miterlimit="10" d="M 869.335938 1124.21875 L 869.335938 937.539062 L 1056.054688 937.539062 L 1056.054688 1124.21875 L 869.335938 1124.21875 " transform="matrix(0.1, 0, 0, -0.1, 0, 162)"/>
<path fill="none" stroke-width="11.2397" stroke-linecap="round" stroke-linejoin="round" stroke="rgb(0%, 0%, 0%)" stroke-opacity="1" stroke-miterlimit="10" d="M 691.796875 1181.914062 L 582.03125 1030.898438 L 691.796875 879.84375 L 869.335938 937.539062 L 869.335938 1124.21875 L 691.796875 1181.914062 " transform="matrix(0.1, 0, 0, -0.1, 0, 162)"/>
<path fill="none" stroke-width="11.2397" stroke-linecap="round" stroke-linejoin="round" stroke="rgb(0%, 0%, 0%)" stroke-opacity="1" stroke-miterlimit="10" d="M 869.335938 937.539062 L 962.734375 775.820312 L 1056.054688 937.539062 L 869.335938 937.539062 " transform="matrix(0.1, 0, 0, -0.1, 0, 162)"/>
<path fill="none" stroke-width="11.2397" stroke-linecap="round" stroke-linejoin="round" stroke="rgb(0%, 0%, 0%)" stroke-opacity="1" stroke-miterlimit="10" d="M 1056.054688 937.539062 L 962.734375 775.820312 L 1124.414062 682.460938 L 1217.773438 844.140625 L 1056.054688 937.539062 " transform="matrix(0.1, 0, 0, -0.1, 0, 162)"/>
<path fill="none" stroke-width="11.2397" stroke-linecap="round" stroke-linejoin="round" stroke="rgb(0%, 0%, 0%)" stroke-opacity="1" stroke-miterlimit="10" d="M 707.65625 844.140625 L 801.015625 682.460938 L 962.734375 775.820312 L 869.335938 937.539062 L 707.65625 844.140625 " transform="matrix(0.1, 0, 0, -0.1, 0, 162)"/>
<path fill="none" stroke-width="11.2397" stroke-linecap="round" stroke-linejoin="round" stroke="rgb(0%, 0%, 0%)" stroke-opacity="1" stroke-miterlimit="10" d="M 545.976562 937.539062 L 545.976562 750.820312 L 707.65625 844.140625 L 545.976562 937.539062 " transform="matrix(0.1, 0, 0, -0.1, 0, 162)"/>
<path fill="none" stroke-width="11.2397" stroke-linecap="round" stroke-linejoin="round" stroke="rgb(0%, 0%, 0%)" stroke-opacity="1" stroke-miterlimit="10" d="M 545.976562 750.820312 L 639.335938 589.140625 L 801.015625 682.460938 L 707.65625 844.140625 L 545.976562 750.820312 " transform="matrix(0.1, 0, 0, -0.1, 0, 162)"/>
<path fill="none" stroke-width="11.2397" stroke-linecap="round" stroke-linejoin="round" stroke="rgb(0%, 0%, 0%)" stroke-opacity="1" stroke-miterlimit="10" d="M 801.015625 682.460938 L 801.015625 495.742188 L 978.59375 438.046875 L 1088.320312 589.140625 L 978.59375 740.15625 L 801.015625 682.460938 " transform="matrix(0.1, 0, 0, -0.1, 0, 162)"/>
<path fill="none" stroke-width="11.2397" stroke-linecap="round" stroke-linejoin="round" stroke="rgb(0%, 0%, 0%)" stroke-opacity="1" stroke-miterlimit="10" d="M 639.335938 589.140625 L 801.015625 495.742188 L 801.015625 682.460938 L 639.335938 589.140625 " transform="matrix(0.1, 0, 0, -0.1, 0, 162)"/>
<path fill="none" stroke-width="11.2397" stroke-linecap="round" stroke-linejoin="round" stroke="rgb(0%, 0%, 0%)" stroke-opacity="1" stroke-miterlimit="10" d="M 545.976562 240.742188 L 359.257812 240.742188 L 359.257812 54.023438 L 545.976562 54.023438 L 545.976562 240.742188 " transform="matrix(0.1, 0, 0, -0.1, 0, 162)"/>
<path fill="none" stroke-width="11.2397" stroke-linecap="round" stroke-linejoin="round" stroke="rgb(0%, 0%, 0%)" stroke-opacity="1" stroke-miterlimit="10" d="M 1311.132812 1379.257812 L 1217.773438 1217.578125 L 1379.453125 1124.21875 L 1472.8125 1285.9375 L 1311.132812 1379.257812 " transform="matrix(0.1, 0, 0, -0.1, 0, 162)"/>
<path fill="none" stroke-width="11.2397" stroke-linecap="round" stroke-linejoin="round" stroke="rgb(0%, 0%, 0%)" stroke-opacity="1" stroke-miterlimit="10" d="M 1472.8125 1285.9375 L 1379.453125 1124.21875 L 1566.171875 1124.21875 L 1472.8125 1285.9375 " transform="matrix(0.1, 0, 0, -0.1, 0, 162)"/>
<path fill="none" stroke-width="11.2397" stroke-linecap="round" stroke-linejoin="round" stroke="rgb(0%, 0%, 0%)" stroke-opacity="1" stroke-miterlimit="10" d="M 1379.453125 1124.21875 L 1379.453125 937.539062 L 1566.171875 937.539062 L 1566.171875 1124.21875 L 1379.453125 1124.21875 " transform="matrix(0.1, 0, 0, -0.1, 0, 162)"/>
<path fill="none" stroke-width="11.2397" stroke-linecap="round" stroke-linejoin="round" stroke="rgb(0%, 0%, 0%)" stroke-opacity="1" stroke-miterlimit="10" d="M 1201.914062 1181.914062 L 1092.148438 1030.898438 L 1201.914062 879.84375 L 1379.453125 937.539062 L 1379.453125 1124.21875 L 1201.914062 1181.914062 " transform="matrix(0.1, 0, 0, -0.1, 0, 162)"/>
<path fill="none" stroke-width="11.2397" stroke-linecap="round" stroke-linejoin="round" stroke="rgb(0%, 0%, 0%)" stroke-opacity="1" stroke-miterlimit="10" d="M 1379.453125 937.539062 L 1472.8125 775.820312 L 1566.171875 937.539062 L 1379.453125 937.539062 " transform="matrix(0.1, 0, 0, -0.1, 0, 162)"/>
<path fill="none" stroke-width="11.2397" stroke-linecap="round" stroke-linejoin="round" stroke="rgb(0%, 0%, 0%)" stroke-opacity="1" stroke-miterlimit="10" d="M 1566.171875 937.539062 L 1472.8125 775.820312 L 1634.492188 682.460938 L 1727.851562 844.140625 L 1566.171875 937.539062 " transform="matrix(0.1, 0, 0, -0.1, 0, 162)"/>
<path fill="none" stroke-width="11.2397" stroke-linecap="round" stroke-linejoin="round" stroke="rgb(0%, 0%, 0%)" stroke-opacity="1" stroke-miterlimit="10" d="M 1217.773438 844.140625 L 1311.132812 682.460938 L 1472.8125 775.820312 L 1379.453125 937.539062 L 1217.773438 844.140625 " transform="matrix(0.1, 0, 0, -0.1, 0, 162)"/>
<path fill="none" stroke-width="11.2397" stroke-linecap="round" stroke-linejoin="round" stroke="rgb(0%, 0%, 0%)" stroke-opacity="1" stroke-miterlimit="10" d="M 1217.773438 844.140625 L 1124.414062 682.460938 L 1311.132812 682.460938 L 1217.773438 844.140625 " transform="matrix(0.1, 0, 0, -0.1, 0, 162)"/>
<path fill="none" stroke-width="11.2397" stroke-linecap="round" stroke-linejoin="round" stroke="rgb(0%, 0%, 0%)" stroke-opacity="1" stroke-miterlimit="10" d="M 1124.414062 682.460938 L 1124.414062 495.742188 L 1311.132812 495.742188 L 1311.132812 682.460938 L 1124.414062 682.460938 " transform="matrix(0.1, 0, 0, -0.1, 0, 162)"/>
<path fill="none" stroke-width="11.2397" stroke-linecap="round" stroke-linejoin="round" stroke="rgb(0%, 0%, 0%)" stroke-opacity="1" stroke-miterlimit="10" d="M 1311.132812 682.460938 L 1311.132812 495.742188 L 1488.671875 438.046875 L 1598.4375 589.140625 L 1488.671875 740.15625 L 1311.132812 682.460938 " transform="matrix(0.1, 0, 0, -0.1, 0, 162)"/>
<path fill="none" stroke-width="11.2397" stroke-linecap="round" stroke-linejoin="round" stroke="rgb(0%, 0%, 0%)" stroke-opacity="1" stroke-miterlimit="10" d="M 1124.414062 495.742188 L 1217.773438 334.0625 L 1311.132812 495.742188 L 1124.414062 495.742188 " transform="matrix(0.1, 0, 0, -0.1, 0, 162)"/>
<path fill="none" stroke-width="11.2397" stroke-linecap="round" stroke-linejoin="round" stroke="rgb(0%, 0%, 0%)" stroke-opacity="1" stroke-miterlimit="10" d="M 1311.132812 495.742188 L 1217.773438 334.0625 L 1379.453125 240.742188 L 1472.8125 402.421875 L 1311.132812 495.742188 " transform="matrix(0.1, 0, 0, -0.1, 0, 162)"/>
<path fill="none" stroke-width="11.2397" stroke-linecap="round" stroke-linejoin="round" stroke="rgb(0%, 0%, 0%)" stroke-opacity="1" stroke-miterlimit="10" d="M 1821.210938 1379.257812 L 1727.851562 1217.578125 L 1889.53125 1124.21875 L 1982.890625 1285.9375 L 1821.210938 1379.257812 " transform="matrix(0.1, 0, 0, -0.1, 0, 162)"/>
<path fill="none" stroke-width="11.2397" stroke-linecap="round" stroke-linejoin="round" stroke="rgb(0%, 0%, 0%)" stroke-opacity="1" stroke-miterlimit="10" d="M 1982.890625 1285.9375 L 1889.53125 1124.21875 L 2076.25 1124.21875 L 1982.890625 1285.9375 " transform="matrix(0.1, 0, 0, -0.1, 0, 162)"/>
<path fill="none" stroke-width="11.2397" stroke-linecap="round" stroke-linejoin="round" stroke="rgb(0%, 0%, 0%)" stroke-opacity="1" stroke-miterlimit="10" d="M 1889.53125 1124.21875 L 1889.53125 937.539062 L 2076.25 937.539062 L 2076.25 1124.21875 L 1889.53125 1124.21875 " transform="matrix(0.1, 0, 0, -0.1, 0, 162)"/>
<path fill="none" stroke-width="11.2397" stroke-linecap="round" stroke-linejoin="round" stroke="rgb(0%, 0%, 0%)" stroke-opacity="1" stroke-miterlimit="10" d="M 1711.992188 1181.914062 L 1602.226562 1030.898438 L 1711.992188 879.84375 L 1889.53125 937.539062 L 1889.53125 1124.21875 L 1711.992188 1181.914062 " transform="matrix(0.1, 0, 0, -0.1, 0, 162)"/>
<path fill="none" stroke-width="11.2397" stroke-linecap="round" stroke-linejoin="round" stroke="rgb(0%, 0%, 0%)" stroke-opacity="1" stroke-miterlimit="10" d="M 1889.53125 937.539062 L 1982.890625 775.820312 L 2076.25 937.539062 L 1889.53125 937.539062 " transform="matrix(0.1, 0, 0, -0.1, 0, 162)"/>
<path fill="none" stroke-width="11.2397" stroke-linecap="round" stroke-linejoin="round" stroke="rgb(0%, 0%, 0%)" stroke-opacity="1" stroke-miterlimit="10" d="M 2076.25 937.539062 L 1982.890625 775.820312 L 2144.609375 682.460938 L 2237.96875 844.140625 L 2076.25 937.539062 " transform="matrix(0.1, 0, 0, -0.1, 0, 162)"/>
<path fill="none" stroke-width="11.2397" stroke-linecap="round" stroke-linejoin="round" stroke="rgb(0%, 0%, 0%)" stroke-opacity="1" stroke-miterlimit="10" d="M 1727.851562 844.140625 L 1821.210938 682.460938 L 1982.890625 775.820312 L 1889.53125 937.539062 L 1727.851562 844.140625 " transform="matrix(0.1, 0, 0, -0.1, 0, 162)"/>
<path fill="none" stroke-width="11.2397" stroke-linecap="round" stroke-linejoin="round" stroke="rgb(0%, 0%, 0%)" stroke-opacity="1" stroke-miterlimit="10" d="M 1727.851562 844.140625 L 1634.492188 682.460938 L 1821.210938 682.460938 L 1727.851562 844.140625 " transform="matrix(0.1, 0, 0, -0.1, 0, 162)"/>
<path fill="none" stroke-width="11.2397" stroke-linecap="round" stroke-linejoin="round" stroke="rgb(0%, 0%, 0%)" stroke-opacity="1" stroke-miterlimit="10" d="M 1634.492188 682.460938 L 1634.492188 495.742188 L 1821.210938 495.742188 L 1821.210938 682.460938 L 1634.492188 682.460938 " transform="matrix(0.1, 0, 0, -0.1, 0, 162)"/>
<path fill="none" stroke-width="11.2397" stroke-linecap="round" stroke-linejoin="round" stroke="rgb(0%, 0%, 0%)" stroke-opacity="1" stroke-miterlimit="10" d="M 1821.210938 682.460938 L 1821.210938 495.742188 L 1998.789062 438.046875 L 2108.515625 589.140625 L 1998.789062 740.15625 L 1821.210938 682.460938 " transform="matrix(0.1, 0, 0, -0.1, 0, 162)"/>
<path fill="none" stroke-width="11.2397" stroke-linecap="round" stroke-linejoin="round" stroke="rgb(0%, 0%, 0%)" stroke-opacity="1" stroke-miterlimit="10" d="M 1634.492188 495.742188 L 1727.851562 334.0625 L 1821.210938 495.742188 L 1634.492188 495.742188 " transform="matrix(0.1, 0, 0, -0.1, 0, 162)"/>
<path fill="none" stroke-width="11.2397" stroke-linecap="round" stroke-linejoin="round" stroke="rgb(0%, 0%, 0%)" stroke-opacity="1" stroke-miterlimit="10" d="M 1821.210938 495.742188 L 1727.851562 334.0625 L 1889.53125 240.742188 L 1982.890625 402.421875 L 1821.210938 495.742188 " transform="matrix(0.1, 0, 0, -0.1, 0, 162)"/>
<path fill="none" stroke-width="11.2397" stroke-linecap="round" stroke-linejoin="round" stroke="rgb(0%, 0%, 0%)" stroke-opacity="1" stroke-miterlimit="10" d="M 2331.328125 1379.257812 L 2237.96875 1217.578125 L 2399.648438 1124.21875 L 2493.007812 1285.9375 L 2331.328125 1379.257812 " transform="matrix(0.1, 0, 0, -0.1, 0, 162)"/>
<path fill="none" stroke-width="11.2397" stroke-linecap="round" stroke-linejoin="round" stroke="rgb(0%, 0%, 0%)" stroke-opacity="1" stroke-miterlimit="10" d="M 2493.007812 1285.9375 L 2399.648438 1124.21875 L 2586.367188 1124.21875 L 2493.007812 1285.9375 " transform="matrix(0.1, 0, 0, -0.1, 0, 162)"/>
<path fill="none" stroke-width="11.2397" stroke-linecap="round" stroke-linejoin="round" stroke="rgb(0%, 0%, 0%)" stroke-opacity="1" stroke-miterlimit="10" d="M 2399.648438 1124.21875 L 2399.648438 937.539062 L 2586.367188 937.539062 L 2586.367188 1124.21875 L 2399.648438 1124.21875 " transform="matrix(0.1, 0, 0, -0.1, 0, 162)"/>
<path fill="none" stroke-width="11.2397" stroke-linecap="round" stroke-linejoin="round" stroke="rgb(0%, 0%, 0%)" stroke-opacity="1" stroke-miterlimit="10" d="M 2222.109375 1181.914062 L 2112.34375 1030.898438 L 2222.109375 879.84375 L 2399.648438 937.539062 L 2399.648438 1124.21875 L 2222.109375 1181.914062 " transform="matrix(0.1, 0, 0, -0.1, 0, 162)"/>
<path fill="none" stroke-width="11.2397" stroke-linecap="round" stroke-linejoin="round" stroke="rgb(0%, 0%, 0%)" stroke-opacity="1" stroke-miterlimit="10" d="M 2399.648438 937.539062 L 2493.007812 775.820312 L 2586.367188 937.539062 L 2399.648438 937.539062 " transform="matrix(0.1, 0, 0, -0.1, 0, 162)"/>
<path fill="none" stroke-width="11.2397" stroke-linecap="round" stroke-linejoin="round" stroke="rgb(0%, 0%, 0%)" stroke-opacity="1" stroke-miterlimit="10" d="M 2586.367188 937.539062 L 2493.007812 775.820312 L 2654.726562 682.460938 L 2748.046875 844.140625 L 2586.367188 937.539062 " transform="matrix(0.1, 0, 0, -0.1, 0, 162)"/>
<path fill="none" stroke-width="11.2397" stroke-linecap="round" stroke-linejoin="round" stroke="rgb(0%, 0%, 0%)" stroke-opacity="1" stroke-miterlimit="10" d="M 2237.96875 844.140625 L 2331.328125 682.460938 L 2493.007812 775.820312 L 2399.648438 937.539062 L 2237.96875 844.140625 " transform="matrix(0.1, 0, 0, -0.1, 0, 162)"/>
<path fill="none" stroke-width="11.2397" stroke-linecap="round" stroke-linejoin="round" stroke="rgb(0%, 0%, 0%)" stroke-opacity="1" stroke-miterlimit="10" d="M 2237.96875 844.140625 L 2144.609375 682.460938 L 2331.328125 682.460938 L 2237.96875 844.140625 " transform="matrix(0.1, 0, 0, -0.1, 0, 162)"/>
<path fill="none" stroke-width="11.2397" stroke-linecap="round" stroke-linejoin="round" stroke="rgb(0%, 0%, 0%)" stroke-opacity="1" stroke-miterlimit="10" d="M 2144.609375 682.460938 L 2144.609375 495.742188 L 2331.328125 495.742188 L 2331.328125 682.460938 L 2144.609375 682.460938 " transform="matrix(0.1, 0, 0, -0.1, 0, 162)"/>
<path fill="none" stroke-width="11.2397" stroke-linecap="round" stroke-linejoin="round" stroke="rgb(0%, 0%, 0%)" stroke-opacity="1" stroke-miterlimit="10" d="M 2331.328125 682.460938 L 2331.328125 495.742188 L 2508.867188 438.046875 L 2618.632812 589.140625 L 2508.867188 740.15625 L 2331.328125 682.460938 " transform="matrix(0.1, 0, 0, -0.1, 0, 162)"/>
<path fill="none" stroke-width="11.2397" stroke-linecap="round" stroke-linejoin="round" stroke="rgb(0%, 0%, 0%)" stroke-opacity="1" stroke-miterlimit="10" d="M 2144.609375 495.742188 L 2237.96875 334.0625 L 2331.328125 495.742188 L 2144.609375 495.742188 " transform="matrix(0.1, 0, 0, -0.1, 0, 162)"/>
<path fill="none" stroke-width="11.2397" stroke-linecap="round" stroke-linejoin="round" stroke="rgb(0%, 0%, 0%)" stroke-opacity="1" stroke-miterlimit="10" d="M 2331.328125 495.742188 L 2237.96875 334.0625 L 2399.648438 240.742188 L 2493.007812 402.421875 L 2331.328125 495.742188 " transform="matrix(0.1, 0, 0, -0.1, 0, 162)"/>
<path fill="none" stroke-width="11.2397" stroke-linecap="round" stroke-linejoin="round" stroke="rgb(0%, 0%, 0%)" stroke-opacity="1" stroke-miterlimit="10" d="M 839.84375 1561.914062 L 801.015625 1379.257812 L 962.734375 1285.9375 L 1101.484375 1410.859375 L 1025.507812 1581.40625 L 839.84375 1561.914062 " transform="matrix(0.1, 0, 0, -0.1, 0, 162)"/>
<path fill="none" stroke-width="11.2397" stroke-linecap="round" stroke-linejoin="round" stroke="rgb(0%, 0%, 0%)" stroke-opacity="1" stroke-miterlimit="10" d="M 2237.96875 334.0625 L 2099.21875 209.140625 L 2175.15625 38.59375 L 2360.820312 58.085938 L 2399.648438 240.742188 L 2237.96875 334.0625 " transform="matrix(0.1, 0, 0, -0.1, 0, 162)"/>
</svg>
