<?xml version="1.0" encoding="UTF-8"?>
<svg xmlns="http://www.w3.org/2000/svg" xmlns:xlink="http://www.w3.org/1999/xlink" width="282" height="167" viewBox="0 0 282 167">
<path fill="none" stroke-width="11.2777" stroke-linecap="round" stroke-linejoin="round" stroke="rgb(0%, 0%, 0%)" stroke-opacity="1" stroke-miterlimit="10" d="M 287.148438 1385 L 193.476562 1222.734375 L 355.703125 1129.101562 L 449.375 1291.328125 L 287.148438 1385 " transform="matrix(0.1, 0, 0, -0.1, 0, 167)"/>
<path fill="none" stroke-width="11.2777" stroke-linecap="round" stroke-linejoin="round" stroke="rgb(0%, 0%, 0%)" stroke-opacity="1" stroke-miterlimit="10" d="M 449.375 1291.328125 L 355.703125 1129.101562 L 543.046875 1129.101562 L 449.375 1291.328125 " transform="matrix(0.1, 0, 0, -0.1, 0, 167)"/>
<path fill="none" stroke-width="11.2777" stroke-linecap="round" stroke-linejoin="round" stroke="rgb(0%, 0%, 0%)" stroke-opacity="1" stroke-miterlimit="10" d="M 355.703125 1129.101562 L 355.703125 941.757812 L 543.046875 941.757812 L 543.046875 1129.101562 L 355.703125 1129.101562 " transform="matrix(0.1, 0, 0, -0.1, 0, 167)"/>
<path fill="none" stroke-width="11.2777" stroke-linecap="round" stroke-linejoin="round" stroke="rgb(0%, 0%, 0%)" stroke-opacity="1" stroke-miterlimit="10" d="M 177.539062 1186.992188 L 67.421875 1035.429688 L 177.539062 883.867188 L 355.703125 941.757812 L 355.703125 1129.101562 L 177.539062 1186.992188 " transform="matrix(0.1, 0, 0, -0.1, 0, 167)"/>
<path fill="none" stroke-width="11.2777" stroke-linecap="round" stroke-linejoin="round" stroke="rgb(0%, 0%, 0%)" stroke-opacity="1" stroke-miterlimit="10" d="M 193.476562 848.085938 L 355.703125 754.414062 L 355.703125 941.757812 L 193.476562 848.085938 " transform="matrix(0.1, 0, 0, -0.1, 0, 167)"/>
<path fill="none" stroke-width="11.2777" stroke-linecap="round" stroke-linejoin="round" stroke="rgb(0%, 0%, 0%)" stroke-opacity="1" stroke-miterlimit="10" d="M 355.703125 941.757812 L 355.703125 754.414062 L 543.046875 754.414062 L 543.046875 941.757812 L 355.703125 941.757812 " transform="matrix(0.1, 0, 0, -0.1, 0, 167)"/>
<path fill="none" stroke-width="11.2777" stroke-linecap="round" stroke-linejoin="round" stroke="rgb(0%, 0%, 0%)" stroke-opacity="1" stroke-miterlimit="10" d="M 99.804688 685.859375 L 262.03125 592.148438 L 355.703125 754.414062 L 193.476562 848.085938 L 99.804688 685.859375 " transform="matrix(0.1, 0, 0, -0.1, 0, 167)"/>
<path fill="none" stroke-width="11.2777" stroke-linecap="round" stroke-linejoin="round" stroke="rgb(0%, 0%, 0%)" stroke-opacity="1" stroke-miterlimit="10" d="M 99.804688 685.859375 L 99.804688 498.515625 L 262.03125 592.148438 L 99.804688 685.859375 " transform="matrix(0.1, 0, 0, -0.1, 0, 167)"/>
<path fill="none" stroke-width="11.2777" stroke-linecap="round" stroke-linejoin="round" stroke="rgb(0%, 0%, 0%)" stroke-opacity="1" stroke-miterlimit="10" d="M 99.804688 498.515625 L 193.476562 336.289062 L 355.703125 429.921875 L 262.03125 592.148438 L 99.804688 498.515625 " transform="matrix(0.1, 0, 0, -0.1, 0, 167)"/>
<path fill="none" stroke-width="11.2777" stroke-linecap="round" stroke-linejoin="round" stroke="rgb(0%, 0%, 0%)" stroke-opacity="1" stroke-miterlimit="10" d="M 262.03125 592.148438 L 355.703125 429.921875 L 538.945312 468.867188 L 558.515625 655.195312 L 387.382812 731.40625 L 262.03125 592.148438 " transform="matrix(0.1, 0, 0, -0.1, 0, 167)"/>
<path fill="none" stroke-width="11.2777" stroke-linecap="round" stroke-linejoin="round" stroke="rgb(0%, 0%, 0%)" stroke-opacity="1" stroke-miterlimit="10" d="M 193.476562 336.289062 L 355.703125 242.578125 L 355.703125 429.921875 L 193.476562 336.289062 " transform="matrix(0.1, 0, 0, -0.1, 0, 167)"/>
<path fill="none" stroke-width="11.2777" stroke-linecap="round" stroke-linejoin="round" stroke="rgb(0%, 0%, 0%)" stroke-opacity="1" stroke-miterlimit="10" d="M 355.703125 429.921875 L 355.703125 242.578125 L 543.046875 242.578125 L 543.046875 429.921875 L 355.703125 429.921875 " transform="matrix(0.1, 0, 0, -0.1, 0, 167)"/>
<path fill="none" stroke-width="11.2777" stroke-linecap="round" stroke-linejoin="round" stroke="rgb(0%, 0%, 0%)" stroke-opacity="1" stroke-miterlimit="10" d="M 1310.78125 1572.34375 L 1123.4375 1572.34375 L 1123.4375 1385 L 1310.78125 1385 L 1310.78125 1572.34375 " transform="matrix(0.1, 0, 0, -0.1, 0, 167)"/>
<path fill="none" stroke-width="11.2777" stroke-linecap="round" stroke-linejoin="round" stroke="rgb(0%, 0%, 0%)" stroke-opacity="1" stroke-miterlimit="10" d="M 867.5 1129.101562 L 867.5 941.757812 L 1029.765625 1035.429688 L 867.5 1129.101562 " transform="matrix(0.1, 0, 0, -0.1, 0, 167)"/>
<path fill="none" stroke-width="11.2777" stroke-linecap="round" stroke-linejoin="round" stroke="rgb(0%, 0%, 0%)" stroke-opacity="1" stroke-miterlimit="10" d="M 867.5 941.757812 L 961.210938 779.53125 L 1123.4375 873.164062 L 1029.765625 1035.429688 L 867.5 941.757812 " transform="matrix(0.1, 0, 0, -0.1, 0, 167)"/>
<path fill="none" stroke-width="11.2777" stroke-linecap="round" stroke-linejoin="round" stroke="rgb(0%, 0%, 0%)" stroke-opacity="1" stroke-miterlimit="10" d="M 689.335938 1186.992188 L 579.21875 1035.429688 L 689.335938 883.867188 L 867.5 941.757812 L 867.5 1129.101562 L 689.335938 1186.992188 " transform="matrix(0.1, 0, 0, -0.1, 0, 167)"/>
<path fill="none" stroke-width="11.2777" stroke-linecap="round" stroke-linejoin="round" stroke="rgb(0%, 0%, 0%)" stroke-opacity="1" stroke-miterlimit="10" d="M 961.210938 779.53125 L 1123.4375 685.859375 L 1123.4375 873.164062 L 961.210938 779.53125 " transform="matrix(0.1, 0, 0, -0.1, 0, 167)"/>
<path fill="none" stroke-width="11.2777" stroke-linecap="round" stroke-linejoin="round" stroke="rgb(0%, 0%, 0%)" stroke-opacity="1" stroke-miterlimit="10" d="M 1123.4375 873.164062 L 1123.4375 685.859375 L 1310.78125 685.859375 L 1310.78125 873.164062 L 1123.4375 873.164062 " transform="matrix(0.1, 0, 0, -0.1, 0, 167)"/>
<path fill="none" stroke-width="11.2777" stroke-linecap="round" stroke-linejoin="round" stroke="rgb(0%, 0%, 0%)" stroke-opacity="1" stroke-miterlimit="10" d="M 705.273438 848.085938 L 798.945312 685.859375 L 961.210938 779.53125 L 867.5 941.757812 L 705.273438 848.085938 " transform="matrix(0.1, 0, 0, -0.1, 0, 167)"/>
<path fill="none" stroke-width="11.2777" stroke-linecap="round" stroke-linejoin="round" stroke="rgb(0%, 0%, 0%)" stroke-opacity="1" stroke-miterlimit="10" d="M 543.046875 941.757812 L 543.046875 754.414062 L 705.273438 848.085938 L 543.046875 941.757812 " transform="matrix(0.1, 0, 0, -0.1, 0, 167)"/>
<path fill="none" stroke-width="11.2777" stroke-linecap="round" stroke-linejoin="round" stroke="rgb(0%, 0%, 0%)" stroke-opacity="1" stroke-miterlimit="10" d="M 543.046875 754.414062 L 636.71875 592.148438 L 798.945312 685.859375 L 705.273438 848.085938 L 543.046875 754.414062 " transform="matrix(0.1, 0, 0, -0.1, 0, 167)"/>
<path fill="none" stroke-width="11.2777" stroke-linecap="round" stroke-linejoin="round" stroke="rgb(0%, 0%, 0%)" stroke-opacity="1" stroke-miterlimit="10" d="M 798.945312 685.859375 L 798.945312 498.515625 L 977.148438 440.625 L 1087.226562 592.148438 L 977.148438 743.75 L 798.945312 685.859375 " transform="matrix(0.1, 0, 0, -0.1, 0, 167)"/>
<path fill="none" stroke-width="11.2777" stroke-linecap="round" stroke-linejoin="round" stroke="rgb(0%, 0%, 0%)" stroke-opacity="1" stroke-miterlimit="10" d="M 636.71875 592.148438 L 798.945312 498.515625 L 798.945312 685.859375 L 636.71875 592.148438 " transform="matrix(0.1, 0, 0, -0.1, 0, 167)"/>
<path fill="none" stroke-width="11.2777" stroke-linecap="round" stroke-linejoin="round" stroke="rgb(0%, 0%, 0%)" stroke-opacity="1" stroke-miterlimit="10" d="M 543.046875 242.578125 L 355.703125 242.578125 L 355.703125 55.273438 L 543.046875 55.273438 L 543.046875 242.578125 " transform="matrix(0.1, 0, 0, -0.1, 0, 167)"/>
<path fill="none" stroke-width="11.2777" stroke-linecap="round" stroke-linejoin="round" stroke="rgb(0%, 0%, 0%)" stroke-opacity="1" stroke-miterlimit="10" d="M 1123.4375 1385 L 1123.4375 1197.65625 L 1310.78125 1197.65625 L 1310.78125 1385 L 1123.4375 1385 " transform="matrix(0.1, 0, 0, -0.1, 0, 167)"/>
<path fill="none" stroke-width="11.2777" stroke-linecap="round" stroke-linejoin="round" stroke="rgb(0%, 0%, 0%)" stroke-opacity="1" stroke-miterlimit="10" d="M 1310.78125 1385 L 1310.78125 1197.65625 L 1473.007812 1291.328125 L 1310.78125 1385 " transform="matrix(0.1, 0, 0, -0.1, 0, 167)"/>
<path fill="none" stroke-width="11.2777" stroke-linecap="round" stroke-linejoin="round" stroke="rgb(0%, 0%, 0%)" stroke-opacity="1" stroke-miterlimit="10" d="M 1310.78125 1197.65625 L 1404.453125 1035.429688 L 1566.71875 1129.101562 L 1473.007812 1291.328125 L 1310.78125 1197.65625 " transform="matrix(0.1, 0, 0, -0.1, 0, 167)"/>
<path fill="none" stroke-width="11.2777" stroke-linecap="round" stroke-linejoin="round" stroke="rgb(0%, 0%, 0%)" stroke-opacity="1" stroke-miterlimit="10" d="M 1127.539062 1158.710938 L 1107.96875 972.382812 L 1279.101562 896.210938 L 1404.453125 1035.429688 L 1310.78125 1197.65625 L 1127.539062 1158.710938 " transform="matrix(0.1, 0, 0, -0.1, 0, 167)"/>
<path fill="none" stroke-width="11.2777" stroke-linecap="round" stroke-linejoin="round" stroke="rgb(0%, 0%, 0%)" stroke-opacity="1" stroke-miterlimit="10" d="M 1404.453125 1035.429688 L 1566.71875 941.757812 L 1566.71875 1129.101562 L 1404.453125 1035.429688 " transform="matrix(0.1, 0, 0, -0.1, 0, 167)"/>
<path fill="none" stroke-width="11.2777" stroke-linecap="round" stroke-linejoin="round" stroke="rgb(0%, 0%, 0%)" stroke-opacity="1" stroke-miterlimit="10" d="M 1566.71875 941.757812 L 1473.007812 779.53125 L 1635.273438 685.859375 L 1728.945312 848.085938 L 1566.71875 941.757812 " transform="matrix(0.1, 0, 0, -0.1, 0, 167)"/>
<path fill="none" stroke-width="11.2777" stroke-linecap="round" stroke-linejoin="round" stroke="rgb(0%, 0%, 0%)" stroke-opacity="1" stroke-miterlimit="10" d="M 1310.78125 873.164062 L 1473.007812 779.53125 L 1566.71875 941.757812 L 1404.453125 1035.429688 L 1310.78125 873.164062 " transform="matrix(0.1, 0, 0, -0.1, 0, 167)"/>
<path fill="none" stroke-width="11.2777" stroke-linecap="round" stroke-linejoin="round" stroke="rgb(0%, 0%, 0%)" stroke-opacity="1" stroke-miterlimit="10" d="M 1310.78125 873.164062 L 1310.78125 685.859375 L 1473.007812 779.53125 L 1310.78125 873.164062 " transform="matrix(0.1, 0, 0, -0.1, 0, 167)"/>
<path fill="none" stroke-width="11.2777" stroke-linecap="round" stroke-linejoin="round" stroke="rgb(0%, 0%, 0%)" stroke-opacity="1" stroke-miterlimit="10" d="M 1123.4375 685.859375 L 1123.4375 498.515625 L 1310.78125 498.515625 L 1310.78125 685.859375 L 1123.4375 685.859375 " transform="matrix(0.1, 0, 0, -0.1, 0, 167)"/>
<path fill="none" stroke-width="11.2777" stroke-linecap="round" stroke-linejoin="round" stroke="rgb(0%, 0%, 0%)" stroke-opacity="1" stroke-miterlimit="10" d="M 1310.78125 685.859375 L 1310.78125 498.515625 L 1488.945312 440.625 L 1599.0625 592.148438 L 1488.945312 743.75 L 1310.78125 685.859375 " transform="matrix(0.1, 0, 0, -0.1, 0, 167)"/>
<path fill="none" stroke-width="11.2777" stroke-linecap="round" stroke-linejoin="round" stroke="rgb(0%, 0%, 0%)" stroke-opacity="1" stroke-miterlimit="10" d="M 1123.4375 498.515625 L 1217.148438 336.289062 L 1310.78125 498.515625 L 1123.4375 498.515625 " transform="matrix(0.1, 0, 0, -0.1, 0, 167)"/>
<path fill="none" stroke-width="11.2777" stroke-linecap="round" stroke-linejoin="round" stroke="rgb(0%, 0%, 0%)" stroke-opacity="1" stroke-miterlimit="10" d="M 1310.78125 498.515625 L 1217.148438 336.289062 L 1379.335938 242.578125 L 1473.007812 404.84375 L 1310.78125 498.515625 " transform="matrix(0.1, 0, 0, -0.1, 0, 167)"/>
<path fill="none" stroke-width="11.2777" stroke-linecap="round" stroke-linejoin="round" stroke="rgb(0%, 0%, 0%)" stroke-opacity="1" stroke-miterlimit="10" d="M 1822.578125 1385 L 1728.945312 1222.734375 L 1891.171875 1129.101562 L 1984.84375 1291.328125 L 1822.578125 1385 " transform="matrix(0.1, 0, 0, -0.1, 0, 167)"/>
<path fill="none" stroke-width="11.2777" stroke-linecap="round" stroke-linejoin="round" stroke="rgb(0%, 0%, 0%)" stroke-opacity="1" stroke-miterlimit="10" d="M 1984.84375 1291.328125 L 1891.171875 1129.101562 L 2078.515625 1129.101562 L 1984.84375 1291.328125 " transform="matrix(0.1, 0, 0, -0.1, 0, 167)"/>
<path fill="none" stroke-width="11.2777" stroke-linecap="round" stroke-linejoin="round" stroke="rgb(0%, 0%, 0%)" stroke-opacity="1" stroke-miterlimit="10" d="M 1891.171875 1129.101562 L 1891.171875 941.757812 L 2078.515625 941.757812 L 2078.515625 1129.101562 L 1891.171875 1129.101562 " transform="matrix(0.1, 0, 0, -0.1, 0, 167)"/>
<path fill="none" stroke-width="11.2777" stroke-linecap="round" stroke-linejoin="round" stroke="rgb(0%, 0%, 0%)" stroke-opacity="1" stroke-miterlimit="10" d="M 1713.007812 1186.992188 L 1602.890625 1035.429688 L 1713.007812 883.867188 L 1891.171875 941.757812 L 1891.171875 1129.101562 L 1713.007812 1186.992188 " transform="matrix(0.1, 0, 0, -0.1, 0, 167)"/>
<path fill="none" stroke-width="11.2777" stroke-linecap="round" stroke-linejoin="round" stroke="rgb(0%, 0%, 0%)" stroke-opacity="1" stroke-miterlimit="10" d="M 1891.171875 941.757812 L 1984.84375 779.53125 L 2078.515625 941.757812 L 1891.171875 941.757812 " transform="matrix(0.1, 0, 0, -0.1, 0, 167)"/>
<path fill="none" stroke-width="11.2777" stroke-linecap="round" stroke-linejoin="round" stroke="rgb(0%, 0%, 0%)" stroke-opacity="1" stroke-miterlimit="10" d="M 2078.515625 941.757812 L 1984.84375 779.53125 L 2147.070312 685.859375 L 2240.78125 848.085938 L 2078.515625 941.757812 " transform="matrix(0.1, 0, 0, -0.1, 0, 167)"/>
<path fill="none" stroke-width="11.2777" stroke-linecap="round" stroke-linejoin="round" stroke="rgb(0%, 0%, 0%)" stroke-opacity="1" stroke-miterlimit="10" d="M 1728.945312 848.085938 L 1822.578125 685.859375 L 1984.84375 779.53125 L 1891.171875 941.757812 L 1728.945312 848.085938 " transform="matrix(0.1, 0, 0, -0.1, 0, 167)"/>
<path fill="none" stroke-width="11.2777" stroke-linecap="round" stroke-linejoin="round" stroke="rgb(0%, 0%, 0%)" stroke-opacity="1" stroke-miterlimit="10" d="M 1728.945312 848.085938 L 1635.273438 685.859375 L 1822.578125 685.859375 L 1728.945312 848.085938 " transform="matrix(0.1, 0, 0, -0.1, 0, 167)"/>
<path fill="none" stroke-width="11.2777" stroke-linecap="round" stroke-linejoin="round" stroke="rgb(0%, 0%, 0%)" stroke-opacity="1" stroke-miterlimit="10" d="M 1635.273438 685.859375 L 1635.273438 498.515625 L 1822.578125 498.515625 L 1822.578125 685.859375 L 1635.273438 685.859375 " transform="matrix(0.1, 0, 0, -0.1, 0, 167)"/>
<path fill="none" stroke-width="11.2777" stroke-linecap="round" stroke-linejoin="round" stroke="rgb(0%, 0%, 0%)" stroke-opacity="1" stroke-miterlimit="10" d="M 1822.578125 685.859375 L 1822.578125 498.515625 L 2000.78125 440.625 L 2110.898438 592.148438 L 2000.78125 743.75 L 1822.578125 685.859375 " transform="matrix(0.1, 0, 0, -0.1, 0, 167)"/>
<path fill="none" stroke-width="11.2777" stroke-linecap="round" stroke-linejoin="round" stroke="rgb(0%, 0%, 0%)" stroke-opacity="1" stroke-miterlimit="10" d="M 1635.273438 498.515625 L 1728.945312 336.289062 L 1822.578125 498.515625 L 1635.273438 498.515625 " transform="matrix(0.1, 0, 0, -0.1, 0, 167)"/>
<path fill="none" stroke-width="11.2777" stroke-linecap="round" stroke-linejoin="round" stroke="rgb(0%, 0%, 0%)" stroke-opacity="1" stroke-miterlimit="10" d="M 1822.578125 498.515625 L 1728.945312 336.289062 L 1891.171875 242.578125 L 1984.84375 404.84375 L 1822.578125 498.515625 " transform="matrix(0.1, 0, 0, -0.1, 0, 167)"/>
<path fill="none" stroke-width="11.2777" stroke-linecap="round" stroke-linejoin="round" stroke="rgb(0%, 0%, 0%)" stroke-opacity="1" stroke-miterlimit="10" d="M 2334.414062 1385 L 2240.78125 1222.734375 L 2403.007812 1129.101562 L 2496.640625 1291.328125 L 2334.414062 1385 " transform="matrix(0.1, 0, 0, -0.1, 0, 167)"/>
<path fill="none" stroke-width="11.2777" stroke-linecap="round" stroke-linejoin="round" stroke="rgb(0%, 0%, 0%)" stroke-opacity="1" stroke-miterlimit="10" d="M 2496.640625 1291.328125 L 2403.007812 1129.101562 L 2590.351562 1129.101562 L 2496.640625 1291.328125 " transform="matrix(0.1, 0, 0, -0.1, 0, 167)"/>
<path fill="none" stroke-width="11.2777" stroke-linecap="round" stroke-linejoin="round" stroke="rgb(0%, 0%, 0%)" stroke-opacity="1" stroke-miterlimit="10" d="M 2403.007812 1129.101562 L 2403.007812 941.757812 L 2590.351562 941.757812 L 2590.351562 1129.101562 L 2403.007812 1129.101562 " transform="matrix(0.1, 0, 0, -0.1, 0, 167)"/>
<path fill="none" stroke-width="11.2777" stroke-linecap="round" stroke-linejoin="round" stroke="rgb(0%, 0%, 0%)" stroke-opacity="1" stroke-miterlimit="10" d="M 2224.84375 1186.992188 L 2114.726562 1035.429688 L 2224.84375 883.867188 L 2403.007812 941.757812 L 2403.007812 1129.101562 L 2224.84375 1186.992188 " transform="matrix(0.1, 0, 0, -0.1, 0, 167)"/>
<path fill="none" stroke-width="11.2777" stroke-linecap="round" stroke-linejoin="round" stroke="rgb(0%, 0%, 0%)" stroke-opacity="1" stroke-miterlimit="10" d="M 2403.007812 941.757812 L 2496.640625 779.53125 L 2590.351562 941.757812 L 2403.007812 941.757812 " transform="matrix(0.1, 0, 0, -0.1, 0, 167)"/>
<path fill="none" stroke-width="11.2777" stroke-linecap="round" stroke-linejoin="round" stroke="rgb(0%, 0%, 0%)" stroke-opacity="1" stroke-miterlimit="10" d="M 2590.351562 941.757812 L 2496.640625 779.53125 L 2658.90625 685.859375 L 2752.578125 848.085938 L 2590.351562 941.757812 " transform="matrix(0.1, 0, 0, -0.1, 0, 167)"/>
<path fill="none" stroke-width="11.2777" stroke-linecap="round" stroke-linejoin="round" stroke="rgb(0%, 0%, 0%)" stroke-opacity="1" stroke-miterlimit="10" d="M 2240.78125 848.085938 L 2334.414062 685.859375 L 2496.640625 779.53125 L 2403.007812 941.757812 L 2240.78125 848.085938 " transform="matrix(0.1, 0, 0, -0.1, 0, 167)"/>
<path fill="none" stroke-width="11.2777" stroke-linecap="round" stroke-linejoin="round" stroke="rgb(0%, 0%, 0%)" stroke-opacity="1" stroke-miterlimit="10" d="M 2240.78125 848.085938 L 2147.070312 685.859375 L 2334.414062 685.859375 L 2240.78125 848.085938 " transform="matrix(0.1, 0, 0, -0.1, 0, 167)"/>
<path fill="none" stroke-width="11.2777" stroke-linecap="round" stroke-linejoin="round" stroke="rgb(0%, 0%, 0%)" stroke-opacity="1" stroke-miterlimit="10" d="M 2147.070312 685.859375 L 2147.070312 498.515625 L 2334.414062 498.515625 L 2334.414062 685.859375 L 2147.070312 685.859375 " transform="matrix(0.1, 0, 0, -0.1, 0, 167)"/>
<path fill="none" stroke-width="11.2777" stroke-linecap="round" stroke-linejoin="round" stroke="rgb(0%, 0%, 0%)" stroke-opacity="1" stroke-miterlimit="10" d="M 2334.414062 685.859375 L 2334.414062 498.515625 L 2512.578125 440.625 L 2622.734375 592.148438 L 2512.578125 743.75 L 2334.414062 685.859375 " transform="matrix(0.1, 0, 0, -0.1, 0, 167)"/>
<path fill="none" stroke-width="11.2777" stroke-linecap="round" stroke-linejoin="round" stroke="rgb(0%, 0%, 0%)" stroke-opacity="1" stroke-miterlimit="10" d="M 2147.070312 498.515625 L 2240.78125 336.289062 L 2334.414062 498.515625 L 2147.070312 498.515625 " transform="matrix(0.1, 0, 0, -0.1, 0, 167)"/>
<path fill="none" stroke-width="11.2777" stroke-linecap="round" stroke-linejoin="round" stroke="rgb(0%, 0%, 0%)" stroke-opacity="1" stroke-miterlimit="10" d="M 2334.414062 498.515625 L 2240.78125 336.289062 L 2403.007812 242.578125 L 2496.640625 404.84375 L 2334.414062 498.515625 " transform="matrix(0.1, 0, 0, -0.1, 0, 167)"/>
<path fill="none" stroke-width="11.2777" stroke-linecap="round" stroke-linejoin="round" stroke="rgb(0%, 0%, 0%)" stroke-opacity="1" stroke-miterlimit="10" d="M 1488.945312 1630.234375 L 1310.78125 1572.34375 L 1310.78125 1385 L 1488.945312 1327.109375 L 1599.0625 1478.671875 L 1488.945312 1630.234375 " transform="matrix(0.1, 0, 0, -0.1, 0, 167)"/>
<path fill="none" stroke-width="11.2777" stroke-linecap="round" stroke-linejoin="round" stroke="rgb(0%, 0%, 0%)" stroke-opacity="1" stroke-miterlimit="10" d="M 2240.78125 336.289062 L 2101.5625 210.898438 L 2177.734375 39.765625 L 2364.023438 59.335938 L 2403.007812 242.578125 L 2240.78125 336.289062 " transform="matrix(0.1, 0, 0, -0.1, 0, 167)"/>
</svg>
