<?xml version="1.0" encoding="UTF-8"?>
<svg xmlns="http://www.w3.org/2000/svg" xmlns:xlink="http://www.w3.org/1999/xlink" width="206" height="200" viewBox="0 0 206 200">
<path fill-rule="nonzero" fill="rgb(74.609375%, 55.859375%, 64.256287%)" fill-opacity="1" stroke-width="7.36" stroke-linecap="round" stroke-linejoin="round" stroke="rgb(0%, 0%, 0%)" stroke-opacity="1" stroke-miterlimit="10" d="M 1139.375 1367.03125 L 1000.3125 1015.859375 L 622.695312 1004.921875 " transform="matrix(0.1, 0, 0, -0.1, 0, 200)"/>
<path fill-rule="nonzero" fill="rgb(74.414062%, 63.476562%, 73.826599%)" fill-opacity="1" stroke-width="7.36" stroke-linecap="round" stroke-linejoin="round" stroke="rgb(0%, 0%, 0%)" stroke-opacity="1" stroke-miterlimit="10" d="M 1000.3125 1015.859375 L 1029.804688 635.117188 L 649.140625 619.375 " transform="matrix(0.1, 0, 0, -0.1, 0, 200)"/>
<path fill-rule="nonzero" fill="rgb(74.414062%, 63.476562%, 73.826599%)" fill-opacity="1" stroke-width="7.36" stroke-linecap="round" stroke-linejoin="round" stroke="rgb(0%, 0%, 0%)" stroke-opacity="1" stroke-miterlimit="10" d="M 649.140625 619.375 L 622.695312 1004.921875 L 1000.3125 1015.859375 " transform="matrix(0.1, 0, 0, -0.1, 0, 200)"/>
<path fill-rule="nonzero" fill="rgb(66.014099%, 51.756287%, 67.96875%)" fill-opacity="1" stroke-width="7.36" stroke-linecap="round" stroke-linejoin="round" stroke="rgb(0%, 0%, 0%)" stroke-opacity="1" stroke-miterlimit="10" d="M 1348.046875 858.164062 L 1000.3125 1015.859375 L 1139.375 1367.03125 " transform="matrix(0.1, 0, 0, -0.1, 0, 200)"/>
<path fill-rule="nonzero" fill="rgb(68.75%, 58.201599%, 73.4375%)" fill-opacity="1" d="M 102.980469 136.488281 L 100.03125 98.414062 L 134.804688 114.183594 "/>
<path fill="none" stroke-width="7.36" stroke-linecap="round" stroke-linejoin="round" stroke="rgb(0%, 0%, 0%)" stroke-opacity="1" stroke-miterlimit="10" d="M 1029.804688 635.117188 L 1000.3125 1015.859375 L 1348.046875 858.164062 Z M 1029.804688 635.117188 " transform="matrix(0.1, 0, 0, -0.1, 0, 200)"/>
<path fill-rule="nonzero" fill="rgb(72.65625%, 71.09375%, 83.59375%)" fill-opacity="1" stroke-width="7.36" stroke-linecap="round" stroke-linejoin="round" stroke="rgb(0%, 0%, 0%)" stroke-opacity="1" stroke-miterlimit="10" d="M 1029.804688 635.117188 L 1222.070312 351.367188 L 952.304688 145.546875 " transform="matrix(0.1, 0, 0, -0.1, 0, 200)"/>
<path fill-rule="nonzero" fill="rgb(72.65625%, 71.09375%, 83.59375%)" fill-opacity="1" d="M 64.914062 138.0625 L 102.980469 136.488281 L 95.230469 185.445312 "/>
<path fill="none" stroke-width="7.36" stroke-linecap="round" stroke-linejoin="round" stroke="rgb(0%, 0%, 0%)" stroke-opacity="1" stroke-miterlimit="10" d="M 649.140625 619.375 L 1029.804688 635.117188 " transform="matrix(0.1, 0, 0, -0.1, 0, 200)"/>
<path fill-rule="nonzero" fill="rgb(64.256287%, 59.179688%, 78.125%)" fill-opacity="1" stroke-width="7.36" stroke-linecap="round" stroke-linejoin="round" stroke="rgb(0%, 0%, 0%)" stroke-opacity="1" stroke-miterlimit="10" d="M 1222.070312 351.367188 L 1029.804688 635.117188 L 1348.046875 858.164062 " transform="matrix(0.1, 0, 0, -0.1, 0, 200)"/>
<path fill-rule="nonzero" fill="rgb(54.492188%, 45.800781%, 70.701599%)" fill-opacity="1" stroke-width="7.36" stroke-linecap="round" stroke-linejoin="round" stroke="rgb(0%, 0%, 0%)" stroke-opacity="1" stroke-miterlimit="10" d="M 1549.023438 580.507812 L 1348.046875 858.164062 L 1492.734375 1210.507812 " transform="matrix(0.1, 0, 0, -0.1, 0, 200)"/>
<path fill-rule="nonzero" fill="rgb(66.014099%, 51.756287%, 67.96875%)" fill-opacity="1" stroke-width="7.36" stroke-linecap="round" stroke-linejoin="round" stroke="rgb(0%, 0%, 0%)" stroke-opacity="1" stroke-miterlimit="10" d="M 1139.375 1367.03125 L 1492.734375 1210.507812 L 1348.046875 858.164062 " transform="matrix(0.1, 0, 0, -0.1, 0, 200)"/>
<path fill-rule="nonzero" fill="rgb(64.256287%, 59.179688%, 78.125%)" fill-opacity="1" stroke-width="7.36" stroke-linecap="round" stroke-linejoin="round" stroke="rgb(0%, 0%, 0%)" stroke-opacity="1" stroke-miterlimit="10" d="M 1348.046875 858.164062 L 1549.023438 580.507812 L 1222.070312 351.367188 " transform="matrix(0.1, 0, 0, -0.1, 0, 200)"/>
<path fill-rule="nonzero" fill="rgb(74.609375%, 55.859375%, 64.256287%)" fill-opacity="1" d="M 84.460938 41.550781 L 113.9375 63.296875 L 62.269531 99.507812 "/>
<path fill="none" stroke-width="7.36" stroke-linecap="round" stroke-linejoin="round" stroke="rgb(0%, 0%, 0%)" stroke-opacity="1" stroke-miterlimit="10" d="M 844.609375 1584.492188 L 1139.375 1367.03125 " transform="matrix(0.1, 0, 0, -0.1, 0, 200)"/>
<path fill-rule="nonzero" fill="rgb(74.609375%, 55.859375%, 64.256287%)" fill-opacity="1" stroke-width="7.36" stroke-linecap="round" stroke-linejoin="round" stroke="rgb(0%, 0%, 0%)" stroke-opacity="1" stroke-miterlimit="10" d="M 622.695312 1004.921875 L 518.789062 1356.132812 L 844.609375 1584.492188 " transform="matrix(0.1, 0, 0, -0.1, 0, 200)"/>
<path fill-rule="nonzero" fill="rgb(83.984375%, 66.209412%, 66.209412%)" fill-opacity="1" stroke-width="7.36" stroke-linecap="round" stroke-linejoin="round" stroke="rgb(0%, 0%, 0%)" stroke-opacity="1" stroke-miterlimit="10" d="M 518.789062 1356.132812 L 622.695312 1004.921875 L 341.640625 823.4375 " transform="matrix(0.1, 0, 0, -0.1, 0, 200)"/>
<path fill-rule="nonzero" fill="rgb(80.664062%, 68.943787%, 73.4375%)" fill-opacity="1" d="M 64.914062 138.0625 L 34.164062 117.65625 L 62.269531 99.507812 "/>
<path fill="none" stroke-width="7.36" stroke-linecap="round" stroke-linejoin="round" stroke="rgb(0%, 0%, 0%)" stroke-opacity="1" stroke-miterlimit="10" d="M 649.140625 619.375 L 341.640625 823.4375 L 622.695312 1004.921875 Z M 649.140625 619.375 " transform="matrix(0.1, 0, 0, -0.1, 0, 200)"/>
<path fill-rule="nonzero" fill="rgb(68.359375%, 45.188904%, 56.443787%)" fill-opacity="1" d="M 113.9375 63.296875 L 84.460938 41.550781 L 122.414062 32.5 "/>
<path fill="none" stroke-width="7.36" stroke-linecap="round" stroke-linejoin="round" stroke="rgb(0%, 0%, 0%)" stroke-opacity="1" stroke-miterlimit="10" d="M 1139.375 1367.03125 L 844.609375 1584.492188 L 1224.140625 1675 Z M 1139.375 1367.03125 " transform="matrix(0.1, 0, 0, -0.1, 0, 200)"/>
<path fill-rule="nonzero" fill="rgb(61.131287%, 40.893555%, 58.201599%)" fill-opacity="1" stroke-width="7.36" stroke-linecap="round" stroke-linejoin="round" stroke="rgb(0%, 0%, 0%)" stroke-opacity="1" stroke-miterlimit="10" d="M 1590.039062 1516.132812 L 1492.734375 1210.507812 L 1139.375 1367.03125 " transform="matrix(0.1, 0, 0, -0.1, 0, 200)"/>
<path fill-rule="nonzero" fill="rgb(61.131287%, 40.893555%, 58.201599%)" fill-opacity="1" stroke-width="7.36" stroke-linecap="round" stroke-linejoin="round" stroke="rgb(0%, 0%, 0%)" stroke-opacity="1" stroke-miterlimit="10" d="M 1139.375 1367.03125 L 1224.140625 1675 L 1590.039062 1516.132812 " transform="matrix(0.1, 0, 0, -0.1, 0, 200)"/>
<path fill-rule="nonzero" fill="rgb(83.789062%, 77.734375%, 79.492188%)" fill-opacity="1" stroke-width="7.36" stroke-linecap="round" stroke-linejoin="round" stroke="rgb(0%, 0%, 0%)" stroke-opacity="1" stroke-miterlimit="10" d="M 341.640625 823.4375 L 649.140625 619.375 L 588.046875 319.023438 " transform="matrix(0.1, 0, 0, -0.1, 0, 200)"/>
<path fill-rule="nonzero" fill="rgb(72.65625%, 71.09375%, 83.59375%)" fill-opacity="1" stroke-width="7.36" stroke-linecap="round" stroke-linejoin="round" stroke="rgb(0%, 0%, 0%)" stroke-opacity="1" stroke-miterlimit="10" d="M 952.304688 145.546875 L 588.046875 319.023438 L 649.140625 619.375 " transform="matrix(0.1, 0, 0, -0.1, 0, 200)"/>
<path fill-rule="nonzero" fill="rgb(52.34375%, 35.888672%, 59.959412%)" fill-opacity="1" d="M 149.273438 78.949219 L 159.003906 48.386719 L 179.574219 83.464844 "/>
<path fill="none" stroke-width="7.36" stroke-linecap="round" stroke-linejoin="round" stroke="rgb(0%, 0%, 0%)" stroke-opacity="1" stroke-miterlimit="10" d="M 1492.734375 1210.507812 L 1590.039062 1516.132812 L 1795.742188 1165.351562 Z M 1492.734375 1210.507812 " transform="matrix(0.1, 0, 0, -0.1, 0, 200)"/>
<path fill-rule="nonzero" fill="rgb(54.492188%, 45.800781%, 70.701599%)" fill-opacity="1" d="M 149.273438 78.949219 L 179.574219 83.464844 L 154.902344 141.949219 "/>
<path fill="none" stroke-width="7.36" stroke-linecap="round" stroke-linejoin="round" stroke="rgb(0%, 0%, 0%)" stroke-opacity="1" stroke-miterlimit="10" d="M 1492.734375 1210.507812 L 1795.742188 1165.351562 " transform="matrix(0.1, 0, 0, -0.1, 0, 200)"/>
<path fill-rule="nonzero" fill="rgb(79.6875%, 50.78125%, 49.804688%)" fill-opacity="1" stroke-width="7.36" stroke-linecap="round" stroke-linejoin="round" stroke="rgb(0%, 0%, 0%)" stroke-opacity="1" stroke-miterlimit="10" d="M 706.796875 1796.171875 L 844.609375 1584.492188 L 518.789062 1356.132812 " transform="matrix(0.1, 0, 0, -0.1, 0, 200)"/>
<path fill-rule="nonzero" fill="rgb(79.6875%, 50.78125%, 49.804688%)" fill-opacity="1" stroke-width="7.36" stroke-linecap="round" stroke-linejoin="round" stroke="rgb(0%, 0%, 0%)" stroke-opacity="1" stroke-miterlimit="10" d="M 518.789062 1356.132812 L 366.640625 1557.8125 L 706.796875 1796.171875 " transform="matrix(0.1, 0, 0, -0.1, 0, 200)"/>
<path fill-rule="nonzero" fill="rgb(86.71875%, 61.131287%, 55.076599%)" fill-opacity="1" d="M 22.863281 81.84375 L 36.664062 44.21875 L 51.878906 64.386719 "/>
<path fill="none" stroke-width="7.36" stroke-linecap="round" stroke-linejoin="round" stroke="rgb(0%, 0%, 0%)" stroke-opacity="1" stroke-miterlimit="10" d="M 228.632812 1181.5625 L 366.640625 1557.8125 L 518.789062 1356.132812 Z M 228.632812 1181.5625 " transform="matrix(0.1, 0, 0, -0.1, 0, 200)"/>
<path fill-rule="nonzero" fill="rgb(83.984375%, 66.209412%, 66.209412%)" fill-opacity="1" stroke-width="7.36" stroke-linecap="round" stroke-linejoin="round" stroke="rgb(0%, 0%, 0%)" stroke-opacity="1" stroke-miterlimit="10" d="M 341.640625 823.4375 L 228.632812 1181.5625 L 518.789062 1356.132812 " transform="matrix(0.1, 0, 0, -0.1, 0, 200)"/>
<path fill-rule="nonzero" fill="rgb(68.164062%, 36.009216%, 42.30957%)" fill-opacity="1" stroke-width="7.36" stroke-linecap="round" stroke-linejoin="round" stroke="rgb(0%, 0%, 0%)" stroke-opacity="1" stroke-miterlimit="10" d="M 1101.40625 1893.4375 L 1224.140625 1675 L 844.609375 1584.492188 " transform="matrix(0.1, 0, 0, -0.1, 0, 200)"/>
<path fill-rule="nonzero" fill="rgb(68.164062%, 36.009216%, 42.30957%)" fill-opacity="1" stroke-width="7.36" stroke-linecap="round" stroke-linejoin="round" stroke="rgb(0%, 0%, 0%)" stroke-opacity="1" stroke-miterlimit="10" d="M 844.609375 1584.492188 L 706.796875 1796.171875 L 1101.40625 1893.4375 " transform="matrix(0.1, 0, 0, -0.1, 0, 200)"/>
<path fill-rule="nonzero" fill="rgb(56.834412%, 59.375%, 83.984375%)" fill-opacity="1" d="M 151.980469 172.582031 L 122.207031 164.863281 L 154.902344 141.949219 "/>
<path fill="none" stroke-width="7.36" stroke-linecap="round" stroke-linejoin="round" stroke="rgb(0%, 0%, 0%)" stroke-opacity="1" stroke-miterlimit="10" d="M 1519.804688 274.179688 L 1222.070312 351.367188 L 1549.023438 580.507812 Z M 1519.804688 274.179688 " transform="matrix(0.1, 0, 0, -0.1, 0, 200)"/>
<path fill-rule="nonzero" fill="rgb(57.226562%, 69.139099%, 92.1875%)" fill-opacity="1" stroke-width="7.36" stroke-linecap="round" stroke-linejoin="round" stroke="rgb(0%, 0%, 0%)" stroke-opacity="1" stroke-miterlimit="10" d="M 1222.070312 351.367188 L 1519.804688 274.179688 L 1249.335938 58.125 " transform="matrix(0.1, 0, 0, -0.1, 0, 200)"/>
<path fill-rule="nonzero" fill="rgb(57.226562%, 69.139099%, 92.1875%)" fill-opacity="1" stroke-width="7.36" stroke-linecap="round" stroke-linejoin="round" stroke="rgb(0%, 0%, 0%)" stroke-opacity="1" stroke-miterlimit="10" d="M 1249.335938 58.125 L 952.304688 145.546875 L 1222.070312 351.367188 " transform="matrix(0.1, 0, 0, -0.1, 0, 200)"/>
<path fill-rule="nonzero" fill="rgb(54.492188%, 45.800781%, 70.701599%)" fill-opacity="1" stroke-width="7.36" stroke-linecap="round" stroke-linejoin="round" stroke="rgb(0%, 0%, 0%)" stroke-opacity="1" stroke-miterlimit="10" d="M 1795.742188 1165.351562 L 1834.453125 763.671875 L 1549.023438 580.507812 " transform="matrix(0.1, 0, 0, -0.1, 0, 200)"/>
<path fill-rule="nonzero" fill="rgb(41.50238%, 47.288513%, 81.054688%)" fill-opacity="1" stroke-width="7.36" stroke-linecap="round" stroke-linejoin="round" stroke="rgb(0%, 0%, 0%)" stroke-opacity="1" stroke-miterlimit="10" d="M 1519.804688 274.179688 L 1549.023438 580.507812 L 1834.453125 763.671875 " transform="matrix(0.1, 0, 0, -0.1, 0, 200)"/>
<path fill-rule="nonzero" fill="rgb(96.679688%, 82.8125%, 65.429688%)" fill-opacity="1" stroke-width="7.36" stroke-linecap="round" stroke-linejoin="round" stroke="rgb(0%, 0%, 0%)" stroke-opacity="1" stroke-miterlimit="10" d="M 341.640625 823.4375 L 267.929688 524.21875 L 96.875 697.34375 " transform="matrix(0.1, 0, 0, -0.1, 0, 200)"/>
<path fill-rule="nonzero" fill="rgb(96.679688%, 82.8125%, 65.429688%)" fill-opacity="1" d="M 22.863281 81.84375 L 34.164062 117.65625 L 9.6875 130.265625 "/>
<path fill="none" stroke-width="7.36" stroke-linecap="round" stroke-linejoin="round" stroke="rgb(0%, 0%, 0%)" stroke-opacity="1" stroke-miterlimit="10" d="M 228.632812 1181.5625 L 341.640625 823.4375 " transform="matrix(0.1, 0, 0, -0.1, 0, 200)"/>
<path fill-rule="nonzero" fill="rgb(83.789062%, 77.734375%, 79.492188%)" fill-opacity="1" stroke-width="7.36" stroke-linecap="round" stroke-linejoin="round" stroke="rgb(0%, 0%, 0%)" stroke-opacity="1" stroke-miterlimit="10" d="M 588.046875 319.023438 L 267.929688 524.21875 L 341.640625 823.4375 " transform="matrix(0.1, 0, 0, -0.1, 0, 200)"/>
<path fill-rule="nonzero" fill="rgb(43.60199%, 9.202576%, 28.100586%)" fill-opacity="1" stroke-width="7.36" stroke-linecap="round" stroke-linejoin="round" stroke="rgb(0%, 0%, 0%)" stroke-opacity="1" stroke-miterlimit="10" d="M 1721.835938 1626.71875 L 1590.039062 1516.132812 L 1224.140625 1675 " transform="matrix(0.1, 0, 0, -0.1, 0, 200)"/>
<path fill-rule="nonzero" fill="rgb(43.60199%, 9.202576%, 28.100586%)" fill-opacity="1" d="M 141.113281 12.863281 L 172.183594 37.328125 L 122.414062 32.5 "/>
<path fill="none" stroke-width="7.36" stroke-linecap="round" stroke-linejoin="round" stroke="rgb(0%, 0%, 0%)" stroke-opacity="1" stroke-miterlimit="10" d="M 1411.132812 1871.367188 L 1721.835938 1626.71875 " transform="matrix(0.1, 0, 0, -0.1, 0, 200)"/>
<path fill-rule="nonzero" fill="rgb(43.60199%, 9.202576%, 28.100586%)" fill-opacity="1" stroke-width="7.36" stroke-linecap="round" stroke-linejoin="round" stroke="rgb(0%, 0%, 0%)" stroke-opacity="1" stroke-miterlimit="10" d="M 1224.140625 1675 L 1101.40625 1893.4375 L 1411.132812 1871.367188 " transform="matrix(0.1, 0, 0, -0.1, 0, 200)"/>
<path fill-rule="nonzero" fill="rgb(31.005859%, 11.401367%, 44.40918%)" fill-opacity="1" stroke-width="7.36" stroke-linecap="round" stroke-linejoin="round" stroke="rgb(0%, 0%, 0%)" stroke-opacity="1" stroke-miterlimit="10" d="M 1795.742188 1165.351562 L 1590.039062 1516.132812 L 1721.835938 1626.71875 " transform="matrix(0.1, 0, 0, -0.1, 0, 200)"/>
<path fill-rule="nonzero" fill="rgb(0%, 32.788086%, 78.318787%)" fill-opacity="1" stroke-width="7.36" stroke-linecap="round" stroke-linejoin="round" stroke="rgb(0%, 0%, 0%)" stroke-opacity="1" stroke-miterlimit="10" d="M 1249.335938 58.125 L 1519.804688 274.179688 L 1815.039062 454.53125 " transform="matrix(0.1, 0, 0, -0.1, 0, 200)"/>
<path fill-rule="nonzero" fill="rgb(0%, 32.788086%, 78.318787%)" fill-opacity="1" stroke-width="7.36" stroke-linecap="round" stroke-linejoin="round" stroke="rgb(0%, 0%, 0%)" stroke-opacity="1" stroke-miterlimit="10" d="M 1738.164062 354.101562 L 1369.726562 95.859375 L 1249.335938 58.125 " transform="matrix(0.1, 0, 0, -0.1, 0, 200)"/>
<path fill-rule="nonzero" fill="rgb(0%, 32.788086%, 78.318787%)" fill-opacity="1" d="M 181.503906 154.546875 L 173.816406 164.589844 L 124.933594 194.1875 "/>
<path fill="none" stroke-width="7.36" stroke-linecap="round" stroke-linejoin="round" stroke="rgb(0%, 0%, 0%)" stroke-opacity="1" stroke-miterlimit="10" d="M 1815.039062 454.53125 L 1738.164062 354.101562 " transform="matrix(0.1, 0, 0, -0.1, 0, 200)"/>
<path fill-rule="nonzero" fill="rgb(20.410156%, 0%, 0%)" fill-opacity="1" d="M 58.804688 168.097656 L 95.230469 185.445312 L 136.972656 190.414062 "/>
<path fill="none" stroke-width="7.36" stroke-linecap="round" stroke-linejoin="round" stroke="rgb(0%, 0%, 0%)" stroke-opacity="1" stroke-miterlimit="10" d="M 588.046875 319.023438 L 952.304688 145.546875 " transform="matrix(0.1, 0, 0, -0.1, 0, 200)"/>
<path fill-rule="nonzero" fill="rgb(20.410156%, 0%, 0%)" fill-opacity="1" d="M 26.792969 147.578125 L 58.804688 168.097656 L 136.972656 190.414062 "/>
<path fill="none" stroke-width="7.36" stroke-linecap="round" stroke-linejoin="round" stroke="rgb(0%, 0%, 0%)" stroke-opacity="1" stroke-miterlimit="10" d="M 267.929688 524.21875 L 588.046875 319.023438 " transform="matrix(0.1, 0, 0, -0.1, 0, 200)"/>
<path fill-rule="nonzero" fill="rgb(31.005859%, 11.401367%, 44.40918%)" fill-opacity="1" stroke-width="7.36" stroke-linecap="round" stroke-linejoin="round" stroke="rgb(0%, 0%, 0%)" stroke-opacity="1" stroke-miterlimit="10" d="M 1721.835938 1626.71875 L 1938.4375 1258.203125 L 1795.742188 1165.351562 " transform="matrix(0.1, 0, 0, -0.1, 0, 200)"/>
<path fill-rule="nonzero" fill="rgb(19.798279%, 15.209961%, 57.617188%)" fill-opacity="1" stroke-width="7.36" stroke-linecap="round" stroke-linejoin="round" stroke="rgb(0%, 0%, 0%)" stroke-opacity="1" stroke-miterlimit="10" d="M 1834.453125 763.671875 L 1795.742188 1165.351562 L 1938.4375 1258.203125 " transform="matrix(0.1, 0, 0, -0.1, 0, 200)"/>
<path fill-rule="nonzero" fill="rgb(95.506287%, 62.693787%, 35.693359%)" fill-opacity="1" stroke-width="7.36" stroke-linecap="round" stroke-linejoin="round" stroke="rgb(0%, 0%, 0%)" stroke-opacity="1" stroke-miterlimit="10" d="M 366.640625 1557.8125 L 228.632812 1181.5625 L 73.007812 1122.851562 " transform="matrix(0.1, 0, 0, -0.1, 0, 200)"/>
<path fill-rule="nonzero" fill="rgb(96.679688%, 82.8125%, 65.429688%)" fill-opacity="1" stroke-width="7.36" stroke-linecap="round" stroke-linejoin="round" stroke="rgb(0%, 0%, 0%)" stroke-opacity="1" stroke-miterlimit="10" d="M 96.875 697.34375 L 73.007812 1122.851562 L 228.632812 1181.5625 " transform="matrix(0.1, 0, 0, -0.1, 0, 200)"/>
<path fill-rule="nonzero" fill="rgb(20.410156%, 0%, 0%)" fill-opacity="1" stroke-width="7.36" stroke-linecap="round" stroke-linejoin="round" stroke="rgb(0%, 0%, 0%)" stroke-opacity="1" stroke-miterlimit="10" d="M 952.304688 145.546875 L 1249.335938 58.125 L 1369.726562 95.859375 " transform="matrix(0.1, 0, 0, -0.1, 0, 200)"/>
<path fill-rule="nonzero" fill="rgb(19.798279%, 15.209961%, 57.617188%)" fill-opacity="1" stroke-width="7.36" stroke-linecap="round" stroke-linejoin="round" stroke="rgb(0%, 0%, 0%)" stroke-opacity="1" stroke-miterlimit="10" d="M 1938.4375 1258.203125 L 1980.585938 836.601562 L 1834.453125 763.671875 " transform="matrix(0.1, 0, 0, -0.1, 0, 200)"/>
<path fill-rule="nonzero" fill="rgb(10.009766%, 20.506287%, 68.75%)" fill-opacity="1" d="M 181.503906 154.546875 L 183.445312 123.632812 L 198.058594 116.339844 "/>
<path fill="none" stroke-width="7.36" stroke-linecap="round" stroke-linejoin="round" stroke="rgb(0%, 0%, 0%)" stroke-opacity="1" stroke-miterlimit="10" d="M 1815.039062 454.53125 L 1834.453125 763.671875 L 1980.585938 836.601562 Z M 1815.039062 454.53125 " transform="matrix(0.1, 0, 0, -0.1, 0, 200)"/>
<path fill-rule="nonzero" fill="rgb(41.50238%, 47.288513%, 81.054688%)" fill-opacity="1" stroke-width="7.36" stroke-linecap="round" stroke-linejoin="round" stroke="rgb(0%, 0%, 0%)" stroke-opacity="1" stroke-miterlimit="10" d="M 1834.453125 763.671875 L 1815.039062 454.53125 L 1519.804688 274.179688 " transform="matrix(0.1, 0, 0, -0.1, 0, 200)"/>
<path fill-rule="nonzero" fill="rgb(69.139099%, 14.793396%, 0%)" fill-opacity="1" stroke-width="7.36" stroke-linecap="round" stroke-linejoin="round" stroke="rgb(0%, 0%, 0%)" stroke-opacity="1" stroke-miterlimit="10" d="M 706.796875 1796.171875 L 366.640625 1557.8125 L 216.09375 1518.007812 " transform="matrix(0.1, 0, 0, -0.1, 0, 200)"/>
<path fill-rule="nonzero" fill="rgb(95.506287%, 62.693787%, 35.693359%)" fill-opacity="1" stroke-width="7.36" stroke-linecap="round" stroke-linejoin="round" stroke="rgb(0%, 0%, 0%)" stroke-opacity="1" stroke-miterlimit="10" d="M 73.007812 1122.851562 L 216.09375 1518.007812 L 366.640625 1557.8125 " transform="matrix(0.1, 0, 0, -0.1, 0, 200)"/>
<path fill-rule="nonzero" fill="rgb(69.139099%, 14.793396%, 0%)" fill-opacity="1" d="M 79.53125 7.605469 L 70.679688 20.382812 L 21.609375 48.199219 "/>
<path fill="none" stroke-width="7.36" stroke-linecap="round" stroke-linejoin="round" stroke="rgb(0%, 0%, 0%)" stroke-opacity="1" stroke-miterlimit="10" d="M 795.3125 1923.945312 L 706.796875 1796.171875 " transform="matrix(0.1, 0, 0, -0.1, 0, 200)"/>
<path fill-rule="nonzero" fill="rgb(60.546875%, 11.206055%, 5.499268%)" fill-opacity="1" d="M 70.679688 20.382812 L 79.53125 7.605469 L 110.140625 10.65625 "/>
<path fill="none" stroke-width="7.36" stroke-linecap="round" stroke-linejoin="round" stroke="rgb(0%, 0%, 0%)" stroke-opacity="1" stroke-miterlimit="10" d="M 706.796875 1796.171875 L 795.3125 1923.945312 L 1101.40625 1893.4375 Z M 706.796875 1796.171875 " transform="matrix(0.1, 0, 0, -0.1, 0, 200)"/>
<path fill-rule="nonzero" fill="rgb(20.410156%, 0%, 0%)" fill-opacity="1" d="M 9.6875 130.265625 L 26.792969 147.578125 L 136.972656 190.414062 "/>
<path fill="none" stroke-width="7.36" stroke-linecap="round" stroke-linejoin="round" stroke="rgb(0%, 0%, 0%)" stroke-opacity="1" stroke-miterlimit="10" d="M 96.875 697.34375 L 267.929688 524.21875 " transform="matrix(0.1, 0, 0, -0.1, 0, 200)"/>
<path fill-rule="nonzero" fill="rgb(0%, 0%, 0%)" fill-opacity="1" stroke-width="7.36" stroke-linecap="round" stroke-linejoin="round" stroke="rgb(0%, 0%, 0%)" stroke-opacity="1" stroke-miterlimit="10" d="M 1105.351562 1902.1875 L 1411.132812 1871.367188 L 1101.40625 1893.4375 " transform="matrix(0.1, 0, 0, -0.1, 0, 200)"/>
<path fill-rule="nonzero" fill="rgb(0%, 0%, 0%)" fill-opacity="1" stroke-width="7.36" stroke-linecap="round" stroke-linejoin="round" stroke="rgb(0%, 0%, 0%)" stroke-opacity="1" stroke-miterlimit="10" d="M 1101.40625 1893.4375 L 795.3125 1923.945312 L 1105.351562 1902.1875 " transform="matrix(0.1, 0, 0, -0.1, 0, 200)"/>
<path fill-rule="nonzero" fill="rgb(80.46875%, 42.700195%, 0%)" fill-opacity="1" stroke-width="7.36" stroke-linecap="round" stroke-linejoin="round" stroke="rgb(0%, 0%, 0%)" stroke-opacity="1" stroke-miterlimit="10" d="M 1911.640625 755.585938 L 1738.164062 354.101562 L 1815.039062 454.53125 " transform="matrix(0.1, 0, 0, -0.1, 0, 200)"/>
<path fill-rule="nonzero" fill="rgb(80.46875%, 42.700195%, 0%)" fill-opacity="1" stroke-width="7.36" stroke-linecap="round" stroke-linejoin="round" stroke="rgb(0%, 0%, 0%)" stroke-opacity="1" stroke-miterlimit="10" d="M 1815.039062 454.53125 L 1980.585938 836.601562 L 1911.640625 755.585938 " transform="matrix(0.1, 0, 0, -0.1, 0, 200)"/>
<path fill-rule="nonzero" fill="rgb(0%, 0%, 0%)" fill-opacity="1" d="M 193.84375 74.179688 L 172.183594 37.328125 L 184.144531 52.851562 "/>
<path fill="none" stroke-width="7.36" stroke-linecap="round" stroke-linejoin="round" stroke="rgb(0%, 0%, 0%)" stroke-opacity="1" stroke-miterlimit="10" d="M 1938.4375 1258.203125 L 1721.835938 1626.71875 L 1841.445312 1471.484375 Z M 1938.4375 1258.203125 " transform="matrix(0.1, 0, 0, -0.1, 0, 200)"/>
<path fill-rule="nonzero" fill="rgb(69.139099%, 97.068787%, 75.976562%)" fill-opacity="1" stroke-width="7.36" stroke-linecap="round" stroke-linejoin="round" stroke="rgb(0%, 0%, 0%)" stroke-opacity="1" stroke-miterlimit="10" d="M 1517.578125 1725.039062 L 1841.445312 1471.484375 L 1721.835938 1626.71875 " transform="matrix(0.1, 0, 0, -0.1, 0, 200)"/>
<path fill-rule="nonzero" fill="rgb(69.139099%, 97.068787%, 75.976562%)" fill-opacity="1" stroke-width="7.36" stroke-linecap="round" stroke-linejoin="round" stroke="rgb(0%, 0%, 0%)" stroke-opacity="1" stroke-miterlimit="10" d="M 1721.835938 1626.71875 L 1411.132812 1871.367188 L 1517.578125 1725.039062 " transform="matrix(0.1, 0, 0, -0.1, 0, 200)"/>
<path fill-rule="nonzero" fill="rgb(98.242188%, 86.326599%, 49.09668%)" fill-opacity="1" stroke-width="7.36" stroke-linecap="round" stroke-linejoin="round" stroke="rgb(0%, 0%, 0%)" stroke-opacity="1" stroke-miterlimit="10" d="M 1980.585938 836.601562 L 1938.4375 1258.203125 L 1841.445312 1471.484375 " transform="matrix(0.1, 0, 0, -0.1, 0, 200)"/>
<path fill-rule="nonzero" fill="rgb(0%, 0%, 37.304688%)" fill-opacity="1" d="M 13.058594 78.097656 L 21.609375 48.199219 L 7.300781 87.714844 "/>
<path fill="none" stroke-width="7.36" stroke-linecap="round" stroke-linejoin="round" stroke="rgb(0%, 0%, 0%)" stroke-opacity="1" stroke-miterlimit="10" d="M 130.585938 1219.023438 L 216.09375 1518.007812 L 73.007812 1122.851562 Z M 130.585938 1219.023438 " transform="matrix(0.1, 0, 0, -0.1, 0, 200)"/>
<path fill-rule="nonzero" fill="rgb(0%, 0%, 32.592773%)" fill-opacity="1" stroke-width="7.36" stroke-linecap="round" stroke-linejoin="round" stroke="rgb(0%, 0%, 0%)" stroke-opacity="1" stroke-miterlimit="10" d="M 73.007812 1122.851562 L 96.875 697.34375 L 156.289062 771.09375 " transform="matrix(0.1, 0, 0, -0.1, 0, 200)"/>
<path fill-rule="nonzero" fill="rgb(0%, 0%, 32.592773%)" fill-opacity="1" stroke-width="7.36" stroke-linecap="round" stroke-linejoin="round" stroke="rgb(0%, 0%, 0%)" stroke-opacity="1" stroke-miterlimit="10" d="M 156.289062 771.09375 L 130.585938 1219.023438 L 73.007812 1122.851562 " transform="matrix(0.1, 0, 0, -0.1, 0, 200)"/>
<path fill-rule="nonzero" fill="rgb(98.242188%, 86.326599%, 49.09668%)" fill-opacity="1" stroke-width="7.36" stroke-linecap="round" stroke-linejoin="round" stroke="rgb(0%, 0%, 0%)" stroke-opacity="1" stroke-miterlimit="10" d="M 1820.46875 1162.1875 L 1911.640625 755.585938 L 1980.585938 836.601562 " transform="matrix(0.1, 0, 0, -0.1, 0, 200)"/>
<path fill-rule="nonzero" fill="rgb(98.242188%, 86.326599%, 49.09668%)" fill-opacity="1" d="M 184.144531 52.851562 L 182.046875 83.78125 L 198.058594 116.339844 "/>
<path fill="none" stroke-width="7.36" stroke-linecap="round" stroke-linejoin="round" stroke="rgb(0%, 0%, 0%)" stroke-opacity="1" stroke-miterlimit="10" d="M 1841.445312 1471.484375 L 1820.46875 1162.1875 " transform="matrix(0.1, 0, 0, -0.1, 0, 200)"/>
<path fill-rule="nonzero" fill="rgb(20.410156%, 0%, 0%)" fill-opacity="1" d="M 15.628906 122.890625 L 9.6875 130.265625 L 136.972656 190.414062 "/>
<path fill="none" stroke-width="7.36" stroke-linecap="round" stroke-linejoin="round" stroke="rgb(0%, 0%, 0%)" stroke-opacity="1" stroke-miterlimit="10" d="M 156.289062 771.09375 L 96.875 697.34375 " transform="matrix(0.1, 0, 0, -0.1, 0, 200)"/>
<path fill-rule="nonzero" fill="rgb(66.992188%, 93.554688%, 96.679688%)" fill-opacity="1" d="M 141.113281 12.863281 L 110.535156 9.78125 L 151.757812 27.496094 "/>
<path fill="none" stroke-width="7.36" stroke-linecap="round" stroke-linejoin="round" stroke="rgb(0%, 0%, 0%)" stroke-opacity="1" stroke-miterlimit="10" d="M 1411.132812 1871.367188 L 1105.351562 1902.1875 L 1517.578125 1725.039062 Z M 1411.132812 1871.367188 " transform="matrix(0.1, 0, 0, -0.1, 0, 200)"/>
<path fill-rule="nonzero" fill="rgb(69.139099%, 14.793396%, 0%)" fill-opacity="1" stroke-width="7.36" stroke-linecap="round" stroke-linejoin="round" stroke="rgb(0%, 0%, 0%)" stroke-opacity="1" stroke-miterlimit="10" d="M 216.09375 1518.007812 L 484.84375 1750.507812 L 795.3125 1923.945312 " transform="matrix(0.1, 0, 0, -0.1, 0, 200)"/>
<path fill-rule="nonzero" fill="rgb(19.700623%, 36.69281%, 80.859375%)" fill-opacity="1" stroke-width="7.36" stroke-linecap="round" stroke-linejoin="round" stroke="rgb(0%, 0%, 0%)" stroke-opacity="1" stroke-miterlimit="10" d="M 216.09375 1518.007812 L 130.585938 1219.023438 L 407.5 1450.78125 " transform="matrix(0.1, 0, 0, -0.1, 0, 200)"/>
<path fill-rule="nonzero" fill="rgb(19.700623%, 36.69281%, 80.859375%)" fill-opacity="1" stroke-width="7.36" stroke-linecap="round" stroke-linejoin="round" stroke="rgb(0%, 0%, 0%)" stroke-opacity="1" stroke-miterlimit="10" d="M 407.5 1450.78125 L 484.84375 1750.507812 L 216.09375 1518.007812 " transform="matrix(0.1, 0, 0, -0.1, 0, 200)"/>
<path fill-rule="nonzero" fill="rgb(43.992615%, 70.3125%, 97.851562%)" fill-opacity="1" stroke-width="7.36" stroke-linecap="round" stroke-linejoin="round" stroke="rgb(0%, 0%, 0%)" stroke-opacity="1" stroke-miterlimit="10" d="M 1105.351562 1902.1875 L 795.3125 1923.945312 L 484.84375 1750.507812 " transform="matrix(0.1, 0, 0, -0.1, 0, 200)"/>
<path fill-rule="nonzero" fill="rgb(87.693787%, 84.959412%, 81.443787%)" fill-opacity="1" stroke-width="7.36" stroke-linecap="round" stroke-linejoin="round" stroke="rgb(0%, 0%, 0%)" stroke-opacity="1" stroke-miterlimit="10" d="M 1482.421875 1418.90625 L 1820.46875 1162.1875 L 1841.445312 1471.484375 " transform="matrix(0.1, 0, 0, -0.1, 0, 200)"/>
<path fill-rule="nonzero" fill="rgb(87.693787%, 84.959412%, 81.443787%)" fill-opacity="1" stroke-width="7.36" stroke-linecap="round" stroke-linejoin="round" stroke="rgb(0%, 0%, 0%)" stroke-opacity="1" stroke-miterlimit="10" d="M 1841.445312 1471.484375 L 1517.578125 1725.039062 L 1482.421875 1418.90625 " transform="matrix(0.1, 0, 0, -0.1, 0, 200)"/>
<path fill-rule="nonzero" fill="rgb(20.410156%, 0%, 0%)" fill-opacity="1" d="M 45.582031 130.050781 L 15.628906 122.890625 L 136.972656 190.414062 "/>
<path fill="none" stroke-width="7.36" stroke-linecap="round" stroke-linejoin="round" stroke="rgb(0%, 0%, 0%)" stroke-opacity="1" stroke-miterlimit="10" d="M 455.820312 699.492188 L 156.289062 771.09375 " transform="matrix(0.1, 0, 0, -0.1, 0, 200)"/>
<path fill-rule="nonzero" fill="rgb(20.410156%, 0%, 0%)" fill-opacity="1" d="M 88.296875 150.050781 L 45.582031 130.050781 L 136.972656 190.414062 "/>
<path fill="none" stroke-width="7.36" stroke-linecap="round" stroke-linejoin="round" stroke="rgb(0%, 0%, 0%)" stroke-opacity="1" stroke-miterlimit="10" d="M 882.96875 499.492188 L 455.820312 699.492188 " transform="matrix(0.1, 0, 0, -0.1, 0, 200)"/>
<path fill-rule="nonzero" fill="rgb(20.410156%, 0%, 0%)" fill-opacity="1" stroke-width="7.36" stroke-linecap="round" stroke-linejoin="round" stroke="rgb(0%, 0%, 0%)" stroke-opacity="1" stroke-miterlimit="10" d="M 1369.726562 95.859375 L 1239.179688 262.304688 L 882.96875 499.492188 " transform="matrix(0.1, 0, 0, -0.1, 0, 200)"/>
<path fill-rule="nonzero" fill="rgb(81.25%, 45.605469%, 37.988281%)" fill-opacity="1" stroke-width="7.36" stroke-linecap="round" stroke-linejoin="round" stroke="rgb(0%, 0%, 0%)" stroke-opacity="1" stroke-miterlimit="10" d="M 1239.179688 262.304688 L 1369.726562 95.859375 L 1738.164062 354.101562 " transform="matrix(0.1, 0, 0, -0.1, 0, 200)"/>
<path fill-rule="nonzero" fill="rgb(81.25%, 45.605469%, 37.988281%)" fill-opacity="1" stroke-width="7.36" stroke-linecap="round" stroke-linejoin="round" stroke="rgb(0%, 0%, 0%)" stroke-opacity="1" stroke-miterlimit="10" d="M 1738.164062 354.101562 L 1626.054688 533.398438 L 1239.179688 262.304688 " transform="matrix(0.1, 0, 0, -0.1, 0, 200)"/>
<path fill-rule="nonzero" fill="rgb(91.40625%, 60.351562%, 44.50531%)" fill-opacity="1" d="M 173.816406 164.589844 L 191.164062 124.441406 L 162.605469 146.660156 "/>
<path fill="none" stroke-width="7.36" stroke-linecap="round" stroke-linejoin="round" stroke="rgb(0%, 0%, 0%)" stroke-opacity="1" stroke-miterlimit="10" d="M 1738.164062 354.101562 L 1911.640625 755.585938 L 1626.054688 533.398438 Z M 1738.164062 354.101562 " transform="matrix(0.1, 0, 0, -0.1, 0, 200)"/>
<path fill-rule="nonzero" fill="rgb(48.901367%, 58.59375%, 87.889099%)" fill-opacity="1" d="M 79.28125 27.917969 L 48.484375 24.949219 L 40.75 54.921875 "/>
<path fill="none" stroke-width="7.36" stroke-linecap="round" stroke-linejoin="round" stroke="rgb(0%, 0%, 0%)" stroke-opacity="1" stroke-miterlimit="10" d="M 792.8125 1720.820312 L 484.84375 1750.507812 L 407.5 1450.78125 Z M 792.8125 1720.820312 " transform="matrix(0.1, 0, 0, -0.1, 0, 200)"/>
<path fill-rule="nonzero" fill="rgb(43.992615%, 70.3125%, 97.851562%)" fill-opacity="1" stroke-width="7.36" stroke-linecap="round" stroke-linejoin="round" stroke="rgb(0%, 0%, 0%)" stroke-opacity="1" stroke-miterlimit="10" d="M 484.84375 1750.507812 L 792.8125 1720.820312 L 1105.351562 1902.1875 " transform="matrix(0.1, 0, 0, -0.1, 0, 200)"/>
<path fill-rule="nonzero" fill="rgb(48.094177%, 41.088867%, 70.117188%)" fill-opacity="1" d="M 13.058594 78.097656 L 15.628906 122.890625 L 62.082031 86.753906 "/>
<path fill="none" stroke-width="7.36" stroke-linecap="round" stroke-linejoin="round" stroke="rgb(0%, 0%, 0%)" stroke-opacity="1" stroke-miterlimit="10" d="M 130.585938 1219.023438 L 156.289062 771.09375 " transform="matrix(0.1, 0, 0, -0.1, 0, 200)"/>
<path fill-rule="nonzero" fill="rgb(48.094177%, 41.088867%, 70.117188%)" fill-opacity="1" stroke-width="7.36" stroke-linecap="round" stroke-linejoin="round" stroke="rgb(0%, 0%, 0%)" stroke-opacity="1" stroke-miterlimit="10" d="M 620.820312 1132.460938 L 407.5 1450.78125 L 130.585938 1219.023438 " transform="matrix(0.1, 0, 0, -0.1, 0, 200)"/>
<path fill-rule="nonzero" fill="rgb(72.459412%, 75%, 87.109375%)" fill-opacity="1" stroke-width="7.36" stroke-linecap="round" stroke-linejoin="round" stroke="rgb(0%, 0%, 0%)" stroke-opacity="1" stroke-miterlimit="10" d="M 1517.578125 1725.039062 L 1105.351562 1902.1875 L 792.8125 1720.820312 " transform="matrix(0.1, 0, 0, -0.1, 0, 200)"/>
<path fill-rule="nonzero" fill="rgb(88.084412%, 68.75%, 63.867188%)" fill-opacity="1" stroke-width="7.36" stroke-linecap="round" stroke-linejoin="round" stroke="rgb(0%, 0%, 0%)" stroke-opacity="1" stroke-miterlimit="10" d="M 1524.53125 949.0625 L 1626.054688 533.398438 L 1911.640625 755.585938 " transform="matrix(0.1, 0, 0, -0.1, 0, 200)"/>
<path fill-rule="nonzero" fill="rgb(88.084412%, 68.75%, 63.867188%)" fill-opacity="1" stroke-width="7.36" stroke-linecap="round" stroke-linejoin="round" stroke="rgb(0%, 0%, 0%)" stroke-opacity="1" stroke-miterlimit="10" d="M 1911.640625 755.585938 L 1820.46875 1162.1875 L 1524.53125 949.0625 " transform="matrix(0.1, 0, 0, -0.1, 0, 200)"/>
<path fill-rule="nonzero" fill="rgb(48.094177%, 41.088867%, 70.117188%)" fill-opacity="1" stroke-width="7.36" stroke-linecap="round" stroke-linejoin="round" stroke="rgb(0%, 0%, 0%)" stroke-opacity="1" stroke-miterlimit="10" d="M 156.289062 771.09375 L 455.820312 699.492188 L 620.820312 1132.460938 " transform="matrix(0.1, 0, 0, -0.1, 0, 200)"/>
<path fill-rule="nonzero" fill="rgb(72.459412%, 75%, 87.109375%)" fill-opacity="1" stroke-width="7.36" stroke-linecap="round" stroke-linejoin="round" stroke="rgb(0%, 0%, 0%)" stroke-opacity="1" stroke-miterlimit="10" d="M 1018.984375 1411.484375 L 1482.421875 1418.90625 L 1517.578125 1725.039062 " transform="matrix(0.1, 0, 0, -0.1, 0, 200)"/>
<path fill-rule="nonzero" fill="rgb(72.459412%, 75%, 87.109375%)" fill-opacity="1" d="M 79.28125 27.917969 L 101.898438 58.851562 L 151.757812 27.496094 "/>
<path fill="none" stroke-width="7.36" stroke-linecap="round" stroke-linejoin="round" stroke="rgb(0%, 0%, 0%)" stroke-opacity="1" stroke-miterlimit="10" d="M 792.8125 1720.820312 L 1018.984375 1411.484375 " transform="matrix(0.1, 0, 0, -0.1, 0, 200)"/>
<path fill-rule="nonzero" fill="rgb(83.59375%, 72.264099%, 73.826599%)" fill-opacity="1" d="M 182.046875 83.78125 L 148.242188 58.109375 L 152.453125 105.09375 "/>
<path fill="none" stroke-width="7.36" stroke-linecap="round" stroke-linejoin="round" stroke="rgb(0%, 0%, 0%)" stroke-opacity="1" stroke-miterlimit="10" d="M 1820.46875 1162.1875 L 1482.421875 1418.90625 L 1524.53125 949.0625 Z M 1820.46875 1162.1875 " transform="matrix(0.1, 0, 0, -0.1, 0, 200)"/>
<path fill-rule="nonzero" fill="rgb(61.914062%, 59.375%, 80.271912%)" fill-opacity="1" stroke-width="7.36" stroke-linecap="round" stroke-linejoin="round" stroke="rgb(0%, 0%, 0%)" stroke-opacity="1" stroke-miterlimit="10" d="M 407.5 1450.78125 L 620.820312 1132.460938 L 1018.984375 1411.484375 " transform="matrix(0.1, 0, 0, -0.1, 0, 200)"/>
<path fill-rule="nonzero" fill="rgb(61.914062%, 59.375%, 80.271912%)" fill-opacity="1" stroke-width="7.36" stroke-linecap="round" stroke-linejoin="round" stroke="rgb(0%, 0%, 0%)" stroke-opacity="1" stroke-miterlimit="10" d="M 1018.984375 1411.484375 L 792.8125 1720.820312 L 407.5 1450.78125 " transform="matrix(0.1, 0, 0, -0.1, 0, 200)"/>
<path fill-rule="nonzero" fill="rgb(75.584412%, 55.271912%, 62.304688%)" fill-opacity="1" stroke-width="7.36" stroke-linecap="round" stroke-linejoin="round" stroke="rgb(0%, 0%, 0%)" stroke-opacity="1" stroke-miterlimit="10" d="M 882.96875 499.492188 L 1239.179688 262.304688 L 1626.054688 533.398438 " transform="matrix(0.1, 0, 0, -0.1, 0, 200)"/>
<path fill-rule="nonzero" fill="rgb(75.584412%, 55.271912%, 62.304688%)" fill-opacity="1" d="M 105.652344 106.574219 L 88.296875 150.050781 L 162.605469 146.660156 "/>
<path fill="none" stroke-width="7.36" stroke-linecap="round" stroke-linejoin="round" stroke="rgb(0%, 0%, 0%)" stroke-opacity="1" stroke-miterlimit="10" d="M 1056.523438 934.257812 L 882.96875 499.492188 " transform="matrix(0.1, 0, 0, -0.1, 0, 200)"/>
<path fill-rule="nonzero" fill="rgb(75.584412%, 55.271912%, 62.304688%)" fill-opacity="1" stroke-width="7.36" stroke-linecap="round" stroke-linejoin="round" stroke="rgb(0%, 0%, 0%)" stroke-opacity="1" stroke-miterlimit="10" d="M 1626.054688 533.398438 L 1524.53125 949.0625 L 1056.523438 934.257812 " transform="matrix(0.1, 0, 0, -0.1, 0, 200)"/>
<path fill-rule="nonzero" fill="rgb(64.84375%, 50.193787%, 66.992188%)" fill-opacity="1" stroke-width="7.36" stroke-linecap="round" stroke-linejoin="round" stroke="rgb(0%, 0%, 0%)" stroke-opacity="1" stroke-miterlimit="10" d="M 455.820312 699.492188 L 882.96875 499.492188 L 1056.523438 934.257812 " transform="matrix(0.1, 0, 0, -0.1, 0, 200)"/>
<path fill-rule="nonzero" fill="rgb(64.84375%, 50.193787%, 66.992188%)" fill-opacity="1" stroke-width="7.36" stroke-linecap="round" stroke-linejoin="round" stroke="rgb(0%, 0%, 0%)" stroke-opacity="1" stroke-miterlimit="10" d="M 1056.523438 934.257812 L 620.820312 1132.460938 L 455.820312 699.492188 " transform="matrix(0.1, 0, 0, -0.1, 0, 200)"/>
<path fill-rule="nonzero" fill="rgb(75.584412%, 65.039062%, 74.414062%)" fill-opacity="1" stroke-width="7.36" stroke-linecap="round" stroke-linejoin="round" stroke="rgb(0%, 0%, 0%)" stroke-opacity="1" stroke-miterlimit="10" d="M 1524.53125 949.0625 L 1482.421875 1418.90625 L 1018.984375 1411.484375 " transform="matrix(0.1, 0, 0, -0.1, 0, 200)"/>
<path fill-rule="nonzero" fill="rgb(75.584412%, 65.039062%, 74.414062%)" fill-opacity="1" stroke-width="7.36" stroke-linecap="round" stroke-linejoin="round" stroke="rgb(0%, 0%, 0%)" stroke-opacity="1" stroke-miterlimit="10" d="M 1018.984375 1411.484375 L 1056.523438 934.257812 L 1524.53125 949.0625 " transform="matrix(0.1, 0, 0, -0.1, 0, 200)"/>
<path fill-rule="nonzero" fill="rgb(68.164062%, 58.59375%, 74.021912%)" fill-opacity="1" d="M 105.652344 106.574219 L 101.898438 58.851562 L 62.082031 86.753906 "/>
<path fill="none" stroke-width="7.36" stroke-linecap="round" stroke-linejoin="round" stroke="rgb(0%, 0%, 0%)" stroke-opacity="1" stroke-miterlimit="10" d="M 1056.523438 934.257812 L 1018.984375 1411.484375 L 620.820312 1132.460938 Z M 1056.523438 934.257812 " transform="matrix(0.1, 0, 0, -0.1, 0, 200)"/>
</svg>
