<?xml version="1.0" encoding="UTF-8"?>
<svg xmlns="http://www.w3.org/2000/svg" xmlns:xlink="http://www.w3.org/1999/xlink" width="206" height="200" viewBox="0 0 206 200">
<path fill-rule="nonzero" fill="rgb(74.021912%, 55.859375%, 64.84375%)" fill-opacity="1" stroke-width="7.36" stroke-linecap="round" stroke-linejoin="round" stroke="rgb(0%, 0%, 0%)" stroke-opacity="1" stroke-miterlimit="10" d="M 1169.140625 1266.445312 L 1020.585938 924.726562 L 648.007812 931.367188 " transform="matrix(0.1, 0, 0, -0.1, 0, 200)"/>
<path fill-rule="nonzero" fill="rgb(65.625%, 52.146912%, 68.75%)" fill-opacity="1" stroke-width="7.36" stroke-linecap="round" stroke-linejoin="round" stroke="rgb(0%, 0%, 0%)" stroke-opacity="1" stroke-miterlimit="10" d="M 1355.3125 758.125 L 1020.585938 924.726562 L 1169.140625 1266.445312 " transform="matrix(0.1, 0, 0, -0.1, 0, 200)"/>
<path fill-rule="nonzero" fill="rgb(69.139099%, 60.546875%, 75.584412%)" fill-opacity="1" stroke-width="7.36" stroke-linecap="round" stroke-linejoin="round" stroke="rgb(0%, 0%, 0%)" stroke-opacity="1" stroke-miterlimit="10" d="M 837.890625 598.867188 L 1020.585938 924.726562 L 1355.3125 758.125 " transform="matrix(0.1, 0, 0, -0.1, 0, 200)"/>
<path fill-rule="nonzero" fill="rgb(74.414062%, 62.304688%, 72.65625%)" fill-opacity="1" d="M 64.800781 106.863281 L 102.058594 107.527344 L 83.789062 140.113281 "/>
<path fill="none" stroke-width="7.36" stroke-linecap="round" stroke-linejoin="round" stroke="rgb(0%, 0%, 0%)" stroke-opacity="1" stroke-miterlimit="10" d="M 648.007812 931.367188 L 1020.585938 924.726562 L 837.890625 598.867188 Z M 648.007812 931.367188 " transform="matrix(0.1, 0, 0, -0.1, 0, 200)"/>
<path fill-rule="nonzero" fill="rgb(65.625%, 52.146912%, 68.75%)" fill-opacity="1" stroke-width="7.36" stroke-linecap="round" stroke-linejoin="round" stroke="rgb(0%, 0%, 0%)" stroke-opacity="1" stroke-miterlimit="10" d="M 1169.140625 1266.445312 L 1508.867188 1101.601562 L 1355.3125 758.125 " transform="matrix(0.1, 0, 0, -0.1, 0, 200)"/>
<path fill-rule="nonzero" fill="rgb(62.304688%, 57.617188%, 78.125%)" fill-opacity="1" d="M 117.429688 157.28125 L 135.53125 124.1875 L 153.855469 151.664062 "/>
<path fill="none" stroke-width="7.36" stroke-linecap="round" stroke-linejoin="round" stroke="rgb(0%, 0%, 0%)" stroke-opacity="1" stroke-miterlimit="10" d="M 1174.296875 427.1875 L 1355.3125 758.125 L 1538.554688 483.359375 Z M 1174.296875 427.1875 " transform="matrix(0.1, 0, 0, -0.1, 0, 200)"/>
<path fill-rule="nonzero" fill="rgb(53.709412%, 46.18988%, 71.875%)" fill-opacity="1" stroke-width="7.36" stroke-linecap="round" stroke-linejoin="round" stroke="rgb(0%, 0%, 0%)" stroke-opacity="1" stroke-miterlimit="10" d="M 1538.554688 483.359375 L 1355.3125 758.125 L 1508.867188 1101.601562 " transform="matrix(0.1, 0, 0, -0.1, 0, 200)"/>
<path fill-rule="nonzero" fill="rgb(69.139099%, 60.546875%, 75.584412%)" fill-opacity="1" stroke-width="7.36" stroke-linecap="round" stroke-linejoin="round" stroke="rgb(0%, 0%, 0%)" stroke-opacity="1" stroke-miterlimit="10" d="M 1355.3125 758.125 L 1174.296875 427.1875 L 837.890625 598.867188 " transform="matrix(0.1, 0, 0, -0.1, 0, 200)"/>
<path fill-rule="nonzero" fill="rgb(74.021912%, 55.859375%, 64.84375%)" fill-opacity="1" stroke-width="7.36" stroke-linecap="round" stroke-linejoin="round" stroke="rgb(0%, 0%, 0%)" stroke-opacity="1" stroke-miterlimit="10" d="M 558.476562 1283.4375 L 886.210938 1494.0625 L 1169.140625 1266.445312 " transform="matrix(0.1, 0, 0, -0.1, 0, 200)"/>
<path fill-rule="nonzero" fill="rgb(74.021912%, 55.859375%, 64.84375%)" fill-opacity="1" d="M 64.800781 106.863281 L 55.847656 71.65625 L 116.914062 73.355469 "/>
<path fill="none" stroke-width="7.36" stroke-linecap="round" stroke-linejoin="round" stroke="rgb(0%, 0%, 0%)" stroke-opacity="1" stroke-miterlimit="10" d="M 648.007812 931.367188 L 558.476562 1283.4375 " transform="matrix(0.1, 0, 0, -0.1, 0, 200)"/>
<path fill-rule="nonzero" fill="rgb(65.818787%, 42.30957%, 55.076599%)" fill-opacity="1" stroke-width="7.36" stroke-linecap="round" stroke-linejoin="round" stroke="rgb(0%, 0%, 0%)" stroke-opacity="1" stroke-miterlimit="10" d="M 1433.554688 1460.15625 L 1169.140625 1266.445312 L 886.210938 1494.0625 " transform="matrix(0.1, 0, 0, -0.1, 0, 200)"/>
<path fill-rule="nonzero" fill="rgb(61.914062%, 43.992615%, 61.71875%)" fill-opacity="1" d="M 150.886719 89.839844 L 116.914062 73.355469 L 143.355469 53.984375 "/>
<path fill="none" stroke-width="7.36" stroke-linecap="round" stroke-linejoin="round" stroke="rgb(0%, 0%, 0%)" stroke-opacity="1" stroke-miterlimit="10" d="M 1508.867188 1101.601562 L 1169.140625 1266.445312 L 1433.554688 1460.15625 Z M 1508.867188 1101.601562 " transform="matrix(0.1, 0, 0, -0.1, 0, 200)"/>
<path fill-rule="nonzero" fill="rgb(72.851562%, 71.875%, 84.179688%)" fill-opacity="1" stroke-width="7.36" stroke-linecap="round" stroke-linejoin="round" stroke="rgb(0%, 0%, 0%)" stroke-opacity="1" stroke-miterlimit="10" d="M 557.34375 429.375 L 837.890625 598.867188 L 1174.296875 427.1875 " transform="matrix(0.1, 0, 0, -0.1, 0, 200)"/>
<path fill-rule="nonzero" fill="rgb(79.6875%, 69.53125%, 75.389099%)" fill-opacity="1" stroke-width="7.36" stroke-linecap="round" stroke-linejoin="round" stroke="rgb(0%, 0%, 0%)" stroke-opacity="1" stroke-miterlimit="10" d="M 837.890625 598.867188 L 557.34375 429.375 L 362.03125 771.210938 " transform="matrix(0.1, 0, 0, -0.1, 0, 200)"/>
<path fill-rule="nonzero" fill="rgb(79.6875%, 69.53125%, 75.389099%)" fill-opacity="1" stroke-width="7.36" stroke-linecap="round" stroke-linejoin="round" stroke="rgb(0%, 0%, 0%)" stroke-opacity="1" stroke-miterlimit="10" d="M 362.03125 771.210938 L 648.007812 931.367188 L 837.890625 598.867188 " transform="matrix(0.1, 0, 0, -0.1, 0, 200)"/>
<path fill-rule="nonzero" fill="rgb(83.59375%, 66.014099%, 66.40625%)" fill-opacity="1" stroke-width="7.36" stroke-linecap="round" stroke-linejoin="round" stroke="rgb(0%, 0%, 0%)" stroke-opacity="1" stroke-miterlimit="10" d="M 648.007812 931.367188 L 362.03125 771.210938 L 264.765625 1130.546875 " transform="matrix(0.1, 0, 0, -0.1, 0, 200)"/>
<path fill-rule="nonzero" fill="rgb(83.59375%, 66.014099%, 66.40625%)" fill-opacity="1" stroke-width="7.36" stroke-linecap="round" stroke-linejoin="round" stroke="rgb(0%, 0%, 0%)" stroke-opacity="1" stroke-miterlimit="10" d="M 264.765625 1130.546875 L 558.476562 1283.4375 L 648.007812 931.367188 " transform="matrix(0.1, 0, 0, -0.1, 0, 200)"/>
<path fill-rule="nonzero" fill="rgb(50.78125%, 33.396912%, 58.006287%)" fill-opacity="1" stroke-width="7.36" stroke-linecap="round" stroke-linejoin="round" stroke="rgb(0%, 0%, 0%)" stroke-opacity="1" stroke-miterlimit="10" d="M 1798.984375 1053.632812 L 1508.867188 1101.601562 L 1433.554688 1460.15625 " transform="matrix(0.1, 0, 0, -0.1, 0, 200)"/>
<path fill-rule="nonzero" fill="rgb(53.709412%, 46.18988%, 71.875%)" fill-opacity="1" d="M 150.886719 89.839844 L 179.898438 94.636719 L 153.855469 151.664062 "/>
<path fill="none" stroke-width="7.36" stroke-linecap="round" stroke-linejoin="round" stroke="rgb(0%, 0%, 0%)" stroke-opacity="1" stroke-miterlimit="10" d="M 1508.867188 1101.601562 L 1798.984375 1053.632812 " transform="matrix(0.1, 0, 0, -0.1, 0, 200)"/>
<path fill-rule="nonzero" fill="rgb(59.375%, 62.693787%, 85.351562%)" fill-opacity="1" stroke-width="7.36" stroke-linecap="round" stroke-linejoin="round" stroke="rgb(0%, 0%, 0%)" stroke-opacity="1" stroke-miterlimit="10" d="M 1116.054688 138.984375 L 1174.296875 427.1875 L 1538.554688 483.359375 " transform="matrix(0.1, 0, 0, -0.1, 0, 200)"/>
<path fill-rule="nonzero" fill="rgb(72.851562%, 71.875%, 84.179688%)" fill-opacity="1" d="M 117.429688 157.28125 L 111.605469 186.101562 L 55.734375 157.0625 "/>
<path fill="none" stroke-width="7.36" stroke-linecap="round" stroke-linejoin="round" stroke="rgb(0%, 0%, 0%)" stroke-opacity="1" stroke-miterlimit="10" d="M 1174.296875 427.1875 L 1116.054688 138.984375 " transform="matrix(0.1, 0, 0, -0.1, 0, 200)"/>
<path fill-rule="nonzero" fill="rgb(65.818787%, 42.30957%, 55.076599%)" fill-opacity="1" stroke-width="7.36" stroke-linecap="round" stroke-linejoin="round" stroke="rgb(0%, 0%, 0%)" stroke-opacity="1" stroke-miterlimit="10" d="M 886.210938 1494.0625 L 1147.304688 1697.695312 L 1433.554688 1460.15625 " transform="matrix(0.1, 0, 0, -0.1, 0, 200)"/>
<path fill-rule="nonzero" fill="rgb(78.709412%, 50.584412%, 50.78125%)" fill-opacity="1" stroke-width="7.36" stroke-linecap="round" stroke-linejoin="round" stroke="rgb(0%, 0%, 0%)" stroke-opacity="1" stroke-miterlimit="10" d="M 754.648438 1713.554688 L 886.210938 1494.0625 L 558.476562 1283.4375 " transform="matrix(0.1, 0, 0, -0.1, 0, 200)"/>
<path fill-rule="nonzero" fill="rgb(70.117188%, 39.697266%, 45.701599%)" fill-opacity="1" d="M 114.730469 30.230469 L 88.621094 50.59375 L 75.464844 28.644531 "/>
<path fill="none" stroke-width="7.36" stroke-linecap="round" stroke-linejoin="round" stroke="rgb(0%, 0%, 0%)" stroke-opacity="1" stroke-miterlimit="10" d="M 1147.304688 1697.695312 L 886.210938 1494.0625 L 754.648438 1713.554688 Z M 1147.304688 1697.695312 " transform="matrix(0.1, 0, 0, -0.1, 0, 200)"/>
<path fill-rule="nonzero" fill="rgb(85.742188%, 60.546875%, 55.664062%)" fill-opacity="1" d="M 41.375 50.550781 L 55.847656 71.65625 L 26.476562 86.945312 "/>
<path fill="none" stroke-width="7.36" stroke-linecap="round" stroke-linejoin="round" stroke="rgb(0%, 0%, 0%)" stroke-opacity="1" stroke-miterlimit="10" d="M 413.75 1494.492188 L 558.476562 1283.4375 L 264.765625 1130.546875 Z M 413.75 1494.492188 " transform="matrix(0.1, 0, 0, -0.1, 0, 200)"/>
<path fill-rule="nonzero" fill="rgb(78.709412%, 50.584412%, 50.78125%)" fill-opacity="1" stroke-width="7.36" stroke-linecap="round" stroke-linejoin="round" stroke="rgb(0%, 0%, 0%)" stroke-opacity="1" stroke-miterlimit="10" d="M 558.476562 1283.4375 L 413.75 1494.492188 L 754.648438 1713.554688 " transform="matrix(0.1, 0, 0, -0.1, 0, 200)"/>
<path fill-rule="nonzero" fill="rgb(53.709412%, 46.18988%, 71.875%)" fill-opacity="1" stroke-width="7.36" stroke-linecap="round" stroke-linejoin="round" stroke="rgb(0%, 0%, 0%)" stroke-opacity="1" stroke-miterlimit="10" d="M 1798.984375 1053.632812 L 1820.9375 660.117188 L 1538.554688 483.359375 " transform="matrix(0.1, 0, 0, -0.1, 0, 200)"/>
<path fill-rule="nonzero" fill="rgb(59.375%, 62.693787%, 85.351562%)" fill-opacity="1" stroke-width="7.36" stroke-linecap="round" stroke-linejoin="round" stroke="rgb(0%, 0%, 0%)" stroke-opacity="1" stroke-miterlimit="10" d="M 1538.554688 483.359375 L 1492.304688 192.03125 L 1116.054688 138.984375 " transform="matrix(0.1, 0, 0, -0.1, 0, 200)"/>
<path fill-rule="nonzero" fill="rgb(39.404297%, 47.605896%, 82.617188%)" fill-opacity="1" stroke-width="7.36" stroke-linecap="round" stroke-linejoin="round" stroke="rgb(0%, 0%, 0%)" stroke-opacity="1" stroke-miterlimit="10" d="M 1492.304688 192.03125 L 1538.554688 483.359375 L 1820.9375 660.117188 " transform="matrix(0.1, 0, 0, -0.1, 0, 200)"/>
<path fill-rule="nonzero" fill="rgb(42.993164%, 10.105896%, 30.393982%)" fill-opacity="1" stroke-width="7.36" stroke-linecap="round" stroke-linejoin="round" stroke="rgb(0%, 0%, 0%)" stroke-opacity="1" stroke-miterlimit="10" d="M 1726.171875 1424.101562 L 1433.554688 1460.15625 L 1147.304688 1697.695312 " transform="matrix(0.1, 0, 0, -0.1, 0, 200)"/>
<path fill-rule="nonzero" fill="rgb(50.78125%, 33.396912%, 58.006287%)" fill-opacity="1" stroke-width="7.36" stroke-linecap="round" stroke-linejoin="round" stroke="rgb(0%, 0%, 0%)" stroke-opacity="1" stroke-miterlimit="10" d="M 1433.554688 1460.15625 L 1726.171875 1424.101562 L 1798.984375 1053.632812 " transform="matrix(0.1, 0, 0, -0.1, 0, 200)"/>
<path fill-rule="nonzero" fill="rgb(72.851562%, 71.875%, 84.179688%)" fill-opacity="1" stroke-width="7.36" stroke-linecap="round" stroke-linejoin="round" stroke="rgb(0%, 0%, 0%)" stroke-opacity="1" stroke-miterlimit="10" d="M 1116.054688 138.984375 L 723.203125 137.070312 L 557.34375 429.375 " transform="matrix(0.1, 0, 0, -0.1, 0, 200)"/>
<path fill-rule="nonzero" fill="rgb(86.131287%, 78.90625%, 77.929688%)" fill-opacity="1" d="M 27.351562 151.015625 L 36.203125 122.878906 L 55.734375 157.0625 "/>
<path fill="none" stroke-width="7.36" stroke-linecap="round" stroke-linejoin="round" stroke="rgb(0%, 0%, 0%)" stroke-opacity="1" stroke-miterlimit="10" d="M 273.515625 489.84375 L 362.03125 771.210938 L 557.34375 429.375 Z M 273.515625 489.84375 " transform="matrix(0.1, 0, 0, -0.1, 0, 200)"/>
<path fill-rule="nonzero" fill="rgb(83.984375%, 87.889099%, 86.914062%)" fill-opacity="1" stroke-width="7.36" stroke-linecap="round" stroke-linejoin="round" stroke="rgb(0%, 0%, 0%)" stroke-opacity="1" stroke-miterlimit="10" d="M 273.515625 489.84375 L 557.34375 429.375 L 723.203125 137.070312 " transform="matrix(0.1, 0, 0, -0.1, 0, 200)"/>
<path fill-rule="nonzero" fill="rgb(96.679688%, 81.834412%, 64.84375%)" fill-opacity="1" d="M 36.203125 122.878906 L 27.351562 151.015625 L 10.59375 90.90625 "/>
<path fill="none" stroke-width="7.36" stroke-linecap="round" stroke-linejoin="round" stroke="rgb(0%, 0%, 0%)" stroke-opacity="1" stroke-miterlimit="10" d="M 362.03125 771.210938 L 273.515625 489.84375 " transform="matrix(0.1, 0, 0, -0.1, 0, 200)"/>
<path fill-rule="nonzero" fill="rgb(96.679688%, 81.834412%, 64.84375%)" fill-opacity="1" stroke-width="7.36" stroke-linecap="round" stroke-linejoin="round" stroke="rgb(0%, 0%, 0%)" stroke-opacity="1" stroke-miterlimit="10" d="M 105.9375 1090.9375 L 264.765625 1130.546875 L 362.03125 771.210938 " transform="matrix(0.1, 0, 0, -0.1, 0, 200)"/>
<path fill-rule="nonzero" fill="rgb(99.609375%, 85.742188%, 53.709412%)" fill-opacity="1" d="M 179.898438 94.636719 L 172.617188 57.589844 L 158.148438 151.90625 "/>
<path fill="none" stroke-width="7.36" stroke-linecap="round" stroke-linejoin="round" stroke="rgb(0%, 0%, 0%)" stroke-opacity="1" stroke-miterlimit="10" d="M 1798.984375 1053.632812 L 1726.171875 1424.101562 " transform="matrix(0.1, 0, 0, -0.1, 0, 200)"/>
<path fill-rule="nonzero" fill="rgb(99.609375%, 85.742188%, 53.709412%)" fill-opacity="1" d="M 182.09375 133.988281 L 179.898438 94.636719 L 158.148438 151.90625 "/>
<path fill="none" stroke-width="7.36" stroke-linecap="round" stroke-linejoin="round" stroke="rgb(0%, 0%, 0%)" stroke-opacity="1" stroke-miterlimit="10" d="M 1820.9375 660.117188 L 1798.984375 1053.632812 " transform="matrix(0.1, 0, 0, -0.1, 0, 200)"/>
<path fill-rule="nonzero" fill="rgb(50.78125%, 69.139099%, 95.117188%)" fill-opacity="1" d="M 121.289062 200.089844 L 111.605469 186.101562 L 149.230469 180.796875 "/>
<path fill="none" stroke-width="7.36" stroke-linecap="round" stroke-linejoin="round" stroke="rgb(0%, 0%, 0%)" stroke-opacity="1" stroke-miterlimit="10" d="M 1212.890625 -0.898438 L 1116.054688 138.984375 L 1492.304688 192.03125 Z M 1212.890625 -0.898438 " transform="matrix(0.1, 0, 0, -0.1, 0, 200)"/>
<path fill-rule="nonzero" fill="rgb(60.546875%, 82.8125%, 98.4375%)" fill-opacity="1" stroke-width="7.36" stroke-linecap="round" stroke-linejoin="round" stroke="rgb(0%, 0%, 0%)" stroke-opacity="1" stroke-miterlimit="10" d="M 1116.054688 138.984375 L 1212.890625 -0.898438 L 802.03125 -4.570312 " transform="matrix(0.1, 0, 0, -0.1, 0, 200)"/>
<path fill-rule="nonzero" fill="rgb(60.546875%, 82.8125%, 98.4375%)" fill-opacity="1" stroke-width="7.36" stroke-linecap="round" stroke-linejoin="round" stroke="rgb(0%, 0%, 0%)" stroke-opacity="1" stroke-miterlimit="10" d="M 802.03125 -4.570312 L 723.203125 137.070312 L 1116.054688 138.984375 " transform="matrix(0.1, 0, 0, -0.1, 0, 200)"/>
<path fill-rule="nonzero" fill="rgb(42.993164%, 10.105896%, 30.393982%)" fill-opacity="1" d="M 114.730469 30.230469 L 124.964844 17.40625 L 172.617188 57.589844 "/>
<path fill="none" stroke-width="7.36" stroke-linecap="round" stroke-linejoin="round" stroke="rgb(0%, 0%, 0%)" stroke-opacity="1" stroke-miterlimit="10" d="M 1147.304688 1697.695312 L 1249.648438 1825.9375 " transform="matrix(0.1, 0, 0, -0.1, 0, 200)"/>
<path fill-rule="nonzero" fill="rgb(57.8125%, 12.304688%, 13.597107%)" fill-opacity="1" stroke-width="7.36" stroke-linecap="round" stroke-linejoin="round" stroke="rgb(0%, 0%, 0%)" stroke-opacity="1" stroke-miterlimit="10" d="M 1249.648438 1825.9375 L 1147.304688 1697.695312 L 754.648438 1713.554688 " transform="matrix(0.1, 0, 0, -0.1, 0, 200)"/>
<path fill-rule="nonzero" fill="rgb(94.53125%, 61.71875%, 37.205505%)" fill-opacity="1" stroke-width="7.36" stroke-linecap="round" stroke-linejoin="round" stroke="rgb(0%, 0%, 0%)" stroke-opacity="1" stroke-miterlimit="10" d="M 264.765625 1130.546875 L 105.9375 1090.9375 L 260.3125 1472.34375 " transform="matrix(0.1, 0, 0, -0.1, 0, 200)"/>
<path fill-rule="nonzero" fill="rgb(94.53125%, 61.71875%, 37.205505%)" fill-opacity="1" stroke-width="7.36" stroke-linecap="round" stroke-linejoin="round" stroke="rgb(0%, 0%, 0%)" stroke-opacity="1" stroke-miterlimit="10" d="M 260.3125 1472.34375 L 413.75 1494.492188 L 264.765625 1130.546875 " transform="matrix(0.1, 0, 0, -0.1, 0, 200)"/>
<path fill-rule="nonzero" fill="rgb(39.404297%, 47.605896%, 82.617188%)" fill-opacity="1" stroke-width="7.36" stroke-linecap="round" stroke-linejoin="round" stroke="rgb(0%, 0%, 0%)" stroke-opacity="1" stroke-miterlimit="10" d="M 1820.9375 660.117188 L 1783.75 366.640625 L 1492.304688 192.03125 " transform="matrix(0.1, 0, 0, -0.1, 0, 200)"/>
<path fill-rule="nonzero" fill="rgb(99.609375%, 85.742188%, 53.709412%)" fill-opacity="1" d="M 178.375 163.335938 L 182.09375 133.988281 L 158.148438 151.90625 "/>
<path fill="none" stroke-width="7.36" stroke-linecap="round" stroke-linejoin="round" stroke="rgb(0%, 0%, 0%)" stroke-opacity="1" stroke-miterlimit="10" d="M 1783.75 366.640625 L 1820.9375 660.117188 " transform="matrix(0.1, 0, 0, -0.1, 0, 200)"/>
<path fill-rule="nonzero" fill="rgb(83.984375%, 87.889099%, 86.914062%)" fill-opacity="1" stroke-width="7.36" stroke-linecap="round" stroke-linejoin="round" stroke="rgb(0%, 0%, 0%)" stroke-opacity="1" stroke-miterlimit="10" d="M 723.203125 137.070312 L 437.109375 188.476562 L 273.515625 489.84375 " transform="matrix(0.1, 0, 0, -0.1, 0, 200)"/>
<path fill-rule="nonzero" fill="rgb(70.701599%, 94.921875%, 95.3125%)" fill-opacity="1" d="M 43.710938 181.152344 L 72.320312 186.292969 L 80.203125 200.457031 "/>
<path fill="none" stroke-width="7.36" stroke-linecap="round" stroke-linejoin="round" stroke="rgb(0%, 0%, 0%)" stroke-opacity="1" stroke-miterlimit="10" d="M 437.109375 188.476562 L 723.203125 137.070312 L 802.03125 -4.570312 Z M 437.109375 188.476562 " transform="matrix(0.1, 0, 0, -0.1, 0, 200)"/>
<path fill-rule="nonzero" fill="rgb(71.09375%, 17.504883%, 0%)" fill-opacity="1" stroke-width="7.36" stroke-linecap="round" stroke-linejoin="round" stroke="rgb(0%, 0%, 0%)" stroke-opacity="1" stroke-miterlimit="10" d="M 838.945312 1844.0625 L 754.648438 1713.554688 L 413.75 1494.492188 " transform="matrix(0.1, 0, 0, -0.1, 0, 200)"/>
<path fill-rule="nonzero" fill="rgb(57.8125%, 12.304688%, 13.597107%)" fill-opacity="1" stroke-width="7.36" stroke-linecap="round" stroke-linejoin="round" stroke="rgb(0%, 0%, 0%)" stroke-opacity="1" stroke-miterlimit="10" d="M 754.648438 1713.554688 L 838.945312 1844.0625 L 1249.648438 1825.9375 " transform="matrix(0.1, 0, 0, -0.1, 0, 200)"/>
<path fill-rule="nonzero" fill="rgb(71.09375%, 17.504883%, 0%)" fill-opacity="1" d="M 41.375 50.550781 L 26.03125 52.765625 L 83.894531 15.59375 "/>
<path fill="none" stroke-width="7.36" stroke-linecap="round" stroke-linejoin="round" stroke="rgb(0%, 0%, 0%)" stroke-opacity="1" stroke-miterlimit="10" d="M 413.75 1494.492188 L 260.3125 1472.34375 " transform="matrix(0.1, 0, 0, -0.1, 0, 200)"/>
<path fill-rule="nonzero" fill="rgb(0%, 27.488708%, 71.289062%)" fill-opacity="1" d="M 149.230469 180.796875 L 178.375 163.335938 L 132.363281 195.242188 "/>
<path fill="none" stroke-width="7.36" stroke-linecap="round" stroke-linejoin="round" stroke="rgb(0%, 0%, 0%)" stroke-opacity="1" stroke-miterlimit="10" d="M 1492.304688 192.03125 L 1783.75 366.640625 " transform="matrix(0.1, 0, 0, -0.1, 0, 200)"/>
<path fill-rule="nonzero" fill="rgb(0%, 27.488708%, 71.289062%)" fill-opacity="1" stroke-width="7.36" stroke-linecap="round" stroke-linejoin="round" stroke="rgb(0%, 0%, 0%)" stroke-opacity="1" stroke-miterlimit="10" d="M 1323.632812 47.578125 L 1212.890625 -0.898438 L 1492.304688 192.03125 " transform="matrix(0.1, 0, 0, -0.1, 0, 200)"/>
<path fill-rule="nonzero" fill="rgb(42.993164%, 10.105896%, 30.393982%)" fill-opacity="1" stroke-width="7.36" stroke-linecap="round" stroke-linejoin="round" stroke="rgb(0%, 0%, 0%)" stroke-opacity="1" stroke-miterlimit="10" d="M 1249.648438 1825.9375 L 1623.515625 1651.171875 L 1726.171875 1424.101562 " transform="matrix(0.1, 0, 0, -0.1, 0, 200)"/>
<path fill-rule="nonzero" fill="rgb(99.609375%, 85.742188%, 53.709412%)" fill-opacity="1" d="M 172.617188 57.589844 L 162.351562 34.882812 L 158.148438 151.90625 "/>
<path fill="none" stroke-width="7.36" stroke-linecap="round" stroke-linejoin="round" stroke="rgb(0%, 0%, 0%)" stroke-opacity="1" stroke-miterlimit="10" d="M 1726.171875 1424.101562 L 1623.515625 1651.171875 " transform="matrix(0.1, 0, 0, -0.1, 0, 200)"/>
<path fill-rule="nonzero" fill="rgb(96.679688%, 81.834412%, 64.84375%)" fill-opacity="1" stroke-width="7.36" stroke-linecap="round" stroke-linejoin="round" stroke="rgb(0%, 0%, 0%)" stroke-opacity="1" stroke-miterlimit="10" d="M 273.515625 489.84375 L 109.726562 677.929688 L 105.9375 1090.9375 " transform="matrix(0.1, 0, 0, -0.1, 0, 200)"/>
<path fill-rule="nonzero" fill="rgb(82.617188%, 96.09375%, 63.084412%)" fill-opacity="1" stroke-width="7.36" stroke-linecap="round" stroke-linejoin="round" stroke="rgb(0%, 0%, 0%)" stroke-opacity="1" stroke-miterlimit="10" d="M 273.515625 489.84375 L 437.109375 188.476562 L 275.351562 369.296875 " transform="matrix(0.1, 0, 0, -0.1, 0, 200)"/>
<path fill-rule="nonzero" fill="rgb(82.617188%, 96.09375%, 63.084412%)" fill-opacity="1" stroke-width="7.36" stroke-linecap="round" stroke-linejoin="round" stroke="rgb(0%, 0%, 0%)" stroke-opacity="1" stroke-miterlimit="10" d="M 275.351562 369.296875 L 109.726562 677.929688 L 273.515625 489.84375 " transform="matrix(0.1, 0, 0, -0.1, 0, 200)"/>
<path fill-rule="nonzero" fill="rgb(0%, 27.488708%, 71.289062%)" fill-opacity="1" stroke-width="7.36" stroke-linecap="round" stroke-linejoin="round" stroke="rgb(0%, 0%, 0%)" stroke-opacity="1" stroke-miterlimit="10" d="M 1783.75 366.640625 L 1694.375 286.289062 L 1323.632812 47.578125 " transform="matrix(0.1, 0, 0, -0.1, 0, 200)"/>
<path fill-rule="nonzero" fill="rgb(99.609375%, 85.742188%, 53.709412%)" fill-opacity="1" stroke-width="7.36" stroke-linecap="round" stroke-linejoin="round" stroke="rgb(0%, 0%, 0%)" stroke-opacity="1" stroke-miterlimit="10" d="M 1581.484375 480.9375 L 1694.375 286.289062 L 1783.75 366.640625 " transform="matrix(0.1, 0, 0, -0.1, 0, 200)"/>
<path fill-rule="nonzero" fill="rgb(30.101013%, 0%, 0%)" fill-opacity="1" stroke-width="7.36" stroke-linecap="round" stroke-linejoin="round" stroke="rgb(0%, 0%, 0%)" stroke-opacity="1" stroke-miterlimit="10" d="M 1212.890625 -0.898438 L 1323.632812 47.578125 L 893.046875 44.335938 " transform="matrix(0.1, 0, 0, -0.1, 0, 200)"/>
<path fill-rule="nonzero" fill="rgb(30.101013%, 0%, 0%)" fill-opacity="1" stroke-width="7.36" stroke-linecap="round" stroke-linejoin="round" stroke="rgb(0%, 0%, 0%)" stroke-opacity="1" stroke-miterlimit="10" d="M 893.046875 44.335938 L 802.03125 -4.570312 L 1212.890625 -0.898438 " transform="matrix(0.1, 0, 0, -0.1, 0, 200)"/>
<path fill-rule="nonzero" fill="rgb(56.639099%, 93.75%, 89.646912%)" fill-opacity="1" stroke-width="7.36" stroke-linecap="round" stroke-linejoin="round" stroke="rgb(0%, 0%, 0%)" stroke-opacity="1" stroke-miterlimit="10" d="M 1249.648438 1825.9375 L 1132.929688 1819.804688 L 1524.726562 1635.976562 " transform="matrix(0.1, 0, 0, -0.1, 0, 200)"/>
<path fill-rule="nonzero" fill="rgb(56.639099%, 93.75%, 89.646912%)" fill-opacity="1" stroke-width="7.36" stroke-linecap="round" stroke-linejoin="round" stroke="rgb(0%, 0%, 0%)" stroke-opacity="1" stroke-miterlimit="10" d="M 1524.726562 1635.976562 L 1623.515625 1651.171875 L 1249.648438 1825.9375 " transform="matrix(0.1, 0, 0, -0.1, 0, 200)"/>
<path fill-rule="nonzero" fill="rgb(11.69281%, 66.796875%, 78.318787%)" fill-opacity="1" d="M 113.292969 18.019531 L 124.964844 17.40625 L 83.894531 15.59375 "/>
<path fill="none" stroke-width="7.36" stroke-linecap="round" stroke-linejoin="round" stroke="rgb(0%, 0%, 0%)" stroke-opacity="1" stroke-miterlimit="10" d="M 1132.929688 1819.804688 L 1249.648438 1825.9375 L 838.945312 1844.0625 Z M 1132.929688 1819.804688 " transform="matrix(0.1, 0, 0, -0.1, 0, 200)"/>
<path fill-rule="nonzero" fill="rgb(17.504883%, 0%, 0%)" fill-opacity="1" d="M 43.710938 181.152344 L 80.203125 200.457031 L 55.644531 171.441406 "/>
<path fill="none" stroke-width="7.36" stroke-linecap="round" stroke-linejoin="round" stroke="rgb(0%, 0%, 0%)" stroke-opacity="1" stroke-miterlimit="10" d="M 437.109375 188.476562 L 802.03125 -4.570312 " transform="matrix(0.1, 0, 0, -0.1, 0, 200)"/>
<path fill-rule="nonzero" fill="rgb(17.504883%, 0%, 0%)" fill-opacity="1" stroke-width="7.36" stroke-linecap="round" stroke-linejoin="round" stroke="rgb(0%, 0%, 0%)" stroke-opacity="1" stroke-miterlimit="10" d="M 556.445312 285.585938 L 275.351562 369.296875 L 437.109375 188.476562 " transform="matrix(0.1, 0, 0, -0.1, 0, 200)"/>
<path fill-rule="nonzero" fill="rgb(0%, 0%, 7.202148%)" fill-opacity="1" d="M 11.734375 103.308594 L 10.59375 90.90625 L 10.972656 132.207031 "/>
<path fill="none" stroke-width="7.36" stroke-linecap="round" stroke-linejoin="round" stroke="rgb(0%, 0%, 0%)" stroke-opacity="1" stroke-miterlimit="10" d="M 117.34375 966.914062 L 105.9375 1090.9375 L 109.726562 677.929688 Z M 117.34375 966.914062 " transform="matrix(0.1, 0, 0, -0.1, 0, 200)"/>
<path fill-rule="nonzero" fill="rgb(0%, 0%, 54.296875%)" fill-opacity="1" stroke-width="7.36" stroke-linecap="round" stroke-linejoin="round" stroke="rgb(0%, 0%, 0%)" stroke-opacity="1" stroke-miterlimit="10" d="M 105.9375 1090.9375 L 117.34375 966.914062 L 279.84375 1366.367188 " transform="matrix(0.1, 0, 0, -0.1, 0, 200)"/>
<path fill-rule="nonzero" fill="rgb(0%, 0%, 54.296875%)" fill-opacity="1" stroke-width="7.36" stroke-linecap="round" stroke-linejoin="round" stroke="rgb(0%, 0%, 0%)" stroke-opacity="1" stroke-miterlimit="10" d="M 279.84375 1366.367188 L 260.3125 1472.34375 L 105.9375 1090.9375 " transform="matrix(0.1, 0, 0, -0.1, 0, 200)"/>
<path fill-rule="nonzero" fill="rgb(99.609375%, 85.742188%, 53.709412%)" fill-opacity="1" d="M 162.351562 34.882812 L 152.472656 36.402344 L 158.148438 151.90625 "/>
<path fill="none" stroke-width="7.36" stroke-linecap="round" stroke-linejoin="round" stroke="rgb(0%, 0%, 0%)" stroke-opacity="1" stroke-miterlimit="10" d="M 1623.515625 1651.171875 L 1524.726562 1635.976562 " transform="matrix(0.1, 0, 0, -0.1, 0, 200)"/>
<path fill-rule="nonzero" fill="rgb(17.504883%, 0%, 0%)" fill-opacity="1" stroke-width="7.36" stroke-linecap="round" stroke-linejoin="round" stroke="rgb(0%, 0%, 0%)" stroke-opacity="1" stroke-miterlimit="10" d="M 802.03125 -4.570312 L 893.046875 44.335938 L 556.445312 285.585938 " transform="matrix(0.1, 0, 0, -0.1, 0, 200)"/>
<path fill-rule="nonzero" fill="rgb(71.09375%, 17.504883%, 0%)" fill-opacity="1" stroke-width="7.36" stroke-linecap="round" stroke-linejoin="round" stroke="rgb(0%, 0%, 0%)" stroke-opacity="1" stroke-miterlimit="10" d="M 260.3125 1472.34375 L 526.601562 1694.453125 L 838.945312 1844.0625 " transform="matrix(0.1, 0, 0, -0.1, 0, 200)"/>
<path fill-rule="nonzero" fill="rgb(42.405701%, 71.679688%, 98.631287%)" fill-opacity="1" stroke-width="7.36" stroke-linecap="round" stroke-linejoin="round" stroke="rgb(0%, 0%, 0%)" stroke-opacity="1" stroke-miterlimit="10" d="M 1132.929688 1819.804688 L 838.945312 1844.0625 L 526.601562 1694.453125 " transform="matrix(0.1, 0, 0, -0.1, 0, 200)"/>
<path fill-rule="nonzero" fill="rgb(7.006836%, 0%, 38.989258%)" fill-opacity="1" stroke-width="7.36" stroke-linecap="round" stroke-linejoin="round" stroke="rgb(0%, 0%, 0%)" stroke-opacity="1" stroke-miterlimit="10" d="M 117.34375 966.914062 L 109.726562 677.929688 L 275.351562 369.296875 " transform="matrix(0.1, 0, 0, -0.1, 0, 200)"/>
<path fill-rule="nonzero" fill="rgb(2.700806%, 32.200623%, 80.859375%)" fill-opacity="1" d="M 52.660156 30.554688 L 26.03125 52.765625 L 27.984375 63.363281 "/>
<path fill="none" stroke-width="7.36" stroke-linecap="round" stroke-linejoin="round" stroke="rgb(0%, 0%, 0%)" stroke-opacity="1" stroke-miterlimit="10" d="M 526.601562 1694.453125 L 260.3125 1472.34375 L 279.84375 1366.367188 Z M 526.601562 1694.453125 " transform="matrix(0.1, 0, 0, -0.1, 0, 200)"/>
<path fill-rule="nonzero" fill="rgb(7.006836%, 0%, 38.989258%)" fill-opacity="1" stroke-width="7.36" stroke-linecap="round" stroke-linejoin="round" stroke="rgb(0%, 0%, 0%)" stroke-opacity="1" stroke-miterlimit="10" d="M 275.351562 369.296875 L 289.84375 655.15625 L 117.34375 966.914062 " transform="matrix(0.1, 0, 0, -0.1, 0, 200)"/>
<path fill-rule="nonzero" fill="rgb(39.109802%, 17.30957%, 45.800781%)" fill-opacity="1" d="M 28.984375 134.484375 L 27.535156 163.070312 L 55.644531 171.441406 "/>
<path fill="none" stroke-width="7.36" stroke-linecap="round" stroke-linejoin="round" stroke="rgb(0%, 0%, 0%)" stroke-opacity="1" stroke-miterlimit="10" d="M 289.84375 655.15625 L 275.351562 369.296875 L 556.445312 285.585938 Z M 289.84375 655.15625 " transform="matrix(0.1, 0, 0, -0.1, 0, 200)"/>
<path fill-rule="nonzero" fill="rgb(42.405701%, 71.679688%, 98.631287%)" fill-opacity="1" stroke-width="7.36" stroke-linecap="round" stroke-linejoin="round" stroke="rgb(0%, 0%, 0%)" stroke-opacity="1" stroke-miterlimit="10" d="M 526.601562 1694.453125 L 817.773438 1663.476562 L 1132.929688 1819.804688 " transform="matrix(0.1, 0, 0, -0.1, 0, 200)"/>
<path fill-rule="nonzero" fill="rgb(48.509216%, 56.834412%, 86.521912%)" fill-opacity="1" stroke-width="7.36" stroke-linecap="round" stroke-linejoin="round" stroke="rgb(0%, 0%, 0%)" stroke-opacity="1" stroke-miterlimit="10" d="M 817.773438 1663.476562 L 526.601562 1694.453125 L 279.84375 1366.367188 " transform="matrix(0.1, 0, 0, -0.1, 0, 200)"/>
<path fill-rule="nonzero" fill="rgb(80.271912%, 46.09375%, 41.088867%)" fill-opacity="1" stroke-width="7.36" stroke-linecap="round" stroke-linejoin="round" stroke="rgb(0%, 0%, 0%)" stroke-opacity="1" stroke-miterlimit="10" d="M 1694.375 286.289062 L 1581.484375 480.9375 L 1193.828125 231.40625 " transform="matrix(0.1, 0, 0, -0.1, 0, 200)"/>
<path fill-rule="nonzero" fill="rgb(80.271912%, 46.09375%, 41.088867%)" fill-opacity="1" stroke-width="7.36" stroke-linecap="round" stroke-linejoin="round" stroke="rgb(0%, 0%, 0%)" stroke-opacity="1" stroke-miterlimit="10" d="M 1193.828125 231.40625 L 1323.632812 47.578125 L 1694.375 286.289062 " transform="matrix(0.1, 0, 0, -0.1, 0, 200)"/>
<path fill-rule="nonzero" fill="rgb(67.771912%, 30.004883%, 32.493591%)" fill-opacity="1" d="M 119.382812 176.859375 L 89.304688 195.566406 L 132.363281 195.242188 "/>
<path fill="none" stroke-width="7.36" stroke-linecap="round" stroke-linejoin="round" stroke="rgb(0%, 0%, 0%)" stroke-opacity="1" stroke-miterlimit="10" d="M 1193.828125 231.40625 L 893.046875 44.335938 L 1323.632812 47.578125 Z M 1193.828125 231.40625 " transform="matrix(0.1, 0, 0, -0.1, 0, 200)"/>
<path fill-rule="nonzero" fill="rgb(72.65625%, 75.78125%, 87.889099%)" fill-opacity="1" d="M 113.292969 18.019531 L 81.777344 33.652344 L 147.140625 64.921875 "/>
<path fill="none" stroke-width="7.36" stroke-linecap="round" stroke-linejoin="round" stroke="rgb(0%, 0%, 0%)" stroke-opacity="1" stroke-miterlimit="10" d="M 1132.929688 1819.804688 L 817.773438 1663.476562 " transform="matrix(0.1, 0, 0, -0.1, 0, 200)"/>
<path fill-rule="nonzero" fill="rgb(72.65625%, 75.78125%, 87.889099%)" fill-opacity="1" stroke-width="7.36" stroke-linecap="round" stroke-linejoin="round" stroke="rgb(0%, 0%, 0%)" stroke-opacity="1" stroke-miterlimit="10" d="M 1471.40625 1350.78125 L 1524.726562 1635.976562 L 1132.929688 1819.804688 " transform="matrix(0.1, 0, 0, -0.1, 0, 200)"/>
<path fill-rule="nonzero" fill="rgb(47.288513%, 41.796875%, 71.484375%)" fill-opacity="1" d="M 11.734375 103.308594 L 28.984375 134.484375 L 56.695312 67.859375 "/>
<path fill="none" stroke-width="7.36" stroke-linecap="round" stroke-linejoin="round" stroke="rgb(0%, 0%, 0%)" stroke-opacity="1" stroke-miterlimit="10" d="M 117.34375 966.914062 L 289.84375 655.15625 " transform="matrix(0.1, 0, 0, -0.1, 0, 200)"/>
<path fill-rule="nonzero" fill="rgb(47.288513%, 41.796875%, 71.484375%)" fill-opacity="1" stroke-width="7.36" stroke-linecap="round" stroke-linejoin="round" stroke="rgb(0%, 0%, 0%)" stroke-opacity="1" stroke-miterlimit="10" d="M 566.953125 1321.40625 L 279.84375 1366.367188 L 117.34375 966.914062 " transform="matrix(0.1, 0, 0, -0.1, 0, 200)"/>
<path fill-rule="nonzero" fill="rgb(99.609375%, 85.742188%, 53.709412%)" fill-opacity="1" d="M 152.472656 36.402344 L 147.140625 64.921875 L 158.148438 151.90625 "/>
<path fill="none" stroke-width="7.36" stroke-linecap="round" stroke-linejoin="round" stroke="rgb(0%, 0%, 0%)" stroke-opacity="1" stroke-miterlimit="10" d="M 1524.726562 1635.976562 L 1471.40625 1350.78125 " transform="matrix(0.1, 0, 0, -0.1, 0, 200)"/>
<path fill-rule="nonzero" fill="rgb(63.671875%, 36.59668%, 49.291992%)" fill-opacity="1" stroke-width="7.36" stroke-linecap="round" stroke-linejoin="round" stroke="rgb(0%, 0%, 0%)" stroke-opacity="1" stroke-miterlimit="10" d="M 893.046875 44.335938 L 1193.828125 231.40625 L 852.382812 484.6875 " transform="matrix(0.1, 0, 0, -0.1, 0, 200)"/>
<path fill-rule="nonzero" fill="rgb(63.671875%, 36.59668%, 49.291992%)" fill-opacity="1" stroke-width="7.36" stroke-linecap="round" stroke-linejoin="round" stroke="rgb(0%, 0%, 0%)" stroke-opacity="1" stroke-miterlimit="10" d="M 852.382812 484.6875 L 556.445312 285.585938 L 893.046875 44.335938 " transform="matrix(0.1, 0, 0, -0.1, 0, 200)"/>
<path fill-rule="nonzero" fill="rgb(48.509216%, 56.834412%, 86.521912%)" fill-opacity="1" stroke-width="7.36" stroke-linecap="round" stroke-linejoin="round" stroke="rgb(0%, 0%, 0%)" stroke-opacity="1" stroke-miterlimit="10" d="M 279.84375 1366.367188 L 566.953125 1321.40625 L 817.773438 1663.476562 " transform="matrix(0.1, 0, 0, -0.1, 0, 200)"/>
<path fill-rule="nonzero" fill="rgb(57.617188%, 40.087891%, 60.742188%)" fill-opacity="1" stroke-width="7.36" stroke-linecap="round" stroke-linejoin="round" stroke="rgb(0%, 0%, 0%)" stroke-opacity="1" stroke-miterlimit="10" d="M 556.445312 285.585938 L 852.382812 484.6875 L 576.992188 866.640625 " transform="matrix(0.1, 0, 0, -0.1, 0, 200)"/>
<path fill-rule="nonzero" fill="rgb(57.617188%, 40.087891%, 60.742188%)" fill-opacity="1" stroke-width="7.36" stroke-linecap="round" stroke-linejoin="round" stroke="rgb(0%, 0%, 0%)" stroke-opacity="1" stroke-miterlimit="10" d="M 576.992188 866.640625 L 289.84375 655.15625 L 556.445312 285.585938 " transform="matrix(0.1, 0, 0, -0.1, 0, 200)"/>
<path fill-rule="nonzero" fill="rgb(72.65625%, 75.78125%, 87.889099%)" fill-opacity="1" stroke-width="7.36" stroke-linecap="round" stroke-linejoin="round" stroke="rgb(0%, 0%, 0%)" stroke-opacity="1" stroke-miterlimit="10" d="M 817.773438 1663.476562 L 1019.296875 1364.609375 L 1471.40625 1350.78125 " transform="matrix(0.1, 0, 0, -0.1, 0, 200)"/>
<path fill-rule="nonzero" fill="rgb(63.671875%, 62.889099%, 82.617188%)" fill-opacity="1" d="M 101.929688 63.539062 L 81.777344 33.652344 L 56.695312 67.859375 "/>
<path fill="none" stroke-width="7.36" stroke-linecap="round" stroke-linejoin="round" stroke="rgb(0%, 0%, 0%)" stroke-opacity="1" stroke-miterlimit="10" d="M 1019.296875 1364.609375 L 817.773438 1663.476562 L 566.953125 1321.40625 Z M 1019.296875 1364.609375 " transform="matrix(0.1, 0, 0, -0.1, 0, 200)"/>
<path fill-rule="nonzero" fill="rgb(47.288513%, 41.796875%, 71.484375%)" fill-opacity="1" stroke-width="7.36" stroke-linecap="round" stroke-linejoin="round" stroke="rgb(0%, 0%, 0%)" stroke-opacity="1" stroke-miterlimit="10" d="M 289.84375 655.15625 L 576.992188 866.640625 L 566.953125 1321.40625 " transform="matrix(0.1, 0, 0, -0.1, 0, 200)"/>
<path fill-rule="nonzero" fill="rgb(74.804688%, 55.46875%, 63.28125%)" fill-opacity="1" stroke-width="7.36" stroke-linecap="round" stroke-linejoin="round" stroke="rgb(0%, 0%, 0%)" stroke-opacity="1" stroke-miterlimit="10" d="M 1193.828125 231.40625 L 1581.484375 480.9375 L 1492.890625 896.757812 " transform="matrix(0.1, 0, 0, -0.1, 0, 200)"/>
<path fill-rule="nonzero" fill="rgb(99.609375%, 85.742188%, 53.709412%)" fill-opacity="1" stroke-width="7.36" stroke-linecap="round" stroke-linejoin="round" stroke="rgb(0%, 0%, 0%)" stroke-opacity="1" stroke-miterlimit="10" d="M 1471.40625 1350.78125 L 1492.890625 896.757812 L 1581.484375 480.9375 " transform="matrix(0.1, 0, 0, -0.1, 0, 200)"/>
<path fill-rule="nonzero" fill="rgb(74.804688%, 55.46875%, 63.28125%)" fill-opacity="1" d="M 85.238281 151.53125 L 119.382812 176.859375 L 149.289062 110.324219 "/>
<path fill="none" stroke-width="7.36" stroke-linecap="round" stroke-linejoin="round" stroke="rgb(0%, 0%, 0%)" stroke-opacity="1" stroke-miterlimit="10" d="M 852.382812 484.6875 L 1193.828125 231.40625 " transform="matrix(0.1, 0, 0, -0.1, 0, 200)"/>
<path fill-rule="nonzero" fill="rgb(75.193787%, 65.234375%, 75.193787%)" fill-opacity="1" stroke-width="7.36" stroke-linecap="round" stroke-linejoin="round" stroke="rgb(0%, 0%, 0%)" stroke-opacity="1" stroke-miterlimit="10" d="M 1492.890625 896.757812 L 1471.40625 1350.78125 L 1019.296875 1364.609375 " transform="matrix(0.1, 0, 0, -0.1, 0, 200)"/>
<path fill-rule="nonzero" fill="rgb(65.625%, 57.03125%, 74.804688%)" fill-opacity="1" stroke-width="7.36" stroke-linecap="round" stroke-linejoin="round" stroke="rgb(0%, 0%, 0%)" stroke-opacity="1" stroke-miterlimit="10" d="M 1019.296875 1364.609375 L 566.953125 1321.40625 L 576.992188 866.640625 " transform="matrix(0.1, 0, 0, -0.1, 0, 200)"/>
<path fill-rule="nonzero" fill="rgb(74.804688%, 55.46875%, 63.28125%)" fill-opacity="1" stroke-width="7.36" stroke-linecap="round" stroke-linejoin="round" stroke="rgb(0%, 0%, 0%)" stroke-opacity="1" stroke-miterlimit="10" d="M 1492.890625 896.757812 L 1035.234375 904.6875 L 852.382812 484.6875 " transform="matrix(0.1, 0, 0, -0.1, 0, 200)"/>
<path fill-rule="nonzero" fill="rgb(75.193787%, 65.234375%, 75.193787%)" fill-opacity="1" stroke-width="7.36" stroke-linecap="round" stroke-linejoin="round" stroke="rgb(0%, 0%, 0%)" stroke-opacity="1" stroke-miterlimit="10" d="M 1019.296875 1364.609375 L 1035.234375 904.6875 L 1492.890625 896.757812 " transform="matrix(0.1, 0, 0, -0.1, 0, 200)"/>
<path fill-rule="nonzero" fill="rgb(66.209412%, 51.5625%, 67.381287%)" fill-opacity="1" d="M 103.523438 109.53125 L 57.699219 113.335938 L 85.238281 151.53125 "/>
<path fill="none" stroke-width="7.36" stroke-linecap="round" stroke-linejoin="round" stroke="rgb(0%, 0%, 0%)" stroke-opacity="1" stroke-miterlimit="10" d="M 1035.234375 904.6875 L 576.992188 866.640625 L 852.382812 484.6875 Z M 1035.234375 904.6875 " transform="matrix(0.1, 0, 0, -0.1, 0, 200)"/>
<path fill-rule="nonzero" fill="rgb(65.625%, 57.03125%, 74.804688%)" fill-opacity="1" stroke-width="7.36" stroke-linecap="round" stroke-linejoin="round" stroke="rgb(0%, 0%, 0%)" stroke-opacity="1" stroke-miterlimit="10" d="M 576.992188 866.640625 L 1035.234375 904.6875 L 1019.296875 1364.609375 " transform="matrix(0.1, 0, 0, -0.1, 0, 200)"/>
</svg>
