<?xml version="1.0" encoding="UTF-8"?>
<svg xmlns="http://www.w3.org/2000/svg" xmlns:xlink="http://www.w3.org/1999/xlink" width="282" height="176" viewBox="0 0 282 176">
<path fill="none" stroke-width="11.2453" stroke-linecap="round" stroke-linejoin="round" stroke="rgb(0%, 0%, 0%)" stroke-opacity="1" stroke-miterlimit="10" d="M 216.835938 1358.28125 L 157.578125 1175.9375 L 339.882812 1116.71875 L 399.140625 1299.023438 L 216.835938 1358.28125 " transform="matrix(0.1, 0, 0, -0.1, 0, 176)"/>
<path fill="none" stroke-width="11.2453" stroke-linecap="round" stroke-linejoin="round" stroke="rgb(0%, 0%, 0%)" stroke-opacity="1" stroke-miterlimit="10" d="M 399.140625 1299.023438 L 339.882812 1116.71875 L 527.421875 1156.5625 L 399.140625 1299.023438 " transform="matrix(0.1, 0, 0, -0.1, 0, 176)"/>
<path fill="none" stroke-width="11.2453" stroke-linecap="round" stroke-linejoin="round" stroke="rgb(0%, 0%, 0%)" stroke-opacity="1" stroke-miterlimit="10" d="M 339.882812 1116.71875 L 379.765625 929.179688 L 567.265625 969.0625 L 527.421875 1156.5625 L 339.882812 1116.71875 " transform="matrix(0.1, 0, 0, -0.1, 0, 176)"/>
<path fill="none" stroke-width="11.2453" stroke-linecap="round" stroke-linejoin="round" stroke="rgb(0%, 0%, 0%)" stroke-opacity="1" stroke-miterlimit="10" d="M 149.21875 1136.757812 L 71.289062 961.640625 L 213.710938 833.359375 L 379.765625 929.179688 L 339.882812 1116.71875 L 149.21875 1136.757812 " transform="matrix(0.1, 0, 0, -0.1, 0, 176)"/>
<path fill="none" stroke-width="11.2453" stroke-linecap="round" stroke-linejoin="round" stroke="rgb(0%, 0%, 0%)" stroke-opacity="1" stroke-miterlimit="10" d="M 237.265625 800.9375 L 419.609375 741.71875 L 379.765625 929.179688 L 237.265625 800.9375 " transform="matrix(0.1, 0, 0, -0.1, 0, 176)"/>
<path fill="none" stroke-width="11.2453" stroke-linecap="round" stroke-linejoin="round" stroke="rgb(0%, 0%, 0%)" stroke-opacity="1" stroke-miterlimit="10" d="M 379.765625 929.179688 L 419.609375 741.71875 L 607.109375 781.5625 L 567.265625 969.0625 L 379.765625 929.179688 " transform="matrix(0.1, 0, 0, -0.1, 0, 176)"/>
<path fill="none" stroke-width="11.2453" stroke-linecap="round" stroke-linejoin="round" stroke="rgb(0%, 0%, 0%)" stroke-opacity="1" stroke-miterlimit="10" d="M 178.046875 618.632812 L 360.351562 559.414062 L 419.609375 741.71875 L 237.265625 800.9375 L 178.046875 618.632812 " transform="matrix(0.1, 0, 0, -0.1, 0, 176)"/>
<path fill="none" stroke-width="11.2453" stroke-linecap="round" stroke-linejoin="round" stroke="rgb(0%, 0%, 0%)" stroke-opacity="1" stroke-miterlimit="10" d="M 178.046875 618.632812 L 217.929688 431.132812 L 360.351562 559.414062 L 178.046875 618.632812 " transform="matrix(0.1, 0, 0, -0.1, 0, 176)"/>
<path fill="none" stroke-width="11.2453" stroke-linecap="round" stroke-linejoin="round" stroke="rgb(0%, 0%, 0%)" stroke-opacity="1" stroke-miterlimit="10" d="M 217.929688 431.132812 L 346.171875 288.671875 L 488.632812 416.914062 L 360.351562 559.414062 L 217.929688 431.132812 " transform="matrix(0.1, 0, 0, -0.1, 0, 176)"/>
<path fill="none" stroke-width="11.2453" stroke-linecap="round" stroke-linejoin="round" stroke="rgb(0%, 0%, 0%)" stroke-opacity="1" stroke-miterlimit="10" d="M 360.351562 559.414062 L 488.632812 416.914062 L 663.75 494.921875 L 643.710938 685.546875 L 456.210938 725.390625 L 360.351562 559.414062 " transform="matrix(0.1, 0, 0, -0.1, 0, 176)"/>
<path fill="none" stroke-width="11.2453" stroke-linecap="round" stroke-linejoin="round" stroke="rgb(0%, 0%, 0%)" stroke-opacity="1" stroke-miterlimit="10" d="M 346.171875 288.671875 L 528.515625 229.414062 L 488.632812 416.914062 L 346.171875 288.671875 " transform="matrix(0.1, 0, 0, -0.1, 0, 176)"/>
<path fill="none" stroke-width="11.2453" stroke-linecap="round" stroke-linejoin="round" stroke="rgb(0%, 0%, 0%)" stroke-opacity="1" stroke-miterlimit="10" d="M 488.632812 416.914062 L 528.515625 229.414062 L 715.976562 269.257812 L 676.171875 456.796875 L 488.632812 416.914062 " transform="matrix(0.1, 0, 0, -0.1, 0, 176)"/>
<path fill="none" stroke-width="11.2453" stroke-linecap="round" stroke-linejoin="round" stroke="rgb(0%, 0%, 0%)" stroke-opacity="1" stroke-miterlimit="10" d="M 729.101562 1467.1875 L 669.84375 1284.84375 L 852.1875 1225.625 L 911.40625 1407.929688 L 729.101562 1467.1875 " transform="matrix(0.1, 0, 0, -0.1, 0, 176)"/>
<path fill="none" stroke-width="11.2453" stroke-linecap="round" stroke-linejoin="round" stroke="rgb(0%, 0%, 0%)" stroke-opacity="1" stroke-miterlimit="10" d="M 911.40625 1407.929688 L 852.1875 1225.625 L 1039.6875 1265.46875 L 911.40625 1407.929688 " transform="matrix(0.1, 0, 0, -0.1, 0, 176)"/>
<path fill="none" stroke-width="11.2453" stroke-linecap="round" stroke-linejoin="round" stroke="rgb(0%, 0%, 0%)" stroke-opacity="1" stroke-miterlimit="10" d="M 852.1875 1225.625 L 892.03125 1038.125 L 1079.570312 1077.96875 L 1039.6875 1265.46875 L 852.1875 1225.625 " transform="matrix(0.1, 0, 0, -0.1, 0, 176)"/>
<path fill="none" stroke-width="11.2453" stroke-linecap="round" stroke-linejoin="round" stroke="rgb(0%, 0%, 0%)" stroke-opacity="1" stroke-miterlimit="10" d="M 661.5625 1245.625 L 583.554688 1070.507812 L 726.015625 942.226562 L 892.03125 1038.125 L 852.1875 1225.625 L 661.5625 1245.625 " transform="matrix(0.1, 0, 0, -0.1, 0, 176)"/>
<path fill="none" stroke-width="11.2453" stroke-linecap="round" stroke-linejoin="round" stroke="rgb(0%, 0%, 0%)" stroke-opacity="1" stroke-miterlimit="10" d="M 892.03125 1038.125 L 1020.3125 895.625 L 1079.570312 1077.96875 L 892.03125 1038.125 " transform="matrix(0.1, 0, 0, -0.1, 0, 176)"/>
<path fill="none" stroke-width="11.2453" stroke-linecap="round" stroke-linejoin="round" stroke="rgb(0%, 0%, 0%)" stroke-opacity="1" stroke-miterlimit="10" d="M 1079.570312 1077.96875 L 1020.3125 895.625 L 1202.65625 836.40625 L 1261.875 1018.710938 L 1079.570312 1077.96875 " transform="matrix(0.1, 0, 0, -0.1, 0, 176)"/>
<path fill="none" stroke-width="11.2453" stroke-linecap="round" stroke-linejoin="round" stroke="rgb(0%, 0%, 0%)" stroke-opacity="1" stroke-miterlimit="10" d="M 749.609375 909.84375 L 877.851562 767.382812 L 1020.3125 895.625 L 892.03125 1038.125 L 749.609375 909.84375 " transform="matrix(0.1, 0, 0, -0.1, 0, 176)"/>
<path fill="none" stroke-width="11.2453" stroke-linecap="round" stroke-linejoin="round" stroke="rgb(0%, 0%, 0%)" stroke-opacity="1" stroke-miterlimit="10" d="M 567.265625 969.0625 L 607.109375 781.5625 L 749.609375 909.84375 L 567.265625 969.0625 " transform="matrix(0.1, 0, 0, -0.1, 0, 176)"/>
<path fill="none" stroke-width="11.2453" stroke-linecap="round" stroke-linejoin="round" stroke="rgb(0%, 0%, 0%)" stroke-opacity="1" stroke-miterlimit="10" d="M 607.109375 781.5625 L 735.390625 639.101562 L 877.851562 767.382812 L 749.609375 909.84375 L 607.109375 781.5625 " transform="matrix(0.1, 0, 0, -0.1, 0, 176)"/>
<path fill="none" stroke-width="11.2453" stroke-linecap="round" stroke-linejoin="round" stroke="rgb(0%, 0%, 0%)" stroke-opacity="1" stroke-miterlimit="10" d="M 877.851562 767.382812 L 917.695312 579.84375 L 1108.359375 559.804688 L 1186.328125 734.921875 L 1043.867188 863.203125 L 877.851562 767.382812 " transform="matrix(0.1, 0, 0, -0.1, 0, 176)"/>
<path fill="none" stroke-width="11.2453" stroke-linecap="round" stroke-linejoin="round" stroke="rgb(0%, 0%, 0%)" stroke-opacity="1" stroke-miterlimit="10" d="M 735.390625 639.101562 L 917.695312 579.84375 L 877.851562 767.382812 L 735.390625 639.101562 " transform="matrix(0.1, 0, 0, -0.1, 0, 176)"/>
<path fill="none" stroke-width="11.2453" stroke-linecap="round" stroke-linejoin="round" stroke="rgb(0%, 0%, 0%)" stroke-opacity="1" stroke-miterlimit="10" d="M 715.976562 269.257812 L 528.515625 229.414062 L 568.359375 41.914062 L 755.859375 81.757812 L 715.976562 269.257812 " transform="matrix(0.1, 0, 0, -0.1, 0, 176)"/>
<path fill="none" stroke-width="11.2453" stroke-linecap="round" stroke-linejoin="round" stroke="rgb(0%, 0%, 0%)" stroke-opacity="1" stroke-miterlimit="10" d="M 1346.757812 1584.960938 L 1250.9375 1418.945312 L 1416.953125 1323.085938 L 1512.8125 1489.101562 L 1346.757812 1584.960938 " transform="matrix(0.1, 0, 0, -0.1, 0, 176)"/>
<path fill="none" stroke-width="11.2453" stroke-linecap="round" stroke-linejoin="round" stroke="rgb(0%, 0%, 0%)" stroke-opacity="1" stroke-miterlimit="10" d="M 1512.8125 1489.101562 L 1416.953125 1323.085938 L 1608.632812 1323.085938 L 1512.8125 1489.101562 " transform="matrix(0.1, 0, 0, -0.1, 0, 176)"/>
<path fill="none" stroke-width="11.2453" stroke-linecap="round" stroke-linejoin="round" stroke="rgb(0%, 0%, 0%)" stroke-opacity="1" stroke-miterlimit="10" d="M 1416.953125 1323.085938 L 1416.953125 1131.40625 L 1608.632812 1131.40625 L 1608.632812 1323.085938 L 1416.953125 1323.085938 " transform="matrix(0.1, 0, 0, -0.1, 0, 176)"/>
<path fill="none" stroke-width="11.2453" stroke-linecap="round" stroke-linejoin="round" stroke="rgb(0%, 0%, 0%)" stroke-opacity="1" stroke-miterlimit="10" d="M 1234.648438 1382.34375 L 1121.953125 1227.265625 L 1234.648438 1072.148438 L 1416.953125 1131.40625 L 1416.953125 1323.085938 L 1234.648438 1382.34375 " transform="matrix(0.1, 0, 0, -0.1, 0, 176)"/>
<path fill="none" stroke-width="11.2453" stroke-linecap="round" stroke-linejoin="round" stroke="rgb(0%, 0%, 0%)" stroke-opacity="1" stroke-miterlimit="10" d="M 1822.96875 836.40625 L 1763.75 1018.710938 L 1608.632812 1131.40625 L 1416.953125 1131.40625 L 1261.875 1018.710938 L 1202.65625 836.40625 L 1261.875 654.0625 L 1416.953125 541.40625 L 1608.632812 541.40625 L 1763.75 654.0625 L 1822.96875 836.40625 " transform="matrix(0.1, 0, 0, -0.1, 0, 176)"/>
<path fill="none" stroke-width="11.2453" stroke-linecap="round" stroke-linejoin="round" stroke="rgb(0%, 0%, 0%)" stroke-opacity="1" stroke-miterlimit="10" d="M 2047.695312 1528.046875 L 1892.617188 1415.351562 L 2005.3125 1260.273438 L 2160.351562 1372.96875 L 2047.695312 1528.046875 " transform="matrix(0.1, 0, 0, -0.1, 0, 176)"/>
<path fill="none" stroke-width="11.2453" stroke-linecap="round" stroke-linejoin="round" stroke="rgb(0%, 0%, 0%)" stroke-opacity="1" stroke-miterlimit="10" d="M 2160.351562 1372.96875 L 2005.3125 1260.273438 L 1946.054688 1077.96875 L 2005.3125 895.625 L 2160.351562 782.96875 L 2352.070312 782.96875 L 2507.1875 895.625 L 2566.40625 1077.96875 L 2507.1875 1260.273438 L 2352.070312 1372.96875 L 2160.351562 1372.96875 " transform="matrix(0.1, 0, 0, -0.1, 0, 176)"/>
<path fill="none" stroke-width="11.2453" stroke-linecap="round" stroke-linejoin="round" stroke="rgb(0%, 0%, 0%)" stroke-opacity="1" stroke-miterlimit="10" d="M 1850.195312 1372.96875 L 1695.117188 1260.273438 L 1754.375 1077.96875 L 1946.054688 1077.96875 L 2005.3125 1260.273438 L 1850.195312 1372.96875 " transform="matrix(0.1, 0, 0, -0.1, 0, 176)"/>
<path fill="none" stroke-width="11.2453" stroke-linecap="round" stroke-linejoin="round" stroke="rgb(0%, 0%, 0%)" stroke-opacity="1" stroke-miterlimit="10" d="M 1763.75 1018.710938 L 1822.96875 836.40625 L 2005.3125 895.625 L 1946.054688 1077.96875 L 1763.75 1018.710938 " transform="matrix(0.1, 0, 0, -0.1, 0, 176)"/>
<path fill="none" stroke-width="11.2453" stroke-linecap="round" stroke-linejoin="round" stroke="rgb(0%, 0%, 0%)" stroke-opacity="1" stroke-miterlimit="10" d="M 1822.96875 836.40625 L 1763.75 654.0625 L 1918.828125 541.40625 L 2073.90625 654.0625 L 2014.6875 836.40625 L 1822.96875 836.40625 " transform="matrix(0.1, 0, 0, -0.1, 0, 176)"/>
<path fill="none" stroke-width="11.2453" stroke-linecap="round" stroke-linejoin="round" stroke="rgb(0%, 0%, 0%)" stroke-opacity="1" stroke-miterlimit="10" d="M 1763.75 654.0625 L 1608.632812 541.40625 L 1721.328125 386.328125 L 1876.445312 499.023438 L 1763.75 654.0625 " transform="matrix(0.1, 0, 0, -0.1, 0, 176)"/>
<path fill="none" stroke-width="11.2453" stroke-linecap="round" stroke-linejoin="round" stroke="rgb(0%, 0%, 0%)" stroke-opacity="1" stroke-miterlimit="10" d="M 2566.40625 1077.96875 L 2507.1875 895.625 L 2689.492188 836.40625 L 2748.710938 1018.710938 L 2566.40625 1077.96875 " transform="matrix(0.1, 0, 0, -0.1, 0, 176)"/>
<path fill="none" stroke-width="11.2453" stroke-linecap="round" stroke-linejoin="round" stroke="rgb(0%, 0%, 0%)" stroke-opacity="1" stroke-miterlimit="10" d="M 2160.351562 782.96875 L 2160.351562 591.289062 L 2352.070312 591.289062 L 2352.070312 782.96875 L 2160.351562 782.96875 " transform="matrix(0.1, 0, 0, -0.1, 0, 176)"/>
<path fill="none" stroke-width="11.2453" stroke-linecap="round" stroke-linejoin="round" stroke="rgb(0%, 0%, 0%)" stroke-opacity="1" stroke-miterlimit="10" d="M 2352.070312 782.96875 L 2352.070312 591.289062 L 2534.375 532.03125 L 2647.070312 687.109375 L 2534.375 842.226562 L 2352.070312 782.96875 " transform="matrix(0.1, 0, 0, -0.1, 0, 176)"/>
<path fill="none" stroke-width="11.2453" stroke-linecap="round" stroke-linejoin="round" stroke="rgb(0%, 0%, 0%)" stroke-opacity="1" stroke-miterlimit="10" d="M 2160.351562 591.289062 L 2256.210938 425.234375 L 2352.070312 591.289062 L 2160.351562 591.289062 " transform="matrix(0.1, 0, 0, -0.1, 0, 176)"/>
<path fill="none" stroke-width="11.2453" stroke-linecap="round" stroke-linejoin="round" stroke="rgb(0%, 0%, 0%)" stroke-opacity="1" stroke-miterlimit="10" d="M 2352.070312 591.289062 L 2256.210938 425.234375 L 2422.265625 329.414062 L 2518.125 495.390625 L 2352.070312 591.289062 " transform="matrix(0.1, 0, 0, -0.1, 0, 176)"/>
<path fill="none" stroke-width="11.2453" stroke-linecap="round" stroke-linejoin="round" stroke="rgb(0%, 0%, 0%)" stroke-opacity="1" stroke-miterlimit="10" d="M 729.101562 1658.867188 L 729.101562 1467.1875 L 911.40625 1407.929688 L 1024.101562 1563.007812 L 911.40625 1718.125 L 729.101562 1658.867188 " transform="matrix(0.1, 0, 0, -0.1, 0, 176)"/>
<path fill="none" stroke-width="11.2453" stroke-linecap="round" stroke-linejoin="round" stroke="rgb(0%, 0%, 0%)" stroke-opacity="1" stroke-miterlimit="10" d="M 2256.210938 425.234375 L 2113.75 296.992188 L 2191.757812 121.835938 L 2382.382812 141.875 L 2422.265625 329.414062 L 2256.210938 425.234375 " transform="matrix(0.1, 0, 0, -0.1, 0, 176)"/>
</svg>
