<?xml version="1.0" encoding="UTF-8"?>
<svg xmlns="http://www.w3.org/2000/svg" xmlns:xlink="http://www.w3.org/1999/xlink" width="282" height="168" viewBox="0 0 282 168">
<path fill="none" stroke-width="11.2414" stroke-linecap="round" stroke-linejoin="round" stroke="rgb(0%, 0%, 0%)" stroke-opacity="1" stroke-miterlimit="10" d="M 131.757812 1178.359375 L 111.679688 987.265625 L 302.773438 967.148438 L 322.851562 1158.242188 L 131.757812 1178.359375 " transform="matrix(0.1, 0, 0, -0.1, 0, 168)"/>
<path fill="none" stroke-width="11.2414" stroke-linecap="round" stroke-linejoin="round" stroke="rgb(0%, 0%, 0%)" stroke-opacity="1" stroke-miterlimit="10" d="M 322.851562 1158.242188 L 302.773438 967.148438 L 478.320312 1045.3125 L 322.851562 1158.242188 " transform="matrix(0.1, 0, 0, -0.1, 0, 168)"/>
<path fill="none" stroke-width="11.2414" stroke-linecap="round" stroke-linejoin="round" stroke="rgb(0%, 0%, 0%)" stroke-opacity="1" stroke-miterlimit="10" d="M 302.773438 967.148438 L 380.9375 791.601562 L 556.484375 869.765625 L 478.320312 1045.3125 L 302.773438 967.148438 " transform="matrix(0.1, 0, 0, -0.1, 0, 168)"/>
<path fill="none" stroke-width="11.2414" stroke-linecap="round" stroke-linejoin="round" stroke="rgb(0%, 0%, 0%)" stroke-opacity="1" stroke-miterlimit="10" d="M 111.679688 947.109375 L 71.757812 759.140625 L 238.125 663.046875 L 380.9375 791.601562 L 302.773438 967.148438 L 111.679688 947.109375 " transform="matrix(0.1, 0, 0, -0.1, 0, 168)"/>
<path fill="none" stroke-width="11.2414" stroke-linecap="round" stroke-linejoin="round" stroke="rgb(0%, 0%, 0%)" stroke-opacity="1" stroke-miterlimit="10" d="M 873.007812 687.03125 L 744.414062 829.84375 L 556.484375 869.765625 L 380.9375 791.601562 L 284.882812 625.234375 L 304.921875 434.101562 L 433.515625 291.328125 L 621.484375 251.40625 L 796.992188 329.53125 L 893.085938 495.9375 L 873.007812 687.03125 " transform="matrix(0.1, 0, 0, -0.1, 0, 168)"/>
<path fill="none" stroke-width="11.2414" stroke-linecap="round" stroke-linejoin="round" stroke="rgb(0%, 0%, 0%)" stroke-opacity="1" stroke-miterlimit="10" d="M 723.90625 1388.476562 L 664.53125 1205.742188 L 847.265625 1146.328125 L 906.640625 1329.101562 L 723.90625 1388.476562 " transform="matrix(0.1, 0, 0, -0.1, 0, 168)"/>
<path fill="none" stroke-width="11.2414" stroke-linecap="round" stroke-linejoin="round" stroke="rgb(0%, 0%, 0%)" stroke-opacity="1" stroke-miterlimit="10" d="M 906.640625 1329.101562 L 847.265625 1146.328125 L 1035.195312 1186.289062 L 906.640625 1329.101562 " transform="matrix(0.1, 0, 0, -0.1, 0, 168)"/>
<path fill="none" stroke-width="11.2414" stroke-linecap="round" stroke-linejoin="round" stroke="rgb(0%, 0%, 0%)" stroke-opacity="1" stroke-miterlimit="10" d="M 847.265625 1146.328125 L 887.226562 958.398438 L 1075.195312 998.359375 L 1035.195312 1186.289062 L 847.265625 1146.328125 " transform="matrix(0.1, 0, 0, -0.1, 0, 168)"/>
<path fill="none" stroke-width="11.2414" stroke-linecap="round" stroke-linejoin="round" stroke="rgb(0%, 0%, 0%)" stroke-opacity="1" stroke-miterlimit="10" d="M 656.171875 1166.445312 L 578.007812 990.898438 L 720.820312 862.34375 L 887.226562 958.398438 L 847.265625 1146.328125 L 656.171875 1166.445312 " transform="matrix(0.1, 0, 0, -0.1, 0, 168)"/>
<path fill="none" stroke-width="11.2414" stroke-linecap="round" stroke-linejoin="round" stroke="rgb(0%, 0%, 0%)" stroke-opacity="1" stroke-miterlimit="10" d="M 887.226562 958.398438 L 1015.78125 815.625 L 1075.195312 998.359375 L 887.226562 958.398438 " transform="matrix(0.1, 0, 0, -0.1, 0, 168)"/>
<path fill="none" stroke-width="11.2414" stroke-linecap="round" stroke-linejoin="round" stroke="rgb(0%, 0%, 0%)" stroke-opacity="1" stroke-miterlimit="10" d="M 1075.195312 998.359375 L 1015.78125 815.625 L 1198.554688 756.25 L 1257.890625 938.984375 L 1075.195312 998.359375 " transform="matrix(0.1, 0, 0, -0.1, 0, 168)"/>
<path fill="none" stroke-width="11.2414" stroke-linecap="round" stroke-linejoin="round" stroke="rgb(0%, 0%, 0%)" stroke-opacity="1" stroke-miterlimit="10" d="M 744.414062 829.84375 L 873.007812 687.03125 L 1015.78125 815.625 L 887.226562 958.398438 L 744.414062 829.84375 " transform="matrix(0.1, 0, 0, -0.1, 0, 168)"/>
<path fill="none" stroke-width="11.2414" stroke-linecap="round" stroke-linejoin="round" stroke="rgb(0%, 0%, 0%)" stroke-opacity="1" stroke-miterlimit="10" d="M 873.007812 687.03125 L 893.085938 495.9375 L 1081.015625 455.976562 L 1177.109375 622.382812 L 1048.515625 765.195312 L 873.007812 687.03125 " transform="matrix(0.1, 0, 0, -0.1, 0, 168)"/>
<path fill="none" stroke-width="11.2414" stroke-linecap="round" stroke-linejoin="round" stroke="rgb(0%, 0%, 0%)" stroke-opacity="1" stroke-miterlimit="10" d="M 893.085938 495.9375 L 796.992188 329.53125 L 963.398438 233.4375 L 1059.492188 399.84375 L 893.085938 495.9375 " transform="matrix(0.1, 0, 0, -0.1, 0, 168)"/>
<path fill="none" stroke-width="11.2414" stroke-linecap="round" stroke-linejoin="round" stroke="rgb(0%, 0%, 0%)" stroke-opacity="1" stroke-miterlimit="10" d="M 1343.046875 1506.5625 L 1246.953125 1340.15625 L 1413.359375 1244.0625 L 1509.414062 1410.46875 L 1343.046875 1506.5625 " transform="matrix(0.1, 0, 0, -0.1, 0, 168)"/>
<path fill="none" stroke-width="11.2414" stroke-linecap="round" stroke-linejoin="round" stroke="rgb(0%, 0%, 0%)" stroke-opacity="1" stroke-miterlimit="10" d="M 1509.414062 1410.46875 L 1413.359375 1244.0625 L 1605.507812 1244.0625 L 1509.414062 1410.46875 " transform="matrix(0.1, 0, 0, -0.1, 0, 168)"/>
<path fill="none" stroke-width="11.2414" stroke-linecap="round" stroke-linejoin="round" stroke="rgb(0%, 0%, 0%)" stroke-opacity="1" stroke-miterlimit="10" d="M 1413.359375 1244.0625 L 1413.359375 1051.914062 L 1605.507812 1051.914062 L 1605.507812 1244.0625 L 1413.359375 1244.0625 " transform="matrix(0.1, 0, 0, -0.1, 0, 168)"/>
<path fill="none" stroke-width="11.2414" stroke-linecap="round" stroke-linejoin="round" stroke="rgb(0%, 0%, 0%)" stroke-opacity="1" stroke-miterlimit="10" d="M 1230.625 1303.4375 L 1117.65625 1148.007812 L 1230.625 992.539062 L 1413.359375 1051.914062 L 1413.359375 1244.0625 L 1230.625 1303.4375 " transform="matrix(0.1, 0, 0, -0.1, 0, 168)"/>
<path fill="none" stroke-width="11.2414" stroke-linecap="round" stroke-linejoin="round" stroke="rgb(0%, 0%, 0%)" stroke-opacity="1" stroke-miterlimit="10" d="M 1820.351562 756.25 L 1760.976562 938.984375 L 1605.507812 1051.914062 L 1413.359375 1051.914062 L 1257.890625 938.984375 L 1198.554688 756.25 L 1257.890625 573.476562 L 1413.359375 460.546875 L 1605.507812 460.546875 L 1760.976562 573.476562 L 1820.351562 756.25 " transform="matrix(0.1, 0, 0, -0.1, 0, 168)"/>
<path fill="none" stroke-width="11.2414" stroke-linecap="round" stroke-linejoin="round" stroke="rgb(0%, 0%, 0%)" stroke-opacity="1" stroke-miterlimit="10" d="M 2045.585938 1449.492188 L 1890.15625 1336.5625 L 2003.085938 1181.09375 L 2158.554688 1294.023438 L 2045.585938 1449.492188 " transform="matrix(0.1, 0, 0, -0.1, 0, 168)"/>
<path fill="none" stroke-width="11.2414" stroke-linecap="round" stroke-linejoin="round" stroke="rgb(0%, 0%, 0%)" stroke-opacity="1" stroke-miterlimit="10" d="M 2158.554688 1294.023438 L 2003.085938 1181.09375 L 1943.710938 998.359375 L 2003.085938 815.625 L 2158.554688 702.65625 L 2350.664062 702.65625 L 2506.132812 815.625 L 2565.507812 998.359375 L 2506.132812 1181.09375 L 2350.664062 1294.023438 L 2158.554688 1294.023438 " transform="matrix(0.1, 0, 0, -0.1, 0, 168)"/>
<path fill="none" stroke-width="11.2414" stroke-linecap="round" stroke-linejoin="round" stroke="rgb(0%, 0%, 0%)" stroke-opacity="1" stroke-miterlimit="10" d="M 1847.617188 1294.023438 L 1692.1875 1181.09375 L 1751.5625 998.359375 L 1943.710938 998.359375 L 2003.085938 1181.09375 L 1847.617188 1294.023438 " transform="matrix(0.1, 0, 0, -0.1, 0, 168)"/>
<path fill="none" stroke-width="11.2414" stroke-linecap="round" stroke-linejoin="round" stroke="rgb(0%, 0%, 0%)" stroke-opacity="1" stroke-miterlimit="10" d="M 1760.976562 938.984375 L 1820.351562 756.25 L 2003.085938 815.625 L 1943.710938 998.359375 L 1760.976562 938.984375 " transform="matrix(0.1, 0, 0, -0.1, 0, 168)"/>
<path fill="none" stroke-width="11.2414" stroke-linecap="round" stroke-linejoin="round" stroke="rgb(0%, 0%, 0%)" stroke-opacity="1" stroke-miterlimit="10" d="M 1820.351562 756.25 L 1760.976562 573.476562 L 1916.445312 460.546875 L 2071.875 573.476562 L 2012.460938 756.25 L 1820.351562 756.25 " transform="matrix(0.1, 0, 0, -0.1, 0, 168)"/>
<path fill="none" stroke-width="11.2414" stroke-linecap="round" stroke-linejoin="round" stroke="rgb(0%, 0%, 0%)" stroke-opacity="1" stroke-miterlimit="10" d="M 1760.976562 573.476562 L 1605.507812 460.546875 L 1718.476562 305.078125 L 1873.90625 418.046875 L 1760.976562 573.476562 " transform="matrix(0.1, 0, 0, -0.1, 0, 168)"/>
<path fill="none" stroke-width="11.2414" stroke-linecap="round" stroke-linejoin="round" stroke="rgb(0%, 0%, 0%)" stroke-opacity="1" stroke-miterlimit="10" d="M 2565.507812 998.359375 L 2506.132812 815.625 L 2688.867188 756.25 L 2748.242188 938.984375 L 2565.507812 998.359375 " transform="matrix(0.1, 0, 0, -0.1, 0, 168)"/>
<path fill="none" stroke-width="11.2414" stroke-linecap="round" stroke-linejoin="round" stroke="rgb(0%, 0%, 0%)" stroke-opacity="1" stroke-miterlimit="10" d="M 2158.554688 702.65625 L 2158.554688 510.507812 L 2350.664062 510.507812 L 2350.664062 702.65625 L 2158.554688 702.65625 " transform="matrix(0.1, 0, 0, -0.1, 0, 168)"/>
<path fill="none" stroke-width="11.2414" stroke-linecap="round" stroke-linejoin="round" stroke="rgb(0%, 0%, 0%)" stroke-opacity="1" stroke-miterlimit="10" d="M 2350.664062 702.65625 L 2350.664062 510.507812 L 2533.4375 451.132812 L 2646.40625 606.601562 L 2533.4375 762.070312 L 2350.664062 702.65625 " transform="matrix(0.1, 0, 0, -0.1, 0, 168)"/>
<path fill="none" stroke-width="11.2414" stroke-linecap="round" stroke-linejoin="round" stroke="rgb(0%, 0%, 0%)" stroke-opacity="1" stroke-miterlimit="10" d="M 2158.554688 510.507812 L 2254.648438 344.101562 L 2350.664062 510.507812 L 2158.554688 510.507812 " transform="matrix(0.1, 0, 0, -0.1, 0, 168)"/>
<path fill="none" stroke-width="11.2414" stroke-linecap="round" stroke-linejoin="round" stroke="rgb(0%, 0%, 0%)" stroke-opacity="1" stroke-miterlimit="10" d="M 2350.664062 510.507812 L 2254.648438 344.101562 L 2421.015625 248.046875 L 2517.070312 414.453125 L 2350.664062 510.507812 " transform="matrix(0.1, 0, 0, -0.1, 0, 168)"/>
<path fill="none" stroke-width="11.2414" stroke-linecap="round" stroke-linejoin="round" stroke="rgb(0%, 0%, 0%)" stroke-opacity="1" stroke-miterlimit="10" d="M 723.90625 1580.625 L 723.90625 1388.476562 L 906.640625 1329.101562 L 1019.609375 1484.53125 L 906.640625 1640 L 723.90625 1580.625 " transform="matrix(0.1, 0, 0, -0.1, 0, 168)"/>
<path fill="none" stroke-width="11.2414" stroke-linecap="round" stroke-linejoin="round" stroke="rgb(0%, 0%, 0%)" stroke-opacity="1" stroke-miterlimit="10" d="M 2254.648438 344.101562 L 2111.835938 215.507812 L 2189.960938 40 L 2381.054688 60.078125 L 2421.015625 248.046875 L 2254.648438 344.101562 " transform="matrix(0.1, 0, 0, -0.1, 0, 168)"/>
</svg>
