<?xml version="1.0" encoding="UTF-8"?>
<svg xmlns="http://www.w3.org/2000/svg" xmlns:xlink="http://www.w3.org/1999/xlink" width="116" height="201" viewBox="0 0 116 201">
<path fill="none" stroke-width="4.64" stroke-linecap="round" stroke-linejoin="round" stroke="rgb(0%, 0%, 0%)" stroke-opacity="1" stroke-miterlimit="10" d="M 395.859375 1961.757812 L 395.859375 1536.523438 L 764.140625 1749.140625 L 395.859375 1961.757812 " transform="matrix(0.1, 0, 0, -0.1, 0, 201)"/>
<path fill="none" stroke-width="4.64" stroke-linecap="round" stroke-linejoin="round" stroke="rgb(0%, 0%, 0%)" stroke-opacity="1" stroke-miterlimit="10" d="M 764.140625 1749.140625 L 395.859375 1536.523438 L 764.140625 1323.90625 L 764.140625 1749.140625 " transform="matrix(0.1, 0, 0, -0.1, 0, 201)"/>
<path fill="none" stroke-width="4.64" stroke-linecap="round" stroke-linejoin="round" stroke="rgb(0%, 0%, 0%)" stroke-opacity="1" stroke-miterlimit="10" d="M 764.140625 1749.140625 L 764.140625 1323.90625 L 1132.382812 1536.523438 L 764.140625 1749.140625 " transform="matrix(0.1, 0, 0, -0.1, 0, 201)"/>
<path fill="none" stroke-width="4.64" stroke-linecap="round" stroke-linejoin="round" stroke="rgb(0%, 0%, 0%)" stroke-opacity="1" stroke-miterlimit="10" d="M 395.859375 1111.328125 L 395.859375 1536.523438 L 27.617188 1323.90625 L 395.859375 1111.328125 " transform="matrix(0.1, 0, 0, -0.1, 0, 201)"/>
<path fill="none" stroke-width="4.64" stroke-linecap="round" stroke-linejoin="round" stroke="rgb(0%, 0%, 0%)" stroke-opacity="1" stroke-miterlimit="10" d="M 395.859375 1536.523438 L 395.859375 1111.328125 L 764.140625 1323.90625 L 395.859375 1536.523438 " transform="matrix(0.1, 0, 0, -0.1, 0, 201)"/>
<path fill="none" stroke-width="4.64" stroke-linecap="round" stroke-linejoin="round" stroke="rgb(0%, 0%, 0%)" stroke-opacity="1" stroke-miterlimit="10" d="M 764.140625 1323.90625 L 395.859375 1111.328125 L 764.140625 898.671875 L 764.140625 1323.90625 " transform="matrix(0.1, 0, 0, -0.1, 0, 201)"/>
<path fill="none" stroke-width="4.64" stroke-linecap="round" stroke-linejoin="round" stroke="rgb(0%, 0%, 0%)" stroke-opacity="1" stroke-miterlimit="10" d="M 395.859375 1111.328125 L 395.859375 686.09375 L 764.140625 898.671875 L 395.859375 1111.328125 " transform="matrix(0.1, 0, 0, -0.1, 0, 201)"/>
<path fill="none" stroke-width="4.64" stroke-linecap="round" stroke-linejoin="round" stroke="rgb(0%, 0%, 0%)" stroke-opacity="1" stroke-miterlimit="10" d="M 764.140625 898.671875 L 395.859375 686.09375 L 764.140625 473.476562 L 764.140625 898.671875 " transform="matrix(0.1, 0, 0, -0.1, 0, 201)"/>
<path fill="none" stroke-width="4.64" stroke-linecap="round" stroke-linejoin="round" stroke="rgb(0%, 0%, 0%)" stroke-opacity="1" stroke-miterlimit="10" d="M 764.140625 898.671875 L 764.140625 473.476562 L 1132.382812 686.09375 L 764.140625 898.671875 " transform="matrix(0.1, 0, 0, -0.1, 0, 201)"/>
<path fill="none" stroke-width="4.64" stroke-linecap="round" stroke-linejoin="round" stroke="rgb(0%, 0%, 0%)" stroke-opacity="1" stroke-miterlimit="10" d="M 395.859375 260.859375 L 395.859375 686.09375 L 27.617188 473.476562 L 395.859375 260.859375 " transform="matrix(0.1, 0, 0, -0.1, 0, 201)"/>
<path fill="none" stroke-width="4.64" stroke-linecap="round" stroke-linejoin="round" stroke="rgb(0%, 0%, 0%)" stroke-opacity="1" stroke-miterlimit="10" d="M 395.859375 686.09375 L 395.859375 260.859375 L 764.140625 473.476562 L 395.859375 686.09375 " transform="matrix(0.1, 0, 0, -0.1, 0, 201)"/>
<path fill="none" stroke-width="4.64" stroke-linecap="round" stroke-linejoin="round" stroke="rgb(0%, 0%, 0%)" stroke-opacity="1" stroke-miterlimit="10" d="M 764.140625 473.476562 L 395.859375 260.859375 L 764.140625 48.242188 L 764.140625 473.476562 " transform="matrix(0.1, 0, 0, -0.1, 0, 201)"/>
</svg>
