<?xml version="1.0" encoding="UTF-8"?>
<svg xmlns="http://www.w3.org/2000/svg" xmlns:xlink="http://www.w3.org/1999/xlink" width="245" height="200" viewBox="0 0 245 200">
<path fill-rule="nonzero" fill="rgb(61.326599%, 55.46875%, 76.367188%)" fill-opacity="1" d="M 192.890625 77.519531 L 182.328125 188.195312 L 99.554688 139.074219 "/>
<path fill="none" stroke-width="7.98" stroke-linecap="round" stroke-linejoin="round" stroke="rgb(0%, 0%, 0%)" stroke-opacity="1" stroke-miterlimit="10" d="M 1928.90625 1224.804688 L 1823.28125 118.046875 L 995.546875 609.257812 Z M 1928.90625 1224.804688 " transform="matrix(0.1, 0, 0, -0.1, 0, 200)"/>
<path fill-rule="nonzero" fill="rgb(79.296875%, 63.671875%, 68.75%)" fill-opacity="1" d="M 99.554688 139.074219 L 7.234375 97.164062 L 90.007812 26.148438 "/>
<path fill="none" stroke-width="7.98" stroke-linecap="round" stroke-linejoin="round" stroke="rgb(0%, 0%, 0%)" stroke-opacity="1" stroke-miterlimit="10" d="M 995.546875 609.257812 L 72.34375 1028.359375 L 900.078125 1738.515625 Z M 995.546875 609.257812 " transform="matrix(0.1, 0, 0, -0.1, 0, 200)"/>
<path fill-rule="nonzero" fill="rgb(83.396912%, 80.46875%, 82.226562%)" fill-opacity="1" d="M 99.554688 139.074219 L 64.464844 196.933594 L 7.234375 97.164062 "/>
<path fill="none" stroke-width="7.98" stroke-linecap="round" stroke-linejoin="round" stroke="rgb(0%, 0%, 0%)" stroke-opacity="1" stroke-miterlimit="10" d="M 995.546875 609.257812 L 644.648438 30.664062 L 72.34375 1028.359375 Z M 995.546875 609.257812 " transform="matrix(0.1, 0, 0, -0.1, 0, 200)"/>
<path fill-rule="nonzero" fill="rgb(67.96875%, 53.514099%, 68.359375%)" fill-opacity="1" d="M 99.554688 139.074219 L 90.007812 26.148438 L 192.890625 77.519531 "/>
<path fill="none" stroke-width="7.98" stroke-linecap="round" stroke-linejoin="round" stroke="rgb(0%, 0%, 0%)" stroke-opacity="1" stroke-miterlimit="10" d="M 995.546875 609.257812 L 900.078125 1738.515625 L 1928.90625 1224.804688 Z M 995.546875 609.257812 " transform="matrix(0.1, 0, 0, -0.1, 0, 200)"/>
<path fill-rule="nonzero" fill="rgb(68.75%, 75.389099%, 90.039062%)" fill-opacity="1" d="M 182.328125 188.195312 L 64.464844 196.933594 L 99.554688 139.074219 "/>
<path fill="none" stroke-width="7.98" stroke-linecap="round" stroke-linejoin="round" stroke="rgb(0%, 0%, 0%)" stroke-opacity="1" stroke-miterlimit="10" d="M 1823.28125 118.046875 L 644.648438 30.664062 L 995.546875 609.257812 Z M 1823.28125 118.046875 " transform="matrix(0.1, 0, 0, -0.1, 0, 200)"/>
<path fill-rule="nonzero" fill="rgb(42.405701%, 7.788086%, 27.293396%)" fill-opacity="1" d="M 90.007812 26.148438 L 147.535156 15.609375 L 192.890625 77.519531 "/>
<path fill="none" stroke-width="7.98" stroke-linecap="round" stroke-linejoin="round" stroke="rgb(0%, 0%, 0%)" stroke-opacity="1" stroke-miterlimit="10" d="M 900.078125 1738.515625 L 1475.351562 1843.90625 L 1928.90625 1224.804688 Z M 900.078125 1738.515625 " transform="matrix(0.1, 0, 0, -0.1, 0, 200)"/>
<path fill-rule="nonzero" fill="rgb(24.19281%, 51.756287%, 91.014099%)" fill-opacity="1" stroke-width="7.98" stroke-linecap="round" stroke-linejoin="round" stroke="rgb(0%, 0%, 0%)" stroke-opacity="1" stroke-miterlimit="10" d="M 589.960938 1066.992188 L 1475.351562 1843.90625 L 900.078125 1738.515625 " transform="matrix(0.1, 0, 0, -0.1, 0, 200)"/>
<path fill-rule="nonzero" fill="rgb(24.19281%, 51.756287%, 91.014099%)" fill-opacity="1" stroke-width="7.98" stroke-linecap="round" stroke-linejoin="round" stroke="rgb(0%, 0%, 0%)" stroke-opacity="1" stroke-miterlimit="10" d="M 900.078125 1738.515625 L 72.34375 1028.359375 L 589.960938 1066.992188 " transform="matrix(0.1, 0, 0, -0.1, 0, 200)"/>
<path fill-rule="nonzero" fill="rgb(33.909607%, 34.202576%, 71.679688%)" fill-opacity="1" d="M 239.0625 102.320312 L 182.328125 188.195312 L 192.890625 77.519531 "/>
<path fill="none" stroke-width="7.98" stroke-linecap="round" stroke-linejoin="round" stroke="rgb(0%, 0%, 0%)" stroke-opacity="1" stroke-miterlimit="10" d="M 2390.625 976.796875 L 1823.28125 118.046875 L 1928.90625 1224.804688 Z M 2390.625 976.796875 " transform="matrix(0.1, 0, 0, -0.1, 0, 200)"/>
<path fill-rule="nonzero" fill="rgb(0%, 0%, 0%)" fill-opacity="1" d="M 192.890625 77.519531 L 147.535156 15.609375 L 239.0625 102.320312 "/>
<path fill="none" stroke-width="7.98" stroke-linecap="round" stroke-linejoin="round" stroke="rgb(0%, 0%, 0%)" stroke-opacity="1" stroke-miterlimit="10" d="M 1928.90625 1224.804688 L 1475.351562 1843.90625 L 2390.625 976.796875 Z M 1928.90625 1224.804688 " transform="matrix(0.1, 0, 0, -0.1, 0, 200)"/>
<path fill-rule="nonzero" fill="rgb(34.008789%, 18.406677%, 51.951599%)" fill-opacity="1" d="M 64.464844 196.933594 L 58.996094 93.300781 L 7.234375 97.164062 "/>
<path fill="none" stroke-width="7.98" stroke-linecap="round" stroke-linejoin="round" stroke="rgb(0%, 0%, 0%)" stroke-opacity="1" stroke-miterlimit="10" d="M 644.648438 30.664062 L 589.960938 1066.992188 L 72.34375 1028.359375 Z M 644.648438 30.664062 " transform="matrix(0.1, 0, 0, -0.1, 0, 200)"/>
<path fill-rule="nonzero" fill="rgb(19.40918%, 0%, 0%)" fill-opacity="1" d="M 182.328125 188.195312 L 153.132812 185.285156 L 64.464844 196.933594 "/>
<path fill="none" stroke-width="7.98" stroke-linecap="round" stroke-linejoin="round" stroke="rgb(0%, 0%, 0%)" stroke-opacity="1" stroke-miterlimit="10" d="M 1823.28125 118.046875 L 1531.328125 147.148438 L 644.648438 30.664062 Z M 1823.28125 118.046875 " transform="matrix(0.1, 0, 0, -0.1, 0, 200)"/>
<path fill-rule="nonzero" fill="rgb(86.521912%, 42.088318%, 11.206055%)" fill-opacity="1" d="M 239.0625 102.320312 L 153.132812 185.285156 L 182.328125 188.195312 "/>
<path fill="none" stroke-width="7.98" stroke-linecap="round" stroke-linejoin="round" stroke="rgb(0%, 0%, 0%)" stroke-opacity="1" stroke-miterlimit="10" d="M 2390.625 976.796875 L 1531.328125 147.148438 L 1823.28125 118.046875 Z M 2390.625 976.796875 " transform="matrix(0.1, 0, 0, -0.1, 0, 200)"/>
<path fill-rule="nonzero" fill="rgb(53.709412%, 34.49707%, 56.834412%)" fill-opacity="1" d="M 58.996094 93.300781 L 64.464844 196.933594 L 153.132812 185.285156 "/>
<path fill="none" stroke-width="7.98" stroke-linecap="round" stroke-linejoin="round" stroke="rgb(0%, 0%, 0%)" stroke-opacity="1" stroke-miterlimit="10" d="M 589.960938 1066.992188 L 644.648438 30.664062 L 1531.328125 147.148438 Z M 589.960938 1066.992188 " transform="matrix(0.1, 0, 0, -0.1, 0, 200)"/>
<path fill-rule="nonzero" fill="rgb(73.4375%, 65.625%, 77.146912%)" fill-opacity="1" stroke-width="7.98" stroke-linecap="round" stroke-linejoin="round" stroke="rgb(0%, 0%, 0%)" stroke-opacity="1" stroke-miterlimit="10" d="M 1531.328125 147.148438 L 2390.625 976.796875 L 1475.351562 1843.90625 " transform="matrix(0.1, 0, 0, -0.1, 0, 200)"/>
<path fill-rule="nonzero" fill="rgb(73.4375%, 65.625%, 77.146912%)" fill-opacity="1" stroke-width="7.98" stroke-linecap="round" stroke-linejoin="round" stroke="rgb(0%, 0%, 0%)" stroke-opacity="1" stroke-miterlimit="10" d="M 1475.351562 1843.90625 L 589.960938 1066.992188 L 1531.328125 147.148438 " transform="matrix(0.1, 0, 0, -0.1, 0, 200)"/>
</svg>
