<?xml version="1.0" encoding="UTF-8"?>
<svg xmlns="http://www.w3.org/2000/svg" xmlns:xlink="http://www.w3.org/1999/xlink" width="282" height="141" viewBox="0 0 282 141">
<path fill="none" stroke-width="11.28" stroke-linecap="round" stroke-linejoin="round" stroke="rgb(0%, 0%, 0%)" stroke-opacity="1" stroke-miterlimit="10" d="M 918.476562 950.78125 L 918.476562 459.21875 L 1410 459.21875 L 1410 950.78125 L 918.476562 950.78125 " transform="matrix(0.1, 0, 0, -0.1, 0, 141)"/>
<path fill="none" stroke-width="11.28" stroke-linecap="round" stroke-linejoin="round" stroke="rgb(0%, 0%, 0%)" stroke-opacity="1" stroke-miterlimit="10" d="M 1410 950.78125 L 1410 459.21875 L 1901.523438 459.21875 L 1901.523438 950.78125 L 1410 950.78125 " transform="matrix(0.1, 0, 0, -0.1, 0, 141)"/>
<path fill="none" stroke-width="11.28" stroke-linecap="round" stroke-linejoin="round" stroke="rgb(0%, 0%, 0%)" stroke-opacity="1" stroke-miterlimit="10" d="M 67.148438 459.21875 L 492.8125 213.476562 L 492.8125 705 L 67.148438 459.21875 " transform="matrix(0.1, 0, 0, -0.1, 0, 141)"/>
<path fill="none" stroke-width="11.28" stroke-linecap="round" stroke-linejoin="round" stroke="rgb(0%, 0%, 0%)" stroke-opacity="1" stroke-miterlimit="10" d="M 492.8125 705 L 918.476562 950.78125 L 492.8125 1196.523438 L 492.8125 705 " transform="matrix(0.1, 0, 0, -0.1, 0, 141)"/>
<path fill="none" stroke-width="11.28" stroke-linecap="round" stroke-linejoin="round" stroke="rgb(0%, 0%, 0%)" stroke-opacity="1" stroke-miterlimit="10" d="M 492.8125 705 L 492.8125 213.476562 L 918.476562 459.21875 L 492.8125 705 " transform="matrix(0.1, 0, 0, -0.1, 0, 141)"/>
<path fill="none" stroke-width="11.28" stroke-linecap="round" stroke-linejoin="round" stroke="rgb(0%, 0%, 0%)" stroke-opacity="1" stroke-miterlimit="10" d="M 492.8125 705 L 918.476562 459.21875 L 918.476562 950.78125 L 492.8125 705 " transform="matrix(0.1, 0, 0, -0.1, 0, 141)"/>
<path fill="none" stroke-width="11.28" stroke-linecap="round" stroke-linejoin="round" stroke="rgb(0%, 0%, 0%)" stroke-opacity="1" stroke-miterlimit="10" d="M 1164.257812 1376.445312 L 1410 950.78125 L 1655.742188 1376.445312 L 1164.257812 1376.445312 " transform="matrix(0.1, 0, 0, -0.1, 0, 141)"/>
<path fill="none" stroke-width="11.28" stroke-linecap="round" stroke-linejoin="round" stroke="rgb(0%, 0%, 0%)" stroke-opacity="1" stroke-miterlimit="10" d="M 1655.742188 1376.445312 L 1410 950.78125 L 1901.523438 950.78125 L 1655.742188 1376.445312 " transform="matrix(0.1, 0, 0, -0.1, 0, 141)"/>
<path fill="none" stroke-width="11.28" stroke-linecap="round" stroke-linejoin="round" stroke="rgb(0%, 0%, 0%)" stroke-opacity="1" stroke-miterlimit="10" d="M 1655.742188 33.554688 L 1410 459.21875 L 1164.257812 33.554688 L 1655.742188 33.554688 " transform="matrix(0.1, 0, 0, -0.1, 0, 141)"/>
<path fill="none" stroke-width="11.28" stroke-linecap="round" stroke-linejoin="round" stroke="rgb(0%, 0%, 0%)" stroke-opacity="1" stroke-miterlimit="10" d="M 1410 459.21875 L 1655.742188 33.554688 L 1901.523438 459.21875 L 1410 459.21875 " transform="matrix(0.1, 0, 0, -0.1, 0, 141)"/>
<path fill="none" stroke-width="11.28" stroke-linecap="round" stroke-linejoin="round" stroke="rgb(0%, 0%, 0%)" stroke-opacity="1" stroke-miterlimit="10" d="M 1901.523438 950.78125 L 2327.1875 705 L 2327.1875 1196.523438 L 1901.523438 950.78125 " transform="matrix(0.1, 0, 0, -0.1, 0, 141)"/>
<path fill="none" stroke-width="11.28" stroke-linecap="round" stroke-linejoin="round" stroke="rgb(0%, 0%, 0%)" stroke-opacity="1" stroke-miterlimit="10" d="M 1901.523438 950.78125 L 1901.523438 459.21875 L 2327.1875 705 L 1901.523438 950.78125 " transform="matrix(0.1, 0, 0, -0.1, 0, 141)"/>
<path fill="none" stroke-width="11.28" stroke-linecap="round" stroke-linejoin="round" stroke="rgb(0%, 0%, 0%)" stroke-opacity="1" stroke-miterlimit="10" d="M 2327.1875 705 L 1901.523438 459.21875 L 2327.1875 213.476562 L 2327.1875 705 " transform="matrix(0.1, 0, 0, -0.1, 0, 141)"/>
<path fill="none" stroke-width="11.28" stroke-linecap="round" stroke-linejoin="round" stroke="rgb(0%, 0%, 0%)" stroke-opacity="1" stroke-miterlimit="10" d="M 2327.1875 1196.523438 L 2327.1875 705 L 2752.851562 950.78125 L 2327.1875 1196.523438 " transform="matrix(0.1, 0, 0, -0.1, 0, 141)"/>
</svg>
