<?xml version="1.0" encoding="UTF-8"?>
<svg xmlns="http://www.w3.org/2000/svg" xmlns:xlink="http://www.w3.org/1999/xlink" width="280" height="176" viewBox="0 0 280 176">
<path fill="none" stroke-width="11.1479" stroke-linecap="round" stroke-linejoin="round" stroke="rgb(0%, 0%, 0%)" stroke-opacity="1" stroke-miterlimit="10" d="M 1366.640625 971.132812 L 935.390625 722.148438 L 1366.640625 473.164062 L 1366.640625 971.132812 " transform="matrix(0.1, 0, 0, -0.1, 0, 176)"/>
<path fill="none" stroke-width="11.1479" stroke-linecap="round" stroke-linejoin="round" stroke="rgb(0%, 0%, 0%)" stroke-opacity="1" stroke-miterlimit="10" d="M 1366.640625 971.132812 L 1366.640625 473.164062 L 1864.609375 473.164062 L 1864.609375 971.132812 L 1366.640625 971.132812 " transform="matrix(0.1, 0, 0, -0.1, 0, 176)"/>
<path fill="none" stroke-width="11.1479" stroke-linecap="round" stroke-linejoin="round" stroke="rgb(0%, 0%, 0%)" stroke-opacity="1" stroke-miterlimit="10" d="M 72.890625 1718.085938 L 72.890625 1220.117188 L 504.140625 1469.101562 L 72.890625 1718.085938 " transform="matrix(0.1, 0, 0, -0.1, 0, 176)"/>
<path fill="none" stroke-width="11.1479" stroke-linecap="round" stroke-linejoin="round" stroke="rgb(0%, 0%, 0%)" stroke-opacity="1" stroke-miterlimit="10" d="M 504.140625 1469.101562 L 935.390625 1220.117188 L 935.390625 1718.085938 L 504.140625 1469.101562 " transform="matrix(0.1, 0, 0, -0.1, 0, 176)"/>
<path fill="none" stroke-width="11.1479" stroke-linecap="round" stroke-linejoin="round" stroke="rgb(0%, 0%, 0%)" stroke-opacity="1" stroke-miterlimit="10" d="M 504.140625 1469.101562 L 72.890625 1220.117188 L 504.140625 971.132812 L 504.140625 1469.101562 " transform="matrix(0.1, 0, 0, -0.1, 0, 176)"/>
<path fill="none" stroke-width="11.1479" stroke-linecap="round" stroke-linejoin="round" stroke="rgb(0%, 0%, 0%)" stroke-opacity="1" stroke-miterlimit="10" d="M 504.140625 1469.101562 L 504.140625 971.132812 L 935.390625 1220.117188 L 504.140625 1469.101562 " transform="matrix(0.1, 0, 0, -0.1, 0, 176)"/>
<path fill="none" stroke-width="11.1479" stroke-linecap="round" stroke-linejoin="round" stroke="rgb(0%, 0%, 0%)" stroke-opacity="1" stroke-miterlimit="10" d="M 1117.65625 1402.382812 L 1366.640625 971.132812 L 1615.625 1402.382812 L 1117.65625 1402.382812 " transform="matrix(0.1, 0, 0, -0.1, 0, 176)"/>
<path fill="none" stroke-width="11.1479" stroke-linecap="round" stroke-linejoin="round" stroke="rgb(0%, 0%, 0%)" stroke-opacity="1" stroke-miterlimit="10" d="M 1615.625 1402.382812 L 1366.640625 971.132812 L 1864.609375 971.132812 L 1615.625 1402.382812 " transform="matrix(0.1, 0, 0, -0.1, 0, 176)"/>
<path fill="none" stroke-width="11.1479" stroke-linecap="round" stroke-linejoin="round" stroke="rgb(0%, 0%, 0%)" stroke-opacity="1" stroke-miterlimit="10" d="M 1615.625 41.914062 L 1366.640625 473.164062 L 1117.65625 41.914062 L 1615.625 41.914062 " transform="matrix(0.1, 0, 0, -0.1, 0, 176)"/>
<path fill="none" stroke-width="11.1479" stroke-linecap="round" stroke-linejoin="round" stroke="rgb(0%, 0%, 0%)" stroke-opacity="1" stroke-miterlimit="10" d="M 1366.640625 473.164062 L 1615.625 41.914062 L 1864.609375 473.164062 L 1366.640625 473.164062 " transform="matrix(0.1, 0, 0, -0.1, 0, 176)"/>
<path fill="none" stroke-width="11.1479" stroke-linecap="round" stroke-linejoin="round" stroke="rgb(0%, 0%, 0%)" stroke-opacity="1" stroke-miterlimit="10" d="M 1864.609375 971.132812 L 2295.859375 722.148438 L 2295.859375 1220.117188 L 1864.609375 971.132812 " transform="matrix(0.1, 0, 0, -0.1, 0, 176)"/>
<path fill="none" stroke-width="11.1479" stroke-linecap="round" stroke-linejoin="round" stroke="rgb(0%, 0%, 0%)" stroke-opacity="1" stroke-miterlimit="10" d="M 1864.609375 971.132812 L 1864.609375 473.164062 L 2295.859375 722.148438 L 1864.609375 971.132812 " transform="matrix(0.1, 0, 0, -0.1, 0, 176)"/>
<path fill="none" stroke-width="11.1479" stroke-linecap="round" stroke-linejoin="round" stroke="rgb(0%, 0%, 0%)" stroke-opacity="1" stroke-miterlimit="10" d="M 2295.859375 722.148438 L 1864.609375 473.164062 L 2295.859375 224.179688 L 2295.859375 722.148438 " transform="matrix(0.1, 0, 0, -0.1, 0, 176)"/>
<path fill="none" stroke-width="11.1479" stroke-linecap="round" stroke-linejoin="round" stroke="rgb(0%, 0%, 0%)" stroke-opacity="1" stroke-miterlimit="10" d="M 2295.859375 1220.117188 L 2295.859375 722.148438 L 2727.148438 971.132812 L 2295.859375 1220.117188 " transform="matrix(0.1, 0, 0, -0.1, 0, 176)"/>
<path fill="none" stroke-width="11.1479" stroke-linecap="round" stroke-linejoin="round" stroke="rgb(0%, 0%, 0%)" stroke-opacity="1" stroke-miterlimit="10" d="M 935.390625 1220.117188 L 935.390625 722.148438 L 1366.640625 971.132812 L 935.390625 1220.117188 " transform="matrix(0.1, 0, 0, -0.1, 0, 176)"/>
<path fill="none" stroke-width="11.1479" stroke-linecap="round" stroke-linejoin="round" stroke="rgb(0%, 0%, 0%)" stroke-opacity="1" stroke-miterlimit="10" d="M 935.390625 1220.117188 L 504.140625 971.132812 L 935.390625 722.148438 L 935.390625 1220.117188 " transform="matrix(0.1, 0, 0, -0.1, 0, 176)"/>
<path fill="none" stroke-width="11.1479" stroke-linecap="round" stroke-linejoin="round" stroke="rgb(0%, 0%, 0%)" stroke-opacity="1" stroke-miterlimit="10" d="M 935.390625 722.148438 L 504.140625 971.132812 L 504.140625 473.164062 L 935.390625 722.148438 " transform="matrix(0.1, 0, 0, -0.1, 0, 176)"/>
</svg>
