<?xml version="1.0" encoding="UTF-8"?>
<svg xmlns="http://www.w3.org/2000/svg" xmlns:xlink="http://www.w3.org/1999/xlink" width="274" height="200" viewBox="0 0 274 200">
<path fill="none" stroke-width="10.9282" stroke-linecap="round" stroke-linejoin="round" stroke="rgb(0%, 0%, 0%)" stroke-opacity="1" stroke-miterlimit="10" d="M 766.210938 574.6875 L 1276.601562 744.804688 L 1106.445312 1255.195312 L 596.09375 1085.078125 L 766.210938 574.6875 " transform="matrix(0.1, 0, 0, -0.1, 0, 200)"/>
<path fill="none" stroke-width="10.9282" stroke-linecap="round" stroke-linejoin="round" stroke="rgb(0%, 0%, 0%)" stroke-opacity="1" stroke-miterlimit="10" d="M 239.140625 682.539062 L 766.210938 574.6875 L 596.09375 1085.078125 L 239.140625 682.539062 " transform="matrix(0.1, 0, 0, -0.1, 0, 200)"/>
<path fill="none" stroke-width="10.9282" stroke-linecap="round" stroke-linejoin="round" stroke="rgb(0%, 0%, 0%)" stroke-opacity="1" stroke-miterlimit="10" d="M 1168.710938 217.734375 L 766.210938 574.6875 L 658.359375 47.617188 L 1168.710938 217.734375 " transform="matrix(0.1, 0, 0, -0.1, 0, 200)"/>
<path fill="none" stroke-width="10.9282" stroke-linecap="round" stroke-linejoin="round" stroke="rgb(0%, 0%, 0%)" stroke-opacity="1" stroke-miterlimit="10" d="M 1168.710938 217.734375 L 1276.601562 744.804688 L 766.210938 574.6875 L 1168.710938 217.734375 " transform="matrix(0.1, 0, 0, -0.1, 0, 200)"/>
<path fill="none" stroke-width="10.9282" stroke-linecap="round" stroke-linejoin="round" stroke="rgb(0%, 0%, 0%)" stroke-opacity="1" stroke-miterlimit="10" d="M 596.09375 1085.078125 L 703.945312 1612.148438 L 193.554688 1441.992188 L 596.09375 1085.078125 " transform="matrix(0.1, 0, 0, -0.1, 0, 200)"/>
<path fill="none" stroke-width="10.9282" stroke-linecap="round" stroke-linejoin="round" stroke="rgb(0%, 0%, 0%)" stroke-opacity="1" stroke-miterlimit="10" d="M 596.09375 1085.078125 L 1106.445312 1255.195312 L 703.945312 1612.148438 L 596.09375 1085.078125 " transform="matrix(0.1, 0, 0, -0.1, 0, 200)"/>
<path fill="none" stroke-width="10.9282" stroke-linecap="round" stroke-linejoin="round" stroke="rgb(0%, 0%, 0%)" stroke-opacity="1" stroke-miterlimit="10" d="M 409.257812 172.1875 L 766.210938 574.6875 L 239.140625 682.539062 L 409.257812 172.1875 " transform="matrix(0.1, 0, 0, -0.1, 0, 200)"/>
<path fill="none" stroke-width="10.9282" stroke-linecap="round" stroke-linejoin="round" stroke="rgb(0%, 0%, 0%)" stroke-opacity="1" stroke-miterlimit="10" d="M 239.140625 682.539062 L 596.09375 1085.078125 L 69.023438 1192.929688 L 239.140625 682.539062 " transform="matrix(0.1, 0, 0, -0.1, 0, 200)"/>
<path fill="none" stroke-width="10.9282" stroke-linecap="round" stroke-linejoin="round" stroke="rgb(0%, 0%, 0%)" stroke-opacity="1" stroke-miterlimit="10" d="M 1616.835938 1425.3125 L 1106.445312 1255.195312 L 1276.601562 744.804688 L 1786.953125 914.921875 L 1616.835938 1425.3125 " transform="matrix(0.1, 0, 0, -0.1, 0, 200)"/>
<path fill="none" stroke-width="10.9282" stroke-linecap="round" stroke-linejoin="round" stroke="rgb(0%, 0%, 0%)" stroke-opacity="1" stroke-miterlimit="10" d="M 2143.90625 1317.460938 L 1616.835938 1425.3125 L 1786.953125 914.921875 L 2143.90625 1317.460938 " transform="matrix(0.1, 0, 0, -0.1, 0, 200)"/>
<path fill="none" stroke-width="10.9282" stroke-linecap="round" stroke-linejoin="round" stroke="rgb(0%, 0%, 0%)" stroke-opacity="1" stroke-miterlimit="10" d="M 1214.335938 1782.265625 L 1616.835938 1425.3125 L 1724.6875 1952.382812 L 1214.335938 1782.265625 " transform="matrix(0.1, 0, 0, -0.1, 0, 200)"/>
<path fill="none" stroke-width="10.9282" stroke-linecap="round" stroke-linejoin="round" stroke="rgb(0%, 0%, 0%)" stroke-opacity="1" stroke-miterlimit="10" d="M 1214.335938 1782.265625 L 1106.445312 1255.195312 L 1616.835938 1425.3125 L 1214.335938 1782.265625 " transform="matrix(0.1, 0, 0, -0.1, 0, 200)"/>
<path fill="none" stroke-width="10.9282" stroke-linecap="round" stroke-linejoin="round" stroke="rgb(0%, 0%, 0%)" stroke-opacity="1" stroke-miterlimit="10" d="M 1786.953125 914.921875 L 1679.101562 387.851562 L 2189.492188 558.007812 L 1786.953125 914.921875 " transform="matrix(0.1, 0, 0, -0.1, 0, 200)"/>
<path fill="none" stroke-width="10.9282" stroke-linecap="round" stroke-linejoin="round" stroke="rgb(0%, 0%, 0%)" stroke-opacity="1" stroke-miterlimit="10" d="M 1786.953125 914.921875 L 1276.601562 744.804688 L 1679.101562 387.851562 L 1786.953125 914.921875 " transform="matrix(0.1, 0, 0, -0.1, 0, 200)"/>
<path fill="none" stroke-width="10.9282" stroke-linecap="round" stroke-linejoin="round" stroke="rgb(0%, 0%, 0%)" stroke-opacity="1" stroke-miterlimit="10" d="M 1973.789062 1827.851562 L 2143.90625 1317.460938 L 2500.859375 1720 L 1973.789062 1827.851562 " transform="matrix(0.1, 0, 0, -0.1, 0, 200)"/>
<path fill="none" stroke-width="10.9282" stroke-linecap="round" stroke-linejoin="round" stroke="rgb(0%, 0%, 0%)" stroke-opacity="1" stroke-miterlimit="10" d="M 1973.789062 1827.851562 L 1616.835938 1425.3125 L 2143.90625 1317.460938 L 1973.789062 1827.851562 " transform="matrix(0.1, 0, 0, -0.1, 0, 200)"/>
<path fill="none" stroke-width="10.9282" stroke-linecap="round" stroke-linejoin="round" stroke="rgb(0%, 0%, 0%)" stroke-opacity="1" stroke-miterlimit="10" d="M 2143.90625 1317.460938 L 2314.023438 807.070312 L 2670.976562 1209.609375 L 2143.90625 1317.460938 " transform="matrix(0.1, 0, 0, -0.1, 0, 200)"/>
<path fill="none" stroke-width="10.9282" stroke-linecap="round" stroke-linejoin="round" stroke="rgb(0%, 0%, 0%)" stroke-opacity="1" stroke-miterlimit="10" d="M 2143.90625 1317.460938 L 1786.953125 914.921875 L 2314.023438 807.070312 L 2143.90625 1317.460938 " transform="matrix(0.1, 0, 0, -0.1, 0, 200)"/>
</svg>
