<?xml version="1.0" encoding="UTF-8"?>
<svg xmlns="http://www.w3.org/2000/svg" xmlns:xlink="http://www.w3.org/1999/xlink" width="171" height="200" viewBox="0 0 171 200">
<path fill="none" stroke-width="6.83837" stroke-linecap="round" stroke-linejoin="round" stroke="rgb(0%, 0%, 0%)" stroke-opacity="1" stroke-miterlimit="10" d="M 317.5 1356.445312 L 40.898438 1516.132812 L 40.898438 1196.757812 L 317.5 1356.445312 " transform="matrix(0.1, 0, 0, -0.1, 0, 200)"/>
<path fill="none" stroke-width="6.83837" stroke-linecap="round" stroke-linejoin="round" stroke="rgb(0%, 0%, 0%)" stroke-opacity="1" stroke-miterlimit="10" d="M 200.585938 1792.695312 L 40.898438 1516.132812 L 317.5 1356.445312 L 477.1875 1633.007812 L 200.585938 1792.695312 " transform="matrix(0.1, 0, 0, -0.1, 0, 200)"/>
<path fill="none" stroke-width="6.83837" stroke-linecap="round" stroke-linejoin="round" stroke="rgb(0%, 0%, 0%)" stroke-opacity="1" stroke-miterlimit="10" d="M 200.585938 1792.695312 L 477.1875 1633.007812 L 477.1875 1952.382812 L 200.585938 1792.695312 " transform="matrix(0.1, 0, 0, -0.1, 0, 200)"/>
<path fill="none" stroke-width="6.83837" stroke-linecap="round" stroke-linejoin="round" stroke="rgb(0%, 0%, 0%)" stroke-opacity="1" stroke-miterlimit="10" d="M 594.0625 1196.757812 L 317.5 1356.445312 L 317.5 1037.03125 L 594.0625 1196.757812 " transform="matrix(0.1, 0, 0, -0.1, 0, 200)"/>
<path fill="none" stroke-width="6.83837" stroke-linecap="round" stroke-linejoin="round" stroke="rgb(0%, 0%, 0%)" stroke-opacity="1" stroke-miterlimit="10" d="M 477.1875 1633.007812 L 317.5 1356.445312 L 594.0625 1196.757812 L 753.75 1473.320312 L 477.1875 1633.007812 " transform="matrix(0.1, 0, 0, -0.1, 0, 200)"/>
<path fill="none" stroke-width="6.83837" stroke-linecap="round" stroke-linejoin="round" stroke="rgb(0%, 0%, 0%)" stroke-opacity="1" stroke-miterlimit="10" d="M 477.1875 1633.007812 L 753.75 1473.320312 L 753.75 1792.695312 L 477.1875 1633.007812 " transform="matrix(0.1, 0, 0, -0.1, 0, 200)"/>
<path fill="none" stroke-width="6.83837" stroke-linecap="round" stroke-linejoin="round" stroke="rgb(0%, 0%, 0%)" stroke-opacity="1" stroke-miterlimit="10" d="M 594.0625 1196.757812 L 913.4375 1196.757812 L 753.75 1473.320312 L 594.0625 1196.757812 " transform="matrix(0.1, 0, 0, -0.1, 0, 200)"/>
<path fill="none" stroke-width="6.83837" stroke-linecap="round" stroke-linejoin="round" stroke="rgb(0%, 0%, 0%)" stroke-opacity="1" stroke-miterlimit="10" d="M 477.1875 1079.84375 L 477.1875 760.46875 L 753.75 920.15625 L 477.1875 1079.84375 " transform="matrix(0.1, 0, 0, -0.1, 0, 200)"/>
<path fill="none" stroke-width="6.83837" stroke-linecap="round" stroke-linejoin="round" stroke="rgb(0%, 0%, 0%)" stroke-opacity="1" stroke-miterlimit="10" d="M 594.0625 1196.757812 L 753.75 920.15625 L 913.4375 1196.757812 L 594.0625 1196.757812 " transform="matrix(0.1, 0, 0, -0.1, 0, 200)"/>
<path fill="none" stroke-width="6.83837" stroke-linecap="round" stroke-linejoin="round" stroke="rgb(0%, 0%, 0%)" stroke-opacity="1" stroke-miterlimit="10" d="M 913.4375 1196.757812 L 753.75 920.15625 L 1073.125 920.15625 L 913.4375 1196.757812 " transform="matrix(0.1, 0, 0, -0.1, 0, 200)"/>
<path fill="none" stroke-width="6.83837" stroke-linecap="round" stroke-linejoin="round" stroke="rgb(0%, 0%, 0%)" stroke-opacity="1" stroke-miterlimit="10" d="M 753.75 920.15625 L 753.75 600.78125 L 1073.125 600.78125 L 1073.125 920.15625 L 753.75 920.15625 " transform="matrix(0.1, 0, 0, -0.1, 0, 200)"/>
<path fill="none" stroke-width="6.83837" stroke-linecap="round" stroke-linejoin="round" stroke="rgb(0%, 0%, 0%)" stroke-opacity="1" stroke-miterlimit="10" d="M 477.1875 760.46875 L 477.1875 441.09375 L 753.75 600.78125 L 477.1875 760.46875 " transform="matrix(0.1, 0, 0, -0.1, 0, 200)"/>
<path fill="none" stroke-width="6.83837" stroke-linecap="round" stroke-linejoin="round" stroke="rgb(0%, 0%, 0%)" stroke-opacity="1" stroke-miterlimit="10" d="M 753.75 920.15625 L 477.1875 760.46875 L 753.75 600.78125 L 753.75 920.15625 " transform="matrix(0.1, 0, 0, -0.1, 0, 200)"/>
<path fill="none" stroke-width="6.83837" stroke-linecap="round" stroke-linejoin="round" stroke="rgb(0%, 0%, 0%)" stroke-opacity="1" stroke-miterlimit="10" d="M 753.75 600.78125 L 594.0625 324.21875 L 913.4375 324.21875 L 753.75 600.78125 " transform="matrix(0.1, 0, 0, -0.1, 0, 200)"/>
<path fill="none" stroke-width="6.83837" stroke-linecap="round" stroke-linejoin="round" stroke="rgb(0%, 0%, 0%)" stroke-opacity="1" stroke-miterlimit="10" d="M 753.75 600.78125 L 913.4375 324.21875 L 1073.125 600.78125 L 753.75 600.78125 " transform="matrix(0.1, 0, 0, -0.1, 0, 200)"/>
<path fill="none" stroke-width="6.83837" stroke-linecap="round" stroke-linejoin="round" stroke="rgb(0%, 0%, 0%)" stroke-opacity="1" stroke-miterlimit="10" d="M 1073.125 920.15625 L 1073.125 600.78125 L 1392.5 600.78125 L 1392.5 920.15625 L 1073.125 920.15625 " transform="matrix(0.1, 0, 0, -0.1, 0, 200)"/>
<path fill="none" stroke-width="6.83837" stroke-linecap="round" stroke-linejoin="round" stroke="rgb(0%, 0%, 0%)" stroke-opacity="1" stroke-miterlimit="10" d="M 1232.8125 1196.757812 L 1073.125 920.15625 L 1392.5 920.15625 L 1232.8125 1196.757812 " transform="matrix(0.1, 0, 0, -0.1, 0, 200)"/>
<path fill="none" stroke-width="6.83837" stroke-linecap="round" stroke-linejoin="round" stroke="rgb(0%, 0%, 0%)" stroke-opacity="1" stroke-miterlimit="10" d="M 1232.8125 1196.757812 L 1392.5 920.15625 L 1552.1875 1196.757812 L 1232.8125 1196.757812 " transform="matrix(0.1, 0, 0, -0.1, 0, 200)"/>
<path fill="none" stroke-width="6.83837" stroke-linecap="round" stroke-linejoin="round" stroke="rgb(0%, 0%, 0%)" stroke-opacity="1" stroke-miterlimit="10" d="M 1392.5 920.15625 L 1669.101562 760.46875 L 1669.101562 1079.84375 L 1392.5 920.15625 " transform="matrix(0.1, 0, 0, -0.1, 0, 200)"/>
<path fill="none" stroke-width="6.83837" stroke-linecap="round" stroke-linejoin="round" stroke="rgb(0%, 0%, 0%)" stroke-opacity="1" stroke-miterlimit="10" d="M 1392.5 920.15625 L 1392.5 600.78125 L 1669.101562 760.46875 L 1392.5 920.15625 " transform="matrix(0.1, 0, 0, -0.1, 0, 200)"/>
<path fill="none" stroke-width="6.83837" stroke-linecap="round" stroke-linejoin="round" stroke="rgb(0%, 0%, 0%)" stroke-opacity="1" stroke-miterlimit="10" d="M 1669.101562 760.46875 L 1392.5 600.78125 L 1669.101562 441.09375 L 1669.101562 760.46875 " transform="matrix(0.1, 0, 0, -0.1, 0, 200)"/>
<path fill="none" stroke-width="6.83837" stroke-linecap="round" stroke-linejoin="round" stroke="rgb(0%, 0%, 0%)" stroke-opacity="1" stroke-miterlimit="10" d="M 1552.1875 324.21875 L 1232.8125 324.21875 L 1392.5 47.617188 L 1552.1875 324.21875 " transform="matrix(0.1, 0, 0, -0.1, 0, 200)"/>
<path fill="none" stroke-width="6.83837" stroke-linecap="round" stroke-linejoin="round" stroke="rgb(0%, 0%, 0%)" stroke-opacity="1" stroke-miterlimit="10" d="M 1392.5 600.78125 L 1232.8125 324.21875 L 1552.1875 324.21875 L 1392.5 600.78125 " transform="matrix(0.1, 0, 0, -0.1, 0, 200)"/>
<path fill="none" stroke-width="6.83837" stroke-linecap="round" stroke-linejoin="round" stroke="rgb(0%, 0%, 0%)" stroke-opacity="1" stroke-miterlimit="10" d="M 1073.125 600.78125 L 1232.8125 324.21875 L 1392.5 600.78125 L 1073.125 600.78125 " transform="matrix(0.1, 0, 0, -0.1, 0, 200)"/>
</svg>
