<?xml version="1.0" encoding="UTF-8"?>
<svg xmlns="http://www.w3.org/2000/svg" xmlns:xlink="http://www.w3.org/1999/xlink" width="417.31" height="198.69" viewBox="0 0 417.31 198.69">
<path fill="none" stroke-width="5" stroke-linecap="round" stroke-linejoin="round" stroke="rgb(0%, 0%, 0%)" stroke-opacity="1" stroke-miterlimit="10" d="M 1946.885634 993.438477 C 1946.885634 1491.095907 1543.446232 1894.535309 1045.827929 1894.535309 C 548.1705 1894.535309 144.731098 1491.095907 144.731098 993.438477 C 144.731098 495.781048 548.1705 92.380773 1045.827929 92.380773 C 1543.446232 92.380773 1946.885634 495.781048 1946.885634 993.438477 C 1946.885634 1023.488081 1945.398804 1053.498557 1942.386018 1083.391652 " transform="matrix(0.0998349, 0, 0, -0.0998349, -0.000000000000008549, 198.371265)"/>
<path fill="none" stroke-width="5" stroke-linecap="round" stroke-linejoin="round" stroke="rgb(0%, 0%, 0%)" stroke-opacity="1" stroke-miterlimit="10" d="M 1928.9263 1172.444904 L 1789.516487 1502.247127 L 1019.534526 1894.144038 L 445.461894 1665.367955 L 281.597651 516.009752 L 855.865918 112.609477 L 1928.9263 1172.444904 " transform="matrix(0.0998349, 0, 0, -0.0998349, -0.000000000000008549, 198.371265)"/>
<path fill="none" stroke-width="5" stroke-linecap="round" stroke-linejoin="round" stroke="rgb(0%, 0%, 0%)" stroke-opacity="1" stroke-miterlimit="10" d="M 1928.9263 1172.444904 L 445.461894 1665.367955 " transform="matrix(0.0998349, 0, 0, -0.0998349, -0.000000000000008549, 198.371265)"/>
<path fill="none" stroke-width="5" stroke-linecap="round" stroke-linejoin="round" stroke="rgb(0%, 0%, 0%)" stroke-opacity="1" stroke-miterlimit="10" d="M 1789.516487 1502.247127 L 445.461894 1665.367955 " transform="matrix(0.0998349, 0, 0, -0.0998349, -0.000000000000008549, 198.371265)"/>
<path fill="none" stroke-width="5" stroke-linecap="round" stroke-linejoin="round" stroke="rgb(0%, 0%, 0%)" stroke-opacity="1" stroke-miterlimit="10" d="M 445.461894 1665.367955 L 855.865918 112.609477 " transform="matrix(0.0998349, 0, 0, -0.0998349, -0.000000000000008549, 198.371265)"/>
<path fill="none" stroke-width="5" stroke-linecap="round" stroke-linejoin="round" stroke="rgb(0%, 0%, 0%)" stroke-opacity="1" stroke-miterlimit="10" d="M 1828.604447 1383.731178 C 1828.604447 1454.629461 1771.126755 1512.14628 1700.228472 1512.14628 C 1629.291062 1512.14628 1571.81337 1454.629461 1571.81337 1383.731178 C 1571.81337 1312.832895 1629.291062 1255.355203 1700.228472 1255.355203 C 1771.126755 1255.355203 1828.604447 1312.832895 1828.604447 1383.731178 C 1828.604447 1388.035157 1828.408812 1392.30001 1827.978414 1396.564862 " transform="matrix(0.0998349, 0, 0, -0.0998349, -0.000000000000008549, 198.371265)"/>
<path fill="none" stroke-width="5" stroke-linecap="round" stroke-linejoin="round" stroke="rgb(0%, 0%, 0%)" stroke-opacity="1" stroke-miterlimit="10" d="M 1541.17686 977.200736 C 1541.17686 1225.266472 1340.063629 1426.379703 1091.997893 1426.379703 C 843.893029 1426.379703 642.779798 1225.266472 642.779798 977.200736 C 642.779798 729.095872 843.893029 527.982641 1091.997893 527.982641 C 1340.063629 527.982641 1541.17686 729.095872 1541.17686 977.200736 C 1541.17686 992.147283 1540.433446 1007.132958 1538.946616 1022.040378 " transform="matrix(0.0998349, 0, 0, -0.0998349, -0.000000000000008549, 198.371265)"/>
<path fill="none" stroke-width="5" stroke-linecap="round" stroke-linejoin="round" stroke="rgb(0%, 0%, 0%)" stroke-opacity="1" stroke-miterlimit="10" d="M 1153.857819 1739.044262 C 1153.857819 1817.141929 1090.511063 1880.488684 1012.413396 1880.488684 C 934.276602 1880.488684 870.968974 1817.141929 870.968974 1739.044262 C 870.968974 1660.946595 934.276602 1597.599839 1012.413396 1597.599839 C 1090.511063 1597.599839 1153.857819 1660.946595 1153.857819 1739.044262 C 1153.857819 1743.778639 1153.623056 1748.47389 1153.153531 1753.16914 " transform="matrix(0.0998349, 0, 0, -0.0998349, -0.000000000000008549, 198.371265)"/>
<path fill="none" stroke-width="5" stroke-linecap="round" stroke-linejoin="round" stroke="rgb(0%, 0%, 0%)" stroke-opacity="1" stroke-miterlimit="10" d="M 716.299596 613.514455 C 716.299596 729.134999 622.551094 822.844374 506.969676 822.844374 C 391.349132 822.844374 297.639757 729.134999 297.639757 613.514455 C 297.639757 497.933037 391.349132 404.223662 506.969676 404.223662 C 622.551094 404.223662 716.299596 497.933037 716.299596 613.514455 C 716.299596 620.518203 715.947452 627.482825 715.243165 634.447447 " transform="matrix(0.0998349, 0, 0, -0.0998349, -0.000000000000008549, 198.371265)"/>
<path fill="none" stroke-width="5" stroke-linecap="round" stroke-linejoin="round" stroke="rgb(0%, 0%, 0%)" stroke-opacity="1" stroke-miterlimit="10" d="M 4028.368449 993.438477 C 4028.368449 1491.095907 3624.968174 1894.535309 3127.310745 1894.535309 C 2629.653315 1894.535309 2226.213913 1491.095907 2226.213913 993.438477 C 2226.213913 495.781048 2629.653315 92.380773 3127.310745 92.380773 C 3624.968174 92.380773 4028.368449 495.781048 4028.368449 993.438477 C 4028.368449 1023.488081 4026.88162 1053.498557 4023.868834 1083.391652 " transform="matrix(0.0998349, 0, 0, -0.0998349, -0.000000000000008549, 198.371265)"/>
<path fill="none" stroke-width="5" stroke-linecap="round" stroke-linejoin="round" stroke="rgb(0%, 0%, 0%)" stroke-opacity="1" stroke-miterlimit="10" d="M 4010.448243 1172.444904 L 3870.999302 1502.247127 L 3101.017342 1894.144038 L 2526.94471 1665.367955 L 2363.080466 516.009752 L 2937.348734 112.609477 L 4010.448243 1172.444904 " transform="matrix(0.0998349, 0, 0, -0.0998349, -0.000000000000008549, 198.371265)"/>
<path fill="none" stroke-width="5" stroke-linecap="round" stroke-linejoin="round" stroke="rgb(0%, 0%, 0%)" stroke-opacity="1" stroke-miterlimit="10" d="M 3870.999302 1502.247127 L 2363.080466 516.009752 " transform="matrix(0.0998349, 0, 0, -0.0998349, -0.000000000000008549, 198.371265)"/>
<path fill="none" stroke-width="5" stroke-linecap="round" stroke-linejoin="round" stroke="rgb(0%, 0%, 0%)" stroke-opacity="1" stroke-miterlimit="10" d="M 3870.999302 1502.247127 L 2937.348734 112.609477 " transform="matrix(0.0998349, 0, 0, -0.0998349, -0.000000000000008549, 198.371265)"/>
<path fill="none" stroke-width="5" stroke-linecap="round" stroke-linejoin="round" stroke="rgb(0%, 0%, 0%)" stroke-opacity="1" stroke-miterlimit="10" d="M 3101.017342 1894.144038 L 2363.080466 516.009752 " transform="matrix(0.0998349, 0, 0, -0.0998349, -0.000000000000008549, 198.371265)"/>
<path fill="none" stroke-width="5" stroke-linecap="round" stroke-linejoin="round" stroke="rgb(0%, 0%, 0%)" stroke-opacity="1" stroke-miterlimit="10" d="M 3984.193967 1205.742055 C 3984.193967 1283.996231 3920.768958 1347.460367 3842.514782 1347.460367 C 3764.260607 1347.460367 3700.79647 1283.996231 3700.79647 1205.742055 C 3700.79647 1127.48788 3764.260607 1064.062871 3842.514782 1064.062871 C 3920.768958 1064.062871 3984.193967 1127.48788 3984.193967 1205.742055 C 3984.193967 1210.476433 3983.959204 1215.210811 3983.489679 1219.906061 " transform="matrix(0.0998349, 0, 0, -0.0998349, -0.000000000000008549, 198.371265)"/>
<path fill="none" stroke-width="5" stroke-linecap="round" stroke-linejoin="round" stroke="rgb(0%, 0%, 0%)" stroke-opacity="1" stroke-miterlimit="10" d="M 3554.148145 1467.697908 C 3554.148145 1644.043693 3411.216894 1787.014071 3234.871109 1787.014071 C 3058.525324 1787.014071 2915.554946 1644.043693 2915.554946 1467.697908 C 2915.554946 1291.352123 3058.525324 1148.420872 3234.871109 1148.420872 C 3411.216894 1148.420872 3554.148145 1291.352123 3554.148145 1467.697908 C 3554.148145 1478.340476 3553.639493 1488.983044 3552.583062 1499.586485 " transform="matrix(0.0998349, 0, 0, -0.0998349, -0.000000000000008549, 198.371265)"/>
<path fill="none" stroke-width="5" stroke-linecap="round" stroke-linejoin="round" stroke="rgb(0%, 0%, 0%)" stroke-opacity="1" stroke-miterlimit="10" d="M 3145.230951 507.675682 C 3145.230951 662.971094 3019.35911 788.882062 2864.063698 788.882062 C 2708.807414 788.882062 2582.896445 662.971094 2582.896445 507.675682 C 2582.896445 352.419398 2708.807414 226.50843 2864.063698 226.50843 C 3019.35911 226.50843 3145.230951 352.419398 3145.230951 507.675682 C 3145.230951 517.066183 3144.761426 526.456684 3143.822376 535.768931 " transform="matrix(0.0998349, 0, 0, -0.0998349, -0.000000000000008549, 198.371265)"/>
<path fill="none" stroke-width="5" stroke-linecap="round" stroke-linejoin="round" stroke="rgb(0%, 0%, 0%)" stroke-opacity="1" stroke-miterlimit="10" d="M 2882.257794 1532.335857 C 2882.257794 1635.161844 2798.87797 1718.541668 2696.051983 1718.541668 C 2593.225997 1718.541668 2509.846173 1635.161844 2509.846173 1532.335857 C 2509.846173 1429.50987 2593.225997 1346.130046 2696.051983 1346.130046 C 2798.87797 1346.130046 2882.257794 1429.50987 2882.257794 1532.335857 C 2882.257794 1538.557064 2881.944777 1544.739144 2881.318744 1550.921224 " transform="matrix(0.0998349, 0, 0, -0.0998349, -0.000000000000008549, 198.371265)"/>
</svg>
