<?xml version="1.0" encoding="UTF-8"?>
<svg xmlns="http://www.w3.org/2000/svg" xmlns:xlink="http://www.w3.org/1999/xlink" width="481" height="97" viewBox="0 0 481 97">
<path fill="none" stroke-width="4.26133" stroke-linecap="round" stroke-linejoin="round" stroke="rgb(0%, 0%, 0%)" stroke-opacity="1" stroke-miterlimit="10" d="M 139.882812 45.664062 L 647.1875 924.335938 L 1154.492188 45.664062 L 139.882812 45.664062 " transform="matrix(0.1, 0, 0, -0.1, 0, 97)"/>
<path fill="none" stroke-width="3.19601" stroke-linecap="round" stroke-linejoin="round" stroke="rgb(0%, 0%, 0%)" stroke-opacity="1" stroke-miterlimit="10" d="M 1438.59375 265.3125 L 1565.390625 485 L 1438.59375 704.6875 L 1692.226562 704.6875 L 1819.0625 924.335938 L 1945.898438 704.6875 L 2199.53125 704.6875 L 2072.734375 485 L 2199.53125 265.3125 L 1945.898438 265.3125 L 1819.0625 45.664062 L 1692.226562 265.3125 L 1438.59375 265.3125 " transform="matrix(0.1, 0, 0, -0.1, 0, 97)"/>
<path fill="none" stroke-width="3.19601" stroke-linecap="round" stroke-linejoin="round" stroke="rgb(0%, 0%, 0%)" stroke-opacity="1" stroke-miterlimit="10" d="M 2610.46875 265.3125 L 2652.734375 338.554688 L 2610.46875 411.796875 L 2695 411.796875 L 2737.304688 485 L 2695 558.242188 L 2610.46875 558.242188 L 2652.734375 631.445312 L 2610.46875 704.6875 L 2695 704.6875 L 2737.304688 777.890625 L 2779.570312 704.6875 L 2864.101562 704.6875 L 2906.367188 777.890625 L 2864.101562 851.09375 L 2948.671875 851.09375 L 2990.9375 924.335938 L 3033.203125 851.09375 L 3117.773438 851.09375 L 3075.46875 777.890625 L 3117.773438 704.6875 L 3202.304688 704.6875 L 3244.609375 777.890625 L 3286.875 704.6875 L 3371.40625 704.6875 L 3329.140625 631.445312 L 3371.40625 558.242188 L 3286.875 558.242188 L 3244.609375 485 L 3286.875 411.796875 L 3371.40625 411.796875 L 3329.140625 338.554688 L 3371.40625 265.3125 L 3286.875 265.3125 L 3244.609375 192.109375 L 3202.304688 265.3125 L 3117.773438 265.3125 L 3075.46875 192.109375 L 3117.773438 118.90625 L 3033.203125 118.90625 L 2990.9375 45.664062 L 2948.671875 118.90625 L 2864.101562 118.90625 L 2906.367188 192.109375 L 2864.101562 265.3125 L 2779.570312 265.3125 L 2737.304688 192.109375 L 2695 265.3125 L 2610.46875 265.3125 " transform="matrix(0.1, 0, 0, -0.1, 0, 97)"/>
<path fill="none" stroke-width="3.19601" stroke-linecap="round" stroke-linejoin="round" stroke="rgb(0%, 0%, 0%)" stroke-opacity="1" stroke-miterlimit="10" d="M 3782.34375 265.3125 L 3796.445312 289.726562 L 3782.34375 314.140625 L 3810.507812 314.140625 L 3824.609375 338.554688 L 3810.507812 362.96875 L 3782.34375 362.96875 L 3796.445312 387.382812 L 3782.34375 411.796875 L 3810.507812 411.796875 L 3824.609375 436.171875 L 3838.710938 411.796875 L 3866.875 411.796875 L 3880.976562 436.171875 L 3866.875 460.585938 L 3895.078125 460.585938 L 3909.140625 485 L 3895.078125 509.414062 L 3866.875 509.414062 L 3880.976562 533.828125 L 3866.875 558.242188 L 3838.710938 558.242188 L 3824.609375 533.828125 L 3810.507812 558.242188 L 3782.34375 558.242188 L 3796.445312 582.617188 L 3782.34375 607.03125 L 3810.507812 607.03125 L 3824.609375 631.445312 L 3810.507812 655.859375 L 3782.34375 655.859375 L 3796.445312 680.273438 L 3782.34375 704.6875 L 3810.507812 704.6875 L 3824.609375 729.0625 L 3838.710938 704.6875 L 3866.875 704.6875 L 3880.976562 729.0625 L 3866.875 753.476562 L 3895.078125 753.476562 L 3909.140625 777.890625 L 3923.242188 753.476562 L 3951.445312 753.476562 L 3937.34375 729.0625 L 3951.445312 704.6875 L 3979.609375 704.6875 L 3993.710938 729.0625 L 4007.8125 704.6875 L 4035.976562 704.6875 L 4050.078125 729.0625 " transform="matrix(0.1, 0, 0, -0.1, 0, 97)"/>
<path fill="none" stroke-width="3.19601" stroke-linecap="round" stroke-linejoin="round" stroke="rgb(0%, 0%, 0%)" stroke-opacity="1" stroke-miterlimit="10" d="M 4050.078125 729.0625 L 4035.976562 753.476562 L 4064.140625 753.476562 L 4078.242188 777.890625 L 4064.140625 802.304688 L 4035.976562 802.304688 L 4050.078125 826.71875 L 4035.976562 851.09375 L 4064.140625 851.09375 L 4078.242188 875.507812 L 4092.34375 851.09375 L 4120.546875 851.09375 L 4134.648438 875.507812 L 4120.546875 899.921875 L 4148.710938 899.921875 L 4162.8125 924.335938 L 4176.914062 899.921875 L 4205.078125 899.921875 L 4190.976562 875.507812 L 4205.078125 851.09375 L 4233.242188 851.09375 L 4247.34375 875.507812 L 4261.445312 851.09375 L 4289.648438 851.09375 L 4275.546875 826.71875 L 4289.648438 802.304688 L 4261.445312 802.304688 L 4247.34375 777.890625 L 4261.445312 753.476562 L 4289.648438 753.476562 L 4275.546875 729.0625 L 4289.648438 704.6875 L 4317.8125 704.6875 L 4331.914062 729.0625 L 4346.015625 704.6875 L 4374.179688 704.6875 L 4388.28125 729.0625 L 4374.179688 753.476562 L 4402.34375 753.476562 L 4416.445312 777.890625 L 4430.546875 753.476562 L 4458.710938 753.476562 L 4444.648438 729.0625 L 4458.710938 704.6875 L 4486.914062 704.6875 L 4501.015625 729.0625 L 4515.117188 704.6875 L 4543.28125 704.6875 L 4529.179688 680.273438 L 4543.28125 655.859375 L 4515.117188 655.859375 " transform="matrix(0.1, 0, 0, -0.1, 0, 97)"/>
<path fill="none" stroke-width="3.19601" stroke-linecap="round" stroke-linejoin="round" stroke="rgb(0%, 0%, 0%)" stroke-opacity="1" stroke-miterlimit="10" d="M 4515.117188 655.859375 L 4501.015625 631.445312 L 4515.117188 607.03125 L 4543.28125 607.03125 L 4529.179688 582.617188 L 4543.28125 558.242188 L 4515.117188 558.242188 L 4501.015625 533.828125 L 4486.914062 558.242188 L 4458.710938 558.242188 L 4444.648438 533.828125 L 4458.710938 509.414062 L 4430.546875 509.414062 L 4416.445312 485 L 4430.546875 460.585938 L 4458.710938 460.585938 L 4444.648438 436.171875 L 4458.710938 411.796875 L 4486.914062 411.796875 L 4501.015625 436.171875 L 4515.117188 411.796875 L 4543.28125 411.796875 L 4529.179688 387.382812 L 4543.28125 362.96875 L 4515.117188 362.96875 L 4501.015625 338.554688 L 4515.117188 314.140625 L 4543.28125 314.140625 L 4529.179688 289.726562 L 4543.28125 265.3125 L 4515.117188 265.3125 L 4501.015625 240.9375 L 4486.914062 265.3125 L 4458.710938 265.3125 L 4444.648438 240.9375 L 4458.710938 216.523438 L 4430.546875 216.523438 L 4416.445312 192.109375 L 4402.34375 216.523438 L 4374.179688 216.523438 L 4388.28125 240.9375 L 4374.179688 265.3125 L 4346.015625 265.3125 L 4331.914062 240.9375 L 4317.8125 265.3125 L 4289.648438 265.3125 L 4275.546875 240.9375 L 4289.648438 216.523438 L 4261.445312 216.523438 L 4247.34375 192.109375 L 4261.445312 167.695312 " transform="matrix(0.1, 0, 0, -0.1, 0, 97)"/>
<path fill="none" stroke-width="3.19601" stroke-linecap="round" stroke-linejoin="round" stroke="rgb(0%, 0%, 0%)" stroke-opacity="1" stroke-miterlimit="10" d="M 4261.445312 167.695312 L 4289.648438 167.695312 L 4275.546875 143.28125 L 4289.648438 118.90625 L 4261.445312 118.90625 L 4247.34375 94.492188 L 4233.242188 118.90625 L 4205.078125 118.90625 L 4190.976562 94.492188 L 4205.078125 70.078125 L 4176.914062 70.078125 L 4162.8125 45.664062 L 4148.710938 70.078125 L 4120.546875 70.078125 L 4134.648438 94.492188 L 4120.546875 118.90625 L 4092.34375 118.90625 L 4078.242188 94.492188 L 4064.140625 118.90625 L 4035.976562 118.90625 L 4050.078125 143.28125 L 4035.976562 167.695312 L 4064.140625 167.695312 L 4078.242188 192.109375 L 4064.140625 216.523438 L 4035.976562 216.523438 L 4050.078125 240.9375 L 4035.976562 265.3125 L 4007.8125 265.3125 L 3993.710938 240.9375 L 3979.609375 265.3125 L 3951.445312 265.3125 L 3937.34375 240.9375 L 3951.445312 216.523438 L 3923.242188 216.523438 L 3909.140625 192.109375 L 3895.078125 216.523438 L 3866.875 216.523438 L 3880.976562 240.9375 L 3866.875 265.3125 L 3838.710938 265.3125 L 3824.609375 240.9375 L 3810.507812 265.3125 L 3782.34375 265.3125 " transform="matrix(0.1, 0, 0, -0.1, 0, 97)"/>
</svg>
