<?xml version="1.0" encoding="UTF-8"?>
<svg xmlns="http://www.w3.org/2000/svg" xmlns:xlink="http://www.w3.org/1999/xlink" width="200" height="200" viewBox="0 0 200 200">
<path fill="none" stroke-width="5" stroke-linecap="round" stroke-linejoin="round" stroke="rgb(0%, 0%, 0%)" stroke-opacity="1" stroke-miterlimit="10" d="M 47.617188 1952.382812 L 1952.382812 1952.382812 L 1952.382812 47.617188 L 47.617188 47.617188 L 47.617188 1952.382812 " transform="matrix(0.1, 0, 0, -0.1, 0, 200)"/>
<path fill="none" stroke-width="5" stroke-linecap="round" stroke-linejoin="round" stroke="rgb(0%, 0%, 0%)" stroke-opacity="1" stroke-miterlimit="10" d="M 47.617188 1952.382812 L 1952.382812 1952.382812 L 1000 302.8125 L 47.617188 1952.382812 " transform="matrix(0.1, 0, 0, -0.1, 0, 200)"/>
<path fill="none" stroke-width="5" stroke-linecap="round" stroke-linejoin="round" stroke="rgb(0%, 0%, 0%)" stroke-opacity="1" stroke-miterlimit="10" d="M 1952.382812 1952.382812 L 302.8125 1000 L 1952.382812 47.617188 L 1952.382812 1952.382812 " transform="matrix(0.1, 0, 0, -0.1, 0, 200)"/>
<path fill="none" stroke-width="5" stroke-linecap="round" stroke-linejoin="round" stroke="rgb(0%, 0%, 0%)" stroke-opacity="1" stroke-miterlimit="10" d="M 1952.382812 47.617188 L 47.617188 47.617188 L 1000 1697.1875 L 1952.382812 47.617188 " transform="matrix(0.1, 0, 0, -0.1, 0, 200)"/>
<path fill="none" stroke-width="5" stroke-linecap="round" stroke-linejoin="round" stroke="rgb(0%, 0%, 0%)" stroke-opacity="1" stroke-miterlimit="10" d="M 47.617188 1952.382812 L 1697.1875 1000 L 47.617188 47.617188 L 47.617188 1952.382812 " transform="matrix(0.1, 0, 0, -0.1, 0, 200)"/>
<path fill="none" stroke-width="5" stroke-linecap="round" stroke-linejoin="round" stroke="rgb(0%, 0%, 0%)" stroke-opacity="1" stroke-miterlimit="10" d="M 1000 302.8125 L 302.8125 1000 L 1000 1697.1875 L 1697.1875 1000 L 1000 302.8125 " transform="matrix(0.1, 0, 0, -0.1, 0, 200)"/>
<path fill="none" stroke-width="5" stroke-linecap="round" stroke-linejoin="round" stroke="rgb(0%, 0%, 0%)" stroke-opacity="1" stroke-miterlimit="10" d="M 1476.210938 1127.617188 L 1348.59375 1348.59375 L 1127.617188 1476.210938 L 872.382812 1476.210938 L 651.40625 1348.59375 L 523.789062 1127.617188 L 523.789062 872.382812 L 651.40625 651.40625 L 872.382812 523.789062 L 1127.617188 523.789062 L 1348.59375 651.40625 L 1476.210938 872.382812 L 1476.210938 1127.617188 " transform="matrix(0.1, 0, 0, -0.1, 0, 200)"/>
</svg>
