<?xml version="1.0" encoding="UTF-8"?>
<svg xmlns="http://www.w3.org/2000/svg" xmlns:xlink="http://www.w3.org/1999/xlink" width="228" height="114" viewBox="0 0 228 114">
<path fill="none" stroke-width="9.12" stroke-linecap="round" stroke-linejoin="round" stroke="rgb(0%, 0%, 0%)" stroke-opacity="1" stroke-miterlimit="10" d="M 54.296875 182.226562 L 209.414062 182.226562 L 209.414062 337.34375 L 54.296875 337.34375 L 54.296875 182.226562 " transform="matrix(0.1, 0, 0, -0.1, 0, 114)"/>
<path fill="none" stroke-width="9.12" stroke-linecap="round" stroke-linejoin="round" stroke="rgb(0%, 0%, 0%)" stroke-opacity="1" stroke-miterlimit="10" d="M 54.296875 337.34375 L 209.414062 337.34375 L 209.414062 492.460938 L 54.296875 492.460938 L 54.296875 337.34375 " transform="matrix(0.1, 0, 0, -0.1, 0, 114)"/>
<path fill="none" stroke-width="9.12" stroke-linecap="round" stroke-linejoin="round" stroke="rgb(0%, 0%, 0%)" stroke-opacity="1" stroke-miterlimit="10" d="M 209.414062 182.226562 L 364.492188 182.226562 L 364.492188 337.34375 L 209.414062 337.34375 L 209.414062 182.226562 " transform="matrix(0.1, 0, 0, -0.1, 0, 114)"/>
<path fill="none" stroke-width="9.12" stroke-linecap="round" stroke-linejoin="round" stroke="rgb(0%, 0%, 0%)" stroke-opacity="1" stroke-miterlimit="10" d="M 519.609375 182.226562 L 674.6875 182.226562 L 674.6875 337.34375 L 519.609375 337.34375 L 519.609375 182.226562 " transform="matrix(0.1, 0, 0, -0.1, 0, 114)"/>
<path fill="none" stroke-width="9.12" stroke-linecap="round" stroke-linejoin="round" stroke="rgb(0%, 0%, 0%)" stroke-opacity="1" stroke-miterlimit="10" d="M 519.609375 337.34375 L 674.6875 337.34375 L 674.6875 492.460938 L 519.609375 492.460938 L 519.609375 337.34375 " transform="matrix(0.1, 0, 0, -0.1, 0, 114)"/>
<path fill="none" stroke-width="9.12" stroke-linecap="round" stroke-linejoin="round" stroke="rgb(0%, 0%, 0%)" stroke-opacity="1" stroke-miterlimit="10" d="M 519.609375 492.460938 L 674.6875 492.460938 L 674.6875 647.539062 L 519.609375 647.539062 L 519.609375 492.460938 " transform="matrix(0.1, 0, 0, -0.1, 0, 114)"/>
<path fill="none" stroke-width="9.12" stroke-linecap="round" stroke-linejoin="round" stroke="rgb(0%, 0%, 0%)" stroke-opacity="1" stroke-miterlimit="10" d="M 674.6875 182.226562 L 829.804688 182.226562 L 829.804688 337.34375 L 674.6875 337.34375 L 674.6875 182.226562 " transform="matrix(0.1, 0, 0, -0.1, 0, 114)"/>
<path fill="none" stroke-width="9.12" stroke-linecap="round" stroke-linejoin="round" stroke="rgb(0%, 0%, 0%)" stroke-opacity="1" stroke-miterlimit="10" d="M 984.882812 182.226562 L 1140 182.226562 L 1140 337.34375 L 984.882812 337.34375 L 984.882812 182.226562 " transform="matrix(0.1, 0, 0, -0.1, 0, 114)"/>
<path fill="none" stroke-width="9.12" stroke-linecap="round" stroke-linejoin="round" stroke="rgb(0%, 0%, 0%)" stroke-opacity="1" stroke-miterlimit="10" d="M 984.882812 337.34375 L 1140 337.34375 L 1140 492.460938 L 984.882812 492.460938 L 984.882812 337.34375 " transform="matrix(0.1, 0, 0, -0.1, 0, 114)"/>
<path fill="none" stroke-width="9.12" stroke-linecap="round" stroke-linejoin="round" stroke="rgb(0%, 0%, 0%)" stroke-opacity="1" stroke-miterlimit="10" d="M 984.882812 492.460938 L 1140 492.460938 L 1140 647.539062 L 984.882812 647.539062 L 984.882812 492.460938 " transform="matrix(0.1, 0, 0, -0.1, 0, 114)"/>
<path fill="none" stroke-width="9.12" stroke-linecap="round" stroke-linejoin="round" stroke="rgb(0%, 0%, 0%)" stroke-opacity="1" stroke-miterlimit="10" d="M 984.882812 647.539062 L 1140 647.539062 L 1140 802.65625 L 984.882812 802.65625 L 984.882812 647.539062 " transform="matrix(0.1, 0, 0, -0.1, 0, 114)"/>
<path fill="none" stroke-width="9.12" stroke-linecap="round" stroke-linejoin="round" stroke="rgb(0%, 0%, 0%)" stroke-opacity="1" stroke-miterlimit="10" d="M 1140 182.226562 L 1295.117188 182.226562 L 1295.117188 337.34375 L 1140 337.34375 L 1140 182.226562 " transform="matrix(0.1, 0, 0, -0.1, 0, 114)"/>
<path fill="none" stroke-width="9.12" stroke-linecap="round" stroke-linejoin="round" stroke="rgb(0%, 0%, 0%)" stroke-opacity="1" stroke-miterlimit="10" d="M 1450.195312 182.226562 L 1605.3125 182.226562 L 1605.3125 337.34375 L 1450.195312 337.34375 L 1450.195312 182.226562 " transform="matrix(0.1, 0, 0, -0.1, 0, 114)"/>
<path fill="none" stroke-width="9.12" stroke-linecap="round" stroke-linejoin="round" stroke="rgb(0%, 0%, 0%)" stroke-opacity="1" stroke-miterlimit="10" d="M 1450.195312 337.34375 L 1605.3125 337.34375 L 1605.3125 492.460938 L 1450.195312 492.460938 L 1450.195312 337.34375 " transform="matrix(0.1, 0, 0, -0.1, 0, 114)"/>
<path fill="none" stroke-width="9.12" stroke-linecap="round" stroke-linejoin="round" stroke="rgb(0%, 0%, 0%)" stroke-opacity="1" stroke-miterlimit="10" d="M 1450.195312 492.460938 L 1605.3125 492.460938 L 1605.3125 647.539062 L 1450.195312 647.539062 L 1450.195312 492.460938 " transform="matrix(0.1, 0, 0, -0.1, 0, 114)"/>
<path fill="none" stroke-width="9.12" stroke-linecap="round" stroke-linejoin="round" stroke="rgb(0%, 0%, 0%)" stroke-opacity="1" stroke-miterlimit="10" d="M 1450.195312 647.539062 L 1605.3125 647.539062 L 1605.3125 802.65625 L 1450.195312 802.65625 L 1450.195312 647.539062 " transform="matrix(0.1, 0, 0, -0.1, 0, 114)"/>
<path fill="none" stroke-width="9.12" stroke-linecap="round" stroke-linejoin="round" stroke="rgb(0%, 0%, 0%)" stroke-opacity="1" stroke-miterlimit="10" d="M 1450.195312 802.65625 L 1605.3125 802.65625 L 1605.3125 957.773438 L 1450.195312 957.773438 L 1450.195312 802.65625 " transform="matrix(0.1, 0, 0, -0.1, 0, 114)"/>
<path fill="none" stroke-width="9.12" stroke-linecap="round" stroke-linejoin="round" stroke="rgb(0%, 0%, 0%)" stroke-opacity="1" stroke-miterlimit="10" d="M 1605.3125 182.226562 L 1760.390625 182.226562 L 1760.390625 337.34375 L 1605.3125 337.34375 L 1605.3125 182.226562 " transform="matrix(0.1, 0, 0, -0.1, 0, 114)"/>
<path fill="none" stroke-width="9.12" stroke-linecap="round" stroke-linejoin="round" stroke="rgb(0%, 0%, 0%)" stroke-opacity="1" stroke-miterlimit="10" d="M 1915.507812 182.226562 L 2070.625 182.226562 L 2070.625 337.34375 L 1915.507812 337.34375 L 1915.507812 182.226562 " transform="matrix(0.1, 0, 0, -0.1, 0, 114)"/>
<path fill="none" stroke-width="9.12" stroke-linecap="round" stroke-linejoin="round" stroke="rgb(0%, 0%, 0%)" stroke-opacity="1" stroke-miterlimit="10" d="M 1915.507812 337.34375 L 2070.625 337.34375 L 2070.625 492.460938 L 1915.507812 492.460938 L 1915.507812 337.34375 " transform="matrix(0.1, 0, 0, -0.1, 0, 114)"/>
<path fill="none" stroke-width="9.12" stroke-linecap="round" stroke-linejoin="round" stroke="rgb(0%, 0%, 0%)" stroke-opacity="1" stroke-miterlimit="10" d="M 1915.507812 492.460938 L 2070.625 492.460938 L 2070.625 647.539062 L 1915.507812 647.539062 L 1915.507812 492.460938 " transform="matrix(0.1, 0, 0, -0.1, 0, 114)"/>
<path fill="none" stroke-width="9.12" stroke-linecap="round" stroke-linejoin="round" stroke="rgb(0%, 0%, 0%)" stroke-opacity="1" stroke-miterlimit="10" d="M 1915.507812 647.539062 L 2070.625 647.539062 L 2070.625 802.65625 L 1915.507812 802.65625 L 1915.507812 647.539062 " transform="matrix(0.1, 0, 0, -0.1, 0, 114)"/>
<path fill="none" stroke-width="9.12" stroke-linecap="round" stroke-linejoin="round" stroke="rgb(0%, 0%, 0%)" stroke-opacity="1" stroke-miterlimit="10" d="M 1915.507812 802.65625 L 2070.625 802.65625 L 2070.625 957.773438 L 1915.507812 957.773438 L 1915.507812 802.65625 " transform="matrix(0.1, 0, 0, -0.1, 0, 114)"/>
<path fill="none" stroke-width="9.12" stroke-linecap="round" stroke-linejoin="round" stroke="rgb(0%, 0%, 0%)" stroke-opacity="1" stroke-miterlimit="10" d="M 1915.507812 957.773438 L 2070.625 957.773438 L 2070.625 1112.851562 L 1915.507812 1112.851562 L 1915.507812 957.773438 " transform="matrix(0.1, 0, 0, -0.1, 0, 114)"/>
<path fill="none" stroke-width="9.12" stroke-linecap="round" stroke-linejoin="round" stroke="rgb(0%, 0%, 0%)" stroke-opacity="1" stroke-miterlimit="10" d="M 2070.625 182.226562 L 2225.703125 182.226562 L 2225.703125 337.34375 L 2070.625 337.34375 L 2070.625 182.226562 " transform="matrix(0.1, 0, 0, -0.1, 0, 114)"/>
</svg>
