<?xml version="1.0" encoding="UTF-8"?>
<svg xmlns="http://www.w3.org/2000/svg" xmlns:xlink="http://www.w3.org/1999/xlink" width="201.56" height="142.5" viewBox="0 0 201.56 142.5">
<defs>
<clipPath id="clip-0">
<path clip-rule="nonzero" d="M 0.132812 70 L 200.988281 70 L 200.988281 72 L 0.132812 72 Z M 0.132812 70 "/>
</clipPath>
<clipPath id="clip-1">
<path clip-rule="nonzero" d="M 100 0 L 101 0 L 101 142 L 100 142 Z M 100 0 "/>
</clipPath>
</defs>
<g clip-path="url(#clip-0)">
<path fill="none" stroke-width="2.5" stroke-linecap="round" stroke-linejoin="round" stroke="rgb(0%, 0%, 0%)" stroke-opacity="1" stroke-miterlimit="10" d="M 0.192643 712.469572 L 2015.442094 712.469572 " transform="matrix(0.0996503, 0, 0, -0.0996503, 0.133147, 142.001748)"/>
</g>
<g clip-path="url(#clip-1)">
<path fill="none" stroke-width="2.5" stroke-linecap="round" stroke-linejoin="round" stroke="rgb(0%, 0%, 0%)" stroke-opacity="1" stroke-miterlimit="10" d="M 1007.817368 0.0175439 L 1007.817368 1425 " transform="matrix(0.0996503, 0, 0, -0.0996503, 0.133147, 142.001748)"/>
</g>
<path fill="none" stroke-width="5" stroke-linecap="round" stroke-linejoin="round" stroke="rgb(100%, 0%, 0%)" stroke-opacity="1" stroke-miterlimit="10" d="M 1967.461831 712.469572 L 1967.383432 723.641447 L 1967.148235 733.794134 L 1966.67784 745.514803 L 1966.089846 756.569079 L 1964.639463 776.247259 L 1962.405088 797.493421 L 1959.269123 820.777961 L 1955.07477 845.316886 L 1945.470877 888.828399 L 1932.809419 932.849507 L 1918.462379 973.068257 L 1877.420439 1060.052083 L 1824.618629 1140.685581 L 1768.210461 1205.913651 L 1695.495274 1269.652138 L 1621.094507 1317.945998 L 1551.632884 1350.83443 L 1512.433322 1364.828673 L 1477.036118 1374.863761 L 1444.186886 1381.998081 L 1425.880691 1385.094846 L 1409.181678 1387.329221 L 1394.67784 1388.858004 L 1378.880417 1390.073191 L 1371.001305 1390.504386 L 1362.651798 1390.817982 L 1354.772686 1391.01398 L 1347.677566 1391.05318 L 1339.798454 1391.01398 L 1332.428936 1390.857182 L 1324.432226 1390.543586 L 1315.886721 1390.11239 L 1307.537215 1389.524397 L 1298.795713 1388.740406 L 1283.468684 1386.976425 L 1256.812982 1382.703673 L 1229.020493 1376.549342 L 1200.640011 1368.239035 L 1172.416327 1357.733553 L 1127.45443 1335.625 L 1089.509254 1310.184485 L 1057.600811 1281.568805 L 1035.845055 1255.618695 L 1022.203607 1234.098136 L 1017.578059 1224.925439 L 1013.814901 1216.144737 L 1011.462928 1209.520011 L 1009.698947 1203.444079 L 1008.954156 1200.386513 " transform="matrix(0.0996503, 0, 0, -0.0996503, 0.133147, 142.001748)"/>
<path fill="none" stroke-width="5" stroke-linecap="round" stroke-linejoin="round" stroke="rgb(100%, 0%, 0%)" stroke-opacity="1" stroke-miterlimit="10" d="M 1008.954156 1200.386513 L 1008.483761 1197.95614 L 1008.170164 1195.917763 L 1007.974167 1194.42818 L 1007.895768 1193.879386 L 1007.856568 1193.369792 L 1007.817368 1193.016996 L 1007.817368 1192.311404 L 1007.817368 1192.546601 L 1007.778169 1192.703399 L 1007.778169 1193.252193 L 1007.69977 1193.800987 L 1007.582171 1195.133772 L 1007.346974 1196.662555 L 1006.406184 1201.484101 L 1004.563805 1208.344024 L 998.566272 1223.827851 L 986.728004 1245.38761 L 968.539408 1269.926535 L 945.568465 1293.759868 L 910.720055 1321.395559 L 869.560515 1345.699287 L 822.63864 1365.612664 L 796.335735 1373.922971 L 765.564079 1381.370888 L 737.849989 1386.192434 L 721.738969 1388.230811 L 713.977456 1389.014803 L 706.725537 1389.602796 L 700.022412 1390.073191 L 692.496096 1390.504386 L 684.891382 1390.817982 L 676.737873 1391.01398 L 669.564353 1391.05318 L 661.724441 1391.01398 L 654.315724 1390.857182 L 647.416601 1390.621985 L 638.675099 1390.190789 L 630.364792 1389.641996 L 614.645768 1388.270011 L 597.515559 1386.192434 L 578.778169 1383.291667 L 544.635351 1376.314145 L 512.805307 1367.80784 L 439.462928 1340.446546 " transform="matrix(0.0996503, 0, 0, -0.0996503, 0.133147, 142.001748)"/>
<path fill="none" stroke-width="5" stroke-linecap="round" stroke-linejoin="round" stroke="rgb(100%, 0%, 0%)" stroke-opacity="1" stroke-miterlimit="10" d="M 439.462928 1340.446546 L 402.811338 1322.414748 L 363.102182 1299.365406 L 293.836557 1248.758772 L 235.115614 1193.095395 L 174.905088 1118.616228 L 126.885625 1038.962719 L 91.214024 957.310033 L 75.690998 909.447368 L 64.519123 865.034265 L 56.640011 822.737939 L 53.347248 798.669408 L 51.034474 776.443257 L 49.54489 756.843476 L 48.956897 745.7108 L 48.525702 735.322917 L 48.290504 724.347039 L 48.172906 714.351151 L 48.251305 702.787281 L 48.486502 691.850603 L 48.878498 681.031524 L 49.466491 669.350055 L 50.211283 658.374178 L 51.034474 648.29989 L 53.504046 625.015351 L 56.914408 600.633224 L 65.616711 555.122533 L 78.395768 506.319079 L 109.324221 422.667215 L 146.877401 349.912829 L 201.051195 271.356908 L 260.281732 206.364035 L 318.728279 156.384594 L 386.112325 111.814693 L 454.554759 78.024671 L 493.911118 63.207237 L 530.601908 52.19216 L 550.358487 47.331414 L 568.978279 43.450658 L 585.79489 40.510691 L 603.552292 38.001919 L 613.54818 36.865132 L 622.564079 35.963542 L 631.658377 35.25795 L 639.929485 34.709156 L 644.555033 34.473958 L 649.611776 34.277961 L 654.66852 34.121162 L 659.960461 34.003564 L 664.586009 33.925164 L 669.564353 33.925164 " transform="matrix(0.0996503, 0, 0, -0.0996503, 0.133147, 142.001748)"/>
<path fill="none" stroke-width="5" stroke-linecap="round" stroke-linejoin="round" stroke="rgb(100%, 0%, 0%)" stroke-opacity="1" stroke-miterlimit="10" d="M 669.564353 33.925164 L 674.189901 33.964364 L 678.423454 34.003564 L 686.263366 34.238761 L 693.554485 34.552357 L 701.511996 35.022752 L 709.979101 35.649945 L 726.913311 37.374726 L 742.044342 39.413103 L 770.189627 44.587445 L 795.630143 50.859375 L 847.059967 68.851974 L 872.970877 81.043037 L 894.805033 93.3125 L 932.436612 119.850603 L 959.954704 145.487116 L 978.456897 167.634868 L 992.568739 189.351425 L 1001.192643 207.304825 L 1004.211009 215.615132 L 1006.053388 222.00466 L 1006.719781 224.866228 L 1007.150976 227.218202 L 1007.464572 228.942982 L 1007.66057 230.432566 L 1007.69977 231.059759 L 1007.738969 231.647752 L 1007.778169 232.039748 L 1007.778169 232.353344 L 1007.817368 232.470943 L 1007.817368 232.666941 L 1007.817368 231.961349 L 1007.856568 231.569353 L 1007.895768 231.020559 L 1008.091765 229.570175 L 1008.326963 227.845395 L 1009.189353 223.572643 L 1010.561338 218.319901 L 1016.284474 202.875274 L 1021.576414 192.056195 L 1028.044342 180.962719 L 1046.428936 155.875 L 1070.928662 130.434485 L 1099.348344 107.463542 " transform="matrix(0.0996503, 0, 0, -0.0996503, 0.133147, 142.001748)"/>
<path fill="none" stroke-width="5" stroke-linecap="round" stroke-linejoin="round" stroke="rgb(100%, 0%, 0%)" stroke-opacity="1" stroke-miterlimit="10" d="M 1099.348344 107.463542 L 1137.136721 83.943805 L 1181.432226 63.638432 L 1209.616711 53.916941 L 1237.683596 46.351425 L 1253.637818 42.901864 L 1269.160844 40.118695 L 1283.625482 38.001919 L 1299.305307 36.198739 L 1307.576414 35.493147 L 1316.788311 34.826754 L 1325.216217 34.395559 L 1333.212928 34.121162 L 1337.838476 34.003564 L 1342.699221 33.925164 L 1351.479923 33.925164 L 1356.419068 34.003564 L 1361.005417 34.121162 L 1366.06216 34.277961 L 1371.510899 34.513158 L 1380.017204 34.983553 L 1389.464298 35.649945 L 1408.711283 37.609923 L 1426.703882 40.040296 L 1443.716491 42.901864 L 1482.445658 51.525768 L 1524.428388 64.108827 L 1601.181129 96.526864 L 1669.466765 136.745614 L 1736.027621 188.489035 L 1792.749386 245.406798 L 1847.903169 316.867599 L 1896.667423 401.930647 L 1926.890285 474.606634 L 1940.374934 517.138158 L 1950.449221 557.082511 L 1957.426743 592.714912 L 1960.562708 613.333882 L 1962.953882 632.149671 L 1964.91386 652.180647 L 1965.77625 663.234923 L 1966.403443 673.662007 L 1966.873838 683.344298 L 1967.187434 692.281798 L 1967.383432 702.081689 L 1967.461831 712.469572 " transform="matrix(0.0996503, 0, 0, -0.0996503, 0.133147, 142.001748)"/>
<path fill="none" stroke-width="5" stroke-linecap="round" stroke-linejoin="round" stroke="rgb(0%, 0%, 0%)" stroke-opacity="1" stroke-miterlimit="10" d="M 1247.718684 712.469572 L 1247.797083 712.469572 L 1247.914682 712.508772 L 1248.032281 712.508772 L 1248.424276 712.547971 L 1248.97307 712.587171 L 1249.757061 712.70477 L 1250.81545 712.861568 L 1253.167423 713.410362 L 1256.264189 714.311952 L 1259.75295 715.566338 L 1269.474441 720.191886 L 1281.469507 728.070998 L 1293.621371 738.61568 L 1308.046809 755.157895 L 1321.139463 775.424068 L 1331.488147 797.415022 L 1336.427292 811.213268 L 1340.19045 824.580318 L 1343.091217 837.82977 L 1344.384803 845.591283 L 1345.364792 852.882401 L 1346.070384 859.428728 L 1346.619178 866.719846 L 1346.815175 870.443805 L 1346.971974 874.48136 L 1347.050373 878.322917 L 1347.089572 881.850877 L 1347.089572 885.810033 L 1346.971974 889.573191 L 1346.854375 893.728344 L 1346.579978 898.236294 L 1346.266382 902.744243 L 1345.835186 907.48739 L 1344.855197 916.072094 L 1342.346425 931.712719 L 1338.504868 949.038925 L 1332.938531 968.011513 L 1325.373015 988.277686 L 1307.537215 1024.419682 L 1283.586283 1060.012884 L 1251.364243 1095.762884 L 1215.457445 1125.711349 L 1178.178662 1149.152686 L 1158.892478 1158.913377 L 1137.450318 1168.086075 L 1118.320932 1174.906798 L 1096.957171 1181.061129 L 1083.786118 1184.197094 " transform="matrix(0.0996503, 0, 0, -0.0996503, 0.133147, 142.001748)"/>
<path fill="none" stroke-width="5" stroke-linecap="round" stroke-linejoin="round" stroke="rgb(0%, 0%, 0%)" stroke-opacity="1" stroke-miterlimit="10" d="M 1083.786118 1184.197094 L 1071.438257 1186.627467 L 1058.5808 1188.705044 L 1046.860132 1190.194627 L 1041.254594 1190.782621 L 1035.217862 1191.253015 L 1030.00432 1191.645011 L 1024.281184 1191.958607 L 1018.166053 1192.193805 L 1014.83409 1192.233004 L 1011.698125 1192.311404 L 1006.131787 1192.311404 L 1000.173454 1192.233004 L 994.332719 1192.076206 L 991.039956 1191.919408 L 987.943191 1191.76261 L 981.710461 1191.370614 L 975.007336 1190.82182 L 962.97307 1189.528235 L 951.997193 1187.960252 L 926.948673 1183.099507 L 901.155362 1176.121985 L 859.211831 1160.089364 L 836.711283 1148.79989 L 816.797906 1136.961623 L 778.578333 1108.698739 L 747.257884 1078.20148 L 723.42455 1048.370614 L 702.452785 1014.266996 L 686.85136 979.810581 L 680.187434 960.132401 L 675.365888 941.787007 L 673.288311 931.987116 L 671.720329 922.73602 L 670.544342 914.386513 L 669.603553 905.605811 L 669.211557 901.137061 L 668.897961 896.237116 L 668.701963 891.768366 L 668.584364 887.652412 L 668.545164 885.300439 L 668.545164 878.479715 L 668.623564 876.010143 L 668.662763 873.775768 L 668.780362 871.345395 L 668.897961 868.719024 L 669.133158 864.759868 L 669.485954 860.408717 L 670.387544 851.745614 L 671.485132 843.944901 " transform="matrix(0.0996503, 0, 0, -0.0996503, 0.133147, 142.001748)"/>
<path fill="none" stroke-width="5" stroke-linecap="round" stroke-linejoin="round" stroke="rgb(0%, 0%, 0%)" stroke-opacity="1" stroke-miterlimit="10" d="M 671.485132 843.944901 L 672.739518 836.771382 L 676.228279 821.365954 L 680.971425 805.842928 L 691.751305 780.559211 L 703.275976 761.155428 L 715.898235 745.044408 L 727.579704 733.441338 L 739.692368 724.111842 L 745.8467 720.387884 L 750.942643 717.683114 L 759.488147 714.272752 L 762.859309 713.331963 L 765.524879 712.743969 L 766.34807 712.626371 L 767.053662 712.547971 L 767.328059 712.547971 L 767.524057 712.508772 L 767.680855 712.508772 L 767.798454 712.469572 L 767.916053 712.469572 L 767.484857 712.469572 L 766.936064 712.430373 L 766.230471 712.351974 L 765.407281 712.234375 L 762.976908 711.685581 L 760.154539 710.940789 L 756.50898 709.686404 L 748.629868 706.158443 L 738.202785 699.847314 L 725.815724 689.929825 L 713.859857 677.621162 L 700.25761 659.275768 L 688.458542 637.676809 L 679.129046 613.647478 L 675.013092 598.751645 L 673.366711 591.421327 L 672.033925 584.483004 L 671.014737 577.858279 L 670.073947 570.449561 L 669.329156 562.844846 L 669.015559 558.611294 L 668.819561 554.652138 L 668.662763 550.810581 " transform="matrix(0.0996503, 0, 0, -0.0996503, 0.133147, 142.001748)"/>
<path fill="none" stroke-width="5" stroke-linecap="round" stroke-linejoin="round" stroke="rgb(0%, 0%, 0%)" stroke-opacity="1" stroke-miterlimit="10" d="M 668.662763 550.810581 L 668.584364 547.204221 L 668.545164 543.911458 L 668.545164 540.305099 L 668.623564 536.385143 L 668.741162 532.15159 L 668.93716 528.54523 L 669.172357 524.546875 L 669.956349 515.883772 L 671.093136 506.319079 L 672.54352 497.185581 L 674.150702 488.640077 L 678.070658 472.411458 L 683.362599 454.928454 L 700.179211 415.0625 L 721.150976 379.900493 L 747.649879 346.345669 L 776.579156 318.004386 L 812.87795 290.525493 L 855.683871 266.574561 L 896.725811 250.306743 L 920.715943 243.368421 L 943.098893 238.546875 L 953.290779 236.822094 L 964.188257 235.332511 L 969.872193 234.666118 L 976.183322 234.078125 L 982.024057 233.60773 L 987.355197 233.254934 L 992.45114 233.019737 L 997.82148 232.823739 L 1003.270219 232.70614 L 1009.189353 232.666941 L 1014.285296 232.74534 L 1019.812434 232.902138 L 1024.947577 233.098136 L 1029.690724 233.333333 L 1040.588202 234.156524 L 1046.781732 234.783717 L 1052.544068 235.45011 L 1076.495 239.291667 L 1096.917971 243.917215 L 1118.438531 250.149945 L 1165.282007 269.161732 L 1204.755965 291.858279 L 1239.957171 318.788377 L 1268.533651 346.972862 L 1294.993355 380.684485 L 1317.219507 418.62966 L 1332.703333 456.222039 L 1338.857664 477.389803 " transform="matrix(0.0996503, 0, 0, -0.0996503, 0.133147, 142.001748)"/>
<path fill="none" stroke-width="5" stroke-linecap="round" stroke-linejoin="round" stroke="rgb(0%, 0%, 0%)" stroke-opacity="1" stroke-miterlimit="10" d="M 1338.857664 477.389803 L 1341.170439 487.346491 L 1342.973618 496.597588 L 1344.384803 505.378289 L 1345.403991 513.257401 L 1346.266382 521.920504 L 1346.579978 526.663651 L 1346.815175 531.093202 L 1346.971974 535.365954 L 1347.050373 537.52193 L 1347.089572 539.873904 L 1347.089572 544.029057 L 1347.050373 547.870614 L 1347.011173 550.065789 L 1346.932774 552.378564 L 1346.736776 556.416118 L 1346.462379 560.76727 L 1346.070384 565.471217 L 1345.207993 573.467928 L 1343.992807 581.935033 L 1341.092039 596.752467 L 1337.48568 610.354715 L 1333.565724 622.153783 L 1322.903443 646.261513 L 1309.849989 667.390077 L 1297.698125 682.168311 L 1284.801469 694.280976 L 1273.511996 702.395285 L 1264.496096 707.373629 L 1257.400976 710.313596 L 1252.461831 711.76398 L 1250.541053 712.155976 L 1249.678662 712.312774 L 1249.01227 712.391173 L 1248.463476 712.430373 L 1248.228279 712.469572 L 1247.718684 712.469572 " transform="matrix(0.0996503, 0, 0, -0.0996503, 0.133147, 142.001748)"/>
</svg>
