<?xml version="1.0" encoding="UTF-8"?>
<svg xmlns="http://www.w3.org/2000/svg" xmlns:xlink="http://www.w3.org/1999/xlink" width="160" height="172.25" viewBox="0 0 160 172.25">
<path fill="none" stroke-width="5" stroke-linecap="round" stroke-linejoin="round" stroke="rgb(100%, 0%, 0%)" stroke-opacity="1" stroke-miterlimit="10" d="M 1151.367017 861.266328 L 1151.955506 861.266328 L 1152.583228 861.305561 L 1153.52481 861.423258 L 1154.858717 861.619421 L 1156.624184 861.894049 L 1160.704372 862.796399 L 1166.000771 864.32647 L 1171.964124 866.484262 L 1188.598739 874.409243 L 1209.11738 887.905252 L 1229.832184 905.913008 L 1254.470247 934.199701 L 1276.832819 968.763607 L 1294.565947 1006.387654 L 1303.000952 1030.005669 L 1309.474329 1052.878266 L 1314.378402 1075.515466 L 1316.614659 1088.776079 L 1318.30166 1101.252041 L 1319.478638 1112.394095 L 1320.459452 1124.909289 L 1320.773313 1131.264967 L 1321.047941 1138.169902 L 1321.204871 1144.721743 L 1321.244104 1150.763561 L 1321.204871 1157.550798 L 1321.087173 1163.984942 L 1320.812545 1171.046807 L 1320.380987 1178.736393 L 1319.831731 1186.42598 L 1319.125544 1194.586357 L 1317.438543 1209.298576 L 1313.162192 1235.976733 L 1306.571118 1265.597333 L 1297.076832 1298.003447 L 1284.169312 1332.724283 L 1253.646362 1394.47637 L 1212.687545 1455.286874 L 1157.644231 1516.411239 L 1096.245238 1567.570528 L 1032.49229 1607.744693 L 999.576152 1624.379309 L 962.854454 1640.072342 L 930.173712 1651.685187 L 893.687409 1662.277984 L 871.128674 1667.613616 " transform="matrix(0.0995665, 0, 0, -0.0995665, 0.346821, 171.503251)"/>
<path fill="none" stroke-width="5" stroke-linecap="round" stroke-linejoin="round" stroke="rgb(100%, 0%, 0%)" stroke-opacity="1" stroke-miterlimit="10" d="M 871.128674 1667.613616 L 850.060776 1671.77227 L 828.051297 1675.342435 L 807.964214 1677.85332 L 798.430697 1678.834135 L 788.112527 1679.697251 L 779.206731 1680.324973 L 769.398585 1680.834996 L 758.923485 1681.227322 L 753.234761 1681.384253 L 747.899129 1681.462718 L 738.365611 1681.462718 L 728.16514 1681.34502 L 718.239296 1681.031159 L 712.589804 1680.834996 L 707.293405 1680.560368 L 696.661375 1679.854182 L 685.205461 1678.9126 L 664.608354 1676.715575 L 645.85518 1674.047759 L 603.013198 1665.730452 L 558.915775 1653.803746 L 487.237845 1626.380171 L 448.789913 1607.077739 L 414.696798 1586.872959 L 349.374546 1538.577649 L 295.861303 1486.437545 L 255.098648 1435.435187 L 219.240067 1377.135568 L 192.601143 1318.208228 L 181.184461 1284.546671 L 172.945619 1253.239069 L 169.414686 1236.447524 L 166.707638 1220.636792 L 164.706776 1206.395365 L 163.09824 1191.369285 L 162.470519 1183.718931 L 161.921263 1175.323159 L 161.568169 1167.75127 L 161.372007 1160.689405 L 161.293541 1156.648449 L 161.254309 1152.450562 L 161.293541 1144.957139 L 161.372007 1140.798485 L 161.489704 1136.953692 L 161.646635 1132.795038 L 161.88203 1128.322524 L 162.274356 1121.496054 L 162.862845 1114.081096 L 164.432148 1099.290412 L 166.315312 1085.951333 " transform="matrix(0.0995665, 0, 0, -0.0995665, 0.346821, 171.503251)"/>
<path fill="none" stroke-width="5" stroke-linecap="round" stroke-linejoin="round" stroke="rgb(100%, 0%, 0%)" stroke-opacity="1" stroke-miterlimit="10" d="M 166.315312 1085.951333 L 168.433872 1073.75 L 174.436457 1047.346471 L 182.557602 1020.825245 L 200.957683 977.590938 L 220.65244 944.439405 L 242.230361 916.898131 L 262.238979 897.046444 L 282.91455 881.118015 L 293.38965 874.683872 L 302.138516 870.132892 L 316.733037 864.287237 L 322.500227 862.639468 L 327.051206 861.697886 L 328.463579 861.462491 L 329.67979 861.344793 L 330.111348 861.305561 L 330.503674 861.266328 L 331.131395 861.266328 L 330.935232 861.266328 L 330.699837 861.227095 L 330.425209 861.227095 L 329.522859 861.14863 L 328.306649 860.9917 L 326.894276 860.756304 L 322.657157 859.893188 L 317.831549 858.55928 L 311.672034 856.44072 L 298.215258 850.398902 L 280.403665 839.649175 L 259.139604 822.700698 L 238.738661 801.632801 L 215.512972 770.246734 L 195.347424 733.368106 L 179.418995 692.252358 L 172.35713 666.829644 L 169.532384 654.275218 L 167.296127 642.426978 L 165.491428 631.127993 L 163.882892 618.455869 L 162.627449 605.391419 L 162.117426 598.172623 L 161.7251 591.385386 L 161.489704 584.872778 " transform="matrix(0.0995665, 0, 0, -0.0995665, 0.346821, 171.503251)"/>
<path fill="none" stroke-width="5" stroke-linecap="round" stroke-linejoin="round" stroke="rgb(100%, 0%, 0%)" stroke-opacity="1" stroke-miterlimit="10" d="M 161.489704 584.872778 L 161.332774 578.674029 L 161.254309 573.06377 L 161.293541 566.904254 L 161.411239 560.15625 L 161.646635 552.976687 L 161.960495 546.777939 L 162.392054 539.95147 L 163.686729 525.121553 L 165.687591 508.800798 L 168.120011 493.18623 L 170.905524 478.591709 L 177.535831 450.81504 L 186.598558 420.959044 L 215.395274 352.812046 L 251.214623 292.707729 L 296.528257 235.310459 L 345.961312 186.858218 L 408.027259 139.896816 L 481.235259 98.937999 L 551.383119 71.122097 L 592.381168 59.31309 L 630.632937 51.035015 L 648.052204 48.131803 L 666.687681 45.542453 L 676.417362 44.44394 L 687.206323 43.384661 L 697.132166 42.600009 L 706.273358 42.01152 L 715.022224 41.579962 L 724.202649 41.226869 L 733.461538 41.069938 L 743.583545 41.030706 L 752.371644 41.109171 L 761.748231 41.344566 L 770.575562 41.69766 L 778.618242 42.129218 L 797.292952 43.580824 L 807.846517 44.600871 L 817.733128 45.777848 L 858.691945 52.32969 L 893.608944 60.176206 L 930.369875 70.847469 L 1010.48281 103.371281 L 1077.923621 142.172306 L 1138.106404 188.231359 L 1186.990203 236.448204 L 1232.225372 294.002404 L 1270.16328 358.932329 L 1296.645274 423.116836 L 1307.198839 459.289278 " transform="matrix(0.0995665, 0, 0, -0.0995665, 0.346821, 171.503251)"/>
<path fill="none" stroke-width="5" stroke-linecap="round" stroke-linejoin="round" stroke="rgb(100%, 0%, 0%)" stroke-opacity="1" stroke-miterlimit="10" d="M 1307.198839 459.289278 L 1311.122097 476.355452 L 1314.221471 492.205415 L 1316.614659 507.15303 L 1318.340893 520.649038 L 1319.792498 535.478955 L 1320.380987 543.560867 L 1320.773313 551.171988 L 1321.087173 558.469249 L 1321.165639 562.157112 L 1321.204871 566.158835 L 1321.244104 573.259933 L 1321.165639 579.851007 L 1321.087173 583.578102 L 1320.969476 587.501361 L 1320.616382 594.445528 L 1320.184824 601.860486 L 1319.51787 609.863933 L 1318.027032 623.595337 L 1315.947705 638.072161 L 1311.004399 663.377177 L 1304.805651 686.642099 L 1298.136112 706.84688 L 1279.892961 748.041092 L 1257.569621 784.135069 L 1236.776352 809.440085 L 1214.766872 830.115657 L 1195.464441 844.043224 L 1180.046036 852.517462 L 1167.9624 857.5 L 1159.488162 859.971653 L 1156.192625 860.677839 L 1154.701787 860.913235 L 1153.564042 861.070165 L 1152.62246 861.187863 L 1152.230134 861.187863 L 1151.877041 861.227095 L 1151.680878 861.227095 L 1151.523948 861.266328 L 1151.367017 861.266328 " transform="matrix(0.0995665, 0, 0, -0.0995665, 0.346821, 171.503251)"/>
<path fill="none" stroke-width="5" stroke-linecap="round" stroke-linejoin="round" stroke="rgb(0%, 0%, 0%)" stroke-opacity="1" stroke-miterlimit="10" d="M 1151.367017 861.266328 C 1151.367017 1087.756032 967.758527 1271.364523 741.22959 1271.364523 C 514.739886 1271.364523 331.131395 1087.756032 331.131395 861.266328 C 331.131395 634.737391 514.739886 451.128901 741.22959 451.128901 C 967.758527 451.128901 1151.367017 634.737391 1151.367017 861.266328 C 1151.367017 874.919267 1150.660831 888.572206 1149.326923 902.185913 " transform="matrix(0.0995665, 0, 0, -0.0995665, 0.346821, 171.503251)"/>
<path fill="none" stroke-width="5" stroke-linecap="round" stroke-linejoin="round" stroke="rgb(0%, 0%, 100%)" stroke-opacity="1" stroke-miterlimit="10" d="M 1561.504445 861.266328 C 1561.504445 974.491564 1469.7002 1066.295809 1356.435731 1066.295809 C 1243.171263 1066.295809 1151.367017 974.491564 1151.367017 861.266328 C 1151.367017 748.00186 1243.171263 656.197614 1356.435731 656.197614 C 1469.7002 656.197614 1561.504445 748.00186 1561.504445 861.266328 C 1561.504445 868.092798 1561.151352 874.919267 1560.484398 881.706504 " transform="matrix(0.0995665, 0, 0, -0.0995665, 0.346821, 171.503251)"/>
<path fill="none" stroke-width="5" stroke-linecap="round" stroke-linejoin="round" stroke="rgb(0%, 0%, 100%)" stroke-opacity="1" stroke-miterlimit="10" d="M 1356.435731 861.266328 L 1151.367017 861.266328 " transform="matrix(0.0995665, 0, 0, -0.0995665, 0.346821, 171.503251)"/>
<path fill="none" stroke-width="47.9743" stroke-linecap="round" stroke-linejoin="round" stroke="rgb(100%, 0%, 0%)" stroke-opacity="1" stroke-miterlimit="10" d="M 1151.367017 861.266328 L 1151.367017 861.266328 " transform="matrix(0.0995665, 0, 0, -0.0995665, 0.346821, 171.503251)"/>
<path fill="none" stroke-width="5" stroke-linecap="round" stroke-linejoin="round" stroke="rgb(0%, 0%, 0%)" stroke-opacity="1" stroke-miterlimit="10" d="M 1151.367017 861.266328 C 1151.367017 1087.756032 967.758527 1271.364523 741.22959 1271.364523 C 514.739886 1271.364523 331.131395 1087.756032 331.131395 861.266328 C 331.131395 634.737391 514.739886 451.128901 741.22959 451.128901 C 967.758527 451.128901 1151.367017 634.737391 1151.367017 861.266328 C 1151.367017 874.919267 1150.660831 888.572206 1149.326923 902.185913 " transform="matrix(0.0995665, 0, 0, -0.0995665, 0.346821, 171.503251)"/>
<path fill="none" stroke-width="5" stroke-linecap="round" stroke-linejoin="round" stroke="rgb(0%, 0%, 100%)" stroke-opacity="1" stroke-miterlimit="10" d="M 1136.419403 1446.302612 C 1136.419403 1559.567081 1044.615158 1651.371326 931.350689 1651.371326 C 818.086221 1651.371326 726.281976 1559.567081 726.281976 1446.302612 C 726.281976 1333.077377 818.086221 1241.233899 931.350689 1241.233899 C 1044.615158 1241.233899 1136.419403 1333.077377 1136.419403 1446.302612 C 1136.419403 1453.168315 1136.06631 1459.994784 1135.399356 1466.782021 " transform="matrix(0.0995665, 0, 0, -0.0995665, 0.346821, 171.503251)"/>
<path fill="none" stroke-width="5" stroke-linecap="round" stroke-linejoin="round" stroke="rgb(0%, 0%, 100%)" stroke-opacity="1" stroke-miterlimit="10" d="M 931.350689 1446.302612 L 1097.265285 1566.864341 " transform="matrix(0.0995665, 0, 0, -0.0995665, 0.346821, 171.503251)"/>
<path fill="none" stroke-width="47.9743" stroke-linecap="round" stroke-linejoin="round" stroke="rgb(100%, 0%, 0%)" stroke-opacity="1" stroke-miterlimit="10" d="M 1097.265285 1566.864341 L 1097.265285 1566.864341 " transform="matrix(0.0995665, 0, 0, -0.0995665, 0.346821, 171.503251)"/>
<path fill="none" stroke-width="5" stroke-linecap="round" stroke-linejoin="round" stroke="rgb(0%, 0%, 0%)" stroke-opacity="1" stroke-miterlimit="10" d="M 1151.367017 861.266328 C 1151.367017 1087.756032 967.758527 1271.364523 741.22959 1271.364523 C 514.739886 1271.364523 331.131395 1087.756032 331.131395 861.266328 C 331.131395 634.737391 514.739886 451.128901 741.22959 451.128901 C 967.758527 451.128901 1151.367017 634.737391 1151.367017 861.266328 C 1151.367017 874.919267 1150.660831 888.572206 1149.326923 902.185913 " transform="matrix(0.0995665, 0, 0, -0.0995665, 0.346821, 171.503251)"/>
<path fill="none" stroke-width="5" stroke-linecap="round" stroke-linejoin="round" stroke="rgb(0%, 0%, 100%)" stroke-opacity="1" stroke-miterlimit="10" d="M 448.632983 1222.833817 C 448.632983 1336.098286 356.828737 1427.902531 243.564269 1427.902531 C 130.2998 1427.902531 38.495555 1336.098286 38.495555 1222.833817 C 38.495555 1109.608581 130.2998 1017.804336 243.564269 1017.804336 C 356.828737 1017.804336 448.632983 1109.608581 448.632983 1222.833817 C 448.632983 1229.699519 448.279889 1236.525989 447.612935 1243.313226 " transform="matrix(0.0995665, 0, 0, -0.0995665, 0.346821, 171.503251)"/>
<path fill="none" stroke-width="5" stroke-linecap="round" stroke-linejoin="round" stroke="rgb(0%, 0%, 100%)" stroke-opacity="1" stroke-miterlimit="10" d="M 243.564269 1222.833817 L 180.203647 1027.808645 " transform="matrix(0.0995665, 0, 0, -0.0995665, 0.346821, 171.503251)"/>
<path fill="none" stroke-width="47.9743" stroke-linecap="round" stroke-linejoin="round" stroke="rgb(100%, 0%, 0%)" stroke-opacity="1" stroke-miterlimit="10" d="M 180.203647 1027.808645 L 180.203647 1027.808645 " transform="matrix(0.0995665, 0, 0, -0.0995665, 0.346821, 171.503251)"/>
<path fill="none" stroke-width="5" stroke-linecap="round" stroke-linejoin="round" stroke="rgb(0%, 0%, 0%)" stroke-opacity="1" stroke-miterlimit="10" d="M 1151.367017 861.266328 C 1151.367017 1087.756032 967.758527 1271.364523 741.22959 1271.364523 C 514.739886 1271.364523 331.131395 1087.756032 331.131395 861.266328 C 331.131395 634.737391 514.739886 451.128901 741.22959 451.128901 C 967.758527 451.128901 1151.367017 634.737391 1151.367017 861.266328 C 1151.367017 874.919267 1150.660831 888.572206 1149.326923 902.185913 " transform="matrix(0.0995665, 0, 0, -0.0995665, 0.346821, 171.503251)"/>
<path fill="none" stroke-width="5" stroke-linecap="round" stroke-linejoin="round" stroke="rgb(0%, 0%, 100%)" stroke-opacity="1" stroke-miterlimit="10" d="M 448.632983 499.659606 C 448.632983 612.884842 356.828737 704.72832 243.564269 704.72832 C 130.2998 704.72832 38.495555 612.884842 38.495555 499.659606 C 38.495555 386.395138 130.2998 294.590893 243.564269 294.590893 C 356.828737 294.590893 448.632983 386.395138 448.632983 499.659606 C 448.632983 506.486076 448.279889 513.312545 447.612935 520.139015 " transform="matrix(0.0995665, 0, 0, -0.0995665, 0.346821, 171.503251)"/>
<path fill="none" stroke-width="5" stroke-linecap="round" stroke-linejoin="round" stroke="rgb(0%, 0%, 100%)" stroke-opacity="1" stroke-miterlimit="10" d="M 243.564269 499.659606 L 180.203647 694.684779 " transform="matrix(0.0995665, 0, 0, -0.0995665, 0.346821, 171.503251)"/>
<path fill="none" stroke-width="47.9743" stroke-linecap="round" stroke-linejoin="round" stroke="rgb(100%, 0%, 0%)" stroke-opacity="1" stroke-miterlimit="10" d="M 180.203647 694.684779 L 180.203647 694.684779 " transform="matrix(0.0995665, 0, 0, -0.0995665, 0.346821, 171.503251)"/>
<path fill="none" stroke-width="5" stroke-linecap="round" stroke-linejoin="round" stroke="rgb(0%, 0%, 0%)" stroke-opacity="1" stroke-miterlimit="10" d="M 1151.367017 861.266328 C 1151.367017 1087.756032 967.758527 1271.364523 741.22959 1271.364523 C 514.739886 1271.364523 331.131395 1087.756032 331.131395 861.266328 C 331.131395 634.737391 514.739886 451.128901 741.22959 451.128901 C 967.758527 451.128901 1151.367017 634.737391 1151.367017 861.266328 C 1151.367017 874.919267 1150.660831 888.572206 1149.326923 902.185913 " transform="matrix(0.0995665, 0, 0, -0.0995665, 0.346821, 171.503251)"/>
<path fill="none" stroke-width="5" stroke-linecap="round" stroke-linejoin="round" stroke="rgb(0%, 0%, 100%)" stroke-opacity="1" stroke-miterlimit="10" d="M 1136.419403 276.190811 C 1136.419403 389.416047 1044.615158 481.220292 931.350689 481.220292 C 818.086221 481.220292 726.281976 389.416047 726.281976 276.190811 C 726.281976 162.926343 818.086221 71.122097 931.350689 71.122097 C 1044.615158 71.122097 1136.419403 162.926343 1136.419403 276.190811 C 1136.419403 283.01728 1136.06631 289.84375 1135.399356 296.630987 " transform="matrix(0.0995665, 0, 0, -0.0995665, 0.346821, 171.503251)"/>
<path fill="none" stroke-width="5" stroke-linecap="round" stroke-linejoin="round" stroke="rgb(0%, 0%, 100%)" stroke-opacity="1" stroke-miterlimit="10" d="M 931.350689 276.190811 L 1097.265285 155.629082 " transform="matrix(0.0995665, 0, 0, -0.0995665, 0.346821, 171.503251)"/>
<path fill="none" stroke-width="47.9743" stroke-linecap="round" stroke-linejoin="round" stroke="rgb(100%, 0%, 0%)" stroke-opacity="1" stroke-miterlimit="10" d="M 1097.265285 155.629082 L 1097.265285 155.629082 " transform="matrix(0.0995665, 0, 0, -0.0995665, 0.346821, 171.503251)"/>
</svg>
