<?xml version="1.0" encoding="UTF-8"?>
<svg xmlns="http://www.w3.org/2000/svg" xmlns:xlink="http://www.w3.org/1999/xlink" width="251" height="239" viewBox="0 0 251 239">
<path fill-rule="nonzero" fill="rgb(100%, 100%, 84.959412%)" fill-opacity="1" stroke-width="0.3" stroke-linecap="square" stroke-linejoin="miter" stroke="rgb(100%, 100%, 84.959412%)" stroke-opacity="1" stroke-miterlimit="3.25" d="M 1805.78125 1256.71875 L 2500.15625 1319.335938 L 2133.632812 1912.382812 L 1439.257812 1849.804688 Z M 1805.78125 1256.71875 " transform="matrix(0.1, 0, 0, -0.1, 0, 239)"/>
<path fill="none" stroke-width="3.6" stroke-linecap="square" stroke-linejoin="miter" stroke="rgb(0%, 0%, 0%)" stroke-opacity="1" stroke-miterlimit="3.25" d="M 1805.78125 1256.71875 L 2500.15625 1319.335938 L 2133.632812 1912.382812 L 1439.257812 1849.804688 Z M 1805.78125 1256.71875 " transform="matrix(0.1, 0, 0, -0.1, 0, 239)"/>
<path fill-rule="nonzero" fill="rgb(100%, 100%, 84.959412%)" fill-opacity="1" stroke-width="0.3" stroke-linecap="square" stroke-linejoin="miter" stroke="rgb(100%, 100%, 84.959412%)" stroke-opacity="1" stroke-miterlimit="3.25" d="M 378.359375 1194.101562 L 11.835938 1787.1875 L 378.359375 2380.234375 L 744.882812 1787.1875 Z M 378.359375 1194.101562 " transform="matrix(0.1, 0, 0, -0.1, 0, 239)"/>
<path fill="none" stroke-width="3.6" stroke-linecap="square" stroke-linejoin="miter" stroke="rgb(0%, 0%, 0%)" stroke-opacity="1" stroke-miterlimit="3.25" d="M 378.359375 1194.101562 L 11.835938 1787.1875 L 378.359375 2380.234375 L 744.882812 1787.1875 Z M 378.359375 1194.101562 " transform="matrix(0.1, 0, 0, -0.1, 0, 239)"/>
<path fill-rule="nonzero" fill="rgb(100%, 100%, 84.959412%)" fill-opacity="1" stroke-width="0.3" stroke-linecap="square" stroke-linejoin="miter" stroke="rgb(100%, 100%, 84.959412%)" stroke-opacity="1" stroke-miterlimit="3.25" d="M 744.882812 1787.1875 L 1439.257812 1849.804688 L 1805.78125 1256.71875 L 1111.445312 1194.101562 Z M 744.882812 1787.1875 " transform="matrix(0.1, 0, 0, -0.1, 0, 239)"/>
<path fill="none" stroke-width="3.6" stroke-linecap="square" stroke-linejoin="miter" stroke="rgb(0%, 0%, 0%)" stroke-opacity="1" stroke-miterlimit="3.25" d="M 744.882812 1787.1875 L 1439.257812 1849.804688 L 1805.78125 1256.71875 L 1111.445312 1194.101562 Z M 744.882812 1787.1875 " transform="matrix(0.1, 0, 0, -0.1, 0, 239)"/>
<path fill-rule="nonzero" fill="rgb(100%, 100%, 84.959412%)" fill-opacity="1" stroke-width="0.3" stroke-linecap="square" stroke-linejoin="miter" stroke="rgb(100%, 100%, 84.959412%)" stroke-opacity="1" stroke-miterlimit="3.25" d="M 1111.445312 1194.101562 L 1805.78125 1131.523438 L 1439.257812 538.4375 L 744.882812 601.054688 Z M 1111.445312 1194.101562 " transform="matrix(0.1, 0, 0, -0.1, 0, 239)"/>
<path fill="none" stroke-width="3.6" stroke-linecap="square" stroke-linejoin="miter" stroke="rgb(0%, 0%, 0%)" stroke-opacity="1" stroke-miterlimit="3.25" d="M 1111.445312 1194.101562 L 1805.78125 1131.523438 L 1439.257812 538.4375 L 744.882812 601.054688 Z M 1111.445312 1194.101562 " transform="matrix(0.1, 0, 0, -0.1, 0, 239)"/>
<path fill-rule="nonzero" fill="rgb(100%, 100%, 84.959412%)" fill-opacity="1" stroke-width="0.3" stroke-linecap="square" stroke-linejoin="miter" stroke="rgb(100%, 100%, 84.959412%)" stroke-opacity="1" stroke-miterlimit="3.25" d="M 744.882812 601.054688 L 1111.445312 1194.101562 L 744.882812 1787.1875 L 378.359375 1194.101562 Z M 744.882812 601.054688 " transform="matrix(0.1, 0, 0, -0.1, 0, 239)"/>
<path fill="none" stroke-width="3.6" stroke-linecap="square" stroke-linejoin="miter" stroke="rgb(0%, 0%, 0%)" stroke-opacity="1" stroke-miterlimit="3.25" d="M 744.882812 601.054688 L 1111.445312 1194.101562 L 744.882812 1787.1875 L 378.359375 1194.101562 Z M 744.882812 601.054688 " transform="matrix(0.1, 0, 0, -0.1, 0, 239)"/>
<path fill-rule="nonzero" fill="rgb(100%, 100%, 84.959412%)" fill-opacity="1" stroke-width="0.3" stroke-linecap="square" stroke-linejoin="miter" stroke="rgb(100%, 100%, 84.959412%)" stroke-opacity="1" stroke-miterlimit="3.25" d="M 378.359375 1194.101562 L 744.882812 601.054688 L 378.359375 8.007812 L 11.835938 601.054688 Z M 378.359375 1194.101562 " transform="matrix(0.1, 0, 0, -0.1, 0, 239)"/>
<path fill="none" stroke-width="3.6" stroke-linecap="square" stroke-linejoin="miter" stroke="rgb(0%, 0%, 0%)" stroke-opacity="1" stroke-miterlimit="3.25" d="M 378.359375 1194.101562 L 744.882812 601.054688 L 378.359375 8.007812 L 11.835938 601.054688 Z M 378.359375 1194.101562 " transform="matrix(0.1, 0, 0, -0.1, 0, 239)"/>
</svg>
