<?xml version="1.0" encoding="UTF-8"?>
<svg xmlns="http://www.w3.org/2000/svg" xmlns:xlink="http://www.w3.org/1999/xlink" width="172.25" height="183.94" viewBox="0 0 172.25 183.94">
<path fill-rule="nonzero" fill="rgb(57.226562%, 36.69281%, 56.25%)" fill-opacity="1" stroke-width="5" stroke-linecap="round" stroke-linejoin="round" stroke="rgb(0%, 0%, 0%)" stroke-opacity="1" stroke-miterlimit="10" d="M 1003.216392 967.94326 L 1267.330143 885.6333 L 1478.989931 999.211629 " transform="matrix(0.0995665, 0, 0, -0.0995665, -0.000000000000001388, 183.511416)"/>
<path fill-rule="nonzero" fill="rgb(57.226562%, 36.69281%, 56.25%)" fill-opacity="1" d="M 81.933594 64.722656 L 99.886719 87.136719 L 147.257812 84.023438 "/>
<path fill="none" stroke-width="5" stroke-linecap="round" stroke-linejoin="round" stroke="rgb(0%, 0%, 0%)" stroke-opacity="1" stroke-miterlimit="10" d="M 822.903438 1193.059824 L 1003.216392 967.94326 " transform="matrix(0.0995665, 0, 0, -0.0995665, -0.000000000000001388, 183.511416)"/>
<path fill-rule="nonzero" fill="rgb(74.804688%, 61.131287%, 70.506287%)" fill-opacity="1" stroke-width="5" stroke-linecap="round" stroke-linejoin="round" stroke="rgb(0%, 0%, 0%)" stroke-opacity="1" stroke-miterlimit="10" d="M 905.958817 695.394503 L 1003.216392 967.94326 L 822.903438 1193.059824 " transform="matrix(0.0995665, 0, 0, -0.0995665, -0.000000000000001388, 183.511416)"/>
<path fill-rule="nonzero" fill="rgb(63.867188%, 55.271912%, 74.21875%)" fill-opacity="1" stroke-width="5" stroke-linecap="round" stroke-linejoin="round" stroke="rgb(0%, 0%, 0%)" stroke-opacity="1" stroke-miterlimit="10" d="M 1003.216392 967.94326 L 905.958817 695.394503 L 1169.091754 605.787282 " transform="matrix(0.0995665, 0, 0, -0.0995665, -0.000000000000001388, 183.511416)"/>
<path fill-rule="nonzero" fill="rgb(63.867188%, 55.271912%, 74.21875%)" fill-opacity="1" stroke-width="5" stroke-linecap="round" stroke-linejoin="round" stroke="rgb(0%, 0%, 0%)" stroke-opacity="1" stroke-miterlimit="10" d="M 1169.091754 605.787282 L 1267.330143 885.6333 L 1003.216392 967.94326 " transform="matrix(0.0995665, 0, 0, -0.0995665, -0.000000000000001388, 183.511416)"/>
<path fill-rule="nonzero" fill="rgb(67.1875%, 72.851562%, 89.0625%)" fill-opacity="1" d="M 90.203125 114.273438 L 62.089844 119.558594 L 113.328125 162.21875 "/>
<path fill="none" stroke-width="5" stroke-linecap="round" stroke-linejoin="round" stroke="rgb(0%, 0%, 0%)" stroke-opacity="1" stroke-miterlimit="10" d="M 905.958817 695.394503 L 623.601914 642.312817 " transform="matrix(0.0995665, 0, 0, -0.0995665, -0.000000000000001388, 183.511416)"/>
<path fill-rule="nonzero" fill="rgb(67.1875%, 72.851562%, 89.0625%)" fill-opacity="1" d="M 116.402344 123.195312 L 90.203125 114.273438 L 113.328125 162.21875 "/>
<path fill="none" stroke-width="5" stroke-linecap="round" stroke-linejoin="round" stroke="rgb(0%, 0%, 0%)" stroke-opacity="1" stroke-miterlimit="10" d="M 1169.091754 605.787282 L 905.958817 695.394503 " transform="matrix(0.0995665, 0, 0, -0.0995665, -0.000000000000001388, 183.511416)"/>
<path fill-rule="nonzero" fill="rgb(74.804688%, 61.131287%, 70.506287%)" fill-opacity="1" stroke-width="5" stroke-linecap="round" stroke-linejoin="round" stroke="rgb(0%, 0%, 0%)" stroke-opacity="1" stroke-miterlimit="10" d="M 436.030933 868.959452 L 623.601914 642.312817 L 905.958817 695.394503 " transform="matrix(0.0995665, 0, 0, -0.0995665, -0.000000000000001388, 183.511416)"/>
<path fill-rule="nonzero" fill="rgb(74.804688%, 61.131287%, 70.506287%)" fill-opacity="1" d="M 53.582031 69.289062 L 43.414062 96.992188 L 90.203125 114.273438 "/>
<path fill="none" stroke-width="5" stroke-linecap="round" stroke-linejoin="round" stroke="rgb(0%, 0%, 0%)" stroke-opacity="1" stroke-miterlimit="10" d="M 538.153347 1147.196934 L 436.030933 868.959452 " transform="matrix(0.0995665, 0, 0, -0.0995665, -0.000000000000001388, 183.511416)"/>
<path fill-rule="nonzero" fill="rgb(74.804688%, 61.131287%, 70.506287%)" fill-opacity="1" d="M 81.933594 64.722656 L 53.582031 69.289062 L 90.203125 114.273438 "/>
<path fill="none" stroke-width="5" stroke-linecap="round" stroke-linejoin="round" stroke="rgb(0%, 0%, 0%)" stroke-opacity="1" stroke-miterlimit="10" d="M 822.903438 1193.059824 L 538.153347 1147.196934 " transform="matrix(0.0995665, 0, 0, -0.0995665, -0.000000000000001388, 183.511416)"/>
<path fill-rule="nonzero" fill="rgb(57.226562%, 36.69281%, 56.25%)" fill-opacity="1" d="M 81.761719 39.289062 L 81.933594 64.722656 L 147.257812 84.023438 "/>
<path fill="none" stroke-width="5" stroke-linecap="round" stroke-linejoin="round" stroke="rgb(0%, 0%, 0%)" stroke-opacity="1" stroke-miterlimit="10" d="M 821.177204 1448.503175 L 822.903438 1193.059824 " transform="matrix(0.0995665, 0, 0, -0.0995665, -0.000000000000001388, 183.511416)"/>
<path fill-rule="nonzero" fill="rgb(75.584412%, 51.5625%, 56.834412%)" fill-opacity="1" stroke-width="5" stroke-linecap="round" stroke-linejoin="round" stroke="rgb(0%, 0%, 0%)" stroke-opacity="1" stroke-miterlimit="10" d="M 525.12813 1404.719612 L 538.153347 1147.196934 L 822.903438 1193.059824 " transform="matrix(0.0995665, 0, 0, -0.0995665, -0.000000000000001388, 183.511416)"/>
<path fill-rule="nonzero" fill="rgb(75.584412%, 51.5625%, 56.834412%)" fill-opacity="1" stroke-width="5" stroke-linecap="round" stroke-linejoin="round" stroke="rgb(0%, 0%, 0%)" stroke-opacity="1" stroke-miterlimit="10" d="M 822.903438 1193.059824 L 821.177204 1448.503175 L 525.12813 1404.719612 " transform="matrix(0.0995665, 0, 0, -0.0995665, -0.000000000000001388, 183.511416)"/>
<path fill-rule="nonzero" fill="rgb(67.1875%, 72.851562%, 89.0625%)" fill-opacity="1" d="M 62.089844 119.558594 L 46.265625 136.886719 L 113.328125 162.21875 "/>
<path fill="none" stroke-width="5" stroke-linecap="round" stroke-linejoin="round" stroke="rgb(0%, 0%, 0%)" stroke-opacity="1" stroke-miterlimit="10" d="M 623.601914 642.312817 L 464.670718 468.277077 " transform="matrix(0.0995665, 0, 0, -0.0995665, -0.000000000000001388, 183.511416)"/>
<path fill-rule="nonzero" fill="rgb(83.396912%, 75.389099%, 77.34375%)" fill-opacity="1" stroke-width="5" stroke-linecap="round" stroke-linejoin="round" stroke="rgb(0%, 0%, 0%)" stroke-opacity="1" stroke-miterlimit="10" d="M 266.467707 704.104136 L 464.670718 468.277077 L 623.601914 642.312817 " transform="matrix(0.0995665, 0, 0, -0.0995665, -0.000000000000001388, 183.511416)"/>
<path fill-rule="nonzero" fill="rgb(83.396912%, 75.389099%, 77.34375%)" fill-opacity="1" stroke-width="5" stroke-linecap="round" stroke-linejoin="round" stroke="rgb(0%, 0%, 0%)" stroke-opacity="1" stroke-miterlimit="10" d="M 623.601914 642.312817 L 436.030933 868.959452 L 266.467707 704.104136 " transform="matrix(0.0995665, 0, 0, -0.0995665, -0.000000000000001388, 183.511416)"/>
<path fill-rule="nonzero" fill="rgb(93.75%, 68.554688%, 52.734375%)" fill-opacity="1" stroke-width="5" stroke-linecap="round" stroke-linejoin="round" stroke="rgb(0%, 0%, 0%)" stroke-opacity="1" stroke-miterlimit="10" d="M 266.467707 704.104136 L 436.030933 868.959452 L 538.153347 1147.196934 " transform="matrix(0.0995665, 0, 0, -0.0995665, -0.000000000000001388, 183.511416)"/>
<path fill-rule="nonzero" fill="rgb(93.75%, 68.554688%, 52.734375%)" fill-opacity="1" d="M 11.367188 108.117188 L 26.53125 113.40625 L 53.582031 69.289062 "/>
<path fill="none" stroke-width="5" stroke-linecap="round" stroke-linejoin="round" stroke="rgb(0%, 0%, 0%)" stroke-opacity="1" stroke-miterlimit="10" d="M 114.166818 757.225054 L 266.467707 704.104136 " transform="matrix(0.0995665, 0, 0, -0.0995665, -0.000000000000001388, 183.511416)"/>
<path fill-rule="nonzero" fill="rgb(93.75%, 68.554688%, 52.734375%)" fill-opacity="1" d="M 8.011719 80.890625 L 11.367188 108.117188 L 53.582031 69.289062 "/>
<path fill="none" stroke-width="5" stroke-linecap="round" stroke-linejoin="round" stroke="rgb(0%, 0%, 0%)" stroke-opacity="1" stroke-miterlimit="10" d="M 80.466029 1030.676161 L 114.166818 757.225054 " transform="matrix(0.0995665, 0, 0, -0.0995665, -0.000000000000001388, 183.511416)"/>
<path fill-rule="nonzero" fill="rgb(93.75%, 68.554688%, 52.734375%)" fill-opacity="1" d="M 20.105469 48.652344 L 8.011719 80.890625 L 53.582031 69.289062 "/>
<path fill="none" stroke-width="5" stroke-linecap="round" stroke-linejoin="round" stroke="rgb(0%, 0%, 0%)" stroke-opacity="1" stroke-miterlimit="10" d="M 201.930107 1354.462672 L 80.466029 1030.676161 " transform="matrix(0.0995665, 0, 0, -0.0995665, -0.000000000000001388, 183.511416)"/>
<path fill-rule="nonzero" fill="rgb(93.75%, 68.554688%, 52.734375%)" fill-opacity="1" d="M 39.035156 33.847656 L 20.105469 48.652344 L 53.582031 69.289062 "/>
<path fill="none" stroke-width="5" stroke-linecap="round" stroke-linejoin="round" stroke="rgb(0%, 0%, 0%)" stroke-opacity="1" stroke-miterlimit="10" d="M 392.051206 1503.154164 L 201.930107 1354.462672 " transform="matrix(0.0995665, 0, 0, -0.0995665, -0.000000000000001388, 183.511416)"/>
<path fill-rule="nonzero" fill="rgb(93.75%, 68.554688%, 52.734375%)" fill-opacity="1" stroke-width="5" stroke-linecap="round" stroke-linejoin="round" stroke="rgb(0%, 0%, 0%)" stroke-opacity="1" stroke-miterlimit="10" d="M 538.153347 1147.196934 L 525.12813 1404.719612 L 392.051206 1503.154164 " transform="matrix(0.0995665, 0, 0, -0.0995665, -0.000000000000001388, 183.511416)"/>
<path fill-rule="nonzero" fill="rgb(43.896484%, 43.505859%, 75.78125%)" fill-opacity="1" d="M 126.183594 95.332031 L 116.402344 123.195312 L 149.304688 132.890625 "/>
<path fill="none" stroke-width="5" stroke-linecap="round" stroke-linejoin="round" stroke="rgb(0%, 0%, 0%)" stroke-opacity="1" stroke-miterlimit="10" d="M 1267.330143 885.6333 L 1169.091754 605.787282 " transform="matrix(0.0995665, 0, 0, -0.0995665, -0.000000000000001388, 183.511416)"/>
<path fill-rule="nonzero" fill="rgb(43.896484%, 43.505859%, 75.78125%)" fill-opacity="1" d="M 147.257812 84.023438 L 126.183594 95.332031 L 149.304688 132.890625 "/>
<path fill="none" stroke-width="5" stroke-linecap="round" stroke-linejoin="round" stroke="rgb(0%, 0%, 0%)" stroke-opacity="1" stroke-miterlimit="10" d="M 1478.989931 999.211629 L 1267.330143 885.6333 " transform="matrix(0.0995665, 0, 0, -0.0995665, -0.000000000000001388, 183.511416)"/>
<path fill-rule="nonzero" fill="rgb(67.1875%, 72.851562%, 89.0625%)" fill-opacity="1" stroke-width="5" stroke-linecap="round" stroke-linejoin="round" stroke="rgb(0%, 0%, 0%)" stroke-opacity="1" stroke-miterlimit="10" d="M 1138.215711 213.853774 L 1274.548939 411.311366 L 1169.091754 605.787282 " transform="matrix(0.0995665, 0, 0, -0.0995665, -0.000000000000001388, 183.511416)"/>
<path fill-rule="nonzero" fill="rgb(43.896484%, 43.505859%, 75.78125%)" fill-opacity="1" stroke-width="5" stroke-linecap="round" stroke-linejoin="round" stroke="rgb(0%, 0%, 0%)" stroke-opacity="1" stroke-miterlimit="10" d="M 1169.091754 605.787282 L 1274.548939 411.311366 L 1499.547805 508.41201 " transform="matrix(0.0995665, 0, 0, -0.0995665, -0.000000000000001388, 183.511416)"/>
<path fill-rule="nonzero" fill="rgb(57.226562%, 36.69281%, 56.25%)" fill-opacity="1" d="M 101.226562 25.027344 L 81.761719 39.289062 L 147.257812 84.023438 "/>
<path fill="none" stroke-width="5" stroke-linecap="round" stroke-linejoin="round" stroke="rgb(0%, 0%, 0%)" stroke-opacity="1" stroke-miterlimit="10" d="M 1016.673168 1591.741337 L 821.177204 1448.503175 " transform="matrix(0.0995665, 0, 0, -0.0995665, -0.000000000000001388, 183.511416)"/>
<path fill-rule="nonzero" fill="rgb(68.943787%, 26.097107%, 22.801208%)" fill-opacity="1" d="M 81.761719 39.289062 L 52.285156 43.648438 L 90.859375 13.628906 "/>
<path fill="none" stroke-width="5" stroke-linecap="round" stroke-linejoin="round" stroke="rgb(0%, 0%, 0%)" stroke-opacity="1" stroke-miterlimit="10" d="M 821.177204 1448.503175 L 525.12813 1404.719612 " transform="matrix(0.0995665, 0, 0, -0.0995665, -0.000000000000001388, 183.511416)"/>
<path fill-rule="nonzero" fill="rgb(68.943787%, 26.097107%, 22.801208%)" fill-opacity="1" stroke-width="5" stroke-linecap="round" stroke-linejoin="round" stroke="rgb(0%, 0%, 0%)" stroke-opacity="1" stroke-miterlimit="10" d="M 912.549891 1706.222016 L 1016.673168 1591.741337 L 821.177204 1448.503175 " transform="matrix(0.0995665, 0, 0, -0.0995665, -0.000000000000001388, 183.511416)"/>
<path fill-rule="nonzero" fill="rgb(68.943787%, 26.097107%, 22.801208%)" fill-opacity="1" d="M 52.285156 43.648438 L 39.035156 33.847656 L 90.859375 13.628906 "/>
<path fill="none" stroke-width="5" stroke-linecap="round" stroke-linejoin="round" stroke="rgb(0%, 0%, 0%)" stroke-opacity="1" stroke-miterlimit="10" d="M 525.12813 1404.719612 L 392.051206 1503.154164 " transform="matrix(0.0995665, 0, 0, -0.0995665, -0.000000000000001388, 183.511416)"/>
<path fill-rule="nonzero" fill="rgb(67.1875%, 72.851562%, 89.0625%)" fill-opacity="1" d="M 46.265625 136.886719 L 53.324219 157.773438 L 113.328125 162.21875 "/>
<path fill="none" stroke-width="5" stroke-linecap="round" stroke-linejoin="round" stroke="rgb(0%, 0%, 0%)" stroke-opacity="1" stroke-miterlimit="10" d="M 464.670718 468.277077 L 535.563997 258.500454 " transform="matrix(0.0995665, 0, 0, -0.0995665, -0.000000000000001388, 183.511416)"/>
<path fill-rule="nonzero" fill="rgb(89.84375%, 97.65625%, 81.054688%)" fill-opacity="1" d="M 46.265625 136.886719 L 26.53125 113.40625 L 39.3125 155.332031 "/>
<path fill="none" stroke-width="5" stroke-linecap="round" stroke-linejoin="round" stroke="rgb(0%, 0%, 0%)" stroke-opacity="1" stroke-miterlimit="10" d="M 464.670718 468.277077 L 266.467707 704.104136 " transform="matrix(0.0995665, 0, 0, -0.0995665, -0.000000000000001388, 183.511416)"/>
<path fill-rule="nonzero" fill="rgb(89.84375%, 97.65625%, 81.054688%)" fill-opacity="1" stroke-width="5" stroke-linecap="round" stroke-linejoin="round" stroke="rgb(0%, 0%, 0%)" stroke-opacity="1" stroke-miterlimit="10" d="M 394.83672 283.020818 L 535.563997 258.500454 L 464.670718 468.277077 " transform="matrix(0.0995665, 0, 0, -0.0995665, -0.000000000000001388, 183.511416)"/>
<path fill-rule="nonzero" fill="rgb(57.226562%, 36.69281%, 56.25%)" fill-opacity="1" d="M 130.234375 32.359375 L 101.226562 25.027344 L 147.257812 84.023438 "/>
<path fill="none" stroke-width="5" stroke-linecap="round" stroke-linejoin="round" stroke="rgb(0%, 0%, 0%)" stroke-opacity="1" stroke-miterlimit="10" d="M 1308.014332 1518.101778 L 1016.673168 1591.741337 " transform="matrix(0.0995665, 0, 0, -0.0995665, -0.000000000000001388, 183.511416)"/>
<path fill-rule="nonzero" fill="rgb(57.226562%, 36.69281%, 56.25%)" fill-opacity="1" stroke-width="5" stroke-linecap="round" stroke-linejoin="round" stroke="rgb(0%, 0%, 0%)" stroke-opacity="1" stroke-miterlimit="10" d="M 1478.989931 999.211629 L 1504.451878 1263.246916 L 1308.014332 1518.101778 " transform="matrix(0.0995665, 0, 0, -0.0995665, -0.000000000000001388, 183.511416)"/>
<path fill-rule="nonzero" fill="rgb(43.896484%, 43.505859%, 75.78125%)" fill-opacity="1" stroke-width="5" stroke-linecap="round" stroke-linejoin="round" stroke="rgb(0%, 0%, 0%)" stroke-opacity="1" stroke-miterlimit="10" d="M 1499.547805 508.41201 L 1606.064269 817.996326 L 1478.989931 999.211629 " transform="matrix(0.0995665, 0, 0, -0.0995665, -0.000000000000001388, 183.511416)"/>
<path fill-rule="nonzero" fill="rgb(15.795898%, 7.006836%, 49.804688%)" fill-opacity="1" stroke-width="5" stroke-linecap="round" stroke-linejoin="round" stroke="rgb(0%, 0%, 0%)" stroke-opacity="1" stroke-miterlimit="10" d="M 1638.627313 1089.211176 L 1606.064269 817.996326 L 1478.989931 999.211629 " transform="matrix(0.0995665, 0, 0, -0.0995665, -0.000000000000001388, 183.511416)"/>
<path fill-rule="nonzero" fill="rgb(15.795898%, 7.006836%, 49.804688%)" fill-opacity="1" stroke-width="5" stroke-linecap="round" stroke-linejoin="round" stroke="rgb(0%, 0%, 0%)" stroke-opacity="1" stroke-miterlimit="10" d="M 1478.989931 999.211629 L 1504.451878 1263.246916 L 1638.627313 1089.211176 " transform="matrix(0.0995665, 0, 0, -0.0995665, -0.000000000000001388, 183.511416)"/>
<path fill-rule="nonzero" fill="rgb(89.84375%, 97.65625%, 81.054688%)" fill-opacity="1" d="M 26.53125 113.40625 L 11.367188 108.117188 L 39.3125 155.332031 "/>
<path fill="none" stroke-width="5" stroke-linecap="round" stroke-linejoin="round" stroke="rgb(0%, 0%, 0%)" stroke-opacity="1" stroke-miterlimit="10" d="M 266.467707 704.104136 L 114.166818 757.225054 " transform="matrix(0.0995665, 0, 0, -0.0995665, -0.000000000000001388, 183.511416)"/>
<path fill-rule="nonzero" fill="rgb(20.800781%, 47.801208%, 89.256287%)" fill-opacity="1" stroke-width="5" stroke-linecap="round" stroke-linejoin="round" stroke="rgb(0%, 0%, 0%)" stroke-opacity="1" stroke-miterlimit="10" d="M 1368.197115 305.893414 L 1138.215711 213.853774 L 1274.548939 411.311366 " transform="matrix(0.0995665, 0, 0, -0.0995665, -0.000000000000001388, 183.511416)"/>
<path fill-rule="nonzero" fill="rgb(20.800781%, 47.801208%, 89.256287%)" fill-opacity="1" stroke-width="5" stroke-linecap="round" stroke-linejoin="round" stroke="rgb(0%, 0%, 0%)" stroke-opacity="1" stroke-miterlimit="10" d="M 1274.548939 411.311366 L 1499.547805 508.41201 L 1368.197115 305.893414 " transform="matrix(0.0995665, 0, 0, -0.0995665, -0.000000000000001388, 183.511416)"/>
<path fill-rule="nonzero" fill="rgb(27.001953%, 0%, 0%)" fill-opacity="1" stroke-width="5" stroke-linecap="round" stroke-linejoin="round" stroke="rgb(0%, 0%, 0%)" stroke-opacity="1" stroke-miterlimit="10" d="M 912.549891 1706.222016 L 1016.673168 1591.741337 L 1308.014332 1518.101778 " transform="matrix(0.0995665, 0, 0, -0.0995665, -0.000000000000001388, 183.511416)"/>
<path fill-rule="nonzero" fill="rgb(0%, 0%, 0%)" fill-opacity="1" d="M 149.792969 57.734375 L 130.234375 32.359375 L 156.496094 66.414062 "/>
<path fill="none" stroke-width="5" stroke-linecap="round" stroke-linejoin="round" stroke="rgb(0%, 0%, 0%)" stroke-opacity="1" stroke-miterlimit="10" d="M 1504.451878 1263.246916 L 1308.014332 1518.101778 " transform="matrix(0.0995665, 0, 0, -0.0995665, -0.000000000000001388, 183.511416)"/>
<path fill-rule="nonzero" fill="rgb(0%, 0%, 0%)" fill-opacity="1" stroke-width="5" stroke-linecap="round" stroke-linejoin="round" stroke="rgb(0%, 0%, 0%)" stroke-opacity="1" stroke-miterlimit="10" d="M 1571.774991 1176.072115 L 1638.627313 1089.211176 L 1504.451878 1263.246916 " transform="matrix(0.0995665, 0, 0, -0.0995665, -0.000000000000001388, 183.511416)"/>
<path fill-rule="nonzero" fill="rgb(67.1875%, 72.851562%, 89.0625%)" fill-opacity="1" stroke-width="5" stroke-linecap="round" stroke-linejoin="round" stroke="rgb(0%, 0%, 0%)" stroke-opacity="1" stroke-miterlimit="10" d="M 535.563997 258.500454 L 821.216437 145.471381 L 1138.215711 213.853774 " transform="matrix(0.0995665, 0, 0, -0.0995665, -0.000000000000001388, 183.511416)"/>
<path fill-rule="nonzero" fill="rgb(41.308594%, 86.131287%, 82.421875%)" fill-opacity="1" stroke-width="5" stroke-linecap="round" stroke-linejoin="round" stroke="rgb(0%, 0%, 0%)" stroke-opacity="1" stroke-miterlimit="10" d="M 394.83672 283.020818 L 535.563997 258.500454 L 821.216437 145.471381 " transform="matrix(0.0995665, 0, 0, -0.0995665, -0.000000000000001388, 183.511416)"/>
<path fill-rule="nonzero" fill="rgb(0%, 0%, 0%)" fill-opacity="1" d="M 130.234375 32.359375 L 121.589844 21.136719 L 156.496094 66.414062 "/>
<path fill="none" stroke-width="5" stroke-linecap="round" stroke-linejoin="round" stroke="rgb(0%, 0%, 0%)" stroke-opacity="1" stroke-miterlimit="10" d="M 1308.014332 1518.101778 L 1221.192625 1630.81699 " transform="matrix(0.0995665, 0, 0, -0.0995665, -0.000000000000001388, 183.511416)"/>
<path fill-rule="nonzero" fill="rgb(27.001953%, 0%, 0%)" fill-opacity="1" stroke-width="5" stroke-linecap="round" stroke-linejoin="round" stroke="rgb(0%, 0%, 0%)" stroke-opacity="1" stroke-miterlimit="10" d="M 1308.014332 1518.101778 L 1221.192625 1630.81699 L 912.549891 1706.222016 " transform="matrix(0.0995665, 0, 0, -0.0995665, -0.000000000000001388, 183.511416)"/>
<path fill-rule="nonzero" fill="rgb(97.264099%, 66.209412%, 31.005859%)" fill-opacity="1" stroke-width="5" stroke-linecap="round" stroke-linejoin="round" stroke="rgb(0%, 0%, 0%)" stroke-opacity="1" stroke-miterlimit="10" d="M 1368.197115 305.893414 L 1499.547805 508.41201 L 1606.064269 817.996326 " transform="matrix(0.0995665, 0, 0, -0.0995665, -0.000000000000001388, 183.511416)"/>
<path fill-rule="nonzero" fill="rgb(97.264099%, 66.209412%, 31.005859%)" fill-opacity="1" d="M 127.449219 150.097656 L 136.226562 153.054688 L 159.910156 102.066406 "/>
<path fill="none" stroke-width="5" stroke-linecap="round" stroke-linejoin="round" stroke="rgb(0%, 0%, 0%)" stroke-opacity="1" stroke-miterlimit="10" d="M 1280.0415 335.59248 L 1368.197115 305.893414 " transform="matrix(0.0995665, 0, 0, -0.0995665, -0.000000000000001388, 183.511416)"/>
<path fill-rule="nonzero" fill="rgb(97.264099%, 66.209412%, 31.005859%)" fill-opacity="1" d="M 129.523438 121.566406 L 127.449219 150.097656 L 159.910156 102.066406 "/>
<path fill="none" stroke-width="5" stroke-linecap="round" stroke-linejoin="round" stroke="rgb(0%, 0%, 0%)" stroke-opacity="1" stroke-miterlimit="10" d="M 1300.874002 622.14727 L 1280.0415 335.59248 " transform="matrix(0.0995665, 0, 0, -0.0995665, -0.000000000000001388, 183.511416)"/>
<path fill-rule="nonzero" fill="rgb(97.264099%, 66.209412%, 31.005859%)" fill-opacity="1" d="M 142.265625 85.023438 L 129.523438 121.566406 L 159.910156 102.066406 "/>
<path fill="none" stroke-width="5" stroke-linecap="round" stroke-linejoin="round" stroke="rgb(0%, 0%, 0%)" stroke-opacity="1" stroke-miterlimit="10" d="M 1428.850689 989.168088 L 1300.874002 622.14727 " transform="matrix(0.0995665, 0, 0, -0.0995665, -0.000000000000001388, 183.511416)"/>
<path fill-rule="nonzero" fill="rgb(97.264099%, 66.209412%, 31.005859%)" fill-opacity="1" d="M 156.496094 66.414062 L 142.265625 85.023438 L 159.910156 102.066406 "/>
<path fill="none" stroke-width="5" stroke-linecap="round" stroke-linejoin="round" stroke="rgb(0%, 0%, 0%)" stroke-opacity="1" stroke-miterlimit="10" d="M 1571.774991 1176.072115 L 1428.850689 989.168088 " transform="matrix(0.0995665, 0, 0, -0.0995665, -0.000000000000001388, 183.511416)"/>
<path fill-rule="nonzero" fill="rgb(97.264099%, 66.209412%, 31.005859%)" fill-opacity="1" stroke-width="5" stroke-linecap="round" stroke-linejoin="round" stroke="rgb(0%, 0%, 0%)" stroke-opacity="1" stroke-miterlimit="10" d="M 1606.064269 817.996326 L 1638.627313 1089.211176 L 1571.774991 1176.072115 " transform="matrix(0.0995665, 0, 0, -0.0995665, -0.000000000000001388, 183.511416)"/>
<path fill-rule="nonzero" fill="rgb(68.943787%, 26.097107%, 22.801208%)" fill-opacity="1" stroke-width="5" stroke-linecap="round" stroke-linejoin="round" stroke="rgb(0%, 0%, 0%)" stroke-opacity="1" stroke-miterlimit="10" d="M 392.051206 1503.154164 L 582.211538 1661.614568 L 912.549891 1706.222016 " transform="matrix(0.0995665, 0, 0, -0.0995665, -0.000000000000001388, 183.511416)"/>
<path fill-rule="nonzero" fill="rgb(48.193359%, 0%, 0%)" fill-opacity="1" stroke-width="5" stroke-linecap="round" stroke-linejoin="round" stroke="rgb(0%, 0%, 0%)" stroke-opacity="1" stroke-miterlimit="10" d="M 392.365067 1513.746961 L 201.930107 1354.462672 L 392.051206 1503.154164 " transform="matrix(0.0995665, 0, 0, -0.0995665, -0.000000000000001388, 183.511416)"/>
<path fill-rule="nonzero" fill="rgb(48.193359%, 0%, 0%)" fill-opacity="1" stroke-width="5" stroke-linecap="round" stroke-linejoin="round" stroke="rgb(0%, 0%, 0%)" stroke-opacity="1" stroke-miterlimit="10" d="M 392.051206 1503.154164 L 582.211538 1661.614568 L 392.365067 1513.746961 " transform="matrix(0.0995665, 0, 0, -0.0995665, -0.000000000000001388, 183.511416)"/>
<path fill-rule="nonzero" fill="rgb(46.18988%, 0%, 0%)" fill-opacity="1" d="M 113.328125 162.21875 L 81.765625 169.027344 L 127.449219 150.097656 "/>
<path fill="none" stroke-width="5" stroke-linecap="round" stroke-linejoin="round" stroke="rgb(0%, 0%, 0%)" stroke-opacity="1" stroke-miterlimit="10" d="M 1138.215711 213.853774 L 821.216437 145.471381 " transform="matrix(0.0995665, 0, 0, -0.0995665, -0.000000000000001388, 183.511416)"/>
<path fill-rule="nonzero" fill="rgb(46.18988%, 0%, 0%)" fill-opacity="1" stroke-width="5" stroke-linecap="round" stroke-linejoin="round" stroke="rgb(0%, 0%, 0%)" stroke-opacity="1" stroke-miterlimit="10" d="M 1280.0415 335.59248 L 1368.197115 305.893414 L 1138.215711 213.853774 " transform="matrix(0.0995665, 0, 0, -0.0995665, -0.000000000000001388, 183.511416)"/>
<path fill-rule="nonzero" fill="rgb(89.84375%, 97.65625%, 81.054688%)" fill-opacity="1" stroke-width="5" stroke-linecap="round" stroke-linejoin="round" stroke="rgb(0%, 0%, 0%)" stroke-opacity="1" stroke-miterlimit="10" d="M 114.166818 757.225054 L 170.034017 547.487663 L 394.83672 283.020818 " transform="matrix(0.0995665, 0, 0, -0.0995665, -0.000000000000001388, 183.511416)"/>
<path fill-rule="nonzero" fill="rgb(0%, 0%, 4.299927%)" fill-opacity="1" stroke-width="5" stroke-linecap="round" stroke-linejoin="round" stroke="rgb(0%, 0%, 0%)" stroke-opacity="1" stroke-miterlimit="10" d="M 136.882484 828.000635 L 170.034017 547.487663 L 114.166818 757.225054 " transform="matrix(0.0995665, 0, 0, -0.0995665, -0.000000000000001388, 183.511416)"/>
<path fill-rule="nonzero" fill="rgb(0%, 0%, 4.299927%)" fill-opacity="1" stroke-width="5" stroke-linecap="round" stroke-linejoin="round" stroke="rgb(0%, 0%, 0%)" stroke-opacity="1" stroke-miterlimit="10" d="M 114.166818 757.225054 L 80.466029 1030.676161 L 136.882484 828.000635 " transform="matrix(0.0995665, 0, 0, -0.0995665, -0.000000000000001388, 183.511416)"/>
<path fill-rule="nonzero" fill="rgb(41.308594%, 86.131287%, 82.421875%)" fill-opacity="1" stroke-width="5" stroke-linecap="round" stroke-linejoin="round" stroke="rgb(0%, 0%, 0%)" stroke-opacity="1" stroke-miterlimit="10" d="M 821.216437 145.471381 L 696.849147 162.576787 L 394.83672 283.020818 " transform="matrix(0.0995665, 0, 0, -0.0995665, -0.000000000000001388, 183.511416)"/>
<path fill-rule="nonzero" fill="rgb(46.18988%, 0%, 0%)" fill-opacity="1" d="M 81.765625 169.027344 L 69.382812 167.324219 L 127.449219 150.097656 "/>
<path fill="none" stroke-width="5" stroke-linecap="round" stroke-linejoin="round" stroke="rgb(0%, 0%, 0%)" stroke-opacity="1" stroke-miterlimit="10" d="M 821.216437 145.471381 L 696.849147 162.576787 " transform="matrix(0.0995665, 0, 0, -0.0995665, -0.000000000000001388, 183.511416)"/>
<path fill-rule="nonzero" fill="rgb(62.5%, 77.929688%, 95.506287%)" fill-opacity="1" d="M 90.859375 13.628906 L 57.96875 18.070312 L 118.578125 54.757812 "/>
<path fill="none" stroke-width="5" stroke-linecap="round" stroke-linejoin="round" stroke="rgb(0%, 0%, 0%)" stroke-opacity="1" stroke-miterlimit="10" d="M 912.549891 1706.222016 L 582.211538 1661.614568 " transform="matrix(0.0995665, 0, 0, -0.0995665, -0.000000000000001388, 183.511416)"/>
<path fill-rule="nonzero" fill="rgb(62.5%, 77.929688%, 95.506287%)" fill-opacity="1" d="M 121.589844 21.136719 L 90.859375 13.628906 L 118.578125 54.757812 "/>
<path fill="none" stroke-width="5" stroke-linecap="round" stroke-linejoin="round" stroke="rgb(0%, 0%, 0%)" stroke-opacity="1" stroke-miterlimit="10" d="M 1221.192625 1630.81699 L 912.549891 1706.222016 " transform="matrix(0.0995665, 0, 0, -0.0995665, -0.000000000000001388, 183.511416)"/>
<path fill-rule="nonzero" fill="rgb(62.5%, 77.929688%, 95.506287%)" fill-opacity="1" d="M 57.96875 18.070312 L 39.066406 32.792969 L 118.578125 54.757812 "/>
<path fill="none" stroke-width="5" stroke-linecap="round" stroke-linejoin="round" stroke="rgb(0%, 0%, 0%)" stroke-opacity="1" stroke-miterlimit="10" d="M 582.211538 1661.614568 L 392.365067 1513.746961 " transform="matrix(0.0995665, 0, 0, -0.0995665, -0.000000000000001388, 183.511416)"/>
<path fill-rule="nonzero" fill="rgb(22.605896%, 30.809021%, 74.021912%)" fill-opacity="1" d="M 20.105469 48.652344 L 8.011719 80.890625 L 33.597656 87.136719 "/>
<path fill="none" stroke-width="5" stroke-linecap="round" stroke-linejoin="round" stroke="rgb(0%, 0%, 0%)" stroke-opacity="1" stroke-miterlimit="10" d="M 201.930107 1354.462672 L 80.466029 1030.676161 " transform="matrix(0.0995665, 0, 0, -0.0995665, -0.000000000000001388, 183.511416)"/>
<path fill-rule="nonzero" fill="rgb(22.605896%, 30.809021%, 74.021912%)" fill-opacity="1" d="M 39.066406 32.792969 L 20.105469 48.652344 L 33.597656 87.136719 "/>
<path fill="none" stroke-width="5" stroke-linecap="round" stroke-linejoin="round" stroke="rgb(0%, 0%, 0%)" stroke-opacity="1" stroke-miterlimit="10" d="M 392.365067 1513.746961 L 201.930107 1354.462672 " transform="matrix(0.0995665, 0, 0, -0.0995665, -0.000000000000001388, 183.511416)"/>
<path fill-rule="nonzero" fill="rgb(22.605896%, 30.809021%, 74.021912%)" fill-opacity="1" stroke-width="5" stroke-linecap="round" stroke-linejoin="round" stroke="rgb(0%, 0%, 0%)" stroke-opacity="1" stroke-miterlimit="10" d="M 80.466029 1030.676161 L 136.882484 828.000635 L 337.43945 967.94326 " transform="matrix(0.0995665, 0, 0, -0.0995665, -0.000000000000001388, 183.511416)"/>
<path fill-rule="nonzero" fill="rgb(50%, 26.097107%, 48.509216%)" fill-opacity="1" stroke-width="5" stroke-linecap="round" stroke-linejoin="round" stroke="rgb(0%, 0%, 0%)" stroke-opacity="1" stroke-miterlimit="10" d="M 394.83672 283.020818 L 696.849147 162.576787 L 923.535015 260.42285 " transform="matrix(0.0995665, 0, 0, -0.0995665, -0.000000000000001388, 183.511416)"/>
<path fill-rule="nonzero" fill="rgb(50%, 26.097107%, 48.509216%)" fill-opacity="1" d="M 16.929688 129 L 39.3125 155.332031 L 91.953125 157.582031 "/>
<path fill="none" stroke-width="5" stroke-linecap="round" stroke-linejoin="round" stroke="rgb(0%, 0%, 0%)" stroke-opacity="1" stroke-miterlimit="10" d="M 170.034017 547.487663 L 394.83672 283.020818 " transform="matrix(0.0995665, 0, 0, -0.0995665, -0.000000000000001388, 183.511416)"/>
<path fill-rule="nonzero" fill="rgb(0%, 0%, 0%)" fill-opacity="1" stroke-width="5" stroke-linecap="round" stroke-linejoin="round" stroke="rgb(0%, 0%, 0%)" stroke-opacity="1" stroke-miterlimit="10" d="M 1221.192625 1630.81699 L 1349.208545 1464.82393 L 1571.774991 1176.072115 " transform="matrix(0.0995665, 0, 0, -0.0995665, -0.000000000000001388, 183.511416)"/>
<path fill-rule="nonzero" fill="rgb(62.5%, 77.929688%, 95.506287%)" fill-opacity="1" stroke-width="5" stroke-linecap="round" stroke-linejoin="round" stroke="rgb(0%, 0%, 0%)" stroke-opacity="1" stroke-miterlimit="10" d="M 1190.944303 1293.142144 L 1349.208545 1464.82393 L 1221.192625 1630.81699 " transform="matrix(0.0995665, 0, 0, -0.0995665, -0.000000000000001388, 183.511416)"/>
<path fill-rule="nonzero" fill="rgb(50%, 26.097107%, 48.509216%)" fill-opacity="1" d="M 13.628906 101.070312 L 16.929688 129 L 91.953125 157.582031 "/>
<path fill="none" stroke-width="5" stroke-linecap="round" stroke-linejoin="round" stroke="rgb(0%, 0%, 0%)" stroke-opacity="1" stroke-miterlimit="10" d="M 136.882484 828.000635 L 170.034017 547.487663 " transform="matrix(0.0995665, 0, 0, -0.0995665, -0.000000000000001388, 183.511416)"/>
<path fill-rule="nonzero" fill="rgb(46.18988%, 0%, 0%)" fill-opacity="1" stroke-width="5" stroke-linecap="round" stroke-linejoin="round" stroke="rgb(0%, 0%, 0%)" stroke-opacity="1" stroke-miterlimit="10" d="M 696.849147 162.576787 L 923.535015 260.42285 L 1280.0415 335.59248 " transform="matrix(0.0995665, 0, 0, -0.0995665, -0.000000000000001388, 183.511416)"/>
<path fill-rule="nonzero" fill="rgb(62.5%, 77.929688%, 95.506287%)" fill-opacity="1" d="M 39.066406 32.792969 L 47.007812 50.863281 L 118.578125 54.757812 "/>
<path fill="none" stroke-width="5" stroke-linecap="round" stroke-linejoin="round" stroke="rgb(0%, 0%, 0%)" stroke-opacity="1" stroke-miterlimit="10" d="M 392.365067 1513.746961 L 472.124909 1332.25703 " transform="matrix(0.0995665, 0, 0, -0.0995665, -0.000000000000001388, 183.511416)"/>
<path fill-rule="nonzero" fill="rgb(22.605896%, 30.809021%, 74.021912%)" fill-opacity="1" stroke-width="5" stroke-linecap="round" stroke-linejoin="round" stroke="rgb(0%, 0%, 0%)" stroke-opacity="1" stroke-miterlimit="10" d="M 337.43945 967.94326 L 472.124909 1332.25703 L 392.365067 1513.746961 " transform="matrix(0.0995665, 0, 0, -0.0995665, -0.000000000000001388, 183.511416)"/>
<path fill-rule="nonzero" fill="rgb(88.476562%, 83.201599%, 79.296875%)" fill-opacity="1" stroke-width="5" stroke-linecap="round" stroke-linejoin="round" stroke="rgb(0%, 0%, 0%)" stroke-opacity="1" stroke-miterlimit="10" d="M 1190.944303 1293.142144 L 1428.850689 989.168088 L 1571.774991 1176.072115 " transform="matrix(0.0995665, 0, 0, -0.0995665, -0.000000000000001388, 183.511416)"/>
<path fill-rule="nonzero" fill="rgb(88.476562%, 83.201599%, 79.296875%)" fill-opacity="1" stroke-width="5" stroke-linecap="round" stroke-linejoin="round" stroke="rgb(0%, 0%, 0%)" stroke-opacity="1" stroke-miterlimit="10" d="M 1571.774991 1176.072115 L 1349.208545 1464.82393 L 1190.944303 1293.142144 " transform="matrix(0.0995665, 0, 0, -0.0995665, -0.000000000000001388, 183.511416)"/>
<path fill-rule="nonzero" fill="rgb(50%, 26.097107%, 48.509216%)" fill-opacity="1" d="M 33.597656 87.136719 L 13.628906 101.070312 L 91.953125 157.582031 "/>
<path fill="none" stroke-width="5" stroke-linecap="round" stroke-linejoin="round" stroke="rgb(0%, 0%, 0%)" stroke-opacity="1" stroke-miterlimit="10" d="M 337.43945 967.94326 L 136.882484 828.000635 " transform="matrix(0.0995665, 0, 0, -0.0995665, -0.000000000000001388, 183.511416)"/>
<path fill-rule="nonzero" fill="rgb(76.951599%, 47.705078%, 49.09668%)" fill-opacity="1" stroke-width="5" stroke-linecap="round" stroke-linejoin="round" stroke="rgb(0%, 0%, 0%)" stroke-opacity="1" stroke-miterlimit="10" d="M 926.438226 548.821571 L 923.535015 260.42285 L 1280.0415 335.59248 " transform="matrix(0.0995665, 0, 0, -0.0995665, -0.000000000000001388, 183.511416)"/>
<path fill-rule="nonzero" fill="rgb(76.951599%, 47.705078%, 49.09668%)" fill-opacity="1" stroke-width="5" stroke-linecap="round" stroke-linejoin="round" stroke="rgb(0%, 0%, 0%)" stroke-opacity="1" stroke-miterlimit="10" d="M 1280.0415 335.59248 L 1300.874002 622.14727 L 926.438226 548.821571 " transform="matrix(0.0995665, 0, 0, -0.0995665, -0.000000000000001388, 183.511416)"/>
<path fill-rule="nonzero" fill="rgb(50%, 26.097107%, 48.509216%)" fill-opacity="1" d="M 67.253906 98.328125 L 33.597656 87.136719 L 91.953125 157.582031 "/>
<path fill="none" stroke-width="5" stroke-linecap="round" stroke-linejoin="round" stroke="rgb(0%, 0%, 0%)" stroke-opacity="1" stroke-miterlimit="10" d="M 675.467389 855.541909 L 337.43945 967.94326 " transform="matrix(0.0995665, 0, 0, -0.0995665, -0.000000000000001388, 183.511416)"/>
<path fill-rule="nonzero" fill="rgb(50%, 26.097107%, 48.509216%)" fill-opacity="1" stroke-width="5" stroke-linecap="round" stroke-linejoin="round" stroke="rgb(0%, 0%, 0%)" stroke-opacity="1" stroke-miterlimit="10" d="M 923.535015 260.42285 L 926.438226 548.821571 L 675.467389 855.541909 " transform="matrix(0.0995665, 0, 0, -0.0995665, -0.000000000000001388, 183.511416)"/>
<path fill-rule="nonzero" fill="rgb(62.5%, 77.929688%, 95.506287%)" fill-opacity="1" stroke-width="5" stroke-linecap="round" stroke-linejoin="round" stroke="rgb(0%, 0%, 0%)" stroke-opacity="1" stroke-miterlimit="10" d="M 472.124909 1332.25703 L 812.232175 1232.959361 L 1190.944303 1293.142144 " transform="matrix(0.0995665, 0, 0, -0.0995665, -0.000000000000001388, 183.511416)"/>
<path fill-rule="nonzero" fill="rgb(60.742188%, 54.101562%, 75.389099%)" fill-opacity="1" stroke-width="5" stroke-linecap="round" stroke-linejoin="round" stroke="rgb(0%, 0%, 0%)" stroke-opacity="1" stroke-miterlimit="10" d="M 472.124909 1332.25703 L 337.43945 967.94326 L 675.467389 855.541909 " transform="matrix(0.0995665, 0, 0, -0.0995665, -0.000000000000001388, 183.511416)"/>
<path fill-rule="nonzero" fill="rgb(60.742188%, 54.101562%, 75.389099%)" fill-opacity="1" stroke-width="5" stroke-linecap="round" stroke-linejoin="round" stroke="rgb(0%, 0%, 0%)" stroke-opacity="1" stroke-miterlimit="10" d="M 675.467389 855.541909 L 812.232175 1232.959361 L 472.124909 1332.25703 " transform="matrix(0.0995665, 0, 0, -0.0995665, -0.000000000000001388, 183.511416)"/>
<path fill-rule="nonzero" fill="rgb(76.367188%, 62.304688%, 70.506287%)" fill-opacity="1" stroke-width="5" stroke-linecap="round" stroke-linejoin="round" stroke="rgb(0%, 0%, 0%)" stroke-opacity="1" stroke-miterlimit="10" d="M 1300.874002 622.14727 L 1428.850689 989.168088 L 1190.944303 1293.142144 " transform="matrix(0.0995665, 0, 0, -0.0995665, -0.000000000000001388, 183.511416)"/>
<path fill-rule="nonzero" fill="rgb(76.367188%, 62.304688%, 70.506287%)" fill-opacity="1" stroke-width="5" stroke-linecap="round" stroke-linejoin="round" stroke="rgb(0%, 0%, 0%)" stroke-opacity="1" stroke-miterlimit="10" d="M 675.467389 855.541909 L 926.438226 548.821571 L 1300.874002 622.14727 " transform="matrix(0.0995665, 0, 0, -0.0995665, -0.000000000000001388, 183.511416)"/>
<path fill-rule="nonzero" fill="rgb(76.367188%, 62.304688%, 70.506287%)" fill-opacity="1" d="M 80.871094 60.75 L 67.253906 98.328125 L 129.523438 121.566406 "/>
<path fill="none" stroke-width="5" stroke-linecap="round" stroke-linejoin="round" stroke="rgb(0%, 0%, 0%)" stroke-opacity="1" stroke-miterlimit="10" d="M 812.232175 1232.959361 L 675.467389 855.541909 " transform="matrix(0.0995665, 0, 0, -0.0995665, -0.000000000000001388, 183.511416)"/>
<path fill-rule="nonzero" fill="rgb(76.367188%, 62.304688%, 70.506287%)" fill-opacity="1" d="M 118.578125 54.757812 L 80.871094 60.75 L 129.523438 121.566406 "/>
<path fill="none" stroke-width="5" stroke-linecap="round" stroke-linejoin="round" stroke="rgb(0%, 0%, 0%)" stroke-opacity="1" stroke-miterlimit="10" d="M 1190.944303 1293.142144 L 812.232175 1232.959361 " transform="matrix(0.0995665, 0, 0, -0.0995665, -0.000000000000001388, 183.511416)"/>
</svg>
