<?xml version="1.0" encoding="UTF-8"?>
<svg xmlns="http://www.w3.org/2000/svg" xmlns:xlink="http://www.w3.org/1999/xlink" width="379.88" height="137.06" viewBox="0 0 379.88 137.06">
<path fill="none" stroke-width="5" stroke-linecap="round" stroke-linejoin="round" stroke="rgb(0%, 0%, 0%)" stroke-opacity="1" stroke-miterlimit="10" d="M 129.320097 685.307063 L 737.289463 522.400534 " transform="matrix(0.0993188, 0, 0, -0.0993188, 1.234203, 136.126403)"/>
<path fill="none" stroke-width="5" stroke-linecap="round" stroke-linejoin="round" stroke="rgb(0%, 0%, 0%)" stroke-opacity="1" stroke-miterlimit="10" d="M 129.320097 685.307063 L 737.289463 848.252921 " transform="matrix(0.0993188, 0, 0, -0.0993188, 1.234203, 136.126403)"/>
<path fill="none" stroke-width="5" stroke-linecap="round" stroke-linejoin="round" stroke="rgb(0%, 0%, 0%)" stroke-opacity="1" stroke-miterlimit="10" d="M 129.320097 685.307063 L 1182.39163 77.337697 " transform="matrix(0.0993188, 0, 0, -0.0993188, 1.234203, 136.126403)"/>
<path fill="none" stroke-width="5" stroke-linecap="round" stroke-linejoin="round" stroke="rgb(0%, 0%, 0%)" stroke-opacity="1" stroke-miterlimit="10" d="M 129.320097 685.307063 L 1182.39163 1293.315759 " transform="matrix(0.0993188, 0, 0, -0.0993188, 1.234203, 136.126403)"/>
<path fill="none" stroke-width="5" stroke-linecap="round" stroke-linejoin="round" stroke="rgb(0%, 0%, 0%)" stroke-opacity="1" stroke-miterlimit="10" d="M 737.289463 522.400534 L 737.289463 848.252921 " transform="matrix(0.0993188, 0, 0, -0.0993188, 1.234203, 136.126403)"/>
<path fill="none" stroke-width="5" stroke-linecap="round" stroke-linejoin="round" stroke="rgb(0%, 0%, 0%)" stroke-opacity="1" stroke-miterlimit="10" d="M 737.289463 522.400534 L 1182.39163 77.337697 " transform="matrix(0.0993188, 0, 0, -0.0993188, 1.234203, 136.126403)"/>
<path fill="none" stroke-width="5" stroke-linecap="round" stroke-linejoin="round" stroke="rgb(0%, 0%, 0%)" stroke-opacity="1" stroke-miterlimit="10" d="M 737.289463 522.400534 L 1019.485102 685.307063 " transform="matrix(0.0993188, 0, 0, -0.0993188, 1.234203, 136.126403)"/>
<path fill="none" stroke-width="5" stroke-linecap="round" stroke-linejoin="round" stroke="rgb(0%, 0%, 0%)" stroke-opacity="1" stroke-miterlimit="10" d="M 737.289463 848.252921 L 1182.39163 1293.315759 " transform="matrix(0.0993188, 0, 0, -0.0993188, 1.234203, 136.126403)"/>
<path fill="none" stroke-width="5" stroke-linecap="round" stroke-linejoin="round" stroke="rgb(0%, 0%, 0%)" stroke-opacity="1" stroke-miterlimit="10" d="M 737.289463 848.252921 L 1019.485102 685.307063 " transform="matrix(0.0993188, 0, 0, -0.0993188, 1.234203, 136.126403)"/>
<path fill="none" stroke-width="5" stroke-linecap="round" stroke-linejoin="round" stroke="rgb(0%, 0%, 0%)" stroke-opacity="1" stroke-miterlimit="10" d="M 1182.39163 77.337697 L 1182.39163 1293.315759 " transform="matrix(0.0993188, 0, 0, -0.0993188, 1.234203, 136.126403)"/>
<path fill="none" stroke-width="5" stroke-linecap="round" stroke-linejoin="round" stroke="rgb(0%, 0%, 0%)" stroke-opacity="1" stroke-miterlimit="10" d="M 1182.39163 77.337697 L 1019.485102 685.307063 " transform="matrix(0.0993188, 0, 0, -0.0993188, 1.234203, 136.126403)"/>
<path fill="none" stroke-width="5" stroke-linecap="round" stroke-linejoin="round" stroke="rgb(0%, 0%, 0%)" stroke-opacity="1" stroke-miterlimit="10" d="M 1182.39163 1293.315759 L 1019.485102 685.307063 " transform="matrix(0.0993188, 0, 0, -0.0993188, 1.234203, 136.126403)"/>
<path fill="none" stroke-width="77.4018" stroke-linecap="round" stroke-linejoin="round" stroke="rgb(0%, 0%, 0%)" stroke-opacity="1" stroke-miterlimit="10" d="M 129.320097 685.307063 L 129.320097 685.307063 " transform="matrix(0.0993188, 0, 0, -0.0993188, 1.234203, 136.126403)"/>
<path fill="none" stroke-width="77.4018" stroke-linecap="round" stroke-linejoin="round" stroke="rgb(0%, 0%, 0%)" stroke-opacity="1" stroke-miterlimit="10" d="M 737.289463 522.400534 L 737.289463 522.400534 " transform="matrix(0.0993188, 0, 0, -0.0993188, 1.234203, 136.126403)"/>
<path fill="none" stroke-width="77.4018" stroke-linecap="round" stroke-linejoin="round" stroke="rgb(0%, 0%, 0%)" stroke-opacity="1" stroke-miterlimit="10" d="M 737.289463 848.252921 L 737.289463 848.252921 " transform="matrix(0.0993188, 0, 0, -0.0993188, 1.234203, 136.126403)"/>
<path fill="none" stroke-width="77.4018" stroke-linecap="round" stroke-linejoin="round" stroke="rgb(0%, 0%, 0%)" stroke-opacity="1" stroke-miterlimit="10" d="M 1182.39163 77.337697 L 1182.39163 77.337697 " transform="matrix(0.0993188, 0, 0, -0.0993188, 1.234203, 136.126403)"/>
<path fill="none" stroke-width="77.4018" stroke-linecap="round" stroke-linejoin="round" stroke="rgb(0%, 0%, 0%)" stroke-opacity="1" stroke-miterlimit="10" d="M 1182.39163 1293.315759 L 1182.39163 1293.315759 " transform="matrix(0.0993188, 0, 0, -0.0993188, 1.234203, 136.126403)"/>
<path fill="none" stroke-width="77.4018" stroke-linecap="round" stroke-linejoin="round" stroke="rgb(0%, 0%, 0%)" stroke-opacity="1" stroke-miterlimit="10" d="M 1019.485102 685.307063 L 1019.485102 685.307063 " transform="matrix(0.0993188, 0, 0, -0.0993188, 1.234203, 136.126403)"/>
<path fill="none" stroke-width="55.287" stroke-linecap="round" stroke-linejoin="round" stroke="rgb(100%, 0%, 0%)" stroke-opacity="1" stroke-miterlimit="10" d="M 831.367786 685.307063 L 831.367786 685.307063 " transform="matrix(0.0993188, 0, 0, -0.0993188, 1.234203, 136.126403)"/>
<path fill="none" stroke-width="55.287" stroke-linecap="round" stroke-linejoin="round" stroke="rgb(100%, 0%, 0%)" stroke-opacity="1" stroke-miterlimit="10" d="M 831.367786 685.307063 L 831.367786 685.307063 " transform="matrix(0.0993188, 0, 0, -0.0993188, 1.234203, 136.126403)"/>
<path fill="none" stroke-width="55.287" stroke-linecap="round" stroke-linejoin="round" stroke="rgb(100%, 0%, 0%)" stroke-opacity="1" stroke-miterlimit="10" d="M 914.315605 828.981024 L 914.315605 828.981024 " transform="matrix(0.0993188, 0, 0, -0.0993188, 1.234203, 136.126403)"/>
<path fill="none" stroke-width="55.287" stroke-linecap="round" stroke-linejoin="round" stroke="rgb(100%, 0%, 0%)" stroke-opacity="1" stroke-miterlimit="10" d="M 665.472147 685.307063 L 665.472147 685.307063 " transform="matrix(0.0993188, 0, 0, -0.0993188, 1.234203, 136.126403)"/>
<path fill="none" stroke-width="55.287" stroke-linecap="round" stroke-linejoin="round" stroke="rgb(100%, 0%, 0%)" stroke-opacity="1" stroke-miterlimit="10" d="M 914.315605 541.672432 L 914.315605 541.672432 " transform="matrix(0.0993188, 0, 0, -0.0993188, 1.234203, 136.126403)"/>
<path fill="none" stroke-width="55.287" stroke-linecap="round" stroke-linejoin="round" stroke="rgb(100%, 0%, 0%)" stroke-opacity="1" stroke-miterlimit="10" d="M 708.892912 897.455255 L 708.892912 897.455255 " transform="matrix(0.0993188, 0, 0, -0.0993188, 1.234203, 136.126403)"/>
<path fill="none" stroke-width="55.287" stroke-linecap="round" stroke-linejoin="round" stroke="rgb(100%, 0%, 0%)" stroke-opacity="1" stroke-miterlimit="10" d="M 708.892912 473.198201 L 708.892912 473.198201 " transform="matrix(0.0993188, 0, 0, -0.0993188, 1.234203, 136.126403)"/>
<path fill="none" stroke-width="55.287" stroke-linecap="round" stroke-linejoin="round" stroke="rgb(100%, 0%, 0%)" stroke-opacity="1" stroke-miterlimit="10" d="M 1076.317534 685.307063 L 1076.317534 685.307063 " transform="matrix(0.0993188, 0, 0, -0.0993188, 1.234203, 136.126403)"/>
<path fill="none" stroke-width="55.287" stroke-linecap="round" stroke-linejoin="round" stroke="rgb(0%, 0%, 100%)" stroke-opacity="1" stroke-miterlimit="10" d="M 608.797037 556.853967 L 608.797037 556.853967 " transform="matrix(0.0993188, 0, 0, -0.0993188, 1.234203, 136.126403)"/>
<path fill="none" stroke-width="55.287" stroke-linecap="round" stroke-linejoin="round" stroke="rgb(0%, 0%, 100%)" stroke-opacity="1" stroke-miterlimit="10" d="M 608.797037 813.799488 L 608.797037 813.799488 " transform="matrix(0.0993188, 0, 0, -0.0993188, 1.234203, 136.126403)"/>
<path fill="none" stroke-width="55.287" stroke-linecap="round" stroke-linejoin="round" stroke="rgb(0%, 0%, 100%)" stroke-opacity="1" stroke-miterlimit="10" d="M 655.836199 381.32238 L 655.836199 381.32238 " transform="matrix(0.0993188, 0, 0, -0.0993188, 1.234203, 136.126403)"/>
<path fill="none" stroke-width="55.287" stroke-linecap="round" stroke-linejoin="round" stroke="rgb(0%, 0%, 100%)" stroke-opacity="1" stroke-miterlimit="10" d="M 655.836199 989.331076 L 655.836199 989.331076 " transform="matrix(0.0993188, 0, 0, -0.0993188, 1.234203, 136.126403)"/>
<path fill="none" stroke-width="55.287" stroke-linecap="round" stroke-linejoin="round" stroke="rgb(0%, 0%, 100%)" stroke-opacity="1" stroke-miterlimit="10" d="M 737.289463 685.307063 L 737.289463 685.307063 " transform="matrix(0.0993188, 0, 0, -0.0993188, 1.234203, 136.126403)"/>
<path fill="none" stroke-width="55.287" stroke-linecap="round" stroke-linejoin="round" stroke="rgb(0%, 0%, 100%)" stroke-opacity="1" stroke-miterlimit="10" d="M 831.367786 428.361541 L 831.367786 428.361541 " transform="matrix(0.0993188, 0, 0, -0.0993188, 1.234203, 136.126403)"/>
<path fill="none" stroke-width="55.287" stroke-linecap="round" stroke-linejoin="round" stroke="rgb(0%, 0%, 100%)" stroke-opacity="1" stroke-miterlimit="10" d="M 878.367617 603.853799 L 878.367617 603.853799 " transform="matrix(0.0993188, 0, 0, -0.0993188, 1.234203, 136.126403)"/>
<path fill="none" stroke-width="55.287" stroke-linecap="round" stroke-linejoin="round" stroke="rgb(0%, 0%, 100%)" stroke-opacity="1" stroke-miterlimit="10" d="M 831.367786 942.291914 L 831.367786 942.291914 " transform="matrix(0.0993188, 0, 0, -0.0993188, 1.234203, 136.126403)"/>
<path fill="none" stroke-width="55.287" stroke-linecap="round" stroke-linejoin="round" stroke="rgb(0%, 0%, 100%)" stroke-opacity="1" stroke-miterlimit="10" d="M 878.367617 766.799657 L 878.367617 766.799657 " transform="matrix(0.0993188, 0, 0, -0.0993188, 1.234203, 136.126403)"/>
<path fill="none" stroke-width="55.287" stroke-linecap="round" stroke-linejoin="round" stroke="rgb(0%, 0%, 100%)" stroke-opacity="1" stroke-miterlimit="10" d="M 1182.39163 685.307063 L 1182.39163 685.307063 " transform="matrix(0.0993188, 0, 0, -0.0993188, 1.234203, 136.126403)"/>
<path fill="none" stroke-width="55.287" stroke-linecap="round" stroke-linejoin="round" stroke="rgb(0%, 0%, 100%)" stroke-opacity="1" stroke-miterlimit="10" d="M 1053.899205 556.853967 L 1053.899205 556.853967 " transform="matrix(0.0993188, 0, 0, -0.0993188, 1.234203, 136.126403)"/>
<path fill="none" stroke-width="55.287" stroke-linecap="round" stroke-linejoin="round" stroke="rgb(0%, 0%, 100%)" stroke-opacity="1" stroke-miterlimit="10" d="M 1053.899205 813.799488 L 1053.899205 813.799488 " transform="matrix(0.0993188, 0, 0, -0.0993188, 1.234203, 136.126403)"/>
<path fill="none" stroke-width="5" stroke-linecap="round" stroke-linejoin="round" stroke="rgb(0%, 0%, 0%)" stroke-opacity="1" stroke-miterlimit="10" d="M 1372.829441 685.307063 L 2039.440437 623.912304 " transform="matrix(0.0993188, 0, 0, -0.0993188, 1.234203, 136.126403)"/>
<path fill="none" stroke-width="5" stroke-linecap="round" stroke-linejoin="round" stroke="rgb(0%, 0%, 0%)" stroke-opacity="1" stroke-miterlimit="10" d="M 1372.829441 685.307063 L 2039.440437 746.741152 " transform="matrix(0.0993188, 0, 0, -0.0993188, 1.234203, 136.126403)"/>
<path fill="none" stroke-width="5" stroke-linecap="round" stroke-linejoin="round" stroke="rgb(0%, 0%, 0%)" stroke-opacity="1" stroke-miterlimit="10" d="M 1372.829441 685.307063 L 2425.900974 77.337697 " transform="matrix(0.0993188, 0, 0, -0.0993188, 1.234203, 136.126403)"/>
<path fill="none" stroke-width="5" stroke-linecap="round" stroke-linejoin="round" stroke="rgb(0%, 0%, 0%)" stroke-opacity="1" stroke-miterlimit="10" d="M 1372.829441 685.307063 L 2425.900974 1293.315759 " transform="matrix(0.0993188, 0, 0, -0.0993188, 1.234203, 136.126403)"/>
<path fill="none" stroke-width="5" stroke-linecap="round" stroke-linejoin="round" stroke="rgb(0%, 0%, 0%)" stroke-opacity="1" stroke-miterlimit="10" d="M 2039.440437 623.912304 L 2039.440437 746.741152 " transform="matrix(0.0993188, 0, 0, -0.0993188, 1.234203, 136.126403)"/>
<path fill="none" stroke-width="5" stroke-linecap="round" stroke-linejoin="round" stroke="rgb(0%, 0%, 0%)" stroke-opacity="1" stroke-miterlimit="10" d="M 2039.440437 623.912304 L 2425.900974 77.337697 " transform="matrix(0.0993188, 0, 0, -0.0993188, 1.234203, 136.126403)"/>
<path fill="none" stroke-width="5" stroke-linecap="round" stroke-linejoin="round" stroke="rgb(0%, 0%, 0%)" stroke-opacity="1" stroke-miterlimit="10" d="M 2039.440437 623.912304 L 2145.829176 685.307063 " transform="matrix(0.0993188, 0, 0, -0.0993188, 1.234203, 136.126403)"/>
<path fill="none" stroke-width="5" stroke-linecap="round" stroke-linejoin="round" stroke="rgb(0%, 0%, 0%)" stroke-opacity="1" stroke-miterlimit="10" d="M 2039.440437 746.741152 L 2425.900974 1293.315759 " transform="matrix(0.0993188, 0, 0, -0.0993188, 1.234203, 136.126403)"/>
<path fill="none" stroke-width="5" stroke-linecap="round" stroke-linejoin="round" stroke="rgb(0%, 0%, 0%)" stroke-opacity="1" stroke-miterlimit="10" d="M 2039.440437 746.741152 L 2145.829176 685.307063 " transform="matrix(0.0993188, 0, 0, -0.0993188, 1.234203, 136.126403)"/>
<path fill="none" stroke-width="5" stroke-linecap="round" stroke-linejoin="round" stroke="rgb(0%, 0%, 0%)" stroke-opacity="1" stroke-miterlimit="10" d="M 2425.900974 77.337697 L 2425.900974 1293.315759 " transform="matrix(0.0993188, 0, 0, -0.0993188, 1.234203, 136.126403)"/>
<path fill="none" stroke-width="5" stroke-linecap="round" stroke-linejoin="round" stroke="rgb(0%, 0%, 0%)" stroke-opacity="1" stroke-miterlimit="10" d="M 2425.900974 77.337697 L 2145.829176 685.307063 " transform="matrix(0.0993188, 0, 0, -0.0993188, 1.234203, 136.126403)"/>
<path fill="none" stroke-width="5" stroke-linecap="round" stroke-linejoin="round" stroke="rgb(0%, 0%, 0%)" stroke-opacity="1" stroke-miterlimit="10" d="M 2425.900974 1293.315759 L 2145.829176 685.307063 " transform="matrix(0.0993188, 0, 0, -0.0993188, 1.234203, 136.126403)"/>
<path fill="none" stroke-width="77.4019" stroke-linecap="round" stroke-linejoin="round" stroke="rgb(0%, 0%, 0%)" stroke-opacity="1" stroke-miterlimit="10" d="M 1372.829441 685.307063 L 1372.829441 685.307063 " transform="matrix(0.0993188, 0, 0, -0.0993188, 1.234203, 136.126403)"/>
<path fill="none" stroke-width="77.4019" stroke-linecap="round" stroke-linejoin="round" stroke="rgb(0%, 0%, 0%)" stroke-opacity="1" stroke-miterlimit="10" d="M 2039.440437 623.912304 L 2039.440437 623.912304 " transform="matrix(0.0993188, 0, 0, -0.0993188, 1.234203, 136.126403)"/>
<path fill="none" stroke-width="77.4019" stroke-linecap="round" stroke-linejoin="round" stroke="rgb(0%, 0%, 0%)" stroke-opacity="1" stroke-miterlimit="10" d="M 2039.440437 746.741152 L 2039.440437 746.741152 " transform="matrix(0.0993188, 0, 0, -0.0993188, 1.234203, 136.126403)"/>
<path fill="none" stroke-width="77.4019" stroke-linecap="round" stroke-linejoin="round" stroke="rgb(0%, 0%, 0%)" stroke-opacity="1" stroke-miterlimit="10" d="M 2425.900974 77.337697 L 2425.900974 77.337697 " transform="matrix(0.0993188, 0, 0, -0.0993188, 1.234203, 136.126403)"/>
<path fill="none" stroke-width="77.4019" stroke-linecap="round" stroke-linejoin="round" stroke="rgb(0%, 0%, 0%)" stroke-opacity="1" stroke-miterlimit="10" d="M 2425.900974 1293.315759 L 2425.900974 1293.315759 " transform="matrix(0.0993188, 0, 0, -0.0993188, 1.234203, 136.126403)"/>
<path fill="none" stroke-width="77.4019" stroke-linecap="round" stroke-linejoin="round" stroke="rgb(0%, 0%, 0%)" stroke-opacity="1" stroke-miterlimit="10" d="M 2145.829176 685.307063 L 2145.829176 685.307063 " transform="matrix(0.0993188, 0, 0, -0.0993188, 1.234203, 136.126403)"/>
<path fill="none" stroke-width="55.2871" stroke-linecap="round" stroke-linejoin="round" stroke="rgb(100%, 0%, 0%)" stroke-opacity="1" stroke-miterlimit="10" d="M 2074.87713 685.307063 L 2074.87713 685.307063 " transform="matrix(0.0993188, 0, 0, -0.0993188, 1.234203, 136.126403)"/>
<path fill="none" stroke-width="55.2871" stroke-linecap="round" stroke-linejoin="round" stroke="rgb(100%, 0%, 0%)" stroke-opacity="1" stroke-miterlimit="10" d="M 2074.87713 685.307063 L 2074.87713 685.307063 " transform="matrix(0.0993188, 0, 0, -0.0993188, 1.234203, 136.126403)"/>
<path fill="none" stroke-width="55.2871" stroke-linecap="round" stroke-linejoin="round" stroke="rgb(100%, 0%, 0%)" stroke-opacity="1" stroke-miterlimit="10" d="M 2108.661945 743.791371 L 2108.661945 743.791371 " transform="matrix(0.0993188, 0, 0, -0.0993188, 1.234203, 136.126403)"/>
<path fill="none" stroke-width="55.2871" stroke-linecap="round" stroke-linejoin="round" stroke="rgb(100%, 0%, 0%)" stroke-opacity="1" stroke-miterlimit="10" d="M 2007.386158 685.307063 L 2007.386158 685.307063 " transform="matrix(0.0993188, 0, 0, -0.0993188, 1.234203, 136.126403)"/>
<path fill="none" stroke-width="55.2871" stroke-linecap="round" stroke-linejoin="round" stroke="rgb(100%, 0%, 0%)" stroke-opacity="1" stroke-miterlimit="10" d="M 2108.661945 626.862084 L 2108.661945 626.862084 " transform="matrix(0.0993188, 0, 0, -0.0993188, 1.234203, 136.126403)"/>
<path fill="none" stroke-width="55.2871" stroke-linecap="round" stroke-linejoin="round" stroke="rgb(100%, 0%, 0%)" stroke-opacity="1" stroke-miterlimit="10" d="M 2015.881525 787.526779 L 2015.881525 787.526779 " transform="matrix(0.0993188, 0, 0, -0.0993188, 1.234203, 136.126403)"/>
<path fill="none" stroke-width="55.2871" stroke-linecap="round" stroke-linejoin="round" stroke="rgb(100%, 0%, 0%)" stroke-opacity="1" stroke-miterlimit="10" d="M 2015.881525 583.126676 L 2015.881525 583.126676 " transform="matrix(0.0993188, 0, 0, -0.0993188, 1.234203, 136.126403)"/>
<path fill="none" stroke-width="55.2871" stroke-linecap="round" stroke-linejoin="round" stroke="rgb(100%, 0%, 0%)" stroke-opacity="1" stroke-miterlimit="10" d="M 2192.907668 685.307063 L 2192.907668 685.307063 " transform="matrix(0.0993188, 0, 0, -0.0993188, 1.234203, 136.126403)"/>
<path fill="none" stroke-width="55.2871" stroke-linecap="round" stroke-linejoin="round" stroke="rgb(0%, 0%, 100%)" stroke-opacity="1" stroke-miterlimit="10" d="M 1978.28166 629.536552 L 1978.28166 629.536552 " transform="matrix(0.0993188, 0, 0, -0.0993188, 1.234203, 136.126403)"/>
<path fill="none" stroke-width="55.2871" stroke-linecap="round" stroke-linejoin="round" stroke="rgb(0%, 0%, 100%)" stroke-opacity="1" stroke-miterlimit="10" d="M 1978.28166 741.116904 L 1978.28166 741.116904 " transform="matrix(0.0993188, 0, 0, -0.0993188, 1.234203, 136.126403)"/>
<path fill="none" stroke-width="55.2871" stroke-linecap="round" stroke-linejoin="round" stroke="rgb(0%, 0%, 100%)" stroke-opacity="1" stroke-miterlimit="10" d="M 1899.384873 381.32238 L 1899.384873 381.32238 " transform="matrix(0.0993188, 0, 0, -0.0993188, 1.234203, 136.126403)"/>
<path fill="none" stroke-width="55.2871" stroke-linecap="round" stroke-linejoin="round" stroke="rgb(0%, 0%, 100%)" stroke-opacity="1" stroke-miterlimit="10" d="M 1899.384873 989.331076 L 1899.384873 989.331076 " transform="matrix(0.0993188, 0, 0, -0.0993188, 1.234203, 136.126403)"/>
<path fill="none" stroke-width="55.2871" stroke-linecap="round" stroke-linejoin="round" stroke="rgb(0%, 0%, 100%)" stroke-opacity="1" stroke-miterlimit="10" d="M 2039.440437 685.307063 L 2039.440437 685.307063 " transform="matrix(0.0993188, 0, 0, -0.0993188, 1.234203, 136.126403)"/>
<path fill="none" stroke-width="55.2871" stroke-linecap="round" stroke-linejoin="round" stroke="rgb(0%, 0%, 100%)" stroke-opacity="1" stroke-miterlimit="10" d="M 2074.87713 573.76604 L 2074.87713 573.76604 " transform="matrix(0.0993188, 0, 0, -0.0993188, 1.234203, 136.126403)"/>
<path fill="none" stroke-width="55.2871" stroke-linecap="round" stroke-linejoin="round" stroke="rgb(0%, 0%, 100%)" stroke-opacity="1" stroke-miterlimit="10" d="M 2092.615141 654.629348 L 2092.615141 654.629348 " transform="matrix(0.0993188, 0, 0, -0.0993188, 1.234203, 136.126403)"/>
<path fill="none" stroke-width="55.2871" stroke-linecap="round" stroke-linejoin="round" stroke="rgb(0%, 0%, 100%)" stroke-opacity="1" stroke-miterlimit="10" d="M 2074.87713 796.887415 L 2074.87713 796.887415 " transform="matrix(0.0993188, 0, 0, -0.0993188, 1.234203, 136.126403)"/>
<path fill="none" stroke-width="55.2871" stroke-linecap="round" stroke-linejoin="round" stroke="rgb(0%, 0%, 100%)" stroke-opacity="1" stroke-miterlimit="10" d="M 2092.615141 716.024107 L 2092.615141 716.024107 " transform="matrix(0.0993188, 0, 0, -0.0993188, 1.234203, 136.126403)"/>
<path fill="none" stroke-width="55.2871" stroke-linecap="round" stroke-linejoin="round" stroke="rgb(0%, 0%, 100%)" stroke-opacity="1" stroke-miterlimit="10" d="M 2425.900974 685.307063 L 2425.900974 685.307063 " transform="matrix(0.0993188, 0, 0, -0.0993188, 1.234203, 136.126403)"/>
<path fill="none" stroke-width="55.2871" stroke-linecap="round" stroke-linejoin="round" stroke="rgb(0%, 0%, 100%)" stroke-opacity="1" stroke-miterlimit="10" d="M 2171.511929 629.536552 L 2171.511929 629.536552 " transform="matrix(0.0993188, 0, 0, -0.0993188, 1.234203, 136.126403)"/>
<path fill="none" stroke-width="55.2871" stroke-linecap="round" stroke-linejoin="round" stroke="rgb(0%, 0%, 100%)" stroke-opacity="1" stroke-miterlimit="10" d="M 2171.511929 741.116904 L 2171.511929 741.116904 " transform="matrix(0.0993188, 0, 0, -0.0993188, 1.234203, 136.126403)"/>
<path fill="none" stroke-width="5" stroke-linecap="round" stroke-linejoin="round" stroke="rgb(0%, 0%, 0%)" stroke-opacity="1" stroke-miterlimit="10" d="M 2912.732699 419.551531 L 2912.732699 419.551531 " transform="matrix(0.0993188, 0, 0, -0.0993188, 1.234203, 136.126403)"/>
<path fill="none" stroke-width="5" stroke-linecap="round" stroke-linejoin="round" stroke="rgb(0%, 0%, 0%)" stroke-opacity="1" stroke-miterlimit="10" d="M 2912.732699 951.101924 L 2912.732699 951.101924 " transform="matrix(0.0993188, 0, 0, -0.0993188, 1.234203, 136.126403)"/>
<path fill="none" stroke-width="5" stroke-linecap="round" stroke-linejoin="round" stroke="rgb(0%, 0%, 0%)" stroke-opacity="1" stroke-miterlimit="10" d="M 2912.732699 419.551531 L 2912.732699 951.101924 " transform="matrix(0.0993188, 0, 0, -0.0993188, 1.234203, 136.126403)"/>
<path fill="none" stroke-width="5" stroke-linecap="round" stroke-linejoin="round" stroke="rgb(0%, 0%, 0%)" stroke-opacity="1" stroke-miterlimit="10" d="M 2912.732699 419.551531 L 2912.732699 419.551531 " transform="matrix(0.0993188, 0, 0, -0.0993188, 1.234203, 136.126403)"/>
<path fill="none" stroke-width="5" stroke-linecap="round" stroke-linejoin="round" stroke="rgb(0%, 0%, 0%)" stroke-opacity="1" stroke-miterlimit="10" d="M 2912.732699 419.551531 L 3373.055733 685.307063 " transform="matrix(0.0993188, 0, 0, -0.0993188, 1.234203, 136.126403)"/>
<path fill="none" stroke-width="5" stroke-linecap="round" stroke-linejoin="round" stroke="rgb(0%, 0%, 0%)" stroke-opacity="1" stroke-miterlimit="10" d="M 2912.732699 951.101924 L 2912.732699 951.101924 " transform="matrix(0.0993188, 0, 0, -0.0993188, 1.234203, 136.126403)"/>
<path fill="none" stroke-width="5" stroke-linecap="round" stroke-linejoin="round" stroke="rgb(0%, 0%, 0%)" stroke-opacity="1" stroke-miterlimit="10" d="M 2912.732699 951.101924 L 3373.055733 685.307063 " transform="matrix(0.0993188, 0, 0, -0.0993188, 1.234203, 136.126403)"/>
<path fill="none" stroke-width="5" stroke-linecap="round" stroke-linejoin="round" stroke="rgb(0%, 0%, 0%)" stroke-opacity="1" stroke-miterlimit="10" d="M 3373.055733 685.307063 L 3373.055733 685.307063 " transform="matrix(0.0993188, 0, 0, -0.0993188, 1.234203, 136.126403)"/>
<path fill="none" stroke-width="5" stroke-linecap="round" stroke-linejoin="round" stroke="rgb(0%, 0%, 0%)" stroke-opacity="1" stroke-miterlimit="10" d="M 3373.055733 685.307063 L 3373.055733 685.307063 " transform="matrix(0.0993188, 0, 0, -0.0993188, 1.234203, 136.126403)"/>
<path fill="none" stroke-width="78.946" stroke-linecap="round" stroke-linejoin="round" stroke="rgb(0%, 0%, 0%)" stroke-opacity="1" stroke-miterlimit="10" d="M 2912.732699 419.551531 L 2912.732699 419.551531 " transform="matrix(0.0993188, 0, 0, -0.0993188, 1.234203, 136.126403)"/>
<path fill="none" stroke-width="78.946" stroke-linecap="round" stroke-linejoin="round" stroke="rgb(0%, 0%, 0%)" stroke-opacity="1" stroke-miterlimit="10" d="M 2912.732699 951.101924 L 2912.732699 951.101924 " transform="matrix(0.0993188, 0, 0, -0.0993188, 1.234203, 136.126403)"/>
<path fill="none" stroke-width="78.946" stroke-linecap="round" stroke-linejoin="round" stroke="rgb(0%, 0%, 0%)" stroke-opacity="1" stroke-miterlimit="10" d="M 3373.055733 685.307063 L 3373.055733 685.307063 " transform="matrix(0.0993188, 0, 0, -0.0993188, 1.234203, 136.126403)"/>
<path fill="none" stroke-width="56.39" stroke-linecap="round" stroke-linejoin="round" stroke="rgb(100%, 0%, 0%)" stroke-opacity="1" stroke-miterlimit="10" d="M 3066.1606 685.307063 L 3066.1606 685.307063 " transform="matrix(0.0993188, 0, 0, -0.0993188, 1.234203, 136.126403)"/>
<path fill="none" stroke-width="56.39" stroke-linecap="round" stroke-linejoin="round" stroke="rgb(100%, 0%, 0%)" stroke-opacity="1" stroke-miterlimit="10" d="M 3219.627832 951.101924 L 3219.627832 951.101924 " transform="matrix(0.0993188, 0, 0, -0.0993188, 1.234203, 136.126403)"/>
<path fill="none" stroke-width="56.39" stroke-linecap="round" stroke-linejoin="round" stroke="rgb(100%, 0%, 0%)" stroke-opacity="1" stroke-miterlimit="10" d="M 2759.304798 685.307063 L 2759.304798 685.307063 " transform="matrix(0.0993188, 0, 0, -0.0993188, 1.234203, 136.126403)"/>
<path fill="none" stroke-width="56.39" stroke-linecap="round" stroke-linejoin="round" stroke="rgb(100%, 0%, 0%)" stroke-opacity="1" stroke-miterlimit="10" d="M 3219.627832 419.551531 L 3219.627832 419.551531 " transform="matrix(0.0993188, 0, 0, -0.0993188, 1.234203, 136.126403)"/>
<path fill="none" stroke-width="56.39" stroke-linecap="round" stroke-linejoin="round" stroke="rgb(100%, 0%, 0%)" stroke-opacity="1" stroke-miterlimit="10" d="M 2759.304798 1216.857456 L 2759.304798 1216.857456 " transform="matrix(0.0993188, 0, 0, -0.0993188, 1.234203, 136.126403)"/>
<path fill="none" stroke-width="56.39" stroke-linecap="round" stroke-linejoin="round" stroke="rgb(100%, 0%, 0%)" stroke-opacity="1" stroke-miterlimit="10" d="M 2759.304798 153.796 L 2759.304798 153.796 " transform="matrix(0.0993188, 0, 0, -0.0993188, 1.234203, 136.126403)"/>
<path fill="none" stroke-width="56.39" stroke-linecap="round" stroke-linejoin="round" stroke="rgb(100%, 0%, 0%)" stroke-opacity="1" stroke-miterlimit="10" d="M 3679.950865 685.307063 L 3679.950865 685.307063 " transform="matrix(0.0993188, 0, 0, -0.0993188, 1.234203, 136.126403)"/>
<path fill="none" stroke-width="56.39" stroke-linecap="round" stroke-linejoin="round" stroke="rgb(0%, 0%, 100%)" stroke-opacity="1" stroke-miterlimit="10" d="M 2605.876897 419.551531 L 2605.876897 419.551531 " transform="matrix(0.0993188, 0, 0, -0.0993188, 1.234203, 136.126403)"/>
<path fill="none" stroke-width="56.39" stroke-linecap="round" stroke-linejoin="round" stroke="rgb(0%, 0%, 100%)" stroke-opacity="1" stroke-miterlimit="10" d="M 2605.876897 951.101924 L 2605.876897 951.101924 " transform="matrix(0.0993188, 0, 0, -0.0993188, 1.234203, 136.126403)"/>
<path fill="none" stroke-width="56.39" stroke-linecap="round" stroke-linejoin="round" stroke="rgb(0%, 0%, 100%)" stroke-opacity="1" stroke-miterlimit="10" d="M 2912.732699 685.307063 L 2912.732699 685.307063 " transform="matrix(0.0993188, 0, 0, -0.0993188, 1.234203, 136.126403)"/>
<path fill="none" stroke-width="56.39" stroke-linecap="round" stroke-linejoin="round" stroke="rgb(0%, 0%, 100%)" stroke-opacity="1" stroke-miterlimit="10" d="M 3066.1606 153.796 L 3066.1606 153.796 " transform="matrix(0.0993188, 0, 0, -0.0993188, 1.234203, 136.126403)"/>
<path fill="none" stroke-width="56.39" stroke-linecap="round" stroke-linejoin="round" stroke="rgb(0%, 0%, 100%)" stroke-opacity="1" stroke-miterlimit="10" d="M 3142.894216 552.448962 L 3142.894216 552.448962 " transform="matrix(0.0993188, 0, 0, -0.0993188, 1.234203, 136.126403)"/>
<path fill="none" stroke-width="56.39" stroke-linecap="round" stroke-linejoin="round" stroke="rgb(0%, 0%, 100%)" stroke-opacity="1" stroke-miterlimit="10" d="M 3066.1606 1216.857456 L 3066.1606 1216.857456 " transform="matrix(0.0993188, 0, 0, -0.0993188, 1.234203, 136.126403)"/>
<path fill="none" stroke-width="56.39" stroke-linecap="round" stroke-linejoin="round" stroke="rgb(0%, 0%, 100%)" stroke-opacity="1" stroke-miterlimit="10" d="M 3142.894216 818.204493 L 3142.894216 818.204493 " transform="matrix(0.0993188, 0, 0, -0.0993188, 1.234203, 136.126403)"/>
<path fill="none" stroke-width="56.39" stroke-linecap="round" stroke-linejoin="round" stroke="rgb(0%, 0%, 100%)" stroke-opacity="1" stroke-miterlimit="10" d="M 3526.522964 419.551531 L 3526.522964 419.551531 " transform="matrix(0.0993188, 0, 0, -0.0993188, 1.234203, 136.126403)"/>
<path fill="none" stroke-width="56.39" stroke-linecap="round" stroke-linejoin="round" stroke="rgb(0%, 0%, 100%)" stroke-opacity="1" stroke-miterlimit="10" d="M 3526.522964 951.101924 L 3526.522964 951.101924 " transform="matrix(0.0993188, 0, 0, -0.0993188, 1.234203, 136.126403)"/>
</svg>
