<?xml version="1.0" encoding="UTF-8"?>
<svg xmlns="http://www.w3.org/2000/svg" xmlns:xlink="http://www.w3.org/1999/xlink" width="115" height="95" viewBox="0 0 115 95">
<path fill="none" stroke-width="10" stroke-linecap="butt" stroke-linejoin="miter" stroke="rgb(13.729858%, 12.159729%, 12.548828%)" stroke-opacity="1" stroke-miterlimit="11.5" d="M 150 468.59375 L -869.179688 885.546875 " transform="matrix(0.1, 0, 0, -0.1, 0, 95)"/>
<path fill="none" stroke-width="10" stroke-linecap="butt" stroke-linejoin="miter" stroke="rgb(13.729858%, 12.159729%, 12.548828%)" stroke-opacity="1" stroke-miterlimit="11.5" d="M 150 468.59375 L -869.179688 51.679688 " transform="matrix(0.1, 0, 0, -0.1, 0, 95)"/>
<path fill="none" stroke-width="10" stroke-linecap="butt" stroke-linejoin="miter" stroke="rgb(13.729858%, 12.159729%, 12.548828%)" stroke-opacity="1" stroke-miterlimit="11.5" d="M 285.078125 468.59375 L -734.101562 885.546875 " transform="matrix(0.1, 0, 0, -0.1, 0, 95)"/>
<path fill="none" stroke-width="10" stroke-linecap="butt" stroke-linejoin="miter" stroke="rgb(13.729858%, 12.159729%, 12.548828%)" stroke-opacity="1" stroke-miterlimit="11.5" d="M 285.078125 468.59375 L -734.101562 51.679688 " transform="matrix(0.1, 0, 0, -0.1, 0, 95)"/>
<path fill="none" stroke-width="10" stroke-linecap="butt" stroke-linejoin="miter" stroke="rgb(13.729858%, 12.159729%, 12.548828%)" stroke-opacity="1" stroke-miterlimit="11.5" d="M 420.15625 468.59375 L -599.023438 885.546875 " transform="matrix(0.1, 0, 0, -0.1, 0, 95)"/>
<path fill="none" stroke-width="10" stroke-linecap="butt" stroke-linejoin="miter" stroke="rgb(13.729858%, 12.159729%, 12.548828%)" stroke-opacity="1" stroke-miterlimit="11.5" d="M 420.15625 468.59375 L -599.023438 51.679688 " transform="matrix(0.1, 0, 0, -0.1, 0, 95)"/>
<path fill="none" stroke-width="10" stroke-linecap="butt" stroke-linejoin="miter" stroke="rgb(13.729858%, 12.159729%, 12.548828%)" stroke-opacity="1" stroke-miterlimit="11.5" d="M 555.234375 468.59375 L -463.945312 885.546875 " transform="matrix(0.1, 0, 0, -0.1, 0, 95)"/>
<path fill="none" stroke-width="10" stroke-linecap="butt" stroke-linejoin="miter" stroke="rgb(13.729858%, 12.159729%, 12.548828%)" stroke-opacity="1" stroke-miterlimit="11.5" d="M 555.234375 468.59375 L -463.945312 51.679688 " transform="matrix(0.1, 0, 0, -0.1, 0, 95)"/>
<path fill="none" stroke-width="10" stroke-linecap="butt" stroke-linejoin="miter" stroke="rgb(13.729858%, 12.159729%, 12.548828%)" stroke-opacity="1" stroke-miterlimit="11.5" d="M 690.3125 468.59375 L -328.867188 885.546875 " transform="matrix(0.1, 0, 0, -0.1, 0, 95)"/>
<path fill="none" stroke-width="10" stroke-linecap="butt" stroke-linejoin="miter" stroke="rgb(13.729858%, 12.159729%, 12.548828%)" stroke-opacity="1" stroke-miterlimit="11.5" d="M 690.3125 468.59375 L -328.867188 51.679688 " transform="matrix(0.1, 0, 0, -0.1, 0, 95)"/>
<path fill="none" stroke-width="10" stroke-linecap="butt" stroke-linejoin="miter" stroke="rgb(13.729858%, 12.159729%, 12.548828%)" stroke-opacity="1" stroke-miterlimit="11.5" d="M 825.429688 468.59375 L -193.75 885.546875 " transform="matrix(0.1, 0, 0, -0.1, 0, 95)"/>
<path fill="none" stroke-width="10" stroke-linecap="butt" stroke-linejoin="miter" stroke="rgb(13.729858%, 12.159729%, 12.548828%)" stroke-opacity="1" stroke-miterlimit="11.5" d="M 825.429688 468.59375 L -193.75 51.679688 " transform="matrix(0.1, 0, 0, -0.1, 0, 95)"/>
<path fill="none" stroke-width="10" stroke-linecap="butt" stroke-linejoin="miter" stroke="rgb(13.729858%, 12.159729%, 12.548828%)" stroke-opacity="1" stroke-miterlimit="11.5" d="M 960.507812 468.59375 L -58.671875 885.546875 " transform="matrix(0.1, 0, 0, -0.1, 0, 95)"/>
<path fill="none" stroke-width="10" stroke-linecap="butt" stroke-linejoin="miter" stroke="rgb(13.729858%, 12.159729%, 12.548828%)" stroke-opacity="1" stroke-miterlimit="11.5" d="M 960.507812 468.59375 L -58.671875 51.679688 " transform="matrix(0.1, 0, 0, -0.1, 0, 95)"/>
<path fill="none" stroke-width="10" stroke-linecap="butt" stroke-linejoin="miter" stroke="rgb(13.729858%, 12.159729%, 12.548828%)" stroke-opacity="1" stroke-miterlimit="11.5" d="M 1095.585938 468.59375 L 76.40625 885.546875 " transform="matrix(0.1, 0, 0, -0.1, 0, 95)"/>
<path fill="none" stroke-width="10" stroke-linecap="butt" stroke-linejoin="miter" stroke="rgb(13.729858%, 12.159729%, 12.548828%)" stroke-opacity="1" stroke-miterlimit="11.5" d="M 1095.585938 468.59375 L 76.40625 51.679688 " transform="matrix(0.1, 0, 0, -0.1, 0, 95)"/>
<path fill="none" stroke-width="10" stroke-linecap="butt" stroke-linejoin="miter" stroke="rgb(13.729858%, 12.159729%, 12.548828%)" stroke-opacity="1" stroke-miterlimit="11.5" d="M 1230.664062 468.59375 L 211.484375 885.546875 " transform="matrix(0.1, 0, 0, -0.1, 0, 95)"/>
<path fill="none" stroke-width="10" stroke-linecap="butt" stroke-linejoin="miter" stroke="rgb(13.729858%, 12.159729%, 12.548828%)" stroke-opacity="1" stroke-miterlimit="11.5" d="M 1230.664062 468.59375 L 211.484375 51.679688 " transform="matrix(0.1, 0, 0, -0.1, 0, 95)"/>
<path fill="none" stroke-width="10" stroke-linecap="butt" stroke-linejoin="miter" stroke="rgb(13.729858%, 12.159729%, 12.548828%)" stroke-opacity="1" stroke-miterlimit="11.5" d="M 1365.742188 468.59375 L 346.5625 885.546875 " transform="matrix(0.1, 0, 0, -0.1, 0, 95)"/>
<path fill="none" stroke-width="10" stroke-linecap="butt" stroke-linejoin="miter" stroke="rgb(13.729858%, 12.159729%, 12.548828%)" stroke-opacity="1" stroke-miterlimit="11.5" d="M 1365.742188 468.59375 L 346.5625 51.679688 " transform="matrix(0.1, 0, 0, -0.1, 0, 95)"/>
<path fill="none" stroke-width="10" stroke-linecap="butt" stroke-linejoin="miter" stroke="rgb(13.729858%, 12.159729%, 12.548828%)" stroke-opacity="1" stroke-miterlimit="11.5" d="M 1500.820312 468.59375 L 481.640625 885.546875 " transform="matrix(0.1, 0, 0, -0.1, 0, 95)"/>
<path fill="none" stroke-width="10" stroke-linecap="butt" stroke-linejoin="miter" stroke="rgb(13.729858%, 12.159729%, 12.548828%)" stroke-opacity="1" stroke-miterlimit="11.5" d="M 1500.820312 468.59375 L 481.640625 51.679688 " transform="matrix(0.1, 0, 0, -0.1, 0, 95)"/>
<path fill="none" stroke-width="10" stroke-linecap="butt" stroke-linejoin="miter" stroke="rgb(13.729858%, 12.159729%, 12.548828%)" stroke-opacity="1" stroke-miterlimit="11.5" d="M 1635.898438 468.59375 L 616.757812 885.546875 " transform="matrix(0.1, 0, 0, -0.1, 0, 95)"/>
<path fill="none" stroke-width="10" stroke-linecap="butt" stroke-linejoin="miter" stroke="rgb(13.729858%, 12.159729%, 12.548828%)" stroke-opacity="1" stroke-miterlimit="11.5" d="M 1635.898438 468.59375 L 616.757812 51.679688 " transform="matrix(0.1, 0, 0, -0.1, 0, 95)"/>
<path fill="none" stroke-width="10" stroke-linecap="butt" stroke-linejoin="miter" stroke="rgb(13.729858%, 12.159729%, 12.548828%)" stroke-opacity="1" stroke-miterlimit="11.5" d="M 1771.015625 468.59375 L 751.835938 885.546875 " transform="matrix(0.1, 0, 0, -0.1, 0, 95)"/>
<path fill="none" stroke-width="10" stroke-linecap="butt" stroke-linejoin="miter" stroke="rgb(13.729858%, 12.159729%, 12.548828%)" stroke-opacity="1" stroke-miterlimit="11.5" d="M 1771.015625 468.59375 L 751.835938 51.679688 " transform="matrix(0.1, 0, 0, -0.1, 0, 95)"/>
<path fill="none" stroke-width="10" stroke-linecap="butt" stroke-linejoin="miter" stroke="rgb(13.729858%, 12.159729%, 12.548828%)" stroke-opacity="1" stroke-miterlimit="11.5" d="M 1906.09375 468.59375 L 886.914062 885.546875 " transform="matrix(0.1, 0, 0, -0.1, 0, 95)"/>
<path fill="none" stroke-width="10" stroke-linecap="butt" stroke-linejoin="miter" stroke="rgb(13.729858%, 12.159729%, 12.548828%)" stroke-opacity="1" stroke-miterlimit="11.5" d="M 1906.09375 468.59375 L 886.914062 51.679688 " transform="matrix(0.1, 0, 0, -0.1, 0, 95)"/>
<path fill="none" stroke-width="10" stroke-linecap="butt" stroke-linejoin="miter" stroke="rgb(13.729858%, 12.159729%, 12.548828%)" stroke-opacity="1" stroke-miterlimit="11.5" d="M 2041.171875 468.59375 L 1021.992188 885.546875 " transform="matrix(0.1, 0, 0, -0.1, 0, 95)"/>
<path fill="none" stroke-width="10" stroke-linecap="butt" stroke-linejoin="miter" stroke="rgb(13.729858%, 12.159729%, 12.548828%)" stroke-opacity="1" stroke-miterlimit="11.5" d="M 2041.171875 468.59375 L 1021.992188 51.679688 " transform="matrix(0.1, 0, 0, -0.1, 0, 95)"/>
<path fill="none" stroke-width="10" stroke-linecap="butt" stroke-linejoin="miter" stroke="rgb(13.729858%, 12.159729%, 12.548828%)" stroke-opacity="1" stroke-miterlimit="11.5" d="M 64.023438 45.507812 L 1118.867188 45.507812 L 1118.867188 885.46875 L 64.023438 885.46875 Z M 64.023438 45.507812 " transform="matrix(0.1, 0, 0, -0.1, 0, 95)"/>
<path fill-rule="evenodd" fill="rgb(100%, 100%, 100%)" fill-opacity="1" d="M 112.34375 95.332031 L 205.132812 95.332031 L 205.132812 -3.3125 L 112.34375 -3.3125 Z M 112.34375 95.332031 "/>
<path fill-rule="evenodd" fill="rgb(100%, 100%, 100%)" fill-opacity="1" d="M -86.84375 100.21875 L 5.941406 100.21875 L 5.941406 1.570312 L -86.84375 1.570312 Z M -86.84375 100.21875 "/>
<path fill="none" stroke-width="20" stroke-linecap="butt" stroke-linejoin="miter" stroke="rgb(13.729858%, 12.159729%, 12.548828%)" stroke-opacity="1" stroke-miterlimit="14.3" d="M 635.585938 723.476562 L 887.8125 471.289062 L 635.585938 219.0625 L 383.398438 471.289062 Z M 635.585938 723.476562 " transform="matrix(0.1, 0, 0, -0.1, 0, 95)"/>
</svg>
