<?xml version="1.0" encoding="UTF-8"?>
<svg xmlns="http://www.w3.org/2000/svg" xmlns:xlink="http://www.w3.org/1999/xlink" width="288" height="207.25" viewBox="0 0 288 207.25">
<path fill="none" stroke-width="5" stroke-linecap="round" stroke-linejoin="round" stroke="rgb(0%, 0%, 0%)" stroke-opacity="1" stroke-dasharray="57.587 57.587" stroke-miterlimit="10" d="M 1123.585645 1028.697226 L 1756.414355 1043.790712 " transform="matrix(0.0996394, 0, 0, -0.0996394, 0.519231, 206.502704)"/>
<path fill="none" stroke-width="5" stroke-linecap="round" stroke-linejoin="round" stroke="rgb(0%, 0%, 0%)" stroke-opacity="1" stroke-miterlimit="10" d="M 701.712907 546.568154 L 2811.115802 546.568154 L 1123.585645 2023.14234 L 701.712907 546.568154 " transform="matrix(0.0996394, 0, 0, -0.0996394, 0.519231, 206.502704)"/>
<path fill="none" stroke-width="5" stroke-linecap="round" stroke-linejoin="round" stroke="rgb(0%, 0%, 0%)" stroke-opacity="1" stroke-miterlimit="10" d="M 701.712907 546.568154 L 2811.115802 546.568154 L 1123.585645 1028.697226 L 701.712907 546.568154 " transform="matrix(0.0996394, 0, 0, -0.0996394, 0.519231, 206.502704)"/>
<path fill="none" stroke-width="5" stroke-linecap="round" stroke-linejoin="round" stroke="rgb(0%, 0%, 0%)" stroke-opacity="1" stroke-miterlimit="10" d="M 701.712907 546.568154 L 1123.585645 2023.14234 L 1123.585645 1028.697226 L 701.712907 546.568154 " transform="matrix(0.0996394, 0, 0, -0.0996394, 0.519231, 206.502704)"/>
<path fill="none" stroke-width="5" stroke-linecap="round" stroke-linejoin="round" stroke="rgb(0%, 0%, 0%)" stroke-opacity="1" stroke-miterlimit="10" d="M 2811.115802 546.568154 L 1123.585645 2023.14234 L 1123.585645 1028.697226 L 2811.115802 546.568154 " transform="matrix(0.0996394, 0, 0, -0.0996394, 0.519231, 206.502704)"/>
<path fill="none" stroke-width="57.587" stroke-linecap="round" stroke-linejoin="round" stroke="rgb(0%, 0%, 0%)" stroke-opacity="1" stroke-miterlimit="10" d="M 701.712907 546.568154 L 701.712907 546.568154 " transform="matrix(0.0996394, 0, 0, -0.0996394, 0.519231, 206.502704)"/>
<path fill="none" stroke-width="57.587" stroke-linecap="round" stroke-linejoin="round" stroke="rgb(0%, 0%, 0%)" stroke-opacity="1" stroke-miterlimit="10" d="M 2811.115802 546.568154 L 2811.115802 546.568154 " transform="matrix(0.0996394, 0, 0, -0.0996394, 0.519231, 206.502704)"/>
<path fill="none" stroke-width="57.587" stroke-linecap="round" stroke-linejoin="round" stroke="rgb(0%, 0%, 0%)" stroke-opacity="1" stroke-miterlimit="10" d="M 1123.585645 2023.14234 L 1123.585645 2023.14234 " transform="matrix(0.0996394, 0, 0, -0.0996394, 0.519231, 206.502704)"/>
<path fill="none" stroke-width="57.587" stroke-linecap="round" stroke-linejoin="round" stroke="rgb(0%, 0%, 0%)" stroke-opacity="1" stroke-miterlimit="10" d="M 1123.585645 1028.697226 L 1123.585645 1028.697226 " transform="matrix(0.0996394, 0, 0, -0.0996394, 0.519231, 206.502704)"/>
<path fill="none" stroke-width="5" stroke-linecap="round" stroke-linejoin="round" stroke="rgb(59.959412%, 59.959412%, 59.959412%)" stroke-opacity="1" stroke-miterlimit="10" d="M 1756.414355 49.345597 L 1756.414355 1043.790712 " transform="matrix(0.0996394, 0, 0, -0.0996394, 0.519231, 206.502704)"/>
<path fill="none" stroke-width="5" stroke-linecap="round" stroke-linejoin="round" stroke="rgb(59.959412%, 59.959412%, 59.959412%)" stroke-opacity="1" stroke-miterlimit="10" d="M 68.884198 1525.958987 L 1756.414355 1043.790712 " transform="matrix(0.0996394, 0, 0, -0.0996394, 0.519231, 206.502704)"/>
<path fill="none" stroke-width="5" stroke-linecap="round" stroke-linejoin="round" stroke="rgb(59.959412%, 59.959412%, 59.959412%)" stroke-opacity="1" stroke-miterlimit="10" d="M 2178.287093 1525.958987 L 1756.414355 1043.790712 " transform="matrix(0.0996394, 0, 0, -0.0996394, 0.519231, 206.502704)"/>
<path fill="none" stroke-width="5" stroke-linecap="round" stroke-linejoin="round" stroke="rgb(59.959412%, 59.959412%, 59.959412%)" stroke-opacity="1" stroke-miterlimit="10" d="M 68.884198 1525.958987 L 1756.414355 49.345597 " transform="matrix(0.0996394, 0, 0, -0.0996394, 0.519231, 206.502704)"/>
<path fill="none" stroke-width="5" stroke-linecap="round" stroke-linejoin="round" stroke="rgb(59.959412%, 59.959412%, 59.959412%)" stroke-opacity="1" stroke-miterlimit="10" d="M 2178.287093 1525.958987 L 1756.414355 49.345597 " transform="matrix(0.0996394, 0, 0, -0.0996394, 0.519231, 206.502704)"/>
<path fill="none" stroke-width="5" stroke-linecap="round" stroke-linejoin="round" stroke="rgb(59.959412%, 59.959412%, 59.959412%)" stroke-opacity="1" stroke-miterlimit="10" d="M 2178.287093 1525.958987 L 68.884198 1525.958987 " transform="matrix(0.0996394, 0, 0, -0.0996394, 0.519231, 206.502704)"/>
<path fill="none" stroke-width="57.587" stroke-linecap="round" stroke-linejoin="round" stroke="rgb(59.959412%, 59.959412%, 59.959412%)" stroke-opacity="1" stroke-miterlimit="10" d="M 1756.414355 1043.790712 L 1756.414355 1043.790712 " transform="matrix(0.0996394, 0, 0, -0.0996394, 0.519231, 206.502704)"/>
<path fill="none" stroke-width="57.587" stroke-linecap="round" stroke-linejoin="round" stroke="rgb(59.959412%, 59.959412%, 59.959412%)" stroke-opacity="1" stroke-miterlimit="10" d="M 1756.414355 49.345597 L 1756.414355 49.345597 " transform="matrix(0.0996394, 0, 0, -0.0996394, 0.519231, 206.502704)"/>
<path fill="none" stroke-width="57.587" stroke-linecap="round" stroke-linejoin="round" stroke="rgb(59.959412%, 59.959412%, 59.959412%)" stroke-opacity="1" stroke-miterlimit="10" d="M 68.884198 1525.958987 L 68.884198 1525.958987 " transform="matrix(0.0996394, 0, 0, -0.0996394, 0.519231, 206.502704)"/>
<path fill="none" stroke-width="57.587" stroke-linecap="round" stroke-linejoin="round" stroke="rgb(59.959412%, 59.959412%, 59.959412%)" stroke-opacity="1" stroke-miterlimit="10" d="M 2178.287093 1525.958987 L 2178.287093 1525.958987 " transform="matrix(0.0996394, 0, 0, -0.0996394, 0.519231, 206.502704)"/>
<path fill="none" stroke-width="115.174" stroke-linecap="round" stroke-linejoin="round" stroke="rgb(0%, 0%, 0%)" stroke-opacity="1" stroke-miterlimit="10" d="M 1440 1036.263571 L 1440 1036.263571 " transform="matrix(0.0996394, 0, 0, -0.0996394, 0.519231, 206.502704)"/>
</svg>
