<?xml version="1.0" encoding="UTF-8"?>
<svg xmlns="http://www.w3.org/2000/svg" xmlns:xlink="http://www.w3.org/1999/xlink" width="440" height="104" viewBox="0 0 440 104">
<defs>
<clipPath id="clip-0">
<path clip-rule="nonzero" d="M 361 80 L 367 80 L 367 84.582031 L 361 84.582031 Z M 361 80 "/>
</clipPath>
</defs>
<path fill="none" stroke-width="2.60491" stroke-linecap="round" stroke-linejoin="round" stroke="rgb(0%, 0%, 0%)" stroke-opacity="1" stroke-miterlimit="10" d="M 112.304688 49.570312 L 1414.726562 49.570312 " transform="matrix(0.1, 0, 0, -0.1, 0, 104)"/>
<path fill="none" stroke-width="2.60491" stroke-linecap="round" stroke-linejoin="round" stroke="rgb(0%, 0%, 0%)" stroke-opacity="1" stroke-miterlimit="10" d="M 763.515625 26.054688 L 763.515625 1013.945312 " transform="matrix(0.1, 0, 0, -0.1, 0, 104)"/>
<path fill="none" stroke-width="5.20981" stroke-linecap="round" stroke-linejoin="round" stroke="rgb(0%, 0%, 0%)" stroke-opacity="1" stroke-miterlimit="10" d="M 143.28125 669.804688 L 194.960938 570.742188 L 246.640625 480.3125 L 298.359375 398.476562 L 350.039062 325.234375 L 401.71875 260.625 L 453.398438 204.648438 L 505.078125 157.265625 L 556.757812 118.515625 L 608.4375 88.359375 L 634.296875 76.523438 L 660.15625 66.835938 L 685.976562 59.296875 L 698.90625 56.328125 L 711.835938 53.90625 L 724.765625 52.03125 L 731.210938 51.289062 L 737.65625 50.664062 L 744.140625 50.195312 L 747.34375 50 L 750.585938 49.882812 L 753.828125 49.726562 L 755.429688 49.6875 L 757.070312 49.648438 L 758.671875 49.609375 L 760.273438 49.609375 L 761.914062 49.570312 L 765.117188 49.570312 L 766.757812 49.609375 L 768.359375 49.609375 L 769.960938 49.648438 L 773.203125 49.726562 L 776.445312 49.882812 L 779.648438 50 L 782.890625 50.195312 L 789.335938 50.664062 L 795.820312 51.289062 L 802.265625 52.03125 L 815.195312 53.90625 L 828.125 56.328125 L 841.015625 59.296875 L 866.875 66.835938 L 892.734375 76.523438 L 918.554688 88.359375 L 970.273438 118.515625 L 1021.914062 157.265625 L 1073.632812 204.648438 L 1125.3125 260.625 L 1176.992188 325.234375 " transform="matrix(0.1, 0, 0, -0.1, 0, 104)"/>
<path fill="none" stroke-width="5.20981" stroke-linecap="round" stroke-linejoin="round" stroke="rgb(0%, 0%, 0%)" stroke-opacity="1" stroke-miterlimit="10" d="M 1176.992188 325.234375 L 1228.671875 398.476562 L 1280.351562 480.3125 L 1332.03125 570.742188 L 1383.710938 669.804688 " transform="matrix(0.1, 0, 0, -0.1, 0, 104)"/>
<path fill="none" stroke-width="52.0981" stroke-linecap="round" stroke-linejoin="round" stroke="rgb(0%, 0%, 0%)" stroke-opacity="1" stroke-miterlimit="10" d="M 391.40625 272.851562 L 391.40625 272.851562 " transform="matrix(0.1, 0, 0, -0.1, 0, 104)"/>
<path fill="none" stroke-width="52.0981" stroke-linecap="round" stroke-linejoin="round" stroke="rgb(0%, 0%, 0%)" stroke-opacity="1" stroke-miterlimit="10" d="M 515.429688 148.828125 L 515.429688 148.828125 " transform="matrix(0.1, 0, 0, -0.1, 0, 104)"/>
<path fill="none" stroke-width="52.0981" stroke-linecap="round" stroke-linejoin="round" stroke="rgb(0%, 0%, 0%)" stroke-opacity="1" stroke-miterlimit="10" d="M 949.570312 105.429688 L 949.570312 105.429688 " transform="matrix(0.1, 0, 0, -0.1, 0, 104)"/>
<path fill="none" stroke-width="5.20981" stroke-linecap="round" stroke-linejoin="round" stroke="rgb(0%, 0%, 0%)" stroke-opacity="1" stroke-miterlimit="10" d="M 1232.96875 530.273438 C 1232.96875 784.414062 1026.953125 990.429688 772.8125 990.429688 C 518.671875 990.429688 312.65625 784.414062 312.65625 530.273438 C 312.65625 276.132812 518.671875 70.117188 772.8125 70.117188 C 1026.953125 70.117188 1232.96875 276.132812 1232.96875 530.273438 C 1232.96875 545.585938 1232.1875 560.9375 1230.664062 576.210938 " transform="matrix(0.1, 0, 0, -0.1, 0, 104)"/>
<path fill="none" stroke-width="2.60659" stroke-linecap="round" stroke-linejoin="round" stroke="rgb(0%, 0%, 0%)" stroke-opacity="1" stroke-miterlimit="10" d="M 1548.359375 84.179688 L 2851.640625 84.179688 " transform="matrix(0.1, 0, 0, -0.1, 0, 104)"/>
<path fill="none" stroke-width="2.60659" stroke-linecap="round" stroke-linejoin="round" stroke="rgb(0%, 0%, 0%)" stroke-opacity="1" stroke-miterlimit="10" d="M 2200 62.421875 L 2200 977.578125 " transform="matrix(0.1, 0, 0, -0.1, 0, 104)"/>
<path fill="none" stroke-width="5.21318" stroke-linecap="round" stroke-linejoin="round" stroke="rgb(0%, 0%, 0%)" stroke-opacity="1" stroke-miterlimit="10" d="M 1579.375 704.804688 L 1631.09375 605.703125 L 1682.8125 515.195312 L 1734.53125 433.28125 L 1786.25 360.039062 L 1837.96875 295.390625 L 1889.6875 239.335938 L 1941.40625 191.953125 L 1993.125 153.164062 L 2044.84375 122.96875 L 2070.703125 111.132812 L 2096.5625 101.445312 L 2122.421875 93.90625 L 2135.351562 90.9375 L 2148.28125 88.515625 L 2161.210938 86.640625 L 2167.695312 85.859375 L 2174.140625 85.273438 L 2180.625 84.804688 L 2183.828125 84.609375 L 2187.070312 84.453125 L 2190.3125 84.335938 L 2191.914062 84.296875 L 2193.554688 84.257812 L 2195.15625 84.21875 L 2196.757812 84.21875 L 2198.398438 84.179688 L 2201.601562 84.179688 L 2203.242188 84.21875 L 2204.84375 84.21875 L 2206.445312 84.257812 L 2209.6875 84.335938 L 2212.929688 84.453125 L 2216.171875 84.609375 L 2219.375 84.804688 L 2225.859375 85.273438 L 2232.304688 85.859375 L 2238.789062 86.640625 L 2251.71875 88.515625 L 2264.648438 90.9375 L 2277.578125 93.90625 L 2303.4375 101.445312 L 2329.296875 111.132812 L 2355.15625 122.96875 L 2406.875 153.164062 L 2458.59375 191.953125 L 2510.3125 239.335938 L 2562.03125 295.390625 L 2613.75 360.039062 " transform="matrix(0.1, 0, 0, -0.1, 0, 104)"/>
<path fill="none" stroke-width="5.21318" stroke-linecap="round" stroke-linejoin="round" stroke="rgb(0%, 0%, 0%)" stroke-opacity="1" stroke-miterlimit="10" d="M 2613.75 360.039062 L 2665.46875 433.28125 L 2717.1875 515.195312 L 2768.90625 605.703125 L 2820.625 704.804688 " transform="matrix(0.1, 0, 0, -0.1, 0, 104)"/>
<path fill="none" stroke-width="52.1318" stroke-linecap="round" stroke-linejoin="round" stroke="rgb(0%, 0%, 0%)" stroke-opacity="1" stroke-miterlimit="10" d="M 1889.6875 239.335938 L 1889.6875 239.335938 " transform="matrix(0.1, 0, 0, -0.1, 0, 104)"/>
<path fill="none" stroke-width="52.1318" stroke-linecap="round" stroke-linejoin="round" stroke="rgb(0%, 0%, 0%)" stroke-opacity="1" stroke-miterlimit="10" d="M 1951.757812 183.476562 L 1951.757812 183.476562 " transform="matrix(0.1, 0, 0, -0.1, 0, 104)"/>
<path fill="none" stroke-width="52.1318" stroke-linecap="round" stroke-linejoin="round" stroke="rgb(0%, 0%, 0%)" stroke-opacity="1" stroke-miterlimit="10" d="M 2386.171875 140.039062 L 2386.171875 140.039062 " transform="matrix(0.1, 0, 0, -0.1, 0, 104)"/>
<path fill="none" stroke-width="5.21318" stroke-linecap="round" stroke-linejoin="round" stroke="rgb(0%, 0%, 0%)" stroke-opacity="1" stroke-miterlimit="10" d="M 2633.476562 527.929688 C 2633.476562 764.257812 2441.875 955.820312 2205.585938 955.820312 C 1969.296875 955.820312 1777.734375 764.257812 1777.734375 527.929688 C 1777.734375 291.640625 1969.296875 100.078125 2205.585938 100.078125 C 2441.875 100.078125 2633.476562 291.640625 2633.476562 527.929688 C 2633.476562 542.1875 2632.734375 556.484375 2631.328125 570.664062 " transform="matrix(0.1, 0, 0, -0.1, 0, 104)"/>
<path fill="none" stroke-width="2.60658" stroke-linecap="round" stroke-linejoin="round" stroke="rgb(0%, 0%, 0%)" stroke-opacity="1" stroke-miterlimit="10" d="M 2984.84375 209.6875 L 4288.125 209.6875 " transform="matrix(0.1, 0, 0, -0.1, 0, 104)"/>
<path fill="none" stroke-width="2.60658" stroke-linecap="round" stroke-linejoin="round" stroke="rgb(0%, 0%, 0%)" stroke-opacity="1" stroke-miterlimit="10" d="M 3636.484375 194.179688 L 3636.484375 845.820312 " transform="matrix(0.1, 0, 0, -0.1, 0, 104)"/>
<path fill="none" stroke-width="5.21316" stroke-linecap="round" stroke-linejoin="round" stroke="rgb(0%, 0%, 0%)" stroke-opacity="1" stroke-miterlimit="10" d="M 3015.859375 830.3125 L 3067.578125 731.171875 L 3119.296875 640.664062 L 3171.015625 558.789062 L 3222.734375 485.507812 L 3274.453125 420.859375 L 3326.171875 364.84375 L 3377.890625 317.421875 L 3429.609375 278.632812 L 3481.328125 248.476562 L 3507.1875 236.640625 L 3533.046875 226.914062 L 3558.90625 219.414062 L 3571.835938 216.40625 L 3584.765625 213.984375 L 3597.695312 212.109375 L 3604.140625 211.367188 L 3610.625 210.78125 L 3617.109375 210.3125 L 3620.3125 210.117188 L 3623.554688 209.960938 L 3626.796875 209.84375 L 3628.398438 209.804688 L 3630.039062 209.765625 L 3631.640625 209.726562 L 3633.242188 209.726562 L 3634.882812 209.6875 L 3638.085938 209.6875 L 3639.726562 209.726562 L 3641.328125 209.726562 L 3642.96875 209.765625 L 3646.171875 209.84375 L 3649.414062 209.960938 L 3652.65625 210.117188 L 3655.898438 210.3125 L 3662.34375 210.78125 L 3668.828125 211.367188 L 3675.273438 212.109375 L 3688.203125 213.984375 L 3701.132812 216.40625 L 3714.0625 219.414062 L 3739.921875 226.914062 L 3765.78125 236.640625 L 3791.640625 248.476562 L 3843.359375 278.632812 L 3895.078125 317.421875 L 3946.796875 364.84375 L 3998.515625 420.859375 L 4050.234375 485.507812 " transform="matrix(0.1, 0, 0, -0.1, 0, 104)"/>
<path fill="none" stroke-width="5.21316" stroke-linecap="round" stroke-linejoin="round" stroke="rgb(0%, 0%, 0%)" stroke-opacity="1" stroke-miterlimit="10" d="M 4050.234375 485.507812 L 4101.953125 558.789062 L 4153.671875 640.664062 L 4205.390625 731.171875 L 4257.109375 830.3125 " transform="matrix(0.1, 0, 0, -0.1, 0, 104)"/>
<path fill="none" stroke-width="5.21316" stroke-linecap="round" stroke-linejoin="round" stroke="rgb(0%, 0%, 0%)" stroke-opacity="1" stroke-miterlimit="10" d="M 3946.796875 520 C 3946.796875 691.367188 3807.851562 830.3125 3636.484375 830.3125 C 3465.117188 830.3125 3326.171875 691.367188 3326.171875 520 C 3326.171875 348.632812 3465.117188 209.6875 3636.484375 209.6875 C 3807.851562 209.6875 3946.796875 348.632812 3946.796875 520 C 3946.796875 530.351562 3946.289062 540.703125 3945.234375 550.976562 " transform="matrix(0.1, 0, 0, -0.1, 0, 104)"/>
<g clip-path="url(#clip-0)">
<path fill="none" stroke-width="52.1316" stroke-linecap="round" stroke-linejoin="round" stroke="rgb(0%, 0%, 0%)" stroke-opacity="1" stroke-miterlimit="10" d="M 3636.484375 209.6875 L 3636.484375 209.6875 " transform="matrix(0.1, 0, 0, -0.1, 0, 104)"/>
</g>
</svg>
