<?xml version="1.0" encoding="UTF-8"?>
<svg xmlns="http://www.w3.org/2000/svg" xmlns:xlink="http://www.w3.org/1999/xlink" width="215.19" height="230.37" viewBox="0 0 215.19 230.37">
<path fill="none" stroke-width="5" stroke-linecap="round" stroke-linejoin="round" stroke="rgb(0%, 0%, 0%)" stroke-opacity="1" stroke-miterlimit="10" d="M 1482.747804 1193.373777 C 1482.747804 1216.389774 1464.084065 1235.014304 1441.107277 1235.014304 C 1418.09128 1235.014304 1399.46675 1216.389774 1399.46675 1193.373777 C 1399.46675 1170.396989 1418.09128 1151.772459 1441.107277 1151.772459 C 1464.084065 1151.772459 1482.747804 1170.396989 1482.747804 1193.373777 C 1482.747804 1194.78532 1482.669385 1196.157654 1482.512547 1197.569197 " transform="matrix(0.099625, 0, 0, -0.099625, 0.00000000000000222, 229.624237)"/>
<path fill="none" stroke-width="5" stroke-linecap="round" stroke-linejoin="round" stroke="rgb(0%, 0%, 0%)" stroke-opacity="1" stroke-miterlimit="10" d="M 1525.682246 1234.779046 C 1525.682246 1280.614994 1488.511606 1317.824843 1442.636449 1317.824843 C 1396.800502 1317.824843 1359.590652 1280.614994 1359.590652 1234.779046 C 1359.590652 1188.90389 1396.800502 1151.69404 1442.636449 1151.69404 C 1488.511606 1151.69404 1525.682246 1188.90389 1525.682246 1234.779046 C 1525.682246 1237.523714 1525.564617 1240.307591 1525.290151 1243.052258 " transform="matrix(0.099625, 0, 0, -0.099625, 0.00000000000000222, 229.624237)"/>
<path fill="none" stroke-width="5" stroke-linecap="round" stroke-linejoin="round" stroke="rgb(0%, 0%, 0%)" stroke-opacity="1" stroke-miterlimit="10" d="M 1569.165621 1275.635383 C 1569.165621 1344.095232 1513.684128 1399.615935 1445.224279 1399.615935 C 1376.764429 1399.615935 1321.243726 1344.095232 1321.243726 1275.635383 C 1321.243726 1207.175533 1376.764429 1151.654831 1445.224279 1151.654831 C 1513.684128 1151.654831 1569.165621 1207.175533 1569.165621 1275.635383 C 1569.165621 1279.752384 1568.969573 1283.908595 1568.577478 1287.986386 " transform="matrix(0.099625, 0, 0, -0.099625, 0.00000000000000222, 229.624237)"/>
<path fill="none" stroke-width="5" stroke-linecap="round" stroke-linejoin="round" stroke="rgb(0%, 0%, 0%)" stroke-opacity="1" stroke-miterlimit="10" d="M 1612.962673 1315.746738 C 1612.962673 1406.438394 1539.444793 1479.956274 1448.753137 1479.956274 C 1358.022271 1479.956274 1284.504391 1406.438394 1284.504391 1315.746738 C 1284.504391 1225.015872 1358.022271 1151.497992 1448.753137 1151.497992 C 1539.444793 1151.497992 1612.962673 1225.015872 1612.962673 1315.746738 C 1612.962673 1321.196863 1612.688206 1326.686198 1612.139272 1332.136324 " transform="matrix(0.099625, 0, 0, -0.099625, 0.00000000000000222, 229.624237)"/>
<path fill="none" stroke-width="5" stroke-linecap="round" stroke-linejoin="round" stroke="rgb(0%, 0%, 0%)" stroke-opacity="1" stroke-miterlimit="10" d="M 1656.681305 1354.799435 C 1656.681305 1467.173965 1565.558344 1558.336136 1453.144605 1558.336136 C 1340.730866 1558.336136 1249.607905 1467.173965 1249.607905 1354.799435 C 1249.607905 1242.385696 1340.730866 1151.223526 1453.144605 1151.223526 C 1565.558344 1151.223526 1656.681305 1242.385696 1656.681305 1354.799435 C 1656.681305 1361.543476 1656.367629 1368.365935 1655.661857 1375.109975 " transform="matrix(0.099625, 0, 0, -0.099625, 0.00000000000000222, 229.624237)"/>
<path fill="none" stroke-width="5" stroke-linecap="round" stroke-linejoin="round" stroke="rgb(0%, 0%, 0%)" stroke-opacity="1" stroke-miterlimit="10" d="M 1700.125471 1392.597428 C 1700.125471 1526.105897 1591.867942 1634.324216 1458.398683 1634.324216 C 1324.890213 1634.324216 1216.632685 1526.105897 1216.632685 1392.597428 C 1216.632685 1259.088959 1324.890213 1150.87064 1458.398683 1150.87064 C 1591.867942 1150.87064 1700.125471 1259.088959 1700.125471 1392.597428 C 1700.125471 1400.674592 1699.694166 1408.712547 1698.909975 1416.750502 " transform="matrix(0.099625, 0, 0, -0.099625, 0.00000000000000222, 229.624237)"/>
<path fill="none" stroke-width="5" stroke-linecap="round" stroke-linejoin="round" stroke="rgb(0%, 0%, 0%)" stroke-opacity="1" stroke-miterlimit="10" d="M 1742.863864 1428.905458 C 1742.863864 1582.763676 1618.138331 1707.45 1464.319322 1707.45 C 1310.461104 1707.45 1185.77478 1582.763676 1185.77478 1428.905458 C 1185.77478 1275.086449 1310.461104 1150.360916 1464.319322 1150.360916 C 1618.138331 1150.360916 1742.863864 1275.086449 1742.863864 1428.905458 C 1742.863864 1438.198118 1742.39335 1447.490778 1741.452321 1456.744228 " transform="matrix(0.099625, 0, 0, -0.099625, 0.00000000000000222, 229.624237)"/>
<path fill="none" stroke-width="5" stroke-linecap="round" stroke-linejoin="round" stroke="rgb(0%, 0%, 0%)" stroke-opacity="1" stroke-miterlimit="10" d="M 1784.700439 1463.566688 C 1784.700439 1636.872836 1644.212673 1777.360602 1470.906524 1777.360602 C 1297.600376 1777.360602 1157.11261 1636.872836 1157.11261 1463.566688 C 1157.11261 1290.26054 1297.600376 1149.772773 1470.906524 1149.772773 C 1644.212673 1149.772773 1784.700439 1290.26054 1784.700439 1463.566688 C 1784.700439 1474.035634 1784.151506 1484.46537 1783.132058 1494.895107 " transform="matrix(0.099625, 0, 0, -0.099625, 0.00000000000000222, 229.624237)"/>
<path fill="none" stroke-width="5" stroke-linecap="round" stroke-linejoin="round" stroke="rgb(0%, 0%, 0%)" stroke-opacity="1" stroke-miterlimit="10" d="M 1825.20389 1496.30665 C 1825.20389 1688.080489 1669.73808 1843.546299 1477.964241 1843.546299 C 1286.151192 1843.546299 1130.685383 1688.080489 1130.685383 1496.30665 C 1130.685383 1304.493601 1286.151192 1149.027792 1477.964241 1149.027792 C 1669.73808 1149.027792 1825.20389 1304.493601 1825.20389 1496.30665 C 1825.20389 1507.873463 1824.654956 1519.440276 1823.47867 1530.96788 " transform="matrix(0.099625, 0, 0, -0.099625, 0.00000000000000222, 229.624237)"/>
<path fill="none" stroke-width="5" stroke-linecap="round" stroke-linejoin="round" stroke="rgb(0%, 0%, 0%)" stroke-opacity="1" stroke-miterlimit="10" d="M 1864.178168 1526.968507 C 1864.178168 1736.15138 1694.557716 1905.732622 1485.374843 1905.732622 C 1276.15276 1905.732622 1106.532309 1736.15138 1106.532309 1526.968507 C 1106.532309 1317.746424 1276.15276 1148.125972 1485.374843 1148.125972 C 1694.557716 1148.125972 1864.178168 1317.746424 1864.178168 1526.968507 C 1864.178168 1539.593977 1863.511606 1552.219448 1862.256901 1564.766499 " transform="matrix(0.099625, 0, 0, -0.099625, 0.00000000000000222, 229.624237)"/>
<path fill="none" stroke-width="5" stroke-linecap="round" stroke-linejoin="round" stroke="rgb(0%, 0%, 0%)" stroke-opacity="1" stroke-miterlimit="10" d="M 1901.19197 1555.317001 C 1901.19197 1780.771832 1718.436324 1963.527478 1492.981493 1963.527478 C 1267.565872 1963.527478 1084.810226 1780.771832 1084.810226 1555.317001 C 1084.810226 1329.90138 1267.565872 1147.145734 1492.981493 1147.145734 C 1718.436324 1147.145734 1901.19197 1329.90138 1901.19197 1555.317001 C 1901.19197 1568.92271 1900.525408 1582.528419 1899.153074 1596.094918 " transform="matrix(0.099625, 0, 0, -0.099625, 0.00000000000000222, 229.624237)"/>
<path fill="none" stroke-width="5" stroke-linecap="round" stroke-linejoin="round" stroke="rgb(0%, 0%, 0%)" stroke-opacity="1" stroke-miterlimit="10" d="M 1935.970828 1581.352133 C 1935.970828 1821.745797 1741.099435 2016.656399 1500.666562 2016.656399 C 1260.272898 2016.656399 1065.362296 1821.745797 1065.362296 1581.352133 C 1065.362296 1340.91926 1260.272898 1146.047867 1500.666562 1146.047867 C 1741.099435 1146.047867 1935.970828 1340.91926 1935.970828 1581.352133 C 1935.970828 1595.859661 1935.265056 1610.367189 1933.814304 1624.796299 " transform="matrix(0.099625, 0, 0, -0.099625, 0.00000000000000222, 229.624237)"/>
<path fill="none" stroke-width="5" stroke-linecap="round" stroke-linejoin="round" stroke="rgb(0%, 0%, 0%)" stroke-opacity="1" stroke-miterlimit="10" d="M 1968.201066 1604.799435 C 1968.201066 1858.838018 1762.272585 2064.766499 1508.234003 2064.766499 C 1254.23463 2064.766499 1048.306148 1858.838018 1048.306148 1604.799435 C 1048.306148 1350.760853 1254.23463 1144.832371 1508.234003 1144.832371 C 1762.272585 1144.832371 1968.201066 1350.760853 1968.201066 1604.799435 C 1968.201066 1620.130364 1967.456085 1635.461292 1965.926913 1650.713802 " transform="matrix(0.099625, 0, 0, -0.099625, 0.00000000000000222, 229.624237)"/>
<path fill="none" stroke-width="5" stroke-linecap="round" stroke-linejoin="round" stroke="rgb(0%, 0%, 0%)" stroke-opacity="1" stroke-miterlimit="10" d="M 1997.569009 1625.619699 C 1997.569009 1891.852447 1781.759724 2107.661731 1515.566186 2107.661731 C 1249.333438 2107.661731 1033.524153 1891.852447 1033.524153 1625.619699 C 1033.524153 1359.386951 1249.333438 1143.577666 1515.566186 1143.577666 C 1781.759724 1143.577666 1997.569009 1359.386951 1997.569009 1625.619699 C 1997.569009 1641.695609 1996.784818 1657.732309 1995.177227 1673.769009 " transform="matrix(0.099625, 0, 0, -0.099625, 0.00000000000000222, 229.624237)"/>
<path fill="none" stroke-width="5" stroke-linecap="round" stroke-linejoin="round" stroke="rgb(0%, 0%, 0%)" stroke-opacity="1" stroke-miterlimit="10" d="M 2023.800188 1643.734504 C 2023.800188 1920.632246 1799.325596 2145.146048 1522.427854 2145.146048 C 1245.490903 2145.146048 1021.016311 1920.632246 1021.016311 1643.734504 C 1021.016311 1366.836763 1245.490903 1142.322961 1522.427854 1142.322961 C 1799.325596 1142.322961 2023.800188 1366.836763 2023.800188 1643.734504 C 2023.800188 1660.437767 2022.976788 1677.141029 2021.290778 1693.805082 " transform="matrix(0.099625, 0, 0, -0.099625, 0.00000000000000222, 229.624237)"/>
<path fill="none" stroke-width="5" stroke-linecap="round" stroke-linejoin="round" stroke="rgb(0%, 0%, 0%)" stroke-opacity="1" stroke-miterlimit="10" d="M 2046.580928 1659.065433 C 2046.580928 1945.098996 1814.695734 2176.984191 1528.662171 2176.984191 C 1242.589398 2176.984191 1010.704203 1945.098996 1010.704203 1659.065433 C 1010.704203 1372.99266 1242.589398 1141.107465 1528.662171 1141.107465 C 1814.695734 1141.107465 2046.580928 1372.99266 2046.580928 1659.065433 C 2046.580928 1676.317629 2045.718319 1693.609034 2043.993099 1710.782811 " transform="matrix(0.099625, 0, 0, -0.099625, 0.00000000000000222, 229.624237)"/>
<path fill="none" stroke-width="5" stroke-linecap="round" stroke-linejoin="round" stroke="rgb(0%, 0%, 0%)" stroke-opacity="1" stroke-miterlimit="10" d="M 2065.715182 1671.534065 C 2065.715182 1965.135069 1827.7133 2203.136951 1534.112296 2203.136951 C 1240.511292 2203.136951 1002.54862 1965.135069 1002.54862 1671.534065 C 1002.54862 1377.972271 1240.511292 1139.970389 1534.112296 1139.970389 C 1827.7133 1139.970389 2065.715182 1377.972271 2065.715182 1671.534065 C 2065.715182 1689.295985 2064.813363 1706.979486 2063.048934 1724.623777 " transform="matrix(0.099625, 0, 0, -0.099625, 0.00000000000000222, 229.624237)"/>
<path fill="none" stroke-width="5" stroke-linecap="round" stroke-linejoin="round" stroke="rgb(0%, 0%, 0%)" stroke-opacity="1" stroke-miterlimit="10" d="M 2080.810853 1681.218821 C 2080.810853 1980.662045 1838.064617 2223.408281 1538.621393 2223.408281 C 1239.138959 2223.408281 996.392723 1980.662045 996.392723 1681.218821 C 996.392723 1381.736386 1239.138959 1138.990151 1538.621393 1138.990151 C 1838.064617 1138.990151 2080.810853 1381.736386 2080.810853 1681.218821 C 2080.810853 1699.255207 2079.909034 1717.330803 2078.105395 1735.32798 " transform="matrix(0.099625, 0, 0, -0.099625, 0.00000000000000222, 229.624237)"/>
<path fill="none" stroke-width="5" stroke-linecap="round" stroke-linejoin="round" stroke="rgb(0%, 0%, 0%)" stroke-opacity="1" stroke-miterlimit="10" d="M 2091.828733 1688.00207 C 2091.828733 1991.640715 1845.671267 2237.798181 1541.993413 2237.798181 C 1238.354768 2237.798181 992.197302 1991.640715 992.197302 1688.00207 C 992.197302 1384.324216 1238.354768 1138.16675 1541.993413 1138.16675 C 1845.671267 1138.16675 2091.828733 1384.324216 2091.828733 1688.00207 C 2091.828733 1706.312923 2090.926913 1724.662986 2089.084065 1742.89542 " transform="matrix(0.099625, 0, 0, -0.099625, 0.00000000000000222, 229.624237)"/>
<path fill="none" stroke-width="5" stroke-linecap="round" stroke-linejoin="round" stroke="rgb(0%, 0%, 0%)" stroke-opacity="1" stroke-miterlimit="10" d="M 2098.415935 1691.962233 C 2098.415935 1998.110289 1850.258783 2246.30665 1544.110728 2246.30665 C 1237.962673 2246.30665 989.766311 1998.110289 989.766311 1691.962233 C 989.766311 1385.814178 1237.962673 1137.657026 1544.110728 1137.657026 C 1850.258783 1137.657026 2098.415935 1385.814178 2098.415935 1691.962233 C 2098.415935 1710.469134 2097.514115 1728.936826 2095.671267 1747.326098 " transform="matrix(0.099625, 0, 0, -0.099625, 0.00000000000000222, 229.624237)"/>
<path fill="none" stroke-width="5" stroke-linecap="round" stroke-linejoin="round" stroke="rgb(0%, 0%, 0%)" stroke-opacity="1" stroke-miterlimit="10" d="M 2100.49404 1693.177729 C 2100.49404 2000.070765 1851.709536 2248.894479 1544.77729 2248.894479 C 1237.884253 2248.894479 989.06054 2000.070765 989.06054 1693.177729 C 989.06054 1386.284693 1237.884253 1137.460979 1544.77729 1137.460979 C 1851.709536 1137.460979 2100.49404 1386.284693 2100.49404 1693.177729 C 2100.49404 1711.68463 2099.553011 1730.23074 2097.710163 1748.659222 " transform="matrix(0.099625, 0, 0, -0.099625, 0.00000000000000222, 229.624237)"/>
<path fill="none" stroke-width="5" stroke-linecap="round" stroke-linejoin="round" stroke="rgb(0%, 0%, 0%)" stroke-opacity="1" stroke-miterlimit="10" d="M 2097.867001 1691.687767 C 2097.867001 1997.639774 1849.827478 2245.679297 1543.875471 2245.679297 C 1237.923463 2245.679297 989.88394 1997.639774 989.88394 1691.687767 C 989.88394 1385.735759 1237.923463 1137.696236 1543.875471 1137.696236 C 1849.827478 1137.696236 2097.867001 1385.735759 2097.867001 1691.687767 C 2097.867001 1710.155458 2096.925972 1728.623149 2095.083124 1747.012422 " transform="matrix(0.099625, 0, 0, -0.099625, 0.00000000000000222, 229.624237)"/>
<path fill="none" stroke-width="5" stroke-linecap="round" stroke-linejoin="round" stroke="rgb(0%, 0%, 0%)" stroke-opacity="1" stroke-miterlimit="10" d="M 2090.417189 1687.570765 C 2090.417189 1990.856524 1844.5734 2236.700314 1541.287641 2236.700314 C 1238.041092 2236.700314 992.158093 1990.856524 992.158093 1687.570765 C 992.158093 1384.324216 1238.041092 1138.441217 1541.287641 1138.441217 C 1844.5734 1138.441217 2090.417189 1384.324216 2090.417189 1687.570765 C 2090.417189 1705.881619 2089.51537 1724.192472 2087.672522 1742.424906 " transform="matrix(0.099625, 0, 0, -0.099625, 0.00000000000000222, 229.624237)"/>
<path fill="none" stroke-width="5" stroke-linecap="round" stroke-linejoin="round" stroke="rgb(0%, 0%, 0%)" stroke-opacity="1" stroke-miterlimit="10" d="M 2078.066186 1680.983563 C 2078.066186 1979.877854 1835.790464 2222.192785 1536.896173 2222.192785 C 1238.001882 2222.192785 995.726161 1979.877854 995.726161 1680.983563 C 995.726161 1382.128482 1238.001882 1139.813551 1536.896173 1139.813551 C 1835.790464 1139.813551 2078.066186 1382.128482 2078.066186 1680.983563 C 2078.066186 1699.059159 2077.164366 1717.095546 2075.360728 1735.014304 " transform="matrix(0.099625, 0, 0, -0.099625, 0.00000000000000222, 229.624237)"/>
<path fill="none" stroke-width="5" stroke-linecap="round" stroke-linejoin="round" stroke="rgb(0%, 0%, 0%)" stroke-opacity="1" stroke-miterlimit="10" d="M 2060.77478 1672.00458 C 2060.77478 1964.821393 1823.400251 2202.235132 1530.544228 2202.235132 C 1237.727415 2202.235132 1000.352886 1964.821393 1000.352886 1672.00458 C 1000.352886 1379.187767 1237.727415 1141.813237 1530.544228 1141.813237 C 1823.400251 1141.813237 2060.77478 1379.187767 2060.77478 1672.00458 C 2060.77478 1689.68808 2059.872961 1707.332371 2058.147742 1724.937453 " transform="matrix(0.099625, 0, 0, -0.099625, 0.00000000000000222, 229.624237)"/>
<path fill="none" stroke-width="5" stroke-linecap="round" stroke-linejoin="round" stroke="rgb(0%, 0%, 0%)" stroke-opacity="1" stroke-miterlimit="10" d="M 2038.503764 1660.790652 C 2038.503764 1945.922396 1807.363551 2177.0234 1522.271016 2177.0234 C 1237.139272 2177.0234 1005.999059 1945.922396 1005.999059 1660.790652 C 1005.999059 1375.698118 1237.139272 1144.557905 1522.271016 1144.557905 C 1807.363551 1144.557905 2038.503764 1375.698118 2038.503764 1660.790652 C 2038.503764 1678.003639 2037.641154 1695.216625 2035.915935 1712.351192 " transform="matrix(0.099625, 0, 0, -0.099625, 0.00000000000000222, 229.624237)"/>
<path fill="none" stroke-width="5" stroke-linecap="round" stroke-linejoin="round" stroke="rgb(0%, 0%, 0%)" stroke-opacity="1" stroke-miterlimit="10" d="M 2011.253137 1647.49862 C 2011.253137 1923.298494 1787.641154 2146.871267 1511.880489 2146.871267 C 1236.080615 2146.871267 1012.507842 1923.298494 1012.507842 1647.49862 C 1012.507842 1371.698745 1236.080615 1148.125972 1511.880489 1148.125972 C 1787.641154 1148.125972 2011.253137 1371.698745 2011.253137 1647.49862 C 2011.253137 1664.162673 2010.390527 1680.787516 2008.743726 1697.373149 " transform="matrix(0.099625, 0, 0, -0.099625, 0.00000000000000222, 229.624237)"/>
<path fill="none" stroke-width="5" stroke-linecap="round" stroke-linejoin="round" stroke="rgb(0%, 0%, 0%)" stroke-opacity="1" stroke-miterlimit="10" d="M 1979.062108 1632.28532 C 1979.062108 1897.224153 1764.311481 2111.97478 1499.372647 2111.97478 C 1234.473024 2111.97478 1019.683187 1897.224153 1019.683187 1632.28532 C 1019.683187 1367.346487 1234.473024 1152.595859 1499.372647 1152.595859 C 1764.311481 1152.595859 1979.062108 1367.346487 1979.062108 1632.28532 C 1979.062108 1648.282811 1978.277917 1664.280301 1976.670326 1680.199373 " transform="matrix(0.099625, 0, 0, -0.099625, 0.00000000000000222, 229.624237)"/>
<path fill="none" stroke-width="5" stroke-linecap="round" stroke-linejoin="round" stroke="rgb(0%, 0%, 0%)" stroke-opacity="1" stroke-miterlimit="10" d="M 1942.087516 1615.38601 C 1942.087516 1867.973839 1737.33532 2072.726035 1484.747491 2072.726035 C 1232.198871 2072.726035 1027.407465 1867.973839 1027.407465 1615.38601 C 1027.407465 1362.798181 1232.198871 1158.045985 1484.747491 1158.045985 C 1737.33532 1158.045985 1942.087516 1362.798181 1942.087516 1615.38601 C 1942.087516 1630.638519 1941.342535 1645.851819 1939.813363 1661.02591 " transform="matrix(0.099625, 0, 0, -0.099625, 0.00000000000000222, 229.624237)"/>
<path fill="none" stroke-width="5" stroke-linecap="round" stroke-linejoin="round" stroke="rgb(0%, 0%, 0%)" stroke-opacity="1" stroke-miterlimit="10" d="M 1900.36857 1596.918319 C 1900.36857 1835.704391 1706.751882 2029.28187 1467.965809 2029.28187 C 1229.179737 2029.28187 1035.602258 1835.704391 1035.602258 1596.918319 C 1035.602258 1358.132246 1229.179737 1164.554768 1467.965809 1164.554768 C 1706.751882 1164.554768 1900.36857 1358.132246 1900.36857 1596.918319 C 1900.36857 1611.347428 1899.623588 1625.737327 1898.212045 1640.088018 " transform="matrix(0.099625, 0, 0, -0.099625, 0.00000000000000222, 229.624237)"/>
<path fill="none" stroke-width="5" stroke-linecap="round" stroke-linejoin="round" stroke="rgb(0%, 0%, 0%)" stroke-opacity="1" stroke-miterlimit="10" d="M 1854.101317 1577.117503 C 1854.101317 1800.807905 1672.757215 1982.112798 1449.106023 1982.112798 C 1225.415621 1982.112798 1044.071518 1800.807905 1044.071518 1577.117503 C 1044.071518 1353.427102 1225.415621 1172.122208 1449.106023 1172.122208 C 1672.757215 1172.122208 1854.101317 1353.427102 1854.101317 1577.117503 C 1854.101317 1590.644793 1853.434755 1604.132873 1852.062422 1617.542535 " transform="matrix(0.099625, 0, 0, -0.099625, 0.00000000000000222, 229.624237)"/>
<path fill="none" stroke-width="5" stroke-linecap="round" stroke-linejoin="round" stroke="rgb(0%, 0%, 0%)" stroke-opacity="1" stroke-miterlimit="10" d="M 1803.442597 1556.218821 C 1803.442597 1763.519636 1635.351317 1931.571706 1428.050502 1931.571706 C 1220.749686 1931.571706 1052.697616 1763.519636 1052.697616 1556.218821 C 1052.697616 1348.918005 1220.749686 1180.865935 1428.050502 1180.865935 C 1635.351317 1180.865935 1803.442597 1348.918005 1803.442597 1556.218821 C 1803.442597 1568.726662 1802.815245 1581.234504 1801.56054 1593.663927 " transform="matrix(0.099625, 0, 0, -0.099625, 0.00000000000000222, 229.624237)"/>
<path fill="none" stroke-width="5" stroke-linecap="round" stroke-linejoin="round" stroke="rgb(0%, 0%, 0%)" stroke-opacity="1" stroke-miterlimit="10" d="M 1748.627666 1534.379109 C 1748.627666 1724.153262 1594.769448 1877.972271 1404.995295 1877.972271 C 1215.221142 1877.972271 1061.402133 1724.153262 1061.402133 1534.379109 C 1061.402133 1344.604956 1215.221142 1190.785947 1404.995295 1190.785947 C 1594.769448 1190.785947 1748.627666 1344.604956 1748.627666 1534.379109 C 1748.627666 1545.828294 1748.039523 1557.277478 1746.902447 1568.687453 " transform="matrix(0.099625, 0, 0, -0.099625, 0.00000000000000222, 229.624237)"/>
<path fill="none" stroke-width="5" stroke-linecap="round" stroke-linejoin="round" stroke="rgb(0%, 0%, 0%)" stroke-opacity="1" stroke-miterlimit="10" d="M 1689.891782 1511.833626 C 1689.891782 1682.98325 1551.129235 1821.745797 1379.979611 1821.745797 C 1208.829987 1821.745797 1070.06744 1682.98325 1070.06744 1511.833626 C 1070.06744 1340.644793 1208.829987 1201.921455 1379.979611 1201.921455 C 1551.129235 1201.921455 1689.891782 1340.644793 1689.891782 1511.833626 C 1689.891782 1522.145734 1689.382058 1532.497051 1688.3234 1542.76995 " transform="matrix(0.099625, 0, 0, -0.099625, 0.00000000000000222, 229.624237)"/>
<path fill="none" stroke-width="5" stroke-linecap="round" stroke-linejoin="round" stroke="rgb(0%, 0%, 0%)" stroke-opacity="1" stroke-miterlimit="10" d="M 1627.54862 1488.778419 C 1627.54862 1640.362484 1504.626725 1763.245169 1353.04266 1763.245169 C 1201.458595 1763.245169 1078.57591 1640.362484 1078.57591 1488.778419 C 1078.57591 1337.194354 1201.458595 1214.311669 1353.04266 1214.311669 C 1504.626725 1214.311669 1627.54862 1337.194354 1627.54862 1488.778419 C 1627.54862 1497.914241 1627.078105 1507.089272 1626.176286 1516.185885 " transform="matrix(0.099625, 0, 0, -0.099625, 0.00000000000000222, 229.624237)"/>
<path fill="none" stroke-width="5" stroke-linecap="round" stroke-linejoin="round" stroke="rgb(0%, 0%, 0%)" stroke-opacity="1" stroke-miterlimit="10" d="M 1561.872647 1465.448745 C 1561.872647 1596.604642 1455.536386 1702.940903 1324.380489 1702.940903 C 1193.224592 1702.940903 1086.888331 1596.604642 1086.888331 1465.448745 C 1086.888331 1334.253639 1193.224592 1227.917378 1324.380489 1227.917378 C 1455.536386 1227.917378 1561.872647 1334.253639 1561.872647 1465.448745 C 1561.872647 1473.369072 1561.480552 1481.289398 1560.696361 1489.131305 " transform="matrix(0.099625, 0, 0, -0.099625, 0.00000000000000222, 229.624237)"/>
<path fill="none" stroke-width="5" stroke-linecap="round" stroke-linejoin="round" stroke="rgb(0%, 0%, 0%)" stroke-opacity="1" stroke-miterlimit="10" d="M 1493.25596 1442.001443 C 1493.25596 1552.0234 1404.054266 1641.185885 1294.071518 1641.185885 C 1184.049561 1641.185885 1094.887077 1552.0234 1094.887077 1442.001443 C 1094.887077 1332.018695 1184.049561 1242.817001 1294.071518 1242.817001 C 1404.054266 1242.817001 1493.25596 1332.018695 1493.25596 1442.001443 C 1493.25596 1448.627854 1492.903074 1455.293476 1492.275721 1461.880678 " transform="matrix(0.099625, 0, 0, -0.099625, 0.00000000000000222, 229.624237)"/>
<path fill="none" stroke-width="5" stroke-linecap="round" stroke-linejoin="round" stroke="rgb(0%, 0%, 0%)" stroke-opacity="1" stroke-miterlimit="10" d="M 1422.051443 1418.671769 C 1422.051443 1506.893225 1350.49404 1578.411418 1262.272585 1578.411418 C 1174.051129 1578.411418 1102.532936 1506.893225 1102.532936 1418.671769 C 1102.532936 1330.411104 1174.051129 1258.892911 1262.272585 1258.892911 C 1350.49404 1258.892911 1422.051443 1330.411104 1422.051443 1418.671769 C 1422.051443 1423.965056 1421.776976 1429.297553 1421.228043 1434.590841 " transform="matrix(0.099625, 0, 0, -0.099625, 0.00000000000000222, 229.624237)"/>
<path fill="none" stroke-width="5" stroke-linecap="round" stroke-linejoin="round" stroke="rgb(0%, 0%, 0%)" stroke-opacity="1" stroke-miterlimit="10" d="M 1348.611982 1395.616562 C 1348.611982 1461.567001 1295.169385 1515.048808 1229.218946 1515.048808 C 1163.229297 1515.048808 1109.747491 1461.567001 1109.747491 1395.616562 C 1109.747491 1329.666123 1163.229297 1276.184316 1229.218946 1276.184316 C 1295.169385 1276.184316 1348.611982 1329.666123 1348.611982 1395.616562 C 1348.611982 1399.615935 1348.415935 1403.576098 1348.023839 1407.536261 " transform="matrix(0.099625, 0, 0, -0.099625, 0.00000000000000222, 229.624237)"/>
<path fill="none" stroke-width="5" stroke-linecap="round" stroke-linejoin="round" stroke="rgb(0%, 0%, 0%)" stroke-opacity="1" stroke-miterlimit="10" d="M 1273.408093 1373.03187 C 1273.408093 1416.358407 1238.276349 1451.450941 1194.949812 1451.450941 C 1151.662484 1451.450941 1116.53074 1416.358407 1116.53074 1373.03187 C 1116.53074 1329.744542 1151.662484 1294.612798 1194.949812 1294.612798 C 1238.276349 1294.612798 1273.408093 1329.744542 1273.408093 1373.03187 C 1273.408093 1375.658908 1273.251255 1378.285947 1273.015997 1380.873777 " transform="matrix(0.099625, 0, 0, -0.099625, 0.00000000000000222, 229.624237)"/>
<path fill="none" stroke-width="5" stroke-linecap="round" stroke-linejoin="round" stroke="rgb(0%, 0%, 0%)" stroke-opacity="1" stroke-miterlimit="10" d="M 1196.79266 1351.074529 C 1196.79266 1371.502698 1180.246236 1388.049122 1159.818068 1388.049122 C 1139.3899 1388.049122 1122.804266 1371.502698 1122.804266 1351.074529 C 1122.804266 1330.646361 1139.3899 1314.099937 1159.818068 1314.099937 C 1180.246236 1314.099937 1196.79266 1330.646361 1196.79266 1351.074529 C 1196.79266 1352.329235 1196.714241 1353.54473 1196.596612 1354.760226 " transform="matrix(0.099625, 0, 0, -0.099625, 0.00000000000000222, 229.624237)"/>
<path fill="none" stroke-width="5" stroke-linecap="round" stroke-linejoin="round" stroke="rgb(0%, 0%, 0%)" stroke-opacity="1" stroke-miterlimit="10" d="M 1128.607277 1329.90138 C 1128.607277 1332.48921 1126.529172 1334.567315 1123.941343 1334.567315 C 1121.353513 1334.567315 1119.275408 1332.48921 1119.275408 1329.90138 C 1119.275408 1327.313551 1121.353513 1325.235445 1123.941343 1325.235445 C 1126.529172 1325.235445 1128.607277 1327.313551 1128.607277 1329.90138 C 1128.607277 1330.058218 1128.607277 1330.215056 1128.607277 1330.371895 " transform="matrix(0.099625, 0, 0, -0.099625, 0.00000000000000222, 229.624237)"/>
<path fill="none" stroke-width="5" stroke-linecap="round" stroke-linejoin="round" stroke="rgb(0%, 0%, 0%)" stroke-opacity="1" stroke-miterlimit="10" d="M 1133.861355 1309.66926 C 1133.861355 1335.233877 1113.15872 1355.975721 1087.594103 1355.975721 C 1062.029486 1355.975721 1041.287641 1335.233877 1041.287641 1309.66926 C 1041.287641 1284.104642 1062.029486 1263.362798 1087.594103 1263.362798 C 1113.15872 1263.362798 1133.861355 1284.104642 1133.861355 1309.66926 C 1133.861355 1311.198432 1133.782936 1312.766813 1133.665307 1314.295985 " transform="matrix(0.099625, 0, 0, -0.099625, 0.00000000000000222, 229.624237)"/>
<path fill="none" stroke-width="5" stroke-linecap="round" stroke-linejoin="round" stroke="rgb(0%, 0%, 0%)" stroke-opacity="1" stroke-miterlimit="10" d="M 1138.605709 1290.417378 C 1138.605709 1338.841154 1099.356964 1378.0899 1050.972396 1378.0899 C 1002.54862 1378.0899 963.299875 1338.841154 963.299875 1290.417378 C 963.299875 1242.032811 1002.54862 1202.784065 1050.972396 1202.784065 C 1099.356964 1202.784065 1138.605709 1242.032811 1138.605709 1290.417378 C 1138.605709 1293.358093 1138.448871 1296.259598 1138.174404 1299.161104 " transform="matrix(0.099625, 0, 0, -0.099625, 0.00000000000000222, 229.624237)"/>
<path fill="none" stroke-width="5" stroke-linecap="round" stroke-linejoin="round" stroke="rgb(0%, 0%, 0%)" stroke-opacity="1" stroke-miterlimit="10" d="M 1142.840339 1272.341782 C 1142.840339 1343.350251 1085.28074 1400.87064 1014.311481 1400.87064 C 943.303011 1400.87064 885.743413 1343.350251 885.743413 1272.341782 C 885.743413 1201.372522 943.303011 1143.812923 1014.311481 1143.812923 C 1085.28074 1143.812923 1142.840339 1201.372522 1142.840339 1272.341782 C 1142.840339 1276.654831 1142.605082 1280.92867 1142.173777 1285.1633 " transform="matrix(0.099625, 0, 0, -0.099625, 0.00000000000000222, 229.624237)"/>
<path fill="none" stroke-width="5" stroke-linecap="round" stroke-linejoin="round" stroke="rgb(0%, 0%, 0%)" stroke-opacity="1" stroke-miterlimit="10" d="M 1146.565245 1255.481681 C 1146.565245 1348.643538 1071.047679 1424.161104 977.885822 1424.161104 C 884.723965 1424.161104 809.206399 1348.643538 809.206399 1255.481681 C 809.206399 1162.319824 884.723965 1086.802258 977.885822 1086.802258 C 1071.047679 1086.802258 1146.565245 1162.319824 1146.565245 1255.481681 C 1146.565245 1261.127854 1146.251568 1266.734818 1145.702635 1272.302572 " transform="matrix(0.099625, 0, 0, -0.099625, 0.00000000000000222, 229.624237)"/>
<path fill="none" stroke-width="5" stroke-linecap="round" stroke-linejoin="round" stroke="rgb(0%, 0%, 0%)" stroke-opacity="1" stroke-miterlimit="10" d="M 1149.780427 1239.915496 C 1149.780427 1354.721016 1056.696989 1447.804454 941.891468 1447.804454 C 827.085947 1447.804454 734.002509 1354.721016 734.002509 1239.915496 C 734.002509 1125.109975 827.085947 1032.026537 941.891468 1032.026537 C 1056.696989 1032.026537 1149.780427 1125.109975 1149.780427 1239.915496 C 1149.780427 1246.855583 1149.427541 1253.795671 1148.721769 1260.69655 " transform="matrix(0.099625, 0, 0, -0.099625, 0.00000000000000222, 229.624237)"/>
<path fill="none" stroke-width="5" stroke-linecap="round" stroke-linejoin="round" stroke="rgb(0%, 0%, 0%)" stroke-opacity="1" stroke-miterlimit="10" d="M 1152.564304 1225.682434 C 1152.564304 1361.504266 1042.463927 1471.604642 906.642095 1471.604642 C 770.820263 1471.604642 660.719887 1361.504266 660.719887 1225.682434 C 660.719887 1089.860602 770.820263 979.760226 906.642095 979.760226 C 1042.463927 979.760226 1152.564304 1089.860602 1152.564304 1225.682434 C 1152.564304 1233.877227 1152.132999 1242.07202 1151.348808 1250.227604 " transform="matrix(0.099625, 0, 0, -0.099625, 0.00000000000000222, 229.624237)"/>
<path fill="none" stroke-width="5" stroke-linecap="round" stroke-linejoin="round" stroke="rgb(0%, 0%, 0%)" stroke-opacity="1" stroke-miterlimit="10" d="M 1154.877666 1212.821706 C 1154.877666 1368.875659 1028.348494 1495.404831 872.294542 1495.404831 C 716.24059 1495.404831 589.711418 1368.875659 589.711418 1212.821706 C 589.711418 1056.806964 716.24059 930.277792 872.294542 930.277792 C 1028.348494 930.277792 1154.877666 1056.806964 1154.877666 1212.821706 C 1154.877666 1222.271205 1154.367942 1231.681493 1153.466123 1241.052572 " transform="matrix(0.099625, 0, 0, -0.099625, 0.00000000000000222, 229.624237)"/>
<path fill="none" stroke-width="5" stroke-linecap="round" stroke-linejoin="round" stroke="rgb(0%, 0%, 0%)" stroke-opacity="1" stroke-miterlimit="10" d="M 1156.838143 1201.372522 C 1156.838143 1376.795985 1014.585947 1519.008971 839.162484 1519.008971 C 663.739021 1519.008971 521.526035 1376.795985 521.526035 1201.372522 C 521.526035 1025.949059 663.739021 883.736073 839.162484 883.736073 C 1014.585947 883.736073 1156.838143 1025.949059 1156.838143 1201.372522 C 1156.838143 1211.959097 1156.28921 1222.545671 1155.230552 1233.093036 " transform="matrix(0.099625, 0, 0, -0.099625, 0.00000000000000222, 229.624237)"/>
<path fill="none" stroke-width="5" stroke-linecap="round" stroke-linejoin="round" stroke="rgb(0%, 0%, 0%)" stroke-opacity="1" stroke-miterlimit="10" d="M 1158.367315 1191.256462 C 1158.367315 1385.069197 1001.254705 1542.142597 807.481179 1542.142597 C 613.668444 1542.142597 456.555834 1385.069197 456.555834 1191.256462 C 456.555834 997.482936 613.668444 840.370326 807.481179 840.370326 C 1001.254705 840.370326 1158.367315 997.482936 1158.367315 1191.256462 C 1158.367315 1202.940903 1157.779172 1214.664555 1156.602886 1226.270577 " transform="matrix(0.099625, 0, 0, -0.099625, 0.00000000000000222, 229.624237)"/>
<path fill="none" stroke-width="5" stroke-linecap="round" stroke-linejoin="round" stroke="rgb(0%, 0%, 0%)" stroke-opacity="1" stroke-miterlimit="10" d="M 1159.62202 1182.512735 C 1159.62202 1393.577666 988.472396 1564.72729 777.407465 1564.72729 C 566.342535 1564.72729 395.192911 1393.577666 395.192911 1182.512735 C 395.192911 971.408595 566.342535 800.298181 777.407465 800.298181 C 988.472396 800.298181 1159.62202 971.408595 1159.62202 1182.512735 C 1159.62202 1195.255834 1158.955458 1207.998934 1157.700753 1220.663614 " transform="matrix(0.099625, 0, 0, -0.099625, 0.00000000000000222, 229.624237)"/>
<path fill="none" stroke-width="5" stroke-linecap="round" stroke-linejoin="round" stroke="rgb(0%, 0%, 0%)" stroke-opacity="1" stroke-miterlimit="10" d="M 1160.563049 1175.062923 C 1160.563049 1402.242974 976.395859 1586.410163 749.215809 1586.410163 C 522.035759 1586.410163 337.86857 1402.242974 337.86857 1175.062923 C 337.86857 947.882873 522.035759 763.715684 749.215809 763.715684 C 976.395859 763.715684 1160.563049 947.882873 1160.563049 1175.062923 C 1160.563049 1188.786261 1159.896487 1202.470389 1158.524153 1216.115307 " transform="matrix(0.099625, 0, 0, -0.099625, 0.00000000000000222, 229.624237)"/>
<path fill="none" stroke-width="5" stroke-linecap="round" stroke-linejoin="round" stroke="rgb(0%, 0%, 0%)" stroke-opacity="1" stroke-miterlimit="10" d="M 1161.30803 1168.867817 C 1161.30803 1410.869072 965.142723 1607.034379 723.141468 1607.034379 C 481.140213 1607.034379 284.935696 1410.869072 284.935696 1168.867817 C 284.935696 926.866562 481.140213 730.662045 723.141468 730.662045 C 965.142723 730.662045 1161.30803 926.866562 1161.30803 1168.867817 C 1161.30803 1183.453764 1160.563049 1198.078921 1159.112296 1212.625659 " transform="matrix(0.099625, 0, 0, -0.099625, 0.00000000000000222, 229.624237)"/>
<path fill="none" stroke-width="5" stroke-linecap="round" stroke-linejoin="round" stroke="rgb(0%, 0%, 0%)" stroke-opacity="1" stroke-miterlimit="10" d="M 1161.817754 1163.809787 C 1161.817754 1419.259912 954.712986 1626.36468 699.262861 1626.36468 C 443.812735 1626.36468 236.707967 1419.259912 236.707967 1163.809787 C 236.707967 908.320452 443.812735 701.254893 699.262861 701.254893 C 954.712986 701.254893 1161.817754 908.320452 1161.817754 1163.809787 C 1161.817754 1179.219134 1161.033563 1194.628482 1159.504391 1209.99862 " transform="matrix(0.099625, 0, 0, -0.099625, 0.00000000000000222, 229.624237)"/>
<path fill="none" stroke-width="5" stroke-linecap="round" stroke-linejoin="round" stroke="rgb(0%, 0%, 0%)" stroke-opacity="1" stroke-miterlimit="10" d="M 1162.209849 1159.810414 C 1162.209849 1427.337077 945.341907 1644.165809 677.854454 1644.165809 C 410.367001 1644.165809 193.499059 1427.337077 193.499059 1159.810414 C 193.499059 892.322961 410.367001 675.494228 677.854454 675.494228 C 945.341907 675.494228 1162.209849 892.322961 1162.209849 1159.810414 C 1162.209849 1175.964743 1161.386449 1192.119072 1159.778858 1208.194981 " transform="matrix(0.099625, 0, 0, -0.099625, 0.00000000000000222, 229.624237)"/>
<path fill="none" stroke-width="5" stroke-linecap="round" stroke-linejoin="round" stroke="rgb(0%, 0%, 0%)" stroke-opacity="1" stroke-miterlimit="10" d="M 1162.445107 1156.79128 C 1162.445107 1434.826098 937.068695 1660.202509 659.033877 1660.202509 C 381.038269 1660.202509 155.661857 1434.826098 155.661857 1156.79128 C 155.661857 878.795671 381.038269 653.41926 659.033877 653.41926 C 937.068695 653.41926 1162.445107 878.795671 1162.445107 1156.79128 C 1162.445107 1173.612171 1161.621706 1190.393852 1159.935696 1207.057905 " transform="matrix(0.099625, 0, 0, -0.099625, 0.00000000000000222, 229.624237)"/>
<path fill="none" stroke-width="5" stroke-linecap="round" stroke-linejoin="round" stroke="rgb(0%, 0%, 0%)" stroke-opacity="1" stroke-miterlimit="10" d="M 1162.601945 1154.673965 C 1162.601945 1441.648557 929.971769 1674.278733 642.957967 1674.278733 C 355.983375 1674.278733 123.353199 1441.648557 123.353199 1154.673965 C 123.353199 867.699373 355.983375 635.029987 642.957967 635.029987 C 929.971769 635.029987 1162.601945 867.699373 1162.601945 1154.673965 C 1162.601945 1171.96537 1161.739335 1189.295985 1160.014115 1206.548181 " transform="matrix(0.099625, 0, 0, -0.099625, 0.00000000000000222, 229.624237)"/>
<path fill="none" stroke-width="5" stroke-linecap="round" stroke-linejoin="round" stroke="rgb(0%, 0%, 0%)" stroke-opacity="1" stroke-miterlimit="10" d="M 1162.680364 1153.223212 C 1162.680364 1447.529987 924.051129 1686.159222 629.744354 1686.159222 C 335.437578 1686.159222 96.808344 1447.529987 96.808344 1153.223212 C 96.808344 858.877227 335.437578 620.287202 629.744354 620.287202 C 924.051129 620.287202 1162.680364 858.877227 1162.680364 1153.223212 C 1162.680364 1170.985132 1161.778545 1188.747051 1160.014115 1206.430552 " transform="matrix(0.099625, 0, 0, -0.099625, 0.00000000000000222, 229.624237)"/>
<path fill="none" stroke-width="5" stroke-linecap="round" stroke-linejoin="round" stroke="rgb(0%, 0%, 0%)" stroke-opacity="1" stroke-miterlimit="10" d="M 1162.719573 1152.360602 C 1162.719573 1452.39197 919.502823 1695.60872 619.471455 1695.60872 C 319.479297 1695.60872 76.262547 1452.39197 76.262547 1152.360602 C 76.262547 852.329235 319.479297 609.151694 619.471455 609.151694 C 919.502823 609.151694 1162.719573 852.329235 1162.719573 1152.360602 C 1162.719573 1170.475408 1161.817754 1188.551004 1160.014115 1206.58739 " transform="matrix(0.099625, 0, 0, -0.099625, 0.00000000000000222, 229.624237)"/>
<path fill="none" stroke-width="5" stroke-linecap="round" stroke-linejoin="round" stroke="rgb(0%, 0%, 0%)" stroke-opacity="1" stroke-miterlimit="10" d="M 1162.719573 1151.929297 C 1162.719573 1455.960038 916.287641 1702.39197 612.256901 1702.39197 C 308.226161 1702.39197 61.755019 1455.960038 61.755019 1151.929297 C 61.755019 847.898557 308.226161 601.466625 612.256901 601.466625 C 916.287641 601.466625 1162.719573 847.898557 1162.719573 1151.929297 C 1162.719573 1170.27936 1161.817754 1188.629423 1159.974906 1206.901066 " transform="matrix(0.099625, 0, 0, -0.099625, 0.00000000000000222, 229.624237)"/>
<path fill="none" stroke-width="5" stroke-linecap="round" stroke-linejoin="round" stroke="rgb(0%, 0%, 0%)" stroke-opacity="1" stroke-miterlimit="10" d="M 1162.719573 1151.772459 C 1162.719573 1458.077353 914.405583 1706.391343 608.10069 1706.391343 C 301.795797 1706.391343 53.481807 1458.077353 53.481807 1151.772459 C 53.481807 845.467566 301.795797 597.153576 608.10069 597.153576 C 914.405583 597.153576 1162.719573 845.467566 1162.719573 1151.772459 C 1162.719573 1170.27936 1161.817754 1188.747051 1159.974906 1207.136324 " transform="matrix(0.099625, 0, 0, -0.099625, 0.00000000000000222, 229.624237)"/>
<path fill="none" stroke-width="5" stroke-linecap="round" stroke-linejoin="round" stroke="rgb(0%, 0%, 0%)" stroke-opacity="1" stroke-miterlimit="10" d="M 1162.719573 1151.772459 C 1162.719573 1458.626286 913.935069 1707.41079 607.042033 1707.41079 C 300.148996 1707.41079 51.364492 1458.626286 51.364492 1151.772459 C 51.364492 844.879423 300.148996 596.094918 607.042033 596.094918 C 913.935069 596.094918 1162.719573 844.879423 1162.719573 1151.772459 C 1162.719573 1170.27936 1161.778545 1188.786261 1159.935696 1207.214743 " transform="matrix(0.099625, 0, 0, -0.099625, 0.00000000000000222, 229.624237)"/>
<path fill="none" stroke-width="5" stroke-linecap="round" stroke-linejoin="round" stroke="rgb(0%, 0%, 0%)" stroke-opacity="1" stroke-miterlimit="10" d="M 1162.719573 1151.69404 C 1162.719573 1457.45 914.876098 1705.293476 609.120138 1705.293476 C 303.403388 1705.293476 55.559912 1457.45 55.559912 1151.69404 C 55.559912 845.97729 303.403388 598.133814 609.120138 598.133814 C 914.876098 598.133814 1162.719573 845.97729 1162.719573 1151.69404 C 1162.719573 1170.161731 1161.778545 1188.629423 1159.935696 1206.979486 " transform="matrix(0.099625, 0, 0, -0.099625, 0.00000000000000222, 229.624237)"/>
<path fill="none" stroke-width="5" stroke-linecap="round" stroke-linejoin="round" stroke="rgb(0%, 0%, 0%)" stroke-opacity="1" stroke-miterlimit="10" d="M 1162.719573 1151.497992 C 1162.719573 1454.352447 917.18946 1699.88256 614.335006 1699.88256 C 311.480552 1699.88256 65.950439 1454.352447 65.950439 1151.497992 C 65.950439 848.643538 311.480552 603.113425 614.335006 603.113425 C 917.18946 603.113425 1162.719573 848.643538 1162.719573 1151.497992 C 1162.719573 1169.769636 1161.817754 1188.04128 1159.974906 1206.234504 " transform="matrix(0.099625, 0, 0, -0.099625, 0.00000000000000222, 229.624237)"/>
<path fill="none" stroke-width="5" stroke-linecap="round" stroke-linejoin="round" stroke="rgb(0%, 0%, 0%)" stroke-opacity="1" stroke-miterlimit="10" d="M 1162.719573 1150.949059 C 1162.719573 1449.215997 920.914366 1691.060414 622.608218 1691.060414 C 324.30207 1691.060414 82.496863 1449.215997 82.496863 1150.949059 C 82.496863 852.642911 324.30207 610.837704 622.608218 610.837704 C 920.914366 610.837704 1162.719573 852.642911 1162.719573 1150.949059 C 1162.719573 1168.946236 1161.817754 1186.943413 1160.014115 1204.862171 " transform="matrix(0.099625, 0, 0, -0.099625, 0.00000000000000222, 229.624237)"/>
<path fill="none" stroke-width="5" stroke-linecap="round" stroke-linejoin="round" stroke="rgb(0%, 0%, 0%)" stroke-opacity="1" stroke-miterlimit="10" d="M 1162.680364 1149.890402 C 1162.680364 1441.962233 925.933187 1678.70941 633.861355 1678.70941 C 341.828733 1678.70941 105.081556 1441.962233 105.081556 1149.890402 C 105.081556 857.857779 341.828733 621.110602 633.861355 621.110602 C 925.933187 621.110602 1162.680364 857.857779 1162.680364 1149.890402 C 1162.680364 1167.534693 1161.778545 1185.178984 1160.014115 1202.705646 " transform="matrix(0.099625, 0, 0, -0.099625, 0.00000000000000222, 229.624237)"/>
<path fill="none" stroke-width="5" stroke-linecap="round" stroke-linejoin="round" stroke="rgb(0%, 0%, 0%)" stroke-opacity="1" stroke-miterlimit="10" d="M 1162.523526 1148.243601 C 1162.523526 1432.355897 932.206713 1662.71192 648.055207 1662.71192 C 363.903701 1662.71192 133.586888 1432.355897 133.586888 1148.243601 C 133.586888 864.092095 363.903701 633.736073 648.055207 633.736073 C 932.206713 633.736073 1162.523526 864.092095 1162.523526 1148.243601 C 1162.523526 1165.378168 1161.660916 1182.512735 1159.974906 1199.608093 " transform="matrix(0.099625, 0, 0, -0.099625, 0.00000000000000222, 229.624237)"/>
<path fill="none" stroke-width="5" stroke-linecap="round" stroke-linejoin="round" stroke="rgb(0%, 0%, 0%)" stroke-opacity="1" stroke-miterlimit="10" d="M 1162.405897 1145.81261 C 1162.405897 1420.436198 939.734944 1643.107152 665.072146 1643.107152 C 390.409348 1643.107152 167.777604 1420.436198 167.777604 1145.81261 C 167.777604 871.149812 390.409348 648.478858 665.072146 648.478858 C 939.734944 648.478858 1162.405897 871.149812 1162.405897 1145.81261 C 1162.405897 1162.398243 1161.543287 1178.944668 1159.896487 1195.451882 " transform="matrix(0.099625, 0, 0, -0.099625, 0.00000000000000222, 229.624237)"/>
<path fill="none" stroke-width="5" stroke-linecap="round" stroke-linejoin="round" stroke="rgb(0%, 0%, 0%)" stroke-opacity="1" stroke-miterlimit="10" d="M 1162.092221 1142.479799 C 1162.092221 1406.085508 948.400251 1619.816688 684.794542 1619.816688 C 421.149624 1619.816688 207.457654 1406.085508 207.457654 1142.479799 C 207.457654 878.87409 421.149624 665.142911 684.794542 665.142911 C 948.400251 665.142911 1162.092221 878.87409 1162.092221 1142.479799 C 1162.092221 1158.398871 1161.30803 1174.317942 1159.700439 1190.158595 " transform="matrix(0.099625, 0, 0, -0.099625, 0.00000000000000222, 229.624237)"/>
<path fill="none" stroke-width="5" stroke-linecap="round" stroke-linejoin="round" stroke="rgb(0%, 0%, 0%)" stroke-opacity="1" stroke-miterlimit="10" d="M 1161.700125 1138.16675 C 1161.700125 1389.264617 958.124216 1592.840527 707.026349 1592.840527 C 455.928482 1592.840527 252.352572 1389.264617 252.352572 1138.16675 C 252.352572 887.068883 455.928482 683.492974 707.026349 683.492974 C 958.124216 683.492974 1161.700125 887.068883 1161.700125 1138.16675 C 1161.700125 1153.301631 1160.955144 1168.475721 1159.425972 1183.532183 " transform="matrix(0.099625, 0, 0, -0.099625, 0.00000000000000222, 229.624237)"/>
<path fill="none" stroke-width="5" stroke-linecap="round" stroke-linejoin="round" stroke="rgb(0%, 0%, 0%)" stroke-opacity="1" stroke-miterlimit="10" d="M 1161.111982 1132.716625 C 1161.111982 1369.895107 968.828419 1562.13946 731.649937 1562.13946 C 494.510665 1562.13946 302.227102 1369.895107 302.227102 1132.716625 C 302.227102 895.538143 494.510665 703.293789 731.649937 703.293789 C 968.828419 703.293789 1161.111982 895.538143 1161.111982 1132.716625 C 1161.111982 1147.028105 1160.367001 1161.339586 1158.955458 1175.572647 " transform="matrix(0.099625, 0, 0, -0.099625, 0.00000000000000222, 229.624237)"/>
<path fill="none" stroke-width="5" stroke-linecap="round" stroke-linejoin="round" stroke="rgb(0%, 0%, 0%)" stroke-opacity="1" stroke-miterlimit="10" d="M 1160.288582 1126.129423 C 1160.288582 1348.016186 980.395232 1527.909536 758.508469 1527.909536 C 536.582497 1527.909536 356.689147 1348.016186 356.689147 1126.129423 C 356.689147 904.20345 536.582497 724.3101 758.508469 724.3101 C 980.395232 724.3101 1160.288582 904.20345 1160.288582 1126.129423 C 1160.288582 1139.499875 1159.62202 1152.909536 1158.288896 1166.240778 " transform="matrix(0.099625, 0, 0, -0.099625, 0.00000000000000222, 229.624237)"/>
<path fill="none" stroke-width="5" stroke-linecap="round" stroke-linejoin="round" stroke="rgb(0%, 0%, 0%)" stroke-opacity="1" stroke-miterlimit="10" d="M 1159.229925 1118.209097 C 1159.229925 1323.627854 992.707026 1490.111543 787.327478 1490.111543 C 581.94793 1490.111543 415.425031 1323.627854 415.425031 1118.209097 C 415.425031 912.829548 581.94793 746.30665 787.327478 746.30665 C 992.707026 746.30665 1159.229925 912.829548 1159.229925 1118.209097 C 1159.229925 1130.59931 1158.602572 1143.028733 1157.387077 1155.340527 " transform="matrix(0.099625, 0, 0, -0.099625, 0.00000000000000222, 229.624237)"/>
<path fill="none" stroke-width="5" stroke-linecap="round" stroke-linejoin="round" stroke="rgb(0%, 0%, 0%)" stroke-opacity="1" stroke-miterlimit="10" d="M 1157.896801 1109.034065 C 1157.896801 1296.769322 1005.685383 1448.941531 817.950125 1448.941531 C 630.214868 1448.941531 478.04266 1296.769322 478.04266 1109.034065 C 478.04266 921.298808 630.214868 769.08739 817.950125 769.08739 C 1005.685383 769.08739 1157.896801 921.298808 1157.896801 1109.034065 C 1157.896801 1120.365621 1157.308657 1131.697177 1156.171581 1142.950314 " transform="matrix(0.099625, 0, 0, -0.099625, 0.00000000000000222, 229.624237)"/>
<path fill="none" stroke-width="5" stroke-linecap="round" stroke-linejoin="round" stroke="rgb(0%, 0%, 0%)" stroke-opacity="1" stroke-miterlimit="10" d="M 1156.171581 1098.447491 C 1156.171581 1267.479799 1019.173463 1404.477917 850.180364 1404.477917 C 681.148055 1404.477917 544.149937 1267.479799 544.149937 1098.447491 C 544.149937 929.454391 681.148055 792.456274 850.180364 792.456274 C 1019.173463 792.456274 1156.171581 929.454391 1156.171581 1098.447491 C 1156.171581 1108.64197 1155.661857 1118.875659 1154.642409 1129.030928 " transform="matrix(0.099625, 0, 0, -0.099625, 0.00000000000000222, 229.624237)"/>
<path fill="none" stroke-width="5" stroke-linecap="round" stroke-linejoin="round" stroke="rgb(0%, 0%, 0%)" stroke-opacity="1" stroke-miterlimit="10" d="M 1154.132685 1086.527792 C 1154.132685 1235.876913 1033.053639 1356.91675 883.704517 1356.91675 C 734.394605 1356.91675 613.315558 1235.876913 613.315558 1086.527792 C 613.315558 937.17867 734.394605 816.099624 883.704517 816.099624 C 1033.053639 816.099624 1154.132685 937.17867 1154.132685 1086.527792 C 1154.132685 1095.545985 1153.662171 1104.564178 1152.760351 1113.503952 " transform="matrix(0.099625, 0, 0, -0.099625, 0.00000000000000222, 229.624237)"/>
<path fill="none" stroke-width="5" stroke-linecap="round" stroke-linejoin="round" stroke="rgb(0%, 0%, 0%)" stroke-opacity="1" stroke-miterlimit="10" d="M 1151.662484 1073.19655 C 1151.662484 1202.039084 1047.208281 1306.493287 918.365747 1306.493287 C 789.562422 1306.493287 685.108218 1202.039084 685.108218 1073.19655 C 685.108218 944.354015 789.562422 839.939021 918.365747 839.939021 C 1047.208281 839.939021 1151.662484 944.354015 1151.662484 1073.19655 C 1151.662484 1080.999247 1151.270389 1088.762735 1150.486198 1096.487014 " transform="matrix(0.099625, 0, 0, -0.099625, 0.00000000000000222, 229.624237)"/>
<path fill="none" stroke-width="5" stroke-linecap="round" stroke-linejoin="round" stroke="rgb(0%, 0%, 0%)" stroke-opacity="1" stroke-miterlimit="10" d="M 1148.760979 1058.532183 C 1148.760979 1166.123149 1061.519762 1253.364366 953.928795 1253.364366 C 846.337829 1253.364366 759.096612 1166.123149 759.096612 1058.532183 C 759.096612 950.941217 846.337829 863.7 953.928795 863.7 C 1061.519762 863.7 1148.760979 950.941217 1148.760979 1058.532183 C 1148.760979 1065.001757 1148.408093 1071.51054 1147.78074 1077.980113 " transform="matrix(0.099625, 0, 0, -0.099625, 0.00000000000000222, 229.624237)"/>
<path fill="none" stroke-width="5" stroke-linecap="round" stroke-linejoin="round" stroke="rgb(0%, 0%, 0%)" stroke-opacity="1" stroke-miterlimit="10" d="M 1145.388959 1042.534693 C 1145.388959 1128.285947 1075.831242 1197.804454 990.079987 1197.804454 C 904.328733 1197.804454 834.810226 1128.285947 834.810226 1042.534693 C 834.810226 956.783438 904.328733 887.225721 990.079987 887.225721 C 1075.831242 887.225721 1145.388959 956.783438 1145.388959 1042.534693 C 1145.388959 1047.710351 1145.114492 1052.88601 1144.604768 1058.022459 " transform="matrix(0.099625, 0, 0, -0.099625, 0.00000000000000222, 229.624237)"/>
<path fill="none" stroke-width="5" stroke-linecap="round" stroke-linejoin="round" stroke="rgb(0%, 0%, 0%)" stroke-opacity="1" stroke-miterlimit="10" d="M 1141.468005 1025.243287 C 1141.468005 1088.684316 1090.064304 1140.088018 1026.623275 1140.088018 C 963.182246 1140.088018 911.778545 1088.684316 911.778545 1025.243287 C 911.778545 961.802258 963.182246 910.398557 1026.623275 910.398557 C 1090.064304 910.398557 1141.468005 961.802258 1141.468005 1025.243287 C 1141.468005 1029.085822 1141.271957 1032.889147 1140.919072 1036.692472 " transform="matrix(0.099625, 0, 0, -0.099625, 0.00000000000000222, 229.624237)"/>
<path fill="none" stroke-width="5" stroke-linecap="round" stroke-linejoin="round" stroke="rgb(0%, 0%, 0%)" stroke-opacity="1" stroke-miterlimit="10" d="M 1137.076537 1006.775596 C 1137.076537 1047.514304 1104.022898 1080.567942 1063.284191 1080.567942 C 1022.545483 1080.567942 989.491844 1047.514304 989.491844 1006.775596 C 989.491844 965.997679 1022.545483 932.98325 1063.284191 932.98325 C 1104.022898 932.98325 1137.076537 965.997679 1137.076537 1006.775596 C 1137.076537 1009.206587 1136.958908 1011.676788 1136.723651 1014.146989 " transform="matrix(0.099625, 0, 0, -0.099625, 0.00000000000000222, 229.624237)"/>
<path fill="none" stroke-width="5" stroke-linecap="round" stroke-linejoin="round" stroke="rgb(0%, 0%, 0%)" stroke-opacity="1" stroke-miterlimit="10" d="M 1132.175345 987.170828 C 1132.175345 1005.011167 1117.707026 1019.518695 1099.866688 1019.518695 C 1082.026349 1019.518695 1067.55803 1005.011167 1067.55803 987.170828 C 1067.55803 969.330489 1082.026349 954.862171 1099.866688 954.862171 C 1117.707026 954.862171 1132.175345 969.330489 1132.175345 987.170828 C 1132.175345 988.268695 1132.136136 989.327353 1132.018507 990.42522 " transform="matrix(0.099625, 0, 0, -0.099625, 0.00000000000000222, 229.624237)"/>
<path fill="none" stroke-width="5" stroke-linecap="round" stroke-linejoin="round" stroke="rgb(0%, 0%, 0%)" stroke-opacity="1" stroke-miterlimit="10" d="M 1145.428168 966.585822 C 1145.428168 971.761481 1141.232748 975.917691 1136.057089 975.917691 C 1130.92064 975.917691 1126.72522 971.761481 1126.72522 966.585822 C 1126.72522 961.449373 1130.92064 957.253952 1136.057089 957.253952 C 1141.232748 957.253952 1145.428168 961.449373 1145.428168 966.585822 C 1145.428168 966.899498 1145.388959 967.213174 1145.349749 967.526851 " transform="matrix(0.099625, 0, 0, -0.099625, 0.00000000000000222, 229.624237)"/>
<path fill="none" stroke-width="5" stroke-linecap="round" stroke-linejoin="round" stroke="rgb(0%, 0%, 0%)" stroke-opacity="1" stroke-miterlimit="10" d="M 1222.670954 945.138206 C 1222.670954 973.290652 1199.851004 996.071393 1171.737767 996.071393 C 1143.58532 996.071393 1120.76537 973.290652 1120.76537 945.138206 C 1120.76537 916.985759 1143.58532 894.205019 1171.737767 894.205019 C 1199.851004 894.205019 1222.670954 916.985759 1222.670954 945.138206 C 1222.670954 946.824216 1222.592535 948.549435 1222.435696 950.235445 " transform="matrix(0.099625, 0, 0, -0.099625, 0.00000000000000222, 229.624237)"/>
<path fill="none" stroke-width="5" stroke-linecap="round" stroke-linejoin="round" stroke="rgb(0%, 0%, 0%)" stroke-opacity="1" stroke-miterlimit="10" d="M 1298.855082 922.945609 C 1298.855082 973.918005 1257.56744 1015.244856 1206.595044 1015.244856 C 1155.622647 1015.244856 1114.295797 973.918005 1114.295797 922.945609 C 1114.295797 871.973212 1155.622647 830.685571 1206.595044 830.685571 C 1257.56744 830.685571 1298.855082 871.973212 1298.855082 922.945609 C 1298.855082 926.043162 1298.698243 929.101506 1298.384567 932.159849 " transform="matrix(0.099625, 0, 0, -0.099625, 0.00000000000000222, 229.624237)"/>
<path fill="none" stroke-width="5" stroke-linecap="round" stroke-linejoin="round" stroke="rgb(0%, 0%, 0%)" stroke-opacity="1" stroke-miterlimit="10" d="M 1373.510038 900.204078 C 1373.510038 973.682748 1313.950753 1033.281242 1240.432873 1033.281242 C 1166.954203 1033.281242 1107.355709 973.682748 1107.355709 900.204078 C 1107.355709 826.686198 1166.954203 767.126913 1240.432873 767.126913 C 1313.950753 767.126913 1373.510038 826.686198 1373.510038 900.204078 C 1373.510038 904.634755 1373.31399 909.065433 1372.843476 913.49611 " transform="matrix(0.099625, 0, 0, -0.099625, 0.00000000000000222, 229.624237)"/>
<path fill="none" stroke-width="5" stroke-linecap="round" stroke-linejoin="round" stroke="rgb(0%, 0%, 0%)" stroke-opacity="1" stroke-miterlimit="10" d="M 1446.282936 877.031242 C 1446.282936 972.6633 1368.765684 1050.180552 1273.133626 1050.180552 C 1177.501568 1050.180552 1099.984316 972.6633 1099.984316 877.031242 C 1099.984316 781.438394 1177.501568 703.921142 1273.133626 703.921142 C 1368.765684 703.921142 1446.282936 781.438394 1446.282936 877.031242 C 1446.282936 882.834253 1445.96926 888.598055 1445.381117 894.322647 " transform="matrix(0.099625, 0, 0, -0.099625, 0.00000000000000222, 229.624237)"/>
<path fill="none" stroke-width="5" stroke-linecap="round" stroke-linejoin="round" stroke="rgb(0%, 0%, 0%)" stroke-opacity="1" stroke-miterlimit="10" d="M 1516.624843 853.662359 C 1516.624843 970.859661 1421.620138 1065.864366 1304.422836 1065.864366 C 1187.225533 1065.864366 1092.220828 970.859661 1092.220828 853.662359 C 1092.220828 736.465056 1187.225533 641.460351 1304.422836 641.460351 C 1421.620138 641.460351 1516.624843 736.465056 1516.624843 853.662359 C 1516.624843 860.720075 1516.271957 867.817001 1515.566186 874.835508 " transform="matrix(0.099625, 0, 0, -0.099625, 0.00000000000000222, 229.624237)"/>
<path fill="none" stroke-width="5" stroke-linecap="round" stroke-linejoin="round" stroke="rgb(0%, 0%, 0%)" stroke-opacity="1" stroke-miterlimit="10" d="M 1584.300502 830.215056 C 1584.300502 968.350251 1472.357277 1080.332685 1334.222083 1080.332685 C 1196.086888 1080.332685 1084.104454 968.350251 1084.104454 830.215056 C 1084.104454 692.119072 1196.086888 580.136637 1334.222083 580.136637 C 1472.357277 580.136637 1584.300502 692.119072 1584.300502 830.215056 C 1584.300502 838.566688 1583.908407 846.879109 1583.045797 855.191531 " transform="matrix(0.099625, 0, 0, -0.099625, 0.00000000000000222, 229.624237)"/>
<path fill="none" stroke-width="5" stroke-linecap="round" stroke-linejoin="round" stroke="rgb(0%, 0%, 0%)" stroke-opacity="1" stroke-miterlimit="10" d="M 1648.917817 806.963802 C 1648.917817 965.213488 1520.585006 1093.546299 1362.29611 1093.546299 C 1204.046424 1093.546299 1075.713614 965.213488 1075.713614 806.963802 C 1075.713614 648.674906 1204.046424 520.342095 1362.29611 520.342095 C 1520.585006 520.342095 1648.917817 648.674906 1648.917817 806.963802 C 1648.917817 816.491719 1648.408093 826.058846 1647.467064 835.547553 " transform="matrix(0.099625, 0, 0, -0.099625, 0.00000000000000222, 229.624237)"/>
<path fill="none" stroke-width="5" stroke-linecap="round" stroke-linejoin="round" stroke="rgb(0%, 0%, 0%)" stroke-opacity="1" stroke-miterlimit="10" d="M 1710.045483 784.065433 C 1710.045483 961.567001 1566.146487 1105.505207 1388.605709 1105.505207 C 1211.064931 1105.505207 1067.165935 961.567001 1067.165935 784.065433 C 1067.165935 606.524655 1211.064931 462.625659 1388.605709 462.625659 C 1566.146487 462.625659 1710.045483 606.524655 1710.045483 784.065433 C 1710.045483 794.769636 1709.49655 805.473839 1708.437892 816.138833 " transform="matrix(0.099625, 0, 0, -0.099625, 0.00000000000000222, 229.624237)"/>
<path fill="none" stroke-width="5" stroke-linecap="round" stroke-linejoin="round" stroke="rgb(0%, 0%, 0%)" stroke-opacity="1" stroke-miterlimit="10" d="M 1767.487453 761.715997 C 1767.487453 957.48921 1608.767252 1116.24862 1412.99404 1116.24862 C 1217.181619 1116.24862 1058.461418 957.48921 1058.461418 761.715997 C 1058.461418 565.942785 1217.181619 407.222585 1412.99404 407.222585 C 1608.767252 407.222585 1767.487453 565.942785 1767.487453 761.715997 C 1767.487453 773.557277 1766.89931 785.359348 1765.723024 797.122208 " transform="matrix(0.099625, 0, 0, -0.099625, 0.00000000000000222, 229.624237)"/>
<path fill="none" stroke-width="5" stroke-linecap="round" stroke-linejoin="round" stroke="rgb(0%, 0%, 0%)" stroke-opacity="1" stroke-miterlimit="10" d="M 1820.93005 740.150753 C 1820.93005 953.097742 1648.290464 1125.737327 1435.343476 1125.737327 C 1222.396487 1125.737327 1049.756901 953.097742 1049.756901 740.150753 C 1049.756901 527.203764 1222.396487 354.564178 1435.343476 354.564178 C 1648.290464 354.564178 1820.93005 527.203764 1820.93005 740.150753 C 1820.93005 753.011481 1820.302698 765.872208 1819.008783 778.654517 " transform="matrix(0.099625, 0, 0, -0.099625, 0.00000000000000222, 229.624237)"/>
<path fill="none" stroke-width="5" stroke-linecap="round" stroke-linejoin="round" stroke="rgb(0%, 0%, 0%)" stroke-opacity="1" stroke-miterlimit="10" d="M 1870.138018 719.604956 C 1870.138018 948.510226 1684.559285 1134.088959 1455.654015 1134.088959 C 1226.748745 1134.088959 1041.209222 948.510226 1041.209222 719.604956 C 1041.209222 490.699686 1226.748745 305.120954 1455.654015 305.120954 C 1684.559285 305.120954 1870.138018 490.699686 1870.138018 719.604956 C 1870.138018 733.445922 1869.432246 747.247679 1868.059912 761.010226 " transform="matrix(0.099625, 0, 0, -0.099625, 0.00000000000000222, 229.624237)"/>
<path fill="none" stroke-width="5" stroke-linecap="round" stroke-linejoin="round" stroke="rgb(0%, 0%, 0%)" stroke-opacity="1" stroke-miterlimit="10" d="M 1914.915307 700.235445 C 1914.915307 943.844291 1717.456085 1141.303513 1473.886449 1141.303513 C 1230.277604 1141.303513 1032.818381 943.844291 1032.818381 700.235445 C 1032.818381 456.665809 1230.277604 259.206587 1473.886449 259.206587 C 1717.456085 259.206587 1914.915307 456.665809 1914.915307 700.235445 C 1914.915307 714.939021 1914.170326 729.642597 1912.719573 744.267754 " transform="matrix(0.099625, 0, 0, -0.099625, 0.00000000000000222, 229.624237)"/>
<path fill="none" stroke-width="5" stroke-linecap="round" stroke-linejoin="round" stroke="rgb(0%, 0%, 0%)" stroke-opacity="1" stroke-miterlimit="10" d="M 1955.065872 682.277478 C 1955.065872 939.178356 1746.824028 1147.420201 1489.923149 1147.420201 C 1233.022271 1147.420201 1024.780427 939.178356 1024.780427 682.277478 C 1024.780427 425.3766 1233.022271 217.134755 1489.923149 217.134755 C 1746.824028 217.134755 1955.065872 425.3766 1955.065872 682.277478 C 1955.065872 697.804454 1954.281681 713.292221 1952.752509 728.740778 " transform="matrix(0.099625, 0, 0, -0.099625, 0.00000000000000222, 229.624237)"/>
<path fill="none" stroke-width="5" stroke-linecap="round" stroke-linejoin="round" stroke="rgb(0%, 0%, 0%)" stroke-opacity="1" stroke-miterlimit="10" d="M 1990.432873 665.927102 C 1990.432873 934.66926 1772.584693 1152.51744 1503.803325 1152.51744 C 1235.061167 1152.51744 1017.212986 934.66926 1017.212986 665.927102 C 1017.212986 397.145734 1235.061167 179.297553 1503.803325 179.297553 C 1772.584693 179.297553 1990.432873 397.145734 1990.432873 665.927102 C 1990.432873 682.12064 1989.648683 698.353388 1988.001882 714.507716 " transform="matrix(0.099625, 0, 0, -0.099625, 0.00000000000000222, 229.624237)"/>
<path fill="none" stroke-width="5" stroke-linecap="round" stroke-linejoin="round" stroke="rgb(0%, 0%, 0%)" stroke-opacity="1" stroke-miterlimit="10" d="M 2020.937892 651.341154 C 2020.937892 930.43463 1794.698871 1156.712861 1515.605395 1156.712861 C 1236.47271 1156.712861 1010.233689 930.43463 1010.233689 651.341154 C 1010.233689 372.247679 1236.47271 145.969448 1515.605395 145.969448 C 1794.698871 145.969448 2020.937892 372.247679 2020.937892 651.341154 C 2020.937892 668.201255 2020.114492 685.022146 2018.428482 701.803827 " transform="matrix(0.099625, 0, 0, -0.099625, 0.00000000000000222, 229.624237)"/>
<path fill="none" stroke-width="5" stroke-linecap="round" stroke-linejoin="round" stroke="rgb(0%, 0%, 0%)" stroke-opacity="1" stroke-miterlimit="10" d="M 2046.541719 638.715684 C 2046.541719 926.592095 1813.166562 1159.967252 1525.250941 1159.967252 C 1237.374529 1159.967252 1003.999373 926.592095 1003.999373 638.715684 C 1003.999373 350.839272 1237.374529 117.464115 1525.250941 117.464115 C 1813.166562 117.464115 2046.541719 350.839272 2046.541719 638.715684 C 2046.541719 656.085508 2045.679109 673.455332 2043.91468 690.746738 " transform="matrix(0.099625, 0, 0, -0.099625, 0.00000000000000222, 229.624237)"/>
<path fill="none" stroke-width="5" stroke-linecap="round" stroke-linejoin="round" stroke="rgb(0%, 0%, 0%)" stroke-opacity="1" stroke-miterlimit="10" d="M 2067.126725 628.246738 C 2067.126725 923.298494 1827.948557 1162.476662 1532.896801 1162.476662 C 1237.845044 1162.476662 998.666876 923.298494 998.666876 628.246738 C 998.666876 333.194981 1237.845044 94.016813 1532.896801 94.016813 C 1827.948557 94.016813 2067.126725 333.194981 2067.126725 628.246738 C 2067.126725 646.047867 2066.264115 663.848996 2064.460477 681.571706 " transform="matrix(0.099625, 0, 0, -0.099625, 0.00000000000000222, 229.624237)"/>
<path fill="none" stroke-width="5" stroke-linecap="round" stroke-linejoin="round" stroke="rgb(0%, 0%, 0%)" stroke-opacity="1" stroke-miterlimit="10" d="M 2082.77133 620.051945 C 2082.77133 920.593036 1839.123275 1164.241092 1538.582183 1164.241092 C 1238.001882 1164.241092 994.353827 920.593036 994.353827 620.051945 C 994.353827 319.471644 1238.001882 75.862798 1538.582183 75.862798 C 1839.123275 75.862798 2082.77133 319.471644 2082.77133 620.051945 C 2082.77133 638.16675 2081.869511 656.320765 2080.065872 674.357152 " transform="matrix(0.099625, 0, 0, -0.099625, 0.00000000000000222, 229.624237)"/>
<path fill="none" stroke-width="5" stroke-linecap="round" stroke-linejoin="round" stroke="rgb(0%, 0%, 0%)" stroke-opacity="1" stroke-miterlimit="10" d="M 2093.475533 614.288143 C 2093.475533 918.63256 1846.729925 1165.378168 1542.346299 1165.378168 C 1238.001882 1165.378168 991.256274 918.63256 991.256274 614.288143 C 991.256274 309.904517 1238.001882 63.158908 1542.346299 63.158908 C 1846.729925 63.158908 2093.475533 309.904517 2093.475533 614.288143 C 2093.475533 632.638206 2092.534504 651.027478 2090.691656 669.299122 " transform="matrix(0.099625, 0, 0, -0.099625, 0.00000000000000222, 229.624237)"/>
<path fill="none" stroke-width="5" stroke-linecap="round" stroke-linejoin="round" stroke="rgb(0%, 0%, 0%)" stroke-opacity="1" stroke-miterlimit="10" d="M 2099.278545 611.033752 C 2099.278545 917.534693 1850.846926 1165.966311 1544.385194 1165.966311 C 1237.923463 1165.966311 989.452635 917.534693 989.452635 611.033752 C 989.452635 304.57202 1237.923463 56.140402 1544.385194 56.140402 C 1850.846926 56.140402 2099.278545 304.57202 2099.278545 611.033752 C 2099.278545 629.540652 2098.376725 648.047553 2096.533877 666.436826 " transform="matrix(0.099625, 0, 0, -0.099625, 0.00000000000000222, 229.624237)"/>
<path fill="none" stroke-width="5" stroke-linecap="round" stroke-linejoin="round" stroke="rgb(0%, 0%, 0%)" stroke-opacity="1" stroke-miterlimit="10" d="M 2100.337202 610.445609 C 2100.337202 917.299435 1851.552698 1166.04473 1544.73808 1166.04473 C 1237.884253 1166.04473 989.138959 917.299435 989.138959 610.445609 C 989.138959 303.591782 1237.884253 54.846487 1544.73808 54.846487 C 1851.552698 54.846487 2100.337202 303.591782 2100.337202 610.445609 C 2100.337202 628.952509 2099.396173 647.49862 2097.553325 665.927102 " transform="matrix(0.099625, 0, 0, -0.099625, 0.00000000000000222, 229.624237)"/>
<path fill="none" stroke-width="5" stroke-linecap="round" stroke-linejoin="round" stroke="rgb(0%, 0%, 0%)" stroke-opacity="1" stroke-miterlimit="10" d="M 2096.729925 612.562923 C 2096.729925 918.083626 1849.043287 1165.731054 1543.561794 1165.731054 C 1238.041092 1165.731054 990.393664 918.083626 990.393664 612.562923 C 990.393664 307.08143 1238.041092 59.394793 1543.561794 59.394793 C 1849.043287 59.394793 2096.729925 307.08143 2096.729925 612.562923 C 2096.729925 631.030615 2095.788896 649.459097 2093.946048 667.809159 " transform="matrix(0.099625, 0, 0, -0.099625, 0.00000000000000222, 229.624237)"/>
<path fill="none" stroke-width="5" stroke-linecap="round" stroke-linejoin="round" stroke="rgb(0%, 0%, 0%)" stroke-opacity="1" stroke-miterlimit="10" d="M 2088.613551 617.503325 C 2088.613551 919.926474 1843.436324 1165.103701 1541.013174 1165.103701 C 1238.550816 1165.103701 993.373588 919.926474 993.373588 617.503325 C 993.373588 315.080176 1238.550816 69.863739 1541.013174 69.863739 C 1843.436324 69.863739 2088.613551 315.080176 2088.613551 617.503325 C 2088.613551 635.774969 2087.711731 654.007403 2085.868883 672.161418 " transform="matrix(0.099625, 0, 0, -0.099625, 0.00000000000000222, 229.624237)"/>
<path fill="none" stroke-width="5" stroke-linecap="round" stroke-linejoin="round" stroke="rgb(0%, 0%, 0%)" stroke-opacity="1" stroke-miterlimit="10" d="M 2076.184128 625.266813 C 2076.184128 922.945609 1834.888645 1164.241092 1537.209849 1164.241092 C 1239.531054 1164.241092 998.235571 922.945609 998.235571 625.266813 C 998.235571 327.588018 1239.531054 86.292535 1537.209849 86.292535 C 1834.888645 86.292535 2076.184128 327.588018 2076.184128 625.266813 C 2076.184128 643.22478 2075.282309 661.221957 2073.51788 679.101506 " transform="matrix(0.099625, 0, 0, -0.099625, 0.00000000000000222, 229.624237)"/>
<path fill="none" stroke-width="5" stroke-linecap="round" stroke-linejoin="round" stroke="rgb(0%, 0%, 0%)" stroke-opacity="1" stroke-miterlimit="10" d="M 2059.716123 635.892597 C 2059.716123 927.101819 1823.596299 1163.182434 1532.387077 1163.182434 C 1241.138645 1163.182434 1005.05803 927.101819 1005.05803 635.892597 C 1005.05803 344.644166 1241.138645 108.563551 1532.387077 108.563551 C 1823.596299 108.563551 2059.716123 344.644166 2059.716123 635.892597 C 2059.716123 653.458469 2058.814304 671.024341 2057.089084 688.511794 " transform="matrix(0.099625, 0, 0, -0.099625, 0.00000000000000222, 229.624237)"/>
<path fill="none" stroke-width="5" stroke-linecap="round" stroke-linejoin="round" stroke="rgb(0%, 0%, 0%)" stroke-opacity="1" stroke-miterlimit="10" d="M 2039.327164 649.302258 C 2039.327164 932.434316 1809.794542 1162.006148 1526.623275 1162.006148 C 1243.452008 1162.006148 1013.919385 932.434316 1013.919385 649.302258 C 1013.919385 366.130991 1243.452008 136.598369 1526.623275 136.598369 C 1809.794542 136.598369 2039.327164 366.130991 2039.327164 649.302258 C 2039.327164 666.397616 2038.464555 683.492974 2036.778545 700.470703 " transform="matrix(0.099625, 0, 0, -0.099625, 0.00000000000000222, 229.624237)"/>
<path fill="none" stroke-width="5" stroke-linecap="round" stroke-linejoin="round" stroke="rgb(0%, 0%, 0%)" stroke-opacity="1" stroke-miterlimit="10" d="M 2015.370138 665.574216 C 2015.370138 939.060728 1793.679423 1160.751443 1520.153701 1160.751443 C 1246.667189 1160.751443 1024.976474 939.060728 1024.976474 665.574216 C 1024.976474 392.087704 1246.667189 170.357779 1520.153701 170.357779 C 1793.679423 170.357779 2015.370138 392.087704 2015.370138 665.574216 C 2015.370138 682.08143 2014.546738 698.588645 2012.899937 715.01744 " transform="matrix(0.099625, 0, 0, -0.099625, 0.00000000000000222, 229.624237)"/>
<path fill="none" stroke-width="5" stroke-linecap="round" stroke-linejoin="round" stroke="rgb(0%, 0%, 0%)" stroke-opacity="1" stroke-miterlimit="10" d="M 1988.041092 684.590841 C 1988.041092 946.902635 1775.407779 1159.535947 1513.135194 1159.535947 C 1250.86261 1159.535947 1038.229297 946.902635 1038.229297 684.590841 C 1038.229297 422.318256 1250.86261 209.684944 1513.135194 209.684944 C 1775.407779 209.684944 1988.041092 422.318256 1988.041092 684.590841 C 1988.041092 700.431493 1987.256901 716.272146 1985.688519 732.034379 " transform="matrix(0.099625, 0, 0, -0.099625, 0.00000000000000222, 229.624237)"/>
<path fill="none" stroke-width="5" stroke-linecap="round" stroke-linejoin="round" stroke="rgb(0%, 0%, 0%)" stroke-opacity="1" stroke-miterlimit="10" d="M 1957.653701 706.352133 C 1957.653701 955.960038 1755.332497 1158.281242 1505.724592 1158.281242 C 1256.116688 1158.281242 1053.756274 955.960038 1053.756274 706.352133 C 1053.756274 456.744228 1256.116688 254.383814 1505.724592 254.383814 C 1755.332497 254.383814 1957.653701 456.744228 1957.653701 706.352133 C 1957.653701 721.408595 1956.90872 736.465056 1955.418758 751.443099 " transform="matrix(0.099625, 0, 0, -0.099625, 0.00000000000000222, 229.624237)"/>
<path fill="none" stroke-width="5" stroke-linecap="round" stroke-linejoin="round" stroke="rgb(0%, 0%, 0%)" stroke-opacity="1" stroke-miterlimit="10" d="M 1924.560853 730.662045 C 1924.560853 966.193726 1733.610414 1157.104956 1498.117942 1157.104956 C 1262.586261 1157.104956 1071.635822 966.193726 1071.635822 730.662045 C 1071.635822 495.130364 1262.586261 304.179925 1498.117942 304.179925 C 1733.610414 304.179925 1924.560853 495.130364 1924.560853 730.662045 C 1924.560853 744.855897 1923.855082 759.088959 1922.443538 773.243601 " transform="matrix(0.099625, 0, 0, -0.099625, 0.00000000000000222, 229.624237)"/>
<path fill="none" stroke-width="5" stroke-linecap="round" stroke-linejoin="round" stroke="rgb(0%, 0%, 0%)" stroke-opacity="1" stroke-miterlimit="10" d="M 1888.958595 757.481368 C 1888.958595 977.603701 1710.515997 1156.046299 1490.393664 1156.046299 C 1270.31054 1156.046299 1091.867942 977.603701 1091.867942 757.481368 C 1091.867942 537.359034 1270.31054 358.916437 1490.393664 358.916437 C 1710.515997 358.916437 1888.958595 537.359034 1888.958595 757.481368 C 1888.958595 770.7734 1888.292033 784.065433 1886.998118 797.279046 " transform="matrix(0.099625, 0, 0, -0.099625, 0.00000000000000222, 229.624237)"/>
<path fill="none" stroke-width="5" stroke-linecap="round" stroke-linejoin="round" stroke="rgb(0%, 0%, 0%)" stroke-opacity="1" stroke-miterlimit="10" d="M 1851.239021 786.653262 C 1851.239021 990.111543 1686.323714 1155.06606 1482.826223 1155.06606 C 1279.367942 1155.06606 1114.413425 990.111543 1114.413425 786.653262 C 1114.413425 583.194981 1279.367942 418.240464 1482.826223 418.240464 C 1686.323714 418.240464 1851.239021 583.194981 1851.239021 786.653262 C 1851.239021 798.925847 1850.650878 811.237641 1849.396173 823.431807 " transform="matrix(0.099625, 0, 0, -0.099625, 0.00000000000000222, 229.624237)"/>
<path fill="none" stroke-width="5" stroke-linecap="round" stroke-linejoin="round" stroke="rgb(0%, 0%, 0%)" stroke-opacity="1" stroke-miterlimit="10" d="M 1811.715809 818.020891 C 1811.715809 1003.717252 1661.190402 1154.24266 1475.53325 1154.24266 C 1289.836888 1154.24266 1139.311481 1003.717252 1139.311481 818.020891 C 1139.311481 632.363739 1289.836888 481.838331 1475.53325 481.838331 C 1661.190402 481.838331 1811.715809 632.363739 1811.715809 818.020891 C 1811.715809 829.234818 1811.166876 840.448745 1810.069009 851.584253 " transform="matrix(0.099625, 0, 0, -0.099625, 0.00000000000000222, 229.624237)"/>
<path fill="none" stroke-width="5" stroke-linecap="round" stroke-linejoin="round" stroke="rgb(0%, 0%, 0%)" stroke-opacity="1" stroke-miterlimit="10" d="M 1770.741844 851.427415 C 1770.741844 1018.26399 1635.468946 1153.536888 1468.632371 1153.536888 C 1301.756587 1153.536888 1166.483689 1018.26399 1166.483689 851.427415 C 1166.483689 684.551631 1301.756587 549.278733 1468.632371 549.278733 C 1635.468946 549.278733 1770.741844 684.551631 1770.741844 851.427415 C 1770.741844 861.504266 1770.23212 871.581117 1769.212673 881.579548 " transform="matrix(0.099625, 0, 0, -0.099625, 0.00000000000000222, 229.624237)"/>
<path fill="none" stroke-width="5" stroke-linecap="round" stroke-linejoin="round" stroke="rgb(0%, 0%, 0%)" stroke-opacity="1" stroke-miterlimit="10" d="M 1728.552384 886.637578 C 1728.552384 1033.712547 1609.316186 1152.948745 1462.241217 1152.948745 C 1315.166248 1152.948745 1195.93005 1033.712547 1195.93005 886.637578 C 1195.93005 739.56261 1315.166248 620.326412 1462.241217 620.326412 C 1609.316186 620.326412 1728.552384 739.56261 1728.552384 886.637578 C 1728.552384 895.538143 1728.121079 904.399498 1727.258469 913.221644 " transform="matrix(0.099625, 0, 0, -0.099625, 0.00000000000000222, 229.624237)"/>
<path fill="none" stroke-width="5" stroke-linecap="round" stroke-linejoin="round" stroke="rgb(0%, 0%, 0%)" stroke-opacity="1" stroke-miterlimit="10" d="M 1685.539523 923.494542 C 1685.539523 1049.984504 1583.006587 1152.51744 1456.516625 1152.51744 C 1330.065872 1152.51744 1227.532936 1049.984504 1227.532936 923.494542 C 1227.532936 797.00458 1330.065872 694.471644 1456.516625 694.471644 C 1583.006587 694.471644 1685.539523 797.00458 1685.539523 923.494542 C 1685.539523 931.140402 1685.147428 938.747051 1684.402447 946.353701 " transform="matrix(0.099625, 0, 0, -0.099625, 0.00000000000000222, 229.624237)"/>
<path fill="none" stroke-width="5" stroke-linecap="round" stroke-linejoin="round" stroke="rgb(0%, 0%, 0%)" stroke-opacity="1" stroke-miterlimit="10" d="M 1641.977729 961.763049 C 1641.977729 1066.923024 1556.736198 1152.203764 1451.576223 1152.203764 C 1346.377039 1152.203764 1261.135508 1066.923024 1261.135508 961.763049 C 1261.135508 856.563864 1346.377039 771.322334 1451.576223 771.322334 C 1556.736198 771.322334 1641.977729 856.563864 1641.977729 961.763049 C 1641.977729 968.114994 1641.664053 974.466939 1641.0367 980.779674 " transform="matrix(0.099625, 0, 0, -0.099625, 0.00000000000000222, 229.624237)"/>
<path fill="none" stroke-width="5" stroke-linecap="round" stroke-linejoin="round" stroke="rgb(0%, 0%, 0%)" stroke-opacity="1" stroke-miterlimit="10" d="M 1598.219887 1001.207842 C 1598.219887 1084.449686 1530.701066 1151.968507 1447.459222 1151.968507 C 1364.178168 1151.968507 1296.659348 1084.449686 1296.659348 1001.207842 C 1296.659348 917.926788 1364.178168 850.407967 1447.459222 850.407967 C 1530.701066 850.407967 1598.219887 917.926788 1598.219887 1001.207842 C 1598.219887 1006.226662 1597.98463 1011.245483 1597.474906 1016.225094 " transform="matrix(0.099625, 0, 0, -0.099625, 0.00000000000000222, 229.624237)"/>
<path fill="none" stroke-width="5" stroke-linecap="round" stroke-linejoin="round" stroke="rgb(0%, 0%, 0%)" stroke-opacity="1" stroke-miterlimit="10" d="M 1554.540464 1041.554454 C 1554.540464 1102.446863 1505.136449 1151.850878 1444.24404 1151.850878 C 1383.312422 1151.850878 1333.947616 1102.446863 1333.947616 1041.554454 C 1333.947616 980.662045 1383.312422 931.25803 1444.24404 931.25803 C 1505.136449 931.25803 1554.540464 980.662045 1554.540464 1041.554454 C 1554.540464 1045.240151 1554.344417 1048.925847 1553.991531 1052.572334 " transform="matrix(0.099625, 0, 0, -0.099625, 0.00000000000000222, 229.624237)"/>
<path fill="none" stroke-width="5" stroke-linecap="round" stroke-linejoin="round" stroke="rgb(0%, 0%, 0%)" stroke-opacity="1" stroke-miterlimit="10" d="M 1511.174718 1082.646048 C 1511.174718 1120.796926 1480.199184 1151.772459 1442.048306 1151.772459 C 1403.858218 1151.772459 1372.882685 1120.796926 1372.882685 1082.646048 C 1372.882685 1044.45596 1403.858218 1013.480427 1442.048306 1013.480427 C 1480.199184 1013.480427 1511.174718 1044.45596 1511.174718 1082.646048 C 1511.174718 1084.920201 1511.057089 1087.233563 1510.821832 1089.546926 " transform="matrix(0.099625, 0, 0, -0.099625, 0.00000000000000222, 229.624237)"/>
<path fill="none" stroke-width="5" stroke-linecap="round" stroke-linejoin="round" stroke="rgb(0%, 0%, 0%)" stroke-opacity="1" stroke-miterlimit="10" d="M 1468.475533 1124.090527 C 1468.475533 1139.382246 1456.08532 1151.772459 1440.832811 1151.772459 C 1425.541092 1151.772459 1413.190088 1139.382246 1413.190088 1124.090527 C 1413.190088 1108.838018 1425.541092 1096.447804 1440.832811 1096.447804 C 1456.08532 1096.447804 1468.475533 1108.838018 1468.475533 1124.090527 C 1468.475533 1125.031556 1468.436324 1125.933375 1468.318695 1126.874404 " transform="matrix(0.099625, 0, 0, -0.099625, 0.00000000000000222, 229.624237)"/>
<path fill="none" stroke-width="21.5157" stroke-linecap="round" stroke-linejoin="round" stroke="rgb(100%, 0%, 0%)" stroke-opacity="1" stroke-miterlimit="10" d="M 1440.597553 1151.772459 L 1439.852572 1151.772459 L 1439.382058 1151.811669 L 1438.793915 1151.811669 L 1437.382371 1151.890088 L 1435.539523 1152.046926 L 1433.422208 1152.203764 L 1427.266311 1152.909536 L 1419.189147 1154.085822 L 1410.249373 1155.693413 L 1385.468946 1161.535634 L 1359.590652 1169.495169 L 1328.183814 1181.454078 L 1263.135194 1214.115621 L 1205.536386 1253.129109 L 1159.386763 1294.063864 L 1134.410289 1322.882873 L 1129.430678 1329.979799 L 1128.215182 1331.901066 L 1128.058344 1332.097114 L 1128.019134 1332.214743 L 1128.019134 1332.175533 L 1128.685696 1330.960038 L 1130.175659 1328.019322 L 1135.15527 1316.530928 L 1141.311167 1299.278733 L 1147.427854 1278.38005 L 1153.505332 1251.207842 L 1156.28921 1235.28877 L 1158.75941 1217.56606 L 1160.523839 1201.019636 L 1161.30803 1191.530928 L 1161.856964 1182.826412 L 1162.249059 1174.631619 L 1162.445107 1169.965684 L 1162.562735 1165.652635 L 1162.641154 1161.888519 L 1162.680364 1159.731995 L 1162.680364 1157.732309 L 1162.719573 1155.614994 L 1162.719573 1151.458783 " transform="matrix(0.099625, 0, 0, -0.099625, 0.00000000000000222, 229.624237)"/>
<path fill="none" stroke-width="21.5157" stroke-linecap="round" stroke-linejoin="round" stroke="rgb(100%, 0%, 0%)" stroke-opacity="1" stroke-miterlimit="10" d="M 1162.719573 1151.458783 L 1162.719573 1147.028105 L 1162.680364 1145.734191 L 1162.680364 1144.557905 L 1162.641154 1142.40138 L 1162.601945 1140.088018 L 1162.523526 1136.127854 L 1162.366688 1131.736386 L 1161.935383 1122.16926 L 1161.386449 1113.268695 L 1160.053325 1097.545671 L 1158.171267 1081.234504 L 1155.701066 1064.531242 L 1152.564304 1047.475094 L 1146.055521 1020.146048 L 1139.429109 998.580803 L 1133.234003 982.308846 L 1129.23463 973.643538 L 1128.293601 971.879109 L 1128.058344 971.408595 L 1128.019134 971.290966 L 1128.019134 971.330176 L 1128.058344 971.408595 L 1128.175972 971.526223 L 1128.489649 972.114366 L 1129.979611 974.427729 L 1136.723651 983.64197 L 1163.85665 1013.950941 L 1207.300816 1051.788143 L 1267.252196 1091.78187 L 1329.516939 1122.600565 L 1361.51192 1134.677102 L 1388.52729 1142.793476 L 1410.759097 1147.929925 L 1426.286073 1150.517754 L 1432.285132 1151.223526 L 1436.441343 1151.576412 L 1438.205772 1151.654831 L 1439.382058 1151.73325 L 1439.852572 1151.772459 L 1440.597553 1151.772459 " transform="matrix(0.099625, 0, 0, -0.099625, 0.00000000000000222, 229.624237)"/>
</svg>
