<?xml version="1.0" encoding="UTF-8"?>
<svg xmlns="http://www.w3.org/2000/svg" xmlns:xlink="http://www.w3.org/1999/xlink" width="463" height="74" viewBox="0 0 463 74">
<path fill="none" stroke-width="4.06896" stroke-linecap="round" stroke-linejoin="round" stroke="rgb(0%, 0%, 0%)" stroke-opacity="1" stroke-miterlimit="10" d="M 152.148438 34.414062 L 539.6875 34.414062 L 733.4375 370 L 345.898438 370 L 152.148438 705.585938 L 927.1875 705.585938 L 1120.9375 370 " transform="matrix(0.1, 0, 0, -0.1, 0, 74)"/>
<path fill="none" stroke-width="3.05173" stroke-linecap="round" stroke-linejoin="round" stroke="rgb(0%, 0%, 0%)" stroke-opacity="1" stroke-miterlimit="10" d="M 1585.976562 34.375 L 1682.851562 34.375 L 1731.289062 118.320312 L 1634.414062 118.320312 L 1585.976562 202.1875 L 1779.726562 202.1875 L 1828.164062 118.320312 L 1925.039062 118.320312 L 1973.515625 202.1875 L 2021.953125 286.09375 L 1925.039062 286.09375 L 1876.601562 202.1875 L 1828.164062 286.09375 L 1876.601562 370 L 1828.164062 453.90625 L 1634.414062 453.90625 L 1682.851562 370 L 1779.726562 370 L 1731.289062 286.09375 L 1634.414062 286.09375 L 1585.976562 370 L 1489.101562 370 L 1537.539062 286.09375 L 1489.101562 202.1875 L 1392.226562 370 L 1440.664062 453.90625 L 1537.539062 453.90625 L 1585.976562 537.8125 L 1489.101562 537.8125 L 1440.664062 621.71875 L 1634.414062 621.71875 L 1682.851562 537.8125 L 1779.726562 537.8125 L 1828.164062 621.71875 L 1731.289062 621.71875 L 1682.851562 705.625 L 1876.601562 705.625 L 1925.039062 621.71875 L 1876.601562 537.8125 L 1925.039062 453.90625 L 1973.515625 370 L 2021.953125 453.90625 L 1973.515625 537.8125 L 2070.390625 537.8125 L 2118.828125 453.90625 " transform="matrix(0.1, 0, 0, -0.1, 0, 74)"/>
<path fill="none" stroke-width="2.71265" stroke-linecap="round" stroke-linejoin="round" stroke="rgb(0%, 0%, 0%)" stroke-opacity="1" stroke-miterlimit="10" d="M 2858.359375 34.414062 L 2890.625 34.414062 L 2906.796875 62.382812 L 2874.492188 62.382812 L 2858.359375 90.3125 L 2922.929688 90.3125 L 2939.0625 62.382812 L 2971.367188 62.382812 L 2987.5 90.3125 L 3003.671875 118.320312 L 2971.367188 118.320312 L 2955.234375 90.3125 L 2939.0625 118.320312 L 2955.234375 146.25 L 2939.0625 174.21875 L 2874.492188 174.21875 L 2890.625 146.25 L 2922.929688 146.25 L 2906.796875 118.320312 L 2874.492188 118.320312 L 2858.359375 146.25 L 2826.054688 146.25 L 2842.1875 118.320312 L 2826.054688 90.3125 L 2809.882812 118.320312 L 2793.75 146.25 L 2809.882812 174.21875 L 2842.1875 174.21875 L 2858.359375 202.1875 L 2826.054688 202.1875 L 2809.882812 230.15625 L 2874.492188 230.15625 L 2890.625 202.1875 L 2922.929688 202.1875 L 2939.0625 230.15625 L 2906.796875 230.15625 L 2890.625 258.125 L 2955.234375 258.125 L 2971.367188 230.15625 L 2955.234375 202.1875 L 2987.5 146.25 L 3003.671875 174.21875 L 2987.5 202.1875 L 3019.804688 202.1875 L 3035.9375 174.21875 " transform="matrix(0.1, 0, 0, -0.1, 0, 74)"/>
<path fill="none" stroke-width="2.71265" stroke-linecap="round" stroke-linejoin="round" stroke="rgb(0%, 0%, 0%)" stroke-opacity="1" stroke-miterlimit="10" d="M 3035.9375 174.21875 L 3068.242188 174.21875 L 3084.375 202.1875 L 3052.109375 202.1875 L 3035.9375 230.15625 L 3100.546875 230.15625 L 3116.679688 202.1875 L 3148.984375 202.1875 L 3165.117188 230.15625 L 3181.289062 258.125 L 3148.984375 258.125 L 3132.8125 230.15625 L 3116.679688 258.125 L 3132.8125 286.09375 L 3165.117188 286.09375 L 3181.289062 314.0625 L 3197.421875 342.03125 L 3165.117188 342.03125 L 3148.984375 314.0625 L 3132.8125 342.03125 L 3148.984375 370 L 3132.8125 397.96875 L 3068.242188 397.96875 L 3084.375 370 L 3116.679688 370 L 3100.546875 342.03125 L 3068.242188 342.03125 L 3052.109375 314.0625 L 3068.242188 286.09375 L 3084.375 314.0625 L 3116.679688 314.0625 L 3100.546875 286.09375 L 3084.375 258.125 L 3052.109375 258.125 L 3035.9375 286.09375 L 3003.671875 286.09375 L 3019.804688 258.125 L 3003.671875 230.15625 L 2987.5 258.125 L 2971.367188 286.09375 L 2987.5 314.0625 L 3019.804688 314.0625 L 3035.9375 342.03125 L 3052.109375 370 L 3019.804688 370 L 3003.671875 342.03125 L 2987.5 370 L 3003.671875 397.96875 L 2987.5 425.9375 " transform="matrix(0.1, 0, 0, -0.1, 0, 74)"/>
<path fill="none" stroke-width="2.71265" stroke-linecap="round" stroke-linejoin="round" stroke="rgb(0%, 0%, 0%)" stroke-opacity="1" stroke-miterlimit="10" d="M 2987.5 425.9375 L 2955.234375 425.9375 L 2971.367188 397.96875 L 2955.234375 370 L 2939.0625 397.96875 L 2922.929688 425.9375 L 2939.0625 453.90625 L 2922.929688 481.875 L 2858.359375 481.875 L 2874.492188 453.90625 L 2906.796875 453.90625 L 2890.625 425.9375 L 2858.359375 425.9375 L 2842.1875 453.90625 L 2777.617188 453.90625 L 2793.75 425.9375 L 2826.054688 425.9375 L 2809.882812 397.96875 L 2777.617188 397.96875 L 2761.445312 370 L 2777.617188 342.03125 L 2793.75 314.0625 L 2809.882812 342.03125 L 2793.75 370 L 2826.054688 370 L 2842.1875 342.03125 L 2874.492188 342.03125 L 2890.625 370 L 2858.359375 370 L 2842.1875 397.96875 L 2906.796875 397.96875 L 2922.929688 370 L 2906.796875 342.03125 L 2922.929688 314.0625 L 2939.0625 342.03125 L 2971.367188 342.03125 L 2955.234375 314.0625 L 2939.0625 286.09375 L 2906.796875 286.09375 L 2890.625 314.0625 L 2826.054688 314.0625 L 2842.1875 286.09375 L 2874.492188 286.09375 L 2858.359375 258.125 L 2826.054688 258.125 L 2809.882812 286.09375 L 2777.617188 286.09375 " transform="matrix(0.1, 0, 0, -0.1, 0, 74)"/>
<path fill="none" stroke-width="2.71265" stroke-linecap="round" stroke-linejoin="round" stroke="rgb(0%, 0%, 0%)" stroke-opacity="1" stroke-miterlimit="10" d="M 2777.617188 286.09375 L 2793.75 258.125 L 2777.617188 230.15625 L 2761.445312 258.125 L 2745.3125 286.09375 L 2761.445312 314.0625 L 2745.3125 342.03125 L 2680.742188 342.03125 L 2696.875 314.0625 L 2729.140625 314.0625 L 2713.007812 286.09375 L 2680.742188 286.09375 L 2664.570312 258.125 L 2680.742188 230.15625 L 2696.875 202.1875 L 2713.007812 230.15625 L 2696.875 258.125 L 2729.140625 258.125 L 2745.3125 230.15625 L 2729.140625 202.1875 L 2745.3125 174.21875 L 2761.445312 202.1875 L 2793.75 202.1875 L 2777.617188 174.21875 L 2761.445312 146.25 L 2729.140625 146.25 L 2713.007812 174.21875 L 2680.742188 174.21875 L 2696.875 146.25 L 2680.742188 118.320312 L 2664.570312 146.25 L 2648.4375 174.21875 L 2664.570312 202.1875 L 2648.4375 230.15625 L 2616.132812 230.15625 L 2632.304688 202.1875 L 2616.132812 174.21875 L 2600 202.1875 L 2583.828125 230.15625 L 2600 258.125 L 2632.304688 258.125 L 2664.570312 314.0625 L 2632.304688 314.0625 L 2616.132812 286.09375 L 2600 314.0625 L 2616.132812 342.03125 L 2648.4375 342.03125 L 2664.570312 370 L 2632.304688 370 " transform="matrix(0.1, 0, 0, -0.1, 0, 74)"/>
<path fill="none" stroke-width="2.71265" stroke-linecap="round" stroke-linejoin="round" stroke="rgb(0%, 0%, 0%)" stroke-opacity="1" stroke-miterlimit="10" d="M 2632.304688 370 L 2616.132812 397.96875 L 2680.742188 397.96875 L 2696.875 370 L 2729.140625 370 L 2745.3125 397.96875 L 2761.445312 425.9375 L 2729.140625 425.9375 L 2713.007812 397.96875 L 2696.875 425.9375 L 2713.007812 453.90625 L 2696.875 481.875 L 2632.304688 481.875 L 2648.4375 453.90625 L 2680.742188 453.90625 L 2664.570312 425.9375 L 2632.304688 425.9375 L 2616.132812 453.90625 L 2583.828125 453.90625 L 2600 425.9375 L 2583.828125 397.96875 L 2551.5625 453.90625 L 2567.695312 481.875 L 2600 481.875 L 2616.132812 509.84375 L 2583.828125 509.84375 L 2567.695312 537.8125 L 2632.304688 537.8125 L 2648.4375 509.84375 L 2680.742188 509.84375 L 2696.875 537.8125 L 2664.570312 537.8125 L 2648.4375 565.78125 L 2713.007812 565.78125 L 2729.140625 537.8125 L 2713.007812 509.84375 L 2729.140625 481.875 L 2745.3125 453.90625 L 2761.445312 481.875 L 2745.3125 509.84375 L 2777.617188 509.84375 L 2793.75 481.875 L 2826.054688 481.875 L 2842.1875 509.84375 L 2809.882812 509.84375 L 2793.75 537.8125 " transform="matrix(0.1, 0, 0, -0.1, 0, 74)"/>
<path fill="none" stroke-width="2.71265" stroke-linecap="round" stroke-linejoin="round" stroke="rgb(0%, 0%, 0%)" stroke-opacity="1" stroke-miterlimit="10" d="M 2793.75 537.8125 L 2858.359375 537.8125 L 2874.492188 509.84375 L 2906.796875 509.84375 L 2939.0625 565.78125 L 2906.796875 565.78125 L 2890.625 537.8125 L 2874.492188 565.78125 L 2890.625 593.75 L 2874.492188 621.71875 L 2809.882812 621.71875 L 2826.054688 593.75 L 2858.359375 593.75 L 2842.1875 565.78125 L 2809.882812 565.78125 L 2793.75 593.75 L 2761.445312 593.75 L 2777.617188 565.78125 L 2761.445312 537.8125 L 2745.3125 565.78125 L 2729.140625 593.75 L 2745.3125 621.71875 L 2777.617188 621.71875 L 2793.75 649.6875 L 2761.445312 649.6875 L 2745.3125 677.65625 L 2809.882812 677.65625 L 2826.054688 649.6875 L 2858.359375 649.6875 L 2874.492188 677.65625 L 2842.1875 677.65625 L 2826.054688 705.625 L 2890.625 705.625 L 2906.796875 677.65625 L 2890.625 649.6875 L 2906.796875 621.71875 L 2922.929688 593.75 L 2939.0625 621.71875 L 2922.929688 649.6875 L 2955.234375 649.6875 L 2971.367188 621.71875 L 2955.234375 593.75 L 2971.367188 565.78125 L 2987.5 593.75 L 3019.804688 593.75 L 3003.671875 565.78125 " transform="matrix(0.1, 0, 0, -0.1, 0, 74)"/>
<path fill="none" stroke-width="2.71265" stroke-linecap="round" stroke-linejoin="round" stroke="rgb(0%, 0%, 0%)" stroke-opacity="1" stroke-miterlimit="10" d="M 3003.671875 565.78125 L 2987.5 537.8125 L 2955.234375 537.8125 L 2939.0625 509.84375 L 2955.234375 481.875 L 2971.367188 453.90625 L 2987.5 481.875 L 2971.367188 509.84375 L 3003.671875 509.84375 L 3019.804688 481.875 L 3003.671875 453.90625 L 3035.9375 397.96875 L 3052.109375 425.9375 L 3035.9375 453.90625 L 3068.242188 453.90625 L 3084.375 425.9375 L 3116.679688 425.9375 L 3132.8125 453.90625 L 3148.984375 481.875 L 3116.679688 481.875 L 3100.546875 453.90625 L 3084.375 481.875 L 3100.546875 509.84375 L 3084.375 537.8125 L 3052.109375 537.8125 L 3068.242188 509.84375 L 3052.109375 481.875 L 3035.9375 509.84375 L 3019.804688 537.8125 L 3035.9375 565.78125 L 3068.242188 565.78125 L 3084.375 593.75 L 3052.109375 593.75 L 3035.9375 621.71875 L 3100.546875 621.71875 L 3116.679688 593.75 L 3100.546875 565.78125 L 3132.8125 509.84375 L 3148.984375 537.8125 L 3132.8125 565.78125 L 3165.117188 565.78125 L 3181.289062 537.8125 " transform="matrix(0.1, 0, 0, -0.1, 0, 74)"/>
<path fill="none" stroke-width="2.99267" stroke-linecap="round" stroke-linejoin="round" stroke="rgb(0%, 0%, 0%)" stroke-opacity="1" stroke-miterlimit="10" d="M 4093.476562 34.414062 L 4105.976562 34.414062 L 4112.226562 45.234375 L 4099.726562 45.234375 L 4093.476562 56.054688 L 4118.4375 56.054688 L 4124.726562 45.234375 L 4137.226562 45.234375 L 4149.726562 66.875 L 4137.226562 66.875 L 4130.976562 56.054688 L 4124.726562 66.875 L 4130.976562 77.695312 L 4124.726562 88.515625 L 4099.726562 88.515625 L 4105.976562 77.695312 L 4118.4375 77.695312 L 4112.226562 66.875 L 4099.726562 66.875 L 4093.476562 77.695312 L 4080.976562 77.695312 L 4087.1875 66.875 L 4080.976562 56.054688 L 4074.6875 66.875 L 4068.4375 77.695312 L 4074.6875 88.515625 L 4087.1875 88.515625 L 4093.476562 99.375 L 4080.976562 99.375 L 4074.6875 110.195312 L 4099.726562 110.195312 L 4105.976562 99.375 L 4118.4375 99.375 L 4124.726562 110.195312 L 4112.226562 110.195312 L 4105.976562 121.015625 L 4130.976562 121.015625 L 4137.226562 110.195312 L 4130.976562 99.375 L 4137.226562 88.515625 L 4143.476562 77.695312 L 4149.726562 88.515625 L 4143.476562 99.375 L 4155.976562 99.375 L 4162.226562 88.515625 " transform="matrix(0.1, 0, 0, -0.1, 0, 74)"/>
<path fill="none" stroke-width="2.99267" stroke-linecap="round" stroke-linejoin="round" stroke="rgb(0%, 0%, 0%)" stroke-opacity="1" stroke-miterlimit="10" d="M 4162.226562 88.515625 L 4174.726562 88.515625 L 4180.976562 99.375 L 4168.476562 99.375 L 4162.226562 110.195312 L 4187.226562 110.195312 L 4193.476562 99.375 L 4205.976562 99.375 L 4218.476562 121.015625 L 4205.976562 121.015625 L 4199.726562 110.195312 L 4193.476562 121.015625 L 4199.726562 131.835938 L 4212.226562 131.835938 L 4224.726562 153.476562 L 4212.226562 153.476562 L 4205.976562 142.65625 L 4199.726562 153.476562 L 4205.976562 164.296875 L 4199.726562 175.15625 L 4174.726562 175.15625 L 4180.976562 164.296875 L 4193.476562 164.296875 L 4187.226562 153.476562 L 4174.726562 153.476562 L 4168.476562 142.65625 L 4174.726562 131.835938 L 4180.976562 142.65625 L 4193.476562 142.65625 L 4180.976562 121.015625 L 4168.476562 121.015625 L 4162.226562 131.835938 L 4149.726562 131.835938 L 4155.976562 121.015625 L 4149.726562 110.195312 L 4137.226562 131.835938 L 4143.476562 142.65625 L 4155.976562 142.65625 L 4168.476562 164.296875 L 4155.976562 164.296875 L 4149.726562 153.476562 L 4143.476562 164.296875 L 4149.726562 175.15625 L 4143.476562 185.976562 " transform="matrix(0.1, 0, 0, -0.1, 0, 74)"/>
<path fill="none" stroke-width="2.99267" stroke-linecap="round" stroke-linejoin="round" stroke="rgb(0%, 0%, 0%)" stroke-opacity="1" stroke-miterlimit="10" d="M 4143.476562 185.976562 L 4130.976562 185.976562 L 4137.226562 175.15625 L 4130.976562 164.296875 L 4124.726562 175.15625 L 4118.4375 185.976562 L 4124.726562 196.796875 L 4118.4375 207.617188 L 4093.476562 207.617188 L 4099.726562 196.796875 L 4112.226562 196.796875 L 4105.976562 185.976562 L 4093.476562 185.976562 L 4087.1875 196.796875 L 4062.226562 196.796875 L 4068.4375 185.976562 L 4080.976562 185.976562 L 4074.6875 175.15625 L 4062.226562 175.15625 L 4055.9375 164.296875 L 4062.226562 153.476562 L 4068.4375 142.65625 L 4074.6875 153.476562 L 4068.4375 164.296875 L 4080.976562 164.296875 L 4087.1875 153.476562 L 4099.726562 153.476562 L 4105.976562 164.296875 L 4093.476562 164.296875 L 4087.1875 175.15625 L 4112.226562 175.15625 L 4118.4375 164.296875 L 4112.226562 153.476562 L 4118.4375 142.65625 L 4124.726562 153.476562 L 4137.226562 153.476562 L 4124.726562 131.835938 L 4112.226562 131.835938 L 4105.976562 142.65625 L 4080.976562 142.65625 L 4087.1875 131.835938 L 4099.726562 131.835938 L 4093.476562 121.015625 L 4080.976562 121.015625 L 4074.6875 131.835938 L 4062.226562 131.835938 " transform="matrix(0.1, 0, 0, -0.1, 0, 74)"/>
<path fill="none" stroke-width="2.99267" stroke-linecap="round" stroke-linejoin="round" stroke="rgb(0%, 0%, 0%)" stroke-opacity="1" stroke-miterlimit="10" d="M 4062.226562 131.835938 L 4068.4375 121.015625 L 4062.226562 110.195312 L 4055.9375 121.015625 L 4049.726562 131.835938 L 4055.9375 142.65625 L 4049.726562 153.476562 L 4024.6875 153.476562 L 4030.976562 142.65625 L 4043.4375 142.65625 L 4037.1875 131.835938 L 4024.6875 131.835938 L 4018.4375 121.015625 L 4024.6875 110.195312 L 4030.976562 99.375 L 4037.1875 110.195312 L 4030.976562 121.015625 L 4043.4375 121.015625 L 4049.726562 110.195312 L 4043.4375 99.375 L 4049.726562 88.515625 L 4055.9375 99.375 L 4068.4375 99.375 L 4062.226562 88.515625 L 4055.9375 77.695312 L 4043.4375 77.695312 L 4037.1875 88.515625 L 4024.6875 88.515625 L 4030.976562 77.695312 L 4024.6875 66.875 L 4012.1875 88.515625 L 4018.4375 99.375 L 4012.1875 110.195312 L 3999.6875 110.195312 L 4005.9375 99.375 L 3999.6875 88.515625 L 3993.4375 99.375 L 3987.1875 110.195312 L 3993.4375 121.015625 L 4005.9375 121.015625 L 4018.4375 142.65625 L 4005.9375 142.65625 L 3999.6875 131.835938 L 3993.4375 142.65625 L 3999.6875 153.476562 L 4012.1875 153.476562 L 4018.4375 164.296875 L 4005.9375 164.296875 " transform="matrix(0.1, 0, 0, -0.1, 0, 74)"/>
<path fill="none" stroke-width="2.99267" stroke-linecap="round" stroke-linejoin="round" stroke="rgb(0%, 0%, 0%)" stroke-opacity="1" stroke-miterlimit="10" d="M 4005.9375 164.296875 L 3999.6875 175.15625 L 4024.6875 175.15625 L 4030.976562 164.296875 L 4043.4375 164.296875 L 4049.726562 175.15625 L 4055.9375 185.976562 L 4043.4375 185.976562 L 4037.1875 175.15625 L 4030.976562 185.976562 L 4037.1875 196.796875 L 4030.976562 207.617188 L 4005.9375 207.617188 L 4012.1875 196.796875 L 4024.6875 196.796875 L 4018.4375 185.976562 L 4005.9375 185.976562 L 3999.6875 196.796875 L 3987.1875 196.796875 L 3993.4375 185.976562 L 3987.1875 175.15625 L 3974.6875 196.796875 L 3980.9375 207.617188 L 3993.4375 207.617188 L 3999.6875 218.4375 L 3987.1875 218.4375 L 3980.9375 229.257812 L 4005.9375 229.257812 L 4012.1875 218.4375 L 4024.6875 218.4375 L 4030.976562 229.257812 L 4018.4375 229.257812 L 4012.1875 240.078125 L 4037.1875 240.078125 L 4043.4375 229.257812 L 4037.1875 218.4375 L 4043.4375 207.617188 L 4049.726562 196.796875 L 4055.9375 207.617188 L 4049.726562 218.4375 L 4062.226562 218.4375 L 4068.4375 207.617188 L 4080.976562 207.617188 L 4087.1875 218.4375 L 4074.6875 218.4375 L 4068.4375 229.257812 " transform="matrix(0.1, 0, 0, -0.1, 0, 74)"/>
<path fill="none" stroke-width="2.99267" stroke-linecap="round" stroke-linejoin="round" stroke="rgb(0%, 0%, 0%)" stroke-opacity="1" stroke-miterlimit="10" d="M 4068.4375 229.257812 L 4093.476562 229.257812 L 4099.726562 218.4375 L 4112.226562 218.4375 L 4118.4375 229.257812 L 4124.726562 240.078125 L 4112.226562 240.078125 L 4105.976562 229.257812 L 4099.726562 240.078125 L 4105.976562 250.9375 L 4099.726562 261.757812 L 4074.6875 261.757812 L 4080.976562 250.9375 L 4093.476562 250.9375 L 4087.1875 240.078125 L 4074.6875 240.078125 L 4068.4375 250.9375 L 4055.9375 250.9375 L 4062.226562 240.078125 L 4055.9375 229.257812 L 4049.726562 240.078125 L 4043.4375 250.9375 L 4049.726562 261.757812 L 4062.226562 261.757812 L 4068.4375 272.578125 L 4055.9375 272.578125 L 4049.726562 283.398438 L 4074.6875 283.398438 L 4080.976562 272.578125 L 4093.476562 272.578125 L 4099.726562 283.398438 L 4087.1875 283.398438 L 4080.976562 294.21875 L 4105.976562 294.21875 L 4112.226562 283.398438 L 4105.976562 272.578125 L 4112.226562 261.757812 L 4118.4375 250.9375 L 4124.726562 261.757812 L 4118.4375 272.578125 L 4130.976562 272.578125 L 4137.226562 261.757812 L 4130.976562 250.9375 L 4137.226562 240.078125 L 4143.476562 250.9375 L 4155.976562 250.9375 L 4149.726562 240.078125 " transform="matrix(0.1, 0, 0, -0.1, 0, 74)"/>
<path fill="none" stroke-width="2.99267" stroke-linecap="round" stroke-linejoin="round" stroke="rgb(0%, 0%, 0%)" stroke-opacity="1" stroke-miterlimit="10" d="M 4149.726562 240.078125 L 4143.476562 229.257812 L 4130.976562 229.257812 L 4124.726562 218.4375 L 4137.226562 196.796875 L 4143.476562 207.617188 L 4137.226562 218.4375 L 4149.726562 218.4375 L 4155.976562 207.617188 L 4149.726562 196.796875 L 4162.226562 175.15625 L 4168.476562 185.976562 L 4162.226562 196.796875 L 4174.726562 196.796875 L 4180.976562 185.976562 L 4193.476562 185.976562 L 4205.976562 207.617188 L 4193.476562 207.617188 L 4187.226562 196.796875 L 4180.976562 207.617188 L 4187.226562 218.4375 L 4180.976562 229.257812 L 4168.476562 229.257812 L 4174.726562 218.4375 L 4168.476562 207.617188 L 4155.976562 229.257812 L 4162.226562 240.078125 L 4174.726562 240.078125 L 4180.976562 250.9375 L 4168.476562 250.9375 L 4162.226562 261.757812 L 4187.226562 261.757812 L 4193.476562 250.9375 L 4187.226562 240.078125 L 4199.726562 218.4375 L 4205.976562 229.257812 L 4199.726562 240.078125 L 4212.226562 240.078125 L 4218.476562 229.257812 L 4230.976562 229.257812 L 4237.226562 240.078125 L 4224.726562 240.078125 L 4218.476562 250.9375 L 4243.476562 250.9375 " transform="matrix(0.1, 0, 0, -0.1, 0, 74)"/>
<path fill="none" stroke-width="2.99267" stroke-linecap="round" stroke-linejoin="round" stroke="rgb(0%, 0%, 0%)" stroke-opacity="1" stroke-miterlimit="10" d="M 4243.476562 250.9375 L 4249.726562 240.078125 L 4262.226562 240.078125 L 4268.476562 250.9375 L 4274.726562 261.757812 L 4262.226562 261.757812 L 4255.976562 250.9375 L 4249.726562 261.757812 L 4255.976562 272.578125 L 4249.726562 283.398438 L 4224.726562 283.398438 L 4230.976562 272.578125 L 4243.476562 272.578125 L 4237.226562 261.757812 L 4224.726562 261.757812 L 4218.476562 272.578125 L 4205.976562 272.578125 L 4212.226562 261.757812 L 4205.976562 250.9375 L 4193.476562 272.578125 L 4199.726562 283.398438 L 4212.226562 283.398438 L 4218.476562 294.21875 L 4205.976562 294.21875 L 4199.726562 305.039062 L 4224.726562 305.039062 L 4230.976562 294.21875 L 4243.476562 294.21875 L 4249.726562 305.039062 L 4237.226562 305.039062 L 4230.976562 315.859375 L 4255.976562 315.859375 L 4262.226562 305.039062 L 4255.976562 294.21875 L 4268.476562 272.578125 L 4274.726562 283.398438 L 4268.476562 294.21875 L 4280.976562 294.21875 L 4287.226562 283.398438 L 4299.726562 283.398438 L 4305.976562 294.21875 L 4293.476562 294.21875 L 4287.226562 305.039062 L 4312.226562 305.039062 L 4318.476562 294.21875 " transform="matrix(0.1, 0, 0, -0.1, 0, 74)"/>
<path fill="none" stroke-width="2.99267" stroke-linecap="round" stroke-linejoin="round" stroke="rgb(0%, 0%, 0%)" stroke-opacity="1" stroke-miterlimit="10" d="M 4318.476562 294.21875 L 4330.976562 294.21875 L 4343.476562 315.859375 L 4330.976562 315.859375 L 4324.726562 305.039062 L 4318.476562 315.859375 L 4324.726562 326.71875 L 4337.226562 326.71875 L 4349.726562 348.359375 L 4337.226562 348.359375 L 4330.976562 337.539062 L 4324.726562 348.359375 L 4330.976562 359.179688 L 4324.726562 370 L 4299.726562 370 L 4305.976562 359.179688 L 4318.476562 359.179688 L 4312.226562 348.359375 L 4299.726562 348.359375 L 4293.476562 337.539062 L 4299.726562 326.71875 L 4305.976562 337.539062 L 4318.476562 337.539062 L 4312.226562 326.71875 L 4305.976562 315.859375 L 4293.476562 315.859375 L 4287.226562 326.71875 L 4274.726562 326.71875 L 4280.976562 315.859375 L 4274.726562 305.039062 L 4268.476562 315.859375 L 4262.226562 326.71875 L 4268.476562 337.539062 L 4280.976562 337.539062 L 4293.476562 359.179688 L 4280.976562 359.179688 L 4274.726562 348.359375 L 4268.476562 359.179688 L 4274.726562 370 L 4287.226562 370 L 4293.476562 380.820312 L 4280.976562 380.820312 L 4274.726562 391.640625 L 4299.726562 391.640625 L 4305.976562 380.820312 L 4318.476562 380.820312 " transform="matrix(0.1, 0, 0, -0.1, 0, 74)"/>
<path fill="none" stroke-width="2.99267" stroke-linecap="round" stroke-linejoin="round" stroke="rgb(0%, 0%, 0%)" stroke-opacity="1" stroke-miterlimit="10" d="M 4318.476562 380.820312 L 4324.726562 391.640625 L 4330.976562 402.5 L 4318.476562 402.5 L 4312.226562 391.640625 L 4305.976562 402.5 L 4312.226562 413.320312 L 4324.726562 413.320312 L 4337.226562 434.960938 L 4324.726562 434.960938 L 4318.476562 424.140625 L 4312.226562 434.960938 L 4318.476562 445.78125 L 4312.226562 456.601562 L 4287.226562 456.601562 L 4293.476562 445.78125 L 4305.976562 445.78125 L 4299.726562 434.960938 L 4287.226562 434.960938 L 4280.976562 424.140625 L 4287.226562 413.320312 L 4293.476562 424.140625 L 4305.976562 424.140625 L 4293.476562 402.5 L 4280.976562 402.5 L 4274.726562 413.320312 L 4262.226562 413.320312 L 4268.476562 402.5 L 4262.226562 391.640625 L 4255.976562 402.5 L 4249.726562 413.320312 L 4255.976562 424.140625 L 4268.476562 424.140625 L 4280.976562 445.78125 L 4268.476562 445.78125 L 4262.226562 434.960938 L 4255.976562 445.78125 L 4262.226562 456.601562 L 4255.976562 467.421875 L 4243.476562 467.421875 L 4249.726562 456.601562 L 4243.476562 445.78125 L 4230.976562 467.421875 L 4237.226562 478.28125 L 4230.976562 489.101562 L 4218.476562 489.101562 " transform="matrix(0.1, 0, 0, -0.1, 0, 74)"/>
<path fill="none" stroke-width="2.99267" stroke-linecap="round" stroke-linejoin="round" stroke="rgb(0%, 0%, 0%)" stroke-opacity="1" stroke-miterlimit="10" d="M 4218.476562 489.101562 L 4205.976562 489.101562 L 4212.226562 478.28125 L 4224.726562 478.28125 L 4218.476562 467.421875 L 4205.976562 467.421875 L 4199.726562 478.28125 L 4174.726562 478.28125 L 4180.976562 467.421875 L 4193.476562 467.421875 L 4187.226562 456.601562 L 4174.726562 456.601562 L 4168.476562 445.78125 L 4180.976562 424.140625 L 4187.226562 434.960938 L 4180.976562 445.78125 L 4193.476562 445.78125 L 4199.726562 434.960938 L 4212.226562 434.960938 L 4218.476562 445.78125 L 4205.976562 445.78125 L 4199.726562 456.601562 L 4224.726562 456.601562 L 4230.976562 445.78125 L 4224.726562 434.960938 L 4230.976562 424.140625 L 4237.226562 434.960938 L 4249.726562 434.960938 L 4237.226562 413.320312 L 4224.726562 413.320312 L 4218.476562 424.140625 L 4193.476562 424.140625 L 4199.726562 413.320312 L 4212.226562 413.320312 L 4205.976562 402.5 L 4193.476562 402.5 L 4187.226562 391.640625 L 4193.476562 380.820312 L 4199.726562 391.640625 L 4212.226562 391.640625 L 4199.726562 370 L 4187.226562 370 L 4180.976562 359.179688 L 4193.476562 337.539062 " transform="matrix(0.1, 0, 0, -0.1, 0, 74)"/>
<path fill="none" stroke-width="2.99267" stroke-linecap="round" stroke-linejoin="round" stroke="rgb(0%, 0%, 0%)" stroke-opacity="1" stroke-miterlimit="10" d="M 4193.476562 337.539062 L 4199.726562 348.359375 L 4193.476562 359.179688 L 4205.976562 359.179688 L 4212.226562 348.359375 L 4224.726562 348.359375 L 4237.226562 370 L 4224.726562 370 L 4218.476562 359.179688 L 4212.226562 370 L 4218.476562 380.820312 L 4230.976562 380.820312 L 4237.226562 391.640625 L 4224.726562 391.640625 L 4218.476562 402.5 L 4243.476562 402.5 L 4249.726562 391.640625 L 4243.476562 380.820312 L 4249.726562 370 L 4255.976562 380.820312 L 4268.476562 380.820312 L 4255.976562 359.179688 L 4243.476562 359.179688 L 4237.226562 348.359375 L 4243.476562 337.539062 L 4249.726562 348.359375 L 4262.226562 348.359375 L 4249.726562 326.71875 L 4237.226562 326.71875 L 4230.976562 337.539062 L 4205.976562 337.539062 L 4212.226562 326.71875 L 4224.726562 326.71875 L 4218.476562 315.859375 L 4205.976562 315.859375 L 4199.726562 326.71875 L 4187.226562 326.71875 L 4193.476562 315.859375 L 4187.226562 305.039062 L 4180.976562 315.859375 L 4174.726562 326.71875 L 4180.976562 337.539062 L 4174.726562 348.359375 L 4149.726562 348.359375 L 4155.976562 337.539062 " transform="matrix(0.1, 0, 0, -0.1, 0, 74)"/>
<path fill="none" stroke-width="2.99267" stroke-linecap="round" stroke-linejoin="round" stroke="rgb(0%, 0%, 0%)" stroke-opacity="1" stroke-miterlimit="10" d="M 4155.976562 337.539062 L 4168.476562 337.539062 L 4162.226562 326.71875 L 4149.726562 326.71875 L 4143.476562 315.859375 L 4155.976562 294.21875 L 4162.226562 305.039062 L 4155.976562 315.859375 L 4168.476562 315.859375 L 4174.726562 305.039062 L 4168.476562 294.21875 L 4174.726562 283.398438 L 4180.976562 294.21875 L 4193.476562 294.21875 L 4180.976562 272.578125 L 4168.476562 272.578125 L 4162.226562 283.398438 L 4149.726562 283.398438 L 4155.976562 272.578125 L 4149.726562 261.757812 L 4137.226562 283.398438 L 4143.476562 294.21875 L 4137.226562 305.039062 L 4124.726562 305.039062 L 4130.976562 294.21875 L 4124.726562 283.398438 L 4118.4375 294.21875 L 4112.226562 305.039062 L 4118.4375 315.859375 L 4130.976562 315.859375 L 4137.226562 326.71875 L 4143.476562 337.539062 L 4130.976562 337.539062 L 4124.726562 326.71875 L 4118.4375 337.539062 L 4124.726562 348.359375 L 4137.226562 348.359375 L 4143.476562 359.179688 L 4130.976562 359.179688 L 4124.726562 370 L 4149.726562 370 L 4155.976562 359.179688 L 4168.476562 359.179688 L 4180.976562 380.820312 L 4168.476562 380.820312 L 4162.226562 370 " transform="matrix(0.1, 0, 0, -0.1, 0, 74)"/>
<path fill="none" stroke-width="2.99267" stroke-linecap="round" stroke-linejoin="round" stroke="rgb(0%, 0%, 0%)" stroke-opacity="1" stroke-miterlimit="10" d="M 4162.226562 370 L 4155.976562 380.820312 L 4162.226562 391.640625 L 4174.726562 391.640625 L 4180.976562 402.5 L 4187.226562 413.320312 L 4174.726562 413.320312 L 4168.476562 402.5 L 4162.226562 413.320312 L 4168.476562 424.140625 L 4162.226562 434.960938 L 4137.226562 434.960938 L 4143.476562 424.140625 L 4155.976562 424.140625 L 4149.726562 413.320312 L 4137.226562 413.320312 L 4130.976562 402.5 L 4137.226562 391.640625 L 4143.476562 402.5 L 4155.976562 402.5 L 4149.726562 391.640625 L 4143.476562 380.820312 L 4130.976562 380.820312 L 4124.726562 391.640625 L 4112.226562 391.640625 L 4118.4375 380.820312 L 4112.226562 370 L 4099.726562 391.640625 L 4105.976562 402.5 L 4118.4375 402.5 L 4124.726562 413.320312 L 4130.976562 424.140625 L 4118.4375 424.140625 L 4112.226562 413.320312 L 4105.976562 424.140625 L 4112.226562 434.960938 L 4105.976562 445.78125 L 4093.476562 445.78125 L 4099.726562 434.960938 L 4093.476562 424.140625 L 4087.1875 434.960938 L 4080.976562 445.78125 L 4087.1875 456.601562 L 4080.976562 467.421875 L 4055.9375 467.421875 L 4062.226562 456.601562 L 4074.6875 456.601562 L 4068.4375 445.78125 " transform="matrix(0.1, 0, 0, -0.1, 0, 74)"/>
<path fill="none" stroke-width="2.99267" stroke-linecap="round" stroke-linejoin="round" stroke="rgb(0%, 0%, 0%)" stroke-opacity="1" stroke-miterlimit="10" d="M 4068.4375 445.78125 L 4055.9375 445.78125 L 4049.726562 434.960938 L 4055.9375 424.140625 L 4062.226562 413.320312 L 4068.4375 424.140625 L 4062.226562 434.960938 L 4074.6875 434.960938 L 4080.976562 424.140625 L 4074.6875 413.320312 L 4080.976562 402.5 L 4087.1875 413.320312 L 4099.726562 413.320312 L 4093.476562 402.5 L 4087.1875 391.640625 L 4074.6875 391.640625 L 4068.4375 402.5 L 4055.9375 402.5 L 4062.226562 391.640625 L 4055.9375 380.820312 L 4049.726562 391.640625 L 4043.4375 402.5 L 4049.726562 413.320312 L 4043.4375 424.140625 L 4030.976562 424.140625 L 4037.1875 413.320312 L 4030.976562 402.5 L 4024.6875 413.320312 L 4018.4375 424.140625 L 4024.6875 434.960938 L 4037.1875 434.960938 L 4043.4375 445.78125 L 4049.726562 456.601562 L 4037.1875 456.601562 L 4030.976562 445.78125 L 4024.6875 456.601562 L 4030.976562 467.421875 L 4024.6875 478.28125 L 4012.1875 478.28125 L 4018.4375 467.421875 L 4012.1875 456.601562 L 4005.9375 467.421875 L 3999.6875 478.28125 L 4005.9375 489.101562 L 3999.6875 499.921875 L 3974.6875 499.921875 L 3980.9375 489.101562 L 3993.4375 489.101562 L 3987.1875 478.28125 L 3974.6875 478.28125 " transform="matrix(0.1, 0, 0, -0.1, 0, 74)"/>
<path fill="none" stroke-width="2.99267" stroke-linecap="round" stroke-linejoin="round" stroke="rgb(0%, 0%, 0%)" stroke-opacity="1" stroke-miterlimit="10" d="M 3974.6875 478.28125 L 3968.4375 489.101562 L 3943.4375 489.101562 L 3949.6875 478.28125 L 3962.1875 478.28125 L 3955.9375 467.421875 L 3943.4375 467.421875 L 3937.1875 456.601562 L 3949.6875 434.960938 L 3955.9375 445.78125 L 3949.6875 456.601562 L 3962.1875 456.601562 L 3968.4375 445.78125 L 3980.9375 445.78125 L 3987.1875 456.601562 L 3974.6875 456.601562 L 3968.4375 467.421875 L 3993.4375 467.421875 L 3999.6875 456.601562 L 3993.4375 445.78125 L 3999.6875 434.960938 L 4005.9375 445.78125 L 4018.4375 445.78125 L 4005.9375 424.140625 L 3993.4375 424.140625 L 3987.1875 434.960938 L 3962.1875 434.960938 L 3968.4375 424.140625 L 3980.9375 424.140625 L 3974.6875 413.320312 L 3962.1875 413.320312 L 3955.9375 424.140625 L 3943.4375 424.140625 L 3949.6875 413.320312 L 3943.4375 402.5 L 3930.9375 424.140625 L 3937.1875 434.960938 L 3930.9375 445.78125 L 3905.9375 445.78125 L 3912.1875 434.960938 L 3924.6875 434.960938 L 3918.4375 424.140625 L 3905.9375 424.140625 L 3899.6875 434.960938 " transform="matrix(0.1, 0, 0, -0.1, 0, 74)"/>
<path fill="none" stroke-width="2.99267" stroke-linecap="round" stroke-linejoin="round" stroke="rgb(0%, 0%, 0%)" stroke-opacity="1" stroke-miterlimit="10" d="M 3899.6875 434.960938 L 3874.6875 434.960938 L 3880.9375 424.140625 L 3893.4375 424.140625 L 3887.1875 413.320312 L 3874.6875 413.320312 L 3868.4375 402.5 L 3874.6875 391.640625 L 3880.9375 380.820312 L 3887.1875 391.640625 L 3880.9375 402.5 L 3893.4375 402.5 L 3899.6875 391.640625 L 3912.1875 391.640625 L 3918.4375 402.5 L 3905.9375 402.5 L 3899.6875 413.320312 L 3924.6875 413.320312 L 3930.9375 402.5 L 3924.6875 391.640625 L 3930.9375 380.820312 L 3937.1875 391.640625 L 3949.6875 391.640625 L 3937.1875 370 L 3924.6875 370 L 3918.4375 380.820312 L 3893.4375 380.820312 L 3899.6875 370 L 3912.1875 370 L 3905.9375 359.179688 L 3893.4375 359.179688 L 3887.1875 348.359375 L 3893.4375 337.539062 L 3899.6875 348.359375 L 3912.1875 348.359375 L 3899.6875 326.71875 L 3887.1875 326.71875 L 3880.9375 315.859375 L 3893.4375 294.21875 L 3899.6875 305.039062 L 3893.4375 315.859375 L 3905.9375 315.859375 L 3912.1875 305.039062 L 3905.9375 294.21875 L 3912.1875 283.398438 " transform="matrix(0.1, 0, 0, -0.1, 0, 74)"/>
<path fill="none" stroke-width="2.99267" stroke-linecap="round" stroke-linejoin="round" stroke="rgb(0%, 0%, 0%)" stroke-opacity="1" stroke-miterlimit="10" d="M 3912.1875 283.398438 L 3918.4375 272.578125 L 3924.6875 283.398438 L 3918.4375 294.21875 L 3930.9375 294.21875 L 3937.1875 283.398438 L 3949.6875 283.398438 L 3962.1875 305.039062 L 3949.6875 305.039062 L 3943.4375 294.21875 L 3937.1875 305.039062 L 3943.4375 315.859375 L 3937.1875 326.71875 L 3924.6875 326.71875 L 3930.9375 315.859375 L 3924.6875 305.039062 L 3918.4375 315.859375 L 3912.1875 326.71875 L 3918.4375 337.539062 L 3930.9375 337.539062 L 3937.1875 348.359375 L 3924.6875 348.359375 L 3918.4375 359.179688 L 3943.4375 359.179688 L 3949.6875 348.359375 L 3943.4375 337.539062 L 3949.6875 326.71875 L 3955.9375 315.859375 L 3962.1875 326.71875 L 3955.9375 337.539062 L 3968.4375 337.539062 L 3974.6875 326.71875 L 3987.1875 326.71875 L 3993.4375 337.539062 L 3980.9375 337.539062 L 3974.6875 348.359375 L 3999.6875 348.359375 L 4005.9375 337.539062 L 4018.4375 337.539062 L 4024.6875 348.359375 L 4030.976562 359.179688 L 4018.4375 359.179688 L 4012.1875 348.359375 L 4005.9375 359.179688 L 4012.1875 370 L 4005.9375 380.820312 L 3980.9375 380.820312 " transform="matrix(0.1, 0, 0, -0.1, 0, 74)"/>
<path fill="none" stroke-width="2.99267" stroke-linecap="round" stroke-linejoin="round" stroke="rgb(0%, 0%, 0%)" stroke-opacity="1" stroke-miterlimit="10" d="M 3980.9375 380.820312 L 3987.1875 370 L 3999.6875 370 L 3993.4375 359.179688 L 3980.9375 359.179688 L 3974.6875 370 L 3962.1875 370 L 3968.4375 359.179688 L 3962.1875 348.359375 L 3949.6875 370 L 3955.9375 380.820312 L 3968.4375 380.820312 L 3974.6875 391.640625 L 3962.1875 391.640625 L 3955.9375 402.5 L 3980.9375 402.5 L 3987.1875 391.640625 L 3999.6875 391.640625 L 4005.9375 402.5 L 3993.4375 402.5 L 3987.1875 413.320312 L 4012.1875 413.320312 L 4018.4375 402.5 L 4012.1875 391.640625 L 4024.6875 370 L 4030.976562 380.820312 L 4024.6875 391.640625 L 4037.1875 391.640625 L 4043.4375 380.820312 L 4037.1875 370 L 4043.4375 359.179688 L 4049.726562 370 L 4062.226562 370 L 4055.9375 359.179688 L 4049.726562 348.359375 L 4037.1875 348.359375 L 4030.976562 337.539062 L 4037.1875 326.71875 L 4043.4375 315.859375 L 4049.726562 326.71875 L 4043.4375 337.539062 L 4055.9375 337.539062 L 4062.226562 326.71875 L 4074.6875 326.71875 L 4080.976562 337.539062 L 4087.1875 348.359375 L 4074.6875 348.359375 " transform="matrix(0.1, 0, 0, -0.1, 0, 74)"/>
<path fill="none" stroke-width="2.99267" stroke-linecap="round" stroke-linejoin="round" stroke="rgb(0%, 0%, 0%)" stroke-opacity="1" stroke-miterlimit="10" d="M 4074.6875 348.359375 L 4068.4375 337.539062 L 4062.226562 348.359375 L 4068.4375 359.179688 L 4080.976562 359.179688 L 4087.1875 370 L 4074.6875 370 L 4068.4375 380.820312 L 4093.476562 380.820312 L 4099.726562 370 L 4093.476562 359.179688 L 4099.726562 348.359375 L 4105.976562 359.179688 L 4118.4375 359.179688 L 4112.226562 348.359375 L 4105.976562 337.539062 L 4093.476562 337.539062 L 4087.1875 326.71875 L 4093.476562 315.859375 L 4099.726562 326.71875 L 4112.226562 326.71875 L 4105.976562 315.859375 L 4099.726562 305.039062 L 4087.1875 305.039062 L 4080.976562 315.859375 L 4055.9375 315.859375 L 4062.226562 305.039062 L 4074.6875 305.039062 L 4068.4375 294.21875 L 4055.9375 294.21875 L 4049.726562 305.039062 L 4037.1875 305.039062 L 4043.4375 294.21875 L 4037.1875 283.398438 L 4030.976562 294.21875 L 4024.6875 305.039062 L 4030.976562 315.859375 L 4024.6875 326.71875 L 3999.6875 326.71875 L 4005.9375 315.859375 L 4018.4375 315.859375 L 4012.1875 305.039062 L 3999.6875 305.039062 L 3993.4375 315.859375 L 3968.4375 315.859375 L 3974.6875 305.039062 L 3987.1875 305.039062 " transform="matrix(0.1, 0, 0, -0.1, 0, 74)"/>
<path fill="none" stroke-width="2.99267" stroke-linecap="round" stroke-linejoin="round" stroke="rgb(0%, 0%, 0%)" stroke-opacity="1" stroke-miterlimit="10" d="M 3987.1875 305.039062 L 3980.9375 294.21875 L 3968.4375 294.21875 L 3962.1875 283.398438 L 3974.6875 261.757812 L 3980.9375 272.578125 L 3974.6875 283.398438 L 3987.1875 283.398438 L 3993.4375 272.578125 L 4005.9375 272.578125 L 4012.1875 283.398438 L 3999.6875 283.398438 L 3993.4375 294.21875 L 4018.4375 294.21875 L 4024.6875 283.398438 L 4018.4375 272.578125 L 4024.6875 261.757812 L 4030.976562 272.578125 L 4043.4375 272.578125 L 4037.1875 261.757812 L 4030.976562 250.9375 L 4018.4375 250.9375 L 4012.1875 261.757812 L 3987.1875 261.757812 L 3993.4375 250.9375 L 4005.9375 250.9375 L 3999.6875 240.078125 L 3987.1875 240.078125 L 3980.9375 250.9375 L 3968.4375 250.9375 L 3974.6875 240.078125 L 3968.4375 229.257812 L 3962.1875 240.078125 L 3955.9375 250.9375 L 3962.1875 261.757812 L 3955.9375 272.578125 L 3930.9375 272.578125 L 3937.1875 261.757812 L 3949.6875 261.757812 L 3943.4375 250.9375 L 3930.9375 250.9375 L 3924.6875 240.078125 L 3937.1875 218.4375 L 3943.4375 229.257812 L 3937.1875 240.078125 L 3949.6875 240.078125 " transform="matrix(0.1, 0, 0, -0.1, 0, 74)"/>
<path fill="none" stroke-width="2.99267" stroke-linecap="round" stroke-linejoin="round" stroke="rgb(0%, 0%, 0%)" stroke-opacity="1" stroke-miterlimit="10" d="M 3949.6875 240.078125 L 3955.9375 229.257812 L 3949.6875 218.4375 L 3955.9375 207.617188 L 3962.1875 218.4375 L 3974.6875 218.4375 L 3962.1875 196.796875 L 3949.6875 196.796875 L 3943.4375 207.617188 L 3930.9375 207.617188 L 3937.1875 196.796875 L 3930.9375 185.976562 L 3918.4375 207.617188 L 3924.6875 218.4375 L 3918.4375 229.257812 L 3905.9375 229.257812 L 3912.1875 218.4375 L 3905.9375 207.617188 L 3893.4375 229.257812 L 3899.6875 240.078125 L 3912.1875 240.078125 L 3918.4375 250.9375 L 3924.6875 261.757812 L 3912.1875 261.757812 L 3905.9375 250.9375 L 3899.6875 261.757812 L 3905.9375 272.578125 L 3899.6875 283.398438 L 3887.1875 283.398438 L 3893.4375 272.578125 L 3887.1875 261.757812 L 3874.6875 283.398438 L 3880.9375 294.21875 L 3874.6875 305.039062 L 3849.6875 305.039062 L 3855.9375 294.21875 L 3868.4375 294.21875 L 3862.1875 283.398438 L 3849.6875 283.398438 L 3843.4375 294.21875 L 3818.4375 294.21875 L 3824.6875 283.398438 L 3837.1875 283.398438 L 3830.9375 272.578125 L 3818.4375 272.578125 " transform="matrix(0.1, 0, 0, -0.1, 0, 74)"/>
<path fill="none" stroke-width="2.99267" stroke-linecap="round" stroke-linejoin="round" stroke="rgb(0%, 0%, 0%)" stroke-opacity="1" stroke-miterlimit="10" d="M 3818.4375 272.578125 L 3812.1875 261.757812 L 3818.4375 250.9375 L 3824.6875 240.078125 L 3830.9375 250.9375 L 3824.6875 261.757812 L 3837.1875 261.757812 L 3843.4375 250.9375 L 3855.9375 250.9375 L 3862.1875 261.757812 L 3849.6875 261.757812 L 3843.4375 272.578125 L 3868.4375 272.578125 L 3874.6875 261.757812 L 3868.4375 250.9375 L 3874.6875 240.078125 L 3880.9375 250.9375 L 3893.4375 250.9375 L 3887.1875 240.078125 L 3880.9375 229.257812 L 3868.4375 229.257812 L 3862.1875 240.078125 L 3837.1875 240.078125 L 3843.4375 229.257812 L 3855.9375 229.257812 L 3849.6875 218.4375 L 3837.1875 218.4375 L 3830.9375 207.617188 L 3837.1875 196.796875 L 3843.4375 207.617188 L 3855.9375 207.617188 L 3843.4375 185.976562 L 3830.9375 185.976562 L 3824.6875 175.15625 L 3830.9375 164.296875 L 3837.1875 153.476562 L 3843.4375 164.296875 L 3837.1875 175.15625 L 3849.6875 175.15625 L 3855.9375 164.296875 L 3849.6875 153.476562 L 3862.1875 131.835938 L 3868.4375 142.65625 L 3862.1875 153.476562 L 3874.6875 153.476562 L 3880.9375 142.65625 L 3893.4375 142.65625 " transform="matrix(0.1, 0, 0, -0.1, 0, 74)"/>
<path fill="none" stroke-width="2.99267" stroke-linecap="round" stroke-linejoin="round" stroke="rgb(0%, 0%, 0%)" stroke-opacity="1" stroke-miterlimit="10" d="M 3893.4375 142.65625 L 3905.9375 164.296875 L 3893.4375 164.296875 L 3887.1875 153.476562 L 3880.9375 164.296875 L 3887.1875 175.15625 L 3880.9375 185.976562 L 3868.4375 185.976562 L 3874.6875 175.15625 L 3868.4375 164.296875 L 3862.1875 175.15625 L 3855.9375 185.976562 L 3862.1875 196.796875 L 3874.6875 196.796875 L 3880.9375 207.617188 L 3868.4375 207.617188 L 3862.1875 218.4375 L 3887.1875 218.4375 L 3893.4375 207.617188 L 3887.1875 196.796875 L 3899.6875 175.15625 L 3905.9375 185.976562 L 3899.6875 196.796875 L 3912.1875 196.796875 L 3918.4375 185.976562 L 3912.1875 175.15625 L 3918.4375 164.296875 L 3924.6875 175.15625 L 3937.1875 175.15625 L 3930.9375 164.296875 L 3924.6875 153.476562 L 3912.1875 153.476562 L 3905.9375 142.65625 L 3918.4375 121.015625 L 3924.6875 131.835938 L 3918.4375 142.65625 L 3930.9375 142.65625 L 3937.1875 131.835938 L 3949.6875 131.835938 L 3962.1875 153.476562 L 3949.6875 153.476562 L 3943.4375 142.65625 L 3937.1875 153.476562 L 3943.4375 164.296875 L 3955.9375 164.296875 L 3962.1875 175.15625 " transform="matrix(0.1, 0, 0, -0.1, 0, 74)"/>
<path fill="none" stroke-width="2.99267" stroke-linecap="round" stroke-linejoin="round" stroke="rgb(0%, 0%, 0%)" stroke-opacity="1" stroke-miterlimit="10" d="M 3962.1875 175.15625 L 3949.6875 175.15625 L 3943.4375 185.976562 L 3968.4375 185.976562 L 3974.6875 175.15625 L 3968.4375 164.296875 L 3974.6875 153.476562 L 3980.9375 164.296875 L 3993.4375 164.296875 L 3980.9375 142.65625 L 3968.4375 142.65625 L 3962.1875 131.835938 L 3968.4375 121.015625 L 3974.6875 131.835938 L 3987.1875 131.835938 L 3974.6875 110.195312 L 3962.1875 110.195312 L 3955.9375 121.015625 L 3930.9375 121.015625 L 3937.1875 110.195312 L 3949.6875 110.195312 L 3943.4375 99.375 L 3930.9375 99.375 L 3924.6875 110.195312 L 3912.1875 110.195312 L 3918.4375 99.375 L 3912.1875 88.515625 L 3905.9375 99.375 L 3899.6875 110.195312 L 3905.9375 121.015625 L 3899.6875 131.835938 L 3874.6875 131.835938 L 3880.9375 121.015625 L 3893.4375 121.015625 L 3887.1875 110.195312 L 3874.6875 110.195312 L 3868.4375 99.375 L 3874.6875 88.515625 L 3880.9375 77.695312 L 3887.1875 88.515625 L 3880.9375 99.375 L 3893.4375 99.375 L 3899.6875 88.515625 L 3893.4375 77.695312 L 3899.6875 66.875 L 3905.9375 77.695312 " transform="matrix(0.1, 0, 0, -0.1, 0, 74)"/>
<path fill="none" stroke-width="2.99267" stroke-linecap="round" stroke-linejoin="round" stroke="rgb(0%, 0%, 0%)" stroke-opacity="1" stroke-miterlimit="10" d="M 3905.9375 77.695312 L 3918.4375 77.695312 L 3905.9375 56.054688 L 3893.4375 56.054688 L 3887.1875 66.875 L 3874.6875 66.875 L 3880.9375 56.054688 L 3874.6875 45.234375 L 3862.1875 66.875 L 3868.4375 77.695312 L 3862.1875 88.515625 L 3849.6875 88.515625 L 3855.9375 77.695312 L 3849.6875 66.875 L 3837.1875 88.515625 L 3843.4375 99.375 L 3855.9375 99.375 L 3868.4375 121.015625 L 3855.9375 121.015625 L 3849.6875 110.195312 L 3843.4375 121.015625 L 3849.6875 131.835938 L 3843.4375 142.65625 L 3830.9375 142.65625 L 3837.1875 131.835938 L 3830.9375 121.015625 L 3818.4375 142.65625 L 3824.6875 153.476562 L 3818.4375 164.296875 L 3793.4375 164.296875 L 3799.6875 153.476562 L 3812.1875 153.476562 L 3805.9375 142.65625 L 3793.4375 142.65625 L 3787.1875 131.835938 L 3799.6875 110.195312 L 3805.9375 121.015625 L 3799.6875 131.835938 L 3812.1875 131.835938 L 3818.4375 121.015625 L 3812.1875 110.195312 L 3818.4375 99.375 L 3824.6875 110.195312 L 3837.1875 110.195312 " transform="matrix(0.1, 0, 0, -0.1, 0, 74)"/>
<path fill="none" stroke-width="2.99267" stroke-linecap="round" stroke-linejoin="round" stroke="rgb(0%, 0%, 0%)" stroke-opacity="1" stroke-miterlimit="10" d="M 3837.1875 110.195312 L 3830.9375 99.375 L 3824.6875 88.515625 L 3812.1875 88.515625 L 3805.9375 99.375 L 3793.4375 99.375 L 3799.6875 88.515625 L 3793.4375 77.695312 L 3787.1875 88.515625 L 3780.9375 99.375 L 3787.1875 110.195312 L 3780.9375 121.015625 L 3768.4375 121.015625 L 3774.6875 110.195312 L 3768.4375 99.375 L 3755.9375 121.015625 L 3762.1875 131.835938 L 3774.6875 131.835938 L 3787.1875 153.476562 L 3774.6875 153.476562 L 3768.4375 142.65625 L 3762.1875 153.476562 L 3768.4375 164.296875 L 3780.9375 164.296875 L 3787.1875 175.15625 L 3774.6875 175.15625 L 3768.4375 185.976562 L 3793.4375 185.976562 L 3799.6875 175.15625 L 3812.1875 175.15625 L 3824.6875 196.796875 L 3812.1875 196.796875 L 3805.9375 185.976562 L 3799.6875 196.796875 L 3805.9375 207.617188 L 3818.4375 207.617188 L 3830.9375 229.257812 L 3818.4375 229.257812 L 3812.1875 218.4375 L 3805.9375 229.257812 L 3812.1875 240.078125 L 3805.9375 250.9375 L 3780.9375 250.9375 L 3787.1875 240.078125 L 3799.6875 240.078125 " transform="matrix(0.1, 0, 0, -0.1, 0, 74)"/>
<path fill="none" stroke-width="2.99267" stroke-linecap="round" stroke-linejoin="round" stroke="rgb(0%, 0%, 0%)" stroke-opacity="1" stroke-miterlimit="10" d="M 3799.6875 240.078125 L 3793.4375 229.257812 L 3780.9375 229.257812 L 3774.6875 218.4375 L 3780.9375 207.617188 L 3787.1875 218.4375 L 3799.6875 218.4375 L 3787.1875 196.796875 L 3774.6875 196.796875 L 3768.4375 207.617188 L 3755.9375 207.617188 L 3762.1875 196.796875 L 3755.9375 185.976562 L 3743.4375 207.617188 L 3749.6875 218.4375 L 3762.1875 218.4375 L 3774.6875 240.078125 L 3762.1875 240.078125 L 3755.9375 229.257812 L 3749.6875 240.078125 L 3755.9375 250.9375 L 3768.4375 250.9375 L 3774.6875 261.757812 L 3762.1875 261.757812 L 3755.9375 272.578125 L 3780.9375 272.578125 L 3787.1875 261.757812 L 3799.6875 261.757812 L 3812.1875 283.398438 L 3799.6875 283.398438 L 3793.4375 272.578125 L 3787.1875 283.398438 L 3793.4375 294.21875 L 3787.1875 305.039062 L 3762.1875 305.039062 L 3768.4375 294.21875 L 3780.9375 294.21875 L 3774.6875 283.398438 L 3762.1875 283.398438 L 3755.9375 294.21875 L 3743.4375 294.21875 L 3749.6875 283.398438 L 3743.4375 272.578125 L 3730.9375 294.21875 " transform="matrix(0.1, 0, 0, -0.1, 0, 74)"/>
<path fill="none" stroke-width="2.99267" stroke-linecap="round" stroke-linejoin="round" stroke="rgb(0%, 0%, 0%)" stroke-opacity="1" stroke-miterlimit="10" d="M 3730.9375 294.21875 L 3737.1875 305.039062 L 3749.6875 305.039062 L 3755.9375 315.859375 L 3743.4375 315.859375 L 3737.1875 326.71875 L 3762.1875 326.71875 L 3768.4375 315.859375 L 3780.9375 315.859375 L 3787.1875 326.71875 L 3774.6875 326.71875 L 3768.4375 337.539062 L 3793.4375 337.539062 L 3799.6875 326.71875 L 3793.4375 315.859375 L 3805.9375 294.21875 L 3812.1875 305.039062 L 3805.9375 315.859375 L 3818.4375 315.859375 L 3824.6875 305.039062 L 3837.1875 305.039062 L 3843.4375 315.859375 L 3830.9375 315.859375 L 3824.6875 326.71875 L 3849.6875 326.71875 L 3855.9375 315.859375 L 3868.4375 315.859375 L 3874.6875 326.71875 L 3880.9375 337.539062 L 3868.4375 337.539062 L 3862.1875 326.71875 L 3855.9375 337.539062 L 3862.1875 348.359375 L 3874.6875 348.359375 L 3887.1875 370 L 3874.6875 370 L 3868.4375 359.179688 L 3862.1875 370 L 3868.4375 380.820312 L 3862.1875 391.640625 L 3837.1875 391.640625 L 3843.4375 380.820312 L 3855.9375 380.820312 L 3849.6875 370 L 3837.1875 370 " transform="matrix(0.1, 0, 0, -0.1, 0, 74)"/>
<path fill="none" stroke-width="2.99267" stroke-linecap="round" stroke-linejoin="round" stroke="rgb(0%, 0%, 0%)" stroke-opacity="1" stroke-miterlimit="10" d="M 3837.1875 370 L 3830.9375 359.179688 L 3837.1875 348.359375 L 3843.4375 359.179688 L 3855.9375 359.179688 L 3843.4375 337.539062 L 3830.9375 337.539062 L 3824.6875 348.359375 L 3812.1875 348.359375 L 3818.4375 337.539062 L 3812.1875 326.71875 L 3799.6875 348.359375 L 3805.9375 359.179688 L 3818.4375 359.179688 L 3830.9375 380.820312 L 3818.4375 380.820312 L 3812.1875 370 L 3805.9375 380.820312 L 3812.1875 391.640625 L 3805.9375 402.5 L 3793.4375 402.5 L 3799.6875 391.640625 L 3793.4375 380.820312 L 3787.1875 391.640625 L 3780.9375 402.5 L 3787.1875 413.320312 L 3780.9375 424.140625 L 3755.9375 424.140625 L 3762.1875 413.320312 L 3774.6875 413.320312 L 3768.4375 402.5 L 3755.9375 402.5 L 3749.6875 413.320312 L 3724.6875 413.320312 L 3730.9375 402.5 L 3743.4375 402.5 L 3737.1875 391.640625 L 3724.6875 391.640625 L 3718.4375 380.820312 L 3730.9375 359.179688 L 3737.1875 370 L 3730.9375 380.820312 L 3743.4375 380.820312 L 3749.6875 370 L 3762.1875 370 " transform="matrix(0.1, 0, 0, -0.1, 0, 74)"/>
<path fill="none" stroke-width="2.99267" stroke-linecap="round" stroke-linejoin="round" stroke="rgb(0%, 0%, 0%)" stroke-opacity="1" stroke-miterlimit="10" d="M 3762.1875 370 L 3768.4375 380.820312 L 3755.9375 380.820312 L 3749.6875 391.640625 L 3774.6875 391.640625 L 3780.9375 380.820312 L 3774.6875 370 L 3780.9375 359.179688 L 3787.1875 370 L 3799.6875 370 L 3787.1875 348.359375 L 3774.6875 348.359375 L 3768.4375 359.179688 L 3743.4375 359.179688 L 3749.6875 348.359375 L 3762.1875 348.359375 L 3755.9375 337.539062 L 3743.4375 337.539062 L 3737.1875 348.359375 L 3724.6875 348.359375 L 3730.9375 337.539062 L 3724.6875 326.71875 L 3712.1875 348.359375 L 3718.4375 359.179688 L 3712.1875 370 L 3687.1875 370 L 3693.4375 359.179688 L 3705.9375 359.179688 L 3699.6875 348.359375 L 3687.1875 348.359375 L 3680.9375 337.539062 L 3687.1875 326.71875 L 3693.4375 315.859375 L 3699.6875 326.71875 L 3693.4375 337.539062 L 3705.9375 337.539062 L 3712.1875 326.71875 L 3705.9375 315.859375 L 3712.1875 305.039062 L 3718.4375 315.859375 L 3730.9375 315.859375 L 3718.4375 294.21875 L 3705.9375 294.21875 L 3699.6875 305.039062 L 3687.1875 305.039062 " transform="matrix(0.1, 0, 0, -0.1, 0, 74)"/>
<path fill="none" stroke-width="2.99267" stroke-linecap="round" stroke-linejoin="round" stroke="rgb(0%, 0%, 0%)" stroke-opacity="1" stroke-miterlimit="10" d="M 3687.1875 305.039062 L 3693.4375 294.21875 L 3687.1875 283.398438 L 3674.6875 305.039062 L 3680.9375 315.859375 L 3674.6875 326.71875 L 3662.1875 326.71875 L 3668.4375 315.859375 L 3662.1875 305.039062 L 3655.9375 315.859375 L 3649.6875 326.71875 L 3655.9375 337.539062 L 3668.4375 337.539062 L 3680.9375 359.179688 L 3668.4375 359.179688 L 3662.1875 348.359375 L 3655.9375 359.179688 L 3662.1875 370 L 3674.6875 370 L 3680.9375 380.820312 L 3668.4375 380.820312 L 3662.1875 391.640625 L 3687.1875 391.640625 L 3693.4375 380.820312 L 3705.9375 380.820312 L 3712.1875 391.640625 L 3718.4375 402.5 L 3705.9375 402.5 L 3699.6875 391.640625 L 3693.4375 402.5 L 3699.6875 413.320312 L 3693.4375 424.140625 L 3668.4375 424.140625 L 3674.6875 413.320312 L 3687.1875 413.320312 L 3680.9375 402.5 L 3668.4375 402.5 L 3662.1875 413.320312 L 3649.6875 413.320312 L 3655.9375 402.5 L 3649.6875 391.640625 L 3643.4375 402.5 L 3637.1875 413.320312 L 3643.4375 424.140625 L 3655.9375 424.140625 L 3662.1875 434.960938 L 3649.6875 434.960938 " transform="matrix(0.1, 0, 0, -0.1, 0, 74)"/>
<path fill="none" stroke-width="2.99267" stroke-linecap="round" stroke-linejoin="round" stroke="rgb(0%, 0%, 0%)" stroke-opacity="1" stroke-miterlimit="10" d="M 3649.6875 434.960938 L 3643.4375 445.78125 L 3668.4375 445.78125 L 3674.6875 434.960938 L 3687.1875 434.960938 L 3693.4375 445.78125 L 3680.9375 445.78125 L 3674.6875 456.601562 L 3699.6875 456.601562 L 3705.9375 445.78125 L 3699.6875 434.960938 L 3712.1875 413.320312 L 3718.4375 424.140625 L 3712.1875 434.960938 L 3724.6875 434.960938 L 3730.9375 424.140625 L 3743.4375 424.140625 L 3749.6875 434.960938 L 3737.1875 434.960938 L 3730.9375 445.78125 L 3755.9375 445.78125 L 3762.1875 434.960938 L 3774.6875 434.960938 L 3787.1875 456.601562 L 3774.6875 456.601562 L 3768.4375 445.78125 L 3762.1875 456.601562 L 3768.4375 467.421875 L 3762.1875 478.28125 L 3737.1875 478.28125 L 3743.4375 467.421875 L 3755.9375 467.421875 L 3749.6875 456.601562 L 3737.1875 456.601562 L 3730.9375 467.421875 L 3718.4375 467.421875 L 3724.6875 456.601562 L 3718.4375 445.78125 L 3705.9375 467.421875 L 3712.1875 478.28125 L 3724.6875 478.28125 L 3730.9375 489.101562 L 3718.4375 489.101562 L 3712.1875 499.921875 " transform="matrix(0.1, 0, 0, -0.1, 0, 74)"/>
<path fill="none" stroke-width="2.99267" stroke-linecap="round" stroke-linejoin="round" stroke="rgb(0%, 0%, 0%)" stroke-opacity="1" stroke-miterlimit="10" d="M 3712.1875 499.921875 L 3737.1875 499.921875 L 3743.4375 489.101562 L 3755.9375 489.101562 L 3762.1875 499.921875 L 3749.6875 499.921875 L 3743.4375 510.742188 L 3768.4375 510.742188 L 3774.6875 499.921875 L 3768.4375 489.101562 L 3774.6875 478.28125 L 3780.9375 467.421875 L 3787.1875 478.28125 L 3780.9375 489.101562 L 3793.4375 489.101562 L 3799.6875 478.28125 L 3793.4375 467.421875 L 3799.6875 456.601562 L 3805.9375 467.421875 L 3818.4375 467.421875 L 3805.9375 445.78125 L 3793.4375 445.78125 L 3787.1875 434.960938 L 3799.6875 413.320312 L 3805.9375 424.140625 L 3799.6875 434.960938 L 3812.1875 434.960938 L 3818.4375 424.140625 L 3812.1875 413.320312 L 3818.4375 402.5 L 3824.6875 391.640625 L 3830.9375 402.5 L 3824.6875 413.320312 L 3837.1875 413.320312 L 3843.4375 402.5 L 3855.9375 402.5 L 3868.4375 424.140625 L 3855.9375 424.140625 L 3849.6875 413.320312 L 3843.4375 424.140625 L 3849.6875 434.960938 L 3843.4375 445.78125 L 3830.9375 445.78125 L 3837.1875 434.960938 L 3830.9375 424.140625 L 3824.6875 434.960938 " transform="matrix(0.1, 0, 0, -0.1, 0, 74)"/>
<path fill="none" stroke-width="2.99267" stroke-linecap="round" stroke-linejoin="round" stroke="rgb(0%, 0%, 0%)" stroke-opacity="1" stroke-miterlimit="10" d="M 3824.6875 434.960938 L 3818.4375 445.78125 L 3824.6875 456.601562 L 3837.1875 456.601562 L 3843.4375 467.421875 L 3830.9375 467.421875 L 3824.6875 478.28125 L 3849.6875 478.28125 L 3855.9375 467.421875 L 3849.6875 456.601562 L 3862.1875 434.960938 L 3868.4375 445.78125 L 3862.1875 456.601562 L 3874.6875 456.601562 L 3880.9375 445.78125 L 3893.4375 445.78125 L 3899.6875 456.601562 L 3887.1875 456.601562 L 3880.9375 467.421875 L 3905.9375 467.421875 L 3912.1875 456.601562 L 3924.6875 456.601562 L 3930.9375 467.421875 L 3937.1875 478.28125 L 3924.6875 478.28125 L 3918.4375 467.421875 L 3912.1875 478.28125 L 3918.4375 489.101562 L 3912.1875 499.921875 L 3887.1875 499.921875 L 3893.4375 489.101562 L 3905.9375 489.101562 L 3899.6875 478.28125 L 3887.1875 478.28125 L 3880.9375 489.101562 L 3868.4375 489.101562 L 3874.6875 478.28125 L 3868.4375 467.421875 L 3862.1875 478.28125 L 3855.9375 489.101562 L 3862.1875 499.921875 L 3874.6875 499.921875 L 3880.9375 510.742188 L 3868.4375 510.742188 L 3862.1875 521.5625 L 3887.1875 521.5625 " transform="matrix(0.1, 0, 0, -0.1, 0, 74)"/>
<path fill="none" stroke-width="2.99267" stroke-linecap="round" stroke-linejoin="round" stroke="rgb(0%, 0%, 0%)" stroke-opacity="1" stroke-miterlimit="10" d="M 3887.1875 521.5625 L 3893.4375 510.742188 L 3905.9375 510.742188 L 3912.1875 521.5625 L 3899.6875 521.5625 L 3893.4375 532.382812 L 3918.4375 532.382812 L 3924.6875 521.5625 L 3918.4375 510.742188 L 3930.9375 489.101562 L 3937.1875 499.921875 L 3930.9375 510.742188 L 3943.4375 510.742188 L 3949.6875 499.921875 L 3962.1875 499.921875 L 3968.4375 510.742188 L 3955.9375 510.742188 L 3949.6875 521.5625 L 3974.6875 521.5625 L 3980.9375 510.742188 L 3993.4375 510.742188 L 4005.9375 532.382812 L 3993.4375 532.382812 L 3987.1875 521.5625 L 3980.9375 532.382812 L 3987.1875 543.242188 L 3999.6875 543.242188 L 4012.1875 564.882812 L 3999.6875 564.882812 L 3993.4375 554.0625 L 3987.1875 564.882812 L 3993.4375 575.703125 L 3987.1875 586.523438 L 3962.1875 586.523438 L 3968.4375 575.703125 L 3980.9375 575.703125 L 3974.6875 564.882812 L 3962.1875 564.882812 L 3955.9375 554.0625 L 3962.1875 543.242188 L 3968.4375 554.0625 L 3980.9375 554.0625 L 3974.6875 543.242188 L 3968.4375 532.382812 L 3955.9375 532.382812 " transform="matrix(0.1, 0, 0, -0.1, 0, 74)"/>
<path fill="none" stroke-width="2.99267" stroke-linecap="round" stroke-linejoin="round" stroke="rgb(0%, 0%, 0%)" stroke-opacity="1" stroke-miterlimit="10" d="M 3955.9375 532.382812 L 3949.6875 543.242188 L 3937.1875 543.242188 L 3943.4375 532.382812 L 3937.1875 521.5625 L 3930.9375 532.382812 L 3924.6875 543.242188 L 3930.9375 554.0625 L 3943.4375 554.0625 L 3955.9375 575.703125 L 3943.4375 575.703125 L 3937.1875 564.882812 L 3930.9375 575.703125 L 3937.1875 586.523438 L 3930.9375 597.34375 L 3918.4375 597.34375 L 3924.6875 586.523438 L 3918.4375 575.703125 L 3905.9375 597.34375 L 3912.1875 608.164062 L 3905.9375 618.984375 L 3880.9375 618.984375 L 3887.1875 608.164062 L 3899.6875 608.164062 L 3893.4375 597.34375 L 3880.9375 597.34375 L 3874.6875 608.164062 L 3849.6875 608.164062 L 3855.9375 597.34375 L 3868.4375 597.34375 L 3862.1875 586.523438 L 3849.6875 586.523438 L 3843.4375 575.703125 L 3855.9375 554.0625 L 3862.1875 564.882812 L 3855.9375 575.703125 L 3868.4375 575.703125 L 3874.6875 564.882812 L 3887.1875 564.882812 L 3893.4375 575.703125 L 3880.9375 575.703125 L 3874.6875 586.523438 L 3899.6875 586.523438 L 3905.9375 575.703125 L 3899.6875 564.882812 " transform="matrix(0.1, 0, 0, -0.1, 0, 74)"/>
<path fill="none" stroke-width="2.99267" stroke-linecap="round" stroke-linejoin="round" stroke="rgb(0%, 0%, 0%)" stroke-opacity="1" stroke-miterlimit="10" d="M 3899.6875 564.882812 L 3905.9375 554.0625 L 3912.1875 564.882812 L 3924.6875 564.882812 L 3912.1875 543.242188 L 3899.6875 543.242188 L 3893.4375 554.0625 L 3868.4375 554.0625 L 3874.6875 543.242188 L 3887.1875 543.242188 L 3880.9375 532.382812 L 3868.4375 532.382812 L 3862.1875 543.242188 L 3849.6875 543.242188 L 3855.9375 532.382812 L 3849.6875 521.5625 L 3843.4375 532.382812 L 3837.1875 543.242188 L 3843.4375 554.0625 L 3837.1875 564.882812 L 3812.1875 564.882812 L 3818.4375 554.0625 L 3830.9375 554.0625 L 3824.6875 543.242188 L 3812.1875 543.242188 L 3805.9375 532.382812 L 3818.4375 510.742188 L 3824.6875 521.5625 L 3818.4375 532.382812 L 3830.9375 532.382812 L 3837.1875 521.5625 L 3830.9375 510.742188 L 3837.1875 499.921875 L 3843.4375 510.742188 L 3855.9375 510.742188 L 3843.4375 489.101562 L 3830.9375 489.101562 L 3824.6875 499.921875 L 3812.1875 499.921875 L 3818.4375 489.101562 L 3812.1875 478.28125 L 3799.6875 499.921875 L 3805.9375 510.742188 L 3799.6875 521.5625 L 3787.1875 521.5625 " transform="matrix(0.1, 0, 0, -0.1, 0, 74)"/>
<path fill="none" stroke-width="2.99267" stroke-linecap="round" stroke-linejoin="round" stroke="rgb(0%, 0%, 0%)" stroke-opacity="1" stroke-miterlimit="10" d="M 3787.1875 521.5625 L 3793.4375 510.742188 L 3787.1875 499.921875 L 3774.6875 521.5625 L 3780.9375 532.382812 L 3793.4375 532.382812 L 3799.6875 543.242188 L 3805.9375 554.0625 L 3793.4375 554.0625 L 3787.1875 543.242188 L 3780.9375 554.0625 L 3787.1875 564.882812 L 3799.6875 564.882812 L 3805.9375 575.703125 L 3793.4375 575.703125 L 3787.1875 586.523438 L 3812.1875 586.523438 L 3818.4375 575.703125 L 3830.9375 575.703125 L 3843.4375 597.34375 L 3830.9375 597.34375 L 3824.6875 586.523438 L 3818.4375 597.34375 L 3824.6875 608.164062 L 3818.4375 618.984375 L 3793.4375 618.984375 L 3799.6875 608.164062 L 3812.1875 608.164062 L 3805.9375 597.34375 L 3793.4375 597.34375 L 3787.1875 608.164062 L 3774.6875 608.164062 L 3780.9375 597.34375 L 3774.6875 586.523438 L 3762.1875 608.164062 L 3768.4375 618.984375 L 3780.9375 618.984375 L 3787.1875 629.804688 L 3774.6875 629.804688 L 3768.4375 640.664062 L 3793.4375 640.664062 L 3799.6875 629.804688 L 3812.1875 629.804688 L 3818.4375 640.664062 L 3805.9375 640.664062 " transform="matrix(0.1, 0, 0, -0.1, 0, 74)"/>
<path fill="none" stroke-width="2.99267" stroke-linecap="round" stroke-linejoin="round" stroke="rgb(0%, 0%, 0%)" stroke-opacity="1" stroke-miterlimit="10" d="M 3805.9375 640.664062 L 3799.6875 651.484375 L 3824.6875 651.484375 L 3830.9375 640.664062 L 3824.6875 629.804688 L 3837.1875 608.164062 L 3843.4375 618.984375 L 3837.1875 629.804688 L 3849.6875 629.804688 L 3855.9375 618.984375 L 3868.4375 618.984375 L 3874.6875 629.804688 L 3862.1875 629.804688 L 3855.9375 640.664062 L 3880.9375 640.664062 L 3887.1875 629.804688 L 3899.6875 629.804688 L 3905.9375 640.664062 L 3912.1875 651.484375 L 3899.6875 651.484375 L 3893.4375 640.664062 L 3887.1875 651.484375 L 3893.4375 662.304688 L 3887.1875 673.125 L 3862.1875 673.125 L 3868.4375 662.304688 L 3880.9375 662.304688 L 3874.6875 651.484375 L 3862.1875 651.484375 L 3855.9375 662.304688 L 3843.4375 662.304688 L 3849.6875 651.484375 L 3843.4375 640.664062 L 3830.9375 662.304688 L 3837.1875 673.125 L 3849.6875 673.125 L 3855.9375 683.945312 L 3843.4375 683.945312 L 3837.1875 694.765625 L 3862.1875 694.765625 L 3868.4375 683.945312 L 3880.9375 683.945312 L 3887.1875 694.765625 L 3874.6875 694.765625 L 3868.4375 705.585938 " transform="matrix(0.1, 0, 0, -0.1, 0, 74)"/>
<path fill="none" stroke-width="2.99267" stroke-linecap="round" stroke-linejoin="round" stroke="rgb(0%, 0%, 0%)" stroke-opacity="1" stroke-miterlimit="10" d="M 3868.4375 705.585938 L 3893.4375 705.585938 L 3899.6875 694.765625 L 3893.4375 683.945312 L 3905.9375 662.304688 L 3912.1875 673.125 L 3905.9375 683.945312 L 3918.4375 683.945312 L 3924.6875 673.125 L 3918.4375 662.304688 L 3924.6875 651.484375 L 3930.9375 662.304688 L 3943.4375 662.304688 L 3930.9375 640.664062 L 3918.4375 640.664062 L 3912.1875 629.804688 L 3924.6875 608.164062 L 3930.9375 618.984375 L 3924.6875 629.804688 L 3937.1875 629.804688 L 3943.4375 618.984375 L 3937.1875 608.164062 L 3949.6875 586.523438 L 3955.9375 597.34375 L 3949.6875 608.164062 L 3962.1875 608.164062 L 3968.4375 597.34375 L 3980.9375 597.34375 L 3993.4375 618.984375 L 3980.9375 618.984375 L 3974.6875 608.164062 L 3968.4375 618.984375 L 3974.6875 629.804688 L 3968.4375 640.664062 L 3955.9375 640.664062 L 3962.1875 629.804688 L 3955.9375 618.984375 L 3949.6875 629.804688 L 3943.4375 640.664062 L 3949.6875 651.484375 L 3962.1875 651.484375 L 3968.4375 662.304688 L 3955.9375 662.304688 L 3949.6875 673.125 L 3962.1875 673.125 " transform="matrix(0.1, 0, 0, -0.1, 0, 74)"/>
<path fill="none" stroke-width="2.99267" stroke-linecap="round" stroke-linejoin="round" stroke="rgb(0%, 0%, 0%)" stroke-opacity="1" stroke-miterlimit="10" d="M 3962.1875 673.125 L 3974.6875 673.125 L 3980.9375 662.304688 L 3974.6875 651.484375 L 3980.9375 640.664062 L 3987.1875 629.804688 L 3993.4375 640.664062 L 3987.1875 651.484375 L 3999.6875 651.484375 L 4005.9375 640.664062 L 3999.6875 629.804688 L 4005.9375 618.984375 L 4012.1875 629.804688 L 4024.6875 629.804688 L 4012.1875 608.164062 L 3999.6875 608.164062 L 3993.4375 597.34375 L 4005.9375 575.703125 L 4012.1875 586.523438 L 4005.9375 597.34375 L 4018.4375 597.34375 L 4024.6875 586.523438 L 4037.1875 586.523438 L 4043.4375 597.34375 L 4049.726562 608.164062 L 4037.1875 608.164062 L 4030.976562 597.34375 L 4024.6875 608.164062 L 4030.976562 618.984375 L 4043.4375 618.984375 L 4049.726562 629.804688 L 4037.1875 629.804688 L 4030.976562 640.664062 L 4055.9375 640.664062 L 4062.226562 629.804688 L 4055.9375 618.984375 L 4062.226562 608.164062 L 4068.4375 618.984375 L 4080.976562 618.984375 L 4074.6875 608.164062 L 4068.4375 597.34375 L 4055.9375 597.34375 L 4049.726562 586.523438 L 4055.9375 575.703125 L 4062.226562 586.523438 L 4074.6875 586.523438 L 4068.4375 575.703125 L 4062.226562 564.882812 " transform="matrix(0.1, 0, 0, -0.1, 0, 74)"/>
<path fill="none" stroke-width="2.99267" stroke-linecap="round" stroke-linejoin="round" stroke="rgb(0%, 0%, 0%)" stroke-opacity="1" stroke-miterlimit="10" d="M 4062.226562 564.882812 L 4049.726562 564.882812 L 4043.4375 575.703125 L 4018.4375 575.703125 L 4024.6875 564.882812 L 4037.1875 564.882812 L 4030.976562 554.0625 L 4018.4375 554.0625 L 4012.1875 543.242188 L 4018.4375 532.382812 L 4024.6875 543.242188 L 4037.1875 543.242188 L 4030.976562 532.382812 L 4024.6875 521.5625 L 4012.1875 521.5625 L 4005.9375 510.742188 L 4018.4375 489.101562 L 4024.6875 499.921875 L 4018.4375 510.742188 L 4030.976562 510.742188 L 4037.1875 499.921875 L 4030.976562 489.101562 L 4037.1875 478.28125 L 4043.4375 467.421875 L 4049.726562 478.28125 L 4043.4375 489.101562 L 4055.9375 489.101562 L 4062.226562 478.28125 L 4074.6875 478.28125 L 4080.976562 489.101562 L 4087.1875 499.921875 L 4074.6875 499.921875 L 4068.4375 489.101562 L 4062.226562 499.921875 L 4068.4375 510.742188 L 4062.226562 521.5625 L 4049.726562 521.5625 L 4055.9375 510.742188 L 4049.726562 499.921875 L 4043.4375 510.742188 L 4037.1875 521.5625 L 4043.4375 532.382812 L 4055.9375 532.382812 L 4062.226562 543.242188 L 4049.726562 543.242188 L 4043.4375 554.0625 L 4068.4375 554.0625 L 4074.6875 543.242188 " transform="matrix(0.1, 0, 0, -0.1, 0, 74)"/>
<path fill="none" stroke-width="2.99267" stroke-linecap="round" stroke-linejoin="round" stroke="rgb(0%, 0%, 0%)" stroke-opacity="1" stroke-miterlimit="10" d="M 4074.6875 543.242188 L 4068.4375 532.382812 L 4074.6875 521.5625 L 4080.976562 510.742188 L 4087.1875 521.5625 L 4080.976562 532.382812 L 4093.476562 532.382812 L 4099.726562 521.5625 L 4093.476562 510.742188 L 4099.726562 499.921875 L 4105.976562 510.742188 L 4118.4375 510.742188 L 4112.226562 499.921875 L 4105.976562 489.101562 L 4093.476562 489.101562 L 4087.1875 478.28125 L 4093.476562 467.421875 L 4099.726562 456.601562 L 4105.976562 467.421875 L 4099.726562 478.28125 L 4112.226562 478.28125 L 4118.4375 467.421875 L 4112.226562 456.601562 L 4118.4375 445.78125 L 4124.726562 434.960938 L 4130.976562 445.78125 L 4124.726562 456.601562 L 4137.226562 456.601562 L 4143.476562 445.78125 L 4155.976562 445.78125 L 4168.476562 467.421875 L 4155.976562 467.421875 L 4149.726562 456.601562 L 4143.476562 467.421875 L 4149.726562 478.28125 L 4143.476562 489.101562 L 4130.976562 489.101562 L 4137.226562 478.28125 L 4130.976562 467.421875 L 4124.726562 478.28125 L 4118.4375 489.101562 L 4124.726562 499.921875 L 4137.226562 499.921875 L 4143.476562 510.742188 L 4130.976562 510.742188 L 4124.726562 521.5625 L 4149.726562 521.5625 L 4155.976562 510.742188 L 4149.726562 499.921875 " transform="matrix(0.1, 0, 0, -0.1, 0, 74)"/>
<path fill="none" stroke-width="2.99267" stroke-linecap="round" stroke-linejoin="round" stroke="rgb(0%, 0%, 0%)" stroke-opacity="1" stroke-miterlimit="10" d="M 4149.726562 499.921875 L 4162.226562 478.28125 L 4168.476562 489.101562 L 4162.226562 499.921875 L 4174.726562 499.921875 L 4180.976562 489.101562 L 4193.476562 489.101562 L 4199.726562 499.921875 L 4187.226562 499.921875 L 4180.976562 510.742188 L 4205.976562 510.742188 L 4212.226562 499.921875 L 4224.726562 499.921875 L 4237.226562 521.5625 L 4224.726562 521.5625 L 4218.476562 510.742188 L 4212.226562 521.5625 L 4218.476562 532.382812 L 4230.976562 532.382812 L 4237.226562 543.242188 L 4243.476562 554.0625 L 4230.976562 554.0625 L 4224.726562 543.242188 L 4218.476562 554.0625 L 4224.726562 564.882812 L 4218.476562 575.703125 L 4193.476562 575.703125 L 4199.726562 564.882812 L 4212.226562 564.882812 L 4205.976562 554.0625 L 4193.476562 554.0625 L 4187.226562 543.242188 L 4193.476562 532.382812 L 4199.726562 543.242188 L 4212.226562 543.242188 L 4205.976562 532.382812 L 4199.726562 521.5625 L 4187.226562 521.5625 L 4180.976562 532.382812 L 4168.476562 532.382812 L 4174.726562 521.5625 L 4168.476562 510.742188 L 4155.976562 532.382812 L 4162.226562 543.242188 L 4174.726562 543.242188 L 4180.976562 554.0625 " transform="matrix(0.1, 0, 0, -0.1, 0, 74)"/>
<path fill="none" stroke-width="2.99267" stroke-linecap="round" stroke-linejoin="round" stroke="rgb(0%, 0%, 0%)" stroke-opacity="1" stroke-miterlimit="10" d="M 4180.976562 554.0625 L 4187.226562 564.882812 L 4174.726562 564.882812 L 4168.476562 554.0625 L 4162.226562 564.882812 L 4168.476562 575.703125 L 4162.226562 586.523438 L 4149.726562 586.523438 L 4155.976562 575.703125 L 4149.726562 564.882812 L 4137.226562 586.523438 L 4143.476562 597.34375 L 4137.226562 608.164062 L 4112.226562 608.164062 L 4118.4375 597.34375 L 4130.976562 597.34375 L 4124.726562 586.523438 L 4112.226562 586.523438 L 4105.976562 575.703125 L 4112.226562 564.882812 L 4118.4375 554.0625 L 4124.726562 564.882812 L 4118.4375 575.703125 L 4130.976562 575.703125 L 4137.226562 564.882812 L 4130.976562 554.0625 L 4137.226562 543.242188 L 4143.476562 554.0625 L 4155.976562 554.0625 L 4149.726562 543.242188 L 4143.476562 532.382812 L 4130.976562 532.382812 L 4124.726562 543.242188 L 4112.226562 543.242188 L 4118.4375 532.382812 L 4112.226562 521.5625 L 4105.976562 532.382812 L 4099.726562 543.242188 L 4105.976562 554.0625 L 4099.726562 564.882812 L 4087.1875 564.882812 L 4093.476562 554.0625 L 4087.1875 543.242188 L 4080.976562 554.0625 L 4074.6875 564.882812 L 4080.976562 575.703125 L 4093.476562 575.703125 L 4105.976562 597.34375 " transform="matrix(0.1, 0, 0, -0.1, 0, 74)"/>
<path fill="none" stroke-width="2.99267" stroke-linecap="round" stroke-linejoin="round" stroke="rgb(0%, 0%, 0%)" stroke-opacity="1" stroke-miterlimit="10" d="M 4105.976562 597.34375 L 4093.476562 597.34375 L 4087.1875 586.523438 L 4080.976562 597.34375 L 4087.1875 608.164062 L 4099.726562 608.164062 L 4105.976562 618.984375 L 4093.476562 618.984375 L 4087.1875 629.804688 L 4112.226562 629.804688 L 4118.4375 618.984375 L 4130.976562 618.984375 L 4137.226562 629.804688 L 4143.476562 640.664062 L 4130.976562 640.664062 L 4124.726562 629.804688 L 4118.4375 640.664062 L 4124.726562 651.484375 L 4118.4375 662.304688 L 4093.476562 662.304688 L 4099.726562 651.484375 L 4112.226562 651.484375 L 4105.976562 640.664062 L 4093.476562 640.664062 L 4087.1875 651.484375 L 4074.6875 651.484375 L 4080.976562 640.664062 L 4074.6875 629.804688 L 4068.4375 640.664062 L 4062.226562 651.484375 L 4068.4375 662.304688 L 4080.976562 662.304688 L 4087.1875 673.125 L 4074.6875 673.125 L 4068.4375 683.945312 L 4093.476562 683.945312 L 4099.726562 673.125 L 4112.226562 673.125 L 4118.4375 683.945312 L 4105.976562 683.945312 L 4099.726562 694.765625 L 4124.726562 694.765625 L 4130.976562 683.945312 L 4124.726562 673.125 L 4137.226562 651.484375 L 4143.476562 662.304688 " transform="matrix(0.1, 0, 0, -0.1, 0, 74)"/>
<path fill="none" stroke-width="2.99267" stroke-linecap="round" stroke-linejoin="round" stroke="rgb(0%, 0%, 0%)" stroke-opacity="1" stroke-miterlimit="10" d="M 4143.476562 662.304688 L 4137.226562 673.125 L 4149.726562 673.125 L 4155.976562 662.304688 L 4149.726562 651.484375 L 4155.976562 640.664062 L 4162.226562 651.484375 L 4174.726562 651.484375 L 4168.476562 640.664062 L 4162.226562 629.804688 L 4149.726562 629.804688 L 4143.476562 618.984375 L 4155.976562 597.34375 L 4162.226562 608.164062 L 4155.976562 618.984375 L 4168.476562 618.984375 L 4174.726562 608.164062 L 4168.476562 597.34375 L 4180.976562 575.703125 L 4187.226562 586.523438 L 4180.976562 597.34375 L 4193.476562 597.34375 L 4199.726562 586.523438 L 4212.226562 586.523438 L 4224.726562 608.164062 L 4212.226562 608.164062 L 4205.976562 597.34375 L 4199.726562 608.164062 L 4205.976562 618.984375 L 4199.726562 629.804688 L 4187.226562 629.804688 L 4193.476562 618.984375 L 4187.226562 608.164062 L 4174.726562 629.804688 L 4180.976562 640.664062 L 4193.476562 640.664062 L 4199.726562 651.484375 L 4187.226562 651.484375 L 4180.976562 662.304688 L 4205.976562 662.304688 L 4212.226562 651.484375 L 4205.976562 640.664062 L 4212.226562 629.804688 L 4218.476562 618.984375 L 4224.726562 629.804688 L 4218.476562 640.664062 " transform="matrix(0.1, 0, 0, -0.1, 0, 74)"/>
<path fill="none" stroke-width="2.99267" stroke-linecap="round" stroke-linejoin="round" stroke="rgb(0%, 0%, 0%)" stroke-opacity="1" stroke-miterlimit="10" d="M 4218.476562 640.664062 L 4230.976562 640.664062 L 4237.226562 629.804688 " transform="matrix(0.1, 0, 0, -0.1, 0, 74)"/>
</svg>
