<?xml version="1.0" encoding="UTF-8"?>
<svg xmlns="http://www.w3.org/2000/svg" xmlns:xlink="http://www.w3.org/1999/xlink" width="230.38" height="109.69" viewBox="0 0 230.38 109.69">
<path fill="none" stroke-width="5" stroke-linecap="round" stroke-linejoin="round" stroke="rgb(0%, 0%, 0%)" stroke-opacity="1" stroke-miterlimit="10" d="M 79.874789 50.983668 L 1074.788011 50.983668 L 1074.788011 1045.896889 L 79.874789 1045.896889 L 79.874789 50.983668 " transform="matrix(0.0997182, 0, 0, -0.0997182, 0.0155, 109.380874)"/>
<path fill-rule="nonzero" fill="rgb(0%, 0%, 0%)" fill-opacity="1" d="M 57.585938 54.691406 L 107.191406 54.691406 C 107.191406 27.296875 84.980469 5.085938 57.585938 5.085938 C 30.1875 5.085938 7.980469 27.296875 7.980469 54.691406 C 7.980469 82.085938 30.1875 104.296875 57.585938 104.296875 C 84.980469 104.296875 107.191406 82.085938 107.191406 54.691406 C 107.191406 53.039062 107.105469 51.386719 106.941406 49.738281 "/>
<path fill="none" stroke-width="5" stroke-linecap="round" stroke-linejoin="round" stroke="rgb(0%, 0%, 0%)" stroke-opacity="1" stroke-miterlimit="10" d="M 2223.885752 548.440278 C 2223.885752 823.1598 2001.148663 1045.896889 1726.429141 1045.896889 C 1451.709619 1045.896889 1228.972531 823.1598 1228.972531 548.440278 C 1228.972531 273.720756 1451.709619 50.983668 1726.429141 50.983668 C 2001.148663 50.983668 2223.885752 273.720756 2223.885752 548.440278 C 2223.885752 565.010413 2223.023948 581.580549 2221.378687 598.111511 " transform="matrix(0.0997182, 0, 0, -0.0997182, 0.0155, 109.380874)"/>
<path fill-rule="nonzero" fill="rgb(0%, 0%, 0%)" fill-opacity="1" d="M 137.097656 89.769531 L 207.25 89.769531 L 207.25 19.617188 L 137.097656 19.617188 Z M 137.097656 89.769531 "/>
</svg>
