<?xml version="1.0" encoding="UTF-8"?>
<svg xmlns="http://www.w3.org/2000/svg" xmlns:xlink="http://www.w3.org/1999/xlink" width="232" height="182" viewBox="0 0 232 182">
<path fill-rule="nonzero" fill="rgb(78.431702%, 78.039551%, 78.137207%)" fill-opacity="1" d="M 1.433594 87 L 1.433594 67.5 L 20.894531 78.5 L 20.894531 71 L 45.542969 83.5 L 45.542969 76.5 L 69.328125 87 L 69.328125 82 L 94.410156 95 L 94.410156 88 L 118.195312 102 L 118.195312 94 L 143.277344 107 L 143.277344 98 L 161.441406 108 L 161.441406 181.5 L 1.433594 87 "/>
<path fill="none" stroke-width="10" stroke-linecap="butt" stroke-linejoin="miter" stroke="rgb(13.729858%, 12.159729%, 12.548828%)" stroke-opacity="1" stroke-miterlimit="4" d="M 14.335938 950 L 14.335938 1145 L 208.945312 1035 L 208.945312 1110 L 455.429688 985 L 455.429688 1055 L 693.28125 950 L 693.28125 1000 L 944.101562 870 L 944.101562 940 L 1181.953125 800 L 1181.953125 880 L 1432.773438 750 L 1432.773438 840 L 1614.414062 740 L 1614.414062 5 Z M 14.335938 950 " transform="matrix(0.1, 0, 0, -0.1, 0, 182)"/>
<path fill-rule="nonzero" fill="rgb(78.431702%, 78.039551%, 78.137207%)" fill-opacity="1" d="M 161.007812 181 L 231.5 138.5 L 231.5 43 L 212.902344 53.5 L 212.902344 63.5 L 196.039062 71.5 L 196.039062 81.5 L 178.308594 91 L 178.308594 99 L 161.007812 107.5 L 161.007812 181 "/>
<path fill="none" stroke-width="10" stroke-linecap="butt" stroke-linejoin="miter" stroke="rgb(13.729858%, 12.159729%, 12.548828%)" stroke-opacity="1" stroke-miterlimit="4" d="M 1610.078125 10 L 2315 435 L 2315 1390 L 2129.023438 1285 L 2129.023438 1185 L 1960.390625 1105 L 1960.390625 1005 L 1783.085938 910 L 1783.085938 830 L 1610.078125 745 Z M 1610.078125 10 " transform="matrix(0.1, 0, 0, -0.1, 0, 182)"/>
<path fill-rule="nonzero" fill="rgb(78.431702%, 78.039551%, 78.137207%)" fill-opacity="1" stroke-width="10" stroke-linecap="butt" stroke-linejoin="miter" stroke="rgb(13.729858%, 12.159729%, 12.548828%)" stroke-opacity="1" stroke-miterlimit="4" d="M 1437.109375 840 L 1618.75 925 L 1618.75 1000 L 1770.117188 1100 L 1770.117188 1195 L 1934.453125 1285 L 1921.445312 1460 L 1752.8125 1540 L 1739.84375 1620 L 1454.414062 1470 L 1454.414062 1530 L 1190.625 1380 L 1190.625 1435 L 952.773438 1295 L 952.773438 1355 L 684.648438 1215 L 684.648438 1280 L 537.617188 1210 L 624.101562 1150 L 637.070312 1155 L 801.40625 1060 L 874.921875 1100 L 1052.226562 1000 L 1130.078125 1040 L 1298.710938 935 L 1380.898438 990 L 1532.265625 895 " transform="matrix(0.1, 0, 0, -0.1, 0, 182)"/>
<path fill="none" stroke-width="10" stroke-linecap="butt" stroke-linejoin="miter" stroke="rgb(13.729858%, 12.159729%, 12.548828%)" stroke-opacity="1" stroke-miterlimit="4" d="M 10 1140 L 269.453125 1295 L 325.703125 1265 L 533.28125 1385 L 585.15625 1355 L 779.765625 1470 L 831.679688 1440 L 1034.921875 1560 L 1086.835938 1520 L 1298.710938 1640 L 1337.65625 1620 L 1527.929688 1735 L 1584.140625 1700 L 1778.75 1815 L 1960.390625 1730 L 1960.390625 1655 L 2111.757812 1550 L 2111.757812 1465 L 2302.03125 1385 " transform="matrix(0.1, 0, 0, -0.1, 0, 182)"/>
<path fill="none" stroke-width="10" stroke-linecap="square" stroke-linejoin="miter" stroke="rgb(13.729858%, 12.159729%, 12.548828%)" stroke-opacity="1" stroke-miterlimit="4" d="M 451.09375 1060 L 628.398438 1150 " transform="matrix(0.1, 0, 0, -0.1, 0, 182)"/>
<path fill="none" stroke-width="10" stroke-linecap="square" stroke-linejoin="miter" stroke="rgb(13.729858%, 12.159729%, 12.548828%)" stroke-opacity="1" stroke-miterlimit="4" d="M 693.28125 1000 L 810.039062 1065 " transform="matrix(0.1, 0, 0, -0.1, 0, 182)"/>
<path fill="none" stroke-width="10" stroke-linecap="square" stroke-linejoin="miter" stroke="rgb(13.729858%, 12.159729%, 12.548828%)" stroke-opacity="1" stroke-miterlimit="4" d="M 944.101562 935 L 1065.195312 1015 " transform="matrix(0.1, 0, 0, -0.1, 0, 182)"/>
<path fill="none" stroke-width="10" stroke-linecap="square" stroke-linejoin="miter" stroke="rgb(13.729858%, 12.159729%, 12.548828%)" stroke-opacity="1" stroke-miterlimit="4" d="M 1194.921875 885 L 1307.382812 940 " transform="matrix(0.1, 0, 0, -0.1, 0, 182)"/>
<path fill="none" stroke-width="10" stroke-linecap="square" stroke-linejoin="miter" stroke="rgb(13.729858%, 12.159729%, 12.548828%)" stroke-opacity="1" stroke-miterlimit="4" d="M 585.15625 1360 L 684.648438 1290 " transform="matrix(0.1, 0, 0, -0.1, 0, 182)"/>
<path fill="none" stroke-width="10" stroke-linecap="square" stroke-linejoin="miter" stroke="rgb(13.729858%, 12.159729%, 12.548828%)" stroke-opacity="1" stroke-miterlimit="4" d="M 823.007812 1440 L 948.4375 1355 " transform="matrix(0.1, 0, 0, -0.1, 0, 182)"/>
<path fill="none" stroke-width="10" stroke-linecap="square" stroke-linejoin="miter" stroke="rgb(13.729858%, 12.159729%, 12.548828%)" stroke-opacity="1" stroke-miterlimit="4" d="M 1082.5 1525 L 1190.625 1445 " transform="matrix(0.1, 0, 0, -0.1, 0, 182)"/>
<path fill="none" stroke-width="10" stroke-linecap="square" stroke-linejoin="miter" stroke="rgb(13.729858%, 12.159729%, 12.548828%)" stroke-opacity="1" stroke-miterlimit="4" d="M 1328.984375 1625 L 1463.046875 1530 " transform="matrix(0.1, 0, 0, -0.1, 0, 182)"/>
<path fill="none" stroke-width="10" stroke-linecap="square" stroke-linejoin="miter" stroke="rgb(13.729858%, 12.159729%, 12.548828%)" stroke-opacity="1" stroke-miterlimit="4" d="M 1744.140625 1610 L 1579.804688 1700 " transform="matrix(0.1, 0, 0, -0.1, 0, 182)"/>
<path fill-rule="nonzero" fill="rgb(56.864929%, 56.079102%, 56.274414%)" fill-opacity="1" d="M 161.441406 89.5 L 177.441406 99.5 L 177.441406 91.5 L 162.308594 82 L 161.441406 89.5 "/>
<path fill="none" stroke-width="10" stroke-linecap="butt" stroke-linejoin="miter" stroke="rgb(13.729858%, 12.159729%, 12.548828%)" stroke-opacity="1" stroke-miterlimit="4" d="M 1614.414062 925 L 1774.414062 825 L 1774.414062 905 L 1623.085938 1000 Z M 1614.414062 925 " transform="matrix(0.1, 0, 0, -0.1, 0, 182)"/>
<path fill-rule="nonzero" fill="rgb(56.864929%, 56.079102%, 56.274414%)" fill-opacity="1" d="M 177.011719 72.5 L 195.175781 82 L 195.175781 71 L 177.441406 62.5 L 177.011719 72.5 "/>
<path fill="none" stroke-width="10" stroke-linecap="butt" stroke-linejoin="miter" stroke="rgb(13.729858%, 12.159729%, 12.548828%)" stroke-opacity="1" stroke-miterlimit="4" d="M 1770.117188 1095 L 1951.757812 1000 L 1951.757812 1110 L 1774.414062 1195 Z M 1770.117188 1095 " transform="matrix(0.1, 0, 0, -0.1, 0, 182)"/>
<path fill-rule="nonzero" fill="rgb(56.864929%, 56.079102%, 56.274414%)" fill-opacity="1" d="M 193.445312 53.5 L 213.335938 63.5 L 213.335938 54 L 193.15625 44.5 L 193.445312 53.5 "/>
<path fill="none" stroke-width="10" stroke-linecap="butt" stroke-linejoin="miter" stroke="rgb(13.729858%, 12.159729%, 12.548828%)" stroke-opacity="1" stroke-miterlimit="4" d="M 1934.453125 1285 L 2133.359375 1185 L 2133.359375 1280 L 1931.5625 1375 Z M 1934.453125 1285 " transform="matrix(0.1, 0, 0, -0.1, 0, 182)"/>
<path fill-rule="nonzero" fill="rgb(56.864929%, 56.079102%, 56.274414%)" fill-opacity="1" d="M 193.011719 36.5 L 192.578125 45 L 210.742188 37 L 210.742188 27.5 L 193.011719 36.5 "/>
<path fill="none" stroke-width="10" stroke-linecap="butt" stroke-linejoin="miter" stroke="rgb(13.729858%, 12.159729%, 12.548828%)" stroke-opacity="1" stroke-miterlimit="4" d="M 1930.117188 1455 L 1925.78125 1370 L 2107.421875 1450 L 2107.421875 1545 Z M 1930.117188 1455 " transform="matrix(0.1, 0, 0, -0.1, 0, 182)"/>
<path fill-rule="nonzero" fill="rgb(56.864929%, 56.079102%, 56.274414%)" fill-opacity="1" d="M 174.414062 20 L 195.605469 9.5 L 195.605469 17.5 L 175.28125 27 L 174.414062 20 "/>
<path fill="none" stroke-width="10" stroke-linecap="butt" stroke-linejoin="miter" stroke="rgb(13.729858%, 12.159729%, 12.548828%)" stroke-opacity="1" stroke-miterlimit="4" d="M 1744.140625 1620 L 1956.054688 1725 L 1956.054688 1645 L 1752.8125 1550 Z M 1744.140625 1620 " transform="matrix(0.1, 0, 0, -0.1, 0, 182)"/>
<path fill="none" stroke-width="10" stroke-linecap="butt" stroke-linejoin="miter" stroke="rgb(13.729858%, 12.159729%, 12.548828%)" stroke-opacity="1" stroke-miterlimit="4" d="M 213.242188 1105 L 464.0625 1245 L 537.617188 1210 " transform="matrix(0.1, 0, 0, -0.1, 0, 182)"/>
<path fill="none" stroke-width="10" stroke-linecap="square" stroke-linejoin="miter" stroke="rgb(13.729858%, 12.159729%, 12.548828%)" stroke-opacity="1" stroke-miterlimit="4" d="M 304.0625 1275 L 394.882812 1210 " transform="matrix(0.1, 0, 0, -0.1, 0, 182)"/>
</svg>
