<?xml version="1.0" encoding="UTF-8"?>
<svg xmlns="http://www.w3.org/2000/svg" xmlns:xlink="http://www.w3.org/1999/xlink" width="260" height="136" viewBox="0 0 260 136">
<path fill="none" stroke-width="3.6" stroke-linecap="square" stroke-linejoin="miter" stroke="rgb(0%, 0%, 0%)" stroke-opacity="1" stroke-miterlimit="3.25" d="M 627.109375 1153.007812 L 125.429688 788.515625 " transform="matrix(0.1, 0, 0, -0.1, 0, 136)"/>
<path fill="none" stroke-width="3.6" stroke-linecap="square" stroke-linejoin="miter" stroke="rgb(0%, 0%, 0%)" stroke-opacity="1" stroke-miterlimit="3.25" d="M 627.109375 1153.007812 L 316.914062 198.710938 " transform="matrix(0.1, 0, 0, -0.1, 0, 136)"/>
<path fill="none" stroke-width="3.6" stroke-linecap="square" stroke-linejoin="miter" stroke="rgb(0%, 0%, 0%)" stroke-opacity="1" stroke-miterlimit="3.25" d="M 627.109375 1153.007812 L 937.265625 198.710938 " transform="matrix(0.1, 0, 0, -0.1, 0, 136)"/>
<path fill="none" stroke-width="3.6" stroke-linecap="square" stroke-linejoin="miter" stroke="rgb(0%, 0%, 0%)" stroke-opacity="1" stroke-miterlimit="3.25" d="M 627.109375 1153.007812 L 1128.789062 788.515625 " transform="matrix(0.1, 0, 0, -0.1, 0, 136)"/>
<path fill="none" stroke-width="3.6" stroke-linecap="square" stroke-linejoin="miter" stroke="rgb(0%, 0%, 0%)" stroke-opacity="1" stroke-miterlimit="3.25" d="M 125.429688 788.515625 L 316.914062 198.710938 " transform="matrix(0.1, 0, 0, -0.1, 0, 136)"/>
<path fill="none" stroke-width="3.6" stroke-linecap="square" stroke-linejoin="miter" stroke="rgb(0%, 0%, 0%)" stroke-opacity="1" stroke-miterlimit="3.25" d="M 125.429688 788.515625 L 937.265625 198.710938 " transform="matrix(0.1, 0, 0, -0.1, 0, 136)"/>
<path fill="none" stroke-width="3.6" stroke-linecap="square" stroke-linejoin="miter" stroke="rgb(0%, 0%, 0%)" stroke-opacity="1" stroke-miterlimit="3.25" d="M 125.429688 788.515625 L 1128.789062 788.515625 " transform="matrix(0.1, 0, 0, -0.1, 0, 136)"/>
<path fill="none" stroke-width="3.6" stroke-linecap="square" stroke-linejoin="miter" stroke="rgb(0%, 0%, 0%)" stroke-opacity="1" stroke-miterlimit="3.25" d="M 316.914062 198.710938 L 937.265625 198.710938 " transform="matrix(0.1, 0, 0, -0.1, 0, 136)"/>
<path fill="none" stroke-width="3.6" stroke-linecap="square" stroke-linejoin="miter" stroke="rgb(0%, 0%, 0%)" stroke-opacity="1" stroke-miterlimit="3.25" d="M 316.914062 198.710938 L 1128.789062 788.515625 " transform="matrix(0.1, 0, 0, -0.1, 0, 136)"/>
<path fill="none" stroke-width="3.6" stroke-linecap="square" stroke-linejoin="miter" stroke="rgb(0%, 0%, 0%)" stroke-opacity="1" stroke-miterlimit="3.25" d="M 937.265625 198.710938 L 1128.789062 788.515625 " transform="matrix(0.1, 0, 0, -0.1, 0, 136)"/>
<path fill="none" stroke-width="36" stroke-linecap="round" stroke-linejoin="miter" stroke="rgb(100%, 0%, 0%)" stroke-opacity="1" stroke-miterlimit="3.25" d="M 627.109375 1153.007812 L 627.109375 1153.007812 " transform="matrix(0.1, 0, 0, -0.1, 0, 136)"/>
<path fill="none" stroke-width="36" stroke-linecap="round" stroke-linejoin="miter" stroke="rgb(100%, 0%, 0%)" stroke-opacity="1" stroke-miterlimit="3.25" d="M 125.429688 788.515625 L 125.429688 788.515625 " transform="matrix(0.1, 0, 0, -0.1, 0, 136)"/>
<path fill="none" stroke-width="36" stroke-linecap="round" stroke-linejoin="miter" stroke="rgb(100%, 0%, 0%)" stroke-opacity="1" stroke-miterlimit="3.25" d="M 316.914062 198.710938 L 316.914062 198.710938 " transform="matrix(0.1, 0, 0, -0.1, 0, 136)"/>
<path fill="none" stroke-width="36" stroke-linecap="round" stroke-linejoin="miter" stroke="rgb(100%, 0%, 0%)" stroke-opacity="1" stroke-miterlimit="3.25" d="M 937.265625 198.710938 L 937.265625 198.710938 " transform="matrix(0.1, 0, 0, -0.1, 0, 136)"/>
<path fill="none" stroke-width="36" stroke-linecap="round" stroke-linejoin="miter" stroke="rgb(100%, 0%, 0%)" stroke-opacity="1" stroke-miterlimit="3.25" d="M 1128.789062 788.515625 L 1128.789062 788.515625 " transform="matrix(0.1, 0, 0, -0.1, 0, 136)"/>
<path fill="none" stroke-width="3.6" stroke-linecap="square" stroke-linejoin="miter" stroke="rgb(0%, 0%, 0%)" stroke-opacity="1" stroke-miterlimit="3.25" d="M 1463.242188 241.171875 L 1766.71875 496.015625 " transform="matrix(0.1, 0, 0, -0.1, 0, 136)"/>
<path fill="none" stroke-width="3.6" stroke-linecap="square" stroke-linejoin="miter" stroke="rgb(0%, 0%, 0%)" stroke-opacity="1" stroke-miterlimit="3.25" d="M 1463.242188 241.171875 L 1964.882812 1110.546875 " transform="matrix(0.1, 0, 0, -0.1, 0, 136)"/>
<path fill="none" stroke-width="3.6" stroke-linecap="square" stroke-linejoin="miter" stroke="rgb(0%, 0%, 0%)" stroke-opacity="1" stroke-miterlimit="3.25" d="M 1463.242188 241.171875 L 2162.96875 496.015625 " transform="matrix(0.1, 0, 0, -0.1, 0, 136)"/>
<path fill="none" stroke-width="3.6" stroke-linecap="square" stroke-linejoin="miter" stroke="rgb(0%, 0%, 0%)" stroke-opacity="1" stroke-miterlimit="3.25" d="M 1463.242188 241.171875 L 2466.5625 241.171875 " transform="matrix(0.1, 0, 0, -0.1, 0, 136)"/>
<path fill="none" stroke-width="3.6" stroke-linecap="square" stroke-linejoin="miter" stroke="rgb(0%, 0%, 0%)" stroke-opacity="1" stroke-miterlimit="3.25" d="M 1766.71875 496.015625 L 1964.882812 1110.546875 " transform="matrix(0.1, 0, 0, -0.1, 0, 136)"/>
<path fill="none" stroke-width="3.6" stroke-linecap="square" stroke-linejoin="miter" stroke="rgb(0%, 0%, 0%)" stroke-opacity="1" stroke-miterlimit="3.25" d="M 1766.71875 496.015625 L 2162.96875 496.015625 " transform="matrix(0.1, 0, 0, -0.1, 0, 136)"/>
<path fill="none" stroke-width="3.6" stroke-linecap="square" stroke-linejoin="miter" stroke="rgb(0%, 0%, 0%)" stroke-opacity="1" stroke-miterlimit="3.25" d="M 1766.71875 496.015625 L 2466.5625 241.171875 " transform="matrix(0.1, 0, 0, -0.1, 0, 136)"/>
<path fill="none" stroke-width="3.6" stroke-linecap="square" stroke-linejoin="miter" stroke="rgb(0%, 0%, 0%)" stroke-opacity="1" stroke-miterlimit="3.25" d="M 1964.882812 1110.546875 L 2162.96875 496.015625 " transform="matrix(0.1, 0, 0, -0.1, 0, 136)"/>
<path fill="none" stroke-width="3.6" stroke-linecap="square" stroke-linejoin="miter" stroke="rgb(0%, 0%, 0%)" stroke-opacity="1" stroke-miterlimit="3.25" d="M 1964.882812 1110.546875 L 2466.5625 241.171875 " transform="matrix(0.1, 0, 0, -0.1, 0, 136)"/>
<path fill="none" stroke-width="3.6" stroke-linecap="square" stroke-linejoin="miter" stroke="rgb(0%, 0%, 0%)" stroke-opacity="1" stroke-miterlimit="3.25" d="M 2162.96875 496.015625 L 2466.5625 241.171875 " transform="matrix(0.1, 0, 0, -0.1, 0, 136)"/>
<path fill="none" stroke-width="36" stroke-linecap="round" stroke-linejoin="miter" stroke="rgb(100%, 0%, 0%)" stroke-opacity="1" stroke-miterlimit="3.25" d="M 1463.242188 241.171875 L 1463.242188 241.171875 " transform="matrix(0.1, 0, 0, -0.1, 0, 136)"/>
<path fill="none" stroke-width="36" stroke-linecap="round" stroke-linejoin="miter" stroke="rgb(100%, 0%, 0%)" stroke-opacity="1" stroke-miterlimit="3.25" d="M 1766.71875 496.015625 L 1766.71875 496.015625 " transform="matrix(0.1, 0, 0, -0.1, 0, 136)"/>
<path fill="none" stroke-width="36" stroke-linecap="round" stroke-linejoin="miter" stroke="rgb(100%, 0%, 0%)" stroke-opacity="1" stroke-miterlimit="3.25" d="M 1964.882812 1110.546875 L 1964.882812 1110.546875 " transform="matrix(0.1, 0, 0, -0.1, 0, 136)"/>
<path fill="none" stroke-width="36" stroke-linecap="round" stroke-linejoin="miter" stroke="rgb(100%, 0%, 0%)" stroke-opacity="1" stroke-miterlimit="3.25" d="M 2162.96875 496.015625 L 2162.96875 496.015625 " transform="matrix(0.1, 0, 0, -0.1, 0, 136)"/>
<path fill="none" stroke-width="36" stroke-linecap="round" stroke-linejoin="miter" stroke="rgb(100%, 0%, 0%)" stroke-opacity="1" stroke-miterlimit="3.25" d="M 2466.5625 241.171875 L 2466.5625 241.171875 " transform="matrix(0.1, 0, 0, -0.1, 0, 136)"/>
</svg>
