<?xml version="1.0" encoding="UTF-8"?>
<svg xmlns="http://www.w3.org/2000/svg" xmlns:xlink="http://www.w3.org/1999/xlink" width="429" height="161" viewBox="0 0 429 161">
<path fill="none" stroke-width="10" stroke-linecap="butt" stroke-linejoin="miter" stroke="rgb(13.729858%, 12.159729%, 12.548828%)" stroke-opacity="1" stroke-miterlimit="11.5" d="M 476.054688 1547.34375 L 501.289062 1561.71875 L 524.492188 1572.34375 L 545.664062 1579.21875 L 564.804688 1582.34375 L 599.804688 1580.46875 L 632.304688 1569.84375 L 661.992188 1552.03125 L 688.554688 1528.59375 L 709.179688 1503.28125 L 721.054688 1479.84375 L 726.992188 1455.78125 L 729.804688 1428.59375 L 727.929688 1400.46875 L 719.804688 1373.59375 L 706.679688 1347.65625 L 689.804688 1322.34375 L 671.367188 1296.71875 L 653.554688 1269.84375 L 638.242188 1240.78125 L 627.304688 1208.59375 L 623.007812 1189.84375 L 618.867188 1167.34375 L 614.882812 1141.09375 L 611.054688 1111.09375 L 607.070312 1081.328125 L 602.617188 1055.78125 L 597.695312 1034.453125 L 592.304688 1017.34375 L 578.867188 987.96875 L 561.054688 959.84375 L 540.117188 936.40625 L 517.304688 921.09375 L 492.617188 912.34375 L 466.054688 908.59375 L 439.179688 911.09375 L 413.554688 921.09375 L 390.429688 937.34375 L 371.054688 958.59375 L 354.804688 983.28125 L 341.054688 1009.84375 L 331.992188 1037.65625 L 329.804688 1066.09375 L 330.429688 1095.15625 L 329.804688 1124.84375 L 328.867188 1153.28125 L 328.554688 1178.59375 L 326.679688 1203.28125 L 321.054688 1229.84375 L 311.054688 1257.65625 L 296.054688 1286.09375 L 279.804688 1315.46875 L 266.054688 1346.09375 L 257.617188 1375.78125 L 257.304688 1402.34375 L 263.554688 1427.96875 L 274.804688 1454.84375 L 289.492188 1480.15625 L 306.054688 1501.09375 L 326.367188 1518.59375 L 352.304688 1533.59375 L 381.679688 1544.21875 L 412.304688 1548.59375 L 443.242188 1546.71875 L 473.554688 1538.59375 L 499.492188 1526.71875 L 517.304688 1513.59375 L 530.742188 1496.71875 L 543.554688 1473.59375 L 554.804688 1448.90625 L 563.554688 1427.34375 L 568.867188 1407.34375 L 569.804688 1387.34375 L 566.367188 1365.46875 L 558.554688 1339.84375 " transform="matrix(0.1, 0, 0, -0.1, 0, 161)"/>
<path fill="none" stroke-width="10" stroke-linecap="butt" stroke-linejoin="miter" stroke="rgb(13.729858%, 12.159729%, 12.548828%)" stroke-opacity="1" stroke-miterlimit="11.5" d="M 488.554688 1449.84375 L 488.164062 1424.921875 L 489.492188 1405.15625 L 492.539062 1390.546875 L 497.304688 1381.09375 L 510.429688 1367.96875 L 527.304688 1356.09375 L 547.929688 1347.34375 L 572.304688 1343.59375 L 598.242188 1346.71875 L 623.554688 1358.59375 L 644.492188 1376.40625 L 657.304688 1397.34375 L 661.992188 1420.46875 L 658.554688 1444.84375 L 650.117188 1467.96875 L 639.804688 1487.34375 L 625.117188 1501.40625 L 603.554688 1508.59375 L 581.054688 1511.40625 L 563.554688 1512.34375 L 547.929688 1509.84375 L 531.054688 1502.34375 " transform="matrix(0.1, 0, 0, -0.1, 0, 161)"/>
<path fill="none" stroke-width="10" stroke-linecap="butt" stroke-linejoin="miter" stroke="rgb(13.729858%, 12.159729%, 12.548828%)" stroke-opacity="1" stroke-miterlimit="11.5" d="M 421.054688 1477.34375 L 424.804688 1440.9375 L 428.554688 1411.71875 L 432.304688 1389.6875 L 436.054688 1374.84375 L 445.117188 1353.28125 L 457.304688 1333.59375 L 472.617188 1316.71875 L 491.054688 1303.59375 L 511.054688 1290.15625 L 531.054688 1272.34375 L 546.992188 1250.46875 L 554.804688 1224.84375 L 557.304688 1197.03125 L 557.304688 1168.59375 L 554.804688 1138.59375 L 549.804688 1106.09375 L 542.304688 1072.34375 L 532.304688 1038.59375 L 526.523438 1023.046875 L 520.429688 1010.15625 L 514.023438 999.921875 L 507.304688 992.34375 L 491.367188 983.59375 L 471.054688 982.34375 L 449.804688 987.65625 L 431.054688 998.59375 L 416.679688 1016.09375 L 408.554688 1041.09375 L 404.179688 1068.90625 L 401.054688 1094.84375 L 400.429688 1118.28125 L 403.554688 1138.59375 L 409.492188 1158.28125 L 417.304688 1179.84375 L 427.304688 1199.53125 L 439.804688 1213.59375 L 454.179688 1223.90625 L 469.804688 1232.34375 L 479.257812 1237.8125 L 491.367188 1246.71875 L 506.132812 1259.0625 L 523.554688 1274.84375 " transform="matrix(0.1, 0, 0, -0.1, 0, 161)"/>
<path fill="none" stroke-width="10" stroke-linecap="butt" stroke-linejoin="miter" stroke="rgb(13.729858%, 12.159729%, 12.548828%)" stroke-opacity="1" stroke-miterlimit="11.5" d="M 506.054688 1372.34375 L 506.210938 1393.125 L 504.179688 1410.46875 L 499.960938 1424.375 L 493.554688 1434.84375 L 477.617188 1450.15625 L 459.804688 1461.09375 L 438.554688 1467.96875 L 412.304688 1471.09375 L 385.429688 1469.21875 L 362.304688 1461.09375 L 343.867188 1444.84375 L 331.054688 1418.59375 L 325.742188 1388.28125 L 329.804688 1359.84375 L 341.054688 1336.09375 L 357.304688 1319.84375 L 377.617188 1308.90625 L 401.054688 1301.09375 L 423.242188 1297.96875 L 439.804688 1301.09375 L 453.867188 1308.90625 L 468.554688 1319.84375 " transform="matrix(0.1, 0, 0, -0.1, 0, 161)"/>
<path fill="none" stroke-width="10" stroke-linecap="butt" stroke-linejoin="miter" stroke="rgb(13.729858%, 12.159729%, 12.548828%)" stroke-opacity="1" stroke-miterlimit="11.5" d="M 1396.835938 1332.34375 L 1436.757812 1308.75 L 1469.023438 1287.96875 L 1493.632812 1270 L 1510.585938 1254.84375 L 1534.335938 1227.03125 L 1553.085938 1198.59375 L 1565.273438 1167.03125 L 1569.335938 1129.84375 L 1564.648438 1092.65625 L 1550.585938 1061.09375 L 1528.085938 1032.65625 L 1498.085938 1004.84375 L 1463.085938 981.40625 L 1425.585938 966.09375 L 1384.648438 956.09375 L 1339.335938 948.59375 L 1291.523438 943.59375 L 1243.085938 941.09375 L 1194.960938 942.03125 L 1148.085938 947.34375 L 1102.148438 955.78125 L 1056.835938 966.09375 L 1011.835938 980.15625 L 966.835938 999.84375 L 924.648438 1024.53125 L 888.085938 1053.59375 L 858.398438 1085.46875 L 836.835938 1118.59375 L 824.335938 1152.03125 L 821.835938 1184.84375 L 827.148438 1216.40625 L 838.085938 1246.09375 L 856.210938 1273.90625 L 883.085938 1299.84375 L 914.335938 1322.65625 L 945.585938 1341.09375 L 962.617188 1348.90625 L 982.460938 1356.09375 L 1005.117188 1362.65625 L 1030.585938 1368.59375 L 1083.398438 1377.03125 L 1134.335938 1379.84375 L 1215.585938 1379.84375 L 1234.257812 1378.28125 L 1259.023438 1373.59375 L 1289.882812 1365.78125 L 1326.835938 1354.84375 " transform="matrix(0.1, 0, 0, -0.1, 0, 161)"/>
<path fill="none" stroke-width="10" stroke-linecap="butt" stroke-linejoin="miter" stroke="rgb(13.729858%, 12.159729%, 12.548828%)" stroke-opacity="1" stroke-miterlimit="11.5" d="M 1291.835938 1289.84375 L 1239.335938 1299.6875 L 1196.835938 1306.71875 L 1164.335938 1310.9375 L 1141.835938 1312.34375 L 1106.835938 1311.09375 L 1071.835938 1307.34375 L 1037.460938 1301.09375 L 1004.335938 1292.34375 L 972.460938 1279.53125 L 941.835938 1261.09375 L 928.164062 1249.921875 L 917.148438 1237.65625 L 908.789062 1224.296875 L 903.085938 1209.84375 L 898.398438 1182.03125 L 901.835938 1158.59375 L 913.398438 1137.03125 L 933.085938 1114.84375 L 957.460938 1093.90625 L 983.085938 1076.09375 L 1009.023438 1061.71875 L 1034.335938 1051.09375 L 1059.023438 1043.59375 L 1083.085938 1038.59375 L 1105.898438 1036.71875 L 1126.835938 1038.59375 L 1136.054688 1042.109375 L 1143.710938 1048.90625 L 1149.804688 1058.984375 L 1154.335938 1072.34375 L 1160.273438 1101.09375 L 1163.085938 1127.34375 L 1162.773438 1151.09375 L 1159.335938 1172.34375 L 1151.523438 1192.03125 L 1138.085938 1211.09375 L 1121.835938 1229.53125 L 1105.585938 1247.34375 L 1087.148438 1269.84375 L 1064.335938 1302.34375 " transform="matrix(0.1, 0, 0, -0.1, 0, 161)"/>
<path fill="none" stroke-width="10" stroke-linecap="butt" stroke-linejoin="miter" stroke="rgb(13.729858%, 12.159729%, 12.548828%)" stroke-opacity="1" stroke-miterlimit="11.5" d="M 1051.835938 1379.84375 L 1056.132812 1404.6875 L 1061.523438 1426.71875 L 1068.007812 1445.9375 L 1075.585938 1462.34375 L 1094.335938 1489.53125 L 1118.085938 1511.09375 L 1146.523438 1528.28125 L 1179.335938 1542.34375 L 1213.085938 1549.84375 L 1244.335938 1547.34375 L 1274.023438 1538.90625 L 1303.085938 1528.59375 L 1329.960938 1512.96875 L 1353.085938 1488.59375 L 1371.835938 1459.21875 L 1385.585938 1428.59375 L 1393.398438 1394.84375 L 1394.335938 1356.09375 L 1389.335938 1318.59375 L 1379.335938 1288.59375 L 1365.273438 1264.53125 L 1348.085938 1244.84375 L 1327.460938 1228.90625 L 1303.085938 1216.09375 L 1278.398438 1202.34375 L 1256.835938 1183.59375 L 1240.585938 1159.84375 L 1231.835938 1131.09375 L 1229.023438 1100.15625 L 1230.585938 1069.84375 L 1238.398438 1043.28125 L 1254.335938 1023.59375 L 1278.398438 1010.46875 L 1310.585938 1003.59375 L 1344.648438 1002.96875 L 1374.335938 1008.59375 L 1401.835938 1018.28125 L 1429.335938 1029.84375 L 1454.023438 1045.15625 L 1473.085938 1066.09375 L 1486.210938 1091.71875 L 1493.085938 1121.09375 L 1492.460938 1150.46875 L 1483.085938 1176.09375 L 1469.023438 1197.34375 L 1454.335938 1213.59375 L 1438.398438 1226.71875 L 1420.585938 1238.59375 L 1399.023438 1250.78125 L 1371.835938 1264.84375 " transform="matrix(0.1, 0, 0, -0.1, 0, 161)"/>
<path fill="none" stroke-width="10" stroke-linecap="butt" stroke-linejoin="miter" stroke="rgb(13.729858%, 12.159729%, 12.548828%)" stroke-opacity="1" stroke-miterlimit="11.5" d="M 1121.835938 1387.34375 L 1139.023438 1417.65625 L 1155.585938 1438.59375 L 1173.710938 1452.96875 L 1195.585938 1463.59375 L 1220.585938 1468.90625 L 1248.085938 1467.34375 L 1274.648438 1459.21875 L 1296.835938 1444.84375 L 1313.398438 1425.78125 L 1323.085938 1403.59375 L 1325.898438 1378.59375 L 1321.835938 1351.09375 L 1312.773438 1324.84375 L 1300.585938 1303.59375 L 1284.648438 1286.71875 L 1264.335938 1273.59375 L 1240.898438 1265.78125 L 1215.585938 1264.84375 L 1192.148438 1268.90625 L 1174.335938 1276.09375 L 1158.710938 1288.90625 L 1141.835938 1309.84375 " transform="matrix(0.1, 0, 0, -0.1, 0, 161)"/>
<path fill="none" stroke-width="10" stroke-linecap="butt" stroke-linejoin="miter" stroke="rgb(13.729858%, 12.159729%, 12.548828%)" stroke-opacity="1" stroke-miterlimit="11.5" d="M 2243.007812 1286.71875 L 2280.507812 1261.71875 L 2310.507812 1239.21875 L 2333.007812 1219.21875 L 2348.007812 1201.71875 L 2358.007812 1185.625 L 2365.507812 1169.84375 L 2370.507812 1154.375 L 2373.007812 1139.21875 L 2371.757812 1110.78125 L 2363.007812 1085.46875 L 2346.445312 1062.34375 L 2321.757812 1040.46875 L 2293.945312 1022.03125 L 2268.007812 1009.21875 L 2243.007812 1001.40625 L 2218.007812 997.96875 L 2195.507812 1001.40625 L 2178.007812 1014.21875 L 2167.695312 1032.34375 L 2166.757812 1051.71875 L 2173.007812 1076.40625 L 2184.257812 1110.46875 L 2198.007812 1148.28125 L 2211.757812 1184.21875 L 2218.554688 1203.203125 L 2225.195312 1225.15625 L 2231.679688 1250.078125 L 2238.007812 1277.96875 L 2248.007812 1331.71875 L 2253.007812 1375.46875 L 2252.070312 1411.71875 L 2244.257812 1442.96875 L 2231.757812 1470.78125 L 2216.757812 1496.71875 L 2198.007812 1520.46875 L 2174.257812 1541.71875 L 2147.070312 1557.96875 L 2118.007812 1566.71875 L 2087.695312 1567.96875 L 2056.757812 1561.71875 L 2027.695312 1549.53125 L 2003.007812 1532.96875 L 1982.382812 1514.53125 L 1965.507812 1496.71875 L 1951.757812 1478.59375 L 1940.507812 1459.21875 L 1931.757812 1437.34375 L 1925.507812 1411.71875 " transform="matrix(0.1, 0, 0, -0.1, 0, 161)"/>
<path fill="none" stroke-width="10" stroke-linecap="butt" stroke-linejoin="miter" stroke="rgb(13.729858%, 12.159729%, 12.548828%)" stroke-opacity="1" stroke-miterlimit="11.5" d="M 2255.507812 1361.71875 L 2298.632812 1336.71875 L 2333.007812 1311.71875 L 2360.820312 1286.40625 L 2384.257812 1260.46875 L 2403.320312 1233.28125 L 2418.007812 1204.21875 L 2428.320312 1172.34375 L 2434.257812 1136.71875 L 2434.726562 1117.890625 L 2432.382812 1098.90625 L 2427.226562 1079.765625 L 2419.257812 1060.46875 L 2398.632812 1024.53125 L 2374.257812 994.21875 L 2345.820312 970.15625 L 2313.007812 952.96875 L 2274.882812 940.78125 L 2230.507812 931.71875 L 2182.382812 925.78125 L 2133.007812 922.96875 L 2082.695312 923.59375 L 2031.757812 927.96875 L 1978.632812 936.71875 L 1921.757812 950.46875 L 1865.820312 969.21875 L 1815.507812 992.96875 L 1771.132812 1022.65625 L 1733.007812 1059.21875 L 1717.070312 1079.21875 L 1704.257812 1099.21875 L 1694.570312 1119.21875 L 1688.007812 1139.21875 L 1681.132812 1177.96875 L 1680.507812 1214.21875 L 1686.757812 1248.90625 L 1700.507812 1282.96875 L 1718.632812 1312.65625 L 1738.007812 1334.21875 L 1760.195312 1351.40625 L 1786.757812 1367.96875 L 1817.070312 1382.34375 L 1850.507812 1392.96875 L 1885.507812 1401.09375 L 1920.507812 1407.96875 L 1957.695312 1412.34375 L 1999.257812 1412.96875 L 2040.820312 1411.09375 L 2078.007812 1407.96875 L 2098.007812 1405.234375 L 2123.007812 1400.78125 L 2153.007812 1394.609375 L 2188.007812 1386.71875 " transform="matrix(0.1, 0, 0, -0.1, 0, 161)"/>
<path fill="none" stroke-width="10" stroke-linecap="butt" stroke-linejoin="miter" stroke="rgb(13.729858%, 12.159729%, 12.548828%)" stroke-opacity="1" stroke-miterlimit="11.5" d="M 1993.007812 1414.21875 L 2010.664062 1435.859375 L 2026.132812 1453.28125 L 2039.414062 1466.484375 L 2050.507812 1475.46875 L 2071.757812 1486.71875 L 2095.507812 1492.96875 L 2107.617188 1493.359375 L 2118.945312 1490.78125 L 2129.492188 1485.234375 L 2139.257812 1476.71875 L 2156.132812 1455.46875 L 2169.257812 1431.71875 L 2178.632812 1406.40625 L 2184.257812 1380.46875 L 2185.507812 1351.71875 L 2181.757812 1317.96875 L 2173.945312 1282.34375 L 2163.007812 1247.96875 L 2150.507812 1213.28125 L 2138.007812 1176.71875 L 2124.570312 1140.15625 L 2109.257812 1105.46875 L 2094.882812 1075.15625 L 2084.257812 1051.71875 L 2074.570312 1034.21875 L 2063.007812 1021.71875 L 2050.820312 1013.59375 L 2039.257812 1009.21875 L 2028.007812 1009.84375 L 2016.757812 1016.71875 L 2005.507812 1030.15625 L 1994.257812 1050.46875 L 1983.945312 1075.78125 L 1975.507812 1104.21875 L 1969.257812 1135.46875 L 1965.507812 1169.21875 L 1964.257812 1204.21875 L 1965.507812 1239.21875 L 1968.007812 1270.46875 L 1970.507812 1294.21875 L 1973.632812 1316.09375 L 1978.007812 1341.71875 " transform="matrix(0.1, 0, 0, -0.1, 0, 161)"/>
<path fill="none" stroke-width="10" stroke-linecap="butt" stroke-linejoin="miter" stroke="rgb(13.729858%, 12.159729%, 12.548828%)" stroke-opacity="1" stroke-miterlimit="11.5" d="M 2178.007812 1311.71875 L 2142.929688 1319.53125 L 2112.695312 1325.46875 L 2087.304688 1329.53125 L 2066.757812 1331.71875 L 2031.445312 1333.90625 L 1998.007812 1335.46875 L 1964.257812 1334.53125 L 1928.007812 1329.21875 L 1892.695312 1321.40625 L 1861.757812 1312.96875 L 1833.945312 1302.34375 L 1808.007812 1287.96875 L 1786.132812 1268.59375 L 1770.507812 1242.96875 L 1761.757812 1214.21875 L 1760.507812 1185.46875 L 1765.820312 1158.28125 L 1776.757812 1134.21875 L 1791.757812 1112.65625 L 1809.257812 1092.96875 L 1828.945312 1076.40625 L 1850.507812 1064.21875 L 1870.820312 1057.65625 L 1886.757812 1057.96875 L 1898.320312 1063.90625 L 1905.507812 1074.21875 L 1909.257812 1090.46875 L 1910.507812 1114.21875 L 1909.882812 1140.15625 L 1908.007812 1162.96875 L 1905.195312 1186.71875 L 1901.757812 1215.46875 L 1899.257812 1242.96875 L 1899.257812 1262.96875 L 1900.117188 1272.890625 L 1901.445312 1286.40625 L 1903.242188 1303.515625 L 1905.507812 1324.21875 " transform="matrix(0.1, 0, 0, -0.1, 0, 161)"/>
<path fill="none" stroke-width="10" stroke-linecap="butt" stroke-linejoin="miter" stroke="rgb(13.729858%, 12.159729%, 12.548828%)" stroke-opacity="1" stroke-miterlimit="11.5" d="M 3061.835938 1369.53125 L 3083.867188 1370.15625 L 3102.460938 1369.53125 L 3117.617188 1367.65625 L 3129.335938 1364.53125 L 3146.523438 1353.59375 L 3158.085938 1335.78125 L 3162.148438 1314.84375 L 3156.835938 1294.53125 L 3145.898438 1278.59375 L 3133.085938 1270.78125 L 3118.710938 1271.40625 L 3103.085938 1280.78125 L 3088.398438 1296.71875 L 3076.835938 1317.03125 L 3064.960938 1343.59375 L 3049.335938 1378.28125 L 3030.585938 1415.15625 L 3009.335938 1448.28125 L 2997.539062 1462.578125 L 2984.648438 1474.21875 L 2970.664062 1483.203125 L 2955.585938 1489.53125 L 2923.398438 1495.78125 L 2889.335938 1494.53125 L 2854.648438 1487.03125 L 2820.585938 1474.53125 L 2788.398438 1458.28125 L 2759.335938 1439.53125 L 2732.460938 1417.65625 L 2706.835938 1392.03125 L 2682.460938 1362.96875 L 2659.335938 1330.78125 L 2638.398438 1292.96875 L 2620.585938 1247.03125 L 2608.085938 1199.53125 L 2603.085938 1157.03125 L 2603.710938 1119.21875 L 2608.085938 1085.78125 L 2618.085938 1056.40625 L 2635.585938 1030.78125 L 2658.710938 1011.09375 L 2685.585938 999.53125 L 2714.648438 995.15625 L 2744.335938 997.03125 L 2773.710938 1002.96875 L 2801.835938 1010.78125 L 2829.335938 1021.71875 L 2856.835938 1037.03125 L 2882.460938 1054.53125 L 2904.335938 1072.03125 L 2926.210938 1089.21875 L 2951.835938 1105.78125 L 2979.960938 1121.09375 L 3009.335938 1134.53125 L 3040.898438 1147.65625 L 3075.585938 1162.03125 L 3113.085938 1179.21875 L 3153.085938 1200.78125 L 3172.226562 1212.421875 L 3188.398438 1223.59375 L 3201.601562 1234.296875 L 3211.835938 1244.53125 L 3226.210938 1265.15625 L 3234.335938 1287.03125 L 3236.210938 1310.78125 L 3231.835938 1337.03125 L 3222.773438 1361.71875 L 3210.585938 1380.78125 L 3194.023438 1396.09375 L 3171.835938 1409.53125 L 3146.210938 1420.15625 L 3119.335938 1427.03125 L 3095.273438 1430.78125 L 3078.085938 1432.03125 L 3060.273438 1429.53125 L 3034.335938 1422.03125 " transform="matrix(0.1, 0, 0, -0.1, 0, 161)"/>
<path fill="none" stroke-width="10" stroke-linecap="butt" stroke-linejoin="miter" stroke="rgb(13.729858%, 12.159729%, 12.548828%)" stroke-opacity="1" stroke-miterlimit="11.5" d="M 2971.835938 1412.03125 L 2940.820312 1401.25 L 2915.273438 1391.40625 L 2895.195312 1382.5 L 2880.585938 1374.53125 L 2859.648438 1356.71875 L 2844.335938 1333.28125 L 2834.648438 1307.34375 L 2830.585938 1282.03125 L 2832.773438 1258.28125 L 2841.835938 1237.03125 L 2853.710938 1216.71875 L 2864.335938 1195.78125 L 2870.273438 1173.59375 L 2868.085938 1149.53125 L 2859.335938 1127.96875 L 2845.585938 1113.28125 L 2826.210938 1099.84375 L 2800.585938 1082.03125 L 2772.773438 1066.40625 L 2746.835938 1059.53125 L 2723.085938 1059.84375 L 2701.835938 1065.78125 L 2685.273438 1078.59375 L 2675.585938 1099.53125 L 2671.835938 1128.28125 L 2673.085938 1164.53125 L 2679.023438 1202.03125 L 2689.335938 1234.53125 L 2702.460938 1264.21875 L 2716.835938 1293.28125 L 2732.773438 1319.84375 L 2750.585938 1342.03125 L 2771.523438 1362.65625 L 2796.835938 1384.53125 L 2824.335938 1403.90625 L 2851.835938 1417.03125 L 2877.148438 1425.46875 L 2898.085938 1430.78125 L 2916.835938 1432.96875 L 2935.585938 1432.03125 L 2944.804688 1429.375 L 2953.710938 1423.90625 L 2962.304688 1415.625 L 2970.585938 1404.53125 L 2985.273438 1378.90625 L 2996.835938 1352.03125 L 3004.335938 1324.84375 L 3006.835938 1298.28125 L 3004.335938 1272.96875 L 2996.835938 1249.53125 L 2991.289062 1239.609375 L 2984.648438 1232.34375 L 2976.914062 1227.734375 L 2968.085938 1225.78125 L 2949.023438 1228.90625 L 2929.335938 1240.78125 L 2914.023438 1259.53125 L 2908.085938 1283.28125 L 2911.523438 1306.09375 L 2924.335938 1322.03125 L 2935.585938 1328.28125 L 2951.835938 1334.53125 L 2973.085938 1340.78125 L 2999.335938 1347.03125 " transform="matrix(0.1, 0, 0, -0.1, 0, 161)"/>
<path fill="none" stroke-width="10" stroke-linecap="butt" stroke-linejoin="miter" stroke="rgb(13.729858%, 12.159729%, 12.548828%)" stroke-opacity="1" stroke-miterlimit="11.5" d="M 4006.054688 1386.71875 C 4006.054688 1337.03125 3965.78125 1296.71875 3916.054688 1296.71875 C 3866.367188 1296.71875 3826.054688 1337.03125 3826.054688 1386.71875 C 3826.054688 1436.445312 3866.367188 1476.71875 3916.054688 1476.71875 C 3965.78125 1476.71875 4006.054688 1436.445312 4006.054688 1386.71875 Z M 4006.054688 1386.71875 " transform="matrix(0.1, 0, 0, -0.1, 0, 161)"/>
<path fill="none" stroke-width="10" stroke-linecap="butt" stroke-linejoin="miter" stroke="rgb(13.729858%, 12.159729%, 12.548828%)" stroke-opacity="1" stroke-miterlimit="11.5" d="M 3586.054688 1434.21875 C 3586.054688 1384.53125 3545.78125 1344.21875 3496.054688 1344.21875 C 3446.367188 1344.21875 3406.054688 1384.53125 3406.054688 1434.21875 C 3406.054688 1483.945312 3446.367188 1524.21875 3496.054688 1524.21875 C 3545.78125 1524.21875 3586.054688 1483.945312 3586.054688 1434.21875 Z M 3586.054688 1434.21875 " transform="matrix(0.1, 0, 0, -0.1, 0, 161)"/>
<path fill="none" stroke-width="10" stroke-linecap="butt" stroke-linejoin="miter" stroke="rgb(13.729858%, 12.159729%, 12.548828%)" stroke-opacity="1" stroke-miterlimit="11.5" d="M 3888.554688 1041.71875 L 3901.054688 1075.46875 L 3913.554688 1111.71875 L 3927.304688 1147.34375 L 3943.554688 1179.21875 L 3963.242188 1205.78125 L 3987.304688 1225.46875 L 4012.96875 1245.15625 L 4037.304688 1271.71875 L 4057.96875 1305.78125 L 4072.304688 1347.96875 L 4076.71875 1370.46875 L 4078.554688 1391.71875 L 4077.96875 1411.71875 L 4074.804688 1430.46875 L 4062.304688 1464.53125 L 4042.304688 1494.21875 L 4016.054688 1518.59375 L 3984.804688 1536.71875 L 3951.054688 1547.96875 L 3917.304688 1551.71875 L 3883.242188 1547.96875 L 3848.554688 1536.71875 L 3815.742188 1517.34375 L 3787.304688 1489.21875 L 3766.054688 1454.84375 L 3754.804688 1416.71875 L 3751.367188 1378.59375 L 3753.554688 1344.21875 L 3760.742188 1314.84375 L 3772.304688 1291.71875 L 3787.617188 1272.34375 L 3806.054688 1254.21875 L 3823.867188 1236.09375 L 3837.304688 1216.71875 L 3846.054688 1194.21875 L 3849.804688 1166.71875 L 3847.96875 1135.46875 L 3839.804688 1101.71875 L 3825.46875 1069.53125 L 3804.804688 1042.96875 L 3779.804688 1021.09375 L 3752.304688 1002.96875 L 3723.554688 990.46875 L 3694.804688 985.46875 L 3664.492188 988.28125 L 3631.054688 999.21875 L 3615.039062 1007.421875 L 3601.992188 1017.03125 L 3591.914062 1028.046875 L 3584.804688 1040.46875 L 3573.867188 1067.03125 L 3563.554688 1094.21875 L 3554.804688 1121.71875 L 3548.554688 1149.21875 L 3544.492188 1178.28125 L 3542.304688 1210.46875 L 3543.867188 1241.40625 L 3551.054688 1266.71875 L 3564.804688 1289.53125 L 3586.054688 1312.96875 L 3609.492188 1338.28125 L 3629.804688 1366.71875 L 3645.117188 1398.28125 L 3653.554688 1432.96875 L 3654.21875 1468.90625 L 3646.054688 1504.21875 L 3631.054688 1535.46875 L 3611.054688 1559.21875 L 3584.492188 1576.71875 L 3549.804688 1589.21875 L 3511.71875 1595.46875 L 3474.804688 1594.21875 L 3440.46875 1585.78125 L 3409.804688 1570.46875 L 3383.867188 1548.28125 L 3363.554688 1519.21875 L 3350.117188 1484.53125 L 3344.804688 1445.46875 L 3345.46875 1407.96875 L 3349.804688 1377.96875 L 3358.554688 1354.84375 L 3372.304688 1337.96875 L 3387.617188 1325.46875 L 3401.054688 1315.46875 L 3414.21875 1302.96875 L 3428.554688 1282.96875 L 3443.242188 1256.09375 L 3457.304688 1222.96875 L 3468.867188 1183.59375 L 3476.054688 1137.96875 L 3482.304688 1090.78125 L 3491.054688 1046.71875 L 3505.117188 1007.03125 L 3527.304688 972.96875 L 3555.46875 944.53125 L 3587.304688 921.71875 L 3623.867188 905.46875 L 3666.054688 896.71875 L 3708.554688 895.46875 L 3746.054688 901.71875 L 3778.242188 913.59375 L 3804.804688 929.21875 L 3828.554688 950.15625 L 3852.304688 977.96875 L 3873.242188 1009.53125 Z M 3888.554688 1041.71875 " transform="matrix(0.1, 0, 0, -0.1, 0, 161)"/>
<path fill="none" stroke-width="10" stroke-linecap="butt" stroke-linejoin="miter" stroke="rgb(13.729858%, 12.159729%, 12.548828%)" stroke-opacity="1" stroke-miterlimit="11.5" d="M 281.367188 488.59375 L 299.804688 524.84375 L 317.617188 553.59375 L 334.804688 574.84375 L 351.367188 588.59375 L 383.867188 604.53125 L 416.367188 612.34375 L 432.929688 612.890625 L 450.117188 610.78125 L 467.929688 606.015625 L 486.367188 598.59375 L 520.429688 576.09375 L 547.617188 543.59375 L 568.554688 503.59375 L 583.867188 458.59375 L 592.929688 412.03125 L 595.117188 367.34375 L 590.742188 323.90625 L 580.117188 281.09375 L 563.554688 240.78125 L 541.367188 204.84375 L 514.492188 176.09375 L 483.867188 157.34375 L 454.492188 147.34375 L 431.367188 144.84375 L 409.492188 147.65625 L 383.867188 153.59375 " transform="matrix(0.1, 0, 0, -0.1, 0, 161)"/>
<path fill="none" stroke-width="10" stroke-linecap="butt" stroke-linejoin="miter" stroke="rgb(13.729858%, 12.159729%, 12.548828%)" stroke-opacity="1" stroke-miterlimit="11.5" d="M 233.867188 498.59375 L 246.054688 533.984375 L 257.617188 562.65625 L 268.554688 584.609375 L 278.867188 599.84375 L 301.992188 622.65625 L 331.367188 643.59375 L 364.804688 660.15625 L 400.117188 669.84375 L 436.992188 672.34375 L 475.117188 667.34375 L 494.414062 661.640625 L 513.554688 653.28125 L 532.539062 642.265625 L 551.367188 628.59375 L 584.492188 596.40625 L 608.867188 559.84375 L 626.679688 516.40625 L 640.117188 463.59375 L 648.242188 410.46875 L 650.117188 366.09375 L 646.992188 325.78125 L 640.117188 284.84375 L 629.179688 244.84375 L 613.867188 207.34375 L 593.242188 173.28125 L 566.367188 143.59375 L 535.117188 119.84375 L 501.367188 103.59375 L 465.117188 93.90625 L 426.367188 89.84375 L 406.367188 90.703125 L 386.367188 94.53125 L 366.367188 101.328125 L 346.367188 111.09375 " transform="matrix(0.1, 0, 0, -0.1, 0, 161)"/>
<path fill="none" stroke-width="10" stroke-linecap="butt" stroke-linejoin="miter" stroke="rgb(13.729858%, 12.159729%, 12.548828%)" stroke-opacity="1" stroke-miterlimit="11.5" d="M 273.867188 333.59375 L 302.460938 322.734375 L 325.742188 312.65625 L 343.710938 303.359375 L 356.367188 294.84375 L 374.492188 277.34375 L 388.867188 257.34375 L 399.179688 235.78125 L 405.117188 213.59375 L 405.742188 202.109375 L 403.867188 190.15625 L 399.492188 177.734375 L 392.617188 164.84375 L 373.242188 140.78125 L 347.617188 121.09375 L 317.617188 107.65625 L 285.117188 102.34375 L 251.054688 102.96875 L 216.367188 107.34375 L 184.492188 115.15625 L 158.867188 126.09375 L 138.554688 139.53125 L 122.617188 154.84375 L 110.117188 171.09375 L 100.117188 187.34375 L 92.617188 202.65625 L 87.617188 216.09375 L 83.867188 227.96875 L 80.117188 238.59375 L 73.867188 247.96875 L 62.617188 256.09375 L 49.492188 267.03125 L 37.617188 284.84375 L 26.992188 309.21875 L 17.617188 339.84375 L 11.992188 371.40625 L 12.617188 398.59375 L 16.367188 423.28125 L 20.117188 447.34375 L 27.304688 469.84375 L 41.367188 489.84375 L 58.242188 507.34375 L 73.867188 522.34375 L 87.617188 534.84375 L 98.867188 544.84375 L 106.992188 556.71875 L 111.367188 574.84375 L 115.117188 595.78125 L 121.367188 616.09375 L 130.742188 635.15625 L 143.867188 652.34375 L 160.742188 667.65625 L 181.367188 681.09375 L 206.054688 691.09375 L 235.117188 696.09375 L 264.804688 697.03125 L 291.367188 694.84375 L 304.960938 691.484375 L 320.742188 685.15625 L 338.710938 675.859375 L 358.867188 663.59375 " transform="matrix(0.1, 0, 0, -0.1, 0, 161)"/>
<path fill="none" stroke-width="10" stroke-linecap="butt" stroke-linejoin="miter" stroke="rgb(13.729858%, 12.159729%, 12.548828%)" stroke-opacity="1" stroke-miterlimit="11.5" d="M 216.367188 341.09375 L 196.679688 337.421875 L 180.117188 333.90625 L 166.679688 330.546875 L 156.367188 327.34375 L 140.117188 319.84375 L 126.367188 309.84375 L 113.867188 301.71875 L 101.367188 299.84375 L 90.429688 303.90625 L 82.617188 313.59375 L 76.992188 327.96875 L 72.617188 346.09375 L 69.492188 366.09375 L 67.617188 386.09375 L 67.617188 406.40625 L 70.117188 427.34375 L 76.367188 446.09375 L 87.617188 459.84375 L 101.679688 469.53125 L 116.367188 476.09375 L 130.429688 480.46875 L 142.617188 483.59375 L 153.242188 482.34375 L 162.617188 473.59375 L 172.304688 462.96875 L 183.867188 456.09375 L 198.554688 451.09375 L 217.617188 446.09375 L 241.992188 442.96875 L 272.617188 443.59375 L 303.867188 447.96875 L 330.117188 456.09375 L 353.242188 468.28125 L 375.117188 484.84375 L 392.617188 502.65625 L 402.617188 518.59375 L 407.617188 534.53125 L 410.117188 552.34375 L 406.679688 575.15625 L 393.867188 606.09375 " transform="matrix(0.1, 0, 0, -0.1, 0, 161)"/>
<path fill="none" stroke-width="10" stroke-linecap="butt" stroke-linejoin="miter" stroke="rgb(13.729858%, 12.159729%, 12.548828%)" stroke-opacity="1" stroke-miterlimit="11.5" d="M 313.242188 635.625 L 283.164062 646.5625 L 258.828125 648.515625 L 237.617188 643.671875 L 217.03125 634.335938 L 197.421875 619.804688 L 179.101562 599.492188 L 171.640625 588.046875 L 167.070312 576.953125 L 165.3125 566.132812 L 166.445312 555.664062 L 174.335938 535.976562 L 187.929688 518.242188 L 205.976562 504.0625 L 227.1875 495.039062 L 251.210938 491.171875 L 277.773438 492.460938 L 305.3125 497.617188 L 332.1875 505.351562 L 344.0625 510.664062 L 353.085938 517.617188 L 359.257812 526.132812 L 362.578125 536.328125 L 362.890625 558.554688 L 356.25 581.445312 " transform="matrix(0.1, 0, 0, -0.1, 0, 161)"/>
<path fill="none" stroke-width="10" stroke-linecap="butt" stroke-linejoin="miter" stroke="rgb(13.729858%, 12.159729%, 12.548828%)" stroke-opacity="1" stroke-miterlimit="11.5" d="M 288.867188 273.59375 L 314.179688 257.03125 L 330.117188 237.34375 L 334.257812 226.796875 L 335.429688 216.40625 L 333.632812 206.171875 L 328.867188 196.09375 L 313.867188 179.21875 L 293.867188 168.59375 L 271.054688 163.28125 L 247.617188 162.34375 L 224.179688 165.78125 L 201.367188 173.59375 L 181.054688 185.46875 L 165.117188 201.09375 L 155.117188 218.59375 L 152.617188 236.09375 L 156.054688 251.40625 L 163.867188 262.34375 L 173.867188 270.15625 L 183.867188 276.09375 L 190.585938 278.28125 L 200.742188 279.84375 L 214.335938 280.78125 L 231.367188 281.09375 " transform="matrix(0.1, 0, 0, -0.1, 0, 161)"/>
<path fill="none" stroke-width="10" stroke-linecap="butt" stroke-linejoin="miter" stroke="rgb(13.729858%, 12.159729%, 12.548828%)" stroke-opacity="1" stroke-miterlimit="11.5" d="M 276.367188 441.09375 L 277.929688 404.84375 L 277.617188 376.09375 L 276.992188 351.09375 L 277.617188 326.09375 L 279.804688 301.71875 L 283.867188 278.59375 L 290.429688 258.28125 L 300.117188 242.34375 L 312.929688 225.15625 L 328.867188 201.09375 " transform="matrix(0.1, 0, 0, -0.1, 0, 161)"/>
<path fill="none" stroke-width="10" stroke-linecap="butt" stroke-linejoin="miter" stroke="rgb(13.729858%, 12.159729%, 12.548828%)" stroke-opacity="1" stroke-miterlimit="11.5" d="M 221.367188 443.59375 L 220.429688 416.5625 L 220.117188 392.96875 L 220.429688 372.8125 L 221.367188 356.09375 L 224.179688 326.09375 L 227.617188 296.09375 L 232.929688 268.59375 L 241.367188 246.09375 L 247.929688 233.75 L 257.617188 216.71875 L 270.429688 195 L 286.367188 168.59375 " transform="matrix(0.1, 0, 0, -0.1, 0, 161)"/>
<path fill="none" stroke-width="10" stroke-linecap="butt" stroke-linejoin="miter" stroke="rgb(13.729858%, 12.159729%, 12.548828%)" stroke-opacity="1" stroke-miterlimit="11.5" d="M 1013.398438 328.28125 C 1010.039062 387.070312 1009.648438 428.90625 1012.148438 455.78125 C 1014.6875 482.65625 1020.820312 505.625 1030.898438 525.78125 C 1040.976562 545.9375 1051.640625 563.164062 1063.398438 578.28125 C 1075.15625 593.398438 1089.53125 604.453125 1107.148438 612.03125 C 1124.804688 619.570312 1142.851562 623.671875 1162.148438 624.53125 C 1181.484375 625.351562 1199.53125 623.320312 1217.148438 618.28125 C 1234.804688 613.242188 1252.851562 602.578125 1272.148438 585.78125 C 1291.484375 568.984375 1305 551.328125 1313.398438 532.03125 C 1321.796875 512.695312 1327.539062 493.828125 1330.898438 474.53125 C 1334.257812 455.195312 1335.078125 431.835938 1333.398438 403.28125 C 1331.71875 374.726562 1327.617188 347.226562 1320.898438 319.53125 C 1314.179688 291.796875 1305.585938 267.617188 1294.648438 245.78125 C 1283.75 223.945312 1270.195312 206.289062 1253.398438 192.03125 C 1236.601562 177.734375 1219.375 167.890625 1200.898438 162.03125 C 1182.421875 156.132812 1161.445312 159.101562 1144.648438 160.78125 C 1127.851562 162.460938 1095.898438 178.28125 1072.148438 200.78125 " transform="matrix(0.1, 0, 0, -0.1, 0, 161)"/>
<path fill="none" stroke-width="10" stroke-linecap="butt" stroke-linejoin="miter" stroke="rgb(13.729858%, 12.159729%, 12.548828%)" stroke-opacity="1" stroke-miterlimit="11.5" d="M 963.398438 338.28125 L 962.617188 381.328125 L 962.773438 417.96875 L 963.867188 448.203125 L 965.898438 472.03125 L 973.710938 514.21875 L 987.148438 558.28125 L 1006.523438 598.59375 L 1032.148438 629.53125 L 1062.460938 652.65625 L 1095.898438 669.53125 L 1130.898438 679.84375 L 1165.898438 683.28125 L 1200.898438 680.78125 L 1235.898438 673.28125 L 1269.648438 659.53125 L 1300.898438 638.28125 L 1328.398438 609.53125 L 1350.898438 573.28125 L 1368.710938 530.46875 L 1382.148438 482.03125 L 1389.960938 431.40625 L 1390.898438 382.03125 L 1386.210938 335.46875 L 1377.148438 293.28125 L 1364.335938 253.90625 L 1348.398438 215.78125 L 1329.335938 182.34375 L 1307.148438 157.03125 L 1281.523438 137.65625 L 1252.148438 122.03125 L 1220.273438 110.78125 L 1187.148438 104.53125 L 1153.710938 103.59375 L 1120.898438 108.28125 L 1090.585938 118.59375 L 1064.648438 134.53125 L 1041.210938 157.34375 L 1013.398438 193.28125 " transform="matrix(0.1, 0, 0, -0.1, 0, 161)"/>
<path fill="none" stroke-width="10" stroke-linecap="butt" stroke-linejoin="miter" stroke="rgb(13.729858%, 12.159729%, 12.548828%)" stroke-opacity="1" stroke-miterlimit="11.5" d="M 1010.898438 443.28125 C 1020.742188 438.867188 1027.382812 435.546875 1031.171875 433.125 C 1035 430.703125 1038.164062 428.242188 1040.859375 425.625 C 1043.554688 423.007812 1045.664062 420.3125 1047.265625 417.5 C 1048.867188 414.648438 1049.648438 413.28125 1049.648438 413.28125 C 1049.648438 413.28125 1050.429688 410.390625 1051.992188 404.53125 C 1053.59375 398.632812 1054.609375 392.890625 1055.117188 387.03125 C 1055.664062 381.132812 1055.898438 378.28125 1055.898438 378.28125 C 1055.898438 378.28125 1055.390625 375.546875 1054.335938 370 C 1053.28125 364.414062 1051.25 359.296875 1048.085938 354.375 C 1044.960938 349.453125 1043.398438 347.03125 1043.398438 347.03125 C 1043.398438 347.03125 1041.210938 345.234375 1036.679688 341.5625 C 1032.1875 337.890625 1027.460938 335.234375 1022.304688 333.4375 C 1017.1875 331.640625 1014.648438 330.78125 1014.648438 330.78125 C 1014.648438 330.78125 1011.953125 330.664062 1006.367188 330.46875 C 1000.820312 330.273438 995.273438 330.664062 989.492188 331.71875 C 983.710938 332.773438 980.898438 333.28125 980.898438 333.28125 C 980.898438 333.28125 978.125 333.28125 972.460938 333.28125 C 966.796875 333.28125 961.484375 334.921875 956.210938 338.28125 C 950.976562 341.640625 948.398438 343.28125 948.398438 343.28125 C 948.398438 343.28125 945.898438 343.515625 940.742188 344.0625 C 935.625 344.570312 930.46875 347.265625 925.117188 352.1875 C 919.765625 357.109375 917.148438 359.53125 917.148438 359.53125 C 917.148438 359.53125 915.117188 361.679688 910.898438 366.09375 C 906.71875 370.507812 903.828125 375.429688 902.148438 381.09375 C 900.46875 386.757812 899.648438 389.53125 899.648438 389.53125 C 899.648438 389.53125 899.960938 392.34375 900.585938 398.125 C 901.210938 403.90625 902.851562 409.023438 905.585938 413.75 C 908.320312 418.476562 909.648438 420.78125 909.648438 420.78125 C 909.648438 420.78125 910.820312 421.835938 913.125 423.984375 C 915.46875 426.132812 918.203125 428.28125 921.40625 430.546875 C 924.648438 432.8125 928.242188 435.039062 932.34375 437.421875 C 936.484375 439.765625 946.367188 442.734375 962.460938 446.40625 " transform="matrix(0.1, 0, 0, -0.1, 0, 161)"/>
<path fill="none" stroke-width="10" stroke-linecap="butt" stroke-linejoin="miter" stroke="rgb(13.729858%, 12.159729%, 12.548828%)" stroke-opacity="1" stroke-miterlimit="11.5" d="M 1018.398438 488.28125 C 1045.273438 479.882812 1063.75 471.25 1074.648438 462.03125 C 1085.585938 452.773438 1094.609375 440.898438 1102.148438 425.78125 C 1109.726562 410.664062 1113.398438 396.289062 1113.398438 382.03125 C 1113.398438 367.734375 1108.90625 352.96875 1099.648438 337.03125 C 1090.429688 321.054688 1078.945312 310 1064.648438 303.28125 C 1050.390625 296.5625 1035.625 292.851562 1019.648438 292.03125 C 1003.710938 291.171875 985.664062 290.78125 964.648438 290.78125 C 943.671875 290.78125 926.015625 294.453125 910.898438 302.03125 C 895.78125 309.570312 884.296875 317.773438 875.898438 327.03125 C 867.5 336.25 860.9375 344.453125 855.898438 352.03125 C 850.859375 359.570312 845.9375 365.742188 840.898438 370.78125 C 835.859375 375.820312 828.90625 378.671875 819.648438 379.53125 C 810.429688 380.351562 802.617188 380.351562 795.898438 379.53125 C 789.179688 378.671875 790.46875 370 794.648438 363.28125 C 798.867188 356.5625 805.195312 339.765625 813.398438 328.28125 C 825.898438 310.78125 829.140625 304.570312 840.898438 297.03125 C 852.65625 289.453125 865.78125 282.5 880.898438 275.78125 C 896.015625 269.0625 914.0625 262.890625 935.898438 257.03125 C 957.734375 251.132812 978.242188 249.101562 998.398438 250.78125 C 1018.554688 252.460938 1038.242188 255.3125 1058.398438 259.53125 C 1078.554688 263.710938 1095.78125 269.0625 1110.898438 275.78125 C 1126.015625 282.5 1137.929688 291.523438 1147.148438 303.28125 C 1156.40625 315.039062 1165 328.164062 1173.398438 343.28125 C 1181.796875 358.398438 1184.257812 378.476562 1180.898438 404.53125 C 1177.539062 430.546875 1170.15625 449.84375 1158.398438 463.28125 C 1146.640625 476.71875 1133.125 487.773438 1117.148438 497.03125 C 1101.210938 506.25 1074.53125 518.164062 1035.898438 533.28125 " transform="matrix(0.1, 0, 0, -0.1, 0, 161)"/>
<path fill="none" stroke-width="10" stroke-linecap="butt" stroke-linejoin="miter" stroke="rgb(13.729858%, 12.159729%, 12.548828%)" stroke-opacity="1" stroke-miterlimit="11.5" d="M 968.398438 490.78125 L 934.335938 489.21875 L 914.648438 484.53125 L 899.335938 477.65625 L 885.898438 469.53125 L 874.648438 460.78125 L 865.898438 452.03125 L 857.148438 445.78125 L 845.898438 444.53125 L 833.710938 446.40625 L 822.148438 449.53125 L 813.710938 455.15625 L 810.898438 464.53125 L 814.023438 475.46875 L 823.398438 485.78125 L 837.773438 496.09375 L 855.898438 507.03125 L 875.273438 517.65625 L 893.398438 527.03125 L 910.585938 533.90625 L 927.148438 537.03125 L 946.835938 537.34375 L 980.898438 535.78125 " transform="matrix(0.1, 0, 0, -0.1, 0, 161)"/>
<path fill="none" stroke-width="10" stroke-linecap="butt" stroke-linejoin="miter" stroke="rgb(13.729858%, 12.159729%, 12.548828%)" stroke-opacity="1" stroke-miterlimit="11.5" d="M 1073.398438 585.78125 L 1100.664062 575.15625 L 1124.960938 560.78125 L 1146.289062 547.65625 L 1164.648438 535.78125 L 1194.960938 509.21875 L 1218.398438 474.53125 L 1234.648438 435.15625 L 1243.398438 394.53125 L 1243.710938 356.09375 L 1234.648438 323.28125 L 1217.460938 293.59375 L 1193.398438 264.53125 L 1162.773438 239.21875 L 1125.898438 220.78125 L 1086.210938 207.96875 L 1047.148438 199.53125 L 1009.023438 195.78125 L 972.148438 197.03125 L 935.585938 202.34375 L 898.398438 210.78125 L 862.460938 222.96875 L 829.648438 239.53125 L 799.335938 260.46875 L 770.898438 285.78125 L 747.148438 315.78125 L 730.898438 350.78125 L 722.460938 386.71875 L 722.148438 419.53125 L 728.710938 449.21875 L 740.898438 475.78125 L 758.710938 501.40625 L 782.148438 528.28125 L 809.023438 552.65625 L 837.148438 570.78125 L 865.585938 584.21875 L 893.398438 594.53125 L 910.273438 598.203125 L 933.398438 600.46875 L 962.773438 601.328125 L 1005.898438 600.78125 " transform="matrix(0.1, 0, 0, -0.1, 0, 161)"/>
<path fill="none" stroke-width="10" stroke-linecap="butt" stroke-linejoin="miter" stroke="rgb(13.729858%, 12.159729%, 12.548828%)" stroke-opacity="1" stroke-miterlimit="11.5" d="M 1020.898438 290.78125 L 1029.023438 270.78125 L 1038.398438 255.78125 " transform="matrix(0.1, 0, 0, -0.1, 0, 161)"/>
<path fill="none" stroke-width="10" stroke-linecap="butt" stroke-linejoin="miter" stroke="rgb(13.729858%, 12.159729%, 12.548828%)" stroke-opacity="1" stroke-miterlimit="11.5" d="M 969.648438 285.78125 C 969.648438 274.53125 975.429688 265.898438 982.148438 250.78125 " transform="matrix(0.1, 0, 0, -0.1, 0, 161)"/>
<path fill="none" stroke-width="10" stroke-linecap="butt" stroke-linejoin="miter" stroke="rgb(13.729858%, 12.159729%, 12.548828%)" stroke-opacity="1" stroke-miterlimit="11.5" d="M 1699.492188 332.1875 C 1697.8125 380.898438 1698.242188 419.023438 1700.742188 448.4375 C 1703.28125 477.8125 1707.773438 502.03125 1714.492188 522.1875 C 1721.210938 542.34375 1730.234375 560.390625 1741.992188 577.1875 C 1753.789062 593.984375 1766.875 606.679688 1781.992188 615.9375 C 1797.148438 625.15625 1812.304688 630.507812 1828.242188 632.1875 C 1844.21875 633.867188 1863.90625 630.976562 1888.242188 623.4375 C 1912.617188 615.859375 1931.484375 607.265625 1945.742188 597.1875 C 1960.039062 587.109375 1971.914062 573.554688 1981.992188 555.9375 C 1992.109375 538.28125 1999.882812 516.132812 2005.742188 488.4375 C 2011.640625 460.703125 2014.101562 435.703125 2013.242188 412.1875 C 2012.421875 388.671875 2010.351562 366.523438 2006.992188 344.6875 C 2003.632812 322.851562 1998.710938 301.523438 1991.992188 279.6875 C 1985.273438 257.851562 1977.109375 238.554688 1966.992188 220.9375 C 1956.914062 203.28125 1946.679688 189.765625 1935.742188 179.6875 C 1924.84375 169.609375 1912.539062 162.226562 1898.242188 157.1875 C 1883.984375 152.148438 1869.21875 150.078125 1853.242188 150.9375 C 1837.304688 151.757812 1824.179688 155.039062 1813.242188 160.9375 C 1802.34375 166.796875 1787.578125 176.640625 1768.242188 190.9375 " transform="matrix(0.1, 0, 0, -0.1, 0, 161)"/>
<path fill="none" stroke-width="10" stroke-linecap="butt" stroke-linejoin="miter" stroke="rgb(13.729858%, 12.159729%, 12.548828%)" stroke-opacity="1" stroke-miterlimit="11.5" d="M 1646.992188 337.1875 C 1645.3125 379.179688 1645.742188 413.203125 1648.242188 440.9375 C 1650.78125 468.632812 1655.703125 496.953125 1663.242188 527.1875 C 1670.820312 557.421875 1679.414062 579.960938 1689.492188 595.9375 C 1699.609375 611.875 1713.125 626.640625 1730.742188 640.9375 C 1748.398438 655.195312 1765.625 667.109375 1783.242188 677.1875 C 1800.898438 687.265625 1818.125 691.757812 1835.742188 690.9375 C 1853.398438 690.078125 1875.15625 686.40625 1901.992188 679.6875 C 1928.90625 672.96875 1951.054688 663.125 1969.492188 649.6875 C 1988.007812 636.25 2004.375 619.414062 2019.492188 598.4375 C 2034.648438 577.421875 2045.273438 555.703125 2051.992188 532.1875 C 2058.710938 508.671875 2063.242188 481.992188 2065.742188 450.9375 C 2068.28125 419.84375 2068.28125 391.132812 2065.742188 363.4375 C 2063.242188 335.703125 2058.710938 309.0625 2051.992188 282.1875 C 2045.273438 255.3125 2037.109375 231.09375 2026.992188 208.4375 C 2016.914062 185.742188 2003.007812 164.84375 1984.492188 144.6875 C 1966.054688 124.53125 1946.757812 111.40625 1925.742188 104.6875 C 1904.765625 97.96875 1883.4375 94.6875 1860.742188 94.6875 C 1838.085938 94.6875 1818.828125 97.539062 1801.992188 103.4375 C 1785.195312 109.296875 1770.859375 116.289062 1758.242188 124.6875 C 1745.664062 133.085938 1728.046875 151.953125 1704.492188 182.1875 " transform="matrix(0.1, 0, 0, -0.1, 0, 161)"/>
<path fill="none" stroke-width="10" stroke-linecap="butt" stroke-linejoin="miter" stroke="rgb(13.729858%, 12.159729%, 12.548828%)" stroke-opacity="1" stroke-miterlimit="11.5" d="M 1701.992188 449.6875 C 1725.546875 441.289062 1739.882812 430.625 1745.742188 417.1875 C 1751.640625 403.75 1752.03125 390.195312 1746.992188 375.9375 C 1741.953125 361.640625 1735.390625 352.617188 1726.992188 348.4375 C 1718.59375 344.21875 1708.359375 340.9375 1695.742188 338.4375 C 1683.164062 335.898438 1670.039062 334.6875 1655.742188 334.6875 C 1641.484375 334.6875 1627.539062 337.96875 1613.242188 344.6875 C 1598.984375 351.40625 1588.320312 360.820312 1580.742188 373.4375 C 1573.203125 386.015625 1571.953125 399.140625 1576.992188 413.4375 C 1582.03125 427.695312 1589.023438 437.148438 1598.242188 442.1875 C 1607.5 447.226562 1622.695312 450.507812 1644.492188 452.1875 " transform="matrix(0.1, 0, 0, -0.1, 0, 161)"/>
<path fill="none" stroke-width="10" stroke-linecap="butt" stroke-linejoin="miter" stroke="rgb(13.729858%, 12.159729%, 12.548828%)" stroke-opacity="1" stroke-miterlimit="11.5" d="M 1709.492188 509.6875 C 1746.445312 494.570312 1769.84375 478.554688 1780.742188 460.9375 C 1791.679688 443.28125 1799.453125 424.414062 1804.492188 403.4375 C 1809.53125 382.421875 1807.890625 364.375 1799.492188 348.4375 C 1791.09375 332.460938 1780.039062 318.945312 1765.742188 307.1875 C 1751.484375 295.429688 1736.71875 288.4375 1720.742188 285.9375 C 1704.804688 283.398438 1689.648438 282.1875 1674.492188 282.1875 C 1659.375 282.1875 1645.039062 283.398438 1630.742188 285.9375 C 1616.484375 288.4375 1605.820312 290.898438 1598.242188 293.4375 C 1590.703125 295.9375 1582.5 297.1875 1573.242188 297.1875 C 1564.023438 297.1875 1557.03125 293.085938 1551.992188 284.6875 C 1546.953125 276.289062 1546.953125 269.296875 1551.992188 263.4375 C 1557.03125 257.539062 1566.484375 252.617188 1580.742188 248.4375 C 1595.039062 244.21875 1609.804688 240.9375 1625.742188 238.4375 C 1641.71875 235.898438 1659.765625 235.507812 1680.742188 237.1875 C 1701.757812 238.867188 1725.546875 243.789062 1753.242188 252.1875 C 1780.976562 260.585938 1804.765625 270.429688 1825.742188 282.1875 C 1846.757812 293.945312 1864.375 309.53125 1879.492188 329.6875 C 1894.648438 349.84375 1902.8125 370.351562 1904.492188 392.1875 C 1906.171875 414.023438 1903.320312 432.070312 1895.742188 447.1875 C 1888.203125 462.304688 1880 475.429688 1870.742188 487.1875 C 1861.523438 498.945312 1851.289062 507.96875 1839.492188 514.6875 C 1827.734375 521.40625 1816.289062 527.148438 1804.492188 532.1875 C 1792.734375 537.226562 1768.945312 545.429688 1731.992188 557.1875 " transform="matrix(0.1, 0, 0, -0.1, 0, 161)"/>
<path fill="none" stroke-width="10" stroke-linecap="butt" stroke-linejoin="miter" stroke="rgb(13.729858%, 12.159729%, 12.548828%)" stroke-opacity="1" stroke-miterlimit="11.5" d="M 1764.492188 604.6875 C 1806.484375 587.890625 1836.875 574.335938 1856.992188 563.4375 C 1877.1875 552.5 1893.984375 539.375 1908.242188 523.4375 C 1922.539062 507.460938 1934.023438 490.664062 1943.242188 472.1875 C 1952.5 453.710938 1957.8125 432.773438 1959.492188 408.4375 C 1961.171875 384.0625 1959.140625 362.34375 1953.242188 342.1875 C 1947.382812 322.03125 1938.359375 303.984375 1925.742188 287.1875 C 1913.164062 270.390625 1898.007812 255.625 1879.492188 242.1875 C 1861.054688 228.75 1844.21875 218.90625 1828.242188 212.1875 C 1812.304688 205.46875 1790.976562 199.726562 1763.242188 194.6875 C 1735.546875 189.648438 1709.726562 187.1875 1684.492188 187.1875 C 1659.335938 187.1875 1637.1875 188.007812 1616.992188 189.6875 C 1596.875 191.367188 1580.039062 195.039062 1565.742188 200.9375 C 1551.484375 206.796875 1538.789062 213.359375 1526.992188 220.9375 C 1515.234375 228.476562 1507.03125 237.929688 1501.992188 249.6875 C 1496.953125 261.445312 1494.492188 271.289062 1494.492188 279.6875 C 1494.492188 288.085938 1496.5625 294.648438 1500.742188 299.6875 C 1504.960938 304.726562 1510.703125 310.46875 1518.242188 317.1875 C 1525.820312 323.90625 1527.460938 330.039062 1523.242188 335.9375 C 1519.0625 341.796875 1514.960938 350.820312 1510.742188 363.4375 C 1506.5625 376.015625 1503.671875 387.5 1501.992188 398.4375 C 1500.3125 409.335938 1500.3125 420 1501.992188 430.9375 C 1503.671875 441.835938 1507.382812 450.039062 1513.242188 455.9375 C 1519.140625 461.796875 1525.273438 465.898438 1531.992188 468.4375 C 1538.710938 470.9375 1537.890625 477.109375 1529.492188 487.1875 C 1521.09375 497.265625 1515.78125 509.140625 1513.242188 523.4375 C 1510.742188 537.695312 1513.59375 550 1521.992188 560.9375 C 1530.390625 571.835938 1543.554688 580.46875 1561.992188 587.1875 C 1580.507812 593.90625 1596.054688 598.828125 1609.492188 602.1875 C 1622.96875 605.546875 1650.859375 608.007812 1694.492188 609.6875 " transform="matrix(0.1, 0, 0, -0.1, 0, 161)"/>
<path fill="none" stroke-width="10" stroke-linecap="butt" stroke-linejoin="miter" stroke="rgb(13.729858%, 12.159729%, 12.548828%)" stroke-opacity="1" stroke-miterlimit="11.5" d="M 1666.992188 559.6875 C 1628.398438 558.007812 1605 555.117188 1595.742188 550.9375 C 1586.523438 546.71875 1579.53125 543.046875 1574.492188 539.6875 C 1569.453125 536.328125 1568.632812 531.796875 1571.992188 525.9375 C 1575.351562 520.039062 1579.0625 514.726562 1583.242188 509.6875 C 1587.460938 504.648438 1593.59375 503.398438 1601.992188 505.9375 C 1610.390625 508.4375 1629.296875 511.328125 1659.492188 514.6875 " transform="matrix(0.1, 0, 0, -0.1, 0, 161)"/>
<path fill="none" stroke-width="10" stroke-linecap="butt" stroke-linejoin="miter" stroke="rgb(13.729858%, 12.159729%, 12.548828%)" stroke-opacity="1" stroke-miterlimit="11.5" d="M 1658.242188 278.4375 C 1663.28125 265.820312 1668.632812 251.484375 1674.492188 234.6875 " transform="matrix(0.1, 0, 0, -0.1, 0, 161)"/>
<path fill="none" stroke-width="10" stroke-linecap="butt" stroke-linejoin="miter" stroke="rgb(13.729858%, 12.159729%, 12.548828%)" stroke-opacity="1" stroke-miterlimit="11.5" d="M 1709.492188 279.6875 C 1716.210938 267.929688 1722.773438 257.265625 1729.492188 247.1875 " transform="matrix(0.1, 0, 0, -0.1, 0, 161)"/>
<path fill="none" stroke-width="10" stroke-linecap="butt" stroke-linejoin="miter" stroke="rgb(13.729858%, 12.159729%, 12.548828%)" stroke-opacity="1" stroke-miterlimit="11.5" d="M 2398.75 400.9375 C 2393.710938 447.96875 2393.28125 485.703125 2397.5 515.9375 C 2401.679688 546.171875 2409.492188 574.0625 2421.25 600.9375 C 2433.007812 627.8125 2446.523438 649.960938 2462.5 668.4375 C 2478.4375 686.914062 2494.84375 698.398438 2512.5 703.4375 C 2530.117188 708.476562 2548.984375 709.296875 2570 705.9375 C 2590.976562 702.578125 2611.09375 693.945312 2631.25 679.6875 C 2651.40625 665.390625 2669.023438 646.523438 2685 622.1875 C 2700.9375 597.8125 2712.421875 573.203125 2720 547.1875 C 2727.539062 521.132812 2730.429688 498.59375 2728.75 478.4375 C 2727.070312 458.28125 2723.359375 438.59375 2717.5 418.4375 C 2711.601562 398.28125 2704.648438 379.804688 2696.25 362.1875 C 2687.851562 344.53125 2679.648438 329.765625 2671.25 317.1875 C 2662.851562 304.570312 2649.726562 288.59375 2631.25 268.4375 " transform="matrix(0.1, 0, 0, -0.1, 0, 161)"/>
<path fill="none" stroke-width="10" stroke-linecap="butt" stroke-linejoin="miter" stroke="rgb(13.729858%, 12.159729%, 12.548828%)" stroke-opacity="1" stroke-miterlimit="11.5" d="M 2346.25 400.9375 C 2342.890625 441.25 2340.820312 469.023438 2340 500.9375 C 2339.140625 532.851562 2341.210938 558.28125 2346.25 578.4375 C 2351.289062 598.59375 2358.242188 619.101562 2367.5 640.9375 C 2376.71875 662.773438 2387.8125 680.390625 2401.25 694.6875 C 2414.6875 708.945312 2429.453125 722.5 2446.25 735.9375 C 2463.046875 749.375 2481.914062 758.398438 2503.75 763.4375 C 2525.585938 768.476562 2548.554688 770.9375 2573.75 770.9375 C 2598.945312 770.9375 2620.273438 767.65625 2638.75 760.9375 C 2657.226562 754.21875 2675.664062 743.945312 2695 729.6875 C 2714.296875 715.390625 2730.3125 697.773438 2743.75 675.9375 C 2757.1875 654.101562 2767.421875 631.953125 2775 608.4375 C 2782.539062 584.921875 2788.28125 563.59375 2792.5 543.4375 C 2796.679688 523.28125 2798.75 502.34375 2798.75 479.6875 C 2798.75 456.992188 2796.289062 435.273438 2791.25 413.4375 C 2786.210938 391.601562 2780.039062 372.304688 2772.5 354.6875 C 2764.921875 337.03125 2756.328125 320.625 2746.25 304.6875 C 2736.171875 288.710938 2725.078125 274.375 2712.5 260.9375 C 2699.882812 247.5 2689.648438 236.835938 2681.25 228.4375 C 2672.851562 220.039062 2657.265625 210.195312 2633.75 198.4375 " transform="matrix(0.1, 0, 0, -0.1, 0, 161)"/>
<path fill="none" stroke-width="10" stroke-linecap="butt" stroke-linejoin="miter" stroke="rgb(13.729858%, 12.159729%, 12.548828%)" stroke-opacity="1" stroke-miterlimit="11.5" d="M 2406.25 563.4375 C 2441.523438 556.71875 2464.492188 549.335938 2476.25 540.9375 C 2488.007812 532.539062 2497.03125 523.515625 2503.75 513.4375 C 2510.46875 503.359375 2515.78125 492.265625 2520 479.6875 C 2524.179688 467.070312 2523.789062 453.125 2518.75 437.1875 C 2513.710938 421.210938 2516.5625 411.796875 2527.5 408.4375 C 2538.398438 405.078125 2551.132812 396.054688 2566.25 380.9375 C 2581.367188 365.820312 2594.0625 349.414062 2605 330.9375 C 2615.898438 312.460938 2623.28125 291.953125 2627.5 268.4375 C 2631.679688 244.921875 2632.5 221.523438 2630 197.1875 C 2627.460938 172.8125 2623.359375 151.914062 2617.5 133.4375 C 2611.601562 114.960938 2604.648438 98.945312 2596.25 84.6875 C 2587.851562 70.390625 2576.757812 58.085938 2562.5 47.1875 C 2548.203125 36.25 2535.078125 28.476562 2522.5 23.4375 C 2509.882812 18.398438 2493.90625 16.757812 2473.75 18.4375 C 2453.59375 20.117188 2435.9375 24.609375 2420 32.1875 C 2404.023438 39.726562 2388.046875 50.390625 2371.25 64.6875 C 2354.453125 78.945312 2338.867188 95.351562 2323.75 114.6875 C 2308.632812 133.984375 2297.148438 153.28125 2288.75 173.4375 C 2280.351562 193.59375 2274.179688 213.671875 2270 234.6875 C 2265.78125 255.664062 2264.140625 277.421875 2265 300.9375 C 2265.820312 324.453125 2266.25 343.320312 2266.25 358.4375 C 2266.25 373.554688 2260.898438 385.039062 2250 393.4375 C 2239.0625 401.835938 2230.859375 415.351562 2225 434.6875 C 2219.101562 453.984375 2219.101562 472.851562 2225 492.1875 C 2230.859375 511.484375 2239.882812 525.429688 2252.5 534.6875 C 2265.078125 543.90625 2278.203125 552.109375 2292.5 559.6875 C 2306.757812 567.226562 2322.773438 570.9375 2341.25 570.9375 " transform="matrix(0.1, 0, 0, -0.1, 0, 161)"/>
<path fill="none" stroke-width="10" stroke-linecap="butt" stroke-linejoin="miter" stroke="rgb(13.729858%, 12.159729%, 12.548828%)" stroke-opacity="1" stroke-miterlimit="11.5" d="M 2398.75 520.9375 C 2423.945312 509.179688 2439.53125 498.90625 2446.25 489.6875 C 2452.96875 480.429688 2455 469.375 2452.5 455.9375 C 2449.960938 442.5 2443.828125 431.835938 2433.75 423.4375 C 2423.671875 415.039062 2411.367188 409.296875 2396.25 405.9375 C 2381.132812 402.578125 2365.546875 401.757812 2348.75 403.4375 C 2331.953125 405.117188 2318.007812 409.609375 2306.25 417.1875 C 2294.492188 424.726562 2286.289062 435.390625 2281.25 449.6875 C 2276.210938 463.945312 2276.601562 475.859375 2282.5 485.9375 C 2288.359375 496.015625 2300.3125 521.5625 2338.75 523.4375 " transform="matrix(0.1, 0, 0, -0.1, 0, 161)"/>
<path fill="none" stroke-width="10" stroke-linecap="butt" stroke-linejoin="miter" stroke="rgb(13.729858%, 12.159729%, 12.548828%)" stroke-opacity="1" stroke-miterlimit="11.5" d="M 2462.5 365.9375 C 2473.398438 374.335938 2485.703125 373.085938 2500 362.1875 C 2514.257812 351.25 2526.171875 338.554688 2536.25 323.4375 C 2546.328125 308.320312 2554.53125 293.125 2561.25 277.1875 C 2567.96875 261.210938 2571.640625 241.523438 2572.5 217.1875 C 2573.320312 192.8125 2570.859375 172.734375 2565 155.9375 C 2559.101562 139.140625 2551.71875 124.375 2542.5 110.9375 C 2533.242188 97.5 2522.578125 87.65625 2510 80.9375 C 2497.382812 74.21875 2483.4375 72.148438 2467.5 74.6875 C 2451.523438 77.1875 2435.9375 84.179688 2420 95.9375 C 2404.023438 107.695312 2388.4375 122.03125 2372.5 139.6875 C 2356.523438 157.304688 2345.039062 176.171875 2337.5 197.1875 C 2329.921875 218.164062 2324.609375 236.210938 2321.25 252.1875 C 2317.890625 268.125 2315.820312 281.25 2315 292.1875 C 2314.140625 303.085938 2315.390625 313.75 2318.75 324.6875 C 2322.109375 335.585938 2330.3125 341.328125 2343.75 342.1875 C 2357.1875 343.007812 2370.3125 343.828125 2383.75 344.6875 C 2397.1875 345.507812 2410.703125 347.148438 2425 349.6875 C 2439.257812 352.1875 2451.5625 357.539062 2462.5 365.9375 Z M 2462.5 365.9375 " transform="matrix(0.1, 0, 0, -0.1, 0, 161)"/>
<path fill="none" stroke-width="10" stroke-linecap="butt" stroke-linejoin="miter" stroke="rgb(13.729858%, 12.159729%, 12.548828%)" stroke-opacity="1" stroke-miterlimit="11.5" d="M 2411.25 348.4375 C 2423.007812 323.242188 2435.3125 305.195312 2448.75 293.4375 C 2462.1875 281.679688 2474.882812 272.226562 2487.5 264.6875 C 2500.078125 257.109375 2526.757812 250.976562 2568.75 245.9375 " transform="matrix(0.1, 0, 0, -0.1, 0, 161)"/>
<path fill="none" stroke-width="10" stroke-linecap="butt" stroke-linejoin="miter" stroke="rgb(13.729858%, 12.159729%, 12.548828%)" stroke-opacity="1" stroke-miterlimit="11.5" d="M 2353.75 343.4375 C 2370.546875 308.164062 2384.492188 283.554688 2396.25 268.4375 C 2408.007812 253.320312 2421.132812 240.195312 2436.25 228.4375 C 2451.367188 216.679688 2464.882812 207.65625 2477.5 200.9375 C 2490.078125 194.21875 2502.8125 190.9375 2516.25 190.9375 C 2529.6875 190.9375 2546.09375 190.117188 2566.25 188.4375 " transform="matrix(0.1, 0, 0, -0.1, 0, 161)"/>
<path fill="none" stroke-width="10" stroke-linecap="butt" stroke-linejoin="miter" stroke="rgb(13.729858%, 12.159729%, 12.548828%)" stroke-opacity="1" stroke-miterlimit="11.5" d="M 3119.765625 554.6875 C 3094.570312 554.6875 3075.703125 553.046875 3062.265625 549.6875 C 3048.828125 546.328125 3035.273438 541.015625 3021.015625 533.4375 C 3006.757812 525.898438 2996.054688 515.625 2988.515625 502.1875 C 2980.9375 488.75 2979.335938 471.132812 2983.515625 448.4375 C 2987.695312 425.78125 2995.117188 407.734375 3006.015625 393.4375 C 3016.914062 379.179688 3027.1875 366.875 3037.265625 355.9375 C 3047.34375 345.039062 3046.523438 336.40625 3034.765625 329.6875 C 3023.007812 322.96875 3011.914062 316.015625 3001.015625 308.4375 C 2990.117188 300.898438 2981.875 291.875 2976.015625 280.9375 C 2970.15625 270.039062 2966.015625 257.734375 2963.515625 243.4375 C 2960.976562 229.179688 2963.046875 214.414062 2969.765625 198.4375 C 2976.484375 182.5 2985.507812 168.945312 2997.265625 157.1875 C 3009.023438 145.429688 3024.21875 137.226562 3043.515625 132.1875 C 3062.8125 127.148438 3080.078125 123.476562 3096.015625 120.9375 C 3111.953125 118.4375 3127.578125 118.4375 3143.515625 120.9375 C 3159.453125 123.476562 3174.648438 128.789062 3189.765625 137.1875 C 3204.882812 145.585938 3217.617188 155.429688 3228.515625 167.1875 C 3239.414062 178.945312 3248.4375 190.859375 3256.015625 203.4375 C 3263.554688 216.054688 3264.804688 228.75 3259.765625 242.1875 C 3254.726562 255.625 3248.554688 268.359375 3241.015625 280.9375 C 3233.4375 293.554688 3223.203125 303.984375 3209.765625 312.8125 C 3196.328125 321.640625 3197.148438 328.59375 3212.265625 334.0625 C 3227.382812 339.53125 3240.507812 345.898438 3252.265625 353.4375 C 3264.023438 361.015625 3273.046875 371.679688 3279.765625 385.9375 C 3286.484375 400.234375 3289.765625 414.179688 3289.765625 428.4375 C 3289.765625 442.734375 3285.664062 457.890625 3277.265625 474.6875 C 3268.867188 491.484375 3257.773438 504.609375 3243.515625 514.6875 C 3229.257812 524.765625 3209.140625 536.25 3182.265625 549.6875 " transform="matrix(0.1, 0, 0, -0.1, 0, 161)"/>
<path fill="none" stroke-width="10" stroke-linecap="butt" stroke-linejoin="miter" stroke="rgb(13.729858%, 12.159729%, 12.548828%)" stroke-opacity="1" stroke-miterlimit="11.5" d="M 3137.265625 372.1875 C 3142.304688 427.617188 3148.046875 463.710938 3154.765625 482.1875 C 3161.484375 500.664062 3170.9375 519.53125 3183.515625 539.6875 C 3196.09375 559.84375 3208.007812 575.859375 3219.765625 588.4375 C 3231.523438 601.054688 3245.078125 610.898438 3261.015625 618.4375 C 3276.953125 626.015625 3291.328125 628.867188 3304.765625 627.1875 C 3318.203125 625.507812 3332.96875 618.945312 3349.765625 607.1875 C 3366.5625 595.429688 3382.578125 579.84375 3398.515625 559.6875 C 3414.453125 539.53125 3425.546875 517.382812 3432.265625 492.1875 C 3438.984375 466.992188 3443.515625 440.351562 3446.015625 410.9375 C 3448.554688 381.5625 3446.875 353.671875 3441.015625 325.9375 C 3435.15625 298.242188 3428.984375 275.273438 3422.265625 255.9375 C 3415.546875 236.640625 3404.882812 219.804688 3389.765625 204.6875 C 3374.648438 189.570312 3357.8125 179.726562 3338.515625 174.6875 C 3319.21875 169.648438 3303.203125 166.367188 3289.765625 164.6875 C 3276.328125 163.007812 3260.742188 167.109375 3242.265625 177.1875 " transform="matrix(0.1, 0, 0, -0.1, 0, 161)"/>
<path fill="none" stroke-width="10" stroke-linecap="butt" stroke-linejoin="miter" stroke="rgb(13.729858%, 12.159729%, 12.548828%)" stroke-opacity="1" stroke-miterlimit="11.5" d="M 3087.265625 392.1875 C 3092.304688 434.179688 3092.226562 459.960938 3097.265625 480.9375 C 3102.304688 501.953125 3108.867188 522.851562 3117.265625 544.6875 C 3125.664062 566.523438 3135.507812 586.640625 3147.265625 605.9375 C 3159.023438 625.273438 3172.578125 640.429688 3188.515625 652.1875 C 3204.453125 663.945312 3221.71875 672.96875 3241.015625 679.6875 C 3260.3125 686.40625 3280.039062 689.6875 3301.015625 689.6875 C 3321.992188 689.6875 3342.109375 686.015625 3362.265625 678.4375 C 3382.421875 670.898438 3401.289062 658.164062 3419.765625 639.6875 C 3438.242188 621.210938 3454.257812 598.671875 3468.515625 570.9375 C 3482.773438 543.242188 3492.65625 513.710938 3498.515625 480.9375 C 3504.375 448.203125 3506.875 415.390625 3506.015625 380.9375 C 3505.195312 346.523438 3501.484375 313.710938 3494.765625 280.9375 C 3488.046875 248.203125 3477.773438 222.34375 3463.515625 202.1875 C 3449.257812 182.03125 3434.0625 164.414062 3417.265625 148.4375 C 3400.46875 132.5 3381.171875 121.40625 3358.515625 114.6875 C 3335.859375 107.96875 3314.101562 103.046875 3292.265625 99.6875 C 3270.429688 96.328125 3253.59375 96.328125 3241.015625 99.6875 C 3228.4375 103.046875 3209.140625 113.710938 3182.265625 132.1875 " transform="matrix(0.1, 0, 0, -0.1, 0, 161)"/>
<path fill="none" stroke-width="10" stroke-linecap="butt" stroke-linejoin="miter" stroke="rgb(13.729858%, 12.159729%, 12.548828%)" stroke-opacity="1" stroke-miterlimit="11.5" d="M 3187.265625 197.1875 C 3168.789062 212.304688 3163.984375 224.609375 3157.265625 234.6875 C 3150.546875 244.765625 3144.804688 261.992188 3139.765625 287.1875 " transform="matrix(0.1, 0, 0, -0.1, 0, 161)"/>
<path fill="none" stroke-width="10" stroke-linecap="butt" stroke-linejoin="miter" stroke="rgb(13.729858%, 12.159729%, 12.548828%)" stroke-opacity="1" stroke-miterlimit="11.5" d="M 3147.265625 172.1875 C 3130.46875 187.304688 3118.984375 200.429688 3112.265625 212.1875 C 3105.546875 223.945312 3100.625 232.96875 3097.265625 239.6875 C 3093.90625 246.40625 3089.804688 266.992188 3084.765625 292.1875 " transform="matrix(0.1, 0, 0, -0.1, 0, 161)"/>
<path fill="none" stroke-width="10" stroke-linecap="butt" stroke-linejoin="miter" stroke="rgb(13.729858%, 12.159729%, 12.548828%)" stroke-opacity="1" stroke-miterlimit="11.5" d="M 3159.765625 492.1875 C 3183.28125 485.46875 3200.9375 477.265625 3213.515625 467.1875 C 3226.09375 457.109375 3232.265625 446.054688 3232.265625 433.4375 C 3232.265625 420.859375 3227.734375 409.765625 3218.515625 399.6875 C 3209.296875 389.609375 3196.953125 382.226562 3181.015625 377.1875 C 3165.078125 372.148438 3151.523438 371.328125 3139.765625 374.6875 C 3128.007812 378.046875 3114.453125 382.148438 3098.515625 387.1875 C 3082.578125 392.226562 3069.84375 399.609375 3059.765625 409.6875 C 3049.6875 419.765625 3043.515625 430.039062 3041.015625 440.9375 C 3038.476562 451.875 3040.15625 461.71875 3046.015625 470.9375 C 3051.875 480.195312 3068.710938 489.609375 3097.265625 499.6875 " transform="matrix(0.1, 0, 0, -0.1, 0, 161)"/>
<path fill="none" stroke-width="10" stroke-linecap="butt" stroke-linejoin="miter" stroke="rgb(13.729858%, 12.159729%, 12.548828%)" stroke-opacity="1" stroke-miterlimit="11.5" d="M 3186.015625 200.9375 C 3193.554688 211.875 3197.695312 222.109375 3198.515625 232.1875 C 3199.375 242.265625 3196.054688 252.929688 3188.515625 264.6875 C 3180.9375 276.445312 3167.421875 284.648438 3147.265625 289.6875 C 3127.109375 294.726562 3109.453125 297.1875 3093.515625 297.1875 C 3077.578125 297.1875 3063.59375 293.085938 3051.015625 284.6875 C 3038.4375 276.289062 3029.804688 264.414062 3024.765625 248.4375 C 3019.726562 232.5 3020.15625 219.375 3026.015625 208.4375 C 3031.875 197.539062 3042.578125 188.515625 3058.515625 180.9375 C 3074.453125 173.398438 3090.898438 169.296875 3108.515625 168.4375 C 3126.132812 167.617188 3141.328125 170.078125 3154.765625 175.9375 C 3168.203125 181.835938 3178.4375 190.039062 3186.015625 200.9375 Z M 3186.015625 200.9375 " transform="matrix(0.1, 0, 0, -0.1, 0, 161)"/>
<path fill="none" stroke-width="10" stroke-linecap="butt" stroke-linejoin="miter" stroke="rgb(13.729858%, 12.159729%, 12.548828%)" stroke-opacity="1" stroke-miterlimit="11.5" d="M 3916.367188 532.695312 C 3923.085938 571.328125 3930.898438 600.859375 3940.117188 622.695312 C 3949.375 644.53125 3962.070312 664.21875 3978.867188 682.695312 C 3995.664062 701.171875 4011.640625 713.476562 4027.617188 720.195312 C 4043.59375 726.914062 4061.210938 731.015625 4081.367188 732.695312 C 4101.523438 734.375 4118.75 732.734375 4133.867188 727.695312 C 4148.984375 722.65625 4162.929688 712.8125 4176.367188 697.695312 C 4189.804688 682.578125 4200.898438 665.351562 4210.117188 645.195312 C 4219.375 625.039062 4226.757812 602.890625 4232.617188 577.695312 C 4238.515625 552.5 4239.726562 528.710938 4236.367188 505.195312 C 4233.007812 481.679688 4228.90625 457.890625 4223.867188 432.695312 C 4218.828125 407.5 4212.695312 387.421875 4205.117188 371.445312 C 4197.578125 355.507812 4186.09375 340.742188 4170.117188 326.445312 C 4154.140625 312.1875 4136.523438 302.734375 4116.367188 297.695312 C 4096.210938 292.65625 4077.34375 291.015625 4058.867188 292.695312 C 4040.390625 294.375 4023.164062 299.296875 4006.367188 307.695312 C 3989.570312 316.09375 3976.875 326.367188 3967.617188 338.945312 C 3958.398438 351.5625 3949.375 366.71875 3940.117188 385.195312 C 3930.898438 403.671875 3923.085938 437.304688 3916.367188 487.695312 " transform="matrix(0.1, 0, 0, -0.1, 0, 161)"/>
<path fill="none" stroke-width="10" stroke-linecap="butt" stroke-linejoin="miter" stroke="rgb(13.729858%, 12.159729%, 12.548828%)" stroke-opacity="1" stroke-miterlimit="11.5" d="M 3863.867188 537.695312 C 3873.945312 579.6875 3878.789062 607.929688 3888.867188 633.945312 C 3898.945312 660 3910.429688 681.328125 3923.867188 698.945312 C 3937.304688 716.601562 3953.28125 732.578125 3972.617188 747.695312 C 3991.914062 762.8125 4016.953125 773.476562 4048.867188 780.195312 C 4080.78125 786.914062 4105.78125 787.34375 4125.117188 781.445312 C 4144.414062 775.585938 4163.710938 767.773438 4183.867188 757.695312 C 4204.023438 747.617188 4220.039062 733.28125 4232.617188 713.945312 C 4245.195312 694.648438 4255.898438 674.140625 4265.117188 651.445312 C 4274.375 628.789062 4279.6875 607.460938 4281.367188 586.445312 C 4283.046875 565.46875 4284.6875 541.679688 4286.367188 513.945312 C 4288.046875 486.25 4286.835938 461.210938 4282.617188 437.695312 C 4278.4375 414.179688 4273.085938 390.390625 4266.367188 365.195312 C 4259.648438 340 4247.734375 317.851562 4230.117188 297.695312 C 4212.460938 277.539062 4195.234375 261.953125 4177.617188 250.195312 C 4159.960938 238.4375 4140.703125 230.664062 4118.867188 226.445312 C 4097.03125 222.265625 4075.703125 222.265625 4053.867188 226.445312 C 4032.03125 230.664062 4012.34375 236.796875 3993.867188 245.195312 C 3975.390625 253.59375 3958.164062 265.507812 3941.367188 281.445312 C 3924.570312 297.421875 3910.625 314.21875 3898.867188 332.695312 C 3887.109375 351.171875 3878.085938 370.46875 3871.367188 391.445312 C 3864.648438 412.460938 3859.726562 444.023438 3856.367188 487.695312 " transform="matrix(0.1, 0, 0, -0.1, 0, 161)"/>
<path fill="none" stroke-width="10" stroke-linecap="butt" stroke-linejoin="miter" stroke="rgb(13.729858%, 12.159729%, 12.548828%)" stroke-opacity="1" stroke-miterlimit="11.5" d="M 3707.617188 228.945312 C 3698.398438 223.085938 3691.015625 211.601562 3685.117188 193.945312 C 3679.257812 176.328125 3677.1875 159.492188 3678.867188 142.695312 C 3680.546875 125.898438 3683.828125 110.742188 3688.867188 96.445312 C 3693.90625 82.1875 3701.71875 71.914062 3712.617188 65.195312 C 3723.554688 58.476562 3734.609375 55.195312 3746.367188 55.195312 C 3758.125 55.195312 3768.789062 59.726562 3778.867188 68.945312 C 3788.945312 78.203125 3797.96875 91.71875 3806.367188 110.195312 C 3814.765625 128.671875 3808.515625 190.078125 3802.617188 205.195312 C 3796.757812 220.3125 3782.929688 253.320312 3743.867188 240.195312 C 3730.46875 235.703125 3716.875 234.84375 3707.617188 228.945312 Z M 3707.617188 228.945312 " transform="matrix(0.1, 0, 0, -0.1, 0, 161)"/>
<path fill="none" stroke-width="10" stroke-linecap="butt" stroke-linejoin="miter" stroke="rgb(13.729858%, 12.159729%, 12.548828%)" stroke-opacity="1" stroke-miterlimit="11.5" d="M 3933.867188 717.695312 C 3912.03125 726.09375 3880.507812 730 3870.429688 730.820312 C 3860.351562 731.679688 3807.304688 713.203125 3793.867188 703.945312 C 3780.429688 694.726562 3770.585938 683.242188 3763.867188 668.945312 C 3757.148438 654.6875 3753.046875 639.492188 3751.367188 622.695312 C 3749.6875 605.898438 3751.328125 592.382812 3756.367188 581.445312 C 3761.40625 570.546875 3760.585938 563.164062 3753.867188 558.945312 C 3747.148438 554.765625 3740.585938 549.023438 3733.867188 541.445312 C 3727.148438 533.90625 3722.65625 523.632812 3720.117188 510.195312 C 3717.617188 496.757812 3717.1875 479.960938 3718.867188 458.945312 C 3720.546875 437.96875 3723.007812 420.742188 3726.367188 406.445312 C 3729.726562 392.1875 3732.617188 377.421875 3735.117188 361.445312 C 3737.65625 345.507812 3736.40625 332.773438 3731.367188 322.695312 C 3726.328125 312.617188 3718.945312 303.59375 3708.867188 295.195312 C 3698.789062 286.796875 3688.125 276.953125 3676.367188 265.195312 C 3664.609375 253.4375 3655.195312 241.5625 3647.617188 228.945312 C 3640.078125 216.367188 3635.15625 203.632812 3632.617188 190.195312 C 3630.117188 176.757812 3629.296875 160.351562 3630.117188 140.195312 C 3630.976562 120.039062 3633.828125 101.601562 3638.867188 83.945312 C 3643.90625 66.328125 3650.46875 51.5625 3658.867188 38.945312 C 3667.265625 26.367188 3678.75 16.914062 3693.867188 10.195312 C 3708.984375 3.476562 3723.75 0.625 3738.867188 1.445312 C 3753.984375 2.304688 3769.570312 6.40625 3786.367188 13.945312 C 3803.164062 21.523438 3816.71875 32.578125 3827.617188 47.695312 C 3838.554688 62.8125 3846.328125 81.289062 3851.367188 103.945312 C 3856.40625 126.640625 3856.835938 148.789062 3852.617188 171.445312 C 3848.4375 194.140625 3841.445312 214.21875 3831.367188 232.695312 C 3821.289062 251.171875 3810 266.757812 3796.992188 280.195312 C 3783.984375 293.632812 3778.632812 305.546875 3780.742188 316.445312 C 3782.851562 327.382812 3783.476562 338.4375 3782.617188 350.195312 C 3781.796875 361.953125 3779.335938 374.257812 3775.117188 387.695312 C 3770.9375 401.132812 3768.046875 413.4375 3766.367188 425.195312 C 3764.6875 436.953125 3764.296875 448.867188 3765.117188 461.445312 C 3765.976562 474.0625 3768.828125 484.296875 3773.867188 492.695312 C 3778.90625 501.09375 3784.648438 506.015625 3791.367188 507.695312 C 3798.085938 509.375 3806.71875 507.734375 3817.617188 502.695312 C 3828.554688 497.65625 3839.21875 493.554688 3850.117188 490.195312 C 3861.054688 486.835938 3874.570312 485.625 3891.367188 486.445312 C 3908.164062 487.304688 3927.03125 489.765625 3948.867188 493.945312 C 3970.703125 498.164062 3988.75 510.039062 4003.867188 530.195312 C 4018.984375 550.351562 4028.828125 567.578125 4033.867188 582.695312 C 4038.90625 597.8125 4038.085938 615.039062 4031.367188 635.195312 C 4024.648438 655.351562 4011.523438 674.21875 3991.367188 692.695312 " transform="matrix(0.1, 0, 0, -0.1, 0, 161)"/>
<path fill="none" stroke-width="10" stroke-linecap="butt" stroke-linejoin="miter" stroke="rgb(13.729858%, 12.159729%, 12.548828%)" stroke-opacity="1" stroke-miterlimit="11.5" d="M 3953.867188 650.195312 C 3968.984375 636.757812 3978.828125 623.632812 3983.867188 610.195312 C 3988.90625 596.757812 3987.695312 583.242188 3980.117188 568.945312 C 3972.578125 554.6875 3963.554688 546.054688 3952.617188 542.695312 C 3941.71875 539.335938 3929.375 537.304688 3915.117188 536.445312 C 3900.859375 535.625 3888.125 535.625 3876.367188 536.445312 C 3864.609375 537.304688 3854.375 541.40625 3845.117188 548.945312 C 3835.898438 556.523438 3827.695312 565.546875 3820.117188 576.445312 C 3812.578125 587.382812 3808.046875 600.078125 3806.367188 615.195312 C 3804.6875 630.3125 3806.757812 642.226562 3812.617188 651.445312 C 3818.515625 660.703125 3827.539062 667.265625 3840.117188 671.445312 C 3852.695312 675.664062 3871.992188 675.234375 3898.867188 670.195312 " transform="matrix(0.1, 0, 0, -0.1, 0, 161)"/>
</svg>
