<?xml version="1.0" encoding="UTF-8"?>
<svg xmlns="http://www.w3.org/2000/svg" xmlns:xlink="http://www.w3.org/1999/xlink" width="74" height="73" viewBox="0 0 74 73">
<path fill-rule="nonzero" fill="rgb(100%, 100%, 100%)" fill-opacity="1" d="M 71.640625 36.320312 C 71.640625 55.148438 56.148438 70.640625 37.320312 70.640625 C 18.492188 70.640625 3 55.148438 3 36.320312 C 3 17.492188 18.492188 2 37.320312 2 C 56.148438 2 71.640625 17.492188 71.640625 36.320312 "/>
<path fill="none" stroke-width="20" stroke-linecap="butt" stroke-linejoin="miter" stroke="rgb(0%, 0%, 0%)" stroke-opacity="1" stroke-miterlimit="4" d="M 716.40625 366.796875 C 716.40625 178.515625 561.484375 23.59375 373.203125 23.59375 C 184.921875 23.59375 30 178.515625 30 366.796875 C 30 555.078125 184.921875 710 373.203125 710 C 561.484375 710 716.40625 555.078125 716.40625 366.796875 Z M 716.40625 366.796875 " transform="matrix(0.1, 0, 0, -0.1, 0, 73)"/>
<path fill="none" stroke-width="20" stroke-linecap="butt" stroke-linejoin="miter" stroke="rgb(0%, 0%, 0%)" stroke-opacity="1" stroke-miterlimit="4" d="M 336.5625 307.421875 C 325.039062 225.976562 479.765625 138.242188 533.398438 72.421875 " transform="matrix(0.1, 0, 0, -0.1, 0, 73)"/>
<path fill="none" stroke-width="20" stroke-linecap="butt" stroke-linejoin="miter" stroke="rgb(0%, 0%, 0%)" stroke-opacity="1" stroke-miterlimit="4" d="M 229.414062 662.421875 C 284.804688 594.492188 447.890625 503.164062 424.609375 419.570312 " transform="matrix(0.1, 0, 0, -0.1, 0, 73)"/>
<path fill="none" stroke-width="20" stroke-linecap="butt" stroke-linejoin="miter" stroke="rgb(0%, 0%, 0%)" stroke-opacity="1" stroke-miterlimit="4" d="M 344.21875 170.15625 C 302.109375 132.5 254.609375 96.71875 229.414062 65.820312 " transform="matrix(0.1, 0, 0, -0.1, 0, 73)"/>
<path fill="none" stroke-width="20" stroke-linecap="butt" stroke-linejoin="miter" stroke="rgb(0%, 0%, 0%)" stroke-opacity="1" stroke-miterlimit="4" d="M 349.84375 474.492188 C 327.265625 435.585938 328.554688 396.71875 381.40625 360.820312 C 430.898438 327.226562 435.195312 291.015625 416.992188 254.570312 " transform="matrix(0.1, 0, 0, -0.1, 0, 73)"/>
<path fill="none" stroke-width="20" stroke-linecap="butt" stroke-linejoin="miter" stroke="rgb(0%, 0%, 0%)" stroke-opacity="1" stroke-miterlimit="4" d="M 533.398438 655.859375 C 507.148438 623.632812 456.71875 586.171875 413.398438 546.796875 " transform="matrix(0.1, 0, 0, -0.1, 0, 73)"/>
</svg>
