<?xml version="1.0" encoding="UTF-8"?>
<svg xmlns="http://www.w3.org/2000/svg" xmlns:xlink="http://www.w3.org/1999/xlink" width="346.37" height="108.25" viewBox="0 0 346.37 108.25">
<path fill-rule="nonzero" fill="rgb(0%, 0%, 0%)" fill-opacity="1" d="M 54.839844 70.003906 L 65.675781 70.003906 L 65.675781 59.167969 L 54.839844 59.167969 Z M 54.839844 70.003906 "/>
<path fill-rule="nonzero" fill="rgb(0%, 0%, 0%)" fill-opacity="1" d="M 54.839844 48.335938 L 65.675781 48.335938 L 65.675781 37.5 L 54.839844 37.5 Z M 54.839844 48.335938 "/>
<path fill-rule="nonzero" fill="rgb(0%, 0%, 0%)" fill-opacity="1" d="M 54.839844 70.003906 L 65.675781 70.003906 L 65.675781 59.167969 L 54.839844 59.167969 Z M 54.839844 70.003906 "/>
<path fill-rule="nonzero" fill="rgb(0%, 0%, 0%)" fill-opacity="1" d="M 54.839844 48.335938 L 65.675781 48.335938 L 65.675781 37.5 L 54.839844 37.5 Z M 54.839844 48.335938 "/>
<path fill-rule="nonzero" fill="rgb(0%, 0%, 0%)" fill-opacity="1" d="M 44.007812 59.167969 L 54.839844 59.167969 L 54.839844 48.335938 L 44.007812 48.335938 Z M 44.007812 59.167969 "/>
<path fill-rule="nonzero" fill="rgb(0%, 0%, 0%)" fill-opacity="1" d="M 44.007812 59.167969 L 54.839844 59.167969 L 54.839844 48.335938 L 44.007812 48.335938 Z M 44.007812 59.167969 "/>
<path fill-rule="nonzero" fill="rgb(0%, 0%, 0%)" fill-opacity="1" d="M 65.675781 59.167969 L 76.507812 59.167969 L 76.507812 48.335938 L 65.675781 48.335938 Z M 65.675781 59.167969 "/>
<path fill-rule="nonzero" fill="rgb(0%, 0%, 0%)" fill-opacity="1" d="M 65.675781 59.167969 L 76.507812 59.167969 L 76.507812 48.335938 L 65.675781 48.335938 Z M 65.675781 59.167969 "/>
<path fill-rule="nonzero" fill="rgb(0%, 0%, 0%)" fill-opacity="1" d="M 22.339844 102.503906 L 33.175781 102.503906 L 33.175781 91.671875 L 22.339844 91.671875 Z M 22.339844 102.503906 "/>
<path fill-rule="nonzero" fill="rgb(0%, 0%, 0%)" fill-opacity="1" d="M 22.339844 15.835938 L 33.175781 15.835938 L 33.175781 5 L 22.339844 5 Z M 22.339844 15.835938 "/>
<path fill-rule="nonzero" fill="rgb(0%, 0%, 0%)" fill-opacity="1" d="M 87.34375 102.503906 L 98.175781 102.503906 L 98.175781 91.671875 L 87.34375 91.671875 Z M 87.34375 102.503906 "/>
<path fill-rule="nonzero" fill="rgb(0%, 0%, 0%)" fill-opacity="1" d="M 87.34375 15.835938 L 98.175781 15.835938 L 98.175781 5 L 87.34375 5 Z M 87.34375 15.835938 "/>
<path fill-rule="nonzero" fill="rgb(0%, 0%, 0%)" fill-opacity="1" d="M 11.507812 91.671875 L 22.339844 91.671875 L 22.339844 80.835938 L 11.507812 80.835938 Z M 11.507812 91.671875 "/>
<path fill-rule="nonzero" fill="rgb(0%, 0%, 0%)" fill-opacity="1" d="M 11.507812 26.667969 L 22.339844 26.667969 L 22.339844 15.835938 L 11.507812 15.835938 Z M 11.507812 26.667969 "/>
<path fill-rule="nonzero" fill="rgb(0%, 0%, 0%)" fill-opacity="1" d="M 98.175781 91.671875 L 109.011719 91.671875 L 109.011719 80.835938 L 98.175781 80.835938 Z M 98.175781 91.671875 "/>
<path fill-rule="nonzero" fill="rgb(0%, 0%, 0%)" fill-opacity="1" d="M 98.175781 26.667969 L 109.011719 26.667969 L 109.011719 15.835938 L 98.175781 15.835938 Z M 98.175781 26.667969 "/>
<path fill-rule="nonzero" fill="rgb(0%, 0%, 0%)" fill-opacity="1" d="M 171.816406 55.871094 L 173.933594 55.871094 L 173.933594 53.753906 L 171.816406 53.753906 Z M 171.816406 55.871094 "/>
<path fill-rule="nonzero" fill="rgb(0%, 0%, 0%)" fill-opacity="1" d="M 171.816406 53.753906 L 173.933594 53.753906 L 173.933594 51.632812 L 171.816406 51.632812 Z M 171.816406 53.753906 "/>
<path fill-rule="nonzero" fill="rgb(0%, 0%, 0%)" fill-opacity="1" d="M 171.816406 55.871094 L 173.933594 55.871094 L 173.933594 53.753906 L 171.816406 53.753906 Z M 171.816406 55.871094 "/>
<path fill-rule="nonzero" fill="rgb(0%, 0%, 0%)" fill-opacity="1" d="M 171.816406 53.753906 L 173.933594 53.753906 L 173.933594 51.632812 L 171.816406 51.632812 Z M 171.816406 53.753906 "/>
<path fill-rule="nonzero" fill="rgb(0%, 0%, 0%)" fill-opacity="1" d="M 170.753906 54.8125 L 172.875 54.8125 L 172.875 52.691406 L 170.753906 52.691406 Z M 170.753906 54.8125 "/>
<path fill-rule="nonzero" fill="rgb(0%, 0%, 0%)" fill-opacity="1" d="M 170.753906 54.8125 L 172.875 54.8125 L 172.875 52.691406 L 170.753906 52.691406 Z M 170.753906 54.8125 "/>
<path fill-rule="nonzero" fill="rgb(0%, 0%, 0%)" fill-opacity="1" d="M 172.875 54.8125 L 174.996094 54.8125 L 174.996094 52.691406 L 172.875 52.691406 Z M 172.875 54.8125 "/>
<path fill-rule="nonzero" fill="rgb(0%, 0%, 0%)" fill-opacity="1" d="M 172.875 54.8125 L 174.996094 54.8125 L 174.996094 52.691406 L 172.875 52.691406 Z M 172.875 54.8125 "/>
<path fill-rule="nonzero" fill="rgb(0%, 0%, 0%)" fill-opacity="1" d="M 168.636719 59.050781 L 170.753906 59.050781 L 170.753906 56.933594 L 168.636719 56.933594 Z M 168.636719 59.050781 "/>
<path fill-rule="nonzero" fill="rgb(0%, 0%, 0%)" fill-opacity="1" d="M 168.636719 50.574219 L 170.753906 50.574219 L 170.753906 48.453125 L 168.636719 48.453125 Z M 168.636719 50.574219 "/>
<path fill-rule="nonzero" fill="rgb(0%, 0%, 0%)" fill-opacity="1" d="M 174.992188 59.050781 L 177.113281 59.050781 L 177.113281 56.933594 L 174.992188 56.933594 Z M 174.992188 59.050781 "/>
<path fill-rule="nonzero" fill="rgb(0%, 0%, 0%)" fill-opacity="1" d="M 174.992188 50.574219 L 177.113281 50.574219 L 177.113281 48.453125 L 174.992188 48.453125 Z M 174.992188 50.574219 "/>
<path fill-rule="nonzero" fill="rgb(0%, 0%, 0%)" fill-opacity="1" d="M 167.574219 57.992188 L 169.695312 57.992188 L 169.695312 55.871094 L 167.574219 55.871094 Z M 167.574219 57.992188 "/>
<path fill-rule="nonzero" fill="rgb(0%, 0%, 0%)" fill-opacity="1" d="M 167.574219 51.632812 L 169.695312 51.632812 L 169.695312 49.511719 L 167.574219 49.511719 Z M 167.574219 51.632812 "/>
<path fill-rule="nonzero" fill="rgb(0%, 0%, 0%)" fill-opacity="1" d="M 176.054688 57.992188 L 178.171875 57.992188 L 178.171875 55.871094 L 176.054688 55.871094 Z M 176.054688 57.992188 "/>
<path fill-rule="nonzero" fill="rgb(0%, 0%, 0%)" fill-opacity="1" d="M 176.054688 51.632812 L 178.171875 51.632812 L 178.171875 49.511719 L 176.054688 49.511719 Z M 176.054688 51.632812 "/>
<path fill-rule="nonzero" fill="rgb(0%, 0%, 0%)" fill-opacity="1" d="M 166.515625 67.53125 L 168.636719 67.53125 L 168.636719 65.410156 L 166.515625 65.410156 Z M 166.515625 67.53125 "/>
<path fill-rule="nonzero" fill="rgb(0%, 0%, 0%)" fill-opacity="1" d="M 166.515625 42.09375 L 168.636719 42.09375 L 168.636719 39.972656 L 166.515625 39.972656 Z M 166.515625 42.09375 "/>
<path fill-rule="nonzero" fill="rgb(0%, 0%, 0%)" fill-opacity="1" d="M 177.113281 67.53125 L 179.234375 67.53125 L 179.234375 65.410156 L 177.113281 65.410156 Z M 177.113281 67.53125 "/>
<path fill-rule="nonzero" fill="rgb(0%, 0%, 0%)" fill-opacity="1" d="M 177.113281 42.09375 L 179.234375 42.09375 L 179.234375 39.972656 L 177.113281 39.972656 Z M 177.113281 42.09375 "/>
<path fill-rule="nonzero" fill="rgb(0%, 0%, 0%)" fill-opacity="1" d="M 164.394531 80.246094 L 166.515625 80.246094 L 166.515625 78.128906 L 164.394531 78.128906 Z M 164.394531 80.246094 "/>
<path fill-rule="nonzero" fill="rgb(0%, 0%, 0%)" fill-opacity="1" d="M 164.394531 29.375 L 166.515625 29.375 L 166.515625 27.257812 L 164.394531 27.257812 Z M 164.394531 29.375 "/>
<path fill-rule="nonzero" fill="rgb(0%, 0%, 0%)" fill-opacity="1" d="M 179.234375 80.246094 L 181.355469 80.246094 L 181.355469 78.128906 L 179.234375 78.128906 Z M 179.234375 80.246094 "/>
<path fill-rule="nonzero" fill="rgb(0%, 0%, 0%)" fill-opacity="1" d="M 179.234375 29.375 L 181.355469 29.375 L 181.355469 27.257812 L 179.234375 27.257812 Z M 179.234375 29.375 "/>
<path fill-rule="nonzero" fill="rgb(0%, 0%, 0%)" fill-opacity="1" d="M 163.335938 70.710938 L 165.457031 70.710938 L 165.457031 68.589844 L 163.335938 68.589844 Z M 163.335938 70.710938 "/>
<path fill-rule="nonzero" fill="rgb(0%, 0%, 0%)" fill-opacity="1" d="M 163.335938 38.914062 L 165.457031 38.914062 L 165.457031 36.796875 L 163.335938 36.796875 Z M 163.335938 38.914062 "/>
<path fill-rule="nonzero" fill="rgb(0%, 0%, 0%)" fill-opacity="1" d="M 180.292969 70.710938 L 182.414062 70.710938 L 182.414062 68.589844 L 180.292969 68.589844 Z M 180.292969 70.710938 "/>
<path fill-rule="nonzero" fill="rgb(0%, 0%, 0%)" fill-opacity="1" d="M 180.292969 38.914062 L 182.414062 38.914062 L 182.414062 36.796875 L 180.292969 36.796875 Z M 180.292969 38.914062 "/>
<path fill-rule="nonzero" fill="rgb(0%, 0%, 0%)" fill-opacity="1" d="M 162.277344 97.203125 L 164.394531 97.203125 L 164.394531 95.085938 L 162.277344 95.085938 Z M 162.277344 97.203125 "/>
<path fill-rule="nonzero" fill="rgb(0%, 0%, 0%)" fill-opacity="1" d="M 162.277344 12.417969 L 164.394531 12.417969 L 164.394531 10.300781 L 162.277344 10.300781 Z M 162.277344 12.417969 "/>
<path fill-rule="nonzero" fill="rgb(0%, 0%, 0%)" fill-opacity="1" d="M 181.351562 97.203125 L 183.472656 97.203125 L 183.472656 95.085938 L 181.351562 95.085938 Z M 181.351562 97.203125 "/>
<path fill-rule="nonzero" fill="rgb(0%, 0%, 0%)" fill-opacity="1" d="M 181.351562 12.417969 L 183.472656 12.417969 L 183.472656 10.300781 L 181.351562 10.300781 Z M 181.351562 12.417969 "/>
<path fill-rule="nonzero" fill="rgb(0%, 0%, 0%)" fill-opacity="1" d="M 159.097656 60.109375 L 161.214844 60.109375 L 161.214844 57.992188 L 159.097656 57.992188 Z M 159.097656 60.109375 "/>
<path fill-rule="nonzero" fill="rgb(0%, 0%, 0%)" fill-opacity="1" d="M 159.097656 49.511719 L 161.214844 49.511719 L 161.214844 47.394531 L 159.097656 47.394531 Z M 159.097656 49.511719 "/>
<path fill-rule="nonzero" fill="rgb(0%, 0%, 0%)" fill-opacity="1" d="M 184.53125 60.109375 L 186.652344 60.109375 L 186.652344 57.992188 L 184.53125 57.992188 Z M 184.53125 60.109375 "/>
<path fill-rule="nonzero" fill="rgb(0%, 0%, 0%)" fill-opacity="1" d="M 184.53125 49.511719 L 186.652344 49.511719 L 186.652344 47.394531 L 184.53125 47.394531 Z M 184.53125 49.511719 "/>
<path fill-rule="nonzero" fill="rgb(0%, 0%, 0%)" fill-opacity="1" d="M 159.097656 91.90625 L 161.214844 91.90625 L 161.214844 89.785156 L 159.097656 89.785156 Z M 159.097656 91.90625 "/>
<path fill-rule="nonzero" fill="rgb(0%, 0%, 0%)" fill-opacity="1" d="M 159.097656 17.71875 L 161.214844 17.71875 L 161.214844 15.597656 L 159.097656 15.597656 Z M 159.097656 17.71875 "/>
<path fill-rule="nonzero" fill="rgb(0%, 0%, 0%)" fill-opacity="1" d="M 184.53125 91.90625 L 186.652344 91.90625 L 186.652344 89.785156 L 184.53125 89.785156 Z M 184.53125 91.90625 "/>
<path fill-rule="nonzero" fill="rgb(0%, 0%, 0%)" fill-opacity="1" d="M 184.53125 17.71875 L 186.652344 17.71875 L 186.652344 15.597656 L 184.53125 15.597656 Z M 184.53125 17.71875 "/>
<path fill-rule="nonzero" fill="rgb(0%, 0%, 0%)" fill-opacity="1" d="M 155.917969 63.292969 L 158.035156 63.292969 L 158.035156 61.171875 L 155.917969 61.171875 Z M 155.917969 63.292969 "/>
<path fill-rule="nonzero" fill="rgb(0%, 0%, 0%)" fill-opacity="1" d="M 155.917969 46.335938 L 158.035156 46.335938 L 158.035156 44.214844 L 155.917969 44.214844 Z M 155.917969 46.335938 "/>
<path fill-rule="nonzero" fill="rgb(0%, 0%, 0%)" fill-opacity="1" d="M 187.710938 63.292969 L 189.832031 63.292969 L 189.832031 61.171875 L 187.710938 61.171875 Z M 187.710938 63.292969 "/>
<path fill-rule="nonzero" fill="rgb(0%, 0%, 0%)" fill-opacity="1" d="M 187.710938 46.335938 L 189.832031 46.335938 L 189.832031 44.214844 L 187.710938 44.214844 Z M 187.710938 46.335938 "/>
<path fill-rule="nonzero" fill="rgb(0%, 0%, 0%)" fill-opacity="1" d="M 150.617188 77.066406 L 152.738281 77.066406 L 152.738281 74.949219 L 150.617188 74.949219 Z M 150.617188 77.066406 "/>
<path fill-rule="nonzero" fill="rgb(0%, 0%, 0%)" fill-opacity="1" d="M 150.617188 32.554688 L 152.738281 32.554688 L 152.738281 30.4375 L 150.617188 30.4375 Z M 150.617188 32.554688 "/>
<path fill-rule="nonzero" fill="rgb(0%, 0%, 0%)" fill-opacity="1" d="M 193.011719 77.066406 L 195.128906 77.066406 L 195.128906 74.949219 L 193.011719 74.949219 Z M 193.011719 77.066406 "/>
<path fill-rule="nonzero" fill="rgb(0%, 0%, 0%)" fill-opacity="1" d="M 193.011719 32.554688 L 195.128906 32.554688 L 195.128906 30.4375 L 193.011719 30.4375 Z M 193.011719 32.554688 "/>
<path fill-rule="nonzero" fill="rgb(0%, 0%, 0%)" fill-opacity="1" d="M 149.558594 76.007812 L 151.679688 76.007812 L 151.679688 73.890625 L 149.558594 73.890625 Z M 149.558594 76.007812 "/>
<path fill-rule="nonzero" fill="rgb(0%, 0%, 0%)" fill-opacity="1" d="M 149.558594 33.617188 L 151.679688 33.617188 L 151.679688 31.496094 L 149.558594 31.496094 Z M 149.558594 33.617188 "/>
<path fill-rule="nonzero" fill="rgb(0%, 0%, 0%)" fill-opacity="1" d="M 194.070312 76.007812 L 196.191406 76.007812 L 196.191406 73.890625 L 194.070312 73.890625 Z M 194.070312 76.007812 "/>
<path fill-rule="nonzero" fill="rgb(0%, 0%, 0%)" fill-opacity="1" d="M 194.070312 33.617188 L 196.191406 33.617188 L 196.191406 31.496094 L 194.070312 31.496094 Z M 194.070312 33.617188 "/>
<path fill-rule="nonzero" fill="rgb(0%, 0%, 0%)" fill-opacity="1" d="M 146.378906 62.230469 L 148.496094 62.230469 L 148.496094 60.109375 L 146.378906 60.109375 Z M 146.378906 62.230469 "/>
<path fill-rule="nonzero" fill="rgb(0%, 0%, 0%)" fill-opacity="1" d="M 146.378906 47.394531 L 148.496094 47.394531 L 148.496094 45.273438 L 146.378906 45.273438 Z M 146.378906 47.394531 "/>
<path fill-rule="nonzero" fill="rgb(0%, 0%, 0%)" fill-opacity="1" d="M 197.25 62.230469 L 199.371094 62.230469 L 199.371094 60.109375 L 197.25 60.109375 Z M 197.25 62.230469 "/>
<path fill-rule="nonzero" fill="rgb(0%, 0%, 0%)" fill-opacity="1" d="M 197.25 47.394531 L 199.371094 47.394531 L 199.371094 45.273438 L 197.25 45.273438 Z M 197.25 47.394531 "/>
<path fill-rule="nonzero" fill="rgb(0%, 0%, 0%)" fill-opacity="1" d="M 142.140625 102.503906 L 144.257812 102.503906 L 144.257812 100.386719 L 142.140625 100.386719 Z M 142.140625 102.503906 "/>
<path fill-rule="nonzero" fill="rgb(0%, 0%, 0%)" fill-opacity="1" d="M 142.140625 7.121094 L 144.257812 7.121094 L 144.257812 5 L 142.140625 5 Z M 142.140625 7.121094 "/>
<path fill-rule="nonzero" fill="rgb(0%, 0%, 0%)" fill-opacity="1" d="M 201.488281 102.503906 L 203.609375 102.503906 L 203.609375 100.386719 L 201.488281 100.386719 Z M 201.488281 102.503906 "/>
<path fill-rule="nonzero" fill="rgb(0%, 0%, 0%)" fill-opacity="1" d="M 201.488281 7.121094 L 203.609375 7.121094 L 203.609375 5 L 201.488281 5 Z M 201.488281 7.121094 "/>
<path fill-rule="nonzero" fill="rgb(0%, 0%, 0%)" fill-opacity="1" d="M 134.722656 67.53125 L 136.839844 67.53125 L 136.839844 65.410156 L 134.722656 65.410156 Z M 134.722656 67.53125 "/>
<path fill-rule="nonzero" fill="rgb(0%, 0%, 0%)" fill-opacity="1" d="M 134.722656 42.09375 L 136.839844 42.09375 L 136.839844 39.972656 L 134.722656 39.972656 Z M 134.722656 42.09375 "/>
<path fill-rule="nonzero" fill="rgb(0%, 0%, 0%)" fill-opacity="1" d="M 208.910156 67.53125 L 211.027344 67.53125 L 211.027344 65.410156 L 208.910156 65.410156 Z M 208.910156 67.53125 "/>
<path fill-rule="nonzero" fill="rgb(0%, 0%, 0%)" fill-opacity="1" d="M 208.910156 42.09375 L 211.027344 42.09375 L 211.027344 39.972656 L 208.910156 39.972656 Z M 208.910156 42.09375 "/>
<path fill-rule="nonzero" fill="rgb(0%, 0%, 0%)" fill-opacity="1" d="M 129.421875 64.351562 L 131.542969 64.351562 L 131.542969 62.230469 L 129.421875 62.230469 Z M 129.421875 64.351562 "/>
<path fill-rule="nonzero" fill="rgb(0%, 0%, 0%)" fill-opacity="1" d="M 129.421875 45.273438 L 131.542969 45.273438 L 131.542969 43.152344 L 129.421875 43.152344 Z M 129.421875 45.273438 "/>
<path fill-rule="nonzero" fill="rgb(0%, 0%, 0%)" fill-opacity="1" d="M 214.207031 64.351562 L 216.328125 64.351562 L 216.328125 62.230469 L 214.207031 62.230469 Z M 214.207031 64.351562 "/>
<path fill-rule="nonzero" fill="rgb(0%, 0%, 0%)" fill-opacity="1" d="M 214.207031 45.273438 L 216.328125 45.273438 L 216.328125 43.152344 L 214.207031 43.152344 Z M 214.207031 45.273438 "/>
<path fill-rule="nonzero" fill="rgb(0%, 0%, 0%)" fill-opacity="1" d="M 124.121094 84.488281 L 126.242188 84.488281 L 126.242188 82.367188 L 124.121094 82.367188 Z M 124.121094 84.488281 "/>
<path fill-rule="nonzero" fill="rgb(0%, 0%, 0%)" fill-opacity="1" d="M 124.121094 25.136719 L 126.242188 25.136719 L 126.242188 23.015625 L 124.121094 23.015625 Z M 124.121094 25.136719 "/>
<path fill-rule="nonzero" fill="rgb(0%, 0%, 0%)" fill-opacity="1" d="M 219.507812 84.488281 L 221.625 84.488281 L 221.625 82.367188 L 219.507812 82.367188 Z M 219.507812 84.488281 "/>
<path fill-rule="nonzero" fill="rgb(0%, 0%, 0%)" fill-opacity="1" d="M 219.507812 25.136719 L 221.625 25.136719 L 221.625 23.015625 L 219.507812 23.015625 Z M 219.507812 25.136719 "/>
<path fill-rule="nonzero" fill="rgb(0%, 0%, 0%)" fill-opacity="1" d="M 284.761719 54.964844 L 286.21875 54.964844 L 286.21875 53.507812 L 284.761719 53.507812 Z M 284.761719 54.964844 "/>
<path fill-rule="nonzero" fill="rgb(0%, 0%, 0%)" fill-opacity="1" d="M 284.761719 53.996094 L 286.21875 53.996094 L 286.21875 52.539062 L 284.761719 52.539062 Z M 284.761719 53.996094 "/>
<path fill-rule="nonzero" fill="rgb(0%, 0%, 0%)" fill-opacity="1" d="M 284.761719 54.964844 L 286.21875 54.964844 L 286.21875 53.507812 L 284.761719 53.507812 Z M 284.761719 54.964844 "/>
<path fill-rule="nonzero" fill="rgb(0%, 0%, 0%)" fill-opacity="1" d="M 284.761719 53.996094 L 286.21875 53.996094 L 286.21875 52.539062 L 284.761719 52.539062 Z M 284.761719 53.996094 "/>
<path fill-rule="nonzero" fill="rgb(0%, 0%, 0%)" fill-opacity="1" d="M 284.277344 54.480469 L 285.734375 54.480469 L 285.734375 53.023438 L 284.277344 53.023438 Z M 284.277344 54.480469 "/>
<path fill-rule="nonzero" fill="rgb(0%, 0%, 0%)" fill-opacity="1" d="M 284.277344 54.480469 L 285.734375 54.480469 L 285.734375 53.023438 L 284.277344 53.023438 Z M 284.277344 54.480469 "/>
<path fill-rule="nonzero" fill="rgb(0%, 0%, 0%)" fill-opacity="1" d="M 285.246094 54.480469 L 286.703125 54.480469 L 286.703125 53.023438 L 285.246094 53.023438 Z M 285.246094 54.480469 "/>
<path fill-rule="nonzero" fill="rgb(0%, 0%, 0%)" fill-opacity="1" d="M 285.246094 54.480469 L 286.703125 54.480469 L 286.703125 53.023438 L 285.246094 53.023438 Z M 285.246094 54.480469 "/>
<path fill-rule="nonzero" fill="rgb(0%, 0%, 0%)" fill-opacity="1" d="M 283.308594 56.421875 L 284.761719 56.421875 L 284.761719 54.964844 L 283.308594 54.964844 Z M 283.308594 56.421875 "/>
<path fill-rule="nonzero" fill="rgb(0%, 0%, 0%)" fill-opacity="1" d="M 283.308594 52.539062 L 284.761719 52.539062 L 284.761719 51.085938 L 283.308594 51.085938 Z M 283.308594 52.539062 "/>
<path fill-rule="nonzero" fill="rgb(0%, 0%, 0%)" fill-opacity="1" d="M 286.21875 56.421875 L 287.671875 56.421875 L 287.671875 54.964844 L 286.21875 54.964844 Z M 286.21875 56.421875 "/>
<path fill-rule="nonzero" fill="rgb(0%, 0%, 0%)" fill-opacity="1" d="M 286.21875 52.539062 L 287.671875 52.539062 L 287.671875 51.085938 L 286.21875 51.085938 Z M 286.21875 52.539062 "/>
<path fill-rule="nonzero" fill="rgb(0%, 0%, 0%)" fill-opacity="1" d="M 282.824219 55.933594 L 284.277344 55.933594 L 284.277344 54.480469 L 282.824219 54.480469 Z M 282.824219 55.933594 "/>
<path fill-rule="nonzero" fill="rgb(0%, 0%, 0%)" fill-opacity="1" d="M 282.824219 53.023438 L 284.277344 53.023438 L 284.277344 51.570312 L 282.824219 51.570312 Z M 282.824219 53.023438 "/>
<path fill-rule="nonzero" fill="rgb(0%, 0%, 0%)" fill-opacity="1" d="M 286.703125 55.933594 L 288.160156 55.933594 L 288.160156 54.480469 L 286.703125 54.480469 Z M 286.703125 55.933594 "/>
<path fill-rule="nonzero" fill="rgb(0%, 0%, 0%)" fill-opacity="1" d="M 286.703125 53.023438 L 288.160156 53.023438 L 288.160156 51.570312 L 286.703125 51.570312 Z M 286.703125 53.023438 "/>
<path fill-rule="nonzero" fill="rgb(0%, 0%, 0%)" fill-opacity="1" d="M 282.335938 60.300781 L 283.792969 60.300781 L 283.792969 58.847656 L 282.335938 58.847656 Z M 282.335938 60.300781 "/>
<path fill-rule="nonzero" fill="rgb(0%, 0%, 0%)" fill-opacity="1" d="M 282.335938 48.660156 L 283.792969 48.660156 L 283.792969 47.203125 L 282.335938 47.203125 Z M 282.335938 48.660156 "/>
<path fill-rule="nonzero" fill="rgb(0%, 0%, 0%)" fill-opacity="1" d="M 287.1875 60.300781 L 288.644531 60.300781 L 288.644531 58.847656 L 287.1875 58.847656 Z M 287.1875 60.300781 "/>
<path fill-rule="nonzero" fill="rgb(0%, 0%, 0%)" fill-opacity="1" d="M 287.1875 48.660156 L 288.644531 48.660156 L 288.644531 47.203125 L 287.1875 47.203125 Z M 287.1875 48.660156 "/>
<path fill-rule="nonzero" fill="rgb(0%, 0%, 0%)" fill-opacity="1" d="M 281.367188 66.121094 L 282.820312 66.121094 L 282.820312 64.667969 L 281.367188 64.667969 Z M 281.367188 66.121094 "/>
<path fill-rule="nonzero" fill="rgb(0%, 0%, 0%)" fill-opacity="1" d="M 281.367188 42.839844 L 282.820312 42.839844 L 282.820312 41.382812 L 281.367188 41.382812 Z M 281.367188 42.839844 "/>
<path fill-rule="nonzero" fill="rgb(0%, 0%, 0%)" fill-opacity="1" d="M 288.160156 66.121094 L 289.613281 66.121094 L 289.613281 64.667969 L 288.160156 64.667969 Z M 288.160156 66.121094 "/>
<path fill-rule="nonzero" fill="rgb(0%, 0%, 0%)" fill-opacity="1" d="M 288.160156 42.839844 L 289.613281 42.839844 L 289.613281 41.382812 L 288.160156 41.382812 Z M 288.160156 42.839844 "/>
<path fill-rule="nonzero" fill="rgb(0%, 0%, 0%)" fill-opacity="1" d="M 280.882812 61.757812 L 282.339844 61.757812 L 282.339844 60.300781 L 280.882812 60.300781 Z M 280.882812 61.757812 "/>
<path fill-rule="nonzero" fill="rgb(0%, 0%, 0%)" fill-opacity="1" d="M 280.882812 47.203125 L 282.339844 47.203125 L 282.339844 45.75 L 280.882812 45.75 Z M 280.882812 47.203125 "/>
<path fill-rule="nonzero" fill="rgb(0%, 0%, 0%)" fill-opacity="1" d="M 288.644531 61.757812 L 290.097656 61.757812 L 290.097656 60.300781 L 288.644531 60.300781 Z M 288.644531 61.757812 "/>
<path fill-rule="nonzero" fill="rgb(0%, 0%, 0%)" fill-opacity="1" d="M 288.644531 47.203125 L 290.097656 47.203125 L 290.097656 45.75 L 288.644531 45.75 Z M 288.644531 47.203125 "/>
<path fill-rule="nonzero" fill="rgb(0%, 0%, 0%)" fill-opacity="1" d="M 280.398438 73.882812 L 281.851562 73.882812 L 281.851562 72.429688 L 280.398438 72.429688 Z M 280.398438 73.882812 "/>
<path fill-rule="nonzero" fill="rgb(0%, 0%, 0%)" fill-opacity="1" d="M 280.398438 35.078125 L 281.851562 35.078125 L 281.851562 33.621094 L 280.398438 33.621094 Z M 280.398438 35.078125 "/>
<path fill-rule="nonzero" fill="rgb(0%, 0%, 0%)" fill-opacity="1" d="M 289.128906 73.882812 L 290.585938 73.882812 L 290.585938 72.429688 L 289.128906 72.429688 Z M 289.128906 73.882812 "/>
<path fill-rule="nonzero" fill="rgb(0%, 0%, 0%)" fill-opacity="1" d="M 289.128906 35.078125 L 290.585938 35.078125 L 290.585938 33.621094 L 289.128906 33.621094 Z M 289.128906 35.078125 "/>
<path fill-rule="nonzero" fill="rgb(0%, 0%, 0%)" fill-opacity="1" d="M 279.425781 83.585938 L 280.882812 83.585938 L 280.882812 82.132812 L 279.425781 82.132812 Z M 279.425781 83.585938 "/>
<path fill-rule="nonzero" fill="rgb(0%, 0%, 0%)" fill-opacity="1" d="M 279.425781 25.375 L 280.882812 25.375 L 280.882812 23.917969 L 279.425781 23.917969 Z M 279.425781 25.375 "/>
<path fill-rule="nonzero" fill="rgb(0%, 0%, 0%)" fill-opacity="1" d="M 290.097656 83.585938 L 291.554688 83.585938 L 291.554688 82.132812 L 290.097656 82.132812 Z M 290.097656 83.585938 "/>
<path fill-rule="nonzero" fill="rgb(0%, 0%, 0%)" fill-opacity="1" d="M 290.097656 25.375 L 291.554688 25.375 L 291.554688 23.917969 L 290.097656 23.917969 Z M 290.097656 25.375 "/>
<path fill-rule="nonzero" fill="rgb(0%, 0%, 0%)" fill-opacity="1" d="M 278.941406 56.90625 L 280.398438 56.90625 L 280.398438 55.449219 L 278.941406 55.449219 Z M 278.941406 56.90625 "/>
<path fill-rule="nonzero" fill="rgb(0%, 0%, 0%)" fill-opacity="1" d="M 278.941406 52.054688 L 280.398438 52.054688 L 280.398438 50.597656 L 278.941406 50.597656 Z M 278.941406 52.054688 "/>
<path fill-rule="nonzero" fill="rgb(0%, 0%, 0%)" fill-opacity="1" d="M 290.585938 56.90625 L 292.039062 56.90625 L 292.039062 55.449219 L 290.585938 55.449219 Z M 290.585938 56.90625 "/>
<path fill-rule="nonzero" fill="rgb(0%, 0%, 0%)" fill-opacity="1" d="M 290.585938 52.054688 L 292.039062 52.054688 L 292.039062 50.597656 L 290.585938 50.597656 Z M 290.585938 52.054688 "/>
<path fill-rule="nonzero" fill="rgb(0%, 0%, 0%)" fill-opacity="1" d="M 278.941406 71.457031 L 280.398438 71.457031 L 280.398438 70.003906 L 278.941406 70.003906 Z M 278.941406 71.457031 "/>
<path fill-rule="nonzero" fill="rgb(0%, 0%, 0%)" fill-opacity="1" d="M 278.941406 37.5 L 280.398438 37.5 L 280.398438 36.046875 L 278.941406 36.046875 Z M 278.941406 37.5 "/>
<path fill-rule="nonzero" fill="rgb(0%, 0%, 0%)" fill-opacity="1" d="M 290.585938 71.457031 L 292.039062 71.457031 L 292.039062 70.003906 L 290.585938 70.003906 Z M 290.585938 71.457031 "/>
<path fill-rule="nonzero" fill="rgb(0%, 0%, 0%)" fill-opacity="1" d="M 290.585938 37.5 L 292.039062 37.5 L 292.039062 36.046875 L 290.585938 36.046875 Z M 290.585938 37.5 "/>
<path fill-rule="nonzero" fill="rgb(0%, 0%, 0%)" fill-opacity="1" d="M 278.457031 95.226562 L 279.914062 95.226562 L 279.914062 93.773438 L 278.457031 93.773438 Z M 278.457031 95.226562 "/>
<path fill-rule="nonzero" fill="rgb(0%, 0%, 0%)" fill-opacity="1" d="M 278.457031 13.734375 L 279.914062 13.734375 L 279.914062 12.277344 L 278.457031 12.277344 Z M 278.457031 13.734375 "/>
<path fill-rule="nonzero" fill="rgb(0%, 0%, 0%)" fill-opacity="1" d="M 291.070312 95.226562 L 292.523438 95.226562 L 292.523438 93.773438 L 291.070312 93.773438 Z M 291.070312 95.226562 "/>
<path fill-rule="nonzero" fill="rgb(0%, 0%, 0%)" fill-opacity="1" d="M 291.070312 13.734375 L 292.523438 13.734375 L 292.523438 12.277344 L 291.070312 12.277344 Z M 291.070312 13.734375 "/>
<path fill-rule="nonzero" fill="rgb(0%, 0%, 0%)" fill-opacity="1" d="M 277.488281 58.359375 L 278.941406 58.359375 L 278.941406 56.90625 L 277.488281 56.90625 Z M 277.488281 58.359375 "/>
<path fill-rule="nonzero" fill="rgb(0%, 0%, 0%)" fill-opacity="1" d="M 277.488281 50.597656 L 278.941406 50.597656 L 278.941406 49.144531 L 277.488281 49.144531 Z M 277.488281 50.597656 "/>
<path fill-rule="nonzero" fill="rgb(0%, 0%, 0%)" fill-opacity="1" d="M 292.039062 58.359375 L 293.496094 58.359375 L 293.496094 56.90625 L 292.039062 56.90625 Z M 292.039062 58.359375 "/>
<path fill-rule="nonzero" fill="rgb(0%, 0%, 0%)" fill-opacity="1" d="M 292.039062 50.597656 L 293.496094 50.597656 L 293.496094 49.144531 L 292.039062 49.144531 Z M 292.039062 50.597656 "/>
<path fill-rule="nonzero" fill="rgb(0%, 0%, 0%)" fill-opacity="1" d="M 277 85.039062 L 278.457031 85.039062 L 278.457031 83.585938 L 277 83.585938 Z M 277 85.039062 "/>
<path fill-rule="nonzero" fill="rgb(0%, 0%, 0%)" fill-opacity="1" d="M 277 23.917969 L 278.457031 23.917969 L 278.457031 22.464844 L 277 22.464844 Z M 277 23.917969 "/>
<path fill-rule="nonzero" fill="rgb(0%, 0%, 0%)" fill-opacity="1" d="M 292.523438 85.039062 L 293.980469 85.039062 L 293.980469 83.585938 L 292.523438 83.585938 Z M 292.523438 85.039062 "/>
<path fill-rule="nonzero" fill="rgb(0%, 0%, 0%)" fill-opacity="1" d="M 292.523438 23.917969 L 293.980469 23.917969 L 293.980469 22.464844 L 292.523438 22.464844 Z M 292.523438 23.917969 "/>
<path fill-rule="nonzero" fill="rgb(0%, 0%, 0%)" fill-opacity="1" d="M 275.0625 64.667969 L 276.515625 64.667969 L 276.515625 63.210938 L 275.0625 63.210938 Z M 275.0625 64.667969 "/>
<path fill-rule="nonzero" fill="rgb(0%, 0%, 0%)" fill-opacity="1" d="M 275.0625 44.292969 L 276.515625 44.292969 L 276.515625 42.839844 L 275.0625 42.839844 Z M 275.0625 44.292969 "/>
<path fill-rule="nonzero" fill="rgb(0%, 0%, 0%)" fill-opacity="1" d="M 294.464844 64.667969 L 295.921875 64.667969 L 295.921875 63.210938 L 294.464844 63.210938 Z M 294.464844 64.667969 "/>
<path fill-rule="nonzero" fill="rgb(0%, 0%, 0%)" fill-opacity="1" d="M 294.464844 44.292969 L 295.921875 44.292969 L 295.921875 42.839844 L 294.464844 42.839844 Z M 294.464844 44.292969 "/>
<path fill-rule="nonzero" fill="rgb(0%, 0%, 0%)" fill-opacity="1" d="M 275.0625 102.503906 L 276.515625 102.503906 L 276.515625 101.050781 L 275.0625 101.050781 Z M 275.0625 102.503906 "/>
<path fill-rule="nonzero" fill="rgb(0%, 0%, 0%)" fill-opacity="1" d="M 275.0625 6.457031 L 276.515625 6.457031 L 276.515625 5 L 275.0625 5 Z M 275.0625 6.457031 "/>
<path fill-rule="nonzero" fill="rgb(0%, 0%, 0%)" fill-opacity="1" d="M 294.464844 102.503906 L 295.921875 102.503906 L 295.921875 101.050781 L 294.464844 101.050781 Z M 294.464844 102.503906 "/>
<path fill-rule="nonzero" fill="rgb(0%, 0%, 0%)" fill-opacity="1" d="M 294.464844 6.457031 L 295.921875 6.457031 L 295.921875 5 L 294.464844 5 Z M 294.464844 6.457031 "/>
<path fill-rule="nonzero" fill="rgb(0%, 0%, 0%)" fill-opacity="1" d="M 274.578125 64.183594 L 276.03125 64.183594 L 276.03125 62.726562 L 274.578125 62.726562 Z M 274.578125 64.183594 "/>
<path fill-rule="nonzero" fill="rgb(0%, 0%, 0%)" fill-opacity="1" d="M 274.578125 44.777344 L 276.03125 44.777344 L 276.03125 43.324219 L 274.578125 43.324219 Z M 274.578125 44.777344 "/>
<path fill-rule="nonzero" fill="rgb(0%, 0%, 0%)" fill-opacity="1" d="M 294.949219 64.183594 L 296.40625 64.183594 L 296.40625 62.726562 L 294.949219 62.726562 Z M 294.949219 64.183594 "/>
<path fill-rule="nonzero" fill="rgb(0%, 0%, 0%)" fill-opacity="1" d="M 294.949219 44.777344 L 296.40625 44.777344 L 296.40625 43.324219 L 294.949219 43.324219 Z M 294.949219 44.777344 "/>
<path fill-rule="nonzero" fill="rgb(0%, 0%, 0%)" fill-opacity="1" d="M 273.121094 57.875 L 274.578125 57.875 L 274.578125 56.421875 L 273.121094 56.421875 Z M 273.121094 57.875 "/>
<path fill-rule="nonzero" fill="rgb(0%, 0%, 0%)" fill-opacity="1" d="M 273.121094 51.085938 L 274.578125 51.085938 L 274.578125 49.628906 L 273.121094 49.628906 Z M 273.121094 51.085938 "/>
<path fill-rule="nonzero" fill="rgb(0%, 0%, 0%)" fill-opacity="1" d="M 296.40625 57.875 L 297.859375 57.875 L 297.859375 56.421875 L 296.40625 56.421875 Z M 296.40625 57.875 "/>
<path fill-rule="nonzero" fill="rgb(0%, 0%, 0%)" fill-opacity="1" d="M 296.40625 51.085938 L 297.859375 51.085938 L 297.859375 49.628906 L 296.40625 49.628906 Z M 296.40625 51.085938 "/>
<path fill-rule="nonzero" fill="rgb(0%, 0%, 0%)" fill-opacity="1" d="M 271.179688 76.308594 L 272.636719 76.308594 L 272.636719 74.855469 L 271.179688 74.855469 Z M 271.179688 76.308594 "/>
<path fill-rule="nonzero" fill="rgb(0%, 0%, 0%)" fill-opacity="1" d="M 271.179688 32.652344 L 272.636719 32.652344 L 272.636719 31.195312 L 271.179688 31.195312 Z M 271.179688 32.652344 "/>
<path fill-rule="nonzero" fill="rgb(0%, 0%, 0%)" fill-opacity="1" d="M 298.347656 76.308594 L 299.800781 76.308594 L 299.800781 74.855469 L 298.347656 74.855469 Z M 298.347656 76.308594 "/>
<path fill-rule="nonzero" fill="rgb(0%, 0%, 0%)" fill-opacity="1" d="M 298.347656 32.652344 L 299.800781 32.652344 L 299.800781 31.195312 L 298.347656 31.195312 Z M 298.347656 32.652344 "/>
<path fill-rule="nonzero" fill="rgb(0%, 0%, 0%)" fill-opacity="1" d="M 268.753906 81.644531 L 270.210938 81.644531 L 270.210938 80.191406 L 268.753906 80.191406 Z M 268.753906 81.644531 "/>
<path fill-rule="nonzero" fill="rgb(0%, 0%, 0%)" fill-opacity="1" d="M 268.753906 27.316406 L 270.210938 27.316406 L 270.210938 25.859375 L 268.753906 25.859375 Z M 268.753906 27.316406 "/>
<path fill-rule="nonzero" fill="rgb(0%, 0%, 0%)" fill-opacity="1" d="M 300.769531 81.644531 L 302.226562 81.644531 L 302.226562 80.191406 L 300.769531 80.191406 Z M 300.769531 81.644531 "/>
<path fill-rule="nonzero" fill="rgb(0%, 0%, 0%)" fill-opacity="1" d="M 300.769531 27.316406 L 302.226562 27.316406 L 302.226562 25.859375 L 300.769531 25.859375 Z M 300.769531 27.316406 "/>
<path fill-rule="nonzero" fill="rgb(0%, 0%, 0%)" fill-opacity="1" d="M 267.785156 60.300781 L 269.242188 60.300781 L 269.242188 58.847656 L 267.785156 58.847656 Z M 267.785156 60.300781 "/>
<path fill-rule="nonzero" fill="rgb(0%, 0%, 0%)" fill-opacity="1" d="M 267.785156 48.660156 L 269.242188 48.660156 L 269.242188 47.203125 L 267.785156 47.203125 Z M 267.785156 48.660156 "/>
<path fill-rule="nonzero" fill="rgb(0%, 0%, 0%)" fill-opacity="1" d="M 301.742188 60.300781 L 303.195312 60.300781 L 303.195312 58.847656 L 301.742188 58.847656 Z M 301.742188 60.300781 "/>
<path fill-rule="nonzero" fill="rgb(0%, 0%, 0%)" fill-opacity="1" d="M 301.742188 48.660156 L 303.195312 48.660156 L 303.195312 47.203125 L 301.742188 47.203125 Z M 301.742188 48.660156 "/>
<path fill-rule="nonzero" fill="rgb(0%, 0%, 0%)" fill-opacity="1" d="M 267.300781 91.832031 L 268.753906 91.832031 L 268.753906 90.378906 L 267.300781 90.378906 Z M 267.300781 91.832031 "/>
<path fill-rule="nonzero" fill="rgb(0%, 0%, 0%)" fill-opacity="1" d="M 267.300781 17.128906 L 268.753906 17.128906 L 268.753906 15.671875 L 267.300781 15.671875 Z M 267.300781 17.128906 "/>
<path fill-rule="nonzero" fill="rgb(0%, 0%, 0%)" fill-opacity="1" d="M 302.226562 91.832031 L 303.683594 91.832031 L 303.683594 90.378906 L 302.226562 90.378906 Z M 302.226562 91.832031 "/>
<path fill-rule="nonzero" fill="rgb(0%, 0%, 0%)" fill-opacity="1" d="M 302.226562 17.128906 L 303.683594 17.128906 L 303.683594 15.671875 L 302.226562 15.671875 Z M 302.226562 17.128906 "/>
<path fill-rule="nonzero" fill="rgb(0%, 0%, 0%)" fill-opacity="1" d="M 265.84375 93.285156 L 267.300781 93.285156 L 267.300781 91.832031 L 265.84375 91.832031 Z M 265.84375 93.285156 "/>
<path fill-rule="nonzero" fill="rgb(0%, 0%, 0%)" fill-opacity="1" d="M 265.84375 15.671875 L 267.300781 15.671875 L 267.300781 14.21875 L 265.84375 14.21875 Z M 265.84375 15.671875 "/>
<path fill-rule="nonzero" fill="rgb(0%, 0%, 0%)" fill-opacity="1" d="M 303.679688 93.285156 L 305.136719 93.285156 L 305.136719 91.832031 L 303.679688 91.832031 Z M 303.679688 93.285156 "/>
<path fill-rule="nonzero" fill="rgb(0%, 0%, 0%)" fill-opacity="1" d="M 303.679688 15.671875 L 305.136719 15.671875 L 305.136719 14.21875 L 303.679688 14.21875 Z M 303.679688 15.671875 "/>
<path fill-rule="nonzero" fill="rgb(0%, 0%, 0%)" fill-opacity="1" d="M 265.359375 58.847656 L 266.816406 58.847656 L 266.816406 57.390625 L 265.359375 57.390625 Z M 265.359375 58.847656 "/>
<path fill-rule="nonzero" fill="rgb(0%, 0%, 0%)" fill-opacity="1" d="M 265.359375 50.113281 L 266.816406 50.113281 L 266.816406 48.660156 L 265.359375 48.660156 Z M 265.359375 50.113281 "/>
<path fill-rule="nonzero" fill="rgb(0%, 0%, 0%)" fill-opacity="1" d="M 304.167969 58.847656 L 305.621094 58.847656 L 305.621094 57.390625 L 304.167969 57.390625 Z M 304.167969 58.847656 "/>
<path fill-rule="nonzero" fill="rgb(0%, 0%, 0%)" fill-opacity="1" d="M 304.167969 50.113281 L 305.621094 50.113281 L 305.621094 48.660156 L 304.167969 48.660156 Z M 304.167969 50.113281 "/>
<path fill-rule="nonzero" fill="rgb(0%, 0%, 0%)" fill-opacity="1" d="M 262.933594 68.0625 L 264.390625 68.0625 L 264.390625 66.605469 L 262.933594 66.605469 Z M 262.933594 68.0625 "/>
<path fill-rule="nonzero" fill="rgb(0%, 0%, 0%)" fill-opacity="1" d="M 262.933594 40.898438 L 264.390625 40.898438 L 264.390625 39.441406 L 262.933594 39.441406 Z M 262.933594 40.898438 "/>
<path fill-rule="nonzero" fill="rgb(0%, 0%, 0%)" fill-opacity="1" d="M 306.589844 68.0625 L 308.046875 68.0625 L 308.046875 66.605469 L 306.589844 66.605469 Z M 306.589844 68.0625 "/>
<path fill-rule="nonzero" fill="rgb(0%, 0%, 0%)" fill-opacity="1" d="M 306.589844 40.898438 L 308.046875 40.898438 L 308.046875 39.441406 L 306.589844 39.441406 Z M 306.589844 40.898438 "/>
<path fill-rule="nonzero" fill="rgb(0%, 0%, 0%)" fill-opacity="1" d="M 261.480469 81.160156 L 262.933594 81.160156 L 262.933594 79.703125 L 261.480469 79.703125 Z M 261.480469 81.160156 "/>
<path fill-rule="nonzero" fill="rgb(0%, 0%, 0%)" fill-opacity="1" d="M 261.480469 27.800781 L 262.933594 27.800781 L 262.933594 26.34375 L 261.480469 26.34375 Z M 261.480469 27.800781 "/>
<path fill-rule="nonzero" fill="rgb(0%, 0%, 0%)" fill-opacity="1" d="M 308.046875 81.160156 L 309.503906 81.160156 L 309.503906 79.703125 L 308.046875 79.703125 Z M 308.046875 81.160156 "/>
<path fill-rule="nonzero" fill="rgb(0%, 0%, 0%)" fill-opacity="1" d="M 308.046875 27.800781 L 309.503906 27.800781 L 309.503906 26.34375 L 308.046875 26.34375 Z M 308.046875 27.800781 "/>
<path fill-rule="nonzero" fill="rgb(0%, 0%, 0%)" fill-opacity="1" d="M 258.082031 77.765625 L 259.539062 77.765625 L 259.539062 76.308594 L 258.082031 76.308594 Z M 258.082031 77.765625 "/>
<path fill-rule="nonzero" fill="rgb(0%, 0%, 0%)" fill-opacity="1" d="M 258.082031 31.195312 L 259.539062 31.195312 L 259.539062 29.742188 L 258.082031 29.742188 Z M 258.082031 31.195312 "/>
<path fill-rule="nonzero" fill="rgb(0%, 0%, 0%)" fill-opacity="1" d="M 311.441406 77.765625 L 312.898438 77.765625 L 312.898438 76.308594 L 311.441406 76.308594 Z M 311.441406 77.765625 "/>
<path fill-rule="nonzero" fill="rgb(0%, 0%, 0%)" fill-opacity="1" d="M 311.441406 31.195312 L 312.898438 31.195312 L 312.898438 29.742188 L 311.441406 29.742188 Z M 311.441406 31.195312 "/>
<path fill-rule="nonzero" fill="rgb(0%, 0%, 0%)" fill-opacity="1" d="M 257.597656 70.488281 L 259.054688 70.488281 L 259.054688 69.03125 L 257.597656 69.03125 Z M 257.597656 70.488281 "/>
<path fill-rule="nonzero" fill="rgb(0%, 0%, 0%)" fill-opacity="1" d="M 257.597656 38.472656 L 259.054688 38.472656 L 259.054688 37.015625 L 257.597656 37.015625 Z M 257.597656 38.472656 "/>
<path fill-rule="nonzero" fill="rgb(0%, 0%, 0%)" fill-opacity="1" d="M 311.925781 70.488281 L 313.382812 70.488281 L 313.382812 69.03125 L 311.925781 69.03125 Z M 311.925781 70.488281 "/>
<path fill-rule="nonzero" fill="rgb(0%, 0%, 0%)" fill-opacity="1" d="M 311.925781 38.472656 L 313.382812 38.472656 L 313.382812 37.015625 L 311.925781 37.015625 Z M 311.925781 38.472656 "/>
<path fill-rule="nonzero" fill="rgb(0%, 0%, 0%)" fill-opacity="1" d="M 255.65625 59.816406 L 257.113281 59.816406 L 257.113281 58.359375 L 255.65625 58.359375 Z M 255.65625 59.816406 "/>
<path fill-rule="nonzero" fill="rgb(0%, 0%, 0%)" fill-opacity="1" d="M 255.65625 49.144531 L 257.113281 49.144531 L 257.113281 47.6875 L 255.65625 47.6875 Z M 255.65625 49.144531 "/>
<path fill-rule="nonzero" fill="rgb(0%, 0%, 0%)" fill-opacity="1" d="M 313.871094 59.816406 L 315.324219 59.816406 L 315.324219 58.359375 L 313.871094 58.359375 Z M 313.871094 59.816406 "/>
<path fill-rule="nonzero" fill="rgb(0%, 0%, 0%)" fill-opacity="1" d="M 313.871094 49.144531 L 315.324219 49.144531 L 315.324219 47.6875 L 313.871094 47.6875 Z M 313.871094 49.144531 "/>
<path fill-rule="nonzero" fill="rgb(0%, 0%, 0%)" fill-opacity="1" d="M 255.65625 98.621094 L 257.113281 98.621094 L 257.113281 97.167969 L 255.65625 97.167969 Z M 255.65625 98.621094 "/>
<path fill-rule="nonzero" fill="rgb(0%, 0%, 0%)" fill-opacity="1" d="M 255.65625 10.335938 L 257.113281 10.335938 L 257.113281 8.882812 L 255.65625 8.882812 Z M 255.65625 10.335938 "/>
<path fill-rule="nonzero" fill="rgb(0%, 0%, 0%)" fill-opacity="1" d="M 313.871094 98.621094 L 315.324219 98.621094 L 315.324219 97.167969 L 313.871094 97.167969 Z M 313.871094 98.621094 "/>
<path fill-rule="nonzero" fill="rgb(0%, 0%, 0%)" fill-opacity="1" d="M 313.871094 10.335938 L 315.324219 10.335938 L 315.324219 8.882812 L 313.871094 8.882812 Z M 313.871094 10.335938 "/>
<path fill-rule="nonzero" fill="rgb(0%, 0%, 0%)" fill-opacity="1" d="M 254.203125 62.242188 L 255.65625 62.242188 L 255.65625 60.785156 L 254.203125 60.785156 Z M 254.203125 62.242188 "/>
<path fill-rule="nonzero" fill="rgb(0%, 0%, 0%)" fill-opacity="1" d="M 254.203125 46.71875 L 255.65625 46.71875 L 255.65625 45.261719 L 254.203125 45.261719 Z M 254.203125 46.71875 "/>
<path fill-rule="nonzero" fill="rgb(0%, 0%, 0%)" fill-opacity="1" d="M 315.324219 62.242188 L 316.777344 62.242188 L 316.777344 60.785156 L 315.324219 60.785156 Z M 315.324219 62.242188 "/>
<path fill-rule="nonzero" fill="rgb(0%, 0%, 0%)" fill-opacity="1" d="M 315.324219 46.71875 L 316.777344 46.71875 L 316.777344 45.261719 L 315.324219 45.261719 Z M 315.324219 46.71875 "/>
<path fill-rule="nonzero" fill="rgb(0%, 0%, 0%)" fill-opacity="1" d="M 253.230469 89.40625 L 254.6875 89.40625 L 254.6875 87.953125 L 253.230469 87.953125 Z M 253.230469 89.40625 "/>
<path fill-rule="nonzero" fill="rgb(0%, 0%, 0%)" fill-opacity="1" d="M 253.230469 19.554688 L 254.6875 19.554688 L 254.6875 18.097656 L 253.230469 18.097656 Z M 253.230469 19.554688 "/>
<path fill-rule="nonzero" fill="rgb(0%, 0%, 0%)" fill-opacity="1" d="M 316.292969 89.40625 L 317.75 89.40625 L 317.75 87.953125 L 316.292969 87.953125 Z M 316.292969 89.40625 "/>
<path fill-rule="nonzero" fill="rgb(0%, 0%, 0%)" fill-opacity="1" d="M 316.292969 19.554688 L 317.75 19.554688 L 317.75 18.097656 L 316.292969 18.097656 Z M 316.292969 19.554688 "/>
<path fill-rule="nonzero" fill="rgb(0%, 0%, 0%)" fill-opacity="1" d="M 249.835938 86.011719 L 251.292969 86.011719 L 251.292969 84.554688 L 249.835938 84.554688 Z M 249.835938 86.011719 "/>
<path fill-rule="nonzero" fill="rgb(0%, 0%, 0%)" fill-opacity="1" d="M 249.835938 22.949219 L 251.292969 22.949219 L 251.292969 21.492188 L 249.835938 21.492188 Z M 249.835938 22.949219 "/>
<path fill-rule="nonzero" fill="rgb(0%, 0%, 0%)" fill-opacity="1" d="M 319.691406 86.011719 L 321.144531 86.011719 L 321.144531 84.554688 L 319.691406 84.554688 Z M 319.691406 86.011719 "/>
<path fill-rule="nonzero" fill="rgb(0%, 0%, 0%)" fill-opacity="1" d="M 319.691406 22.949219 L 321.144531 22.949219 L 321.144531 21.492188 L 319.691406 21.492188 Z M 319.691406 22.949219 "/>
<path fill-rule="nonzero" fill="rgb(0%, 0%, 0%)" fill-opacity="1" d="M 247.410156 71.941406 L 248.867188 71.941406 L 248.867188 70.488281 L 247.410156 70.488281 Z M 247.410156 71.941406 "/>
<path fill-rule="nonzero" fill="rgb(0%, 0%, 0%)" fill-opacity="1" d="M 247.410156 37.015625 L 248.867188 37.015625 L 248.867188 35.5625 L 247.410156 35.5625 Z M 247.410156 37.015625 "/>
<path fill-rule="nonzero" fill="rgb(0%, 0%, 0%)" fill-opacity="1" d="M 322.117188 71.941406 L 323.570312 71.941406 L 323.570312 70.488281 L 322.117188 70.488281 Z M 322.117188 71.941406 "/>
<path fill-rule="nonzero" fill="rgb(0%, 0%, 0%)" fill-opacity="1" d="M 322.117188 37.015625 L 323.570312 37.015625 L 323.570312 35.5625 L 322.117188 35.5625 Z M 322.117188 37.015625 "/>
<path fill-rule="nonzero" fill="rgb(0%, 0%, 0%)" fill-opacity="1" d="M 245.957031 73.398438 L 247.410156 73.398438 L 247.410156 71.941406 L 245.957031 71.941406 Z M 245.957031 73.398438 "/>
<path fill-rule="nonzero" fill="rgb(0%, 0%, 0%)" fill-opacity="1" d="M 245.957031 35.5625 L 247.410156 35.5625 L 247.410156 34.105469 L 245.957031 34.105469 Z M 245.957031 35.5625 "/>
<path fill-rule="nonzero" fill="rgb(0%, 0%, 0%)" fill-opacity="1" d="M 323.570312 73.398438 L 325.023438 73.398438 L 325.023438 71.941406 L 323.570312 71.941406 Z M 323.570312 73.398438 "/>
<path fill-rule="nonzero" fill="rgb(0%, 0%, 0%)" fill-opacity="1" d="M 323.570312 35.5625 L 325.023438 35.5625 L 325.023438 34.105469 L 323.570312 34.105469 Z M 323.570312 35.5625 "/>
<path fill-rule="nonzero" fill="rgb(0%, 0%, 0%)" fill-opacity="1" d="M 244.015625 60.785156 L 245.472656 60.785156 L 245.472656 59.332031 L 244.015625 59.332031 Z M 244.015625 60.785156 "/>
<path fill-rule="nonzero" fill="rgb(0%, 0%, 0%)" fill-opacity="1" d="M 244.015625 48.175781 L 245.472656 48.175781 L 245.472656 46.71875 L 244.015625 46.71875 Z M 244.015625 48.175781 "/>
<path fill-rule="nonzero" fill="rgb(0%, 0%, 0%)" fill-opacity="1" d="M 325.511719 60.785156 L 326.964844 60.785156 L 326.964844 59.332031 L 325.511719 59.332031 Z M 325.511719 60.785156 "/>
<path fill-rule="nonzero" fill="rgb(0%, 0%, 0%)" fill-opacity="1" d="M 325.511719 48.175781 L 326.964844 48.175781 L 326.964844 46.71875 L 325.511719 46.71875 Z M 325.511719 48.175781 "/>
<path fill-rule="nonzero" fill="rgb(0%, 0%, 0%)" fill-opacity="1" d="M 240.621094 83.585938 L 242.074219 83.585938 L 242.074219 82.132812 L 240.621094 82.132812 Z M 240.621094 83.585938 "/>
<path fill-rule="nonzero" fill="rgb(0%, 0%, 0%)" fill-opacity="1" d="M 240.621094 25.375 L 242.074219 25.375 L 242.074219 23.917969 L 240.621094 23.917969 Z M 240.621094 25.375 "/>
<path fill-rule="nonzero" fill="rgb(0%, 0%, 0%)" fill-opacity="1" d="M 328.90625 83.585938 L 330.359375 83.585938 L 330.359375 82.132812 L 328.90625 82.132812 Z M 328.90625 83.585938 "/>
<path fill-rule="nonzero" fill="rgb(0%, 0%, 0%)" fill-opacity="1" d="M 328.90625 25.375 L 330.359375 25.375 L 330.359375 23.917969 L 328.90625 23.917969 Z M 328.90625 25.375 "/>
<path fill-rule="nonzero" fill="rgb(0%, 0%, 0%)" fill-opacity="1" d="M 236.738281 64.183594 L 238.195312 64.183594 L 238.195312 62.726562 L 236.738281 62.726562 Z M 236.738281 64.183594 "/>
<path fill-rule="nonzero" fill="rgb(0%, 0%, 0%)" fill-opacity="1" d="M 236.738281 44.777344 L 238.195312 44.777344 L 238.195312 43.324219 L 236.738281 43.324219 Z M 236.738281 44.777344 "/>
<path fill-rule="nonzero" fill="rgb(0%, 0%, 0%)" fill-opacity="1" d="M 332.789062 64.183594 L 334.242188 64.183594 L 334.242188 62.726562 L 332.789062 62.726562 Z M 332.789062 64.183594 "/>
<path fill-rule="nonzero" fill="rgb(0%, 0%, 0%)" fill-opacity="1" d="M 332.789062 44.777344 L 334.242188 44.777344 L 334.242188 43.324219 L 332.789062 43.324219 Z M 332.789062 44.777344 "/>
</svg>
