<?xml version="1.0" encoding="UTF-8"?>
<svg xmlns="http://www.w3.org/2000/svg" xmlns:xlink="http://www.w3.org/1999/xlink" width="407" height="200.31" viewBox="0 0 407 200.31">
<defs>
<clipPath id="clip-0">
<path clip-rule="nonzero" d="M 10.410156 135.457031 L 69.824219 135.457031 L 69.824219 194.871094 L 10.410156 194.871094 Z M 10.410156 135.457031 "/>
</clipPath>
<clipPath id="clip-1">
<path clip-rule="nonzero" d="M 75.765625 135.457031 L 135.175781 135.457031 L 135.175781 194.871094 L 75.765625 194.871094 Z M 75.765625 135.457031 "/>
</clipPath>
<clipPath id="clip-2">
<path clip-rule="nonzero" d="M 141.117188 135.457031 L 200.53125 135.457031 L 200.53125 194.871094 L 141.117188 194.871094 Z M 141.117188 135.457031 "/>
</clipPath>
<clipPath id="clip-3">
<path clip-rule="nonzero" d="M 206.472656 135.457031 L 265.882812 135.457031 L 265.882812 194.871094 L 206.472656 194.871094 Z M 206.472656 135.457031 "/>
</clipPath>
<clipPath id="clip-4">
<path clip-rule="nonzero" d="M 271.824219 135.457031 L 331.234375 135.457031 L 331.234375 194.871094 L 271.824219 194.871094 Z M 271.824219 135.457031 "/>
</clipPath>
<clipPath id="clip-5">
<path clip-rule="nonzero" d="M 337.175781 135.457031 L 396.589844 135.457031 L 396.589844 194.871094 L 337.175781 194.871094 Z M 337.175781 135.457031 "/>
</clipPath>
<clipPath id="clip-6">
<path clip-rule="nonzero" d="M 10.410156 70.105469 L 69.824219 70.105469 L 69.824219 129.515625 L 10.410156 129.515625 Z M 10.410156 70.105469 "/>
</clipPath>
<clipPath id="clip-7">
<path clip-rule="nonzero" d="M 75.765625 70.105469 L 135.175781 70.105469 L 135.175781 129.515625 L 75.765625 129.515625 Z M 75.765625 70.105469 "/>
</clipPath>
<clipPath id="clip-8">
<path clip-rule="nonzero" d="M 141.117188 70.105469 L 200.53125 70.105469 L 200.53125 129.515625 L 141.117188 129.515625 Z M 141.117188 70.105469 "/>
</clipPath>
<clipPath id="clip-9">
<path clip-rule="nonzero" d="M 206.472656 70.105469 L 265.882812 70.105469 L 265.882812 129.515625 L 206.472656 129.515625 Z M 206.472656 70.105469 "/>
</clipPath>
<clipPath id="clip-10">
<path clip-rule="nonzero" d="M 271.824219 70.105469 L 331.234375 70.105469 L 331.234375 129.515625 L 271.824219 129.515625 Z M 271.824219 70.105469 "/>
</clipPath>
<clipPath id="clip-11">
<path clip-rule="nonzero" d="M 337.175781 70.105469 L 396.589844 70.105469 L 396.589844 129.515625 L 337.175781 129.515625 Z M 337.175781 70.105469 "/>
</clipPath>
<clipPath id="clip-12">
<path clip-rule="nonzero" d="M 10.410156 4.753906 L 69.824219 4.753906 L 69.824219 64.164062 L 10.410156 64.164062 Z M 10.410156 4.753906 "/>
</clipPath>
<clipPath id="clip-13">
<path clip-rule="nonzero" d="M 75.765625 4.753906 L 135.175781 4.753906 L 135.175781 64.164062 L 75.765625 64.164062 Z M 75.765625 4.753906 "/>
</clipPath>
</defs>
<path fill="none" stroke-width="5" stroke-linecap="round" stroke-linejoin="round" stroke="rgb(50%, 50%, 50%)" stroke-opacity="1" stroke-miterlimit="10" d="M 111.639607 61.865749 L 679.448176 61.865749 " transform="matrix(0.0996567, 0, 0, -0.0996567, 0.698582, 199.622369)"/>
<path fill="none" stroke-width="5" stroke-linecap="round" stroke-linejoin="round" stroke="rgb(50%, 50%, 50%)" stroke-opacity="1" stroke-miterlimit="10" d="M 111.639607 61.865749 L 111.639607 629.674318 " transform="matrix(0.0996567, 0, 0, -0.0996567, 0.698582, 199.622369)"/>
<path fill="none" stroke-width="5" stroke-linecap="round" stroke-linejoin="round" stroke="rgb(50%, 50%, 50%)" stroke-opacity="1" stroke-miterlimit="10" d="M 111.639607 345.770033 L 679.448176 345.770033 " transform="matrix(0.0996567, 0, 0, -0.0996567, 0.698582, 199.622369)"/>
<path fill="none" stroke-width="5" stroke-linecap="round" stroke-linejoin="round" stroke="rgb(50%, 50%, 50%)" stroke-opacity="1" stroke-miterlimit="10" d="M 395.543891 61.865749 L 395.543891 629.674318 " transform="matrix(0.0996567, 0, 0, -0.0996567, 0.698582, 199.622369)"/>
<path fill="none" stroke-width="5" stroke-linecap="round" stroke-linejoin="round" stroke="rgb(50%, 50%, 50%)" stroke-opacity="1" stroke-miterlimit="10" d="M 111.639607 629.674318 L 679.448176 629.674318 " transform="matrix(0.0996567, 0, 0, -0.0996567, 0.698582, 199.622369)"/>
<path fill="none" stroke-width="5" stroke-linecap="round" stroke-linejoin="round" stroke="rgb(50%, 50%, 50%)" stroke-opacity="1" stroke-miterlimit="10" d="M 679.448176 61.865749 L 679.448176 629.674318 " transform="matrix(0.0996567, 0, 0, -0.0996567, 0.698582, 199.622369)"/>
<g clip-path="url(#clip-0)">
<path fill="none" stroke-width="29.8083" stroke-linecap="round" stroke-linejoin="round" stroke="rgb(100%, 0%, 0%)" stroke-opacity="1" stroke-miterlimit="10" d="M 111.639607 61.865749 L 111.639607 629.674318 L 395.543891 629.674318 L 395.543891 345.770033 L 679.448176 345.770033 L 679.448176 629.674318 " transform="matrix(0.0996567, 0, 0, -0.0996567, 0.698582, 199.622369)"/>
</g>
<path fill="none" stroke-width="5" stroke-linecap="round" stroke-linejoin="round" stroke="rgb(50%, 50%, 50%)" stroke-opacity="1" stroke-miterlimit="10" d="M 767.445569 61.865749 L 1335.21494 61.865749 " transform="matrix(0.0996567, 0, 0, -0.0996567, 0.698582, 199.622369)"/>
<path fill="none" stroke-width="5" stroke-linecap="round" stroke-linejoin="round" stroke="rgb(50%, 50%, 50%)" stroke-opacity="1" stroke-miterlimit="10" d="M 767.445569 61.865749 L 767.445569 629.674318 " transform="matrix(0.0996567, 0, 0, -0.0996567, 0.698582, 199.622369)"/>
<path fill="none" stroke-width="5" stroke-linecap="round" stroke-linejoin="round" stroke="rgb(50%, 50%, 50%)" stroke-opacity="1" stroke-miterlimit="10" d="M 767.445569 345.770033 L 1335.21494 345.770033 " transform="matrix(0.0996567, 0, 0, -0.0996567, 0.698582, 199.622369)"/>
<path fill="none" stroke-width="5" stroke-linecap="round" stroke-linejoin="round" stroke="rgb(50%, 50%, 50%)" stroke-opacity="1" stroke-miterlimit="10" d="M 1051.310656 61.865749 L 1051.310656 629.674318 " transform="matrix(0.0996567, 0, 0, -0.0996567, 0.698582, 199.622369)"/>
<path fill="none" stroke-width="5" stroke-linecap="round" stroke-linejoin="round" stroke="rgb(50%, 50%, 50%)" stroke-opacity="1" stroke-miterlimit="10" d="M 767.445569 629.674318 L 1335.21494 629.674318 " transform="matrix(0.0996567, 0, 0, -0.0996567, 0.698582, 199.622369)"/>
<path fill="none" stroke-width="5" stroke-linecap="round" stroke-linejoin="round" stroke="rgb(50%, 50%, 50%)" stroke-opacity="1" stroke-miterlimit="10" d="M 1335.21494 61.865749 L 1335.21494 629.674318 " transform="matrix(0.0996567, 0, 0, -0.0996567, 0.698582, 199.622369)"/>
<g clip-path="url(#clip-1)">
<path fill="none" stroke-width="29.8082" stroke-linecap="round" stroke-linejoin="round" stroke="rgb(100%, 0%, 0%)" stroke-opacity="1" stroke-miterlimit="10" d="M 767.445569 61.865749 L 767.445569 345.770033 L 1051.310656 345.770033 L 1051.310656 61.865749 L 1335.21494 61.865749 L 1335.21494 629.674318 " transform="matrix(0.0996567, 0, 0, -0.0996567, 0.698582, 199.622369)"/>
</g>
<path fill="none" stroke-width="5" stroke-linecap="round" stroke-linejoin="round" stroke="rgb(50%, 50%, 50%)" stroke-opacity="1" stroke-miterlimit="10" d="M 1423.212333 61.865749 L 1990.981705 61.865749 " transform="matrix(0.0996567, 0, 0, -0.0996567, 0.698582, 199.622369)"/>
<path fill="none" stroke-width="5" stroke-linecap="round" stroke-linejoin="round" stroke="rgb(50%, 50%, 50%)" stroke-opacity="1" stroke-miterlimit="10" d="M 1423.212333 61.865749 L 1423.212333 629.674318 " transform="matrix(0.0996567, 0, 0, -0.0996567, 0.698582, 199.622369)"/>
<path fill="none" stroke-width="5" stroke-linecap="round" stroke-linejoin="round" stroke="rgb(50%, 50%, 50%)" stroke-opacity="1" stroke-miterlimit="10" d="M 1423.212333 345.770033 L 1990.981705 345.770033 " transform="matrix(0.0996567, 0, 0, -0.0996567, 0.698582, 199.622369)"/>
<path fill="none" stroke-width="5" stroke-linecap="round" stroke-linejoin="round" stroke="rgb(50%, 50%, 50%)" stroke-opacity="1" stroke-miterlimit="10" d="M 1707.116618 61.865749 L 1707.116618 629.674318 " transform="matrix(0.0996567, 0, 0, -0.0996567, 0.698582, 199.622369)"/>
<path fill="none" stroke-width="5" stroke-linecap="round" stroke-linejoin="round" stroke="rgb(50%, 50%, 50%)" stroke-opacity="1" stroke-miterlimit="10" d="M 1423.212333 629.674318 L 1990.981705 629.674318 " transform="matrix(0.0996567, 0, 0, -0.0996567, 0.698582, 199.622369)"/>
<path fill="none" stroke-width="5" stroke-linecap="round" stroke-linejoin="round" stroke="rgb(50%, 50%, 50%)" stroke-opacity="1" stroke-miterlimit="10" d="M 1990.981705 61.865749 L 1990.981705 629.674318 " transform="matrix(0.0996567, 0, 0, -0.0996567, 0.698582, 199.622369)"/>
<g clip-path="url(#clip-2)">
<path fill="none" stroke-width="29.8082" stroke-linecap="round" stroke-linejoin="round" stroke="rgb(100%, 0%, 0%)" stroke-opacity="1" stroke-miterlimit="10" d="M 1423.212333 61.865749 L 1707.116618 61.865749 L 1707.116618 345.770033 L 1423.212333 345.770033 L 1423.212333 629.674318 L 1990.981705 629.674318 " transform="matrix(0.0996567, 0, 0, -0.0996567, 0.698582, 199.622369)"/>
</g>
<path fill="none" stroke-width="5" stroke-linecap="round" stroke-linejoin="round" stroke="rgb(50%, 50%, 50%)" stroke-opacity="1" stroke-miterlimit="10" d="M 2079.018295 61.865749 L 2646.787667 61.865749 " transform="matrix(0.0996567, 0, 0, -0.0996567, 0.698582, 199.622369)"/>
<path fill="none" stroke-width="5" stroke-linecap="round" stroke-linejoin="round" stroke="rgb(50%, 50%, 50%)" stroke-opacity="1" stroke-miterlimit="10" d="M 2079.018295 61.865749 L 2079.018295 629.674318 " transform="matrix(0.0996567, 0, 0, -0.0996567, 0.698582, 199.622369)"/>
<path fill="none" stroke-width="5" stroke-linecap="round" stroke-linejoin="round" stroke="rgb(50%, 50%, 50%)" stroke-opacity="1" stroke-miterlimit="10" d="M 2079.018295 345.770033 L 2646.787667 345.770033 " transform="matrix(0.0996567, 0, 0, -0.0996567, 0.698582, 199.622369)"/>
<path fill="none" stroke-width="5" stroke-linecap="round" stroke-linejoin="round" stroke="rgb(50%, 50%, 50%)" stroke-opacity="1" stroke-miterlimit="10" d="M 2362.883382 61.865749 L 2362.883382 629.674318 " transform="matrix(0.0996567, 0, 0, -0.0996567, 0.698582, 199.622369)"/>
<path fill="none" stroke-width="5" stroke-linecap="round" stroke-linejoin="round" stroke="rgb(50%, 50%, 50%)" stroke-opacity="1" stroke-miterlimit="10" d="M 2079.018295 629.674318 L 2646.787667 629.674318 " transform="matrix(0.0996567, 0, 0, -0.0996567, 0.698582, 199.622369)"/>
<path fill="none" stroke-width="5" stroke-linecap="round" stroke-linejoin="round" stroke="rgb(50%, 50%, 50%)" stroke-opacity="1" stroke-miterlimit="10" d="M 2646.787667 61.865749 L 2646.787667 629.674318 " transform="matrix(0.0996567, 0, 0, -0.0996567, 0.698582, 199.622369)"/>
<g clip-path="url(#clip-3)">
<path fill="none" stroke-width="29.8082" stroke-linecap="round" stroke-linejoin="round" stroke="rgb(100%, 0%, 0%)" stroke-opacity="1" stroke-miterlimit="10" d="M 2079.018295 61.865749 L 2646.787667 61.865749 L 2646.787667 345.770033 L 2362.883382 345.770033 L 2362.883382 629.674318 L 2646.787667 629.674318 " transform="matrix(0.0996567, 0, 0, -0.0996567, 0.698582, 199.622369)"/>
</g>
<path fill="none" stroke-width="5" stroke-linecap="round" stroke-linejoin="round" stroke="rgb(50%, 50%, 50%)" stroke-opacity="1" stroke-miterlimit="10" d="M 2734.78506 61.865749 L 3302.554431 61.865749 " transform="matrix(0.0996567, 0, 0, -0.0996567, 0.698582, 199.622369)"/>
<path fill="none" stroke-width="5" stroke-linecap="round" stroke-linejoin="round" stroke="rgb(50%, 50%, 50%)" stroke-opacity="1" stroke-miterlimit="10" d="M 2734.78506 61.865749 L 2734.78506 629.674318 " transform="matrix(0.0996567, 0, 0, -0.0996567, 0.698582, 199.622369)"/>
<path fill="none" stroke-width="5" stroke-linecap="round" stroke-linejoin="round" stroke="rgb(50%, 50%, 50%)" stroke-opacity="1" stroke-miterlimit="10" d="M 2734.78506 345.770033 L 3302.554431 345.770033 " transform="matrix(0.0996567, 0, 0, -0.0996567, 0.698582, 199.622369)"/>
<path fill="none" stroke-width="5" stroke-linecap="round" stroke-linejoin="round" stroke="rgb(50%, 50%, 50%)" stroke-opacity="1" stroke-miterlimit="10" d="M 3018.689344 61.865749 L 3018.689344 629.674318 " transform="matrix(0.0996567, 0, 0, -0.0996567, 0.698582, 199.622369)"/>
<path fill="none" stroke-width="5" stroke-linecap="round" stroke-linejoin="round" stroke="rgb(50%, 50%, 50%)" stroke-opacity="1" stroke-miterlimit="10" d="M 2734.78506 629.674318 L 3302.554431 629.674318 " transform="matrix(0.0996567, 0, 0, -0.0996567, 0.698582, 199.622369)"/>
<path fill="none" stroke-width="5" stroke-linecap="round" stroke-linejoin="round" stroke="rgb(50%, 50%, 50%)" stroke-opacity="1" stroke-miterlimit="10" d="M 3302.554431 61.865749 L 3302.554431 629.674318 " transform="matrix(0.0996567, 0, 0, -0.0996567, 0.698582, 199.622369)"/>
<g clip-path="url(#clip-4)">
<path fill="none" stroke-width="29.8082" stroke-linecap="round" stroke-linejoin="round" stroke="rgb(100%, 0%, 0%)" stroke-opacity="1" stroke-miterlimit="10" d="M 2734.78506 61.865749 L 2734.78506 629.674318 L 3018.689344 629.674318 L 3018.689344 61.865749 L 3302.554431 61.865749 L 3302.554431 629.674318 " transform="matrix(0.0996567, 0, 0, -0.0996567, 0.698582, 199.622369)"/>
</g>
<path fill="none" stroke-width="5" stroke-linecap="round" stroke-linejoin="round" stroke="rgb(50%, 50%, 50%)" stroke-opacity="1" stroke-miterlimit="10" d="M 3390.551824 61.865749 L 3958.321196 61.865749 " transform="matrix(0.0996567, 0, 0, -0.0996567, 0.698582, 199.622369)"/>
<path fill="none" stroke-width="5" stroke-linecap="round" stroke-linejoin="round" stroke="rgb(50%, 50%, 50%)" stroke-opacity="1" stroke-miterlimit="10" d="M 3390.551824 61.865749 L 3390.551824 629.674318 " transform="matrix(0.0996567, 0, 0, -0.0996567, 0.698582, 199.622369)"/>
<path fill="none" stroke-width="5" stroke-linecap="round" stroke-linejoin="round" stroke="rgb(50%, 50%, 50%)" stroke-opacity="1" stroke-miterlimit="10" d="M 3390.551824 345.770033 L 3958.321196 345.770033 " transform="matrix(0.0996567, 0, 0, -0.0996567, 0.698582, 199.622369)"/>
<path fill="none" stroke-width="5" stroke-linecap="round" stroke-linejoin="round" stroke="rgb(50%, 50%, 50%)" stroke-opacity="1" stroke-miterlimit="10" d="M 3674.456109 61.865749 L 3674.456109 629.674318 " transform="matrix(0.0996567, 0, 0, -0.0996567, 0.698582, 199.622369)"/>
<path fill="none" stroke-width="5" stroke-linecap="round" stroke-linejoin="round" stroke="rgb(50%, 50%, 50%)" stroke-opacity="1" stroke-miterlimit="10" d="M 3390.551824 629.674318 L 3958.321196 629.674318 " transform="matrix(0.0996567, 0, 0, -0.0996567, 0.698582, 199.622369)"/>
<path fill="none" stroke-width="5" stroke-linecap="round" stroke-linejoin="round" stroke="rgb(50%, 50%, 50%)" stroke-opacity="1" stroke-miterlimit="10" d="M 3958.321196 61.865749 L 3958.321196 629.674318 " transform="matrix(0.0996567, 0, 0, -0.0996567, 0.698582, 199.622369)"/>
<g clip-path="url(#clip-5)">
<path fill="none" stroke-width="29.8082" stroke-linecap="round" stroke-linejoin="round" stroke="rgb(100%, 0%, 0%)" stroke-opacity="1" stroke-miterlimit="10" d="M 3390.551824 61.865749 L 3958.321196 61.865749 L 3958.321196 345.770033 L 3390.551824 345.770033 L 3390.551824 629.674318 L 3958.321196 629.674318 " transform="matrix(0.0996567, 0, 0, -0.0996567, 0.698582, 199.622369)"/>
</g>
<path fill="none" stroke-width="5" stroke-linecap="round" stroke-linejoin="round" stroke="rgb(50%, 50%, 50%)" stroke-opacity="1" stroke-miterlimit="10" d="M 111.639607 717.671711 L 679.448176 717.671711 " transform="matrix(0.0996567, 0, 0, -0.0996567, 0.698582, 199.622369)"/>
<path fill="none" stroke-width="5" stroke-linecap="round" stroke-linejoin="round" stroke="rgb(50%, 50%, 50%)" stroke-opacity="1" stroke-miterlimit="10" d="M 111.639607 717.671711 L 111.639607 1285.441082 " transform="matrix(0.0996567, 0, 0, -0.0996567, 0.698582, 199.622369)"/>
<path fill="none" stroke-width="5" stroke-linecap="round" stroke-linejoin="round" stroke="rgb(50%, 50%, 50%)" stroke-opacity="1" stroke-miterlimit="10" d="M 111.639607 1001.536798 L 679.448176 1001.536798 " transform="matrix(0.0996567, 0, 0, -0.0996567, 0.698582, 199.622369)"/>
<path fill="none" stroke-width="5" stroke-linecap="round" stroke-linejoin="round" stroke="rgb(50%, 50%, 50%)" stroke-opacity="1" stroke-miterlimit="10" d="M 395.543891 717.671711 L 395.543891 1285.441082 " transform="matrix(0.0996567, 0, 0, -0.0996567, 0.698582, 199.622369)"/>
<path fill="none" stroke-width="5" stroke-linecap="round" stroke-linejoin="round" stroke="rgb(50%, 50%, 50%)" stroke-opacity="1" stroke-miterlimit="10" d="M 111.639607 1285.441082 L 679.448176 1285.441082 " transform="matrix(0.0996567, 0, 0, -0.0996567, 0.698582, 199.622369)"/>
<path fill="none" stroke-width="5" stroke-linecap="round" stroke-linejoin="round" stroke="rgb(50%, 50%, 50%)" stroke-opacity="1" stroke-miterlimit="10" d="M 679.448176 717.671711 L 679.448176 1285.441082 " transform="matrix(0.0996567, 0, 0, -0.0996567, 0.698582, 199.622369)"/>
<g clip-path="url(#clip-6)">
<path fill="none" stroke-width="29.8082" stroke-linecap="round" stroke-linejoin="round" stroke="rgb(100%, 0%, 0%)" stroke-opacity="1" stroke-miterlimit="10" d="M 111.639607 717.671711 L 111.639607 1285.441082 L 679.448176 1285.441082 " transform="matrix(0.0996567, 0, 0, -0.0996567, 0.698582, 199.622369)"/>
</g>
<path fill="none" stroke-width="5" stroke-linecap="round" stroke-linejoin="round" stroke="rgb(50%, 50%, 50%)" stroke-opacity="1" stroke-miterlimit="10" d="M 767.445569 717.671711 L 1335.21494 717.671711 " transform="matrix(0.0996567, 0, 0, -0.0996567, 0.698582, 199.622369)"/>
<path fill="none" stroke-width="5" stroke-linecap="round" stroke-linejoin="round" stroke="rgb(50%, 50%, 50%)" stroke-opacity="1" stroke-miterlimit="10" d="M 767.445569 717.671711 L 767.445569 1285.441082 " transform="matrix(0.0996567, 0, 0, -0.0996567, 0.698582, 199.622369)"/>
<path fill="none" stroke-width="5" stroke-linecap="round" stroke-linejoin="round" stroke="rgb(50%, 50%, 50%)" stroke-opacity="1" stroke-miterlimit="10" d="M 767.445569 1001.536798 L 1335.21494 1001.536798 " transform="matrix(0.0996567, 0, 0, -0.0996567, 0.698582, 199.622369)"/>
<path fill="none" stroke-width="5" stroke-linecap="round" stroke-linejoin="round" stroke="rgb(50%, 50%, 50%)" stroke-opacity="1" stroke-miterlimit="10" d="M 1051.310656 717.671711 L 1051.310656 1285.441082 " transform="matrix(0.0996567, 0, 0, -0.0996567, 0.698582, 199.622369)"/>
<path fill="none" stroke-width="5" stroke-linecap="round" stroke-linejoin="round" stroke="rgb(50%, 50%, 50%)" stroke-opacity="1" stroke-miterlimit="10" d="M 767.445569 1285.441082 L 1335.21494 1285.441082 " transform="matrix(0.0996567, 0, 0, -0.0996567, 0.698582, 199.622369)"/>
<path fill="none" stroke-width="5" stroke-linecap="round" stroke-linejoin="round" stroke="rgb(50%, 50%, 50%)" stroke-opacity="1" stroke-miterlimit="10" d="M 1335.21494 717.671711 L 1335.21494 1285.441082 " transform="matrix(0.0996567, 0, 0, -0.0996567, 0.698582, 199.622369)"/>
<g clip-path="url(#clip-7)">
<path fill="none" stroke-width="29.8082" stroke-linecap="round" stroke-linejoin="round" stroke="rgb(100%, 0%, 0%)" stroke-opacity="1" stroke-miterlimit="10" d="M 767.445569 717.671711 L 767.445569 1001.536798 L 1051.310656 1001.536798 L 1051.310656 1285.441082 L 1335.21494 1285.441082 " transform="matrix(0.0996567, 0, 0, -0.0996567, 0.698582, 199.622369)"/>
</g>
<path fill="none" stroke-width="5" stroke-linecap="round" stroke-linejoin="round" stroke="rgb(50%, 50%, 50%)" stroke-opacity="1" stroke-miterlimit="10" d="M 1423.212333 717.671711 L 1990.981705 717.671711 " transform="matrix(0.0996567, 0, 0, -0.0996567, 0.698582, 199.622369)"/>
<path fill="none" stroke-width="5" stroke-linecap="round" stroke-linejoin="round" stroke="rgb(50%, 50%, 50%)" stroke-opacity="1" stroke-miterlimit="10" d="M 1423.212333 717.671711 L 1423.212333 1285.441082 " transform="matrix(0.0996567, 0, 0, -0.0996567, 0.698582, 199.622369)"/>
<path fill="none" stroke-width="5" stroke-linecap="round" stroke-linejoin="round" stroke="rgb(50%, 50%, 50%)" stroke-opacity="1" stroke-miterlimit="10" d="M 1423.212333 1001.536798 L 1990.981705 1001.536798 " transform="matrix(0.0996567, 0, 0, -0.0996567, 0.698582, 199.622369)"/>
<path fill="none" stroke-width="5" stroke-linecap="round" stroke-linejoin="round" stroke="rgb(50%, 50%, 50%)" stroke-opacity="1" stroke-miterlimit="10" d="M 1707.116618 717.671711 L 1707.116618 1285.441082 " transform="matrix(0.0996567, 0, 0, -0.0996567, 0.698582, 199.622369)"/>
<path fill="none" stroke-width="5" stroke-linecap="round" stroke-linejoin="round" stroke="rgb(50%, 50%, 50%)" stroke-opacity="1" stroke-miterlimit="10" d="M 1423.212333 1285.441082 L 1990.981705 1285.441082 " transform="matrix(0.0996567, 0, 0, -0.0996567, 0.698582, 199.622369)"/>
<path fill="none" stroke-width="5" stroke-linecap="round" stroke-linejoin="round" stroke="rgb(50%, 50%, 50%)" stroke-opacity="1" stroke-miterlimit="10" d="M 1990.981705 717.671711 L 1990.981705 1285.441082 " transform="matrix(0.0996567, 0, 0, -0.0996567, 0.698582, 199.622369)"/>
<g clip-path="url(#clip-8)">
<path fill="none" stroke-width="29.8082" stroke-linecap="round" stroke-linejoin="round" stroke="rgb(100%, 0%, 0%)" stroke-opacity="1" stroke-miterlimit="10" d="M 1423.212333 717.671711 L 1423.212333 1001.536798 L 1990.981705 1001.536798 L 1990.981705 1285.441082 " transform="matrix(0.0996567, 0, 0, -0.0996567, 0.698582, 199.622369)"/>
</g>
<path fill="none" stroke-width="5" stroke-linecap="round" stroke-linejoin="round" stroke="rgb(50%, 50%, 50%)" stroke-opacity="1" stroke-miterlimit="10" d="M 2079.018295 717.671711 L 2646.787667 717.671711 " transform="matrix(0.0996567, 0, 0, -0.0996567, 0.698582, 199.622369)"/>
<path fill="none" stroke-width="5" stroke-linecap="round" stroke-linejoin="round" stroke="rgb(50%, 50%, 50%)" stroke-opacity="1" stroke-miterlimit="10" d="M 2079.018295 717.671711 L 2079.018295 1285.441082 " transform="matrix(0.0996567, 0, 0, -0.0996567, 0.698582, 199.622369)"/>
<path fill="none" stroke-width="5" stroke-linecap="round" stroke-linejoin="round" stroke="rgb(50%, 50%, 50%)" stroke-opacity="1" stroke-miterlimit="10" d="M 2079.018295 1001.536798 L 2646.787667 1001.536798 " transform="matrix(0.0996567, 0, 0, -0.0996567, 0.698582, 199.622369)"/>
<path fill="none" stroke-width="5" stroke-linecap="round" stroke-linejoin="round" stroke="rgb(50%, 50%, 50%)" stroke-opacity="1" stroke-miterlimit="10" d="M 2362.883382 717.671711 L 2362.883382 1285.441082 " transform="matrix(0.0996567, 0, 0, -0.0996567, 0.698582, 199.622369)"/>
<path fill="none" stroke-width="5" stroke-linecap="round" stroke-linejoin="round" stroke="rgb(50%, 50%, 50%)" stroke-opacity="1" stroke-miterlimit="10" d="M 2079.018295 1285.441082 L 2646.787667 1285.441082 " transform="matrix(0.0996567, 0, 0, -0.0996567, 0.698582, 199.622369)"/>
<path fill="none" stroke-width="5" stroke-linecap="round" stroke-linejoin="round" stroke="rgb(50%, 50%, 50%)" stroke-opacity="1" stroke-miterlimit="10" d="M 2646.787667 717.671711 L 2646.787667 1285.441082 " transform="matrix(0.0996567, 0, 0, -0.0996567, 0.698582, 199.622369)"/>
<g clip-path="url(#clip-9)">
<path fill="none" stroke-width="29.8082" stroke-linecap="round" stroke-linejoin="round" stroke="rgb(100%, 0%, 0%)" stroke-opacity="1" stroke-miterlimit="10" d="M 2079.018295 717.671711 L 2362.883382 717.671711 L 2362.883382 1285.441082 L 2646.787667 1285.441082 " transform="matrix(0.0996567, 0, 0, -0.0996567, 0.698582, 199.622369)"/>
</g>
<path fill="none" stroke-width="5" stroke-linecap="round" stroke-linejoin="round" stroke="rgb(50%, 50%, 50%)" stroke-opacity="1" stroke-miterlimit="10" d="M 2734.78506 717.671711 L 3302.554431 717.671711 " transform="matrix(0.0996567, 0, 0, -0.0996567, 0.698582, 199.622369)"/>
<path fill="none" stroke-width="5" stroke-linecap="round" stroke-linejoin="round" stroke="rgb(50%, 50%, 50%)" stroke-opacity="1" stroke-miterlimit="10" d="M 2734.78506 717.671711 L 2734.78506 1285.441082 " transform="matrix(0.0996567, 0, 0, -0.0996567, 0.698582, 199.622369)"/>
<path fill="none" stroke-width="5" stroke-linecap="round" stroke-linejoin="round" stroke="rgb(50%, 50%, 50%)" stroke-opacity="1" stroke-miterlimit="10" d="M 2734.78506 1001.536798 L 3302.554431 1001.536798 " transform="matrix(0.0996567, 0, 0, -0.0996567, 0.698582, 199.622369)"/>
<path fill="none" stroke-width="5" stroke-linecap="round" stroke-linejoin="round" stroke="rgb(50%, 50%, 50%)" stroke-opacity="1" stroke-miterlimit="10" d="M 3018.689344 717.671711 L 3018.689344 1285.441082 " transform="matrix(0.0996567, 0, 0, -0.0996567, 0.698582, 199.622369)"/>
<path fill="none" stroke-width="5" stroke-linecap="round" stroke-linejoin="round" stroke="rgb(50%, 50%, 50%)" stroke-opacity="1" stroke-miterlimit="10" d="M 2734.78506 1285.441082 L 3302.554431 1285.441082 " transform="matrix(0.0996567, 0, 0, -0.0996567, 0.698582, 199.622369)"/>
<path fill="none" stroke-width="5" stroke-linecap="round" stroke-linejoin="round" stroke="rgb(50%, 50%, 50%)" stroke-opacity="1" stroke-miterlimit="10" d="M 3302.554431 717.671711 L 3302.554431 1285.441082 " transform="matrix(0.0996567, 0, 0, -0.0996567, 0.698582, 199.622369)"/>
<g clip-path="url(#clip-10)">
<path fill="none" stroke-width="29.8082" stroke-linecap="round" stroke-linejoin="round" stroke="rgb(100%, 0%, 0%)" stroke-opacity="1" stroke-miterlimit="10" d="M 2734.78506 717.671711 L 3018.689344 717.671711 L 3018.689344 1001.536798 L 3302.554431 1001.536798 L 3302.554431 1285.441082 " transform="matrix(0.0996567, 0, 0, -0.0996567, 0.698582, 199.622369)"/>
</g>
<path fill="none" stroke-width="5" stroke-linecap="round" stroke-linejoin="round" stroke="rgb(50%, 50%, 50%)" stroke-opacity="1" stroke-miterlimit="10" d="M 3390.551824 717.671711 L 3958.321196 717.671711 " transform="matrix(0.0996567, 0, 0, -0.0996567, 0.698582, 199.622369)"/>
<path fill="none" stroke-width="5" stroke-linecap="round" stroke-linejoin="round" stroke="rgb(50%, 50%, 50%)" stroke-opacity="1" stroke-miterlimit="10" d="M 3390.551824 717.671711 L 3390.551824 1285.441082 " transform="matrix(0.0996567, 0, 0, -0.0996567, 0.698582, 199.622369)"/>
<path fill="none" stroke-width="5" stroke-linecap="round" stroke-linejoin="round" stroke="rgb(50%, 50%, 50%)" stroke-opacity="1" stroke-miterlimit="10" d="M 3390.551824 1001.536798 L 3958.321196 1001.536798 " transform="matrix(0.0996567, 0, 0, -0.0996567, 0.698582, 199.622369)"/>
<path fill="none" stroke-width="5" stroke-linecap="round" stroke-linejoin="round" stroke="rgb(50%, 50%, 50%)" stroke-opacity="1" stroke-miterlimit="10" d="M 3674.456109 717.671711 L 3674.456109 1285.441082 " transform="matrix(0.0996567, 0, 0, -0.0996567, 0.698582, 199.622369)"/>
<path fill="none" stroke-width="5" stroke-linecap="round" stroke-linejoin="round" stroke="rgb(50%, 50%, 50%)" stroke-opacity="1" stroke-miterlimit="10" d="M 3390.551824 1285.441082 L 3958.321196 1285.441082 " transform="matrix(0.0996567, 0, 0, -0.0996567, 0.698582, 199.622369)"/>
<path fill="none" stroke-width="5" stroke-linecap="round" stroke-linejoin="round" stroke="rgb(50%, 50%, 50%)" stroke-opacity="1" stroke-miterlimit="10" d="M 3958.321196 717.671711 L 3958.321196 1285.441082 " transform="matrix(0.0996567, 0, 0, -0.0996567, 0.698582, 199.622369)"/>
<g clip-path="url(#clip-11)">
<path fill="none" stroke-width="29.8082" stroke-linecap="round" stroke-linejoin="round" stroke="rgb(100%, 0%, 0%)" stroke-opacity="1" stroke-miterlimit="10" d="M 3390.551824 717.671711 L 3958.321196 717.671711 L 3958.321196 1285.441082 " transform="matrix(0.0996567, 0, 0, -0.0996567, 0.698582, 199.622369)"/>
</g>
<path fill="none" stroke-width="5" stroke-linecap="round" stroke-linejoin="round" stroke="rgb(50%, 50%, 50%)" stroke-opacity="1" stroke-miterlimit="10" d="M 111.639607 1373.438475 L 679.448176 1373.438475 " transform="matrix(0.0996567, 0, 0, -0.0996567, 0.698582, 199.622369)"/>
<path fill="none" stroke-width="5" stroke-linecap="round" stroke-linejoin="round" stroke="rgb(50%, 50%, 50%)" stroke-opacity="1" stroke-miterlimit="10" d="M 111.639607 1373.438475 L 111.639607 1941.207847 " transform="matrix(0.0996567, 0, 0, -0.0996567, 0.698582, 199.622369)"/>
<path fill="none" stroke-width="5" stroke-linecap="round" stroke-linejoin="round" stroke="rgb(50%, 50%, 50%)" stroke-opacity="1" stroke-miterlimit="10" d="M 111.639607 1941.207847 L 679.448176 1941.207847 " transform="matrix(0.0996567, 0, 0, -0.0996567, 0.698582, 199.622369)"/>
<path fill="none" stroke-width="5" stroke-linecap="round" stroke-linejoin="round" stroke="rgb(50%, 50%, 50%)" stroke-opacity="1" stroke-miterlimit="10" d="M 679.448176 1373.438475 L 679.448176 1941.207847 " transform="matrix(0.0996567, 0, 0, -0.0996567, 0.698582, 199.622369)"/>
<g clip-path="url(#clip-12)">
<path fill="none" stroke-width="29.8082" stroke-linecap="round" stroke-linejoin="round" stroke="rgb(100%, 0%, 0%)" stroke-opacity="1" stroke-miterlimit="10" d="M 111.639607 1373.438475 L 111.639607 1941.207847 L 679.448176 1941.207847 " transform="matrix(0.0996567, 0, 0, -0.0996567, 0.698582, 199.622369)"/>
</g>
<path fill="none" stroke-width="5" stroke-linecap="round" stroke-linejoin="round" stroke="rgb(50%, 50%, 50%)" stroke-opacity="1" stroke-miterlimit="10" d="M 767.445569 1373.438475 L 1335.21494 1373.438475 " transform="matrix(0.0996567, 0, 0, -0.0996567, 0.698582, 199.622369)"/>
<path fill="none" stroke-width="5" stroke-linecap="round" stroke-linejoin="round" stroke="rgb(50%, 50%, 50%)" stroke-opacity="1" stroke-miterlimit="10" d="M 767.445569 1373.438475 L 767.445569 1941.207847 " transform="matrix(0.0996567, 0, 0, -0.0996567, 0.698582, 199.622369)"/>
<path fill="none" stroke-width="5" stroke-linecap="round" stroke-linejoin="round" stroke="rgb(50%, 50%, 50%)" stroke-opacity="1" stroke-miterlimit="10" d="M 767.445569 1941.207847 L 1335.21494 1941.207847 " transform="matrix(0.0996567, 0, 0, -0.0996567, 0.698582, 199.622369)"/>
<path fill="none" stroke-width="5" stroke-linecap="round" stroke-linejoin="round" stroke="rgb(50%, 50%, 50%)" stroke-opacity="1" stroke-miterlimit="10" d="M 1335.21494 1373.438475 L 1335.21494 1941.207847 " transform="matrix(0.0996567, 0, 0, -0.0996567, 0.698582, 199.622369)"/>
<g clip-path="url(#clip-13)">
<path fill="none" stroke-width="29.8082" stroke-linecap="round" stroke-linejoin="round" stroke="rgb(100%, 0%, 0%)" stroke-opacity="1" stroke-miterlimit="10" d="M 767.445569 1373.438475 L 1335.21494 1373.438475 L 1335.21494 1941.207847 " transform="matrix(0.0996567, 0, 0, -0.0996567, 0.698582, 199.622369)"/>
</g>
</svg>
