<?xml version="1.0" encoding="UTF-8"?>
<svg xmlns="http://www.w3.org/2000/svg" xmlns:xlink="http://www.w3.org/1999/xlink" width="166.28" height="177.83" viewBox="0 0 166.28 177.83">
<defs>
<clipPath id="clip-0">
<path clip-rule="nonzero" d="M 0 0.328125 L 35 0.328125 L 35 73 L 0 73 Z M 0 0.328125 "/>
</clipPath>
<clipPath id="clip-1">
<path clip-rule="nonzero" d="M 0.0585938 0.4375 L 1 0.4375 L 1 72.21875 L 0.0585938 72.21875 Z M 0.0585938 0.4375 "/>
</clipPath>
<clipPath id="clip-2">
<path clip-rule="nonzero" d="M 57 0.328125 L 165.285156 0.328125 L 165.285156 177.363281 L 57 177.363281 Z M 57 0.328125 "/>
</clipPath>
</defs>
<g clip-path="url(#clip-0)">
<path fill="none" stroke-width="1.2048" stroke-linecap="round" stroke-linejoin="round" stroke="rgb(13.729858%, 12.159729%, 12.548828%)" stroke-opacity="1" stroke-miterlimit="10" d="M 0.588475 1055.985455 L 342.099922 1055.985455 M 0.588475 1055.985455 L 0.588475 1776.906116 M 0.588475 1776.906116 L 342.099922 1776.906116 M 342.099922 1055.985455 L 342.099922 1776.906116 " transform="matrix(0.0995689, 0, 0, -0.0995689, 0.000000000000002665, 177.36202)"/>
</g>
<path fill-rule="nonzero" fill="rgb(87.068176%, 86.833191%, 86.891174%)" fill-opacity="1" d="M 7.617188 26.882812 L 26.507812 26.882812 L 26.507812 7.992188 L 7.617188 7.992188 Z M 7.617188 26.882812 "/>
<path fill="none" stroke-width="1.2048" stroke-linecap="round" stroke-linejoin="round" stroke="rgb(26.704407%, 25.370789%, 25.701904%)" stroke-opacity="1" stroke-miterlimit="10" d="M 76.501703 1511.307897 L 266.225925 1511.307897 L 266.225925 1701.03212 L 76.501703 1701.03212 L 76.501703 1511.307897 " transform="matrix(0.0995689, 0, 0, -0.0995689, 0.000000000000002665, 177.36202)"/>
<path fill-rule="nonzero" fill="rgb(13.729858%, 12.159729%, 12.548828%)" fill-opacity="1" d="M 17.0625 17.4375 L 22.726562 17.4375 C 22.726562 14.308594 20.1875 11.769531 17.0625 11.769531 C 13.933594 11.769531 11.394531 14.308594 11.394531 17.4375 C 11.394531 20.566406 13.933594 23.105469 17.0625 23.105469 C 20.1875 23.105469 22.726562 20.566406 22.726562 17.4375 C 22.726562 17.25 22.71875 17.058594 22.699219 16.871094 "/>
<path fill-rule="nonzero" fill="rgb(50.460815%, 49.560547%, 49.783325%)" fill-opacity="1" d="M 7.617188 64.660156 L 26.507812 64.660156 L 26.507812 45.769531 L 7.617188 45.769531 Z M 7.617188 64.660156 "/>
<path fill="none" stroke-width="1.2048" stroke-linecap="round" stroke-linejoin="round" stroke="rgb(26.704407%, 25.370789%, 25.701904%)" stroke-opacity="1" stroke-miterlimit="10" d="M 76.501703 1131.898683 L 266.225925 1131.898683 L 266.225925 1321.622906 L 76.501703 1321.622906 L 76.501703 1131.898683 " transform="matrix(0.0995689, 0, 0, -0.0995689, 0.000000000000002665, 177.36202)"/>
<path fill="none" stroke-width="1.2048" stroke-linecap="round" stroke-linejoin="round" stroke="rgb(13.729858%, 12.159729%, 12.548828%)" stroke-opacity="1" stroke-miterlimit="10" d="M 76.501703 1511.307897 L 76.501703 1321.622906 M 266.225925 1511.307897 L 266.225925 1321.622906 " transform="matrix(0.0995689, 0, 0, -0.0995689, 0.000000000000002665, 177.36202)"/>
<g clip-path="url(#clip-1)">
<path fill="none" stroke-width="1.2048" stroke-linecap="round" stroke-linejoin="round" stroke="rgb(13.729858%, 12.159729%, 12.548828%)" stroke-opacity="1" stroke-miterlimit="10" d="M 0.588475 1055.985455 L 0.588475 1776.906116 " transform="matrix(0.0995689, 0, 0, -0.0995689, 0.000000000000002665, 177.36202)"/>
</g>
<g clip-path="url(#clip-2)">
<path fill="none" stroke-width="2.81315" stroke-linecap="round" stroke-linejoin="round" stroke="rgb(13.729858%, 12.159729%, 12.548828%)" stroke-opacity="1" stroke-miterlimit="10" d="M 578.470567 1.399676 L 1661.342361 1.399676 M 578.470567 1.399676 L 578.470567 1776.906116 M 578.470567 1776.906116 L 1661.342361 1776.906116 M 1661.342361 1.399676 L 1661.342361 1776.906116 " transform="matrix(0.0995689, 0, 0, -0.0995689, 0.000000000000002665, 177.36202)"/>
</g>
<path fill-rule="nonzero" fill="rgb(87.068176%, 86.833191%, 86.891174%)" fill-opacity="1" d="M 59.589844 36.519531 L 94.011719 36.519531 L 94.011719 2.429688 L 59.589844 2.429688 Z M 59.589844 36.519531 "/>
<path fill="none" stroke-width="2.4063" stroke-linecap="round" stroke-linejoin="round" stroke="rgb(26.704407%, 25.370789%, 25.701904%)" stroke-opacity="1" stroke-miterlimit="10" d="M 598.478705 1756.897979 L 944.187938 1756.897979 L 944.187938 1414.523435 L 598.478705 1414.523435 L 598.478705 1756.897979 " transform="matrix(0.0995689, 0, 0, -0.0995689, 0.000000000000002665, 177.36202)"/>
<path fill-rule="nonzero" fill="rgb(50.460815%, 49.560547%, 49.783325%)" fill-opacity="1" d="M 94.011719 36.519531 L 128.433594 36.519531 L 128.433594 2.429688 L 94.011719 2.429688 Z M 94.011719 36.519531 "/>
<path fill="none" stroke-width="2.4063" stroke-linecap="round" stroke-linejoin="round" stroke="rgb(26.704407%, 25.370789%, 25.701904%)" stroke-opacity="1" stroke-miterlimit="10" d="M 944.187938 1756.897979 L 1289.897171 1756.897979 L 1289.897171 1414.523435 L 944.187938 1414.523435 L 944.187938 1756.897979 " transform="matrix(0.0995689, 0, 0, -0.0995689, 0.000000000000002665, 177.36202)"/>
<path fill-rule="nonzero" fill="rgb(87.068176%, 86.833191%, 86.891174%)" fill-opacity="1" d="M 128.433594 36.519531 L 162.859375 36.519531 L 162.859375 2.429688 L 128.433594 2.429688 Z M 128.433594 36.519531 "/>
<path fill="none" stroke-width="2.4063" stroke-linecap="round" stroke-linejoin="round" stroke="rgb(26.704407%, 25.370789%, 25.701904%)" stroke-opacity="1" stroke-miterlimit="10" d="M 1289.897171 1756.897979 L 1635.645635 1756.897979 L 1635.645635 1414.523435 L 1289.897171 1414.523435 L 1289.897171 1756.897979 " transform="matrix(0.0995689, 0, 0, -0.0995689, 0.000000000000002665, 177.36202)"/>
<path fill-rule="nonzero" fill="rgb(13.729858%, 12.159729%, 12.548828%)" fill-opacity="1" d="M 76.800781 19.476562 L 87.125 19.476562 C 87.125 13.828125 82.5 9.246094 76.800781 9.246094 C 71.097656 9.246094 66.472656 13.828125 66.472656 19.476562 C 66.472656 25.121094 71.097656 29.703125 76.800781 29.703125 C 82.5 29.703125 87.125 25.121094 87.125 19.476562 C 87.125 19.132812 87.109375 18.792969 87.074219 18.453125 "/>
<path fill-rule="nonzero" fill="rgb(50.460815%, 49.560547%, 49.783325%)" fill-opacity="1" d="M 59.589844 70.847656 L 94.011719 70.847656 L 94.011719 36.757812 L 59.589844 36.757812 Z M 59.589844 70.847656 "/>
<path fill-rule="nonzero" fill="rgb(50.460815%, 49.560547%, 49.783325%)" fill-opacity="1" d="M 94.011719 70.847656 L 128.433594 70.847656 L 128.433594 36.757812 L 94.011719 36.757812 Z M 94.011719 70.847656 "/>
<path fill-rule="nonzero" fill="rgb(87.068176%, 86.833191%, 86.891174%)" fill-opacity="1" d="M 128.433594 70.847656 L 162.859375 70.847656 L 162.859375 36.757812 L 128.433594 36.757812 Z M 128.433594 70.847656 "/>
<path fill-rule="nonzero" fill="rgb(13.729858%, 12.159729%, 12.548828%)" fill-opacity="1" d="M 145.648438 53.804688 L 155.972656 53.804688 C 155.972656 48.15625 151.347656 43.578125 145.648438 43.578125 C 139.945312 43.578125 135.320312 48.15625 135.320312 53.804688 C 135.320312 59.449219 139.945312 64.03125 145.648438 64.03125 C 151.347656 64.03125 155.972656 59.449219 155.972656 53.804688 C 155.972656 53.460938 155.957031 53.121094 155.921875 52.78125 "/>
<path fill="none" stroke-width="2.4063" stroke-linecap="round" stroke-linejoin="round" stroke="rgb(13.729858%, 12.159729%, 12.548828%)" stroke-opacity="1" stroke-miterlimit="10" d="M 598.478705 1414.523435 L 598.478705 1072.148892 M 944.187938 1414.523435 L 944.187938 1072.148892 M 1289.897171 1414.523435 L 1289.897171 1072.148892 M 1635.645635 1414.523435 L 1635.645635 1072.148892 " transform="matrix(0.0995689, 0, 0, -0.0995689, 0.000000000000002665, 177.36202)"/>
<path fill-rule="nonzero" fill="rgb(50.460815%, 49.560547%, 49.783325%)" fill-opacity="1" d="M 59.722656 105.210938 L 94.074219 105.210938 L 94.074219 70.859375 L 59.722656 70.859375 Z M 59.722656 105.210938 "/>
<path fill="none" stroke-width="2" stroke-linecap="butt" stroke-linejoin="miter" stroke="rgb(13.729858%, 12.159729%, 12.548828%)" stroke-opacity="1" stroke-miterlimit="4" d="M 944.815644 724.635003 L 599.812581 724.635003 L 599.812581 1069.638067 L 944.815644 1069.638067 Z M 944.815644 724.635003 " transform="matrix(0.0995689, 0, 0, -0.0995689, 0.000000000000002665, 177.36202)"/>
<path fill-rule="nonzero" fill="rgb(50.460815%, 49.560547%, 49.783325%)" fill-opacity="1" d="M 94.238281 105.210938 L 128.589844 105.210938 L 128.589844 70.859375 L 94.238281 70.859375 Z M 94.238281 105.210938 "/>
<path fill="none" stroke-width="2" stroke-linecap="butt" stroke-linejoin="miter" stroke="rgb(13.729858%, 12.159729%, 12.548828%)" stroke-opacity="1" stroke-miterlimit="4" d="M 1291.466437 724.635003 L 946.463373 724.635003 L 946.463373 1069.638067 L 1291.466437 1069.638067 Z M 1291.466437 724.635003 " transform="matrix(0.0995689, 0, 0, -0.0995689, 0.000000000000002665, 177.36202)"/>
<path fill-rule="nonzero" fill="rgb(50.460815%, 49.560547%, 49.783325%)" fill-opacity="1" d="M 128.753906 105.210938 L 163.105469 105.210938 L 163.105469 70.859375 L 128.753906 70.859375 Z M 128.753906 105.210938 "/>
<path fill="none" stroke-width="2" stroke-linecap="butt" stroke-linejoin="miter" stroke="rgb(13.729858%, 12.159729%, 12.548828%)" stroke-opacity="1" stroke-miterlimit="4" d="M 1638.117229 724.635003 L 1293.114165 724.635003 L 1293.114165 1069.638067 L 1638.117229 1069.638067 Z M 1638.117229 724.635003 " transform="matrix(0.0995689, 0, 0, -0.0995689, 0.000000000000002665, 177.36202)"/>
<path fill-rule="nonzero" fill="rgb(50.460815%, 49.560547%, 49.783325%)" fill-opacity="1" d="M 59.722656 139.726562 L 94.074219 139.726562 L 94.074219 105.375 L 59.722656 105.375 Z M 59.722656 139.726562 "/>
<path fill="none" stroke-width="2" stroke-linecap="butt" stroke-linejoin="miter" stroke="rgb(13.729858%, 12.159729%, 12.548828%)" stroke-opacity="1" stroke-miterlimit="4" d="M 944.815644 377.984211 L 599.812581 377.984211 L 599.812581 722.987274 L 944.815644 722.987274 Z M 944.815644 377.984211 " transform="matrix(0.0995689, 0, 0, -0.0995689, 0.000000000000002665, 177.36202)"/>
<path fill-rule="nonzero" fill="rgb(50.460815%, 49.560547%, 49.783325%)" fill-opacity="1" d="M 94.238281 139.726562 L 128.589844 139.726562 L 128.589844 105.375 L 94.238281 105.375 Z M 94.238281 139.726562 "/>
<path fill="none" stroke-width="2" stroke-linecap="butt" stroke-linejoin="miter" stroke="rgb(13.729858%, 12.159729%, 12.548828%)" stroke-opacity="1" stroke-miterlimit="4" d="M 1291.466437 377.984211 L 946.463373 377.984211 L 946.463373 722.987274 L 1291.466437 722.987274 Z M 1291.466437 377.984211 " transform="matrix(0.0995689, 0, 0, -0.0995689, 0.000000000000002665, 177.36202)"/>
<path fill-rule="nonzero" fill="rgb(50.460815%, 49.560547%, 49.783325%)" fill-opacity="1" d="M 128.753906 139.726562 L 163.105469 139.726562 L 163.105469 105.375 L 128.753906 105.375 Z M 128.753906 139.726562 "/>
<path fill="none" stroke-width="2" stroke-linecap="butt" stroke-linejoin="miter" stroke="rgb(13.729858%, 12.159729%, 12.548828%)" stroke-opacity="1" stroke-miterlimit="4" d="M 1638.117229 377.984211 L 1293.114165 377.984211 L 1293.114165 722.987274 L 1638.117229 722.987274 Z M 1638.117229 377.984211 " transform="matrix(0.0995689, 0, 0, -0.0995689, 0.000000000000002665, 177.36202)"/>
<path fill-rule="nonzero" fill="rgb(13.729858%, 12.159729%, 12.548828%)" fill-opacity="1" d="M 111.664062 149.933594 C 111.664062 151.167969 110.660156 152.171875 109.421875 152.171875 C 108.1875 152.171875 107.183594 151.167969 107.183594 149.933594 C 107.183594 148.695312 108.1875 147.691406 109.421875 147.691406 C 110.660156 147.691406 111.664062 148.695312 111.664062 149.933594 "/>
<path fill="none" stroke-width="2" stroke-linecap="butt" stroke-linejoin="miter" stroke="rgb(50.460815%, 49.560547%, 49.783325%)" stroke-opacity="1" stroke-miterlimit="4" d="M 1121.47573 275.47193 C 1121.47573 263.07473 1111.393198 252.992198 1098.956767 252.992198 C 1086.559568 252.992198 1076.477036 263.07473 1076.477036 275.47193 C 1076.477036 287.90836 1086.559568 297.990892 1098.956767 297.990892 C 1111.393198 297.990892 1121.47573 287.90836 1121.47573 275.47193 Z M 1121.47573 275.47193 " transform="matrix(0.0995689, 0, 0, -0.0995689, 0.000000000000002665, 177.36202)"/>
<path fill-rule="nonzero" fill="rgb(13.729858%, 12.159729%, 12.548828%)" fill-opacity="1" d="M 111.664062 158.144531 C 111.664062 159.382812 110.660156 160.386719 109.421875 160.386719 C 108.1875 160.386719 107.183594 159.382812 107.183594 158.144531 C 107.183594 156.910156 108.1875 155.90625 109.421875 155.90625 C 110.660156 155.90625 111.664062 156.910156 111.664062 158.144531 "/>
<path fill="none" stroke-width="2" stroke-linecap="butt" stroke-linejoin="miter" stroke="rgb(50.460815%, 49.560547%, 49.783325%)" stroke-opacity="1" stroke-miterlimit="4" d="M 1121.47573 193.007017 C 1121.47573 180.570587 1111.393198 170.488054 1098.956767 170.488054 C 1086.559568 170.488054 1076.477036 180.570587 1076.477036 193.007017 C 1076.477036 205.404216 1086.559568 215.486748 1098.956767 215.486748 C 1111.393198 215.486748 1121.47573 205.404216 1121.47573 193.007017 Z M 1121.47573 193.007017 " transform="matrix(0.0995689, 0, 0, -0.0995689, 0.000000000000002665, 177.36202)"/>
<path fill-rule="nonzero" fill="rgb(13.729858%, 12.159729%, 12.548828%)" fill-opacity="1" d="M 111.664062 166.359375 C 111.664062 167.597656 110.660156 168.601562 109.421875 168.601562 C 108.1875 168.601562 107.183594 167.597656 107.183594 166.359375 C 107.183594 165.125 108.1875 164.121094 109.421875 164.121094 C 110.660156 164.121094 111.664062 165.125 111.664062 166.359375 "/>
<path fill="none" stroke-width="2" stroke-linecap="butt" stroke-linejoin="miter" stroke="rgb(50.460815%, 49.560547%, 49.783325%)" stroke-opacity="1" stroke-miterlimit="4" d="M 1121.47573 110.502873 C 1121.47573 98.066443 1111.393198 87.98391 1098.956767 87.98391 C 1086.559568 87.98391 1076.477036 98.066443 1076.477036 110.502873 C 1076.477036 122.900072 1086.559568 132.982604 1098.956767 132.982604 C 1111.393198 132.982604 1121.47573 122.900072 1121.47573 110.502873 Z M 1121.47573 110.502873 " transform="matrix(0.0995689, 0, 0, -0.0995689, 0.000000000000002665, 177.36202)"/>
</svg>
