<?xml version="1.0" encoding="UTF-8"?>
<svg xmlns="http://www.w3.org/2000/svg" xmlns:xlink="http://www.w3.org/1999/xlink" width="319" height="145.62" viewBox="0 0 319 145.62">
<path fill="none" stroke-width="7.23266" stroke-linecap="round" stroke-linejoin="round" stroke="rgb(0%, 0%, 0%)" stroke-opacity="1" stroke-miterlimit="10" d="M 183.78792 866.383611 L 362.025263 620.940098 " transform="matrix(0.0997397, 0, 0, -0.0997397, 0.415137, 145.240989)"/>
<path fill="none" stroke-width="7.23266" stroke-linecap="round" stroke-linejoin="round" stroke="rgb(0%, 0%, 0%)" stroke-opacity="1" stroke-miterlimit="10" d="M 183.78792 866.383611 L 418.892022 142.350705 " transform="matrix(0.0997397, 0, 0, -0.0997397, 0.415137, 145.240989)"/>
<path fill="none" stroke-width="7.23266" stroke-linecap="round" stroke-linejoin="round" stroke="rgb(0%, 0%, 0%)" stroke-opacity="1" stroke-miterlimit="10" d="M 362.025263 620.940098 L 418.892022 445.796746 " transform="matrix(0.0997397, 0, 0, -0.0997397, 0.415137, 145.240989)"/>
<path fill="none" stroke-width="7.23266" stroke-linecap="round" stroke-linejoin="round" stroke="rgb(0%, 0%, 0%)" stroke-opacity="1" stroke-miterlimit="10" d="M 418.892022 445.796746 L 418.892022 142.350705 " transform="matrix(0.0997397, 0, 0, -0.0997397, 0.415137, 145.240989)"/>
<path fill="none" stroke-width="7.23266" stroke-linecap="round" stroke-linejoin="round" stroke="rgb(0%, 0%, 0%)" stroke-opacity="1" stroke-miterlimit="10" d="M 418.892022 445.796746 L 707.338085 236.149526 " transform="matrix(0.0997397, 0, 0, -0.0997397, 0.415137, 145.240989)"/>
<path fill="none" stroke-width="7.23266" stroke-linecap="round" stroke-linejoin="round" stroke="rgb(0%, 0%, 0%)" stroke-opacity="1" stroke-miterlimit="10" d="M 418.892022 142.350705 L 707.338085 236.149526 " transform="matrix(0.0997397, 0, 0, -0.0997397, 0.415137, 145.240989)"/>
<path fill="none" stroke-width="7.23266" stroke-linecap="round" stroke-linejoin="round" stroke="rgb(0%, 0%, 0%)" stroke-opacity="1" stroke-miterlimit="10" d="M 418.892022 142.350705 L 1179.896155 142.350705 " transform="matrix(0.0997397, 0, 0, -0.0997397, 0.415137, 145.240989)"/>
<path fill="none" stroke-width="7.23266" stroke-linecap="round" stroke-linejoin="round" stroke="rgb(0%, 0%, 0%)" stroke-opacity="1" stroke-miterlimit="10" d="M 423.043452 665.274239 L 362.025263 620.940098 " transform="matrix(0.0997397, 0, 0, -0.0997397, 0.415137, 145.240989)"/>
<path fill="none" stroke-width="7.23266" stroke-linecap="round" stroke-linejoin="round" stroke="rgb(0%, 0%, 0%)" stroke-opacity="1" stroke-miterlimit="10" d="M 423.043452 665.274239 L 495.497657 888.433188 " transform="matrix(0.0997397, 0, 0, -0.0997397, 0.415137, 145.240989)"/>
<path fill="none" stroke-width="7.23266" stroke-linecap="round" stroke-linejoin="round" stroke="rgb(0%, 0%, 0%)" stroke-opacity="1" stroke-miterlimit="10" d="M 423.043452 665.274239 L 524.283516 576.840945 " transform="matrix(0.0997397, 0, 0, -0.0997397, 0.415137, 145.240989)"/>
<path fill="none" stroke-width="7.23266" stroke-linecap="round" stroke-linejoin="round" stroke="rgb(0%, 0%, 0%)" stroke-opacity="1" stroke-miterlimit="10" d="M 472.233982 960.143268 L 183.78792 866.383611 " transform="matrix(0.0997397, 0, 0, -0.0997397, 0.415137, 145.240989)"/>
<path fill="none" stroke-width="7.23266" stroke-linecap="round" stroke-linejoin="round" stroke="rgb(0%, 0%, 0%)" stroke-opacity="1" stroke-miterlimit="10" d="M 472.233982 960.143268 L 362.025263 620.940098 " transform="matrix(0.0997397, 0, 0, -0.0997397, 0.415137, 145.240989)"/>
<path fill="none" stroke-width="7.23266" stroke-linecap="round" stroke-linejoin="round" stroke="rgb(0%, 0%, 0%)" stroke-opacity="1" stroke-miterlimit="10" d="M 494.361888 445.796746 L 418.892022 445.796746 " transform="matrix(0.0997397, 0, 0, -0.0997397, 0.415137, 145.240989)"/>
<path fill="none" stroke-width="7.23266" stroke-linecap="round" stroke-linejoin="round" stroke="rgb(0%, 0%, 0%)" stroke-opacity="1" stroke-miterlimit="10" d="M 494.361888 445.796746 L 524.283516 576.840945 " transform="matrix(0.0997397, 0, 0, -0.0997397, 0.415137, 145.240989)"/>
<path fill="none" stroke-width="7.23266" stroke-linecap="round" stroke-linejoin="round" stroke="rgb(0%, 0%, 0%)" stroke-opacity="1" stroke-miterlimit="10" d="M 495.497657 888.433188 L 472.233982 960.143268 " transform="matrix(0.0997397, 0, 0, -0.0997397, 0.415137, 145.240989)"/>
<path fill="none" stroke-width="7.23266" stroke-linecap="round" stroke-linejoin="round" stroke="rgb(0%, 0%, 0%)" stroke-opacity="1" stroke-miterlimit="10" d="M 495.497657 888.433188 L 629.361695 900.45667 " transform="matrix(0.0997397, 0, 0, -0.0997397, 0.415137, 145.240989)"/>
<path fill="none" stroke-width="7.23266" stroke-linecap="round" stroke-linejoin="round" stroke="rgb(0%, 0%, 0%)" stroke-opacity="1" stroke-miterlimit="10" d="M 524.283516 576.840945 L 610.993575 558.394496 " transform="matrix(0.0997397, 0, 0, -0.0997397, 0.415137, 145.240989)"/>
<path fill="none" stroke-width="7.23266" stroke-linecap="round" stroke-linejoin="round" stroke="rgb(0%, 0%, 0%)" stroke-opacity="1" stroke-miterlimit="10" d="M 549.583741 747.519552 L 423.043452 665.274239 " transform="matrix(0.0997397, 0, 0, -0.0997397, 0.415137, 145.240989)"/>
<path fill="none" stroke-width="7.23266" stroke-linecap="round" stroke-linejoin="round" stroke="rgb(0%, 0%, 0%)" stroke-opacity="1" stroke-miterlimit="10" d="M 549.583741 747.519552 L 495.497657 888.433188 " transform="matrix(0.0997397, 0, 0, -0.0997397, 0.415137, 145.240989)"/>
<path fill="none" stroke-width="7.23266" stroke-linecap="round" stroke-linejoin="round" stroke="rgb(0%, 0%, 0%)" stroke-opacity="1" stroke-miterlimit="10" d="M 549.583741 747.519552 L 583.578471 642.793853 " transform="matrix(0.0997397, 0, 0, -0.0997397, 0.415137, 145.240989)"/>
<path fill="none" stroke-width="7.23266" stroke-linecap="round" stroke-linejoin="round" stroke="rgb(0%, 0%, 0%)" stroke-opacity="1" stroke-miterlimit="10" d="M 583.578471 642.793853 L 524.283516 576.840945 " transform="matrix(0.0997397, 0, 0, -0.0997397, 0.415137, 145.240989)"/>
<path fill="none" stroke-width="7.23266" stroke-linecap="round" stroke-linejoin="round" stroke="rgb(0%, 0%, 0%)" stroke-opacity="1" stroke-miterlimit="10" d="M 610.993575 558.394496 L 583.578471 642.793853 " transform="matrix(0.0997397, 0, 0, -0.0997397, 0.415137, 145.240989)"/>
<path fill="none" stroke-width="7.23266" stroke-linecap="round" stroke-linejoin="round" stroke="rgb(0%, 0%, 0%)" stroke-opacity="1" stroke-miterlimit="10" d="M 610.993575 558.394496 L 644.988304 453.707962 " transform="matrix(0.0997397, 0, 0, -0.0997397, 0.415137, 145.240989)"/>
<path fill="none" stroke-width="7.23266" stroke-linecap="round" stroke-linejoin="round" stroke="rgb(0%, 0%, 0%)" stroke-opacity="1" stroke-miterlimit="10" d="M 621.137164 1068.432931 L 472.233982 960.143268 " transform="matrix(0.0997397, 0, 0, -0.0997397, 0.415137, 145.240989)"/>
<path fill="none" stroke-width="7.23266" stroke-linecap="round" stroke-linejoin="round" stroke="rgb(0%, 0%, 0%)" stroke-opacity="1" stroke-miterlimit="10" d="M 629.361695 900.45667 L 638.604501 812.219198 " transform="matrix(0.0997397, 0, 0, -0.0997397, 0.415137, 145.240989)"/>
<path fill="none" stroke-width="7.23266" stroke-linecap="round" stroke-linejoin="round" stroke="rgb(0%, 0%, 0%)" stroke-opacity="1" stroke-miterlimit="10" d="M 638.604501 812.219198 L 549.583741 747.519552 " transform="matrix(0.0997397, 0, 0, -0.0997397, 0.415137, 145.240989)"/>
<path fill="none" stroke-width="7.23266" stroke-linecap="round" stroke-linejoin="round" stroke="rgb(0%, 0%, 0%)" stroke-opacity="1" stroke-miterlimit="10" d="M 638.604501 812.219198 L 710.353746 864.347061 " transform="matrix(0.0997397, 0, 0, -0.0997397, 0.415137, 145.240989)"/>
<path fill="none" stroke-width="7.23266" stroke-linecap="round" stroke-linejoin="round" stroke="rgb(0%, 0%, 0%)" stroke-opacity="1" stroke-miterlimit="10" d="M 644.988304 453.707962 L 494.361888 445.796746 " transform="matrix(0.0997397, 0, 0, -0.0997397, 0.415137, 145.240989)"/>
<path fill="none" stroke-width="7.23266" stroke-linecap="round" stroke-linejoin="round" stroke="rgb(0%, 0%, 0%)" stroke-opacity="1" stroke-miterlimit="10" d="M 644.988304 453.707962 L 684.07441 307.859606 " transform="matrix(0.0997397, 0, 0, -0.0997397, 0.415137, 145.240989)"/>
<path fill="none" stroke-width="7.23266" stroke-linecap="round" stroke-linejoin="round" stroke="rgb(0%, 0%, 0%)" stroke-opacity="1" stroke-miterlimit="10" d="M 644.988304 453.707962 L 755.040366 453.707962 " transform="matrix(0.0997397, 0, 0, -0.0997397, 0.415137, 145.240989)"/>
<path fill="none" stroke-width="7.23266" stroke-linecap="round" stroke-linejoin="round" stroke="rgb(0%, 0%, 0%)" stroke-opacity="1" stroke-miterlimit="10" d="M 655.327715 666.135856 L 583.578471 642.793853 " transform="matrix(0.0997397, 0, 0, -0.0997397, 0.415137, 145.240989)"/>
<path fill="none" stroke-width="7.23266" stroke-linecap="round" stroke-linejoin="round" stroke="rgb(0%, 0%, 0%)" stroke-opacity="1" stroke-miterlimit="10" d="M 682.155353 1024.020462 L 621.137164 1068.432931 " transform="matrix(0.0997397, 0, 0, -0.0997397, 0.415137, 145.240989)"/>
<path fill="none" stroke-width="7.23266" stroke-linecap="round" stroke-linejoin="round" stroke="rgb(0%, 0%, 0%)" stroke-opacity="1" stroke-miterlimit="10" d="M 682.155353 1024.020462 L 629.361695 900.45667 " transform="matrix(0.0997397, 0, 0, -0.0997397, 0.415137, 145.240989)"/>
<path fill="none" stroke-width="7.23266" stroke-linecap="round" stroke-linejoin="round" stroke="rgb(0%, 0%, 0%)" stroke-opacity="1" stroke-miterlimit="10" d="M 682.155353 1024.020462 L 916.671989 1024.020462 " transform="matrix(0.0997397, 0, 0, -0.0997397, 0.415137, 145.240989)"/>
<path fill="none" stroke-width="7.23266" stroke-linecap="round" stroke-linejoin="round" stroke="rgb(0%, 0%, 0%)" stroke-opacity="1" stroke-miterlimit="10" d="M 682.742819 581.697335 L 610.993575 558.394496 " transform="matrix(0.0997397, 0, 0, -0.0997397, 0.415137, 145.240989)"/>
<path fill="none" stroke-width="7.23266" stroke-linecap="round" stroke-linejoin="round" stroke="rgb(0%, 0%, 0%)" stroke-opacity="1" stroke-miterlimit="10" d="M 682.742819 581.697335 L 655.327715 666.135856 " transform="matrix(0.0997397, 0, 0, -0.0997397, 0.415137, 145.240989)"/>
<path fill="none" stroke-width="7.23266" stroke-linecap="round" stroke-linejoin="round" stroke="rgb(0%, 0%, 0%)" stroke-opacity="1" stroke-miterlimit="10" d="M 682.742819 581.697335 L 755.040366 529.099499 " transform="matrix(0.0997397, 0, 0, -0.0997397, 0.415137, 145.240989)"/>
<path fill="none" stroke-width="7.23266" stroke-linecap="round" stroke-linejoin="round" stroke="rgb(0%, 0%, 0%)" stroke-opacity="1" stroke-miterlimit="10" d="M 682.938642 751.12268 L 638.604501 812.219198 " transform="matrix(0.0997397, 0, 0, -0.0997397, 0.415137, 145.240989)"/>
<path fill="none" stroke-width="7.23266" stroke-linecap="round" stroke-linejoin="round" stroke="rgb(0%, 0%, 0%)" stroke-opacity="1" stroke-miterlimit="10" d="M 682.938642 751.12268 L 655.327715 666.135856 " transform="matrix(0.0997397, 0, 0, -0.0997397, 0.415137, 145.240989)"/>
<path fill="none" stroke-width="7.23266" stroke-linecap="round" stroke-linejoin="round" stroke="rgb(0%, 0%, 0%)" stroke-opacity="1" stroke-miterlimit="10" d="M 682.938642 751.12268 L 754.727051 803.328871 " transform="matrix(0.0997397, 0, 0, -0.0997397, 0.415137, 145.240989)"/>
<path fill="none" stroke-width="7.23266" stroke-linecap="round" stroke-linejoin="round" stroke="rgb(0%, 0%, 0%)" stroke-opacity="1" stroke-miterlimit="10" d="M 684.07441 307.859606 L 494.361888 445.796746 " transform="matrix(0.0997397, 0, 0, -0.0997397, 0.415137, 145.240989)"/>
<path fill="none" stroke-width="7.23266" stroke-linecap="round" stroke-linejoin="round" stroke="rgb(0%, 0%, 0%)" stroke-opacity="1" stroke-miterlimit="10" d="M 684.07441 307.859606 L 707.338085 236.149526 " transform="matrix(0.0997397, 0, 0, -0.0997397, 0.415137, 145.240989)"/>
<path fill="none" stroke-width="7.23266" stroke-linecap="round" stroke-linejoin="round" stroke="rgb(0%, 0%, 0%)" stroke-opacity="1" stroke-miterlimit="10" d="M 684.07441 307.859606 L 799.374506 376.867341 " transform="matrix(0.0997397, 0, 0, -0.0997397, 0.415137, 145.240989)"/>
<path fill="none" stroke-width="7.23266" stroke-linecap="round" stroke-linejoin="round" stroke="rgb(0%, 0%, 0%)" stroke-opacity="1" stroke-miterlimit="10" d="M 707.338085 236.149526 L 891.410928 236.149526 " transform="matrix(0.0997397, 0, 0, -0.0997397, 0.415137, 145.240989)"/>
<path fill="none" stroke-width="7.23266" stroke-linecap="round" stroke-linejoin="round" stroke="rgb(0%, 0%, 0%)" stroke-opacity="1" stroke-miterlimit="10" d="M 710.353746 864.347061 L 629.361695 900.45667 " transform="matrix(0.0997397, 0, 0, -0.0997397, 0.415137, 145.240989)"/>
<path fill="none" stroke-width="7.23266" stroke-linecap="round" stroke-linejoin="round" stroke="rgb(0%, 0%, 0%)" stroke-opacity="1" stroke-miterlimit="10" d="M 727.037795 642.793853 L 655.327715 666.135856 " transform="matrix(0.0997397, 0, 0, -0.0997397, 0.415137, 145.240989)"/>
<path fill="none" stroke-width="7.23266" stroke-linecap="round" stroke-linejoin="round" stroke="rgb(0%, 0%, 0%)" stroke-opacity="1" stroke-miterlimit="10" d="M 727.037795 642.793853 L 682.742819 581.697335 " transform="matrix(0.0997397, 0, 0, -0.0997397, 0.415137, 145.240989)"/>
<path fill="none" stroke-width="7.23266" stroke-linecap="round" stroke-linejoin="round" stroke="rgb(0%, 0%, 0%)" stroke-opacity="1" stroke-miterlimit="10" d="M 727.037795 642.793853 L 799.374506 590.196017 " transform="matrix(0.0997397, 0, 0, -0.0997397, 0.415137, 145.240989)"/>
<path fill="none" stroke-width="7.23266" stroke-linecap="round" stroke-linejoin="round" stroke="rgb(0%, 0%, 0%)" stroke-opacity="1" stroke-miterlimit="10" d="M 754.727051 803.328871 L 710.353746 864.347061 " transform="matrix(0.0997397, 0, 0, -0.0997397, 0.415137, 145.240989)"/>
<path fill="none" stroke-width="7.23266" stroke-linecap="round" stroke-linejoin="round" stroke="rgb(0%, 0%, 0%)" stroke-opacity="1" stroke-miterlimit="10" d="M 754.727051 727.859005 L 682.938642 751.12268 " transform="matrix(0.0997397, 0, 0, -0.0997397, 0.415137, 145.240989)"/>
<path fill="none" stroke-width="7.23266" stroke-linecap="round" stroke-linejoin="round" stroke="rgb(0%, 0%, 0%)" stroke-opacity="1" stroke-miterlimit="10" d="M 754.727051 727.859005 L 727.037795 642.793853 " transform="matrix(0.0997397, 0, 0, -0.0997397, 0.415137, 145.240989)"/>
<path fill="none" stroke-width="7.23266" stroke-linecap="round" stroke-linejoin="round" stroke="rgb(0%, 0%, 0%)" stroke-opacity="1" stroke-miterlimit="10" d="M 754.727051 727.859005 L 754.727051 803.328871 " transform="matrix(0.0997397, 0, 0, -0.0997397, 0.415137, 145.240989)"/>
<path fill="none" stroke-width="7.23266" stroke-linecap="round" stroke-linejoin="round" stroke="rgb(0%, 0%, 0%)" stroke-opacity="1" stroke-miterlimit="10" d="M 755.040366 529.099499 L 755.040366 453.707962 " transform="matrix(0.0997397, 0, 0, -0.0997397, 0.415137, 145.240989)"/>
<path fill="none" stroke-width="7.23266" stroke-linecap="round" stroke-linejoin="round" stroke="rgb(0%, 0%, 0%)" stroke-opacity="1" stroke-miterlimit="10" d="M 755.040366 453.707962 L 799.374506 376.867341 " transform="matrix(0.0997397, 0, 0, -0.0997397, 0.415137, 145.240989)"/>
<path fill="none" stroke-width="7.23266" stroke-linecap="round" stroke-linejoin="round" stroke="rgb(0%, 0%, 0%)" stroke-opacity="1" stroke-miterlimit="10" d="M 799.374506 1313.915608 L 183.78792 866.383611 " transform="matrix(0.0997397, 0, 0, -0.0997397, 0.415137, 145.240989)"/>
<path fill="none" stroke-width="7.23266" stroke-linecap="round" stroke-linejoin="round" stroke="rgb(0%, 0%, 0%)" stroke-opacity="1" stroke-miterlimit="10" d="M 799.374506 1313.915608 L 621.137164 1068.432931 " transform="matrix(0.0997397, 0, 0, -0.0997397, 0.415137, 145.240989)"/>
<path fill="none" stroke-width="7.23266" stroke-linecap="round" stroke-linejoin="round" stroke="rgb(0%, 0%, 0%)" stroke-opacity="1" stroke-miterlimit="10" d="M 799.374506 929.085872 L 682.155353 1024.020462 " transform="matrix(0.0997397, 0, 0, -0.0997397, 0.415137, 145.240989)"/>
<path fill="none" stroke-width="7.23266" stroke-linecap="round" stroke-linejoin="round" stroke="rgb(0%, 0%, 0%)" stroke-opacity="1" stroke-miterlimit="10" d="M 799.374506 929.085872 L 710.353746 864.347061 " transform="matrix(0.0997397, 0, 0, -0.0997397, 0.415137, 145.240989)"/>
<path fill="none" stroke-width="7.23266" stroke-linecap="round" stroke-linejoin="round" stroke="rgb(0%, 0%, 0%)" stroke-opacity="1" stroke-miterlimit="10" d="M 799.374506 929.085872 L 916.671989 1024.020462 " transform="matrix(0.0997397, 0, 0, -0.0997397, 0.415137, 145.240989)"/>
<path fill="none" stroke-width="7.23266" stroke-linecap="round" stroke-linejoin="round" stroke="rgb(0%, 0%, 0%)" stroke-opacity="1" stroke-miterlimit="10" d="M 799.374506 590.196017 L 755.040366 529.099499 " transform="matrix(0.0997397, 0, 0, -0.0997397, 0.415137, 145.240989)"/>
<path fill="none" stroke-width="7.23266" stroke-linecap="round" stroke-linejoin="round" stroke="rgb(0%, 0%, 0%)" stroke-opacity="1" stroke-miterlimit="10" d="M 799.374506 590.196017 L 843.747811 529.099499 " transform="matrix(0.0997397, 0, 0, -0.0997397, 0.415137, 145.240989)"/>
<path fill="none" stroke-width="7.23266" stroke-linecap="round" stroke-linejoin="round" stroke="rgb(0%, 0%, 0%)" stroke-opacity="1" stroke-miterlimit="10" d="M 799.374506 590.196017 L 871.750382 642.793853 " transform="matrix(0.0997397, 0, 0, -0.0997397, 0.415137, 145.240989)"/>
<path fill="none" stroke-width="7.23266" stroke-linecap="round" stroke-linejoin="round" stroke="rgb(0%, 0%, 0%)" stroke-opacity="1" stroke-miterlimit="10" d="M 799.374506 376.867341 L 843.747811 453.707962 " transform="matrix(0.0997397, 0, 0, -0.0997397, 0.415137, 145.240989)"/>
<path fill="none" stroke-width="7.23266" stroke-linecap="round" stroke-linejoin="round" stroke="rgb(0%, 0%, 0%)" stroke-opacity="1" stroke-miterlimit="10" d="M 843.747811 529.099499 L 755.040366 529.099499 " transform="matrix(0.0997397, 0, 0, -0.0997397, 0.415137, 145.240989)"/>
<path fill="none" stroke-width="7.23266" stroke-linecap="round" stroke-linejoin="round" stroke="rgb(0%, 0%, 0%)" stroke-opacity="1" stroke-miterlimit="10" d="M 843.747811 529.099499 L 843.747811 453.707962 " transform="matrix(0.0997397, 0, 0, -0.0997397, 0.415137, 145.240989)"/>
<path fill="none" stroke-width="7.23266" stroke-linecap="round" stroke-linejoin="round" stroke="rgb(0%, 0%, 0%)" stroke-opacity="1" stroke-miterlimit="10" d="M 843.747811 529.099499 L 916.084522 581.697335 " transform="matrix(0.0997397, 0, 0, -0.0997397, 0.415137, 145.240989)"/>
<path fill="none" stroke-width="7.23266" stroke-linecap="round" stroke-linejoin="round" stroke="rgb(0%, 0%, 0%)" stroke-opacity="1" stroke-miterlimit="10" d="M 843.747811 453.707962 L 755.040366 453.707962 " transform="matrix(0.0997397, 0, 0, -0.0997397, 0.415137, 145.240989)"/>
<path fill="none" stroke-width="7.23266" stroke-linecap="round" stroke-linejoin="round" stroke="rgb(0%, 0%, 0%)" stroke-opacity="1" stroke-miterlimit="10" d="M 843.747811 453.707962 L 953.799873 453.707962 " transform="matrix(0.0997397, 0, 0, -0.0997397, 0.415137, 145.240989)"/>
<path fill="none" stroke-width="7.23266" stroke-linecap="round" stroke-linejoin="round" stroke="rgb(0%, 0%, 0%)" stroke-opacity="1" stroke-miterlimit="10" d="M 844.061127 803.328871 L 754.727051 803.328871 " transform="matrix(0.0997397, 0, 0, -0.0997397, 0.415137, 145.240989)"/>
<path fill="none" stroke-width="7.23266" stroke-linecap="round" stroke-linejoin="round" stroke="rgb(0%, 0%, 0%)" stroke-opacity="1" stroke-miterlimit="10" d="M 844.061127 803.328871 L 888.434431 864.347061 " transform="matrix(0.0997397, 0, 0, -0.0997397, 0.415137, 145.240989)"/>
<path fill="none" stroke-width="7.23266" stroke-linecap="round" stroke-linejoin="round" stroke="rgb(0%, 0%, 0%)" stroke-opacity="1" stroke-miterlimit="10" d="M 844.061127 803.328871 L 915.8887 751.12268 " transform="matrix(0.0997397, 0, 0, -0.0997397, 0.415137, 145.240989)"/>
<path fill="none" stroke-width="7.23266" stroke-linecap="round" stroke-linejoin="round" stroke="rgb(0%, 0%, 0%)" stroke-opacity="1" stroke-miterlimit="10" d="M 844.061127 727.859005 L 754.727051 727.859005 " transform="matrix(0.0997397, 0, 0, -0.0997397, 0.415137, 145.240989)"/>
<path fill="none" stroke-width="7.23266" stroke-linecap="round" stroke-linejoin="round" stroke="rgb(0%, 0%, 0%)" stroke-opacity="1" stroke-miterlimit="10" d="M 844.061127 727.859005 L 844.061127 803.328871 " transform="matrix(0.0997397, 0, 0, -0.0997397, 0.415137, 145.240989)"/>
<path fill="none" stroke-width="7.23266" stroke-linecap="round" stroke-linejoin="round" stroke="rgb(0%, 0%, 0%)" stroke-opacity="1" stroke-miterlimit="10" d="M 844.061127 727.859005 L 915.8887 751.12268 " transform="matrix(0.0997397, 0, 0, -0.0997397, 0.415137, 145.240989)"/>
<path fill="none" stroke-width="7.23266" stroke-linecap="round" stroke-linejoin="round" stroke="rgb(0%, 0%, 0%)" stroke-opacity="1" stroke-miterlimit="10" d="M 871.750382 642.793853 L 844.061127 727.859005 " transform="matrix(0.0997397, 0, 0, -0.0997397, 0.415137, 145.240989)"/>
<path fill="none" stroke-width="7.23266" stroke-linecap="round" stroke-linejoin="round" stroke="rgb(0%, 0%, 0%)" stroke-opacity="1" stroke-miterlimit="10" d="M 871.750382 642.793853 L 916.084522 581.697335 " transform="matrix(0.0997397, 0, 0, -0.0997397, 0.415137, 145.240989)"/>
<path fill="none" stroke-width="7.23266" stroke-linecap="round" stroke-linejoin="round" stroke="rgb(0%, 0%, 0%)" stroke-opacity="1" stroke-miterlimit="10" d="M 871.750382 642.793853 L 943.460462 666.135856 " transform="matrix(0.0997397, 0, 0, -0.0997397, 0.415137, 145.240989)"/>
<path fill="none" stroke-width="7.23266" stroke-linecap="round" stroke-linejoin="round" stroke="rgb(0%, 0%, 0%)" stroke-opacity="1" stroke-miterlimit="10" d="M 888.434431 864.347061 L 799.374506 929.085872 " transform="matrix(0.0997397, 0, 0, -0.0997397, 0.415137, 145.240989)"/>
<path fill="none" stroke-width="7.23266" stroke-linecap="round" stroke-linejoin="round" stroke="rgb(0%, 0%, 0%)" stroke-opacity="1" stroke-miterlimit="10" d="M 888.434431 864.347061 L 960.183676 812.219198 " transform="matrix(0.0997397, 0, 0, -0.0997397, 0.415137, 145.240989)"/>
<path fill="none" stroke-width="7.23266" stroke-linecap="round" stroke-linejoin="round" stroke="rgb(0%, 0%, 0%)" stroke-opacity="1" stroke-miterlimit="10" d="M 891.410928 236.149526 L 1179.896155 445.796746 " transform="matrix(0.0997397, 0, 0, -0.0997397, 0.415137, 145.240989)"/>
<path fill="none" stroke-width="7.23266" stroke-linecap="round" stroke-linejoin="round" stroke="rgb(0%, 0%, 0%)" stroke-opacity="1" stroke-miterlimit="10" d="M 891.410928 236.149526 L 1179.896155 142.350705 " transform="matrix(0.0997397, 0, 0, -0.0997397, 0.415137, 145.240989)"/>
<path fill="none" stroke-width="7.23266" stroke-linecap="round" stroke-linejoin="round" stroke="rgb(0%, 0%, 0%)" stroke-opacity="1" stroke-miterlimit="10" d="M 914.752931 307.859606 L 799.374506 376.867341 " transform="matrix(0.0997397, 0, 0, -0.0997397, 0.415137, 145.240989)"/>
<path fill="none" stroke-width="7.23266" stroke-linecap="round" stroke-linejoin="round" stroke="rgb(0%, 0%, 0%)" stroke-opacity="1" stroke-miterlimit="10" d="M 914.752931 307.859606 L 891.410928 236.149526 " transform="matrix(0.0997397, 0, 0, -0.0997397, 0.415137, 145.240989)"/>
<path fill="none" stroke-width="7.23266" stroke-linecap="round" stroke-linejoin="round" stroke="rgb(0%, 0%, 0%)" stroke-opacity="1" stroke-miterlimit="10" d="M 915.8887 751.12268 L 960.183676 812.219198 " transform="matrix(0.0997397, 0, 0, -0.0997397, 0.415137, 145.240989)"/>
<path fill="none" stroke-width="7.23266" stroke-linecap="round" stroke-linejoin="round" stroke="rgb(0%, 0%, 0%)" stroke-opacity="1" stroke-miterlimit="10" d="M 916.084522 581.697335 L 987.794602 558.394496 " transform="matrix(0.0997397, 0, 0, -0.0997397, 0.415137, 145.240989)"/>
<path fill="none" stroke-width="7.23266" stroke-linecap="round" stroke-linejoin="round" stroke="rgb(0%, 0%, 0%)" stroke-opacity="1" stroke-miterlimit="10" d="M 916.671989 1024.020462 L 969.465647 900.45667 " transform="matrix(0.0997397, 0, 0, -0.0997397, 0.415137, 145.240989)"/>
<path fill="none" stroke-width="7.23266" stroke-linecap="round" stroke-linejoin="round" stroke="rgb(0%, 0%, 0%)" stroke-opacity="1" stroke-miterlimit="10" d="M 916.671989 1024.020462 L 977.690178 1068.432931 " transform="matrix(0.0997397, 0, 0, -0.0997397, 0.415137, 145.240989)"/>
<path fill="none" stroke-width="7.23266" stroke-linecap="round" stroke-linejoin="round" stroke="rgb(0%, 0%, 0%)" stroke-opacity="1" stroke-miterlimit="10" d="M 943.460462 666.135856 L 915.8887 751.12268 " transform="matrix(0.0997397, 0, 0, -0.0997397, 0.415137, 145.240989)"/>
<path fill="none" stroke-width="7.23266" stroke-linecap="round" stroke-linejoin="round" stroke="rgb(0%, 0%, 0%)" stroke-opacity="1" stroke-miterlimit="10" d="M 943.460462 666.135856 L 916.084522 581.697335 " transform="matrix(0.0997397, 0, 0, -0.0997397, 0.415137, 145.240989)"/>
<path fill="none" stroke-width="7.23266" stroke-linecap="round" stroke-linejoin="round" stroke="rgb(0%, 0%, 0%)" stroke-opacity="1" stroke-miterlimit="10" d="M 943.460462 666.135856 L 1015.209707 642.793853 " transform="matrix(0.0997397, 0, 0, -0.0997397, 0.415137, 145.240989)"/>
<path fill="none" stroke-width="7.23266" stroke-linecap="round" stroke-linejoin="round" stroke="rgb(0%, 0%, 0%)" stroke-opacity="1" stroke-miterlimit="10" d="M 953.799873 453.707962 L 914.752931 307.859606 " transform="matrix(0.0997397, 0, 0, -0.0997397, 0.415137, 145.240989)"/>
<path fill="none" stroke-width="7.23266" stroke-linecap="round" stroke-linejoin="round" stroke="rgb(0%, 0%, 0%)" stroke-opacity="1" stroke-miterlimit="10" d="M 953.799873 453.707962 L 987.794602 558.394496 " transform="matrix(0.0997397, 0, 0, -0.0997397, 0.415137, 145.240989)"/>
<path fill="none" stroke-width="7.23266" stroke-linecap="round" stroke-linejoin="round" stroke="rgb(0%, 0%, 0%)" stroke-opacity="1" stroke-miterlimit="10" d="M 953.799873 453.707962 L 1104.426289 445.796746 " transform="matrix(0.0997397, 0, 0, -0.0997397, 0.415137, 145.240989)"/>
<path fill="none" stroke-width="7.23266" stroke-linecap="round" stroke-linejoin="round" stroke="rgb(0%, 0%, 0%)" stroke-opacity="1" stroke-miterlimit="10" d="M 960.183676 812.219198 L 969.465647 900.45667 " transform="matrix(0.0997397, 0, 0, -0.0997397, 0.415137, 145.240989)"/>
<path fill="none" stroke-width="7.23266" stroke-linecap="round" stroke-linejoin="round" stroke="rgb(0%, 0%, 0%)" stroke-opacity="1" stroke-miterlimit="10" d="M 969.465647 900.45667 L 888.434431 864.347061 " transform="matrix(0.0997397, 0, 0, -0.0997397, 0.415137, 145.240989)"/>
<path fill="none" stroke-width="7.23266" stroke-linecap="round" stroke-linejoin="round" stroke="rgb(0%, 0%, 0%)" stroke-opacity="1" stroke-miterlimit="10" d="M 977.690178 1068.432931 L 621.137164 1068.432931 " transform="matrix(0.0997397, 0, 0, -0.0997397, 0.415137, 145.240989)"/>
<path fill="none" stroke-width="7.23266" stroke-linecap="round" stroke-linejoin="round" stroke="rgb(0%, 0%, 0%)" stroke-opacity="1" stroke-miterlimit="10" d="M 977.690178 1068.432931 L 799.374506 1313.915608 " transform="matrix(0.0997397, 0, 0, -0.0997397, 0.415137, 145.240989)"/>
<path fill="none" stroke-width="7.23266" stroke-linecap="round" stroke-linejoin="round" stroke="rgb(0%, 0%, 0%)" stroke-opacity="1" stroke-miterlimit="10" d="M 987.794602 558.394496 L 1074.504661 576.840945 " transform="matrix(0.0997397, 0, 0, -0.0997397, 0.415137, 145.240989)"/>
<path fill="none" stroke-width="7.23266" stroke-linecap="round" stroke-linejoin="round" stroke="rgb(0%, 0%, 0%)" stroke-opacity="1" stroke-miterlimit="10" d="M 1015.209707 642.793853 L 987.794602 558.394496 " transform="matrix(0.0997397, 0, 0, -0.0997397, 0.415137, 145.240989)"/>
<path fill="none" stroke-width="7.23266" stroke-linecap="round" stroke-linejoin="round" stroke="rgb(0%, 0%, 0%)" stroke-opacity="1" stroke-miterlimit="10" d="M 1015.209707 642.793853 L 1049.204436 747.519552 " transform="matrix(0.0997397, 0, 0, -0.0997397, 0.415137, 145.240989)"/>
<path fill="none" stroke-width="7.23266" stroke-linecap="round" stroke-linejoin="round" stroke="rgb(0%, 0%, 0%)" stroke-opacity="1" stroke-miterlimit="10" d="M 1049.204436 747.519552 L 960.183676 812.219198 " transform="matrix(0.0997397, 0, 0, -0.0997397, 0.415137, 145.240989)"/>
<path fill="none" stroke-width="7.23266" stroke-linecap="round" stroke-linejoin="round" stroke="rgb(0%, 0%, 0%)" stroke-opacity="1" stroke-miterlimit="10" d="M 1049.204436 747.519552 L 1103.329685 888.433188 " transform="matrix(0.0997397, 0, 0, -0.0997397, 0.415137, 145.240989)"/>
<path fill="none" stroke-width="7.23266" stroke-linecap="round" stroke-linejoin="round" stroke="rgb(0%, 0%, 0%)" stroke-opacity="1" stroke-miterlimit="10" d="M 1049.204436 747.519552 L 1175.744725 665.274239 " transform="matrix(0.0997397, 0, 0, -0.0997397, 0.415137, 145.240989)"/>
<path fill="none" stroke-width="7.23266" stroke-linecap="round" stroke-linejoin="round" stroke="rgb(0%, 0%, 0%)" stroke-opacity="1" stroke-miterlimit="10" d="M 1074.504661 576.840945 L 1015.209707 642.793853 " transform="matrix(0.0997397, 0, 0, -0.0997397, 0.415137, 145.240989)"/>
<path fill="none" stroke-width="7.23266" stroke-linecap="round" stroke-linejoin="round" stroke="rgb(0%, 0%, 0%)" stroke-opacity="1" stroke-miterlimit="10" d="M 1103.329685 888.433188 L 969.465647 900.45667 " transform="matrix(0.0997397, 0, 0, -0.0997397, 0.415137, 145.240989)"/>
<path fill="none" stroke-width="7.23266" stroke-linecap="round" stroke-linejoin="round" stroke="rgb(0%, 0%, 0%)" stroke-opacity="1" stroke-miterlimit="10" d="M 1103.329685 888.433188 L 1126.593359 960.143268 " transform="matrix(0.0997397, 0, 0, -0.0997397, 0.415137, 145.240989)"/>
<path fill="none" stroke-width="7.23266" stroke-linecap="round" stroke-linejoin="round" stroke="rgb(0%, 0%, 0%)" stroke-opacity="1" stroke-miterlimit="10" d="M 1103.329685 888.433188 L 1175.744725 665.274239 " transform="matrix(0.0997397, 0, 0, -0.0997397, 0.415137, 145.240989)"/>
<path fill="none" stroke-width="7.23266" stroke-linecap="round" stroke-linejoin="round" stroke="rgb(0%, 0%, 0%)" stroke-opacity="1" stroke-miterlimit="10" d="M 1104.426289 445.796746 L 914.752931 307.859606 " transform="matrix(0.0997397, 0, 0, -0.0997397, 0.415137, 145.240989)"/>
<path fill="none" stroke-width="7.23266" stroke-linecap="round" stroke-linejoin="round" stroke="rgb(0%, 0%, 0%)" stroke-opacity="1" stroke-miterlimit="10" d="M 1104.426289 445.796746 L 1074.504661 576.840945 " transform="matrix(0.0997397, 0, 0, -0.0997397, 0.415137, 145.240989)"/>
<path fill="none" stroke-width="7.23266" stroke-linecap="round" stroke-linejoin="round" stroke="rgb(0%, 0%, 0%)" stroke-opacity="1" stroke-miterlimit="10" d="M 1104.426289 445.796746 L 1179.896155 445.796746 " transform="matrix(0.0997397, 0, 0, -0.0997397, 0.415137, 145.240989)"/>
<path fill="none" stroke-width="7.23266" stroke-linecap="round" stroke-linejoin="round" stroke="rgb(0%, 0%, 0%)" stroke-opacity="1" stroke-miterlimit="10" d="M 1126.593359 960.143268 L 977.690178 1068.432931 " transform="matrix(0.0997397, 0, 0, -0.0997397, 0.415137, 145.240989)"/>
<path fill="none" stroke-width="7.23266" stroke-linecap="round" stroke-linejoin="round" stroke="rgb(0%, 0%, 0%)" stroke-opacity="1" stroke-miterlimit="10" d="M 1175.744725 665.274239 L 1074.504661 576.840945 " transform="matrix(0.0997397, 0, 0, -0.0997397, 0.415137, 145.240989)"/>
<path fill="none" stroke-width="7.23266" stroke-linecap="round" stroke-linejoin="round" stroke="rgb(0%, 0%, 0%)" stroke-opacity="1" stroke-miterlimit="10" d="M 1175.744725 665.274239 L 1236.762915 620.940098 " transform="matrix(0.0997397, 0, 0, -0.0997397, 0.415137, 145.240989)"/>
<path fill="none" stroke-width="7.23266" stroke-linecap="round" stroke-linejoin="round" stroke="rgb(0%, 0%, 0%)" stroke-opacity="1" stroke-miterlimit="10" d="M 1179.896155 445.796746 L 1236.762915 620.940098 " transform="matrix(0.0997397, 0, 0, -0.0997397, 0.415137, 145.240989)"/>
<path fill="none" stroke-width="7.23266" stroke-linecap="round" stroke-linejoin="round" stroke="rgb(0%, 0%, 0%)" stroke-opacity="1" stroke-miterlimit="10" d="M 1179.896155 142.350705 L 1179.896155 445.796746 " transform="matrix(0.0997397, 0, 0, -0.0997397, 0.415137, 145.240989)"/>
<path fill="none" stroke-width="7.23266" stroke-linecap="round" stroke-linejoin="round" stroke="rgb(0%, 0%, 0%)" stroke-opacity="1" stroke-miterlimit="10" d="M 1179.896155 142.350705 L 1415.000258 866.383611 " transform="matrix(0.0997397, 0, 0, -0.0997397, 0.415137, 145.240989)"/>
<path fill="none" stroke-width="7.23266" stroke-linecap="round" stroke-linejoin="round" stroke="rgb(0%, 0%, 0%)" stroke-opacity="1" stroke-miterlimit="10" d="M 1236.762915 620.940098 L 1126.593359 960.143268 " transform="matrix(0.0997397, 0, 0, -0.0997397, 0.415137, 145.240989)"/>
<path fill="none" stroke-width="7.23266" stroke-linecap="round" stroke-linejoin="round" stroke="rgb(0%, 0%, 0%)" stroke-opacity="1" stroke-miterlimit="10" d="M 1236.762915 620.940098 L 1415.000258 866.383611 " transform="matrix(0.0997397, 0, 0, -0.0997397, 0.415137, 145.240989)"/>
<path fill="none" stroke-width="7.23266" stroke-linecap="round" stroke-linejoin="round" stroke="rgb(0%, 0%, 0%)" stroke-opacity="1" stroke-miterlimit="10" d="M 1415.000258 866.383611 L 799.374506 1313.915608 " transform="matrix(0.0997397, 0, 0, -0.0997397, 0.415137, 145.240989)"/>
<path fill="none" stroke-width="7.23266" stroke-linecap="round" stroke-linejoin="round" stroke="rgb(0%, 0%, 0%)" stroke-opacity="1" stroke-miterlimit="10" d="M 1415.000258 866.383611 L 1126.593359 960.143268 " transform="matrix(0.0997397, 0, 0, -0.0997397, 0.415137, 145.240989)"/>
<path fill="none" stroke-width="43.396" stroke-linecap="round" stroke-linejoin="round" stroke="rgb(100%, 0%, 0%)" stroke-opacity="1" stroke-miterlimit="10" d="M 183.78792 866.383611 L 183.78792 866.383611 " transform="matrix(0.0997397, 0, 0, -0.0997397, 0.415137, 145.240989)"/>
<path fill="none" stroke-width="43.396" stroke-linecap="round" stroke-linejoin="round" stroke="rgb(100%, 0%, 0%)" stroke-opacity="1" stroke-miterlimit="10" d="M 362.025263 620.940098 L 362.025263 620.940098 " transform="matrix(0.0997397, 0, 0, -0.0997397, 0.415137, 145.240989)"/>
<path fill="none" stroke-width="43.396" stroke-linecap="round" stroke-linejoin="round" stroke="rgb(100%, 0%, 0%)" stroke-opacity="1" stroke-miterlimit="10" d="M 418.892022 445.796746 L 418.892022 445.796746 " transform="matrix(0.0997397, 0, 0, -0.0997397, 0.415137, 145.240989)"/>
<path fill="none" stroke-width="43.396" stroke-linecap="round" stroke-linejoin="round" stroke="rgb(100%, 0%, 0%)" stroke-opacity="1" stroke-miterlimit="10" d="M 418.892022 142.350705 L 418.892022 142.350705 " transform="matrix(0.0997397, 0, 0, -0.0997397, 0.415137, 145.240989)"/>
<path fill="none" stroke-width="43.396" stroke-linecap="round" stroke-linejoin="round" stroke="rgb(100%, 0%, 0%)" stroke-opacity="1" stroke-miterlimit="10" d="M 423.043452 665.274239 L 423.043452 665.274239 " transform="matrix(0.0997397, 0, 0, -0.0997397, 0.415137, 145.240989)"/>
<path fill="none" stroke-width="43.396" stroke-linecap="round" stroke-linejoin="round" stroke="rgb(100%, 0%, 0%)" stroke-opacity="1" stroke-miterlimit="10" d="M 472.233982 960.143268 L 472.233982 960.143268 " transform="matrix(0.0997397, 0, 0, -0.0997397, 0.415137, 145.240989)"/>
<path fill="none" stroke-width="43.396" stroke-linecap="round" stroke-linejoin="round" stroke="rgb(100%, 0%, 0%)" stroke-opacity="1" stroke-miterlimit="10" d="M 494.361888 445.796746 L 494.361888 445.796746 " transform="matrix(0.0997397, 0, 0, -0.0997397, 0.415137, 145.240989)"/>
<path fill="none" stroke-width="43.396" stroke-linecap="round" stroke-linejoin="round" stroke="rgb(100%, 0%, 0%)" stroke-opacity="1" stroke-miterlimit="10" d="M 495.497657 888.433188 L 495.497657 888.433188 " transform="matrix(0.0997397, 0, 0, -0.0997397, 0.415137, 145.240989)"/>
<path fill="none" stroke-width="43.396" stroke-linecap="round" stroke-linejoin="round" stroke="rgb(100%, 0%, 0%)" stroke-opacity="1" stroke-miterlimit="10" d="M 524.283516 576.840945 L 524.283516 576.840945 " transform="matrix(0.0997397, 0, 0, -0.0997397, 0.415137, 145.240989)"/>
<path fill="none" stroke-width="43.396" stroke-linecap="round" stroke-linejoin="round" stroke="rgb(100%, 0%, 0%)" stroke-opacity="1" stroke-miterlimit="10" d="M 549.583741 747.519552 L 549.583741 747.519552 " transform="matrix(0.0997397, 0, 0, -0.0997397, 0.415137, 145.240989)"/>
<path fill="none" stroke-width="43.396" stroke-linecap="round" stroke-linejoin="round" stroke="rgb(100%, 0%, 0%)" stroke-opacity="1" stroke-miterlimit="10" d="M 583.578471 642.793853 L 583.578471 642.793853 " transform="matrix(0.0997397, 0, 0, -0.0997397, 0.415137, 145.240989)"/>
<path fill="none" stroke-width="43.396" stroke-linecap="round" stroke-linejoin="round" stroke="rgb(100%, 0%, 0%)" stroke-opacity="1" stroke-miterlimit="10" d="M 610.993575 558.394496 L 610.993575 558.394496 " transform="matrix(0.0997397, 0, 0, -0.0997397, 0.415137, 145.240989)"/>
<path fill="none" stroke-width="43.396" stroke-linecap="round" stroke-linejoin="round" stroke="rgb(100%, 0%, 0%)" stroke-opacity="1" stroke-miterlimit="10" d="M 621.137164 1068.432931 L 621.137164 1068.432931 " transform="matrix(0.0997397, 0, 0, -0.0997397, 0.415137, 145.240989)"/>
<path fill="none" stroke-width="43.396" stroke-linecap="round" stroke-linejoin="round" stroke="rgb(100%, 0%, 0%)" stroke-opacity="1" stroke-miterlimit="10" d="M 629.361695 900.45667 L 629.361695 900.45667 " transform="matrix(0.0997397, 0, 0, -0.0997397, 0.415137, 145.240989)"/>
<path fill="none" stroke-width="43.396" stroke-linecap="round" stroke-linejoin="round" stroke="rgb(100%, 0%, 0%)" stroke-opacity="1" stroke-miterlimit="10" d="M 638.604501 812.219198 L 638.604501 812.219198 " transform="matrix(0.0997397, 0, 0, -0.0997397, 0.415137, 145.240989)"/>
<path fill="none" stroke-width="43.396" stroke-linecap="round" stroke-linejoin="round" stroke="rgb(100%, 0%, 0%)" stroke-opacity="1" stroke-miterlimit="10" d="M 644.988304 453.707962 L 644.988304 453.707962 " transform="matrix(0.0997397, 0, 0, -0.0997397, 0.415137, 145.240989)"/>
<path fill="none" stroke-width="43.396" stroke-linecap="round" stroke-linejoin="round" stroke="rgb(100%, 0%, 0%)" stroke-opacity="1" stroke-miterlimit="10" d="M 655.327715 666.135856 L 655.327715 666.135856 " transform="matrix(0.0997397, 0, 0, -0.0997397, 0.415137, 145.240989)"/>
<path fill="none" stroke-width="43.396" stroke-linecap="round" stroke-linejoin="round" stroke="rgb(100%, 0%, 0%)" stroke-opacity="1" stroke-miterlimit="10" d="M 682.155353 1024.020462 L 682.155353 1024.020462 " transform="matrix(0.0997397, 0, 0, -0.0997397, 0.415137, 145.240989)"/>
<path fill="none" stroke-width="43.396" stroke-linecap="round" stroke-linejoin="round" stroke="rgb(100%, 0%, 0%)" stroke-opacity="1" stroke-miterlimit="10" d="M 682.742819 581.697335 L 682.742819 581.697335 " transform="matrix(0.0997397, 0, 0, -0.0997397, 0.415137, 145.240989)"/>
<path fill="none" stroke-width="43.396" stroke-linecap="round" stroke-linejoin="round" stroke="rgb(100%, 0%, 0%)" stroke-opacity="1" stroke-miterlimit="10" d="M 682.938642 751.12268 L 682.938642 751.12268 " transform="matrix(0.0997397, 0, 0, -0.0997397, 0.415137, 145.240989)"/>
<path fill="none" stroke-width="43.396" stroke-linecap="round" stroke-linejoin="round" stroke="rgb(100%, 0%, 0%)" stroke-opacity="1" stroke-miterlimit="10" d="M 684.07441 307.859606 L 684.07441 307.859606 " transform="matrix(0.0997397, 0, 0, -0.0997397, 0.415137, 145.240989)"/>
<path fill="none" stroke-width="43.396" stroke-linecap="round" stroke-linejoin="round" stroke="rgb(100%, 0%, 0%)" stroke-opacity="1" stroke-miterlimit="10" d="M 707.338085 236.149526 L 707.338085 236.149526 " transform="matrix(0.0997397, 0, 0, -0.0997397, 0.415137, 145.240989)"/>
<path fill="none" stroke-width="43.396" stroke-linecap="round" stroke-linejoin="round" stroke="rgb(100%, 0%, 0%)" stroke-opacity="1" stroke-miterlimit="10" d="M 710.353746 864.347061 L 710.353746 864.347061 " transform="matrix(0.0997397, 0, 0, -0.0997397, 0.415137, 145.240989)"/>
<path fill="none" stroke-width="43.396" stroke-linecap="round" stroke-linejoin="round" stroke="rgb(100%, 0%, 0%)" stroke-opacity="1" stroke-miterlimit="10" d="M 727.037795 642.793853 L 727.037795 642.793853 " transform="matrix(0.0997397, 0, 0, -0.0997397, 0.415137, 145.240989)"/>
<path fill="none" stroke-width="43.396" stroke-linecap="round" stroke-linejoin="round" stroke="rgb(100%, 0%, 0%)" stroke-opacity="1" stroke-miterlimit="10" d="M 754.727051 803.328871 L 754.727051 803.328871 " transform="matrix(0.0997397, 0, 0, -0.0997397, 0.415137, 145.240989)"/>
<path fill="none" stroke-width="43.396" stroke-linecap="round" stroke-linejoin="round" stroke="rgb(100%, 0%, 0%)" stroke-opacity="1" stroke-miterlimit="10" d="M 754.727051 727.859005 L 754.727051 727.859005 " transform="matrix(0.0997397, 0, 0, -0.0997397, 0.415137, 145.240989)"/>
<path fill="none" stroke-width="43.396" stroke-linecap="round" stroke-linejoin="round" stroke="rgb(100%, 0%, 0%)" stroke-opacity="1" stroke-miterlimit="10" d="M 755.040366 529.099499 L 755.040366 529.099499 " transform="matrix(0.0997397, 0, 0, -0.0997397, 0.415137, 145.240989)"/>
<path fill="none" stroke-width="43.396" stroke-linecap="round" stroke-linejoin="round" stroke="rgb(100%, 0%, 0%)" stroke-opacity="1" stroke-miterlimit="10" d="M 755.040366 453.707962 L 755.040366 453.707962 " transform="matrix(0.0997397, 0, 0, -0.0997397, 0.415137, 145.240989)"/>
<path fill="none" stroke-width="43.396" stroke-linecap="round" stroke-linejoin="round" stroke="rgb(100%, 0%, 0%)" stroke-opacity="1" stroke-miterlimit="10" d="M 799.374506 1313.915608 L 799.374506 1313.915608 " transform="matrix(0.0997397, 0, 0, -0.0997397, 0.415137, 145.240989)"/>
<path fill="none" stroke-width="43.396" stroke-linecap="round" stroke-linejoin="round" stroke="rgb(100%, 0%, 0%)" stroke-opacity="1" stroke-miterlimit="10" d="M 799.374506 929.085872 L 799.374506 929.085872 " transform="matrix(0.0997397, 0, 0, -0.0997397, 0.415137, 145.240989)"/>
<path fill="none" stroke-width="43.396" stroke-linecap="round" stroke-linejoin="round" stroke="rgb(100%, 0%, 0%)" stroke-opacity="1" stroke-miterlimit="10" d="M 799.374506 590.196017 L 799.374506 590.196017 " transform="matrix(0.0997397, 0, 0, -0.0997397, 0.415137, 145.240989)"/>
<path fill="none" stroke-width="43.396" stroke-linecap="round" stroke-linejoin="round" stroke="rgb(100%, 0%, 0%)" stroke-opacity="1" stroke-miterlimit="10" d="M 799.374506 376.867341 L 799.374506 376.867341 " transform="matrix(0.0997397, 0, 0, -0.0997397, 0.415137, 145.240989)"/>
<path fill="none" stroke-width="43.396" stroke-linecap="round" stroke-linejoin="round" stroke="rgb(100%, 0%, 0%)" stroke-opacity="1" stroke-miterlimit="10" d="M 843.747811 529.099499 L 843.747811 529.099499 " transform="matrix(0.0997397, 0, 0, -0.0997397, 0.415137, 145.240989)"/>
<path fill="none" stroke-width="43.396" stroke-linecap="round" stroke-linejoin="round" stroke="rgb(100%, 0%, 0%)" stroke-opacity="1" stroke-miterlimit="10" d="M 843.747811 453.707962 L 843.747811 453.707962 " transform="matrix(0.0997397, 0, 0, -0.0997397, 0.415137, 145.240989)"/>
<path fill="none" stroke-width="43.396" stroke-linecap="round" stroke-linejoin="round" stroke="rgb(100%, 0%, 0%)" stroke-opacity="1" stroke-miterlimit="10" d="M 844.061127 803.328871 L 844.061127 803.328871 " transform="matrix(0.0997397, 0, 0, -0.0997397, 0.415137, 145.240989)"/>
<path fill="none" stroke-width="43.396" stroke-linecap="round" stroke-linejoin="round" stroke="rgb(100%, 0%, 0%)" stroke-opacity="1" stroke-miterlimit="10" d="M 844.061127 727.859005 L 844.061127 727.859005 " transform="matrix(0.0997397, 0, 0, -0.0997397, 0.415137, 145.240989)"/>
<path fill="none" stroke-width="43.396" stroke-linecap="round" stroke-linejoin="round" stroke="rgb(100%, 0%, 0%)" stroke-opacity="1" stroke-miterlimit="10" d="M 871.750382 642.793853 L 871.750382 642.793853 " transform="matrix(0.0997397, 0, 0, -0.0997397, 0.415137, 145.240989)"/>
<path fill="none" stroke-width="43.396" stroke-linecap="round" stroke-linejoin="round" stroke="rgb(100%, 0%, 0%)" stroke-opacity="1" stroke-miterlimit="10" d="M 888.434431 864.347061 L 888.434431 864.347061 " transform="matrix(0.0997397, 0, 0, -0.0997397, 0.415137, 145.240989)"/>
<path fill="none" stroke-width="43.396" stroke-linecap="round" stroke-linejoin="round" stroke="rgb(100%, 0%, 0%)" stroke-opacity="1" stroke-miterlimit="10" d="M 891.410928 236.149526 L 891.410928 236.149526 " transform="matrix(0.0997397, 0, 0, -0.0997397, 0.415137, 145.240989)"/>
<path fill="none" stroke-width="43.396" stroke-linecap="round" stroke-linejoin="round" stroke="rgb(100%, 0%, 0%)" stroke-opacity="1" stroke-miterlimit="10" d="M 914.752931 307.859606 L 914.752931 307.859606 " transform="matrix(0.0997397, 0, 0, -0.0997397, 0.415137, 145.240989)"/>
<path fill="none" stroke-width="43.396" stroke-linecap="round" stroke-linejoin="round" stroke="rgb(100%, 0%, 0%)" stroke-opacity="1" stroke-miterlimit="10" d="M 915.8887 751.12268 L 915.8887 751.12268 " transform="matrix(0.0997397, 0, 0, -0.0997397, 0.415137, 145.240989)"/>
<path fill="none" stroke-width="43.396" stroke-linecap="round" stroke-linejoin="round" stroke="rgb(100%, 0%, 0%)" stroke-opacity="1" stroke-miterlimit="10" d="M 916.084522 581.697335 L 916.084522 581.697335 " transform="matrix(0.0997397, 0, 0, -0.0997397, 0.415137, 145.240989)"/>
<path fill="none" stroke-width="43.396" stroke-linecap="round" stroke-linejoin="round" stroke="rgb(100%, 0%, 0%)" stroke-opacity="1" stroke-miterlimit="10" d="M 916.671989 1024.020462 L 916.671989 1024.020462 " transform="matrix(0.0997397, 0, 0, -0.0997397, 0.415137, 145.240989)"/>
<path fill="none" stroke-width="43.396" stroke-linecap="round" stroke-linejoin="round" stroke="rgb(100%, 0%, 0%)" stroke-opacity="1" stroke-miterlimit="10" d="M 943.460462 666.135856 L 943.460462 666.135856 " transform="matrix(0.0997397, 0, 0, -0.0997397, 0.415137, 145.240989)"/>
<path fill="none" stroke-width="43.396" stroke-linecap="round" stroke-linejoin="round" stroke="rgb(100%, 0%, 0%)" stroke-opacity="1" stroke-miterlimit="10" d="M 953.799873 453.707962 L 953.799873 453.707962 " transform="matrix(0.0997397, 0, 0, -0.0997397, 0.415137, 145.240989)"/>
<path fill="none" stroke-width="43.396" stroke-linecap="round" stroke-linejoin="round" stroke="rgb(100%, 0%, 0%)" stroke-opacity="1" stroke-miterlimit="10" d="M 960.183676 812.219198 L 960.183676 812.219198 " transform="matrix(0.0997397, 0, 0, -0.0997397, 0.415137, 145.240989)"/>
<path fill="none" stroke-width="43.396" stroke-linecap="round" stroke-linejoin="round" stroke="rgb(100%, 0%, 0%)" stroke-opacity="1" stroke-miterlimit="10" d="M 969.465647 900.45667 L 969.465647 900.45667 " transform="matrix(0.0997397, 0, 0, -0.0997397, 0.415137, 145.240989)"/>
<path fill="none" stroke-width="43.396" stroke-linecap="round" stroke-linejoin="round" stroke="rgb(100%, 0%, 0%)" stroke-opacity="1" stroke-miterlimit="10" d="M 977.690178 1068.432931 L 977.690178 1068.432931 " transform="matrix(0.0997397, 0, 0, -0.0997397, 0.415137, 145.240989)"/>
<path fill="none" stroke-width="43.396" stroke-linecap="round" stroke-linejoin="round" stroke="rgb(100%, 0%, 0%)" stroke-opacity="1" stroke-miterlimit="10" d="M 987.794602 558.394496 L 987.794602 558.394496 " transform="matrix(0.0997397, 0, 0, -0.0997397, 0.415137, 145.240989)"/>
<path fill="none" stroke-width="43.396" stroke-linecap="round" stroke-linejoin="round" stroke="rgb(100%, 0%, 0%)" stroke-opacity="1" stroke-miterlimit="10" d="M 1015.209707 642.793853 L 1015.209707 642.793853 " transform="matrix(0.0997397, 0, 0, -0.0997397, 0.415137, 145.240989)"/>
<path fill="none" stroke-width="43.396" stroke-linecap="round" stroke-linejoin="round" stroke="rgb(100%, 0%, 0%)" stroke-opacity="1" stroke-miterlimit="10" d="M 1049.204436 747.519552 L 1049.204436 747.519552 " transform="matrix(0.0997397, 0, 0, -0.0997397, 0.415137, 145.240989)"/>
<path fill="none" stroke-width="43.396" stroke-linecap="round" stroke-linejoin="round" stroke="rgb(100%, 0%, 0%)" stroke-opacity="1" stroke-miterlimit="10" d="M 1074.504661 576.840945 L 1074.504661 576.840945 " transform="matrix(0.0997397, 0, 0, -0.0997397, 0.415137, 145.240989)"/>
<path fill="none" stroke-width="43.396" stroke-linecap="round" stroke-linejoin="round" stroke="rgb(100%, 0%, 0%)" stroke-opacity="1" stroke-miterlimit="10" d="M 1103.329685 888.433188 L 1103.329685 888.433188 " transform="matrix(0.0997397, 0, 0, -0.0997397, 0.415137, 145.240989)"/>
<path fill="none" stroke-width="43.396" stroke-linecap="round" stroke-linejoin="round" stroke="rgb(100%, 0%, 0%)" stroke-opacity="1" stroke-miterlimit="10" d="M 1104.426289 445.796746 L 1104.426289 445.796746 " transform="matrix(0.0997397, 0, 0, -0.0997397, 0.415137, 145.240989)"/>
<path fill="none" stroke-width="43.396" stroke-linecap="round" stroke-linejoin="round" stroke="rgb(100%, 0%, 0%)" stroke-opacity="1" stroke-miterlimit="10" d="M 1126.593359 960.143268 L 1126.593359 960.143268 " transform="matrix(0.0997397, 0, 0, -0.0997397, 0.415137, 145.240989)"/>
<path fill="none" stroke-width="43.396" stroke-linecap="round" stroke-linejoin="round" stroke="rgb(100%, 0%, 0%)" stroke-opacity="1" stroke-miterlimit="10" d="M 1175.744725 665.274239 L 1175.744725 665.274239 " transform="matrix(0.0997397, 0, 0, -0.0997397, 0.415137, 145.240989)"/>
<path fill="none" stroke-width="43.396" stroke-linecap="round" stroke-linejoin="round" stroke="rgb(100%, 0%, 0%)" stroke-opacity="1" stroke-miterlimit="10" d="M 1179.896155 445.796746 L 1179.896155 445.796746 " transform="matrix(0.0997397, 0, 0, -0.0997397, 0.415137, 145.240989)"/>
<path fill="none" stroke-width="43.396" stroke-linecap="round" stroke-linejoin="round" stroke="rgb(100%, 0%, 0%)" stroke-opacity="1" stroke-miterlimit="10" d="M 1179.896155 142.350705 L 1179.896155 142.350705 " transform="matrix(0.0997397, 0, 0, -0.0997397, 0.415137, 145.240989)"/>
<path fill="none" stroke-width="43.396" stroke-linecap="round" stroke-linejoin="round" stroke="rgb(100%, 0%, 0%)" stroke-opacity="1" stroke-miterlimit="10" d="M 1236.762915 620.940098 L 1236.762915 620.940098 " transform="matrix(0.0997397, 0, 0, -0.0997397, 0.415137, 145.240989)"/>
<path fill="none" stroke-width="43.396" stroke-linecap="round" stroke-linejoin="round" stroke="rgb(100%, 0%, 0%)" stroke-opacity="1" stroke-miterlimit="10" d="M 1415.000258 866.383611 L 1415.000258 866.383611 " transform="matrix(0.0997397, 0, 0, -0.0997397, 0.415137, 145.240989)"/>
<path fill="none" stroke-width="5" stroke-linecap="round" stroke-linejoin="round" stroke="rgb(0%, 0%, 0%)" stroke-opacity="1" stroke-miterlimit="10" d="M 2616.173474 728.133157 C 2616.173474 852.715224 2515.168396 953.720301 2390.586329 953.720301 C 2266.004262 953.720301 2165.038349 852.715224 2165.038349 728.133157 C 2165.038349 603.551089 2266.004262 502.546012 2390.586329 502.546012 C 2515.168396 502.546012 2616.173474 603.551089 2616.173474 728.133157 C 2616.173474 735.652728 2615.781829 743.172299 2615.037705 750.652707 " transform="matrix(0.0997397, 0, 0, -0.0997397, 0.415137, 145.240989)"/>
<path fill="none" stroke-width="5" stroke-linecap="round" stroke-linejoin="round" stroke="rgb(0%, 0%, 0%)" stroke-opacity="1" stroke-miterlimit="10" d="M 2982.713419 728.133157 C 2982.713419 1055.156187 2717.60936 1320.260247 2390.586329 1320.260247 C 2063.563298 1320.260247 1798.459239 1055.156187 1798.459239 728.133157 C 1798.459239 401.110126 2063.563298 136.006066 2390.586329 136.006066 C 2717.60936 136.006066 2982.713419 401.110126 2982.713419 728.133157 C 2982.713419 747.872032 2981.734308 767.610907 2979.776087 787.232289 " transform="matrix(0.0997397, 0, 0, -0.0997397, 0.415137, 145.240989)"/>
<path fill="none" stroke-width="5" stroke-linecap="round" stroke-linejoin="round" stroke="rgb(0%, 0%, 0%)" stroke-opacity="1" stroke-miterlimit="10" d="M 3051.016194 728.133157 C 3051.016194 1092.871538 2755.324711 1388.563021 2390.586329 1388.563021 C 2025.847948 1388.563021 1730.156465 1092.871538 1730.156465 728.133157 C 1730.156465 363.394775 2025.847948 67.703292 2390.586329 67.703292 C 2755.324711 67.703292 3051.016194 363.394775 3051.016194 728.133157 C 3051.016194 750.143569 3049.91959 772.153981 3047.726381 794.0469 " transform="matrix(0.0997397, 0, 0, -0.0997397, 0.415137, 145.240989)"/>
<path fill="none" stroke-width="5" stroke-linecap="round" stroke-linejoin="round" stroke="rgb(0%, 0%, 0%)" stroke-opacity="1" stroke-miterlimit="10" d="M 2616.173474 1010.117087 C 2616.173474 1134.699154 2515.168396 1235.665067 2390.586329 1235.665067 C 2266.004262 1235.665067 2165.038349 1134.699154 2165.038349 1010.117087 C 2165.038349 885.53502 2266.004262 784.529943 2390.586329 784.529943 C 2515.168396 784.529943 2616.173474 885.53502 2616.173474 1010.117087 C 2616.173474 1017.636659 2615.781829 1025.15623 2615.037705 1032.636637 " transform="matrix(0.0997397, 0, 0, -0.0997397, 0.415137, 145.240989)"/>
<path fill="none" stroke-width="5" stroke-linecap="round" stroke-linejoin="round" stroke="rgb(0%, 0%, 0%)" stroke-opacity="1" stroke-miterlimit="10" d="M 2884.332359 815.274024 C 2884.332359 939.856091 2783.366446 1040.822004 2658.784379 1040.822004 C 2534.163147 1040.822004 2433.197234 939.856091 2433.197234 815.274024 C 2433.197234 690.691957 2534.163147 589.686879 2658.784379 589.686879 C 2783.366446 589.686879 2884.332359 690.691957 2884.332359 815.274024 C 2884.332359 822.793595 2883.979879 830.313167 2883.235755 837.793574 " transform="matrix(0.0997397, 0, 0, -0.0997397, 0.415137, 145.240989)"/>
<path fill="none" stroke-width="5" stroke-linecap="round" stroke-linejoin="round" stroke="rgb(0%, 0%, 0%)" stroke-opacity="1" stroke-miterlimit="10" d="M 2781.917362 500.000324 C 2781.917362 624.582391 2680.912285 725.587468 2556.330217 725.587468 C 2431.74815 725.587468 2330.743073 624.582391 2330.743073 500.000324 C 2330.743073 375.418256 2431.74815 274.413179 2556.330217 274.413179 C 2680.912285 274.413179 2781.917362 375.418256 2781.917362 500.000324 C 2781.917362 507.519895 2781.525718 515.039467 2780.781593 522.519874 " transform="matrix(0.0997397, 0, 0, -0.0997397, 0.415137, 145.240989)"/>
<path fill="none" stroke-width="5" stroke-linecap="round" stroke-linejoin="round" stroke="rgb(0%, 0%, 0%)" stroke-opacity="1" stroke-miterlimit="10" d="M 2450.429586 500.000324 C 2450.429586 624.582391 2349.424508 725.587468 2224.842441 725.587468 C 2100.299538 725.587468 1999.294461 624.582391 1999.294461 500.000324 C 1999.294461 375.418256 2100.299538 274.413179 2224.842441 274.413179 C 2349.424508 274.413179 2450.429586 375.418256 2450.429586 500.000324 C 2450.429586 507.519895 2450.077106 515.039467 2449.293817 522.519874 " transform="matrix(0.0997397, 0, 0, -0.0997397, 0.415137, 145.240989)"/>
<path fill="none" stroke-width="5" stroke-linecap="round" stroke-linejoin="round" stroke="rgb(0%, 0%, 0%)" stroke-opacity="1" stroke-miterlimit="10" d="M 2348.014588 815.274024 C 2348.014588 939.856091 2247.009511 1040.822004 2122.427444 1040.822004 C 1997.845377 1040.822004 1896.840299 939.856091 1896.840299 815.274024 C 1896.840299 690.691957 1997.845377 589.686879 2122.427444 589.686879 C 2247.009511 589.686879 2348.014588 690.691957 2348.014588 815.274024 C 2348.014588 822.793595 2347.622944 830.313167 2346.87882 837.793574 " transform="matrix(0.0997397, 0, 0, -0.0997397, 0.415137, 145.240989)"/>
<path fill="none" stroke-width="5" stroke-linecap="round" stroke-linejoin="round" stroke="rgb(0%, 0%, 0%)" stroke-opacity="1" stroke-miterlimit="10" d="M 2616.173474 1010.117087 C 2616.173474 1134.699154 2515.168396 1235.665067 2390.586329 1235.665067 C 2266.004262 1235.665067 2165.038349 1134.699154 2165.038349 1010.117087 C 2165.038349 885.53502 2266.004262 784.529943 2390.586329 784.529943 C 2515.168396 784.529943 2616.173474 885.53502 2616.173474 1010.117087 C 2616.173474 1017.636659 2615.781829 1025.15623 2615.037705 1032.636637 " transform="matrix(0.0997397, 0, 0, -0.0997397, 0.415137, 145.240989)"/>
<path fill="none" stroke-width="5" stroke-linecap="round" stroke-linejoin="round" stroke="rgb(0%, 0%, 0%)" stroke-opacity="1" stroke-miterlimit="10" d="M 2778.784207 193.812772 C 2723.444861 361.279895 2566.943779 474.347619 2390.586329 474.347619 C 2214.228879 474.347619 2057.766962 361.279895 2002.427616 193.812772 " transform="matrix(0.0997397, 0, 0, -0.0997397, 0.415137, 145.240989)"/>
<path fill="none" stroke-width="5" stroke-linecap="round" stroke-linejoin="round" stroke="rgb(0%, 0%, 0%)" stroke-opacity="1" stroke-miterlimit="10" d="M 2002.388451 193.812772 C 2107.270808 270.849215 2169.268108 393.238074 2169.268108 523.381491 C 2169.268108 748.342005 1987.466801 931.044093 1762.467123 932.219026 " transform="matrix(0.0997397, 0, 0, -0.0997397, 0.415137, 145.240989)"/>
<path fill="none" stroke-width="5" stroke-linecap="round" stroke-linejoin="round" stroke="rgb(0%, 0%, 0%)" stroke-opacity="1" stroke-miterlimit="10" d="M 1762.467123 932.219026 C 1832.02316 882.245208 1915.48257 855.339241 2001.096025 855.339241 C 2226.918156 855.339241 2409.972724 1038.393809 2409.972724 1264.176776 C 2409.972724 1306.396037 2403.432264 1348.341146 2390.586329 1388.563021 " transform="matrix(0.0997397, 0, 0, -0.0997397, 0.415137, 145.240989)"/>
<path fill="none" stroke-width="5" stroke-linecap="round" stroke-linejoin="round" stroke="rgb(0%, 0%, 0%)" stroke-opacity="1" stroke-miterlimit="10" d="M 2390.625494 1388.563021 C 2377.779559 1348.341146 2371.239098 1306.396037 2371.239098 1264.176776 C 2371.239098 1038.393809 2554.293667 855.339241 2780.076634 855.339241 C 2865.690088 855.339241 2949.188663 882.245208 3018.705535 932.219026 " transform="matrix(0.0997397, 0, 0, -0.0997397, 0.415137, 145.240989)"/>
<path fill="none" stroke-width="5" stroke-linecap="round" stroke-linejoin="round" stroke="rgb(0%, 0%, 0%)" stroke-opacity="1" stroke-miterlimit="10" d="M 3018.705535 932.219026 C 2793.745021 931.044093 2611.943715 748.342005 2611.943715 523.381491 C 2611.943715 393.238074 2673.901851 270.849215 2778.784207 193.812772 " transform="matrix(0.0997397, 0, 0, -0.0997397, 0.415137, 145.240989)"/>
<path fill="none" stroke-width="41.6072" stroke-linecap="round" stroke-linejoin="round" stroke="rgb(100%, 0%, 0%)" stroke-opacity="1" stroke-miterlimit="10" d="M 2214.50303 869.085957 L 2214.50303 869.085957 " transform="matrix(0.0997397, 0, 0, -0.0997397, 0.415137, 145.240989)"/>
<path fill="none" stroke-width="41.6072" stroke-linecap="round" stroke-linejoin="round" stroke="rgb(100%, 0%, 0%)" stroke-opacity="1" stroke-miterlimit="10" d="M 2566.669628 869.085957 L 2566.669628 869.085957 " transform="matrix(0.0997397, 0, 0, -0.0997397, 0.415137, 145.240989)"/>
<path fill="none" stroke-width="41.6072" stroke-linecap="round" stroke-linejoin="round" stroke="rgb(100%, 0%, 0%)" stroke-opacity="1" stroke-miterlimit="10" d="M 2470.24679 939.151131 L 2470.24679 939.151131 " transform="matrix(0.0997397, 0, 0, -0.0997397, 0.415137, 145.240989)"/>
<path fill="none" stroke-width="41.6072" stroke-linecap="round" stroke-linejoin="round" stroke="rgb(100%, 0%, 0%)" stroke-opacity="1" stroke-miterlimit="10" d="M 2579.084754 604.216885 L 2579.084754 604.216885 " transform="matrix(0.0997397, 0, 0, -0.0997397, 0.415137, 145.240989)"/>
<path fill="none" stroke-width="41.6072" stroke-linecap="round" stroke-linejoin="round" stroke="rgb(100%, 0%, 0%)" stroke-opacity="1" stroke-miterlimit="10" d="M 2331.017224 510.574721 L 2331.017224 510.574721 " transform="matrix(0.0997397, 0, 0, -0.0997397, 0.415137, 145.240989)"/>
<path fill="none" stroke-width="41.6072" stroke-linecap="round" stroke-linejoin="round" stroke="rgb(100%, 0%, 0%)" stroke-opacity="1" stroke-miterlimit="10" d="M 2615.938487 717.558759 L 2615.938487 717.558759 " transform="matrix(0.0997397, 0, 0, -0.0997397, 0.415137, 145.240989)"/>
<path fill="none" stroke-width="41.6072" stroke-linecap="round" stroke-linejoin="round" stroke="rgb(100%, 0%, 0%)" stroke-opacity="1" stroke-miterlimit="10" d="M 2165.273336 717.558759 L 2165.273336 717.558759 " transform="matrix(0.0997397, 0, 0, -0.0997397, 0.415137, 145.240989)"/>
<path fill="none" stroke-width="41.6072" stroke-linecap="round" stroke-linejoin="round" stroke="rgb(100%, 0%, 0%)" stroke-opacity="1" stroke-miterlimit="10" d="M 2450.194599 510.574721 L 2450.194599 510.574721 " transform="matrix(0.0997397, 0, 0, -0.0997397, 0.415137, 145.240989)"/>
<path fill="none" stroke-width="41.6072" stroke-linecap="round" stroke-linejoin="round" stroke="rgb(100%, 0%, 0%)" stroke-opacity="1" stroke-miterlimit="10" d="M 2202.087904 604.216885 L 2202.087904 604.216885 " transform="matrix(0.0997397, 0, 0, -0.0997397, 0.415137, 145.240989)"/>
<path fill="none" stroke-width="41.6072" stroke-linecap="round" stroke-linejoin="round" stroke="rgb(100%, 0%, 0%)" stroke-opacity="1" stroke-miterlimit="10" d="M 2310.925869 939.151131 L 2310.925869 939.151131 " transform="matrix(0.0997397, 0, 0, -0.0997397, 0.415137, 145.240989)"/>
<path fill="none" stroke-width="41.6072" stroke-linecap="round" stroke-linejoin="round" stroke="rgb(100%, 0%, 0%)" stroke-opacity="1" stroke-miterlimit="10" d="M 2030.116871 258.394925 L 2030.116871 258.394925 " transform="matrix(0.0997397, 0, 0, -0.0997397, 0.415137, 145.240989)"/>
<path fill="none" stroke-width="41.6072" stroke-linecap="round" stroke-linejoin="round" stroke="rgb(100%, 0%, 0%)" stroke-opacity="1" stroke-miterlimit="10" d="M 2751.094952 258.394925 L 2751.094952 258.394925 " transform="matrix(0.0997397, 0, 0, -0.0997397, 0.415137, 145.240989)"/>
<path fill="none" stroke-width="41.6072" stroke-linecap="round" stroke-linejoin="round" stroke="rgb(100%, 0%, 0%)" stroke-opacity="1" stroke-miterlimit="10" d="M 1832.414804 925.835224 L 1832.414804 925.835224 " transform="matrix(0.0997397, 0, 0, -0.0997397, 0.415137, 145.240989)"/>
<path fill="none" stroke-width="41.6072" stroke-linecap="round" stroke-linejoin="round" stroke="rgb(100%, 0%, 0%)" stroke-opacity="1" stroke-miterlimit="10" d="M 2055.221274 240.105134 L 2055.221274 240.105134 " transform="matrix(0.0997397, 0, 0, -0.0997397, 0.415137, 145.240989)"/>
<path fill="none" stroke-width="41.6072" stroke-linecap="round" stroke-linejoin="round" stroke="rgb(100%, 0%, 0%)" stroke-opacity="1" stroke-miterlimit="10" d="M 1822.858682 896.266075 L 1822.858682 896.266075 " transform="matrix(0.0997397, 0, 0, -0.0997397, 0.415137, 145.240989)"/>
<path fill="none" stroke-width="41.6072" stroke-linecap="round" stroke-linejoin="round" stroke="rgb(100%, 0%, 0%)" stroke-opacity="1" stroke-miterlimit="10" d="M 2406.13461 1320.064425 L 2406.13461 1320.064425 " transform="matrix(0.0997397, 0, 0, -0.0997397, 0.415137, 145.240989)"/>
<path fill="none" stroke-width="41.6072" stroke-linecap="round" stroke-linejoin="round" stroke="rgb(100%, 0%, 0%)" stroke-opacity="1" stroke-miterlimit="10" d="M 2375.038049 1320.064425 L 2375.038049 1320.064425 " transform="matrix(0.0997397, 0, 0, -0.0997397, 0.415137, 145.240989)"/>
<path fill="none" stroke-width="41.6072" stroke-linecap="round" stroke-linejoin="round" stroke="rgb(100%, 0%, 0%)" stroke-opacity="1" stroke-miterlimit="10" d="M 2958.353141 896.266075 L 2958.353141 896.266075 " transform="matrix(0.0997397, 0, 0, -0.0997397, 0.415137, 145.240989)"/>
<path fill="none" stroke-width="41.6072" stroke-linecap="round" stroke-linejoin="round" stroke="rgb(100%, 0%, 0%)" stroke-opacity="1" stroke-miterlimit="10" d="M 2725.951385 240.105134 L 2725.951385 240.105134 " transform="matrix(0.0997397, 0, 0, -0.0997397, 0.415137, 145.240989)"/>
<path fill="none" stroke-width="41.6072" stroke-linecap="round" stroke-linejoin="round" stroke="rgb(100%, 0%, 0%)" stroke-opacity="1" stroke-miterlimit="10" d="M 2948.757854 925.835224 L 2948.757854 925.835224 " transform="matrix(0.0997397, 0, 0, -0.0997397, 0.415137, 145.240989)"/>
<path fill="none" stroke-width="41.6072" stroke-linecap="round" stroke-linejoin="round" stroke="rgb(100%, 0%, 0%)" stroke-opacity="1" stroke-miterlimit="10" d="M 2002.388451 193.812772 L 2002.388451 193.812772 " transform="matrix(0.0997397, 0, 0, -0.0997397, 0.415137, 145.240989)"/>
<path fill="none" stroke-width="41.6072" stroke-linecap="round" stroke-linejoin="round" stroke="rgb(100%, 0%, 0%)" stroke-opacity="1" stroke-miterlimit="10" d="M 2778.784207 193.812772 L 2778.784207 193.812772 " transform="matrix(0.0997397, 0, 0, -0.0997397, 0.415137, 145.240989)"/>
<path fill="none" stroke-width="41.6072" stroke-linecap="round" stroke-linejoin="round" stroke="rgb(100%, 0%, 0%)" stroke-opacity="1" stroke-miterlimit="10" d="M 1762.506288 932.219026 L 1762.506288 932.219026 " transform="matrix(0.0997397, 0, 0, -0.0997397, 0.415137, 145.240989)"/>
<path fill="none" stroke-width="41.6072" stroke-linecap="round" stroke-linejoin="round" stroke="rgb(100%, 0%, 0%)" stroke-opacity="1" stroke-miterlimit="10" d="M 2002.388451 193.812772 L 2002.388451 193.812772 " transform="matrix(0.0997397, 0, 0, -0.0997397, 0.415137, 145.240989)"/>
<path fill="none" stroke-width="41.6072" stroke-linecap="round" stroke-linejoin="round" stroke="rgb(100%, 0%, 0%)" stroke-opacity="1" stroke-miterlimit="10" d="M 1762.506288 932.219026 L 1762.506288 932.219026 " transform="matrix(0.0997397, 0, 0, -0.0997397, 0.415137, 145.240989)"/>
<path fill="none" stroke-width="41.6072" stroke-linecap="round" stroke-linejoin="round" stroke="rgb(100%, 0%, 0%)" stroke-opacity="1" stroke-miterlimit="10" d="M 2390.586329 1388.563021 L 2390.586329 1388.563021 " transform="matrix(0.0997397, 0, 0, -0.0997397, 0.415137, 145.240989)"/>
<path fill="none" stroke-width="41.6072" stroke-linecap="round" stroke-linejoin="round" stroke="rgb(100%, 0%, 0%)" stroke-opacity="1" stroke-miterlimit="10" d="M 2390.586329 1388.563021 L 2390.586329 1388.563021 " transform="matrix(0.0997397, 0, 0, -0.0997397, 0.415137, 145.240989)"/>
<path fill="none" stroke-width="41.6072" stroke-linecap="round" stroke-linejoin="round" stroke="rgb(100%, 0%, 0%)" stroke-opacity="1" stroke-miterlimit="10" d="M 3018.705535 932.219026 L 3018.705535 932.219026 " transform="matrix(0.0997397, 0, 0, -0.0997397, 0.415137, 145.240989)"/>
<path fill="none" stroke-width="41.6072" stroke-linecap="round" stroke-linejoin="round" stroke="rgb(100%, 0%, 0%)" stroke-opacity="1" stroke-miterlimit="10" d="M 2778.784207 193.812772 L 2778.784207 193.812772 " transform="matrix(0.0997397, 0, 0, -0.0997397, 0.415137, 145.240989)"/>
<path fill="none" stroke-width="41.6072" stroke-linecap="round" stroke-linejoin="round" stroke="rgb(100%, 0%, 0%)" stroke-opacity="1" stroke-miterlimit="10" d="M 3018.705535 932.219026 L 3018.705535 932.219026 " transform="matrix(0.0997397, 0, 0, -0.0997397, 0.415137, 145.240989)"/>
<path fill="none" stroke-width="41.6072" stroke-linecap="round" stroke-linejoin="round" stroke="rgb(100%, 0%, 0%)" stroke-opacity="1" stroke-miterlimit="10" d="M 2002.388451 193.812772 L 2002.388451 193.812772 " transform="matrix(0.0997397, 0, 0, -0.0997397, 0.415137, 145.240989)"/>
<path fill="none" stroke-width="41.6072" stroke-linecap="round" stroke-linejoin="round" stroke="rgb(100%, 0%, 0%)" stroke-opacity="1" stroke-miterlimit="10" d="M 2148.589286 395.039638 L 2148.589286 395.039638 " transform="matrix(0.0997397, 0, 0, -0.0997397, 0.415137, 145.240989)"/>
<path fill="none" stroke-width="41.6072" stroke-linecap="round" stroke-linejoin="round" stroke="rgb(100%, 0%, 0%)" stroke-opacity="1" stroke-miterlimit="10" d="M 2632.583372 395.039638 L 2632.583372 395.039638 " transform="matrix(0.0997397, 0, 0, -0.0997397, 0.415137, 145.240989)"/>
<path fill="none" stroke-width="41.6072" stroke-linecap="round" stroke-linejoin="round" stroke="rgb(100%, 0%, 0%)" stroke-opacity="1" stroke-miterlimit="10" d="M 2778.784207 193.812772 L 2778.784207 193.812772 " transform="matrix(0.0997397, 0, 0, -0.0997397, 0.415137, 145.240989)"/>
<path fill="none" stroke-width="41.6072" stroke-linecap="round" stroke-linejoin="round" stroke="rgb(100%, 0%, 0%)" stroke-opacity="1" stroke-miterlimit="10" d="M 2332.740459 470.235353 L 2332.740459 470.235353 " transform="matrix(0.0997397, 0, 0, -0.0997397, 0.415137, 145.240989)"/>
<path fill="none" stroke-width="41.6072" stroke-linecap="round" stroke-linejoin="round" stroke="rgb(100%, 0%, 0%)" stroke-opacity="1" stroke-miterlimit="10" d="M 2703.314341 328.890908 L 2703.314341 328.890908 " transform="matrix(0.0997397, 0, 0, -0.0997397, 0.415137, 145.240989)"/>
<path fill="none" stroke-width="41.6072" stroke-linecap="round" stroke-linejoin="round" stroke="rgb(100%, 0%, 0%)" stroke-opacity="1" stroke-miterlimit="10" d="M 2077.897481 328.890908 L 2077.897481 328.890908 " transform="matrix(0.0997397, 0, 0, -0.0997397, 0.415137, 145.240989)"/>
<path fill="none" stroke-width="41.6072" stroke-linecap="round" stroke-linejoin="round" stroke="rgb(100%, 0%, 0%)" stroke-opacity="1" stroke-miterlimit="10" d="M 2448.471364 470.235353 L 2448.471364 470.235353 " transform="matrix(0.0997397, 0, 0, -0.0997397, 0.415137, 145.240989)"/>
<path fill="none" stroke-width="41.6072" stroke-linecap="round" stroke-linejoin="round" stroke="rgb(100%, 0%, 0%)" stroke-opacity="1" stroke-miterlimit="10" d="M 1762.467123 932.219026 L 1762.467123 932.219026 " transform="matrix(0.0997397, 0, 0, -0.0997397, 0.415137, 145.240989)"/>
<path fill="none" stroke-width="41.6072" stroke-linecap="round" stroke-linejoin="round" stroke="rgb(100%, 0%, 0%)" stroke-opacity="1" stroke-miterlimit="10" d="M 1999.059474 855.339241 L 1999.059474 855.339241 " transform="matrix(0.0997397, 0, 0, -0.0997397, 0.415137, 145.240989)"/>
<path fill="none" stroke-width="41.6072" stroke-linecap="round" stroke-linejoin="round" stroke="rgb(100%, 0%, 0%)" stroke-opacity="1" stroke-miterlimit="10" d="M 2107.544959 307.350469 L 2107.544959 307.350469 " transform="matrix(0.0997397, 0, 0, -0.0997397, 0.415137, 145.240989)"/>
<path fill="none" stroke-width="41.6072" stroke-linecap="round" stroke-linejoin="round" stroke="rgb(100%, 0%, 0%)" stroke-opacity="1" stroke-miterlimit="10" d="M 2127.440492 703.459563 L 2127.440492 703.459563 " transform="matrix(0.0997397, 0, 0, -0.0997397, 0.415137, 145.240989)"/>
<path fill="none" stroke-width="41.6072" stroke-linecap="round" stroke-linejoin="round" stroke="rgb(100%, 0%, 0%)" stroke-opacity="1" stroke-miterlimit="10" d="M 1914.268473 902.14074 L 1914.268473 902.14074 " transform="matrix(0.0997397, 0, 0, -0.0997397, 0.415137, 145.240989)"/>
<path fill="none" stroke-width="41.6072" stroke-linecap="round" stroke-linejoin="round" stroke="rgb(100%, 0%, 0%)" stroke-opacity="1" stroke-miterlimit="10" d="M 2163.197621 593.407501 L 2163.197621 593.407501 " transform="matrix(0.0997397, 0, 0, -0.0997397, 0.415137, 145.240989)"/>
<path fill="none" stroke-width="41.6072" stroke-linecap="round" stroke-linejoin="round" stroke="rgb(100%, 0%, 0%)" stroke-opacity="1" stroke-miterlimit="10" d="M 2390.586329 1388.563021 L 2390.586329 1388.563021 " transform="matrix(0.0997397, 0, 0, -0.0997397, 0.415137, 145.240989)"/>
<path fill="none" stroke-width="41.6072" stroke-linecap="round" stroke-linejoin="round" stroke="rgb(100%, 0%, 0%)" stroke-opacity="1" stroke-miterlimit="10" d="M 2390.586329 1139.829695 L 2390.586329 1139.829695 " transform="matrix(0.0997397, 0, 0, -0.0997397, 0.415137, 145.240989)"/>
<path fill="none" stroke-width="41.6072" stroke-linecap="round" stroke-linejoin="round" stroke="rgb(100%, 0%, 0%)" stroke-opacity="1" stroke-miterlimit="10" d="M 2192.218467 902.767371 L 2192.218467 902.767371 " transform="matrix(0.0997397, 0, 0, -0.0997397, 0.415137, 145.240989)"/>
<path fill="none" stroke-width="41.6072" stroke-linecap="round" stroke-linejoin="round" stroke="rgb(100%, 0%, 0%)" stroke-opacity="1" stroke-miterlimit="10" d="M 2408.915285 1234.920943 L 2408.915285 1234.920943 " transform="matrix(0.0997397, 0, 0, -0.0997397, 0.415137, 145.240989)"/>
<path fill="none" stroke-width="41.6072" stroke-linecap="round" stroke-linejoin="round" stroke="rgb(100%, 0%, 0%)" stroke-opacity="1" stroke-miterlimit="10" d="M 1902.949951 867.284393 L 1902.949951 867.284393 " transform="matrix(0.0997397, 0, 0, -0.0997397, 0.415137, 145.240989)"/>
<path fill="none" stroke-width="41.6072" stroke-linecap="round" stroke-linejoin="round" stroke="rgb(100%, 0%, 0%)" stroke-opacity="1" stroke-miterlimit="10" d="M 2285.821466 970.75683 L 2285.821466 970.75683 " transform="matrix(0.0997397, 0, 0, -0.0997397, 0.415137, 145.240989)"/>
<path fill="none" stroke-width="41.6072" stroke-linecap="round" stroke-linejoin="round" stroke="rgb(100%, 0%, 0%)" stroke-opacity="1" stroke-miterlimit="10" d="M 2782.152349 855.339241 L 2782.152349 855.339241 " transform="matrix(0.0997397, 0, 0, -0.0997397, 0.415137, 145.240989)"/>
<path fill="none" stroke-width="41.6072" stroke-linecap="round" stroke-linejoin="round" stroke="rgb(100%, 0%, 0%)" stroke-opacity="1" stroke-miterlimit="10" d="M 3018.705535 932.219026 L 3018.705535 932.219026 " transform="matrix(0.0997397, 0, 0, -0.0997397, 0.415137, 145.240989)"/>
<path fill="none" stroke-width="41.6072" stroke-linecap="round" stroke-linejoin="round" stroke="rgb(100%, 0%, 0%)" stroke-opacity="1" stroke-miterlimit="10" d="M 2372.257374 1234.920943 L 2372.257374 1234.920943 " transform="matrix(0.0997397, 0, 0, -0.0997397, 0.415137, 145.240989)"/>
<path fill="none" stroke-width="41.6072" stroke-linecap="round" stroke-linejoin="round" stroke="rgb(100%, 0%, 0%)" stroke-opacity="1" stroke-miterlimit="10" d="M 2588.993356 902.767371 L 2588.993356 902.767371 " transform="matrix(0.0997397, 0, 0, -0.0997397, 0.415137, 145.240989)"/>
<path fill="none" stroke-width="41.6072" stroke-linecap="round" stroke-linejoin="round" stroke="rgb(100%, 0%, 0%)" stroke-opacity="1" stroke-miterlimit="10" d="M 2495.351192 970.75683 L 2495.351192 970.75683 " transform="matrix(0.0997397, 0, 0, -0.0997397, 0.415137, 145.240989)"/>
<path fill="none" stroke-width="41.6072" stroke-linecap="round" stroke-linejoin="round" stroke="rgb(100%, 0%, 0%)" stroke-opacity="1" stroke-miterlimit="10" d="M 2878.261872 867.284393 L 2878.261872 867.284393 " transform="matrix(0.0997397, 0, 0, -0.0997397, 0.415137, 145.240989)"/>
<path fill="none" stroke-width="41.6072" stroke-linecap="round" stroke-linejoin="round" stroke="rgb(100%, 0%, 0%)" stroke-opacity="1" stroke-miterlimit="10" d="M 2617.975038 593.407501 L 2617.975038 593.407501 " transform="matrix(0.0997397, 0, 0, -0.0997397, 0.415137, 145.240989)"/>
<path fill="none" stroke-width="41.6072" stroke-linecap="round" stroke-linejoin="round" stroke="rgb(100%, 0%, 0%)" stroke-opacity="1" stroke-miterlimit="10" d="M 2866.94335 902.14074 L 2866.94335 902.14074 " transform="matrix(0.0997397, 0, 0, -0.0997397, 0.415137, 145.240989)"/>
<path fill="none" stroke-width="41.6072" stroke-linecap="round" stroke-linejoin="round" stroke="rgb(100%, 0%, 0%)" stroke-opacity="1" stroke-miterlimit="10" d="M 2653.732167 703.459563 L 2653.732167 703.459563 " transform="matrix(0.0997397, 0, 0, -0.0997397, 0.415137, 145.240989)"/>
<path fill="none" stroke-width="41.6072" stroke-linecap="round" stroke-linejoin="round" stroke="rgb(100%, 0%, 0%)" stroke-opacity="1" stroke-miterlimit="10" d="M 2673.666864 307.350469 L 2673.666864 307.350469 " transform="matrix(0.0997397, 0, 0, -0.0997397, 0.415137, 145.240989)"/>
<path fill="none" stroke-width="41.6072" stroke-linecap="round" stroke-linejoin="round" stroke="rgb(100%, 0%, 0%)" stroke-opacity="1" stroke-miterlimit="10" d="M 2434.724647 788.877195 L 2434.724647 788.877195 " transform="matrix(0.0997397, 0, 0, -0.0997397, 0.415137, 145.240989)"/>
<path fill="none" stroke-width="41.6072" stroke-linecap="round" stroke-linejoin="round" stroke="rgb(100%, 0%, 0%)" stroke-opacity="1" stroke-miterlimit="10" d="M 2614.606896 1036.474752 L 2614.606896 1036.474752 " transform="matrix(0.0997397, 0, 0, -0.0997397, 0.415137, 145.240989)"/>
<path fill="none" stroke-width="41.6072" stroke-linecap="round" stroke-linejoin="round" stroke="rgb(100%, 0%, 0%)" stroke-opacity="1" stroke-miterlimit="10" d="M 2166.565762 1036.474752 L 2166.565762 1036.474752 " transform="matrix(0.0997397, 0, 0, -0.0997397, 0.415137, 145.240989)"/>
<path fill="none" stroke-width="41.6072" stroke-linecap="round" stroke-linejoin="round" stroke="rgb(100%, 0%, 0%)" stroke-opacity="1" stroke-miterlimit="10" d="M 2346.448011 788.877195 L 2346.448011 788.877195 " transform="matrix(0.0997397, 0, 0, -0.0997397, 0.415137, 145.240989)"/>
<path fill="none" stroke-width="41.6072" stroke-linecap="round" stroke-linejoin="round" stroke="rgb(100%, 0%, 0%)" stroke-opacity="1" stroke-miterlimit="10" d="M 2462.022258 704.908647 L 2462.022258 704.908647 " transform="matrix(0.0997397, 0, 0, -0.0997397, 0.415137, 145.240989)"/>
<path fill="none" stroke-width="41.6072" stroke-linecap="round" stroke-linejoin="round" stroke="rgb(100%, 0%, 0%)" stroke-opacity="1" stroke-miterlimit="10" d="M 2753.092338 610.365701 L 2753.092338 610.365701 " transform="matrix(0.0997397, 0, 0, -0.0997397, 0.415137, 145.240989)"/>
<path fill="none" stroke-width="41.6072" stroke-linecap="round" stroke-linejoin="round" stroke="rgb(100%, 0%, 0%)" stroke-opacity="1" stroke-miterlimit="10" d="M 2390.586329 346.984877 L 2390.586329 346.984877 " transform="matrix(0.0997397, 0, 0, -0.0997397, 0.415137, 145.240989)"/>
<path fill="none" stroke-width="41.6072" stroke-linecap="round" stroke-linejoin="round" stroke="rgb(100%, 0%, 0%)" stroke-opacity="1" stroke-miterlimit="10" d="M 2390.586329 653.01577 L 2390.586329 653.01577 " transform="matrix(0.0997397, 0, 0, -0.0997397, 0.415137, 145.240989)"/>
<path fill="none" stroke-width="41.6072" stroke-linecap="round" stroke-linejoin="round" stroke="rgb(100%, 0%, 0%)" stroke-opacity="1" stroke-miterlimit="10" d="M 2028.119485 610.365701 L 2028.119485 610.365701 " transform="matrix(0.0997397, 0, 0, -0.0997397, 0.415137, 145.240989)"/>
<path fill="none" stroke-width="41.6072" stroke-linecap="round" stroke-linejoin="round" stroke="rgb(100%, 0%, 0%)" stroke-opacity="1" stroke-miterlimit="10" d="M 2319.189564 704.908647 L 2319.189564 704.908647 " transform="matrix(0.0997397, 0, 0, -0.0997397, 0.415137, 145.240989)"/>
</svg>
