<?xml version="1.0" encoding="UTF-8"?>
<svg xmlns="http://www.w3.org/2000/svg" xmlns:xlink="http://www.w3.org/1999/xlink" width="159.19" height="159.19" viewBox="0 0 159.19 159.19">
<path fill="none" stroke-width="7.95937" stroke-linecap="round" stroke-linejoin="round" stroke="rgb(0%, 0%, 0%)" stroke-opacity="1" stroke-miterlimit="10" d="M 717.656574 717.630259 L 717.656574 874.204165 " transform="matrix(0.0994938, 0, 0, -0.0994938, -0.000000000000003553, 158.384101)"/>
<path fill="none" stroke-width="7.95937" stroke-linecap="round" stroke-linejoin="round" stroke="rgb(0%, 0%, 0%)" stroke-opacity="1" stroke-miterlimit="10" d="M 717.656574 717.630259 L 689.977386 540.090841 " transform="matrix(0.0994938, 0, 0, -0.0994938, -0.000000000000003553, 158.384101)"/>
<path fill="none" stroke-width="7.95937" stroke-linecap="round" stroke-linejoin="round" stroke="rgb(0%, 0%, 0%)" stroke-opacity="1" stroke-miterlimit="10" d="M 717.656574 717.630259 L 874.230479 717.630259 " transform="matrix(0.0994938, 0, 0, -0.0994938, -0.000000000000003553, 158.384101)"/>
<path fill="none" stroke-width="7.95937" stroke-linecap="round" stroke-linejoin="round" stroke="rgb(0%, 0%, 0%)" stroke-opacity="1" stroke-miterlimit="10" d="M 717.656574 717.630259 L 540.117156 689.951071 " transform="matrix(0.0994938, 0, 0, -0.0994938, -0.000000000000003553, 158.384101)"/>
<path fill="none" stroke-width="7.95937" stroke-linecap="round" stroke-linejoin="round" stroke="rgb(0%, 0%, 0%)" stroke-opacity="1" stroke-miterlimit="10" d="M 72.358502 72.332188 L 72.358502 1519.502236 " transform="matrix(0.0994938, 0, 0, -0.0994938, -0.000000000000003553, 158.384101)"/>
<path fill="none" stroke-width="7.95937" stroke-linecap="round" stroke-linejoin="round" stroke="rgb(0%, 0%, 0%)" stroke-opacity="1" stroke-miterlimit="10" d="M 72.358502 72.332188 L 584.011244 284.303731 " transform="matrix(0.0994938, 0, 0, -0.0994938, -0.000000000000003553, 158.384101)"/>
<path fill="none" stroke-width="7.95937" stroke-linecap="round" stroke-linejoin="round" stroke="rgb(0%, 0%, 0%)" stroke-opacity="1" stroke-miterlimit="10" d="M 72.358502 72.332188 L 1519.528551 72.332188 " transform="matrix(0.0994938, 0, 0, -0.0994938, -0.000000000000003553, 158.384101)"/>
<path fill="none" stroke-width="7.95937" stroke-linecap="round" stroke-linejoin="round" stroke="rgb(0%, 0%, 0%)" stroke-opacity="1" stroke-miterlimit="10" d="M 72.358502 72.332188 L 284.290785 584.024191 " transform="matrix(0.0994938, 0, 0, -0.0994938, -0.000000000000003553, 158.384101)"/>
<path fill="none" stroke-width="7.95937" stroke-linecap="round" stroke-linejoin="round" stroke="rgb(0%, 0%, 0%)" stroke-opacity="1" stroke-miterlimit="10" d="M 717.656574 874.204165 L 689.977386 1051.743583 " transform="matrix(0.0994938, 0, 0, -0.0994938, -0.000000000000003553, 158.384101)"/>
<path fill="none" stroke-width="7.95937" stroke-linecap="round" stroke-linejoin="round" stroke="rgb(0%, 0%, 0%)" stroke-opacity="1" stroke-miterlimit="10" d="M 717.656574 874.204165 L 874.230479 874.204165 " transform="matrix(0.0994938, 0, 0, -0.0994938, -0.000000000000003553, 158.384101)"/>
<path fill="none" stroke-width="7.95937" stroke-linecap="round" stroke-linejoin="round" stroke="rgb(0%, 0%, 0%)" stroke-opacity="1" stroke-miterlimit="10" d="M 717.656574 874.204165 L 540.117156 901.883353 " transform="matrix(0.0994938, 0, 0, -0.0994938, -0.000000000000003553, 158.384101)"/>
<path fill="none" stroke-width="7.95937" stroke-linecap="round" stroke-linejoin="round" stroke="rgb(0%, 0%, 0%)" stroke-opacity="1" stroke-miterlimit="10" d="M 72.358502 1519.502236 L 584.011244 1307.569954 " transform="matrix(0.0994938, 0, 0, -0.0994938, -0.000000000000003553, 158.384101)"/>
<path fill="none" stroke-width="7.95937" stroke-linecap="round" stroke-linejoin="round" stroke="rgb(0%, 0%, 0%)" stroke-opacity="1" stroke-miterlimit="10" d="M 72.358502 1519.502236 L 1519.528551 1519.502236 " transform="matrix(0.0994938, 0, 0, -0.0994938, -0.000000000000003553, 158.384101)"/>
<path fill="none" stroke-width="7.95937" stroke-linecap="round" stroke-linejoin="round" stroke="rgb(0%, 0%, 0%)" stroke-opacity="1" stroke-miterlimit="10" d="M 72.358502 1519.502236 L 284.290785 1007.849494 " transform="matrix(0.0994938, 0, 0, -0.0994938, -0.000000000000003553, 158.384101)"/>
<path fill="none" stroke-width="7.95937" stroke-linecap="round" stroke-linejoin="round" stroke="rgb(0%, 0%, 0%)" stroke-opacity="1" stroke-miterlimit="10" d="M 689.977386 540.090841 L 584.011244 284.303731 " transform="matrix(0.0994938, 0, 0, -0.0994938, -0.000000000000003553, 158.384101)"/>
<path fill="none" stroke-width="7.95937" stroke-linecap="round" stroke-linejoin="round" stroke="rgb(0%, 0%, 0%)" stroke-opacity="1" stroke-miterlimit="10" d="M 689.977386 540.090841 L 901.909668 540.090841 " transform="matrix(0.0994938, 0, 0, -0.0994938, -0.000000000000003553, 158.384101)"/>
<path fill="none" stroke-width="7.95937" stroke-linecap="round" stroke-linejoin="round" stroke="rgb(0%, 0%, 0%)" stroke-opacity="1" stroke-miterlimit="10" d="M 689.977386 540.090841 L 540.117156 689.951071 " transform="matrix(0.0994938, 0, 0, -0.0994938, -0.000000000000003553, 158.384101)"/>
<path fill="none" stroke-width="7.95937" stroke-linecap="round" stroke-linejoin="round" stroke="rgb(0%, 0%, 0%)" stroke-opacity="1" stroke-miterlimit="10" d="M 584.011244 284.303731 L 1007.875809 284.303731 " transform="matrix(0.0994938, 0, 0, -0.0994938, -0.000000000000003553, 158.384101)"/>
<path fill="none" stroke-width="7.95937" stroke-linecap="round" stroke-linejoin="round" stroke="rgb(0%, 0%, 0%)" stroke-opacity="1" stroke-miterlimit="10" d="M 584.011244 284.303731 L 284.290785 584.024191 " transform="matrix(0.0994938, 0, 0, -0.0994938, -0.000000000000003553, 158.384101)"/>
<path fill="none" stroke-width="7.95937" stroke-linecap="round" stroke-linejoin="round" stroke="rgb(0%, 0%, 0%)" stroke-opacity="1" stroke-miterlimit="10" d="M 689.977386 1051.743583 L 584.011244 1307.569954 " transform="matrix(0.0994938, 0, 0, -0.0994938, -0.000000000000003553, 158.384101)"/>
<path fill="none" stroke-width="7.95937" stroke-linecap="round" stroke-linejoin="round" stroke="rgb(0%, 0%, 0%)" stroke-opacity="1" stroke-miterlimit="10" d="M 689.977386 1051.743583 L 901.909668 1051.743583 " transform="matrix(0.0994938, 0, 0, -0.0994938, -0.000000000000003553, 158.384101)"/>
<path fill="none" stroke-width="7.95937" stroke-linecap="round" stroke-linejoin="round" stroke="rgb(0%, 0%, 0%)" stroke-opacity="1" stroke-miterlimit="10" d="M 689.977386 1051.743583 L 540.117156 901.883353 " transform="matrix(0.0994938, 0, 0, -0.0994938, -0.000000000000003553, 158.384101)"/>
<path fill="none" stroke-width="7.95937" stroke-linecap="round" stroke-linejoin="round" stroke="rgb(0%, 0%, 0%)" stroke-opacity="1" stroke-miterlimit="10" d="M 584.011244 1307.569954 L 1007.875809 1307.569954 " transform="matrix(0.0994938, 0, 0, -0.0994938, -0.000000000000003553, 158.384101)"/>
<path fill="none" stroke-width="7.95937" stroke-linecap="round" stroke-linejoin="round" stroke="rgb(0%, 0%, 0%)" stroke-opacity="1" stroke-miterlimit="10" d="M 584.011244 1307.569954 L 284.290785 1007.849494 " transform="matrix(0.0994938, 0, 0, -0.0994938, -0.000000000000003553, 158.384101)"/>
<path fill="none" stroke-width="7.95937" stroke-linecap="round" stroke-linejoin="round" stroke="rgb(0%, 0%, 0%)" stroke-opacity="1" stroke-miterlimit="10" d="M 874.230479 717.630259 L 874.230479 874.204165 " transform="matrix(0.0994938, 0, 0, -0.0994938, -0.000000000000003553, 158.384101)"/>
<path fill="none" stroke-width="7.95937" stroke-linecap="round" stroke-linejoin="round" stroke="rgb(0%, 0%, 0%)" stroke-opacity="1" stroke-miterlimit="10" d="M 874.230479 717.630259 L 901.909668 540.090841 " transform="matrix(0.0994938, 0, 0, -0.0994938, -0.000000000000003553, 158.384101)"/>
<path fill="none" stroke-width="7.95937" stroke-linecap="round" stroke-linejoin="round" stroke="rgb(0%, 0%, 0%)" stroke-opacity="1" stroke-miterlimit="10" d="M 874.230479 717.630259 L 1051.769898 689.951071 " transform="matrix(0.0994938, 0, 0, -0.0994938, -0.000000000000003553, 158.384101)"/>
<path fill="none" stroke-width="7.95937" stroke-linecap="round" stroke-linejoin="round" stroke="rgb(0%, 0%, 0%)" stroke-opacity="1" stroke-miterlimit="10" d="M 1519.528551 72.332188 L 1519.528551 1519.502236 " transform="matrix(0.0994938, 0, 0, -0.0994938, -0.000000000000003553, 158.384101)"/>
<path fill="none" stroke-width="7.95937" stroke-linecap="round" stroke-linejoin="round" stroke="rgb(0%, 0%, 0%)" stroke-opacity="1" stroke-miterlimit="10" d="M 1519.528551 72.332188 L 1007.875809 284.303731 " transform="matrix(0.0994938, 0, 0, -0.0994938, -0.000000000000003553, 158.384101)"/>
<path fill="none" stroke-width="7.95937" stroke-linecap="round" stroke-linejoin="round" stroke="rgb(0%, 0%, 0%)" stroke-opacity="1" stroke-miterlimit="10" d="M 1519.528551 72.332188 L 1307.596269 584.024191 " transform="matrix(0.0994938, 0, 0, -0.0994938, -0.000000000000003553, 158.384101)"/>
<path fill="none" stroke-width="7.95937" stroke-linecap="round" stroke-linejoin="round" stroke="rgb(0%, 0%, 0%)" stroke-opacity="1" stroke-miterlimit="10" d="M 874.230479 874.204165 L 901.909668 1051.743583 " transform="matrix(0.0994938, 0, 0, -0.0994938, -0.000000000000003553, 158.384101)"/>
<path fill="none" stroke-width="7.95937" stroke-linecap="round" stroke-linejoin="round" stroke="rgb(0%, 0%, 0%)" stroke-opacity="1" stroke-miterlimit="10" d="M 874.230479 874.204165 L 1051.769898 901.883353 " transform="matrix(0.0994938, 0, 0, -0.0994938, -0.000000000000003553, 158.384101)"/>
<path fill="none" stroke-width="7.95937" stroke-linecap="round" stroke-linejoin="round" stroke="rgb(0%, 0%, 0%)" stroke-opacity="1" stroke-miterlimit="10" d="M 1519.528551 1519.502236 L 1007.875809 1307.569954 " transform="matrix(0.0994938, 0, 0, -0.0994938, -0.000000000000003553, 158.384101)"/>
<path fill="none" stroke-width="7.95937" stroke-linecap="round" stroke-linejoin="round" stroke="rgb(0%, 0%, 0%)" stroke-opacity="1" stroke-miterlimit="10" d="M 1519.528551 1519.502236 L 1307.596269 1007.849494 " transform="matrix(0.0994938, 0, 0, -0.0994938, -0.000000000000003553, 158.384101)"/>
<path fill="none" stroke-width="7.95937" stroke-linecap="round" stroke-linejoin="round" stroke="rgb(0%, 0%, 0%)" stroke-opacity="1" stroke-miterlimit="10" d="M 901.909668 540.090841 L 1007.875809 284.303731 " transform="matrix(0.0994938, 0, 0, -0.0994938, -0.000000000000003553, 158.384101)"/>
<path fill="none" stroke-width="7.95937" stroke-linecap="round" stroke-linejoin="round" stroke="rgb(0%, 0%, 0%)" stroke-opacity="1" stroke-miterlimit="10" d="M 901.909668 540.090841 L 1051.769898 689.951071 " transform="matrix(0.0994938, 0, 0, -0.0994938, -0.000000000000003553, 158.384101)"/>
<path fill="none" stroke-width="7.95937" stroke-linecap="round" stroke-linejoin="round" stroke="rgb(0%, 0%, 0%)" stroke-opacity="1" stroke-miterlimit="10" d="M 1007.875809 284.303731 L 1307.596269 584.024191 " transform="matrix(0.0994938, 0, 0, -0.0994938, -0.000000000000003553, 158.384101)"/>
<path fill="none" stroke-width="7.95937" stroke-linecap="round" stroke-linejoin="round" stroke="rgb(0%, 0%, 0%)" stroke-opacity="1" stroke-miterlimit="10" d="M 901.909668 1051.743583 L 1007.875809 1307.569954 " transform="matrix(0.0994938, 0, 0, -0.0994938, -0.000000000000003553, 158.384101)"/>
<path fill="none" stroke-width="7.95937" stroke-linecap="round" stroke-linejoin="round" stroke="rgb(0%, 0%, 0%)" stroke-opacity="1" stroke-miterlimit="10" d="M 901.909668 1051.743583 L 1051.769898 901.883353 " transform="matrix(0.0994938, 0, 0, -0.0994938, -0.000000000000003553, 158.384101)"/>
<path fill="none" stroke-width="7.95937" stroke-linecap="round" stroke-linejoin="round" stroke="rgb(0%, 0%, 0%)" stroke-opacity="1" stroke-miterlimit="10" d="M 1007.875809 1307.569954 L 1307.596269 1007.849494 " transform="matrix(0.0994938, 0, 0, -0.0994938, -0.000000000000003553, 158.384101)"/>
<path fill="none" stroke-width="7.95937" stroke-linecap="round" stroke-linejoin="round" stroke="rgb(0%, 0%, 0%)" stroke-opacity="1" stroke-miterlimit="10" d="M 540.117156 689.951071 L 284.290785 584.024191 " transform="matrix(0.0994938, 0, 0, -0.0994938, -0.000000000000003553, 158.384101)"/>
<path fill="none" stroke-width="7.95937" stroke-linecap="round" stroke-linejoin="round" stroke="rgb(0%, 0%, 0%)" stroke-opacity="1" stroke-miterlimit="10" d="M 540.117156 689.951071 L 540.117156 901.883353 " transform="matrix(0.0994938, 0, 0, -0.0994938, -0.000000000000003553, 158.384101)"/>
<path fill="none" stroke-width="7.95937" stroke-linecap="round" stroke-linejoin="round" stroke="rgb(0%, 0%, 0%)" stroke-opacity="1" stroke-miterlimit="10" d="M 284.290785 584.024191 L 284.290785 1007.849494 " transform="matrix(0.0994938, 0, 0, -0.0994938, -0.000000000000003553, 158.384101)"/>
<path fill="none" stroke-width="7.95937" stroke-linecap="round" stroke-linejoin="round" stroke="rgb(0%, 0%, 0%)" stroke-opacity="1" stroke-miterlimit="10" d="M 540.117156 901.883353 L 284.290785 1007.849494 " transform="matrix(0.0994938, 0, 0, -0.0994938, -0.000000000000003553, 158.384101)"/>
<path fill="none" stroke-width="7.95937" stroke-linecap="round" stroke-linejoin="round" stroke="rgb(0%, 0%, 0%)" stroke-opacity="1" stroke-miterlimit="10" d="M 1051.769898 689.951071 L 1307.596269 584.024191 " transform="matrix(0.0994938, 0, 0, -0.0994938, -0.000000000000003553, 158.384101)"/>
<path fill="none" stroke-width="7.95937" stroke-linecap="round" stroke-linejoin="round" stroke="rgb(0%, 0%, 0%)" stroke-opacity="1" stroke-miterlimit="10" d="M 1051.769898 689.951071 L 1051.769898 901.883353 " transform="matrix(0.0994938, 0, 0, -0.0994938, -0.000000000000003553, 158.384101)"/>
<path fill="none" stroke-width="7.95937" stroke-linecap="round" stroke-linejoin="round" stroke="rgb(0%, 0%, 0%)" stroke-opacity="1" stroke-miterlimit="10" d="M 1307.596269 584.024191 L 1307.596269 1007.849494 " transform="matrix(0.0994938, 0, 0, -0.0994938, -0.000000000000003553, 158.384101)"/>
<path fill="none" stroke-width="7.95937" stroke-linecap="round" stroke-linejoin="round" stroke="rgb(0%, 0%, 0%)" stroke-opacity="1" stroke-miterlimit="10" d="M 1051.769898 901.883353 L 1307.596269 1007.849494 " transform="matrix(0.0994938, 0, 0, -0.0994938, -0.000000000000003553, 158.384101)"/>
<path fill="none" stroke-width="63.675" stroke-linecap="round" stroke-linejoin="round" stroke="rgb(100%, 0%, 0%)" stroke-opacity="1" stroke-miterlimit="10" d="M 717.656574 717.630259 L 717.656574 717.630259 " transform="matrix(0.0994938, 0, 0, -0.0994938, -0.000000000000003553, 158.384101)"/>
<path fill="none" stroke-width="63.675" stroke-linecap="round" stroke-linejoin="round" stroke="rgb(100%, 0%, 0%)" stroke-opacity="1" stroke-miterlimit="10" d="M 72.358502 72.332188 L 72.358502 72.332188 " transform="matrix(0.0994938, 0, 0, -0.0994938, -0.000000000000003553, 158.384101)"/>
<path fill="none" stroke-width="63.675" stroke-linecap="round" stroke-linejoin="round" stroke="rgb(100%, 0%, 0%)" stroke-opacity="1" stroke-miterlimit="10" d="M 717.656574 874.204165 L 717.656574 874.204165 " transform="matrix(0.0994938, 0, 0, -0.0994938, -0.000000000000003553, 158.384101)"/>
<path fill="none" stroke-width="63.675" stroke-linecap="round" stroke-linejoin="round" stroke="rgb(100%, 0%, 0%)" stroke-opacity="1" stroke-miterlimit="10" d="M 72.358502 1519.502236 L 72.358502 1519.502236 " transform="matrix(0.0994938, 0, 0, -0.0994938, -0.000000000000003553, 158.384101)"/>
<path fill="none" stroke-width="63.675" stroke-linecap="round" stroke-linejoin="round" stroke="rgb(100%, 0%, 0%)" stroke-opacity="1" stroke-miterlimit="10" d="M 689.977386 540.090841 L 689.977386 540.090841 " transform="matrix(0.0994938, 0, 0, -0.0994938, -0.000000000000003553, 158.384101)"/>
<path fill="none" stroke-width="63.675" stroke-linecap="round" stroke-linejoin="round" stroke="rgb(100%, 0%, 0%)" stroke-opacity="1" stroke-miterlimit="10" d="M 584.011244 284.303731 L 584.011244 284.303731 " transform="matrix(0.0994938, 0, 0, -0.0994938, -0.000000000000003553, 158.384101)"/>
<path fill="none" stroke-width="63.675" stroke-linecap="round" stroke-linejoin="round" stroke="rgb(100%, 0%, 0%)" stroke-opacity="1" stroke-miterlimit="10" d="M 689.977386 1051.743583 L 689.977386 1051.743583 " transform="matrix(0.0994938, 0, 0, -0.0994938, -0.000000000000003553, 158.384101)"/>
<path fill="none" stroke-width="63.675" stroke-linecap="round" stroke-linejoin="round" stroke="rgb(100%, 0%, 0%)" stroke-opacity="1" stroke-miterlimit="10" d="M 584.011244 1307.569954 L 584.011244 1307.569954 " transform="matrix(0.0994938, 0, 0, -0.0994938, -0.000000000000003553, 158.384101)"/>
<path fill="none" stroke-width="63.675" stroke-linecap="round" stroke-linejoin="round" stroke="rgb(100%, 0%, 0%)" stroke-opacity="1" stroke-miterlimit="10" d="M 874.230479 717.630259 L 874.230479 717.630259 " transform="matrix(0.0994938, 0, 0, -0.0994938, -0.000000000000003553, 158.384101)"/>
<path fill="none" stroke-width="63.675" stroke-linecap="round" stroke-linejoin="round" stroke="rgb(100%, 0%, 0%)" stroke-opacity="1" stroke-miterlimit="10" d="M 1519.528551 72.332188 L 1519.528551 72.332188 " transform="matrix(0.0994938, 0, 0, -0.0994938, -0.000000000000003553, 158.384101)"/>
<path fill="none" stroke-width="63.675" stroke-linecap="round" stroke-linejoin="round" stroke="rgb(100%, 0%, 0%)" stroke-opacity="1" stroke-miterlimit="10" d="M 874.230479 874.204165 L 874.230479 874.204165 " transform="matrix(0.0994938, 0, 0, -0.0994938, -0.000000000000003553, 158.384101)"/>
<path fill="none" stroke-width="63.675" stroke-linecap="round" stroke-linejoin="round" stroke="rgb(100%, 0%, 0%)" stroke-opacity="1" stroke-miterlimit="10" d="M 1519.528551 1519.502236 L 1519.528551 1519.502236 " transform="matrix(0.0994938, 0, 0, -0.0994938, -0.000000000000003553, 158.384101)"/>
<path fill="none" stroke-width="63.675" stroke-linecap="round" stroke-linejoin="round" stroke="rgb(100%, 0%, 0%)" stroke-opacity="1" stroke-miterlimit="10" d="M 901.909668 540.090841 L 901.909668 540.090841 " transform="matrix(0.0994938, 0, 0, -0.0994938, -0.000000000000003553, 158.384101)"/>
<path fill="none" stroke-width="63.675" stroke-linecap="round" stroke-linejoin="round" stroke="rgb(100%, 0%, 0%)" stroke-opacity="1" stroke-miterlimit="10" d="M 1007.875809 284.303731 L 1007.875809 284.303731 " transform="matrix(0.0994938, 0, 0, -0.0994938, -0.000000000000003553, 158.384101)"/>
<path fill="none" stroke-width="63.675" stroke-linecap="round" stroke-linejoin="round" stroke="rgb(100%, 0%, 0%)" stroke-opacity="1" stroke-miterlimit="10" d="M 901.909668 1051.743583 L 901.909668 1051.743583 " transform="matrix(0.0994938, 0, 0, -0.0994938, -0.000000000000003553, 158.384101)"/>
<path fill="none" stroke-width="63.675" stroke-linecap="round" stroke-linejoin="round" stroke="rgb(100%, 0%, 0%)" stroke-opacity="1" stroke-miterlimit="10" d="M 1007.875809 1307.569954 L 1007.875809 1307.569954 " transform="matrix(0.0994938, 0, 0, -0.0994938, -0.000000000000003553, 158.384101)"/>
<path fill="none" stroke-width="63.675" stroke-linecap="round" stroke-linejoin="round" stroke="rgb(100%, 0%, 0%)" stroke-opacity="1" stroke-miterlimit="10" d="M 540.117156 689.951071 L 540.117156 689.951071 " transform="matrix(0.0994938, 0, 0, -0.0994938, -0.000000000000003553, 158.384101)"/>
<path fill="none" stroke-width="63.675" stroke-linecap="round" stroke-linejoin="round" stroke="rgb(100%, 0%, 0%)" stroke-opacity="1" stroke-miterlimit="10" d="M 284.290785 584.024191 L 284.290785 584.024191 " transform="matrix(0.0994938, 0, 0, -0.0994938, -0.000000000000003553, 158.384101)"/>
<path fill="none" stroke-width="63.675" stroke-linecap="round" stroke-linejoin="round" stroke="rgb(100%, 0%, 0%)" stroke-opacity="1" stroke-miterlimit="10" d="M 540.117156 901.883353 L 540.117156 901.883353 " transform="matrix(0.0994938, 0, 0, -0.0994938, -0.000000000000003553, 158.384101)"/>
<path fill="none" stroke-width="63.675" stroke-linecap="round" stroke-linejoin="round" stroke="rgb(100%, 0%, 0%)" stroke-opacity="1" stroke-miterlimit="10" d="M 284.290785 1007.849494 L 284.290785 1007.849494 " transform="matrix(0.0994938, 0, 0, -0.0994938, -0.000000000000003553, 158.384101)"/>
<path fill="none" stroke-width="63.675" stroke-linecap="round" stroke-linejoin="round" stroke="rgb(100%, 0%, 0%)" stroke-opacity="1" stroke-miterlimit="10" d="M 1051.769898 689.951071 L 1051.769898 689.951071 " transform="matrix(0.0994938, 0, 0, -0.0994938, -0.000000000000003553, 158.384101)"/>
<path fill="none" stroke-width="63.675" stroke-linecap="round" stroke-linejoin="round" stroke="rgb(100%, 0%, 0%)" stroke-opacity="1" stroke-miterlimit="10" d="M 1307.596269 584.024191 L 1307.596269 584.024191 " transform="matrix(0.0994938, 0, 0, -0.0994938, -0.000000000000003553, 158.384101)"/>
<path fill="none" stroke-width="63.675" stroke-linecap="round" stroke-linejoin="round" stroke="rgb(100%, 0%, 0%)" stroke-opacity="1" stroke-miterlimit="10" d="M 1051.769898 901.883353 L 1051.769898 901.883353 " transform="matrix(0.0994938, 0, 0, -0.0994938, -0.000000000000003553, 158.384101)"/>
<path fill="none" stroke-width="63.675" stroke-linecap="round" stroke-linejoin="round" stroke="rgb(100%, 0%, 0%)" stroke-opacity="1" stroke-miterlimit="10" d="M 1307.596269 1007.849494 L 1307.596269 1007.849494 " transform="matrix(0.0994938, 0, 0, -0.0994938, -0.000000000000003553, 158.384101)"/>
</svg>
