<?xml version="1.0" encoding="UTF-8"?>
<svg xmlns="http://www.w3.org/2000/svg" xmlns:xlink="http://www.w3.org/1999/xlink" width="160" height="160" viewBox="0 0 160 160">
<path fill="none" stroke-width="23.75" stroke-linecap="square" stroke-linejoin="miter" stroke="rgb(0%, 0%, 0%)" stroke-opacity="1" stroke-miterlimit="3.239" d="M 1564.375 986.875 L 1563.75 987.5 L 1563.75 988.125 L 1563.125 989.375 L 1562.5 991.875 L 1562.5 992.5 L 1561.875 992.5 L 1561.875 993.125 L 1561.25 995 L 1560 997.5 L 1560 998.125 L 1559.375 998.75 L 1558.75 1000 L 1556.875 1003.125 L 1556.875 1003.75 L 1556.25 1004.375 L 1555.625 1005.625 L 1553.75 1008.125 L 1553.75 1008.75 L 1553.125 1008.75 L 1553.125 1009.375 L 1551.875 1010.625 L 1550.625 1013.125 L 1546.25 1018.125 L 1546.25 1018.75 L 1545.625 1019.375 L 1544.375 1020 L 1542.5 1022.5 L 1538.125 1026.875 L 1537.5 1026.875 L 1537.5 1027.5 L 1536.875 1028.125 L 1535 1029.375 L 1532.5 1031.875 L 1526.875 1036.25 L 1525.625 1037.5 L 1524.375 1038.125 L 1521.25 1040.625 L 1515.625 1044.375 L 1501.875 1052.5 L 1487.5 1060.625 L 1472.5 1067.5 L 1455 1073.75 L 1438.125 1080 L 1420.625 1085.625 L 1400.625 1091.25 L 1381.25 1096.25 L 1359.375 1101.25 L 1337.5 1105.625 L 1316.25 1109.375 L 1292.5 1113.125 L 1270 1116.875 L 1221.25 1123.125 L 1198.125 1125.625 L 1173.125 1128.125 L 1149.375 1130.625 L 1126.25 1132.5 L 1101.25 1135 L 1078.125 1136.25 L 1052.5 1138.125 L 1028.125 1140 L 1005 1141.25 L 980.625 1142.5 L 957.5 1143.125 L 935 1144.375 L 928.75 1144.375 L 923.125 1145 L 905 1145 L 899.375 1145.625 L 881.875 1145.625 L 875.625 1146.25 L 846.25 1146.25 L 840.625 1146.875 L 761.25 1146.875 L 758.75 1146.25 L 721.25 1146.25 L 720.625 1145.625 L 696.25 1145.625 L 693.125 1145 L 686.875 1145 L 675 1144.375 L 663.125 1144.375 L 651.875 1143.75 L 629.375 1143.125 L 604.375 1141.875 L 581.875 1140.625 L 556.875 1138.75 L 555.625 1138.75 " transform="matrix(0.1, 0, 0, -0.1, 0, 160)"/>
<path fill="none" stroke-width="23.75" stroke-linecap="square" stroke-linejoin="miter" stroke="rgb(0%, 0%, 0%)" stroke-opacity="1" stroke-miterlimit="3.239" d="M 462.5 1131.875 L 461.875 1131.875 L 461.25 1131.25 L 458.125 1131.25 L 453.75 1130.625 L 445 1130 L 427.5 1128.125 L 390 1124.375 L 355 1120 L 321.25 1115.625 L 286.25 1110 L 254.375 1103.75 L 221.25 1096.25 L 190 1088.75 L 189.375 1088.125 L 188.125 1088.125 L 186.875 1087.5 L 183.125 1086.875 L 176.25 1084.375 L 163.125 1080.625 L 162.5 1080.625 L 162.5 1080 L 161.25 1080 L 159.375 1079.375 L 156.25 1078.125 L 149.375 1075.625 L 136.25 1070.625 L 135.625 1070.625 L 133.125 1069.375 L 130 1068.125 L 113.125 1060.625 L 112.5 1060.625 L 112.5 1060 L 111.875 1060 L 108.125 1058.125 L 102.5 1055.625 L 102.5 1055 L 101.875 1055 L 101.25 1054.375 L 97.5 1052.5 L 93.125 1050 L 91.875 1048.75 L 88.125 1046.875 L 83.125 1043.75 L 81.875 1042.5 L 78.125 1040.625 L 73.75 1036.875 L 73.125 1036.875 L 73.125 1036.25 L 71.875 1035.625 L 70 1033.75 L 66.25 1030.625 L 65.625 1030.625 L 65.625 1030 L 65 1030 L 64.375 1028.75 L 62.5 1027.5 L 59.375 1023.75 L 58.75 1023.75 L 58.125 1023.125 L 57.5 1021.875 L 55.625 1020 L 52.5 1016.25 L 51.875 1016.25 L 51.25 1015.625 L 50.625 1014.375 L 49.375 1012.5 L 46.25 1008.75 L 46.25 1008.125 L 45 1006.875 L 43.75 1005 L 43.75 1004.375 L 43.125 1003.75 L 42.5 1002.5 L 41.875 1000.625 L 41.25 1000.625 L 41.25 999.375 L 40.625 998.75 L 37.5 992.5 L 37.5 991.25 L 36.875 990.625 L 36.25 988.125 L 36.25 987.5 L 35.625 986.25 L 35 984.375 L 35 983.125 L 34.375 982.5 L 34.375 981.25 L 33.75 980 L 33.75 978.125 L 33.125 975.625 L 33.125 973.75 L 32.5 973.125 L 32.5 966.875 L 31.875 966.25 L 31.875 955 L 32.5 954.375 L 32.5 948.75 L 33.125 947.5 L 33.125 945 L 33.75 942.5 L 33.75 940 L 34.375 937.5 L 34.375 936.25 L 35 935 L 35.625 932.5 L 35.625 931.25 L 36.25 930 L 36.875 926.875 L 36.875 926.25 L 37.5 925.625 L 37.5 924.375 L 38.75 921.875 L 40.625 916.25 L 40.625 915 L 41.25 913.125 L 42.5 910.625 L 44.375 905 L 49.375 893.75 L 50 893.125 L 50 892.5 L 51.875 888.75 L 55 883.125 L 60.625 872.5 L 75.625 848.125 L 91.25 825 L 109.375 801.875 L 130.625 776.25 L 151.875 751.875 L 176.25 725.625 L 201.875 699.375 L 226.875 675 L 255 648.75 L 281.25 623.75 L 307.5 600 L 336.25 575 L 362.5 551.25 L 391.875 526.25 L 445.625 481.25 L 474.375 458.125 L 501.875 436.25 L 531.25 413.125 L 560.625 390.625 L 618.125 347.5 L 646.25 326.875 L 674.375 307.5 L 705 285.625 L 733.75 266.25 L 765 245 L 765.625 245 L 765.625 244.375 L 766.25 244.375 " transform="matrix(0.1, 0, 0, -0.1, 0, 160)"/>
<path fill="none" stroke-width="23.75" stroke-linecap="square" stroke-linejoin="miter" stroke="rgb(0%, 0%, 0%)" stroke-opacity="1" stroke-miterlimit="3.239" d="M 845.625 193.125 L 846.25 192.5 L 847.5 191.875 L 860.625 183.125 L 875.625 173.75 L 908.75 154.375 L 938.75 136.25 L 968.75 119.375 L 1000.625 102.5 L 1030 87.5 L 1060.625 73.125 L 1090 60.625 L 1116.25 50.625 L 1116.875 50 L 1118.125 50 L 1123.75 48.125 L 1130.625 45.625 L 1131.25 45.625 L 1131.875 45 L 1133.75 45 L 1136.875 43.75 L 1143.75 41.875 L 1144.375 41.875 L 1144.375 41.25 L 1145.625 41.25 L 1146.875 40.625 L 1156.25 38.75 L 1156.875 38.125 L 1157.5 38.125 L 1159.375 37.5 L 1162.5 36.875 L 1168.125 35.625 L 1169.375 35.625 L 1171.25 35 L 1173.75 34.375 L 1176.875 34.375 L 1179.375 33.75 L 1180 33.75 L 1181.25 33.125 L 1182.5 33.125 L 1185 32.5 L 1188.125 32.5 L 1190.625 31.875 L 1195 31.875 L 1196.25 31.25 L 1204.375 31.25 L 1205 30.625 L 1219.375 30.625 L 1219.375 31.25 L 1226.875 31.25 L 1227.5 31.875 L 1232.5 31.875 L 1232.5 32.5 L 1236.25 32.5 L 1237.5 33.125 L 1238.75 33.125 L 1240 33.75 L 1241.875 34.375 L 1243.125 34.375 L 1244.375 35 L 1246.875 35.625 L 1248.125 35.625 L 1249.375 36.25 L 1251.25 36.875 L 1251.875 36.875 L 1252.5 37.5 L 1253.75 37.5 L 1255.625 38.75 L 1256.875 38.75 L 1257.5 39.375 L 1260 40.625 L 1260.625 40.625 L 1261.875 41.25 L 1267.5 45 L 1268.125 45 L 1269.375 45.625 L 1271.25 46.875 L 1274.375 49.375 L 1274.375 50 L 1275 50 L 1277.5 52.5 L 1280.625 55 L 1280.625 55.625 L 1283.75 58.75 L 1286.875 62.5 L 1287.5 63.125 L 1288.125 64.375 L 1291.875 70 L 1292.5 70 L 1292.5 71.25 L 1293.125 71.875 L 1294.375 73.75 L 1296.875 78.125 L 1296.875 78.75 L 1298.125 80 L 1298.75 82.5 L 1300.625 86.875 L 1301.25 86.875 L 1301.25 88.125 L 1303.125 91.875 L 1305 96.875 L 1305 97.5 L 1305.625 98.125 L 1305.625 99.375 L 1306.875 102.5 L 1308.125 108.125 L 1308.75 108.75 L 1308.75 110.625 L 1310 113.75 L 1310 115 L 1310.625 116.25 L 1311.25 119.375 L 1311.25 120.625 L 1311.875 122.5 L 1312.5 125.625 L 1313.75 131.25 L 1313.75 134.375 L 1314.375 137.5 L 1314.375 138.75 L 1315 140.625 L 1315 144.375 L 1315.625 145 L 1315.625 149.375 L 1316.25 150 L 1316.25 155.625 L 1316.875 156.25 L 1316.875 163.75 L 1317.5 164.375 L 1317.5 174.375 L 1318.125 175 L 1318.125 223.75 L 1317.5 227.5 L 1317.5 236.875 L 1316.875 238.75 L 1316.875 246.875 L 1316.25 251.25 L 1315.625 259.375 L 1315.625 263.75 L 1315 268.125 L 1314.375 276.25 L 1314.375 276.875 L 1313.75 277.5 L 1313.75 280.625 L 1313.125 284.375 L 1312.5 292.5 L 1310.625 309.375 L 1310.625 310.625 L 1310 311.25 L 1310 313.75 L 1309.375 318.125 L 1308.125 327.5 L 1305.625 345.625 L 1299.375 382.5 L 1293.125 417.5 L 1285.625 456.25 L 1278.125 492.5 L 1270 527.5 L 1261.25 565.625 L 1252.5 601.25 L 1243.125 638.75 L 1234.375 674.375 L 1225 708.125 L 1215 745 L 1205 779.375 L 1194.375 816.25 L 1183.125 852.5 L 1172.5 886.25 L 1160.625 922.5 L 1138.125 990 L 1125.625 1025.625 L 1113.125 1059.375 L 1099.375 1095.625 L 1099.375 1096.875 " transform="matrix(0.1, 0, 0, -0.1, 0, 160)"/>
<path fill="none" stroke-width="23.75" stroke-linecap="square" stroke-linejoin="miter" stroke="rgb(0%, 0%, 0%)" stroke-opacity="1" stroke-miterlimit="3.239" d="M 1063.75 1187.5 L 1063.75 1188.125 L 1063.125 1188.75 L 1063.125 1190 L 1061.875 1191.875 L 1060.625 1196.25 L 1056.875 1204.375 L 1050 1221.25 L 1035 1257.5 L 1020 1290.625 L 1005.625 1322.5 L 989.375 1356.25 L 974.375 1386.25 L 957.5 1416.875 L 940.625 1445 L 925 1469.375 L 907.5 1493.125 L 891.25 1512.5 L 891.25 1513.125 L 890.625 1513.125 L 890 1513.75 L 889.375 1515 L 875 1529.375 L 875 1530 L 874.375 1530 L 870.625 1533.75 L 866.25 1537.5 L 865.625 1538.125 L 865 1538.125 L 864.375 1539.375 L 861.875 1541.25 L 857.5 1544.375 L 855.625 1546.25 L 853.75 1547.5 L 849.375 1550 L 849.375 1550.625 L 848.125 1550.625 L 847.5 1551.25 L 845 1552.5 L 841.25 1555 L 840.625 1555 L 840.625 1555.625 L 840 1555.625 L 838.75 1556.25 L 836.875 1557.5 L 836.25 1557.5 L 835.625 1558.125 L 834.375 1558.75 L 832.5 1559.375 L 831.875 1560 L 831.25 1560 L 830 1560.625 L 827.5 1561.25 L 827.5 1561.875 L 826.875 1561.875 L 825.625 1562.5 L 823.125 1563.125 L 822.5 1563.125 L 821.25 1563.75 L 818.75 1564.375 L 818.125 1564.375 L 816.875 1565 L 814.375 1565 L 814.375 1565.625 L 811.25 1565.625 L 810 1566.25 L 805.625 1566.25 L 805.625 1566.875 L 794.375 1566.875 L 794.375 1566.25 L 789.375 1566.25 L 789.375 1565.625 L 786.25 1565.625 L 785 1565 L 783.75 1565 L 782.5 1564.375 L 780.625 1564.375 L 780 1563.75 L 778.125 1563.75 L 776.25 1562.5 L 775 1562.5 L 773.75 1561.875 L 771.875 1561.25 L 771.25 1561.25 L 770.625 1560.625 L 769.375 1560.625 L 767.5 1559.375 L 763.125 1557.5 L 762.5 1556.875 L 761.25 1556.25 L 759.375 1555.625 L 755 1553.125 L 754.375 1552.5 L 753.75 1552.5 L 753.125 1551.875 L 750.625 1550 L 746.25 1546.875 L 745.625 1546.875 L 745 1546.25 L 743.75 1545.625 L 741.875 1543.75 L 737.5 1540.625 L 736.25 1539.375 L 735 1538.75 L 733.125 1536.875 L 728.75 1533.125 L 720 1524.375 L 719.375 1524.375 L 719.375 1523.75 L 718.75 1523.75 L 717.5 1522.5 L 715.625 1520 L 711.875 1516.25 L 703.75 1506.875 L 686.25 1484.375 L 670 1461.25 L 654.375 1436.875 L 637.5 1407.5 L 622.5 1378.75 L 605.625 1346.25 L 590 1312.5 L 575 1280.625 L 560 1244.375 L 545.625 1210.625 L 531.875 1177.5 L 517.5 1141.25 L 505 1107.5 L 491.25 1070.625 L 478.75 1036.875 L 466.875 1003.75 L 454.375 967.5 L 442.5 933.75 L 430.625 896.875 L 419.375 861.25 L 408.75 827.5 L 398.125 790.625 L 388.125 756.25 L 378.75 722.5 L 368.75 685.625 L 360 650.625 L 350 613.125 L 350 611.875 " transform="matrix(0.1, 0, 0, -0.1, 0, 160)"/>
<path fill="none" stroke-width="23.75" stroke-linecap="square" stroke-linejoin="miter" stroke="rgb(0%, 0%, 0%)" stroke-opacity="1" stroke-miterlimit="3.239" d="M 327.5 516.875 L 327.5 515.625 L 326.875 514.375 L 326.875 512.5 L 325.625 508.125 L 323.75 498.75 L 320 481.25 L 311.875 442.5 L 305 406.25 L 298.75 371.875 L 293.125 335 L 293.125 333.75 L 292.5 332.5 L 292.5 330.625 L 291.875 326.25 L 290.625 318.125 L 290.625 315.625 L 290 313.75 L 289.375 309.375 L 288.75 301.25 L 288.75 300.625 L 288.125 300 L 288.125 296.875 L 286.25 283.75 L 286.25 278.75 L 285.625 275 L 285 266.25 L 285 263.75 L 284.375 261.875 L 284.375 256.875 L 283.75 255.625 L 283.75 248.125 L 283.125 247.5 L 283.125 238.75 L 282.5 236.875 L 282.5 225 L 281.875 224.375 L 281.875 175.625 L 282.5 173.75 L 282.5 165.625 L 283.125 163.75 L 283.125 157.5 L 283.75 153.75 L 283.75 150.625 L 284.375 147.5 L 284.375 145 L 285 141.875 L 285 140 L 285.625 138.75 L 285.625 135.625 L 286.25 135 L 286.25 133.125 L 286.875 130 L 288.125 124.375 L 288.125 123.125 L 288.75 121.25 L 289.375 118.125 L 290.625 112.5 L 290.625 111.25 L 291.25 110 L 291.875 106.875 L 293.75 101.25 L 293.75 100 L 294.375 98.75 L 295 96.875 L 296.875 91.875 L 296.875 91.25 L 297.5 91.25 L 297.5 90.625 L 298.125 89.375 L 298.75 87.5 L 300.625 82.5 L 301.25 82.5 L 301.25 81.875 L 303.125 78.125 L 305.625 73.75 L 306.25 73.125 L 306.25 72.5 L 306.875 71.875 L 308.125 69.375 L 311.25 65.625 L 311.25 65 L 312.5 63.75 L 313.75 61.875 L 316.875 58.125 L 316.875 57.5 L 317.5 57.5 L 318.125 56.25 L 320 55 L 323.75 51.25 L 325 50.625 L 326.25 49.375 L 326.25 48.75 L 326.875 48.75 L 328.125 48.125 L 330 46.25 L 330.625 46.25 L 331.25 45.625 L 333.125 44.375 L 336.875 42.5 L 336.875 41.875 L 337.5 41.875 L 338.75 41.25 L 340.625 40 L 341.25 40 L 341.875 39.375 L 343.125 39.375 L 345 38.125 L 346.25 38.125 L 346.875 37.5 L 349.375 36.875 L 349.375 36.25 L 350.625 36.25 L 351.25 35.625 L 353.75 35 L 355 35 L 355.625 34.375 L 358.125 33.75 L 360 33.75 L 362.5 33.125 L 363.75 33.125 L 365 32.5 L 367.5 32.5 L 367.5 31.875 L 371.875 31.875 L 372.5 31.25 L 380 31.25 L 381.25 30.625 L 395 30.625 L 395.625 31.25 L 403.125 31.25 L 404.375 31.875 L 407.5 31.875 L 410.625 32.5 L 413.125 32.5 L 416.25 33.125 L 417.5 33.125 L 419.375 33.75 L 421.875 33.75 L 427.5 35 L 429.375 35 L 430.625 35.625 L 433.75 36.25 L 439.375 37.5 L 440 37.5 L 441.25 38.125 L 442.5 38.125 L 446.25 38.75 L 452.5 40.625 L 466.25 44.375 L 466.25 45 L 467.5 45 L 469.375 45.625 L 472.5 46.875 L 478.75 48.75 L 491.875 53.75 L 518.75 63.75 L 548.75 76.875 L 576.875 90.625 L 640.625 124.375 L 670.625 141.875 L 703.125 161.25 L 733.75 180 L 763.75 198.75 L 795.625 219.375 L 825 238.125 L 856.875 259.375 L 885.625 279.375 L 914.375 298.75 L 944.375 320.625 L 972.5 340.625 L 1003.125 363.125 L 1032.5 385 L 1060 406.25 L 1089.375 429.375 L 1116.875 450.625 L 1143.75 472.5 L 1172.5 496.25 L 1199.375 518.75 L 1228.125 543.75 L 1228.75 543.75 L 1228.75 544.375 L 1229.375 544.375 " transform="matrix(0.1, 0, 0, -0.1, 0, 160)"/>
<path fill="none" stroke-width="23.75" stroke-linecap="square" stroke-linejoin="miter" stroke="rgb(0%, 0%, 0%)" stroke-opacity="1" stroke-miterlimit="3.239" d="M 1300.625 607.5 L 1301.25 608.125 L 1301.875 608.125 L 1302.5 609.375 L 1305 611.25 L 1309.375 615.625 L 1318.75 624.375 L 1328.125 632.5 L 1336.875 640.625 L 1345.625 649.375 L 1354.375 657.5 L 1373.125 675 L 1381.25 683.125 L 1390.625 691.875 L 1406.875 708.125 L 1415 716.875 L 1423.125 725 L 1439.375 742.5 L 1446.875 750.625 L 1455 759.375 L 1461.875 767.5 L 1476.875 785 L 1483.75 792.5 L 1490.625 801.25 L 1496.875 809.375 L 1502.5 816.875 L 1508.75 825.625 L 1514.375 833.125 L 1525.625 849.375 L 1530 856.875 L 1535 865 L 1539.375 872.5 L 1543.125 879.375 L 1547.5 887.5 L 1550.625 894.375 L 1554.375 901.875 L 1559.375 915.625 L 1561.875 923.125 L 1561.875 923.75 L 1562.5 924.375 L 1563.125 926.25 L 1563.75 929.375 L 1563.75 930.625 L 1564.375 931.25 L 1564.375 933.75 L 1565 933.75 L 1565 935 L 1565.625 936.875 L 1565.625 938.75 L 1566.25 940 L 1566.25 941.875 L 1566.875 943.75 L 1566.875 947.5 L 1567.5 948.125 L 1567.5 954.375 L 1568.125 955 L 1568.125 966.875 L 1567.5 966.875 L 1567.5 973.125 L 1566.875 975 L 1566.875 976.25 L 1566.25 977.5 L 1566.25 979.375 L 1565.625 980.625 L 1565.625 981.875 L 1565 983.75 L 1564.375 986.25 L 1564.375 986.875 " transform="matrix(0.1, 0, 0, -0.1, 0, 160)"/>
</svg>
