<?xml version="1.0" encoding="UTF-8"?>
<svg xmlns="http://www.w3.org/2000/svg" xmlns:xlink="http://www.w3.org/1999/xlink" width="271.59" height="131.84" viewBox="0 0 271.59 131.84">
<defs>
<clipPath id="clip-0">
<path clip-rule="nonzero" d="M 34 0.0195312 L 271.179688 0.0195312 L 271.179688 131.660156 L 34 131.660156 Z M 34 0.0195312 "/>
</clipPath>
<clipPath id="clip-1">
<path clip-rule="nonzero" d="M 0 0.0195312 L 29 0.0195312 L 29 29 L 0 29 Z M 0 0.0195312 "/>
</clipPath>
</defs>
<g clip-path="url(#clip-0)">
<path fill="none" stroke-width="4" stroke-linecap="square" stroke-linejoin="miter" stroke="rgb(13.729858%, 12.159729%, 12.548828%)" stroke-opacity="1" stroke-miterlimit="3.25" d="M 2713.073935 2.822751 L 2713.073935 225.502158 M 2490.43365 2.822751 L 2713.073935 225.502158 M 2490.43365 225.502158 L 2713.073935 2.822751 M 2187.320501 2.822751 L 2409.999908 225.502158 M 2187.320501 2.822751 L 2409.999908 2.822751 M 2187.320501 225.502158 L 2409.999908 2.822751 M 2106.925881 2.822751 L 2106.925881 225.502158 M 1884.246474 2.822751 L 2106.925881 2.822751 M 1884.246474 225.502158 L 2106.925881 2.822751 M 1581.133326 2.822751 L 1803.812732 225.502158 M 1581.133326 225.502158 L 1803.812732 225.502158 M 1581.133326 225.502158 L 1803.812732 2.822751 M 1500.738705 2.822751 L 1500.738705 225.502158 M 1278.059299 2.822751 L 1500.738705 225.502158 M 1278.059299 225.502158 L 1500.738705 225.502158 M 974.94615 2.822751 L 1197.625557 225.502158 M 974.94615 2.822751 L 1197.625557 2.822751 M 974.94615 225.502158 L 1197.625557 225.502158 M 671.872123 2.822751 L 894.55153 2.822751 M 671.872123 225.502158 L 894.55153 225.502158 M 671.872123 225.502158 L 894.55153 2.822751 M 591.438381 2.822751 L 591.438381 225.502158 M 368.758975 2.822751 L 591.438381 2.822751 M 368.758975 225.502158 L 591.438381 225.502158 M 2490.43365 281.172009 L 2713.073935 503.851416 M 2490.43365 503.851416 L 2713.073935 281.172009 M 2490.43365 503.851416 L 2490.43365 281.172009 M 2409.999908 281.172009 L 2409.999908 503.851416 M 2187.320501 281.172009 L 2409.999908 503.851416 M 2187.320501 503.851416 L 2187.320501 281.172009 M 2106.925881 281.172009 L 2106.925881 503.851416 M 1884.246474 503.851416 L 2106.925881 281.172009 M 1884.246474 503.851416 L 1884.246474 281.172009 M 1581.133326 281.172009 L 1803.812732 503.851416 M 1581.133326 281.172009 L 1803.812732 281.172009 M 1581.133326 503.851416 L 1581.133326 281.172009 M 1500.738705 281.172009 L 1500.738705 503.851416 M 1278.059299 281.172009 L 1500.738705 281.172009 M 1278.059299 503.851416 L 1278.059299 281.172009 M 974.94615 503.851416 L 1197.625557 503.851416 M 974.94615 503.851416 L 1197.625557 281.172009 M 974.94615 503.851416 L 974.94615 281.172009 M 894.55153 281.172009 L 894.55153 503.851416 M 671.872123 503.851416 L 894.55153 503.851416 M 671.872123 503.851416 L 671.872123 281.172009 M 368.758975 281.172009 L 591.438381 281.172009 M 368.758975 503.851416 L 591.438381 503.851416 M 368.758975 503.851416 L 368.758975 281.172009 M 2713.073935 675.516425 L 2713.073935 898.195832 M 2490.43365 675.516425 L 2713.073935 675.516425 M 2490.43365 898.195832 L 2713.073935 675.516425 M 2187.320501 675.516425 L 2409.999908 675.516425 M 2187.320501 898.195832 L 2409.999908 898.195832 M 2187.320501 898.195832 L 2409.999908 675.516425 M 2106.925881 675.516425 L 2106.925881 898.195832 M 1884.246474 675.516425 L 2106.925881 675.516425 M 1884.246474 898.195832 L 2106.925881 898.195832 M 1803.812732 675.516425 L 1803.812732 898.195832 M 1581.133326 898.195832 L 1803.812732 675.516425 M 1581.133326 898.195832 L 1581.133326 675.516425 M 1500.738705 675.516425 L 1500.738705 898.195832 M 1278.059299 675.516425 L 1500.738705 675.516425 M 1278.059299 898.195832 L 1278.059299 675.516425 M 974.94615 898.195832 L 1197.625557 898.195832 M 974.94615 898.195832 L 1197.625557 675.516425 M 974.94615 898.195832 L 974.94615 675.516425 M 894.55153 675.516425 L 894.55153 898.195832 M 671.872123 898.195832 L 894.55153 898.195832 M 671.872123 898.195832 L 671.872123 675.516425 M 368.758975 675.516425 L 591.438381 675.516425 M 368.758975 898.195832 L 591.438381 898.195832 M 368.758975 898.195832 L 368.758975 675.516425 M 1500.738705 1069.82172 L 1500.738705 1292.501127 M 1278.059299 1069.82172 L 1500.738705 1069.82172 M 1278.059299 1292.501127 L 1500.738705 1292.501127 M 1197.625557 1069.82172 L 1197.625557 1292.501127 M 974.94615 1069.82172 L 1197.625557 1069.82172 M 974.94615 1292.501127 L 974.94615 1069.82172 M 894.55153 1069.82172 L 894.55153 1292.501127 M 671.872123 1292.501127 L 894.55153 1292.501127 M 671.872123 1292.501127 L 671.872123 1069.82172 M 368.758975 1069.82172 L 591.438381 1069.82172 M 368.758975 1292.501127 L 591.438381 1292.501127 M 368.758975 1292.501127 L 368.758975 1069.82172 " transform="matrix(0.0998493, 0, 0, -0.0998493, -0.000000000000002665, 131.660756)"/>
</g>
<path fill="none" stroke-width="4" stroke-linecap="square" stroke-linejoin="miter" stroke="rgb(13.729858%, 12.159729%, 12.548828%)" stroke-opacity="1" stroke-miterlimit="3.25" d="M 264.500258 1053.899282 L 264.500258 1298.408469 M 19.991071 1053.899282 L 264.500258 1053.899282 M 19.991071 1298.408469 L 264.500258 1298.408469 M 19.991071 1298.408469 L 19.991071 1053.899282 " transform="matrix(0.0998493, 0, 0, -0.0998493, -0.000000000000002665, 131.660756)"/>
<g clip-path="url(#clip-1)">
<path fill="none" stroke-width="40" stroke-linecap="round" stroke-linejoin="miter" stroke="rgb(93.022156%, 11.964417%, 13.954163%)" stroke-opacity="1" stroke-miterlimit="3.25" d="M 264.500258 1298.408469 L 264.500258 1298.408469 M 264.500258 1053.899282 L 264.500258 1053.899282 M 19.991071 1053.899282 L 19.991071 1053.899282 M 19.991071 1298.408469 L 19.991071 1298.408469 " transform="matrix(0.0998493, 0, 0, -0.0998493, -0.000000000000002665, 131.660756)"/>
</g>
<path fill="none" stroke-width="4" stroke-linecap="square" stroke-linejoin="miter" stroke="rgb(13.729858%, 12.159729%, 12.548828%)" stroke-opacity="1" stroke-miterlimit="3.25" d="M 264.500258 652.904216 L 264.500258 897.413403 M 19.991071 652.904216 L 264.500258 652.904216 M 19.991071 897.413403 L 264.500258 897.413403 M 19.991071 897.413403 L 264.500258 652.904216 M 19.991071 897.413403 L 19.991071 652.904216 " transform="matrix(0.0998493, 0, 0, -0.0998493, -0.000000000000002665, 131.660756)"/>
<path fill="none" stroke-width="40" stroke-linecap="round" stroke-linejoin="miter" stroke="rgb(93.022156%, 11.964417%, 13.954163%)" stroke-opacity="1" stroke-miterlimit="3.25" d="M 264.500258 897.413403 L 264.500258 897.413403 M 264.500258 652.904216 L 264.500258 652.904216 M 19.991071 652.904216 L 19.991071 652.904216 M 19.991071 897.413403 L 19.991071 897.413403 " transform="matrix(0.0998493, 0, 0, -0.0998493, -0.000000000000002665, 131.660756)"/>
<path fill="none" stroke-width="4" stroke-linecap="square" stroke-linejoin="miter" stroke="rgb(13.729858%, 12.159729%, 12.548828%)" stroke-opacity="1" stroke-miterlimit="3.25" d="M 264.500258 120.891347 L 264.500258 365.400534 M 19.991071 120.891347 L 264.500258 365.400534 M 19.991071 120.891347 L 264.500258 120.891347 M 19.991071 365.400534 L 264.500258 365.400534 M 19.991071 365.400534 L 264.500258 120.891347 M 19.991071 365.400534 L 19.991071 120.891347 " transform="matrix(0.0998493, 0, 0, -0.0998493, -0.000000000000002665, 131.660756)"/>
<path fill="none" stroke-width="40" stroke-linecap="round" stroke-linejoin="miter" stroke="rgb(93.022156%, 11.964417%, 13.954163%)" stroke-opacity="1" stroke-miterlimit="3.25" d="M 264.500258 365.400534 L 264.500258 365.400534 M 264.500258 120.891347 L 264.500258 120.891347 M 19.991071 120.891347 L 19.991071 120.891347 M 19.991071 365.400534 L 19.991071 365.400534 " transform="matrix(0.0998493, 0, 0, -0.0998493, -0.000000000000002665, 131.660756)"/>
</svg>
