<?xml version="1.0" encoding="UTF-8"?>
<svg xmlns="http://www.w3.org/2000/svg" xmlns:xlink="http://www.w3.org/1999/xlink" width="174" height="200" viewBox="0 0 174 200">
<path fill="none" stroke-width="6.96" stroke-linecap="round" stroke-linejoin="round" stroke="rgb(0%, 0%, 0%)" stroke-opacity="1" stroke-miterlimit="10" d="M 1172.65625 1000 L 1172.617188 1006.367188 L 1172.382812 1012.734375 L 1172.03125 1019.0625 L 1171.5625 1025.429688 L 1170.195312 1038.085938 L 1168.28125 1050.703125 L 1165.820312 1063.242188 L 1162.8125 1075.742188 L 1155.195312 1100.3125 L 1145.46875 1124.414062 L 1133.632812 1147.851562 L 1103.984375 1192.226562 L 1066.796875 1232.539062 L 1022.65625 1267.890625 L 972.382812 1297.539062 L 945.273438 1310.039062 L 916.914062 1320.78125 L 887.460938 1329.84375 L 857.109375 1337.148438 L 841.601562 1340.078125 L 825.9375 1342.539062 L 810.078125 1344.570312 L 802.109375 1345.390625 L 794.0625 1346.09375 L 786.054688 1346.71875 L 777.96875 1347.1875 L 769.84375 1347.539062 L 761.71875 1347.773438 L 753.554688 1347.890625 L 745.351562 1347.851562 L 737.148438 1347.734375 L 728.945312 1347.5 L 712.421875 1346.640625 L 704.179688 1346.015625 L 695.898438 1345.273438 L 679.335938 1343.476562 L 662.773438 1341.132812 L 629.6875 1335.078125 L 596.757812 1327.109375 L 531.992188 1305.546875 L 469.609375 1276.796875 L 410.703125 1241.289062 L 306.992188 1152.695312 L 263.945312 1101.09375 L 227.734375 1045.859375 L 198.867188 987.96875 L 187.304688 958.398438 L 177.734375 928.515625 L 170.195312 898.515625 " transform="matrix(0.1, 0, 0, -0.1, 0, 200)"/>
<path fill="none" stroke-width="6.96" stroke-linecap="round" stroke-linejoin="round" stroke="rgb(0%, 0%, 0%)" stroke-opacity="1" stroke-miterlimit="10" d="M 170.195312 898.515625 L 167.1875 883.515625 L 164.6875 868.515625 L 162.695312 853.59375 L 161.875 846.132812 L 161.210938 838.671875 L 160.664062 831.289062 L 160.273438 823.867188 L 159.960938 816.484375 L 159.804688 809.140625 L 159.765625 801.835938 L 159.84375 794.53125 L 160.078125 787.265625 L 160.390625 780.039062 L 160.898438 772.851562 L 161.484375 765.703125 L 163.046875 751.523438 L 165.078125 737.5 L 167.65625 723.671875 L 174.21875 696.679688 L 182.695312 670.625 L 193.007812 645.703125 L 205.117188 621.953125 L 218.945312 599.53125 L 251.445312 559.101562 L 269.882812 541.289062 L 289.726562 525.234375 L 310.78125 510.9375 L 333.007812 498.554688 L 356.210938 488.085938 L 380.351562 479.648438 L 392.734375 476.171875 L 405.273438 473.242188 L 417.96875 470.820312 L 430.820312 468.90625 L 437.265625 468.164062 L 443.789062 467.578125 L 450.3125 467.070312 L 456.835938 466.71875 L 463.4375 466.523438 L 470.039062 466.445312 L 476.640625 466.484375 L 483.28125 466.679688 L 489.960938 466.992188 L 496.601562 467.460938 L 503.28125 468.046875 L 509.960938 468.789062 L 523.359375 470.625 L 536.757812 473.007812 L 563.515625 479.414062 L 590.117188 487.929688 " transform="matrix(0.1, 0, 0, -0.1, 0, 200)"/>
<path fill="none" stroke-width="6.96" stroke-linecap="round" stroke-linejoin="round" stroke="rgb(0%, 0%, 0%)" stroke-opacity="1" stroke-miterlimit="10" d="M 590.117188 487.929688 L 642.265625 511.25 L 692.226562 542.578125 L 738.945312 581.484375 L 781.484375 627.34375 L 819.023438 679.375 L 850.78125 736.796875 L 864.335938 767.226562 L 876.171875 798.632812 L 886.328125 830.898438 L 894.6875 863.867188 L 901.25 897.382812 L 903.828125 914.335938 L 905.9375 931.367188 L 907.578125 948.4375 L 908.242188 957.03125 L 908.75 965.585938 L 909.179688 974.179688 L 909.492188 982.8125 L 909.648438 991.40625 L 909.726562 1000 L 909.648438 1008.59375 L 909.492188 1017.226562 L 909.179688 1025.78125 L 908.75 1034.414062 L 907.578125 1051.523438 L 905.9375 1068.632812 L 903.828125 1085.664062 L 901.25 1102.617188 L 894.6875 1136.132812 L 886.328125 1169.101562 L 876.171875 1201.367188 L 850.78125 1263.164062 L 819.023438 1320.585938 L 781.484375 1372.65625 L 738.945312 1418.515625 L 692.226562 1457.421875 L 642.265625 1488.789062 L 616.40625 1501.445312 L 590.117188 1512.03125 L 563.515625 1520.585938 L 536.757812 1526.953125 L 523.359375 1529.375 L 509.960938 1531.210938 L 503.28125 1531.914062 L 496.601562 1532.539062 L 489.960938 1533.007812 L 483.28125 1533.320312 L 476.640625 1533.515625 L 470.039062 1533.554688 L 463.4375 1533.476562 " transform="matrix(0.1, 0, 0, -0.1, 0, 200)"/>
<path fill="none" stroke-width="6.96" stroke-linecap="round" stroke-linejoin="round" stroke="rgb(0%, 0%, 0%)" stroke-opacity="1" stroke-miterlimit="10" d="M 463.4375 1533.476562 L 456.835938 1533.242188 L 450.3125 1532.890625 L 443.789062 1532.421875 L 430.820312 1531.054688 L 417.96875 1529.179688 L 405.273438 1526.757812 L 380.351562 1520.351562 L 356.210938 1511.914062 L 333.007812 1501.445312 L 310.78125 1489.023438 L 289.726562 1474.765625 L 251.445312 1440.898438 L 234.414062 1421.445312 L 218.945312 1400.46875 L 205.117188 1378.046875 L 193.007812 1354.296875 L 182.695312 1329.375 L 174.21875 1303.320312 L 167.65625 1276.328125 L 165.078125 1262.5 L 163.046875 1248.476562 L 162.1875 1241.40625 L 161.484375 1234.296875 L 160.898438 1227.148438 L 160.390625 1219.960938 L 160.078125 1212.695312 L 159.84375 1205.46875 L 159.765625 1198.164062 L 159.804688 1190.859375 L 159.960938 1183.476562 L 160.273438 1176.132812 L 160.664062 1168.710938 L 161.210938 1161.289062 L 162.695312 1146.40625 L 164.6875 1131.484375 L 170.195312 1101.484375 L 177.734375 1071.484375 L 198.867188 1011.992188 L 227.734375 954.101562 L 263.945312 898.90625 L 306.992188 847.304688 L 356.210938 800.3125 L 410.703125 758.710938 L 469.609375 723.203125 L 531.992188 694.453125 L 564.140625 682.773438 L 596.757812 672.890625 L 629.6875 664.921875 L 646.210938 661.640625 L 662.773438 658.867188 " transform="matrix(0.1, 0, 0, -0.1, 0, 200)"/>
<path fill="none" stroke-width="6.96" stroke-linecap="round" stroke-linejoin="round" stroke="rgb(0%, 0%, 0%)" stroke-opacity="1" stroke-miterlimit="10" d="M 662.773438 658.867188 L 679.335938 656.5625 L 695.898438 654.726562 L 712.421875 653.359375 L 720.703125 652.851562 L 728.945312 652.5 L 737.148438 652.265625 L 745.351562 652.109375 L 753.554688 652.109375 L 761.71875 652.226562 L 769.84375 652.460938 L 777.96875 652.8125 L 786.054688 653.28125 L 794.0625 653.867188 L 810.078125 655.429688 L 825.9375 657.460938 L 857.109375 662.890625 L 887.460938 670.117188 L 916.914062 679.179688 L 972.382812 702.421875 L 1022.65625 732.109375 L 1066.796875 767.460938 L 1103.984375 807.773438 L 1119.804688 829.492188 L 1133.632812 852.148438 L 1145.46875 875.585938 L 1155.195312 899.648438 L 1162.8125 924.257812 L 1165.820312 936.757812 L 1168.28125 949.296875 L 1170.195312 961.914062 L 1170.9375 968.242188 L 1171.5625 974.570312 L 1172.03125 980.9375 L 1172.382812 987.265625 L 1172.617188 993.632812 L 1172.65625 1000 " transform="matrix(0.1, 0, 0, -0.1, 0, 200)"/>
<path fill="none" stroke-width="6.96" stroke-linecap="round" stroke-linejoin="round" stroke="rgb(0%, 0%, 0%)" stroke-opacity="1" stroke-miterlimit="10" d="M 1238.398438 1000 L 1238.359375 1005.78125 L 1238.125 1011.601562 L 1237.773438 1017.382812 L 1237.265625 1023.164062 L 1235.859375 1034.726562 L 1233.867188 1046.210938 L 1231.328125 1057.65625 L 1228.203125 1068.984375 L 1220.3125 1091.40625 L 1210.234375 1113.242188 L 1198.007812 1134.453125 L 1167.304688 1174.492188 L 1128.710938 1210.507812 L 1082.96875 1241.71875 L 1057.617188 1255.273438 L 1030.78125 1267.304688 L 1002.539062 1277.773438 L 973.046875 1286.640625 L 942.460938 1293.789062 L 926.757812 1296.757812 L 910.820312 1299.21875 L 894.6875 1301.25 L 886.523438 1302.109375 L 878.320312 1302.8125 L 870.078125 1303.476562 L 861.796875 1303.945312 L 853.4375 1304.335938 L 845.078125 1304.609375 L 836.679688 1304.765625 L 828.242188 1304.84375 L 819.765625 1304.726562 L 811.25 1304.53125 L 802.734375 1304.257812 L 794.179688 1303.828125 L 776.992188 1302.617188 L 759.726562 1300.9375 L 742.382812 1298.789062 L 707.65625 1293.085938 L 672.890625 1285.507812 L 638.242188 1276.09375 L 569.882812 1251.835938 L 503.789062 1220.625 L 440.9375 1182.929688 L 329.023438 1090.742188 L 281.679688 1037.8125 L 241.09375 981.523438 L 207.773438 922.851562 L 194.023438 892.96875 L 182.226562 862.929688 " transform="matrix(0.1, 0, 0, -0.1, 0, 200)"/>
<path fill="none" stroke-width="6.96" stroke-linecap="round" stroke-linejoin="round" stroke="rgb(0%, 0%, 0%)" stroke-opacity="1" stroke-miterlimit="10" d="M 182.226562 862.929688 L 172.421875 832.8125 L 164.6875 802.773438 L 161.5625 787.851562 L 158.984375 772.96875 L 156.914062 758.242188 L 156.054688 750.898438 L 155.3125 743.554688 L 154.726562 736.289062 L 154.257812 729.023438 L 153.90625 721.835938 L 153.710938 714.648438 L 153.59375 707.539062 L 153.632812 700.429688 L 153.789062 693.398438 L 154.0625 686.367188 L 154.492188 679.414062 L 155.039062 672.539062 L 156.484375 658.90625 L 158.4375 645.46875 L 160.859375 632.304688 L 167.148438 606.757812 L 175.273438 582.382812 L 185.234375 559.296875 L 196.953125 537.578125 L 210.3125 517.382812 L 225.234375 498.828125 L 241.679688 481.953125 L 259.453125 466.835938 L 278.554688 453.632812 L 298.828125 442.382812 L 320.195312 433.125 L 331.210938 429.257812 L 342.460938 425.9375 L 353.90625 423.125 L 365.546875 420.859375 L 371.40625 419.921875 L 377.34375 419.101562 L 383.320312 418.4375 L 389.296875 417.929688 L 395.351562 417.539062 L 401.40625 417.265625 L 407.539062 417.1875 L 413.632812 417.1875 L 419.804688 417.34375 L 425.976562 417.65625 L 432.1875 418.046875 L 438.4375 418.632812 L 450.9375 420.195312 L 463.476562 422.265625 L 488.710938 428.164062 " transform="matrix(0.1, 0, 0, -0.1, 0, 200)"/>
<path fill="none" stroke-width="6.96" stroke-linecap="round" stroke-linejoin="round" stroke="rgb(0%, 0%, 0%)" stroke-opacity="1" stroke-miterlimit="10" d="M 488.710938 428.164062 L 513.984375 436.210938 L 539.101562 446.445312 L 588.59375 473.320312 L 636.054688 508.398438 L 680.546875 551.210938 L 721.171875 601.132812 L 757.070312 657.382812 L 787.5 719.0625 L 800.46875 751.679688 L 811.796875 785.273438 L 821.5625 819.726562 L 829.570312 854.882812 L 835.859375 890.664062 L 838.320312 908.710938 L 840.351562 926.875 L 841.953125 945.078125 L 842.578125 954.21875 L 843.046875 963.359375 L 843.476562 972.5 L 843.75 981.640625 L 843.90625 990.820312 L 843.984375 1000 L 843.90625 1009.179688 L 843.75 1018.320312 L 843.476562 1027.5 L 843.046875 1036.640625 L 841.953125 1054.921875 L 840.351562 1073.125 L 838.320312 1091.289062 L 835.859375 1109.335938 L 829.570312 1145.078125 L 821.5625 1180.273438 L 811.796875 1214.726562 L 787.5 1280.898438 L 757.070312 1342.617188 L 721.171875 1398.867188 L 680.546875 1448.75 L 636.054688 1491.601562 L 588.59375 1526.679688 L 564.023438 1541.171875 L 539.101562 1553.554688 L 513.984375 1563.789062 L 488.710938 1571.835938 L 476.09375 1575.039062 L 463.476562 1577.695312 L 450.9375 1579.804688 L 444.6875 1580.664062 L 438.4375 1581.367188 L 432.1875 1581.914062 L 425.976562 1582.34375 " transform="matrix(0.1, 0, 0, -0.1, 0, 200)"/>
<path fill="none" stroke-width="6.96" stroke-linecap="round" stroke-linejoin="round" stroke="rgb(0%, 0%, 0%)" stroke-opacity="1" stroke-miterlimit="10" d="M 425.976562 1582.34375 L 419.804688 1582.65625 L 413.632812 1582.8125 L 407.539062 1582.8125 L 401.40625 1582.695312 L 395.351562 1582.460938 L 389.296875 1582.070312 L 383.320312 1581.523438 L 377.34375 1580.859375 L 365.546875 1579.140625 L 353.90625 1576.875 L 342.460938 1574.0625 L 320.195312 1566.875 L 298.828125 1557.617188 L 278.554688 1546.367188 L 259.453125 1533.125 L 241.679688 1518.046875 L 225.234375 1501.171875 L 210.3125 1482.578125 L 196.953125 1462.421875 L 185.234375 1440.703125 L 175.273438 1417.617188 L 167.148438 1393.203125 L 163.75 1380.585938 L 160.859375 1367.695312 L 158.4375 1354.53125 L 156.484375 1341.09375 L 155.039062 1327.460938 L 154.492188 1320.546875 L 154.0625 1313.632812 L 153.789062 1306.601562 L 153.632812 1299.570312 L 153.59375 1292.460938 L 153.710938 1285.351562 L 153.90625 1278.164062 L 154.257812 1270.9375 L 154.726562 1263.710938 L 155.3125 1256.445312 L 156.914062 1241.757812 L 158.984375 1226.992188 L 164.6875 1197.226562 L 172.421875 1167.1875 L 182.226562 1137.070312 L 207.773438 1077.148438 L 241.09375 1018.476562 L 281.679688 962.1875 L 329.023438 909.257812 L 382.382812 860.585938 L 440.9375 817.070312 L 503.789062 779.375 L 569.882812 748.164062 " transform="matrix(0.1, 0, 0, -0.1, 0, 200)"/>
<path fill="none" stroke-width="6.96" stroke-linecap="round" stroke-linejoin="round" stroke="rgb(0%, 0%, 0%)" stroke-opacity="1" stroke-miterlimit="10" d="M 569.882812 748.164062 L 603.867188 735.15625 L 638.242188 723.90625 L 672.890625 714.453125 L 707.65625 706.914062 L 742.382812 701.171875 L 759.726562 699.0625 L 776.992188 697.382812 L 785.585938 696.71875 L 794.179688 696.171875 L 802.734375 695.742188 L 811.25 695.429688 L 819.765625 695.234375 L 828.242188 695.15625 L 836.679688 695.195312 L 845.078125 695.351562 L 853.4375 695.625 L 861.796875 696.054688 L 870.078125 696.5625 L 878.320312 697.148438 L 894.6875 698.75 L 910.820312 700.78125 L 942.460938 706.171875 L 973.046875 713.359375 L 1002.539062 722.226562 L 1030.78125 732.695312 L 1082.96875 758.28125 L 1128.710938 789.453125 L 1167.304688 825.507812 L 1183.671875 845.078125 L 1198.007812 865.507812 L 1210.234375 886.757812 L 1220.3125 908.632812 L 1228.203125 930.976562 L 1231.328125 942.34375 L 1233.867188 953.789062 L 1235.859375 965.273438 L 1236.640625 971.054688 L 1237.265625 976.835938 L 1237.773438 982.617188 L 1238.125 988.398438 L 1238.359375 994.21875 L 1238.398438 1000 " transform="matrix(0.1, 0, 0, -0.1, 0, 200)"/>
<path fill="none" stroke-width="6.96" stroke-linecap="round" stroke-linejoin="round" stroke="rgb(0%, 0%, 0%)" stroke-opacity="1" stroke-miterlimit="10" d="M 1304.140625 1000 L 1304.0625 1005.234375 L 1303.867188 1010.46875 L 1303.476562 1015.703125 L 1302.96875 1020.9375 L 1301.484375 1031.367188 L 1299.453125 1041.71875 L 1296.835938 1052.03125 L 1293.59375 1062.265625 L 1285.429688 1082.421875 L 1275.039062 1102.109375 L 1262.382812 1121.09375 L 1230.585938 1156.757812 L 1190.664062 1188.515625 L 1143.242188 1215.546875 L 1116.992188 1227.03125 L 1089.140625 1237.070312 L 1059.84375 1245.585938 L 1029.21875 1252.5 L 997.421875 1257.734375 L 981.09375 1259.765625 L 964.53125 1261.328125 L 956.132812 1261.914062 L 947.734375 1262.421875 L 939.21875 1262.8125 L 930.703125 1263.125 L 922.109375 1263.28125 L 913.476562 1263.359375 L 904.804688 1263.28125 L 896.09375 1263.125 L 887.304688 1262.851562 L 878.515625 1262.460938 L 860.820312 1261.367188 L 842.96875 1259.765625 L 825.039062 1257.734375 L 788.867188 1252.304688 L 752.5 1245.078125 L 679.726562 1225.117188 L 607.8125 1198.125 L 537.929688 1164.453125 L 471.171875 1124.570312 L 351.054688 1028.789062 L 299.453125 974.492188 L 254.492188 917.148438 L 216.757812 857.734375 L 186.71875 797.304688 L 174.6875 767.109375 L 164.6875 737.070312 L 156.71875 707.304688 L 153.515625 692.578125 " transform="matrix(0.1, 0, 0, -0.1, 0, 200)"/>
<path fill="none" stroke-width="6.96" stroke-linecap="round" stroke-linejoin="round" stroke="rgb(0%, 0%, 0%)" stroke-opacity="1" stroke-miterlimit="10" d="M 153.515625 692.578125 L 150.820312 677.96875 L 148.632812 663.515625 L 146.953125 649.257812 L 146.328125 642.1875 L 145.78125 635.15625 L 145.390625 628.164062 L 145.117188 621.25 L 145 614.375 L 144.960938 607.578125 L 145.078125 600.820312 L 145.3125 594.101562 L 145.664062 587.460938 L 146.132812 580.898438 L 147.460938 567.929688 L 149.257812 555.273438 L 151.5625 542.890625 L 157.539062 519.0625 L 165.351562 496.640625 L 174.921875 475.664062 L 186.171875 456.25 L 199.0625 438.515625 L 213.4375 422.578125 L 229.21875 408.476562 L 246.367188 396.328125 L 264.6875 386.210938 L 284.140625 378.164062 L 294.21875 374.921875 L 304.53125 372.226562 L 315.078125 370.078125 L 320.429688 369.179688 L 325.820312 368.476562 L 331.25 367.890625 L 336.757812 367.421875 L 342.265625 367.109375 L 347.8125 366.953125 L 353.4375 366.914062 L 359.0625 366.992188 L 364.726562 367.265625 L 370.429688 367.617188 L 376.171875 368.164062 L 381.953125 368.828125 L 393.554688 370.585938 L 405.234375 372.929688 L 416.992188 375.820312 L 440.664062 383.28125 L 464.414062 393.007812 L 488.125 404.960938 L 534.882812 435.390625 L 579.882812 474.257812 L 622.1875 520.976562 " transform="matrix(0.1, 0, 0, -0.1, 0, 200)"/>
<path fill="none" stroke-width="6.96" stroke-linecap="round" stroke-linejoin="round" stroke="rgb(0%, 0%, 0%)" stroke-opacity="1" stroke-miterlimit="10" d="M 622.1875 520.976562 L 660.898438 574.960938 L 695.117188 635.351562 L 724.179688 701.367188 L 736.5625 736.09375 L 747.460938 771.914062 L 756.757812 808.554688 L 764.453125 845.9375 L 770.46875 883.945312 L 772.8125 903.125 L 774.765625 922.382812 L 776.289062 941.71875 L 776.914062 951.40625 L 777.382812 961.09375 L 777.734375 970.820312 L 778.007812 980.546875 L 778.164062 990.273438 L 778.242188 1000 L 778.164062 1009.726562 L 778.007812 1019.453125 L 777.734375 1029.140625 L 777.382812 1038.90625 L 776.289062 1058.28125 L 774.765625 1077.617188 L 772.8125 1096.875 L 770.46875 1116.054688 L 764.453125 1154.023438 L 756.757812 1191.445312 L 747.460938 1228.085938 L 724.179688 1298.632812 L 695.117188 1364.648438 L 660.898438 1425.039062 L 622.1875 1478.984375 L 579.882812 1525.742188 L 534.882812 1564.570312 L 511.679688 1580.898438 L 488.125 1595.039062 L 464.414062 1606.992188 L 440.664062 1616.71875 L 416.992188 1624.179688 L 405.234375 1627.070312 L 393.554688 1629.414062 L 381.953125 1631.171875 L 376.171875 1631.835938 L 370.429688 1632.34375 L 364.726562 1632.734375 L 359.0625 1633.007812 L 353.4375 1633.085938 L 347.8125 1633.046875 L 342.265625 1632.890625 L 336.757812 1632.578125 " transform="matrix(0.1, 0, 0, -0.1, 0, 200)"/>
<path fill="none" stroke-width="6.96" stroke-linecap="round" stroke-linejoin="round" stroke="rgb(0%, 0%, 0%)" stroke-opacity="1" stroke-miterlimit="10" d="M 336.757812 1632.578125 L 331.25 1632.109375 L 325.820312 1631.523438 L 315.078125 1629.921875 L 304.53125 1627.773438 L 294.21875 1625.078125 L 284.140625 1621.835938 L 264.6875 1613.789062 L 246.367188 1603.671875 L 229.21875 1591.523438 L 213.4375 1577.421875 L 199.0625 1561.445312 L 186.171875 1543.75 L 174.921875 1524.335938 L 165.351562 1503.359375 L 157.539062 1480.898438 L 154.335938 1469.140625 L 151.5625 1457.109375 L 149.257812 1444.726562 L 147.460938 1432.03125 L 146.757812 1425.625 L 146.132812 1419.101562 L 145.664062 1412.539062 L 145.3125 1405.898438 L 145.078125 1399.179688 L 144.960938 1392.421875 L 145 1385.625 L 145.117188 1378.75 L 145.390625 1371.835938 L 145.78125 1364.84375 L 146.953125 1350.742188 L 148.632812 1336.445312 L 150.820312 1321.992188 L 156.71875 1292.695312 L 164.6875 1262.96875 L 186.71875 1202.65625 L 216.757812 1142.265625 L 254.492188 1082.851562 L 299.453125 1025.507812 L 351.054688 971.171875 L 408.554688 920.898438 L 471.171875 875.429688 L 537.929688 835.546875 L 607.8125 801.875 L 679.726562 774.882812 L 716.09375 764.023438 L 752.5 754.921875 L 788.867188 747.695312 L 806.992188 744.726562 L 825.039062 742.226562 L 842.96875 740.234375 " transform="matrix(0.1, 0, 0, -0.1, 0, 200)"/>
<path fill="none" stroke-width="6.96" stroke-linecap="round" stroke-linejoin="round" stroke="rgb(0%, 0%, 0%)" stroke-opacity="1" stroke-miterlimit="10" d="M 842.96875 740.234375 L 860.820312 738.632812 L 869.6875 738.007812 L 878.515625 737.539062 L 887.304688 737.148438 L 896.09375 736.875 L 904.804688 736.679688 L 913.476562 736.640625 L 922.109375 736.71875 L 930.703125 736.875 L 939.21875 737.1875 L 947.734375 737.539062 L 956.132812 738.085938 L 964.53125 738.671875 L 981.09375 740.273438 L 997.421875 742.226562 L 1029.21875 747.5 L 1059.84375 754.414062 L 1089.140625 762.929688 L 1116.992188 772.96875 L 1143.242188 784.453125 L 1190.664062 811.484375 L 1230.585938 843.242188 L 1247.539062 860.625 L 1262.382812 878.90625 L 1275.039062 897.929688 L 1285.429688 917.578125 L 1289.804688 927.578125 L 1293.59375 937.734375 L 1296.835938 947.96875 L 1299.453125 958.242188 L 1301.484375 968.632812 L 1302.304688 973.867188 L 1302.96875 979.0625 L 1303.476562 984.296875 L 1303.867188 989.53125 L 1304.0625 994.765625 L 1304.140625 1000 " transform="matrix(0.1, 0, 0, -0.1, 0, 200)"/>
<path fill="none" stroke-width="6.96" stroke-linecap="round" stroke-linejoin="round" stroke="rgb(0%, 0%, 0%)" stroke-opacity="1" stroke-miterlimit="10" d="M 1369.882812 1000 L 1369.804688 1004.6875 L 1369.570312 1009.335938 L 1369.21875 1014.023438 L 1368.671875 1018.671875 L 1367.148438 1027.96875 L 1365.039062 1037.226562 L 1362.304688 1046.445312 L 1358.984375 1055.546875 L 1350.585938 1073.476562 L 1339.804688 1090.898438 L 1326.71875 1107.734375 L 1311.40625 1123.789062 L 1293.90625 1139.023438 L 1274.257812 1153.28125 L 1252.617188 1166.484375 L 1203.554688 1189.335938 L 1176.328125 1198.789062 L 1147.5 1206.835938 L 1117.148438 1213.359375 L 1101.445312 1216.054688 L 1085.390625 1218.359375 L 1069.023438 1220.195312 L 1052.382812 1221.71875 L 1043.945312 1222.304688 L 1035.429688 1222.734375 L 1026.875 1223.125 L 1018.242188 1223.398438 L 1009.53125 1223.554688 L 1000.78125 1223.59375 L 991.953125 1223.554688 L 983.085938 1223.398438 L 974.140625 1223.125 L 965.195312 1222.734375 L 947.070312 1221.640625 L 928.789062 1220.117188 L 910.351562 1218.125 L 873.046875 1212.851562 L 835.351562 1205.820312 L 797.382812 1196.992188 L 721.210938 1174.101562 L 645.742188 1144.414062 L 572.109375 1108.28125 L 501.445312 1066.171875 L 373.046875 966.835938 L 317.1875 911.210938 L 267.851562 852.773438 L 225.703125 792.617188 L 191.171875 731.757812 L 164.6875 671.328125 " transform="matrix(0.1, 0, 0, -0.1, 0, 200)"/>
<path fill="none" stroke-width="6.96" stroke-linecap="round" stroke-linejoin="round" stroke="rgb(0%, 0%, 0%)" stroke-opacity="1" stroke-miterlimit="10" d="M 164.6875 671.328125 L 154.492188 641.601562 L 146.328125 612.382812 L 140.234375 583.867188 L 137.96875 569.882812 L 136.171875 556.132812 L 135.46875 549.335938 L 134.921875 542.617188 L 134.453125 535.9375 L 134.140625 529.335938 L 133.945312 522.773438 L 133.867188 516.328125 L 133.945312 509.921875 L 134.101562 503.59375 L 134.414062 497.34375 L 134.804688 491.171875 L 135.351562 485.039062 L 136.015625 479.023438 L 137.65625 467.226562 L 139.804688 455.78125 L 145.46875 433.984375 L 152.890625 413.710938 L 162.070312 395.078125 L 172.851562 378.242188 L 185.195312 363.203125 L 198.984375 350.117188 L 214.140625 339.0625 L 230.546875 330.039062 L 248.085938 323.164062 L 257.226562 320.546875 L 266.640625 318.515625 L 271.40625 317.695312 L 276.25 317.03125 L 281.132812 316.484375 L 286.09375 316.09375 L 291.09375 315.859375 L 296.132812 315.742188 L 301.210938 315.78125 L 306.328125 315.9375 L 311.523438 316.25 L 316.71875 316.71875 L 321.953125 317.34375 L 327.226562 318.085938 L 337.890625 320.039062 L 348.671875 322.539062 L 370.507812 329.296875 L 392.617188 338.4375 L 437.148438 363.476562 L 481.171875 397.5 L 523.710938 440.117188 L 563.828125 490.742188 " transform="matrix(0.1, 0, 0, -0.1, 0, 200)"/>
<path fill="none" stroke-width="6.96" stroke-linecap="round" stroke-linejoin="round" stroke="rgb(0%, 0%, 0%)" stroke-opacity="1" stroke-miterlimit="10" d="M 563.828125 490.742188 L 600.585938 548.75 L 633.203125 613.359375 L 660.898438 683.632812 L 672.734375 720.546875 L 683.085938 758.515625 L 691.992188 797.382812 L 699.296875 836.992188 L 705.078125 877.226562 L 707.34375 897.5 L 709.179688 917.890625 L 710.625 938.359375 L 711.210938 948.59375 L 711.679688 958.867188 L 712.03125 969.140625 L 712.304688 979.414062 L 712.421875 989.726562 L 712.5 1000 L 712.421875 1010.273438 L 712.304688 1020.585938 L 712.03125 1030.859375 L 711.679688 1041.132812 L 710.625 1061.640625 L 709.179688 1082.109375 L 707.34375 1102.460938 L 705.078125 1122.773438 L 699.296875 1162.96875 L 691.992188 1202.617188 L 683.085938 1241.484375 L 660.898438 1316.367188 L 633.203125 1386.640625 L 600.585938 1451.210938 L 563.828125 1509.257812 L 523.710938 1559.882812 L 481.171875 1602.5 L 437.148438 1636.523438 L 392.617188 1661.5625 L 370.507812 1670.664062 L 359.570312 1674.375 L 348.671875 1677.460938 L 337.890625 1679.960938 L 327.226562 1681.914062 L 321.953125 1682.65625 L 316.71875 1683.242188 L 311.523438 1683.710938 L 306.328125 1684.0625 L 301.210938 1684.21875 L 296.132812 1684.257812 L 291.09375 1684.140625 L 286.09375 1683.90625 L 281.132812 1683.515625 " transform="matrix(0.1, 0, 0, -0.1, 0, 200)"/>
<path fill="none" stroke-width="6.96" stroke-linecap="round" stroke-linejoin="round" stroke="rgb(0%, 0%, 0%)" stroke-opacity="1" stroke-miterlimit="10" d="M 281.132812 1683.515625 L 276.25 1682.96875 L 266.640625 1681.484375 L 257.226562 1679.414062 L 248.085938 1676.796875 L 230.546875 1669.960938 L 214.140625 1660.976562 L 198.984375 1649.882812 L 185.195312 1636.796875 L 172.851562 1621.757812 L 162.070312 1604.882812 L 152.890625 1586.289062 L 145.46875 1566.015625 L 142.421875 1555.3125 L 139.804688 1544.21875 L 137.65625 1532.734375 L 136.796875 1526.914062 L 136.015625 1520.976562 L 135.351562 1514.960938 L 134.804688 1508.828125 L 134.414062 1502.65625 L 134.101562 1496.40625 L 133.945312 1490.078125 L 133.867188 1483.671875 L 133.945312 1477.226562 L 134.140625 1470.664062 L 134.453125 1464.0625 L 134.921875 1457.382812 L 135.46875 1450.664062 L 136.171875 1443.867188 L 137.96875 1430.117188 L 140.234375 1416.132812 L 146.328125 1387.617188 L 154.492188 1358.398438 L 164.6875 1328.671875 L 191.171875 1268.242188 L 225.703125 1207.382812 L 267.851562 1147.1875 L 373.046875 1033.125 L 434.765625 981.171875 L 501.445312 933.789062 L 572.109375 891.71875 L 645.742188 855.585938 L 721.210938 825.898438 L 759.296875 813.554688 L 797.382812 802.96875 L 835.351562 794.140625 L 873.046875 787.109375 L 891.757812 784.257812 L 910.351562 781.835938 L 928.789062 779.882812 " transform="matrix(0.1, 0, 0, -0.1, 0, 200)"/>
<path fill="none" stroke-width="6.96" stroke-linecap="round" stroke-linejoin="round" stroke="rgb(0%, 0%, 0%)" stroke-opacity="1" stroke-miterlimit="10" d="M 928.789062 779.882812 L 947.070312 778.359375 L 956.132812 777.734375 L 965.195312 777.226562 L 974.140625 776.875 L 983.085938 776.601562 L 991.953125 776.445312 L 1000.78125 776.40625 L 1009.53125 776.445312 L 1018.242188 776.601562 L 1026.875 776.875 L 1035.429688 777.226562 L 1052.382812 778.28125 L 1069.023438 779.765625 L 1085.390625 781.679688 L 1117.148438 786.640625 L 1147.5 793.203125 L 1176.328125 801.210938 L 1203.554688 810.664062 L 1228.984375 821.445312 L 1252.617188 833.515625 L 1274.257812 846.71875 L 1293.90625 860.976562 L 1311.40625 876.210938 L 1326.71875 892.265625 L 1339.804688 909.101562 L 1350.585938 926.523438 L 1355.078125 935.429688 L 1358.984375 944.453125 L 1362.304688 953.554688 L 1365.039062 962.734375 L 1367.148438 971.992188 L 1368.007812 976.640625 L 1368.671875 981.328125 L 1369.21875 985.976562 L 1369.570312 990.625 L 1369.804688 995.3125 L 1369.882812 1000 " transform="matrix(0.1, 0, 0, -0.1, 0, 200)"/>
<path fill="none" stroke-width="6.96" stroke-linecap="round" stroke-linejoin="round" stroke="rgb(0%, 0%, 0%)" stroke-opacity="1" stroke-miterlimit="10" d="M 1435.625 1000 L 1435.546875 1004.101562 L 1435.3125 1008.242188 L 1434.921875 1012.34375 L 1434.375 1016.445312 L 1432.8125 1024.609375 L 1430.625 1032.734375 L 1427.8125 1040.820312 L 1424.375 1048.828125 L 1415.703125 1064.53125 L 1404.570312 1079.765625 L 1391.09375 1094.335938 L 1375.273438 1108.242188 L 1357.1875 1121.289062 L 1336.914062 1133.398438 L 1314.53125 1144.492188 L 1263.867188 1163.125 L 1235.703125 1170.546875 L 1205.859375 1176.5625 L 1174.453125 1181.132812 L 1158.203125 1182.851562 L 1149.921875 1183.554688 L 1141.5625 1184.179688 L 1133.125 1184.6875 L 1124.609375 1185.117188 L 1116.015625 1185.429688 L 1107.34375 1185.625 L 1098.59375 1185.742188 L 1089.765625 1185.742188 L 1080.898438 1185.664062 L 1071.953125 1185.46875 L 1062.890625 1185.195312 L 1053.828125 1184.804688 L 1035.46875 1183.671875 L 1016.875 1182.148438 L 998.046875 1180.15625 L 959.921875 1174.921875 L 921.09375 1168.007812 L 842.226562 1148.945312 L 762.695312 1123.125 L 683.632812 1090.703125 L 531.679688 1007.8125 L 395.078125 904.921875 L 281.210938 788.4375 L 234.648438 727.460938 L 195.664062 666.171875 L 164.6875 605.585938 L 152.265625 575.898438 L 141.835938 546.796875 L 133.515625 518.476562 " transform="matrix(0.1, 0, 0, -0.1, 0, 200)"/>
<path fill="none" stroke-width="6.96" stroke-linecap="round" stroke-linejoin="round" stroke="rgb(0%, 0%, 0%)" stroke-opacity="1" stroke-miterlimit="10" d="M 133.515625 518.476562 L 130.117188 504.609375 L 127.226562 490.976562 L 124.84375 477.617188 L 122.96875 464.570312 L 122.226562 458.085938 L 121.601562 451.71875 L 121.09375 445.429688 L 120.742188 439.21875 L 120.46875 433.085938 L 120.351562 427.03125 L 120.3125 421.054688 L 120.429688 415.15625 L 120.664062 409.335938 L 121.015625 403.632812 L 121.484375 398.007812 L 122.070312 392.460938 L 123.59375 381.71875 L 125.585938 371.328125 L 128.007812 361.328125 L 130.898438 351.757812 L 137.929688 333.945312 L 146.679688 317.929688 L 156.953125 303.828125 L 168.75 291.757812 L 181.914062 281.757812 L 188.984375 277.539062 L 196.367188 273.867188 L 204.0625 270.78125 L 212.03125 268.203125 L 220.234375 266.210938 L 224.453125 265.429688 L 228.710938 264.804688 L 233.046875 264.335938 L 237.421875 263.984375 L 241.875 263.789062 L 246.367188 263.710938 L 250.9375 263.789062 L 255.507812 264.023438 L 260.15625 264.414062 L 264.84375 264.960938 L 274.375 266.445312 L 284.023438 268.554688 L 303.828125 274.492188 L 324.023438 282.851562 L 344.609375 293.554688 L 386.132812 321.992188 L 427.460938 359.609375 L 467.539062 405.9375 L 505.46875 460.507812 L 540.3125 522.578125 " transform="matrix(0.1, 0, 0, -0.1, 0, 200)"/>
<path fill="none" stroke-width="6.96" stroke-linecap="round" stroke-linejoin="round" stroke="rgb(0%, 0%, 0%)" stroke-opacity="1" stroke-miterlimit="10" d="M 540.3125 522.578125 L 571.25 591.328125 L 597.578125 665.859375 L 608.828125 705 L 618.710938 745.15625 L 627.1875 786.210938 L 634.179688 828.046875 L 639.648438 870.507812 L 641.835938 891.914062 L 643.59375 913.398438 L 645 934.960938 L 645.507812 945.820312 L 645.976562 956.601562 L 646.328125 967.460938 L 646.5625 978.320312 L 646.71875 989.140625 L 646.757812 1000 L 646.71875 1010.859375 L 646.5625 1021.71875 L 646.328125 1032.539062 L 645.976562 1043.398438 L 645 1065 L 643.59375 1086.5625 L 641.835938 1108.085938 L 639.648438 1129.492188 L 634.179688 1171.953125 L 627.1875 1213.789062 L 618.710938 1254.84375 L 597.578125 1334.101562 L 571.25 1408.671875 L 540.3125 1477.421875 L 505.46875 1539.492188 L 467.539062 1594.0625 L 427.460938 1640.390625 L 386.132812 1678.007812 L 344.609375 1706.445312 L 324.023438 1717.148438 L 303.828125 1725.507812 L 293.867188 1728.789062 L 284.023438 1731.445312 L 274.375 1733.554688 L 264.84375 1735.039062 L 260.15625 1735.585938 L 255.507812 1735.9375 L 250.9375 1736.210938 L 246.367188 1736.289062 L 241.875 1736.210938 L 237.421875 1736.015625 L 233.046875 1735.664062 L 228.710938 1735.195312 L 224.453125 1734.53125 " transform="matrix(0.1, 0, 0, -0.1, 0, 200)"/>
<path fill="none" stroke-width="6.96" stroke-linecap="round" stroke-linejoin="round" stroke="rgb(0%, 0%, 0%)" stroke-opacity="1" stroke-miterlimit="10" d="M 224.453125 1734.53125 L 220.234375 1733.75 L 212.03125 1731.757812 L 204.0625 1729.21875 L 196.367188 1726.132812 L 181.914062 1718.242188 L 168.75 1708.242188 L 156.953125 1696.171875 L 146.679688 1682.070312 L 137.929688 1666.054688 L 134.21875 1657.34375 L 130.898438 1648.203125 L 128.007812 1638.671875 L 125.585938 1628.671875 L 123.59375 1618.28125 L 122.773438 1612.96875 L 122.070312 1607.5 L 121.484375 1601.953125 L 121.015625 1596.367188 L 120.664062 1590.625 L 120.429688 1584.84375 L 120.3125 1578.945312 L 120.351562 1572.96875 L 120.46875 1566.914062 L 120.742188 1560.78125 L 121.09375 1554.53125 L 121.601562 1548.242188 L 122.96875 1535.46875 L 124.84375 1522.34375 L 127.226562 1508.984375 L 133.515625 1481.523438 L 141.835938 1453.164062 L 164.6875 1394.414062 L 195.664062 1333.828125 L 281.210938 1211.5625 L 395.078125 1095.078125 L 531.679688 992.1875 L 606.25 947.890625 L 683.632812 909.257812 L 762.695312 876.875 L 842.226562 851.015625 L 881.835938 840.664062 L 921.09375 831.992188 L 959.921875 825.039062 L 979.0625 822.226562 L 998.046875 819.804688 L 1016.875 817.851562 L 1035.46875 816.328125 L 1053.828125 815.195312 L 1062.890625 814.804688 L 1071.953125 814.492188 " transform="matrix(0.1, 0, 0, -0.1, 0, 200)"/>
<path fill="none" stroke-width="6.96" stroke-linecap="round" stroke-linejoin="round" stroke="rgb(0%, 0%, 0%)" stroke-opacity="1" stroke-miterlimit="10" d="M 1071.953125 814.492188 L 1080.898438 814.296875 L 1089.765625 814.21875 L 1098.59375 814.21875 L 1107.34375 814.335938 L 1116.015625 814.570312 L 1124.609375 814.882812 L 1133.125 815.3125 L 1141.5625 815.820312 L 1158.203125 817.148438 L 1174.453125 818.867188 L 1205.859375 823.4375 L 1235.703125 829.453125 L 1263.867188 836.835938 L 1290.15625 845.546875 L 1314.53125 855.507812 L 1336.914062 866.5625 L 1357.1875 878.710938 L 1375.273438 891.757812 L 1391.09375 905.625 L 1404.570312 920.273438 L 1415.703125 935.46875 L 1420.351562 943.242188 L 1424.375 951.171875 L 1427.8125 959.179688 L 1430.625 967.226562 L 1432.8125 975.390625 L 1433.671875 979.453125 L 1434.375 983.554688 L 1434.921875 987.65625 L 1435.3125 991.757812 L 1435.546875 995.859375 L 1435.625 1000 " transform="matrix(0.1, 0, 0, -0.1, 0, 200)"/>
<path fill="none" stroke-width="6.96" stroke-linecap="round" stroke-linejoin="round" stroke="rgb(0%, 0%, 0%)" stroke-opacity="1" stroke-miterlimit="10" d="M 1501.367188 1000 L 1501.289062 1003.554688 L 1501.015625 1007.109375 L 1500.625 1010.664062 L 1500.078125 1014.21875 L 1498.4375 1021.25 L 1496.210938 1028.28125 L 1493.28125 1035.234375 L 1489.765625 1042.109375 L 1480.820312 1055.585938 L 1469.375 1068.554688 L 1455.46875 1080.976562 L 1439.140625 1092.65625 L 1420.46875 1103.554688 L 1399.609375 1113.515625 L 1376.484375 1122.460938 L 1351.328125 1130.3125 L 1324.140625 1136.953125 L 1295.078125 1142.304688 L 1279.882812 1144.492188 L 1264.257812 1146.328125 L 1248.203125 1147.8125 L 1240.039062 1148.398438 L 1231.757812 1148.90625 L 1223.398438 1149.335938 L 1214.921875 1149.648438 L 1206.367188 1149.882812 L 1197.734375 1150.039062 L 1189.023438 1150.078125 L 1180.195312 1150 L 1171.289062 1149.84375 L 1162.304688 1149.609375 L 1153.28125 1149.257812 L 1144.140625 1148.789062 L 1125.625 1147.578125 L 1106.875 1145.976562 L 1087.851562 1143.945312 L 1049.0625 1138.671875 L 1009.453125 1131.757812 L 969.140625 1123.125 L 887.109375 1100.9375 L 804.179688 1072.148438 L 721.5625 1036.992188 L 561.914062 949.453125 L 417.070312 842.96875 L 294.609375 724.0625 L 243.59375 662.34375 L 200.15625 600.585938 L 164.6875 539.84375 L 137.382812 481.25 " transform="matrix(0.1, 0, 0, -0.1, 0, 200)"/>
<path fill="none" stroke-width="6.96" stroke-linecap="round" stroke-linejoin="round" stroke="rgb(0%, 0%, 0%)" stroke-opacity="1" stroke-miterlimit="10" d="M 137.382812 481.25 L 118.28125 425.859375 L 111.796875 399.765625 L 109.335938 387.148438 L 107.34375 374.84375 L 106.523438 368.828125 L 105.859375 362.890625 L 105.3125 357.070312 L 104.882812 351.289062 L 104.570312 345.625 L 104.375 340.039062 L 104.296875 334.570312 L 104.335938 329.179688 L 104.492188 323.90625 L 104.765625 318.710938 L 105.195312 313.632812 L 105.703125 308.671875 L 107.070312 299.023438 L 108.90625 289.804688 L 111.132812 281.054688 L 113.828125 272.773438 L 116.953125 264.960938 L 120.46875 257.617188 L 128.710938 244.492188 L 133.4375 238.671875 L 138.515625 233.398438 L 143.945312 228.632812 L 149.6875 224.414062 L 155.820312 220.78125 L 162.226562 217.695312 L 168.945312 215.195312 L 172.421875 214.140625 L 175.976562 213.242188 L 179.570312 212.5 L 183.242188 211.875 L 186.992188 211.40625 L 190.820312 211.09375 L 194.6875 210.9375 L 198.632812 210.9375 L 202.617188 211.054688 L 206.640625 211.328125 L 210.742188 211.757812 L 214.921875 212.34375 L 223.359375 213.945312 L 232.03125 216.171875 L 240.820312 218.984375 L 258.945312 226.484375 L 277.539062 236.367188 L 296.5625 248.671875 L 335.15625 280.507812 L 373.75 321.679688 " transform="matrix(0.1, 0, 0, -0.1, 0, 200)"/>
<path fill="none" stroke-width="6.96" stroke-linecap="round" stroke-linejoin="round" stroke="rgb(0%, 0%, 0%)" stroke-opacity="1" stroke-miterlimit="10" d="M 373.75 321.679688 L 411.40625 371.796875 L 447.109375 430.273438 L 480 496.367188 L 509.296875 569.296875 L 534.296875 648.125 L 544.960938 689.414062 L 554.375 731.757812 L 562.421875 775.039062 L 569.0625 819.101562 L 574.257812 863.789062 L 576.328125 886.289062 L 578.007812 908.90625 L 579.335938 931.601562 L 579.84375 943.007812 L 580.273438 954.375 L 580.585938 965.78125 L 580.859375 977.1875 L 580.976562 988.59375 L 581.015625 1000 L 580.976562 1011.40625 L 580.859375 1022.8125 L 580.585938 1034.21875 L 580.273438 1045.625 L 579.335938 1068.398438 L 578.007812 1091.054688 L 576.328125 1113.671875 L 574.257812 1136.210938 L 569.0625 1180.898438 L 562.421875 1224.960938 L 554.375 1268.203125 L 534.296875 1351.875 L 509.296875 1430.664062 L 480 1503.632812 L 447.109375 1569.765625 L 411.40625 1628.203125 L 373.75 1678.320312 L 335.15625 1719.492188 L 296.5625 1751.328125 L 277.539062 1763.632812 L 258.945312 1773.554688 L 249.84375 1777.578125 L 240.820312 1781.015625 L 232.03125 1783.828125 L 223.359375 1786.054688 L 219.101562 1786.914062 L 214.921875 1787.65625 L 210.742188 1788.242188 L 206.640625 1788.671875 L 202.617188 1788.945312 L 198.632812 1789.0625 " transform="matrix(0.1, 0, 0, -0.1, 0, 200)"/>
<path fill="none" stroke-width="6.96" stroke-linecap="round" stroke-linejoin="round" stroke="rgb(0%, 0%, 0%)" stroke-opacity="1" stroke-miterlimit="10" d="M 198.632812 1789.0625 L 194.6875 1789.0625 L 190.820312 1788.867188 L 186.992188 1788.554688 L 183.242188 1788.125 L 179.570312 1787.5 L 175.976562 1786.757812 L 168.945312 1784.804688 L 162.226562 1782.304688 L 155.820312 1779.21875 L 149.6875 1775.546875 L 143.945312 1771.367188 L 138.515625 1766.601562 L 128.710938 1755.546875 L 124.414062 1749.179688 L 120.46875 1742.34375 L 116.953125 1735.039062 L 113.828125 1727.226562 L 111.132812 1718.90625 L 108.90625 1710.15625 L 107.070312 1700.976562 L 106.328125 1696.210938 L 105.703125 1691.328125 L 105.195312 1686.367188 L 104.765625 1681.289062 L 104.492188 1676.09375 L 104.335938 1670.78125 L 104.296875 1665.429688 L 104.375 1659.960938 L 104.570312 1654.375 L 104.882812 1648.710938 L 105.3125 1642.96875 L 105.859375 1637.109375 L 107.34375 1625.117188 L 109.335938 1612.851562 L 111.796875 1600.234375 L 118.28125 1574.101562 L 137.382812 1518.789062 L 164.6875 1460.15625 L 200.15625 1399.414062 L 294.609375 1275.9375 L 417.070312 1157.03125 L 561.914062 1050.546875 L 640.390625 1004.0625 L 721.5625 963.007812 L 804.179688 927.851562 L 887.109375 899.0625 L 969.140625 876.875 L 1009.453125 868.242188 L 1049.0625 861.328125 L 1087.851562 856.054688 " transform="matrix(0.1, 0, 0, -0.1, 0, 200)"/>
<path fill="none" stroke-width="6.96" stroke-linecap="round" stroke-linejoin="round" stroke="rgb(0%, 0%, 0%)" stroke-opacity="1" stroke-miterlimit="10" d="M 1087.851562 856.054688 L 1106.875 854.023438 L 1125.625 852.421875 L 1134.921875 851.757812 L 1144.140625 851.210938 L 1153.28125 850.78125 L 1162.304688 850.429688 L 1171.289062 850.15625 L 1180.195312 850 L 1189.023438 849.921875 L 1197.734375 849.960938 L 1206.367188 850.117188 L 1214.921875 850.351562 L 1223.398438 850.664062 L 1231.757812 851.054688 L 1248.203125 852.1875 L 1264.257812 853.671875 L 1295.078125 857.65625 L 1324.140625 863.046875 L 1351.328125 869.6875 L 1376.484375 877.539062 L 1399.609375 886.484375 L 1420.46875 896.445312 L 1439.140625 907.34375 L 1455.46875 919.023438 L 1469.375 931.445312 L 1480.820312 944.414062 L 1485.625 951.09375 L 1489.765625 957.890625 L 1493.28125 964.765625 L 1496.210938 971.71875 L 1498.4375 978.75 L 1499.335938 982.265625 L 1500.078125 985.820312 L 1500.625 989.335938 L 1501.015625 992.890625 L 1501.289062 996.445312 L 1501.367188 1000 " transform="matrix(0.1, 0, 0, -0.1, 0, 200)"/>
<path fill="none" stroke-width="6.96" stroke-linecap="round" stroke-linejoin="round" stroke="rgb(0%, 0%, 0%)" stroke-opacity="1" stroke-miterlimit="10" d="M 1567.109375 1000 L 1566.992188 1003.007812 L 1566.757812 1005.976562 L 1566.367188 1008.945312 L 1565.78125 1011.953125 L 1564.101562 1017.890625 L 1561.796875 1023.789062 L 1558.828125 1029.609375 L 1555.195312 1035.390625 L 1545.9375 1046.640625 L 1534.140625 1057.382812 L 1519.804688 1067.617188 L 1503.007812 1077.109375 L 1483.789062 1085.820312 L 1462.226562 1093.632812 L 1438.4375 1100.46875 L 1412.460938 1106.171875 L 1384.414062 1110.78125 L 1369.6875 1112.578125 L 1354.453125 1114.101562 L 1346.640625 1114.726562 L 1338.75 1115.273438 L 1330.742188 1115.703125 L 1322.617188 1116.09375 L 1314.375 1116.367188 L 1306.054688 1116.5625 L 1297.617188 1116.679688 L 1289.0625 1116.71875 L 1280.390625 1116.640625 L 1271.679688 1116.445312 L 1262.851562 1116.210938 L 1253.90625 1115.859375 L 1235.78125 1114.882812 L 1217.304688 1113.554688 L 1179.375 1109.6875 L 1140.234375 1104.21875 L 1100.039062 1097.1875 L 1017.1875 1078.28125 L 931.992188 1052.890625 L 759.453125 983.28125 L 592.148438 891.09375 L 439.101562 781.054688 L 307.96875 659.6875 L 204.648438 535 L 164.6875 474.101562 L 132.890625 415.625 L 109.335938 360.742188 L 100.625 334.960938 L 93.984375 310.507812 L 91.367188 298.789062 " transform="matrix(0.1, 0, 0, -0.1, 0, 200)"/>
<path fill="none" stroke-width="6.96" stroke-linecap="round" stroke-linejoin="round" stroke="rgb(0%, 0%, 0%)" stroke-opacity="1" stroke-miterlimit="10" d="M 91.367188 298.789062 L 89.296875 287.421875 L 87.695312 276.445312 L 87.109375 271.09375 L 86.601562 265.898438 L 86.210938 260.78125 L 85.976562 255.742188 L 85.820312 250.820312 L 85.820312 246.015625 L 85.898438 241.328125 L 86.132812 236.71875 L 86.445312 232.226562 L 86.875 227.890625 L 87.421875 223.632812 L 88.085938 219.53125 L 89.726562 211.640625 L 91.796875 204.21875 L 94.296875 197.34375 L 97.1875 190.976562 L 100.507812 185.117188 L 104.179688 179.765625 L 108.28125 175 L 112.695312 170.820312 L 117.5 167.148438 L 122.617188 164.0625 L 128.046875 161.523438 L 130.9375 160.507812 L 133.828125 159.609375 L 136.835938 158.867188 L 139.921875 158.28125 L 143.046875 157.8125 L 146.25 157.539062 L 149.570312 157.382812 L 152.890625 157.421875 L 156.328125 157.578125 L 159.765625 157.890625 L 163.320312 158.320312 L 166.953125 158.945312 L 174.296875 160.625 L 181.875 162.96875 L 197.65625 169.453125 L 214.0625 178.4375 L 248.515625 203.828125 L 284.140625 239.023438 L 320.039062 283.75 L 355.234375 337.617188 L 388.75 400 L 419.6875 470.195312 L 447.34375 547.304688 L 470.976562 630.390625 L 481.09375 673.867188 " transform="matrix(0.1, 0, 0, -0.1, 0, 200)"/>
<path fill="none" stroke-width="6.96" stroke-linecap="round" stroke-linejoin="round" stroke="rgb(0%, 0%, 0%)" stroke-opacity="1" stroke-miterlimit="10" d="M 481.09375 673.867188 L 490 718.398438 L 497.65625 763.867188 L 503.945312 810.15625 L 508.867188 857.03125 L 510.820312 880.703125 L 512.421875 904.453125 L 513.671875 928.28125 L 514.179688 940.195312 L 514.570312 952.148438 L 514.882812 964.101562 L 515.117188 976.054688 L 515.234375 988.007812 L 515.273438 1000 L 515.234375 1011.953125 L 515.117188 1023.945312 L 514.882812 1035.898438 L 514.570312 1047.851562 L 513.671875 1071.757812 L 512.421875 1095.546875 L 510.820312 1119.296875 L 508.867188 1142.929688 L 503.945312 1189.84375 L 497.65625 1236.132812 L 490 1281.601562 L 470.976562 1369.609375 L 447.34375 1452.695312 L 419.6875 1529.804688 L 388.75 1600 L 355.234375 1662.382812 L 320.039062 1716.210938 L 284.140625 1760.976562 L 248.515625 1796.171875 L 231.054688 1810.117188 L 214.0625 1821.5625 L 197.65625 1830.546875 L 181.875 1837.03125 L 174.296875 1839.335938 L 170.585938 1840.273438 L 166.953125 1841.054688 L 163.320312 1841.640625 L 159.765625 1842.148438 L 156.328125 1842.421875 L 152.890625 1842.578125 L 149.570312 1842.578125 L 146.25 1842.460938 L 143.046875 1842.148438 L 139.921875 1841.71875 L 133.828125 1840.390625 L 130.9375 1839.492188 L 128.046875 1838.4375 " transform="matrix(0.1, 0, 0, -0.1, 0, 200)"/>
<path fill="none" stroke-width="6.96" stroke-linecap="round" stroke-linejoin="round" stroke="rgb(0%, 0%, 0%)" stroke-opacity="1" stroke-miterlimit="10" d="M 128.046875 1838.4375 L 122.617188 1835.9375 L 117.5 1832.851562 L 112.695312 1829.21875 L 108.28125 1824.960938 L 100.507812 1814.882812 L 97.1875 1809.023438 L 94.296875 1802.65625 L 91.796875 1795.742188 L 89.726562 1788.359375 L 88.828125 1784.492188 L 88.085938 1780.46875 L 87.421875 1776.367188 L 86.875 1772.109375 L 86.445312 1767.773438 L 86.132812 1763.28125 L 85.898438 1758.671875 L 85.820312 1753.984375 L 85.820312 1749.179688 L 85.976562 1744.257812 L 86.210938 1739.257812 L 86.601562 1734.101562 L 87.695312 1723.554688 L 89.296875 1712.578125 L 93.984375 1689.492188 L 100.625 1665 L 109.335938 1639.257812 L 132.890625 1584.335938 L 204.648438 1465 L 307.96875 1340.273438 L 439.101562 1218.945312 L 592.148438 1108.90625 L 759.453125 1016.679688 L 845.664062 978.867188 L 931.992188 947.109375 L 1017.1875 921.71875 L 1058.984375 911.445312 L 1100.039062 902.8125 L 1140.234375 895.742188 L 1179.375 890.3125 L 1198.476562 888.203125 L 1217.304688 886.484375 L 1235.78125 885.117188 L 1244.882812 884.570312 L 1253.90625 884.140625 L 1262.851562 883.789062 L 1271.679688 883.515625 L 1280.390625 883.359375 L 1289.0625 883.28125 L 1297.617188 883.320312 L 1306.054688 883.4375 " transform="matrix(0.1, 0, 0, -0.1, 0, 200)"/>
<path fill="none" stroke-width="6.96" stroke-linecap="round" stroke-linejoin="round" stroke="rgb(0%, 0%, 0%)" stroke-opacity="1" stroke-miterlimit="10" d="M 1306.054688 883.4375 L 1314.375 883.632812 L 1322.617188 883.90625 L 1330.742188 884.257812 L 1338.75 884.726562 L 1354.453125 885.898438 L 1369.6875 887.421875 L 1384.414062 889.21875 L 1412.460938 893.789062 L 1438.4375 899.53125 L 1462.226562 906.367188 L 1483.789062 914.179688 L 1503.007812 922.890625 L 1519.804688 932.382812 L 1534.140625 942.617188 L 1545.9375 953.359375 L 1550.898438 958.945312 L 1555.195312 964.609375 L 1558.828125 970.351562 L 1561.796875 976.210938 L 1564.101562 982.109375 L 1565.039062 985.078125 L 1565.78125 988.046875 L 1566.367188 991.015625 L 1566.757812 994.023438 L 1566.992188 996.992188 L 1567.109375 1000 " transform="matrix(0.1, 0, 0, -0.1, 0, 200)"/>
<path fill="none" stroke-width="6.96" stroke-linecap="round" stroke-linejoin="round" stroke="rgb(0%, 0%, 0%)" stroke-opacity="1" stroke-miterlimit="10" d="M 1632.8125 1000 L 1632.734375 1002.421875 L 1632.460938 1004.84375 L 1632.070312 1007.304688 L 1631.445312 1009.726562 L 1629.765625 1014.53125 L 1627.382812 1019.296875 L 1624.296875 1024.023438 L 1620.585938 1028.671875 L 1611.054688 1037.65625 L 1598.90625 1046.210938 L 1584.179688 1054.21875 L 1566.875 1061.523438 L 1547.109375 1068.085938 L 1524.882812 1073.75 L 1500.390625 1078.4375 L 1487.265625 1080.390625 L 1473.632812 1082.070312 L 1459.453125 1083.476562 L 1452.148438 1084.0625 L 1444.726562 1084.570312 L 1437.1875 1085.039062 L 1429.53125 1085.351562 L 1421.71875 1085.664062 L 1413.828125 1085.859375 L 1405.78125 1085.976562 L 1397.617188 1086.015625 L 1389.375 1085.976562 L 1380.976562 1085.859375 L 1372.5 1085.625 L 1363.867188 1085.3125 L 1355.195312 1084.960938 L 1346.367188 1084.492188 L 1328.4375 1083.28125 L 1310.078125 1081.71875 L 1272.265625 1077.460938 L 1233.046875 1071.757812 L 1151.054688 1055.703125 L 1065.234375 1033.398438 L 976.835938 1004.84375 L 797.382812 929.609375 L 622.382812 832.734375 L 461.132812 719.101562 L 321.328125 595.3125 L 209.140625 469.414062 L 164.6875 408.359375 L 128.398438 350.078125 L 100.390625 295.625 L 89.492188 270.195312 L 80.585938 246.132812 " transform="matrix(0.1, 0, 0, -0.1, 0, 200)"/>
<path fill="none" stroke-width="6.96" stroke-linecap="round" stroke-linejoin="round" stroke="rgb(0%, 0%, 0%)" stroke-opacity="1" stroke-miterlimit="10" d="M 80.585938 246.132812 L 73.75 223.554688 L 71.054688 212.851562 L 68.867188 202.578125 L 67.148438 192.734375 L 66.484375 188.007812 L 65.9375 183.359375 L 65.46875 178.828125 L 65.15625 174.414062 L 64.960938 170.117188 L 64.84375 165.9375 L 64.882812 161.914062 L 65 157.96875 L 65.234375 154.140625 L 65.585938 150.46875 L 66.054688 146.914062 L 66.640625 143.515625 L 68.125 137.03125 L 70 131.132812 L 72.265625 125.742188 L 74.921875 120.9375 L 78.007812 116.640625 L 81.445312 112.929688 L 85.273438 109.84375 L 89.414062 107.304688 L 91.640625 106.25 L 93.90625 105.351562 L 96.289062 104.648438 L 98.710938 104.023438 L 101.25 103.59375 L 103.867188 103.320312 L 106.523438 103.164062 L 109.257812 103.203125 L 112.109375 103.359375 L 115 103.671875 L 117.96875 104.179688 L 120.976562 104.804688 L 127.226562 106.5625 L 133.671875 108.945312 L 140.390625 111.992188 L 154.453125 119.882812 L 169.179688 130.351562 L 200.429688 158.945312 L 233.164062 197.539062 L 266.328125 245.859375 L 299.0625 303.476562 L 330.351562 369.765625 L 359.414062 443.984375 L 385.390625 525.3125 L 407.695312 612.65625 L 425.625 705.039062 " transform="matrix(0.1, 0, 0, -0.1, 0, 200)"/>
<path fill="none" stroke-width="6.96" stroke-linecap="round" stroke-linejoin="round" stroke="rgb(0%, 0%, 0%)" stroke-opacity="1" stroke-miterlimit="10" d="M 425.625 705.039062 L 432.851562 752.695312 L 438.828125 801.171875 L 443.476562 850.3125 L 445.351562 875.078125 L 446.835938 899.960938 L 448.046875 924.882812 L 448.515625 937.382812 L 448.867188 949.882812 L 449.179688 962.421875 L 449.375 974.921875 L 449.53125 987.460938 L 449.53125 1012.539062 L 449.375 1025.039062 L 449.179688 1037.578125 L 448.867188 1050.078125 L 448.046875 1075.117188 L 446.835938 1100.039062 L 445.351562 1124.921875 L 443.476562 1149.648438 L 438.828125 1198.789062 L 432.851562 1247.304688 L 425.625 1294.960938 L 407.695312 1387.304688 L 385.390625 1474.726562 L 359.414062 1556.015625 L 330.351562 1630.234375 L 299.0625 1696.523438 L 266.328125 1754.140625 L 233.164062 1802.460938 L 200.429688 1841.054688 L 184.570312 1856.601562 L 169.179688 1869.609375 L 154.453125 1880.078125 L 140.390625 1888.046875 L 133.671875 1891.054688 L 127.226562 1893.4375 L 124.0625 1894.375 L 120.976562 1895.195312 L 117.96875 1895.820312 L 115 1896.289062 L 112.109375 1896.601562 L 109.257812 1896.796875 L 106.523438 1896.796875 L 103.867188 1896.679688 L 101.25 1896.40625 L 98.710938 1895.976562 L 96.289062 1895.351562 L 93.90625 1894.609375 L 89.414062 1892.695312 " transform="matrix(0.1, 0, 0, -0.1, 0, 200)"/>
<path fill="none" stroke-width="6.96" stroke-linecap="round" stroke-linejoin="round" stroke="rgb(0%, 0%, 0%)" stroke-opacity="1" stroke-miterlimit="10" d="M 89.414062 1892.695312 L 85.273438 1890.15625 L 81.445312 1887.03125 L 78.007812 1883.359375 L 74.921875 1879.0625 L 72.265625 1874.257812 L 70 1868.867188 L 68.125 1862.96875 L 67.304688 1859.804688 L 66.640625 1856.484375 L 66.054688 1853.085938 L 65.585938 1849.53125 L 65.234375 1845.820312 L 65 1842.03125 L 64.882812 1838.125 L 64.84375 1834.0625 L 64.960938 1829.882812 L 65.15625 1825.585938 L 65.46875 1821.171875 L 65.9375 1816.640625 L 67.148438 1807.265625 L 68.867188 1797.421875 L 73.75 1776.445312 L 80.585938 1753.867188 L 100.390625 1704.375 L 128.398438 1649.921875 L 209.140625 1530.585938 L 321.328125 1404.648438 L 461.132812 1280.898438 L 622.382812 1167.265625 L 797.382812 1070.390625 L 887.148438 1029.84375 L 976.835938 995.15625 L 1065.234375 966.601562 L 1151.054688 944.296875 L 1192.617188 935.46875 L 1233.046875 928.242188 L 1272.265625 922.539062 L 1291.328125 920.234375 L 1310.078125 918.28125 L 1328.4375 916.71875 L 1346.367188 915.507812 L 1363.867188 914.648438 L 1372.5 914.335938 L 1380.976562 914.140625 L 1389.375 914.023438 L 1397.617188 913.984375 L 1405.78125 914.023438 L 1413.828125 914.140625 L 1421.71875 914.335938 L 1429.53125 914.609375 " transform="matrix(0.1, 0, 0, -0.1, 0, 200)"/>
<path fill="none" stroke-width="6.96" stroke-linecap="round" stroke-linejoin="round" stroke="rgb(0%, 0%, 0%)" stroke-opacity="1" stroke-miterlimit="10" d="M 1429.53125 914.609375 L 1437.1875 915 L 1444.726562 915.429688 L 1459.453125 916.523438 L 1473.632812 917.890625 L 1500.390625 921.5625 L 1524.882812 926.25 L 1547.109375 931.914062 L 1566.875 938.4375 L 1584.179688 945.78125 L 1598.90625 953.789062 L 1611.054688 962.304688 L 1616.132812 966.796875 L 1620.585938 971.328125 L 1624.296875 975.976562 L 1627.382812 980.703125 L 1629.765625 985.46875 L 1630.703125 987.851562 L 1631.445312 990.273438 L 1632.070312 992.695312 L 1632.460938 995.117188 L 1632.734375 997.578125 L 1632.8125 1000 " transform="matrix(0.1, 0, 0, -0.1, 0, 200)"/>
<path fill="none" stroke-width="6.96" stroke-linecap="round" stroke-linejoin="round" stroke="rgb(0%, 0%, 0%)" stroke-opacity="1" stroke-miterlimit="10" d="M 1698.554688 1000 L 1698.476562 1001.875 L 1698.203125 1003.75 L 1697.773438 1005.585938 L 1697.148438 1007.460938 L 1695.390625 1011.132812 L 1692.96875 1014.804688 L 1689.804688 1018.398438 L 1685.976562 1021.953125 L 1676.210938 1028.710938 L 1663.710938 1035.078125 L 1648.554688 1040.859375 L 1630.742188 1045.976562 L 1610.390625 1050.351562 L 1587.578125 1053.867188 L 1575.234375 1055.273438 L 1562.304688 1056.445312 L 1555.664062 1056.914062 L 1548.828125 1057.34375 L 1541.875 1057.695312 L 1534.804688 1057.96875 L 1527.539062 1058.203125 L 1520.15625 1058.320312 L 1512.65625 1058.398438 L 1505.039062 1058.398438 L 1497.265625 1058.320312 L 1489.335938 1058.164062 L 1481.328125 1057.929688 L 1473.164062 1057.617188 L 1456.484375 1056.796875 L 1439.335938 1055.585938 L 1403.671875 1052.265625 L 1366.25 1047.539062 L 1286.757812 1033.828125 L 1202.03125 1014.21875 L 1021.71875 956.796875 L 835.273438 875.898438 L 652.65625 774.335938 L 483.125 657.148438 L 334.726562 530.976562 L 213.632812 403.828125 L 123.90625 284.492188 L 91.40625 230.507812 L 67.226562 181.757812 L 58.203125 159.6875 L 51.132812 139.296875 L 48.320312 129.765625 L 46.054688 120.703125 L 44.179688 112.109375 L 42.851562 104.023438 " transform="matrix(0.1, 0, 0, -0.1, 0, 200)"/>
<path fill="none" stroke-width="6.96" stroke-linecap="round" stroke-linejoin="round" stroke="rgb(0%, 0%, 0%)" stroke-opacity="1" stroke-miterlimit="10" d="M 42.851562 104.023438 L 42.34375 100.15625 L 41.953125 96.40625 L 41.640625 92.8125 L 41.484375 89.335938 L 41.445312 85.976562 L 41.484375 82.773438 L 41.640625 79.6875 L 41.914062 76.757812 L 42.265625 73.945312 L 42.773438 71.289062 L 44.023438 66.367188 L 44.804688 64.140625 L 45.703125 62.03125 L 47.773438 58.28125 L 50.195312 55.117188 L 51.601562 53.75 L 53.046875 52.539062 L 54.570312 51.484375 L 56.210938 50.585938 L 57.929688 49.804688 L 59.765625 49.179688 L 61.640625 48.75 L 63.632812 48.476562 L 65.664062 48.320312 L 67.773438 48.359375 L 70 48.515625 L 72.304688 48.867188 L 74.648438 49.335938 L 77.070312 50 L 82.148438 51.757812 L 87.5 54.179688 L 98.90625 60.976562 L 111.25 70.351562 L 124.335938 82.304688 L 152.421875 114.0625 L 182.148438 156.054688 L 242.890625 269.335938 L 271.992188 339.53125 L 299.140625 417.8125 L 323.476562 503.28125 L 344.414062 594.921875 L 361.289062 691.640625 L 368.046875 741.523438 L 373.671875 792.226562 L 378.085938 843.59375 L 379.84375 869.492188 L 381.289062 895.46875 L 382.382812 921.523438 L 382.8125 934.570312 L 383.203125 947.65625 " transform="matrix(0.1, 0, 0, -0.1, 0, 200)"/>
<path fill="none" stroke-width="6.96" stroke-linecap="round" stroke-linejoin="round" stroke="rgb(0%, 0%, 0%)" stroke-opacity="1" stroke-miterlimit="10" d="M 383.203125 947.65625 L 383.476562 960.742188 L 383.789062 986.914062 L 383.828125 1000 L 383.789062 1013.085938 L 383.476562 1039.257812 L 383.203125 1052.34375 L 382.382812 1078.476562 L 381.289062 1104.53125 L 379.84375 1130.507812 L 378.085938 1156.40625 L 373.671875 1207.773438 L 368.046875 1258.476562 L 361.289062 1308.359375 L 344.414062 1405.078125 L 323.476562 1496.71875 L 299.140625 1582.1875 L 242.890625 1730.664062 L 212.65625 1792.03125 L 182.148438 1843.945312 L 152.421875 1885.9375 L 124.335938 1917.65625 L 111.25 1929.648438 L 98.90625 1939.023438 L 93.085938 1942.734375 L 87.5 1945.78125 L 82.148438 1948.242188 L 79.570312 1949.179688 L 77.070312 1950 L 74.648438 1950.664062 L 72.304688 1951.132812 L 70 1951.484375 L 67.773438 1951.640625 L 65.664062 1951.679688 L 63.632812 1951.523438 L 61.640625 1951.25 L 59.765625 1950.78125 L 57.929688 1950.195312 L 56.210938 1949.414062 L 54.570312 1948.515625 L 53.046875 1947.460938 L 50.195312 1944.882812 L 47.773438 1941.71875 L 46.679688 1939.921875 L 45.703125 1937.96875 L 44.804688 1935.859375 L 44.023438 1933.59375 L 43.359375 1931.210938 L 42.773438 1928.710938 " transform="matrix(0.1, 0, 0, -0.1, 0, 200)"/>
<path fill="none" stroke-width="6.96" stroke-linecap="round" stroke-linejoin="round" stroke="rgb(0%, 0%, 0%)" stroke-opacity="1" stroke-miterlimit="10" d="M 42.773438 1928.710938 L 42.265625 1926.054688 L 41.914062 1923.242188 L 41.640625 1920.3125 L 41.484375 1917.226562 L 41.445312 1914.023438 L 41.484375 1910.664062 L 41.640625 1907.1875 L 41.953125 1903.59375 L 42.851562 1896.015625 L 44.179688 1887.890625 L 46.054688 1879.296875 L 51.132812 1860.703125 L 67.226562 1818.203125 L 91.40625 1769.492188 L 123.90625 1715.507812 L 213.632812 1596.171875 L 334.726562 1469.023438 L 483.125 1342.851562 L 652.65625 1225.625 L 835.273438 1124.101562 L 1021.71875 1043.203125 L 1113.28125 1011.445312 L 1202.03125 985.78125 L 1286.757812 966.132812 L 1327.226562 958.554688 L 1366.25 952.460938 L 1403.671875 947.734375 L 1421.757812 945.898438 L 1439.335938 944.375 L 1456.484375 943.242188 L 1464.921875 942.773438 L 1473.164062 942.382812 L 1481.328125 942.070312 L 1489.335938 941.835938 L 1497.265625 941.679688 L 1505.039062 941.601562 L 1512.65625 941.601562 L 1520.15625 941.679688 L 1527.539062 941.796875 L 1534.804688 942.03125 L 1548.828125 942.65625 L 1555.664062 943.085938 L 1562.304688 943.554688 L 1575.234375 944.726562 L 1587.578125 946.132812 L 1610.390625 949.648438 L 1630.742188 954.023438 L 1648.554688 959.140625 L 1663.710938 964.921875 L 1676.210938 971.289062 " transform="matrix(0.1, 0, 0, -0.1, 0, 200)"/>
<path fill="none" stroke-width="6.96" stroke-linecap="round" stroke-linejoin="round" stroke="rgb(0%, 0%, 0%)" stroke-opacity="1" stroke-miterlimit="10" d="M 1676.210938 971.289062 L 1681.40625 974.609375 L 1685.976562 978.046875 L 1689.804688 981.601562 L 1692.96875 985.195312 L 1695.390625 988.828125 L 1696.367188 990.664062 L 1697.148438 992.539062 L 1697.773438 994.414062 L 1698.203125 996.25 L 1698.476562 998.125 L 1698.554688 1000 " transform="matrix(0.1, 0, 0, -0.1, 0, 200)"/>
</svg>
