<?xml version="1.0" encoding="UTF-8"?>
<svg xmlns="http://www.w3.org/2000/svg" xmlns:xlink="http://www.w3.org/1999/xlink" width="260" height="81" viewBox="0 0 260 81">
<path fill-rule="evenodd" fill="rgb(0%, 0%, 0%)" fill-opacity="1" d="M 10.195312 10.21875 C 10.195312 9.160156 10.136719 8.128906 9.691406 7.160156 C 9.1875 6.101562 8.300781 5.820312 7.695312 5.820312 C 6.980469 5.820312 6.109375 6.191406 5.652344 7.25 C 5.308594 8.050781 5.183594 8.84375 5.183594 10.21875 C 5.183594 11.453125 5.269531 12.382812 5.714844 13.289062 C 6.199219 14.257812 7.054688 14.5625 7.695312 14.5625 C 8.773438 14.5625 9.390625 13.898438 9.75 13.160156 C 10.195312 12.203125 10.195312 10.957031 10.195312 10.21875 Z M 7.683594 14.304688 C 7.28125 14.304688 6.460938 14.078125 6.222656 12.6875 C 6.082031 11.921875 6.082031 10.953125 6.082031 10.066406 C 6.082031 9.019531 6.082031 8.078125 6.285156 7.324219 C 6.5 6.472656 7.140625 6.078125 7.683594 6.078125 C 8.164062 6.078125 8.894531 6.371094 9.132812 7.464844 C 9.296875 8.191406 9.296875 9.195312 9.296875 10.066406 C 9.296875 10.914062 9.296875 11.882812 9.160156 12.660156 C 8.917969 14.0625 8.125 14.304688 7.683594 14.304688 "/>
<path fill-rule="evenodd" fill="rgb(0%, 0%, 0%)" fill-opacity="1" d="M 66.15625 13.167969 C 65.714844 13.925781 65.285156 14.183594 64.679688 14.183594 C 64.539062 14.183594 64.441406 14.183594 64.441406 14.421875 C 64.441406 14.503906 64.503906 14.554688 64.59375 14.554688 C 64.820312 14.554688 65.386719 14.554688 65.613281 14.554688 C 65.980469 14.554688 66.382812 14.554688 66.738281 14.554688 C 66.8125 14.554688 66.964844 14.554688 66.964844 14.3125 C 66.964844 14.195312 66.863281 14.183594 66.785156 14.183594 C 66.496094 14.160156 66.257812 14.066406 66.257812 13.789062 C 66.257812 13.609375 66.335938 13.46875 66.496094 13.1875 L 67.457031 11.585938 L 70.675781 11.585938 C 70.6875 11.699219 70.6875 11.800781 70.703125 11.914062 C 70.738281 12.246094 70.890625 13.570312 70.890625 13.8125 C 70.890625 14.183594 70.246094 14.183594 70.042969 14.183594 C 69.90625 14.183594 69.765625 14.183594 69.765625 14.425781 C 69.765625 14.554688 69.878906 14.554688 69.957031 14.554688 C 70.167969 14.554688 70.421875 14.554688 70.636719 14.554688 L 71.355469 14.554688 C 72.128906 14.554688 72.683594 14.554688 72.695312 14.554688 C 72.785156 14.554688 72.921875 14.554688 72.921875 14.3125 C 72.921875 14.183594 72.808594 14.183594 72.621094 14.183594 C 71.925781 14.183594 71.914062 14.070312 71.875 13.683594 L 71.105469 5.691406 C 71.082031 5.433594 71.027344 5.410156 70.890625 5.410156 C 70.765625 5.410156 70.6875 5.433594 70.574219 5.628906 Z M 67.671875 11.214844 L 70.207031 6.867188 L 70.636719 11.214844 Z M 67.671875 11.214844 "/>
<path fill-rule="evenodd" fill="rgb(0%, 0%, 0%)" fill-opacity="1" d="M 129.214844 6.6875 C 129.332031 6.210938 129.382812 6.1875 129.878906 6.1875 L 131.535156 6.1875 C 132.976562 6.1875 132.976562 7.421875 132.976562 7.539062 C 132.976562 8.582031 131.945312 9.90625 130.261719 9.90625 L 128.425781 9.90625 Z M 131.335938 10.019531 C 132.734375 9.761719 134.003906 8.78125 134.003906 7.59375 C 134.003906 6.589844 133.128906 5.8125 131.695312 5.8125 L 127.621094 5.8125 C 127.378906 5.8125 127.265625 5.8125 127.265625 6.058594 C 127.265625 6.1875 127.378906 6.1875 127.570312 6.1875 C 128.335938 6.1875 128.335938 6.289062 128.335938 6.429688 C 128.335938 6.457031 128.335938 6.53125 128.285156 6.726562 L 126.585938 13.605469 C 126.472656 14.054688 126.449219 14.183594 125.566406 14.183594 C 125.324219 14.183594 125.199219 14.183594 125.199219 14.414062 C 125.199219 14.554688 125.277344 14.554688 125.527344 14.554688 L 129.832031 14.554688 C 131.753906 14.554688 133.234375 13.082031 133.234375 11.796875 C 133.234375 10.753906 132.339844 10.121094 131.335938 10.019531 Z M 129.546875 14.183594 L 127.847656 14.183594 C 127.671875 14.183594 127.644531 14.183594 127.570312 14.171875 C 127.429688 14.15625 127.417969 14.132812 127.417969 14.03125 C 127.417969 13.941406 127.445312 13.867188 127.46875 13.753906 L 128.351562 10.183594 L 130.71875 10.183594 C 132.203125 10.183594 132.203125 11.578125 132.203125 11.675781 C 132.203125 12.890625 131.109375 14.183594 129.546875 14.183594 "/>
<path fill-rule="evenodd" fill="rgb(0%, 0%, 0%)" fill-opacity="1" d="M 195.132812 5.671875 C 195.132812 5.558594 195.046875 5.558594 195.023438 5.558594 C 194.996094 5.558594 194.945312 5.558594 194.84375 5.6875 L 193.976562 6.757812 C 193.535156 5.992188 192.84375 5.558594 191.898438 5.558594 C 189.179688 5.558594 186.359375 8.351562 186.359375 11.355469 C 186.359375 13.484375 187.832031 14.8125 189.671875 14.8125 C 190.679688 14.8125 191.558594 14.378906 192.289062 13.753906 C 193.386719 12.820312 193.710938 11.582031 193.710938 11.480469 C 193.710938 11.367188 193.613281 11.367188 193.574219 11.367188 C 193.460938 11.367188 193.445312 11.441406 193.421875 11.492188 C 192.84375 13.484375 191.140625 14.441406 189.882812 14.441406 C 188.546875 14.441406 187.386719 13.574219 187.386719 11.761719 C 187.386719 11.351562 187.515625 9.132812 188.9375 7.460938 C 189.628906 6.644531 190.8125 5.929688 192.011719 5.929688 C 193.398438 5.929688 194.015625 7.089844 194.015625 8.390625 C 194.015625 8.722656 193.976562 9.007812 193.976562 9.054688 C 193.976562 9.167969 194.101562 9.167969 194.140625 9.167969 C 194.277344 9.167969 194.289062 9.15625 194.339844 8.925781 L 195.132812 5.671875 "/>
<path fill-rule="evenodd" fill="rgb(0%, 0%, 0%)" fill-opacity="1" d="M 254.015625 10.21875 C 254.015625 9.160156 253.953125 8.128906 253.511719 7.160156 C 253.007812 6.101562 252.121094 5.820312 251.515625 5.820312 C 250.800781 5.820312 249.925781 6.191406 249.472656 7.25 C 249.125 8.050781 249.003906 8.84375 249.003906 10.21875 C 249.003906 11.453125 249.089844 12.382812 249.535156 13.289062 C 250.015625 14.257812 250.871094 14.5625 251.515625 14.5625 C 252.59375 14.5625 253.210938 13.898438 253.570312 13.160156 C 254.015625 12.203125 254.015625 10.957031 254.015625 10.21875 Z M 251.503906 14.304688 C 251.101562 14.304688 250.28125 14.078125 250.039062 12.6875 C 249.902344 11.921875 249.902344 10.953125 249.902344 10.066406 C 249.902344 9.019531 249.902344 8.078125 250.105469 7.324219 C 250.316406 6.472656 250.960938 6.078125 251.503906 6.078125 C 251.980469 6.078125 252.714844 6.371094 252.953125 7.464844 C 253.117188 8.191406 253.117188 9.195312 253.117188 10.066406 C 253.117188 10.914062 253.117188 11.882812 252.976562 12.660156 C 252.738281 14.0625 251.941406 14.304688 251.503906 14.304688 "/>
<path fill-rule="evenodd" fill="rgb(0%, 0%, 0%)" fill-opacity="1" d="M 10.195312 71.171875 C 10.195312 70.113281 10.136719 69.082031 9.691406 68.113281 C 9.1875 67.058594 8.300781 66.777344 7.695312 66.777344 C 6.980469 66.777344 6.109375 67.144531 5.652344 68.203125 C 5.308594 69.003906 5.183594 69.796875 5.183594 71.171875 C 5.183594 72.40625 5.269531 73.335938 5.714844 74.242188 C 6.199219 75.210938 7.054688 75.515625 7.695312 75.515625 C 8.773438 75.515625 9.390625 74.855469 9.75 74.113281 C 10.195312 73.160156 10.195312 71.910156 10.195312 71.171875 Z M 7.683594 75.261719 C 7.28125 75.261719 6.460938 75.03125 6.222656 73.644531 C 6.082031 72.878906 6.082031 71.910156 6.082031 71.019531 C 6.082031 69.976562 6.082031 69.03125 6.285156 68.28125 C 6.5 67.429688 7.140625 67.03125 7.683594 67.03125 C 8.164062 67.03125 8.894531 67.328125 9.132812 68.421875 C 9.296875 69.148438 9.296875 70.152344 9.296875 71.019531 C 9.296875 71.871094 9.296875 72.839844 9.160156 73.617188 C 8.917969 75.019531 8.125 75.261719 7.683594 75.261719 "/>
<path fill-rule="evenodd" fill="rgb(0%, 0%, 0%)" fill-opacity="1" d="M 66.15625 74.121094 C 65.714844 74.882812 65.285156 75.136719 64.679688 75.136719 C 64.539062 75.136719 64.441406 75.136719 64.441406 75.375 C 64.441406 75.457031 64.503906 75.511719 64.59375 75.511719 C 64.820312 75.511719 65.386719 75.511719 65.613281 75.511719 C 65.980469 75.511719 66.382812 75.511719 66.738281 75.511719 C 66.8125 75.511719 66.964844 75.511719 66.964844 75.265625 C 66.964844 75.152344 66.863281 75.136719 66.785156 75.136719 C 66.496094 75.113281 66.257812 75.023438 66.257812 74.742188 C 66.257812 74.5625 66.335938 74.421875 66.496094 74.144531 L 67.457031 72.539062 L 70.675781 72.539062 C 70.6875 72.652344 70.6875 72.757812 70.703125 72.871094 C 70.738281 73.203125 70.890625 74.527344 70.890625 74.769531 C 70.890625 75.136719 70.246094 75.136719 70.042969 75.136719 C 69.90625 75.136719 69.765625 75.136719 69.765625 75.382812 C 69.765625 75.511719 69.878906 75.511719 69.957031 75.511719 C 70.167969 75.511719 70.421875 75.511719 70.636719 75.511719 L 71.355469 75.511719 C 72.128906 75.511719 72.683594 75.511719 72.695312 75.511719 C 72.785156 75.511719 72.921875 75.511719 72.921875 75.265625 C 72.921875 75.136719 72.808594 75.136719 72.621094 75.136719 C 71.925781 75.136719 71.914062 75.023438 71.875 74.636719 L 71.105469 66.644531 C 71.082031 66.390625 71.027344 66.363281 70.890625 66.363281 C 70.765625 66.363281 70.6875 66.390625 70.574219 66.582031 Z M 67.671875 72.167969 L 70.207031 67.824219 L 70.636719 72.167969 Z M 67.671875 72.167969 "/>
<path fill-rule="evenodd" fill="rgb(0%, 0%, 0%)" fill-opacity="1" d="M 114.289062 73.585938 C 113.847656 74.347656 113.421875 74.601562 112.8125 74.601562 C 112.675781 74.601562 112.574219 74.601562 112.574219 74.84375 C 112.574219 74.921875 112.640625 74.976562 112.726562 74.976562 C 112.953125 74.976562 113.519531 74.976562 113.746094 74.976562 C 114.117188 74.976562 114.519531 74.976562 114.871094 74.976562 C 114.949219 74.976562 115.101562 74.976562 115.101562 74.730469 C 115.101562 74.613281 115 74.601562 114.921875 74.601562 C 114.632812 74.578125 114.394531 74.488281 114.394531 74.207031 C 114.394531 74.027344 114.46875 73.886719 114.632812 73.609375 L 115.59375 72.003906 L 118.8125 72.003906 C 118.824219 72.117188 118.824219 72.222656 118.839844 72.335938 C 118.875 72.667969 119.027344 73.988281 119.027344 74.234375 C 119.027344 74.601562 118.382812 74.601562 118.179688 74.601562 C 118.042969 74.601562 117.902344 74.601562 117.902344 74.847656 C 117.902344 74.976562 118.015625 74.976562 118.089844 74.976562 C 118.304688 74.976562 118.558594 74.976562 118.773438 74.976562 L 119.492188 74.976562 C 120.265625 74.976562 120.820312 74.976562 120.832031 74.976562 C 120.921875 74.976562 121.058594 74.976562 121.058594 74.730469 C 121.058594 74.601562 120.945312 74.601562 120.757812 74.601562 C 120.0625 74.601562 120.050781 74.488281 120.011719 74.101562 L 119.242188 66.109375 C 119.214844 65.855469 119.164062 65.828125 119.027344 65.828125 C 118.898438 65.828125 118.824219 65.855469 118.710938 66.046875 Z M 115.808594 71.632812 L 118.34375 67.289062 L 118.773438 71.632812 Z M 115.808594 71.632812 "/>
<path fill-rule="evenodd" fill="rgb(0%, 0%, 0%)" fill-opacity="1" d="M 133.5 71.769531 C 133.5 69.421875 131.640625 67.519531 129.371094 67.519531 C 127.066406 67.519531 125.230469 69.445312 125.230469 71.769531 C 125.230469 74.121094 127.09375 76.023438 129.359375 76.023438 C 131.664062 76.023438 133.5 74.09375 133.5 71.769531 Z M 125.507812 71.632812 C 125.632812 69.445312 127.261719 67.902344 129.21875 67.796875 L 129.21875 71.632812 Z M 129.492188 67.796875 C 131.46875 67.902344 133.09375 69.460938 133.222656 71.632812 L 129.492188 71.632812 Z M 129.21875 75.746094 C 127.273438 75.640625 125.632812 74.125 125.507812 71.910156 L 129.21875 71.910156 Z M 133.222656 71.910156 C 133.09375 74.125 131.433594 75.640625 129.492188 75.746094 L 129.492188 71.910156 L 133.222656 71.910156 "/>
<path fill-rule="evenodd" fill="rgb(0%, 0%, 0%)" fill-opacity="1" d="M 146.753906 66.089844 C 146.753906 65.976562 146.664062 65.976562 146.640625 65.976562 C 146.613281 65.976562 146.5625 65.976562 146.464844 66.105469 L 145.59375 67.179688 C 145.152344 66.410156 144.460938 65.976562 143.515625 65.976562 C 140.796875 65.976562 137.976562 68.773438 137.976562 71.773438 C 137.976562 73.902344 139.449219 75.230469 141.289062 75.230469 C 142.296875 75.230469 143.175781 74.796875 143.90625 74.171875 C 145.003906 73.238281 145.328125 72 145.328125 71.898438 C 145.328125 71.785156 145.230469 71.785156 145.191406 71.785156 C 145.078125 71.785156 145.066406 71.863281 145.039062 71.914062 C 144.460938 73.902344 142.761719 74.859375 141.5 74.859375 C 140.164062 74.859375 139.007812 73.992188 139.007812 72.179688 C 139.007812 71.769531 139.132812 69.550781 140.554688 67.878906 C 141.246094 67.0625 142.433594 66.347656 143.628906 66.347656 C 145.015625 66.347656 145.632812 67.507812 145.632812 68.8125 C 145.632812 69.140625 145.59375 69.425781 145.59375 69.476562 C 145.59375 69.589844 145.71875 69.589844 145.757812 69.589844 C 145.898438 69.589844 145.910156 69.578125 145.960938 69.347656 L 146.753906 66.089844 "/>
<path fill-rule="evenodd" fill="rgb(0%, 0%, 0%)" fill-opacity="1" d="M 195.132812 66.628906 C 195.132812 66.511719 195.046875 66.511719 195.023438 66.511719 C 194.996094 66.511719 194.945312 66.511719 194.84375 66.640625 L 193.976562 67.714844 C 193.535156 66.945312 192.84375 66.511719 191.898438 66.511719 C 189.179688 66.511719 186.359375 69.308594 186.359375 72.308594 C 186.359375 74.441406 187.832031 75.765625 189.671875 75.765625 C 190.679688 75.765625 191.558594 75.332031 192.289062 74.707031 C 193.386719 73.773438 193.710938 72.539062 193.710938 72.433594 C 193.710938 72.320312 193.613281 72.320312 193.574219 72.320312 C 193.460938 72.320312 193.445312 72.398438 193.421875 72.449219 C 192.84375 74.441406 191.140625 75.394531 189.882812 75.394531 C 188.546875 75.394531 187.386719 74.527344 187.386719 72.714844 C 187.386719 72.308594 187.515625 70.085938 188.9375 68.414062 C 189.628906 67.597656 190.8125 66.882812 192.011719 66.882812 C 193.398438 66.882812 194.015625 68.042969 194.015625 69.347656 C 194.015625 69.679688 193.976562 69.960938 193.976562 70.011719 C 193.976562 70.125 194.101562 70.125 194.140625 70.125 C 194.277344 70.125 194.289062 70.113281 194.339844 69.882812 L 195.132812 66.628906 "/>
<path fill-rule="evenodd" fill="rgb(0%, 0%, 0%)" fill-opacity="1" d="M 254.015625 71.171875 C 254.015625 70.113281 253.953125 69.082031 253.511719 68.113281 C 253.007812 67.058594 252.121094 66.777344 251.515625 66.777344 C 250.800781 66.777344 249.925781 67.144531 249.472656 68.203125 C 249.125 69.003906 249.003906 69.796875 249.003906 71.171875 C 249.003906 72.40625 249.089844 73.335938 249.535156 74.242188 C 250.015625 75.210938 250.871094 75.515625 251.515625 75.515625 C 252.59375 75.515625 253.210938 74.855469 253.570312 74.113281 C 254.015625 73.160156 254.015625 71.910156 254.015625 71.171875 Z M 251.503906 75.261719 C 251.101562 75.261719 250.28125 75.03125 250.039062 73.644531 C 249.902344 72.878906 249.902344 71.910156 249.902344 71.019531 C 249.902344 69.976562 249.902344 69.03125 250.105469 68.28125 C 250.316406 67.429688 250.960938 67.03125 251.503906 67.03125 C 251.980469 67.03125 252.714844 67.328125 252.953125 68.421875 C 253.117188 69.148438 253.117188 70.152344 253.117188 71.019531 C 253.117188 71.871094 253.117188 72.839844 252.976562 73.617188 C 252.738281 75.019531 251.941406 75.261719 251.503906 75.261719 "/>
<path fill="none" stroke-width="3.38" stroke-linecap="square" stroke-linejoin="miter" stroke="rgb(0%, 0%, 0%)" stroke-opacity="1" stroke-miterlimit="10" d="M 147.460938 708.359375 L 574.84375 708.359375 " transform="matrix(0.1, 0, 0, -0.1, 0, 81)"/>
<path fill-rule="evenodd" fill="rgb(0%, 0%, 0%)" fill-opacity="1" d="M 60.269531 10.164062 L 55.8125 7.933594 L 57.484375 10.164062 L 55.8125 12.390625 Z M 60.269531 10.164062 "/>
<path fill="none" stroke-width="3.38" stroke-linecap="square" stroke-linejoin="miter" stroke="rgb(0%, 0%, 0%)" stroke-opacity="1" stroke-miterlimit="10" d="M 772.734375 708.359375 L 1180.546875 708.359375 " transform="matrix(0.1, 0, 0, -0.1, 0, 81)"/>
<path fill-rule="evenodd" fill="rgb(0%, 0%, 0%)" fill-opacity="1" d="M 120.839844 10.164062 L 116.382812 7.933594 L 118.054688 10.164062 L 116.382812 12.390625 Z M 120.839844 10.164062 "/>
<path fill="none" stroke-width="3.38" stroke-linecap="square" stroke-linejoin="miter" stroke="rgb(0%, 0%, 0%)" stroke-opacity="1" stroke-miterlimit="10" d="M 1386.171875 708.359375 L 1791.484375 708.359375 " transform="matrix(0.1, 0, 0, -0.1, 0, 81)"/>
<path fill-rule="evenodd" fill="rgb(0%, 0%, 0%)" fill-opacity="1" d="M 181.933594 10.164062 L 177.476562 7.933594 L 179.148438 10.164062 L 177.476562 12.390625 Z M 181.933594 10.164062 "/>
<path fill="none" stroke-width="3.38" stroke-linecap="square" stroke-linejoin="miter" stroke="rgb(0%, 0%, 0%)" stroke-opacity="1" stroke-miterlimit="10" d="M 1994.296875 708.359375 L 2419.21875 708.359375 " transform="matrix(0.1, 0, 0, -0.1, 0, 81)"/>
<path fill-rule="evenodd" fill="rgb(0%, 0%, 0%)" fill-opacity="1" d="M 244.707031 10.164062 L 240.253906 7.933594 L 241.921875 10.164062 L 240.253906 12.390625 Z M 244.707031 10.164062 "/>
<path fill="none" stroke-width="3.38" stroke-linecap="square" stroke-linejoin="miter" stroke="rgb(0%, 0%, 0%)" stroke-opacity="1" stroke-miterlimit="10" d="M 147.460938 98.828125 L 574.84375 98.828125 " transform="matrix(0.1, 0, 0, -0.1, 0, 81)"/>
<path fill-rule="evenodd" fill="rgb(0%, 0%, 0%)" fill-opacity="1" d="M 60.269531 71.117188 L 55.8125 68.890625 L 57.484375 71.117188 L 55.8125 73.347656 Z M 60.269531 71.117188 "/>
<path fill="none" stroke-width="3.38" stroke-linecap="square" stroke-linejoin="miter" stroke="rgb(0%, 0%, 0%)" stroke-opacity="1" stroke-miterlimit="10" d="M 772.734375 98.828125 L 1056.210938 98.828125 " transform="matrix(0.1, 0, 0, -0.1, 0, 81)"/>
<path fill-rule="evenodd" fill="rgb(0%, 0%, 0%)" fill-opacity="1" d="M 108.40625 71.117188 L 103.949219 68.890625 L 105.621094 71.117188 L 103.949219 73.347656 Z M 108.40625 71.117188 "/>
<path fill-rule="evenodd" fill="rgb(0%, 0%, 0%)" fill-opacity="1" d="M 94.265625 65.269531 C 94.265625 65.203125 94.210938 65.152344 94.128906 65.152344 C 94.007812 65.152344 93.992188 65.191406 93.929688 65.40625 C 93.578125 66.574219 93.027344 66.972656 92.585938 66.972656 C 92.421875 66.972656 92.234375 66.933594 92.234375 66.546875 C 92.234375 66.203125 92.398438 65.816406 92.550781 65.433594 L 93.511719 63.046875 C 93.554688 62.945312 93.648438 62.714844 93.648438 62.46875 C 93.648438 61.933594 93.261719 61.445312 92.632812 61.445312 C 91.453125 61.445312 90.976562 63.308594 90.976562 63.410156 C 90.976562 63.460938 91.03125 63.527344 91.121094 63.527344 C 91.242188 63.527344 91.257812 63.476562 91.308594 63.296875 C 91.632812 62.230469 92.140625 61.722656 92.660156 61.722656 C 92.777344 61.722656 93.007812 61.722656 93.007812 62.132812 C 93.007812 62.464844 92.828125 62.890625 92.71875 63.171875 L 91.757812 65.566406 C 91.675781 65.769531 91.59375 65.976562 91.59375 66.207031 C 91.59375 66.785156 91.992188 67.246094 92.613281 67.246094 C 93.800781 67.246094 94.265625 65.359375 94.265625 65.269531 Z M 94.164062 59.183594 C 94.164062 58.992188 94.015625 58.765625 93.742188 58.765625 C 93.457031 58.765625 93.136719 59.042969 93.136719 59.371094 C 93.136719 59.691406 93.394531 59.792969 93.542969 59.792969 C 93.878906 59.792969 94.164062 59.464844 94.164062 59.183594 "/>
<path fill="none" stroke-width="3.38" stroke-linecap="square" stroke-linejoin="miter" stroke="rgb(0%, 0%, 0%)" stroke-opacity="1" stroke-miterlimit="10" d="M 1510.46875 98.828125 L 1791.484375 98.828125 " transform="matrix(0.1, 0, 0, -0.1, 0, 81)"/>
<path fill-rule="evenodd" fill="rgb(0%, 0%, 0%)" fill-opacity="1" d="M 181.933594 71.117188 L 177.476562 68.890625 L 179.148438 71.117188 L 177.476562 73.347656 Z M 181.933594 71.117188 "/>
<path fill-rule="evenodd" fill="rgb(0%, 0%, 0%)" fill-opacity="1" d="M 163.875 66.207031 C 163.785156 66.589844 163.738281 66.691406 163.222656 66.691406 C 163.070312 66.691406 162.945312 66.691406 162.945312 66.953125 C 162.945312 66.972656 162.957031 67.0625 163.09375 67.0625 C 163.257812 67.0625 163.4375 67.0625 163.597656 67.0625 L 164.140625 67.0625 C 164.40625 67.0625 165.050781 67.0625 165.3125 67.0625 C 165.386719 67.0625 165.535156 67.0625 165.535156 66.839844 C 165.535156 66.691406 165.449219 66.691406 165.238281 66.691406 C 164.65625 66.691406 164.617188 66.601562 164.617188 66.5 C 164.617188 66.347656 165.183594 64.164062 165.261719 63.871094 C 165.394531 64.238281 165.726562 64.746094 166.363281 64.746094 C 167.75 64.746094 169.242188 62.855469 169.242188 60.964844 C 169.242188 59.78125 168.609375 58.945312 167.691406 58.945312 C 166.910156 58.945312 166.25 59.753906 166.113281 59.9375 C 166.015625 59.28125 165.527344 58.945312 165.027344 58.945312 C 164.664062 58.945312 164.375 59.125 164.136719 59.613281 C 163.910156 60.082031 163.738281 60.867188 163.738281 60.917969 C 163.738281 60.96875 163.785156 61.035156 163.875 61.035156 C 163.976562 61.035156 163.988281 61.023438 164.066406 60.726562 C 164.253906 59.972656 164.492188 59.222656 164.996094 59.222656 C 165.289062 59.222656 165.386719 59.425781 165.386719 59.808594 C 165.386719 60.113281 165.351562 60.242188 165.300781 60.46875 Z M 166.042969 60.613281 C 166.128906 60.253906 166.476562 59.886719 166.671875 59.707031 C 166.804688 59.578125 167.214844 59.222656 167.683594 59.222656 C 168.226562 59.222656 168.472656 59.78125 168.472656 60.449219 C 168.472656 61.0625 168.128906 62.503906 167.816406 63.167969 C 167.511719 63.859375 166.941406 64.472656 166.375 64.472656 C 165.535156 64.472656 165.398438 63.371094 165.398438 63.320312 C 165.398438 63.285156 165.425781 63.183594 165.4375 63.117188 L 166.042969 60.613281 "/>
<path fill="none" stroke-width="3.38" stroke-linecap="square" stroke-linejoin="miter" stroke="rgb(0%, 0%, 0%)" stroke-opacity="1" stroke-miterlimit="10" d="M 1994.296875 98.828125 L 2419.21875 98.828125 " transform="matrix(0.1, 0, 0, -0.1, 0, 81)"/>
<path fill-rule="evenodd" fill="rgb(0%, 0%, 0%)" fill-opacity="1" d="M 244.707031 71.117188 L 240.253906 68.890625 L 241.921875 71.117188 L 240.253906 73.347656 Z M 244.707031 71.117188 "/>
<path fill="none" stroke-width="3.38" stroke-linecap="square" stroke-linejoin="miter" stroke="rgb(0%, 0%, 0%)" stroke-opacity="1" stroke-miterlimit="10" d="M 687.695312 626.601562 L 687.695312 208.4375 " transform="matrix(0.1, 0, 0, -0.1, 0, 81)"/>
<path fill-rule="evenodd" fill="rgb(0%, 0%, 0%)" fill-opacity="1" d="M 68.769531 62.941406 L 71 58.484375 L 68.769531 60.15625 L 66.542969 58.484375 Z M 68.769531 62.941406 "/>
<path fill-rule="evenodd" fill="rgb(0%, 0%, 0%)" fill-opacity="1" d="M 81.765625 37.992188 C 81.765625 37.699219 81.679688 37.582031 81.59375 37.582031 C 81.542969 37.582031 81.429688 37.636719 81.414062 37.960938 C 81.363281 39.03125 80.488281 39.636719 79.671875 39.636719 C 78.921875 39.636719 78.324219 39.179688 77.667969 38.660156 C 77.007812 38.113281 76.34375 37.582031 75.503906 37.582031 C 74.277344 37.582031 73.410156 38.753906 73.410156 40.007812 C 73.410156 40.40625 73.574219 40.40625 73.589844 40.40625 C 73.726562 40.40625 73.765625 40.136719 73.765625 40.09375 C 73.828125 38.820312 74.828125 38.351562 75.503906 38.351562 C 76.257812 38.351562 76.855469 38.808594 77.507812 39.328125 C 78.171875 39.875 78.835938 40.40625 79.675781 40.40625 C 80.902344 40.40625 81.765625 39.238281 81.765625 37.992188 Z M 73.863281 42.59375 C 73.664062 42.59375 73.410156 42.59375 73.410156 42.851562 C 73.410156 43.105469 73.636719 43.105469 73.851562 43.105469 L 81.328125 43.105469 C 81.542969 43.105469 81.765625 43.105469 81.765625 42.851562 C 81.765625 42.59375 81.527344 42.59375 81.316406 42.59375 L 73.863281 42.59375 "/>
<path fill="none" stroke-width="3.38" stroke-linecap="square" stroke-linejoin="miter" stroke="rgb(0%, 0%, 0%)" stroke-opacity="1" stroke-miterlimit="10" d="M 1297.265625 626.601562 L 1297.265625 213.789062 " transform="matrix(0.1, 0, 0, -0.1, 0, 81)"/>
<path fill-rule="evenodd" fill="rgb(0%, 0%, 0%)" fill-opacity="1" d="M 129.726562 62.40625 L 131.953125 57.953125 L 129.726562 59.621094 L 127.5 57.953125 Z M 129.726562 62.40625 "/>
<path fill-rule="evenodd" fill="rgb(0%, 0%, 0%)" fill-opacity="1" d="M 142.722656 37.722656 C 142.722656 37.429688 142.632812 37.3125 142.546875 37.3125 C 142.496094 37.3125 142.382812 37.367188 142.371094 37.691406 C 142.320312 38.761719 141.445312 39.367188 140.628906 39.367188 C 139.878906 39.367188 139.277344 38.914062 138.625 38.394531 C 137.960938 37.847656 137.296875 37.3125 136.457031 37.3125 C 135.230469 37.3125 134.367188 38.484375 134.367188 39.738281 C 134.367188 40.140625 134.53125 40.140625 134.542969 40.140625 C 134.679688 40.140625 134.71875 39.867188 134.71875 39.828125 C 134.78125 38.550781 135.78125 38.085938 136.460938 38.085938 C 137.210938 38.085938 137.8125 38.539062 138.464844 39.058594 C 139.128906 39.605469 139.792969 40.140625 140.632812 40.140625 C 141.859375 40.140625 142.722656 38.972656 142.722656 37.722656 Z M 134.820312 42.324219 C 134.617188 42.324219 134.367188 42.324219 134.367188 42.582031 C 134.367188 42.839844 134.59375 42.839844 134.804688 42.839844 L 142.285156 42.839844 C 142.496094 42.839844 142.722656 42.839844 142.722656 42.582031 C 142.722656 42.324219 142.484375 42.324219 142.269531 42.324219 L 134.820312 42.324219 "/>
<path fill="none" stroke-width="3.38" stroke-linecap="square" stroke-linejoin="miter" stroke="rgb(0%, 0%, 0%)" stroke-opacity="1" stroke-miterlimit="10" d="M 1906.835938 626.601562 L 1906.835938 208.4375 " transform="matrix(0.1, 0, 0, -0.1, 0, 81)"/>
<path fill-rule="evenodd" fill="rgb(0%, 0%, 0%)" fill-opacity="1" d="M 190.683594 62.941406 L 192.910156 58.484375 L 190.683594 60.15625 L 188.453125 58.484375 Z M 190.683594 62.941406 "/>
<path fill-rule="evenodd" fill="rgb(0%, 0%, 0%)" fill-opacity="1" d="M 203.675781 37.992188 C 203.675781 37.699219 203.589844 37.582031 203.503906 37.582031 C 203.453125 37.582031 203.339844 37.636719 203.324219 37.960938 C 203.273438 39.03125 202.398438 39.636719 201.585938 39.636719 C 200.832031 39.636719 200.234375 39.179688 199.578125 38.660156 C 198.917969 38.113281 198.253906 37.582031 197.414062 37.582031 C 196.1875 37.582031 195.320312 38.753906 195.320312 40.007812 C 195.320312 40.40625 195.484375 40.40625 195.5 40.40625 C 195.636719 40.40625 195.675781 40.136719 195.675781 40.09375 C 195.734375 38.820312 196.738281 38.351562 197.414062 38.351562 C 198.164062 38.351562 198.765625 38.808594 199.417969 39.328125 C 200.082031 39.875 200.746094 40.40625 201.585938 40.40625 C 202.8125 40.40625 203.675781 39.238281 203.675781 37.992188 Z M 195.773438 42.59375 C 195.574219 42.59375 195.320312 42.59375 195.320312 42.851562 C 195.320312 43.105469 195.546875 43.105469 195.761719 43.105469 L 203.238281 43.105469 C 203.453125 43.105469 203.675781 43.105469 203.675781 42.851562 C 203.675781 42.59375 203.4375 42.59375 203.226562 42.59375 L 195.773438 42.59375 "/>
</svg>
