<?xml version="1.0" encoding="UTF-8"?>
<svg xmlns="http://www.w3.org/2000/svg" xmlns:xlink="http://www.w3.org/1999/xlink" width="163.5" height="150.5" viewBox="0 0 163.5 150.5">
<path fill="none" stroke-width="5" stroke-linecap="round" stroke-linejoin="round" stroke="rgb(0%, 0%, 0%)" stroke-opacity="1" stroke-miterlimit="10" d="M 775.438382 35.838351 L 1595.575945 430.308607 " transform="matrix(0.0996689, 0, 0, -0.0996689, 0.0215232, 150.001656)"/>
<path fill="none" stroke-width="5" stroke-linecap="round" stroke-linejoin="round" stroke="rgb(0%, 0%, 0%)" stroke-opacity="1" stroke-miterlimit="10" d="M 308.619186 183.514846 L 1595.575945 430.308607 " transform="matrix(0.0996689, 0, 0, -0.0996689, 0.0215232, 150.001656)"/>
<path fill="none" stroke-width="5" stroke-linecap="round" stroke-linejoin="round" stroke="rgb(0%, 0%, 0%)" stroke-opacity="1" stroke-miterlimit="10" d="M 308.619186 183.514846 L 775.438382 1469.17826 " transform="matrix(0.0996689, 0, 0, -0.0996689, 0.0215232, 150.001656)"/>
<path fill="none" stroke-width="5" stroke-linecap="round" stroke-linejoin="round" stroke="rgb(0%, 0%, 0%)" stroke-opacity="1" stroke-miterlimit="10" d="M 308.619186 183.514846 L 775.438382 35.838351 " transform="matrix(0.0996689, 0, 0, -0.0996689, 0.0215232, 150.001656)"/>
<path fill="none" stroke-width="5" stroke-linecap="round" stroke-linejoin="round" stroke="rgb(0%, 0%, 0%)" stroke-opacity="1" stroke-miterlimit="10" d="M 39.407444 928.520816 L 308.619186 183.514846 " transform="matrix(0.0996689, 0, 0, -0.0996689, 0.0215232, 150.001656)"/>
<path fill="none" stroke-width="5" stroke-linecap="round" stroke-linejoin="round" stroke="rgb(0%, 0%, 0%)" stroke-opacity="1" stroke-miterlimit="10" d="M 1157.523879 1109.824284 L 1595.575945 430.308607 " transform="matrix(0.0996689, 0, 0, -0.0996689, 0.0215232, 150.001656)"/>
<path fill="none" stroke-width="5" stroke-linecap="round" stroke-linejoin="round" stroke="rgb(0%, 0%, 0%)" stroke-opacity="1" stroke-miterlimit="10" d="M 775.438382 1469.17826 L 1595.575945 430.308607 " transform="matrix(0.0996689, 0, 0, -0.0996689, 0.0215232, 150.001656)"/>
<path fill="none" stroke-width="5" stroke-linecap="round" stroke-linejoin="round" stroke="rgb(0%, 0%, 0%)" stroke-opacity="1" stroke-miterlimit="10" d="M 39.407444 928.520816 L 775.438382 1469.17826 " transform="matrix(0.0996689, 0, 0, -0.0996689, 0.0215232, 150.001656)"/>
<path fill="none" stroke-width="5" stroke-linecap="round" stroke-linejoin="round" stroke="rgb(0%, 0%, 0%)" stroke-opacity="1" stroke-miterlimit="10" d="M 775.438382 1469.17826 L 1157.523879 1109.824284 " transform="matrix(0.0996689, 0, 0, -0.0996689, 0.0215232, 150.001656)"/>
<path fill="none" stroke-width="5" stroke-linecap="round" stroke-linejoin="round" stroke="rgb(0%, 0%, 0%)" stroke-opacity="1" stroke-dasharray="32.6797 32.6797" stroke-miterlimit="10" d="M 39.407444 928.520816 L 775.438382 35.838351 " transform="matrix(0.0996689, 0, 0, -0.0996689, 0.0215232, 150.001656)"/>
<path fill="none" stroke-width="5" stroke-linecap="round" stroke-linejoin="round" stroke="rgb(0%, 0%, 0%)" stroke-opacity="1" stroke-dasharray="32.6797 32.6797" stroke-miterlimit="10" d="M 39.407444 928.520816 L 1157.523879 1109.824284 " transform="matrix(0.0996689, 0, 0, -0.0996689, 0.0215232, 150.001656)"/>
<path fill="none" stroke-width="5" stroke-linecap="round" stroke-linejoin="round" stroke="rgb(0%, 0%, 0%)" stroke-opacity="1" stroke-dasharray="32.6797 32.6797" stroke-miterlimit="10" d="M 775.438382 35.838351 L 1157.523879 1109.824284 " transform="matrix(0.0996689, 0, 0, -0.0996689, 0.0215232, 150.001656)"/>
</svg>
