<?xml version="1.0" encoding="UTF-8"?>
<svg xmlns="http://www.w3.org/2000/svg" xmlns:xlink="http://www.w3.org/1999/xlink" width="150" height="93.5" viewBox="0 0 150 93.5">
<defs>
<clipPath id="clip-0">
<path clip-rule="nonzero" d="M 0.398438 0 L 149.601562 0 L 149.601562 93.003906 L 0.398438 93.003906 Z M 0.398438 0 "/>
</clipPath>
</defs>
<g clip-path="url(#clip-0)">
<path fill="none" stroke-width="20" stroke-linecap="butt" stroke-linejoin="miter" stroke="rgb(13.729858%, 12.159729%, 12.548828%)" stroke-opacity="1" stroke-miterlimit="4" d="M 1414.31484 402.715575 C 1490.736965 289.967413 1521.407921 164.573864 1448.638035 79.904746 M 195.919953 485.028409 C 402.605281 645.020053 592.129011 718.379011 755.92998 718.379011 C 949.263035 718.379011 1120.800468 662.456551 1348.495989 484.989138 M 1005.774566 279.796123 C 994.817848 278.892881 739.946524 206.437166 522.579378 265.03008 M 1130.971758 302.063001 C 1208.100769 323.230281 1315.940007 365.01504 1374.611464 442.104779 C 1440.705214 528.816009 1551.018549 822.644552 1435.717747 897.535094 C 1312.798295 977.37383 1184.066678 871.930147 1101.557487 729.964071 M 1068.530247 652.128175 Z M 1068.530247 652.128175 Z M 1068.530247 652.128175 Z M 1068.530247 652.128175 Z M 1068.530247 652.128175 Z M 1448.638035 79.904746 C 1333.53359 -54.049967 1153.749164 118.272894 1066.763035 285.804646 C 1045.556484 339.999164 989.280582 411.708723 1042.532587 607.712233 M 1080.154579 690.260695 Z M 1080.154579 690.260695 Z M 1080.154579 690.260695 Z M 1080.154579 690.260695 Z M 1080.154579 690.260695 Z M 460.452039 282.859291 Z M 460.452039 282.859291 Z M 460.452039 282.859291 Z M 460.452039 282.859291 Z M 460.452039 282.859291 Z M 80.383523 855.121992 C -74.738469 674.552139 188.576203 319.146056 414.936497 285.294118 M 436.260862 688.572025 C 349.274733 856.103777 195.487968 989.076705 80.383523 855.121992 M 103.318015 410.962567 C 9.263035 318.360628 -38.530247 111.164773 80.815508 37.138202 C 282.82754 -88.137533 499.880515 248.104111 516.767213 457.774064 C 520.340909 502.190007 509.423463 555.638369 488.216912 609.872159 M 170.707721 489.937333 Z M 170.707721 489.937333 Z M 170.707721 489.937333 Z M 170.707721 489.937333 Z M 170.707721 489.937333 Z M 170.707721 489.937333 Z M 170.707721 489.937333 Z M 170.707721 489.937333 Z M 170.707721 489.937333 Z M 170.707721 489.937333 Z M 170.707721 489.937333 " transform="matrix(0.0994681, 0, 0, -0.0994681, 0.398936, 93.00266)"/>
</g>
</svg>
