<?xml version="1.0" encoding="UTF-8"?>
<svg xmlns="http://www.w3.org/2000/svg" xmlns:xlink="http://www.w3.org/1999/xlink" width="230.38" height="231.62" viewBox="0 0 230.38 231.62">
<defs>
<clipPath id="clip-0">
<path clip-rule="nonzero" d="M 0 0.121094 L 92 0.121094 L 92 68 L 0 68 Z M 0 0.121094 "/>
</clipPath>
<clipPath id="clip-1">
<path clip-rule="nonzero" d="M 91 0.121094 L 96 0.121094 L 96 97 L 91 97 Z M 91 0.121094 "/>
</clipPath>
<clipPath id="clip-2">
<path clip-rule="nonzero" d="M 155 134 L 216 134 L 216 231.121094 L 155 231.121094 Z M 155 134 "/>
</clipPath>
<clipPath id="clip-3">
<path clip-rule="nonzero" d="M 215 33 L 229.761719 33 L 229.761719 135 L 215 135 Z M 215 33 "/>
</clipPath>
<clipPath id="clip-4">
<path clip-rule="nonzero" d="M 161 33 L 229.761719 33 L 229.761719 120 L 161 120 Z M 161 33 "/>
</clipPath>
<clipPath id="clip-5">
<path clip-rule="nonzero" d="M 155 119 L 163 119 L 163 231.121094 L 155 231.121094 Z M 155 119 "/>
</clipPath>
<clipPath id="clip-6">
<path clip-rule="nonzero" d="M 155 119 L 163 119 L 163 231.121094 L 155 231.121094 Z M 155 119 "/>
</clipPath>
<clipPath id="clip-7">
<path clip-rule="nonzero" d="M 16 173 L 156 173 L 156 231.121094 L 16 231.121094 Z M 16 173 "/>
</clipPath>
<clipPath id="clip-8">
<path clip-rule="nonzero" d="M 215 33 L 229.761719 33 L 229.761719 135 L 215 135 Z M 215 33 "/>
</clipPath>
<clipPath id="clip-9">
<path clip-rule="nonzero" d="M 91 0.121094 L 229.761719 0.121094 L 229.761719 34 L 91 34 Z M 91 0.121094 "/>
</clipPath>
<clipPath id="clip-10">
<path clip-rule="nonzero" d="M 91 0.121094 L 96 0.121094 L 96 97 L 91 97 Z M 91 0.121094 "/>
</clipPath>
<clipPath id="clip-11">
<path clip-rule="nonzero" d="M 155 134 L 216 134 L 216 231.121094 L 155 231.121094 Z M 155 134 "/>
</clipPath>
<clipPath id="clip-12">
<path clip-rule="nonzero" d="M 215 33 L 229.761719 33 L 229.761719 135 L 215 135 Z M 215 33 "/>
</clipPath>
<clipPath id="clip-13">
<path clip-rule="nonzero" d="M 161 33 L 229.761719 33 L 229.761719 120 L 161 120 Z M 161 33 "/>
</clipPath>
<clipPath id="clip-14">
<path clip-rule="nonzero" d="M 155 119 L 163 119 L 163 231.121094 L 155 231.121094 Z M 155 119 "/>
</clipPath>
<clipPath id="clip-15">
<path clip-rule="nonzero" d="M 155 119 L 163 119 L 163 231.121094 L 155 231.121094 Z M 155 119 "/>
</clipPath>
<clipPath id="clip-16">
<path clip-rule="nonzero" d="M 16 173 L 156 173 L 156 231.121094 L 16 231.121094 Z M 16 173 "/>
</clipPath>
</defs>
<path fill="none" stroke-width="2.5" stroke-linecap="round" stroke-linejoin="round" stroke="rgb(0%, 0%, 0%)" stroke-opacity="1" stroke-miterlimit="10" d="M 169.04747 573.047328 L 0.235006 1638.289232 " transform="matrix(0.0997316, 0, 0, -0.0997316, 0.000000000000004774, 231.119678)"/>
<g clip-path="url(#clip-0)">
<path fill="none" stroke-width="2.5" stroke-linecap="round" stroke-linejoin="round" stroke="rgb(0%, 0%, 0%)" stroke-opacity="1" stroke-miterlimit="10" d="M 0.235006 1638.289232 L 920.595863 2316.241657 " transform="matrix(0.0997316, 0, 0, -0.0997316, 0.000000000000004774, 231.119678)"/>
</g>
<g clip-path="url(#clip-1)">
<path fill="none" stroke-width="2.5" stroke-linecap="round" stroke-linejoin="round" stroke="rgb(0%, 0%, 0%)" stroke-opacity="1" stroke-miterlimit="10" d="M 920.595863 2316.241657 L 954.240853 1353.697267 " transform="matrix(0.0997316, 0, 0, -0.0997316, 0.000000000000004774, 231.119678)"/>
</g>
<path fill="none" stroke-width="2.5" stroke-linecap="round" stroke-linejoin="round" stroke="rgb(0%, 0%, 0%)" stroke-opacity="1" stroke-miterlimit="10" d="M 954.240853 1353.697267 L 169.04747 573.047328 " transform="matrix(0.0997316, 0, 0, -0.0997316, 0.000000000000004774, 231.119678)"/>
<g clip-path="url(#clip-2)">
<path fill="none" stroke-width="2.5" stroke-linecap="round" stroke-linejoin="round" stroke="rgb(0%, 0%, 0%)" stroke-opacity="1" stroke-miterlimit="10" d="M 1560.007345 -0.0141964 L 2164.363802 967.112806 " transform="matrix(0.0997316, 0, 0, -0.0997316, 0.000000000000004774, 231.119678)"/>
</g>
<g clip-path="url(#clip-3)">
<path fill="none" stroke-width="2.5" stroke-linecap="round" stroke-linejoin="round" stroke="rgb(0%, 0%, 0%)" stroke-opacity="1" stroke-miterlimit="10" d="M 2164.363802 967.112806 L 2303.526375 1985.157721 " transform="matrix(0.0997316, 0, 0, -0.0997316, 0.000000000000004774, 231.119678)"/>
</g>
<g clip-path="url(#clip-4)">
<path fill="none" stroke-width="2.5" stroke-linecap="round" stroke-linejoin="round" stroke="rgb(0%, 0%, 0%)" stroke-opacity="1" stroke-miterlimit="10" d="M 2303.526375 1985.157721 L 1624.829765 1116.380625 " transform="matrix(0.0997316, 0, 0, -0.0997316, 0.000000000000004774, 231.119678)"/>
</g>
<g clip-path="url(#clip-5)">
<path fill="none" stroke-width="2.5" stroke-linecap="round" stroke-linejoin="round" stroke="rgb(0%, 0%, 0%)" stroke-opacity="1" stroke-miterlimit="10" d="M 1624.829765 1116.380625 L 1560.007345 -0.0141964 " transform="matrix(0.0997316, 0, 0, -0.0997316, 0.000000000000004774, 231.119678)"/>
</g>
<path fill="none" stroke-width="2.5" stroke-linecap="round" stroke-linejoin="round" stroke="rgb(0%, 0%, 0%)" stroke-opacity="1" stroke-miterlimit="10" d="M 169.04747 573.047328 L 0.235006 1638.289232 " transform="matrix(0.0997316, 0, 0, -0.0997316, 0.000000000000004774, 231.119678)"/>
<path fill="none" stroke-width="2.5" stroke-linecap="round" stroke-linejoin="round" stroke="rgb(0%, 0%, 0%)" stroke-opacity="1" stroke-miterlimit="10" d="M 0.235006 1638.289232 L 1624.829765 1116.380625 " transform="matrix(0.0997316, 0, 0, -0.0997316, 0.000000000000004774, 231.119678)"/>
<g clip-path="url(#clip-6)">
<path fill="none" stroke-width="2.5" stroke-linecap="round" stroke-linejoin="round" stroke="rgb(0%, 0%, 0%)" stroke-opacity="1" stroke-miterlimit="10" d="M 1624.829765 1116.380625 L 1560.007345 -0.0141964 " transform="matrix(0.0997316, 0, 0, -0.0997316, 0.000000000000004774, 231.119678)"/>
</g>
<g clip-path="url(#clip-7)">
<path fill="none" stroke-width="2.5" stroke-linecap="round" stroke-linejoin="round" stroke="rgb(0%, 0%, 0%)" stroke-opacity="1" stroke-miterlimit="10" d="M 1560.007345 -0.0141964 L 169.04747 573.047328 " transform="matrix(0.0997316, 0, 0, -0.0997316, 0.000000000000004774, 231.119678)"/>
</g>
<path fill="none" stroke-width="2.5" stroke-linecap="round" stroke-linejoin="round" stroke="rgb(0%, 0%, 0%)" stroke-opacity="1" stroke-miterlimit="10" d="M 954.240853 1353.697267 L 2164.363802 967.112806 " transform="matrix(0.0997316, 0, 0, -0.0997316, 0.000000000000004774, 231.119678)"/>
<g clip-path="url(#clip-8)">
<path fill="none" stroke-width="2.5" stroke-linecap="round" stroke-linejoin="round" stroke="rgb(0%, 0%, 0%)" stroke-opacity="1" stroke-miterlimit="10" d="M 2164.363802 967.112806 L 2303.526375 1985.157721 " transform="matrix(0.0997316, 0, 0, -0.0997316, 0.000000000000004774, 231.119678)"/>
</g>
<g clip-path="url(#clip-9)">
<path fill="none" stroke-width="2.5" stroke-linecap="round" stroke-linejoin="round" stroke="rgb(0%, 0%, 0%)" stroke-opacity="1" stroke-miterlimit="10" d="M 2303.526375 1985.157721 L 920.595863 2316.241657 " transform="matrix(0.0997316, 0, 0, -0.0997316, 0.000000000000004774, 231.119678)"/>
</g>
<g clip-path="url(#clip-10)">
<path fill="none" stroke-width="2.5" stroke-linecap="round" stroke-linejoin="round" stroke="rgb(0%, 0%, 0%)" stroke-opacity="1" stroke-miterlimit="10" d="M 920.595863 2316.241657 L 954.240853 1353.697267 " transform="matrix(0.0997316, 0, 0, -0.0997316, 0.000000000000004774, 231.119678)"/>
</g>
<path fill="none" stroke-width="5" stroke-linecap="round" stroke-linejoin="round" stroke="rgb(100%, 41.992188%, 0%)" stroke-opacity="1" stroke-miterlimit="10" d="M 1517.118796 1173.526191 L 624.136108 1010.784708 " transform="matrix(0.0997316, 0, 0, -0.0997316, 0.000000000000004774, 231.119678)"/>
<path fill="none" stroke-width="5" stroke-linecap="round" stroke-linejoin="round" stroke="rgb(100%, 41.992188%, 0%)" stroke-opacity="1" stroke-miterlimit="10" d="M 1861.363054 567.759699 L 1517.118796 1173.526191 " transform="matrix(0.0997316, 0, 0, -0.0997316, 0.000000000000004774, 231.119678)"/>
<path fill="none" stroke-width="115.164" stroke-linecap="round" stroke-linejoin="round" stroke="rgb(100%, 41.992188%, 0%)" stroke-opacity="1" stroke-miterlimit="10" d="M 1517.118796 1173.526191 L 1517.118796 1173.526191 " transform="matrix(0.0997316, 0, 0, -0.0997316, 0.000000000000004774, 231.119678)"/>
<path fill="none" stroke-width="115.164" stroke-linecap="round" stroke-linejoin="round" stroke="rgb(100%, 41.992188%, 0%)" stroke-opacity="1" stroke-miterlimit="10" d="M 1300.48266 1134.045224 L 1300.48266 1134.045224 " transform="matrix(0.0997316, 0, 0, -0.0997316, 0.000000000000004774, 231.119678)"/>
<path fill="none" stroke-width="115.164" stroke-linecap="round" stroke-linejoin="round" stroke="rgb(100%, 41.992188%, 0%)" stroke-opacity="1" stroke-miterlimit="10" d="M 1079.538087 1093.780906 L 1079.538087 1093.780906 " transform="matrix(0.0997316, 0, 0, -0.0997316, 0.000000000000004774, 231.119678)"/>
<path fill="none" stroke-width="115.164" stroke-linecap="round" stroke-linejoin="round" stroke="rgb(100%, 41.992188%, 0%)" stroke-opacity="1" stroke-miterlimit="10" d="M 854.128403 1052.694067 L 854.128403 1052.694067 " transform="matrix(0.0997316, 0, 0, -0.0997316, 0.000000000000004774, 231.119678)"/>
<path fill="none" stroke-width="115.164" stroke-linecap="round" stroke-linejoin="round" stroke="rgb(100%, 41.992188%, 0%)" stroke-opacity="1" stroke-miterlimit="10" d="M 1594.39652 1037.575364 L 1594.39652 1037.575364 " transform="matrix(0.0997316, 0, 0, -0.0997316, 0.000000000000004774, 231.119678)"/>
<path fill="none" stroke-width="5" stroke-linecap="round" stroke-linejoin="round" stroke="rgb(100%, 41.992188%, 0%)" stroke-opacity="1" stroke-miterlimit="10" d="M 624.136108 1010.784708 L 842.730624 350.536049 " transform="matrix(0.0997316, 0, 0, -0.0997316, 0.000000000000004774, 231.119678)"/>
<path fill="none" stroke-width="115.164" stroke-linecap="round" stroke-linejoin="round" stroke="rgb(100%, 41.992188%, 0%)" stroke-opacity="1" stroke-miterlimit="10" d="M 624.136108 1010.784708 L 624.136108 1010.784708 " transform="matrix(0.0997316, 0, 0, -0.0997316, 0.000000000000004774, 231.119678)"/>
<path fill="none" stroke-width="115.164" stroke-linecap="round" stroke-linejoin="round" stroke="rgb(100%, 41.992188%, 0%)" stroke-opacity="1" stroke-miterlimit="10" d="M 1371.101889 995.352664 L 1371.101889 995.352664 " transform="matrix(0.0997316, 0, 0, -0.0997316, 0.000000000000004774, 231.119678)"/>
<path fill="none" stroke-width="5" stroke-linecap="round" stroke-linejoin="round" stroke="rgb(18.505859%, 100%, 0%)" stroke-opacity="1" stroke-miterlimit="10" d="M 1452.88389 1303.523539 L 751.509225 1180.263022 " transform="matrix(0.0997316, 0, 0, -0.0997316, 0.000000000000004774, 231.119678)"/>
<path fill="none" stroke-width="5" stroke-linecap="round" stroke-linejoin="round" stroke="rgb(18.505859%, 100%, 0%)" stroke-opacity="1" stroke-miterlimit="10" d="M 1708.922656 854.975895 L 1452.88389 1303.523539 " transform="matrix(0.0997316, 0, 0, -0.0997316, 0.000000000000004774, 231.119678)"/>
<path fill="none" stroke-width="115.164" stroke-linecap="round" stroke-linejoin="round" stroke="rgb(18.505859%, 100%, 0%)" stroke-opacity="1" stroke-miterlimit="10" d="M 1452.88389 1303.523539 L 1452.88389 1303.523539 " transform="matrix(0.0997316, 0, 0, -0.0997316, 0.000000000000004774, 231.119678)"/>
<path fill="none" stroke-width="115.164" stroke-linecap="round" stroke-linejoin="round" stroke="rgb(100%, 41.992188%, 0%)" stroke-opacity="1" stroke-miterlimit="10" d="M 1143.185478 952.229108 L 1143.185478 952.229108 " transform="matrix(0.0997316, 0, 0, -0.0997316, 0.000000000000004774, 231.119678)"/>
<path fill="none" stroke-width="115.164" stroke-linecap="round" stroke-linejoin="round" stroke="rgb(18.505859%, 100%, 0%)" stroke-opacity="1" stroke-miterlimit="10" d="M 1223.949121 1263.298388 L 1223.949121 1263.298388 " transform="matrix(0.0997316, 0, 0, -0.0997316, 0.000000000000004774, 231.119678)"/>
<path fill="none" stroke-width="115.164" stroke-linecap="round" stroke-linejoin="round" stroke="rgb(100%, 41.992188%, 0%)" stroke-opacity="1" stroke-miterlimit="10" d="M 910.529784 908.243865 L 910.529784 908.243865 " transform="matrix(0.0997316, 0, 0, -0.0997316, 0.000000000000004774, 231.119678)"/>
<path fill="none" stroke-width="115.164" stroke-linecap="round" stroke-linejoin="round" stroke="rgb(100%, 41.992188%, 0%)" stroke-opacity="1" stroke-miterlimit="10" d="M 1677.079377 892.028468 L 1677.079377 892.028468 " transform="matrix(0.0997316, 0, 0, -0.0997316, 0.000000000000004774, 231.119678)"/>
<path fill="none" stroke-width="115.164" stroke-linecap="round" stroke-linejoin="round" stroke="rgb(18.505859%, 100%, 0%)" stroke-opacity="1" stroke-miterlimit="10" d="M 990.196733 1222.211549 L 990.196733 1222.211549 " transform="matrix(0.0997316, 0, 0, -0.0997316, 0.000000000000004774, 231.119678)"/>
<path fill="none" stroke-width="115.164" stroke-linecap="round" stroke-linejoin="round" stroke="rgb(100%, 41.992188%, 0%)" stroke-opacity="1" stroke-miterlimit="10" d="M 672.978137 863.318599 L 672.978137 863.318599 " transform="matrix(0.0997316, 0, 0, -0.0997316, 0.000000000000004774, 231.119678)"/>
<path fill="none" stroke-width="115.164" stroke-linecap="round" stroke-linejoin="round" stroke="rgb(100%, 41.992188%, 0%)" stroke-opacity="1" stroke-miterlimit="10" d="M 1446.734573 846.750693 L 1446.734573 846.750693 " transform="matrix(0.0997316, 0, 0, -0.0997316, 0.000000000000004774, 231.119678)"/>
<path fill="none" stroke-width="5" stroke-linecap="round" stroke-linejoin="round" stroke="rgb(18.505859%, 100%, 0%)" stroke-opacity="1" stroke-miterlimit="10" d="M 751.509225 1180.263022 L 932.346151 700.812122 " transform="matrix(0.0997316, 0, 0, -0.0997316, 0.000000000000004774, 231.119678)"/>
<path fill="none" stroke-width="115.164" stroke-linecap="round" stroke-linejoin="round" stroke="rgb(18.505859%, 100%, 0%)" stroke-opacity="1" stroke-miterlimit="10" d="M 751.509225 1180.263022 L 751.509225 1180.263022 " transform="matrix(0.0997316, 0, 0, -0.0997316, 0.000000000000004774, 231.119678)"/>
<path fill="none" stroke-width="115.164" stroke-linecap="round" stroke-linejoin="round" stroke="rgb(18.505859%, 100%, 0%)" stroke-opacity="1" stroke-miterlimit="10" d="M 1532.080828 1164.752643 L 1532.080828 1164.752643 " transform="matrix(0.0997316, 0, 0, -0.0997316, 0.000000000000004774, 231.119678)"/>
<path fill="none" stroke-width="115.164" stroke-linecap="round" stroke-linejoin="round" stroke="rgb(100%, 41.992188%, 0%)" stroke-opacity="1" stroke-miterlimit="10" d="M 1211.454648 800.493728 L 1211.454648 800.493728 " transform="matrix(0.0997316, 0, 0, -0.0997316, 0.000000000000004774, 231.119678)"/>
<path fill="none" stroke-width="115.164" stroke-linecap="round" stroke-linejoin="round" stroke="rgb(18.505859%, 100%, 0%)" stroke-opacity="1" stroke-miterlimit="10" d="M 1295.70421 1121.550752 L 1295.70421 1121.550752 " transform="matrix(0.0997316, 0, 0, -0.0997316, 0.000000000000004774, 231.119678)"/>
<path fill="none" stroke-width="115.164" stroke-linecap="round" stroke-linejoin="round" stroke="rgb(100%, 41.992188%, 0%)" stroke-opacity="1" stroke-miterlimit="10" d="M 971.043765 753.257572 L 971.043765 753.257572 " transform="matrix(0.0997316, 0, 0, -0.0997316, 0.000000000000004774, 231.119678)"/>
<path fill="none" stroke-width="115.164" stroke-linecap="round" stroke-linejoin="round" stroke="rgb(100%, 41.992188%, 0%)" stroke-opacity="1" stroke-miterlimit="10" d="M 1765.872383 735.827979 L 1765.872383 735.827979 " transform="matrix(0.0997316, 0, 0, -0.0997316, 0.000000000000004774, 231.119678)"/>
<path fill="none" stroke-width="5" stroke-linecap="round" stroke-linejoin="round" stroke="rgb(0%, 78.90625%, 100%)" stroke-opacity="1" stroke-miterlimit="10" d="M 1381.402974 1448.130411 L 890.63263 1365.369219 " transform="matrix(0.0997316, 0, 0, -0.0997316, 0.000000000000004774, 231.119678)"/>
<path fill="none" stroke-width="5" stroke-linecap="round" stroke-linejoin="round" stroke="rgb(0%, 78.90625%, 100%)" stroke-opacity="1" stroke-miterlimit="10" d="M 1550.058768 1154.255719 L 1381.402974 1448.130411 " transform="matrix(0.0997316, 0, 0, -0.0997316, 0.000000000000004774, 231.119678)"/>
<path fill="none" stroke-width="115.164" stroke-linecap="round" stroke-linejoin="round" stroke="rgb(0%, 78.90625%, 100%)" stroke-opacity="1" stroke-miterlimit="10" d="M 1381.402974 1448.130411 L 1381.402974 1448.130411 " transform="matrix(0.0997316, 0, 0, -0.0997316, 0.000000000000004774, 231.119678)"/>
<path fill="none" stroke-width="115.164" stroke-linecap="round" stroke-linejoin="round" stroke="rgb(18.505859%, 100%, 0%)" stroke-opacity="1" stroke-miterlimit="10" d="M 1054.157465 1077.408838 L 1054.157465 1077.408838 " transform="matrix(0.0997316, 0, 0, -0.0997316, 0.000000000000004774, 231.119678)"/>
<path fill="none" stroke-width="115.164" stroke-linecap="round" stroke-linejoin="round" stroke="rgb(100%, 41.992188%, 0%)" stroke-opacity="1" stroke-miterlimit="10" d="M 725.384419 704.96389 L 725.384419 704.96389 " transform="matrix(0.0997316, 0, 0, -0.0997316, 0.000000000000004774, 231.119678)"/>
<path fill="none" stroke-width="115.164" stroke-linecap="round" stroke-linejoin="round" stroke="rgb(100%, 41.992188%, 0%)" stroke-opacity="1" stroke-miterlimit="10" d="M 1527.968228 687.142621 L 1527.968228 687.142621 " transform="matrix(0.0997316, 0, 0, -0.0997316, 0.000000000000004774, 231.119678)"/>
<path fill="none" stroke-width="115.164" stroke-linecap="round" stroke-linejoin="round" stroke="rgb(0%, 78.90625%, 100%)" stroke-opacity="1" stroke-miterlimit="10" d="M 1138.759536 1407.200243 L 1138.759536 1407.200243 " transform="matrix(0.0997316, 0, 0, -0.0997316, 0.000000000000004774, 231.119678)"/>
<path fill="none" stroke-width="115.164" stroke-linecap="round" stroke-linejoin="round" stroke="rgb(18.505859%, 100%, 0%)" stroke-opacity="1" stroke-miterlimit="10" d="M 807.323091 1032.326902 L 807.323091 1032.326902 " transform="matrix(0.0997316, 0, 0, -0.0997316, 0.000000000000004774, 231.119678)"/>
<path fill="none" stroke-width="115.164" stroke-linecap="round" stroke-linejoin="round" stroke="rgb(18.505859%, 100%, 0%)" stroke-opacity="1" stroke-miterlimit="10" d="M 1617.192078 1015.641493 L 1617.192078 1015.641493 " transform="matrix(0.0997316, 0, 0, -0.0997316, 0.000000000000004774, 231.119678)"/>
<path fill="none" stroke-width="115.164" stroke-linecap="round" stroke-linejoin="round" stroke="rgb(100%, 41.992188%, 0%)" stroke-opacity="1" stroke-miterlimit="10" d="M 1284.776443 637.399737 L 1284.776443 637.399737 " transform="matrix(0.0997316, 0, 0, -0.0997316, 0.000000000000004774, 231.119678)"/>
<path fill="none" stroke-width="5" stroke-linecap="round" stroke-linejoin="round" stroke="rgb(0%, 78.90625%, 100%)" stroke-opacity="1" stroke-miterlimit="10" d="M 890.63263 1365.369219 L 1023.606718 1057.707523 " transform="matrix(0.0997316, 0, 0, -0.0997316, 0.000000000000004774, 231.119678)"/>
<path fill="none" stroke-width="115.164" stroke-linecap="round" stroke-linejoin="round" stroke="rgb(0%, 78.90625%, 100%)" stroke-opacity="1" stroke-miterlimit="10" d="M 890.63263 1365.369219 L 890.63263 1365.369219 " transform="matrix(0.0997316, 0, 0, -0.0997316, 0.000000000000004774, 231.119678)"/>
<path fill="none" stroke-width="115.164" stroke-linecap="round" stroke-linejoin="round" stroke="rgb(18.505859%, 100%, 0%)" stroke-opacity="1" stroke-miterlimit="10" d="M 1372.864432 969.149522 L 1372.864432 969.149522 " transform="matrix(0.0997316, 0, 0, -0.0997316, 0.000000000000004774, 231.119678)"/>
<path fill="none" stroke-width="115.164" stroke-linecap="round" stroke-linejoin="round" stroke="rgb(100%, 41.992188%, 0%)" stroke-opacity="1" stroke-miterlimit="10" d="M 1036.140358 586.520991 L 1036.140358 586.520991 " transform="matrix(0.0997316, 0, 0, -0.0997316, 0.000000000000004774, 231.119678)"/>
<path fill="none" stroke-width="5" stroke-linecap="round" stroke-linejoin="round" stroke="rgb(100%, 41.992188%, 0%)" stroke-opacity="1" stroke-miterlimit="10" d="M 842.730624 350.536049 L 1861.363054 567.759699 " transform="matrix(0.0997316, 0, 0, -0.0997316, 0.000000000000004774, 231.119678)"/>
<path fill="none" stroke-width="115.164" stroke-linecap="round" stroke-linejoin="round" stroke="rgb(100%, 41.992188%, 0%)" stroke-opacity="1" stroke-miterlimit="10" d="M 1861.363054 567.759699 L 1861.363054 567.759699 " transform="matrix(0.0997316, 0, 0, -0.0997316, 0.000000000000004774, 231.119678)"/>
<path fill="none" stroke-width="115.164" stroke-linecap="round" stroke-linejoin="round" stroke="rgb(100%, 41.992188%, 0%)" stroke-opacity="1" stroke-miterlimit="10" d="M 1861.363054 567.759699 L 1861.363054 567.759699 " transform="matrix(0.0997316, 0, 0, -0.0997316, 0.000000000000004774, 231.119678)"/>
<path fill="none" stroke-width="115.164" stroke-linecap="round" stroke-linejoin="round" stroke="rgb(100%, 41.992188%, 0%)" stroke-opacity="1" stroke-miterlimit="10" d="M 1861.363054 567.759699 L 1861.363054 567.759699 " transform="matrix(0.0997316, 0, 0, -0.0997316, 0.000000000000004774, 231.119678)"/>
<path fill="none" stroke-width="115.164" stroke-linecap="round" stroke-linejoin="round" stroke="rgb(0%, 78.90625%, 100%)" stroke-opacity="1" stroke-miterlimit="10" d="M 1462.558294 1306.774452 L 1462.558294 1306.774452 " transform="matrix(0.0997316, 0, 0, -0.0997316, 0.000000000000004774, 231.119678)"/>
<path fill="none" stroke-width="115.164" stroke-linecap="round" stroke-linejoin="round" stroke="rgb(18.505859%, 100%, 0%)" stroke-opacity="1" stroke-miterlimit="10" d="M 1123.014151 921.600025 L 1123.014151 921.600025 " transform="matrix(0.0997316, 0, 0, -0.0997316, 0.000000000000004774, 231.119678)"/>
<path fill="none" stroke-width="115.164" stroke-linecap="round" stroke-linejoin="round" stroke="rgb(100%, 41.992188%, 0%)" stroke-opacity="1" stroke-miterlimit="10" d="M 781.824967 534.506385 L 781.824967 534.506385 " transform="matrix(0.0997316, 0, 0, -0.0997316, 0.000000000000004774, 231.119678)"/>
<path fill="none" stroke-width="115.164" stroke-linecap="round" stroke-linejoin="round" stroke="rgb(100%, 41.992188%, 0%)" stroke-opacity="1" stroke-miterlimit="10" d="M 1615.429535 515.314249 L 1615.429535 515.314249 " transform="matrix(0.0997316, 0, 0, -0.0997316, 0.000000000000004774, 231.119678)"/>
<path fill="none" stroke-width="115.164" stroke-linecap="round" stroke-linejoin="round" stroke="rgb(0%, 78.90625%, 100%)" stroke-opacity="1" stroke-miterlimit="10" d="M 1211.454648 1262.671706 L 1211.454648 1262.671706 " transform="matrix(0.0997316, 0, 0, -0.0997316, 0.000000000000004774, 231.119678)"/>
<path fill="none" stroke-width="115.164" stroke-linecap="round" stroke-linejoin="round" stroke="rgb(18.505859%, 100%, 0%)" stroke-opacity="1" stroke-miterlimit="10" d="M 867.406228 872.953835 L 867.406228 872.953835 " transform="matrix(0.0997316, 0, 0, -0.0997316, 0.000000000000004774, 231.119678)"/>
<path fill="none" stroke-width="5" stroke-linecap="round" stroke-linejoin="round" stroke="rgb(18.505859%, 100%, 0%)" stroke-opacity="1" stroke-miterlimit="10" d="M 932.346151 700.812122 L 1708.922656 854.975895 " transform="matrix(0.0997316, 0, 0, -0.0997316, 0.000000000000004774, 231.119678)"/>
<path fill="none" stroke-width="115.164" stroke-linecap="round" stroke-linejoin="round" stroke="rgb(18.505859%, 100%, 0%)" stroke-opacity="1" stroke-miterlimit="10" d="M 1708.922656 854.975895 L 1708.922656 854.975895 " transform="matrix(0.0997316, 0, 0, -0.0997316, 0.000000000000004774, 231.119678)"/>
<path fill="none" stroke-width="115.164" stroke-linecap="round" stroke-linejoin="round" stroke="rgb(18.505859%, 100%, 0%)" stroke-opacity="1" stroke-miterlimit="10" d="M 1708.922656 854.975895 L 1708.922656 854.975895 " transform="matrix(0.0997316, 0, 0, -0.0997316, 0.000000000000004774, 231.119678)"/>
<path fill="none" stroke-width="115.164" stroke-linecap="round" stroke-linejoin="round" stroke="rgb(18.505859%, 100%, 0%)" stroke-opacity="1" stroke-miterlimit="10" d="M 1708.922656 854.975895 L 1708.922656 854.975895 " transform="matrix(0.0997316, 0, 0, -0.0997316, 0.000000000000004774, 231.119678)"/>
<path fill="none" stroke-width="5" stroke-linecap="round" stroke-linejoin="round" stroke="rgb(60.546875%, 0%, 100%)" stroke-opacity="1" stroke-miterlimit="10" d="M 1301.461851 1609.931871 L 1043.268866 1568.453356 " transform="matrix(0.0997316, 0, 0, -0.0997316, 0.000000000000004774, 231.119678)"/>
<path fill="none" stroke-width="5" stroke-linecap="round" stroke-linejoin="round" stroke="rgb(60.546875%, 0%, 100%)" stroke-opacity="1" stroke-miterlimit="10" d="M 1384.379714 1466.382525 L 1301.461851 1609.931871 " transform="matrix(0.0997316, 0, 0, -0.0997316, 0.000000000000004774, 231.119678)"/>
<path fill="none" stroke-width="115.164" stroke-linecap="round" stroke-linejoin="round" stroke="rgb(60.546875%, 0%, 100%)" stroke-opacity="1" stroke-miterlimit="10" d="M 1301.461851 1609.931871 L 1301.461851 1609.931871 " transform="matrix(0.0997316, 0, 0, -0.0997316, 0.000000000000004774, 231.119678)"/>
<path fill="none" stroke-width="115.164" stroke-linecap="round" stroke-linejoin="round" stroke="rgb(100%, 41.992188%, 0%)" stroke-opacity="1" stroke-miterlimit="10" d="M 1363.81671 461.654602 L 1363.81671 461.654602 " transform="matrix(0.0997316, 0, 0, -0.0997316, 0.000000000000004774, 231.119678)"/>
<path fill="none" stroke-width="115.164" stroke-linecap="round" stroke-linejoin="round" stroke="rgb(0%, 78.90625%, 100%)" stroke-opacity="1" stroke-miterlimit="10" d="M 954.515027 1217.511434 L 954.515027 1217.511434 " transform="matrix(0.0997316, 0, 0, -0.0997316, 0.000000000000004774, 231.119678)"/>
<path fill="none" stroke-width="115.164" stroke-linecap="round" stroke-linejoin="round" stroke="rgb(18.505859%, 100%, 0%)" stroke-opacity="1" stroke-miterlimit="10" d="M 1456.095635 804.802167 L 1456.095635 804.802167 " transform="matrix(0.0997316, 0, 0, -0.0997316, 0.000000000000004774, 231.119678)"/>
<path fill="none" stroke-width="5" stroke-linecap="round" stroke-linejoin="round" stroke="rgb(60.546875%, 0%, 100%)" stroke-opacity="1" stroke-miterlimit="10" d="M 1043.268866 1568.453356 L 1116.629828 1421.418091 " transform="matrix(0.0997316, 0, 0, -0.0997316, 0.000000000000004774, 231.119678)"/>
<path fill="none" stroke-width="115.164" stroke-linecap="round" stroke-linejoin="round" stroke="rgb(60.546875%, 0%, 100%)" stroke-opacity="1" stroke-miterlimit="10" d="M 1043.268866 1568.453356 L 1043.268866 1568.453356 " transform="matrix(0.0997316, 0, 0, -0.0997316, 0.000000000000004774, 231.119678)"/>
<path fill="none" stroke-width="115.164" stroke-linecap="round" stroke-linejoin="round" stroke="rgb(100%, 41.992188%, 0%)" stroke-opacity="1" stroke-miterlimit="10" d="M 1106.328742 406.741592 L 1106.328742 406.741592 " transform="matrix(0.0997316, 0, 0, -0.0997316, 0.000000000000004774, 231.119678)"/>
<path fill="none" stroke-width="5" stroke-linecap="round" stroke-linejoin="round" stroke="rgb(0%, 78.90625%, 100%)" stroke-opacity="1" stroke-miterlimit="10" d="M 1023.606718 1057.707523 L 1550.058768 1154.255719 " transform="matrix(0.0997316, 0, 0, -0.0997316, 0.000000000000004774, 231.119678)"/>
<path fill="none" stroke-width="115.164" stroke-linecap="round" stroke-linejoin="round" stroke="rgb(0%, 78.90625%, 100%)" stroke-opacity="1" stroke-miterlimit="10" d="M 1550.058768 1154.255719 L 1550.058768 1154.255719 " transform="matrix(0.0997316, 0, 0, -0.0997316, 0.000000000000004774, 231.119678)"/>
<path fill="none" stroke-width="115.164" stroke-linecap="round" stroke-linejoin="round" stroke="rgb(0%, 78.90625%, 100%)" stroke-opacity="1" stroke-miterlimit="10" d="M 1550.058768 1154.255719 L 1550.058768 1154.255719 " transform="matrix(0.0997316, 0, 0, -0.0997316, 0.000000000000004774, 231.119678)"/>
<path fill="none" stroke-width="115.164" stroke-linecap="round" stroke-linejoin="round" stroke="rgb(0%, 78.90625%, 100%)" stroke-opacity="1" stroke-miterlimit="10" d="M 1550.058768 1154.255719 L 1550.058768 1154.255719 " transform="matrix(0.0997316, 0, 0, -0.0997316, 0.000000000000004774, 231.119678)"/>
<path fill="none" stroke-width="115.164" stroke-linecap="round" stroke-linejoin="round" stroke="rgb(18.505859%, 100%, 0%)" stroke-opacity="1" stroke-miterlimit="10" d="M 1197.315136 753.414243 L 1197.315136 753.414243 " transform="matrix(0.0997316, 0, 0, -0.0997316, 0.000000000000004774, 231.119678)"/>
<path fill="none" stroke-width="115.164" stroke-linecap="round" stroke-linejoin="round" stroke="rgb(100%, 41.992188%, 0%)" stroke-opacity="1" stroke-miterlimit="10" d="M 842.730624 350.536049 L 842.730624 350.536049 " transform="matrix(0.0997316, 0, 0, -0.0997316, 0.000000000000004774, 231.119678)"/>
<path fill="none" stroke-width="115.164" stroke-linecap="round" stroke-linejoin="round" stroke="rgb(0%, 78.90625%, 100%)" stroke-opacity="1" stroke-miterlimit="10" d="M 1289.946569 1106.549552 L 1289.946569 1106.549552 " transform="matrix(0.0997316, 0, 0, -0.0997316, 0.000000000000004774, 231.119678)"/>
<path fill="none" stroke-width="115.164" stroke-linecap="round" stroke-linejoin="round" stroke="rgb(18.505859%, 100%, 0%)" stroke-opacity="1" stroke-miterlimit="10" d="M 932.346151 700.812122 L 932.346151 700.812122 " transform="matrix(0.0997316, 0, 0, -0.0997316, 0.000000000000004774, 231.119678)"/>
<path fill="none" stroke-width="5" stroke-linecap="round" stroke-linejoin="round" stroke="rgb(60.546875%, 0%, 100%)" stroke-opacity="1" stroke-miterlimit="10" d="M 1116.629828 1421.418091 L 1384.379714 1466.382525 " transform="matrix(0.0997316, 0, 0, -0.0997316, 0.000000000000004774, 231.119678)"/>
<path fill="none" stroke-width="115.164" stroke-linecap="round" stroke-linejoin="round" stroke="rgb(60.546875%, 0%, 100%)" stroke-opacity="1" stroke-miterlimit="10" d="M 1384.379714 1466.382525 L 1384.379714 1466.382525 " transform="matrix(0.0997316, 0, 0, -0.0997316, 0.000000000000004774, 231.119678)"/>
<path fill="none" stroke-width="115.164" stroke-linecap="round" stroke-linejoin="round" stroke="rgb(60.546875%, 0%, 100%)" stroke-opacity="1" stroke-miterlimit="10" d="M 1384.379714 1466.382525 L 1384.379714 1466.382525 " transform="matrix(0.0997316, 0, 0, -0.0997316, 0.000000000000004774, 231.119678)"/>
<path fill="none" stroke-width="115.164" stroke-linecap="round" stroke-linejoin="round" stroke="rgb(60.546875%, 0%, 100%)" stroke-opacity="1" stroke-miterlimit="10" d="M 1384.379714 1466.382525 L 1384.379714 1466.382525 " transform="matrix(0.0997316, 0, 0, -0.0997316, 0.000000000000004774, 231.119678)"/>
<path fill="none" stroke-width="115.164" stroke-linecap="round" stroke-linejoin="round" stroke="rgb(0%, 78.90625%, 100%)" stroke-opacity="1" stroke-miterlimit="10" d="M 1023.606718 1057.707523 L 1023.606718 1057.707523 " transform="matrix(0.0997316, 0, 0, -0.0997316, 0.000000000000004774, 231.119678)"/>
<path fill="none" stroke-width="115.164" stroke-linecap="round" stroke-linejoin="round" stroke="rgb(60.546875%, 0%, 100%)" stroke-opacity="1" stroke-miterlimit="10" d="M 1116.629828 1421.418091 L 1116.629828 1421.418091 " transform="matrix(0.0997316, 0, 0, -0.0997316, 0.000000000000004774, 231.119678)"/>
<path fill="none" stroke-width="5" stroke-linecap="round" stroke-linejoin="round" stroke="rgb(100%, 0%, 0%)" stroke-opacity="1" stroke-miterlimit="10" d="M 1211.454648 1792.178831 L 1211.454648 1792.178831 " transform="matrix(0.0997316, 0, 0, -0.0997316, 0.000000000000004774, 231.119678)"/>
<path fill="none" stroke-width="115.164" stroke-linecap="round" stroke-linejoin="round" stroke="rgb(100%, 0%, 0%)" stroke-opacity="1" stroke-miterlimit="10" d="M 1211.454648 1792.178831 L 1211.454648 1792.178831 " transform="matrix(0.0997316, 0, 0, -0.0997316, 0.000000000000004774, 231.119678)"/>
<path fill="none" stroke-width="115.164" stroke-linecap="round" stroke-linejoin="round" stroke="rgb(100%, 0%, 0%)" stroke-opacity="1" stroke-miterlimit="10" d="M 1211.454648 1792.178831 L 1211.454648 1792.178831 " transform="matrix(0.0997316, 0, 0, -0.0997316, 0.000000000000004774, 231.119678)"/>
<path fill="none" stroke-width="115.164" stroke-linecap="round" stroke-linejoin="round" stroke="rgb(100%, 0%, 0%)" stroke-opacity="1" stroke-miterlimit="10" d="M 1211.454648 1792.178831 L 1211.454648 1792.178831 " transform="matrix(0.0997316, 0, 0, -0.0997316, 0.000000000000004774, 231.119678)"/>
<g clip-path="url(#clip-11)">
<path fill="none" stroke-width="2.5" stroke-linecap="round" stroke-linejoin="round" stroke="rgb(0%, 0%, 0%)" stroke-opacity="1" stroke-miterlimit="10" d="M 1560.007345 -0.0141964 L 2164.363802 967.112806 " transform="matrix(0.0997316, 0, 0, -0.0997316, 0.000000000000004774, 231.119678)"/>
</g>
<g clip-path="url(#clip-12)">
<path fill="none" stroke-width="2.5" stroke-linecap="round" stroke-linejoin="round" stroke="rgb(0%, 0%, 0%)" stroke-opacity="1" stroke-miterlimit="10" d="M 2164.363802 967.112806 L 2303.526375 1985.157721 " transform="matrix(0.0997316, 0, 0, -0.0997316, 0.000000000000004774, 231.119678)"/>
</g>
<g clip-path="url(#clip-13)">
<path fill="none" stroke-width="2.5" stroke-linecap="round" stroke-linejoin="round" stroke="rgb(0%, 0%, 0%)" stroke-opacity="1" stroke-miterlimit="10" d="M 2303.526375 1985.157721 L 1624.829765 1116.380625 " transform="matrix(0.0997316, 0, 0, -0.0997316, 0.000000000000004774, 231.119678)"/>
</g>
<g clip-path="url(#clip-14)">
<path fill="none" stroke-width="2.5" stroke-linecap="round" stroke-linejoin="round" stroke="rgb(0%, 0%, 0%)" stroke-opacity="1" stroke-miterlimit="10" d="M 1624.829765 1116.380625 L 1560.007345 -0.0141964 " transform="matrix(0.0997316, 0, 0, -0.0997316, 0.000000000000004774, 231.119678)"/>
</g>
<path fill="none" stroke-width="2.5" stroke-linecap="round" stroke-linejoin="round" stroke="rgb(0%, 0%, 0%)" stroke-opacity="1" stroke-miterlimit="10" d="M 169.04747 573.047328 L 0.235006 1638.289232 " transform="matrix(0.0997316, 0, 0, -0.0997316, 0.000000000000004774, 231.119678)"/>
<path fill="none" stroke-width="2.5" stroke-linecap="round" stroke-linejoin="round" stroke="rgb(0%, 0%, 0%)" stroke-opacity="1" stroke-miterlimit="10" d="M 0.235006 1638.289232 L 1624.829765 1116.380625 " transform="matrix(0.0997316, 0, 0, -0.0997316, 0.000000000000004774, 231.119678)"/>
<g clip-path="url(#clip-15)">
<path fill="none" stroke-width="2.5" stroke-linecap="round" stroke-linejoin="round" stroke="rgb(0%, 0%, 0%)" stroke-opacity="1" stroke-miterlimit="10" d="M 1624.829765 1116.380625 L 1560.007345 -0.0141964 " transform="matrix(0.0997316, 0, 0, -0.0997316, 0.000000000000004774, 231.119678)"/>
</g>
<g clip-path="url(#clip-16)">
<path fill="none" stroke-width="2.5" stroke-linecap="round" stroke-linejoin="round" stroke="rgb(0%, 0%, 0%)" stroke-opacity="1" stroke-miterlimit="10" d="M 1560.007345 -0.0141964 L 169.04747 573.047328 " transform="matrix(0.0997316, 0, 0, -0.0997316, 0.000000000000004774, 231.119678)"/>
</g>
</svg>
