<?xml version="1.0" encoding="UTF-8"?>
<svg xmlns="http://www.w3.org/2000/svg" xmlns:xlink="http://www.w3.org/1999/xlink" width="297.56" height="55" viewBox="0 0 297.56 55">
<path fill="none" stroke-width="5" stroke-linecap="round" stroke-linejoin="round" stroke="rgb(0%, 0%, 0%)" stroke-opacity="1" stroke-miterlimit="10" d="M 86.064575 275 L 584.887029 275 " transform="matrix(0.0998523, 0, 0, -0.0998523, 0.000000000000007105, 54.959396)"/>
<path fill="none" stroke-width="62.8548" stroke-linecap="round" stroke-linejoin="round" stroke="rgb(100%, 0%, 0%)" stroke-opacity="1" stroke-miterlimit="10" d="M 335.456242 275 L 335.456242 275 " transform="matrix(0.0998523, 0, 0, -0.0998523, 0.000000000000007105, 54.959396)"/>
<path fill="none" stroke-width="5" stroke-linecap="round" stroke-linejoin="round" stroke="rgb(0%, 0%, 0%)" stroke-opacity="1" stroke-miterlimit="10" d="M 662.227786 275 L 1161.08936 275 " transform="matrix(0.0998523, 0, 0, -0.0998523, 0.000000000000007105, 54.959396)"/>
<path fill="none" stroke-width="5" stroke-linecap="round" stroke-linejoin="round" stroke="rgb(0%, 0%, 0%)" stroke-opacity="1" stroke-miterlimit="10" d="M 911.658573 25.569213 L 911.658573 524.430787 " transform="matrix(0.0998523, 0, 0, -0.0998523, 0.000000000000007105, 54.959396)"/>
<path fill="none" stroke-width="62.8549" stroke-linecap="round" stroke-linejoin="round" stroke="rgb(100%, 0%, 0%)" stroke-opacity="1" stroke-miterlimit="10" d="M 911.658573 275 L 911.658573 275 " transform="matrix(0.0998523, 0, 0, -0.0998523, 0.000000000000007105, 54.959396)"/>
<path fill="none" stroke-width="5" stroke-linecap="round" stroke-linejoin="round" stroke="rgb(0%, 0%, 0%)" stroke-opacity="1" stroke-miterlimit="10" d="M 1238.390997 275 L 1737.213451 275 " transform="matrix(0.0998523, 0, 0, -0.0998523, 0.000000000000007105, 54.959396)"/>
<path fill="none" stroke-width="5" stroke-linecap="round" stroke-linejoin="round" stroke="rgb(0%, 0%, 0%)" stroke-opacity="1" stroke-miterlimit="10" d="M 1363.10639 58.977916 L 1612.537177 490.982964 " transform="matrix(0.0998523, 0, 0, -0.0998523, 0.000000000000007105, 54.959396)"/>
<path fill="none" stroke-width="5" stroke-linecap="round" stroke-linejoin="round" stroke="rgb(0%, 0%, 0%)" stroke-opacity="1" stroke-miterlimit="10" d="M 1612.537177 58.977916 L 1363.10639 490.982964 " transform="matrix(0.0998523, 0, 0, -0.0998523, 0.000000000000007105, 54.959396)"/>
<path fill="none" stroke-width="62.8546" stroke-linecap="round" stroke-linejoin="round" stroke="rgb(100%, 0%, 0%)" stroke-opacity="1" stroke-miterlimit="10" d="M 1487.821784 275 L 1487.821784 275 " transform="matrix(0.0998523, 0, 0, -0.0998523, 0.000000000000007105, 54.959396)"/>
<path fill="none" stroke-width="5" stroke-linecap="round" stroke-linejoin="round" stroke="rgb(0%, 0%, 0%)" stroke-opacity="1" stroke-miterlimit="10" d="M 1814.554208 275 L 2313.415782 275 " transform="matrix(0.0998523, 0, 0, -0.0998523, 0.000000000000007105, 54.959396)"/>
<path fill="none" stroke-width="5" stroke-linecap="round" stroke-linejoin="round" stroke="rgb(0%, 0%, 0%)" stroke-opacity="1" stroke-miterlimit="10" d="M 1887.591736 98.606741 L 2240.339133 451.354139 " transform="matrix(0.0998523, 0, 0, -0.0998523, 0.000000000000007105, 54.959396)"/>
<path fill="none" stroke-width="5" stroke-linecap="round" stroke-linejoin="round" stroke="rgb(0%, 0%, 0%)" stroke-opacity="1" stroke-miterlimit="10" d="M 2063.984995 25.569213 L 2063.984995 524.430787 " transform="matrix(0.0998523, 0, 0, -0.0998523, 0.000000000000007105, 54.959396)"/>
<path fill="none" stroke-width="5" stroke-linecap="round" stroke-linejoin="round" stroke="rgb(0%, 0%, 0%)" stroke-opacity="1" stroke-miterlimit="10" d="M 2240.339133 98.606741 L 1887.591736 451.354139 " transform="matrix(0.0998523, 0, 0, -0.0998523, 0.000000000000007105, 54.959396)"/>
<path fill="none" stroke-width="62.8549" stroke-linecap="round" stroke-linejoin="round" stroke="rgb(100%, 0%, 0%)" stroke-opacity="1" stroke-miterlimit="10" d="M 2063.984995 275 L 2063.984995 275 " transform="matrix(0.0998523, 0, 0, -0.0998523, 0.000000000000007105, 54.959396)"/>
<path fill="none" stroke-width="5" stroke-linecap="round" stroke-linejoin="round" stroke="rgb(0%, 0%, 0%)" stroke-opacity="1" stroke-miterlimit="10" d="M 2390.717418 275 L 2889.578992 275 " transform="matrix(0.0998523, 0, 0, -0.0998523, 0.000000000000007105, 54.959396)"/>
<path fill="none" stroke-width="5" stroke-linecap="round" stroke-linejoin="round" stroke="rgb(0%, 0%, 0%)" stroke-opacity="1" stroke-miterlimit="10" d="M 2438.365897 128.37726 L 2841.930514 421.58362 " transform="matrix(0.0998523, 0, 0, -0.0998523, 0.000000000000007105, 54.959396)"/>
<path fill="none" stroke-width="5" stroke-linecap="round" stroke-linejoin="round" stroke="rgb(0%, 0%, 0%)" stroke-opacity="1" stroke-miterlimit="10" d="M 2563.08129 37.774735 L 2717.21512 512.225265 " transform="matrix(0.0998523, 0, 0, -0.0998523, 0.000000000000007105, 54.959396)"/>
<path fill="none" stroke-width="5" stroke-linecap="round" stroke-linejoin="round" stroke="rgb(0%, 0%, 0%)" stroke-opacity="1" stroke-miterlimit="10" d="M 2717.21512 37.774735 L 2563.08129 512.225265 " transform="matrix(0.0998523, 0, 0, -0.0998523, 0.000000000000007105, 54.959396)"/>
<path fill="none" stroke-width="5" stroke-linecap="round" stroke-linejoin="round" stroke="rgb(0%, 0%, 0%)" stroke-opacity="1" stroke-miterlimit="10" d="M 2841.930514 128.37726 L 2438.365897 421.58362 " transform="matrix(0.0998523, 0, 0, -0.0998523, 0.000000000000007105, 54.959396)"/>
<path fill="none" stroke-width="62.8546" stroke-linecap="round" stroke-linejoin="round" stroke="rgb(100%, 0%, 0%)" stroke-opacity="1" stroke-miterlimit="10" d="M 2640.148205 275 L 2640.148205 275 " transform="matrix(0.0998523, 0, 0, -0.0998523, 0.000000000000007105, 54.959396)"/>
</svg>
