<?xml version="1.0" encoding="UTF-8"?>
<svg xmlns="http://www.w3.org/2000/svg" xmlns:xlink="http://www.w3.org/1999/xlink" width="400" height="190.44" viewBox="0 0 400 190.44">
<path fill="none" stroke-width="5" stroke-linecap="round" stroke-linejoin="round" stroke="rgb(0%, 100%, 100%)" stroke-opacity="1" stroke-miterlimit="10" d="M 138.800894 88.529106 L 1866.130942 88.529106 " transform="matrix(0.0997068, 0, 0, -0.0997068, 0.586387, 189.881642)"/>
<path fill="none" stroke-width="5" stroke-linecap="round" stroke-linejoin="round" stroke="rgb(0%, 100%, 100%)" stroke-opacity="1" stroke-miterlimit="10" d="M 138.800894 88.529106 L 138.800894 1815.859154 " transform="matrix(0.0997068, 0, 0, -0.0997068, 0.586387, 189.881642)"/>
<path fill="none" stroke-width="5" stroke-linecap="round" stroke-linejoin="round" stroke="rgb(0%, 100%, 100%)" stroke-opacity="1" stroke-miterlimit="10" d="M 138.800894 232.466747 L 1866.130942 232.466747 " transform="matrix(0.0997068, 0, 0, -0.0997068, 0.586387, 189.881642)"/>
<path fill="none" stroke-width="5" stroke-linecap="round" stroke-linejoin="round" stroke="rgb(0%, 100%, 100%)" stroke-opacity="1" stroke-miterlimit="10" d="M 282.738535 88.529106 L 282.738535 1815.859154 " transform="matrix(0.0997068, 0, 0, -0.0997068, 0.586387, 189.881642)"/>
<path fill="none" stroke-width="5" stroke-linecap="round" stroke-linejoin="round" stroke="rgb(0%, 100%, 100%)" stroke-opacity="1" stroke-miterlimit="10" d="M 138.800894 376.404388 L 1866.130942 376.404388 " transform="matrix(0.0997068, 0, 0, -0.0997068, 0.586387, 189.881642)"/>
<path fill="none" stroke-width="5" stroke-linecap="round" stroke-linejoin="round" stroke="rgb(0%, 100%, 100%)" stroke-opacity="1" stroke-miterlimit="10" d="M 426.676176 88.529106 L 426.676176 1815.859154 " transform="matrix(0.0997068, 0, 0, -0.0997068, 0.586387, 189.881642)"/>
<path fill="none" stroke-width="5" stroke-linecap="round" stroke-linejoin="round" stroke="rgb(0%, 100%, 100%)" stroke-opacity="1" stroke-miterlimit="10" d="M 138.800894 520.342029 L 1866.130942 520.342029 " transform="matrix(0.0997068, 0, 0, -0.0997068, 0.586387, 189.881642)"/>
<path fill="none" stroke-width="5" stroke-linecap="round" stroke-linejoin="round" stroke="rgb(0%, 100%, 100%)" stroke-opacity="1" stroke-miterlimit="10" d="M 570.613817 88.529106 L 570.613817 1815.859154 " transform="matrix(0.0997068, 0, 0, -0.0997068, 0.586387, 189.881642)"/>
<path fill="none" stroke-width="5" stroke-linecap="round" stroke-linejoin="round" stroke="rgb(0%, 100%, 100%)" stroke-opacity="1" stroke-miterlimit="10" d="M 138.800894 664.27967 L 1866.130942 664.27967 " transform="matrix(0.0997068, 0, 0, -0.0997068, 0.586387, 189.881642)"/>
<path fill="none" stroke-width="5" stroke-linecap="round" stroke-linejoin="round" stroke="rgb(0%, 100%, 100%)" stroke-opacity="1" stroke-miterlimit="10" d="M 714.590636 88.529106 L 714.590636 1815.859154 " transform="matrix(0.0997068, 0, 0, -0.0997068, 0.586387, 189.881642)"/>
<path fill="none" stroke-width="5" stroke-linecap="round" stroke-linejoin="round" stroke="rgb(0%, 100%, 100%)" stroke-opacity="1" stroke-miterlimit="10" d="M 138.800894 808.217311 L 1866.130942 808.217311 " transform="matrix(0.0997068, 0, 0, -0.0997068, 0.586387, 189.881642)"/>
<path fill="none" stroke-width="5" stroke-linecap="round" stroke-linejoin="round" stroke="rgb(0%, 100%, 100%)" stroke-opacity="1" stroke-miterlimit="10" d="M 858.528277 88.529106 L 858.528277 1815.859154 " transform="matrix(0.0997068, 0, 0, -0.0997068, 0.586387, 189.881642)"/>
<path fill="none" stroke-width="5" stroke-linecap="round" stroke-linejoin="round" stroke="rgb(0%, 100%, 100%)" stroke-opacity="1" stroke-miterlimit="10" d="M 138.800894 952.19413 L 1866.130942 952.19413 " transform="matrix(0.0997068, 0, 0, -0.0997068, 0.586387, 189.881642)"/>
<path fill="none" stroke-width="5" stroke-linecap="round" stroke-linejoin="round" stroke="rgb(0%, 100%, 100%)" stroke-opacity="1" stroke-miterlimit="10" d="M 1002.465918 88.529106 L 1002.465918 1815.859154 " transform="matrix(0.0997068, 0, 0, -0.0997068, 0.586387, 189.881642)"/>
<path fill="none" stroke-width="5" stroke-linecap="round" stroke-linejoin="round" stroke="rgb(0%, 100%, 100%)" stroke-opacity="1" stroke-miterlimit="10" d="M 138.800894 1096.131771 L 1866.130942 1096.131771 " transform="matrix(0.0997068, 0, 0, -0.0997068, 0.586387, 189.881642)"/>
<path fill="none" stroke-width="5" stroke-linecap="round" stroke-linejoin="round" stroke="rgb(0%, 100%, 100%)" stroke-opacity="1" stroke-miterlimit="10" d="M 1146.403559 88.529106 L 1146.403559 1815.859154 " transform="matrix(0.0997068, 0, 0, -0.0997068, 0.586387, 189.881642)"/>
<path fill="none" stroke-width="5" stroke-linecap="round" stroke-linejoin="round" stroke="rgb(0%, 100%, 100%)" stroke-opacity="1" stroke-miterlimit="10" d="M 138.800894 1240.069412 L 1866.130942 1240.069412 " transform="matrix(0.0997068, 0, 0, -0.0997068, 0.586387, 189.881642)"/>
<path fill="none" stroke-width="5" stroke-linecap="round" stroke-linejoin="round" stroke="rgb(0%, 100%, 100%)" stroke-opacity="1" stroke-miterlimit="10" d="M 1290.3412 88.529106 L 1290.3412 1815.859154 " transform="matrix(0.0997068, 0, 0, -0.0997068, 0.586387, 189.881642)"/>
<path fill="none" stroke-width="5" stroke-linecap="round" stroke-linejoin="round" stroke="rgb(0%, 100%, 100%)" stroke-opacity="1" stroke-miterlimit="10" d="M 138.800894 1384.007053 L 1866.130942 1384.007053 " transform="matrix(0.0997068, 0, 0, -0.0997068, 0.586387, 189.881642)"/>
<path fill="none" stroke-width="5" stroke-linecap="round" stroke-linejoin="round" stroke="rgb(0%, 100%, 100%)" stroke-opacity="1" stroke-miterlimit="10" d="M 1434.318018 88.529106 L 1434.318018 1815.859154 " transform="matrix(0.0997068, 0, 0, -0.0997068, 0.586387, 189.881642)"/>
<path fill="none" stroke-width="5" stroke-linecap="round" stroke-linejoin="round" stroke="rgb(0%, 100%, 100%)" stroke-opacity="1" stroke-miterlimit="10" d="M 138.800894 1527.944694 L 1866.130942 1527.944694 " transform="matrix(0.0997068, 0, 0, -0.0997068, 0.586387, 189.881642)"/>
<path fill="none" stroke-width="5" stroke-linecap="round" stroke-linejoin="round" stroke="rgb(0%, 100%, 100%)" stroke-opacity="1" stroke-miterlimit="10" d="M 1578.25566 88.529106 L 1578.25566 1815.859154 " transform="matrix(0.0997068, 0, 0, -0.0997068, 0.586387, 189.881642)"/>
<path fill="none" stroke-width="5" stroke-linecap="round" stroke-linejoin="round" stroke="rgb(0%, 100%, 100%)" stroke-opacity="1" stroke-miterlimit="10" d="M 138.800894 1671.921513 L 1866.130942 1671.921513 " transform="matrix(0.0997068, 0, 0, -0.0997068, 0.586387, 189.881642)"/>
<path fill="none" stroke-width="5" stroke-linecap="round" stroke-linejoin="round" stroke="rgb(0%, 100%, 100%)" stroke-opacity="1" stroke-miterlimit="10" d="M 1722.193301 88.529106 L 1722.193301 1815.859154 " transform="matrix(0.0997068, 0, 0, -0.0997068, 0.586387, 189.881642)"/>
<path fill="none" stroke-width="5" stroke-linecap="round" stroke-linejoin="round" stroke="rgb(0%, 100%, 100%)" stroke-opacity="1" stroke-miterlimit="10" d="M 138.800894 1815.859154 L 1866.130942 1815.859154 " transform="matrix(0.0997068, 0, 0, -0.0997068, 0.586387, 189.881642)"/>
<path fill="none" stroke-width="5" stroke-linecap="round" stroke-linejoin="round" stroke="rgb(0%, 100%, 100%)" stroke-opacity="1" stroke-miterlimit="10" d="M 1866.130942 88.529106 L 1866.130942 1815.859154 " transform="matrix(0.0997068, 0, 0, -0.0997068, 0.586387, 189.881642)"/>
<path fill="none" stroke-width="5" stroke-linecap="round" stroke-linejoin="round" stroke="rgb(0%, 0%, 0%)" stroke-opacity="1" stroke-miterlimit="10" d="M 138.800894 88.529106 L 138.800894 1815.859154 L 426.676176 1527.944694 L 138.800894 88.529106 " transform="matrix(0.0997068, 0, 0, -0.0997068, 0.586387, 189.881642)"/>
<path fill="none" stroke-width="5" stroke-linecap="round" stroke-linejoin="round" stroke="rgb(0%, 0%, 0%)" stroke-opacity="1" stroke-miterlimit="10" d="M 138.800894 88.529106 L 426.676176 664.27967 L 570.613817 88.529106 L 138.800894 88.529106 " transform="matrix(0.0997068, 0, 0, -0.0997068, 0.586387, 189.881642)"/>
<path fill="none" stroke-width="5" stroke-linecap="round" stroke-linejoin="round" stroke="rgb(0%, 0%, 0%)" stroke-opacity="1" stroke-miterlimit="10" d="M 138.800894 88.529106 L 426.676176 1527.944694 L 714.590636 1240.069412 L 138.800894 88.529106 " transform="matrix(0.0997068, 0, 0, -0.0997068, 0.586387, 189.881642)"/>
<path fill="none" stroke-width="5" stroke-linecap="round" stroke-linejoin="round" stroke="rgb(0%, 0%, 0%)" stroke-opacity="1" stroke-miterlimit="10" d="M 138.800894 1815.859154 L 1002.465918 1815.859154 L 426.676176 1527.944694 L 138.800894 1815.859154 " transform="matrix(0.0997068, 0, 0, -0.0997068, 0.586387, 189.881642)"/>
<path fill="none" stroke-width="5" stroke-linecap="round" stroke-linejoin="round" stroke="rgb(0%, 0%, 0%)" stroke-opacity="1" stroke-miterlimit="10" d="M 570.613817 88.529106 L 426.676176 664.27967 L 570.613817 952.19413 L 570.613817 88.529106 " transform="matrix(0.0997068, 0, 0, -0.0997068, 0.586387, 189.881642)"/>
<path fill="none" stroke-width="5" stroke-linecap="round" stroke-linejoin="round" stroke="rgb(0%, 0%, 0%)" stroke-opacity="1" stroke-miterlimit="10" d="M 714.590636 1671.921513 L 1002.465918 1815.859154 L 1578.25566 1240.069412 L 714.590636 1671.921513 " transform="matrix(0.0997068, 0, 0, -0.0997068, 0.586387, 189.881642)"/>
<path fill="none" stroke-width="5" stroke-linecap="round" stroke-linejoin="round" stroke="rgb(0%, 0%, 0%)" stroke-opacity="1" stroke-miterlimit="10" d="M 1002.465918 952.19413 L 1290.3412 664.27967 L 1002.465918 88.529106 L 1002.465918 952.19413 " transform="matrix(0.0997068, 0, 0, -0.0997068, 0.586387, 189.881642)"/>
<path fill="none" stroke-width="5" stroke-linecap="round" stroke-linejoin="round" stroke="rgb(0%, 0%, 0%)" stroke-opacity="1" stroke-miterlimit="10" d="M 1002.465918 1815.859154 L 1866.130942 1815.859154 L 1578.25566 1240.069412 L 1002.465918 1815.859154 " transform="matrix(0.0997068, 0, 0, -0.0997068, 0.586387, 189.881642)"/>
<path fill="none" stroke-width="5" stroke-linecap="round" stroke-linejoin="round" stroke="rgb(0%, 0%, 0%)" stroke-opacity="1" stroke-miterlimit="10" d="M 1434.318018 952.19413 L 1866.130942 952.19413 L 1866.130942 664.27967 L 1434.318018 952.19413 " transform="matrix(0.0997068, 0, 0, -0.0997068, 0.586387, 189.881642)"/>
<path fill="none" stroke-width="5" stroke-linecap="round" stroke-linejoin="round" stroke="rgb(0%, 0%, 0%)" stroke-opacity="1" stroke-miterlimit="10" d="M 1578.25566 1240.069412 L 1290.3412 664.27967 L 714.590636 1240.069412 L 1578.25566 1240.069412 " transform="matrix(0.0997068, 0, 0, -0.0997068, 0.586387, 189.881642)"/>
<path fill="none" stroke-width="5" stroke-linecap="round" stroke-linejoin="round" stroke="rgb(0%, 0%, 0%)" stroke-opacity="1" stroke-miterlimit="10" d="M 1866.130942 1815.859154 L 1866.130942 952.19413 L 1434.318018 952.19413 L 1866.130942 1815.859154 " transform="matrix(0.0997068, 0, 0, -0.0997068, 0.586387, 189.881642)"/>
<path fill="none" stroke-width="5" stroke-linecap="round" stroke-linejoin="round" stroke="rgb(0%, 0%, 0%)" stroke-opacity="1" stroke-miterlimit="10" d="M 426.676176 1527.944694 L 714.590636 1671.921513 L 1578.25566 1240.069412 L 714.590636 1240.069412 L 426.676176 1527.944694 " transform="matrix(0.0997068, 0, 0, -0.0997068, 0.586387, 189.881642)"/>
<path fill="none" stroke-width="5" stroke-linecap="round" stroke-linejoin="round" stroke="rgb(0%, 0%, 0%)" stroke-opacity="1" stroke-miterlimit="10" d="M 1002.465918 88.529106 L 1434.318018 952.19413 L 1866.130942 664.27967 L 1866.130942 88.529106 L 1002.465918 88.529106 " transform="matrix(0.0997068, 0, 0, -0.0997068, 0.586387, 189.881642)"/>
<path fill="none" stroke-width="5" stroke-linecap="round" stroke-linejoin="round" stroke="rgb(0%, 0%, 0%)" stroke-opacity="1" stroke-miterlimit="10" d="M 714.590636 1240.069412 L 1002.465918 952.19413 L 1002.465918 88.529106 L 570.613817 88.529106 L 570.613817 952.19413 L 714.590636 1240.069412 " transform="matrix(0.0997068, 0, 0, -0.0997068, 0.586387, 189.881642)"/>
<path fill-rule="nonzero" fill="rgb(100%, 0%, 0%)" fill-opacity="1" d="M 213.347656 181.054688 L 213.347656 8.828125 L 242.050781 37.535156 L 213.347656 181.054688 "/>
<path fill-rule="nonzero" fill="rgb(100%, 35.301208%, 0%)" fill-opacity="1" d="M 213.347656 181.054688 L 242.050781 123.648438 L 256.402344 181.054688 L 213.347656 181.054688 "/>
<path fill-rule="nonzero" fill="rgb(100%, 70.506287%, 0%)" fill-opacity="1" d="M 213.347656 181.054688 L 242.050781 37.535156 L 270.757812 66.238281 L 213.347656 181.054688 "/>
<path fill-rule="nonzero" fill="rgb(94.139099%, 100%, 0%)" fill-opacity="1" d="M 213.347656 8.828125 L 299.460938 8.828125 L 242.050781 37.535156 L 213.347656 8.828125 "/>
<path fill-rule="nonzero" fill="rgb(58.789062%, 100%, 0%)" fill-opacity="1" d="M 256.402344 181.054688 L 242.050781 123.648438 L 256.402344 94.941406 L 256.402344 181.054688 "/>
<path fill-rule="nonzero" fill="rgb(23.509216%, 100%, 0%)" fill-opacity="1" d="M 270.757812 23.179688 L 299.460938 8.828125 L 356.867188 66.238281 L 270.757812 23.179688 "/>
<path fill-rule="nonzero" fill="rgb(0%, 100%, 11.791992%)" fill-opacity="1" d="M 299.460938 94.941406 L 328.164062 123.648438 L 299.460938 181.054688 L 299.460938 94.941406 "/>
<path fill-rule="nonzero" fill="rgb(0%, 100%, 47.093201%)" fill-opacity="1" d="M 299.460938 8.828125 L 385.574219 8.828125 L 356.867188 66.238281 L 299.460938 8.828125 "/>
<path fill-rule="nonzero" fill="rgb(0%, 100%, 82.421875%)" fill-opacity="1" d="M 342.519531 94.941406 L 385.574219 94.941406 L 385.574219 123.648438 L 342.519531 94.941406 "/>
<path fill-rule="nonzero" fill="rgb(0%, 82.421875%, 100%)" fill-opacity="1" d="M 356.867188 66.238281 L 328.164062 123.648438 L 270.757812 66.238281 L 356.867188 66.238281 "/>
<path fill-rule="nonzero" fill="rgb(0%, 47.093201%, 100%)" fill-opacity="1" d="M 385.574219 8.828125 L 385.574219 94.941406 L 342.519531 94.941406 L 385.574219 8.828125 "/>
<path fill-rule="nonzero" fill="rgb(0%, 11.791992%, 100%)" fill-opacity="1" d="M 242.050781 37.535156 L 270.757812 23.179688 L 356.867188 66.238281 L 270.757812 66.238281 L 242.050781 37.535156 "/>
<path fill-rule="nonzero" fill="rgb(23.509216%, 0%, 100%)" fill-opacity="1" d="M 299.460938 181.054688 L 342.519531 94.941406 L 385.574219 123.648438 L 385.574219 181.054688 L 299.460938 181.054688 "/>
<path fill-rule="nonzero" fill="rgb(58.789062%, 0%, 100%)" fill-opacity="1" d="M 270.757812 66.238281 L 299.460938 94.941406 L 299.460938 181.054688 L 256.402344 181.054688 L 256.402344 94.941406 L 270.757812 66.238281 "/>
<path fill="none" stroke-width="5" stroke-linecap="round" stroke-linejoin="round" stroke="rgb(0%, 0%, 0%)" stroke-opacity="1" stroke-miterlimit="10" d="M 2133.869058 88.529106 L 2133.869058 1815.859154 L 2421.74434 1527.944694 L 2133.869058 88.529106 " transform="matrix(0.0997068, 0, 0, -0.0997068, 0.586387, 189.881642)"/>
<path fill="none" stroke-width="5" stroke-linecap="round" stroke-linejoin="round" stroke="rgb(0%, 0%, 0%)" stroke-opacity="1" stroke-miterlimit="10" d="M 2133.869058 88.529106 L 2421.74434 664.27967 L 2565.681982 88.529106 L 2133.869058 88.529106 " transform="matrix(0.0997068, 0, 0, -0.0997068, 0.586387, 189.881642)"/>
<path fill="none" stroke-width="5" stroke-linecap="round" stroke-linejoin="round" stroke="rgb(0%, 0%, 0%)" stroke-opacity="1" stroke-miterlimit="10" d="M 2133.869058 88.529106 L 2421.74434 1527.944694 L 2709.6588 1240.069412 L 2133.869058 88.529106 " transform="matrix(0.0997068, 0, 0, -0.0997068, 0.586387, 189.881642)"/>
<path fill="none" stroke-width="5" stroke-linecap="round" stroke-linejoin="round" stroke="rgb(0%, 0%, 0%)" stroke-opacity="1" stroke-miterlimit="10" d="M 2133.869058 1815.859154 L 2997.534082 1815.859154 L 2421.74434 1527.944694 L 2133.869058 1815.859154 " transform="matrix(0.0997068, 0, 0, -0.0997068, 0.586387, 189.881642)"/>
<path fill="none" stroke-width="5" stroke-linecap="round" stroke-linejoin="round" stroke="rgb(0%, 0%, 0%)" stroke-opacity="1" stroke-miterlimit="10" d="M 2565.681982 88.529106 L 2421.74434 664.27967 L 2565.681982 952.19413 L 2565.681982 88.529106 " transform="matrix(0.0997068, 0, 0, -0.0997068, 0.586387, 189.881642)"/>
<path fill="none" stroke-width="5" stroke-linecap="round" stroke-linejoin="round" stroke="rgb(0%, 0%, 0%)" stroke-opacity="1" stroke-miterlimit="10" d="M 2709.6588 1671.921513 L 2997.534082 1815.859154 L 3573.284647 1240.069412 L 2709.6588 1671.921513 " transform="matrix(0.0997068, 0, 0, -0.0997068, 0.586387, 189.881642)"/>
<path fill="none" stroke-width="5" stroke-linecap="round" stroke-linejoin="round" stroke="rgb(0%, 0%, 0%)" stroke-opacity="1" stroke-miterlimit="10" d="M 2997.534082 952.19413 L 3285.409364 664.27967 L 2997.534082 88.529106 L 2997.534082 952.19413 " transform="matrix(0.0997068, 0, 0, -0.0997068, 0.586387, 189.881642)"/>
<path fill="none" stroke-width="5" stroke-linecap="round" stroke-linejoin="round" stroke="rgb(0%, 0%, 0%)" stroke-opacity="1" stroke-miterlimit="10" d="M 2997.534082 1815.859154 L 3861.199106 1815.859154 L 3573.284647 1240.069412 L 2997.534082 1815.859154 " transform="matrix(0.0997068, 0, 0, -0.0997068, 0.586387, 189.881642)"/>
<path fill="none" stroke-width="5" stroke-linecap="round" stroke-linejoin="round" stroke="rgb(0%, 0%, 0%)" stroke-opacity="1" stroke-miterlimit="10" d="M 3429.386183 952.19413 L 3861.199106 952.19413 L 3861.199106 664.27967 L 3429.386183 952.19413 " transform="matrix(0.0997068, 0, 0, -0.0997068, 0.586387, 189.881642)"/>
<path fill="none" stroke-width="5" stroke-linecap="round" stroke-linejoin="round" stroke="rgb(0%, 0%, 0%)" stroke-opacity="1" stroke-miterlimit="10" d="M 3573.284647 1240.069412 L 3285.409364 664.27967 L 2709.6588 1240.069412 L 3573.284647 1240.069412 " transform="matrix(0.0997068, 0, 0, -0.0997068, 0.586387, 189.881642)"/>
<path fill="none" stroke-width="5" stroke-linecap="round" stroke-linejoin="round" stroke="rgb(0%, 0%, 0%)" stroke-opacity="1" stroke-miterlimit="10" d="M 3861.199106 1815.859154 L 3861.199106 952.19413 L 3429.386183 952.19413 L 3861.199106 1815.859154 " transform="matrix(0.0997068, 0, 0, -0.0997068, 0.586387, 189.881642)"/>
<path fill="none" stroke-width="5" stroke-linecap="round" stroke-linejoin="round" stroke="rgb(0%, 0%, 0%)" stroke-opacity="1" stroke-miterlimit="10" d="M 2421.74434 1527.944694 L 2709.6588 1671.921513 L 3573.284647 1240.069412 L 2709.6588 1240.069412 L 2421.74434 1527.944694 " transform="matrix(0.0997068, 0, 0, -0.0997068, 0.586387, 189.881642)"/>
<path fill="none" stroke-width="5" stroke-linecap="round" stroke-linejoin="round" stroke="rgb(0%, 0%, 0%)" stroke-opacity="1" stroke-miterlimit="10" d="M 2997.534082 88.529106 L 3429.386183 952.19413 L 3861.199106 664.27967 L 3861.199106 88.529106 L 2997.534082 88.529106 " transform="matrix(0.0997068, 0, 0, -0.0997068, 0.586387, 189.881642)"/>
<path fill="none" stroke-width="5" stroke-linecap="round" stroke-linejoin="round" stroke="rgb(0%, 0%, 0%)" stroke-opacity="1" stroke-miterlimit="10" d="M 2709.6588 1240.069412 L 2997.534082 952.19413 L 2997.534082 88.529106 L 2565.681982 88.529106 L 2565.681982 952.19413 L 2709.6588 1240.069412 " transform="matrix(0.0997068, 0, 0, -0.0997068, 0.586387, 189.881642)"/>
</svg>
