<?xml version="1.0" encoding="UTF-8"?>
<svg xmlns="http://www.w3.org/2000/svg" xmlns:xlink="http://www.w3.org/1999/xlink" width="160" height="228.5" viewBox="0 0 160 228.5">
<defs>
<clipPath id="clip-0">
<path clip-rule="nonzero" d="M 0.175781 113 L 159.824219 113 L 159.824219 115 L 0.175781 115 Z M 0.175781 113 "/>
</clipPath>
<clipPath id="clip-1">
<path clip-rule="nonzero" d="M 45 0 L 46 0 L 46 228 L 45 228 Z M 45 0 "/>
</clipPath>
<clipPath id="clip-2">
<path clip-rule="nonzero" d="M 2 96 L 102 96 L 102 228 L 2 228 Z M 2 96 "/>
</clipPath>
<clipPath id="clip-3">
<path clip-rule="nonzero" d="M 2 96 L 104 96 L 104 228 L 2 228 Z M 2 96 "/>
</clipPath>
<clipPath id="clip-4">
<path clip-rule="nonzero" d="M 45 56 L 159.824219 56 L 159.824219 172 L 45 172 Z M 45 56 "/>
</clipPath>
</defs>
<g clip-path="url(#clip-0)">
<path fill="none" stroke-width="2.5" stroke-linecap="round" stroke-linejoin="round" stroke="rgb(0%, 0%, 0%)" stroke-opacity="1" stroke-miterlimit="10" d="M 0.246 1142.50547 L 1599.754 1142.50547 " transform="matrix(0.0997817, 0, 0, -0.0997817, 0.174672, 228.001092)"/>
</g>
<g clip-path="url(#clip-1)">
<path fill="none" stroke-width="2.5" stroke-linecap="round" stroke-linejoin="round" stroke="rgb(0%, 0%, 0%)" stroke-opacity="1" stroke-miterlimit="10" d="M 457.259471 0.0109409 L 457.259471 2285 " transform="matrix(0.0997817, 0, 0, -0.0997817, 0.174672, 228.001092)"/>
</g>
<path fill="none" stroke-width="5" stroke-linecap="round" stroke-linejoin="round" stroke="rgb(100%, 0%, 0%)" stroke-opacity="1" stroke-miterlimit="10" d="M 1017.19297 1086.523865 L 1015.118128 1081.78696 L 1012.18203 1075.679876 L 1008.384676 1068.750684 L 1003.412883 1060.647053 L 995.779028 1050.037951 L 984.621854 1037.119119 L 976.674815 1029.250376 L 965.321902 1019.580826 L 952.050739 1009.989572 L 932.163567 998.362623 L 905.464647 986.81397 L 886.164695 980.706886 L 875.164114 977.966528 L 863.850349 975.656797 L 851.166405 973.66025 L 843.884881 972.759847 L 835.624658 971.976887 L 831.709861 971.663704 L 827.325287 971.428816 L 823.058158 971.233076 L 818.986768 971.076484 L 815.267711 970.998188 L 811.039729 970.95904 L 806.498564 970.998188 L 802.153139 971.076484 L 797.729417 971.193928 L 792.796772 971.428816 L 787.981571 971.702851 L 783.440406 972.055183 L 774.47552 972.877291 L 764.492786 974.090878 L 741.9827 977.770788 L 714.070193 984.269352 L 683.221588 993.78231 L 646.461638 1008.384505 L 567.813355 1051.643018 L 515.707399 1089.733999 L 461.448304 1138.355785 L 395.249077 1211.679944 L 317.148865 1322.429568 L 237.521882 1472.131428 L 161.300773 1667.753864 L 121.487281 1801.522497 L 78.541952 1983.756325 L 57.558636 2093.448954 L 35.63577 2228.431175 " transform="matrix(0.0997817, 0, 0, -0.0997817, 0.174672, 228.001092)"/>
<path fill="none" stroke-width="5" stroke-linecap="round" stroke-linejoin="round" stroke="rgb(100%, 0%, 0%)" stroke-opacity="1" stroke-miterlimit="10" d="M 35.63577 2228.431175 L 28.001915 2285 " transform="matrix(0.0997817, 0, 0, -0.0997817, 0.174672, 228.001092)"/>
<g clip-path="url(#clip-2)">
<path fill="none" stroke-width="5" stroke-linecap="round" stroke-linejoin="round" stroke="rgb(100%, 0%, 0%)" stroke-opacity="1" stroke-miterlimit="10" d="M 28.824022 0.0109409 L 43.582809 108.33339 L 79.598947 306.461296 L 114.518941 457.024412 L 196.259915 715.009573 L 269.936406 879.196184 L 350.620384 1013.669482 L 420.891001 1103.788122 L 531.992957 1208.039182 L 579.557748 1240.884334 L 625.987247 1266.956886 L 660.828946 1282.73352 L 694.300465 1294.947689 L 722.369564 1302.894728 L 745.427722 1307.905669 L 757.563594 1309.941364 L 768.407583 1311.428987 L 780.151976 1312.681722 L 785.123769 1313.073202 L 790.213006 1313.425533 L 794.558431 1313.660421 L 799.21704 1313.856161 L 803.366726 1313.973605 L 807.124932 1314.012753 L 811.470357 1314.051901 L 815.306859 1314.012753 L 819.652284 1313.895309 L 823.645377 1313.777865 L 827.873359 1313.542977 L 831.631565 1313.308089 L 839.6569 1312.642574 L 846.703535 1311.898762 L 853.006359 1311.076655 L 866.042635 1308.923516 L 878.648284 1306.222306 L 897.08698 1301.054773 L 913.764018 1295.025985 L 939.24935 1282.811816 L 956.122128 1272.241863 L 969.471588 1262.063389 L 987.049029 1245.308055 L 997.540687 1232.702407 L 1004.274138 1222.993709 L 1009.324227 1214.65519 L 1012.847545 1208.039182 L 1015.353016 1202.715057 L 1017.19297 1198.487076 " transform="matrix(0.0997817, 0, 0, -0.0997817, 0.174672, 228.001092)"/>
</g>
<g clip-path="url(#clip-3)">
<path fill="none" stroke-width="5" stroke-linecap="round" stroke-linejoin="round" stroke="rgb(0%, 0%, 0%)" stroke-opacity="1" stroke-miterlimit="10" d="M 27.649583 0.0109409 L 28.315098 5.295918 L 50.120521 148.420918 L 106.80679 426.606435 L 151.552927 586.956544 L 204.715878 736.423516 L 277.178781 892.937124 L 365.065987 1034.026429 L 463.523147 1148.690851 L 527.764975 1204.7899 L 592.163396 1248.557337 L 661.885941 1283.164148 L 702.364948 1297.453159 L 721.743196 1302.738136 L 739.712117 1306.809525 L 756.624043 1309.784772 L 774.514668 1312.13365 L 792.405293 1313.542977 L 811.940133 1314.051901 L 828.578022 1313.503829 L 846.194612 1311.977058 L 862.558466 1309.589032 L 877.160661 1306.574638 L 893.876846 1302.07262 L 911.101956 1296.08298 L 939.993162 1282.381188 L 956.161276 1272.241863 L 970.176251 1261.476169 L 992.882077 1238.574603 L 1002.590775 1225.616623 L 1011.242478 1211.092724 L 1017.310414 1198.173892 L 1022.517095 1183.532549 L 1024.74853 1175.154882 L 1026.314449 1167.403583 L 1027.606332 1158.399549 L 1028.310996 1149.786994 L 1028.271848 1134.519283 L 1027.528036 1125.906729 L 1026.392745 1117.920542 L 1022.869427 1102.731127 L 1020.520548 1095.214716 L 1017.427858 1087.071937 L 1003.295439 1060.529609 L 993.038669 1046.592929 L 980.276429 1032.695398 L 953.18603 1010.733383 L 938.388095 1001.690201 L 921.202133 993.116794 L 905.190611 986.696526 " transform="matrix(0.0997817, 0, 0, -0.0997817, 0.174672, 228.001092)"/>
</g>
<path fill="none" stroke-width="5" stroke-linecap="round" stroke-linejoin="round" stroke="rgb(0%, 0%, 0%)" stroke-opacity="1" stroke-miterlimit="10" d="M 905.190611 986.696526 L 887.495726 981.059218 L 870.97528 977.066124 L 852.262548 973.816842 L 834.802551 971.898591 L 818.203809 971.076484 L 801.526771 971.076484 L 783.16637 972.055183 L 763.866418 974.130026 L 745.897497 977.026976 L 728.946424 980.511146 L 713.600417 984.347648 L 679.424234 995.113341 L 643.173208 1009.872128 L 604.886488 1029.17208 L 538.883001 1071.804226 L 475.228392 1125.084621 L 421.165037 1180.948783 L 317.266309 1322.272976 L 238.343989 1470.330621 L 173.045165 1633.186201 L 125.911002 1785.236939 L 85.823475 1949.188662 L 58.341596 2088.946937 L 33.795815 2241.075971 " transform="matrix(0.0997817, 0, 0, -0.0997817, 0.174672, 228.001092)"/>
<path fill="none" stroke-width="5" stroke-linecap="round" stroke-linejoin="round" stroke="rgb(0%, 0%, 0%)" stroke-opacity="1" stroke-miterlimit="10" d="M 33.795815 2241.075971 L 28.393394 2285 " transform="matrix(0.0997817, 0, 0, -0.0997817, 0.174672, 228.001092)"/>
<path fill="none" stroke-width="47.985" stroke-linecap="round" stroke-linejoin="round" stroke="rgb(0%, 0%, 100%)" stroke-opacity="1" stroke-miterlimit="10" d="M 1028.506736 1142.50547 L 1028.506736 1142.50547 " transform="matrix(0.0997817, 0, 0, -0.0997817, 0.174672, 228.001092)"/>
<g clip-path="url(#clip-4)">
<path fill="none" stroke-width="5" stroke-linecap="round" stroke-linejoin="round" stroke="rgb(0%, 0%, 100%)" stroke-opacity="1" stroke-miterlimit="10" d="M 1599.754 1142.50547 C 1599.754 1457.999008 1344.000274 1713.752735 1028.506736 1713.752735 C 713.013197 1713.752735 457.259471 1457.999008 457.259471 1142.50547 C 457.259471 827.011932 713.013197 571.258206 1028.506736 571.258206 C 1344.000274 571.258206 1599.754 827.011932 1599.754 1142.50547 C 1599.754 1161.531387 1598.814449 1180.596451 1596.896198 1199.544071 " transform="matrix(0.0997817, 0, 0, -0.0997817, 0.174672, 228.001092)"/>
</g>
</svg>
