<?xml version="1.0" encoding="UTF-8"?>
<svg xmlns="http://www.w3.org/2000/svg" xmlns:xlink="http://www.w3.org/1999/xlink" width="300" height="140" viewBox="0 0 300 140">
<path fill-rule="evenodd" fill="rgb(0%, 0%, 0%)" fill-opacity="1" d="M 118.523438 18.421875 L 118.523438 19.625 L 116.976562 19.625 L 116.976562 22.589844 L 115.578125 22.589844 L 115.578125 19.625 L 110.714844 19.625 L 110.714844 18.539062 L 116.042969 10.851562 L 116.976562 10.851562 L 116.976562 18.421875 Z M 115.578125 18.421875 L 115.578125 12.660156 L 111.542969 18.421875 Z M 141.457031 16.855469 C 141.457031 15.539062 141.65625 14.40625 142.050781 13.453125 C 142.449219 12.503906 142.976562 11.796875 143.632812 11.328125 C 144.144531 10.964844 144.675781 10.777344 145.21875 10.777344 C 146.105469 10.777344 146.902344 11.230469 147.605469 12.132812 C 148.484375 13.25 148.925781 14.765625 148.925781 16.679688 C 148.925781 18.019531 148.730469 19.15625 148.34375 20.089844 C 147.960938 21.027344 147.46875 21.703125 146.867188 22.128906 C 146.273438 22.550781 145.695312 22.765625 145.136719 22.765625 C 144.035156 22.765625 143.117188 22.113281 142.386719 20.8125 C 141.765625 19.71875 141.457031 18.398438 141.457031 16.855469 Z M 143.121094 17.066406 C 143.121094 18.65625 143.316406 19.953125 143.710938 20.960938 C 144.035156 21.804688 144.519531 22.230469 145.160156 22.230469 C 145.46875 22.230469 145.789062 22.089844 146.117188 21.816406 C 146.449219 21.539062 146.699219 21.078125 146.871094 20.433594 C 147.132812 19.453125 147.261719 18.078125 147.261719 16.304688 C 147.261719 14.988281 147.125 13.890625 146.851562 13.011719 C 146.648438 12.355469 146.382812 11.894531 146.058594 11.621094 C 145.824219 11.433594 145.542969 11.339844 145.210938 11.339844 C 144.824219 11.339844 144.480469 11.511719 144.179688 11.859375 C 143.769531 12.328125 143.488281 13.070312 143.339844 14.082031 C 143.195312 15.089844 143.121094 16.085938 143.121094 17.066406 Z M 173.214844 12.167969 L 176.089844 10.851562 L 176.367188 10.851562 L 176.367188 20.554688 C 176.367188 21.203125 176.394531 21.605469 176.445312 21.769531 C 176.496094 21.929688 176.601562 22.054688 176.761719 22.140625 C 176.925781 22.222656 177.25 22.265625 177.742188 22.265625 L 177.742188 22.589844 L 173.414062 22.589844 L 173.414062 22.265625 C 173.988281 22.265625 174.355469 22.226562 174.523438 22.140625 C 174.691406 22.058594 174.804688 21.949219 174.871094 21.8125 C 174.9375 21.671875 174.972656 21.253906 174.972656 20.558594 L 174.972656 14.320312 C 174.972656 13.476562 174.941406 12.9375 174.882812 12.699219 C 174.839844 12.515625 174.765625 12.382812 174.652344 12.296875 C 174.542969 12.210938 174.410156 12.167969 174.257812 12.167969 C 174.035156 12.167969 173.730469 12.257812 173.339844 12.433594 Z M 202.25 18.007812 L 206.636719 18.007812 L 206.636719 19.289062 L 202.25 19.289062 Z M 208.210938 13.269531 C 208.535156 12.492188 208.945312 11.894531 209.441406 11.472656 C 209.9375 11.050781 210.554688 10.839844 211.296875 10.839844 C 212.210938 10.839844 212.914062 11.140625 213.402344 11.738281 C 213.769531 12.1875 213.953125 12.664062 213.953125 13.171875 C 213.953125 14.011719 213.429688 14.875 212.382812 15.769531 C 213.074219 16.046875 213.601562 16.441406 213.960938 16.953125 C 214.320312 17.464844 214.5 18.070312 214.5 18.761719 C 214.5 19.757812 214.1875 20.617188 213.5625 21.34375 C 212.746094 22.289062 211.5625 22.765625 210.015625 22.765625 C 209.25 22.765625 208.726562 22.664062 208.449219 22.46875 C 208.171875 22.269531 208.03125 22.058594 208.03125 21.835938 C 208.03125 21.667969 208.097656 21.519531 208.226562 21.394531 C 208.359375 21.265625 208.519531 21.199219 208.699219 21.199219 C 208.84375 21.199219 208.984375 21.222656 209.128906 21.269531 C 209.226562 21.300781 209.441406 21.40625 209.773438 21.59375 C 210.113281 21.78125 210.34375 21.890625 210.472656 21.929688 C 210.679688 21.992188 210.902344 22.023438 211.136719 22.023438 C 211.703125 22.023438 212.195312 21.804688 212.613281 21.359375 C 213.035156 20.914062 213.242188 20.386719 213.242188 19.777344 C 213.242188 19.332031 213.148438 18.898438 212.953125 18.476562 C 212.808594 18.160156 212.648438 17.921875 212.476562 17.757812 C 212.238281 17.53125 211.910156 17.328125 211.492188 17.144531 C 211.078125 16.964844 210.648438 16.871094 210.210938 16.871094 L 209.945312 16.871094 L 209.945312 16.617188 C 210.386719 16.558594 210.832031 16.398438 211.277344 16.132812 C 211.722656 15.867188 212.042969 15.546875 212.246094 15.175781 C 212.449219 14.804688 212.550781 14.394531 212.550781 13.945312 C 212.550781 13.363281 212.367188 12.894531 212.007812 12.535156 C 211.644531 12.175781 211.195312 11.996094 210.660156 11.996094 C 209.792969 11.996094 209.066406 12.464844 208.484375 13.402344 Z M 245.617188 20.332031 L 244.816406 22.589844 L 238.082031 22.589844 L 238.082031 22.273438 C 240.058594 20.429688 241.449219 18.933594 242.253906 17.789062 C 243.0625 16.644531 243.464844 15.597656 243.464844 14.652344 C 243.464844 13.929688 243.242188 13.335938 242.800781 12.867188 C 242.359375 12.402344 241.828125 12.167969 241.214844 12.167969 C 240.652344 12.167969 240.152344 12.328125 239.707031 12.652344 C 239.261719 12.976562 238.933594 13.453125 238.71875 14.078125 L 238.410156 14.078125 C 238.550781 13.046875 238.910156 12.253906 239.488281 11.703125 C 240.070312 11.148438 240.796875 10.871094 241.667969 10.871094 C 242.589844 10.871094 243.363281 11.167969 243.984375 11.761719 C 244.605469 12.351562 244.914062 13.050781 244.914062 13.855469 C 244.914062 14.433594 244.777344 15.011719 244.507812 15.589844 C 244.089844 16.503906 243.414062 17.472656 242.484375 18.5 C 241.089844 20.042969 240.21875 20.976562 239.871094 21.308594 L 242.851562 21.308594 C 243.460938 21.308594 243.882812 21.285156 244.128906 21.238281 C 244.371094 21.191406 244.59375 21.09375 244.789062 20.949219 C 244.988281 20.804688 245.160156 20.597656 245.304688 20.332031 Z M 268.824219 18.007812 L 273.210938 18.007812 L 273.210938 19.289062 L 268.824219 19.289062 Z M 275.738281 11.132812 L 281.902344 11.132812 L 281.902344 11.453125 L 278.070312 22.871094 L 277.117188 22.871094 L 280.554688 12.515625 L 277.390625 12.515625 C 276.753906 12.515625 276.296875 12.59375 276.023438 12.742188 C 275.550781 13.003906 275.171875 13.40625 274.878906 13.949219 L 274.636719 13.855469 L 275.738281 11.132812 "/>
<path fill-rule="evenodd" fill="rgb(0%, 0%, 0%)" fill-opacity="1" d="M 202.25 39.71875 L 206.636719 39.71875 L 206.636719 41 L 202.25 41 Z M 215.222656 42.042969 L 214.417969 44.300781 L 207.6875 44.300781 L 207.6875 43.984375 C 209.664062 42.140625 211.054688 40.644531 211.859375 39.5 C 212.667969 38.355469 213.070312 37.308594 213.070312 36.363281 C 213.070312 35.640625 212.847656 35.046875 212.40625 34.578125 C 211.964844 34.113281 211.433594 33.878906 210.816406 33.878906 C 210.257812 33.878906 209.757812 34.042969 209.3125 34.367188 C 208.867188 34.6875 208.535156 35.164062 208.324219 35.789062 L 208.015625 35.789062 C 208.15625 34.757812 208.515625 33.964844 209.09375 33.414062 C 209.675781 32.859375 210.398438 32.582031 211.269531 32.582031 C 212.195312 32.582031 212.96875 32.878906 213.589844 33.472656 C 214.210938 34.0625 214.519531 34.761719 214.519531 35.566406 C 214.519531 36.144531 214.382812 36.722656 214.113281 37.300781 C 213.695312 38.214844 213.019531 39.1875 212.089844 40.210938 C 210.691406 41.753906 209.820312 42.6875 209.472656 43.019531 L 212.457031 43.019531 C 213.0625 43.019531 213.488281 42.996094 213.730469 42.949219 C 213.976562 42.902344 214.195312 42.808594 214.394531 42.660156 C 214.59375 42.515625 214.761719 42.308594 214.910156 42.042969 L 215.222656 42.042969 "/>
<path fill-rule="evenodd" fill="rgb(0%, 0%, 0%)" fill-opacity="1" d="M 179.042969 63.753906 L 178.238281 66.011719 L 171.507812 66.011719 L 171.507812 65.699219 C 173.484375 63.851562 174.875 62.355469 175.679688 61.210938 C 176.488281 60.066406 176.890625 59.019531 176.890625 58.074219 C 176.890625 57.351562 176.667969 56.757812 176.226562 56.289062 C 175.785156 55.824219 175.253906 55.589844 174.636719 55.589844 C 174.078125 55.589844 173.574219 55.753906 173.132812 56.078125 C 172.6875 56.402344 172.355469 56.875 172.144531 57.503906 L 171.835938 57.503906 C 171.976562 56.46875 172.335938 55.675781 172.914062 55.125 C 173.496094 54.570312 174.222656 54.292969 175.089844 54.292969 C 176.015625 54.292969 176.789062 54.589844 177.410156 55.183594 C 178.027344 55.777344 178.339844 56.472656 178.339844 57.277344 C 178.339844 57.855469 178.203125 58.433594 177.933594 59.011719 C 177.515625 59.925781 176.839844 60.898438 175.90625 61.921875 C 174.511719 63.464844 173.640625 64.402344 173.292969 64.730469 L 176.277344 64.730469 C 176.882812 64.730469 177.308594 64.707031 177.550781 64.660156 C 177.796875 64.613281 178.015625 64.519531 178.214844 64.371094 C 178.410156 64.226562 178.585938 64.019531 178.730469 63.753906 L 179.042969 63.753906 "/>
<path fill-rule="evenodd" fill="rgb(0%, 0%, 0%)" fill-opacity="1" d="M 141.457031 81.988281 C 141.457031 80.671875 141.65625 79.539062 142.050781 78.589844 C 142.449219 77.636719 142.976562 76.929688 143.632812 76.464844 C 144.144531 76.097656 144.675781 75.914062 145.21875 75.914062 C 146.105469 75.914062 146.902344 76.363281 147.605469 77.265625 C 148.484375 78.382812 148.925781 79.898438 148.925781 81.8125 C 148.925781 83.152344 148.730469 84.289062 148.34375 85.222656 C 147.960938 86.160156 147.46875 86.839844 146.867188 87.261719 C 146.273438 87.6875 145.695312 87.898438 145.136719 87.898438 C 144.035156 87.898438 143.117188 87.246094 142.386719 85.945312 C 141.765625 84.851562 141.457031 83.53125 141.457031 81.988281 Z M 143.121094 82.203125 C 143.121094 83.789062 143.316406 85.089844 143.710938 86.09375 C 144.035156 86.941406 144.519531 87.363281 145.160156 87.363281 C 145.46875 87.363281 145.789062 87.226562 146.117188 86.949219 C 146.449219 86.675781 146.699219 86.214844 146.871094 85.566406 C 147.132812 84.589844 147.261719 83.214844 147.261719 81.4375 C 147.261719 80.121094 147.125 79.023438 146.851562 78.144531 C 146.648438 77.492188 146.382812 77.027344 146.058594 76.753906 C 145.824219 76.566406 145.542969 76.472656 145.210938 76.472656 C 144.824219 76.472656 144.480469 76.644531 144.179688 76.992188 C 143.769531 77.464844 143.488281 78.203125 143.339844 79.214844 C 143.195312 80.226562 143.121094 81.222656 143.121094 82.203125 "/>
<path fill-rule="evenodd" fill="rgb(0%, 0%, 0%)" fill-opacity="1" d="M 118.523438 105.265625 L 118.523438 106.472656 L 116.976562 106.472656 L 116.976562 109.433594 L 115.578125 109.433594 L 115.578125 106.472656 L 110.714844 106.472656 L 110.714844 105.386719 L 116.042969 97.699219 L 116.976562 97.699219 L 116.976562 105.265625 Z M 115.578125 105.265625 L 115.578125 99.503906 L 111.542969 105.265625 Z M 141.457031 103.703125 C 141.457031 102.382812 141.65625 101.25 142.050781 100.300781 C 142.449219 99.347656 142.976562 98.640625 143.632812 98.175781 C 144.144531 97.808594 144.675781 97.625 145.21875 97.625 C 146.105469 97.625 146.902344 98.078125 147.605469 98.980469 C 148.484375 100.09375 148.925781 101.609375 148.925781 103.523438 C 148.925781 104.863281 148.730469 106 148.34375 106.9375 C 147.960938 107.871094 147.46875 108.550781 146.867188 108.972656 C 146.273438 109.398438 145.695312 109.609375 145.136719 109.609375 C 144.035156 109.609375 143.117188 108.960938 142.386719 107.65625 C 141.765625 106.5625 141.457031 105.242188 141.457031 103.703125 Z M 143.121094 103.910156 C 143.121094 105.503906 143.316406 106.800781 143.710938 107.804688 C 144.035156 108.652344 144.519531 109.074219 145.160156 109.074219 C 145.46875 109.074219 145.789062 108.9375 146.117188 108.660156 C 146.449219 108.386719 146.699219 107.925781 146.871094 107.277344 C 147.132812 106.300781 147.261719 104.925781 147.261719 103.148438 C 147.261719 101.832031 147.125 100.734375 146.851562 99.855469 C 146.648438 99.203125 146.382812 98.738281 146.058594 98.464844 C 145.824219 98.277344 145.542969 98.183594 145.210938 98.183594 C 144.824219 98.183594 144.480469 98.355469 144.179688 98.703125 C 143.769531 99.175781 143.488281 99.914062 143.339844 100.925781 C 143.195312 101.9375 143.121094 102.933594 143.121094 103.910156 "/>
<path fill-rule="evenodd" fill="rgb(0%, 0%, 0%)" fill-opacity="1" d="M 118.25 128.890625 L 117.445312 131.148438 L 110.714844 131.148438 L 110.714844 130.832031 C 112.691406 128.984375 114.082031 127.488281 114.886719 126.347656 C 115.695312 125.199219 116.097656 124.15625 116.097656 123.207031 C 116.097656 122.484375 115.878906 121.890625 115.433594 121.425781 C 114.992188 120.960938 114.464844 120.726562 113.847656 120.726562 C 113.285156 120.726562 112.785156 120.886719 112.339844 121.210938 C 111.894531 121.535156 111.566406 122.011719 111.351562 122.636719 L 111.042969 122.636719 C 111.183594 121.601562 111.542969 120.808594 112.121094 120.257812 C 112.703125 119.707031 113.429688 119.429688 114.300781 119.429688 C 115.222656 119.429688 115.996094 119.726562 116.617188 120.316406 C 117.238281 120.910156 117.546875 121.609375 117.546875 122.414062 C 117.546875 122.988281 117.410156 123.570312 117.140625 124.148438 C 116.722656 125.0625 116.046875 126.03125 115.117188 127.058594 C 113.722656 128.597656 112.851562 129.535156 112.503906 129.867188 L 115.484375 129.867188 C 116.089844 129.867188 116.515625 129.84375 116.761719 129.792969 C 117.003906 129.746094 117.226562 129.652344 117.421875 129.507812 C 117.621094 129.359375 117.792969 129.15625 117.9375 128.890625 Z M 141.457031 125.410156 C 141.457031 124.09375 141.65625 122.960938 142.050781 122.011719 C 142.449219 121.058594 142.976562 120.351562 143.632812 119.886719 C 144.144531 119.519531 144.675781 119.335938 145.21875 119.335938 C 146.105469 119.335938 146.902344 119.785156 147.605469 120.691406 C 148.484375 121.804688 148.925781 123.320312 148.925781 125.234375 C 148.925781 126.574219 148.730469 127.710938 148.34375 128.648438 C 147.960938 129.582031 147.46875 130.261719 146.867188 130.683594 C 146.273438 131.109375 145.695312 131.320312 145.136719 131.320312 C 144.035156 131.320312 143.117188 130.667969 142.386719 129.367188 C 141.765625 128.273438 141.457031 126.957031 141.457031 125.410156 Z M 143.121094 125.625 C 143.121094 127.214844 143.316406 128.511719 143.710938 129.515625 C 144.035156 130.363281 144.519531 130.785156 145.160156 130.785156 C 145.46875 130.785156 145.789062 130.648438 146.117188 130.375 C 146.449219 130.097656 146.699219 129.636719 146.871094 128.988281 C 147.132812 128.011719 147.261719 126.636719 147.261719 124.859375 C 147.261719 123.542969 147.125 122.445312 146.851562 121.566406 C 146.648438 120.914062 146.382812 120.449219 146.058594 120.175781 C 145.824219 119.988281 145.542969 119.894531 145.210938 119.894531 C 144.824219 119.894531 144.480469 120.066406 144.179688 120.414062 C 143.769531 120.886719 143.488281 121.628906 143.339844 122.640625 C 143.195312 123.648438 143.121094 124.644531 143.121094 125.625 "/>
<path fill="none" stroke-width="12.9" stroke-linecap="butt" stroke-linejoin="miter" stroke="rgb(0%, 0%, 0%)" stroke-opacity="1" stroke-miterlimit="4" d="M 1040.898438 1332.578125 L 1040.898438 463.242188 L 2940 463.242188 " transform="matrix(0.1, 0, 0, -0.1, 0, 140)"/>
<path fill="none" stroke-width="11.83" stroke-linecap="butt" stroke-linejoin="miter" stroke="rgb(0%, 0%, 0%)" stroke-opacity="1" stroke-dasharray="71 11.83" stroke-miterlimit="4" d="M 1035.78125 463.671875 L 258.007812 463.671875 " transform="matrix(0.1, 0, 0, -0.1, 0, 140)"/>
<path fill="none" stroke-width="12.9" stroke-linecap="butt" stroke-linejoin="miter" stroke="rgb(0%, 0%, 0%)" stroke-opacity="1" stroke-miterlimit="4" d="M 1040.898438 536.015625 L 1040.898438 57.617188 " transform="matrix(0.1, 0, 0, -0.1, 0, 140)"/>
<path fill-rule="evenodd" fill="rgb(0%, 0%, 0%)" fill-opacity="1" d="M 85.71875 39.71875 L 90.105469 39.71875 L 90.105469 40.996094 L 85.71875 40.996094 Z M 92.863281 33.878906 L 95.738281 32.5625 L 96.019531 32.5625 L 96.019531 42.261719 C 96.019531 42.910156 96.042969 43.316406 96.09375 43.476562 C 96.148438 43.636719 96.253906 43.761719 96.414062 43.847656 C 96.574219 43.933594 96.898438 43.976562 97.394531 43.976562 L 97.394531 44.296875 L 93.066406 44.296875 L 93.066406 43.976562 C 93.636719 43.976562 94.007812 43.933594 94.171875 43.851562 C 94.339844 43.769531 94.457031 43.65625 94.519531 43.519531 C 94.589844 43.378906 94.621094 42.964844 94.621094 42.269531 L 94.621094 36.027344 C 94.621094 35.1875 94.59375 34.644531 94.53125 34.40625 C 94.492188 34.222656 94.414062 34.089844 94.304688 34.003906 C 94.195312 33.921875 94.0625 33.878906 93.90625 33.878906 C 93.6875 33.878906 93.382812 33.964844 92.992188 34.140625 L 92.863281 33.878906 "/>
<path fill-rule="evenodd" fill="rgb(0%, 0%, 0%)" fill-opacity="1" d="M 65.367188 55.589844 L 68.246094 54.273438 L 68.523438 54.273438 L 68.523438 63.972656 C 68.523438 64.621094 68.546875 65.027344 68.601562 65.1875 C 68.652344 65.347656 68.757812 65.472656 68.917969 65.558594 C 69.078125 65.644531 69.40625 65.6875 69.898438 65.6875 L 69.898438 66.011719 L 65.570312 66.011719 L 65.570312 65.6875 C 66.144531 65.6875 66.511719 65.644531 66.679688 65.5625 C 66.84375 65.480469 66.960938 65.367188 67.027344 65.230469 C 67.09375 65.09375 67.125 64.675781 67.125 63.980469 L 67.125 57.742188 C 67.125 56.898438 67.097656 56.355469 67.035156 56.117188 C 66.996094 55.933594 66.917969 55.800781 66.808594 55.714844 C 66.699219 55.632812 66.566406 55.589844 66.414062 55.589844 C 66.191406 55.589844 65.886719 55.675781 65.496094 55.851562 L 65.367188 55.589844 "/>
<path fill-rule="evenodd" fill="rgb(0%, 0%, 0%)" fill-opacity="1" d="M 33.613281 81.988281 C 33.613281 80.667969 33.808594 79.535156 34.207031 78.585938 C 34.601562 77.636719 35.128906 76.925781 35.789062 76.460938 C 36.300781 76.09375 36.828125 75.910156 37.375 75.910156 C 38.261719 75.910156 39.054688 76.363281 39.761719 77.265625 C 40.640625 78.382812 41.082031 79.894531 41.082031 81.808594 C 41.082031 83.148438 40.886719 84.285156 40.5 85.222656 C 40.113281 86.15625 39.621094 86.835938 39.023438 87.261719 C 38.425781 87.683594 37.847656 87.894531 37.289062 87.894531 C 36.191406 87.894531 35.273438 87.246094 34.539062 85.945312 C 33.921875 84.847656 33.613281 83.53125 33.613281 81.988281 Z M 35.277344 82.199219 C 35.277344 83.789062 35.472656 85.085938 35.863281 86.089844 C 36.191406 86.9375 36.671875 87.359375 37.316406 87.359375 C 37.625 87.359375 37.941406 87.222656 38.273438 86.949219 C 38.601562 86.671875 38.855469 86.210938 39.027344 85.5625 C 39.285156 84.585938 39.417969 83.210938 39.417969 81.4375 C 39.417969 80.117188 39.28125 79.019531 39.007812 78.140625 C 38.804688 77.488281 38.539062 77.023438 38.210938 76.753906 C 37.980469 76.5625 37.695312 76.46875 37.367188 76.46875 C 36.980469 76.46875 36.636719 76.644531 36.335938 76.988281 C 35.921875 77.460938 35.644531 78.203125 35.496094 79.214844 C 35.347656 80.222656 35.277344 81.21875 35.277344 82.199219 "/>
<path fill-rule="evenodd" fill="rgb(0%, 0%, 0%)" fill-opacity="1" d="M 85.550781 118.984375 L 81.386719 131.316406 L 80.707031 131.316406 L 84.871094 118.984375 Z M 97.71875 128.886719 L 96.917969 131.144531 L 90.183594 131.144531 L 90.183594 130.828125 C 92.160156 128.980469 93.550781 127.484375 94.355469 126.34375 C 95.164062 125.199219 95.566406 124.152344 95.566406 123.207031 C 95.566406 122.480469 95.347656 121.886719 94.902344 121.421875 C 94.460938 120.957031 93.933594 120.722656 93.316406 120.722656 C 92.757812 120.722656 92.253906 120.882812 91.808594 121.207031 C 91.363281 121.53125 91.035156 122.007812 90.820312 122.632812 L 90.511719 122.632812 C 90.652344 121.601562 91.011719 120.808594 91.59375 120.257812 C 92.171875 119.703125 92.898438 119.425781 93.769531 119.425781 C 94.691406 119.425781 95.464844 119.722656 96.085938 120.316406 C 96.707031 120.90625 97.015625 121.605469 97.015625 122.410156 C 97.015625 122.988281 96.882812 123.566406 96.609375 124.144531 C 96.191406 125.058594 95.515625 126.027344 94.585938 127.054688 C 93.191406 128.597656 92.320312 129.53125 91.972656 129.863281 L 94.953125 129.863281 C 95.5625 129.863281 95.984375 129.839844 96.230469 129.792969 C 96.472656 129.746094 96.695312 129.648438 96.890625 129.503906 C 97.089844 129.359375 97.261719 129.152344 97.40625 128.886719 L 97.71875 128.886719 "/>
</svg>
