<?xml version="1.0" encoding="UTF-8"?>
<svg xmlns="http://www.w3.org/2000/svg" xmlns:xlink="http://www.w3.org/1999/xlink" width="188.75" height="188.75" viewBox="0 0 188.75 188.75">
<path fill="none" stroke-width="9.4375" stroke-linecap="round" stroke-linejoin="round" stroke="rgb(0%, 0%, 0%)" stroke-opacity="1" stroke-miterlimit="10" d="M 150.316018 1077.678808 L 197.683361 954.781871 " transform="matrix(0.0998677, 0, 0, -0.0998677, -0.000000000000003941, 188.500331)"/>
<path fill="none" stroke-width="9.4375" stroke-linecap="round" stroke-linejoin="round" stroke="rgb(0%, 0%, 0%)" stroke-opacity="1" stroke-miterlimit="10" d="M 150.316018 1077.678808 L 1004.023386 1730.769247 " transform="matrix(0.0998677, 0, 0, -0.0998677, -0.000000000000003941, 188.500331)"/>
<path fill="none" stroke-width="9.4375" stroke-linecap="round" stroke-linejoin="round" stroke="rgb(0%, 0%, 0%)" stroke-opacity="1" stroke-miterlimit="10" d="M 189.938742 1203.587541 L 434.363618 919.500828 " transform="matrix(0.0998677, 0, 0, -0.0998677, -0.000000000000003941, 188.500331)"/>
<path fill="none" stroke-width="9.4375" stroke-linecap="round" stroke-linejoin="round" stroke="rgb(0%, 0%, 0%)" stroke-opacity="1" stroke-miterlimit="10" d="M 197.683361 954.781871 L 309.902111 892.277318 " transform="matrix(0.0998677, 0, 0, -0.0998677, -0.000000000000003941, 188.500331)"/>
<path fill="none" stroke-width="9.4375" stroke-linecap="round" stroke-linejoin="round" stroke="rgb(0%, 0%, 0%)" stroke-opacity="1" stroke-miterlimit="10" d="M 297.972268 1273.484685 L 189.938742 1203.587541 " transform="matrix(0.0998677, 0, 0, -0.0998677, -0.000000000000003941, 188.500331)"/>
<path fill="none" stroke-width="9.4375" stroke-linecap="round" stroke-linejoin="round" stroke="rgb(0%, 0%, 0%)" stroke-opacity="1" stroke-miterlimit="10" d="M 309.902111 892.277318 L 434.363618 919.500828 " transform="matrix(0.0998677, 0, 0, -0.0998677, -0.000000000000003941, 188.500331)"/>
<path fill="none" stroke-width="9.4375" stroke-linecap="round" stroke-linejoin="round" stroke="rgb(0%, 0%, 0%)" stroke-opacity="1" stroke-miterlimit="10" d="M 309.902111 892.277318 L 1157.977028 264.650248 " transform="matrix(0.0998677, 0, 0, -0.0998677, -0.000000000000003941, 188.500331)"/>
<path fill="none" stroke-width="9.4375" stroke-linecap="round" stroke-linejoin="round" stroke="rgb(0%, 0%, 0%)" stroke-opacity="1" stroke-miterlimit="10" d="M 336.186879 1084.015315 L 197.683361 954.781871 " transform="matrix(0.0998677, 0, 0, -0.0998677, -0.000000000000003941, 188.500331)"/>
<path fill="none" stroke-width="9.4375" stroke-linecap="round" stroke-linejoin="round" stroke="rgb(0%, 0%, 0%)" stroke-opacity="1" stroke-miterlimit="10" d="M 336.186879 1084.015315 L 297.972268 1273.484685 " transform="matrix(0.0998677, 0, 0, -0.0998677, -0.000000000000003941, 188.500331)"/>
<path fill="none" stroke-width="9.4375" stroke-linecap="round" stroke-linejoin="round" stroke="rgb(0%, 0%, 0%)" stroke-opacity="1" stroke-miterlimit="10" d="M 336.186879 1084.015315 L 512.905008 1023.701159 " transform="matrix(0.0998677, 0, 0, -0.0998677, -0.000000000000003941, 188.500331)"/>
<path fill="none" stroke-width="9.4375" stroke-linecap="round" stroke-linejoin="round" stroke="rgb(0%, 0%, 0%)" stroke-opacity="1" stroke-miterlimit="10" d="M 389.499586 363.100786 L 419.930464 234.532285 " transform="matrix(0.0998677, 0, 0, -0.0998677, -0.000000000000003941, 188.500331)"/>
<path fill="none" stroke-width="9.4375" stroke-linecap="round" stroke-linejoin="round" stroke="rgb(0%, 0%, 0%)" stroke-opacity="1" stroke-miterlimit="10" d="M 419.930464 234.532285 L 754.943916 388.720613 " transform="matrix(0.0998677, 0, 0, -0.0998677, -0.000000000000003941, 188.500331)"/>
<path fill="none" stroke-width="9.4375" stroke-linecap="round" stroke-linejoin="round" stroke="rgb(0%, 0%, 0%)" stroke-opacity="1" stroke-miterlimit="10" d="M 423.95923 1254.709851 L 297.972268 1273.484685 " transform="matrix(0.0998677, 0, 0, -0.0998677, -0.000000000000003941, 188.500331)"/>
<path fill="none" stroke-width="9.4375" stroke-linecap="round" stroke-linejoin="round" stroke="rgb(0%, 0%, 0%)" stroke-opacity="1" stroke-miterlimit="10" d="M 434.363618 919.500828 L 512.905008 1023.701159 " transform="matrix(0.0998677, 0, 0, -0.0998677, -0.000000000000003941, 188.500331)"/>
<path fill="none" stroke-width="9.4375" stroke-linecap="round" stroke-linejoin="round" stroke="rgb(0%, 0%, 0%)" stroke-opacity="1" stroke-miterlimit="10" d="M 445.55029 482.047185 L 389.499586 363.100786 " transform="matrix(0.0998677, 0, 0, -0.0998677, -0.000000000000003941, 188.500331)"/>
<path fill="none" stroke-width="9.4375" stroke-linecap="round" stroke-linejoin="round" stroke="rgb(0%, 0%, 0%)" stroke-opacity="1" stroke-miterlimit="10" d="M 508.798013 1156.063742 L 150.316018 1077.678808 " transform="matrix(0.0998677, 0, 0, -0.0998677, -0.000000000000003941, 188.500331)"/>
<path fill="none" stroke-width="9.4375" stroke-linecap="round" stroke-linejoin="round" stroke="rgb(0%, 0%, 0%)" stroke-opacity="1" stroke-miterlimit="10" d="M 508.798013 1156.063742 L 423.95923 1254.709851 " transform="matrix(0.0998677, 0, 0, -0.0998677, -0.000000000000003941, 188.500331)"/>
<path fill="none" stroke-width="9.4375" stroke-linecap="round" stroke-linejoin="round" stroke="rgb(0%, 0%, 0%)" stroke-opacity="1" stroke-miterlimit="10" d="M 512.905008 1023.701159 L 508.798013 1156.063742 " transform="matrix(0.0998677, 0, 0, -0.0998677, -0.000000000000003941, 188.500331)"/>
<path fill="none" stroke-width="9.4375" stroke-linecap="round" stroke-linejoin="round" stroke="rgb(0%, 0%, 0%)" stroke-opacity="1" stroke-miterlimit="10" d="M 522.683568 156.382036 L 189.938742 1203.587541 " transform="matrix(0.0998677, 0, 0, -0.0998677, -0.000000000000003941, 188.500331)"/>
<path fill="none" stroke-width="9.4375" stroke-linecap="round" stroke-linejoin="round" stroke="rgb(0%, 0%, 0%)" stroke-opacity="1" stroke-miterlimit="10" d="M 522.683568 156.382036 L 649.609272 165.300083 " transform="matrix(0.0998677, 0, 0, -0.0998677, -0.000000000000003941, 188.500331)"/>
<path fill="none" stroke-width="9.4375" stroke-linecap="round" stroke-linejoin="round" stroke="rgb(0%, 0%, 0%)" stroke-opacity="1" stroke-miterlimit="10" d="M 561.836921 535.633692 L 445.55029 482.047185 " transform="matrix(0.0998677, 0, 0, -0.0998677, -0.000000000000003941, 188.500331)"/>
<path fill="none" stroke-width="9.4375" stroke-linecap="round" stroke-linejoin="round" stroke="rgb(0%, 0%, 0%)" stroke-opacity="1" stroke-miterlimit="10" d="M 561.836921 535.633692 L 522.683568 156.382036 " transform="matrix(0.0998677, 0, 0, -0.0998677, -0.000000000000003941, 188.500331)"/>
<path fill="none" stroke-width="9.4375" stroke-linecap="round" stroke-linejoin="round" stroke="rgb(0%, 0%, 0%)" stroke-opacity="1" stroke-miterlimit="10" d="M 574.392591 342.409354 L 389.499586 363.100786 " transform="matrix(0.0998677, 0, 0, -0.0998677, -0.000000000000003941, 188.500331)"/>
<path fill="none" stroke-width="9.4375" stroke-linecap="round" stroke-linejoin="round" stroke="rgb(0%, 0%, 0%)" stroke-opacity="1" stroke-miterlimit="10" d="M 574.392591 342.409354 L 649.609272 165.300083 " transform="matrix(0.0998677, 0, 0, -0.0998677, -0.000000000000003941, 188.500331)"/>
<path fill="none" stroke-width="9.4375" stroke-linecap="round" stroke-linejoin="round" stroke="rgb(0%, 0%, 0%)" stroke-opacity="1" stroke-miterlimit="10" d="M 574.392591 342.409354 L 684.068916 498.748965 " transform="matrix(0.0998677, 0, 0, -0.0998677, -0.000000000000003941, 188.500331)"/>
<path fill="none" stroke-width="9.4375" stroke-linecap="round" stroke-linejoin="round" stroke="rgb(0%, 0%, 0%)" stroke-opacity="1" stroke-miterlimit="10" d="M 649.609272 165.300083 L 741.332161 257.062086 " transform="matrix(0.0998677, 0, 0, -0.0998677, -0.000000000000003941, 188.500331)"/>
<path fill="none" stroke-width="9.4375" stroke-linecap="round" stroke-linejoin="round" stroke="rgb(0%, 0%, 0%)" stroke-opacity="1" stroke-miterlimit="10" d="M 684.068916 498.748965 L 561.836921 535.633692 " transform="matrix(0.0998677, 0, 0, -0.0998677, -0.000000000000003941, 188.500331)"/>
<path fill="none" stroke-width="9.4375" stroke-linecap="round" stroke-linejoin="round" stroke="rgb(0%, 0%, 0%)" stroke-opacity="1" stroke-miterlimit="10" d="M 741.332161 257.062086 L 754.943916 388.720613 " transform="matrix(0.0998677, 0, 0, -0.0998677, -0.000000000000003941, 188.500331)"/>
<path fill="none" stroke-width="9.4375" stroke-linecap="round" stroke-linejoin="round" stroke="rgb(0%, 0%, 0%)" stroke-opacity="1" stroke-miterlimit="10" d="M 741.332161 257.062086 L 1576.734065 903.033733 " transform="matrix(0.0998677, 0, 0, -0.0998677, -0.000000000000003941, 188.500331)"/>
<path fill="none" stroke-width="9.4375" stroke-linecap="round" stroke-linejoin="round" stroke="rgb(0%, 0%, 0%)" stroke-opacity="1" stroke-miterlimit="10" d="M 754.943916 388.720613 L 684.068916 498.748965 " transform="matrix(0.0998677, 0, 0, -0.0998677, -0.000000000000003941, 188.500331)"/>
<path fill="none" stroke-width="9.4375" stroke-linecap="round" stroke-linejoin="round" stroke="rgb(0%, 0%, 0%)" stroke-opacity="1" stroke-miterlimit="10" d="M 756.782285 1515.914735 L 445.55029 482.047185 " transform="matrix(0.0998677, 0, 0, -0.0998677, -0.000000000000003941, 188.500331)"/>
<path fill="none" stroke-width="9.4375" stroke-linecap="round" stroke-linejoin="round" stroke="rgb(0%, 0%, 0%)" stroke-opacity="1" stroke-miterlimit="10" d="M 756.782285 1515.914735 L 820.030008 1400.997103 " transform="matrix(0.0998677, 0, 0, -0.0998677, -0.000000000000003941, 188.500331)"/>
<path fill="none" stroke-width="9.4375" stroke-linecap="round" stroke-linejoin="round" stroke="rgb(0%, 0%, 0%)" stroke-opacity="1" stroke-miterlimit="10" d="M 779.194743 1646.204263 L 756.782285 1515.914735 " transform="matrix(0.0998677, 0, 0, -0.0998677, -0.000000000000003941, 188.500331)"/>
<path fill="none" stroke-width="9.4375" stroke-linecap="round" stroke-linejoin="round" stroke="rgb(0%, 0%, 0%)" stroke-opacity="1" stroke-miterlimit="10" d="M 820.030008 1400.997103 L 939.563121 1355.389901 " transform="matrix(0.0998677, 0, 0, -0.0998677, -0.000000000000003941, 188.500331)"/>
<path fill="none" stroke-width="9.4375" stroke-linecap="round" stroke-linejoin="round" stroke="rgb(0%, 0%, 0%)" stroke-opacity="1" stroke-miterlimit="10" d="M 876.823882 1731.082161 L 779.194743 1646.204263 " transform="matrix(0.0998677, 0, 0, -0.0998677, -0.000000000000003941, 188.500331)"/>
<path fill="none" stroke-width="9.4375" stroke-linecap="round" stroke-linejoin="round" stroke="rgb(0%, 0%, 0%)" stroke-opacity="1" stroke-miterlimit="10" d="M 876.823882 1731.082161 L 1737.180671 1087.613825 " transform="matrix(0.0998677, 0, 0, -0.0998677, -0.000000000000003941, 188.500331)"/>
<path fill="none" stroke-width="9.4375" stroke-linecap="round" stroke-linejoin="round" stroke="rgb(0%, 0%, 0%)" stroke-opacity="1" stroke-miterlimit="10" d="M 939.563121 1355.389901 L 1059.135348 1400.332161 " transform="matrix(0.0998677, 0, 0, -0.0998677, -0.000000000000003941, 188.500331)"/>
<path fill="none" stroke-width="9.4375" stroke-linecap="round" stroke-linejoin="round" stroke="rgb(0%, 0%, 0%)" stroke-opacity="1" stroke-miterlimit="10" d="M 940.032492 1549.044495 L 779.194743 1646.204263 " transform="matrix(0.0998677, 0, 0, -0.0998677, -0.000000000000003941, 188.500331)"/>
<path fill="none" stroke-width="9.4375" stroke-linecap="round" stroke-linejoin="round" stroke="rgb(0%, 0%, 0%)" stroke-opacity="1" stroke-miterlimit="10" d="M 940.032492 1549.044495 L 939.563121 1355.389901 " transform="matrix(0.0998677, 0, 0, -0.0998677, -0.000000000000003941, 188.500331)"/>
<path fill="none" stroke-width="9.4375" stroke-linecap="round" stroke-linejoin="round" stroke="rgb(0%, 0%, 0%)" stroke-opacity="1" stroke-miterlimit="10" d="M 940.032492 1549.044495 L 1101.261382 1645.382864 " transform="matrix(0.0998677, 0, 0, -0.0998677, -0.000000000000003941, 188.500331)"/>
<path fill="none" stroke-width="9.4375" stroke-linecap="round" stroke-linejoin="round" stroke="rgb(0%, 0%, 0%)" stroke-opacity="1" stroke-miterlimit="10" d="M 1004.023386 1730.769247 L 820.030008 1400.997103 " transform="matrix(0.0998677, 0, 0, -0.0998677, -0.000000000000003941, 188.500331)"/>
<path fill="none" stroke-width="9.4375" stroke-linecap="round" stroke-linejoin="round" stroke="rgb(0%, 0%, 0%)" stroke-opacity="1" stroke-miterlimit="10" d="M 1059.135348 1400.332161 L 876.823882 1731.082161 " transform="matrix(0.0998677, 0, 0, -0.0998677, -0.000000000000003941, 188.500331)"/>
<path fill="none" stroke-width="9.4375" stroke-linecap="round" stroke-linejoin="round" stroke="rgb(0%, 0%, 0%)" stroke-opacity="1" stroke-miterlimit="10" d="M 1059.135348 1400.332161 L 1123.048013 1514.897765 " transform="matrix(0.0998677, 0, 0, -0.0998677, -0.000000000000003941, 188.500331)"/>
<path fill="none" stroke-width="9.4375" stroke-linecap="round" stroke-linejoin="round" stroke="rgb(0%, 0%, 0%)" stroke-opacity="1" stroke-miterlimit="10" d="M 1101.261382 1645.382864 L 1004.023386 1730.769247 " transform="matrix(0.0998677, 0, 0, -0.0998677, -0.000000000000003941, 188.500331)"/>
<path fill="none" stroke-width="9.4375" stroke-linecap="round" stroke-linejoin="round" stroke="rgb(0%, 0%, 0%)" stroke-opacity="1" stroke-miterlimit="10" d="M 1123.048013 1514.897765 L 1101.261382 1645.382864 " transform="matrix(0.0998677, 0, 0, -0.0998677, -0.000000000000003941, 188.500331)"/>
<path fill="none" stroke-width="9.4375" stroke-linecap="round" stroke-linejoin="round" stroke="rgb(0%, 0%, 0%)" stroke-opacity="1" stroke-miterlimit="10" d="M 1145.030215 396.387003 L 1157.977028 264.650248 " transform="matrix(0.0998677, 0, 0, -0.0998677, -0.000000000000003941, 188.500331)"/>
<path fill="none" stroke-width="9.4375" stroke-linecap="round" stroke-linejoin="round" stroke="rgb(0%, 0%, 0%)" stroke-opacity="1" stroke-miterlimit="10" d="M 1145.030215 396.387003 L 1479.300497 240.360306 " transform="matrix(0.0998677, 0, 0, -0.0998677, -0.000000000000003941, 188.500331)"/>
<path fill="none" stroke-width="9.4375" stroke-linecap="round" stroke-linejoin="round" stroke="rgb(0%, 0%, 0%)" stroke-opacity="1" stroke-miterlimit="10" d="M 1157.977028 264.650248 L 1249.269661 172.37976 " transform="matrix(0.0998677, 0, 0, -0.0998677, -0.000000000000003941, 188.500331)"/>
<path fill="none" stroke-width="9.4375" stroke-linecap="round" stroke-linejoin="round" stroke="rgb(0%, 0%, 0%)" stroke-opacity="1" stroke-miterlimit="10" d="M 1216.452815 505.985099 L 1145.030215 396.387003 " transform="matrix(0.0998677, 0, 0, -0.0998677, -0.000000000000003941, 188.500331)"/>
<path fill="none" stroke-width="9.4375" stroke-linecap="round" stroke-linejoin="round" stroke="rgb(0%, 0%, 0%)" stroke-opacity="1" stroke-miterlimit="10" d="M 1249.269661 172.37976 L 1376.195364 162.796772 " transform="matrix(0.0998677, 0, 0, -0.0998677, -0.000000000000003941, 188.500331)"/>
<path fill="none" stroke-width="9.4375" stroke-linecap="round" stroke-linejoin="round" stroke="rgb(0%, 0%, 0%)" stroke-opacity="1" stroke-miterlimit="10" d="M 1325.385969 349.019661 L 1216.452815 505.985099 " transform="matrix(0.0998677, 0, 0, -0.0998677, -0.000000000000003941, 188.500331)"/>
<path fill="none" stroke-width="9.4375" stroke-linecap="round" stroke-linejoin="round" stroke="rgb(0%, 0%, 0%)" stroke-opacity="1" stroke-miterlimit="10" d="M 1325.385969 349.019661 L 1249.269661 172.37976 " transform="matrix(0.0998677, 0, 0, -0.0998677, -0.000000000000003941, 188.500331)"/>
<path fill="none" stroke-width="9.4375" stroke-linecap="round" stroke-linejoin="round" stroke="rgb(0%, 0%, 0%)" stroke-opacity="1" stroke-miterlimit="10" d="M 1325.385969 349.019661 L 1510.357202 368.850579 " transform="matrix(0.0998677, 0, 0, -0.0998677, -0.000000000000003941, 188.500331)"/>
<path fill="none" stroke-width="9.4375" stroke-linecap="round" stroke-linejoin="round" stroke="rgb(0%, 0%, 0%)" stroke-opacity="1" stroke-miterlimit="10" d="M 1338.841267 542.16577 L 1216.452815 505.985099 " transform="matrix(0.0998677, 0, 0, -0.0998677, -0.000000000000003941, 188.500331)"/>
<path fill="none" stroke-width="9.4375" stroke-linecap="round" stroke-linejoin="round" stroke="rgb(0%, 0%, 0%)" stroke-opacity="1" stroke-miterlimit="10" d="M 1374.278767 1035.396316 L 1452.350786 930.883071 " transform="matrix(0.0998677, 0, 0, -0.0998677, -0.000000000000003941, 188.500331)"/>
<path fill="none" stroke-width="9.4375" stroke-linecap="round" stroke-linejoin="round" stroke="rgb(0%, 0%, 0%)" stroke-opacity="1" stroke-miterlimit="10" d="M 1376.195364 162.796772 L 1338.841267 542.16577 " transform="matrix(0.0998677, 0, 0, -0.0998677, -0.000000000000003941, 188.500331)"/>
<path fill="none" stroke-width="9.4375" stroke-linecap="round" stroke-linejoin="round" stroke="rgb(0%, 0%, 0%)" stroke-opacity="1" stroke-miterlimit="10" d="M 1379.050704 1167.837127 L 1374.278767 1035.396316 " transform="matrix(0.0998677, 0, 0, -0.0998677, -0.000000000000003941, 188.500331)"/>
<path fill="none" stroke-width="9.4375" stroke-linecap="round" stroke-linejoin="round" stroke="rgb(0%, 0%, 0%)" stroke-opacity="1" stroke-miterlimit="10" d="M 1452.350786 930.883071 L 1576.734065 903.033733 " transform="matrix(0.0998677, 0, 0, -0.0998677, -0.000000000000003941, 188.500331)"/>
<path fill="none" stroke-width="9.4375" stroke-linecap="round" stroke-linejoin="round" stroke="rgb(0%, 0%, 0%)" stroke-opacity="1" stroke-miterlimit="10" d="M 1452.350786 930.883071 L 1698.144661 1213.679015 " transform="matrix(0.0998677, 0, 0, -0.0998677, -0.000000000000003941, 188.500331)"/>
<path fill="none" stroke-width="9.4375" stroke-linecap="round" stroke-linejoin="round" stroke="rgb(0%, 0%, 0%)" stroke-opacity="1" stroke-miterlimit="10" d="M 1454.893212 487.99255 L 1123.048013 1514.897765 " transform="matrix(0.0998677, 0, 0, -0.0998677, -0.000000000000003941, 188.500331)"/>
<path fill="none" stroke-width="9.4375" stroke-linecap="round" stroke-linejoin="round" stroke="rgb(0%, 0%, 0%)" stroke-opacity="1" stroke-miterlimit="10" d="M 1454.893212 487.99255 L 1338.841267 542.16577 " transform="matrix(0.0998677, 0, 0, -0.0998677, -0.000000000000003941, 188.500331)"/>
<path fill="none" stroke-width="9.4375" stroke-linecap="round" stroke-linejoin="round" stroke="rgb(0%, 0%, 0%)" stroke-opacity="1" stroke-miterlimit="10" d="M 1464.437086 1266.013866 L 423.95923 1254.709851 " transform="matrix(0.0998677, 0, 0, -0.0998677, -0.000000000000003941, 188.500331)"/>
<path fill="none" stroke-width="9.4375" stroke-linecap="round" stroke-linejoin="round" stroke="rgb(0%, 0%, 0%)" stroke-opacity="1" stroke-miterlimit="10" d="M 1464.437086 1266.013866 L 1379.050704 1167.837127 " transform="matrix(0.0998677, 0, 0, -0.0998677, -0.000000000000003941, 188.500331)"/>
<path fill="none" stroke-width="9.4375" stroke-linecap="round" stroke-linejoin="round" stroke="rgb(0%, 0%, 0%)" stroke-opacity="1" stroke-miterlimit="10" d="M 1479.300497 240.360306 L 419.930464 234.532285 " transform="matrix(0.0998677, 0, 0, -0.0998677, -0.000000000000003941, 188.500331)"/>
<path fill="none" stroke-width="9.4375" stroke-linecap="round" stroke-linejoin="round" stroke="rgb(0%, 0%, 0%)" stroke-opacity="1" stroke-miterlimit="10" d="M 1479.300497 240.360306 L 1510.357202 368.850579 " transform="matrix(0.0998677, 0, 0, -0.0998677, -0.000000000000003941, 188.500331)"/>
<path fill="none" stroke-width="9.4375" stroke-linecap="round" stroke-linejoin="round" stroke="rgb(0%, 0%, 0%)" stroke-opacity="1" stroke-miterlimit="10" d="M 1510.357202 368.850579 L 1454.893212 487.99255 " transform="matrix(0.0998677, 0, 0, -0.0998677, -0.000000000000003941, 188.500331)"/>
<path fill="none" stroke-width="9.4375" stroke-linecap="round" stroke-linejoin="round" stroke="rgb(0%, 0%, 0%)" stroke-opacity="1" stroke-miterlimit="10" d="M 1551.30981 1094.810844 L 1374.278767 1035.396316 " transform="matrix(0.0998677, 0, 0, -0.0998677, -0.000000000000003941, 188.500331)"/>
<path fill="none" stroke-width="9.4375" stroke-linecap="round" stroke-linejoin="round" stroke="rgb(0%, 0%, 0%)" stroke-opacity="1" stroke-miterlimit="10" d="M 1551.30981 1094.810844 L 1590.463162 1284.084644 " transform="matrix(0.0998677, 0, 0, -0.0998677, -0.000000000000003941, 188.500331)"/>
<path fill="none" stroke-width="9.4375" stroke-linecap="round" stroke-linejoin="round" stroke="rgb(0%, 0%, 0%)" stroke-opacity="1" stroke-miterlimit="10" d="M 1551.30981 1094.810844 L 1689.1875 964.83423 " transform="matrix(0.0998677, 0, 0, -0.0998677, -0.000000000000003941, 188.500331)"/>
<path fill="none" stroke-width="9.4375" stroke-linecap="round" stroke-linejoin="round" stroke="rgb(0%, 0%, 0%)" stroke-opacity="1" stroke-miterlimit="10" d="M 1576.734065 903.033733 L 1689.1875 964.83423 " transform="matrix(0.0998677, 0, 0, -0.0998677, -0.000000000000003941, 188.500331)"/>
<path fill="none" stroke-width="9.4375" stroke-linecap="round" stroke-linejoin="round" stroke="rgb(0%, 0%, 0%)" stroke-opacity="1" stroke-miterlimit="10" d="M 1590.463162 1284.084644 L 1464.437086 1266.013866 " transform="matrix(0.0998677, 0, 0, -0.0998677, -0.000000000000003941, 188.500331)"/>
<path fill="none" stroke-width="9.4375" stroke-linecap="round" stroke-linejoin="round" stroke="rgb(0%, 0%, 0%)" stroke-opacity="1" stroke-miterlimit="10" d="M 1689.1875 964.83423 L 1737.180671 1087.613825 " transform="matrix(0.0998677, 0, 0, -0.0998677, -0.000000000000003941, 188.500331)"/>
<path fill="none" stroke-width="9.4375" stroke-linecap="round" stroke-linejoin="round" stroke="rgb(0%, 0%, 0%)" stroke-opacity="1" stroke-miterlimit="10" d="M 1698.144661 1213.679015 L 1376.195364 162.796772 " transform="matrix(0.0998677, 0, 0, -0.0998677, -0.000000000000003941, 188.500331)"/>
<path fill="none" stroke-width="9.4375" stroke-linecap="round" stroke-linejoin="round" stroke="rgb(0%, 0%, 0%)" stroke-opacity="1" stroke-miterlimit="10" d="M 1698.144661 1213.679015 L 1590.463162 1284.084644 " transform="matrix(0.0998677, 0, 0, -0.0998677, -0.000000000000003941, 188.500331)"/>
<path fill="none" stroke-width="9.4375" stroke-linecap="round" stroke-linejoin="round" stroke="rgb(0%, 0%, 0%)" stroke-opacity="1" stroke-miterlimit="10" d="M 1737.180671 1087.613825 L 1379.050704 1167.837127 " transform="matrix(0.0998677, 0, 0, -0.0998677, -0.000000000000003941, 188.500331)"/>
<path fill="none" stroke-width="56.625" stroke-linecap="round" stroke-linejoin="round" stroke="rgb(100%, 0%, 0%)" stroke-opacity="1" stroke-miterlimit="10" d="M 150.316018 1077.678808 L 150.316018 1077.678808 " transform="matrix(0.0998677, 0, 0, -0.0998677, -0.000000000000003941, 188.500331)"/>
<path fill="none" stroke-width="56.625" stroke-linecap="round" stroke-linejoin="round" stroke="rgb(100%, 0%, 0%)" stroke-opacity="1" stroke-miterlimit="10" d="M 189.938742 1203.587541 L 189.938742 1203.587541 " transform="matrix(0.0998677, 0, 0, -0.0998677, -0.000000000000003941, 188.500331)"/>
<path fill="none" stroke-width="56.625" stroke-linecap="round" stroke-linejoin="round" stroke="rgb(100%, 0%, 0%)" stroke-opacity="1" stroke-miterlimit="10" d="M 197.683361 954.781871 L 197.683361 954.781871 " transform="matrix(0.0998677, 0, 0, -0.0998677, -0.000000000000003941, 188.500331)"/>
<path fill="none" stroke-width="56.625" stroke-linecap="round" stroke-linejoin="round" stroke="rgb(100%, 0%, 0%)" stroke-opacity="1" stroke-miterlimit="10" d="M 297.972268 1273.484685 L 297.972268 1273.484685 " transform="matrix(0.0998677, 0, 0, -0.0998677, -0.000000000000003941, 188.500331)"/>
<path fill="none" stroke-width="56.625" stroke-linecap="round" stroke-linejoin="round" stroke="rgb(100%, 0%, 0%)" stroke-opacity="1" stroke-miterlimit="10" d="M 309.902111 892.277318 L 309.902111 892.277318 " transform="matrix(0.0998677, 0, 0, -0.0998677, -0.000000000000003941, 188.500331)"/>
<path fill="none" stroke-width="56.625" stroke-linecap="round" stroke-linejoin="round" stroke="rgb(100%, 0%, 0%)" stroke-opacity="1" stroke-miterlimit="10" d="M 336.186879 1084.015315 L 336.186879 1084.015315 " transform="matrix(0.0998677, 0, 0, -0.0998677, -0.000000000000003941, 188.500331)"/>
<path fill="none" stroke-width="56.625" stroke-linecap="round" stroke-linejoin="round" stroke="rgb(100%, 0%, 0%)" stroke-opacity="1" stroke-miterlimit="10" d="M 389.499586 363.100786 L 389.499586 363.100786 " transform="matrix(0.0998677, 0, 0, -0.0998677, -0.000000000000003941, 188.500331)"/>
<path fill="none" stroke-width="56.625" stroke-linecap="round" stroke-linejoin="round" stroke="rgb(100%, 0%, 0%)" stroke-opacity="1" stroke-miterlimit="10" d="M 419.930464 234.532285 L 419.930464 234.532285 " transform="matrix(0.0998677, 0, 0, -0.0998677, -0.000000000000003941, 188.500331)"/>
<path fill="none" stroke-width="56.625" stroke-linecap="round" stroke-linejoin="round" stroke="rgb(100%, 0%, 0%)" stroke-opacity="1" stroke-miterlimit="10" d="M 423.95923 1254.709851 L 423.95923 1254.709851 " transform="matrix(0.0998677, 0, 0, -0.0998677, -0.000000000000003941, 188.500331)"/>
<path fill="none" stroke-width="56.625" stroke-linecap="round" stroke-linejoin="round" stroke="rgb(100%, 0%, 0%)" stroke-opacity="1" stroke-miterlimit="10" d="M 434.363618 919.500828 L 434.363618 919.500828 " transform="matrix(0.0998677, 0, 0, -0.0998677, -0.000000000000003941, 188.500331)"/>
<path fill="none" stroke-width="56.625" stroke-linecap="round" stroke-linejoin="round" stroke="rgb(100%, 0%, 0%)" stroke-opacity="1" stroke-miterlimit="10" d="M 445.55029 482.047185 L 445.55029 482.047185 " transform="matrix(0.0998677, 0, 0, -0.0998677, -0.000000000000003941, 188.500331)"/>
<path fill="none" stroke-width="56.625" stroke-linecap="round" stroke-linejoin="round" stroke="rgb(100%, 0%, 0%)" stroke-opacity="1" stroke-miterlimit="10" d="M 508.798013 1156.063742 L 508.798013 1156.063742 " transform="matrix(0.0998677, 0, 0, -0.0998677, -0.000000000000003941, 188.500331)"/>
<path fill="none" stroke-width="56.625" stroke-linecap="round" stroke-linejoin="round" stroke="rgb(100%, 0%, 0%)" stroke-opacity="1" stroke-miterlimit="10" d="M 512.905008 1023.701159 L 512.905008 1023.701159 " transform="matrix(0.0998677, 0, 0, -0.0998677, -0.000000000000003941, 188.500331)"/>
<path fill="none" stroke-width="56.625" stroke-linecap="round" stroke-linejoin="round" stroke="rgb(100%, 0%, 0%)" stroke-opacity="1" stroke-miterlimit="10" d="M 522.683568 156.382036 L 522.683568 156.382036 " transform="matrix(0.0998677, 0, 0, -0.0998677, -0.000000000000003941, 188.500331)"/>
<path fill="none" stroke-width="56.625" stroke-linecap="round" stroke-linejoin="round" stroke="rgb(100%, 0%, 0%)" stroke-opacity="1" stroke-miterlimit="10" d="M 561.836921 535.633692 L 561.836921 535.633692 " transform="matrix(0.0998677, 0, 0, -0.0998677, -0.000000000000003941, 188.500331)"/>
<path fill="none" stroke-width="56.625" stroke-linecap="round" stroke-linejoin="round" stroke="rgb(100%, 0%, 0%)" stroke-opacity="1" stroke-miterlimit="10" d="M 574.392591 342.409354 L 574.392591 342.409354 " transform="matrix(0.0998677, 0, 0, -0.0998677, -0.000000000000003941, 188.500331)"/>
<path fill="none" stroke-width="56.625" stroke-linecap="round" stroke-linejoin="round" stroke="rgb(100%, 0%, 0%)" stroke-opacity="1" stroke-miterlimit="10" d="M 649.609272 165.300083 L 649.609272 165.300083 " transform="matrix(0.0998677, 0, 0, -0.0998677, -0.000000000000003941, 188.500331)"/>
<path fill="none" stroke-width="56.625" stroke-linecap="round" stroke-linejoin="round" stroke="rgb(100%, 0%, 0%)" stroke-opacity="1" stroke-miterlimit="10" d="M 684.068916 498.748965 L 684.068916 498.748965 " transform="matrix(0.0998677, 0, 0, -0.0998677, -0.000000000000003941, 188.500331)"/>
<path fill="none" stroke-width="56.625" stroke-linecap="round" stroke-linejoin="round" stroke="rgb(100%, 0%, 0%)" stroke-opacity="1" stroke-miterlimit="10" d="M 741.332161 257.062086 L 741.332161 257.062086 " transform="matrix(0.0998677, 0, 0, -0.0998677, -0.000000000000003941, 188.500331)"/>
<path fill="none" stroke-width="56.625" stroke-linecap="round" stroke-linejoin="round" stroke="rgb(100%, 0%, 0%)" stroke-opacity="1" stroke-miterlimit="10" d="M 754.943916 388.720613 L 754.943916 388.720613 " transform="matrix(0.0998677, 0, 0, -0.0998677, -0.000000000000003941, 188.500331)"/>
<path fill="none" stroke-width="56.625" stroke-linecap="round" stroke-linejoin="round" stroke="rgb(100%, 0%, 0%)" stroke-opacity="1" stroke-miterlimit="10" d="M 756.782285 1515.914735 L 756.782285 1515.914735 " transform="matrix(0.0998677, 0, 0, -0.0998677, -0.000000000000003941, 188.500331)"/>
<path fill="none" stroke-width="56.625" stroke-linecap="round" stroke-linejoin="round" stroke="rgb(100%, 0%, 0%)" stroke-opacity="1" stroke-miterlimit="10" d="M 779.194743 1646.204263 L 779.194743 1646.204263 " transform="matrix(0.0998677, 0, 0, -0.0998677, -0.000000000000003941, 188.500331)"/>
<path fill="none" stroke-width="56.625" stroke-linecap="round" stroke-linejoin="round" stroke="rgb(100%, 0%, 0%)" stroke-opacity="1" stroke-miterlimit="10" d="M 820.030008 1400.997103 L 820.030008 1400.997103 " transform="matrix(0.0998677, 0, 0, -0.0998677, -0.000000000000003941, 188.500331)"/>
<path fill="none" stroke-width="56.625" stroke-linecap="round" stroke-linejoin="round" stroke="rgb(100%, 0%, 0%)" stroke-opacity="1" stroke-miterlimit="10" d="M 876.823882 1731.082161 L 876.823882 1731.082161 " transform="matrix(0.0998677, 0, 0, -0.0998677, -0.000000000000003941, 188.500331)"/>
<path fill="none" stroke-width="56.625" stroke-linecap="round" stroke-linejoin="round" stroke="rgb(100%, 0%, 0%)" stroke-opacity="1" stroke-miterlimit="10" d="M 939.563121 1355.389901 L 939.563121 1355.389901 " transform="matrix(0.0998677, 0, 0, -0.0998677, -0.000000000000003941, 188.500331)"/>
<path fill="none" stroke-width="56.625" stroke-linecap="round" stroke-linejoin="round" stroke="rgb(100%, 0%, 0%)" stroke-opacity="1" stroke-miterlimit="10" d="M 940.032492 1549.044495 L 940.032492 1549.044495 " transform="matrix(0.0998677, 0, 0, -0.0998677, -0.000000000000003941, 188.500331)"/>
<path fill="none" stroke-width="56.625" stroke-linecap="round" stroke-linejoin="round" stroke="rgb(100%, 0%, 0%)" stroke-opacity="1" stroke-miterlimit="10" d="M 1004.023386 1730.769247 L 1004.023386 1730.769247 " transform="matrix(0.0998677, 0, 0, -0.0998677, -0.000000000000003941, 188.500331)"/>
<path fill="none" stroke-width="56.625" stroke-linecap="round" stroke-linejoin="round" stroke="rgb(100%, 0%, 0%)" stroke-opacity="1" stroke-miterlimit="10" d="M 1059.135348 1400.332161 L 1059.135348 1400.332161 " transform="matrix(0.0998677, 0, 0, -0.0998677, -0.000000000000003941, 188.500331)"/>
<path fill="none" stroke-width="56.625" stroke-linecap="round" stroke-linejoin="round" stroke="rgb(100%, 0%, 0%)" stroke-opacity="1" stroke-miterlimit="10" d="M 1101.261382 1645.382864 L 1101.261382 1645.382864 " transform="matrix(0.0998677, 0, 0, -0.0998677, -0.000000000000003941, 188.500331)"/>
<path fill="none" stroke-width="56.625" stroke-linecap="round" stroke-linejoin="round" stroke="rgb(100%, 0%, 0%)" stroke-opacity="1" stroke-miterlimit="10" d="M 1123.048013 1514.897765 L 1123.048013 1514.897765 " transform="matrix(0.0998677, 0, 0, -0.0998677, -0.000000000000003941, 188.500331)"/>
<path fill="none" stroke-width="56.625" stroke-linecap="round" stroke-linejoin="round" stroke="rgb(100%, 0%, 0%)" stroke-opacity="1" stroke-miterlimit="10" d="M 1145.030215 396.387003 L 1145.030215 396.387003 " transform="matrix(0.0998677, 0, 0, -0.0998677, -0.000000000000003941, 188.500331)"/>
<path fill="none" stroke-width="56.625" stroke-linecap="round" stroke-linejoin="round" stroke="rgb(100%, 0%, 0%)" stroke-opacity="1" stroke-miterlimit="10" d="M 1157.977028 264.650248 L 1157.977028 264.650248 " transform="matrix(0.0998677, 0, 0, -0.0998677, -0.000000000000003941, 188.500331)"/>
<path fill="none" stroke-width="56.625" stroke-linecap="round" stroke-linejoin="round" stroke="rgb(100%, 0%, 0%)" stroke-opacity="1" stroke-miterlimit="10" d="M 1216.452815 505.985099 L 1216.452815 505.985099 " transform="matrix(0.0998677, 0, 0, -0.0998677, -0.000000000000003941, 188.500331)"/>
<path fill="none" stroke-width="56.625" stroke-linecap="round" stroke-linejoin="round" stroke="rgb(100%, 0%, 0%)" stroke-opacity="1" stroke-miterlimit="10" d="M 1249.269661 172.37976 L 1249.269661 172.37976 " transform="matrix(0.0998677, 0, 0, -0.0998677, -0.000000000000003941, 188.500331)"/>
<path fill="none" stroke-width="56.625" stroke-linecap="round" stroke-linejoin="round" stroke="rgb(100%, 0%, 0%)" stroke-opacity="1" stroke-miterlimit="10" d="M 1325.385969 349.019661 L 1325.385969 349.019661 " transform="matrix(0.0998677, 0, 0, -0.0998677, -0.000000000000003941, 188.500331)"/>
<path fill="none" stroke-width="56.625" stroke-linecap="round" stroke-linejoin="round" stroke="rgb(100%, 0%, 0%)" stroke-opacity="1" stroke-miterlimit="10" d="M 1338.841267 542.16577 L 1338.841267 542.16577 " transform="matrix(0.0998677, 0, 0, -0.0998677, -0.000000000000003941, 188.500331)"/>
<path fill="none" stroke-width="56.625" stroke-linecap="round" stroke-linejoin="round" stroke="rgb(100%, 0%, 0%)" stroke-opacity="1" stroke-miterlimit="10" d="M 1374.278767 1035.396316 L 1374.278767 1035.396316 " transform="matrix(0.0998677, 0, 0, -0.0998677, -0.000000000000003941, 188.500331)"/>
<path fill="none" stroke-width="56.625" stroke-linecap="round" stroke-linejoin="round" stroke="rgb(100%, 0%, 0%)" stroke-opacity="1" stroke-miterlimit="10" d="M 1376.195364 162.796772 L 1376.195364 162.796772 " transform="matrix(0.0998677, 0, 0, -0.0998677, -0.000000000000003941, 188.500331)"/>
<path fill="none" stroke-width="56.625" stroke-linecap="round" stroke-linejoin="round" stroke="rgb(100%, 0%, 0%)" stroke-opacity="1" stroke-miterlimit="10" d="M 1379.050704 1167.837127 L 1379.050704 1167.837127 " transform="matrix(0.0998677, 0, 0, -0.0998677, -0.000000000000003941, 188.500331)"/>
<path fill="none" stroke-width="56.625" stroke-linecap="round" stroke-linejoin="round" stroke="rgb(100%, 0%, 0%)" stroke-opacity="1" stroke-miterlimit="10" d="M 1452.350786 930.883071 L 1452.350786 930.883071 " transform="matrix(0.0998677, 0, 0, -0.0998677, -0.000000000000003941, 188.500331)"/>
<path fill="none" stroke-width="56.625" stroke-linecap="round" stroke-linejoin="round" stroke="rgb(100%, 0%, 0%)" stroke-opacity="1" stroke-miterlimit="10" d="M 1454.893212 487.99255 L 1454.893212 487.99255 " transform="matrix(0.0998677, 0, 0, -0.0998677, -0.000000000000003941, 188.500331)"/>
<path fill="none" stroke-width="56.625" stroke-linecap="round" stroke-linejoin="round" stroke="rgb(100%, 0%, 0%)" stroke-opacity="1" stroke-miterlimit="10" d="M 1464.437086 1266.013866 L 1464.437086 1266.013866 " transform="matrix(0.0998677, 0, 0, -0.0998677, -0.000000000000003941, 188.500331)"/>
<path fill="none" stroke-width="56.625" stroke-linecap="round" stroke-linejoin="round" stroke="rgb(100%, 0%, 0%)" stroke-opacity="1" stroke-miterlimit="10" d="M 1479.300497 240.360306 L 1479.300497 240.360306 " transform="matrix(0.0998677, 0, 0, -0.0998677, -0.000000000000003941, 188.500331)"/>
<path fill="none" stroke-width="56.625" stroke-linecap="round" stroke-linejoin="round" stroke="rgb(100%, 0%, 0%)" stroke-opacity="1" stroke-miterlimit="10" d="M 1510.357202 368.850579 L 1510.357202 368.850579 " transform="matrix(0.0998677, 0, 0, -0.0998677, -0.000000000000003941, 188.500331)"/>
<path fill="none" stroke-width="56.625" stroke-linecap="round" stroke-linejoin="round" stroke="rgb(100%, 0%, 0%)" stroke-opacity="1" stroke-miterlimit="10" d="M 1551.30981 1094.810844 L 1551.30981 1094.810844 " transform="matrix(0.0998677, 0, 0, -0.0998677, -0.000000000000003941, 188.500331)"/>
<path fill="none" stroke-width="56.625" stroke-linecap="round" stroke-linejoin="round" stroke="rgb(100%, 0%, 0%)" stroke-opacity="1" stroke-miterlimit="10" d="M 1576.734065 903.033733 L 1576.734065 903.033733 " transform="matrix(0.0998677, 0, 0, -0.0998677, -0.000000000000003941, 188.500331)"/>
<path fill="none" stroke-width="56.625" stroke-linecap="round" stroke-linejoin="round" stroke="rgb(100%, 0%, 0%)" stroke-opacity="1" stroke-miterlimit="10" d="M 1590.463162 1284.084644 L 1590.463162 1284.084644 " transform="matrix(0.0998677, 0, 0, -0.0998677, -0.000000000000003941, 188.500331)"/>
<path fill="none" stroke-width="56.625" stroke-linecap="round" stroke-linejoin="round" stroke="rgb(100%, 0%, 0%)" stroke-opacity="1" stroke-miterlimit="10" d="M 1689.1875 964.83423 L 1689.1875 964.83423 " transform="matrix(0.0998677, 0, 0, -0.0998677, -0.000000000000003941, 188.500331)"/>
<path fill="none" stroke-width="56.625" stroke-linecap="round" stroke-linejoin="round" stroke="rgb(100%, 0%, 0%)" stroke-opacity="1" stroke-miterlimit="10" d="M 1698.144661 1213.679015 L 1698.144661 1213.679015 " transform="matrix(0.0998677, 0, 0, -0.0998677, -0.000000000000003941, 188.500331)"/>
<path fill="none" stroke-width="56.625" stroke-linecap="round" stroke-linejoin="round" stroke="rgb(100%, 0%, 0%)" stroke-opacity="1" stroke-miterlimit="10" d="M 1737.180671 1087.613825 L 1737.180671 1087.613825 " transform="matrix(0.0998677, 0, 0, -0.0998677, -0.000000000000003941, 188.500331)"/>
</svg>
