<?xml version="1.0" encoding="UTF-8"?>
<svg xmlns="http://www.w3.org/2000/svg" xmlns:xlink="http://www.w3.org/1999/xlink" width="230.38" height="99.75" viewBox="0 0 230.38 99.75">
<defs>
<clipPath id="clip-0">
<path clip-rule="nonzero" d="M 0 49 L 229.761719 49 L 229.761719 50 L 0 50 Z M 0 49 "/>
</clipPath>
<clipPath id="clip-1">
<path clip-rule="nonzero" d="M 114 0.0078125 L 116 0.0078125 L 116 99.492188 L 114 99.492188 Z M 114 0.0078125 "/>
</clipPath>
</defs>
<g clip-path="url(#clip-0)">
<path fill="none" stroke-width="2.5" stroke-linecap="round" stroke-linejoin="round" stroke="rgb(0%, 0%, 0%)" stroke-opacity="1" stroke-miterlimit="10" d="M 0.66585 498.753364 L 2303.095531 498.753364 " transform="matrix(0.0997316, 0, 0, -0.0997316, 0.000000000000004774, 99.491472)"/>
</g>
<g clip-path="url(#clip-1)">
<path fill="none" stroke-width="2.5" stroke-linecap="round" stroke-linejoin="round" stroke="rgb(0%, 0%, 0%)" stroke-opacity="1" stroke-miterlimit="10" d="M 1151.88069 -0.00717564 L 1151.88069 997.513904 " transform="matrix(0.0997316, 0, 0, -0.0997316, 0.000000000000004774, 99.491472)"/>
</g>
<path fill="none" stroke-width="5" stroke-linecap="round" stroke-linejoin="round" stroke="rgb(100%, 0%, 0%)" stroke-opacity="1" stroke-miterlimit="10" d="M 2207.409023 498.753364 L 2207.44819 487.943099 L 2207.487358 478.072858 L 2207.565693 466.714247 L 2207.722364 456.021485 L 2208.035705 437.025187 L 2208.505716 416.540519 L 2209.171566 394.136637 L 2210.072421 370.714397 L 2212.109138 329.549223 L 2214.694201 288.658222 L 2217.553438 252.07566 L 2225.112789 176.834652 L 2233.494661 114.127284 L 2240.584001 71.591243 L 2246.576648 41.941351 L 2248.02585 35.792034 L 2248.221688 34.812843 L 2248.260856 34.734508 L 2248.18252 34.969514 L 2247.242497 38.455432 L 2245.166613 45.42727 L 2236.118892 73.118781 L 2191.546134 182.788131 L 2110.743324 336.168552 L 1997.353048 502.513456 L 1916.158561 598.826646 L 1828.618919 686.483792 L 1639.909301 829.523959 L 1531.140805 887.844553 L 1469.099287 914.008527 L 1409.603664 934.493195 L 1358.294075 948.632707 L 1302.362706 960.422163 L 1271.968629 965.278948 L 1239.772841 969.234878 L 1212.198833 971.624103 L 1196.531783 972.564126 L 1182.000594 973.229976 L 1166.059371 973.621652 L 1157.99084 973.699988 L 1149.099789 973.739155 L 1133.471906 973.543317 L 1118.784047 973.112473 L 1109.932164 972.720797 L 1101.550292 972.250785 L 1085.804907 971.19326 L 1068.884492 969.70489 L 1050.436541 967.707341 " transform="matrix(0.0997316, 0, 0, -0.0997316, 0.000000000000004774, 99.491472)"/>
<path fill="none" stroke-width="5" stroke-linecap="round" stroke-linejoin="round" stroke="rgb(100%, 0%, 0%)" stroke-opacity="1" stroke-miterlimit="10" d="M 1050.436541 967.707341 L 1019.415782 963.43807 L 986.554144 957.680429 L 927.881042 944.167598 L 867.05372 925.719647 L 810.887345 904.569129 L 709.247358 855.844603 L 602.82892 789.455478 L 499.113048 707.908483 L 339.191634 543.326122 L 209.350957 362.959207 L 126.628932 213.378047 L 77.434395 100.026939 L 56.636386 38.886276 L 55.892201 36.18371 L 55.539693 34.891178 L 55.500525 34.734508 L 55.500525 34.773676 L 55.539693 34.891178 L 55.892201 36.457883 L 59.730628 53.965812 L 66.506628 90.665877 L 74.026812 140.447928 L 81.194487 199.747713 L 87.970486 273.892028 L 91.103896 320.188161 L 93.453954 365.896779 L 94.276474 386.303112 L 94.981491 408.158647 L 95.334 419.673929 L 95.608173 432.364239 L 95.843179 443.213671 L 95.999849 454.807289 L 96.15652 466.753414 L 96.274023 477.798685 L 96.31319 489.705643 L 96.31319 502.905132 L 96.274023 514.342079 L 96.195688 524.839002 L 96.117352 536.354284 L 95.921514 548.45708 L 95.529838 569.450928 L 95.020659 588.838902 L 93.414786 632.236631 L 91.064729 678.10192 L 88.40133 718.092065 L 80.959481 800.030737 L 73.125956 863.521458 L 66.075784 909.50425 L 59.260617 945.890974 " transform="matrix(0.0997316, 0, 0, -0.0997316, 0.000000000000004774, 99.491472)"/>
<path fill="none" stroke-width="5" stroke-linecap="round" stroke-linejoin="round" stroke="rgb(100%, 0%, 0%)" stroke-opacity="1" stroke-miterlimit="10" d="M 59.260617 945.890974 L 56.988895 956.34873 L 55.774698 961.597191 L 55.539693 962.576382 L 55.500525 962.77222 L 55.500525 962.654717 L 55.774698 961.753862 L 56.205542 960.030486 L 61.767345 941.856708 L 96.509029 850.204465 L 174.374268 693.377294 L 292.817166 512.736206 L 455.088638 329.784229 L 639.372314 183.336478 L 747.749133 121.529965 L 854.206739 76.252191 L 917.149112 56.237534 L 975.430539 42.058854 L 1007.9005 35.909537 L 1043.425536 30.661075 L 1059.719268 28.741861 L 1077.070526 27.018486 L 1091.993391 25.843457 L 1108.326291 24.864266 L 1123.758335 24.237584 L 1138.132854 23.845908 L 1153.36906 23.767573 L 1169.545289 23.924243 L 1184.663993 24.394255 L 1198.960176 25.060105 L 1211.767989 25.843457 L 1225.633329 26.940151 L 1257.476608 30.308566 L 1291.08243 35.126184 L 1350.852226 47.07231 L 1405.686902 61.799337 L 1456.252306 78.680583 L 1567.958373 127.56178 L 1682.758683 195.517609 L 1783.693653 271.659473 L 1948.119344 434.714297 L 2083.600159 617.352933 L 2170.317282 770.341677 L 2223.154408 889.254588 L 2246.459145 956.387897 L 2248.065018 961.988868 L 2248.18252 962.537214 L 2248.221688 962.693885 L 2248.260856 962.77222 L 2248.260856 962.693885 L 2248.221688 962.576382 " transform="matrix(0.0997316, 0, 0, -0.0997316, 0.000000000000004774, 99.491472)"/>
<path fill="none" stroke-width="5" stroke-linecap="round" stroke-linejoin="round" stroke="rgb(100%, 0%, 0%)" stroke-opacity="1" stroke-miterlimit="10" d="M 2248.221688 962.576382 L 2248.065018 962.028035 L 2244.735769 947.144338 L 2238.743123 915.575232 L 2230.792095 865.009828 L 2223.350246 805.122529 L 2219.629322 768.81414 L 2216.0259 726.708943 L 2213.166664 685.778774 L 2210.973276 646.76782 L 2210.111589 627.536516 L 2209.328236 606.307663 L 2208.662387 585.74466 L 2208.192375 566.983367 L 2207.879034 550.062953 L 2207.644028 534.082562 L 2207.526525 525.230679 L 2207.487358 517.12298 L 2207.44819 508.192762 L 2207.409023 498.753364 " transform="matrix(0.0997316, 0, 0, -0.0997316, 0.000000000000004774, 99.491472)"/>
</svg>
