<?xml version="1.0" encoding="UTF-8"?>
<svg xmlns="http://www.w3.org/2000/svg" xmlns:xlink="http://www.w3.org/1999/xlink" width="288" height="288" viewBox="0 0 288 288">
<defs>
<clipPath id="clip-0">
<path clip-rule="nonzero" d="M 150.53125 150.53125 L 281.144531 150.53125 L 281.144531 281.144531 L 150.53125 281.144531 Z M 150.53125 150.53125 "/>
</clipPath>
<clipPath id="clip-1">
<path clip-rule="nonzero" d="M 150.53125 6.855469 L 281.144531 6.855469 L 281.144531 137.46875 L 150.53125 137.46875 Z M 150.53125 6.855469 "/>
</clipPath>
</defs>
<path fill-rule="nonzero" fill="rgb(0%, 0%, 0%)" fill-opacity="1" d="M 43.105469 244.894531 L 67.320312 244.894531 C 67.320312 231.519531 56.480469 220.679688 43.105469 220.679688 C 29.734375 220.679688 18.894531 231.519531 18.894531 244.894531 C 18.894531 258.265625 29.734375 269.105469 43.105469 269.105469 C 56.480469 269.105469 67.320312 258.265625 67.320312 244.894531 C 67.320312 244.085938 67.28125 243.277344 67.199219 242.476562 "/>
<path fill-rule="nonzero" fill="rgb(100%, 100%, 100%)" fill-opacity="1" d="M 72.164062 215.835938 L 89.042969 215.835938 C 89.042969 206.515625 81.484375 198.957031 72.164062 198.957031 C 62.839844 198.957031 55.285156 206.515625 55.285156 215.835938 C 55.285156 225.160156 62.839844 232.714844 72.164062 232.714844 C 81.484375 232.714844 89.042969 225.160156 89.042969 215.835938 C 89.042969 215.273438 89.015625 214.710938 88.957031 214.152344 "/>
<path fill="none" stroke-width="5" stroke-linecap="round" stroke-linejoin="round" stroke="rgb(0%, 0%, 0%)" stroke-opacity="1" stroke-miterlimit="10" d="M 890.429688 721.640625 C 890.429688 814.84375 814.84375 890.429688 721.640625 890.429688 C 628.398438 890.429688 552.851562 814.84375 552.851562 721.640625 C 552.851562 628.398438 628.398438 552.851562 721.640625 552.851562 C 814.84375 552.851562 890.429688 628.398438 890.429688 721.640625 C 890.429688 727.265625 890.15625 732.890625 889.570312 738.476562 " transform="matrix(0.1, 0, 0, -0.1, 0, 288)"/>
<g clip-path="url(#clip-0)">
<path fill-rule="nonzero" fill="rgb(100%, 100%, 100%)" fill-opacity="1" d="M 215.835938 215.835938 L 281.144531 215.835938 C 281.144531 179.769531 251.902344 150.53125 215.835938 150.53125 C 179.769531 150.53125 150.53125 179.769531 150.53125 215.835938 C 150.53125 251.902344 179.769531 281.144531 215.835938 281.144531 C 251.902344 281.144531 281.144531 251.902344 281.144531 215.835938 C 281.144531 213.660156 281.035156 211.484375 280.816406 209.316406 "/>
<path fill="none" stroke-width="5" stroke-linecap="round" stroke-linejoin="round" stroke="rgb(0%, 0%, 0%)" stroke-opacity="1" stroke-miterlimit="10" d="M 2811.445312 721.640625 C 2811.445312 1082.304688 2519.023438 1374.6875 2158.359375 1374.6875 C 1797.695312 1374.6875 1505.3125 1082.304688 1505.3125 721.640625 C 1505.3125 360.976562 1797.695312 68.554688 2158.359375 68.554688 C 2519.023438 68.554688 2811.445312 360.976562 2811.445312 721.640625 C 2811.445312 743.398438 2810.351562 765.15625 2808.164062 786.835938 " transform="matrix(0.1, 0, 0, -0.1, 0, 288)"/>
</g>
<path fill-rule="nonzero" fill="rgb(0%, 0%, 0%)" fill-opacity="1" d="M 186.78125 244.894531 L 210.996094 244.894531 C 210.996094 231.519531 200.152344 220.679688 186.78125 220.679688 C 173.40625 220.679688 162.566406 231.519531 162.566406 244.894531 C 162.566406 258.265625 173.40625 269.105469 186.78125 269.105469 C 200.152344 269.105469 210.996094 258.265625 210.996094 244.894531 C 210.996094 244.085938 210.953125 243.277344 210.875 242.476562 "/>
<path fill-rule="nonzero" fill="rgb(0%, 0%, 0%)" fill-opacity="1" d="M 55.480469 88.847656 L 97.191406 88.847656 C 97.191406 65.8125 78.515625 47.136719 55.480469 47.136719 C 32.441406 47.136719 13.769531 65.8125 13.769531 88.847656 C 13.769531 111.882812 32.441406 130.558594 55.480469 130.558594 C 78.515625 130.558594 97.191406 111.882812 97.191406 88.847656 C 97.191406 87.457031 97.121094 86.066406 96.980469 84.683594 "/>
<path fill-rule="nonzero" fill="rgb(100%, 100%, 100%)" fill-opacity="1" d="M 72.164062 72.164062 L 90.28125 72.164062 C 90.28125 62.15625 82.167969 54.046875 72.164062 54.046875 C 62.15625 54.046875 54.046875 62.15625 54.046875 72.164062 C 54.046875 82.167969 62.15625 90.277344 72.164062 90.277344 C 82.167969 90.277344 90.28125 82.167969 90.28125 72.164062 C 90.28125 71.558594 90.25 70.953125 90.1875 70.355469 "/>
<path fill="none" stroke-width="5" stroke-linecap="round" stroke-linejoin="round" stroke="rgb(0%, 0%, 0%)" stroke-opacity="1" stroke-miterlimit="10" d="M 902.8125 2158.359375 C 902.8125 2258.4375 821.679688 2339.53125 721.640625 2339.53125 C 621.5625 2339.53125 540.46875 2258.4375 540.46875 2158.359375 C 540.46875 2058.320312 621.5625 1977.226562 721.640625 1977.226562 C 821.679688 1977.226562 902.8125 2058.320312 902.8125 2158.359375 C 902.8125 2164.414062 902.5 2170.46875 901.875 2176.445312 " transform="matrix(0.1, 0, 0, -0.1, 0, 288)"/>
<g clip-path="url(#clip-1)">
<path fill-rule="nonzero" fill="rgb(100%, 100%, 100%)" fill-opacity="1" d="M 215.835938 72.164062 L 281.144531 72.164062 C 281.144531 36.097656 251.902344 6.855469 215.835938 6.855469 C 179.769531 6.855469 150.53125 36.097656 150.53125 72.164062 C 150.53125 108.230469 179.769531 137.46875 215.835938 137.46875 C 251.902344 137.46875 281.144531 108.230469 281.144531 72.164062 C 281.144531 69.984375 281.035156 67.808594 280.816406 65.644531 "/>
<path fill="none" stroke-width="5" stroke-linecap="round" stroke-linejoin="round" stroke="rgb(0%, 0%, 0%)" stroke-opacity="1" stroke-miterlimit="10" d="M 2811.445312 2158.359375 C 2811.445312 2519.023438 2519.023438 2811.445312 2158.359375 2811.445312 C 1797.695312 2811.445312 1505.3125 2519.023438 1505.3125 2158.359375 C 1505.3125 1797.695312 1797.695312 1505.3125 2158.359375 1505.3125 C 2519.023438 1505.3125 2811.445312 1797.695312 2811.445312 2158.359375 C 2811.445312 2180.15625 2810.351562 2201.914062 2808.164062 2223.554688 " transform="matrix(0.1, 0, 0, -0.1, 0, 288)"/>
</g>
<path fill-rule="nonzero" fill="rgb(0%, 0%, 0%)" fill-opacity="1" d="M 199.152344 88.847656 L 240.863281 88.847656 C 240.863281 65.8125 222.1875 47.136719 199.152344 47.136719 C 176.117188 47.136719 157.441406 65.8125 157.441406 88.847656 C 157.441406 111.882812 176.117188 130.558594 199.152344 130.558594 C 222.1875 130.558594 240.863281 111.882812 240.863281 88.847656 C 240.863281 87.457031 240.792969 86.066406 240.65625 84.683594 "/>
</svg>
