<?xml version="1.0" encoding="UTF-8"?>
<svg xmlns="http://www.w3.org/2000/svg" xmlns:xlink="http://www.w3.org/1999/xlink" width="154.69" height="119.19" viewBox="0 0 154.69 119.19">
<path fill="none" stroke-width="15.4622" stroke-linecap="round" stroke-linejoin="round" stroke="rgb(0%, 0%, 0%)" stroke-opacity="1" stroke-miterlimit="10" d="M 43.880569 455.287239 L 673.599924 733.807878 " transform="matrix(0.099325, 0, 0, -0.099325, 0.368125, 118.385467)"/>
<path fill="none" stroke-width="15.4622" stroke-linecap="round" stroke-linejoin="round" stroke="rgb(0%, 0%, 0%)" stroke-opacity="1" stroke-miterlimit="10" d="M 822.377611 1054.684734 L 673.599924 733.807878 " transform="matrix(0.099325, 0, 0, -0.099325, 0.368125, 118.385467)"/>
<path fill="none" stroke-width="15.4622" stroke-linecap="round" stroke-linejoin="round" stroke="rgb(0%, 0%, 0%)" stroke-opacity="1" stroke-miterlimit="10" d="M 1464.957211 83.008734 L 673.599924 733.807878 " transform="matrix(0.099325, 0, 0, -0.099325, 0.368125, 118.385467)"/>
<path fill="none" stroke-width="5" stroke-linecap="round" stroke-linejoin="round" stroke="rgb(100%, 0%, 0%)" stroke-opacity="1" stroke-miterlimit="10" d="M 1037.068966 434.915354 L 426.934936 750.207639 " transform="matrix(0.099325, 0, 0, -0.099325, 0.368125, 118.385467)"/>
<path fill="none" stroke-width="61.8489" stroke-linecap="round" stroke-linejoin="round" stroke="rgb(0%, 0%, 0%)" stroke-opacity="1" stroke-miterlimit="10" d="M 1037.068966 434.915354 L 1037.068966 434.915354 " transform="matrix(0.099325, 0, 0, -0.099325, 0.368125, 118.385467)"/>
<path fill="none" stroke-width="5" stroke-linecap="round" stroke-linejoin="round" stroke="rgb(100%, 0%, 0%)" stroke-opacity="1" stroke-miterlimit="10" d="M 1152.929147 554.904971 L 388.393531 607.64377 " transform="matrix(0.099325, 0, 0, -0.099325, 0.368125, 118.385467)"/>
<path fill="none" stroke-width="61.8489" stroke-linecap="round" stroke-linejoin="round" stroke="rgb(0%, 0%, 0%)" stroke-opacity="1" stroke-miterlimit="10" d="M 388.393531 607.64377 L 388.393531 607.64377 " transform="matrix(0.099325, 0, 0, -0.099325, 0.368125, 118.385467)"/>
<path fill="none" stroke-width="5" stroke-linecap="round" stroke-linejoin="round" stroke="rgb(100%, 0%, 0%)" stroke-opacity="1" stroke-miterlimit="10" d="M 763.50365 266.748981 L 739.828215 876.607715 " transform="matrix(0.099325, 0, 0, -0.099325, 0.368125, 118.385467)"/>
<path fill="none" stroke-width="61.8489" stroke-linecap="round" stroke-linejoin="round" stroke="rgb(0%, 0%, 0%)" stroke-opacity="1" stroke-miterlimit="10" d="M 739.828215 876.607715 L 739.828215 876.607715 " transform="matrix(0.099325, 0, 0, -0.099325, 0.368125, 118.385467)"/>
<path fill="none" stroke-width="61.8489" stroke-linecap="round" stroke-linejoin="round" stroke="rgb(100%, 0%, 0%)" stroke-opacity="1" stroke-miterlimit="10" d="M 751.233325 582.631186 L 751.233325 582.631186 " transform="matrix(0.099325, 0, 0, -0.099325, 0.368125, 118.385467)"/>
<path fill="none" stroke-width="15.4622" stroke-linecap="round" stroke-linejoin="round" stroke="rgb(0%, 0%, 0%)" stroke-opacity="1" stroke-miterlimit="10" d="M 1464.957211 83.008734 L 43.880569 455.287239 " transform="matrix(0.099325, 0, 0, -0.099325, 0.368125, 118.385467)"/>
<path fill="none" stroke-width="15.4622" stroke-linecap="round" stroke-linejoin="round" stroke="rgb(0%, 0%, 0%)" stroke-opacity="1" stroke-miterlimit="10" d="M 1464.957211 83.008734 L 822.377611 1054.684734 " transform="matrix(0.099325, 0, 0, -0.099325, 0.368125, 118.385467)"/>
<path fill="none" stroke-width="61.8489" stroke-linecap="round" stroke-linejoin="round" stroke="rgb(0%, 0%, 0%)" stroke-opacity="1" stroke-miterlimit="10" d="M 763.50365 266.748981 L 763.50365 266.748981 " transform="matrix(0.099325, 0, 0, -0.099325, 0.368125, 118.385467)"/>
<path fill="none" stroke-width="15.4622" stroke-linecap="round" stroke-linejoin="round" stroke="rgb(0%, 0%, 0%)" stroke-opacity="1" stroke-miterlimit="10" d="M 822.377611 1054.684734 L 43.880569 455.287239 " transform="matrix(0.099325, 0, 0, -0.099325, 0.368125, 118.385467)"/>
<path fill="none" stroke-width="61.8489" stroke-linecap="round" stroke-linejoin="round" stroke="rgb(0%, 0%, 0%)" stroke-opacity="1" stroke-miterlimit="10" d="M 1152.929147 554.904971 L 1152.929147 554.904971 " transform="matrix(0.099325, 0, 0, -0.099325, 0.368125, 118.385467)"/>
<path fill="none" stroke-width="61.8489" stroke-linecap="round" stroke-linejoin="round" stroke="rgb(0%, 0%, 0%)" stroke-opacity="1" stroke-miterlimit="10" d="M 426.934936 750.207639 L 426.934936 750.207639 " transform="matrix(0.099325, 0, 0, -0.099325, 0.368125, 118.385467)"/>
</svg>
