<?xml version="1.0" encoding="UTF-8"?>
<svg xmlns="http://www.w3.org/2000/svg" xmlns:xlink="http://www.w3.org/1999/xlink" width="195.19" height="150.44" viewBox="0 0 195.19 150.44">
<path fill="none" stroke-width="5" stroke-linecap="round" stroke-linejoin="round" stroke="rgb(100%, 0%, 0%)" stroke-opacity="1" stroke-miterlimit="10" d="M 849.918669 926.197832 L 987.440122 658.411476 " transform="matrix(0.0995867, 0, 0, -0.0995867, -0.000000000000004441, 149.850299)"/>
<path fill="none" stroke-width="19.5163" stroke-linecap="round" stroke-linejoin="round" stroke="rgb(0%, 0%, 0%)" stroke-opacity="1" stroke-miterlimit="10" d="M 55.110565 574.666951 L 849.918669 926.197832 " transform="matrix(0.0995867, 0, 0, -0.0995867, -0.000000000000004441, 149.850299)"/>
<path fill="none" stroke-width="19.5163" stroke-linecap="round" stroke-linejoin="round" stroke="rgb(0%, 0%, 0%)" stroke-opacity="1" stroke-miterlimit="10" d="M 1037.726062 1331.231068 L 849.918669 926.197832 " transform="matrix(0.0995867, 0, 0, -0.0995867, -0.000000000000004441, 149.850299)"/>
<path fill="none" stroke-width="19.5163" stroke-linecap="round" stroke-linejoin="round" stroke="rgb(0%, 0%, 0%)" stroke-opacity="1" stroke-miterlimit="10" d="M 1848.773151 104.756223 L 849.918669 926.197832 " transform="matrix(0.0995867, 0, 0, -0.0995867, -0.000000000000004441, 149.850299)"/>
<path fill="none" stroke-width="5" stroke-linecap="round" stroke-linejoin="round" stroke="rgb(100%, 0%, 0%)" stroke-opacity="1" stroke-miterlimit="10" d="M 1037.726062 1331.231068 L 921.032872 556.898207 " transform="matrix(0.0995867, 0, 0, -0.0995867, -0.000000000000004441, 149.850299)"/>
<path fill="none" stroke-width="78.0652" stroke-linecap="round" stroke-linejoin="round" stroke="rgb(0%, 0%, 0%)" stroke-opacity="1" stroke-miterlimit="10" d="M 921.032872 556.898207 L 921.032872 556.898207 " transform="matrix(0.0995867, 0, 0, -0.0995867, -0.000000000000004441, 149.850299)"/>
<path fill="none" stroke-width="5" stroke-linecap="round" stroke-linejoin="round" stroke="rgb(100%, 0%, 0%)" stroke-opacity="1" stroke-miterlimit="10" d="M 55.110565 574.666951 L 1226.710193 785.53841 " transform="matrix(0.0995867, 0, 0, -0.0995867, -0.000000000000004441, 149.850299)"/>
<path fill="none" stroke-width="78.0652" stroke-linecap="round" stroke-linejoin="round" stroke="rgb(0%, 0%, 0%)" stroke-opacity="1" stroke-miterlimit="10" d="M 1226.710193 785.53841 L 1226.710193 785.53841 " transform="matrix(0.0995867, 0, 0, -0.0995867, -0.000000000000004441, 149.850299)"/>
<path fill="none" stroke-width="5" stroke-linecap="round" stroke-linejoin="round" stroke="rgb(100%, 0%, 0%)" stroke-opacity="1" stroke-miterlimit="10" d="M 1848.773151 104.756223 L 656.972853 939.063501 " transform="matrix(0.0995867, 0, 0, -0.0995867, -0.000000000000004441, 149.850299)"/>
<path fill="none" stroke-width="78.0652" stroke-linecap="round" stroke-linejoin="round" stroke="rgb(0%, 0%, 0%)" stroke-opacity="1" stroke-miterlimit="10" d="M 656.972853 939.063501 L 656.972853 939.063501 " transform="matrix(0.0995867, 0, 0, -0.0995867, -0.000000000000004441, 149.850299)"/>
<path fill="none" stroke-width="78.0652" stroke-linecap="round" stroke-linejoin="round" stroke="rgb(100%, 0%, 0%)" stroke-opacity="1" stroke-miterlimit="10" d="M 947.901724 735.370144 L 947.901724 735.370144 " transform="matrix(0.0995867, 0, 0, -0.0995867, -0.000000000000004441, 149.850299)"/>
<path fill="none" stroke-width="19.5163" stroke-linecap="round" stroke-linejoin="round" stroke="rgb(0%, 0%, 0%)" stroke-opacity="1" stroke-miterlimit="10" d="M 1848.773151 104.756223 L 55.110565 574.666951 " transform="matrix(0.0995867, 0, 0, -0.0995867, -0.000000000000004441, 149.850299)"/>
<path fill="none" stroke-width="19.5163" stroke-linecap="round" stroke-linejoin="round" stroke="rgb(0%, 0%, 0%)" stroke-opacity="1" stroke-miterlimit="10" d="M 1848.773151 104.756223 L 1037.726062 1331.231068 " transform="matrix(0.0995867, 0, 0, -0.0995867, -0.000000000000004441, 149.850299)"/>
<path fill="none" stroke-width="19.5163" stroke-linecap="round" stroke-linejoin="round" stroke="rgb(0%, 0%, 0%)" stroke-opacity="1" stroke-miterlimit="10" d="M 1037.726062 1331.231068 L 55.110565 574.666951 " transform="matrix(0.0995867, 0, 0, -0.0995867, -0.000000000000004441, 149.850299)"/>
<path fill="none" stroke-width="78.0652" stroke-linecap="round" stroke-linejoin="round" stroke="rgb(0%, 0%, 0%)" stroke-opacity="1" stroke-miterlimit="10" d="M 987.440122 658.411476 L 987.440122 658.411476 " transform="matrix(0.0995867, 0, 0, -0.0995867, -0.000000000000004441, 149.850299)"/>
</svg>
