<?xml version="1.0" encoding="UTF-8"?>
<svg xmlns="http://www.w3.org/2000/svg" xmlns:xlink="http://www.w3.org/1999/xlink" width="230.38" height="109.69" viewBox="0 0 230.38 109.69">
<path fill="none" stroke-width="5" stroke-linecap="round" stroke-linejoin="round" stroke="rgb(100%, 0%, 0%)" stroke-opacity="1" stroke-miterlimit="10" d="M 693.400692 548.440278 C 693.400692 612.527137 641.418258 664.50957 577.3314 664.50957 C 513.205369 664.50957 461.262108 612.527137 461.262108 548.440278 C 461.262108 484.314247 513.205369 432.370986 577.3314 432.370986 C 641.418258 432.370986 693.400692 484.314247 693.400692 548.440278 C 693.400692 552.318395 693.204827 556.157339 692.813098 560.035456 " transform="matrix(0.0997182, 0, 0, -0.0997182, 0.0155, 109.380874)"/>
<path fill="none" stroke-width="5" stroke-linecap="round" stroke-linejoin="round" stroke="rgb(0%, 0%, 0%)" stroke-opacity="1" stroke-miterlimit="10" d="M 704.995869 709.284191 C 704.995869 728.47891 689.405056 744.069723 670.171164 744.069723 C 650.937272 744.069723 635.346459 728.47891 635.346459 709.284191 C 635.346459 690.050299 650.937272 674.459486 670.171164 674.459486 C 689.405056 674.459486 704.995869 690.050299 704.995869 709.284191 C 704.995869 710.420205 704.956696 711.595392 704.839177 712.731406 " transform="matrix(0.0997182, 0, 0, -0.0997182, 0.0155, 109.380874)"/>
<path fill="none" stroke-width="5" stroke-linecap="round" stroke-linejoin="round" stroke="rgb(0%, 0%, 0%)" stroke-opacity="1" stroke-miterlimit="10" d="M 519.277167 709.284191 C 519.277167 728.47891 503.686355 744.069723 484.452463 744.069723 C 465.218571 744.069723 449.627758 728.47891 449.627758 709.284191 C 449.627758 690.050299 465.218571 674.459486 484.452463 674.459486 C 503.686355 674.459486 519.277167 690.050299 519.277167 709.284191 C 519.277167 710.420205 519.237995 711.595392 519.120476 712.731406 " transform="matrix(0.0997182, 0, 0, -0.0997182, 0.0155, 109.380874)"/>
<path fill="none" stroke-width="5" stroke-linecap="round" stroke-linejoin="round" stroke="rgb(0%, 0%, 0%)" stroke-opacity="1" stroke-miterlimit="10" d="M 426.437403 548.440278 C 426.437403 567.67417 410.84659 583.264983 391.612698 583.264983 C 372.378806 583.264983 356.787993 567.67417 356.787993 548.440278 C 356.787993 529.206386 372.378806 513.615573 391.612698 513.615573 C 410.84659 513.615573 426.437403 529.206386 426.437403 548.440278 C 426.437403 549.576292 426.359057 550.751479 426.241539 551.926666 " transform="matrix(0.0997182, 0, 0, -0.0997182, 0.0155, 109.380874)"/>
<path fill="none" stroke-width="5" stroke-linecap="round" stroke-linejoin="round" stroke="rgb(0%, 0%, 0%)" stroke-opacity="1" stroke-miterlimit="10" d="M 519.277167 387.596366 C 519.277167 406.830258 503.686355 422.421071 484.452463 422.421071 C 465.218571 422.421071 449.627758 406.830258 449.627758 387.596366 C 449.627758 368.362474 465.218571 352.771661 484.452463 352.771661 C 503.686355 352.771661 519.277167 368.362474 519.277167 387.596366 C 519.277167 388.771553 519.237995 389.907567 519.120476 391.082754 " transform="matrix(0.0997182, 0, 0, -0.0997182, 0.0155, 109.380874)"/>
<path fill="none" stroke-width="5" stroke-linecap="round" stroke-linejoin="round" stroke="rgb(0%, 0%, 0%)" stroke-opacity="1" stroke-miterlimit="10" d="M 704.995869 387.596366 C 704.995869 406.830258 689.405056 422.421071 670.171164 422.421071 C 650.937272 422.421071 635.346459 406.830258 635.346459 387.596366 C 635.346459 368.362474 650.937272 352.771661 670.171164 352.771661 C 689.405056 352.771661 704.995869 368.362474 704.995869 387.596366 C 704.995869 388.771553 704.956696 389.907567 704.839177 391.082754 " transform="matrix(0.0997182, 0, 0, -0.0997182, 0.0155, 109.380874)"/>
<path fill="none" stroke-width="5" stroke-linecap="round" stroke-linejoin="round" stroke="rgb(0%, 0%, 0%)" stroke-opacity="1" stroke-miterlimit="10" d="M 797.835633 548.440278 C 797.835633 567.67417 782.283994 583.264983 763.050101 583.264983 C 743.816209 583.264983 728.225397 567.67417 728.225397 548.440278 C 728.225397 529.206386 743.816209 513.615573 763.050101 513.615573 C 782.283994 513.615573 797.835633 529.206386 797.835633 548.440278 C 797.835633 549.576292 797.79646 550.751479 797.678942 551.926666 " transform="matrix(0.0997182, 0, 0, -0.0997182, 0.0155, 109.380874)"/>
<path fill="none" stroke-width="5" stroke-linecap="round" stroke-linejoin="round" stroke="rgb(100%, 0%, 0%)" stroke-opacity="1" stroke-miterlimit="10" d="M 1842.498433 548.440278 C 1842.498433 612.527137 1790.516 664.50957 1726.429141 664.50957 C 1662.342283 664.50957 1610.359849 612.527137 1610.359849 548.440278 C 1610.359849 484.314247 1662.342283 432.370986 1726.429141 432.370986 C 1790.516 432.370986 1842.498433 484.314247 1842.498433 548.440278 C 1842.498433 552.318395 1842.302569 556.157339 1841.91084 560.035456 " transform="matrix(0.0997182, 0, 0, -0.0997182, 0.0155, 109.380874)"/>
<path fill="none" stroke-width="5" stroke-linecap="round" stroke-linejoin="round" stroke="rgb(0%, 0%, 0%)" stroke-opacity="1" stroke-miterlimit="10" d="M 2039.812312 849.993234 C 2039.812312 926.928803 1977.449061 989.292054 1900.552665 989.292054 C 1823.617097 989.292054 1761.253846 926.928803 1761.253846 849.993234 C 1761.253846 773.096839 1823.617097 710.733588 1900.552665 710.733588 C 1977.449061 710.733588 2039.812312 773.096839 2039.812312 849.993234 C 2039.812312 854.654809 2039.577275 859.277211 2039.146373 863.899613 " transform="matrix(0.0997182, 0, 0, -0.0997182, 0.0155, 109.380874)"/>
<path fill="none" stroke-width="5" stroke-linecap="round" stroke-linejoin="round" stroke="rgb(0%, 0%, 0%)" stroke-opacity="1" stroke-miterlimit="10" d="M 1691.604436 849.993234 C 1691.604436 926.928803 1629.241185 989.292054 1552.305617 989.292054 C 1475.409221 989.292054 1413.04597 926.928803 1413.04597 849.993234 C 1413.04597 773.096839 1475.409221 710.733588 1552.305617 710.733588 C 1629.241185 710.733588 1691.604436 773.096839 1691.604436 849.993234 C 1691.604436 854.654809 1691.369399 859.277211 1690.899324 863.899613 " transform="matrix(0.0997182, 0, 0, -0.0997182, 0.0155, 109.380874)"/>
<path fill="none" stroke-width="5" stroke-linecap="round" stroke-linejoin="round" stroke="rgb(0%, 0%, 0%)" stroke-opacity="1" stroke-miterlimit="10" d="M 1517.480912 548.440278 C 1517.480912 625.336674 1455.156834 687.699925 1378.221266 687.699925 C 1301.285697 687.699925 1238.922446 625.336674 1238.922446 548.440278 C 1238.922446 471.50471 1301.285697 409.141459 1378.221266 409.141459 C 1455.156834 409.141459 1517.480912 471.50471 1517.480912 548.440278 C 1517.480912 553.06268 1517.285048 557.724255 1516.814973 562.346656 " transform="matrix(0.0997182, 0, 0, -0.0997182, 0.0155, 109.380874)"/>
<path fill="none" stroke-width="5" stroke-linecap="round" stroke-linejoin="round" stroke="rgb(0%, 0%, 0%)" stroke-opacity="1" stroke-miterlimit="10" d="M 1691.604436 246.848149 C 1691.604436 323.783718 1629.241185 386.146969 1552.305617 386.146969 C 1475.409221 386.146969 1413.04597 323.783718 1413.04597 246.848149 C 1413.04597 169.951754 1475.409221 107.588503 1552.305617 107.588503 C 1629.241185 107.588503 1691.604436 169.951754 1691.604436 246.848149 C 1691.604436 251.509724 1691.369399 256.171299 1690.899324 260.754528 " transform="matrix(0.0997182, 0, 0, -0.0997182, 0.0155, 109.380874)"/>
<path fill="none" stroke-width="5" stroke-linecap="round" stroke-linejoin="round" stroke="rgb(0%, 0%, 0%)" stroke-opacity="1" stroke-miterlimit="10" d="M 2039.812312 246.848149 C 2039.812312 323.783718 1977.449061 386.146969 1900.552665 386.146969 C 1823.617097 386.146969 1761.253846 323.783718 1761.253846 246.848149 C 1761.253846 169.951754 1823.617097 107.588503 1900.552665 107.588503 C 1977.449061 107.588503 2039.812312 169.951754 2039.812312 246.848149 C 2039.812312 251.509724 2039.577275 256.171299 2039.146373 260.754528 " transform="matrix(0.0997182, 0, 0, -0.0997182, 0.0155, 109.380874)"/>
<path fill="none" stroke-width="5" stroke-linecap="round" stroke-linejoin="round" stroke="rgb(0%, 0%, 0%)" stroke-opacity="1" stroke-miterlimit="10" d="M 2213.935836 548.440278 C 2213.935836 625.336674 2151.572585 687.699925 2074.637017 687.699925 C 1997.701448 687.699925 1935.37737 625.336674 1935.37737 548.440278 C 1935.37737 471.50471 1997.701448 409.141459 2074.637017 409.141459 C 2151.572585 409.141459 2213.935836 471.50471 2213.935836 548.440278 C 2213.935836 553.06268 2213.700799 557.724255 2213.230724 562.346656 " transform="matrix(0.0997182, 0, 0, -0.0997182, 0.0155, 109.380874)"/>
</svg>
