<?xml version="1.0" encoding="UTF-8"?>
<svg xmlns="http://www.w3.org/2000/svg" xmlns:xlink="http://www.w3.org/1999/xlink" width="255" height="79" viewBox="0 0 255 79">
<path fill-rule="evenodd" fill="rgb(100%, 100%, 100%)" fill-opacity="1" d="M 14.675781 46 L 2 77 L 253 77 L 240.324219 46 L 14.675781 46 "/>
<path fill="none" stroke-width="10" stroke-linecap="butt" stroke-linejoin="miter" stroke="rgb(0%, 0%, 0%)" stroke-opacity="1" stroke-miterlimit="4" d="M 146.757812 330 L 20 20 L 2530 20 L 2403.242188 330 Z M 146.757812 330 " transform="matrix(0.1, 0, 0, -0.1, 0, 79)"/>
<path fill-rule="evenodd" fill="rgb(100%, 100%, 100%)" fill-opacity="1" stroke-width="10" stroke-linecap="butt" stroke-linejoin="miter" stroke="rgb(0%, 0%, 0%)" stroke-opacity="1" stroke-miterlimit="4" d="M 850.9375 148.710938 C 851.992188 147.070312 852.5 145.429688 852.5 143.75 C 852.5 116.992188 718.203125 95 555 95 C 391.796875 95 257.5 116.992188 257.5 143.75 C 257.5 145.429688 258.007812 147.070312 259.0625 148.710938 " transform="matrix(0.1, 0, 0, -0.1, 0, 79)"/>
<path fill-rule="evenodd" fill="rgb(100%, 100%, 100%)" fill-opacity="1" d="M 25.5 65 L 85.25 65 L 85.25 56 L 25.5 56 Z M 25.5 65 "/>
<path fill="none" stroke-width="10" stroke-linecap="butt" stroke-linejoin="miter" stroke="rgb(0%, 0%, 0%)" stroke-opacity="1" stroke-miterlimit="4" d="M 255 140 L 255 230 L 852.5 230 L 852.5 140 " transform="matrix(0.1, 0, 0, -0.1, 0, 79)"/>
<path fill-rule="evenodd" fill="rgb(0%, 0%, 0%)" fill-opacity="1" d="M 85.25 56.125 C 85.25 58.800781 71.820312 61 55.5 61 C 39.179688 61 25.75 58.800781 25.75 56.125 C 25.75 53.449219 39.179688 51.25 55.5 51.25 C 71.820312 51.25 85.25 53.449219 85.25 56.125 "/>
<path fill="none" stroke-width="10" stroke-linecap="butt" stroke-linejoin="miter" stroke="rgb(0%, 0%, 0%)" stroke-opacity="1" stroke-miterlimit="4" d="M 852.5 228.75 C 852.5 201.992188 718.203125 180 555 180 C 391.796875 180 257.5 201.992188 257.5 228.75 C 257.5 255.507812 391.796875 277.5 555 277.5 C 718.203125 277.5 852.5 255.507812 852.5 228.75 Z M 852.5 228.75 " transform="matrix(0.1, 0, 0, -0.1, 0, 79)"/>
<path fill-rule="evenodd" fill="rgb(100%, 100%, 100%)" fill-opacity="1" stroke-width="10" stroke-linecap="butt" stroke-linejoin="miter" stroke="rgb(0%, 0%, 0%)" stroke-opacity="1" stroke-miterlimit="4" d="M 786.757812 266.210938 C 787.578125 264.570312 788.007812 262.929688 788.007812 261.25 C 788.007812 234.492188 680.546875 212.5 550 212.5 C 419.453125 212.5 311.992188 234.492188 311.992188 261.25 C 311.992188 262.929688 312.421875 264.570312 313.242188 266.210938 " transform="matrix(0.1, 0, 0, -0.1, 0, 79)"/>
<path fill-rule="evenodd" fill="rgb(100%, 100%, 100%)" fill-opacity="1" d="M 31 53.25 L 78.800781 53.25 L 78.800781 44.25 L 31 44.25 Z M 31 53.25 "/>
<path fill="none" stroke-width="10" stroke-linecap="butt" stroke-linejoin="miter" stroke="rgb(0%, 0%, 0%)" stroke-opacity="1" stroke-miterlimit="4" d="M 310 257.5 L 310 347.5 L 788.007812 347.5 L 788.007812 257.5 " transform="matrix(0.1, 0, 0, -0.1, 0, 79)"/>
<path fill-rule="evenodd" fill="rgb(0%, 0%, 0%)" fill-opacity="1" d="M 78.800781 44.375 C 78.800781 47.050781 68.054688 49.25 55 49.25 C 41.945312 49.25 31.199219 47.050781 31.199219 44.375 C 31.199219 41.699219 41.945312 39.5 55 39.5 C 68.054688 39.5 78.800781 41.699219 78.800781 44.375 "/>
<path fill="none" stroke-width="10" stroke-linecap="butt" stroke-linejoin="miter" stroke="rgb(0%, 0%, 0%)" stroke-opacity="1" stroke-miterlimit="4" d="M 788.007812 346.25 C 788.007812 319.492188 680.546875 297.5 550 297.5 C 419.453125 297.5 311.992188 319.492188 311.992188 346.25 C 311.992188 373.007812 419.453125 395 550 395 C 680.546875 395 788.007812 373.007812 788.007812 346.25 Z M 788.007812 346.25 " transform="matrix(0.1, 0, 0, -0.1, 0, 79)"/>
<path fill-rule="evenodd" fill="rgb(100%, 100%, 100%)" fill-opacity="1" stroke-width="10" stroke-linecap="butt" stroke-linejoin="miter" stroke="rgb(0%, 0%, 0%)" stroke-opacity="1" stroke-miterlimit="4" d="M 722.578125 386.210938 C 723.203125 384.570312 723.515625 382.929688 723.515625 381.25 C 723.515625 354.492188 642.929688 332.5 545 332.5 C 447.070312 332.5 366.484375 354.492188 366.484375 381.25 C 366.484375 382.929688 366.796875 384.570312 367.421875 386.210938 " transform="matrix(0.1, 0, 0, -0.1, 0, 79)"/>
<path fill-rule="evenodd" fill="rgb(100%, 100%, 100%)" fill-opacity="1" d="M 36.5 41.25 L 72.351562 41.25 L 72.351562 32.25 L 36.5 32.25 Z M 36.5 41.25 "/>
<path fill="none" stroke-width="10" stroke-linecap="butt" stroke-linejoin="miter" stroke="rgb(0%, 0%, 0%)" stroke-opacity="1" stroke-miterlimit="4" d="M 365 377.5 L 365 467.5 L 723.515625 467.5 L 723.515625 377.5 " transform="matrix(0.1, 0, 0, -0.1, 0, 79)"/>
<path fill-rule="evenodd" fill="rgb(0%, 0%, 0%)" fill-opacity="1" d="M 72.351562 32.375 C 72.351562 35.050781 64.292969 37.25 54.5 37.25 C 44.707031 37.25 36.648438 35.050781 36.648438 32.375 C 36.648438 29.699219 44.707031 27.5 54.5 27.5 C 64.292969 27.5 72.351562 29.699219 72.351562 32.375 "/>
<path fill="none" stroke-width="10" stroke-linecap="butt" stroke-linejoin="miter" stroke="rgb(0%, 0%, 0%)" stroke-opacity="1" stroke-miterlimit="4" d="M 723.515625 466.25 C 723.515625 439.492188 642.929688 417.5 545 417.5 C 447.070312 417.5 366.484375 439.492188 366.484375 466.25 C 366.484375 493.007812 447.070312 515 545 515 C 642.929688 515 723.515625 493.007812 723.515625 466.25 Z M 723.515625 466.25 " transform="matrix(0.1, 0, 0, -0.1, 0, 79)"/>
<path fill-rule="evenodd" fill="rgb(100%, 100%, 100%)" fill-opacity="1" stroke-width="10" stroke-linecap="butt" stroke-linejoin="miter" stroke="rgb(0%, 0%, 0%)" stroke-opacity="1" stroke-miterlimit="4" d="M 658.398438 501.210938 C 658.789062 499.570312 658.984375 497.929688 658.984375 496.25 C 658.984375 469.492188 605.273438 447.5 540 447.5 C 474.726562 447.5 421.015625 469.492188 421.015625 496.25 C 421.015625 497.929688 421.210938 499.570312 421.601562 501.210938 " transform="matrix(0.1, 0, 0, -0.1, 0, 79)"/>
<path fill-rule="evenodd" fill="rgb(100%, 100%, 100%)" fill-opacity="1" d="M 42 29.75 L 65.898438 29.75 L 65.898438 20.75 L 42 20.75 Z M 42 29.75 "/>
<path fill="none" stroke-width="10" stroke-linecap="butt" stroke-linejoin="miter" stroke="rgb(0%, 0%, 0%)" stroke-opacity="1" stroke-miterlimit="4" d="M 420 492.5 L 420 582.5 L 658.984375 582.5 L 658.984375 492.5 " transform="matrix(0.1, 0, 0, -0.1, 0, 79)"/>
<path fill-rule="evenodd" fill="rgb(0%, 0%, 0%)" fill-opacity="1" d="M 65.898438 20.875 C 65.898438 23.550781 60.527344 25.75 54 25.75 C 47.472656 25.75 42.101562 23.550781 42.101562 20.875 C 42.101562 18.199219 47.472656 16 54 16 C 60.527344 16 65.898438 18.199219 65.898438 20.875 "/>
<path fill="none" stroke-width="10" stroke-linecap="butt" stroke-linejoin="miter" stroke="rgb(0%, 0%, 0%)" stroke-opacity="1" stroke-miterlimit="4" d="M 658.984375 581.25 C 658.984375 554.492188 605.273438 532.5 540 532.5 C 474.726562 532.5 421.015625 554.492188 421.015625 581.25 C 421.015625 608.007812 474.726562 630 540 630 C 605.273438 630 658.984375 608.007812 658.984375 581.25 Z M 658.984375 581.25 " transform="matrix(0.1, 0, 0, -0.1, 0, 79)"/>
<path fill-rule="evenodd" fill="rgb(50%, 50%, 50%)" fill-opacity="1" d="M 52 1.5 L 56 1.5 L 56 20.5 L 52 20.5 L 52 1.5 "/>
<path fill="none" stroke-width="10" stroke-linecap="butt" stroke-linejoin="miter" stroke="rgb(0%, 0%, 0%)" stroke-opacity="1" stroke-miterlimit="4" d="M 520 775 L 560 775 L 560 585 L 520 585 Z M 520 775 " transform="matrix(0.1, 0, 0, -0.1, 0, 79)"/>
<path fill-rule="evenodd" fill="rgb(50%, 50%, 50%)" fill-opacity="1" d="M 122.5 1.5 L 126.5 1.5 L 126.5 63.5 L 122.5 63.5 L 122.5 1.5 "/>
<path fill="none" stroke-width="10" stroke-linecap="butt" stroke-linejoin="miter" stroke="rgb(0%, 0%, 0%)" stroke-opacity="1" stroke-miterlimit="4" d="M 1225 775 L 1265 775 L 1265 155 L 1225 155 Z M 1225 775 " transform="matrix(0.1, 0, 0, -0.1, 0, 79)"/>
<path fill-rule="evenodd" fill="rgb(50%, 50%, 50%)" fill-opacity="1" d="M 193 1.5 L 197 1.5 L 197 63.5 L 193 63.5 L 193 1.5 "/>
<path fill="none" stroke-width="10" stroke-linecap="butt" stroke-linejoin="miter" stroke="rgb(0%, 0%, 0%)" stroke-opacity="1" stroke-miterlimit="4" d="M 1930 775 L 1970 775 L 1970 155 L 1930 155 Z M 1930 775 " transform="matrix(0.1, 0, 0, -0.1, 0, 79)"/>
</svg>
