<?xml version="1.0" encoding="UTF-8"?>
<svg xmlns="http://www.w3.org/2000/svg" xmlns:xlink="http://www.w3.org/1999/xlink" width="400" height="324.87" viewBox="0 0 400 324.87">
<defs>
<clipPath id="clip-0">
<path clip-rule="nonzero" d="M 9.632812 309 L 74 309 L 74 314 L 9.632812 314 Z M 9.632812 309 "/>
</clipPath>
<clipPath id="clip-1">
<path clip-rule="nonzero" d="M 209.066406 309 L 274 309 L 274 314 L 209.066406 314 Z M 209.066406 309 "/>
</clipPath>
<clipPath id="clip-2">
<path clip-rule="nonzero" d="M 9.632812 270 L 74 270 L 74 275 L 9.632812 275 Z M 9.632812 270 "/>
</clipPath>
<clipPath id="clip-3">
<path clip-rule="nonzero" d="M 209.066406 270 L 274 270 L 274 275 L 209.066406 275 Z M 209.066406 270 "/>
</clipPath>
<clipPath id="clip-4">
<path clip-rule="nonzero" d="M 9.632812 231 L 74 231 L 74 236 L 9.632812 236 Z M 9.632812 231 "/>
</clipPath>
<clipPath id="clip-5">
<path clip-rule="nonzero" d="M 209.066406 231 L 274 231 L 274 236 L 209.066406 236 Z M 209.066406 231 "/>
</clipPath>
<clipPath id="clip-6">
<path clip-rule="nonzero" d="M 9.632812 192 L 74 192 L 74 197 L 9.632812 197 Z M 9.632812 192 "/>
</clipPath>
<clipPath id="clip-7">
<path clip-rule="nonzero" d="M 209.066406 192 L 274 192 L 274 197 L 209.066406 197 Z M 209.066406 192 "/>
</clipPath>
<clipPath id="clip-8">
<path clip-rule="nonzero" d="M 9.632812 153 L 74 153 L 74 158 L 9.632812 158 Z M 9.632812 153 "/>
</clipPath>
<clipPath id="clip-9">
<path clip-rule="nonzero" d="M 209.066406 153 L 274 153 L 274 158 L 209.066406 158 Z M 209.066406 153 "/>
</clipPath>
<clipPath id="clip-10">
<path clip-rule="nonzero" d="M 9.632812 114 L 74 114 L 74 118 L 9.632812 118 Z M 9.632812 114 "/>
</clipPath>
<clipPath id="clip-11">
<path clip-rule="nonzero" d="M 209.066406 114 L 274 114 L 274 118 L 209.066406 118 Z M 209.066406 114 "/>
</clipPath>
<clipPath id="clip-12">
<path clip-rule="nonzero" d="M 9.632812 75 L 74 75 L 74 79 L 9.632812 79 Z M 9.632812 75 "/>
</clipPath>
<clipPath id="clip-13">
<path clip-rule="nonzero" d="M 209.066406 75 L 274 75 L 274 79 L 209.066406 79 Z M 209.066406 75 "/>
</clipPath>
<clipPath id="clip-14">
<path clip-rule="nonzero" d="M 9.632812 36 L 74 36 L 74 40 L 9.632812 40 Z M 9.632812 36 "/>
</clipPath>
<clipPath id="clip-15">
<path clip-rule="nonzero" d="M 209.066406 36 L 274 36 L 274 40 L 209.066406 40 Z M 209.066406 36 "/>
</clipPath>
</defs>
<path fill-rule="nonzero" fill="rgb(100%, 0%, 0%)" fill-opacity="1" d="M 40.203125 309.898438 L 43.046875 309.898438 L 43.046875 292.125 L 40.203125 292.125 Z M 40.203125 309.898438 "/>
<path fill-rule="nonzero" fill="rgb(0%, 0%, 0%)" fill-opacity="1" d="M 13.1875 309.898438 L 70.066406 309.898438 L 70.066406 306.34375 L 13.1875 306.34375 Z M 13.1875 309.898438 "/>
<g clip-path="url(#clip-0)">
<path fill-rule="nonzero" fill="rgb(95.701599%, 64.256287%, 37.693787%)" fill-opacity="1" d="M 9.632812 313.453125 L 73.621094 313.453125 L 73.621094 309.898438 L 9.632812 309.898438 Z M 9.632812 313.453125 "/>
</g>
<path fill-rule="nonzero" fill="rgb(100%, 0%, 0%)" fill-opacity="1" d="M 97.082031 309.898438 L 99.925781 309.898438 L 99.925781 292.125 L 97.082031 292.125 Z M 97.082031 309.898438 "/>
<path fill-rule="nonzero" fill="rgb(0%, 0%, 0%)" fill-opacity="1" d="M 77.175781 309.898438 L 119.835938 309.898438 L 119.835938 306.34375 L 77.175781 306.34375 Z M 77.175781 309.898438 "/>
<path fill-rule="nonzero" fill="rgb(0%, 0%, 0%)" fill-opacity="1" d="M 84.285156 306.34375 L 112.726562 306.34375 L 112.726562 302.789062 L 84.285156 302.789062 Z M 84.285156 306.34375 "/>
<path fill-rule="nonzero" fill="rgb(0%, 0%, 0%)" fill-opacity="1" d="M 91.394531 302.789062 L 105.613281 302.789062 L 105.613281 299.234375 L 91.394531 299.234375 Z M 91.394531 302.789062 "/>
<path fill-rule="nonzero" fill="rgb(95.701599%, 64.256287%, 37.693787%)" fill-opacity="1" d="M 66.511719 313.453125 L 130.5 313.453125 L 130.5 309.898438 L 66.511719 309.898438 Z M 66.511719 313.453125 "/>
<path fill-rule="nonzero" fill="rgb(100%, 0%, 0%)" fill-opacity="1" d="M 153.964844 309.898438 L 156.804688 309.898438 L 156.804688 292.125 L 153.964844 292.125 Z M 153.964844 309.898438 "/>
<path fill-rule="nonzero" fill="rgb(95.701599%, 64.256287%, 37.693787%)" fill-opacity="1" d="M 123.390625 313.453125 L 187.378906 313.453125 L 187.378906 309.898438 L 123.390625 309.898438 Z M 123.390625 313.453125 "/>
<path fill-rule="nonzero" fill="rgb(100%, 0%, 0%)" fill-opacity="1" d="M 239.636719 309.898438 L 242.480469 309.898438 L 242.480469 292.125 L 239.636719 292.125 Z M 239.636719 309.898438 "/>
<g clip-path="url(#clip-1)">
<path fill-rule="nonzero" fill="rgb(95.701599%, 64.256287%, 37.693787%)" fill-opacity="1" d="M 209.066406 313.453125 L 273.054688 313.453125 L 273.054688 309.898438 L 209.066406 309.898438 Z M 209.066406 313.453125 "/>
</g>
<path fill-rule="nonzero" fill="rgb(100%, 0%, 0%)" fill-opacity="1" d="M 296.515625 309.898438 L 299.363281 309.898438 L 299.363281 292.125 L 296.515625 292.125 Z M 296.515625 309.898438 "/>
<path fill-rule="nonzero" fill="rgb(95.701599%, 64.256287%, 37.693787%)" fill-opacity="1" d="M 265.945312 313.453125 L 329.933594 313.453125 L 329.933594 309.898438 L 265.945312 309.898438 Z M 265.945312 313.453125 "/>
<path fill-rule="nonzero" fill="rgb(100%, 0%, 0%)" fill-opacity="1" d="M 353.398438 309.898438 L 356.242188 309.898438 L 356.242188 292.125 L 353.398438 292.125 Z M 353.398438 309.898438 "/>
<path fill-rule="nonzero" fill="rgb(0%, 0%, 0%)" fill-opacity="1" d="M 326.378906 309.898438 L 383.257812 309.898438 L 383.257812 306.34375 L 326.378906 306.34375 Z M 326.378906 309.898438 "/>
<path fill-rule="nonzero" fill="rgb(0%, 0%, 0%)" fill-opacity="1" d="M 333.488281 306.34375 L 376.148438 306.34375 L 376.148438 302.789062 L 333.488281 302.789062 Z M 333.488281 306.34375 "/>
<path fill-rule="nonzero" fill="rgb(0%, 0%, 0%)" fill-opacity="1" d="M 340.597656 302.789062 L 369.039062 302.789062 L 369.039062 299.234375 L 340.597656 299.234375 Z M 340.597656 302.789062 "/>
<path fill-rule="nonzero" fill="rgb(0%, 0%, 0%)" fill-opacity="1" d="M 347.710938 299.234375 L 361.929688 299.234375 L 361.929688 295.675781 L 347.710938 295.675781 Z M 347.710938 299.234375 "/>
<path fill-rule="nonzero" fill="rgb(95.701599%, 64.256287%, 37.693787%)" fill-opacity="1" d="M 322.824219 313.453125 L 386.8125 313.453125 L 386.8125 309.898438 L 322.824219 309.898438 Z M 322.824219 313.453125 "/>
<path fill-rule="nonzero" fill="rgb(100%, 0%, 0%)" fill-opacity="1" d="M 40.203125 270.792969 L 43.046875 270.792969 L 43.046875 253.019531 L 40.203125 253.019531 Z M 40.203125 270.792969 "/>
<path fill-rule="nonzero" fill="rgb(0%, 0%, 0%)" fill-opacity="1" d="M 13.1875 270.792969 L 70.066406 270.792969 L 70.066406 267.238281 L 13.1875 267.238281 Z M 13.1875 270.792969 "/>
<path fill-rule="nonzero" fill="rgb(0%, 0%, 0%)" fill-opacity="1" d="M 34.515625 267.238281 L 48.738281 267.238281 L 48.738281 263.683594 L 34.515625 263.683594 Z M 34.515625 267.238281 "/>
<g clip-path="url(#clip-2)">
<path fill-rule="nonzero" fill="rgb(95.701599%, 64.256287%, 37.693787%)" fill-opacity="1" d="M 9.632812 274.347656 L 73.621094 274.347656 L 73.621094 270.792969 L 9.632812 270.792969 Z M 9.632812 274.347656 "/>
</g>
<path fill-rule="nonzero" fill="rgb(100%, 0%, 0%)" fill-opacity="1" d="M 97.082031 270.792969 L 99.925781 270.792969 L 99.925781 253.019531 L 97.082031 253.019531 Z M 97.082031 270.792969 "/>
<path fill-rule="nonzero" fill="rgb(0%, 0%, 0%)" fill-opacity="1" d="M 77.175781 270.792969 L 119.835938 270.792969 L 119.835938 267.238281 L 77.175781 267.238281 Z M 77.175781 270.792969 "/>
<path fill-rule="nonzero" fill="rgb(0%, 0%, 0%)" fill-opacity="1" d="M 84.285156 267.238281 L 112.726562 267.238281 L 112.726562 263.683594 L 84.285156 263.683594 Z M 84.285156 267.238281 "/>
<path fill-rule="nonzero" fill="rgb(95.701599%, 64.256287%, 37.693787%)" fill-opacity="1" d="M 66.511719 274.347656 L 130.5 274.347656 L 130.5 270.792969 L 66.511719 270.792969 Z M 66.511719 274.347656 "/>
<path fill-rule="nonzero" fill="rgb(100%, 0%, 0%)" fill-opacity="1" d="M 153.960938 270.792969 L 156.804688 270.792969 L 156.804688 253.019531 L 153.960938 253.019531 Z M 153.960938 270.792969 "/>
<path fill-rule="nonzero" fill="rgb(95.701599%, 64.256287%, 37.693787%)" fill-opacity="1" d="M 123.390625 274.347656 L 187.378906 274.347656 L 187.378906 270.792969 L 123.390625 270.792969 Z M 123.390625 274.347656 "/>
<path fill-rule="nonzero" fill="rgb(100%, 0%, 0%)" fill-opacity="1" d="M 239.640625 270.792969 L 242.480469 270.792969 L 242.480469 253.019531 L 239.640625 253.019531 Z M 239.640625 270.792969 "/>
<g clip-path="url(#clip-3)">
<path fill-rule="nonzero" fill="rgb(95.701599%, 64.256287%, 37.693787%)" fill-opacity="1" d="M 209.066406 274.347656 L 273.054688 274.347656 L 273.054688 270.792969 L 209.066406 270.792969 Z M 209.066406 274.347656 "/>
</g>
<path fill-rule="nonzero" fill="rgb(100%, 0%, 0%)" fill-opacity="1" d="M 296.515625 270.792969 L 299.363281 270.792969 L 299.363281 253.019531 L 296.515625 253.019531 Z M 296.515625 270.792969 "/>
<path fill-rule="nonzero" fill="rgb(0%, 0%, 0%)" fill-opacity="1" d="M 290.828125 270.792969 L 305.050781 270.792969 L 305.050781 267.238281 L 290.828125 267.238281 Z M 290.828125 270.792969 "/>
<path fill-rule="nonzero" fill="rgb(95.701599%, 64.256287%, 37.693787%)" fill-opacity="1" d="M 265.945312 274.347656 L 329.933594 274.347656 L 329.933594 270.792969 L 265.945312 270.792969 Z M 265.945312 274.347656 "/>
<path fill-rule="nonzero" fill="rgb(100%, 0%, 0%)" fill-opacity="1" d="M 353.398438 270.792969 L 356.238281 270.792969 L 356.238281 253.019531 L 353.398438 253.019531 Z M 353.398438 270.792969 "/>
<path fill-rule="nonzero" fill="rgb(0%, 0%, 0%)" fill-opacity="1" d="M 326.378906 270.792969 L 383.257812 270.792969 L 383.257812 267.238281 L 326.378906 267.238281 Z M 326.378906 270.792969 "/>
<path fill-rule="nonzero" fill="rgb(0%, 0%, 0%)" fill-opacity="1" d="M 333.488281 267.238281 L 376.148438 267.238281 L 376.148438 263.683594 L 333.488281 263.683594 Z M 333.488281 267.238281 "/>
<path fill-rule="nonzero" fill="rgb(0%, 0%, 0%)" fill-opacity="1" d="M 340.597656 263.683594 L 369.039062 263.683594 L 369.039062 260.128906 L 340.597656 260.128906 Z M 340.597656 263.683594 "/>
<path fill-rule="nonzero" fill="rgb(95.701599%, 64.256287%, 37.693787%)" fill-opacity="1" d="M 322.824219 274.347656 L 386.8125 274.347656 L 386.8125 270.792969 L 322.824219 270.792969 Z M 322.824219 274.347656 "/>
<path fill-rule="nonzero" fill="rgb(100%, 0%, 0%)" fill-opacity="1" d="M 40.203125 231.6875 L 43.046875 231.6875 L 43.046875 213.914062 L 40.203125 213.914062 Z M 40.203125 231.6875 "/>
<path fill-rule="nonzero" fill="rgb(0%, 0%, 0%)" fill-opacity="1" d="M 13.1875 231.6875 L 70.066406 231.6875 L 70.066406 228.132812 L 13.1875 228.132812 Z M 13.1875 231.6875 "/>
<path fill-rule="nonzero" fill="rgb(0%, 0%, 0%)" fill-opacity="1" d="M 34.515625 228.132812 L 48.738281 228.132812 L 48.738281 224.578125 L 34.515625 224.578125 Z M 34.515625 228.132812 "/>
<g clip-path="url(#clip-4)">
<path fill-rule="nonzero" fill="rgb(95.701599%, 64.256287%, 37.693787%)" fill-opacity="1" d="M 9.632812 235.242188 L 73.621094 235.242188 L 73.621094 231.6875 L 9.632812 231.6875 Z M 9.632812 235.242188 "/>
</g>
<path fill-rule="nonzero" fill="rgb(100%, 0%, 0%)" fill-opacity="1" d="M 97.082031 231.6875 L 99.925781 231.6875 L 99.925781 213.914062 L 97.082031 213.914062 Z M 97.082031 231.6875 "/>
<path fill-rule="nonzero" fill="rgb(0%, 0%, 0%)" fill-opacity="1" d="M 77.175781 231.6875 L 119.835938 231.6875 L 119.835938 228.132812 L 77.175781 228.132812 Z M 77.175781 231.6875 "/>
<path fill-rule="nonzero" fill="rgb(95.701599%, 64.256287%, 37.693787%)" fill-opacity="1" d="M 66.511719 235.242188 L 130.5 235.242188 L 130.5 231.6875 L 66.511719 231.6875 Z M 66.511719 235.242188 "/>
<path fill-rule="nonzero" fill="rgb(100%, 0%, 0%)" fill-opacity="1" d="M 153.960938 231.6875 L 156.804688 231.6875 L 156.804688 213.914062 L 153.960938 213.914062 Z M 153.960938 231.6875 "/>
<path fill-rule="nonzero" fill="rgb(0%, 0%, 0%)" fill-opacity="1" d="M 141.164062 231.6875 L 169.605469 231.6875 L 169.605469 228.132812 L 141.164062 228.132812 Z M 141.164062 231.6875 "/>
<path fill-rule="nonzero" fill="rgb(95.701599%, 64.256287%, 37.693787%)" fill-opacity="1" d="M 123.390625 235.242188 L 187.378906 235.242188 L 187.378906 231.6875 L 123.390625 231.6875 Z M 123.390625 235.242188 "/>
<path fill-rule="nonzero" fill="rgb(100%, 0%, 0%)" fill-opacity="1" d="M 239.640625 231.6875 L 242.480469 231.6875 L 242.480469 213.914062 L 239.640625 213.914062 Z M 239.640625 231.6875 "/>
<path fill-rule="nonzero" fill="rgb(0%, 0%, 0%)" fill-opacity="1" d="M 226.839844 231.6875 L 255.28125 231.6875 L 255.28125 228.132812 L 226.839844 228.132812 Z M 226.839844 231.6875 "/>
<g clip-path="url(#clip-5)">
<path fill-rule="nonzero" fill="rgb(95.701599%, 64.256287%, 37.693787%)" fill-opacity="1" d="M 209.066406 235.242188 L 273.054688 235.242188 L 273.054688 231.6875 L 209.066406 231.6875 Z M 209.066406 235.242188 "/>
</g>
<path fill-rule="nonzero" fill="rgb(100%, 0%, 0%)" fill-opacity="1" d="M 296.515625 231.6875 L 299.363281 231.6875 L 299.363281 213.914062 L 296.515625 213.914062 Z M 296.515625 231.6875 "/>
<path fill-rule="nonzero" fill="rgb(0%, 0%, 0%)" fill-opacity="1" d="M 290.828125 231.6875 L 305.050781 231.6875 L 305.050781 228.132812 L 290.828125 228.132812 Z M 290.828125 231.6875 "/>
<path fill-rule="nonzero" fill="rgb(95.701599%, 64.256287%, 37.693787%)" fill-opacity="1" d="M 265.945312 235.242188 L 329.933594 235.242188 L 329.933594 231.6875 L 265.945312 231.6875 Z M 265.945312 235.242188 "/>
<path fill-rule="nonzero" fill="rgb(100%, 0%, 0%)" fill-opacity="1" d="M 353.398438 231.6875 L 356.238281 231.6875 L 356.238281 213.914062 L 353.398438 213.914062 Z M 353.398438 231.6875 "/>
<path fill-rule="nonzero" fill="rgb(0%, 0%, 0%)" fill-opacity="1" d="M 326.378906 231.6875 L 383.257812 231.6875 L 383.257812 228.132812 L 326.378906 228.132812 Z M 326.378906 231.6875 "/>
<path fill-rule="nonzero" fill="rgb(0%, 0%, 0%)" fill-opacity="1" d="M 333.488281 228.132812 L 376.148438 228.132812 L 376.148438 224.578125 L 333.488281 224.578125 Z M 333.488281 228.132812 "/>
<path fill-rule="nonzero" fill="rgb(95.701599%, 64.256287%, 37.693787%)" fill-opacity="1" d="M 322.824219 235.242188 L 386.8125 235.242188 L 386.8125 231.6875 L 322.824219 231.6875 Z M 322.824219 235.242188 "/>
<path fill-rule="nonzero" fill="rgb(100%, 0%, 0%)" fill-opacity="1" d="M 40.203125 192.582031 L 43.046875 192.582031 L 43.046875 174.808594 L 40.203125 174.808594 Z M 40.203125 192.582031 "/>
<path fill-rule="nonzero" fill="rgb(0%, 0%, 0%)" fill-opacity="1" d="M 13.1875 192.582031 L 70.066406 192.582031 L 70.066406 189.027344 L 13.1875 189.027344 Z M 13.1875 192.582031 "/>
<g clip-path="url(#clip-6)">
<path fill-rule="nonzero" fill="rgb(95.701599%, 64.256287%, 37.693787%)" fill-opacity="1" d="M 9.632812 196.136719 L 73.621094 196.136719 L 73.621094 192.582031 L 9.632812 192.582031 Z M 9.632812 196.136719 "/>
</g>
<path fill-rule="nonzero" fill="rgb(100%, 0%, 0%)" fill-opacity="1" d="M 97.082031 192.582031 L 99.925781 192.582031 L 99.925781 174.808594 L 97.082031 174.808594 Z M 97.082031 192.582031 "/>
<path fill-rule="nonzero" fill="rgb(0%, 0%, 0%)" fill-opacity="1" d="M 77.175781 192.582031 L 119.835938 192.582031 L 119.835938 189.027344 L 77.175781 189.027344 Z M 77.175781 192.582031 "/>
<path fill-rule="nonzero" fill="rgb(95.701599%, 64.256287%, 37.693787%)" fill-opacity="1" d="M 66.511719 196.136719 L 130.5 196.136719 L 130.5 192.582031 L 66.511719 192.582031 Z M 66.511719 196.136719 "/>
<path fill-rule="nonzero" fill="rgb(100%, 0%, 0%)" fill-opacity="1" d="M 153.960938 192.582031 L 156.804688 192.582031 L 156.804688 174.808594 L 153.960938 174.808594 Z M 153.960938 192.582031 "/>
<path fill-rule="nonzero" fill="rgb(0%, 0%, 0%)" fill-opacity="1" d="M 141.164062 192.582031 L 169.605469 192.582031 L 169.605469 189.027344 L 141.164062 189.027344 Z M 141.164062 192.582031 "/>
<path fill-rule="nonzero" fill="rgb(0%, 0%, 0%)" fill-opacity="1" d="M 148.273438 189.03125 L 162.496094 189.03125 L 162.496094 185.472656 L 148.273438 185.472656 Z M 148.273438 189.03125 "/>
<path fill-rule="nonzero" fill="rgb(95.701599%, 64.256287%, 37.693787%)" fill-opacity="1" d="M 123.390625 196.136719 L 187.378906 196.136719 L 187.378906 192.582031 L 123.390625 192.582031 Z M 123.390625 196.136719 "/>
<path fill-rule="nonzero" fill="rgb(100%, 0%, 0%)" fill-opacity="1" d="M 239.640625 192.582031 L 242.480469 192.582031 L 242.480469 174.808594 L 239.640625 174.808594 Z M 239.640625 192.582031 "/>
<path fill-rule="nonzero" fill="rgb(0%, 0%, 0%)" fill-opacity="1" d="M 226.839844 192.582031 L 255.28125 192.582031 L 255.28125 189.027344 L 226.839844 189.027344 Z M 226.839844 192.582031 "/>
<path fill-rule="nonzero" fill="rgb(0%, 0%, 0%)" fill-opacity="1" d="M 233.949219 189.03125 L 248.171875 189.03125 L 248.171875 185.472656 L 233.949219 185.472656 Z M 233.949219 189.03125 "/>
<g clip-path="url(#clip-7)">
<path fill-rule="nonzero" fill="rgb(95.701599%, 64.256287%, 37.693787%)" fill-opacity="1" d="M 209.066406 196.136719 L 273.054688 196.136719 L 273.054688 192.582031 L 209.066406 192.582031 Z M 209.066406 196.136719 "/>
</g>
<path fill-rule="nonzero" fill="rgb(100%, 0%, 0%)" fill-opacity="1" d="M 296.515625 192.582031 L 299.363281 192.582031 L 299.363281 174.808594 L 296.515625 174.808594 Z M 296.515625 192.582031 "/>
<path fill-rule="nonzero" fill="rgb(95.701599%, 64.256287%, 37.693787%)" fill-opacity="1" d="M 265.945312 196.136719 L 329.933594 196.136719 L 329.933594 192.582031 L 265.945312 192.582031 Z M 265.945312 196.136719 "/>
<path fill-rule="nonzero" fill="rgb(100%, 0%, 0%)" fill-opacity="1" d="M 353.398438 192.582031 L 356.238281 192.582031 L 356.238281 174.808594 L 353.398438 174.808594 Z M 353.398438 192.582031 "/>
<path fill-rule="nonzero" fill="rgb(0%, 0%, 0%)" fill-opacity="1" d="M 326.378906 192.582031 L 383.257812 192.582031 L 383.257812 189.027344 L 326.378906 189.027344 Z M 326.378906 192.582031 "/>
<path fill-rule="nonzero" fill="rgb(0%, 0%, 0%)" fill-opacity="1" d="M 333.488281 189.03125 L 376.148438 189.03125 L 376.148438 185.472656 L 333.488281 185.472656 Z M 333.488281 189.03125 "/>
<path fill-rule="nonzero" fill="rgb(95.701599%, 64.256287%, 37.693787%)" fill-opacity="1" d="M 322.824219 196.136719 L 386.8125 196.136719 L 386.8125 192.582031 L 322.824219 192.582031 Z M 322.824219 196.136719 "/>
<path fill-rule="nonzero" fill="rgb(100%, 0%, 0%)" fill-opacity="1" d="M 40.203125 153.480469 L 43.046875 153.480469 L 43.046875 135.707031 L 40.203125 135.707031 Z M 40.203125 153.480469 "/>
<path fill-rule="nonzero" fill="rgb(0%, 0%, 0%)" fill-opacity="1" d="M 13.1875 153.480469 L 70.066406 153.480469 L 70.066406 149.925781 L 13.1875 149.925781 Z M 13.1875 153.480469 "/>
<path fill-rule="nonzero" fill="rgb(0%, 0%, 0%)" fill-opacity="1" d="M 20.296875 149.925781 L 62.957031 149.925781 L 62.957031 146.371094 L 20.296875 146.371094 Z M 20.296875 149.925781 "/>
<g clip-path="url(#clip-8)">
<path fill-rule="nonzero" fill="rgb(95.701599%, 64.256287%, 37.693787%)" fill-opacity="1" d="M 9.632812 157.035156 L 73.621094 157.035156 L 73.621094 153.480469 L 9.632812 153.480469 Z M 9.632812 157.035156 "/>
</g>
<path fill-rule="nonzero" fill="rgb(100%, 0%, 0%)" fill-opacity="1" d="M 97.082031 153.480469 L 99.925781 153.480469 L 99.925781 135.707031 L 97.082031 135.707031 Z M 97.082031 153.480469 "/>
<path fill-rule="nonzero" fill="rgb(95.701599%, 64.256287%, 37.693787%)" fill-opacity="1" d="M 66.511719 157.035156 L 130.5 157.035156 L 130.5 153.480469 L 66.511719 153.480469 Z M 66.511719 157.035156 "/>
<path fill-rule="nonzero" fill="rgb(100%, 0%, 0%)" fill-opacity="1" d="M 153.960938 153.480469 L 156.804688 153.480469 L 156.804688 135.707031 L 153.960938 135.707031 Z M 153.960938 153.480469 "/>
<path fill-rule="nonzero" fill="rgb(0%, 0%, 0%)" fill-opacity="1" d="M 141.164062 153.480469 L 169.605469 153.480469 L 169.605469 149.925781 L 141.164062 149.925781 Z M 141.164062 153.480469 "/>
<path fill-rule="nonzero" fill="rgb(0%, 0%, 0%)" fill-opacity="1" d="M 148.273438 149.925781 L 162.496094 149.925781 L 162.496094 146.371094 L 148.273438 146.371094 Z M 148.273438 149.925781 "/>
<path fill-rule="nonzero" fill="rgb(95.701599%, 64.256287%, 37.693787%)" fill-opacity="1" d="M 123.390625 157.035156 L 187.378906 157.035156 L 187.378906 153.480469 L 123.390625 153.480469 Z M 123.390625 157.035156 "/>
<path fill-rule="nonzero" fill="rgb(100%, 0%, 0%)" fill-opacity="1" d="M 239.640625 153.480469 L 242.480469 153.480469 L 242.480469 135.707031 L 239.640625 135.707031 Z M 239.640625 153.480469 "/>
<path fill-rule="nonzero" fill="rgb(0%, 0%, 0%)" fill-opacity="1" d="M 226.839844 153.480469 L 255.28125 153.480469 L 255.28125 149.925781 L 226.839844 149.925781 Z M 226.839844 153.480469 "/>
<path fill-rule="nonzero" fill="rgb(0%, 0%, 0%)" fill-opacity="1" d="M 233.949219 149.925781 L 248.171875 149.925781 L 248.171875 146.371094 L 233.949219 146.371094 Z M 233.949219 149.925781 "/>
<g clip-path="url(#clip-9)">
<path fill-rule="nonzero" fill="rgb(95.701599%, 64.256287%, 37.693787%)" fill-opacity="1" d="M 209.066406 157.035156 L 273.054688 157.035156 L 273.054688 153.480469 L 209.066406 153.480469 Z M 209.066406 157.035156 "/>
</g>
<path fill-rule="nonzero" fill="rgb(100%, 0%, 0%)" fill-opacity="1" d="M 296.515625 153.480469 L 299.363281 153.480469 L 299.363281 135.707031 L 296.515625 135.707031 Z M 296.515625 153.480469 "/>
<path fill-rule="nonzero" fill="rgb(0%, 0%, 0%)" fill-opacity="1" d="M 276.609375 153.480469 L 319.269531 153.480469 L 319.269531 149.925781 L 276.609375 149.925781 Z M 276.609375 153.480469 "/>
<path fill-rule="nonzero" fill="rgb(95.701599%, 64.256287%, 37.693787%)" fill-opacity="1" d="M 265.945312 157.035156 L 329.933594 157.035156 L 329.933594 153.480469 L 265.945312 153.480469 Z M 265.945312 157.035156 "/>
<path fill-rule="nonzero" fill="rgb(100%, 0%, 0%)" fill-opacity="1" d="M 353.398438 153.480469 L 356.238281 153.480469 L 356.238281 135.707031 L 353.398438 135.707031 Z M 353.398438 153.480469 "/>
<path fill-rule="nonzero" fill="rgb(0%, 0%, 0%)" fill-opacity="1" d="M 326.378906 153.480469 L 383.257812 153.480469 L 383.257812 149.925781 L 326.378906 149.925781 Z M 326.378906 153.480469 "/>
<path fill-rule="nonzero" fill="rgb(95.701599%, 64.256287%, 37.693787%)" fill-opacity="1" d="M 322.824219 157.035156 L 386.8125 157.035156 L 386.8125 153.480469 L 322.824219 153.480469 Z M 322.824219 157.035156 "/>
<path fill-rule="nonzero" fill="rgb(100%, 0%, 0%)" fill-opacity="1" d="M 40.203125 114.375 L 43.046875 114.375 L 43.046875 96.601562 L 40.203125 96.601562 Z M 40.203125 114.375 "/>
<path fill-rule="nonzero" fill="rgb(0%, 0%, 0%)" fill-opacity="1" d="M 13.1875 114.375 L 70.066406 114.375 L 70.066406 110.820312 L 13.1875 110.820312 Z M 13.1875 114.375 "/>
<path fill-rule="nonzero" fill="rgb(0%, 0%, 0%)" fill-opacity="1" d="M 20.296875 110.820312 L 62.957031 110.820312 L 62.957031 107.265625 L 20.296875 107.265625 Z M 20.296875 110.820312 "/>
<g clip-path="url(#clip-10)">
<path fill-rule="nonzero" fill="rgb(95.701599%, 64.256287%, 37.693787%)" fill-opacity="1" d="M 9.632812 117.929688 L 73.621094 117.929688 L 73.621094 114.375 L 9.632812 114.375 Z M 9.632812 117.929688 "/>
</g>
<path fill-rule="nonzero" fill="rgb(100%, 0%, 0%)" fill-opacity="1" d="M 97.082031 114.375 L 99.925781 114.375 L 99.925781 96.601562 L 97.082031 96.601562 Z M 97.082031 114.375 "/>
<path fill-rule="nonzero" fill="rgb(0%, 0%, 0%)" fill-opacity="1" d="M 91.394531 114.375 L 105.613281 114.375 L 105.613281 110.820312 L 91.394531 110.820312 Z M 91.394531 114.375 "/>
<path fill-rule="nonzero" fill="rgb(95.701599%, 64.256287%, 37.693787%)" fill-opacity="1" d="M 66.511719 117.929688 L 130.5 117.929688 L 130.5 114.375 L 66.511719 114.375 Z M 66.511719 117.929688 "/>
<path fill-rule="nonzero" fill="rgb(100%, 0%, 0%)" fill-opacity="1" d="M 153.960938 114.375 L 156.804688 114.375 L 156.804688 96.601562 L 153.960938 96.601562 Z M 153.960938 114.375 "/>
<path fill-rule="nonzero" fill="rgb(0%, 0%, 0%)" fill-opacity="1" d="M 141.164062 114.375 L 169.605469 114.375 L 169.605469 110.820312 L 141.164062 110.820312 Z M 141.164062 114.375 "/>
<path fill-rule="nonzero" fill="rgb(95.701599%, 64.256287%, 37.693787%)" fill-opacity="1" d="M 123.390625 117.929688 L 187.378906 117.929688 L 187.378906 114.375 L 123.390625 114.375 Z M 123.390625 117.929688 "/>
<path fill-rule="nonzero" fill="rgb(100%, 0%, 0%)" fill-opacity="1" d="M 239.640625 114.375 L 242.480469 114.375 L 242.480469 96.601562 L 239.640625 96.601562 Z M 239.640625 114.375 "/>
<path fill-rule="nonzero" fill="rgb(0%, 0%, 0%)" fill-opacity="1" d="M 226.839844 114.375 L 255.28125 114.375 L 255.28125 110.820312 L 226.839844 110.820312 Z M 226.839844 114.375 "/>
<g clip-path="url(#clip-11)">
<path fill-rule="nonzero" fill="rgb(95.701599%, 64.256287%, 37.693787%)" fill-opacity="1" d="M 209.066406 117.929688 L 273.054688 117.929688 L 273.054688 114.375 L 209.066406 114.375 Z M 209.066406 117.929688 "/>
</g>
<path fill-rule="nonzero" fill="rgb(100%, 0%, 0%)" fill-opacity="1" d="M 296.515625 114.375 L 299.363281 114.375 L 299.363281 96.601562 L 296.515625 96.601562 Z M 296.515625 114.375 "/>
<path fill-rule="nonzero" fill="rgb(0%, 0%, 0%)" fill-opacity="1" d="M 276.609375 114.375 L 319.269531 114.375 L 319.269531 110.820312 L 276.609375 110.820312 Z M 276.609375 114.375 "/>
<path fill-rule="nonzero" fill="rgb(95.701599%, 64.256287%, 37.693787%)" fill-opacity="1" d="M 265.945312 117.929688 L 329.933594 117.929688 L 329.933594 114.375 L 265.945312 114.375 Z M 265.945312 117.929688 "/>
<path fill-rule="nonzero" fill="rgb(100%, 0%, 0%)" fill-opacity="1" d="M 353.398438 114.375 L 356.238281 114.375 L 356.238281 96.601562 L 353.398438 96.601562 Z M 353.398438 114.375 "/>
<path fill-rule="nonzero" fill="rgb(0%, 0%, 0%)" fill-opacity="1" d="M 326.378906 114.375 L 383.257812 114.375 L 383.257812 110.820312 L 326.378906 110.820312 Z M 326.378906 114.375 "/>
<path fill-rule="nonzero" fill="rgb(0%, 0%, 0%)" fill-opacity="1" d="M 347.707031 110.820312 L 361.929688 110.820312 L 361.929688 107.265625 L 347.707031 107.265625 Z M 347.707031 110.820312 "/>
<path fill-rule="nonzero" fill="rgb(95.701599%, 64.256287%, 37.693787%)" fill-opacity="1" d="M 322.824219 117.929688 L 386.8125 117.929688 L 386.8125 114.375 L 322.824219 114.375 Z M 322.824219 117.929688 "/>
<path fill-rule="nonzero" fill="rgb(100%, 0%, 0%)" fill-opacity="1" d="M 40.203125 75.269531 L 43.046875 75.269531 L 43.046875 57.496094 L 40.203125 57.496094 Z M 40.203125 75.269531 "/>
<path fill-rule="nonzero" fill="rgb(0%, 0%, 0%)" fill-opacity="1" d="M 13.1875 75.269531 L 70.066406 75.269531 L 70.066406 71.714844 L 13.1875 71.714844 Z M 13.1875 75.269531 "/>
<path fill-rule="nonzero" fill="rgb(0%, 0%, 0%)" fill-opacity="1" d="M 20.296875 71.714844 L 62.957031 71.714844 L 62.957031 68.160156 L 20.296875 68.160156 Z M 20.296875 71.714844 "/>
<path fill-rule="nonzero" fill="rgb(0%, 0%, 0%)" fill-opacity="1" d="M 27.40625 68.160156 L 55.84375 68.160156 L 55.84375 64.605469 L 27.40625 64.605469 Z M 27.40625 68.160156 "/>
<g clip-path="url(#clip-12)">
<path fill-rule="nonzero" fill="rgb(95.701599%, 64.256287%, 37.693787%)" fill-opacity="1" d="M 9.632812 78.824219 L 73.621094 78.824219 L 73.621094 75.269531 L 9.632812 75.269531 Z M 9.632812 78.824219 "/>
</g>
<path fill-rule="nonzero" fill="rgb(100%, 0%, 0%)" fill-opacity="1" d="M 97.082031 75.269531 L 99.925781 75.269531 L 99.925781 57.496094 L 97.082031 57.496094 Z M 97.082031 75.269531 "/>
<path fill-rule="nonzero" fill="rgb(0%, 0%, 0%)" fill-opacity="1" d="M 91.394531 75.269531 L 105.613281 75.269531 L 105.613281 71.714844 L 91.394531 71.714844 Z M 91.394531 75.269531 "/>
<path fill-rule="nonzero" fill="rgb(95.701599%, 64.256287%, 37.693787%)" fill-opacity="1" d="M 66.511719 78.824219 L 130.5 78.824219 L 130.5 75.269531 L 66.511719 75.269531 Z M 66.511719 78.824219 "/>
<path fill-rule="nonzero" fill="rgb(100%, 0%, 0%)" fill-opacity="1" d="M 153.964844 75.269531 L 156.804688 75.269531 L 156.804688 57.496094 L 153.964844 57.496094 Z M 153.964844 75.269531 "/>
<path fill-rule="nonzero" fill="rgb(95.701599%, 64.256287%, 37.693787%)" fill-opacity="1" d="M 123.390625 78.824219 L 187.378906 78.824219 L 187.378906 75.269531 L 123.390625 75.269531 Z M 123.390625 78.824219 "/>
<path fill-rule="nonzero" fill="rgb(100%, 0%, 0%)" fill-opacity="1" d="M 239.636719 75.269531 L 242.480469 75.269531 L 242.480469 57.496094 L 239.636719 57.496094 Z M 239.636719 75.269531 "/>
<g clip-path="url(#clip-13)">
<path fill-rule="nonzero" fill="rgb(95.701599%, 64.256287%, 37.693787%)" fill-opacity="1" d="M 209.066406 78.824219 L 273.054688 78.824219 L 273.054688 75.269531 L 209.066406 75.269531 Z M 209.066406 78.824219 "/>
</g>
<path fill-rule="nonzero" fill="rgb(100%, 0%, 0%)" fill-opacity="1" d="M 296.515625 75.269531 L 299.363281 75.269531 L 299.363281 57.496094 L 296.515625 57.496094 Z M 296.515625 75.269531 "/>
<path fill-rule="nonzero" fill="rgb(0%, 0%, 0%)" fill-opacity="1" d="M 276.609375 75.269531 L 319.269531 75.269531 L 319.269531 71.714844 L 276.609375 71.714844 Z M 276.609375 75.269531 "/>
<path fill-rule="nonzero" fill="rgb(0%, 0%, 0%)" fill-opacity="1" d="M 283.71875 71.714844 L 312.160156 71.714844 L 312.160156 68.160156 L 283.71875 68.160156 Z M 283.71875 71.714844 "/>
<path fill-rule="nonzero" fill="rgb(95.701599%, 64.256287%, 37.693787%)" fill-opacity="1" d="M 265.945312 78.824219 L 329.933594 78.824219 L 329.933594 75.269531 L 265.945312 75.269531 Z M 265.945312 78.824219 "/>
<path fill-rule="nonzero" fill="rgb(100%, 0%, 0%)" fill-opacity="1" d="M 353.398438 75.269531 L 356.242188 75.269531 L 356.242188 57.496094 L 353.398438 57.496094 Z M 353.398438 75.269531 "/>
<path fill-rule="nonzero" fill="rgb(0%, 0%, 0%)" fill-opacity="1" d="M 326.378906 75.269531 L 383.257812 75.269531 L 383.257812 71.714844 L 326.378906 71.714844 Z M 326.378906 75.269531 "/>
<path fill-rule="nonzero" fill="rgb(0%, 0%, 0%)" fill-opacity="1" d="M 347.710938 71.714844 L 361.929688 71.714844 L 361.929688 68.160156 L 347.710938 68.160156 Z M 347.710938 71.714844 "/>
<path fill-rule="nonzero" fill="rgb(95.701599%, 64.256287%, 37.693787%)" fill-opacity="1" d="M 322.824219 78.824219 L 386.8125 78.824219 L 386.8125 75.269531 L 322.824219 75.269531 Z M 322.824219 78.824219 "/>
<path fill-rule="nonzero" fill="rgb(100%, 0%, 0%)" fill-opacity="1" d="M 40.203125 36.164062 L 43.046875 36.164062 L 43.046875 18.390625 L 40.203125 18.390625 Z M 40.203125 36.164062 "/>
<path fill-rule="nonzero" fill="rgb(0%, 0%, 0%)" fill-opacity="1" d="M 13.1875 36.164062 L 70.066406 36.164062 L 70.066406 32.609375 L 13.1875 32.609375 Z M 13.1875 36.164062 "/>
<path fill-rule="nonzero" fill="rgb(0%, 0%, 0%)" fill-opacity="1" d="M 20.296875 32.609375 L 62.957031 32.609375 L 62.957031 29.054688 L 20.296875 29.054688 Z M 20.296875 32.609375 "/>
<path fill-rule="nonzero" fill="rgb(0%, 0%, 0%)" fill-opacity="1" d="M 27.40625 29.054688 L 55.84375 29.054688 L 55.84375 25.5 L 27.40625 25.5 Z M 27.40625 29.054688 "/>
<path fill-rule="nonzero" fill="rgb(0%, 0%, 0%)" fill-opacity="1" d="M 34.515625 25.5 L 48.738281 25.5 L 48.738281 21.945312 L 34.515625 21.945312 Z M 34.515625 25.5 "/>
<g clip-path="url(#clip-14)">
<path fill-rule="nonzero" fill="rgb(95.701599%, 64.256287%, 37.693787%)" fill-opacity="1" d="M 9.632812 39.71875 L 73.621094 39.71875 L 73.621094 36.164062 L 9.632812 36.164062 Z M 9.632812 39.71875 "/>
</g>
<path fill-rule="nonzero" fill="rgb(100%, 0%, 0%)" fill-opacity="1" d="M 97.082031 36.164062 L 99.925781 36.164062 L 99.925781 18.390625 L 97.082031 18.390625 Z M 97.082031 36.164062 "/>
<path fill-rule="nonzero" fill="rgb(95.701599%, 64.256287%, 37.693787%)" fill-opacity="1" d="M 66.511719 39.71875 L 130.5 39.71875 L 130.5 36.164062 L 66.511719 36.164062 Z M 66.511719 39.71875 "/>
<path fill-rule="nonzero" fill="rgb(100%, 0%, 0%)" fill-opacity="1" d="M 153.964844 36.164062 L 156.804688 36.164062 L 156.804688 18.390625 L 153.964844 18.390625 Z M 153.964844 36.164062 "/>
<path fill-rule="nonzero" fill="rgb(95.701599%, 64.256287%, 37.693787%)" fill-opacity="1" d="M 123.390625 39.71875 L 187.378906 39.71875 L 187.378906 36.164062 L 123.390625 36.164062 Z M 123.390625 39.71875 "/>
<path fill-rule="nonzero" fill="rgb(100%, 0%, 0%)" fill-opacity="1" d="M 239.636719 36.164062 L 242.480469 36.164062 L 242.480469 18.390625 L 239.636719 18.390625 Z M 239.636719 36.164062 "/>
<g clip-path="url(#clip-15)">
<path fill-rule="nonzero" fill="rgb(95.701599%, 64.256287%, 37.693787%)" fill-opacity="1" d="M 209.066406 39.71875 L 273.054688 39.71875 L 273.054688 36.164062 L 209.066406 36.164062 Z M 209.066406 39.71875 "/>
</g>
<path fill-rule="nonzero" fill="rgb(100%, 0%, 0%)" fill-opacity="1" d="M 296.515625 36.164062 L 299.363281 36.164062 L 299.363281 18.390625 L 296.515625 18.390625 Z M 296.515625 36.164062 "/>
<path fill-rule="nonzero" fill="rgb(0%, 0%, 0%)" fill-opacity="1" d="M 276.609375 36.164062 L 319.269531 36.164062 L 319.269531 32.609375 L 276.609375 32.609375 Z M 276.609375 36.164062 "/>
<path fill-rule="nonzero" fill="rgb(0%, 0%, 0%)" fill-opacity="1" d="M 283.71875 32.609375 L 312.160156 32.609375 L 312.160156 29.054688 L 283.71875 29.054688 Z M 283.71875 32.609375 "/>
<path fill-rule="nonzero" fill="rgb(0%, 0%, 0%)" fill-opacity="1" d="M 290.828125 29.054688 L 305.050781 29.054688 L 305.050781 25.5 L 290.828125 25.5 Z M 290.828125 29.054688 "/>
<path fill-rule="nonzero" fill="rgb(95.701599%, 64.256287%, 37.693787%)" fill-opacity="1" d="M 265.945312 39.71875 L 329.933594 39.71875 L 329.933594 36.164062 L 265.945312 36.164062 Z M 265.945312 39.71875 "/>
<path fill-rule="nonzero" fill="rgb(100%, 0%, 0%)" fill-opacity="1" d="M 353.398438 36.164062 L 356.242188 36.164062 L 356.242188 18.390625 L 353.398438 18.390625 Z M 353.398438 36.164062 "/>
<path fill-rule="nonzero" fill="rgb(0%, 0%, 0%)" fill-opacity="1" d="M 326.378906 36.164062 L 383.257812 36.164062 L 383.257812 32.609375 L 326.378906 32.609375 Z M 326.378906 36.164062 "/>
<path fill-rule="nonzero" fill="rgb(95.701599%, 64.256287%, 37.693787%)" fill-opacity="1" d="M 322.824219 39.71875 L 386.8125 39.71875 L 386.8125 36.164062 L 322.824219 36.164062 Z M 322.824219 39.71875 "/>
</svg>
