<?xml version="1.0" encoding="UTF-8"?>
<svg xmlns="http://www.w3.org/2000/svg" xmlns:xlink="http://www.w3.org/1999/xlink" width="236" height="86" viewBox="0 0 236 86">
<path fill="none" stroke-width="9.33717" stroke-linecap="round" stroke-linejoin="round" stroke="rgb(0%, 0%, 0%)" stroke-opacity="1" stroke-miterlimit="10" d="M 185.429688 137.5 L 302.460938 137.5 L 302.460938 254.492188 L 185.429688 254.492188 L 185.429688 137.5 " transform="matrix(0.1, 0, 0, -0.1, 0, 86)"/>
<path fill="none" stroke-width="9.33717" stroke-linecap="round" stroke-linejoin="round" stroke="rgb(0%, 0%, 0%)" stroke-opacity="1" stroke-miterlimit="10" d="M 185.429688 254.492188 L 302.460938 254.492188 L 302.460938 371.523438 L 185.429688 371.523438 L 185.429688 254.492188 " transform="matrix(0.1, 0, 0, -0.1, 0, 86)"/>
<path fill="none" stroke-width="9.33717" stroke-linecap="round" stroke-linejoin="round" stroke="rgb(0%, 0%, 0%)" stroke-opacity="1" stroke-miterlimit="10" d="M 68.4375 254.492188 L 185.429688 254.492188 L 185.429688 371.523438 L 68.4375 371.523438 L 68.4375 254.492188 " transform="matrix(0.1, 0, 0, -0.1, 0, 86)"/>
<path fill="none" stroke-width="9.33717" stroke-linecap="round" stroke-linejoin="round" stroke="rgb(0%, 0%, 0%)" stroke-opacity="1" stroke-miterlimit="10" d="M 185.429688 254.492188 L 302.460938 254.492188 L 302.460938 371.523438 L 185.429688 371.523438 L 185.429688 254.492188 " transform="matrix(0.1, 0, 0, -0.1, 0, 86)"/>
<path fill="none" stroke-width="9.33717" stroke-linecap="round" stroke-linejoin="round" stroke="rgb(0%, 0%, 0%)" stroke-opacity="1" stroke-miterlimit="10" d="M 302.460938 254.492188 L 419.453125 254.492188 L 419.453125 371.523438 L 302.460938 371.523438 L 302.460938 254.492188 " transform="matrix(0.1, 0, 0, -0.1, 0, 86)"/>
<path fill="none" stroke-width="9.33717" stroke-linecap="round" stroke-linejoin="round" stroke="rgb(0%, 0%, 0%)" stroke-opacity="1" stroke-miterlimit="10" d="M 653.476562 137.5 L 770.46875 137.5 L 770.46875 254.492188 L 653.476562 254.492188 L 653.476562 137.5 " transform="matrix(0.1, 0, 0, -0.1, 0, 86)"/>
<path fill="none" stroke-width="9.33717" stroke-linecap="round" stroke-linejoin="round" stroke="rgb(0%, 0%, 0%)" stroke-opacity="1" stroke-miterlimit="10" d="M 653.476562 254.492188 L 770.46875 254.492188 L 770.46875 371.523438 L 653.476562 371.523438 L 653.476562 254.492188 " transform="matrix(0.1, 0, 0, -0.1, 0, 86)"/>
<path fill="none" stroke-width="9.33717" stroke-linecap="round" stroke-linejoin="round" stroke="rgb(0%, 0%, 0%)" stroke-opacity="1" stroke-miterlimit="10" d="M 653.476562 371.523438 L 770.46875 371.523438 L 770.46875 488.476562 L 653.476562 488.476562 L 653.476562 371.523438 " transform="matrix(0.1, 0, 0, -0.1, 0, 86)"/>
<path fill="none" stroke-width="9.33717" stroke-linecap="round" stroke-linejoin="round" stroke="rgb(0%, 0%, 0%)" stroke-opacity="1" stroke-miterlimit="10" d="M 536.445312 371.523438 L 653.476562 371.523438 L 653.476562 488.476562 L 536.445312 488.476562 L 536.445312 371.523438 " transform="matrix(0.1, 0, 0, -0.1, 0, 86)"/>
<path fill="none" stroke-width="9.33717" stroke-linecap="round" stroke-linejoin="round" stroke="rgb(0%, 0%, 0%)" stroke-opacity="1" stroke-miterlimit="10" d="M 653.476562 371.523438 L 770.46875 371.523438 L 770.46875 488.476562 L 653.476562 488.476562 L 653.476562 371.523438 " transform="matrix(0.1, 0, 0, -0.1, 0, 86)"/>
<path fill="none" stroke-width="9.33717" stroke-linecap="round" stroke-linejoin="round" stroke="rgb(0%, 0%, 0%)" stroke-opacity="1" stroke-miterlimit="10" d="M 770.46875 371.523438 L 887.5 371.523438 L 887.5 488.476562 L 770.46875 488.476562 L 770.46875 371.523438 " transform="matrix(0.1, 0, 0, -0.1, 0, 86)"/>
<path fill="none" stroke-width="9.33717" stroke-linecap="round" stroke-linejoin="round" stroke="rgb(0%, 0%, 0%)" stroke-opacity="1" stroke-miterlimit="10" d="M 1121.484375 137.5 L 1238.515625 137.5 L 1238.515625 254.492188 L 1121.484375 254.492188 L 1121.484375 137.5 " transform="matrix(0.1, 0, 0, -0.1, 0, 86)"/>
<path fill="none" stroke-width="9.33717" stroke-linecap="round" stroke-linejoin="round" stroke="rgb(0%, 0%, 0%)" stroke-opacity="1" stroke-miterlimit="10" d="M 1121.484375 254.492188 L 1238.515625 254.492188 L 1238.515625 371.523438 L 1121.484375 371.523438 L 1121.484375 254.492188 " transform="matrix(0.1, 0, 0, -0.1, 0, 86)"/>
<path fill="none" stroke-width="9.33717" stroke-linecap="round" stroke-linejoin="round" stroke="rgb(0%, 0%, 0%)" stroke-opacity="1" stroke-miterlimit="10" d="M 1121.484375 371.523438 L 1238.515625 371.523438 L 1238.515625 488.476562 L 1121.484375 488.476562 L 1121.484375 371.523438 " transform="matrix(0.1, 0, 0, -0.1, 0, 86)"/>
<path fill="none" stroke-width="9.33717" stroke-linecap="round" stroke-linejoin="round" stroke="rgb(0%, 0%, 0%)" stroke-opacity="1" stroke-miterlimit="10" d="M 1121.484375 488.476562 L 1238.515625 488.476562 L 1238.515625 605.507812 L 1121.484375 605.507812 L 1121.484375 488.476562 " transform="matrix(0.1, 0, 0, -0.1, 0, 86)"/>
<path fill="none" stroke-width="9.33717" stroke-linecap="round" stroke-linejoin="round" stroke="rgb(0%, 0%, 0%)" stroke-opacity="1" stroke-miterlimit="10" d="M 1004.492188 488.476562 L 1121.484375 488.476562 L 1121.484375 605.507812 L 1004.492188 605.507812 L 1004.492188 488.476562 " transform="matrix(0.1, 0, 0, -0.1, 0, 86)"/>
<path fill="none" stroke-width="9.33717" stroke-linecap="round" stroke-linejoin="round" stroke="rgb(0%, 0%, 0%)" stroke-opacity="1" stroke-miterlimit="10" d="M 1121.484375 488.476562 L 1238.515625 488.476562 L 1238.515625 605.507812 L 1121.484375 605.507812 L 1121.484375 488.476562 " transform="matrix(0.1, 0, 0, -0.1, 0, 86)"/>
<path fill="none" stroke-width="9.33717" stroke-linecap="round" stroke-linejoin="round" stroke="rgb(0%, 0%, 0%)" stroke-opacity="1" stroke-miterlimit="10" d="M 1238.515625 488.476562 L 1355.507812 488.476562 L 1355.507812 605.507812 L 1238.515625 605.507812 L 1238.515625 488.476562 " transform="matrix(0.1, 0, 0, -0.1, 0, 86)"/>
<path fill="none" stroke-width="9.33717" stroke-linecap="round" stroke-linejoin="round" stroke="rgb(0%, 0%, 0%)" stroke-opacity="1" stroke-miterlimit="10" d="M 1589.53125 137.5 L 1706.523438 137.5 L 1706.523438 254.492188 L 1589.53125 254.492188 L 1589.53125 137.5 " transform="matrix(0.1, 0, 0, -0.1, 0, 86)"/>
<path fill="none" stroke-width="9.33717" stroke-linecap="round" stroke-linejoin="round" stroke="rgb(0%, 0%, 0%)" stroke-opacity="1" stroke-miterlimit="10" d="M 1589.53125 254.492188 L 1706.523438 254.492188 L 1706.523438 371.523438 L 1589.53125 371.523438 L 1589.53125 254.492188 " transform="matrix(0.1, 0, 0, -0.1, 0, 86)"/>
<path fill="none" stroke-width="9.33717" stroke-linecap="round" stroke-linejoin="round" stroke="rgb(0%, 0%, 0%)" stroke-opacity="1" stroke-miterlimit="10" d="M 1589.53125 371.523438 L 1706.523438 371.523438 L 1706.523438 488.476562 L 1589.53125 488.476562 L 1589.53125 371.523438 " transform="matrix(0.1, 0, 0, -0.1, 0, 86)"/>
<path fill="none" stroke-width="9.33717" stroke-linecap="round" stroke-linejoin="round" stroke="rgb(0%, 0%, 0%)" stroke-opacity="1" stroke-miterlimit="10" d="M 1589.53125 488.476562 L 1706.523438 488.476562 L 1706.523438 605.507812 L 1589.53125 605.507812 L 1589.53125 488.476562 " transform="matrix(0.1, 0, 0, -0.1, 0, 86)"/>
<path fill="none" stroke-width="9.33717" stroke-linecap="round" stroke-linejoin="round" stroke="rgb(0%, 0%, 0%)" stroke-opacity="1" stroke-miterlimit="10" d="M 1589.53125 605.507812 L 1706.523438 605.507812 L 1706.523438 722.5 L 1589.53125 722.5 L 1589.53125 605.507812 " transform="matrix(0.1, 0, 0, -0.1, 0, 86)"/>
<path fill="none" stroke-width="9.33717" stroke-linecap="round" stroke-linejoin="round" stroke="rgb(0%, 0%, 0%)" stroke-opacity="1" stroke-miterlimit="10" d="M 1472.5 605.507812 L 1589.53125 605.507812 L 1589.53125 722.5 L 1472.5 722.5 L 1472.5 605.507812 " transform="matrix(0.1, 0, 0, -0.1, 0, 86)"/>
<path fill="none" stroke-width="9.33717" stroke-linecap="round" stroke-linejoin="round" stroke="rgb(0%, 0%, 0%)" stroke-opacity="1" stroke-miterlimit="10" d="M 1589.53125 605.507812 L 1706.523438 605.507812 L 1706.523438 722.5 L 1589.53125 722.5 L 1589.53125 605.507812 " transform="matrix(0.1, 0, 0, -0.1, 0, 86)"/>
<path fill="none" stroke-width="9.33717" stroke-linecap="round" stroke-linejoin="round" stroke="rgb(0%, 0%, 0%)" stroke-opacity="1" stroke-miterlimit="10" d="M 1706.523438 605.507812 L 1823.554688 605.507812 L 1823.554688 722.5 L 1706.523438 722.5 L 1706.523438 605.507812 " transform="matrix(0.1, 0, 0, -0.1, 0, 86)"/>
<path fill="none" stroke-width="9.33717" stroke-linecap="round" stroke-linejoin="round" stroke="rgb(0%, 0%, 0%)" stroke-opacity="1" stroke-miterlimit="10" d="M 2057.539062 137.5 L 2174.570312 137.5 L 2174.570312 254.492188 L 2057.539062 254.492188 L 2057.539062 137.5 " transform="matrix(0.1, 0, 0, -0.1, 0, 86)"/>
<path fill="none" stroke-width="9.33717" stroke-linecap="round" stroke-linejoin="round" stroke="rgb(0%, 0%, 0%)" stroke-opacity="1" stroke-miterlimit="10" d="M 2057.539062 254.492188 L 2174.570312 254.492188 L 2174.570312 371.523438 L 2057.539062 371.523438 L 2057.539062 254.492188 " transform="matrix(0.1, 0, 0, -0.1, 0, 86)"/>
<path fill="none" stroke-width="9.33717" stroke-linecap="round" stroke-linejoin="round" stroke="rgb(0%, 0%, 0%)" stroke-opacity="1" stroke-miterlimit="10" d="M 2057.539062 371.523438 L 2174.570312 371.523438 L 2174.570312 488.476562 L 2057.539062 488.476562 L 2057.539062 371.523438 " transform="matrix(0.1, 0, 0, -0.1, 0, 86)"/>
<path fill="none" stroke-width="9.33717" stroke-linecap="round" stroke-linejoin="round" stroke="rgb(0%, 0%, 0%)" stroke-opacity="1" stroke-miterlimit="10" d="M 2057.539062 488.476562 L 2174.570312 488.476562 L 2174.570312 605.507812 L 2057.539062 605.507812 L 2057.539062 488.476562 " transform="matrix(0.1, 0, 0, -0.1, 0, 86)"/>
<path fill="none" stroke-width="9.33717" stroke-linecap="round" stroke-linejoin="round" stroke="rgb(0%, 0%, 0%)" stroke-opacity="1" stroke-miterlimit="10" d="M 2057.539062 605.507812 L 2174.570312 605.507812 L 2174.570312 722.5 L 2057.539062 722.5 L 2057.539062 605.507812 " transform="matrix(0.1, 0, 0, -0.1, 0, 86)"/>
<path fill="none" stroke-width="9.33717" stroke-linecap="round" stroke-linejoin="round" stroke="rgb(0%, 0%, 0%)" stroke-opacity="1" stroke-miterlimit="10" d="M 2057.539062 722.5 L 2174.570312 722.5 L 2174.570312 839.53125 L 2057.539062 839.53125 L 2057.539062 722.5 " transform="matrix(0.1, 0, 0, -0.1, 0, 86)"/>
<path fill="none" stroke-width="9.33717" stroke-linecap="round" stroke-linejoin="round" stroke="rgb(0%, 0%, 0%)" stroke-opacity="1" stroke-miterlimit="10" d="M 1940.546875 722.5 L 2057.539062 722.5 L 2057.539062 839.53125 L 1940.546875 839.53125 L 1940.546875 722.5 " transform="matrix(0.1, 0, 0, -0.1, 0, 86)"/>
<path fill="none" stroke-width="9.33717" stroke-linecap="round" stroke-linejoin="round" stroke="rgb(0%, 0%, 0%)" stroke-opacity="1" stroke-miterlimit="10" d="M 2057.539062 722.5 L 2174.570312 722.5 L 2174.570312 839.53125 L 2057.539062 839.53125 L 2057.539062 722.5 " transform="matrix(0.1, 0, 0, -0.1, 0, 86)"/>
<path fill="none" stroke-width="9.33717" stroke-linecap="round" stroke-linejoin="round" stroke="rgb(0%, 0%, 0%)" stroke-opacity="1" stroke-miterlimit="10" d="M 2174.570312 722.5 L 2291.5625 722.5 L 2291.5625 839.53125 L 2174.570312 839.53125 L 2174.570312 722.5 " transform="matrix(0.1, 0, 0, -0.1, 0, 86)"/>
</svg>
