<?xml version="1.0" encoding="UTF-8"?>
<svg xmlns="http://www.w3.org/2000/svg" xmlns:xlink="http://www.w3.org/1999/xlink" width="216.5" height="194.81" viewBox="0 0 216.5 194.81">
<path fill="none" stroke-width="173.167" stroke-linecap="round" stroke-linejoin="round" stroke="rgb(0%, 0%, 0%)" stroke-opacity="1" stroke-miterlimit="10" d="M 2019.771038 216.46128 L 2019.771038 216.46128 " transform="matrix(0.0997696, 0, 0, -0.0997696, 0.00000000000000494, 194.490783)"/>
<path fill="none" stroke-width="173.167" stroke-linecap="round" stroke-linejoin="round" stroke="rgb(0%, 0%, 0%)" stroke-opacity="1" stroke-miterlimit="10" d="M 1082.494226 1839.889398 L 1082.494226 1839.889398 " transform="matrix(0.0997696, 0, 0, -0.0997696, 0.00000000000000494, 194.490783)"/>
<path fill="none" stroke-width="173.167" stroke-linecap="round" stroke-linejoin="round" stroke="rgb(0%, 0%, 0%)" stroke-opacity="1" stroke-miterlimit="10" d="M 145.217415 216.46128 L 145.217415 216.46128 " transform="matrix(0.0997696, 0, 0, -0.0997696, 0.00000000000000494, 194.490783)"/>
<path fill="none" stroke-width="5" stroke-linecap="round" stroke-linejoin="round" stroke="rgb(0%, 0%, 0%)" stroke-opacity="1" stroke-miterlimit="10" d="M 1082.494226 1839.889398 L 2019.771038 216.46128 " transform="matrix(0.0997696, 0, 0, -0.0997696, 0.00000000000000494, 194.490783)"/>
<path fill-rule="nonzero" fill="rgb(0%, 0%, 0%)" fill-opacity="1" d="M 173.460938 124.304688 L 147.914062 101.648438 L 166.613281 90.851562 "/>
<path fill="none" stroke-width="5" stroke-linecap="round" stroke-linejoin="round" stroke="rgb(0%, 0%, 0%)" stroke-opacity="1" stroke-miterlimit="10" d="M 145.217415 216.46128 L 2019.771038 216.46128 " transform="matrix(0.0997696, 0, 0, -0.0997696, 0.00000000000000494, 194.490783)"/>
<path fill-rule="nonzero" fill="rgb(0%, 0%, 0%)" fill-opacity="1" d="M 145.40625 172.894531 L 113.011719 183.695312 L 113.011719 162.097656 "/>
<path fill="none" stroke-width="5" stroke-linecap="round" stroke-linejoin="round" stroke="rgb(0%, 0%, 0%)" stroke-opacity="1" stroke-miterlimit="10" d="M 145.217415 216.46128 L 1082.494226 1839.889398 " transform="matrix(0.0997696, 0, 0, -0.0997696, 0.00000000000000494, 194.490783)"/>
<path fill-rule="nonzero" fill="rgb(0%, 0%, 0%)" fill-opacity="1" d="M 79.949219 59.515625 L 73.101562 92.96875 L 54.398438 82.171875 "/>
</svg>
