<?xml version="1.0" encoding="UTF-8"?>
<svg xmlns="http://www.w3.org/2000/svg" xmlns:xlink="http://www.w3.org/1999/xlink" width="320" height="169" viewBox="0 0 320 169">
<path fill="none" stroke-width="24" stroke-linecap="round" stroke-linejoin="miter" stroke="rgb(0%, 0%, 0%)" stroke-opacity="1" stroke-miterlimit="3.25" d="M 1179.375 185.898438 L 1179.375 185.898438 " transform="matrix(0.1, 0, 0, -0.1, 0, 169)"/>
<path fill="none" stroke-width="24" stroke-linecap="round" stroke-linejoin="miter" stroke="rgb(0%, 0%, 0%)" stroke-opacity="1" stroke-miterlimit="3.25" d="M 662.109375 483.554688 L 662.109375 483.554688 " transform="matrix(0.1, 0, 0, -0.1, 0, 169)"/>
<path fill="none" stroke-width="24" stroke-linecap="round" stroke-linejoin="miter" stroke="rgb(0%, 0%, 0%)" stroke-opacity="1" stroke-miterlimit="3.25" d="M 1384.53125 715.195312 L 1384.53125 715.195312 " transform="matrix(0.1, 0, 0, -0.1, 0, 169)"/>
<path fill="none" stroke-width="24" stroke-linecap="round" stroke-linejoin="miter" stroke="rgb(0%, 0%, 0%)" stroke-opacity="1" stroke-miterlimit="3.25" d="M 1266.523438 1059.53125 L 1266.523438 1059.53125 " transform="matrix(0.1, 0, 0, -0.1, 0, 169)"/>
<path fill="none" stroke-width="24" stroke-linecap="round" stroke-linejoin="miter" stroke="rgb(0%, 0%, 0%)" stroke-opacity="1" stroke-miterlimit="3.25" d="M 490.625 259.0625 L 490.625 259.0625 " transform="matrix(0.1, 0, 0, -0.1, 0, 169)"/>
<path fill="none" stroke-width="24" stroke-linecap="round" stroke-linejoin="miter" stroke="rgb(0%, 0%, 0%)" stroke-opacity="1" stroke-miterlimit="3.25" d="M 1226.132812 145.117188 L 1226.132812 145.117188 " transform="matrix(0.1, 0, 0, -0.1, 0, 169)"/>
<path fill="none" stroke-width="24" stroke-linecap="round" stroke-linejoin="miter" stroke="rgb(0%, 0%, 0%)" stroke-opacity="1" stroke-miterlimit="3.25" d="M 1512.265625 305.703125 L 1512.265625 305.703125 " transform="matrix(0.1, 0, 0, -0.1, 0, 169)"/>
<path fill="none" stroke-width="24" stroke-linecap="round" stroke-linejoin="miter" stroke="rgb(0%, 0%, 0%)" stroke-opacity="1" stroke-miterlimit="3.25" d="M 343.710938 429.648438 L 343.710938 429.648438 " transform="matrix(0.1, 0, 0, -0.1, 0, 169)"/>
<path fill="none" stroke-width="24" stroke-linecap="round" stroke-linejoin="miter" stroke="rgb(0%, 0%, 0%)" stroke-opacity="1" stroke-miterlimit="3.25" d="M 1092.5 113.085938 L 1092.5 113.085938 " transform="matrix(0.1, 0, 0, -0.1, 0, 169)"/>
<path fill="none" stroke-width="24" stroke-linecap="round" stroke-linejoin="miter" stroke="rgb(0%, 0%, 0%)" stroke-opacity="1" stroke-miterlimit="3.25" d="M 542.96875 618.046875 L 542.96875 618.046875 " transform="matrix(0.1, 0, 0, -0.1, 0, 169)"/>
<path fill="none" stroke-width="24" stroke-linecap="round" stroke-linejoin="miter" stroke="rgb(0%, 0%, 0%)" stroke-opacity="1" stroke-miterlimit="3.25" d="M 501.71875 1294.023438 L 501.71875 1294.023438 " transform="matrix(0.1, 0, 0, -0.1, 0, 169)"/>
<path fill="none" stroke-width="24" stroke-linecap="round" stroke-linejoin="miter" stroke="rgb(0%, 0%, 0%)" stroke-opacity="1" stroke-miterlimit="3.25" d="M 170.9375 1235.039062 L 170.9375 1235.039062 " transform="matrix(0.1, 0, 0, -0.1, 0, 169)"/>
<path fill="none" stroke-width="24" stroke-linecap="round" stroke-linejoin="miter" stroke="rgb(0%, 0%, 0%)" stroke-opacity="1" stroke-miterlimit="3.25" d="M 837.851562 1191.796875 L 837.851562 1191.796875 " transform="matrix(0.1, 0, 0, -0.1, 0, 169)"/>
<path fill="none" stroke-width="24" stroke-linecap="round" stroke-linejoin="miter" stroke="rgb(0%, 0%, 0%)" stroke-opacity="1" stroke-miterlimit="3.25" d="M 1024.335938 835.117188 L 1024.335938 835.117188 " transform="matrix(0.1, 0, 0, -0.1, 0, 169)"/>
<path fill="none" stroke-width="24" stroke-linecap="round" stroke-linejoin="miter" stroke="rgb(0%, 0%, 0%)" stroke-opacity="1" stroke-miterlimit="3.25" d="M 968.789062 560.195312 L 968.789062 560.195312 " transform="matrix(0.1, 0, 0, -0.1, 0, 169)"/>
<path fill="none" stroke-width="24" stroke-linecap="round" stroke-linejoin="miter" stroke="rgb(0%, 0%, 0%)" stroke-opacity="1" stroke-miterlimit="3.25" d="M 1273.28125 1385.742188 L 1273.28125 1385.742188 " transform="matrix(0.1, 0, 0, -0.1, 0, 169)"/>
<path fill="none" stroke-width="24" stroke-linecap="round" stroke-linejoin="miter" stroke="rgb(0%, 0%, 0%)" stroke-opacity="1" stroke-miterlimit="3.25" d="M 467.148438 384.804688 L 467.148438 384.804688 " transform="matrix(0.1, 0, 0, -0.1, 0, 169)"/>
<path fill="none" stroke-width="24" stroke-linecap="round" stroke-linejoin="miter" stroke="rgb(0%, 0%, 0%)" stroke-opacity="1" stroke-miterlimit="3.25" d="M 36.132812 1324.296875 L 36.132812 1324.296875 " transform="matrix(0.1, 0, 0, -0.1, 0, 169)"/>
<path fill="none" stroke-width="24" stroke-linecap="round" stroke-linejoin="miter" stroke="rgb(0%, 0%, 0%)" stroke-opacity="1" stroke-miterlimit="3.25" d="M 470.390625 162.734375 L 470.390625 162.734375 " transform="matrix(0.1, 0, 0, -0.1, 0, 169)"/>
<path fill="none" stroke-width="24" stroke-linecap="round" stroke-linejoin="miter" stroke="rgb(0%, 0%, 0%)" stroke-opacity="1" stroke-miterlimit="3.25" d="M 1207.929688 978.28125 L 1207.929688 978.28125 " transform="matrix(0.1, 0, 0, -0.1, 0, 169)"/>
<path fill="none" stroke-width="24" stroke-linecap="round" stroke-linejoin="miter" stroke="rgb(0%, 0%, 0%)" stroke-opacity="1" stroke-miterlimit="3.25" d="M 893.398438 133.28125 L 893.398438 133.28125 " transform="matrix(0.1, 0, 0, -0.1, 0, 169)"/>
<path fill="none" stroke-width="24" stroke-linecap="round" stroke-linejoin="miter" stroke="rgb(0%, 0%, 0%)" stroke-opacity="1" stroke-miterlimit="3.25" d="M 653.945312 443.867188 L 653.945312 443.867188 " transform="matrix(0.1, 0, 0, -0.1, 0, 169)"/>
<path fill="none" stroke-width="24" stroke-linecap="round" stroke-linejoin="miter" stroke="rgb(0%, 0%, 0%)" stroke-opacity="1" stroke-miterlimit="3.25" d="M 380.664062 449.414062 L 380.664062 449.414062 " transform="matrix(0.1, 0, 0, -0.1, 0, 169)"/>
<path fill="none" stroke-width="24" stroke-linecap="round" stroke-linejoin="miter" stroke="rgb(0%, 0%, 0%)" stroke-opacity="1" stroke-miterlimit="3.25" d="M 471.992188 818.984375 L 471.992188 818.984375 " transform="matrix(0.1, 0, 0, -0.1, 0, 169)"/>
<path fill="none" stroke-width="24" stroke-linecap="round" stroke-linejoin="miter" stroke="rgb(0%, 0%, 0%)" stroke-opacity="1" stroke-miterlimit="3.25" d="M 1058.28125 867.8125 L 1058.28125 867.8125 " transform="matrix(0.1, 0, 0, -0.1, 0, 169)"/>
<path fill="none" stroke-width="24" stroke-linecap="round" stroke-linejoin="miter" stroke="rgb(0%, 0%, 0%)" stroke-opacity="1" stroke-miterlimit="3.25" d="M 963.164062 1594.023438 L 963.164062 1594.023438 " transform="matrix(0.1, 0, 0, -0.1, 0, 169)"/>
<path fill="none" stroke-width="24" stroke-linecap="round" stroke-linejoin="miter" stroke="rgb(0%, 0%, 0%)" stroke-opacity="1" stroke-miterlimit="3.25" d="M 78.476562 391.25 L 78.476562 391.25 " transform="matrix(0.1, 0, 0, -0.1, 0, 169)"/>
<path fill="none" stroke-width="24" stroke-linecap="round" stroke-linejoin="miter" stroke="rgb(0%, 0%, 0%)" stroke-opacity="1" stroke-miterlimit="3.25" d="M 1205.351562 291.914062 L 1205.351562 291.914062 " transform="matrix(0.1, 0, 0, -0.1, 0, 169)"/>
<path fill="none" stroke-width="24" stroke-linecap="round" stroke-linejoin="miter" stroke="rgb(0%, 0%, 0%)" stroke-opacity="1" stroke-miterlimit="3.25" d="M 1126.835938 90.117188 L 1126.835938 90.117188 " transform="matrix(0.1, 0, 0, -0.1, 0, 169)"/>
<path fill="none" stroke-width="24" stroke-linecap="round" stroke-linejoin="miter" stroke="rgb(0%, 0%, 0%)" stroke-opacity="1" stroke-miterlimit="3.25" d="M 1158.203125 577.8125 L 1158.203125 577.8125 " transform="matrix(0.1, 0, 0, -0.1, 0, 169)"/>
<path fill="none" stroke-width="24" stroke-linecap="round" stroke-linejoin="miter" stroke="rgb(0%, 0%, 0%)" stroke-opacity="1" stroke-miterlimit="3.25" d="M 2831.015625 185.898438 L 2831.015625 185.898438 " transform="matrix(0.1, 0, 0, -0.1, 0, 169)"/>
<path fill="none" stroke-width="24" stroke-linecap="round" stroke-linejoin="miter" stroke="rgb(0%, 0%, 0%)" stroke-opacity="1" stroke-miterlimit="3.25" d="M 2313.710938 483.554688 L 2313.710938 483.554688 " transform="matrix(0.1, 0, 0, -0.1, 0, 169)"/>
<path fill="none" stroke-width="24" stroke-linecap="round" stroke-linejoin="miter" stroke="rgb(0%, 0%, 0%)" stroke-opacity="1" stroke-miterlimit="3.25" d="M 3036.171875 715.195312 L 3036.171875 715.195312 " transform="matrix(0.1, 0, 0, -0.1, 0, 169)"/>
<path fill="none" stroke-width="24" stroke-linecap="round" stroke-linejoin="miter" stroke="rgb(0%, 0%, 0%)" stroke-opacity="1" stroke-miterlimit="3.25" d="M 2918.164062 1059.53125 L 2918.164062 1059.53125 " transform="matrix(0.1, 0, 0, -0.1, 0, 169)"/>
<path fill="none" stroke-width="24" stroke-linecap="round" stroke-linejoin="miter" stroke="rgb(0%, 0%, 0%)" stroke-opacity="1" stroke-miterlimit="3.25" d="M 2142.265625 259.0625 L 2142.265625 259.0625 " transform="matrix(0.1, 0, 0, -0.1, 0, 169)"/>
<path fill="none" stroke-width="24" stroke-linecap="round" stroke-linejoin="miter" stroke="rgb(0%, 0%, 0%)" stroke-opacity="1" stroke-miterlimit="3.25" d="M 2877.734375 145.117188 L 2877.734375 145.117188 " transform="matrix(0.1, 0, 0, -0.1, 0, 169)"/>
<path fill="none" stroke-width="24" stroke-linecap="round" stroke-linejoin="miter" stroke="rgb(0%, 0%, 0%)" stroke-opacity="1" stroke-miterlimit="3.25" d="M 3163.867188 305.703125 L 3163.867188 305.703125 " transform="matrix(0.1, 0, 0, -0.1, 0, 169)"/>
<path fill="none" stroke-width="24" stroke-linecap="round" stroke-linejoin="miter" stroke="rgb(0%, 0%, 0%)" stroke-opacity="1" stroke-miterlimit="3.25" d="M 1995.3125 429.648438 L 1995.3125 429.648438 " transform="matrix(0.1, 0, 0, -0.1, 0, 169)"/>
<path fill="none" stroke-width="24" stroke-linecap="round" stroke-linejoin="miter" stroke="rgb(0%, 0%, 0%)" stroke-opacity="1" stroke-miterlimit="3.25" d="M 2744.101562 113.085938 L 2744.101562 113.085938 " transform="matrix(0.1, 0, 0, -0.1, 0, 169)"/>
<path fill="none" stroke-width="24" stroke-linecap="round" stroke-linejoin="miter" stroke="rgb(0%, 0%, 0%)" stroke-opacity="1" stroke-miterlimit="3.25" d="M 2194.609375 618.046875 L 2194.609375 618.046875 " transform="matrix(0.1, 0, 0, -0.1, 0, 169)"/>
<path fill="none" stroke-width="24" stroke-linecap="round" stroke-linejoin="miter" stroke="rgb(0%, 0%, 0%)" stroke-opacity="1" stroke-miterlimit="3.25" d="M 2153.359375 1294.023438 L 2153.359375 1294.023438 " transform="matrix(0.1, 0, 0, -0.1, 0, 169)"/>
<path fill="none" stroke-width="24" stroke-linecap="round" stroke-linejoin="miter" stroke="rgb(0%, 0%, 0%)" stroke-opacity="1" stroke-miterlimit="3.25" d="M 1822.539062 1235.039062 L 1822.539062 1235.039062 " transform="matrix(0.1, 0, 0, -0.1, 0, 169)"/>
<path fill="none" stroke-width="24" stroke-linecap="round" stroke-linejoin="miter" stroke="rgb(0%, 0%, 0%)" stroke-opacity="1" stroke-miterlimit="3.25" d="M 2489.453125 1191.796875 L 2489.453125 1191.796875 " transform="matrix(0.1, 0, 0, -0.1, 0, 169)"/>
<path fill="none" stroke-width="24" stroke-linecap="round" stroke-linejoin="miter" stroke="rgb(0%, 0%, 0%)" stroke-opacity="1" stroke-miterlimit="3.25" d="M 2675.9375 835.117188 L 2675.9375 835.117188 " transform="matrix(0.1, 0, 0, -0.1, 0, 169)"/>
<path fill="none" stroke-width="24" stroke-linecap="round" stroke-linejoin="miter" stroke="rgb(0%, 0%, 0%)" stroke-opacity="1" stroke-miterlimit="3.25" d="M 2620.390625 560.195312 L 2620.390625 560.195312 " transform="matrix(0.1, 0, 0, -0.1, 0, 169)"/>
<path fill="none" stroke-width="24" stroke-linecap="round" stroke-linejoin="miter" stroke="rgb(0%, 0%, 0%)" stroke-opacity="1" stroke-miterlimit="3.25" d="M 2924.882812 1385.742188 L 2924.882812 1385.742188 " transform="matrix(0.1, 0, 0, -0.1, 0, 169)"/>
<path fill="none" stroke-width="24" stroke-linecap="round" stroke-linejoin="miter" stroke="rgb(0%, 0%, 0%)" stroke-opacity="1" stroke-miterlimit="3.25" d="M 2118.75 384.804688 L 2118.75 384.804688 " transform="matrix(0.1, 0, 0, -0.1, 0, 169)"/>
<path fill="none" stroke-width="24" stroke-linecap="round" stroke-linejoin="miter" stroke="rgb(0%, 0%, 0%)" stroke-opacity="1" stroke-miterlimit="3.25" d="M 1687.734375 1324.296875 L 1687.734375 1324.296875 " transform="matrix(0.1, 0, 0, -0.1, 0, 169)"/>
<path fill="none" stroke-width="24" stroke-linecap="round" stroke-linejoin="miter" stroke="rgb(0%, 0%, 0%)" stroke-opacity="1" stroke-miterlimit="3.25" d="M 2121.992188 162.734375 L 2121.992188 162.734375 " transform="matrix(0.1, 0, 0, -0.1, 0, 169)"/>
<path fill="none" stroke-width="24" stroke-linecap="round" stroke-linejoin="miter" stroke="rgb(0%, 0%, 0%)" stroke-opacity="1" stroke-miterlimit="3.25" d="M 2859.53125 978.28125 L 2859.53125 978.28125 " transform="matrix(0.1, 0, 0, -0.1, 0, 169)"/>
<path fill="none" stroke-width="24" stroke-linecap="round" stroke-linejoin="miter" stroke="rgb(0%, 0%, 0%)" stroke-opacity="1" stroke-miterlimit="3.25" d="M 2545.039062 133.28125 L 2545.039062 133.28125 " transform="matrix(0.1, 0, 0, -0.1, 0, 169)"/>
<path fill="none" stroke-width="24" stroke-linecap="round" stroke-linejoin="miter" stroke="rgb(0%, 0%, 0%)" stroke-opacity="1" stroke-miterlimit="3.25" d="M 2305.546875 443.867188 L 2305.546875 443.867188 " transform="matrix(0.1, 0, 0, -0.1, 0, 169)"/>
<path fill="none" stroke-width="24" stroke-linecap="round" stroke-linejoin="miter" stroke="rgb(0%, 0%, 0%)" stroke-opacity="1" stroke-miterlimit="3.25" d="M 2032.265625 449.414062 L 2032.265625 449.414062 " transform="matrix(0.1, 0, 0, -0.1, 0, 169)"/>
<path fill="none" stroke-width="24" stroke-linecap="round" stroke-linejoin="miter" stroke="rgb(0%, 0%, 0%)" stroke-opacity="1" stroke-miterlimit="3.25" d="M 2123.59375 818.984375 L 2123.59375 818.984375 " transform="matrix(0.1, 0, 0, -0.1, 0, 169)"/>
<path fill="none" stroke-width="24" stroke-linecap="round" stroke-linejoin="miter" stroke="rgb(0%, 0%, 0%)" stroke-opacity="1" stroke-miterlimit="3.25" d="M 2709.921875 867.8125 L 2709.921875 867.8125 " transform="matrix(0.1, 0, 0, -0.1, 0, 169)"/>
<path fill="none" stroke-width="24" stroke-linecap="round" stroke-linejoin="miter" stroke="rgb(0%, 0%, 0%)" stroke-opacity="1" stroke-miterlimit="3.25" d="M 2614.765625 1594.023438 L 2614.765625 1594.023438 " transform="matrix(0.1, 0, 0, -0.1, 0, 169)"/>
<path fill="none" stroke-width="24" stroke-linecap="round" stroke-linejoin="miter" stroke="rgb(0%, 0%, 0%)" stroke-opacity="1" stroke-miterlimit="3.25" d="M 1730.078125 391.25 L 1730.078125 391.25 " transform="matrix(0.1, 0, 0, -0.1, 0, 169)"/>
<path fill="none" stroke-width="24" stroke-linecap="round" stroke-linejoin="miter" stroke="rgb(0%, 0%, 0%)" stroke-opacity="1" stroke-miterlimit="3.25" d="M 2856.992188 291.914062 L 2856.992188 291.914062 " transform="matrix(0.1, 0, 0, -0.1, 0, 169)"/>
<path fill="none" stroke-width="24" stroke-linecap="round" stroke-linejoin="miter" stroke="rgb(0%, 0%, 0%)" stroke-opacity="1" stroke-miterlimit="3.25" d="M 2778.4375 90.117188 L 2778.4375 90.117188 " transform="matrix(0.1, 0, 0, -0.1, 0, 169)"/>
<path fill="none" stroke-width="24" stroke-linecap="round" stroke-linejoin="miter" stroke="rgb(0%, 0%, 0%)" stroke-opacity="1" stroke-miterlimit="3.25" d="M 2809.84375 577.8125 L 2809.84375 577.8125 " transform="matrix(0.1, 0, 0, -0.1, 0, 169)"/>
<path fill-rule="nonzero" fill="rgb(100%, 100%, 100%)" fill-opacity="1" d="M 283.101562 150.410156 L 287.773438 154.488281 L 277.84375 159.988281 L 274.410156 157.691406 L 254.503906 155.671875 L 212.199219 152.726562 L 214.226562 143.09375 L 173.007812 129.875 L 199.53125 126.035156 L 203.226562 124.058594 L 211.875 130.519531 L 230.554688 124.613281 L 231.371094 120.644531 L 219.460938 107.195312 L 212.359375 87.101562 L 182.253906 45.496094 L 168.773438 36.570312 L 215.335938 39.597656 L 248.945312 49.820312 L 261.476562 9.597656 L 292.488281 30.425781 L 291.816406 63.046875 L 285.953125 71.171875 L 270.992188 82.21875 L 267.59375 85.488281 L 262.039062 112.980469 L 280.984375 111.21875 L 303.617188 97.480469 L 316.386719 138.429688 L 285.699219 139.808594 "/>
<path fill="none" stroke-width="4" stroke-linecap="square" stroke-linejoin="miter" stroke="rgb(0%, 0%, 0%)" stroke-opacity="1" stroke-miterlimit="3.25" d="M 2831.015625 185.898438 L 2877.734375 145.117188 L 2778.4375 90.117188 L 2744.101562 113.085938 L 2545.039062 133.28125 L 2121.992188 162.734375 L 2142.265625 259.0625 L 1730.078125 391.25 L 1995.3125 429.648438 L 2032.265625 449.414062 L 2118.75 384.804688 L 2305.546875 443.867188 L 2313.710938 483.554688 L 2194.609375 618.046875 L 2123.59375 818.984375 L 1822.539062 1235.039062 L 1687.734375 1324.296875 L 2153.359375 1294.023438 L 2489.453125 1191.796875 L 2614.765625 1594.023438 L 2924.882812 1385.742188 L 2918.164062 1059.53125 L 2859.53125 978.28125 L 2709.921875 867.8125 L 2675.9375 835.117188 L 2620.390625 560.195312 L 2809.84375 577.8125 L 3036.171875 715.195312 L 3163.867188 305.703125 L 2856.992188 291.914062 Z M 2831.015625 185.898438 " transform="matrix(0.1, 0, 0, -0.1, 0, 169)"/>
</svg>
