<?xml version="1.0" encoding="UTF-8"?>
<svg xmlns="http://www.w3.org/2000/svg" xmlns:xlink="http://www.w3.org/1999/xlink" width="124.94" height="199.44" viewBox="0 0 124.94 199.44">
<path fill="none" stroke-width="5" stroke-linecap="round" stroke-linejoin="round" stroke="rgb(0%, 0%, 0%)" stroke-opacity="1" stroke-miterlimit="10" d="M 1132.03219 1078.476038 L 1219.346984 179.591975 " transform="matrix(0.09972, 0, 0, -0.09972, 0.145, 198.881568)"/>
<path fill="none" stroke-width="5" stroke-linecap="round" stroke-linejoin="round" stroke="rgb(0%, 0%, 0%)" stroke-opacity="1" stroke-miterlimit="10" d="M 843.059003 1946.884143 L 1219.346984 179.591975 " transform="matrix(0.09972, 0, 0, -0.09972, 0.145, 198.881568)"/>
<path fill="none" stroke-width="5" stroke-linecap="round" stroke-linejoin="round" stroke="rgb(0%, 0%, 0%)" stroke-opacity="1" stroke-miterlimit="10" d="M 30.001191 663.172563 L 843.059003 1946.884143 " transform="matrix(0.09972, 0, 0, -0.09972, 0.145, 198.881568)"/>
<path fill="none" stroke-width="5" stroke-linecap="round" stroke-linejoin="round" stroke="rgb(0%, 0%, 0%)" stroke-opacity="1" stroke-miterlimit="10" d="M 30.001191 663.172563 L 1219.346984 179.591975 " transform="matrix(0.09972, 0, 0, -0.09972, 0.145, 198.881568)"/>
<path fill="none" stroke-width="5" stroke-linecap="round" stroke-linejoin="round" stroke="rgb(0%, 0%, 0%)" stroke-opacity="1" stroke-miterlimit="10" d="M 843.059003 1946.884143 L 1132.03219 1078.476038 " transform="matrix(0.09972, 0, 0, -0.09972, 0.145, 198.881568)"/>
<path fill="none" stroke-width="5" stroke-linecap="round" stroke-linejoin="round" stroke="rgb(50%, 50%, 50%)" stroke-opacity="1" stroke-dasharray="24.976" stroke-miterlimit="10" d="M 30.001191 663.172563 L 1132.03219 1078.476038 " transform="matrix(0.09972, 0, 0, -0.09972, 0.145, 198.881568)"/>
</svg>
