<?xml version="1.0" encoding="UTF-8"?>
<svg xmlns="http://www.w3.org/2000/svg" xmlns:xlink="http://www.w3.org/1999/xlink" width="391.44" height="72.5" viewBox="0 0 391.44 72.5">
<path fill="none" stroke-width="5" stroke-linecap="round" stroke-linejoin="round" stroke="rgb(0%, 0%, 0%)" stroke-opacity="1" stroke-miterlimit="10" d="M 438.393664 362.477909 L 438.393664 362.477909 " transform="matrix(0.0993151, 0, 0, -0.0993151, 1.062466, 72.003425)"/>
<path fill="none" stroke-width="69.0365" stroke-linecap="round" stroke-linejoin="round" stroke="rgb(100%, 0%, 0%)" stroke-opacity="1" stroke-miterlimit="10" d="M 438.393664 362.477909 L 438.393664 362.477909 " transform="matrix(0.0993151, 0, 0, -0.0993151, 1.062466, 72.003425)"/>
<path fill="none" stroke-width="69.0365" stroke-linecap="round" stroke-linejoin="round" stroke="rgb(100%, 0%, 0%)" stroke-opacity="1" stroke-miterlimit="10" d="M 438.393664 362.477909 L 438.393664 362.477909 " transform="matrix(0.0993151, 0, 0, -0.0993151, 1.062466, 72.003425)"/>
<path fill="none" stroke-width="5" stroke-linecap="round" stroke-linejoin="round" stroke="rgb(0%, 0%, 0%)" stroke-opacity="1" stroke-miterlimit="10" d="M 1471.799914 362.477909 L 1471.799914 362.477909 " transform="matrix(0.0993151, 0, 0, -0.0993151, 1.062466, 72.003425)"/>
<path fill="none" stroke-width="5" stroke-linecap="round" stroke-linejoin="round" stroke="rgb(0%, 0%, 0%)" stroke-opacity="1" stroke-miterlimit="10" d="M 1471.799914 362.477909 L 923.749267 678.903017 L 923.749267 46.092134 L 1471.799914 362.477909 " transform="matrix(0.0993151, 0, 0, -0.0993151, 1.062466, 72.003425)"/>
<path fill="none" stroke-width="57.5439" stroke-linecap="round" stroke-linejoin="round" stroke="rgb(100%, 0%, 0%)" stroke-opacity="1" stroke-miterlimit="10" d="M 1471.799914 362.477909 L 1471.799914 362.477909 " transform="matrix(0.0993151, 0, 0, -0.0993151, 1.062466, 72.003425)"/>
<path fill="none" stroke-width="57.5439" stroke-linecap="round" stroke-linejoin="round" stroke="rgb(100%, 0%, 0%)" stroke-opacity="1" stroke-miterlimit="10" d="M 1471.799914 362.477909 L 1471.799914 362.477909 " transform="matrix(0.0993151, 0, 0, -0.0993151, 1.062466, 72.003425)"/>
<path fill="none" stroke-width="57.5439" stroke-linecap="round" stroke-linejoin="round" stroke="rgb(100%, 0%, 0%)" stroke-opacity="1" stroke-miterlimit="10" d="M 923.749267 678.903017 L 923.749267 678.903017 " transform="matrix(0.0993151, 0, 0, -0.0993151, 1.062466, 72.003425)"/>
<path fill="none" stroke-width="57.5439" stroke-linecap="round" stroke-linejoin="round" stroke="rgb(100%, 0%, 0%)" stroke-opacity="1" stroke-miterlimit="10" d="M 923.749267 46.092134 L 923.749267 46.092134 " transform="matrix(0.0993151, 0, 0, -0.0993151, 1.062466, 72.003425)"/>
<path fill="none" stroke-width="5" stroke-linecap="round" stroke-linejoin="round" stroke="rgb(0%, 0%, 0%)" stroke-opacity="1" stroke-miterlimit="10" d="M 2231.220172 362.477909 L 2231.220172 362.477909 " transform="matrix(0.0993151, 0, 0, -0.0993151, 1.062466, 72.003425)"/>
<path fill="none" stroke-width="5" stroke-linecap="round" stroke-linejoin="round" stroke="rgb(0%, 0%, 0%)" stroke-opacity="1" stroke-miterlimit="10" d="M 2231.220172 362.477909 L 1957.194849 520.710129 L 1957.194849 204.285022 L 2231.220172 362.477909 " transform="matrix(0.0993151, 0, 0, -0.0993151, 1.062466, 72.003425)"/>
<path fill="none" stroke-width="5" stroke-linecap="round" stroke-linejoin="round" stroke="rgb(0%, 0%, 0%)" stroke-opacity="1" stroke-miterlimit="10" d="M 2231.220172 362.477909 L 1683.169526 678.903017 L 1683.169526 46.092134 L 2231.220172 362.477909 " transform="matrix(0.0993151, 0, 0, -0.0993151, 1.062466, 72.003425)"/>
<path fill="none" stroke-width="57.5439" stroke-linecap="round" stroke-linejoin="round" stroke="rgb(100%, 0%, 0%)" stroke-opacity="1" stroke-miterlimit="10" d="M 2231.220172 362.477909 L 2231.220172 362.477909 " transform="matrix(0.0993151, 0, 0, -0.0993151, 1.062466, 72.003425)"/>
<path fill="none" stroke-width="57.5439" stroke-linecap="round" stroke-linejoin="round" stroke="rgb(100%, 0%, 0%)" stroke-opacity="1" stroke-miterlimit="10" d="M 2231.220172 362.477909 L 2231.220172 362.477909 " transform="matrix(0.0993151, 0, 0, -0.0993151, 1.062466, 72.003425)"/>
<path fill="none" stroke-width="57.5439" stroke-linecap="round" stroke-linejoin="round" stroke="rgb(100%, 0%, 0%)" stroke-opacity="1" stroke-miterlimit="10" d="M 1957.194849 520.710129 L 1957.194849 520.710129 " transform="matrix(0.0993151, 0, 0, -0.0993151, 1.062466, 72.003425)"/>
<path fill="none" stroke-width="57.5439" stroke-linecap="round" stroke-linejoin="round" stroke="rgb(100%, 0%, 0%)" stroke-opacity="1" stroke-miterlimit="10" d="M 1957.194849 204.285022 L 1957.194849 204.285022 " transform="matrix(0.0993151, 0, 0, -0.0993151, 1.062466, 72.003425)"/>
<path fill="none" stroke-width="57.5439" stroke-linecap="round" stroke-linejoin="round" stroke="rgb(100%, 0%, 0%)" stroke-opacity="1" stroke-miterlimit="10" d="M 1683.169526 678.903017 L 1683.169526 678.903017 " transform="matrix(0.0993151, 0, 0, -0.0993151, 1.062466, 72.003425)"/>
<path fill="none" stroke-width="57.5439" stroke-linecap="round" stroke-linejoin="round" stroke="rgb(100%, 0%, 0%)" stroke-opacity="1" stroke-miterlimit="10" d="M 1683.169526 46.092134 L 1683.169526 46.092134 " transform="matrix(0.0993151, 0, 0, -0.0993151, 1.062466, 72.003425)"/>
<path fill="none" stroke-width="57.5439" stroke-linecap="round" stroke-linejoin="round" stroke="rgb(100%, 0%, 0%)" stroke-opacity="1" stroke-miterlimit="10" d="M 1683.169526 362.477909 L 1683.169526 362.477909 " transform="matrix(0.0993151, 0, 0, -0.0993151, 1.062466, 72.003425)"/>
<path fill="none" stroke-width="5" stroke-linecap="round" stroke-linejoin="round" stroke="rgb(0%, 0%, 0%)" stroke-opacity="1" stroke-miterlimit="10" d="M 2990.601099 362.477909 L 2990.601099 362.477909 " transform="matrix(0.0993151, 0, 0, -0.0993151, 1.062466, 72.003425)"/>
<path fill="none" stroke-width="5" stroke-linecap="round" stroke-linejoin="round" stroke="rgb(0%, 0%, 0%)" stroke-opacity="1" stroke-miterlimit="10" d="M 2990.601099 362.477909 L 2807.943772 467.966056 L 2807.943772 257.029095 L 2990.601099 362.477909 " transform="matrix(0.0993151, 0, 0, -0.0993151, 1.062466, 72.003425)"/>
<path fill="none" stroke-width="5" stroke-linecap="round" stroke-linejoin="round" stroke="rgb(0%, 0%, 0%)" stroke-opacity="1" stroke-miterlimit="10" d="M 2990.601099 362.477909 L 2625.247112 573.414871 L 2625.247112 151.540948 L 2990.601099 362.477909 " transform="matrix(0.0993151, 0, 0, -0.0993151, 1.062466, 72.003425)"/>
<path fill="none" stroke-width="5" stroke-linecap="round" stroke-linejoin="round" stroke="rgb(0%, 0%, 0%)" stroke-opacity="1" stroke-miterlimit="10" d="M 2990.601099 362.477909 L 2442.550453 678.903017 L 2442.550453 46.092134 L 2990.601099 362.477909 " transform="matrix(0.0993151, 0, 0, -0.0993151, 1.062466, 72.003425)"/>
<path fill="none" stroke-width="57.5439" stroke-linecap="round" stroke-linejoin="round" stroke="rgb(100%, 0%, 0%)" stroke-opacity="1" stroke-miterlimit="10" d="M 2990.601099 362.477909 L 2990.601099 362.477909 " transform="matrix(0.0993151, 0, 0, -0.0993151, 1.062466, 72.003425)"/>
<path fill="none" stroke-width="57.5439" stroke-linecap="round" stroke-linejoin="round" stroke="rgb(100%, 0%, 0%)" stroke-opacity="1" stroke-miterlimit="10" d="M 2990.601099 362.477909 L 2990.601099 362.477909 " transform="matrix(0.0993151, 0, 0, -0.0993151, 1.062466, 72.003425)"/>
<path fill="none" stroke-width="57.5439" stroke-linecap="round" stroke-linejoin="round" stroke="rgb(100%, 0%, 0%)" stroke-opacity="1" stroke-miterlimit="10" d="M 2807.943772 467.966056 L 2807.943772 467.966056 " transform="matrix(0.0993151, 0, 0, -0.0993151, 1.062466, 72.003425)"/>
<path fill="none" stroke-width="57.5439" stroke-linecap="round" stroke-linejoin="round" stroke="rgb(100%, 0%, 0%)" stroke-opacity="1" stroke-miterlimit="10" d="M 2807.943772 257.029095 L 2807.943772 257.029095 " transform="matrix(0.0993151, 0, 0, -0.0993151, 1.062466, 72.003425)"/>
<path fill="none" stroke-width="57.5439" stroke-linecap="round" stroke-linejoin="round" stroke="rgb(100%, 0%, 0%)" stroke-opacity="1" stroke-miterlimit="10" d="M 2625.247112 573.414871 L 2625.247112 573.414871 " transform="matrix(0.0993151, 0, 0, -0.0993151, 1.062466, 72.003425)"/>
<path fill="none" stroke-width="57.5439" stroke-linecap="round" stroke-linejoin="round" stroke="rgb(100%, 0%, 0%)" stroke-opacity="1" stroke-miterlimit="10" d="M 2625.247112 151.540948 L 2625.247112 151.540948 " transform="matrix(0.0993151, 0, 0, -0.0993151, 1.062466, 72.003425)"/>
<path fill="none" stroke-width="57.5439" stroke-linecap="round" stroke-linejoin="round" stroke="rgb(100%, 0%, 0%)" stroke-opacity="1" stroke-miterlimit="10" d="M 2625.247112 362.477909 L 2625.247112 362.477909 " transform="matrix(0.0993151, 0, 0, -0.0993151, 1.062466, 72.003425)"/>
<path fill="none" stroke-width="57.5439" stroke-linecap="round" stroke-linejoin="round" stroke="rgb(100%, 0%, 0%)" stroke-opacity="1" stroke-miterlimit="10" d="M 2442.550453 678.903017 L 2442.550453 678.903017 " transform="matrix(0.0993151, 0, 0, -0.0993151, 1.062466, 72.003425)"/>
<path fill="none" stroke-width="57.5439" stroke-linecap="round" stroke-linejoin="round" stroke="rgb(100%, 0%, 0%)" stroke-opacity="1" stroke-miterlimit="10" d="M 2442.550453 46.092134 L 2442.550453 46.092134 " transform="matrix(0.0993151, 0, 0, -0.0993151, 1.062466, 72.003425)"/>
<path fill="none" stroke-width="57.5439" stroke-linecap="round" stroke-linejoin="round" stroke="rgb(100%, 0%, 0%)" stroke-opacity="1" stroke-miterlimit="10" d="M 2442.550453 257.029095 L 2442.550453 257.029095 " transform="matrix(0.0993151, 0, 0, -0.0993151, 1.062466, 72.003425)"/>
<path fill="none" stroke-width="57.5439" stroke-linecap="round" stroke-linejoin="round" stroke="rgb(100%, 0%, 0%)" stroke-opacity="1" stroke-miterlimit="10" d="M 2442.550453 467.966056 L 2442.550453 467.966056 " transform="matrix(0.0993151, 0, 0, -0.0993151, 1.062466, 72.003425)"/>
<path fill="none" stroke-width="5" stroke-linecap="round" stroke-linejoin="round" stroke="rgb(0%, 0%, 0%)" stroke-opacity="1" stroke-miterlimit="10" d="M 3750.021358 362.477909 L 3750.021358 362.477909 " transform="matrix(0.0993151, 0, 0, -0.0993151, 1.062466, 72.003425)"/>
<path fill="none" stroke-width="5" stroke-linecap="round" stroke-linejoin="round" stroke="rgb(0%, 0%, 0%)" stroke-opacity="1" stroke-miterlimit="10" d="M 3750.021358 362.477909 L 3612.98903 441.574353 L 3612.98903 283.381466 L 3750.021358 362.477909 " transform="matrix(0.0993151, 0, 0, -0.0993151, 1.062466, 72.003425)"/>
<path fill="none" stroke-width="5" stroke-linecap="round" stroke-linejoin="round" stroke="rgb(0%, 0%, 0%)" stroke-opacity="1" stroke-miterlimit="10" d="M 3750.021358 362.477909 L 3475.996034 520.710129 L 3475.996034 204.285022 L 3750.021358 362.477909 " transform="matrix(0.0993151, 0, 0, -0.0993151, 1.062466, 72.003425)"/>
<path fill="none" stroke-width="5" stroke-linecap="round" stroke-linejoin="round" stroke="rgb(0%, 0%, 0%)" stroke-opacity="1" stroke-miterlimit="10" d="M 3750.021358 362.477909 L 3338.963707 599.806573 L 3338.963707 125.188578 L 3750.021358 362.477909 " transform="matrix(0.0993151, 0, 0, -0.0993151, 1.062466, 72.003425)"/>
<path fill="none" stroke-width="5" stroke-linecap="round" stroke-linejoin="round" stroke="rgb(0%, 0%, 0%)" stroke-opacity="1" stroke-miterlimit="10" d="M 3750.021358 362.477909 L 3201.970711 678.903017 L 3201.970711 46.092134 L 3750.021358 362.477909 " transform="matrix(0.0993151, 0, 0, -0.0993151, 1.062466, 72.003425)"/>
<path fill="none" stroke-width="57.5439" stroke-linecap="round" stroke-linejoin="round" stroke="rgb(100%, 0%, 0%)" stroke-opacity="1" stroke-miterlimit="10" d="M 3750.021358 362.477909 L 3750.021358 362.477909 " transform="matrix(0.0993151, 0, 0, -0.0993151, 1.062466, 72.003425)"/>
<path fill="none" stroke-width="57.5439" stroke-linecap="round" stroke-linejoin="round" stroke="rgb(100%, 0%, 0%)" stroke-opacity="1" stroke-miterlimit="10" d="M 3750.021358 362.477909 L 3750.021358 362.477909 " transform="matrix(0.0993151, 0, 0, -0.0993151, 1.062466, 72.003425)"/>
<path fill="none" stroke-width="57.5439" stroke-linecap="round" stroke-linejoin="round" stroke="rgb(100%, 0%, 0%)" stroke-opacity="1" stroke-miterlimit="10" d="M 3612.98903 441.574353 L 3612.98903 441.574353 " transform="matrix(0.0993151, 0, 0, -0.0993151, 1.062466, 72.003425)"/>
<path fill="none" stroke-width="57.5439" stroke-linecap="round" stroke-linejoin="round" stroke="rgb(100%, 0%, 0%)" stroke-opacity="1" stroke-miterlimit="10" d="M 3612.98903 283.381466 L 3612.98903 283.381466 " transform="matrix(0.0993151, 0, 0, -0.0993151, 1.062466, 72.003425)"/>
<path fill="none" stroke-width="57.5439" stroke-linecap="round" stroke-linejoin="round" stroke="rgb(100%, 0%, 0%)" stroke-opacity="1" stroke-miterlimit="10" d="M 3475.996034 520.710129 L 3475.996034 520.710129 " transform="matrix(0.0993151, 0, 0, -0.0993151, 1.062466, 72.003425)"/>
<path fill="none" stroke-width="57.5439" stroke-linecap="round" stroke-linejoin="round" stroke="rgb(100%, 0%, 0%)" stroke-opacity="1" stroke-miterlimit="10" d="M 3475.996034 204.285022 L 3475.996034 204.285022 " transform="matrix(0.0993151, 0, 0, -0.0993151, 1.062466, 72.003425)"/>
<path fill="none" stroke-width="57.5439" stroke-linecap="round" stroke-linejoin="round" stroke="rgb(100%, 0%, 0%)" stroke-opacity="1" stroke-miterlimit="10" d="M 3475.996034 362.477909 L 3475.996034 362.477909 " transform="matrix(0.0993151, 0, 0, -0.0993151, 1.062466, 72.003425)"/>
<path fill="none" stroke-width="57.5439" stroke-linecap="round" stroke-linejoin="round" stroke="rgb(100%, 0%, 0%)" stroke-opacity="1" stroke-miterlimit="10" d="M 3338.963707 599.806573 L 3338.963707 599.806573 " transform="matrix(0.0993151, 0, 0, -0.0993151, 1.062466, 72.003425)"/>
<path fill="none" stroke-width="57.5439" stroke-linecap="round" stroke-linejoin="round" stroke="rgb(100%, 0%, 0%)" stroke-opacity="1" stroke-miterlimit="10" d="M 3338.963707 125.188578 L 3338.963707 125.188578 " transform="matrix(0.0993151, 0, 0, -0.0993151, 1.062466, 72.003425)"/>
<path fill="none" stroke-width="57.5439" stroke-linecap="round" stroke-linejoin="round" stroke="rgb(100%, 0%, 0%)" stroke-opacity="1" stroke-miterlimit="10" d="M 3338.963707 283.381466 L 3338.963707 283.381466 " transform="matrix(0.0993151, 0, 0, -0.0993151, 1.062466, 72.003425)"/>
<path fill="none" stroke-width="57.5439" stroke-linecap="round" stroke-linejoin="round" stroke="rgb(100%, 0%, 0%)" stroke-opacity="1" stroke-miterlimit="10" d="M 3338.963707 441.574353 L 3338.963707 441.574353 " transform="matrix(0.0993151, 0, 0, -0.0993151, 1.062466, 72.003425)"/>
<path fill="none" stroke-width="57.5439" stroke-linecap="round" stroke-linejoin="round" stroke="rgb(100%, 0%, 0%)" stroke-opacity="1" stroke-miterlimit="10" d="M 3201.970711 678.903017 L 3201.970711 678.903017 " transform="matrix(0.0993151, 0, 0, -0.0993151, 1.062466, 72.003425)"/>
<path fill="none" stroke-width="57.5439" stroke-linecap="round" stroke-linejoin="round" stroke="rgb(100%, 0%, 0%)" stroke-opacity="1" stroke-miterlimit="10" d="M 3201.970711 46.092134 L 3201.970711 46.092134 " transform="matrix(0.0993151, 0, 0, -0.0993151, 1.062466, 72.003425)"/>
<path fill="none" stroke-width="57.5439" stroke-linecap="round" stroke-linejoin="round" stroke="rgb(100%, 0%, 0%)" stroke-opacity="1" stroke-miterlimit="10" d="M 3201.970711 204.285022 L 3201.970711 204.285022 " transform="matrix(0.0993151, 0, 0, -0.0993151, 1.062466, 72.003425)"/>
<path fill="none" stroke-width="57.5439" stroke-linecap="round" stroke-linejoin="round" stroke="rgb(100%, 0%, 0%)" stroke-opacity="1" stroke-miterlimit="10" d="M 3201.970711 362.477909 L 3201.970711 362.477909 " transform="matrix(0.0993151, 0, 0, -0.0993151, 1.062466, 72.003425)"/>
<path fill="none" stroke-width="57.5439" stroke-linecap="round" stroke-linejoin="round" stroke="rgb(100%, 0%, 0%)" stroke-opacity="1" stroke-miterlimit="10" d="M 3201.970711 520.710129 L 3201.970711 520.710129 " transform="matrix(0.0993151, 0, 0, -0.0993151, 1.062466, 72.003425)"/>
</svg>
