<?xml version="1.0" encoding="UTF-8"?>
<svg xmlns="http://www.w3.org/2000/svg" xmlns:xlink="http://www.w3.org/1999/xlink" width="240" height="126" viewBox="0 0 240 126">
<path fill="none" stroke-width="3.75" stroke-linecap="square" stroke-linejoin="miter" stroke="rgb(0%, 0%, 0%)" stroke-opacity="1" stroke-miterlimit="3.239" d="M 116.25 223.75 L 580.625 497.5 " transform="matrix(0.1, 0, 0, -0.1, 0, 126)"/>
<path fill="none" stroke-width="3.75" stroke-linecap="square" stroke-linejoin="miter" stroke="rgb(0%, 0%, 0%)" stroke-opacity="1" stroke-miterlimit="3.239" d="M 116.25 223.75 L 499.375 544.375 " transform="matrix(0.1, 0, 0, -0.1, 0, 126)"/>
<path fill="none" stroke-width="3.75" stroke-linecap="square" stroke-linejoin="miter" stroke="rgb(0%, 0%, 0%)" stroke-opacity="1" stroke-miterlimit="3.239" d="M 116.25 223.75 L 580.625 364.375 " transform="matrix(0.1, 0, 0, -0.1, 0, 126)"/>
<path fill="none" stroke-width="3.75" stroke-linecap="square" stroke-linejoin="miter" stroke="rgb(0%, 0%, 0%)" stroke-opacity="1" stroke-miterlimit="3.239" d="M 116.25 223.75 L 580.625 763.125 " transform="matrix(0.1, 0, 0, -0.1, 0, 126)"/>
<path fill="none" stroke-width="3.75" stroke-linecap="square" stroke-linejoin="miter" stroke="rgb(0%, 0%, 0%)" stroke-opacity="1" stroke-miterlimit="3.239" d="M 116.25 223.75 L 1045 223.75 " transform="matrix(0.1, 0, 0, -0.1, 0, 126)"/>
<path fill="none" stroke-width="3.75" stroke-linecap="square" stroke-linejoin="miter" stroke="rgb(0%, 0%, 0%)" stroke-opacity="1" stroke-miterlimit="3.239" d="M 116.25 223.75 L 580.625 1028.75 " transform="matrix(0.1, 0, 0, -0.1, 0, 126)"/>
<path fill="none" stroke-width="3.75" stroke-linecap="square" stroke-linejoin="miter" stroke="rgb(0%, 0%, 0%)" stroke-opacity="1" stroke-miterlimit="3.239" d="M 661.875 544.375 L 580.625 497.5 " transform="matrix(0.1, 0, 0, -0.1, 0, 126)"/>
<path fill="none" stroke-width="3.75" stroke-linecap="square" stroke-linejoin="miter" stroke="rgb(0%, 0%, 0%)" stroke-opacity="1" stroke-miterlimit="3.239" d="M 661.875 544.375 L 580.625 763.125 " transform="matrix(0.1, 0, 0, -0.1, 0, 126)"/>
<path fill="none" stroke-width="3.75" stroke-linecap="square" stroke-linejoin="miter" stroke="rgb(0%, 0%, 0%)" stroke-opacity="1" stroke-miterlimit="3.239" d="M 661.875 544.375 L 1045 223.75 " transform="matrix(0.1, 0, 0, -0.1, 0, 126)"/>
<path fill="none" stroke-width="3.75" stroke-linecap="square" stroke-linejoin="miter" stroke="rgb(0%, 0%, 0%)" stroke-opacity="1" stroke-miterlimit="3.239" d="M 580.625 497.5 L 499.375 544.375 " transform="matrix(0.1, 0, 0, -0.1, 0, 126)"/>
<path fill="none" stroke-width="3.75" stroke-linecap="square" stroke-linejoin="miter" stroke="rgb(0%, 0%, 0%)" stroke-opacity="1" stroke-miterlimit="3.239" d="M 580.625 497.5 L 580.625 364.375 " transform="matrix(0.1, 0, 0, -0.1, 0, 126)"/>
<path fill="none" stroke-width="3.75" stroke-linecap="square" stroke-linejoin="miter" stroke="rgb(0%, 0%, 0%)" stroke-opacity="1" stroke-miterlimit="3.239" d="M 580.625 497.5 L 580.625 763.125 " transform="matrix(0.1, 0, 0, -0.1, 0, 126)"/>
<path fill="none" stroke-width="3.75" stroke-linecap="square" stroke-linejoin="miter" stroke="rgb(0%, 0%, 0%)" stroke-opacity="1" stroke-miterlimit="3.239" d="M 580.625 497.5 L 1045 223.75 " transform="matrix(0.1, 0, 0, -0.1, 0, 126)"/>
<path fill="none" stroke-width="3.75" stroke-linecap="square" stroke-linejoin="miter" stroke="rgb(0%, 0%, 0%)" stroke-opacity="1" stroke-miterlimit="3.239" d="M 499.375 544.375 L 580.625 763.125 " transform="matrix(0.1, 0, 0, -0.1, 0, 126)"/>
<path fill="none" stroke-width="3.75" stroke-linecap="square" stroke-linejoin="miter" stroke="rgb(0%, 0%, 0%)" stroke-opacity="1" stroke-miterlimit="3.239" d="M 580.625 364.375 L 1045 223.75 " transform="matrix(0.1, 0, 0, -0.1, 0, 126)"/>
<path fill="none" stroke-width="3.75" stroke-linecap="square" stroke-linejoin="miter" stroke="rgb(0%, 0%, 0%)" stroke-opacity="1" stroke-miterlimit="3.239" d="M 580.625 763.125 L 1045 223.75 " transform="matrix(0.1, 0, 0, -0.1, 0, 126)"/>
<path fill="none" stroke-width="3.75" stroke-linecap="square" stroke-linejoin="miter" stroke="rgb(0%, 0%, 0%)" stroke-opacity="1" stroke-miterlimit="3.239" d="M 580.625 763.125 L 580.625 1028.75 " transform="matrix(0.1, 0, 0, -0.1, 0, 126)"/>
<path fill="none" stroke-width="3.75" stroke-linecap="square" stroke-linejoin="miter" stroke="rgb(0%, 0%, 0%)" stroke-opacity="1" stroke-miterlimit="3.239" d="M 1045 223.75 L 580.625 1028.75 " transform="matrix(0.1, 0, 0, -0.1, 0, 126)"/>
<path fill-rule="nonzero" fill="rgb(100%, 0%, 0%)" fill-opacity="1" d="M 13.625 103.625 C 13.625 103.125 13.4375 102.5625 13.0625 102.1875 C 12.6875 101.8125 12.125 101.625 11.625 101.625 C 11.125 101.625 10.5625 101.8125 10.1875 102.1875 C 9.8125 102.5625 9.625 103.125 9.625 103.625 C 9.625 104.125 9.8125 104.6875 10.1875 105.0625 C 10.5625 105.4375 11.125 105.625 11.625 105.625 C 12.125 105.625 12.6875 105.4375 13.0625 105.0625 C 13.4375 104.6875 13.625 104.125 13.625 103.625 "/>
<path fill-rule="nonzero" fill="rgb(100%, 0%, 0%)" fill-opacity="1" d="M 68.1875 71.5625 C 68.1875 71.0625 68 70.5 67.625 70.125 C 67.25 69.75 66.6875 69.5625 66.1875 69.5625 C 65.6875 69.5625 65.125 69.75 64.75 70.125 C 64.375 70.5 64.1875 71.0625 64.1875 71.5625 C 64.1875 72.0625 64.375 72.625 64.75 73 C 65.125 73.375 65.6875 73.5625 66.1875 73.5625 C 66.6875 73.5625 67.25 73.375 67.625 73 C 68 72.625 68.1875 72.0625 68.1875 71.5625 "/>
<path fill-rule="nonzero" fill="rgb(100%, 0%, 0%)" fill-opacity="1" d="M 60.0625 76.25 C 60.0625 75.75 59.875 75.1875 59.5 74.8125 C 59.125 74.4375 58.5625 74.25 58.0625 74.25 C 57.5625 74.25 57 74.4375 56.625 74.8125 C 56.25 75.1875 56.0625 75.75 56.0625 76.25 C 56.0625 76.75 56.25 77.3125 56.625 77.6875 C 57 78.0625 57.5625 78.25 58.0625 78.25 C 58.5625 78.25 59.125 78.0625 59.5 77.6875 C 59.875 77.3125 60.0625 76.75 60.0625 76.25 "/>
<path fill-rule="nonzero" fill="rgb(100%, 0%, 0%)" fill-opacity="1" d="M 51.9375 71.5625 C 51.9375 71.0625 51.75 70.5 51.375 70.125 C 51 69.75 50.4375 69.5625 49.9375 69.5625 C 49.4375 69.5625 48.875 69.75 48.5 70.125 C 48.125 70.5 47.9375 71.0625 47.9375 71.5625 C 47.9375 72.0625 48.125 72.625 48.5 73 C 48.875 73.375 49.4375 73.5625 49.9375 73.5625 C 50.4375 73.5625 51 73.375 51.375 73 C 51.75 72.625 51.9375 72.0625 51.9375 71.5625 "/>
<path fill-rule="nonzero" fill="rgb(100%, 0%, 0%)" fill-opacity="1" d="M 60.0625 89.5625 C 60.0625 89.0625 59.875 88.5 59.5 88.125 C 59.125 87.75 58.5625 87.5625 58.0625 87.5625 C 57.5625 87.5625 57 87.75 56.625 88.125 C 56.25 88.5 56.0625 89.0625 56.0625 89.5625 C 56.0625 90.0625 56.25 90.625 56.625 91 C 57 91.375 57.5625 91.5625 58.0625 91.5625 C 58.5625 91.5625 59.125 91.375 59.5 91 C 59.875 90.625 60.0625 90.0625 60.0625 89.5625 "/>
<path fill-rule="nonzero" fill="rgb(100%, 0%, 0%)" fill-opacity="1" d="M 60.0625 49.6875 C 60.0625 49.1875 59.875 48.625 59.5 48.25 C 59.125 47.875 58.5625 47.6875 58.0625 47.6875 C 57.5625 47.6875 57 47.875 56.625 48.25 C 56.25 48.625 56.0625 49.1875 56.0625 49.6875 C 56.0625 50.1875 56.25 50.75 56.625 51.125 C 57 51.5 57.5625 51.6875 58.0625 51.6875 C 58.5625 51.6875 59.125 51.5 59.5 51.125 C 59.875 50.75 60.0625 50.1875 60.0625 49.6875 "/>
<path fill-rule="nonzero" fill="rgb(100%, 0%, 0%)" fill-opacity="1" d="M 106.5 103.625 C 106.5 103.125 106.3125 102.5625 105.9375 102.1875 C 105.5625 101.8125 105 101.625 104.5 101.625 C 104 101.625 103.4375 101.8125 103.0625 102.1875 C 102.6875 102.5625 102.5 103.125 102.5 103.625 C 102.5 104.125 102.6875 104.6875 103.0625 105.0625 C 103.4375 105.4375 104 105.625 104.5 105.625 C 105 105.625 105.5625 105.4375 105.9375 105.0625 C 106.3125 104.6875 106.5 104.125 106.5 103.625 "/>
<path fill-rule="nonzero" fill="rgb(100%, 0%, 0%)" fill-opacity="1" d="M 60.0625 23.125 C 60.0625 22.625 59.875 22.0625 59.5 21.6875 C 59.125 21.3125 58.5625 21.125 58.0625 21.125 C 57.5625 21.125 57 21.3125 56.625 21.6875 C 56.25 22.0625 56.0625 22.625 56.0625 23.125 C 56.0625 23.625 56.25 24.1875 56.625 24.5625 C 57 24.9375 57.5625 25.125 58.0625 25.125 C 58.5625 25.125 59.125 24.9375 59.5 24.5625 C 59.875 24.1875 60.0625 23.625 60.0625 23.125 "/>
<path fill="none" stroke-width="3.75" stroke-linecap="square" stroke-linejoin="miter" stroke="rgb(0%, 0%, 0%)" stroke-opacity="1" stroke-miterlimit="3.239" d="M 1638.75 441.25 L 1635 806.25 " transform="matrix(0.1, 0, 0, -0.1, 0, 126)"/>
<path fill="none" stroke-width="3.75" stroke-linecap="square" stroke-linejoin="miter" stroke="rgb(0%, 0%, 0%)" stroke-opacity="1" stroke-miterlimit="3.239" d="M 1638.75 441.25 L 1367.5 161.25 " transform="matrix(0.1, 0, 0, -0.1, 0, 126)"/>
<path fill="none" stroke-width="3.75" stroke-linecap="square" stroke-linejoin="miter" stroke="rgb(0%, 0%, 0%)" stroke-opacity="1" stroke-miterlimit="3.239" d="M 1638.75 441.25 L 1355 1077.5 " transform="matrix(0.1, 0, 0, -0.1, 0, 126)"/>
<path fill="none" stroke-width="3.75" stroke-linecap="square" stroke-linejoin="miter" stroke="rgb(0%, 0%, 0%)" stroke-opacity="1" stroke-miterlimit="3.239" d="M 1638.75 441.25 L 2003.75 445.625 " transform="matrix(0.1, 0, 0, -0.1, 0, 126)"/>
<path fill="none" stroke-width="3.75" stroke-linecap="square" stroke-linejoin="miter" stroke="rgb(0%, 0%, 0%)" stroke-opacity="1" stroke-miterlimit="3.239" d="M 1638.75 441.25 L 2000 811.25 " transform="matrix(0.1, 0, 0, -0.1, 0, 126)"/>
<path fill="none" stroke-width="3.75" stroke-linecap="square" stroke-linejoin="miter" stroke="rgb(0%, 0%, 0%)" stroke-opacity="1" stroke-miterlimit="3.239" d="M 1638.75 441.25 L 2283.75 173.75 " transform="matrix(0.1, 0, 0, -0.1, 0, 126)"/>
<path fill="none" stroke-width="3.75" stroke-linecap="square" stroke-linejoin="miter" stroke="rgb(0%, 0%, 0%)" stroke-opacity="1" stroke-miterlimit="3.239" d="M 2271.25 1090.625 L 1635 806.25 " transform="matrix(0.1, 0, 0, -0.1, 0, 126)"/>
<path fill="none" stroke-width="3.75" stroke-linecap="square" stroke-linejoin="miter" stroke="rgb(0%, 0%, 0%)" stroke-opacity="1" stroke-miterlimit="3.239" d="M 2271.25 1090.625 L 2003.75 445.625 " transform="matrix(0.1, 0, 0, -0.1, 0, 126)"/>
<path fill="none" stroke-width="3.75" stroke-linecap="square" stroke-linejoin="miter" stroke="rgb(0%, 0%, 0%)" stroke-opacity="1" stroke-miterlimit="3.239" d="M 2271.25 1090.625 L 2000 811.25 " transform="matrix(0.1, 0, 0, -0.1, 0, 126)"/>
<path fill="none" stroke-width="3.75" stroke-linecap="square" stroke-linejoin="miter" stroke="rgb(0%, 0%, 0%)" stroke-opacity="1" stroke-miterlimit="3.239" d="M 1635 806.25 L 1367.5 161.25 " transform="matrix(0.1, 0, 0, -0.1, 0, 126)"/>
<path fill="none" stroke-width="3.75" stroke-linecap="square" stroke-linejoin="miter" stroke="rgb(0%, 0%, 0%)" stroke-opacity="1" stroke-miterlimit="3.239" d="M 1635 806.25 L 1355 1077.5 " transform="matrix(0.1, 0, 0, -0.1, 0, 126)"/>
<path fill="none" stroke-width="3.75" stroke-linecap="square" stroke-linejoin="miter" stroke="rgb(0%, 0%, 0%)" stroke-opacity="1" stroke-miterlimit="3.239" d="M 1635 806.25 L 2003.75 445.625 " transform="matrix(0.1, 0, 0, -0.1, 0, 126)"/>
<path fill="none" stroke-width="3.75" stroke-linecap="square" stroke-linejoin="miter" stroke="rgb(0%, 0%, 0%)" stroke-opacity="1" stroke-miterlimit="3.239" d="M 1635 806.25 L 2000 811.25 " transform="matrix(0.1, 0, 0, -0.1, 0, 126)"/>
<path fill="none" stroke-width="3.75" stroke-linecap="square" stroke-linejoin="miter" stroke="rgb(0%, 0%, 0%)" stroke-opacity="1" stroke-miterlimit="3.239" d="M 1367.5 161.25 L 2003.75 445.625 " transform="matrix(0.1, 0, 0, -0.1, 0, 126)"/>
<path fill="none" stroke-width="3.75" stroke-linecap="square" stroke-linejoin="miter" stroke="rgb(0%, 0%, 0%)" stroke-opacity="1" stroke-miterlimit="3.239" d="M 1355 1077.5 L 2000 811.25 " transform="matrix(0.1, 0, 0, -0.1, 0, 126)"/>
<path fill="none" stroke-width="3.75" stroke-linecap="square" stroke-linejoin="miter" stroke="rgb(0%, 0%, 0%)" stroke-opacity="1" stroke-miterlimit="3.239" d="M 2003.75 445.625 L 2000 811.25 " transform="matrix(0.1, 0, 0, -0.1, 0, 126)"/>
<path fill="none" stroke-width="3.75" stroke-linecap="square" stroke-linejoin="miter" stroke="rgb(0%, 0%, 0%)" stroke-opacity="1" stroke-miterlimit="3.239" d="M 2003.75 445.625 L 2283.75 173.75 " transform="matrix(0.1, 0, 0, -0.1, 0, 126)"/>
<path fill="none" stroke-width="3.75" stroke-linecap="square" stroke-linejoin="miter" stroke="rgb(0%, 0%, 0%)" stroke-opacity="1" stroke-miterlimit="3.239" d="M 2000 811.25 L 2283.75 173.75 " transform="matrix(0.1, 0, 0, -0.1, 0, 126)"/>
<path fill-rule="nonzero" fill="rgb(100%, 0%, 0%)" fill-opacity="1" d="M 165.875 81.875 C 165.875 81.375 165.6875 80.8125 165.3125 80.4375 C 164.9375 80.0625 164.375 79.875 163.875 79.875 C 163.375 79.875 162.8125 80.0625 162.4375 80.4375 C 162.0625 80.8125 161.875 81.375 161.875 81.875 C 161.875 82.375 162.0625 82.9375 162.4375 83.3125 C 162.8125 83.6875 163.375 83.875 163.875 83.875 C 164.375 83.875 164.9375 83.6875 165.3125 83.3125 C 165.6875 82.9375 165.875 82.375 165.875 81.875 "/>
<path fill-rule="nonzero" fill="rgb(100%, 0%, 0%)" fill-opacity="1" d="M 229.125 16.9375 C 229.125 16.4375 228.9375 15.875 228.5625 15.5 C 228.1875 15.125 227.625 14.9375 227.125 14.9375 C 226.625 14.9375 226.0625 15.125 225.6875 15.5 C 225.3125 15.875 225.125 16.4375 225.125 16.9375 C 225.125 17.4375 225.3125 18 225.6875 18.375 C 226.0625 18.75 226.625 18.9375 227.125 18.9375 C 227.625 18.9375 228.1875 18.75 228.5625 18.375 C 228.9375 18 229.125 17.4375 229.125 16.9375 "/>
<path fill-rule="nonzero" fill="rgb(100%, 0%, 0%)" fill-opacity="1" d="M 165.5 45.375 C 165.5 44.875 165.3125 44.3125 164.9375 43.9375 C 164.5625 43.5625 164 43.375 163.5 43.375 C 163 43.375 162.4375 43.5625 162.0625 43.9375 C 161.6875 44.3125 161.5 44.875 161.5 45.375 C 161.5 45.875 161.6875 46.4375 162.0625 46.8125 C 162.4375 47.1875 163 47.375 163.5 47.375 C 164 47.375 164.5625 47.1875 164.9375 46.8125 C 165.3125 46.4375 165.5 45.875 165.5 45.375 "/>
<path fill-rule="nonzero" fill="rgb(100%, 0%, 0%)" fill-opacity="1" d="M 138.75 109.875 C 138.75 109.375 138.5625 108.8125 138.1875 108.4375 C 137.8125 108.0625 137.25 107.875 136.75 107.875 C 136.25 107.875 135.6875 108.0625 135.3125 108.4375 C 134.9375 108.8125 134.75 109.375 134.75 109.875 C 134.75 110.375 134.9375 110.9375 135.3125 111.3125 C 135.6875 111.6875 136.25 111.875 136.75 111.875 C 137.25 111.875 137.8125 111.6875 138.1875 111.3125 C 138.5625 110.9375 138.75 110.375 138.75 109.875 "/>
<path fill-rule="nonzero" fill="rgb(100%, 0%, 0%)" fill-opacity="1" d="M 137.5 18.25 C 137.5 17.75 137.3125 17.1875 136.9375 16.8125 C 136.5625 16.4375 136 16.25 135.5 16.25 C 135 16.25 134.4375 16.4375 134.0625 16.8125 C 133.6875 17.1875 133.5 17.75 133.5 18.25 C 133.5 18.75 133.6875 19.3125 134.0625 19.6875 C 134.4375 20.0625 135 20.25 135.5 20.25 C 136 20.25 136.5625 20.0625 136.9375 19.6875 C 137.3125 19.3125 137.5 18.75 137.5 18.25 "/>
<path fill-rule="nonzero" fill="rgb(100%, 0%, 0%)" fill-opacity="1" d="M 202.375 81.4375 C 202.375 80.9375 202.1875 80.375 201.8125 80 C 201.4375 79.625 200.875 79.4375 200.375 79.4375 C 199.875 79.4375 199.3125 79.625 198.9375 80 C 198.5625 80.375 198.375 80.9375 198.375 81.4375 C 198.375 81.9375 198.5625 82.5 198.9375 82.875 C 199.3125 83.25 199.875 83.4375 200.375 83.4375 C 200.875 83.4375 201.4375 83.25 201.8125 82.875 C 202.1875 82.5 202.375 81.9375 202.375 81.4375 "/>
<path fill-rule="nonzero" fill="rgb(100%, 0%, 0%)" fill-opacity="1" d="M 202 44.875 C 202 44.375 201.8125 43.8125 201.4375 43.4375 C 201.0625 43.0625 200.5 42.875 200 42.875 C 199.5 42.875 198.9375 43.0625 198.5625 43.4375 C 198.1875 43.8125 198 44.375 198 44.875 C 198 45.375 198.1875 45.9375 198.5625 46.3125 C 198.9375 46.6875 199.5 46.875 200 46.875 C 200.5 46.875 201.0625 46.6875 201.4375 46.3125 C 201.8125 45.9375 202 45.375 202 44.875 "/>
<path fill-rule="nonzero" fill="rgb(100%, 0%, 0%)" fill-opacity="1" d="M 230.375 108.625 C 230.375 108.125 230.1875 107.5625 229.8125 107.1875 C 229.4375 106.8125 228.875 106.625 228.375 106.625 C 227.875 106.625 227.3125 106.8125 226.9375 107.1875 C 226.5625 107.5625 226.375 108.125 226.375 108.625 C 226.375 109.125 226.5625 109.6875 226.9375 110.0625 C 227.3125 110.4375 227.875 110.625 228.375 110.625 C 228.875 110.625 229.4375 110.4375 229.8125 110.0625 C 230.1875 109.6875 230.375 109.125 230.375 108.625 "/>
</svg>
