<?xml version="1.0" encoding="UTF-8"?>
<svg xmlns="http://www.w3.org/2000/svg" xmlns:xlink="http://www.w3.org/1999/xlink" width="188" height="188" viewBox="0 0 188 188">
<path fill="none" stroke-width="2.5" stroke-linecap="round" stroke-linejoin="round" stroke="rgb(0%, 0%, 0%)" stroke-opacity="1" stroke-miterlimit="10" d="M 0 940 L 1880 940 " transform="matrix(0.1, 0, 0, -0.1, 0, 188)"/>
<path fill="none" stroke-width="2.5" stroke-linecap="round" stroke-linejoin="round" stroke="rgb(0%, 0%, 0%)" stroke-opacity="1" stroke-miterlimit="10" d="M 940 0 L 940 1880 " transform="matrix(0.1, 0, 0, -0.1, 0, 188)"/>
<path fill="none" stroke-width="5" stroke-linecap="round" stroke-linejoin="round" stroke="rgb(100%, 100%, 0%)" stroke-opacity="1" stroke-miterlimit="10" d="M 698.4375 1880 L 738.242188 1595 L 784.882812 1298.164062 L 829.804688 1035.234375 L 852.578125 900.078125 L 864.648438 822.734375 L 877.539062 729.375 L 889.335938 625.585938 L 900.117188 499.453125 L 905.3125 418.789062 L 910.9375 304.765625 L 913.515625 238.75 L 916.289062 154.648438 " transform="matrix(0.1, 0, 0, -0.1, 0, 188)"/>
<path fill="none" stroke-width="5" stroke-linecap="round" stroke-linejoin="round" stroke="rgb(100%, 100%, 0%)" stroke-opacity="1" stroke-miterlimit="10" d="M 916.289062 154.648438 L 919.921875 0 " transform="matrix(0.1, 0, 0, -0.1, 0, 188)"/>
<path fill="none" stroke-width="5" stroke-linecap="round" stroke-linejoin="round" stroke="rgb(100%, 100%, 0%)" stroke-opacity="1" stroke-miterlimit="10" d="M 1352.539062 1880 L 1327.578125 1714.53125 L 1283.085938 1463.632812 L 1235.742188 1244.804688 L 1190.195312 1082.148438 L 1165.273438 1013.710938 L 1141.757812 963.125 L 1130.390625 943.671875 L 1118.398438 926.835938 L 1108.125 915.546875 L 1102.734375 910.859375 L 1096.875 906.71875 L 1093.671875 904.882812 L 1090.742188 903.476562 L 1088.007812 902.421875 L 1086.5625 901.953125 L 1084.960938 901.523438 L 1083.554688 901.25 L 1082.265625 901.015625 L 1081.054688 900.859375 L 1079.726562 900.742188 L 1078.359375 900.664062 L 1077.03125 900.664062 L 1075.625 900.742188 L 1074.140625 900.898438 L 1073.359375 900.976562 L 1072.5 901.132812 L 1071.015625 901.445312 L 1069.375 901.914062 L 1067.578125 902.5 L 1064.375 903.90625 L 1061.367188 905.546875 L 1055.78125 909.6875 L 1049.804688 915.625 L 1043.671875 923.476562 L 1037.96875 932.539062 L 1031.25 945.78125 L 1025.117188 960.429688 L 1013.789062 995.859375 L 1007.578125 1020.976562 L 1001.71875 1049.453125 L 990.820312 1119.492188 L 985.351562 1166.835938 L 979.335938 1232.890625 L 974.21875 1306.5625 L 971.40625 1356.757812 L 968.710938 1412.773438 L 966.210938 1474.6875 L 963.515625 1556.054688 L 958.789062 1752.148438 " transform="matrix(0.1, 0, 0, -0.1, 0, 188)"/>
<path fill="none" stroke-width="5" stroke-linecap="round" stroke-linejoin="round" stroke="rgb(0%, 100%, 0%)" stroke-opacity="1" stroke-miterlimit="10" d="M 593.515625 1880 L 596.914062 1858.359375 L 644.21875 1569.84375 L 689.804688 1302.8125 L 738.242188 1021.71875 L 784.882812 734.414062 L 829.804688 395.546875 L 853.007812 153.515625 " transform="matrix(0.1, 0, 0, -0.1, 0, 188)"/>
<path fill="none" stroke-width="5" stroke-linecap="round" stroke-linejoin="round" stroke="rgb(0%, 100%, 0%)" stroke-opacity="1" stroke-miterlimit="10" d="M 853.007812 153.515625 L 864.257812 0 " transform="matrix(0.1, 0, 0, -0.1, 0, 188)"/>
<path fill="none" stroke-width="5" stroke-linecap="round" stroke-linejoin="round" stroke="rgb(0%, 100%, 0%)" stroke-opacity="1" stroke-miterlimit="10" d="M 1604.804688 1880 L 1603.828125 1874.765625 L 1558.007812 1661.835938 L 1513.945312 1479.375 L 1466.992188 1309.414062 L 1421.835938 1169.960938 L 1373.828125 1048.398438 L 1349.84375 998.28125 L 1327.578125 958.28125 L 1304.6875 923.867188 L 1283.085938 897.96875 L 1271.601562 886.875 L 1259.21875 877.03125 L 1247.890625 870.078125 L 1237.539062 865.390625 L 1232.070312 863.632812 L 1229.0625 862.851562 L 1226.171875 862.265625 L 1223.554688 861.875 L 1222.148438 861.679688 L 1220.625 861.523438 L 1219.414062 861.445312 L 1218.046875 861.367188 L 1216.757812 861.328125 L 1215.625 861.289062 L 1214.21875 861.328125 L 1212.65625 861.367188 L 1211.875 861.40625 L 1211.054688 861.484375 L 1209.570312 861.601562 L 1208.085938 861.796875 L 1206.640625 861.992188 L 1204.023438 862.460938 L 1200.898438 863.203125 L 1198.046875 864.023438 L 1191.523438 866.484375 L 1186.09375 869.179688 L 1180.234375 872.773438 L 1169.6875 881.015625 L 1157.109375 894.0625 L 1145.664062 909.414062 L 1123.476562 949.335938 L 1110.976562 979.023438 L 1099.335938 1011.992188 L 1075.390625 1100.820312 L 1053.710938 1215 L 1041.992188 1296.328125 L 1031.25 1388.476562 L 1019.453125 1516.484375 L 1006.992188 1697.1875 " transform="matrix(0.1, 0, 0, -0.1, 0, 188)"/>
<path fill="none" stroke-width="5" stroke-linecap="round" stroke-linejoin="round" stroke="rgb(0%, 100%, 0%)" stroke-opacity="1" stroke-miterlimit="10" d="M 1006.992188 1697.1875 L 997.929688 1880 " transform="matrix(0.1, 0, 0, -0.1, 0, 188)"/>
<path fill="none" stroke-width="5" stroke-linecap="round" stroke-linejoin="round" stroke="rgb(0%, 100%, 100%)" stroke-opacity="1" stroke-miterlimit="10" d="M 497.265625 1880 L 506.171875 1826.445312 L 552.421875 1555.507812 L 596.914062 1298.085938 L 644.21875 1021.992188 L 689.804688 744.648438 L 738.242188 417.617188 L 762.539062 228.359375 L 784.882812 28.046875 " transform="matrix(0.1, 0, 0, -0.1, 0, 188)"/>
<path fill="none" stroke-width="5" stroke-linecap="round" stroke-linejoin="round" stroke="rgb(0%, 100%, 100%)" stroke-opacity="1" stroke-miterlimit="10" d="M 784.882812 28.046875 L 787.5 0 " transform="matrix(0.1, 0, 0, -0.1, 0, 188)"/>
<path fill="none" stroke-width="5" stroke-linecap="round" stroke-linejoin="round" stroke="rgb(0%, 100%, 100%)" stroke-opacity="1" stroke-miterlimit="10" d="M 1833.398438 1880 L 1790.9375 1710.703125 L 1742.65625 1535.429688 L 1696.171875 1383.554688 L 1651.40625 1253.4375 L 1603.828125 1132.578125 L 1558.007812 1033.671875 L 1513.945312 955.3125 L 1489.414062 919.0625 L 1466.992188 890.664062 L 1443.59375 865.9375 L 1421.835938 847.695312 L 1399.726562 833.984375 L 1388.046875 828.75 L 1381.5625 826.484375 L 1375.585938 824.804688 L 1369.765625 823.515625 L 1366.835938 823.007812 L 1363.632812 822.578125 L 1360.390625 822.265625 L 1358.554688 822.109375 L 1356.914062 822.03125 L 1355.390625 821.992188 L 1354.570312 821.992188 L 1353.710938 821.953125 L 1352.265625 821.992188 L 1350.664062 821.992188 L 1349.296875 822.070312 L 1347.773438 822.148438 L 1346.210938 822.265625 L 1344.765625 822.382812 L 1342.148438 822.695312 L 1339.335938 823.085938 L 1332.96875 824.414062 L 1327.1875 826.015625 L 1315.546875 830.546875 L 1304.84375 836.289062 L 1293.046875 844.375 L 1280.585938 855.15625 L 1257.8125 881.015625 L 1236.484375 913.203125 L 1212.851562 959.21875 L 1191.25 1012.34375 L 1167.226562 1086.5625 L 1144.960938 1173.085938 L 1123.398438 1277.8125 L 1100.390625 1419.921875 L 1075.429688 1626.601562 " transform="matrix(0.1, 0, 0, -0.1, 0, 188)"/>
<path fill="none" stroke-width="5" stroke-linecap="round" stroke-linejoin="round" stroke="rgb(0%, 100%, 100%)" stroke-opacity="1" stroke-miterlimit="10" d="M 1075.429688 1626.601562 L 1063.984375 1747.304688 " transform="matrix(0.1, 0, 0, -0.1, 0, 188)"/>
<path fill="none" stroke-width="5" stroke-linecap="round" stroke-linejoin="round" stroke="rgb(0%, 100%, 100%)" stroke-opacity="1" stroke-miterlimit="10" d="M 1063.984375 1747.304688 L 1053.476562 1880 " transform="matrix(0.1, 0, 0, -0.1, 0, 188)"/>
<path fill="none" stroke-width="5" stroke-linecap="round" stroke-linejoin="round" stroke="rgb(0%, 0%, 100%)" stroke-opacity="1" stroke-miterlimit="10" d="M 402.773438 1880 L 413.007812 1820.117188 L 458.164062 1558.359375 L 506.171875 1280.46875 L 552.421875 1009.179688 L 596.914062 739.179688 L 644.21875 432.1875 L 689.804688 100.742188 " transform="matrix(0.1, 0, 0, -0.1, 0, 188)"/>
<path fill="none" stroke-width="5" stroke-linecap="round" stroke-linejoin="round" stroke="rgb(0%, 0%, 100%)" stroke-opacity="1" stroke-miterlimit="10" d="M 689.804688 100.742188 L 701.25 0 " transform="matrix(0.1, 0, 0, -0.1, 0, 188)"/>
<path fill="none" stroke-width="5" stroke-linecap="round" stroke-linejoin="round" stroke="rgb(0%, 0%, 100%)" stroke-opacity="1" stroke-miterlimit="10" d="M 1880 1335.273438 L 1836.367188 1223.554688 L 1790.9375 1120.15625 L 1742.65625 1024.414062 L 1696.171875 946.289062 L 1651.40625 884.648438 L 1628.75 858.671875 L 1603.828125 834.257812 L 1579.882812 815.078125 L 1558.007812 801.289062 L 1547.1875 795.820312 L 1535.390625 790.9375 L 1528.90625 788.710938 L 1522.890625 786.914062 L 1516.757812 785.429688 L 1511.054688 784.335938 L 1505.15625 783.476562 L 1502.03125 783.125 L 1500.46875 783.007812 L 1498.75 782.851562 L 1497.265625 782.773438 L 1495.898438 782.734375 L 1494.53125 782.65625 L 1493.242188 782.617188 L 1488.789062 782.617188 L 1488.007812 782.65625 L 1487.148438 782.695312 L 1485.78125 782.734375 L 1484.375 782.8125 L 1481.796875 782.96875 L 1479.023438 783.242188 L 1475.976562 783.59375 L 1470.546875 784.453125 L 1465.507812 785.507812 L 1453.242188 789.023438 L 1441.640625 793.632812 L 1420.039062 805.820312 L 1396.71875 824.453125 L 1375.234375 846.992188 L 1351.523438 878.476562 L 1329.335938 914.726562 L 1285.195312 1009.609375 L 1240 1145.9375 L 1216.992188 1234.882812 L 1191.914062 1351.367188 L 1145.585938 1640.46875 L 1122.65625 1835.507812 " transform="matrix(0.1, 0, 0, -0.1, 0, 188)"/>
<path fill="none" stroke-width="5" stroke-linecap="round" stroke-linejoin="round" stroke="rgb(0%, 0%, 100%)" stroke-opacity="1" stroke-miterlimit="10" d="M 1122.65625 1835.507812 L 1118.554688 1880 " transform="matrix(0.1, 0, 0, -0.1, 0, 188)"/>
<path fill="none" stroke-width="5" stroke-linecap="round" stroke-linejoin="round" stroke="rgb(100%, 0%, 100%)" stroke-opacity="1" stroke-miterlimit="10" d="M 308.867188 1880 L 321.992188 1803.632812 L 366.054688 1548.867188 L 413.007812 1276.601562 L 458.164062 1010.78125 L 506.171875 719.726562 L 552.421875 424.921875 L 596.914062 119.023438 " transform="matrix(0.1, 0, 0, -0.1, 0, 188)"/>
<path fill="none" stroke-width="5" stroke-linecap="round" stroke-linejoin="round" stroke="rgb(100%, 0%, 100%)" stroke-opacity="1" stroke-miterlimit="10" d="M 596.914062 119.023438 L 612.34375 0 " transform="matrix(0.1, 0, 0, -0.1, 0, 188)"/>
<path fill="none" stroke-width="5" stroke-linecap="round" stroke-linejoin="round" stroke="rgb(100%, 0%, 100%)" stroke-opacity="1" stroke-miterlimit="10" d="M 1880 940.429688 L 1836.367188 879.648438 L 1790.9375 827.929688 L 1767.773438 806.054688 L 1742.65625 785.898438 L 1720.507812 771.210938 L 1696.171875 758.476562 L 1685.039062 753.945312 L 1673.046875 749.921875 L 1666.445312 748.085938 L 1660.390625 746.679688 L 1654.648438 745.546875 L 1648.554688 744.609375 L 1645.46875 744.21875 L 1642.539062 743.90625 L 1639.6875 743.671875 L 1637.109375 743.515625 L 1634.609375 743.359375 L 1633.359375 743.320312 L 1631.953125 743.28125 L 1630.585938 743.28125 L 1629.101562 743.242188 L 1627.734375 743.28125 L 1626.445312 743.28125 L 1624.960938 743.320312 L 1624.179688 743.320312 L 1623.359375 743.359375 L 1620.507812 743.515625 L 1618.90625 743.59375 L 1617.1875 743.75 L 1614.0625 744.023438 L 1607.929688 744.804688 L 1602.304688 745.742188 L 1590.898438 748.398438 L 1580.273438 751.679688 L 1568.632812 756.328125 L 1556.171875 762.460938 L 1531.289062 778.476562 L 1507.851562 798.4375 L 1463.046875 850.664062 L 1415.390625 929.453125 L 1369.492188 1032.1875 L 1325.351562 1161.71875 L 1278.398438 1342.5 L 1233.164062 1573.59375 L 1210.15625 1720.3125 " transform="matrix(0.1, 0, 0, -0.1, 0, 188)"/>
<path fill="none" stroke-width="5" stroke-linecap="round" stroke-linejoin="round" stroke="rgb(100%, 0%, 100%)" stroke-opacity="1" stroke-miterlimit="10" d="M 1210.15625 1720.3125 L 1189.0625 1880 " transform="matrix(0.1, 0, 0, -0.1, 0, 188)"/>
<path fill="none" stroke-width="5" stroke-linecap="round" stroke-linejoin="round" stroke="rgb(100%, 0%, 0%)" stroke-opacity="1" stroke-miterlimit="10" d="M 215.078125 1880 L 228.59375 1801.914062 L 276.171875 1526.5625 L 321.992188 1259.648438 L 366.054688 999.375 L 413.007812 715.234375 L 458.164062 431.015625 L 506.171875 110.9375 " transform="matrix(0.1, 0, 0, -0.1, 0, 188)"/>
<path fill="none" stroke-width="5" stroke-linecap="round" stroke-linejoin="round" stroke="rgb(100%, 0%, 0%)" stroke-opacity="1" stroke-miterlimit="10" d="M 506.171875 110.9375 L 521.484375 0 " transform="matrix(0.1, 0, 0, -0.1, 0, 188)"/>
<path fill="none" stroke-width="5" stroke-linecap="round" stroke-linejoin="round" stroke="rgb(100%, 0%, 0%)" stroke-opacity="1" stroke-miterlimit="10" d="M 1880 739.648438 L 1860.742188 728.59375 L 1836.367188 717.617188 L 1824.453125 713.398438 L 1811.523438 709.648438 L 1805.625 708.242188 L 1799.335938 706.992188 L 1793.4375 705.976562 L 1788.085938 705.234375 L 1782.460938 704.648438 L 1779.882812 704.414062 L 1777.109375 704.21875 L 1775.585938 704.140625 L 1774.21875 704.0625 L 1772.773438 704.023438 L 1771.484375 703.984375 L 1769.960938 703.945312 L 1768.320312 703.945312 L 1766.875 703.90625 L 1766.054688 703.90625 L 1765.3125 703.945312 L 1763.984375 703.945312 L 1762.539062 703.984375 L 1761.210938 704.023438 L 1759.921875 704.0625 L 1757.539062 704.140625 L 1755.039062 704.296875 L 1749.804688 704.726562 L 1743.984375 705.429688 L 1738.28125 706.289062 L 1732.265625 707.382812 L 1721.484375 709.960938 L 1709.882812 713.515625 L 1697.1875 718.398438 L 1674.335938 729.804688 L 1649.960938 745.898438 L 1601.601562 790.46875 L 1555.039062 851.015625 L 1510.234375 927.695312 L 1462.578125 1032.421875 L 1416.679688 1160.078125 L 1372.578125 1313.359375 L 1325.585938 1518.359375 L 1280.390625 1769.765625 " transform="matrix(0.1, 0, 0, -0.1, 0, 188)"/>
<path fill="none" stroke-width="5" stroke-linecap="round" stroke-linejoin="round" stroke="rgb(100%, 0%, 0%)" stroke-opacity="1" stroke-miterlimit="10" d="M 1280.390625 1769.765625 L 1265.234375 1880 " transform="matrix(0.1, 0, 0, -0.1, 0, 188)"/>
</svg>
