<?xml version="1.0" encoding="UTF-8"?>
<svg xmlns="http://www.w3.org/2000/svg" xmlns:xlink="http://www.w3.org/1999/xlink" width="177.63" height="225.88" viewBox="0 0 177.63 225.88">
<defs>
<clipPath id="clip-0">
<path clip-rule="nonzero" d="M 0 0.175781 L 81 0.175781 L 81 28 L 0 28 Z M 0 0.175781 "/>
</clipPath>
<clipPath id="clip-1">
<path clip-rule="nonzero" d="M 79 0.175781 L 83 0.175781 L 83 133 L 79 133 Z M 79 0.175781 "/>
</clipPath>
<clipPath id="clip-2">
<path clip-rule="nonzero" d="M 117 152 L 166 152 L 166 225.585938 L 117 225.585938 Z M 117 152 "/>
</clipPath>
<clipPath id="clip-3">
<path clip-rule="nonzero" d="M 165 9 L 177.261719 9 L 177.261719 153 L 165 153 Z M 165 9 "/>
</clipPath>
<clipPath id="clip-4">
<path clip-rule="nonzero" d="M 122 9 L 177.261719 9 L 177.261719 45 L 122 45 Z M 122 9 "/>
</clipPath>
<clipPath id="clip-5">
<path clip-rule="nonzero" d="M 117 44 L 123 44 L 123 225.585938 L 117 225.585938 Z M 117 44 "/>
</clipPath>
<clipPath id="clip-6">
<path clip-rule="nonzero" d="M 117 44 L 123 44 L 123 225.585938 L 117 225.585938 Z M 117 44 "/>
</clipPath>
<clipPath id="clip-7">
<path clip-rule="nonzero" d="M 16 191 L 118 191 L 118 225.585938 L 16 225.585938 Z M 16 191 "/>
</clipPath>
<clipPath id="clip-8">
<path clip-rule="nonzero" d="M 165 9 L 177.261719 9 L 177.261719 153 L 165 153 Z M 165 9 "/>
</clipPath>
<clipPath id="clip-9">
<path clip-rule="nonzero" d="M 79 0.175781 L 177.261719 0.175781 L 177.261719 10 L 79 10 Z M 79 0.175781 "/>
</clipPath>
<clipPath id="clip-10">
<path clip-rule="nonzero" d="M 79 0.175781 L 83 0.175781 L 83 133 L 79 133 Z M 79 0.175781 "/>
</clipPath>
<clipPath id="clip-11">
<path clip-rule="nonzero" d="M 117 152 L 166 152 L 166 225.585938 L 117 225.585938 Z M 117 152 "/>
</clipPath>
<clipPath id="clip-12">
<path clip-rule="nonzero" d="M 165 9 L 177.261719 9 L 177.261719 153 L 165 153 Z M 165 9 "/>
</clipPath>
<clipPath id="clip-13">
<path clip-rule="nonzero" d="M 122 9 L 177.261719 9 L 177.261719 45 L 122 45 Z M 122 9 "/>
</clipPath>
<clipPath id="clip-14">
<path clip-rule="nonzero" d="M 117 44 L 123 44 L 123 225.585938 L 117 225.585938 Z M 117 44 "/>
</clipPath>
<clipPath id="clip-15">
<path clip-rule="nonzero" d="M 117 44 L 123 44 L 123 225.585938 L 117 225.585938 Z M 117 44 "/>
</clipPath>
<clipPath id="clip-16">
<path clip-rule="nonzero" d="M 16 191 L 118 191 L 118 225.585938 L 16 225.585938 Z M 16 191 "/>
</clipPath>
</defs>
<path fill="none" stroke-width="2.5" stroke-linecap="round" stroke-linejoin="round" stroke="rgb(0%, 0%, 0%)" stroke-opacity="1" stroke-miterlimit="10" d="M 161.585881 342.229055 L 0.156575 1984.979699 " transform="matrix(0.0997921, 0, 0, -0.0997921, -0.000000000000004885, 225.585362)"/>
<g clip-path="url(#clip-0)">
<path fill="none" stroke-width="2.5" stroke-linecap="round" stroke-linejoin="round" stroke="rgb(0%, 0%, 0%)" stroke-opacity="1" stroke-miterlimit="10" d="M 0.156575 1984.979699 L 801.196659 2258.751901 " transform="matrix(0.0997921, 0, 0, -0.0997921, -0.000000000000004885, 225.585362)"/>
</g>
<g clip-path="url(#clip-1)">
<path fill="none" stroke-width="2.5" stroke-linecap="round" stroke-linejoin="round" stroke="rgb(0%, 0%, 0%)" stroke-opacity="1" stroke-miterlimit="10" d="M 801.196659 2258.751901 L 823.038936 937.411545 " transform="matrix(0.0997921, 0, 0, -0.0997921, -0.000000000000004885, 225.585362)"/>
</g>
<path fill="none" stroke-width="2.5" stroke-linecap="round" stroke-linejoin="round" stroke="rgb(0%, 0%, 0%)" stroke-opacity="1" stroke-miterlimit="10" d="M 823.038936 937.411545 L 161.585881 342.229055 " transform="matrix(0.0997921, 0, 0, -0.0997921, -0.000000000000004885, 225.585362)"/>
<g clip-path="url(#clip-2)">
<path fill="none" stroke-width="2.5" stroke-linecap="round" stroke-linejoin="round" stroke="rgb(0%, 0%, 0%)" stroke-opacity="1" stroke-miterlimit="10" d="M 1178.4261 -0.00576901 L 1660.756822 733.354569 " transform="matrix(0.0997921, 0, 0, -0.0997921, -0.000000000000004885, 225.585362)"/>
</g>
<g clip-path="url(#clip-3)">
<path fill="none" stroke-width="2.5" stroke-linecap="round" stroke-linejoin="round" stroke="rgb(0%, 0%, 0%)" stroke-opacity="1" stroke-miterlimit="10" d="M 1660.756822 733.354569 L 1776.113797 2167.468405 " transform="matrix(0.0997921, 0, 0, -0.0997921, -0.000000000000004885, 225.585362)"/>
</g>
<g clip-path="url(#clip-4)">
<path fill="none" stroke-width="2.5" stroke-linecap="round" stroke-linejoin="round" stroke="rgb(0%, 0%, 0%)" stroke-opacity="1" stroke-miterlimit="10" d="M 1776.113797 2167.468405 L 1226.768775 1816.465354 " transform="matrix(0.0997921, 0, 0, -0.0997921, -0.000000000000004885, 225.585362)"/>
</g>
<g clip-path="url(#clip-5)">
<path fill="none" stroke-width="2.5" stroke-linecap="round" stroke-linejoin="round" stroke="rgb(0%, 0%, 0%)" stroke-opacity="1" stroke-miterlimit="10" d="M 1226.768775 1816.465354 L 1178.4261 -0.00576901 " transform="matrix(0.0997921, 0, 0, -0.0997921, -0.000000000000004885, 225.585362)"/>
</g>
<path fill="none" stroke-width="2.5" stroke-linecap="round" stroke-linejoin="round" stroke="rgb(0%, 0%, 0%)" stroke-opacity="1" stroke-miterlimit="10" d="M 161.585881 342.229055 L 0.156575 1984.979699 " transform="matrix(0.0997921, 0, 0, -0.0997921, -0.000000000000004885, 225.585362)"/>
<path fill="none" stroke-width="2.5" stroke-linecap="round" stroke-linejoin="round" stroke="rgb(0%, 0%, 0%)" stroke-opacity="1" stroke-miterlimit="10" d="M 0.156575 1984.979699 L 1226.768775 1816.465354 " transform="matrix(0.0997921, 0, 0, -0.0997921, -0.000000000000004885, 225.585362)"/>
<g clip-path="url(#clip-6)">
<path fill="none" stroke-width="2.5" stroke-linecap="round" stroke-linejoin="round" stroke="rgb(0%, 0%, 0%)" stroke-opacity="1" stroke-miterlimit="10" d="M 1226.768775 1816.465354 L 1178.4261 -0.00576901 " transform="matrix(0.0997921, 0, 0, -0.0997921, -0.000000000000004885, 225.585362)"/>
</g>
<g clip-path="url(#clip-7)">
<path fill="none" stroke-width="2.5" stroke-linecap="round" stroke-linejoin="round" stroke="rgb(0%, 0%, 0%)" stroke-opacity="1" stroke-miterlimit="10" d="M 1178.4261 -0.00576901 L 161.585881 342.229055 " transform="matrix(0.0997921, 0, 0, -0.0997921, -0.000000000000004885, 225.585362)"/>
</g>
<path fill="none" stroke-width="2.5" stroke-linecap="round" stroke-linejoin="round" stroke="rgb(0%, 0%, 0%)" stroke-opacity="1" stroke-miterlimit="10" d="M 823.038936 937.411545 L 1660.756822 733.354569 " transform="matrix(0.0997921, 0, 0, -0.0997921, -0.000000000000004885, 225.585362)"/>
<g clip-path="url(#clip-8)">
<path fill="none" stroke-width="2.5" stroke-linecap="round" stroke-linejoin="round" stroke="rgb(0%, 0%, 0%)" stroke-opacity="1" stroke-miterlimit="10" d="M 1660.756822 733.354569 L 1776.113797 2167.468405 " transform="matrix(0.0997921, 0, 0, -0.0997921, -0.000000000000004885, 225.585362)"/>
</g>
<g clip-path="url(#clip-9)">
<path fill="none" stroke-width="2.5" stroke-linecap="round" stroke-linejoin="round" stroke="rgb(0%, 0%, 0%)" stroke-opacity="1" stroke-miterlimit="10" d="M 1776.113797 2167.468405 L 801.196659 2258.751901 " transform="matrix(0.0997921, 0, 0, -0.0997921, -0.000000000000004885, 225.585362)"/>
</g>
<g clip-path="url(#clip-10)">
<path fill="none" stroke-width="2.5" stroke-linecap="round" stroke-linejoin="round" stroke="rgb(0%, 0%, 0%)" stroke-opacity="1" stroke-miterlimit="10" d="M 801.196659 2258.751901 L 823.038936 937.411545 " transform="matrix(0.0997921, 0, 0, -0.0997921, -0.000000000000004885, 225.585362)"/>
</g>
<path fill-rule="nonzero" fill="rgb(97.65625%, 73.046875%, 50.193787%)" fill-opacity="1" d="M 19.960938 187.09375 L 82.683594 130.84375 L 5.484375 31.625 "/>
<path fill="none" stroke-width="5" stroke-linecap="round" stroke-linejoin="round" stroke="rgb(0%, 0%, 0%)" stroke-opacity="1" stroke-miterlimit="10" d="M 200.025158 385.717891 L 828.558221 949.389568 L 54.957989 1943.643776 Z M 200.025158 385.717891 " transform="matrix(0.0997921, 0, 0, -0.0997921, -0.000000000000004885, 225.585362)"/>
<path fill-rule="nonzero" fill="rgb(60.15625%, 79.492188%, 97.264099%)" fill-opacity="1" d="M 19.960938 187.09375 L 116.484375 218.917969 L 82.683594 130.84375 "/>
<path fill="none" stroke-width="5" stroke-linecap="round" stroke-linejoin="round" stroke="rgb(0%, 0%, 0%)" stroke-opacity="1" stroke-miterlimit="10" d="M 200.025158 385.717891 L 1167.270098 66.812811 L 828.558221 949.389568 Z M 200.025158 385.717891 " transform="matrix(0.0997921, 0, 0, -0.0997921, -0.000000000000004885, 225.585362)"/>
<path fill-rule="nonzero" fill="rgb(77.539062%, 91.014099%, 52.146912%)" fill-opacity="1" d="M 116.484375 218.917969 L 82.683594 130.84375 L 5.484375 31.625 "/>
<path fill="none" stroke-width="5" stroke-linecap="round" stroke-linejoin="round" stroke="rgb(0%, 0%, 0%)" stroke-opacity="1" stroke-miterlimit="10" d="M 1167.270098 66.812811 L 828.558221 949.389568 L 54.957989 1943.643776 Z M 1167.270098 66.812811 " transform="matrix(0.0997921, 0, 0, -0.0997921, -0.000000000000004885, 225.585362)"/>
<path fill-rule="nonzero" fill="rgb(47.996521%, 26.805115%, 51.367188%)" fill-opacity="1" d="M 19.960938 187.09375 L 116.484375 218.917969 L 5.484375 31.625 "/>
<path fill="none" stroke-width="5" stroke-linecap="round" stroke-linejoin="round" stroke="rgb(0%, 0%, 0%)" stroke-opacity="1" stroke-miterlimit="10" d="M 200.025158 385.717891 L 1167.270098 66.812811 L 54.957989 1943.643776 Z M 200.025158 385.717891 " transform="matrix(0.0997921, 0, 0, -0.0997921, -0.000000000000004885, 225.585362)"/>
<g clip-path="url(#clip-11)">
<path fill="none" stroke-width="2.5" stroke-linecap="round" stroke-linejoin="round" stroke="rgb(0%, 0%, 0%)" stroke-opacity="1" stroke-miterlimit="10" d="M 1178.4261 -0.00576901 L 1660.756822 733.354569 " transform="matrix(0.0997921, 0, 0, -0.0997921, -0.000000000000004885, 225.585362)"/>
</g>
<g clip-path="url(#clip-12)">
<path fill="none" stroke-width="2.5" stroke-linecap="round" stroke-linejoin="round" stroke="rgb(0%, 0%, 0%)" stroke-opacity="1" stroke-miterlimit="10" d="M 1660.756822 733.354569 L 1776.113797 2167.468405 " transform="matrix(0.0997921, 0, 0, -0.0997921, -0.000000000000004885, 225.585362)"/>
</g>
<g clip-path="url(#clip-13)">
<path fill="none" stroke-width="2.5" stroke-linecap="round" stroke-linejoin="round" stroke="rgb(0%, 0%, 0%)" stroke-opacity="1" stroke-miterlimit="10" d="M 1776.113797 2167.468405 L 1226.768775 1816.465354 " transform="matrix(0.0997921, 0, 0, -0.0997921, -0.000000000000004885, 225.585362)"/>
</g>
<g clip-path="url(#clip-14)">
<path fill="none" stroke-width="2.5" stroke-linecap="round" stroke-linejoin="round" stroke="rgb(0%, 0%, 0%)" stroke-opacity="1" stroke-miterlimit="10" d="M 1226.768775 1816.465354 L 1178.4261 -0.00576901 " transform="matrix(0.0997921, 0, 0, -0.0997921, -0.000000000000004885, 225.585362)"/>
</g>
<path fill="none" stroke-width="2.5" stroke-linecap="round" stroke-linejoin="round" stroke="rgb(0%, 0%, 0%)" stroke-opacity="1" stroke-miterlimit="10" d="M 161.585881 342.229055 L 0.156575 1984.979699 " transform="matrix(0.0997921, 0, 0, -0.0997921, -0.000000000000004885, 225.585362)"/>
<path fill="none" stroke-width="2.5" stroke-linecap="round" stroke-linejoin="round" stroke="rgb(0%, 0%, 0%)" stroke-opacity="1" stroke-miterlimit="10" d="M 0.156575 1984.979699 L 1226.768775 1816.465354 " transform="matrix(0.0997921, 0, 0, -0.0997921, -0.000000000000004885, 225.585362)"/>
<g clip-path="url(#clip-15)">
<path fill="none" stroke-width="2.5" stroke-linecap="round" stroke-linejoin="round" stroke="rgb(0%, 0%, 0%)" stroke-opacity="1" stroke-miterlimit="10" d="M 1226.768775 1816.465354 L 1178.4261 -0.00576901 " transform="matrix(0.0997921, 0, 0, -0.0997921, -0.000000000000004885, 225.585362)"/>
</g>
<g clip-path="url(#clip-16)">
<path fill="none" stroke-width="2.5" stroke-linecap="round" stroke-linejoin="round" stroke="rgb(0%, 0%, 0%)" stroke-opacity="1" stroke-miterlimit="10" d="M 1178.4261 -0.00576901 L 161.585881 342.229055 " transform="matrix(0.0997921, 0, 0, -0.0997921, -0.000000000000004885, 225.585362)"/>
</g>
</svg>
