<?xml version="1.0" encoding="UTF-8"?>
<svg xmlns="http://www.w3.org/2000/svg" xmlns:xlink="http://www.w3.org/1999/xlink" width="230.38" height="53.5" viewBox="0 0 230.38 53.5">
<path fill-rule="nonzero" fill="rgb(0%, 0%, 0%)" fill-opacity="1" d="M 7.550781 50.539062 L 7.550781 2.464844 L 55.625 50.539062 "/>
<path fill="none" stroke-width="5" stroke-linecap="round" stroke-linejoin="round" stroke="rgb(0%, 0%, 0%)" stroke-opacity="1" stroke-miterlimit="10" d="M 68.548072 24.886098 L 553.783178 24.886098 L 553.783178 510.121203 L 68.548072 510.121203 L 68.548072 24.886098 " transform="matrix(0.0990741, 0, 0, -0.0990741, 0.759444, 53.00463)"/>
<path fill-rule="nonzero" fill="rgb(0%, 0%, 0%)" fill-opacity="1" d="M 63.078125 50.539062 L 63.078125 2.464844 L 111.15625 2.464844 "/>
<path fill="none" stroke-width="5" stroke-linecap="round" stroke-linejoin="round" stroke="rgb(0%, 0%, 0%)" stroke-opacity="1" stroke-miterlimit="10" d="M 629.010981 24.886098 L 1114.285514 24.886098 L 1114.285514 510.121203 L 629.010981 510.121203 L 629.010981 24.886098 " transform="matrix(0.0990741, 0, 0, -0.0990741, 0.759444, 53.00463)"/>
<path fill-rule="nonzero" fill="rgb(0%, 0%, 0%)" fill-opacity="1" d="M 118.605469 2.464844 L 166.683594 2.464844 L 166.683594 50.539062 "/>
<path fill="none" stroke-width="5" stroke-linecap="round" stroke-linejoin="round" stroke="rgb(0%, 0%, 0%)" stroke-opacity="1" stroke-miterlimit="10" d="M 1189.47389 24.886098 L 1674.748423 24.886098 L 1674.748423 510.121203 L 1189.47389 510.121203 L 1189.47389 24.886098 " transform="matrix(0.0990741, 0, 0, -0.0990741, 0.759444, 53.00463)"/>
<path fill-rule="nonzero" fill="rgb(0%, 0%, 0%)" fill-opacity="1" d="M 174.136719 50.539062 L 222.210938 2.464844 L 222.210938 50.539062 "/>
<path fill="none" stroke-width="5" stroke-linecap="round" stroke-linejoin="round" stroke="rgb(0%, 0%, 0%)" stroke-opacity="1" stroke-miterlimit="10" d="M 1749.976227 24.886098 L 2235.211332 24.886098 L 2235.211332 510.121203 L 1749.976227 510.121203 L 1749.976227 24.886098 " transform="matrix(0.0990741, 0, 0, -0.0990741, 0.759444, 53.00463)"/>
</svg>
