<?xml version="1.0" encoding="UTF-8"?>
<svg xmlns="http://www.w3.org/2000/svg" xmlns:xlink="http://www.w3.org/1999/xlink" width="287" height="150.44" viewBox="0 0 287 150.44">
<path fill-rule="nonzero" fill="rgb(75.389099%, 67.381287%, 77.34375%)" fill-opacity="1" d="M 80.601562 70.871094 L 72.449219 128.222656 L 24.371094 87.121094 "/>
<path fill="none" stroke-width="5" stroke-linecap="round" stroke-linejoin="round" stroke="rgb(0%, 0%, 0%)" stroke-opacity="1" stroke-miterlimit="10" d="M 803.674285 793.050947 L 721.847383 217.400459 L 239.276466 629.946054 Z M 803.674285 793.050947 " transform="matrix(0.0996291, 0, 0, -0.0996291, 0.532185, 149.882077)"/>
<path fill-rule="nonzero" fill="rgb(56.834412%, 36.009216%, 55.859375%)" fill-opacity="1" d="M 81.242188 17.867188 L 131.113281 59.914062 L 80.601562 70.871094 "/>
<path fill="none" stroke-width="5" stroke-linecap="round" stroke-linejoin="round" stroke="rgb(0%, 0%, 0%)" stroke-opacity="1" stroke-miterlimit="10" d="M 810.104381 1325.063034 L 1310.671728 903.029125 L 803.674285 793.050947 Z M 810.104381 1325.063034 " transform="matrix(0.0996291, 0, 0, -0.0996291, 0.532185, 149.882077)"/>
<path fill-rule="nonzero" fill="rgb(0%, 52.539062%, 82.03125%)" fill-opacity="1" d="M 80.601562 70.871094 L 131.113281 59.914062 L 102.5 68.269531 "/>
<path fill="none" stroke-width="5" stroke-linecap="round" stroke-linejoin="round" stroke="rgb(0%, 0%, 0%)" stroke-opacity="1" stroke-miterlimit="10" d="M 803.674285 793.050947 L 1310.671728 903.029125 " transform="matrix(0.0996291, 0, 0, -0.0996291, 0.532185, 149.882077)"/>
<path fill-rule="nonzero" fill="rgb(92.576599%, 70.701599%, 21.801758%)" fill-opacity="1" d="M 80.601562 70.871094 L 72.449219 128.222656 L 72.449219 77.046875 "/>
<path fill="none" stroke-width="5" stroke-linecap="round" stroke-linejoin="round" stroke="rgb(0%, 0%, 0%)" stroke-opacity="1" stroke-miterlimit="10" d="M 803.674285 793.050947 L 721.847383 217.400459 " transform="matrix(0.0996291, 0, 0, -0.0996291, 0.532185, 149.882077)"/>
<path fill-rule="nonzero" fill="rgb(75.976562%, 68.554688%, 78.125%)" fill-opacity="1" d="M 125.058594 121.75 L 131.113281 59.914062 L 72.449219 77.046875 "/>
<path fill="none" stroke-width="5" stroke-linecap="round" stroke-linejoin="round" stroke="rgb(0%, 0%, 0%)" stroke-opacity="1" stroke-miterlimit="10" d="M 1249.899472 282.367961 L 1310.671728 903.029125 " transform="matrix(0.0996291, 0, 0, -0.0996291, 0.532185, 149.882077)"/>
<path fill-rule="nonzero" fill="rgb(0%, 52.539062%, 82.03125%)" fill-opacity="1" d="M 102.5 68.269531 L 72.449219 77.046875 L 80.601562 70.871094 "/>
<path fill-rule="nonzero" fill="rgb(0%, 52.539062%, 82.03125%)" fill-opacity="1" d="M 129.855469 65.019531 L 72.449219 77.046875 L 102.5 68.269531 "/>
<path fill-rule="nonzero" fill="rgb(0%, 52.539062%, 82.03125%)" fill-opacity="1" d="M 24.371094 87.121094 L 80.601562 70.871094 L 72.449219 77.046875 "/>
<path fill="none" stroke-width="5" stroke-linecap="round" stroke-linejoin="round" stroke="rgb(0%, 0%, 0%)" stroke-opacity="1" stroke-miterlimit="10" d="M 239.276466 629.946054 L 803.674285 793.050947 " transform="matrix(0.0996291, 0, 0, -0.0996291, 0.532185, 149.882077)"/>
<path fill-rule="nonzero" fill="rgb(92.576599%, 70.701599%, 21.801758%)" fill-opacity="1" d="M 76.964844 46.660156 L 80.601562 70.871094 L 72.449219 77.046875 "/>
<path fill-rule="nonzero" fill="rgb(92.576599%, 70.701599%, 21.801758%)" fill-opacity="1" d="M 81.242188 17.867188 L 80.601562 70.871094 L 76.964844 46.660156 "/>
<path fill="none" stroke-width="5" stroke-linecap="round" stroke-linejoin="round" stroke="rgb(0%, 0%, 0%)" stroke-opacity="1" stroke-miterlimit="10" d="M 810.104381 1325.063034 L 803.674285 793.050947 " transform="matrix(0.0996291, 0, 0, -0.0996291, 0.532185, 149.882077)"/>
<path fill-rule="nonzero" fill="rgb(75.976562%, 68.554688%, 78.125%)" fill-opacity="1" d="M 81.242188 17.867188 L 20.390625 32.808594 L 76.964844 46.660156 "/>
<path fill="none" stroke-width="5" stroke-linecap="round" stroke-linejoin="round" stroke="rgb(0%, 0%, 0%)" stroke-opacity="1" stroke-miterlimit="10" d="M 810.104381 1325.063034 L 199.323609 1175.092791 " transform="matrix(0.0996291, 0, 0, -0.0996291, 0.532185, 149.882077)"/>
<path fill-rule="nonzero" fill="rgb(29.710388%, 0%, 0%)" fill-opacity="1" d="M 81.242188 17.867188 L 20.390625 32.808594 L 72.449219 16.582031 "/>
<path fill="none" stroke-width="5" stroke-linecap="round" stroke-linejoin="round" stroke="rgb(0%, 0%, 0%)" stroke-opacity="1" stroke-miterlimit="10" d="M 810.104381 1325.063034 L 199.323609 1175.092791 L 721.847383 1337.962436 Z M 810.104381 1325.063034 " transform="matrix(0.0996291, 0, 0, -0.0996291, 0.532185, 149.882077)"/>
<path fill-rule="nonzero" fill="rgb(92.576599%, 70.701599%, 21.801758%)" fill-opacity="1" d="M 72.449219 16.582031 L 81.242188 17.867188 L 76.964844 46.660156 "/>
<path fill="none" stroke-width="5" stroke-linecap="round" stroke-linejoin="round" stroke="rgb(0%, 0%, 0%)" stroke-opacity="1" stroke-miterlimit="10" d="M 721.847383 1337.962436 L 810.104381 1325.063034 " transform="matrix(0.0996291, 0, 0, -0.0996291, 0.532185, 149.882077)"/>
<path fill-rule="nonzero" fill="rgb(75.976562%, 68.554688%, 78.125%)" fill-opacity="1" d="M 131.113281 59.914062 L 81.242188 17.867188 L 76.964844 46.660156 "/>
<path fill="none" stroke-width="5" stroke-linecap="round" stroke-linejoin="round" stroke="rgb(0%, 0%, 0%)" stroke-opacity="1" stroke-miterlimit="10" d="M 1310.671728 903.029125 L 810.104381 1325.063034 " transform="matrix(0.0996291, 0, 0, -0.0996291, 0.532185, 149.882077)"/>
<path fill-rule="nonzero" fill="rgb(75.976562%, 68.554688%, 78.125%)" fill-opacity="1" d="M 76.964844 46.660156 L 72.449219 77.046875 L 131.113281 59.914062 "/>
<path fill-rule="nonzero" fill="rgb(75.976562%, 68.554688%, 78.125%)" fill-opacity="1" d="M 20.390625 32.808594 L 72.449219 77.046875 L 76.964844 46.660156 "/>
<path fill-rule="nonzero" fill="rgb(92.576599%, 70.701599%, 21.801758%)" fill-opacity="1" d="M 72.449219 16.582031 L 76.964844 46.660156 L 72.449219 77.046875 "/>
<path fill-rule="nonzero" fill="rgb(0%, 52.539062%, 82.03125%)" fill-opacity="1" d="M 131.113281 59.914062 L 129.855469 65.019531 L 102.5 68.269531 "/>
<path fill="none" stroke-width="5" stroke-linecap="round" stroke-linejoin="round" stroke="rgb(0%, 0%, 0%)" stroke-opacity="1" stroke-miterlimit="10" d="M 1310.671728 903.029125 L 1298.046782 851.784391 " transform="matrix(0.0996291, 0, 0, -0.0996291, 0.532185, 149.882077)"/>
<path fill="none" stroke-width="18.2874" stroke-linecap="round" stroke-linejoin="round" stroke="rgb(0%, 0%, 0%)" stroke-opacity="1" stroke-miterlimit="10" d="M 591.324261 551.059746 L 721.847383 699.814544 " transform="matrix(0.0996291, 0, 0, -0.0996291, 0.532185, 149.882077)"/>
<path fill="none" stroke-width="18.2874" stroke-linecap="round" stroke-linejoin="round" stroke="rgb(0%, 0%, 0%)" stroke-opacity="1" stroke-miterlimit="10" d="M 536.119529 692.169003 L 591.324261 551.059746 " transform="matrix(0.0996291, 0, 0, -0.0996291, 0.532185, 149.882077)"/>
<path fill="none" stroke-width="18.2874" stroke-linecap="round" stroke-linejoin="round" stroke="rgb(0%, 0%, 0%)" stroke-opacity="1" stroke-miterlimit="10" d="M 591.324261 551.059746 L 721.847383 521.810648 " transform="matrix(0.0996291, 0, 0, -0.0996291, 0.532185, 149.882077)"/>
<path fill-rule="nonzero" fill="rgb(99.21875%, 76.951599%, 39.793396%)" fill-opacity="1" d="M 20.390625 32.808594 L 24.371094 87.121094 L 7.574219 95.992188 "/>
<path fill="none" stroke-width="5" stroke-linecap="round" stroke-linejoin="round" stroke="rgb(0%, 0%, 0%)" stroke-opacity="1" stroke-miterlimit="10" d="M 199.323609 1175.092791 L 239.276466 629.946054 L 70.682467 540.904898 Z M 199.323609 1175.092791 " transform="matrix(0.0996291, 0, 0, -0.0996291, 0.532185, 149.882077)"/>
<path fill-rule="nonzero" fill="rgb(54.492188%, 32.397461%, 53.125%)" fill-opacity="1" d="M 72.449219 128.222656 L 24.371094 87.121094 L 72.449219 16.582031 "/>
<path fill="none" stroke-width="5" stroke-linecap="round" stroke-linejoin="round" stroke="rgb(0%, 0%, 0%)" stroke-opacity="1" stroke-miterlimit="10" d="M 721.847383 217.400459 L 239.276466 629.946054 " transform="matrix(0.0996291, 0, 0, -0.0996291, 0.532185, 149.882077)"/>
<path fill-rule="nonzero" fill="rgb(92.576599%, 70.701599%, 21.801758%)" fill-opacity="1" d="M 72.449219 128.222656 L 62.625 143.179688 L 69.300781 98.261719 "/>
<path fill="none" stroke-width="5" stroke-linecap="round" stroke-linejoin="round" stroke="rgb(0%, 0%, 0%)" stroke-opacity="1" stroke-miterlimit="10" d="M 721.847383 217.400459 L 623.239497 67.273384 " transform="matrix(0.0996291, 0, 0, -0.0996291, 0.532185, 149.882077)"/>
<path fill-rule="nonzero" fill="rgb(0%, 52.539062%, 82.03125%)" fill-opacity="1" d="M 7.574219 95.992188 L 24.371094 87.121094 L 72.449219 77.046875 "/>
<path fill="none" stroke-width="5" stroke-linecap="round" stroke-linejoin="round" stroke="rgb(0%, 0%, 0%)" stroke-opacity="1" stroke-miterlimit="10" d="M 70.682467 540.904898 L 239.276466 629.946054 " transform="matrix(0.0996291, 0, 0, -0.0996291, 0.532185, 149.882077)"/>
<path fill-rule="nonzero" fill="rgb(54.492188%, 32.397461%, 53.125%)" fill-opacity="1" stroke-width="5" stroke-linecap="round" stroke-linejoin="round" stroke="rgb(0%, 0%, 0%)" stroke-opacity="1" stroke-miterlimit="10" d="M 239.276466 629.946054 L 199.323609 1175.092791 L 721.847383 1337.962436 " transform="matrix(0.0996291, 0, 0, -0.0996291, 0.532185, 149.882077)"/>
<path fill-rule="nonzero" fill="rgb(75.976562%, 68.554688%, 78.125%)" fill-opacity="1" d="M 20.390625 32.808594 L 62.625 143.179688 L 72.449219 77.046875 "/>
<path fill-rule="nonzero" fill="rgb(92.576599%, 70.701599%, 21.801758%)" fill-opacity="1" d="M 72.449219 77.046875 L 72.449219 128.222656 L 67.464844 80.824219 "/>
<path fill-rule="nonzero" fill="rgb(21.409607%, 65.039062%, 95.117188%)" fill-opacity="1" d="M 125.058594 121.75 L 62.625 143.179688 L 72.449219 128.222656 "/>
<path fill="none" stroke-width="5" stroke-linecap="round" stroke-linejoin="round" stroke="rgb(0%, 0%, 0%)" stroke-opacity="1" stroke-miterlimit="10" d="M 1249.899472 282.367961 L 623.239497 67.273384 L 721.847383 217.400459 Z M 1249.899472 282.367961 " transform="matrix(0.0996291, 0, 0, -0.0996291, 0.532185, 149.882077)"/>
<path fill-rule="nonzero" fill="rgb(54.492188%, 32.397461%, 53.125%)" fill-opacity="1" d="M 125.058594 121.75 L 72.449219 128.222656 L 72.449219 16.582031 "/>
<path fill="none" stroke-width="5" stroke-linecap="round" stroke-linejoin="round" stroke="rgb(0%, 0%, 0%)" stroke-opacity="1" stroke-miterlimit="10" d="M 1249.899472 282.367961 L 721.847383 217.400459 " transform="matrix(0.0996291, 0, 0, -0.0996291, 0.532185, 149.882077)"/>
<path fill-rule="nonzero" fill="rgb(75.976562%, 68.554688%, 78.125%)" fill-opacity="1" d="M 62.625 143.179688 L 125.058594 121.75 L 72.449219 77.046875 "/>
<path fill="none" stroke-width="5" stroke-linecap="round" stroke-linejoin="round" stroke="rgb(0%, 0%, 0%)" stroke-opacity="1" stroke-miterlimit="10" d="M 623.239497 67.273384 L 1249.899472 282.367961 " transform="matrix(0.0996291, 0, 0, -0.0996291, 0.532185, 149.882077)"/>
<path fill-rule="nonzero" fill="rgb(92.576599%, 70.701599%, 21.801758%)" fill-opacity="1" d="M 67.464844 80.824219 L 69.300781 98.261719 L 62.625 143.179688 "/>
<path fill-rule="nonzero" fill="rgb(75.976562%, 68.554688%, 78.125%)" fill-opacity="1" stroke-width="5" stroke-linecap="round" stroke-linejoin="round" stroke="rgb(0%, 0%, 0%)" stroke-opacity="1" stroke-miterlimit="10" d="M 199.323609 1175.092791 L 70.682467 540.904898 L 623.239497 67.273384 " transform="matrix(0.0996291, 0, 0, -0.0996291, 0.532185, 149.882077)"/>
<path fill-rule="nonzero" fill="rgb(0%, 52.539062%, 82.03125%)" fill-opacity="1" d="M 67.464844 80.824219 L 7.574219 95.992188 L 72.449219 77.046875 "/>
<path fill-rule="nonzero" fill="rgb(92.576599%, 70.701599%, 21.801758%)" fill-opacity="1" d="M 72.449219 16.582031 L 72.449219 77.046875 L 67.464844 80.824219 "/>
<path fill-rule="nonzero" fill="rgb(54.492188%, 32.397461%, 53.125%)" fill-opacity="1" stroke-width="5" stroke-linecap="round" stroke-linejoin="round" stroke="rgb(0%, 0%, 0%)" stroke-opacity="1" stroke-miterlimit="10" d="M 721.847383 1337.962436 L 1298.046782 851.784391 L 1249.899472 282.367961 " transform="matrix(0.0996291, 0, 0, -0.0996291, 0.532185, 149.882077)"/>
<path fill-rule="nonzero" fill="rgb(0%, 52.539062%, 82.03125%)" fill-opacity="1" d="M 129.855469 65.019531 L 67.464844 80.824219 L 72.449219 77.046875 "/>
<path fill="none" stroke-width="18.2874" stroke-linecap="round" stroke-linejoin="round" stroke="rgb(0%, 0%, 0%)" stroke-opacity="1" stroke-miterlimit="10" d="M 810.104381 1325.063034 L 1036.255588 1105.734004 " transform="matrix(0.0996291, 0, 0, -0.0996291, 0.532185, 149.882077)"/>
<path fill="none" stroke-width="18.2874" stroke-linecap="round" stroke-linejoin="round" stroke="rgb(0%, 0%, 0%)" stroke-opacity="1" stroke-miterlimit="10" d="M 810.104381 1325.063034 L 810.104381 1325.063034 " transform="matrix(0.0996291, 0, 0, -0.0996291, 0.532185, 149.882077)"/>
<path fill="none" stroke-width="18.2874" stroke-linecap="round" stroke-linejoin="round" stroke="rgb(0%, 0%, 0%)" stroke-opacity="1" stroke-miterlimit="10" d="M 1036.255588 1105.734004 L 1059.780332 1114.555783 " transform="matrix(0.0996291, 0, 0, -0.0996291, 0.532185, 149.882077)"/>
<path fill-rule="nonzero" fill="rgb(73.046875%, 54.296875%, 0%)" fill-opacity="1" d="M 125.058594 121.75 L 131.113281 59.914062 L 129.855469 65.019531 "/>
<path fill="none" stroke-width="5" stroke-linecap="round" stroke-linejoin="round" stroke="rgb(0%, 0%, 0%)" stroke-opacity="1" stroke-miterlimit="10" d="M 1249.899472 282.367961 L 1310.671728 903.029125 L 1298.046782 851.784391 Z M 1249.899472 282.367961 " transform="matrix(0.0996291, 0, 0, -0.0996291, 0.532185, 149.882077)"/>
<path fill="none" stroke-width="18.2874" stroke-linecap="round" stroke-linejoin="round" stroke="rgb(0%, 0%, 0%)" stroke-opacity="1" stroke-miterlimit="10" d="M 1286.323617 678.407027 L 1310.671728 903.029125 " transform="matrix(0.0996291, 0, 0, -0.0996291, 0.532185, 149.882077)"/>
<path fill="none" stroke-width="18.2874" stroke-linecap="round" stroke-linejoin="round" stroke="rgb(0%, 0%, 0%)" stroke-opacity="1" stroke-miterlimit="10" d="M 1310.671728 903.029125 L 1310.671728 903.029125 " transform="matrix(0.0996291, 0, 0, -0.0996291, 0.532185, 149.882077)"/>
<path fill="none" stroke-width="18.2874" stroke-linecap="round" stroke-linejoin="round" stroke="rgb(0%, 0%, 0%)" stroke-opacity="1" stroke-miterlimit="10" d="M 1036.255588 1105.734004 L 1310.671728 903.029125 " transform="matrix(0.0996291, 0, 0, -0.0996291, 0.532185, 149.882077)"/>
<path fill="none" stroke-width="18.2874" stroke-linecap="round" stroke-linejoin="round" stroke="rgb(0%, 0%, 0%)" stroke-opacity="1" stroke-miterlimit="10" d="M 1249.899472 282.367961 L 1310.671728 903.029125 " transform="matrix(0.0996291, 0, 0, -0.0996291, 0.532185, 149.882077)"/>
<path fill="none" stroke-width="18.2874" stroke-linecap="round" stroke-linejoin="round" stroke="rgb(0%, 0%, 0%)" stroke-opacity="1" stroke-miterlimit="10" d="M 810.104381 1325.063034 L 1310.671728 903.029125 " transform="matrix(0.0996291, 0, 0, -0.0996291, 0.532185, 149.882077)"/>
<path fill="none" stroke-width="18.2874" stroke-linecap="round" stroke-linejoin="round" stroke="rgb(0%, 0%, 0%)" stroke-opacity="1" stroke-miterlimit="10" d="M 1281.108966 601.128243 L 1286.323617 678.407027 " transform="matrix(0.0996291, 0, 0, -0.0996291, 0.532185, 149.882077)"/>
<path fill="none" stroke-width="18.2874" stroke-linecap="round" stroke-linejoin="round" stroke="rgb(0%, 0%, 0%)" stroke-opacity="1" stroke-miterlimit="10" d="M 199.323609 1175.092791 L 390.540571 932.395848 " transform="matrix(0.0996291, 0, 0, -0.0996291, 0.532185, 149.882077)"/>
<path fill="none" stroke-width="18.2874" stroke-linecap="round" stroke-linejoin="round" stroke="rgb(0%, 0%, 0%)" stroke-opacity="1" stroke-miterlimit="10" d="M 199.323609 1175.092791 L 199.323609 1175.092791 " transform="matrix(0.0996291, 0, 0, -0.0996291, 0.532185, 149.882077)"/>
<path fill="none" stroke-width="18.2874" stroke-linecap="round" stroke-linejoin="round" stroke="rgb(0%, 0%, 0%)" stroke-opacity="1" stroke-miterlimit="10" d="M 954.663934 452.569484 L 1249.899472 282.367961 " transform="matrix(0.0996291, 0, 0, -0.0996291, 0.532185, 149.882077)"/>
<path fill="none" stroke-width="18.2874" stroke-linecap="round" stroke-linejoin="round" stroke="rgb(0%, 0%, 0%)" stroke-opacity="1" stroke-miterlimit="10" d="M 1249.899472 282.367961 L 1286.323617 678.407027 " transform="matrix(0.0996291, 0, 0, -0.0996291, 0.532185, 149.882077)"/>
<path fill="none" stroke-width="18.2874" stroke-linecap="round" stroke-linejoin="round" stroke="rgb(0%, 0%, 0%)" stroke-opacity="1" stroke-miterlimit="10" d="M 1249.899472 282.367961 L 1249.899472 282.367961 " transform="matrix(0.0996291, 0, 0, -0.0996291, 0.532185, 149.882077)"/>
<path fill="none" stroke-width="18.2874" stroke-linecap="round" stroke-linejoin="round" stroke="rgb(0%, 0%, 0%)" stroke-opacity="1" stroke-miterlimit="10" d="M 769.092911 1331.061844 L 1036.255588 1105.734004 " transform="matrix(0.0996291, 0, 0, -0.0996291, 0.532185, 149.882077)"/>
<path fill="none" stroke-width="18.2874" stroke-linecap="round" stroke-linejoin="round" stroke="rgb(0%, 0%, 0%)" stroke-opacity="1" stroke-miterlimit="10" d="M 1272.914513 554.627666 L 1286.323617 678.407027 " transform="matrix(0.0996291, 0, 0, -0.0996291, 0.532185, 149.882077)"/>
<path fill="none" stroke-width="18.2874" stroke-linecap="round" stroke-linejoin="round" stroke="rgb(0%, 0%, 0%)" stroke-opacity="1" stroke-miterlimit="10" d="M 1286.323617 678.407027 L 1304.790541 879.190718 " transform="matrix(0.0996291, 0, 0, -0.0996291, 0.532185, 149.882077)"/>
<path fill="none" stroke-width="18.2874" stroke-linecap="round" stroke-linejoin="round" stroke="rgb(0%, 0%, 0%)" stroke-opacity="1" stroke-miterlimit="10" d="M 1036.255588 1105.734004 L 1304.790541 879.190718 " transform="matrix(0.0996291, 0, 0, -0.0996291, 0.532185, 149.882077)"/>
<path fill="none" stroke-width="18.2874" stroke-linecap="round" stroke-linejoin="round" stroke="rgb(0%, 0%, 0%)" stroke-opacity="1" stroke-miterlimit="10" d="M 136.826206 866.997059 L 390.540571 932.395848 " transform="matrix(0.0996291, 0, 0, -0.0996291, 0.532185, 149.882077)"/>
<path fill="none" stroke-width="18.2874" stroke-linecap="round" stroke-linejoin="round" stroke="rgb(0%, 0%, 0%)" stroke-opacity="1" stroke-miterlimit="10" d="M 944.665917 177.604434 L 954.663934 452.569484 " transform="matrix(0.0996291, 0, 0, -0.0996291, 0.532185, 149.882077)"/>
<path fill="none" stroke-width="18.2874" stroke-linecap="round" stroke-linejoin="round" stroke="rgb(0%, 0%, 0%)" stroke-opacity="1" stroke-miterlimit="10" d="M 390.540571 932.395848 L 448.568273 1252.763654 " transform="matrix(0.0996291, 0, 0, -0.0996291, 0.532185, 149.882077)"/>
<path fill-rule="nonzero" fill="rgb(50.976562%, 27.488708%, 49.510193%)" fill-opacity="1" d="M 7.574219 95.992188 L 62.625 143.179688 L 61.671875 85.207031 "/>
<path fill="none" stroke-width="5" stroke-linecap="round" stroke-linejoin="round" stroke="rgb(0%, 0%, 0%)" stroke-opacity="1" stroke-miterlimit="10" d="M 70.682467 540.904898 L 623.239497 67.273384 L 613.672768 649.157929 Z M 70.682467 540.904898 " transform="matrix(0.0996291, 0, 0, -0.0996291, 0.532185, 149.882077)"/>
<path fill-rule="nonzero" fill="rgb(0%, 52.539062%, 82.03125%)" fill-opacity="1" d="M 61.671875 85.207031 L 7.574219 95.992188 L 67.464844 80.824219 "/>
<path fill="none" stroke-width="5" stroke-linecap="round" stroke-linejoin="round" stroke="rgb(0%, 0%, 0%)" stroke-opacity="1" stroke-miterlimit="10" d="M 613.672768 649.157929 L 70.682467 540.904898 " transform="matrix(0.0996291, 0, 0, -0.0996291, 0.532185, 149.882077)"/>
<path fill-rule="nonzero" fill="rgb(92.576599%, 70.701599%, 21.801758%)" fill-opacity="1" d="M 61.671875 85.207031 L 72.449219 16.582031 L 67.464844 80.824219 "/>
<path fill="none" stroke-width="5" stroke-linecap="round" stroke-linejoin="round" stroke="rgb(0%, 0%, 0%)" stroke-opacity="1" stroke-miterlimit="10" d="M 613.672768 649.157929 L 721.847383 1337.962436 " transform="matrix(0.0996291, 0, 0, -0.0996291, 0.532185, 149.882077)"/>
<path fill-rule="nonzero" fill="rgb(92.576599%, 70.701599%, 21.801758%)" fill-opacity="1" d="M 62.625 143.179688 L 61.671875 85.207031 L 67.464844 80.824219 "/>
<path fill="none" stroke-width="5" stroke-linecap="round" stroke-linejoin="round" stroke="rgb(0%, 0%, 0%)" stroke-opacity="1" stroke-miterlimit="10" d="M 623.239497 67.273384 L 613.672768 649.157929 " transform="matrix(0.0996291, 0, 0, -0.0996291, 0.532185, 149.882077)"/>
<path fill-rule="nonzero" fill="rgb(0%, 52.539062%, 82.03125%)" fill-opacity="1" d="M 129.855469 65.019531 L 61.671875 85.207031 L 67.464844 80.824219 "/>
<path fill="none" stroke-width="5" stroke-linecap="round" stroke-linejoin="round" stroke="rgb(0%, 0%, 0%)" stroke-opacity="1" stroke-miterlimit="10" d="M 1298.046782 851.784391 L 613.672768 649.157929 " transform="matrix(0.0996291, 0, 0, -0.0996291, 0.532185, 149.882077)"/>
<path fill="none" stroke-width="18.2874" stroke-linecap="round" stroke-linejoin="round" stroke="rgb(0%, 0%, 0%)" stroke-opacity="1" stroke-miterlimit="10" d="M 70.682467 540.904898 L 199.323609 1175.092791 " transform="matrix(0.0996291, 0, 0, -0.0996291, 0.532185, 149.882077)"/>
<path fill="none" stroke-width="18.2874" stroke-linecap="round" stroke-linejoin="round" stroke="rgb(0%, 0%, 0%)" stroke-opacity="1" stroke-miterlimit="10" d="M 70.682467 540.904898 L 390.540571 932.395848 " transform="matrix(0.0996291, 0, 0, -0.0996291, 0.532185, 149.882077)"/>
<path fill="none" stroke-width="18.2874" stroke-linecap="round" stroke-linejoin="round" stroke="rgb(0%, 0%, 0%)" stroke-opacity="1" stroke-miterlimit="10" d="M 70.682467 540.904898 L 70.682467 540.904898 " transform="matrix(0.0996291, 0, 0, -0.0996291, 0.532185, 149.882077)"/>
<path fill="none" stroke-width="18.2874" stroke-linecap="round" stroke-linejoin="round" stroke="rgb(0%, 0%, 0%)" stroke-opacity="1" stroke-miterlimit="10" d="M 70.682467 540.904898 L 623.239497 67.273384 " transform="matrix(0.0996291, 0, 0, -0.0996291, 0.532185, 149.882077)"/>
<path fill="none" stroke-width="18.2874" stroke-linecap="round" stroke-linejoin="round" stroke="rgb(0%, 0%, 0%)" stroke-opacity="1" stroke-miterlimit="10" d="M 70.682467 540.904898 L 429.826893 412.420588 " transform="matrix(0.0996291, 0, 0, -0.0996291, 0.532185, 149.882077)"/>
<path fill="none" stroke-width="18.2874" stroke-linecap="round" stroke-linejoin="round" stroke="rgb(0%, 0%, 0%)" stroke-opacity="1" stroke-miterlimit="10" d="M 954.663934 452.569484 L 1272.914513 554.627666 " transform="matrix(0.0996291, 0, 0, -0.0996291, 0.532185, 149.882077)"/>
<path fill="none" stroke-width="18.2874" stroke-linecap="round" stroke-linejoin="round" stroke="rgb(0%, 0%, 0%)" stroke-opacity="1" stroke-miterlimit="10" d="M 346.196428 304.755675 L 429.826893 412.420588 " transform="matrix(0.0996291, 0, 0, -0.0996291, 0.532185, 149.882077)"/>
<path fill="none" stroke-width="18.2874" stroke-linecap="round" stroke-linejoin="round" stroke="rgb(0%, 0%, 0%)" stroke-opacity="1" stroke-miterlimit="10" d="M 623.239497 67.273384 L 954.663934 452.569484 " transform="matrix(0.0996291, 0, 0, -0.0996291, 0.532185, 149.882077)"/>
<path fill="none" stroke-width="18.2874" stroke-linecap="round" stroke-linejoin="round" stroke="rgb(0%, 0%, 0%)" stroke-opacity="1" stroke-miterlimit="10" d="M 623.239497 67.273384 L 623.239497 67.273384 " transform="matrix(0.0996291, 0, 0, -0.0996291, 0.532185, 149.882077)"/>
<path fill="none" stroke-width="18.2874" stroke-linecap="round" stroke-linejoin="round" stroke="rgb(0%, 0%, 0%)" stroke-opacity="1" stroke-miterlimit="10" d="M 429.826893 412.420588 L 623.239497 67.273384 " transform="matrix(0.0996291, 0, 0, -0.0996291, 0.532185, 149.882077)"/>
<path fill="none" stroke-width="18.2874" stroke-linecap="round" stroke-linejoin="round" stroke="rgb(0%, 0%, 0%)" stroke-opacity="1" stroke-miterlimit="10" d="M 623.239497 67.273384 L 1249.899472 282.367961 " transform="matrix(0.0996291, 0, 0, -0.0996291, 0.532185, 149.882077)"/>
<path fill="none" stroke-width="18.2874" stroke-linecap="round" stroke-linejoin="round" stroke="rgb(0%, 0%, 0%)" stroke-opacity="1" stroke-miterlimit="10" d="M 328.944949 592.38488 L 390.540571 932.395848 " transform="matrix(0.0996291, 0, 0, -0.0996291, 0.532185, 149.882077)"/>
<path fill="none" stroke-width="18.2874" stroke-linecap="round" stroke-linejoin="round" stroke="rgb(0%, 0%, 0%)" stroke-opacity="1" stroke-miterlimit="10" d="M 618.69138 344.786948 L 954.663934 452.569484 " transform="matrix(0.0996291, 0, 0, -0.0996291, 0.532185, 149.882077)"/>
<path fill="none" stroke-width="18.2874" stroke-linecap="round" stroke-linejoin="round" stroke="rgb(0%, 0%, 0%)" stroke-opacity="1" stroke-miterlimit="10" d="M 328.944949 592.38488 L 429.826893 412.420588 " transform="matrix(0.0996291, 0, 0, -0.0996291, 0.532185, 149.882077)"/>
<path fill="none" stroke-width="18.2874" stroke-linecap="round" stroke-linejoin="round" stroke="rgb(0%, 0%, 0%)" stroke-opacity="1" stroke-miterlimit="10" d="M 429.826893 412.420588 L 618.69138 344.786948 " transform="matrix(0.0996291, 0, 0, -0.0996291, 0.532185, 149.882077)"/>
<path fill-rule="nonzero" fill="rgb(76.5625%, 69.921875%, 78.90625%)" fill-opacity="1" d="M 72.449219 16.582031 L 61.671875 85.207031 L 129.855469 65.019531 "/>
<path fill="none" stroke-width="5" stroke-linecap="round" stroke-linejoin="round" stroke="rgb(0%, 0%, 0%)" stroke-opacity="1" stroke-miterlimit="10" d="M 721.847383 1337.962436 L 613.672768 649.157929 L 1298.046782 851.784391 Z M 721.847383 1337.962436 " transform="matrix(0.0996291, 0, 0, -0.0996291, 0.532185, 149.882077)"/>
<path fill="none" stroke-width="18.2874" stroke-linecap="round" stroke-linejoin="round" stroke="rgb(0%, 0%, 0%)" stroke-opacity="1" stroke-miterlimit="10" d="M 721.847383 1337.962436 L 882.482177 952.627128 " transform="matrix(0.0996291, 0, 0, -0.0996291, 0.532185, 149.882077)"/>
<path fill="none" stroke-width="18.2874" stroke-linecap="round" stroke-linejoin="round" stroke="rgb(0%, 0%, 0%)" stroke-opacity="1" stroke-miterlimit="10" d="M 613.672768 649.157929 L 721.847383 1337.962436 " transform="matrix(0.0996291, 0, 0, -0.0996291, 0.532185, 149.882077)"/>
<path fill="none" stroke-width="18.2874" stroke-linecap="round" stroke-linejoin="round" stroke="rgb(0%, 0%, 0%)" stroke-opacity="1" stroke-miterlimit="10" d="M 721.847383 1337.962436 L 721.847383 1337.962436 " transform="matrix(0.0996291, 0, 0, -0.0996291, 0.532185, 149.882077)"/>
<path fill="none" stroke-width="18.2874" stroke-linecap="round" stroke-linejoin="round" stroke="rgb(0%, 0%, 0%)" stroke-opacity="1" stroke-miterlimit="10" d="M 721.847383 1337.962436 L 1298.046782 851.784391 " transform="matrix(0.0996291, 0, 0, -0.0996291, 0.532185, 149.882077)"/>
<path fill="none" stroke-width="18.2874" stroke-linecap="round" stroke-linejoin="round" stroke="rgb(0%, 0%, 0%)" stroke-opacity="1" stroke-miterlimit="10" d="M 429.826893 412.420588 L 613.672768 649.157929 " transform="matrix(0.0996291, 0, 0, -0.0996291, 0.532185, 149.882077)"/>
<path fill="none" stroke-width="18.2874" stroke-linecap="round" stroke-linejoin="round" stroke="rgb(0%, 0%, 0%)" stroke-opacity="1" stroke-miterlimit="10" d="M 954.663934 452.569484 L 1298.046782 851.784391 " transform="matrix(0.0996291, 0, 0, -0.0996291, 0.532185, 149.882077)"/>
<path fill="none" stroke-width="18.2874" stroke-linecap="round" stroke-linejoin="round" stroke="rgb(0%, 0%, 0%)" stroke-opacity="1" stroke-miterlimit="10" d="M 613.672768 649.157929 L 954.663934 452.569484 " transform="matrix(0.0996291, 0, 0, -0.0996291, 0.532185, 149.882077)"/>
<path fill="none" stroke-width="18.2874" stroke-linecap="round" stroke-linejoin="round" stroke="rgb(0%, 0%, 0%)" stroke-opacity="1" stroke-miterlimit="10" d="M 954.663934 452.569484 L 965.563732 753.333337 " transform="matrix(0.0996291, 0, 0, -0.0996291, 0.532185, 149.882077)"/>
<path fill="none" stroke-width="18.2874" stroke-linecap="round" stroke-linejoin="round" stroke="rgb(0%, 0%, 0%)" stroke-opacity="1" stroke-miterlimit="10" d="M 390.540571 932.395848 L 613.672768 649.157929 " transform="matrix(0.0996291, 0, 0, -0.0996291, 0.532185, 149.882077)"/>
<path fill="none" stroke-width="18.2874" stroke-linecap="round" stroke-linejoin="round" stroke="rgb(0%, 0%, 0%)" stroke-opacity="1" stroke-miterlimit="10" d="M 390.540571 932.395848 L 721.847383 1337.962436 " transform="matrix(0.0996291, 0, 0, -0.0996291, 0.532185, 149.882077)"/>
<path fill="none" stroke-width="18.2874" stroke-linecap="round" stroke-linejoin="round" stroke="rgb(0%, 0%, 0%)" stroke-opacity="1" stroke-miterlimit="10" d="M 390.540571 932.395848 L 669.46562 1004.303149 " transform="matrix(0.0996291, 0, 0, -0.0996291, 0.532185, 149.882077)"/>
<path fill="none" stroke-width="18.2874" stroke-linecap="round" stroke-linejoin="round" stroke="rgb(0%, 0%, 0%)" stroke-opacity="1" stroke-miterlimit="10" d="M 721.847383 1337.962436 L 810.104381 1325.063034 " transform="matrix(0.0996291, 0, 0, -0.0996291, 0.532185, 149.882077)"/>
<path fill="none" stroke-width="18.2874" stroke-linecap="round" stroke-linejoin="round" stroke="rgb(0%, 0%, 0%)" stroke-opacity="1" stroke-miterlimit="10" d="M 199.323609 1175.092791 L 721.847383 1337.962436 " transform="matrix(0.0996291, 0, 0, -0.0996291, 0.532185, 149.882077)"/>
<path fill="none" stroke-width="18.2874" stroke-linecap="round" stroke-linejoin="round" stroke="rgb(0%, 0%, 0%)" stroke-opacity="1" stroke-miterlimit="10" d="M 721.847383 1337.962436 L 1036.255588 1105.734004 " transform="matrix(0.0996291, 0, 0, -0.0996291, 0.532185, 149.882077)"/>
<path fill="none" stroke-width="18.2874" stroke-linecap="round" stroke-linejoin="round" stroke="rgb(0%, 0%, 0%)" stroke-opacity="1" stroke-miterlimit="10" d="M 613.672768 649.157929 L 623.239497 67.273384 " transform="matrix(0.0996291, 0, 0, -0.0996291, 0.532185, 149.882077)"/>
<path fill="none" stroke-width="18.2874" stroke-linecap="round" stroke-linejoin="round" stroke="rgb(0%, 0%, 0%)" stroke-opacity="1" stroke-miterlimit="10" d="M 1298.046782 851.784391 L 1310.671728 903.029125 " transform="matrix(0.0996291, 0, 0, -0.0996291, 0.532185, 149.882077)"/>
<path fill="none" stroke-width="18.2874" stroke-linecap="round" stroke-linejoin="round" stroke="rgb(0%, 0%, 0%)" stroke-opacity="1" stroke-miterlimit="10" d="M 1249.899472 282.367961 L 1298.046782 851.784391 " transform="matrix(0.0996291, 0, 0, -0.0996291, 0.532185, 149.882077)"/>
<path fill="none" stroke-width="18.2874" stroke-linecap="round" stroke-linejoin="round" stroke="rgb(0%, 0%, 0%)" stroke-opacity="1" stroke-miterlimit="10" d="M 1286.323617 678.407027 L 1298.046782 851.784391 " transform="matrix(0.0996291, 0, 0, -0.0996291, 0.532185, 149.882077)"/>
<path fill="none" stroke-width="18.2874" stroke-linecap="round" stroke-linejoin="round" stroke="rgb(0%, 0%, 0%)" stroke-opacity="1" stroke-miterlimit="10" d="M 1036.255588 1105.734004 L 1298.046782 851.784391 " transform="matrix(0.0996291, 0, 0, -0.0996291, 0.532185, 149.882077)"/>
<path fill="none" stroke-width="18.2874" stroke-linecap="round" stroke-linejoin="round" stroke="rgb(0%, 0%, 0%)" stroke-opacity="1" stroke-miterlimit="10" d="M 70.682467 540.904898 L 613.672768 649.157929 " transform="matrix(0.0996291, 0, 0, -0.0996291, 0.532185, 149.882077)"/>
<path fill="none" stroke-width="18.2874" stroke-linecap="round" stroke-linejoin="round" stroke="rgb(0%, 0%, 0%)" stroke-opacity="1" stroke-miterlimit="10" d="M 1009.123716 1095.579156 L 1036.255588 1105.734004 " transform="matrix(0.0996291, 0, 0, -0.0996291, 0.532185, 149.882077)"/>
<path fill="none" stroke-width="18.2874" stroke-linecap="round" stroke-linejoin="round" stroke="rgb(0%, 0%, 0%)" stroke-opacity="1" stroke-miterlimit="10" d="M 882.482177 952.627128 L 1009.123716 1095.579156 " transform="matrix(0.0996291, 0, 0, -0.0996291, 0.532185, 149.882077)"/>
<path fill="none" stroke-width="18.2874" stroke-linecap="round" stroke-linejoin="round" stroke="rgb(0%, 0%, 0%)" stroke-opacity="1" stroke-miterlimit="10" d="M 613.672768 649.157929 L 1298.046782 851.784391 " transform="matrix(0.0996291, 0, 0, -0.0996291, 0.532185, 149.882077)"/>
<path fill="none" stroke-width="18.2874" stroke-linecap="round" stroke-linejoin="round" stroke="rgb(0%, 0%, 0%)" stroke-opacity="1" stroke-miterlimit="10" d="M 882.482177 952.627128 L 1298.046782 851.784391 " transform="matrix(0.0996291, 0, 0, -0.0996291, 0.532185, 149.882077)"/>
<path fill="none" stroke-width="18.2874" stroke-linecap="round" stroke-linejoin="round" stroke="rgb(0%, 0%, 0%)" stroke-opacity="1" stroke-miterlimit="10" d="M 1298.046782 851.784391 L 1298.046782 851.784391 " transform="matrix(0.0996291, 0, 0, -0.0996291, 0.532185, 149.882077)"/>
<path fill="none" stroke-width="18.2874" stroke-linecap="round" stroke-linejoin="round" stroke="rgb(0%, 0%, 0%)" stroke-opacity="1" stroke-miterlimit="10" d="M 882.482177 952.627128 L 965.563732 753.333337 " transform="matrix(0.0996291, 0, 0, -0.0996291, 0.532185, 149.882077)"/>
<path fill="none" stroke-width="18.2874" stroke-linecap="round" stroke-linejoin="round" stroke="rgb(0%, 0%, 0%)" stroke-opacity="1" stroke-miterlimit="10" d="M 669.46562 1004.303149 L 882.482177 952.627128 " transform="matrix(0.0996291, 0, 0, -0.0996291, 0.532185, 149.882077)"/>
<path fill="none" stroke-width="18.2874" stroke-linecap="round" stroke-linejoin="round" stroke="rgb(0%, 0%, 0%)" stroke-opacity="1" stroke-miterlimit="10" d="M 613.672768 649.157929 L 882.482177 952.627128 " transform="matrix(0.0996291, 0, 0, -0.0996291, 0.532185, 149.882077)"/>
<path fill="none" stroke-width="18.2874" stroke-linecap="round" stroke-linejoin="round" stroke="rgb(0%, 0%, 0%)" stroke-opacity="1" stroke-miterlimit="10" d="M 613.672768 649.157929 L 613.672768 649.157929 " transform="matrix(0.0996291, 0, 0, -0.0996291, 0.532185, 149.882077)"/>
<path fill-rule="nonzero" fill="rgb(51.5625%, 50.193787%, 78.125%)" fill-opacity="1" stroke-width="5" stroke-linecap="round" stroke-linejoin="round" stroke="rgb(0%, 0%, 0%)" stroke-opacity="1" stroke-miterlimit="10" d="M 2712.864099 282.367961 L 2184.851218 217.400459 L 2266.638911 793.050947 " transform="matrix(0.0996291, 0, 0, -0.0996291, 0.532185, 149.882077)"/>
<path fill-rule="nonzero" fill="rgb(51.5625%, 50.193787%, 78.125%)" fill-opacity="1" stroke-width="5" stroke-linecap="round" stroke-linejoin="round" stroke="rgb(0%, 0%, 0%)" stroke-opacity="1" stroke-miterlimit="10" d="M 2266.638911 793.050947 L 2773.636354 903.029125 L 2712.864099 282.367961 " transform="matrix(0.0996291, 0, 0, -0.0996291, 0.532185, 149.882077)"/>
<path fill-rule="nonzero" fill="rgb(79.6875%, 54.296875%, 55.664062%)" fill-opacity="1" stroke-width="5" stroke-linecap="round" stroke-linejoin="round" stroke="rgb(0%, 0%, 0%)" stroke-opacity="1" stroke-miterlimit="10" d="M 2273.108216 1325.063034 L 2266.638911 793.050947 L 1702.241093 629.946054 " transform="matrix(0.0996291, 0, 0, -0.0996291, 0.532185, 149.882077)"/>
<path fill-rule="nonzero" fill="rgb(56.834412%, 36.009216%, 55.859375%)" fill-opacity="1" d="M 227 17.867188 L 276.867188 59.914062 L 226.355469 70.871094 "/>
<path fill="none" stroke-width="5" stroke-linecap="round" stroke-linejoin="round" stroke="rgb(0%, 0%, 0%)" stroke-opacity="1" stroke-miterlimit="10" d="M 2273.108216 1325.063034 L 2773.636354 903.029125 L 2266.638911 793.050947 Z M 2273.108216 1325.063034 " transform="matrix(0.0996291, 0, 0, -0.0996291, 0.532185, 149.882077)"/>
<path fill-rule="nonzero" fill="rgb(75.389099%, 67.381287%, 77.34375%)" fill-opacity="1" d="M 170.125 87.121094 L 226.355469 70.871094 L 218.207031 128.222656 "/>
<path fill="none" stroke-width="5" stroke-linecap="round" stroke-linejoin="round" stroke="rgb(0%, 0%, 0%)" stroke-opacity="1" stroke-miterlimit="10" d="M 1702.241093 629.946054 L 2266.638911 793.050947 L 2184.851218 217.400459 Z M 1702.241093 629.946054 " transform="matrix(0.0996291, 0, 0, -0.0996291, 0.532185, 149.882077)"/>
<path fill-rule="nonzero" fill="rgb(81.25%, 99.021912%, 87.693787%)" fill-opacity="1" stroke-width="5" stroke-linecap="round" stroke-linejoin="round" stroke="rgb(0%, 0%, 0%)" stroke-opacity="1" stroke-miterlimit="10" d="M 2086.204124 67.273384 L 1533.686301 540.904898 L 1702.241093 629.946054 " transform="matrix(0.0996291, 0, 0, -0.0996291, 0.532185, 149.882077)"/>
<path fill-rule="nonzero" fill="rgb(81.25%, 99.021912%, 87.693787%)" fill-opacity="1" stroke-width="5" stroke-linecap="round" stroke-linejoin="round" stroke="rgb(0%, 0%, 0%)" stroke-opacity="1" stroke-miterlimit="10" d="M 1702.241093 629.946054 L 2184.851218 217.400459 L 2086.204124 67.273384 " transform="matrix(0.0996291, 0, 0, -0.0996291, 0.532185, 149.882077)"/>
<path fill-rule="nonzero" fill="rgb(79.6875%, 54.296875%, 55.664062%)" fill-opacity="1" stroke-width="5" stroke-linecap="round" stroke-linejoin="round" stroke="rgb(0%, 0%, 0%)" stroke-opacity="1" stroke-miterlimit="10" d="M 1702.241093 629.946054 L 1662.327444 1175.092791 L 2273.108216 1325.063034 " transform="matrix(0.0996291, 0, 0, -0.0996291, 0.532185, 149.882077)"/>
<path fill-rule="nonzero" fill="rgb(99.21875%, 76.951599%, 39.793396%)" fill-opacity="1" d="M 170.125 87.121094 L 153.332031 95.992188 L 166.148438 32.808594 "/>
<path fill="none" stroke-width="5" stroke-linecap="round" stroke-linejoin="round" stroke="rgb(0%, 0%, 0%)" stroke-opacity="1" stroke-miterlimit="10" d="M 1702.241093 629.946054 L 1533.686301 540.904898 L 1662.327444 1175.092791 Z M 1702.241093 629.946054 " transform="matrix(0.0996291, 0, 0, -0.0996291, 0.532185, 149.882077)"/>
<path fill-rule="nonzero" fill="rgb(21.409607%, 65.039062%, 95.117188%)" fill-opacity="1" d="M 218.207031 128.222656 L 270.8125 121.75 L 208.378906 143.179688 "/>
<path fill="none" stroke-width="5" stroke-linecap="round" stroke-linejoin="round" stroke="rgb(0%, 0%, 0%)" stroke-opacity="1" stroke-miterlimit="10" d="M 2184.851218 217.400459 L 2712.864099 282.367961 L 2086.204124 67.273384 Z M 2184.851218 217.400459 " transform="matrix(0.0996291, 0, 0, -0.0996291, 0.532185, 149.882077)"/>
<path fill-rule="nonzero" fill="rgb(59.959412%, 92.1875%, 68.359375%)" fill-opacity="1" stroke-width="5" stroke-linecap="round" stroke-linejoin="round" stroke="rgb(0%, 0%, 0%)" stroke-opacity="1" stroke-miterlimit="10" d="M 2761.050616 851.784391 L 2773.636354 903.029125 L 2273.108216 1325.063034 " transform="matrix(0.0996291, 0, 0, -0.0996291, 0.532185, 149.882077)"/>
<path fill-rule="nonzero" fill="rgb(29.710388%, 0%, 0%)" fill-opacity="1" d="M 166.148438 32.808594 L 218.207031 16.585938 L 227 17.867188 "/>
<path fill="none" stroke-width="5" stroke-linecap="round" stroke-linejoin="round" stroke="rgb(0%, 0%, 0%)" stroke-opacity="1" stroke-miterlimit="10" d="M 1662.327444 1175.092791 L 2184.851218 1337.923228 L 2273.108216 1325.063034 Z M 1662.327444 1175.092791 " transform="matrix(0.0996291, 0, 0, -0.0996291, 0.532185, 149.882077)"/>
<path fill-rule="nonzero" fill="rgb(59.959412%, 92.1875%, 68.359375%)" fill-opacity="1" stroke-width="5" stroke-linecap="round" stroke-linejoin="round" stroke="rgb(0%, 0%, 0%)" stroke-opacity="1" stroke-miterlimit="10" d="M 2273.108216 1325.063034 L 2184.851218 1337.923228 L 2761.050616 851.784391 " transform="matrix(0.0996291, 0, 0, -0.0996291, 0.532185, 149.882077)"/>
<path fill-rule="nonzero" fill="rgb(73.046875%, 54.296875%, 0%)" fill-opacity="1" d="M 276.867188 59.914062 L 275.613281 65.019531 L 270.8125 121.75 "/>
<path fill="none" stroke-width="5" stroke-linecap="round" stroke-linejoin="round" stroke="rgb(0%, 0%, 0%)" stroke-opacity="1" stroke-miterlimit="10" d="M 2773.636354 903.029125 L 2761.050616 851.784391 L 2712.864099 282.367961 Z M 2773.636354 903.029125 " transform="matrix(0.0996291, 0, 0, -0.0996291, 0.532185, 149.882077)"/>
<path fill-rule="nonzero" fill="rgb(44.40918%, 46.99707%, 79.296875%)" fill-opacity="1" stroke-width="5" stroke-linecap="round" stroke-linejoin="round" stroke="rgb(0%, 0%, 0%)" stroke-opacity="1" stroke-miterlimit="10" d="M 2076.676603 649.157929 L 2184.851218 1337.923228 L 1662.327444 1175.092791 " transform="matrix(0.0996291, 0, 0, -0.0996291, 0.532185, 149.882077)"/>
<path fill-rule="nonzero" fill="rgb(44.40918%, 46.99707%, 79.296875%)" fill-opacity="1" stroke-width="5" stroke-linecap="round" stroke-linejoin="round" stroke="rgb(0%, 0%, 0%)" stroke-opacity="1" stroke-miterlimit="10" d="M 1662.327444 1175.092791 L 1533.686301 540.904898 L 2076.676603 649.157929 " transform="matrix(0.0996291, 0, 0, -0.0996291, 0.532185, 149.882077)"/>
<path fill-rule="nonzero" fill="rgb(81.25%, 52.539062%, 50.389099%)" fill-opacity="1" stroke-width="5" stroke-linecap="round" stroke-linejoin="round" stroke="rgb(0%, 0%, 0%)" stroke-opacity="1" stroke-miterlimit="10" d="M 2086.204124 67.273384 L 2712.864099 282.367961 L 2761.050616 851.784391 " transform="matrix(0.0996291, 0, 0, -0.0996291, 0.532185, 149.882077)"/>
<path fill-rule="nonzero" fill="rgb(50.976562%, 27.488708%, 49.510193%)" fill-opacity="1" d="M 153.332031 95.992188 L 208.378906 143.179688 L 207.429688 85.207031 "/>
<path fill="none" stroke-width="5" stroke-linecap="round" stroke-linejoin="round" stroke="rgb(0%, 0%, 0%)" stroke-opacity="1" stroke-miterlimit="10" d="M 1533.686301 540.904898 L 2086.204124 67.273384 L 2076.676603 649.157929 Z M 1533.686301 540.904898 " transform="matrix(0.0996291, 0, 0, -0.0996291, 0.532185, 149.882077)"/>
<path fill-rule="nonzero" fill="rgb(81.25%, 52.539062%, 50.389099%)" fill-opacity="1" stroke-width="5" stroke-linecap="round" stroke-linejoin="round" stroke="rgb(0%, 0%, 0%)" stroke-opacity="1" stroke-miterlimit="10" d="M 2761.050616 851.784391 L 2076.676603 649.157929 L 2086.204124 67.273384 " transform="matrix(0.0996291, 0, 0, -0.0996291, 0.532185, 149.882077)"/>
<path fill-rule="nonzero" fill="rgb(76.5625%, 69.921875%, 78.90625%)" fill-opacity="1" d="M 218.207031 16.585938 L 207.429688 85.207031 L 275.613281 65.019531 "/>
<path fill="none" stroke-width="5" stroke-linecap="round" stroke-linejoin="round" stroke="rgb(0%, 0%, 0%)" stroke-opacity="1" stroke-miterlimit="10" d="M 2184.851218 1337.923228 L 2076.676603 649.157929 L 2761.050616 851.784391 Z M 2184.851218 1337.923228 " transform="matrix(0.0996291, 0, 0, -0.0996291, 0.532185, 149.882077)"/>
</svg>
