<?xml version="1.0" encoding="UTF-8"?>
<svg xmlns="http://www.w3.org/2000/svg" xmlns:xlink="http://www.w3.org/1999/xlink" width="210" height="180" viewBox="0 0 210 180">
<path fill-rule="nonzero" fill="rgb(91.40625%, 88.28125%, 78.709412%)" fill-opacity="1" d="M 7.828125 41.921875 L 99.039062 164.335938 L 22.65625 172.710938 "/>
<path fill="none" stroke-width="8.22334" stroke-linecap="round" stroke-linejoin="round" stroke="rgb(0%, 0%, 0%)" stroke-opacity="1" stroke-miterlimit="10" d="M 78.28125 1380.78125 L 990.390625 156.640625 L 226.5625 72.890625 Z M 78.28125 1380.78125 " transform="matrix(0.1, 0, 0, -0.1, 0, 180)"/>
<path fill-rule="nonzero" fill="rgb(42.893982%, 41.697693%, 74.414062%)" fill-opacity="1" d="M 99.039062 164.335938 L 166.441406 25.433594 L 199.214844 152.191406 "/>
<path fill="none" stroke-width="8.22334" stroke-linecap="round" stroke-linejoin="round" stroke="rgb(0%, 0%, 0%)" stroke-opacity="1" stroke-miterlimit="10" d="M 990.390625 156.640625 L 1664.414062 1545.664062 L 1992.148438 278.085938 Z M 990.390625 156.640625 " transform="matrix(0.1, 0, 0, -0.1, 0, 180)"/>
<path fill-rule="nonzero" fill="rgb(69.139099%, 68.554688%, 83.984375%)" fill-opacity="1" d="M 7.828125 41.921875 L 166.441406 25.433594 L 99.039062 94.472656 "/>
<path fill="none" stroke-width="8.22334" stroke-linecap="round" stroke-linejoin="round" stroke="rgb(0%, 0%, 0%)" stroke-opacity="1" stroke-miterlimit="10" d="M 78.28125 1380.78125 L 1664.414062 1545.664062 " transform="matrix(0.1, 0, 0, -0.1, 0, 180)"/>
<path fill-rule="nonzero" fill="rgb(41.893005%, 0%, 0%)" fill-opacity="1" d="M 166.441406 25.433594 L 7.828125 41.921875 L 99.039062 10.167969 "/>
<path fill="none" stroke-width="8.22334" stroke-linecap="round" stroke-linejoin="round" stroke="rgb(0%, 0%, 0%)" stroke-opacity="1" stroke-miterlimit="10" d="M 1664.414062 1545.664062 L 78.28125 1380.78125 L 990.390625 1698.320312 Z M 1664.414062 1545.664062 " transform="matrix(0.1, 0, 0, -0.1, 0, 180)"/>
<path fill-rule="nonzero" fill="rgb(92.381287%, 60.351562%, 41.697693%)" fill-opacity="1" d="M 166.441406 25.433594 L 99.039062 164.335938 L 99.039062 94.472656 "/>
<path fill="none" stroke-width="8.22334" stroke-linecap="round" stroke-linejoin="round" stroke="rgb(0%, 0%, 0%)" stroke-opacity="1" stroke-miterlimit="10" d="M 1664.414062 1545.664062 L 990.390625 156.640625 " transform="matrix(0.1, 0, 0, -0.1, 0, 180)"/>
<path fill-rule="nonzero" fill="rgb(92.381287%, 60.351562%, 41.697693%)" fill-opacity="1" d="M 99.039062 10.167969 L 166.441406 25.433594 L 99.039062 94.472656 "/>
<path fill="none" stroke-width="8.22334" stroke-linecap="round" stroke-linejoin="round" stroke="rgb(0%, 0%, 0%)" stroke-opacity="1" stroke-miterlimit="10" d="M 990.390625 1698.320312 L 1664.414062 1545.664062 " transform="matrix(0.1, 0, 0, -0.1, 0, 180)"/>
<path fill-rule="nonzero" fill="rgb(45.506287%, 20.800781%, 44.993591%)" fill-opacity="1" d="M 7.828125 41.921875 L 99.039062 10.167969 L 99.039062 94.472656 "/>
<path fill="none" stroke-width="8.22334" stroke-linecap="round" stroke-linejoin="round" stroke="rgb(0%, 0%, 0%)" stroke-opacity="1" stroke-miterlimit="10" d="M 78.28125 1380.78125 L 990.390625 1698.320312 " transform="matrix(0.1, 0, 0, -0.1, 0, 180)"/>
<path fill-rule="nonzero" fill="rgb(45.506287%, 20.800781%, 44.993591%)" fill-opacity="1" d="M 99.039062 164.335938 L 7.828125 41.921875 L 99.039062 94.472656 "/>
<path fill="none" stroke-width="8.22334" stroke-linecap="round" stroke-linejoin="round" stroke="rgb(0%, 0%, 0%)" stroke-opacity="1" stroke-miterlimit="10" d="M 990.390625 156.640625 L 78.28125 1380.78125 " transform="matrix(0.1, 0, 0, -0.1, 0, 180)"/>
<path fill-rule="nonzero" fill="rgb(69.139099%, 68.554688%, 83.984375%)" fill-opacity="1" d="M 22.65625 172.710938 L 7.828125 41.921875 L 99.039062 94.472656 "/>
<path fill="none" stroke-width="8.22334" stroke-linecap="round" stroke-linejoin="round" stroke="rgb(0%, 0%, 0%)" stroke-opacity="1" stroke-miterlimit="10" d="M 226.5625 72.890625 L 78.28125 1380.78125 " transform="matrix(0.1, 0, 0, -0.1, 0, 180)"/>
<path fill-rule="nonzero" fill="rgb(92.381287%, 60.351562%, 41.697693%)" fill-opacity="1" d="M 99.039062 164.335938 L 22.65625 172.710938 L 99.039062 94.472656 "/>
<path fill="none" stroke-width="8.22334" stroke-linecap="round" stroke-linejoin="round" stroke="rgb(0%, 0%, 0%)" stroke-opacity="1" stroke-miterlimit="10" d="M 990.390625 156.640625 L 226.5625 72.890625 " transform="matrix(0.1, 0, 0, -0.1, 0, 180)"/>
<path fill-rule="nonzero" fill="rgb(69.139099%, 68.554688%, 83.984375%)" fill-opacity="1" d="M 166.441406 25.433594 L 199.214844 152.191406 L 99.039062 94.472656 "/>
<path fill="none" stroke-width="8.22334" stroke-linecap="round" stroke-linejoin="round" stroke="rgb(0%, 0%, 0%)" stroke-opacity="1" stroke-miterlimit="10" d="M 1664.414062 1545.664062 L 1992.148438 278.085938 " transform="matrix(0.1, 0, 0, -0.1, 0, 180)"/>
<path fill-rule="nonzero" fill="rgb(45.506287%, 20.800781%, 44.993591%)" fill-opacity="1" stroke-width="8.22334" stroke-linecap="round" stroke-linejoin="round" stroke="rgb(0%, 0%, 0%)" stroke-opacity="1" stroke-miterlimit="10" d="M 990.390625 1698.320312 L 1992.148438 278.085938 L 990.390625 156.640625 " transform="matrix(0.1, 0, 0, -0.1, 0, 180)"/>
<path fill-rule="nonzero" fill="rgb(69.139099%, 68.554688%, 83.984375%)" fill-opacity="1" d="M 199.214844 152.191406 L 22.65625 172.710938 L 99.039062 94.472656 "/>
<path fill="none" stroke-width="8.22334" stroke-linecap="round" stroke-linejoin="round" stroke="rgb(0%, 0%, 0%)" stroke-opacity="1" stroke-miterlimit="10" d="M 1992.148438 278.085938 L 226.5625 72.890625 " transform="matrix(0.1, 0, 0, -0.1, 0, 180)"/>
<path fill-rule="nonzero" fill="rgb(92.381287%, 60.351562%, 41.697693%)" fill-opacity="1" d="M 22.65625 172.710938 L 99.039062 10.167969 L 99.039062 94.472656 "/>
<path fill="none" stroke-width="8.22334" stroke-linecap="round" stroke-linejoin="round" stroke="rgb(0%, 0%, 0%)" stroke-opacity="1" stroke-miterlimit="10" d="M 226.5625 72.890625 L 990.390625 1698.320312 " transform="matrix(0.1, 0, 0, -0.1, 0, 180)"/>
<path fill-rule="nonzero" fill="rgb(72.851562%, 55.271912%, 65.429688%)" fill-opacity="1" d="M 99.039062 10.167969 L 22.65625 172.710938 L 199.214844 152.191406 "/>
<path fill="none" stroke-width="8.22334" stroke-linecap="round" stroke-linejoin="round" stroke="rgb(0%, 0%, 0%)" stroke-opacity="1" stroke-miterlimit="10" d="M 990.390625 1698.320312 L 226.5625 72.890625 L 1992.148438 278.085938 Z M 990.390625 1698.320312 " transform="matrix(0.1, 0, 0, -0.1, 0, 180)"/>
</svg>
