<?xml version="1.0" encoding="UTF-8"?>
<svg xmlns="http://www.w3.org/2000/svg" xmlns:xlink="http://www.w3.org/1999/xlink" width="130" height="133" viewBox="0 0 130 133">
<path fill-rule="evenodd" fill="rgb(87.747192%, 73.59314%, 65.438843%)" fill-opacity="1" stroke-width="3.086" stroke-linecap="butt" stroke-linejoin="miter" stroke="rgb(13.729858%, 12.159729%, 12.548828%)" stroke-opacity="1" stroke-miterlimit="4" d="M 25.9375 497.851562 L 500.273438 952.8125 L 671.992188 12.851562 Z M 25.9375 497.851562 " transform="matrix(0.1, 0, 0, -0.1, 0, 133)"/>
<path fill-rule="evenodd" fill="rgb(74.845886%, 32.733154%, 14.039612%)" fill-opacity="1" stroke-width="3.086" stroke-linecap="butt" stroke-linejoin="miter" stroke="rgb(13.729858%, 12.159729%, 12.548828%)" stroke-opacity="1" stroke-miterlimit="4" d="M 25.9375 497.851562 L 500.273438 952.8125 L 671.992188 1318.476562 Z M 25.9375 497.851562 " transform="matrix(0.1, 0, 0, -0.1, 0, 133)"/>
<path fill-rule="evenodd" fill="rgb(62.837219%, 47.564697%, 57.434082%)" fill-opacity="1" stroke-width="3.086" stroke-linecap="butt" stroke-linejoin="miter" stroke="rgb(13.729858%, 12.159729%, 12.548828%)" stroke-opacity="1" stroke-miterlimit="4" d="M 500.273438 952.8125 L 1284.84375 719.0625 L 671.992188 12.851562 Z M 500.273438 952.8125 " transform="matrix(0.1, 0, 0, -0.1, 0, 133)"/>
<path fill-rule="evenodd" fill="rgb(48.907471%, 17.131042%, 26.730347%)" fill-opacity="1" stroke-width="3.086" stroke-linecap="butt" stroke-linejoin="miter" stroke="rgb(13.729858%, 12.159729%, 12.548828%)" stroke-opacity="1" stroke-miterlimit="4" d="M 500.273438 952.8125 L 1284.84375 719.0625 L 671.992188 1318.476562 Z M 500.273438 952.8125 " transform="matrix(0.1, 0, 0, -0.1, 0, 133)"/>
<path fill-rule="evenodd" fill="rgb(19.502258%, 20.137024%, 40.983582%)" fill-opacity="1" stroke-width="3.086" stroke-linecap="butt" stroke-linejoin="miter" stroke="rgb(13.729858%, 12.159729%, 12.548828%)" stroke-opacity="1" stroke-miterlimit="4" d="M 877.265625 203.320312 L 1284.84375 719.0625 L 671.992188 12.851562 Z M 877.265625 203.320312 " transform="matrix(0.1, 0, 0, -0.1, 0, 133)"/>
<path fill-rule="evenodd" fill="rgb(38.278198%, 18.756104%, 20.388794%)" fill-opacity="1" stroke-width="3.086" stroke-linecap="butt" stroke-linejoin="miter" stroke="rgb(13.729858%, 12.159729%, 12.548828%)" stroke-opacity="1" stroke-miterlimit="4" d="M 25.9375 497.851562 L 877.265625 203.320312 L 671.992188 12.851562 Z M 25.9375 497.851562 " transform="matrix(0.1, 0, 0, -0.1, 0, 133)"/>
<path fill-rule="evenodd" fill="rgb(90.637207%, 77.084351%, 65.533447%)" fill-opacity="1" stroke-width="3.086" stroke-linecap="butt" stroke-linejoin="miter" stroke="rgb(13.729858%, 12.159729%, 12.548828%)" stroke-opacity="1" stroke-miterlimit="4" d="M 877.265625 203.320312 L 1284.84375 719.0625 L 671.992188 1318.476562 Z M 877.265625 203.320312 " transform="matrix(0.1, 0, 0, -0.1, 0, 133)"/>
<path fill-rule="evenodd" fill="rgb(61.49292%, 46.272278%, 56.846619%)" fill-opacity="1" stroke-width="3.086" stroke-linecap="butt" stroke-linejoin="miter" stroke="rgb(13.729858%, 12.159729%, 12.548828%)" stroke-opacity="1" stroke-miterlimit="4" d="M 25.9375 497.851562 L 877.265625 203.320312 L 671.992188 1318.476562 Z M 25.9375 497.851562 " transform="matrix(0.1, 0, 0, -0.1, 0, 133)"/>
</svg>
