<?xml version="1.0" encoding="UTF-8"?>
<svg xmlns="http://www.w3.org/2000/svg" xmlns:xlink="http://www.w3.org/1999/xlink" width="200" height="200" viewBox="0 0 200 200">
<path fill-rule="nonzero" fill="rgb(71.289062%, 60.351562%, 73.4375%)" fill-opacity="1" stroke-width="6.59289" stroke-linecap="round" stroke-linejoin="round" stroke="rgb(0%, 0%, 0%)" stroke-opacity="1" stroke-miterlimit="10" d="M 968.164062 418.125 L 482.851562 850.234375 L 914.648438 1323.046875 " transform="matrix(0.1, 0, 0, -0.1, 0, 200)"/>
<path fill-rule="nonzero" fill="rgb(71.289062%, 60.351562%, 73.4375%)" fill-opacity="1" stroke-width="6.59289" stroke-linecap="round" stroke-linejoin="round" stroke="rgb(0%, 0%, 0%)" stroke-opacity="1" stroke-miterlimit="10" d="M 914.648438 1323.046875 L 1397.226562 898.984375 L 968.164062 418.125 " transform="matrix(0.1, 0, 0, -0.1, 0, 200)"/>
<path fill-rule="nonzero" fill="rgb(70.506287%, 44.993591%, 53.514099%)" fill-opacity="1" d="M 124.453125 23.355469 L 91.464844 67.695312 L 57.125 26.628906 "/>
<path fill="none" stroke-width="6.59289" stroke-linecap="round" stroke-linejoin="round" stroke="rgb(0%, 0%, 0%)" stroke-opacity="1" stroke-miterlimit="10" d="M 1244.53125 1766.445312 L 914.648438 1323.046875 L 571.25 1733.710938 Z M 1244.53125 1766.445312 " transform="matrix(0.1, 0, 0, -0.1, 0, 200)"/>
<path fill-rule="nonzero" fill="rgb(71.289062%, 60.546875%, 73.4375%)" fill-opacity="1" d="M 57.125 26.628906 L 124.453125 23.355469 L 105.984375 43.535156 "/>
<path fill="none" stroke-width="6.59289" stroke-linecap="round" stroke-linejoin="round" stroke="rgb(0%, 0%, 0%)" stroke-opacity="1" stroke-miterlimit="10" d="M 571.25 1733.710938 L 1244.53125 1766.445312 " transform="matrix(0.1, 0, 0, -0.1, 0, 200)"/>
<path fill-rule="nonzero" fill="rgb(79.101562%, 30.393982%, 0%)" fill-opacity="1" d="M 124.453125 23.355469 L 91.464844 67.695312 L 92.8125 57.929688 "/>
<path fill="none" stroke-width="6.59289" stroke-linecap="round" stroke-linejoin="round" stroke="rgb(0%, 0%, 0%)" stroke-opacity="1" stroke-miterlimit="10" d="M 1244.53125 1766.445312 L 914.648438 1323.046875 " transform="matrix(0.1, 0, 0, -0.1, 0, 200)"/>
<path fill-rule="nonzero" fill="rgb(48.706055%, 40.795898%, 69.334412%)" fill-opacity="1" d="M 139.722656 110.101562 L 175.308594 67.53125 L 180.433594 134.789062 "/>
<path fill="none" stroke-width="6.59289" stroke-linecap="round" stroke-linejoin="round" stroke="rgb(0%, 0%, 0%)" stroke-opacity="1" stroke-miterlimit="10" d="M 1397.226562 898.984375 L 1753.085938 1324.6875 L 1804.335938 652.109375 Z M 1397.226562 898.984375 " transform="matrix(0.1, 0, 0, -0.1, 0, 200)"/>
<path fill-rule="nonzero" fill="rgb(63.476562%, 14.109802%, 0%)" fill-opacity="1" d="M 139.722656 110.101562 L 175.308594 67.53125 L 143.886719 102.730469 "/>
<path fill="none" stroke-width="6.59289" stroke-linecap="round" stroke-linejoin="round" stroke="rgb(0%, 0%, 0%)" stroke-opacity="1" stroke-miterlimit="10" d="M 1397.226562 898.984375 L 1753.085938 1324.6875 " transform="matrix(0.1, 0, 0, -0.1, 0, 200)"/>
<path fill-rule="nonzero" fill="rgb(71.289062%, 60.546875%, 73.4375%)" fill-opacity="1" d="M 175.308594 67.53125 L 180.433594 134.789062 L 143.886719 102.730469 "/>
<path fill="none" stroke-width="6.59289" stroke-linecap="round" stroke-linejoin="round" stroke="rgb(0%, 0%, 0%)" stroke-opacity="1" stroke-miterlimit="10" d="M 1753.085938 1324.6875 L 1804.335938 652.109375 " transform="matrix(0.1, 0, 0, -0.1, 0, 200)"/>
<path fill-rule="nonzero" fill="rgb(71.289062%, 60.546875%, 73.4375%)" fill-opacity="1" d="M 57.125 26.628906 L 105.984375 43.535156 L 92.8125 57.929688 "/>
<path fill-rule="nonzero" fill="rgb(71.289062%, 60.546875%, 73.4375%)" fill-opacity="1" d="M 92.8125 57.929688 L 175.308594 67.53125 L 143.886719 102.730469 "/>
<path fill-rule="nonzero" fill="rgb(71.289062%, 60.546875%, 73.4375%)" fill-opacity="1" d="M 105.984375 43.535156 L 175.308594 67.53125 L 92.8125 57.929688 "/>
<path fill-rule="nonzero" fill="rgb(63.476562%, 14.109802%, 0%)" fill-opacity="1" d="M 164.894531 74.800781 L 143.886719 102.730469 L 175.308594 67.53125 "/>
<path fill-rule="nonzero" fill="rgb(79.101562%, 30.393982%, 0%)" fill-opacity="1" d="M 95.011719 42.023438 L 124.453125 23.355469 L 92.8125 57.929688 "/>
<path fill-rule="nonzero" fill="rgb(71.289062%, 60.742188%, 73.826599%)" fill-opacity="1" d="M 56.160156 8.039062 L 95.011719 42.023438 L 109.339844 26.417969 "/>
<path fill-rule="nonzero" fill="rgb(79.101562%, 30.393982%, 0%)" fill-opacity="1" d="M 96.816406 28.953125 L 109.339844 26.417969 L 95.011719 42.023438 "/>
<path fill-rule="nonzero" fill="rgb(79.101562%, 30.393982%, 0%)" fill-opacity="1" d="M 109.339844 26.417969 L 124.453125 23.355469 L 95.011719 42.023438 "/>
<path fill-rule="nonzero" fill="rgb(71.289062%, 60.742188%, 73.826599%)" fill-opacity="1" d="M 129.414062 4.546875 L 56.160156 8.039062 L 109.339844 26.417969 "/>
<path fill="none" stroke-width="6.59289" stroke-linecap="round" stroke-linejoin="round" stroke="rgb(0%, 0%, 0%)" stroke-opacity="1" stroke-miterlimit="10" d="M 1294.140625 1954.53125 L 561.601562 1919.609375 " transform="matrix(0.1, 0, 0, -0.1, 0, 200)"/>
<path fill-rule="nonzero" fill="rgb(71.289062%, 60.546875%, 73.4375%)" fill-opacity="1" d="M 124.453125 23.355469 L 175.308594 67.53125 L 105.984375 43.535156 "/>
<path fill="none" stroke-width="6.59289" stroke-linecap="round" stroke-linejoin="round" stroke="rgb(0%, 0%, 0%)" stroke-opacity="1" stroke-miterlimit="10" d="M 1244.53125 1766.445312 L 1753.085938 1324.6875 " transform="matrix(0.1, 0, 0, -0.1, 0, 200)"/>
<path fill-rule="nonzero" fill="rgb(16.088867%, 0%, 12.597656%)" fill-opacity="1" stroke-width="6.59289" stroke-linecap="round" stroke-linejoin="round" stroke="rgb(0%, 0%, 0%)" stroke-opacity="1" stroke-miterlimit="10" d="M 1753.085938 1324.6875 L 1244.53125 1766.445312 L 1294.140625 1954.53125 " transform="matrix(0.1, 0, 0, -0.1, 0, 200)"/>
<path fill-rule="nonzero" fill="rgb(79.101562%, 30.393982%, 0%)" fill-opacity="1" stroke-width="6.59289" stroke-linecap="round" stroke-linejoin="round" stroke="rgb(0%, 0%, 0%)" stroke-opacity="1" stroke-miterlimit="10" d="M 968.164062 1710.46875 L 1294.140625 1954.53125 L 1244.53125 1766.445312 " transform="matrix(0.1, 0, 0, -0.1, 0, 200)"/>
<path fill-rule="nonzero" fill="rgb(16.088867%, 0%, 12.597656%)" fill-opacity="1" stroke-width="6.59289" stroke-linecap="round" stroke-linejoin="round" stroke="rgb(0%, 0%, 0%)" stroke-opacity="1" stroke-miterlimit="10" d="M 1294.140625 1954.53125 L 1848.242188 1474.960938 L 1753.085938 1324.6875 " transform="matrix(0.1, 0, 0, -0.1, 0, 200)"/>
<path fill-rule="nonzero" fill="rgb(71.289062%, 60.742188%, 73.826599%)" fill-opacity="1" d="M 184.824219 52.503906 L 129.414062 4.546875 L 109.339844 26.417969 "/>
<path fill="none" stroke-width="6.59289" stroke-linecap="round" stroke-linejoin="round" stroke="rgb(0%, 0%, 0%)" stroke-opacity="1" stroke-miterlimit="10" d="M 1848.242188 1474.960938 L 1294.140625 1954.53125 " transform="matrix(0.1, 0, 0, -0.1, 0, 200)"/>
<path fill-rule="nonzero" fill="rgb(71.289062%, 60.742188%, 73.826599%)" fill-opacity="1" d="M 109.339844 26.417969 L 156.578125 84.105469 L 184.824219 52.503906 "/>
<path fill-rule="nonzero" fill="rgb(63.476562%, 14.109802%, 0%)" fill-opacity="1" d="M 150.675781 90.710938 L 143.886719 102.730469 L 164.894531 74.800781 "/>
<path fill-rule="nonzero" fill="rgb(71.289062%, 60.742188%, 73.826599%)" fill-opacity="1" d="M 95.011719 42.023438 L 150.675781 90.710938 L 109.339844 26.417969 "/>
<path fill-rule="nonzero" fill="rgb(71.289062%, 60.742188%, 73.826599%)" fill-opacity="1" d="M 150.675781 90.710938 L 190.546875 125.589844 L 156.578125 84.105469 "/>
<path fill-rule="nonzero" fill="rgb(71.289062%, 60.742188%, 73.826599%)" fill-opacity="1" d="M 150.675781 90.710938 L 156.578125 84.105469 L 109.339844 26.417969 "/>
<path fill-rule="nonzero" fill="rgb(4.399109%, 0%, 0.39978%)" fill-opacity="1" d="M 139.722656 110.101562 L 91.464844 67.695312 L 96.816406 28.953125 "/>
<path fill="none" stroke-width="6.59289" stroke-linecap="round" stroke-linejoin="round" stroke="rgb(0%, 0%, 0%)" stroke-opacity="1" stroke-miterlimit="10" d="M 1397.226562 898.984375 L 914.648438 1323.046875 " transform="matrix(0.1, 0, 0, -0.1, 0, 200)"/>
<path fill-rule="nonzero" fill="rgb(4.399109%, 0%, 0.39978%)" fill-opacity="1" d="M 180.433594 134.789062 L 139.722656 110.101562 L 96.816406 28.953125 "/>
<path fill="none" stroke-width="6.59289" stroke-linecap="round" stroke-linejoin="round" stroke="rgb(0%, 0%, 0%)" stroke-opacity="1" stroke-miterlimit="10" d="M 1804.335938 652.109375 L 1397.226562 898.984375 " transform="matrix(0.1, 0, 0, -0.1, 0, 200)"/>
<path fill-rule="nonzero" fill="rgb(63.476562%, 14.109802%, 0%)" fill-opacity="1" d="M 96.816406 158.1875 L 139.722656 110.101562 L 143.886719 102.730469 "/>
<path fill="none" stroke-width="6.59289" stroke-linecap="round" stroke-linejoin="round" stroke="rgb(0%, 0%, 0%)" stroke-opacity="1" stroke-miterlimit="10" d="M 968.164062 418.125 L 1397.226562 898.984375 " transform="matrix(0.1, 0, 0, -0.1, 0, 200)"/>
<path fill-rule="nonzero" fill="rgb(63.476562%, 14.109802%, 0%)" fill-opacity="1" d="M 117.441406 132.351562 L 96.816406 158.1875 L 143.886719 102.730469 "/>
<path fill-rule="nonzero" fill="rgb(79.101562%, 30.393982%, 0%)" fill-opacity="1" d="M 91.464844 67.695312 L 48.285156 114.976562 L 60.625 93.105469 "/>
<path fill="none" stroke-width="6.59289" stroke-linecap="round" stroke-linejoin="round" stroke="rgb(0%, 0%, 0%)" stroke-opacity="1" stroke-miterlimit="10" d="M 914.648438 1323.046875 L 482.851562 850.234375 " transform="matrix(0.1, 0, 0, -0.1, 0, 200)"/>
<path fill-rule="nonzero" fill="rgb(4.399109%, 0%, 0.39978%)" fill-opacity="1" d="M 91.464844 67.695312 L 57.125 26.628906 L 92.8125 57.929688 "/>
<path fill="none" stroke-width="6.59289" stroke-linecap="round" stroke-linejoin="round" stroke="rgb(0%, 0%, 0%)" stroke-opacity="1" stroke-miterlimit="10" d="M 914.648438 1323.046875 L 571.25 1733.710938 " transform="matrix(0.1, 0, 0, -0.1, 0, 200)"/>
<path fill-rule="nonzero" fill="rgb(79.101562%, 30.393982%, 0%)" fill-opacity="1" d="M 92.8125 57.929688 L 91.464844 67.695312 L 60.625 93.105469 "/>
<path fill-rule="nonzero" fill="rgb(71.289062%, 60.546875%, 73.4375%)" fill-opacity="1" d="M 79.546875 72.425781 L 138.4375 108.828125 L 111.914062 138.539062 "/>
<path fill-rule="nonzero" fill="rgb(71.289062%, 60.546875%, 73.4375%)" fill-opacity="1" d="M 92.8125 57.929688 L 143.886719 102.730469 L 79.546875 72.425781 "/>
<path fill-rule="nonzero" fill="rgb(71.289062%, 60.546875%, 73.4375%)" fill-opacity="1" d="M 143.886719 102.730469 L 138.4375 108.828125 L 79.546875 72.425781 "/>
<path fill-rule="nonzero" fill="rgb(63.476562%, 14.109802%, 0%)" fill-opacity="1" d="M 156.253906 80.828125 L 150.675781 90.710938 L 164.894531 74.800781 "/>
<path fill-rule="nonzero" fill="rgb(4.399109%, 0%, 0.39978%)" fill-opacity="1" d="M 190.546875 125.589844 L 180.433594 134.789062 L 96.816406 28.953125 "/>
<path fill="none" stroke-width="6.59289" stroke-linecap="round" stroke-linejoin="round" stroke="rgb(0%, 0%, 0%)" stroke-opacity="1" stroke-miterlimit="10" d="M 1905.46875 744.101562 L 1804.335938 652.109375 " transform="matrix(0.1, 0, 0, -0.1, 0, 200)"/>
<path fill-rule="nonzero" fill="rgb(63.476562%, 14.109802%, 0%)" fill-opacity="1" d="M 136.34375 106.75 L 111.914062 138.539062 L 150.675781 90.710938 "/>
<path fill-rule="nonzero" fill="rgb(63.476562%, 14.109802%, 0%)" fill-opacity="1" d="M 111.914062 138.539062 L 96.816406 158.1875 L 117.441406 132.351562 "/>
<path fill-rule="nonzero" fill="rgb(63.476562%, 14.109802%, 0%)" fill-opacity="1" d="M 111.914062 138.539062 L 117.441406 132.351562 L 150.675781 90.710938 "/>
<path fill-rule="nonzero" fill="rgb(71.289062%, 60.546875%, 73.4375%)" fill-opacity="1" d="M 143.886719 102.730469 L 180.433594 134.789062 L 138.4375 108.828125 "/>
<path fill-rule="nonzero" fill="rgb(71.289062%, 60.546875%, 73.4375%)" fill-opacity="1" d="M 180.433594 134.789062 L 135.285156 186.269531 L 111.914062 138.539062 "/>
<path fill="none" stroke-width="6.59289" stroke-linecap="round" stroke-linejoin="round" stroke="rgb(0%, 0%, 0%)" stroke-opacity="1" stroke-miterlimit="10" d="M 1804.335938 652.109375 L 1352.851562 137.304688 " transform="matrix(0.1, 0, 0, -0.1, 0, 200)"/>
<path fill-rule="nonzero" fill="rgb(71.289062%, 60.546875%, 73.4375%)" fill-opacity="1" d="M 138.4375 108.828125 L 180.433594 134.789062 L 111.914062 138.539062 "/>
<path fill-rule="nonzero" fill="rgb(63.476562%, 14.109802%, 0%)" fill-opacity="1" d="M 150.675781 90.710938 L 117.441406 132.351562 L 143.886719 102.730469 "/>
<path fill-rule="nonzero" fill="rgb(4.399109%, 0%, 0.39978%)" fill-opacity="1" d="M 96.816406 28.953125 L 92.8125 57.929688 L 57.125 26.628906 "/>
<path fill-rule="nonzero" fill="rgb(71.289062%, 60.546875%, 73.4375%)" fill-opacity="1" d="M 57.125 26.628906 L 92.8125 57.929688 L 79.546875 72.425781 "/>
<path fill-rule="nonzero" fill="rgb(89.256287%, 75.976562%, 70.701599%)" fill-opacity="1" d="M 48.285156 114.976562 L 14.148438 143.894531 L 11.238281 75.921875 "/>
<path fill="none" stroke-width="6.59289" stroke-linecap="round" stroke-linejoin="round" stroke="rgb(0%, 0%, 0%)" stroke-opacity="1" stroke-miterlimit="10" d="M 482.851562 850.234375 L 141.484375 561.054688 L 112.382812 1240.78125 Z M 482.851562 850.234375 " transform="matrix(0.1, 0, 0, -0.1, 0, 200)"/>
<path fill-rule="nonzero" fill="rgb(0%, 0%, 0%)" fill-opacity="1" d="M 11.238281 75.921875 L 48.285156 114.976562 L 47.132812 107.851562 "/>
<path fill="none" stroke-width="6.59289" stroke-linecap="round" stroke-linejoin="round" stroke="rgb(0%, 0%, 0%)" stroke-opacity="1" stroke-miterlimit="10" d="M 112.382812 1240.78125 L 482.851562 850.234375 " transform="matrix(0.1, 0, 0, -0.1, 0, 200)"/>
<path fill-rule="nonzero" fill="rgb(71.289062%, 60.546875%, 73.4375%)" fill-opacity="1" d="M 11.238281 75.921875 L 57.125 26.628906 L 32.21875 94.585938 "/>
<path fill="none" stroke-width="6.59289" stroke-linecap="round" stroke-linejoin="round" stroke="rgb(0%, 0%, 0%)" stroke-opacity="1" stroke-miterlimit="10" d="M 112.382812 1240.78125 L 571.25 1733.710938 " transform="matrix(0.1, 0, 0, -0.1, 0, 200)"/>
<path fill-rule="nonzero" fill="rgb(0%, 0%, 0%)" fill-opacity="1" d="M 48.285156 114.976562 L 96.816406 158.1875 L 83.386719 140.101562 "/>
<path fill="none" stroke-width="6.59289" stroke-linecap="round" stroke-linejoin="round" stroke="rgb(0%, 0%, 0%)" stroke-opacity="1" stroke-miterlimit="10" d="M 482.851562 850.234375 L 968.164062 418.125 " transform="matrix(0.1, 0, 0, -0.1, 0, 200)"/>
<path fill-rule="nonzero" fill="rgb(79.101562%, 30.393982%, 0%)" fill-opacity="1" d="M 48.285156 114.976562 L 14.148438 143.894531 L 60.625 93.105469 "/>
<path fill="none" stroke-width="6.59289" stroke-linecap="round" stroke-linejoin="round" stroke="rgb(0%, 0%, 0%)" stroke-opacity="1" stroke-miterlimit="10" d="M 482.851562 850.234375 L 141.484375 561.054688 " transform="matrix(0.1, 0, 0, -0.1, 0, 200)"/>
<path fill-rule="nonzero" fill="rgb(71.289062%, 60.546875%, 73.4375%)" fill-opacity="1" d="M 57.125 26.628906 L 62.105469 121.167969 L 32.21875 94.585938 "/>
<path fill-rule="nonzero" fill="rgb(0%, 0%, 0%)" fill-opacity="1" d="M 47.132812 107.851562 L 48.285156 114.976562 L 83.386719 140.101562 "/>
<path fill-rule="nonzero" fill="rgb(71.289062%, 60.546875%, 73.4375%)" fill-opacity="1" d="M 57.125 26.628906 L 111.914062 138.539062 L 98.511719 153.558594 "/>
<path fill-rule="nonzero" fill="rgb(71.289062%, 60.546875%, 73.4375%)" fill-opacity="1" d="M 57.125 26.628906 L 98.511719 153.558594 L 62.105469 121.167969 "/>
<path fill-rule="nonzero" fill="rgb(63.476562%, 14.109802%, 0%)" fill-opacity="1" d="M 111.914062 138.539062 L 98.511719 153.558594 L 96.816406 158.1875 "/>
<path fill-rule="nonzero" fill="rgb(0%, 0%, 0%)" fill-opacity="1" d="M 96.816406 158.1875 L 135.285156 186.269531 L 98.511719 153.558594 "/>
<path fill="none" stroke-width="6.59289" stroke-linecap="round" stroke-linejoin="round" stroke="rgb(0%, 0%, 0%)" stroke-opacity="1" stroke-miterlimit="10" d="M 968.164062 418.125 L 1352.851562 137.304688 " transform="matrix(0.1, 0, 0, -0.1, 0, 200)"/>
<path fill-rule="nonzero" fill="rgb(0%, 0%, 0%)" fill-opacity="1" d="M 83.386719 140.101562 L 96.816406 158.1875 L 98.511719 153.558594 "/>
<path fill-rule="nonzero" fill="rgb(63.476562%, 14.109802%, 0%)" fill-opacity="1" d="M 65.746094 190.261719 L 96.816406 158.1875 L 98.511719 153.558594 "/>
<path fill="none" stroke-width="6.59289" stroke-linecap="round" stroke-linejoin="round" stroke="rgb(0%, 0%, 0%)" stroke-opacity="1" stroke-miterlimit="10" d="M 657.460938 97.382812 L 968.164062 418.125 " transform="matrix(0.1, 0, 0, -0.1, 0, 200)"/>
<path fill-rule="nonzero" fill="rgb(64.256287%, 74.804688%, 92.576599%)" fill-opacity="1" d="M 65.746094 190.261719 L 96.816406 158.1875 L 135.285156 186.269531 "/>
<path fill="none" stroke-width="6.59289" stroke-linecap="round" stroke-linejoin="round" stroke="rgb(0%, 0%, 0%)" stroke-opacity="1" stroke-miterlimit="10" d="M 657.460938 97.382812 L 968.164062 418.125 L 1352.851562 137.304688 Z M 657.460938 97.382812 " transform="matrix(0.1, 0, 0, -0.1, 0, 200)"/>
<path fill-rule="nonzero" fill="rgb(71.289062%, 60.546875%, 73.4375%)" fill-opacity="1" d="M 135.285156 186.269531 L 65.746094 190.261719 L 111.914062 138.539062 "/>
<path fill="none" stroke-width="6.59289" stroke-linecap="round" stroke-linejoin="round" stroke="rgb(0%, 0%, 0%)" stroke-opacity="1" stroke-miterlimit="10" d="M 1352.851562 137.304688 L 657.460938 97.382812 " transform="matrix(0.1, 0, 0, -0.1, 0, 200)"/>
<path fill-rule="nonzero" fill="rgb(63.476562%, 14.109802%, 0%)" fill-opacity="1" d="M 136.34375 106.75 L 99.832031 149.9375 L 111.914062 138.539062 "/>
<path fill-rule="nonzero" fill="rgb(79.101562%, 30.393982%, 0%)" fill-opacity="1" d="M 59.960938 80.203125 L 60.625 93.105469 L 47.132812 107.851562 "/>
<path fill-rule="nonzero" fill="rgb(79.101562%, 30.393982%, 0%)" fill-opacity="1" d="M 59.960938 80.203125 L 47.132812 107.851562 L 45.835938 99.84375 "/>
<path fill-rule="nonzero" fill="rgb(71.289062%, 60.546875%, 73.4375%)" fill-opacity="1" d="M 65.746094 190.261719 L 14.148438 143.894531 L 32.21875 94.585938 "/>
<path fill="none" stroke-width="6.59289" stroke-linecap="round" stroke-linejoin="round" stroke="rgb(0%, 0%, 0%)" stroke-opacity="1" stroke-miterlimit="10" d="M 657.460938 97.382812 L 141.484375 561.054688 " transform="matrix(0.1, 0, 0, -0.1, 0, 200)"/>
<path fill-rule="nonzero" fill="rgb(71.289062%, 60.546875%, 73.4375%)" fill-opacity="1" d="M 62.105469 121.167969 L 65.746094 190.261719 L 32.21875 94.585938 "/>
<path fill-rule="nonzero" fill="rgb(0%, 0%, 0%)" fill-opacity="1" d="M 45.246094 96.226562 L 11.238281 75.921875 L 47.132812 107.851562 "/>
<path fill-rule="nonzero" fill="rgb(84.764099%, 38.500977%, 4.598999%)" fill-opacity="1" stroke-width="6.59289" stroke-linecap="round" stroke-linejoin="round" stroke="rgb(0%, 0%, 0%)" stroke-opacity="1" stroke-miterlimit="10" d="M 561.601562 1919.609375 L 571.25 1733.710938 L 112.382812 1240.78125 " transform="matrix(0.1, 0, 0, -0.1, 0, 200)"/>
<path fill-rule="nonzero" fill="rgb(71.289062%, 60.742188%, 73.826599%)" fill-opacity="1" d="M 56.160156 8.039062 L 29.003906 81.796875 L 45.246094 96.226562 "/>
<path fill-rule="nonzero" fill="rgb(4.399109%, 0%, 0.39978%)" fill-opacity="1" stroke-width="6.59289" stroke-linecap="round" stroke-linejoin="round" stroke="rgb(0%, 0%, 0%)" stroke-opacity="1" stroke-miterlimit="10" d="M 571.25 1733.710938 L 561.601562 1919.609375 L 968.164062 1710.46875 " transform="matrix(0.1, 0, 0, -0.1, 0, 200)"/>
<path fill-rule="nonzero" fill="rgb(71.289062%, 60.742188%, 73.826599%)" fill-opacity="1" d="M 56.160156 8.039062 L 45.246094 96.226562 L 59.960938 80.203125 "/>
<path fill-rule="nonzero" fill="rgb(0%, 0%, 0%)" fill-opacity="1" d="M 43.699219 86.660156 L 29.003906 81.796875 L 45.246094 96.226562 "/>
<path fill-rule="nonzero" fill="rgb(0%, 0%, 0%)" fill-opacity="1" d="M 29.003906 81.796875 L 11.238281 75.921875 L 45.246094 96.226562 "/>
<path fill-rule="nonzero" fill="rgb(71.289062%, 60.546875%, 73.4375%)" fill-opacity="1" d="M 14.148438 143.894531 L 11.238281 75.921875 L 32.21875 94.585938 "/>
<path fill="none" stroke-width="6.59289" stroke-linecap="round" stroke-linejoin="round" stroke="rgb(0%, 0%, 0%)" stroke-opacity="1" stroke-miterlimit="10" d="M 141.484375 561.054688 L 112.382812 1240.78125 " transform="matrix(0.1, 0, 0, -0.1, 0, 200)"/>
<path fill-rule="nonzero" fill="rgb(79.101562%, 30.393982%, 0%)" fill-opacity="1" d="M 14.148438 143.894531 L 9.25 135.433594 L 59.960938 80.203125 "/>
<path fill="none" stroke-width="6.59289" stroke-linecap="round" stroke-linejoin="round" stroke="rgb(0%, 0%, 0%)" stroke-opacity="1" stroke-miterlimit="10" d="M 141.484375 561.054688 L 92.5 645.664062 " transform="matrix(0.1, 0, 0, -0.1, 0, 200)"/>
<path fill-rule="nonzero" fill="rgb(79.101562%, 30.393982%, 0%)" fill-opacity="1" d="M 45.835938 99.84375 L 47.132812 107.851562 L 14.148438 143.894531 "/>
<path fill-rule="nonzero" fill="rgb(0%, 0%, 0%)" fill-opacity="1" d="M 61.570312 110.722656 L 47.132812 107.851562 L 83.386719 140.101562 "/>
<path fill-rule="nonzero" fill="rgb(71.289062%, 60.742188%, 73.826599%)" fill-opacity="1" d="M 29.003906 81.796875 L 9.25 135.433594 L 45.246094 96.226562 "/>
<path fill-rule="nonzero" fill="rgb(71.289062%, 60.742188%, 73.826599%)" fill-opacity="1" d="M 56.160156 8.039062 L 80.574219 57.75 L 95.011719 42.023438 "/>
<path fill-rule="nonzero" fill="rgb(0%, 0%, 0%)" fill-opacity="1" d="M 68.347656 116.746094 L 83.386719 140.101562 L 98.511719 153.558594 "/>
<path fill-rule="nonzero" fill="rgb(63.476562%, 14.109802%, 0%)" fill-opacity="1" d="M 99.832031 149.9375 L 98.511719 153.558594 L 111.914062 138.539062 "/>
<path fill-rule="nonzero" fill="rgb(0%, 0%, 0%)" fill-opacity="1" d="M 84.777344 131.332031 L 98.511719 153.558594 L 100.414062 148.34375 "/>
<path fill-rule="nonzero" fill="rgb(0%, 0%, 0%)" fill-opacity="1" d="M 68.347656 116.746094 L 98.511719 153.558594 L 84.777344 131.332031 "/>
<path fill-rule="nonzero" fill="rgb(71.289062%, 60.546875%, 73.4375%)" fill-opacity="1" d="M 62.105469 121.167969 L 98.511719 153.558594 L 65.746094 190.261719 "/>
<path fill-rule="nonzero" fill="rgb(63.476562%, 14.109802%, 0%)" fill-opacity="1" d="M 115.882812 129.644531 L 100.414062 148.34375 L 136.34375 106.75 "/>
<path fill-rule="nonzero" fill="rgb(63.476562%, 14.109802%, 0%)" fill-opacity="1" d="M 100.414062 148.34375 L 99.832031 149.9375 L 136.34375 106.75 "/>
<path fill-rule="nonzero" fill="rgb(0%, 0%, 52.34375%)" fill-opacity="1" stroke-width="6.59289" stroke-linecap="round" stroke-linejoin="round" stroke="rgb(0%, 0%, 0%)" stroke-opacity="1" stroke-miterlimit="10" d="M 1352.851562 137.304688 L 1804.335938 652.109375 L 1905.46875 744.101562 " transform="matrix(0.1, 0, 0, -0.1, 0, 200)"/>
<path fill-rule="nonzero" fill="rgb(0%, 0%, 52.34375%)" fill-opacity="1" stroke-width="6.59289" stroke-linecap="round" stroke-linejoin="round" stroke="rgb(0%, 0%, 0%)" stroke-opacity="1" stroke-miterlimit="10" d="M 1905.46875 744.101562 L 1414.140625 183.554688 L 1352.851562 137.304688 " transform="matrix(0.1, 0, 0, -0.1, 0, 200)"/>
<path fill-rule="nonzero" fill="rgb(79.101562%, 30.393982%, 0%)" fill-opacity="1" d="M 80.574219 57.75 L 92.8125 57.929688 L 60.625 93.105469 "/>
<path fill-rule="nonzero" fill="rgb(79.101562%, 30.393982%, 0%)" fill-opacity="1" d="M 80.574219 57.75 L 60.625 93.105469 L 59.960938 80.203125 "/>
<path fill-rule="nonzero" fill="rgb(71.289062%, 60.742188%, 73.826599%)" fill-opacity="1" d="M 56.160156 8.039062 L 61.570312 110.722656 L 101.273438 145.988281 "/>
<path fill-rule="nonzero" fill="rgb(71.289062%, 60.742188%, 73.826599%)" fill-opacity="1" d="M 56.160156 8.039062 L 101.273438 145.988281 L 115.882812 129.644531 "/>
<path fill-rule="nonzero" fill="rgb(79.101562%, 30.393982%, 0%)" fill-opacity="1" d="M 96.816406 28.953125 L 59.960938 80.203125 L 45.246094 96.226562 "/>
<path fill-rule="nonzero" fill="rgb(79.101562%, 30.393982%, 0%)" fill-opacity="1" d="M 44.632812 92.414062 L 45.246094 96.226562 L 9.25 135.433594 "/>
<path fill-rule="nonzero" fill="rgb(79.101562%, 30.393982%, 0%)" fill-opacity="1" d="M 96.816406 28.953125 L 45.246094 96.226562 L 44.632812 92.414062 "/>
<path fill-rule="nonzero" fill="rgb(71.289062%, 60.742188%, 73.826599%)" fill-opacity="1" d="M 59.960938 80.203125 L 45.246094 96.226562 L 61.570312 110.722656 "/>
<path fill-rule="nonzero" fill="rgb(79.101562%, 30.393982%, 0%)" fill-opacity="1" stroke-width="6.59289" stroke-linecap="round" stroke-linejoin="round" stroke="rgb(0%, 0%, 0%)" stroke-opacity="1" stroke-miterlimit="10" d="M 92.5 645.664062 L 436.992188 1133.398438 L 968.164062 1710.46875 " transform="matrix(0.1, 0, 0, -0.1, 0, 200)"/>
<path fill-rule="nonzero" fill="rgb(0%, 0%, 0%)" fill-opacity="1" d="M 43.699219 86.660156 L 100.414062 148.34375 L 102.179688 143.507812 "/>
<path fill-rule="nonzero" fill="rgb(0%, 0%, 0%)" fill-opacity="1" d="M 103.550781 139.753906 L 43.699219 86.660156 L 102.179688 143.507812 "/>
<path fill="none" stroke-width="6.59289" stroke-linecap="round" stroke-linejoin="round" stroke="rgb(0%, 0%, 0%)" stroke-opacity="1" stroke-miterlimit="10" d="M 1035.507812 602.460938 L 436.992188 1133.398438 " transform="matrix(0.1, 0, 0, -0.1, 0, 200)"/>
<path fill-rule="nonzero" fill="rgb(63.476562%, 14.109802%, 0%)" fill-opacity="1" d="M 115.882812 129.644531 L 101.273438 145.988281 L 100.414062 148.34375 "/>
<path fill-rule="nonzero" fill="rgb(0%, 0%, 0%)" fill-opacity="1" d="M 61.570312 110.722656 L 83.386719 140.101562 L 68.347656 116.746094 "/>
<path fill-rule="nonzero" fill="rgb(71.289062%, 60.742188%, 73.826599%)" fill-opacity="1" d="M 61.570312 110.722656 L 65.53125 185.980469 L 101.273438 145.988281 "/>
<path fill-rule="nonzero" fill="rgb(71.289062%, 60.742188%, 73.826599%)" fill-opacity="1" d="M 95.011719 42.023438 L 121.898438 122.914062 L 150.675781 90.710938 "/>
<path fill-rule="nonzero" fill="rgb(79.101562%, 30.393982%, 0%)" fill-opacity="1" d="M 95.011719 42.023438 L 92.8125 57.929688 L 80.574219 57.75 "/>
<path fill-rule="nonzero" fill="rgb(71.289062%, 60.742188%, 73.826599%)" fill-opacity="1" d="M 80.574219 57.75 L 141.414062 181.644531 L 95.011719 42.023438 "/>
<path fill-rule="nonzero" fill="rgb(63.476562%, 14.109802%, 0%)" fill-opacity="1" stroke-width="6.59289" stroke-linecap="round" stroke-linejoin="round" stroke="rgb(0%, 0%, 0%)" stroke-opacity="1" stroke-miterlimit="10" d="M 1753.085938 1324.6875 L 1848.242188 1474.960938 L 1562.539062 1191.71875 " transform="matrix(0.1, 0, 0, -0.1, 0, 200)"/>
<path fill-rule="nonzero" fill="rgb(71.289062%, 60.742188%, 73.826599%)" fill-opacity="1" d="M 190.546875 125.589844 L 184.824219 52.503906 L 156.578125 84.105469 "/>
<path fill="none" stroke-width="6.59289" stroke-linecap="round" stroke-linejoin="round" stroke="rgb(0%, 0%, 0%)" stroke-opacity="1" stroke-miterlimit="10" d="M 1905.46875 744.101562 L 1848.242188 1474.960938 " transform="matrix(0.1, 0, 0, -0.1, 0, 200)"/>
<path fill-rule="nonzero" fill="rgb(4.399109%, 0%, 0.39978%)" fill-opacity="1" stroke-width="6.59289" stroke-linecap="round" stroke-linejoin="round" stroke="rgb(0%, 0%, 0%)" stroke-opacity="1" stroke-miterlimit="10" d="M 968.164062 1710.46875 L 1562.539062 1191.71875 L 1905.46875 744.101562 " transform="matrix(0.1, 0, 0, -0.1, 0, 200)"/>
<path fill-rule="nonzero" fill="rgb(63.476562%, 14.109802%, 0%)" fill-opacity="1" d="M 156.253906 80.828125 L 65.53125 185.980469 L 115.882812 129.644531 "/>
<path fill-rule="nonzero" fill="rgb(71.289062%, 60.742188%, 73.826599%)" fill-opacity="1" d="M 115.882812 129.644531 L 105.207031 141.585938 L 141.414062 181.644531 "/>
<path fill-rule="nonzero" fill="rgb(71.289062%, 60.742188%, 73.826599%)" fill-opacity="1" d="M 102.882812 144.1875 L 101.273438 145.988281 L 141.414062 181.644531 "/>
<path fill-rule="nonzero" fill="rgb(63.476562%, 14.109802%, 0%)" fill-opacity="1" stroke-width="6.59289" stroke-linecap="round" stroke-linejoin="round" stroke="rgb(0%, 0%, 0%)" stroke-opacity="1" stroke-miterlimit="10" d="M 1562.539062 1191.71875 L 1035.507812 602.460938 L 655.3125 140.195312 " transform="matrix(0.1, 0, 0, -0.1, 0, 200)"/>
<path fill-rule="nonzero" fill="rgb(0%, 0%, 0%)" fill-opacity="1" d="M 141.414062 181.644531 L 103.550781 139.753906 L 102.179688 143.507812 "/>
<path fill="none" stroke-width="6.59289" stroke-linecap="round" stroke-linejoin="round" stroke="rgb(0%, 0%, 0%)" stroke-opacity="1" stroke-miterlimit="10" d="M 1414.140625 183.554688 L 1035.507812 602.460938 " transform="matrix(0.1, 0, 0, -0.1, 0, 200)"/>
<path fill-rule="nonzero" fill="rgb(63.476562%, 14.109802%, 0%)" fill-opacity="1" d="M 65.53125 185.980469 L 65.746094 190.261719 L 100.414062 148.34375 "/>
<path fill="none" stroke-width="6.59289" stroke-linecap="round" stroke-linejoin="round" stroke="rgb(0%, 0%, 0%)" stroke-opacity="1" stroke-miterlimit="10" d="M 655.3125 140.195312 L 657.460938 97.382812 " transform="matrix(0.1, 0, 0, -0.1, 0, 200)"/>
<path fill-rule="nonzero" fill="rgb(63.476562%, 14.109802%, 0%)" fill-opacity="1" d="M 101.273438 145.988281 L 65.53125 185.980469 L 100.414062 148.34375 "/>
<path fill-rule="nonzero" fill="rgb(0%, 0%, 0%)" fill-opacity="1" d="M 135.285156 186.269531 L 141.414062 181.644531 L 102.179688 143.507812 "/>
<path fill="none" stroke-width="6.59289" stroke-linecap="round" stroke-linejoin="round" stroke="rgb(0%, 0%, 0%)" stroke-opacity="1" stroke-miterlimit="10" d="M 1352.851562 137.304688 L 1414.140625 183.554688 " transform="matrix(0.1, 0, 0, -0.1, 0, 200)"/>
<path fill-rule="nonzero" fill="rgb(0%, 0%, 0%)" fill-opacity="1" d="M 100.414062 148.34375 L 135.285156 186.269531 L 102.179688 143.507812 "/>
<path fill-rule="nonzero" fill="rgb(63.476562%, 14.109802%, 0%)" fill-opacity="1" d="M 100.414062 148.34375 L 65.746094 190.261719 L 99.832031 149.9375 "/>
<path fill-rule="nonzero" fill="rgb(63.476562%, 14.109802%, 0%)" fill-opacity="1" d="M 99.832031 149.9375 L 65.746094 190.261719 L 98.511719 153.558594 "/>
<path fill-rule="nonzero" fill="rgb(0%, 0%, 0%)" fill-opacity="1" d="M 100.414062 148.34375 L 98.511719 153.558594 L 135.285156 186.269531 "/>
<path fill-rule="nonzero" fill="rgb(71.289062%, 60.742188%, 73.826599%)" fill-opacity="1" d="M 65.53125 185.980469 L 141.414062 181.644531 L 101.273438 145.988281 "/>
<path fill="none" stroke-width="6.59289" stroke-linecap="round" stroke-linejoin="round" stroke="rgb(0%, 0%, 0%)" stroke-opacity="1" stroke-miterlimit="10" d="M 655.3125 140.195312 L 1414.140625 183.554688 " transform="matrix(0.1, 0, 0, -0.1, 0, 200)"/>
<path fill-rule="nonzero" fill="rgb(0%, 0%, 0%)" fill-opacity="1" d="M 43.699219 86.660156 L 68.347656 116.746094 L 84.777344 131.332031 "/>
<path fill-rule="nonzero" fill="rgb(0%, 0%, 0%)" fill-opacity="1" d="M 43.699219 86.660156 L 61.570312 110.722656 L 68.347656 116.746094 "/>
<path fill-rule="nonzero" fill="rgb(0%, 0%, 0%)" fill-opacity="1" d="M 43.699219 86.660156 L 45.246094 96.226562 L 61.570312 110.722656 "/>
<path fill-rule="nonzero" fill="rgb(0%, 0%, 0%)" fill-opacity="1" d="M 45.246094 96.226562 L 47.132812 107.851562 L 61.570312 110.722656 "/>
<path fill-rule="nonzero" fill="rgb(71.289062%, 60.742188%, 73.826599%)" fill-opacity="1" d="M 45.246094 96.226562 L 9.25 135.433594 L 61.570312 110.722656 "/>
<path fill-rule="nonzero" fill="rgb(71.289062%, 60.742188%, 73.826599%)" fill-opacity="1" d="M 9.25 135.433594 L 65.53125 185.980469 L 61.570312 110.722656 "/>
<path fill="none" stroke-width="6.59289" stroke-linecap="round" stroke-linejoin="round" stroke="rgb(0%, 0%, 0%)" stroke-opacity="1" stroke-miterlimit="10" d="M 92.5 645.664062 L 655.3125 140.195312 " transform="matrix(0.1, 0, 0, -0.1, 0, 200)"/>
<path fill-rule="nonzero" fill="rgb(63.476562%, 14.109802%, 0%)" fill-opacity="1" d="M 156.253906 80.828125 L 115.882812 129.644531 L 136.34375 106.75 "/>
<path fill-rule="nonzero" fill="rgb(71.289062%, 60.742188%, 73.826599%)" fill-opacity="1" d="M 141.414062 181.644531 L 190.546875 125.589844 L 150.675781 90.710938 "/>
<path fill="none" stroke-width="6.59289" stroke-linecap="round" stroke-linejoin="round" stroke="rgb(0%, 0%, 0%)" stroke-opacity="1" stroke-miterlimit="10" d="M 1414.140625 183.554688 L 1905.46875 744.101562 " transform="matrix(0.1, 0, 0, -0.1, 0, 200)"/>
<path fill-rule="nonzero" fill="rgb(71.289062%, 60.742188%, 73.826599%)" fill-opacity="1" d="M 121.898438 122.914062 L 141.414062 181.644531 L 150.675781 90.710938 "/>
<path fill-rule="nonzero" fill="rgb(79.101562%, 30.393982%, 0%)" fill-opacity="1" d="M 96.816406 28.953125 L 95.011719 42.023438 L 80.574219 57.75 "/>
<path fill-rule="nonzero" fill="rgb(63.476562%, 14.109802%, 0%)" fill-opacity="1" d="M 156.253906 80.828125 L 136.34375 106.75 L 150.675781 90.710938 "/>
<path fill-rule="nonzero" fill="rgb(79.101562%, 30.393982%, 0%)" fill-opacity="1" d="M 96.816406 28.953125 L 80.574219 57.75 L 59.960938 80.203125 "/>
<path fill-rule="nonzero" fill="rgb(84.764099%, 38.500977%, 4.598999%)" fill-opacity="1" stroke-width="6.59289" stroke-linecap="round" stroke-linejoin="round" stroke="rgb(0%, 0%, 0%)" stroke-opacity="1" stroke-miterlimit="10" d="M 112.382812 1240.78125 L 61.484375 1385.039062 L 561.601562 1919.609375 " transform="matrix(0.1, 0, 0, -0.1, 0, 200)"/>
<path fill-rule="nonzero" fill="rgb(0%, 0%, 0%)" fill-opacity="1" d="M 6.148438 61.496094 L 11.238281 75.921875 L 29.003906 81.796875 "/>
<path fill="none" stroke-width="6.59289" stroke-linecap="round" stroke-linejoin="round" stroke="rgb(0%, 0%, 0%)" stroke-opacity="1" stroke-miterlimit="10" d="M 61.484375 1385.039062 L 112.382812 1240.78125 " transform="matrix(0.1, 0, 0, -0.1, 0, 200)"/>
<path fill-rule="nonzero" fill="rgb(71.289062%, 60.742188%, 73.826599%)" fill-opacity="1" d="M 6.148438 61.496094 L 9.25 135.433594 L 29.003906 81.796875 "/>
<path fill="none" stroke-width="6.59289" stroke-linecap="round" stroke-linejoin="round" stroke="rgb(0%, 0%, 0%)" stroke-opacity="1" stroke-miterlimit="10" d="M 61.484375 1385.039062 L 92.5 645.664062 " transform="matrix(0.1, 0, 0, -0.1, 0, 200)"/>
<path fill-rule="nonzero" fill="rgb(71.289062%, 60.742188%, 73.826599%)" fill-opacity="1" d="M 56.160156 8.039062 L 6.148438 61.496094 L 29.003906 81.796875 "/>
<path fill="none" stroke-width="6.59289" stroke-linecap="round" stroke-linejoin="round" stroke="rgb(0%, 0%, 0%)" stroke-opacity="1" stroke-miterlimit="10" d="M 561.601562 1919.609375 L 61.484375 1385.039062 " transform="matrix(0.1, 0, 0, -0.1, 0, 200)"/>
<path fill-rule="nonzero" fill="rgb(0%, 0%, 0%)" fill-opacity="1" d="M 43.699219 86.660156 L 6.148438 61.496094 L 29.003906 81.796875 "/>
<path fill="none" stroke-width="6.59289" stroke-linecap="round" stroke-linejoin="round" stroke="rgb(0%, 0%, 0%)" stroke-opacity="1" stroke-miterlimit="10" d="M 436.992188 1133.398438 L 61.484375 1385.039062 " transform="matrix(0.1, 0, 0, -0.1, 0, 200)"/>
<path fill-rule="nonzero" fill="rgb(0%, 0%, 0%)" fill-opacity="1" stroke-width="6.59289" stroke-linecap="round" stroke-linejoin="round" stroke="rgb(0%, 0%, 0%)" stroke-opacity="1" stroke-miterlimit="10" d="M 92.5 645.664062 L 141.484375 561.054688 L 657.460938 97.382812 " transform="matrix(0.1, 0, 0, -0.1, 0, 200)"/>
<path fill-rule="nonzero" fill="rgb(0%, 0%, 0%)" fill-opacity="1" stroke-width="6.59289" stroke-linecap="round" stroke-linejoin="round" stroke="rgb(0%, 0%, 0%)" stroke-opacity="1" stroke-miterlimit="10" d="M 657.460938 97.382812 L 655.3125 140.195312 L 92.5 645.664062 " transform="matrix(0.1, 0, 0, -0.1, 0, 200)"/>
<path fill-rule="nonzero" fill="rgb(56.443787%, 79.492188%, 98.631287%)" fill-opacity="1" d="M 129.414062 4.546875 L 56.160156 8.039062 L 96.816406 28.953125 "/>
<path fill="none" stroke-width="6.59289" stroke-linecap="round" stroke-linejoin="round" stroke="rgb(0%, 0%, 0%)" stroke-opacity="1" stroke-miterlimit="10" d="M 1294.140625 1954.53125 L 561.601562 1919.609375 L 968.164062 1710.46875 Z M 1294.140625 1954.53125 " transform="matrix(0.1, 0, 0, -0.1, 0, 200)"/>
<path fill-rule="nonzero" fill="rgb(94.726562%, 81.639099%, 68.164062%)" fill-opacity="1" d="M 190.546875 125.589844 L 184.824219 52.503906 L 156.253906 80.828125 "/>
<path fill="none" stroke-width="6.59289" stroke-linecap="round" stroke-linejoin="round" stroke="rgb(0%, 0%, 0%)" stroke-opacity="1" stroke-miterlimit="10" d="M 1905.46875 744.101562 L 1848.242188 1474.960938 L 1562.539062 1191.71875 Z M 1905.46875 744.101562 " transform="matrix(0.1, 0, 0, -0.1, 0, 200)"/>
<path fill-rule="nonzero" fill="rgb(38.401794%, 32.788086%, 67.1875%)" fill-opacity="1" d="M 6.148438 61.496094 L 9.25 135.433594 L 43.699219 86.660156 "/>
<path fill="none" stroke-width="6.59289" stroke-linecap="round" stroke-linejoin="round" stroke="rgb(0%, 0%, 0%)" stroke-opacity="1" stroke-miterlimit="10" d="M 61.484375 1385.039062 L 92.5 645.664062 L 436.992188 1133.398438 Z M 61.484375 1385.039062 " transform="matrix(0.1, 0, 0, -0.1, 0, 200)"/>
<path fill-rule="nonzero" fill="rgb(69.53125%, 39.793396%, 46.801758%)" fill-opacity="1" d="M 65.53125 185.980469 L 141.414062 181.644531 L 103.550781 139.753906 "/>
<path fill="none" stroke-width="6.59289" stroke-linecap="round" stroke-linejoin="round" stroke="rgb(0%, 0%, 0%)" stroke-opacity="1" stroke-miterlimit="10" d="M 655.3125 140.195312 L 1414.140625 183.554688 L 1035.507812 602.460938 Z M 655.3125 140.195312 " transform="matrix(0.1, 0, 0, -0.1, 0, 200)"/>
<path fill-rule="nonzero" fill="rgb(71.289062%, 60.9375%, 74.021912%)" fill-opacity="1" stroke-width="6.59289" stroke-linecap="round" stroke-linejoin="round" stroke="rgb(0%, 0%, 0%)" stroke-opacity="1" stroke-miterlimit="10" d="M 1035.507812 602.460938 L 1562.539062 1191.71875 L 968.164062 1710.46875 " transform="matrix(0.1, 0, 0, -0.1, 0, 200)"/>
<path fill-rule="nonzero" fill="rgb(71.289062%, 60.9375%, 74.021912%)" fill-opacity="1" stroke-width="6.59289" stroke-linecap="round" stroke-linejoin="round" stroke="rgb(0%, 0%, 0%)" stroke-opacity="1" stroke-miterlimit="10" d="M 968.164062 1710.46875 L 436.992188 1133.398438 L 1035.507812 602.460938 " transform="matrix(0.1, 0, 0, -0.1, 0, 200)"/>
</svg>
