<?xml version="1.0" encoding="UTF-8"?>
<svg xmlns="http://www.w3.org/2000/svg" xmlns:xlink="http://www.w3.org/1999/xlink" width="192.38" height="200" viewBox="0 0 192.38 200">
<path fill-rule="nonzero" fill="rgb(28.588867%, 47.705078%, 87.109375%)" fill-opacity="1" d="M 123.03125 102.722656 L 119.683594 79.695312 L 107.882812 118.8125 "/>
<path fill-rule="nonzero" fill="rgb(0%, 0%, 0%)" fill-opacity="1" d="M 115.445312 72.394531 L 119.683594 79.695312 L 126.671875 87.957031 "/>
<path fill-rule="nonzero" fill="rgb(66.209412%, 74.21875%, 90.818787%)" fill-opacity="1" d="M 107.882812 118.8125 L 119.683594 79.695312 L 94.199219 108.144531 "/>
<path fill-rule="nonzero" fill="rgb(83.789062%, 77.34375%, 79.101562%)" fill-opacity="1" d="M 94.199219 108.144531 L 119.683594 79.695312 L 76.675781 97.785156 "/>
<path fill-rule="nonzero" fill="rgb(89.646912%, 66.40625%, 58.006287%)" fill-opacity="1" d="M 76.675781 97.785156 L 119.683594 79.695312 L 74.875 77.941406 "/>
<path fill-rule="nonzero" fill="rgb(0%, 0%, 34.593201%)" fill-opacity="1" d="M 126.671875 87.957031 L 119.683594 79.695312 L 123.03125 102.722656 "/>
<path fill-rule="nonzero" fill="rgb(75.78125%, 31.297302%, 19.50531%)" fill-opacity="1" d="M 86.53125 78.398438 L 119.683594 79.695312 L 94.601562 66.738281 "/>
<path fill-rule="nonzero" fill="rgb(11.69281%, 0%, 0%)" fill-opacity="1" d="M 94.601562 66.738281 L 119.683594 79.695312 L 113.917969 69.765625 "/>
<path fill-rule="nonzero" fill="rgb(83.789062%, 77.34375%, 79.101562%)" fill-opacity="1" d="M 94.199219 108.144531 L 76.675781 97.785156 L 85.332031 118.042969 "/>
<path fill-rule="nonzero" fill="rgb(66.209412%, 74.21875%, 90.818787%)" fill-opacity="1" d="M 107.882812 118.8125 L 94.199219 108.144531 L 85.332031 118.042969 "/>
<path fill-rule="nonzero" fill="rgb(75.78125%, 31.297302%, 19.50531%)" fill-opacity="1" d="M 86.53125 78.398438 L 94.601562 66.738281 L 74.875 77.941406 "/>
<path fill-rule="nonzero" fill="rgb(69.726562%, 60.351562%, 74.804688%)" fill-opacity="1" d="M 85.332031 118.042969 L 8.882812 115.429688 L 76.675781 97.785156 "/>
<path fill-rule="nonzero" fill="rgb(72.851562%, 50.78125%, 59.179688%)" fill-opacity="1" d="M 76.675781 97.785156 L 8.882812 115.429688 L 74.875 77.941406 "/>
<path fill="none" stroke-width="5" stroke-linecap="round" stroke-linejoin="round" stroke="rgb(0%, 0%, 0%)" stroke-opacity="1" stroke-miterlimit="10" d="M 769.228911 1022.219817 L 1200.693086 1203.701252 " transform="matrix(0.0996788, 0, 0, -0.0996788, 0.000000000000000611, 199.678756)"/>
<path fill-rule="nonzero" fill="rgb(75.78125%, 31.297302%, 19.50531%)" fill-opacity="1" d="M 8.882812 115.429688 L 60.054688 77.363281 L 74.875 77.941406 "/>
<path fill-rule="nonzero" fill="rgb(66.209412%, 74.21875%, 90.818787%)" fill-opacity="1" d="M 74.121094 130.558594 L 8.882812 115.429688 L 66.703125 117.40625 "/>
<path fill-rule="nonzero" fill="rgb(0%, 0%, 0%)" fill-opacity="1" d="M 54.898438 125.886719 L 8.882812 115.429688 L 74.121094 130.558594 "/>
<path fill-rule="nonzero" fill="rgb(47.192383%, 21.409607%, 44.091797%)" fill-opacity="1" d="M 56.789062 111.027344 L 8.882812 115.429688 L 54.898438 125.886719 "/>
<path fill-rule="nonzero" fill="rgb(15.087891%, 41.796875%, 85.9375%)" fill-opacity="1" d="M 60.054688 77.363281 L 8.882812 115.429688 L 46.386719 94.238281 "/>
<path fill-rule="nonzero" fill="rgb(46.801758%, 40.209961%, 69.921875%)" fill-opacity="1" d="M 8.882812 115.429688 L 56.789062 111.027344 L 59.382812 86.890625 "/>
<path fill="none" stroke-width="5" stroke-linecap="round" stroke-linejoin="round" stroke="rgb(0%, 0%, 0%)" stroke-opacity="1" stroke-miterlimit="10" d="M 578.694958 972.607315 L 769.228911 1022.219817 " transform="matrix(0.0996788, 0, 0, -0.0996788, 0.000000000000000611, 199.678756)"/>
<path fill-rule="nonzero" fill="rgb(28.588867%, 47.705078%, 87.109375%)" fill-opacity="1" d="M 107.882812 118.8125 L 124.222656 110.929688 L 123.03125 102.722656 "/>
<path fill-rule="nonzero" fill="rgb(0%, 0%, 34.593201%)" fill-opacity="1" d="M 126.671875 87.957031 L 123.03125 102.722656 L 124.222656 110.929688 "/>
<path fill-rule="nonzero" fill="rgb(66.209412%, 74.21875%, 90.818787%)" fill-opacity="1" d="M 74.121094 130.558594 L 66.703125 117.40625 L 85.332031 118.042969 "/>
<path fill-rule="nonzero" fill="rgb(69.726562%, 60.351562%, 74.804688%)" fill-opacity="1" d="M 115.855469 189.480469 L 107.882812 118.8125 L 85.332031 118.042969 "/>
<path fill-rule="nonzero" fill="rgb(83.789062%, 77.34375%, 79.101562%)" fill-opacity="1" d="M 92.597656 135.046875 L 74.121094 130.558594 L 85.332031 118.042969 "/>
<path fill="none" stroke-width="5" stroke-linecap="round" stroke-linejoin="round" stroke="rgb(0%, 0%, 0%)" stroke-opacity="1" stroke-miterlimit="10" d="M 856.070383 818.988826 L 1200.693086 1203.701252 " transform="matrix(0.0996788, 0, 0, -0.0996788, 0.000000000000000611, 199.678756)"/>
<path fill="none" stroke-width="5" stroke-linecap="round" stroke-linejoin="round" stroke="rgb(0%, 0%, 0%)" stroke-opacity="1" stroke-miterlimit="10" d="M 562.07908 829.060242 L 856.070383 818.988826 " transform="matrix(0.0996788, 0, 0, -0.0996788, 0.000000000000000611, 199.678756)"/>
<path fill="none" stroke-width="5" stroke-linecap="round" stroke-linejoin="round" stroke="rgb(0%, 0%, 0%)" stroke-opacity="1" stroke-miterlimit="10" d="M 769.228911 1022.219817 L 856.070383 818.988826 " transform="matrix(0.0996788, 0, 0, -0.0996788, 0.000000000000000611, 199.678756)"/>
<path fill-rule="nonzero" fill="rgb(50.389099%, 42.797852%, 70.3125%)" fill-opacity="1" d="M 122.195312 129.976562 L 124.222656 110.929688 L 107.882812 118.8125 "/>
<path fill-rule="nonzero" fill="rgb(50.389099%, 42.797852%, 70.3125%)" fill-opacity="1" d="M 107.882812 118.8125 L 115.855469 189.480469 L 122.195312 129.976562 "/>
<path fill="none" stroke-width="5" stroke-linecap="round" stroke-linejoin="round" stroke="rgb(0%, 0%, 0%)" stroke-opacity="1" stroke-miterlimit="10" d="M 1082.30496 811.268713 L 1200.693086 1203.701252 " transform="matrix(0.0996788, 0, 0, -0.0996788, 0.000000000000000611, 199.678756)"/>
<path fill="none" stroke-width="5" stroke-linecap="round" stroke-linejoin="round" stroke="rgb(0%, 0%, 0%)" stroke-opacity="1" stroke-miterlimit="10" d="M 856.070383 818.988826 L 1082.30496 811.268713 " transform="matrix(0.0996788, 0, 0, -0.0996788, 0.000000000000000611, 199.678756)"/>
<path fill-rule="nonzero" fill="rgb(0%, 0%, 0%)" fill-opacity="1" d="M 126.671875 87.957031 L 113.917969 69.765625 L 115.445312 72.394531 "/>
<path fill-rule="nonzero" fill="rgb(83.789062%, 77.34375%, 79.101562%)" fill-opacity="1" d="M 92.597656 135.046875 L 115.855469 189.480469 L 74.121094 130.558594 "/>
<path fill="none" stroke-width="5" stroke-linecap="round" stroke-linejoin="round" stroke="rgb(0%, 0%, 0%)" stroke-opacity="1" stroke-miterlimit="10" d="M 856.070383 818.988826 L 928.960789 648.401763 " transform="matrix(0.0996788, 0, 0, -0.0996788, 0.000000000000000611, 199.678756)"/>
<path fill-rule="nonzero" fill="rgb(72.851562%, 50.78125%, 59.179688%)" fill-opacity="1" d="M 94.601562 66.738281 L 73.335938 60.964844 L 74.875 77.941406 "/>
<path fill-rule="nonzero" fill="rgb(89.646912%, 66.40625%, 58.006287%)" fill-opacity="1" d="M 60.054688 77.363281 L 73.335938 60.964844 L 74.875 77.941406 "/>
<path fill="none" stroke-width="5" stroke-linecap="round" stroke-linejoin="round" stroke="rgb(0%, 0%, 0%)" stroke-opacity="1" stroke-miterlimit="10" d="M 751.163063 1221.296839 L 769.228911 1022.219817 " transform="matrix(0.0996788, 0, 0, -0.0996788, 0.000000000000000611, 199.678756)"/>
<path fill="none" stroke-width="5" stroke-linecap="round" stroke-linejoin="round" stroke="rgb(0%, 0%, 0%)" stroke-opacity="1" stroke-miterlimit="10" d="M 467.008046 1059.840672 L 751.163063 1221.296839 " transform="matrix(0.0996788, 0, 0, -0.0996788, 0.000000000000000611, 199.678756)"/>
<path fill="none" stroke-width="5" stroke-linecap="round" stroke-linejoin="round" stroke="rgb(0%, 0%, 0%)" stroke-opacity="1" stroke-miterlimit="10" d="M 751.163063 1221.296839 L 1200.693086 1203.701252 " transform="matrix(0.0996788, 0, 0, -0.0996788, 0.000000000000000611, 199.678756)"/>
<path fill-rule="nonzero" fill="rgb(72.851562%, 50.78125%, 59.179688%)" fill-opacity="1" d="M 94.601562 66.738281 L 68.222656 4.59375 L 73.335938 60.964844 "/>
<path fill-rule="nonzero" fill="rgb(51.367188%, 27.293396%, 48.706055%)" fill-opacity="1" d="M 68.222656 4.59375 L 94.601562 66.738281 L 113.917969 69.765625 "/>
<path fill="none" stroke-width="5" stroke-linecap="round" stroke-linejoin="round" stroke="rgb(0%, 0%, 0%)" stroke-opacity="1" stroke-miterlimit="10" d="M 949.064433 1333.689142 L 1200.693086 1203.701252 " transform="matrix(0.0996788, 0, 0, -0.0996788, 0.000000000000000611, 199.678756)"/>
<path fill="none" stroke-width="5" stroke-linecap="round" stroke-linejoin="round" stroke="rgb(0%, 0%, 0%)" stroke-opacity="1" stroke-miterlimit="10" d="M 751.163063 1221.296839 L 949.064433 1333.689142 " transform="matrix(0.0996788, 0, 0, -0.0996788, 0.000000000000000611, 199.678756)"/>
<path fill-rule="nonzero" fill="rgb(51.367188%, 27.293396%, 48.706055%)" fill-opacity="1" d="M 126.671875 87.957031 L 113.917969 69.765625 L 130.511719 72.367188 "/>
<path fill="none" stroke-width="5" stroke-linecap="round" stroke-linejoin="round" stroke="rgb(0%, 0%, 0%)" stroke-opacity="1" stroke-miterlimit="10" d="M 1200.693086 1203.701252 L 1234.277537 972.685692 " transform="matrix(0.0996788, 0, 0, -0.0996788, 0.000000000000000611, 199.678756)"/>
<path fill-rule="nonzero" fill="rgb(51.367188%, 27.293396%, 48.706055%)" fill-opacity="1" d="M 130.511719 72.367188 L 186.105469 81.085938 L 126.671875 87.957031 "/>
<path fill-rule="nonzero" fill="rgb(50.389099%, 42.797852%, 70.3125%)" fill-opacity="1" d="M 126.671875 87.957031 L 186.105469 81.085938 L 138.335938 104.125 "/>
<path fill-rule="nonzero" fill="rgb(50.389099%, 42.797852%, 70.3125%)" fill-opacity="1" d="M 126.671875 87.957031 L 138.335938 104.125 L 124.222656 110.929688 "/>
<path fill="none" stroke-width="5" stroke-linecap="round" stroke-linejoin="round" stroke="rgb(0%, 0%, 0%)" stroke-opacity="1" stroke-miterlimit="10" d="M 1200.693086 1203.701252 L 1270.801116 1120.817807 " transform="matrix(0.0996788, 0, 0, -0.0996788, 0.000000000000000611, 199.678756)"/>
<path fill-rule="nonzero" fill="rgb(28.588867%, 47.705078%, 87.109375%)" fill-opacity="1" d="M 138.335938 104.125 L 125.753906 121.460938 L 124.222656 110.929688 "/>
<path fill-rule="nonzero" fill="rgb(0%, 0%, 34.593201%)" fill-opacity="1" d="M 124.222656 110.929688 L 125.753906 121.460938 L 122.195312 129.976562 "/>
<path fill="none" stroke-width="5" stroke-linecap="round" stroke-linejoin="round" stroke="rgb(0%, 0%, 0%)" stroke-opacity="1" stroke-miterlimit="10" d="M 1246.229996 890.350884 L 1270.801116 1120.817807 " transform="matrix(0.0996788, 0, 0, -0.0996788, 0.000000000000000611, 199.678756)"/>
<path fill="none" stroke-width="5" stroke-linecap="round" stroke-linejoin="round" stroke="rgb(0%, 0%, 0%)" stroke-opacity="1" stroke-miterlimit="10" d="M 1234.277537 972.685692 L 1246.229996 890.350884 " transform="matrix(0.0996788, 0, 0, -0.0996788, 0.000000000000000611, 199.678756)"/>
<path fill="none" stroke-width="5" stroke-linecap="round" stroke-linejoin="round" stroke="rgb(0%, 0%, 0%)" stroke-opacity="1" stroke-miterlimit="10" d="M 1082.30496 811.268713 L 1246.229996 890.350884 " transform="matrix(0.0996788, 0, 0, -0.0996788, 0.000000000000000611, 199.678756)"/>
<path fill-rule="nonzero" fill="rgb(0%, 0%, 34.593201%)" fill-opacity="1" d="M 125.753906 121.460938 L 115.855469 189.480469 L 122.195312 129.976562 "/>
<path fill-rule="nonzero" fill="rgb(89.646912%, 66.40625%, 58.006287%)" fill-opacity="1" d="M 60.054688 77.363281 L 68.222656 4.59375 L 73.335938 60.964844 "/>
<path fill-rule="nonzero" fill="rgb(73.046875%, 49.804688%, 57.421875%)" fill-opacity="1" d="M 112.796875 139.3125 L 115.855469 189.480469 L 90.453125 133.96875 "/>
<path fill="none" stroke-width="5" stroke-linecap="round" stroke-linejoin="round" stroke="rgb(0%, 0%, 0%)" stroke-opacity="1" stroke-miterlimit="10" d="M 1082.30496 811.268713 L 1104.759907 612.034937 " transform="matrix(0.0996788, 0, 0, -0.0996788, 0.000000000000000611, 199.678756)"/>
<path fill-rule="nonzero" fill="rgb(76.367188%, 94.139099%, 60.351562%)" fill-opacity="1" d="M 74.121094 130.558594 L 115.855469 189.480469 L 81.949219 144.449219 "/>
<path fill-rule="nonzero" fill="rgb(47.192383%, 21.409607%, 44.091797%)" fill-opacity="1" d="M 90.453125 133.96875 L 115.855469 189.480469 L 81.949219 144.449219 "/>
<path fill-rule="nonzero" fill="rgb(91.796875%, 66.992188%, 54.881287%)" fill-opacity="1" d="M 112.796875 139.3125 L 115.855469 189.480469 L 125.753906 121.460938 "/>
<path fill="none" stroke-width="5" stroke-linecap="round" stroke-linejoin="round" stroke="rgb(0%, 0%, 0%)" stroke-opacity="1" stroke-miterlimit="10" d="M 1230.397886 741.748509 L 1246.229996 890.350884 " transform="matrix(0.0996788, 0, 0, -0.0996788, 0.000000000000000611, 199.678756)"/>
<path fill-rule="nonzero" fill="rgb(0%, 0%, 0%)" fill-opacity="1" d="M 74.121094 130.558594 L 70.679688 129.472656 L 54.898438 125.886719 "/>
<path fill-rule="nonzero" fill="rgb(76.367188%, 94.139099%, 60.351562%)" fill-opacity="1" d="M 81.949219 144.449219 L 70.679688 129.472656 L 74.121094 130.558594 "/>
<path fill="none" stroke-width="5" stroke-linecap="round" stroke-linejoin="round" stroke="rgb(0%, 0%, 0%)" stroke-opacity="1" stroke-miterlimit="10" d="M 743.599703 693.429224 L 856.070383 818.988826 " transform="matrix(0.0996788, 0, 0, -0.0996788, 0.000000000000000611, 199.678756)"/>
<path fill="none" stroke-width="5" stroke-linecap="round" stroke-linejoin="round" stroke="rgb(0%, 0%, 0%)" stroke-opacity="1" stroke-miterlimit="10" d="M 89.114399 845.205859 L 711.661165 700.796641 " transform="matrix(0.0996788, 0, 0, -0.0996788, 0.000000000000000611, 199.678756)"/>
<path fill="none" stroke-width="5" stroke-linecap="round" stroke-linejoin="round" stroke="rgb(0%, 0%, 0%)" stroke-opacity="1" stroke-miterlimit="10" d="M 743.599703 693.429224 L 832.910045 567.320984 " transform="matrix(0.0996788, 0, 0, -0.0996788, 0.000000000000000611, 199.678756)"/>
<path fill-rule="nonzero" fill="rgb(0%, 0%, 0%)" fill-opacity="1" d="M 103.140625 54.398438 L 111.945312 66.375 L 113.917969 69.765625 "/>
<path fill-rule="nonzero" fill="rgb(11.69281%, 0%, 0%)" fill-opacity="1" d="M 113.917969 69.765625 L 111.945312 66.375 L 130.511719 72.367188 "/>
<path fill="none" stroke-width="5" stroke-linecap="round" stroke-linejoin="round" stroke="rgb(0%, 0%, 0%)" stroke-opacity="1" stroke-miterlimit="10" d="M 949.064433 1333.689142 L 1142.851022 1303.31814 " transform="matrix(0.0996788, 0, 0, -0.0996788, 0.000000000000000611, 199.678756)"/>
<path fill="none" stroke-width="5" stroke-linecap="round" stroke-linejoin="round" stroke="rgb(0%, 0%, 0%)" stroke-opacity="1" stroke-miterlimit="10" d="M 1142.851022 1303.31814 L 1200.693086 1203.701252 " transform="matrix(0.0996788, 0, 0, -0.0996788, 0.000000000000000611, 199.678756)"/>
<path fill="none" stroke-width="5" stroke-linecap="round" stroke-linejoin="round" stroke="rgb(0%, 0%, 0%)" stroke-opacity="1" stroke-miterlimit="10" d="M 1142.851022 1303.31814 L 1270.801116 1120.817807 " transform="matrix(0.0996788, 0, 0, -0.0996788, 0.000000000000000611, 199.678756)"/>
<path fill-rule="nonzero" fill="rgb(15.087891%, 41.796875%, 85.9375%)" fill-opacity="1" d="M 46.386719 94.238281 L 59.382812 86.890625 L 60.054688 77.363281 "/>
<path fill="none" stroke-width="5" stroke-linecap="round" stroke-linejoin="round" stroke="rgb(0%, 0%, 0%)" stroke-opacity="1" stroke-miterlimit="10" d="M 89.114399 845.205859 L 465.362133 1057.802875 " transform="matrix(0.0996788, 0, 0, -0.0996788, 0.000000000000000611, 199.678756)"/>
<path fill-rule="nonzero" fill="rgb(0%, 0%, 11.401367%)" fill-opacity="1" d="M 61.53125 66.90625 L 68.222656 4.59375 L 60.054688 77.363281 "/>
<path fill-rule="nonzero" fill="rgb(0%, 0%, 11.401367%)" fill-opacity="1" d="M 60.054688 77.363281 L 59.382812 86.890625 L 61.53125 66.90625 "/>
<path fill="none" stroke-width="5" stroke-linecap="round" stroke-linejoin="round" stroke="rgb(0%, 0%, 0%)" stroke-opacity="1" stroke-miterlimit="10" d="M 606.009266 1226.939967 L 751.163063 1221.296839 " transform="matrix(0.0996788, 0, 0, -0.0996788, 0.000000000000000611, 199.678756)"/>
<path fill="none" stroke-width="5" stroke-linecap="round" stroke-linejoin="round" stroke="rgb(0%, 0%, 0%)" stroke-opacity="1" stroke-miterlimit="10" d="M 89.114399 845.205859 L 602.48231 1227.096721 " transform="matrix(0.0996788, 0, 0, -0.0996788, 0.000000000000000611, 199.678756)"/>
<path fill-rule="nonzero" fill="rgb(28.588867%, 47.705078%, 87.109375%)" fill-opacity="1" d="M 138.335938 104.125 L 186.105469 81.085938 L 125.753906 121.460938 "/>
<path fill="none" stroke-width="5" stroke-linecap="round" stroke-linejoin="round" stroke="rgb(0%, 0%, 0%)" stroke-opacity="1" stroke-miterlimit="10" d="M 1246.229996 890.350884 L 1387.817649 958.61706 " transform="matrix(0.0996788, 0, 0, -0.0996788, 0.000000000000000611, 199.678756)"/>
<path fill-rule="nonzero" fill="rgb(0%, 0%, 0%)" fill-opacity="1" d="M 103.140625 54.398438 L 68.222656 4.59375 L 111.945312 66.375 "/>
<path fill-rule="nonzero" fill="rgb(47.192383%, 21.409607%, 44.091797%)" fill-opacity="1" d="M 56.789062 111.027344 L 54.898438 125.886719 L 70.679688 129.472656 "/>
<path fill="none" stroke-width="5" stroke-linecap="round" stroke-linejoin="round" stroke="rgb(0%, 0%, 0%)" stroke-opacity="1" stroke-miterlimit="10" d="M 89.114399 845.205859 L 550.753635 740.298538 " transform="matrix(0.0996788, 0, 0, -0.0996788, 0.000000000000000611, 199.678756)"/>
<path fill-rule="nonzero" fill="rgb(11.69281%, 0%, 0%)" fill-opacity="1" d="M 111.945312 66.375 L 186.105469 81.085938 L 130.511719 72.367188 "/>
<path fill-rule="nonzero" fill="rgb(47.192383%, 21.409607%, 44.091797%)" fill-opacity="1" d="M 70.679688 129.472656 L 90.453125 133.96875 L 81.949219 144.449219 "/>
<path fill="none" stroke-width="5" stroke-linecap="round" stroke-linejoin="round" stroke="rgb(0%, 0%, 0%)" stroke-opacity="1" stroke-miterlimit="10" d="M 822.133237 554.075308 L 1162.288464 102.311546 " transform="matrix(0.0996788, 0, 0, -0.0996788, 0.000000000000000611, 199.678756)"/>
<path fill-rule="nonzero" fill="rgb(72.068787%, 21.801758%, 3.799438%)" fill-opacity="1" d="M 125.753906 121.460938 L 186.105469 81.085938 L 111.753906 122.191406 "/>
<path fill="none" stroke-width="5" stroke-linecap="round" stroke-linejoin="round" stroke="rgb(0%, 0%, 0%)" stroke-opacity="1" stroke-miterlimit="10" d="M 1246.229996 890.350884 L 1252.108254 849.7909 " transform="matrix(0.0996788, 0, 0, -0.0996788, 0.000000000000000611, 199.678756)"/>
<path fill-rule="nonzero" fill="rgb(91.796875%, 66.992188%, 54.881287%)" fill-opacity="1" d="M 125.753906 121.460938 L 111.753906 122.191406 L 112.796875 139.3125 "/>
<path fill="none" stroke-width="5" stroke-linecap="round" stroke-linejoin="round" stroke="rgb(0%, 0%, 0%)" stroke-opacity="1" stroke-miterlimit="10" d="M 1162.288464 102.311546 L 1261.591845 784.698984 " transform="matrix(0.0996788, 0, 0, -0.0996788, 0.000000000000000611, 199.678756)"/>
<path fill-rule="nonzero" fill="rgb(76.367188%, 94.139099%, 60.351562%)" fill-opacity="1" d="M 56.789062 111.027344 L 67.625 128.511719 L 70.679688 129.472656 "/>
<path fill-rule="nonzero" fill="rgb(0%, 0%, 0%)" fill-opacity="1" d="M 70.679688 129.472656 L 67.625 128.511719 L 90.453125 133.96875 "/>
<path fill="none" stroke-width="5" stroke-linecap="round" stroke-linejoin="round" stroke="rgb(0%, 0%, 0%)" stroke-opacity="1" stroke-miterlimit="10" d="M 550.753635 740.298538 L 709.074732 704.323596 " transform="matrix(0.0996788, 0, 0, -0.0996788, 0.000000000000000611, 199.678756)"/>
<path fill="none" stroke-width="5" stroke-linecap="round" stroke-linejoin="round" stroke="rgb(0%, 0%, 0%)" stroke-opacity="1" stroke-miterlimit="10" d="M 709.074732 704.323596 L 822.133237 554.075308 " transform="matrix(0.0996788, 0, 0, -0.0996788, 0.000000000000000611, 199.678756)"/>
<path fill-rule="nonzero" fill="rgb(85.351562%, 80.076599%, 79.881287%)" fill-opacity="1" d="M 100.621094 78.40625 L 111.945312 66.375 L 68.222656 4.59375 "/>
<path fill="none" stroke-width="5" stroke-linecap="round" stroke-linejoin="round" stroke="rgb(0%, 0%, 0%)" stroke-opacity="1" stroke-miterlimit="10" d="M 1120.709582 1334.825606 L 1142.851022 1303.31814 " transform="matrix(0.0996788, 0, 0, -0.0996788, 0.000000000000000611, 199.678756)"/>
<path fill-rule="nonzero" fill="rgb(64.646912%, 76.171875%, 93.359375%)" fill-opacity="1" d="M 111.945312 66.375 L 100.621094 78.40625 L 121.269531 79.050781 "/>
<path fill-rule="nonzero" fill="rgb(64.646912%, 76.171875%, 93.359375%)" fill-opacity="1" d="M 121.269531 79.050781 L 186.105469 81.085938 L 111.945312 66.375 "/>
<path fill-rule="nonzero" fill="rgb(46.801758%, 40.209961%, 69.921875%)" fill-opacity="1" d="M 61.53125 66.90625 L 68.222656 4.59375 L 75.777344 77.628906 "/>
<path fill="none" stroke-width="5" stroke-linecap="round" stroke-linejoin="round" stroke="rgb(0%, 0%, 0%)" stroke-opacity="1" stroke-miterlimit="10" d="M 750.222541 1231.956081 L 751.163063 1221.296839 " transform="matrix(0.0996788, 0, 0, -0.0996788, 0.000000000000000611, 199.678756)"/>
<path fill-rule="nonzero" fill="rgb(69.726562%, 60.742188%, 75.193787%)" fill-opacity="1" d="M 75.777344 77.628906 L 68.222656 4.59375 L 92.597656 60.125 "/>
<path fill="none" stroke-width="5" stroke-linecap="round" stroke-linejoin="round" stroke="rgb(0%, 0%, 0%)" stroke-opacity="1" stroke-miterlimit="10" d="M 923.356849 1394.196017 L 949.064433 1333.689142 " transform="matrix(0.0996788, 0, 0, -0.0996788, 0.000000000000000611, 199.678756)"/>
<path fill="none" stroke-width="5" stroke-linecap="round" stroke-linejoin="round" stroke="rgb(0%, 0%, 0%)" stroke-opacity="1" stroke-miterlimit="10" d="M 602.48231 1227.096721 L 684.425234 1957.137241 " transform="matrix(0.0996788, 0, 0, -0.0996788, 0.000000000000000611, 199.678756)"/>
<path fill="none" stroke-width="5" stroke-linecap="round" stroke-linejoin="round" stroke="rgb(0%, 0%, 0%)" stroke-opacity="1" stroke-miterlimit="10" d="M 684.425234 1957.137241 L 1123.060885 1337.333663 " transform="matrix(0.0996788, 0, 0, -0.0996788, 0.000000000000000611, 199.678756)"/>
<path fill-rule="nonzero" fill="rgb(73.046875%, 49.804688%, 57.421875%)" fill-opacity="1" d="M 90.453125 133.96875 L 111.753906 122.191406 L 112.796875 139.3125 "/>
<path fill-rule="nonzero" fill="rgb(46.801758%, 40.209961%, 69.921875%)" fill-opacity="1" d="M 61.53125 66.90625 L 75.777344 77.628906 L 59.382812 86.890625 "/>
<path fill-rule="nonzero" fill="rgb(76.367188%, 94.139099%, 60.351562%)" fill-opacity="1" d="M 56.789062 111.027344 L 56.695312 125.070312 L 67.625 128.511719 "/>
<path fill-rule="nonzero" fill="rgb(0%, 0%, 11.401367%)" fill-opacity="1" d="M 56.695312 125.070312 L 56.789062 111.027344 L 59.382812 86.890625 "/>
<path fill="none" stroke-width="5" stroke-linecap="round" stroke-linejoin="round" stroke="rgb(0%, 0%, 0%)" stroke-opacity="1" stroke-miterlimit="10" d="M 577.91119 878.476802 L 706.91937 707.14516 " transform="matrix(0.0996788, 0, 0, -0.0996788, 0.000000000000000611, 199.678756)"/>
<path fill="none" stroke-width="5" stroke-linecap="round" stroke-linejoin="round" stroke="rgb(0%, 0%, 0%)" stroke-opacity="1" stroke-miterlimit="10" d="M 89.114399 845.205859 L 569.720816 889.371175 " transform="matrix(0.0996788, 0, 0, -0.0996788, 0.000000000000000611, 199.678756)"/>
<path fill-rule="nonzero" fill="rgb(15.087891%, 41.796875%, 85.9375%)" fill-opacity="1" d="M 59.382812 86.890625 L 75.777344 77.628906 L 58.789062 95.300781 "/>
<path fill="none" stroke-width="5" stroke-linecap="round" stroke-linejoin="round" stroke="rgb(0%, 0%, 0%)" stroke-opacity="1" stroke-miterlimit="10" d="M 569.720816 889.371175 L 595.741907 1131.516237 " transform="matrix(0.0996788, 0, 0, -0.0996788, 0.000000000000000611, 199.678756)"/>
<path fill="none" stroke-width="5" stroke-linecap="round" stroke-linejoin="round" stroke="rgb(0%, 0%, 0%)" stroke-opacity="1" stroke-miterlimit="10" d="M 595.741907 1131.516237 L 684.425234 1957.137241 " transform="matrix(0.0996788, 0, 0, -0.0996788, 0.000000000000000611, 199.678756)"/>
<path fill="none" stroke-width="5" stroke-linecap="round" stroke-linejoin="round" stroke="rgb(0%, 0%, 0%)" stroke-opacity="1" stroke-miterlimit="10" d="M 465.362133 1057.802875 L 595.741907 1131.516237 " transform="matrix(0.0996788, 0, 0, -0.0996788, 0.000000000000000611, 199.678756)"/>
<path fill="none" stroke-width="5" stroke-linecap="round" stroke-linejoin="round" stroke="rgb(0%, 0%, 0%)" stroke-opacity="1" stroke-miterlimit="10" d="M 595.741907 1131.516237 L 602.48231 1227.096721 " transform="matrix(0.0996788, 0, 0, -0.0996788, 0.000000000000000611, 199.678756)"/>
<path fill-rule="nonzero" fill="rgb(72.068787%, 21.801758%, 3.799438%)" fill-opacity="1" d="M 90.453125 133.96875 L 56.695312 125.070312 L 111.753906 122.191406 "/>
<path fill-rule="nonzero" fill="rgb(0%, 0%, 0%)" fill-opacity="1" d="M 67.625 128.511719 L 56.695312 125.070312 L 90.453125 133.96875 "/>
<path fill="none" stroke-width="5" stroke-linecap="round" stroke-linejoin="round" stroke="rgb(0%, 0%, 0%)" stroke-opacity="1" stroke-miterlimit="10" d="M 907.446363 659.217759 L 1162.288464 102.311546 " transform="matrix(0.0996788, 0, 0, -0.0996788, 0.000000000000000611, 199.678756)"/>
<path fill="none" stroke-width="5" stroke-linecap="round" stroke-linejoin="round" stroke="rgb(0%, 0%, 0%)" stroke-opacity="1" stroke-miterlimit="10" d="M 709.074732 704.323596 L 907.446363 659.217759 " transform="matrix(0.0996788, 0, 0, -0.0996788, 0.000000000000000611, 199.678756)"/>
<path fill-rule="nonzero" fill="rgb(91.796875%, 66.992188%, 54.881287%)" fill-opacity="1" d="M 56.695312 125.070312 L 110.449219 100.800781 L 111.753906 122.191406 "/>
<path fill-rule="nonzero" fill="rgb(73.046875%, 49.804688%, 57.421875%)" fill-opacity="1" d="M 186.105469 81.085938 L 110.449219 100.800781 L 111.753906 122.191406 "/>
<path fill="none" stroke-width="5" stroke-linecap="round" stroke-linejoin="round" stroke="rgb(0%, 0%, 0%)" stroke-opacity="1" stroke-miterlimit="10" d="M 1121.140654 777.370755 L 1162.288464 102.311546 " transform="matrix(0.0996788, 0, 0, -0.0996788, 0.000000000000000611, 199.678756)"/>
<path fill="none" stroke-width="5" stroke-linecap="round" stroke-linejoin="round" stroke="rgb(0%, 0%, 0%)" stroke-opacity="1" stroke-miterlimit="10" d="M 1121.140654 777.370755 L 1261.591845 784.698984 " transform="matrix(0.0996788, 0, 0, -0.0996788, 0.000000000000000611, 199.678756)"/>
<path fill="none" stroke-width="5" stroke-linecap="round" stroke-linejoin="round" stroke="rgb(0%, 0%, 0%)" stroke-opacity="1" stroke-miterlimit="10" d="M 907.446363 659.217759 L 1121.140654 777.370755 " transform="matrix(0.0996788, 0, 0, -0.0996788, 0.000000000000000611, 199.678756)"/>
<path fill-rule="nonzero" fill="rgb(69.726562%, 60.742188%, 75.193787%)" fill-opacity="1" d="M 92.597656 60.125 L 100.621094 78.40625 L 75.777344 77.628906 "/>
<path fill="none" stroke-width="5" stroke-linecap="round" stroke-linejoin="round" stroke="rgb(0%, 0%, 0%)" stroke-opacity="1" stroke-miterlimit="10" d="M 684.425234 1957.137241 L 928.960789 1400.035087 " transform="matrix(0.0996788, 0, 0, -0.0996788, 0.000000000000000611, 199.678756)"/>
<path fill-rule="nonzero" fill="rgb(15.087891%, 41.796875%, 85.9375%)" fill-opacity="1" d="M 75.777344 77.628906 L 56.695312 125.070312 L 58.789062 95.300781 "/>
<path fill-rule="nonzero" fill="rgb(64.646912%, 76.171875%, 93.359375%)" fill-opacity="1" d="M 90.746094 88.894531 L 56.695312 125.070312 L 75.777344 77.628906 "/>
<path fill="none" stroke-width="5" stroke-linecap="round" stroke-linejoin="round" stroke="rgb(0%, 0%, 0%)" stroke-opacity="1" stroke-miterlimit="10" d="M 589.785272 1047.143633 L 595.741907 1131.516237 " transform="matrix(0.0996788, 0, 0, -0.0996788, 0.000000000000000611, 199.678756)"/>
<path fill-rule="nonzero" fill="rgb(64.646912%, 76.171875%, 93.359375%)" fill-opacity="1" d="M 75.777344 77.628906 L 100.621094 78.40625 L 90.746094 88.894531 "/>
<path fill="none" stroke-width="5" stroke-linecap="round" stroke-linejoin="round" stroke="rgb(0%, 0%, 0%)" stroke-opacity="1" stroke-miterlimit="10" d="M 595.741907 1131.516237 L 760.215581 1224.43191 " transform="matrix(0.0996788, 0, 0, -0.0996788, 0.000000000000000611, 199.678756)"/>
<path fill="none" stroke-width="5" stroke-linecap="round" stroke-linejoin="round" stroke="rgb(0%, 0%, 0%)" stroke-opacity="1" stroke-miterlimit="10" d="M 684.425234 1957.137241 L 760.215581 1224.43191 " transform="matrix(0.0996788, 0, 0, -0.0996788, 0.000000000000000611, 199.678756)"/>
<path fill-rule="nonzero" fill="rgb(69.726562%, 60.742188%, 75.193787%)" fill-opacity="1" d="M 110.449219 100.800781 L 186.105469 81.085938 L 100.621094 78.40625 "/>
<path fill="none" stroke-width="5" stroke-linecap="round" stroke-linejoin="round" stroke="rgb(0%, 0%, 0%)" stroke-opacity="1" stroke-miterlimit="10" d="M 1261.591845 784.698984 L 1867.052473 1189.750185 " transform="matrix(0.0996788, 0, 0, -0.0996788, 0.000000000000000611, 199.678756)"/>
<path fill="none" stroke-width="5" stroke-linecap="round" stroke-linejoin="round" stroke="rgb(0%, 0%, 0%)" stroke-opacity="1" stroke-miterlimit="10" d="M 1123.060885 1337.333663 L 1867.052473 1189.750185 " transform="matrix(0.0996788, 0, 0, -0.0996788, 0.000000000000000611, 199.678756)"/>
<path fill="none" stroke-width="5" stroke-linecap="round" stroke-linejoin="round" stroke="rgb(0%, 0%, 0%)" stroke-opacity="1" stroke-miterlimit="10" d="M 1121.140654 777.370755 L 1867.052473 1189.750185 " transform="matrix(0.0996788, 0, 0, -0.0996788, 0.000000000000000611, 199.678756)"/>
<path fill-rule="nonzero" fill="rgb(85.351562%, 80.076599%, 79.881287%)" fill-opacity="1" d="M 90.746094 88.894531 L 100.621094 78.40625 L 110.449219 100.800781 "/>
<path fill="none" stroke-width="5" stroke-linecap="round" stroke-linejoin="round" stroke="rgb(0%, 0%, 0%)" stroke-opacity="1" stroke-miterlimit="10" d="M 1009.453742 1216.633421 L 1123.060885 1337.333663 " transform="matrix(0.0996788, 0, 0, -0.0996788, 0.000000000000000611, 199.678756)"/>
<path fill="none" stroke-width="5" stroke-linecap="round" stroke-linejoin="round" stroke="rgb(0%, 0%, 0%)" stroke-opacity="1" stroke-miterlimit="10" d="M 928.960789 1400.035087 L 1009.453742 1216.633421 " transform="matrix(0.0996788, 0, 0, -0.0996788, 0.000000000000000611, 199.678756)"/>
<path fill="none" stroke-width="5" stroke-linecap="round" stroke-linejoin="round" stroke="rgb(0%, 0%, 0%)" stroke-opacity="1" stroke-miterlimit="10" d="M 1009.453742 1216.633421 L 1867.052473 1189.750185 " transform="matrix(0.0996788, 0, 0, -0.0996788, 0.000000000000000611, 199.678756)"/>
<path fill="none" stroke-width="5" stroke-linecap="round" stroke-linejoin="round" stroke="rgb(0%, 0%, 0%)" stroke-opacity="1" stroke-miterlimit="10" d="M 760.215581 1224.43191 L 1009.453742 1216.633421 " transform="matrix(0.0996788, 0, 0, -0.0996788, 0.000000000000000611, 199.678756)"/>
<path fill-rule="nonzero" fill="rgb(85.351562%, 80.076599%, 79.881287%)" fill-opacity="1" d="M 110.449219 100.800781 L 56.695312 125.070312 L 90.746094 88.894531 "/>
<path fill="none" stroke-width="5" stroke-linecap="round" stroke-linejoin="round" stroke="rgb(0%, 0%, 0%)" stroke-opacity="1" stroke-miterlimit="10" d="M 568.780295 748.488912 L 1108.051732 991.96638 " transform="matrix(0.0996788, 0, 0, -0.0996788, 0.000000000000000611, 199.678756)"/>
<path fill="none" stroke-width="5" stroke-linecap="round" stroke-linejoin="round" stroke="rgb(0%, 0%, 0%)" stroke-opacity="1" stroke-miterlimit="10" d="M 1108.051732 991.96638 L 1867.052473 1189.750185 " transform="matrix(0.0996788, 0, 0, -0.0996788, 0.000000000000000611, 199.678756)"/>
<path fill="none" stroke-width="5" stroke-linecap="round" stroke-linejoin="round" stroke="rgb(0%, 0%, 0%)" stroke-opacity="1" stroke-miterlimit="10" d="M 1009.453742 1216.633421 L 1108.051732 991.96638 " transform="matrix(0.0996788, 0, 0, -0.0996788, 0.000000000000000611, 199.678756)"/>
<path fill="none" stroke-width="5" stroke-linecap="round" stroke-linejoin="round" stroke="rgb(0%, 0%, 0%)" stroke-opacity="1" stroke-miterlimit="10" d="M 847.723256 1044.831518 L 1009.453742 1216.633421 " transform="matrix(0.0996788, 0, 0, -0.0996788, 0.000000000000000611, 199.678756)"/>
<path fill="none" stroke-width="5" stroke-linecap="round" stroke-linejoin="round" stroke="rgb(0%, 0%, 0%)" stroke-opacity="1" stroke-miterlimit="10" d="M 1108.051732 991.96638 L 1121.140654 777.370755 " transform="matrix(0.0996788, 0, 0, -0.0996788, 0.000000000000000611, 199.678756)"/>
<path fill="none" stroke-width="5" stroke-linecap="round" stroke-linejoin="round" stroke="rgb(0%, 0%, 0%)" stroke-opacity="1" stroke-miterlimit="10" d="M 568.780295 748.488912 L 760.215581 1224.43191 " transform="matrix(0.0996788, 0, 0, -0.0996788, 0.000000000000000611, 199.678756)"/>
<path fill="none" stroke-width="5" stroke-linecap="round" stroke-linejoin="round" stroke="rgb(0%, 0%, 0%)" stroke-opacity="1" stroke-miterlimit="10" d="M 568.780295 748.488912 L 998.089109 770.943859 " transform="matrix(0.0996788, 0, 0, -0.0996788, 0.000000000000000611, 199.678756)"/>
<path fill="none" stroke-width="5" stroke-linecap="round" stroke-linejoin="round" stroke="rgb(0%, 0%, 0%)" stroke-opacity="1" stroke-miterlimit="10" d="M 568.780295 748.488912 L 847.723256 1044.831518 " transform="matrix(0.0996788, 0, 0, -0.0996788, 0.000000000000000611, 199.678756)"/>
<path fill="none" stroke-width="5" stroke-linecap="round" stroke-linejoin="round" stroke="rgb(0%, 0%, 0%)" stroke-opacity="1" stroke-miterlimit="10" d="M 568.780295 748.488912 L 709.074732 704.323596 " transform="matrix(0.0996788, 0, 0, -0.0996788, 0.000000000000000611, 199.678756)"/>
<path fill="none" stroke-width="5" stroke-linecap="round" stroke-linejoin="round" stroke="rgb(0%, 0%, 0%)" stroke-opacity="1" stroke-miterlimit="10" d="M 568.780295 748.488912 L 589.785272 1047.143633 " transform="matrix(0.0996788, 0, 0, -0.0996788, 0.000000000000000611, 199.678756)"/>
<path fill="none" stroke-width="5" stroke-linecap="round" stroke-linejoin="round" stroke="rgb(0%, 0%, 0%)" stroke-opacity="1" stroke-miterlimit="10" d="M 568.780295 748.488912 L 569.720816 889.371175 " transform="matrix(0.0996788, 0, 0, -0.0996788, 0.000000000000000611, 199.678756)"/>
<path fill="none" stroke-width="5" stroke-linecap="round" stroke-linejoin="round" stroke="rgb(0%, 0%, 0%)" stroke-opacity="1" stroke-miterlimit="10" d="M 568.780295 748.488912 L 907.446363 659.217759 " transform="matrix(0.0996788, 0, 0, -0.0996788, 0.000000000000000611, 199.678756)"/>
<path fill="none" stroke-width="5" stroke-linecap="round" stroke-linejoin="round" stroke="rgb(0%, 0%, 0%)" stroke-opacity="1" stroke-miterlimit="10" d="M 998.089109 770.943859 L 1121.140654 777.370755 " transform="matrix(0.0996788, 0, 0, -0.0996788, 0.000000000000000611, 199.678756)"/>
</svg>
