<?xml version="1.0" encoding="UTF-8"?>
<svg xmlns="http://www.w3.org/2000/svg" xmlns:xlink="http://www.w3.org/1999/xlink" width="199" height="199.81" viewBox="0 0 199 199.81">
<path fill-rule="nonzero" fill="rgb(59.179688%, 86.914062%, 99.414062%)" fill-opacity="1" d="M 96.019531 108.578125 L 75.417969 127.449219 L 104.425781 127.632812 "/>
<path fill="none" stroke-width="5" stroke-linecap="round" stroke-linejoin="round" stroke="rgb(0%, 0%, 0%)" stroke-opacity="1" stroke-miterlimit="10" d="M 960.162217 911.286277 L 753.950691 722.395894 L 1044.304652 720.55821 Z M 960.162217 911.286277 " transform="matrix(0.099905, 0, 0, -0.099905, 0.094525, 199.620181)"/>
<path fill-rule="nonzero" fill="rgb(95.701599%, 91.796875%, 72.65625%)" fill-opacity="1" d="M 75.417969 127.449219 L 96.019531 108.578125 L 70.648438 100.21875 "/>
<path fill="none" stroke-width="5" stroke-linecap="round" stroke-linejoin="round" stroke="rgb(0%, 0%, 0%)" stroke-opacity="1" stroke-miterlimit="10" d="M 753.950691 722.395894 L 960.162217 911.286277 L 706.210025 994.959517 Z M 753.950691 722.395894 " transform="matrix(0.099905, 0, 0, -0.099905, 0.094525, 199.620181)"/>
<path fill-rule="nonzero" fill="rgb(17.993164%, 39.109802%, 83.201599%)" fill-opacity="1" d="M 104.425781 127.632812 L 126.367188 108.003906 L 96.019531 108.578125 "/>
<path fill="none" stroke-width="5" stroke-linecap="round" stroke-linejoin="round" stroke="rgb(0%, 0%, 0%)" stroke-opacity="1" stroke-miterlimit="10" d="M 1044.304652 720.55821 L 1263.927356 917.033925 L 960.162217 911.286277 Z M 1044.304652 720.55821 " transform="matrix(0.099905, 0, 0, -0.099905, 0.094525, 199.620181)"/>
<path fill-rule="nonzero" fill="rgb(89.451599%, 54.6875%, 37.597656%)" fill-opacity="1" d="M 84.132812 73.902344 L 70.648438 100.21875 L 96.019531 108.578125 "/>
<path fill="none" stroke-width="5" stroke-linecap="round" stroke-linejoin="round" stroke="rgb(0%, 0%, 0%)" stroke-opacity="1" stroke-miterlimit="10" d="M 841.181998 1258.373823 L 706.210025 994.959517 L 960.162217 911.286277 Z M 841.181998 1258.373823 " transform="matrix(0.099905, 0, 0, -0.099905, 0.094525, 199.620181)"/>
<path fill-rule="nonzero" fill="rgb(20.605469%, 6.098938%, 45.188904%)" fill-opacity="1" d="M 111.265625 84.753906 L 96.019531 108.578125 L 126.367188 108.003906 "/>
<path fill="none" stroke-width="5" stroke-linecap="round" stroke-linejoin="round" stroke="rgb(0%, 0%, 0%)" stroke-opacity="1" stroke-miterlimit="10" d="M 1112.76813 1149.75501 L 960.162217 911.286277 L 1263.927356 917.033925 Z M 1112.76813 1149.75501 " transform="matrix(0.099905, 0, 0, -0.099905, 0.094525, 199.620181)"/>
<path fill-rule="nonzero" fill="rgb(55.076599%, 16.209412%, 25.805664%)" fill-opacity="1" d="M 96.019531 108.578125 L 111.265625 84.753906 L 84.132812 73.902344 "/>
<path fill="none" stroke-width="5" stroke-linecap="round" stroke-linejoin="round" stroke="rgb(0%, 0%, 0%)" stroke-opacity="1" stroke-miterlimit="10" d="M 960.162217 911.286277 L 1112.76813 1149.75501 L 841.181998 1258.373823 Z M 960.162217 911.286277 " transform="matrix(0.099905, 0, 0, -0.099905, 0.094525, 199.620181)"/>
<path fill-rule="nonzero" fill="rgb(60.351562%, 55.664062%, 77.34375%)" fill-opacity="1" d="M 111.265625 84.753906 L 126.367188 108.003906 L 152.492188 33.851562 "/>
<path fill="none" stroke-width="5" stroke-linecap="round" stroke-linejoin="round" stroke="rgb(0%, 0%, 0%)" stroke-opacity="1" stroke-miterlimit="10" d="M 1112.76813 1149.75501 L 1263.927356 917.033925 L 1525.425779 1659.262479 Z M 1112.76813 1149.75501 " transform="matrix(0.099905, 0, 0, -0.099905, 0.094525, 199.620181)"/>
<path fill-rule="nonzero" fill="rgb(77.146912%, 58.59375%, 64.451599%)" fill-opacity="1" d="M 84.132812 73.902344 L 111.265625 84.753906 L 152.492188 33.851562 "/>
<path fill="none" stroke-width="5" stroke-linecap="round" stroke-linejoin="round" stroke="rgb(0%, 0%, 0%)" stroke-opacity="1" stroke-miterlimit="10" d="M 841.181998 1258.373823 L 1112.76813 1149.75501 L 1525.425779 1659.262479 Z M 841.181998 1258.373823 " transform="matrix(0.099905, 0, 0, -0.099905, 0.094525, 199.620181)"/>
<path fill-rule="nonzero" fill="rgb(0%, 0%, 0%)" fill-opacity="1" stroke-width="5" stroke-linecap="round" stroke-linejoin="round" stroke="rgb(0%, 0%, 0%)" stroke-opacity="1" stroke-miterlimit="10" d="M 1378.489315 1148.151924 L 1940.624906 856.546774 L 1409.026137 1133.450458 " transform="matrix(0.099905, 0, 0, -0.099905, 0.094525, 199.620181)"/>
<path fill-rule="nonzero" fill="rgb(0%, 0%, 50.193787%)" fill-opacity="1" stroke-width="5" stroke-linecap="round" stroke-linejoin="round" stroke="rgb(0%, 0%, 0%)" stroke-opacity="1" stroke-miterlimit="10" d="M 1378.489315 1148.151924 L 1525.425779 1659.262479 L 1350.102973 1161.758601 " transform="matrix(0.099905, 0, 0, -0.099905, 0.094525, 199.620181)"/>
<path fill-rule="nonzero" fill="rgb(90.039062%, 79.296875%, 73.242188%)" fill-opacity="1" d="M 137.8125 84.914062 L 115.894531 73.375 L 152.492188 33.851562 "/>
<path fill="none" stroke-width="5" stroke-linecap="round" stroke-linejoin="round" stroke="rgb(0%, 0%, 0%)" stroke-opacity="1" stroke-miterlimit="10" d="M 1378.489315 1148.151924 L 1159.101209 1263.652275 L 1525.425779 1659.262479 Z M 1378.489315 1148.151924 " transform="matrix(0.099905, 0, 0, -0.099905, 0.094525, 199.620181)"/>
<path fill-rule="nonzero" fill="rgb(0%, 0%, 0%)" fill-opacity="1" stroke-width="5" stroke-linecap="round" stroke-linejoin="round" stroke="rgb(0%, 0%, 0%)" stroke-opacity="1" stroke-miterlimit="10" d="M 1409.026137 1133.450458 L 1159.101209 1263.652275 L 1378.489315 1148.151924 " transform="matrix(0.099905, 0, 0, -0.099905, 0.094525, 199.620181)"/>
<path fill-rule="nonzero" fill="rgb(0%, 0%, 50.193787%)" fill-opacity="1" stroke-width="5" stroke-linecap="round" stroke-linejoin="round" stroke="rgb(0%, 0%, 0%)" stroke-opacity="1" stroke-miterlimit="10" d="M 1350.102973 1161.758601 L 1263.927356 917.033925 L 1378.489315 1148.151924 " transform="matrix(0.099905, 0, 0, -0.099905, 0.094525, 199.620181)"/>
<path fill-rule="nonzero" fill="rgb(74.021912%, 22.705078%, 0%)" fill-opacity="1" stroke-width="5" stroke-linecap="round" stroke-linejoin="round" stroke="rgb(0%, 0%, 0%)" stroke-opacity="1" stroke-miterlimit="10" d="M 1022.799847 1434.048526 L 841.181998 1258.373823 L 1066.044054 1390.139625 " transform="matrix(0.099905, 0, 0, -0.099905, 0.094525, 199.620181)"/>
<path fill-rule="nonzero" fill="rgb(61.914062%, 36.206055%, 50.584412%)" fill-opacity="1" d="M 59.351562 6.0625 L 84.132812 73.902344 L 102.277344 56.351562 "/>
<path fill="none" stroke-width="5" stroke-linecap="round" stroke-linejoin="round" stroke="rgb(0%, 0%, 0%)" stroke-opacity="1" stroke-miterlimit="10" d="M 593.133852 1937.417351 L 841.181998 1258.373823 L 1022.799847 1434.048526 Z M 593.133852 1937.417351 " transform="matrix(0.099905, 0, 0, -0.099905, 0.094525, 199.620181)"/>
<path fill-rule="nonzero" fill="rgb(58.789062%, 84.959412%, 50%)" fill-opacity="1" stroke-width="5" stroke-linecap="round" stroke-linejoin="round" stroke="rgb(0%, 0%, 0%)" stroke-opacity="1" stroke-miterlimit="10" d="M 1022.799847 1434.048526 L 1159.101209 1263.652275 L 976.27127 1481.280897 " transform="matrix(0.099905, 0, 0, -0.099905, 0.094525, 199.620181)"/>
<path fill-rule="nonzero" fill="rgb(58.789062%, 84.959412%, 50%)" fill-opacity="1" stroke-width="5" stroke-linecap="round" stroke-linejoin="round" stroke="rgb(0%, 0%, 0%)" stroke-opacity="1" stroke-miterlimit="10" d="M 976.27127 1481.280897 L 593.133852 1937.417351 L 1022.799847 1434.048526 " transform="matrix(0.099905, 0, 0, -0.099905, 0.094525, 199.620181)"/>
<path fill-rule="nonzero" fill="rgb(74.021912%, 22.705078%, 0%)" fill-opacity="1" stroke-width="5" stroke-linecap="round" stroke-linejoin="round" stroke="rgb(0%, 0%, 0%)" stroke-opacity="1" stroke-miterlimit="10" d="M 1066.044054 1390.139625 L 1525.425779 1659.262479 L 1022.799847 1434.048526 " transform="matrix(0.099905, 0, 0, -0.099905, 0.094525, 199.620181)"/>
<path fill-rule="nonzero" fill="rgb(64.646912%, 76.171875%, 93.164062%)" fill-opacity="1" d="M 115.894531 73.375 L 102.277344 56.351562 L 152.492188 33.851562 "/>
<path fill="none" stroke-width="5" stroke-linecap="round" stroke-linejoin="round" stroke="rgb(0%, 0%, 0%)" stroke-opacity="1" stroke-miterlimit="10" d="M 1159.101209 1263.652275 L 1022.799847 1434.048526 L 1525.425779 1659.262479 Z M 1159.101209 1263.652275 " transform="matrix(0.099905, 0, 0, -0.099905, 0.094525, 199.620181)"/>
<path fill-rule="nonzero" fill="rgb(72.264099%, 68.943787%, 81.834412%)" fill-opacity="1" d="M 5.675781 89.613281 L 75.417969 127.449219 L 70.648438 100.21875 "/>
<path fill="none" stroke-width="5" stroke-linecap="round" stroke-linejoin="round" stroke="rgb(0%, 0%, 0%)" stroke-opacity="1" stroke-miterlimit="10" d="M 55.865635 1101.115052 L 753.950691 722.395894 L 706.210025 994.959517 Z M 55.865635 1101.115052 " transform="matrix(0.099905, 0, 0, -0.099905, 0.094525, 199.620181)"/>
<path fill-rule="nonzero" fill="rgb(69.334412%, 49.705505%, 61.71875%)" fill-opacity="1" d="M 70.648438 100.21875 L 84.132812 73.902344 L 5.675781 89.613281 "/>
<path fill="none" stroke-width="5" stroke-linecap="round" stroke-linejoin="round" stroke="rgb(0%, 0%, 0%)" stroke-opacity="1" stroke-miterlimit="10" d="M 706.210025 994.959517 L 841.181998 1258.373823 L 55.865635 1101.115052 Z M 706.210025 994.959517 " transform="matrix(0.099905, 0, 0, -0.099905, 0.094525, 199.620181)"/>
<path fill-rule="nonzero" fill="rgb(52.34375%, 91.601562%, 80.859375%)" fill-opacity="1" stroke-width="5" stroke-linecap="round" stroke-linejoin="round" stroke="rgb(0%, 0%, 0%)" stroke-opacity="1" stroke-miterlimit="10" d="M 521.503303 821.474393 L 753.950691 722.395894 L 524.279378 847.006461 " transform="matrix(0.099905, 0, 0, -0.099905, 0.094525, 199.620181)"/>
<path fill-rule="nonzero" fill="rgb(88.084412%, 76.951599%, 73.4375%)" fill-opacity="1" d="M 30.914062 176.445312 L 75.417969 127.449219 L 52.195312 117.550781 "/>
<path fill="none" stroke-width="5" stroke-linecap="round" stroke-linejoin="round" stroke="rgb(0%, 0%, 0%)" stroke-opacity="1" stroke-miterlimit="10" d="M 308.488439 231.969051 L 753.950691 722.395894 L 521.503303 821.474393 Z M 308.488439 231.969051 " transform="matrix(0.099905, 0, 0, -0.099905, 0.094525, 199.620181)"/>
<path fill-rule="nonzero" fill="rgb(0%, 0%, 31.005859%)" fill-opacity="1" stroke-width="5" stroke-linecap="round" stroke-linejoin="round" stroke="rgb(0%, 0%, 0%)" stroke-opacity="1" stroke-miterlimit="10" d="M 521.503303 821.474393 L 616.984635 1057.32345 L 518.53173 793.987343 " transform="matrix(0.099905, 0, 0, -0.099905, 0.094525, 199.620181)"/>
<path fill-rule="nonzero" fill="rgb(0%, 0%, 31.005859%)" fill-opacity="1" stroke-width="5" stroke-linecap="round" stroke-linejoin="round" stroke="rgb(0%, 0%, 0%)" stroke-opacity="1" stroke-miterlimit="10" d="M 518.53173 793.987343 L 308.488439 231.969051 L 521.503303 821.474393 " transform="matrix(0.099905, 0, 0, -0.099905, 0.094525, 199.620181)"/>
<path fill-rule="nonzero" fill="rgb(52.34375%, 91.601562%, 80.859375%)" fill-opacity="1" stroke-width="5" stroke-linecap="round" stroke-linejoin="round" stroke="rgb(0%, 0%, 0%)" stroke-opacity="1" stroke-miterlimit="10" d="M 524.279378 847.006461 L 55.865635 1101.115052 L 521.503303 821.474393 " transform="matrix(0.099905, 0, 0, -0.099905, 0.094525, 199.620181)"/>
<path fill-rule="nonzero" fill="rgb(45.996094%, 29.393005%, 56.834412%)" fill-opacity="1" d="M 61.734375 93.988281 L 52.195312 117.550781 L 5.675781 89.613281 "/>
<path fill="none" stroke-width="5" stroke-linecap="round" stroke-linejoin="round" stroke="rgb(0%, 0%, 0%)" stroke-opacity="1" stroke-miterlimit="10" d="M 616.984635 1057.32345 L 521.503303 821.474393 L 55.865635 1101.115052 Z M 616.984635 1057.32345 " transform="matrix(0.099905, 0, 0, -0.099905, 0.094525, 199.620181)"/>
<path fill-rule="nonzero" fill="rgb(54.492188%, 1.000977%, 0%)" fill-opacity="1" stroke-width="5" stroke-linecap="round" stroke-linejoin="round" stroke="rgb(0%, 0%, 0%)" stroke-opacity="1" stroke-miterlimit="10" d="M 596.105425 1271.941399 L 55.865635 1101.115052 L 583.867236 1206.840491 " transform="matrix(0.099905, 0, 0, -0.099905, 0.094525, 199.620181)"/>
<path fill-rule="nonzero" fill="rgb(54.492188%, 1.000977%, 0%)" fill-opacity="1" stroke-width="5" stroke-linecap="round" stroke-linejoin="round" stroke="rgb(0%, 0%, 0%)" stroke-opacity="1" stroke-miterlimit="10" d="M 583.867236 1206.840491 L 841.181998 1258.373823 L 596.105425 1271.941399 " transform="matrix(0.099905, 0, 0, -0.099905, 0.094525, 199.620181)"/>
<path fill-rule="nonzero" fill="rgb(85.351562%, 62.5%, 59.179688%)" fill-opacity="1" d="M 59.648438 72.546875 L 84.132812 73.902344 L 59.351562 6.0625 "/>
<path fill="none" stroke-width="5" stroke-linecap="round" stroke-linejoin="round" stroke="rgb(0%, 0%, 0%)" stroke-opacity="1" stroke-miterlimit="10" d="M 596.105425 1271.941399 L 841.181998 1258.373823 L 593.133852 1937.417351 Z M 596.105425 1271.941399 " transform="matrix(0.099905, 0, 0, -0.099905, 0.094525, 199.620181)"/>
<path fill-rule="nonzero" fill="rgb(0%, 0%, 11.302185%)" fill-opacity="1" stroke-width="5" stroke-linecap="round" stroke-linejoin="round" stroke="rgb(0%, 0%, 0%)" stroke-opacity="1" stroke-miterlimit="10" d="M 596.105425 1271.941399 L 593.133852 1937.417351 L 609.282005 1341.929763 " transform="matrix(0.099905, 0, 0, -0.099905, 0.094525, 199.620181)"/>
<path fill-rule="nonzero" fill="rgb(0%, 0%, 11.302185%)" fill-opacity="1" stroke-width="5" stroke-linecap="round" stroke-linejoin="round" stroke="rgb(0%, 0%, 0%)" stroke-opacity="1" stroke-miterlimit="10" d="M 609.282005 1341.929763 L 616.984635 1057.32345 L 596.105425 1271.941399 " transform="matrix(0.099905, 0, 0, -0.099905, 0.094525, 199.620181)"/>
<path fill-rule="nonzero" fill="rgb(47.192383%, 55.859375%, 86.131287%)" fill-opacity="1" d="M 61.734375 93.988281 L 5.675781 89.613281 L 59.648438 72.546875 "/>
<path fill="none" stroke-width="5" stroke-linecap="round" stroke-linejoin="round" stroke="rgb(0%, 0%, 0%)" stroke-opacity="1" stroke-miterlimit="10" d="M 616.984635 1057.32345 L 55.865635 1101.115052 L 596.105425 1271.941399 Z M 616.984635 1057.32345 " transform="matrix(0.099905, 0, 0, -0.099905, 0.094525, 199.620181)"/>
<path fill-rule="nonzero" fill="rgb(79.101562%, 69.921875%, 76.171875%)" fill-opacity="1" d="M 75.417969 127.449219 L 128.25 189.664062 L 104.425781 127.632812 "/>
<path fill="none" stroke-width="5" stroke-linecap="round" stroke-linejoin="round" stroke="rgb(0%, 0%, 0%)" stroke-opacity="1" stroke-miterlimit="10" d="M 753.950691 722.395894 L 1282.773385 99.655853 L 1044.304652 720.55821 Z M 753.950691 722.395894 " transform="matrix(0.099905, 0, 0, -0.099905, 0.094525, 199.620181)"/>
<path fill-rule="nonzero" fill="rgb(59.568787%, 47.705078%, 68.75%)" fill-opacity="1" d="M 126.367188 108.003906 L 104.425781 127.632812 L 128.25 189.664062 "/>
<path fill="none" stroke-width="5" stroke-linecap="round" stroke-linejoin="round" stroke="rgb(0%, 0%, 0%)" stroke-opacity="1" stroke-miterlimit="10" d="M 1263.927356 917.033925 L 1044.304652 720.55821 L 1282.773385 99.655853 Z M 1263.927356 917.033925 " transform="matrix(0.099905, 0, 0, -0.099905, 0.094525, 199.620181)"/>
<path fill-rule="nonzero" fill="rgb(66.209412%, 74.21875%, 91.014099%)" fill-opacity="1" d="M 75.417969 127.449219 L 30.914062 176.445312 L 87.757812 146.539062 "/>
<path fill="none" stroke-width="5" stroke-linecap="round" stroke-linejoin="round" stroke="rgb(0%, 0%, 0%)" stroke-opacity="1" stroke-miterlimit="10" d="M 753.950691 722.395894 L 308.488439 231.969051 L 877.466468 531.31593 Z M 753.950691 722.395894 " transform="matrix(0.099905, 0, 0, -0.099905, 0.094525, 199.620181)"/>
<path fill-rule="nonzero" fill="rgb(64.84375%, 9.106445%, 0%)" fill-opacity="1" stroke-width="5" stroke-linecap="round" stroke-linejoin="round" stroke="rgb(0%, 0%, 0%)" stroke-opacity="1" stroke-miterlimit="10" d="M 877.466468 531.31593 L 308.488439 231.969051 L 824.838346 544.179713 " transform="matrix(0.099905, 0, 0, -0.099905, 0.094525, 199.620181)"/>
<path fill-rule="nonzero" fill="rgb(76.367188%, 96.875%, 68.164062%)" fill-opacity="1" stroke-width="5" stroke-linecap="round" stroke-linejoin="round" stroke="rgb(0%, 0%, 0%)" stroke-opacity="1" stroke-miterlimit="10" d="M 926.380124 519.351439 L 753.950691 722.395894 L 877.466468 531.31593 " transform="matrix(0.099905, 0, 0, -0.099905, 0.094525, 199.620181)"/>
<path fill-rule="nonzero" fill="rgb(64.84375%, 9.106445%, 0%)" fill-opacity="1" stroke-width="5" stroke-linecap="round" stroke-linejoin="round" stroke="rgb(0%, 0%, 0%)" stroke-opacity="1" stroke-miterlimit="10" d="M 824.838346 544.179713 L 1068.038136 691.233477 L 877.466468 531.31593 " transform="matrix(0.099905, 0, 0, -0.099905, 0.094525, 199.620181)"/>
<path fill-rule="nonzero" fill="rgb(76.367188%, 96.875%, 68.164062%)" fill-opacity="1" stroke-width="5" stroke-linecap="round" stroke-linejoin="round" stroke="rgb(0%, 0%, 0%)" stroke-opacity="1" stroke-miterlimit="10" d="M 877.466468 531.31593 L 1282.773385 99.655853 L 926.380124 519.351439 " transform="matrix(0.099905, 0, 0, -0.099905, 0.094525, 199.620181)"/>
<path fill-rule="nonzero" fill="rgb(60.351562%, 33.006287%, 47.509766%)" fill-opacity="1" d="M 87.757812 146.539062 L 106.796875 130.5625 L 128.25 189.664062 "/>
<path fill="none" stroke-width="5" stroke-linecap="round" stroke-linejoin="round" stroke="rgb(0%, 0%, 0%)" stroke-opacity="1" stroke-miterlimit="10" d="M 877.466468 531.31593 L 1068.038136 691.233477 L 1282.773385 99.655853 Z M 877.466468 531.31593 " transform="matrix(0.099905, 0, 0, -0.099905, 0.094525, 199.620181)"/>
<path fill-rule="nonzero" fill="rgb(0%, 0%, 30.809021%)" fill-opacity="1" stroke-width="5" stroke-linecap="round" stroke-linejoin="round" stroke="rgb(0%, 0%, 0%)" stroke-opacity="1" stroke-miterlimit="10" d="M 1307.758058 695.847235 L 1263.927356 917.033925 L 1270.066 650.804444 " transform="matrix(0.099905, 0, 0, -0.099905, 0.094525, 199.620181)"/>
<path fill-rule="nonzero" fill="rgb(0%, 0%, 30.809021%)" fill-opacity="1" stroke-width="5" stroke-linecap="round" stroke-linejoin="round" stroke="rgb(0%, 0%, 0%)" stroke-opacity="1" stroke-miterlimit="10" d="M 1270.066 650.804444 L 1282.773385 99.655853 L 1307.758058 695.847235 " transform="matrix(0.099905, 0, 0, -0.099905, 0.094525, 199.620181)"/>
<path fill-rule="nonzero" fill="rgb(50.976562%, 56.639099%, 84.959412%)" fill-opacity="1" d="M 126.367188 108.003906 L 130.746094 130.101562 L 193.972656 114.046875 "/>
<path fill="none" stroke-width="5" stroke-linecap="round" stroke-linejoin="round" stroke="rgb(0%, 0%, 0%)" stroke-opacity="1" stroke-miterlimit="10" d="M 1263.927356 917.033925 L 1307.758058 695.847235 L 1940.624906 856.546774 Z M 1263.927356 917.033925 " transform="matrix(0.099905, 0, 0, -0.099905, 0.094525, 199.620181)"/>
<path fill-rule="nonzero" fill="rgb(42.504883%, 0%, 0%)" fill-opacity="1" stroke-width="5" stroke-linecap="round" stroke-linejoin="round" stroke="rgb(0%, 0%, 0%)" stroke-opacity="1" stroke-miterlimit="10" d="M 1307.758058 695.847235 L 1068.038136 691.233477 L 1348.343489 744.330794 " transform="matrix(0.099905, 0, 0, -0.099905, 0.094525, 199.620181)"/>
<path fill-rule="nonzero" fill="rgb(42.504883%, 0%, 0%)" fill-opacity="1" stroke-width="5" stroke-linecap="round" stroke-linejoin="round" stroke="rgb(0%, 0%, 0%)" stroke-opacity="1" stroke-miterlimit="10" d="M 1348.343489 744.330794 L 1940.624906 856.546774 L 1307.758058 695.847235 " transform="matrix(0.099905, 0, 0, -0.099905, 0.094525, 199.620181)"/>
<path fill-rule="nonzero" fill="rgb(86.914062%, 62.889099%, 57.03125%)" fill-opacity="1" d="M 128.25 189.664062 L 106.796875 130.5625 L 130.746094 130.101562 "/>
<path fill="none" stroke-width="5" stroke-linecap="round" stroke-linejoin="round" stroke="rgb(0%, 0%, 0%)" stroke-opacity="1" stroke-miterlimit="10" d="M 1282.773385 99.655853 L 1068.038136 691.233477 L 1307.758058 695.847235 Z M 1282.773385 99.655853 " transform="matrix(0.099905, 0, 0, -0.099905, 0.094525, 199.620181)"/>
<path fill-rule="nonzero" fill="rgb(49.388123%, 33.201599%, 58.984375%)" fill-opacity="1" d="M 126.367188 108.003906 L 193.972656 114.046875 L 137.8125 84.914062 "/>
<path fill="none" stroke-width="5" stroke-linecap="round" stroke-linejoin="round" stroke="rgb(0%, 0%, 0%)" stroke-opacity="1" stroke-miterlimit="10" d="M 1263.927356 917.033925 L 1940.624906 856.546774 L 1378.489315 1148.151924 Z M 1263.927356 917.033925 " transform="matrix(0.099905, 0, 0, -0.099905, 0.094525, 199.620181)"/>
<path fill-rule="nonzero" fill="rgb(96.09375%, 94.334412%, 68.554688%)" fill-opacity="1" d="M 122.222656 102.316406 L 93.777344 91.402344 L 115.894531 73.375 "/>
<path fill="none" stroke-width="5" stroke-linecap="round" stroke-linejoin="round" stroke="rgb(0%, 0%, 0%)" stroke-opacity="1" stroke-miterlimit="10" d="M 1222.442633 973.963007 L 937.719021 1083.207415 L 1159.101209 1263.652275 Z M 1222.442633 973.963007 " transform="matrix(0.099905, 0, 0, -0.099905, 0.094525, 199.620181)"/>
<path fill-rule="nonzero" fill="rgb(50.78125%, 87.109375%, 98.242188%)" fill-opacity="1" d="M 93.777344 91.402344 L 84.707031 72.039062 L 115.894531 73.375 "/>
<path fill="none" stroke-width="5" stroke-linecap="round" stroke-linejoin="round" stroke="rgb(0%, 0%, 0%)" stroke-opacity="1" stroke-miterlimit="10" d="M 937.719021 1083.207415 L 846.929646 1277.024353 L 1159.101209 1263.652275 Z M 937.719021 1083.207415 " transform="matrix(0.099905, 0, 0, -0.099905, 0.094525, 199.620181)"/>
<path fill-rule="nonzero" fill="rgb(72.264099%, 70.117188%, 83.006287%)" fill-opacity="1" d="M 122.222656 102.316406 L 115.894531 73.375 L 193.972656 114.046875 "/>
<path fill="none" stroke-width="5" stroke-linecap="round" stroke-linejoin="round" stroke="rgb(0%, 0%, 0%)" stroke-opacity="1" stroke-miterlimit="10" d="M 1222.442633 973.963007 L 1159.101209 1263.652275 L 1940.624906 856.546774 Z M 1222.442633 973.963007 " transform="matrix(0.099905, 0, 0, -0.099905, 0.094525, 199.620181)"/>
<path fill-rule="nonzero" fill="rgb(80.076599%, 71.09375%, 76.756287%)" fill-opacity="1" d="M 115.894531 73.375 L 84.707031 72.039062 L 59.351562 6.0625 "/>
<path fill="none" stroke-width="5" stroke-linecap="round" stroke-linejoin="round" stroke="rgb(0%, 0%, 0%)" stroke-opacity="1" stroke-miterlimit="10" d="M 1159.101209 1263.652275 L 846.929646 1277.024353 L 593.133852 1937.417351 Z M 1159.101209 1263.652275 " transform="matrix(0.099905, 0, 0, -0.099905, 0.094525, 199.620181)"/>
<path fill-rule="nonzero" fill="rgb(59.179688%, 55.271912%, 77.929688%)" fill-opacity="1" d="M 76.972656 119.578125 L 30.914062 176.445312 L 61.734375 93.988281 "/>
<path fill="none" stroke-width="5" stroke-linecap="round" stroke-linejoin="round" stroke="rgb(0%, 0%, 0%)" stroke-opacity="1" stroke-miterlimit="10" d="M 769.512349 801.181678 L 308.488439 231.969051 L 616.984635 1057.32345 Z M 769.512349 801.181678 " transform="matrix(0.099905, 0, 0, -0.099905, 0.094525, 199.620181)"/>
<path fill-rule="nonzero" fill="rgb(7.788086%, 0%, 37.010193%)" fill-opacity="1" d="M 76.972656 119.578125 L 61.734375 93.988281 L 93.777344 91.402344 "/>
<path fill="none" stroke-width="5" stroke-linecap="round" stroke-linejoin="round" stroke="rgb(0%, 0%, 0%)" stroke-opacity="1" stroke-miterlimit="10" d="M 769.512349 801.181678 L 616.984635 1057.32345 L 937.719021 1083.207415 Z M 769.512349 801.181678 " transform="matrix(0.099905, 0, 0, -0.099905, 0.094525, 199.620181)"/>
<path fill-rule="nonzero" fill="rgb(2.700806%, 31.10199%, 80.076599%)" fill-opacity="1" d="M 93.777344 91.402344 L 61.734375 93.988281 L 84.707031 72.039062 "/>
<path fill="none" stroke-width="5" stroke-linecap="round" stroke-linejoin="round" stroke="rgb(0%, 0%, 0%)" stroke-opacity="1" stroke-miterlimit="10" d="M 937.719021 1083.207415 L 616.984635 1057.32345 L 846.929646 1277.024353 Z M 937.719021 1083.207415 " transform="matrix(0.099905, 0, 0, -0.099905, 0.094525, 199.620181)"/>
<path fill-rule="nonzero" fill="rgb(58.201599%, 46.508789%, 68.554688%)" fill-opacity="1" d="M 61.734375 93.988281 L 59.351562 6.0625 L 84.707031 72.039062 "/>
<path fill="none" stroke-width="5" stroke-linecap="round" stroke-linejoin="round" stroke="rgb(0%, 0%, 0%)" stroke-opacity="1" stroke-miterlimit="10" d="M 616.984635 1057.32345 L 593.133852 1937.417351 L 846.929646 1277.024353 Z M 616.984635 1057.32345 " transform="matrix(0.099905, 0, 0, -0.099905, 0.094525, 199.620181)"/>
<path fill-rule="nonzero" fill="rgb(77.734375%, 58.59375%, 63.867188%)" fill-opacity="1" d="M 30.914062 176.445312 L 76.972656 119.578125 L 106.796875 130.5625 "/>
<path fill="none" stroke-width="5" stroke-linecap="round" stroke-linejoin="round" stroke="rgb(0%, 0%, 0%)" stroke-opacity="1" stroke-miterlimit="10" d="M 308.488439 231.969051 L 769.512349 801.181678 L 1068.038136 691.233477 Z M 308.488439 231.969051 " transform="matrix(0.099905, 0, 0, -0.099905, 0.094525, 199.620181)"/>
<path fill-rule="nonzero" fill="rgb(49.804688%, 6.809998%, 15.405273%)" fill-opacity="1" d="M 106.796875 130.5625 L 76.972656 119.578125 L 93.777344 91.402344 "/>
<path fill="none" stroke-width="5" stroke-linecap="round" stroke-linejoin="round" stroke="rgb(0%, 0%, 0%)" stroke-opacity="1" stroke-miterlimit="10" d="M 1068.038136 691.233477 L 769.512349 801.181678 L 937.719021 1083.207415 Z M 1068.038136 691.233477 " transform="matrix(0.099905, 0, 0, -0.099905, 0.094525, 199.620181)"/>
<path fill-rule="nonzero" fill="rgb(90.039062%, 51.756287%, 28.808594%)" fill-opacity="1" d="M 106.796875 130.5625 L 93.777344 91.402344 L 122.222656 102.316406 "/>
<path fill="none" stroke-width="5" stroke-linecap="round" stroke-linejoin="round" stroke="rgb(0%, 0%, 0%)" stroke-opacity="1" stroke-miterlimit="10" d="M 1068.038136 691.233477 L 937.719021 1083.207415 L 1222.442633 973.963007 Z M 1068.038136 691.233477 " transform="matrix(0.099905, 0, 0, -0.099905, 0.094525, 199.620181)"/>
<path fill-rule="nonzero" fill="rgb(69.139099%, 48.706055%, 60.546875%)" fill-opacity="1" d="M 193.972656 114.046875 L 106.796875 130.5625 L 122.222656 102.316406 "/>
<path fill="none" stroke-width="5" stroke-linecap="round" stroke-linejoin="round" stroke="rgb(0%, 0%, 0%)" stroke-opacity="1" stroke-miterlimit="10" d="M 1940.624906 856.546774 L 1068.038136 691.233477 L 1222.442633 973.963007 Z M 1940.624906 856.546774 " transform="matrix(0.099905, 0, 0, -0.099905, 0.094525, 199.620181)"/>
</svg>
