<?xml version="1.0" encoding="UTF-8"?>
<svg xmlns="http://www.w3.org/2000/svg" xmlns:xlink="http://www.w3.org/1999/xlink" width="213" height="149" viewBox="0 0 213 149">
<path fill-rule="nonzero" fill="rgb(66.992188%, 73.242188%, 89.646912%)" fill-opacity="1" stroke-width="4.17357" stroke-linecap="round" stroke-linejoin="round" stroke="rgb(0%, 0%, 0%)" stroke-opacity="1" stroke-miterlimit="10" d="M 730.820312 465.625 L 955.976562 712.617188 L 1374.0625 664.296875 " transform="matrix(0.1, 0, 0, -0.1, 0, 149)"/>
<path fill-rule="nonzero" fill="rgb(88.867188%, 75%, 70.117188%)" fill-opacity="1" d="M 95.597656 77.738281 L 73.082031 102.4375 L 55.503906 31.472656 "/>
<path fill="none" stroke-width="4.17357" stroke-linecap="round" stroke-linejoin="round" stroke="rgb(0%, 0%, 0%)" stroke-opacity="1" stroke-miterlimit="10" d="M 955.976562 712.617188 L 730.820312 465.625 " transform="matrix(0.1, 0, 0, -0.1, 0, 149)"/>
<path fill-rule="nonzero" fill="rgb(88.867188%, 75%, 70.117188%)" fill-opacity="1" stroke-width="4.17357" stroke-linecap="round" stroke-linejoin="round" stroke="rgb(0%, 0%, 0%)" stroke-opacity="1" stroke-miterlimit="10" d="M 555.039062 1175.273438 L 857.617188 1122.460938 L 955.976562 712.617188 " transform="matrix(0.1, 0, 0, -0.1, 0, 149)"/>
<path fill-rule="nonzero" fill="rgb(67.576599%, 52.539062%, 67.576599%)" fill-opacity="1" stroke-width="4.17357" stroke-linecap="round" stroke-linejoin="round" stroke="rgb(0%, 0%, 0%)" stroke-opacity="1" stroke-miterlimit="10" d="M 955.976562 712.617188 L 857.617188 1122.460938 L 1219.21875 1340.273438 " transform="matrix(0.1, 0, 0, -0.1, 0, 149)"/>
<path fill-rule="nonzero" fill="rgb(67.576599%, 52.539062%, 67.576599%)" fill-opacity="1" d="M 137.40625 82.570312 L 95.597656 77.738281 L 121.921875 14.972656 "/>
<path fill="none" stroke-width="4.17357" stroke-linecap="round" stroke-linejoin="round" stroke="rgb(0%, 0%, 0%)" stroke-opacity="1" stroke-miterlimit="10" d="M 1374.0625 664.296875 L 955.976562 712.617188 " transform="matrix(0.1, 0, 0, -0.1, 0, 149)"/>
<path fill-rule="nonzero" fill="rgb(76.171875%, 37.205505%, 31.396484%)" fill-opacity="1" d="M 85.761719 36.753906 L 55.503906 31.472656 L 118.40625 -7.269531 "/>
<path fill="none" stroke-width="4.17357" stroke-linecap="round" stroke-linejoin="round" stroke="rgb(0%, 0%, 0%)" stroke-opacity="1" stroke-miterlimit="10" d="M 857.617188 1122.460938 L 555.039062 1175.273438 " transform="matrix(0.1, 0, 0, -0.1, 0, 149)"/>
<path fill-rule="nonzero" fill="rgb(76.171875%, 37.205505%, 31.396484%)" fill-opacity="1" stroke-width="4.17357" stroke-linecap="round" stroke-linejoin="round" stroke="rgb(0%, 0%, 0%)" stroke-opacity="1" stroke-miterlimit="10" d="M 1184.0625 1562.695312 L 1219.21875 1340.273438 L 857.617188 1122.460938 " transform="matrix(0.1, 0, 0, -0.1, 0, 149)"/>
<path fill-rule="nonzero" fill="rgb(66.992188%, 73.242188%, 89.646912%)" fill-opacity="1" d="M 103.707031 125.488281 L 73.082031 102.4375 L 137.40625 82.570312 "/>
<path fill="none" stroke-width="4.17357" stroke-linecap="round" stroke-linejoin="round" stroke="rgb(0%, 0%, 0%)" stroke-opacity="1" stroke-miterlimit="10" d="M 1037.070312 235.117188 L 730.820312 465.625 " transform="matrix(0.1, 0, 0, -0.1, 0, 149)"/>
<path fill-rule="nonzero" fill="rgb(66.992188%, 73.242188%, 89.646912%)" fill-opacity="1" stroke-width="4.17357" stroke-linecap="round" stroke-linejoin="round" stroke="rgb(0%, 0%, 0%)" stroke-opacity="1" stroke-miterlimit="10" d="M 1374.0625 664.296875 L 1455.507812 375.546875 L 1037.070312 235.117188 " transform="matrix(0.1, 0, 0, -0.1, 0, 149)"/>
<path fill-rule="nonzero" fill="rgb(67.576599%, 52.539062%, 67.576599%)" fill-opacity="1" stroke-width="4.17357" stroke-linecap="round" stroke-linejoin="round" stroke="rgb(0%, 0%, 0%)" stroke-opacity="1" stroke-miterlimit="10" d="M 1219.21875 1340.273438 L 1545.195312 1051.875 L 1374.0625 664.296875 " transform="matrix(0.1, 0, 0, -0.1, 0, 149)"/>
<path fill-rule="nonzero" fill="rgb(27.293396%, 31.297302%, 72.264099%)" fill-opacity="1" stroke-width="4.17357" stroke-linecap="round" stroke-linejoin="round" stroke="rgb(0%, 0%, 0%)" stroke-opacity="1" stroke-miterlimit="10" d="M 1374.0625 664.296875 L 1545.195312 1051.875 L 1761.640625 1052.226562 " transform="matrix(0.1, 0, 0, -0.1, 0, 149)"/>
<path fill-rule="nonzero" fill="rgb(27.293396%, 31.297302%, 72.264099%)" fill-opacity="1" d="M 145.550781 111.445312 L 137.40625 82.570312 L 176.164062 43.777344 "/>
<path fill="none" stroke-width="4.17357" stroke-linecap="round" stroke-linejoin="round" stroke="rgb(0%, 0%, 0%)" stroke-opacity="1" stroke-miterlimit="10" d="M 1455.507812 375.546875 L 1374.0625 664.296875 " transform="matrix(0.1, 0, 0, -0.1, 0, 149)"/>
<path fill-rule="nonzero" fill="rgb(24.388123%, 0%, 20.800781%)" fill-opacity="1" stroke-width="4.17357" stroke-linecap="round" stroke-linejoin="round" stroke="rgb(0%, 0%, 0%)" stroke-opacity="1" stroke-miterlimit="10" d="M 1219.21875 1340.273438 L 1184.0625 1562.695312 L 1537.382812 1388.007812 " transform="matrix(0.1, 0, 0, -0.1, 0, 149)"/>
<path fill-rule="nonzero" fill="rgb(24.388123%, 0%, 20.800781%)" fill-opacity="1" d="M 154.519531 43.8125 L 121.921875 14.972656 L 153.738281 10.199219 "/>
<path fill="none" stroke-width="4.17357" stroke-linecap="round" stroke-linejoin="round" stroke="rgb(0%, 0%, 0%)" stroke-opacity="1" stroke-miterlimit="10" d="M 1545.195312 1051.875 L 1219.21875 1340.273438 " transform="matrix(0.1, 0, 0, -0.1, 0, 149)"/>
<path fill-rule="nonzero" fill="rgb(24.388123%, 0%, 20.800781%)" fill-opacity="1" stroke-width="4.17357" stroke-linecap="round" stroke-linejoin="round" stroke="rgb(0%, 0%, 0%)" stroke-opacity="1" stroke-miterlimit="10" d="M 1537.382812 1388.007812 L 1761.640625 1052.226562 L 1545.195312 1051.875 " transform="matrix(0.1, 0, 0, -0.1, 0, 149)"/>
<path fill-rule="nonzero" fill="rgb(88.867188%, 75%, 70.117188%)" fill-opacity="1" stroke-width="4.17357" stroke-linecap="round" stroke-linejoin="round" stroke="rgb(0%, 0%, 0%)" stroke-opacity="1" stroke-miterlimit="10" d="M 730.820312 465.625 L 460.976562 748.125 L 555.039062 1175.273438 " transform="matrix(0.1, 0, 0, -0.1, 0, 149)"/>
<path fill-rule="nonzero" fill="rgb(0%, 0%, 0%)" fill-opacity="1" d="M 73.082031 102.4375 L 103.707031 125.488281 L 58.585938 77.335938 "/>
<path fill="none" stroke-width="4.17357" stroke-linecap="round" stroke-linejoin="round" stroke="rgb(0%, 0%, 0%)" stroke-opacity="1" stroke-miterlimit="10" d="M 730.820312 465.625 L 1037.070312 235.117188 " transform="matrix(0.1, 0, 0, -0.1, 0, 149)"/>
<path fill-rule="nonzero" fill="rgb(0%, 0%, 0%)" fill-opacity="1" stroke-width="4.17357" stroke-linecap="round" stroke-linejoin="round" stroke="rgb(0%, 0%, 0%)" stroke-opacity="1" stroke-miterlimit="10" d="M 585.859375 716.640625 L 460.976562 748.125 L 730.820312 465.625 " transform="matrix(0.1, 0, 0, -0.1, 0, 149)"/>
<path fill-rule="nonzero" fill="rgb(76.171875%, 37.205505%, 31.396484%)" fill-opacity="1" stroke-width="4.17357" stroke-linecap="round" stroke-linejoin="round" stroke="rgb(0%, 0%, 0%)" stroke-opacity="1" stroke-miterlimit="10" d="M 555.039062 1175.273438 L 741.679688 1461.289062 L 1184.0625 1562.695312 " transform="matrix(0.1, 0, 0, -0.1, 0, 149)"/>
<path fill-rule="nonzero" fill="rgb(0%, 10.888672%, 63.476562%)" fill-opacity="1" stroke-width="4.17357" stroke-linecap="round" stroke-linejoin="round" stroke="rgb(0%, 0%, 0%)" stroke-opacity="1" stroke-miterlimit="10" d="M 741.679688 1461.289062 L 555.039062 1175.273438 L 460.976562 748.125 " transform="matrix(0.1, 0, 0, -0.1, 0, 149)"/>
<path fill-rule="nonzero" fill="rgb(27.293396%, 31.297302%, 72.264099%)" fill-opacity="1" stroke-width="4.17357" stroke-linecap="round" stroke-linejoin="round" stroke="rgb(0%, 0%, 0%)" stroke-opacity="1" stroke-miterlimit="10" d="M 1761.640625 1052.226562 L 1710.429688 602.929688 L 1455.507812 375.546875 " transform="matrix(0.1, 0, 0, -0.1, 0, 149)"/>
<path fill-rule="nonzero" fill="rgb(70.896912%, 20.800781%, 4.598999%)" fill-opacity="1" stroke-width="4.17357" stroke-linecap="round" stroke-linejoin="round" stroke="rgb(0%, 0%, 0%)" stroke-opacity="1" stroke-miterlimit="10" d="M 1455.507812 375.546875 L 1710.429688 602.929688 L 1431.679688 617.890625 " transform="matrix(0.1, 0, 0, -0.1, 0, 149)"/>
<path fill-rule="nonzero" fill="rgb(70.896912%, 20.800781%, 4.598999%)" fill-opacity="1" d="M 103.707031 125.488281 L 145.550781 111.445312 L 143.167969 87.210938 "/>
<path fill="none" stroke-width="4.17357" stroke-linecap="round" stroke-linejoin="round" stroke="rgb(0%, 0%, 0%)" stroke-opacity="1" stroke-miterlimit="10" d="M 1037.070312 235.117188 L 1455.507812 375.546875 " transform="matrix(0.1, 0, 0, -0.1, 0, 149)"/>
<path fill-rule="nonzero" fill="rgb(63.28125%, 77.539062%, 94.921875%)" fill-opacity="1" stroke-width="4.17357" stroke-linecap="round" stroke-linejoin="round" stroke="rgb(0%, 0%, 0%)" stroke-opacity="1" stroke-miterlimit="10" d="M 1537.382812 1388.007812 L 1184.0625 1562.695312 L 741.679688 1461.289062 " transform="matrix(0.1, 0, 0, -0.1, 0, 149)"/>
<path fill-rule="nonzero" fill="rgb(0%, 10.888672%, 63.476562%)" fill-opacity="1" d="M 46.097656 74.1875 L 58.585938 77.335938 L 74.167969 2.871094 "/>
<path fill="none" stroke-width="4.17357" stroke-linecap="round" stroke-linejoin="round" stroke="rgb(0%, 0%, 0%)" stroke-opacity="1" stroke-miterlimit="10" d="M 460.976562 748.125 L 585.859375 716.640625 " transform="matrix(0.1, 0, 0, -0.1, 0, 149)"/>
<path fill-rule="nonzero" fill="rgb(93.943787%, 80.076599%, 67.96875%)" fill-opacity="1" stroke-width="4.17357" stroke-linecap="round" stroke-linejoin="round" stroke="rgb(0%, 0%, 0%)" stroke-opacity="1" stroke-miterlimit="10" d="M 1710.429688 602.929688 L 1761.640625 1052.226562 L 1537.382812 1388.007812 " transform="matrix(0.1, 0, 0, -0.1, 0, 149)"/>
<path fill-rule="nonzero" fill="rgb(70.896912%, 20.800781%, 4.598999%)" fill-opacity="1" stroke-width="4.17357" stroke-linecap="round" stroke-linejoin="round" stroke="rgb(0%, 0%, 0%)" stroke-opacity="1" stroke-miterlimit="10" d="M 1431.679688 617.890625 L 979.179688 366.5625 L 1037.070312 235.117188 " transform="matrix(0.1, 0, 0, -0.1, 0, 149)"/>
<path fill-rule="nonzero" fill="rgb(0%, 0%, 0%)" fill-opacity="1" stroke-width="4.17357" stroke-linecap="round" stroke-linejoin="round" stroke="rgb(0%, 0%, 0%)" stroke-opacity="1" stroke-miterlimit="10" d="M 1037.070312 235.117188 L 979.179688 366.5625 L 585.859375 716.640625 " transform="matrix(0.1, 0, 0, -0.1, 0, 149)"/>
<path fill-rule="nonzero" fill="rgb(0%, 10.888672%, 63.476562%)" fill-opacity="1" stroke-width="4.17357" stroke-linecap="round" stroke-linejoin="round" stroke="rgb(0%, 0%, 0%)" stroke-opacity="1" stroke-miterlimit="10" d="M 585.859375 716.640625 L 778.4375 1197.382812 L 741.679688 1461.289062 " transform="matrix(0.1, 0, 0, -0.1, 0, 149)"/>
<path fill-rule="nonzero" fill="rgb(63.28125%, 77.539062%, 94.921875%)" fill-opacity="1" d="M 74.167969 2.871094 L 77.84375 29.261719 L 153.738281 10.199219 "/>
<path fill="none" stroke-width="4.17357" stroke-linecap="round" stroke-linejoin="round" stroke="rgb(0%, 0%, 0%)" stroke-opacity="1" stroke-miterlimit="10" d="M 741.679688 1461.289062 L 778.4375 1197.382812 " transform="matrix(0.1, 0, 0, -0.1, 0, 149)"/>
<path fill-rule="nonzero" fill="rgb(93.943787%, 80.076599%, 67.96875%)" fill-opacity="1" d="M 143.167969 87.210938 L 171.042969 88.707031 L 153.738281 10.199219 "/>
<path fill="none" stroke-width="4.17357" stroke-linecap="round" stroke-linejoin="round" stroke="rgb(0%, 0%, 0%)" stroke-opacity="1" stroke-miterlimit="10" d="M 1431.679688 617.890625 L 1710.429688 602.929688 " transform="matrix(0.1, 0, 0, -0.1, 0, 149)"/>
<path fill-rule="nonzero" fill="rgb(93.943787%, 80.076599%, 67.96875%)" fill-opacity="1" stroke-width="4.17357" stroke-linecap="round" stroke-linejoin="round" stroke="rgb(0%, 0%, 0%)" stroke-opacity="1" stroke-miterlimit="10" d="M 1537.382812 1388.007812 L 1311.875 1143.789062 L 1431.679688 617.890625 " transform="matrix(0.1, 0, 0, -0.1, 0, 149)"/>
<path fill-rule="nonzero" fill="rgb(63.28125%, 77.539062%, 94.921875%)" fill-opacity="1" stroke-width="4.17357" stroke-linecap="round" stroke-linejoin="round" stroke="rgb(0%, 0%, 0%)" stroke-opacity="1" stroke-miterlimit="10" d="M 778.4375 1197.382812 L 1311.875 1143.789062 L 1537.382812 1388.007812 " transform="matrix(0.1, 0, 0, -0.1, 0, 149)"/>
<path fill-rule="nonzero" fill="rgb(66.601562%, 51.171875%, 66.601562%)" fill-opacity="1" stroke-width="4.17357" stroke-linecap="round" stroke-linejoin="round" stroke="rgb(0%, 0%, 0%)" stroke-opacity="1" stroke-miterlimit="10" d="M 979.179688 366.5625 L 585.859375 716.640625 L 778.4375 1197.382812 " transform="matrix(0.1, 0, 0, -0.1, 0, 149)"/>
<path fill-rule="nonzero" fill="rgb(66.601562%, 51.171875%, 66.601562%)" fill-opacity="1" d="M 143.167969 87.210938 L 97.917969 112.34375 L 77.84375 29.261719 "/>
<path fill="none" stroke-width="4.17357" stroke-linecap="round" stroke-linejoin="round" stroke="rgb(0%, 0%, 0%)" stroke-opacity="1" stroke-miterlimit="10" d="M 1431.679688 617.890625 L 979.179688 366.5625 " transform="matrix(0.1, 0, 0, -0.1, 0, 149)"/>
<path fill-rule="nonzero" fill="rgb(66.601562%, 51.171875%, 66.601562%)" fill-opacity="1" stroke-width="4.17357" stroke-linecap="round" stroke-linejoin="round" stroke="rgb(0%, 0%, 0%)" stroke-opacity="1" stroke-miterlimit="10" d="M 778.4375 1197.382812 L 1311.875 1143.789062 L 1431.679688 617.890625 " transform="matrix(0.1, 0, 0, -0.1, 0, 149)"/>
</svg>
