<?xml version="1.0" encoding="UTF-8"?>
<svg xmlns="http://www.w3.org/2000/svg" xmlns:xlink="http://www.w3.org/1999/xlink" width="203" height="200" viewBox="0 0 203 200">
<path fill-rule="nonzero" fill="rgb(69.921875%, 58.984375%, 73.046875%)" fill-opacity="1" stroke-width="5.86692" stroke-linecap="round" stroke-linejoin="round" stroke="rgb(0%, 0%, 0%)" stroke-opacity="1" stroke-miterlimit="10" d="M 1013.867188 433.007812 L 614.414062 771.796875 L 815.703125 1251.523438 " transform="matrix(0.1, 0, 0, -0.1, 0, 200)"/>
<path fill-rule="nonzero" fill="rgb(69.921875%, 58.984375%, 73.046875%)" fill-opacity="1" d="M 146.332031 128.851562 L 101.386719 156.699219 L 81.570312 74.847656 "/>
<path fill="none" stroke-width="5.86692" stroke-linecap="round" stroke-linejoin="round" stroke="rgb(0%, 0%, 0%)" stroke-opacity="1" stroke-miterlimit="10" d="M 1463.320312 711.484375 L 1013.867188 433.007812 " transform="matrix(0.1, 0, 0, -0.1, 0, 200)"/>
<path fill-rule="nonzero" fill="rgb(69.921875%, 58.984375%, 73.046875%)" fill-opacity="1" stroke-width="5.86692" stroke-linecap="round" stroke-linejoin="round" stroke="rgb(0%, 0%, 0%)" stroke-opacity="1" stroke-miterlimit="10" d="M 815.703125 1251.523438 L 1335.78125 1216.523438 L 1463.320312 711.484375 " transform="matrix(0.1, 0, 0, -0.1, 0, 200)"/>
<path fill-rule="nonzero" fill="rgb(79.881287%, 63.476562%, 67.96875%)" fill-opacity="1" d="M 34.960938 80.839844 L 81.570312 74.847656 L 61.441406 122.820312 "/>
<path fill="none" stroke-width="5.86692" stroke-linecap="round" stroke-linejoin="round" stroke="rgb(0%, 0%, 0%)" stroke-opacity="1" stroke-miterlimit="10" d="M 349.609375 1191.601562 L 815.703125 1251.523438 L 614.414062 771.796875 Z M 349.609375 1191.601562 " transform="matrix(0.1, 0, 0, -0.1, 0, 200)"/>
<path fill-rule="nonzero" fill="rgb(68.554688%, 48.802185%, 61.326599%)" fill-opacity="1" d="M 109.195312 35.304688 L 133.578125 78.347656 L 81.570312 74.847656 "/>
<path fill="none" stroke-width="5.86692" stroke-linecap="round" stroke-linejoin="round" stroke="rgb(0%, 0%, 0%)" stroke-opacity="1" stroke-miterlimit="10" d="M 1091.953125 1646.953125 L 1335.78125 1216.523438 L 815.703125 1251.523438 Z M 1091.953125 1646.953125 " transform="matrix(0.1, 0, 0, -0.1, 0, 200)"/>
<path fill-rule="nonzero" fill="rgb(78.90625%, 50.193787%, 50%)" fill-opacity="1" stroke-width="5.86692" stroke-linecap="round" stroke-linejoin="round" stroke="rgb(0%, 0%, 0%)" stroke-opacity="1" stroke-miterlimit="10" d="M 815.703125 1251.523438 L 349.609375 1191.601562 L 311.71875 1568.710938 " transform="matrix(0.1, 0, 0, -0.1, 0, 200)"/>
<path fill-rule="nonzero" fill="rgb(78.90625%, 50.193787%, 50%)" fill-opacity="1" d="M 109.195312 35.304688 L 81.570312 74.847656 L 31.171875 43.128906 "/>
<path fill="none" stroke-width="5.86692" stroke-linecap="round" stroke-linejoin="round" stroke="rgb(0%, 0%, 0%)" stroke-opacity="1" stroke-miterlimit="10" d="M 1091.953125 1646.953125 L 815.703125 1251.523438 " transform="matrix(0.1, 0, 0, -0.1, 0, 200)"/>
<path fill-rule="nonzero" fill="rgb(57.03125%, 46.09375%, 68.943787%)" fill-opacity="1" d="M 176.445312 90.464844 L 146.332031 128.851562 L 133.578125 78.347656 "/>
<path fill="none" stroke-width="5.86692" stroke-linecap="round" stroke-linejoin="round" stroke="rgb(0%, 0%, 0%)" stroke-opacity="1" stroke-miterlimit="10" d="M 1764.453125 1095.351562 L 1463.320312 711.484375 L 1335.78125 1216.523438 Z M 1764.453125 1095.351562 " transform="matrix(0.1, 0, 0, -0.1, 0, 200)"/>
<path fill-rule="nonzero" fill="rgb(50%, 26.904297%, 49.609375%)" fill-opacity="1" stroke-width="5.86692" stroke-linecap="round" stroke-linejoin="round" stroke="rgb(0%, 0%, 0%)" stroke-opacity="1" stroke-miterlimit="10" d="M 1335.78125 1216.523438 L 1091.953125 1646.953125 L 1365.507812 1829.960938 " transform="matrix(0.1, 0, 0, -0.1, 0, 200)"/>
<path fill-rule="nonzero" fill="rgb(50%, 26.904297%, 49.609375%)" fill-opacity="1" d="M 176.445312 90.464844 L 133.578125 78.347656 L 136.550781 17.003906 "/>
<path fill="none" stroke-width="5.86692" stroke-linecap="round" stroke-linejoin="round" stroke="rgb(0%, 0%, 0%)" stroke-opacity="1" stroke-miterlimit="10" d="M 1764.453125 1095.351562 L 1335.78125 1216.523438 " transform="matrix(0.1, 0, 0, -0.1, 0, 200)"/>
<path fill-rule="nonzero" fill="rgb(76.756287%, 72.459412%, 81.25%)" fill-opacity="1" d="M 61.441406 122.820312 L 101.386719 156.699219 L 54.695312 165.773438 "/>
<path fill="none" stroke-width="5.86692" stroke-linecap="round" stroke-linejoin="round" stroke="rgb(0%, 0%, 0%)" stroke-opacity="1" stroke-miterlimit="10" d="M 614.414062 771.796875 L 1013.867188 433.007812 L 546.953125 342.265625 Z M 614.414062 771.796875 " transform="matrix(0.1, 0, 0, -0.1, 0, 200)"/>
<path fill-rule="nonzero" fill="rgb(90.818787%, 81.054688%, 73.826599%)" fill-opacity="1" stroke-width="5.86692" stroke-linecap="round" stroke-linejoin="round" stroke="rgb(0%, 0%, 0%)" stroke-opacity="1" stroke-miterlimit="10" d="M 349.609375 1191.601562 L 614.414062 771.796875 L 546.953125 342.265625 " transform="matrix(0.1, 0, 0, -0.1, 0, 200)"/>
<path fill-rule="nonzero" fill="rgb(61.131287%, 61.131287%, 82.421875%)" fill-opacity="1" d="M 143.425781 172.367188 L 101.386719 156.699219 L 146.332031 128.851562 "/>
<path fill="none" stroke-width="5.86692" stroke-linecap="round" stroke-linejoin="round" stroke="rgb(0%, 0%, 0%)" stroke-opacity="1" stroke-miterlimit="10" d="M 1434.257812 276.328125 L 1013.867188 433.007812 L 1463.320312 711.484375 Z M 1434.257812 276.328125 " transform="matrix(0.1, 0, 0, -0.1, 0, 200)"/>
<path fill-rule="nonzero" fill="rgb(33.006287%, 38.305664%, 76.5625%)" fill-opacity="1" d="M 146.332031 128.851562 L 176.445312 90.464844 L 173.824219 162.410156 "/>
<path fill="none" stroke-width="5.86692" stroke-linecap="round" stroke-linejoin="round" stroke="rgb(0%, 0%, 0%)" stroke-opacity="1" stroke-miterlimit="10" d="M 1463.320312 711.484375 L 1764.453125 1095.351562 " transform="matrix(0.1, 0, 0, -0.1, 0, 200)"/>
<path fill-rule="nonzero" fill="rgb(33.006287%, 38.305664%, 76.5625%)" fill-opacity="1" stroke-width="5.86692" stroke-linecap="round" stroke-linejoin="round" stroke="rgb(0%, 0%, 0%)" stroke-opacity="1" stroke-miterlimit="10" d="M 1738.242188 375.898438 L 1434.257812 276.328125 L 1463.320312 711.484375 " transform="matrix(0.1, 0, 0, -0.1, 0, 200)"/>
<path fill-rule="nonzero" fill="rgb(63.084412%, 80.271912%, 96.484375%)" fill-opacity="1" stroke-width="5.86692" stroke-linecap="round" stroke-linejoin="round" stroke="rgb(0%, 0%, 0%)" stroke-opacity="1" stroke-miterlimit="10" d="M 546.953125 342.265625 L 1013.867188 433.007812 L 1434.257812 276.328125 " transform="matrix(0.1, 0, 0, -0.1, 0, 200)"/>
<path fill-rule="nonzero" fill="rgb(78.90625%, 50.193787%, 50%)" fill-opacity="1" stroke-width="5.86692" stroke-linecap="round" stroke-linejoin="round" stroke="rgb(0%, 0%, 0%)" stroke-opacity="1" stroke-miterlimit="10" d="M 311.71875 1568.710938 L 797.460938 1865.585938 L 1091.953125 1646.953125 " transform="matrix(0.1, 0, 0, -0.1, 0, 200)"/>
<path fill-rule="nonzero" fill="rgb(58.789062%, 19.993591%, 27.488708%)" fill-opacity="1" d="M 136.550781 17.003906 L 109.195312 35.304688 L 79.746094 13.441406 "/>
<path fill="none" stroke-width="5.86692" stroke-linecap="round" stroke-linejoin="round" stroke="rgb(0%, 0%, 0%)" stroke-opacity="1" stroke-miterlimit="10" d="M 1365.507812 1829.960938 L 1091.953125 1646.953125 L 797.460938 1865.585938 Z M 1365.507812 1829.960938 " transform="matrix(0.1, 0, 0, -0.1, 0, 200)"/>
<path fill-rule="nonzero" fill="rgb(90.818787%, 81.054688%, 73.826599%)" fill-opacity="1" stroke-width="5.86692" stroke-linecap="round" stroke-linejoin="round" stroke="rgb(0%, 0%, 0%)" stroke-opacity="1" stroke-miterlimit="10" d="M 213.203125 487.851562 L 86.914062 1045.820312 L 349.609375 1191.601562 " transform="matrix(0.1, 0, 0, -0.1, 0, 200)"/>
<path fill-rule="nonzero" fill="rgb(90.818787%, 81.054688%, 73.826599%)" fill-opacity="1" d="M 54.695312 165.773438 L 21.320312 151.214844 L 34.960938 80.839844 "/>
<path fill="none" stroke-width="5.86692" stroke-linecap="round" stroke-linejoin="round" stroke="rgb(0%, 0%, 0%)" stroke-opacity="1" stroke-miterlimit="10" d="M 546.953125 342.265625 L 213.203125 487.851562 " transform="matrix(0.1, 0, 0, -0.1, 0, 200)"/>
<path fill-rule="nonzero" fill="rgb(94.921875%, 66.796875%, 46.897888%)" fill-opacity="1" d="M 31.171875 43.128906 L 34.960938 80.839844 L 8.691406 95.417969 "/>
<path fill="none" stroke-width="5.86692" stroke-linecap="round" stroke-linejoin="round" stroke="rgb(0%, 0%, 0%)" stroke-opacity="1" stroke-miterlimit="10" d="M 311.71875 1568.710938 L 349.609375 1191.601562 L 86.914062 1045.820312 Z M 311.71875 1568.710938 " transform="matrix(0.1, 0, 0, -0.1, 0, 200)"/>
<path fill-rule="nonzero" fill="rgb(33.006287%, 38.305664%, 76.5625%)" fill-opacity="1" stroke-width="5.86692" stroke-linecap="round" stroke-linejoin="round" stroke="rgb(0%, 0%, 0%)" stroke-opacity="1" stroke-miterlimit="10" d="M 1764.453125 1095.351562 L 1953.867188 916.523438 L 1738.242188 375.898438 " transform="matrix(0.1, 0, 0, -0.1, 0, 200)"/>
<path fill-rule="nonzero" fill="rgb(7.591248%, 0%, 43.309021%)" fill-opacity="1" d="M 180.773438 52.882812 L 195.386719 108.347656 L 176.445312 90.464844 "/>
<path fill="none" stroke-width="5.86692" stroke-linecap="round" stroke-linejoin="round" stroke="rgb(0%, 0%, 0%)" stroke-opacity="1" stroke-miterlimit="10" d="M 1807.734375 1471.171875 L 1953.867188 916.523438 L 1764.453125 1095.351562 Z M 1807.734375 1471.171875 " transform="matrix(0.1, 0, 0, -0.1, 0, 200)"/>
<path fill-rule="nonzero" fill="rgb(50%, 26.904297%, 49.609375%)" fill-opacity="1" stroke-width="5.86692" stroke-linecap="round" stroke-linejoin="round" stroke="rgb(0%, 0%, 0%)" stroke-opacity="1" stroke-miterlimit="10" d="M 1365.507812 1829.960938 L 1807.734375 1471.171875 L 1764.453125 1095.351562 " transform="matrix(0.1, 0, 0, -0.1, 0, 200)"/>
<path fill-rule="nonzero" fill="rgb(63.084412%, 80.271912%, 96.484375%)" fill-opacity="1" d="M 65.230469 189.066406 L 54.695312 165.773438 L 143.425781 172.367188 "/>
<path fill="none" stroke-width="5.86692" stroke-linecap="round" stroke-linejoin="round" stroke="rgb(0%, 0%, 0%)" stroke-opacity="1" stroke-miterlimit="10" d="M 652.304688 109.335938 L 546.953125 342.265625 " transform="matrix(0.1, 0, 0, -0.1, 0, 200)"/>
<path fill-rule="nonzero" fill="rgb(80.076599%, 99.021912%, 87.889099%)" fill-opacity="1" d="M 21.320312 151.214844 L 54.695312 165.773438 L 65.230469 189.066406 "/>
<path fill="none" stroke-width="5.86692" stroke-linecap="round" stroke-linejoin="round" stroke="rgb(0%, 0%, 0%)" stroke-opacity="1" stroke-miterlimit="10" d="M 213.203125 487.851562 L 546.953125 342.265625 L 652.304688 109.335938 Z M 213.203125 487.851562 " transform="matrix(0.1, 0, 0, -0.1, 0, 200)"/>
<path fill-rule="nonzero" fill="rgb(63.084412%, 80.271912%, 96.484375%)" fill-opacity="1" stroke-width="5.86692" stroke-linecap="round" stroke-linejoin="round" stroke="rgb(0%, 0%, 0%)" stroke-opacity="1" stroke-miterlimit="10" d="M 1434.257812 276.328125 L 1238.320312 64.804688 L 652.304688 109.335938 " transform="matrix(0.1, 0, 0, -0.1, 0, 200)"/>
<path fill-rule="nonzero" fill="rgb(5.200195%, 46.289062%, 88.28125%)" fill-opacity="1" d="M 173.824219 162.410156 L 123.832031 193.519531 L 143.425781 172.367188 "/>
<path fill="none" stroke-width="5.86692" stroke-linecap="round" stroke-linejoin="round" stroke="rgb(0%, 0%, 0%)" stroke-opacity="1" stroke-miterlimit="10" d="M 1738.242188 375.898438 L 1238.320312 64.804688 L 1434.257812 276.328125 Z M 1738.242188 375.898438 " transform="matrix(0.1, 0, 0, -0.1, 0, 200)"/>
<path fill-rule="nonzero" fill="rgb(54.6875%, 0%, 0%)" fill-opacity="1" d="M 55.082031 24.160156 L 79.746094 13.441406 L 31.171875 43.128906 "/>
<path fill="none" stroke-width="5.86692" stroke-linecap="round" stroke-linejoin="round" stroke="rgb(0%, 0%, 0%)" stroke-opacity="1" stroke-miterlimit="10" d="M 550.820312 1758.398438 L 797.460938 1865.585938 L 311.71875 1568.710938 Z M 550.820312 1758.398438 " transform="matrix(0.1, 0, 0, -0.1, 0, 200)"/>
<path fill-rule="nonzero" fill="rgb(49.510193%, 83.59375%, 99.609375%)" fill-opacity="1" stroke-width="5.86692" stroke-linecap="round" stroke-linejoin="round" stroke="rgb(0%, 0%, 0%)" stroke-opacity="1" stroke-miterlimit="10" d="M 797.460938 1865.585938 L 550.820312 1758.398438 L 1013.867188 1643.632812 " transform="matrix(0.1, 0, 0, -0.1, 0, 200)"/>
<path fill-rule="nonzero" fill="rgb(49.510193%, 83.59375%, 99.609375%)" fill-opacity="1" d="M 136.550781 17.003906 L 79.746094 13.441406 L 101.386719 35.636719 "/>
<path fill="none" stroke-width="5.86692" stroke-linecap="round" stroke-linejoin="round" stroke="rgb(0%, 0%, 0%)" stroke-opacity="1" stroke-miterlimit="10" d="M 1365.507812 1829.960938 L 797.460938 1865.585938 " transform="matrix(0.1, 0, 0, -0.1, 0, 200)"/>
<path fill-rule="nonzero" fill="rgb(7.006836%, 22.509766%, 71.875%)" fill-opacity="1" stroke-width="5.86692" stroke-linecap="round" stroke-linejoin="round" stroke="rgb(0%, 0%, 0%)" stroke-opacity="1" stroke-miterlimit="10" d="M 550.820312 1758.398438 L 311.71875 1568.710938 L 86.914062 1045.820312 " transform="matrix(0.1, 0, 0, -0.1, 0, 200)"/>
<path fill-rule="nonzero" fill="rgb(0%, 0%, 0%)" fill-opacity="1" d="M 153.539062 30.425781 L 180.773438 52.882812 L 136.550781 17.003906 "/>
<path fill="none" stroke-width="5.86692" stroke-linecap="round" stroke-linejoin="round" stroke="rgb(0%, 0%, 0%)" stroke-opacity="1" stroke-miterlimit="10" d="M 1535.390625 1695.742188 L 1807.734375 1471.171875 L 1365.507812 1829.960938 Z M 1535.390625 1695.742188 " transform="matrix(0.1, 0, 0, -0.1, 0, 200)"/>
<path fill-rule="nonzero" fill="rgb(49.510193%, 83.59375%, 99.609375%)" fill-opacity="1" stroke-width="5.86692" stroke-linecap="round" stroke-linejoin="round" stroke="rgb(0%, 0%, 0%)" stroke-opacity="1" stroke-miterlimit="10" d="M 1013.867188 1643.632812 L 1535.390625 1695.742188 L 1365.507812 1829.960938 " transform="matrix(0.1, 0, 0, -0.1, 0, 200)"/>
<path fill-rule="nonzero" fill="rgb(0%, 0%, 1.800537%)" fill-opacity="1" d="M 16.378906 114.71875 L 8.691406 95.417969 L 21.320312 151.214844 "/>
<path fill="none" stroke-width="5.86692" stroke-linecap="round" stroke-linejoin="round" stroke="rgb(0%, 0%, 0%)" stroke-opacity="1" stroke-miterlimit="10" d="M 163.789062 852.8125 L 86.914062 1045.820312 L 213.203125 487.851562 Z M 163.789062 852.8125 " transform="matrix(0.1, 0, 0, -0.1, 0, 200)"/>
<path fill-rule="nonzero" fill="rgb(7.006836%, 22.509766%, 71.875%)" fill-opacity="1" d="M 8.691406 95.417969 L 16.378906 114.71875 L 55.082031 24.160156 "/>
<path fill="none" stroke-width="5.86692" stroke-linecap="round" stroke-linejoin="round" stroke="rgb(0%, 0%, 0%)" stroke-opacity="1" stroke-miterlimit="10" d="M 86.914062 1045.820312 L 163.789062 852.8125 " transform="matrix(0.1, 0, 0, -0.1, 0, 200)"/>
<path fill-rule="nonzero" fill="rgb(96.09375%, 88.28125%, 71.289062%)" fill-opacity="1" stroke-width="5.86692" stroke-linecap="round" stroke-linejoin="round" stroke="rgb(0%, 0%, 0%)" stroke-opacity="1" stroke-miterlimit="10" d="M 1807.734375 1471.171875 L 1535.390625 1695.742188 L 1505.351562 1239.765625 " transform="matrix(0.1, 0, 0, -0.1, 0, 200)"/>
<path fill-rule="nonzero" fill="rgb(96.09375%, 88.28125%, 71.289062%)" fill-opacity="1" d="M 195.386719 108.347656 L 180.773438 52.882812 L 150.535156 76.023438 "/>
<path fill="none" stroke-width="5.86692" stroke-linecap="round" stroke-linejoin="round" stroke="rgb(0%, 0%, 0%)" stroke-opacity="1" stroke-miterlimit="10" d="M 1953.867188 916.523438 L 1807.734375 1471.171875 " transform="matrix(0.1, 0, 0, -0.1, 0, 200)"/>
<path fill-rule="nonzero" fill="rgb(38.792419%, 12.109375%, 38.305664%)" fill-opacity="1" d="M 21.320312 151.214844 L 65.230469 189.066406 L 61.433594 130.988281 "/>
<path fill="none" stroke-width="5.86692" stroke-linecap="round" stroke-linejoin="round" stroke="rgb(0%, 0%, 0%)" stroke-opacity="1" stroke-miterlimit="10" d="M 213.203125 487.851562 L 652.304688 109.335938 " transform="matrix(0.1, 0, 0, -0.1, 0, 200)"/>
<path fill-rule="nonzero" fill="rgb(38.792419%, 12.109375%, 38.305664%)" fill-opacity="1" stroke-width="5.86692" stroke-linecap="round" stroke-linejoin="round" stroke="rgb(0%, 0%, 0%)" stroke-opacity="1" stroke-miterlimit="10" d="M 614.335938 690.117188 L 163.789062 852.8125 L 213.203125 487.851562 " transform="matrix(0.1, 0, 0, -0.1, 0, 200)"/>
<path fill-rule="nonzero" fill="rgb(94.53125%, 60.351562%, 19.189453%)" fill-opacity="1" d="M 178.351562 126.167969 L 173.824219 162.410156 L 195.386719 108.347656 "/>
<path fill="none" stroke-width="5.86692" stroke-linecap="round" stroke-linejoin="round" stroke="rgb(0%, 0%, 0%)" stroke-opacity="1" stroke-miterlimit="10" d="M 1783.515625 738.320312 L 1738.242188 375.898438 L 1953.867188 916.523438 Z M 1783.515625 738.320312 " transform="matrix(0.1, 0, 0, -0.1, 0, 200)"/>
<path fill-rule="nonzero" fill="rgb(96.09375%, 88.28125%, 71.289062%)" fill-opacity="1" stroke-width="5.86692" stroke-linecap="round" stroke-linejoin="round" stroke="rgb(0%, 0%, 0%)" stroke-opacity="1" stroke-miterlimit="10" d="M 1505.351562 1239.765625 L 1783.515625 738.320312 L 1953.867188 916.523438 " transform="matrix(0.1, 0, 0, -0.1, 0, 200)"/>
<path fill-rule="nonzero" fill="rgb(41.209412%, 0%, 0%)" fill-opacity="1" d="M 92.257812 179.589844 L 65.230469 189.066406 L 123.832031 193.519531 "/>
<path fill="none" stroke-width="5.86692" stroke-linecap="round" stroke-linejoin="round" stroke="rgb(0%, 0%, 0%)" stroke-opacity="1" stroke-miterlimit="10" d="M 922.578125 204.101562 L 652.304688 109.335938 L 1238.320312 64.804688 Z M 922.578125 204.101562 " transform="matrix(0.1, 0, 0, -0.1, 0, 200)"/>
<path fill-rule="nonzero" fill="rgb(38.792419%, 12.109375%, 38.305664%)" fill-opacity="1" stroke-width="5.86692" stroke-linecap="round" stroke-linejoin="round" stroke="rgb(0%, 0%, 0%)" stroke-opacity="1" stroke-miterlimit="10" d="M 652.304688 109.335938 L 922.578125 204.101562 L 614.335938 690.117188 " transform="matrix(0.1, 0, 0, -0.1, 0, 200)"/>
<path fill-rule="nonzero" fill="rgb(80.271912%, 45.800781%, 40.306091%)" fill-opacity="1" stroke-width="5.86692" stroke-linecap="round" stroke-linejoin="round" stroke="rgb(0%, 0%, 0%)" stroke-opacity="1" stroke-miterlimit="10" d="M 1238.320312 64.804688 L 1738.242188 375.898438 L 1783.515625 738.320312 " transform="matrix(0.1, 0, 0, -0.1, 0, 200)"/>
<path fill-rule="nonzero" fill="rgb(80.271912%, 45.800781%, 40.306091%)" fill-opacity="1" d="M 92.257812 179.589844 L 123.832031 193.519531 L 178.351562 126.167969 "/>
<path fill="none" stroke-width="5.86692" stroke-linecap="round" stroke-linejoin="round" stroke="rgb(0%, 0%, 0%)" stroke-opacity="1" stroke-miterlimit="10" d="M 922.578125 204.101562 L 1238.320312 64.804688 " transform="matrix(0.1, 0, 0, -0.1, 0, 200)"/>
<path fill-rule="nonzero" fill="rgb(7.006836%, 22.509766%, 71.875%)" fill-opacity="1" stroke-width="5.86692" stroke-linecap="round" stroke-linejoin="round" stroke="rgb(0%, 0%, 0%)" stroke-opacity="1" stroke-miterlimit="10" d="M 163.789062 852.8125 L 468.632812 1309.335938 L 550.820312 1758.398438 " transform="matrix(0.1, 0, 0, -0.1, 0, 200)"/>
<path fill-rule="nonzero" fill="rgb(56.834412%, 61.521912%, 85.9375%)" fill-opacity="1" d="M 101.386719 35.636719 L 55.082031 24.160156 L 46.863281 69.066406 "/>
<path fill="none" stroke-width="5.86692" stroke-linecap="round" stroke-linejoin="round" stroke="rgb(0%, 0%, 0%)" stroke-opacity="1" stroke-miterlimit="10" d="M 1013.867188 1643.632812 L 550.820312 1758.398438 L 468.632812 1309.335938 Z M 1013.867188 1643.632812 " transform="matrix(0.1, 0, 0, -0.1, 0, 200)"/>
<path fill-rule="nonzero" fill="rgb(78.125%, 76.756287%, 84.179688%)" fill-opacity="1" d="M 101.386719 35.636719 L 150.535156 76.023438 L 153.539062 30.425781 "/>
<path fill="none" stroke-width="5.86692" stroke-linecap="round" stroke-linejoin="round" stroke="rgb(0%, 0%, 0%)" stroke-opacity="1" stroke-miterlimit="10" d="M 1013.867188 1643.632812 L 1505.351562 1239.765625 L 1535.390625 1695.742188 Z M 1013.867188 1643.632812 " transform="matrix(0.1, 0, 0, -0.1, 0, 200)"/>
<path fill-rule="nonzero" fill="rgb(52.146912%, 41.893005%, 67.96875%)" fill-opacity="1" d="M 46.863281 69.066406 L 16.378906 114.71875 L 61.433594 130.988281 "/>
<path fill="none" stroke-width="5.86692" stroke-linecap="round" stroke-linejoin="round" stroke="rgb(0%, 0%, 0%)" stroke-opacity="1" stroke-miterlimit="10" d="M 468.632812 1309.335938 L 163.789062 852.8125 L 614.335938 690.117188 Z M 468.632812 1309.335938 " transform="matrix(0.1, 0, 0, -0.1, 0, 200)"/>
<path fill-rule="nonzero" fill="rgb(80.271912%, 45.800781%, 40.306091%)" fill-opacity="1" stroke-width="5.86692" stroke-linecap="round" stroke-linejoin="round" stroke="rgb(0%, 0%, 0%)" stroke-opacity="1" stroke-miterlimit="10" d="M 1783.515625 738.320312 L 1261.992188 643.671875 L 922.578125 204.101562 " transform="matrix(0.1, 0, 0, -0.1, 0, 200)"/>
<path fill-rule="nonzero" fill="rgb(82.226562%, 64.84375%, 66.796875%)" fill-opacity="1" d="M 150.535156 76.023438 L 126.199219 135.632812 L 178.351562 126.167969 "/>
<path fill="none" stroke-width="5.86692" stroke-linecap="round" stroke-linejoin="round" stroke="rgb(0%, 0%, 0%)" stroke-opacity="1" stroke-miterlimit="10" d="M 1505.351562 1239.765625 L 1261.992188 643.671875 L 1783.515625 738.320312 Z M 1505.351562 1239.765625 " transform="matrix(0.1, 0, 0, -0.1, 0, 200)"/>
<path fill-rule="nonzero" fill="rgb(67.771912%, 45.896912%, 58.201599%)" fill-opacity="1" d="M 126.199219 135.632812 L 61.433594 130.988281 L 92.257812 179.589844 "/>
<path fill="none" stroke-width="5.86692" stroke-linecap="round" stroke-linejoin="round" stroke="rgb(0%, 0%, 0%)" stroke-opacity="1" stroke-miterlimit="10" d="M 1261.992188 643.671875 L 614.335938 690.117188 L 922.578125 204.101562 Z M 1261.992188 643.671875 " transform="matrix(0.1, 0, 0, -0.1, 0, 200)"/>
<path fill-rule="nonzero" fill="rgb(69.726562%, 59.375%, 73.631287%)" fill-opacity="1" stroke-width="5.86692" stroke-linecap="round" stroke-linejoin="round" stroke="rgb(0%, 0%, 0%)" stroke-opacity="1" stroke-miterlimit="10" d="M 1261.992188 643.671875 L 1505.351562 1239.765625 L 1013.867188 1643.632812 " transform="matrix(0.1, 0, 0, -0.1, 0, 200)"/>
<path fill-rule="nonzero" fill="rgb(69.726562%, 59.375%, 73.631287%)" fill-opacity="1" d="M 61.433594 130.988281 L 126.199219 135.632812 L 101.386719 35.636719 "/>
<path fill="none" stroke-width="5.86692" stroke-linecap="round" stroke-linejoin="round" stroke="rgb(0%, 0%, 0%)" stroke-opacity="1" stroke-miterlimit="10" d="M 614.335938 690.117188 L 1261.992188 643.671875 " transform="matrix(0.1, 0, 0, -0.1, 0, 200)"/>
<path fill-rule="nonzero" fill="rgb(69.726562%, 59.375%, 73.631287%)" fill-opacity="1" stroke-width="5.86692" stroke-linecap="round" stroke-linejoin="round" stroke="rgb(0%, 0%, 0%)" stroke-opacity="1" stroke-miterlimit="10" d="M 1013.867188 1643.632812 L 468.632812 1309.335938 L 614.335938 690.117188 " transform="matrix(0.1, 0, 0, -0.1, 0, 200)"/>
</svg>
