<?xml version="1.0" encoding="UTF-8"?>
<svg xmlns="http://www.w3.org/2000/svg" xmlns:xlink="http://www.w3.org/1999/xlink" width="198" height="205" viewBox="0 0 198 205">
<path fill-rule="nonzero" fill="rgb(67.576599%, 52.539062%, 67.576599%)" fill-opacity="1" d="M 68.328125 107.46875 L 63.359375 86.796875 L 115.234375 132.84375 "/>
<path fill="none" stroke-width="6.12" stroke-linecap="round" stroke-linejoin="round" stroke="rgb(0%, 0%, 0%)" stroke-opacity="1" stroke-miterlimit="10" d="M 683.28125 975.3125 L 633.59375 1182.03125 " transform="matrix(0.1, 0, 0, -0.1, 0, 205)"/>
<path fill-rule="nonzero" fill="rgb(67.576599%, 52.539062%, 67.576599%)" fill-opacity="1" stroke-width="6.12" stroke-linecap="round" stroke-linejoin="round" stroke="rgb(0%, 0%, 0%)" stroke-opacity="1" stroke-miterlimit="10" d="M 1152.34375 721.5625 L 941.484375 745.976562 L 683.28125 975.3125 " transform="matrix(0.1, 0, 0, -0.1, 0, 205)"/>
<path fill-rule="nonzero" fill="rgb(88.867188%, 74.804688%, 70.3125%)" fill-opacity="1" stroke-width="6.12" stroke-linecap="round" stroke-linejoin="round" stroke="rgb(0%, 0%, 0%)" stroke-opacity="1" stroke-miterlimit="10" d="M 633.59375 1182.03125 L 683.28125 975.3125 L 623.671875 650.703125 " transform="matrix(0.1, 0, 0, -0.1, 0, 205)"/>
<path fill-rule="nonzero" fill="rgb(75.389099%, 66.796875%, 76.5625%)" fill-opacity="1" d="M 68.328125 107.46875 L 94.148438 130.402344 L 62.367188 139.929688 "/>
<path fill="none" stroke-width="6.12" stroke-linecap="round" stroke-linejoin="round" stroke="rgb(0%, 0%, 0%)" stroke-opacity="1" stroke-miterlimit="10" d="M 683.28125 975.3125 L 941.484375 745.976562 L 623.671875 650.703125 Z M 683.28125 975.3125 " transform="matrix(0.1, 0, 0, -0.1, 0, 205)"/>
<path fill-rule="nonzero" fill="rgb(66.992188%, 73.046875%, 89.451599%)" fill-opacity="1" stroke-width="6.12" stroke-linecap="round" stroke-linejoin="round" stroke="rgb(0%, 0%, 0%)" stroke-opacity="1" stroke-miterlimit="10" d="M 941.484375 745.976562 L 623.671875 650.703125 L 509.648438 525.625 " transform="matrix(0.1, 0, 0, -0.1, 0, 205)"/>
<path fill-rule="nonzero" fill="rgb(66.992188%, 73.046875%, 89.451599%)" fill-opacity="1" d="M 115.234375 132.84375 L 94.148438 130.402344 L 50.964844 152.4375 "/>
<path fill="none" stroke-width="6.12" stroke-linecap="round" stroke-linejoin="round" stroke="rgb(0%, 0%, 0%)" stroke-opacity="1" stroke-miterlimit="10" d="M 1152.34375 721.5625 L 941.484375 745.976562 " transform="matrix(0.1, 0, 0, -0.1, 0, 205)"/>
<path fill-rule="nonzero" fill="rgb(67.576599%, 52.539062%, 67.576599%)" fill-opacity="1" d="M 63.359375 86.796875 L 76.34375 55.117188 L 115.234375 132.84375 "/>
<path fill="none" stroke-width="6.12" stroke-linecap="round" stroke-linejoin="round" stroke="rgb(0%, 0%, 0%)" stroke-opacity="1" stroke-miterlimit="10" d="M 633.59375 1182.03125 L 763.4375 1498.828125 " transform="matrix(0.1, 0, 0, -0.1, 0, 205)"/>
<path fill-rule="nonzero" fill="rgb(88.867188%, 74.804688%, 70.3125%)" fill-opacity="1" d="M 43.78125 63.394531 L 63.359375 86.796875 L 62.367188 139.929688 "/>
<path fill="none" stroke-width="6.12" stroke-linecap="round" stroke-linejoin="round" stroke="rgb(0%, 0%, 0%)" stroke-opacity="1" stroke-miterlimit="10" d="M 437.8125 1416.054688 L 633.59375 1182.03125 " transform="matrix(0.1, 0, 0, -0.1, 0, 205)"/>
<path fill-rule="nonzero" fill="rgb(78.709412%, 57.8125%, 61.71875%)" fill-opacity="1" d="M 63.359375 86.796875 L 43.78125 63.394531 L 76.34375 55.117188 "/>
<path fill="none" stroke-width="6.12" stroke-linecap="round" stroke-linejoin="round" stroke="rgb(0%, 0%, 0%)" stroke-opacity="1" stroke-miterlimit="10" d="M 633.59375 1182.03125 L 437.8125 1416.054688 L 763.4375 1498.828125 Z M 633.59375 1182.03125 " transform="matrix(0.1, 0, 0, -0.1, 0, 205)"/>
<path fill-rule="nonzero" fill="rgb(67.576599%, 52.539062%, 67.576599%)" fill-opacity="1" stroke-width="6.12" stroke-linecap="round" stroke-linejoin="round" stroke="rgb(0%, 0%, 0%)" stroke-opacity="1" stroke-miterlimit="10" d="M 1537.109375 1085.46875 L 1450.546875 889.882812 L 1152.34375 721.5625 " transform="matrix(0.1, 0, 0, -0.1, 0, 205)"/>
<path fill-rule="nonzero" fill="rgb(67.576599%, 52.539062%, 67.576599%)" fill-opacity="1" d="M 146.003906 62.050781 L 153.710938 96.453125 L 115.234375 132.84375 "/>
<path fill="none" stroke-width="6.12" stroke-linecap="round" stroke-linejoin="round" stroke="rgb(0%, 0%, 0%)" stroke-opacity="1" stroke-miterlimit="10" d="M 1460.039062 1429.492188 L 1537.109375 1085.46875 " transform="matrix(0.1, 0, 0, -0.1, 0, 205)"/>
<path fill-rule="nonzero" fill="rgb(67.576599%, 52.539062%, 67.576599%)" fill-opacity="1" d="M 129.539062 47.492188 L 146.003906 62.050781 L 115.234375 132.84375 "/>
<path fill="none" stroke-width="6.12" stroke-linecap="round" stroke-linejoin="round" stroke="rgb(0%, 0%, 0%)" stroke-opacity="1" stroke-miterlimit="10" d="M 1295.390625 1575.078125 L 1460.039062 1429.492188 " transform="matrix(0.1, 0, 0, -0.1, 0, 205)"/>
<path fill-rule="nonzero" fill="rgb(67.576599%, 52.539062%, 67.576599%)" fill-opacity="1" d="M 94.585938 44.109375 L 129.539062 47.492188 L 115.234375 132.84375 "/>
<path fill="none" stroke-width="6.12" stroke-linecap="round" stroke-linejoin="round" stroke="rgb(0%, 0%, 0%)" stroke-opacity="1" stroke-miterlimit="10" d="M 945.859375 1608.90625 L 1295.390625 1575.078125 " transform="matrix(0.1, 0, 0, -0.1, 0, 205)"/>
<path fill-rule="nonzero" fill="rgb(67.576599%, 52.539062%, 67.576599%)" fill-opacity="1" d="M 76.34375 55.117188 L 94.585938 44.109375 L 115.234375 132.84375 "/>
<path fill="none" stroke-width="6.12" stroke-linecap="round" stroke-linejoin="round" stroke="rgb(0%, 0%, 0%)" stroke-opacity="1" stroke-miterlimit="10" d="M 763.4375 1498.828125 L 945.859375 1608.90625 " transform="matrix(0.1, 0, 0, -0.1, 0, 205)"/>
<path fill-rule="nonzero" fill="rgb(66.992188%, 73.046875%, 89.451599%)" fill-opacity="1" d="M 140.472656 149.203125 L 115.234375 132.84375 L 50.964844 152.4375 "/>
<path fill="none" stroke-width="6.12" stroke-linecap="round" stroke-linejoin="round" stroke="rgb(0%, 0%, 0%)" stroke-opacity="1" stroke-miterlimit="10" d="M 1404.726562 557.96875 L 1152.34375 721.5625 " transform="matrix(0.1, 0, 0, -0.1, 0, 205)"/>
<path fill-rule="nonzero" fill="rgb(59.959412%, 56.054688%, 78.125%)" fill-opacity="1" d="M 145.054688 116.011719 L 140.472656 149.203125 L 115.234375 132.84375 "/>
<path fill="none" stroke-width="6.12" stroke-linecap="round" stroke-linejoin="round" stroke="rgb(0%, 0%, 0%)" stroke-opacity="1" stroke-miterlimit="10" d="M 1450.546875 889.882812 L 1404.726562 557.96875 L 1152.34375 721.5625 Z M 1450.546875 889.882812 " transform="matrix(0.1, 0, 0, -0.1, 0, 205)"/>
<path fill-rule="nonzero" fill="rgb(76.367188%, 37.400818%, 31.809998%)" fill-opacity="1" d="M 76.34375 55.117188 L 94.585938 44.109375 L 85.914062 3.769531 "/>
<path fill="none" stroke-width="6.12" stroke-linecap="round" stroke-linejoin="round" stroke="rgb(0%, 0%, 0%)" stroke-opacity="1" stroke-miterlimit="10" d="M 763.4375 1498.828125 L 945.859375 1608.90625 " transform="matrix(0.1, 0, 0, -0.1, 0, 205)"/>
<path fill-rule="nonzero" fill="rgb(76.367188%, 37.400818%, 31.809998%)" fill-opacity="1" d="M 43.78125 63.394531 L 76.34375 55.117188 L 85.914062 3.769531 "/>
<path fill="none" stroke-width="6.12" stroke-linecap="round" stroke-linejoin="round" stroke="rgb(0%, 0%, 0%)" stroke-opacity="1" stroke-miterlimit="10" d="M 437.8125 1416.054688 L 763.4375 1498.828125 " transform="matrix(0.1, 0, 0, -0.1, 0, 205)"/>
<path fill-rule="nonzero" fill="rgb(27.806091%, 31.591797%, 72.264099%)" fill-opacity="1" d="M 145.054688 116.011719 L 153.710938 96.453125 L 144.640625 163.84375 "/>
<path fill="none" stroke-width="6.12" stroke-linecap="round" stroke-linejoin="round" stroke="rgb(0%, 0%, 0%)" stroke-opacity="1" stroke-miterlimit="10" d="M 1450.546875 889.882812 L 1537.109375 1085.46875 " transform="matrix(0.1, 0, 0, -0.1, 0, 205)"/>
<path fill-rule="nonzero" fill="rgb(27.806091%, 31.591797%, 72.264099%)" fill-opacity="1" stroke-width="6.12" stroke-linecap="round" stroke-linejoin="round" stroke="rgb(0%, 0%, 0%)" stroke-opacity="1" stroke-miterlimit="10" d="M 1446.40625 411.5625 L 1404.726562 557.96875 L 1450.546875 889.882812 " transform="matrix(0.1, 0, 0, -0.1, 0, 205)"/>
<path fill-rule="nonzero" fill="rgb(88.867188%, 74.804688%, 70.3125%)" fill-opacity="1" d="M 28.441406 60.6875 L 43.78125 63.394531 L 62.367188 139.929688 "/>
<path fill="none" stroke-width="6.12" stroke-linecap="round" stroke-linejoin="round" stroke="rgb(0%, 0%, 0%)" stroke-opacity="1" stroke-miterlimit="10" d="M 284.414062 1443.125 L 437.8125 1416.054688 " transform="matrix(0.1, 0, 0, -0.1, 0, 205)"/>
<path fill-rule="nonzero" fill="rgb(88.867188%, 74.804688%, 70.3125%)" fill-opacity="1" d="M 7.574219 78.917969 L 28.441406 60.6875 L 62.367188 139.929688 "/>
<path fill="none" stroke-width="6.12" stroke-linecap="round" stroke-linejoin="round" stroke="rgb(0%, 0%, 0%)" stroke-opacity="1" stroke-miterlimit="10" d="M 75.742188 1260.820312 L 284.414062 1443.125 " transform="matrix(0.1, 0, 0, -0.1, 0, 205)"/>
<path fill-rule="nonzero" fill="rgb(88.867188%, 74.804688%, 70.3125%)" fill-opacity="1" d="M 2.75 100.550781 L 7.574219 78.917969 L 62.367188 139.929688 "/>
<path fill="none" stroke-width="6.12" stroke-linecap="round" stroke-linejoin="round" stroke="rgb(0%, 0%, 0%)" stroke-opacity="1" stroke-miterlimit="10" d="M 27.5 1044.492188 L 75.742188 1260.820312 " transform="matrix(0.1, 0, 0, -0.1, 0, 205)"/>
<path fill-rule="nonzero" fill="rgb(88.867188%, 74.804688%, 70.3125%)" fill-opacity="1" d="M 12.082031 137.570312 L 2.75 100.550781 L 62.367188 139.929688 "/>
<path fill="none" stroke-width="6.12" stroke-linecap="round" stroke-linejoin="round" stroke="rgb(0%, 0%, 0%)" stroke-opacity="1" stroke-miterlimit="10" d="M 120.820312 674.296875 L 27.5 1044.492188 " transform="matrix(0.1, 0, 0, -0.1, 0, 205)"/>
<path fill-rule="nonzero" fill="rgb(88.867188%, 74.804688%, 70.3125%)" fill-opacity="1" d="M 25.808594 151.824219 L 12.082031 137.570312 L 62.367188 139.929688 "/>
<path fill="none" stroke-width="6.12" stroke-linecap="round" stroke-linejoin="round" stroke="rgb(0%, 0%, 0%)" stroke-opacity="1" stroke-miterlimit="10" d="M 258.085938 531.757812 L 120.820312 674.296875 " transform="matrix(0.1, 0, 0, -0.1, 0, 205)"/>
<path fill-rule="nonzero" fill="rgb(88.867188%, 74.804688%, 70.3125%)" fill-opacity="1" stroke-width="6.12" stroke-linecap="round" stroke-linejoin="round" stroke="rgb(0%, 0%, 0%)" stroke-opacity="1" stroke-miterlimit="10" d="M 623.671875 650.703125 L 509.648438 525.625 L 258.085938 531.757812 " transform="matrix(0.1, 0, 0, -0.1, 0, 205)"/>
<path fill-rule="nonzero" fill="rgb(76.367188%, 37.400818%, 31.809998%)" fill-opacity="1" d="M 94.585938 44.109375 L 111.445312 22.269531 L 85.914062 3.769531 "/>
<path fill="none" stroke-width="6.12" stroke-linecap="round" stroke-linejoin="round" stroke="rgb(0%, 0%, 0%)" stroke-opacity="1" stroke-miterlimit="10" d="M 945.859375 1608.90625 L 1114.453125 1827.304688 " transform="matrix(0.1, 0, 0, -0.1, 0, 205)"/>
<path fill-rule="nonzero" fill="rgb(63.867188%, 37.304688%, 50.193787%)" fill-opacity="1" d="M 94.585938 44.109375 L 129.539062 47.492188 L 111.445312 22.269531 "/>
<path fill="none" stroke-width="6.12" stroke-linecap="round" stroke-linejoin="round" stroke="rgb(0%, 0%, 0%)" stroke-opacity="1" stroke-miterlimit="10" d="M 945.859375 1608.90625 L 1295.390625 1575.078125 L 1114.453125 1827.304688 Z M 945.859375 1608.90625 " transform="matrix(0.1, 0, 0, -0.1, 0, 205)"/>
<path fill-rule="nonzero" fill="rgb(27.806091%, 31.591797%, 72.264099%)" fill-opacity="1" d="M 153.710938 96.453125 L 172.867188 76.578125 L 144.640625 163.84375 "/>
<path fill="none" stroke-width="6.12" stroke-linecap="round" stroke-linejoin="round" stroke="rgb(0%, 0%, 0%)" stroke-opacity="1" stroke-miterlimit="10" d="M 1537.109375 1085.46875 L 1728.671875 1284.21875 " transform="matrix(0.1, 0, 0, -0.1, 0, 205)"/>
<path fill-rule="nonzero" fill="rgb(50.193787%, 35.693359%, 61.71875%)" fill-opacity="1" d="M 153.710938 96.453125 L 172.867188 76.578125 L 146.003906 62.050781 "/>
<path fill="none" stroke-width="6.12" stroke-linecap="round" stroke-linejoin="round" stroke="rgb(0%, 0%, 0%)" stroke-opacity="1" stroke-miterlimit="10" d="M 1537.109375 1085.46875 L 1728.671875 1284.21875 L 1460.039062 1429.492188 Z M 1537.109375 1085.46875 " transform="matrix(0.1, 0, 0, -0.1, 0, 205)"/>
<path fill-rule="nonzero" fill="rgb(25%, 0%, 21.508789%)" fill-opacity="1" d="M 129.539062 47.492188 L 146.003906 62.050781 L 143.015625 15.984375 "/>
<path fill="none" stroke-width="6.12" stroke-linecap="round" stroke-linejoin="round" stroke="rgb(0%, 0%, 0%)" stroke-opacity="1" stroke-miterlimit="10" d="M 1295.390625 1575.078125 L 1460.039062 1429.492188 " transform="matrix(0.1, 0, 0, -0.1, 0, 205)"/>
<path fill-rule="nonzero" fill="rgb(25%, 0%, 21.508789%)" fill-opacity="1" d="M 111.445312 22.269531 L 129.539062 47.492188 L 143.015625 15.984375 "/>
<path fill="none" stroke-width="6.12" stroke-linecap="round" stroke-linejoin="round" stroke="rgb(0%, 0%, 0%)" stroke-opacity="1" stroke-miterlimit="10" d="M 1114.453125 1827.304688 L 1295.390625 1575.078125 " transform="matrix(0.1, 0, 0, -0.1, 0, 205)"/>
<path fill-rule="nonzero" fill="rgb(25%, 0%, 21.508789%)" fill-opacity="1" d="M 146.003906 62.050781 L 172.867188 76.578125 L 143.015625 15.984375 "/>
<path fill="none" stroke-width="6.12" stroke-linecap="round" stroke-linejoin="round" stroke="rgb(0%, 0%, 0%)" stroke-opacity="1" stroke-miterlimit="10" d="M 1460.039062 1429.492188 L 1728.671875 1284.21875 " transform="matrix(0.1, 0, 0, -0.1, 0, 205)"/>
<path fill-rule="nonzero" fill="rgb(76.367188%, 37.400818%, 31.809998%)" fill-opacity="1" d="M 28.441406 60.6875 L 43.78125 63.394531 L 85.914062 3.769531 "/>
<path fill="none" stroke-width="6.12" stroke-linecap="round" stroke-linejoin="round" stroke="rgb(0%, 0%, 0%)" stroke-opacity="1" stroke-miterlimit="10" d="M 284.414062 1443.125 L 437.8125 1416.054688 " transform="matrix(0.1, 0, 0, -0.1, 0, 205)"/>
<path fill-rule="nonzero" fill="rgb(66.992188%, 73.046875%, 89.451599%)" fill-opacity="1" d="M 144.640625 163.84375 L 140.472656 149.203125 L 50.964844 152.4375 "/>
<path fill="none" stroke-width="6.12" stroke-linecap="round" stroke-linejoin="round" stroke="rgb(0%, 0%, 0%)" stroke-opacity="1" stroke-miterlimit="10" d="M 1446.40625 411.5625 L 1404.726562 557.96875 " transform="matrix(0.1, 0, 0, -0.1, 0, 205)"/>
<path fill-rule="nonzero" fill="rgb(66.992188%, 73.046875%, 89.451599%)" fill-opacity="1" d="M 128.359375 186.296875 L 144.640625 163.84375 L 50.964844 152.4375 "/>
<path fill="none" stroke-width="6.12" stroke-linecap="round" stroke-linejoin="round" stroke="rgb(0%, 0%, 0%)" stroke-opacity="1" stroke-miterlimit="10" d="M 1283.59375 187.03125 L 1446.40625 411.5625 " transform="matrix(0.1, 0, 0, -0.1, 0, 205)"/>
<path fill-rule="nonzero" fill="rgb(66.992188%, 73.046875%, 89.451599%)" fill-opacity="1" d="M 107.171875 193.464844 L 128.359375 186.296875 L 50.964844 152.4375 "/>
<path fill="none" stroke-width="6.12" stroke-linecap="round" stroke-linejoin="round" stroke="rgb(0%, 0%, 0%)" stroke-opacity="1" stroke-miterlimit="10" d="M 1071.71875 115.351562 L 1283.59375 187.03125 " transform="matrix(0.1, 0, 0, -0.1, 0, 205)"/>
<path fill-rule="nonzero" fill="rgb(66.992188%, 73.046875%, 89.451599%)" fill-opacity="1" d="M 69.339844 188.574219 L 107.171875 193.464844 L 50.964844 152.4375 "/>
<path fill="none" stroke-width="6.12" stroke-linecap="round" stroke-linejoin="round" stroke="rgb(0%, 0%, 0%)" stroke-opacity="1" stroke-miterlimit="10" d="M 693.398438 164.257812 L 1071.71875 115.351562 " transform="matrix(0.1, 0, 0, -0.1, 0, 205)"/>
<path fill-rule="nonzero" fill="rgb(66.992188%, 73.046875%, 89.451599%)" fill-opacity="1" stroke-width="6.12" stroke-linecap="round" stroke-linejoin="round" stroke="rgb(0%, 0%, 0%)" stroke-opacity="1" stroke-miterlimit="10" d="M 509.648438 525.625 L 538.75 281.757812 L 693.398438 164.257812 " transform="matrix(0.1, 0, 0, -0.1, 0, 205)"/>
<path fill-rule="nonzero" fill="rgb(83.984375%, 88.084412%, 86.914062%)" fill-opacity="1" d="M 25.808594 151.824219 L 50.964844 152.4375 L 53.875 176.824219 "/>
<path fill="none" stroke-width="6.12" stroke-linecap="round" stroke-linejoin="round" stroke="rgb(0%, 0%, 0%)" stroke-opacity="1" stroke-miterlimit="10" d="M 258.085938 531.757812 L 509.648438 525.625 L 538.75 281.757812 Z M 258.085938 531.757812 " transform="matrix(0.1, 0, 0, -0.1, 0, 205)"/>
<path fill-rule="nonzero" fill="rgb(76.367188%, 37.400818%, 31.809998%)" fill-opacity="1" d="M 21.183594 43.972656 L 28.441406 60.6875 L 85.914062 3.769531 "/>
<path fill="none" stroke-width="6.12" stroke-linecap="round" stroke-linejoin="round" stroke="rgb(0%, 0%, 0%)" stroke-opacity="1" stroke-miterlimit="10" d="M 211.835938 1610.273438 L 284.414062 1443.125 " transform="matrix(0.1, 0, 0, -0.1, 0, 205)"/>
<path fill-rule="nonzero" fill="rgb(94.334412%, 62.109375%, 39.697266%)" fill-opacity="1" d="M 21.183594 43.972656 L 28.441406 60.6875 L 7.574219 78.917969 "/>
<path fill="none" stroke-width="6.12" stroke-linecap="round" stroke-linejoin="round" stroke="rgb(0%, 0%, 0%)" stroke-opacity="1" stroke-miterlimit="10" d="M 211.835938 1610.273438 L 284.414062 1443.125 L 75.742188 1260.820312 Z M 211.835938 1610.273438 " transform="matrix(0.1, 0, 0, -0.1, 0, 205)"/>
<path fill-rule="nonzero" fill="rgb(76.367188%, 37.400818%, 31.809998%)" fill-opacity="1" stroke-width="6.12" stroke-linecap="round" stroke-linejoin="round" stroke="rgb(0%, 0%, 0%)" stroke-opacity="1" stroke-miterlimit="10" d="M 1114.453125 1827.304688 L 1096.875 1940.898438 L 859.140625 2012.304688 " transform="matrix(0.1, 0, 0, -0.1, 0, 205)"/>
<path fill-rule="nonzero" fill="rgb(25%, 0%, 21.508789%)" fill-opacity="1" d="M 109.6875 10.910156 L 111.445312 22.269531 L 143.015625 15.984375 "/>
<path fill="none" stroke-width="6.12" stroke-linecap="round" stroke-linejoin="round" stroke="rgb(0%, 0%, 0%)" stroke-opacity="1" stroke-miterlimit="10" d="M 1096.875 1940.898438 L 1114.453125 1827.304688 " transform="matrix(0.1, 0, 0, -0.1, 0, 205)"/>
<path fill-rule="nonzero" fill="rgb(27.806091%, 31.591797%, 72.264099%)" fill-opacity="1" d="M 172.867188 76.578125 L 183.917969 76.527344 L 144.640625 163.84375 "/>
<path fill="none" stroke-width="6.12" stroke-linecap="round" stroke-linejoin="round" stroke="rgb(0%, 0%, 0%)" stroke-opacity="1" stroke-miterlimit="10" d="M 1728.671875 1284.21875 L 1839.179688 1284.726562 " transform="matrix(0.1, 0, 0, -0.1, 0, 205)"/>
<path fill-rule="nonzero" fill="rgb(25%, 0%, 21.508789%)" fill-opacity="1" d="M 172.867188 76.578125 L 183.917969 76.527344 L 143.015625 15.984375 "/>
<path fill="none" stroke-width="6.12" stroke-linecap="round" stroke-linejoin="round" stroke="rgb(0%, 0%, 0%)" stroke-opacity="1" stroke-miterlimit="10" d="M 1728.671875 1284.21875 L 1839.179688 1284.726562 " transform="matrix(0.1, 0, 0, -0.1, 0, 205)"/>
<path fill-rule="nonzero" fill="rgb(27.806091%, 31.591797%, 72.264099%)" fill-opacity="1" stroke-width="6.12" stroke-linecap="round" stroke-linejoin="round" stroke="rgb(0%, 0%, 0%)" stroke-opacity="1" stroke-miterlimit="10" d="M 1744.101562 480.273438 L 1614.0625 365.859375 L 1446.40625 411.5625 " transform="matrix(0.1, 0, 0, -0.1, 0, 205)"/>
<path fill-rule="nonzero" fill="rgb(27.806091%, 31.591797%, 72.264099%)" fill-opacity="1" d="M 190.703125 121.496094 L 174.410156 156.972656 L 144.640625 163.84375 "/>
<path fill="none" stroke-width="6.12" stroke-linecap="round" stroke-linejoin="round" stroke="rgb(0%, 0%, 0%)" stroke-opacity="1" stroke-miterlimit="10" d="M 1907.03125 835.039062 L 1744.101562 480.273438 " transform="matrix(0.1, 0, 0, -0.1, 0, 205)"/>
<path fill-rule="nonzero" fill="rgb(27.806091%, 31.591797%, 72.264099%)" fill-opacity="1" d="M 193.238281 98.6875 L 190.703125 121.496094 L 144.640625 163.84375 "/>
<path fill="none" stroke-width="6.12" stroke-linecap="round" stroke-linejoin="round" stroke="rgb(0%, 0%, 0%)" stroke-opacity="1" stroke-miterlimit="10" d="M 1932.382812 1063.125 L 1907.03125 835.039062 " transform="matrix(0.1, 0, 0, -0.1, 0, 205)"/>
<path fill-rule="nonzero" fill="rgb(27.806091%, 31.591797%, 72.264099%)" fill-opacity="1" d="M 183.917969 76.527344 L 193.238281 98.6875 L 144.640625 163.84375 "/>
<path fill="none" stroke-width="6.12" stroke-linecap="round" stroke-linejoin="round" stroke="rgb(0%, 0%, 0%)" stroke-opacity="1" stroke-miterlimit="10" d="M 1839.179688 1284.726562 L 1932.382812 1063.125 " transform="matrix(0.1, 0, 0, -0.1, 0, 205)"/>
<path fill-rule="nonzero" fill="rgb(32.493591%, 55.859375%, 92.1875%)" fill-opacity="1" d="M 161.40625 168.414062 L 128.359375 186.296875 L 144.640625 163.84375 "/>
<path fill="none" stroke-width="6.12" stroke-linecap="round" stroke-linejoin="round" stroke="rgb(0%, 0%, 0%)" stroke-opacity="1" stroke-miterlimit="10" d="M 1614.0625 365.859375 L 1283.59375 187.03125 L 1446.40625 411.5625 Z M 1614.0625 365.859375 " transform="matrix(0.1, 0, 0, -0.1, 0, 205)"/>
<path fill-rule="nonzero" fill="rgb(0%, 0%, 0%)" fill-opacity="1" stroke-width="6.12" stroke-linecap="round" stroke-linejoin="round" stroke="rgb(0%, 0%, 0%)" stroke-opacity="1" stroke-miterlimit="10" d="M 120.820312 674.296875 L 258.085938 531.757812 L 538.75 281.757812 " transform="matrix(0.1, 0, 0, -0.1, 0, 205)"/>
<path fill-rule="nonzero" fill="rgb(92.96875%, 87.693787%, 45.506287%)" fill-opacity="1" d="M 2.75 100.550781 L 3.566406 124.277344 L 12.082031 137.570312 "/>
<path fill="none" stroke-width="6.12" stroke-linecap="round" stroke-linejoin="round" stroke="rgb(0%, 0%, 0%)" stroke-opacity="1" stroke-miterlimit="10" d="M 27.5 1044.492188 L 35.664062 807.226562 L 120.820312 674.296875 Z M 27.5 1044.492188 " transform="matrix(0.1, 0, 0, -0.1, 0, 205)"/>
<path fill-rule="nonzero" fill="rgb(0%, 0%, 0%)" fill-opacity="1" d="M 3.566406 124.277344 L 12.082031 137.570312 L 53.875 176.824219 "/>
<path fill="none" stroke-width="6.12" stroke-linecap="round" stroke-linejoin="round" stroke="rgb(0%, 0%, 0%)" stroke-opacity="1" stroke-miterlimit="10" d="M 35.664062 807.226562 L 120.820312 674.296875 " transform="matrix(0.1, 0, 0, -0.1, 0, 205)"/>
<path fill-rule="nonzero" fill="rgb(0%, 0%, 0%)" fill-opacity="1" d="M 9.742188 125.917969 L 3.566406 124.277344 L 53.875 176.824219 "/>
<path fill="none" stroke-width="6.12" stroke-linecap="round" stroke-linejoin="round" stroke="rgb(0%, 0%, 0%)" stroke-opacity="1" stroke-miterlimit="10" d="M 97.421875 790.820312 L 35.664062 807.226562 " transform="matrix(0.1, 0, 0, -0.1, 0, 205)"/>
<path fill-rule="nonzero" fill="rgb(0%, 0%, 0%)" fill-opacity="1" d="M 36.40625 145.515625 L 9.742188 125.917969 L 53.875 176.824219 "/>
<path fill="none" stroke-width="6.12" stroke-linecap="round" stroke-linejoin="round" stroke="rgb(0%, 0%, 0%)" stroke-opacity="1" stroke-miterlimit="10" d="M 364.0625 594.84375 L 97.421875 790.820312 " transform="matrix(0.1, 0, 0, -0.1, 0, 205)"/>
<path fill-rule="nonzero" fill="rgb(0%, 0%, 0%)" fill-opacity="1" d="M 56.457031 163.371094 L 36.40625 145.515625 L 53.875 176.824219 "/>
<path fill="none" stroke-width="6.12" stroke-linecap="round" stroke-linejoin="round" stroke="rgb(0%, 0%, 0%)" stroke-opacity="1" stroke-miterlimit="10" d="M 564.570312 416.289062 L 364.0625 594.84375 " transform="matrix(0.1, 0, 0, -0.1, 0, 205)"/>
<path fill-rule="nonzero" fill="rgb(0%, 0%, 0%)" fill-opacity="1" d="M 79.722656 188.230469 L 56.457031 163.371094 L 53.875 176.824219 "/>
<path fill="none" stroke-width="6.12" stroke-linecap="round" stroke-linejoin="round" stroke="rgb(0%, 0%, 0%)" stroke-opacity="1" stroke-miterlimit="10" d="M 797.226562 167.695312 L 564.570312 416.289062 " transform="matrix(0.1, 0, 0, -0.1, 0, 205)"/>
<path fill-rule="nonzero" fill="rgb(34.910583%, 81.25%, 92.381287%)" fill-opacity="1" d="M 82.683594 194.734375 L 69.339844 188.574219 L 107.171875 193.464844 "/>
<path fill="none" stroke-width="6.12" stroke-linecap="round" stroke-linejoin="round" stroke="rgb(0%, 0%, 0%)" stroke-opacity="1" stroke-miterlimit="10" d="M 826.835938 102.65625 L 693.398438 164.257812 L 1071.71875 115.351562 Z M 826.835938 102.65625 " transform="matrix(0.1, 0, 0, -0.1, 0, 205)"/>
<path fill-rule="nonzero" fill="rgb(0%, 0%, 0%)" fill-opacity="1" d="M 82.683594 194.734375 L 79.722656 188.230469 L 53.875 176.824219 "/>
<path fill="none" stroke-width="6.12" stroke-linecap="round" stroke-linejoin="round" stroke="rgb(0%, 0%, 0%)" stroke-opacity="1" stroke-miterlimit="10" d="M 826.835938 102.65625 L 797.226562 167.695312 " transform="matrix(0.1, 0, 0, -0.1, 0, 205)"/>
<path fill-rule="nonzero" fill="rgb(0%, 0%, 0%)" fill-opacity="1" stroke-width="6.12" stroke-linecap="round" stroke-linejoin="round" stroke="rgb(0%, 0%, 0%)" stroke-opacity="1" stroke-miterlimit="10" d="M 538.75 281.757812 L 693.398438 164.257812 L 826.835938 102.65625 " transform="matrix(0.1, 0, 0, -0.1, 0, 205)"/>
<path fill-rule="nonzero" fill="rgb(25%, 0%, 21.508789%)" fill-opacity="1" stroke-width="6.12" stroke-linecap="round" stroke-linejoin="round" stroke="rgb(0%, 0%, 0%)" stroke-opacity="1" stroke-miterlimit="10" d="M 1430.15625 1890.15625 L 1250.390625 1977.851562 L 1096.875 1940.898438 " transform="matrix(0.1, 0, 0, -0.1, 0, 205)"/>
<path fill-rule="nonzero" fill="rgb(25%, 0%, 0%)" fill-opacity="1" d="M 109.6875 10.910156 L 125.039062 7.214844 L 85.914062 3.769531 "/>
<path fill="none" stroke-width="6.12" stroke-linecap="round" stroke-linejoin="round" stroke="rgb(0%, 0%, 0%)" stroke-opacity="1" stroke-miterlimit="10" d="M 1096.875 1940.898438 L 1250.390625 1977.851562 L 859.140625 2012.304688 Z M 1096.875 1940.898438 " transform="matrix(0.1, 0, 0, -0.1, 0, 205)"/>
<path fill-rule="nonzero" fill="rgb(25%, 0%, 21.508789%)" fill-opacity="1" d="M 183.917969 76.527344 L 184.867188 60.0625 L 143.015625 15.984375 "/>
<path fill="none" stroke-width="6.12" stroke-linecap="round" stroke-linejoin="round" stroke="rgb(0%, 0%, 0%)" stroke-opacity="1" stroke-miterlimit="10" d="M 1839.179688 1284.726562 L 1848.671875 1449.375 " transform="matrix(0.1, 0, 0, -0.1, 0, 205)"/>
<path fill-rule="nonzero" fill="rgb(0%, 0%, 13.989258%)" fill-opacity="1" d="M 193.238281 98.6875 L 183.917969 76.527344 L 184.867188 60.0625 "/>
<path fill="none" stroke-width="6.12" stroke-linecap="round" stroke-linejoin="round" stroke="rgb(0%, 0%, 0%)" stroke-opacity="1" stroke-miterlimit="10" d="M 1932.382812 1063.125 L 1839.179688 1284.726562 L 1848.671875 1449.375 Z M 1932.382812 1063.125 " transform="matrix(0.1, 0, 0, -0.1, 0, 205)"/>
<path fill-rule="nonzero" fill="rgb(76.367188%, 37.400818%, 31.809998%)" fill-opacity="1" d="M 30.550781 29.402344 L 21.183594 43.972656 L 85.914062 3.769531 "/>
<path fill="none" stroke-width="6.12" stroke-linecap="round" stroke-linejoin="round" stroke="rgb(0%, 0%, 0%)" stroke-opacity="1" stroke-miterlimit="10" d="M 305.507812 1755.976562 L 211.835938 1610.273438 " transform="matrix(0.1, 0, 0, -0.1, 0, 205)"/>
<path fill-rule="nonzero" fill="rgb(0%, 10.009766%, 63.084412%)" fill-opacity="1" d="M 7.574219 78.917969 L 21.183594 43.972656 L 42.085938 26.59375 "/>
<path fill="none" stroke-width="6.12" stroke-linecap="round" stroke-linejoin="round" stroke="rgb(0%, 0%, 0%)" stroke-opacity="1" stroke-miterlimit="10" d="M 75.742188 1260.820312 L 211.835938 1610.273438 " transform="matrix(0.1, 0, 0, -0.1, 0, 205)"/>
<path fill-rule="nonzero" fill="rgb(0%, 10.009766%, 63.084412%)" fill-opacity="1" d="M 2.75 100.550781 L 7.574219 78.917969 L 42.085938 26.59375 "/>
<path fill="none" stroke-width="6.12" stroke-linecap="round" stroke-linejoin="round" stroke="rgb(0%, 0%, 0%)" stroke-opacity="1" stroke-miterlimit="10" d="M 27.5 1044.492188 L 75.742188 1260.820312 " transform="matrix(0.1, 0, 0, -0.1, 0, 205)"/>
<path fill-rule="nonzero" fill="rgb(70.506287%, 20.188904%, 3.599548%)" fill-opacity="1" stroke-width="6.12" stroke-linecap="round" stroke-linejoin="round" stroke="rgb(0%, 0%, 0%)" stroke-opacity="1" stroke-miterlimit="10" d="M 1071.71875 115.351562 L 1283.59375 187.03125 L 1614.0625 365.859375 " transform="matrix(0.1, 0, 0, -0.1, 0, 205)"/>
<path fill-rule="nonzero" fill="rgb(0%, 10.009766%, 63.084412%)" fill-opacity="1" stroke-width="6.12" stroke-linecap="round" stroke-linejoin="round" stroke="rgb(0%, 0%, 0%)" stroke-opacity="1" stroke-miterlimit="10" d="M 211.835938 1610.273438 L 305.507812 1755.976562 L 420.859375 1784.0625 " transform="matrix(0.1, 0, 0, -0.1, 0, 205)"/>
<path fill-rule="nonzero" fill="rgb(0%, 10.009766%, 63.084412%)" fill-opacity="1" d="M 3.566406 124.277344 L 2.75 100.550781 L 42.085938 26.59375 "/>
<path fill="none" stroke-width="6.12" stroke-linecap="round" stroke-linejoin="round" stroke="rgb(0%, 0%, 0%)" stroke-opacity="1" stroke-miterlimit="10" d="M 35.664062 807.226562 L 27.5 1044.492188 " transform="matrix(0.1, 0, 0, -0.1, 0, 205)"/>
<path fill-rule="nonzero" fill="rgb(70.506287%, 20.188904%, 3.599548%)" fill-opacity="1" stroke-width="6.12" stroke-linecap="round" stroke-linejoin="round" stroke="rgb(0%, 0%, 0%)" stroke-opacity="1" stroke-miterlimit="10" d="M 797.226562 167.695312 L 826.835938 102.65625 L 1071.71875 115.351562 " transform="matrix(0.1, 0, 0, -0.1, 0, 205)"/>
<path fill-rule="nonzero" fill="rgb(70.506287%, 20.188904%, 3.599548%)" fill-opacity="1" d="M 99.230469 168.675781 L 79.722656 188.230469 L 107.171875 193.464844 "/>
<path fill="none" stroke-width="6.12" stroke-linecap="round" stroke-linejoin="round" stroke="rgb(0%, 0%, 0%)" stroke-opacity="1" stroke-miterlimit="10" d="M 992.304688 363.242188 L 797.226562 167.695312 " transform="matrix(0.1, 0, 0, -0.1, 0, 205)"/>
<path fill-rule="nonzero" fill="rgb(70.506287%, 20.188904%, 3.599548%)" fill-opacity="1" d="M 122.324219 155.882812 L 99.230469 168.675781 L 107.171875 193.464844 "/>
<path fill="none" stroke-width="6.12" stroke-linecap="round" stroke-linejoin="round" stroke="rgb(0%, 0%, 0%)" stroke-opacity="1" stroke-miterlimit="10" d="M 1223.242188 491.171875 L 992.304688 363.242188 " transform="matrix(0.1, 0, 0, -0.1, 0, 205)"/>
<path fill-rule="nonzero" fill="rgb(70.506287%, 20.188904%, 3.599548%)" fill-opacity="1" d="M 160.800781 143.589844 L 122.324219 155.882812 L 107.171875 193.464844 "/>
<path fill="none" stroke-width="6.12" stroke-linecap="round" stroke-linejoin="round" stroke="rgb(0%, 0%, 0%)" stroke-opacity="1" stroke-miterlimit="10" d="M 1608.007812 614.101562 L 1223.242188 491.171875 " transform="matrix(0.1, 0, 0, -0.1, 0, 205)"/>
<path fill-rule="nonzero" fill="rgb(70.506287%, 20.188904%, 3.599548%)" fill-opacity="1" d="M 174.859375 144.28125 L 160.800781 143.589844 L 107.171875 193.464844 "/>
<path fill="none" stroke-width="6.12" stroke-linecap="round" stroke-linejoin="round" stroke="rgb(0%, 0%, 0%)" stroke-opacity="1" stroke-miterlimit="10" d="M 1748.59375 607.1875 L 1608.007812 614.101562 " transform="matrix(0.1, 0, 0, -0.1, 0, 205)"/>
<path fill-rule="nonzero" fill="rgb(70.506287%, 20.188904%, 3.599548%)" fill-opacity="1" d="M 174.410156 156.972656 L 174.859375 144.28125 L 107.171875 193.464844 "/>
<path fill="none" stroke-width="6.12" stroke-linecap="round" stroke-linejoin="round" stroke="rgb(0%, 0%, 0%)" stroke-opacity="1" stroke-miterlimit="10" d="M 1744.101562 480.273438 L 1748.59375 607.1875 " transform="matrix(0.1, 0, 0, -0.1, 0, 205)"/>
<path fill-rule="nonzero" fill="rgb(70.506287%, 20.188904%, 3.599548%)" fill-opacity="1" d="M 161.40625 168.414062 L 174.410156 156.972656 L 107.171875 193.464844 "/>
<path fill="none" stroke-width="6.12" stroke-linecap="round" stroke-linejoin="round" stroke="rgb(0%, 0%, 0%)" stroke-opacity="1" stroke-miterlimit="10" d="M 1614.0625 365.859375 L 1744.101562 480.273438 " transform="matrix(0.1, 0, 0, -0.1, 0, 205)"/>
<path fill-rule="nonzero" fill="rgb(76.367188%, 37.400818%, 31.809998%)" fill-opacity="1" stroke-width="6.12" stroke-linecap="round" stroke-linejoin="round" stroke="rgb(0%, 0%, 0%)" stroke-opacity="1" stroke-miterlimit="10" d="M 859.140625 2012.304688 L 634.53125 1961.445312 L 305.507812 1755.976562 " transform="matrix(0.1, 0, 0, -0.1, 0, 205)"/>
<path fill-rule="nonzero" fill="rgb(0%, 34.397888%, 78.709412%)" fill-opacity="1" d="M 30.550781 29.402344 L 63.453125 8.855469 L 42.085938 26.59375 "/>
<path fill="none" stroke-width="6.12" stroke-linecap="round" stroke-linejoin="round" stroke="rgb(0%, 0%, 0%)" stroke-opacity="1" stroke-miterlimit="10" d="M 305.507812 1755.976562 L 634.53125 1961.445312 L 420.859375 1784.0625 Z M 305.507812 1755.976562 " transform="matrix(0.1, 0, 0, -0.1, 0, 205)"/>
<path fill-rule="nonzero" fill="rgb(63.084412%, 77.539062%, 94.921875%)" fill-opacity="1" d="M 85.914062 3.769531 L 63.453125 8.855469 L 151 36.828125 "/>
<path fill="none" stroke-width="6.12" stroke-linecap="round" stroke-linejoin="round" stroke="rgb(0%, 0%, 0%)" stroke-opacity="1" stroke-miterlimit="10" d="M 859.140625 2012.304688 L 634.53125 1961.445312 " transform="matrix(0.1, 0, 0, -0.1, 0, 205)"/>
<path fill-rule="nonzero" fill="rgb(63.084412%, 77.539062%, 94.921875%)" fill-opacity="1" d="M 125.039062 7.214844 L 85.914062 3.769531 L 151 36.828125 "/>
<path fill="none" stroke-width="6.12" stroke-linecap="round" stroke-linejoin="round" stroke="rgb(0%, 0%, 0%)" stroke-opacity="1" stroke-miterlimit="10" d="M 1250.390625 1977.851562 L 859.140625 2012.304688 " transform="matrix(0.1, 0, 0, -0.1, 0, 205)"/>
<path fill-rule="nonzero" fill="rgb(94.139099%, 80.271912%, 67.96875%)" fill-opacity="1" d="M 193.238281 98.6875 L 190.703125 121.496094 L 139.589844 49.179688 "/>
<path fill="none" stroke-width="6.12" stroke-linecap="round" stroke-linejoin="round" stroke="rgb(0%, 0%, 0%)" stroke-opacity="1" stroke-miterlimit="10" d="M 1932.382812 1063.125 L 1907.03125 835.039062 " transform="matrix(0.1, 0, 0, -0.1, 0, 205)"/>
<path fill-rule="nonzero" fill="rgb(94.139099%, 80.271912%, 67.96875%)" fill-opacity="1" d="M 184.867188 60.0625 L 193.238281 98.6875 L 139.589844 49.179688 "/>
<path fill="none" stroke-width="6.12" stroke-linecap="round" stroke-linejoin="round" stroke="rgb(0%, 0%, 0%)" stroke-opacity="1" stroke-miterlimit="10" d="M 1848.671875 1449.375 L 1932.382812 1063.125 " transform="matrix(0.1, 0, 0, -0.1, 0, 205)"/>
<path fill-rule="nonzero" fill="rgb(86.71875%, 47.605896%, 0.498962%)" fill-opacity="1" d="M 174.410156 156.972656 L 174.859375 144.28125 L 190.703125 121.496094 "/>
<path fill="none" stroke-width="6.12" stroke-linecap="round" stroke-linejoin="round" stroke="rgb(0%, 0%, 0%)" stroke-opacity="1" stroke-miterlimit="10" d="M 1744.101562 480.273438 L 1748.59375 607.1875 L 1907.03125 835.039062 Z M 1744.101562 480.273438 " transform="matrix(0.1, 0, 0, -0.1, 0, 205)"/>
<path fill-rule="nonzero" fill="rgb(63.084412%, 77.539062%, 94.921875%)" fill-opacity="1" stroke-width="6.12" stroke-linecap="round" stroke-linejoin="round" stroke="rgb(0%, 0%, 0%)" stroke-opacity="1" stroke-miterlimit="10" d="M 1510 1681.71875 L 1430.15625 1890.15625 L 1250.390625 1977.851562 " transform="matrix(0.1, 0, 0, -0.1, 0, 205)"/>
<path fill-rule="nonzero" fill="rgb(25%, 0%, 21.508789%)" fill-opacity="1" stroke-width="6.12" stroke-linecap="round" stroke-linejoin="round" stroke="rgb(0%, 0%, 0%)" stroke-opacity="1" stroke-miterlimit="10" d="M 1848.671875 1449.375 L 1735.703125 1620.3125 L 1430.15625 1890.15625 " transform="matrix(0.1, 0, 0, -0.1, 0, 205)"/>
<path fill-rule="nonzero" fill="rgb(94.139099%, 80.271912%, 67.96875%)" fill-opacity="1" d="M 173.570312 42.96875 L 184.867188 60.0625 L 139.589844 49.179688 "/>
<path fill="none" stroke-width="6.12" stroke-linecap="round" stroke-linejoin="round" stroke="rgb(0%, 0%, 0%)" stroke-opacity="1" stroke-miterlimit="10" d="M 1735.703125 1620.3125 L 1848.671875 1449.375 " transform="matrix(0.1, 0, 0, -0.1, 0, 205)"/>
<path fill-rule="nonzero" fill="rgb(63.084412%, 77.539062%, 94.921875%)" fill-opacity="1" d="M 63.453125 8.855469 L 42.085938 26.59375 L 151 36.828125 "/>
<path fill="none" stroke-width="6.12" stroke-linecap="round" stroke-linejoin="round" stroke="rgb(0%, 0%, 0%)" stroke-opacity="1" stroke-miterlimit="10" d="M 634.53125 1961.445312 L 420.859375 1784.0625 " transform="matrix(0.1, 0, 0, -0.1, 0, 205)"/>
<path fill-rule="nonzero" fill="rgb(94.139099%, 80.271912%, 67.96875%)" fill-opacity="1" d="M 190.703125 121.496094 L 174.859375 144.28125 L 139.589844 49.179688 "/>
<path fill="none" stroke-width="6.12" stroke-linecap="round" stroke-linejoin="round" stroke="rgb(0%, 0%, 0%)" stroke-opacity="1" stroke-miterlimit="10" d="M 1907.03125 835.039062 L 1748.59375 607.1875 " transform="matrix(0.1, 0, 0, -0.1, 0, 205)"/>
<path fill-rule="nonzero" fill="rgb(0%, 10.009766%, 63.084412%)" fill-opacity="1" d="M 9.742188 125.917969 L 3.566406 124.277344 L 42.085938 26.59375 "/>
<path fill="none" stroke-width="6.12" stroke-linecap="round" stroke-linejoin="round" stroke="rgb(0%, 0%, 0%)" stroke-opacity="1" stroke-miterlimit="10" d="M 97.421875 790.820312 L 35.664062 807.226562 " transform="matrix(0.1, 0, 0, -0.1, 0, 205)"/>
<path fill-rule="nonzero" fill="rgb(82.8125%, 98.4375%, 87.693787%)" fill-opacity="1" d="M 173.570312 42.96875 L 151 36.828125 L 143.015625 15.984375 "/>
<path fill="none" stroke-width="6.12" stroke-linecap="round" stroke-linejoin="round" stroke="rgb(0%, 0%, 0%)" stroke-opacity="1" stroke-miterlimit="10" d="M 1735.703125 1620.3125 L 1510 1681.71875 L 1430.15625 1890.15625 Z M 1735.703125 1620.3125 " transform="matrix(0.1, 0, 0, -0.1, 0, 205)"/>
<path fill-rule="nonzero" fill="rgb(94.139099%, 80.271912%, 67.96875%)" fill-opacity="1" stroke-width="6.12" stroke-linecap="round" stroke-linejoin="round" stroke="rgb(0%, 0%, 0%)" stroke-opacity="1" stroke-miterlimit="10" d="M 1395.898438 1558.203125 L 1510 1681.71875 L 1735.703125 1620.3125 " transform="matrix(0.1, 0, 0, -0.1, 0, 205)"/>
<path fill-rule="nonzero" fill="rgb(0%, 10.009766%, 63.084412%)" fill-opacity="1" d="M 26.003906 103.5625 L 9.742188 125.917969 L 42.085938 26.59375 "/>
<path fill="none" stroke-width="6.12" stroke-linecap="round" stroke-linejoin="round" stroke="rgb(0%, 0%, 0%)" stroke-opacity="1" stroke-miterlimit="10" d="M 260.039062 1014.375 L 97.421875 790.820312 " transform="matrix(0.1, 0, 0, -0.1, 0, 205)"/>
<path fill-rule="nonzero" fill="rgb(0%, 10.009766%, 63.084412%)" fill-opacity="1" d="M 35.796875 79.03125 L 26.003906 103.5625 L 42.085938 26.59375 "/>
<path fill="none" stroke-width="6.12" stroke-linecap="round" stroke-linejoin="round" stroke="rgb(0%, 0%, 0%)" stroke-opacity="1" stroke-miterlimit="10" d="M 357.96875 1259.6875 L 260.039062 1014.375 " transform="matrix(0.1, 0, 0, -0.1, 0, 205)"/>
<path fill-rule="nonzero" fill="rgb(0%, 10.009766%, 63.084412%)" fill-opacity="1" stroke-width="6.12" stroke-linecap="round" stroke-linejoin="round" stroke="rgb(0%, 0%, 0%)" stroke-opacity="1" stroke-miterlimit="10" d="M 420.859375 1784.0625 L 438.632812 1651.015625 L 357.96875 1259.6875 " transform="matrix(0.1, 0, 0, -0.1, 0, 205)"/>
<path fill-rule="nonzero" fill="rgb(63.084412%, 77.539062%, 94.921875%)" fill-opacity="1" d="M 42.085938 26.59375 L 43.863281 39.898438 L 151 36.828125 "/>
<path fill="none" stroke-width="6.12" stroke-linecap="round" stroke-linejoin="round" stroke="rgb(0%, 0%, 0%)" stroke-opacity="1" stroke-miterlimit="10" d="M 420.859375 1784.0625 L 438.632812 1651.015625 " transform="matrix(0.1, 0, 0, -0.1, 0, 205)"/>
<path fill-rule="nonzero" fill="rgb(38.597107%, 23.997498%, 55.859375%)" fill-opacity="1" d="M 26.003906 103.5625 L 9.742188 125.917969 L 36.40625 145.515625 "/>
<path fill="none" stroke-width="6.12" stroke-linecap="round" stroke-linejoin="round" stroke="rgb(0%, 0%, 0%)" stroke-opacity="1" stroke-miterlimit="10" d="M 260.039062 1014.375 L 97.421875 790.820312 L 364.0625 594.84375 Z M 260.039062 1014.375 " transform="matrix(0.1, 0, 0, -0.1, 0, 205)"/>
<path fill-rule="nonzero" fill="rgb(58.789062%, 26.609802%, 38.989258%)" fill-opacity="1" d="M 99.230469 168.675781 L 56.457031 163.371094 L 79.722656 188.230469 "/>
<path fill="none" stroke-width="6.12" stroke-linecap="round" stroke-linejoin="round" stroke="rgb(0%, 0%, 0%)" stroke-opacity="1" stroke-miterlimit="10" d="M 992.304688 363.242188 L 564.570312 416.289062 L 797.226562 167.695312 Z M 992.304688 363.242188 " transform="matrix(0.1, 0, 0, -0.1, 0, 205)"/>
<path fill-rule="nonzero" fill="rgb(94.139099%, 80.271912%, 67.96875%)" fill-opacity="1" d="M 174.859375 144.28125 L 160.800781 143.589844 L 139.589844 49.179688 "/>
<path fill="none" stroke-width="6.12" stroke-linecap="round" stroke-linejoin="round" stroke="rgb(0%, 0%, 0%)" stroke-opacity="1" stroke-miterlimit="10" d="M 1748.59375 607.1875 L 1608.007812 614.101562 " transform="matrix(0.1, 0, 0, -0.1, 0, 205)"/>
<path fill-rule="nonzero" fill="rgb(63.084412%, 77.539062%, 94.921875%)" fill-opacity="1" stroke-width="6.12" stroke-linecap="round" stroke-linejoin="round" stroke="rgb(0%, 0%, 0%)" stroke-opacity="1" stroke-miterlimit="10" d="M 999.296875 1455.039062 L 1395.898438 1558.203125 L 1510 1681.71875 " transform="matrix(0.1, 0, 0, -0.1, 0, 205)"/>
<path fill-rule="nonzero" fill="rgb(63.084412%, 77.539062%, 94.921875%)" fill-opacity="1" d="M 72.683594 56.769531 L 99.929688 59.496094 L 151 36.828125 "/>
<path fill="none" stroke-width="6.12" stroke-linecap="round" stroke-linejoin="round" stroke="rgb(0%, 0%, 0%)" stroke-opacity="1" stroke-miterlimit="10" d="M 726.835938 1482.304688 L 999.296875 1455.039062 " transform="matrix(0.1, 0, 0, -0.1, 0, 205)"/>
<path fill-rule="nonzero" fill="rgb(63.084412%, 77.539062%, 94.921875%)" fill-opacity="1" d="M 43.863281 39.898438 L 72.683594 56.769531 L 151 36.828125 "/>
<path fill="none" stroke-width="6.12" stroke-linecap="round" stroke-linejoin="round" stroke="rgb(0%, 0%, 0%)" stroke-opacity="1" stroke-miterlimit="10" d="M 438.632812 1651.015625 L 726.835938 1482.304688 " transform="matrix(0.1, 0, 0, -0.1, 0, 205)"/>
<path fill-rule="nonzero" fill="rgb(55.076599%, 54.6875%, 80.271912%)" fill-opacity="1" d="M 35.796875 79.03125 L 43.863281 39.898438 L 72.683594 56.769531 "/>
<path fill="none" stroke-width="6.12" stroke-linecap="round" stroke-linejoin="round" stroke="rgb(0%, 0%, 0%)" stroke-opacity="1" stroke-miterlimit="10" d="M 357.96875 1259.6875 L 438.632812 1651.015625 L 726.835938 1482.304688 Z M 357.96875 1259.6875 " transform="matrix(0.1, 0, 0, -0.1, 0, 205)"/>
<path fill-rule="nonzero" fill="rgb(94.139099%, 80.271912%, 67.96875%)" fill-opacity="1" d="M 160.800781 143.589844 L 139.785156 116.253906 L 139.589844 49.179688 "/>
<path fill="none" stroke-width="6.12" stroke-linecap="round" stroke-linejoin="round" stroke="rgb(0%, 0%, 0%)" stroke-opacity="1" stroke-miterlimit="10" d="M 1608.007812 614.101562 L 1397.851562 887.460938 " transform="matrix(0.1, 0, 0, -0.1, 0, 205)"/>
<path fill-rule="nonzero" fill="rgb(81.25%, 57.226562%, 57.617188%)" fill-opacity="1" d="M 139.785156 116.253906 L 160.800781 143.589844 L 122.324219 155.882812 "/>
<path fill="none" stroke-width="6.12" stroke-linecap="round" stroke-linejoin="round" stroke="rgb(0%, 0%, 0%)" stroke-opacity="1" stroke-miterlimit="10" d="M 1397.851562 887.460938 L 1608.007812 614.101562 L 1223.242188 491.171875 Z M 1397.851562 887.460938 " transform="matrix(0.1, 0, 0, -0.1, 0, 205)"/>
<path fill-rule="nonzero" fill="rgb(66.40625%, 51.171875%, 66.601562%)" fill-opacity="1" d="M 36.40625 145.515625 L 26.003906 103.5625 L 72.683594 56.769531 "/>
<path fill="none" stroke-width="6.12" stroke-linecap="round" stroke-linejoin="round" stroke="rgb(0%, 0%, 0%)" stroke-opacity="1" stroke-miterlimit="10" d="M 364.0625 594.84375 L 260.039062 1014.375 " transform="matrix(0.1, 0, 0, -0.1, 0, 205)"/>
<path fill-rule="nonzero" fill="rgb(66.40625%, 51.171875%, 66.601562%)" fill-opacity="1" d="M 56.457031 163.371094 L 36.40625 145.515625 L 72.683594 56.769531 "/>
<path fill="none" stroke-width="6.12" stroke-linecap="round" stroke-linejoin="round" stroke="rgb(0%, 0%, 0%)" stroke-opacity="1" stroke-miterlimit="10" d="M 564.570312 416.289062 L 364.0625 594.84375 " transform="matrix(0.1, 0, 0, -0.1, 0, 205)"/>
<path fill-rule="nonzero" fill="rgb(66.40625%, 51.171875%, 66.601562%)" fill-opacity="1" d="M 99.230469 168.675781 L 56.457031 163.371094 L 72.683594 56.769531 "/>
<path fill="none" stroke-width="6.12" stroke-linecap="round" stroke-linejoin="round" stroke="rgb(0%, 0%, 0%)" stroke-opacity="1" stroke-miterlimit="10" d="M 992.304688 363.242188 L 564.570312 416.289062 " transform="matrix(0.1, 0, 0, -0.1, 0, 205)"/>
<path fill-rule="nonzero" fill="rgb(66.40625%, 51.171875%, 66.601562%)" fill-opacity="1" stroke-width="6.12" stroke-linecap="round" stroke-linejoin="round" stroke="rgb(0%, 0%, 0%)" stroke-opacity="1" stroke-miterlimit="10" d="M 260.039062 1014.375 L 357.96875 1259.6875 L 726.835938 1482.304688 " transform="matrix(0.1, 0, 0, -0.1, 0, 205)"/>
<path fill-rule="nonzero" fill="rgb(66.40625%, 51.171875%, 66.601562%)" fill-opacity="1" d="M 122.324219 155.882812 L 99.230469 168.675781 L 72.683594 56.769531 "/>
<path fill="none" stroke-width="6.12" stroke-linecap="round" stroke-linejoin="round" stroke="rgb(0%, 0%, 0%)" stroke-opacity="1" stroke-miterlimit="10" d="M 1223.242188 491.171875 L 992.304688 363.242188 " transform="matrix(0.1, 0, 0, -0.1, 0, 205)"/>
<path fill-rule="nonzero" fill="rgb(94.139099%, 80.271912%, 67.96875%)" fill-opacity="1" stroke-width="6.12" stroke-linecap="round" stroke-linejoin="round" stroke="rgb(0%, 0%, 0%)" stroke-opacity="1" stroke-miterlimit="10" d="M 1397.851562 887.460938 L 1336.796875 1156.09375 L 1395.898438 1558.203125 " transform="matrix(0.1, 0, 0, -0.1, 0, 205)"/>
<path fill-rule="nonzero" fill="rgb(76.756287%, 69.726562%, 78.318787%)" fill-opacity="1" d="M 133.679688 89.390625 L 99.929688 59.496094 L 139.589844 49.179688 "/>
<path fill="none" stroke-width="6.12" stroke-linecap="round" stroke-linejoin="round" stroke="rgb(0%, 0%, 0%)" stroke-opacity="1" stroke-miterlimit="10" d="M 1336.796875 1156.09375 L 999.296875 1455.039062 L 1395.898438 1558.203125 Z M 1336.796875 1156.09375 " transform="matrix(0.1, 0, 0, -0.1, 0, 205)"/>
<path fill-rule="nonzero" fill="rgb(66.40625%, 51.171875%, 66.601562%)" fill-opacity="1" d="M 139.785156 116.253906 L 122.324219 155.882812 L 72.683594 56.769531 "/>
<path fill="none" stroke-width="6.12" stroke-linecap="round" stroke-linejoin="round" stroke="rgb(0%, 0%, 0%)" stroke-opacity="1" stroke-miterlimit="10" d="M 1397.851562 887.460938 L 1223.242188 491.171875 " transform="matrix(0.1, 0, 0, -0.1, 0, 205)"/>
<path fill-rule="nonzero" fill="rgb(66.40625%, 51.171875%, 66.601562%)" fill-opacity="1" d="M 133.679688 89.390625 L 139.785156 116.253906 L 72.683594 56.769531 "/>
<path fill="none" stroke-width="6.12" stroke-linecap="round" stroke-linejoin="round" stroke="rgb(0%, 0%, 0%)" stroke-opacity="1" stroke-miterlimit="10" d="M 1336.796875 1156.09375 L 1397.851562 887.460938 " transform="matrix(0.1, 0, 0, -0.1, 0, 205)"/>
<path fill-rule="nonzero" fill="rgb(66.40625%, 51.171875%, 66.601562%)" fill-opacity="1" stroke-width="6.12" stroke-linecap="round" stroke-linejoin="round" stroke="rgb(0%, 0%, 0%)" stroke-opacity="1" stroke-miterlimit="10" d="M 726.835938 1482.304688 L 999.296875 1455.039062 L 1336.796875 1156.09375 " transform="matrix(0.1, 0, 0, -0.1, 0, 205)"/>
</svg>
