<?xml version="1.0" encoding="UTF-8"?>
<svg xmlns="http://www.w3.org/2000/svg" xmlns:xlink="http://www.w3.org/1999/xlink" width="198" height="201" viewBox="0 0 198 201">
<path fill-rule="nonzero" fill="rgb(73.242188%, 57.8125%, 68.164062%)" fill-opacity="1" d="M 106.179688 89.195312 L 71.105469 103.882812 L 76.535156 66.136719 "/>
<path fill="none" stroke-width="6.28999" stroke-linecap="round" stroke-linejoin="round" stroke="rgb(0%, 0%, 0%)" stroke-opacity="1" stroke-miterlimit="10" d="M 1061.796875 1118.046875 L 711.054688 971.171875 L 765.351562 1348.632812 Z M 1061.796875 1118.046875 " transform="matrix(0.1, 0, 0, -0.1, 0, 201)"/>
<path fill-rule="nonzero" fill="rgb(70.117188%, 61.131287%, 75.389099%)" fill-opacity="1" stroke-width="6.28999" stroke-linecap="round" stroke-linejoin="round" stroke="rgb(0%, 0%, 0%)" stroke-opacity="1" stroke-miterlimit="10" d="M 743.203125 600.039062 L 711.054688 971.171875 L 1061.796875 1118.046875 " transform="matrix(0.1, 0, 0, -0.1, 0, 201)"/>
<path fill-rule="nonzero" fill="rgb(70.117188%, 61.131287%, 75.389099%)" fill-opacity="1" d="M 112.246094 149.148438 L 74.320312 140.996094 L 106.179688 89.195312 "/>
<path fill="none" stroke-width="6.28999" stroke-linecap="round" stroke-linejoin="round" stroke="rgb(0%, 0%, 0%)" stroke-opacity="1" stroke-miterlimit="10" d="M 1122.460938 518.515625 L 743.203125 600.039062 " transform="matrix(0.1, 0, 0, -0.1, 0, 201)"/>
<path fill-rule="nonzero" fill="rgb(70.117188%, 61.131287%, 75.389099%)" fill-opacity="1" stroke-width="6.28999" stroke-linecap="round" stroke-linejoin="round" stroke="rgb(0%, 0%, 0%)" stroke-opacity="1" stroke-miterlimit="10" d="M 1061.796875 1118.046875 L 1317.109375 843.4375 L 1122.460938 518.515625 " transform="matrix(0.1, 0, 0, -0.1, 0, 201)"/>
<path fill-rule="nonzero" fill="rgb(64.256287%, 51.951599%, 69.726562%)" fill-opacity="1" d="M 141.261719 79.496094 L 131.710938 116.65625 L 106.179688 89.195312 "/>
<path fill="none" stroke-width="6.28999" stroke-linecap="round" stroke-linejoin="round" stroke="rgb(0%, 0%, 0%)" stroke-opacity="1" stroke-miterlimit="10" d="M 1412.617188 1215.039062 L 1317.109375 843.4375 L 1061.796875 1118.046875 Z M 1412.617188 1215.039062 " transform="matrix(0.1, 0, 0, -0.1, 0, 201)"/>
<path fill-rule="nonzero" fill="rgb(70.117188%, 52.34375%, 64.451599%)" fill-opacity="1" d="M 112.664062 53.324219 L 106.179688 89.195312 L 76.535156 66.136719 "/>
<path fill="none" stroke-width="6.28999" stroke-linecap="round" stroke-linejoin="round" stroke="rgb(0%, 0%, 0%)" stroke-opacity="1" stroke-miterlimit="10" d="M 1126.640625 1476.757812 L 1061.796875 1118.046875 L 765.351562 1348.632812 Z M 1126.640625 1476.757812 " transform="matrix(0.1, 0, 0, -0.1, 0, 201)"/>
<path fill-rule="nonzero" fill="rgb(65.429688%, 49.19281%, 65.039062%)" fill-opacity="1" d="M 112.664062 53.324219 L 141.261719 79.496094 L 106.179688 89.195312 "/>
<path fill="none" stroke-width="6.28999" stroke-linecap="round" stroke-linejoin="round" stroke="rgb(0%, 0%, 0%)" stroke-opacity="1" stroke-miterlimit="10" d="M 1126.640625 1476.757812 L 1412.617188 1215.039062 L 1061.796875 1118.046875 Z M 1126.640625 1476.757812 " transform="matrix(0.1, 0, 0, -0.1, 0, 201)"/>
<path fill-rule="nonzero" fill="rgb(78.125%, 68.164062%, 75.584412%)" fill-opacity="1" d="M 71.105469 103.882812 L 74.320312 140.996094 L 41.710938 121.261719 "/>
<path fill="none" stroke-width="6.28999" stroke-linecap="round" stroke-linejoin="round" stroke="rgb(0%, 0%, 0%)" stroke-opacity="1" stroke-miterlimit="10" d="M 711.054688 971.171875 L 743.203125 600.039062 L 417.109375 797.382812 Z M 711.054688 971.171875 " transform="matrix(0.1, 0, 0, -0.1, 0, 201)"/>
<path fill-rule="nonzero" fill="rgb(80.46875%, 66.601562%, 70.896912%)" fill-opacity="1" d="M 43.011719 82.183594 L 71.105469 103.882812 L 41.710938 121.261719 "/>
<path fill="none" stroke-width="6.28999" stroke-linecap="round" stroke-linejoin="round" stroke="rgb(0%, 0%, 0%)" stroke-opacity="1" stroke-miterlimit="10" d="M 430.117188 1188.164062 L 711.054688 971.171875 L 417.109375 797.382812 Z M 430.117188 1188.164062 " transform="matrix(0.1, 0, 0, -0.1, 0, 201)"/>
<path fill-rule="nonzero" fill="rgb(77.734375%, 60.9375%, 67.1875%)" fill-opacity="1" d="M 76.535156 66.136719 L 71.105469 103.882812 L 43.011719 82.183594 "/>
<path fill="none" stroke-width="6.28999" stroke-linecap="round" stroke-linejoin="round" stroke="rgb(0%, 0%, 0%)" stroke-opacity="1" stroke-miterlimit="10" d="M 765.351562 1348.632812 L 711.054688 971.171875 L 430.117188 1188.164062 Z M 765.351562 1348.632812 " transform="matrix(0.1, 0, 0, -0.1, 0, 201)"/>
<path fill-rule="nonzero" fill="rgb(79.492188%, 58.006287%, 61.326599%)" fill-opacity="1" d="M 52.242188 45.644531 L 76.535156 66.136719 L 43.011719 82.183594 "/>
<path fill="none" stroke-width="6.28999" stroke-linecap="round" stroke-linejoin="round" stroke="rgb(0%, 0%, 0%)" stroke-opacity="1" stroke-miterlimit="10" d="M 522.421875 1553.554688 L 765.351562 1348.632812 L 430.117188 1188.164062 Z M 522.421875 1553.554688 " transform="matrix(0.1, 0, 0, -0.1, 0, 201)"/>
<path fill-rule="nonzero" fill="rgb(72.068787%, 45.996094%, 52.929688%)" fill-opacity="1" d="M 76.535156 66.136719 L 52.242188 45.644531 L 112.683594 23.867188 "/>
<path fill="none" stroke-width="6.28999" stroke-linecap="round" stroke-linejoin="round" stroke="rgb(0%, 0%, 0%)" stroke-opacity="1" stroke-miterlimit="10" d="M 765.351562 1348.632812 L 522.421875 1553.554688 " transform="matrix(0.1, 0, 0, -0.1, 0, 201)"/>
<path fill-rule="nonzero" fill="rgb(72.068787%, 45.996094%, 52.929688%)" fill-opacity="1" stroke-width="6.28999" stroke-linecap="round" stroke-linejoin="round" stroke="rgb(0%, 0%, 0%)" stroke-opacity="1" stroke-miterlimit="10" d="M 1126.835938 1771.328125 L 1126.640625 1476.757812 L 765.351562 1348.632812 " transform="matrix(0.1, 0, 0, -0.1, 0, 201)"/>
<path fill-rule="nonzero" fill="rgb(61.521912%, 57.8125%, 78.90625%)" fill-opacity="1" d="M 148.734375 144.109375 L 112.246094 149.148438 L 131.710938 116.65625 "/>
<path fill="none" stroke-width="6.28999" stroke-linecap="round" stroke-linejoin="round" stroke="rgb(0%, 0%, 0%)" stroke-opacity="1" stroke-miterlimit="10" d="M 1487.34375 568.90625 L 1122.460938 518.515625 L 1317.109375 843.4375 Z M 1487.34375 568.90625 " transform="matrix(0.1, 0, 0, -0.1, 0, 201)"/>
<path fill-rule="nonzero" fill="rgb(58.201599%, 48.193359%, 70.506287%)" fill-opacity="1" d="M 163.902344 107.449219 L 131.710938 116.65625 L 141.261719 79.496094 "/>
<path fill="none" stroke-width="6.28999" stroke-linecap="round" stroke-linejoin="round" stroke="rgb(0%, 0%, 0%)" stroke-opacity="1" stroke-miterlimit="10" d="M 1639.023438 935.507812 L 1317.109375 843.4375 L 1412.617188 1215.039062 Z M 1639.023438 935.507812 " transform="matrix(0.1, 0, 0, -0.1, 0, 201)"/>
<path fill-rule="nonzero" fill="rgb(56.25%, 51.171875%, 75.584412%)" fill-opacity="1" d="M 163.902344 107.449219 L 148.734375 144.109375 L 131.710938 116.65625 "/>
<path fill="none" stroke-width="6.28999" stroke-linecap="round" stroke-linejoin="round" stroke="rgb(0%, 0%, 0%)" stroke-opacity="1" stroke-miterlimit="10" d="M 1639.023438 935.507812 L 1487.34375 568.90625 L 1317.109375 843.4375 Z M 1639.023438 935.507812 " transform="matrix(0.1, 0, 0, -0.1, 0, 201)"/>
<path fill-rule="nonzero" fill="rgb(60.742188%, 41.796875%, 59.959412%)" fill-opacity="1" d="M 145.609375 45.882812 L 141.261719 79.496094 L 112.664062 53.324219 "/>
<path fill="none" stroke-width="6.28999" stroke-linecap="round" stroke-linejoin="round" stroke="rgb(0%, 0%, 0%)" stroke-opacity="1" stroke-miterlimit="10" d="M 1456.09375 1551.171875 L 1412.617188 1215.039062 L 1126.640625 1476.757812 Z M 1456.09375 1551.171875 " transform="matrix(0.1, 0, 0, -0.1, 0, 201)"/>
<path fill-rule="nonzero" fill="rgb(61.326599%, 37.205505%, 52.734375%)" fill-opacity="1" d="M 112.683594 23.867188 L 145.609375 45.882812 L 112.664062 53.324219 "/>
<path fill="none" stroke-width="6.28999" stroke-linecap="round" stroke-linejoin="round" stroke="rgb(0%, 0%, 0%)" stroke-opacity="1" stroke-miterlimit="10" d="M 1126.835938 1771.328125 L 1456.09375 1551.171875 L 1126.640625 1476.757812 Z M 1126.835938 1771.328125 " transform="matrix(0.1, 0, 0, -0.1, 0, 201)"/>
<path fill-rule="nonzero" fill="rgb(45.800781%, 31.297302%, 59.568787%)" fill-opacity="1" stroke-width="6.28999" stroke-linecap="round" stroke-linejoin="round" stroke="rgb(0%, 0%, 0%)" stroke-opacity="1" stroke-miterlimit="10" d="M 1412.617188 1215.039062 L 1456.09375 1551.171875 L 1723.710938 1488.90625 " transform="matrix(0.1, 0, 0, -0.1, 0, 201)"/>
<path fill-rule="nonzero" fill="rgb(45.800781%, 31.297302%, 59.568787%)" fill-opacity="1" d="M 163.902344 107.449219 L 141.261719 79.496094 L 172.371094 52.109375 "/>
<path fill="none" stroke-width="6.28999" stroke-linecap="round" stroke-linejoin="round" stroke="rgb(0%, 0%, 0%)" stroke-opacity="1" stroke-miterlimit="10" d="M 1639.023438 935.507812 L 1412.617188 1215.039062 " transform="matrix(0.1, 0, 0, -0.1, 0, 201)"/>
<path fill-rule="nonzero" fill="rgb(70.896912%, 69.53125%, 83.59375%)" fill-opacity="1" d="M 85.988281 171.015625 L 74.320312 140.996094 L 112.246094 149.148438 "/>
<path fill="none" stroke-width="6.28999" stroke-linecap="round" stroke-linejoin="round" stroke="rgb(0%, 0%, 0%)" stroke-opacity="1" stroke-miterlimit="10" d="M 859.882812 299.84375 L 743.203125 600.039062 L 1122.460938 518.515625 Z M 859.882812 299.84375 " transform="matrix(0.1, 0, 0, -0.1, 0, 201)"/>
<path fill-rule="nonzero" fill="rgb(76.171875%, 75.584412%, 84.764099%)" fill-opacity="1" d="M 48.660156 156.398438 L 74.320312 140.996094 L 85.988281 171.015625 "/>
<path fill="none" stroke-width="6.28999" stroke-linecap="round" stroke-linejoin="round" stroke="rgb(0%, 0%, 0%)" stroke-opacity="1" stroke-miterlimit="10" d="M 486.601562 446.015625 L 743.203125 600.039062 L 859.882812 299.84375 Z M 486.601562 446.015625 " transform="matrix(0.1, 0, 0, -0.1, 0, 201)"/>
<path fill-rule="nonzero" fill="rgb(80.271912%, 74.414062%, 80.076599%)" fill-opacity="1" d="M 41.710938 121.261719 L 74.320312 140.996094 L 48.660156 156.398438 "/>
<path fill="none" stroke-width="6.28999" stroke-linecap="round" stroke-linejoin="round" stroke="rgb(0%, 0%, 0%)" stroke-opacity="1" stroke-miterlimit="10" d="M 417.109375 797.382812 L 743.203125 600.039062 L 486.601562 446.015625 Z M 417.109375 797.382812 " transform="matrix(0.1, 0, 0, -0.1, 0, 201)"/>
<path fill-rule="nonzero" fill="rgb(59.179688%, 61.71875%, 84.764099%)" fill-opacity="1" d="M 125.269531 173.046875 L 112.246094 149.148438 L 148.734375 144.109375 "/>
<path fill="none" stroke-width="6.28999" stroke-linecap="round" stroke-linejoin="round" stroke="rgb(0%, 0%, 0%)" stroke-opacity="1" stroke-miterlimit="10" d="M 1252.695312 279.53125 L 1122.460938 518.515625 L 1487.34375 568.90625 Z M 1252.695312 279.53125 " transform="matrix(0.1, 0, 0, -0.1, 0, 201)"/>
<path fill-rule="nonzero" fill="rgb(64.84375%, 68.943787%, 87.5%)" fill-opacity="1" d="M 125.269531 173.046875 L 85.988281 171.015625 L 112.246094 149.148438 "/>
<path fill="none" stroke-width="6.28999" stroke-linecap="round" stroke-linejoin="round" stroke="rgb(0%, 0%, 0%)" stroke-opacity="1" stroke-miterlimit="10" d="M 1252.695312 279.53125 L 859.882812 299.84375 L 1122.460938 518.515625 Z M 1252.695312 279.53125 " transform="matrix(0.1, 0, 0, -0.1, 0, 201)"/>
<path fill-rule="nonzero" fill="rgb(91.014099%, 74.804688%, 66.601562%)" fill-opacity="1" stroke-width="6.28999" stroke-linecap="round" stroke-linejoin="round" stroke="rgb(0%, 0%, 0%)" stroke-opacity="1" stroke-miterlimit="10" d="M 223.046875 1354.257812 L 430.117188 1188.164062 L 417.109375 797.382812 " transform="matrix(0.1, 0, 0, -0.1, 0, 201)"/>
<path fill-rule="nonzero" fill="rgb(85.15625%, 61.326599%, 57.8125%)" fill-opacity="1" d="M 52.242188 45.644531 L 43.011719 82.183594 L 22.304688 65.574219 "/>
<path fill="none" stroke-width="6.28999" stroke-linecap="round" stroke-linejoin="round" stroke="rgb(0%, 0%, 0%)" stroke-opacity="1" stroke-miterlimit="10" d="M 522.421875 1553.554688 L 430.117188 1188.164062 L 223.046875 1354.257812 Z M 522.421875 1553.554688 " transform="matrix(0.1, 0, 0, -0.1, 0, 201)"/>
<path fill-rule="nonzero" fill="rgb(86.326599%, 80.664062%, 79.296875%)" fill-opacity="1" d="M 19.945312 131.640625 L 41.710938 121.261719 L 48.660156 156.398438 "/>
<path fill="none" stroke-width="6.28999" stroke-linecap="round" stroke-linejoin="round" stroke="rgb(0%, 0%, 0%)" stroke-opacity="1" stroke-miterlimit="10" d="M 199.453125 693.59375 L 417.109375 797.382812 L 486.601562 446.015625 Z M 199.453125 693.59375 " transform="matrix(0.1, 0, 0, -0.1, 0, 201)"/>
<path fill-rule="nonzero" fill="rgb(91.014099%, 74.804688%, 66.601562%)" fill-opacity="1" d="M 41.710938 121.261719 L 19.945312 131.640625 L 22.304688 65.574219 "/>
<path fill="none" stroke-width="6.28999" stroke-linecap="round" stroke-linejoin="round" stroke="rgb(0%, 0%, 0%)" stroke-opacity="1" stroke-miterlimit="10" d="M 417.109375 797.382812 L 199.453125 693.59375 " transform="matrix(0.1, 0, 0, -0.1, 0, 201)"/>
<path fill-rule="nonzero" fill="rgb(45.506287%, 45.092773%, 76.5625%)" fill-opacity="1" d="M 176.277344 132.464844 L 148.734375 144.109375 L 163.902344 107.449219 "/>
<path fill="none" stroke-width="6.28999" stroke-linecap="round" stroke-linejoin="round" stroke="rgb(0%, 0%, 0%)" stroke-opacity="1" stroke-miterlimit="10" d="M 1762.773438 685.351562 L 1487.34375 568.90625 L 1639.023438 935.507812 Z M 1762.773438 685.351562 " transform="matrix(0.1, 0, 0, -0.1, 0, 201)"/>
<path fill-rule="nonzero" fill="rgb(34.593201%, 32.104492%, 68.943787%)" fill-opacity="1" d="M 184.085938 91.863281 L 176.277344 132.464844 L 163.902344 107.449219 "/>
<path fill="none" stroke-width="6.28999" stroke-linecap="round" stroke-linejoin="round" stroke="rgb(0%, 0%, 0%)" stroke-opacity="1" stroke-miterlimit="10" d="M 1840.859375 1091.367188 L 1762.773438 685.351562 L 1639.023438 935.507812 Z M 1840.859375 1091.367188 " transform="matrix(0.1, 0, 0, -0.1, 0, 201)"/>
<path fill-rule="nonzero" fill="rgb(45.800781%, 31.297302%, 59.568787%)" fill-opacity="1" stroke-width="6.28999" stroke-linecap="round" stroke-linejoin="round" stroke="rgb(0%, 0%, 0%)" stroke-opacity="1" stroke-miterlimit="10" d="M 1723.710938 1488.90625 L 1840.859375 1091.367188 L 1639.023438 935.507812 " transform="matrix(0.1, 0, 0, -0.1, 0, 201)"/>
<path fill-rule="nonzero" fill="rgb(30.200195%, 49.291992%, 87.889099%)" fill-opacity="1" stroke-width="6.28999" stroke-linecap="round" stroke-linejoin="round" stroke="rgb(0%, 0%, 0%)" stroke-opacity="1" stroke-miterlimit="10" d="M 1487.34375 568.90625 L 1762.773438 685.351562 L 1704.453125 457.734375 " transform="matrix(0.1, 0, 0, -0.1, 0, 201)"/>
<path fill-rule="nonzero" fill="rgb(30.200195%, 49.291992%, 87.889099%)" fill-opacity="1" d="M 125.269531 173.046875 L 148.734375 144.109375 L 170.445312 155.226562 "/>
<path fill="none" stroke-width="6.28999" stroke-linecap="round" stroke-linejoin="round" stroke="rgb(0%, 0%, 0%)" stroke-opacity="1" stroke-miterlimit="10" d="M 1252.695312 279.53125 L 1487.34375 568.90625 " transform="matrix(0.1, 0, 0, -0.1, 0, 201)"/>
<path fill-rule="nonzero" fill="rgb(86.914062%, 55.271912%, 44.798279%)" fill-opacity="1" d="M 38.230469 31.675781 L 52.242188 45.644531 L 22.304688 65.574219 "/>
<path fill="none" stroke-width="6.28999" stroke-linecap="round" stroke-linejoin="round" stroke="rgb(0%, 0%, 0%)" stroke-opacity="1" stroke-miterlimit="10" d="M 382.304688 1693.242188 L 522.421875 1553.554688 L 223.046875 1354.257812 Z M 382.304688 1693.242188 " transform="matrix(0.1, 0, 0, -0.1, 0, 201)"/>
<path fill-rule="nonzero" fill="rgb(80.271912%, 44.700623%, 38.305664%)" fill-opacity="1" d="M 74.261719 18.480469 L 52.242188 45.644531 L 38.230469 31.675781 "/>
<path fill="none" stroke-width="6.28999" stroke-linecap="round" stroke-linejoin="round" stroke="rgb(0%, 0%, 0%)" stroke-opacity="1" stroke-miterlimit="10" d="M 742.617188 1825.195312 L 522.421875 1553.554688 L 382.304688 1693.242188 Z M 742.617188 1825.195312 " transform="matrix(0.1, 0, 0, -0.1, 0, 201)"/>
<path fill-rule="nonzero" fill="rgb(72.068787%, 45.996094%, 52.929688%)" fill-opacity="1" stroke-width="6.28999" stroke-linecap="round" stroke-linejoin="round" stroke="rgb(0%, 0%, 0%)" stroke-opacity="1" stroke-miterlimit="10" d="M 522.421875 1553.554688 L 742.617188 1825.195312 L 1126.835938 1771.328125 " transform="matrix(0.1, 0, 0, -0.1, 0, 201)"/>
<path fill-rule="nonzero" fill="rgb(51.756287%, 22.192383%, 40.501404%)" fill-opacity="1" d="M 143.535156 22.109375 L 145.609375 45.882812 L 112.683594 23.867188 "/>
<path fill="none" stroke-width="6.28999" stroke-linecap="round" stroke-linejoin="round" stroke="rgb(0%, 0%, 0%)" stroke-opacity="1" stroke-miterlimit="10" d="M 1435.351562 1788.90625 L 1456.09375 1551.171875 L 1126.835938 1771.328125 Z M 1435.351562 1788.90625 " transform="matrix(0.1, 0, 0, -0.1, 0, 201)"/>
<path fill-rule="nonzero" fill="rgb(38.401794%, 11.401367%, 37.693787%)" fill-opacity="1" d="M 172.371094 52.109375 L 145.609375 45.882812 L 143.535156 22.109375 "/>
<path fill="none" stroke-width="6.28999" stroke-linecap="round" stroke-linejoin="round" stroke="rgb(0%, 0%, 0%)" stroke-opacity="1" stroke-miterlimit="10" d="M 1723.710938 1488.90625 L 1456.09375 1551.171875 L 1435.351562 1788.90625 Z M 1723.710938 1488.90625 " transform="matrix(0.1, 0, 0, -0.1, 0, 201)"/>
<path fill-rule="nonzero" fill="rgb(60.9375%, 75.78125%, 94.921875%)" fill-opacity="1" d="M 97.304688 188.460938 L 85.988281 171.015625 L 125.269531 173.046875 "/>
<path fill="none" stroke-width="6.28999" stroke-linecap="round" stroke-linejoin="round" stroke="rgb(0%, 0%, 0%)" stroke-opacity="1" stroke-miterlimit="10" d="M 973.046875 125.390625 L 859.882812 299.84375 L 1252.695312 279.53125 Z M 973.046875 125.390625 " transform="matrix(0.1, 0, 0, -0.1, 0, 201)"/>
<path fill-rule="nonzero" fill="rgb(72.65625%, 92.1875%, 95.896912%)" fill-opacity="1" stroke-width="6.28999" stroke-linecap="round" stroke-linejoin="round" stroke="rgb(0%, 0%, 0%)" stroke-opacity="1" stroke-miterlimit="10" d="M 859.882812 299.84375 L 973.046875 125.390625 L 644.765625 165.742188 " transform="matrix(0.1, 0, 0, -0.1, 0, 201)"/>
<path fill-rule="nonzero" fill="rgb(72.65625%, 92.1875%, 95.896912%)" fill-opacity="1" d="M 48.660156 156.398438 L 85.988281 171.015625 L 64.476562 184.425781 "/>
<path fill="none" stroke-width="6.28999" stroke-linecap="round" stroke-linejoin="round" stroke="rgb(0%, 0%, 0%)" stroke-opacity="1" stroke-miterlimit="10" d="M 486.601562 446.015625 L 859.882812 299.84375 " transform="matrix(0.1, 0, 0, -0.1, 0, 201)"/>
<path fill-rule="nonzero" fill="rgb(61.326599%, 21.409607%, 26.196289%)" fill-opacity="1" d="M 105.5 7.183594 L 112.683594 23.867188 L 74.261719 18.480469 "/>
<path fill="none" stroke-width="6.28999" stroke-linecap="round" stroke-linejoin="round" stroke="rgb(0%, 0%, 0%)" stroke-opacity="1" stroke-miterlimit="10" d="M 1055 1938.164062 L 1126.835938 1771.328125 L 742.617188 1825.195312 Z M 1055 1938.164062 " transform="matrix(0.1, 0, 0, -0.1, 0, 201)"/>
<path fill-rule="nonzero" fill="rgb(47.410583%, 7.495117%, 20.188904%)" fill-opacity="1" d="M 105.5 7.183594 L 143.535156 22.109375 L 112.683594 23.867188 "/>
<path fill="none" stroke-width="6.28999" stroke-linecap="round" stroke-linejoin="round" stroke="rgb(0%, 0%, 0%)" stroke-opacity="1" stroke-miterlimit="10" d="M 1055 1938.164062 L 1435.351562 1788.90625 L 1126.835938 1771.328125 Z M 1055 1938.164062 " transform="matrix(0.1, 0, 0, -0.1, 0, 201)"/>
<path fill-rule="nonzero" fill="rgb(88.671875%, 91.40625%, 83.984375%)" fill-opacity="1" d="M 19.945312 131.640625 L 48.660156 156.398438 L 33.734375 163.660156 "/>
<path fill="none" stroke-width="6.28999" stroke-linecap="round" stroke-linejoin="round" stroke="rgb(0%, 0%, 0%)" stroke-opacity="1" stroke-miterlimit="10" d="M 199.453125 693.59375 L 486.601562 446.015625 L 337.34375 373.398438 Z M 199.453125 693.59375 " transform="matrix(0.1, 0, 0, -0.1, 0, 201)"/>
<path fill-rule="nonzero" fill="rgb(72.65625%, 92.1875%, 95.896912%)" fill-opacity="1" stroke-width="6.28999" stroke-linecap="round" stroke-linejoin="round" stroke="rgb(0%, 0%, 0%)" stroke-opacity="1" stroke-miterlimit="10" d="M 644.765625 165.742188 L 337.34375 373.398438 L 486.601562 446.015625 " transform="matrix(0.1, 0, 0, -0.1, 0, 201)"/>
<path fill-rule="nonzero" fill="rgb(40.209961%, 70.117188%, 98.242188%)" fill-opacity="1" d="M 137.246094 181.4375 L 97.304688 188.460938 L 125.269531 173.046875 "/>
<path fill="none" stroke-width="6.28999" stroke-linecap="round" stroke-linejoin="round" stroke="rgb(0%, 0%, 0%)" stroke-opacity="1" stroke-miterlimit="10" d="M 1372.460938 195.625 L 973.046875 125.390625 L 1252.695312 279.53125 Z M 1372.460938 195.625 " transform="matrix(0.1, 0, 0, -0.1, 0, 201)"/>
<path fill-rule="nonzero" fill="rgb(30.200195%, 49.291992%, 87.889099%)" fill-opacity="1" stroke-width="6.28999" stroke-linecap="round" stroke-linejoin="round" stroke="rgb(0%, 0%, 0%)" stroke-opacity="1" stroke-miterlimit="10" d="M 1704.453125 457.734375 L 1372.460938 195.625 L 1252.695312 279.53125 " transform="matrix(0.1, 0, 0, -0.1, 0, 201)"/>
<path fill-rule="nonzero" fill="rgb(91.014099%, 74.804688%, 66.601562%)" fill-opacity="1" stroke-width="6.28999" stroke-linecap="round" stroke-linejoin="round" stroke="rgb(0%, 0%, 0%)" stroke-opacity="1" stroke-miterlimit="10" d="M 199.453125 693.59375 L 70.195312 1046.40625 L 223.046875 1354.257812 " transform="matrix(0.1, 0, 0, -0.1, 0, 201)"/>
<path fill-rule="nonzero" fill="rgb(97.851562%, 68.164062%, 34.910583%)" fill-opacity="1" d="M 13.972656 57.941406 L 22.304688 65.574219 L 7.019531 96.359375 "/>
<path fill="none" stroke-width="6.28999" stroke-linecap="round" stroke-linejoin="round" stroke="rgb(0%, 0%, 0%)" stroke-opacity="1" stroke-miterlimit="10" d="M 139.726562 1430.585938 L 223.046875 1354.257812 L 70.195312 1046.40625 Z M 139.726562 1430.585938 " transform="matrix(0.1, 0, 0, -0.1, 0, 201)"/>
<path fill-rule="nonzero" fill="rgb(92.381287%, 54.296875%, 25.610352%)" fill-opacity="1" d="M 38.230469 31.675781 L 22.304688 65.574219 L 13.972656 57.941406 "/>
<path fill="none" stroke-width="6.28999" stroke-linecap="round" stroke-linejoin="round" stroke="rgb(0%, 0%, 0%)" stroke-opacity="1" stroke-miterlimit="10" d="M 382.304688 1693.242188 L 223.046875 1354.257812 L 139.726562 1430.585938 Z M 382.304688 1693.242188 " transform="matrix(0.1, 0, 0, -0.1, 0, 201)"/>
<path fill-rule="nonzero" fill="rgb(72.068787%, 22.192383%, 5.299377%)" fill-opacity="1" d="M 65.726562 10.992188 L 74.261719 18.480469 L 38.230469 31.675781 "/>
<path fill="none" stroke-width="6.28999" stroke-linecap="round" stroke-linejoin="round" stroke="rgb(0%, 0%, 0%)" stroke-opacity="1" stroke-miterlimit="10" d="M 657.265625 1900.078125 L 742.617188 1825.195312 L 382.304688 1693.242188 Z M 657.265625 1900.078125 " transform="matrix(0.1, 0, 0, -0.1, 0, 201)"/>
<path fill-rule="nonzero" fill="rgb(55.46875%, 2.099609%, 0%)" fill-opacity="1" d="M 105.5 7.183594 L 74.261719 18.480469 L 65.726562 10.992188 "/>
<path fill="none" stroke-width="6.28999" stroke-linecap="round" stroke-linejoin="round" stroke="rgb(0%, 0%, 0%)" stroke-opacity="1" stroke-miterlimit="10" d="M 1055 1938.164062 L 742.617188 1825.195312 L 657.265625 1900.078125 Z M 1055 1938.164062 " transform="matrix(0.1, 0, 0, -0.1, 0, 201)"/>
<path fill-rule="nonzero" fill="rgb(90.818787%, 97.851562%, 70.117188%)" fill-opacity="1" d="M 11.257812 131.957031 L 19.945312 131.640625 L 33.734375 163.660156 "/>
<path fill="none" stroke-width="6.28999" stroke-linecap="round" stroke-linejoin="round" stroke="rgb(0%, 0%, 0%)" stroke-opacity="1" stroke-miterlimit="10" d="M 112.578125 690.429688 L 199.453125 693.59375 L 337.34375 373.398438 Z M 112.578125 690.429688 " transform="matrix(0.1, 0, 0, -0.1, 0, 201)"/>
<path fill-rule="nonzero" fill="rgb(97.65625%, 91.014099%, 57.8125%)" fill-opacity="1" d="M 7.019531 96.359375 L 19.945312 131.640625 L 11.257812 131.957031 "/>
<path fill="none" stroke-width="6.28999" stroke-linecap="round" stroke-linejoin="round" stroke="rgb(0%, 0%, 0%)" stroke-opacity="1" stroke-miterlimit="10" d="M 70.195312 1046.40625 L 199.453125 693.59375 L 112.578125 690.429688 Z M 70.195312 1046.40625 " transform="matrix(0.1, 0, 0, -0.1, 0, 201)"/>
<path fill-rule="nonzero" fill="rgb(0%, 5.699158%, 57.617188%)" fill-opacity="1" d="M 188.429688 115.757812 L 176.277344 132.464844 L 184.085938 91.863281 "/>
<path fill="none" stroke-width="6.28999" stroke-linecap="round" stroke-linejoin="round" stroke="rgb(0%, 0%, 0%)" stroke-opacity="1" stroke-miterlimit="10" d="M 1884.296875 852.421875 L 1762.773438 685.351562 L 1840.859375 1091.367188 Z M 1884.296875 852.421875 " transform="matrix(0.1, 0, 0, -0.1, 0, 201)"/>
<path fill-rule="nonzero" fill="rgb(0%, 0%, 55.076599%)" fill-opacity="1" d="M 170.445312 155.226562 L 176.277344 132.464844 L 188.429688 115.757812 "/>
<path fill="none" stroke-width="6.28999" stroke-linecap="round" stroke-linejoin="round" stroke="rgb(0%, 0%, 0%)" stroke-opacity="1" stroke-miterlimit="10" d="M 1704.453125 457.734375 L 1762.773438 685.351562 L 1884.296875 852.421875 Z M 1704.453125 457.734375 " transform="matrix(0.1, 0, 0, -0.1, 0, 201)"/>
<path fill-rule="nonzero" fill="rgb(0%, 0%, 28.588867%)" fill-opacity="1" d="M 186.367188 72.363281 L 184.085938 91.863281 L 172.371094 52.109375 "/>
<path fill="none" stroke-width="6.28999" stroke-linecap="round" stroke-linejoin="round" stroke="rgb(0%, 0%, 0%)" stroke-opacity="1" stroke-miterlimit="10" d="M 1863.671875 1286.367188 L 1840.859375 1091.367188 L 1723.710938 1488.90625 Z M 1863.671875 1286.367188 " transform="matrix(0.1, 0, 0, -0.1, 0, 201)"/>
<path fill-rule="nonzero" fill="rgb(0%, 0%, 19.309998%)" fill-opacity="1" d="M 186.367188 72.363281 L 188.429688 115.757812 L 184.085938 91.863281 "/>
<path fill="none" stroke-width="6.28999" stroke-linecap="round" stroke-linejoin="round" stroke="rgb(0%, 0%, 0%)" stroke-opacity="1" stroke-miterlimit="10" d="M 1863.671875 1286.367188 L 1884.296875 852.421875 L 1840.859375 1091.367188 Z M 1863.671875 1286.367188 " transform="matrix(0.1, 0, 0, -0.1, 0, 201)"/>
<path fill-rule="nonzero" fill="rgb(0%, 0%, 0%)" fill-opacity="1" d="M 164.503906 34.648438 L 172.371094 52.109375 L 143.535156 22.109375 "/>
<path fill="none" stroke-width="6.28999" stroke-linecap="round" stroke-linejoin="round" stroke="rgb(0%, 0%, 0%)" stroke-opacity="1" stroke-miterlimit="10" d="M 1645.039062 1663.515625 L 1723.710938 1488.90625 L 1435.351562 1788.90625 Z M 1645.039062 1663.515625 " transform="matrix(0.1, 0, 0, -0.1, 0, 201)"/>
<path fill-rule="nonzero" fill="rgb(0%, 0%, 0%)" fill-opacity="1" d="M 164.503906 34.648438 L 186.367188 72.363281 L 172.371094 52.109375 "/>
<path fill="none" stroke-width="6.28999" stroke-linecap="round" stroke-linejoin="round" stroke="rgb(0%, 0%, 0%)" stroke-opacity="1" stroke-miterlimit="10" d="M 1645.039062 1663.515625 L 1863.671875 1286.367188 L 1723.710938 1488.90625 Z M 1645.039062 1663.515625 " transform="matrix(0.1, 0, 0, -0.1, 0, 201)"/>
<path fill-rule="nonzero" fill="rgb(50.78125%, 91.014099%, 85.9375%)" fill-opacity="1" d="M 143.535156 22.109375 L 105.5 7.183594 L 137.894531 27.195312 "/>
<path fill="none" stroke-width="6.28999" stroke-linecap="round" stroke-linejoin="round" stroke="rgb(0%, 0%, 0%)" stroke-opacity="1" stroke-miterlimit="10" d="M 1435.351562 1788.90625 L 1055 1938.164062 " transform="matrix(0.1, 0, 0, -0.1, 0, 201)"/>
<path fill-rule="nonzero" fill="rgb(50.78125%, 91.014099%, 85.9375%)" fill-opacity="1" stroke-width="6.28999" stroke-linecap="round" stroke-linejoin="round" stroke="rgb(0%, 0%, 0%)" stroke-opacity="1" stroke-miterlimit="10" d="M 1378.945312 1738.046875 L 1645.039062 1663.515625 L 1435.351562 1788.90625 " transform="matrix(0.1, 0, 0, -0.1, 0, 201)"/>
<path fill-rule="nonzero" fill="rgb(0%, 29.492188%, 78.514099%)" fill-opacity="1" d="M 38.230469 31.675781 L 13.972656 57.941406 L 59.519531 24.152344 "/>
<path fill="none" stroke-width="6.28999" stroke-linecap="round" stroke-linejoin="round" stroke="rgb(0%, 0%, 0%)" stroke-opacity="1" stroke-miterlimit="10" d="M 382.304688 1693.242188 L 139.726562 1430.585938 " transform="matrix(0.1, 0, 0, -0.1, 0, 201)"/>
<path fill-rule="nonzero" fill="rgb(0%, 29.492188%, 78.514099%)" fill-opacity="1" stroke-width="6.28999" stroke-linecap="round" stroke-linejoin="round" stroke="rgb(0%, 0%, 0%)" stroke-opacity="1" stroke-miterlimit="10" d="M 595.195312 1768.476562 L 657.265625 1900.078125 L 382.304688 1693.242188 " transform="matrix(0.1, 0, 0, -0.1, 0, 201)"/>
<path fill-rule="nonzero" fill="rgb(0%, 50.584412%, 74.609375%)" fill-opacity="1" d="M 105.816406 187.742188 L 97.304688 188.460938 L 137.246094 181.4375 "/>
<path fill="none" stroke-width="6.28999" stroke-linecap="round" stroke-linejoin="round" stroke="rgb(0%, 0%, 0%)" stroke-opacity="1" stroke-miterlimit="10" d="M 1058.164062 132.578125 L 973.046875 125.390625 L 1372.460938 195.625 Z M 1058.164062 132.578125 " transform="matrix(0.1, 0, 0, -0.1, 0, 201)"/>
<path fill-rule="nonzero" fill="rgb(3.100586%, 0%, 0%)" fill-opacity="1" d="M 64.476562 184.425781 L 97.304688 188.460938 L 105.816406 187.742188 "/>
<path fill="none" stroke-width="6.28999" stroke-linecap="round" stroke-linejoin="round" stroke="rgb(0%, 0%, 0%)" stroke-opacity="1" stroke-miterlimit="10" d="M 644.765625 165.742188 L 973.046875 125.390625 L 1058.164062 132.578125 Z M 644.765625 165.742188 " transform="matrix(0.1, 0, 0, -0.1, 0, 201)"/>
<path fill-rule="nonzero" fill="rgb(0%, 0%, 0.498962%)" fill-opacity="1" d="M 7.851562 92.726562 L 7.019531 96.359375 L 11.257812 131.957031 "/>
<path fill="none" stroke-width="6.28999" stroke-linecap="round" stroke-linejoin="round" stroke="rgb(0%, 0%, 0%)" stroke-opacity="1" stroke-miterlimit="10" d="M 78.515625 1082.734375 L 70.195312 1046.40625 L 112.578125 690.429688 Z M 78.515625 1082.734375 " transform="matrix(0.1, 0, 0, -0.1, 0, 201)"/>
<path fill-rule="nonzero" fill="rgb(0%, 0%, 13.597107%)" fill-opacity="1" d="M 13.972656 57.941406 L 7.019531 96.359375 L 7.851562 92.726562 "/>
<path fill="none" stroke-width="6.28999" stroke-linecap="round" stroke-linejoin="round" stroke="rgb(0%, 0%, 0%)" stroke-opacity="1" stroke-miterlimit="10" d="M 139.726562 1430.585938 L 70.195312 1046.40625 L 78.515625 1082.734375 Z M 139.726562 1430.585938 " transform="matrix(0.1, 0, 0, -0.1, 0, 201)"/>
<path fill-rule="nonzero" fill="rgb(5.39856%, 61.326599%, 80.664062%)" fill-opacity="1" d="M 99.871094 9.390625 L 105.5 7.183594 L 65.726562 10.992188 "/>
<path fill="none" stroke-width="6.28999" stroke-linecap="round" stroke-linejoin="round" stroke="rgb(0%, 0%, 0%)" stroke-opacity="1" stroke-miterlimit="10" d="M 998.710938 1916.09375 L 1055 1938.164062 L 657.265625 1900.078125 Z M 998.710938 1916.09375 " transform="matrix(0.1, 0, 0, -0.1, 0, 201)"/>
<path fill-rule="nonzero" fill="rgb(50.78125%, 91.014099%, 85.9375%)" fill-opacity="1" stroke-width="6.28999" stroke-linecap="round" stroke-linejoin="round" stroke="rgb(0%, 0%, 0%)" stroke-opacity="1" stroke-miterlimit="10" d="M 1055 1938.164062 L 998.710938 1916.09375 L 1378.945312 1738.046875 " transform="matrix(0.1, 0, 0, -0.1, 0, 201)"/>
<path fill-rule="nonzero" fill="rgb(0%, 0%, 0%)" fill-opacity="1" d="M 34.535156 159.898438 L 33.734375 163.660156 L 64.476562 184.425781 "/>
<path fill="none" stroke-width="6.28999" stroke-linecap="round" stroke-linejoin="round" stroke="rgb(0%, 0%, 0%)" stroke-opacity="1" stroke-miterlimit="10" d="M 345.351562 411.015625 L 337.34375 373.398438 L 644.765625 165.742188 Z M 345.351562 411.015625 " transform="matrix(0.1, 0, 0, -0.1, 0, 201)"/>
<path fill-rule="nonzero" fill="rgb(0%, 0%, 0%)" fill-opacity="1" d="M 11.257812 131.957031 L 33.734375 163.660156 L 34.535156 159.898438 "/>
<path fill="none" stroke-width="6.28999" stroke-linecap="round" stroke-linejoin="round" stroke="rgb(0%, 0%, 0%)" stroke-opacity="1" stroke-miterlimit="10" d="M 112.578125 690.429688 L 337.34375 373.398438 L 345.351562 411.015625 Z M 112.578125 690.429688 " transform="matrix(0.1, 0, 0, -0.1, 0, 201)"/>
<path fill-rule="nonzero" fill="rgb(66.209412%, 11.401367%, 0%)" fill-opacity="1" d="M 145.246094 169.875 L 137.246094 181.4375 L 170.445312 155.226562 "/>
<path fill="none" stroke-width="6.28999" stroke-linecap="round" stroke-linejoin="round" stroke="rgb(0%, 0%, 0%)" stroke-opacity="1" stroke-miterlimit="10" d="M 1452.460938 311.25 L 1372.460938 195.625 L 1704.453125 457.734375 Z M 1452.460938 311.25 " transform="matrix(0.1, 0, 0, -0.1, 0, 201)"/>
<path fill-rule="nonzero" fill="rgb(62.5%, 7.591248%, 0%)" fill-opacity="1" d="M 145.246094 169.875 L 105.816406 187.742188 L 137.246094 181.4375 "/>
<path fill="none" stroke-width="6.28999" stroke-linecap="round" stroke-linejoin="round" stroke="rgb(0%, 0%, 0%)" stroke-opacity="1" stroke-miterlimit="10" d="M 1452.460938 311.25 L 1058.164062 132.578125 L 1372.460938 195.625 Z M 1452.460938 311.25 " transform="matrix(0.1, 0, 0, -0.1, 0, 201)"/>
<path fill-rule="nonzero" fill="rgb(0%, 13.206482%, 65.429688%)" fill-opacity="1" d="M 25.734375 54.785156 L 13.972656 57.941406 L 7.851562 92.726562 "/>
<path fill="none" stroke-width="6.28999" stroke-linecap="round" stroke-linejoin="round" stroke="rgb(0%, 0%, 0%)" stroke-opacity="1" stroke-miterlimit="10" d="M 257.34375 1462.148438 L 139.726562 1430.585938 L 78.515625 1082.734375 Z M 257.34375 1462.148438 " transform="matrix(0.1, 0, 0, -0.1, 0, 201)"/>
<path fill-rule="nonzero" fill="rgb(0%, 29.492188%, 78.514099%)" fill-opacity="1" stroke-width="6.28999" stroke-linecap="round" stroke-linejoin="round" stroke="rgb(0%, 0%, 0%)" stroke-opacity="1" stroke-miterlimit="10" d="M 139.726562 1430.585938 L 257.34375 1462.148438 L 595.195312 1768.476562 " transform="matrix(0.1, 0, 0, -0.1, 0, 201)"/>
<path fill-rule="nonzero" fill="rgb(37.693787%, 69.726562%, 98.242188%)" fill-opacity="1" d="M 99.871094 9.390625 L 65.726562 10.992188 L 59.519531 24.152344 "/>
<path fill="none" stroke-width="6.28999" stroke-linecap="round" stroke-linejoin="round" stroke="rgb(0%, 0%, 0%)" stroke-opacity="1" stroke-miterlimit="10" d="M 998.710938 1916.09375 L 657.265625 1900.078125 L 595.195312 1768.476562 Z M 998.710938 1916.09375 " transform="matrix(0.1, 0, 0, -0.1, 0, 201)"/>
<path fill-rule="nonzero" fill="rgb(92.381287%, 54.881287%, 13.401794%)" fill-opacity="1" d="M 172.9375 134.328125 L 170.445312 155.226562 L 188.429688 115.757812 "/>
<path fill="none" stroke-width="6.28999" stroke-linecap="round" stroke-linejoin="round" stroke="rgb(0%, 0%, 0%)" stroke-opacity="1" stroke-miterlimit="10" d="M 1729.375 666.71875 L 1704.453125 457.734375 L 1884.296875 852.421875 Z M 1729.375 666.71875 " transform="matrix(0.1, 0, 0, -0.1, 0, 201)"/>
<path fill-rule="nonzero" fill="rgb(88.867188%, 48.094177%, 23.28949%)" fill-opacity="1" d="M 172.9375 134.328125 L 145.246094 169.875 L 170.445312 155.226562 "/>
<path fill="none" stroke-width="6.28999" stroke-linecap="round" stroke-linejoin="round" stroke="rgb(0%, 0%, 0%)" stroke-opacity="1" stroke-miterlimit="10" d="M 1729.375 666.71875 L 1452.460938 311.25 L 1704.453125 457.734375 Z M 1729.375 666.71875 " transform="matrix(0.1, 0, 0, -0.1, 0, 201)"/>
<path fill-rule="nonzero" fill="rgb(97.264099%, 79.881287%, 61.131287%)" fill-opacity="1" d="M 188.429688 115.757812 L 186.367188 72.363281 L 160.238281 99.894531 "/>
<path fill="none" stroke-width="6.28999" stroke-linecap="round" stroke-linejoin="round" stroke="rgb(0%, 0%, 0%)" stroke-opacity="1" stroke-miterlimit="10" d="M 1884.296875 852.421875 L 1863.671875 1286.367188 " transform="matrix(0.1, 0, 0, -0.1, 0, 201)"/>
<path fill-rule="nonzero" fill="rgb(97.264099%, 79.881287%, 61.131287%)" fill-opacity="1" stroke-width="6.28999" stroke-linecap="round" stroke-linejoin="round" stroke="rgb(0%, 0%, 0%)" stroke-opacity="1" stroke-miterlimit="10" d="M 1602.382812 1011.054688 L 1729.375 666.71875 L 1884.296875 852.421875 " transform="matrix(0.1, 0, 0, -0.1, 0, 201)"/>
<path fill-rule="nonzero" fill="rgb(32.298279%, 17.601013%, 51.951599%)" fill-opacity="1" d="M 11.257812 131.957031 L 34.535156 159.898438 L 29.765625 94.394531 "/>
<path fill="none" stroke-width="6.28999" stroke-linecap="round" stroke-linejoin="round" stroke="rgb(0%, 0%, 0%)" stroke-opacity="1" stroke-miterlimit="10" d="M 112.578125 690.429688 L 345.351562 411.015625 " transform="matrix(0.1, 0, 0, -0.1, 0, 201)"/>
<path fill-rule="nonzero" fill="rgb(32.298279%, 17.601013%, 51.951599%)" fill-opacity="1" stroke-width="6.28999" stroke-linecap="round" stroke-linejoin="round" stroke="rgb(0%, 0%, 0%)" stroke-opacity="1" stroke-miterlimit="10" d="M 297.65625 1066.054688 L 78.515625 1082.734375 L 112.578125 690.429688 " transform="matrix(0.1, 0, 0, -0.1, 0, 201)"/>
<path fill-rule="nonzero" fill="rgb(93.164062%, 97.068787%, 72.851562%)" fill-opacity="1" d="M 169.328125 60.578125 L 186.367188 72.363281 L 164.503906 34.648438 "/>
<path fill="none" stroke-width="6.28999" stroke-linecap="round" stroke-linejoin="round" stroke="rgb(0%, 0%, 0%)" stroke-opacity="1" stroke-miterlimit="10" d="M 1693.28125 1404.21875 L 1863.671875 1286.367188 L 1645.039062 1663.515625 Z M 1693.28125 1404.21875 " transform="matrix(0.1, 0, 0, -0.1, 0, 201)"/>
<path fill-rule="nonzero" fill="rgb(97.264099%, 79.881287%, 61.131287%)" fill-opacity="1" stroke-width="6.28999" stroke-linecap="round" stroke-linejoin="round" stroke="rgb(0%, 0%, 0%)" stroke-opacity="1" stroke-miterlimit="10" d="M 1863.671875 1286.367188 L 1693.28125 1404.21875 L 1602.382812 1011.054688 " transform="matrix(0.1, 0, 0, -0.1, 0, 201)"/>
<path fill-rule="nonzero" fill="rgb(45.701599%, 1.197815%, 10.105896%)" fill-opacity="1" d="M 72.949219 172.628906 L 64.476562 184.425781 L 105.816406 187.742188 "/>
<path fill="none" stroke-width="6.28999" stroke-linecap="round" stroke-linejoin="round" stroke="rgb(0%, 0%, 0%)" stroke-opacity="1" stroke-miterlimit="10" d="M 729.492188 283.710938 L 644.765625 165.742188 L 1058.164062 132.578125 Z M 729.492188 283.710938 " transform="matrix(0.1, 0, 0, -0.1, 0, 201)"/>
<path fill-rule="nonzero" fill="rgb(35.888672%, 0%, 18.60199%)" fill-opacity="1" d="M 72.949219 172.628906 L 34.535156 159.898438 L 64.476562 184.425781 "/>
<path fill="none" stroke-width="6.28999" stroke-linecap="round" stroke-linejoin="round" stroke="rgb(0%, 0%, 0%)" stroke-opacity="1" stroke-miterlimit="10" d="M 729.492188 283.710938 L 345.351562 411.015625 L 644.765625 165.742188 Z M 729.492188 283.710938 " transform="matrix(0.1, 0, 0, -0.1, 0, 201)"/>
<path fill-rule="nonzero" fill="rgb(87.109375%, 92.771912%, 85.9375%)" fill-opacity="1" d="M 137.894531 27.195312 L 169.328125 60.578125 L 164.503906 34.648438 "/>
<path fill="none" stroke-width="6.28999" stroke-linecap="round" stroke-linejoin="round" stroke="rgb(0%, 0%, 0%)" stroke-opacity="1" stroke-miterlimit="10" d="M 1378.945312 1738.046875 L 1693.28125 1404.21875 L 1645.039062 1663.515625 Z M 1378.945312 1738.046875 " transform="matrix(0.1, 0, 0, -0.1, 0, 201)"/>
<path fill-rule="nonzero" fill="rgb(71.679688%, 40.893555%, 45.605469%)" fill-opacity="1" d="M 105.816406 187.742188 L 145.246094 169.875 L 92.324219 143.417969 "/>
<path fill="none" stroke-width="6.28999" stroke-linecap="round" stroke-linejoin="round" stroke="rgb(0%, 0%, 0%)" stroke-opacity="1" stroke-miterlimit="10" d="M 1058.164062 132.578125 L 1452.460938 311.25 " transform="matrix(0.1, 0, 0, -0.1, 0, 201)"/>
<path fill-rule="nonzero" fill="rgb(71.679688%, 40.893555%, 45.605469%)" fill-opacity="1" stroke-width="6.28999" stroke-linecap="round" stroke-linejoin="round" stroke="rgb(0%, 0%, 0%)" stroke-opacity="1" stroke-miterlimit="10" d="M 923.242188 575.820312 L 729.492188 283.710938 L 1058.164062 132.578125 " transform="matrix(0.1, 0, 0, -0.1, 0, 201)"/>
<path fill-rule="nonzero" fill="rgb(34.202576%, 33.496094%, 70.506287%)" fill-opacity="1" d="M 25.734375 54.785156 L 7.851562 92.726562 L 29.765625 94.394531 "/>
<path fill="none" stroke-width="6.28999" stroke-linecap="round" stroke-linejoin="round" stroke="rgb(0%, 0%, 0%)" stroke-opacity="1" stroke-miterlimit="10" d="M 257.34375 1462.148438 L 78.515625 1082.734375 L 297.65625 1066.054688 Z M 257.34375 1462.148438 " transform="matrix(0.1, 0, 0, -0.1, 0, 201)"/>
<path fill-rule="nonzero" fill="rgb(60.351562%, 72.264099%, 92.771912%)" fill-opacity="1" d="M 97.492188 33.132812 L 99.871094 9.390625 L 59.519531 24.152344 "/>
<path fill="none" stroke-width="6.28999" stroke-linecap="round" stroke-linejoin="round" stroke="rgb(0%, 0%, 0%)" stroke-opacity="1" stroke-miterlimit="10" d="M 974.921875 1678.671875 L 998.710938 1916.09375 L 595.195312 1768.476562 Z M 974.921875 1678.671875 " transform="matrix(0.1, 0, 0, -0.1, 0, 201)"/>
<path fill-rule="nonzero" fill="rgb(70.117188%, 79.6875%, 92.381287%)" fill-opacity="1" d="M 97.492188 33.132812 L 137.894531 27.195312 L 99.871094 9.390625 "/>
<path fill="none" stroke-width="6.28999" stroke-linecap="round" stroke-linejoin="round" stroke="rgb(0%, 0%, 0%)" stroke-opacity="1" stroke-miterlimit="10" d="M 974.921875 1678.671875 L 1378.945312 1738.046875 L 998.710938 1916.09375 Z M 974.921875 1678.671875 " transform="matrix(0.1, 0, 0, -0.1, 0, 201)"/>
<path fill-rule="nonzero" fill="rgb(49.705505%, 23.901367%, 45.288086%)" fill-opacity="1" d="M 47.160156 137.945312 L 34.535156 159.898438 L 72.949219 172.628906 "/>
<path fill="none" stroke-width="6.28999" stroke-linecap="round" stroke-linejoin="round" stroke="rgb(0%, 0%, 0%)" stroke-opacity="1" stroke-miterlimit="10" d="M 471.601562 630.546875 L 345.351562 411.015625 L 729.492188 283.710938 Z M 471.601562 630.546875 " transform="matrix(0.1, 0, 0, -0.1, 0, 201)"/>
<path fill-rule="nonzero" fill="rgb(32.298279%, 17.601013%, 51.951599%)" fill-opacity="1" stroke-width="6.28999" stroke-linecap="round" stroke-linejoin="round" stroke="rgb(0%, 0%, 0%)" stroke-opacity="1" stroke-miterlimit="10" d="M 345.351562 411.015625 L 471.601562 630.546875 L 297.65625 1066.054688 " transform="matrix(0.1, 0, 0, -0.1, 0, 201)"/>
<path fill-rule="nonzero" fill="rgb(84.959412%, 54.881287%, 47.996521%)" fill-opacity="1" d="M 138.820312 141.996094 L 145.246094 169.875 L 172.9375 134.328125 "/>
<path fill="none" stroke-width="6.28999" stroke-linecap="round" stroke-linejoin="round" stroke="rgb(0%, 0%, 0%)" stroke-opacity="1" stroke-miterlimit="10" d="M 1388.203125 590.039062 L 1452.460938 311.25 L 1729.375 666.71875 Z M 1388.203125 590.039062 " transform="matrix(0.1, 0, 0, -0.1, 0, 201)"/>
<path fill-rule="nonzero" fill="rgb(71.679688%, 40.893555%, 45.605469%)" fill-opacity="1" stroke-width="6.28999" stroke-linecap="round" stroke-linejoin="round" stroke="rgb(0%, 0%, 0%)" stroke-opacity="1" stroke-miterlimit="10" d="M 1452.460938 311.25 L 1388.203125 590.039062 L 923.242188 575.820312 " transform="matrix(0.1, 0, 0, -0.1, 0, 201)"/>
<path fill-rule="nonzero" fill="rgb(50.193787%, 48.094177%, 76.5625%)" fill-opacity="1" d="M 57.703125 57.691406 L 25.734375 54.785156 L 29.765625 94.394531 "/>
<path fill="none" stroke-width="6.28999" stroke-linecap="round" stroke-linejoin="round" stroke="rgb(0%, 0%, 0%)" stroke-opacity="1" stroke-miterlimit="10" d="M 577.03125 1433.085938 L 257.34375 1462.148438 L 297.65625 1066.054688 Z M 577.03125 1433.085938 " transform="matrix(0.1, 0, 0, -0.1, 0, 201)"/>
<path fill-rule="nonzero" fill="rgb(50%, 55.076599%, 83.984375%)" fill-opacity="1" d="M 59.519531 24.152344 L 25.734375 54.785156 L 57.703125 57.691406 "/>
<path fill="none" stroke-width="6.28999" stroke-linecap="round" stroke-linejoin="round" stroke="rgb(0%, 0%, 0%)" stroke-opacity="1" stroke-miterlimit="10" d="M 595.195312 1768.476562 L 257.34375 1462.148438 L 577.03125 1433.085938 Z M 595.195312 1768.476562 " transform="matrix(0.1, 0, 0, -0.1, 0, 201)"/>
<path fill-rule="nonzero" fill="rgb(85.546875%, 63.28125%, 59.959412%)" fill-opacity="1" d="M 160.238281 99.894531 L 138.820312 141.996094 L 172.9375 134.328125 "/>
<path fill="none" stroke-width="6.28999" stroke-linecap="round" stroke-linejoin="round" stroke="rgb(0%, 0%, 0%)" stroke-opacity="1" stroke-miterlimit="10" d="M 1602.382812 1011.054688 L 1388.203125 590.039062 L 1729.375 666.71875 Z M 1602.382812 1011.054688 " transform="matrix(0.1, 0, 0, -0.1, 0, 201)"/>
<path fill-rule="nonzero" fill="rgb(60.546875%, 63.671875%, 85.546875%)" fill-opacity="1" d="M 97.492188 33.132812 L 59.519531 24.152344 L 57.703125 57.691406 "/>
<path fill="none" stroke-width="6.28999" stroke-linecap="round" stroke-linejoin="round" stroke="rgb(0%, 0%, 0%)" stroke-opacity="1" stroke-miterlimit="10" d="M 974.921875 1678.671875 L 595.195312 1768.476562 L 577.03125 1433.085938 Z M 974.921875 1678.671875 " transform="matrix(0.1, 0, 0, -0.1, 0, 201)"/>
<path fill-rule="nonzero" fill="rgb(82.8125%, 80.076599%, 82.421875%)" fill-opacity="1" d="M 134.601562 60.800781 L 169.328125 60.578125 L 137.894531 27.195312 "/>
<path fill="none" stroke-width="6.28999" stroke-linecap="round" stroke-linejoin="round" stroke="rgb(0%, 0%, 0%)" stroke-opacity="1" stroke-miterlimit="10" d="M 1346.015625 1401.992188 L 1693.28125 1404.21875 L 1378.945312 1738.046875 Z M 1346.015625 1401.992188 " transform="matrix(0.1, 0, 0, -0.1, 0, 201)"/>
<path fill-rule="nonzero" fill="rgb(75.78125%, 75.193787%, 84.764099%)" fill-opacity="1" d="M 97.492188 33.132812 L 134.601562 60.800781 L 137.894531 27.195312 "/>
<path fill="none" stroke-width="6.28999" stroke-linecap="round" stroke-linejoin="round" stroke="rgb(0%, 0%, 0%)" stroke-opacity="1" stroke-miterlimit="10" d="M 974.921875 1678.671875 L 1346.015625 1401.992188 L 1378.945312 1738.046875 Z M 974.921875 1678.671875 " transform="matrix(0.1, 0, 0, -0.1, 0, 201)"/>
<path fill-rule="nonzero" fill="rgb(84.568787%, 74.414062%, 75.389099%)" fill-opacity="1" d="M 134.601562 60.800781 L 160.238281 99.894531 L 169.328125 60.578125 "/>
<path fill="none" stroke-width="6.28999" stroke-linecap="round" stroke-linejoin="round" stroke="rgb(0%, 0%, 0%)" stroke-opacity="1" stroke-miterlimit="10" d="M 1346.015625 1401.992188 L 1602.382812 1011.054688 L 1693.28125 1404.21875 Z M 1346.015625 1401.992188 " transform="matrix(0.1, 0, 0, -0.1, 0, 201)"/>
<path fill-rule="nonzero" fill="rgb(61.71875%, 38.696289%, 54.6875%)" fill-opacity="1" d="M 92.324219 143.417969 L 47.160156 137.945312 L 72.949219 172.628906 "/>
<path fill="none" stroke-width="6.28999" stroke-linecap="round" stroke-linejoin="round" stroke="rgb(0%, 0%, 0%)" stroke-opacity="1" stroke-miterlimit="10" d="M 923.242188 575.820312 L 471.601562 630.546875 L 729.492188 283.710938 Z M 923.242188 575.820312 " transform="matrix(0.1, 0, 0, -0.1, 0, 201)"/>
<path fill-rule="nonzero" fill="rgb(57.617188%, 44.50531%, 66.40625%)" fill-opacity="1" d="M 29.765625 94.394531 L 47.160156 137.945312 L 69.59375 101.65625 "/>
<path fill="none" stroke-width="6.28999" stroke-linecap="round" stroke-linejoin="round" stroke="rgb(0%, 0%, 0%)" stroke-opacity="1" stroke-miterlimit="10" d="M 297.65625 1066.054688 L 471.601562 630.546875 L 695.9375 993.4375 Z M 297.65625 1066.054688 " transform="matrix(0.1, 0, 0, -0.1, 0, 201)"/>
<path fill-rule="nonzero" fill="rgb(58.984375%, 50.78125%, 73.046875%)" fill-opacity="1" d="M 57.703125 57.691406 L 29.765625 94.394531 L 69.59375 101.65625 "/>
<path fill="none" stroke-width="6.28999" stroke-linecap="round" stroke-linejoin="round" stroke="rgb(0%, 0%, 0%)" stroke-opacity="1" stroke-miterlimit="10" d="M 577.03125 1433.085938 L 297.65625 1066.054688 L 695.9375 993.4375 Z M 577.03125 1433.085938 " transform="matrix(0.1, 0, 0, -0.1, 0, 201)"/>
<path fill-rule="nonzero" fill="rgb(69.921875%, 62.109375%, 76.5625%)" fill-opacity="1" stroke-width="6.28999" stroke-linecap="round" stroke-linejoin="round" stroke="rgb(0%, 0%, 0%)" stroke-opacity="1" stroke-miterlimit="10" d="M 1179.414062 972.929688 L 1346.015625 1401.992188 L 974.921875 1678.671875 " transform="matrix(0.1, 0, 0, -0.1, 0, 201)"/>
<path fill-rule="nonzero" fill="rgb(69.921875%, 62.109375%, 76.5625%)" fill-opacity="1" d="M 69.59375 101.65625 L 117.941406 103.707031 L 97.492188 33.132812 "/>
<path fill="none" stroke-width="6.28999" stroke-linecap="round" stroke-linejoin="round" stroke="rgb(0%, 0%, 0%)" stroke-opacity="1" stroke-miterlimit="10" d="M 695.9375 993.4375 L 1179.414062 972.929688 " transform="matrix(0.1, 0, 0, -0.1, 0, 201)"/>
<path fill-rule="nonzero" fill="rgb(69.921875%, 62.109375%, 76.5625%)" fill-opacity="1" stroke-width="6.28999" stroke-linecap="round" stroke-linejoin="round" stroke="rgb(0%, 0%, 0%)" stroke-opacity="1" stroke-miterlimit="10" d="M 974.921875 1678.671875 L 577.03125 1433.085938 L 695.9375 993.4375 " transform="matrix(0.1, 0, 0, -0.1, 0, 201)"/>
<path fill-rule="nonzero" fill="rgb(63.671875%, 46.508789%, 63.476562%)" fill-opacity="1" d="M 69.59375 101.65625 L 47.160156 137.945312 L 92.324219 143.417969 "/>
<path fill="none" stroke-width="6.28999" stroke-linecap="round" stroke-linejoin="round" stroke="rgb(0%, 0%, 0%)" stroke-opacity="1" stroke-miterlimit="10" d="M 695.9375 993.4375 L 471.601562 630.546875 L 923.242188 575.820312 Z M 695.9375 993.4375 " transform="matrix(0.1, 0, 0, -0.1, 0, 201)"/>
<path fill-rule="nonzero" fill="rgb(79.6875%, 61.71875%, 65.818787%)" fill-opacity="1" d="M 117.941406 103.707031 L 138.820312 141.996094 L 160.238281 99.894531 "/>
<path fill="none" stroke-width="6.28999" stroke-linecap="round" stroke-linejoin="round" stroke="rgb(0%, 0%, 0%)" stroke-opacity="1" stroke-miterlimit="10" d="M 1179.414062 972.929688 L 1388.203125 590.039062 L 1602.382812 1011.054688 Z M 1179.414062 972.929688 " transform="matrix(0.1, 0, 0, -0.1, 0, 201)"/>
<path fill-rule="nonzero" fill="rgb(79.296875%, 66.601562%, 72.459412%)" fill-opacity="1" d="M 134.601562 60.800781 L 117.941406 103.707031 L 160.238281 99.894531 "/>
<path fill="none" stroke-width="6.28999" stroke-linecap="round" stroke-linejoin="round" stroke="rgb(0%, 0%, 0%)" stroke-opacity="1" stroke-miterlimit="10" d="M 1346.015625 1401.992188 L 1179.414062 972.929688 L 1602.382812 1011.054688 Z M 1346.015625 1401.992188 " transform="matrix(0.1, 0, 0, -0.1, 0, 201)"/>
<path fill-rule="nonzero" fill="rgb(74.414062%, 55.076599%, 63.28125%)" fill-opacity="1" d="M 117.941406 103.707031 L 92.324219 143.417969 L 138.820312 141.996094 "/>
<path fill="none" stroke-width="6.28999" stroke-linecap="round" stroke-linejoin="round" stroke="rgb(0%, 0%, 0%)" stroke-opacity="1" stroke-miterlimit="10" d="M 1179.414062 972.929688 L 923.242188 575.820312 L 1388.203125 590.039062 Z M 1179.414062 972.929688 " transform="matrix(0.1, 0, 0, -0.1, 0, 201)"/>
<path fill-rule="nonzero" fill="rgb(69.726562%, 53.709412%, 66.796875%)" fill-opacity="1" d="M 117.941406 103.707031 L 69.59375 101.65625 L 92.324219 143.417969 "/>
<path fill="none" stroke-width="6.28999" stroke-linecap="round" stroke-linejoin="round" stroke="rgb(0%, 0%, 0%)" stroke-opacity="1" stroke-miterlimit="10" d="M 1179.414062 972.929688 L 695.9375 993.4375 L 923.242188 575.820312 Z M 1179.414062 972.929688 " transform="matrix(0.1, 0, 0, -0.1, 0, 201)"/>
</svg>
