<?xml version="1.0" encoding="UTF-8"?>
<svg xmlns="http://www.w3.org/2000/svg" xmlns:xlink="http://www.w3.org/1999/xlink" width="145" height="140" viewBox="0 0 145 140">
<path fill-rule="nonzero" fill="rgb(89.84375%, 75.976562%, 69.921875%)" fill-opacity="1" d="M 66.238281 81.53125 L 76.183594 123.4375 L 86.515625 59.335938 "/>
<path fill="none" stroke-width="4.22137" stroke-linecap="round" stroke-linejoin="round" stroke="rgb(0%, 0%, 0%)" stroke-opacity="1" stroke-miterlimit="10" d="M 662.382812 584.6875 L 761.835938 165.625 L 865.15625 806.640625 Z M 662.382812 584.6875 " transform="matrix(0.1, 0, 0, -0.1, 0, 140)"/>
<path fill-rule="nonzero" fill="rgb(66.40625%, 74.021912%, 90.625%)" fill-opacity="1" d="M 66.238281 81.53125 L 86.515625 59.335938 L 23.691406 76.75 "/>
<path fill="none" stroke-width="4.22137" stroke-linecap="round" stroke-linejoin="round" stroke="rgb(0%, 0%, 0%)" stroke-opacity="1" stroke-miterlimit="10" d="M 662.382812 584.6875 L 865.15625 806.640625 L 236.914062 632.5 Z M 662.382812 584.6875 " transform="matrix(0.1, 0, 0, -0.1, 0, 140)"/>
<path fill-rule="nonzero" fill="rgb(22.192383%, 28.001404%, 71.289062%)" fill-opacity="1" d="M 93.019531 84.550781 L 86.515625 59.335938 L 76.183594 123.4375 "/>
<path fill="none" stroke-width="4.22137" stroke-linecap="round" stroke-linejoin="round" stroke="rgb(0%, 0%, 0%)" stroke-opacity="1" stroke-miterlimit="10" d="M 930.195312 554.492188 L 865.15625 806.640625 L 761.835938 165.625 Z M 930.195312 554.492188 " transform="matrix(0.1, 0, 0, -0.1, 0, 140)"/>
<path fill-rule="nonzero" fill="rgb(66.40625%, 74.021912%, 90.625%)" fill-opacity="1" d="M 93.019531 84.550781 L 137.339844 89.566406 L 86.515625 59.335938 "/>
<path fill="none" stroke-width="4.22137" stroke-linecap="round" stroke-linejoin="round" stroke="rgb(0%, 0%, 0%)" stroke-opacity="1" stroke-miterlimit="10" d="M 930.195312 554.492188 L 1373.398438 504.335938 L 865.15625 806.640625 Z M 930.195312 554.492188 " transform="matrix(0.1, 0, 0, -0.1, 0, 140)"/>
<path fill-rule="nonzero" fill="rgb(75.78125%, 34.593201%, 27.001953%)" fill-opacity="1" d="M 59.988281 55.246094 L 23.691406 76.75 L 86.515625 59.335938 "/>
<path fill="none" stroke-width="4.22137" stroke-linecap="round" stroke-linejoin="round" stroke="rgb(0%, 0%, 0%)" stroke-opacity="1" stroke-miterlimit="10" d="M 599.882812 847.539062 L 236.914062 632.5 L 865.15625 806.640625 Z M 599.882812 847.539062 " transform="matrix(0.1, 0, 0, -0.1, 0, 140)"/>
<path fill-rule="nonzero" fill="rgb(89.84375%, 76.171875%, 69.921875%)" fill-opacity="1" d="M 59.988281 55.246094 L 86.515625 59.335938 L 49.667969 11.914062 "/>
<path fill="none" stroke-width="4.22137" stroke-linecap="round" stroke-linejoin="round" stroke="rgb(0%, 0%, 0%)" stroke-opacity="1" stroke-miterlimit="10" d="M 599.882812 847.539062 L 865.15625 806.640625 L 496.679688 1280.859375 Z M 599.882812 847.539062 " transform="matrix(0.1, 0, 0, -0.1, 0, 140)"/>
<path fill-rule="nonzero" fill="rgb(17.700195%, 0%, 13.696289%)" fill-opacity="1" d="M 103.734375 59.851562 L 86.515625 59.335938 L 137.339844 89.566406 "/>
<path fill="none" stroke-width="4.22137" stroke-linecap="round" stroke-linejoin="round" stroke="rgb(0%, 0%, 0%)" stroke-opacity="1" stroke-miterlimit="10" d="M 1037.34375 801.484375 L 865.15625 806.640625 L 1373.398438 504.335938 Z M 1037.34375 801.484375 " transform="matrix(0.1, 0, 0, -0.1, 0, 140)"/>
<path fill-rule="nonzero" fill="rgb(22.288513%, 28.100586%, 71.289062%)" fill-opacity="1" d="M 103.734375 59.851562 L 121.660156 18.613281 L 86.515625 59.335938 "/>
<path fill="none" stroke-width="4.22137" stroke-linecap="round" stroke-linejoin="round" stroke="rgb(0%, 0%, 0%)" stroke-opacity="1" stroke-miterlimit="10" d="M 1037.34375 801.484375 L 1216.601562 1213.867188 L 865.15625 806.640625 Z M 1037.34375 801.484375 " transform="matrix(0.1, 0, 0, -0.1, 0, 140)"/>
<path fill-rule="nonzero" fill="rgb(75.78125%, 34.692383%, 27.098083%)" fill-opacity="1" d="M 83.070312 41.546875 L 86.515625 59.335938 L 121.660156 18.613281 "/>
<path fill="none" stroke-width="4.22137" stroke-linecap="round" stroke-linejoin="round" stroke="rgb(0%, 0%, 0%)" stroke-opacity="1" stroke-miterlimit="10" d="M 830.703125 984.53125 L 865.15625 806.640625 L 1216.601562 1213.867188 Z M 830.703125 984.53125 " transform="matrix(0.1, 0, 0, -0.1, 0, 140)"/>
<path fill-rule="nonzero" fill="rgb(17.601013%, 0%, 13.792419%)" fill-opacity="1" d="M 83.070312 41.546875 L 49.667969 11.914062 L 86.515625 59.335938 "/>
<path fill="none" stroke-width="4.22137" stroke-linecap="round" stroke-linejoin="round" stroke="rgb(0%, 0%, 0%)" stroke-opacity="1" stroke-miterlimit="10" d="M 830.703125 984.53125 L 496.679688 1280.859375 L 865.15625 806.640625 Z M 830.703125 984.53125 " transform="matrix(0.1, 0, 0, -0.1, 0, 140)"/>
<path fill-rule="nonzero" fill="rgb(67.381287%, 52.34375%, 67.381287%)" fill-opacity="1" d="M 66.238281 81.53125 L 23.691406 76.75 L 76.183594 123.4375 "/>
<path fill="none" stroke-width="4.22137" stroke-linecap="round" stroke-linejoin="round" stroke="rgb(0%, 0%, 0%)" stroke-opacity="1" stroke-miterlimit="10" d="M 662.382812 584.6875 L 236.914062 632.5 L 761.835938 165.625 Z M 662.382812 584.6875 " transform="matrix(0.1, 0, 0, -0.1, 0, 140)"/>
<path fill-rule="nonzero" fill="rgb(0%, 0%, 0%)" fill-opacity="1" d="M 52.445312 96.628906 L 76.183594 123.4375 L 23.691406 76.75 "/>
<path fill="none" stroke-width="4.22137" stroke-linecap="round" stroke-linejoin="round" stroke="rgb(0%, 0%, 0%)" stroke-opacity="1" stroke-miterlimit="10" d="M 524.453125 433.710938 L 761.835938 165.625 L 236.914062 632.5 Z M 524.453125 433.710938 " transform="matrix(0.1, 0, 0, -0.1, 0, 140)"/>
<path fill-rule="nonzero" fill="rgb(66.40625%, 74.021912%, 90.625%)" fill-opacity="1" d="M 52.445312 96.628906 L 23.691406 76.75 L 27.628906 123.792969 "/>
<path fill="none" stroke-width="4.22137" stroke-linecap="round" stroke-linejoin="round" stroke="rgb(0%, 0%, 0%)" stroke-opacity="1" stroke-miterlimit="10" d="M 524.453125 433.710938 L 236.914062 632.5 L 276.289062 162.070312 Z M 524.453125 433.710938 " transform="matrix(0.1, 0, 0, -0.1, 0, 140)"/>
<path fill-rule="nonzero" fill="rgb(6.199646%, 17.405701%, 66.992188%)" fill-opacity="1" d="M 36.5625 78.742188 L 27.628906 123.792969 L 23.691406 76.75 "/>
<path fill="none" stroke-width="4.22137" stroke-linecap="round" stroke-linejoin="round" stroke="rgb(0%, 0%, 0%)" stroke-opacity="1" stroke-miterlimit="10" d="M 365.625 612.578125 L 276.289062 162.070312 L 236.914062 632.5 Z M 365.625 612.578125 " transform="matrix(0.1, 0, 0, -0.1, 0, 140)"/>
<path fill-rule="nonzero" fill="rgb(67.381287%, 52.34375%, 67.381287%)" fill-opacity="1" d="M 59.988281 55.246094 L 49.667969 11.914062 L 23.691406 76.75 "/>
<path fill="none" stroke-width="4.22137" stroke-linecap="round" stroke-linejoin="round" stroke="rgb(0%, 0%, 0%)" stroke-opacity="1" stroke-miterlimit="10" d="M 599.882812 847.539062 L 496.679688 1280.859375 L 236.914062 632.5 Z M 599.882812 847.539062 " transform="matrix(0.1, 0, 0, -0.1, 0, 140)"/>
<path fill-rule="nonzero" fill="rgb(6.298828%, 17.405701%, 66.992188%)" fill-opacity="1" d="M 41.746094 52.421875 L 23.691406 76.75 L 49.667969 11.914062 "/>
<path fill="none" stroke-width="4.22137" stroke-linecap="round" stroke-linejoin="round" stroke="rgb(0%, 0%, 0%)" stroke-opacity="1" stroke-miterlimit="10" d="M 417.460938 875.78125 L 236.914062 632.5 L 496.679688 1280.859375 Z M 417.460938 875.78125 " transform="matrix(0.1, 0, 0, -0.1, 0, 140)"/>
<path fill-rule="nonzero" fill="rgb(75.78125%, 34.593201%, 27.098083%)" fill-opacity="1" d="M 41.746094 52.421875 L 8.519531 47.257812 L 23.691406 76.75 "/>
<path fill="none" stroke-width="4.22137" stroke-linecap="round" stroke-linejoin="round" stroke="rgb(0%, 0%, 0%)" stroke-opacity="1" stroke-miterlimit="10" d="M 417.460938 875.78125 L 85.195312 927.421875 L 236.914062 632.5 Z M 417.460938 875.78125 " transform="matrix(0.1, 0, 0, -0.1, 0, 140)"/>
<path fill-rule="nonzero" fill="rgb(0%, 0%, 0%)" fill-opacity="1" d="M 36.5625 78.742188 L 23.691406 76.75 L 8.519531 47.257812 "/>
<path fill="none" stroke-width="4.22137" stroke-linecap="round" stroke-linejoin="round" stroke="rgb(0%, 0%, 0%)" stroke-opacity="1" stroke-miterlimit="10" d="M 365.625 612.578125 L 236.914062 632.5 L 85.195312 927.421875 Z M 365.625 612.578125 " transform="matrix(0.1, 0, 0, -0.1, 0, 140)"/>
<path fill-rule="nonzero" fill="rgb(67.381287%, 52.34375%, 67.381287%)" fill-opacity="1" d="M 93.019531 84.550781 L 76.183594 123.4375 L 137.339844 89.566406 "/>
<path fill="none" stroke-width="4.22137" stroke-linecap="round" stroke-linejoin="round" stroke="rgb(0%, 0%, 0%)" stroke-opacity="1" stroke-miterlimit="10" d="M 930.195312 554.492188 L 761.835938 165.625 L 1373.398438 504.335938 Z M 930.195312 554.492188 " transform="matrix(0.1, 0, 0, -0.1, 0, 140)"/>
<path fill-rule="nonzero" fill="rgb(73.242188%, 26.097107%, 12.988281%)" fill-opacity="1" d="M 97.519531 101.925781 L 137.339844 89.566406 L 76.183594 123.4375 "/>
<path fill="none" stroke-width="4.22137" stroke-linecap="round" stroke-linejoin="round" stroke="rgb(0%, 0%, 0%)" stroke-opacity="1" stroke-miterlimit="10" d="M 975.195312 380.742188 L 1373.398438 504.335938 L 761.835938 165.625 Z M 975.195312 380.742188 " transform="matrix(0.1, 0, 0, -0.1, 0, 140)"/>
<path fill-rule="nonzero" fill="rgb(22.410583%, 28.100586%, 71.289062%)" fill-opacity="1" d="M 97.519531 101.925781 L 76.183594 123.4375 L 105.753906 133.664062 "/>
<path fill="none" stroke-width="4.22137" stroke-linecap="round" stroke-linejoin="round" stroke="rgb(0%, 0%, 0%)" stroke-opacity="1" stroke-miterlimit="10" d="M 975.195312 380.742188 L 761.835938 165.625 L 1057.539062 63.359375 Z M 975.195312 380.742188 " transform="matrix(0.1, 0, 0, -0.1, 0, 140)"/>
<path fill-rule="nonzero" fill="rgb(89.84375%, 75.976562%, 69.921875%)" fill-opacity="1" d="M 52.445312 96.628906 L 27.628906 123.792969 L 76.183594 123.4375 "/>
<path fill="none" stroke-width="4.22137" stroke-linecap="round" stroke-linejoin="round" stroke="rgb(0%, 0%, 0%)" stroke-opacity="1" stroke-miterlimit="10" d="M 524.453125 433.710938 L 276.289062 162.070312 L 761.835938 165.625 Z M 524.453125 433.710938 " transform="matrix(0.1, 0, 0, -0.1, 0, 140)"/>
<path fill-rule="nonzero" fill="rgb(73.242188%, 26.097107%, 12.889099%)" fill-opacity="1" d="M 71.699219 109.980469 L 76.183594 123.4375 L 27.628906 123.792969 "/>
<path fill="none" stroke-width="4.22137" stroke-linecap="round" stroke-linejoin="round" stroke="rgb(0%, 0%, 0%)" stroke-opacity="1" stroke-miterlimit="10" d="M 716.992188 300.195312 L 761.835938 165.625 L 276.289062 162.070312 Z M 716.992188 300.195312 " transform="matrix(0.1, 0, 0, -0.1, 0, 140)"/>
<path fill-rule="nonzero" fill="rgb(0%, 0%, 0%)" fill-opacity="1" d="M 71.699219 109.980469 L 105.753906 133.664062 L 76.183594 123.4375 "/>
<path fill="none" stroke-width="4.22137" stroke-linecap="round" stroke-linejoin="round" stroke="rgb(0%, 0%, 0%)" stroke-opacity="1" stroke-miterlimit="10" d="M 716.992188 300.195312 L 1057.539062 63.359375 L 761.835938 165.625 Z M 716.992188 300.195312 " transform="matrix(0.1, 0, 0, -0.1, 0, 140)"/>
<path fill-rule="nonzero" fill="rgb(89.84375%, 75.976562%, 69.921875%)" fill-opacity="1" d="M 41.746094 52.421875 L 49.667969 11.914062 L 8.519531 47.257812 "/>
<path fill="none" stroke-width="4.22137" stroke-linecap="round" stroke-linejoin="round" stroke="rgb(0%, 0%, 0%)" stroke-opacity="1" stroke-miterlimit="10" d="M 417.460938 875.78125 L 496.679688 1280.859375 L 85.195312 927.421875 Z M 417.460938 875.78125 " transform="matrix(0.1, 0, 0, -0.1, 0, 140)"/>
<path fill-rule="nonzero" fill="rgb(67.381287%, 52.34375%, 67.381287%)" fill-opacity="1" d="M 83.070312 41.546875 L 121.660156 18.613281 L 49.667969 11.914062 "/>
<path fill="none" stroke-width="4.22137" stroke-linecap="round" stroke-linejoin="round" stroke="rgb(0%, 0%, 0%)" stroke-opacity="1" stroke-miterlimit="10" d="M 830.703125 984.53125 L 1216.601562 1213.867188 L 496.679688 1280.859375 Z M 830.703125 984.53125 " transform="matrix(0.1, 0, 0, -0.1, 0, 140)"/>
<path fill-rule="nonzero" fill="rgb(64.451599%, 76.367188%, 93.554688%)" fill-opacity="1" d="M 80.660156 29.054688 L 49.667969 11.914062 L 121.660156 18.613281 "/>
<path fill="none" stroke-width="4.22137" stroke-linecap="round" stroke-linejoin="round" stroke="rgb(0%, 0%, 0%)" stroke-opacity="1" stroke-miterlimit="10" d="M 806.601562 1109.453125 L 496.679688 1280.859375 L 1216.601562 1213.867188 Z M 806.601562 1109.453125 " transform="matrix(0.1, 0, 0, -0.1, 0, 140)"/>
<path fill-rule="nonzero" fill="rgb(17.893982%, 0%, 14.109802%)" fill-opacity="1" d="M 80.660156 29.054688 L 76.183594 5.730469 L 49.667969 11.914062 "/>
<path fill="none" stroke-width="4.22137" stroke-linecap="round" stroke-linejoin="round" stroke="rgb(0%, 0%, 0%)" stroke-opacity="1" stroke-miterlimit="10" d="M 806.601562 1109.453125 L 761.835938 1342.695312 L 496.679688 1280.859375 Z M 806.601562 1109.453125 " transform="matrix(0.1, 0, 0, -0.1, 0, 140)"/>
<path fill-rule="nonzero" fill="rgb(5.999756%, 17.088318%, 66.796875%)" fill-opacity="1" d="M 54.039062 35.796875 L 49.667969 11.914062 L 76.183594 5.730469 "/>
<path fill="none" stroke-width="4.22137" stroke-linecap="round" stroke-linejoin="round" stroke="rgb(0%, 0%, 0%)" stroke-opacity="1" stroke-miterlimit="10" d="M 540.390625 1042.03125 L 496.679688 1280.859375 L 761.835938 1342.695312 Z M 540.390625 1042.03125 " transform="matrix(0.1, 0, 0, -0.1, 0, 140)"/>
<path fill-rule="nonzero" fill="rgb(64.451599%, 76.367188%, 93.554688%)" fill-opacity="1" d="M 54.039062 35.796875 L 8.519531 47.257812 L 49.667969 11.914062 "/>
<path fill="none" stroke-width="4.22137" stroke-linecap="round" stroke-linejoin="round" stroke="rgb(0%, 0%, 0%)" stroke-opacity="1" stroke-miterlimit="10" d="M 540.390625 1042.03125 L 85.195312 927.421875 L 496.679688 1280.859375 Z M 540.390625 1042.03125 " transform="matrix(0.1, 0, 0, -0.1, 0, 140)"/>
<path fill-rule="nonzero" fill="rgb(67.381287%, 52.34375%, 67.381287%)" fill-opacity="1" d="M 103.734375 59.851562 L 137.339844 89.566406 L 121.660156 18.613281 "/>
<path fill="none" stroke-width="4.22137" stroke-linecap="round" stroke-linejoin="round" stroke="rgb(0%, 0%, 0%)" stroke-opacity="1" stroke-miterlimit="10" d="M 1037.34375 801.484375 L 1373.398438 504.335938 L 1216.601562 1213.867188 Z M 1037.34375 801.484375 " transform="matrix(0.1, 0, 0, -0.1, 0, 140)"/>
<path fill-rule="nonzero" fill="rgb(66.40625%, 74.021912%, 90.625%)" fill-opacity="1" d="M 97.519531 101.925781 L 105.753906 133.664062 L 137.339844 89.566406 "/>
<path fill="none" stroke-width="4.22137" stroke-linecap="round" stroke-linejoin="round" stroke="rgb(0%, 0%, 0%)" stroke-opacity="1" stroke-miterlimit="10" d="M 975.195312 380.742188 L 1057.539062 63.359375 L 1373.398438 504.335938 Z M 975.195312 380.742188 " transform="matrix(0.1, 0, 0, -0.1, 0, 140)"/>
<path fill-rule="nonzero" fill="rgb(92.576599%, 78.709412%, 68.943787%)" fill-opacity="1" d="M 112.105469 87.273438 L 137.339844 89.566406 L 105.753906 133.664062 "/>
<path fill="none" stroke-width="4.22137" stroke-linecap="round" stroke-linejoin="round" stroke="rgb(0%, 0%, 0%)" stroke-opacity="1" stroke-miterlimit="10" d="M 1121.054688 527.265625 L 1373.398438 504.335938 L 1057.539062 63.359375 Z M 1121.054688 527.265625 " transform="matrix(0.1, 0, 0, -0.1, 0, 140)"/>
<path fill-rule="nonzero" fill="rgb(92.576599%, 78.709412%, 68.75%)" fill-opacity="1" d="M 115.851562 60.207031 L 121.660156 18.613281 L 137.339844 89.566406 "/>
<path fill="none" stroke-width="4.22137" stroke-linecap="round" stroke-linejoin="round" stroke="rgb(0%, 0%, 0%)" stroke-opacity="1" stroke-miterlimit="10" d="M 1158.515625 797.929688 L 1216.601562 1213.867188 L 1373.398438 504.335938 Z M 1158.515625 797.929688 " transform="matrix(0.1, 0, 0, -0.1, 0, 140)"/>
<path fill-rule="nonzero" fill="rgb(17.993164%, 0%, 13.989258%)" fill-opacity="1" d="M 115.851562 60.207031 L 137.339844 89.566406 L 138.5 60.847656 "/>
<path fill="none" stroke-width="4.22137" stroke-linecap="round" stroke-linejoin="round" stroke="rgb(0%, 0%, 0%)" stroke-opacity="1" stroke-miterlimit="10" d="M 1158.515625 797.929688 L 1373.398438 504.335938 L 1385 791.523438 Z M 1158.515625 797.929688 " transform="matrix(0.1, 0, 0, -0.1, 0, 140)"/>
<path fill-rule="nonzero" fill="rgb(73.046875%, 25.901794%, 12.693787%)" fill-opacity="1" d="M 112.105469 87.273438 L 138.5 60.847656 L 137.339844 89.566406 "/>
<path fill="none" stroke-width="4.22137" stroke-linecap="round" stroke-linejoin="round" stroke="rgb(0%, 0%, 0%)" stroke-opacity="1" stroke-miterlimit="10" d="M 1121.054688 527.265625 L 1385 791.523438 L 1373.398438 504.335938 Z M 1121.054688 527.265625 " transform="matrix(0.1, 0, 0, -0.1, 0, 140)"/>
<path fill-rule="nonzero" fill="rgb(22.605896%, 28.295898%, 71.289062%)" fill-opacity="1" d="M 115.851562 60.207031 L 138.5 60.847656 L 121.660156 18.613281 "/>
<path fill="none" stroke-width="4.22137" stroke-linecap="round" stroke-linejoin="round" stroke="rgb(0%, 0%, 0%)" stroke-opacity="1" stroke-miterlimit="10" d="M 1158.515625 797.929688 L 1385 791.523438 L 1216.601562 1213.867188 Z M 1158.515625 797.929688 " transform="matrix(0.1, 0, 0, -0.1, 0, 140)"/>
<path fill-rule="nonzero" fill="rgb(75.976562%, 34.788513%, 27.293396%)" fill-opacity="1" d="M 80.660156 29.054688 L 121.660156 18.613281 L 76.183594 5.730469 "/>
<path fill="none" stroke-width="4.22137" stroke-linecap="round" stroke-linejoin="round" stroke="rgb(0%, 0%, 0%)" stroke-opacity="1" stroke-miterlimit="10" d="M 806.601562 1109.453125 L 1216.601562 1213.867188 L 761.835938 1342.695312 Z M 806.601562 1109.453125 " transform="matrix(0.1, 0, 0, -0.1, 0, 140)"/>
<path fill-rule="nonzero" fill="rgb(64.451599%, 76.367188%, 93.554688%)" fill-opacity="1" d="M 101.496094 40.53125 L 121.660156 18.613281 L 138.5 60.847656 "/>
<path fill="none" stroke-width="4.22137" stroke-linecap="round" stroke-linejoin="round" stroke="rgb(0%, 0%, 0%)" stroke-opacity="1" stroke-miterlimit="10" d="M 1014.960938 994.6875 L 1216.601562 1213.867188 L 1385 791.523438 Z M 1014.960938 994.6875 " transform="matrix(0.1, 0, 0, -0.1, 0, 140)"/>
<path fill-rule="nonzero" fill="rgb(92.576599%, 78.709412%, 68.75%)" fill-opacity="1" d="M 101.496094 40.53125 L 76.183594 5.730469 L 121.660156 18.613281 "/>
<path fill="none" stroke-width="4.22137" stroke-linecap="round" stroke-linejoin="round" stroke="rgb(0%, 0%, 0%)" stroke-opacity="1" stroke-miterlimit="10" d="M 1014.960938 994.6875 L 761.835938 1342.695312 L 1216.601562 1213.867188 Z M 1014.960938 994.6875 " transform="matrix(0.1, 0, 0, -0.1, 0, 140)"/>
<path fill-rule="nonzero" fill="rgb(89.84375%, 75.976562%, 69.921875%)" fill-opacity="1" d="M 36.5625 78.742188 L 8.519531 47.257812 L 27.628906 123.792969 "/>
<path fill="none" stroke-width="4.22137" stroke-linecap="round" stroke-linejoin="round" stroke="rgb(0%, 0%, 0%)" stroke-opacity="1" stroke-miterlimit="10" d="M 365.625 612.578125 L 85.195312 927.421875 L 276.289062 162.070312 Z M 365.625 612.578125 " transform="matrix(0.1, 0, 0, -0.1, 0, 140)"/>
<path fill-rule="nonzero" fill="rgb(66.40625%, 74.021912%, 90.625%)" fill-opacity="1" d="M 71.699219 109.980469 L 27.628906 123.792969 L 105.753906 133.664062 "/>
<path fill="none" stroke-width="4.22137" stroke-linecap="round" stroke-linejoin="round" stroke="rgb(0%, 0%, 0%)" stroke-opacity="1" stroke-miterlimit="10" d="M 716.992188 300.195312 L 276.289062 162.070312 L 1057.539062 63.359375 Z M 716.992188 300.195312 " transform="matrix(0.1, 0, 0, -0.1, 0, 140)"/>
<path fill-rule="nonzero" fill="rgb(75.78125%, 34.788513%, 27.293396%)" fill-opacity="1" d="M 54.039062 35.796875 L 76.183594 5.730469 L 8.519531 47.257812 "/>
<path fill="none" stroke-width="4.22137" stroke-linecap="round" stroke-linejoin="round" stroke="rgb(0%, 0%, 0%)" stroke-opacity="1" stroke-miterlimit="10" d="M 540.390625 1042.03125 L 761.835938 1342.695312 L 85.195312 927.421875 Z M 540.390625 1042.03125 " transform="matrix(0.1, 0, 0, -0.1, 0, 140)"/>
<path fill-rule="nonzero" fill="rgb(22.605896%, 28.295898%, 71.289062%)" fill-opacity="1" d="M 112.105469 87.273438 L 105.753906 133.664062 L 138.5 60.847656 "/>
<path fill="none" stroke-width="4.22137" stroke-linecap="round" stroke-linejoin="round" stroke="rgb(0%, 0%, 0%)" stroke-opacity="1" stroke-miterlimit="10" d="M 1121.054688 527.265625 L 1057.539062 63.359375 L 1385 791.523438 Z M 1121.054688 527.265625 " transform="matrix(0.1, 0, 0, -0.1, 0, 140)"/>
<path fill-rule="nonzero" fill="rgb(18.089294%, 0%, 14.208984%)" fill-opacity="1" d="M 101.496094 40.53125 L 138.5 60.847656 L 76.183594 5.730469 "/>
<path fill="none" stroke-width="4.22137" stroke-linecap="round" stroke-linejoin="round" stroke="rgb(0%, 0%, 0%)" stroke-opacity="1" stroke-miterlimit="10" d="M 1014.960938 994.6875 L 1385 791.523438 L 761.835938 1342.695312 Z M 1014.960938 994.6875 " transform="matrix(0.1, 0, 0, -0.1, 0, 140)"/>
<path fill-rule="nonzero" fill="rgb(66.796875%, 51.5625%, 66.992188%)" fill-opacity="1" d="M 68.53125 100.527344 L 105.753906 133.664062 L 27.628906 123.792969 "/>
<path fill="none" stroke-width="4.22137" stroke-linecap="round" stroke-linejoin="round" stroke="rgb(0%, 0%, 0%)" stroke-opacity="1" stroke-miterlimit="10" d="M 685.3125 394.726562 L 1057.539062 63.359375 L 276.289062 162.070312 Z M 685.3125 394.726562 " transform="matrix(0.1, 0, 0, -0.1, 0, 140)"/>
<path fill-rule="nonzero" fill="rgb(73.242188%, 25.901794%, 12.597656%)" fill-opacity="1" d="M 68.53125 100.527344 L 27.628906 123.792969 L 62.570312 82.84375 "/>
<path fill="none" stroke-width="4.22137" stroke-linecap="round" stroke-linejoin="round" stroke="rgb(0%, 0%, 0%)" stroke-opacity="1" stroke-miterlimit="10" d="M 685.3125 394.726562 L 276.289062 162.070312 L 625.703125 571.5625 Z M 685.3125 394.726562 " transform="matrix(0.1, 0, 0, -0.1, 0, 140)"/>
<path fill-rule="nonzero" fill="rgb(66.992188%, 51.5625%, 66.992188%)" fill-opacity="1" d="M 45.613281 80.160156 L 27.628906 123.792969 L 8.519531 47.257812 "/>
<path fill="none" stroke-width="4.22137" stroke-linecap="round" stroke-linejoin="round" stroke="rgb(0%, 0%, 0%)" stroke-opacity="1" stroke-miterlimit="10" d="M 456.132812 598.398438 L 276.289062 162.070312 L 85.195312 927.421875 Z M 456.132812 598.398438 " transform="matrix(0.1, 0, 0, -0.1, 0, 140)"/>
<path fill-rule="nonzero" fill="rgb(5.799866%, 17.088318%, 66.796875%)" fill-opacity="1" d="M 45.613281 80.160156 L 62.570312 82.84375 L 27.628906 123.792969 "/>
<path fill="none" stroke-width="4.22137" stroke-linecap="round" stroke-linejoin="round" stroke="rgb(0%, 0%, 0%)" stroke-opacity="1" stroke-miterlimit="10" d="M 456.132812 598.398438 L 625.703125 571.5625 L 276.289062 162.070312 Z M 456.132812 598.398438 " transform="matrix(0.1, 0, 0, -0.1, 0, 140)"/>
<path fill-rule="nonzero" fill="rgb(0%, 0%, 0%)" fill-opacity="1" d="M 45.613281 80.160156 L 8.519531 47.257812 L 62.570312 82.84375 "/>
<path fill="none" stroke-width="4.22137" stroke-linecap="round" stroke-linejoin="round" stroke="rgb(0%, 0%, 0%)" stroke-opacity="1" stroke-miterlimit="10" d="M 456.132812 598.398438 L 85.195312 927.421875 L 625.703125 571.5625 Z M 456.132812 598.398438 " transform="matrix(0.1, 0, 0, -0.1, 0, 140)"/>
<path fill-rule="nonzero" fill="rgb(66.796875%, 51.5625%, 66.796875%)" fill-opacity="1" d="M 57.050781 52.355469 L 8.519531 47.257812 L 76.183594 5.730469 "/>
<path fill="none" stroke-width="4.22137" stroke-linecap="round" stroke-linejoin="round" stroke="rgb(0%, 0%, 0%)" stroke-opacity="1" stroke-miterlimit="10" d="M 570.507812 876.445312 L 85.195312 927.421875 L 761.835938 1342.695312 Z M 570.507812 876.445312 " transform="matrix(0.1, 0, 0, -0.1, 0, 140)"/>
<path fill-rule="nonzero" fill="rgb(64.451599%, 76.367188%, 93.554688%)" fill-opacity="1" d="M 57.050781 52.355469 L 62.570312 82.84375 L 8.519531 47.257812 "/>
<path fill="none" stroke-width="4.22137" stroke-linecap="round" stroke-linejoin="round" stroke="rgb(0%, 0%, 0%)" stroke-opacity="1" stroke-miterlimit="10" d="M 570.507812 876.445312 L 625.703125 571.5625 L 85.195312 927.421875 Z M 570.507812 876.445312 " transform="matrix(0.1, 0, 0, -0.1, 0, 140)"/>
<path fill-rule="nonzero" fill="rgb(0%, 0%, 0%)" fill-opacity="1" d="M 68.53125 100.527344 L 62.570312 82.84375 L 105.753906 133.664062 "/>
<path fill="none" stroke-width="4.22137" stroke-linecap="round" stroke-linejoin="round" stroke="rgb(0%, 0%, 0%)" stroke-opacity="1" stroke-miterlimit="10" d="M 685.3125 394.726562 L 625.703125 571.5625 L 1057.539062 63.359375 Z M 685.3125 394.726562 " transform="matrix(0.1, 0, 0, -0.1, 0, 140)"/>
<path fill-rule="nonzero" fill="rgb(92.771912%, 78.709412%, 68.75%)" fill-opacity="1" d="M 94.640625 85.703125 L 105.753906 133.664062 L 62.570312 82.84375 "/>
<path fill="none" stroke-width="4.22137" stroke-linecap="round" stroke-linejoin="round" stroke="rgb(0%, 0%, 0%)" stroke-opacity="1" stroke-miterlimit="10" d="M 946.40625 542.96875 L 1057.539062 63.359375 L 625.703125 571.5625 Z M 946.40625 542.96875 " transform="matrix(0.1, 0, 0, -0.1, 0, 140)"/>
<path fill-rule="nonzero" fill="rgb(66.796875%, 51.5625%, 66.992188%)" fill-opacity="1" d="M 94.640625 85.703125 L 138.5 60.847656 L 105.753906 133.664062 "/>
<path fill="none" stroke-width="4.22137" stroke-linecap="round" stroke-linejoin="round" stroke="rgb(0%, 0%, 0%)" stroke-opacity="1" stroke-miterlimit="10" d="M 946.40625 542.96875 L 1385 791.523438 L 1057.539062 63.359375 Z M 946.40625 542.96875 " transform="matrix(0.1, 0, 0, -0.1, 0, 140)"/>
<path fill-rule="nonzero" fill="rgb(5.699158%, 16.893005%, 66.796875%)" fill-opacity="1" d="M 57.050781 52.355469 L 76.183594 5.730469 L 62.570312 82.84375 "/>
<path fill="none" stroke-width="4.22137" stroke-linecap="round" stroke-linejoin="round" stroke="rgb(0%, 0%, 0%)" stroke-opacity="1" stroke-miterlimit="10" d="M 570.507812 876.445312 L 761.835938 1342.695312 L 625.703125 571.5625 Z M 570.507812 876.445312 " transform="matrix(0.1, 0, 0, -0.1, 0, 140)"/>
<path fill-rule="nonzero" fill="rgb(73.046875%, 25.805664%, 12.5%)" fill-opacity="1" d="M 94.640625 85.703125 L 62.570312 82.84375 L 138.5 60.847656 "/>
<path fill="none" stroke-width="4.22137" stroke-linecap="round" stroke-linejoin="round" stroke="rgb(0%, 0%, 0%)" stroke-opacity="1" stroke-miterlimit="10" d="M 946.40625 542.96875 L 625.703125 571.5625 L 1385 791.523438 Z M 946.40625 542.96875 " transform="matrix(0.1, 0, 0, -0.1, 0, 140)"/>
<path fill-rule="nonzero" fill="rgb(92.771912%, 78.709412%, 68.75%)" fill-opacity="1" d="M 87.675781 55.558594 L 62.570312 82.84375 L 76.183594 5.730469 "/>
<path fill="none" stroke-width="4.22137" stroke-linecap="round" stroke-linejoin="round" stroke="rgb(0%, 0%, 0%)" stroke-opacity="1" stroke-miterlimit="10" d="M 876.757812 844.414062 L 625.703125 571.5625 L 761.835938 1342.695312 Z M 876.757812 844.414062 " transform="matrix(0.1, 0, 0, -0.1, 0, 140)"/>
<path fill-rule="nonzero" fill="rgb(64.451599%, 76.367188%, 93.554688%)" fill-opacity="1" d="M 87.675781 55.558594 L 138.5 60.847656 L 62.570312 82.84375 "/>
<path fill="none" stroke-width="4.22137" stroke-linecap="round" stroke-linejoin="round" stroke="rgb(0%, 0%, 0%)" stroke-opacity="1" stroke-miterlimit="10" d="M 876.757812 844.414062 L 1385 791.523438 L 625.703125 571.5625 Z M 876.757812 844.414062 " transform="matrix(0.1, 0, 0, -0.1, 0, 140)"/>
<path fill-rule="nonzero" fill="rgb(66.796875%, 51.5625%, 66.796875%)" fill-opacity="1" d="M 87.675781 55.558594 L 76.183594 5.730469 L 138.5 60.847656 "/>
<path fill="none" stroke-width="4.22137" stroke-linecap="round" stroke-linejoin="round" stroke="rgb(0%, 0%, 0%)" stroke-opacity="1" stroke-miterlimit="10" d="M 876.757812 844.414062 L 761.835938 1342.695312 L 1385 791.523438 Z M 876.757812 844.414062 " transform="matrix(0.1, 0, 0, -0.1, 0, 140)"/>
</svg>
