<?xml version="1.0" encoding="UTF-8"?>
<svg xmlns="http://www.w3.org/2000/svg" xmlns:xlink="http://www.w3.org/1999/xlink" width="200.25" height="200.44" viewBox="0 0 200.25 200.44">
<path fill-rule="nonzero" fill="rgb(65.818787%, 74.804688%, 91.601562%)" fill-opacity="1" stroke-width="5" stroke-linecap="round" stroke-linejoin="round" stroke="rgb(0%, 0%, 0%)" stroke-opacity="1" stroke-miterlimit="10" d="M 1109.648291 1345.234176 L 1123.959504 992.943095 L 1027.270599 959.615613 " transform="matrix(0.0996269, 0, 0, -0.0996269, -0.000000000000004496, 199.78709)"/>
<path fill-rule="nonzero" fill="rgb(65.818787%, 74.804688%, 91.601562%)" fill-opacity="1" stroke-width="5" stroke-linecap="round" stroke-linejoin="round" stroke="rgb(0%, 0%, 0%)" stroke-opacity="1" stroke-miterlimit="10" d="M 1027.270599 959.615613 L 947.833567 1005.881999 L 1109.648291 1345.234176 " transform="matrix(0.0996269, 0, 0, -0.0996269, -0.000000000000004496, 199.78709)"/>
<path fill-rule="nonzero" fill="rgb(0%, 4.899597%, 59.179688%)" fill-opacity="1" d="M 111.8125 96.886719 L 110.550781 65.765625 L 114.707031 91.703125 "/>
<path fill="none" stroke-width="5" stroke-linecap="round" stroke-linejoin="round" stroke="rgb(0%, 0%, 0%)" stroke-opacity="1" stroke-miterlimit="10" d="M 1122.312734 1032.857654 L 1109.648291 1345.234176 " transform="matrix(0.0996269, 0, 0, -0.0996269, -0.000000000000004496, 199.78709)"/>
<path fill-rule="nonzero" fill="rgb(0%, 4.899597%, 59.179688%)" fill-opacity="1" d="M 118.003906 85.796875 L 115.488281 96.578125 L 114.707031 91.703125 "/>
<path fill="none" stroke-width="5" stroke-linecap="round" stroke-linejoin="round" stroke="rgb(0%, 0%, 0%)" stroke-opacity="1" stroke-miterlimit="10" d="M 1184.458684 1144.171442 L 1159.208216 1035.95515 " transform="matrix(0.0996269, 0, 0, -0.0996269, -0.000000000000004496, 199.78709)"/>
<path fill-rule="nonzero" fill="rgb(0%, 4.899597%, 59.179688%)" fill-opacity="1" d="M 110.550781 65.765625 L 118.003906 85.796875 L 114.707031 91.703125 "/>
<path fill="none" stroke-width="5" stroke-linecap="round" stroke-linejoin="round" stroke="rgb(0%, 0%, 0%)" stroke-opacity="1" stroke-miterlimit="10" d="M 1109.648291 1345.234176 L 1184.458684 1144.171442 " transform="matrix(0.0996269, 0, 0, -0.0996269, -0.000000000000004496, 199.78709)"/>
<path fill-rule="nonzero" fill="rgb(76.756287%, 99.609375%, 85.351562%)" fill-opacity="1" stroke-width="5" stroke-linecap="round" stroke-linejoin="round" stroke="rgb(0%, 0%, 0%)" stroke-opacity="1" stroke-miterlimit="10" d="M 1114.314139 1180.714045 L 1184.458684 1144.171442 L 1109.648291 1345.234176 " transform="matrix(0.0996269, 0, 0, -0.0996269, -0.000000000000004496, 199.78709)"/>
<path fill-rule="nonzero" fill="rgb(97.264099%, 83.789062%, 65.039062%)" fill-opacity="1" stroke-width="5" stroke-linecap="round" stroke-linejoin="round" stroke="rgb(0%, 0%, 0%)" stroke-opacity="1" stroke-miterlimit="10" d="M 1109.648291 1345.234176 L 947.833567 1005.881999 L 900.586962 1054.814583 " transform="matrix(0.0996269, 0, 0, -0.0996269, -0.000000000000004496, 199.78709)"/>
<path fill-rule="nonzero" fill="rgb(76.756287%, 99.609375%, 85.351562%)" fill-opacity="1" stroke-width="5" stroke-linecap="round" stroke-linejoin="round" stroke="rgb(0%, 0%, 0%)" stroke-opacity="1" stroke-miterlimit="10" d="M 1109.648291 1345.234176 L 1042.797285 1251.956437 L 1114.314139 1180.714045 " transform="matrix(0.0996269, 0, 0, -0.0996269, -0.000000000000004496, 199.78709)"/>
<path fill-rule="nonzero" fill="rgb(97.264099%, 83.789062%, 65.039062%)" fill-opacity="1" d="M 89.304688 83.753906 L 110.550781 65.765625 L 93.003906 90.144531 "/>
<path fill="none" stroke-width="5" stroke-linecap="round" stroke-linejoin="round" stroke="rgb(0%, 0%, 0%)" stroke-opacity="1" stroke-miterlimit="10" d="M 896.39162 1164.677645 L 1109.648291 1345.234176 " transform="matrix(0.0996269, 0, 0, -0.0996269, -0.000000000000004496, 199.78709)"/>
<path fill-rule="nonzero" fill="rgb(97.264099%, 83.789062%, 65.039062%)" fill-opacity="1" d="M 89.722656 94.699219 L 89.304688 83.753906 L 93.003906 90.144531 "/>
<path fill="none" stroke-width="5" stroke-linecap="round" stroke-linejoin="round" stroke="rgb(0%, 0%, 0%)" stroke-opacity="1" stroke-miterlimit="10" d="M 900.586962 1054.814583 L 896.39162 1164.677645 " transform="matrix(0.0996269, 0, 0, -0.0996269, -0.000000000000004496, 199.78709)"/>
<path fill-rule="nonzero" fill="rgb(46.409607%, 15.795898%, 36.206055%)" fill-opacity="1" d="M 89.304688 83.753906 L 32.265625 55.824219 L 85.53125 77.242188 "/>
<path fill="none" stroke-width="5" stroke-linecap="round" stroke-linejoin="round" stroke="rgb(0%, 0%, 0%)" stroke-opacity="1" stroke-miterlimit="10" d="M 896.39162 1164.677645 L 323.8647 1445.020576 " transform="matrix(0.0996269, 0, 0, -0.0996269, -0.000000000000004496, 199.78709)"/>
<path fill-rule="nonzero" fill="rgb(0%, 31.90918%, 75.584412%)" fill-opacity="1" d="M 89.304688 83.753906 L 94.933594 81.023438 L 97.414062 78.597656 "/>
<path fill="none" stroke-width="5" stroke-linecap="round" stroke-linejoin="round" stroke="rgb(0%, 0%, 0%)" stroke-opacity="1" stroke-miterlimit="10" d="M 896.39162 1164.677645 L 952.891503 1192.084597 " transform="matrix(0.0996269, 0, 0, -0.0996269, -0.000000000000004496, 199.78709)"/>
<path fill-rule="nonzero" fill="rgb(0%, 31.90918%, 75.584412%)" fill-opacity="1" d="M 110.550781 65.765625 L 91.726562 81.707031 L 97.414062 78.597656 "/>
<path fill="none" stroke-width="5" stroke-linecap="round" stroke-linejoin="round" stroke="rgb(0%, 0%, 0%)" stroke-opacity="1" stroke-miterlimit="10" d="M 1109.648291 1345.234176 L 920.701077 1185.223057 " transform="matrix(0.0996269, 0, 0, -0.0996269, -0.000000000000004496, 199.78709)"/>
<path fill-rule="nonzero" fill="rgb(0%, 31.90918%, 75.584412%)" fill-opacity="1" d="M 91.726562 81.707031 L 89.304688 83.753906 L 97.414062 78.597656 "/>
<path fill="none" stroke-width="5" stroke-linecap="round" stroke-linejoin="round" stroke="rgb(0%, 0%, 0%)" stroke-opacity="1" stroke-miterlimit="10" d="M 920.701077 1185.223057 L 896.39162 1164.677645 " transform="matrix(0.0996269, 0, 0, -0.0996269, -0.000000000000004496, 199.78709)"/>
<path fill-rule="nonzero" fill="rgb(0%, 31.90918%, 75.584412%)" fill-opacity="1" d="M 103.890625 75.058594 L 110.550781 65.765625 L 97.414062 78.597656 "/>
<path fill="none" stroke-width="5" stroke-linecap="round" stroke-linejoin="round" stroke="rgb(0%, 0%, 0%)" stroke-opacity="1" stroke-miterlimit="10" d="M 1042.797285 1251.956437 L 1109.648291 1345.234176 " transform="matrix(0.0996269, 0, 0, -0.0996269, -0.000000000000004496, 199.78709)"/>
<path fill-rule="nonzero" fill="rgb(0%, 31.90918%, 75.584412%)" fill-opacity="1" d="M 94.933594 81.023438 L 103.890625 75.058594 L 97.414062 78.597656 "/>
<path fill="none" stroke-width="5" stroke-linecap="round" stroke-linejoin="round" stroke="rgb(0%, 0%, 0%)" stroke-opacity="1" stroke-miterlimit="10" d="M 952.891503 1192.084597 L 1042.797285 1251.956437 " transform="matrix(0.0996269, 0, 0, -0.0996269, -0.000000000000004496, 199.78709)"/>
<path fill-rule="nonzero" fill="rgb(51.171875%, 39.404297%, 65.625%)" fill-opacity="1" d="M 103.890625 75.058594 L 107.460938 8 L 110.5 71.449219 "/>
<path fill="none" stroke-width="5" stroke-linecap="round" stroke-linejoin="round" stroke="rgb(0%, 0%, 0%)" stroke-opacity="1" stroke-miterlimit="10" d="M 1042.797285 1251.956437 L 1078.634129 1925.053933 " transform="matrix(0.0996269, 0, 0, -0.0996269, -0.000000000000004496, 199.78709)"/>
<path fill-rule="nonzero" fill="rgb(51.171875%, 39.404297%, 65.625%)" fill-opacity="1" d="M 111.015625 82.15625 L 103.890625 75.058594 L 110.5 71.449219 "/>
<path fill="none" stroke-width="5" stroke-linecap="round" stroke-linejoin="round" stroke="rgb(0%, 0%, 0%)" stroke-opacity="1" stroke-miterlimit="10" d="M 1114.314139 1180.714045 L 1042.797285 1251.956437 " transform="matrix(0.0996269, 0, 0, -0.0996269, -0.000000000000004496, 199.78709)"/>
<path fill-rule="nonzero" fill="rgb(46.409607%, 15.795898%, 36.206055%)" fill-opacity="1" d="M 94.933594 81.023438 L 89.304688 83.753906 L 85.53125 77.242188 "/>
<path fill="none" stroke-width="5" stroke-linecap="round" stroke-linejoin="round" stroke="rgb(0%, 0%, 0%)" stroke-opacity="1" stroke-miterlimit="10" d="M 952.891503 1192.084597 L 896.39162 1164.677645 " transform="matrix(0.0996269, 0, 0, -0.0996269, -0.000000000000004496, 199.78709)"/>
<path fill-rule="nonzero" fill="rgb(51.171875%, 39.404297%, 65.625%)" fill-opacity="1" stroke-width="5" stroke-linecap="round" stroke-linejoin="round" stroke="rgb(0%, 0%, 0%)" stroke-opacity="1" stroke-miterlimit="10" d="M 1078.634129 1925.053933 L 1180.302551 1250.074415 L 1114.314139 1180.714045 " transform="matrix(0.0996269, 0, 0, -0.0996269, -0.000000000000004496, 199.78709)"/>
<path fill-rule="nonzero" fill="rgb(98.4375%, 85.15625%, 63.084412%)" fill-opacity="1" d="M 117.589844 75.246094 L 107.460938 8 L 113.710938 70.632812 "/>
<path fill="none" stroke-width="5" stroke-linecap="round" stroke-linejoin="round" stroke="rgb(0%, 0%, 0%)" stroke-opacity="1" stroke-miterlimit="10" d="M 1180.302551 1250.074415 L 1078.634129 1925.053933 " transform="matrix(0.0996269, 0, 0, -0.0996269, -0.000000000000004496, 199.78709)"/>
<path fill-rule="nonzero" fill="rgb(73.242188%, 38.500977%, 39.208984%)" fill-opacity="1" d="M 111.015625 82.15625 L 117.589844 75.246094 L 119.292969 77.277344 "/>
<path fill="none" stroke-width="5" stroke-linecap="round" stroke-linejoin="round" stroke="rgb(0%, 0%, 0%)" stroke-opacity="1" stroke-miterlimit="10" d="M 1114.314139 1180.714045 L 1180.302551 1250.074415 " transform="matrix(0.0996269, 0, 0, -0.0996269, -0.000000000000004496, 199.78709)"/>
<path fill-rule="nonzero" fill="rgb(73.242188%, 38.500977%, 39.208984%)" fill-opacity="1" d="M 111.015625 82.15625 L 124.453125 74.234375 L 121.378906 79.753906 "/>
<path fill-rule="nonzero" fill="rgb(73.242188%, 38.500977%, 39.208984%)" fill-opacity="1" d="M 118.003906 85.796875 L 111.015625 82.15625 L 121.378906 79.753906 "/>
<path fill="none" stroke-width="5" stroke-linecap="round" stroke-linejoin="round" stroke="rgb(0%, 0%, 0%)" stroke-opacity="1" stroke-miterlimit="10" d="M 1184.458684 1144.171442 L 1114.314139 1180.714045 " transform="matrix(0.0996269, 0, 0, -0.0996269, -0.000000000000004496, 199.78709)"/>
<path fill-rule="nonzero" fill="rgb(98.4375%, 85.15625%, 63.084412%)" fill-opacity="1" d="M 114.792969 81.464844 L 117.589844 75.246094 L 113.710938 70.632812 "/>
<path fill="none" stroke-width="5" stroke-linecap="round" stroke-linejoin="round" stroke="rgb(0%, 0%, 0%)" stroke-opacity="1" stroke-miterlimit="10" d="M 1152.22905 1187.654003 L 1180.302551 1250.074415 " transform="matrix(0.0996269, 0, 0, -0.0996269, -0.000000000000004496, 199.78709)"/>
<path fill-rule="nonzero" fill="rgb(73.242188%, 38.500977%, 39.208984%)" fill-opacity="1" d="M 117.589844 75.246094 L 124.453125 74.234375 L 119.292969 77.277344 "/>
<path fill="none" stroke-width="5" stroke-linecap="round" stroke-linejoin="round" stroke="rgb(0%, 0%, 0%)" stroke-opacity="1" stroke-miterlimit="10" d="M 1180.302551 1250.074415 L 1249.192416 1260.229494 " transform="matrix(0.0996269, 0, 0, -0.0996269, -0.000000000000004496, 199.78709)"/>
<path fill-rule="nonzero" fill="rgb(73.242188%, 38.500977%, 39.208984%)" fill-opacity="1" d="M 124.453125 74.234375 L 181.359375 65.839844 L 121.378906 79.753906 "/>
<path fill="none" stroke-width="5" stroke-linecap="round" stroke-linejoin="round" stroke="rgb(0%, 0%, 0%)" stroke-opacity="1" stroke-miterlimit="10" d="M 1249.192416 1260.229494 L 1820.386236 1344.489209 " transform="matrix(0.0996269, 0, 0, -0.0996269, -0.000000000000004496, 199.78709)"/>
<path fill-rule="nonzero" fill="rgb(73.242188%, 38.500977%, 39.208984%)" fill-opacity="1" d="M 181.359375 65.839844 L 118.003906 85.796875 L 121.378906 79.753906 "/>
<path fill="none" stroke-width="5" stroke-linecap="round" stroke-linejoin="round" stroke="rgb(0%, 0%, 0%)" stroke-opacity="1" stroke-miterlimit="10" d="M 1820.386236 1344.489209 L 1184.458684 1144.171442 " transform="matrix(0.0996269, 0, 0, -0.0996269, -0.000000000000004496, 199.78709)"/>
<path fill-rule="nonzero" fill="rgb(0%, 4.899597%, 59.179688%)" fill-opacity="1" stroke-width="5" stroke-linecap="round" stroke-linejoin="round" stroke="rgb(0%, 0%, 0%)" stroke-opacity="1" stroke-miterlimit="10" d="M 1159.208216 1035.95515 L 1123.959504 992.943095 L 1122.312734 1032.857654 " transform="matrix(0.0996269, 0, 0, -0.0996269, -0.000000000000004496, 199.78709)"/>
<path fill-rule="nonzero" fill="rgb(0%, 4.899597%, 59.179688%)" fill-opacity="1" d="M 114.707031 91.703125 L 115.488281 96.578125 L 111.8125 96.886719 "/>
<path fill-rule="nonzero" fill="rgb(51.171875%, 39.404297%, 65.625%)" fill-opacity="1" stroke-width="5" stroke-linecap="round" stroke-linejoin="round" stroke="rgb(0%, 0%, 0%)" stroke-opacity="1" stroke-miterlimit="10" d="M 605.932818 646.768586 L 947.833567 1005.881999 L 1027.270599 959.615613 " transform="matrix(0.0996269, 0, 0, -0.0996269, -0.000000000000004496, 199.78709)"/>
<path fill-rule="nonzero" fill="rgb(51.171875%, 39.404297%, 65.625%)" fill-opacity="1" stroke-width="5" stroke-linecap="round" stroke-linejoin="round" stroke="rgb(0%, 0%, 0%)" stroke-opacity="1" stroke-miterlimit="10" d="M 1027.270599 959.615613 L 1021.389279 849.321255 L 605.932818 646.768586 " transform="matrix(0.0996269, 0, 0, -0.0996269, -0.000000000000004496, 199.78709)"/>
<path fill-rule="nonzero" fill="rgb(73.242188%, 38.500977%, 39.208984%)" fill-opacity="1" stroke-width="5" stroke-linecap="round" stroke-linejoin="round" stroke="rgb(0%, 0%, 0%)" stroke-opacity="1" stroke-miterlimit="10" d="M 900.586962 1054.814583 L 947.833567 1005.881999 L 605.932818 646.768586 " transform="matrix(0.0996269, 0, 0, -0.0996269, -0.000000000000004496, 199.78709)"/>
<path fill-rule="nonzero" fill="rgb(43.309021%, 11.401367%, 32.200623%)" fill-opacity="1" stroke-width="5" stroke-linecap="round" stroke-linejoin="round" stroke="rgb(0%, 0%, 0%)" stroke-opacity="1" stroke-miterlimit="10" d="M 866.867392 836.06868 L 767.433872 870.101919 L 605.932818 646.768586 " transform="matrix(0.0996269, 0, 0, -0.0996269, -0.000000000000004496, 199.78709)"/>
<path fill-rule="nonzero" fill="rgb(0%, 39.892578%, 83.201599%)" fill-opacity="1" d="M 90.835938 123.777344 L 60.367188 135.351562 L 94.195312 120.386719 "/>
<path fill="none" stroke-width="5" stroke-linecap="round" stroke-linejoin="round" stroke="rgb(0%, 0%, 0%)" stroke-opacity="1" stroke-miterlimit="10" d="M 911.76147 762.944265 L 605.932818 646.768586 " transform="matrix(0.0996269, 0, 0, -0.0996269, -0.000000000000004496, 199.78709)"/>
<path fill-rule="nonzero" fill="rgb(0%, 39.892578%, 83.201599%)" fill-opacity="1" d="M 100.464844 117.613281 L 90.835938 123.777344 L 94.195312 120.386719 "/>
<path fill="none" stroke-width="5" stroke-linecap="round" stroke-linejoin="round" stroke="rgb(0%, 0%, 0%)" stroke-opacity="1" stroke-miterlimit="10" d="M 1008.411166 824.815754 L 911.76147 762.944265 " transform="matrix(0.0996269, 0, 0, -0.0996269, -0.000000000000004496, 199.78709)"/>
<path fill-rule="nonzero" fill="rgb(97.264099%, 83.789062%, 65.039062%)" fill-opacity="1" d="M 90.835938 123.777344 L 93.40625 191.082031 L 87.378906 127.257812 "/>
<path fill="none" stroke-width="5" stroke-linecap="round" stroke-linejoin="round" stroke="rgb(0%, 0%, 0%)" stroke-opacity="1" stroke-miterlimit="10" d="M 911.76147 762.944265 L 937.560861 87.376615 " transform="matrix(0.0996269, 0, 0, -0.0996269, -0.000000000000004496, 199.78709)"/>
<path fill-rule="nonzero" fill="rgb(0%, 39.892578%, 83.201599%)" fill-opacity="1" stroke-width="5" stroke-linecap="round" stroke-linejoin="round" stroke="rgb(0%, 0%, 0%)" stroke-opacity="1" stroke-miterlimit="10" d="M 605.932818 646.768586 L 1021.389279 849.321255 L 1008.411166 824.815754 " transform="matrix(0.0996269, 0, 0, -0.0996269, -0.000000000000004496, 199.78709)"/>
<path fill-rule="nonzero" fill="rgb(43.309021%, 11.401367%, 32.200623%)" fill-opacity="1" stroke-width="5" stroke-linecap="round" stroke-linejoin="round" stroke="rgb(0%, 0%, 0%)" stroke-opacity="1" stroke-miterlimit="10" d="M 605.932818 646.768586 L 911.76147 762.944265 L 866.867392 836.06868 " transform="matrix(0.0996269, 0, 0, -0.0996269, -0.000000000000004496, 199.78709)"/>
<path fill-rule="nonzero" fill="rgb(97.264099%, 83.789062%, 65.039062%)" fill-opacity="1" d="M 86.363281 116.492188 L 90.835938 123.777344 L 87.378906 127.257812 "/>
<path fill="none" stroke-width="5" stroke-linecap="round" stroke-linejoin="round" stroke="rgb(0%, 0%, 0%)" stroke-opacity="1" stroke-miterlimit="10" d="M 866.867392 836.06868 L 911.76147 762.944265 " transform="matrix(0.0996269, 0, 0, -0.0996269, -0.000000000000004496, 199.78709)"/>
<path fill-rule="nonzero" fill="rgb(73.242188%, 38.500977%, 39.208984%)" fill-opacity="1" d="M 78.929688 98.101562 L 89.722656 94.699219 L 85.167969 101.003906 "/>
<path fill="none" stroke-width="5" stroke-linecap="round" stroke-linejoin="round" stroke="rgb(0%, 0%, 0%)" stroke-opacity="1" stroke-miterlimit="10" d="M 792.253043 1020.663717 L 900.586962 1054.814583 " transform="matrix(0.0996269, 0, 0, -0.0996269, -0.000000000000004496, 199.78709)"/>
<path fill-rule="nonzero" fill="rgb(73.242188%, 38.500977%, 39.208984%)" fill-opacity="1" d="M 60.367188 135.351562 L 78.929688 98.101562 L 85.167969 101.003906 "/>
<path fill="none" stroke-width="5" stroke-linecap="round" stroke-linejoin="round" stroke="rgb(0%, 0%, 0%)" stroke-opacity="1" stroke-miterlimit="10" d="M 605.932818 646.768586 L 792.253043 1020.663717 " transform="matrix(0.0996269, 0, 0, -0.0996269, -0.000000000000004496, 199.78709)"/>
<path fill-rule="nonzero" fill="rgb(0%, 0%, 53.318787%)" fill-opacity="1" stroke-width="5" stroke-linecap="round" stroke-linejoin="round" stroke="rgb(0%, 0%, 0%)" stroke-opacity="1" stroke-miterlimit="10" d="M 799.977177 980.435487 L 792.253043 1020.663717 L 771.276334 978.592673 " transform="matrix(0.0996269, 0, 0, -0.0996269, -0.000000000000004496, 199.78709)"/>
<path fill-rule="nonzero" fill="rgb(0%, 0%, 53.318787%)" fill-opacity="1" d="M 76.839844 102.292969 L 60.367188 135.351562 L 76.660156 107.335938 "/>
<path fill="none" stroke-width="5" stroke-linecap="round" stroke-linejoin="round" stroke="rgb(0%, 0%, 0%)" stroke-opacity="1" stroke-miterlimit="10" d="M 771.276334 978.592673 L 605.932818 646.768586 " transform="matrix(0.0996269, 0, 0, -0.0996269, -0.000000000000004496, 199.78709)"/>
<path fill-rule="nonzero" fill="rgb(0%, 0%, 53.318787%)" fill-opacity="1" d="M 79.699219 102.109375 L 76.839844 102.292969 L 76.660156 107.335938 "/>
<path fill-rule="nonzero" fill="rgb(65.818787%, 74.804688%, 91.601562%)" fill-opacity="1" d="M 76.457031 113.101562 L 86.363281 116.492188 L 76.246094 119.015625 "/>
<path fill="none" stroke-width="5" stroke-linecap="round" stroke-linejoin="round" stroke="rgb(0%, 0%, 0%)" stroke-opacity="1" stroke-miterlimit="10" d="M 767.433872 870.101919 L 866.867392 836.06868 " transform="matrix(0.0996269, 0, 0, -0.0996269, -0.000000000000004496, 199.78709)"/>
<path fill-rule="nonzero" fill="rgb(0%, 0%, 53.318787%)" fill-opacity="1" stroke-width="5" stroke-linecap="round" stroke-linejoin="round" stroke="rgb(0%, 0%, 0%)" stroke-opacity="1" stroke-miterlimit="10" d="M 605.932818 646.768586 L 767.433872 870.101919 L 799.977177 980.435487 " transform="matrix(0.0996269, 0, 0, -0.0996269, -0.000000000000004496, 199.78709)"/>
<path fill-rule="nonzero" fill="rgb(65.818787%, 74.804688%, 91.601562%)" fill-opacity="1" d="M 14.820312 134.347656 L 76.457031 113.101562 L 76.246094 119.015625 "/>
<path fill="none" stroke-width="5" stroke-linecap="round" stroke-linejoin="round" stroke="rgb(0%, 0%, 0%)" stroke-opacity="1" stroke-miterlimit="10" d="M 148.758193 656.845248 L 767.433872 870.101919 " transform="matrix(0.0996269, 0, 0, -0.0996269, -0.000000000000004496, 199.78709)"/>
<path fill-rule="nonzero" fill="rgb(80.076599%, 99.021912%, 87.889099%)" fill-opacity="1" d="M 78.929688 98.101562 L 79.699219 102.109375 L 72.554688 95.132812 "/>
<path fill="none" stroke-width="5" stroke-linecap="round" stroke-linejoin="round" stroke="rgb(0%, 0%, 0%)" stroke-opacity="1" stroke-miterlimit="10" d="M 792.253043 1020.663717 L 799.977177 980.435487 " transform="matrix(0.0996269, 0, 0, -0.0996269, -0.000000000000004496, 199.78709)"/>
<path fill-rule="nonzero" fill="rgb(80.076599%, 99.021912%, 87.889099%)" fill-opacity="1" d="M 32.265625 55.824219 L 78.929688 98.101562 L 72.554688 95.132812 "/>
<path fill="none" stroke-width="5" stroke-linecap="round" stroke-linejoin="round" stroke="rgb(0%, 0%, 0%)" stroke-opacity="1" stroke-miterlimit="10" d="M 323.8647 1445.020576 L 792.253043 1020.663717 " transform="matrix(0.0996269, 0, 0, -0.0996269, -0.000000000000004496, 199.78709)"/>
<path fill-rule="nonzero" fill="rgb(80.664062%, 62.109375%, 65.234375%)" fill-opacity="1" stroke-width="5" stroke-linecap="round" stroke-linejoin="round" stroke="rgb(0%, 0%, 0%)" stroke-opacity="1" stroke-miterlimit="10" d="M 1123.959504 992.943095 L 1481.112477 577.094546 L 1021.389279 849.321255 " transform="matrix(0.0996269, 0, 0, -0.0996269, -0.000000000000004496, 199.78709)"/>
<path fill-rule="nonzero" fill="rgb(80.076599%, 99.021912%, 87.889099%)" fill-opacity="1" stroke-width="5" stroke-linecap="round" stroke-linejoin="round" stroke="rgb(0%, 0%, 0%)" stroke-opacity="1" stroke-miterlimit="10" d="M 1008.411166 824.815754 L 1021.389279 849.321255 L 1481.112477 577.094546 " transform="matrix(0.0996269, 0, 0, -0.0996269, -0.000000000000004496, 199.78709)"/>
<path fill-rule="nonzero" fill="rgb(80.076599%, 99.021912%, 87.889099%)" fill-opacity="1" d="M 147.558594 142.292969 L 108.808594 125.167969 L 107.742188 121.425781 "/>
<path fill="none" stroke-width="5" stroke-linecap="round" stroke-linejoin="round" stroke="rgb(0%, 0%, 0%)" stroke-opacity="1" stroke-miterlimit="10" d="M 1481.112477 577.094546 L 1092.161166 748.985932 " transform="matrix(0.0996269, 0, 0, -0.0996269, -0.000000000000004496, 199.78709)"/>
<path fill-rule="nonzero" fill="rgb(72.851562%, 36.497498%, 36.009216%)" fill-opacity="1" stroke-width="5" stroke-linecap="round" stroke-linejoin="round" stroke="rgb(0%, 0%, 0%)" stroke-opacity="1" stroke-miterlimit="10" d="M 1131.134714 815.915356 L 1092.161166 748.985932 L 1481.112477 577.094546 " transform="matrix(0.0996269, 0, 0, -0.0996269, -0.000000000000004496, 199.78709)"/>
<path fill-rule="nonzero" fill="rgb(0%, 4.899597%, 59.179688%)" fill-opacity="1" d="M 108.808594 125.167969 L 112.691406 118.5 L 109.898438 129.015625 "/>
<path fill="none" stroke-width="5" stroke-linecap="round" stroke-linejoin="round" stroke="rgb(0%, 0%, 0%)" stroke-opacity="1" stroke-miterlimit="10" d="M 1092.161166 748.985932 L 1131.134714 815.915356 " transform="matrix(0.0996269, 0, 0, -0.0996269, -0.000000000000004496, 199.78709)"/>
<path fill-rule="nonzero" fill="rgb(0%, 4.899597%, 59.179688%)" fill-opacity="1" d="M 93.40625 191.082031 L 108.808594 125.167969 L 109.898438 129.015625 "/>
<path fill="none" stroke-width="5" stroke-linecap="round" stroke-linejoin="round" stroke="rgb(0%, 0%, 0%)" stroke-opacity="1" stroke-miterlimit="10" d="M 937.560861 87.376615 L 1092.161166 748.985932 " transform="matrix(0.0996269, 0, 0, -0.0996269, -0.000000000000004496, 199.78709)"/>
<path fill-rule="nonzero" fill="rgb(80.076599%, 99.021912%, 87.889099%)" fill-opacity="1" d="M 108.808594 125.167969 L 100.464844 117.613281 L 107.742188 121.425781 "/>
<path fill="none" stroke-width="5" stroke-linecap="round" stroke-linejoin="round" stroke="rgb(0%, 0%, 0%)" stroke-opacity="1" stroke-miterlimit="10" d="M 1092.161166 748.985932 L 1008.411166 824.815754 " transform="matrix(0.0996269, 0, 0, -0.0996269, -0.000000000000004496, 199.78709)"/>
<path fill-rule="nonzero" fill="rgb(72.851562%, 36.497498%, 36.009216%)" fill-opacity="1" stroke-width="5" stroke-linecap="round" stroke-linejoin="round" stroke="rgb(0%, 0%, 0%)" stroke-opacity="1" stroke-miterlimit="10" d="M 1481.112477 577.094546 L 1242.997425 833.990613 L 1131.134714 815.915356 " transform="matrix(0.0996269, 0, 0, -0.0996269, -0.000000000000004496, 199.78709)"/>
<path fill-rule="nonzero" fill="rgb(46.409607%, 15.795898%, 36.206055%)" fill-opacity="1" stroke-width="5" stroke-linecap="round" stroke-linejoin="round" stroke="rgb(0%, 0%, 0%)" stroke-opacity="1" stroke-miterlimit="10" d="M 1481.112477 577.094546 L 1123.959504 992.943095 L 1159.208216 1035.95515 " transform="matrix(0.0996269, 0, 0, -0.0996269, -0.000000000000004496, 199.78709)"/>
<path fill-rule="nonzero" fill="rgb(46.409607%, 15.795898%, 36.206055%)" fill-opacity="1" d="M 125.597656 101.527344 L 147.558594 142.292969 L 120.417969 103.609375 "/>
<path fill="none" stroke-width="5" stroke-linecap="round" stroke-linejoin="round" stroke="rgb(0%, 0%, 0%)" stroke-opacity="1" stroke-miterlimit="10" d="M 1260.680595 986.277598 L 1481.112477 577.094546 " transform="matrix(0.0996269, 0, 0, -0.0996269, -0.000000000000004496, 199.78709)"/>
<path fill-rule="nonzero" fill="rgb(98.4375%, 85.15625%, 63.084412%)" fill-opacity="1" d="M 125.597656 101.527344 L 122.109375 105.25 L 126.085938 111.039062 "/>
<path fill="none" stroke-width="5" stroke-linecap="round" stroke-linejoin="round" stroke="rgb(0%, 0%, 0%)" stroke-opacity="1" stroke-miterlimit="10" d="M 1260.680595 986.277598 L 1225.667135 948.91161 " transform="matrix(0.0996269, 0, 0, -0.0996269, -0.000000000000004496, 199.78709)"/>
<path fill-rule="nonzero" fill="rgb(98.4375%, 85.15625%, 63.084412%)" fill-opacity="1" d="M 147.558594 142.292969 L 128.054688 106.085938 L 126.085938 111.039062 "/>
<path fill="none" stroke-width="5" stroke-linecap="round" stroke-linejoin="round" stroke="rgb(0%, 0%, 0%)" stroke-opacity="1" stroke-miterlimit="10" d="M 1481.112477 577.094546 L 1285.342931 940.520927 " transform="matrix(0.0996269, 0, 0, -0.0996269, -0.000000000000004496, 199.78709)"/>
<path fill-rule="nonzero" fill="rgb(98.4375%, 85.15625%, 63.084412%)" fill-opacity="1" d="M 128.054688 106.085938 L 125.597656 101.527344 L 126.085938 111.039062 "/>
<path fill="none" stroke-width="5" stroke-linecap="round" stroke-linejoin="round" stroke="rgb(0%, 0%, 0%)" stroke-opacity="1" stroke-miterlimit="10" d="M 1285.342931 940.520927 L 1260.680595 986.277598 " transform="matrix(0.0996269, 0, 0, -0.0996269, -0.000000000000004496, 199.78709)"/>
<path fill-rule="nonzero" fill="rgb(98.4375%, 85.15625%, 63.084412%)" fill-opacity="1" stroke-width="5" stroke-linecap="round" stroke-linejoin="round" stroke="rgb(0%, 0%, 0%)" stroke-opacity="1" stroke-miterlimit="10" d="M 1225.667135 948.91161 L 1242.997425 833.990613 L 1481.112477 577.094546 " transform="matrix(0.0996269, 0, 0, -0.0996269, -0.000000000000004496, 199.78709)"/>
<path fill-rule="nonzero" fill="rgb(65.818787%, 74.804688%, 91.601562%)" fill-opacity="1" d="M 123.835938 116.699219 L 176.339844 147.273438 L 121.527344 122.492188 "/>
<path fill="none" stroke-width="5" stroke-linecap="round" stroke-linejoin="round" stroke="rgb(0%, 0%, 0%)" stroke-opacity="1" stroke-miterlimit="10" d="M 1242.997425 833.990613 L 1770.002926 527.103324 " transform="matrix(0.0996269, 0, 0, -0.0996269, -0.000000000000004496, 199.78709)"/>
<path fill-rule="nonzero" fill="rgb(65.818787%, 74.804688%, 91.601562%)" fill-opacity="1" d="M 112.691406 118.5 L 123.835938 116.699219 L 121.527344 122.492188 "/>
<path fill="none" stroke-width="5" stroke-linecap="round" stroke-linejoin="round" stroke="rgb(0%, 0%, 0%)" stroke-opacity="1" stroke-miterlimit="10" d="M 1131.134714 815.915356 L 1242.997425 833.990613 " transform="matrix(0.0996269, 0, 0, -0.0996269, -0.000000000000004496, 199.78709)"/>
<path fill-rule="nonzero" fill="rgb(0%, 39.892578%, 83.201599%)" fill-opacity="1" d="M 130.214844 101.296875 L 122.109375 105.25 L 130.910156 99.394531 "/>
<path fill="none" stroke-width="5" stroke-linecap="round" stroke-linejoin="round" stroke="rgb(0%, 0%, 0%)" stroke-opacity="1" stroke-miterlimit="10" d="M 1307.025398 988.590918 L 1225.667135 948.91161 " transform="matrix(0.0996269, 0, 0, -0.0996269, -0.000000000000004496, 199.78709)"/>
<path fill-rule="nonzero" fill="rgb(0%, 39.892578%, 83.201599%)" fill-opacity="1" d="M 181.359375 65.839844 L 135.777344 97.441406 L 130.910156 99.394531 "/>
<path fill="none" stroke-width="5" stroke-linecap="round" stroke-linejoin="round" stroke="rgb(0%, 0%, 0%)" stroke-opacity="1" stroke-miterlimit="10" d="M 1820.386236 1344.489209 L 1362.858731 1027.290005 " transform="matrix(0.0996269, 0, 0, -0.0996269, -0.000000000000004496, 199.78709)"/>
<path fill-rule="nonzero" fill="rgb(0%, 39.892578%, 83.201599%)" fill-opacity="1" d="M 135.777344 97.441406 L 130.214844 101.296875 L 130.910156 99.394531 "/>
<path fill="none" stroke-width="5" stroke-linecap="round" stroke-linejoin="round" stroke="rgb(0%, 0%, 0%)" stroke-opacity="1" stroke-miterlimit="10" d="M 1362.858731 1027.290005 L 1307.025398 988.590918 " transform="matrix(0.0996269, 0, 0, -0.0996269, -0.000000000000004496, 199.78709)"/>
<path fill-rule="nonzero" fill="rgb(46.409607%, 15.795898%, 36.206055%)" fill-opacity="1" d="M 115.488281 96.578125 L 125.597656 101.527344 L 120.417969 103.609375 "/>
<path fill="none" stroke-width="5" stroke-linecap="round" stroke-linejoin="round" stroke="rgb(0%, 0%, 0%)" stroke-opacity="1" stroke-miterlimit="10" d="M 1159.208216 1035.95515 L 1260.680595 986.277598 " transform="matrix(0.0996269, 0, 0, -0.0996269, -0.000000000000004496, 199.78709)"/>
<path fill-rule="nonzero" fill="rgb(68.75%, 59.959412%, 75.193787%)" fill-opacity="1" stroke-width="5" stroke-linecap="round" stroke-linejoin="round" stroke="rgb(0%, 0%, 0%)" stroke-opacity="1" stroke-miterlimit="10" d="M 900.586962 1054.814583 L 792.253043 1020.663717 L 323.8647 1445.020576 " transform="matrix(0.0996269, 0, 0, -0.0996269, -0.000000000000004496, 199.78709)"/>
<path fill-rule="nonzero" fill="rgb(68.75%, 59.959412%, 75.193787%)" fill-opacity="1" stroke-width="5" stroke-linecap="round" stroke-linejoin="round" stroke="rgb(0%, 0%, 0%)" stroke-opacity="1" stroke-miterlimit="10" d="M 323.8647 1445.020576 L 896.39162 1164.677645 L 900.586962 1054.814583 " transform="matrix(0.0996269, 0, 0, -0.0996269, -0.000000000000004496, 199.78709)"/>
<path fill-rule="nonzero" fill="rgb(80.664062%, 62.109375%, 65.234375%)" fill-opacity="1" stroke-width="5" stroke-linecap="round" stroke-linejoin="round" stroke="rgb(0%, 0%, 0%)" stroke-opacity="1" stroke-miterlimit="10" d="M 148.758193 656.845248 L 712.619967 1032.191105 L 799.977177 980.435487 " transform="matrix(0.0996269, 0, 0, -0.0996269, -0.000000000000004496, 199.78709)"/>
<path fill-rule="nonzero" fill="rgb(0%, 31.90918%, 75.584412%)" fill-opacity="1" d="M 70.996094 96.953125 L 14.820312 134.347656 L 69.390625 98.832031 "/>
<path fill="none" stroke-width="5" stroke-linecap="round" stroke-linejoin="round" stroke="rgb(0%, 0%, 0%)" stroke-opacity="1" stroke-miterlimit="10" d="M 712.619967 1032.191105 L 148.758193 656.845248 " transform="matrix(0.0996269, 0, 0, -0.0996269, -0.000000000000004496, 199.78709)"/>
<path fill-rule="nonzero" fill="rgb(80.076599%, 99.021912%, 87.889099%)" fill-opacity="1" d="M 79.699219 102.109375 L 70.996094 96.953125 L 72.554688 95.132812 "/>
<path fill="none" stroke-width="5" stroke-linecap="round" stroke-linejoin="round" stroke="rgb(0%, 0%, 0%)" stroke-opacity="1" stroke-miterlimit="10" d="M 799.977177 980.435487 L 712.619967 1032.191105 " transform="matrix(0.0996269, 0, 0, -0.0996269, -0.000000000000004496, 199.78709)"/>
<path fill-rule="nonzero" fill="rgb(0%, 31.90918%, 75.584412%)" fill-opacity="1" d="M 78.511719 92.890625 L 70.996094 96.953125 L 69.390625 98.832031 "/>
<path fill="none" stroke-width="5" stroke-linecap="round" stroke-linejoin="round" stroke="rgb(0%, 0%, 0%)" stroke-opacity="1" stroke-miterlimit="10" d="M 788.057701 1072.968258 L 712.619967 1032.191105 " transform="matrix(0.0996269, 0, 0, -0.0996269, -0.000000000000004496, 199.78709)"/>
<path fill-rule="nonzero" fill="rgb(80.076599%, 99.021912%, 87.889099%)" fill-opacity="1" d="M 70.996094 96.953125 L 32.265625 55.824219 L 72.554688 95.132812 "/>
<path fill="none" stroke-width="5" stroke-linecap="round" stroke-linejoin="round" stroke="rgb(0%, 0%, 0%)" stroke-opacity="1" stroke-miterlimit="10" d="M 712.619967 1032.191105 L 323.8647 1445.020576 " transform="matrix(0.0996269, 0, 0, -0.0996269, -0.000000000000004496, 199.78709)"/>
<path fill-rule="nonzero" fill="rgb(46.409607%, 15.795898%, 36.206055%)" fill-opacity="1" stroke-width="5" stroke-linecap="round" stroke-linejoin="round" stroke="rgb(0%, 0%, 0%)" stroke-opacity="1" stroke-miterlimit="10" d="M 323.8647 1445.020576 L 885.569991 1270.5022 L 952.891503 1192.084597 " transform="matrix(0.0996269, 0, 0, -0.0996269, -0.000000000000004496, 199.78709)"/>
<path fill-rule="nonzero" fill="rgb(49.705505%, 37.988281%, 65.039062%)" fill-opacity="1" stroke-width="5" stroke-linecap="round" stroke-linejoin="round" stroke="rgb(0%, 0%, 0%)" stroke-opacity="1" stroke-miterlimit="10" d="M 323.8647 1445.020576 L 712.619967 1032.191105 L 788.057701 1072.968258 " transform="matrix(0.0996269, 0, 0, -0.0996269, -0.000000000000004496, 199.78709)"/>
<path fill-rule="nonzero" fill="rgb(49.705505%, 37.988281%, 65.039062%)" fill-opacity="1" stroke-width="5" stroke-linecap="round" stroke-linejoin="round" stroke="rgb(0%, 0%, 0%)" stroke-opacity="1" stroke-miterlimit="10" d="M 788.057701 1072.968258 L 770.413741 1189.614443 L 323.8647 1445.020576 " transform="matrix(0.0996269, 0, 0, -0.0996269, -0.000000000000004496, 199.78709)"/>
<path fill-rule="nonzero" fill="rgb(0%, 31.90918%, 75.584412%)" fill-opacity="1" d="M 74.152344 96.589844 L 78.511719 92.890625 L 69.390625 98.832031 "/>
<path fill="none" stroke-width="5" stroke-linecap="round" stroke-linejoin="round" stroke="rgb(0%, 0%, 0%)" stroke-opacity="1" stroke-miterlimit="10" d="M 744.300679 1035.837523 L 788.057701 1072.968258 " transform="matrix(0.0996269, 0, 0, -0.0996269, -0.000000000000004496, 199.78709)"/>
<path fill-rule="nonzero" fill="rgb(0%, 31.90918%, 75.584412%)" fill-opacity="1" d="M 14.820312 134.347656 L 74.152344 96.589844 L 69.390625 98.832031 "/>
<path fill="none" stroke-width="5" stroke-linecap="round" stroke-linejoin="round" stroke="rgb(0%, 0%, 0%)" stroke-opacity="1" stroke-miterlimit="10" d="M 148.758193 656.845248 L 744.300679 1035.837523 " transform="matrix(0.0996269, 0, 0, -0.0996269, -0.000000000000004496, 199.78709)"/>
<path fill-rule="nonzero" fill="rgb(43.309021%, 11.401367%, 32.200623%)" fill-opacity="1" d="M 74.152344 96.589844 L 84.636719 101.792969 L 79.035156 94.289062 "/>
<path fill="none" stroke-width="5" stroke-linecap="round" stroke-linejoin="round" stroke="rgb(0%, 0%, 0%)" stroke-opacity="1" stroke-miterlimit="10" d="M 744.300679 1035.837523 L 849.537102 983.6114 " transform="matrix(0.0996269, 0, 0, -0.0996269, -0.000000000000004496, 199.78709)"/>
<path fill-rule="nonzero" fill="rgb(97.264099%, 83.789062%, 65.039062%)" fill-opacity="1" stroke-width="5" stroke-linecap="round" stroke-linejoin="round" stroke="rgb(0%, 0%, 0%)" stroke-opacity="1" stroke-miterlimit="10" d="M 788.057701 1072.968258 L 744.300679 1035.837523 L 714.188319 1084.848525 " transform="matrix(0.0996269, 0, 0, -0.0996269, -0.000000000000004496, 199.78709)"/>
<path fill-rule="nonzero" fill="rgb(65.039062%, 75.78125%, 92.771912%)" fill-opacity="1" d="M 32.265625 55.824219 L 76.753906 81.269531 L 79.605469 75.957031 "/>
<path fill="none" stroke-width="5" stroke-linecap="round" stroke-linejoin="round" stroke="rgb(0%, 0%, 0%)" stroke-opacity="1" stroke-miterlimit="10" d="M 323.8647 1445.020576 L 770.413741 1189.614443 " transform="matrix(0.0996269, 0, 0, -0.0996269, -0.000000000000004496, 199.78709)"/>
<path fill-rule="nonzero" fill="rgb(65.039062%, 75.78125%, 92.771912%)" fill-opacity="1" stroke-width="5" stroke-linecap="round" stroke-linejoin="round" stroke="rgb(0%, 0%, 0%)" stroke-opacity="1" stroke-miterlimit="10" d="M 884.825023 1206.474228 L 885.569991 1270.5022 L 323.8647 1445.020576 " transform="matrix(0.0996269, 0, 0, -0.0996269, -0.000000000000004496, 199.78709)"/>
<path fill-rule="nonzero" fill="rgb(97.264099%, 83.789062%, 65.039062%)" fill-opacity="1" d="M 71.152344 91.707031 L 43.839844 47.199219 L 73.828125 86.71875 "/>
<path fill="none" stroke-width="5" stroke-linecap="round" stroke-linejoin="round" stroke="rgb(0%, 0%, 0%)" stroke-opacity="1" stroke-miterlimit="10" d="M 714.188319 1084.848525 L 440.040379 1531.59361 " transform="matrix(0.0996269, 0, 0, -0.0996269, -0.000000000000004496, 199.78709)"/>
<path fill-rule="nonzero" fill="rgb(97.264099%, 83.789062%, 65.039062%)" fill-opacity="1" d="M 73.828125 86.71875 L 78.511719 92.890625 L 71.152344 91.707031 "/>
<path fill-rule="nonzero" fill="rgb(43.309021%, 11.401367%, 32.200623%)" fill-opacity="1" d="M 43.839844 47.199219 L 74.152344 96.589844 L 79.035156 94.289062 "/>
<path fill="none" stroke-width="5" stroke-linecap="round" stroke-linejoin="round" stroke="rgb(0%, 0%, 0%)" stroke-opacity="1" stroke-miterlimit="10" d="M 440.040379 1531.59361 L 744.300679 1035.837523 " transform="matrix(0.0996269, 0, 0, -0.0996269, -0.000000000000004496, 199.78709)"/>
<path fill-rule="nonzero" fill="rgb(65.039062%, 75.78125%, 92.771912%)" fill-opacity="1" d="M 76.753906 81.269531 L 88.152344 79.589844 L 79.605469 75.957031 "/>
<path fill="none" stroke-width="5" stroke-linecap="round" stroke-linejoin="round" stroke="rgb(0%, 0%, 0%)" stroke-opacity="1" stroke-miterlimit="10" d="M 770.413741 1189.614443 L 884.825023 1206.474228 " transform="matrix(0.0996269, 0, 0, -0.0996269, -0.000000000000004496, 199.78709)"/>
<path fill-rule="nonzero" fill="rgb(80.664062%, 62.109375%, 65.234375%)" fill-opacity="1" stroke-width="5" stroke-linecap="round" stroke-linejoin="round" stroke="rgb(0%, 0%, 0%)" stroke-opacity="1" stroke-miterlimit="10" d="M 1021.389279 849.321255 L 1027.270599 959.615613 L 1123.959504 992.943095 " transform="matrix(0.0996269, 0, 0, -0.0996269, -0.000000000000004496, 199.78709)"/>
<path fill-rule="nonzero" fill="rgb(68.75%, 59.959412%, 75.193787%)" fill-opacity="1" stroke-width="5" stroke-linecap="round" stroke-linejoin="round" stroke="rgb(0%, 0%, 0%)" stroke-opacity="1" stroke-miterlimit="10" d="M 1159.208216 1035.95515 L 1184.458684 1144.171442 L 1820.386236 1344.489209 " transform="matrix(0.0996269, 0, 0, -0.0996269, -0.000000000000004496, 199.78709)"/>
<path fill-rule="nonzero" fill="rgb(68.75%, 59.959412%, 75.193787%)" fill-opacity="1" stroke-width="5" stroke-linecap="round" stroke-linejoin="round" stroke="rgb(0%, 0%, 0%)" stroke-opacity="1" stroke-miterlimit="10" d="M 1820.386236 1344.489209 L 1260.680595 986.277598 L 1159.208216 1035.95515 " transform="matrix(0.0996269, 0, 0, -0.0996269, -0.000000000000004496, 199.78709)"/>
<path fill-rule="nonzero" fill="rgb(0%, 39.892578%, 83.201599%)" fill-opacity="1" stroke-width="5" stroke-linecap="round" stroke-linejoin="round" stroke="rgb(0%, 0%, 0%)" stroke-opacity="1" stroke-miterlimit="10" d="M 1225.667135 948.91161 L 1260.680595 986.277598 L 1820.386236 1344.489209 " transform="matrix(0.0996269, 0, 0, -0.0996269, -0.000000000000004496, 199.78709)"/>
<path fill-rule="nonzero" fill="rgb(81.25%, 62.304688%, 64.84375%)" fill-opacity="1" stroke-width="5" stroke-linecap="round" stroke-linejoin="round" stroke="rgb(0%, 0%, 0%)" stroke-opacity="1" stroke-miterlimit="10" d="M 1222.726475 1041.405173 L 1307.025398 988.590918 L 1820.386236 1344.489209 " transform="matrix(0.0996269, 0, 0, -0.0996269, -0.000000000000004496, 199.78709)"/>
<path fill-rule="nonzero" fill="rgb(81.25%, 62.304688%, 64.84375%)" fill-opacity="1" stroke-width="5" stroke-linecap="round" stroke-linejoin="round" stroke="rgb(0%, 0%, 0%)" stroke-opacity="1" stroke-miterlimit="10" d="M 1820.386236 1344.489209 L 1256.759714 1155.189115 L 1222.726475 1041.405173 " transform="matrix(0.0996269, 0, 0, -0.0996269, -0.000000000000004496, 199.78709)"/>
<path fill-rule="nonzero" fill="rgb(65.039062%, 75.78125%, 92.771912%)" fill-opacity="1" d="M 125.207031 84.699219 L 181.359375 65.839844 L 124.804688 79.113281 "/>
<path fill="none" stroke-width="5" stroke-linecap="round" stroke-linejoin="round" stroke="rgb(0%, 0%, 0%)" stroke-opacity="1" stroke-miterlimit="10" d="M 1256.759714 1155.189115 L 1820.386236 1344.489209 " transform="matrix(0.0996269, 0, 0, -0.0996269, -0.000000000000004496, 199.78709)"/>
<path fill-rule="nonzero" fill="rgb(65.039062%, 75.78125%, 92.771912%)" fill-opacity="1" stroke-width="5" stroke-linecap="round" stroke-linejoin="round" stroke="rgb(0%, 0%, 0%)" stroke-opacity="1" stroke-miterlimit="10" d="M 1820.386236 1344.489209 L 1180.302551 1250.074415 L 1152.22905 1187.654003 " transform="matrix(0.0996269, 0, 0, -0.0996269, -0.000000000000004496, 199.78709)"/>
<path fill-rule="nonzero" fill="rgb(0%, 4.899597%, 59.179688%)" fill-opacity="1" d="M 125.207031 84.699219 L 150.191406 54.179688 L 125.617188 90.433594 "/>
<path fill="none" stroke-width="5" stroke-linecap="round" stroke-linejoin="round" stroke="rgb(0%, 0%, 0%)" stroke-opacity="1" stroke-miterlimit="10" d="M 1256.759714 1155.189115 L 1507.539209 1461.527481 " transform="matrix(0.0996269, 0, 0, -0.0996269, -0.000000000000004496, 199.78709)"/>
<path fill-rule="nonzero" fill="rgb(0%, 4.899597%, 59.179688%)" fill-opacity="1" d="M 121.816406 96.035156 L 125.207031 84.699219 L 125.617188 90.433594 "/>
<path fill="none" stroke-width="5" stroke-linecap="round" stroke-linejoin="round" stroke="rgb(0%, 0%, 0%)" stroke-opacity="1" stroke-miterlimit="10" d="M 1222.726475 1041.405173 L 1256.759714 1155.189115 " transform="matrix(0.0996269, 0, 0, -0.0996269, -0.000000000000004496, 199.78709)"/>
<path fill-rule="nonzero" fill="rgb(65.039062%, 75.78125%, 92.771912%)" fill-opacity="1" d="M 114.792969 81.464844 L 125.207031 84.699219 L 124.804688 79.113281 "/>
<path fill="none" stroke-width="5" stroke-linecap="round" stroke-linejoin="round" stroke="rgb(0%, 0%, 0%)" stroke-opacity="1" stroke-miterlimit="10" d="M 1152.22905 1187.654003 L 1256.759714 1155.189115 " transform="matrix(0.0996269, 0, 0, -0.0996269, -0.000000000000004496, 199.78709)"/>
<path fill-rule="nonzero" fill="rgb(80.664062%, 62.109375%, 65.234375%)" fill-opacity="1" stroke-width="5" stroke-linecap="round" stroke-linejoin="round" stroke="rgb(0%, 0%, 0%)" stroke-opacity="1" stroke-miterlimit="10" d="M 1078.634129 1925.053933 L 1042.797285 1251.956437 L 952.891503 1192.084597 " transform="matrix(0.0996269, 0, 0, -0.0996269, -0.000000000000004496, 199.78709)"/>
<path fill-rule="nonzero" fill="rgb(68.75%, 59.959412%, 75.193787%)" fill-opacity="1" stroke-width="5" stroke-linecap="round" stroke-linejoin="round" stroke="rgb(0%, 0%, 0%)" stroke-opacity="1" stroke-miterlimit="10" d="M 1008.411166 824.815754 L 1092.161166 748.985932 L 937.560861 87.376615 " transform="matrix(0.0996269, 0, 0, -0.0996269, -0.000000000000004496, 199.78709)"/>
<path fill-rule="nonzero" fill="rgb(68.75%, 59.959412%, 75.193787%)" fill-opacity="1" stroke-width="5" stroke-linecap="round" stroke-linejoin="round" stroke="rgb(0%, 0%, 0%)" stroke-opacity="1" stroke-miterlimit="10" d="M 937.560861 87.376615 L 911.76147 762.944265 L 1008.411166 824.815754 " transform="matrix(0.0996269, 0, 0, -0.0996269, -0.000000000000004496, 199.78709)"/>
<path fill-rule="nonzero" fill="rgb(80.664062%, 62.109375%, 65.234375%)" fill-opacity="1" stroke-width="5" stroke-linecap="round" stroke-linejoin="round" stroke="rgb(0%, 0%, 0%)" stroke-opacity="1" stroke-miterlimit="10" d="M 952.891503 1192.084597 L 885.569991 1270.5022 L 1078.634129 1925.053933 " transform="matrix(0.0996269, 0, 0, -0.0996269, -0.000000000000004496, 199.78709)"/>
<path fill-rule="nonzero" fill="rgb(80.664062%, 62.109375%, 65.234375%)" fill-opacity="1" stroke-width="5" stroke-linecap="round" stroke-linejoin="round" stroke="rgb(0%, 0%, 0%)" stroke-opacity="1" stroke-miterlimit="10" d="M 799.977177 980.435487 L 767.433872 870.101919 L 148.758193 656.845248 " transform="matrix(0.0996269, 0, 0, -0.0996269, -0.000000000000004496, 199.78709)"/>
<path fill-rule="nonzero" fill="rgb(0%, 0%, 53.318787%)" fill-opacity="1" stroke-width="5" stroke-linecap="round" stroke-linejoin="round" stroke="rgb(0%, 0%, 0%)" stroke-opacity="1" stroke-miterlimit="10" d="M 885.569991 1270.5022 L 884.825023 1206.474228 L 921.877341 1280.853324 " transform="matrix(0.0996269, 0, 0, -0.0996269, -0.000000000000004496, 199.78709)"/>
<path fill-rule="nonzero" fill="rgb(0%, 0%, 53.318787%)" fill-opacity="1" d="M 90.246094 66.363281 L 88.226562 73.210938 L 91.84375 72.179688 "/>
<path fill="none" stroke-width="5" stroke-linecap="round" stroke-linejoin="round" stroke="rgb(0%, 0%, 0%)" stroke-opacity="1" stroke-miterlimit="10" d="M 905.840941 1339.235229 L 885.569991 1270.5022 " transform="matrix(0.0996269, 0, 0, -0.0996269, -0.000000000000004496, 199.78709)"/>
<path fill-rule="nonzero" fill="rgb(73.242188%, 38.500977%, 39.208984%)" fill-opacity="1" stroke-width="5" stroke-linecap="round" stroke-linejoin="round" stroke="rgb(0%, 0%, 0%)" stroke-opacity="1" stroke-miterlimit="10" d="M 440.040379 1531.59361 L 921.877341 1280.853324 L 884.825023 1206.474228 " transform="matrix(0.0996269, 0, 0, -0.0996269, -0.000000000000004496, 199.78709)"/>
<path fill-rule="nonzero" fill="rgb(76.756287%, 99.609375%, 85.351562%)" fill-opacity="1" d="M 91.84375 72.179688 L 43.839844 47.199219 L 92.726562 75.378906 "/>
<path fill="none" stroke-width="5" stroke-linecap="round" stroke-linejoin="round" stroke="rgb(0%, 0%, 0%)" stroke-opacity="1" stroke-miterlimit="10" d="M 921.877341 1280.853324 L 440.040379 1531.59361 " transform="matrix(0.0996269, 0, 0, -0.0996269, -0.000000000000004496, 199.78709)"/>
<path fill-rule="nonzero" fill="rgb(76.756287%, 99.609375%, 85.351562%)" fill-opacity="1" d="M 100.464844 79.84375 L 91.84375 72.179688 L 92.726562 75.378906 "/>
<path fill="none" stroke-width="5" stroke-linecap="round" stroke-linejoin="round" stroke="rgb(0%, 0%, 0%)" stroke-opacity="1" stroke-miterlimit="10" d="M 1008.411166 1203.925655 L 921.877341 1280.853324 " transform="matrix(0.0996269, 0, 0, -0.0996269, -0.000000000000004496, 199.78709)"/>
<path fill-rule="nonzero" fill="rgb(0%, 0%, 53.318787%)" fill-opacity="1" stroke-width="5" stroke-linecap="round" stroke-linejoin="round" stroke="rgb(0%, 0%, 0%)" stroke-opacity="1" stroke-miterlimit="10" d="M 921.877341 1280.853324 L 1078.634129 1925.053933 L 905.840941 1339.235229 " transform="matrix(0.0996269, 0, 0, -0.0996269, -0.000000000000004496, 199.78709)"/>
<path fill-rule="nonzero" fill="rgb(65.818787%, 74.804688%, 91.601562%)" fill-opacity="1" stroke-width="5" stroke-linecap="round" stroke-linejoin="round" stroke="rgb(0%, 0%, 0%)" stroke-opacity="1" stroke-miterlimit="10" d="M 866.867392 836.06868 L 834.363296 767.845365 L 148.758193 656.845248 " transform="matrix(0.0996269, 0, 0, -0.0996269, -0.000000000000004496, 199.78709)"/>
<path fill-rule="nonzero" fill="rgb(97.264099%, 83.789062%, 65.039062%)" fill-opacity="1" d="M 83.125 123.289062 L 86.363281 116.492188 L 87.378906 127.257812 "/>
<path fill="none" stroke-width="5" stroke-linecap="round" stroke-linejoin="round" stroke="rgb(0%, 0%, 0%)" stroke-opacity="1" stroke-miterlimit="10" d="M 834.363296 767.845365 L 866.867392 836.06868 " transform="matrix(0.0996269, 0, 0, -0.0996269, -0.000000000000004496, 199.78709)"/>
<path fill-rule="nonzero" fill="rgb(72.851562%, 36.497498%, 36.009216%)" fill-opacity="1" d="M 83.125 123.289062 L 89.554688 116.664062 L 78.761719 119.214844 "/>
<path fill="none" stroke-width="5" stroke-linecap="round" stroke-linejoin="round" stroke="rgb(0%, 0%, 0%)" stroke-opacity="1" stroke-miterlimit="10" d="M 834.363296 767.845365 L 898.900983 834.343493 " transform="matrix(0.0996269, 0, 0, -0.0996269, -0.000000000000004496, 199.78709)"/>
<path fill-rule="nonzero" fill="rgb(72.851562%, 36.497498%, 36.009216%)" fill-opacity="1" d="M 14.820312 134.347656 L 83.125 123.289062 L 78.761719 119.214844 "/>
<path fill="none" stroke-width="5" stroke-linecap="round" stroke-linejoin="round" stroke="rgb(0%, 0%, 0%)" stroke-opacity="1" stroke-miterlimit="10" d="M 148.758193 656.845248 L 834.363296 767.845365 " transform="matrix(0.0996269, 0, 0, -0.0996269, -0.000000000000004496, 199.78709)"/>
<path fill-rule="nonzero" fill="rgb(97.264099%, 83.789062%, 65.039062%)" fill-opacity="1" d="M 93.40625 191.082031 L 83.125 123.289062 L 87.378906 127.257812 "/>
<path fill="none" stroke-width="5" stroke-linecap="round" stroke-linejoin="round" stroke="rgb(0%, 0%, 0%)" stroke-opacity="1" stroke-miterlimit="10" d="M 937.560861 87.376615 L 834.363296 767.845365 " transform="matrix(0.0996269, 0, 0, -0.0996269, -0.000000000000004496, 199.78709)"/>
<path fill-rule="nonzero" fill="rgb(51.171875%, 39.404297%, 65.625%)" fill-opacity="1" stroke-width="5" stroke-linecap="round" stroke-linejoin="round" stroke="rgb(0%, 0%, 0%)" stroke-opacity="1" stroke-miterlimit="10" d="M 1770.002926 527.103324 L 1242.997425 833.990613 L 1225.667135 948.91161 " transform="matrix(0.0996269, 0, 0, -0.0996269, -0.000000000000004496, 199.78709)"/>
<path fill-rule="nonzero" fill="rgb(51.171875%, 39.404297%, 65.625%)" fill-opacity="1" stroke-width="5" stroke-linecap="round" stroke-linejoin="round" stroke="rgb(0%, 0%, 0%)" stroke-opacity="1" stroke-miterlimit="10" d="M 1225.667135 948.91161 L 1307.025398 988.590918 L 1770.002926 527.103324 " transform="matrix(0.0996269, 0, 0, -0.0996269, -0.000000000000004496, 199.78709)"/>
<path fill-rule="nonzero" fill="rgb(68.75%, 60.15625%, 75.389099%)" fill-opacity="1" stroke-width="5" stroke-linecap="round" stroke-linejoin="round" stroke="rgb(0%, 0%, 0%)" stroke-opacity="1" stroke-miterlimit="10" d="M 1078.634129 1925.053933 L 921.877341 1280.853324 L 1008.411166 1203.925655 " transform="matrix(0.0996269, 0, 0, -0.0996269, -0.000000000000004496, 199.78709)"/>
<path fill-rule="nonzero" fill="rgb(68.75%, 60.15625%, 75.389099%)" fill-opacity="1" stroke-width="5" stroke-linecap="round" stroke-linejoin="round" stroke="rgb(0%, 0%, 0%)" stroke-opacity="1" stroke-miterlimit="10" d="M 1008.411166 1203.925655 L 1108.942533 1267.914419 L 1078.634129 1925.053933 " transform="matrix(0.0996269, 0, 0, -0.0996269, -0.000000000000004496, 199.78709)"/>
<path fill-rule="nonzero" fill="rgb(0%, 31.90918%, 75.584412%)" fill-opacity="1" d="M 110.480469 73.46875 L 100.464844 79.84375 L 107.164062 76.386719 "/>
<path fill="none" stroke-width="5" stroke-linecap="round" stroke-linejoin="round" stroke="rgb(0%, 0%, 0%)" stroke-opacity="1" stroke-miterlimit="10" d="M 1108.942533 1267.914419 L 1008.411166 1203.925655 " transform="matrix(0.0996269, 0, 0, -0.0996269, -0.000000000000004496, 199.78709)"/>
<path fill-rule="nonzero" fill="rgb(98.4375%, 85.15625%, 63.084412%)" fill-opacity="1" d="M 110.480469 73.46875 L 114.792969 81.464844 L 113.710938 70.632812 "/>
<path fill="none" stroke-width="5" stroke-linecap="round" stroke-linejoin="round" stroke="rgb(0%, 0%, 0%)" stroke-opacity="1" stroke-miterlimit="10" d="M 1108.942533 1267.914419 L 1152.22905 1187.654003 " transform="matrix(0.0996269, 0, 0, -0.0996269, -0.000000000000004496, 199.78709)"/>
<path fill-rule="nonzero" fill="rgb(46.409607%, 15.795898%, 36.206055%)" fill-opacity="1" stroke-width="5" stroke-linecap="round" stroke-linejoin="round" stroke="rgb(0%, 0%, 0%)" stroke-opacity="1" stroke-miterlimit="10" d="M 1152.22905 1187.654003 L 1108.942533 1267.914419 L 1507.539209 1461.527481 " transform="matrix(0.0996269, 0, 0, -0.0996269, -0.000000000000004496, 199.78709)"/>
<path fill-rule="nonzero" fill="rgb(0%, 31.90918%, 75.584412%)" fill-opacity="1" d="M 150.191406 54.179688 L 110.480469 73.46875 L 107.164062 76.386719 "/>
<path fill="none" stroke-width="5" stroke-linecap="round" stroke-linejoin="round" stroke="rgb(0%, 0%, 0%)" stroke-opacity="1" stroke-miterlimit="10" d="M 1507.539209 1461.527481 L 1108.942533 1267.914419 " transform="matrix(0.0996269, 0, 0, -0.0996269, -0.000000000000004496, 199.78709)"/>
<path fill-rule="nonzero" fill="rgb(98.4375%, 85.15625%, 63.084412%)" fill-opacity="1" d="M 107.460938 8 L 110.480469 73.46875 L 113.710938 70.632812 "/>
<path fill="none" stroke-width="5" stroke-linecap="round" stroke-linejoin="round" stroke="rgb(0%, 0%, 0%)" stroke-opacity="1" stroke-miterlimit="10" d="M 1078.634129 1925.053933 L 1108.942533 1267.914419 " transform="matrix(0.0996269, 0, 0, -0.0996269, -0.000000000000004496, 199.78709)"/>
<path fill-rule="nonzero" fill="rgb(65.818787%, 74.804688%, 91.601562%)" fill-opacity="1" stroke-width="5" stroke-linecap="round" stroke-linejoin="round" stroke="rgb(0%, 0%, 0%)" stroke-opacity="1" stroke-miterlimit="10" d="M 1770.002926 527.103324 L 1134.036166 744.672963 L 1131.134714 815.915356 " transform="matrix(0.0996269, 0, 0, -0.0996269, -0.000000000000004496, 199.78709)"/>
<path fill-rule="nonzero" fill="rgb(43.309021%, 11.401367%, 32.200623%)" fill-opacity="1" d="M 112.980469 125.597656 L 176.339844 147.273438 L 116.148438 122.089844 "/>
<path fill="none" stroke-width="5" stroke-linecap="round" stroke-linejoin="round" stroke="rgb(0%, 0%, 0%)" stroke-opacity="1" stroke-miterlimit="10" d="M 1134.036166 744.672963 L 1770.002926 527.103324 " transform="matrix(0.0996269, 0, 0, -0.0996269, -0.000000000000004496, 199.78709)"/>
<path fill-rule="nonzero" fill="rgb(0%, 4.899597%, 59.179688%)" fill-opacity="1" d="M 112.691406 118.5 L 112.980469 125.597656 L 109.898438 129.015625 "/>
<path fill="none" stroke-width="5" stroke-linecap="round" stroke-linejoin="round" stroke="rgb(0%, 0%, 0%)" stroke-opacity="1" stroke-miterlimit="10" d="M 1131.134714 815.915356 L 1134.036166 744.672963 " transform="matrix(0.0996269, 0, 0, -0.0996269, -0.000000000000004496, 199.78709)"/>
<path fill-rule="nonzero" fill="rgb(43.309021%, 11.401367%, 32.200623%)" fill-opacity="1" d="M 106.21875 117.933594 L 112.980469 125.597656 L 116.148438 122.089844 "/>
<path fill="none" stroke-width="5" stroke-linecap="round" stroke-linejoin="round" stroke="rgb(0%, 0%, 0%)" stroke-opacity="1" stroke-miterlimit="10" d="M 1066.16573 821.600632 L 1134.036166 744.672963 " transform="matrix(0.0996269, 0, 0, -0.0996269, -0.000000000000004496, 199.78709)"/>
<path fill-rule="nonzero" fill="rgb(0%, 4.899597%, 59.179688%)" fill-opacity="1" d="M 112.980469 125.597656 L 93.40625 191.082031 L 109.898438 129.015625 "/>
<path fill="none" stroke-width="5" stroke-linecap="round" stroke-linejoin="round" stroke="rgb(0%, 0%, 0%)" stroke-opacity="1" stroke-miterlimit="10" d="M 1134.036166 744.672963 L 937.560861 87.376615 " transform="matrix(0.0996269, 0, 0, -0.0996269, -0.000000000000004496, 199.78709)"/>
<path fill-rule="nonzero" fill="rgb(73.242188%, 38.500977%, 39.208984%)" fill-opacity="1" stroke-width="5" stroke-linecap="round" stroke-linejoin="round" stroke="rgb(0%, 0%, 0%)" stroke-opacity="1" stroke-miterlimit="10" d="M 884.825023 1206.474228 L 770.413741 1189.614443 L 440.040379 1531.59361 " transform="matrix(0.0996269, 0, 0, -0.0996269, -0.000000000000004496, 199.78709)"/>
<path fill-rule="nonzero" fill="rgb(81.25%, 62.304688%, 64.84375%)" fill-opacity="1" stroke-width="5" stroke-linecap="round" stroke-linejoin="round" stroke="rgb(0%, 0%, 0%)" stroke-opacity="1" stroke-miterlimit="10" d="M 937.560861 87.376615 L 1134.036166 744.672963 L 1066.16573 821.600632 " transform="matrix(0.0996269, 0, 0, -0.0996269, -0.000000000000004496, 199.78709)"/>
<path fill-rule="nonzero" fill="rgb(81.25%, 62.304688%, 64.84375%)" fill-opacity="1" stroke-width="5" stroke-linecap="round" stroke-linejoin="round" stroke="rgb(0%, 0%, 0%)" stroke-opacity="1" stroke-miterlimit="10" d="M 1066.16573 821.600632 L 972.260651 756.474813 L 937.560861 87.376615 " transform="matrix(0.0996269, 0, 0, -0.0996269, -0.000000000000004496, 199.78709)"/>
<path fill-rule="nonzero" fill="rgb(49.705505%, 37.988281%, 65.039062%)" fill-opacity="1" stroke-width="5" stroke-linecap="round" stroke-linejoin="round" stroke="rgb(0%, 0%, 0%)" stroke-opacity="1" stroke-miterlimit="10" d="M 898.900983 834.343493 L 834.363296 767.845365 L 937.560861 87.376615 " transform="matrix(0.0996269, 0, 0, -0.0996269, -0.000000000000004496, 199.78709)"/>
<path fill-rule="nonzero" fill="rgb(43.309021%, 11.401367%, 32.200623%)" fill-opacity="1" d="M 112.429688 115.574219 L 106.21875 117.933594 L 116.148438 122.089844 "/>
<path fill="none" stroke-width="5" stroke-linecap="round" stroke-linejoin="round" stroke="rgb(0%, 0%, 0%)" stroke-opacity="1" stroke-miterlimit="10" d="M 1128.507725 845.282748 L 1066.16573 821.600632 " transform="matrix(0.0996269, 0, 0, -0.0996269, -0.000000000000004496, 199.78709)"/>
<path fill-rule="nonzero" fill="rgb(43.309021%, 11.401367%, 32.200623%)" fill-opacity="1" d="M 176.339844 147.273438 L 112.429688 115.574219 L 116.148438 122.089844 "/>
<path fill="none" stroke-width="5" stroke-linecap="round" stroke-linejoin="round" stroke="rgb(0%, 0%, 0%)" stroke-opacity="1" stroke-miterlimit="10" d="M 1770.002926 527.103324 L 1128.507725 845.282748 " transform="matrix(0.0996269, 0, 0, -0.0996269, -0.000000000000004496, 199.78709)"/>
<path fill-rule="nonzero" fill="rgb(98.4375%, 85.15625%, 63.084412%)" fill-opacity="1" d="M 112.429688 115.574219 L 111.886719 103.804688 L 108.625 108.925781 "/>
<path fill="none" stroke-width="5" stroke-linecap="round" stroke-linejoin="round" stroke="rgb(0%, 0%, 0%)" stroke-opacity="1" stroke-miterlimit="10" d="M 1128.507725 845.282748 L 1123.057701 963.418867 " transform="matrix(0.0996269, 0, 0, -0.0996269, -0.000000000000004496, 199.78709)"/>
<path fill-rule="nonzero" fill="rgb(0%, 39.892578%, 83.201599%)" fill-opacity="1" stroke-width="5" stroke-linecap="round" stroke-linejoin="round" stroke="rgb(0%, 0%, 0%)" stroke-opacity="1" stroke-miterlimit="10" d="M 1066.16573 821.600632 L 1128.507725 845.282748 L 1104.315894 819.522566 " transform="matrix(0.0996269, 0, 0, -0.0996269, -0.000000000000004496, 199.78709)"/>
<path fill-rule="nonzero" fill="rgb(49.705505%, 37.988281%, 65.039062%)" fill-opacity="1" d="M 93.40625 191.082031 L 96.863281 124.421875 L 90.125 127.636719 "/>
<path fill="none" stroke-width="5" stroke-linecap="round" stroke-linejoin="round" stroke="rgb(0%, 0%, 0%)" stroke-opacity="1" stroke-miterlimit="10" d="M 937.560861 87.376615 L 972.260651 756.474813 " transform="matrix(0.0996269, 0, 0, -0.0996269, -0.000000000000004496, 199.78709)"/>
<path fill-rule="nonzero" fill="rgb(0%, 39.892578%, 83.201599%)" fill-opacity="1" d="M 110.019531 118.140625 L 87.429688 142.230469 L 103.742188 121.136719 "/>
<path fill="none" stroke-width="5" stroke-linecap="round" stroke-linejoin="round" stroke="rgb(0%, 0%, 0%)" stroke-opacity="1" stroke-miterlimit="10" d="M 1104.315894 819.522566 L 877.571395 577.721887 " transform="matrix(0.0996269, 0, 0, -0.0996269, -0.000000000000004496, 199.78709)"/>
<path fill-rule="nonzero" fill="rgb(0%, 39.892578%, 83.201599%)" fill-opacity="1" d="M 103.742188 121.136719 L 106.21875 117.933594 L 110.019531 118.140625 "/>
<path fill-rule="nonzero" fill="rgb(0%, 39.892578%, 83.201599%)" fill-opacity="1" stroke-width="5" stroke-linecap="round" stroke-linejoin="round" stroke="rgb(0%, 0%, 0%)" stroke-opacity="1" stroke-miterlimit="10" d="M 877.571395 577.721887 L 972.260651 756.474813 L 1066.16573 821.600632 " transform="matrix(0.0996269, 0, 0, -0.0996269, -0.000000000000004496, 199.78709)"/>
<path fill-rule="nonzero" fill="rgb(98.4375%, 85.15625%, 63.084412%)" fill-opacity="1" d="M 87.429688 142.230469 L 112.429688 115.574219 L 108.625 108.925781 "/>
<path fill="none" stroke-width="5" stroke-linecap="round" stroke-linejoin="round" stroke="rgb(0%, 0%, 0%)" stroke-opacity="1" stroke-miterlimit="10" d="M 877.571395 577.721887 L 1128.507725 845.282748 " transform="matrix(0.0996269, 0, 0, -0.0996269, -0.000000000000004496, 199.78709)"/>
<path fill-rule="nonzero" fill="rgb(49.705505%, 37.988281%, 65.039062%)" fill-opacity="1" d="M 96.863281 124.421875 L 89.554688 116.664062 L 90.125 127.636719 "/>
<path fill="none" stroke-width="5" stroke-linecap="round" stroke-linejoin="round" stroke="rgb(0%, 0%, 0%)" stroke-opacity="1" stroke-miterlimit="10" d="M 972.260651 756.474813 L 898.900983 834.343493 " transform="matrix(0.0996269, 0, 0, -0.0996269, -0.000000000000004496, 199.78709)"/>
<path fill-rule="nonzero" fill="rgb(76.756287%, 99.609375%, 85.351562%)" fill-opacity="1" d="M 130.214844 101.296875 L 121.816406 96.035156 L 129.5 103.253906 "/>
<path fill="none" stroke-width="5" stroke-linecap="round" stroke-linejoin="round" stroke="rgb(0%, 0%, 0%)" stroke-opacity="1" stroke-miterlimit="10" d="M 1307.025398 988.590918 L 1222.726475 1041.405173 " transform="matrix(0.0996269, 0, 0, -0.0996269, -0.000000000000004496, 199.78709)"/>
<path fill-rule="nonzero" fill="rgb(76.756287%, 99.609375%, 85.351562%)" fill-opacity="1" stroke-width="5" stroke-linecap="round" stroke-linejoin="round" stroke="rgb(0%, 0%, 0%)" stroke-opacity="1" stroke-miterlimit="10" d="M 1222.726475 1041.405173 L 1238.292369 999.6478 L 1770.002926 527.103324 " transform="matrix(0.0996269, 0, 0, -0.0996269, -0.000000000000004496, 199.78709)"/>
<path fill-rule="nonzero" fill="rgb(0%, 4.899597%, 59.179688%)" fill-opacity="1" stroke-width="5" stroke-linecap="round" stroke-linejoin="round" stroke="rgb(0%, 0%, 0%)" stroke-opacity="1" stroke-miterlimit="10" d="M 1507.539209 1461.527481 L 1238.292369 999.6478 L 1222.726475 1041.405173 " transform="matrix(0.0996269, 0, 0, -0.0996269, -0.000000000000004496, 199.78709)"/>
<path fill-rule="nonzero" fill="rgb(72.851562%, 36.497498%, 36.009216%)" fill-opacity="1" d="M 123.367188 100.195312 L 150.191406 54.179688 L 117.089844 97.0625 "/>
<path fill="none" stroke-width="5" stroke-linecap="round" stroke-linejoin="round" stroke="rgb(0%, 0%, 0%)" stroke-opacity="1" stroke-miterlimit="10" d="M 1238.292369 999.6478 L 1507.539209 1461.527481 " transform="matrix(0.0996269, 0, 0, -0.0996269, -0.000000000000004496, 199.78709)"/>
<path fill-rule="nonzero" fill="rgb(72.851562%, 36.497498%, 36.009216%)" fill-opacity="1" d="M 111.886719 103.804688 L 123.367188 100.195312 L 117.089844 97.0625 "/>
<path fill="none" stroke-width="5" stroke-linecap="round" stroke-linejoin="round" stroke="rgb(0%, 0%, 0%)" stroke-opacity="1" stroke-miterlimit="10" d="M 1123.057701 963.418867 L 1238.292369 999.6478 " transform="matrix(0.0996269, 0, 0, -0.0996269, -0.000000000000004496, 199.78709)"/>
<path fill-rule="nonzero" fill="rgb(76.756287%, 99.609375%, 85.351562%)" fill-opacity="1" d="M 176.339844 147.273438 L 134.871094 105.9375 L 129.5 103.253906 "/>
<path fill="none" stroke-width="5" stroke-linecap="round" stroke-linejoin="round" stroke="rgb(0%, 0%, 0%)" stroke-opacity="1" stroke-miterlimit="10" d="M 1770.002926 527.103324 L 1353.762289 942.010861 " transform="matrix(0.0996269, 0, 0, -0.0996269, -0.000000000000004496, 199.78709)"/>
<path fill-rule="nonzero" fill="rgb(76.756287%, 99.609375%, 85.351562%)" fill-opacity="1" d="M 134.871094 105.9375 L 130.214844 101.296875 L 129.5 103.253906 "/>
<path fill="none" stroke-width="5" stroke-linecap="round" stroke-linejoin="round" stroke="rgb(0%, 0%, 0%)" stroke-opacity="1" stroke-miterlimit="10" d="M 1353.762289 942.010861 L 1307.025398 988.590918 " transform="matrix(0.0996269, 0, 0, -0.0996269, -0.000000000000004496, 199.78709)"/>
<path fill-rule="nonzero" fill="rgb(97.264099%, 83.789062%, 65.039062%)" fill-opacity="1" stroke-width="5" stroke-linecap="round" stroke-linejoin="round" stroke="rgb(0%, 0%, 0%)" stroke-opacity="1" stroke-miterlimit="10" d="M 440.040379 1531.59361 L 770.413741 1189.614443 L 788.057701 1072.968258 " transform="matrix(0.0996269, 0, 0, -0.0996269, -0.000000000000004496, 199.78709)"/>
<path fill-rule="nonzero" fill="rgb(46.409607%, 15.795898%, 36.206055%)" fill-opacity="1" stroke-width="5" stroke-linecap="round" stroke-linejoin="round" stroke="rgb(0%, 0%, 0%)" stroke-opacity="1" stroke-miterlimit="10" d="M 1507.539209 1461.527481 L 1256.759714 1155.189115 L 1152.22905 1187.654003 " transform="matrix(0.0996269, 0, 0, -0.0996269, -0.000000000000004496, 199.78709)"/>
<path fill-rule="nonzero" fill="rgb(80.076599%, 99.021912%, 87.889099%)" fill-opacity="1" stroke-width="5" stroke-linecap="round" stroke-linejoin="round" stroke="rgb(0%, 0%, 0%)" stroke-opacity="1" stroke-miterlimit="10" d="M 898.900983 834.343493 L 972.260651 756.474813 L 877.571395 577.721887 " transform="matrix(0.0996269, 0, 0, -0.0996269, -0.000000000000004496, 199.78709)"/>
<path fill-rule="nonzero" fill="rgb(72.851562%, 36.497498%, 36.009216%)" fill-opacity="1" d="M 81.847656 113.257812 L 14.820312 134.347656 L 78.761719 119.214844 "/>
<path fill="none" stroke-width="5" stroke-linecap="round" stroke-linejoin="round" stroke="rgb(0%, 0%, 0%)" stroke-opacity="1" stroke-miterlimit="10" d="M 821.542018 868.533567 L 148.758193 656.845248 " transform="matrix(0.0996269, 0, 0, -0.0996269, -0.000000000000004496, 199.78709)"/>
<path fill-rule="nonzero" fill="rgb(72.851562%, 36.497498%, 36.009216%)" fill-opacity="1" d="M 89.554688 116.664062 L 81.847656 113.257812 L 78.761719 119.214844 "/>
<path fill="none" stroke-width="5" stroke-linecap="round" stroke-linejoin="round" stroke="rgb(0%, 0%, 0%)" stroke-opacity="1" stroke-miterlimit="10" d="M 898.900983 834.343493 L 821.542018 868.533567 " transform="matrix(0.0996269, 0, 0, -0.0996269, -0.000000000000004496, 199.78709)"/>
<path fill-rule="nonzero" fill="rgb(80.076599%, 99.021912%, 87.889099%)" fill-opacity="1" stroke-width="5" stroke-linecap="round" stroke-linejoin="round" stroke="rgb(0%, 0%, 0%)" stroke-opacity="1" stroke-miterlimit="10" d="M 877.571395 577.721887 L 821.542018 868.533567 L 898.900983 834.343493 " transform="matrix(0.0996269, 0, 0, -0.0996269, -0.000000000000004496, 199.78709)"/>
<path fill-rule="nonzero" fill="rgb(0%, 0%, 53.318787%)" fill-opacity="1" d="M 81.847656 113.257812 L 87.429688 142.230469 L 85.007812 107.160156 "/>
<path fill="none" stroke-width="5" stroke-linecap="round" stroke-linejoin="round" stroke="rgb(0%, 0%, 0%)" stroke-opacity="1" stroke-miterlimit="10" d="M 821.542018 868.533567 L 877.571395 577.721887 " transform="matrix(0.0996269, 0, 0, -0.0996269, -0.000000000000004496, 199.78709)"/>
<path fill-rule="nonzero" fill="rgb(0%, 0%, 53.318787%)" fill-opacity="1" d="M 84.636719 101.792969 L 81.847656 113.257812 L 85.007812 107.160156 "/>
<path fill="none" stroke-width="5" stroke-linecap="round" stroke-linejoin="round" stroke="rgb(0%, 0%, 0%)" stroke-opacity="1" stroke-miterlimit="10" d="M 849.537102 983.6114 L 821.542018 868.533567 " transform="matrix(0.0996269, 0, 0, -0.0996269, -0.000000000000004496, 199.78709)"/>
<path fill-rule="nonzero" fill="rgb(76.756287%, 99.609375%, 85.351562%)" fill-opacity="1" stroke-width="5" stroke-linecap="round" stroke-linejoin="round" stroke="rgb(0%, 0%, 0%)" stroke-opacity="1" stroke-miterlimit="10" d="M 440.040379 1531.59361 L 994.413624 1184.360463 L 1008.411166 1203.925655 " transform="matrix(0.0996269, 0, 0, -0.0996269, -0.000000000000004496, 199.78709)"/>
<path fill-rule="nonzero" fill="rgb(0%, 31.90918%, 75.584412%)" fill-opacity="1" stroke-width="5" stroke-linecap="round" stroke-linejoin="round" stroke="rgb(0%, 0%, 0%)" stroke-opacity="1" stroke-miterlimit="10" d="M 1008.411166 1203.925655 L 994.413624 1184.360463 L 1507.539209 1461.527481 " transform="matrix(0.0996269, 0, 0, -0.0996269, -0.000000000000004496, 199.78709)"/>
<path fill-rule="nonzero" fill="rgb(68.75%, 60.15625%, 75.389099%)" fill-opacity="1" stroke-width="5" stroke-linecap="round" stroke-linejoin="round" stroke="rgb(0%, 0%, 0%)" stroke-opacity="1" stroke-miterlimit="10" d="M 821.542018 868.533567 L 849.537102 983.6114 L 744.300679 1035.837523 " transform="matrix(0.0996269, 0, 0, -0.0996269, -0.000000000000004496, 199.78709)"/>
<path fill-rule="nonzero" fill="rgb(68.75%, 60.15625%, 75.389099%)" fill-opacity="1" stroke-width="5" stroke-linecap="round" stroke-linejoin="round" stroke="rgb(0%, 0%, 0%)" stroke-opacity="1" stroke-miterlimit="10" d="M 744.300679 1035.837523 L 148.758193 656.845248 L 821.542018 868.533567 " transform="matrix(0.0996269, 0, 0, -0.0996269, -0.000000000000004496, 199.78709)"/>
<path fill-rule="nonzero" fill="rgb(0%, 0%, 53.318787%)" fill-opacity="1" stroke-width="5" stroke-linecap="round" stroke-linejoin="round" stroke="rgb(0%, 0%, 0%)" stroke-opacity="1" stroke-miterlimit="10" d="M 877.571395 577.721887 L 882.786166 1029.564115 L 849.537102 983.6114 " transform="matrix(0.0996269, 0, 0, -0.0996269, -0.000000000000004496, 199.78709)"/>
<path fill-rule="nonzero" fill="rgb(43.309021%, 11.401367%, 32.200623%)" fill-opacity="1" stroke-width="5" stroke-linecap="round" stroke-linejoin="round" stroke="rgb(0%, 0%, 0%)" stroke-opacity="1" stroke-miterlimit="10" d="M 849.537102 983.6114 L 882.786166 1029.564115 L 440.040379 1531.59361 " transform="matrix(0.0996269, 0, 0, -0.0996269, -0.000000000000004496, 199.78709)"/>
<path fill-rule="nonzero" fill="rgb(68.75%, 60.15625%, 75.389099%)" fill-opacity="1" stroke-width="5" stroke-linecap="round" stroke-linejoin="round" stroke="rgb(0%, 0%, 0%)" stroke-opacity="1" stroke-miterlimit="10" d="M 1123.057701 963.418867 L 1128.507725 845.282748 L 1770.002926 527.103324 " transform="matrix(0.0996269, 0, 0, -0.0996269, -0.000000000000004496, 199.78709)"/>
<path fill-rule="nonzero" fill="rgb(68.75%, 60.15625%, 75.389099%)" fill-opacity="1" stroke-width="5" stroke-linecap="round" stroke-linejoin="round" stroke="rgb(0%, 0%, 0%)" stroke-opacity="1" stroke-miterlimit="10" d="M 1770.002926 527.103324 L 1238.292369 999.6478 L 1123.057701 963.418867 " transform="matrix(0.0996269, 0, 0, -0.0996269, -0.000000000000004496, 199.78709)"/>
<path fill-rule="nonzero" fill="rgb(72.851562%, 36.497498%, 36.009216%)" fill-opacity="1" stroke-width="5" stroke-linecap="round" stroke-linejoin="round" stroke="rgb(0%, 0%, 0%)" stroke-opacity="1" stroke-miterlimit="10" d="M 1507.539209 1461.527481 L 1074.713249 1015.527364 L 1123.057701 963.418867 " transform="matrix(0.0996269, 0, 0, -0.0996269, -0.000000000000004496, 199.78709)"/>
<path fill-rule="nonzero" fill="rgb(98.4375%, 85.15625%, 63.084412%)" fill-opacity="1" stroke-width="5" stroke-linecap="round" stroke-linejoin="round" stroke="rgb(0%, 0%, 0%)" stroke-opacity="1" stroke-miterlimit="10" d="M 1123.057701 963.418867 L 1074.713249 1015.527364 L 877.571395 577.721887 " transform="matrix(0.0996269, 0, 0, -0.0996269, -0.000000000000004496, 199.78709)"/>
<path fill-rule="nonzero" fill="rgb(49.705505%, 37.988281%, 65.039062%)" fill-opacity="1" stroke-width="5" stroke-linecap="round" stroke-linejoin="round" stroke="rgb(0%, 0%, 0%)" stroke-opacity="1" stroke-miterlimit="10" d="M 988.257842 1064.969663 L 1074.713249 1015.527364 L 1507.539209 1461.527481 " transform="matrix(0.0996269, 0, 0, -0.0996269, -0.000000000000004496, 199.78709)"/>
<path fill-rule="nonzero" fill="rgb(49.705505%, 37.988281%, 65.039062%)" fill-opacity="1" stroke-width="5" stroke-linecap="round" stroke-linejoin="round" stroke="rgb(0%, 0%, 0%)" stroke-opacity="1" stroke-miterlimit="10" d="M 1507.539209 1461.527481 L 994.413624 1184.360463 L 988.257842 1064.969663 " transform="matrix(0.0996269, 0, 0, -0.0996269, -0.000000000000004496, 199.78709)"/>
<path fill-rule="nonzero" fill="rgb(65.039062%, 75.78125%, 92.771912%)" fill-opacity="1" stroke-width="5" stroke-linecap="round" stroke-linejoin="round" stroke="rgb(0%, 0%, 0%)" stroke-opacity="1" stroke-miterlimit="10" d="M 988.257842 1064.969663 L 882.786166 1029.564115 L 877.571395 577.721887 " transform="matrix(0.0996269, 0, 0, -0.0996269, -0.000000000000004496, 199.78709)"/>
<path fill-rule="nonzero" fill="rgb(65.039062%, 75.78125%, 92.771912%)" fill-opacity="1" stroke-width="5" stroke-linecap="round" stroke-linejoin="round" stroke="rgb(0%, 0%, 0%)" stroke-opacity="1" stroke-miterlimit="10" d="M 877.571395 577.721887 L 1074.713249 1015.527364 L 988.257842 1064.969663 " transform="matrix(0.0996269, 0, 0, -0.0996269, -0.000000000000004496, 199.78709)"/>
<path fill-rule="nonzero" fill="rgb(81.25%, 62.304688%, 64.84375%)" fill-opacity="1" stroke-width="5" stroke-linecap="round" stroke-linejoin="round" stroke="rgb(0%, 0%, 0%)" stroke-opacity="1" stroke-miterlimit="10" d="M 988.257842 1064.969663 L 994.413624 1184.360463 L 440.040379 1531.59361 " transform="matrix(0.0996269, 0, 0, -0.0996269, -0.000000000000004496, 199.78709)"/>
<path fill-rule="nonzero" fill="rgb(81.25%, 62.304688%, 64.84375%)" fill-opacity="1" stroke-width="5" stroke-linecap="round" stroke-linejoin="round" stroke="rgb(0%, 0%, 0%)" stroke-opacity="1" stroke-miterlimit="10" d="M 440.040379 1531.59361 L 882.786166 1029.564115 L 988.257842 1064.969663 " transform="matrix(0.0996269, 0, 0, -0.0996269, -0.000000000000004496, 199.78709)"/>
</svg>
