<?xml version="1.0" encoding="UTF-8"?>
<svg xmlns="http://www.w3.org/2000/svg" xmlns:xlink="http://www.w3.org/1999/xlink" width="285.19" height="137.91" viewBox="0 0 285.19 137.91">
<defs>
<clipPath id="clip-0">
<path clip-rule="nonzero" d="M 0 0.152344 L 68 0.152344 L 68 137.667969 L 0 137.667969 Z M 0 0.152344 "/>
</clipPath>
<clipPath id="clip-1">
<path clip-rule="nonzero" d="M 0 0.152344 L 69 0.152344 L 69 137.667969 L 0 137.667969 Z M 0 0.152344 "/>
</clipPath>
<clipPath id="clip-2">
<path clip-rule="nonzero" d="M 0 0.152344 L 68 0.152344 L 68 137.667969 L 0 137.667969 Z M 0 0.152344 "/>
</clipPath>
<clipPath id="clip-3">
<path clip-rule="nonzero" d="M 0 0.152344 L 69 0.152344 L 69 137.667969 L 0 137.667969 Z M 0 0.152344 "/>
</clipPath>
<clipPath id="clip-4">
<path clip-rule="nonzero" d="M 34 0.152344 L 68 0.152344 L 68 81 L 34 81 Z M 34 0.152344 "/>
</clipPath>
<clipPath id="clip-5">
<path clip-rule="nonzero" d="M 34 0.152344 L 69 0.152344 L 69 81 L 34 81 Z M 34 0.152344 "/>
</clipPath>
<clipPath id="clip-6">
<path clip-rule="nonzero" d="M 0 18 L 44 18 L 44 137.667969 L 0 137.667969 Z M 0 18 "/>
</clipPath>
<clipPath id="clip-7">
<path clip-rule="nonzero" d="M 0 17 L 44 17 L 44 137.667969 L 0 137.667969 Z M 0 17 "/>
</clipPath>
<clipPath id="clip-8">
<path clip-rule="nonzero" d="M 163 54 L 284.382812 54 L 284.382812 133 L 163 133 Z M 163 54 "/>
</clipPath>
<clipPath id="clip-9">
<path clip-rule="nonzero" d="M 85 114 L 284.382812 114 L 284.382812 133 L 85 133 Z M 85 114 "/>
</clipPath>
<clipPath id="clip-10">
<path clip-rule="nonzero" d="M 163 53 L 284.382812 53 L 284.382812 133 L 163 133 Z M 163 53 "/>
</clipPath>
<clipPath id="clip-11">
<path clip-rule="nonzero" d="M 227 114 L 284.382812 114 L 284.382812 133 L 227 133 Z M 227 114 "/>
</clipPath>
<clipPath id="clip-12">
<path clip-rule="nonzero" d="M 85 131 L 284.382812 131 L 284.382812 133 L 85 133 Z M 85 131 "/>
</clipPath>
</defs>
<g clip-path="url(#clip-0)">
<path fill-rule="nonzero" fill="rgb(0%, 21.580505%, 74.021912%)" fill-opacity="1" d="M 67.875 0.371094 L 34.507812 80.570312 L 0.222656 137.445312 Z M 67.875 0.371094 "/>
</g>
<g clip-path="url(#clip-1)">
<path fill="none" stroke-width="4.499" stroke-linecap="round" stroke-linejoin="round" stroke="rgb(0%, 0%, 0%)" stroke-opacity="1" stroke-miterlimit="10" d="M 680.677794 1376.886991 L 346.05822 572.616976 L 2.232886 2.251605 Z M 680.677794 1376.886991 " transform="matrix(0.0997168, 0, 0, -0.0997168, 0.000000000000006661, 137.669835)"/>
</g>
<g clip-path="url(#clip-2)">
<path fill-rule="nonzero" fill="rgb(92.576599%, 83.201599%, 73.631287%)" fill-opacity="1" d="M 67.875 0.371094 L 43.542969 18.15625 L 0.222656 137.445312 Z M 67.875 0.371094 "/>
</g>
<g clip-path="url(#clip-3)">
<path fill="none" stroke-width="4.499" stroke-linecap="round" stroke-linejoin="round" stroke="rgb(0%, 0%, 0%)" stroke-opacity="1" stroke-miterlimit="10" d="M 680.677794 1376.886991 L 436.6664 1198.530292 L 2.232886 2.251605 Z M 680.677794 1376.886991 " transform="matrix(0.0997168, 0, 0, -0.0997168, 0.000000000000006661, 137.669835)"/>
</g>
<g clip-path="url(#clip-4)">
<path fill-rule="nonzero" fill="rgb(83.984375%, 86.326599%, 86.326599%)" fill-opacity="1" d="M 67.875 0.371094 L 43.542969 18.15625 L 34.507812 80.570312 Z M 67.875 0.371094 "/>
</g>
<g clip-path="url(#clip-5)">
<path fill="none" stroke-width="4.499" stroke-linecap="round" stroke-linejoin="round" stroke="rgb(0%, 0%, 0%)" stroke-opacity="1" stroke-miterlimit="10" d="M 680.677794 1376.886991 L 436.6664 1198.530292 L 346.05822 572.616976 Z M 680.677794 1376.886991 " transform="matrix(0.0997168, 0, 0, -0.0997168, 0.000000000000006661, 137.669835)"/>
</g>
<g clip-path="url(#clip-6)">
<path fill-rule="nonzero" fill="rgb(40.771484%, 54.881287%, 88.671875%)" fill-opacity="1" d="M 0.222656 137.445312 L 43.542969 18.15625 L 34.507812 80.570312 Z M 0.222656 137.445312 "/>
</g>
<g clip-path="url(#clip-7)">
<path fill="none" stroke-width="4.499" stroke-linecap="round" stroke-linejoin="round" stroke="rgb(0%, 0%, 0%)" stroke-opacity="1" stroke-miterlimit="10" d="M 2.232886 2.251605 L 436.6664 1198.530292 L 346.05822 572.616976 Z M 2.232886 2.251605 " transform="matrix(0.0997168, 0, 0, -0.0997168, 0.000000000000006661, 137.669835)"/>
</g>
<path fill-rule="nonzero" fill="rgb(70.506287%, 57.617188%, 70.506287%)" fill-opacity="1" stroke-width="5.707" stroke-linecap="round" stroke-linejoin="round" stroke="rgb(0%, 0%, 0%)" stroke-opacity="1" stroke-miterlimit="10" d="M 865.14555 53.960553 L 2284.908745 225.540246 L 1405.739102 282.576783 Z M 865.14555 53.960553 " transform="matrix(0.0997168, 0, 0, -0.0997168, 0.000000000000006661, 137.669835)"/>
<path fill-rule="nonzero" fill="rgb(70.506287%, 57.617188%, 70.506287%)" fill-opacity="1" d="M 283.816406 132.289062 L 227.84375 115.179688 L 164.257812 54.5625 Z M 283.816406 132.289062 "/>
<g clip-path="url(#clip-8)">
<path fill="none" stroke-width="5.707" stroke-linecap="round" stroke-linejoin="round" stroke="rgb(0%, 0%, 0%)" stroke-opacity="1" stroke-miterlimit="10" d="M 2846.22505 53.960553 L 2284.908745 225.540246 L 1647.243395 833.433777 Z M 2846.22505 53.960553 " transform="matrix(0.0997168, 0, 0, -0.0997168, 0.000000000000006661, 137.669835)"/>
</g>
<path fill-rule="nonzero" fill="rgb(70.506287%, 57.617188%, 70.506287%)" fill-opacity="1" stroke-width="5.707" stroke-linecap="round" stroke-linejoin="round" stroke="rgb(0%, 0%, 0%)" stroke-opacity="1" stroke-miterlimit="10" d="M 2384.565991 1325.178042 L 1405.739102 282.576783 L 865.14555 53.960553 Z M 2384.565991 1325.178042 " transform="matrix(0.0997168, 0, 0, -0.0997168, 0.000000000000006661, 137.669835)"/>
<path fill-rule="nonzero" fill="rgb(70.506287%, 57.617188%, 70.506287%)" fill-opacity="1" d="M 283.816406 132.289062 L 227.84375 115.179688 L 86.269531 132.289062 Z M 283.816406 132.289062 "/>
<g clip-path="url(#clip-9)">
<path fill="none" stroke-width="5.707" stroke-linecap="round" stroke-linejoin="round" stroke="rgb(0%, 0%, 0%)" stroke-opacity="1" stroke-miterlimit="10" d="M 2846.22505 53.960553 L 2284.908745 225.540246 L 865.14555 53.960553 Z M 2846.22505 53.960553 " transform="matrix(0.0997168, 0, 0, -0.0997168, 0.000000000000006661, 137.669835)"/>
</g>
<path fill="none" stroke-width="11.413" stroke-linecap="round" stroke-linejoin="round" stroke="rgb(0%, 0%, 0%)" stroke-opacity="1" stroke-miterlimit="10" d="M 865.14555 53.960553 L 1405.739102 282.576783 " transform="matrix(0.0997168, 0, 0, -0.0997168, 0.000000000000006661, 137.669835)"/>
<path fill="none" stroke-width="11.413" stroke-linecap="round" stroke-linejoin="round" stroke="rgb(0%, 0%, 0%)" stroke-opacity="1" stroke-miterlimit="10" d="M 1405.739102 282.576783 L 2284.908745 225.540246 " transform="matrix(0.0997168, 0, 0, -0.0997168, 0.000000000000006661, 137.669835)"/>
<path fill="none" stroke-width="11.413" stroke-linecap="round" stroke-linejoin="round" stroke="rgb(0%, 0%, 0%)" stroke-opacity="1" stroke-miterlimit="10" d="M 865.14555 53.960553 L 2284.908745 225.540246 " transform="matrix(0.0997168, 0, 0, -0.0997168, 0.000000000000006661, 137.669835)"/>
<g clip-path="url(#clip-10)">
<path fill="none" stroke-width="11.413" stroke-linecap="round" stroke-linejoin="round" stroke="rgb(0%, 0%, 0%)" stroke-opacity="1" stroke-miterlimit="10" d="M 1647.243395 833.433777 L 2846.22505 53.960553 " transform="matrix(0.0997168, 0, 0, -0.0997168, 0.000000000000006661, 137.669835)"/>
</g>
<path fill="none" stroke-width="11.413" stroke-linecap="round" stroke-linejoin="round" stroke="rgb(0%, 0%, 0%)" stroke-opacity="1" stroke-miterlimit="10" d="M 1647.243395 833.433777 L 2284.908745 225.540246 " transform="matrix(0.0997168, 0, 0, -0.0997168, 0.000000000000006661, 137.669835)"/>
<g clip-path="url(#clip-11)">
<path fill="none" stroke-width="11.413" stroke-linecap="round" stroke-linejoin="round" stroke="rgb(0%, 0%, 0%)" stroke-opacity="1" stroke-miterlimit="10" d="M 2284.908745 225.540246 L 2846.22505 53.960553 " transform="matrix(0.0997168, 0, 0, -0.0997168, 0.000000000000006661, 137.669835)"/>
</g>
<path fill="none" stroke-width="11.413" stroke-linecap="round" stroke-linejoin="round" stroke="rgb(0%, 0%, 0%)" stroke-opacity="1" stroke-miterlimit="10" d="M 865.14555 53.960553 L 2384.565991 1325.178042 " transform="matrix(0.0997168, 0, 0, -0.0997168, 0.000000000000006661, 137.669835)"/>
<path fill="none" stroke-width="11.413" stroke-linecap="round" stroke-linejoin="round" stroke="rgb(0%, 0%, 0%)" stroke-opacity="1" stroke-miterlimit="10" d="M 1405.739102 282.576783 L 2384.565991 1325.178042 " transform="matrix(0.0997168, 0, 0, -0.0997168, 0.000000000000006661, 137.669835)"/>
<g clip-path="url(#clip-12)">
<path fill="none" stroke-width="11.413" stroke-linecap="round" stroke-linejoin="round" stroke="rgb(0%, 0%, 0%)" stroke-opacity="1" stroke-miterlimit="10" d="M 865.14555 53.960553 L 2846.22505 53.960553 " transform="matrix(0.0997168, 0, 0, -0.0997168, 0.000000000000006661, 137.669835)"/>
</g>
</svg>
