<?xml version="1.0" encoding="UTF-8"?>
<svg xmlns="http://www.w3.org/2000/svg" xmlns:xlink="http://www.w3.org/1999/xlink" width="211.19" height="167.5" viewBox="0 0 211.19 167.5">
<defs>
<clipPath id="clip-0">
<path clip-rule="nonzero" d="M 0 90 L 210.382812 90 L 210.382812 91 L 0 91 Z M 0 90 "/>
</clipPath>
<clipPath id="clip-1">
<path clip-rule="nonzero" d="M 81 0.0703125 L 82 0.0703125 L 82 166.929688 L 81 166.929688 Z M 81 0.0703125 "/>
</clipPath>
</defs>
<g clip-path="url(#clip-0)">
<path fill="none" stroke-width="2.5" stroke-linecap="round" stroke-linejoin="round" stroke="rgb(0%, 0%, 0%)" stroke-opacity="1" stroke-miterlimit="10" d="M 0.470548 768.613541 L 2111.387406 768.613541 " transform="matrix(0.0996179, 0, 0, -0.0996179, 0.000000000000003775, 166.930967)"/>
</g>
<g clip-path="url(#clip-1)">
<path fill="none" stroke-width="2.5" stroke-linecap="round" stroke-linejoin="round" stroke="rgb(0%, 0%, 0%)" stroke-opacity="1" stroke-miterlimit="10" d="M 821.066782 0.0128439 L 821.066782 1675.006333 " transform="matrix(0.0996179, 0, 0, -0.0996179, 0.000000000000003775, 166.930967)"/>
</g>
<path fill="none" stroke-width="5" stroke-linecap="round" stroke-linejoin="round" stroke="rgb(100%, 0%, 0%)" stroke-opacity="1" stroke-miterlimit="10" d="M 2061.156423 768.613541 L 1911.835906 1030.66948 L 1824.314006 1152.423736 L 1736.831319 1254.689468 L 1651.034761 1338.995957 L 1553.435295 1418.714605 L 1461.717677 1480.121099 L 1373.137045 1528.509103 L 1265.656074 1574.191457 L 1145.156613 1609.874669 L 1026.931466 1629.83374 L 960.741068 1634.656855 L 900.589369 1635.127403 L 795.3435 1626.696754 L 684.019722 1604.384944 L 583.518544 1571.172108 L 495.369247 1530.391295 L 403.33793 1473.925553 L 313.541716 1401.22591 L 239.312793 1322.801269 L 180.96486 1243.513957 L 136.929424 1166.893082 L 98.736623 1078.547724 L 70.503753 982.791237 L 55.132523 891.544166 L 51.172078 839.979965 L 50.740743 783.945559 L 60.034063 682.973833 L 81.44399 587.256558 L 111.637477 502.165822 L 154.849454 415.506594 L 214.491394 327.474934 L 288.798742 245.756457 L 368.242903 179.958183 L 452.431756 127.570523 L 536.032423 89.299298 L 631.984972 59.615571 L 686.999858 48.792971 L 737.466115 42.636636 L 790.794871 39.891774 L 839.967121 40.793657 L 893.609576 45.538348 L 949.722406 54.831668 L 1041.675298 80.123615 L 1092.06313 99.729775 L 1137.706272 121.335764 L 1218.758138 170.27274 L 1288.948192 225.915023 L 1345.570783 282.851313 L 1399.487724 351.433662 " transform="matrix(0.0996179, 0, 0, -0.0996179, 0.000000000000003775, 166.930967)"/>
<path fill="none" stroke-width="5" stroke-linecap="round" stroke-linejoin="round" stroke="rgb(100%, 0%, 0%)" stroke-opacity="1" stroke-miterlimit="10" d="M 1399.487724 351.433662 L 1447.954153 432.407104 L 1469.834628 479.226615 L 1487.244898 524.556057 L 1512.105509 615.528641 L 1524.026055 699.913555 L 1525.359274 794.023125 L 1520.536158 847.155819 L 1512.497632 896.132008 L 1500.263388 947.108025 L 1485.872467 992.594317 L 1442.699702 1090.31142 L 1394.625397 1167.520479 L 1331.689622 1243.39632 L 1263.185698 1306.175245 L 1193.074068 1355.504344 L 1151.822707 1378.992525 L 1105.787443 1401.108273 L 1019.010577 1432.164431 L 967.093464 1444.830011 L 911.76488 1453.809632 L 864.082698 1457.887714 L 811.851887 1458.554323 L 756.366453 1454.94679 L 706.449169 1447.810147 L 649.669729 1435.105355 L 597.360493 1418.79303 L 508.113251 1379.698346 L 460.627131 1352.249722 L 418.944434 1323.742365 L 349.93075 1265.276795 L 292.210214 1201.988109 L 247.54738 1139.48367 L 207.237115 1066.352692 L 173.945854 982.085415 L 161.515549 938.089191 L 151.163496 888.642455 L 142.027025 800.140247 L 143.987641 716.618004 L 155.241577 638.389424 L 176.808354 558.082592 L 202.884547 492.088256 L 239.116731 423.466695 L 286.681276 354.60986 L 346.519278 288.144976 L 410.474573 233.247727 L 474.116169 190.584722 L 555.364097 149.725484 L 598.183952 133.373946 L 646.493531 118.786963 L 734.01543 102.00409 " transform="matrix(0.0996179, 0, 0, -0.0996179, 0.000000000000003775, 166.930967)"/>
<path fill="none" stroke-width="5" stroke-linecap="round" stroke-linejoin="round" stroke="rgb(100%, 0%, 0%)" stroke-opacity="1" stroke-miterlimit="10" d="M 734.01543 102.00409 L 817.223975 96.906488 L 867.454958 98.827892 L 914.941078 104.082343 L 1002.423765 123.061106 L 1049.909886 138.628397 L 1092.808164 156.234729 L 1184.800269 206.740198 L 1258.205733 262.421694 L 1319.690652 323.592914 L 1367.686532 384.803347 L 1411.172996 456.757955 L 1447.91494 540.907595 L 1461.952951 584.943031 L 1473.834284 634.232918 L 1485.480344 723.127249 L 1485.519556 806.767129 L 1474.226408 894.171392 L 1464.148841 937.579431 L 1449.679495 984.477366 L 1415.917687 1064.235227 L 1375.058449 1134.425281 L 1316.632091 1209.712936 L 1254.127652 1270.688095 L 1177.036229 1327.467535 L 1131.275451 1353.857427 L 1088.024261 1374.600745 L 1010.61914 1402.715979 L 924.822583 1421.890803 L 843.770716 1429.341144 L 767.032204 1427.184467 L 678.529997 1413.499367 L 599.321109 1390.364097 L 516.504688 1353.857427 L 435.217547 1303.312746 L 373.732628 1252.650427 L 323.305584 1200.262767 L 272.760903 1133.327336 L 232.999609 1064.352864 L 204.021704 997.064521 L 183.984209 932.207343 L 169.867773 859.076365 L 163.946713 780.063539 L 168.534554 693.051399 L 176.141744 644.545759 L 186.336948 600.667172 L 212.805264 522.085681 L 251.194126 443.621828 L 294.327679 378.019615 L 341.264827 321.906784 L 399.573548 266.852686 " transform="matrix(0.0996179, 0, 0, -0.0996179, 0.000000000000003775, 166.930967)"/>
<path fill="none" stroke-width="5" stroke-linecap="round" stroke-linejoin="round" stroke="rgb(100%, 0%, 0%)" stroke-opacity="1" stroke-miterlimit="10" d="M 399.573548 266.852686 L 468.90093 216.268792 L 542.816155 175.919314 L 586.969228 157.25425 L 629.436171 142.784903 L 717.507043 122.629771 L 767.934088 116.669498 L 814.361475 114.669669 L 896.628924 119.257511 L 984.974283 136.040384 L 1065.594814 162.861612 L 1136.686751 196.937118 L 1219.503172 251.559881 L 1289.105042 313.946683 L 1343.414106 377.862766 L 1392.390294 454.287579 L 1433.171108 544.554341 L 1448.385488 592.079674 L 1460.894218 645.447642 L 1467.952436 691.678968 L 1471.873668 741.713889 L 1471.952093 789.082373 L 1469.089593 832.137501 L 1455.051583 916.130291 L 1443.836859 957.656139 L 1428.30878 1002.554246 L 1393.017691 1078.547724 L 1351.25657 1145.208669 L 1292.477301 1216.300606 L 1230.247348 1273.629019 L 1154.018597 1326.565652 L 1108.963641 1350.955715 L 1066.457485 1370.012903 L 990.777706 1395.422487 L 907.177038 1412.048511 L 828.360274 1417.577448 L 753.856865 1413.969915 L 668.177944 1399.03002 L 591.596282 1375.188929 L 511.681572 1338.407773 L 433.335356 1287.980728 L 370.791704 1234.61276 L 310.914491 1167.912602 L 263.349946 1097.957822 L 227.784371 1028.003042 L 201.08078 954.989701 L 184.650818 886.524989 L 175.043799 805.826033 L 175.318286 729.40122 L 185.944825 646.271101 L 208.727183 560.827454 " transform="matrix(0.0996179, 0, 0, -0.0996179, 0.000000000000003775, 166.930967)"/>
<path fill="none" stroke-width="5" stroke-linecap="round" stroke-linejoin="round" stroke="rgb(100%, 0%, 0%)" stroke-opacity="1" stroke-miterlimit="10" d="M 208.727183 560.827454 L 237.273752 490.911886 L 277.62323 418.682792 L 331.069623 347.316368 L 398.632452 279.831964 L 470.822334 225.954236 L 542.502456 186.036093 L 613.86888 157.136613 L 692.842494 136.001172 L 761.856178 125.962818 L 838.712327 123.610079 L 920.783714 131.256481 L 1007.246881 151.097915 L 1085.63231 180.546368 L 1153.548049 216.22958 L 1213.5429 257.245667 L 1264.871828 301.241891 L 1319.455378 360.138797 L 1362.314444 419.114127 L 1399.958272 486.049558 L 1427.916657 552.867353 L 1449.130522 626.312029 L 1462.070588 708.069718 L 1464.384115 791.552749 L 1457.051411 867.389377 L 1437.562888 953.146722 L 1408.388921 1031.257665 L 1372.784134 1099.408678 L 1332.787567 1158.305584 L 1281.693913 1217.398551 L 1219.934508 1272.923197 L 1151.744282 1319.93877 L 1113.669119 1340.995786 L 1072.104059 1360.32746 L 992.424624 1388.011358 L 916.66642 1404.009985 L 872.90547 1409.029162 L 825.811473 1411.068203 L 741.11286 1405.970601 L 689.90157 1397.383103 L 642.337025 1385.462557 L 600.497479 1371.699033 L 556.265981 1353.582941 L 478.86086 1311.782607 L 412.160702 1263.394603 L 346.793764 1201.007801 L 287.0734 1124.386926 L 261.74224 1082.939504 L 237.7443 1035.649445 L 219.863482 992.47668 L 204.374615 945.147409 " transform="matrix(0.0996179, 0, 0, -0.0996179, 0.000000000000003775, 166.930967)"/>
<path fill="none" stroke-width="5" stroke-linecap="round" stroke-linejoin="round" stroke="rgb(100%, 0%, 0%)" stroke-opacity="1" stroke-miterlimit="10" d="M 204.374615 945.147409 L 192.728556 897.269165 L 185.317427 853.194517 L 179.827703 766.22159 L 186.258523 678.817327 L 202.610061 599.96135 L 231.82324 516.478319 L 250.802003 476.168054 L 274.799943 433.544261 L 322.286063 366.412768 L 382.280914 301.790864 L 446.549908 248.932655 L 510.662052 208.387116 L 582.263749 174.429246 L 652.806714 150.823429 L 732.721424 134.550316 L 820.439385 128.472406 L 907.412312 134.432679 L 950.663502 141.88302 L 997.208527 153.37223 L 1077.123236 182.232498 L 1147.430927 218.347045 L 1213.738961 263.598063 L 1270.636039 313.632985 L 1316.906577 364.609001 L 1359.569582 423.701969 L 1398.076081 493.107776 L 1425.720767 560.866666 L 1446.620934 636.742507 L 1458.580692 722.499852 L 1460.227609 767.005836 L 1458.463055 815.511477 L 1445.836687 902.837315 L 1422.152446 985.418462 L 1390.429678 1058.471015 L 1341.29664 1139.366033 L 1286.948364 1205.595643 L 1213.856598 1272.217375 L 1136.451477 1323.860002 L 1062.693102 1359.621638 L 980.621715 1386.795776 L 908.157346 1401.029849 L 827.497603 1406.872484 L 740.407039 1401.73567 L 692.215097 1393.697145 L 648.963907 1383.109818 L 567.480705 1354.131913 L 494.663425 1316.840996 L 431.296315 1273.668231 L 369.458485 1219.084681 L 317.972708 1160.658323 " transform="matrix(0.0996179, 0, 0, -0.0996179, 0.000000000000003775, 166.930967)"/>
<path fill="none" stroke-width="5" stroke-linecap="round" stroke-linejoin="round" stroke="rgb(100%, 0%, 0%)" stroke-opacity="1" stroke-miterlimit="10" d="M 317.972708 1160.658323 L 277.387956 1102.035904 L 238.685396 1028.395165 L 221.118276 984.634216 L 207.707663 942.951519 L 190.76794 864.644514 L 183.67051 779.514566 L 184.572393 733.126391 L 188.415201 690.581023 L 195.904754 644.310485 L 207.511601 596.157755 L 235.273924 517.654689 L 255.546694 474.874047 L 277.309532 436.406761 L 323.815344 370.216363 L 375.340333 313.397711 L 442.7071 256.147722 L 510.505203 212.50441 L 573.911525 181.605101 L 647.473839 155.881819 L 727.035637 138.785247 L 803.225176 132.119152 L 874.317114 134.158193 L 938.978231 142.980965 L 1008.540887 160.273598 L 1079.162277 186.741915 L 1147.274078 222.072216 L 1214.758482 268.578028 L 1272.479018 320.063805 L 1319.180892 372.647527 L 1366.274889 440.602479 L 1387.41033 478.716854 L 1406.938065 520.517188 L 1434.621964 600.549535 L 1450.542166 677.052772 L 1457.051411 757.359605 L 1452.46357 845.155991 L 1437.053128 926.75683 L 1413.368886 1000.044658 L 1381.33242 1069.293616 L 1345.335509 1128.347371 L 1296.124047 1191.126296 L 1242.95214 1244.180566 L 1177.977325 1294.646823 L 1102.885731 1338.36856 L 1034.577868 1367.268041 L 956.349289 1389.579851 L 869.611635 1402.245431 L 820.51781 1404.08841 L 775.73734 1402.441492 L 689.627083 1390.246461 " transform="matrix(0.0996179, 0, 0, -0.0996179, 0.000000000000003775, 166.930967)"/>
<path fill="none" stroke-width="5" stroke-linecap="round" stroke-linejoin="round" stroke="rgb(100%, 0%, 0%)" stroke-opacity="1" stroke-miterlimit="10" d="M 689.627083 1390.246461 L 610.378983 1367.973862 L 545.639442 1341.07421 L 478.19425 1303.351958 L 413.14101 1255.552139 L 358.165337 1203.51739 L 315.619969 1153.16877 L 276.760559 1095.761932 L 241.587108 1028.395165 L 216.687284 963.381138 L 197.747733 889.661975 L 187.474105 809.119868 L 187.238831 732.498994 L 195.042083 663.32846 L 213.863997 583.609812 L 228.96074 539.927287 L 245.625977 500.793391 L 282.995318 432.054193 L 331.383322 364.9227 L 386.672694 306.025794 L 454.902132 250.422724 L 525.758795 207.053897 L 595.988062 175.448767 L 668.922978 152.744833 L 736.838718 139.883192 L 816.400516 134.315042 L 891.296049 138.236274 L 972.387128 152.705621 L 1055.125124 179.213149 L 1122.29583 210.583006 L 1191.152665 253.716559 L 1258.558644 309.67254 L 1321.415994 379.235197 L 1370.705881 452.679874 L 1406.271456 524.908968 L 1431.171279 596.510666 L 1447.993365 675.092156 L 1454.384973 743.400019 L 1452.855693 818.962161 L 1441.209634 899.190569 L 1417.407755 983.065723 L 1384.508618 1058.54944 L 1346.119756 1123.367406 L 1300.358978 1183.08777 L 1251.774912 1233.279541 L 1192.485884 1281.863606 L 1123.354562 1325.389282 L 1052.733173 1358.209995 L 982.974454 1381.031565 L 918.470187 1394.481391 L 847.535099 1401.461184 " transform="matrix(0.0996179, 0, 0, -0.0996179, 0.000000000000003775, 166.930967)"/>
<path fill="none" stroke-width="5" stroke-linecap="round" stroke-linejoin="round" stroke="rgb(100%, 0%, 0%)" stroke-opacity="1" stroke-miterlimit="10" d="M 847.535099 1401.461184 L 765.150013 1399.500568 L 690.764241 1388.403481 L 607.320422 1364.71924 L 531.91513 1332.016164 L 466.665828 1293.352816 L 410.788271 1250.885873 L 355.263625 1197.478692 L 303.895485 1133.797883 L 261.193268 1064.11759 L 242.449779 1025.454241 L 225.627693 983.497058 L 202.610061 903.543137 L 190.885577 828.177056 L 188.336776 784.729805 L 188.885749 738.263205 L 198.453555 655.133085 L 209.668279 605.215801 L 223.941563 559.023687 L 259.938474 476.089629 L 301.77802 407.036732 L 357.53794 337.944623 L 425.492891 274.851999 L 496.78089 225.405263 L 568.93156 188.428045 L 638.494217 162.940036 L 721.859611 143.882848 L 802.676204 136.354083 L 890.002042 139.922404 L 938.350833 147.137471 L 981.523598 156.901339 L 1063.242075 184.428388 L 1136.020142 220.268449 L 1214.56242 273.636417 L 1278.949051 332.572535 L 1339.532086 406.762246 L 1367.804169 451.072168 L 1390.547315 493.970447 L 1421.015288 569.297315 L 1433.131895 610.391827 L 1442.895763 654.780174 L 1452.032234 730.499165 L 1451.483262 814.570381 L 1441.680181 888.56403 L 1421.407412 966.322062 L 1393.370602 1036.825814 L 1360.432253 1098.036247 L 1313.57353 1164.65798 L 1262.675938 1220.653174 L 1199.583314 1274.648539 L 1125.079904 1322.605207 " transform="matrix(0.0996179, 0, 0, -0.0996179, 0.000000000000003775, 166.930967)"/>
<path fill="none" stroke-width="5" stroke-linecap="round" stroke-linejoin="round" stroke="rgb(100%, 0%, 0%)" stroke-opacity="1" stroke-miterlimit="10" d="M 1125.079904 1322.605207 L 1085.044125 1342.721128 L 1040.224442 1361.268556 L 999.600478 1374.718382 L 955.800316 1385.933105 L 871.101703 1398.441836 L 792.245727 1399.775054 L 717.11492 1391.775741 L 649.826578 1376.71821 L 574.734984 1350.328318 L 507.172155 1316.762572 L 448.78501 1278.922682 L 398.750089 1238.298718 L 349.303352 1188.577495 L 302.444629 1129.053193 L 263.153884 1064.548925 L 233.470157 1000.044658 L 207.864512 919.620188 L 194.022563 843.391437 L 189.630783 767.280322 L 195.316569 684.032565 L 212.962113 598.706556 L 239.822553 522.164106 L 277.819292 446.954875 L 328.638459 373.588623 L 379.888963 317.122881 L 443.687408 262.617755 L 519.563249 214.072902 L 564.971116 191.72188 L 607.947819 174.507671 L 648.84627 161.410756 L 694.371774 150.313669 L 778.874325 138.902884 L 865.455129 139.098945 L 943.213161 149.49021 L 985.60168 159.410927 L 1030.578212 173.370514 L 1108.885216 207.093109 L 1177.742051 248.109197 L 1244.167722 300.536069 L 1294.908465 351.982634 L 1343.374893 414.722347 L 1385.05759 485.931921 L 1415.682413 557.847318 L 1435.40621 625.214084 L 1448.189427 700.384103 L 1451.718535 783.200524 L 1449.326584 825.040071 L 1443.483948 870.879273 L 1425.09337 950.323435 L 1398.625053 1022.121194 " transform="matrix(0.0996179, 0, 0, -0.0996179, 0.000000000000003775, 166.930967)"/>
<path fill="none" stroke-width="5" stroke-linecap="round" stroke-linejoin="round" stroke="rgb(100%, 0%, 0%)" stroke-opacity="1" stroke-miterlimit="10" d="M 1398.625053 1022.121194 L 1365.608279 1086.860736 L 1323.102124 1150.384695 L 1229.227828 1249.395805 L 1168.252669 1295.117371 L 1106.963812 1330.722158 L 1035.636601 1361.582254 L 955.878741 1384.639099 L 875.140572 1396.873343 L 828.752397 1399.108445 L 785.344358 1398.167349 L 698.567493 1387.109475 L 650.806886 1375.69869 L 608.065456 1362.052802 L 534.777629 1330.330035 L 460.195795 1285.549564 L 396.005226 1234.181424 L 342.990169 1179.519449 L 286.053879 1101.957479 L 262.604911 1060.941392 L 243.82221 1021.846708 L 216.059887 945.461107 L 205.47256 904.052897 L 197.394822 859.703762 L 192.493282 814.766443 L 190.807152 766.417651 L 197.159548 679.483936 L 206.923416 627.096276 L 220.216393 578.512211 L 235.430773 535.888418 L 255.350632 490.951099 L 296.523569 419.388613 L 343.303867 357.746845 L 402.867382 297.281447 L 475.449388 241.796013 L 514.465647 218.150984 L 558.932419 195.682324 L 599.517171 178.821026 L 643.94473 163.998769 L 688.882049 152.627196 L 730.251048 145.176855 L 812.008736 138.706822 L 894.276185 142.941753 L 968.897231 156.273942 L 1048.302181 181.134553 L 1086.926316 197.525303 L 1127.903191 218.503895 L 1193.074068 260.304228 L 1256.676452 313.672197 L 1309.809147 371.314308 L 1351.648693 429.270118 " transform="matrix(0.0996179, 0, 0, -0.0996179, 0.000000000000003775, 166.930967)"/>
<path fill="none" stroke-width="5" stroke-linecap="round" stroke-linejoin="round" stroke="rgb(100%, 0%, 0%)" stroke-opacity="1" stroke-miterlimit="10" d="M 1351.648693 429.270118 L 1389.410158 497.264282 L 1417.015632 564.905535 L 1438.033436 642.193019 L 1449.483433 727.832728 L 1449.208947 813.472436 L 1444.660318 856.331502 L 1436.347306 902.75889 L 1413.133612 983.02651 L 1382.195091 1054.353722 L 1342.041675 1122.269461 L 1296.594595 1181.323216 L 1249.53981 1229.985706 L 1194.250438 1275.707272 L 1128.609013 1318.017366 L 1063.869472 1349.504859 L 990.660069 1374.914443 L 907.137826 1392.246289 L 863.61215 1396.755706 L 815.890756 1398.128137 L 729.309952 1391.42283 L 646.689592 1373.463587 L 572.81358 1347.073695 L 529.444754 1326.448015 L 490.154008 1304.05778 L 421.493235 1254.963954 L 355.616536 1192.302666 L 295.386412 1114.740696 L 255.703543 1045.138826 L 222.725981 963.734049 L 210.452525 921.110256 L 200.727869 874.682869 L 192.101159 789.55292 L 195.042083 704.305335 L 208.491909 624.665112 L 229.11759 555.18088 L 260.448234 482.87336 L 301.581958 413.58519 L 346.754552 355.158832 L 403.886903 297.634358 L 471.410519 245.560396 L 535.679513 207.916568 L 599.085835 179.958183 L 671.667841 157.489524 L 751.543338 143.373088 L 797.657027 139.961616 L 840.241607 139.843979 L 886.865056 143.020177 L 935.802033 150.117607 L 1016.265715 170.664863 L 1060.575637 186.977189 " transform="matrix(0.0996179, 0, 0, -0.0996179, 0.000000000000003775, 166.930967)"/>
<path fill="none" stroke-width="5" stroke-linecap="round" stroke-linejoin="round" stroke="rgb(100%, 0%, 0%)" stroke-opacity="1" stroke-miterlimit="10" d="M 1060.575637 186.977189 L 1100.768266 205.210918 L 1171.860203 246.540704 L 1231.541355 292.066208 L 1293.143911 353.002154 L 1343.296469 418.094607 L 1383.253824 486.637743 L 1416.976419 567.532761 L 1429.563574 609.76443 L 1439.837202 656.191818 L 1449.365796 741.713889 L 1447.601242 822.726544 L 1434.504327 907.111458 L 1414.309982 977.183875 L 1383.057762 1050.706976 L 1334.35606 1131.87648 L 1279.890146 1198.576637 L 1206.367045 1265.512069 L 1128.020828 1317.350756 L 1049.400125 1354.445612 L 972.9361 1378.718038 L 931.920013 1387.501598 L 886.198447 1393.932419 L 838.084929 1397.108617 L 792.912336 1396.716493 L 711.19386 1387.658447 L 666.25654 1377.933792 L 626.220761 1366.326945 L 550.854681 1336.251095 L 483.919249 1299.234664 L 412.12149 1246.023545 L 353.263797 1188.538283 L 297.974425 1117.171859 L 271.976656 1074.587279 L 251.272551 1034.04174 L 223.000468 961.930282 L 202.727698 881.427388 L 193.591227 805.041787 L 193.630439 732.185295 L 204.256978 648.11408 L 224.0592 572.277452 L 256.448577 492.637228 L 276.917408 454.287579 L 302.483842 413.663615 L 349.813113 352.884517 L 407.298375 295.673742 L 461.921137 253.010737 L 526.582254 213.52393 L 601.242513 179.958183 L 644.768189 165.528049 L 685.078454 155.175997 " transform="matrix(0.0996179, 0, 0, -0.0996179, 0.000000000000003775, 166.930967)"/>
<path fill="none" stroke-width="5" stroke-linecap="round" stroke-linejoin="round" stroke="rgb(100%, 0%, 0%)" stroke-opacity="1" stroke-miterlimit="10" d="M 685.078454 155.175997 L 765.150013 142.784903 L 841.614038 140.667438 L 913.058887 147.098259 L 987.366234 162.743975 L 1048.929578 183.134381 L 1113.786756 212.700471 L 1179.271332 252.500977 L 1243.657962 303.75148 L 1297.770965 359.472187 L 1340.904517 415.859504 L 1383.842008 489.46103 L 1414.780529 563.454679 L 1434.347477 632.74285 L 1446.424872 709.598999 L 1448.699187 794.650522 L 1445.444564 837.391952 L 1438.543196 883.858552 L 1417.917515 964.361446 L 1389.214096 1036.394479 L 1351.452632 1105.055252 L 1308.123017 1165.206952 L 1262.832787 1215.085024 L 1209.229544 1262.375083 L 1145.274249 1306.528156 L 1081.789502 1340.015478 L 1009.638832 1367.660164 L 926.900836 1387.658447 L 840.908217 1396.32437 L 797.460965 1396.206733 L 750.131694 1392.5992 L 667.354485 1377.502456 L 592.890288 1353.661365 L 549.090126 1334.64339 L 509.211196 1313.664798 L 439.138779 1267.080561 L 371.419101 1206.928861 L 308.679388 1131.562781 L 266.80063 1063.686254 L 231.15663 983.732332 L 217.510743 941.735937 L 206.217594 895.739885 L 194.64996 811.119697 L 194.689172 726.068173 L 205.315711 646.114251 L 223.510228 576.041834 L 252.331283 502.714795 L 290.79857 432.603165 L 333.618424 373.03965 L 388.319611 313.868258 L 453.608125 259.676831 " transform="matrix(0.0996179, 0, 0, -0.0996179, 0.000000000000003775, 166.930967)"/>
<path fill="none" stroke-width="5" stroke-linecap="round" stroke-linejoin="round" stroke="rgb(100%, 0%, 0%)" stroke-opacity="1" stroke-miterlimit="10" d="M 453.608125 259.676831 L 516.073352 219.95475 L 578.068031 189.839688 L 649.473667 164.822228 L 728.525706 147.80408 L 774.129634 142.706479 L 816.439728 140.981137 L 862.906328 142.353568 L 911.882517 147.568807 L 992.738322 164.900652 L 1037.440368 179.487636 L 1078.221181 196.074447 L 1150.567913 234.424097 L 1211.778345 277.479225 L 1275.537579 335.787946 L 1328.082088 398.802145 L 1374.431051 472.56052 L 1407.212551 544.397492 L 1421.407412 585.884127 L 1433.484806 631.684117 L 1446.424872 716.500367 L 1447.954153 797.120898 L 1438.307922 881.741086 L 1421.054501 952.401688 L 1392.900054 1027.022734 L 1371.254853 1070.352349 L 1347.766673 1109.721519 L 1296.202472 1178.460717 L 1230.835533 1243.827655 L 1149.705242 1303.155896 L 1071.94721 1343.740648 L 1030.695849 1360.013761 L 984.033187 1374.52232 L 899.334574 1391.148344 L 818.557194 1396.049884 L 741.11286 1390.91307 L 659.82572 1374.953655 L 585.714434 1350.171469 L 521.523865 1319.860345 L 450.941688 1275.158299 L 381.888791 1216.575092 L 325.070138 1152.737434 L 280.838641 1087.527345 L 244.057484 1014.78849 L 218.451838 942.912306 L 200.649445 861.233043 L 195.473418 814.531169 L 193.787289 771.672102 L 199.316226 685.79712 L 207.590026 637.840452 L 218.608688 594.079502 " transform="matrix(0.0996179, 0, 0, -0.0996179, 0.000000000000003775, 166.930967)"/>
<path fill="none" stroke-width="5" stroke-linecap="round" stroke-linejoin="round" stroke="rgb(100%, 0%, 0%)" stroke-opacity="1" stroke-miterlimit="10" d="M 218.608688 594.079502 L 246.802346 516.360682 L 266.918267 474.795622 L 287.740009 438.563438 L 331.971507 375.980574 L 386.476632 316.377847 L 438.746656 271.440527 L 501.32952 229.052009 L 574.029162 192.153215 L 616.613742 175.723253 L 656.375036 163.489009 L 735.544711 147.333533 L 811.73425 141.569321 L 883.100674 144.58867 L 957.878569 156.626853 L 1020.147734 173.958698 L 1086.298919 200.387802 L 1153.430412 236.855261 L 1220.13057 284.929566 L 1276.831585 337.944623 L 1322.592364 392.253687 L 1368.706053 463.188776 L 1403.016833 535.143384 L 1425.799191 602.980699 L 1441.640969 678.817327 L 1448.032577 763.163029 L 1446.973845 805.747609 L 1442.464428 852.371058 L 1425.995253 933.501349 L 1401.095429 1006.67154 L 1367.059135 1076.783169 L 1327.062568 1138.81706 L 1285.144597 1190.185201 L 1233.65882 1240.69067 L 1171.585717 1288.412064 L 1099.670321 1330.25161 L 1034.303382 1358.170782 L 959.015726 1380.208106 L 874.08184 1393.305022 L 830.909075 1395.461699 L 783.619016 1394.402967 L 700.488896 1383.81564 L 625.044391 1364.05263 L 580.499195 1347.505031 L 539.679169 1328.800754 L 467.37165 1286.176962 L 396.632623 1229.946494 L 329.971678 1158.187947 L 284.681448 1092.977858 L 244.802518 1015.259038 L 228.921528 974.242951 " transform="matrix(0.0996179, 0, 0, -0.0996179, 0.000000000000003775, 166.930967)"/>
<path fill="none" stroke-width="5" stroke-linecap="round" stroke-linejoin="round" stroke="rgb(100%, 0%, 0%)" stroke-opacity="1" stroke-miterlimit="10" d="M 228.921528 974.242951 L 215.118791 929.031145 L 198.963315 845.195203 L 194.336261 760.496591 L 200.57102 680.150546 L 214.883517 609.25467 L 239.744129 534.39835 L 257.036762 495.342878 L 278.13299 455.503161 L 322.835036 388.41088 L 380.163449 323.240003 L 452.627817 261.637447 L 522.308111 217.719648 L 562.892863 197.564515 L 602.575732 181.25219 L 682.372804 157.489524 L 757.189912 145.216067 L 831.536472 142.079082 L 910.274812 148.353053 L 976.386784 161.567605 L 1047.165023 184.232326 L 1119.511755 217.641224 L 1191.976123 263.558851 L 1254.010015 315.632813 L 1304.515484 370.020302 L 1351.648693 435.308816 L 1392.272657 511.067019 L 1420.740802 587.060496 L 1437.876586 658.662194 L 1447.169906 744.929299 L 1447.091482 793.827063 L 1443.68001 838.764383 L 1428.975389 920.247585 L 1417.525392 960.401001 L 1401.879676 1003.534554 L 1361.138075 1086.194126 L 1313.691167 1155.678358 L 1247.971317 1227.123207 L 1176.21277 1284.765318 L 1103.160217 1328.016508 L 1030.852698 1358.915816 L 947.76179 1382.168722 L 904.785087 1389.462214 L 856.828419 1394.050056 L 777.148983 1393.540295 L 703.547457 1383.933277 L 624.769905 1363.503658 L 581.989263 1347.622668 L 544.188586 1330.526096 L 471.724218 1288.608125 L 400.161732 1232.573719 " transform="matrix(0.0996179, 0, 0, -0.0996179, 0.000000000000003775, 166.930967)"/>
<path fill="none" stroke-width="5" stroke-linecap="round" stroke-linejoin="round" stroke="rgb(100%, 0%, 0%)" stroke-opacity="1" stroke-miterlimit="10" d="M 400.161732 1232.573719 L 340.715854 1170.696677 L 293.817919 1106.819807 L 258.291556 1043.648758 L 231.82324 981.105107 L 210.766224 909.660259 L 197.786945 830.60822 L 195.081295 746.929128 L 202.884547 667.759452 L 218.412626 598.039946 L 244.253545 524.556057 L 263.114672 484.04973 L 286.720489 441.935698 L 337.461232 370.647699 L 395.926802 308.731444 L 456.666686 259.284708 L 528.974206 214.621875 L 614.496277 177.409383 L 659.433597 163.606646 L 708.605847 152.548771 L 755.699844 145.804252 L 798.951033 142.784903 L 883.139886 145.490554 L 960.113671 158.038496 L 1041.988997 182.663834 L 1081.907139 199.32907 L 1124.452507 220.817422 L 1191.505576 263.754913 L 1257.068576 319.161922 L 1311.416852 379.195985 L 1354.040645 439.975082 L 1361.020438 451.542716 " transform="matrix(0.0996179, 0, 0, -0.0996179, 0.000000000000003775, 166.930967)"/>
</svg>
