<?xml version="1.0" encoding="UTF-8"?>
<svg xmlns="http://www.w3.org/2000/svg" xmlns:xlink="http://www.w3.org/1999/xlink" width="288" height="145" viewBox="0 0 288 145">
<path fill-rule="evenodd" fill="rgb(0%, 0%, 0%)" fill-opacity="1" d="M 47.390625 17.171875 C 47.578125 16.429688 47.617188 16.214844 49.140625 16.214844 C 49.597656 16.214844 49.765625 16.214844 49.765625 15.8125 C 49.765625 15.597656 49.535156 15.597656 49.472656 15.597656 C 49.097656 15.597656 48.640625 15.597656 48.265625 15.597656 L 45.703125 15.597656 C 45.285156 15.597656 44.804688 15.597656 44.390625 15.597656 C 44.222656 15.597656 43.992188 15.597656 43.992188 15.984375 C 43.992188 16.214844 44.160156 16.214844 44.578125 16.214844 C 45.867188 16.214844 45.867188 16.386719 45.867188 16.617188 C 45.867188 16.769531 45.828125 16.894531 45.785156 17.085938 L 42.972656 28.550781 C 42.785156 29.292969 42.742188 29.507812 41.222656 29.507812 C 40.765625 29.507812 40.578125 29.507812 40.578125 29.910156 C 40.578125 30.125 40.785156 30.125 40.890625 30.125 C 41.265625 30.125 41.722656 30.125 42.101562 30.125 L 44.660156 30.125 C 45.078125 30.125 45.535156 30.125 45.953125 30.125 C 46.117188 30.125 46.371094 30.125 46.371094 29.757812 C 46.371094 29.507812 46.242188 29.507812 45.785156 29.507812 C 44.492188 29.507812 44.492188 29.335938 44.492188 29.085938 C 44.492188 29.039062 44.492188 28.933594 44.578125 28.59375 L 47.390625 17.171875 "/>
<path fill-rule="evenodd" fill="rgb(0%, 0%, 0%)" fill-opacity="1" d="M 61.3125 17.960938 L 61.796875 17.46875 C 62.71875 16.511719 63.492188 16.277344 64.226562 16.214844 C 64.457031 16.195312 64.644531 16.171875 64.644531 15.8125 C 64.644531 15.597656 64.433594 15.597656 64.394531 15.597656 C 64.140625 15.597656 63.871094 15.597656 63.617188 15.597656 L 62.757812 15.597656 C 62.152344 15.597656 61.503906 15.597656 60.914062 15.597656 C 60.769531 15.597656 60.539062 15.597656 60.539062 15.984375 C 60.539062 16.191406 60.75 16.214844 60.8125 16.214844 C 61.441406 16.214844 61.441406 16.535156 61.441406 16.660156 C 61.441406 16.894531 61.273438 17.214844 60.851562 17.710938 L 55.867188 23.546875 L 53.503906 17.046875 C 53.375 16.75 53.375 16.707031 53.375 16.660156 C 53.375 16.214844 54.234375 16.214844 54.484375 16.214844 C 54.738281 16.214844 54.96875 16.214844 54.96875 15.804688 C 54.96875 15.597656 54.78125 15.597656 54.652344 15.597656 C 54.296875 15.597656 53.878906 15.597656 53.523438 15.597656 L 51.199219 15.597656 C 50.820312 15.597656 50.421875 15.597656 50.066406 15.597656 C 49.917969 15.597656 49.6875 15.597656 49.6875 16 C 49.6875 16.214844 49.875 16.214844 50.191406 16.214844 C 51.21875 16.214844 51.410156 16.40625 51.597656 16.894531 L 54.191406 23.976562 C 54.214844 24.039062 54.277344 24.273438 54.277344 24.335938 C 54.277344 24.398438 53.246094 28.609375 53.1875 28.824219 C 53.019531 29.402344 52.8125 29.507812 51.46875 29.507812 C 51.113281 29.507812 50.945312 29.507812 50.945312 29.941406 C 50.945312 30.125 51.175781 30.125 51.238281 30.125 C 51.617188 30.125 52.054688 30.125 52.453125 30.125 L 54.921875 30.125 C 55.300781 30.125 55.742188 30.125 56.117188 30.125 C 56.265625 30.125 56.515625 30.125 56.515625 29.757812 C 56.515625 29.507812 56.371094 29.507812 56.015625 29.507812 C 54.71875 29.507812 54.71875 29.382812 54.71875 29.144531 C 54.71875 28.992188 54.882812 28.3125 54.988281 27.886719 L 55.742188 24.820312 C 55.867188 24.371094 55.867188 24.328125 56.058594 24.117188 L 61.3125 17.960938 "/>
<path fill-rule="evenodd" fill="rgb(0%, 0%, 0%)" fill-opacity="1" d="M 196.441406 25.859375 C 195.707031 27.121094 194.996094 27.546875 193.988281 27.546875 C 193.757812 27.546875 193.59375 27.546875 193.59375 27.945312 C 193.59375 28.078125 193.699219 28.164062 193.847656 28.164062 C 194.222656 28.164062 195.164062 28.164062 195.539062 28.164062 C 196.152344 28.164062 196.824219 28.164062 197.410156 28.164062 C 197.539062 28.164062 197.789062 28.164062 197.789062 27.761719 C 197.789062 27.566406 197.621094 27.546875 197.492188 27.546875 C 197.011719 27.507812 196.613281 27.355469 196.613281 26.890625 C 196.613281 26.59375 196.738281 26.359375 197.011719 25.894531 L 198.605469 23.226562 L 203.957031 23.226562 C 203.976562 23.417969 203.976562 23.589844 204 23.777344 C 204.058594 24.328125 204.3125 26.53125 204.3125 26.933594 C 204.3125 27.546875 203.242188 27.546875 202.910156 27.546875 C 202.679688 27.546875 202.445312 27.546875 202.445312 27.953125 C 202.445312 28.164062 202.636719 28.164062 202.757812 28.164062 C 203.117188 28.164062 203.535156 28.164062 203.894531 28.164062 L 205.089844 28.164062 C 206.371094 28.164062 207.296875 28.164062 207.316406 28.164062 C 207.460938 28.164062 207.691406 28.164062 207.691406 27.761719 C 207.691406 27.546875 207.503906 27.546875 207.1875 27.546875 C 206.03125 27.546875 206.011719 27.359375 205.949219 26.71875 L 204.671875 13.429688 C 204.628906 13.007812 204.542969 12.964844 204.3125 12.964844 C 204.105469 12.964844 203.976562 13.007812 203.789062 13.328125 Z M 198.964844 22.609375 L 203.179688 15.390625 L 203.894531 22.609375 Z M 198.964844 22.609375 "/>
<path fill-rule="evenodd" fill="rgb(0%, 0%, 0%)" fill-opacity="1" d="M 215.085938 33.375 C 215.085938 33.355469 215.085938 33.3125 215.019531 33.25 C 214.035156 32.234375 211.410156 29.472656 211.410156 22.742188 C 211.410156 16.019531 213.992188 13.277344 215.042969 12.199219 C 215.042969 12.175781 215.085938 12.132812 215.085938 12.070312 C 215.085938 12.003906 215.019531 11.960938 214.9375 11.960938 C 214.707031 11.960938 212.925781 13.558594 211.898438 15.929688 C 210.847656 18.324219 210.554688 20.65625 210.554688 22.722656 C 210.554688 24.277344 210.703125 26.90625 211.960938 29.6875 C 212.964844 31.929688 214.6875 33.507812 214.9375 33.507812 C 215.042969 33.507812 215.085938 33.464844 215.085938 33.375 "/>
<path fill-rule="evenodd" fill="rgb(0%, 0%, 0%)" fill-opacity="1" d="M 223.835938 15.089844 C 224.027344 14.300781 224.109375 14.253906 224.9375 14.253906 L 227.691406 14.253906 C 230.085938 14.253906 230.085938 16.3125 230.085938 16.503906 C 230.085938 18.238281 228.371094 20.441406 225.570312 20.441406 L 222.519531 20.441406 Z M 227.359375 20.625 C 229.683594 20.195312 231.796875 18.566406 231.796875 16.59375 C 231.796875 14.921875 230.339844 13.636719 227.957031 13.636719 L 221.1875 13.636719 C 220.785156 13.636719 220.59375 13.636719 220.59375 14.042969 C 220.59375 14.253906 220.785156 14.253906 221.097656 14.253906 C 222.375 14.253906 222.375 14.425781 222.375 14.664062 C 222.375 14.707031 222.375 14.832031 222.289062 15.152344 L 219.46875 26.589844 C 219.277344 27.335938 219.234375 27.546875 217.769531 27.546875 C 217.371094 27.546875 217.164062 27.546875 217.164062 27.933594 C 217.164062 28.164062 217.285156 28.164062 217.703125 28.164062 L 224.859375 28.164062 C 228.050781 28.164062 230.511719 25.714844 230.511719 23.582031 C 230.511719 21.851562 229.027344 20.796875 227.359375 20.625 Z M 224.386719 27.546875 L 221.558594 27.546875 C 221.265625 27.546875 221.226562 27.546875 221.097656 27.527344 C 220.867188 27.503906 220.847656 27.464844 220.847656 27.292969 C 220.847656 27.148438 220.890625 27.019531 220.933594 26.828125 L 222.398438 20.902344 L 226.332031 20.902344 C 228.804688 20.902344 228.804688 23.214844 228.804688 23.382812 C 228.804688 25.402344 226.980469 27.546875 224.386719 27.546875 "/>
<path fill-rule="evenodd" fill="rgb(0%, 0%, 0%)" fill-opacity="1" d="M 239.621094 33.375 C 239.621094 33.355469 239.621094 33.3125 239.558594 33.25 C 238.574219 32.234375 235.945312 29.472656 235.945312 22.742188 C 235.945312 16.019531 238.527344 13.277344 239.578125 12.199219 C 239.578125 12.175781 239.621094 12.132812 239.621094 12.070312 C 239.621094 12.003906 239.558594 11.960938 239.472656 11.960938 C 239.242188 11.960938 237.460938 13.558594 236.433594 15.929688 C 235.386719 18.324219 235.089844 20.65625 235.089844 22.722656 C 235.089844 24.277344 235.238281 26.90625 236.496094 29.6875 C 237.5 31.929688 239.222656 33.507812 239.472656 33.507812 C 239.578125 33.507812 239.621094 33.464844 239.621094 33.375 "/>
<path fill-rule="evenodd" fill="rgb(0%, 0%, 0%)" fill-opacity="1" d="M 248.402344 15.214844 C 248.589844 14.46875 248.628906 14.253906 250.152344 14.253906 C 250.609375 14.253906 250.777344 14.253906 250.777344 13.851562 C 250.777344 13.636719 250.546875 13.636719 250.484375 13.636719 C 250.109375 13.636719 249.652344 13.636719 249.277344 13.636719 L 246.714844 13.636719 C 246.296875 13.636719 245.816406 13.636719 245.402344 13.636719 C 245.234375 13.636719 245.003906 13.636719 245.003906 14.023438 C 245.003906 14.253906 245.171875 14.253906 245.589844 14.253906 C 246.878906 14.253906 246.878906 14.425781 246.878906 14.660156 C 246.878906 14.808594 246.839844 14.9375 246.796875 15.128906 L 243.984375 26.589844 C 243.796875 27.335938 243.757812 27.546875 242.234375 27.546875 C 241.777344 27.546875 241.589844 27.546875 241.589844 27.953125 C 241.589844 28.164062 241.796875 28.164062 241.902344 28.164062 C 242.277344 28.164062 242.734375 28.164062 243.109375 28.164062 L 245.671875 28.164062 C 246.089844 28.164062 246.546875 28.164062 246.964844 28.164062 C 247.128906 28.164062 247.382812 28.164062 247.382812 27.796875 C 247.382812 27.546875 247.253906 27.546875 246.796875 27.546875 C 245.503906 27.546875 245.503906 27.378906 245.503906 27.125 C 245.503906 27.082031 245.503906 26.972656 245.589844 26.632812 L 248.402344 15.214844 "/>
<path fill-rule="evenodd" fill="rgb(0%, 0%, 0%)" fill-opacity="1" d="M 262.324219 16 L 262.808594 15.511719 C 263.730469 14.550781 264.503906 14.320312 265.238281 14.253906 C 265.46875 14.234375 265.65625 14.210938 265.65625 13.851562 C 265.65625 13.636719 265.445312 13.636719 265.40625 13.636719 C 265.152344 13.636719 264.882812 13.636719 264.628906 13.636719 L 263.769531 13.636719 C 263.160156 13.636719 262.515625 13.636719 261.925781 13.636719 C 261.78125 13.636719 261.550781 13.636719 261.550781 14.023438 C 261.550781 14.230469 261.761719 14.253906 261.824219 14.253906 C 262.449219 14.253906 262.449219 14.574219 262.449219 14.703125 C 262.449219 14.9375 262.285156 15.257812 261.863281 15.75 L 256.878906 21.585938 L 254.511719 15.085938 C 254.386719 14.789062 254.386719 14.746094 254.386719 14.703125 C 254.386719 14.253906 255.246094 14.253906 255.496094 14.253906 C 255.746094 14.253906 255.976562 14.253906 255.976562 13.84375 C 255.976562 13.636719 255.789062 13.636719 255.664062 13.636719 C 255.308594 13.636719 254.890625 13.636719 254.53125 13.636719 L 252.210938 13.636719 C 251.832031 13.636719 251.433594 13.636719 251.078125 13.636719 C 250.929688 13.636719 250.699219 13.636719 250.699219 14.042969 C 250.699219 14.253906 250.886719 14.253906 251.203125 14.253906 C 252.230469 14.253906 252.421875 14.445312 252.605469 14.9375 L 255.203125 22.015625 C 255.222656 22.078125 255.285156 22.3125 255.285156 22.378906 C 255.285156 22.441406 254.257812 26.648438 254.199219 26.863281 C 254.027344 27.441406 253.820312 27.546875 252.480469 27.546875 C 252.125 27.546875 251.957031 27.546875 251.957031 27.980469 C 251.957031 28.164062 252.1875 28.164062 252.25 28.164062 C 252.628906 28.164062 253.066406 28.164062 253.464844 28.164062 L 255.933594 28.164062 C 256.3125 28.164062 256.753906 28.164062 257.128906 28.164062 C 257.277344 28.164062 257.527344 28.164062 257.527344 27.796875 C 257.527344 27.546875 257.382812 27.546875 257.027344 27.546875 C 255.726562 27.546875 255.726562 27.421875 255.726562 27.183594 C 255.726562 27.035156 255.894531 26.351562 256.003906 25.929688 L 256.753906 22.859375 C 256.878906 22.414062 256.878906 22.371094 257.070312 22.15625 L 262.324219 16 "/>
<path fill-rule="evenodd" fill="rgb(0%, 0%, 0%)" fill-opacity="1" d="M 273.980469 22.742188 C 273.980469 21.191406 273.835938 18.5625 272.574219 15.777344 C 271.570312 13.539062 269.847656 11.960938 269.597656 11.960938 C 269.535156 11.960938 269.449219 11.980469 269.449219 12.09375 C 269.449219 12.136719 269.472656 12.15625 269.492188 12.199219 C 270.519531 13.277344 273.125 16.019531 273.125 22.722656 C 273.125 29.449219 270.542969 32.191406 269.492188 33.269531 C 269.472656 33.3125 269.449219 33.332031 269.449219 33.375 C 269.449219 33.484375 269.535156 33.507812 269.597656 33.507812 C 269.828125 33.507812 271.609375 31.910156 272.640625 29.535156 C 273.6875 27.144531 273.980469 24.8125 273.980469 22.742188 Z M 281.546875 22.742188 C 281.546875 21.191406 281.398438 18.5625 280.140625 15.777344 C 279.136719 13.539062 277.414062 11.960938 277.164062 11.960938 C 277.101562 11.960938 277.015625 11.980469 277.015625 12.09375 C 277.015625 12.136719 277.039062 12.15625 277.058594 12.199219 C 278.085938 13.277344 280.691406 16.019531 280.691406 22.722656 C 280.691406 29.449219 278.109375 32.191406 277.058594 33.269531 C 277.039062 33.3125 277.015625 33.332031 277.015625 33.375 C 277.015625 33.484375 277.101562 33.507812 277.164062 33.507812 C 277.394531 33.507812 279.175781 31.910156 280.203125 29.535156 C 281.253906 27.144531 281.546875 24.8125 281.546875 22.742188 "/>
<path fill-rule="evenodd" fill="rgb(0%, 0%, 0%)" fill-opacity="1" d="M 14.71875 138.910156 C 14.71875 138.890625 14.71875 138.847656 14.65625 138.78125 C 13.671875 137.769531 11.042969 135.007812 11.042969 128.277344 C 11.042969 121.550781 13.628906 118.8125 14.675781 117.734375 C 14.675781 117.710938 14.71875 117.664062 14.71875 117.601562 C 14.71875 117.539062 14.65625 117.496094 14.570312 117.496094 C 14.34375 117.496094 12.558594 119.089844 11.53125 121.464844 C 10.484375 123.859375 10.1875 126.1875 10.1875 128.257812 C 10.1875 129.808594 10.335938 132.441406 11.59375 135.222656 C 12.597656 137.464844 14.320312 139.039062 14.570312 139.039062 C 14.675781 139.039062 14.71875 138.996094 14.71875 138.910156 "/>
<path fill-rule="evenodd" fill="rgb(0%, 0%, 0%)" fill-opacity="1" d="M 19.324219 131.390625 C 18.589844 132.652344 17.878906 133.082031 16.871094 133.082031 C 16.640625 133.082031 16.472656 133.082031 16.472656 133.480469 C 16.472656 133.613281 16.578125 133.699219 16.726562 133.699219 C 17.101562 133.699219 18.042969 133.699219 18.421875 133.699219 C 19.03125 133.699219 19.703125 133.699219 20.289062 133.699219 C 20.417969 133.699219 20.667969 133.699219 20.667969 133.292969 C 20.667969 133.101562 20.503906 133.082031 20.375 133.082031 C 19.890625 133.039062 19.492188 132.886719 19.492188 132.421875 C 19.492188 132.128906 19.621094 131.894531 19.890625 131.429688 L 21.484375 128.761719 L 26.835938 128.761719 C 26.855469 128.953125 26.855469 129.121094 26.882812 129.3125 C 26.941406 129.863281 27.195312 132.0625 27.195312 132.46875 C 27.195312 133.082031 26.121094 133.082031 25.789062 133.082031 C 25.558594 133.082031 25.324219 133.082031 25.324219 133.484375 C 25.324219 133.699219 25.515625 133.699219 25.640625 133.699219 C 25.996094 133.699219 26.417969 133.699219 26.773438 133.699219 L 27.96875 133.699219 C 29.25 133.699219 30.175781 133.699219 30.195312 133.699219 C 30.34375 133.699219 30.574219 133.699219 30.574219 133.292969 C 30.574219 133.082031 30.382812 133.082031 30.070312 133.082031 C 28.914062 133.082031 28.894531 132.890625 28.832031 132.25 L 27.550781 118.964844 C 27.507812 118.539062 27.425781 118.496094 27.195312 118.496094 C 26.984375 118.496094 26.855469 118.539062 26.667969 118.859375 Z M 21.84375 128.144531 L 26.058594 120.921875 L 26.773438 128.144531 Z M 21.84375 128.144531 "/>
<path fill-rule="evenodd" fill="rgb(0%, 0%, 0%)" fill-opacity="1" d="M 37.96875 138.910156 C 37.96875 138.890625 37.96875 138.847656 37.902344 138.78125 C 36.917969 137.769531 34.289062 135.007812 34.289062 128.277344 C 34.289062 121.550781 36.875 118.8125 37.921875 117.734375 C 37.921875 117.710938 37.96875 117.664062 37.96875 117.601562 C 37.96875 117.539062 37.902344 117.496094 37.820312 117.496094 C 37.589844 117.496094 35.808594 119.089844 34.777344 121.464844 C 33.730469 123.859375 33.4375 126.1875 33.4375 128.257812 C 33.4375 129.808594 33.585938 132.441406 34.84375 135.222656 C 35.847656 137.464844 37.570312 139.039062 37.820312 139.039062 C 37.921875 139.039062 37.96875 138.996094 37.96875 138.910156 "/>
<path fill-rule="evenodd" fill="rgb(0%, 0%, 0%)" fill-opacity="1" d="M 46.71875 120.621094 C 46.90625 119.832031 46.992188 119.789062 47.816406 119.789062 L 50.570312 119.789062 C 52.964844 119.789062 52.964844 121.84375 52.964844 122.035156 C 52.964844 123.769531 51.25 125.972656 48.453125 125.972656 L 45.402344 125.972656 Z M 50.238281 126.15625 C 52.5625 125.730469 54.675781 124.101562 54.675781 122.128906 C 54.675781 120.457031 53.21875 119.171875 50.835938 119.171875 L 44.066406 119.171875 C 43.664062 119.171875 43.476562 119.171875 43.476562 119.574219 C 43.476562 119.789062 43.664062 119.789062 43.980469 119.789062 C 45.253906 119.789062 45.253906 119.960938 45.253906 120.195312 C 45.253906 120.238281 45.253906 120.367188 45.171875 120.6875 L 42.347656 132.121094 C 42.15625 132.867188 42.117188 133.082031 40.652344 133.082031 C 40.25 133.082031 40.042969 133.082031 40.042969 133.464844 C 40.042969 133.699219 40.167969 133.699219 40.585938 133.699219 L 47.742188 133.699219 C 50.933594 133.699219 53.394531 131.25 53.394531 129.117188 C 53.394531 127.382812 51.90625 126.328125 50.238281 126.15625 Z M 47.269531 133.082031 L 44.441406 133.082031 C 44.144531 133.082031 44.105469 133.082031 43.980469 133.0625 C 43.75 133.039062 43.730469 132.996094 43.730469 132.828125 C 43.730469 132.679688 43.773438 132.554688 43.8125 132.363281 L 45.277344 126.433594 L 49.214844 126.433594 C 51.683594 126.433594 51.683594 128.75 51.683594 128.914062 C 51.683594 130.933594 49.859375 133.082031 47.269531 133.082031 "/>
<path fill-rule="evenodd" fill="rgb(0%, 0%, 0%)" fill-opacity="1" d="M 62.703125 120.746094 C 62.890625 120.003906 62.929688 119.789062 64.453125 119.789062 C 64.90625 119.789062 65.074219 119.789062 65.074219 119.386719 C 65.074219 119.171875 64.84375 119.171875 64.785156 119.171875 C 64.40625 119.171875 63.949219 119.171875 63.578125 119.171875 L 61.011719 119.171875 C 60.59375 119.171875 60.113281 119.171875 59.703125 119.171875 C 59.535156 119.171875 59.304688 119.171875 59.304688 119.558594 C 59.304688 119.789062 59.472656 119.789062 59.886719 119.789062 C 61.179688 119.789062 61.179688 119.960938 61.179688 120.191406 C 61.179688 120.34375 61.140625 120.46875 61.097656 120.660156 L 58.28125 132.121094 C 58.09375 132.867188 58.054688 133.082031 56.53125 133.082031 C 56.078125 133.082031 55.890625 133.082031 55.890625 133.484375 C 55.890625 133.699219 56.097656 133.699219 56.203125 133.699219 C 56.578125 133.699219 57.035156 133.699219 57.410156 133.699219 L 59.972656 133.699219 C 60.390625 133.699219 60.847656 133.699219 61.261719 133.699219 C 61.429688 133.699219 61.679688 133.699219 61.679688 133.332031 C 61.679688 133.082031 61.554688 133.082031 61.097656 133.082031 C 59.804688 133.082031 59.804688 132.910156 59.804688 132.65625 C 59.804688 132.613281 59.804688 132.507812 59.886719 132.167969 L 62.703125 120.746094 "/>
<path fill-rule="evenodd" fill="rgb(0%, 0%, 0%)" fill-opacity="1" d="M 72.511719 128.277344 C 72.511719 126.726562 72.363281 124.09375 71.105469 121.3125 C 70.101562 119.070312 68.378906 117.496094 68.128906 117.496094 C 68.0625 117.496094 67.980469 117.515625 67.980469 117.625 C 67.980469 117.667969 68.003906 117.6875 68.023438 117.734375 C 69.046875 118.8125 71.65625 121.550781 71.65625 128.257812 C 71.65625 134.984375 69.070312 137.726562 68.023438 138.804688 C 68.003906 138.847656 67.980469 138.867188 67.980469 138.910156 C 67.980469 139.015625 68.0625 139.039062 68.128906 139.039062 C 68.359375 139.039062 70.140625 137.445312 71.167969 135.070312 C 72.21875 132.679688 72.511719 130.347656 72.511719 128.277344 "/>
<path fill-rule="evenodd" fill="rgb(0%, 0%, 0%)" fill-opacity="1" d="M 86.785156 121.535156 L 87.269531 121.042969 C 88.191406 120.085938 88.964844 119.851562 89.699219 119.789062 C 89.929688 119.769531 90.117188 119.746094 90.117188 119.386719 C 90.117188 119.171875 89.90625 119.171875 89.867188 119.171875 C 89.613281 119.171875 89.34375 119.171875 89.089844 119.171875 L 88.230469 119.171875 C 87.621094 119.171875 86.976562 119.171875 86.386719 119.171875 C 86.242188 119.171875 86.011719 119.171875 86.011719 119.558594 C 86.011719 119.765625 86.222656 119.789062 86.285156 119.789062 C 86.910156 119.789062 86.910156 120.109375 86.910156 120.234375 C 86.910156 120.46875 86.746094 120.789062 86.324219 121.285156 L 81.339844 127.117188 L 78.972656 120.621094 C 78.847656 120.324219 78.847656 120.28125 78.847656 120.234375 C 78.847656 119.789062 79.707031 119.789062 79.960938 119.789062 C 80.210938 119.789062 80.4375 119.789062 80.4375 119.378906 C 80.4375 119.171875 80.253906 119.171875 80.125 119.171875 C 79.769531 119.171875 79.351562 119.171875 78.992188 119.171875 L 76.671875 119.171875 C 76.292969 119.171875 75.894531 119.171875 75.539062 119.171875 C 75.390625 119.171875 75.160156 119.171875 75.160156 119.574219 C 75.160156 119.789062 75.347656 119.789062 75.664062 119.789062 C 76.691406 119.789062 76.882812 119.980469 77.066406 120.46875 L 79.664062 127.550781 C 79.683594 127.613281 79.746094 127.847656 79.746094 127.910156 C 79.746094 127.972656 78.71875 132.183594 78.660156 132.398438 C 78.488281 132.976562 78.28125 133.082031 76.941406 133.082031 C 76.585938 133.082031 76.417969 133.082031 76.417969 133.515625 C 76.417969 133.699219 76.648438 133.699219 76.710938 133.699219 C 77.089844 133.699219 77.527344 133.699219 77.925781 133.699219 L 80.394531 133.699219 C 80.773438 133.699219 81.214844 133.699219 81.589844 133.699219 C 81.738281 133.699219 81.988281 133.699219 81.988281 133.332031 C 81.988281 133.082031 81.84375 133.082031 81.488281 133.082031 C 80.1875 133.082031 80.1875 132.957031 80.1875 132.71875 C 80.1875 132.566406 80.355469 131.886719 80.464844 131.460938 L 81.214844 128.394531 C 81.339844 127.945312 81.339844 127.902344 81.53125 127.691406 L 86.785156 121.535156 "/>
<path fill-rule="evenodd" fill="rgb(0%, 0%, 0%)" fill-opacity="1" d="M 96.863281 128.277344 C 96.863281 126.726562 96.714844 124.09375 95.457031 121.3125 C 94.453125 119.070312 92.730469 117.496094 92.480469 117.496094 C 92.414062 117.496094 92.332031 117.515625 92.332031 117.625 C 92.332031 117.667969 92.355469 117.6875 92.375 117.734375 C 93.402344 118.8125 96.007812 121.550781 96.007812 128.257812 C 96.007812 134.984375 93.421875 137.726562 92.375 138.804688 C 92.355469 138.847656 92.332031 138.867188 92.332031 138.910156 C 92.332031 139.015625 92.414062 139.039062 92.480469 139.039062 C 92.710938 139.039062 94.492188 137.445312 95.519531 135.070312 C 96.570312 132.679688 96.863281 130.347656 96.863281 128.277344 "/>
<path fill-rule="evenodd" fill="rgb(0%, 0%, 0%)" fill-opacity="1" d="M 196.441406 131.390625 C 195.707031 132.652344 194.996094 133.082031 193.988281 133.082031 C 193.757812 133.082031 193.59375 133.082031 193.59375 133.480469 C 193.59375 133.613281 193.699219 133.699219 193.847656 133.699219 C 194.222656 133.699219 195.164062 133.699219 195.539062 133.699219 C 196.152344 133.699219 196.824219 133.699219 197.410156 133.699219 C 197.539062 133.699219 197.789062 133.699219 197.789062 133.292969 C 197.789062 133.101562 197.621094 133.082031 197.492188 133.082031 C 197.011719 133.039062 196.613281 132.886719 196.613281 132.421875 C 196.613281 132.128906 196.738281 131.894531 197.011719 131.429688 L 198.605469 128.761719 L 203.957031 128.761719 C 203.976562 128.953125 203.976562 129.121094 204 129.3125 C 204.058594 129.863281 204.3125 132.0625 204.3125 132.46875 C 204.3125 133.082031 203.242188 133.082031 202.910156 133.082031 C 202.679688 133.082031 202.445312 133.082031 202.445312 133.484375 C 202.445312 133.699219 202.636719 133.699219 202.757812 133.699219 C 203.117188 133.699219 203.535156 133.699219 203.894531 133.699219 L 205.089844 133.699219 C 206.371094 133.699219 207.296875 133.699219 207.316406 133.699219 C 207.460938 133.699219 207.691406 133.699219 207.691406 133.292969 C 207.691406 133.082031 207.503906 133.082031 207.1875 133.082031 C 206.03125 133.082031 206.011719 132.890625 205.949219 132.25 L 204.671875 118.964844 C 204.628906 118.539062 204.542969 118.496094 204.3125 118.496094 C 204.105469 118.496094 203.976562 118.539062 203.789062 118.859375 Z M 198.964844 128.144531 L 203.179688 120.921875 L 203.894531 128.144531 Z M 198.964844 128.144531 "/>
<path fill-rule="evenodd" fill="rgb(0%, 0%, 0%)" fill-opacity="1" d="M 215.085938 138.910156 C 215.085938 138.890625 215.085938 138.847656 215.019531 138.78125 C 214.035156 137.769531 211.410156 135.007812 211.410156 128.277344 C 211.410156 121.550781 213.992188 118.8125 215.042969 117.734375 C 215.042969 117.710938 215.085938 117.664062 215.085938 117.601562 C 215.085938 117.539062 215.019531 117.496094 214.9375 117.496094 C 214.707031 117.496094 212.925781 119.089844 211.898438 121.464844 C 210.847656 123.859375 210.554688 126.1875 210.554688 128.257812 C 210.554688 129.808594 210.703125 132.441406 211.960938 135.222656 C 212.964844 137.464844 214.6875 139.039062 214.9375 139.039062 C 215.042969 139.039062 215.085938 138.996094 215.085938 138.910156 Z M 222.648438 138.910156 C 222.648438 138.890625 222.648438 138.847656 222.585938 138.78125 C 221.601562 137.769531 218.976562 135.007812 218.976562 128.277344 C 218.976562 121.550781 221.558594 118.8125 222.605469 117.734375 C 222.605469 117.710938 222.648438 117.664062 222.648438 117.601562 C 222.648438 117.539062 222.585938 117.496094 222.503906 117.496094 C 222.273438 117.496094 220.488281 119.089844 219.460938 121.464844 C 218.414062 123.859375 218.121094 126.1875 218.121094 128.257812 C 218.121094 129.808594 218.265625 132.441406 219.527344 135.222656 C 220.53125 137.464844 222.253906 139.039062 222.503906 139.039062 C 222.605469 139.039062 222.648438 138.996094 222.648438 138.910156 "/>
<path fill-rule="evenodd" fill="rgb(0%, 0%, 0%)" fill-opacity="1" d="M 231.402344 120.621094 C 231.59375 119.832031 231.675781 119.789062 232.503906 119.789062 L 235.257812 119.789062 C 237.652344 119.789062 237.652344 121.84375 237.652344 122.035156 C 237.652344 123.769531 235.933594 125.972656 233.136719 125.972656 L 230.085938 125.972656 Z M 234.921875 126.15625 C 237.246094 125.730469 239.359375 124.101562 239.359375 122.128906 C 239.359375 120.457031 237.902344 119.171875 235.519531 119.171875 L 228.75 119.171875 C 228.351562 119.171875 228.160156 119.171875 228.160156 119.574219 C 228.160156 119.789062 228.351562 119.789062 228.664062 119.789062 C 229.9375 119.789062 229.9375 119.960938 229.9375 120.195312 C 229.9375 120.238281 229.9375 120.367188 229.855469 120.6875 L 227.03125 132.121094 C 226.84375 132.867188 226.800781 133.082031 225.335938 133.082031 C 224.933594 133.082031 224.726562 133.082031 224.726562 133.464844 C 224.726562 133.699219 224.851562 133.699219 225.269531 133.699219 L 232.425781 133.699219 C 235.617188 133.699219 238.078125 131.25 238.078125 129.117188 C 238.078125 127.382812 236.59375 126.328125 234.921875 126.15625 Z M 231.953125 133.082031 L 229.125 133.082031 C 228.832031 133.082031 228.789062 133.082031 228.664062 133.0625 C 228.433594 133.039062 228.414062 132.996094 228.414062 132.828125 C 228.414062 132.679688 228.457031 132.554688 228.496094 132.363281 L 229.964844 126.433594 L 233.898438 126.433594 C 236.367188 126.433594 236.367188 128.75 236.367188 128.914062 C 236.367188 130.933594 234.546875 133.082031 231.953125 133.082031 "/>
<path fill-rule="evenodd" fill="rgb(0%, 0%, 0%)" fill-opacity="1" d="M 247.386719 120.746094 C 247.574219 120.003906 247.613281 119.789062 249.136719 119.789062 C 249.59375 119.789062 249.761719 119.789062 249.761719 119.386719 C 249.761719 119.171875 249.53125 119.171875 249.46875 119.171875 C 249.09375 119.171875 248.636719 119.171875 248.261719 119.171875 L 245.695312 119.171875 C 245.28125 119.171875 244.800781 119.171875 244.386719 119.171875 C 244.21875 119.171875 243.988281 119.171875 243.988281 119.558594 C 243.988281 119.789062 244.15625 119.789062 244.570312 119.789062 C 245.863281 119.789062 245.863281 119.960938 245.863281 120.191406 C 245.863281 120.34375 245.824219 120.46875 245.78125 120.660156 L 242.96875 132.121094 C 242.78125 132.867188 242.738281 133.082031 241.21875 133.082031 C 240.761719 133.082031 240.574219 133.082031 240.574219 133.484375 C 240.574219 133.699219 240.78125 133.699219 240.886719 133.699219 C 241.261719 133.699219 241.71875 133.699219 242.097656 133.699219 L 244.65625 133.699219 C 245.074219 133.699219 245.53125 133.699219 245.949219 133.699219 C 246.113281 133.699219 246.363281 133.699219 246.363281 133.332031 C 246.363281 133.082031 246.238281 133.082031 245.78125 133.082031 C 244.488281 133.082031 244.488281 132.910156 244.488281 132.65625 C 244.488281 132.613281 244.488281 132.507812 244.570312 132.167969 L 247.386719 120.746094 "/>
<path fill-rule="evenodd" fill="rgb(0%, 0%, 0%)" fill-opacity="1" d="M 257.195312 128.277344 C 257.195312 126.726562 257.046875 124.09375 255.789062 121.3125 C 254.785156 119.070312 253.0625 117.496094 252.8125 117.496094 C 252.75 117.496094 252.664062 117.515625 252.664062 117.625 C 252.664062 117.667969 252.6875 117.6875 252.710938 117.734375 C 253.734375 118.8125 256.339844 121.550781 256.339844 128.257812 C 256.339844 134.984375 253.757812 137.726562 252.710938 138.804688 C 252.6875 138.847656 252.664062 138.867188 252.664062 138.910156 C 252.664062 139.015625 252.75 139.039062 252.8125 139.039062 C 253.042969 139.039062 254.824219 137.445312 255.851562 135.070312 C 256.902344 132.679688 257.195312 130.347656 257.195312 128.277344 "/>
<path fill-rule="evenodd" fill="rgb(0%, 0%, 0%)" fill-opacity="1" d="M 271.46875 121.535156 L 271.953125 121.042969 C 272.875 120.085938 273.648438 119.851562 274.382812 119.789062 C 274.613281 119.769531 274.800781 119.746094 274.800781 119.386719 C 274.800781 119.171875 274.589844 119.171875 274.550781 119.171875 C 274.296875 119.171875 274.027344 119.171875 273.773438 119.171875 L 272.914062 119.171875 C 272.308594 119.171875 271.660156 119.171875 271.074219 119.171875 C 270.925781 119.171875 270.695312 119.171875 270.695312 119.558594 C 270.695312 119.765625 270.90625 119.789062 270.96875 119.789062 C 271.597656 119.789062 271.597656 120.109375 271.597656 120.234375 C 271.597656 120.46875 271.429688 120.789062 271.007812 121.285156 L 266.023438 127.117188 L 263.660156 120.621094 C 263.53125 120.324219 263.53125 120.28125 263.53125 120.234375 C 263.53125 119.789062 264.394531 119.789062 264.644531 119.789062 C 264.894531 119.789062 265.125 119.789062 265.125 119.378906 C 265.125 119.171875 264.9375 119.171875 264.808594 119.171875 C 264.453125 119.171875 264.035156 119.171875 263.679688 119.171875 L 261.355469 119.171875 C 260.976562 119.171875 260.582031 119.171875 260.222656 119.171875 C 260.078125 119.171875 259.847656 119.171875 259.847656 119.574219 C 259.847656 119.789062 260.03125 119.789062 260.351562 119.789062 C 261.375 119.789062 261.566406 119.980469 261.753906 120.46875 L 264.351562 127.550781 C 264.371094 127.613281 264.433594 127.847656 264.433594 127.910156 C 264.433594 127.972656 263.40625 132.183594 263.34375 132.398438 C 263.175781 132.976562 262.96875 133.082031 261.625 133.082031 C 261.273438 133.082031 261.101562 133.082031 261.101562 133.515625 C 261.101562 133.699219 261.332031 133.699219 261.394531 133.699219 C 261.773438 133.699219 262.214844 133.699219 262.609375 133.699219 L 265.082031 133.699219 C 265.457031 133.699219 265.898438 133.699219 266.277344 133.699219 C 266.421875 133.699219 266.671875 133.699219 266.671875 133.332031 C 266.671875 133.082031 266.527344 133.082031 266.171875 133.082031 C 264.875 133.082031 264.875 132.957031 264.875 132.71875 C 264.875 132.566406 265.039062 131.886719 265.148438 131.460938 L 265.898438 128.394531 C 266.023438 127.945312 266.023438 127.902344 266.214844 127.691406 L 271.46875 121.535156 "/>
<path fill-rule="evenodd" fill="rgb(0%, 0%, 0%)" fill-opacity="1" d="M 281.546875 128.277344 C 281.546875 126.726562 281.398438 124.09375 280.140625 121.3125 C 279.136719 119.070312 277.414062 117.496094 277.164062 117.496094 C 277.101562 117.496094 277.015625 117.515625 277.015625 117.625 C 277.015625 117.667969 277.039062 117.6875 277.058594 117.734375 C 278.085938 118.8125 280.691406 121.550781 280.691406 128.257812 C 280.691406 134.984375 278.109375 137.726562 277.058594 138.804688 C 277.039062 138.847656 277.015625 138.867188 277.015625 138.910156 C 277.015625 139.015625 277.101562 139.039062 277.164062 139.039062 C 277.394531 139.039062 279.175781 137.445312 280.203125 135.070312 C 281.253906 132.679688 281.546875 130.347656 281.546875 128.277344 "/>
<path fill="none" stroke-width="6.55" stroke-linecap="square" stroke-linejoin="miter" stroke="rgb(0%, 0%, 0%)" stroke-opacity="1" stroke-miterlimit="10" d="M 717.851562 1221.757812 L 1842.304688 1221.757812 " transform="matrix(0.1, 0, 0, -0.1, 0, 145)"/>
<path fill-rule="evenodd" fill="rgb(0%, 0%, 0%)" fill-opacity="1" d="M 188.601562 22.824219 L 181.609375 19.328125 L 184.230469 22.824219 L 181.609375 26.320312 Z M 188.601562 22.824219 "/>
<path fill-rule="evenodd" fill="rgb(0%, 0%, 0%)" fill-opacity="1" d="M 122.0625 4.410156 C 122.0625 3.773438 122.097656 3.5625 123.722656 3.5625 L 124.28125 3.5625 L 124.28125 3.046875 C 123.78125 3.046875 122.089844 3.046875 121.511719 3.046875 C 120.9375 3.046875 119.246094 3.046875 118.789062 3.046875 L 118.789062 3.5625 L 119.300781 3.5625 C 120.78125 3.5625 120.8125 3.773438 120.8125 4.410156 L 120.8125 12.363281 C 118.5 11.769531 118.5 8.863281 118.5 7.734375 C 118.5 5.9375 117.953125 5.203125 116.886719 5.203125 L 116.304688 5.203125 C 116.015625 5.203125 115.871094 5.203125 115.871094 5.382812 C 115.871094 5.527344 115.976562 5.542969 116.046875 5.5625 C 116.847656 5.6875 117.074219 6.441406 117.074219 8.039062 C 117.074219 10.605469 118.351562 12.433594 120.8125 12.773438 L 120.8125 13.777344 C 120.8125 14.425781 120.78125 14.640625 119.300781 14.640625 L 118.789062 14.640625 L 118.789062 15.15625 C 119.246094 15.15625 120.9375 15.15625 121.511719 15.15625 C 122.089844 15.15625 123.78125 15.15625 124.28125 15.15625 L 124.28125 14.640625 L 123.722656 14.640625 C 122.097656 14.640625 122.0625 14.425781 122.0625 13.777344 L 122.0625 12.773438 C 125.707031 12.34375 126.15625 9.511719 126.15625 7.628906 C 126.15625 6.800781 126.332031 5.6875 127.183594 5.5625 C 127.289062 5.542969 127.394531 5.527344 127.394531 5.382812 C 127.394531 5.203125 127.25 5.203125 126.957031 5.203125 L 126.351562 5.203125 C 125.496094 5.203125 124.730469 5.511719 124.730469 7.96875 C 124.730469 9.886719 124.171875 11.894531 122.0625 12.378906 L 122.0625 4.410156 "/>
<path fill-rule="evenodd" fill="rgb(0%, 0%, 0%)" fill-opacity="1" d="M 133.027344 10.367188 C 133.136719 9.925781 133.175781 9.800781 134.128906 9.800781 C 134.421875 9.800781 134.519531 9.800781 134.519531 9.542969 C 134.519531 9.417969 134.386719 9.417969 134.335938 9.417969 C 133.984375 9.417969 133.089844 9.417969 132.738281 9.417969 C 132.375 9.417969 131.488281 9.417969 131.125 9.417969 C 131.039062 9.417969 130.886719 9.417969 130.886719 9.648438 C 130.886719 9.800781 130.992188 9.800781 131.222656 9.800781 C 131.734375 9.800781 132.058594 9.800781 132.058594 10.035156 C 132.058594 10.097656 132.058594 10.121094 132.035156 10.230469 L 130.398438 16.863281 C 130.289062 17.320312 130.253906 17.441406 129.296875 17.441406 C 129.019531 17.441406 128.90625 17.441406 128.90625 17.714844 C 128.90625 17.824219 129.054688 17.824219 129.089844 17.824219 C 129.441406 17.824219 130.324219 17.824219 130.679688 17.824219 C 131.039062 17.824219 131.9375 17.824219 132.300781 17.824219 C 132.398438 17.824219 132.542969 17.824219 132.542969 17.605469 C 132.542969 17.441406 132.449219 17.441406 132.179688 17.441406 C 131.964844 17.441406 131.902344 17.441406 131.660156 17.417969 C 131.402344 17.394531 131.355469 17.34375 131.355469 17.210938 C 131.355469 17.109375 131.382812 17.011719 131.402344 16.925781 L 133.027344 10.367188 "/>
<path fill-rule="evenodd" fill="rgb(0%, 0%, 0%)" fill-opacity="1" d="M 141.261719 10.824219 L 141.433594 10.652344 C 141.796875 10.28125 142.195312 9.863281 143.019531 9.800781 C 143.152344 9.800781 143.261719 9.800781 143.261719 9.546875 C 143.261719 9.460938 143.199219 9.417969 143.105469 9.417969 C 142.789062 9.417969 142.4375 9.417969 142.109375 9.417969 C 141.710938 9.417969 141.285156 9.417969 140.898438 9.417969 C 140.828125 9.417969 140.667969 9.417969 140.667969 9.644531 C 140.667969 9.785156 140.789062 9.800781 140.851562 9.800781 C 140.933594 9.800781 141.285156 9.800781 141.285156 10.058594 C 141.285156 10.269531 141.007812 10.589844 140.960938 10.652344 L 138.148438 13.957031 L 136.816406 10.28125 C 136.742188 10.109375 136.742188 10.085938 136.742188 10.074219 C 136.742188 9.800781 137.335938 9.800781 137.457031 9.800781 C 137.628906 9.800781 137.75 9.800781 137.75 9.53125 C 137.75 9.417969 137.601562 9.417969 137.566406 9.417969 C 137.226562 9.417969 136.378906 9.417969 136.039062 9.417969 C 135.738281 9.417969 134.984375 9.417969 134.683594 9.417969 C 134.609375 9.417969 134.453125 9.417969 134.453125 9.660156 C 134.453125 9.800781 134.574219 9.800781 134.730469 9.800781 C 135.457031 9.800781 135.507812 9.910156 135.617188 10.21875 L 137.105469 14.265625 C 137.117188 14.304688 137.15625 14.4375 137.15625 14.476562 C 137.15625 14.511719 136.671875 16.503906 136.609375 16.726562 C 136.449219 17.40625 136.441406 17.441406 135.46875 17.441406 C 135.238281 17.441406 135.144531 17.441406 135.144531 17.714844 C 135.144531 17.824219 135.289062 17.824219 135.3125 17.824219 C 135.652344 17.824219 136.5 17.824219 136.839844 17.824219 C 137.179688 17.824219 138.050781 17.824219 138.390625 17.824219 C 138.476562 17.824219 138.621094 17.824219 138.621094 17.59375 C 138.621094 17.441406 138.511719 17.441406 138.28125 17.441406 C 138.257812 17.441406 138.027344 17.441406 137.820312 17.421875 C 137.566406 17.398438 137.496094 17.371094 137.496094 17.230469 C 137.496094 17.144531 137.601562 16.714844 137.664062 16.457031 L 138.089844 14.71875 C 138.148438 14.484375 138.160156 14.445312 138.257812 14.335938 L 141.261719 10.824219 "/>
<path fill="none" stroke-width="6.55" stroke-linecap="square" stroke-linejoin="miter" stroke="rgb(0%, 0%, 0%)" stroke-opacity="1" stroke-miterlimit="10" d="M 535.703125 1105.039062 L 535.703125 360.273438 " transform="matrix(0.1, 0, 0, -0.1, 0, 145)"/>
<path fill-rule="evenodd" fill="rgb(0%, 0%, 0%)" fill-opacity="1" d="M 53.570312 113.339844 L 57.0625 106.347656 L 53.570312 108.972656 L 50.074219 106.347656 Z M 53.570312 113.339844 "/>
<path fill-rule="evenodd" fill="rgb(0%, 0%, 0%)" fill-opacity="1" d="M 65.691406 67.921875 C 65.691406 67.285156 65.726562 67.070312 67.351562 67.070312 L 67.914062 67.070312 L 67.914062 66.558594 C 67.410156 66.558594 65.71875 66.558594 65.144531 66.558594 C 64.570312 66.558594 62.878906 66.558594 62.417969 66.558594 L 62.417969 67.070312 L 62.933594 67.070312 C 64.410156 67.070312 64.445312 67.285156 64.445312 67.921875 L 64.445312 75.871094 C 62.132812 75.277344 62.132812 72.375 62.132812 71.242188 C 62.132812 69.449219 61.585938 68.714844 60.519531 68.714844 L 59.9375 68.714844 C 59.648438 68.714844 59.503906 68.714844 59.503906 68.890625 C 59.503906 69.035156 59.609375 69.054688 59.675781 69.074219 C 60.480469 69.199219 60.707031 69.953125 60.707031 71.546875 C 60.707031 74.113281 61.980469 75.945312 64.445312 76.28125 L 64.445312 77.285156 C 64.445312 77.933594 64.410156 78.148438 62.933594 78.148438 L 62.417969 78.148438 L 62.417969 78.664062 C 62.878906 78.664062 64.570312 78.664062 65.144531 78.664062 C 65.71875 78.664062 67.410156 78.664062 67.914062 78.664062 L 67.914062 78.148438 L 67.351562 78.148438 C 65.726562 78.148438 65.691406 77.933594 65.691406 77.285156 L 65.691406 76.28125 C 69.339844 75.851562 69.785156 73.019531 69.785156 71.136719 C 69.785156 70.3125 69.960938 69.199219 70.816406 69.074219 C 70.917969 69.054688 71.023438 69.035156 71.023438 68.890625 C 71.023438 68.714844 70.878906 68.714844 70.589844 68.714844 L 69.984375 68.714844 C 69.128906 68.714844 68.363281 69.019531 68.363281 71.476562 C 68.363281 73.394531 67.804688 75.402344 65.691406 75.886719 L 65.691406 67.921875 "/>
<path fill-rule="evenodd" fill="rgb(0%, 0%, 0%)" fill-opacity="1" d="M 76.660156 73.875 C 76.769531 73.433594 76.804688 73.308594 77.761719 73.308594 C 78.054688 73.308594 78.148438 73.308594 78.148438 73.050781 C 78.148438 72.929688 78.015625 72.929688 77.96875 72.929688 C 77.617188 72.929688 76.71875 72.929688 76.367188 72.929688 C 76.003906 72.929688 75.121094 72.929688 74.757812 72.929688 C 74.671875 72.929688 74.515625 72.929688 74.515625 73.160156 C 74.515625 73.308594 74.625 73.308594 74.855469 73.308594 C 75.363281 73.308594 75.691406 73.308594 75.691406 73.542969 C 75.691406 73.605469 75.691406 73.632812 75.664062 73.742188 L 74.03125 80.375 C 73.921875 80.828125 73.882812 80.953125 72.929688 80.953125 C 72.648438 80.953125 72.539062 80.953125 72.539062 81.226562 C 72.539062 81.335938 72.6875 81.335938 72.722656 81.335938 C 73.074219 81.335938 73.957031 81.335938 74.308594 81.335938 C 74.671875 81.335938 75.570312 81.335938 75.933594 81.335938 C 76.03125 81.335938 76.175781 81.335938 76.175781 81.117188 C 76.175781 80.953125 76.078125 80.953125 75.8125 80.953125 C 75.59375 80.953125 75.53125 80.953125 75.289062 80.925781 C 75.035156 80.902344 74.988281 80.855469 74.988281 80.71875 C 74.988281 80.621094 75.011719 80.523438 75.035156 80.433594 L 76.660156 73.875 "/>
<path fill-rule="evenodd" fill="rgb(0%, 0%, 0%)" fill-opacity="1" d="M 83.960938 67.3125 C 83.960938 66.929688 83.960938 66.914062 83.652344 66.914062 C 83.242188 67.363281 82.398438 67.980469 80.65625 67.980469 L 80.65625 68.496094 C 81.058594 68.496094 81.929688 68.496094 82.890625 68.035156 L 82.890625 77.296875 C 82.890625 77.933594 82.839844 78.148438 81.304688 78.148438 L 80.761719 78.148438 L 80.761719 78.664062 C 81.234375 78.664062 82.875 78.664062 83.433594 78.664062 C 83.992188 78.664062 85.617188 78.664062 86.085938 78.664062 L 86.085938 78.148438 L 85.546875 78.148438 C 84.011719 78.148438 83.960938 77.933594 83.960938 77.296875 L 83.960938 67.3125 "/>
<path fill-rule="evenodd" fill="rgb(0%, 0%, 0%)" fill-opacity="1" d="M 95.101562 74.335938 L 95.269531 74.160156 C 95.632812 73.789062 96.035156 73.371094 96.859375 73.308594 C 96.992188 73.308594 97.101562 73.308594 97.101562 73.054688 C 97.101562 72.96875 97.039062 72.929688 96.945312 72.929688 C 96.628906 72.929688 96.277344 72.929688 95.949219 72.929688 C 95.546875 72.929688 95.125 72.929688 94.738281 72.929688 C 94.664062 72.929688 94.507812 72.929688 94.507812 73.152344 C 94.507812 73.296875 94.628906 73.308594 94.6875 73.308594 C 94.773438 73.308594 95.125 73.308594 95.125 73.570312 C 95.125 73.78125 94.847656 74.101562 94.796875 74.160156 L 91.984375 77.464844 L 90.65625 73.789062 C 90.582031 73.617188 90.582031 73.59375 90.582031 73.582031 C 90.582031 73.308594 91.175781 73.308594 91.296875 73.308594 C 91.46875 73.308594 91.589844 73.308594 91.589844 73.042969 C 91.589844 72.929688 91.441406 72.929688 91.40625 72.929688 C 91.066406 72.929688 90.21875 72.929688 89.878906 72.929688 C 89.578125 72.929688 88.824219 72.929688 88.523438 72.929688 C 88.449219 72.929688 88.292969 72.929688 88.292969 73.167969 C 88.292969 73.308594 88.414062 73.308594 88.570312 73.308594 C 89.296875 73.308594 89.347656 73.417969 89.457031 73.730469 L 90.945312 77.777344 C 90.957031 77.8125 90.992188 77.949219 90.992188 77.984375 C 90.992188 78.023438 90.507812 80.015625 90.449219 80.234375 C 90.289062 80.914062 90.277344 80.953125 89.308594 80.953125 C 89.078125 80.953125 88.984375 80.953125 88.984375 81.226562 C 88.984375 81.335938 89.128906 81.335938 89.152344 81.335938 C 89.492188 81.335938 90.339844 81.335938 90.679688 81.335938 C 91.019531 81.335938 91.890625 81.335938 92.230469 81.335938 C 92.316406 81.335938 92.460938 81.335938 92.460938 81.101562 C 92.460938 80.953125 92.351562 80.953125 92.121094 80.953125 C 92.097656 80.953125 91.867188 80.953125 91.660156 80.929688 C 91.40625 80.90625 91.335938 80.882812 91.335938 80.742188 C 91.335938 80.65625 91.441406 80.222656 91.503906 79.964844 L 91.925781 78.230469 C 91.984375 77.992188 92 77.957031 92.097656 77.847656 L 95.101562 74.335938 "/>
<path fill="none" stroke-width="6.55" stroke-linecap="square" stroke-linejoin="miter" stroke="rgb(0%, 0%, 0%)" stroke-opacity="1" stroke-miterlimit="10" d="M 1032.460938 166.25 L 1842.304688 166.25 " transform="matrix(0.1, 0, 0, -0.1, 0, 145)"/>
<path fill-rule="evenodd" fill="rgb(0%, 0%, 0%)" fill-opacity="1" d="M 188.601562 128.375 L 181.609375 124.878906 L 184.230469 128.375 L 181.609375 131.867188 Z M 188.601562 128.375 "/>
<path fill-rule="evenodd" fill="rgb(0%, 0%, 0%)" fill-opacity="1" d="M 146.601562 121.238281 C 146.511719 121.539062 146.511719 121.574219 146.261719 121.90625 C 145.875 122.402344 145.09375 123.164062 144.261719 123.164062 C 143.535156 123.164062 143.128906 122.511719 143.128906 121.464844 C 143.128906 120.496094 143.679688 118.511719 144.019531 117.769531 C 144.621094 116.53125 145.460938 115.894531 146.15625 115.894531 C 147.328125 115.894531 147.558594 117.34375 147.558594 117.484375 C 147.558594 117.503906 147.507812 117.734375 147.488281 117.769531 Z M 147.71875 116.710938 C 147.527344 116.234375 147.054688 115.511719 146.152344 115.511719 C 144.183594 115.511719 142.058594 118.113281 142.058594 120.75 C 142.058594 122.515625 143.070312 123.546875 144.253906 123.546875 C 145.207031 123.546875 146.023438 122.769531 146.511719 122.175781 C 146.6875 123.242188 147.507812 123.546875 148.03125 123.546875 C 148.554688 123.546875 148.976562 123.226562 149.289062 122.585938 C 149.566406 121.976562 149.8125 120.882812 149.8125 120.8125 C 149.8125 120.722656 149.742188 120.652344 149.636719 120.652344 C 149.480469 120.652344 149.464844 120.742188 149.394531 121.007812 C 149.132812 122.050781 148.800781 123.164062 148.085938 123.164062 C 147.578125 123.164062 147.578125 122.707031 147.578125 122.351562 C 147.578125 121.945312 147.628906 121.75 147.78125 121.058594 C 147.902344 120.617188 147.988281 120.226562 148.125 119.714844 C 148.753906 117.0625 148.90625 116.425781 148.90625 116.320312 C 148.90625 116.066406 148.714844 115.867188 148.453125 115.867188 C 147.894531 115.867188 147.753906 116.496094 147.71875 116.710938 "/>
<path fill="none" stroke-width="6.55" stroke-linecap="square" stroke-linejoin="miter" stroke="rgb(0%, 0%, 0%)" stroke-opacity="1" stroke-miterlimit="10" d="M 2382.773438 316.601562 L 2382.773438 1027.734375 " transform="matrix(0.1, 0, 0, -0.1, 0, 145)"/>
<path fill-rule="evenodd" fill="rgb(0%, 0%, 0%)" fill-opacity="1" d="M 238.277344 37.859375 L 234.78125 44.851562 L 238.277344 42.226562 L 241.773438 44.851562 Z M 238.277344 37.859375 "/>
<path fill-rule="evenodd" fill="rgb(0%, 0%, 0%)" fill-opacity="1" d="M 248.085938 69.984375 C 248.085938 69.601562 248.085938 69.585938 247.773438 69.585938 C 247.367188 70.035156 246.523438 70.652344 244.78125 70.652344 L 244.78125 71.167969 C 245.183594 71.167969 246.054688 71.167969 247.015625 70.707031 L 247.015625 79.964844 C 247.015625 80.605469 246.964844 80.820312 245.429688 80.820312 L 244.886719 80.820312 L 244.886719 81.335938 C 245.359375 81.335938 247 81.335938 247.558594 81.335938 C 248.117188 81.335938 249.742188 81.335938 250.210938 81.335938 L 250.210938 80.820312 L 249.671875 80.820312 C 248.136719 80.820312 248.085938 80.605469 248.085938 79.964844 L 248.085938 69.984375 "/>
<path fill-rule="evenodd" fill="rgb(0%, 0%, 0%)" fill-opacity="1" d="M 257.246094 79.203125 C 257.15625 79.503906 257.15625 79.539062 256.90625 79.871094 C 256.519531 80.367188 255.738281 81.128906 254.90625 81.128906 C 254.179688 81.128906 253.773438 80.476562 253.773438 79.429688 C 253.773438 78.460938 254.324219 76.476562 254.664062 75.730469 C 255.265625 74.492188 256.105469 73.855469 256.800781 73.855469 C 257.972656 73.855469 258.203125 75.308594 258.203125 75.449219 C 258.203125 75.464844 258.152344 75.695312 258.132812 75.730469 Z M 258.363281 74.671875 C 258.171875 74.199219 257.699219 73.472656 256.796875 73.472656 C 254.828125 73.472656 252.703125 76.078125 252.703125 78.714844 C 252.703125 80.476562 253.714844 81.511719 254.898438 81.511719 C 255.851562 81.511719 256.667969 80.734375 257.15625 80.140625 C 257.332031 81.203125 258.152344 81.511719 258.675781 81.511719 C 259.199219 81.511719 259.621094 81.191406 259.933594 80.546875 C 260.214844 79.9375 260.457031 78.847656 260.457031 78.777344 C 260.457031 78.6875 260.386719 78.617188 260.28125 78.617188 C 260.128906 78.617188 260.109375 78.707031 260.039062 78.96875 C 259.777344 80.015625 259.445312 81.128906 258.730469 81.128906 C 258.222656 81.128906 258.222656 80.667969 258.222656 80.3125 C 258.222656 79.90625 258.273438 79.714844 258.425781 79.023438 C 258.546875 78.582031 258.632812 78.191406 258.769531 77.679688 C 259.398438 75.027344 259.550781 74.390625 259.550781 74.28125 C 259.550781 74.03125 259.359375 73.832031 259.097656 73.832031 C 258.539062 73.832031 258.398438 74.457031 258.363281 74.671875 "/>
</svg>
