<?xml version="1.0" encoding="UTF-8"?>
<svg xmlns="http://www.w3.org/2000/svg" xmlns:xlink="http://www.w3.org/1999/xlink" width="289" height="147" viewBox="0 0 289 147">
<path fill-rule="evenodd" fill="rgb(0%, 0%, 0%)" fill-opacity="1" d="M 11.566406 31.484375 C 11.566406 31.464844 11.566406 31.421875 11.503906 31.355469 C 10.519531 30.34375 7.890625 27.578125 7.890625 20.847656 C 7.890625 14.121094 10.476562 11.378906 11.523438 10.300781 C 11.523438 10.277344 11.566406 10.234375 11.566406 10.171875 C 11.566406 10.105469 11.503906 10.0625 11.421875 10.0625 C 11.191406 10.0625 9.40625 11.660156 8.378906 14.035156 C 7.332031 16.429688 7.039062 18.757812 7.039062 20.828125 C 7.039062 22.382812 7.183594 25.011719 8.441406 27.792969 C 9.449219 30.039062 11.171875 31.613281 11.421875 31.613281 C 11.523438 31.613281 11.566406 31.570312 11.566406 31.484375 "/>
<path fill-rule="evenodd" fill="rgb(0%, 0%, 0%)" fill-opacity="1" d="M 20.320312 13.191406 C 20.511719 12.402344 20.59375 12.355469 21.421875 12.355469 L 24.175781 12.355469 C 26.570312 12.355469 26.570312 14.414062 26.570312 14.605469 C 26.570312 16.339844 24.855469 18.546875 22.058594 18.546875 L 19.003906 18.546875 Z M 23.84375 18.726562 C 26.167969 18.300781 28.28125 16.671875 28.28125 14.699219 C 28.28125 13.023438 26.824219 11.738281 24.441406 11.738281 L 17.667969 11.738281 C 17.269531 11.738281 17.078125 11.738281 17.078125 12.144531 C 17.078125 12.355469 17.269531 12.355469 17.582031 12.355469 C 18.859375 12.355469 18.859375 12.527344 18.859375 12.765625 C 18.859375 12.808594 18.859375 12.933594 18.773438 13.257812 L 15.949219 24.695312 C 15.757812 25.441406 15.71875 25.652344 14.253906 25.652344 C 13.851562 25.652344 13.644531 25.652344 13.644531 26.039062 C 13.644531 26.269531 13.769531 26.269531 14.1875 26.269531 L 21.347656 26.269531 C 24.539062 26.269531 27 23.820312 27 21.6875 C 27 19.953125 25.511719 18.898438 23.84375 18.726562 Z M 20.871094 25.652344 L 18.042969 25.652344 C 17.75 25.652344 17.710938 25.652344 17.582031 25.632812 C 17.351562 25.609375 17.332031 25.570312 17.332031 25.398438 C 17.332031 25.253906 17.375 25.125 17.414062 24.9375 L 18.882812 19.007812 L 22.816406 19.007812 C 25.289062 19.007812 25.289062 21.320312 25.289062 21.484375 C 25.289062 23.507812 23.464844 25.652344 20.871094 25.652344 "/>
<path fill-rule="evenodd" fill="rgb(0%, 0%, 0%)" fill-opacity="1" d="M 36.109375 31.484375 C 36.109375 31.464844 36.109375 31.421875 36.046875 31.355469 C 35.0625 30.34375 32.433594 27.578125 32.433594 20.847656 C 32.433594 14.121094 35.019531 11.378906 36.066406 10.300781 C 36.066406 10.277344 36.109375 10.234375 36.109375 10.171875 C 36.109375 10.105469 36.046875 10.0625 35.964844 10.0625 C 35.734375 10.0625 33.949219 11.660156 32.921875 14.035156 C 31.871094 16.429688 31.578125 18.757812 31.578125 20.828125 C 31.578125 22.382812 31.726562 25.011719 32.984375 27.792969 C 33.988281 30.039062 35.714844 31.613281 35.964844 31.613281 C 36.066406 31.613281 36.109375 31.570312 36.109375 31.484375 "/>
<path fill-rule="evenodd" fill="rgb(0%, 0%, 0%)" fill-opacity="1" d="M 40.71875 23.964844 C 39.980469 25.226562 39.269531 25.652344 38.261719 25.652344 C 38.03125 25.652344 37.867188 25.652344 37.867188 26.050781 C 37.867188 26.183594 37.972656 26.269531 38.117188 26.269531 C 38.496094 26.269531 39.4375 26.269531 39.816406 26.269531 C 40.425781 26.269531 41.097656 26.269531 41.683594 26.269531 C 41.8125 26.269531 42.0625 26.269531 42.0625 25.867188 C 42.0625 25.675781 41.894531 25.652344 41.769531 25.652344 C 41.285156 25.613281 40.886719 25.460938 40.886719 24.996094 C 40.886719 24.699219 41.015625 24.464844 41.285156 24 L 42.882812 21.332031 L 48.234375 21.332031 C 48.253906 21.523438 48.253906 21.691406 48.277344 21.882812 C 48.335938 22.433594 48.589844 24.636719 48.589844 25.039062 C 48.589844 25.652344 47.519531 25.652344 47.183594 25.652344 C 46.957031 25.652344 46.722656 25.652344 46.722656 26.058594 C 46.722656 26.269531 46.910156 26.269531 47.035156 26.269531 C 47.390625 26.269531 47.8125 26.269531 48.167969 26.269531 L 49.363281 26.269531 C 50.648438 26.269531 51.570312 26.269531 51.59375 26.269531 C 51.738281 26.269531 51.96875 26.269531 51.96875 25.867188 C 51.96875 25.652344 51.777344 25.652344 51.464844 25.652344 C 50.308594 25.652344 50.289062 25.464844 50.226562 24.820312 L 48.949219 11.53125 C 48.90625 11.109375 48.820312 11.066406 48.589844 11.066406 C 48.378906 11.066406 48.253906 11.109375 48.066406 11.429688 Z M 43.238281 20.714844 L 47.457031 13.492188 L 48.167969 20.714844 Z M 60.582031 13.316406 C 60.765625 12.570312 60.808594 12.355469 62.332031 12.355469 C 62.785156 12.355469 62.953125 12.355469 62.953125 11.953125 C 62.953125 11.738281 62.722656 11.738281 62.664062 11.738281 C 62.285156 11.738281 61.828125 11.738281 61.457031 11.738281 L 58.890625 11.738281 C 58.472656 11.738281 57.992188 11.738281 57.578125 11.738281 C 57.410156 11.738281 57.179688 11.738281 57.179688 12.128906 C 57.179688 12.355469 57.347656 12.355469 57.765625 12.355469 C 59.058594 12.355469 59.058594 12.527344 59.058594 12.761719 C 59.058594 12.910156 59.015625 13.039062 58.972656 13.230469 L 56.160156 24.695312 C 55.972656 25.441406 55.933594 25.652344 54.410156 25.652344 C 53.953125 25.652344 53.765625 25.652344 53.765625 26.058594 C 53.765625 26.269531 53.972656 26.269531 54.078125 26.269531 C 54.453125 26.269531 54.910156 26.269531 55.289062 26.269531 L 57.847656 26.269531 C 58.265625 26.269531 58.722656 26.269531 59.140625 26.269531 C 59.308594 26.269531 59.558594 26.269531 59.558594 25.902344 C 59.558594 25.652344 59.429688 25.652344 58.972656 25.652344 C 57.683594 25.652344 57.683594 25.484375 57.683594 25.230469 C 57.683594 25.1875 57.683594 25.078125 57.765625 24.738281 L 60.582031 13.316406 "/>
<path fill-rule="evenodd" fill="rgb(0%, 0%, 0%)" fill-opacity="1" d="M 69.375 20.847656 C 69.375 19.296875 69.226562 16.664062 67.96875 13.878906 C 66.964844 11.640625 65.242188 10.0625 64.992188 10.0625 C 64.925781 10.0625 64.84375 10.082031 64.84375 10.195312 C 64.84375 10.238281 64.867188 10.257812 64.886719 10.300781 C 65.910156 11.378906 68.519531 14.121094 68.519531 20.828125 C 68.519531 27.558594 65.9375 30.296875 64.886719 31.378906 C 64.867188 31.421875 64.84375 31.441406 64.84375 31.484375 C 64.84375 31.589844 64.925781 31.613281 64.992188 31.613281 C 65.222656 31.613281 67.003906 30.019531 68.03125 27.644531 C 69.082031 25.25 69.375 22.917969 69.375 20.847656 Z M 76.941406 20.847656 C 76.941406 19.296875 76.792969 16.664062 75.535156 13.878906 C 74.53125 11.640625 72.808594 10.0625 72.558594 10.0625 C 72.496094 10.0625 72.410156 10.082031 72.410156 10.195312 C 72.410156 10.238281 72.433594 10.257812 72.457031 10.300781 C 73.480469 11.378906 76.085938 14.121094 76.085938 20.828125 C 76.085938 27.558594 73.503906 30.296875 72.457031 31.378906 C 72.433594 31.421875 72.410156 31.441406 72.410156 31.484375 C 72.410156 31.589844 72.496094 31.613281 72.558594 31.613281 C 72.789062 31.613281 74.570312 30.019531 75.601562 27.644531 C 76.648438 25.25 76.941406 22.917969 76.941406 20.847656 "/>
<path fill-rule="evenodd" fill="rgb(0%, 0%, 0%)" fill-opacity="1" d="M 91.222656 14.105469 L 91.707031 13.613281 C 92.628906 12.65625 93.402344 12.421875 94.136719 12.355469 C 94.367188 12.335938 94.554688 12.3125 94.554688 11.953125 C 94.554688 11.738281 94.34375 11.738281 94.304688 11.738281 C 94.050781 11.738281 93.78125 11.738281 93.527344 11.738281 L 92.667969 11.738281 C 92.058594 11.738281 91.414062 11.738281 90.824219 11.738281 C 90.679688 11.738281 90.449219 11.738281 90.449219 12.128906 C 90.449219 12.335938 90.65625 12.355469 90.722656 12.355469 C 91.347656 12.355469 91.347656 12.679688 91.347656 12.804688 C 91.347656 13.039062 91.183594 13.359375 90.761719 13.851562 L 85.777344 19.691406 L 83.410156 13.1875 C 83.28125 12.890625 83.28125 12.847656 83.28125 12.804688 C 83.28125 12.355469 84.144531 12.355469 84.394531 12.355469 C 84.644531 12.355469 84.875 12.355469 84.875 11.945312 C 84.875 11.738281 84.6875 11.738281 84.5625 11.738281 C 84.203125 11.738281 83.785156 11.738281 83.429688 11.738281 L 81.105469 11.738281 C 80.726562 11.738281 80.332031 11.738281 79.972656 11.738281 C 79.828125 11.738281 79.597656 11.738281 79.597656 12.144531 C 79.597656 12.355469 79.78125 12.355469 80.101562 12.355469 C 81.125 12.355469 81.316406 12.546875 81.503906 13.039062 L 84.101562 20.121094 C 84.121094 20.183594 84.183594 20.417969 84.183594 20.480469 C 84.183594 20.546875 83.15625 24.753906 83.09375 24.96875 C 82.925781 25.546875 82.71875 25.652344 81.375 25.652344 C 81.019531 25.652344 80.851562 25.652344 80.851562 26.089844 C 80.851562 26.269531 81.082031 26.269531 81.144531 26.269531 C 81.523438 26.269531 81.964844 26.269531 82.359375 26.269531 L 84.832031 26.269531 C 85.210938 26.269531 85.648438 26.269531 86.027344 26.269531 C 86.171875 26.269531 86.421875 26.269531 86.421875 25.902344 C 86.421875 25.652344 86.28125 25.652344 85.921875 25.652344 C 84.625 25.652344 84.625 25.527344 84.625 25.289062 C 84.625 25.140625 84.789062 24.457031 84.898438 24.035156 L 85.648438 20.964844 C 85.777344 20.519531 85.777344 20.476562 85.96875 20.261719 L 91.222656 14.105469 "/>
<path fill-rule="evenodd" fill="rgb(0%, 0%, 0%)" fill-opacity="1" d="M 197.488281 13.191406 C 197.679688 12.402344 197.761719 12.355469 198.589844 12.355469 L 201.34375 12.355469 C 203.738281 12.355469 203.738281 14.414062 203.738281 14.605469 C 203.738281 16.339844 202.023438 18.546875 199.226562 18.546875 L 196.171875 18.546875 Z M 201.011719 18.726562 C 203.335938 18.300781 205.449219 16.671875 205.449219 14.699219 C 205.449219 13.023438 203.992188 11.738281 201.609375 11.738281 L 194.835938 11.738281 C 194.4375 11.738281 194.246094 11.738281 194.246094 12.144531 C 194.246094 12.355469 194.4375 12.355469 194.75 12.355469 C 196.027344 12.355469 196.027344 12.527344 196.027344 12.765625 C 196.027344 12.808594 196.027344 12.933594 195.941406 13.257812 L 193.117188 24.695312 C 192.925781 25.441406 192.886719 25.652344 191.421875 25.652344 C 191.019531 25.652344 190.8125 25.652344 190.8125 26.039062 C 190.8125 26.269531 190.9375 26.269531 191.355469 26.269531 L 198.511719 26.269531 C 201.707031 26.269531 204.164062 23.820312 204.164062 21.6875 C 204.164062 19.953125 202.679688 18.898438 201.011719 18.726562 Z M 198.039062 25.652344 L 195.210938 25.652344 C 194.917969 25.652344 194.878906 25.652344 194.75 25.632812 C 194.519531 25.609375 194.5 25.570312 194.5 25.398438 C 194.5 25.253906 194.542969 25.125 194.582031 24.9375 L 196.050781 19.007812 L 199.984375 19.007812 C 202.457031 19.007812 202.457031 21.320312 202.457031 21.484375 C 202.457031 23.507812 200.632812 25.652344 198.039062 25.652344 "/>
<path fill-rule="evenodd" fill="rgb(0%, 0%, 0%)" fill-opacity="1" d="M 213.277344 31.484375 C 213.277344 31.464844 213.277344 31.421875 213.214844 31.355469 C 212.230469 30.34375 209.601562 27.578125 209.601562 20.847656 C 209.601562 14.121094 212.183594 11.378906 213.234375 10.300781 C 213.234375 10.277344 213.277344 10.234375 213.277344 10.171875 C 213.277344 10.105469 213.214844 10.0625 213.128906 10.0625 C 212.898438 10.0625 211.117188 11.660156 210.089844 14.035156 C 209.039062 16.429688 208.746094 18.757812 208.746094 20.828125 C 208.746094 22.382812 208.894531 25.011719 210.152344 27.792969 C 211.15625 30.039062 212.878906 31.613281 213.128906 31.613281 C 213.234375 31.613281 213.277344 31.570312 213.277344 31.484375 Z M 220.84375 31.484375 C 220.84375 31.464844 220.84375 31.421875 220.78125 31.355469 C 219.796875 30.34375 217.167969 27.578125 217.167969 20.847656 C 217.167969 14.121094 219.753906 11.378906 220.800781 10.300781 C 220.800781 10.277344 220.84375 10.234375 220.84375 10.171875 C 220.84375 10.105469 220.78125 10.0625 220.695312 10.0625 C 220.46875 10.0625 218.683594 11.660156 217.65625 14.035156 C 216.605469 16.429688 216.3125 18.757812 216.3125 20.828125 C 216.3125 22.382812 216.460938 25.011719 217.71875 27.792969 C 218.722656 30.039062 220.445312 31.613281 220.695312 31.613281 C 220.800781 31.613281 220.84375 31.570312 220.84375 31.484375 "/>
<path fill-rule="evenodd" fill="rgb(0%, 0%, 0%)" fill-opacity="1" d="M 225.449219 23.964844 C 224.714844 25.226562 224.003906 25.652344 222.996094 25.652344 C 222.765625 25.652344 222.597656 25.652344 222.597656 26.050781 C 222.597656 26.183594 222.707031 26.269531 222.851562 26.269531 C 223.230469 26.269531 224.171875 26.269531 224.550781 26.269531 C 225.160156 26.269531 225.832031 26.269531 226.417969 26.269531 C 226.546875 26.269531 226.796875 26.269531 226.796875 25.867188 C 226.796875 25.675781 226.628906 25.652344 226.503906 25.652344 C 226.019531 25.613281 225.621094 25.460938 225.621094 24.996094 C 225.621094 24.699219 225.746094 24.464844 226.019531 24 L 227.613281 21.332031 L 232.96875 21.332031 C 232.988281 21.523438 232.988281 21.691406 233.011719 21.882812 C 233.070312 22.433594 233.324219 24.636719 233.324219 25.039062 C 233.324219 25.652344 232.253906 25.652344 231.917969 25.652344 C 231.6875 25.652344 231.453125 25.652344 231.453125 26.058594 C 231.453125 26.269531 231.644531 26.269531 231.769531 26.269531 C 232.125 26.269531 232.546875 26.269531 232.902344 26.269531 L 234.097656 26.269531 C 235.382812 26.269531 236.304688 26.269531 236.324219 26.269531 C 236.472656 26.269531 236.703125 26.269531 236.703125 25.867188 C 236.703125 25.652344 236.511719 25.652344 236.199219 25.652344 C 235.042969 25.652344 235.023438 25.464844 234.960938 24.820312 L 233.683594 11.53125 C 233.636719 11.109375 233.554688 11.066406 233.324219 11.066406 C 233.113281 11.066406 232.988281 11.109375 232.800781 11.429688 Z M 227.972656 20.714844 L 232.1875 13.492188 L 232.902344 20.714844 Z M 245.3125 13.316406 C 245.5 12.570312 245.539062 12.355469 247.0625 12.355469 C 247.519531 12.355469 247.6875 12.355469 247.6875 11.953125 C 247.6875 11.738281 247.457031 11.738281 247.398438 11.738281 C 247.019531 11.738281 246.5625 11.738281 246.1875 11.738281 L 243.625 11.738281 C 243.207031 11.738281 242.726562 11.738281 242.3125 11.738281 C 242.144531 11.738281 241.914062 11.738281 241.914062 12.128906 C 241.914062 12.355469 242.082031 12.355469 242.5 12.355469 C 243.789062 12.355469 243.789062 12.527344 243.789062 12.761719 C 243.789062 12.910156 243.75 13.039062 243.707031 13.230469 L 240.894531 24.695312 C 240.707031 25.441406 240.664062 25.652344 239.144531 25.652344 C 238.6875 25.652344 238.5 25.652344 238.5 26.058594 C 238.5 26.269531 238.707031 26.269531 238.8125 26.269531 C 239.1875 26.269531 239.644531 26.269531 240.019531 26.269531 L 242.582031 26.269531 C 243 26.269531 243.457031 26.269531 243.875 26.269531 C 244.042969 26.269531 244.292969 26.269531 244.292969 25.902344 C 244.292969 25.652344 244.164062 25.652344 243.707031 25.652344 C 242.414062 25.652344 242.414062 25.484375 242.414062 25.230469 C 242.414062 25.1875 242.414062 25.078125 242.5 24.738281 L 245.3125 13.316406 "/>
<path fill-rule="evenodd" fill="rgb(0%, 0%, 0%)" fill-opacity="1" d="M 254.109375 20.847656 C 254.109375 19.296875 253.964844 16.664062 252.703125 13.878906 C 251.699219 11.640625 249.976562 10.0625 249.726562 10.0625 C 249.664062 10.0625 249.578125 10.082031 249.578125 10.195312 C 249.578125 10.238281 249.601562 10.257812 249.621094 10.300781 C 250.648438 11.378906 253.253906 14.121094 253.253906 20.828125 C 253.253906 27.558594 250.671875 30.296875 249.621094 31.378906 C 249.601562 31.421875 249.578125 31.441406 249.578125 31.484375 C 249.578125 31.589844 249.664062 31.613281 249.726562 31.613281 C 249.957031 31.613281 251.738281 30.019531 252.769531 27.644531 C 253.816406 25.25 254.109375 22.917969 254.109375 20.847656 "/>
<path fill-rule="evenodd" fill="rgb(0%, 0%, 0%)" fill-opacity="1" d="M 268.390625 14.105469 L 268.871094 13.613281 C 269.796875 12.65625 270.570312 12.421875 271.304688 12.355469 C 271.535156 12.335938 271.722656 12.3125 271.722656 11.953125 C 271.722656 11.738281 271.511719 11.738281 271.472656 11.738281 C 271.21875 11.738281 270.945312 11.738281 270.691406 11.738281 L 269.835938 11.738281 C 269.226562 11.738281 268.578125 11.738281 267.992188 11.738281 C 267.84375 11.738281 267.613281 11.738281 267.613281 12.128906 C 267.613281 12.335938 267.824219 12.355469 267.886719 12.355469 C 268.515625 12.355469 268.515625 12.679688 268.515625 12.804688 C 268.515625 13.039062 268.347656 13.359375 267.929688 13.851562 L 262.941406 19.691406 L 260.574219 13.1875 C 260.449219 12.890625 260.449219 12.847656 260.449219 12.804688 C 260.449219 12.355469 261.308594 12.355469 261.5625 12.355469 C 261.8125 12.355469 262.039062 12.355469 262.039062 11.945312 C 262.039062 11.738281 261.855469 11.738281 261.726562 11.738281 C 261.371094 11.738281 260.953125 11.738281 260.597656 11.738281 L 258.273438 11.738281 C 257.894531 11.738281 257.496094 11.738281 257.140625 11.738281 C 256.992188 11.738281 256.761719 11.738281 256.761719 12.144531 C 256.761719 12.355469 256.949219 12.355469 257.265625 12.355469 C 258.292969 12.355469 258.480469 12.546875 258.667969 13.039062 L 261.265625 20.121094 C 261.285156 20.183594 261.351562 20.417969 261.351562 20.480469 C 261.351562 20.546875 260.320312 24.753906 260.261719 24.96875 C 260.089844 25.546875 259.882812 25.652344 258.542969 25.652344 C 258.1875 25.652344 258.019531 25.652344 258.019531 26.089844 C 258.019531 26.269531 258.246094 26.269531 258.3125 26.269531 C 258.6875 26.269531 259.128906 26.269531 259.527344 26.269531 L 261.996094 26.269531 C 262.375 26.269531 262.816406 26.269531 263.191406 26.269531 C 263.339844 26.269531 263.589844 26.269531 263.589844 25.902344 C 263.589844 25.652344 263.445312 25.652344 263.089844 25.652344 C 261.789062 25.652344 261.789062 25.527344 261.789062 25.289062 C 261.789062 25.140625 261.957031 24.457031 262.066406 24.035156 L 262.816406 20.964844 C 262.941406 20.519531 262.941406 20.476562 263.132812 20.261719 L 268.390625 14.105469 "/>
<path fill-rule="evenodd" fill="rgb(0%, 0%, 0%)" fill-opacity="1" d="M 278.46875 20.847656 C 278.46875 19.296875 278.320312 16.664062 277.0625 13.878906 C 276.058594 11.640625 274.335938 10.0625 274.085938 10.0625 C 274.019531 10.0625 273.9375 10.082031 273.9375 10.195312 C 273.9375 10.238281 273.960938 10.257812 273.980469 10.300781 C 275.003906 11.378906 277.613281 14.121094 277.613281 20.828125 C 277.613281 27.558594 275.027344 30.296875 273.980469 31.378906 C 273.960938 31.421875 273.9375 31.441406 273.9375 31.484375 C 273.9375 31.589844 274.019531 31.613281 274.085938 31.613281 C 274.3125 31.613281 276.097656 30.019531 277.125 27.644531 C 278.175781 25.25 278.46875 22.917969 278.46875 20.847656 "/>
<path fill-rule="evenodd" fill="rgb(0%, 0%, 0%)" fill-opacity="1" d="M 44.25 120.839844 C 44.4375 120.09375 44.476562 119.878906 45.996094 119.878906 C 46.457031 119.878906 46.621094 119.878906 46.621094 119.476562 C 46.621094 119.261719 46.390625 119.261719 46.332031 119.261719 C 45.957031 119.261719 45.496094 119.261719 45.125 119.261719 L 42.558594 119.261719 C 42.140625 119.261719 41.660156 119.261719 41.246094 119.261719 C 41.082031 119.261719 40.851562 119.261719 40.851562 119.648438 C 40.851562 119.878906 41.015625 119.878906 41.433594 119.878906 C 42.726562 119.878906 42.726562 120.050781 42.726562 120.285156 C 42.726562 120.433594 42.6875 120.5625 42.644531 120.75 L 39.828125 132.21875 C 39.640625 132.960938 39.601562 133.175781 38.078125 133.175781 C 37.621094 133.175781 37.433594 133.175781 37.433594 133.582031 C 37.433594 133.792969 37.640625 133.792969 37.746094 133.792969 C 38.121094 133.792969 38.578125 133.792969 38.957031 133.792969 L 41.515625 133.792969 C 41.933594 133.792969 42.390625 133.792969 42.808594 133.792969 C 42.976562 133.792969 43.226562 133.792969 43.226562 133.425781 C 43.226562 133.175781 43.101562 133.175781 42.644531 133.175781 C 41.351562 133.175781 41.351562 133.007812 41.351562 132.753906 C 41.351562 132.710938 41.351562 132.601562 41.433594 132.261719 L 44.25 120.839844 "/>
<path fill-rule="evenodd" fill="rgb(0%, 0%, 0%)" fill-opacity="1" d="M 58.175781 121.625 L 58.660156 121.136719 C 59.582031 120.175781 60.355469 119.941406 61.089844 119.878906 C 61.320312 119.859375 61.507812 119.835938 61.507812 119.476562 C 61.507812 119.261719 61.296875 119.261719 61.257812 119.261719 C 61.003906 119.261719 60.730469 119.261719 60.480469 119.261719 L 59.621094 119.261719 C 59.011719 119.261719 58.363281 119.261719 57.777344 119.261719 C 57.628906 119.261719 57.398438 119.261719 57.398438 119.648438 C 57.398438 119.855469 57.609375 119.878906 57.671875 119.878906 C 58.300781 119.878906 58.300781 120.199219 58.300781 120.328125 C 58.300781 120.5625 58.132812 120.882812 57.714844 121.375 L 52.730469 127.210938 L 50.359375 120.710938 C 50.234375 120.414062 50.234375 120.371094 50.234375 120.328125 C 50.234375 119.878906 51.097656 119.878906 51.347656 119.878906 C 51.597656 119.878906 51.828125 119.878906 51.828125 119.46875 C 51.828125 119.261719 51.640625 119.261719 51.511719 119.261719 C 51.15625 119.261719 50.738281 119.261719 50.382812 119.261719 L 48.058594 119.261719 C 47.679688 119.261719 47.28125 119.261719 46.925781 119.261719 C 46.777344 119.261719 46.546875 119.261719 46.546875 119.664062 C 46.546875 119.878906 46.734375 119.878906 47.050781 119.878906 C 48.078125 119.878906 48.265625 120.070312 48.453125 120.5625 L 51.050781 127.644531 C 51.070312 127.707031 51.136719 127.941406 51.136719 128.003906 C 51.136719 128.066406 50.105469 132.277344 50.046875 132.492188 C 49.878906 133.070312 49.667969 133.175781 48.328125 133.175781 C 47.972656 133.175781 47.804688 133.175781 47.804688 133.609375 C 47.804688 133.792969 48.035156 133.792969 48.097656 133.792969 C 48.476562 133.792969 48.914062 133.792969 49.3125 133.792969 L 51.785156 133.792969 C 52.160156 133.792969 52.601562 133.792969 52.980469 133.792969 C 53.125 133.792969 53.375 133.792969 53.375 133.425781 C 53.375 133.175781 53.234375 133.175781 52.875 133.175781 C 51.578125 133.175781 51.578125 133.046875 51.578125 132.8125 C 51.578125 132.660156 51.742188 131.980469 51.851562 131.558594 L 52.601562 128.488281 C 52.730469 128.039062 52.730469 127.996094 52.917969 127.78125 L 58.175781 121.625 "/>
<path fill-rule="evenodd" fill="rgb(0%, 0%, 0%)" fill-opacity="1" d="M 197.488281 118.753906 C 197.679688 117.964844 197.761719 117.917969 198.589844 117.917969 L 201.34375 117.917969 C 203.738281 117.917969 203.738281 119.976562 203.738281 120.167969 C 203.738281 121.902344 202.023438 124.105469 199.226562 124.105469 L 196.171875 124.105469 Z M 201.011719 124.289062 C 203.335938 123.863281 205.449219 122.234375 205.449219 120.261719 C 205.449219 118.589844 203.992188 117.300781 201.609375 117.300781 L 194.835938 117.300781 C 194.4375 117.300781 194.246094 117.300781 194.246094 117.707031 C 194.246094 117.917969 194.4375 117.917969 194.75 117.917969 C 196.027344 117.917969 196.027344 118.089844 196.027344 118.328125 C 196.027344 118.371094 196.027344 118.496094 195.941406 118.816406 L 193.117188 130.257812 C 192.925781 131.003906 192.886719 131.214844 191.421875 131.214844 C 191.019531 131.214844 190.8125 131.214844 190.8125 131.601562 C 190.8125 131.835938 190.9375 131.835938 191.355469 131.835938 L 198.511719 131.835938 C 201.707031 131.835938 204.164062 129.382812 204.164062 127.25 C 204.164062 125.515625 202.679688 124.460938 201.011719 124.289062 Z M 198.039062 131.214844 L 195.210938 131.214844 C 194.917969 131.214844 194.878906 131.214844 194.75 131.195312 C 194.519531 131.171875 194.5 131.132812 194.5 130.960938 C 194.5 130.816406 194.542969 130.6875 194.582031 130.496094 L 196.050781 124.566406 L 199.984375 124.566406 C 202.457031 124.566406 202.457031 126.882812 202.457031 127.046875 C 202.457031 129.070312 200.632812 131.214844 198.039062 131.214844 "/>
<path fill-rule="evenodd" fill="rgb(0%, 0%, 0%)" fill-opacity="1" d="M 213.277344 137.046875 C 213.277344 137.027344 213.277344 136.984375 213.214844 136.917969 C 212.230469 135.902344 209.601562 133.144531 209.601562 126.410156 C 209.601562 119.683594 212.183594 116.941406 213.234375 115.863281 C 213.234375 115.839844 213.277344 115.796875 213.277344 115.734375 C 213.277344 115.667969 213.214844 115.625 213.128906 115.625 C 212.898438 115.625 211.117188 117.222656 210.089844 119.597656 C 209.039062 121.988281 208.746094 124.320312 208.746094 126.390625 C 208.746094 127.945312 208.894531 130.574219 210.152344 133.355469 C 211.15625 135.601562 212.878906 137.175781 213.128906 137.175781 C 213.234375 137.175781 213.277344 137.132812 213.277344 137.046875 "/>
<path fill-rule="evenodd" fill="rgb(0%, 0%, 0%)" fill-opacity="1" d="M 217.882812 129.527344 C 217.148438 130.789062 216.4375 131.214844 215.429688 131.214844 C 215.199219 131.214844 215.03125 131.214844 215.03125 131.613281 C 215.03125 131.746094 215.140625 131.835938 215.285156 131.835938 C 215.664062 131.835938 216.605469 131.835938 216.980469 131.835938 C 217.59375 131.835938 218.265625 131.835938 218.851562 131.835938 C 218.980469 131.835938 219.230469 131.835938 219.230469 131.429688 C 219.230469 131.234375 219.0625 131.214844 218.9375 131.214844 C 218.449219 131.175781 218.054688 131.023438 218.054688 130.558594 C 218.054688 130.261719 218.179688 130.027344 218.449219 129.5625 L 220.046875 126.894531 L 225.398438 126.894531 C 225.421875 127.085938 225.421875 127.257812 225.441406 127.445312 C 225.503906 127.996094 225.757812 130.199219 225.757812 130.601562 C 225.757812 131.214844 224.683594 131.214844 224.351562 131.214844 C 224.121094 131.214844 223.886719 131.214844 223.886719 131.621094 C 223.886719 131.835938 224.078125 131.835938 224.199219 131.835938 C 224.558594 131.835938 224.980469 131.835938 225.335938 131.835938 L 226.53125 131.835938 C 227.8125 131.835938 228.738281 131.835938 228.757812 131.835938 C 228.90625 131.835938 229.136719 131.835938 229.136719 131.429688 C 229.136719 131.214844 228.945312 131.214844 228.632812 131.214844 C 227.476562 131.214844 227.457031 131.027344 227.394531 130.386719 L 226.113281 117.09375 C 226.070312 116.671875 225.988281 116.628906 225.757812 116.628906 C 225.546875 116.628906 225.421875 116.671875 225.234375 116.992188 Z M 220.40625 126.277344 L 224.621094 119.054688 L 225.335938 126.277344 Z M 220.40625 126.277344 "/>
<path fill-rule="evenodd" fill="rgb(0%, 0%, 0%)" fill-opacity="1" d="M 236.53125 137.046875 C 236.53125 137.027344 236.53125 136.984375 236.46875 136.917969 C 235.484375 135.902344 232.855469 133.144531 232.855469 126.410156 C 232.855469 119.683594 235.4375 116.941406 236.488281 115.863281 C 236.488281 115.839844 236.53125 115.796875 236.53125 115.734375 C 236.53125 115.667969 236.46875 115.625 236.382812 115.625 C 236.152344 115.625 234.371094 117.222656 233.34375 119.597656 C 232.292969 121.988281 232 124.320312 232 126.390625 C 232 127.945312 232.148438 130.574219 233.40625 133.355469 C 234.410156 135.601562 236.132812 137.175781 236.382812 137.175781 C 236.488281 137.175781 236.53125 137.132812 236.53125 137.046875 "/>
<path fill-rule="evenodd" fill="rgb(0%, 0%, 0%)" fill-opacity="1" d="M 245.316406 118.878906 C 245.503906 118.132812 245.542969 117.917969 247.066406 117.917969 C 247.523438 117.917969 247.6875 117.917969 247.6875 117.515625 C 247.6875 117.300781 247.460938 117.300781 247.398438 117.300781 C 247.019531 117.300781 246.5625 117.300781 246.191406 117.300781 L 243.625 117.300781 C 243.207031 117.300781 242.726562 117.300781 242.3125 117.300781 C 242.144531 117.300781 241.914062 117.300781 241.914062 117.6875 C 241.914062 117.917969 242.082031 117.917969 242.5 117.917969 C 243.792969 117.917969 243.792969 118.089844 243.792969 118.324219 C 243.792969 118.472656 243.753906 118.601562 243.710938 118.789062 L 240.894531 130.257812 C 240.707031 131.003906 240.667969 131.214844 239.144531 131.214844 C 238.6875 131.214844 238.5 131.214844 238.5 131.621094 C 238.5 131.835938 238.707031 131.835938 238.8125 131.835938 C 239.1875 131.835938 239.644531 131.835938 240.023438 131.835938 L 242.585938 131.835938 C 243 131.835938 243.457031 131.835938 243.875 131.835938 C 244.042969 131.835938 244.292969 131.835938 244.292969 131.464844 C 244.292969 131.214844 244.164062 131.214844 243.710938 131.214844 C 242.417969 131.214844 242.417969 131.046875 242.417969 130.792969 C 242.417969 130.75 242.417969 130.640625 242.5 130.300781 L 245.316406 118.878906 "/>
<path fill-rule="evenodd" fill="rgb(0%, 0%, 0%)" fill-opacity="1" d="M 259.242188 119.664062 L 259.726562 119.175781 C 260.644531 118.21875 261.421875 117.984375 262.15625 117.917969 C 262.386719 117.898438 262.574219 117.875 262.574219 117.515625 C 262.574219 117.300781 262.363281 117.300781 262.324219 117.300781 C 262.070312 117.300781 261.796875 117.300781 261.546875 117.300781 L 260.6875 117.300781 C 260.078125 117.300781 259.429688 117.300781 258.84375 117.300781 C 258.695312 117.300781 258.464844 117.300781 258.464844 117.6875 C 258.464844 117.894531 258.675781 117.917969 258.738281 117.917969 C 259.367188 117.917969 259.367188 118.238281 259.367188 118.367188 C 259.367188 118.601562 259.199219 118.921875 258.78125 119.414062 L 253.796875 125.253906 L 251.425781 118.75 C 251.300781 118.453125 251.300781 118.410156 251.300781 118.367188 C 251.300781 117.917969 252.160156 117.917969 252.410156 117.917969 C 252.664062 117.917969 252.894531 117.917969 252.894531 117.507812 C 252.894531 117.300781 252.707031 117.300781 252.578125 117.300781 C 252.222656 117.300781 251.804688 117.300781 251.445312 117.300781 L 249.121094 117.300781 C 248.746094 117.300781 248.347656 117.300781 247.992188 117.300781 C 247.84375 117.300781 247.613281 117.300781 247.613281 117.707031 C 247.613281 117.917969 247.800781 117.917969 248.117188 117.917969 C 249.144531 117.917969 249.335938 118.109375 249.519531 118.601562 L 252.117188 125.683594 C 252.136719 125.746094 252.203125 125.980469 252.203125 126.042969 C 252.203125 126.105469 251.171875 130.316406 251.113281 130.53125 C 250.941406 131.109375 250.734375 131.214844 249.394531 131.214844 C 249.039062 131.214844 248.871094 131.214844 248.871094 131.648438 C 248.871094 131.835938 249.101562 131.835938 249.164062 131.835938 C 249.539062 131.835938 249.980469 131.835938 250.378906 131.835938 L 252.851562 131.835938 C 253.226562 131.835938 253.667969 131.835938 254.046875 131.835938 C 254.191406 131.835938 254.441406 131.835938 254.441406 131.464844 C 254.441406 131.214844 254.300781 131.214844 253.941406 131.214844 C 252.644531 131.214844 252.644531 131.089844 252.644531 130.851562 C 252.644531 130.703125 252.808594 130.019531 252.914062 129.597656 L 253.667969 126.527344 C 253.796875 126.082031 253.796875 126.035156 253.984375 125.824219 L 259.242188 119.664062 "/>
<path fill-rule="evenodd" fill="rgb(0%, 0%, 0%)" fill-opacity="1" d="M 270.902344 126.410156 C 270.902344 124.859375 270.753906 122.226562 269.496094 119.441406 C 268.488281 117.203125 266.765625 115.625 266.515625 115.625 C 266.453125 115.625 266.367188 115.644531 266.367188 115.757812 C 266.367188 115.796875 266.394531 115.820312 266.414062 115.863281 C 267.4375 116.941406 270.046875 119.683594 270.046875 126.390625 C 270.046875 133.117188 267.460938 135.859375 266.414062 136.9375 C 266.394531 136.984375 266.367188 137.003906 266.367188 137.046875 C 266.367188 137.152344 266.453125 137.175781 266.515625 137.175781 C 266.746094 137.175781 268.53125 135.582031 269.558594 133.207031 C 270.605469 130.8125 270.902344 128.480469 270.902344 126.410156 Z M 278.46875 126.410156 C 278.46875 124.859375 278.320312 122.226562 277.0625 119.441406 C 276.058594 117.203125 274.335938 115.625 274.085938 115.625 C 274.019531 115.625 273.9375 115.644531 273.9375 115.757812 C 273.9375 115.796875 273.960938 115.820312 273.980469 115.863281 C 275.003906 116.941406 277.613281 119.683594 277.613281 126.390625 C 277.613281 133.117188 275.027344 135.859375 273.980469 136.9375 C 273.960938 136.984375 273.9375 137.003906 273.9375 137.046875 C 273.9375 137.152344 274.019531 137.175781 274.085938 137.175781 C 274.3125 137.175781 276.097656 135.582031 277.125 133.207031 C 278.175781 130.8125 278.46875 128.480469 278.46875 126.410156 "/>
<path fill="none" stroke-width="6.55" stroke-linecap="square" stroke-linejoin="miter" stroke="rgb(0%, 0%, 0%)" stroke-opacity="1" stroke-miterlimit="10" d="M 1001.210938 1260.703125 L 1811.25 1260.703125 " transform="matrix(0.1, 0, 0, -0.1, 0, 147)"/>
<path fill-rule="evenodd" fill="rgb(0%, 0%, 0%)" fill-opacity="1" d="M 185.496094 20.929688 L 178.503906 17.433594 L 181.125 20.929688 L 178.503906 24.425781 Z M 185.496094 20.929688 "/>
<path fill-rule="evenodd" fill="rgb(0%, 0%, 0%)" fill-opacity="1" d="M 143.488281 13.792969 C 143.394531 14.09375 143.394531 14.128906 143.148438 14.464844 C 142.757812 14.960938 141.980469 15.722656 141.144531 15.722656 C 140.417969 15.722656 140.011719 15.066406 140.011719 14.019531 C 140.011719 13.050781 140.5625 11.066406 140.902344 10.324219 C 141.507812 9.085938 142.34375 8.449219 143.039062 8.449219 C 144.214844 8.449219 144.445312 9.898438 144.445312 10.039062 C 144.445312 10.054688 144.390625 10.285156 144.371094 10.324219 Z M 144.601562 9.261719 C 144.410156 8.789062 143.941406 8.0625 143.035156 8.0625 C 141.070312 8.0625 138.941406 10.667969 138.941406 13.304688 C 138.941406 15.070312 139.953125 16.105469 141.136719 16.105469 C 142.089844 16.105469 142.910156 15.324219 143.394531 14.730469 C 143.570312 15.796875 144.390625 16.105469 144.914062 16.105469 C 145.441406 16.105469 145.859375 15.78125 146.175781 15.140625 C 146.453125 14.53125 146.699219 13.441406 146.699219 13.367188 C 146.699219 13.277344 146.628906 13.210938 146.523438 13.210938 C 146.367188 13.210938 146.351562 13.296875 146.277344 13.5625 C 146.015625 14.605469 145.6875 15.722656 144.96875 15.722656 C 144.464844 15.722656 144.464844 15.261719 144.464844 14.90625 C 144.464844 14.5 144.515625 14.304688 144.667969 13.613281 C 144.785156 13.171875 144.871094 12.78125 145.007812 12.269531 C 145.636719 9.617188 145.789062 8.980469 145.789062 8.871094 C 145.789062 8.621094 145.597656 8.421875 145.339844 8.421875 C 144.777344 8.421875 144.640625 9.050781 144.601562 9.261719 "/>
<path fill="none" stroke-width="6.55" stroke-linecap="square" stroke-linejoin="miter" stroke="rgb(0%, 0%, 0%)" stroke-opacity="1" stroke-miterlimit="10" d="M 504.296875 1110.3125 L 504.296875 365.351562 " transform="matrix(0.1, 0, 0, -0.1, 0, 147)"/>
<path fill-rule="evenodd" fill="rgb(0%, 0%, 0%)" fill-opacity="1" d="M 50.429688 114.835938 L 53.925781 107.84375 L 50.429688 110.464844 L 46.933594 107.84375 Z M 50.429688 114.835938 "/>
<path fill-rule="evenodd" fill="rgb(0%, 0%, 0%)" fill-opacity="1" d="M 62.199219 77.710938 C 64.875 77.480469 66.828125 75.835938 66.828125 74.011719 C 66.828125 72.117188 64.820312 70.523438 62.199219 70.289062 L 62.199219 69.363281 C 62.199219 68.757812 62.234375 68.554688 63.765625 68.554688 L 64.292969 68.554688 L 64.292969 68.039062 C 63.816406 68.039062 62.128906 68.039062 61.554688 68.039062 C 60.980469 68.039062 59.292969 68.039062 58.804688 68.039062 L 58.804688 68.554688 L 59.347656 68.554688 C 60.914062 68.554688 60.953125 68.757812 60.953125 69.363281 L 60.953125 70.308594 C 58.179688 70.554688 56.320312 72.238281 56.320312 73.992188 C 56.320312 75.8125 58.234375 77.445312 60.953125 77.691406 L 60.953125 78.738281 C 60.953125 79.410156 60.914062 79.636719 59.347656 79.636719 L 58.804688 79.636719 L 58.804688 80.148438 C 59.292969 80.148438 60.980469 80.148438 61.554688 80.148438 C 62.128906 80.148438 63.816406 80.148438 64.292969 80.148438 L 64.292969 79.636719 L 63.765625 79.636719 C 62.234375 79.636719 62.199219 79.410156 62.199219 78.738281 Z M 60.953125 77.300781 C 58.988281 77.050781 57.921875 75.917969 57.921875 73.988281 C 57.921875 72.039062 58.972656 70.90625 60.953125 70.660156 Z M 62.199219 70.644531 C 64.257812 70.90625 65.226562 72.097656 65.226562 73.972656 C 65.226562 75.8125 64.328125 77.035156 62.199219 77.320312 L 62.199219 70.644531 "/>
<path fill-rule="evenodd" fill="rgb(0%, 0%, 0%)" fill-opacity="1" d="M 72.558594 75.359375 C 72.664062 74.917969 72.703125 74.792969 73.660156 74.792969 C 73.953125 74.792969 74.046875 74.792969 74.046875 74.535156 C 74.046875 74.410156 73.914062 74.410156 73.867188 74.410156 C 73.515625 74.410156 72.617188 74.410156 72.265625 74.410156 C 71.902344 74.410156 71.019531 74.410156 70.652344 74.410156 C 70.570312 74.410156 70.414062 74.410156 70.414062 74.644531 C 70.414062 74.792969 70.519531 74.792969 70.75 74.792969 C 71.261719 74.792969 71.589844 74.792969 71.589844 75.027344 C 71.589844 75.089844 71.589844 75.113281 71.5625 75.226562 L 69.929688 81.859375 C 69.816406 82.3125 69.78125 82.4375 68.824219 82.4375 C 68.546875 82.4375 68.4375 82.4375 68.4375 82.710938 C 68.4375 82.820312 68.582031 82.820312 68.617188 82.820312 C 68.96875 82.820312 69.855469 82.820312 70.207031 82.820312 C 70.570312 82.820312 71.464844 82.820312 71.828125 82.820312 C 71.929688 82.820312 72.074219 82.820312 72.074219 82.601562 C 72.074219 82.4375 71.976562 82.4375 71.710938 82.4375 C 71.492188 82.4375 71.429688 82.4375 71.1875 82.414062 C 70.933594 82.390625 70.882812 82.339844 70.882812 82.203125 C 70.882812 82.105469 70.910156 82.007812 70.933594 81.917969 L 72.558594 75.359375 "/>
<path fill-rule="evenodd" fill="rgb(0%, 0%, 0%)" fill-opacity="1" d="M 79.859375 68.796875 C 79.859375 68.410156 79.859375 68.394531 79.546875 68.394531 C 79.140625 68.847656 78.296875 69.464844 76.554688 69.464844 L 76.554688 69.980469 C 76.957031 69.980469 77.828125 69.980469 78.789062 69.515625 L 78.789062 78.78125 C 78.789062 79.417969 78.734375 79.636719 77.199219 79.636719 L 76.660156 79.636719 L 76.660156 80.148438 C 77.132812 80.148438 78.773438 80.148438 79.332031 80.148438 C 79.890625 80.148438 81.515625 80.148438 81.984375 80.148438 L 81.984375 79.636719 L 81.445312 79.636719 C 79.910156 79.636719 79.859375 79.417969 79.859375 78.78125 L 79.859375 68.796875 "/>
<path fill-rule="evenodd" fill="rgb(0%, 0%, 0%)" fill-opacity="1" d="M 91.003906 75.816406 L 91.171875 75.644531 C 91.535156 75.273438 91.9375 74.855469 92.761719 74.792969 C 92.894531 74.792969 93.003906 74.792969 93.003906 74.539062 C 93.003906 74.453125 92.941406 74.410156 92.847656 74.410156 C 92.53125 74.410156 92.179688 74.410156 91.851562 74.410156 C 91.453125 74.410156 91.027344 74.410156 90.640625 74.410156 C 90.566406 74.410156 90.410156 74.410156 90.410156 74.636719 C 90.410156 74.78125 90.53125 74.792969 90.59375 74.792969 C 90.675781 74.792969 91.027344 74.792969 91.027344 75.054688 C 91.027344 75.261719 90.75 75.585938 90.703125 75.644531 L 87.886719 78.949219 L 86.558594 75.273438 C 86.484375 75.101562 86.484375 75.078125 86.484375 75.066406 C 86.484375 74.792969 87.078125 74.792969 87.199219 74.792969 C 87.367188 74.792969 87.488281 74.792969 87.488281 74.523438 C 87.488281 74.410156 87.34375 74.410156 87.308594 74.410156 C 86.96875 74.410156 86.121094 74.410156 85.78125 74.410156 C 85.476562 74.410156 84.726562 74.410156 84.421875 74.410156 C 84.351562 74.410156 84.195312 74.410156 84.195312 74.652344 C 84.195312 74.792969 84.3125 74.792969 84.472656 74.792969 C 85.199219 74.792969 85.246094 74.902344 85.355469 75.214844 L 86.847656 79.261719 C 86.859375 79.296875 86.894531 79.433594 86.894531 79.46875 C 86.894531 79.507812 86.410156 81.5 86.351562 81.722656 C 86.191406 82.402344 86.179688 82.4375 85.210938 82.4375 C 84.980469 82.4375 84.882812 82.4375 84.882812 82.710938 C 84.882812 82.820312 85.027344 82.820312 85.054688 82.820312 C 85.390625 82.820312 86.238281 82.820312 86.582031 82.820312 C 86.917969 82.820312 87.792969 82.820312 88.132812 82.820312 C 88.21875 82.820312 88.363281 82.820312 88.363281 82.589844 C 88.363281 82.4375 88.253906 82.4375 88.023438 82.4375 C 87.996094 82.4375 87.769531 82.4375 87.5625 82.414062 C 87.308594 82.390625 87.234375 82.367188 87.234375 82.226562 C 87.234375 82.140625 87.34375 81.710938 87.40625 81.453125 L 87.828125 79.714844 C 87.886719 79.476562 87.902344 79.441406 87.996094 79.332031 L 91.003906 75.816406 "/>
<path fill="none" stroke-width="6.55" stroke-linecap="square" stroke-linejoin="miter" stroke="rgb(0%, 0%, 0%)" stroke-opacity="1" stroke-miterlimit="10" d="M 2351.875 1110.3125 L 2351.875 399.023438 " transform="matrix(0.1, 0, 0, -0.1, 0, 147)"/>
<path fill-rule="evenodd" fill="rgb(0%, 0%, 0%)" fill-opacity="1" d="M 235.1875 111.46875 L 238.683594 104.476562 L 235.1875 107.097656 L 231.691406 104.476562 Z M 235.1875 111.46875 "/>
<path fill-rule="evenodd" fill="rgb(0%, 0%, 0%)" fill-opacity="1" d="M 244.996094 68.101562 C 244.996094 67.71875 244.996094 67.703125 244.6875 67.703125 C 244.28125 68.152344 243.4375 68.769531 241.695312 68.769531 L 241.695312 69.285156 C 242.09375 69.285156 242.96875 69.285156 243.929688 68.824219 L 243.929688 78.085938 C 243.929688 78.726562 243.875 78.941406 242.339844 78.941406 L 241.800781 78.941406 L 241.800781 79.457031 C 242.269531 79.457031 243.910156 79.457031 244.472656 79.457031 C 245.03125 79.457031 246.65625 79.457031 247.125 79.457031 L 247.125 78.941406 L 246.585938 78.941406 C 245.050781 78.941406 244.996094 78.726562 244.996094 78.085938 L 244.996094 68.101562 "/>
<path fill-rule="evenodd" fill="rgb(0%, 0%, 0%)" fill-opacity="1" d="M 254.164062 77.320312 C 254.070312 77.621094 254.070312 77.65625 253.824219 77.992188 C 253.433594 78.488281 252.65625 79.25 251.820312 79.25 C 251.09375 79.25 250.6875 78.597656 250.6875 77.546875 C 250.6875 76.578125 251.238281 74.59375 251.578125 73.851562 C 252.183594 72.613281 253.019531 71.976562 253.714844 71.976562 C 254.890625 71.976562 255.121094 73.425781 255.121094 73.566406 C 255.121094 73.585938 255.066406 73.816406 255.046875 73.851562 Z M 255.277344 72.789062 C 255.085938 72.316406 254.617188 71.59375 253.710938 71.59375 C 251.746094 71.59375 249.617188 74.195312 249.617188 76.835938 C 249.617188 78.597656 250.628906 79.632812 251.8125 79.632812 C 252.765625 79.632812 253.585938 78.855469 254.070312 78.257812 C 254.246094 79.324219 255.066406 79.632812 255.589844 79.632812 C 256.117188 79.632812 256.535156 79.3125 256.851562 78.667969 C 257.128906 78.058594 257.375 76.96875 257.375 76.894531 C 257.375 76.804688 257.304688 76.738281 257.199219 76.738281 C 257.042969 76.738281 257.027344 76.828125 256.953125 77.089844 C 256.691406 78.132812 256.359375 79.25 255.644531 79.25 C 255.140625 79.25 255.140625 78.789062 255.140625 78.433594 C 255.140625 78.027344 255.191406 77.832031 255.34375 77.144531 C 255.460938 76.703125 255.550781 76.3125 255.683594 75.796875 C 256.3125 73.144531 256.46875 72.507812 256.46875 72.402344 C 256.46875 72.148438 256.273438 71.949219 256.011719 71.949219 C 255.453125 71.949219 255.316406 72.578125 255.277344 72.789062 "/>
<path fill="none" stroke-width="6.55" stroke-linecap="square" stroke-linejoin="miter" stroke="rgb(0%, 0%, 0%)" stroke-opacity="1" stroke-miterlimit="10" d="M 1854.960938 204.921875 L 730.195312 204.921875 " transform="matrix(0.1, 0, 0, -0.1, 0, 147)"/>
<path fill-rule="evenodd" fill="rgb(0%, 0%, 0%)" fill-opacity="1" d="M 68.648438 126.507812 L 75.644531 130.003906 L 73.019531 126.507812 L 75.644531 123.011719 Z M 68.648438 126.507812 "/>
<path fill-rule="evenodd" fill="rgb(0%, 0%, 0%)" fill-opacity="1" d="M 119.066406 116.394531 C 121.742188 116.164062 123.695312 114.515625 123.695312 112.695312 C 123.695312 110.796875 121.691406 109.203125 119.066406 108.972656 L 119.066406 108.046875 C 119.066406 107.441406 119.101562 107.238281 120.632812 107.238281 L 121.160156 107.238281 L 121.160156 106.722656 C 120.6875 106.722656 118.996094 106.722656 118.425781 106.722656 C 117.851562 106.722656 116.160156 106.722656 115.675781 106.722656 L 115.675781 107.238281 L 116.21875 107.238281 C 117.785156 107.238281 117.820312 107.441406 117.820312 108.046875 L 117.820312 108.988281 C 115.050781 109.238281 113.191406 110.921875 113.191406 112.671875 C 113.191406 114.496094 115.101562 116.128906 117.820312 116.375 L 117.820312 117.421875 C 117.820312 118.09375 117.785156 118.316406 116.21875 118.316406 L 115.675781 118.316406 L 115.675781 118.832031 C 116.160156 118.832031 117.851562 118.832031 118.425781 118.832031 C 118.996094 118.832031 120.6875 118.832031 121.160156 118.832031 L 121.160156 118.316406 L 120.632812 118.316406 C 119.101562 118.316406 119.066406 118.09375 119.066406 117.421875 Z M 117.820312 115.984375 C 115.855469 115.734375 114.792969 114.601562 114.792969 112.671875 C 114.792969 110.722656 115.839844 109.589844 117.820312 109.34375 Z M 119.066406 109.328125 C 121.125 109.589844 122.09375 110.777344 122.09375 112.65625 C 122.09375 114.496094 121.195312 115.71875 119.066406 116.003906 L 119.066406 109.328125 "/>
<path fill-rule="evenodd" fill="rgb(0%, 0%, 0%)" fill-opacity="1" d="M 129.425781 114.042969 C 129.535156 113.601562 129.570312 113.476562 130.527344 113.476562 C 130.820312 113.476562 130.914062 113.476562 130.914062 113.21875 C 130.914062 113.09375 130.78125 113.09375 130.734375 113.09375 C 130.382812 113.09375 129.484375 113.09375 129.132812 113.09375 C 128.769531 113.09375 127.886719 113.09375 127.523438 113.09375 C 127.4375 113.09375 127.28125 113.09375 127.28125 113.328125 C 127.28125 113.476562 127.390625 113.476562 127.617188 113.476562 C 128.128906 113.476562 128.457031 113.476562 128.457031 113.710938 C 128.457031 113.773438 128.457031 113.796875 128.429688 113.90625 L 126.796875 120.542969 C 126.6875 120.996094 126.648438 121.121094 125.691406 121.121094 C 125.414062 121.121094 125.304688 121.121094 125.304688 121.394531 C 125.304688 121.503906 125.449219 121.503906 125.484375 121.503906 C 125.839844 121.503906 126.722656 121.503906 127.074219 121.503906 C 127.4375 121.503906 128.335938 121.503906 128.699219 121.503906 C 128.796875 121.503906 128.941406 121.503906 128.941406 121.285156 C 128.941406 121.121094 128.84375 121.121094 128.578125 121.121094 C 128.359375 121.121094 128.296875 121.121094 128.054688 121.097656 C 127.800781 121.070312 127.753906 121.023438 127.753906 120.886719 C 127.753906 120.789062 127.777344 120.691406 127.800781 120.601562 L 129.425781 114.042969 "/>
<path fill-rule="evenodd" fill="rgb(0%, 0%, 0%)" fill-opacity="1" d="M 137.660156 114.5 L 137.832031 114.328125 C 138.195312 113.957031 138.59375 113.539062 139.417969 113.476562 C 139.554688 113.476562 139.660156 113.476562 139.660156 113.222656 C 139.660156 113.136719 139.601562 113.09375 139.503906 113.09375 C 139.1875 113.09375 138.839844 113.09375 138.507812 113.09375 C 138.109375 113.09375 137.6875 113.09375 137.296875 113.09375 C 137.226562 113.09375 137.066406 113.09375 137.066406 113.320312 C 137.066406 113.464844 137.1875 113.476562 137.25 113.476562 C 137.335938 113.476562 137.6875 113.476562 137.6875 113.734375 C 137.6875 113.945312 137.40625 114.265625 137.359375 114.328125 L 134.546875 117.632812 L 133.214844 113.957031 C 133.140625 113.785156 133.140625 113.761719 133.140625 113.75 C 133.140625 113.476562 133.734375 113.476562 133.855469 113.476562 C 134.027344 113.476562 134.148438 113.476562 134.148438 113.207031 C 134.148438 113.09375 134 113.09375 133.964844 113.09375 C 133.625 113.09375 132.777344 113.09375 132.4375 113.09375 C 132.132812 113.09375 131.382812 113.09375 131.082031 113.09375 C 131.007812 113.09375 130.851562 113.09375 130.851562 113.335938 C 130.851562 113.476562 130.972656 113.476562 131.128906 113.476562 C 131.855469 113.476562 131.902344 113.585938 132.015625 113.894531 L 133.503906 117.945312 C 133.515625 117.980469 133.554688 118.117188 133.554688 118.152344 C 133.554688 118.1875 133.066406 120.183594 133.007812 120.402344 C 132.847656 121.085938 132.839844 121.121094 131.867188 121.121094 C 131.636719 121.121094 131.539062 121.121094 131.539062 121.394531 C 131.539062 121.503906 131.6875 121.503906 131.710938 121.503906 C 132.050781 121.503906 132.898438 121.503906 133.238281 121.503906 C 133.578125 121.503906 134.449219 121.503906 134.789062 121.503906 C 134.875 121.503906 135.019531 121.503906 135.019531 121.269531 C 135.019531 121.121094 134.910156 121.121094 134.679688 121.121094 C 134.65625 121.121094 134.425781 121.121094 134.21875 121.097656 C 133.964844 121.074219 133.894531 121.050781 133.894531 120.910156 C 133.894531 120.824219 134 120.390625 134.0625 120.132812 L 134.484375 118.394531 C 134.546875 118.160156 134.558594 118.125 134.65625 118.015625 L 137.660156 114.5 "/>
</svg>
