<?xml version="1.0" encoding="UTF-8"?>
<svg xmlns="http://www.w3.org/2000/svg" xmlns:xlink="http://www.w3.org/1999/xlink" width="288" height="177.94" viewBox="0 0 288 177.94">
<path fill="none" stroke-width="2.5" stroke-linecap="round" stroke-linejoin="round" stroke="rgb(0%, 0%, 0%)" stroke-opacity="1" stroke-miterlimit="10" d="M 68.990987 277.37026 L 1374.704553 277.37026 " transform="matrix(0.0999663, 0, 0, -0.0999663, 0.0485393, 177.88002)"/>
<path fill="none" stroke-width="2.5" stroke-linecap="round" stroke-linejoin="round" stroke="rgb(0%, 0%, 0%)" stroke-opacity="1" stroke-miterlimit="10" d="M 528.911642 42.369171 L 528.911642 849.359941 " transform="matrix(0.0999663, 0, 0, -0.0999663, 0.0485393, 177.88002)"/>
<path fill-rule="nonzero" fill="rgb(50%, 50%, 50%)" fill-opacity="1" d="M 10.054688 164.898438 L 12.910156 164.898438 L 12.910156 150.152344 L 10.054688 150.152344 Z M 10.054688 164.898438 "/>
<path fill="none" stroke-width="5" stroke-linecap="round" stroke-linejoin="round" stroke="rgb(0%, 0%, 0%)" stroke-opacity="1" stroke-miterlimit="10" d="M 100.095222 277.37026 L 100.095222 129.8596 L 128.659538 129.8596 L 128.659538 277.37026 L 100.095222 277.37026 " transform="matrix(0.0999663, 0, 0, -0.0999663, 0.0485393, 177.88002)"/>
<path fill-rule="nonzero" fill="rgb(50%, 50%, 50%)" fill-opacity="1" d="M 12.910156 162.046875 L 15.769531 162.046875 L 15.769531 150.152344 L 12.910156 150.152344 Z M 12.910156 162.046875 "/>
<path fill="none" stroke-width="5" stroke-linecap="round" stroke-linejoin="round" stroke="rgb(0%, 0%, 0%)" stroke-opacity="1" stroke-miterlimit="10" d="M 128.659538 277.37026 L 128.659538 158.38484 L 157.262929 158.38484 L 157.262929 277.37026 L 128.659538 277.37026 " transform="matrix(0.0999663, 0, 0, -0.0999663, 0.0485393, 177.88002)"/>
<path fill-rule="nonzero" fill="rgb(50%, 50%, 50%)" fill-opacity="1" d="M 15.769531 158.960938 L 18.625 158.960938 L 18.625 150.152344 L 15.769531 150.152344 Z M 15.769531 158.960938 "/>
<path fill="none" stroke-width="5" stroke-linecap="round" stroke-linejoin="round" stroke="rgb(0%, 0%, 0%)" stroke-opacity="1" stroke-miterlimit="10" d="M 157.262929 277.37026 L 157.262929 189.254621 L 185.827245 189.254621 L 185.827245 277.37026 L 157.262929 277.37026 " transform="matrix(0.0999663, 0, 0, -0.0999663, 0.0485393, 177.88002)"/>
<path fill-rule="nonzero" fill="rgb(50%, 50%, 50%)" fill-opacity="1" d="M 18.625 155.746094 L 21.484375 155.746094 L 21.484375 150.152344 L 18.625 150.152344 Z M 18.625 155.746094 "/>
<path fill="none" stroke-width="5" stroke-linecap="round" stroke-linejoin="round" stroke="rgb(0%, 0%, 0%)" stroke-opacity="1" stroke-miterlimit="10" d="M 185.827245 277.37026 L 185.827245 221.413899 L 214.430637 221.413899 L 214.430637 277.37026 L 185.827245 277.37026 " transform="matrix(0.0999663, 0, 0, -0.0999663, 0.0485393, 177.88002)"/>
<path fill-rule="nonzero" fill="rgb(50%, 50%, 50%)" fill-opacity="1" d="M 21.484375 152.496094 L 24.34375 152.496094 L 24.34375 150.152344 L 21.484375 150.152344 Z M 21.484375 152.496094 "/>
<path fill="none" stroke-width="5" stroke-linecap="round" stroke-linejoin="round" stroke="rgb(0%, 0%, 0%)" stroke-opacity="1" stroke-miterlimit="10" d="M 214.430637 277.37026 L 214.430637 253.924857 L 243.034028 253.924857 L 243.034028 277.37026 L 214.430637 277.37026 " transform="matrix(0.0999663, 0, 0, -0.0999663, 0.0485393, 177.88002)"/>
<path fill-rule="nonzero" fill="rgb(50%, 50%, 50%)" fill-opacity="1" d="M 24.34375 150.152344 L 27.199219 150.152344 L 27.199219 149.296875 L 24.34375 149.296875 Z M 24.34375 150.152344 "/>
<path fill="none" stroke-width="5" stroke-linecap="round" stroke-linejoin="round" stroke="rgb(0%, 0%, 0%)" stroke-opacity="1" stroke-miterlimit="10" d="M 243.034028 277.37026 L 243.034028 285.927832 L 271.598344 285.927832 L 271.598344 277.37026 L 243.034028 277.37026 " transform="matrix(0.0999663, 0, 0, -0.0999663, 0.0485393, 177.88002)"/>
<path fill-rule="nonzero" fill="rgb(50%, 50%, 50%)" fill-opacity="1" d="M 27.199219 150.152344 L 30.058594 150.152344 L 30.058594 146.226562 L 27.199219 146.226562 Z M 27.199219 150.152344 "/>
<path fill="none" stroke-width="5" stroke-linecap="round" stroke-linejoin="round" stroke="rgb(0%, 0%, 0%)" stroke-opacity="1" stroke-miterlimit="10" d="M 271.598344 277.37026 L 271.598344 316.64131 L 300.201736 316.64131 L 300.201736 277.37026 L 271.598344 277.37026 " transform="matrix(0.0999663, 0, 0, -0.0999663, 0.0485393, 177.88002)"/>
<path fill-rule="nonzero" fill="rgb(50%, 50%, 50%)" fill-opacity="1" d="M 30.058594 150.152344 L 32.914062 150.152344 L 32.914062 143.351562 L 30.058594 143.351562 Z M 30.058594 150.152344 "/>
<path fill="none" stroke-width="5" stroke-linecap="round" stroke-linejoin="round" stroke="rgb(0%, 0%, 0%)" stroke-opacity="1" stroke-miterlimit="10" d="M 300.201736 277.37026 L 300.201736 345.401005 L 328.766052 345.401005 L 328.766052 277.37026 L 300.201736 277.37026 " transform="matrix(0.0999663, 0, 0, -0.0999663, 0.0485393, 177.88002)"/>
<path fill-rule="nonzero" fill="rgb(50%, 50%, 50%)" fill-opacity="1" d="M 32.914062 150.152344 L 35.773438 150.152344 L 35.773438 140.738281 L 32.914062 140.738281 Z M 32.914062 150.152344 "/>
<path fill="none" stroke-width="5" stroke-linecap="round" stroke-linejoin="round" stroke="rgb(0%, 0%, 0%)" stroke-opacity="1" stroke-miterlimit="10" d="M 328.766052 277.37026 L 328.766052 371.542629 L 357.369443 371.542629 L 357.369443 277.37026 L 328.766052 277.37026 " transform="matrix(0.0999663, 0, 0, -0.0999663, 0.0485393, 177.88002)"/>
<path fill-rule="nonzero" fill="rgb(50%, 50%, 50%)" fill-opacity="1" d="M 35.773438 150.152344 L 38.632812 150.152344 L 38.632812 138.433594 L 35.773438 138.433594 Z M 35.773438 150.152344 "/>
<path fill="none" stroke-width="5" stroke-linecap="round" stroke-linejoin="round" stroke="rgb(0%, 0%, 0%)" stroke-opacity="1" stroke-miterlimit="10" d="M 357.369443 277.37026 L 357.369443 394.597275 L 385.972835 394.597275 L 385.972835 277.37026 L 357.369443 277.37026 " transform="matrix(0.0999663, 0, 0, -0.0999663, 0.0485393, 177.88002)"/>
<path fill-rule="nonzero" fill="rgb(50%, 50%, 50%)" fill-opacity="1" d="M 38.632812 150.152344 L 41.488281 150.152344 L 41.488281 136.488281 L 38.632812 136.488281 Z M 38.632812 150.152344 "/>
<path fill="none" stroke-width="5" stroke-linecap="round" stroke-linejoin="round" stroke="rgb(0%, 0%, 0%)" stroke-opacity="1" stroke-miterlimit="10" d="M 385.972835 277.37026 L 385.972835 414.05696 L 414.537151 414.05696 L 414.537151 277.37026 L 385.972835 277.37026 " transform="matrix(0.0999663, 0, 0, -0.0999663, 0.0485393, 177.88002)"/>
<path fill-rule="nonzero" fill="rgb(50%, 50%, 50%)" fill-opacity="1" d="M 41.488281 150.152344 L 44.347656 150.152344 L 44.347656 134.9375 L 41.488281 134.9375 Z M 41.488281 150.152344 "/>
<path fill="none" stroke-width="5" stroke-linecap="round" stroke-linejoin="round" stroke="rgb(0%, 0%, 0%)" stroke-opacity="1" stroke-miterlimit="10" d="M 414.537151 277.37026 L 414.537151 429.570001 L 443.140542 429.570001 L 443.140542 277.37026 L 414.537151 277.37026 " transform="matrix(0.0999663, 0, 0, -0.0999663, 0.0485393, 177.88002)"/>
<path fill-rule="nonzero" fill="rgb(50%, 50%, 50%)" fill-opacity="1" d="M 44.347656 150.152344 L 47.203125 150.152344 L 47.203125 133.8125 L 44.347656 133.8125 Z M 44.347656 150.152344 "/>
<path fill="none" stroke-width="5" stroke-linecap="round" stroke-linejoin="round" stroke="rgb(0%, 0%, 0%)" stroke-opacity="1" stroke-miterlimit="10" d="M 443.140542 277.37026 L 443.140542 440.823795 L 471.704858 440.823795 L 471.704858 277.37026 L 443.140542 277.37026 " transform="matrix(0.0999663, 0, 0, -0.0999663, 0.0485393, 177.88002)"/>
<path fill-rule="nonzero" fill="rgb(50%, 50%, 50%)" fill-opacity="1" d="M 47.203125 150.152344 L 50.0625 150.152344 L 50.0625 133.125 L 47.203125 133.125 Z M 47.203125 150.152344 "/>
<path fill="none" stroke-width="5" stroke-linecap="round" stroke-linejoin="round" stroke="rgb(0%, 0%, 0%)" stroke-opacity="1" stroke-miterlimit="10" d="M 471.704858 277.37026 L 471.704858 447.701113 L 500.30825 447.701113 L 500.30825 277.37026 L 471.704858 277.37026 " transform="matrix(0.0999663, 0, 0, -0.0999663, 0.0485393, 177.88002)"/>
<path fill-rule="nonzero" fill="rgb(50%, 50%, 50%)" fill-opacity="1" d="M 50.0625 150.152344 L 52.921875 150.152344 L 52.921875 132.894531 L 50.0625 132.894531 Z M 50.0625 150.152344 "/>
<path fill="none" stroke-width="5" stroke-linecap="round" stroke-linejoin="round" stroke="rgb(0%, 0%, 0%)" stroke-opacity="1" stroke-miterlimit="10" d="M 500.30825 277.37026 L 500.30825 450.006577 L 528.911642 450.006577 L 528.911642 277.37026 L 500.30825 277.37026 " transform="matrix(0.0999663, 0, 0, -0.0999663, 0.0485393, 177.88002)"/>
<path fill-rule="nonzero" fill="rgb(50%, 50%, 50%)" fill-opacity="1" d="M 52.921875 150.152344 L 55.777344 150.152344 L 55.777344 132.894531 L 52.921875 132.894531 Z M 52.921875 150.152344 "/>
<path fill="none" stroke-width="5" stroke-linecap="round" stroke-linejoin="round" stroke="rgb(0%, 0%, 0%)" stroke-opacity="1" stroke-miterlimit="10" d="M 528.911642 277.37026 L 528.911642 450.006577 L 557.475957 450.006577 L 557.475957 277.37026 L 528.911642 277.37026 " transform="matrix(0.0999663, 0, 0, -0.0999663, 0.0485393, 177.88002)"/>
<path fill-rule="nonzero" fill="rgb(50%, 50%, 50%)" fill-opacity="1" d="M 55.777344 150.152344 L 58.632812 150.152344 L 58.632812 133.125 L 55.777344 133.125 Z M 55.777344 150.152344 "/>
<path fill="none" stroke-width="5" stroke-linecap="round" stroke-linejoin="round" stroke="rgb(0%, 0%, 0%)" stroke-opacity="1" stroke-miterlimit="10" d="M 557.475957 277.37026 L 557.475957 447.701113 L 586.040273 447.701113 L 586.040273 277.37026 L 557.475957 277.37026 " transform="matrix(0.0999663, 0, 0, -0.0999663, 0.0485393, 177.88002)"/>
<path fill-rule="nonzero" fill="rgb(50%, 50%, 50%)" fill-opacity="1" d="M 58.632812 150.152344 L 61.492188 150.152344 L 61.492188 133.8125 L 58.632812 133.8125 Z M 58.632812 150.152344 "/>
<path fill="none" stroke-width="5" stroke-linecap="round" stroke-linejoin="round" stroke="rgb(0%, 0%, 0%)" stroke-opacity="1" stroke-miterlimit="10" d="M 586.040273 277.37026 L 586.040273 440.823795 L 614.643665 440.823795 L 614.643665 277.37026 L 586.040273 277.37026 " transform="matrix(0.0999663, 0, 0, -0.0999663, 0.0485393, 177.88002)"/>
<path fill-rule="nonzero" fill="rgb(50%, 50%, 50%)" fill-opacity="1" d="M 61.492188 150.152344 L 64.351562 150.152344 L 64.351562 134.9375 L 61.492188 134.9375 Z M 61.492188 150.152344 "/>
<path fill="none" stroke-width="5" stroke-linecap="round" stroke-linejoin="round" stroke="rgb(0%, 0%, 0%)" stroke-opacity="1" stroke-miterlimit="10" d="M 614.643665 277.37026 L 614.643665 429.570001 L 643.247057 429.570001 L 643.247057 277.37026 L 614.643665 277.37026 " transform="matrix(0.0999663, 0, 0, -0.0999663, 0.0485393, 177.88002)"/>
<path fill-rule="nonzero" fill="rgb(50%, 50%, 50%)" fill-opacity="1" d="M 64.351562 150.152344 L 67.210938 150.152344 L 67.210938 136.488281 L 64.351562 136.488281 Z M 64.351562 150.152344 "/>
<path fill="none" stroke-width="5" stroke-linecap="round" stroke-linejoin="round" stroke="rgb(0%, 0%, 0%)" stroke-opacity="1" stroke-miterlimit="10" d="M 643.247057 277.37026 L 643.247057 414.05696 L 671.850448 414.05696 L 671.850448 277.37026 L 643.247057 277.37026 " transform="matrix(0.0999663, 0, 0, -0.0999663, 0.0485393, 177.88002)"/>
<path fill-rule="nonzero" fill="rgb(50%, 50%, 50%)" fill-opacity="1" d="M 67.210938 150.152344 L 70.066406 150.152344 L 70.066406 138.433594 L 67.210938 138.433594 Z M 67.210938 150.152344 "/>
<path fill="none" stroke-width="5" stroke-linecap="round" stroke-linejoin="round" stroke="rgb(0%, 0%, 0%)" stroke-opacity="1" stroke-miterlimit="10" d="M 671.850448 277.37026 L 671.850448 394.597275 L 700.414764 394.597275 L 700.414764 277.37026 L 671.850448 277.37026 " transform="matrix(0.0999663, 0, 0, -0.0999663, 0.0485393, 177.88002)"/>
<path fill-rule="nonzero" fill="rgb(50%, 50%, 50%)" fill-opacity="1" d="M 70.066406 150.152344 L 72.921875 150.152344 L 72.921875 140.738281 L 70.066406 140.738281 Z M 70.066406 150.152344 "/>
<path fill="none" stroke-width="5" stroke-linecap="round" stroke-linejoin="round" stroke="rgb(0%, 0%, 0%)" stroke-opacity="1" stroke-miterlimit="10" d="M 700.414764 277.37026 L 700.414764 371.542629 L 728.97908 371.542629 L 728.97908 277.37026 L 700.414764 277.37026 " transform="matrix(0.0999663, 0, 0, -0.0999663, 0.0485393, 177.88002)"/>
<path fill-rule="nonzero" fill="rgb(50%, 50%, 50%)" fill-opacity="1" d="M 72.921875 150.152344 L 75.78125 150.152344 L 75.78125 143.351562 L 72.921875 143.351562 Z M 72.921875 150.152344 "/>
<path fill="none" stroke-width="5" stroke-linecap="round" stroke-linejoin="round" stroke="rgb(0%, 0%, 0%)" stroke-opacity="1" stroke-miterlimit="10" d="M 728.97908 277.37026 L 728.97908 345.401005 L 757.582472 345.401005 L 757.582472 277.37026 L 728.97908 277.37026 " transform="matrix(0.0999663, 0, 0, -0.0999663, 0.0485393, 177.88002)"/>
<path fill-rule="nonzero" fill="rgb(50%, 50%, 50%)" fill-opacity="1" d="M 75.78125 150.152344 L 78.640625 150.152344 L 78.640625 146.226562 L 75.78125 146.226562 Z M 75.78125 150.152344 "/>
<path fill="none" stroke-width="5" stroke-linecap="round" stroke-linejoin="round" stroke="rgb(0%, 0%, 0%)" stroke-opacity="1" stroke-miterlimit="10" d="M 757.582472 277.37026 L 757.582472 316.64131 L 786.185863 316.64131 L 786.185863 277.37026 L 757.582472 277.37026 " transform="matrix(0.0999663, 0, 0, -0.0999663, 0.0485393, 177.88002)"/>
<path fill-rule="nonzero" fill="rgb(50%, 50%, 50%)" fill-opacity="1" d="M 78.640625 150.152344 L 81.496094 150.152344 L 81.496094 149.296875 L 78.640625 149.296875 Z M 78.640625 150.152344 "/>
<path fill="none" stroke-width="5" stroke-linecap="round" stroke-linejoin="round" stroke="rgb(0%, 0%, 0%)" stroke-opacity="1" stroke-miterlimit="10" d="M 786.185863 277.37026 L 786.185863 285.927832 L 814.750179 285.927832 L 814.750179 277.37026 L 786.185863 277.37026 " transform="matrix(0.0999663, 0, 0, -0.0999663, 0.0485393, 177.88002)"/>
<path fill-rule="nonzero" fill="rgb(50%, 50%, 50%)" fill-opacity="1" d="M 81.496094 152.496094 L 84.355469 152.496094 L 84.355469 150.152344 L 81.496094 150.152344 Z M 81.496094 152.496094 "/>
<path fill="none" stroke-width="5" stroke-linecap="round" stroke-linejoin="round" stroke="rgb(0%, 0%, 0%)" stroke-opacity="1" stroke-miterlimit="10" d="M 814.750179 277.37026 L 814.750179 253.924857 L 843.353571 253.924857 L 843.353571 277.37026 L 814.750179 277.37026 " transform="matrix(0.0999663, 0, 0, -0.0999663, 0.0485393, 177.88002)"/>
<path fill-rule="nonzero" fill="rgb(50%, 50%, 50%)" fill-opacity="1" d="M 84.355469 155.746094 L 87.210938 155.746094 L 87.210938 150.152344 L 84.355469 150.152344 Z M 84.355469 155.746094 "/>
<path fill="none" stroke-width="5" stroke-linecap="round" stroke-linejoin="round" stroke="rgb(0%, 0%, 0%)" stroke-opacity="1" stroke-miterlimit="10" d="M 843.353571 277.37026 L 843.353571 221.413899 L 871.917887 221.413899 L 871.917887 277.37026 L 843.353571 277.37026 " transform="matrix(0.0999663, 0, 0, -0.0999663, 0.0485393, 177.88002)"/>
<path fill-rule="nonzero" fill="rgb(50%, 50%, 50%)" fill-opacity="1" d="M 87.210938 158.960938 L 90.070312 158.960938 L 90.070312 150.152344 L 87.210938 150.152344 Z M 87.210938 158.960938 "/>
<path fill="none" stroke-width="5" stroke-linecap="round" stroke-linejoin="round" stroke="rgb(0%, 0%, 0%)" stroke-opacity="1" stroke-miterlimit="10" d="M 871.917887 277.37026 L 871.917887 189.254621 L 900.521278 189.254621 L 900.521278 277.37026 L 871.917887 277.37026 " transform="matrix(0.0999663, 0, 0, -0.0999663, 0.0485393, 177.88002)"/>
<path fill-rule="nonzero" fill="rgb(50%, 50%, 50%)" fill-opacity="1" d="M 90.070312 162.046875 L 92.929688 162.046875 L 92.929688 150.152344 L 90.070312 150.152344 Z M 90.070312 162.046875 "/>
<path fill="none" stroke-width="5" stroke-linecap="round" stroke-linejoin="round" stroke="rgb(0%, 0%, 0%)" stroke-opacity="1" stroke-miterlimit="10" d="M 900.521278 277.37026 L 900.521278 158.38484 L 929.12467 158.38484 L 929.12467 277.37026 L 900.521278 277.37026 " transform="matrix(0.0999663, 0, 0, -0.0999663, 0.0485393, 177.88002)"/>
<path fill-rule="nonzero" fill="rgb(50%, 50%, 50%)" fill-opacity="1" d="M 92.929688 164.898438 L 95.785156 164.898438 L 95.785156 150.152344 L 92.929688 150.152344 Z M 92.929688 164.898438 "/>
<path fill="none" stroke-width="5" stroke-linecap="round" stroke-linejoin="round" stroke="rgb(0%, 0%, 0%)" stroke-opacity="1" stroke-miterlimit="10" d="M 929.12467 277.37026 L 929.12467 129.8596 L 957.688986 129.8596 L 957.688986 277.37026 L 929.12467 277.37026 " transform="matrix(0.0999663, 0, 0, -0.0999663, 0.0485393, 177.88002)"/>
<path fill-rule="nonzero" fill="rgb(50%, 50%, 50%)" fill-opacity="1" d="M 95.785156 167.410156 L 98.644531 167.410156 L 98.644531 150.152344 L 95.785156 150.152344 Z M 95.785156 167.410156 "/>
<path fill="none" stroke-width="5" stroke-linecap="round" stroke-linejoin="round" stroke="rgb(0%, 0%, 0%)" stroke-opacity="1" stroke-miterlimit="10" d="M 957.688986 277.37026 L 957.688986 104.733943 L 986.292377 104.733943 L 986.292377 277.37026 L 957.688986 277.37026 " transform="matrix(0.0999663, 0, 0, -0.0999663, 0.0485393, 177.88002)"/>
<path fill-rule="nonzero" fill="rgb(50%, 50%, 50%)" fill-opacity="1" d="M 98.644531 169.460938 L 101.5 169.460938 L 101.5 150.152344 L 98.644531 150.152344 Z M 98.644531 169.460938 "/>
<path fill="none" stroke-width="5" stroke-linecap="round" stroke-linejoin="round" stroke="rgb(0%, 0%, 0%)" stroke-opacity="1" stroke-miterlimit="10" d="M 986.292377 277.37026 L 986.292377 84.219216 L 1014.856693 84.219216 L 1014.856693 277.37026 L 986.292377 277.37026 " transform="matrix(0.0999663, 0, 0, -0.0999663, 0.0485393, 177.88002)"/>
<path fill-rule="nonzero" fill="rgb(50%, 50%, 50%)" fill-opacity="1" d="M 101.5 170.921875 L 104.359375 170.921875 L 104.359375 150.152344 L 101.5 150.152344 Z M 101.5 170.921875 "/>
<path fill="none" stroke-width="5" stroke-linecap="round" stroke-linejoin="round" stroke="rgb(0%, 0%, 0%)" stroke-opacity="1" stroke-miterlimit="10" d="M 1014.856693 277.37026 L 1014.856693 69.604915 L 1043.460085 69.604915 L 1043.460085 277.37026 L 1014.856693 277.37026 " transform="matrix(0.0999663, 0, 0, -0.0999663, 0.0485393, 177.88002)"/>
<path fill-rule="nonzero" fill="rgb(50%, 50%, 50%)" fill-opacity="1" d="M 104.359375 171.535156 L 107.214844 171.535156 L 107.214844 150.152344 L 104.359375 150.152344 Z M 104.359375 171.535156 "/>
<path fill="none" stroke-width="5" stroke-linecap="round" stroke-linejoin="round" stroke="rgb(0%, 0%, 0%)" stroke-opacity="1" stroke-miterlimit="10" d="M 1043.460085 277.37026 L 1043.460085 63.470034 L 1072.063476 63.470034 L 1072.063476 277.37026 L 1043.460085 277.37026 " transform="matrix(0.0999663, 0, 0, -0.0999663, 0.0485393, 177.88002)"/>
<path fill-rule="nonzero" fill="rgb(50%, 50%, 50%)" fill-opacity="1" d="M 107.21875 170.390625 L 110.074219 170.390625 L 110.074219 150.152344 L 107.21875 150.152344 Z M 107.21875 170.390625 "/>
<path fill="none" stroke-width="5" stroke-linecap="round" stroke-linejoin="round" stroke="rgb(0%, 0%, 0%)" stroke-opacity="1" stroke-miterlimit="10" d="M 1072.063476 277.37026 L 1072.063476 74.919206 L 1100.627792 74.919206 L 1100.627792 277.37026 L 1072.063476 277.37026 " transform="matrix(0.0999663, 0, 0, -0.0999663, 0.0485393, 177.88002)"/>
<path fill-rule="nonzero" fill="rgb(50%, 50%, 50%)" fill-opacity="1" d="M 110.074219 168.074219 L 112.933594 168.074219 L 112.933594 150.152344 L 110.074219 150.152344 Z M 110.074219 168.074219 "/>
<path fill="none" stroke-width="5" stroke-linecap="round" stroke-linejoin="round" stroke="rgb(0%, 0%, 0%)" stroke-opacity="1" stroke-miterlimit="10" d="M 1100.627792 277.37026 L 1100.627792 98.091079 L 1129.231184 98.091079 L 1129.231184 277.37026 L 1100.627792 277.37026 " transform="matrix(0.0999663, 0, 0, -0.0999663, 0.0485393, 177.88002)"/>
<path fill-rule="nonzero" fill="rgb(50%, 50%, 50%)" fill-opacity="1" d="M 112.933594 164.410156 L 115.789062 164.410156 L 115.789062 150.152344 L 112.933594 150.152344 Z M 112.933594 164.410156 "/>
<path fill="none" stroke-width="5" stroke-linecap="round" stroke-linejoin="round" stroke="rgb(0%, 0%, 0%)" stroke-opacity="1" stroke-miterlimit="10" d="M 1129.231184 277.37026 L 1129.231184 134.744059 L 1157.7955 134.744059 L 1157.7955 277.37026 L 1129.231184 277.37026 " transform="matrix(0.0999663, 0, 0, -0.0999663, 0.0485393, 177.88002)"/>
<path fill-rule="nonzero" fill="rgb(50%, 50%, 50%)" fill-opacity="1" d="M 115.789062 159.222656 L 118.648438 159.222656 L 118.648438 150.152344 L 115.789062 150.152344 Z M 115.789062 159.222656 "/>
<path fill="none" stroke-width="5" stroke-linecap="round" stroke-linejoin="round" stroke="rgb(0%, 0%, 0%)" stroke-opacity="1" stroke-miterlimit="10" d="M 1157.7955 277.37026 L 1157.7955 186.636551 L 1186.398891 186.636551 L 1186.398891 277.37026 L 1157.7955 277.37026 " transform="matrix(0.0999663, 0, 0, -0.0999663, 0.0485393, 177.88002)"/>
<path fill-rule="nonzero" fill="rgb(50%, 50%, 50%)" fill-opacity="1" d="M 118.648438 152.335938 L 121.507812 152.335938 L 121.507812 150.152344 L 118.648438 150.152344 Z M 118.648438 152.335938 "/>
<path fill="none" stroke-width="5" stroke-linecap="round" stroke-linejoin="round" stroke="rgb(0%, 0%, 0%)" stroke-opacity="1" stroke-miterlimit="10" d="M 1186.398891 277.37026 L 1186.398891 255.52696 L 1214.963207 255.52696 L 1214.963207 277.37026 L 1186.398891 277.37026 " transform="matrix(0.0999663, 0, 0, -0.0999663, 0.0485393, 177.88002)"/>
<path fill-rule="nonzero" fill="rgb(50%, 50%, 50%)" fill-opacity="1" d="M 121.503906 150.152344 L 124.363281 150.152344 L 124.363281 143.546875 L 121.503906 143.546875 Z M 121.503906 150.152344 "/>
<path fill="none" stroke-width="5" stroke-linecap="round" stroke-linejoin="round" stroke="rgb(0%, 0%, 0%)" stroke-opacity="1" stroke-miterlimit="10" d="M 1214.963207 277.37026 L 1214.963207 343.447221 L 1243.566599 343.447221 L 1243.566599 277.37026 L 1214.963207 277.37026 " transform="matrix(0.0999663, 0, 0, -0.0999663, 0.0485393, 177.88002)"/>
<path fill-rule="nonzero" fill="rgb(50%, 50%, 50%)" fill-opacity="1" d="M 124.363281 150.152344 L 127.222656 150.152344 L 127.222656 132.664062 L 124.363281 132.664062 Z M 124.363281 150.152344 "/>
<path fill="none" stroke-width="5" stroke-linecap="round" stroke-linejoin="round" stroke="rgb(0%, 0%, 0%)" stroke-opacity="1" stroke-miterlimit="10" d="M 1243.566599 277.37026 L 1243.566599 452.312042 L 1272.169991 452.312042 L 1272.169991 277.37026 L 1243.566599 277.37026 " transform="matrix(0.0999663, 0, 0, -0.0999663, 0.0485393, 177.88002)"/>
<path fill-rule="nonzero" fill="rgb(50%, 50%, 50%)" fill-opacity="1" d="M 127.222656 150.152344 L 130.078125 150.152344 L 130.078125 119.476562 L 127.222656 119.476562 Z M 127.222656 150.152344 "/>
<path fill="none" stroke-width="5" stroke-linecap="round" stroke-linejoin="round" stroke="rgb(0%, 0%, 0%)" stroke-opacity="1" stroke-miterlimit="10" d="M 1272.169991 277.37026 L 1272.169991 584.231509 L 1300.734307 584.231509 L 1300.734307 277.37026 L 1272.169991 277.37026 " transform="matrix(0.0999663, 0, 0, -0.0999663, 0.0485393, 177.88002)"/>
<path fill-rule="nonzero" fill="rgb(50%, 50%, 50%)" fill-opacity="1" d="M 130.078125 150.152344 L 132.9375 150.152344 L 132.9375 103.765625 L 130.078125 103.765625 Z M 130.078125 150.152344 "/>
<path fill="none" stroke-width="5" stroke-linecap="round" stroke-linejoin="round" stroke="rgb(0%, 0%, 0%)" stroke-opacity="1" stroke-miterlimit="10" d="M 1300.734307 277.37026 L 1300.734307 741.39386 L 1329.337698 741.39386 L 1329.337698 277.37026 L 1300.734307 277.37026 " transform="matrix(0.0999663, 0, 0, -0.0999663, 0.0485393, 177.88002)"/>
<path fill="none" stroke-width="5" stroke-linecap="round" stroke-linejoin="round" stroke="rgb(0%, 0%, 0%)" stroke-opacity="1" stroke-miterlimit="10" d="M 100.095222 104.733943 L 150.541914 151.429371 L 205.560459 211.332375 L 257.218497 269.945883 L 306.922751 323.59678 L 359.792135 373.652715 L 410.707735 411.634268 L 438.529613 427.342688 L 451.307358 433.204039 L 464.82754 438.51833 L 477.253604 442.504048 L 490.930089 445.942708 L 496.908667 447.114978 L 503.356152 448.170021 L 509.412881 448.912459 L 515.000702 449.459518 L 518.243983 449.693972 L 521.213734 449.850275 L 522.854912 449.88935 L 523.714577 449.928426 L 524.613318 449.928426 L 526.293572 449.967502 L 527.856598 450.006577 L 530.787274 450.006577 L 532.233074 449.967502 L 533.522571 449.928426 L 535.085598 449.88935 L 536.726776 449.811199 L 539.774678 449.654896 L 543.017959 449.420442 L 546.573845 449.107837 L 553.84192 448.248172 L 560.562936 447.193129 L 566.854119 445.942708 L 579.670939 442.777578 L 593.191121 438.440179 L 617.339886 428.280504 L 643.12983 414.096035 L 667.122292 398.035934 L 718.076968 355.716982 L 772.274924 301.089193 L 824.480021 242.905518 L 874.692259 186.206719 L 928.147778 130.797416 L 954.719235 107.156635 L 979.571362 88.556615 L 1003.446597 74.684752 L 1016.810477 68.862477 L 1029.041162 64.95491 " transform="matrix(0.0999663, 0, 0, -0.0999663, 0.0485393, 177.88002)"/>
<path fill="none" stroke-width="5" stroke-linecap="round" stroke-linejoin="round" stroke="rgb(0%, 0%, 0%)" stroke-opacity="1" stroke-miterlimit="10" d="M 1029.041162 64.95491 L 1035.29327 63.50911 L 1038.731929 62.883899 L 1041.936134 62.375915 L 1044.94496 62.06331 L 1046.547063 61.907007 L 1048.227317 61.78978 L 1049.634041 61.711629 L 1051.157992 61.633478 L 1052.564716 61.594402 L 1055.573543 61.594402 L 1056.550435 61.633478 L 1057.4101 61.633478 L 1059.012202 61.711629 L 1060.731532 61.828856 L 1063.701283 62.102386 L 1066.983639 62.532218 L 1070.461374 63.157429 L 1074.212638 63.938942 L 1080.97273 65.85365 L 1087.459291 68.276342 L 1093.51602 71.011639 L 1107.192505 79.139378 L 1120.517309 89.728885 L 1134.740854 104.108733 L 1162.679959 142.481042 L 1189.016961 192.185296 L 1215.197661 256.113095 L 1239.307351 329.028298 L 1290.809086 535.699525 L 1340.357037 809.229226 L 1343.639394 830.13471 " transform="matrix(0.0999663, 0, 0, -0.0999663, 0.0485393, 177.88002)"/>
<path fill="none" stroke-width="2.5" stroke-linecap="round" stroke-linejoin="round" stroke="rgb(0%, 0%, 0%)" stroke-opacity="1" stroke-miterlimit="10" d="M 1505.295447 277.37026 L 2811.009013 277.37026 " transform="matrix(0.0999663, 0, 0, -0.0999663, 0.0485393, 177.88002)"/>
<path fill="none" stroke-width="2.5" stroke-linecap="round" stroke-linejoin="round" stroke="rgb(0%, 0%, 0%)" stroke-opacity="1" stroke-miterlimit="10" d="M 1965.177026 42.369171 L 1965.177026 849.320865 " transform="matrix(0.0999663, 0, 0, -0.0999663, 0.0485393, 177.88002)"/>
<path fill-rule="nonzero" fill="rgb(50%, 50%, 50%)" fill-opacity="1" d="M 153.632812 165.5625 L 155.777344 165.5625 L 155.777344 150.152344 L 153.632812 150.152344 Z M 153.632812 165.5625 "/>
<path fill="none" stroke-width="5" stroke-linecap="round" stroke-linejoin="round" stroke="rgb(0%, 0%, 0%)" stroke-opacity="1" stroke-miterlimit="10" d="M 1536.360606 277.37026 L 1536.360606 123.216736 L 1557.81315 123.216736 L 1557.81315 277.37026 L 1536.360606 277.37026 " transform="matrix(0.0999663, 0, 0, -0.0999663, 0.0485393, 177.88002)"/>
<path fill-rule="nonzero" fill="rgb(50%, 50%, 50%)" fill-opacity="1" d="M 155.777344 163.507812 L 157.921875 163.507812 L 157.921875 150.152344 L 155.777344 150.152344 Z M 155.777344 163.507812 "/>
<path fill="none" stroke-width="5" stroke-linecap="round" stroke-linejoin="round" stroke="rgb(0%, 0%, 0%)" stroke-opacity="1" stroke-miterlimit="10" d="M 1557.81315 277.37026 L 1557.81315 143.770539 L 1579.265693 143.770539 L 1579.265693 277.37026 L 1557.81315 277.37026 " transform="matrix(0.0999663, 0, 0, -0.0999663, 0.0485393, 177.88002)"/>
<path fill-rule="nonzero" fill="rgb(50%, 50%, 50%)" fill-opacity="1" d="M 157.921875 161.292969 L 160.0625 161.292969 L 160.0625 150.152344 L 157.921875 150.152344 Z M 157.921875 161.292969 "/>
<path fill="none" stroke-width="5" stroke-linecap="round" stroke-linejoin="round" stroke="rgb(0%, 0%, 0%)" stroke-opacity="1" stroke-miterlimit="10" d="M 1579.265693 277.37026 L 1579.265693 165.926445 L 1600.718237 165.926445 L 1600.718237 277.37026 L 1579.265693 277.37026 " transform="matrix(0.0999663, 0, 0, -0.0999663, 0.0485393, 177.88002)"/>
<path fill-rule="nonzero" fill="rgb(50%, 50%, 50%)" fill-opacity="1" d="M 160.066406 158.960938 L 162.207031 158.960938 L 162.207031 150.152344 L 160.066406 150.152344 Z M 160.066406 158.960938 "/>
<path fill="none" stroke-width="5" stroke-linecap="round" stroke-linejoin="round" stroke="rgb(0%, 0%, 0%)" stroke-opacity="1" stroke-miterlimit="10" d="M 1600.718237 277.37026 L 1600.718237 189.254621 L 1622.131705 189.254621 L 1622.131705 277.37026 L 1600.718237 277.37026 " transform="matrix(0.0999663, 0, 0, -0.0999663, 0.0485393, 177.88002)"/>
<path fill-rule="nonzero" fill="rgb(50%, 50%, 50%)" fill-opacity="1" d="M 162.207031 156.558594 L 164.351562 156.558594 L 164.351562 150.152344 L 162.207031 150.152344 Z M 162.207031 156.558594 "/>
<path fill="none" stroke-width="5" stroke-linecap="round" stroke-linejoin="round" stroke="rgb(0%, 0%, 0%)" stroke-opacity="1" stroke-miterlimit="10" d="M 1622.131705 277.37026 L 1622.131705 213.286159 L 1643.584249 213.286159 L 1643.584249 277.37026 L 1622.131705 277.37026 " transform="matrix(0.0999663, 0, 0, -0.0999663, 0.0485393, 177.88002)"/>
<path fill-rule="nonzero" fill="rgb(50%, 50%, 50%)" fill-opacity="1" d="M 164.351562 154.121094 L 166.492188 154.121094 L 166.492188 150.152344 L 164.351562 150.152344 Z M 164.351562 154.121094 "/>
<path fill="none" stroke-width="5" stroke-linecap="round" stroke-linejoin="round" stroke="rgb(0%, 0%, 0%)" stroke-opacity="1" stroke-miterlimit="10" d="M 1643.584249 277.37026 L 1643.584249 237.669378 L 1665.036793 237.669378 L 1665.036793 277.37026 L 1643.584249 277.37026 " transform="matrix(0.0999663, 0, 0, -0.0999663, 0.0485393, 177.88002)"/>
<path fill-rule="nonzero" fill="rgb(50%, 50%, 50%)" fill-opacity="1" d="M 166.496094 151.6875 L 168.636719 151.6875 L 168.636719 150.152344 L 166.496094 150.152344 Z M 166.496094 151.6875 "/>
<path fill="none" stroke-width="5" stroke-linecap="round" stroke-linejoin="round" stroke="rgb(0%, 0%, 0%)" stroke-opacity="1" stroke-miterlimit="10" d="M 1665.036793 277.37026 L 1665.036793 262.013521 L 1686.450261 262.013521 L 1686.450261 277.37026 L 1665.036793 277.37026 " transform="matrix(0.0999663, 0, 0, -0.0999663, 0.0485393, 177.88002)"/>
<path fill-rule="nonzero" fill="rgb(50%, 50%, 50%)" fill-opacity="1" d="M 168.636719 150.152344 L 170.78125 150.152344 L 170.78125 149.296875 L 168.636719 149.296875 Z M 168.636719 150.152344 "/>
<path fill="none" stroke-width="5" stroke-linecap="round" stroke-linejoin="round" stroke="rgb(0%, 0%, 0%)" stroke-opacity="1" stroke-miterlimit="10" d="M 1686.450261 277.37026 L 1686.450261 285.927832 L 1707.902804 285.927832 L 1707.902804 277.37026 L 1686.450261 277.37026 " transform="matrix(0.0999663, 0, 0, -0.0999663, 0.0485393, 177.88002)"/>
<path fill-rule="nonzero" fill="rgb(50%, 50%, 50%)" fill-opacity="1" d="M 170.78125 150.152344 L 172.921875 150.152344 L 172.921875 146.976562 L 170.78125 146.976562 Z M 170.78125 150.152344 "/>
<path fill="none" stroke-width="5" stroke-linecap="round" stroke-linejoin="round" stroke="rgb(0%, 0%, 0%)" stroke-opacity="1" stroke-miterlimit="10" d="M 1707.902804 277.37026 L 1707.902804 309.138781 L 1729.355348 309.138781 L 1729.355348 277.37026 L 1707.902804 277.37026 " transform="matrix(0.0999663, 0, 0, -0.0999663, 0.0485393, 177.88002)"/>
<path fill-rule="nonzero" fill="rgb(50%, 50%, 50%)" fill-opacity="1" d="M 172.925781 150.152344 L 175.066406 150.152344 L 175.066406 144.761719 L 172.925781 144.761719 Z M 172.925781 150.152344 "/>
<path fill="none" stroke-width="5" stroke-linecap="round" stroke-linejoin="round" stroke="rgb(0%, 0%, 0%)" stroke-opacity="1" stroke-miterlimit="10" d="M 1729.355348 277.37026 L 1729.355348 331.294687 L 1750.768816 331.294687 L 1750.768816 277.37026 L 1729.355348 277.37026 " transform="matrix(0.0999663, 0, 0, -0.0999663, 0.0485393, 177.88002)"/>
<path fill-rule="nonzero" fill="rgb(50%, 50%, 50%)" fill-opacity="1" d="M 175.066406 150.152344 L 177.210938 150.152344 L 177.210938 142.671875 L 175.066406 142.671875 Z M 175.066406 150.152344 "/>
<path fill="none" stroke-width="5" stroke-linecap="round" stroke-linejoin="round" stroke="rgb(0%, 0%, 0%)" stroke-opacity="1" stroke-miterlimit="10" d="M 1750.768816 277.37026 L 1750.768816 352.200171 L 1772.22136 352.200171 L 1772.22136 277.37026 L 1750.768816 277.37026 " transform="matrix(0.0999663, 0, 0, -0.0999663, 0.0485393, 177.88002)"/>
<path fill-rule="nonzero" fill="rgb(50%, 50%, 50%)" fill-opacity="1" d="M 177.210938 150.152344 L 179.351562 150.152344 L 179.351562 140.738281 L 177.210938 140.738281 Z M 177.210938 150.152344 "/>
<path fill="none" stroke-width="5" stroke-linecap="round" stroke-linejoin="round" stroke="rgb(0%, 0%, 0%)" stroke-opacity="1" stroke-miterlimit="10" d="M 1772.22136 277.37026 L 1772.22136 371.542629 L 1793.634828 371.542629 L 1793.634828 277.37026 L 1772.22136 277.37026 " transform="matrix(0.0999663, 0, 0, -0.0999663, 0.0485393, 177.88002)"/>
<path fill-rule="nonzero" fill="rgb(50%, 50%, 50%)" fill-opacity="1" d="M 179.351562 150.152344 L 181.496094 150.152344 L 181.496094 138.980469 L 179.351562 138.980469 Z M 179.351562 150.152344 "/>
<path fill="none" stroke-width="5" stroke-linecap="round" stroke-linejoin="round" stroke="rgb(0%, 0%, 0%)" stroke-opacity="1" stroke-miterlimit="10" d="M 1793.634828 277.37026 L 1793.634828 389.126681 L 1815.087371 389.126681 L 1815.087371 277.37026 L 1793.634828 277.37026 " transform="matrix(0.0999663, 0, 0, -0.0999663, 0.0485393, 177.88002)"/>
<path fill-rule="nonzero" fill="rgb(50%, 50%, 50%)" fill-opacity="1" d="M 181.496094 150.152344 L 183.640625 150.152344 L 183.640625 137.414062 L 181.496094 137.414062 Z M 181.496094 150.152344 "/>
<path fill="none" stroke-width="5" stroke-linecap="round" stroke-linejoin="round" stroke="rgb(0%, 0%, 0%)" stroke-opacity="1" stroke-miterlimit="10" d="M 1815.087371 277.37026 L 1815.087371 404.796025 L 1836.539915 404.796025 L 1836.539915 277.37026 L 1815.087371 277.37026 " transform="matrix(0.0999663, 0, 0, -0.0999663, 0.0485393, 177.88002)"/>
<path fill-rule="nonzero" fill="rgb(50%, 50%, 50%)" fill-opacity="1" d="M 183.640625 150.152344 L 185.785156 150.152344 L 185.785156 136.0625 L 183.640625 136.0625 Z M 183.640625 150.152344 "/>
<path fill="none" stroke-width="5" stroke-linecap="round" stroke-linejoin="round" stroke="rgb(0%, 0%, 0%)" stroke-opacity="1" stroke-miterlimit="10" d="M 1836.539915 277.37026 L 1836.539915 418.316208 L 1857.953383 418.316208 L 1857.953383 277.37026 L 1836.539915 277.37026 " transform="matrix(0.0999663, 0, 0, -0.0999663, 0.0485393, 177.88002)"/>
<path fill-rule="nonzero" fill="rgb(50%, 50%, 50%)" fill-opacity="1" d="M 185.78125 150.152344 L 187.925781 150.152344 L 187.925781 134.9375 L 185.78125 134.9375 Z M 185.78125 150.152344 "/>
<path fill="none" stroke-width="5" stroke-linecap="round" stroke-linejoin="round" stroke="rgb(0%, 0%, 0%)" stroke-opacity="1" stroke-miterlimit="10" d="M 1857.953383 277.37026 L 1857.953383 429.570001 L 1879.445003 429.570001 L 1879.445003 277.37026 L 1857.953383 277.37026 " transform="matrix(0.0999663, 0, 0, -0.0999663, 0.0485393, 177.88002)"/>
<path fill-rule="nonzero" fill="rgb(50%, 50%, 50%)" fill-opacity="1" d="M 187.929688 150.152344 L 190.070312 150.152344 L 190.070312 134.050781 L 187.929688 134.050781 Z M 187.929688 150.152344 "/>
<path fill="none" stroke-width="5" stroke-linecap="round" stroke-linejoin="round" stroke="rgb(0%, 0%, 0%)" stroke-opacity="1" stroke-miterlimit="10" d="M 1879.445003 277.37026 L 1879.445003 438.440179 L 1900.858471 438.440179 L 1900.858471 277.37026 L 1879.445003 277.37026 " transform="matrix(0.0999663, 0, 0, -0.0999663, 0.0485393, 177.88002)"/>
<path fill-rule="nonzero" fill="rgb(50%, 50%, 50%)" fill-opacity="1" d="M 190.070312 150.152344 L 192.214844 150.152344 L 192.214844 133.410156 L 190.070312 133.410156 Z M 190.070312 150.152344 "/>
<path fill="none" stroke-width="5" stroke-linecap="round" stroke-linejoin="round" stroke="rgb(0%, 0%, 0%)" stroke-opacity="1" stroke-miterlimit="10" d="M 1900.858471 277.37026 L 1900.858471 444.848589 L 1922.311014 444.848589 L 1922.311014 277.37026 L 1900.858471 277.37026 " transform="matrix(0.0999663, 0, 0, -0.0999663, 0.0485393, 177.88002)"/>
<path fill-rule="nonzero" fill="rgb(50%, 50%, 50%)" fill-opacity="1" d="M 192.214844 150.152344 L 194.355469 150.152344 L 194.355469 133.027344 L 192.214844 133.027344 Z M 192.214844 150.152344 "/>
<path fill="none" stroke-width="5" stroke-linecap="round" stroke-linejoin="round" stroke="rgb(0%, 0%, 0%)" stroke-opacity="1" stroke-miterlimit="10" d="M 1922.311014 277.37026 L 1922.311014 448.678005 L 1943.763558 448.678005 L 1943.763558 277.37026 L 1922.311014 277.37026 " transform="matrix(0.0999663, 0, 0, -0.0999663, 0.0485393, 177.88002)"/>
<path fill-rule="nonzero" fill="rgb(50%, 50%, 50%)" fill-opacity="1" d="M 194.359375 150.152344 L 196.5 150.152344 L 196.5 132.894531 L 194.359375 132.894531 Z M 194.359375 150.152344 "/>
<path fill="none" stroke-width="5" stroke-linecap="round" stroke-linejoin="round" stroke="rgb(0%, 0%, 0%)" stroke-opacity="1" stroke-miterlimit="10" d="M 1943.763558 277.37026 L 1943.763558 450.006577 L 1965.177026 450.006577 L 1965.177026 277.37026 L 1943.763558 277.37026 " transform="matrix(0.0999663, 0, 0, -0.0999663, 0.0485393, 177.88002)"/>
<path fill-rule="nonzero" fill="rgb(50%, 50%, 50%)" fill-opacity="1" d="M 196.5 150.152344 L 198.644531 150.152344 L 198.644531 132.894531 L 196.5 132.894531 Z M 196.5 150.152344 "/>
<path fill="none" stroke-width="5" stroke-linecap="round" stroke-linejoin="round" stroke="rgb(0%, 0%, 0%)" stroke-opacity="1" stroke-miterlimit="10" d="M 1965.177026 277.37026 L 1965.177026 450.006577 L 1986.62957 450.006577 L 1986.62957 277.37026 L 1965.177026 277.37026 " transform="matrix(0.0999663, 0, 0, -0.0999663, 0.0485393, 177.88002)"/>
<path fill-rule="nonzero" fill="rgb(50%, 50%, 50%)" fill-opacity="1" d="M 198.644531 150.152344 L 200.789062 150.152344 L 200.789062 133.027344 L 198.644531 133.027344 Z M 198.644531 150.152344 "/>
<path fill="none" stroke-width="5" stroke-linecap="round" stroke-linejoin="round" stroke="rgb(0%, 0%, 0%)" stroke-opacity="1" stroke-miterlimit="10" d="M 1986.62957 277.37026 L 1986.62957 448.678005 L 2008.082113 448.678005 L 2008.082113 277.37026 L 1986.62957 277.37026 " transform="matrix(0.0999663, 0, 0, -0.0999663, 0.0485393, 177.88002)"/>
<path fill-rule="nonzero" fill="rgb(50%, 50%, 50%)" fill-opacity="1" d="M 200.789062 150.152344 L 202.929688 150.152344 L 202.929688 133.410156 L 200.789062 133.410156 Z M 200.789062 150.152344 "/>
<path fill="none" stroke-width="5" stroke-linecap="round" stroke-linejoin="round" stroke="rgb(0%, 0%, 0%)" stroke-opacity="1" stroke-miterlimit="10" d="M 2008.082113 277.37026 L 2008.082113 444.848589 L 2029.495581 444.848589 L 2029.495581 277.37026 L 2008.082113 277.37026 " transform="matrix(0.0999663, 0, 0, -0.0999663, 0.0485393, 177.88002)"/>
<path fill-rule="nonzero" fill="rgb(50%, 50%, 50%)" fill-opacity="1" d="M 202.929688 150.152344 L 205.074219 150.152344 L 205.074219 134.050781 L 202.929688 134.050781 Z M 202.929688 150.152344 "/>
<path fill="none" stroke-width="5" stroke-linecap="round" stroke-linejoin="round" stroke="rgb(0%, 0%, 0%)" stroke-opacity="1" stroke-miterlimit="10" d="M 2029.495581 277.37026 L 2029.495581 438.440179 L 2050.948125 438.440179 L 2050.948125 277.37026 L 2029.495581 277.37026 " transform="matrix(0.0999663, 0, 0, -0.0999663, 0.0485393, 177.88002)"/>
<path fill-rule="nonzero" fill="rgb(50%, 50%, 50%)" fill-opacity="1" d="M 205.074219 150.152344 L 207.21875 150.152344 L 207.21875 134.9375 L 205.074219 134.9375 Z M 205.074219 150.152344 "/>
<path fill="none" stroke-width="5" stroke-linecap="round" stroke-linejoin="round" stroke="rgb(0%, 0%, 0%)" stroke-opacity="1" stroke-miterlimit="10" d="M 2050.948125 277.37026 L 2050.948125 429.570001 L 2072.400669 429.570001 L 2072.400669 277.37026 L 2050.948125 277.37026 " transform="matrix(0.0999663, 0, 0, -0.0999663, 0.0485393, 177.88002)"/>
<path fill-rule="nonzero" fill="rgb(50%, 50%, 50%)" fill-opacity="1" d="M 207.21875 150.152344 L 209.359375 150.152344 L 209.359375 136.0625 L 207.21875 136.0625 Z M 207.21875 150.152344 "/>
<path fill="none" stroke-width="5" stroke-linecap="round" stroke-linejoin="round" stroke="rgb(0%, 0%, 0%)" stroke-opacity="1" stroke-miterlimit="10" d="M 2072.400669 277.37026 L 2072.400669 418.316208 L 2093.814137 418.316208 L 2093.814137 277.37026 L 2072.400669 277.37026 " transform="matrix(0.0999663, 0, 0, -0.0999663, 0.0485393, 177.88002)"/>
<path fill-rule="nonzero" fill="rgb(50%, 50%, 50%)" fill-opacity="1" d="M 209.359375 150.152344 L 211.503906 150.152344 L 211.503906 137.414062 L 209.359375 137.414062 Z M 209.359375 150.152344 "/>
<path fill="none" stroke-width="5" stroke-linecap="round" stroke-linejoin="round" stroke="rgb(0%, 0%, 0%)" stroke-opacity="1" stroke-miterlimit="10" d="M 2093.814137 277.37026 L 2093.814137 404.796025 L 2115.26668 404.796025 L 2115.26668 277.37026 L 2093.814137 277.37026 " transform="matrix(0.0999663, 0, 0, -0.0999663, 0.0485393, 177.88002)"/>
<path fill-rule="nonzero" fill="rgb(50%, 50%, 50%)" fill-opacity="1" d="M 211.503906 150.152344 L 213.648438 150.152344 L 213.648438 138.980469 L 211.503906 138.980469 Z M 211.503906 150.152344 "/>
<path fill="none" stroke-width="5" stroke-linecap="round" stroke-linejoin="round" stroke="rgb(0%, 0%, 0%)" stroke-opacity="1" stroke-miterlimit="10" d="M 2115.26668 277.37026 L 2115.26668 389.126681 L 2136.719224 389.126681 L 2136.719224 277.37026 L 2115.26668 277.37026 " transform="matrix(0.0999663, 0, 0, -0.0999663, 0.0485393, 177.88002)"/>
<path fill-rule="nonzero" fill="rgb(50%, 50%, 50%)" fill-opacity="1" d="M 213.648438 150.152344 L 215.789062 150.152344 L 215.789062 140.738281 L 213.648438 140.738281 Z M 213.648438 150.152344 "/>
<path fill="none" stroke-width="5" stroke-linecap="round" stroke-linejoin="round" stroke="rgb(0%, 0%, 0%)" stroke-opacity="1" stroke-miterlimit="10" d="M 2136.719224 277.37026 L 2136.719224 371.542629 L 2158.132692 371.542629 L 2158.132692 277.37026 L 2136.719224 277.37026 " transform="matrix(0.0999663, 0, 0, -0.0999663, 0.0485393, 177.88002)"/>
<path fill-rule="nonzero" fill="rgb(50%, 50%, 50%)" fill-opacity="1" d="M 215.789062 150.152344 L 217.933594 150.152344 L 217.933594 142.671875 L 215.789062 142.671875 Z M 215.789062 150.152344 "/>
<path fill="none" stroke-width="5" stroke-linecap="round" stroke-linejoin="round" stroke="rgb(0%, 0%, 0%)" stroke-opacity="1" stroke-miterlimit="10" d="M 2158.132692 277.37026 L 2158.132692 352.200171 L 2179.585236 352.200171 L 2179.585236 277.37026 L 2158.132692 277.37026 " transform="matrix(0.0999663, 0, 0, -0.0999663, 0.0485393, 177.88002)"/>
<path fill-rule="nonzero" fill="rgb(50%, 50%, 50%)" fill-opacity="1" d="M 217.933594 150.152344 L 220.078125 150.152344 L 220.078125 144.761719 L 217.933594 144.761719 Z M 217.933594 150.152344 "/>
<path fill="none" stroke-width="5" stroke-linecap="round" stroke-linejoin="round" stroke="rgb(0%, 0%, 0%)" stroke-opacity="1" stroke-miterlimit="10" d="M 2179.585236 277.37026 L 2179.585236 331.294687 L 2201.03778 331.294687 L 2201.03778 277.37026 L 2179.585236 277.37026 " transform="matrix(0.0999663, 0, 0, -0.0999663, 0.0485393, 177.88002)"/>
<path fill-rule="nonzero" fill="rgb(50%, 50%, 50%)" fill-opacity="1" d="M 220.078125 150.152344 L 222.21875 150.152344 L 222.21875 146.976562 L 220.078125 146.976562 Z M 220.078125 150.152344 "/>
<path fill="none" stroke-width="5" stroke-linecap="round" stroke-linejoin="round" stroke="rgb(0%, 0%, 0%)" stroke-opacity="1" stroke-miterlimit="10" d="M 2201.03778 277.37026 L 2201.03778 309.138781 L 2222.451248 309.138781 L 2222.451248 277.37026 L 2201.03778 277.37026 " transform="matrix(0.0999663, 0, 0, -0.0999663, 0.0485393, 177.88002)"/>
<path fill-rule="nonzero" fill="rgb(50%, 50%, 50%)" fill-opacity="1" d="M 222.21875 150.152344 L 224.363281 150.152344 L 224.363281 149.296875 L 222.21875 149.296875 Z M 222.21875 150.152344 "/>
<path fill="none" stroke-width="5" stroke-linecap="round" stroke-linejoin="round" stroke="rgb(0%, 0%, 0%)" stroke-opacity="1" stroke-miterlimit="10" d="M 2222.451248 277.37026 L 2222.451248 285.927832 L 2243.903791 285.927832 L 2243.903791 277.37026 L 2222.451248 277.37026 " transform="matrix(0.0999663, 0, 0, -0.0999663, 0.0485393, 177.88002)"/>
<path fill-rule="nonzero" fill="rgb(50%, 50%, 50%)" fill-opacity="1" d="M 224.363281 151.6875 L 226.507812 151.6875 L 226.507812 150.152344 L 224.363281 150.152344 Z M 224.363281 151.6875 "/>
<path fill="none" stroke-width="5" stroke-linecap="round" stroke-linejoin="round" stroke="rgb(0%, 0%, 0%)" stroke-opacity="1" stroke-miterlimit="10" d="M 2243.903791 277.37026 L 2243.903791 262.013521 L 2265.356335 262.013521 L 2265.356335 277.37026 L 2243.903791 277.37026 " transform="matrix(0.0999663, 0, 0, -0.0999663, 0.0485393, 177.88002)"/>
<path fill-rule="nonzero" fill="rgb(50%, 50%, 50%)" fill-opacity="1" d="M 226.507812 154.121094 L 228.648438 154.121094 L 228.648438 150.152344 L 226.507812 150.152344 Z M 226.507812 154.121094 "/>
<path fill="none" stroke-width="5" stroke-linecap="round" stroke-linejoin="round" stroke="rgb(0%, 0%, 0%)" stroke-opacity="1" stroke-miterlimit="10" d="M 2265.356335 277.37026 L 2265.356335 237.669378 L 2286.808879 237.669378 L 2286.808879 277.37026 L 2265.356335 277.37026 " transform="matrix(0.0999663, 0, 0, -0.0999663, 0.0485393, 177.88002)"/>
<path fill-rule="nonzero" fill="rgb(50%, 50%, 50%)" fill-opacity="1" d="M 228.652344 156.558594 L 230.792969 156.558594 L 230.792969 150.152344 L 228.652344 150.152344 Z M 228.652344 156.558594 "/>
<path fill="none" stroke-width="5" stroke-linecap="round" stroke-linejoin="round" stroke="rgb(0%, 0%, 0%)" stroke-opacity="1" stroke-miterlimit="10" d="M 2286.808879 277.37026 L 2286.808879 213.286159 L 2308.222347 213.286159 L 2308.222347 277.37026 L 2286.808879 277.37026 " transform="matrix(0.0999663, 0, 0, -0.0999663, 0.0485393, 177.88002)"/>
<path fill-rule="nonzero" fill="rgb(50%, 50%, 50%)" fill-opacity="1" d="M 230.792969 158.960938 L 232.9375 158.960938 L 232.9375 150.152344 L 230.792969 150.152344 Z M 230.792969 158.960938 "/>
<path fill="none" stroke-width="5" stroke-linecap="round" stroke-linejoin="round" stroke="rgb(0%, 0%, 0%)" stroke-opacity="1" stroke-miterlimit="10" d="M 2308.222347 277.37026 L 2308.222347 189.254621 L 2329.67489 189.254621 L 2329.67489 277.37026 L 2308.222347 277.37026 " transform="matrix(0.0999663, 0, 0, -0.0999663, 0.0485393, 177.88002)"/>
<path fill-rule="nonzero" fill="rgb(50%, 50%, 50%)" fill-opacity="1" d="M 232.9375 161.292969 L 235.078125 161.292969 L 235.078125 150.152344 L 232.9375 150.152344 Z M 232.9375 161.292969 "/>
<path fill="none" stroke-width="5" stroke-linecap="round" stroke-linejoin="round" stroke="rgb(0%, 0%, 0%)" stroke-opacity="1" stroke-miterlimit="10" d="M 2329.67489 277.37026 L 2329.67489 165.926445 L 2351.088358 165.926445 L 2351.088358 277.37026 L 2329.67489 277.37026 " transform="matrix(0.0999663, 0, 0, -0.0999663, 0.0485393, 177.88002)"/>
<path fill-rule="nonzero" fill="rgb(50%, 50%, 50%)" fill-opacity="1" d="M 235.078125 163.507812 L 237.222656 163.507812 L 237.222656 150.152344 L 235.078125 150.152344 Z M 235.078125 163.507812 "/>
<path fill="none" stroke-width="5" stroke-linecap="round" stroke-linejoin="round" stroke="rgb(0%, 0%, 0%)" stroke-opacity="1" stroke-miterlimit="10" d="M 2351.088358 277.37026 L 2351.088358 143.770539 L 2372.540902 143.770539 L 2372.540902 277.37026 L 2351.088358 277.37026 " transform="matrix(0.0999663, 0, 0, -0.0999663, 0.0485393, 177.88002)"/>
<path fill-rule="nonzero" fill="rgb(50%, 50%, 50%)" fill-opacity="1" d="M 237.222656 165.5625 L 239.367188 165.5625 L 239.367188 150.152344 L 237.222656 150.152344 Z M 237.222656 165.5625 "/>
<path fill="none" stroke-width="5" stroke-linecap="round" stroke-linejoin="round" stroke="rgb(0%, 0%, 0%)" stroke-opacity="1" stroke-miterlimit="10" d="M 2372.540902 277.37026 L 2372.540902 123.216736 L 2393.993446 123.216736 L 2393.993446 277.37026 L 2372.540902 277.37026 " transform="matrix(0.0999663, 0, 0, -0.0999663, 0.0485393, 177.88002)"/>
<path fill-rule="nonzero" fill="rgb(50%, 50%, 50%)" fill-opacity="1" d="M 239.367188 167.410156 L 241.507812 167.410156 L 241.507812 150.152344 L 239.367188 150.152344 Z M 239.367188 167.410156 "/>
<path fill="none" stroke-width="5" stroke-linecap="round" stroke-linejoin="round" stroke="rgb(0%, 0%, 0%)" stroke-opacity="1" stroke-miterlimit="10" d="M 2393.993446 277.37026 L 2393.993446 104.733943 L 2415.406914 104.733943 L 2415.406914 277.37026 L 2393.993446 277.37026 " transform="matrix(0.0999663, 0, 0, -0.0999663, 0.0485393, 177.88002)"/>
<path fill-rule="nonzero" fill="rgb(50%, 50%, 50%)" fill-opacity="1" d="M 241.507812 168.996094 L 243.652344 168.996094 L 243.652344 150.152344 L 241.507812 150.152344 Z M 241.507812 168.996094 "/>
<path fill="none" stroke-width="5" stroke-linecap="round" stroke-linejoin="round" stroke="rgb(0%, 0%, 0%)" stroke-opacity="1" stroke-miterlimit="10" d="M 2415.406914 277.37026 L 2415.406914 88.869221 L 2436.859458 88.869221 L 2436.859458 277.37026 L 2415.406914 277.37026 " transform="matrix(0.0999663, 0, 0, -0.0999663, 0.0485393, 177.88002)"/>
<path fill-rule="nonzero" fill="rgb(50%, 50%, 50%)" fill-opacity="1" d="M 243.652344 170.273438 L 245.796875 170.273438 L 245.796875 150.152344 L 243.652344 150.152344 Z M 243.652344 170.273438 "/>
<path fill="none" stroke-width="5" stroke-linecap="round" stroke-linejoin="round" stroke="rgb(0%, 0%, 0%)" stroke-opacity="1" stroke-miterlimit="10" d="M 2436.859458 277.37026 L 2436.859458 76.091476 L 2458.312001 76.091476 L 2458.312001 277.37026 L 2436.859458 277.37026 " transform="matrix(0.0999663, 0, 0, -0.0999663, 0.0485393, 177.88002)"/>
<path fill-rule="nonzero" fill="rgb(50%, 50%, 50%)" fill-opacity="1" d="M 245.796875 171.179688 L 247.941406 171.179688 L 247.941406 150.152344 L 245.796875 150.152344 Z M 245.796875 171.179688 "/>
<path fill="none" stroke-width="5" stroke-linecap="round" stroke-linejoin="round" stroke="rgb(0%, 0%, 0%)" stroke-opacity="1" stroke-miterlimit="10" d="M 2458.312001 277.37026 L 2458.312001 67.02592 L 2479.764545 67.02592 L 2479.764545 277.37026 L 2458.312001 277.37026 " transform="matrix(0.0999663, 0, 0, -0.0999663, 0.0485393, 177.88002)"/>
<path fill-rule="nonzero" fill="rgb(50%, 50%, 50%)" fill-opacity="1" d="M 247.941406 171.65625 L 250.082031 171.65625 L 250.082031 150.152344 L 247.941406 150.152344 Z M 247.941406 171.65625 "/>
<path fill="none" stroke-width="5" stroke-linecap="round" stroke-linejoin="round" stroke="rgb(0%, 0%, 0%)" stroke-opacity="1" stroke-miterlimit="10" d="M 2479.764545 277.37026 L 2479.764545 62.258688 L 2501.217089 62.258688 L 2501.217089 277.37026 L 2479.764545 277.37026 " transform="matrix(0.0999663, 0, 0, -0.0999663, 0.0485393, 177.88002)"/>
<path fill-rule="nonzero" fill="rgb(50%, 50%, 50%)" fill-opacity="1" d="M 250.085938 171.101562 L 252.226562 171.101562 L 252.226562 150.152344 L 250.085938 150.152344 Z M 250.085938 171.101562 "/>
<path fill="none" stroke-width="5" stroke-linecap="round" stroke-linejoin="round" stroke="rgb(0%, 0%, 0%)" stroke-opacity="1" stroke-miterlimit="10" d="M 2501.217089 277.37026 L 2501.217089 67.807434 L 2522.630557 67.807434 L 2522.630557 277.37026 L 2501.217089 277.37026 " transform="matrix(0.0999663, 0, 0, -0.0999663, 0.0485393, 177.88002)"/>
<path fill-rule="nonzero" fill="rgb(50%, 50%, 50%)" fill-opacity="1" d="M 252.226562 169.929688 L 254.371094 169.929688 L 254.371094 150.152344 L 252.226562 150.152344 Z M 252.226562 169.929688 "/>
<path fill="none" stroke-width="5" stroke-linecap="round" stroke-linejoin="round" stroke="rgb(0%, 0%, 0%)" stroke-opacity="1" stroke-miterlimit="10" d="M 2522.630557 277.37026 L 2522.630557 79.530135 L 2544.0831 79.530135 L 2544.0831 277.37026 L 2522.630557 277.37026 " transform="matrix(0.0999663, 0, 0, -0.0999663, 0.0485393, 177.88002)"/>
<path fill-rule="nonzero" fill="rgb(50%, 50%, 50%)" fill-opacity="1" d="M 254.371094 168.074219 L 256.511719 168.074219 L 256.511719 150.152344 L 254.371094 150.152344 Z M 254.371094 168.074219 "/>
<path fill="none" stroke-width="5" stroke-linecap="round" stroke-linejoin="round" stroke="rgb(0%, 0%, 0%)" stroke-opacity="1" stroke-miterlimit="10" d="M 2544.0831 277.37026 L 2544.0831 98.091079 L 2565.535644 98.091079 L 2565.535644 277.37026 L 2544.0831 277.37026 " transform="matrix(0.0999663, 0, 0, -0.0999663, 0.0485393, 177.88002)"/>
<path fill-rule="nonzero" fill="rgb(50%, 50%, 50%)" fill-opacity="1" d="M 256.515625 165.460938 L 258.65625 165.460938 L 258.65625 150.152344 L 256.515625 150.152344 Z M 256.515625 165.460938 "/>
<path fill="none" stroke-width="5" stroke-linecap="round" stroke-linejoin="round" stroke="rgb(0%, 0%, 0%)" stroke-opacity="1" stroke-miterlimit="10" d="M 2565.535644 277.37026 L 2565.535644 124.232703 L 2586.949112 124.232703 L 2586.949112 277.37026 L 2565.535644 277.37026 " transform="matrix(0.0999663, 0, 0, -0.0999663, 0.0485393, 177.88002)"/>
<path fill-rule="nonzero" fill="rgb(50%, 50%, 50%)" fill-opacity="1" d="M 258.65625 162.015625 L 260.800781 162.015625 L 260.800781 150.152344 L 258.65625 150.152344 Z M 258.65625 162.015625 "/>
<path fill="none" stroke-width="5" stroke-linecap="round" stroke-linejoin="round" stroke="rgb(0%, 0%, 0%)" stroke-opacity="1" stroke-miterlimit="10" d="M 2586.949112 277.37026 L 2586.949112 158.697446 L 2608.401656 158.697446 L 2608.401656 277.37026 L 2586.949112 277.37026 " transform="matrix(0.0999663, 0, 0, -0.0999663, 0.0485393, 177.88002)"/>
<path fill-rule="nonzero" fill="rgb(50%, 50%, 50%)" fill-opacity="1" d="M 260.800781 157.667969 L 262.941406 157.667969 L 262.941406 150.152344 L 260.800781 150.152344 Z M 260.800781 157.667969 "/>
<path fill="none" stroke-width="5" stroke-linecap="round" stroke-linejoin="round" stroke="rgb(0%, 0%, 0%)" stroke-opacity="1" stroke-miterlimit="10" d="M 2608.401656 277.37026 L 2608.401656 202.188668 L 2629.854199 202.188668 L 2629.854199 277.37026 L 2608.401656 277.37026 " transform="matrix(0.0999663, 0, 0, -0.0999663, 0.0485393, 177.88002)"/>
<path fill-rule="nonzero" fill="rgb(50%, 50%, 50%)" fill-opacity="1" d="M 262.945312 152.335938 L 265.085938 152.335938 L 265.085938 150.152344 L 262.945312 150.152344 Z M 262.945312 152.335938 "/>
<path fill="none" stroke-width="5" stroke-linecap="round" stroke-linejoin="round" stroke="rgb(0%, 0%, 0%)" stroke-opacity="1" stroke-miterlimit="10" d="M 2629.854199 277.37026 L 2629.854199 255.52696 L 2651.267667 255.52696 L 2651.267667 277.37026 L 2629.854199 277.37026 " transform="matrix(0.0999663, 0, 0, -0.0999663, 0.0485393, 177.88002)"/>
<path fill-rule="nonzero" fill="rgb(50%, 50%, 50%)" fill-opacity="1" d="M 265.085938 150.152344 L 267.230469 150.152344 L 267.230469 145.933594 L 265.085938 145.933594 Z M 265.085938 150.152344 "/>
<path fill="none" stroke-width="5" stroke-linecap="round" stroke-linejoin="round" stroke="rgb(0%, 0%, 0%)" stroke-opacity="1" stroke-miterlimit="10" d="M 2651.267667 277.37026 L 2651.267667 319.571986 L 2672.720211 319.571986 L 2672.720211 277.37026 L 2651.267667 277.37026 " transform="matrix(0.0999663, 0, 0, -0.0999663, 0.0485393, 177.88002)"/>
<path fill-rule="nonzero" fill="rgb(50%, 50%, 50%)" fill-opacity="1" d="M 267.230469 150.152344 L 269.371094 150.152344 L 269.371094 138.382812 L 267.230469 138.382812 Z M 267.230469 150.152344 "/>
<path fill="none" stroke-width="5" stroke-linecap="round" stroke-linejoin="round" stroke="rgb(0%, 0%, 0%)" stroke-opacity="1" stroke-miterlimit="10" d="M 2672.720211 277.37026 L 2672.720211 395.105259 L 2694.133679 395.105259 L 2694.133679 277.37026 L 2672.720211 277.37026 " transform="matrix(0.0999663, 0, 0, -0.0999663, 0.0485393, 177.88002)"/>
<path fill-rule="nonzero" fill="rgb(50%, 50%, 50%)" fill-opacity="1" d="M 269.371094 150.152344 L 271.515625 150.152344 L 271.515625 129.59375 L 269.371094 129.59375 Z M 269.371094 150.152344 "/>
<path fill="none" stroke-width="5" stroke-linecap="round" stroke-linejoin="round" stroke="rgb(0%, 0%, 0%)" stroke-opacity="1" stroke-miterlimit="10" d="M 2694.133679 277.37026 L 2694.133679 483.02552 L 2715.586223 483.02552 L 2715.586223 277.37026 L 2694.133679 277.37026 " transform="matrix(0.0999663, 0, 0, -0.0999663, 0.0485393, 177.88002)"/>
<path fill-rule="nonzero" fill="rgb(50%, 50%, 50%)" fill-opacity="1" d="M 271.515625 150.152344 L 273.660156 150.152344 L 273.660156 119.476562 L 271.515625 119.476562 Z M 271.515625 150.152344 "/>
<path fill="none" stroke-width="5" stroke-linecap="round" stroke-linejoin="round" stroke="rgb(0%, 0%, 0%)" stroke-opacity="1" stroke-miterlimit="10" d="M 2715.586223 277.37026 L 2715.586223 584.231509 L 2737.038767 584.231509 L 2737.038767 277.37026 L 2715.586223 277.37026 " transform="matrix(0.0999663, 0, 0, -0.0999663, 0.0485393, 177.88002)"/>
<path fill-rule="nonzero" fill="rgb(50%, 50%, 50%)" fill-opacity="1" d="M 273.660156 150.152344 L 275.804688 150.152344 L 275.804688 107.941406 L 273.660156 107.941406 Z M 273.660156 150.152344 "/>
<path fill="none" stroke-width="5" stroke-linecap="round" stroke-linejoin="round" stroke="rgb(0%, 0%, 0%)" stroke-opacity="1" stroke-miterlimit="10" d="M 2737.038767 277.37026 L 2737.038767 699.621967 L 2758.452235 699.621967 L 2758.452235 277.37026 L 2737.038767 277.37026 " transform="matrix(0.0999663, 0, 0, -0.0999663, 0.0485393, 177.88002)"/>
<path fill-rule="nonzero" fill="rgb(50%, 50%, 50%)" fill-opacity="1" d="M 275.800781 150.152344 L 277.945312 150.152344 L 277.945312 94.894531 L 275.800781 94.894531 Z M 275.800781 150.152344 "/>
<path fill="none" stroke-width="5" stroke-linecap="round" stroke-linejoin="round" stroke="rgb(0%, 0%, 0%)" stroke-opacity="1" stroke-miterlimit="10" d="M 2758.452235 277.37026 L 2758.452235 830.13471 L 2779.904778 830.13471 L 2779.904778 277.37026 L 2758.452235 277.37026 " transform="matrix(0.0999663, 0, 0, -0.0999663, 0.0485393, 177.88002)"/>
<path fill="none" stroke-width="5" stroke-linecap="round" stroke-linejoin="round" stroke="rgb(0%, 0%, 0%)" stroke-opacity="1" stroke-miterlimit="10" d="M 1536.360606 104.733943 L 1586.807298 151.429371 L 1641.825844 211.332375 L 1693.483882 269.945883 L 1743.188136 323.59678 L 1796.096595 373.652715 L 1847.012195 411.634268 L 1874.834073 427.342688 L 1887.572742 433.204039 L 1901.132 438.51833 L 1913.518988 442.504048 L 1927.195473 445.942708 L 1933.213127 447.114978 L 1939.621537 448.170021 L 1945.717342 448.912459 L 1951.266087 449.459518 L 1954.548443 449.693972 L 1957.518194 449.850275 L 1959.159373 449.88935 L 1960.019037 449.928426 L 1960.917778 449.928426 L 1962.598032 449.967502 L 1964.121983 450.006577 L 1967.091734 450.006577 L 1968.537534 449.967502 L 1969.827031 449.928426 L 1971.350982 449.88935 L 1973.031236 449.811199 L 1976.079138 449.654896 L 1979.322419 449.420442 L 1982.878305 449.107837 L 1990.14638 448.248172 L 1996.82832 447.193129 L 2003.119503 445.942708 L 2015.975399 442.777578 L 2029.495581 438.440179 L 2053.644346 428.280504 L 2079.43429 414.096035 L 2103.387676 398.035934 L 2154.381428 355.716982 L 2208.579384 301.089193 L 2260.784481 242.905518 L 2310.996719 186.206719 L 2364.413162 130.797416 L 2390.984619 107.156635 L 2415.875822 88.556615 L 2439.711982 74.684752 L 2453.114937 68.862477 L 2465.345622 64.95491 " transform="matrix(0.0999663, 0, 0, -0.0999663, 0.0485393, 177.88002)"/>
<path fill="none" stroke-width="5" stroke-linecap="round" stroke-linejoin="round" stroke="rgb(0%, 0%, 0%)" stroke-opacity="1" stroke-miterlimit="10" d="M 2465.345622 64.95491 L 2471.59773 63.50911 L 2475.036389 62.883899 L 2478.240594 62.375915 L 2481.24942 62.06331 L 2482.851523 61.907007 L 2484.492701 61.78978 L 2485.938501 61.711629 L 2487.462452 61.633478 L 2488.869176 61.594402 L 2491.878003 61.594402 L 2492.815819 61.633478 L 2493.71456 61.633478 L 2495.316662 61.711629 L 2497.035992 61.828856 L 2500.005743 62.102386 L 2503.249024 62.532218 L 2506.765834 63.157429 L 2510.478023 63.938942 L 2517.238114 65.892726 L 2523.763751 68.276342 L 2529.781405 71.011639 L 2543.45789 79.139378 L 2556.821769 89.728885 L 2571.045314 104.108733 L 2598.984419 142.481042 L 2625.282346 192.185296 L 2651.463046 256.113095 L 2675.611811 329.028298 L 2727.113546 535.699525 L 2776.661498 809.229226 L 2779.904778 830.13471 " transform="matrix(0.0999663, 0, 0, -0.0999663, 0.0485393, 177.88002)"/>
<path fill="none" stroke-width="2.5" stroke-linecap="round" stroke-linejoin="round" stroke="rgb(0%, 0%, 0%)" stroke-opacity="1" stroke-miterlimit="10" d="M 68.990987 1165.052292 L 1374.704553 1165.052292 " transform="matrix(0.0999663, 0, 0, -0.0999663, 0.0485393, 177.88002)"/>
<path fill="none" stroke-width="2.5" stroke-linecap="round" stroke-linejoin="round" stroke="rgb(0%, 0%, 0%)" stroke-opacity="1" stroke-miterlimit="10" d="M 528.911642 930.051203 L 528.911642 1737.002896 " transform="matrix(0.0999663, 0, 0, -0.0999663, 0.0485393, 177.88002)"/>
<path fill-rule="nonzero" fill="rgb(50%, 50%, 50%)" fill-opacity="1" d="M 10.054688 70.222656 L 18.625 70.222656 L 18.625 61.414062 L 10.054688 61.414062 Z M 10.054688 70.222656 "/>
<path fill="none" stroke-width="5" stroke-linecap="round" stroke-linejoin="round" stroke="rgb(0%, 0%, 0%)" stroke-opacity="1" stroke-miterlimit="10" d="M 100.095222 1165.052292 L 100.095222 1076.936652 L 185.827245 1076.936652 L 185.827245 1165.052292 L 100.095222 1165.052292 " transform="matrix(0.0999663, 0, 0, -0.0999663, 0.0485393, 177.88002)"/>
<path fill-rule="nonzero" fill="rgb(50%, 50%, 50%)" fill-opacity="1" d="M 18.625 61.414062 L 27.199219 61.414062 L 27.199219 60.558594 L 18.625 60.558594 Z M 18.625 61.414062 "/>
<path fill="none" stroke-width="5" stroke-linecap="round" stroke-linejoin="round" stroke="rgb(0%, 0%, 0%)" stroke-opacity="1" stroke-miterlimit="10" d="M 185.827245 1165.052292 L 185.827245 1173.609864 L 271.598344 1173.609864 L 271.598344 1165.052292 L 185.827245 1165.052292 " transform="matrix(0.0999663, 0, 0, -0.0999663, 0.0485393, 177.88002)"/>
<path fill-rule="nonzero" fill="rgb(50%, 50%, 50%)" fill-opacity="1" d="M 27.199219 61.414062 L 35.773438 61.414062 L 35.773438 52 L 27.199219 52 Z M 27.199219 61.414062 "/>
<path fill="none" stroke-width="5" stroke-linecap="round" stroke-linejoin="round" stroke="rgb(0%, 0%, 0%)" stroke-opacity="1" stroke-miterlimit="10" d="M 271.598344 1165.052292 L 271.598344 1259.22466 L 357.369443 1259.22466 L 357.369443 1165.052292 L 271.598344 1165.052292 " transform="matrix(0.0999663, 0, 0, -0.0999663, 0.0485393, 177.88002)"/>
<path fill-rule="nonzero" fill="rgb(50%, 50%, 50%)" fill-opacity="1" d="M 35.773438 61.414062 L 44.347656 61.414062 L 44.347656 46.199219 L 35.773438 46.199219 Z M 35.773438 61.414062 "/>
<path fill="none" stroke-width="5" stroke-linecap="round" stroke-linejoin="round" stroke="rgb(0%, 0%, 0%)" stroke-opacity="1" stroke-miterlimit="10" d="M 357.369443 1165.052292 L 357.369443 1317.212957 L 443.140542 1317.212957 L 443.140542 1165.052292 L 357.369443 1165.052292 " transform="matrix(0.0999663, 0, 0, -0.0999663, 0.0485393, 177.88002)"/>
<path fill-rule="nonzero" fill="rgb(50%, 50%, 50%)" fill-opacity="1" d="M 44.347656 61.414062 L 52.921875 61.414062 L 52.921875 44.160156 L 44.347656 44.160156 Z M 44.347656 61.414062 "/>
<path fill="none" stroke-width="5" stroke-linecap="round" stroke-linejoin="round" stroke="rgb(0%, 0%, 0%)" stroke-opacity="1" stroke-miterlimit="10" d="M 443.140542 1165.052292 L 443.140542 1337.649533 L 528.911642 1337.649533 L 528.911642 1165.052292 L 443.140542 1165.052292 " transform="matrix(0.0999663, 0, 0, -0.0999663, 0.0485393, 177.88002)"/>
<path fill-rule="nonzero" fill="rgb(50%, 50%, 50%)" fill-opacity="1" d="M 52.921875 61.414062 L 61.492188 61.414062 L 61.492188 44.160156 L 52.921875 44.160156 Z M 52.921875 61.414062 "/>
<path fill="none" stroke-width="5" stroke-linecap="round" stroke-linejoin="round" stroke="rgb(0%, 0%, 0%)" stroke-opacity="1" stroke-miterlimit="10" d="M 528.911642 1165.052292 L 528.911642 1337.649533 L 614.643665 1337.649533 L 614.643665 1165.052292 L 528.911642 1165.052292 " transform="matrix(0.0999663, 0, 0, -0.0999663, 0.0485393, 177.88002)"/>
<path fill-rule="nonzero" fill="rgb(50%, 50%, 50%)" fill-opacity="1" d="M 61.492188 61.414062 L 70.066406 61.414062 L 70.066406 46.199219 L 61.492188 46.199219 Z M 61.492188 61.414062 "/>
<path fill="none" stroke-width="5" stroke-linecap="round" stroke-linejoin="round" stroke="rgb(0%, 0%, 0%)" stroke-opacity="1" stroke-miterlimit="10" d="M 614.643665 1165.052292 L 614.643665 1317.212957 L 700.414764 1317.212957 L 700.414764 1165.052292 L 614.643665 1165.052292 " transform="matrix(0.0999663, 0, 0, -0.0999663, 0.0485393, 177.88002)"/>
<path fill-rule="nonzero" fill="rgb(50%, 50%, 50%)" fill-opacity="1" d="M 70.066406 61.414062 L 78.640625 61.414062 L 78.640625 52 L 70.066406 52 Z M 70.066406 61.414062 "/>
<path fill="none" stroke-width="5" stroke-linecap="round" stroke-linejoin="round" stroke="rgb(0%, 0%, 0%)" stroke-opacity="1" stroke-miterlimit="10" d="M 700.414764 1165.052292 L 700.414764 1259.22466 L 786.185863 1259.22466 L 786.185863 1165.052292 L 700.414764 1165.052292 " transform="matrix(0.0999663, 0, 0, -0.0999663, 0.0485393, 177.88002)"/>
<path fill-rule="nonzero" fill="rgb(50%, 50%, 50%)" fill-opacity="1" d="M 78.640625 61.414062 L 87.210938 61.414062 L 87.210938 60.558594 L 78.640625 60.558594 Z M 78.640625 61.414062 "/>
<path fill="none" stroke-width="5" stroke-linecap="round" stroke-linejoin="round" stroke="rgb(0%, 0%, 0%)" stroke-opacity="1" stroke-miterlimit="10" d="M 786.185863 1165.052292 L 786.185863 1173.609864 L 871.917887 1173.609864 L 871.917887 1165.052292 L 786.185863 1165.052292 " transform="matrix(0.0999663, 0, 0, -0.0999663, 0.0485393, 177.88002)"/>
<path fill-rule="nonzero" fill="rgb(50%, 50%, 50%)" fill-opacity="1" d="M 87.210938 70.222656 L 95.785156 70.222656 L 95.785156 61.414062 L 87.210938 61.414062 Z M 87.210938 70.222656 "/>
<path fill="none" stroke-width="5" stroke-linecap="round" stroke-linejoin="round" stroke="rgb(0%, 0%, 0%)" stroke-opacity="1" stroke-miterlimit="10" d="M 871.917887 1165.052292 L 871.917887 1076.936652 L 957.688986 1076.936652 L 957.688986 1165.052292 L 871.917887 1165.052292 " transform="matrix(0.0999663, 0, 0, -0.0999663, 0.0485393, 177.88002)"/>
<path fill-rule="nonzero" fill="rgb(50%, 50%, 50%)" fill-opacity="1" d="M 95.785156 78.671875 L 104.359375 78.671875 L 104.359375 61.414062 L 95.785156 61.414062 Z M 95.785156 78.671875 "/>
<path fill="none" stroke-width="5" stroke-linecap="round" stroke-linejoin="round" stroke="rgb(0%, 0%, 0%)" stroke-opacity="1" stroke-miterlimit="10" d="M 957.688986 1165.052292 L 957.688986 992.415974 L 1043.460085 992.415974 L 1043.460085 1165.052292 L 957.688986 1165.052292 " transform="matrix(0.0999663, 0, 0, -0.0999663, 0.0485393, 177.88002)"/>
<path fill-rule="nonzero" fill="rgb(50%, 50%, 50%)" fill-opacity="1" d="M 104.359375 79.335938 L 112.933594 79.335938 L 112.933594 61.414062 L 104.359375 61.414062 Z M 104.359375 79.335938 "/>
<path fill="none" stroke-width="5" stroke-linecap="round" stroke-linejoin="round" stroke="rgb(0%, 0%, 0%)" stroke-opacity="1" stroke-miterlimit="10" d="M 1043.460085 1165.052292 L 1043.460085 985.77311 L 1129.231184 985.77311 L 1129.231184 1165.052292 L 1043.460085 1165.052292 " transform="matrix(0.0999663, 0, 0, -0.0999663, 0.0485393, 177.88002)"/>
<path fill-rule="nonzero" fill="rgb(50%, 50%, 50%)" fill-opacity="1" d="M 112.933594 63.597656 L 121.507812 63.597656 L 121.507812 61.414062 L 112.933594 61.414062 Z M 112.933594 63.597656 "/>
<path fill="none" stroke-width="5" stroke-linecap="round" stroke-linejoin="round" stroke="rgb(0%, 0%, 0%)" stroke-opacity="1" stroke-miterlimit="10" d="M 1129.231184 1165.052292 L 1129.231184 1143.208991 L 1214.963207 1143.208991 L 1214.963207 1165.052292 L 1129.231184 1165.052292 " transform="matrix(0.0999663, 0, 0, -0.0999663, 0.0485393, 177.88002)"/>
<path fill-rule="nonzero" fill="rgb(50%, 50%, 50%)" fill-opacity="1" d="M 121.503906 61.414062 L 130.078125 61.414062 L 130.078125 30.738281 L 121.503906 30.738281 Z M 121.503906 61.414062 "/>
<path fill="none" stroke-width="5" stroke-linecap="round" stroke-linejoin="round" stroke="rgb(0%, 0%, 0%)" stroke-opacity="1" stroke-miterlimit="10" d="M 1214.963207 1165.052292 L 1214.963207 1471.91354 L 1300.734307 1471.91354 L 1300.734307 1165.052292 L 1214.963207 1165.052292 " transform="matrix(0.0999663, 0, 0, -0.0999663, 0.0485393, 177.88002)"/>
<path fill="none" stroke-width="5" stroke-linecap="round" stroke-linejoin="round" stroke="rgb(0%, 0%, 0%)" stroke-opacity="1" stroke-miterlimit="10" d="M 100.095222 992.415974 L 150.541914 1039.111402 L 205.560459 1099.014407 L 257.218497 1157.627914 L 306.922751 1211.278811 L 359.792135 1261.334746 L 410.707735 1299.316299 L 438.529613 1315.024719 L 451.307358 1320.88607 L 464.82754 1326.200361 L 477.253604 1330.18608 L 490.930089 1333.624739 L 496.908667 1334.797009 L 503.356152 1335.852052 L 509.412881 1336.59449 L 515.000702 1337.141549 L 518.243983 1337.336927 L 521.213734 1337.49323 L 522.854912 1337.571382 L 523.714577 1337.610457 L 524.613318 1337.610457 L 526.293572 1337.649533 L 532.233074 1337.649533 L 533.522571 1337.610457 L 535.085598 1337.571382 L 536.726776 1337.49323 L 539.774678 1337.336927 L 543.017959 1337.102473 L 546.573845 1336.789868 L 553.84192 1335.891128 L 560.562936 1334.87516 L 566.854119 1333.624739 L 579.670939 1330.420534 L 593.191121 1326.12221 L 617.339886 1315.923459 L 643.12983 1301.778066 L 667.122292 1285.717965 L 718.076968 1243.399013 L 772.274924 1188.732148 L 824.480021 1130.548474 L 874.692259 1073.88875 L 928.147778 1018.440372 L 954.719235 994.838666 L 979.571362 976.238646 L 1003.446597 962.366783 L 1016.810477 956.505432 L 1029.041162 952.636941 " transform="matrix(0.0999663, 0, 0, -0.0999663, 0.0485393, 177.88002)"/>
<path fill="none" stroke-width="5" stroke-linecap="round" stroke-linejoin="round" stroke="rgb(0%, 0%, 0%)" stroke-opacity="1" stroke-miterlimit="10" d="M 1029.041162 952.636941 L 1035.29327 951.191141 L 1038.731929 950.526855 L 1041.936134 950.057946 L 1044.94496 949.706265 L 1046.547063 949.589038 L 1048.227317 949.432736 L 1049.634041 949.354584 L 1051.157992 949.315509 L 1052.564716 949.276433 L 1056.550435 949.276433 L 1057.4101 949.315509 L 1059.012202 949.39366 L 1060.731532 949.510887 L 1063.701283 949.784417 L 1066.983639 950.214249 L 1070.461374 950.83946 L 1074.212638 951.620973 L 1080.97273 953.535681 L 1087.459291 955.958373 L 1093.51602 958.69367 L 1107.192505 966.782334 L 1120.517309 977.371841 L 1134.740854 991.790764 L 1162.679959 1030.163073 L 1189.016961 1079.867327 L 1215.197661 1143.795126 L 1239.307351 1216.710329 L 1290.809086 1423.342481 L 1340.357037 1696.911257 L 1343.639394 1717.816742 " transform="matrix(0.0999663, 0, 0, -0.0999663, 0.0485393, 177.88002)"/>
<path fill="none" stroke-width="2.5" stroke-linecap="round" stroke-linejoin="round" stroke="rgb(0%, 0%, 0%)" stroke-opacity="1" stroke-miterlimit="10" d="M 1505.295447 1165.052292 L 2811.009013 1165.052292 " transform="matrix(0.0999663, 0, 0, -0.0999663, 0.0485393, 177.88002)"/>
<path fill="none" stroke-width="2.5" stroke-linecap="round" stroke-linejoin="round" stroke="rgb(0%, 0%, 0%)" stroke-opacity="1" stroke-miterlimit="10" d="M 1965.177026 930.051203 L 1965.177026 1737.002896 " transform="matrix(0.0999663, 0, 0, -0.0999663, 0.0485393, 177.88002)"/>
<path fill-rule="nonzero" fill="rgb(50%, 50%, 50%)" fill-opacity="1" d="M 153.632812 74.769531 L 157.921875 74.769531 L 157.921875 61.414062 L 153.632812 61.414062 Z M 153.632812 74.769531 "/>
<path fill="none" stroke-width="5" stroke-linecap="round" stroke-linejoin="round" stroke="rgb(0%, 0%, 0%)" stroke-opacity="1" stroke-miterlimit="10" d="M 1536.360606 1165.052292 L 1536.360606 1031.45257 L 1579.265693 1031.45257 L 1579.265693 1165.052292 L 1536.360606 1165.052292 " transform="matrix(0.0999663, 0, 0, -0.0999663, 0.0485393, 177.88002)"/>
<path fill-rule="nonzero" fill="rgb(50%, 50%, 50%)" fill-opacity="1" d="M 157.921875 70.222656 L 162.207031 70.222656 L 162.207031 61.414062 L 157.921875 61.414062 Z M 157.921875 70.222656 "/>
<path fill="none" stroke-width="5" stroke-linecap="round" stroke-linejoin="round" stroke="rgb(0%, 0%, 0%)" stroke-opacity="1" stroke-miterlimit="10" d="M 1579.265693 1165.052292 L 1579.265693 1076.936652 L 1622.131705 1076.936652 L 1622.131705 1165.052292 L 1579.265693 1165.052292 " transform="matrix(0.0999663, 0, 0, -0.0999663, 0.0485393, 177.88002)"/>
<path fill-rule="nonzero" fill="rgb(50%, 50%, 50%)" fill-opacity="1" d="M 162.207031 65.382812 L 166.496094 65.382812 L 166.496094 61.414062 L 162.207031 61.414062 Z M 162.207031 65.382812 "/>
<path fill="none" stroke-width="5" stroke-linecap="round" stroke-linejoin="round" stroke="rgb(0%, 0%, 0%)" stroke-opacity="1" stroke-miterlimit="10" d="M 1622.131705 1165.052292 L 1622.131705 1125.351409 L 1665.036793 1125.351409 L 1665.036793 1165.052292 L 1622.131705 1165.052292 " transform="matrix(0.0999663, 0, 0, -0.0999663, 0.0485393, 177.88002)"/>
<path fill-rule="nonzero" fill="rgb(50%, 50%, 50%)" fill-opacity="1" d="M 166.496094 61.414062 L 170.78125 61.414062 L 170.78125 60.558594 L 166.496094 60.558594 Z M 166.496094 61.414062 "/>
<path fill="none" stroke-width="5" stroke-linecap="round" stroke-linejoin="round" stroke="rgb(0%, 0%, 0%)" stroke-opacity="1" stroke-miterlimit="10" d="M 1665.036793 1165.052292 L 1665.036793 1173.609864 L 1707.902804 1173.609864 L 1707.902804 1165.052292 L 1665.036793 1165.052292 " transform="matrix(0.0999663, 0, 0, -0.0999663, 0.0485393, 177.88002)"/>
<path fill-rule="nonzero" fill="rgb(50%, 50%, 50%)" fill-opacity="1" d="M 170.78125 61.414062 L 175.066406 61.414062 L 175.066406 56.023438 L 170.78125 56.023438 Z M 170.78125 61.414062 "/>
<path fill="none" stroke-width="5" stroke-linecap="round" stroke-linejoin="round" stroke="rgb(0%, 0%, 0%)" stroke-opacity="1" stroke-miterlimit="10" d="M 1707.902804 1165.052292 L 1707.902804 1218.976718 L 1750.768816 1218.976718 L 1750.768816 1165.052292 L 1707.902804 1165.052292 " transform="matrix(0.0999663, 0, 0, -0.0999663, 0.0485393, 177.88002)"/>
<path fill-rule="nonzero" fill="rgb(50%, 50%, 50%)" fill-opacity="1" d="M 175.066406 61.414062 L 179.351562 61.414062 L 179.351562 52 L 175.066406 52 Z M 175.066406 61.414062 "/>
<path fill="none" stroke-width="5" stroke-linecap="round" stroke-linejoin="round" stroke="rgb(0%, 0%, 0%)" stroke-opacity="1" stroke-miterlimit="10" d="M 1750.768816 1165.052292 L 1750.768816 1259.22466 L 1793.634828 1259.22466 L 1793.634828 1165.052292 L 1750.768816 1165.052292 " transform="matrix(0.0999663, 0, 0, -0.0999663, 0.0485393, 177.88002)"/>
<path fill-rule="nonzero" fill="rgb(50%, 50%, 50%)" fill-opacity="1" d="M 179.351562 61.414062 L 183.640625 61.414062 L 183.640625 48.675781 L 179.351562 48.675781 Z M 179.351562 61.414062 "/>
<path fill="none" stroke-width="5" stroke-linecap="round" stroke-linejoin="round" stroke="rgb(0%, 0%, 0%)" stroke-opacity="1" stroke-miterlimit="10" d="M 1793.634828 1165.052292 L 1793.634828 1292.478057 L 1836.539915 1292.478057 L 1836.539915 1165.052292 L 1793.634828 1165.052292 " transform="matrix(0.0999663, 0, 0, -0.0999663, 0.0485393, 177.88002)"/>
<path fill-rule="nonzero" fill="rgb(50%, 50%, 50%)" fill-opacity="1" d="M 183.640625 61.414062 L 187.929688 61.414062 L 187.929688 46.199219 L 183.640625 46.199219 Z M 183.640625 61.414062 "/>
<path fill="none" stroke-width="5" stroke-linecap="round" stroke-linejoin="round" stroke="rgb(0%, 0%, 0%)" stroke-opacity="1" stroke-miterlimit="10" d="M 1836.539915 1165.052292 L 1836.539915 1317.212957 L 1879.445003 1317.212957 L 1879.445003 1165.052292 L 1836.539915 1165.052292 " transform="matrix(0.0999663, 0, 0, -0.0999663, 0.0485393, 177.88002)"/>
<path fill-rule="nonzero" fill="rgb(50%, 50%, 50%)" fill-opacity="1" d="M 187.929688 61.414062 L 192.214844 61.414062 L 192.214844 44.675781 L 187.929688 44.675781 Z M 187.929688 61.414062 "/>
<path fill="none" stroke-width="5" stroke-linecap="round" stroke-linejoin="round" stroke="rgb(0%, 0%, 0%)" stroke-opacity="1" stroke-miterlimit="10" d="M 1879.445003 1165.052292 L 1879.445003 1332.491544 L 1922.311014 1332.491544 L 1922.311014 1165.052292 L 1879.445003 1165.052292 " transform="matrix(0.0999663, 0, 0, -0.0999663, 0.0485393, 177.88002)"/>
<path fill-rule="nonzero" fill="rgb(50%, 50%, 50%)" fill-opacity="1" d="M 192.214844 61.414062 L 196.5 61.414062 L 196.5 44.160156 L 192.214844 44.160156 Z M 192.214844 61.414062 "/>
<path fill="none" stroke-width="5" stroke-linecap="round" stroke-linejoin="round" stroke="rgb(0%, 0%, 0%)" stroke-opacity="1" stroke-miterlimit="10" d="M 1922.311014 1165.052292 L 1922.311014 1337.649533 L 1965.177026 1337.649533 L 1965.177026 1165.052292 L 1922.311014 1165.052292 " transform="matrix(0.0999663, 0, 0, -0.0999663, 0.0485393, 177.88002)"/>
<path fill-rule="nonzero" fill="rgb(50%, 50%, 50%)" fill-opacity="1" d="M 196.5 61.414062 L 200.789062 61.414062 L 200.789062 44.160156 L 196.5 44.160156 Z M 196.5 61.414062 "/>
<path fill="none" stroke-width="5" stroke-linecap="round" stroke-linejoin="round" stroke="rgb(0%, 0%, 0%)" stroke-opacity="1" stroke-miterlimit="10" d="M 1965.177026 1165.052292 L 1965.177026 1337.649533 L 2008.082113 1337.649533 L 2008.082113 1165.052292 L 1965.177026 1165.052292 " transform="matrix(0.0999663, 0, 0, -0.0999663, 0.0485393, 177.88002)"/>
<path fill-rule="nonzero" fill="rgb(50%, 50%, 50%)" fill-opacity="1" d="M 200.789062 61.414062 L 205.074219 61.414062 L 205.074219 44.675781 L 200.789062 44.675781 Z M 200.789062 61.414062 "/>
<path fill="none" stroke-width="5" stroke-linecap="round" stroke-linejoin="round" stroke="rgb(0%, 0%, 0%)" stroke-opacity="1" stroke-miterlimit="10" d="M 2008.082113 1165.052292 L 2008.082113 1332.491544 L 2050.948125 1332.491544 L 2050.948125 1165.052292 L 2008.082113 1165.052292 " transform="matrix(0.0999663, 0, 0, -0.0999663, 0.0485393, 177.88002)"/>
<path fill-rule="nonzero" fill="rgb(50%, 50%, 50%)" fill-opacity="1" d="M 205.074219 61.414062 L 209.359375 61.414062 L 209.359375 46.199219 L 205.074219 46.199219 Z M 205.074219 61.414062 "/>
<path fill="none" stroke-width="5" stroke-linecap="round" stroke-linejoin="round" stroke="rgb(0%, 0%, 0%)" stroke-opacity="1" stroke-miterlimit="10" d="M 2050.948125 1165.052292 L 2050.948125 1317.212957 L 2093.814137 1317.212957 L 2093.814137 1165.052292 L 2050.948125 1165.052292 " transform="matrix(0.0999663, 0, 0, -0.0999663, 0.0485393, 177.88002)"/>
<path fill-rule="nonzero" fill="rgb(50%, 50%, 50%)" fill-opacity="1" d="M 209.359375 61.414062 L 213.644531 61.414062 L 213.644531 48.675781 L 209.359375 48.675781 Z M 209.359375 61.414062 "/>
<path fill="none" stroke-width="5" stroke-linecap="round" stroke-linejoin="round" stroke="rgb(0%, 0%, 0%)" stroke-opacity="1" stroke-miterlimit="10" d="M 2093.814137 1165.052292 L 2093.814137 1292.478057 L 2136.719224 1292.478057 L 2136.719224 1165.052292 L 2093.814137 1165.052292 " transform="matrix(0.0999663, 0, 0, -0.0999663, 0.0485393, 177.88002)"/>
<path fill-rule="nonzero" fill="rgb(50%, 50%, 50%)" fill-opacity="1" d="M 213.648438 61.414062 L 217.933594 61.414062 L 217.933594 52 L 213.648438 52 Z M 213.648438 61.414062 "/>
<path fill="none" stroke-width="5" stroke-linecap="round" stroke-linejoin="round" stroke="rgb(0%, 0%, 0%)" stroke-opacity="1" stroke-miterlimit="10" d="M 2136.719224 1165.052292 L 2136.719224 1259.22466 L 2179.585236 1259.22466 L 2179.585236 1165.052292 L 2136.719224 1165.052292 " transform="matrix(0.0999663, 0, 0, -0.0999663, 0.0485393, 177.88002)"/>
<path fill-rule="nonzero" fill="rgb(50%, 50%, 50%)" fill-opacity="1" d="M 217.933594 61.414062 L 222.21875 61.414062 L 222.21875 56.023438 L 217.933594 56.023438 Z M 217.933594 61.414062 "/>
<path fill="none" stroke-width="5" stroke-linecap="round" stroke-linejoin="round" stroke="rgb(0%, 0%, 0%)" stroke-opacity="1" stroke-miterlimit="10" d="M 2179.585236 1165.052292 L 2179.585236 1218.976718 L 2222.451248 1218.976718 L 2222.451248 1165.052292 L 2179.585236 1165.052292 " transform="matrix(0.0999663, 0, 0, -0.0999663, 0.0485393, 177.88002)"/>
<path fill-rule="nonzero" fill="rgb(50%, 50%, 50%)" fill-opacity="1" d="M 222.21875 61.414062 L 226.507812 61.414062 L 226.507812 60.558594 L 222.21875 60.558594 Z M 222.21875 61.414062 "/>
<path fill="none" stroke-width="5" stroke-linecap="round" stroke-linejoin="round" stroke="rgb(0%, 0%, 0%)" stroke-opacity="1" stroke-miterlimit="10" d="M 2222.451248 1165.052292 L 2222.451248 1173.609864 L 2265.356335 1173.609864 L 2265.356335 1165.052292 L 2222.451248 1165.052292 " transform="matrix(0.0999663, 0, 0, -0.0999663, 0.0485393, 177.88002)"/>
<path fill-rule="nonzero" fill="rgb(50%, 50%, 50%)" fill-opacity="1" d="M 226.507812 65.382812 L 230.792969 65.382812 L 230.792969 61.414062 L 226.507812 61.414062 Z M 226.507812 65.382812 "/>
<path fill="none" stroke-width="5" stroke-linecap="round" stroke-linejoin="round" stroke="rgb(0%, 0%, 0%)" stroke-opacity="1" stroke-miterlimit="10" d="M 2265.356335 1165.052292 L 2265.356335 1125.351409 L 2308.222347 1125.351409 L 2308.222347 1165.052292 L 2265.356335 1165.052292 " transform="matrix(0.0999663, 0, 0, -0.0999663, 0.0485393, 177.88002)"/>
<path fill-rule="nonzero" fill="rgb(50%, 50%, 50%)" fill-opacity="1" d="M 230.792969 70.222656 L 235.078125 70.222656 L 235.078125 61.414062 L 230.792969 61.414062 Z M 230.792969 70.222656 "/>
<path fill="none" stroke-width="5" stroke-linecap="round" stroke-linejoin="round" stroke="rgb(0%, 0%, 0%)" stroke-opacity="1" stroke-miterlimit="10" d="M 2308.222347 1165.052292 L 2308.222347 1076.936652 L 2351.088358 1076.936652 L 2351.088358 1165.052292 L 2308.222347 1165.052292 " transform="matrix(0.0999663, 0, 0, -0.0999663, 0.0485393, 177.88002)"/>
<path fill-rule="nonzero" fill="rgb(50%, 50%, 50%)" fill-opacity="1" d="M 235.078125 74.769531 L 239.367188 74.769531 L 239.367188 61.414062 L 235.078125 61.414062 Z M 235.078125 74.769531 "/>
<path fill="none" stroke-width="5" stroke-linecap="round" stroke-linejoin="round" stroke="rgb(0%, 0%, 0%)" stroke-opacity="1" stroke-miterlimit="10" d="M 2351.088358 1165.052292 L 2351.088358 1031.45257 L 2393.993446 1031.45257 L 2393.993446 1165.052292 L 2351.088358 1165.052292 " transform="matrix(0.0999663, 0, 0, -0.0999663, 0.0485393, 177.88002)"/>
<path fill-rule="nonzero" fill="rgb(50%, 50%, 50%)" fill-opacity="1" d="M 239.367188 78.671875 L 243.652344 78.671875 L 243.652344 61.414062 L 239.367188 61.414062 Z M 239.367188 78.671875 "/>
<path fill="none" stroke-width="5" stroke-linecap="round" stroke-linejoin="round" stroke="rgb(0%, 0%, 0%)" stroke-opacity="1" stroke-miterlimit="10" d="M 2393.993446 1165.052292 L 2393.993446 992.415974 L 2436.859458 992.415974 L 2436.859458 1165.052292 L 2393.993446 1165.052292 " transform="matrix(0.0999663, 0, 0, -0.0999663, 0.0485393, 177.88002)"/>
<path fill-rule="nonzero" fill="rgb(50%, 50%, 50%)" fill-opacity="1" d="M 243.652344 81.535156 L 247.941406 81.535156 L 247.941406 61.414062 L 243.652344 61.414062 Z M 243.652344 81.535156 "/>
<path fill="none" stroke-width="5" stroke-linecap="round" stroke-linejoin="round" stroke="rgb(0%, 0%, 0%)" stroke-opacity="1" stroke-miterlimit="10" d="M 2436.859458 1165.052292 L 2436.859458 963.773507 L 2479.764545 963.773507 L 2479.764545 1165.052292 L 2436.859458 1165.052292 " transform="matrix(0.0999663, 0, 0, -0.0999663, 0.0485393, 177.88002)"/>
<path fill-rule="nonzero" fill="rgb(50%, 50%, 50%)" fill-opacity="1" d="M 247.941406 82.363281 L 252.226562 82.363281 L 252.226562 61.414062 L 247.941406 61.414062 Z M 247.941406 82.363281 "/>
<path fill="none" stroke-width="5" stroke-linecap="round" stroke-linejoin="round" stroke="rgb(0%, 0%, 0%)" stroke-opacity="1" stroke-miterlimit="10" d="M 2479.764545 1165.052292 L 2479.764545 955.489465 L 2522.630557 955.489465 L 2522.630557 1165.052292 L 2479.764545 1165.052292 " transform="matrix(0.0999663, 0, 0, -0.0999663, 0.0485393, 177.88002)"/>
<path fill-rule="nonzero" fill="rgb(50%, 50%, 50%)" fill-opacity="1" d="M 252.226562 79.335938 L 256.515625 79.335938 L 256.515625 61.414062 L 252.226562 61.414062 Z M 252.226562 79.335938 "/>
<path fill="none" stroke-width="5" stroke-linecap="round" stroke-linejoin="round" stroke="rgb(0%, 0%, 0%)" stroke-opacity="1" stroke-miterlimit="10" d="M 2522.630557 1165.052292 L 2522.630557 985.77311 L 2565.535644 985.77311 L 2565.535644 1165.052292 L 2522.630557 1165.052292 " transform="matrix(0.0999663, 0, 0, -0.0999663, 0.0485393, 177.88002)"/>
<path fill-rule="nonzero" fill="rgb(50%, 50%, 50%)" fill-opacity="1" d="M 256.515625 73.277344 L 260.800781 73.277344 L 260.800781 61.414062 L 256.515625 61.414062 Z M 256.515625 73.277344 "/>
<path fill="none" stroke-width="5" stroke-linecap="round" stroke-linejoin="round" stroke="rgb(0%, 0%, 0%)" stroke-opacity="1" stroke-miterlimit="10" d="M 2565.535644 1165.052292 L 2565.535644 1046.379477 L 2608.401656 1046.379477 L 2608.401656 1165.052292 L 2565.535644 1165.052292 " transform="matrix(0.0999663, 0, 0, -0.0999663, 0.0485393, 177.88002)"/>
<path fill-rule="nonzero" fill="rgb(50%, 50%, 50%)" fill-opacity="1" d="M 260.800781 63.597656 L 265.085938 63.597656 L 265.085938 61.414062 L 260.800781 61.414062 Z M 260.800781 63.597656 "/>
<path fill="none" stroke-width="5" stroke-linecap="round" stroke-linejoin="round" stroke="rgb(0%, 0%, 0%)" stroke-opacity="1" stroke-miterlimit="10" d="M 2608.401656 1165.052292 L 2608.401656 1143.208991 L 2651.267667 1143.208991 L 2651.267667 1165.052292 L 2608.401656 1165.052292 " transform="matrix(0.0999663, 0, 0, -0.0999663, 0.0485393, 177.88002)"/>
<path fill-rule="nonzero" fill="rgb(50%, 50%, 50%)" fill-opacity="1" d="M 265.085938 61.414062 L 269.371094 61.414062 L 269.371094 49.644531 L 265.085938 49.644531 Z M 265.085938 61.414062 "/>
<path fill="none" stroke-width="5" stroke-linecap="round" stroke-linejoin="round" stroke="rgb(0%, 0%, 0%)" stroke-opacity="1" stroke-miterlimit="10" d="M 2651.267667 1165.052292 L 2651.267667 1282.78729 L 2694.133679 1282.78729 L 2694.133679 1165.052292 L 2651.267667 1165.052292 " transform="matrix(0.0999663, 0, 0, -0.0999663, 0.0485393, 177.88002)"/>
<path fill-rule="nonzero" fill="rgb(50%, 50%, 50%)" fill-opacity="1" d="M 269.371094 61.414062 L 273.660156 61.414062 L 273.660156 30.738281 L 269.371094 30.738281 Z M 269.371094 61.414062 "/>
<path fill="none" stroke-width="5" stroke-linecap="round" stroke-linejoin="round" stroke="rgb(0%, 0%, 0%)" stroke-opacity="1" stroke-miterlimit="10" d="M 2694.133679 1165.052292 L 2694.133679 1471.91354 L 2737.038767 1471.91354 L 2737.038767 1165.052292 L 2694.133679 1165.052292 " transform="matrix(0.0999663, 0, 0, -0.0999663, 0.0485393, 177.88002)"/>
<path fill-rule="nonzero" fill="rgb(50%, 50%, 50%)" fill-opacity="1" d="M 273.660156 61.414062 L 277.945312 61.414062 L 277.945312 6.15625 L 273.660156 6.15625 Z M 273.660156 61.414062 "/>
<path fill="none" stroke-width="5" stroke-linecap="round" stroke-linejoin="round" stroke="rgb(0%, 0%, 0%)" stroke-opacity="1" stroke-miterlimit="10" d="M 2737.038767 1165.052292 L 2737.038767 1717.816742 L 2779.904778 1717.816742 L 2779.904778 1165.052292 L 2737.038767 1165.052292 " transform="matrix(0.0999663, 0, 0, -0.0999663, 0.0485393, 177.88002)"/>
<path fill="none" stroke-width="5" stroke-linecap="round" stroke-linejoin="round" stroke="rgb(0%, 0%, 0%)" stroke-opacity="1" stroke-miterlimit="10" d="M 1536.360606 992.415974 L 1586.807298 1039.111402 L 1641.825844 1099.014407 L 1693.483882 1157.627914 L 1743.188136 1211.278811 L 1796.096595 1261.334746 L 1847.012195 1299.316299 L 1874.834073 1315.024719 L 1887.572742 1320.88607 L 1901.132 1326.200361 L 1913.518988 1330.18608 L 1927.195473 1333.624739 L 1933.213127 1334.797009 L 1939.621537 1335.852052 L 1945.717342 1336.59449 L 1951.266087 1337.141549 L 1954.548443 1337.336927 L 1957.518194 1337.49323 L 1959.159373 1337.571382 L 1960.019037 1337.610457 L 1960.917778 1337.610457 L 1962.598032 1337.649533 L 1968.537534 1337.649533 L 1969.827031 1337.610457 L 1971.350982 1337.571382 L 1973.031236 1337.49323 L 1976.079138 1337.336927 L 1979.322419 1337.102473 L 1982.878305 1336.789868 L 1990.14638 1335.891128 L 1996.82832 1334.87516 L 2003.119503 1333.624739 L 2015.975399 1330.420534 L 2029.495581 1326.12221 L 2053.644346 1315.923459 L 2079.43429 1301.778066 L 2103.387676 1285.717965 L 2154.381428 1243.399013 L 2208.579384 1188.732148 L 2260.784481 1130.548474 L 2310.996719 1073.88875 L 2364.413162 1018.440372 L 2390.984619 994.838666 L 2415.875822 976.238646 L 2439.711982 962.366783 L 2453.114937 956.505432 L 2465.345622 952.636941 " transform="matrix(0.0999663, 0, 0, -0.0999663, 0.0485393, 177.88002)"/>
<path fill="none" stroke-width="5" stroke-linecap="round" stroke-linejoin="round" stroke="rgb(0%, 0%, 0%)" stroke-opacity="1" stroke-miterlimit="10" d="M 2465.345622 952.636941 L 2471.59773 951.191141 L 2475.036389 950.526855 L 2478.240594 950.057946 L 2481.24942 949.706265 L 2482.851523 949.589038 L 2484.492701 949.432736 L 2485.938501 949.354584 L 2487.462452 949.315509 L 2488.869176 949.276433 L 2492.815819 949.276433 L 2493.71456 949.315509 L 2495.316662 949.39366 L 2497.035992 949.510887 L 2500.005743 949.784417 L 2503.249024 950.214249 L 2506.765834 950.83946 L 2510.478023 951.620973 L 2517.238114 953.535681 L 2523.763751 955.958373 L 2529.781405 958.69367 L 2543.45789 966.782334 L 2556.821769 977.371841 L 2571.045314 991.790764 L 2598.984419 1030.163073 L 2625.282346 1079.867327 L 2651.463046 1143.795126 L 2675.611811 1216.710329 L 2727.113546 1423.342481 L 2776.661498 1696.911257 L 2779.904778 1717.816742 " transform="matrix(0.0999663, 0, 0, -0.0999663, 0.0485393, 177.88002)"/>
</svg>
