<?xml version="1.0" encoding="UTF-8"?>
<svg xmlns="http://www.w3.org/2000/svg" xmlns:xlink="http://www.w3.org/1999/xlink" width="434.63" height="103.63" viewBox="0 0 434.63 103.63">
<defs>
<clipPath id="clip-0">
<path clip-rule="nonzero" d="M 41 0.03125 L 50 0.03125 L 50 9 L 41 9 Z M 41 0.03125 "/>
</clipPath>
<clipPath id="clip-1">
<path clip-rule="nonzero" d="M 137 0.03125 L 145 0.03125 L 145 9 L 137 9 Z M 137 0.03125 "/>
</clipPath>
<clipPath id="clip-2">
<path clip-rule="nonzero" d="M 183 0.03125 L 192 0.03125 L 192 9 L 183 9 Z M 183 0.03125 "/>
</clipPath>
<clipPath id="clip-3">
<path clip-rule="nonzero" d="M 276 0.03125 L 285 0.03125 L 285 9 L 276 9 Z M 276 0.03125 "/>
</clipPath>
<clipPath id="clip-4">
<path clip-rule="nonzero" d="M 358 0.03125 L 367 0.03125 L 367 9 L 358 9 Z M 358 0.03125 "/>
</clipPath>
</defs>
<path fill="none" stroke-width="5" stroke-linecap="round" stroke-linejoin="round" stroke="rgb(0%, 0%, 0%)" stroke-opacity="1" stroke-miterlimit="10" d="M 127.416892 308.985878 L 127.416892 727.270882 " transform="matrix(0.0996442, 0, 0, -0.0996442, 0.588798, 103.261316)"/>
<path fill="none" stroke-width="5" stroke-linecap="round" stroke-linejoin="round" stroke="rgb(0%, 0%, 0%)" stroke-opacity="1" stroke-miterlimit="10" d="M 127.416892 308.985878 L 454.439713 48.175181 " transform="matrix(0.0996442, 0, 0, -0.0996442, 0.588798, 103.261316)"/>
<path fill="none" stroke-width="5" stroke-linecap="round" stroke-linejoin="round" stroke="rgb(0%, 0%, 0%)" stroke-opacity="1" stroke-miterlimit="10" d="M 127.416892 308.985878 L 561.696299 518.12838 " transform="matrix(0.0996442, 0, 0, -0.0996442, 0.588798, 103.261316)"/>
<path fill="none" stroke-width="5" stroke-linecap="round" stroke-linejoin="round" stroke="rgb(0%, 0%, 0%)" stroke-opacity="1" stroke-miterlimit="10" d="M 127.416892 727.270882 L 454.439713 988.081579 " transform="matrix(0.0996442, 0, 0, -0.0996442, 0.588798, 103.261316)"/>
<path fill="none" stroke-width="5" stroke-linecap="round" stroke-linejoin="round" stroke="rgb(0%, 0%, 0%)" stroke-opacity="1" stroke-miterlimit="10" d="M 127.416892 727.270882 L 561.696299 518.12838 " transform="matrix(0.0996442, 0, 0, -0.0996442, 0.588798, 103.261316)"/>
<path fill="none" stroke-width="5" stroke-linecap="round" stroke-linejoin="round" stroke="rgb(0%, 0%, 0%)" stroke-opacity="1" stroke-miterlimit="10" d="M 454.439713 48.175181 L 561.696299 518.12838 " transform="matrix(0.0996442, 0, 0, -0.0996442, 0.588798, 103.261316)"/>
<path fill="none" stroke-width="5" stroke-linecap="round" stroke-linejoin="round" stroke="rgb(0%, 0%, 0%)" stroke-opacity="1" stroke-miterlimit="10" d="M 454.439713 48.175181 L 862.257792 141.240654 " transform="matrix(0.0996442, 0, 0, -0.0996442, 0.588798, 103.261316)"/>
<path fill="none" stroke-width="5" stroke-linecap="round" stroke-linejoin="round" stroke="rgb(0%, 0%, 0%)" stroke-opacity="1" stroke-miterlimit="10" d="M 454.439713 988.081579 L 561.696299 518.12838 " transform="matrix(0.0996442, 0, 0, -0.0996442, 0.588798, 103.261316)"/>
<path fill="none" stroke-width="5" stroke-linecap="round" stroke-linejoin="round" stroke="rgb(0%, 0%, 0%)" stroke-opacity="1" stroke-miterlimit="10" d="M 454.439713 988.081579 L 862.257792 894.976903 " transform="matrix(0.0996442, 0, 0, -0.0996442, 0.588798, 103.261316)"/>
<path fill="none" stroke-width="5" stroke-linecap="round" stroke-linejoin="round" stroke="rgb(0%, 0%, 0%)" stroke-opacity="1" stroke-miterlimit="10" d="M 561.696299 518.12838 L 862.257792 141.240654 " transform="matrix(0.0996442, 0, 0, -0.0996442, 0.588798, 103.261316)"/>
<path fill="none" stroke-width="5" stroke-linecap="round" stroke-linejoin="round" stroke="rgb(0%, 0%, 0%)" stroke-opacity="1" stroke-miterlimit="10" d="M 561.696299 518.12838 L 862.257792 894.976903 " transform="matrix(0.0996442, 0, 0, -0.0996442, 0.588798, 103.261316)"/>
<path fill="none" stroke-width="5" stroke-linecap="round" stroke-linejoin="round" stroke="rgb(0%, 0%, 0%)" stroke-opacity="1" stroke-miterlimit="10" d="M 561.696299 518.12838 L 1043.723705 518.12838 " transform="matrix(0.0996442, 0, 0, -0.0996442, 0.588798, 103.261316)"/>
<path fill="none" stroke-width="5" stroke-linecap="round" stroke-linejoin="round" stroke="rgb(0%, 0%, 0%)" stroke-opacity="1" stroke-miterlimit="10" d="M 862.257792 141.240654 L 1043.723705 518.12838 " transform="matrix(0.0996442, 0, 0, -0.0996442, 0.588798, 103.261316)"/>
<path fill="none" stroke-width="5" stroke-linecap="round" stroke-linejoin="round" stroke="rgb(0%, 0%, 0%)" stroke-opacity="1" stroke-miterlimit="10" d="M 862.257792 894.976903 L 1043.723705 518.12838 " transform="matrix(0.0996442, 0, 0, -0.0996442, 0.588798, 103.261316)"/>
<path fill="none" stroke-width="80" stroke-linecap="round" stroke-linejoin="round" stroke="rgb(0%, 100%, 0%)" stroke-opacity="1" stroke-miterlimit="10" d="M 862.257792 894.976903 L 862.257792 894.976903 " transform="matrix(0.0996442, 0, 0, -0.0996442, 0.588798, 103.261316)"/>
<g clip-path="url(#clip-0)">
<path fill="none" stroke-width="80" stroke-linecap="round" stroke-linejoin="round" stroke="rgb(0%, 0%, 100%)" stroke-opacity="1" stroke-miterlimit="10" d="M 454.439713 988.081579 L 454.439713 988.081579 " transform="matrix(0.0996442, 0, 0, -0.0996442, 0.588798, 103.261316)"/>
</g>
<path fill="none" stroke-width="80" stroke-linecap="round" stroke-linejoin="round" stroke="rgb(0%, 100%, 0%)" stroke-opacity="1" stroke-miterlimit="10" d="M 127.416892 727.270882 L 127.416892 727.270882 " transform="matrix(0.0996442, 0, 0, -0.0996442, 0.588798, 103.261316)"/>
<path fill="none" stroke-width="80" stroke-linecap="round" stroke-linejoin="round" stroke="rgb(0%, 0%, 100%)" stroke-opacity="1" stroke-miterlimit="10" d="M 127.416892 308.985878 L 127.416892 308.985878 " transform="matrix(0.0996442, 0, 0, -0.0996442, 0.588798, 103.261316)"/>
<path fill="none" stroke-width="80" stroke-linecap="round" stroke-linejoin="round" stroke="rgb(0%, 100%, 0%)" stroke-opacity="1" stroke-miterlimit="10" d="M 454.439713 48.175181 L 454.439713 48.175181 " transform="matrix(0.0996442, 0, 0, -0.0996442, 0.588798, 103.261316)"/>
<path fill="none" stroke-width="80" stroke-linecap="round" stroke-linejoin="round" stroke="rgb(0%, 0%, 100%)" stroke-opacity="1" stroke-miterlimit="10" d="M 862.257792 141.240654 L 862.257792 141.240654 " transform="matrix(0.0996442, 0, 0, -0.0996442, 0.588798, 103.261316)"/>
<path fill="none" stroke-width="80" stroke-linecap="round" stroke-linejoin="round" stroke="rgb(100%, 50%, 0%)" stroke-opacity="1" stroke-miterlimit="10" d="M 1043.723705 518.12838 L 1043.723705 518.12838 " transform="matrix(0.0996442, 0, 0, -0.0996442, 0.588798, 103.261316)"/>
<path fill="none" stroke-width="80" stroke-linecap="round" stroke-linejoin="round" stroke="rgb(100%, 0%, 0%)" stroke-opacity="1" stroke-miterlimit="10" d="M 561.696299 518.12838 L 561.696299 518.12838 " transform="matrix(0.0996442, 0, 0, -0.0996442, 0.588798, 103.261316)"/>
<path fill="none" stroke-width="5" stroke-linecap="round" stroke-linejoin="round" stroke="rgb(0%, 0%, 0%)" stroke-opacity="1" stroke-miterlimit="10" d="M 1408.968445 48.175181 L 1878.921644 48.175181 " transform="matrix(0.0996442, 0, 0, -0.0996442, 0.588798, 103.261316)"/>
<path fill="none" stroke-width="5" stroke-linecap="round" stroke-linejoin="round" stroke="rgb(0%, 0%, 0%)" stroke-opacity="1" stroke-miterlimit="10" d="M 1408.968445 48.175181 L 1878.921644 518.12838 " transform="matrix(0.0996442, 0, 0, -0.0996442, 0.588798, 103.261316)"/>
<path fill="none" stroke-width="5" stroke-linecap="round" stroke-linejoin="round" stroke="rgb(0%, 0%, 0%)" stroke-opacity="1" stroke-miterlimit="10" d="M 1408.968445 48.175181 L 1878.921644 988.081579 " transform="matrix(0.0996442, 0, 0, -0.0996442, 0.588798, 103.261316)"/>
<path fill="none" stroke-width="5" stroke-linecap="round" stroke-linejoin="round" stroke="rgb(0%, 0%, 0%)" stroke-opacity="1" stroke-miterlimit="10" d="M 1408.968445 518.12838 L 1878.921644 48.175181 " transform="matrix(0.0996442, 0, 0, -0.0996442, 0.588798, 103.261316)"/>
<path fill="none" stroke-width="5" stroke-linecap="round" stroke-linejoin="round" stroke="rgb(0%, 0%, 0%)" stroke-opacity="1" stroke-miterlimit="10" d="M 1408.968445 518.12838 L 1878.921644 518.12838 " transform="matrix(0.0996442, 0, 0, -0.0996442, 0.588798, 103.261316)"/>
<path fill="none" stroke-width="5" stroke-linecap="round" stroke-linejoin="round" stroke="rgb(0%, 0%, 0%)" stroke-opacity="1" stroke-miterlimit="10" d="M 1408.968445 518.12838 L 1878.921644 988.081579 " transform="matrix(0.0996442, 0, 0, -0.0996442, 0.588798, 103.261316)"/>
<path fill="none" stroke-width="5" stroke-linecap="round" stroke-linejoin="round" stroke="rgb(0%, 0%, 0%)" stroke-opacity="1" stroke-miterlimit="10" d="M 1408.968445 988.081579 L 1878.921644 48.175181 " transform="matrix(0.0996442, 0, 0, -0.0996442, 0.588798, 103.261316)"/>
<path fill="none" stroke-width="5" stroke-linecap="round" stroke-linejoin="round" stroke="rgb(0%, 0%, 0%)" stroke-opacity="1" stroke-miterlimit="10" d="M 1408.968445 988.081579 L 1878.921644 518.12838 " transform="matrix(0.0996442, 0, 0, -0.0996442, 0.588798, 103.261316)"/>
<path fill="none" stroke-width="5" stroke-linecap="round" stroke-linejoin="round" stroke="rgb(0%, 0%, 0%)" stroke-opacity="1" stroke-miterlimit="10" d="M 1408.968445 988.081579 L 1878.921644 988.081579 " transform="matrix(0.0996442, 0, 0, -0.0996442, 0.588798, 103.261316)"/>
<path fill="none" stroke-width="80" stroke-linecap="round" stroke-linejoin="round" stroke="rgb(100%, 0%, 0%)" stroke-opacity="1" stroke-miterlimit="10" d="M 1408.968445 48.175181 L 1408.968445 48.175181 " transform="matrix(0.0996442, 0, 0, -0.0996442, 0.588798, 103.261316)"/>
<path fill="none" stroke-width="80" stroke-linecap="round" stroke-linejoin="round" stroke="rgb(100%, 0%, 0%)" stroke-opacity="1" stroke-miterlimit="10" d="M 1408.968445 518.12838 L 1408.968445 518.12838 " transform="matrix(0.0996442, 0, 0, -0.0996442, 0.588798, 103.261316)"/>
<g clip-path="url(#clip-1)">
<path fill="none" stroke-width="80" stroke-linecap="round" stroke-linejoin="round" stroke="rgb(100%, 0%, 0%)" stroke-opacity="1" stroke-miterlimit="10" d="M 1408.968445 988.081579 L 1408.968445 988.081579 " transform="matrix(0.0996442, 0, 0, -0.0996442, 0.588798, 103.261316)"/>
</g>
<path fill="none" stroke-width="80" stroke-linecap="round" stroke-linejoin="round" stroke="rgb(0%, 100%, 0%)" stroke-opacity="1" stroke-miterlimit="10" d="M 1878.921644 48.175181 L 1878.921644 48.175181 " transform="matrix(0.0996442, 0, 0, -0.0996442, 0.588798, 103.261316)"/>
<path fill="none" stroke-width="80" stroke-linecap="round" stroke-linejoin="round" stroke="rgb(0%, 100%, 0%)" stroke-opacity="1" stroke-miterlimit="10" d="M 1878.921644 518.12838 L 1878.921644 518.12838 " transform="matrix(0.0996442, 0, 0, -0.0996442, 0.588798, 103.261316)"/>
<g clip-path="url(#clip-2)">
<path fill="none" stroke-width="80" stroke-linecap="round" stroke-linejoin="round" stroke="rgb(0%, 100%, 0%)" stroke-opacity="1" stroke-miterlimit="10" d="M 1878.921644 988.081579 L 1878.921644 988.081579 " transform="matrix(0.0996442, 0, 0, -0.0996442, 0.588798, 103.261316)"/>
</g>
<path fill="none" stroke-width="5" stroke-linecap="round" stroke-linejoin="round" stroke="rgb(0%, 0%, 0%)" stroke-opacity="1" stroke-miterlimit="10" d="M 2255.378148 227.680995 L 2255.378148 808.575765 " transform="matrix(0.0996442, 0, 0, -0.0996442, 0.588798, 103.261316)"/>
<path fill="none" stroke-width="5" stroke-linecap="round" stroke-linejoin="round" stroke="rgb(0%, 0%, 0%)" stroke-opacity="1" stroke-miterlimit="10" d="M 2255.378148 227.680995 L 2388.625639 324.470655 " transform="matrix(0.0996442, 0, 0, -0.0996442, 0.588798, 103.261316)"/>
<path fill="none" stroke-width="5" stroke-linecap="round" stroke-linejoin="round" stroke="rgb(0%, 0%, 0%)" stroke-opacity="1" stroke-miterlimit="10" d="M 2255.378148 227.680995 L 2807.812289 48.175181 " transform="matrix(0.0996442, 0, 0, -0.0996442, 0.588798, 103.261316)"/>
<path fill="none" stroke-width="5" stroke-linecap="round" stroke-linejoin="round" stroke="rgb(0%, 0%, 0%)" stroke-opacity="1" stroke-miterlimit="10" d="M 2255.378148 808.575765 L 2388.625639 711.746902 " transform="matrix(0.0996442, 0, 0, -0.0996442, 0.588798, 103.261316)"/>
<path fill="none" stroke-width="5" stroke-linecap="round" stroke-linejoin="round" stroke="rgb(0%, 0%, 0%)" stroke-opacity="1" stroke-miterlimit="10" d="M 2255.378148 808.575765 L 2807.812289 988.081579 " transform="matrix(0.0996442, 0, 0, -0.0996442, 0.588798, 103.261316)"/>
<path fill="none" stroke-width="5" stroke-linecap="round" stroke-linejoin="round" stroke="rgb(0%, 0%, 0%)" stroke-opacity="1" stroke-miterlimit="10" d="M 2388.625639 324.470655 L 2756.928134 831.430512 " transform="matrix(0.0996442, 0, 0, -0.0996442, 0.588798, 103.261316)"/>
<path fill="none" stroke-width="5" stroke-linecap="round" stroke-linejoin="round" stroke="rgb(0%, 0%, 0%)" stroke-opacity="1" stroke-miterlimit="10" d="M 2388.625639 324.470655 L 2984.534763 518.12838 " transform="matrix(0.0996442, 0, 0, -0.0996442, 0.588798, 103.261316)"/>
<path fill="none" stroke-width="5" stroke-linecap="round" stroke-linejoin="round" stroke="rgb(0%, 0%, 0%)" stroke-opacity="1" stroke-miterlimit="10" d="M 2388.625639 711.746902 L 2756.928134 204.826247 " transform="matrix(0.0996442, 0, 0, -0.0996442, 0.588798, 103.261316)"/>
<path fill="none" stroke-width="5" stroke-linecap="round" stroke-linejoin="round" stroke="rgb(0%, 0%, 0%)" stroke-opacity="1" stroke-miterlimit="10" d="M 2388.625639 711.746902 L 2984.534763 518.12838 " transform="matrix(0.0996442, 0, 0, -0.0996442, 0.588798, 103.261316)"/>
<path fill="none" stroke-width="5" stroke-linecap="round" stroke-linejoin="round" stroke="rgb(0%, 0%, 0%)" stroke-opacity="1" stroke-miterlimit="10" d="M 2756.928134 204.826247 L 2756.928134 831.430512 " transform="matrix(0.0996442, 0, 0, -0.0996442, 0.588798, 103.261316)"/>
<path fill="none" stroke-width="5" stroke-linecap="round" stroke-linejoin="round" stroke="rgb(0%, 0%, 0%)" stroke-opacity="1" stroke-miterlimit="10" d="M 2756.928134 204.826247 L 2807.812289 48.175181 " transform="matrix(0.0996442, 0, 0, -0.0996442, 0.588798, 103.261316)"/>
<path fill="none" stroke-width="5" stroke-linecap="round" stroke-linejoin="round" stroke="rgb(0%, 0%, 0%)" stroke-opacity="1" stroke-miterlimit="10" d="M 2756.928134 831.430512 L 2807.812289 988.081579 " transform="matrix(0.0996442, 0, 0, -0.0996442, 0.588798, 103.261316)"/>
<path fill="none" stroke-width="5" stroke-linecap="round" stroke-linejoin="round" stroke="rgb(0%, 0%, 0%)" stroke-opacity="1" stroke-miterlimit="10" d="M 2807.812289 48.175181 L 3149.261435 518.12838 " transform="matrix(0.0996442, 0, 0, -0.0996442, 0.588798, 103.261316)"/>
<path fill="none" stroke-width="5" stroke-linecap="round" stroke-linejoin="round" stroke="rgb(0%, 0%, 0%)" stroke-opacity="1" stroke-miterlimit="10" d="M 2807.812289 988.081579 L 3149.261435 518.12838 " transform="matrix(0.0996442, 0, 0, -0.0996442, 0.588798, 103.261316)"/>
<path fill="none" stroke-width="5" stroke-linecap="round" stroke-linejoin="round" stroke="rgb(0%, 0%, 0%)" stroke-opacity="1" stroke-miterlimit="10" d="M 2984.534763 518.12838 L 3149.261435 518.12838 " transform="matrix(0.0996442, 0, 0, -0.0996442, 0.588798, 103.261316)"/>
<path fill="none" stroke-width="80" stroke-linecap="round" stroke-linejoin="round" stroke="rgb(100%, 0%, 0%)" stroke-opacity="1" stroke-miterlimit="10" d="M 2756.928134 831.430512 L 2756.928134 831.430512 " transform="matrix(0.0996442, 0, 0, -0.0996442, 0.588798, 103.261316)"/>
<path fill="none" stroke-width="80" stroke-linecap="round" stroke-linejoin="round" stroke="rgb(100%, 0%, 0%)" stroke-opacity="1" stroke-miterlimit="10" d="M 2388.625639 711.746902 L 2388.625639 711.746902 " transform="matrix(0.0996442, 0, 0, -0.0996442, 0.588798, 103.261316)"/>
<path fill="none" stroke-width="80" stroke-linecap="round" stroke-linejoin="round" stroke="rgb(0%, 100%, 0%)" stroke-opacity="1" stroke-miterlimit="10" d="M 2388.625639 324.470655 L 2388.625639 324.470655 " transform="matrix(0.0996442, 0, 0, -0.0996442, 0.588798, 103.261316)"/>
<path fill="none" stroke-width="80" stroke-linecap="round" stroke-linejoin="round" stroke="rgb(0%, 100%, 0%)" stroke-opacity="1" stroke-miterlimit="10" d="M 2756.928134 204.826247 L 2756.928134 204.826247 " transform="matrix(0.0996442, 0, 0, -0.0996442, 0.588798, 103.261316)"/>
<path fill="none" stroke-width="80" stroke-linecap="round" stroke-linejoin="round" stroke="rgb(0%, 0%, 100%)" stroke-opacity="1" stroke-miterlimit="10" d="M 2984.534763 518.12838 L 2984.534763 518.12838 " transform="matrix(0.0996442, 0, 0, -0.0996442, 0.588798, 103.261316)"/>
<g clip-path="url(#clip-3)">
<path fill="none" stroke-width="80" stroke-linecap="round" stroke-linejoin="round" stroke="rgb(0%, 100%, 0%)" stroke-opacity="1" stroke-miterlimit="10" d="M 2807.812289 988.081579 L 2807.812289 988.081579 " transform="matrix(0.0996442, 0, 0, -0.0996442, 0.588798, 103.261316)"/>
</g>
<path fill="none" stroke-width="80" stroke-linecap="round" stroke-linejoin="round" stroke="rgb(0%, 0%, 100%)" stroke-opacity="1" stroke-miterlimit="10" d="M 2255.378148 808.575765 L 2255.378148 808.575765 " transform="matrix(0.0996442, 0, 0, -0.0996442, 0.588798, 103.261316)"/>
<path fill="none" stroke-width="80" stroke-linecap="round" stroke-linejoin="round" stroke="rgb(100%, 0%, 0%)" stroke-opacity="1" stroke-miterlimit="10" d="M 2255.378148 227.680995 L 2255.378148 227.680995 " transform="matrix(0.0996442, 0, 0, -0.0996442, 0.588798, 103.261316)"/>
<path fill="none" stroke-width="80" stroke-linecap="round" stroke-linejoin="round" stroke="rgb(0%, 0%, 100%)" stroke-opacity="1" stroke-miterlimit="10" d="M 2807.812289 48.175181 L 2807.812289 48.175181 " transform="matrix(0.0996442, 0, 0, -0.0996442, 0.588798, 103.261316)"/>
<path fill="none" stroke-width="80" stroke-linecap="round" stroke-linejoin="round" stroke="rgb(100%, 0%, 0%)" stroke-opacity="1" stroke-miterlimit="10" d="M 3149.261435 518.12838 L 3149.261435 518.12838 " transform="matrix(0.0996442, 0, 0, -0.0996442, 0.588798, 103.261316)"/>
<path fill="none" stroke-width="5" stroke-linecap="round" stroke-linejoin="round" stroke="rgb(0%, 0%, 0%)" stroke-opacity="1" stroke-miterlimit="10" d="M 3302.50193 308.985878 L 3302.50193 727.270882 " transform="matrix(0.0996442, 0, 0, -0.0996442, 0.588798, 103.261316)"/>
<path fill="none" stroke-width="5" stroke-linecap="round" stroke-linejoin="round" stroke="rgb(0%, 0%, 0%)" stroke-opacity="1" stroke-miterlimit="10" d="M 3302.50193 308.985878 L 3543.986056 518.12838 " transform="matrix(0.0996442, 0, 0, -0.0996442, 0.588798, 103.261316)"/>
<path fill="none" stroke-width="5" stroke-linecap="round" stroke-linejoin="round" stroke="rgb(0%, 0%, 0%)" stroke-opacity="1" stroke-miterlimit="10" d="M 3302.50193 308.985878 L 3629.563953 48.175181 " transform="matrix(0.0996442, 0, 0, -0.0996442, 0.588798, 103.261316)"/>
<path fill="none" stroke-width="5" stroke-linecap="round" stroke-linejoin="round" stroke="rgb(0%, 0%, 0%)" stroke-opacity="1" stroke-miterlimit="10" d="M 3302.50193 727.270882 L 3543.986056 518.12838 " transform="matrix(0.0996442, 0, 0, -0.0996442, 0.588798, 103.261316)"/>
<path fill="none" stroke-width="5" stroke-linecap="round" stroke-linejoin="round" stroke="rgb(0%, 0%, 0%)" stroke-opacity="1" stroke-miterlimit="10" d="M 3302.50193 727.270882 L 3629.563953 988.081579 " transform="matrix(0.0996442, 0, 0, -0.0996442, 0.588798, 103.261316)"/>
<path fill="none" stroke-width="5" stroke-linecap="round" stroke-linejoin="round" stroke="rgb(0%, 0%, 0%)" stroke-opacity="1" stroke-miterlimit="10" d="M 3543.986056 518.12838 L 3688.602118 542.23759 " transform="matrix(0.0996442, 0, 0, -0.0996442, 0.588798, 103.261316)"/>
<path fill="none" stroke-width="5" stroke-linecap="round" stroke-linejoin="round" stroke="rgb(0%, 0%, 0%)" stroke-opacity="1" stroke-miterlimit="10" d="M 3629.563953 48.175181 L 3736.820539 325.293897 " transform="matrix(0.0996442, 0, 0, -0.0996442, 0.588798, 103.261316)"/>
<path fill="none" stroke-width="5" stroke-linecap="round" stroke-linejoin="round" stroke="rgb(0%, 0%, 0%)" stroke-opacity="1" stroke-miterlimit="10" d="M 3629.563953 48.175181 L 4037.34283 141.240654 " transform="matrix(0.0996442, 0, 0, -0.0996442, 0.588798, 103.261316)"/>
<path fill="none" stroke-width="5" stroke-linecap="round" stroke-linejoin="round" stroke="rgb(0%, 0%, 0%)" stroke-opacity="1" stroke-miterlimit="10" d="M 3629.563953 988.081579 L 3736.820539 710.923661 " transform="matrix(0.0996442, 0, 0, -0.0996442, 0.588798, 103.261316)"/>
<path fill="none" stroke-width="5" stroke-linecap="round" stroke-linejoin="round" stroke="rgb(0%, 0%, 0%)" stroke-opacity="1" stroke-miterlimit="10" d="M 3629.563953 988.081579 L 4037.34283 894.976903 " transform="matrix(0.0996442, 0, 0, -0.0996442, 0.588798, 103.261316)"/>
<path fill="none" stroke-width="5" stroke-linecap="round" stroke-linejoin="round" stroke="rgb(0%, 0%, 0%)" stroke-opacity="1" stroke-miterlimit="10" d="M 3688.602118 542.23759 L 3736.820539 325.293897 " transform="matrix(0.0996442, 0, 0, -0.0996442, 0.588798, 103.261316)"/>
<path fill="none" stroke-width="5" stroke-linecap="round" stroke-linejoin="round" stroke="rgb(0%, 0%, 0%)" stroke-opacity="1" stroke-miterlimit="10" d="M 3688.602118 542.23759 L 3736.820539 710.923661 " transform="matrix(0.0996442, 0, 0, -0.0996442, 0.588798, 103.261316)"/>
<path fill="none" stroke-width="5" stroke-linecap="round" stroke-linejoin="round" stroke="rgb(0%, 0%, 0%)" stroke-opacity="1" stroke-miterlimit="10" d="M 3736.820539 325.293897 L 4037.34283 141.240654 " transform="matrix(0.0996442, 0, 0, -0.0996442, 0.588798, 103.261316)"/>
<path fill="none" stroke-width="5" stroke-linecap="round" stroke-linejoin="round" stroke="rgb(0%, 0%, 0%)" stroke-opacity="1" stroke-miterlimit="10" d="M 3736.820539 710.923661 L 3929.615821 518.12838 " transform="matrix(0.0996442, 0, 0, -0.0996442, 0.588798, 103.261316)"/>
<path fill="none" stroke-width="5" stroke-linecap="round" stroke-linejoin="round" stroke="rgb(0%, 0%, 0%)" stroke-opacity="1" stroke-miterlimit="10" d="M 3929.615821 518.12838 L 4037.34283 894.976903 " transform="matrix(0.0996442, 0, 0, -0.0996442, 0.588798, 103.261316)"/>
<path fill="none" stroke-width="5" stroke-linecap="round" stroke-linejoin="round" stroke="rgb(0%, 0%, 0%)" stroke-opacity="1" stroke-miterlimit="10" d="M 3929.615821 518.12838 L 4218.847945 518.12838 " transform="matrix(0.0996442, 0, 0, -0.0996442, 0.588798, 103.261316)"/>
<path fill="none" stroke-width="5" stroke-linecap="round" stroke-linejoin="round" stroke="rgb(0%, 0%, 0%)" stroke-opacity="1" stroke-miterlimit="10" d="M 4037.34283 141.240654 L 4218.847945 518.12838 " transform="matrix(0.0996442, 0, 0, -0.0996442, 0.588798, 103.261316)"/>
<path fill="none" stroke-width="5" stroke-linecap="round" stroke-linejoin="round" stroke="rgb(0%, 0%, 0%)" stroke-opacity="1" stroke-miterlimit="10" d="M 4037.34283 894.976903 L 4218.847945 518.12838 " transform="matrix(0.0996442, 0, 0, -0.0996442, 0.588798, 103.261316)"/>
<path fill="none" stroke-width="80" stroke-linecap="round" stroke-linejoin="round" stroke="rgb(100%, 0%, 0%)" stroke-opacity="1" stroke-miterlimit="10" d="M 4037.34283 894.976903 L 4037.34283 894.976903 " transform="matrix(0.0996442, 0, 0, -0.0996442, 0.588798, 103.261316)"/>
<g clip-path="url(#clip-4)">
<path fill="none" stroke-width="80" stroke-linecap="round" stroke-linejoin="round" stroke="rgb(0%, 100%, 0%)" stroke-opacity="1" stroke-miterlimit="10" d="M 3629.563953 988.081579 L 3629.563953 988.081579 " transform="matrix(0.0996442, 0, 0, -0.0996442, 0.588798, 103.261316)"/>
</g>
<path fill="none" stroke-width="80" stroke-linecap="round" stroke-linejoin="round" stroke="rgb(100%, 0%, 0%)" stroke-opacity="1" stroke-miterlimit="10" d="M 3302.50193 727.270882 L 3302.50193 727.270882 " transform="matrix(0.0996442, 0, 0, -0.0996442, 0.588798, 103.261316)"/>
<path fill="none" stroke-width="80" stroke-linecap="round" stroke-linejoin="round" stroke="rgb(0%, 100%, 0%)" stroke-opacity="1" stroke-miterlimit="10" d="M 3302.50193 308.985878 L 3302.50193 308.985878 " transform="matrix(0.0996442, 0, 0, -0.0996442, 0.588798, 103.261316)"/>
<path fill="none" stroke-width="80" stroke-linecap="round" stroke-linejoin="round" stroke="rgb(100%, 0%, 0%)" stroke-opacity="1" stroke-miterlimit="10" d="M 3629.563953 48.175181 L 3629.563953 48.175181 " transform="matrix(0.0996442, 0, 0, -0.0996442, 0.588798, 103.261316)"/>
<path fill="none" stroke-width="80" stroke-linecap="round" stroke-linejoin="round" stroke="rgb(0%, 100%, 0%)" stroke-opacity="1" stroke-miterlimit="10" d="M 4037.34283 141.240654 L 4037.34283 141.240654 " transform="matrix(0.0996442, 0, 0, -0.0996442, 0.588798, 103.261316)"/>
<path fill="none" stroke-width="80" stroke-linecap="round" stroke-linejoin="round" stroke="rgb(0%, 0%, 100%)" stroke-opacity="1" stroke-miterlimit="10" d="M 4218.847945 518.12838 L 4218.847945 518.12838 " transform="matrix(0.0996442, 0, 0, -0.0996442, 0.588798, 103.261316)"/>
<path fill="none" stroke-width="80" stroke-linecap="round" stroke-linejoin="round" stroke="rgb(100%, 0%, 0%)" stroke-opacity="1" stroke-miterlimit="10" d="M 3736.820539 710.923661 L 3736.820539 710.923661 " transform="matrix(0.0996442, 0, 0, -0.0996442, 0.588798, 103.261316)"/>
<path fill="none" stroke-width="80" stroke-linecap="round" stroke-linejoin="round" stroke="rgb(0%, 0%, 100%)" stroke-opacity="1" stroke-miterlimit="10" d="M 3543.986056 518.12838 L 3543.986056 518.12838 " transform="matrix(0.0996442, 0, 0, -0.0996442, 0.588798, 103.261316)"/>
<path fill="none" stroke-width="80" stroke-linecap="round" stroke-linejoin="round" stroke="rgb(0%, 0%, 100%)" stroke-opacity="1" stroke-miterlimit="10" d="M 3736.820539 325.293897 L 3736.820539 325.293897 " transform="matrix(0.0996442, 0, 0, -0.0996442, 0.588798, 103.261316)"/>
<path fill="none" stroke-width="80" stroke-linecap="round" stroke-linejoin="round" stroke="rgb(0%, 100%, 0%)" stroke-opacity="1" stroke-miterlimit="10" d="M 3929.615821 518.12838 L 3929.615821 518.12838 " transform="matrix(0.0996442, 0, 0, -0.0996442, 0.588798, 103.261316)"/>
<path fill="none" stroke-width="80" stroke-linecap="round" stroke-linejoin="round" stroke="rgb(0%, 100%, 0%)" stroke-opacity="1" stroke-miterlimit="10" d="M 3688.602118 542.23759 L 3688.602118 542.23759 " transform="matrix(0.0996442, 0, 0, -0.0996442, 0.588798, 103.261316)"/>
</svg>
