<?xml version="1.0" encoding="UTF-8"?>
<svg xmlns="http://www.w3.org/2000/svg" xmlns:xlink="http://www.w3.org/1999/xlink" width="48" height="33" viewBox="0 0 48 33">
<path fill-rule="evenodd" fill="rgb(100%, 100%, 100%)" fill-opacity="1" stroke-width="1.25" stroke-linecap="butt" stroke-linejoin="miter" stroke="rgb(0%, 0%, 0%)" stroke-opacity="1" stroke-miterlimit="4" d="M 290.078125 162.03125 L 377.773438 10.15625 L 202.382812 10.15625 Z M 290.078125 162.03125 " transform="matrix(0.1, 0, 0, -0.1, 0, 33)"/>
<path fill-rule="evenodd" fill="rgb(100%, 100%, 100%)" fill-opacity="1" stroke-width="1.25" stroke-linecap="butt" stroke-linejoin="miter" stroke="rgb(0%, 0%, 0%)" stroke-opacity="1" stroke-miterlimit="4" d="M 376.835938 10.15625 L 464.53125 162.03125 L 289.179688 162.03125 Z M 376.835938 10.15625 " transform="matrix(0.1, 0, 0, -0.1, 0, 33)"/>
<path fill-rule="evenodd" fill="rgb(100%, 100%, 100%)" fill-opacity="1" stroke-width="1.25" stroke-linecap="butt" stroke-linejoin="miter" stroke="rgb(0%, 0%, 0%)" stroke-opacity="1" stroke-miterlimit="4" d="M 115.703125 162.03125 L 203.398438 10.15625 L 28.007812 10.15625 Z M 115.703125 162.03125 " transform="matrix(0.1, 0, 0, -0.1, 0, 33)"/>
<path fill-rule="evenodd" fill="rgb(100%, 100%, 100%)" fill-opacity="1" stroke-width="1.25" stroke-linecap="butt" stroke-linejoin="miter" stroke="rgb(0%, 0%, 0%)" stroke-opacity="1" stroke-miterlimit="4" d="M 202.460938 10.15625 L 290.15625 162.03125 L 114.804688 162.03125 Z M 202.460938 10.15625 " transform="matrix(0.1, 0, 0, -0.1, 0, 33)"/>
<path fill-rule="evenodd" fill="rgb(100%, 100%, 100%)" fill-opacity="1" stroke-width="1.25" stroke-linecap="butt" stroke-linejoin="miter" stroke="rgb(0%, 0%, 0%)" stroke-opacity="1" stroke-miterlimit="4" d="M 203.828125 312.03125 L 291.523438 160.15625 L 116.132812 160.15625 Z M 203.828125 312.03125 " transform="matrix(0.1, 0, 0, -0.1, 0, 33)"/>
<path fill-rule="evenodd" fill="rgb(100%, 100%, 100%)" fill-opacity="1" stroke-width="1.25" stroke-linecap="butt" stroke-linejoin="miter" stroke="rgb(0%, 0%, 0%)" stroke-opacity="1" stroke-miterlimit="4" d="M 378.203125 312.03125 L 465.898438 160.15625 L 290.507812 160.15625 Z M 378.203125 312.03125 " transform="matrix(0.1, 0, 0, -0.1, 0, 33)"/>
</svg>
